<?xml version="1.0" encoding="UTF-8" standalone="no"?>
<!DOCTYPE svg PUBLIC "-//W3C//DTD SVG 1.1//EN"
 "http://www.w3.org/Graphics/SVG/1.1/DTD/svg11.dtd">
<!-- Generated by graphviz version 2.38.0 (20140413.2041)
 -->
<!-- Title: %3 Pages: 1 -->
<svg width="1773pt" height="1881pt"
 viewBox="0.00 0.00 1773.00 1881.00" xmlns="http://www.w3.org/2000/svg" xmlns:xlink="http://www.w3.org/1999/xlink">
<g id="graph0" class="graph" transform="scale(1 1) rotate(0) translate(4 1877)">
<title>%3</title>
<polygon fill="white" stroke="none" points="-4,4 -4,-1877 1769,-1877 1769,4 -4,4"/>
<!-- 59 -->
<g id="node1" class="node"><title>59</title>
<g id="a_node1"><a xlink:title="6th_week">
<ellipse fill="#efff05" stroke="black" cx="802.493" cy="-1102.67" rx="27" ry="18"/>
<text text-anchor="middle" x="802.493" y="-1098.97" font-family="Times,serif" font-size="14.00">59</text>
</a>
</g>
</g>
<!-- 27495 -->
<g id="node54" class="node"><title>27495</title>
<g id="a_node54"><a xlink:title="6th_week">
<ellipse fill="#efff05" stroke="black" cx="917.364" cy="-947.338" rx="32.4942" ry="18"/>
<text text-anchor="middle" x="917.364" y="-943.638" font-family="Times,serif" font-size="14.00">27495</text>
</a>
</g>
</g>
<!-- 59&#45;&gt;27495 -->
<g id="edge41" class="edge"><title>59&#45;&gt;27495</title>
<path fill="none" stroke="black" d="M814.569,-1086.34C836.458,-1056.74 882.48,-994.51 904.755,-964.389"/>
</g>
<!-- 802 -->
<g id="node2" class="node"><title>802</title>
<g id="a_node2"><a xlink:title="6th_week">
<ellipse fill="grey" stroke="black" cx="1251" cy="-476.694" rx="27" ry="18"/>
<text text-anchor="middle" x="1251" y="-472.994" font-family="Times,serif" font-size="14.00">802</text>
</a>
</g>
</g>
<!-- 18216 -->
<g id="node32" class="node"><title>18216</title>
<g id="a_node32"><a xlink:title="6th_week">
<ellipse fill="#efff05" stroke="black" cx="1102.9" cy="-684.818" rx="32.4942" ry="18"/>
<text text-anchor="middle" x="1102.9" y="-681.118" font-family="Times,serif" font-size="14.00">18216</text>
</a>
</g>
</g>
<!-- 802&#45;&gt;18216 -->
<g id="edge47" class="edge"><title>802&#45;&gt;18216</title>
<path fill="none" stroke="black" d="M1239.37,-493.025C1211.83,-531.739 1142.78,-628.772 1114.88,-667.985"/>
</g>
<!-- 961 -->
<g id="node3" class="node"><title>961</title>
<g id="a_node3"><a xlink:title="6th_week">
<ellipse fill="grey" stroke="black" cx="633.339" cy="-806.421" rx="27" ry="18"/>
<text text-anchor="middle" x="633.339" y="-802.721" font-family="Times,serif" font-size="14.00">961</text>
</a>
</g>
</g>
<!-- 8904 -->
<g id="node13" class="node"><title>8904</title>
<g id="a_node13"><a xlink:title="6th_week">
<ellipse fill="#20ff05" stroke="black" cx="407.185" cy="-695.509" rx="28.6953" ry="18"/>
<text text-anchor="middle" x="407.185" y="-691.809" font-family="Times,serif" font-size="14.00">8904</text>
</a>
</g>
</g>
<!-- 961&#45;&gt;8904 -->
<g id="edge10" class="edge"><title>961&#45;&gt;8904</title>
<path fill="none" stroke="black" d="M611.243,-795.584C568.23,-774.49 473.657,-728.109 430.043,-706.72"/>
</g>
<!-- 961&#45;&gt;27495 -->
<g id="edge55" class="edge"><title>961&#45;&gt;27495</title>
<path fill="none" stroke="black" d="M655.155,-817.244C707.244,-843.088 838.582,-908.25 893.08,-935.29"/>
</g>
<!-- 2903 -->
<g id="node4" class="node"><title>2903</title>
<g id="a_node4"><a xlink:title="6th_week">
<ellipse fill="#efff05" stroke="black" cx="885.811" cy="-1140.35" rx="28.6953" ry="18"/>
<text text-anchor="middle" x="885.811" y="-1136.65" font-family="Times,serif" font-size="14.00">2903</text>
</a>
</g>
</g>
<!-- 2903&#45;&gt;27495 -->
<g id="edge2" class="edge"><title>2903&#45;&gt;27495</title>
<path fill="none" stroke="black" d="M888.779,-1122.19C894.808,-1085.31 908.424,-1002.03 914.427,-965.307"/>
</g>
<!-- 3233 -->
<g id="node5" class="node"><title>3233</title>
<g id="a_node5"><a xlink:title="6th_week">
<ellipse fill="grey" stroke="black" cx="809.646" cy="-808.441" rx="28.6953" ry="18"/>
<text text-anchor="middle" x="809.646" y="-804.741" font-family="Times,serif" font-size="14.00">3233</text>
</a>
</g>
</g>
<!-- 3233&#45;&gt;27495 -->
<g id="edge67" class="edge"><title>3233&#45;&gt;27495</title>
<path fill="none" stroke="black" d="M822.214,-824.646C842.748,-851.124 883.294,-903.406 904.206,-930.37"/>
</g>
<!-- 3990 -->
<g id="node6" class="node"><title>3990</title>
<g id="a_node6"><a xlink:title="6th_week">
<ellipse fill="#efff05" stroke="black" cx="1236.98" cy="-906.755" rx="28.6953" ry="18"/>
<text text-anchor="middle" x="1236.98" y="-903.055" font-family="Times,serif" font-size="14.00">3990</text>
</a>
</g>
</g>
<!-- 3990&#45;&gt;27495 -->
<g id="edge8" class="edge"><title>3990&#45;&gt;27495</title>
<path fill="none" stroke="black" d="M1208.9,-910.321C1149.64,-917.845 1012.14,-935.304 949.496,-943.258"/>
</g>
<!-- 25601 -->
<g id="node67" class="node"><title>25601</title>
<g id="a_node67"><a xlink:title="6th_week">
<ellipse fill="grey" stroke="black" cx="1496.09" cy="-871.633" rx="32.4942" ry="18"/>
<text text-anchor="middle" x="1496.09" y="-867.933" font-family="Times,serif" font-size="14.00">25601</text>
</a>
</g>
</g>
<!-- 3990&#45;&gt;25601 -->
<g id="edge50" class="edge"><title>3990&#45;&gt;25601</title>
<path fill="none" stroke="black" d="M1265.2,-902.929C1313.86,-896.333 1413.23,-882.864 1464.27,-875.946"/>
</g>
<!-- 5224 -->
<g id="node7" class="node"><title>5224</title>
<g id="a_node7"><a xlink:title="6th_week">
<ellipse fill="#efff05" stroke="black" cx="979.828" cy="-547.811" rx="28.6953" ry="18"/>
<text text-anchor="middle" x="979.828" y="-544.111" font-family="Times,serif" font-size="14.00">5224</text>
</a>
</g>
</g>
<!-- 13885 -->
<g id="node23" class="node"><title>13885</title>
<g id="a_node23"><a xlink:title="6th_week">
<ellipse fill="#efff05" stroke="black" cx="1083.14" cy="-266.858" rx="32.4942" ry="18"/>
<text text-anchor="middle" x="1083.14" y="-263.158" font-family="Times,serif" font-size="14.00">13885</text>
</a>
</g>
</g>
<!-- 5224&#45;&gt;13885 -->
<g id="edge13" class="edge"><title>5224&#45;&gt;13885</title>
<path fill="none" stroke="black" d="M986.291,-530.236C1004.8,-479.901 1057.88,-335.563 1076.55,-284.788"/>
</g>
<!-- 15536 -->
<g id="node25" class="node"><title>15536</title>
<g id="a_node25"><a xlink:title="6th_week">
<ellipse fill="#efff05" stroke="black" cx="971.761" cy="-249.347" rx="32.4942" ry="18"/>
<text text-anchor="middle" x="971.761" y="-245.647" font-family="Times,serif" font-size="14.00">15536</text>
</a>
</g>
</g>
<!-- 5224&#45;&gt;15536 -->
<g id="edge27" class="edge"><title>5224&#45;&gt;15536</title>
<path fill="none" stroke="black" d="M979.335,-529.59C977.895,-476.307 973.702,-321.171 972.257,-267.709"/>
</g>
<!-- 5224&#45;&gt;27495 -->
<g id="edge29" class="edge"><title>5224&#45;&gt;27495</title>
<path fill="none" stroke="black" d="M977.023,-565.754C966.672,-631.956 930.688,-862.116 920.233,-928.987"/>
</g>
<!-- 5611 -->
<g id="node8" class="node"><title>5611</title>
<g id="a_node8"><a xlink:title="6th_week">
<ellipse fill="#ffffff" stroke="black" cx="774.51" cy="-1164.96" rx="28.6953" ry="18"/>
<text text-anchor="middle" x="774.51" y="-1161.26" font-family="Times,serif" font-size="14.00">5611</text>
</a>
</g>
</g>
<!-- 5611&#45;&gt;27495 -->
<g id="edge32" class="edge"><title>5611&#45;&gt;27495</title>
<path fill="none" stroke="black" d="M785.483,-1148.25C812.008,-1107.84 879.393,-1005.18 906.158,-964.41"/>
</g>
<!-- 5689 -->
<g id="node9" class="node"><title>5689</title>
<g id="a_node9"><a xlink:title="6th_week">
<ellipse fill="#ffffff" stroke="black" cx="258.444" cy="-877.282" rx="28.6953" ry="18"/>
<text text-anchor="middle" x="258.444" y="-873.582" font-family="Times,serif" font-size="14.00">5689</text>
</a>
</g>
</g>
<!-- 12858 -->
<g id="node21" class="node"><title>12858</title>
<g id="a_node21"><a xlink:title="6th_week">
<ellipse fill="#ffffff" stroke="black" cx="32.6362" cy="-847.028" rx="32.4942" ry="18"/>
<text text-anchor="middle" x="32.6362" y="-843.328" font-family="Times,serif" font-size="14.00">12858</text>
</a>
</g>
</g>
<!-- 5689&#45;&gt;12858 -->
<g id="edge3" class="edge"><title>5689&#45;&gt;12858</title>
<path fill="none" stroke="black" d="M230.302,-873.512C188.095,-867.857 108.646,-857.212 64.4102,-851.285"/>
</g>
<!-- 28591 -->
<g id="node58" class="node"><title>28591</title>
<g id="a_node58"><a xlink:title="6th_week">
<ellipse fill="#efff05" stroke="black" cx="559.427" cy="-916.679" rx="32.4942" ry="18"/>
<text text-anchor="middle" x="559.427" y="-912.979" font-family="Times,serif" font-size="14.00">28591</text>
</a>
</g>
</g>
<!-- 5689&#45;&gt;28591 -->
<g id="edge7" class="edge"><title>5689&#45;&gt;28591</title>
<path fill="none" stroke="black" d="M286.489,-880.953C342.674,-888.307 468.69,-904.802 527.749,-912.533"/>
</g>
<!-- 7761 -->
<g id="node10" class="node"><title>7761</title>
<g id="a_node10"><a xlink:title="6th_week">
<ellipse fill="grey" stroke="black" cx="736.993" cy="-1589.59" rx="28.6953" ry="18"/>
<text text-anchor="middle" x="736.993" y="-1585.89" font-family="Times,serif" font-size="14.00">7761</text>
</a>
</g>
</g>
<!-- 24476 -->
<g id="node43" class="node"><title>24476</title>
<g id="a_node43"><a xlink:title="6th_week">
<ellipse fill="#efff05" stroke="black" cx="763.611" cy="-1347.88" rx="32.4942" ry="18"/>
<text text-anchor="middle" x="763.611" y="-1344.18" font-family="Times,serif" font-size="14.00">24476</text>
</a>
</g>
</g>
<!-- 7761&#45;&gt;24476 -->
<g id="edge38" class="edge"><title>7761&#45;&gt;24476</title>
<path fill="none" stroke="black" d="M738.994,-1571.43C743.939,-1526.52 756.692,-1410.71 761.623,-1365.93"/>
</g>
<!-- 7957 -->
<g id="node11" class="node"><title>7957</title>
<g id="a_node11"><a xlink:title="6th_week">
<ellipse fill="#efff05" stroke="black" cx="1236.88" cy="-1013.4" rx="28.6953" ry="18"/>
<text text-anchor="middle" x="1236.88" y="-1009.7" font-family="Times,serif" font-size="14.00">7957</text>
</a>
</g>
</g>
<!-- 7957&#45;&gt;27495 -->
<g id="edge58" class="edge"><title>7957&#45;&gt;27495</title>
<path fill="none" stroke="black" d="M1209.64,-1007.77C1150.48,-995.537 1010.58,-966.611 948.255,-953.725"/>
</g>
<!-- 29406 -->
<g id="node68" class="node"><title>29406</title>
<g id="a_node68"><a xlink:title="6th_week">
<ellipse fill="#ffffff" stroke="black" cx="1493.45" cy="-1053.93" rx="32.4942" ry="18"/>
<text text-anchor="middle" x="1493.45" y="-1050.23" font-family="Times,serif" font-size="14.00">29406</text>
</a>
</g>
</g>
<!-- 7957&#45;&gt;29406 -->
<g id="edge34" class="edge"><title>7957&#45;&gt;29406</title>
<path fill="none" stroke="black" d="M1264.83,-1017.81C1313.01,-1025.43 1411.4,-1040.97 1461.94,-1048.95"/>
</g>
<!-- 8328 -->
<g id="node12" class="node"><title>8328</title>
<g id="a_node12"><a xlink:title="6th_week">
<ellipse fill="#efff05" stroke="black" cx="880.424" cy="-697.597" rx="28.6953" ry="18"/>
<text text-anchor="middle" x="880.424" y="-693.897" font-family="Times,serif" font-size="14.00">8328</text>
</a>
</g>
</g>
<!-- 8328&#45;&gt;27495 -->
<g id="edge21" class="edge"><title>8328&#45;&gt;27495</title>
<path fill="none" stroke="black" d="M883.081,-715.557C889.88,-761.525 907.855,-883.048 914.682,-929.204"/>
</g>
<!-- 9059 -->
<g id="node14" class="node"><title>9059</title>
<g id="a_node14"><a xlink:title="6th_week">
<ellipse fill="#efff05" stroke="black" cx="756.991" cy="-1025.09" rx="28.6953" ry="18"/>
<text text-anchor="middle" x="756.991" y="-1021.39" font-family="Times,serif" font-size="14.00">9059</text>
</a>
</g>
</g>
<!-- 9059&#45;&gt;27495 -->
<g id="edge57" class="edge"><title>9059&#45;&gt;27495</title>
<path fill="none" stroke="black" d="M779.969,-1013.95C809.936,-999.418 862.146,-974.107 892.852,-959.221"/>
</g>
<!-- 9706 -->
<g id="node15" class="node"><title>9706</title>
<g id="a_node15"><a xlink:title="6th_week">
<ellipse fill="#efff05" stroke="black" cx="736.067" cy="-761.921" rx="28.6953" ry="18"/>
<text text-anchor="middle" x="736.067" y="-758.221" font-family="Times,serif" font-size="14.00">9706</text>
</a>
</g>
</g>
<!-- 9706&#45;&gt;27495 -->
<g id="edge62" class="edge"><title>9706&#45;&gt;27495</title>
<path fill="none" stroke="black" d="M751.213,-777.41C785.254,-812.225 867.517,-896.357 901.878,-931.499"/>
</g>
<!-- 10506 -->
<g id="node16" class="node"><title>10506</title>
<g id="a_node16"><a xlink:title="6th_week">
<ellipse fill="#efff05" stroke="black" cx="1020.55" cy="-1111.51" rx="32.4942" ry="18"/>
<text text-anchor="middle" x="1020.55" y="-1107.81" font-family="Times,serif" font-size="14.00">10506</text>
</a>
</g>
</g>
<!-- 10506&#45;&gt;27495 -->
<g id="edge33" class="edge"><title>10506&#45;&gt;27495</title>
<path fill="none" stroke="black" d="M1009.7,-1094.25C989.83,-1062.64 947.826,-995.805 928.066,-964.365"/>
</g>
<!-- 11245 -->
<g id="node17" class="node"><title>11245</title>
<g id="a_node17"><a xlink:title="6th_week">
<ellipse fill="#efff05" stroke="black" cx="680.595" cy="-613.87" rx="32.4942" ry="18"/>
<text text-anchor="middle" x="680.595" y="-610.17" font-family="Times,serif" font-size="14.00">11245</text>
</a>
</g>
</g>
<!-- 15769 -->
<g id="node27" class="node"><title>15769</title>
<g id="a_node27"><a xlink:title="6th_week">
<ellipse fill="#efff05" stroke="black" cx="474.209" cy="-455.845" rx="32.4942" ry="18"/>
<text text-anchor="middle" x="474.209" y="-452.145" font-family="Times,serif" font-size="14.00">15769</text>
</a>
</g>
</g>
<!-- 11245&#45;&gt;15769 -->
<g id="edge17" class="edge"><title>11245&#45;&gt;15769</title>
<path fill="none" stroke="black" d="M661.179,-599.004C621.743,-568.808 532.69,-500.622 493.424,-470.557"/>
</g>
<!-- 18844 -->
<g id="node33" class="node"><title>18844</title>
<g id="a_node33"><a xlink:title="6th_week">
<ellipse fill="#efff05" stroke="black" cx="612.054" cy="-372.652" rx="32.4942" ry="18"/>
<text text-anchor="middle" x="612.054" y="-368.952" font-family="Times,serif" font-size="14.00">18844</text>
</a>
</g>
</g>
<!-- 11245&#45;&gt;18844 -->
<g id="edge64" class="edge"><title>11245&#45;&gt;18844</title>
<path fill="none" stroke="black" d="M675.443,-595.74C662.71,-550.927 629.87,-435.352 617.172,-390.664"/>
</g>
<!-- 11245&#45;&gt;27495 -->
<g id="edge53" class="edge"><title>11245&#45;&gt;27495</title>
<path fill="none" stroke="black" d="M692.662,-630.865C733.278,-688.069 864.742,-873.224 905.322,-930.377"/>
</g>
<!-- 28550 -->
<g id="node57" class="node"><title>28550</title>
<g id="a_node57"><a xlink:title="6th_week">
<ellipse fill="#efff05" stroke="black" cx="528.776" cy="-411.036" rx="32.4942" ry="18"/>
<text text-anchor="middle" x="528.776" y="-407.336" font-family="Times,serif" font-size="14.00">28550</text>
</a>
</g>
</g>
<!-- 11245&#45;&gt;28550 -->
<g id="edge44" class="edge"><title>11245&#45;&gt;28550</title>
<path fill="none" stroke="black" d="M667.912,-596.926C639.263,-558.65 569.829,-465.884 541.316,-427.79"/>
</g>
<!-- 12178 -->
<g id="node18" class="node"><title>12178</title>
<g id="a_node18"><a xlink:title="6th_week">
<ellipse fill="#efff05" stroke="black" cx="883.633" cy="-760.517" rx="32.4942" ry="18"/>
<text text-anchor="middle" x="883.633" y="-756.817" font-family="Times,serif" font-size="14.00">12178</text>
</a>
</g>
</g>
<!-- 12178&#45;&gt;27495 -->
<g id="edge36" class="edge"><title>12178&#45;&gt;27495</title>
<path fill="none" stroke="black" d="M886.867,-778.43C893.298,-814.048 907.627,-893.407 914.09,-929.204"/>
</g>
<!-- 12284 -->
<g id="node19" class="node"><title>12284</title>
<g id="a_node19"><a xlink:title="6th_week">
<ellipse fill="#efff05" stroke="black" cx="746.391" cy="-927.315" rx="32.4942" ry="18"/>
<text text-anchor="middle" x="746.391" y="-923.615" font-family="Times,serif" font-size="14.00">12284</text>
</a>
</g>
</g>
<!-- 12284&#45;&gt;27495 -->
<g id="edge69" class="edge"><title>12284&#45;&gt;27495</title>
<path fill="none" stroke="black" d="M778.55,-931.081C809.117,-934.661 854.83,-940.014 885.35,-943.589"/>
</g>
<!-- 12311 -->
<g id="node20" class="node"><title>12311</title>
<g id="a_node20"><a xlink:title="6th_week">
<ellipse fill="grey" stroke="black" cx="960.497" cy="-1167.3" rx="32.4942" ry="18"/>
<text text-anchor="middle" x="960.497" y="-1163.6" font-family="Times,serif" font-size="14.00">12311</text>
</a>
</g>
</g>
<!-- 12311&#45;&gt;27495 -->
<g id="edge51" class="edge"><title>12311&#45;&gt;27495</title>
<path fill="none" stroke="black" d="M956.967,-1149.3C948.859,-1107.95 928.979,-1006.57 920.882,-965.278"/>
</g>
<!-- 13468 -->
<g id="node22" class="node"><title>13468</title>
<g id="a_node22"><a xlink:title="6th_week">
<ellipse fill="#efff05" stroke="black" cx="715.571" cy="-1114.74" rx="32.4942" ry="18"/>
<text text-anchor="middle" x="715.571" y="-1111.04" font-family="Times,serif" font-size="14.00">13468</text>
</a>
</g>
</g>
<!-- 13468&#45;&gt;27495 -->
<g id="edge70" class="edge"><title>13468&#45;&gt;27495</title>
<path fill="none" stroke="black" d="M733.834,-1099.59C772.254,-1067.72 861.032,-994.07 899.287,-962.334"/>
</g>
<!-- 32405 -->
<g id="node69" class="node"><title>32405</title>
<g id="a_node69"><a xlink:title="6th_week">
<ellipse fill="grey" stroke="black" cx="1163.17" cy="-50.1258" rx="32.4942" ry="18"/>
<text text-anchor="middle" x="1163.17" y="-46.4258" font-family="Times,serif" font-size="14.00">32405</text>
</a>
</g>
</g>
<!-- 13885&#45;&gt;32405 -->
<g id="edge65" class="edge"><title>13885&#45;&gt;32405</title>
<path fill="none" stroke="black" d="M1089.69,-249.122C1104.74,-208.38 1141.62,-108.488 1156.64,-67.803"/>
</g>
<!-- 14410 -->
<g id="node24" class="node"><title>14410</title>
<g id="a_node24"><a xlink:title="6th_week">
<ellipse fill="grey" stroke="black" cx="1064.2" cy="-1340.48" rx="32.4942" ry="18"/>
<text text-anchor="middle" x="1064.2" y="-1336.78" font-family="Times,serif" font-size="14.00">14410</text>
</a>
</g>
</g>
<!-- 14410&#45;&gt;27495 -->
<g id="edge54" class="edge"><title>14410&#45;&gt;27495</title>
<path fill="none" stroke="black" d="M1057.6,-1322.82C1033.27,-1257.68 948.684,-1031.2 924.109,-965.396"/>
</g>
<!-- 27555 -->
<g id="node55" class="node"><title>27555</title>
<g id="a_node55"><a xlink:title="6th_week">
<ellipse fill="grey" stroke="black" cx="1076.82" cy="-1581.26" rx="32.4942" ry="18"/>
<text text-anchor="middle" x="1076.82" y="-1577.56" font-family="Times,serif" font-size="14.00">27555</text>
</a>
</g>
</g>
<!-- 14410&#45;&gt;27555 -->
<g id="edge39" class="edge"><title>14410&#45;&gt;27555</title>
<path fill="none" stroke="black" d="M1065.15,-1358.57C1067.49,-1403.2 1073.51,-1518.11 1075.86,-1562.95"/>
</g>
<!-- 31419 -->
<g id="node64" class="node"><title>31419</title>
<g id="a_node64"><a xlink:title="6th_week">
<ellipse fill="#20ff05" stroke="black" cx="1153.03" cy="-1573.9" rx="32.4942" ry="18"/>
<text text-anchor="middle" x="1153.03" y="-1570.2" font-family="Times,serif" font-size="14.00">31419</text>
</a>
</g>
</g>
<!-- 14410&#45;&gt;31419 -->
<g id="edge56" class="edge"><title>14410&#45;&gt;31419</title>
<path fill="none" stroke="black" d="M1071.02,-1358.41C1087.59,-1401.96 1129.83,-1512.94 1146.3,-1556.23"/>
</g>
<!-- 14811 -->
<g id="node66" class="node"><title>14811</title>
<g id="a_node66"><a xlink:title="6th_week">
<ellipse fill="#20ff05" stroke="black" cx="1214.8" cy="-1528.85" rx="32.4942" ry="18"/>
<text text-anchor="middle" x="1214.8" y="-1525.15" font-family="Times,serif" font-size="14.00">14811</text>
</a>
</g>
</g>
<!-- 14410&#45;&gt;14811 -->
<g id="edge22" class="edge"><title>14410&#45;&gt;14811</title>
<path fill="none" stroke="black" d="M1077.56,-1357.19C1106.14,-1392.94 1172.91,-1476.46 1201.46,-1512.17"/>
</g>
<!-- 29210 -->
<g id="node71" class="node"><title>29210</title>
<g id="a_node71"><a xlink:title="6th_week">
<ellipse fill="grey" stroke="black" cx="967.778" cy="-18.4515" rx="32.4942" ry="18"/>
<text text-anchor="middle" x="967.778" y="-14.7515" font-family="Times,serif" font-size="14.00">29210</text>
</a>
</g>
</g>
<!-- 15536&#45;&gt;29210 -->
<g id="edge66" class="edge"><title>15536&#45;&gt;29210</title>
<path fill="none" stroke="black" d="M971.448,-231.229C970.704,-188.067 968.832,-79.5626 968.089,-36.4853"/>
</g>
<!-- 15566 -->
<g id="node26" class="node"><title>15566</title>
<g id="a_node26"><a xlink:title="6th_week">
<ellipse fill="#efff05" stroke="black" cx="1238.9" cy="-769.256" rx="32.4942" ry="18"/>
<text text-anchor="middle" x="1238.9" y="-765.556" font-family="Times,serif" font-size="14.00">15566</text>
</a>
</g>
</g>
<!-- 17761 -->
<g id="node30" class="node"><title>17761</title>
<g id="a_node30"><a xlink:title="6th_week">
<ellipse fill="#efff05" stroke="black" cx="1484.11" cy="-677.936" rx="32.4942" ry="18"/>
<text text-anchor="middle" x="1484.11" y="-674.236" font-family="Times,serif" font-size="14.00">17761</text>
</a>
</g>
</g>
<!-- 15566&#45;&gt;17761 -->
<g id="edge31" class="edge"><title>15566&#45;&gt;17761</title>
<path fill="none" stroke="black" d="M1266.08,-759.134C1313.21,-741.58 1409.59,-705.688 1456.81,-688.103"/>
</g>
<!-- 26774 -->
<g id="node52" class="node"><title>26774</title>
<g id="a_node52"><a xlink:title="6th_week">
<ellipse fill="#efff05" stroke="black" cx="1440.11" cy="-603.82" rx="32.4942" ry="18"/>
<text text-anchor="middle" x="1440.11" y="-600.12" font-family="Times,serif" font-size="14.00">26774</text>
</a>
</g>
</g>
<!-- 15566&#45;&gt;26774 -->
<g id="edge60" class="edge"><title>15566&#45;&gt;26774</title>
<path fill="none" stroke="black" d="M1257.11,-754.283C1295.32,-722.865 1383.5,-650.371 1421.8,-618.879"/>
</g>
<!-- 15566&#45;&gt;27495 -->
<g id="edge48" class="edge"><title>15566&#45;&gt;27495</title>
<path fill="none" stroke="black" d="M1215.78,-782.063C1156.59,-814.841 1000.14,-901.495 940.711,-934.407"/>
</g>
<!-- 16621 -->
<g id="node28" class="node"><title>16621</title>
<g id="a_node28"><a xlink:title="6th_week">
<ellipse fill="#efff05" stroke="black" cx="807.973" cy="-715.001" rx="32.4942" ry="18"/>
<text text-anchor="middle" x="807.973" y="-711.301" font-family="Times,serif" font-size="14.00">16621</text>
</a>
</g>
</g>
<!-- 16621&#45;&gt;27495 -->
<g id="edge35" class="edge"><title>16621&#45;&gt;27495</title>
<path fill="none" stroke="black" d="M816.195,-732.464C836.468,-775.521 888.674,-886.403 909.047,-929.672"/>
</g>
<!-- 17073 -->
<g id="node29" class="node"><title>17073</title>
<g id="a_node29"><a xlink:title="6th_week">
<ellipse fill="grey" stroke="black" cx="323.587" cy="-1243.83" rx="32.4942" ry="18"/>
<text text-anchor="middle" x="323.587" y="-1240.13" font-family="Times,serif" font-size="14.00">17073</text>
</a>
</g>
</g>
<!-- 23820 -->
<g id="node42" class="node"><title>23820</title>
<g id="a_node42"><a xlink:title="6th_week">
<ellipse fill="#efff05" stroke="black" cx="557.83" cy="-1131.84" rx="32.4942" ry="18"/>
<text text-anchor="middle" x="557.83" y="-1128.14" font-family="Times,serif" font-size="14.00">23820</text>
</a>
</g>
</g>
<!-- 17073&#45;&gt;23820 -->
<g id="edge59" class="edge"><title>17073&#45;&gt;23820</title>
<path fill="none" stroke="black" d="M348.213,-1232.06C393.201,-1210.55 488.179,-1165.14 533.183,-1143.63"/>
</g>
<!-- 18146 -->
<g id="node31" class="node"><title>18146</title>
<g id="a_node31"><a xlink:title="6th_week">
<ellipse fill="#efff05" stroke="black" cx="674.939" cy="-1044.09" rx="32.4942" ry="18"/>
<text text-anchor="middle" x="674.939" y="-1040.39" font-family="Times,serif" font-size="14.00">18146</text>
</a>
</g>
</g>
<!-- 18146&#45;&gt;27495 -->
<g id="edge14" class="edge"><title>18146&#45;&gt;27495</title>
<path fill="none" stroke="black" d="M701.344,-1033.56C747.977,-1014.94 844.382,-976.466 890.992,-957.864"/>
</g>
<!-- 18216&#45;&gt;27495 -->
<g id="edge42" class="edge"><title>18216&#45;&gt;27495</title>
<path fill="none" stroke="black" d="M1091.01,-701.639C1057.58,-748.943 962.996,-882.771 929.394,-930.317"/>
</g>
<!-- 18974 -->
<g id="node34" class="node"><title>18974</title>
<g id="a_node34"><a xlink:title="6th_week">
<ellipse fill="#efff05" stroke="black" cx="923.193" cy="-1218.82" rx="32.4942" ry="18"/>
<text text-anchor="middle" x="923.193" y="-1215.12" font-family="Times,serif" font-size="14.00">18974</text>
</a>
</g>
</g>
<!-- 18974&#45;&gt;27495 -->
<g id="edge1" class="edge"><title>18974&#45;&gt;27495</title>
<path fill="none" stroke="black" d="M922.801,-1200.59C921.74,-1151.13 918.814,-1014.86 917.754,-965.493"/>
</g>
<!-- 19094 -->
<g id="node35" class="node"><title>19094</title>
<g id="a_node35"><a xlink:title="6th_week">
<ellipse fill="#efff05" stroke="black" cx="1044.51" cy="-1176.07" rx="32.4942" ry="18"/>
<text text-anchor="middle" x="1044.51" y="-1172.37" font-family="Times,serif" font-size="14.00">19094</text>
</a>
</g>
</g>
<!-- 19094&#45;&gt;27495 -->
<g id="edge71" class="edge"><title>19094&#45;&gt;27495</title>
<path fill="none" stroke="black" d="M1034.74,-1158.51C1011.02,-1115.82 950.568,-1007.07 926.989,-964.653"/>
</g>
<!-- 20259 -->
<g id="node36" class="node"><title>20259</title>
<g id="a_node36"><a xlink:title="6th_week">
<ellipse fill="#efff05" stroke="black" cx="1139.89" cy="-1069.87" rx="32.4942" ry="18"/>
<text text-anchor="middle" x="1139.89" y="-1066.17" font-family="Times,serif" font-size="14.00">20259</text>
</a>
</g>
</g>
<!-- 20259&#45;&gt;27495 -->
<g id="edge30" class="edge"><title>20259&#45;&gt;27495</title>
<path fill="none" stroke="black" d="M1116.5,-1056.98C1073.65,-1033.39 983.06,-983.511 940.444,-960.046"/>
</g>
<!-- 20876 -->
<g id="node37" class="node"><title>20876</title>
<g id="a_node37"><a xlink:title="6th_week">
<ellipse fill="#ffffff" stroke="black" cx="1132.47" cy="-857.701" rx="32.4942" ry="18"/>
<text text-anchor="middle" x="1132.47" y="-854.001" font-family="Times,serif" font-size="14.00">20876</text>
</a>
</g>
</g>
<!-- 20876&#45;&gt;27495 -->
<g id="edge20" class="edge"><title>20876&#45;&gt;27495</title>
<path fill="none" stroke="black" d="M1106.09,-868.692C1064.7,-885.943 984.941,-919.178 943.619,-936.397"/>
</g>
<!-- 21665 -->
<g id="node38" class="node"><title>21665</title>
<g id="a_node38"><a xlink:title="6th_week">
<ellipse fill="#efff05" stroke="black" cx="1047.67" cy="-736.883" rx="32.4942" ry="18"/>
<text text-anchor="middle" x="1047.67" y="-733.183" font-family="Times,serif" font-size="14.00">21665</text>
</a>
</g>
</g>
<!-- 21665&#45;&gt;27495 -->
<g id="edge16" class="edge"><title>21665&#45;&gt;27495</title>
<path fill="none" stroke="black" d="M1037.01,-754.106C1012.51,-793.668 952.454,-890.666 927.993,-930.173"/>
</g>
<!-- 22134 -->
<g id="node39" class="node"><title>22134</title>
<g id="a_node39"><a xlink:title="6th_week">
<ellipse fill="#efff05" stroke="black" cx="1120.91" cy="-785.95" rx="32.4942" ry="18"/>
<text text-anchor="middle" x="1120.91" y="-782.25" font-family="Times,serif" font-size="14.00">22134</text>
</a>
</g>
</g>
<!-- 22134&#45;&gt;27495 -->
<g id="edge40" class="edge"><title>22134&#45;&gt;27495</title>
<path fill="none" stroke="black" d="M1102.12,-800.844C1063.35,-831.589 974.84,-901.766 936.103,-932.48"/>
</g>
<!-- 22360 -->
<g id="node40" class="node"><title>22360</title>
<g id="a_node40"><a xlink:title="6th_week">
<ellipse fill="#efff05" stroke="black" cx="1068.81" cy="-1021.76" rx="32.4942" ry="18"/>
<text text-anchor="middle" x="1068.81" y="-1018.06" font-family="Times,serif" font-size="14.00">22360</text>
</a>
</g>
</g>
<!-- 22360&#45;&gt;27495 -->
<g id="edge37" class="edge"><title>22360&#45;&gt;27495</title>
<path fill="none" stroke="black" d="M1044.48,-1009.81C1016.38,-996 970.419,-973.411 942.139,-959.513"/>
</g>
<!-- 23380 -->
<g id="node41" class="node"><title>23380</title>
<g id="a_node41"><a xlink:title="6th_week">
<ellipse fill="#efff05" stroke="black" cx="1130.81" cy="-920.216" rx="32.4942" ry="18"/>
<text text-anchor="middle" x="1130.81" y="-916.516" font-family="Times,serif" font-size="14.00">23380</text>
</a>
</g>
</g>
<!-- 23380&#45;&gt;27495 -->
<g id="edge19" class="edge"><title>23380&#45;&gt;27495</title>
<path fill="none" stroke="black" d="M1098.86,-924.276C1058.5,-929.404 989.483,-938.174 949.189,-943.294"/>
</g>
<!-- 25458 -->
<g id="node46" class="node"><title>25458</title>
<g id="a_node46"><a xlink:title="6th_week">
<ellipse fill="grey" stroke="black" cx="370.63" cy="-1306.6" rx="32.4942" ry="18"/>
<text text-anchor="middle" x="370.63" y="-1302.9" font-family="Times,serif" font-size="14.00">25458</text>
</a>
</g>
</g>
<!-- 23820&#45;&gt;25458 -->
<g id="edge15" class="edge"><title>23820&#45;&gt;25458</title>
<path fill="none" stroke="black" d="M541.217,-1147.35C505.782,-1180.43 423.114,-1257.6 387.474,-1290.87"/>
</g>
<!-- 23820&#45;&gt;27495 -->
<g id="edge24" class="edge"><title>23820&#45;&gt;27495</title>
<path fill="none" stroke="black" d="M581.698,-1119.59C646.943,-1086.11 827.757,-993.322 893.269,-959.703"/>
</g>
<!-- 138 -->
<g id="node70" class="node"><title>138</title>
<g id="a_node70"><a xlink:title="6th_week">
<ellipse fill="#ffffff" stroke="black" cx="311.327" cy="-1167.25" rx="27" ry="18"/>
<text text-anchor="middle" x="311.327" y="-1163.55" font-family="Times,serif" font-size="14.00">138</text>
</a>
</g>
</g>
<!-- 23820&#45;&gt;138 -->
<g id="edge45" class="edge"><title>23820&#45;&gt;138</title>
<path fill="none" stroke="black" d="M526.36,-1136.36C477.298,-1143.41 383.473,-1156.89 337.723,-1163.46"/>
</g>
<!-- 24476&#45;&gt;27495 -->
<g id="edge18" class="edge"><title>24476&#45;&gt;27495</title>
<path fill="none" stroke="black" d="M770.416,-1330.15C795.813,-1263.99 884.907,-1031.89 910.464,-965.315"/>
</g>
<!-- 31936 -->
<g id="node61" class="node"><title>31936</title>
<g id="a_node61"><a xlink:title="6th_week">
<ellipse fill="#efff05" stroke="black" cx="649.023" cy="-1639.3" rx="32.4942" ry="18"/>
<text text-anchor="middle" x="649.023" y="-1635.6" font-family="Times,serif" font-size="14.00">31936</text>
</a>
</g>
</g>
<!-- 24476&#45;&gt;31936 -->
<g id="edge26" class="edge"><title>24476&#45;&gt;31936</title>
<path fill="none" stroke="black" d="M756.616,-1365.67C736.159,-1417.7 676.598,-1569.17 656.073,-1621.37"/>
</g>
<!-- 5466 -->
<g id="node62" class="node"><title>5466</title>
<g id="a_node62"><a xlink:title="6th_week">
<ellipse fill="#efff05" stroke="black" cx="618.315" cy="-1542.65" rx="28.6953" ry="18"/>
<text text-anchor="middle" x="618.315" y="-1538.95" font-family="Times,serif" font-size="14.00">5466</text>
</a>
</g>
</g>
<!-- 24476&#45;&gt;5466 -->
<g id="edge5" class="edge"><title>24476&#45;&gt;5466</title>
<path fill="none" stroke="black" d="M750.971,-1364.82C723.354,-1401.84 657.922,-1489.56 630.616,-1526.16"/>
</g>
<!-- 24479 -->
<g id="node44" class="node"><title>24479</title>
<g id="a_node44"><a xlink:title="6th_week">
<ellipse fill="grey" stroke="black" cx="1098.72" cy="-1130.16" rx="32.4942" ry="18"/>
<text text-anchor="middle" x="1098.72" y="-1126.46" font-family="Times,serif" font-size="14.00">24479</text>
</a>
</g>
</g>
<!-- 24479&#45;&gt;27495 -->
<g id="edge11" class="edge"><title>24479&#45;&gt;27495</title>
<path fill="none" stroke="black" d="M1082.94,-1114.26C1048.64,-1079.68 967.616,-997.996 933.234,-963.336"/>
</g>
<!-- 25074 -->
<g id="node45" class="node"><title>25074</title>
<g id="a_node45"><a xlink:title="6th_week">
<ellipse fill="grey" stroke="black" cx="1036.91" cy="-832.466" rx="32.4942" ry="18"/>
<text text-anchor="middle" x="1036.91" y="-828.766" font-family="Times,serif" font-size="14.00">25074</text>
</a>
</g>
</g>
<!-- 25074&#45;&gt;27495 -->
<g id="edge25" class="edge"><title>25074&#45;&gt;27495</title>
<path fill="none" stroke="black" d="M1020.29,-848.439C997.451,-870.385 956.612,-909.626 933.846,-931.501"/>
</g>
<!-- 25502 -->
<g id="node47" class="node"><title>25502</title>
<g id="a_node47"><a xlink:title="6th_week">
<ellipse fill="#ffffff" stroke="black" cx="960.297" cy="-697.066" rx="32.4942" ry="18"/>
<text text-anchor="middle" x="960.297" y="-693.366" font-family="Times,serif" font-size="14.00">25502</text>
</a>
</g>
</g>
<!-- 25502&#45;&gt;27495 -->
<g id="edge6" class="edge"><title>25502&#45;&gt;27495</title>
<path fill="none" stroke="black" d="M957.209,-715.065C949.307,-761.13 928.416,-882.912 920.482,-929.166"/>
</g>
<!-- 25746 -->
<g id="node48" class="node"><title>25746</title>
<g id="a_node48"><a xlink:title="6th_week">
<ellipse fill="#efff05" stroke="black" cx="666.302" cy="-974.237" rx="32.4942" ry="18"/>
<text text-anchor="middle" x="666.302" y="-970.537" font-family="Times,serif" font-size="14.00">25746</text>
</a>
</g>
</g>
<!-- 25746&#45;&gt;27495 -->
<g id="edge46" class="edge"><title>25746&#45;&gt;27495</title>
<path fill="none" stroke="black" d="M698.354,-970.803C746.473,-965.648 836.867,-955.963 885.106,-950.794"/>
</g>
<!-- 26177 -->
<g id="node49" class="node"><title>26177</title>
<g id="a_node49"><a xlink:title="6th_week">
<ellipse fill="grey" stroke="black" cx="1250.57" cy="-1165.07" rx="32.4942" ry="18"/>
<text text-anchor="middle" x="1250.57" y="-1161.37" font-family="Times,serif" font-size="14.00">26177</text>
</a>
</g>
</g>
<!-- 26177&#45;&gt;27495 -->
<g id="edge43" class="edge"><title>26177&#45;&gt;27495</title>
<path fill="none" stroke="black" d="M1229.47,-1151.28C1169.53,-1112.11 998.675,-1000.47 938.583,-961.203"/>
</g>
<!-- 30416 -->
<g id="node60" class="node"><title>30416</title>
<g id="a_node60"><a xlink:title="6th_week">
<ellipse fill="#20ff05" stroke="black" cx="1529.34" cy="-1303.5" rx="32.4942" ry="18"/>
<text text-anchor="middle" x="1529.34" y="-1299.8" font-family="Times,serif" font-size="14.00">30416</text>
</a>
</g>
</g>
<!-- 26177&#45;&gt;30416 -->
<g id="edge63" class="edge"><title>26177&#45;&gt;30416</title>
<path fill="none" stroke="black" d="M1274.82,-1177.11C1327.54,-1203.29 1452.1,-1265.14 1504.95,-1291.39"/>
</g>
<!-- 31768 -->
<g id="node65" class="node"><title>31768</title>
<g id="a_node65"><a xlink:title="6th_week">
<ellipse fill="#20ff05" stroke="black" cx="1440.84" cy="-1327.28" rx="32.4942" ry="18"/>
<text text-anchor="middle" x="1440.84" y="-1323.58" font-family="Times,serif" font-size="14.00">31768</text>
</a>
</g>
</g>
<!-- 26177&#45;&gt;31768 -->
<g id="edge61" class="edge"><title>26177&#45;&gt;31768</title>
<path fill="none" stroke="black" d="M1268.47,-1180.33C1304.83,-1211.32 1386.93,-1281.32 1423.13,-1312.18"/>
</g>
<!-- 26262 -->
<g id="node50" class="node"><title>26262</title>
<g id="a_node50"><a xlink:title="6th_week">
<ellipse fill="#ffffff" stroke="black" cx="724.314" cy="-833.942" rx="32.4942" ry="18"/>
<text text-anchor="middle" x="724.314" y="-830.242" font-family="Times,serif" font-size="14.00">26262</text>
</a>
</g>
</g>
<!-- 26262&#45;&gt;27495 -->
<g id="edge12" class="edge"><title>26262&#45;&gt;27495</title>
<path fill="none" stroke="black" d="M746.837,-847.172C784.036,-869.022 857.88,-912.398 894.985,-934.192"/>
</g>
<!-- 26587 -->
<g id="node51" class="node"><title>26587</title>
<g id="a_node51"><a xlink:title="6th_week">
<ellipse fill="#efff05" stroke="black" cx="960.851" cy="-758.995" rx="32.4942" ry="18"/>
<text text-anchor="middle" x="960.851" y="-755.295" font-family="Times,serif" font-size="14.00">26587</text>
</a>
</g>
</g>
<!-- 26587&#45;&gt;27495 -->
<g id="edge9" class="edge"><title>26587&#45;&gt;27495</title>
<path fill="none" stroke="black" d="M956.681,-777.054C948.369,-813.054 929.823,-893.378 921.521,-929.333"/>
</g>
<!-- 27340 -->
<g id="node53" class="node"><title>27340</title>
<g id="a_node53"><a xlink:title="6th_week">
<ellipse fill="#efff05" stroke="black" cx="1154.12" cy="-982.637" rx="32.4942" ry="18"/>
<text text-anchor="middle" x="1154.12" y="-978.937" font-family="Times,serif" font-size="14.00">27340</text>
</a>
</g>
</g>
<!-- 27340&#45;&gt;27495 -->
<g id="edge52" class="edge"><title>27340&#45;&gt;27495</title>
<path fill="none" stroke="black" d="M1122.68,-977.95C1077.4,-971.198 994.289,-958.807 948.934,-952.045"/>
</g>
<!-- 27672 -->
<g id="node56" class="node"><title>27672</title>
<g id="a_node56"><a xlink:title="6th_week">
<ellipse fill="#efff05" stroke="black" cx="666.224" cy="-884.54" rx="32.4942" ry="18"/>
<text text-anchor="middle" x="666.224" y="-880.84" font-family="Times,serif" font-size="14.00">27672</text>
</a>
</g>
</g>
<!-- 27495&#45;&gt;27672 -->
<g id="edge4" class="edge"><title>27495&#45;&gt;27672</title>
<path fill="none" stroke="black" d="M887.569,-939.888C839.235,-927.801 744.29,-904.06 695.981,-891.98"/>
</g>
<!-- 27495&#45;&gt;28591 -->
<g id="edge23" class="edge"><title>27495&#45;&gt;28591</title>
<path fill="none" stroke="black" d="M884.968,-944.563C816.907,-938.733 659.746,-925.272 591.749,-919.447"/>
</g>
<!-- 30080 -->
<g id="node59" class="node"><title>30080</title>
<g id="a_node59"><a xlink:title="6th_week">
<ellipse fill="#efff05" stroke="black" cx="844.212" cy="-1201.72" rx="32.4942" ry="18"/>
<text text-anchor="middle" x="844.212" y="-1198.02" font-family="Times,serif" font-size="14.00">30080</text>
</a>
</g>
</g>
<!-- 27495&#45;&gt;30080 -->
<g id="edge68" class="edge"><title>27495&#45;&gt;30080</title>
<path fill="none" stroke="black" d="M912.22,-965.226C898.789,-1011.93 862.776,-1137.17 849.351,-1183.86"/>
</g>
<!-- 29947 -->
<g id="node72" class="node"><title>29947</title>
<g id="a_node72"><a xlink:title="6th_week">
<ellipse fill="#ffffff" stroke="black" cx="1732.82" cy="-1413.28" rx="32.4942" ry="18"/>
<text text-anchor="middle" x="1732.82" y="-1409.58" font-family="Times,serif" font-size="14.00">29947</text>
</a>
</g>
</g>
<!-- 30416&#45;&gt;29947 -->
<g id="edge28" class="edge"><title>30416&#45;&gt;29947</title>
<path fill="none" stroke="black" d="M1552.68,-1316.09C1591.83,-1337.21 1670.26,-1379.53 1709.43,-1400.67"/>
</g>
<!-- 19851 -->
<g id="node63" class="node"><title>19851</title>
<g id="a_node63"><a xlink:title="6th_week">
<ellipse fill="grey" stroke="black" cx="564.731" cy="-1854.7" rx="32.4942" ry="18"/>
<text text-anchor="middle" x="564.731" y="-1851" font-family="Times,serif" font-size="14.00">19851</text>
</a>
</g>
</g>
<!-- 31936&#45;&gt;19851 -->
<g id="edge49" class="edge"><title>31936&#45;&gt;19851</title>
<path fill="none" stroke="black" d="M642.125,-1656.93C626.319,-1697.32 587.622,-1796.2 571.724,-1836.83"/>
</g>
</g>
</svg>
