<?xml version="1.0" encoding="UTF-8" standalone="no"?>
<!DOCTYPE svg PUBLIC "-//W3C//DTD SVG 1.1//EN"
 "http://www.w3.org/Graphics/SVG/1.1/DTD/svg11.dtd">
<!-- Generated by graphviz version 2.38.0 (20140413.2041)
 -->
<!-- Title: %3 Pages: 1 -->
<svg width="2152pt" height="1301pt"
 viewBox="0.00 0.00 2152.00 1301.00" xmlns="http://www.w3.org/2000/svg" xmlns:xlink="http://www.w3.org/1999/xlink">
<g id="graph0" class="graph" transform="scale(1 1) rotate(0) translate(4 1297)">
<title>%3</title>
<polygon fill="white" stroke="none" points="-4,4 -4,-1297 2148,-1297 2148,4 -4,4"/>
<!-- 108 -->
<g id="node1" class="node"><title>108</title>
<g id="a_node1"><a xlink:title="3rd_week">
<ellipse fill="#20ff05" stroke="black" cx="1855.43" cy="-63.774" rx="27" ry="18"/>
<text text-anchor="middle" x="1855.43" y="-60.074" font-family="Times,serif" font-size="14.00">108</text>
</a>
</g>
</g>
<!-- 32396 -->
<g id="node26" class="node"><title>32396</title>
<g id="a_node26"><a xlink:title="3rd_week">
<ellipse fill="#20ff05" stroke="black" cx="1713.26" cy="-221.742" rx="32.4942" ry="18"/>
<text text-anchor="middle" x="1713.26" y="-218.042" font-family="Times,serif" font-size="14.00">32396</text>
</a>
</g>
</g>
<!-- 108&#45;&gt;32396 -->
<g id="edge43" class="edge"><title>108&#45;&gt;32396</title>
<path fill="none" stroke="black" d="M1841.28,-79.498C1814.17,-109.621 1755.17,-175.172 1727.77,-205.611"/>
</g>
<!-- 1468 -->
<g id="node2" class="node"><title>1468</title>
<g id="a_node2"><a xlink:title="PRE">
<ellipse fill="#20ff05" stroke="black" cx="959.53" cy="-308.371" rx="28.6953" ry="18"/>
<text text-anchor="middle" x="959.53" y="-304.671" font-family="Times,serif" font-size="14.00">1468</text>
</a>
</g>
</g>
<!-- 20264 -->
<g id="node21" class="node"><title>20264</title>
<g id="a_node21"><a xlink:title="PRE">
<ellipse fill="#20ff05" stroke="black" cx="945.281" cy="-482.715" rx="32.4942" ry="18"/>
<text text-anchor="middle" x="945.281" y="-479.015" font-family="Times,serif" font-size="14.00">20264</text>
</a>
</g>
</g>
<!-- 1468&#45;&gt;20264 -->
<g id="edge10" class="edge"><title>1468&#45;&gt;20264</title>
<path fill="none" stroke="black" d="M958.058,-326.372C955.328,-359.78 949.506,-431.019 946.765,-464.551"/>
</g>
<!-- 1576 -->
<g id="node3" class="node"><title>1576</title>
<g id="a_node3"><a xlink:title="PRE">
<ellipse fill="grey" stroke="black" cx="1424.67" cy="-963.616" rx="28.6953" ry="18"/>
<text text-anchor="middle" x="1424.67" y="-959.916" font-family="Times,serif" font-size="14.00">1576</text>
</a>
</g>
</g>
<!-- 15195 -->
<g id="node14" class="node"><title>15195</title>
<g id="a_node14"><a xlink:title="PRE">
<ellipse fill="#20ff05" stroke="black" cx="1381.17" cy="-793.219" rx="32.4942" ry="18"/>
<text text-anchor="middle" x="1381.17" y="-789.519" font-family="Times,serif" font-size="14.00">15195</text>
</a>
</g>
</g>
<!-- 1576&#45;&gt;15195 -->
<g id="edge37" class="edge"><title>1576&#45;&gt;15195</title>
<path fill="none" stroke="black" d="M1420.1,-945.703C1411.74,-912.977 1394.1,-843.886 1385.75,-811.148"/>
</g>
<!-- 3321 -->
<g id="node4" class="node"><title>3321</title>
<g id="a_node4"><a xlink:title="PRE">
<ellipse fill="grey" stroke="black" cx="1509.86" cy="-585.795" rx="28.6953" ry="18"/>
<text text-anchor="middle" x="1509.86" y="-582.095" font-family="Times,serif" font-size="14.00">3321</text>
</a>
</g>
</g>
<!-- 16252 -->
<g id="node16" class="node"><title>16252</title>
<g id="a_node16"><a xlink:title="PRE">
<ellipse fill="#20ff05" stroke="black" cx="1342.43" cy="-577.869" rx="32.4942" ry="18"/>
<text text-anchor="middle" x="1342.43" y="-574.169" font-family="Times,serif" font-size="14.00">16252</text>
</a>
</g>
</g>
<!-- 3321&#45;&gt;16252 -->
<g id="edge33" class="edge"><title>3321&#45;&gt;16252</title>
<path fill="none" stroke="black" d="M1481.08,-584.432C1451.53,-583.034 1405.64,-580.861 1374.84,-579.403"/>
</g>
<!-- 6205 -->
<g id="node5" class="node"><title>6205</title>
<g id="a_node5"><a xlink:title="PRE">
<ellipse fill="#20ff05" stroke="black" cx="1561.51" cy="-816.132" rx="28.6953" ry="18"/>
<text text-anchor="middle" x="1561.51" y="-812.432" font-family="Times,serif" font-size="14.00">6205</text>
</a>
</g>
</g>
<!-- 6205&#45;&gt;15195 -->
<g id="edge12" class="edge"><title>6205&#45;&gt;15195</title>
<path fill="none" stroke="black" d="M1533.34,-812.552C1500.74,-808.411 1447.21,-801.609 1413.1,-797.275"/>
</g>
<!-- 6443 -->
<g id="node6" class="node"><title>6443</title>
<g id="a_node6"><a xlink:title="3rd_week">
<ellipse fill="#20ff05" stroke="black" cx="1905.57" cy="-272.608" rx="28.6953" ry="18"/>
<text text-anchor="middle" x="1905.57" y="-268.908" font-family="Times,serif" font-size="14.00">6443</text>
</a>
</g>
</g>
<!-- 6443&#45;&gt;32396 -->
<g id="edge58" class="edge"><title>6443&#45;&gt;32396</title>
<path fill="none" stroke="black" d="M1878.83,-265.535C1843.01,-256.063 1779.69,-239.314 1742.6,-229.503"/>
</g>
<!-- 7158 -->
<g id="node7" class="node"><title>7158</title>
<g id="a_node7"><a xlink:title="Day_0">
<ellipse fill="#20ff05" stroke="black" cx="1459.4" cy="-390.223" rx="28.6953" ry="18"/>
<text text-anchor="middle" x="1459.4" y="-386.523" font-family="Times,serif" font-size="14.00">7158</text>
</a>
</g>
</g>
<!-- 9593 -->
<g id="node12" class="node"><title>9593</title>
<g id="a_node12"><a xlink:title="Day_0">
<ellipse fill="#20ff05" stroke="black" cx="1593.36" cy="-368.395" rx="28.6953" ry="18"/>
<text text-anchor="middle" x="1593.36" y="-364.695" font-family="Times,serif" font-size="14.00">9593</text>
</a>
</g>
</g>
<!-- 7158&#45;&gt;9593 -->
<g id="edge38" class="edge"><title>7158&#45;&gt;9593</title>
<path fill="none" stroke="black" d="M1487.15,-385.7C1510.15,-381.954 1542.66,-376.656 1565.64,-372.912"/>
</g>
<!-- 23990 -->
<g id="node24" class="node"><title>23990</title>
<g id="a_node24"><a xlink:title="3rd_week">
<ellipse fill="#20ff05" stroke="black" cx="1477.37" cy="-238.823" rx="32.4942" ry="18"/>
<text text-anchor="middle" x="1477.37" y="-235.123" font-family="Times,serif" font-size="14.00">23990</text>
</a>
</g>
</g>
<!-- 7158&#45;&gt;23990 -->
<g id="edge42" class="edge"><title>7158&#45;&gt;23990</title>
<path fill="none" stroke="black" d="M1461.53,-372.261C1464.97,-343.279 1471.71,-286.5 1475.18,-257.234"/>
</g>
<!-- 7158&#45;&gt;32396 -->
<g id="edge7" class="edge"><title>7158&#45;&gt;32396</title>
<path fill="none" stroke="black" d="M1479.32,-377.003C1526.42,-345.74 1644.31,-267.501 1692.37,-235.605"/>
</g>
<!-- 38302 -->
<g id="node29" class="node"><title>38302</title>
<g id="a_node29"><a xlink:title="PRE">
<ellipse fill="#20ff05" stroke="black" cx="1179.69" cy="-603.181" rx="32.4942" ry="18"/>
<text text-anchor="middle" x="1179.69" y="-599.481" font-family="Times,serif" font-size="14.00">38302</text>
</a>
</g>
</g>
<!-- 7158&#45;&gt;38302 -->
<g id="edge34" class="edge"><title>7158&#45;&gt;38302</title>
<path fill="none" stroke="black" d="M1441.04,-404.196C1390.61,-442.597 1250.23,-549.477 1198.84,-588.596"/>
</g>
<!-- 7204 -->
<g id="node8" class="node"><title>7204</title>
<g id="a_node8"><a xlink:title="3rd_week">
<ellipse fill="grey" stroke="black" cx="1860.98" cy="-330.253" rx="28.6953" ry="18"/>
<text text-anchor="middle" x="1860.98" y="-326.553" font-family="Times,serif" font-size="14.00">7204</text>
</a>
</g>
</g>
<!-- 7204&#45;&gt;32396 -->
<g id="edge17" class="edge"><title>7204&#45;&gt;32396</title>
<path fill="none" stroke="black" d="M1842.27,-316.51C1814.32,-295.979 1761.89,-257.468 1733.23,-236.411"/>
</g>
<!-- 7478 -->
<g id="node9" class="node"><title>7478</title>
<g id="a_node9"><a xlink:title="PRE">
<ellipse fill="#20ff05" stroke="black" cx="808.063" cy="-369.486" rx="28.6953" ry="18"/>
<text text-anchor="middle" x="808.063" y="-365.786" font-family="Times,serif" font-size="14.00">7478</text>
</a>
</g>
</g>
<!-- 7478&#45;&gt;20264 -->
<g id="edge29" class="edge"><title>7478&#45;&gt;20264</title>
<path fill="none" stroke="black" d="M825.442,-383.827C851.403,-405.25 900.103,-445.436 926.73,-467.408"/>
</g>
<!-- 9358 -->
<g id="node10" class="node"><title>9358</title>
<g id="a_node10"><a xlink:title="3rd_week">
<ellipse fill="#ffffff" stroke="black" cx="1756.49" cy="-17.8509" rx="28.6953" ry="18"/>
<text text-anchor="middle" x="1756.49" y="-14.1509" font-family="Times,serif" font-size="14.00">9358</text>
</a>
</g>
</g>
<!-- 9358&#45;&gt;32396 -->
<g id="edge23" class="edge"><title>9358&#45;&gt;32396</title>
<path fill="none" stroke="black" d="M1752.65,-35.9448C1744.45,-74.6366 1725.28,-165.033 1717.08,-203.688"/>
</g>
<!-- 9460 -->
<g id="node11" class="node"><title>9460</title>
<g id="a_node11"><a xlink:title="PRE">
<ellipse fill="#20ff05" stroke="black" cx="1516.33" cy="-982.174" rx="28.6953" ry="18"/>
<text text-anchor="middle" x="1516.33" y="-978.474" font-family="Times,serif" font-size="14.00">9460</text>
</a>
</g>
</g>
<!-- 9460&#45;&gt;15195 -->
<g id="edge20" class="edge"><title>9460&#45;&gt;15195</title>
<path fill="none" stroke="black" d="M1504.57,-965.736C1479.07,-930.09 1418.92,-846 1393.19,-810.024"/>
</g>
<!-- 16145 -->
<g id="node15" class="node"><title>16145</title>
<g id="a_node15"><a xlink:title="PRE">
<ellipse fill="#20ff05" stroke="black" cx="1612.86" cy="-1124.62" rx="32.4942" ry="18"/>
<text text-anchor="middle" x="1612.86" y="-1120.92" font-family="Times,serif" font-size="14.00">16145</text>
</a>
</g>
</g>
<!-- 9460&#45;&gt;16145 -->
<g id="edge9" class="edge"><title>9460&#45;&gt;16145</title>
<path fill="none" stroke="black" d="M1527.59,-998.793C1546.09,-1026.09 1582.72,-1080.15 1601.37,-1107.66"/>
</g>
<!-- 11942 -->
<g id="node13" class="node"><title>11942</title>
<g id="a_node13"><a xlink:title="PRE">
<ellipse fill="#20ff05" stroke="black" cx="990.341" cy="-757.021" rx="32.4942" ry="18"/>
<text text-anchor="middle" x="990.341" y="-753.321" font-family="Times,serif" font-size="14.00">11942</text>
</a>
</g>
</g>
<!-- 20012 -->
<g id="node20" class="node"><title>20012</title>
<g id="a_node20"><a xlink:title="PRE">
<ellipse fill="#20ff05" stroke="black" cx="939.796" cy="-1081.09" rx="32.4942" ry="18"/>
<text text-anchor="middle" x="939.796" y="-1077.39" font-family="Times,serif" font-size="14.00">20012</text>
</a>
</g>
</g>
<!-- 11942&#45;&gt;20012 -->
<g id="edge45" class="edge"><title>11942&#45;&gt;20012</title>
<path fill="none" stroke="black" d="M987.479,-775.373C978.582,-832.413 951.48,-1006.18 942.627,-1062.94"/>
</g>
<!-- 11942&#45;&gt;20264 -->
<g id="edge5" class="edge"><title>11942&#45;&gt;20264</title>
<path fill="none" stroke="black" d="M987.385,-739.023C979.22,-689.32 956.426,-550.561 948.248,-500.779"/>
</g>
<!-- 20910 -->
<g id="node22" class="node"><title>20910</title>
<g id="a_node22"><a xlink:title="PRE">
<ellipse fill="#20ff05" stroke="black" cx="945.157" cy="-918.951" rx="32.4942" ry="18"/>
<text text-anchor="middle" x="945.157" y="-915.251" font-family="Times,serif" font-size="14.00">20910</text>
</a>
</g>
</g>
<!-- 11942&#45;&gt;20910 -->
<g id="edge50" class="edge"><title>11942&#45;&gt;20910</title>
<path fill="none" stroke="black" d="M985.333,-774.969C976.648,-806.095 958.888,-869.74 950.187,-900.922"/>
</g>
<!-- 11942&#45;&gt;38302 -->
<g id="edge41" class="edge"><title>11942&#45;&gt;38302</title>
<path fill="none" stroke="black" d="M1008.84,-741.99C1045.04,-712.579 1124.85,-647.732 1161.11,-618.273"/>
</g>
<!-- 11103 -->
<g id="node34" class="node"><title>11103</title>
<g id="a_node34"><a xlink:title="PRE">
<ellipse fill="grey" stroke="black" cx="1075.34" cy="-907.991" rx="32.4942" ry="18"/>
<text text-anchor="middle" x="1075.34" y="-904.291" font-family="Times,serif" font-size="14.00">11103</text>
</a>
</g>
</g>
<!-- 11942&#45;&gt;11103 -->
<g id="edge14" class="edge"><title>11942&#45;&gt;11103</title>
<path fill="none" stroke="black" d="M1000.09,-774.339C1016.4,-803.306 1049.04,-861.268 1065.45,-890.409"/>
</g>
<!-- 26166 -->
<g id="node38" class="node"><title>26166</title>
<g id="a_node38"><a xlink:title="Day_0">
<ellipse fill="#20ff05" stroke="black" cx="852.223" cy="-851.587" rx="32.4942" ry="18"/>
<text text-anchor="middle" x="852.223" y="-847.887" font-family="Times,serif" font-size="14.00">26166</text>
</a>
</g>
</g>
<!-- 11942&#45;&gt;26166 -->
<g id="edge60" class="edge"><title>11942&#45;&gt;26166</title>
<path fill="none" stroke="black" d="M969.664,-771.178C943.626,-789.006 899.147,-819.46 873.042,-837.333"/>
</g>
<!-- 26952 -->
<g id="node25" class="node"><title>26952</title>
<g id="a_node25"><a xlink:title="PRE">
<ellipse fill="#20ff05" stroke="black" cx="1591.26" cy="-906.551" rx="32.4942" ry="18"/>
<text text-anchor="middle" x="1591.26" y="-902.851" font-family="Times,serif" font-size="14.00">26952</text>
</a>
</g>
</g>
<!-- 15195&#45;&gt;26952 -->
<g id="edge57" class="edge"><title>15195&#45;&gt;26952</title>
<path fill="none" stroke="black" d="M1404.46,-805.78C1444.84,-827.565 1527.42,-872.11 1567.87,-893.934"/>
</g>
<!-- 15195&#45;&gt;38302 -->
<g id="edge2" class="edge"><title>15195&#45;&gt;38302</title>
<path fill="none" stroke="black" d="M1364.68,-777.667C1326.9,-742.031 1234.4,-654.789 1196.4,-618.947"/>
</g>
<!-- 16252&#45;&gt;38302 -->
<g id="edge31" class="edge"><title>16252&#45;&gt;38302</title>
<path fill="none" stroke="black" d="M1311.05,-582.749C1282.32,-587.217 1240.03,-593.796 1211.25,-598.272"/>
</g>
<!-- 17099 -->
<g id="node17" class="node"><title>17099</title>
<g id="a_node17"><a xlink:title="3rd_week">
<ellipse fill="#20ff05" stroke="black" cx="1674.71" cy="-45.0587" rx="32.4942" ry="18"/>
<text text-anchor="middle" x="1674.71" y="-41.3587" font-family="Times,serif" font-size="14.00">17099</text>
</a>
</g>
</g>
<!-- 17099&#45;&gt;32396 -->
<g id="edge24" class="edge"><title>17099&#45;&gt;32396</title>
<path fill="none" stroke="black" d="M1678.61,-62.9723C1686,-96.8362 1701.94,-169.88 1709.34,-203.78"/>
</g>
<!-- 18458 -->
<g id="node18" class="node"><title>18458</title>
<g id="a_node18"><a xlink:title="3rd_week">
<ellipse fill="#20ff05" stroke="black" cx="1780.76" cy="-63.0398" rx="32.4942" ry="18"/>
<text text-anchor="middle" x="1780.76" y="-59.3398" font-family="Times,serif" font-size="14.00">18458</text>
</a>
</g>
</g>
<!-- 18458&#45;&gt;32396 -->
<g id="edge52" class="edge"><title>18458&#45;&gt;32396</title>
<path fill="none" stroke="black" d="M1773.28,-80.63C1760.31,-111.136 1733.77,-173.512 1720.77,-204.072"/>
</g>
<!-- 19663 -->
<g id="node19" class="node"><title>19663</title>
<g id="a_node19"><a xlink:title="PRE">
<ellipse fill="#20ff05" stroke="black" cx="1035.16" cy="-313.934" rx="32.4942" ry="18"/>
<text text-anchor="middle" x="1035.16" y="-310.234" font-family="Times,serif" font-size="14.00">19663</text>
</a>
</g>
</g>
<!-- 19663&#45;&gt;20264 -->
<g id="edge3" class="edge"><title>19663&#45;&gt;20264</title>
<path fill="none" stroke="black" d="M1025.88,-331.361C1008.66,-363.704 971.931,-432.669 954.645,-465.13"/>
</g>
<!-- 17205 -->
<g id="node35" class="node"><title>17205</title>
<g id="a_node35"><a xlink:title="PRE">
<ellipse fill="#20ff05" stroke="black" cx="914.519" cy="-1275.02" rx="32.4942" ry="18"/>
<text text-anchor="middle" x="914.519" y="-1271.32" font-family="Times,serif" font-size="14.00">17205</text>
</a>
</g>
</g>
<!-- 20012&#45;&gt;17205 -->
<g id="edge18" class="edge"><title>20012&#45;&gt;17205</title>
<path fill="none" stroke="black" d="M937.418,-1099.34C932.588,-1136.39 921.681,-1220.07 916.872,-1256.96"/>
</g>
<!-- 17725 -->
<g id="node36" class="node"><title>17725</title>
<g id="a_node36"><a xlink:title="PRE">
<ellipse fill="#20ff05" stroke="black" cx="1061.28" cy="-1204.99" rx="32.4942" ry="18"/>
<text text-anchor="middle" x="1061.28" y="-1201.29" font-family="Times,serif" font-size="14.00">17725</text>
</a>
</g>
</g>
<!-- 20012&#45;&gt;17725 -->
<g id="edge55" class="edge"><title>20012&#45;&gt;17725</title>
<path fill="none" stroke="black" d="M955.429,-1097.04C978.755,-1120.83 1022.41,-1165.35 1045.7,-1189.1"/>
</g>
<!-- 23947 -->
<g id="node37" class="node"><title>23947</title>
<g id="a_node37"><a xlink:title="PRE">
<ellipse fill="#20ff05" stroke="black" cx="782.449" cy="-1158.36" rx="32.4942" ry="18"/>
<text text-anchor="middle" x="782.449" y="-1154.66" font-family="Times,serif" font-size="14.00">23947</text>
</a>
</g>
</g>
<!-- 20012&#45;&gt;23947 -->
<g id="edge16" class="edge"><title>20012&#45;&gt;23947</title>
<path fill="none" stroke="black" d="M915.21,-1093.17C885.65,-1107.68 836.345,-1131.89 806.861,-1146.37"/>
</g>
<!-- 26278 -->
<g id="node39" class="node"><title>26278</title>
<g id="a_node39"><a xlink:title="PRE">
<ellipse fill="#20ff05" stroke="black" cx="999.001" cy="-1253.8" rx="32.4942" ry="18"/>
<text text-anchor="middle" x="999.001" y="-1250.1" font-family="Times,serif" font-size="14.00">26278</text>
</a>
</g>
</g>
<!-- 20012&#45;&gt;26278 -->
<g id="edge26" class="edge"><title>20012&#45;&gt;26278</title>
<path fill="none" stroke="black" d="M945.909,-1098.93C957.284,-1132.11 981.572,-1202.96 992.921,-1236.07"/>
</g>
<!-- 30937 -->
<g id="node40" class="node"><title>30937</title>
<g id="a_node40"><a xlink:title="PRE">
<ellipse fill="grey" stroke="black" cx="824.833" cy="-1225.76" rx="32.4942" ry="18"/>
<text text-anchor="middle" x="824.833" y="-1222.06" font-family="Times,serif" font-size="14.00">30937</text>
</a>
</g>
</g>
<!-- 20012&#45;&gt;30937 -->
<g id="edge6" class="edge"><title>20012&#45;&gt;30937</title>
<path fill="none" stroke="black" d="M926.608,-1097.69C904.55,-1125.44 860.412,-1180.99 838.221,-1208.91"/>
</g>
<!-- 40316 -->
<g id="node42" class="node"><title>40316</title>
<g id="a_node42"><a xlink:title="PRE">
<ellipse fill="#ffffff" stroke="black" cx="904.779" cy="-1222.86" rx="32.4942" ry="18"/>
<text text-anchor="middle" x="904.779" y="-1219.16" font-family="Times,serif" font-size="14.00">40316</text>
</a>
</g>
</g>
<!-- 20012&#45;&gt;40316 -->
<g id="edge30" class="edge"><title>20012&#45;&gt;40316</title>
<path fill="none" stroke="black" d="M935.361,-1099.05C928.662,-1126.17 916.031,-1177.31 909.289,-1204.61"/>
</g>
<!-- 37399 -->
<g id="node28" class="node"><title>37399</title>
<g id="a_node28"><a xlink:title="PRE">
<ellipse fill="#20ff05" stroke="black" cx="907.593" cy="-242.455" rx="32.4942" ry="18"/>
<text text-anchor="middle" x="907.593" y="-238.755" font-family="Times,serif" font-size="14.00">37399</text>
</a>
</g>
</g>
<!-- 20264&#45;&gt;37399 -->
<g id="edge59" class="edge"><title>20264&#45;&gt;37399</title>
<path fill="none" stroke="black" d="M942.448,-464.657C935.447,-420.022 917.389,-304.905 910.407,-260.395"/>
</g>
<!-- 39606 -->
<g id="node30" class="node"><title>39606</title>
<g id="a_node30"><a xlink:title="PRE">
<ellipse fill="grey" stroke="black" cx="785.838" cy="-455.889" rx="32.4942" ry="18"/>
<text text-anchor="middle" x="785.838" y="-452.189" font-family="Times,serif" font-size="14.00">39606</text>
</a>
</g>
</g>
<!-- 20264&#45;&gt;39606 -->
<g id="edge27" class="edge"><title>20264&#45;&gt;39606</title>
<path fill="none" stroke="black" d="M914.16,-477.479C886.156,-472.768 845.215,-465.879 817.152,-461.158"/>
</g>
<!-- 42064 -->
<g id="node32" class="node"><title>42064</title>
<g id="a_node32"><a xlink:title="PRE">
<ellipse fill="#20ff05" stroke="black" cx="1080.73" cy="-393.321" rx="32.4942" ry="18"/>
<text text-anchor="middle" x="1080.73" y="-389.621" font-family="Times,serif" font-size="14.00">42064</text>
</a>
</g>
</g>
<!-- 20264&#45;&gt;42064 -->
<g id="edge46" class="edge"><title>20264&#45;&gt;42064</title>
<path fill="none" stroke="black" d="M966.445,-468.747C991.892,-451.953 1034.34,-423.941 1059.72,-407.191"/>
</g>
<!-- 33267 -->
<g id="node41" class="node"><title>33267</title>
<g id="a_node41"><a xlink:title="PRE">
<ellipse fill="grey" stroke="black" cx="858.241" cy="-313.487" rx="32.4942" ry="18"/>
<text text-anchor="middle" x="858.241" y="-309.787" font-family="Times,serif" font-size="14.00">33267</text>
</a>
</g>
</g>
<!-- 20264&#45;&gt;33267 -->
<g id="edge8" class="edge"><title>20264&#45;&gt;33267</title>
<path fill="none" stroke="black" d="M936.294,-465.242C919.615,-432.814 884.049,-363.666 867.309,-331.118"/>
</g>
<!-- 23370 -->
<g id="node23" class="node"><title>23370</title>
<g id="a_node23"><a xlink:title="3rd_week">
<ellipse fill="grey" stroke="black" cx="1856.98" cy="-137.976" rx="32.4942" ry="18"/>
<text text-anchor="middle" x="1856.98" y="-134.276" font-family="Times,serif" font-size="14.00">23370</text>
</a>
</g>
</g>
<!-- 23370&#45;&gt;32396 -->
<g id="edge11" class="edge"><title>23370&#45;&gt;32396</title>
<path fill="none" stroke="black" d="M1834.52,-151.064C1807.68,-166.709 1763.01,-192.743 1736.03,-208.469"/>
</g>
<!-- 4974 -->
<g id="node44" class="node"><title>4974</title>
<g id="a_node44"><a xlink:title="PRE">
<ellipse fill="#ffffff" stroke="black" cx="1740.35" cy="-991.756" rx="28.6953" ry="18"/>
<text text-anchor="middle" x="1740.35" y="-988.056" font-family="Times,serif" font-size="14.00">4974</text>
</a>
</g>
</g>
<!-- 26952&#45;&gt;4974 -->
<g id="edge22" class="edge"><title>26952&#45;&gt;4974</title>
<path fill="none" stroke="black" d="M1613.91,-919.492C1642.42,-935.786 1691.03,-963.572 1718.95,-979.524"/>
</g>
<!-- 41677 -->
<g id="node31" class="node"><title>41677</title>
<g id="a_node31"><a xlink:title="3rd_week">
<ellipse fill="#20ff05" stroke="black" cx="1948.94" cy="-123.686" rx="32.4942" ry="18"/>
<text text-anchor="middle" x="1948.94" y="-119.986" font-family="Times,serif" font-size="14.00">41677</text>
</a>
</g>
</g>
<!-- 32396&#45;&gt;41677 -->
<g id="edge35" class="edge"><title>32396&#45;&gt;41677</title>
<path fill="none" stroke="black" d="M1739.38,-210.873C1784.68,-192.025 1877.32,-153.485 1922.7,-134.603"/>
</g>
<!-- 18585 -->
<g id="node45" class="node"><title>18585</title>
<g id="a_node45"><a xlink:title="3rd_week">
<ellipse fill="#ffffff" stroke="black" cx="1919.74" cy="-204.805" rx="32.4942" ry="18"/>
<text text-anchor="middle" x="1919.74" y="-201.105" font-family="Times,serif" font-size="14.00">18585</text>
</a>
</g>
</g>
<!-- 32396&#45;&gt;18585 -->
<g id="edge49" class="edge"><title>32396&#45;&gt;18585</title>
<path fill="none" stroke="black" d="M1745.52,-219.095C1784.2,-215.923 1848.63,-210.637 1887.36,-207.46"/>
</g>
<!-- 36991 -->
<g id="node27" class="node"><title>36991</title>
<g id="a_node27"><a xlink:title="3rd_week">
<ellipse fill="#20ff05" stroke="black" cx="2111.75" cy="-49.3787" rx="32.4942" ry="18"/>
<text text-anchor="middle" x="2111.75" y="-45.6787" font-family="Times,serif" font-size="14.00">36991</text>
</a>
</g>
</g>
<!-- 36991&#45;&gt;41677 -->
<g id="edge1" class="edge"><title>36991&#45;&gt;41677</title>
<path fill="none" stroke="black" d="M2086.67,-60.8264C2056.07,-74.7902 2004.66,-98.256 1974.05,-112.226"/>
</g>
<!-- 10206 -->
<g id="node33" class="node"><title>10206</title>
<g id="a_node33"><a xlink:title="PRE">
<ellipse fill="grey" stroke="black" cx="876.399" cy="-69.4952" rx="32.4942" ry="18"/>
<text text-anchor="middle" x="876.399" y="-65.7952" font-family="Times,serif" font-size="14.00">10206</text>
</a>
</g>
</g>
<!-- 37399&#45;&gt;10206 -->
<g id="edge21" class="edge"><title>37399&#45;&gt;10206</title>
<path fill="none" stroke="black" d="M904.314,-224.272C898.307,-190.967 885.608,-120.557 879.634,-87.4343"/>
</g>
<!-- 41100 -->
<g id="node43" class="node"><title>41100</title>
<g id="a_node43"><a xlink:title="PRE">
<ellipse fill="#ffffff" stroke="black" cx="1268.24" cy="-699.203" rx="32.4942" ry="18"/>
<text text-anchor="middle" x="1268.24" y="-695.503" font-family="Times,serif" font-size="14.00">41100</text>
</a>
</g>
</g>
<!-- 38302&#45;&gt;41100 -->
<g id="edge53" class="edge"><title>38302&#45;&gt;41100</title>
<path fill="none" stroke="black" d="M1194.71,-619.47C1211.09,-637.234 1237.15,-665.486 1253.44,-683.155"/>
</g>
<!-- 3575 -->
<g id="node46" class="node"><title>3575</title>
<g id="a_node46"><a xlink:title="Day_0">
<ellipse fill="#20ff05" stroke="black" cx="804.991" cy="-572.417" rx="28.6953" ry="18"/>
<text text-anchor="middle" x="804.991" y="-568.717" font-family="Times,serif" font-size="14.00">3575</text>
</a>
</g>
</g>
<!-- 38302&#45;&gt;3575 -->
<g id="edge4" class="edge"><title>38302&#45;&gt;3575</title>
<path fill="none" stroke="black" d="M1147.42,-600.531C1075.26,-594.607 901.831,-580.368 833.424,-574.752"/>
</g>
<!-- 31610 -->
<g id="node47" class="node"><title>31610</title>
<g id="a_node47"><a xlink:title="Day_0">
<ellipse fill="#20ff05" stroke="black" cx="459.675" cy="-535.115" rx="32.4942" ry="18"/>
<text text-anchor="middle" x="459.675" y="-531.415" font-family="Times,serif" font-size="14.00">31610</text>
</a>
</g>
</g>
<!-- 3575&#45;&gt;31610 -->
<g id="edge36" class="edge"><title>3575&#45;&gt;31610</title>
<path fill="none" stroke="black" d="M776.732,-569.365C713.107,-562.492 558.945,-545.839 491.81,-538.587"/>
</g>
<!-- 37041 -->
<g id="node48" class="node"><title>37041</title>
<g id="a_node48"><a xlink:title="Day_0">
<ellipse fill="grey" stroke="black" cx="461.308" cy="-333.047" rx="32.4942" ry="18"/>
<text text-anchor="middle" x="461.308" y="-329.347" font-family="Times,serif" font-size="14.00">37041</text>
</a>
</g>
</g>
<!-- 31610&#45;&gt;37041 -->
<g id="edge40" class="edge"><title>31610&#45;&gt;37041</title>
<path fill="none" stroke="black" d="M459.823,-516.827C460.134,-478.355 460.852,-389.456 461.162,-351.148"/>
</g>
<!-- 3141 -->
<g id="node49" class="node"><title>3141</title>
<g id="a_node49"><a xlink:title="Day_0">
<ellipse fill="#20ff05" stroke="black" cx="215.228" cy="-597.561" rx="28.6953" ry="18"/>
<text text-anchor="middle" x="215.228" y="-593.861" font-family="Times,serif" font-size="14.00">3141</text>
</a>
</g>
</g>
<!-- 31610&#45;&gt;3141 -->
<g id="edge32" class="edge"><title>31610&#45;&gt;3141</title>
<path fill="none" stroke="black" d="M429.701,-542.772C381.638,-555.05 288.072,-578.952 242.073,-590.703"/>
</g>
<!-- 5076 -->
<g id="node50" class="node"><title>5076</title>
<g id="a_node50"><a xlink:title="Day_0">
<ellipse fill="#20ff05" stroke="black" cx="427.802" cy="-715.675" rx="28.6953" ry="18"/>
<text text-anchor="middle" x="427.802" y="-711.975" font-family="Times,serif" font-size="14.00">5076</text>
</a>
</g>
</g>
<!-- 31610&#45;&gt;5076 -->
<g id="edge54" class="edge"><title>31610&#45;&gt;5076</title>
<path fill="none" stroke="black" d="M456.502,-553.088C450.393,-587.698 437.061,-663.223 430.961,-697.775"/>
</g>
<!-- 19183 -->
<g id="node51" class="node"><title>19183</title>
<g id="a_node51"><a xlink:title="Day_0">
<ellipse fill="#20ff05" stroke="black" cx="311.429" cy="-688.361" rx="32.4942" ry="18"/>
<text text-anchor="middle" x="311.429" y="-684.661" font-family="Times,serif" font-size="14.00">19183</text>
</a>
</g>
</g>
<!-- 31610&#45;&gt;19183 -->
<g id="edge51" class="edge"><title>31610&#45;&gt;19183</title>
<path fill="none" stroke="black" d="M444.09,-551.226C415.544,-580.734 355.195,-643.119 326.804,-672.466"/>
</g>
<!-- 23670 -->
<g id="node52" class="node"><title>23670</title>
<g id="a_node52"><a xlink:title="Day_0">
<ellipse fill="#20ff05" stroke="black" cx="208.592" cy="-472.93" rx="32.4942" ry="18"/>
<text text-anchor="middle" x="208.592" y="-469.23" font-family="Times,serif" font-size="14.00">23670</text>
</a>
</g>
</g>
<!-- 31610&#45;&gt;23670 -->
<g id="edge25" class="edge"><title>31610&#45;&gt;23670</title>
<path fill="none" stroke="black" d="M429.886,-527.738C381.563,-515.77 286.64,-492.26 238.341,-480.298"/>
</g>
<!-- 23742 -->
<g id="node53" class="node"><title>23742</title>
<g id="a_node53"><a xlink:title="Day_0">
<ellipse fill="grey" stroke="black" cx="266.714" cy="-533.474" rx="32.4942" ry="18"/>
<text text-anchor="middle" x="266.714" y="-529.774" font-family="Times,serif" font-size="14.00">23742</text>
</a>
</g>
</g>
<!-- 31610&#45;&gt;23742 -->
<g id="edge19" class="edge"><title>31610&#45;&gt;23742</title>
<path fill="none" stroke="black" d="M426.942,-534.837C391.351,-534.534 334.812,-534.054 299.285,-533.751"/>
</g>
<!-- 25355 -->
<g id="node54" class="node"><title>25355</title>
<g id="a_node54"><a xlink:title="Day_0">
<ellipse fill="#20ff05" stroke="black" cx="330.591" cy="-367.19" rx="32.4942" ry="18"/>
<text text-anchor="middle" x="330.591" y="-363.49" font-family="Times,serif" font-size="14.00">25355</text>
</a>
</g>
</g>
<!-- 31610&#45;&gt;25355 -->
<g id="edge56" class="edge"><title>31610&#45;&gt;25355</title>
<path fill="none" stroke="black" d="M446.826,-518.4C422.083,-486.212 368.089,-415.972 343.388,-383.838"/>
</g>
<!-- 30568 -->
<g id="node55" class="node"><title>30568</title>
<g id="a_node55"><a xlink:title="Day_0">
<ellipse fill="#20ff05" stroke="black" cx="352.054" cy="-450.255" rx="32.4942" ry="18"/>
<text text-anchor="middle" x="352.054" y="-446.555" font-family="Times,serif" font-size="14.00">30568</text>
</a>
</g>
</g>
<!-- 31610&#45;&gt;30568 -->
<g id="edge13" class="edge"><title>31610&#45;&gt;30568</title>
<path fill="none" stroke="black" d="M440.929,-520.334C421.296,-504.853 390.634,-480.675 370.946,-465.152"/>
</g>
<!-- 33106 -->
<g id="node57" class="node"><title>33106</title>
<g id="a_node57"><a xlink:title="Day_0">
<ellipse fill="#20ff05" stroke="black" cx="315.908" cy="-627.704" rx="32.4942" ry="18"/>
<text text-anchor="middle" x="315.908" y="-624.004" font-family="Times,serif" font-size="14.00">33106</text>
</a>
</g>
</g>
<!-- 31610&#45;&gt;33106 -->
<g id="edge44" class="edge"><title>31610&#45;&gt;33106</title>
<path fill="none" stroke="black" d="M438.462,-548.777C411.28,-566.283 364.432,-596.454 337.208,-613.986"/>
</g>
<!-- 33306 -->
<g id="node58" class="node"><title>33306</title>
<g id="a_node58"><a xlink:title="Day_0">
<ellipse fill="#20ff05" stroke="black" cx="404.5" cy="-398.694" rx="32.4942" ry="18"/>
<text text-anchor="middle" x="404.5" y="-394.994" font-family="Times,serif" font-size="14.00">33306</text>
</a>
</g>
</g>
<!-- 31610&#45;&gt;33306 -->
<g id="edge15" class="edge"><title>31610&#45;&gt;33306</title>
<path fill="none" stroke="black" d="M452.462,-517.281C441.888,-491.135 422.29,-442.681 411.715,-416.533"/>
</g>
<!-- 38234 -->
<g id="node60" class="node"><title>38234</title>
<g id="a_node60"><a xlink:title="Day_0">
<ellipse fill="#20ff05" stroke="black" cx="275.518" cy="-423.94" rx="32.4942" ry="18"/>
<text text-anchor="middle" x="275.518" y="-420.24" font-family="Times,serif" font-size="14.00">38234</text>
</a>
</g>
</g>
<!-- 31610&#45;&gt;38234 -->
<g id="edge28" class="edge"><title>31610&#45;&gt;38234</title>
<path fill="none" stroke="black" d="M437.461,-521.705C401.97,-500.279 332.883,-458.572 297.524,-437.225"/>
</g>
<!-- 41959 -->
<g id="node61" class="node"><title>41959</title>
<g id="a_node61"><a xlink:title="Day_0">
<ellipse fill="#20ff05" stroke="black" cx="399.787" cy="-669.341" rx="32.4942" ry="18"/>
<text text-anchor="middle" x="399.787" y="-665.641" font-family="Times,serif" font-size="14.00">41959</text>
</a>
</g>
</g>
<!-- 31610&#45;&gt;41959 -->
<g id="edge48" class="edge"><title>31610&#45;&gt;41959</title>
<path fill="none" stroke="black" d="M451.846,-552.663C440.368,-578.387 419.097,-626.062 407.618,-651.789"/>
</g>
<!-- 31965 -->
<g id="node56" class="node"><title>31965</title>
<g id="a_node56"><a xlink:title="Day_0">
<ellipse fill="#20ff05" stroke="black" cx="41.3193" cy="-650.9" rx="32.4942" ry="18"/>
<text text-anchor="middle" x="41.3193" y="-647.2" font-family="Times,serif" font-size="14.00">31965</text>
</a>
</g>
</g>
<!-- 3141&#45;&gt;31965 -->
<g id="edge39" class="edge"><title>3141&#45;&gt;31965</title>
<path fill="none" stroke="black" d="M189.192,-605.546C157.165,-615.369 102.98,-631.989 69.8497,-642.15"/>
</g>
<!-- 34348 -->
<g id="node59" class="node"><title>34348</title>
<g id="a_node59"><a xlink:title="Day_0">
<ellipse fill="grey" stroke="black" cx="32.5605" cy="-418.661" rx="32.4942" ry="18"/>
<text text-anchor="middle" x="32.5605" y="-414.961" font-family="Times,serif" font-size="14.00">34348</text>
</a>
</g>
</g>
<!-- 23670&#45;&gt;34348 -->
<g id="edge47" class="edge"><title>23670&#45;&gt;34348</title>
<path fill="none" stroke="black" d="M179.917,-464.09C147.183,-453.999 93.9514,-437.588 61.2224,-427.497"/>
</g>
</g>
</svg>
