<?xml version="1.0" encoding="UTF-8" standalone="no"?>
<!DOCTYPE svg PUBLIC "-//W3C//DTD SVG 1.1//EN"
 "http://www.w3.org/Graphics/SVG/1.1/DTD/svg11.dtd">
<!-- Generated by graphviz version 2.38.0 (20140413.2041)
 -->
<!-- Title: %3 Pages: 1 -->
<svg width="1193pt" height="2330pt"
 viewBox="0.00 0.00 1193.00 2330.00" xmlns="http://www.w3.org/2000/svg" xmlns:xlink="http://www.w3.org/1999/xlink">
<g id="graph0" class="graph" transform="scale(1 1) rotate(0) translate(4 2326)">
<title>%3</title>
<polygon fill="white" stroke="none" points="-4,4 -4,-2326 1189,-2326 1189,4 -4,4"/>
<!-- 222 -->
<g id="node1" class="node"><title>222</title>
<g id="a_node1"><a xlink:title="6th_week">
<ellipse fill="grey" stroke="black" cx="637.491" cy="-579.883" rx="27" ry="18"/>
<text text-anchor="middle" x="637.491" y="-576.183" font-family="Times,serif" font-size="14.00">222</text>
</a>
</g>
</g>
<!-- 12385 -->
<g id="node23" class="node"><title>12385</title>
<g id="a_node23"><a xlink:title="6th_week">
<ellipse fill="#efff05" stroke="black" cx="660.239" cy="-807.253" rx="32.4942" ry="18"/>
<text text-anchor="middle" x="660.239" y="-803.553" font-family="Times,serif" font-size="14.00">12385</text>
</a>
</g>
</g>
<!-- 222&#45;&gt;12385 -->
<g id="edge62" class="edge"><title>222&#45;&gt;12385</title>
<path fill="none" stroke="black" d="M639.314,-598.105C643.584,-640.784 654.192,-746.808 658.439,-789.259"/>
</g>
<!-- 234 -->
<g id="node2" class="node"><title>234</title>
<g id="a_node2"><a xlink:title="6th_week">
<ellipse fill="#efff05" stroke="black" cx="721.874" cy="-585.546" rx="27" ry="18"/>
<text text-anchor="middle" x="721.874" y="-581.846" font-family="Times,serif" font-size="14.00">234</text>
</a>
</g>
</g>
<!-- 234&#45;&gt;12385 -->
<g id="edge66" class="edge"><title>234&#45;&gt;12385</title>
<path fill="none" stroke="black" d="M716.934,-603.314C705.394,-644.827 676.766,-747.804 665.202,-789.4"/>
</g>
<!-- 619 -->
<g id="node3" class="node"><title>619</title>
<g id="a_node3"><a xlink:title="6th_week">
<ellipse fill="#efff05" stroke="black" cx="687.096" cy="-640.241" rx="27" ry="18"/>
<text text-anchor="middle" x="687.096" y="-636.541" font-family="Times,serif" font-size="14.00">619</text>
</a>
</g>
</g>
<!-- 619&#45;&gt;12385 -->
<g id="edge59" class="edge"><title>619&#45;&gt;12385</title>
<path fill="none" stroke="black" d="M684.17,-658.432C679.004,-690.558 668.324,-756.974 663.161,-789.084"/>
</g>
<!-- 1659 -->
<g id="node4" class="node"><title>1659</title>
<g id="a_node4"><a xlink:title="6th_week">
<ellipse fill="#efff05" stroke="black" cx="954.159" cy="-675.501" rx="28.6953" ry="18"/>
<text text-anchor="middle" x="954.159" y="-671.801" font-family="Times,serif" font-size="14.00">1659</text>
</a>
</g>
</g>
<!-- 5610 -->
<g id="node12" class="node"><title>5610</title>
<g id="a_node12"><a xlink:title="6th_week">
<ellipse fill="#ffffff" stroke="black" cx="1106.94" cy="-556.551" rx="28.6953" ry="18"/>
<text text-anchor="middle" x="1106.94" y="-552.851" font-family="Times,serif" font-size="14.00">5610</text>
</a>
</g>
</g>
<!-- 1659&#45;&gt;5610 -->
<g id="edge49" class="edge"><title>1659&#45;&gt;5610</title>
<path fill="none" stroke="black" d="M972.284,-661.389C1001.69,-638.496 1059.45,-593.526 1088.84,-570.645"/>
</g>
<!-- 10453 -->
<g id="node18" class="node"><title>10453</title>
<g id="a_node18"><a xlink:title="6th_week">
<ellipse fill="#efff05" stroke="black" cx="1152.06" cy="-625.324" rx="32.4942" ry="18"/>
<text text-anchor="middle" x="1152.06" y="-621.624" font-family="Times,serif" font-size="14.00">10453</text>
</a>
</g>
</g>
<!-- 1659&#45;&gt;10453 -->
<g id="edge10" class="edge"><title>1659&#45;&gt;10453</title>
<path fill="none" stroke="black" d="M980.848,-668.734C1017.67,-659.398 1083.84,-642.62 1122.25,-632.883"/>
</g>
<!-- 1659&#45;&gt;12385 -->
<g id="edge40" class="edge"><title>1659&#45;&gt;12385</title>
<path fill="none" stroke="black" d="M930.603,-686.06C876.114,-710.485 741.747,-770.716 685.569,-795.899"/>
</g>
<!-- 1997 -->
<g id="node5" class="node"><title>1997</title>
<g id="a_node5"><a xlink:title="6th_week">
<ellipse fill="#efff05" stroke="black" cx="452.653" cy="-656.527" rx="28.6953" ry="18"/>
<text text-anchor="middle" x="452.653" y="-652.827" font-family="Times,serif" font-size="14.00">1997</text>
</a>
</g>
</g>
<!-- 1997&#45;&gt;12385 -->
<g id="edge16" class="edge"><title>1997&#45;&gt;12385</title>
<path fill="none" stroke="black" d="M471.441,-670.169C510.564,-698.575 600.45,-763.841 640.435,-792.873"/>
</g>
<!-- 17178 -->
<g id="node30" class="node"><title>17178</title>
<g id="a_node30"><a xlink:title="6th_week">
<ellipse fill="#efff05" stroke="black" cx="262.425" cy="-523.032" rx="32.4942" ry="18"/>
<text text-anchor="middle" x="262.425" y="-519.332" font-family="Times,serif" font-size="14.00">17178</text>
</a>
</g>
</g>
<!-- 1997&#45;&gt;17178 -->
<g id="edge51" class="edge"><title>1997&#45;&gt;17178</title>
<path fill="none" stroke="black" d="M433.366,-642.992C397.19,-617.605 319.483,-563.072 282.622,-537.205"/>
</g>
<!-- 2025 -->
<g id="node6" class="node"><title>2025</title>
<g id="a_node6"><a xlink:title="6th_week">
<ellipse fill="#efff05" stroke="black" cx="545.987" cy="-928.476" rx="28.6953" ry="18"/>
<text text-anchor="middle" x="545.987" y="-924.776" font-family="Times,serif" font-size="14.00">2025</text>
</a>
</g>
</g>
<!-- 2025&#45;&gt;12385 -->
<g id="edge1" class="edge"><title>2025&#45;&gt;12385</title>
<path fill="none" stroke="black" d="M560.923,-912.628C582.699,-889.524 622.953,-846.814 644.934,-823.492"/>
</g>
<!-- 3544 -->
<g id="node7" class="node"><title>3544</title>
<g id="a_node7"><a xlink:title="6th_week">
<ellipse fill="#efff05" stroke="black" cx="623.242" cy="-962.698" rx="28.6953" ry="18"/>
<text text-anchor="middle" x="623.242" y="-958.998" font-family="Times,serif" font-size="14.00">3544</text>
</a>
</g>
</g>
<!-- 3544&#45;&gt;12385 -->
<g id="edge41" class="edge"><title>3544&#45;&gt;12385</title>
<path fill="none" stroke="black" d="M627.486,-944.866C634.585,-915.041 648.789,-855.36 655.931,-825.355"/>
</g>
<!-- 3971 -->
<g id="node8" class="node"><title>3971</title>
<g id="a_node8"><a xlink:title="6th_week">
<ellipse fill="#efff05" stroke="black" cx="870.721" cy="-879.736" rx="28.6953" ry="18"/>
<text text-anchor="middle" x="870.721" y="-876.036" font-family="Times,serif" font-size="14.00">3971</text>
</a>
</g>
</g>
<!-- 3971&#45;&gt;12385 -->
<g id="edge13" class="edge"><title>3971&#45;&gt;12385</title>
<path fill="none" stroke="black" d="M845.332,-870.993C805.642,-857.325 729.193,-830.998 688.058,-816.833"/>
</g>
<!-- 4073 -->
<g id="node9" class="node"><title>4073</title>
<g id="a_node9"><a xlink:title="6th_week">
<ellipse fill="#efff05" stroke="black" cx="603.367" cy="-652.968" rx="28.6953" ry="18"/>
<text text-anchor="middle" x="603.367" y="-649.268" font-family="Times,serif" font-size="14.00">4073</text>
</a>
</g>
</g>
<!-- 4073&#45;&gt;12385 -->
<g id="edge60" class="edge"><title>4073&#45;&gt;12385</title>
<path fill="none" stroke="black" d="M609.891,-670.666C620.803,-700.269 642.638,-759.505 653.616,-789.286"/>
</g>
<!-- 4843 -->
<g id="node10" class="node"><title>4843</title>
<g id="a_node10"><a xlink:title="6th_week">
<ellipse fill="#efff05" stroke="black" cx="498.109" cy="-879.927" rx="28.6953" ry="18"/>
<text text-anchor="middle" x="498.109" y="-876.227" font-family="Times,serif" font-size="14.00">4843</text>
</a>
</g>
</g>
<!-- 4843&#45;&gt;12385 -->
<g id="edge44" class="edge"><title>4843&#45;&gt;12385</title>
<path fill="none" stroke="black" d="M521.684,-869.36C551.808,-855.857 603.754,-832.572 634.764,-818.672"/>
</g>
<!-- 5189 -->
<g id="node11" class="node"><title>5189</title>
<g id="a_node11"><a xlink:title="6th_week">
<ellipse fill="#efff05" stroke="black" cx="768.476" cy="-925.405" rx="28.6953" ry="18"/>
<text text-anchor="middle" x="768.476" y="-921.705" font-family="Times,serif" font-size="14.00">5189</text>
</a>
</g>
</g>
<!-- 5189&#45;&gt;12385 -->
<g id="edge45" class="edge"><title>5189&#45;&gt;12385</title>
<path fill="none" stroke="black" d="M753.879,-909.47C733.221,-886.92 695.671,-845.93 674.951,-823.312"/>
</g>
<!-- 6296 -->
<g id="node13" class="node"><title>6296</title>
<g id="a_node13"><a xlink:title="6th_week">
<ellipse fill="#efff05" stroke="black" cx="711.282" cy="-979.236" rx="28.6953" ry="18"/>
<text text-anchor="middle" x="711.282" y="-975.536" font-family="Times,serif" font-size="14.00">6296</text>
</a>
</g>
</g>
<!-- 6296&#45;&gt;12385 -->
<g id="edge26" class="edge"><title>6296&#45;&gt;12385</title>
<path fill="none" stroke="black" d="M706.012,-961.479C696.231,-928.523 675.374,-858.249 665.557,-825.171"/>
</g>
<!-- 7791 -->
<g id="node14" class="node"><title>7791</title>
<g id="a_node14"><a xlink:title="6th_week">
<ellipse fill="#efff05" stroke="black" cx="785.081" cy="-633.42" rx="28.6953" ry="18"/>
<text text-anchor="middle" x="785.081" y="-629.72" font-family="Times,serif" font-size="14.00">7791</text>
</a>
</g>
</g>
<!-- 7791&#45;&gt;12385 -->
<g id="edge52" class="edge"><title>7791&#45;&gt;12385</title>
<path fill="none" stroke="black" d="M773.11,-650.088C749.309,-683.23 696.278,-757.072 672.357,-790.38"/>
</g>
<!-- 8285 -->
<g id="node15" class="node"><title>8285</title>
<g id="a_node15"><a xlink:title="6th_week">
<ellipse fill="#efff05" stroke="black" cx="504.079" cy="-718.689" rx="28.6953" ry="18"/>
<text text-anchor="middle" x="504.079" y="-714.989" font-family="Times,serif" font-size="14.00">8285</text>
</a>
</g>
</g>
<!-- 8285&#45;&gt;12385 -->
<g id="edge12" class="edge"><title>8285&#45;&gt;12385</title>
<path fill="none" stroke="black" d="M525.465,-730.817C554.784,-747.446 607.245,-777.198 637.338,-794.265"/>
</g>
<!-- 8317 -->
<g id="node16" class="node"><title>8317</title>
<g id="a_node16"><a xlink:title="6th_week">
<ellipse fill="#efff05" stroke="black" cx="529.879" cy="-788.205" rx="28.6953" ry="18"/>
<text text-anchor="middle" x="529.879" y="-784.505" font-family="Times,serif" font-size="14.00">8317</text>
</a>
</g>
</g>
<!-- 8317&#45;&gt;12385 -->
<g id="edge65" class="edge"><title>8317&#45;&gt;12385</title>
<path fill="none" stroke="black" d="M557.844,-792.292C578.642,-795.33 607.043,-799.48 628.658,-802.638"/>
</g>
<!-- 10021 -->
<g id="node17" class="node"><title>10021</title>
<g id="a_node17"><a xlink:title="6th_week">
<ellipse fill="#efff05" stroke="black" cx="818.983" cy="-569.804" rx="32.4942" ry="18"/>
<text text-anchor="middle" x="818.983" y="-566.104" font-family="Times,serif" font-size="14.00">10021</text>
</a>
</g>
</g>
<!-- 10810 -->
<g id="node20" class="node"><title>10810</title>
<g id="a_node20"><a xlink:title="6th_week">
<ellipse fill="#efff05" stroke="black" cx="928.901" cy="-397.042" rx="32.4942" ry="18"/>
<text text-anchor="middle" x="928.901" y="-393.342" font-family="Times,serif" font-size="14.00">10810</text>
</a>
</g>
</g>
<!-- 10021&#45;&gt;10810 -->
<g id="edge14" class="edge"><title>10021&#45;&gt;10810</title>
<path fill="none" stroke="black" d="M829.924,-552.607C850.993,-519.492 896.97,-447.229 918.004,-414.169"/>
</g>
<!-- 10021&#45;&gt;12385 -->
<g id="edge21" class="edge"><title>10021&#45;&gt;12385</title>
<path fill="none" stroke="black" d="M807.566,-586.881C778.277,-630.692 700.728,-746.69 671.552,-790.331"/>
</g>
<!-- 10720 -->
<g id="node19" class="node"><title>10720</title>
<g id="a_node19"><a xlink:title="6th_week">
<ellipse fill="#efff05" stroke="black" cx="671.054" cy="-474.737" rx="32.4942" ry="18"/>
<text text-anchor="middle" x="671.054" y="-471.037" font-family="Times,serif" font-size="14.00">10720</text>
</a>
</g>
</g>
<!-- 10720&#45;&gt;12385 -->
<g id="edge69" class="edge"><title>10720&#45;&gt;12385</title>
<path fill="none" stroke="black" d="M670.457,-493.088C668.567,-551.223 662.723,-730.902 660.834,-788.959"/>
</g>
<!-- 14779 -->
<g id="node27" class="node"><title>14779</title>
<g id="a_node27"><a xlink:title="6th_week">
<ellipse fill="grey" stroke="black" cx="707.938" cy="-239.221" rx="32.4942" ry="18"/>
<text text-anchor="middle" x="707.938" y="-235.521" font-family="Times,serif" font-size="14.00">14779</text>
</a>
</g>
</g>
<!-- 10720&#45;&gt;14779 -->
<g id="edge20" class="edge"><title>10720&#45;&gt;14779</title>
<path fill="none" stroke="black" d="M673.887,-456.647C680.753,-412.808 698.22,-301.274 705.095,-257.372"/>
</g>
<!-- 17927 -->
<g id="node33" class="node"><title>17927</title>
<g id="a_node33"><a xlink:title="6th_week">
<ellipse fill="grey" stroke="black" cx="630.877" cy="-279.141" rx="32.4942" ry="18"/>
<text text-anchor="middle" x="630.877" y="-275.441" font-family="Times,serif" font-size="14.00">17927</text>
</a>
</g>
</g>
<!-- 10720&#45;&gt;17927 -->
<g id="edge5" class="edge"><title>10720&#45;&gt;17927</title>
<path fill="none" stroke="black" d="M667.346,-456.686C659.693,-419.424 642.222,-334.373 634.576,-297.148"/>
</g>
<!-- 11401 -->
<g id="node21" class="node"><title>11401</title>
<g id="a_node21"><a xlink:title="6th_week">
<ellipse fill="#efff05" stroke="black" cx="527.551" cy="-655.099" rx="32.4942" ry="18"/>
<text text-anchor="middle" x="527.551" y="-651.399" font-family="Times,serif" font-size="14.00">11401</text>
</a>
</g>
</g>
<!-- 11401&#45;&gt;12385 -->
<g id="edge30" class="edge"><title>11401&#45;&gt;12385</title>
<path fill="none" stroke="black" d="M541.751,-671.382C567.156,-700.514 620.119,-761.247 645.739,-790.626"/>
</g>
<!-- 11402 -->
<g id="node22" class="node"><title>11402</title>
<g id="a_node22"><a xlink:title="6th_week">
<ellipse fill="#efff05" stroke="black" cx="459.835" cy="-829.687" rx="32.4942" ry="18"/>
<text text-anchor="middle" x="459.835" y="-825.987" font-family="Times,serif" font-size="14.00">11402</text>
</a>
</g>
</g>
<!-- 11402&#45;&gt;12385 -->
<g id="edge56" class="edge"><title>11402&#45;&gt;12385</title>
<path fill="none" stroke="black" d="M492.033,-826.083C529.431,-821.896 590.757,-815.031 628.121,-810.848"/>
</g>
<!-- 12606 -->
<g id="node24" class="node"><title>12606</title>
<g id="a_node24"><a xlink:title="6th_week">
<ellipse fill="grey" stroke="black" cx="453.756" cy="-763.078" rx="32.4942" ry="18"/>
<text text-anchor="middle" x="453.756" y="-759.378" font-family="Times,serif" font-size="14.00">12606</text>
</a>
</g>
</g>
<!-- 12385&#45;&gt;12606 -->
<g id="edge33" class="edge"><title>12385&#45;&gt;12606</title>
<path fill="none" stroke="black" d="M629.772,-800.735C590.733,-792.383 523.448,-777.988 484.349,-769.623"/>
</g>
<!-- 13454 -->
<g id="node25" class="node"><title>13454</title>
<g id="a_node25"><a xlink:title="6th_week">
<ellipse fill="#efff05" stroke="black" cx="909.307" cy="-826.481" rx="32.4942" ry="18"/>
<text text-anchor="middle" x="909.307" y="-822.781" font-family="Times,serif" font-size="14.00">13454</text>
</a>
</g>
</g>
<!-- 12385&#45;&gt;13454 -->
<g id="edge63" class="edge"><title>12385&#45;&gt;13454</title>
<path fill="none" stroke="black" d="M692.545,-809.747C740.325,-813.436 829.312,-820.306 877.059,-823.992"/>
</g>
<!-- 13641 -->
<g id="node26" class="node"><title>13641</title>
<g id="a_node26"><a xlink:title="6th_week">
<ellipse fill="#efff05" stroke="black" cx="885.312" cy="-752.816" rx="32.4942" ry="18"/>
<text text-anchor="middle" x="885.312" y="-749.116" font-family="Times,serif" font-size="14.00">13641</text>
</a>
</g>
</g>
<!-- 12385&#45;&gt;13641 -->
<g id="edge71" class="edge"><title>12385&#45;&gt;13641</title>
<path fill="none" stroke="black" d="M690.127,-800.024C733.175,-789.612 812.183,-770.503 855.3,-760.075"/>
</g>
<!-- 15158 -->
<g id="node28" class="node"><title>15158</title>
<g id="a_node28"><a xlink:title="6th_week">
<ellipse fill="#efff05" stroke="black" cx="862.994" cy="-683.976" rx="32.4942" ry="18"/>
<text text-anchor="middle" x="862.994" y="-680.276" font-family="Times,serif" font-size="14.00">15158</text>
</a>
</g>
</g>
<!-- 12385&#45;&gt;15158 -->
<g id="edge39" class="edge"><title>12385&#45;&gt;15158</title>
<path fill="none" stroke="black" d="M682.324,-793.826C721.325,-770.112 801.955,-721.089 840.937,-697.387"/>
</g>
<!-- 17447 -->
<g id="node31" class="node"><title>17447</title>
<g id="a_node31"><a xlink:title="6th_week">
<ellipse fill="#efff05" stroke="black" cx="849.467" cy="-936.111" rx="32.4942" ry="18"/>
<text text-anchor="middle" x="849.467" y="-932.411" font-family="Times,serif" font-size="14.00">17447</text>
</a>
</g>
</g>
<!-- 12385&#45;&gt;17447 -->
<g id="edge28" class="edge"><title>12385&#45;&gt;17447</title>
<path fill="none" stroke="black" d="M680.85,-821.288C717.25,-846.075 792.5,-897.318 828.881,-922.093"/>
</g>
<!-- 17790 -->
<g id="node32" class="node"><title>17790</title>
<g id="a_node32"><a xlink:title="6th_week">
<ellipse fill="#efff05" stroke="black" cx="518.921" cy="-556.364" rx="32.4942" ry="18"/>
<text text-anchor="middle" x="518.921" y="-552.664" font-family="Times,serif" font-size="14.00">17790</text>
</a>
</g>
</g>
<!-- 12385&#45;&gt;17790 -->
<g id="edge54" class="edge"><title>12385&#45;&gt;17790</title>
<path fill="none" stroke="black" d="M650.526,-790.008C624.709,-744.175 554.597,-619.7 528.703,-573.729"/>
</g>
<!-- 11954 -->
<g id="node39" class="node"><title>11954</title>
<g id="a_node39"><a xlink:title="Day_0">
<ellipse fill="#efff05" stroke="black" cx="594.268" cy="-1340.62" rx="32.4942" ry="18"/>
<text text-anchor="middle" x="594.268" y="-1336.92" font-family="Times,serif" font-size="14.00">11954</text>
</a>
</g>
</g>
<!-- 12385&#45;&gt;11954 -->
<g id="edge57" class="edge"><title>12385&#45;&gt;11954</title>
<path fill="none" stroke="black" d="M658.007,-825.305C647.912,-906.919 606.594,-1240.97 596.5,-1322.57"/>
</g>
<!-- 12237 -->
<g id="node40" class="node"><title>12237</title>
<g id="a_node40"><a xlink:title="6th_week">
<ellipse fill="#ffffff" stroke="black" cx="767.951" cy="-725.073" rx="32.4942" ry="18"/>
<text text-anchor="middle" x="767.951" y="-721.373" font-family="Times,serif" font-size="14.00">12237</text>
</a>
</g>
</g>
<!-- 12385&#45;&gt;12237 -->
<g id="edge36" class="edge"><title>12385&#45;&gt;12237</title>
<path fill="none" stroke="black" d="M679.496,-792.561C698.981,-777.695 728.943,-754.835 748.498,-739.915"/>
</g>
<!-- 13600 -->
<g id="node42" class="node"><title>13600</title>
<g id="a_node42"><a xlink:title="6th_week">
<ellipse fill="grey" stroke="black" cx="804.442" cy="-814.134" rx="32.4942" ry="18"/>
<text text-anchor="middle" x="804.442" y="-810.434" font-family="Times,serif" font-size="14.00">13600</text>
</a>
</g>
</g>
<!-- 12385&#45;&gt;13600 -->
<g id="edge46" class="edge"><title>12385&#45;&gt;13600</title>
<path fill="none" stroke="black" d="M692.961,-808.814C716.561,-809.941 748.28,-811.454 771.849,-812.579"/>
</g>
<!-- 16328 -->
<g id="node29" class="node"><title>16328</title>
<g id="a_node29"><a xlink:title="6th_week">
<ellipse fill="grey" stroke="black" cx="732.743" cy="-17.7037" rx="32.4942" ry="18"/>
<text text-anchor="middle" x="732.743" y="-14.0037" font-family="Times,serif" font-size="14.00">16328</text>
</a>
</g>
</g>
<!-- 14779&#45;&gt;16328 -->
<g id="edge27" class="edge"><title>14779&#45;&gt;16328</title>
<path fill="none" stroke="black" d="M709.968,-221.093C714.631,-179.451 726.063,-77.3547 730.72,-35.7711"/>
</g>
<!-- 13499 -->
<g id="node41" class="node"><title>13499</title>
<g id="a_node41"><a xlink:title="6th_week">
<ellipse fill="#efff05" stroke="black" cx="408.7" cy="-381.849" rx="32.4942" ry="18"/>
<text text-anchor="middle" x="408.7" y="-378.149" font-family="Times,serif" font-size="14.00">13499</text>
</a>
</g>
</g>
<!-- 17790&#45;&gt;13499 -->
<g id="edge9" class="edge"><title>17790&#45;&gt;13499</title>
<path fill="none" stroke="black" d="M508.152,-539.313C487.08,-505.95 440.619,-432.388 419.513,-398.969"/>
</g>
<!-- 723 -->
<g id="node34" class="node"><title>723</title>
<g id="a_node34"><a xlink:title="Day_0">
<ellipse fill="#efff05" stroke="black" cx="730.929" cy="-1418.1" rx="27" ry="18"/>
<text text-anchor="middle" x="730.929" y="-1414.4" font-family="Times,serif" font-size="14.00">723</text>
</a>
</g>
</g>
<!-- 723&#45;&gt;11954 -->
<g id="edge73" class="edge"><title>723&#45;&gt;11954</title>
<path fill="none" stroke="black" d="M710.173,-1406.33C685.084,-1392.11 643.009,-1368.25 617.046,-1353.53"/>
</g>
<!-- 5540 -->
<g id="node35" class="node"><title>5540</title>
<g id="a_node35"><a xlink:title="Day_0">
<ellipse fill="#efff05" stroke="black" cx="405.334" cy="-1335.99" rx="28.6953" ry="18"/>
<text text-anchor="middle" x="405.334" y="-1332.29" font-family="Times,serif" font-size="14.00">5540</text>
</a>
</g>
</g>
<!-- 5540&#45;&gt;11954 -->
<g id="edge35" class="edge"><title>5540&#45;&gt;11954</title>
<path fill="none" stroke="black" d="M434.029,-1336.69C468.301,-1337.53 525.503,-1338.93 561.487,-1339.82"/>
</g>
<!-- 7631 -->
<g id="node36" class="node"><title>7631</title>
<g id="a_node36"><a xlink:title="Day_0">
<ellipse fill="#efff05" stroke="black" cx="433.539" cy="-1262.71" rx="28.6953" ry="18"/>
<text text-anchor="middle" x="433.539" y="-1259.01" font-family="Times,serif" font-size="14.00">7631</text>
</a>
</g>
</g>
<!-- 7631&#45;&gt;11954 -->
<g id="edge70" class="edge"><title>7631&#45;&gt;11954</title>
<path fill="none" stroke="black" d="M456.226,-1273.71C486.167,-1288.22 538.682,-1313.68 569.587,-1328.66"/>
</g>
<!-- 7799 -->
<g id="node37" class="node"><title>7799</title>
<g id="a_node37"><a xlink:title="Day_0">
<ellipse fill="grey" stroke="black" cx="454.731" cy="-1408.25" rx="28.6953" ry="18"/>
<text text-anchor="middle" x="454.731" y="-1404.55" font-family="Times,serif" font-size="14.00">7799</text>
</a>
</g>
</g>
<!-- 7799&#45;&gt;11954 -->
<g id="edge32" class="edge"><title>7799&#45;&gt;11954</title>
<path fill="none" stroke="black" d="M477.46,-1397.23C502.79,-1384.96 543.604,-1365.18 569.668,-1352.54"/>
</g>
<!-- 8460 -->
<g id="node38" class="node"><title>8460</title>
<g id="a_node38"><a xlink:title="Day_0">
<ellipse fill="#efff05" stroke="black" cx="763.987" cy="-1342.61" rx="28.6953" ry="18"/>
<text text-anchor="middle" x="763.987" y="-1338.91" font-family="Times,serif" font-size="14.00">8460</text>
</a>
</g>
</g>
<!-- 8460&#45;&gt;11954 -->
<g id="edge58" class="edge"><title>8460&#45;&gt;11954</title>
<path fill="none" stroke="black" d="M735.197,-1342.27C705.217,-1341.92 658.338,-1341.37 626.978,-1341"/>
</g>
<!-- 13777 -->
<g id="node46" class="node"><title>13777</title>
<g id="a_node46"><a xlink:title="6th_week">
<ellipse fill="#efff05" stroke="black" cx="506.768" cy="-1833" rx="32.4942" ry="18"/>
<text text-anchor="middle" x="506.768" y="-1829.3" font-family="Times,serif" font-size="14.00">13777</text>
</a>
</g>
</g>
<!-- 11954&#45;&gt;13777 -->
<g id="edge43" class="edge"><title>11954&#45;&gt;13777</title>
<path fill="none" stroke="black" d="M591.05,-1358.73C577.314,-1436.02 523.671,-1737.88 509.968,-1814.99"/>
</g>
<!-- 608 -->
<g id="node43" class="node"><title>608</title>
<g id="a_node43"><a xlink:title="6th_week">
<ellipse fill="#efff05" stroke="black" cx="499.101" cy="-2303.9" rx="27" ry="18"/>
<text text-anchor="middle" x="499.101" y="-2300.2" font-family="Times,serif" font-size="14.00">608</text>
</a>
</g>
</g>
<!-- 5672 -->
<g id="node52" class="node"><title>5672</title>
<g id="a_node52"><a xlink:title="6th_week">
<ellipse fill="#efff05" stroke="black" cx="504.272" cy="-2105.89" rx="28.6953" ry="18"/>
<text text-anchor="middle" x="504.272" y="-2102.19" font-family="Times,serif" font-size="14.00">5672</text>
</a>
</g>
</g>
<!-- 608&#45;&gt;5672 -->
<g id="edge31" class="edge"><title>608&#45;&gt;5672</title>
<path fill="none" stroke="black" d="M499.579,-2285.62C500.564,-2247.9 502.812,-2161.8 503.796,-2124.12"/>
</g>
<!-- 999 -->
<g id="node44" class="node"><title>999</title>
<g id="a_node44"><a xlink:title="6th_week">
<ellipse fill="#efff05" stroke="black" cx="751.772" cy="-1945.05" rx="27" ry="18"/>
<text text-anchor="middle" x="751.772" y="-1941.35" font-family="Times,serif" font-size="14.00">999</text>
</a>
</g>
</g>
<!-- 999&#45;&gt;13777 -->
<g id="edge7" class="edge"><title>999&#45;&gt;13777</title>
<path fill="none" stroke="black" d="M729.162,-1934.71C683.317,-1913.75 579.718,-1866.36 531.864,-1844.48"/>
</g>
<!-- 13946 -->
<g id="node63" class="node"><title>13946</title>
<g id="a_node63"><a xlink:title="6th_week">
<ellipse fill="grey" stroke="black" cx="927.105" cy="-2029.16" rx="32.4942" ry="18"/>
<text text-anchor="middle" x="927.105" y="-2025.46" font-family="Times,serif" font-size="14.00">13946</text>
</a>
</g>
</g>
<!-- 999&#45;&gt;13946 -->
<g id="edge53" class="edge"><title>999&#45;&gt;13946</title>
<path fill="none" stroke="black" d="M773.978,-1955.71C806.783,-1971.44 867.999,-2000.81 902.257,-2017.24"/>
</g>
<!-- 8373 -->
<g id="node45" class="node"><title>8373</title>
<g id="a_node45"><a xlink:title="6th_week">
<ellipse fill="#efff05" stroke="black" cx="423.416" cy="-2093.57" rx="28.6953" ry="18"/>
<text text-anchor="middle" x="423.416" y="-2089.87" font-family="Times,serif" font-size="14.00">8373</text>
</a>
</g>
</g>
<!-- 8373&#45;&gt;13777 -->
<g id="edge37" class="edge"><title>8373&#45;&gt;13777</title>
<path fill="none" stroke="black" d="M429.145,-2075.66C444.372,-2028.06 485.726,-1898.78 500.998,-1851.04"/>
</g>
<!-- 1506 -->
<g id="node47" class="node"><title>1506</title>
<g id="a_node47"><a xlink:title="6th_week">
<ellipse fill="#efff05" stroke="black" cx="363.342" cy="-2284.43" rx="28.6953" ry="18"/>
<text text-anchor="middle" x="363.342" y="-2280.73" font-family="Times,serif" font-size="14.00">1506</text>
</a>
</g>
</g>
<!-- 8373&#45;&gt;1506 -->
<g id="edge72" class="edge"><title>8373&#45;&gt;1506</title>
<path fill="none" stroke="black" d="M417.765,-2111.53C406.286,-2148 380.364,-2230.35 368.935,-2266.67"/>
</g>
<!-- 3301 -->
<g id="node49" class="node"><title>3301</title>
<g id="a_node49"><a xlink:title="6th_week">
<ellipse fill="#efff05" stroke="black" cx="476.412" cy="-1699.2" rx="28.6953" ry="18"/>
<text text-anchor="middle" x="476.412" y="-1695.5" font-family="Times,serif" font-size="14.00">3301</text>
</a>
</g>
</g>
<!-- 13777&#45;&gt;3301 -->
<g id="edge67" class="edge"><title>13777&#45;&gt;3301</title>
<path fill="none" stroke="black" d="M502.674,-1814.96C496.88,-1789.42 486.349,-1743 480.538,-1717.38"/>
</g>
<!-- 4160 -->
<g id="node50" class="node"><title>4160</title>
<g id="a_node50"><a xlink:title="6th_week">
<ellipse fill="#efff05" stroke="black" cx="696.969" cy="-2071.42" rx="28.6953" ry="18"/>
<text text-anchor="middle" x="696.969" y="-2067.72" font-family="Times,serif" font-size="14.00">4160</text>
</a>
</g>
</g>
<!-- 13777&#45;&gt;4160 -->
<g id="edge34" class="edge"><title>13777&#45;&gt;4160</title>
<path fill="none" stroke="black" d="M520.142,-1849.77C555.234,-1893.75 649.612,-2012.06 684.112,-2055.3"/>
</g>
<!-- 5125 -->
<g id="node51" class="node"><title>5125</title>
<g id="a_node51"><a xlink:title="6th_week">
<ellipse fill="grey" stroke="black" cx="290.403" cy="-1996.43" rx="28.6953" ry="18"/>
<text text-anchor="middle" x="290.403" y="-1992.73" font-family="Times,serif" font-size="14.00">5125</text>
</a>
</g>
</g>
<!-- 13777&#45;&gt;5125 -->
<g id="edge6" class="edge"><title>13777&#45;&gt;5125</title>
<path fill="none" stroke="black" d="M487.185,-1847.79C445.68,-1879.14 349.358,-1951.9 308.863,-1982.49"/>
</g>
<!-- 13777&#45;&gt;5672 -->
<g id="edge4" class="edge"><title>13777&#45;&gt;5672</title>
<path fill="none" stroke="black" d="M506.6,-1851.33C506.145,-1901.04 504.893,-2038.02 504.439,-2087.64"/>
</g>
<!-- 6016 -->
<g id="node53" class="node"><title>6016</title>
<g id="a_node53"><a xlink:title="6th_week">
<ellipse fill="#efff05" stroke="black" cx="214.929" cy="-1907.99" rx="28.6953" ry="18"/>
<text text-anchor="middle" x="214.929" y="-1904.29" font-family="Times,serif" font-size="14.00">6016</text>
</a>
</g>
</g>
<!-- 13777&#45;&gt;6016 -->
<g id="edge24" class="edge"><title>13777&#45;&gt;6016</title>
<path fill="none" stroke="black" d="M477.178,-1840.6C420.229,-1855.24 296.194,-1887.11 241.614,-1901.14"/>
</g>
<!-- 6593 -->
<g id="node54" class="node"><title>6593</title>
<g id="a_node54"><a xlink:title="6th_week">
<ellipse fill="#efff05" stroke="black" cx="622.527" cy="-1735.52" rx="28.6953" ry="18"/>
<text text-anchor="middle" x="622.527" y="-1731.82" font-family="Times,serif" font-size="14.00">6593</text>
</a>
</g>
</g>
<!-- 13777&#45;&gt;6593 -->
<g id="edge11" class="edge"><title>13777&#45;&gt;6593</title>
<path fill="none" stroke="black" d="M524.855,-1817.77C546.856,-1799.24 583.726,-1768.19 605.321,-1750.01"/>
</g>
<!-- 6969 -->
<g id="node55" class="node"><title>6969</title>
<g id="a_node55"><a xlink:title="6th_week">
<ellipse fill="#efff05" stroke="black" cx="382.14" cy="-1722.38" rx="28.6953" ry="18"/>
<text text-anchor="middle" x="382.14" y="-1718.68" font-family="Times,serif" font-size="14.00">6969</text>
</a>
</g>
</g>
<!-- 13777&#45;&gt;6969 -->
<g id="edge42" class="edge"><title>13777&#45;&gt;6969</title>
<path fill="none" stroke="black" d="M489.439,-1817.62C465.494,-1796.37 422.575,-1758.27 398.923,-1737.28"/>
</g>
<!-- 7937 -->
<g id="node56" class="node"><title>7937</title>
<g id="a_node56"><a xlink:title="6th_week">
<ellipse fill="#efff05" stroke="black" cx="664.229" cy="-1914.4" rx="28.6953" ry="18"/>
<text text-anchor="middle" x="664.229" y="-1910.7" font-family="Times,serif" font-size="14.00">7937</text>
</a>
</g>
</g>
<!-- 13777&#45;&gt;7937 -->
<g id="edge2" class="edge"><title>13777&#45;&gt;7937</title>
<path fill="none" stroke="black" d="M530.682,-1845.36C560.966,-1861.02 612.731,-1887.78 642.127,-1902.98"/>
</g>
<!-- 9059 -->
<g id="node58" class="node"><title>9059</title>
<g id="a_node58"><a xlink:title="6th_week">
<ellipse fill="#efff05" stroke="black" cx="560.229" cy="-2005.73" rx="28.6953" ry="18"/>
<text text-anchor="middle" x="560.229" y="-2002.03" font-family="Times,serif" font-size="14.00">9059</text>
</a>
</g>
</g>
<!-- 13777&#45;&gt;9059 -->
<g id="edge15" class="edge"><title>13777&#45;&gt;9059</title>
<path fill="none" stroke="black" d="M512.288,-1850.83C522.559,-1884.02 544.491,-1954.88 554.739,-1987.99"/>
</g>
<!-- 9578 -->
<g id="node59" class="node"><title>9578</title>
<g id="a_node59"><a xlink:title="6th_week">
<ellipse fill="#efff05" stroke="black" cx="697.751" cy="-1852.63" rx="28.6953" ry="18"/>
<text text-anchor="middle" x="697.751" y="-1848.93" font-family="Times,serif" font-size="14.00">9578</text>
</a>
</g>
</g>
<!-- 13777&#45;&gt;9578 -->
<g id="edge29" class="edge"><title>13777&#45;&gt;9578</title>
<path fill="none" stroke="black" d="M538.734,-1836.29C575.263,-1840.04 634.489,-1846.13 669.423,-1849.72"/>
</g>
<!-- 10093 -->
<g id="node60" class="node"><title>10093</title>
<g id="a_node60"><a xlink:title="6th_week">
<ellipse fill="#ffffff" stroke="black" cx="464.001" cy="-2012.02" rx="32.4942" ry="18"/>
<text text-anchor="middle" x="464.001" y="-2008.32" font-family="Times,serif" font-size="14.00">10093</text>
</a>
</g>
</g>
<!-- 13777&#45;&gt;10093 -->
<g id="edge22" class="edge"><title>13777&#45;&gt;10093</title>
<path fill="none" stroke="black" d="M502.431,-1851.15C494.213,-1885.55 476.463,-1959.86 468.285,-1994.09"/>
</g>
<!-- 10723 -->
<g id="node61" class="node"><title>10723</title>
<g id="a_node61"><a xlink:title="6th_week">
<ellipse fill="#efff05" stroke="black" cx="327.527" cy="-1896.67" rx="32.4942" ry="18"/>
<text text-anchor="middle" x="327.527" y="-1892.97" font-family="Times,serif" font-size="14.00">10723</text>
</a>
</g>
</g>
<!-- 13777&#45;&gt;10723 -->
<g id="edge55" class="edge"><title>13777&#45;&gt;10723</title>
<path fill="none" stroke="black" d="M479.154,-1842.81C445.472,-1854.77 388.869,-1874.88 355.172,-1886.85"/>
</g>
<!-- 10975 -->
<g id="node62" class="node"><title>10975</title>
<g id="a_node62"><a xlink:title="6th_week">
<ellipse fill="#efff05" stroke="black" cx="312.249" cy="-1829.55" rx="32.4942" ry="18"/>
<text text-anchor="middle" x="312.249" y="-1825.85" font-family="Times,serif" font-size="14.00">10975</text>
</a>
</g>
</g>
<!-- 13777&#45;&gt;10975 -->
<g id="edge38" class="edge"><title>13777&#45;&gt;10975</title>
<path fill="none" stroke="black" d="M474.21,-1832.42C438.303,-1831.79 380.863,-1830.77 344.913,-1830.13"/>
</g>
<!-- 14724 -->
<g id="node65" class="node"><title>14724</title>
<g id="a_node65"><a xlink:title="6th_week">
<ellipse fill="#efff05" stroke="black" cx="379.591" cy="-1964.77" rx="32.4942" ry="18"/>
<text text-anchor="middle" x="379.591" y="-1961.07" font-family="Times,serif" font-size="14.00">14724</text>
</a>
</g>
</g>
<!-- 13777&#45;&gt;14724 -->
<g id="edge61" class="edge"><title>13777&#45;&gt;14724</title>
<path fill="none" stroke="black" d="M491.427,-1848.89C466.983,-1874.22 419.464,-1923.45 394.986,-1948.81"/>
</g>
<!-- 14749 -->
<g id="node66" class="node"><title>14749</title>
<g id="a_node66"><a xlink:title="6th_week">
<ellipse fill="#ffffff" stroke="black" cx="587.586" cy="-2098.38" rx="32.4942" ry="18"/>
<text text-anchor="middle" x="587.586" y="-2094.68" font-family="Times,serif" font-size="14.00">14749</text>
</a>
</g>
</g>
<!-- 13777&#45;&gt;14749 -->
<g id="edge3" class="edge"><title>13777&#45;&gt;14749</title>
<path fill="none" stroke="black" d="M512.196,-1850.83C526.883,-1899.05 567.291,-2031.74 582.075,-2080.29"/>
</g>
<!-- 14884 -->
<g id="node67" class="node"><title>14884</title>
<g id="a_node67"><a xlink:title="6th_week">
<ellipse fill="#efff05" stroke="black" cx="639.51" cy="-1986.28" rx="32.4942" ry="18"/>
<text text-anchor="middle" x="639.51" y="-1982.58" font-family="Times,serif" font-size="14.00">14884</text>
</a>
</g>
</g>
<!-- 13777&#45;&gt;14884 -->
<g id="edge48" class="edge"><title>13777&#45;&gt;14884</title>
<path fill="none" stroke="black" d="M520.973,-1849.4C546.523,-1878.9 599.932,-1940.58 625.407,-1969.99"/>
</g>
<!-- 15431 -->
<g id="node68" class="node"><title>15431</title>
<g id="a_node68"><a xlink:title="6th_week">
<ellipse fill="#efff05" stroke="black" cx="689.175" cy="-1787.24" rx="32.4942" ry="18"/>
<text text-anchor="middle" x="689.175" y="-1783.54" font-family="Times,serif" font-size="14.00">15431</text>
</a>
</g>
</g>
<!-- 13777&#45;&gt;15431 -->
<g id="edge17" class="edge"><title>13777&#45;&gt;15431</title>
<path fill="none" stroke="black" d="M536.48,-1825.55C570.4,-1817.04 625.56,-1803.2 659.475,-1794.69"/>
</g>
<!-- 15971 -->
<g id="node69" class="node"><title>15971</title>
<g id="a_node69"><a xlink:title="6th_week">
<ellipse fill="#efff05" stroke="black" cx="319.206" cy="-1767.67" rx="32.4942" ry="18"/>
<text text-anchor="middle" x="319.206" y="-1763.97" font-family="Times,serif" font-size="14.00">15971</text>
</a>
</g>
</g>
<!-- 13777&#45;&gt;15971 -->
<g id="edge19" class="edge"><title>13777&#45;&gt;15971</title>
<path fill="none" stroke="black" d="M479.092,-1823.36C443.63,-1811.01 382.511,-1789.72 346.994,-1777.35"/>
</g>
<!-- 15997 -->
<g id="node70" class="node"><title>15997</title>
<g id="a_node70"><a xlink:title="6th_week">
<ellipse fill="#efff05" stroke="black" cx="347.932" cy="-2062.25" rx="32.4942" ry="18"/>
<text text-anchor="middle" x="347.932" y="-2058.55" font-family="Times,serif" font-size="14.00">15997</text>
</a>
</g>
</g>
<!-- 13777&#45;&gt;15997 -->
<g id="edge47" class="edge"><title>13777&#45;&gt;15997</title>
<path fill="none" stroke="black" d="M495.088,-1849.86C465.714,-1892.25 389.021,-2002.94 359.629,-2045.37"/>
</g>
<!-- 1550 -->
<g id="node48" class="node"><title>1550</title>
<g id="a_node48"><a xlink:title="6th_week">
<ellipse fill="#efff05" stroke="black" cx="43.4399" cy="-1997.48" rx="28.6953" ry="18"/>
<text text-anchor="middle" x="43.4399" y="-1993.78" font-family="Times,serif" font-size="14.00">1550</text>
</a>
</g>
</g>
<!-- 1550&#45;&gt;6016 -->
<g id="edge64" class="edge"><title>1550&#45;&gt;6016</title>
<path fill="none" stroke="black" d="M65.508,-1985.96C98.3455,-1968.83 159.728,-1936.8 192.674,-1919.61"/>
</g>
<!-- 14177 -->
<g id="node64" class="node"><title>14177</title>
<g id="a_node64"><a xlink:title="6th_week">
<ellipse fill="#efff05" stroke="black" cx="847.154" cy="-2203.07" rx="32.4942" ry="18"/>
<text text-anchor="middle" x="847.154" y="-2199.37" font-family="Times,serif" font-size="14.00">14177</text>
</a>
</g>
</g>
<!-- 4160&#45;&gt;14177 -->
<g id="edge18" class="edge"><title>4160&#45;&gt;14177</title>
<path fill="none" stroke="black" d="M713.905,-2086.26C742.596,-2111.41 800.471,-2162.15 829.584,-2187.67"/>
</g>
<!-- 16648 -->
<g id="node71" class="node"><title>16648</title>
<g id="a_node71"><a xlink:title="6th_week">
<ellipse fill="#efff05" stroke="black" cx="786.481" cy="-2250.85" rx="32.4942" ry="18"/>
<text text-anchor="middle" x="786.481" y="-2247.15" font-family="Times,serif" font-size="14.00">16648</text>
</a>
</g>
</g>
<!-- 4160&#45;&gt;16648 -->
<g id="edge25" class="edge"><title>4160&#45;&gt;16648</title>
<path fill="none" stroke="black" d="M705.552,-2088.62C722.618,-2122.83 760.641,-2199.05 777.793,-2233.43"/>
</g>
<!-- 8760 -->
<g id="node57" class="node"><title>8760</title>
<g id="a_node57"><a xlink:title="6th_week">
<ellipse fill="#efff05" stroke="black" cx="140.659" cy="-2122.93" rx="28.6953" ry="18"/>
<text text-anchor="middle" x="140.659" y="-2119.23" font-family="Times,serif" font-size="14.00">8760</text>
</a>
</g>
</g>
<!-- 5125&#45;&gt;8760 -->
<g id="edge23" class="edge"><title>5125&#45;&gt;8760</title>
<path fill="none" stroke="black" d="M273.226,-2010.94C244.494,-2035.21 187.002,-2083.78 158.097,-2108.2"/>
</g>
<!-- 748 -->
<g id="node74" class="node"><title>748</title>
<g id="a_node74"><a xlink:title="6th_week">
<ellipse fill="grey" stroke="black" cx="27.0527" cy="-1921.03" rx="27" ry="18"/>
<text text-anchor="middle" x="27.0527" y="-1917.33" font-family="Times,serif" font-size="14.00">748</text>
</a>
</g>
</g>
<!-- 6016&#45;&gt;748 -->
<g id="edge68" class="edge"><title>6016&#45;&gt;748</title>
<path fill="none" stroke="black" d="M186.394,-1909.97C150.466,-1912.47 89.1981,-1916.72 54.0238,-1919.16"/>
</g>
<!-- 5788 -->
<g id="node72" class="node"><title>5788</title>
<g id="a_node72"><a xlink:title="6th_week">
<ellipse fill="#ffffff" stroke="black" cx="637.749" cy="-2294.84" rx="28.6953" ry="18"/>
<text text-anchor="middle" x="637.749" y="-2291.14" font-family="Times,serif" font-size="14.00">5788</text>
</a>
</g>
</g>
<!-- 14749&#45;&gt;5788 -->
<g id="edge8" class="edge"><title>14749&#45;&gt;5788</title>
<path fill="none" stroke="black" d="M592.215,-2116.51C601.795,-2154.03 623.695,-2239.8 633.203,-2277.04"/>
</g>
<!-- 14315 -->
<g id="node73" class="node"><title>14315</title>
<g id="a_node73"><a xlink:title="6th_week">
<ellipse fill="#efff05" stroke="black" cx="232.702" cy="-2235.82" rx="32.4942" ry="18"/>
<text text-anchor="middle" x="232.702" y="-2232.12" font-family="Times,serif" font-size="14.00">14315</text>
</a>
</g>
</g>
<!-- 15997&#45;&gt;14315 -->
<g id="edge50" class="edge"><title>15997&#45;&gt;14315</title>
<path fill="none" stroke="black" d="M336.674,-2079.21C314.644,-2112.39 266.072,-2185.55 244.006,-2218.79"/>
</g>
</g>
</svg>
