<?xml version="1.0" encoding="UTF-8" standalone="no"?>
<!DOCTYPE svg PUBLIC "-//W3C//DTD SVG 1.1//EN"
 "http://www.w3.org/Graphics/SVG/1.1/DTD/svg11.dtd">
<!-- Generated by graphviz version 2.38.0 (20140413.2041)
 -->
<!-- Title: %3 Pages: 1 -->
<svg width="1209pt" height="1176pt"
 viewBox="0.00 0.00 1209.00 1176.00" xmlns="http://www.w3.org/2000/svg" xmlns:xlink="http://www.w3.org/1999/xlink">
<g id="graph0" class="graph" transform="scale(1 1) rotate(0) translate(4 1172)">
<title>%3</title>
<polygon fill="white" stroke="none" points="-4,4 -4,-1172 1205,-1172 1205,4 -4,4"/>
<!-- 412 -->
<g id="node1" class="node"><title>412</title>
<g id="a_node1"><a xlink:title="Day_0">
<ellipse fill="#20ff05" stroke="black" cx="590.411" cy="-572.155" rx="27" ry="18"/>
<text text-anchor="middle" x="590.411" y="-568.455" font-family="Times,serif" font-size="14.00">412</text>
</a>
</g>
</g>
<!-- 743 -->
<g id="node2" class="node"><title>743</title>
<g id="a_node2"><a xlink:title="Day_0">
<ellipse fill="#20ff05" stroke="black" cx="949.179" cy="-602.215" rx="27" ry="18"/>
<text text-anchor="middle" x="949.179" y="-598.515" font-family="Times,serif" font-size="14.00">743</text>
</a>
</g>
</g>
<!-- 412&#45;&gt;743 -->
<g id="edge47" class="edge"><title>412&#45;&gt;743</title>
<path fill="none" stroke="black" d="M617.377,-574.415C684.027,-579.999 855.925,-594.401 922.39,-599.97"/>
</g>
<!-- 1176 -->
<g id="node3" class="node"><title>1176</title>
<g id="a_node3"><a xlink:title="Day_0">
<ellipse fill="#20ff05" stroke="black" cx="659.196" cy="-409.857" rx="28.6953" ry="18"/>
<text text-anchor="middle" x="659.196" y="-406.157" font-family="Times,serif" font-size="14.00">1176</text>
</a>
</g>
</g>
<!-- 412&#45;&gt;1176 -->
<g id="edge14" class="edge"><title>412&#45;&gt;1176</title>
<path fill="none" stroke="black" d="M597.772,-554.787C610.942,-523.712 638.398,-458.931 651.679,-427.593"/>
</g>
<!-- 2874 -->
<g id="node6" class="node"><title>2874</title>
<g id="a_node6"><a xlink:title="Day_0">
<ellipse fill="#20ff05" stroke="black" cx="450.994" cy="-815.465" rx="28.6953" ry="18"/>
<text text-anchor="middle" x="450.994" y="-811.765" font-family="Times,serif" font-size="14.00">2874</text>
</a>
</g>
</g>
<!-- 412&#45;&gt;2874 -->
<g id="edge11" class="edge"><title>412&#45;&gt;2874</title>
<path fill="none" stroke="black" d="M580.607,-589.264C555.009,-633.938 486.373,-753.722 460.787,-798.374"/>
</g>
<!-- 5260 -->
<g id="node9" class="node"><title>5260</title>
<g id="a_node9"><a xlink:title="Day_0">
<ellipse fill="#20ff05" stroke="black" cx="725.367" cy="-913.694" rx="28.6953" ry="18"/>
<text text-anchor="middle" x="725.367" y="-909.994" font-family="Times,serif" font-size="14.00">5260</text>
</a>
</g>
</g>
<!-- 412&#45;&gt;5260 -->
<g id="edge57" class="edge"><title>412&#45;&gt;5260</title>
<path fill="none" stroke="black" d="M597.289,-589.562C620.386,-648.014 695.025,-836.907 718.341,-895.913"/>
</g>
<!-- 5478 -->
<g id="node10" class="node"><title>5478</title>
<g id="a_node10"><a xlink:title="Day_0">
<ellipse fill="#20ff05" stroke="black" cx="411.508" cy="-436.614" rx="28.6953" ry="18"/>
<text text-anchor="middle" x="411.508" y="-432.914" font-family="Times,serif" font-size="14.00">5478</text>
</a>
</g>
</g>
<!-- 412&#45;&gt;5478 -->
<g id="edge17" class="edge"><title>412&#45;&gt;5478</title>
<path fill="none" stroke="black" d="M572.272,-558.413C538.071,-532.502 464.404,-476.689 429.962,-450.595"/>
</g>
<!-- 6647 -->
<g id="node12" class="node"><title>6647</title>
<g id="a_node12"><a xlink:title="Day_0">
<ellipse fill="#20ff05" stroke="black" cx="484.281" cy="-383.369" rx="28.6953" ry="18"/>
<text text-anchor="middle" x="484.281" y="-379.669" font-family="Times,serif" font-size="14.00">6647</text>
</a>
</g>
</g>
<!-- 412&#45;&gt;6647 -->
<g id="edge26" class="edge"><title>412&#45;&gt;6647</title>
<path fill="none" stroke="black" d="M580.805,-555.069C560.65,-519.217 514.144,-436.49 493.941,-400.553"/>
</g>
<!-- 6690 -->
<g id="node13" class="node"><title>6690</title>
<g id="a_node13"><a xlink:title="Day_0">
<ellipse fill="grey" stroke="black" cx="678.861" cy="-708.111" rx="28.6953" ry="18"/>
<text text-anchor="middle" x="678.861" y="-704.411" font-family="Times,serif" font-size="14.00">6690</text>
</a>
</g>
</g>
<!-- 412&#45;&gt;6690 -->
<g id="edge41" class="edge"><title>412&#45;&gt;6690</title>
<path fill="none" stroke="black" d="M601.256,-588.826C618.232,-614.92 650.896,-665.127 667.927,-691.304"/>
</g>
<!-- 6722 -->
<g id="node14" class="node"><title>6722</title>
<g id="a_node14"><a xlink:title="Day_0">
<ellipse fill="grey" stroke="black" cx="850.097" cy="-753.692" rx="28.6953" ry="18"/>
<text text-anchor="middle" x="850.097" y="-749.992" font-family="Times,serif" font-size="14.00">6722</text>
</a>
</g>
</g>
<!-- 412&#45;&gt;6722 -->
<g id="edge35" class="edge"><title>412&#45;&gt;6722</title>
<path fill="none" stroke="black" d="M609.087,-585.211C656.768,-618.543 782.633,-706.531 830.89,-740.265"/>
</g>
<!-- 7993 -->
<g id="node15" class="node"><title>7993</title>
<g id="a_node15"><a xlink:title="Day_0">
<ellipse fill="#20ff05" stroke="black" cx="805.926" cy="-520.708" rx="28.6953" ry="18"/>
<text text-anchor="middle" x="805.926" y="-517.008" font-family="Times,serif" font-size="14.00">7993</text>
</a>
</g>
</g>
<!-- 412&#45;&gt;7993 -->
<g id="edge9" class="edge"><title>412&#45;&gt;7993</title>
<path fill="none" stroke="black" d="M615.979,-566.052C657.011,-556.257 737.187,-537.117 779.039,-527.126"/>
</g>
<!-- 8098 -->
<g id="node16" class="node"><title>8098</title>
<g id="a_node16"><a xlink:title="Day_0">
<ellipse fill="#20ff05" stroke="black" cx="459.105" cy="-623.631" rx="28.6953" ry="18"/>
<text text-anchor="middle" x="459.105" y="-619.931" font-family="Times,serif" font-size="14.00">8098</text>
</a>
</g>
</g>
<!-- 412&#45;&gt;8098 -->
<g id="edge46" class="edge"><title>412&#45;&gt;8098</title>
<path fill="none" stroke="black" d="M566.936,-581.358C543.478,-590.554 507.563,-604.634 483.714,-613.984"/>
</g>
<!-- 8648 -->
<g id="node18" class="node"><title>8648</title>
<g id="a_node18"><a xlink:title="Day_0">
<ellipse fill="#20ff05" stroke="black" cx="706.508" cy="-768.981" rx="28.6953" ry="18"/>
<text text-anchor="middle" x="706.508" y="-765.281" font-family="Times,serif" font-size="14.00">8648</text>
</a>
</g>
</g>
<!-- 412&#45;&gt;8648 -->
<g id="edge30" class="edge"><title>412&#45;&gt;8648</title>
<path fill="none" stroke="black" d="M600.309,-588.937C622.188,-626.029 674.461,-714.651 696.469,-751.962"/>
</g>
<!-- 9524 -->
<g id="node19" class="node"><title>9524</title>
<g id="a_node19"><a xlink:title="Day_0">
<ellipse fill="#20ff05" stroke="black" cx="754.47" cy="-610.158" rx="28.6953" ry="18"/>
<text text-anchor="middle" x="754.47" y="-606.458" font-family="Times,serif" font-size="14.00">9524</text>
</a>
</g>
</g>
<!-- 412&#45;&gt;9524 -->
<g id="edge38" class="edge"><title>412&#45;&gt;9524</title>
<path fill="none" stroke="black" d="M616.045,-578.093C646.325,-585.107 696.477,-596.725 727.379,-603.883"/>
</g>
<!-- 9651 -->
<g id="node21" class="node"><title>9651</title>
<g id="a_node21"><a xlink:title="Day_0">
<ellipse fill="#20ff05" stroke="black" cx="718.002" cy="-495.064" rx="28.6953" ry="18"/>
<text text-anchor="middle" x="718.002" y="-491.364" font-family="Times,serif" font-size="14.00">9651</text>
</a>
</g>
</g>
<!-- 412&#45;&gt;9651 -->
<g id="edge7" class="edge"><title>412&#45;&gt;9651</title>
<path fill="none" stroke="black" d="M610.628,-559.94C634.238,-545.675 673.102,-522.193 697.031,-507.735"/>
</g>
<!-- 10094 -->
<g id="node22" class="node"><title>10094</title>
<g id="a_node22"><a xlink:title="Day_0">
<ellipse fill="#20ff05" stroke="black" cx="437.277" cy="-701.67" rx="32.4942" ry="18"/>
<text text-anchor="middle" x="437.277" y="-697.97" font-family="Times,serif" font-size="14.00">10094</text>
</a>
</g>
</g>
<!-- 412&#45;&gt;10094 -->
<g id="edge29" class="edge"><title>412&#45;&gt;10094</title>
<path fill="none" stroke="black" d="M573.438,-586.51C544.314,-611.142 485.085,-661.236 455.273,-686.45"/>
</g>
<!-- 10205 -->
<g id="node23" class="node"><title>10205</title>
<g id="a_node23"><a xlink:title="Day_0">
<ellipse fill="#20ff05" stroke="black" cx="784.514" cy="-438.109" rx="32.4942" ry="18"/>
<text text-anchor="middle" x="784.514" y="-434.409" font-family="Times,serif" font-size="14.00">10205</text>
</a>
</g>
</g>
<!-- 412&#45;&gt;10205 -->
<g id="edge49" class="edge"><title>412&#45;&gt;10205</title>
<path fill="none" stroke="black" d="M609.375,-559.058C646.006,-533.761 726.206,-478.375 764.017,-452.264"/>
</g>
<!-- 10298 -->
<g id="node24" class="node"><title>10298</title>
<g id="a_node24"><a xlink:title="Day_0">
<ellipse fill="#20ff05" stroke="black" cx="810.052" cy="-657.801" rx="32.4942" ry="18"/>
<text text-anchor="middle" x="810.052" y="-654.101" font-family="Times,serif" font-size="14.00">10298</text>
</a>
</g>
</g>
<!-- 412&#45;&gt;10298 -->
<g id="edge36" class="edge"><title>412&#45;&gt;10298</title>
<path fill="none" stroke="black" d="M613.916,-581.321C655.084,-597.374 739.969,-630.473 783.312,-647.374"/>
</g>
<!-- 10698 -->
<g id="node25" class="node"><title>10698</title>
<g id="a_node25"><a xlink:title="Day_0">
<ellipse fill="#20ff05" stroke="black" cx="559.563" cy="-391.291" rx="32.4942" ry="18"/>
<text text-anchor="middle" x="559.563" y="-387.591" font-family="Times,serif" font-size="14.00">10698</text>
</a>
</g>
</g>
<!-- 412&#45;&gt;10698 -->
<g id="edge32" class="edge"><title>412&#45;&gt;10698</title>
<path fill="none" stroke="black" d="M587.34,-554.152C581.427,-519.484 568.524,-443.832 562.621,-409.222"/>
</g>
<!-- 12799 -->
<g id="node28" class="node"><title>12799</title>
<g id="a_node28"><a xlink:title="Day_0">
<ellipse fill="#20ff05" stroke="black" cx="828.722" cy="-583.644" rx="32.4942" ry="18"/>
<text text-anchor="middle" x="828.722" y="-579.944" font-family="Times,serif" font-size="14.00">12799</text>
</a>
</g>
</g>
<!-- 412&#45;&gt;12799 -->
<g id="edge34" class="edge"><title>412&#45;&gt;12799</title>
<path fill="none" stroke="black" d="M617.748,-573.473C661.883,-575.601 748.664,-579.784 796.011,-582.067"/>
</g>
<!-- 14507 -->
<g id="node30" class="node"><title>14507</title>
<g id="a_node30"><a xlink:title="Day_0">
<ellipse fill="#20ff05" stroke="black" cx="606.241" cy="-751.42" rx="32.4942" ry="18"/>
<text text-anchor="middle" x="606.241" y="-747.72" font-family="Times,serif" font-size="14.00">14507</text>
</a>
</g>
</g>
<!-- 412&#45;&gt;14507 -->
<g id="edge31" class="edge"><title>412&#45;&gt;14507</title>
<path fill="none" stroke="black" d="M592.016,-590.331C595.05,-624.69 601.594,-698.801 604.632,-733.197"/>
</g>
<!-- 15025 -->
<g id="node31" class="node"><title>15025</title>
<g id="a_node31"><a xlink:title="Day_0">
<ellipse fill="#20ff05" stroke="black" cx="563.677" cy="-331.837" rx="32.4942" ry="18"/>
<text text-anchor="middle" x="563.677" y="-328.137" font-family="Times,serif" font-size="14.00">15025</text>
</a>
</g>
</g>
<!-- 412&#45;&gt;15025 -->
<g id="edge23" class="edge"><title>412&#45;&gt;15025</title>
<path fill="none" stroke="black" d="M588.401,-554.092C583.447,-509.556 570.688,-394.865 565.71,-350.11"/>
</g>
<!-- 15078 -->
<g id="node32" class="node"><title>15078</title>
<g id="a_node32"><a xlink:title="Day_0">
<ellipse fill="#20ff05" stroke="black" cx="492.261" cy="-475.295" rx="32.4942" ry="18"/>
<text text-anchor="middle" x="492.261" y="-471.595" font-family="Times,serif" font-size="14.00">15078</text>
</a>
</g>
</g>
<!-- 412&#45;&gt;15078 -->
<g id="edge54" class="edge"><title>412&#45;&gt;15078</title>
<path fill="none" stroke="black" d="M575.075,-557.021C556.959,-539.143 526.955,-509.534 508.468,-491.29"/>
</g>
<!-- 15518 -->
<g id="node33" class="node"><title>15518</title>
<g id="a_node33"><a xlink:title="Day_0">
<ellipse fill="grey" stroke="black" cx="802.814" cy="-286.961" rx="32.4942" ry="18"/>
<text text-anchor="middle" x="802.814" y="-283.261" font-family="Times,serif" font-size="14.00">15518</text>
</a>
</g>
</g>
<!-- 412&#45;&gt;15518 -->
<g id="edge27" class="edge"><title>412&#45;&gt;15518</title>
<path fill="none" stroke="black" d="M602.439,-556.005C639.649,-506.043 752.646,-354.323 790.389,-303.645"/>
</g>
<!-- 16719 -->
<g id="node35" class="node"><title>16719</title>
<g id="a_node35"><a xlink:title="Day_0">
<ellipse fill="grey" stroke="black" cx="550.942" cy="-858.701" rx="32.4942" ry="18"/>
<text text-anchor="middle" x="550.942" y="-855.001" font-family="Times,serif" font-size="14.00">16719</text>
</a>
</g>
</g>
<!-- 412&#45;&gt;16719 -->
<g id="edge48" class="edge"><title>412&#45;&gt;16719</title>
<path fill="none" stroke="black" d="M587.942,-590.08C580.871,-641.417 560.594,-788.628 553.461,-840.414"/>
</g>
<!-- 17705 -->
<g id="node37" class="node"><title>17705</title>
<g id="a_node37"><a xlink:title="Day_0">
<ellipse fill="#ffffff" stroke="black" cx="531.593" cy="-776.209" rx="32.4942" ry="18"/>
<text text-anchor="middle" x="531.593" y="-772.509" font-family="Times,serif" font-size="14.00">17705</text>
</a>
</g>
</g>
<!-- 412&#45;&gt;17705 -->
<g id="edge53" class="edge"><title>412&#45;&gt;17705</title>
<path fill="none" stroke="black" d="M585.294,-589.907C574.17,-628.498 547.89,-719.668 536.739,-758.353"/>
</g>
<!-- 18133 -->
<g id="node38" class="node"><title>18133</title>
<g id="a_node38"><a xlink:title="Day_0">
<ellipse fill="#20ff05" stroke="black" cx="513.053" cy="-723.839" rx="32.4942" ry="18"/>
<text text-anchor="middle" x="513.053" y="-720.139" font-family="Times,serif" font-size="14.00">18133</text>
</a>
</g>
</g>
<!-- 412&#45;&gt;18133 -->
<g id="edge1" class="edge"><title>412&#45;&gt;18133</title>
<path fill="none" stroke="black" d="M581.687,-589.261C566.909,-618.238 537.098,-676.69 522.102,-706.095"/>
</g>
<!-- 18344 -->
<g id="node39" class="node"><title>18344</title>
<g id="a_node39"><a xlink:title="Day_0">
<ellipse fill="#20ff05" stroke="black" cx="636.594" cy="-796.872" rx="32.4942" ry="18"/>
<text text-anchor="middle" x="636.594" y="-793.172" font-family="Times,serif" font-size="14.00">18344</text>
</a>
</g>
</g>
<!-- 412&#45;&gt;18344 -->
<g id="edge4" class="edge"><title>412&#45;&gt;18344</title>
<path fill="none" stroke="black" d="M594.112,-590.165C602.759,-632.241 624.21,-736.616 632.875,-778.777"/>
</g>
<!-- 18591 -->
<g id="node40" class="node"><title>18591</title>
<g id="a_node40"><a xlink:title="Day_0">
<ellipse fill="#20ff05" stroke="black" cx="402.013" cy="-337.883" rx="32.4942" ry="18"/>
<text text-anchor="middle" x="402.013" y="-334.183" font-family="Times,serif" font-size="14.00">18591</text>
</a>
</g>
</g>
<!-- 412&#45;&gt;18591 -->
<g id="edge12" class="edge"><title>412&#45;&gt;18591</title>
<path fill="none" stroke="black" d="M577.461,-556.053C543.127,-513.358 450.025,-397.586 415.304,-354.411"/>
</g>
<!-- 19446 -->
<g id="node41" class="node"><title>19446</title>
<g id="a_node41"><a xlink:title="Day_0">
<ellipse fill="#20ff05" stroke="black" cx="276.503" cy="-651.627" rx="32.4942" ry="18"/>
<text text-anchor="middle" x="276.503" y="-647.927" font-family="Times,serif" font-size="14.00">19446</text>
</a>
</g>
</g>
<!-- 412&#45;&gt;19446 -->
<g id="edge37" class="edge"><title>412&#45;&gt;19446</title>
<path fill="none" stroke="black" d="M564.988,-578.591C507.481,-593.151 367.646,-628.552 306.246,-644.097"/>
</g>
<!-- 20067 -->
<g id="node42" class="node"><title>20067</title>
<g id="a_node42"><a xlink:title="Day_0">
<ellipse fill="grey" stroke="black" cx="770.509" cy="-715.707" rx="32.4942" ry="18"/>
<text text-anchor="middle" x="770.509" y="-712.007" font-family="Times,serif" font-size="14.00">20067</text>
</a>
</g>
</g>
<!-- 412&#45;&gt;20067 -->
<g id="edge8" class="edge"><title>412&#45;&gt;20067</title>
<path fill="none" stroke="black" d="M608.007,-586.181C642.084,-613.343 716.796,-672.894 751.764,-700.766"/>
</g>
<!-- 20848 -->
<g id="node43" class="node"><title>20848</title>
<g id="a_node43"><a xlink:title="Day_0">
<ellipse fill="#20ff05" stroke="black" cx="388.083" cy="-647.541" rx="32.4942" ry="18"/>
<text text-anchor="middle" x="388.083" y="-643.841" font-family="Times,serif" font-size="14.00">20848</text>
</a>
</g>
</g>
<!-- 412&#45;&gt;20848 -->
<g id="edge15" class="edge"><title>412&#45;&gt;20848</title>
<path fill="none" stroke="black" d="M566.805,-580.95C528.965,-595.049 454.945,-622.629 415.067,-637.486"/>
</g>
<!-- 21542 -->
<g id="node45" class="node"><title>21542</title>
<g id="a_node45"><a xlink:title="Day_0">
<ellipse fill="#20ff05" stroke="black" cx="645.362" cy="-267.53" rx="32.4942" ry="18"/>
<text text-anchor="middle" x="645.362" y="-263.83" font-family="Times,serif" font-size="14.00">21542</text>
</a>
</g>
</g>
<!-- 412&#45;&gt;21542 -->
<g id="edge3" class="edge"><title>412&#45;&gt;21542</title>
<path fill="none" stroke="black" d="M593.683,-554.012C603.457,-499.831 632.355,-339.635 642.106,-285.579"/>
</g>
<!-- 23254 -->
<g id="node48" class="node"><title>23254</title>
<g id="a_node48"><a xlink:title="Day_0">
<ellipse fill="#ffffff" stroke="black" cx="737.281" cy="-383.767" rx="32.4942" ry="18"/>
<text text-anchor="middle" x="737.281" y="-380.067" font-family="Times,serif" font-size="14.00">23254</text>
</a>
</g>
</g>
<!-- 412&#45;&gt;23254 -->
<g id="edge50" class="edge"><title>412&#45;&gt;23254</title>
<path fill="none" stroke="black" d="M602.933,-556.093C630.542,-520.679 696.409,-436.192 724.372,-400.325"/>
</g>
<!-- 23510 -->
<g id="node49" class="node"><title>23510</title>
<g id="a_node49"><a xlink:title="Day_0">
<ellipse fill="#20ff05" stroke="black" cx="385.004" cy="-579.747" rx="32.4942" ry="18"/>
<text text-anchor="middle" x="385.004" y="-576.047" font-family="Times,serif" font-size="14.00">23510</text>
</a>
</g>
</g>
<!-- 412&#45;&gt;23510 -->
<g id="edge43" class="edge"><title>412&#45;&gt;23510</title>
<path fill="none" stroke="black" d="M563.134,-573.163C525.484,-574.555 457.694,-577.06 417.478,-578.547"/>
</g>
<!-- 24016 -->
<g id="node53" class="node"><title>24016</title>
<g id="a_node53"><a xlink:title="Day_0">
<ellipse fill="#20ff05" stroke="black" cx="659.558" cy="-346.975" rx="32.4942" ry="18"/>
<text text-anchor="middle" x="659.558" y="-343.275" font-family="Times,serif" font-size="14.00">24016</text>
</a>
</g>
</g>
<!-- 412&#45;&gt;24016 -->
<g id="edge51" class="edge"><title>412&#45;&gt;24016</title>
<path fill="none" stroke="black" d="M595.836,-554.486C608.731,-512.495 641.097,-407.095 654.062,-364.874"/>
</g>
<!-- 24222 -->
<g id="node55" class="node"><title>24222</title>
<g id="a_node55"><a xlink:title="Day_0">
<ellipse fill="#20ff05" stroke="black" cx="866.19" cy="-441.072" rx="32.4942" ry="18"/>
<text text-anchor="middle" x="866.19" y="-437.372" font-family="Times,serif" font-size="14.00">24222</text>
</a>
</g>
</g>
<!-- 412&#45;&gt;24222 -->
<g id="edge2" class="edge"><title>412&#45;&gt;24222</title>
<path fill="none" stroke="black" d="M612.513,-561.65C663.255,-537.531 787.826,-478.32 841.225,-452.938"/>
</g>
<!-- 25443 -->
<g id="node56" class="node"><title>25443</title>
<g id="a_node56"><a xlink:title="Day_0">
<ellipse fill="#20ff05" stroke="black" cx="397.69" cy="-513.566" rx="32.4942" ry="18"/>
<text text-anchor="middle" x="397.69" y="-509.866" font-family="Times,serif" font-size="14.00">25443</text>
</a>
</g>
</g>
<!-- 412&#45;&gt;25443 -->
<g id="edge44" class="edge"><title>412&#45;&gt;25443</title>
<path fill="none" stroke="black" d="M565.61,-564.616C529.927,-553.768 464.251,-533.801 426.475,-522.317"/>
</g>
<!-- 25643 -->
<g id="node57" class="node"><title>25643</title>
<g id="a_node57"><a xlink:title="Day_0">
<ellipse fill="#20ff05" stroke="black" cx="337.887" cy="-421.173" rx="32.4942" ry="18"/>
<text text-anchor="middle" x="337.887" y="-417.473" font-family="Times,serif" font-size="14.00">25643</text>
</a>
</g>
</g>
<!-- 412&#45;&gt;25643 -->
<g id="edge10" class="edge"><title>412&#45;&gt;25643</title>
<path fill="none" stroke="black" d="M570.172,-560.055C523.475,-532.135 408.492,-463.387 360.012,-434.402"/>
</g>
<!-- 27653 -->
<g id="node59" class="node"><title>27653</title>
<g id="a_node59"><a xlink:title="Day_0">
<ellipse fill="#20ff05" stroke="black" cx="367.517" cy="-760.459" rx="32.4942" ry="18"/>
<text text-anchor="middle" x="367.517" y="-756.759" font-family="Times,serif" font-size="14.00">27653</text>
</a>
</g>
</g>
<!-- 412&#45;&gt;27653 -->
<g id="edge58" class="edge"><title>412&#45;&gt;27653</title>
<path fill="none" stroke="black" d="M573.657,-586.309C532.654,-620.949 427.536,-709.754 385.391,-745.359"/>
</g>
<!-- 28693 -->
<g id="node60" class="node"><title>28693</title>
<g id="a_node60"><a xlink:title="Day_0">
<ellipse fill="#20ff05" stroke="black" cx="495.612" cy="-237.145" rx="32.4942" ry="18"/>
<text text-anchor="middle" x="495.612" y="-233.445" font-family="Times,serif" font-size="14.00">28693</text>
</a>
</g>
</g>
<!-- 412&#45;&gt;28693 -->
<g id="edge19" class="edge"><title>412&#45;&gt;28693</title>
<path fill="none" stroke="black" d="M585.314,-554.144C568.854,-495.975 517.23,-313.541 500.734,-255.246"/>
</g>
<!-- 29208 -->
<g id="node61" class="node"><title>29208</title>
<g id="a_node61"><a xlink:title="Day_0">
<ellipse fill="grey" stroke="black" cx="306.828" cy="-517.233" rx="32.4942" ry="18"/>
<text text-anchor="middle" x="306.828" y="-513.533" font-family="Times,serif" font-size="14.00">29208</text>
</a>
</g>
</g>
<!-- 412&#45;&gt;29208 -->
<g id="edge25" class="edge"><title>412&#45;&gt;29208</title>
<path fill="none" stroke="black" d="M564.24,-567.087C511.725,-556.916 393.736,-534.065 337.614,-523.196"/>
</g>
<!-- 3729 -->
<g id="node7" class="node"><title>3729</title>
<g id="a_node7"><a xlink:title="Day_0">
<ellipse fill="#ffffff" stroke="black" cx="1143.88" cy="-688.931" rx="28.6953" ry="18"/>
<text text-anchor="middle" x="1143.88" y="-685.231" font-family="Times,serif" font-size="14.00">3729</text>
</a>
</g>
</g>
<!-- 743&#45;&gt;3729 -->
<g id="edge24" class="edge"><title>743&#45;&gt;3729</title>
<path fill="none" stroke="black" d="M971.895,-612.332C1009.11,-628.907 1082.7,-661.68 1120.4,-678.474"/>
</g>
<!-- 4334 -->
<g id="node8" class="node"><title>4334</title>
<g id="a_node8"><a xlink:title="Day_0">
<ellipse fill="#20ff05" stroke="black" cx="1156.01" cy="-550.586" rx="28.6953" ry="18"/>
<text text-anchor="middle" x="1156.01" y="-546.886" font-family="Times,serif" font-size="14.00">4334</text>
</a>
</g>
</g>
<!-- 743&#45;&gt;4334 -->
<g id="edge42" class="edge"><title>743&#45;&gt;4334</title>
<path fill="none" stroke="black" d="M974.54,-595.884C1013.8,-586.083 1088.96,-567.323 1129.13,-557.296"/>
</g>
<!-- 23620 -->
<g id="node51" class="node"><title>23620</title>
<g id="a_node51"><a xlink:title="Day_0">
<ellipse fill="#20ff05" stroke="black" cx="1168.75" cy="-621.404" rx="32.4942" ry="18"/>
<text text-anchor="middle" x="1168.75" y="-617.704" font-family="Times,serif" font-size="14.00">23620</text>
</a>
</g>
</g>
<!-- 743&#45;&gt;23620 -->
<g id="edge16" class="edge"><title>743&#45;&gt;23620</title>
<path fill="none" stroke="black" d="M976.102,-604.568C1016.64,-608.11 1093.21,-614.803 1136.61,-618.596"/>
</g>
<!-- 1533 -->
<g id="node4" class="node"><title>1533</title>
<g id="a_node4"><a xlink:title="Day_0">
<ellipse fill="grey" stroke="black" cx="733.896" cy="-1149.32" rx="28.6953" ry="18"/>
<text text-anchor="middle" x="733.896" y="-1145.62" font-family="Times,serif" font-size="14.00">1533</text>
</a>
</g>
</g>
<!-- 1533&#45;&gt;5260 -->
<g id="edge61" class="edge"><title>1533&#45;&gt;5260</title>
<path fill="none" stroke="black" d="M733.241,-1131.22C731.653,-1087.36 727.614,-975.777 726.024,-931.854"/>
</g>
<!-- 1535 -->
<g id="node5" class="node"><title>1535</title>
<g id="a_node5"><a xlink:title="Day_0">
<ellipse fill="#ffffff" stroke="black" cx="901.301" cy="-83.6773" rx="28.6953" ry="18"/>
<text text-anchor="middle" x="901.301" y="-79.9773" font-family="Times,serif" font-size="14.00">1535</text>
</a>
</g>
</g>
<!-- 1535&#45;&gt;15518 -->
<g id="edge6" class="edge"><title>1535&#45;&gt;15518</title>
<path fill="none" stroke="black" d="M892.904,-101.009C874.344,-139.319 830,-230.849 811.33,-269.384"/>
</g>
<!-- 3146 -->
<g id="node62" class="node"><title>3146</title>
<g id="a_node62"><a xlink:title="Day_0">
<ellipse fill="#efff05" stroke="black" cx="328.19" cy="-1026.33" rx="28.6953" ry="18"/>
<text text-anchor="middle" x="328.19" y="-1022.63" font-family="Times,serif" font-size="14.00">3146</text>
</a>
</g>
</g>
<!-- 2874&#45;&gt;3146 -->
<g id="edge39" class="edge"><title>2874&#45;&gt;3146</title>
<path fill="none" stroke="black" d="M440.945,-832.721C417.802,-872.459 360.978,-970.031 338.035,-1009.43"/>
</g>
<!-- 23110 -->
<g id="node47" class="node"><title>23110</title>
<g id="a_node47"><a xlink:title="Day_0">
<ellipse fill="#20ff05" stroke="black" cx="810.694" cy="-1149.71" rx="32.4942" ry="18"/>
<text text-anchor="middle" x="810.694" y="-1146.01" font-family="Times,serif" font-size="14.00">23110</text>
</a>
</g>
</g>
<!-- 5260&#45;&gt;23110 -->
<g id="edge60" class="edge"><title>5260&#45;&gt;23110</title>
<path fill="none" stroke="black" d="M731.78,-931.433C747.593,-975.171 788.315,-1087.81 804.206,-1131.76"/>
</g>
<!-- 23997 -->
<g id="node52" class="node"><title>23997</title>
<g id="a_node52"><a xlink:title="Day_0">
<ellipse fill="grey" stroke="black" cx="874.156" cy="-1103.98" rx="32.4942" ry="18"/>
<text text-anchor="middle" x="874.156" y="-1100.28" font-family="Times,serif" font-size="14.00">23997</text>
</a>
</g>
</g>
<!-- 5260&#45;&gt;23997 -->
<g id="edge22" class="edge"><title>5260&#45;&gt;23997</title>
<path fill="none" stroke="black" d="M738.053,-929.918C766.023,-965.689 832.751,-1051.03 861.079,-1087.26"/>
</g>
<!-- 6216 -->
<g id="node11" class="node"><title>6216</title>
<g id="a_node11"><a xlink:title="Day_0">
<ellipse fill="#20ff05" stroke="black" cx="472.703" cy="-18.3305" rx="28.6953" ry="18"/>
<text text-anchor="middle" x="472.703" y="-14.6305" font-family="Times,serif" font-size="14.00">6216</text>
</a>
</g>
</g>
<!-- 6216&#45;&gt;28693 -->
<g id="edge33" class="edge"><title>6216&#45;&gt;28693</title>
<path fill="none" stroke="black" d="M474.617,-36.6102C478.94,-77.9014 489.417,-177.976 493.72,-219.071"/>
</g>
<!-- 23568 -->
<g id="node50" class="node"><title>23568</title>
<g id="a_node50"><a xlink:title="Day_0">
<ellipse fill="#20ff05" stroke="black" cx="1027.1" cy="-889.072" rx="32.4942" ry="18"/>
<text text-anchor="middle" x="1027.1" y="-885.372" font-family="Times,serif" font-size="14.00">23568</text>
</a>
</g>
</g>
<!-- 6722&#45;&gt;23568 -->
<g id="edge18" class="edge"><title>6722&#45;&gt;23568</title>
<path fill="none" stroke="black" d="M868.372,-767.67C902.025,-793.41 973.486,-848.067 1007.85,-874.351"/>
</g>
<!-- 8333 -->
<g id="node17" class="node"><title>8333</title>
<g id="a_node17"><a xlink:title="Day_0">
<ellipse fill="#20ff05" stroke="black" cx="48.9736" cy="-756.194" rx="28.6953" ry="18"/>
<text text-anchor="middle" x="48.9736" y="-752.494" font-family="Times,serif" font-size="14.00">8333</text>
</a>
</g>
</g>
<!-- 8333&#45;&gt;19446 -->
<g id="edge52" class="edge"><title>8333&#45;&gt;19446</title>
<path fill="none" stroke="black" d="M72.4662,-745.398C115.612,-725.569 207.106,-683.521 251.414,-663.157"/>
</g>
<!-- 9575 -->
<g id="node20" class="node"><title>9575</title>
<g id="a_node20"><a xlink:title="Day_0">
<ellipse fill="#20ff05" stroke="black" cx="28.6428" cy="-673.263" rx="28.6953" ry="18"/>
<text text-anchor="middle" x="28.6428" y="-669.563" font-family="Times,serif" font-size="14.00">9575</text>
</a>
</g>
</g>
<!-- 9575&#45;&gt;19446 -->
<g id="edge59" class="edge"><title>9575&#45;&gt;19446</title>
<path fill="none" stroke="black" d="M57.0755,-670.781C103.488,-666.73 195.243,-658.72 244.104,-654.455"/>
</g>
<!-- 10909 -->
<g id="node26" class="node"><title>10909</title>
<g id="a_node26"><a xlink:title="Day_0">
<ellipse fill="#20ff05" stroke="black" cx="393.026" cy="-35.5735" rx="32.4942" ry="18"/>
<text text-anchor="middle" x="393.026" y="-31.8735" font-family="Times,serif" font-size="14.00">10909</text>
</a>
</g>
</g>
<!-- 10909&#45;&gt;28693 -->
<g id="edge5" class="edge"><title>10909&#45;&gt;28693</title>
<path fill="none" stroke="black" d="M401.95,-53.1091C421.4,-91.3267 467.417,-181.744 486.781,-219.794"/>
</g>
<!-- 11215 -->
<g id="node27" class="node"><title>11215</title>
<g id="a_node27"><a xlink:title="Day_0">
<ellipse fill="grey" stroke="black" cx="971.174" cy="-129.063" rx="32.4942" ry="18"/>
<text text-anchor="middle" x="971.174" y="-125.363" font-family="Times,serif" font-size="14.00">11215</text>
</a>
</g>
</g>
<!-- 11215&#45;&gt;15518 -->
<g id="edge55" class="edge"><title>11215&#45;&gt;15518</title>
<path fill="none" stroke="black" d="M954.416,-144.78C922.145,-175.046 851.723,-241.092 819.505,-271.308"/>
</g>
<!-- 13501 -->
<g id="node29" class="node"><title>13501</title>
<g id="a_node29"><a xlink:title="Day_0">
<ellipse fill="#20ff05" stroke="black" cx="1069.88" cy="-338.326" rx="32.4942" ry="18"/>
<text text-anchor="middle" x="1069.88" y="-334.626" font-family="Times,serif" font-size="14.00">13501</text>
</a>
</g>
</g>
<!-- 13501&#45;&gt;24222 -->
<g id="edge40" class="edge"><title>13501&#45;&gt;24222</title>
<path fill="none" stroke="black" d="M1045.72,-350.516C1006.52,-370.29 929.508,-409.134 890.325,-428.898"/>
</g>
<!-- 16057 -->
<g id="node34" class="node"><title>16057</title>
<g id="a_node34"><a xlink:title="Day_0">
<ellipse fill="#ffffff" stroke="black" cx="59.5374" cy="-470.362" rx="32.4942" ry="18"/>
<text text-anchor="middle" x="59.5374" y="-466.662" font-family="Times,serif" font-size="14.00">16057</text>
</a>
</g>
</g>
<!-- 16057&#45;&gt;29208 -->
<g id="edge28" class="edge"><title>16057&#45;&gt;29208</title>
<path fill="none" stroke="black" d="M90.3569,-476.203C137.874,-485.21 228.493,-502.386 276.009,-511.392"/>
</g>
<!-- 24198 -->
<g id="node54" class="node"><title>24198</title>
<g id="a_node54"><a xlink:title="Day_0">
<ellipse fill="#efff05" stroke="black" cx="501.53" cy="-1103.47" rx="32.4942" ry="18"/>
<text text-anchor="middle" x="501.53" y="-1099.77" font-family="Times,serif" font-size="14.00">24198</text>
</a>
</g>
</g>
<!-- 16719&#45;&gt;24198 -->
<g id="edge45" class="edge"><title>16719&#45;&gt;24198</title>
<path fill="none" stroke="black" d="M547.309,-876.699C538.171,-921.965 514.312,-1040.15 505.169,-1085.45"/>
</g>
<!-- 17551 -->
<g id="node36" class="node"><title>17551</title>
<g id="a_node36"><a xlink:title="Day_0">
<ellipse fill="grey" stroke="black" cx="120.572" cy="-299.263" rx="32.4942" ry="18"/>
<text text-anchor="middle" x="120.572" y="-295.563" font-family="Times,serif" font-size="14.00">17551</text>
</a>
</g>
</g>
<!-- 17551&#45;&gt;25643 -->
<g id="edge20" class="edge"><title>17551&#45;&gt;25643</title>
<path fill="none" stroke="black" d="M143.417,-312.079C185.154,-335.493 273.269,-384.924 315.021,-408.346"/>
</g>
<!-- 22729 -->
<g id="node46" class="node"><title>22729</title>
<g id="a_node46"><a xlink:title="Day_0">
<ellipse fill="#20ff05" stroke="black" cx="231.593" cy="-148.401" rx="32.4942" ry="18"/>
<text text-anchor="middle" x="231.593" y="-144.701" font-family="Times,serif" font-size="14.00">22729</text>
</a>
</g>
</g>
<!-- 18591&#45;&gt;22729 -->
<g id="edge21" class="edge"><title>18591&#45;&gt;22729</title>
<path fill="none" stroke="black" d="M387.483,-321.728C355.286,-285.93 278.249,-200.276 246.086,-164.515"/>
</g>
<!-- 20999 -->
<g id="node44" class="node"><title>20999</title>
<g id="a_node44"><a xlink:title="Day_0">
<ellipse fill="#ffffff" stroke="black" cx="684.425" cy="-39.558" rx="32.4942" ry="18"/>
<text text-anchor="middle" x="684.425" y="-35.858" font-family="Times,serif" font-size="14.00">20999</text>
</a>
</g>
</g>
<!-- 20999&#45;&gt;21542 -->
<g id="edge56" class="edge"><title>20999&#45;&gt;21542</title>
<path fill="none" stroke="black" d="M681.295,-57.8286C673.962,-100.62 655.747,-206.926 648.454,-249.489"/>
</g>
<!-- 26817 -->
<g id="node58" class="node"><title>26817</title>
<g id="a_node58"><a xlink:title="Day_0">
<ellipse fill="grey" stroke="black" cx="179.059" cy="-922.659" rx="32.4942" ry="18"/>
<text text-anchor="middle" x="179.059" y="-918.959" font-family="Times,serif" font-size="14.00">26817</text>
</a>
</g>
</g>
<!-- 26817&#45;&gt;27653 -->
<g id="edge13" class="edge"><title>26817&#45;&gt;27653</title>
<path fill="none" stroke="black" d="M196.788,-907.4C232.707,-876.486 313.703,-806.775 349.697,-775.796"/>
</g>
</g>
</svg>
