<?xml version="1.0" encoding="UTF-8" standalone="no"?>
<!DOCTYPE svg PUBLIC "-//W3C//DTD SVG 1.1//EN"
 "http://www.w3.org/Graphics/SVG/1.1/DTD/svg11.dtd">
<!-- Generated by graphviz version 2.38.0 (20140413.2041)
 -->
<!-- Title: %3 Pages: 1 -->
<svg width="1418pt" height="1565pt"
 viewBox="0.00 0.00 1418.00 1565.00" xmlns="http://www.w3.org/2000/svg" xmlns:xlink="http://www.w3.org/1999/xlink">
<g id="graph0" class="graph" transform="scale(1 1) rotate(0) translate(4 1561)">
<title>%3</title>
<polygon fill="white" stroke="none" points="-4,4 -4,-1561 1414,-1561 1414,4 -4,4"/>
<!-- 303 -->
<g id="node1" class="node"><title>303</title>
<g id="a_node1"><a xlink:title="6th_week">
<ellipse fill="#ffffff" stroke="black" cx="718.93" cy="-1342.61" rx="27" ry="18"/>
<text text-anchor="middle" x="718.93" y="-1338.91" font-family="Times,serif" font-size="14.00">303</text>
</a>
</g>
</g>
<!-- 22270 -->
<g id="node37" class="node"><title>22270</title>
<g id="a_node37"><a xlink:title="6th_week">
<ellipse fill="grey" stroke="black" cx="707.487" cy="-1081.03" rx="32.4942" ry="18"/>
<text text-anchor="middle" x="707.487" y="-1077.33" font-family="Times,serif" font-size="14.00">22270</text>
</a>
</g>
</g>
<!-- 303&#45;&gt;22270 -->
<g id="edge33" class="edge"><title>303&#45;&gt;22270</title>
<path fill="none" stroke="black" d="M718.125,-1324.22C716.019,-1276.07 710.364,-1146.79 708.276,-1099.06"/>
</g>
<!-- 668 -->
<g id="node2" class="node"><title>668</title>
<g id="a_node2"><a xlink:title="6th_week">
<ellipse fill="#efff05" stroke="black" cx="475.632" cy="-692.897" rx="27" ry="18"/>
<text text-anchor="middle" x="475.632" y="-689.197" font-family="Times,serif" font-size="14.00">668</text>
</a>
</g>
</g>
<!-- 19190 -->
<g id="node32" class="node"><title>19190</title>
<g id="a_node32"><a xlink:title="6th_week">
<ellipse fill="#efff05" stroke="black" cx="696.986" cy="-679.985" rx="32.4942" ry="18"/>
<text text-anchor="middle" x="696.986" y="-676.285" font-family="Times,serif" font-size="14.00">19190</text>
</a>
</g>
</g>
<!-- 668&#45;&gt;19190 -->
<g id="edge63" class="edge"><title>668&#45;&gt;19190</title>
<path fill="none" stroke="black" d="M502.774,-691.314C543.642,-688.93 620.839,-684.427 664.592,-681.874"/>
</g>
<!-- 1560 -->
<g id="node3" class="node"><title>1560</title>
<g id="a_node3"><a xlink:title="6th_week">
<ellipse fill="#efff05" stroke="black" cx="852.71" cy="-576.96" rx="28.6953" ry="18"/>
<text text-anchor="middle" x="852.71" y="-573.26" font-family="Times,serif" font-size="14.00">1560</text>
</a>
</g>
</g>
<!-- 1560&#45;&gt;19190 -->
<g id="edge31" class="edge"><title>1560&#45;&gt;19190</title>
<path fill="none" stroke="black" d="M832.988,-590.008C803.525,-609.5 748.257,-646.065 718.038,-666.057"/>
</g>
<!-- 1717 -->
<g id="node4" class="node"><title>1717</title>
<g id="a_node4"><a xlink:title="6th_week">
<ellipse fill="grey" stroke="black" cx="961.755" cy="-616.415" rx="28.6953" ry="18"/>
<text text-anchor="middle" x="961.755" y="-612.715" font-family="Times,serif" font-size="14.00">1717</text>
</a>
</g>
</g>
<!-- 1717&#45;&gt;19190 -->
<g id="edge46" class="edge"><title>1717&#45;&gt;19190</title>
<path fill="none" stroke="black" d="M934.91,-622.86C885.215,-634.792 779.215,-660.242 727.135,-672.746"/>
</g>
<!-- 1757 -->
<g id="node5" class="node"><title>1757</title>
<g id="a_node5"><a xlink:title="6th_week">
<ellipse fill="#efff05" stroke="black" cx="614.805" cy="-312.931" rx="28.6953" ry="18"/>
<text text-anchor="middle" x="614.805" y="-309.231" font-family="Times,serif" font-size="14.00">1757</text>
</a>
</g>
</g>
<!-- 1757&#45;&gt;19190 -->
<g id="edge56" class="edge"><title>1757&#45;&gt;19190</title>
<path fill="none" stroke="black" d="M618.824,-330.883C632.778,-393.206 679.033,-599.798 692.974,-662.067"/>
</g>
<!-- 8013 -->
<g id="node48" class="node"><title>8013</title>
<g id="a_node48"><a xlink:title="6th_week">
<ellipse fill="grey" stroke="black" cx="561.65" cy="-17.5103" rx="28.6953" ry="18"/>
<text text-anchor="middle" x="561.65" y="-13.8103" font-family="Times,serif" font-size="14.00">8013</text>
</a>
</g>
</g>
<!-- 1757&#45;&gt;8013 -->
<g id="edge44" class="edge"><title>1757&#45;&gt;8013</title>
<path fill="none" stroke="black" d="M611.56,-294.896C602.07,-242.155 574.441,-88.6021 564.92,-35.6848"/>
</g>
<!-- 2868 -->
<g id="node6" class="node"><title>2868</title>
<g id="a_node6"><a xlink:title="6th_week">
<ellipse fill="#efff05" stroke="black" cx="779.701" cy="-991.413" rx="28.6953" ry="18"/>
<text text-anchor="middle" x="779.701" y="-987.713" font-family="Times,serif" font-size="14.00">2868</text>
</a>
</g>
</g>
<!-- 2868&#45;&gt;19190 -->
<g id="edge52" class="edge"><title>2868&#45;&gt;19190</title>
<path fill="none" stroke="black" d="M774.896,-973.323C760.277,-918.281 716.441,-753.234 701.804,-698.125"/>
</g>
<!-- 3033 -->
<g id="node7" class="node"><title>3033</title>
<g id="a_node7"><a xlink:title="6th_week">
<ellipse fill="#efff05" stroke="black" cx="713.289" cy="-895.323" rx="28.6953" ry="18"/>
<text text-anchor="middle" x="713.289" y="-891.623" font-family="Times,serif" font-size="14.00">3033</text>
</a>
</g>
</g>
<!-- 3033&#45;&gt;19190 -->
<g id="edge55" class="edge"><title>3033&#45;&gt;19190</title>
<path fill="none" stroke="black" d="M711.927,-877.334C708.859,-836.8 701.432,-738.703 698.355,-698.074"/>
</g>
<!-- 3566 -->
<g id="node8" class="node"><title>3566</title>
<g id="a_node8"><a xlink:title="6th_week">
<ellipse fill="grey" stroke="black" cx="961.753" cy="-685.681" rx="28.6953" ry="18"/>
<text text-anchor="middle" x="961.753" y="-681.981" font-family="Times,serif" font-size="14.00">3566</text>
</a>
</g>
</g>
<!-- 3566&#45;&gt;19190 -->
<g id="edge38" class="edge"><title>3566&#45;&gt;19190</title>
<path fill="none" stroke="black" d="M933.167,-685.066C883.558,-683.998 781.834,-681.81 729.569,-680.686"/>
</g>
<!-- 4349 -->
<g id="node9" class="node"><title>4349</title>
<g id="a_node9"><a xlink:title="6th_week">
<ellipse fill="#efff05" stroke="black" cx="561.133" cy="-524.746" rx="28.6953" ry="18"/>
<text text-anchor="middle" x="561.133" y="-521.046" font-family="Times,serif" font-size="14.00">4349</text>
</a>
</g>
</g>
<!-- 4349&#45;&gt;19190 -->
<g id="edge16" class="edge"><title>4349&#45;&gt;19190</title>
<path fill="none" stroke="black" d="M575.16,-540.774C601.057,-570.367 656.126,-633.294 682.421,-663.342"/>
</g>
<!-- 5689 -->
<g id="node10" class="node"><title>5689</title>
<g id="a_node10"><a xlink:title="6th_week">
<ellipse fill="#efff05" stroke="black" cx="472.757" cy="-356.414" rx="28.6953" ry="18"/>
<text text-anchor="middle" x="472.757" y="-352.714" font-family="Times,serif" font-size="14.00">5689</text>
</a>
</g>
</g>
<!-- 12358 -->
<g id="node21" class="node"><title>12358</title>
<g id="a_node21"><a xlink:title="6th_week">
<ellipse fill="#efff05" stroke="black" cx="326.927" cy="-134.119" rx="32.4942" ry="18"/>
<text text-anchor="middle" x="326.927" y="-130.419" font-family="Times,serif" font-size="14.00">12358</text>
</a>
</g>
</g>
<!-- 5689&#45;&gt;12358 -->
<g id="edge40" class="edge"><title>5689&#45;&gt;12358</title>
<path fill="none" stroke="black" d="M461.796,-339.706C434.836,-298.611 365.514,-192.94 338.215,-151.327"/>
</g>
<!-- 5689&#45;&gt;19190 -->
<g id="edge61" class="edge"><title>5689&#45;&gt;19190</title>
<path fill="none" stroke="black" d="M484.496,-373.355C523.154,-429.14 646.21,-606.714 685.092,-662.821"/>
</g>
<!-- 6142 -->
<g id="node11" class="node"><title>6142</title>
<g id="a_node11"><a xlink:title="6th_week">
<ellipse fill="#efff05" stroke="black" cx="928.023" cy="-813.491" rx="28.6953" ry="18"/>
<text text-anchor="middle" x="928.023" y="-809.791" font-family="Times,serif" font-size="14.00">6142</text>
</a>
</g>
</g>
<!-- 6142&#45;&gt;19190 -->
<g id="edge37" class="edge"><title>6142&#45;&gt;19190</title>
<path fill="none" stroke="black" d="M906.702,-801.17C863.135,-775.995 764.259,-718.859 719.612,-693.06"/>
</g>
<!-- 6841 -->
<g id="node12" class="node"><title>6841</title>
<g id="a_node12"><a xlink:title="6th_week">
<ellipse fill="#efff05" stroke="black" cx="625.957" cy="-480.241" rx="28.6953" ry="18"/>
<text text-anchor="middle" x="625.957" y="-476.541" font-family="Times,serif" font-size="14.00">6841</text>
</a>
</g>
</g>
<!-- 6841&#45;&gt;19190 -->
<g id="edge5" class="edge"><title>6841&#45;&gt;19190</title>
<path fill="none" stroke="black" d="M632.261,-497.967C645.739,-535.871 677.23,-624.429 690.697,-662.299"/>
</g>
<!-- 7456 -->
<g id="node13" class="node"><title>7456</title>
<g id="a_node13"><a xlink:title="6th_week">
<ellipse fill="#efff05" stroke="black" cx="784.709" cy="-416.106" rx="28.6953" ry="18"/>
<text text-anchor="middle" x="784.709" y="-412.406" font-family="Times,serif" font-size="14.00">7456</text>
</a>
</g>
</g>
<!-- 7456&#45;&gt;19190 -->
<g id="edge23" class="edge"><title>7456&#45;&gt;19190</title>
<path fill="none" stroke="black" d="M778.817,-433.829C762.875,-481.785 719.014,-613.721 702.968,-661.991"/>
</g>
<!-- 8314 -->
<g id="node14" class="node"><title>8314</title>
<g id="a_node14"><a xlink:title="6th_week">
<ellipse fill="#efff05" stroke="black" cx="864.271" cy="-507.696" rx="28.6953" ry="18"/>
<text text-anchor="middle" x="864.271" y="-503.996" font-family="Times,serif" font-size="14.00">8314</text>
</a>
</g>
</g>
<!-- 8314&#45;&gt;19190 -->
<g id="edge65" class="edge"><title>8314&#45;&gt;19190</title>
<path fill="none" stroke="black" d="M849.13,-523.289C817.442,-555.925 744.427,-631.124 712.455,-664.053"/>
</g>
<!-- 8426 -->
<g id="node15" class="node"><title>8426</title>
<g id="a_node15"><a xlink:title="6th_week">
<ellipse fill="#efff05" stroke="black" cx="780.427" cy="-878.749" rx="28.6953" ry="18"/>
<text text-anchor="middle" x="780.427" y="-875.049" font-family="Times,serif" font-size="14.00">8426</text>
</a>
</g>
</g>
<!-- 8426&#45;&gt;19190 -->
<g id="edge2" class="edge"><title>8426&#45;&gt;19190</title>
<path fill="none" stroke="black" d="M773.022,-861.11C757.187,-823.391 720.194,-735.268 704.374,-697.584"/>
</g>
<!-- 10012 -->
<g id="node16" class="node"><title>10012</title>
<g id="a_node16"><a xlink:title="6th_week">
<ellipse fill="#efff05" stroke="black" cx="389.225" cy="-751.137" rx="32.4942" ry="18"/>
<text text-anchor="middle" x="389.225" y="-747.437" font-family="Times,serif" font-size="14.00">10012</text>
</a>
</g>
</g>
<!-- 10012&#45;&gt;19190 -->
<g id="edge26" class="edge"><title>10012&#45;&gt;19190</title>
<path fill="none" stroke="black" d="M419.295,-744.185C478.131,-730.582 607.859,-700.59 666.794,-686.965"/>
</g>
<!-- 10341 -->
<g id="node17" class="node"><title>10341</title>
<g id="a_node17"><a xlink:title="6th_week">
<ellipse fill="#efff05" stroke="black" cx="518.017" cy="-872.679" rx="32.4942" ry="18"/>
<text text-anchor="middle" x="518.017" y="-868.979" font-family="Times,serif" font-size="14.00">10341</text>
</a>
</g>
</g>
<!-- 10341&#45;&gt;19190 -->
<g id="edge20" class="edge"><title>10341&#45;&gt;19190</title>
<path fill="none" stroke="black" d="M532.968,-856.582C566.656,-820.31 648.185,-732.529 681.952,-696.172"/>
</g>
<!-- 10346 -->
<g id="node18" class="node"><title>10346</title>
<g id="a_node18"><a xlink:title="6th_week">
<ellipse fill="#efff05" stroke="black" cx="294.565" cy="-636.365" rx="32.4942" ry="18"/>
<text text-anchor="middle" x="294.565" y="-632.665" font-family="Times,serif" font-size="14.00">10346</text>
</a>
</g>
</g>
<!-- 10346&#45;&gt;19190 -->
<g id="edge25" class="edge"><title>10346&#45;&gt;19190</title>
<path fill="none" stroke="black" d="M326.478,-639.825C401.768,-647.985 589.776,-668.364 665.069,-676.525"/>
</g>
<!-- 9955 -->
<g id="node51" class="node"><title>9955</title>
<g id="a_node51"><a xlink:title="6th_week">
<ellipse fill="#efff05" stroke="black" cx="28.2116" cy="-606.096" rx="28.6953" ry="18"/>
<text text-anchor="middle" x="28.2116" y="-602.396" font-family="Times,serif" font-size="14.00">9955</text>
</a>
</g>
</g>
<!-- 10346&#45;&gt;9955 -->
<g id="edge57" class="edge"><title>10346&#45;&gt;9955</title>
<path fill="none" stroke="black" d="M262.701,-632.744C210.229,-626.781 106.479,-614.991 56.4698,-609.307"/>
</g>
<!-- 10748 -->
<g id="node19" class="node"><title>10748</title>
<g id="a_node19"><a xlink:title="6th_week">
<ellipse fill="#efff05" stroke="black" cx="978.408" cy="-756.854" rx="32.4942" ry="18"/>
<text text-anchor="middle" x="978.408" y="-753.154" font-family="Times,serif" font-size="14.00">10748</text>
</a>
</g>
</g>
<!-- 10748&#45;&gt;19190 -->
<g id="edge17" class="edge"><title>10748&#45;&gt;19190</title>
<path fill="none" stroke="black" d="M949.087,-748.845C895.028,-734.079 780.25,-702.728 726.241,-687.976"/>
</g>
<!-- 11484 -->
<g id="node20" class="node"><title>11484</title>
<g id="a_node20"><a xlink:title="6th_week">
<ellipse fill="#efff05" stroke="black" cx="509.621" cy="-783.296" rx="32.4942" ry="18"/>
<text text-anchor="middle" x="509.621" y="-779.596" font-family="Times,serif" font-size="14.00">11484</text>
</a>
</g>
</g>
<!-- 11484&#45;&gt;19190 -->
<g id="edge48" class="edge"><title>11484&#45;&gt;19190</title>
<path fill="none" stroke="black" d="M532.972,-770.421C569.072,-750.515 638.008,-712.505 673.929,-692.698"/>
</g>
<!-- 12899 -->
<g id="node22" class="node"><title>12899</title>
<g id="a_node22"><a xlink:title="6th_week">
<ellipse fill="#efff05" stroke="black" cx="434.96" cy="-1052.33" rx="32.4942" ry="18"/>
<text text-anchor="middle" x="434.96" y="-1048.63" font-family="Times,serif" font-size="14.00">12899</text>
</a>
</g>
</g>
<!-- 12899&#45;&gt;19190 -->
<g id="edge64" class="edge"><title>12899&#45;&gt;19190</title>
<path fill="none" stroke="black" d="M446.9,-1035.37C490.551,-973.337 641.211,-759.243 684.976,-697.051"/>
</g>
<!-- 3111 -->
<g id="node42" class="node"><title>3111</title>
<g id="a_node42"><a xlink:title="6th_week">
<ellipse fill="#ffffff" stroke="black" cx="249.254" cy="-1237.06" rx="28.6953" ry="18"/>
<text text-anchor="middle" x="249.254" y="-1233.36" font-family="Times,serif" font-size="14.00">3111</text>
</a>
</g>
</g>
<!-- 12899&#45;&gt;3111 -->
<g id="edge13" class="edge"><title>12899&#45;&gt;3111</title>
<path fill="none" stroke="black" d="M419.127,-1068.08C383.954,-1103.07 299.675,-1186.91 264.785,-1221.61"/>
</g>
<!-- 27252 -->
<g id="node68" class="node"><title>27252</title>
<g id="a_node68"><a xlink:title="6th_week">
<ellipse fill="grey" stroke="black" cx="325.642" cy="-1296.04" rx="32.4942" ry="18"/>
<text text-anchor="middle" x="325.642" y="-1292.34" font-family="Times,serif" font-size="14.00">27252</text>
</a>
</g>
</g>
<!-- 12899&#45;&gt;27252 -->
<g id="edge11" class="edge"><title>12899&#45;&gt;27252</title>
<path fill="none" stroke="black" d="M427.098,-1069.86C406.977,-1114.72 353.783,-1233.3 333.579,-1278.34"/>
</g>
<!-- 13766 -->
<g id="node23" class="node"><title>13766</title>
<g id="a_node23"><a xlink:title="6th_week">
<ellipse fill="#efff05" stroke="black" cx="508.493" cy="-931.878" rx="32.4942" ry="18"/>
<text text-anchor="middle" x="508.493" y="-928.178" font-family="Times,serif" font-size="14.00">13766</text>
</a>
</g>
</g>
<!-- 13766&#45;&gt;19190 -->
<g id="edge15" class="edge"><title>13766&#45;&gt;19190</title>
<path fill="none" stroke="black" d="M521.153,-914.959C555.491,-869.071 650.107,-742.631 684.381,-696.83"/>
</g>
<!-- 15220 -->
<g id="node24" class="node"><title>15220</title>
<g id="a_node24"><a xlink:title="6th_week">
<ellipse fill="#ffffff" stroke="black" cx="1071.27" cy="-681.989" rx="32.4942" ry="18"/>
<text text-anchor="middle" x="1071.27" y="-678.289" font-family="Times,serif" font-size="14.00">15220</text>
</a>
</g>
</g>
<!-- 15220&#45;&gt;19190 -->
<g id="edge28" class="edge"><title>15220&#45;&gt;19190</title>
<path fill="none" stroke="black" d="M1038.71,-681.815C967.926,-681.436 800.698,-680.54 729.738,-680.16"/>
</g>
<!-- 26322 -->
<g id="node67" class="node"><title>26322</title>
<g id="a_node67"><a xlink:title="6th_week">
<ellipse fill="#ffffff" stroke="black" cx="1377.61" cy="-679.809" rx="32.4942" ry="18"/>
<text text-anchor="middle" x="1377.61" y="-676.109" font-family="Times,serif" font-size="14.00">26322</text>
</a>
</g>
</g>
<!-- 15220&#45;&gt;26322 -->
<g id="edge68" class="edge"><title>15220&#45;&gt;26322</title>
<path fill="none" stroke="black" d="M1104.06,-681.756C1163.02,-681.336 1286.27,-680.459 1345.06,-680.04"/>
</g>
<!-- 15602 -->
<g id="node25" class="node"><title>15602</title>
<g id="a_node25"><a xlink:title="6th_week">
<ellipse fill="#efff05" stroke="black" cx="702.44" cy="-457.28" rx="32.4942" ry="18"/>
<text text-anchor="middle" x="702.44" y="-453.58" font-family="Times,serif" font-size="14.00">15602</text>
</a>
</g>
</g>
<!-- 15602&#45;&gt;19190 -->
<g id="edge50" class="edge"><title>15602&#45;&gt;19190</title>
<path fill="none" stroke="black" d="M701.994,-475.505C700.969,-517.37 698.455,-620.014 697.431,-661.82"/>
</g>
<!-- 15955 -->
<g id="node26" class="node"><title>15955</title>
<g id="a_node26"><a xlink:title="6th_week">
<ellipse fill="#efff05" stroke="black" cx="788.455" cy="-309.997" rx="32.4942" ry="18"/>
<text text-anchor="middle" x="788.455" y="-306.297" font-family="Times,serif" font-size="14.00">15955</text>
</a>
</g>
</g>
<!-- 15955&#45;&gt;19190 -->
<g id="edge34" class="edge"><title>15955&#45;&gt;19190</title>
<path fill="none" stroke="black" d="M784.044,-327.842C768.591,-390.345 717.01,-598.988 701.461,-661.885"/>
</g>
<!-- 4983 -->
<g id="node43" class="node"><title>4983</title>
<g id="a_node43"><a xlink:title="6th_week">
<ellipse fill="#efff05" stroke="black" cx="866.939" cy="-19.5126" rx="28.6953" ry="18"/>
<text text-anchor="middle" x="866.939" y="-15.8126" font-family="Times,serif" font-size="14.00">4983</text>
</a>
</g>
</g>
<!-- 15955&#45;&gt;4983 -->
<g id="edge53" class="edge"><title>15955&#45;&gt;4983</title>
<path fill="none" stroke="black" d="M793.365,-291.826C807.493,-239.535 848.132,-89.1214 862.132,-37.306"/>
</g>
<!-- 16318 -->
<g id="node27" class="node"><title>16318</title>
<g id="a_node27"><a xlink:title="6th_week">
<ellipse fill="#efff05" stroke="black" cx="622.634" cy="-873.692" rx="32.4942" ry="18"/>
<text text-anchor="middle" x="622.634" y="-869.992" font-family="Times,serif" font-size="14.00">16318</text>
</a>
</g>
</g>
<!-- 16318&#45;&gt;19190 -->
<g id="edge43" class="edge"><title>16318&#45;&gt;19190</title>
<path fill="none" stroke="black" d="M629.496,-855.815C643.66,-818.913 675.991,-734.683 690.141,-697.818"/>
</g>
<!-- 16846 -->
<g id="node28" class="node"><title>16846</title>
<g id="a_node28"><a xlink:title="6th_week">
<ellipse fill="#efff05" stroke="black" cx="384.884" cy="-678.638" rx="32.4942" ry="18"/>
<text text-anchor="middle" x="384.884" y="-674.938" font-family="Times,serif" font-size="14.00">16846</text>
</a>
</g>
</g>
<!-- 16846&#45;&gt;19190 -->
<g id="edge3" class="edge"><title>16846&#45;&gt;19190</title>
<path fill="none" stroke="black" d="M417.401,-678.778C477.198,-679.036 603.981,-679.583 664.073,-679.843"/>
</g>
<!-- 17319 -->
<g id="node29" class="node"><title>17319</title>
<g id="a_node29"><a xlink:title="6th_week">
<ellipse fill="#efff05" stroke="black" cx="941.573" cy="-396.35" rx="32.4942" ry="18"/>
<text text-anchor="middle" x="941.573" y="-392.65" font-family="Times,serif" font-size="14.00">17319</text>
</a>
</g>
</g>
<!-- 17319&#45;&gt;19190 -->
<g id="edge59" class="edge"><title>17319&#45;&gt;19190</title>
<path fill="none" stroke="black" d="M927.366,-412.825C884.137,-462.956 754.513,-613.273 711.232,-663.464"/>
</g>
<!-- 22417 -->
<g id="node63" class="node"><title>22417</title>
<g id="a_node63"><a xlink:title="6th_week">
<ellipse fill="#ff9f0f" stroke="black" cx="1140.27" cy="-163.037" rx="32.4942" ry="18"/>
<text text-anchor="middle" x="1140.27" y="-159.337" font-family="Times,serif" font-size="14.00">22417</text>
</a>
</g>
</g>
<!-- 17319&#45;&gt;22417 -->
<g id="edge21" class="edge"><title>17319&#45;&gt;22417</title>
<path fill="none" stroke="black" d="M955.545,-379.944C992.028,-337.106 1089.85,-222.243 1126.31,-179.425"/>
</g>
<!-- 17341 -->
<g id="node30" class="node"><title>17341</title>
<g id="a_node30"><a xlink:title="6th_week">
<ellipse fill="#efff05" stroke="black" cx="896.275" cy="-748.815" rx="32.4942" ry="18"/>
<text text-anchor="middle" x="896.275" y="-745.115" font-family="Times,serif" font-size="14.00">17341</text>
</a>
</g>
</g>
<!-- 17341&#45;&gt;19190 -->
<g id="edge18" class="edge"><title>17341&#45;&gt;19190</title>
<path fill="none" stroke="black" d="M868.565,-739.244C830.597,-726.131 762.794,-702.713 724.781,-689.585"/>
</g>
<!-- 18731 -->
<g id="node31" class="node"><title>18731</title>
<g id="a_node31"><a xlink:title="6th_week">
<ellipse fill="#efff05" stroke="black" cx="466.585" cy="-474.925" rx="32.4942" ry="18"/>
<text text-anchor="middle" x="466.585" y="-471.225" font-family="Times,serif" font-size="14.00">18731</text>
</a>
</g>
</g>
<!-- 18731&#45;&gt;19190 -->
<g id="edge45" class="edge"><title>18731&#45;&gt;19190</title>
<path fill="none" stroke="black" d="M483.903,-490.338C526.706,-528.433 637.098,-626.684 679.782,-664.673"/>
</g>
<!-- 19295 -->
<g id="node33" class="node"><title>19295</title>
<g id="a_node33"><a xlink:title="6th_week">
<ellipse fill="#efff05" stroke="black" cx="850.625" cy="-837.379" rx="32.4942" ry="18"/>
<text text-anchor="middle" x="850.625" y="-833.679" font-family="Times,serif" font-size="14.00">19295</text>
</a>
</g>
</g>
<!-- 19190&#45;&gt;19295 -->
<g id="edge67" class="edge"><title>19190&#45;&gt;19295</title>
<path fill="none" stroke="black" d="M712.563,-695.943C742.01,-726.11 805.528,-791.179 835.007,-821.379"/>
</g>
<!-- 20761 -->
<g id="node34" class="node"><title>20761</title>
<g id="a_node34"><a xlink:title="6th_week">
<ellipse fill="#ffffff" stroke="black" cx="348.724" cy="-478.031" rx="32.4942" ry="18"/>
<text text-anchor="middle" x="348.724" y="-474.331" font-family="Times,serif" font-size="14.00">20761</text>
</a>
</g>
</g>
<!-- 19190&#45;&gt;20761 -->
<g id="edge62" class="edge"><title>19190&#45;&gt;20761</title>
<path fill="none" stroke="black" d="M674.404,-666.89C611.399,-630.354 434.197,-527.597 371.255,-491.097"/>
</g>
<!-- 21472 -->
<g id="node35" class="node"><title>21472</title>
<g id="a_node35"><a xlink:title="6th_week">
<ellipse fill="#efff05" stroke="black" cx="934.197" cy="-549.076" rx="32.4942" ry="18"/>
<text text-anchor="middle" x="934.197" y="-545.376" font-family="Times,serif" font-size="14.00">21472</text>
</a>
</g>
</g>
<!-- 19190&#45;&gt;21472 -->
<g id="edge30" class="edge"><title>19190&#45;&gt;21472</title>
<path fill="none" stroke="black" d="M720.163,-667.194C765.512,-642.168 865.502,-586.987 910.927,-561.918"/>
</g>
<!-- 21600 -->
<g id="node36" class="node"><title>21600</title>
<g id="a_node36"><a xlink:title="6th_week">
<ellipse fill="#efff05" stroke="black" cx="933.805" cy="-877.801" rx="32.4942" ry="18"/>
<text text-anchor="middle" x="933.805" y="-874.101" font-family="Times,serif" font-size="14.00">21600</text>
</a>
</g>
</g>
<!-- 19190&#45;&gt;21600 -->
<g id="edge60" class="edge"><title>19190&#45;&gt;21600</title>
<path fill="none" stroke="black" d="M715.175,-695.179C759.257,-732 871.408,-825.681 915.553,-862.555"/>
</g>
<!-- 19190&#45;&gt;22270 -->
<g id="edge12" class="edge"><title>19190&#45;&gt;22270</title>
<path fill="none" stroke="black" d="M697.457,-697.996C699.198,-764.449 705.247,-995.486 707.005,-1062.61"/>
</g>
<!-- 22689 -->
<g id="node38" class="node"><title>22689</title>
<g id="a_node38"><a xlink:title="6th_week">
<ellipse fill="grey" stroke="black" cx="925.848" cy="-1043.51" rx="32.4942" ry="18"/>
<text text-anchor="middle" x="925.848" y="-1039.81" font-family="Times,serif" font-size="14.00">22689</text>
</a>
</g>
</g>
<!-- 19190&#45;&gt;22689 -->
<g id="edge49" class="edge"><title>19190&#45;&gt;22689</title>
<path fill="none" stroke="black" d="M707.717,-697.031C746.16,-758.093 876.734,-965.5 915.14,-1026.5"/>
</g>
<!-- 22900 -->
<g id="node39" class="node"><title>22900</title>
<g id="a_node39"><a xlink:title="6th_week">
<ellipse fill="#efff05" stroke="black" cx="611.086" cy="-988.253" rx="32.4942" ry="18"/>
<text text-anchor="middle" x="611.086" y="-984.553" font-family="Times,serif" font-size="14.00">22900</text>
</a>
</g>
</g>
<!-- 19190&#45;&gt;22900 -->
<g id="edge22" class="edge"><title>19190&#45;&gt;22900</title>
<path fill="none" stroke="black" d="M691.996,-697.891C676.814,-752.375 631.29,-915.747 616.09,-970.297"/>
</g>
<!-- 23003 -->
<g id="node40" class="node"><title>23003</title>
<g id="a_node40"><a xlink:title="6th_week">
<ellipse fill="#efff05" stroke="black" cx="318.665" cy="-824.973" rx="32.4942" ry="18"/>
<text text-anchor="middle" x="318.665" y="-821.273" font-family="Times,serif" font-size="14.00">23003</text>
</a>
</g>
</g>
<!-- 19190&#45;&gt;23003 -->
<g id="edge36" class="edge"><title>19190&#45;&gt;23003</title>
<path fill="none" stroke="black" d="M670.081,-690.296C600.447,-716.982 414.914,-788.086 345.433,-814.714"/>
</g>
<!-- 2495 -->
<g id="node41" class="node"><title>2495</title>
<g id="a_node41"><a xlink:title="6th_week">
<ellipse fill="#efff05" stroke="black" cx="410.142" cy="-610.629" rx="28.6953" ry="18"/>
<text text-anchor="middle" x="410.142" y="-606.929" font-family="Times,serif" font-size="14.00">2495</text>
</a>
</g>
</g>
<!-- 19190&#45;&gt;2495 -->
<g id="edge54" class="edge"><title>19190&#45;&gt;2495</title>
<path fill="none" stroke="black" d="M667.1,-672.759C610.995,-659.193 490.725,-630.113 437.012,-617.126"/>
</g>
<!-- 6087 -->
<g id="node44" class="node"><title>6087</title>
<g id="a_node44"><a xlink:title="6th_week">
<ellipse fill="#efff05" stroke="black" cx="1031.62" cy="-520.999" rx="28.6953" ry="18"/>
<text text-anchor="middle" x="1031.62" y="-517.299" font-family="Times,serif" font-size="14.00">6087</text>
</a>
</g>
</g>
<!-- 19190&#45;&gt;6087 -->
<g id="edge27" class="edge"><title>19190&#45;&gt;6087</title>
<path fill="none" stroke="black" d="M721.864,-668.165C784.42,-638.444 947.602,-560.915 1008.37,-532.044"/>
</g>
<!-- 6314 -->
<g id="node45" class="node"><title>6314</title>
<g id="a_node45"><a xlink:title="6th_week">
<ellipse fill="#ffffff" stroke="black" cx="887.887" cy="-658.682" rx="28.6953" ry="18"/>
<text text-anchor="middle" x="887.887" y="-654.982" font-family="Times,serif" font-size="14.00">6314</text>
</a>
</g>
</g>
<!-- 19190&#45;&gt;6314 -->
<g id="edge10" class="edge"><title>19190&#45;&gt;6314</title>
<path fill="none" stroke="black" d="M728.938,-676.419C765.451,-672.345 824.652,-665.738 859.571,-661.841"/>
</g>
<!-- 8598 -->
<g id="node49" class="node"><title>8598</title>
<g id="a_node49"><a xlink:title="6th_week">
<ellipse fill="#efff05" stroke="black" cx="433.397" cy="-808.409" rx="28.6953" ry="18"/>
<text text-anchor="middle" x="433.397" y="-804.709" font-family="Times,serif" font-size="14.00">8598</text>
</a>
</g>
</g>
<!-- 19190&#45;&gt;8598 -->
<g id="edge8" class="edge"><title>19190&#45;&gt;8598</title>
<path fill="none" stroke="black" d="M672.188,-692.067C621.181,-716.918 505.182,-773.435 456.054,-797.37"/>
</g>
<!-- 9535 -->
<g id="node50" class="node"><title>9535</title>
<g id="a_node50"><a xlink:title="6th_week">
<ellipse fill="#efff05" stroke="black" cx="508.11" cy="-598.417" rx="28.6953" ry="18"/>
<text text-anchor="middle" x="508.11" y="-594.717" font-family="Times,serif" font-size="14.00">9535</text>
</a>
</g>
</g>
<!-- 19190&#45;&gt;9535 -->
<g id="edge29" class="edge"><title>19190&#45;&gt;9535</title>
<path fill="none" stroke="black" d="M671.119,-668.814C634.344,-652.932 567.468,-624.051 531.879,-608.681"/>
</g>
<!-- 12815 -->
<g id="node52" class="node"><title>12815</title>
<g id="a_node52"><a xlink:title="6th_week">
<ellipse fill="#ffffff" stroke="black" cx="858.886" cy="-942.564" rx="32.4942" ry="18"/>
<text text-anchor="middle" x="858.886" y="-938.864" font-family="Times,serif" font-size="14.00">12815</text>
</a>
</g>
</g>
<!-- 19190&#45;&gt;12815 -->
<g id="edge42" class="edge"><title>19190&#45;&gt;12815</title>
<path fill="none" stroke="black" d="M707.609,-697.213C736.944,-744.791 818.842,-877.619 848.224,-925.272"/>
</g>
<!-- 13831 -->
<g id="node53" class="node"><title>13831</title>
<g id="a_node53"><a xlink:title="6th_week">
<ellipse fill="#efff05" stroke="black" cx="1032.73" cy="-858.149" rx="32.4942" ry="18"/>
<text text-anchor="middle" x="1032.73" y="-854.449" font-family="Times,serif" font-size="14.00">13831</text>
</a>
</g>
</g>
<!-- 19190&#45;&gt;13831 -->
<g id="edge6" class="edge"><title>19190&#45;&gt;13831</title>
<path fill="none" stroke="black" d="M720.595,-692.513C782.24,-725.225 947.532,-812.938 1009.15,-845.635"/>
</g>
<!-- 18663 -->
<g id="node55" class="node"><title>18663</title>
<g id="a_node55"><a xlink:title="6th_week">
<ellipse fill="#efff05" stroke="black" cx="779.368" cy="-485.209" rx="32.4942" ry="18"/>
<text text-anchor="middle" x="779.368" y="-481.509" font-family="Times,serif" font-size="14.00">18663</text>
</a>
</g>
</g>
<!-- 19190&#45;&gt;18663 -->
<g id="edge51" class="edge"><title>19190&#45;&gt;18663</title>
<path fill="none" stroke="black" d="M704.442,-662.356C720.087,-625.367 756.187,-540.015 771.869,-502.939"/>
</g>
<!-- 19449 -->
<g id="node56" class="node"><title>19449</title>
<g id="a_node56"><a xlink:title="6th_week">
<ellipse fill="grey" stroke="black" cx="608.921" cy="-932.691" rx="32.4942" ry="18"/>
<text text-anchor="middle" x="608.921" y="-928.991" font-family="Times,serif" font-size="14.00">19449</text>
</a>
</g>
</g>
<!-- 19190&#45;&gt;19449 -->
<g id="edge35" class="edge"><title>19190&#45;&gt;19449</title>
<path fill="none" stroke="black" d="M690.793,-697.755C674.624,-744.154 631.268,-868.564 615.107,-914.941"/>
</g>
<!-- 20510 -->
<g id="node57" class="node"><title>20510</title>
<g id="a_node57"><a xlink:title="6th_week">
<ellipse fill="#efff05" stroke="black" cx="620.761" cy="-405.975" rx="32.4942" ry="18"/>
<text text-anchor="middle" x="620.761" y="-402.275" font-family="Times,serif" font-size="14.00">20510</text>
</a>
</g>
</g>
<!-- 19190&#45;&gt;20510 -->
<g id="edge66" class="edge"><title>19190&#45;&gt;20510</title>
<path fill="none" stroke="black" d="M691.985,-662.006C678.173,-612.357 639.614,-473.748 625.781,-424.02"/>
</g>
<!-- 20957 -->
<g id="node58" class="node"><title>20957</title>
<g id="a_node58"><a xlink:title="6th_week">
<ellipse fill="#efff05" stroke="black" cx="543.9" cy="-433.93" rx="32.4942" ry="18"/>
<text text-anchor="middle" x="543.9" y="-430.23" font-family="Times,serif" font-size="14.00">20957</text>
</a>
</g>
</g>
<!-- 19190&#45;&gt;20957 -->
<g id="edge9" class="edge"><title>19190&#45;&gt;20957</title>
<path fill="none" stroke="black" d="M686.221,-662.683C658.113,-617.505 582.747,-496.369 554.653,-451.213"/>
</g>
<!-- 21651 -->
<g id="node60" class="node"><title>21651</title>
<g id="a_node60"><a xlink:title="6th_week">
<ellipse fill="#efff05" stroke="black" cx="441.616" cy="-883.319" rx="32.4942" ry="18"/>
<text text-anchor="middle" x="441.616" y="-879.619" font-family="Times,serif" font-size="14.00">21651</text>
</a>
</g>
</g>
<!-- 19190&#45;&gt;21651 -->
<g id="edge32" class="edge"><title>19190&#45;&gt;21651</title>
<path fill="none" stroke="black" d="M678.208,-694.936C630.982,-732.539 507.677,-830.719 460.421,-868.345"/>
</g>
<!-- 21993 -->
<g id="node61" class="node"><title>21993</title>
<g id="a_node61"><a xlink:title="6th_week">
<ellipse fill="#efff05" stroke="black" cx="432.705" cy="-542.23" rx="32.4942" ry="18"/>
<text text-anchor="middle" x="432.705" y="-538.53" font-family="Times,serif" font-size="14.00">21993</text>
</a>
</g>
</g>
<!-- 19190&#45;&gt;21993 -->
<g id="edge1" class="edge"><title>19190&#45;&gt;21993</title>
<path fill="none" stroke="black" d="M673.067,-667.517C622.75,-641.29 506.481,-580.686 456.38,-554.57"/>
</g>
<!-- 22201 -->
<g id="node62" class="node"><title>22201</title>
<g id="a_node62"><a xlink:title="6th_week">
<ellipse fill="#efff05" stroke="black" cx="690.002" cy="-955.196" rx="32.4942" ry="18"/>
<text text-anchor="middle" x="690.002" y="-951.496" font-family="Times,serif" font-size="14.00">22201</text>
</a>
</g>
</g>
<!-- 19190&#45;&gt;22201 -->
<g id="edge58" class="edge"><title>19190&#45;&gt;22201</title>
<path fill="none" stroke="black" d="M696.528,-698.042C695.262,-747.909 691.729,-887.127 690.462,-937.073"/>
</g>
<!-- 25779 -->
<g id="node65" class="node"><title>25779</title>
<g id="a_node65"><a xlink:title="6th_week">
<ellipse fill="#efff05" stroke="black" cx="705.137" cy="-390.899" rx="32.4942" ry="18"/>
<text text-anchor="middle" x="705.137" y="-387.199" font-family="Times,serif" font-size="14.00">25779</text>
</a>
</g>
</g>
<!-- 19190&#45;&gt;25779 -->
<g id="edge24" class="edge"><title>19190&#45;&gt;25779</title>
<path fill="none" stroke="black" d="M697.496,-661.901C698.96,-609.985 703.164,-460.883 704.627,-408.975"/>
</g>
<!-- 26196 -->
<g id="node66" class="node"><title>26196</title>
<g id="a_node66"><a xlink:title="6th_week">
<ellipse fill="#efff05" stroke="black" cx="865.179" cy="-444.463" rx="32.4942" ry="18"/>
<text text-anchor="middle" x="865.179" y="-440.763" font-family="Times,serif" font-size="14.00">26196</text>
</a>
</g>
</g>
<!-- 19190&#45;&gt;26196 -->
<g id="edge19" class="edge"><title>19190&#45;&gt;26196</title>
<path fill="none" stroke="black" d="M709.082,-663.047C740.115,-619.591 822.28,-504.534 853.192,-461.248"/>
</g>
<!-- 7262 -->
<g id="node46" class="node"><title>7262</title>
<g id="a_node46"><a xlink:title="6th_week">
<ellipse fill="#efff05" stroke="black" cx="121.947" cy="-338.981" rx="28.6953" ry="18"/>
<text text-anchor="middle" x="121.947" y="-335.281" font-family="Times,serif" font-size="14.00">7262</text>
</a>
</g>
</g>
<!-- 20761&#45;&gt;7262 -->
<g id="edge41" class="edge"><title>20761&#45;&gt;7262</title>
<path fill="none" stroke="black" d="M326.567,-464.446C282.655,-437.521 185.155,-377.738 142.546,-351.612"/>
</g>
<!-- 15144 -->
<g id="node54" class="node"><title>15144</title>
<g id="a_node54"><a xlink:title="6th_week">
<ellipse fill="#efff05" stroke="black" cx="1104.84" cy="-1312.32" rx="32.4942" ry="18"/>
<text text-anchor="middle" x="1104.84" y="-1308.62" font-family="Times,serif" font-size="14.00">15144</text>
</a>
</g>
</g>
<!-- 22689&#45;&gt;15144 -->
<g id="edge14" class="edge"><title>22689&#45;&gt;15144</title>
<path fill="none" stroke="black" d="M937.317,-1060.74C969.646,-1109.29 1061.25,-1246.86 1093.47,-1295.24"/>
</g>
<!-- 21375 -->
<g id="node59" class="node"><title>21375</title>
<g id="a_node59"><a xlink:title="6th_week">
<ellipse fill="#ffffff" stroke="black" cx="62.0005" cy="-918.882" rx="32.4942" ry="18"/>
<text text-anchor="middle" x="62.0005" y="-915.182" font-family="Times,serif" font-size="14.00">21375</text>
</a>
</g>
</g>
<!-- 23003&#45;&gt;21375 -->
<g id="edge47" class="edge"><title>23003&#45;&gt;21375</title>
<path fill="none" stroke="black" d="M291.198,-835.023C241.797,-853.098 138.527,-890.882 89.2707,-908.904"/>
</g>
<!-- 25121 -->
<g id="node64" class="node"><title>25121</title>
<g id="a_node64"><a xlink:title="6th_week">
<ellipse fill="#efff05" stroke="black" cx="1304.5" cy="-393.424" rx="32.4942" ry="18"/>
<text text-anchor="middle" x="1304.5" y="-389.724" font-family="Times,serif" font-size="14.00">25121</text>
</a>
</g>
</g>
<!-- 6087&#45;&gt;25121 -->
<g id="edge7" class="edge"><title>6087&#45;&gt;25121</title>
<path fill="none" stroke="black" d="M1054.88,-510.122C1105.79,-486.321 1226.72,-429.787 1279.33,-405.192"/>
</g>
<!-- 7653 -->
<g id="node47" class="node"><title>7653</title>
<g id="a_node47"><a xlink:title="6th_week">
<ellipse fill="#efff05" stroke="black" cx="1253.12" cy="-1538.88" rx="28.6953" ry="18"/>
<text text-anchor="middle" x="1253.12" y="-1535.18" font-family="Times,serif" font-size="14.00">7653</text>
</a>
</g>
</g>
<!-- 7653&#45;&gt;15144 -->
<g id="edge4" class="edge"><title>7653&#45;&gt;15144</title>
<path fill="none" stroke="black" d="M1242.22,-1522.22C1214.86,-1480.42 1143.55,-1371.46 1115.96,-1329.31"/>
</g>
<!-- 2738 -->
<g id="node69" class="node"><title>2738</title>
<g id="a_node69"><a xlink:title="6th_week">
<ellipse fill="#20ff05" stroke="black" cx="1300.33" cy="-988.87" rx="28.6953" ry="18"/>
<text text-anchor="middle" x="1300.33" y="-985.17" font-family="Times,serif" font-size="14.00">2738</text>
</a>
</g>
</g>
<!-- 13831&#45;&gt;2738 -->
<g id="edge39" class="edge"><title>13831&#45;&gt;2738</title>
<path fill="none" stroke="black" d="M1057.43,-870.213C1109.05,-895.432 1227.73,-953.405 1277.6,-977.767"/>
</g>
</g>
</svg>
