<?xml version="1.0" encoding="UTF-8" standalone="no"?>
<!DOCTYPE svg PUBLIC "-//W3C//DTD SVG 1.1//EN"
 "http://www.w3.org/Graphics/SVG/1.1/DTD/svg11.dtd">
<!-- Generated by graphviz version 2.38.0 (20140413.2041)
 -->
<!-- Title: %3 Pages: 1 -->
<svg width="1282pt" height="1545pt"
 viewBox="0.00 0.00 1282.00 1545.00" xmlns="http://www.w3.org/2000/svg" xmlns:xlink="http://www.w3.org/1999/xlink">
<g id="graph0" class="graph" transform="scale(1 1) rotate(0) translate(4 1541)">
<title>%3</title>
<polygon fill="white" stroke="none" points="-4,4 -4,-1541 1278,-1541 1278,4 -4,4"/>
<!-- 1033 -->
<g id="node1" class="node"><title>1033</title>
<g id="a_node1"><a xlink:title="PRE">
<ellipse fill="#20ff05" stroke="black" cx="274.912" cy="-643.806" rx="28.6953" ry="18"/>
<text text-anchor="middle" x="274.912" y="-640.106" font-family="Times,serif" font-size="14.00">1033</text>
</a>
</g>
</g>
<!-- 17099 -->
<g id="node14" class="node"><title>17099</title>
<g id="a_node14"><a xlink:title="PRE">
<ellipse fill="#20ff05" stroke="black" cx="395.101" cy="-643.797" rx="32.4942" ry="18"/>
<text text-anchor="middle" x="395.101" y="-640.097" font-family="Times,serif" font-size="14.00">17099</text>
</a>
</g>
</g>
<!-- 1033&#45;&gt;17099 -->
<g id="edge36" class="edge"><title>1033&#45;&gt;17099</title>
<path fill="none" stroke="black" d="M303.701,-643.804C321.34,-643.802 343.972,-643.801 362.302,-643.799"/>
</g>
<!-- 3148 -->
<g id="node2" class="node"><title>3148</title>
<g id="a_node2"><a xlink:title="PRE">
<ellipse fill="grey" stroke="black" cx="291.393" cy="-573.745" rx="28.6953" ry="18"/>
<text text-anchor="middle" x="291.393" y="-570.045" font-family="Times,serif" font-size="14.00">3148</text>
</a>
</g>
</g>
<!-- 3148&#45;&gt;17099 -->
<g id="edge26" class="edge"><title>3148&#45;&gt;17099</title>
<path fill="none" stroke="black" d="M310.9,-586.921C328.972,-599.128 355.771,-617.231 374.258,-629.718"/>
</g>
<!-- 4648 -->
<g id="node3" class="node"><title>4648</title>
<g id="a_node3"><a xlink:title="PRE">
<ellipse fill="#20ff05" stroke="black" cx="214.84" cy="-293.47" rx="28.6953" ry="18"/>
<text text-anchor="middle" x="214.84" y="-289.77" font-family="Times,serif" font-size="14.00">4648</text>
</a>
</g>
</g>
<!-- 5196 -->
<g id="node5" class="node"><title>5196</title>
<g id="a_node5"><a xlink:title="PRE">
<ellipse fill="#20ff05" stroke="black" cx="317.328" cy="-439.286" rx="28.6953" ry="18"/>
<text text-anchor="middle" x="317.328" y="-435.586" font-family="Times,serif" font-size="14.00">5196</text>
</a>
</g>
</g>
<!-- 4648&#45;&gt;5196 -->
<g id="edge28" class="edge"><title>4648&#45;&gt;5196</title>
<path fill="none" stroke="black" d="M226.597,-310.197C246.366,-338.324 286.031,-394.758 305.708,-422.754"/>
</g>
<!-- 6720 -->
<g id="node7" class="node"><title>6720</title>
<g id="a_node7"><a xlink:title="PRE">
<ellipse fill="#20ff05" stroke="black" cx="134.557" cy="-149.269" rx="28.6953" ry="18"/>
<text text-anchor="middle" x="134.557" y="-145.569" font-family="Times,serif" font-size="14.00">6720</text>
</a>
</g>
</g>
<!-- 4648&#45;&gt;6720 -->
<g id="edge19" class="edge"><title>4648&#45;&gt;6720</title>
<path fill="none" stroke="black" d="M205.316,-276.362C189.864,-248.609 159.512,-194.093 144.069,-166.355"/>
</g>
<!-- 15519 -->
<g id="node12" class="node"><title>15519</title>
<g id="a_node12"><a xlink:title="PRE">
<ellipse fill="#20ff05" stroke="black" cx="103.591" cy="-224.092" rx="32.4942" ry="18"/>
<text text-anchor="middle" x="103.591" y="-220.392" font-family="Times,serif" font-size="14.00">15519</text>
</a>
</g>
</g>
<!-- 4648&#45;&gt;15519 -->
<g id="edge3" class="edge"><title>4648&#45;&gt;15519</title>
<path fill="none" stroke="black" d="M194.436,-280.745C174.865,-268.54 145.412,-250.172 125.388,-237.685"/>
</g>
<!-- 4861 -->
<g id="node4" class="node"><title>4861</title>
<g id="a_node4"><a xlink:title="3rd_week">
<ellipse fill="#20ff05" stroke="black" cx="223.524" cy="-366.838" rx="28.6953" ry="18"/>
<text text-anchor="middle" x="223.524" y="-363.138" font-family="Times,serif" font-size="14.00">4861</text>
</a>
</g>
</g>
<!-- 4861&#45;&gt;5196 -->
<g id="edge31" class="edge"><title>4861&#45;&gt;5196</title>
<path fill="none" stroke="black" d="M241.61,-380.807C258.114,-393.553 282.39,-412.303 298.977,-425.113"/>
</g>
<!-- 6603 -->
<g id="node6" class="node"><title>6603</title>
<g id="a_node6"><a xlink:title="Day_0,PRE">
<ellipse fill="#20ff05" stroke="black" cx="351.29" cy="-279.79" rx="28.6832" ry="18"/>
<ellipse fill="none" stroke="black" cx="351.29" cy="-279.79" rx="32.6952" ry="22"/>
<text text-anchor="middle" x="351.29" y="-276.09" font-family="Times,serif" font-size="14.00">6603</text>
</a>
</g>
</g>
<!-- 5196&#45;&gt;6603 -->
<g id="edge1" class="edge"><title>5196&#45;&gt;6603</title>
<path fill="none" stroke="black" d="M321.157,-421.3C327.42,-391.889 339.831,-333.603 346.608,-301.781"/>
</g>
<!-- 5196&#45;&gt;17099 -->
<g id="edge22" class="edge"><title>5196&#45;&gt;17099</title>
<path fill="none" stroke="black" d="M324.093,-457.077C338.802,-495.755 373.55,-587.129 388.295,-625.901"/>
</g>
<!-- 10910 -->
<g id="node9" class="node"><title>10910</title>
<g id="a_node9"><a xlink:title="Day_0">
<ellipse fill="#20ff05" stroke="black" cx="340.504" cy="-139.884" rx="32.4942" ry="18"/>
<text text-anchor="middle" x="340.504" y="-136.184" font-family="Times,serif" font-size="14.00">10910</text>
</a>
</g>
</g>
<!-- 6603&#45;&gt;10910 -->
<g id="edge24" class="edge"><title>6603&#45;&gt;10910</title>
<path fill="none" stroke="black" d="M349.581,-257.621C347.454,-230.038 343.864,-183.466 341.896,-157.945"/>
</g>
<!-- 27842 -->
<g id="node27" class="node"><title>27842</title>
<g id="a_node27"><a xlink:title="Day_0">
<ellipse fill="#20ff05" stroke="black" cx="418.417" cy="-156.637" rx="32.4942" ry="18"/>
<text text-anchor="middle" x="418.417" y="-152.937" font-family="Times,serif" font-size="14.00">27842</text>
</a>
</g>
</g>
<!-- 6603&#45;&gt;27842 -->
<g id="edge17" class="edge"><title>6603&#45;&gt;27842</title>
<path fill="none" stroke="black" d="M362.677,-258.899C375.695,-235.017 396.767,-196.357 408.931,-174.041"/>
</g>
<!-- 15143 -->
<g id="node11" class="node"><title>15143</title>
<g id="a_node11"><a xlink:title="PRE">
<ellipse fill="#20ff05" stroke="black" cx="108.62" cy="-18.3173" rx="32.4942" ry="18"/>
<text text-anchor="middle" x="108.62" y="-14.6173" font-family="Times,serif" font-size="14.00">15143</text>
</a>
</g>
</g>
<!-- 6720&#45;&gt;15143 -->
<g id="edge32" class="edge"><title>6720&#45;&gt;15143</title>
<path fill="none" stroke="black" d="M131.004,-131.336C126.065,-106.399 117.173,-61.4998 112.212,-36.4546"/>
</g>
<!-- 26319 -->
<g id="node30" class="node"><title>26319</title>
<g id="a_node30"><a xlink:title="PRE">
<ellipse fill="grey" stroke="black" cx="32.0787" cy="-63.4506" rx="32.4942" ry="18"/>
<text text-anchor="middle" x="32.0787" y="-59.7506" font-family="Times,serif" font-size="14.00">26319</text>
</a>
</g>
</g>
<!-- 6720&#45;&gt;26319 -->
<g id="edge27" class="edge"><title>6720&#45;&gt;26319</title>
<path fill="none" stroke="black" d="M117.173,-134.711C98.5565,-119.122 69.1489,-94.4946 50.2392,-78.6589"/>
</g>
<!-- 10100 -->
<g id="node8" class="node"><title>10100</title>
<g id="a_node8"><a xlink:title="PRE">
<ellipse fill="#20ff05" stroke="black" cx="502.185" cy="-533.089" rx="32.4942" ry="18"/>
<text text-anchor="middle" x="502.185" y="-529.389" font-family="Times,serif" font-size="14.00">10100</text>
</a>
</g>
</g>
<!-- 10100&#45;&gt;17099 -->
<g id="edge47" class="edge"><title>10100&#45;&gt;17099</title>
<path fill="none" stroke="black" d="M486.384,-549.424C466.022,-570.476 430.842,-606.846 410.618,-627.754"/>
</g>
<!-- 17186 -->
<g id="node15" class="node"><title>17186</title>
<g id="a_node15"><a xlink:title="PRE">
<ellipse fill="grey" stroke="black" cx="596.487" cy="-433.007" rx="32.4942" ry="18"/>
<text text-anchor="middle" x="596.487" y="-429.307" font-family="Times,serif" font-size="14.00">17186</text>
</a>
</g>
</g>
<!-- 10100&#45;&gt;17186 -->
<g id="edge13" class="edge"><title>10100&#45;&gt;17186</title>
<path fill="none" stroke="black" d="M517.336,-517.009C534.934,-498.333 563.791,-467.706 581.373,-449.047"/>
</g>
<!-- 12217 -->
<g id="node10" class="node"><title>12217</title>
<g id="a_node10"><a xlink:title="PRE">
<ellipse fill="#20ff05" stroke="black" cx="514.69" cy="-671.588" rx="32.4942" ry="18"/>
<text text-anchor="middle" x="514.69" y="-667.888" font-family="Times,serif" font-size="14.00">12217</text>
</a>
</g>
</g>
<!-- 12217&#45;&gt;17099 -->
<g id="edge14" class="edge"><title>12217&#45;&gt;17099</title>
<path fill="none" stroke="black" d="M484.513,-664.575C466.384,-660.362 443.396,-655.02 425.268,-650.807"/>
</g>
<!-- 16131 -->
<g id="node13" class="node"><title>16131</title>
<g id="a_node13"><a xlink:title="PRE">
<ellipse fill="#20ff05" stroke="black" cx="293.827" cy="-724.27" rx="32.4942" ry="18"/>
<text text-anchor="middle" x="293.827" y="-720.57" font-family="Times,serif" font-size="14.00">16131</text>
</a>
</g>
</g>
<!-- 16131&#45;&gt;17099 -->
<g id="edge30" class="edge"><title>16131&#45;&gt;17099</title>
<path fill="none" stroke="black" d="M312.876,-709.134C331.096,-694.655 358.402,-672.958 376.479,-658.594"/>
</g>
<!-- 18070 -->
<g id="node16" class="node"><title>18070</title>
<g id="a_node16"><a xlink:title="Day_0">
<ellipse fill="#20ff05" stroke="black" cx="198.659" cy="-679.36" rx="32.4942" ry="18"/>
<text text-anchor="middle" x="198.659" y="-675.66" font-family="Times,serif" font-size="14.00">18070</text>
</a>
</g>
</g>
<!-- 17099&#45;&gt;18070 -->
<g id="edge45" class="edge"><title>17099&#45;&gt;18070</title>
<path fill="none" stroke="black" d="M363.974,-649.432C327.19,-656.091 266.359,-667.104 229.64,-673.751"/>
</g>
<!-- 21010 -->
<g id="node19" class="node"><title>21010</title>
<g id="a_node19"><a xlink:title="PRE">
<ellipse fill="#07ffd1" stroke="black" cx="353.384" cy="-526.618" rx="32.4942" ry="18"/>
<text text-anchor="middle" x="353.384" y="-522.918" font-family="Times,serif" font-size="14.00">21010</text>
</a>
</g>
</g>
<!-- 17099&#45;&gt;21010 -->
<g id="edge46" class="edge"><title>17099&#45;&gt;21010</title>
<path fill="none" stroke="black" d="M388.765,-626C380.924,-603.975 367.648,-566.684 359.779,-544.582"/>
</g>
<!-- 22732 -->
<g id="node20" class="node"><title>22732</title>
<g id="a_node20"><a xlink:title="PRE">
<ellipse fill="#20ff05" stroke="black" cx="368.963" cy="-769.265" rx="32.4942" ry="18"/>
<text text-anchor="middle" x="368.963" y="-765.565" font-family="Times,serif" font-size="14.00">22732</text>
</a>
</g>
</g>
<!-- 17099&#45;&gt;22732 -->
<g id="edge35" class="edge"><title>17099&#45;&gt;22732</title>
<path fill="none" stroke="black" d="M391.356,-661.773C386.387,-685.625 377.666,-727.487 372.701,-751.322"/>
</g>
<!-- 23741 -->
<g id="node23" class="node"><title>23741</title>
<g id="a_node23"><a xlink:title="6th_week">
<ellipse fill="#20ff05" stroke="black" cx="547.26" cy="-823.437" rx="32.4942" ry="18"/>
<text text-anchor="middle" x="547.26" y="-819.737" font-family="Times,serif" font-size="14.00">23741</text>
</a>
</g>
</g>
<!-- 17099&#45;&gt;23741 -->
<g id="edge34" class="edge"><title>17099&#45;&gt;23741</title>
<path fill="none" stroke="black" d="M409.143,-660.375C438.13,-694.597 504.294,-772.711 533.252,-806.899"/>
</g>
<!-- 23839 -->
<g id="node24" class="node"><title>23839</title>
<g id="a_node24"><a xlink:title="PRE">
<ellipse fill="grey" stroke="black" cx="444.438" cy="-751.998" rx="32.4942" ry="18"/>
<text text-anchor="middle" x="444.438" y="-748.298" font-family="Times,serif" font-size="14.00">23839</text>
</a>
</g>
</g>
<!-- 17099&#45;&gt;23839 -->
<g id="edge44" class="edge"><title>17099&#45;&gt;23839</title>
<path fill="none" stroke="black" d="M403.248,-661.664C412.444,-681.832 427.309,-714.433 436.442,-734.464"/>
</g>
<!-- 24311 -->
<g id="node26" class="node"><title>24311</title>
<g id="a_node26"><a xlink:title="Day_0">
<ellipse fill="#20ff05" stroke="black" cx="428.529" cy="-520.576" rx="32.4942" ry="18"/>
<text text-anchor="middle" x="428.529" y="-516.876" font-family="Times,serif" font-size="14.00">24311</text>
</a>
</g>
</g>
<!-- 17099&#45;&gt;24311 -->
<g id="edge41" class="edge"><title>17099&#45;&gt;24311</title>
<path fill="none" stroke="black" d="M399.961,-625.88C406.299,-602.518 417.322,-561.888 423.662,-538.515"/>
</g>
<!-- 28881 -->
<g id="node28" class="node"><title>28881</title>
<g id="a_node28"><a xlink:title="PRE">
<ellipse fill="#20ff05" stroke="black" cx="513.478" cy="-600.972" rx="32.4942" ry="18"/>
<text text-anchor="middle" x="513.478" y="-597.272" font-family="Times,serif" font-size="14.00">28881</text>
</a>
</g>
</g>
<!-- 17099&#45;&gt;28881 -->
<g id="edge12" class="edge"><title>17099&#45;&gt;28881</title>
<path fill="none" stroke="black" d="M422.556,-633.864C441.681,-626.946 467.08,-617.757 486.172,-610.851"/>
</g>
<!-- 18826 -->
<g id="node18" class="node"><title>18826</title>
<g id="a_node18"><a xlink:title="Day_0">
<ellipse fill="grey" stroke="black" cx="69.9746" cy="-729.849" rx="32.4942" ry="18"/>
<text text-anchor="middle" x="69.9746" y="-726.149" font-family="Times,serif" font-size="14.00">18826</text>
</a>
</g>
</g>
<!-- 18070&#45;&gt;18826 -->
<g id="edge9" class="edge"><title>18070&#45;&gt;18826</title>
<path fill="none" stroke="black" d="M171.995,-689.822C149.91,-698.487 118.68,-710.74 96.6038,-719.401"/>
</g>
<!-- 23224 -->
<g id="node21" class="node"><title>23224</title>
<g id="a_node21"><a xlink:title="Day_0">
<ellipse fill="#20ff05" stroke="black" cx="60.2101" cy="-677.07" rx="32.4942" ry="18"/>
<text text-anchor="middle" x="60.2101" y="-673.37" font-family="Times,serif" font-size="14.00">23224</text>
</a>
</g>
</g>
<!-- 18070&#45;&gt;23224 -->
<g id="edge5" class="edge"><title>18070&#45;&gt;23224</title>
<path fill="none" stroke="black" d="M165.848,-678.817C143.778,-678.452 114.805,-677.973 92.785,-677.609"/>
</g>
<!-- 23662 -->
<g id="node22" class="node"><title>23662</title>
<g id="a_node22"><a xlink:title="Day_0">
<ellipse fill="#20ff05" stroke="black" cx="74.9923" cy="-621.892" rx="32.4942" ry="18"/>
<text text-anchor="middle" x="74.9923" y="-618.192" font-family="Times,serif" font-size="14.00">23662</text>
</a>
</g>
</g>
<!-- 18070&#45;&gt;23662 -->
<g id="edge4" class="edge"><title>18070&#45;&gt;23662</title>
<path fill="none" stroke="black" d="M173.633,-667.731C152.177,-657.76 121.426,-643.47 99.9808,-633.505"/>
</g>
<!-- 24038 -->
<g id="node25" class="node"><title>24038</title>
<g id="a_node25"><a xlink:title="Day_0">
<ellipse fill="#20ff05" stroke="black" cx="104.23" cy="-776.92" rx="32.4942" ry="18"/>
<text text-anchor="middle" x="104.23" y="-773.22" font-family="Times,serif" font-size="14.00">24038</text>
</a>
</g>
</g>
<!-- 18070&#45;&gt;24038 -->
<g id="edge6" class="edge"><title>18070&#45;&gt;24038</title>
<path fill="none" stroke="black" d="M183.066,-695.47C165.569,-713.546 137.351,-742.7 119.846,-760.786"/>
</g>
<!-- 18252 -->
<g id="node17" class="node"><title>18252</title>
<g id="a_node17"><a xlink:title="6th_week">
<ellipse fill="#20ff05" stroke="black" cx="1067.64" cy="-739.29" rx="32.4942" ry="18"/>
<text text-anchor="middle" x="1067.64" y="-735.59" font-family="Times,serif" font-size="14.00">18252</text>
</a>
</g>
</g>
<!-- 24001 -->
<g id="node29" class="node"><title>24001</title>
<g id="a_node29"><a xlink:title="6th_week">
<ellipse fill="#20ff05" stroke="black" cx="953.384" cy="-814.782" rx="32.4942" ry="18"/>
<text text-anchor="middle" x="953.384" y="-811.082" font-family="Times,serif" font-size="14.00">24001</text>
</a>
</g>
</g>
<!-- 18252&#45;&gt;24001 -->
<g id="edge20" class="edge"><title>18252&#45;&gt;24001</title>
<path fill="none" stroke="black" d="M1046.68,-753.137C1026.2,-766.673 995.167,-787.175 974.594,-800.768"/>
</g>
<!-- 30575 -->
<g id="node34" class="node"><title>30575</title>
<g id="a_node34"><a xlink:title="6th_week">
<ellipse fill="#20ff05" stroke="black" cx="750.414" cy="-821.445" rx="32.4942" ry="18"/>
<text text-anchor="middle" x="750.414" y="-817.745" font-family="Times,serif" font-size="14.00">30575</text>
</a>
</g>
</g>
<!-- 23741&#45;&gt;30575 -->
<g id="edge16" class="edge"><title>23741&#45;&gt;30575</title>
<path fill="none" stroke="black" d="M579.9,-823.117C617.811,-822.745 679.979,-822.135 717.855,-821.764"/>
</g>
<!-- 19483 -->
<g id="node37" class="node"><title>19483</title>
<g id="a_node37"><a xlink:title="6th_week">
<ellipse fill="#20ff05" stroke="black" cx="547.955" cy="-1044.1" rx="32.4942" ry="18"/>
<text text-anchor="middle" x="547.955" y="-1040.4" font-family="Times,serif" font-size="14.00">19483</text>
</a>
</g>
</g>
<!-- 23741&#45;&gt;19483 -->
<g id="edge18" class="edge"><title>23741&#45;&gt;19483</title>
<path fill="none" stroke="black" d="M547.317,-841.495C547.447,-882.874 547.767,-984.178 547.898,-1025.8"/>
</g>
<!-- 10705 -->
<g id="node31" class="node"><title>10705</title>
<g id="a_node31"><a xlink:title="6th_week">
<ellipse fill="#20ff05" stroke="black" cx="1022.73" cy="-923.811" rx="32.4942" ry="18"/>
<text text-anchor="middle" x="1022.73" y="-920.111" font-family="Times,serif" font-size="14.00">10705</text>
</a>
</g>
</g>
<!-- 24001&#45;&gt;10705 -->
<g id="edge2" class="edge"><title>24001&#45;&gt;10705</title>
<path fill="none" stroke="black" d="M964.22,-831.818C977.171,-852.181 998.724,-886.066 1011.74,-906.535"/>
</g>
<!-- 12171 -->
<g id="node32" class="node"><title>12171</title>
<g id="a_node32"><a xlink:title="6th_week">
<ellipse fill="grey" stroke="black" cx="1067.03" cy="-878.984" rx="32.4942" ry="18"/>
<text text-anchor="middle" x="1067.03" y="-875.284" font-family="Times,serif" font-size="14.00">12171</text>
</a>
</g>
</g>
<!-- 24001&#45;&gt;12171 -->
<g id="edge38" class="edge"><title>24001&#45;&gt;12171</title>
<path fill="none" stroke="black" d="M976.382,-827.774C996.099,-838.913 1024.36,-854.878 1044.07,-866.011"/>
</g>
<!-- 14237 -->
<g id="node33" class="node"><title>14237</title>
<g id="a_node33"><a xlink:title="6th_week">
<ellipse fill="#20ff05" stroke="black" cx="999.347" cy="-694.999" rx="32.4942" ry="18"/>
<text text-anchor="middle" x="999.347" y="-691.299" font-family="Times,serif" font-size="14.00">14237</text>
</a>
</g>
</g>
<!-- 24001&#45;&gt;14237 -->
<g id="edge48" class="edge"><title>24001&#45;&gt;14237</title>
<path fill="none" stroke="black" d="M960.166,-797.108C968.856,-774.461 983.834,-735.428 992.537,-712.746"/>
</g>
<!-- 24001&#45;&gt;30575 -->
<g id="edge29" class="edge"><title>24001&#45;&gt;30575</title>
<path fill="none" stroke="black" d="M920.774,-815.853C882.897,-817.096 820.786,-819.135 782.944,-820.377"/>
</g>
<!-- 31319 -->
<g id="node35" class="node"><title>31319</title>
<g id="a_node35"><a xlink:title="6th_week">
<ellipse fill="#20ff05" stroke="black" cx="1110.28" cy="-831.085" rx="32.4942" ry="18"/>
<text text-anchor="middle" x="1110.28" y="-827.385" font-family="Times,serif" font-size="14.00">31319</text>
</a>
</g>
</g>
<!-- 24001&#45;&gt;31319 -->
<g id="edge40" class="edge"><title>24001&#45;&gt;31319</title>
<path fill="none" stroke="black" d="M985.514,-818.121C1012.59,-820.934 1051.13,-824.939 1078.2,-827.751"/>
</g>
<!-- 22799 -->
<g id="node38" class="node"><title>22799</title>
<g id="a_node38"><a xlink:title="6th_week">
<ellipse fill="#20ff05" stroke="black" cx="1076.7" cy="-785.508" rx="32.4942" ry="18"/>
<text text-anchor="middle" x="1076.7" y="-781.808" font-family="Times,serif" font-size="14.00">22799</text>
</a>
</g>
</g>
<!-- 24001&#45;&gt;22799 -->
<g id="edge11" class="edge"><title>24001&#45;&gt;22799</title>
<path fill="none" stroke="black" d="M983.55,-807.621C1002.66,-803.085 1027.28,-797.239 1046.41,-792.697"/>
</g>
<!-- 2801 -->
<g id="node36" class="node"><title>2801</title>
<g id="a_node36"><a xlink:title="6th_week">
<ellipse fill="#20ff05" stroke="black" cx="1245.54" cy="-837.011" rx="28.6953" ry="18"/>
<text text-anchor="middle" x="1245.54" y="-833.311" font-family="Times,serif" font-size="14.00">2801</text>
</a>
</g>
</g>
<!-- 31319&#45;&gt;2801 -->
<g id="edge7" class="edge"><title>31319&#45;&gt;2801</title>
<path fill="none" stroke="black" d="M1142.68,-832.504C1165.19,-833.49 1194.92,-834.793 1216.63,-835.744"/>
</g>
<!-- 19469 -->
<g id="node42" class="node"><title>19469</title>
<g id="a_node42"><a xlink:title="6th_week">
<ellipse fill="#20ff05" stroke="black" cx="535.514" cy="-1257.86" rx="32.4942" ry="18"/>
<text text-anchor="middle" x="535.514" y="-1254.16" font-family="Times,serif" font-size="14.00">19469</text>
</a>
</g>
</g>
<!-- 19483&#45;&gt;19469 -->
<g id="edge33" class="edge"><title>19483&#45;&gt;19469</title>
<path fill="none" stroke="black" d="M546.895,-1062.33C544.544,-1102.71 538.92,-1199.34 536.572,-1239.68"/>
</g>
<!-- 28170 -->
<g id="node48" class="node"><title>28170</title>
<g id="a_node48"><a xlink:title="6th_week">
<ellipse fill="#20ff05" stroke="black" cx="651.283" cy="-1106.75" rx="32.4942" ry="18"/>
<text text-anchor="middle" x="651.283" y="-1103.05" font-family="Times,serif" font-size="14.00">28170</text>
</a>
</g>
</g>
<!-- 19483&#45;&gt;28170 -->
<g id="edge21" class="edge"><title>19483&#45;&gt;28170</title>
<path fill="none" stroke="black" d="M570.122,-1057.54C587.556,-1068.11 611.729,-1082.77 629.154,-1093.33"/>
</g>
<!-- 1255 -->
<g id="node39" class="node"><title>1255</title>
<g id="a_node39"><a xlink:title="6th_week">
<ellipse fill="grey" stroke="black" cx="412.041" cy="-1259.69" rx="28.6953" ry="18"/>
<text text-anchor="middle" x="412.041" y="-1255.99" font-family="Times,serif" font-size="14.00">1255</text>
</a>
</g>
</g>
<!-- 1255&#45;&gt;19469 -->
<g id="edge15" class="edge"><title>1255&#45;&gt;19469</title>
<path fill="none" stroke="black" d="M440.678,-1259.27C459.201,-1258.99 483.367,-1258.63 502.669,-1258.35"/>
</g>
<!-- 4561 -->
<g id="node40" class="node"><title>4561</title>
<g id="a_node40"><a xlink:title="6th_week">
<ellipse fill="#ffffff" stroke="black" cx="567.881" cy="-1395.39" rx="28.6953" ry="18"/>
<text text-anchor="middle" x="567.881" y="-1391.69" font-family="Times,serif" font-size="14.00">4561</text>
</a>
</g>
</g>
<!-- 4561&#45;&gt;19469 -->
<g id="edge39" class="edge"><title>4561&#45;&gt;19469</title>
<path fill="none" stroke="black" d="M563.649,-1377.41C557.446,-1351.06 545.95,-1302.2 539.746,-1275.84"/>
</g>
<!-- 17554 -->
<g id="node41" class="node"><title>17554</title>
<g id="a_node41"><a xlink:title="6th_week">
<ellipse fill="#20ff05" stroke="black" cx="422.303" cy="-1362.68" rx="32.4942" ry="18"/>
<text text-anchor="middle" x="422.303" y="-1358.98" font-family="Times,serif" font-size="14.00">17554</text>
</a>
</g>
</g>
<!-- 17554&#45;&gt;19469 -->
<g id="edge42" class="edge"><title>17554&#45;&gt;19469</title>
<path fill="none" stroke="black" d="M439.008,-1347.22C460.412,-1327.4 497.303,-1293.24 518.741,-1273.39"/>
</g>
<!-- 23579 -->
<g id="node43" class="node"><title>23579</title>
<g id="a_node43"><a xlink:title="6th_week">
<ellipse fill="#20ff05" stroke="black" cx="657.176" cy="-1307.89" rx="32.4942" ry="18"/>
<text text-anchor="middle" x="657.176" y="-1304.19" font-family="Times,serif" font-size="14.00">23579</text>
</a>
</g>
</g>
<!-- 19469&#45;&gt;23579 -->
<g id="edge49" class="edge"><title>19469&#45;&gt;23579</title>
<path fill="none" stroke="black" d="M561.614,-1268.59C582.001,-1276.98 610.217,-1288.58 630.7,-1297"/>
</g>
<!-- 24736 -->
<g id="node44" class="node"><title>24736</title>
<g id="a_node44"><a xlink:title="6th_week">
<ellipse fill="#20ff05" stroke="black" cx="496.265" cy="-1404.55" rx="32.4942" ry="18"/>
<text text-anchor="middle" x="496.265" y="-1400.85" font-family="Times,serif" font-size="14.00">24736</text>
</a>
</g>
</g>
<!-- 19469&#45;&gt;24736 -->
<g id="edge8" class="edge"><title>19469&#45;&gt;24736</title>
<path fill="none" stroke="black" d="M530.701,-1275.85C523.168,-1304 508.674,-1358.17 501.117,-1386.41"/>
</g>
<!-- 26354 -->
<g id="node45" class="node"><title>26354</title>
<g id="a_node45"><a xlink:title="6th_week">
<ellipse fill="#20ff05" stroke="black" cx="640.586" cy="-1393.75" rx="32.4942" ry="18"/>
<text text-anchor="middle" x="640.586" y="-1390.05" font-family="Times,serif" font-size="14.00">26354</text>
</a>
</g>
</g>
<!-- 19469&#45;&gt;26354 -->
<g id="edge25" class="edge"><title>19469&#45;&gt;26354</title>
<path fill="none" stroke="black" d="M548.398,-1274.52C568.564,-1300.6 607.366,-1350.79 627.596,-1376.95"/>
</g>
<!-- 27551 -->
<g id="node46" class="node"><title>27551</title>
<g id="a_node46"><a xlink:title="6th_week">
<ellipse fill="#20ff05" stroke="black" cx="413.94" cy="-1314.49" rx="32.4942" ry="18"/>
<text text-anchor="middle" x="413.94" y="-1310.79" font-family="Times,serif" font-size="14.00">27551</text>
</a>
</g>
</g>
<!-- 19469&#45;&gt;27551 -->
<g id="edge37" class="edge"><title>19469&#45;&gt;27551</title>
<path fill="none" stroke="black" d="M510.618,-1269.46C489.778,-1279.16 460.168,-1292.96 439.22,-1302.72"/>
</g>
<!-- 27659 -->
<g id="node47" class="node"><title>27659</title>
<g id="a_node47"><a xlink:title="6th_week">
<ellipse fill="#20ff05" stroke="black" cx="495.523" cy="-1357.07" rx="32.4942" ry="18"/>
<text text-anchor="middle" x="495.523" y="-1353.37" font-family="Times,serif" font-size="14.00">27659</text>
</a>
</g>
</g>
<!-- 19469&#45;&gt;27659 -->
<g id="edge10" class="edge"><title>19469&#45;&gt;27659</title>
<path fill="none" stroke="black" d="M528.364,-1275.6C521.085,-1293.65 509.867,-1321.48 502.611,-1339.48"/>
</g>
<!-- 30915 -->
<g id="node49" class="node"><title>30915</title>
<g id="a_node49"><a xlink:title="6th_week">
<ellipse fill="#20ff05" stroke="black" cx="571.775" cy="-1347.56" rx="32.4942" ry="18"/>
<text text-anchor="middle" x="571.775" y="-1343.86" font-family="Times,serif" font-size="14.00">30915</text>
</a>
</g>
</g>
<!-- 19469&#45;&gt;30915 -->
<g id="edge23" class="edge"><title>19469&#45;&gt;30915</title>
<path fill="none" stroke="black" d="M542.678,-1275.58C549.035,-1291.31 558.274,-1314.16 564.626,-1329.88"/>
</g>
<!-- 10002 -->
<g id="node50" class="node"><title>10002</title>
<g id="a_node50"><a xlink:title="6th_week">
<ellipse fill="#20ff05" stroke="black" cx="696.272" cy="-1519.23" rx="32.4942" ry="18"/>
<text text-anchor="middle" x="696.272" y="-1515.53" font-family="Times,serif" font-size="14.00">10002</text>
</a>
</g>
</g>
<!-- 26354&#45;&gt;10002 -->
<g id="edge43" class="edge"><title>26354&#45;&gt;10002</title>
<path fill="none" stroke="black" d="M648.446,-1411.46C659.059,-1435.38 677.859,-1477.74 688.452,-1501.6"/>
</g>
</g>
</svg>
