<?xml version="1.0" encoding="UTF-8" standalone="no"?>
<!DOCTYPE svg PUBLIC "-//W3C//DTD SVG 1.1//EN"
 "http://www.w3.org/Graphics/SVG/1.1/DTD/svg11.dtd">
<!-- Generated by graphviz version 2.38.0 (20140413.2041)
 -->
<!-- Title: %3 Pages: 1 -->
<svg width="2385pt" height="1770pt"
 viewBox="0.00 0.00 2385.00 1770.00" xmlns="http://www.w3.org/2000/svg" xmlns:xlink="http://www.w3.org/1999/xlink">
<g id="graph0" class="graph" transform="scale(1 1) rotate(0) translate(4 1766)">
<title>%3</title>
<polygon fill="white" stroke="none" points="-4,4 -4,-1766 2381,-1766 2381,4 -4,4"/>
<!-- 776 -->
<g id="node1" class="node"><title>776</title>
<g id="a_node1"><a xlink:title="6th_week">
<ellipse fill="#efff05" stroke="black" cx="986.711" cy="-1544.91" rx="27" ry="18"/>
<text text-anchor="middle" x="986.711" y="-1541.21" font-family="Times,serif" font-size="14.00">776</text>
</a>
</g>
</g>
<!-- 13901 -->
<g id="node38" class="node"><title>13901</title>
<g id="a_node38"><a xlink:title="6th_week">
<ellipse fill="#efff05" stroke="black" cx="1135.84" cy="-1281.06" rx="32.4942" ry="18"/>
<text text-anchor="middle" x="1135.84" y="-1277.36" font-family="Times,serif" font-size="14.00">13901</text>
</a>
</g>
</g>
<!-- 776&#45;&gt;13901 -->
<g id="edge8" class="edge"><title>776&#45;&gt;13901</title>
<path fill="none" stroke="black" d="M996.266,-1528C1023.07,-1480.57 1098.8,-1346.6 1125.98,-1298.51"/>
</g>
<!-- 26592 -->
<g id="node81" class="node"><title>26592</title>
<g id="a_node81"><a xlink:title="6th_week">
<ellipse fill="#efff05" stroke="black" cx="869.444" cy="-1744.19" rx="32.4942" ry="18"/>
<text text-anchor="middle" x="869.444" y="-1740.49" font-family="Times,serif" font-size="14.00">26592</text>
</a>
</g>
</g>
<!-- 776&#45;&gt;26592 -->
<g id="edge64" class="edge"><title>776&#45;&gt;26592</title>
<path fill="none" stroke="black" d="M976.712,-1561.9C954.613,-1599.45 901.813,-1689.18 879.583,-1726.96"/>
</g>
<!-- 1215 -->
<g id="node2" class="node"><title>1215</title>
<g id="a_node2"><a xlink:title="6th_week">
<ellipse fill="#efff05" stroke="black" cx="1393.39" cy="-1325.8" rx="28.6953" ry="18"/>
<text text-anchor="middle" x="1393.39" y="-1322.1" font-family="Times,serif" font-size="14.00">1215</text>
</a>
</g>
</g>
<!-- 11495 -->
<g id="node35" class="node"><title>11495</title>
<g id="a_node35"><a xlink:title="6th_week">
<ellipse fill="#efff05" stroke="black" cx="1387.39" cy="-941.209" rx="32.4942" ry="18"/>
<text text-anchor="middle" x="1387.39" y="-937.509" font-family="Times,serif" font-size="14.00">11495</text>
</a>
</g>
</g>
<!-- 1215&#45;&gt;11495 -->
<g id="edge81" class="edge"><title>1215&#45;&gt;11495</title>
<path fill="none" stroke="black" d="M1393.11,-1307.77C1392.1,-1243.32 1388.69,-1024.75 1387.68,-959.651"/>
</g>
<!-- 13061 -->
<g id="node37" class="node"><title>13061</title>
<g id="a_node37"><a xlink:title="6th_week">
<ellipse fill="#efff05" stroke="black" cx="1435.18" cy="-1569.34" rx="32.4942" ry="18"/>
<text text-anchor="middle" x="1435.18" y="-1565.64" font-family="Times,serif" font-size="14.00">13061</text>
</a>
</g>
</g>
<!-- 1215&#45;&gt;13061 -->
<g id="edge12" class="edge"><title>1215&#45;&gt;13061</title>
<path fill="none" stroke="black" d="M1396.46,-1343.71C1404.19,-1388.75 1424.37,-1506.34 1432.1,-1551.41"/>
</g>
<!-- 26153 -->
<g id="node79" class="node"><title>26153</title>
<g id="a_node79"><a xlink:title="6th_week">
<ellipse fill="grey" stroke="black" cx="1357.99" cy="-1571.7" rx="32.4942" ry="18"/>
<text text-anchor="middle" x="1357.99" y="-1568" font-family="Times,serif" font-size="14.00">26153</text>
</a>
</g>
</g>
<!-- 1215&#45;&gt;26153 -->
<g id="edge63" class="edge"><title>1215&#45;&gt;26153</title>
<path fill="none" stroke="black" d="M1390.79,-1343.88C1384.24,-1389.36 1367.14,-1508.09 1360.59,-1553.59"/>
</g>
<!-- 2186 -->
<g id="node3" class="node"><title>2186</title>
<g id="a_node3"><a xlink:title="6th_week">
<ellipse fill="#ffffff" stroke="black" cx="907.059" cy="-632.339" rx="28.6953" ry="18"/>
<text text-anchor="middle" x="907.059" y="-628.639" font-family="Times,serif" font-size="14.00">2186</text>
</a>
</g>
</g>
<!-- 22109 -->
<g id="node65" class="node"><title>22109</title>
<g id="a_node65"><a xlink:title="6th_week">
<ellipse fill="grey" stroke="black" cx="1111.6" cy="-758.556" rx="32.4942" ry="18"/>
<text text-anchor="middle" x="1111.6" y="-754.856" font-family="Times,serif" font-size="14.00">22109</text>
</a>
</g>
</g>
<!-- 2186&#45;&gt;22109 -->
<g id="edge67" class="edge"><title>2186&#45;&gt;22109</title>
<path fill="none" stroke="black" d="M927.797,-645.136C966.696,-669.139 1050.25,-720.698 1089.88,-745.156"/>
</g>
<!-- 2218 -->
<g id="node4" class="node"><title>2218</title>
<g id="a_node4"><a xlink:title="6th_week">
<ellipse fill="#efff05" stroke="black" cx="1038.48" cy="-792.065" rx="28.6953" ry="18"/>
<text text-anchor="middle" x="1038.48" y="-788.365" font-family="Times,serif" font-size="14.00">2218</text>
</a>
</g>
</g>
<!-- 2218&#45;&gt;11495 -->
<g id="edge54" class="edge"><title>2218&#45;&gt;11495</title>
<path fill="none" stroke="black" d="M1062.18,-802.199C1125.07,-829.08 1295.78,-902.049 1361.3,-930.057"/>
</g>
<!-- 18646 -->
<g id="node56" class="node"><title>18646</title>
<g id="a_node56"><a xlink:title="6th_week">
<ellipse fill="#efff05" stroke="black" cx="766.993" cy="-660.983" rx="32.4942" ry="18"/>
<text text-anchor="middle" x="766.993" y="-657.283" font-family="Times,serif" font-size="14.00">18646</text>
</a>
</g>
</g>
<!-- 2218&#45;&gt;18646 -->
<g id="edge80" class="edge"><title>2218&#45;&gt;18646</title>
<path fill="none" stroke="black" d="M1015.33,-780.889C964.552,-756.371 843.765,-698.051 791.639,-672.883"/>
</g>
<!-- 2221 -->
<g id="node5" class="node"><title>2221</title>
<g id="a_node5"><a xlink:title="6th_week">
<ellipse fill="#efff05" stroke="black" cx="919.651" cy="-1037.05" rx="28.6953" ry="18"/>
<text text-anchor="middle" x="919.651" y="-1033.35" font-family="Times,serif" font-size="14.00">2221</text>
</a>
</g>
</g>
<!-- 2221&#45;&gt;11495 -->
<g id="edge31" class="edge"><title>2221&#45;&gt;11495</title>
<path fill="none" stroke="black" d="M947.164,-1031.41C1029.12,-1014.62 1271.22,-965.013 1356.91,-947.455"/>
</g>
<!-- 27510 -->
<g id="node83" class="node"><title>27510</title>
<g id="a_node83"><a xlink:title="6th_week">
<ellipse fill="#efff05" stroke="black" cx="565.964" cy="-1074.32" rx="32.4942" ry="18"/>
<text text-anchor="middle" x="565.964" y="-1070.62" font-family="Times,serif" font-size="14.00">27510</text>
</a>
</g>
</g>
<!-- 2221&#45;&gt;27510 -->
<g id="edge27" class="edge"><title>2221&#45;&gt;27510</title>
<path fill="none" stroke="black" d="M891.305,-1040.04C826.227,-1046.9 666.466,-1063.73 597.981,-1070.95"/>
</g>
<!-- 27666 -->
<g id="node84" class="node"><title>27666</title>
<g id="a_node84"><a xlink:title="6th_week">
<ellipse fill="#efff05" stroke="black" cx="654.817" cy="-1143.32" rx="32.4942" ry="18"/>
<text text-anchor="middle" x="654.817" y="-1139.62" font-family="Times,serif" font-size="14.00">27666</text>
</a>
</g>
</g>
<!-- 2221&#45;&gt;27666 -->
<g id="edge59" class="edge"><title>2221&#45;&gt;27666</title>
<path fill="none" stroke="black" d="M895.211,-1046.86C845.399,-1066.85 732.512,-1112.14 681.148,-1132.75"/>
</g>
<!-- 2250 -->
<g id="node6" class="node"><title>2250</title>
<g id="a_node6"><a xlink:title="6th_week">
<ellipse fill="#efff05" stroke="black" cx="1797.46" cy="-1323.07" rx="28.6953" ry="18"/>
<text text-anchor="middle" x="1797.46" y="-1319.37" font-family="Times,serif" font-size="14.00">2250</text>
</a>
</g>
</g>
<!-- 4783 -->
<g id="node14" class="node"><title>4783</title>
<g id="a_node14"><a xlink:title="6th_week">
<ellipse fill="#efff05" stroke="black" cx="1631.06" cy="-1154.49" rx="28.6953" ry="18"/>
<text text-anchor="middle" x="1631.06" y="-1150.79" font-family="Times,serif" font-size="14.00">4783</text>
</a>
</g>
</g>
<!-- 2250&#45;&gt;4783 -->
<g id="edge21" class="edge"><title>2250&#45;&gt;4783</title>
<path fill="none" stroke="black" d="M1782.1,-1307.51C1750.4,-1275.4 1678.05,-1202.1 1646.38,-1170.01"/>
</g>
<!-- 2400 -->
<g id="node7" class="node"><title>2400</title>
<g id="a_node7"><a xlink:title="6th_week">
<ellipse fill="#efff05" stroke="black" cx="1249.08" cy="-952.082" rx="28.6953" ry="18"/>
<text text-anchor="middle" x="1249.08" y="-948.382" font-family="Times,serif" font-size="14.00">2400</text>
</a>
</g>
</g>
<!-- 2400&#45;&gt;11495 -->
<g id="edge15" class="edge"><title>2400&#45;&gt;11495</title>
<path fill="none" stroke="black" d="M1277.74,-949.829C1300.21,-948.063 1331.49,-945.604 1354.89,-943.764"/>
</g>
<!-- 2452 -->
<g id="node8" class="node"><title>2452</title>
<g id="a_node8"><a xlink:title="6th_week">
<ellipse fill="#efff05" stroke="black" cx="1648.79" cy="-743.899" rx="28.6953" ry="18"/>
<text text-anchor="middle" x="1648.79" y="-740.199" font-family="Times,serif" font-size="14.00">2452</text>
</a>
</g>
</g>
<!-- 2452&#45;&gt;11495 -->
<g id="edge7" class="edge"><title>2452&#45;&gt;11495</title>
<path fill="none" stroke="black" d="M1630.41,-757.773C1582.76,-793.738 1455.59,-889.731 1406.81,-926.551"/>
</g>
<!-- 25330 -->
<g id="node75" class="node"><title>25330</title>
<g id="a_node75"><a xlink:title="6th_week">
<ellipse fill="#efff05" stroke="black" cx="1828.84" cy="-585.648" rx="32.4942" ry="18"/>
<text text-anchor="middle" x="1828.84" y="-581.948" font-family="Times,serif" font-size="14.00">25330</text>
</a>
</g>
</g>
<!-- 2452&#45;&gt;25330 -->
<g id="edge13" class="edge"><title>2452&#45;&gt;25330</title>
<path fill="none" stroke="black" d="M1665.73,-729.011C1699.87,-699.004 1776.64,-631.529 1811.29,-601.077"/>
</g>
<!-- 3349 -->
<g id="node9" class="node"><title>3349</title>
<g id="a_node9"><a xlink:title="6th_week">
<ellipse fill="#efff05" stroke="black" cx="1324.31" cy="-305.107" rx="28.6953" ry="18"/>
<text text-anchor="middle" x="1324.31" y="-301.407" font-family="Times,serif" font-size="14.00">3349</text>
</a>
</g>
</g>
<!-- 17463 -->
<g id="node50" class="node"><title>17463</title>
<g id="a_node50"><a xlink:title="6th_week">
<ellipse fill="#efff05" stroke="black" cx="1325.16" cy="-551.969" rx="32.4942" ry="18"/>
<text text-anchor="middle" x="1325.16" y="-548.269" font-family="Times,serif" font-size="14.00">17463</text>
</a>
</g>
</g>
<!-- 3349&#45;&gt;17463 -->
<g id="edge89" class="edge"><title>3349&#45;&gt;17463</title>
<path fill="none" stroke="black" d="M1324.38,-323.259C1324.53,-368.911 1324.94,-488.109 1325.1,-533.79"/>
</g>
<!-- 3476 -->
<g id="node10" class="node"><title>3476</title>
<g id="a_node10"><a xlink:title="6th_week">
<ellipse fill="#efff05" stroke="black" cx="1519.42" cy="-1100.49" rx="28.6953" ry="18"/>
<text text-anchor="middle" x="1519.42" y="-1096.79" font-family="Times,serif" font-size="14.00">3476</text>
</a>
</g>
</g>
<!-- 3476&#45;&gt;11495 -->
<g id="edge3" class="edge"><title>3476&#45;&gt;11495</title>
<path fill="none" stroke="black" d="M1506.03,-1084.34C1480.86,-1053.97 1426.71,-988.643 1401.21,-957.878"/>
</g>
<!-- 3516 -->
<g id="node11" class="node"><title>3516</title>
<g id="a_node11"><a xlink:title="6th_week">
<ellipse fill="#efff05" stroke="black" cx="1316.71" cy="-812.697" rx="28.6953" ry="18"/>
<text text-anchor="middle" x="1316.71" y="-808.997" font-family="Times,serif" font-size="14.00">3516</text>
</a>
</g>
</g>
<!-- 3516&#45;&gt;11495 -->
<g id="edge41" class="edge"><title>3516&#45;&gt;11495</title>
<path fill="none" stroke="black" d="M1326.1,-829.762C1339.54,-854.205 1364.15,-898.953 1377.74,-923.661"/>
</g>
<!-- 3623 -->
<g id="node12" class="node"><title>3623</title>
<g id="a_node12"><a xlink:title="6th_week">
<ellipse fill="#efff05" stroke="black" cx="814.042" cy="-895.847" rx="28.6953" ry="18"/>
<text text-anchor="middle" x="814.042" y="-892.147" font-family="Times,serif" font-size="14.00">3623</text>
</a>
</g>
</g>
<!-- 25540 -->
<g id="node77" class="node"><title>25540</title>
<g id="a_node77"><a xlink:title="6th_week">
<ellipse fill="#efff05" stroke="black" cx="1052.87" cy="-921.151" rx="32.4942" ry="18"/>
<text text-anchor="middle" x="1052.87" y="-917.451" font-family="Times,serif" font-size="14.00">25540</text>
</a>
</g>
</g>
<!-- 3623&#45;&gt;25540 -->
<g id="edge70" class="edge"><title>3623&#45;&gt;25540</title>
<path fill="none" stroke="black" d="M842.376,-898.849C887.106,-903.588 973.81,-912.775 1020.77,-917.751"/>
</g>
<!-- 4352 -->
<g id="node13" class="node"><title>4352</title>
<g id="a_node13"><a xlink:title="6th_week">
<ellipse fill="#efff05" stroke="black" cx="1098.15" cy="-1099.23" rx="28.6953" ry="18"/>
<text text-anchor="middle" x="1098.15" y="-1095.53" font-family="Times,serif" font-size="14.00">4352</text>
</a>
</g>
</g>
<!-- 10477 -->
<g id="node32" class="node"><title>10477</title>
<g id="a_node32"><a xlink:title="6th_week">
<ellipse fill="#efff05" stroke="black" cx="890.531" cy="-1218.93" rx="32.4942" ry="18"/>
<text text-anchor="middle" x="890.531" y="-1215.23" font-family="Times,serif" font-size="14.00">10477</text>
</a>
</g>
</g>
<!-- 4352&#45;&gt;10477 -->
<g id="edge86" class="edge"><title>4352&#45;&gt;10477</title>
<path fill="none" stroke="black" d="M1076.72,-1111.59C1037.24,-1134.35 953.417,-1182.68 913.107,-1205.91"/>
</g>
<!-- 4352&#45;&gt;11495 -->
<g id="edge53" class="edge"><title>4352&#45;&gt;11495</title>
<path fill="none" stroke="black" d="M1119.89,-1087.36C1173.1,-1058.29 1309.51,-983.761 1364.19,-953.881"/>
</g>
<!-- 4783&#45;&gt;11495 -->
<g id="edge34" class="edge"><title>4783&#45;&gt;11495</title>
<path fill="none" stroke="black" d="M1614.32,-1139.83C1570.01,-1101.06 1450.07,-996.073 1404.91,-956.542"/>
</g>
<!-- 5765 -->
<g id="node15" class="node"><title>5765</title>
<g id="a_node15"><a xlink:title="6th_week">
<ellipse fill="grey" stroke="black" cx="1969.56" cy="-1275.85" rx="28.6953" ry="18"/>
<text text-anchor="middle" x="1969.56" y="-1272.15" font-family="Times,serif" font-size="14.00">5765</text>
</a>
</g>
</g>
<!-- 9202 -->
<g id="node29" class="node"><title>9202</title>
<g id="a_node29"><a xlink:title="6th_week">
<ellipse fill="#efff05" stroke="black" cx="1759.06" cy="-1151.92" rx="28.6953" ry="18"/>
<text text-anchor="middle" x="1759.06" y="-1148.22" font-family="Times,serif" font-size="14.00">9202</text>
</a>
</g>
</g>
<!-- 5765&#45;&gt;9202 -->
<g id="edge28" class="edge"><title>5765&#45;&gt;9202</title>
<path fill="none" stroke="black" d="M1948.6,-1263.52C1908.36,-1239.82 1820.66,-1188.19 1780.24,-1164.39"/>
</g>
<!-- 5862 -->
<g id="node16" class="node"><title>5862</title>
<g id="a_node16"><a xlink:title="6th_week">
<ellipse fill="grey" stroke="black" cx="1435.2" cy="-617.217" rx="28.6953" ry="18"/>
<text text-anchor="middle" x="1435.2" y="-613.517" font-family="Times,serif" font-size="14.00">5862</text>
</a>
</g>
</g>
<!-- 11157 -->
<g id="node33" class="node"><title>11157</title>
<g id="a_node33"><a xlink:title="6th_week">
<ellipse fill="#efff05" stroke="black" cx="1466.37" cy="-377.302" rx="32.4942" ry="18"/>
<text text-anchor="middle" x="1466.37" y="-373.602" font-family="Times,serif" font-size="14.00">11157</text>
</a>
</g>
</g>
<!-- 5862&#45;&gt;11157 -->
<g id="edge30" class="edge"><title>5862&#45;&gt;11157</title>
<path fill="none" stroke="black" d="M1437.54,-599.185C1443.32,-554.723 1458.2,-440.225 1464,-395.544"/>
</g>
<!-- 5862&#45;&gt;11495 -->
<g id="edge20" class="edge"><title>5862&#45;&gt;11495</title>
<path fill="none" stroke="black" d="M1432.49,-635.565C1424.08,-692.591 1398.44,-866.312 1390.07,-923.063"/>
</g>
<!-- 5948 -->
<g id="node17" class="node"><title>5948</title>
<g id="a_node17"><a xlink:title="6th_week">
<ellipse fill="grey" stroke="black" cx="1300.7" cy="-1123.03" rx="28.6953" ry="18"/>
<text text-anchor="middle" x="1300.7" y="-1119.33" font-family="Times,serif" font-size="14.00">5948</text>
</a>
</g>
</g>
<!-- 5948&#45;&gt;11495 -->
<g id="edge49" class="edge"><title>5948&#45;&gt;11495</title>
<path fill="none" stroke="black" d="M1309.01,-1105.6C1325.54,-1070.93 1362.36,-993.696 1378.97,-958.857"/>
</g>
<!-- 6061 -->
<g id="node18" class="node"><title>6061</title>
<g id="a_node18"><a xlink:title="6th_week">
<ellipse fill="#efff05" stroke="black" cx="1636.58" cy="-326.684" rx="28.6953" ry="18"/>
<text text-anchor="middle" x="1636.58" y="-322.984" font-family="Times,serif" font-size="14.00">6061</text>
</a>
</g>
</g>
<!-- 15258 -->
<g id="node43" class="node"><title>15258</title>
<g id="a_node43"><a xlink:title="6th_week">
<ellipse fill="#efff05" stroke="black" cx="1534.26" cy="-540.978" rx="32.4942" ry="18"/>
<text text-anchor="middle" x="1534.26" y="-537.278" font-family="Times,serif" font-size="14.00">15258</text>
</a>
</g>
</g>
<!-- 6061&#45;&gt;15258 -->
<g id="edge23" class="edge"><title>6061&#45;&gt;15258</title>
<path fill="none" stroke="black" d="M1628.2,-344.221C1608.97,-384.505 1561.82,-483.272 1542.61,-523.5"/>
</g>
<!-- 6761 -->
<g id="node19" class="node"><title>6761</title>
<g id="a_node19"><a xlink:title="6th_week">
<ellipse fill="grey" stroke="black" cx="1993.91" cy="-1211.52" rx="28.6953" ry="18"/>
<text text-anchor="middle" x="1993.91" y="-1207.82" font-family="Times,serif" font-size="14.00">6761</text>
</a>
</g>
</g>
<!-- 6761&#45;&gt;9202 -->
<g id="edge56" class="edge"><title>6761&#45;&gt;9202</title>
<path fill="none" stroke="black" d="M1966.97,-1204.69C1921.67,-1193.19 1830.78,-1170.12 1785.69,-1158.68"/>
</g>
<!-- 7474 -->
<g id="node20" class="node"><title>7474</title>
<g id="a_node20"><a xlink:title="6th_week">
<ellipse fill="#efff05" stroke="black" cx="1550.15" cy="-785.722" rx="28.6953" ry="18"/>
<text text-anchor="middle" x="1550.15" y="-782.022" font-family="Times,serif" font-size="14.00">7474</text>
</a>
</g>
</g>
<!-- 7474&#45;&gt;11495 -->
<g id="edge14" class="edge"><title>7474&#45;&gt;11495</title>
<path fill="none" stroke="black" d="M1534.25,-800.914C1503.37,-830.41 1435.58,-895.172 1404.08,-925.26"/>
</g>
<!-- 7885 -->
<g id="node21" class="node"><title>7885</title>
<g id="a_node21"><a xlink:title="6th_week">
<ellipse fill="grey" stroke="black" cx="964.988" cy="-1448.52" rx="28.6953" ry="18"/>
<text text-anchor="middle" x="964.988" y="-1444.82" font-family="Times,serif" font-size="14.00">7885</text>
</a>
</g>
</g>
<!-- 7885&#45;&gt;13901 -->
<g id="edge76" class="edge"><title>7885&#45;&gt;13901</title>
<path fill="none" stroke="black" d="M980.451,-1433.36C1012.65,-1401.8 1086.63,-1329.29 1119.54,-1297.04"/>
</g>
<!-- 8130 -->
<g id="node22" class="node"><title>8130</title>
<g id="a_node22"><a xlink:title="6th_week">
<ellipse fill="#efff05" stroke="black" cx="2125.61" cy="-665.494" rx="28.6953" ry="18"/>
<text text-anchor="middle" x="2125.61" y="-661.794" font-family="Times,serif" font-size="14.00">8130</text>
</a>
</g>
</g>
<!-- 8932 -->
<g id="node28" class="node"><title>8932</title>
<g id="a_node28"><a xlink:title="6th_week">
<ellipse fill="#efff05" stroke="black" cx="1838.07" cy="-770.213" rx="28.6953" ry="18"/>
<text text-anchor="middle" x="1838.07" y="-766.513" font-family="Times,serif" font-size="14.00">8932</text>
</a>
</g>
</g>
<!-- 8130&#45;&gt;8932 -->
<g id="edge71" class="edge"><title>8130&#45;&gt;8932</title>
<path fill="none" stroke="black" d="M2100.84,-674.513C2046.49,-694.308 1917.27,-741.37 1862.88,-761.179"/>
</g>
<!-- 18027 -->
<g id="node52" class="node"><title>18027</title>
<g id="a_node52"><a xlink:title="6th_week">
<ellipse fill="grey" stroke="black" cx="2344.91" cy="-585.576" rx="32.4942" ry="18"/>
<text text-anchor="middle" x="2344.91" y="-581.876" font-family="Times,serif" font-size="14.00">18027</text>
</a>
</g>
</g>
<!-- 8130&#45;&gt;18027 -->
<g id="edge69" class="edge"><title>8130&#45;&gt;18027</title>
<path fill="none" stroke="black" d="M2150.76,-656.327C2192.28,-641.198 2274.8,-611.127 2317.65,-595.509"/>
</g>
<!-- 8157 -->
<g id="node23" class="node"><title>8157</title>
<g id="a_node23"><a xlink:title="6th_week">
<ellipse fill="#20ff05" stroke="black" cx="2008.83" cy="-964.323" rx="28.6953" ry="18"/>
<text text-anchor="middle" x="2008.83" y="-960.623" font-family="Times,serif" font-size="14.00">8157</text>
</a>
</g>
</g>
<!-- 29044 -->
<g id="node88" class="node"><title>29044</title>
<g id="a_node88"><a xlink:title="6th_week">
<ellipse fill="#efff05" stroke="black" cx="1768.49" cy="-976.086" rx="32.4942" ry="18"/>
<text text-anchor="middle" x="1768.49" y="-972.386" font-family="Times,serif" font-size="14.00">29044</text>
</a>
</g>
</g>
<!-- 8157&#45;&gt;29044 -->
<g id="edge82" class="edge"><title>8157&#45;&gt;29044</title>
<path fill="none" stroke="black" d="M1980.32,-965.718C1935.43,-967.915 1848.53,-972.168 1801.18,-974.486"/>
</g>
<!-- 8242 -->
<g id="node24" class="node"><title>8242</title>
<g id="a_node24"><a xlink:title="6th_week">
<ellipse fill="#efff05" stroke="black" cx="1139.08" cy="-642.311" rx="28.6953" ry="18"/>
<text text-anchor="middle" x="1139.08" y="-638.611" font-family="Times,serif" font-size="14.00">8242</text>
</a>
</g>
</g>
<!-- 8242&#45;&gt;11495 -->
<g id="edge4" class="edge"><title>8242&#45;&gt;11495</title>
<path fill="none" stroke="black" d="M1152.43,-658.381C1195.44,-710.158 1330.13,-872.288 1373.67,-924.693"/>
</g>
<!-- 16389 -->
<g id="node47" class="node"><title>16389</title>
<g id="a_node47"><a xlink:title="6th_week">
<ellipse fill="#ffffff" stroke="black" cx="1012.75" cy="-428.734" rx="32.4942" ry="18"/>
<text text-anchor="middle" x="1012.75" y="-425.034" font-family="Times,serif" font-size="14.00">16389</text>
</a>
</g>
</g>
<!-- 8242&#45;&gt;16389 -->
<g id="edge11" class="edge"><title>8242&#45;&gt;16389</title>
<path fill="none" stroke="black" d="M1128.95,-625.194C1105.3,-585.204 1046.62,-486.003 1022.92,-445.932"/>
</g>
<!-- 19494 -->
<g id="node58" class="node"><title>19494</title>
<g id="a_node58"><a xlink:title="6th_week">
<ellipse fill="grey" stroke="black" cx="953.75" cy="-479.584" rx="32.4942" ry="18"/>
<text text-anchor="middle" x="953.75" y="-475.884" font-family="Times,serif" font-size="14.00">19494</text>
</a>
</g>
</g>
<!-- 8242&#45;&gt;19494 -->
<g id="edge62" class="edge"><title>8242&#45;&gt;19494</title>
<path fill="none" stroke="black" d="M1122.3,-627.583C1087.29,-596.836 1006.72,-526.093 971.159,-494.869"/>
</g>
<!-- 8438 -->
<g id="node25" class="node"><title>8438</title>
<g id="a_node25"><a xlink:title="6th_week">
<ellipse fill="grey" stroke="black" cx="1099.35" cy="-1417.89" rx="28.6953" ry="18"/>
<text text-anchor="middle" x="1099.35" y="-1414.19" font-family="Times,serif" font-size="14.00">8438</text>
</a>
</g>
</g>
<!-- 8687 -->
<g id="node27" class="node"><title>8687</title>
<g id="a_node27"><a xlink:title="6th_week">
<ellipse fill="#efff05" stroke="black" cx="1214.73" cy="-1213.18" rx="28.6953" ry="18"/>
<text text-anchor="middle" x="1214.73" y="-1209.48" font-family="Times,serif" font-size="14.00">8687</text>
</a>
</g>
</g>
<!-- 8438&#45;&gt;8687 -->
<g id="edge5" class="edge"><title>8438&#45;&gt;8687</title>
<path fill="none" stroke="black" d="M1108.99,-1400.79C1130.71,-1362.26 1183.27,-1269 1205.03,-1230.37"/>
</g>
<!-- 8573 -->
<g id="node26" class="node"><title>8573</title>
<g id="a_node26"><a xlink:title="6th_week">
<ellipse fill="#ffffff" stroke="black" cx="1469.66" cy="-1164.44" rx="28.6953" ry="18"/>
<text text-anchor="middle" x="1469.66" y="-1160.74" font-family="Times,serif" font-size="14.00">8573</text>
</a>
</g>
</g>
<!-- 8573&#45;&gt;11495 -->
<g id="edge36" class="edge"><title>8573&#45;&gt;11495</title>
<path fill="none" stroke="black" d="M1463.06,-1146.55C1447.62,-1104.65 1409.26,-1000.55 1393.9,-958.875"/>
</g>
<!-- 8687&#45;&gt;11495 -->
<g id="edge74" class="edge"><title>8687&#45;&gt;11495</title>
<path fill="none" stroke="black" d="M1225.53,-1196.16C1256.53,-1147.32 1345.59,-1007.05 1376.59,-958.215"/>
</g>
<!-- 8932&#45;&gt;11495 -->
<g id="edge66" class="edge"><title>8932&#45;&gt;11495</title>
<path fill="none" stroke="black" d="M1813.52,-779.528C1735.73,-809.043 1495.08,-900.349 1414.21,-931.032"/>
</g>
<!-- 23229 -->
<g id="node68" class="node"><title>23229</title>
<g id="a_node68"><a xlink:title="6th_week">
<ellipse fill="#efff05" stroke="black" cx="2015.99" cy="-606.66" rx="32.4942" ry="18"/>
<text text-anchor="middle" x="2015.99" y="-602.96" font-family="Times,serif" font-size="14.00">23229</text>
</a>
</g>
</g>
<!-- 8932&#45;&gt;23229 -->
<g id="edge35" class="edge"><title>8932&#45;&gt;23229</title>
<path fill="none" stroke="black" d="M1854.49,-755.12C1888.22,-724.12 1964.97,-653.565 1999.1,-622.194"/>
</g>
<!-- 23364 -->
<g id="node69" class="node"><title>23364</title>
<g id="a_node69"><a xlink:title="6th_week">
<ellipse fill="#ffffff" stroke="black" cx="2051.85" cy="-684.416" rx="32.4942" ry="18"/>
<text text-anchor="middle" x="2051.85" y="-680.716" font-family="Times,serif" font-size="14.00">23364</text>
</a>
</g>
</g>
<!-- 8932&#45;&gt;23364 -->
<g id="edge1" class="edge"><title>8932&#45;&gt;23364</title>
<path fill="none" stroke="black" d="M1862.6,-760.371C1903.06,-744.129 1983.5,-711.847 2025.28,-695.081"/>
</g>
<!-- 27740 -->
<g id="node85" class="node"><title>27740</title>
<g id="a_node85"><a xlink:title="6th_week">
<ellipse fill="#ffffff" stroke="black" cx="2077.76" cy="-770.085" rx="32.4942" ry="18"/>
<text text-anchor="middle" x="2077.76" y="-766.385" font-family="Times,serif" font-size="14.00">27740</text>
</a>
</g>
</g>
<!-- 8932&#45;&gt;27740 -->
<g id="edge2" class="edge"><title>8932&#45;&gt;27740</title>
<path fill="none" stroke="black" d="M1866.99,-770.198C1911.81,-770.174 1997.81,-770.128 2044.92,-770.103"/>
</g>
<!-- 9202&#45;&gt;11495 -->
<g id="edge16" class="edge"><title>9202&#45;&gt;11495</title>
<path fill="none" stroke="black" d="M1737.75,-1139.84C1672.81,-1103.02 1477.78,-992.453 1410.5,-954.313"/>
</g>
<!-- 18131 -->
<g id="node53" class="node"><title>18131</title>
<g id="a_node53"><a xlink:title="6th_week">
<ellipse fill="#ffffff" stroke="black" cx="1932.51" cy="-1335.13" rx="32.4942" ry="18"/>
<text text-anchor="middle" x="1932.51" y="-1331.43" font-family="Times,serif" font-size="14.00">18131</text>
</a>
</g>
</g>
<!-- 9202&#45;&gt;18131 -->
<g id="edge79" class="edge"><title>9202&#45;&gt;18131</title>
<path fill="none" stroke="black" d="M1773.85,-1167.54C1806.46,-1201.98 1884.24,-1284.14 1917.26,-1319.03"/>
</g>
<!-- 9775 -->
<g id="node30" class="node"><title>9775</title>
<g id="a_node30"><a xlink:title="6th_week">
<ellipse fill="#efff05" stroke="black" cx="1401.99" cy="-1116.92" rx="28.6953" ry="18"/>
<text text-anchor="middle" x="1401.99" y="-1113.22" font-family="Times,serif" font-size="14.00">9775</text>
</a>
</g>
</g>
<!-- 9775&#45;&gt;11495 -->
<g id="edge40" class="edge"><title>9775&#45;&gt;11495</title>
<path fill="none" stroke="black" d="M1400.48,-1098.78C1397.67,-1065.02 1391.69,-992.935 1388.89,-959.252"/>
</g>
<!-- 10364 -->
<g id="node31" class="node"><title>10364</title>
<g id="a_node31"><a xlink:title="6th_week">
<ellipse fill="#efff05" stroke="black" cx="32.3796" cy="-1100.05" rx="32.4942" ry="18"/>
<text text-anchor="middle" x="32.3796" y="-1096.35" font-family="Times,serif" font-size="14.00">10364</text>
</a>
</g>
</g>
<!-- 22377 -->
<g id="node66" class="node"><title>22377</title>
<g id="a_node66"><a xlink:title="6th_week">
<ellipse fill="#efff05" stroke="black" cx="252.241" cy="-1117.39" rx="32.4942" ry="18"/>
<text text-anchor="middle" x="252.241" y="-1113.69" font-family="Times,serif" font-size="14.00">22377</text>
</a>
</g>
</g>
<!-- 10364&#45;&gt;22377 -->
<g id="edge45" class="edge"><title>10364&#45;&gt;22377</title>
<path fill="none" stroke="black" d="M64.821,-1102.61C106.509,-1105.9 178.446,-1111.57 220.025,-1114.85"/>
</g>
<!-- 11165 -->
<g id="node34" class="node"><title>11165</title>
<g id="a_node34"><a xlink:title="6th_week">
<ellipse fill="#efff05" stroke="black" cx="1250.27" cy="-636.592" rx="32.4942" ry="18"/>
<text text-anchor="middle" x="1250.27" y="-632.892" font-family="Times,serif" font-size="14.00">11165</text>
</a>
</g>
</g>
<!-- 11165&#45;&gt;11495 -->
<g id="edge42" class="edge"><title>11165&#45;&gt;11495</title>
<path fill="none" stroke="black" d="M1258.24,-654.286C1282.47,-708.124 1355.14,-869.562 1379.4,-923.466"/>
</g>
<!-- 27193 -->
<g id="node82" class="node"><title>27193</title>
<g id="a_node82"><a xlink:title="6th_week">
<ellipse fill="#efff05" stroke="black" cx="1149.25" cy="-410.911" rx="32.4942" ry="18"/>
<text text-anchor="middle" x="1149.25" y="-407.211" font-family="Times,serif" font-size="14.00">27193</text>
</a>
</g>
</g>
<!-- 11165&#45;&gt;27193 -->
<g id="edge60" class="edge"><title>11165&#45;&gt;27193</title>
<path fill="none" stroke="black" d="M1242.35,-618.883C1223.46,-576.695 1175.99,-470.642 1157.14,-428.538"/>
</g>
<!-- 11664 -->
<g id="node36" class="node"><title>11664</title>
<g id="a_node36"><a xlink:title="6th_week">
<ellipse fill="grey" stroke="black" cx="1634.25" cy="-915.622" rx="32.4942" ry="18"/>
<text text-anchor="middle" x="1634.25" y="-911.922" font-family="Times,serif" font-size="14.00">11664</text>
</a>
</g>
</g>
<!-- 11495&#45;&gt;11664 -->
<g id="edge38" class="edge"><title>11495&#45;&gt;11664</title>
<path fill="none" stroke="black" d="M1419.41,-937.89C1466.76,-932.982 1554.96,-923.84 1602.28,-918.935"/>
</g>
<!-- 11495&#45;&gt;13901 -->
<g id="edge50" class="edge"><title>11495&#45;&gt;13901</title>
<path fill="none" stroke="black" d="M1374.91,-958.062C1332.09,-1015.92 1191.33,-1206.09 1148.39,-1264.1"/>
</g>
<!-- 14293 -->
<g id="node40" class="node"><title>14293</title>
<g id="a_node40"><a xlink:title="6th_week">
<ellipse fill="#efff05" stroke="black" cx="1597.72" cy="-1064.6" rx="32.4942" ry="18"/>
<text text-anchor="middle" x="1597.72" y="-1060.9" font-family="Times,serif" font-size="14.00">14293</text>
</a>
</g>
</g>
<!-- 11495&#45;&gt;14293 -->
<g id="edge44" class="edge"><title>11495&#45;&gt;14293</title>
<path fill="none" stroke="black" d="M1409.9,-954.414C1450.38,-978.164 1535.01,-1027.81 1575.38,-1051.49"/>
</g>
<!-- 14888 -->
<g id="node41" class="node"><title>14888</title>
<g id="a_node41"><a xlink:title="6th_week">
<ellipse fill="#efff05" stroke="black" cx="1498.7" cy="-725.989" rx="32.4942" ry="18"/>
<text text-anchor="middle" x="1498.7" y="-722.289" font-family="Times,serif" font-size="14.00">14888</text>
</a>
</g>
</g>
<!-- 11495&#45;&gt;14888 -->
<g id="edge46" class="edge"><title>11495&#45;&gt;14888</title>
<path fill="none" stroke="black" d="M1396.5,-923.597C1417.42,-883.138 1468.73,-783.944 1489.62,-743.543"/>
</g>
<!-- 15239 -->
<g id="node42" class="node"><title>15239</title>
<g id="a_node42"><a xlink:title="6th_week">
<ellipse fill="grey" stroke="black" cx="1548.45" cy="-870.112" rx="32.4942" ry="18"/>
<text text-anchor="middle" x="1548.45" y="-866.412" font-family="Times,serif" font-size="14.00">15239</text>
</a>
</g>
</g>
<!-- 11495&#45;&gt;15239 -->
<g id="edge24" class="edge"><title>11495&#45;&gt;15239</title>
<path fill="none" stroke="black" d="M1412.91,-929.943C1442.98,-916.67 1492.65,-894.744 1522.78,-881.442"/>
</g>
<!-- 11495&#45;&gt;15258 -->
<g id="edge48" class="edge"><title>11495&#45;&gt;15258</title>
<path fill="none" stroke="black" d="M1393.89,-923.495C1418.15,-857.385 1503.26,-625.467 1527.67,-558.941"/>
</g>
<!-- 15481 -->
<g id="node44" class="node"><title>15481</title>
<g id="a_node44"><a xlink:title="6th_week">
<ellipse fill="#efff05" stroke="black" cx="1142.84" cy="-1001.51" rx="32.4942" ry="18"/>
<text text-anchor="middle" x="1142.84" y="-997.81" font-family="Times,serif" font-size="14.00">15481</text>
</a>
</g>
</g>
<!-- 11495&#45;&gt;15481 -->
<g id="edge83" class="edge"><title>11495&#45;&gt;15481</title>
<path fill="none" stroke="black" d="M1357.4,-948.603C1310.34,-960.208 1219.67,-982.566 1172.69,-994.15"/>
</g>
<!-- 16097 -->
<g id="node45" class="node"><title>16097</title>
<g id="a_node45"><a xlink:title="6th_week">
<ellipse fill="#efff05" stroke="black" cx="1368.36" cy="-1184.77" rx="32.4942" ry="18"/>
<text text-anchor="middle" x="1368.36" y="-1181.07" font-family="Times,serif" font-size="14.00">16097</text>
</a>
</g>
</g>
<!-- 11495&#45;&gt;16097 -->
<g id="edge65" class="edge"><title>11495&#45;&gt;16097</title>
<path fill="none" stroke="black" d="M1385.96,-959.515C1382.42,-1004.76 1373.31,-1121.46 1369.78,-1166.58"/>
</g>
<!-- 16188 -->
<g id="node46" class="node"><title>16188</title>
<g id="a_node46"><a xlink:title="6th_week">
<ellipse fill="#efff05" stroke="black" cx="1304.95" cy="-1262.26" rx="32.4942" ry="18"/>
<text text-anchor="middle" x="1304.95" y="-1258.56" font-family="Times,serif" font-size="14.00">16188</text>
</a>
</g>
</g>
<!-- 11495&#45;&gt;16188 -->
<g id="edge9" class="edge"><title>11495&#45;&gt;16188</title>
<path fill="none" stroke="black" d="M1382.72,-959.39C1368.21,-1015.9 1324.01,-1188.05 1309.57,-1244.28"/>
</g>
<!-- 16506 -->
<g id="node48" class="node"><title>16506</title>
<g id="a_node48"><a xlink:title="6th_week">
<ellipse fill="grey" stroke="black" cx="1179.24" cy="-844.97" rx="32.4942" ry="18"/>
<text text-anchor="middle" x="1179.24" y="-841.27" font-family="Times,serif" font-size="14.00">16506</text>
</a>
</g>
</g>
<!-- 11495&#45;&gt;16506 -->
<g id="edge26" class="edge"><title>11495&#45;&gt;16506</title>
<path fill="none" stroke="black" d="M1362.28,-929.6C1322.27,-911.103 1244.5,-875.143 1204.44,-856.62"/>
</g>
<!-- 17225 -->
<g id="node49" class="node"><title>17225</title>
<g id="a_node49"><a xlink:title="6th_week">
<ellipse fill="#efff05" stroke="black" cx="1636.58" cy="-987.349" rx="32.4942" ry="18"/>
<text text-anchor="middle" x="1636.58" y="-983.649" font-family="Times,serif" font-size="14.00">17225</text>
</a>
</g>
</g>
<!-- 11495&#45;&gt;17225 -->
<g id="edge29" class="edge"><title>11495&#45;&gt;17225</title>
<path fill="none" stroke="black" d="M1418.44,-946.959C1466.33,-955.825 1557.64,-972.733 1605.53,-981.598"/>
</g>
<!-- 11495&#45;&gt;17463 -->
<g id="edge73" class="edge"><title>11495&#45;&gt;17463</title>
<path fill="none" stroke="black" d="M1384.51,-923.216C1374.11,-858.177 1338.55,-635.674 1328.08,-570.221"/>
</g>
<!-- 18317 -->
<g id="node55" class="node"><title>18317</title>
<g id="a_node55"><a xlink:title="6th_week">
<ellipse fill="#efff05" stroke="black" cx="1186.19" cy="-1059.77" rx="32.4942" ry="18"/>
<text text-anchor="middle" x="1186.19" y="-1056.07" font-family="Times,serif" font-size="14.00">18317</text>
</a>
</g>
</g>
<!-- 11495&#45;&gt;18317 -->
<g id="edge37" class="edge"><title>11495&#45;&gt;18317</title>
<path fill="none" stroke="black" d="M1365.09,-954.35C1326.41,-977.139 1247.33,-1023.74 1208.59,-1046.57"/>
</g>
<!-- 18896 -->
<g id="node57" class="node"><title>18896</title>
<g id="a_node57"><a xlink:title="6th_week">
<ellipse fill="#efff05" stroke="black" cx="1626.41" cy="-843.621" rx="32.4942" ry="18"/>
<text text-anchor="middle" x="1626.41" y="-839.921" font-family="Times,serif" font-size="14.00">18896</text>
</a>
</g>
</g>
<!-- 11495&#45;&gt;18896 -->
<g id="edge61" class="edge"><title>11495&#45;&gt;18896</title>
<path fill="none" stroke="black" d="M1413.88,-930.392C1459.95,-911.584 1554.27,-873.075 1600.16,-854.337"/>
</g>
<!-- 19534 -->
<g id="node60" class="node"><title>19534</title>
<g id="a_node60"><a xlink:title="6th_week">
<ellipse fill="grey" stroke="black" cx="1583.5" cy="-670.2" rx="32.4942" ry="18"/>
<text text-anchor="middle" x="1583.5" y="-666.5" font-family="Times,serif" font-size="14.00">19534</text>
</a>
</g>
</g>
<!-- 11495&#45;&gt;19534 -->
<g id="edge87" class="edge"><title>11495&#45;&gt;19534</title>
<path fill="none" stroke="black" d="M1399.66,-924.256C1434.87,-875.587 1536.02,-735.808 1571.23,-687.147"/>
</g>
<!-- 20036 -->
<g id="node61" class="node"><title>20036</title>
<g id="a_node61"><a xlink:title="6th_week">
<ellipse fill="grey" stroke="black" cx="1301.83" cy="-716.686" rx="32.4942" ry="18"/>
<text text-anchor="middle" x="1301.83" y="-712.986" font-family="Times,serif" font-size="14.00">20036</text>
</a>
</g>
</g>
<!-- 11495&#45;&gt;20036 -->
<g id="edge55" class="edge"><title>11495&#45;&gt;20036</title>
<path fill="none" stroke="black" d="M1380.67,-923.591C1364.72,-881.723 1324.67,-776.63 1308.63,-734.532"/>
</g>
<!-- 21897 -->
<g id="node64" class="node"><title>21897</title>
<g id="a_node64"><a xlink:title="6th_week">
<ellipse fill="grey" stroke="black" cx="1523.98" cy="-1309.22" rx="32.4942" ry="18"/>
<text text-anchor="middle" x="1523.98" y="-1305.52" font-family="Times,serif" font-size="14.00">21897</text>
</a>
</g>
</g>
<!-- 11495&#45;&gt;21897 -->
<g id="edge85" class="edge"><title>11495&#45;&gt;21897</title>
<path fill="none" stroke="black" d="M1393.98,-958.959C1417.05,-1021.13 1494.07,-1228.65 1517.29,-1291.21"/>
</g>
<!-- 11495&#45;&gt;22109 -->
<g id="edge19" class="edge"><title>11495&#45;&gt;22109</title>
<path fill="none" stroke="black" d="M1366.21,-927.18C1314.74,-893.097 1183.62,-806.256 1132.48,-772.383"/>
</g>
<!-- 23432 -->
<g id="node70" class="node"><title>23432</title>
<g id="a_node70"><a xlink:title="6th_week">
<ellipse fill="#efff05" stroke="black" cx="1146.32" cy="-912.153" rx="32.4942" ry="18"/>
<text text-anchor="middle" x="1146.32" y="-908.453" font-family="Times,serif" font-size="14.00">23432</text>
</a>
</g>
</g>
<!-- 11495&#45;&gt;23432 -->
<g id="edge52" class="edge"><title>11495&#45;&gt;23432</title>
<path fill="none" stroke="black" d="M1355.38,-937.351C1309.14,-931.778 1224.17,-921.537 1178.08,-915.981"/>
</g>
<!-- 23757 -->
<g id="node71" class="node"><title>23757</title>
<g id="a_node71"><a xlink:title="6th_week">
<ellipse fill="#efff05" stroke="black" cx="1565.53" cy="-1218.68" rx="32.4942" ry="18"/>
<text text-anchor="middle" x="1565.53" y="-1214.98" font-family="Times,serif" font-size="14.00">23757</text>
</a>
</g>
</g>
<!-- 11495&#45;&gt;23757 -->
<g id="edge47" class="edge"><title>11495&#45;&gt;23757</title>
<path fill="none" stroke="black" d="M1398.53,-958.566C1430.6,-1008.51 1522.84,-1152.19 1554.61,-1201.68"/>
</g>
<!-- 25097 -->
<g id="node74" class="node"><title>25097</title>
<g id="a_node74"><a xlink:title="6th_week">
<ellipse fill="#efff05" stroke="black" cx="1208.68" cy="-778.303" rx="32.4942" ry="18"/>
<text text-anchor="middle" x="1208.68" y="-774.603" font-family="Times,serif" font-size="14.00">25097</text>
</a>
</g>
</g>
<!-- 11495&#45;&gt;25097 -->
<g id="edge78" class="edge"><title>11495&#45;&gt;25097</title>
<path fill="none" stroke="black" d="M1370.25,-925.589C1336.09,-894.451 1259.88,-824.975 1225.76,-793.876"/>
</g>
<!-- 25498 -->
<g id="node76" class="node"><title>25498</title>
<g id="a_node76"><a xlink:title="6th_week">
<ellipse fill="#efff05" stroke="black" cx="1425.06" cy="-756.345" rx="32.4942" ry="18"/>
<text text-anchor="middle" x="1425.06" y="-752.645" font-family="Times,serif" font-size="14.00">25498</text>
</a>
</g>
</g>
<!-- 11495&#45;&gt;25498 -->
<g id="edge77" class="edge"><title>11495&#45;&gt;25498</title>
<path fill="none" stroke="black" d="M1391.07,-923.147C1398.27,-887.805 1414.15,-809.881 1421.36,-774.48"/>
</g>
<!-- 11495&#45;&gt;25540 -->
<g id="edge57" class="edge"><title>11495&#45;&gt;25540</title>
<path fill="none" stroke="black" d="M1355.01,-939.267C1291.06,-935.433 1149.23,-926.929 1085.27,-923.094"/>
</g>
<!-- 25577 -->
<g id="node78" class="node"><title>25577</title>
<g id="a_node78"><a xlink:title="6th_week">
<ellipse fill="#efff05" stroke="black" cx="1555.84" cy="-995.894" rx="32.4942" ry="18"/>
<text text-anchor="middle" x="1555.84" y="-992.194" font-family="Times,serif" font-size="14.00">25577</text>
</a>
</g>
</g>
<!-- 11495&#45;&gt;25577 -->
<g id="edge43" class="edge"><title>11495&#45;&gt;25577</title>
<path fill="none" stroke="black" d="M1415.58,-950.362C1446.68,-960.457 1496.42,-976.605 1527.56,-986.711"/>
</g>
<!-- 26182 -->
<g id="node80" class="node"><title>26182</title>
<g id="a_node80"><a xlink:title="6th_week">
<ellipse fill="#efff05" stroke="black" cx="1225.87" cy="-1117.85" rx="32.4942" ry="18"/>
<text text-anchor="middle" x="1225.87" y="-1114.15" font-family="Times,serif" font-size="14.00">26182</text>
</a>
</g>
</g>
<!-- 11495&#45;&gt;26182 -->
<g id="edge10" class="edge"><title>11495&#45;&gt;26182</title>
<path fill="none" stroke="black" d="M1372.48,-957.51C1341.71,-991.16 1271.48,-1067.97 1240.74,-1101.58"/>
</g>
<!-- 28717 -->
<g id="node87" class="node"><title>28717</title>
<g id="a_node87"><a xlink:title="6th_week">
<ellipse fill="#efff05" stroke="black" cx="1381.47" cy="-696.771" rx="32.4942" ry="18"/>
<text text-anchor="middle" x="1381.47" y="-693.071" font-family="Times,serif" font-size="14.00">28717</text>
</a>
</g>
</g>
<!-- 11495&#45;&gt;28717 -->
<g id="edge72" class="edge"><title>11495&#45;&gt;28717</title>
<path fill="none" stroke="black" d="M1386.94,-922.836C1385.84,-877.426 1383.01,-760.307 1381.92,-715.023"/>
</g>
<!-- 11495&#45;&gt;29044 -->
<g id="edge6" class="edge"><title>11495&#45;&gt;29044</title>
<path fill="none" stroke="black" d="M1419.55,-944.152C1491.42,-950.73 1664.36,-966.557 1736.28,-973.138"/>
</g>
<!-- 14130 -->
<g id="node39" class="node"><title>14130</title>
<g id="a_node39"><a xlink:title="6th_week">
<ellipse fill="grey" stroke="black" cx="1576.87" cy="-1556.6" rx="32.4942" ry="18"/>
<text text-anchor="middle" x="1576.87" y="-1552.9" font-family="Times,serif" font-size="14.00">14130</text>
</a>
</g>
</g>
<!-- 14130&#45;&gt;21897 -->
<g id="edge88" class="edge"><title>14130&#45;&gt;21897</title>
<path fill="none" stroke="black" d="M1572.98,-1538.41C1563.17,-1492.55 1537.53,-1372.63 1527.8,-1327.1"/>
</g>
<!-- 17986 -->
<g id="node51" class="node"><title>17986</title>
<g id="a_node51"><a xlink:title="6th_week">
<ellipse fill="#efff05" stroke="black" cx="1626.1" cy="-243.005" rx="32.4942" ry="18"/>
<text text-anchor="middle" x="1626.1" y="-239.305" font-family="Times,serif" font-size="14.00">17986</text>
</a>
</g>
</g>
<!-- 15258&#45;&gt;17986 -->
<g id="edge84" class="edge"><title>15258&#45;&gt;17986</title>
<path fill="none" stroke="black" d="M1539.73,-523.231C1556.03,-470.359 1604.14,-314.275 1620.55,-261.036"/>
</g>
<!-- 24698 -->
<g id="node72" class="node"><title>24698</title>
<g id="a_node72"><a xlink:title="6th_week">
<ellipse fill="#efff05" stroke="black" cx="1241.74" cy="-1501.88" rx="32.4942" ry="18"/>
<text text-anchor="middle" x="1241.74" y="-1498.18" font-family="Times,serif" font-size="14.00">24698</text>
</a>
</g>
</g>
<!-- 16188&#45;&gt;24698 -->
<g id="edge51" class="edge"><title>16188&#45;&gt;24698</title>
<path fill="none" stroke="black" d="M1300.2,-1280.27C1288.45,-1324.79 1258.17,-1439.6 1246.46,-1483.99"/>
</g>
<!-- 23042 -->
<g id="node67" class="node"><title>23042</title>
<g id="a_node67"><a xlink:title="6th_week">
<ellipse fill="#efff05" stroke="black" cx="1246.32" cy="-310.68" rx="32.4942" ry="18"/>
<text text-anchor="middle" x="1246.32" y="-306.98" font-family="Times,serif" font-size="14.00">23042</text>
</a>
</g>
</g>
<!-- 17463&#45;&gt;23042 -->
<g id="edge33" class="edge"><title>17463&#45;&gt;23042</title>
<path fill="none" stroke="black" d="M1319.37,-534.227C1304.79,-489.605 1266.72,-373.098 1252.13,-328.448"/>
</g>
<!-- 10458 -->
<g id="node90" class="node"><title>10458</title>
<g id="a_node90"><a xlink:title="6th_week">
<ellipse fill="#ffffff" stroke="black" cx="1700.5" cy="-17.5738" rx="32.4942" ry="18"/>
<text text-anchor="middle" x="1700.5" y="-13.8738" font-family="Times,serif" font-size="14.00">10458</text>
</a>
</g>
</g>
<!-- 17986&#45;&gt;10458 -->
<g id="edge39" class="edge"><title>17986&#45;&gt;10458</title>
<path fill="none" stroke="black" d="M1632.07,-224.938C1646.03,-182.623 1680.72,-77.5028 1694.61,-35.4138"/>
</g>
<!-- 18184 -->
<g id="node54" class="node"><title>18184</title>
<g id="a_node54"><a xlink:title="6th_week">
<ellipse fill="#efff05" stroke="black" cx="443.404" cy="-1231.82" rx="32.4942" ry="18"/>
<text text-anchor="middle" x="443.404" y="-1228.12" font-family="Times,serif" font-size="14.00">18184</text>
</a>
</g>
</g>
<!-- 18184&#45;&gt;27666 -->
<g id="edge75" class="edge"><title>18184&#45;&gt;27666</title>
<path fill="none" stroke="black" d="M469.752,-1220.79C510.486,-1203.74 588.27,-1171.18 628.801,-1154.21"/>
</g>
<!-- 25071 -->
<g id="node73" class="node"><title>25071</title>
<g id="a_node73"><a xlink:title="6th_week">
<ellipse fill="#ffffff" stroke="black" cx="558.33" cy="-548.876" rx="32.4942" ry="18"/>
<text text-anchor="middle" x="558.33" y="-545.176" font-family="Times,serif" font-size="14.00">25071</text>
</a>
</g>
</g>
<!-- 18646&#45;&gt;25071 -->
<g id="edge17" class="edge"><title>18646&#45;&gt;25071</title>
<path fill="none" stroke="black" d="M743.462,-648.341C703.28,-626.753 621.898,-583.029 581.774,-561.472"/>
</g>
<!-- 19517 -->
<g id="node59" class="node"><title>19517</title>
<g id="a_node59"><a xlink:title="6th_week">
<ellipse fill="grey" stroke="black" cx="1652.53" cy="-1530.4" rx="32.4942" ry="18"/>
<text text-anchor="middle" x="1652.53" y="-1526.7" font-family="Times,serif" font-size="14.00">19517</text>
</a>
</g>
</g>
<!-- 19517&#45;&gt;21897 -->
<g id="edge22" class="edge"><title>19517&#45;&gt;21897</title>
<path fill="none" stroke="black" d="M1642.44,-1513.04C1618.41,-1471.7 1558,-1367.76 1534.02,-1326.49"/>
</g>
<!-- 28523 -->
<g id="node86" class="node"><title>28523</title>
<g id="a_node86"><a xlink:title="6th_week">
<ellipse fill="grey" stroke="black" cx="1730.38" cy="-471.665" rx="32.4942" ry="18"/>
<text text-anchor="middle" x="1730.38" y="-467.965" font-family="Times,serif" font-size="14.00">28523</text>
</a>
</g>
</g>
<!-- 19534&#45;&gt;28523 -->
<g id="edge68" class="edge"><title>19534&#45;&gt;28523</title>
<path fill="none" stroke="black" d="M1596.02,-653.273C1623.77,-615.764 1690.17,-526.018 1717.89,-488.549"/>
</g>
<!-- 20101 -->
<g id="node62" class="node"><title>20101</title>
<g id="a_node62"><a xlink:title="6th_week">
<ellipse fill="#efff05" stroke="black" cx="45.8715" cy="-1196.6" rx="32.4942" ry="18"/>
<text text-anchor="middle" x="45.8715" y="-1192.9" font-family="Times,serif" font-size="14.00">20101</text>
</a>
</g>
</g>
<!-- 20101&#45;&gt;22377 -->
<g id="edge58" class="edge"><title>20101&#45;&gt;22377</title>
<path fill="none" stroke="black" d="M72.8508,-1186.24C112.401,-1171.06 185.701,-1142.93 225.255,-1127.75"/>
</g>
<!-- 20488 -->
<g id="node63" class="node"><title>20488</title>
<g id="a_node63"><a xlink:title="6th_week">
<ellipse fill="#ffffff" stroke="black" cx="2008.29" cy="-1041.88" rx="32.4942" ry="18"/>
<text text-anchor="middle" x="2008.29" y="-1038.18" font-family="Times,serif" font-size="14.00">20488</text>
</a>
</g>
</g>
<!-- 20488&#45;&gt;29044 -->
<g id="edge18" class="edge"><title>20488&#45;&gt;29044</title>
<path fill="none" stroke="black" d="M1978.89,-1033.82C1932.74,-1021.15 1843.83,-996.757 1797.76,-984.117"/>
</g>
<!-- 22377&#45;&gt;27510 -->
<g id="edge32" class="edge"><title>22377&#45;&gt;27510</title>
<path fill="none" stroke="black" d="M284.049,-1113.02C344.179,-1104.77 473.877,-1086.96 534.072,-1078.7"/>
</g>
<!-- 6486 -->
<g id="node89" class="node"><title>6486</title>
<g id="a_node89"><a xlink:title="6th_week">
<ellipse fill="#ff9f0f" stroke="black" cx="1701.96" cy="-1420.47" rx="28.6953" ry="18"/>
<text text-anchor="middle" x="1701.96" y="-1416.77" font-family="Times,serif" font-size="14.00">6486</text>
</a>
</g>
</g>
<!-- 23757&#45;&gt;6486 -->
<g id="edge25" class="edge"><title>23757&#45;&gt;6486</title>
<path fill="none" stroke="black" d="M1576.92,-1235.54C1602.67,-1273.62 1665.07,-1365.9 1690.69,-1403.8"/>
</g>
</g>
</svg>
