<?xml version="1.0" encoding="UTF-8" standalone="no"?>
<!DOCTYPE svg PUBLIC "-//W3C//DTD SVG 1.1//EN"
 "http://www.w3.org/Graphics/SVG/1.1/DTD/svg11.dtd">
<!-- Generated by graphviz version 2.38.0 (20140413.2041)
 -->
<!-- Title: %3 Pages: 1 -->
<svg width="2457pt" height="1753pt"
 viewBox="0.00 0.00 2457.00 1753.00" xmlns="http://www.w3.org/2000/svg" xmlns:xlink="http://www.w3.org/1999/xlink">
<g id="graph0" class="graph" transform="scale(1 1) rotate(0) translate(4 1749)">
<title>%3</title>
<polygon fill="white" stroke="none" points="-4,4 -4,-1749 2453,-1749 2453,4 -4,4"/>
<!-- 1117 -->
<g id="node1" class="node"><title>1117</title>
<g id="a_node1"><a xlink:title="Day_0">
<ellipse fill="#ffffff" stroke="black" cx="389.446" cy="-605.702" rx="28.6953" ry="18"/>
<text text-anchor="middle" x="389.446" y="-602.002" font-family="Times,serif" font-size="14.00">1117</text>
</a>
</g>
</g>
<!-- 8927 -->
<g id="node26" class="node"><title>8927</title>
<g id="a_node26"><a xlink:title="Day_0">
<ellipse fill="#ff9f0f" stroke="black" cx="509.67" cy="-729.175" rx="28.6953" ry="18"/>
<text text-anchor="middle" x="509.67" y="-725.475" font-family="Times,serif" font-size="14.00">8927</text>
</a>
</g>
</g>
<!-- 1117&#45;&gt;8927 -->
<g id="edge4" class="edge"><title>1117&#45;&gt;8927</title>
<path fill="none" stroke="black" d="M404.429,-621.09C427.467,-644.751 471.346,-689.816 494.498,-713.593"/>
</g>
<!-- 1168 -->
<g id="node2" class="node"><title>1168</title>
<g id="a_node2"><a xlink:title="PRE">
<ellipse fill="#ff9f0f" stroke="black" cx="873.519" cy="-587.182" rx="28.6953" ry="18"/>
<text text-anchor="middle" x="873.519" y="-583.482" font-family="Times,serif" font-size="14.00">1168</text>
</a>
</g>
</g>
<!-- 8598 -->
<g id="node25" class="node"><title>8598</title>
<g id="a_node25"><a xlink:title="Day_0,PRE">
<ellipse fill="#ff9f0f" stroke="black" cx="952.961" cy="-770.796" rx="28.6832" ry="18"/>
<ellipse fill="none" stroke="black" cx="952.961" cy="-770.796" rx="32.6952" ry="22"/>
<text text-anchor="middle" x="952.961" y="-767.096" font-family="Times,serif" font-size="14.00">8598</text>
</a>
</g>
</g>
<!-- 1168&#45;&gt;8598 -->
<g id="edge22" class="edge"><title>1168&#45;&gt;8598</title>
<path fill="none" stroke="black" d="M881.136,-604.787C895.816,-638.717 927.969,-713.032 943.793,-749.607"/>
</g>
<!-- 1482 -->
<g id="node3" class="node"><title>1482</title>
<g id="a_node3"><a xlink:title="PRE">
<ellipse fill="#ff9f0f" stroke="black" cx="781.121" cy="-700.904" rx="28.6953" ry="18"/>
<text text-anchor="middle" x="781.121" y="-697.204" font-family="Times,serif" font-size="14.00">1482</text>
</a>
</g>
</g>
<!-- 1482&#45;&gt;8598 -->
<g id="edge72" class="edge"><title>1482&#45;&gt;8598</title>
<path fill="none" stroke="black" d="M805.377,-710.769C836.832,-723.563 891.592,-745.835 924.834,-759.356"/>
</g>
<!-- 1805 -->
<g id="node4" class="node"><title>1805</title>
<g id="a_node4"><a xlink:title="PRE">
<ellipse fill="#ff9f0f" stroke="black" cx="1649.41" cy="-1386.24" rx="28.6953" ry="18"/>
<text text-anchor="middle" x="1649.41" y="-1382.54" font-family="Times,serif" font-size="14.00">1805</text>
</a>
</g>
</g>
<!-- 28725 -->
<g id="node54" class="node"><title>28725</title>
<g id="a_node54"><a xlink:title="PRE">
<ellipse fill="#ff9f0f" stroke="black" cx="1550.92" cy="-1265.58" rx="32.4942" ry="18"/>
<text text-anchor="middle" x="1550.92" y="-1261.88" font-family="Times,serif" font-size="14.00">28725</text>
</a>
</g>
</g>
<!-- 1805&#45;&gt;28725 -->
<g id="edge33" class="edge"><title>1805&#45;&gt;28725</title>
<path fill="none" stroke="black" d="M1636.13,-1369.97C1617.44,-1347.07 1583.55,-1305.55 1564.63,-1282.37"/>
</g>
<!-- 2372 -->
<g id="node5" class="node"><title>2372</title>
<g id="a_node5"><a xlink:title="PRE">
<ellipse fill="#ff9f0f" stroke="black" cx="1531.05" cy="-1412.51" rx="28.6953" ry="18"/>
<text text-anchor="middle" x="1531.05" y="-1408.81" font-family="Times,serif" font-size="14.00">2372</text>
</a>
</g>
</g>
<!-- 2372&#45;&gt;28725 -->
<g id="edge51" class="edge"><title>2372&#45;&gt;28725</title>
<path fill="none" stroke="black" d="M1533.48,-1394.49C1537.3,-1366.29 1544.64,-1312.04 1548.47,-1283.75"/>
</g>
<!-- 2542 -->
<g id="node6" class="node"><title>2542</title>
<g id="a_node6"><a xlink:title="Day_0">
<ellipse fill="#ff9f0f" stroke="black" cx="293.335" cy="-601.745" rx="28.6953" ry="18"/>
<text text-anchor="middle" x="293.335" y="-598.045" font-family="Times,serif" font-size="14.00">2542</text>
</a>
</g>
</g>
<!-- 2542&#45;&gt;8927 -->
<g id="edge67" class="edge"><title>2542&#45;&gt;8927</title>
<path fill="none" stroke="black" d="M314.472,-614.195C355.937,-638.62 447.489,-692.548 488.766,-716.861"/>
</g>
<!-- 26611 -->
<g id="node51" class="node"><title>26611</title>
<g id="a_node51"><a xlink:title="Day_0">
<ellipse fill="#ff9f0f" stroke="black" cx="128.219" cy="-500.681" rx="32.4942" ry="18"/>
<text text-anchor="middle" x="128.219" y="-496.981" font-family="Times,serif" font-size="14.00">26611</text>
</a>
</g>
</g>
<!-- 2542&#45;&gt;26611 -->
<g id="edge24" class="edge"><title>2542&#45;&gt;26611</title>
<path fill="none" stroke="black" d="M272.757,-589.149C241.462,-569.994 182.167,-533.701 150.109,-514.079"/>
</g>
<!-- 3239 -->
<g id="node7" class="node"><title>3239</title>
<g id="a_node7"><a xlink:title="Day_0">
<ellipse fill="#ff9f0f" stroke="black" cx="1462.6" cy="-292.014" rx="28.6953" ry="18"/>
<text text-anchor="middle" x="1462.6" y="-288.314" font-family="Times,serif" font-size="14.00">3239</text>
</a>
</g>
</g>
<!-- 13835 -->
<g id="node33" class="node"><title>13835</title>
<g id="a_node33"><a xlink:title="Day_0">
<ellipse fill="#ff9f0f" stroke="black" cx="1472.71" cy="-477.73" rx="32.4942" ry="18"/>
<text text-anchor="middle" x="1472.71" y="-474.03" font-family="Times,serif" font-size="14.00">13835</text>
</a>
</g>
</g>
<!-- 3239&#45;&gt;13835 -->
<g id="edge65" class="edge"><title>3239&#45;&gt;13835</title>
<path fill="none" stroke="black" d="M1463.59,-310.159C1465.52,-345.664 1469.78,-423.948 1471.72,-459.511"/>
</g>
<!-- 3388 -->
<g id="node8" class="node"><title>3388</title>
<g id="a_node8"><a xlink:title="Day_0">
<ellipse fill="#ff9f0f" stroke="black" cx="1601.12" cy="-736.388" rx="28.6953" ry="18"/>
<text text-anchor="middle" x="1601.12" y="-732.688" font-family="Times,serif" font-size="14.00">3388</text>
</a>
</g>
</g>
<!-- 7972 -->
<g id="node20" class="node"><title>7972</title>
<g id="a_node20"><a xlink:title="Day_0">
<ellipse fill="#ff9f0f" stroke="black" cx="1437.07" cy="-825.41" rx="28.6953" ry="18"/>
<text text-anchor="middle" x="1437.07" y="-821.71" font-family="Times,serif" font-size="14.00">7972</text>
</a>
</g>
</g>
<!-- 3388&#45;&gt;7972 -->
<g id="edge34" class="edge"><title>3388&#45;&gt;7972</title>
<path fill="none" stroke="black" d="M1579.33,-748.209C1547.96,-765.236 1490.37,-796.485 1458.94,-813.539"/>
</g>
<!-- 9918 -->
<g id="node73" class="node"><title>9918</title>
<g id="a_node73"><a xlink:title="6th_week">
<ellipse fill="#ff9f0f" stroke="black" cx="1715.88" cy="-639.294" rx="28.6953" ry="18"/>
<text text-anchor="middle" x="1715.88" y="-635.594" font-family="Times,serif" font-size="14.00">9918</text>
</a>
</g>
</g>
<!-- 3388&#45;&gt;9918 -->
<g id="edge18" class="edge"><title>3388&#45;&gt;9918</title>
<path fill="none" stroke="black" d="M1618.55,-721.641C1640.24,-703.286 1677.06,-672.133 1698.66,-653.862"/>
</g>
<!-- 5084 -->
<g id="node9" class="node"><title>5084</title>
<g id="a_node9"><a xlink:title="Day_0">
<ellipse fill="#ff9f0f" stroke="black" cx="1561.24" cy="-238.161" rx="28.6953" ry="18"/>
<text text-anchor="middle" x="1561.24" y="-234.461" font-family="Times,serif" font-size="14.00">5084</text>
</a>
</g>
</g>
<!-- 5084&#45;&gt;13835 -->
<g id="edge7" class="edge"><title>5084&#45;&gt;13835</title>
<path fill="none" stroke="black" d="M1554.73,-255.777C1538.36,-300.081 1495.61,-415.757 1479.23,-460.089"/>
</g>
<!-- 17544 -->
<g id="node74" class="node"><title>17544</title>
<g id="a_node74"><a xlink:title="Day_0">
<ellipse fill="#ffffff" stroke="black" cx="1627.6" cy="-57.4118" rx="32.4942" ry="18"/>
<text text-anchor="middle" x="1627.6" y="-53.7118" font-family="Times,serif" font-size="14.00">17544</text>
</a>
</g>
</g>
<!-- 5084&#45;&gt;17544 -->
<g id="edge52" class="edge"><title>5084&#45;&gt;17544</title>
<path fill="none" stroke="black" d="M1567.72,-220.501C1580.41,-185.946 1608.38,-109.756 1621.09,-75.1436"/>
</g>
<!-- 5093 -->
<g id="node10" class="node"><title>5093</title>
<g id="a_node10"><a xlink:title="Day_0">
<ellipse fill="#ff9f0f" stroke="black" cx="330.476" cy="-696.923" rx="28.6953" ry="18"/>
<text text-anchor="middle" x="330.476" y="-693.223" font-family="Times,serif" font-size="14.00">5093</text>
</a>
</g>
</g>
<!-- 5093&#45;&gt;8927 -->
<g id="edge20" class="edge"><title>5093&#45;&gt;8927</title>
<path fill="none" stroke="black" d="M358.082,-701.892C391.756,-707.952 448.344,-718.137 482.032,-724.201"/>
</g>
<!-- 5481 -->
<g id="node11" class="node"><title>5481</title>
<g id="a_node11"><a xlink:title="Day_0">
<ellipse fill="#ff9f0f" stroke="black" cx="243.39" cy="-370.747" rx="28.6953" ry="18"/>
<text text-anchor="middle" x="243.39" y="-367.047" font-family="Times,serif" font-size="14.00">5481</text>
</a>
</g>
</g>
<!-- 27201 -->
<g id="node52" class="node"><title>27201</title>
<g id="a_node52"><a xlink:title="Day_0">
<ellipse fill="#ff9f0f" stroke="black" cx="361.962" cy="-520.438" rx="32.4942" ry="18"/>
<text text-anchor="middle" x="361.962" y="-516.738" font-family="Times,serif" font-size="14.00">27201</text>
</a>
</g>
</g>
<!-- 5481&#45;&gt;27201 -->
<g id="edge53" class="edge"><title>5481&#45;&gt;27201</title>
<path fill="none" stroke="black" d="M256.305,-387.051C278.993,-415.694 325.77,-474.747 348.701,-503.696"/>
</g>
<!-- 5664 -->
<g id="node12" class="node"><title>5664</title>
<g id="a_node12"><a xlink:title="Day_0">
<ellipse fill="#ff9f0f" stroke="black" cx="330.484" cy="-781.643" rx="28.6953" ry="18"/>
<text text-anchor="middle" x="330.484" y="-777.943" font-family="Times,serif" font-size="14.00">5664</text>
</a>
</g>
</g>
<!-- 5664&#45;&gt;8927 -->
<g id="edge41" class="edge"><title>5664&#45;&gt;8927</title>
<path fill="none" stroke="black" d="M356.539,-774.014C390.512,-764.066 449.595,-746.766 483.583,-736.813"/>
</g>
<!-- 5715 -->
<g id="node13" class="node"><title>5715</title>
<g id="a_node13"><a xlink:title="Day_0">
<ellipse fill="#ff9f0f" stroke="black" cx="1964.56" cy="-537.955" rx="28.6953" ry="18"/>
<text text-anchor="middle" x="1964.56" y="-534.255" font-family="Times,serif" font-size="14.00">5715</text>
</a>
</g>
</g>
<!-- 23610 -->
<g id="node45" class="node"><title>23610</title>
<g id="a_node45"><a xlink:title="6th_week,Day_0,PRE">
<ellipse fill="#ff9f0f" stroke="black" cx="1924.97" cy="-745.391" rx="32.4948" ry="18"/>
<ellipse fill="none" stroke="black" cx="1924.97" cy="-745.391" rx="36.4945" ry="22"/>
<ellipse fill="none" stroke="black" cx="1924.97" cy="-745.391" rx="40.4942" ry="26"/>
<text text-anchor="middle" x="1924.97" y="-741.691" font-family="Times,serif" font-size="14.00">23610</text>
</a>
</g>
</g>
<!-- 5715&#45;&gt;23610 -->
<g id="edge69" class="edge"><title>5715&#45;&gt;23610</title>
<path fill="none" stroke="black" d="M1961.12,-556.001C1954.08,-592.866 1938.04,-676.929 1929.9,-719.566"/>
</g>
<!-- 5972 -->
<g id="node14" class="node"><title>5972</title>
<g id="a_node14"><a xlink:title="Day_0">
<ellipse fill="grey" stroke="black" cx="35.329" cy="-647.553" rx="28.6953" ry="18"/>
<text text-anchor="middle" x="35.329" y="-643.853" font-family="Times,serif" font-size="14.00">5972</text>
</a>
</g>
</g>
<!-- 20481 -->
<g id="node39" class="node"><title>20481</title>
<g id="a_node39"><a xlink:title="Day_0">
<ellipse fill="#ff9f0f" stroke="black" cx="221.444" cy="-705.513" rx="32.4942" ry="18"/>
<text text-anchor="middle" x="221.444" y="-701.813" font-family="Times,serif" font-size="14.00">20481</text>
</a>
</g>
</g>
<!-- 5972&#45;&gt;20481 -->
<g id="edge3" class="edge"><title>5972&#45;&gt;20481</title>
<path fill="none" stroke="black" d="M61.2074,-655.612C95.8663,-666.406 157.146,-685.49 193.044,-696.669"/>
</g>
<!-- 6128 -->
<g id="node15" class="node"><title>6128</title>
<g id="a_node15"><a xlink:title="PRE">
<ellipse fill="#ff9f0f" stroke="black" cx="1535.26" cy="-1489.24" rx="28.6953" ry="18"/>
<text text-anchor="middle" x="1535.26" y="-1485.54" font-family="Times,serif" font-size="14.00">6128</text>
</a>
</g>
</g>
<!-- 6128&#45;&gt;28725 -->
<g id="edge26" class="edge"><title>6128&#45;&gt;28725</title>
<path fill="none" stroke="black" d="M1536.54,-1470.93C1539.48,-1428.89 1546.7,-1325.81 1549.65,-1283.82"/>
</g>
<!-- 6600 -->
<g id="node16" class="node"><title>6600</title>
<g id="a_node16"><a xlink:title="PRE">
<ellipse fill="#ff9f0f" stroke="black" cx="1599.98" cy="-1443.11" rx="28.6953" ry="18"/>
<text text-anchor="middle" x="1599.98" y="-1439.41" font-family="Times,serif" font-size="14.00">6600</text>
</a>
</g>
</g>
<!-- 6600&#45;&gt;28725 -->
<g id="edge17" class="edge"><title>6600&#45;&gt;28725</title>
<path fill="none" stroke="black" d="M1595.01,-1425.11C1585.61,-1391.08 1565.32,-1317.69 1555.91,-1283.63"/>
</g>
<!-- 6913 -->
<g id="node17" class="node"><title>6913</title>
<g id="a_node17"><a xlink:title="PRE">
<ellipse fill="#ff9f0f" stroke="black" cx="1605.93" cy="-1513.79" rx="28.6953" ry="18"/>
<text text-anchor="middle" x="1605.93" y="-1510.09" font-family="Times,serif" font-size="14.00">6913</text>
</a>
</g>
</g>
<!-- 7515 -->
<g id="node19" class="node"><title>7515</title>
<g id="a_node19"><a xlink:title="PRE">
<ellipse fill="#ff9f0f" stroke="black" cx="1658" cy="-1726.85" rx="28.6953" ry="18"/>
<text text-anchor="middle" x="1658" y="-1723.15" font-family="Times,serif" font-size="14.00">7515</text>
</a>
</g>
</g>
<!-- 6913&#45;&gt;7515 -->
<g id="edge5" class="edge"><title>6913&#45;&gt;7515</title>
<path fill="none" stroke="black" d="M1610.28,-1531.59C1620.08,-1571.7 1643.8,-1668.76 1653.62,-1708.96"/>
</g>
<!-- 6913&#45;&gt;28725 -->
<g id="edge71" class="edge"><title>6913&#45;&gt;28725</title>
<path fill="none" stroke="black" d="M1601.98,-1495.94C1591.85,-1450.26 1565.08,-1329.48 1554.92,-1283.61"/>
</g>
<!-- 7149 -->
<g id="node18" class="node"><title>7149</title>
<g id="a_node18"><a xlink:title="PRE">
<ellipse fill="grey" stroke="black" cx="820.795" cy="-634.407" rx="28.6953" ry="18"/>
<text text-anchor="middle" x="820.795" y="-630.707" font-family="Times,serif" font-size="14.00">7149</text>
</a>
</g>
</g>
<!-- 7149&#45;&gt;8598 -->
<g id="edge73" class="edge"><title>7149&#45;&gt;8598</title>
<path fill="none" stroke="black" d="M835.699,-649.788C860.137,-675.007 908.637,-725.056 934.957,-752.216"/>
</g>
<!-- 7972&#45;&gt;8598 -->
<g id="edge23" class="edge"><title>7972&#45;&gt;8598</title>
<path fill="none" stroke="black" d="M1408.59,-822.197C1323.97,-812.651 1074.4,-784.495 985.148,-774.427"/>
</g>
<!-- 11792 -->
<g id="node30" class="node"><title>11792</title>
<g id="a_node30"><a xlink:title="Day_0">
<ellipse fill="#ff9f0f" stroke="black" cx="1467.17" cy="-975.673" rx="32.4942" ry="18"/>
<text text-anchor="middle" x="1467.17" y="-971.973" font-family="Times,serif" font-size="14.00">11792</text>
</a>
</g>
</g>
<!-- 7972&#45;&gt;11792 -->
<g id="edge2" class="edge"><title>7972&#45;&gt;11792</title>
<path fill="none" stroke="black" d="M1440.7,-843.535C1446.48,-872.416 1457.73,-928.561 1463.52,-957.483"/>
</g>
<!-- 7972&#45;&gt;13835 -->
<g id="edge54" class="edge"><title>7972&#45;&gt;13835</title>
<path fill="none" stroke="black" d="M1438.93,-807.206C1445.09,-747.126 1464.73,-555.57 1470.86,-495.754"/>
</g>
<!-- 21724 -->
<g id="node41" class="node"><title>21724</title>
<g id="a_node41"><a xlink:title="6th_week">
<ellipse fill="#ff9f0f" stroke="black" cx="1329.23" cy="-981.382" rx="32.4942" ry="18"/>
<text text-anchor="middle" x="1329.23" y="-977.682" font-family="Times,serif" font-size="14.00">21724</text>
</a>
</g>
</g>
<!-- 7972&#45;&gt;21724 -->
<g id="edge66" class="edge"><title>7972&#45;&gt;21724</title>
<path fill="none" stroke="black" d="M1425.53,-842.101C1404.88,-871.965 1361.84,-934.221 1341.01,-964.338"/>
</g>
<!-- 23169 -->
<g id="node44" class="node"><title>23169</title>
<g id="a_node44"><a xlink:title="Day_0">
<ellipse fill="#ff9f0f" stroke="black" cx="1340.44" cy="-725.262" rx="32.4942" ry="18"/>
<text text-anchor="middle" x="1340.44" y="-721.562" font-family="Times,serif" font-size="14.00">23169</text>
</a>
</g>
</g>
<!-- 7972&#45;&gt;23169 -->
<g id="edge64" class="edge"><title>7972&#45;&gt;23169</title>
<path fill="none" stroke="black" d="M1421.97,-809.761C1404.03,-791.167 1374.24,-760.298 1356.07,-741.463"/>
</g>
<!-- 7972&#45;&gt;23610 -->
<g id="edge31" class="edge"><title>7972&#45;&gt;23610</title>
<path fill="none" stroke="black" d="M1465.05,-820.82C1547.57,-807.287 1790.07,-767.515 1885.63,-751.844"/>
</g>
<!-- 28555 -->
<g id="node53" class="node"><title>28555</title>
<g id="a_node53"><a xlink:title="Day_0">
<ellipse fill="#ff9f0f" stroke="black" cx="1581.21" cy="-905.221" rx="32.4942" ry="18"/>
<text text-anchor="middle" x="1581.21" y="-901.521" font-family="Times,serif" font-size="14.00">28555</text>
</a>
</g>
</g>
<!-- 7972&#45;&gt;28555 -->
<g id="edge42" class="edge"><title>7972&#45;&gt;28555</title>
<path fill="none" stroke="black" d="M1458.65,-837.358C1485.35,-852.143 1530.63,-877.218 1558.05,-892.397"/>
</g>
<!-- 7972&#45;&gt;28725 -->
<g id="edge12" class="edge"><title>7972&#45;&gt;28725</title>
<path fill="none" stroke="black" d="M1441.67,-843.21C1460.02,-914.14 1527.81,-1176.23 1546.26,-1247.56"/>
</g>
<!-- 29925 -->
<g id="node57" class="node"><title>29925</title>
<g id="a_node57"><a xlink:title="3rd_week">
<ellipse fill="#ff9f0f" stroke="black" cx="1517.19" cy="-644.52" rx="32.4942" ry="18"/>
<text text-anchor="middle" x="1517.19" y="-640.82" font-family="Times,serif" font-size="14.00">29925</text>
</a>
</g>
</g>
<!-- 7972&#45;&gt;29925 -->
<g id="edge63" class="edge"><title>7972&#45;&gt;29925</title>
<path fill="none" stroke="black" d="M1444.75,-808.065C1460.02,-773.578 1494.06,-696.738 1509.41,-662.078"/>
</g>
<!-- 7987 -->
<g id="node21" class="node"><title>7987</title>
<g id="a_node21"><a xlink:title="Day_0">
<ellipse fill="#ff9f0f" stroke="black" cx="1443.66" cy="-18.3924" rx="28.6953" ry="18"/>
<text text-anchor="middle" x="1443.66" y="-14.6924" font-family="Times,serif" font-size="14.00">7987</text>
</a>
</g>
</g>
<!-- 29397 -->
<g id="node56" class="node"><title>29397</title>
<g id="a_node56"><a xlink:title="Day_0">
<ellipse fill="#ff9f0f" stroke="black" cx="1451.32" cy="-210.496" rx="32.4942" ry="18"/>
<text text-anchor="middle" x="1451.32" y="-206.796" font-family="Times,serif" font-size="14.00">29397</text>
</a>
</g>
</g>
<!-- 7987&#45;&gt;29397 -->
<g id="edge48" class="edge"><title>7987&#45;&gt;29397</title>
<path fill="none" stroke="black" d="M1444.38,-36.465C1445.84,-73.0784 1449.13,-155.641 1450.59,-192.331"/>
</g>
<!-- 8145 -->
<g id="node22" class="node"><title>8145</title>
<g id="a_node22"><a xlink:title="Day_0">
<ellipse fill="#ff9f0f" stroke="black" cx="28.4382" cy="-727.293" rx="28.6953" ry="18"/>
<text text-anchor="middle" x="28.4382" y="-723.593" font-family="Times,serif" font-size="14.00">8145</text>
</a>
</g>
</g>
<!-- 8145&#45;&gt;20481 -->
<g id="edge40" class="edge"><title>8145&#45;&gt;20481</title>
<path fill="none" stroke="black" d="M56.9169,-724.079C92.2543,-720.091 152.351,-713.31 189.305,-709.14"/>
</g>
<!-- 8393 -->
<g id="node23" class="node"><title>8393</title>
<g id="a_node23"><a xlink:title="PRE">
<ellipse fill="#ff9f0f" stroke="black" cx="947.443" cy="-574.035" rx="28.6953" ry="18"/>
<text text-anchor="middle" x="947.443" y="-570.335" font-family="Times,serif" font-size="14.00">8393</text>
</a>
</g>
</g>
<!-- 8393&#45;&gt;8598 -->
<g id="edge46" class="edge"><title>8393&#45;&gt;8598</title>
<path fill="none" stroke="black" d="M947.952,-592.193C948.966,-628.345 951.234,-709.216 952.336,-748.512"/>
</g>
<!-- 8408 -->
<g id="node24" class="node"><title>8408</title>
<g id="a_node24"><a xlink:title="PRE">
<ellipse fill="#ff9f0f" stroke="black" cx="1730.32" cy="-1322.3" rx="28.6953" ry="18"/>
<text text-anchor="middle" x="1730.32" y="-1318.6" font-family="Times,serif" font-size="14.00">8408</text>
</a>
</g>
</g>
<!-- 8408&#45;&gt;28725 -->
<g id="edge8" class="edge"><title>8408&#45;&gt;28725</title>
<path fill="none" stroke="black" d="M1704.62,-1314.17C1671.39,-1303.67 1613.7,-1285.43 1579.24,-1274.54"/>
</g>
<!-- 8598&#45;&gt;8927 -->
<g id="edge56" class="edge"><title>8598&#45;&gt;8927</title>
<path fill="none" stroke="black" d="M920.365,-767.735C836.987,-759.907 616.996,-739.252 538.229,-731.856"/>
</g>
<!-- 10714 -->
<g id="node29" class="node"><title>10714</title>
<g id="a_node29"><a xlink:title="PRE">
<ellipse fill="#ff9f0f" stroke="black" cx="764.695" cy="-786.604" rx="32.4942" ry="18"/>
<text text-anchor="middle" x="764.695" y="-782.904" font-family="Times,serif" font-size="14.00">10714</text>
</a>
</g>
</g>
<!-- 8598&#45;&gt;10714 -->
<g id="edge50" class="edge"><title>8598&#45;&gt;10714</title>
<path fill="none" stroke="black" d="M920.597,-773.513C886.008,-776.417 831.498,-780.994 796.951,-783.895"/>
</g>
<!-- 18766 -->
<g id="node38" class="node"><title>18766</title>
<g id="a_node38"><a xlink:title="PRE">
<ellipse fill="#ff9f0f" stroke="black" cx="780.899" cy="-866.482" rx="32.4942" ry="18"/>
<text text-anchor="middle" x="780.899" y="-862.782" font-family="Times,serif" font-size="14.00">18766</text>
</a>
</g>
</g>
<!-- 8598&#45;&gt;18766 -->
<g id="edge39" class="edge"><title>8598&#45;&gt;18766</title>
<path fill="none" stroke="black" d="M927.573,-784.914C894.2,-803.473 836.057,-835.807 803.911,-853.684"/>
</g>
<!-- 23129 -->
<g id="node43" class="node"><title>23129</title>
<g id="a_node43"><a xlink:title="PRE">
<ellipse fill="#ff9f0f" stroke="black" cx="823.983" cy="-925.599" rx="32.4942" ry="18"/>
<text text-anchor="middle" x="823.983" y="-921.899" font-family="Times,serif" font-size="14.00">23129</text>
</a>
</g>
</g>
<!-- 8598&#45;&gt;23129 -->
<g id="edge15" class="edge"><title>8598&#45;&gt;23129</title>
<path fill="none" stroke="black" d="M936.887,-790.088C911.361,-820.725 861.986,-879.986 837.891,-908.907"/>
</g>
<!-- 9682 -->
<g id="node62" class="node"><title>9682</title>
<g id="a_node62"><a xlink:title="PRE">
<ellipse fill="#ffffff" stroke="black" cx="893.52" cy="-952.216" rx="28.6953" ry="18"/>
<text text-anchor="middle" x="893.52" y="-948.516" font-family="Times,serif" font-size="14.00">9682</text>
</a>
</g>
</g>
<!-- 8598&#45;&gt;9682 -->
<g id="edge32" class="edge"><title>8598&#45;&gt;9682</title>
<path fill="none" stroke="black" d="M945.909,-792.319C934.038,-828.549 910.29,-901.033 899.32,-934.514"/>
</g>
<!-- 16837 -->
<g id="node64" class="node"><title>16837</title>
<g id="a_node64"><a xlink:title="PRE">
<ellipse fill="#ffffff" stroke="black" cx="972.524" cy="-933.294" rx="32.4942" ry="18"/>
<text text-anchor="middle" x="972.524" y="-929.594" font-family="Times,serif" font-size="14.00">16837</text>
</a>
</g>
</g>
<!-- 8598&#45;&gt;16837 -->
<g id="edge59" class="edge"><title>8598&#45;&gt;16837</title>
<path fill="none" stroke="black" d="M955.64,-793.05C959.554,-825.558 966.759,-885.406 970.358,-915.306"/>
</g>
<!-- 28252 -->
<g id="node70" class="node"><title>28252</title>
<g id="a_node70"><a xlink:title="PRE">
<ellipse fill="#ff9f0f" stroke="black" cx="1030.83" cy="-630.018" rx="32.4942" ry="18"/>
<text text-anchor="middle" x="1030.83" y="-626.318" font-family="Times,serif" font-size="14.00">28252</text>
</a>
</g>
</g>
<!-- 8598&#45;&gt;28252 -->
<g id="edge44" class="edge"><title>8598&#45;&gt;28252</title>
<path fill="none" stroke="black" d="M964.45,-750.023C979.849,-722.183 1006.9,-673.274 1021.25,-647.324"/>
</g>
<!-- 8946 -->
<g id="node27" class="node"><title>8946</title>
<g id="a_node27"><a xlink:title="Day_0">
<ellipse fill="grey" stroke="black" cx="372.604" cy="-854.617" rx="28.6953" ry="18"/>
<text text-anchor="middle" x="372.604" y="-850.917" font-family="Times,serif" font-size="14.00">8946</text>
</a>
</g>
</g>
<!-- 8927&#45;&gt;8946 -->
<g id="edge74" class="edge"><title>8927&#45;&gt;8946</title>
<path fill="none" stroke="black" d="M493.408,-744.057C467.029,-768.2 415.21,-815.624 388.844,-839.754"/>
</g>
<!-- 10113 -->
<g id="node28" class="node"><title>10113</title>
<g id="a_node28"><a xlink:title="Day_0">
<ellipse fill="#ff9f0f" stroke="black" cx="261.451" cy="-870.17" rx="32.4942" ry="18"/>
<text text-anchor="middle" x="261.451" y="-866.47" font-family="Times,serif" font-size="14.00">10113</text>
</a>
</g>
</g>
<!-- 8927&#45;&gt;10113 -->
<g id="edge60" class="edge"><title>8927&#45;&gt;10113</title>
<path fill="none" stroke="black" d="M488.076,-741.441C441.486,-767.905 331.899,-830.154 284.247,-857.221"/>
</g>
<!-- 8927&#45;&gt;20481 -->
<g id="edge35" class="edge"><title>8927&#45;&gt;20481</title>
<path fill="none" stroke="black" d="M481.245,-726.841C427.419,-722.423 310.923,-712.859 254.032,-708.189"/>
</g>
<!-- 24684 -->
<g id="node47" class="node"><title>24684</title>
<g id="a_node47"><a xlink:title="Day_0">
<ellipse fill="#ff9f0f" stroke="black" cx="431.209" cy="-901.612" rx="32.4942" ry="18"/>
<text text-anchor="middle" x="431.209" y="-897.912" font-family="Times,serif" font-size="14.00">24684</text>
</a>
</g>
</g>
<!-- 8927&#45;&gt;24684 -->
<g id="edge19" class="edge"><title>8927&#45;&gt;24684</title>
<path fill="none" stroke="black" d="M501.715,-746.658C486.677,-779.708 454.239,-850.997 439.185,-884.083"/>
</g>
<!-- 8927&#45;&gt;27201 -->
<g id="edge14" class="edge"><title>8927&#45;&gt;27201</title>
<path fill="none" stroke="black" d="M497.832,-712.446C470.175,-673.362 401.569,-576.409 373.856,-537.246"/>
</g>
<!-- 28794 -->
<g id="node55" class="node"><title>28794</title>
<g id="a_node55"><a xlink:title="Day_0">
<ellipse fill="#ff9f0f" stroke="black" cx="468.87" cy="-545.451" rx="32.4942" ry="18"/>
<text text-anchor="middle" x="468.87" y="-541.751" font-family="Times,serif" font-size="14.00">28794</text>
</a>
</g>
</g>
<!-- 8927&#45;&gt;28794 -->
<g id="edge25" class="edge"><title>8927&#45;&gt;28794</title>
<path fill="none" stroke="black" d="M505.684,-711.224C497.884,-676.1 480.685,-598.657 472.872,-563.475"/>
</g>
<!-- 15467 -->
<g id="node35" class="node"><title>15467</title>
<g id="a_node35"><a xlink:title="Day_0">
<ellipse fill="grey" stroke="black" cx="72.903" cy="-926.038" rx="32.4942" ry="18"/>
<text text-anchor="middle" x="72.903" y="-922.338" font-family="Times,serif" font-size="14.00">15467</text>
</a>
</g>
</g>
<!-- 10113&#45;&gt;15467 -->
<g id="edge13" class="edge"><title>10113&#45;&gt;15467</title>
<path fill="none" stroke="black" d="M232.404,-878.777C196.869,-889.306 137.083,-907.021 101.674,-917.513"/>
</g>
<!-- 24949 -->
<g id="node49" class="node"><title>24949</title>
<g id="a_node49"><a xlink:title="Day_0">
<ellipse fill="#ff9f0f" stroke="black" cx="114.834" cy="-998.782" rx="32.4942" ry="18"/>
<text text-anchor="middle" x="114.834" y="-995.082" font-family="Times,serif" font-size="14.00">24949</text>
</a>
</g>
</g>
<!-- 10113&#45;&gt;24949 -->
<g id="edge11" class="edge"><title>10113&#45;&gt;24949</title>
<path fill="none" stroke="black" d="M244.057,-885.428C215.839,-910.181 160.41,-958.804 132.206,-983.543"/>
</g>
<!-- 12414 -->
<g id="node31" class="node"><title>12414</title>
<g id="a_node31"><a xlink:title="PRE">
<ellipse fill="#ff9f0f" stroke="black" cx="1406.81" cy="-1407.13" rx="32.4942" ry="18"/>
<text text-anchor="middle" x="1406.81" y="-1403.43" font-family="Times,serif" font-size="14.00">12414</text>
</a>
</g>
</g>
<!-- 12414&#45;&gt;28725 -->
<g id="edge49" class="edge"><title>12414&#45;&gt;28725</title>
<path fill="none" stroke="black" d="M1422.78,-1391.44C1450.49,-1364.24 1507.13,-1308.6 1534.88,-1281.34"/>
</g>
<!-- 13649 -->
<g id="node32" class="node"><title>13649</title>
<g id="a_node32"><a xlink:title="Day_0">
<ellipse fill="#ff9f0f" stroke="black" cx="1607.17" cy="-503.978" rx="32.4942" ry="18"/>
<text text-anchor="middle" x="1607.17" y="-500.278" font-family="Times,serif" font-size="14.00">13649</text>
</a>
</g>
</g>
<!-- 13649&#45;&gt;29925 -->
<g id="edge68" class="edge"><title>13649&#45;&gt;29925</title>
<path fill="none" stroke="black" d="M1596.14,-521.211C1578.87,-548.185 1545.64,-600.085 1528.31,-627.146"/>
</g>
<!-- 14050 -->
<g id="node34" class="node"><title>14050</title>
<g id="a_node34"><a xlink:title="Day_0">
<ellipse fill="#ff9f0f" stroke="black" cx="1366.02" cy="-306.507" rx="32.4942" ry="18"/>
<text text-anchor="middle" x="1366.02" y="-302.807" font-family="Times,serif" font-size="14.00">14050</text>
</a>
</g>
</g>
<!-- 13835&#45;&gt;14050 -->
<g id="edge38" class="edge"><title>13835&#45;&gt;14050</title>
<path fill="none" stroke="black" d="M1462.09,-460.687C1441.69,-427.952 1397.24,-356.616 1376.75,-323.736"/>
</g>
<!-- 23896 -->
<g id="node46" class="node"><title>23896</title>
<g id="a_node46"><a xlink:title="Day_0">
<ellipse fill="#ff9f0f" stroke="black" cx="1592.64" cy="-318.094" rx="32.4942" ry="18"/>
<text text-anchor="middle" x="1592.64" y="-314.394" font-family="Times,serif" font-size="14.00">23896</text>
</a>
</g>
</g>
<!-- 13835&#45;&gt;23896 -->
<g id="edge70" class="edge"><title>13835&#45;&gt;23896</title>
<path fill="none" stroke="black" d="M1485.32,-460.948C1508.29,-430.369 1556.73,-365.899 1579.84,-335.132"/>
</g>
<!-- 13835&#45;&gt;29397 -->
<g id="edge21" class="edge"><title>13835&#45;&gt;29397</title>
<path fill="none" stroke="black" d="M1471.24,-459.362C1467.32,-410.425 1456.67,-277.318 1452.77,-228.639"/>
</g>
<!-- 16306 -->
<g id="node36" class="node"><title>16306</title>
<g id="a_node36"><a xlink:title="PRE">
<ellipse fill="#ffffff" stroke="black" cx="1388.61" cy="-1342.23" rx="32.4942" ry="18"/>
<text text-anchor="middle" x="1388.61" y="-1338.53" font-family="Times,serif" font-size="14.00">16306</text>
</a>
</g>
</g>
<!-- 16306&#45;&gt;28725 -->
<g id="edge1" class="edge"><title>16306&#45;&gt;28725</title>
<path fill="none" stroke="black" d="M1413.62,-1330.42C1444.21,-1315.97 1495.68,-1291.67 1526.16,-1277.28"/>
</g>
<!-- 17894 -->
<g id="node37" class="node"><title>17894</title>
<g id="a_node37"><a xlink:title="Day_0">
<ellipse fill="#ff9f0f" stroke="black" cx="2119.78" cy="-819.451" rx="32.4942" ry="18"/>
<text text-anchor="middle" x="2119.78" y="-815.751" font-family="Times,serif" font-size="14.00">17894</text>
</a>
</g>
</g>
<!-- 17894&#45;&gt;23610 -->
<g id="edge28" class="edge"><title>17894&#45;&gt;23610</title>
<path fill="none" stroke="black" d="M2092.7,-809.153C2058.09,-795.997 1998.13,-773.203 1960.06,-758.73"/>
</g>
<!-- 20703 -->
<g id="node40" class="node"><title>20703</title>
<g id="a_node40"><a xlink:title="Day_0">
<ellipse fill="#ff9f0f" stroke="black" cx="2097.92" cy="-876.677" rx="32.4942" ry="18"/>
<text text-anchor="middle" x="2097.92" y="-872.977" font-family="Times,serif" font-size="14.00">20703</text>
</a>
</g>
</g>
<!-- 20703&#45;&gt;23610 -->
<g id="edge30" class="edge"><title>20703&#45;&gt;23610</title>
<path fill="none" stroke="black" d="M2078.75,-862.126C2047.71,-838.559 1986.37,-791.999 1951.27,-765.354"/>
</g>
<!-- 15717 -->
<g id="node63" class="node"><title>15717</title>
<g id="a_node63"><a xlink:title="6th_week">
<ellipse fill="#ff9f0f" stroke="black" cx="1220.28" cy="-1136.71" rx="32.4942" ry="18"/>
<text text-anchor="middle" x="1220.28" y="-1133.01" font-family="Times,serif" font-size="14.00">15717</text>
</a>
</g>
</g>
<!-- 21724&#45;&gt;15717 -->
<g id="edge16" class="edge"><title>21724&#45;&gt;15717</title>
<path fill="none" stroke="black" d="M1317.36,-998.301C1296.4,-1028.18 1253.08,-1089.95 1232.13,-1119.81"/>
</g>
<!-- 22399 -->
<g id="node42" class="node"><title>22399</title>
<g id="a_node42"><a xlink:title="6th_week">
<ellipse fill="#ff9f0f" stroke="black" cx="2187.32" cy="-619.276" rx="32.4942" ry="18"/>
<text text-anchor="middle" x="2187.32" y="-615.576" font-family="Times,serif" font-size="14.00">22399</text>
</a>
</g>
</g>
<!-- 22399&#45;&gt;23610 -->
<g id="edge6" class="edge"><title>22399&#45;&gt;23610</title>
<path fill="none" stroke="black" d="M2162.64,-631.14C2115.06,-654.012 2010.67,-704.196 1957.49,-729.758"/>
</g>
<!-- 20588 -->
<g id="node66" class="node"><title>20588</title>
<g id="a_node66"><a xlink:title="6th_week">
<ellipse fill="#ff9f0f" stroke="black" cx="2371.7" cy="-539.376" rx="32.4942" ry="18"/>
<text text-anchor="middle" x="2371.7" y="-535.676" font-family="Times,serif" font-size="14.00">20588</text>
</a>
</g>
</g>
<!-- 22399&#45;&gt;20588 -->
<g id="edge37" class="edge"><title>22399&#45;&gt;20588</title>
<path fill="none" stroke="black" d="M2212.96,-608.166C2248.08,-592.944 2310.81,-565.76 2345.98,-550.52"/>
</g>
<!-- 26173 -->
<g id="node50" class="node"><title>26173</title>
<g id="a_node50"><a xlink:title="6th_week">
<ellipse fill="#ff9f0f" stroke="black" cx="2025.19" cy="-929.843" rx="32.4942" ry="18"/>
<text text-anchor="middle" x="2025.19" y="-926.143" font-family="Times,serif" font-size="14.00">26173</text>
</a>
</g>
</g>
<!-- 23610&#45;&gt;26173 -->
<g id="edge57" class="edge"><title>23610&#45;&gt;26173</title>
<path fill="none" stroke="black" d="M1938.49,-770.267C1959.11,-808.224 1997.92,-879.648 2015.77,-912.503"/>
</g>
<!-- 3694 -->
<g id="node58" class="node"><title>3694</title>
<g id="a_node58"><a xlink:title="6th_week">
<ellipse fill="#ffffff" stroke="black" cx="2077.93" cy="-637.573" rx="28.6953" ry="18"/>
<text text-anchor="middle" x="2077.93" y="-633.873" font-family="Times,serif" font-size="14.00">3694</text>
</a>
</g>
</g>
<!-- 23610&#45;&gt;3694 -->
<g id="edge62" class="edge"><title>23610&#45;&gt;3694</title>
<path fill="none" stroke="black" d="M1952.32,-726.115C1982.91,-704.552 2031.68,-670.169 2058.57,-651.218"/>
</g>
<!-- 5710 -->
<g id="node59" class="node"><title>5710</title>
<g id="a_node59"><a xlink:title="6th_week">
<ellipse fill="#ff0000" stroke="black" cx="2024.4" cy="-870.562" rx="28.6953" ry="18"/>
<text text-anchor="middle" x="2024.4" y="-866.862" font-family="Times,serif" font-size="14.00">5710</text>
</a>
</g>
</g>
<!-- 23610&#45;&gt;5710 -->
<g id="edge55" class="edge"><title>23610&#45;&gt;5710</title>
<path fill="none" stroke="black" d="M1943.44,-768.641C1963.21,-793.528 1994.06,-832.369 2011.41,-854.214"/>
</g>
<!-- 17175 -->
<g id="node65" class="node"><title>17175</title>
<g id="a_node65"><a xlink:title="Day_0">
<ellipse fill="#ff9f0f" stroke="black" cx="2216.46" cy="-771.06" rx="32.4942" ry="18"/>
<text text-anchor="middle" x="2216.46" y="-767.36" font-family="Times,serif" font-size="14.00">17175</text>
</a>
</g>
</g>
<!-- 23610&#45;&gt;17175 -->
<g id="edge45" class="edge"><title>23610&#45;&gt;17175</title>
<path fill="none" stroke="black" d="M1965.2,-748.933C2023.61,-754.077 2130.76,-763.512 2184.27,-768.225"/>
</g>
<!-- 20743 -->
<g id="node67" class="node"><title>20743</title>
<g id="a_node67"><a xlink:title="6th_week">
<ellipse fill="#ff9f0f" stroke="black" cx="2086.71" cy="-564.36" rx="32.4942" ry="18"/>
<text text-anchor="middle" x="2086.71" y="-560.66" font-family="Times,serif" font-size="14.00">20743</text>
</a>
</g>
</g>
<!-- 23610&#45;&gt;20743 -->
<g id="edge9" class="edge"><title>23610&#45;&gt;20743</title>
<path fill="none" stroke="black" d="M1945.13,-722.829C1978.24,-685.769 2043.35,-612.894 2072.28,-580.519"/>
</g>
<!-- 23647 -->
<g id="node69" class="node"><title>23647</title>
<g id="a_node69"><a xlink:title="Day_0">
<ellipse fill="#ff9f0f" stroke="black" cx="1989.05" cy="-583.118" rx="32.4942" ry="18"/>
<text text-anchor="middle" x="1989.05" y="-579.418" font-family="Times,serif" font-size="14.00">23647</text>
</a>
</g>
</g>
<!-- 23610&#45;&gt;23647 -->
<g id="edge10" class="edge"><title>23610&#45;&gt;23647</title>
<path fill="none" stroke="black" d="M1934.99,-720.036C1948.08,-686.876 1970.69,-629.624 1982.07,-600.793"/>
</g>
<!-- 29589 -->
<g id="node72" class="node"><title>29589</title>
<g id="a_node72"><a xlink:title="Day_0">
<ellipse fill="grey" stroke="black" cx="2120.84" cy="-690.412" rx="32.4942" ry="18"/>
<text text-anchor="middle" x="2120.84" y="-686.712" font-family="Times,serif" font-size="14.00">29589</text>
</a>
</g>
</g>
<!-- 23610&#45;&gt;29589 -->
<g id="edge27" class="edge"><title>23610&#45;&gt;29589</title>
<path fill="none" stroke="black" d="M1962.28,-734.92C1999.9,-724.359 2057.22,-708.271 2091.65,-698.605"/>
</g>
<!-- 16453 -->
<g id="node75" class="node"><title>16453</title>
<g id="a_node75"><a xlink:title="Day_0">
<ellipse fill="grey" stroke="black" cx="2114.98" cy="-753.54" rx="32.4942" ry="18"/>
<text text-anchor="middle" x="2114.98" y="-749.84" font-family="Times,serif" font-size="14.00">16453</text>
</a>
</g>
</g>
<!-- 23610&#45;&gt;16453 -->
<g id="edge47" class="edge"><title>23610&#45;&gt;16453</title>
<path fill="none" stroke="black" d="M1965.73,-747.139C2000.63,-748.636 2050.2,-750.762 2082.48,-752.146"/>
</g>
<!-- 24914 -->
<g id="node48" class="node"><title>24914</title>
<g id="a_node48"><a xlink:title="PRE">
<ellipse fill="#ff9f0f" stroke="black" cx="1678.41" cy="-1439.59" rx="32.4942" ry="18"/>
<text text-anchor="middle" x="1678.41" y="-1435.89" font-family="Times,serif" font-size="14.00">24914</text>
</a>
</g>
</g>
<!-- 24914&#45;&gt;28725 -->
<g id="edge29" class="edge"><title>24914&#45;&gt;28725</title>
<path fill="none" stroke="black" d="M1666.19,-1422.91C1641.88,-1389.73 1587.73,-1315.81 1563.3,-1282.47"/>
</g>
<!-- 6374 -->
<g id="node60" class="node"><title>6374</title>
<g id="a_node60"><a xlink:title="PRE">
<ellipse fill="#ff9f0f" stroke="black" cx="1455.76" cy="-1457.16" rx="28.6953" ry="18"/>
<text text-anchor="middle" x="1455.76" y="-1453.46" font-family="Times,serif" font-size="14.00">6374</text>
</a>
</g>
</g>
<!-- 28725&#45;&gt;6374 -->
<g id="edge43" class="edge"><title>28725&#45;&gt;6374</title>
<path fill="none" stroke="black" d="M1542.14,-1283.26C1523.97,-1319.85 1482.42,-1403.49 1464.38,-1439.8"/>
</g>
<!-- 6478 -->
<g id="node61" class="node"><title>6478</title>
<g id="a_node61"><a xlink:title="PRE">
<ellipse fill="#ffffff" stroke="black" cx="1716.25" cy="-1379.03" rx="28.6953" ry="18"/>
<text text-anchor="middle" x="1716.25" y="-1375.33" font-family="Times,serif" font-size="14.00">6478</text>
</a>
</g>
</g>
<!-- 28725&#45;&gt;6478 -->
<g id="edge58" class="edge"><title>28725&#45;&gt;6478</title>
<path fill="none" stroke="black" d="M1571.53,-1279.72C1603.64,-1301.76 1665.21,-1344 1696.68,-1365.6"/>
</g>
<!-- 29563 -->
<g id="node71" class="node"><title>29563</title>
<g id="a_node71"><a xlink:title="PRE">
<ellipse fill="#ff9f0f" stroke="black" cx="1729.65" cy="-1257.6" rx="32.4942" ry="18"/>
<text text-anchor="middle" x="1729.65" y="-1253.9" font-family="Times,serif" font-size="14.00">29563</text>
</a>
</g>
</g>
<!-- 28725&#45;&gt;29563 -->
<g id="edge36" class="edge"><title>28725&#45;&gt;29563</title>
<path fill="none" stroke="black" d="M1583.71,-1264.12C1615.95,-1262.68 1664.9,-1260.49 1697.08,-1259.06"/>
</g>
<!-- 22541 -->
<g id="node68" class="node"><title>22541</title>
<g id="a_node68"><a xlink:title="Day_0">
<ellipse fill="#ff9f0f" stroke="black" cx="2416.3" cy="-786.041" rx="32.4942" ry="18"/>
<text text-anchor="middle" x="2416.3" y="-782.341" font-family="Times,serif" font-size="14.00">22541</text>
</a>
</g>
</g>
<!-- 17175&#45;&gt;22541 -->
<g id="edge61" class="edge"><title>17175&#45;&gt;22541</title>
<path fill="none" stroke="black" d="M2249.01,-773.5C2286.29,-776.294 2346.97,-780.843 2384.09,-783.627"/>
</g>
</g>
</svg>
