<?xml version="1.0" encoding="UTF-8" standalone="no"?>
<!DOCTYPE svg PUBLIC "-//W3C//DTD SVG 1.1//EN"
 "http://www.w3.org/Graphics/SVG/1.1/DTD/svg11.dtd">
<!-- Generated by graphviz version 2.38.0 (20140413.2041)
 -->
<!-- Title: %3 Pages: 1 -->
<svg width="1668pt" height="1474pt"
 viewBox="0.00 0.00 1668.00 1474.00" xmlns="http://www.w3.org/2000/svg" xmlns:xlink="http://www.w3.org/1999/xlink">
<g id="graph0" class="graph" transform="scale(1 1) rotate(0) translate(4 1470)">
<title>%3</title>
<polygon fill="white" stroke="none" points="-4,4 -4,-1470 1664,-1470 1664,4 -4,4"/>
<!-- 2413 -->
<g id="node1" class="node"><title>2413</title>
<g id="a_node1"><a xlink:title="6th_week">
<ellipse fill="#ff9f0f" stroke="black" cx="1440.12" cy="-384.398" rx="28.6953" ry="18"/>
<text text-anchor="middle" x="1440.12" y="-380.698" font-family="Times,serif" font-size="14.00">2413</text>
</a>
</g>
</g>
<!-- 13910 -->
<g id="node20" class="node"><title>13910</title>
<g id="a_node20"><a xlink:title="6th_week">
<ellipse fill="#ff9f0f" stroke="black" cx="1271.59" cy="-363.195" rx="32.4942" ry="18"/>
<text text-anchor="middle" x="1271.59" y="-359.495" font-family="Times,serif" font-size="14.00">13910</text>
</a>
</g>
</g>
<!-- 2413&#45;&gt;13910 -->
<g id="edge15" class="edge"><title>2413&#45;&gt;13910</title>
<path fill="none" stroke="black" d="M1411.91,-380.849C1381.93,-377.076 1334.61,-371.123 1303.34,-367.189"/>
</g>
<!-- 2948 -->
<g id="node2" class="node"><title>2948</title>
<g id="a_node2"><a xlink:title="6th_week">
<ellipse fill="grey" stroke="black" cx="1102.08" cy="-869.862" rx="28.6953" ry="18"/>
<text text-anchor="middle" x="1102.08" y="-866.162" font-family="Times,serif" font-size="14.00">2948</text>
</a>
</g>
</g>
<!-- 25007 -->
<g id="node37" class="node"><title>25007</title>
<g id="a_node37"><a xlink:title="6th_week">
<ellipse fill="#ff9f0f" stroke="black" cx="1247.13" cy="-829.474" rx="32.4942" ry="18"/>
<text text-anchor="middle" x="1247.13" y="-825.774" font-family="Times,serif" font-size="14.00">25007</text>
</a>
</g>
</g>
<!-- 2948&#45;&gt;25007 -->
<g id="edge28" class="edge"><title>2948&#45;&gt;25007</title>
<path fill="none" stroke="black" d="M1128.34,-862.548C1153.65,-855.501 1191.86,-844.863 1218.07,-837.565"/>
</g>
<!-- 4792 -->
<g id="node3" class="node"><title>4792</title>
<g id="a_node3"><a xlink:title="6th_week">
<ellipse fill="#ff9f0f" stroke="black" cx="1594" cy="-716.124" rx="28.6953" ry="18"/>
<text text-anchor="middle" x="1594" y="-712.424" font-family="Times,serif" font-size="14.00">4792</text>
</a>
</g>
</g>
<!-- 36633 -->
<g id="node56" class="node"><title>36633</title>
<g id="a_node56"><a xlink:title="6th_week">
<ellipse fill="#ff9f0f" stroke="black" cx="1437.84" cy="-757.568" rx="32.4942" ry="18"/>
<text text-anchor="middle" x="1437.84" y="-753.868" font-family="Times,serif" font-size="14.00">36633</text>
</a>
</g>
</g>
<!-- 4792&#45;&gt;36633 -->
<g id="edge50" class="edge"><title>4792&#45;&gt;36633</title>
<path fill="none" stroke="black" d="M1567.51,-723.155C1539.75,-730.522 1496.25,-742.067 1467.39,-749.725"/>
</g>
<!-- 5647 -->
<g id="node4" class="node"><title>5647</title>
<g id="a_node4"><a xlink:title="6th_week">
<ellipse fill="#ff9f0f" stroke="black" cx="1366.3" cy="-1098.79" rx="28.6953" ry="18"/>
<text text-anchor="middle" x="1366.3" y="-1095.09" font-family="Times,serif" font-size="14.00">5647</text>
</a>
</g>
</g>
<!-- 8128 -->
<g id="node9" class="node"><title>8128</title>
<g id="a_node9"><a xlink:title="6th_week">
<ellipse fill="grey" stroke="black" cx="1279.34" cy="-1234.04" rx="28.6953" ry="18"/>
<text text-anchor="middle" x="1279.34" y="-1230.34" font-family="Times,serif" font-size="14.00">8128</text>
</a>
</g>
</g>
<!-- 5647&#45;&gt;8128 -->
<g id="edge11" class="edge"><title>5647&#45;&gt;8128</title>
<path fill="none" stroke="black" d="M1355.46,-1115.65C1338.8,-1141.57 1307.06,-1190.93 1290.31,-1216.97"/>
</g>
<!-- 15678 -->
<g id="node24" class="node"><title>15678</title>
<g id="a_node24"><a xlink:title="6th_week">
<ellipse fill="grey" stroke="black" cx="1417.25" cy="-1241.86" rx="32.4942" ry="18"/>
<text text-anchor="middle" x="1417.25" y="-1238.16" font-family="Times,serif" font-size="14.00">15678</text>
</a>
</g>
</g>
<!-- 5647&#45;&gt;15678 -->
<g id="edge16" class="edge"><title>5647&#45;&gt;15678</title>
<path fill="none" stroke="black" d="M1372.65,-1116.62C1382.41,-1144.04 1401.01,-1196.26 1410.82,-1223.81"/>
</g>
<!-- 15762 -->
<g id="node25" class="node"><title>15762</title>
<g id="a_node25"><a xlink:title="6th_week">
<ellipse fill="#ff9f0f" stroke="black" cx="1462.78" cy="-1298.27" rx="32.4942" ry="18"/>
<text text-anchor="middle" x="1462.78" y="-1294.57" font-family="Times,serif" font-size="14.00">15762</text>
</a>
</g>
</g>
<!-- 5647&#45;&gt;15762 -->
<g id="edge45" class="edge"><title>5647&#45;&gt;15762</title>
<path fill="none" stroke="black" d="M1374.69,-1116.15C1392.94,-1153.87 1436.04,-1243 1454.33,-1280.82"/>
</g>
<!-- 20604 -->
<g id="node32" class="node"><title>20604</title>
<g id="a_node32"><a xlink:title="6th_week">
<ellipse fill="#ff9f0f" stroke="black" cx="1355.95" cy="-1287.95" rx="32.4942" ry="18"/>
<text text-anchor="middle" x="1355.95" y="-1284.25" font-family="Times,serif" font-size="14.00">20604</text>
</a>
</g>
</g>
<!-- 5647&#45;&gt;20604 -->
<g id="edge1" class="edge"><title>5647&#45;&gt;20604</title>
<path fill="none" stroke="black" d="M1365.31,-1116.93C1363.33,-1153.09 1358.92,-1233.76 1356.94,-1269.87"/>
</g>
<!-- 5647&#45;&gt;25007 -->
<g id="edge39" class="edge"><title>5647&#45;&gt;25007</title>
<path fill="none" stroke="black" d="M1358.48,-1081.12C1336.89,-1032.32 1276.61,-896.087 1254.98,-847.21"/>
</g>
<!-- 26515 -->
<g id="node39" class="node"><title>26515</title>
<g id="a_node39"><a xlink:title="6th_week">
<ellipse fill="#ffffff" stroke="black" cx="1504.95" cy="-1210.41" rx="32.4942" ry="18"/>
<text text-anchor="middle" x="1504.95" y="-1206.71" font-family="Times,serif" font-size="14.00">26515</text>
</a>
</g>
</g>
<!-- 5647&#45;&gt;26515 -->
<g id="edge12" class="edge"><title>5647&#45;&gt;26515</title>
<path fill="none" stroke="black" d="M1384.14,-1113.16C1410.47,-1134.35 1459.5,-1173.82 1486.29,-1195.39"/>
</g>
<!-- 35920 -->
<g id="node53" class="node"><title>35920</title>
<g id="a_node53"><a xlink:title="6th_week">
<ellipse fill="#ff9f0f" stroke="black" cx="1531.64" cy="-1161.13" rx="32.4942" ry="18"/>
<text text-anchor="middle" x="1531.64" y="-1157.43" font-family="Times,serif" font-size="14.00">35920</text>
</a>
</g>
</g>
<!-- 5647&#45;&gt;35920 -->
<g id="edge40" class="edge"><title>5647&#45;&gt;35920</title>
<path fill="none" stroke="black" d="M1391.05,-1108.13C1421.5,-1119.61 1473.02,-1139.03 1504.52,-1150.91"/>
</g>
<!-- 5766 -->
<g id="node5" class="node"><title>5766</title>
<g id="a_node5"><a xlink:title="6th_week">
<ellipse fill="#ff9f0f" stroke="black" cx="1127.57" cy="-193.117" rx="28.6953" ry="18"/>
<text text-anchor="middle" x="1127.57" y="-189.417" font-family="Times,serif" font-size="14.00">5766</text>
</a>
</g>
</g>
<!-- 11774 -->
<g id="node17" class="node"><title>11774</title>
<g id="a_node17"><a xlink:title="6th_week">
<ellipse fill="#ff9f0f" stroke="black" cx="1078.54" cy="-26.0697" rx="32.4942" ry="18"/>
<text text-anchor="middle" x="1078.54" y="-22.3697" font-family="Times,serif" font-size="14.00">11774</text>
</a>
</g>
</g>
<!-- 5766&#45;&gt;11774 -->
<g id="edge7" class="edge"><title>5766&#45;&gt;11774</title>
<path fill="none" stroke="black" d="M1122.32,-175.24C1112.91,-143.172 1093.26,-76.2281 1083.83,-44.0707"/>
</g>
<!-- 16707 -->
<g id="node28" class="node"><title>16707</title>
<g id="a_node28"><a xlink:title="6th_week">
<ellipse fill="#ff9f0f" stroke="black" cx="1161.26" cy="-17.8878" rx="32.4942" ry="18"/>
<text text-anchor="middle" x="1161.26" y="-14.1878" font-family="Times,serif" font-size="14.00">16707</text>
</a>
</g>
</g>
<!-- 5766&#45;&gt;16707 -->
<g id="edge17" class="edge"><title>5766&#45;&gt;16707</title>
<path fill="none" stroke="black" d="M1131.05,-175.025C1137.52,-141.359 1151.34,-69.4729 1157.8,-35.882"/>
</g>
<!-- 32391 -->
<g id="node48" class="node"><title>32391</title>
<g id="a_node48"><a xlink:title="6th_week">
<ellipse fill="#ff9f0f" stroke="black" cx="1156.1" cy="-389.5" rx="32.4942" ry="18"/>
<text text-anchor="middle" x="1156.1" y="-385.8" font-family="Times,serif" font-size="14.00">32391</text>
</a>
</g>
</g>
<!-- 5766&#45;&gt;32391 -->
<g id="edge22" class="edge"><title>5766&#45;&gt;32391</title>
<path fill="none" stroke="black" d="M1130.2,-211.24C1135.64,-248.652 1148.04,-334.046 1153.47,-371.42"/>
</g>
<!-- 6196 -->
<g id="node6" class="node"><title>6196</title>
<g id="a_node6"><a xlink:title="6th_week">
<ellipse fill="grey" stroke="black" cx="983.362" cy="-1130.81" rx="28.6953" ry="18"/>
<text text-anchor="middle" x="983.362" y="-1127.11" font-family="Times,serif" font-size="14.00">6196</text>
</a>
</g>
</g>
<!-- 24476 -->
<g id="node36" class="node"><title>24476</title>
<g id="a_node36"><a xlink:title="6th_week">
<ellipse fill="grey" stroke="black" cx="1114.47" cy="-1013.7" rx="32.4942" ry="18"/>
<text text-anchor="middle" x="1114.47" y="-1010" font-family="Times,serif" font-size="14.00">24476</text>
</a>
</g>
</g>
<!-- 6196&#45;&gt;24476 -->
<g id="edge14" class="edge"><title>6196&#45;&gt;24476</title>
<path fill="none" stroke="black" d="M999.967,-1115.98C1024.91,-1093.7 1071.82,-1051.8 1097.17,-1029.16"/>
</g>
<!-- 6885 -->
<g id="node7" class="node"><title>6885</title>
<g id="a_node7"><a xlink:title="6th_week">
<ellipse fill="#ff9f0f" stroke="black" cx="82.446" cy="-168.432" rx="28.6953" ry="18"/>
<text text-anchor="middle" x="82.446" y="-164.732" font-family="Times,serif" font-size="14.00">6885</text>
</a>
</g>
</g>
<!-- 31734 -->
<g id="node47" class="node"><title>31734</title>
<g id="a_node47"><a xlink:title="6th_week">
<ellipse fill="#ff9f0f" stroke="black" cx="223.914" cy="-254.068" rx="32.4942" ry="18"/>
<text text-anchor="middle" x="223.914" y="-250.368" font-family="Times,serif" font-size="14.00">31734</text>
</a>
</g>
</g>
<!-- 6885&#45;&gt;31734 -->
<g id="edge18" class="edge"><title>6885&#45;&gt;31734</title>
<path fill="none" stroke="black" d="M103.32,-181.068C129.606,-196.98 174.582,-224.205 201.551,-240.531"/>
</g>
<!-- 6911 -->
<g id="node8" class="node"><title>6911</title>
<g id="a_node8"><a xlink:title="6th_week">
<ellipse fill="grey" stroke="black" cx="1413.21" cy="-247.031" rx="28.6953" ry="18"/>
<text text-anchor="middle" x="1413.21" y="-243.331" font-family="Times,serif" font-size="14.00">6911</text>
</a>
</g>
</g>
<!-- 6911&#45;&gt;13910 -->
<g id="edge4" class="edge"><title>6911&#45;&gt;13910</title>
<path fill="none" stroke="black" d="M1395.56,-261.508C1368.57,-283.647 1317.3,-325.703 1289.91,-348.166"/>
</g>
<!-- 8408 -->
<g id="node10" class="node"><title>8408</title>
<g id="a_node10"><a xlink:title="6th_week">
<ellipse fill="#ff9f0f" stroke="black" cx="1202.02" cy="-600.385" rx="28.6953" ry="18"/>
<text text-anchor="middle" x="1202.02" y="-596.685" font-family="Times,serif" font-size="14.00">8408</text>
</a>
</g>
</g>
<!-- 8408&#45;&gt;25007 -->
<g id="edge19" class="edge"><title>8408&#45;&gt;25007</title>
<path fill="none" stroke="black" d="M1205.56,-618.361C1213.97,-661.08 1235.09,-768.311 1243.55,-811.264"/>
</g>
<!-- 8408&#45;&gt;32391 -->
<g id="edge44" class="edge"><title>8408&#45;&gt;32391</title>
<path fill="none" stroke="black" d="M1198.1,-582.405C1189.43,-542.563 1168.67,-447.234 1160,-407.434"/>
</g>
<!-- 9637 -->
<g id="node11" class="node"><title>9637</title>
<g id="a_node11"><a xlink:title="6th_week">
<ellipse fill="#ff9f0f" stroke="black" cx="1240.26" cy="-218.248" rx="28.6953" ry="18"/>
<text text-anchor="middle" x="1240.26" y="-214.548" font-family="Times,serif" font-size="14.00">9637</text>
</a>
</g>
</g>
<!-- 9637&#45;&gt;13910 -->
<g id="edge5" class="edge"><title>9637&#45;&gt;13910</title>
<path fill="none" stroke="black" d="M1244.16,-236.312C1250.17,-264.088 1261.6,-316.99 1267.64,-344.902"/>
</g>
<!-- 10049 -->
<g id="node12" class="node"><title>10049</title>
<g id="a_node12"><a xlink:title="6th_week">
<ellipse fill="#ffffff" stroke="black" cx="1242.27" cy="-973.777" rx="32.4942" ry="18"/>
<text text-anchor="middle" x="1242.27" y="-970.077" font-family="Times,serif" font-size="14.00">10049</text>
</a>
</g>
</g>
<!-- 10049&#45;&gt;25007 -->
<g id="edge2" class="edge"><title>10049&#45;&gt;25007</title>
<path fill="none" stroke="black" d="M1242.88,-955.501C1243.82,-927.744 1245.59,-875.27 1246.52,-847.601"/>
</g>
<!-- 10238 -->
<g id="node13" class="node"><title>10238</title>
<g id="a_node13"><a xlink:title="6th_week">
<ellipse fill="grey" stroke="black" cx="1340.91" cy="-718.664" rx="32.4942" ry="18"/>
<text text-anchor="middle" x="1340.91" y="-714.964" font-family="Times,serif" font-size="14.00">10238</text>
</a>
</g>
</g>
<!-- 10238&#45;&gt;25007 -->
<g id="edge51" class="edge"><title>10238&#45;&gt;25007</title>
<path fill="none" stroke="black" d="M1327.07,-735.014C1309.34,-755.965 1278.78,-792.074 1261.03,-813.056"/>
</g>
<!-- 10775 -->
<g id="node14" class="node"><title>10775</title>
<g id="a_node14"><a xlink:title="6th_week">
<ellipse fill="#ff9f0f" stroke="black" cx="258.945" cy="-348.27" rx="32.4942" ry="18"/>
<text text-anchor="middle" x="258.945" y="-344.57" font-family="Times,serif" font-size="14.00">10775</text>
</a>
</g>
</g>
<!-- 34189 -->
<g id="node51" class="node"><title>34189</title>
<g id="a_node51"><a xlink:title="6th_week">
<ellipse fill="#ff9f0f" stroke="black" cx="432.179" cy="-378.129" rx="32.4942" ry="18"/>
<text text-anchor="middle" x="432.179" y="-374.429" font-family="Times,serif" font-size="14.00">34189</text>
</a>
</g>
</g>
<!-- 10775&#45;&gt;34189 -->
<g id="edge25" class="edge"><title>10775&#45;&gt;34189</title>
<path fill="none" stroke="black" d="M290.316,-353.678C321.712,-359.089 369.728,-367.365 401.041,-372.762"/>
</g>
<!-- 11138 -->
<g id="node15" class="node"><title>11138</title>
<g id="a_node15"><a xlink:title="6th_week">
<ellipse fill="#ff9f0f" stroke="black" cx="1321.47" cy="-187.752" rx="32.4942" ry="18"/>
<text text-anchor="middle" x="1321.47" y="-184.052" font-family="Times,serif" font-size="14.00">11138</text>
</a>
</g>
</g>
<!-- 11138&#45;&gt;13910 -->
<g id="edge32" class="edge"><title>11138&#45;&gt;13910</title>
<path fill="none" stroke="black" d="M1316.42,-205.54C1306.86,-239.166 1286.23,-311.697 1276.66,-345.36"/>
</g>
<!-- 11458 -->
<g id="node16" class="node"><title>11458</title>
<g id="a_node16"><a xlink:title="6th_week">
<ellipse fill="grey" stroke="black" cx="277.819" cy="-425.263" rx="32.4942" ry="18"/>
<text text-anchor="middle" x="277.819" y="-421.563" font-family="Times,serif" font-size="14.00">11458</text>
</a>
</g>
</g>
<!-- 11458&#45;&gt;34189 -->
<g id="edge47" class="edge"><title>11458&#45;&gt;34189</title>
<path fill="none" stroke="black" d="M306.491,-416.508C334.216,-408.042 375.987,-395.288 403.66,-386.838"/>
</g>
<!-- 12429 -->
<g id="node18" class="node"><title>12429</title>
<g id="a_node18"><a xlink:title="6th_week">
<ellipse fill="grey" stroke="black" cx="316.549" cy="-229.301" rx="32.4942" ry="18"/>
<text text-anchor="middle" x="316.549" y="-225.601" font-family="Times,serif" font-size="14.00">12429</text>
</a>
</g>
</g>
<!-- 12429&#45;&gt;34189 -->
<g id="edge37" class="edge"><title>12429&#45;&gt;34189</title>
<path fill="none" stroke="black" d="M329.588,-246.085C351.796,-274.668 396.714,-332.482 419.01,-361.179"/>
</g>
<!-- 13049 -->
<g id="node19" class="node"><title>13049</title>
<g id="a_node19"><a xlink:title="6th_week">
<ellipse fill="grey" stroke="black" cx="390.836" cy="-189.161" rx="32.4942" ry="18"/>
<text text-anchor="middle" x="390.836" y="-185.461" font-family="Times,serif" font-size="14.00">13049</text>
</a>
</g>
</g>
<!-- 13049&#45;&gt;34189 -->
<g id="edge9" class="edge"><title>13049&#45;&gt;34189</title>
<path fill="none" stroke="black" d="M394.801,-207.281C402.703,-243.4 420.334,-323.991 428.227,-360.065"/>
</g>
<!-- 16026 -->
<g id="node26" class="node"><title>16026</title>
<g id="a_node26"><a xlink:title="6th_week">
<ellipse fill="#ff9f0f" stroke="black" cx="1485.75" cy="-274.576" rx="32.4942" ry="18"/>
<text text-anchor="middle" x="1485.75" y="-270.876" font-family="Times,serif" font-size="14.00">16026</text>
</a>
</g>
</g>
<!-- 13910&#45;&gt;16026 -->
<g id="edge36" class="edge"><title>13910&#45;&gt;16026</title>
<path fill="none" stroke="black" d="M1297.85,-352.328C1339.06,-335.274 1418.47,-302.416 1459.61,-285.393"/>
</g>
<!-- 18730 -->
<g id="node30" class="node"><title>18730</title>
<g id="a_node30"><a xlink:title="6th_week">
<ellipse fill="#ff9f0f" stroke="black" cx="1405.42" cy="-329.149" rx="32.4942" ry="18"/>
<text text-anchor="middle" x="1405.42" y="-325.449" font-family="Times,serif" font-size="14.00">18730</text>
</a>
</g>
</g>
<!-- 13910&#45;&gt;18730 -->
<g id="edge26" class="edge"><title>13910&#45;&gt;18730</title>
<path fill="none" stroke="black" d="M1301.29,-355.639C1323.47,-349.997 1353.64,-342.321 1375.8,-336.684"/>
</g>
<!-- 30121 -->
<g id="node44" class="node"><title>30121</title>
<g id="a_node44"><a xlink:title="6th_week">
<ellipse fill="grey" stroke="black" cx="1065.45" cy="-563.07" rx="32.4942" ry="18"/>
<text text-anchor="middle" x="1065.45" y="-559.37" font-family="Times,serif" font-size="14.00">30121</text>
</a>
</g>
</g>
<!-- 13910&#45;&gt;30121 -->
<g id="edge41" class="edge"><title>13910&#45;&gt;30121</title>
<path fill="none" stroke="black" d="M1255.41,-378.879C1216.97,-416.15 1120.49,-509.707 1081.84,-547.183"/>
</g>
<!-- 36383 -->
<g id="node55" class="node"><title>36383</title>
<g id="a_node55"><a xlink:title="6th_week">
<ellipse fill="#ff9f0f" stroke="black" cx="1332.41" cy="-237.959" rx="32.4942" ry="18"/>
<text text-anchor="middle" x="1332.41" y="-234.259" font-family="Times,serif" font-size="14.00">36383</text>
</a>
</g>
</g>
<!-- 13910&#45;&gt;36383 -->
<g id="edge20" class="edge"><title>13910&#45;&gt;36383</title>
<path fill="none" stroke="black" d="M1280.05,-345.781C1291.6,-321.989 1312.21,-279.554 1323.83,-255.629"/>
</g>
<!-- 14137 -->
<g id="node21" class="node"><title>14137</title>
<g id="a_node21"><a xlink:title="6th_week">
<ellipse fill="#ff9f0f" stroke="black" cx="466.987" cy="-528.743" rx="32.4942" ry="18"/>
<text text-anchor="middle" x="466.987" y="-525.043" font-family="Times,serif" font-size="14.00">14137</text>
</a>
</g>
</g>
<!-- 14137&#45;&gt;34189 -->
<g id="edge35" class="edge"><title>14137&#45;&gt;34189</title>
<path fill="none" stroke="black" d="M462.857,-510.874C456.194,-482.043 443.14,-425.558 436.412,-396.445"/>
</g>
<!-- 14256 -->
<g id="node22" class="node"><title>14256</title>
<g id="a_node22"><a xlink:title="6th_week">
<ellipse fill="#ff9f0f" stroke="black" cx="310.749" cy="-538.966" rx="32.4942" ry="18"/>
<text text-anchor="middle" x="310.749" y="-535.266" font-family="Times,serif" font-size="14.00">14256</text>
</a>
</g>
</g>
<!-- 14256&#45;&gt;34189 -->
<g id="edge27" class="edge"><title>14256&#45;&gt;34189</title>
<path fill="none" stroke="black" d="M323.287,-522.359C346.555,-491.539 396.173,-425.82 419.527,-394.886"/>
</g>
<!-- 14346 -->
<g id="node23" class="node"><title>14346</title>
<g id="a_node23"><a xlink:title="6th_week">
<ellipse fill="#ffffff" stroke="black" cx="1105.85" cy="-784.272" rx="32.4942" ry="18"/>
<text text-anchor="middle" x="1105.85" y="-780.572" font-family="Times,serif" font-size="14.00">14346</text>
</a>
</g>
</g>
<!-- 14346&#45;&gt;25007 -->
<g id="edge24" class="edge"><title>14346&#45;&gt;25007</title>
<path fill="none" stroke="black" d="M1134.1,-793.31C1158.74,-801.194 1194.3,-812.572 1218.93,-820.451"/>
</g>
<!-- 27189 -->
<g id="node41" class="node"><title>27189</title>
<g id="a_node41"><a xlink:title="6th_week">
<ellipse fill="grey" stroke="black" cx="1538.47" cy="-1448.27" rx="32.4942" ry="18"/>
<text text-anchor="middle" x="1538.47" y="-1444.57" font-family="Times,serif" font-size="14.00">27189</text>
</a>
</g>
</g>
<!-- 15762&#45;&gt;27189 -->
<g id="edge13" class="edge"><title>15762&#45;&gt;27189</title>
<path fill="none" stroke="black" d="M1471.61,-1315.77C1486.19,-1344.68 1515.15,-1402.05 1529.7,-1430.88"/>
</g>
<!-- 16215 -->
<g id="node27" class="node"><title>16215</title>
<g id="a_node27"><a xlink:title="6th_week">
<ellipse fill="grey" stroke="black" cx="470.737" cy="-212.587" rx="32.4942" ry="18"/>
<text text-anchor="middle" x="470.737" y="-208.887" font-family="Times,serif" font-size="14.00">16215</text>
</a>
</g>
</g>
<!-- 16215&#45;&gt;34189 -->
<g id="edge34" class="edge"><title>16215&#45;&gt;34189</title>
<path fill="none" stroke="black" d="M466.537,-230.618C459.12,-262.461 443.787,-328.293 436.374,-360.12"/>
</g>
<!-- 17361 -->
<g id="node29" class="node"><title>17361</title>
<g id="a_node29"><a xlink:title="6th_week">
<ellipse fill="#ff9f0f" stroke="black" cx="296.976" cy="-291.562" rx="32.4942" ry="18"/>
<text text-anchor="middle" x="296.976" y="-287.862" font-family="Times,serif" font-size="14.00">17361</text>
</a>
</g>
</g>
<!-- 17361&#45;&gt;34189 -->
<g id="edge53" class="edge"><title>17361&#45;&gt;34189</title>
<path fill="none" stroke="black" d="M318.399,-305.279C343.715,-321.488 385.583,-348.295 410.856,-364.477"/>
</g>
<!-- 19873 -->
<g id="node31" class="node"><title>19873</title>
<g id="a_node31"><a xlink:title="6th_week">
<ellipse fill="#ff9f0f" stroke="black" cx="1441.5" cy="-832.896" rx="32.4942" ry="18"/>
<text text-anchor="middle" x="1441.5" y="-829.196" font-family="Times,serif" font-size="14.00">19873</text>
</a>
</g>
</g>
<!-- 19873&#45;&gt;25007 -->
<g id="edge52" class="edge"><title>19873&#45;&gt;25007</title>
<path fill="none" stroke="black" d="M1408.97,-832.323C1373.09,-831.692 1315.69,-830.681 1279.77,-830.048"/>
</g>
<!-- 32645 -->
<g id="node49" class="node"><title>32645</title>
<g id="a_node49"><a xlink:title="6th_week">
<ellipse fill="grey" stroke="black" cx="1627.68" cy="-844.771" rx="32.4942" ry="18"/>
<text text-anchor="middle" x="1627.68" y="-841.071" font-family="Times,serif" font-size="14.00">32645</text>
</a>
</g>
</g>
<!-- 19873&#45;&gt;32645 -->
<g id="edge43" class="edge"><title>19873&#45;&gt;32645</title>
<path fill="none" stroke="black" d="M1473.93,-834.965C1508,-837.137 1561.26,-840.535 1595.31,-842.706"/>
</g>
<!-- 21282 -->
<g id="node33" class="node"><title>21282</title>
<g id="a_node33"><a xlink:title="6th_week">
<ellipse fill="#ff9f0f" stroke="black" cx="1592.1" cy="-971.05" rx="32.4942" ry="18"/>
<text text-anchor="middle" x="1592.1" y="-967.35" font-family="Times,serif" font-size="14.00">21282</text>
</a>
</g>
</g>
<!-- 33003 -->
<g id="node50" class="node"><title>33003</title>
<g id="a_node50"><a xlink:title="6th_week">
<ellipse fill="#ff9f0f" stroke="black" cx="1419.71" cy="-904.912" rx="32.4942" ry="18"/>
<text text-anchor="middle" x="1419.71" y="-901.212" font-family="Times,serif" font-size="14.00">33003</text>
</a>
</g>
</g>
<!-- 21282&#45;&gt;33003 -->
<g id="edge3" class="edge"><title>21282&#45;&gt;33003</title>
<path fill="none" stroke="black" d="M1565.16,-960.716C1532.77,-948.29 1478.75,-927.566 1446.45,-915.173"/>
</g>
<!-- 23156 -->
<g id="node34" class="node"><title>23156</title>
<g id="a_node34"><a xlink:title="6th_week">
<ellipse fill="#ffffff" stroke="black" cx="282.627" cy="-481.282" rx="32.4942" ry="18"/>
<text text-anchor="middle" x="282.627" y="-477.582" font-family="Times,serif" font-size="14.00">23156</text>
</a>
</g>
</g>
<!-- 23156&#45;&gt;34189 -->
<g id="edge49" class="edge"><title>23156&#45;&gt;34189</title>
<path fill="none" stroke="black" d="M303.108,-467.155C331.587,-447.512 382.863,-412.145 411.465,-392.416"/>
</g>
<!-- 23596 -->
<g id="node35" class="node"><title>23596</title>
<g id="a_node35"><a xlink:title="6th_week">
<ellipse fill="grey" stroke="black" cx="529.377" cy="-269.454" rx="32.4942" ry="18"/>
<text text-anchor="middle" x="529.377" y="-265.754" font-family="Times,serif" font-size="14.00">23596</text>
</a>
</g>
</g>
<!-- 23596&#45;&gt;34189 -->
<g id="edge23" class="edge"><title>23596&#45;&gt;34189</title>
<path fill="none" stroke="black" d="M514.615,-285.96C496.24,-306.504 465.053,-341.374 446.762,-361.825"/>
</g>
<!-- 24476&#45;&gt;25007 -->
<g id="edge29" class="edge"><title>24476&#45;&gt;25007</title>
<path fill="none" stroke="black" d="M1126.72,-996.699C1151.99,-961.603 1209.67,-881.495 1234.92,-846.434"/>
</g>
<!-- 28572 -->
<g id="node43" class="node"><title>28572</title>
<g id="a_node43"><a xlink:title="6th_week">
<ellipse fill="grey" stroke="black" cx="1047.87" cy="-1183.73" rx="32.4942" ry="18"/>
<text text-anchor="middle" x="1047.87" y="-1180.03" font-family="Times,serif" font-size="14.00">28572</text>
</a>
</g>
</g>
<!-- 24476&#45;&gt;28572 -->
<g id="edge10" class="edge"><title>24476&#45;&gt;28572</title>
<path fill="none" stroke="black" d="M1107.47,-1031.57C1094.65,-1064.32 1067.53,-1133.53 1054.77,-1166.1"/>
</g>
<!-- 26929 -->
<g id="node40" class="node"><title>26929</title>
<g id="a_node40"><a xlink:title="6th_week">
<ellipse fill="#ffffff" stroke="black" cx="1152.7" cy="-937.271" rx="32.4942" ry="18"/>
<text text-anchor="middle" x="1152.7" y="-933.571" font-family="Times,serif" font-size="14.00">26929</text>
</a>
</g>
</g>
<!-- 25007&#45;&gt;26929 -->
<g id="edge30" class="edge"><title>25007&#45;&gt;26929</title>
<path fill="none" stroke="black" d="M1232.79,-845.846C1215.04,-866.107 1184.99,-900.413 1167.18,-920.745"/>
</g>
<!-- 25007&#45;&gt;30121 -->
<g id="edge6" class="edge"><title>25007&#45;&gt;30121</title>
<path fill="none" stroke="black" d="M1235.49,-812.404C1202.68,-764.286 1109.69,-627.942 1077,-579.998"/>
</g>
<!-- 25007&#45;&gt;33003 -->
<g id="edge55" class="edge"><title>25007&#45;&gt;33003</title>
<path fill="none" stroke="black" d="M1272.97,-840.768C1305.6,-855.03 1361.4,-879.423 1393.98,-893.664"/>
</g>
<!-- 36296 -->
<g id="node54" class="node"><title>36296</title>
<g id="a_node54"><a xlink:title="6th_week">
<ellipse fill="#ff9f0f" stroke="black" cx="1330.62" cy="-941.092" rx="32.4942" ry="18"/>
<text text-anchor="middle" x="1330.62" y="-937.392" font-family="Times,serif" font-size="14.00">36296</text>
</a>
</g>
</g>
<!-- 25007&#45;&gt;36296 -->
<g id="edge38" class="edge"><title>25007&#45;&gt;36296</title>
<path fill="none" stroke="black" d="M1259.81,-846.426C1275.6,-867.527 1302.38,-903.341 1318.1,-924.346"/>
</g>
<!-- 25007&#45;&gt;36633 -->
<g id="edge46" class="edge"><title>25007&#45;&gt;36633</title>
<path fill="none" stroke="black" d="M1274.05,-819.324C1310.3,-805.658 1374.42,-781.481 1410.75,-767.782"/>
</g>
<!-- 25429 -->
<g id="node38" class="node"><title>25429</title>
<g id="a_node38"><a xlink:title="6th_week">
<ellipse fill="#ff9f0f" stroke="black" cx="200.769" cy="-395.595" rx="32.4942" ry="18"/>
<text text-anchor="middle" x="200.769" y="-391.895" font-family="Times,serif" font-size="14.00">25429</text>
</a>
</g>
</g>
<!-- 25429&#45;&gt;34189 -->
<g id="edge31" class="edge"><title>25429&#45;&gt;34189</title>
<path fill="none" stroke="black" d="M233.434,-393.13C277.537,-389.801 355.663,-383.905 399.681,-380.582"/>
</g>
<!-- 35288 -->
<g id="node52" class="node"><title>35288</title>
<g id="a_node52"><a xlink:title="6th_week">
<ellipse fill="grey" stroke="black" cx="32.3515" cy="-408.713" rx="32.4942" ry="18"/>
<text text-anchor="middle" x="32.3515" y="-405.013" font-family="Times,serif" font-size="14.00">35288</text>
</a>
</g>
</g>
<!-- 25429&#45;&gt;35288 -->
<g id="edge8" class="edge"><title>25429&#45;&gt;35288</title>
<path fill="none" stroke="black" d="M168.297,-398.125C138.474,-400.447 94.5159,-403.871 64.7245,-406.192"/>
</g>
<!-- 27528 -->
<g id="node42" class="node"><title>27528</title>
<g id="a_node42"><a xlink:title="6th_week">
<ellipse fill="#ffffff" stroke="black" cx="388.993" cy="-481.086" rx="32.4942" ry="18"/>
<text text-anchor="middle" x="388.993" y="-477.386" font-family="Times,serif" font-size="14.00">27528</text>
</a>
</g>
</g>
<!-- 27528&#45;&gt;34189 -->
<g id="edge48" class="edge"><title>27528&#45;&gt;34189</title>
<path fill="none" stroke="black" d="M396.516,-463.153C404.442,-444.256 416.849,-414.677 424.743,-395.858"/>
</g>
<!-- 30356 -->
<g id="node45" class="node"><title>30356</title>
<g id="a_node45"><a xlink:title="6th_week">
<ellipse fill="#ff9f0f" stroke="black" cx="743.422" cy="-469.577" rx="32.4942" ry="18"/>
<text text-anchor="middle" x="743.422" y="-465.877" font-family="Times,serif" font-size="14.00">30356</text>
</a>
</g>
</g>
<!-- 30121&#45;&gt;30356 -->
<g id="edge21" class="edge"><title>30121&#45;&gt;30356</title>
<path fill="none" stroke="black" d="M1036.59,-554.691C975.455,-536.942 833.513,-495.733 772.334,-477.971"/>
</g>
<!-- 30356&#45;&gt;34189 -->
<g id="edge54" class="edge"><title>30356&#45;&gt;34189</title>
<path fill="none" stroke="black" d="M714.699,-461.138C655.556,-443.761 520.753,-404.154 461.285,-386.681"/>
</g>
<!-- 30856 -->
<g id="node46" class="node"><title>30856</title>
<g id="a_node46"><a xlink:title="6th_week">
<ellipse fill="#ff9f0f" stroke="black" cx="393.643" cy="-237.549" rx="32.4942" ry="18"/>
<text text-anchor="middle" x="393.643" y="-233.849" font-family="Times,serif" font-size="14.00">30856</text>
</a>
</g>
</g>
<!-- 30856&#45;&gt;34189 -->
<g id="edge33" class="edge"><title>30856&#45;&gt;34189</title>
<path fill="none" stroke="black" d="M398.523,-255.353C405.895,-282.247 419.796,-332.956 427.216,-360.025"/>
</g>
<!-- 31734&#45;&gt;34189 -->
<g id="edge42" class="edge"><title>31734&#45;&gt;34189</title>
<path fill="none" stroke="black" d="M246.202,-267.344C286.182,-291.16 369.644,-340.878 409.736,-364.761"/>
</g>
</g>
</svg>
