<?xml version="1.0" encoding="UTF-8" standalone="no"?>
<!DOCTYPE svg PUBLIC "-//W3C//DTD SVG 1.1//EN"
 "http://www.w3.org/Graphics/SVG/1.1/DTD/svg11.dtd">
<!-- Generated by graphviz version 2.38.0 (20140413.2041)
 -->
<!-- Title: %3 Pages: 1 -->
<svg width="2367pt" height="3181pt"
 viewBox="0.00 0.00 2367.00 3181.00" xmlns="http://www.w3.org/2000/svg" xmlns:xlink="http://www.w3.org/1999/xlink">
<g id="graph0" class="graph" transform="scale(1 1) rotate(0) translate(4 3177)">
<title>%3</title>
<polygon fill="white" stroke="none" points="-4,4 -4,-3177 2363,-3177 2363,4 -4,4"/>
<!-- 1516 -->
<g id="node1" class="node"><title>1516</title>
<g id="a_node1"><a xlink:title="Day_0">
<ellipse fill="#20ff05" stroke="black" cx="531.275" cy="-446.357" rx="28.6953" ry="18"/>
<text text-anchor="middle" x="531.275" y="-442.657" font-family="Times,serif" font-size="14.00">1516</text>
</a>
</g>
</g>
<!-- 2123 -->
<g id="node2" class="node"><title>2123</title>
<g id="a_node2"><a xlink:title="Day_0">
<ellipse fill="grey" stroke="black" cx="382.821" cy="-372.651" rx="28.6953" ry="18"/>
<text text-anchor="middle" x="382.821" y="-368.951" font-family="Times,serif" font-size="14.00">2123</text>
</a>
</g>
</g>
<!-- 1516&#45;&gt;2123 -->
<g id="edge38" class="edge"><title>1516&#45;&gt;2123</title>
<path fill="none" stroke="black" d="M508.728,-435.162C480.825,-421.309 433.58,-397.853 405.58,-383.951"/>
</g>
<!-- 14809 -->
<g id="node4" class="node"><title>14809</title>
<g id="a_node4"><a xlink:title="Day_0">
<ellipse fill="#20ff05" stroke="black" cx="749.904" cy="-763.534" rx="32.4942" ry="18"/>
<text text-anchor="middle" x="749.904" y="-759.834" font-family="Times,serif" font-size="14.00">14809</text>
</a>
</g>
</g>
<!-- 1516&#45;&gt;14809 -->
<g id="edge49" class="edge"><title>1516&#45;&gt;14809</title>
<path fill="none" stroke="black" d="M542.721,-462.963C580.414,-517.645 700.397,-691.711 738.307,-746.71"/>
</g>
<!-- 19027 -->
<g id="node5" class="node"><title>19027</title>
<g id="a_node5"><a xlink:title="Day_0">
<ellipse fill="#ffffff" stroke="black" cx="514.289" cy="-308.969" rx="32.4942" ry="18"/>
<text text-anchor="middle" x="514.289" y="-305.269" font-family="Times,serif" font-size="14.00">19027</text>
</a>
</g>
</g>
<!-- 1516&#45;&gt;19027 -->
<g id="edge44" class="edge"><title>1516&#45;&gt;19027</title>
<path fill="none" stroke="black" d="M529.054,-428.396C525.799,-402.065 519.766,-353.267 516.51,-326.935"/>
</g>
<!-- 22250 -->
<g id="node7" class="node"><title>22250</title>
<g id="a_node7"><a xlink:title="Day_0">
<ellipse fill="#20ff05" stroke="black" cx="590.263" cy="-269.833" rx="32.4942" ry="18"/>
<text text-anchor="middle" x="590.263" y="-266.133" font-family="Times,serif" font-size="14.00">22250</text>
</a>
</g>
</g>
<!-- 1516&#45;&gt;22250 -->
<g id="edge65" class="edge"><title>1516&#45;&gt;22250</title>
<path fill="none" stroke="black" d="M537.256,-428.459C548.562,-394.626 572.949,-321.648 584.267,-287.778"/>
</g>
<!-- 23976 -->
<g id="node8" class="node"><title>23976</title>
<g id="a_node8"><a xlink:title="Day_0">
<ellipse fill="#20ff05" stroke="black" cx="509.93" cy="-221.521" rx="32.4942" ry="18"/>
<text text-anchor="middle" x="509.93" y="-217.821" font-family="Times,serif" font-size="14.00">23976</text>
</a>
</g>
</g>
<!-- 1516&#45;&gt;23976 -->
<g id="edge36" class="edge"><title>1516&#45;&gt;23976</title>
<path fill="none" stroke="black" d="M529.564,-428.337C525.567,-386.239 515.653,-281.809 511.649,-239.626"/>
</g>
<!-- 24162 -->
<g id="node9" class="node"><title>24162</title>
<g id="a_node9"><a xlink:title="Day_0">
<ellipse fill="#20ff05" stroke="black" cx="427.721" cy="-328.318" rx="32.4942" ry="18"/>
<text text-anchor="middle" x="427.721" y="-324.618" font-family="Times,serif" font-size="14.00">24162</text>
</a>
</g>
</g>
<!-- 1516&#45;&gt;24162 -->
<g id="edge20" class="edge"><title>1516&#45;&gt;24162</title>
<path fill="none" stroke="black" d="M517.309,-430.437C497.656,-408.035 462.021,-367.415 442.13,-344.743"/>
</g>
<!-- 25443 -->
<g id="node10" class="node"><title>25443</title>
<g id="a_node10"><a xlink:title="Day_0">
<ellipse fill="grey" stroke="black" cx="421.76" cy="-268.544" rx="32.4942" ry="18"/>
<text text-anchor="middle" x="421.76" y="-264.844" font-family="Times,serif" font-size="14.00">25443</text>
</a>
</g>
</g>
<!-- 1516&#45;&gt;25443 -->
<g id="edge55" class="edge"><title>1516&#45;&gt;25443</title>
<path fill="none" stroke="black" d="M520.774,-429.307C499.895,-395.407 453.374,-319.874 432.39,-285.803"/>
</g>
<!-- 28688 -->
<g id="node11" class="node"><title>28688</title>
<g id="a_node11"><a xlink:title="Day_0">
<ellipse fill="#20ff05" stroke="black" cx="683.322" cy="-355.773" rx="32.4942" ry="18"/>
<text text-anchor="middle" x="683.322" y="-352.073" font-family="Times,serif" font-size="14.00">28688</text>
</a>
</g>
</g>
<!-- 1516&#45;&gt;28688 -->
<g id="edge12" class="edge"><title>1516&#45;&gt;28688</title>
<path fill="none" stroke="black" d="M552.098,-433.951C580.645,-416.944 631.723,-386.513 661.024,-369.057"/>
</g>
<!-- 30317 -->
<g id="node12" class="node"><title>30317</title>
<g id="a_node12"><a xlink:title="Day_0">
<ellipse fill="#20ff05" stroke="black" cx="664.62" cy="-305.179" rx="32.4942" ry="18"/>
<text text-anchor="middle" x="664.62" y="-301.479" font-family="Times,serif" font-size="14.00">30317</text>
</a>
</g>
</g>
<!-- 1516&#45;&gt;30317 -->
<g id="edge60" class="edge"><title>1516&#45;&gt;30317</title>
<path fill="none" stroke="black" d="M546.055,-430.709C571.551,-403.715 623.543,-348.67 649.364,-321.331"/>
</g>
<!-- 31700 -->
<g id="node14" class="node"><title>31700</title>
<g id="a_node14"><a xlink:title="Day_0">
<ellipse fill="grey" stroke="black" cx="409.469" cy="-438.521" rx="32.4942" ry="18"/>
<text text-anchor="middle" x="409.469" y="-434.821" font-family="Times,serif" font-size="14.00">31700</text>
</a>
</g>
</g>
<!-- 1516&#45;&gt;31700 -->
<g id="edge4" class="edge"><title>1516&#45;&gt;31700</title>
<path fill="none" stroke="black" d="M502.717,-444.519C484.575,-443.353 461.039,-441.839 442.152,-440.624"/>
</g>
<!-- 38505 -->
<g id="node16" class="node"><title>38505</title>
<g id="a_node16"><a xlink:title="Day_0">
<ellipse fill="#20ff05" stroke="black" cx="681.862" cy="-499.503" rx="32.4942" ry="18"/>
<text text-anchor="middle" x="681.862" y="-495.803" font-family="Times,serif" font-size="14.00">38505</text>
</a>
</g>
</g>
<!-- 1516&#45;&gt;38505 -->
<g id="edge3" class="edge"><title>1516&#45;&gt;38505</title>
<path fill="none" stroke="black" d="M556.48,-455.252C583.524,-464.797 626.346,-479.91 654.275,-489.767"/>
</g>
<!-- 40584 -->
<g id="node17" class="node"><title>40584</title>
<g id="a_node17"><a xlink:title="Day_0">
<ellipse fill="#20ff05" stroke="black" cx="450.545" cy="-553.811" rx="32.4942" ry="18"/>
<text text-anchor="middle" x="450.545" y="-550.111" font-family="Times,serif" font-size="14.00">40584</text>
</a>
</g>
</g>
<!-- 1516&#45;&gt;40584 -->
<g id="edge16" class="edge"><title>1516&#45;&gt;40584</title>
<path fill="none" stroke="black" d="M519.014,-462.677C503.928,-482.756 478.447,-516.673 463.188,-536.983"/>
</g>
<!-- 46423 -->
<g id="node18" class="node"><title>46423</title>
<g id="a_node18"><a xlink:title="Day_0">
<ellipse fill="#20ff05" stroke="black" cx="342.629" cy="-301.414" rx="32.4942" ry="18"/>
<text text-anchor="middle" x="342.629" y="-297.714" font-family="Times,serif" font-size="14.00">46423</text>
</a>
</g>
</g>
<!-- 1516&#45;&gt;46423 -->
<g id="edge27" class="edge"><title>1516&#45;&gt;46423</title>
<path fill="none" stroke="black" d="M512.843,-432.195C476.964,-404.628 398.077,-344.016 361.696,-316.064"/>
</g>
<!-- 48194 -->
<g id="node19" class="node"><title>48194</title>
<g id="a_node19"><a xlink:title="Day_0">
<ellipse fill="#20ff05" stroke="black" cx="473.095" cy="-620.48" rx="32.4942" ry="18"/>
<text text-anchor="middle" x="473.095" y="-616.78" font-family="Times,serif" font-size="14.00">48194</text>
</a>
</g>
</g>
<!-- 1516&#45;&gt;48194 -->
<g id="edge70" class="edge"><title>1516&#45;&gt;48194</title>
<path fill="none" stroke="black" d="M525.376,-464.011C514.225,-497.384 490.173,-569.37 479.01,-602.779"/>
</g>
<!-- 48469 -->
<g id="node20" class="node"><title>48469</title>
<g id="a_node20"><a xlink:title="Day_0">
<ellipse fill="#20ff05" stroke="black" cx="702.147" cy="-417.339" rx="32.4942" ry="18"/>
<text text-anchor="middle" x="702.147" y="-413.639" font-family="Times,serif" font-size="14.00">48469</text>
</a>
</g>
</g>
<!-- 1516&#45;&gt;48469 -->
<g id="edge17" class="edge"><title>1516&#45;&gt;48469</title>
<path fill="none" stroke="black" d="M559.109,-441.63C589.749,-436.426 638.89,-428.081 670.847,-422.654"/>
</g>
<!-- 50406 -->
<g id="node21" class="node"><title>50406</title>
<g id="a_node21"><a xlink:title="Day_0">
<ellipse fill="#20ff05" stroke="black" cx="316.563" cy="-423.174" rx="32.4942" ry="18"/>
<text text-anchor="middle" x="316.563" y="-419.474" font-family="Times,serif" font-size="14.00">50406</text>
</a>
</g>
</g>
<!-- 1516&#45;&gt;50406 -->
<g id="edge34" class="edge"><title>1516&#45;&gt;50406</title>
<path fill="none" stroke="black" d="M502.763,-443.278C462.837,-438.967 390.486,-431.156 348.698,-426.644"/>
</g>
<!-- 51757 -->
<g id="node22" class="node"><title>51757</title>
<g id="a_node22"><a xlink:title="Day_0">
<ellipse fill="grey" stroke="black" cx="574.43" cy="-593.357" rx="32.4942" ry="18"/>
<text text-anchor="middle" x="574.43" y="-589.657" font-family="Times,serif" font-size="14.00">51757</text>
</a>
</g>
</g>
<!-- 1516&#45;&gt;51757 -->
<g id="edge31" class="edge"><title>1516&#45;&gt;51757</title>
<path fill="none" stroke="black" d="M536.48,-464.088C544.775,-492.342 560.9,-547.268 569.206,-575.562"/>
</g>
<!-- 52124 -->
<g id="node23" class="node"><title>52124</title>
<g id="a_node23"><a xlink:title="Day_0">
<ellipse fill="#20ff05" stroke="black" cx="355.059" cy="-486.073" rx="32.4942" ry="18"/>
<text text-anchor="middle" x="355.059" y="-482.373" font-family="Times,serif" font-size="14.00">52124</text>
</a>
</g>
</g>
<!-- 1516&#45;&gt;52124 -->
<g id="edge45" class="edge"><title>1516&#45;&gt;52124</title>
<path fill="none" stroke="black" d="M504.127,-452.475C471.978,-459.721 418.591,-471.754 385.191,-479.282"/>
</g>
<!-- 59761 -->
<g id="node26" class="node"><title>59761</title>
<g id="a_node26"><a xlink:title="Day_0">
<ellipse fill="grey" stroke="black" cx="588.041" cy="-325.352" rx="32.4942" ry="18"/>
<text text-anchor="middle" x="588.041" y="-321.652" font-family="Times,serif" font-size="14.00">59761</text>
</a>
</g>
</g>
<!-- 1516&#45;&gt;59761 -->
<g id="edge48" class="edge"><title>1516&#45;&gt;59761</title>
<path fill="none" stroke="black" d="M539.408,-429.02C550.138,-406.147 568.925,-366.102 579.739,-343.051"/>
</g>
<!-- 62885 -->
<g id="node27" class="node"><title>62885</title>
<g id="a_node27"><a xlink:title="Day_0">
<ellipse fill="#20ff05" stroke="black" cx="371.663" cy="-539.98" rx="32.4942" ry="18"/>
<text text-anchor="middle" x="371.663" y="-536.28" font-family="Times,serif" font-size="14.00">62885</text>
</a>
</g>
</g>
<!-- 1516&#45;&gt;62885 -->
<g id="edge21" class="edge"><title>1516&#45;&gt;62885</title>
<path fill="none" stroke="black" d="M510.08,-458.789C479.891,-476.497 424.765,-508.832 393.975,-526.893"/>
</g>
<!-- 11219 -->
<g id="node3" class="node"><title>11219</title>
<g id="a_node3"><a xlink:title="Day_0">
<ellipse fill="#ffffff" stroke="black" cx="485.315" cy="-17.7494" rx="32.4942" ry="18"/>
<text text-anchor="middle" x="485.315" y="-14.0494" font-family="Times,serif" font-size="14.00">11219</text>
</a>
</g>
</g>
<!-- 11219&#45;&gt;23976 -->
<g id="edge53" class="edge"><title>11219&#45;&gt;23976</title>
<path fill="none" stroke="black" d="M487.499,-35.8328C492.17,-74.502 503.083,-164.845 507.75,-203.478"/>
</g>
<!-- 56134 -->
<g id="node24" class="node"><title>56134</title>
<g id="a_node24"><a xlink:title="Day_0">
<ellipse fill="#20ff05" stroke="black" cx="942.002" cy="-1054.09" rx="32.4942" ry="18"/>
<text text-anchor="middle" x="942.002" y="-1050.39" font-family="Times,serif" font-size="14.00">56134</text>
</a>
</g>
</g>
<!-- 14809&#45;&gt;56134 -->
<g id="edge6" class="edge"><title>14809&#45;&gt;56134</title>
<path fill="none" stroke="black" d="M761.345,-780.84C795.512,-832.517 896.532,-985.314 930.62,-1036.87"/>
</g>
<!-- 20520 -->
<g id="node6" class="node"><title>20520</title>
<g id="a_node6"><a xlink:title="Day_0">
<ellipse fill="#20ff05" stroke="black" cx="32.3621" cy="-49.2882" rx="32.4942" ry="18"/>
<text text-anchor="middle" x="32.3621" y="-45.5882" font-family="Times,serif" font-size="14.00">20520</text>
</a>
</g>
</g>
<!-- 33998 -->
<g id="node15" class="node"><title>33998</title>
<g id="a_node15"><a xlink:title="Day_0">
<ellipse fill="#20ff05" stroke="black" cx="163.721" cy="-158.291" rx="32.4942" ry="18"/>
<text text-anchor="middle" x="163.721" y="-154.591" font-family="Times,serif" font-size="14.00">33998</text>
</a>
</g>
</g>
<!-- 20520&#45;&gt;33998 -->
<g id="edge58" class="edge"><title>20520&#45;&gt;33998</title>
<path fill="none" stroke="black" d="M50.627,-64.4445C75.7234,-85.2698 120.596,-122.506 145.611,-143.263"/>
</g>
<!-- 31670 -->
<g id="node13" class="node"><title>31670</title>
<g id="a_node13"><a xlink:title="Day_0">
<ellipse fill="#20ff05" stroke="black" cx="1085.16" cy="-1386.24" rx="32.4942" ry="18"/>
<text text-anchor="middle" x="1085.16" y="-1382.54" font-family="Times,serif" font-size="14.00">31670</text>
</a>
</g>
</g>
<!-- 31670&#45;&gt;56134 -->
<g id="edge54" class="edge"><title>31670&#45;&gt;56134</title>
<path fill="none" stroke="black" d="M1077.46,-1368.38C1052.55,-1310.57 974.283,-1128.98 949.563,-1071.63"/>
</g>
<!-- 21884 -->
<g id="node30" class="node"><title>21884</title>
<g id="a_node30"><a xlink:title="Day_0">
<ellipse fill="#20ff05" stroke="black" cx="1274.46" cy="-1663.03" rx="32.4942" ry="18"/>
<text text-anchor="middle" x="1274.46" y="-1659.33" font-family="Times,serif" font-size="14.00">21884</text>
</a>
</g>
</g>
<!-- 31670&#45;&gt;21884 -->
<g id="edge18" class="edge"><title>31670&#45;&gt;21884</title>
<path fill="none" stroke="black" d="M1096.72,-1403.13C1130.51,-1452.55 1228.9,-1596.42 1262.81,-1646"/>
</g>
<!-- 60816 -->
<g id="node34" class="node"><title>60816</title>
<g id="a_node34"><a xlink:title="Day_0">
<ellipse fill="#20ff05" stroke="black" cx="960.972" cy="-1527.2" rx="32.4942" ry="18"/>
<text text-anchor="middle" x="960.972" y="-1523.5" font-family="Times,serif" font-size="14.00">60816</text>
</a>
</g>
</g>
<!-- 31670&#45;&gt;60816 -->
<g id="edge5" class="edge"><title>31670&#45;&gt;60816</title>
<path fill="none" stroke="black" d="M1070.67,-1402.68C1046.74,-1429.85 999.238,-1483.77 975.369,-1510.86"/>
</g>
<!-- 33998&#45;&gt;46423 -->
<g id="edge35" class="edge"><title>33998&#45;&gt;46423</title>
<path fill="none" stroke="black" d="M182.529,-173.337C216.979,-200.897 289.81,-259.16 324.073,-286.569"/>
</g>
<!-- 57190 -->
<g id="node25" class="node"><title>57190</title>
<g id="a_node25"><a xlink:title="Day_0">
<ellipse fill="#20ff05" stroke="black" cx="1076.53" cy="-1119.37" rx="32.4942" ry="18"/>
<text text-anchor="middle" x="1076.53" y="-1115.67" font-family="Times,serif" font-size="14.00">57190</text>
</a>
</g>
</g>
<!-- 56134&#45;&gt;57190 -->
<g id="edge11" class="edge"><title>56134&#45;&gt;57190</title>
<path fill="none" stroke="black" d="M966.677,-1066.06C990.95,-1077.84 1027.79,-1095.72 1052.01,-1107.47"/>
</g>
<!-- 66001 -->
<g id="node28" class="node"><title>66001</title>
<g id="a_node28"><a xlink:title="Day_0">
<ellipse fill="#20ff05" stroke="black" cx="753.896" cy="-1165.87" rx="32.4942" ry="18"/>
<text text-anchor="middle" x="753.896" y="-1162.17" font-family="Times,serif" font-size="14.00">66001</text>
</a>
</g>
</g>
<!-- 56134&#45;&gt;66001 -->
<g id="edge32" class="edge"><title>56134&#45;&gt;66001</title>
<path fill="none" stroke="black" d="M919.685,-1067.35C883.482,-1088.86 812.368,-1131.12 776.184,-1152.63"/>
</g>
<!-- 15520 -->
<g id="node29" class="node"><title>15520</title>
<g id="a_node29"><a xlink:title="Day_0">
<ellipse fill="#20ff05" stroke="black" cx="1025.38" cy="-947.273" rx="32.4942" ry="18"/>
<text text-anchor="middle" x="1025.38" y="-943.573" font-family="Times,serif" font-size="14.00">15520</text>
</a>
</g>
</g>
<!-- 56134&#45;&gt;15520 -->
<g id="edge62" class="edge"><title>56134&#45;&gt;15520</title>
<path fill="none" stroke="black" d="M955.029,-1037.4C970.692,-1017.33 996.818,-983.86 1012.44,-963.846"/>
</g>
<!-- 41497 -->
<g id="node32" class="node"><title>41497</title>
<g id="a_node32"><a xlink:title="6th_week">
<ellipse fill="#20ff05" stroke="black" cx="1170.76" cy="-919.392" rx="32.4942" ry="18"/>
<text text-anchor="middle" x="1170.76" y="-915.692" font-family="Times,serif" font-size="14.00">41497</text>
</a>
</g>
</g>
<!-- 56134&#45;&gt;41497 -->
<g id="edge37" class="edge"><title>56134&#45;&gt;41497</title>
<path fill="none" stroke="black" d="M964.352,-1040.93C1008.09,-1015.18 1104.51,-958.399 1148.32,-932.606"/>
</g>
<!-- 54543 -->
<g id="node39" class="node"><title>54543</title>
<g id="a_node39"><a xlink:title="Day_0">
<ellipse fill="#20ff05" stroke="black" cx="819.11" cy="-1075.65" rx="32.4942" ry="18"/>
<text text-anchor="middle" x="819.11" y="-1071.95" font-family="Times,serif" font-size="14.00">54543</text>
</a>
</g>
</g>
<!-- 56134&#45;&gt;54543 -->
<g id="edge69" class="edge"><title>56134&#45;&gt;54543</title>
<path fill="none" stroke="black" d="M910.991,-1059.53C892.361,-1062.8 868.738,-1066.94 850.111,-1070.21"/>
</g>
<!-- 30959 -->
<g id="node40" class="node"><title>30959</title>
<g id="a_node40"><a xlink:title="PRE">
<ellipse fill="#20ff05" stroke="black" cx="553.288" cy="-1266.89" rx="32.4942" ry="18"/>
<text text-anchor="middle" x="553.288" y="-1263.19" font-family="Times,serif" font-size="14.00">30959</text>
</a>
</g>
</g>
<!-- 66001&#45;&gt;30959 -->
<g id="edge57" class="edge"><title>66001&#45;&gt;30959</title>
<path fill="none" stroke="black" d="M729.698,-1178.06C691.14,-1197.47 616.183,-1235.22 577.572,-1254.66"/>
</g>
<!-- 51139 -->
<g id="node38" class="node"><title>51139</title>
<g id="a_node38"><a xlink:title="Day_0">
<ellipse fill="#20ff05" stroke="black" cx="1446.71" cy="-1932.06" rx="32.4942" ry="18"/>
<text text-anchor="middle" x="1446.71" y="-1928.36" font-family="Times,serif" font-size="14.00">51139</text>
</a>
</g>
</g>
<!-- 21884&#45;&gt;51139 -->
<g id="edge7" class="edge"><title>21884&#45;&gt;51139</title>
<path fill="none" stroke="black" d="M1285.49,-1680.27C1316.61,-1728.86 1404.76,-1866.55 1435.76,-1914.97"/>
</g>
<!-- 22955 -->
<g id="node31" class="node"><title>22955</title>
<g id="a_node31"><a xlink:title="6th_week">
<ellipse fill="#20ff05" stroke="black" cx="1375.54" cy="-790.664" rx="32.4942" ry="18"/>
<text text-anchor="middle" x="1375.54" y="-786.964" font-family="Times,serif" font-size="14.00">22955</text>
</a>
</g>
</g>
<!-- 22955&#45;&gt;41497 -->
<g id="edge2" class="edge"><title>22955&#45;&gt;41497</title>
<path fill="none" stroke="black" d="M1354.01,-804.197C1314.68,-828.92 1231.65,-881.115 1192.31,-905.847"/>
</g>
<!-- 59022 -->
<g id="node33" class="node"><title>59022</title>
<g id="a_node33"><a xlink:title="6th_week">
<ellipse fill="#20ff05" stroke="black" cx="1489.24" cy="-642.055" rx="32.4942" ry="18"/>
<text text-anchor="middle" x="1489.24" y="-638.355" font-family="Times,serif" font-size="14.00">59022</text>
</a>
</g>
</g>
<!-- 22955&#45;&gt;59022 -->
<g id="edge51" class="edge"><title>22955&#45;&gt;59022</title>
<path fill="none" stroke="black" d="M1388.37,-773.906C1410.2,-745.364 1454.37,-687.635 1476.29,-658.98"/>
</g>
<!-- 65694 -->
<g id="node35" class="node"><title>65694</title>
<g id="a_node35"><a xlink:title="6th_week">
<ellipse fill="#20ff05" stroke="black" cx="1542.88" cy="-833.882" rx="32.4942" ry="18"/>
<text text-anchor="middle" x="1542.88" y="-830.182" font-family="Times,serif" font-size="14.00">65694</text>
</a>
</g>
</g>
<!-- 22955&#45;&gt;65694 -->
<g id="edge10" class="edge"><title>22955&#45;&gt;65694</title>
<path fill="none" stroke="black" d="M1405.07,-798.291C1435.57,-806.167 1482.87,-818.384 1513.36,-826.259"/>
</g>
<!-- 19897 -->
<g id="node36" class="node"><title>19897</title>
<g id="a_node36"><a xlink:title="6th_week">
<ellipse fill="#20ff05" stroke="black" cx="1413.5" cy="-620.815" rx="32.4942" ry="18"/>
<text text-anchor="middle" x="1413.5" y="-617.115" font-family="Times,serif" font-size="14.00">19897</text>
</a>
</g>
</g>
<!-- 22955&#45;&gt;19897 -->
<g id="edge64" class="edge"><title>22955&#45;&gt;19897</title>
<path fill="none" stroke="black" d="M1379.61,-772.487C1386.91,-739.796 1402.19,-671.457 1409.47,-638.861"/>
</g>
<!-- 24704 -->
<g id="node37" class="node"><title>24704</title>
<g id="a_node37"><a xlink:title="6th_week">
<ellipse fill="#20ff05" stroke="black" cx="1540.06" cy="-691.255" rx="32.4942" ry="18"/>
<text text-anchor="middle" x="1540.06" y="-687.555" font-family="Times,serif" font-size="14.00">24704</text>
</a>
</g>
</g>
<!-- 22955&#45;&gt;24704 -->
<g id="edge42" class="edge"><title>22955&#45;&gt;24704</title>
<path fill="none" stroke="black" d="M1397.73,-777.257C1429.22,-758.232 1486.52,-723.604 1517.96,-704.608"/>
</g>
<!-- 29812 -->
<g id="node65" class="node"><title>29812</title>
<g id="a_node65"><a xlink:title="6th_week">
<ellipse fill="grey" stroke="black" cx="1556.86" cy="-757.934" rx="32.4942" ry="18"/>
<text text-anchor="middle" x="1556.86" y="-754.234" font-family="Times,serif" font-size="14.00">29812</text>
</a>
</g>
</g>
<!-- 22955&#45;&gt;29812 -->
<g id="edge61" class="edge"><title>22955&#45;&gt;29812</title>
<path fill="none" stroke="black" d="M1406.71,-785.038C1440.03,-779.024 1492.52,-769.548 1525.8,-763.542"/>
</g>
<!-- 1832 -->
<g id="node66" class="node"><title>1832</title>
<g id="a_node66"><a xlink:title="Day_0">
<ellipse fill="#20ff05" stroke="black" cx="852.516" cy="-1660.08" rx="28.6953" ry="18"/>
<text text-anchor="middle" x="852.516" y="-1656.38" font-family="Times,serif" font-size="14.00">1832</text>
</a>
</g>
</g>
<!-- 60816&#45;&gt;1832 -->
<g id="edge67" class="edge"><title>60816&#45;&gt;1832</title>
<path fill="none" stroke="black" d="M947.456,-1543.76C926.559,-1569.36 886.655,-1618.25 865.862,-1643.72"/>
</g>
<!-- 5800 -->
<g id="node67" class="node"><title>5800</title>
<g id="a_node67"><a xlink:title="Day_0">
<ellipse fill="#ffffff" stroke="black" cx="940.095" cy="-1685.82" rx="28.6953" ry="18"/>
<text text-anchor="middle" x="940.095" y="-1682.12" font-family="Times,serif" font-size="14.00">5800</text>
</a>
</g>
</g>
<!-- 60816&#45;&gt;5800 -->
<g id="edge56" class="edge"><title>60816&#45;&gt;5800</title>
<path fill="none" stroke="black" d="M958.578,-1545.4C954.55,-1576 946.471,-1637.38 942.462,-1667.83"/>
</g>
<!-- 35371 -->
<g id="node68" class="node"><title>35371</title>
<g id="a_node68"><a xlink:title="Day_0">
<ellipse fill="#ffffff" stroke="black" cx="803.125" cy="-1587.61" rx="32.4942" ry="18"/>
<text text-anchor="middle" x="803.125" y="-1583.91" font-family="Times,serif" font-size="14.00">35371</text>
</a>
</g>
</g>
<!-- 60816&#45;&gt;35371 -->
<g id="edge50" class="edge"><title>60816&#45;&gt;35371</title>
<path fill="none" stroke="black" d="M934.196,-1537.45C905.17,-1548.56 859.111,-1566.19 830.033,-1577.31"/>
</g>
<!-- 13358 -->
<g id="node42" class="node"><title>13358</title>
<g id="a_node42"><a xlink:title="Day_0">
<ellipse fill="#efff05" stroke="black" cx="1408.08" cy="-2090.9" rx="32.4942" ry="18"/>
<text text-anchor="middle" x="1408.08" y="-2087.2" font-family="Times,serif" font-size="14.00">13358</text>
</a>
</g>
</g>
<!-- 51139&#45;&gt;13358 -->
<g id="edge29" class="edge"><title>51139&#45;&gt;13358</title>
<path fill="none" stroke="black" d="M1442.35,-1949.97C1434.93,-1980.48 1419.92,-2042.18 1412.48,-2072.81"/>
</g>
<!-- 18441 -->
<g id="node43" class="node"><title>18441</title>
<g id="a_node43"><a xlink:title="Day_0">
<ellipse fill="#20ff05" stroke="black" cx="1700.68" cy="-1977.03" rx="32.4942" ry="18"/>
<text text-anchor="middle" x="1700.68" y="-1973.33" font-family="Times,serif" font-size="14.00">18441</text>
</a>
</g>
</g>
<!-- 51139&#45;&gt;18441 -->
<g id="edge43" class="edge"><title>51139&#45;&gt;18441</title>
<path fill="none" stroke="black" d="M1477.85,-1937.57C1526.73,-1946.23 1620.9,-1962.9 1669.68,-1971.54"/>
</g>
<!-- 23626 -->
<g id="node45" class="node"><title>23626</title>
<g id="a_node45"><a xlink:title="Day_0">
<ellipse fill="#20ff05" stroke="black" cx="1605.92" cy="-2054.13" rx="32.4942" ry="18"/>
<text text-anchor="middle" x="1605.92" y="-2050.43" font-family="Times,serif" font-size="14.00">23626</text>
</a>
</g>
</g>
<!-- 51139&#45;&gt;23626 -->
<g id="edge47" class="edge"><title>51139&#45;&gt;23626</title>
<path fill="none" stroke="black" d="M1465.91,-1946.78C1496.51,-1970.25 1556,-2015.86 1586.64,-2039.35"/>
</g>
<!-- 35340 -->
<g id="node49" class="node"><title>35340</title>
<g id="a_node49"><a xlink:title="Day_0">
<ellipse fill="grey" stroke="black" cx="1306.66" cy="-1958.57" rx="32.4942" ry="18"/>
<text text-anchor="middle" x="1306.66" y="-1954.87" font-family="Times,serif" font-size="14.00">35340</text>
</a>
</g>
</g>
<!-- 51139&#45;&gt;35340 -->
<g id="edge33" class="edge"><title>51139&#45;&gt;35340</title>
<path fill="none" stroke="black" d="M1415.63,-1937.94C1392.42,-1942.34 1360.84,-1948.31 1337.66,-1952.7"/>
</g>
<!-- 41188 -->
<g id="node52" class="node"><title>41188</title>
<g id="a_node52"><a xlink:title="Day_0">
<ellipse fill="#20ff05" stroke="black" cx="1511.25" cy="-2077.53" rx="32.4942" ry="18"/>
<text text-anchor="middle" x="1511.25" y="-2073.83" font-family="Times,serif" font-size="14.00">41188</text>
</a>
</g>
</g>
<!-- 51139&#45;&gt;41188 -->
<g id="edge30" class="edge"><title>51139&#45;&gt;41188</title>
<path fill="none" stroke="black" d="M1454.49,-1949.61C1466.9,-1977.57 1491.01,-2031.92 1503.44,-2059.92"/>
</g>
<!-- 46613 -->
<g id="node55" class="node"><title>46613</title>
<g id="a_node55"><a xlink:title="Day_0">
<ellipse fill="#20ff05" stroke="black" cx="1601.07" cy="-1894.29" rx="32.4942" ry="18"/>
<text text-anchor="middle" x="1601.07" y="-1890.59" font-family="Times,serif" font-size="14.00">46613</text>
</a>
</g>
</g>
<!-- 51139&#45;&gt;46613 -->
<g id="edge39" class="edge"><title>51139&#45;&gt;46613</title>
<path fill="none" stroke="black" d="M1476.47,-1924.78C1503.72,-1918.11 1543.83,-1908.29 1571.13,-1901.61"/>
</g>
<!-- 48437 -->
<g id="node57" class="node"><title>48437</title>
<g id="a_node57"><a xlink:title="Day_0">
<ellipse fill="grey" stroke="black" cx="1541.96" cy="-1817.19" rx="32.4942" ry="18"/>
<text text-anchor="middle" x="1541.96" y="-1813.49" font-family="Times,serif" font-size="14.00">48437</text>
</a>
</g>
</g>
<!-- 51139&#45;&gt;48437 -->
<g id="edge8" class="edge"><title>51139&#45;&gt;48437</title>
<path fill="none" stroke="black" d="M1460.36,-1915.6C1478.46,-1893.77 1510.24,-1855.44 1528.33,-1833.62"/>
</g>
<!-- 66794 -->
<g id="node61" class="node"><title>66794</title>
<g id="a_node61"><a xlink:title="Day_0">
<ellipse fill="#20ff05" stroke="black" cx="1332.98" cy="-2049.18" rx="32.4942" ry="18"/>
<text text-anchor="middle" x="1332.98" y="-2045.48" font-family="Times,serif" font-size="14.00">66794</text>
</a>
</g>
</g>
<!-- 51139&#45;&gt;66794 -->
<g id="edge26" class="edge"><title>51139&#45;&gt;66794</title>
<path fill="none" stroke="black" d="M1430.9,-1948.34C1409.17,-1970.72 1370.32,-2010.73 1348.66,-2033.03"/>
</g>
<!-- 67724 -->
<g id="node63" class="node"><title>67724</title>
<g id="a_node63"><a xlink:title="Day_0">
<ellipse fill="#20ff05" stroke="black" cx="1468.41" cy="-2220.61" rx="32.4942" ry="18"/>
<text text-anchor="middle" x="1468.41" y="-2216.91" font-family="Times,serif" font-size="14.00">67724</text>
</a>
</g>
</g>
<!-- 51139&#45;&gt;67724 -->
<g id="edge28" class="edge"><title>51139&#45;&gt;67724</title>
<path fill="none" stroke="black" d="M1448.07,-1950.11C1451.96,-2001.93 1463.15,-2150.75 1467.05,-2202.56"/>
</g>
<!-- 41803 -->
<g id="node71" class="node"><title>41803</title>
<g id="a_node71"><a xlink:title="PRE">
<ellipse fill="#20ff05" stroke="black" cx="387.349" cy="-1349.23" rx="32.4942" ry="18"/>
<text text-anchor="middle" x="387.349" y="-1345.53" font-family="Times,serif" font-size="14.00">41803</text>
</a>
</g>
</g>
<!-- 30959&#45;&gt;41803 -->
<g id="edge68" class="edge"><title>30959&#45;&gt;41803</title>
<path fill="none" stroke="black" d="M528.803,-1279.04C497.339,-1294.65 443.045,-1321.59 411.664,-1337.16"/>
</g>
<!-- 3205 -->
<g id="node41" class="node"><title>3205</title>
<g id="a_node41"><a xlink:title="3rd_week">
<ellipse fill="grey" stroke="black" cx="1406.74" cy="-2920.92" rx="28.6953" ry="18"/>
<text text-anchor="middle" x="1406.74" y="-2917.22" font-family="Times,serif" font-size="14.00">3205</text>
</a>
</g>
</g>
<!-- 45386 -->
<g id="node54" class="node"><title>45386</title>
<g id="a_node54"><a xlink:title="3rd_week">
<ellipse fill="#20ff05" stroke="black" cx="1509.13" cy="-2775.81" rx="32.4942" ry="18"/>
<text text-anchor="middle" x="1509.13" y="-2772.11" font-family="Times,serif" font-size="14.00">45386</text>
</a>
</g>
</g>
<!-- 3205&#45;&gt;45386 -->
<g id="edge46" class="edge"><title>3205&#45;&gt;45386</title>
<path fill="none" stroke="black" d="M1418.49,-2904.27C1438.13,-2876.43 1477.45,-2820.72 1497.21,-2792.71"/>
</g>
<!-- 30313 -->
<g id="node47" class="node"><title>30313</title>
<g id="a_node47"><a xlink:title="Day_0">
<ellipse fill="#20ff05" stroke="black" cx="1923.77" cy="-2025.38" rx="32.4942" ry="18"/>
<text text-anchor="middle" x="1923.77" y="-2021.68" font-family="Times,serif" font-size="14.00">30313</text>
</a>
</g>
</g>
<!-- 18441&#45;&gt;30313 -->
<g id="edge9" class="edge"><title>18441&#45;&gt;30313</title>
<path fill="none" stroke="black" d="M1731.24,-1983.65C1773.84,-1992.88 1850.64,-2009.53 1893.23,-2018.76"/>
</g>
<!-- 19759 -->
<g id="node44" class="node"><title>19759</title>
<g id="a_node44"><a xlink:title="3rd_week">
<ellipse fill="#20ff05" stroke="black" cx="1556.76" cy="-2970.97" rx="32.4942" ry="18"/>
<text text-anchor="middle" x="1556.76" y="-2967.27" font-family="Times,serif" font-size="14.00">19759</text>
</a>
</g>
</g>
<!-- 19759&#45;&gt;45386 -->
<g id="edge41" class="edge"><title>19759&#45;&gt;45386</title>
<path fill="none" stroke="black" d="M1552.37,-2952.96C1543.29,-2915.78 1522.58,-2830.92 1513.52,-2793.78"/>
</g>
<!-- 23581 -->
<g id="node69" class="node"><title>23581</title>
<g id="a_node69"><a xlink:title="Day_0">
<ellipse fill="#ffffff" stroke="black" cx="1594.95" cy="-3154.52" rx="32.4942" ry="18"/>
<text text-anchor="middle" x="1594.95" y="-3150.82" font-family="Times,serif" font-size="14.00">23581</text>
</a>
</g>
</g>
<!-- 19759&#45;&gt;23581 -->
<g id="edge63" class="edge"><title>19759&#45;&gt;23581</title>
<path fill="none" stroke="black" d="M1560.49,-2988.91C1567.79,-3024 1583.89,-3101.37 1591.21,-3136.52"/>
</g>
<!-- 52795 -->
<g id="node58" class="node"><title>52795</title>
<g id="a_node58"><a xlink:title="3rd_week">
<ellipse fill="#20ff05" stroke="black" cx="1726.66" cy="-2155.98" rx="32.4942" ry="18"/>
<text text-anchor="middle" x="1726.66" y="-2152.28" font-family="Times,serif" font-size="14.00">52795</text>
</a>
</g>
</g>
<!-- 23626&#45;&gt;52795 -->
<g id="edge14" class="edge"><title>23626&#45;&gt;52795</title>
<path fill="none" stroke="black" d="M1623.99,-2069.38C1646.76,-2088.58 1685.64,-2121.38 1708.46,-2140.63"/>
</g>
<!-- 26788 -->
<g id="node46" class="node"><title>26788</title>
<g id="a_node46"><a xlink:title="Day_0">
<ellipse fill="#20ff05" stroke="black" cx="2286.26" cy="-2193.81" rx="32.4942" ry="18"/>
<text text-anchor="middle" x="2286.26" y="-2190.11" font-family="Times,serif" font-size="14.00">26788</text>
</a>
</g>
</g>
<!-- 35509 -->
<g id="node50" class="node"><title>35509</title>
<g id="a_node50"><a xlink:title="Day_0">
<ellipse fill="#20ff05" stroke="black" cx="2168.34" cy="-2083.96" rx="32.4942" ry="18"/>
<text text-anchor="middle" x="2168.34" y="-2080.26" font-family="Times,serif" font-size="14.00">35509</text>
</a>
</g>
</g>
<!-- 26788&#45;&gt;35509 -->
<g id="edge52" class="edge"><title>26788&#45;&gt;35509</title>
<path fill="none" stroke="black" d="M2269.61,-2178.31C2247.27,-2157.49 2207.78,-2120.7 2185.28,-2099.74"/>
</g>
<!-- 30313&#45;&gt;35509 -->
<g id="edge22" class="edge"><title>30313&#45;&gt;35509</title>
<path fill="none" stroke="black" d="M1953.76,-2032.56C2000.83,-2043.83 2091.5,-2065.55 2138.49,-2076.81"/>
</g>
<!-- 32837 -->
<g id="node48" class="node"><title>32837</title>
<g id="a_node48"><a xlink:title="Day_0">
<ellipse fill="#07ffd1" stroke="black" cx="2322.93" cy="-2041.22" rx="32.4942" ry="18"/>
<text text-anchor="middle" x="2322.93" y="-2037.52" font-family="Times,serif" font-size="14.00">32837</text>
</a>
</g>
</g>
<!-- 32837&#45;&gt;35509 -->
<g id="edge24" class="edge"><title>32837&#45;&gt;35509</title>
<path fill="none" stroke="black" d="M2293.85,-2049.26C2266.3,-2056.87 2225.14,-2068.25 2197.54,-2075.88"/>
</g>
<!-- 46835 -->
<g id="node56" class="node"><title>46835</title>
<g id="a_node56"><a xlink:title="Day_0">
<ellipse fill="#20ff05" stroke="black" cx="2326.8" cy="-2123.17" rx="32.4942" ry="18"/>
<text text-anchor="middle" x="2326.8" y="-2119.47" font-family="Times,serif" font-size="14.00">46835</text>
</a>
</g>
</g>
<!-- 35509&#45;&gt;46835 -->
<g id="edge13" class="edge"><title>35509&#45;&gt;46835</title>
<path fill="none" stroke="black" d="M2198.14,-2091.33C2226.47,-2098.34 2268.84,-2108.83 2297.13,-2115.83"/>
</g>
<!-- 41106 -->
<g id="node51" class="node"><title>41106</title>
<g id="a_node51"><a xlink:title="3rd_week">
<ellipse fill="#20ff05" stroke="black" cx="1371.57" cy="-2861.9" rx="32.4942" ry="18"/>
<text text-anchor="middle" x="1371.57" y="-2858.2" font-family="Times,serif" font-size="14.00">41106</text>
</a>
</g>
</g>
<!-- 41106&#45;&gt;45386 -->
<g id="edge59" class="edge"><title>41106&#45;&gt;45386</title>
<path fill="none" stroke="black" d="M1393.37,-2848.26C1419.12,-2832.14 1461.72,-2805.48 1487.44,-2789.39"/>
</g>
<!-- 42373 -->
<g id="node53" class="node"><title>42373</title>
<g id="a_node53"><a xlink:title="3rd_week">
<ellipse fill="grey" stroke="black" cx="1491.96" cy="-2926.18" rx="32.4942" ry="18"/>
<text text-anchor="middle" x="1491.96" y="-2922.48" font-family="Times,serif" font-size="14.00">42373</text>
</a>
</g>
</g>
<!-- 42373&#45;&gt;45386 -->
<g id="edge15" class="edge"><title>42373&#45;&gt;45386</title>
<path fill="none" stroke="black" d="M1494.03,-2908.04C1497.33,-2879.14 1503.75,-2822.96 1507.05,-2794.02"/>
</g>
<!-- 54170 -->
<g id="node59" class="node"><title>54170</title>
<g id="a_node59"><a xlink:title="3rd_week">
<ellipse fill="#20ff05" stroke="black" cx="1652.81" cy="-2851.12" rx="32.4942" ry="18"/>
<text text-anchor="middle" x="1652.81" y="-2847.42" font-family="Times,serif" font-size="14.00">54170</text>
</a>
</g>
</g>
<!-- 45386&#45;&gt;54170 -->
<g id="edge40" class="edge"><title>45386&#45;&gt;54170</title>
<path fill="none" stroke="black" d="M1532.86,-2788.25C1559.48,-2802.2 1602.41,-2824.71 1629.05,-2838.67"/>
</g>
<!-- 66844 -->
<g id="node62" class="node"><title>66844</title>
<g id="a_node62"><a xlink:title="3rd_week">
<ellipse fill="#ffffff" stroke="black" cx="1600.52" cy="-2906.22" rx="32.4942" ry="18"/>
<text text-anchor="middle" x="1600.52" y="-2902.52" font-family="Times,serif" font-size="14.00">66844</text>
</a>
</g>
</g>
<!-- 45386&#45;&gt;66844 -->
<g id="edge19" class="edge"><title>45386&#45;&gt;66844</title>
<path fill="none" stroke="black" d="M1520.89,-2792.6C1538.34,-2817.5 1570.92,-2863.99 1588.51,-2889.09"/>
</g>
<!-- 68228 -->
<g id="node64" class="node"><title>68228</title>
<g id="a_node64"><a xlink:title="3rd_week">
<ellipse fill="#20ff05" stroke="black" cx="1491.52" cy="-2484.29" rx="32.4942" ry="18"/>
<text text-anchor="middle" x="1491.52" y="-2480.59" font-family="Times,serif" font-size="14.00">68228</text>
</a>
</g>
</g>
<!-- 45386&#45;&gt;68228 -->
<g id="edge25" class="edge"><title>45386&#45;&gt;68228</title>
<path fill="none" stroke="black" d="M1508.03,-2757.58C1504.87,-2705.22 1495.79,-2554.87 1492.63,-2502.52"/>
</g>
<!-- 56588 -->
<g id="node60" class="node"><title>56588</title>
<g id="a_node60"><a xlink:title="3rd_week">
<ellipse fill="#20ff05" stroke="black" cx="1579" cy="-2615.5" rx="32.4942" ry="18"/>
<text text-anchor="middle" x="1579" y="-2611.8" font-family="Times,serif" font-size="14.00">56588</text>
</a>
</g>
</g>
<!-- 56588&#45;&gt;68228 -->
<g id="edge23" class="edge"><title>56588&#45;&gt;68228</title>
<path fill="none" stroke="black" d="M1567.57,-2598.35C1550.8,-2573.2 1519.73,-2526.6 1502.96,-2501.45"/>
</g>
<!-- 67724&#45;&gt;68228 -->
<g id="edge66" class="edge"><title>67724&#45;&gt;68228</title>
<path fill="none" stroke="black" d="M1470,-2238.73C1474.22,-2286.9 1485.69,-2417.73 1489.92,-2466.04"/>
</g>
<!-- 10028 -->
<g id="node70" class="node"><title>10028</title>
<g id="a_node70"><a xlink:title="PRE">
<ellipse fill="#20ff05" stroke="black" cx="224.058" cy="-1429.03" rx="32.4942" ry="18"/>
<text text-anchor="middle" x="224.058" y="-1425.33" font-family="Times,serif" font-size="14.00">10028</text>
</a>
</g>
</g>
<!-- 10028&#45;&gt;41803 -->
<g id="edge1" class="edge"><title>10028&#45;&gt;41803</title>
<path fill="none" stroke="black" d="M248.504,-1417.08C279.288,-1402.04 331.873,-1376.34 362.735,-1361.26"/>
</g>
</g>
</svg>
