<?xml version="1.0" encoding="UTF-8" standalone="no"?>
<!DOCTYPE svg PUBLIC "-//W3C//DTD SVG 1.1//EN"
 "http://www.w3.org/Graphics/SVG/1.1/DTD/svg11.dtd">
<!-- Generated by graphviz version 2.38.0 (20140413.2041)
 -->
<!-- Title: %3 Pages: 1 -->
<svg width="1502pt" height="1536pt"
 viewBox="0.00 0.00 1502.00 1536.00" xmlns="http://www.w3.org/2000/svg" xmlns:xlink="http://www.w3.org/1999/xlink">
<g id="graph0" class="graph" transform="scale(1 1) rotate(0) translate(4 1532)">
<title>%3</title>
<polygon fill="white" stroke="none" points="-4,4 -4,-1532 1498,-1532 1498,4 -4,4"/>
<!-- 2875 -->
<g id="node1" class="node"><title>2875</title>
<g id="a_node1"><a xlink:title="6th_week">
<ellipse fill="#ff9f0f" stroke="black" cx="948.063" cy="-576.285" rx="28.6953" ry="18"/>
<text text-anchor="middle" x="948.063" y="-572.585" font-family="Times,serif" font-size="14.00">2875</text>
</a>
</g>
</g>
<!-- 3157 -->
<g id="node2" class="node"><title>3157</title>
<g id="a_node2"><a xlink:title="6th_week">
<ellipse fill="#ff9f0f" stroke="black" cx="658.567" cy="-625.882" rx="28.6953" ry="18"/>
<text text-anchor="middle" x="658.567" y="-622.182" font-family="Times,serif" font-size="14.00">3157</text>
</a>
</g>
</g>
<!-- 2875&#45;&gt;3157 -->
<g id="edge30" class="edge"><title>2875&#45;&gt;3157</title>
<path fill="none" stroke="black" d="M920.305,-581.041C864.97,-590.521 741.506,-611.673 686.241,-621.141"/>
</g>
<!-- 39999 -->
<g id="node36" class="node"><title>39999</title>
<g id="a_node36"><a xlink:title="6th_week">
<ellipse fill="#ff9f0f" stroke="black" cx="1197.05" cy="-559.147" rx="32.4942" ry="18"/>
<text text-anchor="middle" x="1197.05" y="-555.447" font-family="Times,serif" font-size="14.00">39999</text>
</a>
</g>
</g>
<!-- 2875&#45;&gt;39999 -->
<g id="edge35" class="edge"><title>2875&#45;&gt;39999</title>
<path fill="none" stroke="black" d="M976.624,-574.319C1023.25,-571.11 1115.42,-564.766 1164.5,-561.387"/>
</g>
<!-- 3397 -->
<g id="node3" class="node"><title>3397</title>
<g id="a_node3"><a xlink:title="6th_week">
<ellipse fill="#ff9f0f" stroke="black" cx="783.629" cy="-565.078" rx="28.6953" ry="18"/>
<text text-anchor="middle" x="783.629" y="-561.378" font-family="Times,serif" font-size="14.00">3397</text>
</a>
</g>
</g>
<!-- 3157&#45;&gt;3397 -->
<g id="edge61" class="edge"><title>3157&#45;&gt;3397</title>
<path fill="none" stroke="black" d="M681.214,-614.871C703.739,-603.92 738.114,-587.207 760.727,-576.213"/>
</g>
<!-- 5225 -->
<g id="node4" class="node"><title>5225</title>
<g id="a_node4"><a xlink:title="6th_week">
<ellipse fill="#ff9f0f" stroke="black" cx="540.102" cy="-947.81" rx="28.6953" ry="18"/>
<text text-anchor="middle" x="540.102" y="-944.11" font-family="Times,serif" font-size="14.00">5225</text>
</a>
</g>
</g>
<!-- 3157&#45;&gt;5225 -->
<g id="edge22" class="edge"><title>3157&#45;&gt;5225</title>
<path fill="none" stroke="black" d="M652.029,-643.649C631.317,-699.934 567.303,-873.89 546.62,-930.098"/>
</g>
<!-- 6547 -->
<g id="node5" class="node"><title>6547</title>
<g id="a_node5"><a xlink:title="6th_week">
<ellipse fill="#ff9f0f" stroke="black" cx="405.389" cy="-355.972" rx="28.6953" ry="18"/>
<text text-anchor="middle" x="405.389" y="-352.272" font-family="Times,serif" font-size="14.00">6547</text>
</a>
</g>
</g>
<!-- 3157&#45;&gt;6547 -->
<g id="edge8" class="edge"><title>3157&#45;&gt;6547</title>
<path fill="none" stroke="black" d="M643.86,-610.204C599.113,-562.5 464.937,-419.456 420.136,-371.694"/>
</g>
<!-- 7468 -->
<g id="node6" class="node"><title>7468</title>
<g id="a_node6"><a xlink:title="6th_week">
<ellipse fill="#ff9f0f" stroke="black" cx="518.748" cy="-819.027" rx="28.6953" ry="18"/>
<text text-anchor="middle" x="518.748" y="-815.327" font-family="Times,serif" font-size="14.00">7468</text>
</a>
</g>
</g>
<!-- 3157&#45;&gt;7468 -->
<g id="edge39" class="edge"><title>3157&#45;&gt;7468</title>
<path fill="none" stroke="black" d="M646.646,-642.35C620.23,-678.84 557.026,-766.149 530.639,-802.601"/>
</g>
<!-- 8984 -->
<g id="node8" class="node"><title>8984</title>
<g id="a_node8"><a xlink:title="6th_week">
<ellipse fill="#ff9f0f" stroke="black" cx="487.574" cy="-643.206" rx="28.6953" ry="18"/>
<text text-anchor="middle" x="487.574" y="-639.506" font-family="Times,serif" font-size="14.00">8984</text>
</a>
</g>
</g>
<!-- 3157&#45;&gt;8984 -->
<g id="edge42" class="edge"><title>3157&#45;&gt;8984</title>
<path fill="none" stroke="black" d="M630.331,-628.743C598.649,-631.953 547.551,-637.129 515.852,-640.341"/>
</g>
<!-- 11660 -->
<g id="node12" class="node"><title>11660</title>
<g id="a_node12"><a xlink:title="6th_week">
<ellipse fill="#ff9f0f" stroke="black" cx="681.586" cy="-921.902" rx="32.4942" ry="18"/>
<text text-anchor="middle" x="681.586" y="-918.202" font-family="Times,serif" font-size="14.00">11660</text>
</a>
</g>
</g>
<!-- 3157&#45;&gt;11660 -->
<g id="edge70" class="edge"><title>3157&#45;&gt;11660</title>
<path fill="none" stroke="black" d="M659.972,-643.954C664.081,-696.801 676.046,-850.666 680.17,-903.69"/>
</g>
<!-- 11729 -->
<g id="node13" class="node"><title>11729</title>
<g id="a_node13"><a xlink:title="6th_week">
<ellipse fill="#ffffff" stroke="black" cx="653.243" cy="-298.668" rx="32.4942" ry="18"/>
<text text-anchor="middle" x="653.243" y="-294.968" font-family="Times,serif" font-size="14.00">11729</text>
</a>
</g>
</g>
<!-- 3157&#45;&gt;11729 -->
<g id="edge21" class="edge"><title>3157&#45;&gt;11729</title>
<path fill="none" stroke="black" d="M658.273,-607.824C657.342,-550.615 654.466,-373.801 653.536,-316.671"/>
</g>
<!-- 12728 -->
<g id="node14" class="node"><title>12728</title>
<g id="a_node14"><a xlink:title="6th_week">
<ellipse fill="#ff9f0f" stroke="black" cx="919.712" cy="-767.336" rx="32.4942" ry="18"/>
<text text-anchor="middle" x="919.712" y="-763.636" font-family="Times,serif" font-size="14.00">12728</text>
</a>
</g>
</g>
<!-- 3157&#45;&gt;12728 -->
<g id="edge5" class="edge"><title>3157&#45;&gt;12728</title>
<path fill="none" stroke="black" d="M680.383,-637.699C729.049,-664.06 846.137,-727.483 896.28,-754.644"/>
</g>
<!-- 13869 -->
<g id="node16" class="node"><title>13869</title>
<g id="a_node16"><a xlink:title="6th_week">
<ellipse fill="#ffffff" stroke="black" cx="485.351" cy="-428.662" rx="32.4942" ry="18"/>
<text text-anchor="middle" x="485.351" y="-424.962" font-family="Times,serif" font-size="14.00">13869</text>
</a>
</g>
</g>
<!-- 3157&#45;&gt;13869 -->
<g id="edge13" class="edge"><title>3157&#45;&gt;13869</title>
<path fill="none" stroke="black" d="M644.685,-610.076C612.412,-573.331 532.593,-482.451 499.786,-445.097"/>
</g>
<!-- 16106 -->
<g id="node17" class="node"><title>16106</title>
<g id="a_node17"><a xlink:title="6th_week">
<ellipse fill="#ff9f0f" stroke="black" cx="580.334" cy="-771.702" rx="32.4942" ry="18"/>
<text text-anchor="middle" x="580.334" y="-768.002" font-family="Times,serif" font-size="14.00">16106</text>
</a>
</g>
</g>
<!-- 3157&#45;&gt;16106 -->
<g id="edge14" class="edge"><title>3157&#45;&gt;16106</title>
<path fill="none" stroke="black" d="M649.285,-643.182C634.228,-671.247 604.652,-726.375 589.603,-754.425"/>
</g>
<!-- 21638 -->
<g id="node20" class="node"><title>21638</title>
<g id="a_node20"><a xlink:title="6th_week">
<ellipse fill="#ff9f0f" stroke="black" cx="867.438" cy="-536.665" rx="32.4942" ry="18"/>
<text text-anchor="middle" x="867.438" y="-532.965" font-family="Times,serif" font-size="14.00">21638</text>
</a>
</g>
</g>
<!-- 3157&#45;&gt;21638 -->
<g id="edge48" class="edge"><title>3157&#45;&gt;21638</title>
<path fill="none" stroke="black" d="M682.527,-615.648C722.067,-598.759 800.659,-565.189 841.475,-547.755"/>
</g>
<!-- 22050 -->
<g id="node21" class="node"><title>22050</title>
<g id="a_node21"><a xlink:title="6th_week">
<ellipse fill="#ff9f0f" stroke="black" cx="399.352" cy="-631.087" rx="32.4942" ry="18"/>
<text text-anchor="middle" x="399.352" y="-627.387" font-family="Times,serif" font-size="14.00">22050</text>
</a>
</g>
</g>
<!-- 3157&#45;&gt;22050 -->
<g id="edge54" class="edge"><title>3157&#45;&gt;22050</title>
<path fill="none" stroke="black" d="M629.836,-626.459C581.196,-627.436 482.949,-629.408 431.864,-630.434"/>
</g>
<!-- 23234 -->
<g id="node22" class="node"><title>23234</title>
<g id="a_node22"><a xlink:title="6th_week">
<ellipse fill="#ff9f0f" stroke="black" cx="759.991" cy="-412.449" rx="32.4942" ry="18"/>
<text text-anchor="middle" x="759.991" y="-408.749" font-family="Times,serif" font-size="14.00">23234</text>
</a>
</g>
</g>
<!-- 3157&#45;&gt;23234 -->
<g id="edge58" class="edge"><title>3157&#45;&gt;23234</title>
<path fill="none" stroke="black" d="M666.867,-608.416C685.933,-568.294 732.679,-469.923 751.719,-429.857"/>
</g>
<!-- 24986 -->
<g id="node23" class="node"><title>24986</title>
<g id="a_node23"><a xlink:title="6th_week">
<ellipse fill="#ff9f0f" stroke="black" cx="396.965" cy="-869.835" rx="32.4942" ry="18"/>
<text text-anchor="middle" x="396.965" y="-866.135" font-family="Times,serif" font-size="14.00">24986</text>
</a>
</g>
</g>
<!-- 3157&#45;&gt;24986 -->
<g id="edge49" class="edge"><title>3157&#45;&gt;24986</title>
<path fill="none" stroke="black" d="M642.202,-641.143C595.334,-684.849 460.937,-810.178 413.66,-854.266"/>
</g>
<!-- 25536 -->
<g id="node24" class="node"><title>25536</title>
<g id="a_node24"><a xlink:title="6th_week">
<ellipse fill="#ff9f0f" stroke="black" cx="832.172" cy="-362.148" rx="32.4942" ry="18"/>
<text text-anchor="middle" x="832.172" y="-358.448" font-family="Times,serif" font-size="14.00">25536</text>
</a>
</g>
</g>
<!-- 3157&#45;&gt;25536 -->
<g id="edge29" class="edge"><title>3157&#45;&gt;25536</title>
<path fill="none" stroke="black" d="M669.691,-608.983C700.972,-561.461 789.474,-427.013 820.916,-379.248"/>
</g>
<!-- 26161 -->
<g id="node25" class="node"><title>26161</title>
<g id="a_node25"><a xlink:title="6th_week">
<ellipse fill="#ff9f0f" stroke="black" cx="849.76" cy="-845.443" rx="32.4942" ry="18"/>
<text text-anchor="middle" x="849.76" y="-841.743" font-family="Times,serif" font-size="14.00">26161</text>
</a>
</g>
</g>
<!-- 3157&#45;&gt;26161 -->
<g id="edge27" class="edge"><title>3157&#45;&gt;26161</title>
<path fill="none" stroke="black" d="M672.317,-641.672C707.422,-681.986 800.09,-788.403 835.619,-829.203"/>
</g>
<!-- 28972 -->
<g id="node26" class="node"><title>28972</title>
<g id="a_node26"><a xlink:title="6th_week">
<ellipse fill="#ff9f0f" stroke="black" cx="602.075" cy="-860.265" rx="32.4942" ry="18"/>
<text text-anchor="middle" x="602.075" y="-856.565" font-family="Times,serif" font-size="14.00">28972</text>
</a>
</g>
</g>
<!-- 3157&#45;&gt;28972 -->
<g id="edge46" class="edge"><title>3157&#45;&gt;28972</title>
<path fill="none" stroke="black" d="M654.228,-643.885C643.712,-687.513 616.959,-798.51 606.429,-842.201"/>
</g>
<!-- 29072 -->
<g id="node27" class="node"><title>29072</title>
<g id="a_node27"><a xlink:title="6th_week">
<ellipse fill="#ff9f0f" stroke="black" cx="437.62" cy="-497.351" rx="32.4942" ry="18"/>
<text text-anchor="middle" x="437.62" y="-493.651" font-family="Times,serif" font-size="14.00">29072</text>
</a>
</g>
</g>
<!-- 3157&#45;&gt;29072 -->
<g id="edge20" class="edge"><title>3157&#45;&gt;29072</title>
<path fill="none" stroke="black" d="M637.381,-613.558C595.582,-589.242 502.843,-535.293 460.052,-510.4"/>
</g>
<!-- 31234 -->
<g id="node30" class="node"><title>31234</title>
<g id="a_node30"><a xlink:title="6th_week">
<ellipse fill="#ff9f0f" stroke="black" cx="423.396" cy="-567.549" rx="32.4942" ry="18"/>
<text text-anchor="middle" x="423.396" y="-563.849" font-family="Times,serif" font-size="14.00">31234</text>
</a>
</g>
</g>
<!-- 3157&#45;&gt;31234 -->
<g id="edge36" class="edge"><title>3157&#45;&gt;31234</title>
<path fill="none" stroke="black" d="M631.59,-619.191C587.312,-608.208 499.541,-586.436 453.379,-574.986"/>
</g>
<!-- 34263 -->
<g id="node31" class="node"><title>34263</title>
<g id="a_node31"><a xlink:title="6th_week">
<ellipse fill="#ff9f0f" stroke="black" cx="661.056" cy="-812.847" rx="32.4942" ry="18"/>
<text text-anchor="middle" x="661.056" y="-809.147" font-family="Times,serif" font-size="14.00">34263</text>
</a>
</g>
</g>
<!-- 3157&#45;&gt;34263 -->
<g id="edge11" class="edge"><title>3157&#45;&gt;34263</title>
<path fill="none" stroke="black" d="M658.81,-644.15C659.287,-679.985 660.341,-759.108 660.816,-794.78"/>
</g>
<!-- 35688 -->
<g id="node32" class="node"><title>35688</title>
<g id="a_node32"><a xlink:title="6th_week">
<ellipse fill="#ff9f0f" stroke="black" cx="668.542" cy="-403.275" rx="32.4942" ry="18"/>
<text text-anchor="middle" x="668.542" y="-399.575" font-family="Times,serif" font-size="14.00">35688</text>
</a>
</g>
</g>
<!-- 3157&#45;&gt;35688 -->
<g id="edge68" class="edge"><title>3157&#45;&gt;35688</title>
<path fill="none" stroke="black" d="M659.383,-607.665C661.258,-565.818 665.856,-463.219 667.728,-421.431"/>
</g>
<!-- 38469 -->
<g id="node34" class="node"><title>38469</title>
<g id="a_node34"><a xlink:title="6th_week">
<ellipse fill="#ff9f0f" stroke="black" cx="591.567" cy="-454.233" rx="32.4942" ry="18"/>
<text text-anchor="middle" x="591.567" y="-450.533" font-family="Times,serif" font-size="14.00">38469</text>
</a>
</g>
</g>
<!-- 3157&#45;&gt;38469 -->
<g id="edge15" class="edge"><title>3157&#45;&gt;38469</title>
<path fill="none" stroke="black" d="M651.649,-608.159C638.777,-575.182 611.291,-504.764 598.447,-471.86"/>
</g>
<!-- 39393 -->
<g id="node35" class="node"><title>39393</title>
<g id="a_node35"><a xlink:title="6th_week">
<ellipse fill="#ff9f0f" stroke="black" cx="308.688" cy="-732.214" rx="32.4942" ry="18"/>
<text text-anchor="middle" x="308.688" y="-728.514" font-family="Times,serif" font-size="14.00">39393</text>
</a>
</g>
</g>
<!-- 3157&#45;&gt;39393 -->
<g id="edge33" class="edge"><title>3157&#45;&gt;39393</title>
<path fill="none" stroke="black" d="M632.555,-633.787C568.573,-653.232 403.917,-703.273 337.299,-723.518"/>
</g>
<!-- 49001 -->
<g id="node43" class="node"><title>49001</title>
<g id="a_node43"><a xlink:title="6th_week">
<ellipse fill="grey" stroke="black" cx="523.687" cy="-503.11" rx="32.4942" ry="18"/>
<text text-anchor="middle" x="523.687" y="-499.41" font-family="Times,serif" font-size="14.00">49001</text>
</a>
</g>
</g>
<!-- 3157&#45;&gt;49001 -->
<g id="edge65" class="edge"><title>3157&#45;&gt;49001</title>
<path fill="none" stroke="black" d="M642.297,-611.073C616.653,-587.731 567.062,-542.592 540.865,-518.746"/>
</g>
<!-- 50332 -->
<g id="node45" class="node"><title>50332</title>
<g id="a_node45"><a xlink:title="6th_week">
<ellipse fill="#ff9f0f" stroke="black" cx="757.577" cy="-491.971" rx="32.4942" ry="18"/>
<text text-anchor="middle" x="757.577" y="-488.271" font-family="Times,serif" font-size="14.00">50332</text>
</a>
</g>
</g>
<!-- 3157&#45;&gt;50332 -->
<g id="edge67" class="edge"><title>3157&#45;&gt;50332</title>
<path fill="none" stroke="black" d="M670.707,-609.462C689.607,-583.9 725.876,-534.846 745.025,-508.948"/>
</g>
<!-- 50486 -->
<g id="node46" class="node"><title>50486</title>
<g id="a_node46"><a xlink:title="6th_week">
<ellipse fill="#ff9f0f" stroke="black" cx="582.053" cy="-388.652" rx="32.4942" ry="18"/>
<text text-anchor="middle" x="582.053" y="-384.952" font-family="Times,serif" font-size="14.00">50486</text>
</a>
</g>
</g>
<!-- 3157&#45;&gt;50486 -->
<g id="edge43" class="edge"><title>3157&#45;&gt;50486</title>
<path fill="none" stroke="black" d="M652.816,-608.051C638.636,-564.087 602.12,-450.87 587.871,-406.69"/>
</g>
<!-- 50530 -->
<g id="node47" class="node"><title>50530</title>
<g id="a_node47"><a xlink:title="6th_week">
<ellipse fill="grey" stroke="black" cx="843.187" cy="-684.473" rx="32.4942" ry="18"/>
<text text-anchor="middle" x="843.187" y="-680.773" font-family="Times,serif" font-size="14.00">50530</text>
</a>
</g>
</g>
<!-- 3157&#45;&gt;50530 -->
<g id="edge50" class="edge"><title>3157&#45;&gt;50530</title>
<path fill="none" stroke="black" d="M684.237,-634.029C718.519,-644.908 779.056,-664.12 814.707,-675.434"/>
</g>
<!-- 51144 -->
<g id="node48" class="node"><title>51144</title>
<g id="a_node48"><a xlink:title="6th_week">
<ellipse fill="#ff9f0f" stroke="black" cx="989.328" cy="-415.823" rx="32.4942" ry="18"/>
<text text-anchor="middle" x="989.328" y="-412.123" font-family="Times,serif" font-size="14.00">51144</text>
</a>
</g>
</g>
<!-- 3157&#45;&gt;51144 -->
<g id="edge16" class="edge"><title>3157&#45;&gt;51144</title>
<path fill="none" stroke="black" d="M678.759,-613.058C737.388,-575.825 907.287,-467.926 967.696,-429.562"/>
</g>
<!-- 53196 -->
<g id="node51" class="node"><title>53196</title>
<g id="a_node51"><a xlink:title="6th_week">
<ellipse fill="grey" stroke="black" cx="953.478" cy="-675.374" rx="32.4942" ry="18"/>
<text text-anchor="middle" x="953.478" y="-671.674" font-family="Times,serif" font-size="14.00">53196</text>
</a>
</g>
</g>
<!-- 3157&#45;&gt;53196 -->
<g id="edge66" class="edge"><title>3157&#45;&gt;53196</title>
<path fill="none" stroke="black" d="M686.311,-630.538C741.372,-639.779 864.123,-660.379 922.057,-670.101"/>
</g>
<!-- 53868 -->
<g id="node53" class="node"><title>53868</title>
<g id="a_node53"><a xlink:title="6th_week">
<ellipse fill="#ff9f0f" stroke="black" cx="357.791" cy="-471.842" rx="32.4942" ry="18"/>
<text text-anchor="middle" x="357.791" y="-468.142" font-family="Times,serif" font-size="14.00">53868</text>
</a>
</g>
</g>
<!-- 3157&#45;&gt;53868 -->
<g id="edge37" class="edge"><title>3157&#45;&gt;53868</title>
<path fill="none" stroke="black" d="M635.96,-614.304C580.629,-585.967 438.781,-513.321 381.91,-484.195"/>
</g>
<!-- 55610 -->
<g id="node55" class="node"><title>55610</title>
<g id="a_node55"><a xlink:title="6th_week">
<ellipse fill="#ff9f0f" stroke="black" cx="822.015" cy="-753.495" rx="32.4942" ry="18"/>
<text text-anchor="middle" x="822.015" y="-749.795" font-family="Times,serif" font-size="14.00">55610</text>
</a>
</g>
</g>
<!-- 3157&#45;&gt;55610 -->
<g id="edge32" class="edge"><title>3157&#45;&gt;55610</title>
<path fill="none" stroke="black" d="M676.683,-640.027C707.852,-664.362 771.325,-713.919 803.062,-738.698"/>
</g>
<!-- 55983 -->
<g id="node56" class="node"><title>55983</title>
<g id="a_node56"><a xlink:title="6th_week">
<ellipse fill="#ff9f0f" stroke="black" cx="744.286" cy="-317.131" rx="32.4942" ry="18"/>
<text text-anchor="middle" x="744.286" y="-313.431" font-family="Times,serif" font-size="14.00">55983</text>
</a>
</g>
</g>
<!-- 3157&#45;&gt;55983 -->
<g id="edge7" class="edge"><title>3157&#45;&gt;55983</title>
<path fill="none" stroke="black" d="M663.546,-607.948C678.696,-553.379 724.124,-389.75 739.293,-335.115"/>
</g>
<!-- 56359 -->
<g id="node57" class="node"><title>56359</title>
<g id="a_node57"><a xlink:title="6th_week">
<ellipse fill="#ff9f0f" stroke="black" cx="814.503" cy="-958.96" rx="32.4942" ry="18"/>
<text text-anchor="middle" x="814.503" y="-955.26" font-family="Times,serif" font-size="14.00">56359</text>
</a>
</g>
</g>
<!-- 3157&#45;&gt;56359 -->
<g id="edge59" class="edge"><title>3157&#45;&gt;56359</title>
<path fill="none" stroke="black" d="M666.731,-643.321C693.615,-700.744 779.192,-883.537 806.232,-941.292"/>
</g>
<!-- 56791 -->
<g id="node58" class="node"><title>56791</title>
<g id="a_node58"><a xlink:title="6th_week">
<ellipse fill="#ff9f0f" stroke="black" cx="737.335" cy="-750.225" rx="32.4942" ry="18"/>
<text text-anchor="middle" x="737.335" y="-746.525" font-family="Times,serif" font-size="14.00">56791</text>
</a>
</g>
</g>
<!-- 3157&#45;&gt;56791 -->
<g id="edge69" class="edge"><title>3157&#45;&gt;56791</title>
<path fill="none" stroke="black" d="M669.19,-642.652C684.139,-666.251 711.245,-709.04 726.375,-732.924"/>
</g>
<!-- 57380 -->
<g id="node60" class="node"><title>57380</title>
<g id="a_node60"><a xlink:title="6th_week">
<ellipse fill="#ff9f0f" stroke="black" cx="866.21" cy="-618.823" rx="32.4942" ry="18"/>
<text text-anchor="middle" x="866.21" y="-615.123" font-family="Times,serif" font-size="14.00">57380</text>
</a>
</g>
</g>
<!-- 3157&#45;&gt;57380 -->
<g id="edge63" class="edge"><title>3157&#45;&gt;57380</title>
<path fill="none" stroke="black" d="M687.439,-624.901C725.772,-623.597 793.295,-621.302 833.48,-619.935"/>
</g>
<!-- 58240 -->
<g id="node61" class="node"><title>58240</title>
<g id="a_node61"><a xlink:title="6th_week">
<ellipse fill="#ff9f0f" stroke="black" cx="535.822" cy="-276.17" rx="32.4942" ry="18"/>
<text text-anchor="middle" x="535.822" y="-272.47" font-family="Times,serif" font-size="14.00">58240</text>
</a>
</g>
</g>
<!-- 3157&#45;&gt;58240 -->
<g id="edge51" class="edge"><title>3157&#45;&gt;58240</title>
<path fill="none" stroke="black" d="M652.311,-608.059C631.255,-548.069 563.102,-353.894 542.065,-293.957"/>
</g>
<!-- 58824 -->
<g id="node63" class="node"><title>58824</title>
<g id="a_node63"><a xlink:title="6th_week">
<ellipse fill="#ff9f0f" stroke="black" cx="455.444" cy="-771.193" rx="32.4942" ry="18"/>
<text text-anchor="middle" x="455.444" y="-767.493" font-family="Times,serif" font-size="14.00">58824</text>
</a>
</g>
</g>
<!-- 3157&#45;&gt;58824 -->
<g id="edge1" class="edge"><title>3157&#45;&gt;58824</title>
<path fill="none" stroke="black" d="M639.457,-639.553C601.04,-667.036 514.779,-728.746 475.55,-756.81"/>
</g>
<!-- 58842 -->
<g id="node64" class="node"><title>58842</title>
<g id="a_node64"><a xlink:title="6th_week">
<ellipse fill="grey" stroke="black" cx="526.827" cy="-726.28" rx="32.4942" ry="18"/>
<text text-anchor="middle" x="526.827" y="-722.58" font-family="Times,serif" font-size="14.00">58842</text>
</a>
</g>
</g>
<!-- 3157&#45;&gt;58842 -->
<g id="edge3" class="edge"><title>3157&#45;&gt;58842</title>
<path fill="none" stroke="black" d="M640.249,-639.842C615.504,-658.7 571.588,-692.168 546.275,-711.459"/>
</g>
<!-- 59624 -->
<g id="node65" class="node"><title>59624</title>
<g id="a_node65"><a xlink:title="6th_week">
<ellipse fill="#ff9f0f" stroke="black" cx="758.187" cy="-826.678" rx="32.4942" ry="18"/>
<text text-anchor="middle" x="758.187" y="-822.978" font-family="Times,serif" font-size="14.00">59624</text>
</a>
</g>
</g>
<!-- 3157&#45;&gt;59624 -->
<g id="edge12" class="edge"><title>3157&#45;&gt;59624</title>
<path fill="none" stroke="black" d="M667.233,-643.35C686.074,-681.325 730.583,-771.039 749.47,-809.107"/>
</g>
<!-- 60471 -->
<g id="node66" class="node"><title>60471</title>
<g id="a_node66"><a xlink:title="6th_week">
<ellipse fill="#ff9f0f" stroke="black" cx="288.695" cy="-574.772" rx="32.4942" ry="18"/>
<text text-anchor="middle" x="288.695" y="-571.072" font-family="Times,serif" font-size="14.00">60471</text>
</a>
</g>
</g>
<!-- 3157&#45;&gt;60471 -->
<g id="edge47" class="edge"><title>3157&#45;&gt;60471</title>
<path fill="none" stroke="black" d="M630.463,-621.999C562.86,-612.657 391.508,-588.979 320.388,-579.152"/>
</g>
<!-- 61238 -->
<g id="node69" class="node"><title>61238</title>
<g id="a_node69"><a xlink:title="6th_week">
<ellipse fill="#ff9f0f" stroke="black" cx="421.089" cy="-704.685" rx="32.4942" ry="18"/>
<text text-anchor="middle" x="421.089" y="-700.985" font-family="Times,serif" font-size="14.00">61238</text>
</a>
</g>
</g>
<!-- 3157&#45;&gt;61238 -->
<g id="edge4" class="edge"><title>3157&#45;&gt;61238</title>
<path fill="none" stroke="black" d="M633.152,-634.315C588.402,-649.165 495.875,-679.868 449.249,-695.34"/>
</g>
<!-- 63138 -->
<g id="node72" class="node"><title>63138</title>
<g id="a_node72"><a xlink:title="6th_week">
<ellipse fill="#ff9f0f" stroke="black" cx="841.793" cy="-470.352" rx="32.4942" ry="18"/>
<text text-anchor="middle" x="841.793" y="-466.652" font-family="Times,serif" font-size="14.00">63138</text>
</a>
</g>
</g>
<!-- 3157&#45;&gt;63138 -->
<g id="edge72" class="edge"><title>3157&#45;&gt;63138</title>
<path fill="none" stroke="black" d="M675.804,-611.25C710.548,-581.759 788.671,-515.445 823.929,-485.516"/>
</g>
<!-- 10492 -->
<g id="node9" class="node"><title>10492</title>
<g id="a_node9"><a xlink:title="6th_week">
<ellipse fill="#ff9f0f" stroke="black" cx="426.051" cy="-1174.3" rx="32.4942" ry="18"/>
<text text-anchor="middle" x="426.051" y="-1170.6" font-family="Times,serif" font-size="14.00">10492</text>
</a>
</g>
</g>
<!-- 5225&#45;&gt;10492 -->
<g id="edge10" class="edge"><title>5225&#45;&gt;10492</title>
<path fill="none" stroke="black" d="M531.342,-965.206C510.113,-1007.36 456.101,-1114.62 434.841,-1156.84"/>
</g>
<!-- 52528 -->
<g id="node49" class="node"><title>52528</title>
<g id="a_node49"><a xlink:title="6th_week">
<ellipse fill="grey" stroke="black" cx="508.559" cy="-1199.52" rx="32.4942" ry="18"/>
<text text-anchor="middle" x="508.559" y="-1195.82" font-family="Times,serif" font-size="14.00">52528</text>
</a>
</g>
</g>
<!-- 5225&#45;&gt;52528 -->
<g id="edge38" class="edge"><title>5225&#45;&gt;52528</title>
<path fill="none" stroke="black" d="M537.834,-965.913C532.028,-1012.24 516.679,-1134.73 510.85,-1181.25"/>
</g>
<!-- 10632 -->
<g id="node10" class="node"><title>10632</title>
<g id="a_node10"><a xlink:title="6th_week">
<ellipse fill="grey" stroke="black" cx="202.142" cy="-203.958" rx="32.4942" ry="18"/>
<text text-anchor="middle" x="202.142" y="-200.258" font-family="Times,serif" font-size="14.00">10632</text>
</a>
</g>
</g>
<!-- 6547&#45;&gt;10632 -->
<g id="edge24" class="edge"><title>6547&#45;&gt;10632</title>
<path fill="none" stroke="black" d="M386.632,-341.944C348.208,-313.205 260.877,-247.887 221.745,-218.62"/>
</g>
<!-- 55315 -->
<g id="node54" class="node"><title>55315</title>
<g id="a_node54"><a xlink:title="6th_week">
<ellipse fill="grey" stroke="black" cx="263.622" cy="-147.058" rx="32.4942" ry="18"/>
<text text-anchor="middle" x="263.622" y="-143.358" font-family="Times,serif" font-size="14.00">55315</text>
</a>
</g>
</g>
<!-- 6547&#45;&gt;55315 -->
<g id="edge18" class="edge"><title>6547&#45;&gt;55315</title>
<path fill="none" stroke="black" d="M394.027,-339.229C367.548,-300.209 301.961,-203.557 275.236,-164.173"/>
</g>
<!-- 8740 -->
<g id="node7" class="node"><title>8740</title>
<g id="a_node7"><a xlink:title="6th_week">
<ellipse fill="grey" stroke="black" cx="424.545" cy="-48.3706" rx="28.6953" ry="18"/>
<text text-anchor="middle" x="424.545" y="-44.6706" font-family="Times,serif" font-size="14.00">8740</text>
</a>
</g>
</g>
<!-- 8740&#45;&gt;58240 -->
<g id="edge62" class="edge"><title>8740&#45;&gt;58240</title>
<path fill="none" stroke="black" d="M433.092,-65.8673C453.805,-108.27 506.502,-216.15 527.246,-258.614"/>
</g>
<!-- 11280 -->
<g id="node11" class="node"><title>11280</title>
<g id="a_node11"><a xlink:title="6th_week">
<ellipse fill="grey" stroke="black" cx="825.067" cy="-74.463" rx="32.4942" ry="18"/>
<text text-anchor="middle" x="825.067" y="-70.763" font-family="Times,serif" font-size="14.00">11280</text>
</a>
</g>
</g>
<!-- 11280&#45;&gt;55983 -->
<g id="edge25" class="edge"><title>11280&#45;&gt;55983</title>
<path fill="none" stroke="black" d="M819.127,-92.307C804.188,-137.184 765.183,-254.356 750.235,-299.261"/>
</g>
<!-- 18124 -->
<g id="node19" class="node"><title>18124</title>
<g id="a_node19"><a xlink:title="6th_week">
<ellipse fill="#ff9f0f" stroke="black" cx="707.645" cy="-1173.88" rx="32.4942" ry="18"/>
<text text-anchor="middle" x="707.645" y="-1170.18" font-family="Times,serif" font-size="14.00">18124</text>
</a>
</g>
</g>
<!-- 11660&#45;&gt;18124 -->
<g id="edge26" class="edge"><title>11660&#45;&gt;18124</title>
<path fill="none" stroke="black" d="M683.46,-940.023C688.256,-986.401 700.937,-1109.01 705.753,-1155.58"/>
</g>
<!-- 37799 -->
<g id="node33" class="node"><title>37799</title>
<g id="a_node33"><a xlink:title="6th_week">
<ellipse fill="#ffffff" stroke="black" cx="667.901" cy="-47.2039" rx="32.4942" ry="18"/>
<text text-anchor="middle" x="667.901" y="-43.5039" font-family="Times,serif" font-size="14.00">37799</text>
</a>
</g>
</g>
<!-- 11729&#45;&gt;37799 -->
<g id="edge57" class="edge"><title>11729&#45;&gt;37799</title>
<path fill="none" stroke="black" d="M654.298,-280.583C656.995,-234.299 664.128,-111.937 666.837,-65.4626"/>
</g>
<!-- 53038 -->
<g id="node50" class="node"><title>53038</title>
<g id="a_node50"><a xlink:title="6th_week">
<ellipse fill="grey" stroke="black" cx="1145.16" cy="-882.871" rx="32.4942" ry="18"/>
<text text-anchor="middle" x="1145.16" y="-879.171" font-family="Times,serif" font-size="14.00">53038</text>
</a>
</g>
</g>
<!-- 12728&#45;&gt;53038 -->
<g id="edge2" class="edge"><title>12728&#45;&gt;53038</title>
<path fill="none" stroke="black" d="M943.839,-779.701C987.232,-801.938 1077.94,-848.423 1121.21,-870.596"/>
</g>
<!-- 12762 -->
<g id="node15" class="node"><title>12762</title>
<g id="a_node15"><a xlink:title="6th_week">
<ellipse fill="#ffffff" stroke="black" cx="250.101" cy="-1082.88" rx="32.4942" ry="18"/>
<text text-anchor="middle" x="250.101" y="-1079.18" font-family="Times,serif" font-size="14.00">12762</text>
</a>
</g>
</g>
<!-- 12762&#45;&gt;24986 -->
<g id="edge6" class="edge"><title>12762&#45;&gt;24986</title>
<path fill="none" stroke="black" d="M261.871,-1065.81C289.438,-1025.82 357.922,-926.471 385.342,-886.695"/>
</g>
<!-- 16412 -->
<g id="node18" class="node"><title>16412</title>
<g id="a_node18"><a xlink:title="6th_week">
<ellipse fill="grey" stroke="black" cx="1240.02" cy="-348.591" rx="32.4942" ry="18"/>
<text text-anchor="middle" x="1240.02" y="-344.891" font-family="Times,serif" font-size="14.00">16412</text>
</a>
</g>
</g>
<!-- 16412&#45;&gt;51144 -->
<g id="edge40" class="edge"><title>16412&#45;&gt;51144</title>
<path fill="none" stroke="black" d="M1210.28,-356.568C1161.9,-369.542 1066.74,-395.061 1018.64,-407.961"/>
</g>
<!-- 40926 -->
<g id="node39" class="node"><title>40926</title>
<g id="a_node39"><a xlink:title="6th_week">
<ellipse fill="grey" stroke="black" cx="188.963" cy="-1023.15" rx="32.4942" ry="18"/>
<text text-anchor="middle" x="188.963" y="-1019.45" font-family="Times,serif" font-size="14.00">40926</text>
</a>
</g>
</g>
<!-- 24986&#45;&gt;40926 -->
<g id="edge9" class="edge"><title>24986&#45;&gt;40926</title>
<path fill="none" stroke="black" d="M377.396,-884.258C337.753,-913.479 248.357,-979.372 208.631,-1008.65"/>
</g>
<!-- 63011 -->
<g id="node71" class="node"><title>63011</title>
<g id="a_node71"><a xlink:title="6th_week">
<ellipse fill="#ff9f0f" stroke="black" cx="972.388" cy="-154.486" rx="32.4942" ry="18"/>
<text text-anchor="middle" x="972.388" y="-150.786" font-family="Times,serif" font-size="14.00">63011</text>
</a>
</g>
</g>
<!-- 25536&#45;&gt;63011 -->
<g id="edge52" class="edge"><title>25536&#45;&gt;63011</title>
<path fill="none" stroke="black" d="M843.646,-345.154C870.005,-306.117 934.63,-210.406 960.951,-171.423"/>
</g>
<!-- 40369 -->
<g id="node38" class="node"><title>40369</title>
<g id="a_node38"><a xlink:title="6th_week">
<ellipse fill="#ff9f0f" stroke="black" cx="1026.36" cy="-1027.81" rx="32.4942" ry="18"/>
<text text-anchor="middle" x="1026.36" y="-1024.11" font-family="Times,serif" font-size="14.00">40369</text>
</a>
</g>
</g>
<!-- 26161&#45;&gt;40369 -->
<g id="edge53" class="edge"><title>26161&#45;&gt;40369</title>
<path fill="none" stroke="black" d="M865.123,-861.307C898.522,-895.797 977.425,-977.275 1010.91,-1011.85"/>
</g>
<!-- 29798 -->
<g id="node28" class="node"><title>29798</title>
<g id="a_node28"><a xlink:title="6th_week">
<ellipse fill="grey" stroke="black" cx="503.565" cy="-18.06" rx="32.4942" ry="18"/>
<text text-anchor="middle" x="503.565" y="-14.36" font-family="Times,serif" font-size="14.00">29798</text>
</a>
</g>
</g>
<!-- 29798&#45;&gt;58240 -->
<g id="edge71" class="edge"><title>29798&#45;&gt;58240</title>
<path fill="none" stroke="black" d="M505.833,-36.2098C511.756,-83.601 527.636,-210.672 533.556,-258.04"/>
</g>
<!-- 29971 -->
<g id="node29" class="node"><title>29971</title>
<g id="a_node29"><a xlink:title="6th_week">
<ellipse fill="#ffffff" stroke="black" cx="1270.02" cy="-257.968" rx="32.4942" ry="18"/>
<text text-anchor="middle" x="1270.02" y="-254.268" font-family="Times,serif" font-size="14.00">29971</text>
</a>
</g>
</g>
<!-- 49977 -->
<g id="node44" class="node"><title>49977</title>
<g id="a_node44"><a xlink:title="6th_week">
<ellipse fill="#ffffff" stroke="black" cx="1461.71" cy="-149.675" rx="32.4942" ry="18"/>
<text text-anchor="middle" x="1461.71" y="-145.975" font-family="Times,serif" font-size="14.00">49977</text>
</a>
</g>
</g>
<!-- 29971&#45;&gt;49977 -->
<g id="edge55" class="edge"><title>29971&#45;&gt;49977</title>
<path fill="none" stroke="black" d="M1293.14,-244.905C1330.08,-224.035 1402,-183.408 1438.81,-162.615"/>
</g>
<!-- 29971&#45;&gt;51144 -->
<g id="edge41" class="edge"><title>29971&#45;&gt;51144</title>
<path fill="none" stroke="black" d="M1247.05,-270.886C1194.28,-300.561 1064.91,-373.316 1012.22,-402.948"/>
</g>
<!-- 58257 -->
<g id="node62" class="node"><title>58257</title>
<g id="a_node62"><a xlink:title="6th_week">
<ellipse fill="#ffffff" stroke="black" cx="54.7506" cy="-776.183" rx="32.4942" ry="18"/>
<text text-anchor="middle" x="54.7506" y="-772.483" font-family="Times,serif" font-size="14.00">58257</text>
</a>
</g>
</g>
<!-- 39393&#45;&gt;58257 -->
<g id="edge56" class="edge"><title>39393&#45;&gt;58257</title>
<path fill="none" stroke="black" d="M277.55,-737.605C228.813,-746.044 135.037,-762.281 86.143,-770.747"/>
</g>
<!-- 62056 -->
<g id="node70" class="node"><title>62056</title>
<g id="a_node70"><a xlink:title="6th_week">
<ellipse fill="#ff9f0f" stroke="black" cx="82.7315" cy="-856.485" rx="32.4942" ry="18"/>
<text text-anchor="middle" x="82.7315" y="-852.785" font-family="Times,serif" font-size="14.00">62056</text>
</a>
</g>
</g>
<!-- 39393&#45;&gt;62056 -->
<g id="edge17" class="edge"><title>39393&#45;&gt;62056</title>
<path fill="none" stroke="black" d="M285.358,-745.045C241.946,-768.92 149.25,-819.901 105.935,-843.723"/>
</g>
<!-- 40233 -->
<g id="node37" class="node"><title>40233</title>
<g id="a_node37"><a xlink:title="6th_week">
<ellipse fill="#ff9f0f" stroke="black" cx="986.685" cy="-1293" rx="32.4942" ry="18"/>
<text text-anchor="middle" x="986.685" y="-1289.3" font-family="Times,serif" font-size="14.00">40233</text>
</a>
</g>
</g>
<!-- 53458 -->
<g id="node52" class="node"><title>53458</title>
<g id="a_node52"><a xlink:title="6th_week">
<ellipse fill="#ff9f0f" stroke="black" cx="1154.27" cy="-1432.83" rx="32.4942" ry="18"/>
<text text-anchor="middle" x="1154.27" y="-1429.13" font-family="Times,serif" font-size="14.00">53458</text>
</a>
</g>
</g>
<!-- 40233&#45;&gt;53458 -->
<g id="edge44" class="edge"><title>40233&#45;&gt;53458</title>
<path fill="none" stroke="black" d="M1004.94,-1308.23C1037.26,-1335.2 1104.17,-1391.03 1136.29,-1417.83"/>
</g>
<!-- 40233&#45;&gt;56359 -->
<g id="edge28" class="edge"><title>40233&#45;&gt;56359</title>
<path fill="none" stroke="black" d="M977.67,-1275.51C947.916,-1217.79 853.052,-1033.75 823.429,-976.276"/>
</g>
<!-- 56923 -->
<g id="node59" class="node"><title>56923</title>
<g id="a_node59"><a xlink:title="6th_week">
<ellipse fill="#ff9f0f" stroke="black" cx="1002.89" cy="-1510.16" rx="32.4942" ry="18"/>
<text text-anchor="middle" x="1002.89" y="-1506.46" font-family="Times,serif" font-size="14.00">56923</text>
</a>
</g>
</g>
<!-- 40233&#45;&gt;56923 -->
<g id="edge23" class="edge"><title>40233&#45;&gt;56923</title>
<path fill="none" stroke="black" d="M988.038,-1311.14C991.089,-1352.02 998.471,-1450.94 1001.53,-1491.91"/>
</g>
<!-- 61114 -->
<g id="node68" class="node"><title>61114</title>
<g id="a_node68"><a xlink:title="6th_week">
<ellipse fill="grey" stroke="black" cx="1086.5" cy="-1486.93" rx="32.4942" ry="18"/>
<text text-anchor="middle" x="1086.5" y="-1483.23" font-family="Times,serif" font-size="14.00">61114</text>
</a>
</g>
</g>
<!-- 40233&#45;&gt;61114 -->
<g id="edge45" class="edge"><title>40233&#45;&gt;61114</title>
<path fill="none" stroke="black" d="M995.719,-1310.55C1014.72,-1347.48 1058.64,-1432.79 1077.56,-1469.56"/>
</g>
<!-- 41322 -->
<g id="node40" class="node"><title>41322</title>
<g id="a_node40"><a xlink:title="6th_week">
<ellipse fill="#ffffff" stroke="black" cx="32.4243" cy="-584.603" rx="32.4942" ry="18"/>
<text text-anchor="middle" x="32.4243" y="-580.903" font-family="Times,serif" font-size="14.00">41322</text>
</a>
</g>
</g>
<!-- 41322&#45;&gt;60471 -->
<g id="edge34" class="edge"><title>41322&#45;&gt;60471</title>
<path fill="none" stroke="black" d="M64.8812,-583.358C114.041,-581.472 206.855,-577.912 256.098,-576.023"/>
</g>
<!-- 41481 -->
<g id="node41" class="node"><title>41481</title>
<g id="a_node41"><a xlink:title="6th_week">
<ellipse fill="#ffffff" stroke="black" cx="136.678" cy="-358.957" rx="32.4942" ry="18"/>
<text text-anchor="middle" x="136.678" y="-355.257" font-family="Times,serif" font-size="14.00">41481</text>
</a>
</g>
</g>
<!-- 41481&#45;&gt;53868 -->
<g id="edge60" class="edge"><title>41481&#45;&gt;53868</title>
<path fill="none" stroke="black" d="M160.762,-371.253C203.295,-392.967 291.225,-437.858 333.737,-459.562"/>
</g>
<!-- 47084 -->
<g id="node42" class="node"><title>47084</title>
<g id="a_node42"><a xlink:title="6th_week">
<ellipse fill="#ff9f0f" stroke="black" cx="1201.93" cy="-727.329" rx="32.4942" ry="18"/>
<text text-anchor="middle" x="1201.93" y="-723.629" font-family="Times,serif" font-size="14.00">47084</text>
</a>
</g>
</g>
<!-- 47084&#45;&gt;53196 -->
<g id="edge19" class="edge"><title>47084&#45;&gt;53196</title>
<path fill="none" stroke="black" d="M1171.46,-720.958C1123.78,-710.987 1032.03,-691.8 984.192,-681.797"/>
</g>
<!-- 40105 -->
<g id="node73" class="node"><title>40105</title>
<g id="a_node73"><a xlink:title="6th_week">
<ellipse fill="grey" stroke="black" cx="1173.42" cy="-232.969" rx="32.4942" ry="18"/>
<text text-anchor="middle" x="1173.42" y="-229.269" font-family="Times,serif" font-size="14.00">40105</text>
</a>
</g>
</g>
<!-- 51144&#45;&gt;40105 -->
<g id="edge64" class="edge"><title>51144&#45;&gt;40105</title>
<path fill="none" stroke="black" d="M1005.34,-399.916C1040.25,-365.247 1122.82,-283.226 1157.57,-248.709"/>
</g>
<!-- 60708 -->
<g id="node67" class="node"><title>60708</title>
<g id="a_node67"><a xlink:title="6th_week">
<ellipse fill="#ff9f0f" stroke="black" cx="42.3617" cy="-500.22" rx="32.4942" ry="18"/>
<text text-anchor="middle" x="42.3617" y="-496.52" font-family="Times,serif" font-size="14.00">60708</text>
</a>
</g>
</g>
<!-- 60471&#45;&gt;60708 -->
<g id="edge31" class="edge"><title>60471&#45;&gt;60708</title>
<path fill="none" stroke="black" d="M259.956,-566.074C212.49,-551.709 118.264,-523.192 70.9184,-508.863"/>
</g>
</g>
</svg>
