<?xml version="1.0" encoding="UTF-8" standalone="no"?>
<!DOCTYPE svg PUBLIC "-//W3C//DTD SVG 1.1//EN"
 "http://www.w3.org/Graphics/SVG/1.1/DTD/svg11.dtd">
<!-- Generated by graphviz version 2.38.0 (20140413.2041)
 -->
<!-- Title: %3 Pages: 1 -->
<svg width="1502pt" height="1312pt"
 viewBox="0.00 0.00 1502.00 1312.00" xmlns="http://www.w3.org/2000/svg" xmlns:xlink="http://www.w3.org/1999/xlink">
<g id="graph0" class="graph" transform="scale(1 1) rotate(0) translate(4 1308)">
<title>%3</title>
<polygon fill="white" stroke="none" points="-4,4 -4,-1308 1498,-1308 1498,4 -4,4"/>
<!-- 392 -->
<g id="node1" class="node"><title>392</title>
<g id="a_node1"><a xlink:title="6th_week">
<ellipse fill="#07ffd1" stroke="black" cx="1266.71" cy="-869.759" rx="27" ry="18"/>
<text text-anchor="middle" x="1266.71" y="-866.059" font-family="Times,serif" font-size="14.00">392</text>
</a>
</g>
</g>
<!-- 12324 -->
<g id="node13" class="node"><title>12324</title>
<g id="a_node13"><a xlink:title="6th_week">
<ellipse fill="#07ffd1" stroke="black" cx="1384.04" cy="-801.92" rx="32.4942" ry="18"/>
<text text-anchor="middle" x="1384.04" y="-798.22" font-family="Times,serif" font-size="14.00">12324</text>
</a>
</g>
</g>
<!-- 392&#45;&gt;12324 -->
<g id="edge10" class="edge"><title>392&#45;&gt;12324</title>
<path fill="none" stroke="black" d="M1287.15,-857.943C1307.89,-845.947 1339.94,-827.418 1361.44,-814.99"/>
</g>
<!-- 25494 -->
<g id="node28" class="node"><title>25494</title>
<g id="a_node28"><a xlink:title="6th_week">
<ellipse fill="#07ffd1" stroke="black" cx="1157.43" cy="-963.055" rx="32.4942" ry="18"/>
<text text-anchor="middle" x="1157.43" y="-959.355" font-family="Times,serif" font-size="14.00">25494</text>
</a>
</g>
</g>
<!-- 392&#45;&gt;25494 -->
<g id="edge55" class="edge"><title>392&#45;&gt;25494</title>
<path fill="none" stroke="black" d="M1249.63,-884.337C1229.46,-901.556 1196.06,-930.076 1175.48,-947.649"/>
</g>
<!-- 1018 -->
<g id="node2" class="node"><title>1018</title>
<g id="a_node2"><a xlink:title="Day_0">
<ellipse fill="#07ffd1" stroke="black" cx="1454.87" cy="-924.57" rx="28.6953" ry="18"/>
<text text-anchor="middle" x="1454.87" y="-920.87" font-family="Times,serif" font-size="14.00">1018</text>
</a>
</g>
</g>
<!-- 27301 -->
<g id="node31" class="node"><title>27301</title>
<g id="a_node31"><a xlink:title="Day_0">
<ellipse fill="#07ffd1" stroke="black" cx="1319.27" cy="-957.577" rx="32.4942" ry="18"/>
<text text-anchor="middle" x="1319.27" y="-953.877" font-family="Times,serif" font-size="14.00">27301</text>
</a>
</g>
</g>
<!-- 1018&#45;&gt;27301 -->
<g id="edge22" class="edge"><title>1018&#45;&gt;27301</title>
<path fill="none" stroke="black" d="M1428.08,-931.091C1405.39,-936.615 1372.88,-944.528 1349.31,-950.265"/>
</g>
<!-- 1058 -->
<g id="node3" class="node"><title>1058</title>
<g id="a_node3"><a xlink:title="Day_0">
<ellipse fill="#07ffd1" stroke="black" cx="513.3" cy="-661.563" rx="28.6953" ry="18"/>
<text text-anchor="middle" x="513.3" y="-657.863" font-family="Times,serif" font-size="14.00">1058</text>
</a>
</g>
</g>
<!-- 27062 -->
<g id="node30" class="node"><title>27062</title>
<g id="a_node30"><a xlink:title="Day_0">
<ellipse fill="#07ffd1" stroke="black" cx="586.638" cy="-570.736" rx="32.4942" ry="18"/>
<text text-anchor="middle" x="586.638" y="-567.036" font-family="Times,serif" font-size="14.00">27062</text>
</a>
</g>
</g>
<!-- 1058&#45;&gt;27062 -->
<g id="edge52" class="edge"><title>1058&#45;&gt;27062</title>
<path fill="none" stroke="black" d="M526.411,-645.325C539.595,-628.997 559.825,-603.942 573.143,-587.448"/>
</g>
<!-- 2964 -->
<g id="node4" class="node"><title>2964</title>
<g id="a_node4"><a xlink:title="3rd_week">
<ellipse fill="#07ffd1" stroke="black" cx="285.183" cy="-687.162" rx="28.6953" ry="18"/>
<text text-anchor="middle" x="285.183" y="-683.462" font-family="Times,serif" font-size="14.00">2964</text>
</a>
</g>
</g>
<!-- 11375 -->
<g id="node12" class="node"><title>11375</title>
<g id="a_node12"><a xlink:title="3rd_week,Day_0">
<ellipse fill="#07ffd1" stroke="black" cx="351.542" cy="-564.59" rx="32.4945" ry="18"/>
<ellipse fill="none" stroke="black" cx="351.542" cy="-564.59" rx="36.4942" ry="22"/>
<text text-anchor="middle" x="351.542" y="-560.89" font-family="Times,serif" font-size="14.00">11375</text>
</a>
</g>
</g>
<!-- 2964&#45;&gt;11375 -->
<g id="edge12" class="edge"><title>2964&#45;&gt;11375</title>
<path fill="none" stroke="black" d="M294.41,-670.119C306.376,-648.017 327.241,-609.476 340.172,-585.591"/>
</g>
<!-- 4020 -->
<g id="node5" class="node"><title>4020</title>
<g id="a_node5"><a xlink:title="3rd_week">
<ellipse fill="#07ffd1" stroke="black" cx="309.679" cy="-481.183" rx="28.6953" ry="18"/>
<text text-anchor="middle" x="309.679" y="-477.483" font-family="Times,serif" font-size="14.00">4020</text>
</a>
</g>
</g>
<!-- 4020&#45;&gt;11375 -->
<g id="edge29" class="edge"><title>4020&#45;&gt;11375</title>
<path fill="none" stroke="black" d="M318.353,-498.465C324.915,-511.539 333.959,-529.558 340.949,-543.484"/>
</g>
<!-- 5793 -->
<g id="node6" class="node"><title>5793</title>
<g id="a_node6"><a xlink:title="3rd_week">
<ellipse fill="#07ffd1" stroke="black" cx="1459.43" cy="-1284.64" rx="28.6953" ry="18"/>
<text text-anchor="middle" x="1459.43" y="-1280.94" font-family="Times,serif" font-size="14.00">5793</text>
</a>
</g>
</g>
<!-- 25243 -->
<g id="node27" class="node"><title>25243</title>
<g id="a_node27"><a xlink:title="3rd_week">
<ellipse fill="#07ffd1" stroke="black" cx="1369.57" cy="-1194.59" rx="32.4942" ry="18"/>
<text text-anchor="middle" x="1369.57" y="-1190.89" font-family="Times,serif" font-size="14.00">25243</text>
</a>
</g>
</g>
<!-- 5793&#45;&gt;25243 -->
<g id="edge44" class="edge"><title>5793&#45;&gt;25243</title>
<path fill="none" stroke="black" d="M1444.19,-1269.37C1427.86,-1253.01 1402.07,-1227.17 1385.49,-1210.55"/>
</g>
<!-- 6513 -->
<g id="node7" class="node"><title>6513</title>
<g id="a_node7"><a xlink:title="3rd_week">
<ellipse fill="#07ffd1" stroke="black" cx="235.659" cy="-540.232" rx="28.6953" ry="18"/>
<text text-anchor="middle" x="235.659" y="-536.532" font-family="Times,serif" font-size="14.00">6513</text>
</a>
</g>
</g>
<!-- 6513&#45;&gt;11375 -->
<g id="edge43" class="edge"><title>6513&#45;&gt;11375</title>
<path fill="none" stroke="black" d="M262.828,-545.943C279.018,-549.346 299.722,-553.698 317.057,-557.341"/>
</g>
<!-- 7173 -->
<g id="node8" class="node"><title>7173</title>
<g id="a_node8"><a xlink:title="3rd_week">
<ellipse fill="#07ffd1" stroke="black" cx="697.322" cy="-437.81" rx="28.6953" ry="18"/>
<text text-anchor="middle" x="697.322" y="-434.11" font-family="Times,serif" font-size="14.00">7173</text>
</a>
</g>
</g>
<!-- 7173&#45;&gt;27062 -->
<g id="edge47" class="edge"><title>7173&#45;&gt;27062</title>
<path fill="none" stroke="black" d="M683.97,-453.844C662.811,-479.255 621.786,-528.524 600.383,-554.228"/>
</g>
<!-- 5924 -->
<g id="node41" class="node"><title>5924</title>
<g id="a_node41"><a xlink:title="3rd_week">
<ellipse fill="#07ffd1" stroke="black" cx="777.204" cy="-342.719" rx="28.6953" ry="18"/>
<text text-anchor="middle" x="777.204" y="-339.019" font-family="Times,serif" font-size="14.00">5924</text>
</a>
</g>
</g>
<!-- 7173&#45;&gt;5924 -->
<g id="edge45" class="edge"><title>7173&#45;&gt;5924</title>
<path fill="none" stroke="black" d="M710.872,-421.679C725.562,-404.193 748.871,-376.446 763.586,-358.929"/>
</g>
<!-- 27918 -->
<g id="node45" class="node"><title>27918</title>
<g id="a_node45"><a xlink:title="3rd_week">
<ellipse fill="#07ffd1" stroke="black" cx="820.573" cy="-395.01" rx="32.4942" ry="18"/>
<text text-anchor="middle" x="820.573" y="-391.31" font-family="Times,serif" font-size="14.00">27918</text>
</a>
</g>
</g>
<!-- 7173&#45;&gt;27918 -->
<g id="edge25" class="edge"><title>7173&#45;&gt;27918</title>
<path fill="none" stroke="black" d="M722.561,-429.045C742.985,-421.953 771.716,-411.976 792.792,-404.657"/>
</g>
<!-- 17725 -->
<g id="node48" class="node"><title>17725</title>
<g id="a_node48"><a xlink:title="3rd_week">
<ellipse fill="grey" stroke="black" cx="777.853" cy="-286.097" rx="32.4942" ry="18"/>
<text text-anchor="middle" x="777.853" y="-282.397" font-family="Times,serif" font-size="14.00">17725</text>
</a>
</g>
</g>
<!-- 7173&#45;&gt;17725 -->
<g id="edge17" class="edge"><title>7173&#45;&gt;17725</title>
<path fill="none" stroke="black" d="M706.403,-420.701C721.87,-391.564 753.153,-332.629 768.681,-303.376"/>
</g>
<!-- 10070 -->
<g id="node9" class="node"><title>10070</title>
<g id="a_node9"><a xlink:title="Day_0">
<ellipse fill="#07ffd1" stroke="black" cx="1032.64" cy="-558.328" rx="32.4942" ry="18"/>
<text text-anchor="middle" x="1032.64" y="-554.628" font-family="Times,serif" font-size="14.00">10070</text>
</a>
</g>
</g>
<!-- 18196 -->
<g id="node18" class="node"><title>18196</title>
<g id="a_node18"><a xlink:title="Day_0">
<ellipse fill="grey" stroke="black" cx="919.836" cy="-630.693" rx="32.4942" ry="18"/>
<text text-anchor="middle" x="919.836" y="-626.993" font-family="Times,serif" font-size="14.00">18196</text>
</a>
</g>
</g>
<!-- 10070&#45;&gt;18196 -->
<g id="edge23" class="edge"><title>10070&#45;&gt;18196</title>
<path fill="none" stroke="black" d="M1011.16,-572.11C991.088,-584.986 961.287,-604.103 941.24,-616.963"/>
</g>
<!-- 10990 -->
<g id="node10" class="node"><title>10990</title>
<g id="a_node10"><a xlink:title="PRE">
<ellipse fill="#07ffd1" stroke="black" cx="976.179" cy="-822.279" rx="32.4942" ry="18"/>
<text text-anchor="middle" x="976.179" y="-818.579" font-family="Times,serif" font-size="14.00">10990</text>
</a>
</g>
</g>
<!-- 13365 -->
<g id="node14" class="node"><title>13365</title>
<g id="a_node14"><a xlink:title="Day_0">
<ellipse fill="#07ffd1" stroke="black" cx="802.946" cy="-698.763" rx="32.4942" ry="18"/>
<text text-anchor="middle" x="802.946" y="-695.063" font-family="Times,serif" font-size="14.00">13365</text>
</a>
</g>
</g>
<!-- 10990&#45;&gt;13365 -->
<g id="edge4" class="edge"><title>10990&#45;&gt;13365</title>
<path fill="none" stroke="black" d="M955.968,-807.868C922.588,-784.068 856.324,-736.822 823.028,-713.082"/>
</g>
<!-- 22929 -->
<g id="node23" class="node"><title>22929</title>
<g id="a_node23"><a xlink:title="Day_0">
<ellipse fill="#07ffd1" stroke="black" cx="1086.85" cy="-771.813" rx="32.4942" ry="18"/>
<text text-anchor="middle" x="1086.85" y="-768.113" font-family="Times,serif" font-size="14.00">22929</text>
</a>
</g>
</g>
<!-- 10990&#45;&gt;22929 -->
<g id="edge2" class="edge"><title>10990&#45;&gt;22929</title>
<path fill="none" stroke="black" d="M1001.29,-810.827C1019.27,-802.627 1043.4,-791.624 1061.45,-783.394"/>
</g>
<!-- 10990&#45;&gt;25494 -->
<g id="edge21" class="edge"><title>10990&#45;&gt;25494</title>
<path fill="none" stroke="black" d="M995.234,-837.078C1030.04,-864.115 1103.54,-921.196 1138.36,-948.242"/>
</g>
<!-- 11047 -->
<g id="node11" class="node"><title>11047</title>
<g id="a_node11"><a xlink:title="Day_0">
<ellipse fill="#07ffd1" stroke="black" cx="400.485" cy="-361.178" rx="32.4942" ry="18"/>
<text text-anchor="middle" x="400.485" y="-357.478" font-family="Times,serif" font-size="14.00">11047</text>
</a>
</g>
</g>
<!-- 27539 -->
<g id="node33" class="node"><title>27539</title>
<g id="a_node33"><a xlink:title="Day_0">
<ellipse fill="#07ffd1" stroke="black" cx="489.404" cy="-471.353" rx="32.4942" ry="18"/>
<text text-anchor="middle" x="489.404" y="-467.653" font-family="Times,serif" font-size="14.00">27539</text>
</a>
</g>
</g>
<!-- 11047&#45;&gt;27539 -->
<g id="edge18" class="edge"><title>11047&#45;&gt;27539</title>
<path fill="none" stroke="black" d="M413.99,-377.911C430.8,-398.74 459.33,-434.09 476.064,-454.824"/>
</g>
<!-- 16499 -->
<g id="node17" class="node"><title>16499</title>
<g id="a_node17"><a xlink:title="3rd_week">
<ellipse fill="grey" stroke="black" cx="226.842" cy="-435.723" rx="32.4942" ry="18"/>
<text text-anchor="middle" x="226.842" y="-432.023" font-family="Times,serif" font-size="14.00">16499</text>
</a>
</g>
</g>
<!-- 11375&#45;&gt;16499 -->
<g id="edge53" class="edge"><title>11375&#45;&gt;16499</title>
<path fill="none" stroke="black" d="M333.142,-545.575C308.617,-520.231 265.633,-475.81 242.552,-451.958"/>
</g>
<!-- 21139 -->
<g id="node20" class="node"><title>21139</title>
<g id="a_node20"><a xlink:title="3rd_week">
<ellipse fill="grey" stroke="black" cx="213.266" cy="-487.291" rx="32.4942" ry="18"/>
<text text-anchor="middle" x="213.266" y="-483.591" font-family="Times,serif" font-size="14.00">21139</text>
</a>
</g>
</g>
<!-- 11375&#45;&gt;21139 -->
<g id="edge5" class="edge"><title>11375&#45;&gt;21139</title>
<path fill="none" stroke="black" d="M324.553,-549.503C298.931,-535.179 260.82,-513.875 236.511,-500.286"/>
</g>
<!-- 22241 -->
<g id="node22" class="node"><title>22241</title>
<g id="a_node22"><a xlink:title="3rd_week">
<ellipse fill="grey" stroke="black" cx="214.602" cy="-642.251" rx="32.4942" ry="18"/>
<text text-anchor="middle" x="214.602" y="-638.551" font-family="Times,serif" font-size="14.00">22241</text>
</a>
</g>
</g>
<!-- 11375&#45;&gt;22241 -->
<g id="edge37" class="edge"><title>11375&#45;&gt;22241</title>
<path fill="none" stroke="black" d="M324.814,-579.748C299.439,-594.139 261.696,-615.543 237.623,-629.196"/>
</g>
<!-- 11375&#45;&gt;27062 -->
<g id="edge41" class="edge"><title>11375&#45;&gt;27062</title>
<path fill="none" stroke="black" d="M388.018,-565.544C433.416,-566.73 510.271,-568.739 553.871,-569.879"/>
</g>
<!-- 29466 -->
<g id="node35" class="node"><title>29466</title>
<g id="a_node35"><a xlink:title="3rd_week">
<ellipse fill="#07ffd1" stroke="black" cx="166.399" cy="-574.646" rx="32.4942" ry="18"/>
<text text-anchor="middle" x="166.399" y="-570.946" font-family="Times,serif" font-size="14.00">29466</text>
</a>
</g>
</g>
<!-- 11375&#45;&gt;29466 -->
<g id="edge6" class="edge"><title>11375&#45;&gt;29466</title>
<path fill="none" stroke="black" d="M314.964,-566.577C281.136,-568.414 231.328,-571.119 198.875,-572.882"/>
</g>
<!-- 27242 -->
<g id="node40" class="node"><title>27242</title>
<g id="a_node40"><a xlink:title="3rd_week">
<ellipse fill="grey" stroke="black" cx="252.099" cy="-596.031" rx="32.4942" ry="18"/>
<text text-anchor="middle" x="252.099" y="-592.331" font-family="Times,serif" font-size="14.00">27242</text>
</a>
</g>
</g>
<!-- 11375&#45;&gt;27242 -->
<g id="edge39" class="edge"><title>11375&#45;&gt;27242</title>
<path fill="none" stroke="black" d="M318.981,-574.885C306.519,-578.825 292.418,-583.283 280.387,-587.087"/>
</g>
<!-- 13365&#45;&gt;18196 -->
<g id="edge51" class="edge"><title>13365&#45;&gt;18196</title>
<path fill="none" stroke="black" d="M825.484,-685.639C846.182,-673.585 876.691,-655.818 897.367,-643.778"/>
</g>
<!-- 26317 -->
<g id="node29" class="node"><title>26317</title>
<g id="a_node29"><a xlink:title="Day_0">
<ellipse fill="#07ffd1" stroke="black" cx="829.549" cy="-810.835" rx="32.4942" ry="18"/>
<text text-anchor="middle" x="829.549" y="-807.135" font-family="Times,serif" font-size="14.00">26317</text>
</a>
</g>
</g>
<!-- 13365&#45;&gt;26317 -->
<g id="edge46" class="edge"><title>13365&#45;&gt;26317</title>
<path fill="none" stroke="black" d="M807.22,-716.769C812.185,-737.683 820.326,-771.978 825.285,-792.873"/>
</g>
<!-- 13365&#45;&gt;27062 -->
<g id="edge20" class="edge"><title>13365&#45;&gt;27062</title>
<path fill="none" stroke="black" d="M780.612,-685.544C739.054,-660.947 650.316,-608.425 608.85,-583.883"/>
</g>
<!-- 15129 -->
<g id="node15" class="node"><title>15129</title>
<g id="a_node15"><a xlink:title="6th_week">
<ellipse fill="#07ffd1" stroke="black" cx="1167.89" cy="-1076.09" rx="32.4942" ry="18"/>
<text text-anchor="middle" x="1167.89" y="-1072.39" font-family="Times,serif" font-size="14.00">15129</text>
</a>
</g>
</g>
<!-- 15129&#45;&gt;25494 -->
<g id="edge33" class="edge"><title>15129&#45;&gt;25494</title>
<path fill="none" stroke="black" d="M1166.21,-1057.93C1164.26,-1036.83 1161.06,-1002.24 1159.11,-981.17"/>
</g>
<!-- 15480 -->
<g id="node16" class="node"><title>15480</title>
<g id="a_node16"><a xlink:title="6th_week">
<ellipse fill="#07ffd1" stroke="black" cx="1257.06" cy="-1078.78" rx="32.4942" ry="18"/>
<text text-anchor="middle" x="1257.06" y="-1075.08" font-family="Times,serif" font-size="14.00">15480</text>
</a>
</g>
</g>
<!-- 15480&#45;&gt;25243 -->
<g id="edge31" class="edge"><title>15480&#45;&gt;25243</title>
<path fill="none" stroke="black" d="M1272.71,-1094.88C1294.2,-1117.01 1332.63,-1156.57 1354.06,-1178.62"/>
</g>
<!-- 15480&#45;&gt;25494 -->
<g id="edge30" class="edge"><title>15480&#45;&gt;25494</title>
<path fill="none" stroke="black" d="M1242.79,-1062.2C1223.85,-1040.2 1190.61,-1001.59 1171.68,-979.605"/>
</g>
<!-- 20386 -->
<g id="node19" class="node"><title>20386</title>
<g id="a_node19"><a xlink:title="Day_0">
<ellipse fill="#07ffd1" stroke="black" cx="521.723" cy="-725.557" rx="32.4942" ry="18"/>
<text text-anchor="middle" x="521.723" y="-721.857" font-family="Times,serif" font-size="14.00">20386</text>
</a>
</g>
</g>
<!-- 21392 -->
<g id="node21" class="node"><title>21392</title>
<g id="a_node21"><a xlink:title="Day_0">
<ellipse fill="#07ffd1" stroke="black" cx="429.473" cy="-817.056" rx="32.4942" ry="18"/>
<text text-anchor="middle" x="429.473" y="-813.356" font-family="Times,serif" font-size="14.00">21392</text>
</a>
</g>
</g>
<!-- 20386&#45;&gt;21392 -->
<g id="edge38" class="edge"><title>20386&#45;&gt;21392</title>
<path fill="none" stroke="black" d="M505.655,-741.495C488.723,-758.289 462.22,-784.576 445.357,-801.301"/>
</g>
<!-- 20386&#45;&gt;27062 -->
<g id="edge19" class="edge"><title>20386&#45;&gt;27062</title>
<path fill="none" stroke="black" d="M529.17,-707.797C541.692,-677.933 566.815,-618.014 579.278,-588.289"/>
</g>
<!-- 20737 -->
<g id="node50" class="node"><title>20737</title>
<g id="a_node50"><a xlink:title="Day_0">
<ellipse fill="#07ffd1" stroke="black" cx="507.569" cy="-852.717" rx="32.4942" ry="18"/>
<text text-anchor="middle" x="507.569" y="-849.017" font-family="Times,serif" font-size="14.00">20737</text>
</a>
</g>
</g>
<!-- 20386&#45;&gt;20737 -->
<g id="edge50" class="edge"><title>20386&#45;&gt;20737</title>
<path fill="none" stroke="black" d="M519.695,-743.776C517.005,-767.949 512.282,-810.376 509.593,-834.532"/>
</g>
<!-- 23367 -->
<g id="node24" class="node"><title>23367</title>
<g id="a_node24"><a xlink:title="Day_0">
<ellipse fill="grey" stroke="black" cx="1461.74" cy="-986.375" rx="32.4942" ry="18"/>
<text text-anchor="middle" x="1461.74" y="-982.675" font-family="Times,serif" font-size="14.00">23367</text>
</a>
</g>
</g>
<!-- 23367&#45;&gt;27301 -->
<g id="edge34" class="edge"><title>23367&#45;&gt;27301</title>
<path fill="none" stroke="black" d="M1431.18,-980.197C1407.3,-975.372 1374.26,-968.693 1350.28,-963.844"/>
</g>
<!-- 24190 -->
<g id="node25" class="node"><title>24190</title>
<g id="a_node25"><a xlink:title="Day_0">
<ellipse fill="#07ffd1" stroke="black" cx="625.776" cy="-690.419" rx="32.4942" ry="18"/>
<text text-anchor="middle" x="625.776" y="-686.719" font-family="Times,serif" font-size="14.00">24190</text>
</a>
</g>
</g>
<!-- 24190&#45;&gt;27062 -->
<g id="edge49" class="edge"><title>24190&#45;&gt;27062</title>
<path fill="none" stroke="black" d="M619.917,-672.501C612.538,-649.938 599.934,-611.396 592.537,-588.776"/>
</g>
<!-- 24356 -->
<g id="node26" class="node"><title>24356</title>
<g id="a_node26"><a xlink:title="6th_week">
<ellipse fill="#07ffd1" stroke="black" cx="564.5" cy="-392.008" rx="32.4942" ry="18"/>
<text text-anchor="middle" x="564.5" y="-388.308" font-family="Times,serif" font-size="14.00">24356</text>
</a>
</g>
</g>
<!-- 24356&#45;&gt;27062 -->
<g id="edge14" class="edge"><title>24356&#45;&gt;27062</title>
<path fill="none" stroke="black" d="M566.744,-410.129C570.987,-444.385 580.139,-518.274 584.387,-552.567"/>
</g>
<!-- 21941 -->
<g id="node43" class="node"><title>21941</title>
<g id="a_node43"><a xlink:title="6th_week">
<ellipse fill="#07ffd1" stroke="black" cx="474.613" cy="-279.456" rx="32.4942" ry="18"/>
<text text-anchor="middle" x="474.613" y="-275.756" font-family="Times,serif" font-size="14.00">21941</text>
</a>
</g>
</g>
<!-- 24356&#45;&gt;21941 -->
<g id="edge11" class="edge"><title>24356&#45;&gt;21941</title>
<path fill="none" stroke="black" d="M551.237,-375.401C534.242,-354.121 504.951,-317.444 487.93,-296.132"/>
</g>
<!-- 25832 -->
<g id="node44" class="node"><title>25832</title>
<g id="a_node44"><a xlink:title="6th_week">
<ellipse fill="#07ffd1" stroke="black" cx="548.586" cy="-237.809" rx="32.4942" ry="18"/>
<text text-anchor="middle" x="548.586" y="-234.109" font-family="Times,serif" font-size="14.00">25832</text>
</a>
</g>
</g>
<!-- 24356&#45;&gt;25832 -->
<g id="edge15" class="edge"><title>24356&#45;&gt;25832</title>
<path fill="none" stroke="black" d="M562.643,-374.018C559.593,-344.464 553.555,-285.952 550.48,-256.163"/>
</g>
<!-- 12635 -->
<g id="node47" class="node"><title>12635</title>
<g id="a_node47"><a xlink:title="6th_week">
<ellipse fill="#07ffd1" stroke="black" cx="623.505" cy="-268.757" rx="32.4942" ry="18"/>
<text text-anchor="middle" x="623.505" y="-265.057" font-family="Times,serif" font-size="14.00">12635</text>
</a>
</g>
</g>
<!-- 24356&#45;&gt;12635 -->
<g id="edge24" class="edge"><title>24356&#45;&gt;12635</title>
<path fill="none" stroke="black" d="M572.954,-374.349C584.171,-350.919 603.858,-309.797 615.067,-286.383"/>
</g>
<!-- 25494&#45;&gt;27301 -->
<g id="edge16" class="edge"><title>25494&#45;&gt;27301</title>
<path fill="none" stroke="black" d="M1190.18,-961.946C1218.26,-960.996 1258.51,-959.634 1286.57,-958.684"/>
</g>
<!-- 27476 -->
<g id="node32" class="node"><title>27476</title>
<g id="a_node32"><a xlink:title="3rd_week">
<ellipse fill="#07ffd1" stroke="black" cx="1284.6" cy="-1022.28" rx="32.4942" ry="18"/>
<text text-anchor="middle" x="1284.6" y="-1018.58" font-family="Times,serif" font-size="14.00">27476</text>
</a>
</g>
</g>
<!-- 25494&#45;&gt;27476 -->
<g id="edge1" class="edge"><title>25494&#45;&gt;27476</title>
<path fill="none" stroke="black" d="M1182.56,-974.755C1204.85,-985.138 1237.25,-1000.23 1259.53,-1010.6"/>
</g>
<!-- 28387 -->
<g id="node34" class="node"><title>28387</title>
<g id="a_node34"><a xlink:title="6th_week">
<ellipse fill="grey" stroke="black" cx="1244.25" cy="-918.441" rx="32.4942" ry="18"/>
<text text-anchor="middle" x="1244.25" y="-914.741" font-family="Times,serif" font-size="14.00">28387</text>
</a>
</g>
</g>
<!-- 25494&#45;&gt;28387 -->
<g id="edge27" class="edge"><title>25494&#45;&gt;28387</title>
<path fill="none" stroke="black" d="M1181.62,-950.627C1193.66,-944.439 1208.17,-936.98 1220.2,-930.801"/>
</g>
<!-- 31949 -->
<g id="node38" class="node"><title>31949</title>
<g id="a_node38"><a xlink:title="6th_week">
<ellipse fill="#ffffff" stroke="black" cx="1074.57" cy="-1054.9" rx="32.4942" ry="18"/>
<text text-anchor="middle" x="1074.57" y="-1051.2" font-family="Times,serif" font-size="14.00">31949</text>
</a>
</g>
</g>
<!-- 25494&#45;&gt;31949 -->
<g id="edge36" class="edge"><title>25494&#45;&gt;31949</title>
<path fill="none" stroke="black" d="M1142.62,-979.475C1127.54,-996.192 1104.29,-1021.96 1089.26,-1038.62"/>
</g>
<!-- 19258 -->
<g id="node51" class="node"><title>19258</title>
<g id="a_node51"><a xlink:title="3rd_week">
<ellipse fill="#07ffd1" stroke="black" cx="1158.23" cy="-1136.35" rx="32.4942" ry="18"/>
<text text-anchor="middle" x="1158.23" y="-1132.65" font-family="Times,serif" font-size="14.00">19258</text>
</a>
</g>
</g>
<!-- 25494&#45;&gt;19258 -->
<g id="edge28" class="edge"><title>25494&#45;&gt;19258</title>
<path fill="none" stroke="black" d="M1157.52,-981.272C1157.67,-1014.55 1157.99,-1084.82 1158.14,-1118.11"/>
</g>
<!-- 27062&#45;&gt;27539 -->
<g id="edge32" class="edge"><title>27062&#45;&gt;27539</title>
<path fill="none" stroke="black" d="M571.015,-554.768C552.871,-536.223 523.116,-505.81 504.988,-487.281"/>
</g>
<!-- 29641 -->
<g id="node36" class="node"><title>29641</title>
<g id="a_node36"><a xlink:title="Day_0">
<ellipse fill="#07ffd1" stroke="black" cx="472.226" cy="-595.844" rx="32.4942" ry="18"/>
<text text-anchor="middle" x="472.226" y="-592.144" font-family="Times,serif" font-size="14.00">29641</text>
</a>
</g>
</g>
<!-- 27062&#45;&gt;29641 -->
<g id="edge35" class="edge"><title>27062&#45;&gt;29641</title>
<path fill="none" stroke="black" d="M556.278,-577.398C539.727,-581.03 519.3,-585.513 502.728,-589.15"/>
</g>
<!-- 9852 -->
<g id="node42" class="node"><title>9852</title>
<g id="a_node42"><a xlink:title="3rd_week">
<ellipse fill="#07ffd1" stroke="black" cx="688.159" cy="-528.679" rx="28.6953" ry="18"/>
<text text-anchor="middle" x="688.159" y="-524.979" font-family="Times,serif" font-size="14.00">9852</text>
</a>
</g>
</g>
<!-- 27062&#45;&gt;9852 -->
<g id="edge42" class="edge"><title>27062&#45;&gt;9852</title>
<path fill="none" stroke="black" d="M612.782,-559.905C628.644,-553.334 648.739,-545.009 664.19,-538.608"/>
</g>
<!-- 31616 -->
<g id="node46" class="node"><title>31616</title>
<g id="a_node46"><a xlink:title="3rd_week">
<ellipse fill="#07ffd1" stroke="black" cx="565.787" cy="-464.856" rx="32.4942" ry="18"/>
<text text-anchor="middle" x="565.787" y="-461.156" font-family="Times,serif" font-size="14.00">31616</text>
</a>
</g>
</g>
<!-- 27062&#45;&gt;31616 -->
<g id="edge48" class="edge"><title>27062&#45;&gt;31616</title>
<path fill="none" stroke="black" d="M583.101,-552.775C579.266,-533.305 573.182,-502.41 569.341,-482.905"/>
</g>
<!-- 30822 -->
<g id="node37" class="node"><title>30822</title>
<g id="a_node37"><a xlink:title="3rd_week">
<ellipse fill="#07ffd1" stroke="black" cx="1413.17" cy="-1085.49" rx="32.4942" ry="18"/>
<text text-anchor="middle" x="1413.17" y="-1081.79" font-family="Times,serif" font-size="14.00">30822</text>
</a>
</g>
</g>
<!-- 27476&#45;&gt;30822 -->
<g id="edge9" class="edge"><title>27476&#45;&gt;30822</title>
<path fill="none" stroke="black" d="M1309.08,-1034.32C1331.96,-1045.56 1365.93,-1062.26 1388.78,-1073.49"/>
</g>
<!-- 21406 -->
<g id="node39" class="node"><title>21406</title>
<g id="a_node39"><a xlink:title="3rd_week">
<ellipse fill="#ffffff" stroke="black" cx="32.2638" cy="-578.1" rx="32.4942" ry="18"/>
<text text-anchor="middle" x="32.2638" y="-574.4" font-family="Times,serif" font-size="14.00">21406</text>
</a>
</g>
</g>
<!-- 29466&#45;&gt;21406 -->
<g id="edge13" class="edge"><title>29466&#45;&gt;21406</title>
<path fill="none" stroke="black" d="M133.929,-575.482C112.994,-576.021 85.867,-576.72 64.9001,-577.259"/>
</g>
<!-- 18550 -->
<g id="node49" class="node"><title>18550</title>
<g id="a_node49"><a xlink:title="3rd_week">
<ellipse fill="#07ffd1" stroke="black" cx="852.892" cy="-153.604" rx="32.4942" ry="18"/>
<text text-anchor="middle" x="852.892" y="-149.904" font-family="Times,serif" font-size="14.00">18550</text>
</a>
</g>
</g>
<!-- 17725&#45;&gt;18550 -->
<g id="edge8" class="edge"><title>17725&#45;&gt;18550</title>
<path fill="none" stroke="black" d="M787.663,-268.776C802.044,-243.384 828.697,-196.324 843.079,-170.93"/>
</g>
<!-- 24555 -->
<g id="node52" class="node"><title>24555</title>
<g id="a_node52"><a xlink:title="3rd_week">
<ellipse fill="grey" stroke="black" cx="877.004" cy="-17.6803" rx="32.4942" ry="18"/>
<text text-anchor="middle" x="877.004" y="-13.9803" font-family="Times,serif" font-size="14.00">24555</text>
</a>
</g>
</g>
<!-- 18550&#45;&gt;24555 -->
<g id="edge7" class="edge"><title>18550&#45;&gt;24555</title>
<path fill="none" stroke="black" d="M856.094,-135.555C860.705,-109.557 869.17,-61.8434 873.789,-35.8046"/>
</g>
<!-- 25242 -->
<g id="node53" class="node"><title>25242</title>
<g id="a_node53"><a xlink:title="3rd_week">
<ellipse fill="#07ffd1" stroke="black" cx="960.708" cy="-66.3079" rx="32.4942" ry="18"/>
<text text-anchor="middle" x="960.708" y="-62.6079" font-family="Times,serif" font-size="14.00">25242</text>
</a>
</g>
</g>
<!-- 18550&#45;&gt;25242 -->
<g id="edge3" class="edge"><title>18550&#45;&gt;25242</title>
<path fill="none" stroke="black" d="M871.672,-138.398C891.461,-122.376 922.436,-97.2961 942.143,-81.3395"/>
</g>
<!-- 5600 -->
<g id="node54" class="node"><title>5600</title>
<g id="a_node54"><a xlink:title="3rd_week">
<ellipse fill="#07ffd1" stroke="black" cx="1082.08" cy="-1244.43" rx="28.6953" ry="18"/>
<text text-anchor="middle" x="1082.08" y="-1240.73" font-family="Times,serif" font-size="14.00">5600</text>
</a>
</g>
</g>
<!-- 19258&#45;&gt;5600 -->
<g id="edge54" class="edge"><title>19258&#45;&gt;5600</title>
<path fill="none" stroke="black" d="M1146.33,-1153.24C1132.02,-1173.54 1108.16,-1207.41 1093.89,-1227.66"/>
</g>
<!-- 14081 -->
<g id="node55" class="node"><title>14081</title>
<g id="a_node55"><a xlink:title="3rd_week">
<ellipse fill="#07ffd1" stroke="black" cx="1240.62" cy="-1249.1" rx="32.4942" ry="18"/>
<text text-anchor="middle" x="1240.62" y="-1245.4" font-family="Times,serif" font-size="14.00">14081</text>
</a>
</g>
</g>
<!-- 19258&#45;&gt;14081 -->
<g id="edge26" class="edge"><title>19258&#45;&gt;14081</title>
<path fill="none" stroke="black" d="M1170.74,-1153.47C1186.32,-1174.79 1212.76,-1210.97 1228.26,-1232.19"/>
</g>
<!-- 20908 -->
<g id="node56" class="node"><title>20908</title>
<g id="a_node56"><a xlink:title="3rd_week">
<ellipse fill="#07ffd1" stroke="black" cx="1164.41" cy="-1286.24" rx="32.4942" ry="18"/>
<text text-anchor="middle" x="1164.41" y="-1282.54" font-family="Times,serif" font-size="14.00">20908</text>
</a>
</g>
</g>
<!-- 19258&#45;&gt;20908 -->
<g id="edge40" class="edge"><title>19258&#45;&gt;20908</title>
<path fill="none" stroke="black" d="M1158.97,-1154.43C1160.16,-1183.24 1162.47,-1239.25 1163.66,-1268.1"/>
</g>
</g>
</svg>
