<?xml version="1.0" encoding="UTF-8" standalone="no"?>
<!DOCTYPE svg PUBLIC "-//W3C//DTD SVG 1.1//EN"
 "http://www.w3.org/Graphics/SVG/1.1/DTD/svg11.dtd">
<!-- Generated by graphviz version 2.38.0 (20140413.2041)
 -->
<!-- Title: %3 Pages: 1 -->
<svg width="1347pt" height="1303pt"
 viewBox="0.00 0.00 1347.00 1303.00" xmlns="http://www.w3.org/2000/svg" xmlns:xlink="http://www.w3.org/1999/xlink">
<g id="graph0" class="graph" transform="scale(1 1) rotate(0) translate(4 1299)">
<title>%3</title>
<polygon fill="white" stroke="none" points="-4,4 -4,-1299 1343,-1299 1343,4 -4,4"/>
<!-- 777 -->
<g id="node1" class="node"><title>777</title>
<g id="a_node1"><a xlink:title="PRE">
<ellipse fill="#20ff05" stroke="black" cx="260.631" cy="-1093.36" rx="27" ry="18"/>
<text text-anchor="middle" x="260.631" y="-1089.66" font-family="Times,serif" font-size="14.00">777</text>
</a>
</g>
</g>
<!-- 12943 -->
<g id="node26" class="node"><title>12943</title>
<g id="a_node26"><a xlink:title="PRE">
<ellipse fill="#20ff05" stroke="black" cx="389.176" cy="-914.857" rx="32.4942" ry="18"/>
<text text-anchor="middle" x="389.176" y="-911.157" font-family="Times,serif" font-size="14.00">12943</text>
</a>
</g>
</g>
<!-- 777&#45;&gt;12943 -->
<g id="edge12" class="edge"><title>777&#45;&gt;12943</title>
<path fill="none" stroke="black" d="M272.494,-1076.89C296.858,-1043.06 352.311,-966.05 376.967,-931.811"/>
</g>
<!-- 792 -->
<g id="node2" class="node"><title>792</title>
<g id="a_node2"><a xlink:title="PRE">
<ellipse fill="#20ff05" stroke="black" cx="1239.41" cy="-431.555" rx="27" ry="18"/>
<text text-anchor="middle" x="1239.41" y="-427.855" font-family="Times,serif" font-size="14.00">792</text>
</a>
</g>
</g>
<!-- 29179 -->
<g id="node52" class="node"><title>29179</title>
<g id="a_node52"><a xlink:title="PRE">
<ellipse fill="#20ff05" stroke="black" cx="1002.61" cy="-506.095" rx="32.4942" ry="18"/>
<text text-anchor="middle" x="1002.61" y="-502.395" font-family="Times,serif" font-size="14.00">29179</text>
</a>
</g>
</g>
<!-- 792&#45;&gt;29179 -->
<g id="edge28" class="edge"><title>792&#45;&gt;29179</title>
<path fill="none" stroke="black" d="M1214.96,-439.251C1170.76,-453.163 1077.83,-482.417 1030.94,-497.177"/>
</g>
<!-- 1096 -->
<g id="node3" class="node"><title>1096</title>
<g id="a_node3"><a xlink:title="PRE">
<ellipse fill="#ffffff" stroke="black" cx="893.492" cy="-84.862" rx="28.6953" ry="18"/>
<text text-anchor="middle" x="893.492" y="-81.162" font-family="Times,serif" font-size="14.00">1096</text>
</a>
</g>
</g>
<!-- 30111 -->
<g id="node54" class="node"><title>30111</title>
<g id="a_node54"><a xlink:title="PRE">
<ellipse fill="#ffffff" stroke="black" cx="812.298" cy="-321.296" rx="32.4942" ry="18"/>
<text text-anchor="middle" x="812.298" y="-317.596" font-family="Times,serif" font-size="14.00">30111</text>
</a>
</g>
</g>
<!-- 1096&#45;&gt;30111 -->
<g id="edge35" class="edge"><title>1096&#45;&gt;30111</title>
<path fill="none" stroke="black" d="M887.389,-102.633C872.342,-146.45 833.593,-259.287 818.471,-303.319"/>
</g>
<!-- 1130 -->
<g id="node4" class="node"><title>1130</title>
<g id="a_node4"><a xlink:title="PRE">
<ellipse fill="grey" stroke="black" cx="604.655" cy="-660.243" rx="28.6953" ry="18"/>
<text text-anchor="middle" x="604.655" y="-656.543" font-family="Times,serif" font-size="14.00">1130</text>
</a>
</g>
</g>
<!-- 28602 -->
<g id="node50" class="node"><title>28602</title>
<g id="a_node50"><a xlink:title="PRE">
<ellipse fill="#20ff05" stroke="black" cx="733.247" cy="-582.908" rx="32.4942" ry="18"/>
<text text-anchor="middle" x="733.247" y="-579.208" font-family="Times,serif" font-size="14.00">28602</text>
</a>
</g>
</g>
<!-- 1130&#45;&gt;28602 -->
<g id="edge8" class="edge"><title>1130&#45;&gt;28602</title>
<path fill="none" stroke="black" d="M625.602,-647.645C649.087,-633.521 687.016,-610.711 711.014,-596.278"/>
</g>
<!-- 1848 -->
<g id="node5" class="node"><title>1848</title>
<g id="a_node5"><a xlink:title="PRE">
<ellipse fill="#20ff05" stroke="black" cx="791.222" cy="-443.953" rx="28.6953" ry="18"/>
<text text-anchor="middle" x="791.222" y="-440.253" font-family="Times,serif" font-size="14.00">1848</text>
</a>
</g>
</g>
<!-- 1848&#45;&gt;28602 -->
<g id="edge21" class="edge"><title>1848&#45;&gt;28602</title>
<path fill="none" stroke="black" d="M783.879,-461.552C772.789,-488.134 751.876,-538.257 740.713,-565.013"/>
</g>
<!-- 3613 -->
<g id="node6" class="node"><title>3613</title>
<g id="a_node6"><a xlink:title="PRE">
<ellipse fill="grey" stroke="black" cx="558.524" cy="-360.126" rx="28.6953" ry="18"/>
<text text-anchor="middle" x="558.524" y="-356.426" font-family="Times,serif" font-size="14.00">3613</text>
</a>
</g>
</g>
<!-- 16454 -->
<g id="node29" class="node"><title>16454</title>
<g id="a_node29"><a xlink:title="PRE">
<ellipse fill="grey" stroke="black" cx="418.955" cy="-156.885" rx="32.4942" ry="18"/>
<text text-anchor="middle" x="418.955" y="-153.185" font-family="Times,serif" font-size="14.00">16454</text>
</a>
</g>
</g>
<!-- 3613&#45;&gt;16454 -->
<g id="edge42" class="edge"><title>3613&#45;&gt;16454</title>
<path fill="none" stroke="black" d="M547.103,-343.494C520.931,-305.382 456.858,-212.079 430.535,-173.747"/>
</g>
<!-- 3613&#45;&gt;28602 -->
<g id="edge14" class="edge"><title>3613&#45;&gt;28602</title>
<path fill="none" stroke="black" d="M571.372,-376.507C603.605,-417.606 687.637,-524.753 720.143,-566.199"/>
</g>
<!-- 4178 -->
<g id="node7" class="node"><title>4178</title>
<g id="a_node7"><a xlink:title="PRE">
<ellipse fill="#20ff05" stroke="black" cx="256.08" cy="-289.75" rx="28.6953" ry="18"/>
<text text-anchor="middle" x="256.08" y="-286.05" font-family="Times,serif" font-size="14.00">4178</text>
</a>
</g>
</g>
<!-- 26137 -->
<g id="node46" class="node"><title>26137</title>
<g id="a_node46"><a xlink:title="PRE">
<ellipse fill="#20ff05" stroke="black" cx="419.182" cy="-428.817" rx="32.4942" ry="18"/>
<text text-anchor="middle" x="419.182" y="-425.117" font-family="Times,serif" font-size="14.00">26137</text>
</a>
</g>
</g>
<!-- 4178&#45;&gt;26137 -->
<g id="edge30" class="edge"><title>4178&#45;&gt;26137</title>
<path fill="none" stroke="black" d="M273.227,-304.37C304.306,-330.87 369.65,-386.584 401.278,-413.551"/>
</g>
<!-- 4392 -->
<g id="node8" class="node"><title>4392</title>
<g id="a_node8"><a xlink:title="PRE">
<ellipse fill="#20ff05" stroke="black" cx="569.399" cy="-750.726" rx="28.6953" ry="18"/>
<text text-anchor="middle" x="569.399" y="-747.026" font-family="Times,serif" font-size="14.00">4392</text>
</a>
</g>
</g>
<!-- 4392&#45;&gt;28602 -->
<g id="edge3" class="edge"><title>4392&#45;&gt;28602</title>
<path fill="none" stroke="black" d="M584.52,-735.239C615.575,-703.431 686.258,-631.035 717.685,-598.847"/>
</g>
<!-- 4826 -->
<g id="node9" class="node"><title>4826</title>
<g id="a_node9"><a xlink:title="PRE">
<ellipse fill="#ffffff" stroke="black" cx="777.074" cy="-752.887" rx="28.6953" ry="18"/>
<text text-anchor="middle" x="777.074" y="-749.187" font-family="Times,serif" font-size="14.00">4826</text>
</a>
</g>
</g>
<!-- 4826&#45;&gt;28602 -->
<g id="edge32" class="edge"><title>4826&#45;&gt;28602</title>
<path fill="none" stroke="black" d="M772.467,-735.017C764.049,-702.372 746.279,-633.45 737.858,-600.793"/>
</g>
<!-- 4836 -->
<g id="node10" class="node"><title>4836</title>
<g id="a_node10"><a xlink:title="PRE">
<ellipse fill="#20ff05" stroke="black" cx="868.009" cy="-661.628" rx="28.6953" ry="18"/>
<text text-anchor="middle" x="868.009" y="-657.928" font-family="Times,serif" font-size="14.00">4836</text>
</a>
</g>
</g>
<!-- 4836&#45;&gt;28602 -->
<g id="edge54" class="edge"><title>4836&#45;&gt;28602</title>
<path fill="none" stroke="black" d="M846.952,-649.328C822.227,-634.885 781.373,-611.02 755.955,-596.172"/>
</g>
<!-- 6207 -->
<g id="node11" class="node"><title>6207</title>
<g id="a_node11"><a xlink:title="PRE">
<ellipse fill="#20ff05" stroke="black" cx="843.621" cy="-758.166" rx="28.6953" ry="18"/>
<text text-anchor="middle" x="843.621" y="-754.466" font-family="Times,serif" font-size="14.00">6207</text>
</a>
</g>
</g>
<!-- 6207&#45;&gt;28602 -->
<g id="edge5" class="edge"><title>6207&#45;&gt;28602</title>
<path fill="none" stroke="black" d="M833.038,-741.361C811.995,-707.948 765.109,-633.5 743.96,-599.919"/>
</g>
<!-- 6984 -->
<g id="node12" class="node"><title>6984</title>
<g id="a_node12"><a xlink:title="PRE">
<ellipse fill="#20ff05" stroke="black" cx="801.763" cy="-875.695" rx="28.6953" ry="18"/>
<text text-anchor="middle" x="801.763" y="-871.995" font-family="Times,serif" font-size="14.00">6984</text>
</a>
</g>
</g>
<!-- 6984&#45;&gt;28602 -->
<g id="edge16" class="edge"><title>6984&#45;&gt;28602</title>
<path fill="none" stroke="black" d="M797.58,-857.821C785.348,-805.551 749.735,-653.366 737.462,-600.92"/>
</g>
<!-- 30009 -->
<g id="node55" class="node"><title>30009</title>
<g id="a_node55"><a xlink:title="6th_week">
<ellipse fill="#20ff05" stroke="black" cx="864.97" cy="-1080.84" rx="32.4942" ry="18"/>
<text text-anchor="middle" x="864.97" y="-1077.14" font-family="Times,serif" font-size="14.00">30009</text>
</a>
</g>
</g>
<!-- 6984&#45;&gt;30009 -->
<g id="edge46" class="edge"><title>6984&#45;&gt;30009</title>
<path fill="none" stroke="black" d="M807.262,-893.542C819.216,-932.34 847.456,-1024 859.439,-1062.89"/>
</g>
<!-- 7401 -->
<g id="node13" class="node"><title>7401</title>
<g id="a_node13"><a xlink:title="PRE">
<ellipse fill="grey" stroke="black" cx="693.099" cy="-813.194" rx="28.6953" ry="18"/>
<text text-anchor="middle" x="693.099" y="-809.494" font-family="Times,serif" font-size="14.00">7401</text>
</a>
</g>
</g>
<!-- 7401&#45;&gt;28602 -->
<g id="edge44" class="edge"><title>7401&#45;&gt;28602</title>
<path fill="none" stroke="black" d="M696.249,-795.124C703.754,-752.075 722.621,-643.858 730.111,-600.894"/>
</g>
<!-- 7594 -->
<g id="node14" class="node"><title>7594</title>
<g id="a_node14"><a xlink:title="PRE">
<ellipse fill="#20ff05" stroke="black" cx="1308.45" cy="-679.551" rx="28.6953" ry="18"/>
<text text-anchor="middle" x="1308.45" y="-675.851" font-family="Times,serif" font-size="14.00">7594</text>
</a>
</g>
</g>
<!-- 18610 -->
<g id="node32" class="node"><title>18610</title>
<g id="a_node32"><a xlink:title="PRE">
<ellipse fill="#20ff05" stroke="black" cx="1067.7" cy="-693.707" rx="32.4942" ry="18"/>
<text text-anchor="middle" x="1067.7" y="-690.007" font-family="Times,serif" font-size="14.00">18610</text>
</a>
</g>
</g>
<!-- 7594&#45;&gt;18610 -->
<g id="edge10" class="edge"><title>7594&#45;&gt;18610</title>
<path fill="none" stroke="black" d="M1279.89,-681.231C1234.8,-683.882 1147.39,-689.021 1100.05,-691.804"/>
</g>
<!-- 8489 -->
<g id="node15" class="node"><title>8489</title>
<g id="a_node15"><a xlink:title="PRE">
<ellipse fill="grey" stroke="black" cx="735.436" cy="-381.028" rx="28.6953" ry="18"/>
<text text-anchor="middle" x="735.436" y="-377.328" font-family="Times,serif" font-size="14.00">8489</text>
</a>
</g>
</g>
<!-- 8489&#45;&gt;28602 -->
<g id="edge23" class="edge"><title>8489&#45;&gt;28602</title>
<path fill="none" stroke="black" d="M735.238,-399.3C734.821,-437.735 733.858,-526.551 733.443,-564.823"/>
</g>
<!-- 8507 -->
<g id="node16" class="node"><title>8507</title>
<g id="a_node16"><a xlink:title="PRE">
<ellipse fill="#20ff05" stroke="black" cx="1161.28" cy="-225.243" rx="28.6953" ry="18"/>
<text text-anchor="middle" x="1161.28" y="-221.543" font-family="Times,serif" font-size="14.00">8507</text>
</a>
</g>
</g>
<!-- 25613 -->
<g id="node44" class="node"><title>25613</title>
<g id="a_node44"><a xlink:title="PRE">
<ellipse fill="#20ff05" stroke="black" cx="955.893" cy="-363.259" rx="32.4942" ry="18"/>
<text text-anchor="middle" x="955.893" y="-359.559" font-family="Times,serif" font-size="14.00">25613</text>
</a>
</g>
</g>
<!-- 8507&#45;&gt;25613 -->
<g id="edge39" class="edge"><title>8507&#45;&gt;25613</title>
<path fill="none" stroke="black" d="M1141.59,-238.476C1102.73,-264.587 1016.52,-322.517 976.746,-349.246"/>
</g>
<!-- 8629 -->
<g id="node17" class="node"><title>8629</title>
<g id="a_node17"><a xlink:title="PRE">
<ellipse fill="#20ff05" stroke="black" cx="890.292" cy="-491.804" rx="28.6953" ry="18"/>
<text text-anchor="middle" x="890.292" y="-488.104" font-family="Times,serif" font-size="14.00">8629</text>
</a>
</g>
</g>
<!-- 8629&#45;&gt;28602 -->
<g id="edge9" class="edge"><title>8629&#45;&gt;28602</title>
<path fill="none" stroke="black" d="M869.112,-504.091C839.558,-521.236 786.173,-552.205 755.866,-569.786"/>
</g>
<!-- 9060 -->
<g id="node18" class="node"><title>9060</title>
<g id="a_node18"><a xlink:title="PRE">
<ellipse fill="grey" stroke="black" cx="632.257" cy="-445.308" rx="28.6953" ry="18"/>
<text text-anchor="middle" x="632.257" y="-441.608" font-family="Times,serif" font-size="14.00">9060</text>
</a>
</g>
</g>
<!-- 9060&#45;&gt;28602 -->
<g id="edge22" class="edge"><title>9060&#45;&gt;28602</title>
<path fill="none" stroke="black" d="M644.439,-461.906C663.745,-488.21 701.177,-539.212 720.705,-565.819"/>
</g>
<!-- 10287 -->
<g id="node19" class="node"><title>10287</title>
<g id="a_node19"><a xlink:title="PRE">
<ellipse fill="grey" stroke="black" cx="598.512" cy="-32.9189" rx="32.4942" ry="18"/>
<text text-anchor="middle" x="598.512" y="-29.2189" font-family="Times,serif" font-size="14.00">10287</text>
</a>
</g>
</g>
<!-- 14220 -->
<g id="node28" class="node"><title>14220</title>
<g id="a_node28"><a xlink:title="PRE">
<ellipse fill="#20ff05" stroke="black" cx="678.232" cy="-270.957" rx="32.4942" ry="18"/>
<text text-anchor="middle" x="678.232" y="-267.257" font-family="Times,serif" font-size="14.00">14220</text>
</a>
</g>
</g>
<!-- 10287&#45;&gt;14220 -->
<g id="edge17" class="edge"><title>10287&#45;&gt;14220</title>
<path fill="none" stroke="black" d="M604.504,-50.8104C619.314,-95.0324 657.51,-209.084 672.279,-253.183"/>
</g>
<!-- 10387 -->
<g id="node20" class="node"><title>10387</title>
<g id="a_node20"><a xlink:title="PRE">
<ellipse fill="#20ff05" stroke="black" cx="940.401" cy="-624.317" rx="32.4942" ry="18"/>
<text text-anchor="middle" x="940.401" y="-620.617" font-family="Times,serif" font-size="14.00">10387</text>
</a>
</g>
</g>
<!-- 10387&#45;&gt;28602 -->
<g id="edge19" class="edge"><title>10387&#45;&gt;28602</title>
<path fill="none" stroke="black" d="M909.388,-618.117C870.222,-610.288 803.238,-596.899 764.133,-589.082"/>
</g>
<!-- 10717 -->
<g id="node21" class="node"><title>10717</title>
<g id="a_node21"><a xlink:title="PRE">
<ellipse fill="#20ff05" stroke="black" cx="1100.37" cy="-156.015" rx="32.4942" ry="18"/>
<text text-anchor="middle" x="1100.37" y="-152.315" font-family="Times,serif" font-size="14.00">10717</text>
</a>
</g>
</g>
<!-- 10717&#45;&gt;25613 -->
<g id="edge50" class="edge"><title>10717&#45;&gt;25613</title>
<path fill="none" stroke="black" d="M1088.55,-172.974C1061.39,-211.933 994.8,-307.451 967.678,-346.355"/>
</g>
<!-- 10990 -->
<g id="node22" class="node"><title>10990</title>
<g id="a_node22"><a xlink:title="PRE">
<ellipse fill="#20ff05" stroke="black" cx="508.735" cy="-669.614" rx="32.4942" ry="18"/>
<text text-anchor="middle" x="508.735" y="-665.914" font-family="Times,serif" font-size="14.00">10990</text>
</a>
</g>
</g>
<!-- 10990&#45;&gt;28602 -->
<g id="edge34" class="edge"><title>10990&#45;&gt;28602</title>
<path fill="none" stroke="black" d="M535.816,-659.155C579.085,-642.444 663.31,-609.917 706.419,-593.269"/>
</g>
<!-- 12013 -->
<g id="node23" class="node"><title>12013</title>
<g id="a_node23"><a xlink:title="PRE">
<ellipse fill="#20ff05" stroke="black" cx="213.224" cy="-367.112" rx="32.4942" ry="18"/>
<text text-anchor="middle" x="213.224" y="-363.412" font-family="Times,serif" font-size="14.00">12013</text>
</a>
</g>
</g>
<!-- 12013&#45;&gt;26137 -->
<g id="edge40" class="edge"><title>12013&#45;&gt;26137</title>
<path fill="none" stroke="black" d="M241.862,-375.691C281.1,-387.447 351.172,-408.441 390.456,-420.21"/>
</g>
<!-- 12210 -->
<g id="node24" class="node"><title>12210</title>
<g id="a_node24"><a xlink:title="PRE">
<ellipse fill="#20ff05" stroke="black" cx="1059.85" cy="-1006.51" rx="32.4942" ry="18"/>
<text text-anchor="middle" x="1059.85" y="-1002.81" font-family="Times,serif" font-size="14.00">12210</text>
</a>
</g>
</g>
<!-- 27283 -->
<g id="node49" class="node"><title>27283</title>
<g id="a_node49"><a xlink:title="PRE">
<ellipse fill="#20ff05" stroke="black" cx="920.863" cy="-834.135" rx="32.4942" ry="18"/>
<text text-anchor="middle" x="920.863" y="-830.435" font-family="Times,serif" font-size="14.00">27283</text>
</a>
</g>
</g>
<!-- 12210&#45;&gt;27283 -->
<g id="edge36" class="edge"><title>12210&#45;&gt;27283</title>
<path fill="none" stroke="black" d="M1046.53,-989.98C1019.96,-957.033 960.683,-883.519 934.149,-850.612"/>
</g>
<!-- 12390 -->
<g id="node25" class="node"><title>12390</title>
<g id="a_node25"><a xlink:title="PRE">
<ellipse fill="grey" stroke="black" cx="151.407" cy="-978.659" rx="32.4942" ry="18"/>
<text text-anchor="middle" x="151.407" y="-974.959" font-family="Times,serif" font-size="14.00">12390</text>
</a>
</g>
</g>
<!-- 12390&#45;&gt;12943 -->
<g id="edge1" class="edge"><title>12390&#45;&gt;12943</title>
<path fill="none" stroke="black" d="M181.04,-970.707C226.852,-958.414 314.332,-934.94 359.916,-922.708"/>
</g>
<!-- 18987 -->
<g id="node33" class="node"><title>18987</title>
<g id="a_node33"><a xlink:title="PRE">
<ellipse fill="#ffffff" stroke="black" cx="364.75" cy="-1093.72" rx="32.4942" ry="18"/>
<text text-anchor="middle" x="364.75" y="-1090.02" font-family="Times,serif" font-size="14.00">18987</text>
</a>
</g>
</g>
<!-- 12943&#45;&gt;18987 -->
<g id="edge27" class="edge"><title>12943&#45;&gt;18987</title>
<path fill="none" stroke="black" d="M386.699,-932.991C382.018,-967.272 371.92,-1041.22 367.233,-1075.53"/>
</g>
<!-- 20188 -->
<g id="node35" class="node"><title>20188</title>
<g id="a_node35"><a xlink:title="PRE">
<ellipse fill="#20ff05" stroke="black" cx="164.485" cy="-857.752" rx="32.4942" ry="18"/>
<text text-anchor="middle" x="164.485" y="-854.052" font-family="Times,serif" font-size="14.00">20188</text>
</a>
</g>
</g>
<!-- 12943&#45;&gt;20188 -->
<g id="edge51" class="edge"><title>12943&#45;&gt;20188</title>
<path fill="none" stroke="black" d="M359.338,-907.274C316.244,-896.321 237.051,-876.194 194.088,-865.275"/>
</g>
<!-- 23891 -->
<g id="node37" class="node"><title>23891</title>
<g id="a_node37"><a xlink:title="PRE">
<ellipse fill="#ffffff" stroke="black" cx="226.317" cy="-1041.07" rx="32.4942" ry="18"/>
<text text-anchor="middle" x="226.317" y="-1037.37" font-family="Times,serif" font-size="14.00">23891</text>
</a>
</g>
</g>
<!-- 12943&#45;&gt;23891 -->
<g id="edge47" class="edge"><title>12943&#45;&gt;23891</title>
<path fill="none" stroke="black" d="M370.175,-929.582C338.878,-953.838 276.831,-1001.92 245.448,-1026.25"/>
</g>
<!-- 24330 -->
<g id="node39" class="node"><title>24330</title>
<g id="a_node39"><a xlink:title="PRE">
<ellipse fill="#20ff05" stroke="black" cx="155.433" cy="-927.596" rx="32.4942" ry="18"/>
<text text-anchor="middle" x="155.433" y="-923.896" font-family="Times,serif" font-size="14.00">24330</text>
</a>
</g>
</g>
<!-- 12943&#45;&gt;24330 -->
<g id="edge18" class="edge"><title>12943&#45;&gt;24330</title>
<path fill="none" stroke="black" d="M356.675,-916.628C312.143,-919.055 232.618,-923.39 188.034,-925.82"/>
</g>
<!-- 24936 -->
<g id="node41" class="node"><title>24936</title>
<g id="a_node41"><a xlink:title="PRE">
<ellipse fill="#20ff05" stroke="black" cx="449.487" cy="-1137.99" rx="32.4942" ry="18"/>
<text text-anchor="middle" x="449.487" y="-1134.29" font-family="Times,serif" font-size="14.00">24936</text>
</a>
</g>
</g>
<!-- 12943&#45;&gt;24936 -->
<g id="edge37" class="edge"><title>12943&#45;&gt;24936</title>
<path fill="none" stroke="black" d="M394.009,-932.739C405.302,-974.518 433.315,-1078.15 444.63,-1120.02"/>
</g>
<!-- 27157 -->
<g id="node48" class="node"><title>27157</title>
<g id="a_node48"><a xlink:title="PRE">
<ellipse fill="grey" stroke="black" cx="299.455" cy="-1150.76" rx="32.4942" ry="18"/>
<text text-anchor="middle" x="299.455" y="-1147.06" font-family="Times,serif" font-size="14.00">27157</text>
</a>
</g>
</g>
<!-- 12943&#45;&gt;27157 -->
<g id="edge6" class="edge"><title>12943&#45;&gt;27157</title>
<path fill="none" stroke="black" d="M382.432,-932.587C365.764,-976.412 322.776,-1089.44 306.154,-1133.14"/>
</g>
<!-- 12943&#45;&gt;28602 -->
<g id="edge33" class="edge"><title>12943&#45;&gt;28602</title>
<path fill="none" stroke="black" d="M405.771,-898.846C464.03,-842.64 658.82,-654.712 716.818,-598.758"/>
</g>
<!-- 29645 -->
<g id="node53" class="node"><title>29645</title>
<g id="a_node53"><a xlink:title="PRE">
<ellipse fill="#20ff05" stroke="black" cx="176.929" cy="-1128.47" rx="32.4942" ry="18"/>
<text text-anchor="middle" x="176.929" y="-1124.77" font-family="Times,serif" font-size="14.00">29645</text>
</a>
</g>
</g>
<!-- 12943&#45;&gt;29645 -->
<g id="edge41" class="edge"><title>12943&#45;&gt;29645</title>
<path fill="none" stroke="black" d="M373.223,-930.912C333.792,-970.597 232.098,-1072.95 192.777,-1112.52"/>
</g>
<!-- 13875 -->
<g id="node27" class="node"><title>13875</title>
<g id="a_node27"><a xlink:title="PRE">
<ellipse fill="#ffffff" stroke="black" cx="1306.85" cy="-762.647" rx="32.4942" ry="18"/>
<text text-anchor="middle" x="1306.85" y="-758.947" font-family="Times,serif" font-size="14.00">13875</text>
</a>
</g>
</g>
<!-- 13875&#45;&gt;18610 -->
<g id="edge45" class="edge"><title>13875&#45;&gt;18610</title>
<path fill="none" stroke="black" d="M1278,-754.332C1232.03,-741.081 1142.68,-715.321 1096.65,-702.052"/>
</g>
<!-- 16826 -->
<g id="node30" class="node"><title>16826</title>
<g id="a_node30"><a xlink:title="PRE">
<ellipse fill="#ffffff" stroke="black" cx="690.07" cy="-18.4369" rx="32.4942" ry="18"/>
<text text-anchor="middle" x="690.07" y="-14.7369" font-family="Times,serif" font-size="14.00">16826</text>
</a>
</g>
</g>
<!-- 14220&#45;&gt;16826 -->
<g id="edge15" class="edge"><title>14220&#45;&gt;16826</title>
<path fill="none" stroke="black" d="M679.083,-252.796C681.267,-206.204 687.051,-82.8435 689.226,-36.433"/>
</g>
<!-- 14220&#45;&gt;28602 -->
<g id="edge29" class="edge"><title>14220&#45;&gt;28602</title>
<path fill="none" stroke="black" d="M681.427,-289.077C691.151,-344.212 720.307,-509.536 730.042,-564.738"/>
</g>
<!-- 16922 -->
<g id="node31" class="node"><title>16922</title>
<g id="a_node31"><a xlink:title="PRE">
<ellipse fill="#20ff05" stroke="black" cx="498.749" cy="-598.691" rx="32.4942" ry="18"/>
<text text-anchor="middle" x="498.749" y="-594.991" font-family="Times,serif" font-size="14.00">16922</text>
</a>
</g>
</g>
<!-- 16922&#45;&gt;28602 -->
<g id="edge26" class="edge"><title>16922&#45;&gt;28602</title>
<path fill="none" stroke="black" d="M531.355,-596.496C576.157,-593.481 656.262,-588.089 700.918,-585.084"/>
</g>
<!-- 18610&#45;&gt;28602 -->
<g id="edge53" class="edge"><title>18610&#45;&gt;28602</title>
<path fill="none" stroke="black" d="M1039.76,-684.451C976.802,-663.594 824.445,-613.12 761.342,-592.215"/>
</g>
<!-- 29092 -->
<g id="node51" class="node"><title>29092</title>
<g id="a_node51"><a xlink:title="PRE">
<ellipse fill="#20ff05" stroke="black" cx="1267.82" cy="-837.311" rx="32.4942" ry="18"/>
<text text-anchor="middle" x="1267.82" y="-833.611" font-family="Times,serif" font-size="14.00">29092</text>
</a>
</g>
</g>
<!-- 18610&#45;&gt;29092 -->
<g id="edge4" class="edge"><title>18610&#45;&gt;29092</title>
<path fill="none" stroke="black" d="M1087.62,-708.001C1125.88,-735.456 1209.25,-795.284 1247.68,-822.861"/>
</g>
<!-- 19331 -->
<g id="node34" class="node"><title>19331</title>
<g id="a_node34"><a xlink:title="PRE">
<ellipse fill="#20ff05" stroke="black" cx="517.633" cy="-534.281" rx="32.4942" ry="18"/>
<text text-anchor="middle" x="517.633" y="-530.581" font-family="Times,serif" font-size="14.00">19331</text>
</a>
</g>
</g>
<!-- 19331&#45;&gt;28602 -->
<g id="edge31" class="edge"><title>19331&#45;&gt;28602</title>
<path fill="none" stroke="black" d="M548.068,-541.145C589.161,-550.412 661.954,-566.829 702.967,-576.079"/>
</g>
<!-- 23407 -->
<g id="node36" class="node"><title>23407</title>
<g id="a_node36"><a xlink:title="Day_0">
<ellipse fill="#20ff05" stroke="black" cx="643.261" cy="-379.024" rx="32.4942" ry="18"/>
<text text-anchor="middle" x="643.261" y="-375.324" font-family="Times,serif" font-size="14.00">23407</text>
</a>
</g>
</g>
<!-- 23407&#45;&gt;28602 -->
<g id="edge11" class="edge"><title>23407&#45;&gt;28602</title>
<path fill="none" stroke="black" d="M651.089,-396.76C668.15,-435.416 708.515,-526.871 725.501,-565.357"/>
</g>
<!-- 24195 -->
<g id="node38" class="node"><title>24195</title>
<g id="a_node38"><a xlink:title="PRE">
<ellipse fill="#20ff05" stroke="black" cx="647.237" cy="-765.203" rx="32.4942" ry="18"/>
<text text-anchor="middle" x="647.237" y="-761.503" font-family="Times,serif" font-size="14.00">24195</text>
</a>
</g>
</g>
<!-- 24195&#45;&gt;28602 -->
<g id="edge2" class="edge"><title>24195&#45;&gt;28602</title>
<path fill="none" stroke="black" d="M655.484,-747.724C671.924,-712.88 708.605,-635.135 725.025,-600.334"/>
</g>
<!-- 24591 -->
<g id="node40" class="node"><title>24591</title>
<g id="a_node40"><a xlink:title="PRE">
<ellipse fill="#20ff05" stroke="black" cx="535.684" cy="-474.301" rx="32.4942" ry="18"/>
<text text-anchor="middle" x="535.684" y="-470.601" font-family="Times,serif" font-size="14.00">24591</text>
</a>
</g>
</g>
<!-- 24591&#45;&gt;28602 -->
<g id="edge13" class="edge"><title>24591&#45;&gt;28602</title>
<path fill="none" stroke="black" d="M559.122,-487.186C597.247,-508.145 672.237,-549.369 710.144,-570.207"/>
</g>
<!-- 24987 -->
<g id="node42" class="node"><title>24987</title>
<g id="a_node42"><a xlink:title="PRE">
<ellipse fill="#20ff05" stroke="black" cx="32.5354" cy="-1277.41" rx="32.4942" ry="18"/>
<text text-anchor="middle" x="32.5354" y="-1273.71" font-family="Times,serif" font-size="14.00">24987</text>
</a>
</g>
</g>
<!-- 24987&#45;&gt;29645 -->
<g id="edge43" class="edge"><title>24987&#45;&gt;29645</title>
<path fill="none" stroke="black" d="M47.988,-1261.47C75.6342,-1232.95 133.269,-1173.5 161.15,-1144.75"/>
</g>
<!-- 25428 -->
<g id="node43" class="node"><title>25428</title>
<g id="a_node43"><a xlink:title="PRE">
<ellipse fill="#20ff05" stroke="black" cx="886.839" cy="-407.508" rx="32.4942" ry="18"/>
<text text-anchor="middle" x="886.839" y="-403.808" font-family="Times,serif" font-size="14.00">25428</text>
</a>
</g>
</g>
<!-- 25428&#45;&gt;28602 -->
<g id="edge24" class="edge"><title>25428&#45;&gt;28602</title>
<path fill="none" stroke="black" d="M872.39,-424.009C843.041,-457.524 776.768,-533.208 747.546,-566.578"/>
</g>
<!-- 25613&#45;&gt;28602 -->
<g id="edge25" class="edge"><title>25613&#45;&gt;28602</title>
<path fill="none" stroke="black" d="M939.881,-379.055C898.901,-419.484 790.562,-526.365 749.413,-566.959"/>
</g>
<!-- 25699 -->
<g id="node45" class="node"><title>25699</title>
<g id="a_node45"><a xlink:title="PRE">
<ellipse fill="grey" stroke="black" cx="918.379" cy="-707.631" rx="32.4942" ry="18"/>
<text text-anchor="middle" x="918.379" y="-703.931" font-family="Times,serif" font-size="14.00">25699</text>
</a>
</g>
</g>
<!-- 25699&#45;&gt;28602 -->
<g id="edge38" class="edge"><title>25699&#45;&gt;28602</title>
<path fill="none" stroke="black" d="M897.501,-693.567C861.851,-669.549 789.646,-620.904 754.048,-596.921"/>
</g>
<!-- 26137&#45;&gt;28602 -->
<g id="edge48" class="edge"><title>26137&#45;&gt;28602</title>
<path fill="none" stroke="black" d="M443.565,-440.78C502.079,-469.489 649.945,-542.037 708.663,-570.846"/>
</g>
<!-- 26664 -->
<g id="node47" class="node"><title>26664</title>
<g id="a_node47"><a xlink:title="PRE">
<ellipse fill="#20ff05" stroke="black" cx="925.271" cy="-554.73" rx="32.4942" ry="18"/>
<text text-anchor="middle" x="925.271" y="-551.03" font-family="Times,serif" font-size="14.00">26664</text>
</a>
</g>
</g>
<!-- 26664&#45;&gt;28602 -->
<g id="edge52" class="edge"><title>26664&#45;&gt;28602</title>
<path fill="none" stroke="black" d="M893.562,-559.383C857.876,-564.619 800.257,-573.074 764.684,-578.295"/>
</g>
<!-- 27283&#45;&gt;28602 -->
<g id="edge49" class="edge"><title>27283&#45;&gt;28602</title>
<path fill="none" stroke="black" d="M908.261,-817.261C874.083,-771.494 779.907,-645.389 745.793,-599.708"/>
</g>
<!-- 28602&#45;&gt;29179 -->
<g id="edge7" class="edge"><title>28602&#45;&gt;29179</title>
<path fill="none" stroke="black" d="M762.329,-574.614C814.159,-559.834 921.904,-529.109 973.646,-514.354"/>
</g>
<!-- 28602&#45;&gt;30111 -->
<g id="edge20" class="edge"><title>28602&#45;&gt;30111</title>
<path fill="none" stroke="black" d="M738.68,-564.926C753.157,-517.018 792.531,-386.712 806.931,-339.057"/>
</g>
</g>
</svg>
