<?xml version="1.0" encoding="UTF-8" standalone="no"?>
<!DOCTYPE svg PUBLIC "-//W3C//DTD SVG 1.1//EN"
 "http://www.w3.org/Graphics/SVG/1.1/DTD/svg11.dtd">
<!-- Generated by graphviz version 2.38.0 (20140413.2041)
 -->
<!-- Title: %3 Pages: 1 -->
<svg width="1206pt" height="1427pt"
 viewBox="0.00 0.00 1206.00 1427.00" xmlns="http://www.w3.org/2000/svg" xmlns:xlink="http://www.w3.org/1999/xlink">
<g id="graph0" class="graph" transform="scale(1 1) rotate(0) translate(4 1423)">
<title>%3</title>
<polygon fill="white" stroke="none" points="-4,4 -4,-1423 1202,-1423 1202,4 -4,4"/>
<!-- 162 -->
<g id="node1" class="node"><title>162</title>
<g id="a_node1"><a xlink:title="3rd_week">
<ellipse fill="#ff9f0f" stroke="black" cx="1099.58" cy="-1046.29" rx="27" ry="18"/>
<text text-anchor="middle" x="1099.58" y="-1042.59" font-family="Times,serif" font-size="14.00">162</text>
</a>
</g>
</g>
<!-- 1089 -->
<g id="node4" class="node"><title>1089</title>
<g id="a_node4"><a xlink:title="3rd_week">
<ellipse fill="#ff9f0f" stroke="black" cx="873.813" cy="-936.596" rx="28.6953" ry="18"/>
<text text-anchor="middle" x="873.813" y="-932.896" font-family="Times,serif" font-size="14.00">1089</text>
</a>
</g>
</g>
<!-- 162&#45;&gt;1089 -->
<g id="edge39" class="edge"><title>162&#45;&gt;1089</title>
<path fill="none" stroke="black" d="M1077.52,-1035.57C1034.58,-1014.71 940.171,-968.837 896.632,-947.683"/>
</g>
<!-- 571 -->
<g id="node2" class="node"><title>571</title>
<g id="a_node2"><a xlink:title="3rd_week">
<ellipse fill="#ffffff" stroke="black" cx="712.501" cy="-673.556" rx="27" ry="18"/>
<text text-anchor="middle" x="712.501" y="-669.856" font-family="Times,serif" font-size="14.00">571</text>
</a>
</g>
</g>
<!-- 10729 -->
<g id="node21" class="node"><title>10729</title>
<g id="a_node21"><a xlink:title="3rd_week">
<ellipse fill="#ff9f0f" stroke="black" cx="624.752" cy="-809.711" rx="32.4942" ry="18"/>
<text text-anchor="middle" x="624.752" y="-806.011" font-family="Times,serif" font-size="14.00">10729</text>
</a>
</g>
</g>
<!-- 571&#45;&gt;10729 -->
<g id="edge21" class="edge"><title>571&#45;&gt;10729</title>
<path fill="none" stroke="black" d="M701.741,-690.251C684.991,-716.241 652.847,-766.118 635.877,-792.45"/>
</g>
<!-- 1036 -->
<g id="node3" class="node"><title>1036</title>
<g id="a_node3"><a xlink:title="3rd_week">
<ellipse fill="#ff9f0f" stroke="black" cx="868.415" cy="-657.947" rx="28.6953" ry="18"/>
<text text-anchor="middle" x="868.415" y="-654.247" font-family="Times,serif" font-size="14.00">1036</text>
</a>
</g>
</g>
<!-- 1580 -->
<g id="node5" class="node"><title>1580</title>
<g id="a_node5"><a xlink:title="3rd_week">
<ellipse fill="#ff9f0f" stroke="black" cx="1084.29" cy="-539.995" rx="28.6953" ry="18"/>
<text text-anchor="middle" x="1084.29" y="-536.295" font-family="Times,serif" font-size="14.00">1580</text>
</a>
</g>
</g>
<!-- 1036&#45;&gt;1580 -->
<g id="edge40" class="edge"><title>1036&#45;&gt;1580</title>
<path fill="none" stroke="black" d="M890.303,-645.988C931.786,-623.322 1021.39,-574.364 1062.67,-551.81"/>
</g>
<!-- 1036&#45;&gt;10729 -->
<g id="edge4" class="edge"><title>1036&#45;&gt;10729</title>
<path fill="none" stroke="black" d="M848.06,-670.625C802.651,-698.907 693.402,-766.953 646.616,-796.093"/>
</g>
<!-- 1089&#45;&gt;10729 -->
<g id="edge17" class="edge"><title>1089&#45;&gt;10729</title>
<path fill="none" stroke="black" d="M851.272,-925.112C804.452,-901.26 697.037,-846.537 648.882,-822.004"/>
</g>
<!-- 2931 -->
<g id="node6" class="node"><title>2931</title>
<g id="a_node6"><a xlink:title="3rd_week">
<ellipse fill="#ffffff" stroke="black" cx="28.4123" cy="-1401.05" rx="28.6953" ry="18"/>
<text text-anchor="middle" x="28.4123" y="-1397.35" font-family="Times,serif" font-size="14.00">2931</text>
</a>
</g>
</g>
<!-- 25859 -->
<g id="node51" class="node"><title>25859</title>
<g id="a_node51"><a xlink:title="3rd_week">
<ellipse fill="#ff9f0f" stroke="black" cx="197.558" cy="-1232.92" rx="32.4942" ry="18"/>
<text text-anchor="middle" x="197.558" y="-1229.22" font-family="Times,serif" font-size="14.00">25859</text>
</a>
</g>
</g>
<!-- 2931&#45;&gt;25859 -->
<g id="edge38" class="edge"><title>2931&#45;&gt;25859</title>
<path fill="none" stroke="black" d="M43.7212,-1385.83C75.5993,-1354.14 148.84,-1281.34 181.421,-1248.96"/>
</g>
<!-- 2949 -->
<g id="node7" class="node"><title>2949</title>
<g id="a_node7"><a xlink:title="3rd_week">
<ellipse fill="grey" stroke="black" cx="421.539" cy="-858.61" rx="28.6953" ry="18"/>
<text text-anchor="middle" x="421.539" y="-854.91" font-family="Times,serif" font-size="14.00">2949</text>
</a>
</g>
</g>
<!-- 2949&#45;&gt;10729 -->
<g id="edge31" class="edge"><title>2949&#45;&gt;10729</title>
<path fill="none" stroke="black" d="M448.524,-852.116C486.42,-842.998 555.18,-826.452 594.676,-816.948"/>
</g>
<!-- 3442 -->
<g id="node8" class="node"><title>3442</title>
<g id="a_node8"><a xlink:title="3rd_week">
<ellipse fill="grey" stroke="black" cx="546.532" cy="-249.944" rx="28.6953" ry="18"/>
<text text-anchor="middle" x="546.532" y="-246.244" font-family="Times,serif" font-size="14.00">3442</text>
</a>
</g>
</g>
<!-- 21438 -->
<g id="node40" class="node"><title>21438</title>
<g id="a_node40"><a xlink:title="3rd_week">
<ellipse fill="#ff9f0f" stroke="black" cx="551.346" cy="-470.027" rx="32.4942" ry="18"/>
<text text-anchor="middle" x="551.346" y="-466.327" font-family="Times,serif" font-size="14.00">21438</text>
</a>
</g>
</g>
<!-- 3442&#45;&gt;21438 -->
<g id="edge43" class="edge"><title>3442&#45;&gt;21438</title>
<path fill="none" stroke="black" d="M546.926,-267.955C547.828,-309.224 550.038,-410.259 550.946,-451.768"/>
</g>
<!-- 3597 -->
<g id="node9" class="node"><title>3597</title>
<g id="a_node9"><a xlink:title="3rd_week">
<ellipse fill="#ff9f0f" stroke="black" cx="463.834" cy="-267.071" rx="28.6953" ry="18"/>
<text text-anchor="middle" x="463.834" y="-263.371" font-family="Times,serif" font-size="14.00">3597</text>
</a>
</g>
</g>
<!-- 3597&#45;&gt;21438 -->
<g id="edge18" class="edge"><title>3597&#45;&gt;21438</title>
<path fill="none" stroke="black" d="M471.447,-284.727C487.998,-323.111 527.097,-413.79 543.688,-452.267"/>
</g>
<!-- 3718 -->
<g id="node10" class="node"><title>3718</title>
<g id="a_node10"><a xlink:title="3rd_week">
<ellipse fill="#ff9f0f" stroke="black" cx="826.116" cy="-1075.33" rx="28.6953" ry="18"/>
<text text-anchor="middle" x="826.116" y="-1071.63" font-family="Times,serif" font-size="14.00">3718</text>
</a>
</g>
</g>
<!-- 10545 -->
<g id="node20" class="node"><title>10545</title>
<g id="a_node20"><a xlink:title="3rd_week">
<ellipse fill="#ffffff" stroke="black" cx="944.398" cy="-1298.47" rx="32.4942" ry="18"/>
<text text-anchor="middle" x="944.398" y="-1294.77" font-family="Times,serif" font-size="14.00">10545</text>
</a>
</g>
</g>
<!-- 3718&#45;&gt;10545 -->
<g id="edge22" class="edge"><title>3718&#45;&gt;10545</title>
<path fill="none" stroke="black" d="M835.201,-1092.47C857.164,-1133.9 912.958,-1239.16 935.119,-1280.97"/>
</g>
<!-- 3718&#45;&gt;10729 -->
<g id="edge47" class="edge"><title>3718&#45;&gt;10729</title>
<path fill="none" stroke="black" d="M813.52,-1058.71C777.357,-1011.01 673.5,-874.014 637.343,-826.32"/>
</g>
<!-- 18986 -->
<g id="node61" class="node"><title>18986</title>
<g id="a_node61"><a xlink:title="3rd_week">
<ellipse fill="grey" stroke="black" cx="1014.03" cy="-1242.78" rx="32.4942" ry="18"/>
<text text-anchor="middle" x="1014.03" y="-1239.08" font-family="Times,serif" font-size="14.00">18986</text>
</a>
</g>
</g>
<!-- 3718&#45;&gt;18986 -->
<g id="edge23" class="edge"><title>3718&#45;&gt;18986</title>
<path fill="none" stroke="black" d="M842.792,-1090.19C878.271,-1121.8 960.924,-1195.46 996.847,-1227.47"/>
</g>
<!-- 3975 -->
<g id="node11" class="node"><title>3975</title>
<g id="a_node11"><a xlink:title="3rd_week">
<ellipse fill="#ff9f0f" stroke="black" cx="709.366" cy="-1375.74" rx="28.6953" ry="18"/>
<text text-anchor="middle" x="709.366" y="-1372.04" font-family="Times,serif" font-size="14.00">3975</text>
</a>
</g>
</g>
<!-- 25994 -->
<g id="node52" class="node"><title>25994</title>
<g id="a_node52"><a xlink:title="3rd_week">
<ellipse fill="#ff9f0f" stroke="black" cx="644.034" cy="-1161.89" rx="32.4942" ry="18"/>
<text text-anchor="middle" x="644.034" y="-1158.19" font-family="Times,serif" font-size="14.00">25994</text>
</a>
</g>
</g>
<!-- 3975&#45;&gt;25994 -->
<g id="edge36" class="edge"><title>3975&#45;&gt;25994</title>
<path fill="none" stroke="black" d="M703.909,-1357.88C691.611,-1317.62 661.849,-1220.2 649.522,-1179.85"/>
</g>
<!-- 4668 -->
<g id="node12" class="node"><title>4668</title>
<g id="a_node12"><a xlink:title="3rd_week">
<ellipse fill="#ff9f0f" stroke="black" cx="713.458" cy="-912.843" rx="28.6953" ry="18"/>
<text text-anchor="middle" x="713.458" y="-909.143" font-family="Times,serif" font-size="14.00">4668</text>
</a>
</g>
</g>
<!-- 4668&#45;&gt;10729 -->
<g id="edge8" class="edge"><title>4668&#45;&gt;10729</title>
<path fill="none" stroke="black" d="M699.598,-896.729C683.03,-877.467 655.461,-845.414 638.808,-826.053"/>
</g>
<!-- 7723 -->
<g id="node13" class="node"><title>7723</title>
<g id="a_node13"><a xlink:title="3rd_week">
<ellipse fill="#ff9f0f" stroke="black" cx="724.51" cy="-487.744" rx="28.6953" ry="18"/>
<text text-anchor="middle" x="724.51" y="-484.044" font-family="Times,serif" font-size="14.00">7723</text>
</a>
</g>
</g>
<!-- 7723&#45;&gt;10729 -->
<g id="edge1" class="edge"><title>7723&#45;&gt;10729</title>
<path fill="none" stroke="black" d="M719.004,-505.513C701.604,-561.672 647.91,-734.968 630.363,-791.6"/>
</g>
<!-- 17502 -->
<g id="node29" class="node"><title>17502</title>
<g id="a_node29"><a xlink:title="3rd_week">
<ellipse fill="#ff9f0f" stroke="black" cx="810.906" cy="-246.53" rx="32.4942" ry="18"/>
<text text-anchor="middle" x="810.906" y="-242.83" font-family="Times,serif" font-size="14.00">17502</text>
</a>
</g>
</g>
<!-- 7723&#45;&gt;17502 -->
<g id="edge6" class="edge"><title>7723&#45;&gt;17502</title>
<path fill="none" stroke="black" d="M730.862,-470.007C746.84,-425.399 788.556,-308.929 804.544,-264.293"/>
</g>
<!-- 8396 -->
<g id="node14" class="node"><title>8396</title>
<g id="a_node14"><a xlink:title="3rd_week">
<ellipse fill="#ff9f0f" stroke="black" cx="619.328" cy="-628.033" rx="28.6953" ry="18"/>
<text text-anchor="middle" x="619.328" y="-624.333" font-family="Times,serif" font-size="14.00">8396</text>
</a>
</g>
</g>
<!-- 8396&#45;&gt;10729 -->
<g id="edge50" class="edge"><title>8396&#45;&gt;10729</title>
<path fill="none" stroke="black" d="M619.868,-646.117C620.907,-680.941 623.176,-756.934 624.214,-791.7"/>
</g>
<!-- 8605 -->
<g id="node15" class="node"><title>8605</title>
<g id="a_node15"><a xlink:title="3rd_week">
<ellipse fill="#ff9f0f" stroke="black" cx="805.992" cy="-805.309" rx="28.6953" ry="18"/>
<text text-anchor="middle" x="805.992" y="-801.609" font-family="Times,serif" font-size="14.00">8605</text>
</a>
</g>
</g>
<!-- 8605&#45;&gt;10729 -->
<g id="edge33" class="edge"><title>8605&#45;&gt;10729</title>
<path fill="none" stroke="black" d="M777.274,-806.007C744.635,-806.799 691.473,-808.091 657.317,-808.92"/>
</g>
<!-- 8704 -->
<g id="node16" class="node"><title>8704</title>
<g id="a_node16"><a xlink:title="3rd_week">
<ellipse fill="#ff9f0f" stroke="black" cx="452.77" cy="-917.109" rx="28.6953" ry="18"/>
<text text-anchor="middle" x="452.77" y="-913.409" font-family="Times,serif" font-size="14.00">8704</text>
</a>
</g>
</g>
<!-- 8704&#45;&gt;10729 -->
<g id="edge24" class="edge"><title>8704&#45;&gt;10729</title>
<path fill="none" stroke="black" d="M473.174,-904.368C505.828,-883.976 569.55,-844.183 603.023,-823.28"/>
</g>
<!-- 8928 -->
<g id="node17" class="node"><title>8928</title>
<g id="a_node17"><a xlink:title="3rd_week">
<ellipse fill="#ff9f0f" stroke="black" cx="798.325" cy="-870.072" rx="28.6953" ry="18"/>
<text text-anchor="middle" x="798.325" y="-866.372" font-family="Times,serif" font-size="14.00">8928</text>
</a>
</g>
</g>
<!-- 8928&#45;&gt;10729 -->
<g id="edge13" class="edge"><title>8928&#45;&gt;10729</title>
<path fill="none" stroke="black" d="M773.086,-861.295C740.93,-850.113 685.548,-830.853 652.317,-819.297"/>
</g>
<!-- 9390 -->
<g id="node18" class="node"><title>9390</title>
<g id="a_node18"><a xlink:title="3rd_week">
<ellipse fill="#ff9f0f" stroke="black" cx="525.571" cy="-656.094" rx="28.6953" ry="18"/>
<text text-anchor="middle" x="525.571" y="-652.394" font-family="Times,serif" font-size="14.00">9390</text>
</a>
</g>
</g>
<!-- 9390&#45;&gt;10729 -->
<g id="edge3" class="edge"><title>9390&#45;&gt;10729</title>
<path fill="none" stroke="black" d="M536.374,-672.827C555.352,-702.221 594.479,-762.823 613.66,-792.531"/>
</g>
<!-- 9978 -->
<g id="node19" class="node"><title>9978</title>
<g id="a_node19"><a xlink:title="3rd_week">
<ellipse fill="#ff9f0f" stroke="black" cx="729.917" cy="-989.713" rx="28.6953" ry="18"/>
<text text-anchor="middle" x="729.917" y="-986.013" font-family="Times,serif" font-size="14.00">9978</text>
</a>
</g>
</g>
<!-- 9978&#45;&gt;10729 -->
<g id="edge29" class="edge"><title>9978&#45;&gt;10729</title>
<path fill="none" stroke="black" d="M720.024,-972.779C700.031,-938.559 655.012,-861.505 634.85,-826.995"/>
</g>
<!-- 10790 -->
<g id="node22" class="node"><title>10790</title>
<g id="a_node22"><a xlink:title="3rd_week">
<ellipse fill="#ff9f0f" stroke="black" cx="810.408" cy="-574.321" rx="32.4942" ry="18"/>
<text text-anchor="middle" x="810.408" y="-570.621" font-family="Times,serif" font-size="14.00">10790</text>
</a>
</g>
</g>
<!-- 10729&#45;&gt;10790 -->
<g id="edge19" class="edge"><title>10729&#45;&gt;10790</title>
<path fill="none" stroke="black" d="M637.807,-793.159C671.895,-749.939 763.296,-634.054 797.368,-590.855"/>
</g>
<!-- 12869 -->
<g id="node24" class="node"><title>12869</title>
<g id="a_node24"><a xlink:title="3rd_week">
<ellipse fill="#ffffff" stroke="black" cx="659.584" cy="-1032.87" rx="32.4942" ry="18"/>
<text text-anchor="middle" x="659.584" y="-1029.17" font-family="Times,serif" font-size="14.00">12869</text>
</a>
</g>
</g>
<!-- 10729&#45;&gt;12869 -->
<g id="edge7" class="edge"><title>10729&#45;&gt;12869</title>
<path fill="none" stroke="black" d="M627.602,-827.973C634.15,-869.924 650.204,-972.776 656.743,-1014.67"/>
</g>
<!-- 14968 -->
<g id="node26" class="node"><title>14968</title>
<g id="a_node26"><a xlink:title="3rd_week">
<ellipse fill="#ff9f0f" stroke="black" cx="626.925" cy="-562.312" rx="32.4942" ry="18"/>
<text text-anchor="middle" x="626.925" y="-558.612" font-family="Times,serif" font-size="14.00">14968</text>
</a>
</g>
</g>
<!-- 10729&#45;&gt;14968 -->
<g id="edge9" class="edge"><title>10729&#45;&gt;14968</title>
<path fill="none" stroke="black" d="M624.912,-791.519C625.314,-745.768 626.363,-626.311 626.765,-580.531"/>
</g>
<!-- 17104 -->
<g id="node28" class="node"><title>17104</title>
<g id="a_node28"><a xlink:title="3rd_week">
<ellipse fill="#ff9f0f" stroke="black" cx="805.794" cy="-740.758" rx="32.4942" ry="18"/>
<text text-anchor="middle" x="805.794" y="-737.058" font-family="Times,serif" font-size="14.00">17104</text>
</a>
</g>
</g>
<!-- 10729&#45;&gt;17104 -->
<g id="edge27" class="edge"><title>10729&#45;&gt;17104</title>
<path fill="none" stroke="black" d="M651.856,-799.388C686.084,-786.352 744.624,-764.056 778.801,-751.039"/>
</g>
<!-- 17586 -->
<g id="node30" class="node"><title>17586</title>
<g id="a_node30"><a xlink:title="3rd_week">
<ellipse fill="grey" stroke="black" cx="532.883" cy="-583.169" rx="32.4942" ry="18"/>
<text text-anchor="middle" x="532.883" y="-579.469" font-family="Times,serif" font-size="14.00">17586</text>
</a>
</g>
</g>
<!-- 10729&#45;&gt;17586 -->
<g id="edge16" class="edge"><title>10729&#45;&gt;17586</title>
<path fill="none" stroke="black" d="M617.543,-791.935C600.37,-749.586 557.198,-643.128 540.058,-600.863"/>
</g>
<!-- 17895 -->
<g id="node31" class="node"><title>17895</title>
<g id="a_node31"><a xlink:title="3rd_week">
<ellipse fill="#ff9f0f" stroke="black" cx="501.018" cy="-1078.21" rx="32.4942" ry="18"/>
<text text-anchor="middle" x="501.018" y="-1074.51" font-family="Times,serif" font-size="14.00">17895</text>
</a>
</g>
</g>
<!-- 10729&#45;&gt;17895 -->
<g id="edge48" class="edge"><title>10729&#45;&gt;17895</title>
<path fill="none" stroke="black" d="M616.633,-827.328C594.214,-875.978 531.622,-1011.8 509.166,-1060.53"/>
</g>
<!-- 18157 -->
<g id="node32" class="node"><title>18157</title>
<g id="a_node32"><a xlink:title="3rd_week">
<ellipse fill="#ff9f0f" stroke="black" cx="458.297" cy="-980.789" rx="32.4942" ry="18"/>
<text text-anchor="middle" x="458.297" y="-977.089" font-family="Times,serif" font-size="14.00">18157</text>
</a>
</g>
</g>
<!-- 10729&#45;&gt;18157 -->
<g id="edge5" class="edge"><title>10729&#45;&gt;18157</title>
<path fill="none" stroke="black" d="M609.092,-825.806C577.367,-858.412 505.828,-931.939 474.036,-964.613"/>
</g>
<!-- 18890 -->
<g id="node34" class="node"><title>18890</title>
<g id="a_node34"><a xlink:title="3rd_week">
<ellipse fill="#ff9f0f" stroke="black" cx="784.89" cy="-673.591" rx="32.4942" ry="18"/>
<text text-anchor="middle" x="784.89" y="-669.891" font-family="Times,serif" font-size="14.00">18890</text>
</a>
</g>
</g>
<!-- 10729&#45;&gt;18890 -->
<g id="edge58" class="edge"><title>10729&#45;&gt;18890</title>
<path fill="none" stroke="black" d="M642.501,-794.624C673.283,-768.459 736.224,-714.958 767.061,-688.746"/>
</g>
<!-- 19147 -->
<g id="node35" class="node"><title>19147</title>
<g id="a_node35"><a xlink:title="3rd_week">
<ellipse fill="#ff9f0f" stroke="black" cx="903.58" cy="-749.892" rx="32.4942" ry="18"/>
<text text-anchor="middle" x="903.58" y="-746.192" font-family="Times,serif" font-size="14.00">19147</text>
</a>
</g>
</g>
<!-- 10729&#45;&gt;19147 -->
<g id="edge45" class="edge"><title>10729&#45;&gt;19147</title>
<path fill="none" stroke="black" d="M655.122,-803.196C708.757,-791.689 819.639,-767.901 873.247,-756.4"/>
</g>
<!-- 19790 -->
<g id="node37" class="node"><title>19790</title>
<g id="a_node37"><a xlink:title="3rd_week">
<ellipse fill="#ff9f0f" stroke="black" cx="571.603" cy="-1026.86" rx="32.4942" ry="18"/>
<text text-anchor="middle" x="571.603" y="-1023.16" font-family="Times,serif" font-size="14.00">19790</text>
</a>
</g>
</g>
<!-- 10729&#45;&gt;19790 -->
<g id="edge56" class="edge"><title>10729&#45;&gt;19790</title>
<path fill="none" stroke="black" d="M620.312,-827.852C610.283,-868.828 585.975,-968.14 575.993,-1008.92"/>
</g>
<!-- 20886 -->
<g id="node38" class="node"><title>20886</title>
<g id="a_node38"><a xlink:title="3rd_week">
<ellipse fill="#ff9f0f" stroke="black" cx="379.9" cy="-1047.29" rx="32.4942" ry="18"/>
<text text-anchor="middle" x="379.9" y="-1043.59" font-family="Times,serif" font-size="14.00">20886</text>
</a>
</g>
</g>
<!-- 10729&#45;&gt;20886 -->
<g id="edge35" class="edge"><title>10729&#45;&gt;20886</title>
<path fill="none" stroke="black" d="M608.306,-825.668C563.701,-868.948 440.796,-988.201 396.274,-1031.4"/>
</g>
<!-- 21436 -->
<g id="node39" class="node"><title>21436</title>
<g id="a_node39"><a xlink:title="3rd_week">
<ellipse fill="#ffffff" stroke="black" cx="398.97" cy="-793.748" rx="32.4942" ry="18"/>
<text text-anchor="middle" x="398.97" y="-790.048" font-family="Times,serif" font-size="14.00">21436</text>
</a>
</g>
</g>
<!-- 10729&#45;&gt;21436 -->
<g id="edge10" class="edge"><title>10729&#45;&gt;21436</title>
<path fill="none" stroke="black" d="M592.403,-807.424C549.482,-804.39 474.15,-799.064 431.259,-796.031"/>
</g>
<!-- 10729&#45;&gt;21438 -->
<g id="edge55" class="edge"><title>10729&#45;&gt;21438</title>
<path fill="none" stroke="black" d="M620.805,-791.448C608.03,-732.33 567.898,-546.624 555.223,-487.968"/>
</g>
<!-- 22281 -->
<g id="node42" class="node"><title>22281</title>
<g id="a_node42"><a xlink:title="3rd_week">
<ellipse fill="grey" stroke="black" cx="787.474" cy="-942.799" rx="32.4942" ry="18"/>
<text text-anchor="middle" x="787.474" y="-939.099" font-family="Times,serif" font-size="14.00">22281</text>
</a>
</g>
</g>
<!-- 10729&#45;&gt;22281 -->
<g id="edge11" class="edge"><title>10729&#45;&gt;22281</title>
<path fill="none" stroke="black" d="M643.102,-824.719C674.354,-850.28 737.565,-901.98 768.941,-927.641"/>
</g>
<!-- 23357 -->
<g id="node44" class="node"><title>23357</title>
<g id="a_node44"><a xlink:title="3rd_week">
<ellipse fill="#ff9f0f" stroke="black" cx="310.966" cy="-836.348" rx="32.4942" ry="18"/>
<text text-anchor="middle" x="310.966" y="-832.648" font-family="Times,serif" font-size="14.00">23357</text>
</a>
</g>
</g>
<!-- 10729&#45;&gt;23357 -->
<g id="edge49" class="edge"><title>10729&#45;&gt;23357</title>
<path fill="none" stroke="black" d="M592.353,-812.462C532.068,-817.579 403.34,-828.506 343.188,-833.613"/>
</g>
<!-- 24042 -->
<g id="node45" class="node"><title>24042</title>
<g id="a_node45"><a xlink:title="3rd_week">
<ellipse fill="grey" stroke="black" cx="563.032" cy="-967.441" rx="32.4942" ry="18"/>
<text text-anchor="middle" x="563.032" y="-963.741" font-family="Times,serif" font-size="14.00">24042</text>
</a>
</g>
</g>
<!-- 10729&#45;&gt;24042 -->
<g id="edge12" class="edge"><title>10729&#45;&gt;24042</title>
<path fill="none" stroke="black" d="M617.792,-827.498C605.938,-857.791 581.963,-919.063 570.062,-949.477"/>
</g>
<!-- 24452 -->
<g id="node46" class="node"><title>24452</title>
<g id="a_node46"><a xlink:title="3rd_week">
<ellipse fill="#ff9f0f" stroke="black" cx="319.016" cy="-731.48" rx="32.4942" ry="18"/>
<text text-anchor="middle" x="319.016" y="-727.78" font-family="Times,serif" font-size="14.00">24452</text>
</a>
</g>
</g>
<!-- 10729&#45;&gt;24452 -->
<g id="edge37" class="edge"><title>10729&#45;&gt;24452</title>
<path fill="none" stroke="black" d="M595.159,-802.139C536.714,-787.184 407.084,-754.015 348.625,-739.056"/>
</g>
<!-- 25186 -->
<g id="node48" class="node"><title>25186</title>
<g id="a_node48"><a xlink:title="3rd_week">
<ellipse fill="#ff9f0f" stroke="black" cx="423.341" cy="-728.383" rx="32.4942" ry="18"/>
<text text-anchor="middle" x="423.341" y="-724.683" font-family="Times,serif" font-size="14.00">25186</text>
</a>
</g>
</g>
<!-- 10729&#45;&gt;25186 -->
<g id="edge14" class="edge"><title>10729&#45;&gt;25186</title>
<path fill="none" stroke="black" d="M598.421,-799.079C559.821,-783.492 488.282,-754.606 449.679,-739.018"/>
</g>
<!-- 25341 -->
<g id="node49" class="node"><title>25341</title>
<g id="a_node49"><a xlink:title="3rd_week">
<ellipse fill="#ff9f0f" stroke="black" cx="339.66" cy="-936.61" rx="32.4942" ry="18"/>
<text text-anchor="middle" x="339.66" y="-932.91" font-family="Times,serif" font-size="14.00">25341</text>
</a>
</g>
</g>
<!-- 10729&#45;&gt;25341 -->
<g id="edge26" class="edge"><title>10729&#45;&gt;25341</title>
<path fill="none" stroke="black" d="M599.201,-821.084C545.079,-845.175 419.418,-901.108 365.256,-925.217"/>
</g>
<!-- 10729&#45;&gt;25994 -->
<g id="edge15" class="edge"><title>10729&#45;&gt;25994</title>
<path fill="none" stroke="black" d="M625.762,-828.15C629.093,-889.008 639.717,-1083.04 643.034,-1143.63"/>
</g>
<!-- 26071 -->
<g id="node53" class="node"><title>26071</title>
<g id="a_node53"><a xlink:title="3rd_week">
<ellipse fill="#ffffff" stroke="black" cx="448.618" cy="-659.383" rx="32.4942" ry="18"/>
<text text-anchor="middle" x="448.618" y="-655.683" font-family="Times,serif" font-size="14.00">26071</text>
</a>
</g>
</g>
<!-- 10729&#45;&gt;26071 -->
<g id="edge2" class="edge"><title>10729&#45;&gt;26071</title>
<path fill="none" stroke="black" d="M606.894,-794.47C573.135,-765.657 500.319,-703.508 466.523,-674.665"/>
</g>
<!-- 27561 -->
<g id="node54" class="node"><title>27561</title>
<g id="a_node54"><a xlink:title="3rd_week">
<ellipse fill="#ff9f0f" stroke="black" cx="711.552" cy="-599.918" rx="32.4942" ry="18"/>
<text text-anchor="middle" x="711.552" y="-596.218" font-family="Times,serif" font-size="14.00">27561</text>
</a>
</g>
</g>
<!-- 10729&#45;&gt;27561 -->
<g id="edge32" class="edge"><title>10729&#45;&gt;27561</title>
<path fill="none" stroke="black" d="M632.153,-791.824C648.593,-752.089 687.985,-656.879 704.293,-617.463"/>
</g>
<!-- 27963 -->
<g id="node55" class="node"><title>27963</title>
<g id="a_node55"><a xlink:title="3rd_week">
<ellipse fill="#ff9f0f" stroke="black" cx="434.379" cy="-558.83" rx="32.4942" ry="18"/>
<text text-anchor="middle" x="434.379" y="-555.13" font-family="Times,serif" font-size="14.00">27963</text>
</a>
</g>
</g>
<!-- 10729&#45;&gt;27963 -->
<g id="edge57" class="edge"><title>10729&#45;&gt;27963</title>
<path fill="none" stroke="black" d="M611.966,-792.861C577.285,-747.157 481.726,-621.225 447.11,-575.608"/>
</g>
<!-- 28664 -->
<g id="node56" class="node"><title>28664</title>
<g id="a_node56"><a xlink:title="3rd_week">
<ellipse fill="#ff9f0f" stroke="black" cx="360.124" cy="-636.2" rx="32.4942" ry="18"/>
<text text-anchor="middle" x="360.124" y="-632.5" font-family="Times,serif" font-size="14.00">28664</text>
</a>
</g>
</g>
<!-- 10729&#45;&gt;28664 -->
<g id="edge51" class="edge"><title>10729&#45;&gt;28664</title>
<path fill="none" stroke="black" d="M603.544,-795.805C553.994,-763.317 431.082,-682.726 381.433,-650.172"/>
</g>
<!-- 29613 -->
<g id="node57" class="node"><title>29613</title>
<g id="a_node57"><a xlink:title="3rd_week">
<ellipse fill="#ffffff" stroke="black" cx="647.34" cy="-985.348" rx="32.4942" ry="18"/>
<text text-anchor="middle" x="647.34" y="-981.648" font-family="Times,serif" font-size="14.00">29613</text>
</a>
</g>
</g>
<!-- 10729&#45;&gt;29613 -->
<g id="edge20" class="edge"><title>10729&#45;&gt;29613</title>
<path fill="none" stroke="black" d="M627.084,-827.846C631.424,-861.59 640.69,-933.643 645.02,-967.312"/>
</g>
<!-- 32554 -->
<g id="node59" class="node"><title>32554</title>
<g id="a_node59"><a xlink:title="3rd_week">
<ellipse fill="#ff9f0f" stroke="black" cx="905.749" cy="-845.041" rx="32.4942" ry="18"/>
<text text-anchor="middle" x="905.749" y="-841.341" font-family="Times,serif" font-size="14.00">32554</text>
</a>
</g>
</g>
<!-- 10729&#45;&gt;32554 -->
<g id="edge44" class="edge"><title>10729&#45;&gt;32554</title>
<path fill="none" stroke="black" d="M656.712,-813.73C710.798,-820.53 819.753,-834.229 873.818,-841.027"/>
</g>
<!-- 19511 -->
<g id="node36" class="node"><title>19511</title>
<g id="a_node36"><a xlink:title="3rd_week">
<ellipse fill="grey" stroke="black" cx="979.181" cy="-382.029" rx="32.4942" ry="18"/>
<text text-anchor="middle" x="979.181" y="-378.329" font-family="Times,serif" font-size="14.00">19511</text>
</a>
</g>
</g>
<!-- 10790&#45;&gt;19511 -->
<g id="edge30" class="edge"><title>10790&#45;&gt;19511</title>
<path fill="none" stroke="black" d="M824.798,-557.927C856.684,-521.597 932.976,-434.673 964.828,-398.382"/>
</g>
<!-- 12451 -->
<g id="node23" class="node"><title>12451</title>
<g id="a_node23"><a xlink:title="3rd_week">
<ellipse fill="#ff9f0f" stroke="black" cx="98.061" cy="-675.598" rx="32.4942" ry="18"/>
<text text-anchor="middle" x="98.061" y="-671.898" font-family="Times,serif" font-size="14.00">12451</text>
</a>
</g>
</g>
<!-- 12451&#45;&gt;24452 -->
<g id="edge53" class="edge"><title>12451&#45;&gt;24452</title>
<path fill="none" stroke="black" d="M127.86,-683.135C170.149,-693.83 247.114,-713.295 289.337,-723.974"/>
</g>
<!-- 13429 -->
<g id="node25" class="node"><title>13429</title>
<g id="a_node25"><a xlink:title="3rd_week">
<ellipse fill="#ff9f0f" stroke="black" cx="84.502" cy="-854.72" rx="32.4942" ry="18"/>
<text text-anchor="middle" x="84.502" y="-851.02" font-family="Times,serif" font-size="14.00">13429</text>
</a>
</g>
</g>
<!-- 13429&#45;&gt;23357 -->
<g id="edge41" class="edge"><title>13429&#45;&gt;23357</title>
<path fill="none" stroke="black" d="M116.949,-852.088C159.999,-848.595 235.559,-842.465 278.579,-838.975"/>
</g>
<!-- 16488 -->
<g id="node27" class="node"><title>16488</title>
<g id="a_node27"><a xlink:title="3rd_week">
<ellipse fill="#ff9f0f" stroke="black" cx="134.724" cy="-1028.62" rx="32.4942" ry="18"/>
<text text-anchor="middle" x="134.724" y="-1024.92" font-family="Times,serif" font-size="14.00">16488</text>
</a>
</g>
</g>
<!-- 16488&#45;&gt;25341 -->
<g id="edge60" class="edge"><title>16488&#45;&gt;25341</title>
<path fill="none" stroke="black" d="M160.265,-1017.16C199.643,-999.475 274.742,-965.757 314.12,-948.077"/>
</g>
<!-- 30544 -->
<g id="node58" class="node"><title>30544</title>
<g id="a_node58"><a xlink:title="3rd_week">
<ellipse fill="#ff9f0f" stroke="black" cx="891.919" cy="-17.6453" rx="32.4942" ry="18"/>
<text text-anchor="middle" x="891.919" y="-13.9453" font-family="Times,serif" font-size="14.00">30544</text>
</a>
</g>
</g>
<!-- 17502&#45;&gt;30544 -->
<g id="edge42" class="edge"><title>17502&#45;&gt;30544</title>
<path fill="none" stroke="black" d="M817.263,-228.57C832.407,-185.783 870.477,-78.2244 885.591,-35.5221"/>
</g>
<!-- 21558 -->
<g id="node41" class="node"><title>21558</title>
<g id="a_node41"><a xlink:title="3rd_week">
<ellipse fill="grey" stroke="black" cx="406.24" cy="-1311.94" rx="32.4942" ry="18"/>
<text text-anchor="middle" x="406.24" y="-1308.24" font-family="Times,serif" font-size="14.00">21558</text>
</a>
</g>
</g>
<!-- 17895&#45;&gt;21558 -->
<g id="edge46" class="edge"><title>17895&#45;&gt;21558</title>
<path fill="none" stroke="black" d="M493.894,-1095.78C476.33,-1139.09 431.098,-1250.64 413.447,-1294.17"/>
</g>
<!-- 18516 -->
<g id="node33" class="node"><title>18516</title>
<g id="a_node33"><a xlink:title="3rd_week">
<ellipse fill="#ff9f0f" stroke="black" cx="1165.34" cy="-881.698" rx="32.4942" ry="18"/>
<text text-anchor="middle" x="1165.34" y="-877.998" font-family="Times,serif" font-size="14.00">18516</text>
</a>
</g>
</g>
<!-- 18516&#45;&gt;32554 -->
<g id="edge54" class="edge"><title>18516&#45;&gt;32554</title>
<path fill="none" stroke="black" d="M1133.77,-877.24C1083.91,-870.199 987.481,-856.583 937.506,-849.526"/>
</g>
<!-- 25828 -->
<g id="node50" class="node"><title>25828</title>
<g id="a_node50"><a xlink:title="3rd_week">
<ellipse fill="#ff9f0f" stroke="black" cx="1160.23" cy="-704.154" rx="32.4942" ry="18"/>
<text text-anchor="middle" x="1160.23" y="-700.454" font-family="Times,serif" font-size="14.00">25828</text>
</a>
</g>
</g>
<!-- 19147&#45;&gt;25828 -->
<g id="edge28" class="edge"><title>19147&#45;&gt;25828</title>
<path fill="none" stroke="black" d="M934.538,-744.375C983.868,-735.584 1079.77,-718.494 1129.16,-709.691"/>
</g>
<!-- 20886&#45;&gt;25859 -->
<g id="edge34" class="edge"><title>20886&#45;&gt;25859</title>
<path fill="none" stroke="black" d="M364.354,-1063.11C329.99,-1098.1 247.89,-1181.68 213.324,-1216.87"/>
</g>
<!-- 22931 -->
<g id="node43" class="node"><title>22931</title>
<g id="a_node43"><a xlink:title="3rd_week">
<ellipse fill="grey" stroke="black" cx="168.819" cy="-512.544" rx="32.4942" ry="18"/>
<text text-anchor="middle" x="168.819" y="-508.844" font-family="Times,serif" font-size="14.00">22931</text>
</a>
</g>
</g>
<!-- 22931&#45;&gt;28664 -->
<g id="edge59" class="edge"><title>22931&#45;&gt;28664</title>
<path fill="none" stroke="black" d="M190.023,-526.249C226.796,-550.019 301.986,-598.621 338.825,-622.433"/>
</g>
<!-- 24757 -->
<g id="node47" class="node"><title>24757</title>
<g id="a_node47"><a xlink:title="3rd_week">
<ellipse fill="#ff9f0f" stroke="black" cx="293.998" cy="-380.304" rx="32.4942" ry="18"/>
<text text-anchor="middle" x="293.998" y="-376.604" font-family="Times,serif" font-size="14.00">24757</text>
</a>
</g>
</g>
<!-- 24757&#45;&gt;27963 -->
<g id="edge52" class="edge"><title>24757&#45;&gt;27963</title>
<path fill="none" stroke="black" d="M307.205,-397.099C334.029,-431.212 394.602,-508.244 421.31,-542.21"/>
</g>
<!-- 32557 -->
<g id="node60" class="node"><title>32557</title>
<g id="a_node60"><a xlink:title="3rd_week">
<ellipse fill="#ff9f0f" stroke="black" cx="625.578" cy="-1383.3" rx="32.4942" ry="18"/>
<text text-anchor="middle" x="625.578" y="-1379.6" font-family="Times,serif" font-size="14.00">32557</text>
</a>
</g>
</g>
<!-- 25994&#45;&gt;32557 -->
<g id="edge25" class="edge"><title>25994&#45;&gt;32557</title>
<path fill="none" stroke="black" d="M642.523,-1180.01C639.054,-1221.63 630.548,-1323.68 627.083,-1365.24"/>
</g>
</g>
</svg>
