<?xml version="1.0" encoding="UTF-8" standalone="no"?>
<!DOCTYPE svg PUBLIC "-//W3C//DTD SVG 1.1//EN"
 "http://www.w3.org/Graphics/SVG/1.1/DTD/svg11.dtd">
<!-- Generated by graphviz version 2.38.0 (20140413.2041)
 -->
<!-- Title: %3 Pages: 1 -->
<svg width="994pt" height="2200pt"
 viewBox="0.00 0.00 994.00 2200.00" xmlns="http://www.w3.org/2000/svg" xmlns:xlink="http://www.w3.org/1999/xlink">
<g id="graph0" class="graph" transform="scale(1 1) rotate(0) translate(4 2196)">
<title>%3</title>
<polygon fill="white" stroke="none" points="-4,4 -4,-2196 990,-2196 990,4 -4,4"/>
<!-- 302 -->
<g id="node1" class="node"><title>302</title>
<g id="a_node1"><a xlink:title="3rd_week">
<ellipse fill="#20ff05" stroke="black" cx="684.287" cy="-1771.38" rx="27" ry="18"/>
<text text-anchor="middle" x="684.287" y="-1767.68" font-family="Times,serif" font-size="14.00">302</text>
</a>
</g>
</g>
<!-- 15435 -->
<g id="node31" class="node"><title>15435</title>
<g id="a_node31"><a xlink:title="6th_week">
<ellipse fill="#20ff05" stroke="black" cx="808.794" cy="-1979.75" rx="32.4942" ry="18"/>
<text text-anchor="middle" x="808.794" y="-1976.05" font-family="Times,serif" font-size="14.00">15435</text>
</a>
</g>
</g>
<!-- 302&#45;&gt;15435 -->
<g id="edge15" class="edge"><title>302&#45;&gt;15435</title>
<path fill="none" stroke="black" d="M694.476,-1788.43C717.823,-1827.5 774.982,-1923.16 798.464,-1962.46"/>
</g>
<!-- 30204 -->
<g id="node52" class="node"><title>30204</title>
<g id="a_node52"><a xlink:title="3rd_week,6th_week">
<ellipse fill="#20ff05" stroke="black" cx="526.731" cy="-1517.84" rx="32.4945" ry="18"/>
<ellipse fill="none" stroke="black" cx="526.731" cy="-1517.84" rx="36.4942" ry="22"/>
<text text-anchor="middle" x="526.731" y="-1514.14" font-family="Times,serif" font-size="14.00">30204</text>
</a>
</g>
</g>
<!-- 302&#45;&gt;30204 -->
<g id="edge17" class="edge"><title>302&#45;&gt;30204</title>
<path fill="none" stroke="black" d="M673.949,-1754.74C646.223,-1710.12 570.245,-1587.86 539.699,-1538.71"/>
</g>
<!-- 1272 -->
<g id="node2" class="node"><title>1272</title>
<g id="a_node2"><a xlink:title="6th_week">
<ellipse fill="#20ff05" stroke="black" cx="957.387" cy="-341.309" rx="28.6953" ry="18"/>
<text text-anchor="middle" x="957.387" y="-337.609" font-family="Times,serif" font-size="14.00">1272</text>
</a>
</g>
</g>
<!-- 21625 -->
<g id="node44" class="node"><title>21625</title>
<g id="a_node44"><a xlink:title="3rd_week,6th_week">
<ellipse fill="#20ff05" stroke="black" cx="815.962" cy="-466.821" rx="32.4945" ry="18"/>
<ellipse fill="none" stroke="black" cx="815.962" cy="-466.821" rx="36.4942" ry="22"/>
<text text-anchor="middle" x="815.962" y="-463.121" font-family="Times,serif" font-size="14.00">21625</text>
</a>
</g>
</g>
<!-- 1272&#45;&gt;21625 -->
<g id="edge24" class="edge"><title>1272&#45;&gt;21625</title>
<path fill="none" stroke="black" d="M940.608,-356.2C914.707,-379.187 865.036,-423.269 836.846,-448.287"/>
</g>
<!-- 1400 -->
<g id="node3" class="node"><title>1400</title>
<g id="a_node3"><a xlink:title="6th_week">
<ellipse fill="#20ff05" stroke="black" cx="955.096" cy="-1677.8" rx="28.6953" ry="18"/>
<text text-anchor="middle" x="955.096" y="-1674.1" font-family="Times,serif" font-size="14.00">1400</text>
</a>
</g>
</g>
<!-- 10596 -->
<g id="node17" class="node"><title>10596</title>
<g id="a_node17"><a xlink:title="3rd_week">
<ellipse fill="#20ff05" stroke="black" cx="777.579" cy="-1612.76" rx="32.4942" ry="18"/>
<text text-anchor="middle" x="777.579" y="-1609.06" font-family="Times,serif" font-size="14.00">10596</text>
</a>
</g>
</g>
<!-- 1400&#45;&gt;10596 -->
<g id="edge43" class="edge"><title>1400&#45;&gt;10596</title>
<path fill="none" stroke="black" d="M930.039,-1668.62C896.971,-1656.5 838.971,-1635.25 804.837,-1622.75"/>
</g>
<!-- 1432 -->
<g id="node4" class="node"><title>1432</title>
<g id="a_node4"><a xlink:title="3rd_week">
<ellipse fill="#efff05" stroke="black" cx="751.751" cy="-564.021" rx="28.6953" ry="18"/>
<text text-anchor="middle" x="751.751" y="-560.321" font-family="Times,serif" font-size="14.00">1432</text>
</a>
</g>
</g>
<!-- 25256 -->
<g id="node47" class="node"><title>25256</title>
<g id="a_node47"><a xlink:title="3rd_week,Day_0">
<ellipse fill="#20ff05" stroke="black" cx="654.356" cy="-705.352" rx="32.4945" ry="18"/>
<ellipse fill="none" stroke="black" cx="654.356" cy="-705.352" rx="36.4942" ry="22"/>
<text text-anchor="middle" x="654.356" y="-701.652" font-family="Times,serif" font-size="14.00">25256</text>
</a>
</g>
</g>
<!-- 1432&#45;&gt;25256 -->
<g id="edge21" class="edge"><title>1432&#45;&gt;25256</title>
<path fill="none" stroke="black" d="M740.196,-580.788C722.258,-606.819 687.765,-656.872 668.411,-684.957"/>
</g>
<!-- 1457 -->
<g id="node5" class="node"><title>1457</title>
<g id="a_node5"><a xlink:title="3rd_week">
<ellipse fill="#20ff05" stroke="black" cx="600.203" cy="-1087.66" rx="28.6953" ry="18"/>
<text text-anchor="middle" x="600.203" y="-1083.96" font-family="Times,serif" font-size="14.00">1457</text>
</a>
</g>
</g>
<!-- 16780 -->
<g id="node36" class="node"><title>16780</title>
<g id="a_node36"><a xlink:title="3rd_week">
<ellipse fill="#20ff05" stroke="black" cx="494.848" cy="-969.822" rx="32.4942" ry="18"/>
<text text-anchor="middle" x="494.848" y="-966.122" font-family="Times,serif" font-size="14.00">16780</text>
</a>
</g>
</g>
<!-- 1457&#45;&gt;16780 -->
<g id="edge20" class="edge"><title>1457&#45;&gt;16780</title>
<path fill="none" stroke="black" d="M585.995,-1071.77C565.999,-1049.41 529.744,-1008.85 509.508,-986.219"/>
</g>
<!-- 19564 -->
<g id="node42" class="node"><title>19564</title>
<g id="a_node42"><a xlink:title="6th_week">
<ellipse fill="grey" stroke="black" cx="739.101" cy="-1011.11" rx="32.4942" ry="18"/>
<text text-anchor="middle" x="739.101" y="-1007.41" font-family="Times,serif" font-size="14.00">19564</text>
</a>
</g>
</g>
<!-- 1457&#45;&gt;19564 -->
<g id="edge37" class="edge"><title>1457&#45;&gt;19564</title>
<path fill="none" stroke="black" d="M621.906,-1075.7C647.39,-1061.66 689.498,-1038.45 715.696,-1024.01"/>
</g>
<!-- 1457&#45;&gt;25256 -->
<g id="edge26" class="edge"><title>1457&#45;&gt;25256</title>
<path fill="none" stroke="black" d="M602.779,-1069.48C611.733,-1006.27 641.492,-796.167 651.237,-727.37"/>
</g>
<!-- 1457&#45;&gt;30204 -->
<g id="edge42" class="edge"><title>1457&#45;&gt;30204</title>
<path fill="none" stroke="black" d="M597.14,-1105.6C585.407,-1174.29 543.348,-1420.55 530.491,-1495.83"/>
</g>
<!-- 1511 -->
<g id="node6" class="node"><title>1511</title>
<g id="a_node6"><a xlink:title="3rd_week">
<ellipse fill="#20ff05" stroke="black" cx="534.807" cy="-1779.53" rx="28.6953" ry="18"/>
<text text-anchor="middle" x="534.807" y="-1775.83" font-family="Times,serif" font-size="14.00">1511</text>
</a>
</g>
</g>
<!-- 1511&#45;&gt;30204 -->
<g id="edge49" class="edge"><title>1511&#45;&gt;30204</title>
<path fill="none" stroke="black" d="M534.239,-1761.13C532.792,-1714.24 528.971,-1590.44 527.41,-1539.85"/>
</g>
<!-- 30329 -->
<g id="node53" class="node"><title>30329</title>
<g id="a_node53"><a xlink:title="6th_week">
<ellipse fill="grey" stroke="black" cx="538.223" cy="-1970.66" rx="32.4942" ry="18"/>
<text text-anchor="middle" x="538.223" y="-1966.96" font-family="Times,serif" font-size="14.00">30329</text>
</a>
</g>
</g>
<!-- 1511&#45;&gt;30329 -->
<g id="edge36" class="edge"><title>1511&#45;&gt;30329</title>
<path fill="none" stroke="black" d="M535.134,-1797.86C535.787,-1834.39 537.244,-1915.91 537.896,-1952.39"/>
</g>
<!-- 2085 -->
<g id="node7" class="node"><title>2085</title>
<g id="a_node7"><a xlink:title="6th_week">
<ellipse fill="#20ff05" stroke="black" cx="679.726" cy="-1598.03" rx="28.6953" ry="18"/>
<text text-anchor="middle" x="679.726" y="-1594.33" font-family="Times,serif" font-size="14.00">2085</text>
</a>
</g>
</g>
<!-- 2085&#45;&gt;30204 -->
<g id="edge7" class="edge"><title>2085&#45;&gt;30204</title>
<path fill="none" stroke="black" d="M657.479,-1586.37C630.213,-1572.08 584.001,-1547.86 554.45,-1532.37"/>
</g>
<!-- 2292 -->
<g id="node8" class="node"><title>2292</title>
<g id="a_node8"><a xlink:title="3rd_week">
<ellipse fill="#20ff05" stroke="black" cx="699.951" cy="-513.138" rx="28.6953" ry="18"/>
<text text-anchor="middle" x="699.951" y="-509.438" font-family="Times,serif" font-size="14.00">2292</text>
</a>
</g>
</g>
<!-- 2292&#45;&gt;25256 -->
<g id="edge38" class="edge"><title>2292&#45;&gt;25256</title>
<path fill="none" stroke="black" d="M695.662,-531.221C687.26,-566.641 668.663,-645.037 659.568,-683.377"/>
</g>
<!-- 4632 -->
<g id="node9" class="node"><title>4632</title>
<g id="a_node9"><a xlink:title="3rd_week">
<ellipse fill="#20ff05" stroke="black" cx="548.532" cy="-584.228" rx="28.6953" ry="18"/>
<text text-anchor="middle" x="548.532" y="-580.528" font-family="Times,serif" font-size="14.00">4632</text>
</a>
</g>
</g>
<!-- 4632&#45;&gt;25256 -->
<g id="edge47" class="edge"><title>4632&#45;&gt;25256</title>
<path fill="none" stroke="black" d="M562.367,-600.063C581.527,-621.994 616.134,-661.604 637.003,-685.491"/>
</g>
<!-- 5029 -->
<g id="node10" class="node"><title>5029</title>
<g id="a_node10"><a xlink:title="3rd_week">
<ellipse fill="#20ff05" stroke="black" cx="821.099" cy="-739.652" rx="28.6953" ry="18"/>
<text text-anchor="middle" x="821.099" y="-735.952" font-family="Times,serif" font-size="14.00">5029</text>
</a>
</g>
</g>
<!-- 5029&#45;&gt;25256 -->
<g id="edge8" class="edge"><title>5029&#45;&gt;25256</title>
<path fill="none" stroke="black" d="M793.565,-733.988C764.982,-728.108 720.196,-718.896 689.174,-712.514"/>
</g>
<!-- 5067 -->
<g id="node11" class="node"><title>5067</title>
<g id="a_node11"><a xlink:title="6th_week">
<ellipse fill="#20ff05" stroke="black" cx="346.227" cy="-1761.94" rx="28.6953" ry="18"/>
<text text-anchor="middle" x="346.227" y="-1758.24" font-family="Times,serif" font-size="14.00">5067</text>
</a>
</g>
</g>
<!-- 15629 -->
<g id="node34" class="node"><title>15629</title>
<g id="a_node34"><a xlink:title="6th_week">
<ellipse fill="#20ff05" stroke="black" cx="289.591" cy="-1964.83" rx="32.4942" ry="18"/>
<text text-anchor="middle" x="289.591" y="-1961.13" font-family="Times,serif" font-size="14.00">15629</text>
</a>
</g>
</g>
<!-- 5067&#45;&gt;15629 -->
<g id="edge30" class="edge"><title>5067&#45;&gt;15629</title>
<path fill="none" stroke="black" d="M341.201,-1779.94C330.453,-1818.44 305.343,-1908.4 294.606,-1946.87"/>
</g>
<!-- 20317 -->
<g id="node43" class="node"><title>20317</title>
<g id="a_node43"><a xlink:title="6th_week">
<ellipse fill="#ffffff" stroke="black" cx="215.998" cy="-1928.8" rx="32.4942" ry="18"/>
<text text-anchor="middle" x="215.998" y="-1925.1" font-family="Times,serif" font-size="14.00">20317</text>
</a>
</g>
</g>
<!-- 5067&#45;&gt;20317 -->
<g id="edge40" class="edge"><title>5067&#45;&gt;20317</title>
<path fill="none" stroke="black" d="M333.503,-1778.24C308.67,-1810.06 253.994,-1880.11 228.967,-1912.18"/>
</g>
<!-- 29972 -->
<g id="node51" class="node"><title>29972</title>
<g id="a_node51"><a xlink:title="6th_week">
<ellipse fill="grey" stroke="black" cx="164.445" cy="-1871.55" rx="32.4942" ry="18"/>
<text text-anchor="middle" x="164.445" y="-1867.85" font-family="Times,serif" font-size="14.00">29972</text>
</a>
</g>
</g>
<!-- 5067&#45;&gt;29972 -->
<g id="edge19" class="edge"><title>5067&#45;&gt;29972</title>
<path fill="none" stroke="black" d="M325.374,-1774.51C290.775,-1795.37 221.821,-1836.95 186.466,-1858.27"/>
</g>
<!-- 5067&#45;&gt;30204 -->
<g id="edge5" class="edge"><title>5067&#45;&gt;30204</title>
<path fill="none" stroke="black" d="M358.35,-1745.54C390.285,-1702.36 476.66,-1585.55 511.678,-1538.2"/>
</g>
<!-- 6490 -->
<g id="node12" class="node"><title>6490</title>
<g id="a_node12"><a xlink:title="6th_week">
<ellipse fill="#20ff05" stroke="black" cx="439.187" cy="-1642.73" rx="28.6953" ry="18"/>
<text text-anchor="middle" x="439.187" y="-1639.03" font-family="Times,serif" font-size="14.00">6490</text>
</a>
</g>
</g>
<!-- 6490&#45;&gt;30204 -->
<g id="edge25" class="edge"><title>6490&#45;&gt;30204</title>
<path fill="none" stroke="black" d="M450.812,-1626.15C466.719,-1603.46 495.249,-1562.76 512.441,-1538.23"/>
</g>
<!-- 7642 -->
<g id="node13" class="node"><title>7642</title>
<g id="a_node13"><a xlink:title="3rd_week">
<ellipse fill="#20ff05" stroke="black" cx="520.915" cy="-1684.94" rx="28.6953" ry="18"/>
<text text-anchor="middle" x="520.915" y="-1681.24" font-family="Times,serif" font-size="14.00">7642</text>
</a>
</g>
</g>
<!-- 7642&#45;&gt;30204 -->
<g id="edge32" class="edge"><title>7642&#45;&gt;30204</title>
<path fill="none" stroke="black" d="M521.548,-1666.74C522.623,-1635.87 524.799,-1573.34 525.96,-1539.98"/>
</g>
<!-- 7699 -->
<g id="node14" class="node"><title>7699</title>
<g id="a_node14"><a xlink:title="6th_week">
<ellipse fill="#07ffd1" stroke="black" cx="947.867" cy="-2121.62" rx="28.6953" ry="18"/>
<text text-anchor="middle" x="947.867" y="-2117.92" font-family="Times,serif" font-size="14.00">7699</text>
</a>
</g>
</g>
<!-- 7699&#45;&gt;15435 -->
<g id="edge23" class="edge"><title>7699&#45;&gt;15435</title>
<path fill="none" stroke="black" d="M932.719,-2106.17C906.108,-2079.02 851.243,-2023.06 824.348,-1995.62"/>
</g>
<!-- 9339 -->
<g id="node15" class="node"><title>9339</title>
<g id="a_node15"><a xlink:title="3rd_week">
<ellipse fill="grey" stroke="black" cx="623.701" cy="-521.564" rx="28.6953" ry="18"/>
<text text-anchor="middle" x="623.701" y="-517.864" font-family="Times,serif" font-size="14.00">9339</text>
</a>
</g>
</g>
<!-- 9339&#45;&gt;25256 -->
<g id="edge50" class="edge"><title>9339&#45;&gt;25256</title>
<path fill="none" stroke="black" d="M626.696,-539.521C632.346,-573.392 644.557,-646.606 650.688,-683.362"/>
</g>
<!-- 10565 -->
<g id="node16" class="node"><title>10565</title>
<g id="a_node16"><a xlink:title="6th_week">
<ellipse fill="#20ff05" stroke="black" cx="244.826" cy="-1534.09" rx="32.4942" ry="18"/>
<text text-anchor="middle" x="244.826" y="-1530.39" font-family="Times,serif" font-size="14.00">10565</text>
</a>
</g>
</g>
<!-- 13811 -->
<g id="node26" class="node"><title>13811</title>
<g id="a_node26"><a xlink:title="6th_week">
<ellipse fill="#20ff05" stroke="black" cx="32.137" cy="-1504.31" rx="32.4942" ry="18"/>
<text text-anchor="middle" x="32.137" y="-1500.61" font-family="Times,serif" font-size="14.00">13811</text>
</a>
</g>
</g>
<!-- 10565&#45;&gt;13811 -->
<g id="edge34" class="edge"><title>10565&#45;&gt;13811</title>
<path fill="none" stroke="black" d="M212.984,-1529.63C172.772,-1524 103.999,-1514.37 63.8485,-1508.75"/>
</g>
<!-- 15616 -->
<g id="node33" class="node"><title>15616</title>
<g id="a_node33"><a xlink:title="6th_week">
<ellipse fill="grey" stroke="black" cx="41.1367" cy="-1594.7" rx="32.4942" ry="18"/>
<text text-anchor="middle" x="41.1367" y="-1591" font-family="Times,serif" font-size="14.00">15616</text>
</a>
</g>
</g>
<!-- 10565&#45;&gt;15616 -->
<g id="edge54" class="edge"><title>10565&#45;&gt;15616</title>
<path fill="none" stroke="black" d="M216.074,-1542.64C177.363,-1554.16 108.875,-1574.54 70.0712,-1586.09"/>
</g>
<!-- 10565&#45;&gt;30204 -->
<g id="edge35" class="edge"><title>10565&#45;&gt;30204</title>
<path fill="none" stroke="black" d="M277.164,-1532.22C330.096,-1529.17 434.881,-1523.14 490.337,-1519.94"/>
</g>
<!-- 10596&#45;&gt;30204 -->
<g id="edge10" class="edge"><title>10596&#45;&gt;30204</title>
<path fill="none" stroke="black" d="M750.733,-1602.6C703.843,-1584.86 607.292,-1548.33 557.67,-1529.55"/>
</g>
<!-- 11260 -->
<g id="node18" class="node"><title>11260</title>
<g id="a_node18"><a xlink:title="3rd_week">
<ellipse fill="#20ff05" stroke="black" cx="531.761" cy="-522.722" rx="32.4942" ry="18"/>
<text text-anchor="middle" x="531.761" y="-519.022" font-family="Times,serif" font-size="14.00">11260</text>
</a>
</g>
</g>
<!-- 11260&#45;&gt;25256 -->
<g id="edge41" class="edge"><title>11260&#45;&gt;25256</title>
<path fill="none" stroke="black" d="M543.295,-539.903C565.945,-573.646 616.151,-648.438 640.533,-684.76"/>
</g>
<!-- 11522 -->
<g id="node19" class="node"><title>11522</title>
<g id="a_node19"><a xlink:title="6th_week">
<ellipse fill="#20ff05" stroke="black" cx="557.449" cy="-1331.9" rx="32.4942" ry="18"/>
<text text-anchor="middle" x="557.449" y="-1328.2" font-family="Times,serif" font-size="14.00">11522</text>
</a>
</g>
</g>
<!-- 11522&#45;&gt;30204 -->
<g id="edge48" class="edge"><title>11522&#45;&gt;30204</title>
<path fill="none" stroke="black" d="M554.448,-1350.06C548.771,-1384.42 536.484,-1458.8 530.357,-1495.89"/>
</g>
<!-- 12045 -->
<g id="node20" class="node"><title>12045</title>
<g id="a_node20"><a xlink:title="3rd_week">
<ellipse fill="#20ff05" stroke="black" cx="848.389" cy="-669.052" rx="32.4942" ry="18"/>
<text text-anchor="middle" x="848.389" y="-665.352" font-family="Times,serif" font-size="14.00">12045</text>
</a>
</g>
</g>
<!-- 12045&#45;&gt;25256 -->
<g id="edge9" class="edge"><title>12045&#45;&gt;25256</title>
<path fill="none" stroke="black" d="M817.214,-674.884C782.291,-681.418 725.816,-691.983 689.392,-698.797"/>
</g>
<!-- 12241 -->
<g id="node21" class="node"><title>12241</title>
<g id="a_node21"><a xlink:title="3rd_week">
<ellipse fill="#20ff05" stroke="black" cx="741.31" cy="-1483.56" rx="32.4942" ry="18"/>
<text text-anchor="middle" x="741.31" y="-1479.86" font-family="Times,serif" font-size="14.00">12241</text>
</a>
</g>
</g>
<!-- 12241&#45;&gt;30204 -->
<g id="edge53" class="edge"><title>12241&#45;&gt;30204</title>
<path fill="none" stroke="black" d="M709.648,-1488.62C670.244,-1494.92 603.149,-1505.63 562.096,-1512.19"/>
</g>
<!-- 12889 -->
<g id="node22" class="node"><title>12889</title>
<g id="a_node22"><a xlink:title="6th_week">
<ellipse fill="#20ff05" stroke="black" cx="465.158" cy="-1325.07" rx="32.4942" ry="18"/>
<text text-anchor="middle" x="465.158" y="-1321.37" font-family="Times,serif" font-size="14.00">12889</text>
</a>
</g>
</g>
<!-- 12889&#45;&gt;30204 -->
<g id="edge13" class="edge"><title>12889&#45;&gt;30204</title>
<path fill="none" stroke="black" d="M470.84,-1342.86C482.153,-1378.28 507.46,-1457.51 519.757,-1496.01"/>
</g>
<!-- 13109 -->
<g id="node23" class="node"><title>13109</title>
<g id="a_node23"><a xlink:title="6th_week">
<ellipse fill="#20ff05" stroke="black" cx="452.03" cy="-1382.59" rx="32.4942" ry="18"/>
<text text-anchor="middle" x="452.03" y="-1378.89" font-family="Times,serif" font-size="14.00">13109</text>
</a>
</g>
</g>
<!-- 13109&#45;&gt;30204 -->
<g id="edge16" class="edge"><title>13109&#45;&gt;30204</title>
<path fill="none" stroke="black" d="M461.643,-1399.99C475.356,-1424.82 500.497,-1470.34 515.196,-1496.96"/>
</g>
<!-- 13132 -->
<g id="node24" class="node"><title>13132</title>
<g id="a_node24"><a xlink:title="6th_week">
<ellipse fill="grey" stroke="black" cx="655.25" cy="-1348.3" rx="32.4942" ry="18"/>
<text text-anchor="middle" x="655.25" y="-1344.6" font-family="Times,serif" font-size="14.00">13132</text>
</a>
</g>
</g>
<!-- 13132&#45;&gt;30204 -->
<g id="edge4" class="edge"><title>13132&#45;&gt;30204</title>
<path fill="none" stroke="black" d="M642.457,-1365.17C618.648,-1396.58 567.635,-1463.88 542.04,-1497.65"/>
</g>
<!-- 13743 -->
<g id="node25" class="node"><title>13743</title>
<g id="a_node25"><a xlink:title="3rd_week">
<ellipse fill="#20ff05" stroke="black" cx="463.852" cy="-617.559" rx="32.4942" ry="18"/>
<text text-anchor="middle" x="463.852" y="-613.859" font-family="Times,serif" font-size="14.00">13743</text>
</a>
</g>
</g>
<!-- 13743&#45;&gt;25256 -->
<g id="edge46" class="edge"><title>13743&#45;&gt;25256</title>
<path fill="none" stroke="black" d="M489.15,-629.217C524.372,-645.449 588.035,-674.788 625.205,-691.918"/>
</g>
<!-- 14172 -->
<g id="node27" class="node"><title>14172</title>
<g id="a_node27"><a xlink:title="3rd_week">
<ellipse fill="#20ff05" stroke="black" cx="833.869" cy="-611.121" rx="32.4942" ry="18"/>
<text text-anchor="middle" x="833.869" y="-607.421" font-family="Times,serif" font-size="14.00">14172</text>
</a>
</g>
</g>
<!-- 14172&#45;&gt;25256 -->
<g id="edge2" class="edge"><title>14172&#45;&gt;25256</title>
<path fill="none" stroke="black" d="M810.031,-623.634C776.937,-641.006 717.195,-672.366 682.127,-690.774"/>
</g>
<!-- 14319 -->
<g id="node28" class="node"><title>14319</title>
<g id="a_node28"><a xlink:title="6th_week">
<ellipse fill="#ffffff" stroke="black" cx="719.057" cy="-1424.39" rx="32.4942" ry="18"/>
<text text-anchor="middle" x="719.057" y="-1420.69" font-family="Times,serif" font-size="14.00">14319</text>
</a>
</g>
</g>
<!-- 14319&#45;&gt;30204 -->
<g id="edge3" class="edge"><title>14319&#45;&gt;30204</title>
<path fill="none" stroke="black" d="M694.307,-1436.42C658.697,-1453.72 593.155,-1485.57 555.456,-1503.88"/>
</g>
<!-- 15072 -->
<g id="node29" class="node"><title>15072</title>
<g id="a_node29"><a xlink:title="3rd_week">
<ellipse fill="#20ff05" stroke="black" cx="516.972" cy="-17.6785" rx="32.4942" ry="18"/>
<text text-anchor="middle" x="516.972" y="-13.9785" font-family="Times,serif" font-size="14.00">15072</text>
</a>
</g>
</g>
<!-- 15721 -->
<g id="node35" class="node"><title>15721</title>
<g id="a_node35"><a xlink:title="3rd_week,6th_week">
<ellipse fill="#20ff05" stroke="black" cx="554.188" cy="-218.332" rx="32.4945" ry="18"/>
<ellipse fill="none" stroke="black" cx="554.188" cy="-218.332" rx="36.4942" ry="22"/>
<text text-anchor="middle" x="554.188" y="-214.632" font-family="Times,serif" font-size="14.00">15721</text>
</a>
</g>
</g>
<!-- 15072&#45;&gt;15721 -->
<g id="edge28" class="edge"><title>15072&#45;&gt;15721</title>
<path fill="none" stroke="black" d="M520.34,-35.839C527.193,-72.7871 542.734,-156.576 550.13,-196.452"/>
</g>
<!-- 15274 -->
<g id="node30" class="node"><title>15274</title>
<g id="a_node30"><a xlink:title="6th_week">
<ellipse fill="#20ff05" stroke="black" cx="377.652" cy="-1383.51" rx="32.4942" ry="18"/>
<text text-anchor="middle" x="377.652" y="-1379.81" font-family="Times,serif" font-size="14.00">15274</text>
</a>
</g>
</g>
<!-- 15274&#45;&gt;30204 -->
<g id="edge22" class="edge"><title>15274&#45;&gt;30204</title>
<path fill="none" stroke="black" d="M394.753,-1398.92C422.286,-1423.73 476.348,-1472.44 506.021,-1499.18"/>
</g>
<!-- 24502 -->
<g id="node46" class="node"><title>24502</title>
<g id="a_node46"><a xlink:title="6th_week">
<ellipse fill="grey" stroke="black" cx="869.264" cy="-2174.12" rx="32.4942" ry="18"/>
<text text-anchor="middle" x="869.264" y="-2170.42" font-family="Times,serif" font-size="14.00">24502</text>
</a>
</g>
</g>
<!-- 15435&#45;&gt;24502 -->
<g id="edge1" class="edge"><title>15435&#45;&gt;24502</title>
<path fill="none" stroke="black" d="M814.374,-1997.69C825.894,-2034.72 852.189,-2119.23 863.697,-2156.22"/>
</g>
<!-- 15594 -->
<g id="node32" class="node"><title>15594</title>
<g id="a_node32"><a xlink:title="3rd_week">
<ellipse fill="#20ff05" stroke="black" cx="606.06" cy="-1706.15" rx="32.4942" ry="18"/>
<text text-anchor="middle" x="606.06" y="-1702.45" font-family="Times,serif" font-size="14.00">15594</text>
</a>
</g>
</g>
<!-- 15594&#45;&gt;30204 -->
<g id="edge45" class="edge"><title>15594&#45;&gt;30204</title>
<path fill="none" stroke="black" d="M598.597,-1688.43C583.979,-1653.73 551.624,-1576.93 535.8,-1539.37"/>
</g>
<!-- 26908 -->
<g id="node48" class="node"><title>26908</title>
<g id="a_node48"><a xlink:title="3rd_week">
<ellipse fill="#20ff05" stroke="black" cx="598.504" cy="-434.635" rx="32.4942" ry="18"/>
<text text-anchor="middle" x="598.504" y="-430.935" font-family="Times,serif" font-size="14.00">26908</text>
</a>
</g>
</g>
<!-- 15721&#45;&gt;26908 -->
<g id="edge29" class="edge"><title>15721&#45;&gt;26908</title>
<path fill="none" stroke="black" d="M558.681,-240.263C567.461,-283.117 586.741,-377.222 594.824,-416.673"/>
</g>
<!-- 17015 -->
<g id="node37" class="node"><title>17015</title>
<g id="a_node37"><a xlink:title="3rd_week">
<ellipse fill="grey" stroke="black" cx="474.457" cy="-691.253" rx="32.4942" ry="18"/>
<text text-anchor="middle" x="474.457" y="-687.553" font-family="Times,serif" font-size="14.00">17015</text>
</a>
</g>
</g>
<!-- 17015&#45;&gt;25256 -->
<g id="edge52" class="edge"><title>17015&#45;&gt;25256</title>
<path fill="none" stroke="black" d="M507.035,-693.806C538.323,-696.258 585.504,-699.956 617.999,-702.503"/>
</g>
<!-- 17016 -->
<g id="node38" class="node"><title>17016</title>
<g id="a_node38"><a xlink:title="6th_week">
<ellipse fill="#20ff05" stroke="black" cx="683.473" cy="-1661.96" rx="32.4942" ry="18"/>
<text text-anchor="middle" x="683.473" y="-1658.26" font-family="Times,serif" font-size="14.00">17016</text>
</a>
</g>
</g>
<!-- 17016&#45;&gt;30204 -->
<g id="edge18" class="edge"><title>17016&#45;&gt;30204</title>
<path fill="none" stroke="black" d="M666.699,-1646.53C637.636,-1619.81 578.043,-1565.02 546.821,-1536.31"/>
</g>
<!-- 18334 -->
<g id="node39" class="node"><title>18334</title>
<g id="a_node39"><a xlink:title="3rd_week">
<ellipse fill="#ffffff" stroke="black" cx="734.113" cy="-1544.3" rx="32.4942" ry="18"/>
<text text-anchor="middle" x="734.113" y="-1540.6" font-family="Times,serif" font-size="14.00">18334</text>
</a>
</g>
</g>
<!-- 18334&#45;&gt;30204 -->
<g id="edge12" class="edge"><title>18334&#45;&gt;30204</title>
<path fill="none" stroke="black" d="M702.164,-1540.22C664.443,-1535.41 601.877,-1527.43 562.547,-1522.41"/>
</g>
<!-- 18947 -->
<g id="node40" class="node"><title>18947</title>
<g id="a_node40"><a xlink:title="6th_week">
<ellipse fill="#20ff05" stroke="black" cx="449.395" cy="-1704.56" rx="32.4942" ry="18"/>
<text text-anchor="middle" x="449.395" y="-1700.86" font-family="Times,serif" font-size="14.00">18947</text>
</a>
</g>
</g>
<!-- 18947&#45;&gt;30204 -->
<g id="edge27" class="edge"><title>18947&#45;&gt;30204</title>
<path fill="none" stroke="black" d="M456.671,-1687C470.921,-1652.59 502.463,-1576.43 517.889,-1539.19"/>
</g>
<!-- 19124 -->
<g id="node41" class="node"><title>19124</title>
<g id="a_node41"><a xlink:title="6th_week">
<ellipse fill="#20ff05" stroke="black" cx="347.552" cy="-1438.21" rx="32.4942" ry="18"/>
<text text-anchor="middle" x="347.552" y="-1434.51" font-family="Times,serif" font-size="14.00">19124</text>
</a>
</g>
</g>
<!-- 19124&#45;&gt;30204 -->
<g id="edge51" class="edge"><title>19124&#45;&gt;30204</title>
<path fill="none" stroke="black" d="M373.224,-1449.62C406.028,-1464.2 462.688,-1489.38 497.232,-1504.73"/>
</g>
<!-- 21625&#45;&gt;25256 -->
<g id="edge44" class="edge"><title>21625&#45;&gt;25256</title>
<path fill="none" stroke="black" d="M801.903,-487.572C771.263,-532.797 698.772,-639.793 668.267,-684.819"/>
</g>
<!-- 29881 -->
<g id="node50" class="node"><title>29881</title>
<g id="a_node50"><a xlink:title="3rd_week">
<ellipse fill="#20ff05" stroke="black" cx="882.565" cy="-284.551" rx="32.4942" ry="18"/>
<text text-anchor="middle" x="882.565" y="-280.851" font-family="Times,serif" font-size="14.00">29881</text>
</a>
</g>
</g>
<!-- 21625&#45;&gt;29881 -->
<g id="edge14" class="edge"><title>21625&#45;&gt;29881</title>
<path fill="none" stroke="black" d="M823.864,-445.197C837.164,-408.797 863.774,-335.974 876.066,-302.337"/>
</g>
<!-- 21751 -->
<g id="node45" class="node"><title>21751</title>
<g id="a_node45"><a xlink:title="6th_week">
<ellipse fill="grey" stroke="black" cx="641.499" cy="-1407.21" rx="32.4942" ry="18"/>
<text text-anchor="middle" x="641.499" y="-1403.51" font-family="Times,serif" font-size="14.00">21751</text>
</a>
</g>
</g>
<!-- 21751&#45;&gt;30204 -->
<g id="edge6" class="edge"><title>21751&#45;&gt;30204</title>
<path fill="none" stroke="black" d="M625.055,-1423.06C604.23,-1443.13 568.393,-1477.68 546.216,-1499.06"/>
</g>
<!-- 25256&#45;&gt;26908 -->
<g id="edge31" class="edge"><title>25256&#45;&gt;26908</title>
<path fill="none" stroke="black" d="M649.785,-683.198C638.999,-630.918 612.128,-500.668 602.236,-452.722"/>
</g>
<!-- 27147 -->
<g id="node49" class="node"><title>27147</title>
<g id="a_node49"><a xlink:title="6th_week">
<ellipse fill="#efff05" stroke="black" cx="347.474" cy="-1564.99" rx="32.4942" ry="18"/>
<text text-anchor="middle" x="347.474" y="-1561.29" font-family="Times,serif" font-size="14.00">27147</text>
</a>
</g>
</g>
<!-- 27147&#45;&gt;30204 -->
<g id="edge33" class="edge"><title>27147&#45;&gt;30204</title>
<path fill="none" stroke="black" d="M377.075,-1557.2C408.996,-1548.81 459.716,-1535.47 493.116,-1526.68"/>
</g>
<!-- 31357 -->
<g id="node54" class="node"><title>31357</title>
<g id="a_node54"><a xlink:title="3rd_week">
<ellipse fill="grey" stroke="black" cx="346.052" cy="-1498.97" rx="32.4942" ry="18"/>
<text text-anchor="middle" x="346.052" y="-1495.27" font-family="Times,serif" font-size="14.00">31357</text>
</a>
</g>
</g>
<!-- 30204&#45;&gt;31357 -->
<g id="edge39" class="edge"><title>30204&#45;&gt;31357</title>
<path fill="none" stroke="black" d="M490.602,-1514.07C457.751,-1510.64 409.723,-1505.62 378.182,-1502.33"/>
</g>
<!-- 31785 -->
<g id="node55" class="node"><title>31785</title>
<g id="a_node55"><a xlink:title="3rd_week">
<ellipse fill="#20ff05" stroke="black" cx="366.825" cy="-1627.22" rx="32.4942" ry="18"/>
<text text-anchor="middle" x="366.825" y="-1623.52" font-family="Times,serif" font-size="14.00">31785</text>
</a>
</g>
</g>
<!-- 30204&#45;&gt;31785 -->
<g id="edge11" class="edge"><title>30204&#45;&gt;31785</title>
<path fill="none" stroke="black" d="M502.444,-1534.45C471.166,-1555.85 417.324,-1592.68 387.764,-1612.9"/>
</g>
</g>
</svg>
