<?xml version="1.0" encoding="UTF-8" standalone="no"?>
<!DOCTYPE svg PUBLIC "-//W3C//DTD SVG 1.1//EN"
 "http://www.w3.org/Graphics/SVG/1.1/DTD/svg11.dtd">
<!-- Generated by graphviz version 2.38.0 (20140413.2041)
 -->
<!-- Title: %3 Pages: 1 -->
<svg width="1982pt" height="1598pt"
 viewBox="0.00 0.00 1982.00 1598.00" xmlns="http://www.w3.org/2000/svg" xmlns:xlink="http://www.w3.org/1999/xlink">
<g id="graph0" class="graph" transform="scale(1 1) rotate(0) translate(4 1594)">
<title>%3</title>
<polygon fill="white" stroke="none" points="-4,4 -4,-1594 1978,-1594 1978,4 -4,4"/>
<!-- 172 -->
<g id="node1" class="node"><title>172</title>
<g id="a_node1"><a xlink:title="PRE">
<ellipse fill="#20ff05" stroke="black" cx="1269.39" cy="-654.87" rx="27" ry="18"/>
<text text-anchor="middle" x="1269.39" y="-651.17" font-family="Times,serif" font-size="14.00">172</text>
</a>
</g>
</g>
<!-- 16643 -->
<g id="node30" class="node"><title>16643</title>
<g id="a_node30"><a xlink:title="PRE">
<ellipse fill="#20ff05" stroke="black" cx="1261.88" cy="-809.302" rx="32.4942" ry="18"/>
<text text-anchor="middle" x="1261.88" y="-805.602" font-family="Times,serif" font-size="14.00">16643</text>
</a>
</g>
</g>
<!-- 172&#45;&gt;16643 -->
<g id="edge10" class="edge"><title>172&#45;&gt;16643</title>
<path fill="none" stroke="black" d="M1268.52,-672.887C1267.08,-702.486 1264.23,-761.086 1262.78,-790.92"/>
</g>
<!-- 1867 -->
<g id="node2" class="node"><title>1867</title>
<g id="a_node2"><a xlink:title="PRE">
<ellipse fill="grey" stroke="black" cx="1218.67" cy="-983.761" rx="28.6953" ry="18"/>
<text text-anchor="middle" x="1218.67" y="-980.061" font-family="Times,serif" font-size="14.00">1867</text>
</a>
</g>
</g>
<!-- 1867&#45;&gt;16643 -->
<g id="edge12" class="edge"><title>1867&#45;&gt;16643</title>
<path fill="none" stroke="black" d="M1223.14,-965.747C1231.44,-932.23 1249.16,-860.66 1257.45,-827.217"/>
</g>
<!-- 2358 -->
<g id="node3" class="node"><title>2358</title>
<g id="a_node3"><a xlink:title="PRE">
<ellipse fill="#20ff05" stroke="black" cx="1144.33" cy="-477.194" rx="28.6953" ry="18"/>
<text text-anchor="middle" x="1144.33" y="-473.494" font-family="Times,serif" font-size="14.00">2358</text>
</a>
</g>
</g>
<!-- 8332 -->
<g id="node12" class="node"><title>8332</title>
<g id="a_node12"><a xlink:title="PRE">
<ellipse fill="#20ff05" stroke="black" cx="1071.54" cy="-210.188" rx="28.6953" ry="18"/>
<text text-anchor="middle" x="1071.54" y="-206.488" font-family="Times,serif" font-size="14.00">8332</text>
</a>
</g>
</g>
<!-- 2358&#45;&gt;8332 -->
<g id="edge2" class="edge"><title>2358&#45;&gt;8332</title>
<path fill="none" stroke="black" d="M1139.45,-459.26C1126.18,-410.619 1089.65,-276.593 1076.41,-228.043"/>
</g>
<!-- 2358&#45;&gt;16643 -->
<g id="edge29" class="edge"><title>2358&#45;&gt;16643</title>
<path fill="none" stroke="black" d="M1150.65,-495.05C1171.07,-552.714 1235.08,-733.567 1255.53,-791.358"/>
</g>
<!-- 19700 -->
<g id="node37" class="node"><title>19700</title>
<g id="a_node37"><a xlink:title="PRE">
<ellipse fill="#20ff05" stroke="black" cx="1011.59" cy="-287.226" rx="32.4942" ry="18"/>
<text text-anchor="middle" x="1011.59" y="-283.526" font-family="Times,serif" font-size="14.00">19700</text>
</a>
</g>
</g>
<!-- 2358&#45;&gt;19700 -->
<g id="edge36" class="edge"><title>2358&#45;&gt;19700</title>
<path fill="none" stroke="black" d="M1132.79,-460.668C1107.74,-424.831 1048.67,-340.291 1023.39,-304.122"/>
</g>
<!-- 33781 -->
<g id="node63" class="node"><title>33781</title>
<g id="a_node63"><a xlink:title="PRE">
<ellipse fill="#20ff05" stroke="black" cx="1149.35" cy="-243.636" rx="32.4942" ry="18"/>
<text text-anchor="middle" x="1149.35" y="-239.936" font-family="Times,serif" font-size="14.00">33781</text>
</a>
</g>
</g>
<!-- 2358&#45;&gt;33781 -->
<g id="edge30" class="edge"><title>2358&#45;&gt;33781</title>
<path fill="none" stroke="black" d="M1144.73,-458.867C1145.67,-415.207 1148.03,-305.452 1148.96,-261.878"/>
</g>
<!-- 3007 -->
<g id="node4" class="node"><title>3007</title>
<g id="a_node4"><a xlink:title="PRE">
<ellipse fill="#20ff05" stroke="black" cx="362.81" cy="-985.951" rx="28.6953" ry="18"/>
<text text-anchor="middle" x="362.81" y="-982.251" font-family="Times,serif" font-size="14.00">3007</text>
</a>
</g>
</g>
<!-- 5472 -->
<g id="node9" class="node"><title>5472</title>
<g id="a_node9"><a xlink:title="PRE">
<ellipse fill="#20ff05" stroke="black" cx="498.243" cy="-858.761" rx="28.6953" ry="18"/>
<text text-anchor="middle" x="498.243" y="-855.061" font-family="Times,serif" font-size="14.00">5472</text>
</a>
</g>
</g>
<!-- 3007&#45;&gt;5472 -->
<g id="edge54" class="edge"><title>3007&#45;&gt;5472</title>
<path fill="none" stroke="black" d="M378.878,-970.861C404.943,-946.382 456.144,-898.298 482.196,-873.831"/>
</g>
<!-- 3033 -->
<g id="node5" class="node"><title>3033</title>
<g id="a_node5"><a xlink:title="PRE">
<ellipse fill="#20ff05" stroke="black" cx="1130.47" cy="-937.64" rx="28.6953" ry="18"/>
<text text-anchor="middle" x="1130.47" y="-933.94" font-family="Times,serif" font-size="14.00">3033</text>
</a>
</g>
</g>
<!-- 3033&#45;&gt;16643 -->
<g id="edge20" class="edge"><title>3033&#45;&gt;16643</title>
<path fill="none" stroke="black" d="M1146.06,-922.414C1171.08,-897.98 1219.97,-850.236 1245.49,-825.312"/>
</g>
<!-- 3156 -->
<g id="node6" class="node"><title>3156</title>
<g id="a_node6"><a xlink:title="PRE">
<ellipse fill="#20ff05" stroke="black" cx="1391.09" cy="-1009.13" rx="28.6953" ry="18"/>
<text text-anchor="middle" x="1391.09" y="-1005.43" font-family="Times,serif" font-size="14.00">3156</text>
</a>
</g>
</g>
<!-- 3156&#45;&gt;16643 -->
<g id="edge50" class="edge"><title>3156&#45;&gt;16643</title>
<path fill="none" stroke="black" d="M1380.3,-992.438C1356.04,-954.917 1297.41,-864.245 1272.92,-826.371"/>
</g>
<!-- 3548 -->
<g id="node7" class="node"><title>3548</title>
<g id="a_node7"><a xlink:title="PRE">
<ellipse fill="#20ff05" stroke="black" cx="1309.8" cy="-541.297" rx="28.6953" ry="18"/>
<text text-anchor="middle" x="1309.8" y="-537.597" font-family="Times,serif" font-size="14.00">3548</text>
</a>
</g>
</g>
<!-- 3548&#45;&gt;16643 -->
<g id="edge8" class="edge"><title>3548&#45;&gt;16643</title>
<path fill="none" stroke="black" d="M1306.58,-559.297C1297.85,-608.12 1273.8,-742.648 1265.09,-791.379"/>
</g>
<!-- 28444 -->
<g id="node57" class="node"><title>28444</title>
<g id="a_node57"><a xlink:title="PRE">
<ellipse fill="#20ff05" stroke="black" cx="1373.35" cy="-303.546" rx="32.4942" ry="18"/>
<text text-anchor="middle" x="1373.35" y="-299.846" font-family="Times,serif" font-size="14.00">28444</text>
</a>
</g>
</g>
<!-- 3548&#45;&gt;28444 -->
<g id="edge22" class="edge"><title>3548&#45;&gt;28444</title>
<path fill="none" stroke="black" d="M1314.57,-523.427C1326.35,-479.366 1356.68,-365.901 1368.51,-321.623"/>
</g>
<!-- 4299 -->
<g id="node8" class="node"><title>4299</title>
<g id="a_node8"><a xlink:title="PRE">
<ellipse fill="#20ff05" stroke="black" cx="1180.24" cy="-670.32" rx="28.6953" ry="18"/>
<text text-anchor="middle" x="1180.24" y="-666.62" font-family="Times,serif" font-size="14.00">4299</text>
</a>
</g>
</g>
<!-- 4299&#45;&gt;16643 -->
<g id="edge18" class="edge"><title>4299&#45;&gt;16643</title>
<path fill="none" stroke="black" d="M1190.25,-687.362C1205.92,-714.036 1236.07,-765.36 1251.79,-792.12"/>
</g>
<!-- 9738 -->
<g id="node14" class="node"><title>9738</title>
<g id="a_node14"><a xlink:title="PRE">
<ellipse fill="#20ff05" stroke="black" cx="330.497" cy="-917.811" rx="28.6953" ry="18"/>
<text text-anchor="middle" x="330.497" y="-914.111" font-family="Times,serif" font-size="14.00">9738</text>
</a>
</g>
</g>
<!-- 5472&#45;&gt;9738 -->
<g id="edge3" class="edge"><title>5472&#45;&gt;9738</title>
<path fill="none" stroke="black" d="M473.129,-867.602C441.414,-878.766 387.174,-897.86 355.508,-909.007"/>
</g>
<!-- 10674 -->
<g id="node17" class="node"><title>10674</title>
<g id="a_node17"><a xlink:title="PRE">
<ellipse fill="#20ff05" stroke="black" cx="257.192" cy="-876.079" rx="32.4942" ry="18"/>
<text text-anchor="middle" x="257.192" y="-872.379" font-family="Times,serif" font-size="14.00">10674</text>
</a>
</g>
</g>
<!-- 5472&#45;&gt;10674 -->
<g id="edge53" class="edge"><title>5472&#45;&gt;10674</title>
<path fill="none" stroke="black" d="M469.644,-860.816C424.499,-864.059 336.989,-870.346 289.588,-873.752"/>
</g>
<!-- 18687 -->
<g id="node35" class="node"><title>18687</title>
<g id="a_node35"><a xlink:title="PRE">
<ellipse fill="#20ff05" stroke="black" cx="869.252" cy="-838.906" rx="32.4942" ry="18"/>
<text text-anchor="middle" x="869.252" y="-835.206" font-family="Times,serif" font-size="14.00">18687</text>
</a>
</g>
</g>
<!-- 5472&#45;&gt;18687 -->
<g id="edge6" class="edge"><title>5472&#45;&gt;18687</title>
<path fill="none" stroke="black" d="M526.739,-857.236C594.526,-853.608 765.059,-844.482 836.728,-840.647"/>
</g>
<!-- 21772 -->
<g id="node41" class="node"><title>21772</title>
<g id="a_node41"><a xlink:title="PRE">
<ellipse fill="#20ff05" stroke="black" cx="346.257" cy="-745.549" rx="32.4942" ry="18"/>
<text text-anchor="middle" x="346.257" y="-741.849" font-family="Times,serif" font-size="14.00">21772</text>
</a>
</g>
</g>
<!-- 5472&#45;&gt;21772 -->
<g id="edge48" class="edge"><title>5472&#45;&gt;21772</title>
<path fill="none" stroke="black" d="M479.606,-844.879C450.753,-823.387 395.526,-782.249 366.009,-760.262"/>
</g>
<!-- 27002 -->
<g id="node54" class="node"><title>27002</title>
<g id="a_node54"><a xlink:title="PRE">
<ellipse fill="#20ff05" stroke="black" cx="316.813" cy="-814.473" rx="32.4942" ry="18"/>
<text text-anchor="middle" x="316.813" y="-810.773" font-family="Times,serif" font-size="14.00">27002</text>
</a>
</g>
</g>
<!-- 5472&#45;&gt;27002 -->
<g id="edge1" class="edge"><title>5472&#45;&gt;27002</title>
<path fill="none" stroke="black" d="M471.472,-852.226C438.155,-844.094 381.426,-830.246 346.715,-821.772"/>
</g>
<!-- 6995 -->
<g id="node10" class="node"><title>6995</title>
<g id="a_node10"><a xlink:title="PRE">
<ellipse fill="#20ff05" stroke="black" cx="995.21" cy="-659.828" rx="28.6953" ry="18"/>
<text text-anchor="middle" x="995.21" y="-656.128" font-family="Times,serif" font-size="14.00">6995</text>
</a>
</g>
</g>
<!-- 6995&#45;&gt;16643 -->
<g id="edge35" class="edge"><title>6995&#45;&gt;16643</title>
<path fill="none" stroke="black" d="M1016.58,-671.807C1066.02,-699.518 1187.93,-767.851 1238.9,-796.42"/>
</g>
<!-- 23560 -->
<g id="node46" class="node"><title>23560</title>
<g id="a_node46"><a xlink:title="PRE">
<ellipse fill="#20ff05" stroke="black" cx="824.351" cy="-548.409" rx="32.4942" ry="18"/>
<text text-anchor="middle" x="824.351" y="-544.709" font-family="Times,serif" font-size="14.00">23560</text>
</a>
</g>
</g>
<!-- 6995&#45;&gt;23560 -->
<g id="edge34" class="edge"><title>6995&#45;&gt;23560</title>
<path fill="none" stroke="black" d="M975.276,-646.829C942.793,-625.646 878.739,-583.876 845.492,-562.196"/>
</g>
<!-- 7973 -->
<g id="node11" class="node"><title>7973</title>
<g id="a_node11"><a xlink:title="PRE">
<ellipse fill="#20ff05" stroke="black" cx="1418.6" cy="-886.393" rx="28.6953" ry="18"/>
<text text-anchor="middle" x="1418.6" y="-882.693" font-family="Times,serif" font-size="14.00">7973</text>
</a>
</g>
</g>
<!-- 7973&#45;&gt;16643 -->
<g id="edge55" class="edge"><title>7973&#45;&gt;16643</title>
<path fill="none" stroke="black" d="M1395.81,-875.183C1366.61,-860.818 1316.19,-836.016 1286.25,-821.286"/>
</g>
<!-- 31430 -->
<g id="node61" class="node"><title>31430</title>
<g id="a_node61"><a xlink:title="PRE">
<ellipse fill="#20ff05" stroke="black" cx="1024.14" cy="-17.6184" rx="32.4942" ry="18"/>
<text text-anchor="middle" x="1024.14" y="-13.9184" font-family="Times,serif" font-size="14.00">31430</text>
</a>
</g>
</g>
<!-- 8332&#45;&gt;31430 -->
<g id="edge51" class="edge"><title>8332&#45;&gt;31430</title>
<path fill="none" stroke="black" d="M1067.08,-192.071C1058.03,-155.276 1037.57,-72.1836 1028.56,-35.5465"/>
</g>
<!-- 9328 -->
<g id="node13" class="node"><title>9328</title>
<g id="a_node13"><a xlink:title="PRE">
<ellipse fill="#ffffff" stroke="black" cx="1124.52" cy="-982.837" rx="28.6953" ry="18"/>
<text text-anchor="middle" x="1124.52" y="-979.137" font-family="Times,serif" font-size="14.00">9328</text>
</a>
</g>
</g>
<!-- 9328&#45;&gt;16643 -->
<g id="edge62" class="edge"><title>9328&#45;&gt;16643</title>
<path fill="none" stroke="black" d="M1137.44,-966.511C1163.56,-933.521 1222.36,-859.235 1248.69,-825.965"/>
</g>
<!-- 10018 -->
<g id="node15" class="node"><title>10018</title>
<g id="a_node15"><a xlink:title="PRE">
<ellipse fill="#20ff05" stroke="black" cx="1521.33" cy="-887.058" rx="32.4942" ry="18"/>
<text text-anchor="middle" x="1521.33" y="-883.358" font-family="Times,serif" font-size="14.00">10018</text>
</a>
</g>
</g>
<!-- 14173 -->
<g id="node24" class="node"><title>14173</title>
<g id="a_node24"><a xlink:title="PRE">
<ellipse fill="#efff05" stroke="black" cx="1766.76" cy="-940.585" rx="32.4942" ry="18"/>
<text text-anchor="middle" x="1766.76" y="-936.885" font-family="Times,serif" font-size="14.00">14173</text>
</a>
</g>
</g>
<!-- 10018&#45;&gt;14173 -->
<g id="edge26" class="edge"><title>10018&#45;&gt;14173</title>
<path fill="none" stroke="black" d="M1551.92,-893.729C1599.07,-904.015 1689.01,-923.629 1736.17,-933.914"/>
</g>
<!-- 10018&#45;&gt;16643 -->
<g id="edge19" class="edge"><title>10018&#45;&gt;16643</title>
<path fill="none" stroke="black" d="M1492.57,-878.44C1442.7,-863.494 1340.73,-832.932 1290.77,-817.959"/>
</g>
<!-- 10315 -->
<g id="node16" class="node"><title>10315</title>
<g id="a_node16"><a xlink:title="PRE">
<ellipse fill="#20ff05" stroke="black" cx="1345.19" cy="-640.747" rx="32.4942" ry="18"/>
<text text-anchor="middle" x="1345.19" y="-637.047" font-family="Times,serif" font-size="14.00">10315</text>
</a>
</g>
</g>
<!-- 10315&#45;&gt;16643 -->
<g id="edge45" class="edge"><title>10315&#45;&gt;16643</title>
<path fill="none" stroke="black" d="M1336.59,-658.15C1320.63,-690.449 1286.59,-759.322 1270.56,-791.74"/>
</g>
<!-- 19257 -->
<g id="node36" class="node"><title>19257</title>
<g id="a_node36"><a xlink:title="PRE">
<ellipse fill="#20ff05" stroke="black" cx="32.7011" cy="-890.385" rx="32.4942" ry="18"/>
<text text-anchor="middle" x="32.7011" y="-886.685" font-family="Times,serif" font-size="14.00">19257</text>
</a>
</g>
</g>
<!-- 10674&#45;&gt;19257 -->
<g id="edge56" class="edge"><title>10674&#45;&gt;19257</title>
<path fill="none" stroke="black" d="M224.549,-878.159C181.866,-880.88 107.541,-885.616 65.0192,-888.326"/>
</g>
<!-- 10989 -->
<g id="node18" class="node"><title>10989</title>
<g id="a_node18"><a xlink:title="PRE">
<ellipse fill="#ffffff" stroke="black" cx="1748.95" cy="-607.708" rx="32.4942" ry="18"/>
<text text-anchor="middle" x="1748.95" y="-604.008" font-family="Times,serif" font-size="14.00">10989</text>
</a>
</g>
</g>
<!-- 24928 -->
<g id="node49" class="node"><title>24928</title>
<g id="a_node49"><a xlink:title="PRE">
<ellipse fill="#20ff05" stroke="black" cx="1513.4" cy="-707.087" rx="32.4942" ry="18"/>
<text text-anchor="middle" x="1513.4" y="-703.387" font-family="Times,serif" font-size="14.00">24928</text>
</a>
</g>
</g>
<!-- 10989&#45;&gt;24928 -->
<g id="edge21" class="edge"><title>10989&#45;&gt;24928</title>
<path fill="none" stroke="black" d="M1722.84,-618.723C1677.45,-637.876 1584.49,-677.092 1539.27,-696.174"/>
</g>
<!-- 11645 -->
<g id="node19" class="node"><title>11645</title>
<g id="a_node19"><a xlink:title="PRE">
<ellipse fill="#20ff05" stroke="black" cx="1432.62" cy="-754.548" rx="32.4942" ry="18"/>
<text text-anchor="middle" x="1432.62" y="-750.848" font-family="Times,serif" font-size="14.00">11645</text>
</a>
</g>
</g>
<!-- 11645&#45;&gt;16643 -->
<g id="edge7" class="edge"><title>11645&#45;&gt;16643</title>
<path fill="none" stroke="black" d="M1404.43,-763.589C1372.79,-773.734 1321.77,-790.096 1290.12,-800.247"/>
</g>
<!-- 12137 -->
<g id="node20" class="node"><title>12137</title>
<g id="a_node20"><a xlink:title="PRE">
<ellipse fill="#20ff05" stroke="black" cx="1391.68" cy="-1119.05" rx="32.4942" ry="18"/>
<text text-anchor="middle" x="1391.68" y="-1115.35" font-family="Times,serif" font-size="14.00">12137</text>
</a>
</g>
</g>
<!-- 13264 -->
<g id="node23" class="node"><title>13264</title>
<g id="a_node23"><a xlink:title="PRE">
<ellipse fill="#20ff05" stroke="black" cx="1491.15" cy="-1384.04" rx="32.4942" ry="18"/>
<text text-anchor="middle" x="1491.15" y="-1380.34" font-family="Times,serif" font-size="14.00">13264</text>
</a>
</g>
</g>
<!-- 12137&#45;&gt;13264 -->
<g id="edge11" class="edge"><title>12137&#45;&gt;13264</title>
<path fill="none" stroke="black" d="M1398.36,-1136.85C1416.48,-1185.12 1466.41,-1318.14 1484.5,-1366.32"/>
</g>
<!-- 12137&#45;&gt;16643 -->
<g id="edge33" class="edge"><title>12137&#45;&gt;16643</title>
<path fill="none" stroke="black" d="M1384.33,-1101.51C1361.53,-1047.12 1292.21,-881.685 1269.31,-827.034"/>
</g>
<!-- 25926 -->
<g id="node52" class="node"><title>25926</title>
<g id="a_node52"><a xlink:title="PRE">
<ellipse fill="#20ff05" stroke="black" cx="1537.34" cy="-1308.82" rx="32.4942" ry="18"/>
<text text-anchor="middle" x="1537.34" y="-1305.12" font-family="Times,serif" font-size="14.00">25926</text>
</a>
</g>
</g>
<!-- 12137&#45;&gt;25926 -->
<g id="edge40" class="edge"><title>12137&#45;&gt;25926</title>
<path fill="none" stroke="black" d="M1404.6,-1135.89C1432.25,-1171.91 1496.83,-1256.04 1524.45,-1292.02"/>
</g>
<!-- 12313 -->
<g id="node21" class="node"><title>12313</title>
<g id="a_node21"><a xlink:title="PRE">
<ellipse fill="grey" stroke="black" cx="1758.99" cy="-1123.09" rx="32.4942" ry="18"/>
<text text-anchor="middle" x="1758.99" y="-1119.39" font-family="Times,serif" font-size="14.00">12313</text>
</a>
</g>
</g>
<!-- 24630 -->
<g id="node48" class="node"><title>24630</title>
<g id="a_node48"><a xlink:title="PRE">
<ellipse fill="grey" stroke="black" cx="1941.24" cy="-1221.07" rx="32.4942" ry="18"/>
<text text-anchor="middle" x="1941.24" y="-1217.37" font-family="Times,serif" font-size="14.00">24630</text>
</a>
</g>
</g>
<!-- 12313&#45;&gt;24630 -->
<g id="edge61" class="edge"><title>12313&#45;&gt;24630</title>
<path fill="none" stroke="black" d="M1782.44,-1135.7C1817.44,-1154.51 1882.93,-1189.72 1917.87,-1208.51"/>
</g>
<!-- 28865 -->
<g id="node58" class="node"><title>28865</title>
<g id="a_node58"><a xlink:title="PRE">
<ellipse fill="#20ff05" stroke="black" cx="1512.05" cy="-982.911" rx="32.4942" ry="18"/>
<text text-anchor="middle" x="1512.05" y="-979.211" font-family="Times,serif" font-size="14.00">28865</text>
</a>
</g>
</g>
<!-- 12313&#45;&gt;28865 -->
<g id="edge31" class="edge"><title>12313&#45;&gt;28865</title>
<path fill="none" stroke="black" d="M1736.2,-1110.16C1689.16,-1083.45 1581.78,-1022.5 1534.78,-995.816"/>
</g>
<!-- 12583 -->
<g id="node22" class="node"><title>12583</title>
<g id="a_node22"><a xlink:title="PRE">
<ellipse fill="#20ff05" stroke="black" cx="1019.67" cy="-822.391" rx="32.4942" ry="18"/>
<text text-anchor="middle" x="1019.67" y="-818.691" font-family="Times,serif" font-size="14.00">12583</text>
</a>
</g>
</g>
<!-- 12583&#45;&gt;16643 -->
<g id="edge63" class="edge"><title>12583&#45;&gt;16643</title>
<path fill="none" stroke="black" d="M1052.09,-820.639C1098.36,-818.138 1182.89,-813.571 1229.27,-811.064"/>
</g>
<!-- 26226 -->
<g id="node53" class="node"><title>26226</title>
<g id="a_node53"><a xlink:title="PRE">
<ellipse fill="#ffffff" stroke="black" cx="1571.95" cy="-1572.43" rx="32.4942" ry="18"/>
<text text-anchor="middle" x="1571.95" y="-1568.73" font-family="Times,serif" font-size="14.00">26226</text>
</a>
</g>
</g>
<!-- 13264&#45;&gt;26226 -->
<g id="edge42" class="edge"><title>13264&#45;&gt;26226</title>
<path fill="none" stroke="black" d="M1498.75,-1401.77C1514.19,-1437.76 1549.05,-1519.05 1564.42,-1554.89"/>
</g>
<!-- 14638 -->
<g id="node25" class="node"><title>14638</title>
<g id="a_node25"><a xlink:title="PRE">
<ellipse fill="#20ff05" stroke="black" cx="1206.62" cy="-1397.45" rx="32.4942" ry="18"/>
<text text-anchor="middle" x="1206.62" y="-1393.75" font-family="Times,serif" font-size="14.00">14638</text>
</a>
</g>
</g>
<!-- 16662 -->
<g id="node31" class="node"><title>16662</title>
<g id="a_node31"><a xlink:title="PRE">
<ellipse fill="#20ff05" stroke="black" cx="1168.05" cy="-1170.04" rx="32.4942" ry="18"/>
<text text-anchor="middle" x="1168.05" y="-1166.34" font-family="Times,serif" font-size="14.00">16662</text>
</a>
</g>
</g>
<!-- 14638&#45;&gt;16662 -->
<g id="edge59" class="edge"><title>14638&#45;&gt;16662</title>
<path fill="none" stroke="black" d="M1203.53,-1379.22C1196.29,-1336.54 1178.3,-1230.5 1171.1,-1188.04"/>
</g>
<!-- 15365 -->
<g id="node26" class="node"><title>15365</title>
<g id="a_node26"><a xlink:title="PRE">
<ellipse fill="grey" stroke="black" cx="1537.94" cy="-355.738" rx="32.4942" ry="18"/>
<text text-anchor="middle" x="1537.94" y="-352.038" font-family="Times,serif" font-size="14.00">15365</text>
</a>
</g>
</g>
<!-- 20141 -->
<g id="node38" class="node"><title>20141</title>
<g id="a_node38"><a xlink:title="PRE">
<ellipse fill="#20ff05" stroke="black" cx="1400.41" cy="-570.264" rx="32.4942" ry="18"/>
<text text-anchor="middle" x="1400.41" y="-566.564" font-family="Times,serif" font-size="14.00">20141</text>
</a>
</g>
</g>
<!-- 15365&#45;&gt;20141 -->
<g id="edge37" class="edge"><title>15365&#45;&gt;20141</title>
<path fill="none" stroke="black" d="M1526.92,-372.931C1501.1,-413.199 1436.97,-513.234 1411.3,-553.287"/>
</g>
<!-- 15941 -->
<g id="node27" class="node"><title>15941</title>
<g id="a_node27"><a xlink:title="PRE">
<ellipse fill="grey" stroke="black" cx="1289.56" cy="-1044.15" rx="32.4942" ry="18"/>
<text text-anchor="middle" x="1289.56" y="-1040.45" font-family="Times,serif" font-size="14.00">15941</text>
</a>
</g>
</g>
<!-- 15941&#45;&gt;16643 -->
<g id="edge4" class="edge"><title>15941&#45;&gt;16643</title>
<path fill="none" stroke="black" d="M1287.43,-1026.11C1282.28,-982.395 1269.18,-871.179 1264.02,-827.401"/>
</g>
<!-- 16040 -->
<g id="node28" class="node"><title>16040</title>
<g id="a_node28"><a xlink:title="PRE">
<ellipse fill="#20ff05" stroke="black" cx="1040.1" cy="-1339.6" rx="32.4942" ry="18"/>
<text text-anchor="middle" x="1040.1" y="-1335.9" font-family="Times,serif" font-size="14.00">16040</text>
</a>
</g>
</g>
<!-- 16040&#45;&gt;16662 -->
<g id="edge9" class="edge"><title>16040&#45;&gt;16662</title>
<path fill="none" stroke="black" d="M1052.83,-1322.72C1077.36,-1290.22 1130.88,-1219.3 1155.37,-1186.85"/>
</g>
<!-- 16440 -->
<g id="node29" class="node"><title>16440</title>
<g id="a_node29"><a xlink:title="PRE">
<ellipse fill="#20ff05" stroke="black" cx="1533.18" cy="-794.436" rx="32.4942" ry="18"/>
<text text-anchor="middle" x="1533.18" y="-790.736" font-family="Times,serif" font-size="14.00">16440</text>
</a>
</g>
</g>
<!-- 16440&#45;&gt;16643 -->
<g id="edge13" class="edge"><title>16440&#45;&gt;16643</title>
<path fill="none" stroke="black" d="M1500.73,-796.215C1448.55,-799.074 1346.58,-804.661 1294.38,-807.521"/>
</g>
<!-- 28755 -->
<g id="node64" class="node"><title>28755</title>
<g id="a_node64"><a xlink:title="PRE">
<ellipse fill="#ffffff" stroke="black" cx="1786.81" cy="-769.185" rx="32.4942" ry="18"/>
<text text-anchor="middle" x="1786.81" y="-765.485" font-family="Times,serif" font-size="14.00">28755</text>
</a>
</g>
</g>
<!-- 16440&#45;&gt;28755 -->
<g id="edge58" class="edge"><title>16440&#45;&gt;28755</title>
<path fill="none" stroke="black" d="M1565.3,-791.238C1613.96,-786.394 1705.81,-777.249 1754.55,-772.397"/>
</g>
<!-- 16643&#45;&gt;16662 -->
<g id="edge32" class="edge"><title>16643&#45;&gt;16662</title>
<path fill="none" stroke="black" d="M1257.23,-827.191C1241.26,-888.608 1188.75,-1090.47 1172.73,-1152.05"/>
</g>
<!-- 16902 -->
<g id="node32" class="node"><title>16902</title>
<g id="a_node32"><a xlink:title="PRE">
<ellipse fill="#20ff05" stroke="black" cx="1215.94" cy="-1042.2" rx="32.4942" ry="18"/>
<text text-anchor="middle" x="1215.94" y="-1038.5" font-family="Times,serif" font-size="14.00">16902</text>
</a>
</g>
</g>
<!-- 16643&#45;&gt;16902 -->
<g id="edge28" class="edge"><title>16643&#45;&gt;16902</title>
<path fill="none" stroke="black" d="M1258.28,-827.577C1249.69,-871.115 1228.1,-980.562 1219.53,-1024.01"/>
</g>
<!-- 17894 -->
<g id="node33" class="node"><title>17894</title>
<g id="a_node33"><a xlink:title="PRE">
<ellipse fill="#20ff05" stroke="black" cx="1166.3" cy="-602.803" rx="32.4942" ry="18"/>
<text text-anchor="middle" x="1166.3" y="-599.103" font-family="Times,serif" font-size="14.00">17894</text>
</a>
</g>
</g>
<!-- 16643&#45;&gt;17894 -->
<g id="edge5" class="edge"><title>16643&#45;&gt;17894</title>
<path fill="none" stroke="black" d="M1253.73,-791.696C1235.68,-752.682 1192.47,-659.336 1174.43,-620.364"/>
</g>
<!-- 18516 -->
<g id="node34" class="node"><title>18516</title>
<g id="a_node34"><a xlink:title="PRE">
<ellipse fill="#20ff05" stroke="black" cx="1447.74" cy="-825.438" rx="32.4942" ry="18"/>
<text text-anchor="middle" x="1447.74" y="-821.738" font-family="Times,serif" font-size="14.00">18516</text>
</a>
</g>
</g>
<!-- 16643&#45;&gt;18516 -->
<g id="edge44" class="edge"><title>16643&#45;&gt;18516</title>
<path fill="none" stroke="black" d="M1294.26,-812.112C1328.26,-815.065 1381.44,-819.682 1415.42,-822.632"/>
</g>
<!-- 16643&#45;&gt;18687 -->
<g id="edge60" class="edge"><title>16643&#45;&gt;18687</title>
<path fill="none" stroke="black" d="M1229.42,-811.749C1155.47,-817.325 975.203,-830.917 901.479,-836.476"/>
</g>
<!-- 16643&#45;&gt;20141 -->
<g id="edge24" class="edge"><title>16643&#45;&gt;20141</title>
<path fill="none" stroke="black" d="M1271.85,-792.111C1297.34,-748.113 1364.75,-631.798 1390.35,-587.621"/>
</g>
<!-- 20223 -->
<g id="node39" class="node"><title>20223</title>
<g id="a_node39"><a xlink:title="PRE">
<ellipse fill="#20ff05" stroke="black" cx="1245.65" cy="-595.292" rx="32.4942" ry="18"/>
<text text-anchor="middle" x="1245.65" y="-591.592" font-family="Times,serif" font-size="14.00">20223</text>
</a>
</g>
</g>
<!-- 16643&#45;&gt;20223 -->
<g id="edge39" class="edge"><title>16643&#45;&gt;20223</title>
<path fill="none" stroke="black" d="M1260.5,-791.055C1257.43,-750.623 1250.1,-653.882 1247.03,-613.492"/>
</g>
<!-- 21055 -->
<g id="node40" class="node"><title>21055</title>
<g id="a_node40"><a xlink:title="PRE">
<ellipse fill="#20ff05" stroke="black" cx="1416.38" cy="-953.913" rx="32.4942" ry="18"/>
<text text-anchor="middle" x="1416.38" y="-950.213" font-family="Times,serif" font-size="14.00">21055</text>
</a>
</g>
</g>
<!-- 16643&#45;&gt;21055 -->
<g id="edge27" class="edge"><title>16643&#45;&gt;21055</title>
<path fill="none" stroke="black" d="M1278.71,-825.053C1308.43,-852.87 1369.87,-910.378 1399.57,-938.181"/>
</g>
<!-- 22185 -->
<g id="node43" class="node"><title>22185</title>
<g id="a_node43"><a xlink:title="PRE">
<ellipse fill="#20ff05" stroke="black" cx="1299.93" cy="-959.903" rx="32.4942" ry="18"/>
<text text-anchor="middle" x="1299.93" y="-956.203" font-family="Times,serif" font-size="14.00">22185</text>
</a>
</g>
</g>
<!-- 16643&#45;&gt;22185 -->
<g id="edge41" class="edge"><title>16643&#45;&gt;22185</title>
<path fill="none" stroke="black" d="M1266.4,-827.169C1273.72,-856.153 1288.1,-913.089 1295.42,-942.059"/>
</g>
<!-- 22616 -->
<g id="node45" class="node"><title>22616</title>
<g id="a_node45"><a xlink:title="PRE">
<ellipse fill="#ffffff" stroke="black" cx="1034.73" cy="-889.327" rx="32.4942" ry="18"/>
<text text-anchor="middle" x="1034.73" y="-885.627" font-family="Times,serif" font-size="14.00">22616</text>
</a>
</g>
</g>
<!-- 16643&#45;&gt;22616 -->
<g id="edge47" class="edge"><title>16643&#45;&gt;22616</title>
<path fill="none" stroke="black" d="M1234.03,-819.114C1190.31,-834.515 1106.09,-864.186 1062.46,-879.559"/>
</g>
<!-- 24357 -->
<g id="node47" class="node"><title>24357</title>
<g id="a_node47"><a xlink:title="PRE">
<ellipse fill="grey" stroke="black" cx="1083.88" cy="-647.192" rx="32.4942" ry="18"/>
<text text-anchor="middle" x="1083.88" y="-643.492" font-family="Times,serif" font-size="14.00">24357</text>
</a>
</g>
</g>
<!-- 16643&#45;&gt;24357 -->
<g id="edge23" class="edge"><title>16643&#45;&gt;24357</title>
<path fill="none" stroke="black" d="M1244.82,-793.758C1210.79,-762.772 1134.88,-693.635 1100.9,-662.688"/>
</g>
<!-- 16643&#45;&gt;24928 -->
<g id="edge52" class="edge"><title>16643&#45;&gt;24928</title>
<path fill="none" stroke="black" d="M1288.32,-798.556C1336.63,-778.925 1438.61,-737.48 1486.94,-717.842"/>
</g>
<!-- 24976 -->
<g id="node50" class="node"><title>24976</title>
<g id="a_node50"><a xlink:title="PRE">
<ellipse fill="#ffffff" stroke="black" cx="1468.29" cy="-630.884" rx="32.4942" ry="18"/>
<text text-anchor="middle" x="1468.29" y="-627.184" font-family="Times,serif" font-size="14.00">24976</text>
</a>
</g>
</g>
<!-- 16643&#45;&gt;24976 -->
<g id="edge43" class="edge"><title>16643&#45;&gt;24976</title>
<path fill="none" stroke="black" d="M1279.48,-794.09C1318.48,-760.382 1411.78,-679.73 1450.74,-646.057"/>
</g>
<!-- 28033 -->
<g id="node55" class="node"><title>28033</title>
<g id="a_node55"><a xlink:title="PRE">
<ellipse fill="grey" stroke="black" cx="1097.37" cy="-709.18" rx="32.4942" ry="18"/>
<text text-anchor="middle" x="1097.37" y="-705.48" font-family="Times,serif" font-size="14.00">28033</text>
</a>
</g>
</g>
<!-- 16643&#45;&gt;28033 -->
<g id="edge16" class="edge"><title>16643&#45;&gt;28033</title>
<path fill="none" stroke="black" d="M1239.7,-795.799C1208.21,-776.637 1150.9,-741.761 1119.47,-722.629"/>
</g>
<!-- 28147 -->
<g id="node56" class="node"><title>28147</title>
<g id="a_node56"><a xlink:title="PRE">
<ellipse fill="#20ff05" stroke="black" cx="1035.6" cy="-774.489" rx="32.4942" ry="18"/>
<text text-anchor="middle" x="1035.6" y="-770.789" font-family="Times,serif" font-size="14.00">28147</text>
</a>
</g>
</g>
<!-- 16643&#45;&gt;28147 -->
<g id="edge49" class="edge"><title>16643&#45;&gt;28147</title>
<path fill="none" stroke="black" d="M1230.42,-804.461C1187.31,-797.829 1110.32,-785.985 1067.16,-779.344"/>
</g>
<!-- 16643&#45;&gt;28865 -->
<g id="edge25" class="edge"><title>16643&#45;&gt;28865</title>
<path fill="none" stroke="black" d="M1282.36,-823.509C1329.38,-856.145 1444.68,-936.161 1491.65,-968.751"/>
</g>
<!-- 30504 -->
<g id="node59" class="node"><title>30504</title>
<g id="a_node59"><a xlink:title="PRE">
<ellipse fill="#20ff05" stroke="black" cx="1113.31" cy="-848.005" rx="32.4942" ry="18"/>
<text text-anchor="middle" x="1113.31" y="-844.305" font-family="Times,serif" font-size="14.00">30504</text>
</a>
</g>
</g>
<!-- 16643&#45;&gt;30504 -->
<g id="edge17" class="edge"><title>16643&#45;&gt;30504</title>
<path fill="none" stroke="black" d="M1232.18,-817.041C1206.26,-823.791 1168.87,-833.533 1142.97,-840.279"/>
</g>
<!-- 30510 -->
<g id="node60" class="node"><title>30510</title>
<g id="a_node60"><a xlink:title="PRE">
<ellipse fill="#20ff05" stroke="black" cx="1032.49" cy="-1001.75" rx="32.4942" ry="18"/>
<text text-anchor="middle" x="1032.49" y="-998.052" font-family="Times,serif" font-size="14.00">30510</text>
</a>
</g>
</g>
<!-- 16643&#45;&gt;30510 -->
<g id="edge14" class="edge"><title>16643&#45;&gt;30510</title>
<path fill="none" stroke="black" d="M1243.88,-824.403C1201,-860.378 1093.21,-950.816 1050.41,-986.72"/>
</g>
<!-- 32297 -->
<g id="node62" class="node"><title>32297</title>
<g id="a_node62"><a xlink:title="PRE">
<ellipse fill="#20ff05" stroke="black" cx="1398.23" cy="-692.149" rx="32.4942" ry="18"/>
<text text-anchor="middle" x="1398.23" y="-688.449" font-family="Times,serif" font-size="14.00">32297</text>
</a>
</g>
</g>
<!-- 16643&#45;&gt;32297 -->
<g id="edge57" class="edge"><title>16643&#45;&gt;32297</title>
<path fill="none" stroke="black" d="M1279.71,-793.986C1305.84,-771.534 1354.26,-729.923 1380.4,-707.468"/>
</g>
<!-- 22598 -->
<g id="node44" class="node"><title>22598</title>
<g id="a_node44"><a xlink:title="PRE">
<ellipse fill="#20ff05" stroke="black" cx="1110.85" cy="-1385.57" rx="32.4942" ry="18"/>
<text text-anchor="middle" x="1110.85" y="-1381.87" font-family="Times,serif" font-size="14.00">22598</text>
</a>
</g>
</g>
<!-- 16662&#45;&gt;22598 -->
<g id="edge38" class="edge"><title>16662&#45;&gt;22598</title>
<path fill="none" stroke="black" d="M1163.27,-1188.05C1152.51,-1228.62 1126.45,-1326.8 1115.66,-1367.47"/>
</g>
<!-- 22019 -->
<g id="node42" class="node"><title>22019</title>
<g id="a_node42"><a xlink:title="PRE">
<ellipse fill="#20ff05" stroke="black" cx="869.733" cy="-1140.29" rx="32.4942" ry="18"/>
<text text-anchor="middle" x="869.733" y="-1136.59" font-family="Times,serif" font-size="14.00">22019</text>
</a>
</g>
</g>
<!-- 22019&#45;&gt;30510 -->
<g id="edge15" class="edge"><title>22019&#45;&gt;30510</title>
<path fill="none" stroke="black" d="M887.461,-1125.2C918.605,-1098.69 982.815,-1044.04 1014.29,-1017.25"/>
</g>
<!-- 25834 -->
<g id="node51" class="node"><title>25834</title>
<g id="a_node51"><a xlink:title="PRE">
<ellipse fill="#20ff05" stroke="black" cx="1664.11" cy="-466.578" rx="32.4942" ry="18"/>
<text text-anchor="middle" x="1664.11" y="-462.878" font-family="Times,serif" font-size="14.00">25834</text>
</a>
</g>
</g>
<!-- 24976&#45;&gt;25834 -->
<g id="edge46" class="edge"><title>24976&#45;&gt;25834</title>
<path fill="none" stroke="black" d="M1486.36,-615.721C1523.67,-584.42 1608.82,-512.974 1646.08,-481.704"/>
</g>
</g>
</svg>
