<?xml version="1.0" encoding="UTF-8" standalone="no"?>
<!DOCTYPE svg PUBLIC "-//W3C//DTD SVG 1.1//EN"
 "http://www.w3.org/Graphics/SVG/1.1/DTD/svg11.dtd">
<!-- Generated by graphviz version 2.38.0 (20140413.2041)
 -->
<!-- Title: %3 Pages: 1 -->
<svg width="1185pt" height="1132pt"
 viewBox="0.00 0.00 1185.00 1132.00" xmlns="http://www.w3.org/2000/svg" xmlns:xlink="http://www.w3.org/1999/xlink">
<g id="graph0" class="graph" transform="scale(1 1) rotate(0) translate(4 1128)">
<title>%3</title>
<polygon fill="white" stroke="none" points="-4,4 -4,-1128 1181,-1128 1181,4 -4,4"/>
<!-- 21 -->
<g id="node1" class="node"><title>21</title>
<g id="a_node1"><a xlink:title="3rd_week">
<ellipse fill="#20ff05" stroke="black" cx="724.514" cy="-537.282" rx="27" ry="18"/>
<text text-anchor="middle" x="724.514" y="-533.582" font-family="Times,serif" font-size="14.00">21</text>
</a>
</g>
</g>
<!-- 15056 -->
<g id="node52" class="node"><title>15056</title>
<g id="a_node52"><a xlink:title="3rd_week">
<ellipse fill="#20ff05" stroke="black" cx="575.814" cy="-562.986" rx="32.4942" ry="18"/>
<text text-anchor="middle" x="575.814" y="-559.286" font-family="Times,serif" font-size="14.00">15056</text>
</a>
</g>
</g>
<!-- 21&#45;&gt;15056 -->
<g id="edge37" class="edge"><title>21&#45;&gt;15056</title>
<path fill="none" stroke="black" d="M698.272,-541.818C672.758,-546.228 634.001,-552.928 606.943,-557.605"/>
</g>
<!-- 562 -->
<g id="node2" class="node"><title>562</title>
<g id="a_node2"><a xlink:title="3rd_week">
<ellipse fill="#20ff05" stroke="black" cx="687.344" cy="-707.087" rx="27" ry="18"/>
<text text-anchor="middle" x="687.344" y="-703.387" font-family="Times,serif" font-size="14.00">562</text>
</a>
</g>
</g>
<!-- 562&#45;&gt;15056 -->
<g id="edge1" class="edge"><title>562&#45;&gt;15056</title>
<path fill="none" stroke="black" d="M674.767,-690.837C653.461,-663.308 610.482,-607.778 588.862,-579.843"/>
</g>
<!-- 825 -->
<g id="node3" class="node"><title>825</title>
<g id="a_node3"><a xlink:title="3rd_week">
<ellipse fill="#20ff05" stroke="black" cx="532.296" cy="-378.529" rx="27" ry="18"/>
<text text-anchor="middle" x="532.296" y="-374.829" font-family="Times,serif" font-size="14.00">825</text>
</a>
</g>
</g>
<!-- 825&#45;&gt;15056 -->
<g id="edge39" class="edge"><title>825&#45;&gt;15056</title>
<path fill="none" stroke="black" d="M536.548,-396.552C544.868,-431.816 563.212,-509.568 571.545,-544.89"/>
</g>
<!-- 872 -->
<g id="node4" class="node"><title>872</title>
<g id="a_node4"><a xlink:title="3rd_week">
<ellipse fill="#20ff05" stroke="black" cx="468.668" cy="-362.016" rx="27" ry="18"/>
<text text-anchor="middle" x="468.668" y="-358.316" font-family="Times,serif" font-size="14.00">872</text>
</a>
</g>
</g>
<!-- 872&#45;&gt;15056 -->
<g id="edge52" class="edge"><title>872&#45;&gt;15056</title>
<path fill="none" stroke="black" d="M477.803,-379.151C497.996,-417.025 546.239,-507.512 566.55,-545.609"/>
</g>
<!-- 1142 -->
<g id="node5" class="node"><title>1142</title>
<g id="a_node5"><a xlink:title="3rd_week">
<ellipse fill="#20ff05" stroke="black" cx="814.769" cy="-576.168" rx="28.6953" ry="18"/>
<text text-anchor="middle" x="814.769" y="-572.468" font-family="Times,serif" font-size="14.00">1142</text>
</a>
</g>
</g>
<!-- 1142&#45;&gt;15056 -->
<g id="edge3" class="edge"><title>1142&#45;&gt;15056</title>
<path fill="none" stroke="black" d="M785.946,-574.578C741.135,-572.106 655.05,-567.357 608.172,-564.771"/>
</g>
<!-- 1332 -->
<g id="node6" class="node"><title>1332</title>
<g id="a_node6"><a xlink:title="3rd_week">
<ellipse fill="#20ff05" stroke="black" cx="731.932" cy="-440.229" rx="28.6953" ry="18"/>
<text text-anchor="middle" x="731.932" y="-436.529" font-family="Times,serif" font-size="14.00">1332</text>
</a>
</g>
</g>
<!-- 1332&#45;&gt;15056 -->
<g id="edge34" class="edge"><title>1332&#45;&gt;15056</title>
<path fill="none" stroke="black" d="M714.023,-454.311C684.389,-477.612 625.409,-523.989 594.972,-547.922"/>
</g>
<!-- 1475 -->
<g id="node7" class="node"><title>1475</title>
<g id="a_node7"><a xlink:title="3rd_week">
<ellipse fill="#20ff05" stroke="black" cx="890.355" cy="-482.383" rx="28.6953" ry="18"/>
<text text-anchor="middle" x="890.355" y="-478.683" font-family="Times,serif" font-size="14.00">1475</text>
</a>
</g>
</g>
<!-- 12730 -->
<g id="node45" class="node"><title>12730</title>
<g id="a_node45"><a xlink:title="3rd_week">
<ellipse fill="grey" stroke="black" cx="1102.28" cy="-427.759" rx="32.4942" ry="18"/>
<text text-anchor="middle" x="1102.28" y="-424.059" font-family="Times,serif" font-size="14.00">12730</text>
</a>
</g>
</g>
<!-- 1475&#45;&gt;12730 -->
<g id="edge24" class="edge"><title>1475&#45;&gt;12730</title>
<path fill="none" stroke="black" d="M917.196,-475.465C956.958,-465.216 1031.25,-446.066 1072.59,-435.41"/>
</g>
<!-- 1475&#45;&gt;15056 -->
<g id="edge10" class="edge"><title>1475&#45;&gt;15056</title>
<path fill="none" stroke="black" d="M863.809,-489.186C805.454,-504.14 666.367,-539.781 605.356,-555.416"/>
</g>
<!-- 1554 -->
<g id="node8" class="node"><title>1554</title>
<g id="a_node8"><a xlink:title="3rd_week">
<ellipse fill="#20ff05" stroke="black" cx="837.013" cy="-372.173" rx="28.6953" ry="18"/>
<text text-anchor="middle" x="837.013" y="-368.473" font-family="Times,serif" font-size="14.00">1554</text>
</a>
</g>
</g>
<!-- 7278 -->
<g id="node32" class="node"><title>7278</title>
<g id="a_node32"><a xlink:title="3rd_week">
<ellipse fill="#20ff05" stroke="black" cx="1015.63" cy="-238.027" rx="28.6953" ry="18"/>
<text text-anchor="middle" x="1015.63" y="-234.327" font-family="Times,serif" font-size="14.00">7278</text>
</a>
</g>
</g>
<!-- 1554&#45;&gt;7278 -->
<g id="edge42" class="edge"><title>1554&#45;&gt;7278</title>
<path fill="none" stroke="black" d="M855.455,-358.323C889.681,-332.617 962.664,-277.804 997.016,-252.004"/>
</g>
<!-- 1554&#45;&gt;15056 -->
<g id="edge50" class="edge"><title>1554&#45;&gt;15056</title>
<path fill="none" stroke="black" d="M818.228,-385.896C770.386,-420.846 644.288,-512.964 595.49,-548.612"/>
</g>
<!-- 1667 -->
<g id="node9" class="node"><title>1667</title>
<g id="a_node9"><a xlink:title="3rd_week">
<ellipse fill="grey" stroke="black" cx="801.22" cy="-490.018" rx="28.6953" ry="18"/>
<text text-anchor="middle" x="801.22" y="-486.318" font-family="Times,serif" font-size="14.00">1667</text>
</a>
</g>
</g>
<!-- 1667&#45;&gt;15056 -->
<g id="edge11" class="edge"><title>1667&#45;&gt;15056</title>
<path fill="none" stroke="black" d="M775.363,-498.389C732.808,-512.164 648.339,-539.508 604.191,-553.8"/>
</g>
<!-- 2489 -->
<g id="node10" class="node"><title>2489</title>
<g id="a_node10"><a xlink:title="3rd_week">
<ellipse fill="#ffffff" stroke="black" cx="1114.89" cy="-748.898" rx="28.6953" ry="18"/>
<text text-anchor="middle" x="1114.89" y="-745.198" font-family="Times,serif" font-size="14.00">2489</text>
</a>
</g>
</g>
<!-- 6550 -->
<g id="node30" class="node"><title>6550</title>
<g id="a_node30"><a xlink:title="3rd_week">
<ellipse fill="#20ff05" stroke="black" cx="923.139" cy="-651.771" rx="28.6953" ry="18"/>
<text text-anchor="middle" x="923.139" y="-648.071" font-family="Times,serif" font-size="14.00">6550</text>
</a>
</g>
</g>
<!-- 2489&#45;&gt;6550 -->
<g id="edge12" class="edge"><title>2489&#45;&gt;6550</title>
<path fill="none" stroke="black" d="M1092.52,-737.566C1055.67,-718.901 982.615,-681.897 945.665,-663.18"/>
</g>
<!-- 2523 -->
<g id="node11" class="node"><title>2523</title>
<g id="a_node11"><a xlink:title="3rd_week">
<ellipse fill="#20ff05" stroke="black" cx="616.782" cy="-240.807" rx="28.6953" ry="18"/>
<text text-anchor="middle" x="616.782" y="-237.107" font-family="Times,serif" font-size="14.00">2523</text>
</a>
</g>
</g>
<!-- 2523&#45;&gt;15056 -->
<g id="edge14" class="edge"><title>2523&#45;&gt;15056</title>
<path fill="none" stroke="black" d="M614.462,-259.052C607.251,-315.759 585.285,-488.508 578.109,-544.941"/>
</g>
<!-- 16956 -->
<g id="node56" class="node"><title>16956</title>
<g id="a_node56"><a xlink:title="3rd_week">
<ellipse fill="grey" stroke="black" cx="642.126" cy="-17.7965" rx="32.4942" ry="18"/>
<text text-anchor="middle" x="642.126" y="-14.0965" font-family="Times,serif" font-size="14.00">16956</text>
</a>
</g>
</g>
<!-- 2523&#45;&gt;16956 -->
<g id="edge57" class="edge"><title>2523&#45;&gt;16956</title>
<path fill="none" stroke="black" d="M618.856,-222.557C623.62,-180.635 635.301,-77.8497 640.059,-35.9858"/>
</g>
<!-- 2726 -->
<g id="node12" class="node"><title>2726</title>
<g id="a_node12"><a xlink:title="3rd_week">
<ellipse fill="grey" stroke="black" cx="383.832" cy="-671.539" rx="28.6953" ry="18"/>
<text text-anchor="middle" x="383.832" y="-667.839" font-family="Times,serif" font-size="14.00">2726</text>
</a>
</g>
</g>
<!-- 2726&#45;&gt;15056 -->
<g id="edge32" class="edge"><title>2726&#45;&gt;15056</title>
<path fill="none" stroke="black" d="M405.111,-659.507C441.526,-638.917 515.481,-597.1 552.953,-575.912"/>
</g>
<!-- 2826 -->
<g id="node13" class="node"><title>2826</title>
<g id="a_node13"><a xlink:title="3rd_week">
<ellipse fill="grey" stroke="black" cx="442.483" cy="-459.931" rx="28.6953" ry="18"/>
<text text-anchor="middle" x="442.483" y="-456.231" font-family="Times,serif" font-size="14.00">2826</text>
</a>
</g>
</g>
<!-- 2826&#45;&gt;15056 -->
<g id="edge41" class="edge"><title>2826&#45;&gt;15056</title>
<path fill="none" stroke="black" d="M460.742,-474.044C485.847,-493.449 530.822,-528.211 556.48,-548.042"/>
</g>
<!-- 2965 -->
<g id="node14" class="node"><title>2965</title>
<g id="a_node14"><a xlink:title="3rd_week">
<ellipse fill="#efff05" stroke="black" cx="371.896" cy="-485.317" rx="28.6953" ry="18"/>
<text text-anchor="middle" x="371.896" y="-481.617" font-family="Times,serif" font-size="14.00">2965</text>
</a>
</g>
</g>
<!-- 2965&#45;&gt;15056 -->
<g id="edge53" class="edge"><title>2965&#45;&gt;15056</title>
<path fill="none" stroke="black" d="M396.494,-494.686C434.946,-509.331 509.011,-537.542 548.863,-552.721"/>
</g>
<!-- 3104 -->
<g id="node15" class="node"><title>3104</title>
<g id="a_node15"><a xlink:title="3rd_week">
<ellipse fill="grey" stroke="black" cx="960.231" cy="-1011.16" rx="28.6953" ry="18"/>
<text text-anchor="middle" x="960.231" y="-1007.46" font-family="Times,serif" font-size="14.00">3104</text>
</a>
</g>
</g>
<!-- 12723 -->
<g id="node44" class="node"><title>12723</title>
<g id="a_node44"><a xlink:title="3rd_week">
<ellipse fill="#20ff05" stroke="black" cx="783.178" cy="-837.126" rx="32.4942" ry="18"/>
<text text-anchor="middle" x="783.178" y="-833.426" font-family="Times,serif" font-size="14.00">12723</text>
</a>
</g>
</g>
<!-- 3104&#45;&gt;12723 -->
<g id="edge31" class="edge"><title>3104&#45;&gt;12723</title>
<path fill="none" stroke="black" d="M944.519,-995.714C911.089,-962.855 833.212,-886.306 799.366,-853.037"/>
</g>
<!-- 3120 -->
<g id="node16" class="node"><title>3120</title>
<g id="a_node16"><a xlink:title="3rd_week">
<ellipse fill="#20ff05" stroke="black" cx="729.736" cy="-630.146" rx="28.6953" ry="18"/>
<text text-anchor="middle" x="729.736" y="-626.446" font-family="Times,serif" font-size="14.00">3120</text>
</a>
</g>
</g>
<!-- 3120&#45;&gt;15056 -->
<g id="edge7" class="edge"><title>3120&#45;&gt;15056</title>
<path fill="none" stroke="black" d="M706.023,-619.8C677.689,-607.437 630.467,-586.832 601.35,-574.128"/>
</g>
<!-- 3132 -->
<g id="node17" class="node"><title>3132</title>
<g id="a_node17"><a xlink:title="3rd_week">
<ellipse fill="#20ff05" stroke="black" cx="737.416" cy="-381.729" rx="28.6953" ry="18"/>
<text text-anchor="middle" x="737.416" y="-378.029" font-family="Times,serif" font-size="14.00">3132</text>
</a>
</g>
</g>
<!-- 3132&#45;&gt;15056 -->
<g id="edge16" class="edge"><title>3132&#45;&gt;15056</title>
<path fill="none" stroke="black" d="M723.357,-397.497C692.948,-431.605 621.317,-511.948 590.42,-546.603"/>
</g>
<!-- 3790 -->
<g id="node18" class="node"><title>3790</title>
<g id="a_node18"><a xlink:title="3rd_week">
<ellipse fill="#20ff05" stroke="black" cx="30.5401" cy="-526.951" rx="28.6953" ry="18"/>
<text text-anchor="middle" x="30.5401" y="-523.251" font-family="Times,serif" font-size="14.00">3790</text>
</a>
</g>
</g>
<!-- 10436 -->
<g id="node40" class="node"><title>10436</title>
<g id="a_node40"><a xlink:title="3rd_week">
<ellipse fill="#20ff05" stroke="black" cx="279.861" cy="-540.43" rx="32.4942" ry="18"/>
<text text-anchor="middle" x="279.861" y="-536.73" font-family="Times,serif" font-size="14.00">10436</text>
</a>
</g>
</g>
<!-- 3790&#45;&gt;10436 -->
<g id="edge40" class="edge"><title>3790&#45;&gt;10436</title>
<path fill="none" stroke="black" d="M59.1403,-528.498C105.826,-531.022 198.121,-536.011 247.27,-538.668"/>
</g>
<!-- 4229 -->
<g id="node19" class="node"><title>4229</title>
<g id="a_node19"><a xlink:title="3rd_week">
<ellipse fill="#20ff05" stroke="black" cx="83.5629" cy="-312.255" rx="28.6953" ry="18"/>
<text text-anchor="middle" x="83.5629" y="-308.555" font-family="Times,serif" font-size="14.00">4229</text>
</a>
</g>
</g>
<!-- 6012 -->
<g id="node27" class="node"><title>6012</title>
<g id="a_node27"><a xlink:title="3rd_week">
<ellipse fill="#20ff05" stroke="black" cx="306.56" cy="-421.448" rx="28.6953" ry="18"/>
<text text-anchor="middle" x="306.56" y="-417.748" font-family="Times,serif" font-size="14.00">6012</text>
</a>
</g>
</g>
<!-- 4229&#45;&gt;6012 -->
<g id="edge22" class="edge"><title>4229&#45;&gt;6012</title>
<path fill="none" stroke="black" d="M106.172,-323.326C148.913,-344.254 241.104,-389.397 283.891,-410.348"/>
</g>
<!-- 4258 -->
<g id="node20" class="node"><title>4258</title>
<g id="a_node20"><a xlink:title="3rd_week">
<ellipse fill="grey" stroke="black" cx="418.29" cy="-1073.95" rx="28.6953" ry="18"/>
<text text-anchor="middle" x="418.29" y="-1070.25" font-family="Times,serif" font-size="14.00">4258</text>
</a>
</g>
</g>
<!-- 8241 -->
<g id="node34" class="node"><title>8241</title>
<g id="a_node34"><a xlink:title="3rd_week">
<ellipse fill="grey" stroke="black" cx="491.086" cy="-837.586" rx="28.6953" ry="18"/>
<text text-anchor="middle" x="491.086" y="-833.886" font-family="Times,serif" font-size="14.00">8241</text>
</a>
</g>
</g>
<!-- 4258&#45;&gt;8241 -->
<g id="edge2" class="edge"><title>4258&#45;&gt;8241</title>
<path fill="none" stroke="black" d="M423.762,-1056.18C437.252,-1012.38 471.994,-899.577 485.551,-855.558"/>
</g>
<!-- 4330 -->
<g id="node21" class="node"><title>4330</title>
<g id="a_node21"><a xlink:title="3rd_week">
<ellipse fill="#20ff05" stroke="black" cx="131.757" cy="-970.079" rx="28.6953" ry="18"/>
<text text-anchor="middle" x="131.757" y="-966.379" font-family="Times,serif" font-size="14.00">4330</text>
</a>
</g>
</g>
<!-- 8303 -->
<g id="node35" class="node"><title>8303</title>
<g id="a_node35"><a xlink:title="3rd_week">
<ellipse fill="#20ff05" stroke="black" cx="271.792" cy="-774.652" rx="28.6953" ry="18"/>
<text text-anchor="middle" x="271.792" y="-770.952" font-family="Times,serif" font-size="14.00">8303</text>
</a>
</g>
</g>
<!-- 4330&#45;&gt;8303 -->
<g id="edge5" class="edge"><title>4330&#45;&gt;8303</title>
<path fill="none" stroke="black" d="M143.697,-953.417C170.153,-916.495 233.454,-828.154 259.883,-791.272"/>
</g>
<!-- 4415 -->
<g id="node22" class="node"><title>4415</title>
<g id="a_node22"><a xlink:title="3rd_week">
<ellipse fill="#ffffff" stroke="black" cx="378.561" cy="-551.486" rx="28.6953" ry="18"/>
<text text-anchor="middle" x="378.561" y="-547.786" font-family="Times,serif" font-size="14.00">4415</text>
</a>
</g>
</g>
<!-- 4415&#45;&gt;15056 -->
<g id="edge27" class="edge"><title>4415&#45;&gt;15056</title>
<path fill="none" stroke="black" d="M407.244,-553.158C443.466,-555.27 505.622,-558.894 543.49,-561.101"/>
</g>
<!-- 4442 -->
<g id="node23" class="node"><title>4442</title>
<g id="a_node23"><a xlink:title="3rd_week">
<ellipse fill="#ffffff" stroke="black" cx="626.042" cy="-377.214" rx="28.6953" ry="18"/>
<text text-anchor="middle" x="626.042" y="-373.514" font-family="Times,serif" font-size="14.00">4442</text>
</a>
</g>
</g>
<!-- 4442&#45;&gt;15056 -->
<g id="edge8" class="edge"><title>4442&#45;&gt;15056</title>
<path fill="none" stroke="black" d="M621.226,-395.026C611.65,-430.444 590.314,-509.358 580.689,-544.954"/>
</g>
<!-- 4685 -->
<g id="node24" class="node"><title>4685</title>
<g id="a_node24"><a xlink:title="3rd_week">
<ellipse fill="#20ff05" stroke="black" cx="415.907" cy="-36.9969" rx="28.6953" ry="18"/>
<text text-anchor="middle" x="415.907" y="-33.2969" font-family="Times,serif" font-size="14.00">4685</text>
</a>
</g>
</g>
<!-- 14267 -->
<g id="node47" class="node"><title>14267</title>
<g id="a_node47"><a xlink:title="3rd_week">
<ellipse fill="#20ff05" stroke="black" cx="482.642" cy="-250.772" rx="32.4942" ry="18"/>
<text text-anchor="middle" x="482.642" y="-247.072" font-family="Times,serif" font-size="14.00">14267</text>
</a>
</g>
</g>
<!-- 4685&#45;&gt;14267 -->
<g id="edge28" class="edge"><title>4685&#45;&gt;14267</title>
<path fill="none" stroke="black" d="M421.482,-54.8555C434.044,-95.0955 464.445,-192.48 477.036,-232.814"/>
</g>
<!-- 5204 -->
<g id="node25" class="node"><title>5204</title>
<g id="a_node25"><a xlink:title="3rd_week">
<ellipse fill="#ffffff" stroke="black" cx="463.514" cy="-694.298" rx="28.6953" ry="18"/>
<text text-anchor="middle" x="463.514" y="-690.598" font-family="Times,serif" font-size="14.00">5204</text>
</a>
</g>
</g>
<!-- 5204&#45;&gt;15056 -->
<g id="edge17" class="edge"><title>5204&#45;&gt;15056</title>
<path fill="none" stroke="black" d="M477.284,-678.196C498.72,-653.131 539.858,-605.029 561.577,-579.633"/>
</g>
<!-- 5454 -->
<g id="node26" class="node"><title>5454</title>
<g id="a_node26"><a xlink:title="3rd_week">
<ellipse fill="#20ff05" stroke="black" cx="577.041" cy="-780.691" rx="28.6953" ry="18"/>
<text text-anchor="middle" x="577.041" y="-776.991" font-family="Times,serif" font-size="14.00">5454</text>
</a>
</g>
</g>
<!-- 5454&#45;&gt;15056 -->
<g id="edge29" class="edge"><title>5454&#45;&gt;15056</title>
<path fill="none" stroke="black" d="M576.939,-762.504C576.708,-721.524 576.149,-622.35 575.917,-581.274"/>
</g>
<!-- 6012&#45;&gt;15056 -->
<g id="edge36" class="edge"><title>6012&#45;&gt;15056</title>
<path fill="none" stroke="black" d="M328.594,-433.031C378.582,-459.308 500.24,-523.259 551.938,-550.435"/>
</g>
<!-- 6267 -->
<g id="node28" class="node"><title>6267</title>
<g id="a_node28"><a xlink:title="3rd_week">
<ellipse fill="#20ff05" stroke="black" cx="860.737" cy="-86.6167" rx="28.6953" ry="18"/>
<text text-anchor="middle" x="860.737" y="-82.9167" font-family="Times,serif" font-size="14.00">6267</text>
</a>
</g>
</g>
<!-- 14834 -->
<g id="node50" class="node"><title>14834</title>
<g id="a_node50"><a xlink:title="3rd_week">
<ellipse fill="#20ff05" stroke="black" cx="745.872" cy="-283.485" rx="32.4942" ry="18"/>
<text text-anchor="middle" x="745.872" y="-279.785" font-family="Times,serif" font-size="14.00">14834</text>
</a>
</g>
</g>
<!-- 6267&#45;&gt;14834 -->
<g id="edge38" class="edge"><title>6267&#45;&gt;14834</title>
<path fill="none" stroke="black" d="M850.744,-103.743C829.02,-140.975 777.7,-228.934 755.923,-266.258"/>
</g>
<!-- 6335 -->
<g id="node29" class="node"><title>6335</title>
<g id="a_node29"><a xlink:title="3rd_week">
<ellipse fill="#20ff05" stroke="black" cx="72.9941" cy="-916.105" rx="28.6953" ry="18"/>
<text text-anchor="middle" x="72.9941" y="-912.405" font-family="Times,serif" font-size="14.00">6335</text>
</a>
</g>
</g>
<!-- 6335&#45;&gt;8303 -->
<g id="edge21" class="edge"><title>6335&#45;&gt;8303</title>
<path fill="none" stroke="black" d="M92.0556,-902.542C130.054,-875.504 214.837,-815.178 252.788,-788.174"/>
</g>
<!-- 6550&#45;&gt;15056 -->
<g id="edge23" class="edge"><title>6550&#45;&gt;15056</title>
<path fill="none" stroke="black" d="M896.462,-644.951C832.764,-628.668 672.155,-587.613 605.51,-570.577"/>
</g>
<!-- 16003 -->
<g id="node54" class="node"><title>16003</title>
<g id="a_node54"><a xlink:title="3rd_week">
<ellipse fill="grey" stroke="black" cx="1144.89" cy="-669.169" rx="32.4942" ry="18"/>
<text text-anchor="middle" x="1144.89" y="-665.469" font-family="Times,serif" font-size="14.00">16003</text>
</a>
</g>
</g>
<!-- 6550&#45;&gt;16003 -->
<g id="edge35" class="edge"><title>6550&#45;&gt;16003</title>
<path fill="none" stroke="black" d="M951.675,-654.01C992.968,-657.249 1069.17,-663.228 1112.51,-666.629"/>
</g>
<!-- 6778 -->
<g id="node31" class="node"><title>6778</title>
<g id="a_node31"><a xlink:title="3rd_week">
<ellipse fill="#20ff05" stroke="black" cx="677.819" cy="-765.391" rx="28.6953" ry="18"/>
<text text-anchor="middle" x="677.819" y="-761.691" font-family="Times,serif" font-size="14.00">6778</text>
</a>
</g>
</g>
<!-- 6778&#45;&gt;15056 -->
<g id="edge43" class="edge"><title>6778&#45;&gt;15056</title>
<path fill="none" stroke="black" d="M669.122,-748.134C649.899,-709.99 603.971,-618.856 584.634,-580.487"/>
</g>
<!-- 7314 -->
<g id="node33" class="node"><title>7314</title>
<g id="a_node33"><a xlink:title="3rd_week">
<ellipse fill="#20ff05" stroke="black" cx="375.366" cy="-317.696" rx="28.6953" ry="18"/>
<text text-anchor="middle" x="375.366" y="-313.996" font-family="Times,serif" font-size="14.00">7314</text>
</a>
</g>
</g>
<!-- 14606 -->
<g id="node48" class="node"><title>14606</title>
<g id="a_node48"><a xlink:title="3rd_week">
<ellipse fill="#20ff05" stroke="black" cx="228.49" cy="-146.296" rx="32.4942" ry="18"/>
<text text-anchor="middle" x="228.49" y="-142.596" font-family="Times,serif" font-size="14.00">14606</text>
</a>
</g>
</g>
<!-- 7314&#45;&gt;14606 -->
<g id="edge48" class="edge"><title>7314&#45;&gt;14606</title>
<path fill="none" stroke="black" d="M361.548,-301.571C333.626,-268.987 270.752,-195.614 242.593,-162.754"/>
</g>
<!-- 7314&#45;&gt;15056 -->
<g id="edge18" class="edge"><title>7314&#45;&gt;15056</title>
<path fill="none" stroke="black" d="M388.518,-333.79C424.751,-378.128 525.75,-501.722 562.351,-546.511"/>
</g>
<!-- 8241&#45;&gt;15056 -->
<g id="edge47" class="edge"><title>8241&#45;&gt;15056</title>
<path fill="none" stroke="black" d="M496.645,-819.569C511.998,-769.813 554.858,-630.905 570.235,-581.07"/>
</g>
<!-- 8303&#45;&gt;15056 -->
<g id="edge30" class="edge"><title>8303&#45;&gt;15056</title>
<path fill="none" stroke="black" d="M291.272,-761.089C345.792,-723.132 499.559,-616.076 555.305,-577.265"/>
</g>
<!-- 15559 -->
<g id="node53" class="node"><title>15559</title>
<g id="a_node53"><a xlink:title="3rd_week">
<ellipse fill="#ffffff" stroke="black" cx="32.1019" cy="-846.603" rx="32.4942" ry="18"/>
<text text-anchor="middle" x="32.1019" y="-842.903" font-family="Times,serif" font-size="14.00">15559</text>
</a>
</g>
</g>
<!-- 8303&#45;&gt;15559 -->
<g id="edge54" class="edge"><title>8303&#45;&gt;15559</title>
<path fill="none" stroke="black" d="M245.685,-782.489C200.427,-796.074 107.756,-823.893 60.7732,-837.997"/>
</g>
<!-- 8448 -->
<g id="node36" class="node"><title>8448</title>
<g id="a_node36"><a xlink:title="3rd_week">
<ellipse fill="#20ff05" stroke="black" cx="510.732" cy="-749.126" rx="28.6953" ry="18"/>
<text text-anchor="middle" x="510.732" y="-745.426" font-family="Times,serif" font-size="14.00">8448</text>
</a>
</g>
</g>
<!-- 8448&#45;&gt;15056 -->
<g id="edge6" class="edge"><title>8448&#45;&gt;15056</title>
<path fill="none" stroke="black" d="M516.972,-731.278C529.412,-695.699 557.168,-616.314 569.593,-580.78"/>
</g>
<!-- 8586 -->
<g id="node37" class="node"><title>8586</title>
<g id="a_node37"><a xlink:title="3rd_week">
<ellipse fill="#20ff05" stroke="black" cx="757.08" cy="-716.969" rx="28.6953" ry="18"/>
<text text-anchor="middle" x="757.08" y="-713.269" font-family="Times,serif" font-size="14.00">8586</text>
</a>
</g>
</g>
<!-- 8586&#45;&gt;15056 -->
<g id="edge33" class="edge"><title>8586&#45;&gt;15056</title>
<path fill="none" stroke="black" d="M740.027,-702.482C705.744,-673.359 628.764,-607.966 593.756,-578.228"/>
</g>
<!-- 9101 -->
<g id="node38" class="node"><title>9101</title>
<g id="a_node38"><a xlink:title="3rd_week">
<ellipse fill="#20ff05" stroke="black" cx="603.667" cy="-731.364" rx="28.6953" ry="18"/>
<text text-anchor="middle" x="603.667" y="-727.664" font-family="Times,serif" font-size="14.00">9101</text>
</a>
</g>
</g>
<!-- 9101&#45;&gt;15056 -->
<g id="edge55" class="edge"><title>9101&#45;&gt;15056</title>
<path fill="none" stroke="black" d="M600.686,-713.345C595.34,-681.021 584.177,-613.544 578.816,-581.13"/>
</g>
<!-- 9907 -->
<g id="node39" class="node"><title>9907</title>
<g id="a_node39"><a xlink:title="3rd_week">
<ellipse fill="#20ff05" stroke="black" cx="641.723" cy="-1105.89" rx="28.6953" ry="18"/>
<text text-anchor="middle" x="641.723" y="-1102.19" font-family="Times,serif" font-size="14.00">9907</text>
</a>
</g>
</g>
<!-- 16104 -->
<g id="node55" class="node"><title>16104</title>
<g id="a_node55"><a xlink:title="3rd_week">
<ellipse fill="#20ff05" stroke="black" cx="619.574" cy="-852.573" rx="32.4942" ry="18"/>
<text text-anchor="middle" x="619.574" y="-848.873" font-family="Times,serif" font-size="14.00">16104</text>
</a>
</g>
</g>
<!-- 9907&#45;&gt;16104 -->
<g id="edge25" class="edge"><title>9907&#45;&gt;16104</title>
<path fill="none" stroke="black" d="M640.13,-1087.67C636.044,-1040.93 625.224,-917.183 621.153,-870.626"/>
</g>
<!-- 10436&#45;&gt;15056 -->
<g id="edge26" class="edge"><title>10436&#45;&gt;15056</title>
<path fill="none" stroke="black" d="M312.096,-542.887C369.026,-547.226 486.717,-556.196 543.618,-560.532"/>
</g>
<!-- 10548 -->
<g id="node41" class="node"><title>10548</title>
<g id="a_node41"><a xlink:title="3rd_week">
<ellipse fill="#20ff05" stroke="black" cx="887.906" cy="-1066.53" rx="32.4942" ry="18"/>
<text text-anchor="middle" x="887.906" y="-1062.83" font-family="Times,serif" font-size="14.00">10548</text>
</a>
</g>
</g>
<!-- 10548&#45;&gt;12723 -->
<g id="edge4" class="edge"><title>10548&#45;&gt;12723</title>
<path fill="none" stroke="black" d="M879.862,-1048.91C860.368,-1006.21 810.772,-897.57 791.25,-854.806"/>
</g>
<!-- 11131 -->
<g id="node42" class="node"><title>11131</title>
<g id="a_node42"><a xlink:title="3rd_week">
<ellipse fill="#20ff05" stroke="black" cx="564.44" cy="-312.304" rx="32.4942" ry="18"/>
<text text-anchor="middle" x="564.44" y="-308.604" font-family="Times,serif" font-size="14.00">11131</text>
</a>
</g>
</g>
<!-- 11131&#45;&gt;15056 -->
<g id="edge51" class="edge"><title>11131&#45;&gt;15056</title>
<path fill="none" stroke="black" d="M565.258,-330.333C567.352,-376.473 572.886,-498.454 574.988,-544.784"/>
</g>
<!-- 11385 -->
<g id="node43" class="node"><title>11385</title>
<g id="a_node43"><a xlink:title="3rd_week">
<ellipse fill="#20ff05" stroke="black" cx="424.521" cy="-623.188" rx="32.4942" ry="18"/>
<text text-anchor="middle" x="424.521" y="-619.488" font-family="Times,serif" font-size="14.00">11385</text>
</a>
</g>
</g>
<!-- 11385&#45;&gt;15056 -->
<g id="edge9" class="edge"><title>11385&#45;&gt;15056</title>
<path fill="none" stroke="black" d="M451.221,-612.563C478.876,-601.559 521.825,-584.469 549.381,-573.504"/>
</g>
<!-- 12723&#45;&gt;15056 -->
<g id="edge15" class="edge"><title>12723&#45;&gt;15056</title>
<path fill="none" stroke="black" d="M770.519,-820.39C733.499,-771.449 625.716,-628.957 588.571,-579.851"/>
</g>
<!-- 14108 -->
<g id="node46" class="node"><title>14108</title>
<g id="a_node46"><a xlink:title="3rd_week">
<ellipse fill="#20ff05" stroke="black" cx="821.034" cy="-665.46" rx="32.4942" ry="18"/>
<text text-anchor="middle" x="821.034" y="-661.76" font-family="Times,serif" font-size="14.00">14108</text>
</a>
</g>
</g>
<!-- 14108&#45;&gt;15056 -->
<g id="edge19" class="edge"><title>14108&#45;&gt;15056</title>
<path fill="none" stroke="black" d="M794.791,-654.493C747.593,-634.77 648.929,-593.539 601.868,-573.874"/>
</g>
<!-- 14267&#45;&gt;15056 -->
<g id="edge44" class="edge"><title>14267&#45;&gt;15056</title>
<path fill="none" stroke="black" d="M488.054,-268.908C504.56,-324.219 554.133,-490.334 570.503,-545.189"/>
</g>
<!-- 14744 -->
<g id="node49" class="node"><title>14744</title>
<g id="a_node49"><a xlink:title="3rd_week">
<ellipse fill="#20ff05" stroke="black" cx="670.837" cy="-326.76" rx="32.4942" ry="18"/>
<text text-anchor="middle" x="670.837" y="-323.06" font-family="Times,serif" font-size="14.00">14744</text>
</a>
</g>
</g>
<!-- 14744&#45;&gt;15056 -->
<g id="edge20" class="edge"><title>14744&#45;&gt;15056</title>
<path fill="none" stroke="black" d="M663.695,-344.515C646.042,-388.401 600.513,-501.584 582.91,-545.347"/>
</g>
<!-- 14834&#45;&gt;15056 -->
<g id="edge45" class="edge"><title>14834&#45;&gt;15056</title>
<path fill="none" stroke="black" d="M735.49,-300.548C705.13,-350.446 616.738,-495.725 586.276,-545.791"/>
</g>
<!-- 14901 -->
<g id="node51" class="node"><title>14901</title>
<g id="a_node51"><a xlink:title="3rd_week">
<ellipse fill="#20ff05" stroke="black" cx="348.846" cy="-607.938" rx="32.4942" ry="18"/>
<text text-anchor="middle" x="348.846" y="-604.238" font-family="Times,serif" font-size="14.00">14901</text>
</a>
</g>
</g>
<!-- 14901&#45;&gt;15056 -->
<g id="edge49" class="edge"><title>14901&#45;&gt;15056</title>
<path fill="none" stroke="black" d="M379.456,-601.876C422.775,-593.296 501.516,-577.701 544.964,-569.096"/>
</g>
<!-- 15056&#45;&gt;16104 -->
<g id="edge46" class="edge"><title>15056&#45;&gt;16104</title>
<path fill="none" stroke="black" d="M578.552,-581.101C586.41,-633.107 608.981,-782.468 616.838,-834.465"/>
</g>
<!-- 16989 -->
<g id="node57" class="node"><title>16989</title>
<g id="a_node57"><a xlink:title="3rd_week">
<ellipse fill="#20ff05" stroke="black" cx="435.818" cy="-748.375" rx="32.4942" ry="18"/>
<text text-anchor="middle" x="435.818" y="-744.675" font-family="Times,serif" font-size="14.00">16989</text>
</a>
</g>
</g>
<!-- 15056&#45;&gt;16989 -->
<g id="edge56" class="edge"><title>15056&#45;&gt;16989</title>
<path fill="none" stroke="black" d="M563.144,-579.765C536.49,-615.061 474.899,-696.622 448.359,-731.767"/>
</g>
<!-- 17804 -->
<g id="node58" class="node"><title>17804</title>
<g id="a_node58"><a xlink:title="3rd_week">
<ellipse fill="#20ff05" stroke="black" cx="399.142" cy="-407.056" rx="32.4942" ry="18"/>
<text text-anchor="middle" x="399.142" y="-403.356" font-family="Times,serif" font-size="14.00">17804</text>
</a>
</g>
</g>
<!-- 15056&#45;&gt;17804 -->
<g id="edge13" class="edge"><title>15056&#45;&gt;17804</title>
<path fill="none" stroke="black" d="M558.228,-547.465C524.364,-517.576 450.465,-452.354 416.657,-422.515"/>
</g>
</g>
</svg>
