<?xml version="1.0" encoding="UTF-8" standalone="no"?>
<!DOCTYPE svg PUBLIC "-//W3C//DTD SVG 1.1//EN"
 "http://www.w3.org/Graphics/SVG/1.1/DTD/svg11.dtd">
<!-- Generated by graphviz version 2.38.0 (20140413.2041)
 -->
<!-- Title: %3 Pages: 1 -->
<svg width="2389pt" height="871pt"
 viewBox="0.00 0.00 2389.00 871.00" xmlns="http://www.w3.org/2000/svg" xmlns:xlink="http://www.w3.org/1999/xlink">
<g id="graph0" class="graph" transform="scale(1 1) rotate(0) translate(4 867)">
<title>%3</title>
<polygon fill="white" stroke="none" points="-4,4 -4,-867 2385,-867 2385,4 -4,4"/>
<!-- 2 -->
<g id="node1" class="node"><title>2</title>
<g id="a_node1"><a xlink:title="3rd_week">
<ellipse fill="#20ff05" stroke="black" cx="428.493" cy="-562.824" rx="27" ry="18"/>
<text text-anchor="middle" x="428.493" y="-559.124" font-family="Times,serif" font-size="14.00">2</text>
</a>
</g>
</g>
<!-- 13109 -->
<g id="node24" class="node"><title>13109</title>
<g id="a_node24"><a xlink:title="3rd_week">
<ellipse fill="grey" stroke="black" cx="288.761" cy="-686.172" rx="32.4942" ry="18"/>
<text text-anchor="middle" x="288.761" y="-682.472" font-family="Times,serif" font-size="14.00">13109</text>
</a>
</g>
</g>
<!-- 2&#45;&gt;13109 -->
<g id="edge60" class="edge"><title>2&#45;&gt;13109</title>
<path fill="none" stroke="black" d="M412.19,-577.215C385.697,-600.602 333.524,-646.658 306.272,-670.714"/>
</g>
<!-- 28759 -->
<g id="node48" class="node"><title>28759</title>
<g id="a_node48"><a xlink:title="3rd_week">
<ellipse fill="#20ff05" stroke="black" cx="607.775" cy="-428.415" rx="32.4942" ry="18"/>
<text text-anchor="middle" x="607.775" y="-424.715" font-family="Times,serif" font-size="14.00">28759</text>
</a>
</g>
</g>
<!-- 2&#45;&gt;28759 -->
<g id="edge5" class="edge"><title>2&#45;&gt;28759</title>
<path fill="none" stroke="black" d="M446.67,-549.197C480.587,-523.769 553.237,-469.303 588.193,-443.096"/>
</g>
<!-- 709 -->
<g id="node2" class="node"><title>709</title>
<g id="a_node2"><a xlink:title="6th_week">
<ellipse fill="grey" stroke="black" cx="2056.26" cy="-511.95" rx="27" ry="18"/>
<text text-anchor="middle" x="2056.26" y="-508.25" font-family="Times,serif" font-size="14.00">709</text>
</a>
</g>
</g>
<!-- 30812 -->
<g id="node52" class="node"><title>30812</title>
<g id="a_node52"><a xlink:title="6th_week">
<ellipse fill="#20ff05" stroke="black" cx="1887.39" cy="-429.392" rx="32.4942" ry="18"/>
<text text-anchor="middle" x="1887.39" y="-425.692" font-family="Times,serif" font-size="14.00">30812</text>
</a>
</g>
</g>
<!-- 709&#45;&gt;30812 -->
<g id="edge11" class="edge"><title>709&#45;&gt;30812</title>
<path fill="none" stroke="black" d="M2034.18,-501.157C2002.62,-485.728 1944.8,-457.461 1911.94,-441.392"/>
</g>
<!-- 3223 -->
<g id="node3" class="node"><title>3223</title>
<g id="a_node3"><a xlink:title="6th_week">
<ellipse fill="#20ff05" stroke="black" cx="1313.41" cy="-453.649" rx="28.6953" ry="18"/>
<text text-anchor="middle" x="1313.41" y="-449.949" font-family="Times,serif" font-size="14.00">3223</text>
</a>
</g>
</g>
<!-- 5877 -->
<g id="node11" class="node"><title>5877</title>
<g id="a_node11"><a xlink:title="3rd_week">
<ellipse fill="#20ff05" stroke="black" cx="1451.78" cy="-430.829" rx="28.6953" ry="18"/>
<text text-anchor="middle" x="1451.78" y="-427.129" font-family="Times,serif" font-size="14.00">5877</text>
</a>
</g>
</g>
<!-- 3223&#45;&gt;5877 -->
<g id="edge35" class="edge"><title>3223&#45;&gt;5877</title>
<path fill="none" stroke="black" d="M1341.08,-449.086C1365.05,-445.132 1399.58,-439.437 1423.68,-435.462"/>
</g>
<!-- 3305 -->
<g id="node4" class="node"><title>3305</title>
<g id="a_node4"><a xlink:title="3rd_week">
<ellipse fill="#20ff05" stroke="black" cx="1385.98" cy="-573.059" rx="28.6953" ry="18"/>
<text text-anchor="middle" x="1385.98" y="-569.359" font-family="Times,serif" font-size="14.00">3305</text>
</a>
</g>
</g>
<!-- 3305&#45;&gt;5877 -->
<g id="edge26" class="edge"><title>3305&#45;&gt;5877</title>
<path fill="none" stroke="black" d="M1394.04,-555.619C1406.67,-528.321 1430.97,-475.797 1443.64,-448.412"/>
</g>
<!-- 4037 -->
<g id="node5" class="node"><title>4037</title>
<g id="a_node5"><a xlink:title="6th_week">
<ellipse fill="#20ff05" stroke="black" cx="1765.49" cy="-544.551" rx="28.6953" ry="18"/>
<text text-anchor="middle" x="1765.49" y="-540.851" font-family="Times,serif" font-size="14.00">4037</text>
</a>
</g>
</g>
<!-- 4037&#45;&gt;30812 -->
<g id="edge54" class="edge"><title>4037&#45;&gt;30812</title>
<path fill="none" stroke="black" d="M1781.42,-529.496C1804.53,-507.67 1847.13,-467.424 1870.67,-445.189"/>
</g>
<!-- 4205 -->
<g id="node6" class="node"><title>4205</title>
<g id="a_node6"><a xlink:title="6th_week">
<ellipse fill="#20ff05" stroke="black" cx="1992.37" cy="-548.477" rx="28.6953" ry="18"/>
<text text-anchor="middle" x="1992.37" y="-544.777" font-family="Times,serif" font-size="14.00">4205</text>
</a>
</g>
</g>
<!-- 4205&#45;&gt;30812 -->
<g id="edge39" class="edge"><title>4205&#45;&gt;30812</title>
<path fill="none" stroke="black" d="M1978.21,-532.417C1958.17,-509.689 1921.75,-468.375 1901.66,-445.578"/>
</g>
<!-- 5190 -->
<g id="node7" class="node"><title>5190</title>
<g id="a_node7"><a xlink:title="6th_week">
<ellipse fill="#20ff05" stroke="black" cx="2149.85" cy="-483.778" rx="28.6953" ry="18"/>
<text text-anchor="middle" x="2149.85" y="-480.078" font-family="Times,serif" font-size="14.00">5190</text>
</a>
</g>
</g>
<!-- 5190&#45;&gt;30812 -->
<g id="edge44" class="edge"><title>5190&#45;&gt;30812</title>
<path fill="none" stroke="black" d="M2122.26,-478.06C2072.91,-467.833 1969.85,-446.479 1918.24,-435.784"/>
</g>
<!-- 24973 -->
<g id="node61" class="node"><title>24973</title>
<g id="a_node61"><a xlink:title="6th_week">
<ellipse fill="#efff05" stroke="black" cx="2348.67" cy="-519.936" rx="32.4942" ry="18"/>
<text text-anchor="middle" x="2348.67" y="-516.236" font-family="Times,serif" font-size="14.00">24973</text>
</a>
</g>
</g>
<!-- 5190&#45;&gt;24973 -->
<g id="edge28" class="edge"><title>5190&#45;&gt;24973</title>
<path fill="none" stroke="black" d="M2177.5,-488.805C2214.31,-495.5 2279.23,-507.307 2317.66,-514.298"/>
</g>
<!-- 5284 -->
<g id="node8" class="node"><title>5284</title>
<g id="a_node8"><a xlink:title="6th_week">
<ellipse fill="grey" stroke="black" cx="1869.84" cy="-278.746" rx="28.6953" ry="18"/>
<text text-anchor="middle" x="1869.84" y="-275.046" font-family="Times,serif" font-size="14.00">5284</text>
</a>
</g>
</g>
<!-- 5284&#45;&gt;30812 -->
<g id="edge20" class="edge"><title>5284&#45;&gt;30812</title>
<path fill="none" stroke="black" d="M1871.95,-296.918C1875.33,-325.872 1881.89,-382.161 1885.26,-411.156"/>
</g>
<!-- 5289 -->
<g id="node9" class="node"><title>5289</title>
<g id="a_node9"><a xlink:title="6th_week">
<ellipse fill="#20ff05" stroke="black" cx="1943.43" cy="-639.271" rx="28.6953" ry="18"/>
<text text-anchor="middle" x="1943.43" y="-635.571" font-family="Times,serif" font-size="14.00">5289</text>
</a>
</g>
</g>
<!-- 5289&#45;&gt;30812 -->
<g id="edge53" class="edge"><title>5289&#45;&gt;30812</title>
<path fill="none" stroke="black" d="M1938.65,-621.377C1928.07,-581.725 1902.73,-486.851 1892.15,-447.241"/>
</g>
<!-- 5666 -->
<g id="node10" class="node"><title>5666</title>
<g id="a_node10"><a xlink:title="6th_week">
<ellipse fill="#20ff05" stroke="black" cx="115.662" cy="-471.232" rx="28.6953" ry="18"/>
<text text-anchor="middle" x="115.662" y="-467.532" font-family="Times,serif" font-size="14.00">5666</text>
</a>
</g>
</g>
<!-- 31052 -->
<g id="node53" class="node"><title>31052</title>
<g id="a_node53"><a xlink:title="6th_week">
<ellipse fill="#20ff05" stroke="black" cx="240.627" cy="-336.665" rx="32.4942" ry="18"/>
<text text-anchor="middle" x="240.627" y="-332.965" font-family="Times,serif" font-size="14.00">31052</text>
</a>
</g>
</g>
<!-- 5666&#45;&gt;31052 -->
<g id="edge10" class="edge"><title>5666&#45;&gt;31052</title>
<path fill="none" stroke="black" d="M130.242,-455.532C154.192,-429.741 201.612,-378.678 225.753,-352.682"/>
</g>
<!-- 24636 -->
<g id="node41" class="node"><title>24636</title>
<g id="a_node41"><a xlink:title="3rd_week">
<ellipse fill="grey" stroke="black" cx="1033.31" cy="-429.468" rx="32.4942" ry="18"/>
<text text-anchor="middle" x="1033.31" y="-425.768" font-family="Times,serif" font-size="14.00">24636</text>
</a>
</g>
</g>
<!-- 5877&#45;&gt;24636 -->
<g id="edge43" class="edge"><title>5877&#45;&gt;24636</title>
<path fill="none" stroke="black" d="M1423.02,-430.735C1347.77,-430.491 1145.44,-429.833 1065.98,-429.574"/>
</g>
<!-- 5877&#45;&gt;30812 -->
<g id="edge16" class="edge"><title>5877&#45;&gt;30812</title>
<path fill="none" stroke="black" d="M1480.7,-430.733C1558.61,-430.476 1772.53,-429.771 1854.67,-429.5"/>
</g>
<!-- 10284 -->
<g id="node62" class="node"><title>10284</title>
<g id="a_node62"><a xlink:title="3rd_week">
<ellipse fill="grey" stroke="black" cx="1375.82" cy="-291.069" rx="32.4942" ry="18"/>
<text text-anchor="middle" x="1375.82" y="-287.369" font-family="Times,serif" font-size="14.00">10284</text>
</a>
</g>
</g>
<!-- 5877&#45;&gt;10284 -->
<g id="edge6" class="edge"><title>5877&#45;&gt;10284</title>
<path fill="none" stroke="black" d="M1442.46,-413.692C1427.89,-386.868 1399.84,-335.256 1385.21,-308.347"/>
</g>
<!-- 6252 -->
<g id="node12" class="node"><title>6252</title>
<g id="a_node12"><a xlink:title="3rd_week">
<ellipse fill="#20ff05" stroke="black" cx="502.362" cy="-630.963" rx="28.6953" ry="18"/>
<text text-anchor="middle" x="502.362" y="-627.263" font-family="Times,serif" font-size="14.00">6252</text>
</a>
</g>
</g>
<!-- 27074 -->
<g id="node45" class="node"><title>27074</title>
<g id="a_node45"><a xlink:title="3rd_week">
<ellipse fill="#20ff05" stroke="black" cx="411.692" cy="-796.774" rx="32.4942" ry="18"/>
<text text-anchor="middle" x="411.692" y="-793.074" font-family="Times,serif" font-size="14.00">27074</text>
</a>
</g>
</g>
<!-- 6252&#45;&gt;27074 -->
<g id="edge48" class="edge"><title>6252&#45;&gt;27074</title>
<path fill="none" stroke="black" d="M493,-648.083C475.626,-679.857 438.577,-747.609 421.139,-779.499"/>
</g>
<!-- 6252&#45;&gt;28759 -->
<g id="edge45" class="edge"><title>6252&#45;&gt;28759</title>
<path fill="none" stroke="black" d="M511.35,-613.694C531.215,-575.523 578.678,-484.324 598.66,-445.928"/>
</g>
<!-- 7244 -->
<g id="node13" class="node"><title>7244</title>
<g id="a_node13"><a xlink:title="3rd_week">
<ellipse fill="#20ff05" stroke="black" cx="723.619" cy="-538.064" rx="28.6953" ry="18"/>
<text text-anchor="middle" x="723.619" y="-534.364" font-family="Times,serif" font-size="14.00">7244</text>
</a>
</g>
</g>
<!-- 7244&#45;&gt;28759 -->
<g id="edge21" class="edge"><title>7244&#45;&gt;28759</title>
<path fill="none" stroke="black" d="M707.511,-522.818C685.628,-502.105 646.693,-465.252 624.496,-444.242"/>
</g>
<!-- 7434 -->
<g id="node14" class="node"><title>7434</title>
<g id="a_node14"><a xlink:title="6th_week">
<ellipse fill="#20ff05" stroke="black" cx="1730.15" cy="-484.426" rx="28.6953" ry="18"/>
<text text-anchor="middle" x="1730.15" y="-480.726" font-family="Times,serif" font-size="14.00">7434</text>
</a>
</g>
</g>
<!-- 7434&#45;&gt;30812 -->
<g id="edge9" class="edge"><title>7434&#45;&gt;30812</title>
<path fill="none" stroke="black" d="M1755.41,-475.584C1783.97,-465.587 1830.32,-449.365 1859.81,-439.045"/>
</g>
<!-- 7713 -->
<g id="node15" class="node"><title>7713</title>
<g id="a_node15"><a xlink:title="6th_week">
<ellipse fill="grey" stroke="black" cx="195.294" cy="-152.551" rx="28.6953" ry="18"/>
<text text-anchor="middle" x="195.294" y="-148.851" font-family="Times,serif" font-size="14.00">7713</text>
</a>
</g>
</g>
<!-- 7713&#45;&gt;31052 -->
<g id="edge42" class="edge"><title>7713&#45;&gt;31052</title>
<path fill="none" stroke="black" d="M199.724,-170.54C208.39,-205.738 227.499,-283.346 236.18,-318.603"/>
</g>
<!-- 8011 -->
<g id="node16" class="node"><title>8011</title>
<g id="a_node16"><a xlink:title="6th_week">
<ellipse fill="grey" stroke="black" cx="1892.67" cy="-220.789" rx="28.6953" ry="18"/>
<text text-anchor="middle" x="1892.67" y="-217.089" font-family="Times,serif" font-size="14.00">8011</text>
</a>
</g>
</g>
<!-- 8011&#45;&gt;30812 -->
<g id="edge32" class="edge"><title>8011&#45;&gt;30812</title>
<path fill="none" stroke="black" d="M1892.21,-238.936C1891.21,-278.388 1888.85,-371.59 1887.85,-411.138"/>
</g>
<!-- 8832 -->
<g id="node17" class="node"><title>8832</title>
<g id="a_node17"><a xlink:title="6th_week">
<ellipse fill="#20ff05" stroke="black" cx="69.8538" cy="-425.679" rx="28.6953" ry="18"/>
<text text-anchor="middle" x="69.8538" y="-421.979" font-family="Times,serif" font-size="14.00">8832</text>
</a>
</g>
</g>
<!-- 8832&#45;&gt;31052 -->
<g id="edge34" class="edge"><title>8832&#45;&gt;31052</title>
<path fill="none" stroke="black" d="M92.1794,-414.042C124.456,-397.218 183.894,-366.237 216.924,-349.02"/>
</g>
<!-- 9715 -->
<g id="node18" class="node"><title>9715</title>
<g id="a_node18"><a xlink:title="6th_week">
<ellipse fill="grey" stroke="black" cx="65.1769" cy="-248.665" rx="28.6953" ry="18"/>
<text text-anchor="middle" x="65.1769" y="-244.965" font-family="Times,serif" font-size="14.00">9715</text>
</a>
</g>
</g>
<!-- 9715&#45;&gt;31052 -->
<g id="edge24" class="edge"><title>9715&#45;&gt;31052</title>
<path fill="none" stroke="black" d="M87.7548,-259.989C120.888,-276.608 182.427,-307.474 216.449,-324.538"/>
</g>
<!-- 10641 -->
<g id="node19" class="node"><title>10641</title>
<g id="a_node19"><a xlink:title="3rd_week">
<ellipse fill="#20ff05" stroke="black" cx="677.645" cy="-267.643" rx="32.4942" ry="18"/>
<text text-anchor="middle" x="677.645" y="-263.943" font-family="Times,serif" font-size="14.00">10641</text>
</a>
</g>
</g>
<!-- 10641&#45;&gt;28759 -->
<g id="edge8" class="edge"><title>10641&#45;&gt;28759</title>
<path fill="none" stroke="black" d="M670.035,-285.154C656.665,-315.917 629.101,-379.343 615.589,-410.434"/>
</g>
<!-- 11006 -->
<g id="node20" class="node"><title>11006</title>
<g id="a_node20"><a xlink:title="6th_week">
<ellipse fill="#20ff05" stroke="black" cx="1962.08" cy="-215.689" rx="32.4942" ry="18"/>
<text text-anchor="middle" x="1962.08" y="-211.989" font-family="Times,serif" font-size="14.00">11006</text>
</a>
</g>
</g>
<!-- 11006&#45;&gt;30812 -->
<g id="edge40" class="edge"><title>11006&#45;&gt;30812</title>
<path fill="none" stroke="black" d="M1955.84,-233.541C1941.78,-273.768 1907.76,-371.119 1893.66,-411.44"/>
</g>
<!-- 11702 -->
<g id="node21" class="node"><title>11702</title>
<g id="a_node21"><a xlink:title="6th_week">
<ellipse fill="#20ff05" stroke="black" cx="36.2965" cy="-372.236" rx="32.4942" ry="18"/>
<text text-anchor="middle" x="36.2965" y="-368.536" font-family="Times,serif" font-size="14.00">11702</text>
</a>
</g>
</g>
<!-- 11702&#45;&gt;31052 -->
<g id="edge17" class="edge"><title>11702&#45;&gt;31052</title>
<path fill="none" stroke="black" d="M67.3299,-366.833C105.735,-360.148 170.762,-348.827 209.302,-342.118"/>
</g>
<!-- 12109 -->
<g id="node22" class="node"><title>12109</title>
<g id="a_node22"><a xlink:title="3rd_week">
<ellipse fill="#20ff05" stroke="black" cx="523.31" cy="-549.118" rx="32.4942" ry="18"/>
<text text-anchor="middle" x="523.31" y="-545.418" font-family="Times,serif" font-size="14.00">12109</text>
</a>
</g>
</g>
<!-- 12109&#45;&gt;28759 -->
<g id="edge55" class="edge"><title>12109&#45;&gt;28759</title>
<path fill="none" stroke="black" d="M535.233,-532.081C551.33,-509.076 579.846,-468.326 595.913,-445.366"/>
</g>
<!-- 13046 -->
<g id="node23" class="node"><title>13046</title>
<g id="a_node23"><a xlink:title="6th_week">
<ellipse fill="#20ff05" stroke="black" cx="1779.23" cy="-603.966" rx="32.4942" ry="18"/>
<text text-anchor="middle" x="1779.23" y="-600.266" font-family="Times,serif" font-size="14.00">13046</text>
</a>
</g>
</g>
<!-- 13046&#45;&gt;30812 -->
<g id="edge61" class="edge"><title>13046&#45;&gt;30812</title>
<path fill="none" stroke="black" d="M1789.8,-586.909C1810.47,-553.535 1856.07,-479.948 1876.78,-446.518"/>
</g>
<!-- 13431 -->
<g id="node25" class="node"><title>13431</title>
<g id="a_node25"><a xlink:title="3rd_week">
<ellipse fill="#20ff05" stroke="black" cx="504.281" cy="-292.929" rx="32.4942" ry="18"/>
<text text-anchor="middle" x="504.281" y="-289.229" font-family="Times,serif" font-size="14.00">13431</text>
</a>
</g>
</g>
<!-- 13431&#45;&gt;28759 -->
<g id="edge33" class="edge"><title>13431&#45;&gt;28759</title>
<path fill="none" stroke="black" d="M516.971,-309.543C536.834,-335.546 575.053,-385.579 594.98,-411.666"/>
</g>
<!-- 14442 -->
<g id="node26" class="node"><title>14442</title>
<g id="a_node26"><a xlink:title="6th_week">
<ellipse fill="#efff05" stroke="black" cx="2100.98" cy="-413.22" rx="32.4942" ry="18"/>
<text text-anchor="middle" x="2100.98" y="-409.52" font-family="Times,serif" font-size="14.00">14442</text>
</a>
</g>
</g>
<!-- 14442&#45;&gt;30812 -->
<g id="edge47" class="edge"><title>14442&#45;&gt;30812</title>
<path fill="none" stroke="black" d="M2068.54,-415.677C2028.27,-418.725 1960.02,-423.892 1919.78,-426.939"/>
</g>
<!-- 15060 -->
<g id="node27" class="node"><title>15060</title>
<g id="a_node27"><a xlink:title="3rd_week">
<ellipse fill="grey" stroke="black" cx="597.588" cy="-656.871" rx="32.4942" ry="18"/>
<text text-anchor="middle" x="597.588" y="-653.171" font-family="Times,serif" font-size="14.00">15060</text>
</a>
</g>
</g>
<!-- 20543 -->
<g id="node34" class="node"><title>20543</title>
<g id="a_node34"><a xlink:title="3rd_week">
<ellipse fill="#efff05" stroke="black" cx="577.247" cy="-844.823" rx="32.4942" ry="18"/>
<text text-anchor="middle" x="577.247" y="-841.123" font-family="Times,serif" font-size="14.00">20543</text>
</a>
</g>
</g>
<!-- 15060&#45;&gt;20543 -->
<g id="edge27" class="edge"><title>15060&#45;&gt;20543</title>
<path fill="none" stroke="black" d="M595.638,-674.893C591.76,-710.726 583.119,-790.566 579.222,-826.58"/>
</g>
<!-- 15060&#45;&gt;28759 -->
<g id="edge30" class="edge"><title>15060&#45;&gt;28759</title>
<path fill="none" stroke="black" d="M598.404,-638.562C600.316,-595.68 605.067,-489.149 606.968,-446.495"/>
</g>
<!-- 15332 -->
<g id="node28" class="node"><title>15332</title>
<g id="a_node28"><a xlink:title="6th_week">
<ellipse fill="#20ff05" stroke="black" cx="2012.9" cy="-611.897" rx="32.4942" ry="18"/>
<text text-anchor="middle" x="2012.9" y="-608.197" font-family="Times,serif" font-size="14.00">15332</text>
</a>
</g>
</g>
<!-- 15332&#45;&gt;30812 -->
<g id="edge38" class="edge"><title>15332&#45;&gt;30812</title>
<path fill="none" stroke="black" d="M2001.32,-595.054C1977.47,-560.374 1923.11,-481.329 1899.13,-446.459"/>
</g>
<!-- 16879 -->
<g id="node29" class="node"><title>16879</title>
<g id="a_node29"><a xlink:title="6th_week">
<ellipse fill="grey" stroke="black" cx="2080.59" cy="-465.318" rx="32.4942" ry="18"/>
<text text-anchor="middle" x="2080.59" y="-461.618" font-family="Times,serif" font-size="14.00">16879</text>
</a>
</g>
</g>
<!-- 16879&#45;&gt;30812 -->
<g id="edge1" class="edge"><title>16879&#45;&gt;30812</title>
<path fill="none" stroke="black" d="M2049.55,-459.546C2013.5,-452.842 1954.37,-441.848 1918.35,-435.15"/>
</g>
<!-- 18483 -->
<g id="node30" class="node"><title>18483</title>
<g id="a_node30"><a xlink:title="3rd_week">
<ellipse fill="#20ff05" stroke="black" cx="444.624" cy="-453.154" rx="32.4942" ry="18"/>
<text text-anchor="middle" x="444.624" y="-449.454" font-family="Times,serif" font-size="14.00">18483</text>
</a>
</g>
</g>
<!-- 18483&#45;&gt;28759 -->
<g id="edge37" class="edge"><title>18483&#45;&gt;28759</title>
<path fill="none" stroke="black" d="M476.081,-448.384C504.971,-444.004 547.554,-437.547 576.414,-433.171"/>
</g>
<!-- 18827 -->
<g id="node31" class="node"><title>18827</title>
<g id="a_node31"><a xlink:title="6th_week">
<ellipse fill="#20ff05" stroke="black" cx="2000.84" cy="-307.323" rx="32.4942" ry="18"/>
<text text-anchor="middle" x="2000.84" y="-303.623" font-family="Times,serif" font-size="14.00">18827</text>
</a>
</g>
</g>
<!-- 18827&#45;&gt;30812 -->
<g id="edge58" class="edge"><title>18827&#45;&gt;30812</title>
<path fill="none" stroke="black" d="M1985.78,-323.533C1964.08,-346.88 1924.25,-389.73 1902.52,-413.115"/>
</g>
<!-- 19086 -->
<g id="node32" class="node"><title>19086</title>
<g id="a_node32"><a xlink:title="6th_week">
<ellipse fill="#20ff05" stroke="black" cx="2062.88" cy="-567.761" rx="32.4942" ry="18"/>
<text text-anchor="middle" x="2062.88" y="-564.061" font-family="Times,serif" font-size="14.00">19086</text>
</a>
</g>
</g>
<!-- 19086&#45;&gt;30812 -->
<g id="edge31" class="edge"><title>19086&#45;&gt;30812</title>
<path fill="none" stroke="black" d="M2044.1,-552.953C2010.41,-526.391 1940.08,-470.939 1906.3,-444.302"/>
</g>
<!-- 20451 -->
<g id="node33" class="node"><title>20451</title>
<g id="a_node33"><a xlink:title="6th_week">
<ellipse fill="#20ff05" stroke="black" cx="2073.92" cy="-310.321" rx="32.4942" ry="18"/>
<text text-anchor="middle" x="2073.92" y="-306.621" font-family="Times,serif" font-size="14.00">20451</text>
</a>
</g>
</g>
<!-- 20451&#45;&gt;30812 -->
<g id="edge57" class="edge"><title>20451&#45;&gt;30812</title>
<path fill="none" stroke="black" d="M2052.52,-323.979C2016.64,-346.887 1944.73,-392.786 1908.82,-415.709"/>
</g>
<!-- 20712 -->
<g id="node35" class="node"><title>20712</title>
<g id="a_node35"><a xlink:title="6th_week">
<ellipse fill="#20ff05" stroke="black" cx="1777.08" cy="-276.557" rx="32.4942" ry="18"/>
<text text-anchor="middle" x="1777.08" y="-272.857" font-family="Times,serif" font-size="14.00">20712</text>
</a>
</g>
</g>
<!-- 20712&#45;&gt;30812 -->
<g id="edge29" class="edge"><title>20712&#45;&gt;30812</title>
<path fill="none" stroke="black" d="M1789.31,-293.497C1810.51,-322.875 1853.87,-382.945 1875.11,-412.376"/>
</g>
<!-- 20793 -->
<g id="node36" class="node"><title>20793</title>
<g id="a_node36"><a xlink:title="6th_week">
<ellipse fill="#20ff05" stroke="black" cx="92.1012" cy="-192.789" rx="32.4942" ry="18"/>
<text text-anchor="middle" x="92.1012" y="-189.089" font-family="Times,serif" font-size="14.00">20793</text>
</a>
</g>
</g>
<!-- 20793&#45;&gt;31052 -->
<g id="edge46" class="edge"><title>20793&#45;&gt;31052</title>
<path fill="none" stroke="black" d="M108.279,-208.46C136.849,-236.136 195.913,-293.351 224.47,-321.013"/>
</g>
<!-- 23288 -->
<g id="node37" class="node"><title>23288</title>
<g id="a_node37"><a xlink:title="6th_week">
<ellipse fill="#20ff05" stroke="black" cx="1852.29" cy="-594.58" rx="32.4942" ry="18"/>
<text text-anchor="middle" x="1852.29" y="-590.88" font-family="Times,serif" font-size="14.00">23288</text>
</a>
</g>
</g>
<!-- 23288&#45;&gt;30812 -->
<g id="edge59" class="edge"><title>23288&#45;&gt;30812</title>
<path fill="none" stroke="black" d="M1856.11,-576.587C1862.86,-544.812 1876.82,-479.122 1883.57,-447.362"/>
</g>
<!-- 23363 -->
<g id="node38" class="node"><title>23363</title>
<g id="a_node38"><a xlink:title="6th_week">
<ellipse fill="#20ff05" stroke="black" cx="106.467" cy="-328.204" rx="32.4942" ry="18"/>
<text text-anchor="middle" x="106.467" y="-324.504" font-family="Times,serif" font-size="14.00">23363</text>
</a>
</g>
</g>
<!-- 23363&#45;&gt;31052 -->
<g id="edge49" class="edge"><title>23363&#45;&gt;31052</title>
<path fill="none" stroke="black" d="M138.944,-330.252C159.882,-331.572 187.014,-333.284 207.985,-334.606"/>
</g>
<!-- 23675 -->
<g id="node39" class="node"><title>23675</title>
<g id="a_node39"><a xlink:title="6th_week">
<ellipse fill="#20ff05" stroke="black" cx="2023.93" cy="-384.197" rx="32.4942" ry="18"/>
<text text-anchor="middle" x="2023.93" y="-380.497" font-family="Times,serif" font-size="14.00">23675</text>
</a>
</g>
</g>
<!-- 23675&#45;&gt;30812 -->
<g id="edge51" class="edge"><title>23675&#45;&gt;30812</title>
<path fill="none" stroke="black" d="M1995.97,-393.452C1972.41,-401.251 1938.86,-412.353 1915.31,-420.149"/>
</g>
<!-- 24473 -->
<g id="node40" class="node"><title>24473</title>
<g id="a_node40"><a xlink:title="6th_week">
<ellipse fill="#20ff05" stroke="black" cx="2097.26" cy="-359.687" rx="32.4942" ry="18"/>
<text text-anchor="middle" x="2097.26" y="-355.987" font-family="Times,serif" font-size="14.00">24473</text>
</a>
</g>
</g>
<!-- 24473&#45;&gt;30812 -->
<g id="edge3" class="edge"><title>24473&#45;&gt;30812</title>
<path fill="none" stroke="black" d="M2068.96,-369.088C2028.79,-382.428 1955.68,-406.709 1915.58,-420.029"/>
</g>
<!-- 24636&#45;&gt;28759 -->
<g id="edge12" class="edge"><title>24636&#45;&gt;28759</title>
<path fill="none" stroke="black" d="M1000.63,-429.387C921.32,-429.191 719.4,-428.691 640.279,-428.496"/>
</g>
<!-- 25570 -->
<g id="node42" class="node"><title>25570</title>
<g id="a_node42"><a xlink:title="3rd_week">
<ellipse fill="#20ff05" stroke="black" cx="515.735" cy="-17.9653" rx="32.4942" ry="18"/>
<text text-anchor="middle" x="515.735" y="-14.2653" font-family="Times,serif" font-size="14.00">25570</text>
</a>
</g>
</g>
<!-- 26225 -->
<g id="node44" class="node"><title>26225</title>
<g id="a_node44"><a xlink:title="3rd_week">
<ellipse fill="#20ff05" stroke="black" cx="556.217" cy="-201.271" rx="32.4942" ry="18"/>
<text text-anchor="middle" x="556.217" y="-197.571" font-family="Times,serif" font-size="14.00">26225</text>
</a>
</g>
</g>
<!-- 25570&#45;&gt;26225 -->
<g id="edge14" class="edge"><title>25570&#45;&gt;26225</title>
<path fill="none" stroke="black" d="M519.691,-35.8752C527.43,-70.919 544.494,-148.186 552.246,-183.289"/>
</g>
<!-- 25724 -->
<g id="node43" class="node"><title>25724</title>
<g id="a_node43"><a xlink:title="6th_week">
<ellipse fill="#ffffff" stroke="black" cx="1740.61" cy="-330.823" rx="32.4942" ry="18"/>
<text text-anchor="middle" x="1740.61" y="-327.123" font-family="Times,serif" font-size="14.00">25724</text>
</a>
</g>
</g>
<!-- 25724&#45;&gt;30812 -->
<g id="edge52" class="edge"><title>25724&#45;&gt;30812</title>
<path fill="none" stroke="black" d="M1761.33,-344.736C1789.15,-363.416 1838.3,-396.424 1866.3,-415.23"/>
</g>
<!-- 26225&#45;&gt;28759 -->
<g id="edge50" class="edge"><title>26225&#45;&gt;28759</title>
<path fill="none" stroke="black" d="M560.349,-219.475C570.027,-262.111 594.069,-368.031 603.695,-410.44"/>
</g>
<!-- 28025 -->
<g id="node46" class="node"><title>28025</title>
<g id="a_node46"><a xlink:title="6th_week">
<ellipse fill="#20ff05" stroke="black" cx="1720.4" cy="-404.228" rx="32.4942" ry="18"/>
<text text-anchor="middle" x="1720.4" y="-400.528" font-family="Times,serif" font-size="14.00">28025</text>
</a>
</g>
</g>
<!-- 28025&#45;&gt;30812 -->
<g id="edge22" class="edge"><title>28025&#45;&gt;30812</title>
<path fill="none" stroke="black" d="M1751.81,-408.961C1781.57,-413.446 1826.03,-420.145 1855.84,-424.637"/>
</g>
<!-- 28080 -->
<g id="node47" class="node"><title>28080</title>
<g id="a_node47"><a xlink:title="6th_week">
<ellipse fill="#20ff05" stroke="black" cx="1823.45" cy="-232.545" rx="32.4942" ry="18"/>
<text text-anchor="middle" x="1823.45" y="-228.845" font-family="Times,serif" font-size="14.00">28080</text>
</a>
</g>
</g>
<!-- 28080&#45;&gt;30812 -->
<g id="edge13" class="edge"><title>28080&#45;&gt;30812</title>
<path fill="none" stroke="black" d="M1829.24,-250.361C1841.38,-287.744 1869.4,-374.003 1881.57,-411.474"/>
</g>
<!-- 29645 -->
<g id="node49" class="node"><title>29645</title>
<g id="a_node49"><a xlink:title="3rd_week">
<ellipse fill="#20ff05" stroke="black" cx="455.603" cy="-361.607" rx="32.4942" ry="18"/>
<text text-anchor="middle" x="455.603" y="-357.907" font-family="Times,serif" font-size="14.00">29645</text>
</a>
</g>
</g>
<!-- 28759&#45;&gt;29645 -->
<g id="edge62" class="edge"><title>28759&#45;&gt;29645</title>
<path fill="none" stroke="black" d="M582.305,-417.233C554.214,-404.901 509.279,-385.173 481.156,-372.826"/>
</g>
<!-- 28759&#45;&gt;31052 -->
<g id="edge36" class="edge"><title>28759&#45;&gt;31052</title>
<path fill="none" stroke="black" d="M578.04,-420.985C509.158,-403.771 339.286,-361.32 270.382,-344.101"/>
</g>
<!-- 32332 -->
<g id="node55" class="node"><title>32332</title>
<g id="a_node55"><a xlink:title="3rd_week">
<ellipse fill="#ffffff" stroke="black" cx="761.283" cy="-438.165" rx="32.4942" ry="18"/>
<text text-anchor="middle" x="761.283" y="-434.465" font-family="Times,serif" font-size="14.00">32332</text>
</a>
</g>
</g>
<!-- 28759&#45;&gt;32332 -->
<g id="edge56" class="edge"><title>28759&#45;&gt;32332</title>
<path fill="none" stroke="black" d="M640.33,-430.483C666.381,-432.138 702.736,-434.447 728.775,-436.1"/>
</g>
<!-- 33026 -->
<g id="node57" class="node"><title>33026</title>
<g id="a_node57"><a xlink:title="3rd_week">
<ellipse fill="grey" stroke="black" cx="735.889" cy="-327.665" rx="32.4942" ry="18"/>
<text text-anchor="middle" x="735.889" y="-323.965" font-family="Times,serif" font-size="14.00">33026</text>
</a>
</g>
</g>
<!-- 28759&#45;&gt;33026 -->
<g id="edge25" class="edge"><title>28759&#45;&gt;33026</title>
<path fill="none" stroke="black" d="M626.678,-413.549C650.9,-394.501 692.648,-361.67 716.907,-342.592"/>
</g>
<!-- 33272 -->
<g id="node58" class="node"><title>33272</title>
<g id="a_node58"><a xlink:title="3rd_week">
<ellipse fill="#20ff05" stroke="black" cx="600.107" cy="-265.881" rx="32.4942" ry="18"/>
<text text-anchor="middle" x="600.107" y="-262.181" font-family="Times,serif" font-size="14.00">33272</text>
</a>
</g>
</g>
<!-- 28759&#45;&gt;33272 -->
<g id="edge15" class="edge"><title>28759&#45;&gt;33272</title>
<path fill="none" stroke="black" d="M606.925,-410.4C605.451,-379.158 602.437,-315.275 600.961,-283.977"/>
</g>
<!-- 34954 -->
<g id="node60" class="node"><title>34954</title>
<g id="a_node60"><a xlink:title="3rd_week">
<ellipse fill="#20ff05" stroke="black" cx="656.489" cy="-586.953" rx="32.4942" ry="18"/>
<text text-anchor="middle" x="656.489" y="-583.253" font-family="Times,serif" font-size="14.00">34954</text>
</a>
</g>
</g>
<!-- 28759&#45;&gt;34954 -->
<g id="edge19" class="edge"><title>28759&#45;&gt;34954</title>
<path fill="none" stroke="black" d="M613.268,-446.293C622.624,-476.742 641.548,-538.327 650.941,-568.897"/>
</g>
<!-- 29942 -->
<g id="node50" class="node"><title>29942</title>
<g id="a_node50"><a xlink:title="6th_week">
<ellipse fill="grey" stroke="black" cx="2036.77" cy="-259.404" rx="32.4942" ry="18"/>
<text text-anchor="middle" x="2036.77" y="-255.704" font-family="Times,serif" font-size="14.00">29942</text>
</a>
</g>
</g>
<!-- 29942&#45;&gt;30812 -->
<g id="edge4" class="edge"><title>29942&#45;&gt;30812</title>
<path fill="none" stroke="black" d="M2022.44,-275.703C1993.89,-308.194 1930.18,-380.691 1901.67,-413.142"/>
</g>
<!-- 30797 -->
<g id="node51" class="node"><title>30797</title>
<g id="a_node51"><a xlink:title="6th_week">
<ellipse fill="#20ff05" stroke="black" cx="1938.63" cy="-592.608" rx="32.4942" ry="18"/>
<text text-anchor="middle" x="1938.63" y="-588.908" font-family="Times,serif" font-size="14.00">30797</text>
</a>
</g>
</g>
<!-- 30797&#45;&gt;30812 -->
<g id="edge23" class="edge"><title>30797&#45;&gt;30812</title>
<path fill="none" stroke="black" d="M1933.05,-574.83C1923.19,-543.434 1902.81,-478.528 1892.96,-447.147"/>
</g>
<!-- 32392 -->
<g id="node56" class="node"><title>32392</title>
<g id="a_node56"><a xlink:title="6th_week">
<ellipse fill="grey" stroke="black" cx="1963.03" cy="-261.013" rx="32.4942" ry="18"/>
<text text-anchor="middle" x="1963.03" y="-257.313" font-family="Times,serif" font-size="14.00">32392</text>
</a>
</g>
</g>
<!-- 30812&#45;&gt;32392 -->
<g id="edge18" class="edge"><title>30812&#45;&gt;32392</title>
<path fill="none" stroke="black" d="M1895.34,-411.69C1909.87,-379.352 1940.54,-311.08 1955.07,-278.73"/>
</g>
<!-- 33382 -->
<g id="node59" class="node"><title>33382</title>
<g id="a_node59"><a xlink:title="6th_week">
<ellipse fill="#20ff05" stroke="black" cx="1873.89" cy="-643.418" rx="32.4942" ry="18"/>
<text text-anchor="middle" x="1873.89" y="-639.718" font-family="Times,serif" font-size="14.00">33382</text>
</a>
</g>
</g>
<!-- 30812&#45;&gt;33382 -->
<g id="edge2" class="edge"><title>30812&#45;&gt;33382</title>
<path fill="none" stroke="black" d="M1886.24,-447.639C1883.69,-488.075 1877.59,-584.823 1875.04,-625.216"/>
</g>
<!-- 31679 -->
<g id="node54" class="node"><title>31679</title>
<g id="a_node54"><a xlink:title="6th_week">
<ellipse fill="#20ff05" stroke="black" cx="32.9256" cy="-303.382" rx="32.4942" ry="18"/>
<text text-anchor="middle" x="32.9256" y="-299.682" font-family="Times,serif" font-size="14.00">31679</text>
</a>
</g>
</g>
<!-- 31052&#45;&gt;31679 -->
<g id="edge41" class="edge"><title>31052&#45;&gt;31679</title>
<path fill="none" stroke="black" d="M209.082,-331.61C169.93,-325.336 103.558,-314.701 64.4269,-308.43"/>
</g>
<!-- 2186 -->
<g id="node63" class="node"><title>2186</title>
<g id="a_node63"><a xlink:title="6th_week">
<ellipse fill="#ffffff" stroke="black" cx="161.199" cy="-197.075" rx="28.6953" ry="18"/>
<text text-anchor="middle" x="161.199" y="-193.375" font-family="Times,serif" font-size="14.00">2186</text>
</a>
</g>
</g>
<!-- 31052&#45;&gt;2186 -->
<g id="edge7" class="edge"><title>31052&#45;&gt;2186</title>
<path fill="none" stroke="black" d="M230.728,-319.268C215.424,-292.373 186.201,-241.014 170.973,-214.252"/>
</g>
</g>
</svg>
