<?xml version="1.0" encoding="UTF-8" standalone="no"?>
<!DOCTYPE svg PUBLIC "-//W3C//DTD SVG 1.1//EN"
 "http://www.w3.org/Graphics/SVG/1.1/DTD/svg11.dtd">
<!-- Generated by graphviz version 2.38.0 (20140413.2041)
 -->
<!-- Title: %3 Pages: 1 -->
<svg width="2110pt" height="2031pt"
 viewBox="0.00 0.00 2110.00 2031.00" xmlns="http://www.w3.org/2000/svg" xmlns:xlink="http://www.w3.org/1999/xlink">
<g id="graph0" class="graph" transform="scale(1 1) rotate(0) translate(4 2027)">
<title>%3</title>
<polygon fill="white" stroke="none" points="-4,4 -4,-2027 2106,-2027 2106,4 -4,4"/>
<!-- 507 -->
<g id="node1" class="node"><title>507</title>
<g id="a_node1"><a xlink:title="6th_week">
<ellipse fill="#ff9f0f" stroke="black" cx="1260.41" cy="-421.432" rx="27" ry="18"/>
<text text-anchor="middle" x="1260.41" y="-417.732" font-family="Times,serif" font-size="14.00">507</text>
</a>
</g>
</g>
<!-- 4891 -->
<g id="node9" class="node"><title>4891</title>
<g id="a_node9"><a xlink:title="6th_week">
<ellipse fill="#ff9f0f" stroke="black" cx="1115.49" cy="-254.742" rx="28.6953" ry="18"/>
<text text-anchor="middle" x="1115.49" y="-251.042" font-family="Times,serif" font-size="14.00">4891</text>
</a>
</g>
</g>
<!-- 507&#45;&gt;4891 -->
<g id="edge81" class="edge"><title>507&#45;&gt;4891</title>
<path fill="none" stroke="black" d="M1246.78,-405.75C1219.3,-374.143 1157.51,-303.07 1129.62,-270.994"/>
</g>
<!-- 24764 -->
<g id="node56" class="node"><title>24764</title>
<g id="a_node56"><a xlink:title="6th_week">
<ellipse fill="#ff9f0f" stroke="black" cx="1453.02" cy="-652.001" rx="32.4942" ry="18"/>
<text text-anchor="middle" x="1453.02" y="-648.301" font-family="Times,serif" font-size="14.00">24764</text>
</a>
</g>
</g>
<!-- 507&#45;&gt;24764 -->
<g id="edge2" class="edge"><title>507&#45;&gt;24764</title>
<path fill="none" stroke="black" d="M1273.65,-437.28C1308.67,-479.198 1403.48,-592.691 1439.17,-635.425"/>
</g>
<!-- 1435 -->
<g id="node2" class="node"><title>1435</title>
<g id="a_node2"><a xlink:title="6th_week">
<ellipse fill="#ff9f0f" stroke="black" cx="1857.58" cy="-1749.7" rx="28.6953" ry="18"/>
<text text-anchor="middle" x="1857.58" y="-1746" font-family="Times,serif" font-size="14.00">1435</text>
</a>
</g>
</g>
<!-- 22585 -->
<g id="node52" class="node"><title>22585</title>
<g id="a_node52"><a xlink:title="6th_week">
<ellipse fill="#ff9f0f" stroke="black" cx="1800.97" cy="-1549.23" rx="32.4942" ry="18"/>
<text text-anchor="middle" x="1800.97" y="-1545.53" font-family="Times,serif" font-size="14.00">22585</text>
</a>
</g>
</g>
<!-- 1435&#45;&gt;22585 -->
<g id="edge25" class="edge"><title>1435&#45;&gt;22585</title>
<path fill="none" stroke="black" d="M1852.56,-1731.91C1841.84,-1693.96 1816.84,-1605.44 1806.07,-1567.27"/>
</g>
<!-- 1629 -->
<g id="node3" class="node"><title>1629</title>
<g id="a_node3"><a xlink:title="6th_week">
<ellipse fill="#ff9f0f" stroke="black" cx="1430.06" cy="-480.053" rx="28.6953" ry="18"/>
<text text-anchor="middle" x="1430.06" y="-476.353" font-family="Times,serif" font-size="14.00">1629</text>
</a>
</g>
</g>
<!-- 1629&#45;&gt;24764 -->
<g id="edge31" class="edge"><title>1629&#45;&gt;24764</title>
<path fill="none" stroke="black" d="M1432.47,-498.129C1436.88,-531.153 1446.19,-600.873 1450.61,-633.909"/>
</g>
<!-- 2032 -->
<g id="node4" class="node"><title>2032</title>
<g id="a_node4"><a xlink:title="6th_week">
<ellipse fill="#ffffff" stroke="black" cx="2011.76" cy="-889.996" rx="28.6953" ry="18"/>
<text text-anchor="middle" x="2011.76" y="-886.296" font-family="Times,serif" font-size="14.00">2032</text>
</a>
</g>
</g>
<!-- 34264 -->
<g id="node84" class="node"><title>34264</title>
<g id="a_node84"><a xlink:title="6th_week">
<ellipse fill="#ff9f0f" stroke="black" cx="1805.09" cy="-802.423" rx="32.4942" ry="18"/>
<text text-anchor="middle" x="1805.09" y="-798.723" font-family="Times,serif" font-size="14.00">34264</text>
</a>
</g>
</g>
<!-- 2032&#45;&gt;34264 -->
<g id="edge73" class="edge"><title>2032&#45;&gt;34264</title>
<path fill="none" stroke="black" d="M1987.65,-879.778C1948.46,-863.175 1871.3,-830.477 1830.99,-813.397"/>
</g>
<!-- 2317 -->
<g id="node5" class="node"><title>2317</title>
<g id="a_node5"><a xlink:title="6th_week">
<ellipse fill="#ff9f0f" stroke="black" cx="1164.52" cy="-635.618" rx="28.6953" ry="18"/>
<text text-anchor="middle" x="1164.52" y="-631.918" font-family="Times,serif" font-size="14.00">2317</text>
</a>
</g>
</g>
<!-- 6671 -->
<g id="node19" class="node"><title>6671</title>
<g id="a_node19"><a xlink:title="6th_week">
<ellipse fill="#ff9f0f" stroke="black" cx="917.121" cy="-621.273" rx="28.6953" ry="18"/>
<text text-anchor="middle" x="917.121" y="-617.573" font-family="Times,serif" font-size="14.00">6671</text>
</a>
</g>
</g>
<!-- 2317&#45;&gt;6671 -->
<g id="edge63" class="edge"><title>2317&#45;&gt;6671</title>
<path fill="none" stroke="black" d="M1135.66,-633.945C1087.99,-631.181 993.353,-625.694 945.802,-622.936"/>
</g>
<!-- 2317&#45;&gt;24764 -->
<g id="edge40" class="edge"><title>2317&#45;&gt;24764</title>
<path fill="none" stroke="black" d="M1193.24,-637.249C1247.26,-640.317 1363.65,-646.926 1420.48,-650.153"/>
</g>
<!-- 3231 -->
<g id="node6" class="node"><title>3231</title>
<g id="a_node6"><a xlink:title="6th_week">
<ellipse fill="#ff9f0f" stroke="black" cx="905.031" cy="-850.138" rx="28.6953" ry="18"/>
<text text-anchor="middle" x="905.031" y="-846.438" font-family="Times,serif" font-size="14.00">3231</text>
</a>
</g>
</g>
<!-- 25187 -->
<g id="node57" class="node"><title>25187</title>
<g id="a_node57"><a xlink:title="6th_week">
<ellipse fill="#ff9f0f" stroke="black" cx="1112.77" cy="-752.235" rx="32.4942" ry="18"/>
<text text-anchor="middle" x="1112.77" y="-748.535" font-family="Times,serif" font-size="14.00">25187</text>
</a>
</g>
</g>
<!-- 3231&#45;&gt;25187 -->
<g id="edge53" class="edge"><title>3231&#45;&gt;25187</title>
<path fill="none" stroke="black" d="M928.056,-839.286C967.353,-820.766 1047.05,-783.204 1087.7,-764.048"/>
</g>
<!-- 3888 -->
<g id="node7" class="node"><title>3888</title>
<g id="a_node7"><a xlink:title="6th_week">
<ellipse fill="#ff9f0f" stroke="black" cx="1155.05" cy="-65.9415" rx="28.6953" ry="18"/>
<text text-anchor="middle" x="1155.05" y="-62.2415" font-family="Times,serif" font-size="14.00">3888</text>
</a>
</g>
</g>
<!-- 29578 -->
<g id="node75" class="node"><title>29578</title>
<g id="a_node75"><a xlink:title="6th_week">
<ellipse fill="#ff9f0f" stroke="black" cx="1311.21" cy="-268.815" rx="32.4942" ry="18"/>
<text text-anchor="middle" x="1311.21" y="-265.115" font-family="Times,serif" font-size="14.00">29578</text>
</a>
</g>
</g>
<!-- 3888&#45;&gt;29578 -->
<g id="edge41" class="edge"><title>3888&#45;&gt;29578</title>
<path fill="none" stroke="black" d="M1167.57,-82.2005C1196.74,-120.093 1268.98,-213.95 1298.42,-252.195"/>
</g>
<!-- 4482 -->
<g id="node8" class="node"><title>4482</title>
<g id="a_node8"><a xlink:title="6th_week">
<ellipse fill="#ff9f0f" stroke="black" cx="1609.59" cy="-639.406" rx="28.6953" ry="18"/>
<text text-anchor="middle" x="1609.59" y="-635.706" font-family="Times,serif" font-size="14.00">4482</text>
</a>
</g>
</g>
<!-- 4482&#45;&gt;24764 -->
<g id="edge23" class="edge"><title>4482&#45;&gt;24764</title>
<path fill="none" stroke="black" d="M1580.87,-641.716C1553.86,-643.889 1513.47,-647.139 1485.34,-649.401"/>
</g>
<!-- 4901 -->
<g id="node10" class="node"><title>4901</title>
<g id="a_node10"><a xlink:title="6th_week">
<ellipse fill="grey" stroke="black" cx="1157.84" cy="-467.889" rx="28.6953" ry="18"/>
<text text-anchor="middle" x="1157.84" y="-464.189" font-family="Times,serif" font-size="14.00">4901</text>
</a>
</g>
</g>
<!-- 7840 -->
<g id="node24" class="node"><title>7840</title>
<g id="a_node24"><a xlink:title="6th_week">
<ellipse fill="#ff9f0f" stroke="black" cx="986.468" cy="-321.858" rx="28.6953" ry="18"/>
<text text-anchor="middle" x="986.468" y="-318.158" font-family="Times,serif" font-size="14.00">7840</text>
</a>
</g>
</g>
<!-- 4901&#45;&gt;7840 -->
<g id="edge55" class="edge"><title>4901&#45;&gt;7840</title>
<path fill="none" stroke="black" d="M1140.78,-453.353C1108.02,-425.434 1036.62,-364.595 1003.71,-336.552"/>
</g>
<!-- 17368 -->
<g id="node42" class="node"><title>17368</title>
<g id="a_node42"><a xlink:title="6th_week">
<ellipse fill="grey" stroke="black" cx="945.016" cy="-383.88" rx="32.4942" ry="18"/>
<text text-anchor="middle" x="945.016" y="-380.18" font-family="Times,serif" font-size="14.00">17368</text>
</a>
</g>
</g>
<!-- 4901&#45;&gt;17368 -->
<g id="edge28" class="edge"><title>4901&#45;&gt;17368</title>
<path fill="none" stroke="black" d="M1133.43,-458.252C1093.25,-442.392 1013.49,-410.91 971.809,-394.456"/>
</g>
<!-- 4901&#45;&gt;24764 -->
<g id="edge61" class="edge"><title>4901&#45;&gt;24764</title>
<path fill="none" stroke="black" d="M1178.6,-480.835C1232.4,-514.394 1376.01,-603.967 1431.09,-638.324"/>
</g>
<!-- 5019 -->
<g id="node11" class="node"><title>5019</title>
<g id="a_node11"><a xlink:title="6th_week">
<ellipse fill="#ff9f0f" stroke="black" cx="1786.53" cy="-253.296" rx="28.6953" ry="18"/>
<text text-anchor="middle" x="1786.53" y="-249.596" font-family="Times,serif" font-size="14.00">5019</text>
</a>
</g>
</g>
<!-- 9751 -->
<g id="node34" class="node"><title>9751</title>
<g id="a_node34"><a xlink:title="6th_week">
<ellipse fill="#ff9f0f" stroke="black" cx="1652.76" cy="-429.851" rx="28.6953" ry="18"/>
<text text-anchor="middle" x="1652.76" y="-426.151" font-family="Times,serif" font-size="14.00">9751</text>
</a>
</g>
</g>
<!-- 5019&#45;&gt;9751 -->
<g id="edge3" class="edge"><title>5019&#45;&gt;9751</title>
<path fill="none" stroke="black" d="M1774.19,-269.59C1748.7,-303.224 1690.53,-379.997 1665.07,-413.597"/>
</g>
<!-- 5433 -->
<g id="node12" class="node"><title>5433</title>
<g id="a_node12"><a xlink:title="6th_week">
<ellipse fill="#ff9f0f" stroke="black" cx="1906.41" cy="-1701.68" rx="28.6953" ry="18"/>
<text text-anchor="middle" x="1906.41" y="-1697.98" font-family="Times,serif" font-size="14.00">5433</text>
</a>
</g>
</g>
<!-- 5433&#45;&gt;22585 -->
<g id="edge78" class="edge"><title>5433&#45;&gt;22585</title>
<path fill="none" stroke="black" d="M1894.93,-1685.07C1874.75,-1655.9 1833.15,-1595.76 1812.76,-1566.28"/>
</g>
<!-- 5607 -->
<g id="node13" class="node"><title>5607</title>
<g id="a_node13"><a xlink:title="6th_week">
<ellipse fill="#ffffff" stroke="black" cx="1686.3" cy="-165.44" rx="28.6953" ry="18"/>
<text text-anchor="middle" x="1686.3" y="-161.74" font-family="Times,serif" font-size="14.00">5607</text>
</a>
</g>
</g>
<!-- 17411 -->
<g id="node43" class="node"><title>17411</title>
<g id="a_node43"><a xlink:title="6th_week">
<ellipse fill="#ff9f0f" stroke="black" cx="1585.29" cy="-372.535" rx="32.4942" ry="18"/>
<text text-anchor="middle" x="1585.29" y="-368.835" font-family="Times,serif" font-size="14.00">17411</text>
</a>
</g>
</g>
<!-- 5607&#45;&gt;17411 -->
<g id="edge68" class="edge"><title>5607&#45;&gt;17411</title>
<path fill="none" stroke="black" d="M1677.87,-182.74C1658.85,-221.723 1612.83,-316.065 1593.78,-355.138"/>
</g>
<!-- 6215 -->
<g id="node14" class="node"><title>6215</title>
<g id="a_node14"><a xlink:title="6th_week">
<ellipse fill="#ff9f0f" stroke="black" cx="1597.79" cy="-76.0903" rx="28.6953" ry="18"/>
<text text-anchor="middle" x="1597.79" y="-72.3903" font-family="Times,serif" font-size="14.00">6215</text>
</a>
</g>
</g>
<!-- 32738 -->
<g id="node80" class="node"><title>32738</title>
<g id="a_node80"><a xlink:title="6th_week">
<ellipse fill="#ff9f0f" stroke="black" cx="1518.98" cy="-297.073" rx="32.4942" ry="18"/>
<text text-anchor="middle" x="1518.98" y="-293.373" font-family="Times,serif" font-size="14.00">32738</text>
</a>
</g>
</g>
<!-- 6215&#45;&gt;32738 -->
<g id="edge17" class="edge"><title>6215&#45;&gt;32738</title>
<path fill="none" stroke="black" d="M1591.47,-93.8006C1576.71,-135.178 1540.11,-237.818 1525.33,-279.278"/>
</g>
<!-- 6319 -->
<g id="node15" class="node"><title>6319</title>
<g id="a_node15"><a xlink:title="6th_week">
<ellipse fill="#ff9f0f" stroke="black" cx="1220.56" cy="-977.8" rx="28.6953" ry="18"/>
<text text-anchor="middle" x="1220.56" y="-974.1" font-family="Times,serif" font-size="14.00">6319</text>
</a>
</g>
</g>
<!-- 15416 -->
<g id="node39" class="node"><title>15416</title>
<g id="a_node39"><a xlink:title="6th_week">
<ellipse fill="#ffffff" stroke="black" cx="1147.13" cy="-1185.14" rx="32.4942" ry="18"/>
<text text-anchor="middle" x="1147.13" y="-1181.44" font-family="Times,serif" font-size="14.00">15416</text>
</a>
</g>
</g>
<!-- 6319&#45;&gt;15416 -->
<g id="edge66" class="edge"><title>6319&#45;&gt;15416</title>
<path fill="none" stroke="black" d="M1214.3,-995.478C1200.46,-1034.55 1167.4,-1127.91 1153.48,-1167.22"/>
</g>
<!-- 6319&#45;&gt;24764 -->
<g id="edge27" class="edge"><title>6319&#45;&gt;24764</title>
<path fill="none" stroke="black" d="M1232.41,-961.195C1272.19,-905.437 1400.76,-725.249 1440.92,-668.963"/>
</g>
<!-- 26700 -->
<g id="node61" class="node"><title>26700</title>
<g id="a_node61"><a xlink:title="6th_week">
<ellipse fill="#ff9f0f" stroke="black" cx="1045.15" cy="-1194.44" rx="32.4942" ry="18"/>
<text text-anchor="middle" x="1045.15" y="-1190.74" font-family="Times,serif" font-size="14.00">26700</text>
</a>
</g>
</g>
<!-- 6319&#45;&gt;26700 -->
<g id="edge84" class="edge"><title>6319&#45;&gt;26700</title>
<path fill="none" stroke="black" d="M1207.38,-994.083C1174.87,-1034.23 1091.16,-1137.62 1058.49,-1177.97"/>
</g>
<!-- 32091 -->
<g id="node79" class="node"><title>32091</title>
<g id="a_node79"><a xlink:title="6th_week">
<ellipse fill="#ff9f0f" stroke="black" cx="1057.24" cy="-1119.25" rx="32.4942" ry="18"/>
<text text-anchor="middle" x="1057.24" y="-1115.55" font-family="Times,serif" font-size="14.00">32091</text>
</a>
</g>
</g>
<!-- 6319&#45;&gt;32091 -->
<g id="edge4" class="edge"><title>6319&#45;&gt;32091</title>
<path fill="none" stroke="black" d="M1203.7,-992.405C1172.56,-1019.37 1106.36,-1076.71 1074.75,-1104.09"/>
</g>
<!-- 6324 -->
<g id="node16" class="node"><title>6324</title>
<g id="a_node16"><a xlink:title="6th_week">
<ellipse fill="#ff9f0f" stroke="black" cx="1647.35" cy="-892.113" rx="28.6953" ry="18"/>
<text text-anchor="middle" x="1647.35" y="-888.413" font-family="Times,serif" font-size="14.00">6324</text>
</a>
</g>
</g>
<!-- 17841 -->
<g id="node44" class="node"><title>17841</title>
<g id="a_node44"><a xlink:title="6th_week">
<ellipse fill="#ff9f0f" stroke="black" cx="1785.62" cy="-1065.84" rx="32.4942" ry="18"/>
<text text-anchor="middle" x="1785.62" y="-1062.14" font-family="Times,serif" font-size="14.00">17841</text>
</a>
</g>
</g>
<!-- 6324&#45;&gt;17841 -->
<g id="edge83" class="edge"><title>6324&#45;&gt;17841</title>
<path fill="none" stroke="black" d="M1660.36,-908.457C1686.65,-941.484 1745.84,-1015.85 1772.34,-1049.16"/>
</g>
<!-- 6324&#45;&gt;24764 -->
<g id="edge76" class="edge"><title>6324&#45;&gt;24764</title>
<path fill="none" stroke="black" d="M1634.3,-875.986C1599.07,-832.454 1502.29,-712.875 1466.53,-668.693"/>
</g>
<!-- 6338 -->
<g id="node17" class="node"><title>6338</title>
<g id="a_node17"><a xlink:title="6th_week">
<ellipse fill="#ff9f0f" stroke="black" cx="1773.68" cy="-1725.39" rx="28.6953" ry="18"/>
<text text-anchor="middle" x="1773.68" y="-1721.69" font-family="Times,serif" font-size="14.00">6338</text>
</a>
</g>
</g>
<!-- 6338&#45;&gt;22585 -->
<g id="edge51" class="edge"><title>6338&#45;&gt;22585</title>
<path fill="none" stroke="black" d="M1776.5,-1707.2C1781.74,-1673.36 1792.94,-1601.09 1798.17,-1567.32"/>
</g>
<!-- 6618 -->
<g id="node18" class="node"><title>6618</title>
<g id="a_node18"><a xlink:title="6th_week">
<ellipse fill="#ff9f0f" stroke="black" cx="1013.95" cy="-957.648" rx="28.6953" ry="18"/>
<text text-anchor="middle" x="1013.95" y="-953.948" font-family="Times,serif" font-size="14.00">6618</text>
</a>
</g>
</g>
<!-- 29400 -->
<g id="node74" class="node"><title>29400</title>
<g id="a_node74"><a xlink:title="6th_week">
<ellipse fill="#ff9f0f" stroke="black" cx="1219.42" cy="-820.187" rx="32.4942" ry="18"/>
<text text-anchor="middle" x="1219.42" y="-816.487" font-family="Times,serif" font-size="14.00">29400</text>
</a>
</g>
</g>
<!-- 6618&#45;&gt;29400 -->
<g id="edge37" class="edge"><title>6618&#45;&gt;29400</title>
<path fill="none" stroke="black" d="M1033.65,-944.467C1072.52,-918.462 1158.76,-860.765 1198.56,-834.142"/>
</g>
<!-- 6689 -->
<g id="node20" class="node"><title>6689</title>
<g id="a_node20"><a xlink:title="6th_week">
<ellipse fill="#ff9f0f" stroke="black" cx="1214.89" cy="-20.8246" rx="28.6953" ry="18"/>
<text text-anchor="middle" x="1214.89" y="-17.1246" font-family="Times,serif" font-size="14.00">6689</text>
</a>
</g>
</g>
<!-- 6689&#45;&gt;29578 -->
<g id="edge82" class="edge"><title>6689&#45;&gt;29578</title>
<path fill="none" stroke="black" d="M1221.82,-38.6594C1239.59,-84.4155 1286.64,-205.564 1304.35,-251.142"/>
</g>
<!-- 6840 -->
<g id="node21" class="node"><title>6840</title>
<g id="a_node21"><a xlink:title="6th_week">
<ellipse fill="#ff9f0f" stroke="black" cx="1562.81" cy="-762.734" rx="28.6953" ry="18"/>
<text text-anchor="middle" x="1562.81" y="-759.034" font-family="Times,serif" font-size="14.00">6840</text>
</a>
</g>
</g>
<!-- 6840&#45;&gt;24764 -->
<g id="edge18" class="edge"><title>6840&#45;&gt;24764</title>
<path fill="none" stroke="black" d="M1547.55,-747.337C1526.81,-726.419 1489.91,-689.202 1468.87,-667.984"/>
</g>
<!-- 7136 -->
<g id="node22" class="node"><title>7136</title>
<g id="a_node22"><a xlink:title="6th_week">
<ellipse fill="grey" stroke="black" cx="2047.1" cy="-508.889" rx="28.6953" ry="18"/>
<text text-anchor="middle" x="2047.1" y="-505.189" font-family="Times,serif" font-size="14.00">7136</text>
</a>
</g>
</g>
<!-- 28203 -->
<g id="node65" class="node"><title>28203</title>
<g id="a_node65"><a xlink:title="6th_week">
<ellipse fill="#ff9f0f" stroke="black" cx="1838.08" cy="-600.831" rx="32.4942" ry="18"/>
<text text-anchor="middle" x="1838.08" y="-597.131" font-family="Times,serif" font-size="14.00">28203</text>
</a>
</g>
</g>
<!-- 7136&#45;&gt;28203 -->
<g id="edge65" class="edge"><title>7136&#45;&gt;28203</title>
<path fill="none" stroke="black" d="M2023.53,-519.257C1984.03,-536.633 1904.77,-571.496 1863.85,-589.497"/>
</g>
<!-- 7247 -->
<g id="node23" class="node"><title>7247</title>
<g id="a_node23"><a xlink:title="6th_week">
<ellipse fill="#ff9f0f" stroke="black" cx="1786.71" cy="-1775.8" rx="28.6953" ry="18"/>
<text text-anchor="middle" x="1786.71" y="-1772.1" font-family="Times,serif" font-size="14.00">7247</text>
</a>
</g>
</g>
<!-- 7247&#45;&gt;22585 -->
<g id="edge75" class="edge"><title>7247&#45;&gt;22585</title>
<path fill="none" stroke="black" d="M1787.85,-1757.64C1790.52,-1715.22 1797.15,-1609.98 1799.82,-1567.48"/>
</g>
<!-- 7862 -->
<g id="node25" class="node"><title>7862</title>
<g id="a_node25"><a xlink:title="6th_week">
<ellipse fill="#ff9f0f" stroke="black" cx="478.714" cy="-383.41" rx="28.6953" ry="18"/>
<text text-anchor="middle" x="478.714" y="-379.71" font-family="Times,serif" font-size="14.00">7862</text>
</a>
</g>
</g>
<!-- 26008 -->
<g id="node60" class="node"><title>26008</title>
<g id="a_node60"><a xlink:title="6th_week">
<ellipse fill="#ff9f0f" stroke="black" cx="246.407" cy="-313.518" rx="32.4942" ry="18"/>
<text text-anchor="middle" x="246.407" y="-309.818" font-family="Times,serif" font-size="14.00">26008</text>
</a>
</g>
</g>
<!-- 7862&#45;&gt;26008 -->
<g id="edge22" class="edge"><title>7862&#45;&gt;26008</title>
<path fill="none" stroke="black" d="M452.517,-375.528C408.613,-362.319 320.527,-335.818 275.044,-322.133"/>
</g>
<!-- 28849 -->
<g id="node71" class="node"><title>28849</title>
<g id="a_node71"><a xlink:title="6th_week">
<ellipse fill="#ff9f0f" stroke="black" cx="770.952" cy="-469.716" rx="32.4942" ry="18"/>
<text text-anchor="middle" x="770.952" y="-466.016" font-family="Times,serif" font-size="14.00">28849</text>
</a>
</g>
</g>
<!-- 7862&#45;&gt;28849 -->
<g id="edge58" class="edge"><title>7862&#45;&gt;28849</title>
<path fill="none" stroke="black" d="M504.649,-391.069C559.128,-407.158 685.125,-444.369 742.077,-461.188"/>
</g>
<!-- 8261 -->
<g id="node26" class="node"><title>8261</title>
<g id="a_node26"><a xlink:title="6th_week">
<ellipse fill="#ff9f0f" stroke="black" cx="1340.63" cy="-517.403" rx="28.6953" ry="18"/>
<text text-anchor="middle" x="1340.63" y="-513.703" font-family="Times,serif" font-size="14.00">8261</text>
</a>
</g>
</g>
<!-- 8261&#45;&gt;24764 -->
<g id="edge60" class="edge"><title>8261&#45;&gt;24764</title>
<path fill="none" stroke="black" d="M1353.97,-533.371C1375.48,-559.137 1417.63,-609.615 1439.36,-635.633"/>
</g>
<!-- 8636 -->
<g id="node27" class="node"><title>8636</title>
<g id="a_node27"><a xlink:title="6th_week">
<ellipse fill="grey" stroke="black" cx="1413.83" cy="-1191.74" rx="28.6953" ry="18"/>
<text text-anchor="middle" x="1413.83" y="-1188.04" font-family="Times,serif" font-size="14.00">8636</text>
</a>
</g>
</g>
<!-- 29179 -->
<g id="node73" class="node"><title>29179</title>
<g id="a_node73"><a xlink:title="6th_week">
<ellipse fill="#ff9f0f" stroke="black" cx="1434.56" cy="-968.432" rx="32.4942" ry="18"/>
<text text-anchor="middle" x="1434.56" y="-964.732" font-family="Times,serif" font-size="14.00">29179</text>
</a>
</g>
</g>
<!-- 8636&#45;&gt;29179 -->
<g id="edge16" class="edge"><title>8636&#45;&gt;29179</title>
<path fill="none" stroke="black" d="M1415.53,-1173.46C1419.42,-1131.48 1428.98,-1028.56 1432.87,-986.645"/>
</g>
<!-- 8784 -->
<g id="node28" class="node"><title>8784</title>
<g id="a_node28"><a xlink:title="6th_week">
<ellipse fill="#ff9f0f" stroke="black" cx="1912.85" cy="-230.245" rx="28.6953" ry="18"/>
<text text-anchor="middle" x="1912.85" y="-226.545" font-family="Times,serif" font-size="14.00">8784</text>
</a>
</g>
</g>
<!-- 14860 -->
<g id="node38" class="node"><title>14860</title>
<g id="a_node38"><a xlink:title="6th_week">
<ellipse fill="#ff9f0f" stroke="black" cx="1770.98" cy="-417.718" rx="32.4942" ry="18"/>
<text text-anchor="middle" x="1770.98" y="-414.018" font-family="Times,serif" font-size="14.00">14860</text>
</a>
</g>
</g>
<!-- 8784&#45;&gt;14860 -->
<g id="edge6" class="edge"><title>8784&#45;&gt;14860</title>
<path fill="none" stroke="black" d="M1900.51,-246.554C1873.75,-281.92 1810.61,-365.35 1783.6,-401.044"/>
</g>
<!-- 8819 -->
<g id="node29" class="node"><title>8819</title>
<g id="a_node29"><a xlink:title="6th_week">
<ellipse fill="#ff9f0f" stroke="black" cx="2065.45" cy="-569.495" rx="28.6953" ry="18"/>
<text text-anchor="middle" x="2065.45" y="-565.795" font-family="Times,serif" font-size="14.00">8819</text>
</a>
</g>
</g>
<!-- 8819&#45;&gt;28203 -->
<g id="edge48" class="edge"><title>8819&#45;&gt;28203</title>
<path fill="none" stroke="black" d="M2037.11,-573.4C1994.49,-579.274 1914.17,-590.344 1869.7,-596.473"/>
</g>
<!-- 8864 -->
<g id="node30" class="node"><title>8864</title>
<g id="a_node30"><a xlink:title="6th_week">
<ellipse fill="#ff9f0f" stroke="black" cx="1956.55" cy="-277.313" rx="28.6953" ry="18"/>
<text text-anchor="middle" x="1956.55" y="-273.613" font-family="Times,serif" font-size="14.00">8864</text>
</a>
</g>
</g>
<!-- 8864&#45;&gt;14860 -->
<g id="edge9" class="edge"><title>8864&#45;&gt;14860</title>
<path fill="none" stroke="black" d="M1938.08,-291.289C1902.79,-317.993 1826.09,-376.024 1790.21,-403.17"/>
</g>
<!-- 8954 -->
<g id="node31" class="node"><title>8954</title>
<g id="a_node31"><a xlink:title="6th_week">
<ellipse fill="#ff9f0f" stroke="black" cx="1578.7" cy="-526.977" rx="28.6953" ry="18"/>
<text text-anchor="middle" x="1578.7" y="-523.277" font-family="Times,serif" font-size="14.00">8954</text>
</a>
</g>
</g>
<!-- 8954&#45;&gt;24764 -->
<g id="edge46" class="edge"><title>8954&#45;&gt;24764</title>
<path fill="none" stroke="black" d="M1563.29,-542.307C1539.3,-566.172 1493.26,-611.972 1468.96,-636.151"/>
</g>
<!-- 9480 -->
<g id="node32" class="node"><title>9480</title>
<g id="a_node32"><a xlink:title="6th_week">
<ellipse fill="#ff9f0f" stroke="black" cx="889.189" cy="-1378.46" rx="28.6953" ry="18"/>
<text text-anchor="middle" x="889.189" y="-1374.76" font-family="Times,serif" font-size="14.00">9480</text>
</a>
</g>
</g>
<!-- 9480&#45;&gt;26700 -->
<g id="edge11" class="edge"><title>9480&#45;&gt;26700</title>
<path fill="none" stroke="black" d="M902.756,-1362.45C932.179,-1327.74 1001.59,-1245.84 1031.28,-1210.81"/>
</g>
<!-- 9630 -->
<g id="node33" class="node"><title>9630</title>
<g id="a_node33"><a xlink:title="6th_week">
<ellipse fill="grey" stroke="black" cx="1529.51" cy="-63.3801" rx="28.6953" ry="18"/>
<text text-anchor="middle" x="1529.51" y="-59.6801" font-family="Times,serif" font-size="14.00">9630</text>
</a>
</g>
</g>
<!-- 9630&#45;&gt;32738 -->
<g id="edge39" class="edge"><title>9630&#45;&gt;32738</title>
<path fill="none" stroke="black" d="M1528.68,-81.7176C1526.71,-125.403 1521.77,-235.221 1519.8,-278.82"/>
</g>
<!-- 9751&#45;&gt;24764 -->
<g id="edge35" class="edge"><title>9751&#45;&gt;24764</title>
<path fill="none" stroke="black" d="M1638.39,-445.828C1601.63,-486.717 1504.44,-594.814 1467.52,-635.871"/>
</g>
<!-- 11578 -->
<g id="node35" class="node"><title>11578</title>
<g id="a_node35"><a xlink:title="6th_week">
<ellipse fill="#ff9f0f" stroke="black" cx="1356.16" cy="-444.222" rx="32.4942" ry="18"/>
<text text-anchor="middle" x="1356.16" y="-440.522" font-family="Times,serif" font-size="14.00">11578</text>
</a>
</g>
</g>
<!-- 11578&#45;&gt;24764 -->
<g id="edge33" class="edge"><title>11578&#45;&gt;24764</title>
<path fill="none" stroke="black" d="M1364.42,-461.937C1382.72,-501.192 1426.5,-595.117 1444.78,-634.331"/>
</g>
<!-- 12570 -->
<g id="node36" class="node"><title>12570</title>
<g id="a_node36"><a xlink:title="6th_week">
<ellipse fill="#ff9f0f" stroke="black" cx="1393.37" cy="-120.892" rx="32.4942" ry="18"/>
<text text-anchor="middle" x="1393.37" y="-117.192" font-family="Times,serif" font-size="14.00">12570</text>
</a>
</g>
</g>
<!-- 28663 -->
<g id="node70" class="node"><title>28663</title>
<g id="a_node70"><a xlink:title="6th_week">
<ellipse fill="#ff9f0f" stroke="black" cx="1413.95" cy="-349.812" rx="32.4942" ry="18"/>
<text text-anchor="middle" x="1413.95" y="-346.112" font-family="Times,serif" font-size="14.00">28663</text>
</a>
</g>
</g>
<!-- 12570&#45;&gt;28663 -->
<g id="edge14" class="edge"><title>12570&#45;&gt;28663</title>
<path fill="none" stroke="black" d="M1395.02,-139.238C1398.88,-182.208 1408.48,-288.956 1412.32,-331.696"/>
</g>
<!-- 14532 -->
<g id="node37" class="node"><title>14532</title>
<g id="a_node37"><a xlink:title="6th_week">
<ellipse fill="#ff9f0f" stroke="black" cx="880.252" cy="-779.934" rx="32.4942" ry="18"/>
<text text-anchor="middle" x="880.252" y="-776.234" font-family="Times,serif" font-size="14.00">14532</text>
</a>
</g>
</g>
<!-- 14532&#45;&gt;25187 -->
<g id="edge10" class="edge"><title>14532&#45;&gt;25187</title>
<path fill="none" stroke="black" d="M912.095,-776.141C956.496,-770.851 1036.54,-761.316 1080.94,-756.027"/>
</g>
<!-- 14860&#45;&gt;24764 -->
<g id="edge49" class="edge"><title>14860&#45;&gt;24764</title>
<path fill="none" stroke="black" d="M1751.09,-432.374C1693.99,-474.448 1530,-595.284 1472.9,-637.351"/>
</g>
<!-- 30756 -->
<g id="node77" class="node"><title>30756</title>
<g id="a_node77"><a xlink:title="6th_week">
<ellipse fill="#ffffff" stroke="black" cx="1990.93" cy="-331.269" rx="32.4942" ry="18"/>
<text text-anchor="middle" x="1990.93" y="-327.569" font-family="Times,serif" font-size="14.00">30756</text>
</a>
</g>
</g>
<!-- 14860&#45;&gt;30756 -->
<g id="edge44" class="edge"><title>14860&#45;&gt;30756</title>
<path fill="none" stroke="black" d="M1797.52,-407.29C1839.79,-390.674 1921.97,-358.373 1964.3,-341.734"/>
</g>
<!-- 16816 -->
<g id="node40" class="node"><title>16816</title>
<g id="a_node40"><a xlink:title="6th_week">
<ellipse fill="#ff9f0f" stroke="black" cx="1570.93" cy="-833.052" rx="32.4942" ry="18"/>
<text text-anchor="middle" x="1570.93" y="-829.352" font-family="Times,serif" font-size="14.00">16816</text>
</a>
</g>
</g>
<!-- 16816&#45;&gt;24764 -->
<g id="edge43" class="edge"><title>16816&#45;&gt;24764</title>
<path fill="none" stroke="black" d="M1559.84,-816.019C1537.37,-781.512 1486.69,-703.7 1464.17,-669.121"/>
</g>
<!-- 17234 -->
<g id="node41" class="node"><title>17234</title>
<g id="a_node41"><a xlink:title="6th_week">
<ellipse fill="#ff9f0f" stroke="black" cx="1267.15" cy="-606.688" rx="32.4942" ry="18"/>
<text text-anchor="middle" x="1267.15" y="-602.988" font-family="Times,serif" font-size="14.00">17234</text>
</a>
</g>
</g>
<!-- 17234&#45;&gt;24764 -->
<g id="edge62" class="edge"><title>17234&#45;&gt;24764</title>
<path fill="none" stroke="black" d="M1297.01,-613.968C1331.7,-622.424 1388.58,-636.291 1423.23,-644.739"/>
</g>
<!-- 17411&#45;&gt;24764 -->
<g id="edge7" class="edge"><title>17411&#45;&gt;24764</title>
<path fill="none" stroke="black" d="M1577.02,-390.017C1553.26,-440.205 1485.04,-584.346 1461.29,-634.526"/>
</g>
<!-- 17846 -->
<g id="node45" class="node"><title>17846</title>
<g id="a_node45"><a xlink:title="6th_week">
<ellipse fill="#ff9f0f" stroke="black" cx="1977.09" cy="-1678.89" rx="32.4942" ry="18"/>
<text text-anchor="middle" x="1977.09" y="-1675.19" font-family="Times,serif" font-size="14.00">17846</text>
</a>
</g>
</g>
<!-- 17846&#45;&gt;22585 -->
<g id="edge52" class="edge"><title>17846&#45;&gt;22585</title>
<path fill="none" stroke="black" d="M1957.23,-1664.27C1923.31,-1639.3 1854.62,-1588.73 1820.76,-1563.8"/>
</g>
<!-- 18582 -->
<g id="node46" class="node"><title>18582</title>
<g id="a_node46"><a xlink:title="6th_week">
<ellipse fill="#ffffff" stroke="black" cx="1655.74" cy="-536.79" rx="32.4942" ry="18"/>
<text text-anchor="middle" x="1655.74" y="-533.09" font-family="Times,serif" font-size="14.00">18582</text>
</a>
</g>
</g>
<!-- 18582&#45;&gt;24764 -->
<g id="edge42" class="edge"><title>18582&#45;&gt;24764</title>
<path fill="none" stroke="black" d="M1632.88,-549.782C1593.84,-571.968 1514.78,-616.903 1475.8,-639.056"/>
</g>
<!-- 18978 -->
<g id="node47" class="node"><title>18978</title>
<g id="a_node47"><a xlink:title="6th_week">
<ellipse fill="#ff9f0f" stroke="black" cx="1390.03" cy="-828.189" rx="32.4942" ry="18"/>
<text text-anchor="middle" x="1390.03" y="-824.489" font-family="Times,serif" font-size="14.00">18978</text>
</a>
</g>
</g>
<!-- 18978&#45;&gt;24764 -->
<g id="edge21" class="edge"><title>18978&#45;&gt;24764</title>
<path fill="none" stroke="black" d="M1396.41,-810.325C1408.49,-776.556 1434.53,-703.717 1446.62,-669.912"/>
</g>
<!-- 19634 -->
<g id="node48" class="node"><title>19634</title>
<g id="a_node48"><a xlink:title="6th_week">
<ellipse fill="#ff9f0f" stroke="black" cx="1672.82" cy="-731.85" rx="32.4942" ry="18"/>
<text text-anchor="middle" x="1672.82" y="-728.15" font-family="Times,serif" font-size="14.00">19634</text>
</a>
</g>
</g>
<!-- 19634&#45;&gt;24764 -->
<g id="edge85" class="edge"><title>19634&#45;&gt;24764</title>
<path fill="none" stroke="black" d="M1645.43,-721.898C1603.19,-706.555 1522.65,-677.295 1480.41,-661.952"/>
</g>
<!-- 19769 -->
<g id="node49" class="node"><title>19769</title>
<g id="a_node49"><a xlink:title="6th_week">
<ellipse fill="#ff9f0f" stroke="black" cx="1299.7" cy="-17.7441" rx="32.4942" ry="18"/>
<text text-anchor="middle" x="1299.7" y="-14.0441" font-family="Times,serif" font-size="14.00">19769</text>
</a>
</g>
</g>
<!-- 19769&#45;&gt;29578 -->
<g id="edge1" class="edge"><title>19769&#45;&gt;29578</title>
<path fill="none" stroke="black" d="M1300.52,-35.8005C1302.64,-82.0126 1308.25,-204.183 1310.37,-250.585"/>
</g>
<!-- 20663 -->
<g id="node50" class="node"><title>20663</title>
<g id="a_node50"><a xlink:title="6th_week">
<ellipse fill="#ff9f0f" stroke="black" cx="1407.33" cy="-875.208" rx="32.4942" ry="18"/>
<text text-anchor="middle" x="1407.33" y="-871.508" font-family="Times,serif" font-size="14.00">20663</text>
</a>
</g>
</g>
<!-- 20663&#45;&gt;24764 -->
<g id="edge24" class="edge"><title>20663&#45;&gt;24764</title>
<path fill="none" stroke="black" d="M1410.99,-857.319C1419.55,-815.525 1440.77,-711.852 1449.34,-669.975"/>
</g>
<!-- 21249 -->
<g id="node51" class="node"><title>21249</title>
<g id="a_node51"><a xlink:title="6th_week">
<ellipse fill="#ff9f0f" stroke="black" cx="1557.31" cy="-458.275" rx="32.4942" ry="18"/>
<text text-anchor="middle" x="1557.31" y="-454.575" font-family="Times,serif" font-size="14.00">21249</text>
</a>
</g>
</g>
<!-- 21249&#45;&gt;24764 -->
<g id="edge59" class="edge"><title>21249&#45;&gt;24764</title>
<path fill="none" stroke="black" d="M1547.88,-475.808C1528.02,-512.692 1482.14,-597.921 1462.36,-634.647"/>
</g>
<!-- 23651 -->
<g id="node53" class="node"><title>23651</title>
<g id="a_node53"><a xlink:title="6th_week">
<ellipse fill="#ff9f0f" stroke="black" cx="1631.33" cy="-1102.11" rx="32.4942" ry="18"/>
<text text-anchor="middle" x="1631.33" y="-1098.41" font-family="Times,serif" font-size="14.00">23651</text>
</a>
</g>
</g>
<!-- 22585&#45;&gt;23651 -->
<g id="edge80" class="edge"><title>22585&#45;&gt;23651</title>
<path fill="none" stroke="black" d="M1794.22,-1531.43C1766.98,-1459.64 1665.37,-1191.85 1638.1,-1119.96"/>
</g>
<!-- 26704 -->
<g id="node62" class="node"><title>26704</title>
<g id="a_node62"><a xlink:title="6th_week">
<ellipse fill="#ff9f0f" stroke="black" cx="1928.76" cy="-1790.81" rx="32.4942" ry="18"/>
<text text-anchor="middle" x="1928.76" y="-1787.11" font-family="Times,serif" font-size="14.00">26704</text>
</a>
</g>
</g>
<!-- 22585&#45;&gt;26704 -->
<g id="edge79" class="edge"><title>22585&#45;&gt;26704</title>
<path fill="none" stroke="black" d="M1810.16,-1566.61C1833.68,-1611.07 1895.86,-1728.62 1919.48,-1773.27"/>
</g>
<!-- 28429 -->
<g id="node67" class="node"><title>28429</title>
<g id="a_node67"><a xlink:title="6th_week">
<ellipse fill="#ff9f0f" stroke="black" cx="1699.74" cy="-1736.45" rx="32.4942" ry="18"/>
<text text-anchor="middle" x="1699.74" y="-1732.75" font-family="Times,serif" font-size="14.00">28429</text>
</a>
</g>
</g>
<!-- 22585&#45;&gt;28429 -->
<g id="edge45" class="edge"><title>22585&#45;&gt;28429</title>
<path fill="none" stroke="black" d="M1791.63,-1566.51C1772.39,-1602.09 1728.55,-1683.17 1709.21,-1718.95"/>
</g>
<!-- 33743 -->
<g id="node81" class="node"><title>33743</title>
<g id="a_node81"><a xlink:title="6th_week">
<ellipse fill="#ff9f0f" stroke="black" cx="1998.19" cy="-1613.94" rx="32.4942" ry="18"/>
<text text-anchor="middle" x="1998.19" y="-1610.24" font-family="Times,serif" font-size="14.00">33743</text>
</a>
</g>
</g>
<!-- 22585&#45;&gt;33743 -->
<g id="edge5" class="edge"><title>22585&#45;&gt;33743</title>
<path fill="none" stroke="black" d="M1829.23,-1558.5C1866.72,-1570.81 1932.52,-1592.4 1969.99,-1604.69"/>
</g>
<!-- 23651&#45;&gt;24764 -->
<g id="edge77" class="edge"><title>23651&#45;&gt;24764</title>
<path fill="none" stroke="black" d="M1624.34,-1084.46C1595.88,-1012.62 1488.88,-742.525 1460.16,-670.013"/>
</g>
<!-- 23981 -->
<g id="node54" class="node"><title>23981</title>
<g id="a_node54"><a xlink:title="6th_week">
<ellipse fill="#ff9f0f" stroke="black" cx="2069.39" cy="-633.463" rx="32.4942" ry="18"/>
<text text-anchor="middle" x="2069.39" y="-629.763" font-family="Times,serif" font-size="14.00">23981</text>
</a>
</g>
</g>
<!-- 23981&#45;&gt;28203 -->
<g id="edge8" class="edge"><title>23981&#45;&gt;28203</title>
<path fill="none" stroke="black" d="M2037.71,-628.994C1993.54,-622.763 1913.91,-611.529 1869.75,-605.298"/>
</g>
<!-- 24244 -->
<g id="node55" class="node"><title>24244</title>
<g id="a_node55"><a xlink:title="6th_week">
<ellipse fill="#ffffff" stroke="black" cx="1342.08" cy="-766.288" rx="32.4942" ry="18"/>
<text text-anchor="middle" x="1342.08" y="-762.588" font-family="Times,serif" font-size="14.00">24244</text>
</a>
</g>
</g>
<!-- 24244&#45;&gt;24764 -->
<g id="edge38" class="edge"><title>24244&#45;&gt;24764</title>
<path fill="none" stroke="black" d="M1357.51,-750.397C1378.58,-728.685 1416.18,-689.959 1437.37,-668.126"/>
</g>
<!-- 24764&#45;&gt;25187 -->
<g id="edge64" class="edge"><title>24764&#45;&gt;25187</title>
<path fill="none" stroke="black" d="M1424.31,-660.461C1360.22,-679.34 1206.12,-724.735 1141.77,-743.692"/>
</g>
<!-- 25284 -->
<g id="node58" class="node"><title>25284</title>
<g id="a_node58"><a xlink:title="6th_week">
<ellipse fill="#ff9f0f" stroke="black" cx="1493.57" cy="-892.762" rx="32.4942" ry="18"/>
<text text-anchor="middle" x="1493.57" y="-889.062" font-family="Times,serif" font-size="14.00">25284</text>
</a>
</g>
</g>
<!-- 24764&#45;&gt;25284 -->
<g id="edge50" class="edge"><title>24764&#45;&gt;25284</title>
<path fill="none" stroke="black" d="M1456.07,-670.097C1463.6,-714.825 1483.03,-830.181 1490.54,-874.784"/>
</g>
<!-- 27907 -->
<g id="node63" class="node"><title>27907</title>
<g id="a_node63"><a xlink:title="6th_week">
<ellipse fill="#ff9f0f" stroke="black" cx="1692.12" cy="-595.271" rx="32.4942" ry="18"/>
<text text-anchor="middle" x="1692.12" y="-591.571" font-family="Times,serif" font-size="14.00">27907</text>
</a>
</g>
</g>
<!-- 24764&#45;&gt;27907 -->
<g id="edge36" class="edge"><title>24764&#45;&gt;27907</title>
<path fill="none" stroke="black" d="M1483.3,-644.816C1529.29,-633.904 1616.24,-613.275 1662.08,-602.398"/>
</g>
<!-- 24764&#45;&gt;28203 -->
<g id="edge71" class="edge"><title>24764&#45;&gt;28203</title>
<path fill="none" stroke="black" d="M1484.86,-647.77C1557.39,-638.132 1734.18,-614.639 1806.48,-605.031"/>
</g>
<!-- 28335 -->
<g id="node66" class="node"><title>28335</title>
<g id="a_node66"><a xlink:title="6th_week">
<ellipse fill="grey" stroke="black" cx="1695.8" cy="-674.758" rx="32.4942" ry="18"/>
<text text-anchor="middle" x="1695.8" y="-671.058" font-family="Times,serif" font-size="14.00">28335</text>
</a>
</g>
</g>
<!-- 24764&#45;&gt;28335 -->
<g id="edge72" class="edge"><title>24764&#45;&gt;28335</title>
<path fill="none" stroke="black" d="M1485.26,-655.023C1531.7,-659.376 1616.92,-667.364 1663.43,-671.723"/>
</g>
<!-- 28573 -->
<g id="node68" class="node"><title>28573</title>
<g id="a_node68"><a xlink:title="6th_week">
<ellipse fill="grey" stroke="black" cx="1256.46" cy="-670.583" rx="32.4942" ry="18"/>
<text text-anchor="middle" x="1256.46" y="-666.883" font-family="Times,serif" font-size="14.00">28573</text>
</a>
</g>
</g>
<!-- 24764&#45;&gt;28573 -->
<g id="edge26" class="edge"><title>24764&#45;&gt;28573</title>
<path fill="none" stroke="black" d="M1420.56,-655.07C1384.04,-658.523 1325.06,-664.099 1288.64,-667.541"/>
</g>
<!-- 28581 -->
<g id="node69" class="node"><title>28581</title>
<g id="a_node69"><a xlink:title="6th_week">
<ellipse fill="#ff9f0f" stroke="black" cx="1477.73" cy="-427.517" rx="32.4942" ry="18"/>
<text text-anchor="middle" x="1477.73" y="-423.817" font-family="Times,serif" font-size="14.00">28581</text>
</a>
</g>
</g>
<!-- 24764&#45;&gt;28581 -->
<g id="edge67" class="edge"><title>24764&#45;&gt;28581</title>
<path fill="none" stroke="black" d="M1455,-634.01C1459.63,-591.977 1471.1,-487.711 1475.74,-445.594"/>
</g>
<!-- 24764&#45;&gt;28663 -->
<g id="edge19" class="edge"><title>24764&#45;&gt;28663</title>
<path fill="none" stroke="black" d="M1450.69,-634.003C1443.76,-580.383 1423.29,-422.091 1416.31,-368.098"/>
</g>
<!-- 29168 -->
<g id="node72" class="node"><title>29168</title>
<g id="a_node72"><a xlink:title="6th_week">
<ellipse fill="grey" stroke="black" cx="1268.44" cy="-735.151" rx="32.4942" ry="18"/>
<text text-anchor="middle" x="1268.44" y="-731.451" font-family="Times,serif" font-size="14.00">29168</text>
</a>
</g>
</g>
<!-- 24764&#45;&gt;29168 -->
<g id="edge74" class="edge"><title>24764&#45;&gt;29168</title>
<path fill="none" stroke="black" d="M1427.74,-663.388C1392.5,-679.267 1328.95,-707.892 1293.71,-723.768"/>
</g>
<!-- 24764&#45;&gt;29179 -->
<g id="edge15" class="edge"><title>24764&#45;&gt;29179</title>
<path fill="none" stroke="black" d="M1451.95,-670.382C1448.68,-726.44 1438.85,-894.798 1435.61,-950.395"/>
</g>
<!-- 24764&#45;&gt;29400 -->
<g id="edge70" class="edge"><title>24764&#45;&gt;29400</title>
<path fill="none" stroke="black" d="M1433.11,-666.341C1388.97,-698.115 1283.37,-774.142 1239.28,-805.883"/>
</g>
<!-- 24764&#45;&gt;29578 -->
<g id="edge12" class="edge"><title>24764&#45;&gt;29578</title>
<path fill="none" stroke="black" d="M1446.47,-634.288C1422.77,-570.26 1341.71,-351.218 1317.86,-286.782"/>
</g>
<!-- 29957 -->
<g id="node76" class="node"><title>29957</title>
<g id="a_node76"><a xlink:title="6th_week">
<ellipse fill="grey" stroke="black" cx="1483.67" cy="-828.448" rx="32.4942" ry="18"/>
<text text-anchor="middle" x="1483.67" y="-824.748" font-family="Times,serif" font-size="14.00">29957</text>
</a>
</g>
</g>
<!-- 24764&#45;&gt;29957 -->
<g id="edge57" class="edge"><title>24764&#45;&gt;29957</title>
<path fill="none" stroke="black" d="M1456.19,-670.22C1462.08,-704.119 1474.65,-776.505 1480.53,-810.329"/>
</g>
<!-- 31296 -->
<g id="node78" class="node"><title>31296</title>
<g id="a_node78"><a xlink:title="6th_week">
<ellipse fill="#ff9f0f" stroke="black" cx="1269.9" cy="-540.83" rx="32.4942" ry="18"/>
<text text-anchor="middle" x="1269.9" y="-537.13" font-family="Times,serif" font-size="14.00">31296</text>
</a>
</g>
</g>
<!-- 24764&#45;&gt;31296 -->
<g id="edge86" class="edge"><title>24764&#45;&gt;31296</title>
<path fill="none" stroke="black" d="M1430.93,-638.591C1395.74,-617.224 1327.32,-575.685 1292.07,-554.288"/>
</g>
<!-- 24764&#45;&gt;32738 -->
<g id="edge69" class="edge"><title>24764&#45;&gt;32738</title>
<path fill="none" stroke="black" d="M1456.38,-633.912C1467.7,-573.027 1504.32,-375.956 1515.63,-315.125"/>
</g>
<!-- 34010 -->
<g id="node82" class="node"><title>34010</title>
<g id="a_node82"><a xlink:title="6th_week">
<ellipse fill="#ff9f0f" stroke="black" cx="1085.84" cy="-553.809" rx="32.4942" ry="18"/>
<text text-anchor="middle" x="1085.84" y="-550.109" font-family="Times,serif" font-size="14.00">34010</text>
</a>
</g>
</g>
<!-- 24764&#45;&gt;34010 -->
<g id="edge20" class="edge"><title>24764&#45;&gt;34010</title>
<path fill="none" stroke="black" d="M1423.59,-644.132C1354.76,-625.723 1183.87,-580.026 1115.15,-561.648"/>
</g>
<!-- 24764&#45;&gt;34264 -->
<g id="edge54" class="edge"><title>24764&#45;&gt;34264</title>
<path fill="none" stroke="black" d="M1478.91,-663.062C1544.02,-690.88 1714.02,-763.511 1779.17,-791.346"/>
</g>
<!-- 34542 -->
<g id="node86" class="node"><title>34542</title>
<g id="a_node86"><a xlink:title="6th_week">
<ellipse fill="#ff9f0f" stroke="black" cx="1649.89" cy="-793.653" rx="32.4942" ry="18"/>
<text text-anchor="middle" x="1649.89" y="-789.953" font-family="Times,serif" font-size="14.00">34542</text>
</a>
</g>
</g>
<!-- 24764&#45;&gt;34542 -->
<g id="edge32" class="edge"><title>24764&#45;&gt;34542</title>
<path fill="none" stroke="black" d="M1472.98,-666.363C1510.71,-693.513 1592.1,-752.074 1629.87,-779.253"/>
</g>
<!-- 35151 -->
<g id="node87" class="node"><title>35151</title>
<g id="a_node87"><a xlink:title="6th_week">
<ellipse fill="#ff9f0f" stroke="black" cx="1311.27" cy="-818.443" rx="32.4942" ry="18"/>
<text text-anchor="middle" x="1311.27" y="-814.743" font-family="Times,serif" font-size="14.00">35151</text>
</a>
</g>
</g>
<!-- 24764&#45;&gt;35151 -->
<g id="edge47" class="edge"><title>24764&#45;&gt;35151</title>
<path fill="none" stroke="black" d="M1438.91,-668.569C1411.74,-700.472 1352.45,-770.092 1325.33,-801.943"/>
</g>
<!-- 25351 -->
<g id="node59" class="node"><title>25351</title>
<g id="a_node59"><a xlink:title="6th_week">
<ellipse fill="#ff9f0f" stroke="black" cx="2034.54" cy="-827.849" rx="32.4942" ry="18"/>
<text text-anchor="middle" x="2034.54" y="-824.149" font-family="Times,serif" font-size="14.00">25351</text>
</a>
</g>
</g>
<!-- 25351&#45;&gt;34264 -->
<g id="edge34" class="edge"><title>25351&#45;&gt;34264</title>
<path fill="none" stroke="black" d="M2002.64,-824.314C1958.92,-819.47 1880.86,-810.819 1837.09,-805.969"/>
</g>
<!-- 34362 -->
<g id="node85" class="node"><title>34362</title>
<g id="a_node85"><a xlink:title="6th_week">
<ellipse fill="#ff9f0f" stroke="black" cx="32.5632" cy="-248.677" rx="32.4942" ry="18"/>
<text text-anchor="middle" x="32.5632" y="-244.977" font-family="Times,serif" font-size="14.00">34362</text>
</a>
</g>
</g>
<!-- 26008&#45;&gt;34362 -->
<g id="edge13" class="edge"><title>26008&#45;&gt;34362</title>
<path fill="none" stroke="black" d="M217.567,-304.773C176.64,-292.363 102.151,-269.777 61.2869,-257.387"/>
</g>
<!-- 27927 -->
<g id="node64" class="node"><title>27927</title>
<g id="a_node64"><a xlink:title="6th_week">
<ellipse fill="grey" stroke="black" cx="2027.26" cy="-2005.12" rx="32.4942" ry="18"/>
<text text-anchor="middle" x="2027.26" y="-2001.42" font-family="Times,serif" font-size="14.00">27927</text>
</a>
</g>
</g>
<!-- 26704&#45;&gt;27927 -->
<g id="edge30" class="edge"><title>26704&#45;&gt;27927</title>
<path fill="none" stroke="black" d="M1936.82,-1808.34C1955.34,-1848.63 2000.74,-1947.41 2019.23,-1987.64"/>
</g>
<!-- 28849&#45;&gt;34010 -->
<g id="edge29" class="edge"><title>28849&#45;&gt;34010</title>
<path fill="none" stroke="black" d="M800.293,-477.552C860.294,-493.576 996.419,-529.929 1056.45,-545.963"/>
</g>
<!-- 34199 -->
<g id="node83" class="node"><title>34199</title>
<g id="a_node83"><a xlink:title="6th_week">
<ellipse fill="#ff9f0f" stroke="black" cx="1980.28" cy="-949.749" rx="32.4942" ry="18"/>
<text text-anchor="middle" x="1980.28" y="-946.049" font-family="Times,serif" font-size="14.00">34199</text>
</a>
</g>
</g>
<!-- 34199&#45;&gt;34264 -->
<g id="edge56" class="edge"><title>34199&#45;&gt;34264</title>
<path fill="none" stroke="black" d="M1962.19,-934.537C1928.53,-906.233 1856.67,-845.793 1823.08,-817.551"/>
</g>
</g>
</svg>
