<?xml version="1.0" encoding="UTF-8" standalone="no"?>
<!DOCTYPE svg PUBLIC "-//W3C//DTD SVG 1.1//EN"
 "http://www.w3.org/Graphics/SVG/1.1/DTD/svg11.dtd">
<!-- Generated by graphviz version 2.38.0 (20140413.2041)
 -->
<!-- Title: %3 Pages: 1 -->
<svg width="1783pt" height="1475pt"
 viewBox="0.00 0.00 1783.00 1475.00" xmlns="http://www.w3.org/2000/svg" xmlns:xlink="http://www.w3.org/1999/xlink">
<g id="graph0" class="graph" transform="scale(1 1) rotate(0) translate(4 1471)">
<title>%3</title>
<polygon fill="white" stroke="none" points="-4,4 -4,-1471 1779,-1471 1779,4 -4,4"/>
<!-- 274 -->
<g id="node1" class="node"><title>274</title>
<g id="a_node1"><a xlink:title="6th_week">
<ellipse fill="#efff05" stroke="black" cx="514.458" cy="-776.075" rx="27" ry="18"/>
<text text-anchor="middle" x="514.458" y="-772.375" font-family="Times,serif" font-size="14.00">274</text>
</a>
</g>
</g>
<!-- 5360 -->
<g id="node3" class="node"><title>5360</title>
<g id="a_node3"><a xlink:title="6th_week">
<ellipse fill="#efff05" stroke="black" cx="523.92" cy="-594.884" rx="28.6953" ry="18"/>
<text text-anchor="middle" x="523.92" y="-591.184" font-family="Times,serif" font-size="14.00">5360</text>
</a>
</g>
</g>
<!-- 274&#45;&gt;5360 -->
<g id="edge31" class="edge"><title>274&#45;&gt;5360</title>
<path fill="none" stroke="black" d="M515.4,-758.039C517.209,-723.398 521.151,-647.91 522.968,-613.115"/>
</g>
<!-- 19104 -->
<g id="node16" class="node"><title>19104</title>
<g id="a_node16"><a xlink:title="6th_week">
<ellipse fill="#ffffff" stroke="black" cx="566.614" cy="-645.237" rx="32.4942" ry="18"/>
<text text-anchor="middle" x="566.614" y="-641.537" font-family="Times,serif" font-size="14.00">19104</text>
</a>
</g>
</g>
<!-- 274&#45;&gt;19104 -->
<g id="edge36" class="edge"><title>274&#45;&gt;19104</title>
<path fill="none" stroke="black" d="M521.492,-758.429C531.446,-733.458 549.54,-688.067 559.524,-663.02"/>
</g>
<!-- 26602 -->
<g id="node25" class="node"><title>26602</title>
<g id="a_node25"><a xlink:title="6th_week">
<ellipse fill="#efff05" stroke="black" cx="395.447" cy="-866.6" rx="32.4942" ry="18"/>
<text text-anchor="middle" x="395.447" y="-862.9" font-family="Times,serif" font-size="14.00">26602</text>
</a>
</g>
</g>
<!-- 274&#45;&gt;26602 -->
<g id="edge50" class="edge"><title>274&#45;&gt;26602</title>
<path fill="none" stroke="black" d="M496.641,-789.627C474.724,-806.299 437.643,-834.504 414.971,-851.749"/>
</g>
<!-- 31190 -->
<g id="node28" class="node"><title>31190</title>
<g id="a_node28"><a xlink:title="6th_week">
<ellipse fill="#efff05" stroke="black" cx="399.29" cy="-697.113" rx="32.4942" ry="18"/>
<text text-anchor="middle" x="399.29" y="-693.413" font-family="Times,serif" font-size="14.00">31190</text>
</a>
</g>
</g>
<!-- 274&#45;&gt;31190 -->
<g id="edge41" class="edge"><title>274&#45;&gt;31190</title>
<path fill="none" stroke="black" d="M495.44,-763.036C474.613,-748.756 441.328,-725.935 419.893,-711.239"/>
</g>
<!-- 43302 -->
<g id="node33" class="node"><title>43302</title>
<g id="a_node33"><a xlink:title="6th_week">
<ellipse fill="#efff05" stroke="black" cx="628.277" cy="-699.992" rx="32.4942" ry="18"/>
<text text-anchor="middle" x="628.277" y="-696.292" font-family="Times,serif" font-size="14.00">43302</text>
</a>
</g>
</g>
<!-- 274&#45;&gt;43302 -->
<g id="edge23" class="edge"><title>274&#45;&gt;43302</title>
<path fill="none" stroke="black" d="M533.766,-763.168C554.189,-749.517 586.305,-728.048 607.329,-713.995"/>
</g>
<!-- 48192 -->
<g id="node35" class="node"><title>48192</title>
<g id="a_node35"><a xlink:title="6th_week">
<ellipse fill="#ffffff" stroke="black" cx="590.461" cy="-944.864" rx="32.4942" ry="18"/>
<text text-anchor="middle" x="590.461" y="-941.164" font-family="Times,serif" font-size="14.00">48192</text>
</a>
</g>
</g>
<!-- 274&#45;&gt;48192 -->
<g id="edge30" class="edge"><title>274&#45;&gt;48192</title>
<path fill="none" stroke="black" d="M522.305,-793.502C536.869,-825.846 567.925,-894.815 582.542,-927.278"/>
</g>
<!-- 54373 -->
<g id="node42" class="node"><title>54373</title>
<g id="a_node42"><a xlink:title="6th_week">
<ellipse fill="#ffffff" stroke="black" cx="453.955" cy="-631.901" rx="32.4942" ry="18"/>
<text text-anchor="middle" x="453.955" y="-628.201" font-family="Times,serif" font-size="14.00">54373</text>
</a>
</g>
</g>
<!-- 274&#45;&gt;54373 -->
<g id="edge46" class="edge"><title>274&#45;&gt;54373</title>
<path fill="none" stroke="black" d="M507.16,-758.684C495.594,-731.123 473.169,-677.684 461.469,-649.805"/>
</g>
<!-- 4480 -->
<g id="node2" class="node"><title>4480</title>
<g id="a_node2"><a xlink:title="6th_week">
<ellipse fill="#ffffff" stroke="black" cx="91.9842" cy="-695.363" rx="28.6953" ry="18"/>
<text text-anchor="middle" x="91.9842" y="-691.663" font-family="Times,serif" font-size="14.00">4480</text>
</a>
</g>
</g>
<!-- 33836 -->
<g id="node29" class="node"><title>33836</title>
<g id="a_node29"><a xlink:title="6th_week">
<ellipse fill="#efff05" stroke="black" cx="169.402" cy="-814.635" rx="32.4942" ry="18"/>
<text text-anchor="middle" x="169.402" y="-810.935" font-family="Times,serif" font-size="14.00">33836</text>
</a>
</g>
</g>
<!-- 4480&#45;&gt;33836 -->
<g id="edge16" class="edge"><title>4480&#45;&gt;33836</title>
<path fill="none" stroke="black" d="M102.912,-712.199C117.584,-734.802 143.509,-774.743 158.279,-797.499"/>
</g>
<!-- 30518 -->
<g id="node27" class="node"><title>30518</title>
<g id="a_node27"><a xlink:title="6th_week">
<ellipse fill="#ffffff" stroke="black" cx="498.117" cy="-447.098" rx="32.4942" ry="18"/>
<text text-anchor="middle" x="498.117" y="-443.398" font-family="Times,serif" font-size="14.00">30518</text>
</a>
</g>
</g>
<!-- 5360&#45;&gt;30518 -->
<g id="edge39" class="edge"><title>5360&#45;&gt;30518</title>
<path fill="none" stroke="black" d="M520.756,-576.762C515.804,-548.398 506.275,-493.823 501.307,-465.368"/>
</g>
<!-- 6670 -->
<g id="node4" class="node"><title>6670</title>
<g id="a_node4"><a xlink:title="6th_week">
<ellipse fill="grey" stroke="black" cx="731.052" cy="-1448.83" rx="28.6953" ry="18"/>
<text text-anchor="middle" x="731.052" y="-1445.13" font-family="Times,serif" font-size="14.00">6670</text>
</a>
</g>
</g>
<!-- 35199 -->
<g id="node31" class="node"><title>35199</title>
<g id="a_node31"><a xlink:title="6th_week">
<ellipse fill="#efff05" stroke="black" cx="690.435" cy="-1294.26" rx="32.4942" ry="18"/>
<text text-anchor="middle" x="690.435" y="-1290.56" font-family="Times,serif" font-size="14.00">35199</text>
</a>
</g>
</g>
<!-- 6670&#45;&gt;35199 -->
<g id="edge29" class="edge"><title>6670&#45;&gt;35199</title>
<path fill="none" stroke="black" d="M726.313,-1430.8C718.487,-1401.01 702.95,-1341.88 695.144,-1312.18"/>
</g>
<!-- 9226 -->
<g id="node5" class="node"><title>9226</title>
<g id="a_node5"><a xlink:title="6th_week">
<ellipse fill="#efff05" stroke="black" cx="1398.8" cy="-337.015" rx="28.6953" ry="18"/>
<text text-anchor="middle" x="1398.8" y="-333.315" font-family="Times,serif" font-size="14.00">9226</text>
</a>
</g>
</g>
<!-- 9656 -->
<g id="node8" class="node"><title>9656</title>
<g id="a_node8"><a xlink:title="6th_week">
<ellipse fill="#efff05" stroke="black" cx="1502.68" cy="-392.572" rx="28.6953" ry="18"/>
<text text-anchor="middle" x="1502.68" y="-388.872" font-family="Times,serif" font-size="14.00">9656</text>
</a>
</g>
</g>
<!-- 9226&#45;&gt;9656 -->
<g id="edge17" class="edge"><title>9226&#45;&gt;9656</title>
<path fill="none" stroke="black" d="M1420.83,-348.797C1438.46,-358.225 1463.06,-371.383 1480.68,-380.807"/>
</g>
<!-- 12194 -->
<g id="node10" class="node"><title>12194</title>
<g id="a_node10"><a xlink:title="6th_week">
<ellipse fill="#efff05" stroke="black" cx="1306.03" cy="-227.409" rx="32.4942" ry="18"/>
<text text-anchor="middle" x="1306.03" y="-223.709" font-family="Times,serif" font-size="14.00">12194</text>
</a>
</g>
</g>
<!-- 9226&#45;&gt;12194 -->
<g id="edge28" class="edge"><title>9226&#45;&gt;12194</title>
<path fill="none" stroke="black" d="M1385.11,-320.842C1367.67,-300.238 1337.69,-264.813 1320.08,-244.007"/>
</g>
<!-- 16825 -->
<g id="node13" class="node"><title>16825</title>
<g id="a_node13"><a xlink:title="6th_week">
<ellipse fill="#efff05" stroke="black" cx="1393.67" cy="-218.045" rx="32.4942" ry="18"/>
<text text-anchor="middle" x="1393.67" y="-214.345" font-family="Times,serif" font-size="14.00">16825</text>
</a>
</g>
</g>
<!-- 9226&#45;&gt;16825 -->
<g id="edge22" class="edge"><title>9226&#45;&gt;16825</title>
<path fill="none" stroke="black" d="M1398.02,-318.946C1397.05,-296.585 1395.42,-258.723 1394.45,-236.284"/>
</g>
<!-- 20597 -->
<g id="node18" class="node"><title>20597</title>
<g id="a_node18"><a xlink:title="6th_week">
<ellipse fill="#efff05" stroke="black" cx="1380.26" cy="-155.928" rx="32.4942" ry="18"/>
<text text-anchor="middle" x="1380.26" y="-152.228" font-family="Times,serif" font-size="14.00">20597</text>
</a>
</g>
</g>
<!-- 9226&#45;&gt;20597 -->
<g id="edge54" class="edge"><title>9226&#45;&gt;20597</title>
<path fill="none" stroke="black" d="M1396.95,-318.989C1393.41,-284.368 1385.69,-208.923 1382.13,-174.149"/>
</g>
<!-- 57146 -->
<g id="node44" class="node"><title>57146</title>
<g id="a_node44"><a xlink:title="6th_week">
<ellipse fill="#efff05" stroke="black" cx="1580.88" cy="-281.924" rx="32.4942" ry="18"/>
<text text-anchor="middle" x="1580.88" y="-278.224" font-family="Times,serif" font-size="14.00">57146</text>
</a>
</g>
</g>
<!-- 9226&#45;&gt;57146 -->
<g id="edge40" class="edge"><title>9226&#45;&gt;57146</title>
<path fill="none" stroke="black" d="M1424.88,-329.121C1458.61,-318.916 1517.16,-301.202 1552.14,-290.62"/>
</g>
<!-- 64000 -->
<g id="node48" class="node"><title>64000</title>
<g id="a_node48"><a xlink:title="6th_week">
<ellipse fill="#efff05" stroke="black" cx="1494.17" cy="-202.452" rx="32.4942" ry="18"/>
<text text-anchor="middle" x="1494.17" y="-198.752" font-family="Times,serif" font-size="14.00">64000</text>
</a>
</g>
</g>
<!-- 9226&#45;&gt;64000 -->
<g id="edge8" class="edge"><title>9226&#45;&gt;64000</title>
<path fill="none" stroke="black" d="M1410.49,-320.515C1428.7,-294.829 1463.63,-245.535 1482.08,-219.511"/>
</g>
<!-- 65135 -->
<g id="node49" class="node"><title>65135</title>
<g id="a_node49"><a xlink:title="6th_week">
<ellipse fill="#efff05" stroke="black" cx="1228.78" cy="-457.981" rx="32.4942" ry="18"/>
<text text-anchor="middle" x="1228.78" y="-454.281" font-family="Times,serif" font-size="14.00">65135</text>
</a>
</g>
</g>
<!-- 9226&#45;&gt;65135 -->
<g id="edge49" class="edge"><title>9226&#45;&gt;65135</title>
<path fill="none" stroke="black" d="M1379.62,-350.656C1347.23,-373.703 1281.98,-420.131 1248.94,-443.641"/>
</g>
<!-- 9373 -->
<g id="node6" class="node"><title>9373</title>
<g id="a_node6"><a xlink:title="6th_week">
<ellipse fill="#ffffff" stroke="black" cx="649.169" cy="-1132.87" rx="28.6953" ry="18"/>
<text text-anchor="middle" x="649.169" y="-1129.17" font-family="Times,serif" font-size="14.00">9373</text>
</a>
</g>
</g>
<!-- 9373&#45;&gt;35199 -->
<g id="edge47" class="edge"><title>9373&#45;&gt;35199</title>
<path fill="none" stroke="black" d="M653.743,-1150.76C661.675,-1181.78 677.895,-1245.21 685.841,-1276.29"/>
</g>
<!-- 9373&#45;&gt;48192 -->
<g id="edge48" class="edge"><title>9373&#45;&gt;48192</title>
<path fill="none" stroke="black" d="M643.646,-1115.18C632.457,-1079.35 607.225,-998.549 596.012,-962.641"/>
</g>
<!-- 9611 -->
<g id="node7" class="node"><title>9611</title>
<g id="a_node7"><a xlink:title="6th_week">
<ellipse fill="#efff05" stroke="black" cx="28.5729" cy="-810.567" rx="28.6953" ry="18"/>
<text text-anchor="middle" x="28.5729" y="-806.867" font-family="Times,serif" font-size="14.00">9611</text>
</a>
</g>
</g>
<!-- 9611&#45;&gt;33836 -->
<g id="edge15" class="edge"><title>9611&#45;&gt;33836</title>
<path fill="none" stroke="black" d="M57.4117,-811.4C80.5071,-812.067 112.899,-813.003 136.909,-813.697"/>
</g>
<!-- 9842 -->
<g id="node9" class="node"><title>9842</title>
<g id="a_node9"><a xlink:title="6th_week">
<ellipse fill="#ffffff" stroke="black" cx="113.397" cy="-1072.29" rx="28.6953" ry="18"/>
<text text-anchor="middle" x="113.397" y="-1068.59" font-family="Times,serif" font-size="14.00">9842</text>
</a>
</g>
</g>
<!-- 63065 -->
<g id="node46" class="node"><title>63065</title>
<g id="a_node46"><a xlink:title="6th_week">
<ellipse fill="#efff05" stroke="black" cx="251.154" cy="-1040.11" rx="32.4942" ry="18"/>
<text text-anchor="middle" x="251.154" y="-1036.41" font-family="Times,serif" font-size="14.00">63065</text>
</a>
</g>
</g>
<!-- 9842&#45;&gt;63065 -->
<g id="edge21" class="edge"><title>9842&#45;&gt;63065</title>
<path fill="none" stroke="black" d="M140.285,-1066.01C163.462,-1060.59 196.896,-1052.78 220.981,-1047.16"/>
</g>
<!-- 12510 -->
<g id="node11" class="node"><title>12510</title>
<g id="a_node11"><a xlink:title="6th_week">
<ellipse fill="#efff05" stroke="black" cx="268.511" cy="-793.147" rx="32.4942" ry="18"/>
<text text-anchor="middle" x="268.511" y="-789.447" font-family="Times,serif" font-size="14.00">12510</text>
</a>
</g>
</g>
<!-- 12510&#45;&gt;26602 -->
<g id="edge1" class="edge"><title>12510&#45;&gt;26602</title>
<path fill="none" stroke="black" d="M291.205,-806.279C314.309,-819.649 349.916,-840.253 372.95,-853.582"/>
</g>
<!-- 13781 -->
<g id="node12" class="node"><title>13781</title>
<g id="a_node12"><a xlink:title="6th_week">
<ellipse fill="#efff05" stroke="black" cx="39.3836" cy="-746.198" rx="32.4942" ry="18"/>
<text text-anchor="middle" x="39.3836" y="-742.498" font-family="Times,serif" font-size="14.00">13781</text>
</a>
</g>
</g>
<!-- 13781&#45;&gt;33836 -->
<g id="edge44" class="edge"><title>13781&#45;&gt;33836</title>
<path fill="none" stroke="black" d="M63.2311,-758.751C86.6906,-771.099 122.299,-789.842 145.706,-802.163"/>
</g>
<!-- 18603 -->
<g id="node14" class="node"><title>18603</title>
<g id="a_node14"><a xlink:title="6th_week">
<ellipse fill="#efff05" stroke="black" cx="1727.7" cy="-217.283" rx="32.4942" ry="18"/>
<text text-anchor="middle" x="1727.7" y="-213.583" font-family="Times,serif" font-size="14.00">18603</text>
</a>
</g>
</g>
<!-- 18603&#45;&gt;57146 -->
<g id="edge7" class="edge"><title>18603&#45;&gt;57146</title>
<path fill="none" stroke="black" d="M1702.12,-228.543C1675.34,-240.335 1633.51,-258.751 1606.65,-270.576"/>
</g>
<!-- 18820 -->
<g id="node15" class="node"><title>18820</title>
<g id="a_node15"><a xlink:title="6th_week">
<ellipse fill="#efff05" stroke="black" cx="1718.38" cy="-358.71" rx="32.4942" ry="18"/>
<text text-anchor="middle" x="1718.38" y="-355.01" font-family="Times,serif" font-size="14.00">18820</text>
</a>
</g>
</g>
<!-- 18820&#45;&gt;57146 -->
<g id="edge4" class="edge"><title>18820&#45;&gt;57146</title>
<path fill="none" stroke="black" d="M1695.37,-345.857C1669.98,-331.683 1629.38,-309.009 1603.97,-294.818"/>
</g>
<!-- 20067 -->
<g id="node17" class="node"><title>20067</title>
<g id="a_node17"><a xlink:title="6th_week">
<ellipse fill="#efff05" stroke="black" cx="419.335" cy="-1019.34" rx="32.4942" ry="18"/>
<text text-anchor="middle" x="419.335" y="-1015.64" font-family="Times,serif" font-size="14.00">20067</text>
</a>
</g>
</g>
<!-- 20067&#45;&gt;26602 -->
<g id="edge32" class="edge"><title>20067&#45;&gt;26602</title>
<path fill="none" stroke="black" d="M416.501,-1001.22C411.903,-971.824 402.872,-914.079 398.277,-884.698"/>
</g>
<!-- 20509 -->
<g id="node51" class="node"><title>20509</title>
<g id="a_node51"><a xlink:title="6th_week">
<ellipse fill="grey" stroke="black" cx="1384.52" cy="-18.3236" rx="32.4942" ry="18"/>
<text text-anchor="middle" x="1384.52" y="-14.6236" font-family="Times,serif" font-size="14.00">20509</text>
</a>
</g>
</g>
<!-- 20597&#45;&gt;20509 -->
<g id="edge20" class="edge"><title>20597&#45;&gt;20509</title>
<path fill="none" stroke="black" d="M1380.83,-137.655C1381.64,-111.336 1383.14,-63.0326 1383.95,-36.6719"/>
</g>
<!-- 22247 -->
<g id="node19" class="node"><title>22247</title>
<g id="a_node19"><a xlink:title="6th_week">
<ellipse fill="#efff05" stroke="black" cx="836.017" cy="-708.306" rx="32.4942" ry="18"/>
<text text-anchor="middle" x="836.017" y="-704.606" font-family="Times,serif" font-size="14.00">22247</text>
</a>
</g>
</g>
<!-- 25553 -->
<g id="node23" class="node"><title>25553</title>
<g id="a_node23"><a xlink:title="6th_week">
<ellipse fill="#efff05" stroke="black" cx="625.77" cy="-792.342" rx="32.4942" ry="18"/>
<text text-anchor="middle" x="625.77" y="-788.642" font-family="Times,serif" font-size="14.00">25553</text>
</a>
</g>
</g>
<!-- 22247&#45;&gt;25553 -->
<g id="edge52" class="edge"><title>22247&#45;&gt;25553</title>
<path fill="none" stroke="black" d="M809.389,-718.949C768.947,-735.114 692.495,-765.672 652.182,-781.785"/>
</g>
<!-- 35793 -->
<g id="node32" class="node"><title>35793</title>
<g id="a_node32"><a xlink:title="6th_week">
<ellipse fill="#efff05" stroke="black" cx="1046.29" cy="-608.278" rx="32.4942" ry="18"/>
<text text-anchor="middle" x="1046.29" y="-604.578" font-family="Times,serif" font-size="14.00">35793</text>
</a>
</g>
</g>
<!-- 22247&#45;&gt;35793 -->
<g id="edge37" class="edge"><title>22247&#45;&gt;35793</title>
<path fill="none" stroke="black" d="M860.964,-696.439C901.434,-677.188 980.93,-639.371 1021.38,-620.13"/>
</g>
<!-- 58319 -->
<g id="node53" class="node"><title>58319</title>
<g id="a_node53"><a xlink:title="6th_week">
<ellipse fill="#ff9f0f" stroke="black" cx="927.156" cy="-807.053" rx="32.4942" ry="18"/>
<text text-anchor="middle" x="927.156" y="-803.353" font-family="Times,serif" font-size="14.00">58319</text>
</a>
</g>
</g>
<!-- 22247&#45;&gt;58319 -->
<g id="edge26" class="edge"><title>22247&#45;&gt;58319</title>
<path fill="none" stroke="black" d="M851.067,-724.612C867.953,-742.908 895.188,-772.417 912.084,-790.723"/>
</g>
<!-- 22421 -->
<g id="node20" class="node"><title>22421</title>
<g id="a_node20"><a xlink:title="6th_week">
<ellipse fill="#efff05" stroke="black" cx="482.042" cy="-964.638" rx="32.4942" ry="18"/>
<text text-anchor="middle" x="482.042" y="-960.938" font-family="Times,serif" font-size="14.00">22421</text>
</a>
</g>
</g>
<!-- 22421&#45;&gt;26602 -->
<g id="edge43" class="edge"><title>22421&#45;&gt;26602</title>
<path fill="none" stroke="black" d="M467.742,-948.449C451.698,-930.284 425.821,-900.988 409.768,-882.813"/>
</g>
<!-- 23965 -->
<g id="node21" class="node"><title>23965</title>
<g id="a_node21"><a xlink:title="6th_week">
<ellipse fill="#ffffff" stroke="black" cx="1742.6" cy="-286.18" rx="32.4942" ry="18"/>
<text text-anchor="middle" x="1742.6" y="-282.48" font-family="Times,serif" font-size="14.00">23965</text>
</a>
</g>
</g>
<!-- 23965&#45;&gt;57146 -->
<g id="edge5" class="edge"><title>23965&#45;&gt;57146</title>
<path fill="none" stroke="black" d="M1709.87,-285.319C1681.81,-284.58 1641.6,-283.522 1613.56,-282.784"/>
</g>
<!-- 24945 -->
<g id="node22" class="node"><title>24945</title>
<g id="a_node22"><a xlink:title="6th_week">
<ellipse fill="#efff05" stroke="black" cx="346.315" cy="-995.836" rx="32.4942" ry="18"/>
<text text-anchor="middle" x="346.315" y="-992.136" font-family="Times,serif" font-size="14.00">24945</text>
</a>
</g>
</g>
<!-- 24945&#45;&gt;26602 -->
<g id="edge33" class="edge"><title>24945&#45;&gt;26602</title>
<path fill="none" stroke="black" d="M353.043,-978.138C362.399,-953.527 379.245,-909.217 388.642,-884.5"/>
</g>
<!-- 25553&#45;&gt;26602 -->
<g id="edge53" class="edge"><title>25553&#45;&gt;26602</title>
<path fill="none" stroke="black" d="M597.528,-801.448C553.203,-815.738 467.805,-843.271 423.559,-857.536"/>
</g>
<!-- 25729 -->
<g id="node24" class="node"><title>25729</title>
<g id="a_node24"><a xlink:title="6th_week">
<ellipse fill="#ffffff" stroke="black" cx="244.949" cy="-881.205" rx="32.4942" ry="18"/>
<text text-anchor="middle" x="244.949" y="-877.505" font-family="Times,serif" font-size="14.00">25729</text>
</a>
</g>
</g>
<!-- 25729&#45;&gt;26602 -->
<g id="edge35" class="edge"><title>25729&#45;&gt;26602</title>
<path fill="none" stroke="black" d="M277.235,-878.072C302.628,-875.607 337.836,-872.191 363.215,-869.728"/>
</g>
<!-- 26602&#45;&gt;33836 -->
<g id="edge14" class="edge"><title>26602&#45;&gt;33836</title>
<path fill="none" stroke="black" d="M365.43,-859.7C322.196,-849.761 242.847,-831.519 199.543,-821.564"/>
</g>
<!-- 55140 -->
<g id="node43" class="node"><title>55140</title>
<g id="a_node43"><a xlink:title="6th_week">
<ellipse fill="#efff05" stroke="black" cx="315.538" cy="-747.476" rx="32.4942" ry="18"/>
<text text-anchor="middle" x="315.538" y="-743.776" font-family="Times,serif" font-size="14.00">55140</text>
</a>
</g>
</g>
<!-- 26602&#45;&gt;55140 -->
<g id="edge6" class="edge"><title>26602&#45;&gt;55140</title>
<path fill="none" stroke="black" d="M383.998,-849.533C368.807,-826.887 342.145,-787.142 326.965,-764.512"/>
</g>
<!-- 26602&#45;&gt;63065 -->
<g id="edge27" class="edge"><title>26602&#45;&gt;63065</title>
<path fill="none" stroke="black" d="M381.612,-883.237C354.031,-916.401 292.493,-990.397 264.948,-1023.52"/>
</g>
<!-- 66759 -->
<g id="node50" class="node"><title>66759</title>
<g id="a_node50"><a xlink:title="6th_week">
<ellipse fill="#efff05" stroke="black" cx="267.507" cy="-948.845" rx="32.4942" ry="18"/>
<text text-anchor="middle" x="267.507" y="-945.145" font-family="Times,serif" font-size="14.00">66759</text>
</a>
</g>
</g>
<!-- 26602&#45;&gt;66759 -->
<g id="edge12" class="edge"><title>26602&#45;&gt;66759</title>
<path fill="none" stroke="black" d="M374.033,-880.366C350.416,-895.548 312.636,-919.834 288.991,-935.034"/>
</g>
<!-- 26690 -->
<g id="node26" class="node"><title>26690</title>
<g id="a_node26"><a xlink:title="6th_week">
<ellipse fill="#efff05" stroke="black" cx="1216.91" cy="-648.593" rx="32.4942" ry="18"/>
<text text-anchor="middle" x="1216.91" y="-644.893" font-family="Times,serif" font-size="14.00">26690</text>
</a>
</g>
</g>
<!-- 26690&#45;&gt;35793 -->
<g id="edge25" class="edge"><title>26690&#45;&gt;35793</title>
<path fill="none" stroke="black" d="M1186.8,-641.478C1155.71,-634.132 1107.48,-622.735 1076.39,-615.39"/>
</g>
<!-- 36988 -->
<g id="node52" class="node"><title>36988</title>
<g id="a_node52"><a xlink:title="6th_week">
<ellipse fill="grey" stroke="black" cx="1334.14" cy="-716.494" rx="32.4942" ry="18"/>
<text text-anchor="middle" x="1334.14" y="-712.794" font-family="Times,serif" font-size="14.00">36988</text>
</a>
</g>
</g>
<!-- 26690&#45;&gt;36988 -->
<g id="edge3" class="edge"><title>26690&#45;&gt;36988</title>
<path fill="none" stroke="black" d="M1239.51,-661.685C1260.27,-673.709 1290.87,-691.431 1311.6,-703.442"/>
</g>
<!-- 47358 -->
<g id="node34" class="node"><title>47358</title>
<g id="a_node34"><a xlink:title="6th_week">
<ellipse fill="#efff05" stroke="black" cx="33.7491" cy="-870.858" rx="32.4942" ry="18"/>
<text text-anchor="middle" x="33.7491" y="-867.158" font-family="Times,serif" font-size="14.00">47358</text>
</a>
</g>
</g>
<!-- 33836&#45;&gt;47358 -->
<g id="edge45" class="edge"><title>33836&#45;&gt;47358</title>
<path fill="none" stroke="black" d="M143.247,-825.476C119.226,-835.432 83.8198,-850.106 59.8241,-860.051"/>
</g>
<!-- 35052 -->
<g id="node30" class="node"><title>35052</title>
<g id="a_node30"><a xlink:title="6th_week">
<ellipse fill="#efff05" stroke="black" cx="647.759" cy="-1448.91" rx="32.4942" ry="18"/>
<text text-anchor="middle" x="647.759" y="-1445.21" font-family="Times,serif" font-size="14.00">35052</text>
</a>
</g>
</g>
<!-- 35052&#45;&gt;35199 -->
<g id="edge38" class="edge"><title>35052&#45;&gt;35199</title>
<path fill="none" stroke="black" d="M652.738,-1430.87C660.961,-1401.07 677.286,-1341.91 685.488,-1312.18"/>
</g>
<!-- 50018 -->
<g id="node37" class="node"><title>50018</title>
<g id="a_node37"><a xlink:title="6th_week">
<ellipse fill="#efff05" stroke="black" cx="805.24" cy="-1401.01" rx="32.4942" ry="18"/>
<text text-anchor="middle" x="805.24" y="-1397.31" font-family="Times,serif" font-size="14.00">50018</text>
</a>
</g>
</g>
<!-- 35199&#45;&gt;50018 -->
<g id="edge34" class="edge"><title>35199&#45;&gt;50018</title>
<path fill="none" stroke="black" d="M707.375,-1310.01C729.206,-1330.31 766.922,-1365.38 788.604,-1385.54"/>
</g>
<!-- 52158 -->
<g id="node40" class="node"><title>52158</title>
<g id="a_node40"><a xlink:title="6th_week">
<ellipse fill="#efff05" stroke="black" cx="1161.39" cy="-708.61" rx="32.4942" ry="18"/>
<text text-anchor="middle" x="1161.39" y="-704.91" font-family="Times,serif" font-size="14.00">52158</text>
</a>
</g>
</g>
<!-- 35793&#45;&gt;52158 -->
<g id="edge24" class="edge"><title>35793&#45;&gt;52158</title>
<path fill="none" stroke="black" d="M1063.77,-623.517C1085.41,-642.374 1122.04,-674.305 1143.75,-693.229"/>
</g>
<!-- 53347 -->
<g id="node41" class="node"><title>53347</title>
<g id="a_node41"><a xlink:title="6th_week">
<ellipse fill="#efff05" stroke="black" cx="1080.74" cy="-737.259" rx="32.4942" ry="18"/>
<text text-anchor="middle" x="1080.74" y="-733.559" font-family="Times,serif" font-size="14.00">53347</text>
</a>
</g>
</g>
<!-- 35793&#45;&gt;53347 -->
<g id="edge11" class="edge"><title>35793&#45;&gt;53347</title>
<path fill="none" stroke="black" d="M1051.08,-626.213C1057.63,-650.716 1069.3,-694.421 1075.88,-719.061"/>
</g>
<!-- 61369 -->
<g id="node45" class="node"><title>61369</title>
<g id="a_node45"><a xlink:title="6th_week">
<ellipse fill="#efff05" stroke="black" cx="1049.98" cy="-468.485" rx="32.4942" ry="18"/>
<text text-anchor="middle" x="1049.98" y="-464.785" font-family="Times,serif" font-size="14.00">61369</text>
</a>
</g>
</g>
<!-- 35793&#45;&gt;61369 -->
<g id="edge2" class="edge"><title>35793&#45;&gt;61369</title>
<path fill="none" stroke="black" d="M1046.78,-590.003C1047.48,-563.212 1048.79,-513.559 1049.5,-486.765"/>
</g>
<!-- 35793&#45;&gt;65135 -->
<g id="edge13" class="edge"><title>35793&#45;&gt;65135</title>
<path fill="none" stroke="black" d="M1064.46,-593.318C1099.35,-564.583 1175.38,-501.966 1210.42,-473.104"/>
</g>
<!-- 52855 -->
<g id="node54" class="node"><title>52855</title>
<g id="a_node54"><a xlink:title="6th_week">
<ellipse fill="#ffffff" stroke="black" cx="1129.4" cy="-649.932" rx="32.4942" ry="18"/>
<text text-anchor="middle" x="1129.4" y="-646.232" font-family="Times,serif" font-size="14.00">52855</text>
</a>
</g>
</g>
<!-- 35793&#45;&gt;52855 -->
<g id="edge51" class="edge"><title>35793&#45;&gt;52855</title>
<path fill="none" stroke="black" d="M1070.78,-620.551C1081.6,-625.974 1094.29,-632.334 1105.09,-637.748"/>
</g>
<!-- 48733 -->
<g id="node36" class="node"><title>48733</title>
<g id="a_node36"><a xlink:title="6th_week">
<ellipse fill="#efff05" stroke="black" cx="1551.73" cy="-69.6756" rx="32.4942" ry="18"/>
<text text-anchor="middle" x="1551.73" y="-65.9756" font-family="Times,serif" font-size="14.00">48733</text>
</a>
</g>
</g>
<!-- 48733&#45;&gt;64000 -->
<g id="edge9" class="edge"><title>48733&#45;&gt;64000</title>
<path fill="none" stroke="black" d="M1544.09,-87.3072C1533.08,-112.702 1512.87,-159.311 1501.84,-184.747"/>
</g>
<!-- 50672 -->
<g id="node38" class="node"><title>50672</title>
<g id="a_node38"><a xlink:title="6th_week">
<ellipse fill="#efff05" stroke="black" cx="200.818" cy="-1181.35" rx="32.4942" ry="18"/>
<text text-anchor="middle" x="200.818" y="-1177.65" font-family="Times,serif" font-size="14.00">50672</text>
</a>
</g>
</g>
<!-- 50672&#45;&gt;63065 -->
<g id="edge10" class="edge"><title>50672&#45;&gt;63065</title>
<path fill="none" stroke="black" d="M207.193,-1163.46C216.876,-1136.29 235.179,-1084.93 244.831,-1057.85"/>
</g>
<!-- 51577 -->
<g id="node39" class="node"><title>51577</title>
<g id="a_node39"><a xlink:title="6th_week">
<ellipse fill="#efff05" stroke="black" cx="136.947" cy="-1128.54" rx="32.4942" ry="18"/>
<text text-anchor="middle" x="136.947" y="-1124.84" font-family="Times,serif" font-size="14.00">51577</text>
</a>
</g>
</g>
<!-- 51577&#45;&gt;63065 -->
<g id="edge19" class="edge"><title>51577&#45;&gt;63065</title>
<path fill="none" stroke="black" d="M156.062,-1113.74C177.144,-1097.41 210.869,-1071.3 231.976,-1054.96"/>
</g>
<!-- 63991 -->
<g id="node47" class="node"><title>63991</title>
<g id="a_node47"><a xlink:title="6th_week">
<ellipse fill="#efff05" stroke="black" cx="1679.25" cy="-163.98" rx="32.4942" ry="18"/>
<text text-anchor="middle" x="1679.25" y="-160.28" font-family="Times,serif" font-size="14.00">63991</text>
</a>
</g>
</g>
<!-- 57146&#45;&gt;63991 -->
<g id="edge18" class="edge"><title>57146&#45;&gt;63991</title>
<path fill="none" stroke="black" d="M1594.56,-265.524C1613.25,-243.117 1646.58,-203.152 1665.37,-180.62"/>
</g>
<!-- 37240 -->
<g id="node55" class="node"><title>37240</title>
<g id="a_node55"><a xlink:title="6th_week">
<ellipse fill="#ffffff" stroke="black" cx="293.767" cy="-1191.48" rx="32.4942" ry="18"/>
<text text-anchor="middle" x="293.767" y="-1187.78" font-family="Times,serif" font-size="14.00">37240</text>
</a>
</g>
</g>
<!-- 63065&#45;&gt;37240 -->
<g id="edge42" class="edge"><title>63065&#45;&gt;37240</title>
<path fill="none" stroke="black" d="M256.21,-1058.07C264.411,-1087.2 280.521,-1144.43 288.718,-1173.55"/>
</g>
</g>
</svg>
