<?xml version="1.0" encoding="UTF-8" standalone="no"?>
<!DOCTYPE svg PUBLIC "-//W3C//DTD SVG 1.1//EN"
 "http://www.w3.org/Graphics/SVG/1.1/DTD/svg11.dtd">
<!-- Generated by graphviz version 2.38.0 (20140413.2041)
 -->
<!-- Title: %3 Pages: 1 -->
<svg width="2307pt" height="1671pt"
 viewBox="0.00 0.00 2307.00 1671.00" xmlns="http://www.w3.org/2000/svg" xmlns:xlink="http://www.w3.org/1999/xlink">
<g id="graph0" class="graph" transform="scale(1 1) rotate(0) translate(4 1667)">
<title>%3</title>
<polygon fill="white" stroke="none" points="-4,4 -4,-1667 2303,-1667 2303,4 -4,4"/>
<!-- 2267 -->
<g id="node1" class="node"><title>2267</title>
<g id="a_node1"><a xlink:title="Day_0">
<ellipse fill="#efff05" stroke="black" cx="269.78" cy="-396.151" rx="28.6953" ry="18"/>
<text text-anchor="middle" x="269.78" y="-392.451" font-family="Times,serif" font-size="14.00">2267</text>
</a>
</g>
</g>
<!-- 18488 -->
<g id="node7" class="node"><title>18488</title>
<g id="a_node7"><a xlink:title="Day_0">
<ellipse fill="#ffffff" stroke="black" cx="94.5857" cy="-326.671" rx="32.4942" ry="18"/>
<text text-anchor="middle" x="94.5857" y="-322.971" font-family="Times,serif" font-size="14.00">18488</text>
</a>
</g>
</g>
<!-- 2267&#45;&gt;18488 -->
<g id="edge34" class="edge"><title>2267&#45;&gt;18488</title>
<path fill="none" stroke="black" d="M245.42,-386.49C212.701,-373.514 154.777,-350.542 121.027,-337.157"/>
</g>
<!-- 40134 -->
<g id="node20" class="node"><title>40134</title>
<g id="a_node20"><a xlink:title="6th_week,Day_0">
<ellipse fill="#efff05" stroke="black" cx="516.62" cy="-496.1" rx="32.4945" ry="18"/>
<ellipse fill="none" stroke="black" cx="516.62" cy="-496.1" rx="36.4942" ry="22"/>
<text text-anchor="middle" x="516.62" y="-492.4" font-family="Times,serif" font-size="14.00">40134</text>
</a>
</g>
</g>
<!-- 2267&#45;&gt;40134 -->
<g id="edge24" class="edge"><title>2267&#45;&gt;40134</title>
<path fill="none" stroke="black" d="M293.897,-405.916C339.146,-424.238 436.673,-463.728 486.291,-483.82"/>
</g>
<!-- 3352 -->
<g id="node2" class="node"><title>3352</title>
<g id="a_node2"><a xlink:title="Day_0">
<ellipse fill="#efff05" stroke="black" cx="745.462" cy="-438.458" rx="28.6953" ry="18"/>
<text text-anchor="middle" x="745.462" y="-434.758" font-family="Times,serif" font-size="14.00">3352</text>
</a>
</g>
</g>
<!-- 3352&#45;&gt;40134 -->
<g id="edge1" class="edge"><title>3352&#45;&gt;40134</title>
<path fill="none" stroke="black" d="M718.763,-445.183C677.026,-455.696 596.37,-476.012 550.565,-487.55"/>
</g>
<!-- 3708 -->
<g id="node3" class="node"><title>3708</title>
<g id="a_node3"><a xlink:title="Day_0">
<ellipse fill="#efff05" stroke="black" cx="441.311" cy="-353.986" rx="28.6953" ry="18"/>
<text text-anchor="middle" x="441.311" y="-350.286" font-family="Times,serif" font-size="14.00">3708</text>
</a>
</g>
</g>
<!-- 3708&#45;&gt;40134 -->
<g id="edge27" class="edge"><title>3708&#45;&gt;40134</title>
<path fill="none" stroke="black" d="M450.395,-371.128C464.166,-397.114 490.303,-446.438 505.294,-474.728"/>
</g>
<!-- 8799 -->
<g id="node4" class="node"><title>8799</title>
<g id="a_node4"><a xlink:title="6th_week">
<ellipse fill="#efff05" stroke="black" cx="511.127" cy="-302.426" rx="28.6953" ry="18"/>
<text text-anchor="middle" x="511.127" y="-298.726" font-family="Times,serif" font-size="14.00">8799</text>
</a>
</g>
</g>
<!-- 8799&#45;&gt;40134 -->
<g id="edge35" class="edge"><title>8799&#45;&gt;40134</title>
<path fill="none" stroke="black" d="M511.643,-320.646C512.655,-356.335 514.896,-435.327 515.992,-473.958"/>
</g>
<!-- 11966 -->
<g id="node5" class="node"><title>11966</title>
<g id="a_node5"><a xlink:title="Day_0">
<ellipse fill="#efff05" stroke="black" cx="353.334" cy="-552.404" rx="32.4942" ry="18"/>
<text text-anchor="middle" x="353.334" y="-548.704" font-family="Times,serif" font-size="14.00">11966</text>
</a>
</g>
</g>
<!-- 11966&#45;&gt;40134 -->
<g id="edge5" class="edge"><title>11966&#45;&gt;40134</title>
<path fill="none" stroke="black" d="M381.033,-542.853C409.785,-532.939 454.694,-517.453 484.864,-507.05"/>
</g>
<!-- 16163 -->
<g id="node6" class="node"><title>16163</title>
<g id="a_node6"><a xlink:title="Day_0">
<ellipse fill="#efff05" stroke="black" cx="500.177" cy="-709.372" rx="32.4942" ry="18"/>
<text text-anchor="middle" x="500.177" y="-705.672" font-family="Times,serif" font-size="14.00">16163</text>
</a>
</g>
</g>
<!-- 16163&#45;&gt;40134 -->
<g id="edge25" class="edge"><title>16163&#45;&gt;40134</title>
<path fill="none" stroke="black" d="M501.579,-691.188C504.585,-652.205 511.64,-560.695 514.905,-518.336"/>
</g>
<!-- 18667 -->
<g id="node8" class="node"><title>18667</title>
<g id="a_node8"><a xlink:title="Day_0">
<ellipse fill="#efff05" stroke="black" cx="350.976" cy="-454.197" rx="32.4942" ry="18"/>
<text text-anchor="middle" x="350.976" y="-450.497" font-family="Times,serif" font-size="14.00">18667</text>
</a>
</g>
</g>
<!-- 18667&#45;&gt;40134 -->
<g id="edge3" class="edge"><title>18667&#45;&gt;40134</title>
<path fill="none" stroke="black" d="M380.59,-461.688C409.251,-468.939 452.656,-479.919 482.693,-487.518"/>
</g>
<!-- 19828 -->
<g id="node9" class="node"><title>19828</title>
<g id="a_node9"><a xlink:title="Day_0">
<ellipse fill="#efff05" stroke="black" cx="54.5346" cy="-686.267" rx="32.4942" ry="18"/>
<text text-anchor="middle" x="54.5346" y="-682.567" font-family="Times,serif" font-size="14.00">19828</text>
</a>
</g>
</g>
<!-- 41954 -->
<g id="node23" class="node"><title>41954</title>
<g id="a_node23"><a xlink:title="Day_0">
<ellipse fill="#efff05" stroke="black" cx="221.213" cy="-590.225" rx="32.4942" ry="18"/>
<text text-anchor="middle" x="221.213" y="-586.525" font-family="Times,serif" font-size="14.00">41954</text>
</a>
</g>
</g>
<!-- 19828&#45;&gt;41954 -->
<g id="edge11" class="edge"><title>19828&#45;&gt;41954</title>
<path fill="none" stroke="black" d="M77.3611,-673.114C109.28,-654.722 166.892,-621.525 198.662,-603.219"/>
</g>
<!-- 21201 -->
<g id="node10" class="node"><title>21201</title>
<g id="a_node10"><a xlink:title="Day_0">
<ellipse fill="#efff05" stroke="black" cx="1302.72" cy="-881.981" rx="32.4942" ry="18"/>
<text text-anchor="middle" x="1302.72" y="-878.281" font-family="Times,serif" font-size="14.00">21201</text>
</a>
</g>
</g>
<!-- 41702 -->
<g id="node22" class="node"><title>41702</title>
<g id="a_node22"><a xlink:title="Day_0">
<ellipse fill="#efff05" stroke="black" cx="1456.45" cy="-807.566" rx="32.4942" ry="18"/>
<text text-anchor="middle" x="1456.45" y="-803.866" font-family="Times,serif" font-size="14.00">41702</text>
</a>
</g>
</g>
<!-- 21201&#45;&gt;41702 -->
<g id="edge26" class="edge"><title>21201&#45;&gt;41702</title>
<path fill="none" stroke="black" d="M1327.42,-870.025C1356.11,-856.138 1403.15,-833.366 1431.81,-819.492"/>
</g>
<!-- 54419 -->
<g id="node30" class="node"><title>54419</title>
<g id="a_node30"><a xlink:title="6th_week">
<ellipse fill="#efff05" stroke="black" cx="1104.52" cy="-984.745" rx="32.4942" ry="18"/>
<text text-anchor="middle" x="1104.52" y="-981.045" font-family="Times,serif" font-size="14.00">54419</text>
</a>
</g>
</g>
<!-- 21201&#45;&gt;54419 -->
<g id="edge17" class="edge"><title>21201&#45;&gt;54419</title>
<path fill="none" stroke="black" d="M1278.81,-894.377C1240.72,-914.128 1166.66,-952.526 1128.51,-972.305"/>
</g>
<!-- 22795 -->
<g id="node11" class="node"><title>22795</title>
<g id="a_node11"><a xlink:title="Day_0">
<ellipse fill="#ffffff" stroke="black" cx="473.941" cy="-17.6581" rx="32.4942" ry="18"/>
<text text-anchor="middle" x="473.941" y="-13.9581" font-family="Times,serif" font-size="14.00">22795</text>
</a>
</g>
</g>
<!-- 56231 -->
<g id="node31" class="node"><title>56231</title>
<g id="a_node31"><a xlink:title="Day_0">
<ellipse fill="#efff05" stroke="black" cx="518.757" cy="-202.417" rx="32.4942" ry="18"/>
<text text-anchor="middle" x="518.757" y="-198.717" font-family="Times,serif" font-size="14.00">56231</text>
</a>
</g>
</g>
<!-- 22795&#45;&gt;56231 -->
<g id="edge32" class="edge"><title>22795&#45;&gt;56231</title>
<path fill="none" stroke="black" d="M478.32,-35.7099C486.91,-71.1223 505.876,-149.312 514.427,-184.564"/>
</g>
<!-- 23348 -->
<g id="node12" class="node"><title>23348</title>
<g id="a_node12"><a xlink:title="6th_week">
<ellipse fill="#efff05" stroke="black" cx="980.587" cy="-1085.69" rx="32.4942" ry="18"/>
<text text-anchor="middle" x="980.587" y="-1081.99" font-family="Times,serif" font-size="14.00">23348</text>
</a>
</g>
</g>
<!-- 23348&#45;&gt;54419 -->
<g id="edge56" class="edge"><title>23348&#45;&gt;54419</title>
<path fill="none" stroke="black" d="M998.874,-1070.79C1022.31,-1051.71 1062.69,-1018.81 1086.16,-999.7"/>
</g>
<!-- 24175 -->
<g id="node13" class="node"><title>24175</title>
<g id="a_node13"><a xlink:title="Day_0">
<ellipse fill="grey" stroke="black" cx="561.459" cy="-17.5586" rx="32.4942" ry="18"/>
<text text-anchor="middle" x="561.459" y="-13.8586" font-family="Times,serif" font-size="14.00">24175</text>
</a>
</g>
</g>
<!-- 24175&#45;&gt;56231 -->
<g id="edge30" class="edge"><title>24175&#45;&gt;56231</title>
<path fill="none" stroke="black" d="M557.287,-35.6202C549.102,-71.0516 531.031,-149.283 522.884,-184.554"/>
</g>
<!-- 25102 -->
<g id="node14" class="node"><title>25102</title>
<g id="a_node14"><a xlink:title="6th_week">
<ellipse fill="#efff05" stroke="black" cx="430.171" cy="-290.889" rx="32.4942" ry="18"/>
<text text-anchor="middle" x="430.171" y="-287.189" font-family="Times,serif" font-size="14.00">25102</text>
</a>
</g>
</g>
<!-- 25102&#45;&gt;40134 -->
<g id="edge12" class="edge"><title>25102&#45;&gt;40134</title>
<path fill="none" stroke="black" d="M437.692,-308.741C453.548,-346.381 490.357,-433.757 507.513,-474.483"/>
</g>
<!-- 26890 -->
<g id="node15" class="node"><title>26890</title>
<g id="a_node15"><a xlink:title="Day_0">
<ellipse fill="grey" stroke="black" cx="32.5321" cy="-600.954" rx="32.4942" ry="18"/>
<text text-anchor="middle" x="32.5321" y="-597.254" font-family="Times,serif" font-size="14.00">26890</text>
</a>
</g>
</g>
<!-- 26890&#45;&gt;41954 -->
<g id="edge28" class="edge"><title>26890&#45;&gt;41954</title>
<path fill="none" stroke="black" d="M64.9675,-599.11C99.6325,-597.139 154.262,-594.032 188.886,-592.063"/>
</g>
<!-- 27135 -->
<g id="node16" class="node"><title>27135</title>
<g id="a_node16"><a xlink:title="6th_week">
<ellipse fill="#efff05" stroke="black" cx="1191.44" cy="-851.371" rx="32.4942" ry="18"/>
<text text-anchor="middle" x="1191.44" y="-847.671" font-family="Times,serif" font-size="14.00">27135</text>
</a>
</g>
</g>
<!-- 27135&#45;&gt;54419 -->
<g id="edge6" class="edge"><title>27135&#45;&gt;54419</title>
<path fill="none" stroke="black" d="M1180.25,-868.534C1163.56,-894.144 1132.33,-942.076 1115.66,-967.647"/>
</g>
<!-- 31477 -->
<g id="node17" class="node"><title>31477</title>
<g id="a_node17"><a xlink:title="6th_week">
<ellipse fill="#efff05" stroke="black" cx="215.965" cy="-139.353" rx="32.4942" ry="18"/>
<text text-anchor="middle" x="215.965" y="-135.653" font-family="Times,serif" font-size="14.00">31477</text>
</a>
</g>
</g>
<!-- 48898 -->
<g id="node27" class="node"><title>48898</title>
<g id="a_node27"><a xlink:title="Day_0">
<ellipse fill="grey" stroke="black" cx="340.029" cy="-287.533" rx="32.4942" ry="18"/>
<text text-anchor="middle" x="340.029" y="-283.833" font-family="Times,serif" font-size="14.00">48898</text>
</a>
</g>
</g>
<!-- 31477&#45;&gt;48898 -->
<g id="edge45" class="edge"><title>31477&#45;&gt;48898</title>
<path fill="none" stroke="black" d="M229.717,-155.777C253.564,-184.26 302.326,-242.501 326.217,-271.035"/>
</g>
<!-- 37322 -->
<g id="node18" class="node"><title>37322</title>
<g id="a_node18"><a xlink:title="Day_0">
<ellipse fill="#ffffff" stroke="black" cx="680.163" cy="-557.319" rx="32.4942" ry="18"/>
<text text-anchor="middle" x="680.163" y="-553.619" font-family="Times,serif" font-size="14.00">37322</text>
</a>
</g>
</g>
<!-- 37322&#45;&gt;40134 -->
<g id="edge41" class="edge"><title>37322&#45;&gt;40134</title>
<path fill="none" stroke="black" d="M653.157,-547.21C624.216,-536.376 578.336,-519.202 547.859,-507.794"/>
</g>
<!-- 37329 -->
<g id="node19" class="node"><title>37329</title>
<g id="a_node19"><a xlink:title="Day_0">
<ellipse fill="#efff05" stroke="black" cx="592.883" cy="-665.754" rx="32.4942" ry="18"/>
<text text-anchor="middle" x="592.883" y="-662.054" font-family="Times,serif" font-size="14.00">37329</text>
</a>
</g>
</g>
<!-- 37329&#45;&gt;40134 -->
<g id="edge48" class="edge"><title>37329&#45;&gt;40134</title>
<path fill="none" stroke="black" d="M585.009,-648.237C570.927,-616.912 541.483,-551.411 526.234,-517.487"/>
</g>
<!-- 40417 -->
<g id="node21" class="node"><title>40417</title>
<g id="a_node21"><a xlink:title="Day_0">
<ellipse fill="#efff05" stroke="black" cx="593.552" cy="-296.954" rx="32.4942" ry="18"/>
<text text-anchor="middle" x="593.552" y="-293.254" font-family="Times,serif" font-size="14.00">40417</text>
</a>
</g>
</g>
<!-- 40134&#45;&gt;40417 -->
<g id="edge8" class="edge"><title>40134&#45;&gt;40417</title>
<path fill="none" stroke="black" d="M524.999,-474.409C540.343,-434.69 572.667,-351.016 586.752,-314.557"/>
</g>
<!-- 40134&#45;&gt;41954 -->
<g id="edge50" class="edge"><title>40134&#45;&gt;41954</title>
<path fill="none" stroke="black" d="M484.161,-506.442C426.007,-524.972 304.987,-563.532 249.779,-581.123"/>
</g>
<!-- 41960 -->
<g id="node24" class="node"><title>41960</title>
<g id="a_node24"><a xlink:title="Day_0">
<ellipse fill="#efff05" stroke="black" cx="823.596" cy="-754.988" rx="32.4942" ry="18"/>
<text text-anchor="middle" x="823.596" y="-751.288" font-family="Times,serif" font-size="14.00">41960</text>
</a>
</g>
</g>
<!-- 40134&#45;&gt;41960 -->
<g id="edge52" class="edge"><title>40134&#45;&gt;41960</title>
<path fill="none" stroke="black" d="M538.206,-514.304C595.797,-562.874 752.329,-694.885 805.58,-739.794"/>
</g>
<!-- 45944 -->
<g id="node26" class="node"><title>45944</title>
<g id="a_node26"><a xlink:title="6th_week">
<ellipse fill="#20ff05" stroke="black" cx="675.107" cy="-494.169" rx="32.4942" ry="18"/>
<text text-anchor="middle" x="675.107" y="-490.469" font-family="Times,serif" font-size="14.00">45944</text>
</a>
</g>
</g>
<!-- 40134&#45;&gt;45944 -->
<g id="edge42" class="edge"><title>40134&#45;&gt;45944</title>
<path fill="none" stroke="black" d="M553.378,-495.652C580.354,-495.323 616.655,-494.881 642.581,-494.565"/>
</g>
<!-- 40134&#45;&gt;48898 -->
<g id="edge15" class="edge"><title>40134&#45;&gt;48898</title>
<path fill="none" stroke="black" d="M500.006,-476.478C465.405,-435.612 386.162,-342.018 353.989,-304.02"/>
</g>
<!-- 49066 -->
<g id="node28" class="node"><title>49066</title>
<g id="a_node28"><a xlink:title="Day_0">
<ellipse fill="#efff05" stroke="black" cx="294.267" cy="-501.846" rx="32.4942" ry="18"/>
<text text-anchor="middle" x="294.267" y="-498.146" font-family="Times,serif" font-size="14.00">49066</text>
</a>
</g>
</g>
<!-- 40134&#45;&gt;49066 -->
<g id="edge23" class="edge"><title>40134&#45;&gt;49066</title>
<path fill="none" stroke="black" d="M479.903,-497.049C437.347,-498.149 367.855,-499.944 327.05,-500.999"/>
</g>
<!-- 40134&#45;&gt;56231 -->
<g id="edge22" class="edge"><title>40134&#45;&gt;56231</title>
<path fill="none" stroke="black" d="M516.78,-474.026C517.187,-418.133 518.252,-271.821 518.626,-220.513"/>
</g>
<!-- 56413 -->
<g id="node32" class="node"><title>56413</title>
<g id="a_node32"><a xlink:title="Day_0">
<ellipse fill="#efff05" stroke="black" cx="579.625" cy="-354.387" rx="32.4942" ry="18"/>
<text text-anchor="middle" x="579.625" y="-350.687" font-family="Times,serif" font-size="14.00">56413</text>
</a>
</g>
</g>
<!-- 40134&#45;&gt;56413 -->
<g id="edge16" class="edge"><title>40134&#45;&gt;56413</title>
<path fill="none" stroke="black" d="M526.189,-474.577C538.65,-446.547 560.203,-398.071 571.761,-372.073"/>
</g>
<!-- 57185 -->
<g id="node33" class="node"><title>57185</title>
<g id="a_node33"><a xlink:title="Day_0">
<ellipse fill="#efff05" stroke="black" cx="672.07" cy="-399.124" rx="32.4942" ry="18"/>
<text text-anchor="middle" x="672.07" y="-395.424" font-family="Times,serif" font-size="14.00">57185</text>
</a>
</g>
</g>
<!-- 40134&#45;&gt;57185 -->
<g id="edge29" class="edge"><title>40134&#45;&gt;57185</title>
<path fill="none" stroke="black" d="M542.289,-480.086C572.471,-461.258 622.036,-430.337 650.379,-412.656"/>
</g>
<!-- 57257 -->
<g id="node34" class="node"><title>57257</title>
<g id="a_node34"><a xlink:title="Day_0">
<ellipse fill="grey" stroke="black" cx="346.748" cy="-380.327" rx="32.4942" ry="18"/>
<text text-anchor="middle" x="346.748" y="-376.627" font-family="Times,serif" font-size="14.00">57257</text>
</a>
</g>
</g>
<!-- 40134&#45;&gt;57257 -->
<g id="edge7" class="edge"><title>40134&#45;&gt;57257</title>
<path fill="none" stroke="black" d="M492.281,-479.513C458.704,-456.629 398.764,-415.778 367.31,-394.34"/>
</g>
<!-- 58603 -->
<g id="node35" class="node"><title>58603</title>
<g id="a_node35"><a xlink:title="Day_0">
<ellipse fill="#efff05" stroke="black" cx="656.619" cy="-341.552" rx="32.4942" ry="18"/>
<text text-anchor="middle" x="656.619" y="-337.852" font-family="Times,serif" font-size="14.00">58603</text>
</a>
</g>
</g>
<!-- 40134&#45;&gt;58603 -->
<g id="edge43" class="edge"><title>40134&#45;&gt;58603</title>
<path fill="none" stroke="black" d="M534.351,-476.526C562.31,-445.661 616.118,-386.262 642.004,-357.686"/>
</g>
<!-- 59835 -->
<g id="node36" class="node"><title>59835</title>
<g id="a_node36"><a xlink:title="6th_week">
<ellipse fill="grey" stroke="black" cx="635.171" cy="-619.735" rx="32.4942" ry="18"/>
<text text-anchor="middle" x="635.171" y="-616.035" font-family="Times,serif" font-size="14.00">59835</text>
</a>
</g>
</g>
<!-- 40134&#45;&gt;59835 -->
<g id="edge33" class="edge"><title>40134&#45;&gt;59835</title>
<path fill="none" stroke="black" d="M535.143,-515.418C558.457,-539.731 598.072,-581.045 619.794,-603.698"/>
</g>
<!-- 65929 -->
<g id="node37" class="node"><title>65929</title>
<g id="a_node37"><a xlink:title="Day_0">
<ellipse fill="#efff05" stroke="black" cx="471.145" cy="-650.536" rx="32.4942" ry="18"/>
<text text-anchor="middle" x="471.145" y="-646.836" font-family="Times,serif" font-size="14.00">65929</text>
</a>
</g>
</g>
<!-- 40134&#45;&gt;65929 -->
<g id="edge4" class="edge"><title>40134&#45;&gt;65929</title>
<path fill="none" stroke="black" d="M510.201,-517.899C501.142,-548.663 484.78,-604.23 476.4,-632.687"/>
</g>
<!-- 66490 -->
<g id="node38" class="node"><title>66490</title>
<g id="a_node38"><a xlink:title="Day_0">
<ellipse fill="#ffffff" stroke="black" cx="416.837" cy="-695.568" rx="32.4942" ry="18"/>
<text text-anchor="middle" x="416.837" y="-691.868" font-family="Times,serif" font-size="14.00">66490</text>
</a>
</g>
</g>
<!-- 40134&#45;&gt;66490 -->
<g id="edge40" class="edge"><title>40134&#45;&gt;66490</title>
<path fill="none" stroke="black" d="M505.941,-517.447C486.082,-557.145 443.831,-641.606 425.558,-678.134"/>
</g>
<!-- 66675 -->
<g id="node39" class="node"><title>66675</title>
<g id="a_node39"><a xlink:title="6th_week">
<ellipse fill="grey" stroke="black" cx="322.306" cy="-605.066" rx="32.4942" ry="18"/>
<text text-anchor="middle" x="322.306" y="-601.366" font-family="Times,serif" font-size="14.00">66675</text>
</a>
</g>
</g>
<!-- 40134&#45;&gt;66675 -->
<g id="edge51" class="edge"><title>40134&#45;&gt;66675</title>
<path fill="none" stroke="black" d="M489.601,-511.251C451.121,-532.83 381.211,-572.034 345.161,-592.249"/>
</g>
<!-- 66956 -->
<g id="node40" class="node"><title>66956</title>
<g id="a_node40"><a xlink:title="Day_0">
<ellipse fill="#efff05" stroke="black" cx="375.209" cy="-651.147" rx="32.4942" ry="18"/>
<text text-anchor="middle" x="375.209" y="-647.447" font-family="Times,serif" font-size="14.00">66956</text>
</a>
</g>
</g>
<!-- 40134&#45;&gt;66956 -->
<g id="edge36" class="edge"><title>40134&#45;&gt;66956</title>
<path fill="none" stroke="black" d="M498.996,-515.423C470.861,-546.271 416.302,-606.091 390.04,-634.886"/>
</g>
<!-- 41960&#45;&gt;54419 -->
<g id="edge46" class="edge"><title>41960&#45;&gt;54419</title>
<path fill="none" stroke="black" d="M842.029,-770.063C892.931,-811.693 1035.04,-927.917 1086.02,-969.614"/>
</g>
<!-- 44453 -->
<g id="node25" class="node"><title>44453</title>
<g id="a_node25"><a xlink:title="6th_week">
<ellipse fill="#ffffff" stroke="black" cx="1110.41" cy="-1166.75" rx="32.4942" ry="18"/>
<text text-anchor="middle" x="1110.41" y="-1163.05" font-family="Times,serif" font-size="14.00">44453</text>
</a>
</g>
</g>
<!-- 44453&#45;&gt;54419 -->
<g id="edge2" class="edge"><title>44453&#45;&gt;54419</title>
<path fill="none" stroke="black" d="M1109.82,-1148.64C1108.69,-1113.75 1106.23,-1037.62 1105.11,-1002.79"/>
</g>
<!-- 49640 -->
<g id="node29" class="node"><title>49640</title>
<g id="a_node29"><a xlink:title="6th_week">
<ellipse fill="#efff05" stroke="black" cx="1264.49" cy="-1057.22" rx="32.4942" ry="18"/>
<text text-anchor="middle" x="1264.49" y="-1053.52" font-family="Times,serif" font-size="14.00">49640</text>
</a>
</g>
</g>
<!-- 49640&#45;&gt;54419 -->
<g id="edge38" class="edge"><title>49640&#45;&gt;54419</title>
<path fill="none" stroke="black" d="M1239.14,-1045.74C1209.19,-1032.17 1159.65,-1009.72 1129.75,-996.176"/>
</g>
<!-- 68599 -->
<g id="node41" class="node"><title>68599</title>
<g id="a_node41"><a xlink:title="6th_week">
<ellipse fill="#efff05" stroke="black" cx="1033.92" cy="-1150.19" rx="32.4942" ry="18"/>
<text text-anchor="middle" x="1033.92" y="-1146.49" font-family="Times,serif" font-size="14.00">68599</text>
</a>
</g>
</g>
<!-- 54419&#45;&gt;68599 -->
<g id="edge53" class="edge"><title>54419&#45;&gt;68599</title>
<path fill="none" stroke="black" d="M1096.97,-1002.45C1083.38,-1034.29 1054.97,-1100.86 1041.42,-1132.61"/>
</g>
<!-- 27880 -->
<g id="node42" class="node"><title>27880</title>
<g id="a_node42"><a xlink:title="6th_week">
<ellipse fill="#ffffff" stroke="black" cx="1192.3" cy="-1135.25" rx="32.4942" ry="18"/>
<text text-anchor="middle" x="1192.3" y="-1131.55" font-family="Times,serif" font-size="14.00">27880</text>
</a>
</g>
</g>
<!-- 54419&#45;&gt;27880 -->
<g id="edge19" class="edge"><title>54419&#45;&gt;27880</title>
<path fill="none" stroke="black" d="M1114.59,-1002.01C1131.43,-1030.89 1165.14,-1088.67 1182.08,-1117.72"/>
</g>
<!-- 36078 -->
<g id="node43" class="node"><title>36078</title>
<g id="a_node43"><a xlink:title="6th_week">
<ellipse fill="#ff9f0f" stroke="black" cx="1276.81" cy="-968.5" rx="32.4942" ry="18"/>
<text text-anchor="middle" x="1276.81" y="-964.8" font-family="Times,serif" font-size="14.00">36078</text>
</a>
</g>
</g>
<!-- 54419&#45;&gt;36078 -->
<g id="edge44" class="edge"><title>54419&#45;&gt;36078</title>
<path fill="none" stroke="black" d="M1136.93,-981.689C1167.73,-978.785 1213.79,-974.442 1244.55,-971.542"/>
</g>
<!-- 53712 -->
<g id="node45" class="node"><title>53712</title>
<g id="a_node45"><a xlink:title="3rd_week">
<ellipse fill="#efff05" stroke="black" cx="1356.44" cy="-1217.79" rx="32.4942" ry="18"/>
<text text-anchor="middle" x="1356.44" y="-1214.09" font-family="Times,serif" font-size="14.00">53712</text>
</a>
</g>
</g>
<!-- 54419&#45;&gt;53712 -->
<g id="edge20" class="edge"><title>54419&#45;&gt;53712</title>
<path fill="none" stroke="black" d="M1121.44,-1000.4C1167.34,-1042.85 1293.79,-1159.83 1339.6,-1202.21"/>
</g>
<!-- 45294 -->
<g id="node44" class="node"><title>45294</title>
<g id="a_node44"><a xlink:title="3rd_week">
<ellipse fill="#efff05" stroke="black" cx="1381.58" cy="-1448.73" rx="32.4942" ry="18"/>
<text text-anchor="middle" x="1381.58" y="-1445.03" font-family="Times,serif" font-size="14.00">45294</text>
</a>
</g>
</g>
<!-- 45294&#45;&gt;53712 -->
<g id="edge39" class="edge"><title>45294&#45;&gt;53712</title>
<path fill="none" stroke="black" d="M1379.61,-1430.6C1374.91,-1387.44 1363.1,-1278.91 1358.41,-1235.83"/>
</g>
<!-- 8435 -->
<g id="node46" class="node"><title>8435</title>
<g id="a_node46"><a xlink:title="3rd_week">
<ellipse fill="#efff05" stroke="black" cx="1322.64" cy="-1625.91" rx="28.6953" ry="18"/>
<text text-anchor="middle" x="1322.64" y="-1622.21" font-family="Times,serif" font-size="14.00">8435</text>
</a>
</g>
</g>
<!-- 45294&#45;&gt;8435 -->
<g id="edge49" class="edge"><title>45294&#45;&gt;8435</title>
<path fill="none" stroke="black" d="M1375.6,-1466.69C1364.28,-1500.74 1339.81,-1574.28 1328.54,-1608.16"/>
</g>
<!-- 22288 -->
<g id="node47" class="node"><title>22288</title>
<g id="a_node47"><a xlink:title="3rd_week">
<ellipse fill="#efff05" stroke="black" cx="1407.42" cy="-1645.22" rx="32.4942" ry="18"/>
<text text-anchor="middle" x="1407.42" y="-1641.52" font-family="Times,serif" font-size="14.00">22288</text>
</a>
</g>
</g>
<!-- 45294&#45;&gt;22288 -->
<g id="edge55" class="edge"><title>45294&#45;&gt;22288</title>
<path fill="none" stroke="black" d="M1383.96,-1466.86C1388.89,-1504.29 1400.13,-1589.74 1405.04,-1627.13"/>
</g>
<!-- 51561 -->
<g id="node48" class="node"><title>51561</title>
<g id="a_node48"><a xlink:title="3rd_week">
<ellipse fill="#efff05" stroke="black" cx="1487.15" cy="-1607.18" rx="32.4942" ry="18"/>
<text text-anchor="middle" x="1487.15" y="-1603.48" font-family="Times,serif" font-size="14.00">51561</text>
</a>
</g>
</g>
<!-- 45294&#45;&gt;51561 -->
<g id="edge54" class="edge"><title>45294&#45;&gt;51561</title>
<path fill="none" stroke="black" d="M1392.88,-1465.68C1413.09,-1496.02 1455.23,-1559.27 1475.61,-1589.87"/>
</g>
<!-- 35489 -->
<g id="node52" class="node"><title>35489</title>
<g id="a_node52"><a xlink:title="6th_week">
<ellipse fill="#efff05" stroke="black" cx="1615" cy="-1330.04" rx="32.4942" ry="18"/>
<text text-anchor="middle" x="1615" y="-1326.34" font-family="Times,serif" font-size="14.00">35489</text>
</a>
</g>
</g>
<!-- 53712&#45;&gt;35489 -->
<g id="edge13" class="edge"><title>53712&#45;&gt;35489</title>
<path fill="none" stroke="black" d="M1382.18,-1228.97C1431.74,-1250.48 1539.89,-1297.43 1589.36,-1318.91"/>
</g>
<!-- 3397 -->
<g id="node54" class="node"><title>3397</title>
<g id="a_node54"><a xlink:title="3rd_week">
<ellipse fill="#ffffff" stroke="black" cx="1493.03" cy="-1269.98" rx="28.6953" ry="18"/>
<text text-anchor="middle" x="1493.03" y="-1266.28" font-family="Times,serif" font-size="14.00">3397</text>
</a>
</g>
</g>
<!-- 53712&#45;&gt;3397 -->
<g id="edge31" class="edge"><title>53712&#45;&gt;3397</title>
<path fill="none" stroke="black" d="M1383.43,-1228.1C1408.15,-1237.55 1444.45,-1251.41 1468.4,-1260.56"/>
</g>
<!-- 61073 -->
<g id="node49" class="node"><title>61073</title>
<g id="a_node49"><a xlink:title="PRE">
<ellipse fill="#efff05" stroke="black" cx="1877.15" cy="-1469.4" rx="32.4942" ry="18"/>
<text text-anchor="middle" x="1877.15" y="-1465.7" font-family="Times,serif" font-size="14.00">61073</text>
</a>
</g>
</g>
<!-- 4966 -->
<g id="node50" class="node"><title>4966</title>
<g id="a_node50"><a xlink:title="PRE">
<ellipse fill="#efff05" stroke="black" cx="2023.54" cy="-1528.51" rx="28.6953" ry="18"/>
<text text-anchor="middle" x="2023.54" y="-1524.81" font-family="Times,serif" font-size="14.00">4966</text>
</a>
</g>
</g>
<!-- 61073&#45;&gt;4966 -->
<g id="edge18" class="edge"><title>61073&#45;&gt;4966</title>
<path fill="none" stroke="black" d="M1903.66,-1480.1C1930.85,-1491.08 1972.79,-1508.02 1999.18,-1518.67"/>
</g>
<!-- 5538 -->
<g id="node51" class="node"><title>5538</title>
<g id="a_node51"><a xlink:title="PRE">
<ellipse fill="#efff05" stroke="black" cx="1989.44" cy="-1590.86" rx="28.6953" ry="18"/>
<text text-anchor="middle" x="1989.44" y="-1587.16" font-family="Times,serif" font-size="14.00">5538</text>
</a>
</g>
</g>
<!-- 61073&#45;&gt;5538 -->
<g id="edge47" class="edge"><title>61073&#45;&gt;5538</title>
<path fill="none" stroke="black" d="M1892.06,-1485.53C1913.66,-1508.89 1953.39,-1551.87 1974.83,-1575.05"/>
</g>
<!-- 61073&#45;&gt;35489 -->
<g id="edge37" class="edge"><title>61073&#45;&gt;35489</title>
<path fill="none" stroke="black" d="M1853.42,-1456.79C1803.51,-1430.26 1688.18,-1368.95 1638.48,-1342.53"/>
</g>
<!-- 39487 -->
<g id="node53" class="node"><title>39487</title>
<g id="a_node53"><a xlink:title="PRE">
<ellipse fill="#efff05" stroke="black" cx="2097.09" cy="-1494.59" rx="32.4942" ry="18"/>
<text text-anchor="middle" x="2097.09" y="-1490.89" font-family="Times,serif" font-size="14.00">39487</text>
</a>
</g>
</g>
<!-- 61073&#45;&gt;39487 -->
<g id="edge9" class="edge"><title>61073&#45;&gt;39487</title>
<path fill="none" stroke="black" d="M1909.13,-1473.06C1950.83,-1477.84 2023.35,-1486.14 2065.07,-1490.92"/>
</g>
<!-- 59498 -->
<g id="node57" class="node"><title>59498</title>
<g id="a_node57"><a xlink:title="PRE">
<ellipse fill="#efff05" stroke="black" cx="1911.79" cy="-1634.09" rx="32.4942" ry="18"/>
<text text-anchor="middle" x="1911.79" y="-1630.39" font-family="Times,serif" font-size="14.00">59498</text>
</a>
</g>
</g>
<!-- 61073&#45;&gt;59498 -->
<g id="edge10" class="edge"><title>61073&#45;&gt;59498</title>
<path fill="none" stroke="black" d="M1880.92,-1487.34C1887.58,-1519.02 1901.36,-1584.51 1908.02,-1616.17"/>
</g>
<!-- 9891 -->
<g id="node55" class="node"><title>9891</title>
<g id="a_node55"><a xlink:title="6th_week">
<ellipse fill="#efff05" stroke="black" cx="1786.48" cy="-1340.38" rx="28.6953" ry="18"/>
<text text-anchor="middle" x="1786.48" y="-1336.68" font-family="Times,serif" font-size="14.00">9891</text>
</a>
</g>
</g>
<!-- 35489&#45;&gt;9891 -->
<g id="edge14" class="edge"><title>35489&#45;&gt;9891</title>
<path fill="none" stroke="black" d="M1647.65,-1332.01C1679.53,-1333.93 1727.54,-1336.83 1757.93,-1338.66"/>
</g>
<!-- 58337 -->
<g id="node56" class="node"><title>58337</title>
<g id="a_node56"><a xlink:title="PRE">
<ellipse fill="#efff05" stroke="black" cx="2266.18" cy="-1545.68" rx="32.4942" ry="18"/>
<text text-anchor="middle" x="2266.18" y="-1541.98" font-family="Times,serif" font-size="14.00">58337</text>
</a>
</g>
</g>
<!-- 39487&#45;&gt;58337 -->
<g id="edge21" class="edge"><title>39487&#45;&gt;58337</title>
<path fill="none" stroke="black" d="M2125.78,-1503.26C2156.96,-1512.68 2206.51,-1527.65 2237.64,-1537.06"/>
</g>
</g>
</svg>
