<?xml version="1.0" encoding="UTF-8" standalone="no"?>
<!DOCTYPE svg PUBLIC "-//W3C//DTD SVG 1.1//EN"
 "http://www.w3.org/Graphics/SVG/1.1/DTD/svg11.dtd">
<!-- Generated by graphviz version 2.38.0 (20140413.2041)
 -->
<!-- Title: %3 Pages: 1 -->
<svg width="1034pt" height="1469pt"
 viewBox="0.00 0.00 1034.00 1469.00" xmlns="http://www.w3.org/2000/svg" xmlns:xlink="http://www.w3.org/1999/xlink">
<g id="graph0" class="graph" transform="scale(1 1) rotate(0) translate(4 1465)">
<title>%3</title>
<polygon fill="white" stroke="none" points="-4,4 -4,-1465 1030,-1465 1030,4 -4,4"/>
<!-- 215 -->
<g id="node1" class="node"><title>215</title>
<g id="a_node1"><a xlink:title="6th_week">
<ellipse fill="#20ff05" stroke="black" cx="257.913" cy="-537.043" rx="27" ry="18"/>
<text text-anchor="middle" x="257.913" y="-533.343" font-family="Times,serif" font-size="14.00">215</text>
</a>
</g>
</g>
<!-- 1139 -->
<g id="node7" class="node"><title>1139</title>
<g id="a_node7"><a xlink:title="6th_week">
<ellipse fill="#20ff05" stroke="black" cx="498.726" cy="-709.112" rx="28.6953" ry="18"/>
<text text-anchor="middle" x="498.726" y="-705.412" font-family="Times,serif" font-size="14.00">1139</text>
</a>
</g>
</g>
<!-- 215&#45;&gt;1139 -->
<g id="edge23" class="edge"><title>215&#45;&gt;1139</title>
<path fill="none" stroke="black" d="M276.41,-550.259C321.014,-582.131 434.158,-662.976 479.5,-695.374"/>
</g>
<!-- 1462 -->
<g id="node9" class="node"><title>1462</title>
<g id="a_node9"><a xlink:title="6th_week">
<ellipse fill="grey" stroke="black" cx="130.421" cy="-364.105" rx="28.6953" ry="18"/>
<text text-anchor="middle" x="130.421" y="-360.405" font-family="Times,serif" font-size="14.00">1462</text>
</a>
</g>
</g>
<!-- 215&#45;&gt;1462 -->
<g id="edge30" class="edge"><title>215&#45;&gt;1462</title>
<path fill="none" stroke="black" d="M245.919,-520.773C221.62,-487.813 166.826,-413.487 142.476,-380.457"/>
</g>
<!-- 3383 -->
<g id="node14" class="node"><title>3383</title>
<g id="a_node14"><a xlink:title="6th_week">
<ellipse fill="#20ff05" stroke="black" cx="77.1723" cy="-415.002" rx="28.6953" ry="18"/>
<text text-anchor="middle" x="77.1723" y="-411.302" font-family="Times,serif" font-size="14.00">3383</text>
</a>
</g>
</g>
<!-- 215&#45;&gt;3383 -->
<g id="edge51" class="edge"><title>215&#45;&gt;3383</title>
<path fill="none" stroke="black" d="M238.912,-524.213C204.381,-500.896 131.679,-451.807 96.7369,-428.213"/>
</g>
<!-- 8677 -->
<g id="node39" class="node"><title>8677</title>
<g id="a_node39"><a xlink:title="6th_week">
<ellipse fill="#20ff05" stroke="black" cx="47.3103" cy="-481.778" rx="28.6953" ry="18"/>
<text text-anchor="middle" x="47.3103" y="-478.078" font-family="Times,serif" font-size="14.00">8677</text>
</a>
</g>
</g>
<!-- 215&#45;&gt;8677 -->
<g id="edge25" class="edge"><title>215&#45;&gt;8677</title>
<path fill="none" stroke="black" d="M232.51,-530.376C192.359,-519.84 114.613,-499.439 73.7975,-488.728"/>
</g>
<!-- 284 -->
<g id="node2" class="node"><title>284</title>
<g id="a_node2"><a xlink:title="6th_week">
<ellipse fill="grey" stroke="black" cx="328.43" cy="-18.1487" rx="27" ry="18"/>
<text text-anchor="middle" x="328.43" y="-14.4487" font-family="Times,serif" font-size="14.00">284</text>
</a>
</g>
</g>
<!-- 10950 -->
<g id="node47" class="node"><title>10950</title>
<g id="a_node47"><a xlink:title="6th_week">
<ellipse fill="#efff05" stroke="black" cx="375.889" cy="-197.134" rx="32.4942" ry="18"/>
<text text-anchor="middle" x="375.889" y="-193.434" font-family="Times,serif" font-size="14.00">10950</text>
</a>
</g>
</g>
<!-- 284&#45;&gt;10950 -->
<g id="edge18" class="edge"><title>284&#45;&gt;10950</title>
<path fill="none" stroke="black" d="M333.154,-35.9649C342.227,-70.1844 362,-144.753 371.113,-179.124"/>
</g>
<!-- 419 -->
<g id="node3" class="node"><title>419</title>
<g id="a_node3"><a xlink:title="6th_week">
<ellipse fill="#20ff05" stroke="black" cx="599.851" cy="-238.873" rx="27" ry="18"/>
<text text-anchor="middle" x="599.851" y="-235.173" font-family="Times,serif" font-size="14.00">419</text>
</a>
</g>
</g>
<!-- 13624 -->
<g id="node55" class="node"><title>13624</title>
<g id="a_node55"><a xlink:title="6th_week">
<ellipse fill="#20ff05" stroke="black" cx="560.282" cy="-457.243" rx="32.4942" ry="18"/>
<text text-anchor="middle" x="560.282" y="-453.543" font-family="Times,serif" font-size="14.00">13624</text>
</a>
</g>
</g>
<!-- 419&#45;&gt;13624 -->
<g id="edge52" class="edge"><title>419&#45;&gt;13624</title>
<path fill="none" stroke="black" d="M596.613,-256.743C589.193,-297.692 571.028,-397.941 563.565,-439.126"/>
</g>
<!-- 753 -->
<g id="node4" class="node"><title>753</title>
<g id="a_node4"><a xlink:title="6th_week">
<ellipse fill="#ffffff" stroke="black" cx="438.608" cy="-840.462" rx="27" ry="18"/>
<text text-anchor="middle" x="438.608" y="-836.762" font-family="Times,serif" font-size="14.00">753</text>
</a>
</g>
</g>
<!-- 753&#45;&gt;1139 -->
<g id="edge4" class="edge"><title>753&#45;&gt;1139</title>
<path fill="none" stroke="black" d="M446.591,-823.02C458.089,-797.898 479.193,-751.789 490.71,-726.627"/>
</g>
<!-- 892 -->
<g id="node5" class="node"><title>892</title>
<g id="a_node5"><a xlink:title="6th_week">
<ellipse fill="#20ff05" stroke="black" cx="588.235" cy="-816.212" rx="27" ry="18"/>
<text text-anchor="middle" x="588.235" y="-812.512" font-family="Times,serif" font-size="14.00">892</text>
</a>
</g>
</g>
<!-- 892&#45;&gt;1139 -->
<g id="edge2" class="edge"><title>892&#45;&gt;1139</title>
<path fill="none" stroke="black" d="M575.027,-800.409C558.201,-780.277 529.271,-745.661 512.281,-725.331"/>
</g>
<!-- 909 -->
<g id="node6" class="node"><title>909</title>
<g id="a_node6"><a xlink:title="6th_week">
<ellipse fill="#20ff05" stroke="black" cx="324.771" cy="-960.699" rx="27" ry="18"/>
<text text-anchor="middle" x="324.771" y="-956.999" font-family="Times,serif" font-size="14.00">909</text>
</a>
</g>
</g>
<!-- 909&#45;&gt;1139 -->
<g id="edge10" class="edge"><title>909&#45;&gt;1139</title>
<path fill="none" stroke="black" d="M336.185,-944.192C367.704,-898.606 455.7,-771.339 487.27,-725.68"/>
</g>
<!-- 3977 -->
<g id="node20" class="node"><title>3977</title>
<g id="a_node20"><a xlink:title="6th_week">
<ellipse fill="#efff05" stroke="black" cx="267.615" cy="-1170.7" rx="28.6953" ry="18"/>
<text text-anchor="middle" x="267.615" y="-1167" font-family="Times,serif" font-size="14.00">3977</text>
</a>
</g>
</g>
<!-- 909&#45;&gt;3977 -->
<g id="edge53" class="edge"><title>909&#45;&gt;3977</title>
<path fill="none" stroke="black" d="M319.898,-978.604C309.1,-1018.28 283.262,-1113.21 272.475,-1152.84"/>
</g>
<!-- 11201 -->
<g id="node49" class="node"><title>11201</title>
<g id="a_node49"><a xlink:title="6th_week">
<ellipse fill="#20ff05" stroke="black" cx="137.996" cy="-1083.12" rx="32.4942" ry="18"/>
<text text-anchor="middle" x="137.996" y="-1079.42" font-family="Times,serif" font-size="14.00">11201</text>
</a>
</g>
</g>
<!-- 909&#45;&gt;11201 -->
<g id="edge37" class="edge"><title>909&#45;&gt;11201</title>
<path fill="none" stroke="black" d="M305.486,-973.339C270.255,-996.43 195.753,-1045.26 159.169,-1069.24"/>
</g>
<!-- 13540 -->
<g id="node54" class="node"><title>13540</title>
<g id="a_node54"><a xlink:title="6th_week">
<ellipse fill="#20ff05" stroke="black" cx="191.814" cy="-1145.18" rx="32.4942" ry="18"/>
<text text-anchor="middle" x="191.814" y="-1141.48" font-family="Times,serif" font-size="14.00">13540</text>
</a>
</g>
</g>
<!-- 909&#45;&gt;13540 -->
<g id="edge16" class="edge"><title>909&#45;&gt;13540</title>
<path fill="none" stroke="black" d="M312.972,-977.071C287.868,-1011.9 229.387,-1093.05 203.97,-1128.32"/>
</g>
<!-- 1299 -->
<g id="node8" class="node"><title>1299</title>
<g id="a_node8"><a xlink:title="6th_week">
<ellipse fill="grey" stroke="black" cx="331.171" cy="-673.605" rx="28.6953" ry="18"/>
<text text-anchor="middle" x="331.171" y="-669.905" font-family="Times,serif" font-size="14.00">1299</text>
</a>
</g>
</g>
<!-- 1139&#45;&gt;1299 -->
<g id="edge41" class="edge"><title>1139&#45;&gt;1299</title>
<path fill="none" stroke="black" d="M471.432,-703.328C440.274,-696.726 389.606,-685.988 358.452,-679.387"/>
</g>
<!-- 2143 -->
<g id="node10" class="node"><title>2143</title>
<g id="a_node10"><a xlink:title="6th_week">
<ellipse fill="#ffffff" stroke="black" cx="520.341" cy="-921.851" rx="28.6953" ry="18"/>
<text text-anchor="middle" x="520.341" y="-918.151" font-family="Times,serif" font-size="14.00">2143</text>
</a>
</g>
</g>
<!-- 1139&#45;&gt;2143 -->
<g id="edge38" class="edge"><title>1139&#45;&gt;2143</title>
<path fill="none" stroke="black" d="M500.569,-727.25C504.652,-767.443 514.423,-863.609 518.503,-903.759"/>
</g>
<!-- 2873 -->
<g id="node12" class="node"><title>2873</title>
<g id="a_node12"><a xlink:title="6th_week">
<ellipse fill="#20ff05" stroke="black" cx="526.662" cy="-871.881" rx="28.6953" ry="18"/>
<text text-anchor="middle" x="526.662" y="-868.181" font-family="Times,serif" font-size="14.00">2873</text>
</a>
</g>
</g>
<!-- 1139&#45;&gt;2873 -->
<g id="edge28" class="edge"><title>1139&#45;&gt;2873</title>
<path fill="none" stroke="black" d="M501.822,-727.153C507.192,-758.441 518.172,-822.416 523.551,-853.759"/>
</g>
<!-- 3176 -->
<g id="node13" class="node"><title>3176</title>
<g id="a_node13"><a xlink:title="6th_week">
<ellipse fill="#20ff05" stroke="black" cx="371.381" cy="-567.957" rx="28.6953" ry="18"/>
<text text-anchor="middle" x="371.381" y="-564.257" font-family="Times,serif" font-size="14.00">3176</text>
</a>
</g>
</g>
<!-- 1139&#45;&gt;3176 -->
<g id="edge24" class="edge"><title>1139&#45;&gt;3176</title>
<path fill="none" stroke="black" d="M484.365,-693.194C459.908,-666.084 410.439,-611.251 385.885,-584.033"/>
</g>
<!-- 3674 -->
<g id="node16" class="node"><title>3674</title>
<g id="a_node16"><a xlink:title="6th_week">
<ellipse fill="#20ff05" stroke="black" cx="439.05" cy="-900.749" rx="28.6953" ry="18"/>
<text text-anchor="middle" x="439.05" y="-897.049" font-family="Times,serif" font-size="14.00">3674</text>
</a>
</g>
</g>
<!-- 1139&#45;&gt;3674 -->
<g id="edge45" class="edge"><title>1139&#45;&gt;3674</title>
<path fill="none" stroke="black" d="M493.219,-726.797C481.879,-763.212 456.033,-846.213 444.631,-882.828"/>
</g>
<!-- 3871 -->
<g id="node18" class="node"><title>3871</title>
<g id="a_node18"><a xlink:title="6th_week">
<ellipse fill="grey" stroke="black" cx="442.534" cy="-443.793" rx="28.6953" ry="18"/>
<text text-anchor="middle" x="442.534" y="-440.093" font-family="Times,serif" font-size="14.00">3871</text>
</a>
</g>
</g>
<!-- 1139&#45;&gt;3871 -->
<g id="edge20" class="edge"><title>1139&#45;&gt;3871</title>
<path fill="none" stroke="black" d="M494.864,-690.876C484.573,-642.289 456.585,-510.136 446.349,-461.806"/>
</g>
<!-- 3890 -->
<g id="node19" class="node"><title>3890</title>
<g id="a_node19"><a xlink:title="6th_week">
<ellipse fill="#20ff05" stroke="black" cx="700.096" cy="-703.245" rx="28.6953" ry="18"/>
<text text-anchor="middle" x="700.096" y="-699.545" font-family="Times,serif" font-size="14.00">3890</text>
</a>
</g>
</g>
<!-- 1139&#45;&gt;3890 -->
<g id="edge17" class="edge"><title>1139&#45;&gt;3890</title>
<path fill="none" stroke="black" d="M527.577,-708.272C565.858,-707.156 633.045,-705.198 671.298,-704.084"/>
</g>
<!-- 4110 -->
<g id="node22" class="node"><title>4110</title>
<g id="a_node22"><a xlink:title="6th_week">
<ellipse fill="#20ff05" stroke="black" cx="271.862" cy="-803.604" rx="28.6953" ry="18"/>
<text text-anchor="middle" x="271.862" y="-799.904" font-family="Times,serif" font-size="14.00">4110</text>
</a>
</g>
</g>
<!-- 1139&#45;&gt;4110 -->
<g id="edge26" class="edge"><title>1139&#45;&gt;4110</title>
<path fill="none" stroke="black" d="M474.876,-719.046C431.305,-737.194 339.319,-775.507 295.732,-793.661"/>
</g>
<!-- 4192 -->
<g id="node23" class="node"><title>4192</title>
<g id="a_node23"><a xlink:title="6th_week">
<ellipse fill="#20ff05" stroke="black" cx="337.784" cy="-735.678" rx="28.6953" ry="18"/>
<text text-anchor="middle" x="337.784" y="-731.978" font-family="Times,serif" font-size="14.00">4192</text>
</a>
</g>
</g>
<!-- 1139&#45;&gt;4192 -->
<g id="edge35" class="edge"><title>1139&#45;&gt;4192</title>
<path fill="none" stroke="black" d="M471.059,-713.679C441.58,-718.545 395.175,-726.205 365.628,-731.082"/>
</g>
<!-- 4341 -->
<g id="node24" class="node"><title>4341</title>
<g id="a_node24"><a xlink:title="6th_week">
<ellipse fill="grey" stroke="black" cx="358.101" cy="-794.43" rx="28.6953" ry="18"/>
<text text-anchor="middle" x="358.101" y="-790.73" font-family="Times,serif" font-size="14.00">4341</text>
</a>
</g>
</g>
<!-- 1139&#45;&gt;4341 -->
<g id="edge54" class="edge"><title>1139&#45;&gt;4341</title>
<path fill="none" stroke="black" d="M477.976,-721.701C451.389,-737.832 405.564,-765.634 378.936,-781.789"/>
</g>
<!-- 5115 -->
<g id="node25" class="node"><title>5115</title>
<g id="a_node25"><a xlink:title="6th_week">
<ellipse fill="#20ff05" stroke="black" cx="572.802" cy="-590.129" rx="28.6953" ry="18"/>
<text text-anchor="middle" x="572.802" y="-586.429" font-family="Times,serif" font-size="14.00">5115</text>
</a>
</g>
</g>
<!-- 1139&#45;&gt;5115 -->
<g id="edge49" class="edge"><title>1139&#45;&gt;5115</title>
<path fill="none" stroke="black" d="M509.182,-692.317C523.22,-669.769 548.026,-629.925 562.159,-607.224"/>
</g>
<!-- 5171 -->
<g id="node26" class="node"><title>5171</title>
<g id="a_node26"><a xlink:title="6th_week">
<ellipse fill="#20ff05" stroke="black" cx="255.499" cy="-703.607" rx="28.6953" ry="18"/>
<text text-anchor="middle" x="255.499" y="-699.907" font-family="Times,serif" font-size="14.00">5171</text>
</a>
</g>
</g>
<!-- 1139&#45;&gt;5171 -->
<g id="edge40" class="edge"><title>1139&#45;&gt;5171</title>
<path fill="none" stroke="black" d="M469.869,-708.459C423.058,-707.399 331.105,-705.318 284.318,-704.259"/>
</g>
<!-- 5621 -->
<g id="node27" class="node"><title>5621</title>
<g id="a_node27"><a xlink:title="6th_week">
<ellipse fill="grey" stroke="black" cx="350.639" cy="-622.746" rx="28.6953" ry="18"/>
<text text-anchor="middle" x="350.639" y="-619.046" font-family="Times,serif" font-size="14.00">5621</text>
</a>
</g>
</g>
<!-- 1139&#45;&gt;5621 -->
<g id="edge11" class="edge"><title>1139&#45;&gt;5621</title>
<path fill="none" stroke="black" d="M477.509,-696.738C449.357,-680.32 399.949,-651.504 371.817,-635.097"/>
</g>
<!-- 5755 -->
<g id="node28" class="node"><title>5755</title>
<g id="a_node28"><a xlink:title="6th_week">
<ellipse fill="#20ff05" stroke="black" cx="696.492" cy="-763.18" rx="28.6953" ry="18"/>
<text text-anchor="middle" x="696.492" y="-759.48" font-family="Times,serif" font-size="14.00">5755</text>
</a>
</g>
</g>
<!-- 1139&#45;&gt;5755 -->
<g id="edge44" class="edge"><title>1139&#45;&gt;5755</title>
<path fill="none" stroke="black" d="M524.988,-716.292C562.813,-726.633 632.235,-745.613 670.121,-755.971"/>
</g>
<!-- 5898 -->
<g id="node29" class="node"><title>5898</title>
<g id="a_node29"><a xlink:title="6th_week">
<ellipse fill="#20ff05" stroke="black" cx="437.181" cy="-578.031" rx="28.6953" ry="18"/>
<text text-anchor="middle" x="437.181" y="-574.331" font-family="Times,serif" font-size="14.00">5898</text>
</a>
</g>
</g>
<!-- 1139&#45;&gt;5898 -->
<g id="edge21" class="edge"><title>1139&#45;&gt;5898</title>
<path fill="none" stroke="black" d="M490.553,-691.706C478.782,-666.635 457.178,-620.621 445.388,-595.509"/>
</g>
<!-- 6548 -->
<g id="node30" class="node"><title>6548</title>
<g id="a_node30"><a xlink:title="6th_week">
<ellipse fill="#20ff05" stroke="black" cx="802.894" cy="-724.356" rx="28.6953" ry="18"/>
<text text-anchor="middle" x="802.894" y="-720.656" font-family="Times,serif" font-size="14.00">6548</text>
</a>
</g>
</g>
<!-- 1139&#45;&gt;6548 -->
<g id="edge36" class="edge"><title>1139&#45;&gt;6548</title>
<path fill="none" stroke="black" d="M527.341,-710.546C585.313,-713.452 716.039,-720.003 774.133,-722.915"/>
</g>
<!-- 6597 -->
<g id="node31" class="node"><title>6597</title>
<g id="a_node31"><a xlink:title="6th_week">
<ellipse fill="grey" stroke="black" cx="574.387" cy="-1006.68" rx="28.6953" ry="18"/>
<text text-anchor="middle" x="574.387" y="-1002.98" font-family="Times,serif" font-size="14.00">6597</text>
</a>
</g>
</g>
<!-- 1139&#45;&gt;6597 -->
<g id="edge50" class="edge"><title>1139&#45;&gt;6597</title>
<path fill="none" stroke="black" d="M503.345,-727.279C516.884,-780.529 556.366,-935.81 569.828,-988.756"/>
</g>
<!-- 7227 -->
<g id="node33" class="node"><title>7227</title>
<g id="a_node33"><a xlink:title="6th_week">
<ellipse fill="#20ff05" stroke="black" cx="741.127" cy="-601.586" rx="28.6953" ry="18"/>
<text text-anchor="middle" x="741.127" y="-597.886" font-family="Times,serif" font-size="14.00">7227</text>
</a>
</g>
</g>
<!-- 1139&#45;&gt;7227 -->
<g id="edge46" class="edge"><title>1139&#45;&gt;7227</title>
<path fill="none" stroke="black" d="M522.41,-698.606C568.87,-677.997 671.454,-632.492 717.704,-611.976"/>
</g>
<!-- 7329 -->
<g id="node34" class="node"><title>7329</title>
<g id="a_node34"><a xlink:title="6th_week">
<ellipse fill="#20ff05" stroke="black" cx="685.253" cy="-473.199" rx="28.6953" ry="18"/>
<text text-anchor="middle" x="685.253" y="-469.499" font-family="Times,serif" font-size="14.00">7329</text>
</a>
</g>
</g>
<!-- 1139&#45;&gt;7329 -->
<g id="edge22" class="edge"><title>1139&#45;&gt;7329</title>
<path fill="none" stroke="black" d="M511.547,-692.897C545.622,-649.799 638.165,-532.755 672.342,-489.528"/>
</g>
<!-- 7767 -->
<g id="node35" class="node"><title>7767</title>
<g id="a_node35"><a xlink:title="6th_week">
<ellipse fill="#20ff05" stroke="black" cx="678.073" cy="-646.021" rx="28.6953" ry="18"/>
<text text-anchor="middle" x="678.073" y="-642.321" font-family="Times,serif" font-size="14.00">7767</text>
</a>
</g>
</g>
<!-- 1139&#45;&gt;7767 -->
<g id="edge31" class="edge"><title>1139&#45;&gt;7767</title>
<path fill="none" stroke="black" d="M524.041,-700.207C558.223,-688.182 618.771,-666.882 652.886,-654.881"/>
</g>
<!-- 7876 -->
<g id="node36" class="node"><title>7876</title>
<g id="a_node36"><a xlink:title="6th_week">
<ellipse fill="#20ff05" stroke="black" cx="585.352" cy="-525.476" rx="28.6953" ry="18"/>
<text text-anchor="middle" x="585.352" y="-521.776" font-family="Times,serif" font-size="14.00">7876</text>
</a>
</g>
</g>
<!-- 1139&#45;&gt;7876 -->
<g id="edge39" class="edge"><title>1139&#45;&gt;7876</title>
<path fill="none" stroke="black" d="M506.875,-691.836C523.386,-656.837 560.616,-577.913 577.161,-542.84"/>
</g>
<!-- 8907 -->
<g id="node40" class="node"><title>8907</title>
<g id="a_node40"><a xlink:title="6th_week">
<ellipse fill="#20ff05" stroke="black" cx="678.215" cy="-814.237" rx="28.6953" ry="18"/>
<text text-anchor="middle" x="678.215" y="-810.537" font-family="Times,serif" font-size="14.00">8907</text>
</a>
</g>
</g>
<!-- 1139&#45;&gt;8907 -->
<g id="edge43" class="edge"><title>1139&#45;&gt;8907</title>
<path fill="none" stroke="black" d="M519.667,-721.377C554.16,-741.579 622.543,-781.63 657.13,-801.887"/>
</g>
<!-- 8953 -->
<g id="node41" class="node"><title>8953</title>
<g id="a_node41"><a xlink:title="6th_week">
<ellipse fill="#20ff05" stroke="black" cx="613.724" cy="-888.48" rx="28.6953" ry="18"/>
<text text-anchor="middle" x="613.724" y="-884.78" font-family="Times,serif" font-size="14.00">8953</text>
</a>
</g>
</g>
<!-- 1139&#45;&gt;8953 -->
<g id="edge8" class="edge"><title>1139&#45;&gt;8953</title>
<path fill="none" stroke="black" d="M509.545,-725.987C531.518,-760.26 581.139,-837.655 603.018,-871.781"/>
</g>
<!-- 10202 -->
<g id="node42" class="node"><title>10202</title>
<g id="a_node42"><a xlink:title="6th_week">
<ellipse fill="grey" stroke="black" cx="507.663" cy="-517.883" rx="32.4942" ry="18"/>
<text text-anchor="middle" x="507.663" y="-514.183" font-family="Times,serif" font-size="14.00">10202</text>
</a>
</g>
</g>
<!-- 1139&#45;&gt;10202 -->
<g id="edge27" class="edge"><title>1139&#45;&gt;10202</title>
<path fill="none" stroke="black" d="M499.583,-690.776C501.295,-654.131 505.122,-572.252 506.822,-535.884"/>
</g>
<!-- 10211 -->
<g id="node43" class="node"><title>10211</title>
<g id="a_node43"><a xlink:title="6th_week">
<ellipse fill="#20ff05" stroke="black" cx="344.083" cy="-858.983" rx="32.4942" ry="18"/>
<text text-anchor="middle" x="344.083" y="-855.283" font-family="Times,serif" font-size="14.00">10211</text>
</a>
</g>
</g>
<!-- 1139&#45;&gt;10211 -->
<g id="edge15" class="edge"><title>1139&#45;&gt;10211</title>
<path fill="none" stroke="black" d="M483.047,-724.307C453.561,-752.883 390.137,-814.35 360.267,-843.298"/>
</g>
<!-- 10559 -->
<g id="node45" class="node"><title>10559</title>
<g id="a_node45"><a xlink:title="6th_week">
<ellipse fill="#20ff05" stroke="black" cx="429.506" cy="-521.756" rx="32.4942" ry="18"/>
<text text-anchor="middle" x="429.506" y="-518.056" font-family="Times,serif" font-size="14.00">10559</text>
</a>
</g>
</g>
<!-- 1139&#45;&gt;10559 -->
<g id="edge9" class="edge"><title>1139&#45;&gt;10559</title>
<path fill="none" stroke="black" d="M492.214,-691.486C479.021,-655.778 449.272,-575.255 436.052,-539.472"/>
</g>
<!-- 11200 -->
<g id="node48" class="node"><title>11200</title>
<g id="a_node48"><a xlink:title="6th_week">
<ellipse fill="grey" stroke="black" cx="735.244" cy="-898.983" rx="32.4942" ry="18"/>
<text text-anchor="middle" x="735.244" y="-895.283" font-family="Times,serif" font-size="14.00">11200</text>
</a>
</g>
</g>
<!-- 1139&#45;&gt;11200 -->
<g id="edge5" class="edge"><title>1139&#45;&gt;11200</title>
<path fill="none" stroke="black" d="M516.503,-723.383C560.12,-758.398 672.108,-848.299 716.608,-884.022"/>
</g>
<!-- 13403 -->
<g id="node53" class="node"><title>13403</title>
<g id="a_node53"><a xlink:title="6th_week">
<ellipse fill="#20ff05" stroke="black" cx="667.681" cy="-580.643" rx="32.4942" ry="18"/>
<text text-anchor="middle" x="667.681" y="-576.943" font-family="Times,serif" font-size="14.00">13403</text>
</a>
</g>
</g>
<!-- 1139&#45;&gt;13403 -->
<g id="edge13" class="edge"><title>1139&#45;&gt;13403</title>
<path fill="none" stroke="black" d="M517.129,-695.119C549.372,-670.602 615.758,-620.123 648.525,-595.208"/>
</g>
<!-- 1139&#45;&gt;13624 -->
<g id="edge32" class="edge"><title>1139&#45;&gt;13624</title>
<path fill="none" stroke="black" d="M503.153,-690.998C514.51,-644.527 544.582,-521.484 555.895,-475.193"/>
</g>
<!-- 2688 -->
<g id="node11" class="node"><title>2688</title>
<g id="a_node11"><a xlink:title="6th_week">
<ellipse fill="grey" stroke="black" cx="599.61" cy="-1258.19" rx="28.6953" ry="18"/>
<text text-anchor="middle" x="599.61" y="-1254.49" font-family="Times,serif" font-size="14.00">2688</text>
</a>
</g>
</g>
<!-- 2688&#45;&gt;6597 -->
<g id="edge33" class="edge"><title>2688&#45;&gt;6597</title>
<path fill="none" stroke="black" d="M597.796,-1240.11C593.153,-1193.81 580.88,-1071.43 576.218,-1024.95"/>
</g>
<!-- 10546 -->
<g id="node44" class="node"><title>10546</title>
<g id="a_node44"><a xlink:title="6th_week">
<ellipse fill="#20ff05" stroke="black" cx="628.777" cy="-1443.04" rx="32.4942" ry="18"/>
<text text-anchor="middle" x="628.777" y="-1439.34" font-family="Times,serif" font-size="14.00">10546</text>
</a>
</g>
</g>
<!-- 2688&#45;&gt;10546 -->
<g id="edge3" class="edge"><title>2688&#45;&gt;10546</title>
<path fill="none" stroke="black" d="M602.46,-1276.25C608.036,-1311.59 620.331,-1389.51 625.916,-1424.91"/>
</g>
<!-- 3632 -->
<g id="node15" class="node"><title>3632</title>
<g id="a_node15"><a xlink:title="6th_week">
<ellipse fill="grey" stroke="black" cx="861.911" cy="-1049.39" rx="28.6953" ry="18"/>
<text text-anchor="middle" x="861.911" y="-1045.69" font-family="Times,serif" font-size="14.00">3632</text>
</a>
</g>
</g>
<!-- 3632&#45;&gt;11200 -->
<g id="edge12" class="edge"><title>3632&#45;&gt;11200</title>
<path fill="none" stroke="black" d="M848.356,-1033.3C824.103,-1004.5 773.544,-944.462 749.086,-915.42"/>
</g>
<!-- 3789 -->
<g id="node17" class="node"><title>3789</title>
<g id="a_node17"><a xlink:title="6th_week">
<ellipse fill="#20ff05" stroke="black" cx="991.249" cy="-693.562" rx="28.6953" ry="18"/>
<text text-anchor="middle" x="991.249" y="-689.862" font-family="Times,serif" font-size="14.00">3789</text>
</a>
</g>
</g>
<!-- 3789&#45;&gt;6548 -->
<g id="edge48" class="edge"><title>3789&#45;&gt;6548</title>
<path fill="none" stroke="black" d="M963.456,-698.106C927.845,-703.928 866.467,-713.963 830.8,-719.794"/>
</g>
<!-- 3871&#45;&gt;10950 -->
<g id="edge47" class="edge"><title>3871&#45;&gt;10950</title>
<path fill="none" stroke="black" d="M437.634,-425.655C425.279,-379.929 392.972,-260.36 380.707,-214.966"/>
</g>
<!-- 4055 -->
<g id="node21" class="node"><title>4055</title>
<g id="a_node21"><a xlink:title="6th_week">
<ellipse fill="#ffffff" stroke="black" cx="28.6415" cy="-703.719" rx="28.6953" ry="18"/>
<text text-anchor="middle" x="28.6415" y="-700.019" font-family="Times,serif" font-size="14.00">4055</text>
</a>
</g>
</g>
<!-- 4055&#45;&gt;5171 -->
<g id="edge14" class="edge"><title>4055&#45;&gt;5171</title>
<path fill="none" stroke="black" d="M57.3732,-703.705C100.891,-703.684 183.052,-703.643 226.643,-703.621"/>
</g>
<!-- 8557 -->
<g id="node38" class="node"><title>8557</title>
<g id="a_node38"><a xlink:title="6th_week">
<ellipse fill="#ffffff" stroke="black" cx="59.1654" cy="-880.976" rx="28.6953" ry="18"/>
<text text-anchor="middle" x="59.1654" y="-877.276" font-family="Times,serif" font-size="14.00">8557</text>
</a>
</g>
</g>
<!-- 4110&#45;&gt;8557 -->
<g id="edge42" class="edge"><title>4110&#45;&gt;8557</title>
<path fill="none" stroke="black" d="M247.046,-812.631C206.172,-827.5 125.138,-856.978 84.1513,-871.887"/>
</g>
<!-- 11921 -->
<g id="node50" class="node"><title>11921</title>
<g id="a_node50"><a xlink:title="6th_week">
<ellipse fill="#20ff05" stroke="black" cx="993.985" cy="-771.124" rx="32.4942" ry="18"/>
<text text-anchor="middle" x="993.985" y="-767.424" font-family="Times,serif" font-size="14.00">11921</text>
</a>
</g>
</g>
<!-- 6548&#45;&gt;11921 -->
<g id="edge1" class="edge"><title>6548&#45;&gt;11921</title>
<path fill="none" stroke="black" d="M829.867,-730.958C865.258,-739.619 927.178,-754.774 964.002,-763.786"/>
</g>
<!-- 8416 -->
<g id="node37" class="node"><title>8416</title>
<g id="a_node37"><a xlink:title="6th_week">
<ellipse fill="grey" stroke="black" cx="660.148" cy="-1199.59" rx="28.6953" ry="18"/>
<text text-anchor="middle" x="660.148" y="-1195.89" font-family="Times,serif" font-size="14.00">8416</text>
</a>
</g>
</g>
<!-- 6597&#45;&gt;8416 -->
<g id="edge19" class="edge"><title>6597&#45;&gt;8416</title>
<path fill="none" stroke="black" d="M582.149,-1024.14C598.435,-1060.78 636.016,-1145.31 652.341,-1182.04"/>
</g>
<!-- 7059 -->
<g id="node32" class="node"><title>7059</title>
<g id="a_node32"><a xlink:title="6th_week">
<ellipse fill="#20ff05" stroke="black" cx="941.421" cy="-501.902" rx="28.6953" ry="18"/>
<text text-anchor="middle" x="941.421" y="-498.202" font-family="Times,serif" font-size="14.00">7059</text>
</a>
</g>
</g>
<!-- 7059&#45;&gt;7227 -->
<g id="edge6" class="edge"><title>7059&#45;&gt;7227</title>
<path fill="none" stroke="black" d="M918.834,-513.143C880.264,-532.339 802.145,-571.218 763.631,-590.386"/>
</g>
<!-- 12741 -->
<g id="node51" class="node"><title>12741</title>
<g id="a_node51"><a xlink:title="6th_week">
<ellipse fill="#20ff05" stroke="black" cx="824.688" cy="-288.178" rx="32.4942" ry="18"/>
<text text-anchor="middle" x="824.688" y="-284.478" font-family="Times,serif" font-size="14.00">12741</text>
</a>
</g>
</g>
<!-- 7329&#45;&gt;12741 -->
<g id="edge29" class="edge"><title>7329&#45;&gt;12741</title>
<path fill="none" stroke="black" d="M697.627,-456.78C724.02,-421.757 785.595,-340.052 812.141,-304.827"/>
</g>
<!-- 10614 -->
<g id="node46" class="node"><title>10614</title>
<g id="a_node46"><a xlink:title="6th_week">
<ellipse fill="#20ff05" stroke="black" cx="957.531" cy="-114.703" rx="32.4942" ry="18"/>
<text text-anchor="middle" x="957.531" y="-111.003" font-family="Times,serif" font-size="14.00">10614</text>
</a>
</g>
</g>
<!-- 10614&#45;&gt;12741 -->
<g id="edge34" class="edge"><title>10614&#45;&gt;12741</title>
<path fill="none" stroke="black" d="M944.793,-131.337C919.402,-164.495 862.747,-238.478 837.387,-271.595"/>
</g>
<!-- 12991 -->
<g id="node52" class="node"><title>12991</title>
<g id="a_node52"><a xlink:title="6th_week">
<ellipse fill="grey" stroke="black" cx="916.908" cy="-991.857" rx="32.4942" ry="18"/>
<text text-anchor="middle" x="916.908" y="-988.157" font-family="Times,serif" font-size="14.00">12991</text>
</a>
</g>
</g>
<!-- 11200&#45;&gt;12991 -->
<g id="edge7" class="edge"><title>11200&#45;&gt;12991</title>
<path fill="none" stroke="black" d="M759.368,-911.316C794.21,-929.129 858.238,-961.863 892.974,-979.621"/>
</g>
</g>
</svg>
