<?xml version="1.0" encoding="UTF-8" standalone="no"?>
<!DOCTYPE svg PUBLIC "-//W3C//DTD SVG 1.1//EN"
 "http://www.w3.org/Graphics/SVG/1.1/DTD/svg11.dtd">
<!-- Generated by graphviz version 2.38.0 (20140413.2041)
 -->
<!-- Title: %3 Pages: 1 -->
<svg width="1778pt" height="2032pt"
 viewBox="0.00 0.00 1778.00 2032.00" xmlns="http://www.w3.org/2000/svg" xmlns:xlink="http://www.w3.org/1999/xlink">
<g id="graph0" class="graph" transform="scale(1 1) rotate(0) translate(4 2028)">
<title>%3</title>
<polygon fill="white" stroke="none" points="-4,4 -4,-2028 1774,-2028 1774,4 -4,4"/>
<!-- 159 -->
<g id="node1" class="node"><title>159</title>
<g id="a_node1"><a xlink:title="3rd_week">
<ellipse fill="#20ff05" stroke="black" cx="881.68" cy="-380.101" rx="27" ry="18"/>
<text text-anchor="middle" x="881.68" y="-376.401" font-family="Times,serif" font-size="14.00">159</text>
</a>
</g>
</g>
<!-- 2446 -->
<g id="node12" class="node"><title>2446</title>
<g id="a_node12"><a xlink:title="3rd_week">
<ellipse fill="#20ff05" stroke="black" cx="859.176" cy="-617.497" rx="28.6953" ry="18"/>
<text text-anchor="middle" x="859.176" y="-613.797" font-family="Times,serif" font-size="14.00">2446</text>
</a>
</g>
</g>
<!-- 159&#45;&gt;2446 -->
<g id="edge47" class="edge"><title>159&#45;&gt;2446</title>
<path fill="none" stroke="black" d="M879.951,-398.335C875.752,-442.633 865.053,-555.501 860.879,-599.526"/>
</g>
<!-- 857 -->
<g id="node2" class="node"><title>857</title>
<g id="a_node2"><a xlink:title="3rd_week">
<ellipse fill="#20ff05" stroke="black" cx="871.072" cy="-1294.89" rx="27" ry="18"/>
<text text-anchor="middle" x="871.072" y="-1291.19" font-family="Times,serif" font-size="14.00">857</text>
</a>
</g>
</g>
<!-- 9600 -->
<g id="node36" class="node"><title>9600</title>
<g id="a_node36"><a xlink:title="3rd_week">
<ellipse fill="#20ff05" stroke="black" cx="962.908" cy="-1059.09" rx="28.6953" ry="18"/>
<text text-anchor="middle" x="962.908" y="-1055.39" font-family="Times,serif" font-size="14.00">9600</text>
</a>
</g>
</g>
<!-- 857&#45;&gt;9600 -->
<g id="edge66" class="edge"><title>857&#45;&gt;9600</title>
<path fill="none" stroke="black" d="M877.975,-1277.17C895.036,-1233.36 939.037,-1120.38 956.05,-1076.7"/>
</g>
<!-- 941 -->
<g id="node3" class="node"><title>941</title>
<g id="a_node3"><a xlink:title="3rd_week">
<ellipse fill="#20ff05" stroke="black" cx="338.999" cy="-767.13" rx="27" ry="18"/>
<text text-anchor="middle" x="338.999" y="-763.43" font-family="Times,serif" font-size="14.00">941</text>
</a>
</g>
</g>
<!-- 1026 -->
<g id="node4" class="node"><title>1026</title>
<g id="a_node4"><a xlink:title="3rd_week">
<ellipse fill="#20ff05" stroke="black" cx="609.116" cy="-861.059" rx="28.6953" ry="18"/>
<text text-anchor="middle" x="609.116" y="-857.359" font-family="Times,serif" font-size="14.00">1026</text>
</a>
</g>
</g>
<!-- 941&#45;&gt;1026 -->
<g id="edge60" class="edge"><title>941&#45;&gt;1026</title>
<path fill="none" stroke="black" d="M362.97,-775.466C413.842,-793.155 532.181,-834.306 584.026,-852.334"/>
</g>
<!-- 1294 -->
<g id="node6" class="node"><title>1294</title>
<g id="a_node6"><a xlink:title="3rd_week">
<ellipse fill="#20ff05" stroke="black" cx="379.205" cy="-686.286" rx="28.6953" ry="18"/>
<text text-anchor="middle" x="379.205" y="-682.586" font-family="Times,serif" font-size="14.00">1294</text>
</a>
</g>
</g>
<!-- 1026&#45;&gt;1294 -->
<g id="edge5" class="edge"><title>1026&#45;&gt;1294</title>
<path fill="none" stroke="black" d="M590.69,-847.052C547.641,-814.327 440.854,-733.15 397.719,-700.36"/>
</g>
<!-- 1026&#45;&gt;9600 -->
<g id="edge50" class="edge"><title>1026&#45;&gt;9600</title>
<path fill="none" stroke="black" d="M630.715,-873.149C693.876,-908.503 877.769,-1011.44 941.142,-1046.91"/>
</g>
<!-- 1130 -->
<g id="node5" class="node"><title>1130</title>
<g id="a_node5"><a xlink:title="3rd_week">
<ellipse fill="#ffffff" stroke="black" cx="1657.36" cy="-1237.59" rx="28.6953" ry="18"/>
<text text-anchor="middle" x="1657.36" y="-1233.89" font-family="Times,serif" font-size="14.00">1130</text>
</a>
</g>
</g>
<!-- 7888 -->
<g id="node31" class="node"><title>7888</title>
<g id="a_node31"><a xlink:title="3rd_week">
<ellipse fill="#20ff05" stroke="black" cx="1449.08" cy="-1151.87" rx="28.6953" ry="18"/>
<text text-anchor="middle" x="1449.08" y="-1148.17" font-family="Times,serif" font-size="14.00">7888</text>
</a>
</g>
</g>
<!-- 1130&#45;&gt;7888 -->
<g id="edge45" class="edge"><title>1130&#45;&gt;7888</title>
<path fill="none" stroke="black" d="M1633.06,-1227.59C1592.93,-1211.07 1513.26,-1178.28 1473.23,-1161.81"/>
</g>
<!-- 1355 -->
<g id="node7" class="node"><title>1355</title>
<g id="a_node7"><a xlink:title="3rd_week">
<ellipse fill="#20ff05" stroke="black" cx="909.243" cy="-1241.25" rx="28.6953" ry="18"/>
<text text-anchor="middle" x="909.243" y="-1237.55" font-family="Times,serif" font-size="14.00">1355</text>
</a>
</g>
</g>
<!-- 1355&#45;&gt;9600 -->
<g id="edge22" class="edge"><title>1355&#45;&gt;9600</title>
<path fill="none" stroke="black" d="M914.486,-1223.46C924.745,-1188.63 947.366,-1111.85 957.643,-1076.96"/>
</g>
<!-- 1433 -->
<g id="node8" class="node"><title>1433</title>
<g id="a_node8"><a xlink:title="3rd_week">
<ellipse fill="#20ff05" stroke="black" cx="1132.59" cy="-986.248" rx="28.6953" ry="18"/>
<text text-anchor="middle" x="1132.59" y="-982.548" font-family="Times,serif" font-size="14.00">1433</text>
</a>
</g>
</g>
<!-- 1433&#45;&gt;9600 -->
<g id="edge54" class="edge"><title>1433&#45;&gt;9600</title>
<path fill="none" stroke="black" d="M1108.64,-996.53C1076.3,-1010.41 1019.01,-1035.01 986.737,-1048.86"/>
</g>
<!-- 1629 -->
<g id="node9" class="node"><title>1629</title>
<g id="a_node9"><a xlink:title="3rd_week">
<ellipse fill="#20ff05" stroke="black" cx="565.976" cy="-578.978" rx="28.6953" ry="18"/>
<text text-anchor="middle" x="565.976" y="-575.278" font-family="Times,serif" font-size="14.00">1629</text>
</a>
</g>
</g>
<!-- 13175 -->
<g id="node56" class="node"><title>13175</title>
<g id="a_node56"><a xlink:title="3rd_week">
<ellipse fill="#20ff05" stroke="black" cx="729.436" cy="-774.278" rx="32.4942" ry="18"/>
<text text-anchor="middle" x="729.436" y="-770.578" font-family="Times,serif" font-size="14.00">13175</text>
</a>
</g>
</g>
<!-- 1629&#45;&gt;13175 -->
<g id="edge40" class="edge"><title>1629&#45;&gt;13175</title>
<path fill="none" stroke="black" d="M579.353,-594.961C609.928,-631.492 684.673,-720.795 715.644,-757.799"/>
</g>
<!-- 1942 -->
<g id="node10" class="node"><title>1942</title>
<g id="a_node10"><a xlink:title="3rd_week">
<ellipse fill="#20ff05" stroke="black" cx="1146.37" cy="-649.86" rx="28.6953" ry="18"/>
<text text-anchor="middle" x="1146.37" y="-646.16" font-family="Times,serif" font-size="14.00">1942</text>
</a>
</g>
</g>
<!-- 1942&#45;&gt;9600 -->
<g id="edge52" class="edge"><title>1942&#45;&gt;9600</title>
<path fill="none" stroke="black" d="M1138.49,-667.444C1108.38,-734.606 1000.82,-974.525 970.761,-1041.57"/>
</g>
<!-- 10119 -->
<g id="node40" class="node"><title>10119</title>
<g id="a_node40"><a xlink:title="3rd_week">
<ellipse fill="#20ff05" stroke="black" cx="1346.67" cy="-267.254" rx="32.4942" ry="18"/>
<text text-anchor="middle" x="1346.67" y="-263.554" font-family="Times,serif" font-size="14.00">10119</text>
</a>
</g>
</g>
<!-- 1942&#45;&gt;10119 -->
<g id="edge37" class="edge"><title>1942&#45;&gt;10119</title>
<path fill="none" stroke="black" d="M1155.36,-632.677C1188.55,-569.279 1303.94,-348.866 1337.47,-284.828"/>
</g>
<!-- 2425 -->
<g id="node11" class="node"><title>2425</title>
<g id="a_node11"><a xlink:title="3rd_week">
<ellipse fill="#20ff05" stroke="black" cx="1713.57" cy="-1292.21" rx="28.6953" ry="18"/>
<text text-anchor="middle" x="1713.57" y="-1288.51" font-family="Times,serif" font-size="14.00">2425</text>
</a>
</g>
</g>
<!-- 2425&#45;&gt;7888 -->
<g id="edge2" class="edge"><title>2425&#45;&gt;7888</title>
<path fill="none" stroke="black" d="M1691.48,-1280.48C1641.69,-1254.07 1521.2,-1190.14 1471.3,-1163.66"/>
</g>
<!-- 4946 -->
<g id="node21" class="node"><title>4946</title>
<g id="a_node21"><a xlink:title="3rd_week">
<ellipse fill="#20ff05" stroke="black" cx="731.772" cy="-406.862" rx="28.6953" ry="18"/>
<text text-anchor="middle" x="731.772" y="-403.162" font-family="Times,serif" font-size="14.00">4946</text>
</a>
</g>
</g>
<!-- 2446&#45;&gt;4946 -->
<g id="edge25" class="edge"><title>2446&#45;&gt;4946</title>
<path fill="none" stroke="black" d="M848.965,-600.616C825.11,-561.176 765.935,-463.342 742.031,-423.823"/>
</g>
<!-- 2446&#45;&gt;9600 -->
<g id="edge12" class="edge"><title>2446&#45;&gt;9600</title>
<path fill="none" stroke="black" d="M863.371,-635.355C880.086,-706.514 941.852,-969.456 958.661,-1041.01"/>
</g>
<!-- 17990 -->
<g id="node75" class="node"><title>17990</title>
<g id="a_node75"><a xlink:title="3rd_week">
<ellipse fill="grey" stroke="black" cx="802.038" cy="-371.262" rx="32.4942" ry="18"/>
<text text-anchor="middle" x="802.038" y="-367.562" font-family="Times,serif" font-size="14.00">17990</text>
</a>
</g>
</g>
<!-- 2446&#45;&gt;17990 -->
<g id="edge7" class="edge"><title>2446&#45;&gt;17990</title>
<path fill="none" stroke="black" d="M854.974,-599.391C844.408,-553.854 816.819,-434.96 806.246,-389.395"/>
</g>
<!-- 2629 -->
<g id="node13" class="node"><title>2629</title>
<g id="a_node13"><a xlink:title="3rd_week">
<ellipse fill="#20ff05" stroke="black" cx="1038.33" cy="-1295.56" rx="28.6953" ry="18"/>
<text text-anchor="middle" x="1038.33" y="-1291.86" font-family="Times,serif" font-size="14.00">2629</text>
</a>
</g>
</g>
<!-- 2629&#45;&gt;9600 -->
<g id="edge64" class="edge"><title>2629&#45;&gt;9600</title>
<path fill="none" stroke="black" d="M1032.66,-1277.78C1018.65,-1233.85 982.512,-1120.56 968.54,-1076.75"/>
</g>
<!-- 2922 -->
<g id="node14" class="node"><title>2922</title>
<g id="a_node14"><a xlink:title="3rd_week">
<ellipse fill="#20ff05" stroke="black" cx="737.193" cy="-909.686" rx="28.6953" ry="18"/>
<text text-anchor="middle" x="737.193" y="-905.986" font-family="Times,serif" font-size="14.00">2922</text>
</a>
</g>
</g>
<!-- 2922&#45;&gt;9600 -->
<g id="edge36" class="edge"><title>2922&#45;&gt;9600</title>
<path fill="none" stroke="black" d="M757.224,-922.945C800.057,-951.297 900.129,-1017.54 942.922,-1045.86"/>
</g>
<!-- 3252 -->
<g id="node15" class="node"><title>3252</title>
<g id="a_node15"><a xlink:title="3rd_week">
<ellipse fill="#20ff05" stroke="black" cx="1152.38" cy="-1085.73" rx="28.6953" ry="18"/>
<text text-anchor="middle" x="1152.38" y="-1082.03" font-family="Times,serif" font-size="14.00">3252</text>
</a>
</g>
</g>
<!-- 3252&#45;&gt;9600 -->
<g id="edge72" class="edge"><title>3252&#45;&gt;9600</title>
<path fill="none" stroke="black" d="M1124.42,-1081.8C1088.6,-1076.77 1026.86,-1068.09 990.979,-1063.04"/>
</g>
<!-- 3746 -->
<g id="node16" class="node"><title>3746</title>
<g id="a_node16"><a xlink:title="3rd_week">
<ellipse fill="#20ff05" stroke="black" cx="729.05" cy="-1142.06" rx="28.6953" ry="18"/>
<text text-anchor="middle" x="729.05" y="-1138.36" font-family="Times,serif" font-size="14.00">3746</text>
</a>
</g>
</g>
<!-- 3746&#45;&gt;9600 -->
<g id="edge70" class="edge"><title>3746&#45;&gt;9600</title>
<path fill="none" stroke="black" d="M754.076,-1133.18C798.97,-1117.25 892.688,-1084 937.707,-1068.03"/>
</g>
<!-- 4163 -->
<g id="node17" class="node"><title>4163</title>
<g id="a_node17"><a xlink:title="3rd_week">
<ellipse fill="#20ff05" stroke="black" cx="1235.09" cy="-851.063" rx="28.6953" ry="18"/>
<text text-anchor="middle" x="1235.09" y="-847.363" font-family="Times,serif" font-size="14.00">4163</text>
</a>
</g>
</g>
<!-- 8082 -->
<g id="node32" class="node"><title>8082</title>
<g id="a_node32"><a xlink:title="3rd_week">
<ellipse fill="#20ff05" stroke="black" cx="1467.79" cy="-692.605" rx="28.6953" ry="18"/>
<text text-anchor="middle" x="1467.79" y="-688.905" font-family="Times,serif" font-size="14.00">8082</text>
</a>
</g>
</g>
<!-- 4163&#45;&gt;8082 -->
<g id="edge71" class="edge"><title>4163&#45;&gt;8082</title>
<path fill="none" stroke="black" d="M1254.53,-837.826C1298.33,-807.998 1404.33,-735.813 1448.24,-705.916"/>
</g>
<!-- 4163&#45;&gt;9600 -->
<g id="edge59" class="edge"><title>4163&#45;&gt;9600</title>
<path fill="none" stroke="black" d="M1216.8,-865.036C1167.22,-902.933 1030.6,-1007.36 981.109,-1045.18"/>
</g>
<!-- 4270 -->
<g id="node18" class="node"><title>4270</title>
<g id="a_node18"><a xlink:title="3rd_week">
<ellipse fill="grey" stroke="black" cx="779.033" cy="-1024.44" rx="28.6953" ry="18"/>
<text text-anchor="middle" x="779.033" y="-1020.74" font-family="Times,serif" font-size="14.00">4270</text>
</a>
</g>
</g>
<!-- 4270&#45;&gt;9600 -->
<g id="edge68" class="edge"><title>4270&#45;&gt;9600</title>
<path fill="none" stroke="black" d="M806.56,-1029.62C841.325,-1036.18 900.781,-1047.38 935.492,-1053.93"/>
</g>
<!-- 4715 -->
<g id="node19" class="node"><title>4715</title>
<g id="a_node19"><a xlink:title="3rd_week">
<ellipse fill="#20ff05" stroke="black" cx="80.8543" cy="-1559.74" rx="28.6953" ry="18"/>
<text text-anchor="middle" x="80.8543" y="-1556.04" font-family="Times,serif" font-size="14.00">4715</text>
</a>
</g>
</g>
<!-- 16212 -->
<g id="node65" class="node"><title>16212</title>
<g id="a_node65"><a xlink:title="3rd_week">
<ellipse fill="#20ff05" stroke="black" cx="262.807" cy="-1415.13" rx="32.4942" ry="18"/>
<text text-anchor="middle" x="262.807" y="-1411.43" font-family="Times,serif" font-size="14.00">16212</text>
</a>
</g>
</g>
<!-- 4715&#45;&gt;16212 -->
<g id="edge1" class="edge"><title>4715&#45;&gt;16212</title>
<path fill="none" stroke="black" d="M98.6319,-1545.61C133.149,-1518.18 208.934,-1457.95 244.143,-1429.96"/>
</g>
<!-- 4766 -->
<g id="node20" class="node"><title>4766</title>
<g id="a_node20"><a xlink:title="3rd_week">
<ellipse fill="#20ff05" stroke="black" cx="910.126" cy="-855.477" rx="28.6953" ry="18"/>
<text text-anchor="middle" x="910.126" y="-851.777" font-family="Times,serif" font-size="14.00">4766</text>
</a>
</g>
</g>
<!-- 4766&#45;&gt;9600 -->
<g id="edge74" class="edge"><title>4766&#45;&gt;9600</title>
<path fill="none" stroke="black" d="M914.81,-873.547C924.826,-912.186 948.227,-1002.46 958.234,-1041.06"/>
</g>
<!-- 5227 -->
<g id="node22" class="node"><title>5227</title>
<g id="a_node22"><a xlink:title="3rd_week">
<ellipse fill="grey" stroke="black" cx="341.479" cy="-978.984" rx="28.6953" ry="18"/>
<text text-anchor="middle" x="341.479" y="-975.284" font-family="Times,serif" font-size="14.00">5227</text>
</a>
</g>
</g>
<!-- 16964 -->
<g id="node70" class="node"><title>16964</title>
<g id="a_node70"><a xlink:title="3rd_week">
<ellipse fill="#20ff05" stroke="black" cx="599.546" cy="-1009.04" rx="32.4942" ry="18"/>
<text text-anchor="middle" x="599.546" y="-1005.34" font-family="Times,serif" font-size="14.00">16964</text>
</a>
</g>
</g>
<!-- 5227&#45;&gt;16964 -->
<g id="edge30" class="edge"><title>5227&#45;&gt;16964</title>
<path fill="none" stroke="black" d="M370.082,-982.315C418.638,-987.97 516.849,-999.407 567.59,-1005.32"/>
</g>
<!-- 5307 -->
<g id="node23" class="node"><title>5307</title>
<g id="a_node23"><a xlink:title="3rd_week">
<ellipse fill="#20ff05" stroke="black" cx="805.132" cy="-1261.08" rx="28.6953" ry="18"/>
<text text-anchor="middle" x="805.132" y="-1257.38" font-family="Times,serif" font-size="14.00">5307</text>
</a>
</g>
</g>
<!-- 5307&#45;&gt;9600 -->
<g id="edge15" class="edge"><title>5307&#45;&gt;9600</title>
<path fill="none" stroke="black" d="M817.776,-1244.89C847.319,-1207.07 920.601,-1113.25 950.203,-1075.36"/>
</g>
<!-- 5534 -->
<g id="node24" class="node"><title>5534</title>
<g id="a_node24"><a xlink:title="3rd_week">
<ellipse fill="#20ff05" stroke="black" cx="808.237" cy="-841.015" rx="28.6953" ry="18"/>
<text text-anchor="middle" x="808.237" y="-837.315" font-family="Times,serif" font-size="14.00">5534</text>
</a>
</g>
</g>
<!-- 5534&#45;&gt;9600 -->
<g id="edge55" class="edge"><title>5534&#45;&gt;9600</title>
<path fill="none" stroke="black" d="M820.117,-857.765C848.979,-898.458 922.515,-1002.14 951.199,-1042.58"/>
</g>
<!-- 5570 -->
<g id="node25" class="node"><title>5570</title>
<g id="a_node25"><a xlink:title="3rd_week">
<ellipse fill="#20ff05" stroke="black" cx="705.743" cy="-1071.45" rx="28.6953" ry="18"/>
<text text-anchor="middle" x="705.743" y="-1067.75" font-family="Times,serif" font-size="14.00">5570</text>
</a>
</g>
</g>
<!-- 5570&#45;&gt;9600 -->
<g id="edge61" class="edge"><title>5570&#45;&gt;9600</title>
<path fill="none" stroke="black" d="M734.744,-1070.06C784.265,-1067.68 884.564,-1062.86 934.013,-1060.48"/>
</g>
<!-- 5641 -->
<g id="node26" class="node"><title>5641</title>
<g id="a_node26"><a xlink:title="3rd_week">
<ellipse fill="#07ffd1" stroke="black" cx="1148.67" cy="-894.959" rx="28.6953" ry="18"/>
<text text-anchor="middle" x="1148.67" y="-891.259" font-family="Times,serif" font-size="14.00">5641</text>
</a>
</g>
</g>
<!-- 5641&#45;&gt;9600 -->
<g id="edge14" class="edge"><title>5641&#45;&gt;9600</title>
<path fill="none" stroke="black" d="M1131.86,-909.814C1096.49,-941.063 1014.77,-1013.27 979.549,-1044.39"/>
</g>
<!-- 6187 -->
<g id="node27" class="node"><title>6187</title>
<g id="a_node27"><a xlink:title="3rd_week">
<ellipse fill="grey" stroke="black" cx="1698.76" cy="-1052.17" rx="28.6953" ry="18"/>
<text text-anchor="middle" x="1698.76" y="-1048.47" font-family="Times,serif" font-size="14.00">6187</text>
</a>
</g>
</g>
<!-- 6187&#45;&gt;7888 -->
<g id="edge35" class="edge"><title>6187&#45;&gt;7888</title>
<path fill="none" stroke="black" d="M1674.37,-1061.91C1626.63,-1080.97 1521.39,-1123 1473.58,-1142.09"/>
</g>
<!-- 6460 -->
<g id="node28" class="node"><title>6460</title>
<g id="a_node28"><a xlink:title="3rd_week">
<ellipse fill="grey" stroke="black" cx="537.32" cy="-1575.64" rx="28.6953" ry="18"/>
<text text-anchor="middle" x="537.32" y="-1571.94" font-family="Times,serif" font-size="14.00">6460</text>
</a>
</g>
</g>
<!-- 12139 -->
<g id="node50" class="node"><title>12139</title>
<g id="a_node50"><a xlink:title="3rd_week">
<ellipse fill="#20ff05" stroke="black" cx="732.047" cy="-1369.28" rx="32.4942" ry="18"/>
<text text-anchor="middle" x="732.047" y="-1365.58" font-family="Times,serif" font-size="14.00">12139</text>
</a>
</g>
</g>
<!-- 6460&#45;&gt;12139 -->
<g id="edge65" class="edge"><title>6460&#45;&gt;12139</title>
<path fill="none" stroke="black" d="M551.956,-1560.13C587.955,-1521.98 680.521,-1423.89 716.974,-1385.26"/>
</g>
<!-- 6584 -->
<g id="node29" class="node"><title>6584</title>
<g id="a_node29"><a xlink:title="3rd_week">
<ellipse fill="#20ff05" stroke="black" cx="819.818" cy="-1178.58" rx="28.6953" ry="18"/>
<text text-anchor="middle" x="819.818" y="-1174.88" font-family="Times,serif" font-size="14.00">6584</text>
</a>
</g>
</g>
<!-- 6584&#45;&gt;9600 -->
<g id="edge10" class="edge"><title>6584&#45;&gt;9600</title>
<path fill="none" stroke="black" d="M837.078,-1164.16C864.581,-1141.2 918.046,-1096.55 945.586,-1073.56"/>
</g>
<!-- 6683 -->
<g id="node30" class="node"><title>6683</title>
<g id="a_node30"><a xlink:title="3rd_week">
<ellipse fill="#20ff05" stroke="black" cx="1067.6" cy="-889.129" rx="28.6953" ry="18"/>
<text text-anchor="middle" x="1067.6" y="-885.429" font-family="Times,serif" font-size="14.00">6683</text>
</a>
</g>
</g>
<!-- 6683&#45;&gt;9600 -->
<g id="edge33" class="edge"><title>6683&#45;&gt;9600</title>
<path fill="none" stroke="black" d="M1057.18,-906.047C1037.11,-938.626 993.321,-1009.72 973.287,-1042.24"/>
</g>
<!-- 7888&#45;&gt;9600 -->
<g id="edge9" class="edge"><title>7888&#45;&gt;9600</title>
<path fill="none" stroke="black" d="M1421.55,-1146.62C1336.08,-1130.31 1075.91,-1080.66 990.438,-1064.35"/>
</g>
<!-- 9888 -->
<g id="node37" class="node"><title>9888</title>
<g id="a_node37"><a xlink:title="3rd_week">
<ellipse fill="#20ff05" stroke="black" cx="1649.83" cy="-1344.45" rx="28.6953" ry="18"/>
<text text-anchor="middle" x="1649.83" y="-1340.75" font-family="Times,serif" font-size="14.00">9888</text>
</a>
</g>
</g>
<!-- 7888&#45;&gt;9888 -->
<g id="edge48" class="edge"><title>7888&#45;&gt;9888</title>
<path fill="none" stroke="black" d="M1464.83,-1166.98C1502.27,-1202.89 1596.23,-1293.03 1633.87,-1329.14"/>
</g>
<!-- 12119 -->
<g id="node49" class="node"><title>12119</title>
<g id="a_node49"><a xlink:title="3rd_week">
<ellipse fill="#20ff05" stroke="black" cx="1737.58" cy="-1175.77" rx="32.4942" ry="18"/>
<text text-anchor="middle" x="1737.58" y="-1172.07" font-family="Times,serif" font-size="14.00">12119</text>
</a>
</g>
</g>
<!-- 7888&#45;&gt;12119 -->
<g id="edge34" class="edge"><title>7888&#45;&gt;12119</title>
<path fill="none" stroke="black" d="M1477.53,-1154.23C1531.55,-1158.7 1648.64,-1168.4 1705.41,-1173.11"/>
</g>
<!-- 16711 -->
<g id="node68" class="node"><title>16711</title>
<g id="a_node68"><a xlink:title="3rd_week">
<ellipse fill="#20ff05" stroke="black" cx="1734.59" cy="-1116.89" rx="32.4942" ry="18"/>
<text text-anchor="middle" x="1734.59" y="-1113.19" font-family="Times,serif" font-size="14.00">16711</text>
</a>
</g>
</g>
<!-- 7888&#45;&gt;16711 -->
<g id="edge57" class="edge"><title>7888&#45;&gt;16711</title>
<path fill="none" stroke="black" d="M1477.24,-1148.42C1530.7,-1141.87 1646.57,-1127.68 1702.76,-1120.79"/>
</g>
<!-- 8780 -->
<g id="node33" class="node"><title>8780</title>
<g id="a_node33"><a xlink:title="3rd_week">
<ellipse fill="grey" stroke="black" cx="1007.24" cy="-1238.49" rx="28.6953" ry="18"/>
<text text-anchor="middle" x="1007.24" y="-1234.79" font-family="Times,serif" font-size="14.00">8780</text>
</a>
</g>
</g>
<!-- 8780&#45;&gt;9600 -->
<g id="edge4" class="edge"><title>8780&#45;&gt;9600</title>
<path fill="none" stroke="black" d="M1002.83,-1220.63C994.353,-1186.33 975.882,-1111.59 967.369,-1077.14"/>
</g>
<!-- 8935 -->
<g id="node34" class="node"><title>8935</title>
<g id="a_node34"><a xlink:title="3rd_week">
<ellipse fill="grey" stroke="black" cx="1198.47" cy="-946.838" rx="28.6953" ry="18"/>
<text text-anchor="middle" x="1198.47" y="-943.138" font-family="Times,serif" font-size="14.00">8935</text>
</a>
</g>
</g>
<!-- 8935&#45;&gt;9600 -->
<g id="edge38" class="edge"><title>8935&#45;&gt;9600</title>
<path fill="none" stroke="black" d="M1175.46,-957.806C1130.42,-979.266 1031.13,-1026.58 986.017,-1048.08"/>
</g>
<!-- 9582 -->
<g id="node35" class="node"><title>9582</title>
<g id="a_node35"><a xlink:title="3rd_week">
<ellipse fill="#20ff05" stroke="black" cx="615.019" cy="-1629.57" rx="28.6953" ry="18"/>
<text text-anchor="middle" x="615.019" y="-1625.87" font-family="Times,serif" font-size="14.00">9582</text>
</a>
</g>
</g>
<!-- 9582&#45;&gt;12139 -->
<g id="edge63" class="edge"><title>9582&#45;&gt;12139</title>
<path fill="none" stroke="black" d="M622.879,-1612.08C644.147,-1564.78 702.66,-1434.64 724.067,-1387.03"/>
</g>
<!-- 10030 -->
<g id="node39" class="node"><title>10030</title>
<g id="a_node39"><a xlink:title="3rd_week">
<ellipse fill="#20ff05" stroke="black" cx="900.46" cy="-1429.29" rx="32.4942" ry="18"/>
<text text-anchor="middle" x="900.46" y="-1425.59" font-family="Times,serif" font-size="14.00">10030</text>
</a>
</g>
</g>
<!-- 9600&#45;&gt;10030 -->
<g id="edge8" class="edge"><title>9600&#45;&gt;10030</title>
<path fill="none" stroke="black" d="M959.853,-1077.2C949.25,-1140.05 914.103,-1348.41 903.509,-1411.22"/>
</g>
<!-- 10179 -->
<g id="node41" class="node"><title>10179</title>
<g id="a_node41"><a xlink:title="3rd_week">
<ellipse fill="#20ff05" stroke="black" cx="868.398" cy="-783.804" rx="32.4942" ry="18"/>
<text text-anchor="middle" x="868.398" y="-780.104" font-family="Times,serif" font-size="14.00">10179</text>
</a>
</g>
</g>
<!-- 9600&#45;&gt;10179 -->
<g id="edge62" class="edge"><title>9600&#45;&gt;10179</title>
<path fill="none" stroke="black" d="M956.852,-1041.45C939.822,-991.85 891.643,-851.511 874.526,-801.653"/>
</g>
<!-- 10537 -->
<g id="node42" class="node"><title>10537</title>
<g id="a_node42"><a xlink:title="3rd_week">
<ellipse fill="#20ff05" stroke="black" cx="1089.7" cy="-1167.03" rx="32.4942" ry="18"/>
<text text-anchor="middle" x="1089.7" y="-1163.33" font-family="Times,serif" font-size="14.00">10537</text>
</a>
</g>
</g>
<!-- 9600&#45;&gt;10537 -->
<g id="edge23" class="edge"><title>9600&#45;&gt;10537</title>
<path fill="none" stroke="black" d="M980.008,-1073.65C1003.94,-1094.02 1047.22,-1130.86 1071.65,-1151.66"/>
</g>
<!-- 10557 -->
<g id="node43" class="node"><title>10557</title>
<g id="a_node43"><a xlink:title="3rd_week">
<ellipse fill="grey" stroke="black" cx="812.767" cy="-914.188" rx="32.4942" ry="18"/>
<text text-anchor="middle" x="812.767" y="-910.488" font-family="Times,serif" font-size="14.00">10557</text>
</a>
</g>
</g>
<!-- 9600&#45;&gt;10557 -->
<g id="edge46" class="edge"><title>9600&#45;&gt;10557</title>
<path fill="none" stroke="black" d="M947.124,-1043.86C918.514,-1016.25 858.363,-958.193 829.249,-930.095"/>
</g>
<!-- 10583 -->
<g id="node44" class="node"><title>10583</title>
<g id="a_node44"><a xlink:title="3rd_week">
<ellipse fill="#20ff05" stroke="black" cx="698.408" cy="-978.013" rx="32.4942" ry="18"/>
<text text-anchor="middle" x="698.408" y="-974.313" font-family="Times,serif" font-size="14.00">10583</text>
</a>
</g>
</g>
<!-- 9600&#45;&gt;10583 -->
<g id="edge29" class="edge"><title>9600&#45;&gt;10583</title>
<path fill="none" stroke="black" d="M937.065,-1051.17C887.408,-1035.95 778.999,-1002.72 727.149,-986.823"/>
</g>
<!-- 11626 -->
<g id="node47" class="node"><title>11626</title>
<g id="a_node47"><a xlink:title="3rd_week">
<ellipse fill="#ffffff" stroke="black" cx="954.977" cy="-1311.9" rx="32.4942" ry="18"/>
<text text-anchor="middle" x="954.977" y="-1308.2" font-family="Times,serif" font-size="14.00">11626</text>
</a>
</g>
</g>
<!-- 9600&#45;&gt;11626 -->
<g id="edge18" class="edge"><title>9600&#45;&gt;11626</title>
<path fill="none" stroke="black" d="M962.337,-1077.27C960.874,-1123.92 957,-1247.42 955.542,-1293.88"/>
</g>
<!-- 11920 -->
<g id="node48" class="node"><title>11920</title>
<g id="a_node48"><a xlink:title="3rd_week">
<ellipse fill="#20ff05" stroke="black" cx="1203.62" cy="-1146.08" rx="32.4942" ry="18"/>
<text text-anchor="middle" x="1203.62" y="-1142.38" font-family="Times,serif" font-size="14.00">11920</text>
</a>
</g>
</g>
<!-- 9600&#45;&gt;11920 -->
<g id="edge41" class="edge"><title>9600&#45;&gt;11920</title>
<path fill="none" stroke="black" d="M987.762,-1068.07C1033.17,-1084.48 1129.19,-1119.18 1176.33,-1136.22"/>
</g>
<!-- 9600&#45;&gt;12139 -->
<g id="edge16" class="edge"><title>9600&#45;&gt;12139</title>
<path fill="none" stroke="black" d="M950.496,-1075.77C910.411,-1129.63 784.693,-1298.55 744.521,-1352.52"/>
</g>
<!-- 12434 -->
<g id="node52" class="node"><title>12434</title>
<g id="a_node52"><a xlink:title="3rd_week">
<ellipse fill="#20ff05" stroke="black" cx="592.19" cy="-1246.59" rx="32.4942" ry="18"/>
<text text-anchor="middle" x="592.19" y="-1242.89" font-family="Times,serif" font-size="14.00">12434</text>
</a>
</g>
</g>
<!-- 9600&#45;&gt;12434 -->
<g id="edge11" class="edge"><title>9600&#45;&gt;12434</title>
<path fill="none" stroke="black" d="M940.552,-1070.4C875.118,-1103.49 684.336,-1199.99 616.488,-1234.3"/>
</g>
<!-- 12563 -->
<g id="node53" class="node"><title>12563</title>
<g id="a_node53"><a xlink:title="3rd_week">
<ellipse fill="grey" stroke="black" cx="734.977" cy="-1218.12" rx="32.4942" ry="18"/>
<text text-anchor="middle" x="734.977" y="-1214.42" font-family="Times,serif" font-size="14.00">12563</text>
</a>
</g>
</g>
<!-- 9600&#45;&gt;12563 -->
<g id="edge67" class="edge"><title>9600&#45;&gt;12563</title>
<path fill="none" stroke="black" d="M943.474,-1072.65C900.735,-1102.47 798.92,-1173.51 755.339,-1203.92"/>
</g>
<!-- 13030 -->
<g id="node54" class="node"><title>13030</title>
<g id="a_node54"><a xlink:title="3rd_week">
<ellipse fill="#ffffff" stroke="black" cx="981.077" cy="-849.087" rx="32.4942" ry="18"/>
<text text-anchor="middle" x="981.077" y="-845.387" font-family="Times,serif" font-size="14.00">13030</text>
</a>
</g>
</g>
<!-- 9600&#45;&gt;13030 -->
<g id="edge27" class="edge"><title>9600&#45;&gt;13030</title>
<path fill="none" stroke="black" d="M964.488,-1040.82C967.933,-1001.01 976.083,-906.806 979.513,-867.164"/>
</g>
<!-- 9600&#45;&gt;13175 -->
<g id="edge26" class="edge"><title>9600&#45;&gt;13175</title>
<path fill="none" stroke="black" d="M949.686,-1042.96C908.786,-993.069 784.581,-841.55 743.094,-790.939"/>
</g>
<!-- 13811 -->
<g id="node58" class="node"><title>13811</title>
<g id="a_node58"><a xlink:title="3rd_week">
<ellipse fill="#20ff05" stroke="black" cx="1214.05" cy="-1010.82" rx="32.4942" ry="18"/>
<text text-anchor="middle" x="1214.05" y="-1007.12" font-family="Times,serif" font-size="14.00">13811</text>
</a>
</g>
</g>
<!-- 9600&#45;&gt;13811 -->
<g id="edge13" class="edge"><title>9600&#45;&gt;13811</title>
<path fill="none" stroke="black" d="M990.262,-1053.84C1037.43,-1044.77 1133.74,-1026.26 1183.21,-1016.75"/>
</g>
<!-- 14117 -->
<g id="node59" class="node"><title>14117</title>
<g id="a_node59"><a xlink:title="3rd_week">
<ellipse fill="#20ff05" stroke="black" cx="955.157" cy="-766.524" rx="32.4942" ry="18"/>
<text text-anchor="middle" x="955.157" y="-762.824" font-family="Times,serif" font-size="14.00">14117</text>
</a>
</g>
</g>
<!-- 9600&#45;&gt;14117 -->
<g id="edge51" class="edge"><title>9600&#45;&gt;14117</title>
<path fill="none" stroke="black" d="M962.423,-1040.79C961.031,-988.25 957.033,-837.352 955.641,-784.819"/>
</g>
<!-- 14204 -->
<g id="node60" class="node"><title>14204</title>
<g id="a_node60"><a xlink:title="3rd_week">
<ellipse fill="#20ff05" stroke="black" cx="1047.12" cy="-779.328" rx="32.4942" ry="18"/>
<text text-anchor="middle" x="1047.12" y="-775.628" font-family="Times,serif" font-size="14.00">14204</text>
</a>
</g>
</g>
<!-- 9600&#45;&gt;14204 -->
<g id="edge28" class="edge"><title>9600&#45;&gt;14204</title>
<path fill="none" stroke="black" d="M968.304,-1041.17C983.515,-990.636 1026.62,-847.453 1041.77,-797.104"/>
</g>
<!-- 14659 -->
<g id="node61" class="node"><title>14659</title>
<g id="a_node61"><a xlink:title="3rd_week">
<ellipse fill="#20ff05" stroke="black" cx="1177.26" cy="-1311.79" rx="32.4942" ry="18"/>
<text text-anchor="middle" x="1177.26" y="-1308.09" font-family="Times,serif" font-size="14.00">14659</text>
</a>
</g>
</g>
<!-- 9600&#45;&gt;14659 -->
<g id="edge3" class="edge"><title>9600&#45;&gt;14659</title>
<path fill="none" stroke="black" d="M976.643,-1075.28C1015.27,-1120.82 1124.54,-1249.64 1163.37,-1295.41"/>
</g>
<!-- 16287 -->
<g id="node66" class="node"><title>16287</title>
<g id="a_node66"><a xlink:title="3rd_week">
<ellipse fill="#20ff05" stroke="black" cx="604.624" cy="-1127.4" rx="32.4942" ry="18"/>
<text text-anchor="middle" x="604.624" y="-1123.7" font-family="Times,serif" font-size="14.00">16287</text>
</a>
</g>
</g>
<!-- 9600&#45;&gt;16287 -->
<g id="edge75" class="edge"><title>9600&#45;&gt;16287</title>
<path fill="none" stroke="black" d="M935.389,-1064.34C869.763,-1076.85 704.418,-1108.37 635.515,-1121.51"/>
</g>
<!-- 16531 -->
<g id="node67" class="node"><title>16531</title>
<g id="a_node67"><a xlink:title="3rd_week">
<ellipse fill="#20ff05" stroke="black" cx="1063.8" cy="-1421.47" rx="32.4942" ry="18"/>
<text text-anchor="middle" x="1063.8" y="-1417.77" font-family="Times,serif" font-size="14.00">16531</text>
</a>
</g>
</g>
<!-- 9600&#45;&gt;16531 -->
<g id="edge58" class="edge"><title>9600&#45;&gt;16531</title>
<path fill="none" stroke="black" d="M967.911,-1077.06C985.087,-1138.76 1041.54,-1341.53 1058.76,-1403.39"/>
</g>
<!-- 16773 -->
<g id="node69" class="node"><title>16773</title>
<g id="a_node69"><a xlink:title="3rd_week">
<ellipse fill="#20ff05" stroke="black" cx="1133.05" cy="-834.324" rx="32.4942" ry="18"/>
<text text-anchor="middle" x="1133.05" y="-830.624" font-family="Times,serif" font-size="14.00">16773</text>
</a>
</g>
</g>
<!-- 9600&#45;&gt;16773 -->
<g id="edge69" class="edge"><title>9600&#45;&gt;16773</title>
<path fill="none" stroke="black" d="M975.419,-1042.57C1006.81,-1001.1 1088.64,-892.998 1120.29,-851.182"/>
</g>
<!-- 9600&#45;&gt;16964 -->
<g id="edge53" class="edge"><title>9600&#45;&gt;16964</title>
<path fill="none" stroke="black" d="M934.698,-1055.21C868.083,-1046.03 701.374,-1023.06 631.33,-1013.42"/>
</g>
<!-- 17108 -->
<g id="node71" class="node"><title>17108</title>
<g id="a_node71"><a xlink:title="3rd_week">
<ellipse fill="#20ff05" stroke="black" cx="1230.3" cy="-1077.66" rx="32.4942" ry="18"/>
<text text-anchor="middle" x="1230.3" y="-1073.96" font-family="Times,serif" font-size="14.00">17108</text>
</a>
</g>
</g>
<!-- 9600&#45;&gt;17108 -->
<g id="edge39" class="edge"><title>9600&#45;&gt;17108</title>
<path fill="none" stroke="black" d="M991.523,-1061.08C1041.64,-1064.56 1144.98,-1071.74 1197.75,-1075.4"/>
</g>
<!-- 17314 -->
<g id="node72" class="node"><title>17314</title>
<g id="a_node72"><a xlink:title="3rd_week">
<ellipse fill="#20ff05" stroke="black" cx="1169.3" cy="-1203.07" rx="32.4942" ry="18"/>
<text text-anchor="middle" x="1169.3" y="-1199.37" font-family="Times,serif" font-size="14.00">17314</text>
</a>
</g>
</g>
<!-- 9600&#45;&gt;17314 -->
<g id="edge49" class="edge"><title>9600&#45;&gt;17314</title>
<path fill="none" stroke="black" d="M982.325,-1072.64C1021.36,-1099.87 1109.01,-1161.01 1148.87,-1188.82"/>
</g>
<!-- 14415 -->
<g id="node76" class="node"><title>14415</title>
<g id="a_node76"><a xlink:title="3rd_week">
<ellipse fill="#ff9f0f" stroke="black" cx="1103.45" cy="-1247.22" rx="32.4942" ry="18"/>
<text text-anchor="middle" x="1103.45" y="-1243.52" font-family="Times,serif" font-size="14.00">14415</text>
</a>
</g>
</g>
<!-- 9600&#45;&gt;14415 -->
<g id="edge24" class="edge"><title>9600&#45;&gt;14415</title>
<path fill="none" stroke="black" d="M975.134,-1075.46C1001.65,-1110.95 1064.19,-1194.67 1090.95,-1230.49"/>
</g>
<!-- 9911 -->
<g id="node38" class="node"><title>9911</title>
<g id="a_node38"><a xlink:title="3rd_week">
<ellipse fill="#20ff05" stroke="black" cx="1535.37" cy="-143.183" rx="28.6953" ry="18"/>
<text text-anchor="middle" x="1535.37" y="-139.483" font-family="Times,serif" font-size="14.00">9911</text>
</a>
</g>
</g>
<!-- 9911&#45;&gt;10119 -->
<g id="edge6" class="edge"><title>9911&#45;&gt;10119</title>
<path fill="none" stroke="black" d="M1515.54,-156.227C1479.67,-179.807 1404.37,-229.314 1367.67,-253.444"/>
</g>
<!-- 17663 -->
<g id="node73" class="node"><title>17663</title>
<g id="a_node73"><a xlink:title="3rd_week">
<ellipse fill="#20ff05" stroke="black" cx="856.953" cy="-1765.18" rx="32.4942" ry="18"/>
<text text-anchor="middle" x="856.953" y="-1761.48" font-family="Times,serif" font-size="14.00">17663</text>
</a>
</g>
</g>
<!-- 10030&#45;&gt;17663 -->
<g id="edge20" class="edge"><title>10030&#45;&gt;17663</title>
<path fill="none" stroke="black" d="M898.121,-1447.35C890.567,-1505.67 866.875,-1688.58 859.304,-1747.03"/>
</g>
<!-- 11256 -->
<g id="node45" class="node"><title>11256</title>
<g id="a_node45"><a xlink:title="3rd_week">
<ellipse fill="#20ff05" stroke="black" cx="1342.01" cy="-36.0219" rx="32.4942" ry="18"/>
<text text-anchor="middle" x="1342.01" y="-32.3219" font-family="Times,serif" font-size="14.00">11256</text>
</a>
</g>
</g>
<!-- 10119&#45;&gt;11256 -->
<g id="edge44" class="edge"><title>10119&#45;&gt;11256</title>
<path fill="none" stroke="black" d="M1346.3,-249.11C1345.43,-205.884 1343.24,-97.2222 1342.37,-54.082"/>
</g>
<!-- 13611 -->
<g id="node57" class="node"><title>13611</title>
<g id="a_node57"><a xlink:title="3rd_week">
<ellipse fill="#20ff05" stroke="black" cx="1517.93" cy="-73.7795" rx="32.4942" ry="18"/>
<text text-anchor="middle" x="1517.93" y="-70.0795" font-family="Times,serif" font-size="14.00">13611</text>
</a>
</g>
</g>
<!-- 10119&#45;&gt;13611 -->
<g id="edge73" class="edge"><title>10119&#45;&gt;13611</title>
<path fill="none" stroke="black" d="M1360.98,-251.092C1393.21,-214.673 1471.23,-126.536 1503.55,-90.0324"/>
</g>
<!-- 14970 -->
<g id="node63" class="node"><title>14970</title>
<g id="a_node63"><a xlink:title="3rd_week">
<ellipse fill="#20ff05" stroke="black" cx="1416.12" cy="-17.8119" rx="32.4942" ry="18"/>
<text text-anchor="middle" x="1416.12" y="-14.1119" font-family="Times,serif" font-size="14.00">14970</text>
</a>
</g>
</g>
<!-- 10119&#45;&gt;14970 -->
<g id="edge56" class="edge"><title>10119&#45;&gt;14970</title>
<path fill="none" stroke="black" d="M1351.66,-249.315C1364.45,-203.403 1398.24,-82.0246 1411.08,-35.9238"/>
</g>
<!-- 11562 -->
<g id="node46" class="node"><title>11562</title>
<g id="a_node46"><a xlink:title="3rd_week">
<ellipse fill="#07ffd1" stroke="black" cx="826.997" cy="-2005.72" rx="32.4942" ry="18"/>
<text text-anchor="middle" x="826.997" y="-2002.02" font-family="Times,serif" font-size="14.00">11562</text>
</a>
</g>
</g>
<!-- 11562&#45;&gt;17663 -->
<g id="edge21" class="edge"><title>11562&#45;&gt;17663</title>
<path fill="none" stroke="black" d="M829.249,-1987.64C834.814,-1942.95 849.167,-1827.7 854.716,-1783.14"/>
</g>
<!-- 12317 -->
<g id="node51" class="node"><title>12317</title>
<g id="a_node51"><a xlink:title="3rd_week">
<ellipse fill="#07ffd1" stroke="black" cx="32.315" cy="-1477.82" rx="32.4942" ry="18"/>
<text text-anchor="middle" x="32.315" y="-1474.12" font-family="Times,serif" font-size="14.00">12317</text>
</a>
</g>
</g>
<!-- 12317&#45;&gt;16212 -->
<g id="edge43" class="edge"><title>12317&#45;&gt;16212</title>
<path fill="none" stroke="black" d="M61.5069,-1469.88C105.722,-1457.86 189.199,-1435.15 233.489,-1423.1"/>
</g>
<!-- 12434&#45;&gt;16212 -->
<g id="edge42" class="edge"><title>12434&#45;&gt;16212</title>
<path fill="none" stroke="black" d="M568.236,-1258.85C507.54,-1289.91 348.196,-1371.44 287.116,-1402.69"/>
</g>
<!-- 13124 -->
<g id="node55" class="node"><title>13124</title>
<g id="a_node55"><a xlink:title="3rd_week">
<ellipse fill="grey" stroke="black" cx="1192.32" cy="-1683.89" rx="32.4942" ry="18"/>
<text text-anchor="middle" x="1192.32" y="-1680.19" font-family="Times,serif" font-size="14.00">13124</text>
</a>
</g>
</g>
<!-- 13124&#45;&gt;16531 -->
<g id="edge31" class="edge"><title>13124&#45;&gt;16531</title>
<path fill="none" stroke="black" d="M1183.69,-1666.26C1160.28,-1618.46 1095.76,-1486.74 1072.39,-1439.02"/>
</g>
<!-- 14782 -->
<g id="node62" class="node"><title>14782</title>
<g id="a_node62"><a xlink:title="3rd_week">
<ellipse fill="#20ff05" stroke="black" cx="1363.88" cy="-1537.83" rx="32.4942" ry="18"/>
<text text-anchor="middle" x="1363.88" y="-1534.13" font-family="Times,serif" font-size="14.00">14782</text>
</a>
</g>
</g>
<!-- 14659&#45;&gt;14782 -->
<g id="edge19" class="edge"><title>14659&#45;&gt;14782</title>
<path fill="none" stroke="black" d="M1190.99,-1328.41C1225.5,-1370.21 1315.61,-1479.36 1350.14,-1521.19"/>
</g>
<!-- 15654 -->
<g id="node64" class="node"><title>15654</title>
<g id="a_node64"><a xlink:title="3rd_week">
<ellipse fill="#efff05" stroke="black" cx="1102.15" cy="-1707.87" rx="32.4942" ry="18"/>
<text text-anchor="middle" x="1102.15" y="-1704.17" font-family="Times,serif" font-size="14.00">15654</text>
</a>
</g>
</g>
<!-- 15654&#45;&gt;16531 -->
<g id="edge17" class="edge"><title>15654&#45;&gt;16531</title>
<path fill="none" stroke="black" d="M1099.69,-1689.51C1092.76,-1637.79 1073.14,-1491.21 1066.23,-1439.67"/>
</g>
<!-- 17831 -->
<g id="node74" class="node"><title>17831</title>
<g id="a_node74"><a xlink:title="3rd_week">
<ellipse fill="#20ff05" stroke="black" cx="353.04" cy="-1176.42" rx="32.4942" ry="18"/>
<text text-anchor="middle" x="353.04" y="-1172.72" font-family="Times,serif" font-size="14.00">17831</text>
</a>
</g>
</g>
<!-- 16287&#45;&gt;17831 -->
<g id="edge32" class="edge"><title>16287&#45;&gt;17831</title>
<path fill="none" stroke="black" d="M573.775,-1133.41C525.358,-1142.84 432.077,-1161.02 383.748,-1170.44"/>
</g>
</g>
</svg>
