<?xml version="1.0" encoding="UTF-8" standalone="no"?>
<!DOCTYPE svg PUBLIC "-//W3C//DTD SVG 1.1//EN"
 "http://www.w3.org/Graphics/SVG/1.1/DTD/svg11.dtd">
<!-- Generated by graphviz version 2.38.0 (20140413.2041)
 -->
<!-- Title: %3 Pages: 1 -->
<svg width="1908pt" height="1491pt"
 viewBox="0.00 0.00 1908.00 1491.00" xmlns="http://www.w3.org/2000/svg" xmlns:xlink="http://www.w3.org/1999/xlink">
<g id="graph0" class="graph" transform="scale(1 1) rotate(0) translate(4 1487)">
<title>%3</title>
<polygon fill="white" stroke="none" points="-4,4 -4,-1487 1904,-1487 1904,4 -4,4"/>
<!-- 814 -->
<g id="node1" class="node"><title>814</title>
<g id="a_node1"><a xlink:title="6th_week">
<ellipse fill="#20ff05" stroke="black" cx="521.7" cy="-373.305" rx="27" ry="18"/>
<text text-anchor="middle" x="521.7" y="-369.605" font-family="Times,serif" font-size="14.00">814</text>
</a>
</g>
</g>
<!-- 9787 -->
<g id="node12" class="node"><title>9787</title>
<g id="a_node12"><a xlink:title="6th_week">
<ellipse fill="#20ff05" stroke="black" cx="639.949" cy="-575.234" rx="28.6953" ry="18"/>
<text text-anchor="middle" x="639.949" y="-571.534" font-family="Times,serif" font-size="14.00">9787</text>
</a>
</g>
</g>
<!-- 814&#45;&gt;9787 -->
<g id="edge49" class="edge"><title>814&#45;&gt;9787</title>
<path fill="none" stroke="black" d="M531.578,-390.174C553.837,-428.184 607.705,-520.172 630.016,-558.271"/>
</g>
<!-- 3041 -->
<g id="node2" class="node"><title>3041</title>
<g id="a_node2"><a xlink:title="6th_week">
<ellipse fill="grey" stroke="black" cx="1871.33" cy="-1437.43" rx="28.6953" ry="18"/>
<text text-anchor="middle" x="1871.33" y="-1433.73" font-family="Times,serif" font-size="14.00">3041</text>
</a>
</g>
</g>
<!-- 14492 -->
<g id="node15" class="node"><title>14492</title>
<g id="a_node15"><a xlink:title="6th_week">
<ellipse fill="grey" stroke="black" cx="1661.35" cy="-1323.52" rx="32.4942" ry="18"/>
<text text-anchor="middle" x="1661.35" y="-1319.82" font-family="Times,serif" font-size="14.00">14492</text>
</a>
</g>
</g>
<!-- 3041&#45;&gt;14492 -->
<g id="edge45" class="edge"><title>3041&#45;&gt;14492</title>
<path fill="none" stroke="black" d="M1849.65,-1425.67C1809.94,-1404.13 1725.84,-1358.5 1684.83,-1336.25"/>
</g>
<!-- 3188 -->
<g id="node3" class="node"><title>3188</title>
<g id="a_node3"><a xlink:title="6th_week">
<ellipse fill="#ffffff" stroke="black" cx="118.955" cy="-992.122" rx="28.6953" ry="18"/>
<text text-anchor="middle" x="118.955" y="-988.422" font-family="Times,serif" font-size="14.00">3188</text>
</a>
</g>
</g>
<!-- 22970 -->
<g id="node21" class="node"><title>22970</title>
<g id="a_node21"><a xlink:title="6th_week">
<ellipse fill="#20ff05" stroke="black" cx="308.388" cy="-952.129" rx="32.4942" ry="18"/>
<text text-anchor="middle" x="308.388" y="-948.429" font-family="Times,serif" font-size="14.00">22970</text>
</a>
</g>
</g>
<!-- 3188&#45;&gt;22970 -->
<g id="edge8" class="edge"><title>3188&#45;&gt;22970</title>
<path fill="none" stroke="black" d="M146.097,-986.392C180.982,-979.027 241.388,-966.274 277.846,-958.577"/>
</g>
<!-- 4749 -->
<g id="node4" class="node"><title>4749</title>
<g id="a_node4"><a xlink:title="6th_week">
<ellipse fill="#ffffff" stroke="black" cx="798.68" cy="-539.903" rx="28.6953" ry="18"/>
<text text-anchor="middle" x="798.68" y="-536.203" font-family="Times,serif" font-size="14.00">4749</text>
</a>
</g>
</g>
<!-- 9203 -->
<g id="node11" class="node"><title>9203</title>
<g id="a_node11"><a xlink:title="6th_week">
<ellipse fill="#ffffff" stroke="black" cx="784.393" cy="-304.02" rx="28.6953" ry="18"/>
<text text-anchor="middle" x="784.393" y="-300.32" font-family="Times,serif" font-size="14.00">9203</text>
</a>
</g>
</g>
<!-- 4749&#45;&gt;9203 -->
<g id="edge55" class="edge"><title>4749&#45;&gt;9203</title>
<path fill="none" stroke="black" d="M797.583,-521.785C794.924,-477.878 788.158,-366.17 785.494,-322.199"/>
</g>
<!-- 44458 -->
<g id="node39" class="node"><title>44458</title>
<g id="a_node39"><a xlink:title="6th_week">
<ellipse fill="#20ff05" stroke="black" cx="815.683" cy="-875.796" rx="32.4942" ry="18"/>
<text text-anchor="middle" x="815.683" y="-872.096" font-family="Times,serif" font-size="14.00">44458</text>
</a>
</g>
</g>
<!-- 4749&#45;&gt;44458 -->
<g id="edge29" class="edge"><title>4749&#45;&gt;44458</title>
<path fill="none" stroke="black" d="M799.594,-557.962C802.547,-616.284 811.806,-799.199 814.764,-857.648"/>
</g>
<!-- 5685 -->
<g id="node5" class="node"><title>5685</title>
<g id="a_node5"><a xlink:title="6th_week">
<ellipse fill="#20ff05" stroke="black" cx="1127.74" cy="-847.489" rx="28.6953" ry="18"/>
<text text-anchor="middle" x="1127.74" y="-843.789" font-family="Times,serif" font-size="14.00">5685</text>
</a>
</g>
</g>
<!-- 39786 -->
<g id="node36" class="node"><title>39786</title>
<g id="a_node36"><a xlink:title="6th_week">
<ellipse fill="grey" stroke="black" cx="1392.85" cy="-839.792" rx="32.4942" ry="18"/>
<text text-anchor="middle" x="1392.85" y="-836.092" font-family="Times,serif" font-size="14.00">39786</text>
</a>
</g>
</g>
<!-- 5685&#45;&gt;39786 -->
<g id="edge3" class="edge"><title>5685&#45;&gt;39786</title>
<path fill="none" stroke="black" d="M1156.36,-846.658C1206.03,-845.216 1307.89,-842.259 1360.22,-840.739"/>
</g>
<!-- 5685&#45;&gt;44458 -->
<g id="edge54" class="edge"><title>5685&#45;&gt;44458</title>
<path fill="none" stroke="black" d="M1099.22,-850.076C1041.14,-855.345 909.479,-867.288 848.194,-872.847"/>
</g>
<!-- 5695 -->
<g id="node6" class="node"><title>5695</title>
<g id="a_node6"><a xlink:title="6th_week">
<ellipse fill="#20ff05" stroke="black" cx="728.607" cy="-719.201" rx="28.6953" ry="18"/>
<text text-anchor="middle" x="728.607" y="-715.501" font-family="Times,serif" font-size="14.00">5695</text>
</a>
</g>
</g>
<!-- 5695&#45;&gt;44458 -->
<g id="edge42" class="edge"><title>5695&#45;&gt;44458</title>
<path fill="none" stroke="black" d="M738.091,-736.258C754.753,-766.222 789.105,-827.999 805.944,-858.283"/>
</g>
<!-- 5740 -->
<g id="node7" class="node"><title>5740</title>
<g id="a_node7"><a xlink:title="6th_week">
<ellipse fill="#20ff05" stroke="black" cx="1217.22" cy="-17.8695" rx="28.6953" ry="18"/>
<text text-anchor="middle" x="1217.22" y="-14.1695" font-family="Times,serif" font-size="14.00">5740</text>
</a>
</g>
</g>
<!-- 57105 -->
<g id="node49" class="node"><title>57105</title>
<g id="a_node49"><a xlink:title="6th_week">
<ellipse fill="#20ff05" stroke="black" cx="1147.63" cy="-258.746" rx="32.4942" ry="18"/>
<text text-anchor="middle" x="1147.63" y="-255.046" font-family="Times,serif" font-size="14.00">57105</text>
</a>
</g>
</g>
<!-- 5740&#45;&gt;57105 -->
<g id="edge37" class="edge"><title>5740&#45;&gt;57105</title>
<path fill="none" stroke="black" d="M1212.11,-35.5817C1199.27,-80.0185 1165.8,-195.868 1152.85,-240.68"/>
</g>
<!-- 6564 -->
<g id="node8" class="node"><title>6564</title>
<g id="a_node8"><a xlink:title="6th_week">
<ellipse fill="grey" stroke="black" cx="919.105" cy="-717.303" rx="28.6953" ry="18"/>
<text text-anchor="middle" x="919.105" y="-713.603" font-family="Times,serif" font-size="14.00">6564</text>
</a>
</g>
</g>
<!-- 6564&#45;&gt;44458 -->
<g id="edge6" class="edge"><title>6564&#45;&gt;44458</title>
<path fill="none" stroke="black" d="M908.232,-733.965C888.525,-764.166 847.091,-827.664 827.036,-858.398"/>
</g>
<!-- 7265 -->
<g id="node9" class="node"><title>7265</title>
<g id="a_node9"><a xlink:title="6th_week">
<ellipse fill="#20ff05" stroke="black" cx="1312.46" cy="-69.8647" rx="28.6953" ry="18"/>
<text text-anchor="middle" x="1312.46" y="-66.1647" font-family="Times,serif" font-size="14.00">7265</text>
</a>
</g>
</g>
<!-- 7265&#45;&gt;57105 -->
<g id="edge17" class="edge"><title>7265&#45;&gt;57105</title>
<path fill="none" stroke="black" d="M1298.69,-85.6437C1267.82,-121.02 1193.32,-206.385 1161.94,-242.342"/>
</g>
<!-- 8767 -->
<g id="node10" class="node"><title>8767</title>
<g id="a_node10"><a xlink:title="6th_week">
<ellipse fill="#20ff05" stroke="black" cx="714.803" cy="-1170.57" rx="28.6953" ry="18"/>
<text text-anchor="middle" x="714.803" y="-1166.87" font-family="Times,serif" font-size="14.00">8767</text>
</a>
</g>
</g>
<!-- 8767&#45;&gt;44458 -->
<g id="edge23" class="edge"><title>8767&#45;&gt;44458</title>
<path fill="none" stroke="black" d="M720.962,-1152.58C739.014,-1099.83 791.656,-946.005 809.605,-893.557"/>
</g>
<!-- 47487 -->
<g id="node43" class="node"><title>47487</title>
<g id="a_node43"><a xlink:title="6th_week">
<ellipse fill="#20ff05" stroke="black" cx="640.442" cy="-1431.86" rx="32.4942" ry="18"/>
<text text-anchor="middle" x="640.442" y="-1428.16" font-family="Times,serif" font-size="14.00">47487</text>
</a>
</g>
</g>
<!-- 8767&#45;&gt;47487 -->
<g id="edge2" class="edge"><title>8767&#45;&gt;47487</title>
<path fill="none" stroke="black" d="M709.692,-1188.53C696.107,-1236.27 659.214,-1365.9 645.589,-1413.78"/>
</g>
<!-- 9787&#45;&gt;44458 -->
<g id="edge1" class="edge"><title>9787&#45;&gt;44458</title>
<path fill="none" stroke="black" d="M649.901,-592.255C680.759,-645.033 774.617,-805.56 805.623,-858.59"/>
</g>
<!-- 13638 -->
<g id="node13" class="node"><title>13638</title>
<g id="a_node13"><a xlink:title="6th_week">
<ellipse fill="grey" stroke="black" cx="669.839" cy="-992.412" rx="32.4942" ry="18"/>
<text text-anchor="middle" x="669.839" y="-988.712" font-family="Times,serif" font-size="14.00">13638</text>
</a>
</g>
</g>
<!-- 13638&#45;&gt;44458 -->
<g id="edge25" class="edge"><title>13638&#45;&gt;44458</title>
<path fill="none" stroke="black" d="M688.607,-977.405C716.611,-955.014 769.025,-913.104 796.987,-890.745"/>
</g>
<!-- 14440 -->
<g id="node14" class="node"><title>14440</title>
<g id="a_node14"><a xlink:title="6th_week">
<ellipse fill="#20ff05" stroke="black" cx="32.7421" cy="-939.162" rx="32.4942" ry="18"/>
<text text-anchor="middle" x="32.7421" y="-935.462" font-family="Times,serif" font-size="14.00">14440</text>
</a>
</g>
</g>
<!-- 14440&#45;&gt;22970 -->
<g id="edge47" class="edge"><title>14440&#45;&gt;22970</title>
<path fill="none" stroke="black" d="M65.1728,-940.688C118.114,-943.178 222.517,-948.09 275.654,-950.589"/>
</g>
<!-- 52866 -->
<g id="node45" class="node"><title>52866</title>
<g id="a_node45"><a xlink:title="6th_week">
<ellipse fill="grey" stroke="black" cx="1434.79" cy="-1200.68" rx="32.4942" ry="18"/>
<text text-anchor="middle" x="1434.79" y="-1196.98" font-family="Times,serif" font-size="14.00">52866</text>
</a>
</g>
</g>
<!-- 14492&#45;&gt;52866 -->
<g id="edge16" class="edge"><title>14492&#45;&gt;52866</title>
<path fill="none" stroke="black" d="M1637.96,-1310.83C1594.43,-1287.23 1501.49,-1236.84 1458.06,-1213.3"/>
</g>
<!-- 14523 -->
<g id="node16" class="node"><title>14523</title>
<g id="a_node16"><a xlink:title="6th_week">
<ellipse fill="#20ff05" stroke="black" cx="1035.51" cy="-976.12" rx="32.4942" ry="18"/>
<text text-anchor="middle" x="1035.51" y="-972.42" font-family="Times,serif" font-size="14.00">14523</text>
</a>
</g>
</g>
<!-- 14523&#45;&gt;44458 -->
<g id="edge7" class="edge"><title>14523&#45;&gt;44458</title>
<path fill="none" stroke="black" d="M1010.29,-964.612C968.002,-945.311 883.264,-906.639 840.943,-887.325"/>
</g>
<!-- 14551 -->
<g id="node17" class="node"><title>14551</title>
<g id="a_node17"><a xlink:title="6th_week">
<ellipse fill="#ffffff" stroke="black" cx="1093.72" cy="-700.708" rx="32.4942" ry="18"/>
<text text-anchor="middle" x="1093.72" y="-697.008" font-family="Times,serif" font-size="14.00">14551</text>
</a>
</g>
</g>
<!-- 14551&#45;&gt;44458 -->
<g id="edge31" class="edge"><title>14551&#45;&gt;44458</title>
<path fill="none" stroke="black" d="M1071.9,-714.447C1019.93,-747.177 889.27,-829.456 837.398,-862.121"/>
</g>
<!-- 55746 -->
<g id="node47" class="node"><title>55746</title>
<g id="a_node47"><a xlink:title="6th_week">
<ellipse fill="#ffffff" stroke="black" cx="1333.58" cy="-572.518" rx="32.4942" ry="18"/>
<text text-anchor="middle" x="1333.58" y="-568.818" font-family="Times,serif" font-size="14.00">55746</text>
</a>
</g>
</g>
<!-- 14551&#45;&gt;55746 -->
<g id="edge52" class="edge"><title>14551&#45;&gt;55746</title>
<path fill="none" stroke="black" d="M1117.15,-688.183C1163.01,-663.676 1264.12,-609.641 1310.05,-585.094"/>
</g>
<!-- 16231 -->
<g id="node18" class="node"><title>16231</title>
<g id="a_node18"><a xlink:title="6th_week">
<ellipse fill="grey" stroke="black" cx="813.74" cy="-1106.32" rx="32.4942" ry="18"/>
<text text-anchor="middle" x="813.74" y="-1102.62" font-family="Times,serif" font-size="14.00">16231</text>
</a>
</g>
</g>
<!-- 16231&#45;&gt;44458 -->
<g id="edge9" class="edge"><title>16231&#45;&gt;44458</title>
<path fill="none" stroke="black" d="M813.893,-1088.23C814.256,-1045.14 815.169,-936.81 815.531,-893.801"/>
</g>
<!-- 19267 -->
<g id="node19" class="node"><title>19267</title>
<g id="a_node19"><a xlink:title="6th_week">
<ellipse fill="#20ff05" stroke="black" cx="84.2757" cy="-789.606" rx="32.4942" ry="18"/>
<text text-anchor="middle" x="84.2757" y="-785.906" font-family="Times,serif" font-size="14.00">19267</text>
</a>
</g>
</g>
<!-- 19267&#45;&gt;22970 -->
<g id="edge36" class="edge"><title>19267&#45;&gt;22970</title>
<path fill="none" stroke="black" d="M104.164,-804.028C146.693,-834.87 246.055,-906.926 288.544,-937.739"/>
</g>
<!-- 19953 -->
<g id="node20" class="node"><title>19953</title>
<g id="a_node20"><a xlink:title="6th_week">
<ellipse fill="#20ff05" stroke="black" cx="1050.7" cy="-902.137" rx="32.4942" ry="18"/>
<text text-anchor="middle" x="1050.7" y="-898.437" font-family="Times,serif" font-size="14.00">19953</text>
</a>
</g>
</g>
<!-- 19953&#45;&gt;44458 -->
<g id="edge10" class="edge"><title>19953&#45;&gt;44458</title>
<path fill="none" stroke="black" d="M1018.51,-898.529C973.633,-893.499 892.728,-884.432 847.855,-879.402"/>
</g>
<!-- 28537 -->
<g id="node24" class="node"><title>28537</title>
<g id="a_node24"><a xlink:title="6th_week">
<ellipse fill="#20ff05" stroke="black" cx="48.5709" cy="-873.723" rx="32.4942" ry="18"/>
<text text-anchor="middle" x="48.5709" y="-870.023" font-family="Times,serif" font-size="14.00">28537</text>
</a>
</g>
</g>
<!-- 22970&#45;&gt;28537 -->
<g id="edge22" class="edge"><title>22970&#45;&gt;28537</title>
<path fill="none" stroke="black" d="M279.591,-943.439C229.648,-928.368 127.53,-897.551 77.4976,-882.452"/>
</g>
<!-- 36330 -->
<g id="node34" class="node"><title>36330</title>
<g id="a_node34"><a xlink:title="6th_week">
<ellipse fill="#20ff05" stroke="black" cx="181.446" cy="-841.791" rx="32.4942" ry="18"/>
<text text-anchor="middle" x="181.446" y="-838.091" font-family="Times,serif" font-size="14.00">36330</text>
</a>
</g>
</g>
<!-- 22970&#45;&gt;36330 -->
<g id="edge51" class="edge"><title>22970&#45;&gt;36330</title>
<path fill="none" stroke="black" d="M290.738,-936.787C266.485,-915.707 223.12,-878.015 198.947,-857.003"/>
</g>
<!-- 22970&#45;&gt;44458 -->
<g id="edge46" class="edge"><title>22970&#45;&gt;44458</title>
<path fill="none" stroke="black" d="M340.122,-947.354C431.334,-933.63 693.496,-894.182 784.286,-880.521"/>
</g>
<!-- 56539 -->
<g id="node48" class="node"><title>56539</title>
<g id="a_node48"><a xlink:title="6th_week">
<ellipse fill="#20ff05" stroke="black" cx="37.2896" cy="-1039.77" rx="32.4942" ry="18"/>
<text text-anchor="middle" x="37.2896" y="-1036.07" font-family="Times,serif" font-size="14.00">56539</text>
</a>
</g>
</g>
<!-- 22970&#45;&gt;56539 -->
<g id="edge11" class="edge"><title>22970&#45;&gt;56539</title>
<path fill="none" stroke="black" d="M280.143,-961.26C228.067,-978.095 117.5,-1013.84 65.4711,-1030.66"/>
</g>
<!-- 58682 -->
<g id="node53" class="node"><title>58682</title>
<g id="a_node53"><a xlink:title="6th_week">
<ellipse fill="grey" stroke="black" cx="173.874" cy="-1129.76" rx="32.4942" ry="18"/>
<text text-anchor="middle" x="173.874" y="-1126.06" font-family="Times,serif" font-size="14.00">58682</text>
</a>
</g>
</g>
<!-- 22970&#45;&gt;58682 -->
<g id="edge35" class="edge"><title>22970&#45;&gt;58682</title>
<path fill="none" stroke="black" d="M295.734,-968.841C270.096,-1002.7 212.284,-1079.04 186.593,-1112.97"/>
</g>
<!-- 59274 -->
<g id="node54" class="node"><title>59274</title>
<g id="a_node54"><a xlink:title="6th_week">
<ellipse fill="grey" stroke="black" cx="80.0341" cy="-1087.74" rx="32.4942" ry="18"/>
<text text-anchor="middle" x="80.0341" y="-1084.04" font-family="Times,serif" font-size="14.00">59274</text>
</a>
</g>
</g>
<!-- 22970&#45;&gt;59274 -->
<g id="edge50" class="edge"><title>22970&#45;&gt;59274</title>
<path fill="none" stroke="black" d="M286.077,-965.379C242.421,-991.305 146.165,-1048.47 102.436,-1074.44"/>
</g>
<!-- 62135 -->
<g id="node56" class="node"><title>62135</title>
<g id="a_node56"><a xlink:title="6th_week">
<ellipse fill="#20ff05" stroke="black" cx="175.79" cy="-1190.32" rx="32.4942" ry="18"/>
<text text-anchor="middle" x="175.79" y="-1186.62" font-family="Times,serif" font-size="14.00">62135</text>
</a>
</g>
</g>
<!-- 22970&#45;&gt;62135 -->
<g id="edge34" class="edge"><title>22970&#45;&gt;62135</title>
<path fill="none" stroke="black" d="M298.638,-969.644C274.057,-1013.8 209.779,-1129.27 185.376,-1173.1"/>
</g>
<!-- 25691 -->
<g id="node22" class="node"><title>25691</title>
<g id="a_node22"><a xlink:title="6th_week">
<ellipse fill="#20ff05" stroke="black" cx="814.477" cy="-662.245" rx="32.4942" ry="18"/>
<text text-anchor="middle" x="814.477" y="-658.545" font-family="Times,serif" font-size="14.00">25691</text>
</a>
</g>
</g>
<!-- 25691&#45;&gt;44458 -->
<g id="edge4" class="edge"><title>25691&#45;&gt;44458</title>
<path fill="none" stroke="black" d="M814.58,-680.452C814.808,-720.798 815.353,-817.332 815.58,-857.635"/>
</g>
<!-- 28369 -->
<g id="node23" class="node"><title>28369</title>
<g id="a_node23"><a xlink:title="6th_week">
<ellipse fill="#20ff05" stroke="black" cx="633.368" cy="-1090.04" rx="32.4942" ry="18"/>
<text text-anchor="middle" x="633.368" y="-1086.34" font-family="Times,serif" font-size="14.00">28369</text>
</a>
</g>
</g>
<!-- 28369&#45;&gt;44458 -->
<g id="edge43" class="edge"><title>28369&#45;&gt;44458</title>
<path fill="none" stroke="black" d="M647.372,-1073.58C681.308,-1033.7 767.647,-932.244 801.632,-892.308"/>
</g>
<!-- 28807 -->
<g id="node25" class="node"><title>28807</title>
<g id="a_node25"><a xlink:title="6th_week">
<ellipse fill="grey" stroke="black" cx="822.984" cy="-1044.01" rx="32.4942" ry="18"/>
<text text-anchor="middle" x="822.984" y="-1040.31" font-family="Times,serif" font-size="14.00">28807</text>
</a>
</g>
</g>
<!-- 28807&#45;&gt;44458 -->
<g id="edge21" class="edge"><title>28807&#45;&gt;44458</title>
<path fill="none" stroke="black" d="M822.202,-1026.01C820.801,-993.716 817.875,-926.305 816.47,-893.923"/>
</g>
<!-- 29669 -->
<g id="node26" class="node"><title>29669</title>
<g id="a_node26"><a xlink:title="6th_week">
<ellipse fill="#20ff05" stroke="black" cx="637.503" cy="-827.697" rx="32.4942" ry="18"/>
<text text-anchor="middle" x="637.503" y="-823.997" font-family="Times,serif" font-size="14.00">29669</text>
</a>
</g>
</g>
<!-- 29669&#45;&gt;44458 -->
<g id="edge15" class="edge"><title>29669&#45;&gt;44458</title>
<path fill="none" stroke="black" d="M666.926,-835.639C699.94,-844.551 753.185,-858.925 786.216,-867.842"/>
</g>
<!-- 30696 -->
<g id="node27" class="node"><title>30696</title>
<g id="a_node27"><a xlink:title="6th_week">
<ellipse fill="#20ff05" stroke="black" cx="593.336" cy="-722.898" rx="32.4942" ry="18"/>
<text text-anchor="middle" x="593.336" y="-719.198" font-family="Times,serif" font-size="14.00">30696</text>
</a>
</g>
</g>
<!-- 30696&#45;&gt;44458 -->
<g id="edge12" class="edge"><title>30696&#45;&gt;44458</title>
<path fill="none" stroke="black" d="M613.856,-737.009C656.213,-766.136 752.898,-832.622 795.213,-861.72"/>
</g>
<!-- 31604 -->
<g id="node28" class="node"><title>31604</title>
<g id="a_node28"><a xlink:title="6th_week">
<ellipse fill="#20ff05" stroke="black" cx="596.022" cy="-1007.5" rx="32.4942" ry="18"/>
<text text-anchor="middle" x="596.022" y="-1003.8" font-family="Times,serif" font-size="14.00">31604</text>
</a>
</g>
</g>
<!-- 31604&#45;&gt;44458 -->
<g id="edge58" class="edge"><title>31604&#45;&gt;44458</title>
<path fill="none" stroke="black" d="M618.293,-994.147C660.394,-968.904 751.206,-914.455 793.353,-889.185"/>
</g>
<!-- 33407 -->
<g id="node29" class="node"><title>33407</title>
<g id="a_node29"><a xlink:title="6th_week">
<ellipse fill="#20ff05" stroke="black" cx="630.459" cy="-672.375" rx="32.4942" ry="18"/>
<text text-anchor="middle" x="630.459" y="-668.675" font-family="Times,serif" font-size="14.00">33407</text>
</a>
</g>
</g>
<!-- 33407&#45;&gt;44458 -->
<g id="edge48" class="edge"><title>33407&#45;&gt;44458</title>
<path fill="none" stroke="black" d="M645.304,-688.678C680.071,-726.861 766.443,-821.718 801.025,-859.698"/>
</g>
<!-- 33472 -->
<g id="node30" class="node"><title>33472</title>
<g id="a_node30"><a xlink:title="6th_week">
<ellipse fill="#20ff05" stroke="black" cx="894.511" cy="-1464.93" rx="32.4942" ry="18"/>
<text text-anchor="middle" x="894.511" y="-1461.23" font-family="Times,serif" font-size="14.00">33472</text>
</a>
</g>
</g>
<!-- 42141 -->
<g id="node37" class="node"><title>42141</title>
<g id="a_node37"><a xlink:title="6th_week">
<ellipse fill="#20ff05" stroke="black" cx="855.592" cy="-1189.89" rx="32.4942" ry="18"/>
<text text-anchor="middle" x="855.592" y="-1186.19" font-family="Times,serif" font-size="14.00">42141</text>
</a>
</g>
</g>
<!-- 33472&#45;&gt;42141 -->
<g id="edge38" class="edge"><title>33472&#45;&gt;42141</title>
<path fill="none" stroke="black" d="M891.957,-1446.89C884.905,-1397.05 865.218,-1257.92 858.155,-1208.01"/>
</g>
<!-- 34119 -->
<g id="node31" class="node"><title>34119</title>
<g id="a_node31"><a xlink:title="6th_week">
<ellipse fill="grey" stroke="black" cx="1007.34" cy="-717.038" rx="32.4942" ry="18"/>
<text text-anchor="middle" x="1007.34" y="-713.338" font-family="Times,serif" font-size="14.00">34119</text>
</a>
</g>
</g>
<!-- 34119&#45;&gt;44458 -->
<g id="edge56" class="edge"><title>34119&#45;&gt;44458</title>
<path fill="none" stroke="black" d="M988.963,-732.26C952.329,-762.606 870.592,-830.313 834.004,-860.62"/>
</g>
<!-- 35162 -->
<g id="node32" class="node"><title>35162</title>
<g id="a_node32"><a xlink:title="6th_week">
<ellipse fill="grey" stroke="black" cx="959.159" cy="-972.731" rx="32.4942" ry="18"/>
<text text-anchor="middle" x="959.159" y="-969.031" font-family="Times,serif" font-size="14.00">35162</text>
</a>
</g>
</g>
<!-- 35162&#45;&gt;44458 -->
<g id="edge30" class="edge"><title>35162&#45;&gt;44458</title>
<path fill="none" stroke="black" d="M938.296,-958.636C911.094,-940.258 863.785,-908.295 836.571,-889.908"/>
</g>
<!-- 36011 -->
<g id="node33" class="node"><title>36011</title>
<g id="a_node33"><a xlink:title="6th_week">
<ellipse fill="grey" stroke="black" cx="557.129" cy="-867.522" rx="32.4942" ry="18"/>
<text text-anchor="middle" x="557.129" y="-863.822" font-family="Times,serif" font-size="14.00">36011</text>
</a>
</g>
</g>
<!-- 36011&#45;&gt;44458 -->
<g id="edge32" class="edge"><title>36011&#45;&gt;44458</title>
<path fill="none" stroke="black" d="M589.613,-868.561C639.253,-870.15 733.446,-873.164 783.128,-874.754"/>
</g>
<!-- 37981 -->
<g id="node35" class="node"><title>37981</title>
<g id="a_node35"><a xlink:title="6th_week">
<ellipse fill="#20ff05" stroke="black" cx="737.309" cy="-618.975" rx="32.4942" ry="18"/>
<text text-anchor="middle" x="737.309" y="-615.275" font-family="Times,serif" font-size="14.00">37981</text>
</a>
</g>
</g>
<!-- 37981&#45;&gt;44458 -->
<g id="edge39" class="edge"><title>37981&#45;&gt;44458</title>
<path fill="none" stroke="black" d="M742.82,-637.035C757.21,-684.189 795.795,-810.625 810.178,-857.757"/>
</g>
<!-- 42141&#45;&gt;44458 -->
<g id="edge44" class="edge"><title>42141&#45;&gt;44458</title>
<path fill="none" stroke="black" d="M853.274,-1171.65C846.22,-1116.13 825.07,-949.673 818.008,-894.092"/>
</g>
<!-- 44030 -->
<g id="node38" class="node"><title>44030</title>
<g id="a_node38"><a xlink:title="6th_week">
<ellipse fill="#20ff05" stroke="black" cx="999.123" cy="-527.677" rx="32.4942" ry="18"/>
<text text-anchor="middle" x="999.123" y="-523.977" font-family="Times,serif" font-size="14.00">44030</text>
</a>
</g>
</g>
<!-- 44030&#45;&gt;44458 -->
<g id="edge24" class="edge"><title>44030&#45;&gt;44458</title>
<path fill="none" stroke="black" d="M989.774,-545.419C958.234,-605.275 855.98,-799.324 824.795,-858.503"/>
</g>
<!-- 44030&#45;&gt;57105 -->
<g id="edge57" class="edge"><title>44030&#45;&gt;57105</title>
<path fill="none" stroke="black" d="M1008.64,-510.445C1035.4,-461.987 1111.1,-324.889 1138,-276.182"/>
</g>
<!-- 44656 -->
<g id="node40" class="node"><title>44656</title>
<g id="a_node40"><a xlink:title="6th_week">
<ellipse fill="#20ff05" stroke="black" cx="989.785" cy="-1142.51" rx="32.4942" ry="18"/>
<text text-anchor="middle" x="989.785" y="-1138.81" font-family="Times,serif" font-size="14.00">44656</text>
</a>
</g>
</g>
<!-- 44458&#45;&gt;44656 -->
<g id="edge40" class="edge"><title>44458&#45;&gt;44656</title>
<path fill="none" stroke="black" d="M826.839,-892.886C858.285,-941.06 947.39,-1077.56 978.723,-1125.56"/>
</g>
<!-- 44736 -->
<g id="node41" class="node"><title>44736</title>
<g id="a_node41"><a xlink:title="6th_week">
<ellipse fill="#20ff05" stroke="black" cx="904.596" cy="-1098.24" rx="32.4942" ry="18"/>
<text text-anchor="middle" x="904.596" y="-1094.54" font-family="Times,serif" font-size="14.00">44736</text>
</a>
</g>
</g>
<!-- 44458&#45;&gt;44736 -->
<g id="edge14" class="edge"><title>44458&#45;&gt;44736</title>
<path fill="none" stroke="black" d="M822.809,-893.624C839.498,-935.378 880.959,-1039.11 897.56,-1080.64"/>
</g>
<!-- 46046 -->
<g id="node42" class="node"><title>46046</title>
<g id="a_node42"><a xlink:title="6th_week">
<ellipse fill="#ffffff" stroke="black" cx="1046.19" cy="-784.762" rx="32.4942" ry="18"/>
<text text-anchor="middle" x="1046.19" y="-781.062" font-family="Times,serif" font-size="14.00">46046</text>
</a>
</g>
</g>
<!-- 44458&#45;&gt;46046 -->
<g id="edge27" class="edge"><title>44458&#45;&gt;46046</title>
<path fill="none" stroke="black" d="M842.576,-865.175C886.992,-847.634 975.164,-812.812 1019.47,-795.316"/>
</g>
<!-- 50487 -->
<g id="node44" class="node"><title>50487</title>
<g id="a_node44"><a xlink:title="6th_week">
<ellipse fill="#20ff05" stroke="black" cx="584.892" cy="-937.119" rx="32.4942" ry="18"/>
<text text-anchor="middle" x="584.892" y="-933.419" font-family="Times,serif" font-size="14.00">50487</text>
</a>
</g>
</g>
<!-- 44458&#45;&gt;50487 -->
<g id="edge26" class="edge"><title>44458&#45;&gt;50487</title>
<path fill="none" stroke="black" d="M785.984,-883.688C741.669,-895.462 658.726,-917.501 614.477,-929.258"/>
</g>
<!-- 54428 -->
<g id="node46" class="node"><title>54428</title>
<g id="a_node46"><a xlink:title="6th_week">
<ellipse fill="#20ff05" stroke="black" cx="556.466" cy="-784.856" rx="32.4942" ry="18"/>
<text text-anchor="middle" x="556.466" y="-781.156" font-family="Times,serif" font-size="14.00">54428</text>
</a>
</g>
</g>
<!-- 44458&#45;&gt;54428 -->
<g id="edge18" class="edge"><title>44458&#45;&gt;54428</title>
<path fill="none" stroke="black" d="M787.942,-866.064C738.05,-848.561 633.754,-811.971 584.007,-794.518"/>
</g>
<!-- 57286 -->
<g id="node50" class="node"><title>57286</title>
<g id="a_node50"><a xlink:title="6th_week">
<ellipse fill="#20ff05" stroke="black" cx="956.012" cy="-643.404" rx="32.4942" ry="18"/>
<text text-anchor="middle" x="956.012" y="-639.704" font-family="Times,serif" font-size="14.00">57286</text>
</a>
</g>
</g>
<!-- 44458&#45;&gt;57286 -->
<g id="edge53" class="edge"><title>44458&#45;&gt;57286</title>
<path fill="none" stroke="black" d="M826.002,-858.708C851.953,-815.731 919.711,-703.521 945.679,-660.517"/>
</g>
<!-- 58667 -->
<g id="node51" class="node"><title>58667</title>
<g id="a_node51"><a xlink:title="6th_week">
<ellipse fill="#20ff05" stroke="black" cx="1003.38" cy="-1046.4" rx="32.4942" ry="18"/>
<text text-anchor="middle" x="1003.38" y="-1042.7" font-family="Times,serif" font-size="14.00">58667</text>
</a>
</g>
</g>
<!-- 44458&#45;&gt;58667 -->
<g id="edge28" class="edge"><title>44458&#45;&gt;58667</title>
<path fill="none" stroke="black" d="M832.671,-891.237C868.315,-923.637 950.564,-998.397 986.292,-1030.87"/>
</g>
<!-- 58680 -->
<g id="node52" class="node"><title>58680</title>
<g id="a_node52"><a xlink:title="6th_week">
<ellipse fill="#20ff05" stroke="black" cx="1138.59" cy="-1039.02" rx="32.4942" ry="18"/>
<text text-anchor="middle" x="1138.59" y="-1035.32" font-family="Times,serif" font-size="14.00">58680</text>
</a>
</g>
</g>
<!-- 44458&#45;&gt;58680 -->
<g id="edge19" class="edge"><title>44458&#45;&gt;58680</title>
<path fill="none" stroke="black" d="M839.69,-887.931C899.471,-918.149 1054.48,-996.502 1114.43,-1026.8"/>
</g>
<!-- 63090 -->
<g id="node57" class="node"><title>63090</title>
<g id="a_node57"><a xlink:title="6th_week">
<ellipse fill="#20ff05" stroke="black" cx="870.394" cy="-614.058" rx="32.4942" ry="18"/>
<text text-anchor="middle" x="870.394" y="-610.358" font-family="Times,serif" font-size="14.00">63090</text>
</a>
</g>
</g>
<!-- 44458&#45;&gt;63090 -->
<g id="edge13" class="edge"><title>44458&#45;&gt;63090</title>
<path fill="none" stroke="black" d="M819.444,-857.806C829.438,-809.991 856.583,-680.133 866.608,-632.174"/>
</g>
<!-- 63255 -->
<g id="node58" class="node"><title>63255</title>
<g id="a_node58"><a xlink:title="6th_week">
<ellipse fill="#20ff05" stroke="black" cx="1005.88" cy="-849.538" rx="32.4942" ry="18"/>
<text text-anchor="middle" x="1005.88" y="-845.838" font-family="Times,serif" font-size="14.00">63255</text>
</a>
</g>
</g>
<!-- 44458&#45;&gt;63255 -->
<g id="edge20" class="edge"><title>44458&#45;&gt;63255</title>
<path fill="none" stroke="black" d="M847.517,-871.401C882.731,-866.539 939.126,-858.753 974.255,-853.903"/>
</g>
<!-- 63279 -->
<g id="node59" class="node"><title>63279</title>
<g id="a_node59"><a xlink:title="6th_week">
<ellipse fill="#20ff05" stroke="black" cx="733.057" cy="-1056.34" rx="32.4942" ry="18"/>
<text text-anchor="middle" x="733.057" y="-1052.64" font-family="Times,serif" font-size="14.00">63279</text>
</a>
</g>
</g>
<!-- 44458&#45;&gt;63279 -->
<g id="edge33" class="edge"><title>44458&#45;&gt;63279</title>
<path fill="none" stroke="black" d="M807.61,-893.437C791.814,-927.953 756.985,-1004.06 741.163,-1038.63"/>
</g>
<!-- 60928 -->
<g id="node55" class="node"><title>60928</title>
<g id="a_node55"><a xlink:title="6th_week">
<ellipse fill="#ffffff" stroke="black" cx="1135.91" cy="-1371.66" rx="32.4942" ry="18"/>
<text text-anchor="middle" x="1135.91" y="-1367.96" font-family="Times,serif" font-size="14.00">60928</text>
</a>
</g>
</g>
<!-- 44656&#45;&gt;60928 -->
<g id="edge41" class="edge"><title>44656&#45;&gt;60928</title>
<path fill="none" stroke="black" d="M1000.77,-1159.73C1027.91,-1202.31 1097.92,-1312.1 1124.99,-1354.55"/>
</g>
<!-- 52866&#45;&gt;58680 -->
<g id="edge5" class="edge"><title>52866&#45;&gt;58680</title>
<path fill="none" stroke="black" d="M1411.55,-1188C1356.32,-1157.85 1217.67,-1082.18 1162.14,-1051.87"/>
</g>
</g>
</svg>
