<?xml version="1.0" encoding="UTF-8" standalone="no"?>
<!DOCTYPE svg PUBLIC "-//W3C//DTD SVG 1.1//EN"
 "http://www.w3.org/Graphics/SVG/1.1/DTD/svg11.dtd">
<!-- Generated by graphviz version 2.38.0 (20140413.2041)
 -->
<!-- Title: %3 Pages: 1 -->
<svg width="1458pt" height="1649pt"
 viewBox="0.00 0.00 1458.00 1649.00" xmlns="http://www.w3.org/2000/svg" xmlns:xlink="http://www.w3.org/1999/xlink">
<g id="graph0" class="graph" transform="scale(1 1) rotate(0) translate(4 1645)">
<title>%3</title>
<polygon fill="white" stroke="none" points="-4,4 -4,-1645 1454,-1645 1454,4 -4,4"/>
<!-- 331 -->
<g id="node1" class="node"><title>331</title>
<g id="a_node1"><a xlink:title="6th_week">
<ellipse fill="#efff05" stroke="black" cx="724.76" cy="-199.813" rx="27" ry="18"/>
<text text-anchor="middle" x="724.76" y="-196.113" font-family="Times,serif" font-size="14.00">331</text>
</a>
</g>
</g>
<!-- 1627 -->
<g id="node2" class="node"><title>1627</title>
<g id="a_node2"><a xlink:title="6th_week">
<ellipse fill="#efff05" stroke="black" cx="655.477" cy="-74.2802" rx="28.6953" ry="18"/>
<text text-anchor="middle" x="655.477" y="-70.5802" font-family="Times,serif" font-size="14.00">1627</text>
</a>
</g>
</g>
<!-- 331&#45;&gt;1627 -->
<g id="edge27" class="edge"><title>331&#45;&gt;1627</title>
<path fill="none" stroke="black" d="M715.416,-182.883C702.193,-158.925 678.157,-115.374 664.894,-91.3429"/>
</g>
<!-- 2423 -->
<g id="node3" class="node"><title>2423</title>
<g id="a_node3"><a xlink:title="6th_week">
<ellipse fill="#efff05" stroke="black" cx="855.981" cy="-340.88" rx="28.6953" ry="18"/>
<text text-anchor="middle" x="855.981" y="-337.18" font-family="Times,serif" font-size="14.00">2423</text>
</a>
</g>
</g>
<!-- 331&#45;&gt;2423 -->
<g id="edge38" class="edge"><title>331&#45;&gt;2423</title>
<path fill="none" stroke="black" d="M739.053,-215.179C764.162,-242.171 815.929,-297.822 841.306,-325.103"/>
</g>
<!-- 3407 -->
<g id="node4" class="node"><title>3407</title>
<g id="a_node4"><a xlink:title="6th_week">
<ellipse fill="#efff05" stroke="black" cx="906.319" cy="-162.767" rx="28.6953" ry="18"/>
<text text-anchor="middle" x="906.319" y="-159.067" font-family="Times,serif" font-size="14.00">3407</text>
</a>
</g>
</g>
<!-- 2423&#45;&gt;3407 -->
<g id="edge48" class="edge"><title>2423&#45;&gt;3407</title>
<path fill="none" stroke="black" d="M860.992,-323.151C870.616,-289.098 891.587,-214.892 901.254,-180.689"/>
</g>
<!-- 4428 -->
<g id="node5" class="node"><title>4428</title>
<g id="a_node5"><a xlink:title="6th_week">
<ellipse fill="#efff05" stroke="black" cx="960.382" cy="-219.456" rx="28.6953" ry="18"/>
<text text-anchor="middle" x="960.382" y="-215.756" font-family="Times,serif" font-size="14.00">4428</text>
</a>
</g>
</g>
<!-- 2423&#45;&gt;4428 -->
<g id="edge43" class="edge"><title>2423&#45;&gt;4428</title>
<path fill="none" stroke="black" d="M869.63,-325.006C889.638,-301.735 926.72,-258.607 946.73,-235.334"/>
</g>
<!-- 5143 -->
<g id="node6" class="node"><title>5143</title>
<g id="a_node6"><a xlink:title="6th_week">
<ellipse fill="grey" stroke="black" cx="826.649" cy="-191.034" rx="28.6953" ry="18"/>
<text text-anchor="middle" x="826.649" y="-187.334" font-family="Times,serif" font-size="14.00">5143</text>
</a>
</g>
</g>
<!-- 2423&#45;&gt;5143 -->
<g id="edge1" class="edge"><title>2423&#45;&gt;5143</title>
<path fill="none" stroke="black" d="M852.443,-322.805C846.805,-294.004 835.845,-238.015 830.199,-209.173"/>
</g>
<!-- 7452 -->
<g id="node7" class="node"><title>7452</title>
<g id="a_node7"><a xlink:title="6th_week">
<ellipse fill="#efff05" stroke="black" cx="975.451" cy="-383.469" rx="28.6953" ry="18"/>
<text text-anchor="middle" x="975.451" y="-379.769" font-family="Times,serif" font-size="14.00">7452</text>
</a>
</g>
</g>
<!-- 2423&#45;&gt;7452 -->
<g id="edge42" class="edge"><title>2423&#45;&gt;7452</title>
<path fill="none" stroke="black" d="M881.026,-349.808C901.416,-357.077 930.058,-367.287 950.439,-374.553"/>
</g>
<!-- 10401 -->
<g id="node8" class="node"><title>10401</title>
<g id="a_node8"><a xlink:title="6th_week">
<ellipse fill="#efff05" stroke="black" cx="726.053" cy="-362.223" rx="32.4942" ry="18"/>
<text text-anchor="middle" x="726.053" y="-358.523" font-family="Times,serif" font-size="14.00">10401</text>
</a>
</g>
</g>
<!-- 2423&#45;&gt;10401 -->
<g id="edge9" class="edge"><title>2423&#45;&gt;10401</title>
<path fill="none" stroke="black" d="M828.108,-345.459C807.379,-348.864 779.073,-353.513 757.53,-357.052"/>
</g>
<!-- 11051 -->
<g id="node9" class="node"><title>11051</title>
<g id="a_node9"><a xlink:title="6th_week">
<ellipse fill="#efff05" stroke="black" cx="1000.92" cy="-319.595" rx="32.4942" ry="18"/>
<text text-anchor="middle" x="1000.92" y="-315.895" font-family="Times,serif" font-size="14.00">11051</text>
</a>
</g>
</g>
<!-- 2423&#45;&gt;11051 -->
<g id="edge49" class="edge"><title>2423&#45;&gt;11051</title>
<path fill="none" stroke="black" d="M883.926,-336.776C908.357,-333.188 943.811,-327.982 969.278,-324.241"/>
</g>
<!-- 12086 -->
<g id="node11" class="node"><title>12086</title>
<g id="a_node11"><a xlink:title="6th_week">
<ellipse fill="grey" stroke="black" cx="988.106" cy="-264.63" rx="32.4942" ry="18"/>
<text text-anchor="middle" x="988.106" y="-260.93" font-family="Times,serif" font-size="14.00">12086</text>
</a>
</g>
</g>
<!-- 2423&#45;&gt;12086 -->
<g id="edge29" class="edge"><title>2423&#45;&gt;12086</title>
<path fill="none" stroke="black" d="M877.209,-328.629C901.282,-314.737 940.392,-292.166 965.155,-277.875"/>
</g>
<!-- 14705 -->
<g id="node12" class="node"><title>14705</title>
<g id="a_node12"><a xlink:title="6th_week">
<ellipse fill="#efff05" stroke="black" cx="888.184" cy="-237.748" rx="32.4942" ry="18"/>
<text text-anchor="middle" x="888.184" y="-234.048" font-family="Times,serif" font-size="14.00">14705</text>
</a>
</g>
</g>
<!-- 2423&#45;&gt;14705 -->
<g id="edge50" class="edge"><title>2423&#45;&gt;14705</title>
<path fill="none" stroke="black" d="M861.591,-322.916C867.501,-303.987 876.753,-274.358 882.639,-255.507"/>
</g>
<!-- 14898 -->
<g id="node13" class="node"><title>14898</title>
<g id="a_node13"><a xlink:title="6th_week">
<ellipse fill="#efff05" stroke="black" cx="724.216" cy="-286.205" rx="32.4942" ry="18"/>
<text text-anchor="middle" x="724.216" y="-282.505" font-family="Times,serif" font-size="14.00">14898</text>
</a>
</g>
</g>
<!-- 2423&#45;&gt;14898 -->
<g id="edge37" class="edge"><title>2423&#45;&gt;14898</title>
<path fill="none" stroke="black" d="M831.813,-330.852C808.782,-321.295 774.196,-306.944 750.49,-297.107"/>
</g>
<!-- 15970 -->
<g id="node14" class="node"><title>15970</title>
<g id="a_node14"><a xlink:title="6th_week">
<ellipse fill="#efff05" stroke="black" cx="793.117" cy="-239.094" rx="32.4942" ry="18"/>
<text text-anchor="middle" x="793.117" y="-235.394" font-family="Times,serif" font-size="14.00">15970</text>
</a>
</g>
</g>
<!-- 2423&#45;&gt;15970 -->
<g id="edge2" class="edge"><title>2423&#45;&gt;15970</title>
<path fill="none" stroke="black" d="M845.601,-324.072C834.023,-305.326 815.392,-275.16 803.724,-256.267"/>
</g>
<!-- 11398 -->
<g id="node15" class="node"><title>11398</title>
<g id="a_node15"><a xlink:title="6th_week">
<ellipse fill="#efff05" stroke="black" cx="850.37" cy="-597.781" rx="32.4942" ry="18"/>
<text text-anchor="middle" x="850.37" y="-594.081" font-family="Times,serif" font-size="14.00">11398</text>
</a>
</g>
</g>
<!-- 2423&#45;&gt;11398 -->
<g id="edge22" class="edge"><title>2423&#45;&gt;11398</title>
<path fill="none" stroke="black" d="M855.587,-358.945C854.556,-406.114 851.794,-532.589 850.764,-579.736"/>
</g>
<!-- 11842 -->
<g id="node10" class="node"><title>11842</title>
<g id="a_node10"><a xlink:title="6th_week">
<ellipse fill="#efff05" stroke="black" cx="949.715" cy="-18.1968" rx="32.4942" ry="18"/>
<text text-anchor="middle" x="949.715" y="-14.4968" font-family="Times,serif" font-size="14.00">11842</text>
</a>
</g>
</g>
<!-- 3407&#45;&gt;11842 -->
<g id="edge52" class="edge"><title>3407&#45;&gt;11842</title>
<path fill="none" stroke="black" d="M911.64,-145.04C919.969,-117.293 935.994,-63.9048 944.35,-36.0689"/>
</g>
<!-- 13231 -->
<g id="node46" class="node"><title>13231</title>
<g id="a_node46"><a xlink:title="6th_week">
<ellipse fill="#ffffff" stroke="black" cx="844.338" cy="-866.58" rx="32.4942" ry="18"/>
<text text-anchor="middle" x="844.338" y="-862.88" font-family="Times,serif" font-size="14.00">13231</text>
</a>
</g>
</g>
<!-- 11398&#45;&gt;13231 -->
<g id="edge40" class="edge"><title>11398&#45;&gt;13231</title>
<path fill="none" stroke="black" d="M849.965,-615.835C848.869,-664.685 845.853,-799.081 844.75,-848.251"/>
</g>
<!-- 7301 -->
<g id="node16" class="node"><title>7301</title>
<g id="a_node16"><a xlink:title="6th_week">
<ellipse fill="#efff05" stroke="black" cx="1122.58" cy="-776.75" rx="28.6953" ry="18"/>
<text text-anchor="middle" x="1122.58" y="-773.05" font-family="Times,serif" font-size="14.00">7301</text>
</a>
</g>
</g>
<!-- 9948 -->
<g id="node40" class="node"><title>9948</title>
<g id="a_node40"><a xlink:title="6th_week">
<ellipse fill="#efff05" stroke="black" cx="1087.81" cy="-899.787" rx="28.6953" ry="18"/>
<text text-anchor="middle" x="1087.81" y="-896.087" font-family="Times,serif" font-size="14.00">9948</text>
</a>
</g>
</g>
<!-- 7301&#45;&gt;9948 -->
<g id="edge32" class="edge"><title>7301&#45;&gt;9948</title>
<path fill="none" stroke="black" d="M1117.52,-794.641C1110.93,-817.968 1099.47,-858.537 1092.87,-881.875"/>
</g>
<!-- 363 -->
<g id="node17" class="node"><title>363</title>
<g id="a_node17"><a xlink:title="6th_week">
<ellipse fill="grey" stroke="black" cx="102.38" cy="-1582.14" rx="27" ry="18"/>
<text text-anchor="middle" x="102.38" y="-1578.44" font-family="Times,serif" font-size="14.00">363</text>
</a>
</g>
</g>
<!-- 2082 -->
<g id="node20" class="node"><title>2082</title>
<g id="a_node20"><a xlink:title="6th_week">
<ellipse fill="#efff05" stroke="black" cx="189.258" cy="-1442.69" rx="28.6953" ry="18"/>
<text text-anchor="middle" x="189.258" y="-1438.99" font-family="Times,serif" font-size="14.00">2082</text>
</a>
</g>
</g>
<!-- 363&#45;&gt;2082 -->
<g id="edge36" class="edge"><title>363&#45;&gt;2082</title>
<path fill="none" stroke="black" d="M112.86,-1565.32C129.558,-1538.52 162.02,-1486.41 178.742,-1459.57"/>
</g>
<!-- 930 -->
<g id="node18" class="node"><title>930</title>
<g id="a_node18"><a xlink:title="6th_week">
<ellipse fill="#efff05" stroke="black" cx="242.058" cy="-1592.22" rx="27" ry="18"/>
<text text-anchor="middle" x="242.058" y="-1588.52" font-family="Times,serif" font-size="14.00">930</text>
</a>
</g>
</g>
<!-- 930&#45;&gt;2082 -->
<g id="edge23" class="edge"><title>930&#45;&gt;2082</title>
<path fill="none" stroke="black" d="M235.794,-1574.48C225.632,-1545.7 205.671,-1489.17 195.515,-1460.41"/>
</g>
<!-- 1557 -->
<g id="node19" class="node"><title>1557</title>
<g id="a_node19"><a xlink:title="6th_week">
<ellipse fill="#efff05" stroke="black" cx="93.7875" cy="-1456.86" rx="28.6953" ry="18"/>
<text text-anchor="middle" x="93.7875" y="-1453.16" font-family="Times,serif" font-size="14.00">1557</text>
</a>
</g>
</g>
<!-- 1557&#45;&gt;2082 -->
<g id="edge26" class="edge"><title>1557&#45;&gt;2082</title>
<path fill="none" stroke="black" d="M121.658,-1452.72C134.097,-1450.88 148.726,-1448.71 161.188,-1446.86"/>
</g>
<!-- 2368 -->
<g id="node21" class="node"><title>2368</title>
<g id="a_node21"><a xlink:title="6th_week">
<ellipse fill="#efff05" stroke="black" cx="148.169" cy="-1310.85" rx="28.6953" ry="18"/>
<text text-anchor="middle" x="148.169" y="-1307.15" font-family="Times,serif" font-size="14.00">2368</text>
</a>
</g>
</g>
<!-- 2082&#45;&gt;2368 -->
<g id="edge47" class="edge"><title>2082&#45;&gt;2368</title>
<path fill="none" stroke="black" d="M183.717,-1424.91C175.875,-1399.75 161.62,-1354.01 153.754,-1328.77"/>
</g>
<!-- 2432 -->
<g id="node22" class="node"><title>2432</title>
<g id="a_node22"><a xlink:title="6th_week">
<ellipse fill="#efff05" stroke="black" cx="172.055" cy="-1578.95" rx="28.6953" ry="18"/>
<text text-anchor="middle" x="172.055" y="-1575.25" font-family="Times,serif" font-size="14.00">2432</text>
</a>
</g>
</g>
<!-- 2082&#45;&gt;2432 -->
<g id="edge8" class="edge"><title>2082&#45;&gt;2432</title>
<path fill="none" stroke="black" d="M186.974,-1460.78C183.684,-1486.84 177.645,-1534.68 174.349,-1560.78"/>
</g>
<!-- 3166 -->
<g id="node24" class="node"><title>3166</title>
<g id="a_node24"><a xlink:title="6th_week">
<ellipse fill="#efff05" stroke="black" cx="28.5054" cy="-1494" rx="28.6953" ry="18"/>
<text text-anchor="middle" x="28.5054" y="-1490.3" font-family="Times,serif" font-size="14.00">3166</text>
</a>
</g>
</g>
<!-- 2082&#45;&gt;3166 -->
<g id="edge7" class="edge"><title>2082&#45;&gt;3166</title>
<path fill="none" stroke="black" d="M163.431,-1450.93C133.432,-1460.51 84.24,-1476.21 54.2691,-1485.78"/>
</g>
<!-- 5081 -->
<g id="node27" class="node"><title>5081</title>
<g id="a_node27"><a xlink:title="6th_week">
<ellipse fill="#efff05" stroke="black" cx="38.0332" cy="-1544.27" rx="28.6953" ry="18"/>
<text text-anchor="middle" x="38.0332" y="-1540.57" font-family="Times,serif" font-size="14.00">5081</text>
</a>
</g>
</g>
<!-- 2082&#45;&gt;5081 -->
<g id="edge30" class="edge"><title>2082&#45;&gt;5081</title>
<path fill="none" stroke="black" d="M169.488,-1455.97C140.506,-1475.44 86.7931,-1511.52 57.8081,-1530.99"/>
</g>
<!-- 5869 -->
<g id="node29" class="node"><title>5869</title>
<g id="a_node29"><a xlink:title="6th_week">
<ellipse fill="#efff05" stroke="black" cx="121.881" cy="-1356.57" rx="28.6953" ry="18"/>
<text text-anchor="middle" x="121.881" y="-1352.87" font-family="Times,serif" font-size="14.00">5869</text>
</a>
</g>
</g>
<!-- 2082&#45;&gt;5869 -->
<g id="edge31" class="edge"><title>2082&#45;&gt;5869</title>
<path fill="none" stroke="black" d="M176.585,-1426.49C164.616,-1411.19 146.753,-1388.36 134.727,-1372.99"/>
</g>
<!-- 8942 -->
<g id="node34" class="node"><title>8942</title>
<g id="a_node34"><a xlink:title="6th_week">
<ellipse fill="grey" stroke="black" cx="28.4496" cy="-1447.57" rx="28.6953" ry="18"/>
<text text-anchor="middle" x="28.4496" y="-1443.87" font-family="Times,serif" font-size="14.00">8942</text>
</a>
</g>
</g>
<!-- 2082&#45;&gt;8942 -->
<g id="edge18" class="edge"><title>2082&#45;&gt;8942</title>
<path fill="none" stroke="black" d="M160.509,-1443.56C131.329,-1444.45 86.4085,-1445.81 57.2207,-1446.7"/>
</g>
<!-- 9403 -->
<g id="node35" class="node"><title>9403</title>
<g id="a_node35"><a xlink:title="6th_week">
<ellipse fill="grey" stroke="black" cx="234.658" cy="-1529.46" rx="28.6953" ry="18"/>
<text text-anchor="middle" x="234.658" y="-1525.76" font-family="Times,serif" font-size="14.00">9403</text>
</a>
</g>
</g>
<!-- 2082&#45;&gt;9403 -->
<g id="edge39" class="edge"><title>2082&#45;&gt;9403</title>
<path fill="none" stroke="black" d="M198.228,-1459.83C206.187,-1475.05 217.754,-1497.15 225.707,-1512.35"/>
</g>
<!-- 9426 -->
<g id="node36" class="node"><title>9426</title>
<g id="a_node36"><a xlink:title="6th_week">
<ellipse fill="#20ff05" stroke="black" cx="43.8888" cy="-1402.56" rx="28.6953" ry="18"/>
<text text-anchor="middle" x="43.8888" y="-1398.86" font-family="Times,serif" font-size="14.00">9426</text>
</a>
</g>
</g>
<!-- 2082&#45;&gt;9426 -->
<g id="edge15" class="edge"><title>2082&#45;&gt;9426</title>
<path fill="none" stroke="black" d="M162.933,-1435.42C136.751,-1428.19 96.7948,-1417.16 70.5095,-1409.91"/>
</g>
<!-- 10004 -->
<g id="node41" class="node"><title>10004</title>
<g id="a_node41"><a xlink:title="6th_week">
<ellipse fill="grey" stroke="black" cx="49.1821" cy="-1352.71" rx="32.4942" ry="18"/>
<text text-anchor="middle" x="49.1821" y="-1349.01" font-family="Times,serif" font-size="14.00">10004</text>
</a>
</g>
</g>
<!-- 2082&#45;&gt;10004 -->
<g id="edge34" class="edge"><title>2082&#45;&gt;10004</title>
<path fill="none" stroke="black" d="M169.189,-1429.8C143.014,-1412.98 97.4116,-1383.69 70.5925,-1366.46"/>
</g>
<!-- 11882 -->
<g id="node43" class="node"><title>11882</title>
<g id="a_node43"><a xlink:title="6th_week">
<ellipse fill="#efff05" stroke="black" cx="433.833" cy="-1264.41" rx="32.4942" ry="18"/>
<text text-anchor="middle" x="433.833" y="-1260.71" font-family="Times,serif" font-size="14.00">11882</text>
</a>
</g>
</g>
<!-- 2082&#45;&gt;11882 -->
<g id="edge51" class="edge"><title>2082&#45;&gt;11882</title>
<path fill="none" stroke="black" d="M208.044,-1429C253.233,-1396.06 367.689,-1312.63 413.964,-1278.9"/>
</g>
<!-- 14216 -->
<g id="node49" class="node"><title>14216</title>
<g id="a_node49"><a xlink:title="6th_week">
<ellipse fill="#efff05" stroke="black" cx="309.179" cy="-1545.78" rx="32.4942" ry="18"/>
<text text-anchor="middle" x="309.179" y="-1542.08" font-family="Times,serif" font-size="14.00">14216</text>
</a>
</g>
</g>
<!-- 2082&#45;&gt;14216 -->
<g id="edge17" class="edge"><title>2082&#45;&gt;14216</title>
<path fill="none" stroke="black" d="M206.186,-1457.24C228.783,-1476.67 268.615,-1510.91 291.558,-1530.63"/>
</g>
<!-- 14470 -->
<g id="node51" class="node"><title>14470</title>
<g id="a_node51"><a xlink:title="6th_week">
<ellipse fill="#ffffff" stroke="black" cx="171.122" cy="-1623.48" rx="32.4942" ry="18"/>
<text text-anchor="middle" x="171.122" y="-1619.78" font-family="Times,serif" font-size="14.00">14470</text>
</a>
</g>
</g>
<!-- 2082&#45;&gt;14470 -->
<g id="edge4" class="edge"><title>2082&#45;&gt;14470</title>
<path fill="none" stroke="black" d="M187.453,-1460.69C183.986,-1495.25 176.43,-1570.57 172.947,-1605.29"/>
</g>
<!-- 6485 -->
<g id="node53" class="node"><title>6485</title>
<g id="a_node53"><a xlink:title="6th_week">
<ellipse fill="#efff05" stroke="black" cx="106.057" cy="-1533.13" rx="28.6953" ry="18"/>
<text text-anchor="middle" x="106.057" y="-1529.43" font-family="Times,serif" font-size="14.00">6485</text>
</a>
</g>
</g>
<!-- 2082&#45;&gt;6485 -->
<g id="edge21" class="edge"><title>2082&#45;&gt;6485</title>
<path fill="none" stroke="black" d="M174.766,-1458.44C159.588,-1474.94 135.883,-1500.71 120.663,-1517.25"/>
</g>
<!-- 2465 -->
<g id="node23" class="node"><title>2465</title>
<g id="a_node23"><a xlink:title="6th_week">
<ellipse fill="#efff05" stroke="black" cx="1172.09" cy="-1015.76" rx="28.6953" ry="18"/>
<text text-anchor="middle" x="1172.09" y="-1012.06" font-family="Times,serif" font-size="14.00">2465</text>
</a>
</g>
</g>
<!-- 2465&#45;&gt;9948 -->
<g id="edge24" class="edge"><title>2465&#45;&gt;9948</title>
<path fill="none" stroke="black" d="M1160.02,-999.142C1143.99,-977.096 1115.88,-938.402 1099.87,-916.372"/>
</g>
<!-- 3711 -->
<g id="node25" class="node"><title>3711</title>
<g id="a_node25"><a xlink:title="6th_week">
<ellipse fill="grey" stroke="black" cx="563.646" cy="-1323.12" rx="28.6953" ry="18"/>
<text text-anchor="middle" x="563.646" y="-1319.42" font-family="Times,serif" font-size="14.00">3711</text>
</a>
</g>
</g>
<!-- 3711&#45;&gt;11882 -->
<g id="edge20" class="edge"><title>3711&#45;&gt;11882</title>
<path fill="none" stroke="black" d="M540.138,-1312.49C517.342,-1302.18 482.853,-1286.58 459.388,-1275.97"/>
</g>
<!-- 4636 -->
<g id="node26" class="node"><title>4636</title>
<g id="a_node26"><a xlink:title="6th_week">
<ellipse fill="grey" stroke="black" cx="352.637" cy="-1146.57" rx="28.6953" ry="18"/>
<text text-anchor="middle" x="352.637" y="-1142.87" font-family="Times,serif" font-size="14.00">4636</text>
</a>
</g>
</g>
<!-- 4636&#45;&gt;11882 -->
<g id="edge53" class="edge"><title>4636&#45;&gt;11882</title>
<path fill="none" stroke="black" d="M364.098,-1163.21C379.485,-1185.54 406.676,-1225 422.167,-1247.48"/>
</g>
<!-- 5200 -->
<g id="node28" class="node"><title>5200</title>
<g id="a_node28"><a xlink:title="6th_week">
<ellipse fill="#efff05" stroke="black" cx="405.5" cy="-1383.43" rx="28.6953" ry="18"/>
<text text-anchor="middle" x="405.5" y="-1379.73" font-family="Times,serif" font-size="14.00">5200</text>
</a>
</g>
</g>
<!-- 5200&#45;&gt;11882 -->
<g id="edge25" class="edge"><title>5200&#45;&gt;11882</title>
<path fill="none" stroke="black" d="M409.742,-1365.61C415.083,-1343.18 424.207,-1304.85 429.562,-1282.35"/>
</g>
<!-- 5962 -->
<g id="node30" class="node"><title>5962</title>
<g id="a_node30"><a xlink:title="6th_week">
<ellipse fill="#20ff05" stroke="black" cx="1190.77" cy="-804.045" rx="28.6953" ry="18"/>
<text text-anchor="middle" x="1190.77" y="-800.345" font-family="Times,serif" font-size="14.00">5962</text>
</a>
</g>
</g>
<!-- 5962&#45;&gt;9948 -->
<g id="edge19" class="edge"><title>5962&#45;&gt;9948</title>
<path fill="none" stroke="black" d="M1174.68,-819.005C1155.45,-836.886 1123.46,-866.642 1104.13,-884.617"/>
</g>
<!-- 6550 -->
<g id="node31" class="node"><title>6550</title>
<g id="a_node31"><a xlink:title="6th_week">
<ellipse fill="#efff05" stroke="black" cx="312.983" cy="-1205.52" rx="28.6953" ry="18"/>
<text text-anchor="middle" x="312.983" y="-1201.82" font-family="Times,serif" font-size="14.00">6550</text>
</a>
</g>
</g>
<!-- 6550&#45;&gt;11882 -->
<g id="edge35" class="edge"><title>6550&#45;&gt;11882</title>
<path fill="none" stroke="black" d="M335.714,-1216.59C356.636,-1226.79 387.597,-1241.88 409.124,-1252.37"/>
</g>
<!-- 6721 -->
<g id="node32" class="node"><title>6721</title>
<g id="a_node32"><a xlink:title="6th_week">
<ellipse fill="#efff05" stroke="black" cx="1421.43" cy="-918.854" rx="28.6953" ry="18"/>
<text text-anchor="middle" x="1421.43" y="-915.154" font-family="Times,serif" font-size="14.00">6721</text>
</a>
</g>
</g>
<!-- 13261 -->
<g id="node47" class="node"><title>13261</title>
<g id="a_node47"><a xlink:title="6th_week">
<ellipse fill="#efff05" stroke="black" cx="1272.55" cy="-905.847" rx="32.4942" ry="18"/>
<text text-anchor="middle" x="1272.55" y="-902.147" font-family="Times,serif" font-size="14.00">13261</text>
</a>
</g>
</g>
<!-- 6721&#45;&gt;13261 -->
<g id="edge46" class="edge"><title>6721&#45;&gt;13261</title>
<path fill="none" stroke="black" d="M1393.08,-916.377C1367.85,-914.173 1330.98,-910.953 1304.67,-908.654"/>
</g>
<!-- 8220 -->
<g id="node33" class="node"><title>8220</title>
<g id="a_node33"><a xlink:title="6th_week">
<ellipse fill="#efff05" stroke="black" cx="532.657" cy="-1369.64" rx="28.6953" ry="18"/>
<text text-anchor="middle" x="532.657" y="-1365.94" font-family="Times,serif" font-size="14.00">8220</text>
</a>
</g>
</g>
<!-- 8220&#45;&gt;11882 -->
<g id="edge11" class="edge"><title>8220&#45;&gt;11882</title>
<path fill="none" stroke="black" d="M518.075,-1354.11C499.606,-1334.45 467.926,-1300.72 449.125,-1280.7"/>
</g>
<!-- 9702 -->
<g id="node37" class="node"><title>9702</title>
<g id="a_node37"><a xlink:title="6th_week">
<ellipse fill="#efff05" stroke="black" cx="647.041" cy="-1062.63" rx="28.6953" ry="18"/>
<text text-anchor="middle" x="647.041" y="-1058.93" font-family="Times,serif" font-size="14.00">9702</text>
</a>
</g>
</g>
<!-- 9702&#45;&gt;11882 -->
<g id="edge16" class="edge"><title>9702&#45;&gt;11882</title>
<path fill="none" stroke="black" d="M631.016,-1077.79C591.601,-1115.1 490.249,-1211.02 450.337,-1248.79"/>
</g>
<!-- 9702&#45;&gt;13231 -->
<g id="edge5" class="edge"><title>9702&#45;&gt;13231</title>
<path fill="none" stroke="black" d="M662.523,-1047.24C699.223,-1010.78 791.208,-919.374 828.381,-882.437"/>
</g>
<!-- 13702 -->
<g id="node48" class="node"><title>13702</title>
<g id="a_node48"><a xlink:title="6th_week">
<ellipse fill="#efff05" stroke="black" cx="767.584" cy="-1099.71" rx="32.4942" ry="18"/>
<text text-anchor="middle" x="767.584" y="-1096.01" font-family="Times,serif" font-size="14.00">13702</text>
</a>
</g>
</g>
<!-- 9702&#45;&gt;13702 -->
<g id="edge41" class="edge"><title>9702&#45;&gt;13702</title>
<path fill="none" stroke="black" d="M672.901,-1070.58C692.271,-1076.54 718.772,-1084.69 738.812,-1090.86"/>
</g>
<!-- 9797 -->
<g id="node38" class="node"><title>9797</title>
<g id="a_node38"><a xlink:title="6th_week">
<ellipse fill="#efff05" stroke="black" cx="509.355" cy="-1159.93" rx="28.6953" ry="18"/>
<text text-anchor="middle" x="509.355" y="-1156.23" font-family="Times,serif" font-size="14.00">9797</text>
</a>
</g>
</g>
<!-- 9797&#45;&gt;11882 -->
<g id="edge28" class="edge"><title>9797&#45;&gt;11882</title>
<path fill="none" stroke="black" d="M497.221,-1176.72C483.128,-1196.22 460.017,-1228.19 445.937,-1247.67"/>
</g>
<!-- 9928 -->
<g id="node39" class="node"><title>9928</title>
<g id="a_node39"><a xlink:title="6th_week">
<ellipse fill="#efff05" stroke="black" cx="1197.07" cy="-932.246" rx="28.6953" ry="18"/>
<text text-anchor="middle" x="1197.07" y="-928.546" font-family="Times,serif" font-size="14.00">9928</text>
</a>
</g>
</g>
<!-- 9928&#45;&gt;9948 -->
<g id="edge13" class="edge"><title>9928&#45;&gt;9948</title>
<path fill="none" stroke="black" d="M1171.18,-924.554C1153.89,-919.417 1131.23,-912.685 1113.9,-907.537"/>
</g>
<!-- 12576 -->
<g id="node44" class="node"><title>12576</title>
<g id="a_node44"><a xlink:title="6th_week">
<ellipse fill="grey" stroke="black" cx="1244.2" cy="-978.17" rx="32.4942" ry="18"/>
<text text-anchor="middle" x="1244.2" y="-974.47" font-family="Times,serif" font-size="14.00">12576</text>
</a>
</g>
</g>
<!-- 9948&#45;&gt;12576 -->
<g id="edge3" class="edge"><title>9948&#45;&gt;12576</title>
<path fill="none" stroke="black" d="M1110.22,-911.018C1139.36,-925.622 1190.06,-951.035 1220.04,-966.059"/>
</g>
<!-- 13217 -->
<g id="node45" class="node"><title>13217</title>
<g id="a_node45"><a xlink:title="6th_week">
<ellipse fill="#efff05" stroke="black" cx="1096.53" cy="-1035.96" rx="32.4942" ry="18"/>
<text text-anchor="middle" x="1096.53" y="-1032.26" font-family="Times,serif" font-size="14.00">13217</text>
</a>
</g>
</g>
<!-- 9948&#45;&gt;13217 -->
<g id="edge33" class="edge"><title>9948&#45;&gt;13217</title>
<path fill="none" stroke="black" d="M1088.97,-917.869C1090.64,-943.914 1093.69,-991.714 1095.36,-1017.8"/>
</g>
<!-- 9948&#45;&gt;13231 -->
<g id="edge44" class="edge"><title>9948&#45;&gt;13231</title>
<path fill="none" stroke="black" d="M1059.41,-895.913C1013.62,-889.668 923.815,-877.42 876.021,-870.901"/>
</g>
<!-- 9948&#45;&gt;13261 -->
<g id="edge14" class="edge"><title>9948&#45;&gt;13261</title>
<path fill="none" stroke="black" d="M1116.68,-900.734C1150.06,-901.829 1204.9,-903.628 1239.84,-904.774"/>
</g>
<!-- 14253 -->
<g id="node50" class="node"><title>14253</title>
<g id="a_node50"><a xlink:title="6th_week">
<ellipse fill="#efff05" stroke="black" cx="1228.09" cy="-850.316" rx="32.4942" ry="18"/>
<text text-anchor="middle" x="1228.09" y="-846.616" font-family="Times,serif" font-size="14.00">14253</text>
</a>
</g>
</g>
<!-- 9948&#45;&gt;14253 -->
<g id="edge10" class="edge"><title>9948&#45;&gt;14253</title>
<path fill="none" stroke="black" d="M1112.89,-890.943C1137.48,-882.271 1174.88,-869.082 1200.34,-860.101"/>
</g>
<!-- 11077 -->
<g id="node42" class="node"><title>11077</title>
<g id="a_node42"><a xlink:title="6th_week">
<ellipse fill="#efff05" stroke="black" cx="573.295" cy="-1255.74" rx="32.4942" ry="18"/>
<text text-anchor="middle" x="573.295" y="-1252.04" font-family="Times,serif" font-size="14.00">11077</text>
</a>
</g>
</g>
<!-- 11077&#45;&gt;11882 -->
<g id="edge45" class="edge"><title>11077&#45;&gt;11882</title>
<path fill="none" stroke="black" d="M540.949,-1257.75C518.58,-1259.14 488.923,-1260.99 466.486,-1262.38"/>
</g>
<!-- 15681 -->
<g id="node52" class="node"><title>15681</title>
<g id="a_node52"><a xlink:title="6th_week">
<ellipse fill="#efff05" stroke="black" cx="481.192" cy="-1415.34" rx="32.4942" ry="18"/>
<text text-anchor="middle" x="481.192" y="-1411.64" font-family="Times,serif" font-size="14.00">15681</text>
</a>
</g>
</g>
<!-- 11882&#45;&gt;15681 -->
<g id="edge6" class="edge"><title>11882&#45;&gt;15681</title>
<path fill="none" stroke="black" d="M439.452,-1282.32C448.566,-1311.37 466.471,-1368.43 475.581,-1397.46"/>
</g>
<!-- 1880 -->
<g id="node54" class="node"><title>1880</title>
<g id="a_node54"><a xlink:title="6th_week">
<ellipse fill="#efff05" stroke="black" cx="421.095" cy="-1125.68" rx="28.6953" ry="18"/>
<text text-anchor="middle" x="421.095" y="-1121.98" font-family="Times,serif" font-size="14.00">1880</text>
</a>
</g>
</g>
<!-- 11882&#45;&gt;1880 -->
<g id="edge12" class="edge"><title>11882&#45;&gt;1880</title>
<path fill="none" stroke="black" d="M432.168,-1246.28C429.726,-1219.69 425.202,-1170.41 422.761,-1143.82"/>
</g>
</g>
</svg>
