<?xml version="1.0" encoding="UTF-8" standalone="no"?>
<!DOCTYPE svg PUBLIC "-//W3C//DTD SVG 1.1//EN"
 "http://www.w3.org/Graphics/SVG/1.1/DTD/svg11.dtd">
<!-- Generated by graphviz version 2.38.0 (20140413.2041)
 -->
<!-- Title: %3 Pages: 1 -->
<svg width="1809pt" height="2765pt"
 viewBox="0.00 0.00 1809.00 2765.00" xmlns="http://www.w3.org/2000/svg" xmlns:xlink="http://www.w3.org/1999/xlink">
<g id="graph0" class="graph" transform="scale(1 1) rotate(0) translate(4 2761)">
<title>%3</title>
<polygon fill="white" stroke="none" points="-4,4 -4,-2761 1805,-2761 1805,4 -4,4"/>
<!-- 470 -->
<g id="node1" class="node"><title>470</title>
<g id="a_node1"><a xlink:title="6th_week">
<ellipse fill="#20ff05" stroke="black" cx="724.834" cy="-1166.44" rx="27" ry="18"/>
<text text-anchor="middle" x="724.834" y="-1162.74" font-family="Times,serif" font-size="14.00">470</text>
</a>
</g>
</g>
<!-- 9152 -->
<g id="node21" class="node"><title>9152</title>
<g id="a_node21"><a xlink:title="6th_week">
<ellipse fill="#20ff05" stroke="black" cx="869.572" cy="-1469.53" rx="28.6953" ry="18"/>
<text text-anchor="middle" x="869.572" y="-1465.83" font-family="Times,serif" font-size="14.00">9152</text>
</a>
</g>
</g>
<!-- 470&#45;&gt;9152 -->
<g id="edge19" class="edge"><title>470&#45;&gt;9152</title>
<path fill="none" stroke="black" d="M733.03,-1183.61C758.446,-1236.83 835.749,-1398.71 861.286,-1452.18"/>
</g>
<!-- 14606 -->
<g id="node30" class="node"><title>14606</title>
<g id="a_node30"><a xlink:title="6th_week">
<ellipse fill="#20ff05" stroke="black" cx="592.341" cy="-870.966" rx="32.4942" ry="18"/>
<text text-anchor="middle" x="592.341" y="-867.266" font-family="Times,serif" font-size="14.00">14606</text>
</a>
</g>
</g>
<!-- 470&#45;&gt;14606 -->
<g id="edge37" class="edge"><title>470&#45;&gt;14606</title>
<path fill="none" stroke="black" d="M716.942,-1148.84C693.377,-1096.29 623.702,-940.905 600.191,-888.473"/>
</g>
<!-- 22277 -->
<g id="node37" class="node"><title>22277</title>
<g id="a_node37"><a xlink:title="6th_week">
<ellipse fill="grey" stroke="black" cx="602.726" cy="-1102.17" rx="32.4942" ry="18"/>
<text text-anchor="middle" x="602.726" y="-1098.47" font-family="Times,serif" font-size="14.00">22277</text>
</a>
</g>
</g>
<!-- 470&#45;&gt;22277 -->
<g id="edge13" class="edge"><title>470&#45;&gt;22277</title>
<path fill="none" stroke="black" d="M703.564,-1155.25C682.109,-1143.95 649.043,-1126.55 626.678,-1114.78"/>
</g>
<!-- 761 -->
<g id="node2" class="node"><title>761</title>
<g id="a_node2"><a xlink:title="6th_week">
<ellipse fill="#20ff05" stroke="black" cx="1399.87" cy="-2335.87" rx="27" ry="18"/>
<text text-anchor="middle" x="1399.87" y="-2332.17" font-family="Times,serif" font-size="14.00">761</text>
</a>
</g>
</g>
<!-- 1982 -->
<g id="node5" class="node"><title>1982</title>
<g id="a_node5"><a xlink:title="6th_week">
<ellipse fill="#20ff05" stroke="black" cx="1559.7" cy="-2475.64" rx="28.6953" ry="18"/>
<text text-anchor="middle" x="1559.7" y="-2471.94" font-family="Times,serif" font-size="14.00">1982</text>
</a>
</g>
</g>
<!-- 761&#45;&gt;1982 -->
<g id="edge38" class="edge"><title>761&#45;&gt;1982</title>
<path fill="none" stroke="black" d="M1416.37,-2350.3C1446.84,-2376.94 1511.63,-2433.6 1542.57,-2460.66"/>
</g>
<!-- 5430 -->
<g id="node15" class="node"><title>5430</title>
<g id="a_node15"><a xlink:title="6th_week,PRE">
<ellipse fill="#20ff05" stroke="black" cx="1175.02" cy="-2152.87" rx="28.6832" ry="18"/>
<ellipse fill="none" stroke="black" cx="1175.02" cy="-2152.87" rx="32.6952" ry="22"/>
<text text-anchor="middle" x="1175.02" y="-2149.17" font-family="Times,serif" font-size="14.00">5430</text>
</a>
</g>
</g>
<!-- 761&#45;&gt;5430 -->
<g id="edge18" class="edge"><title>761&#45;&gt;5430</title>
<path fill="none" stroke="black" d="M1382.6,-2321.81C1341.87,-2288.67 1239.97,-2205.73 1195.88,-2169.85"/>
</g>
<!-- 1502 -->
<g id="node3" class="node"><title>1502</title>
<g id="a_node3"><a xlink:title="3rd_week">
<ellipse fill="grey" stroke="black" cx="28.1462" cy="-134.49" rx="28.6953" ry="18"/>
<text text-anchor="middle" x="28.1462" y="-130.79" font-family="Times,serif" font-size="14.00">1502</text>
</a>
</g>
</g>
<!-- 3539 -->
<g id="node12" class="node"><title>3539</title>
<g id="a_node12"><a xlink:title="3rd_week">
<ellipse fill="#20ff05" stroke="black" cx="185.06" cy="-192.018" rx="28.6953" ry="18"/>
<text text-anchor="middle" x="185.06" y="-188.318" font-family="Times,serif" font-size="14.00">3539</text>
</a>
</g>
</g>
<!-- 1502&#45;&gt;3539 -->
<g id="edge21" class="edge"><title>1502&#45;&gt;3539</title>
<path fill="none" stroke="black" d="M53.0096,-143.606C82.3913,-154.378 130.982,-172.192 160.313,-182.945"/>
</g>
<!-- 1862 -->
<g id="node4" class="node"><title>1862</title>
<g id="a_node4"><a xlink:title="6th_week">
<ellipse fill="grey" stroke="black" cx="982.401" cy="-2228.37" rx="28.6953" ry="18"/>
<text text-anchor="middle" x="982.401" y="-2224.67" font-family="Times,serif" font-size="14.00">1862</text>
</a>
</g>
</g>
<!-- 1862&#45;&gt;5430 -->
<g id="edge41" class="edge"><title>1862&#45;&gt;5430</title>
<path fill="none" stroke="black" d="M1006.8,-2218.81C1042.53,-2204.8 1108.95,-2178.77 1146.76,-2163.95"/>
</g>
<!-- 2013 -->
<g id="node6" class="node"><title>2013</title>
<g id="a_node6"><a xlink:title="6th_week">
<ellipse fill="#20ff05" stroke="black" cx="1261.8" cy="-1924.08" rx="28.6953" ry="18"/>
<text text-anchor="middle" x="1261.8" y="-1920.38" font-family="Times,serif" font-size="14.00">2013</text>
</a>
</g>
</g>
<!-- 2013&#45;&gt;5430 -->
<g id="edge45" class="edge"><title>2013&#45;&gt;5430</title>
<path fill="none" stroke="black" d="M1255.14,-1941.65C1239.46,-1982.99 1200.29,-2086.26 1183.2,-2131.3"/>
</g>
<!-- 2121 -->
<g id="node7" class="node"><title>2121</title>
<g id="a_node7"><a xlink:title="Day_0">
<ellipse fill="#20ff05" stroke="black" cx="323.025" cy="-397.26" rx="28.6953" ry="18"/>
<text text-anchor="middle" x="323.025" y="-393.56" font-family="Times,serif" font-size="14.00">2121</text>
</a>
</g>
</g>
<!-- 2121&#45;&gt;3539 -->
<g id="edge23" class="edge"><title>2121&#45;&gt;3539</title>
<path fill="none" stroke="black" d="M311.734,-380.464C285.799,-341.882 222.212,-247.286 196.313,-208.758"/>
</g>
<!-- 5760 -->
<g id="node16" class="node"><title>5760</title>
<g id="a_node16"><a xlink:title="Day_0">
<ellipse fill="#20ff05" stroke="black" cx="479.477" cy="-587.856" rx="28.6953" ry="18"/>
<text text-anchor="middle" x="479.477" y="-584.156" font-family="Times,serif" font-size="14.00">5760</text>
</a>
</g>
</g>
<!-- 2121&#45;&gt;5760 -->
<g id="edge5" class="edge"><title>2121&#45;&gt;5760</title>
<path fill="none" stroke="black" d="M336.364,-413.51C365.922,-449.519 436.645,-535.677 466.171,-571.647"/>
</g>
<!-- 2550 -->
<g id="node8" class="node"><title>2550</title>
<g id="a_node8"><a xlink:title="6th_week">
<ellipse fill="#20ff05" stroke="black" cx="1163.66" cy="-1974.96" rx="28.6953" ry="18"/>
<text text-anchor="middle" x="1163.66" y="-1971.26" font-family="Times,serif" font-size="14.00">2550</text>
</a>
</g>
</g>
<!-- 2550&#45;&gt;5430 -->
<g id="edge52" class="edge"><title>2550&#45;&gt;5430</title>
<path fill="none" stroke="black" d="M1164.81,-1993C1166.9,-2025.77 1171.32,-2094.99 1173.6,-2130.63"/>
</g>
<!-- 2840 -->
<g id="node9" class="node"><title>2840</title>
<g id="a_node9"><a xlink:title="6th_week">
<ellipse fill="#20ff05" stroke="black" cx="959.158" cy="-2126.4" rx="28.6953" ry="18"/>
<text text-anchor="middle" x="959.158" y="-2122.7" font-family="Times,serif" font-size="14.00">2840</text>
</a>
</g>
</g>
<!-- 2840&#45;&gt;5430 -->
<g id="edge32" class="edge"><title>2840&#45;&gt;5430</title>
<path fill="none" stroke="black" d="M987.378,-2129.86C1027.49,-2134.78 1100.79,-2143.77 1142.92,-2148.93"/>
</g>
<!-- 2908 -->
<g id="node10" class="node"><title>2908</title>
<g id="a_node10"><a xlink:title="6th_week">
<ellipse fill="#20ff05" stroke="black" cx="1030.04" cy="-2174.53" rx="28.6953" ry="18"/>
<text text-anchor="middle" x="1030.04" y="-2170.83" font-family="Times,serif" font-size="14.00">2908</text>
</a>
</g>
</g>
<!-- 2908&#45;&gt;5430 -->
<g id="edge12" class="edge"><title>2908&#45;&gt;5430</title>
<path fill="none" stroke="black" d="M1057.99,-2170.35C1082.35,-2166.71 1117.65,-2161.44 1143.11,-2157.64"/>
</g>
<!-- 3071 -->
<g id="node11" class="node"><title>3071</title>
<g id="a_node11"><a xlink:title="6th_week">
<ellipse fill="#20ff05" stroke="black" cx="1069.32" cy="-2025.71" rx="28.6953" ry="18"/>
<text text-anchor="middle" x="1069.32" y="-2022.01" font-family="Times,serif" font-size="14.00">3071</text>
</a>
</g>
</g>
<!-- 3071&#45;&gt;5430 -->
<g id="edge24" class="edge"><title>3071&#45;&gt;5430</title>
<path fill="none" stroke="black" d="M1082.7,-2041.81C1102.15,-2065.21 1138.14,-2108.51 1158.98,-2133.58"/>
</g>
<!-- 30060 -->
<g id="node47" class="node"><title>30060</title>
<g id="a_node47"><a xlink:title="3rd_week">
<ellipse fill="#20ff05" stroke="black" cx="189.913" cy="-17.707" rx="32.4942" ry="18"/>
<text text-anchor="middle" x="189.913" y="-14.007" font-family="Times,serif" font-size="14.00">30060</text>
</a>
</g>
</g>
<!-- 3539&#45;&gt;30060 -->
<g id="edge17" class="edge"><title>3539&#45;&gt;30060</title>
<path fill="none" stroke="black" d="M185.561,-174.02C186.491,-140.618 188.474,-69.3928 189.407,-35.868"/>
</g>
<!-- 17855 -->
<g id="node56" class="node"><title>17855</title>
<g id="a_node56"><a xlink:title="3rd_week">
<ellipse fill="#07ffd1" stroke="black" cx="87.6506" cy="-45.8924" rx="32.4942" ry="18"/>
<text text-anchor="middle" x="87.6506" y="-42.1924" font-family="Times,serif" font-size="14.00">17855</text>
</a>
</g>
</g>
<!-- 3539&#45;&gt;17855 -->
<g id="edge2" class="edge"><title>3539&#45;&gt;17855</title>
<path fill="none" stroke="black" d="M173.886,-175.255C155.196,-147.218 117.797,-91.1155 98.9944,-62.9095"/>
</g>
<!-- 3583 -->
<g id="node13" class="node"><title>3583</title>
<g id="a_node13"><a xlink:title="PRE">
<ellipse fill="#20ff05" stroke="black" cx="1310.73" cy="-2406.52" rx="28.6953" ry="18"/>
<text text-anchor="middle" x="1310.73" y="-2402.82" font-family="Times,serif" font-size="14.00">3583</text>
</a>
</g>
</g>
<!-- 3583&#45;&gt;5430 -->
<g id="edge3" class="edge"><title>3583&#45;&gt;5430</title>
<path fill="none" stroke="black" d="M1301.4,-2389.08C1277.15,-2343.75 1212.19,-2222.34 1186.09,-2173.57"/>
</g>
<!-- 25031 -->
<g id="node41" class="node"><title>25031</title>
<g id="a_node41"><a xlink:title="6th_week">
<ellipse fill="#20ff05" stroke="black" cx="1401.63" cy="-2602.72" rx="32.4942" ry="18"/>
<text text-anchor="middle" x="1401.63" y="-2599.02" font-family="Times,serif" font-size="14.00">25031</text>
</a>
</g>
</g>
<!-- 3583&#45;&gt;25031 -->
<g id="edge36" class="edge"><title>3583&#45;&gt;25031</title>
<path fill="none" stroke="black" d="M1318.8,-2423.93C1336,-2461.07 1376.14,-2547.71 1393.45,-2585.07"/>
</g>
<!-- 4374 -->
<g id="node14" class="node"><title>4374</title>
<g id="a_node14"><a xlink:title="PRE">
<ellipse fill="#20ff05" stroke="black" cx="1766.97" cy="-2149.34" rx="28.6953" ry="18"/>
<text text-anchor="middle" x="1766.97" y="-2145.64" font-family="Times,serif" font-size="14.00">4374</text>
</a>
</g>
</g>
<!-- 16124 -->
<g id="node33" class="node"><title>16124</title>
<g id="a_node33"><a xlink:title="PRE">
<ellipse fill="#20ff05" stroke="black" cx="1543.56" cy="-2126.99" rx="32.4942" ry="18"/>
<text text-anchor="middle" x="1543.56" y="-2123.29" font-family="Times,serif" font-size="14.00">16124</text>
</a>
</g>
</g>
<!-- 4374&#45;&gt;16124 -->
<g id="edge51" class="edge"><title>4374&#45;&gt;16124</title>
<path fill="none" stroke="black" d="M1738.68,-2146.51C1697,-2142.34 1619.31,-2134.57 1575.59,-2130.2"/>
</g>
<!-- 7448 -->
<g id="node17" class="node"><title>7448</title>
<g id="a_node17"><a xlink:title="6th_week">
<ellipse fill="#20ff05" stroke="black" cx="1322.83" cy="-2112.48" rx="28.6953" ry="18"/>
<text text-anchor="middle" x="1322.83" y="-2108.78" font-family="Times,serif" font-size="14.00">7448</text>
</a>
</g>
</g>
<!-- 5430&#45;&gt;7448 -->
<g id="edge56" class="edge"><title>5430&#45;&gt;7448</title>
<path fill="none" stroke="black" d="M1205.29,-2144.6C1232.15,-2137.26 1270.99,-2126.65 1296.56,-2119.66"/>
</g>
<!-- 7899 -->
<g id="node19" class="node"><title>7899</title>
<g id="a_node19"><a xlink:title="6th_week">
<ellipse fill="grey" stroke="black" cx="1022.34" cy="-2282.31" rx="28.6953" ry="18"/>
<text text-anchor="middle" x="1022.34" y="-2278.61" font-family="Times,serif" font-size="14.00">7899</text>
</a>
</g>
</g>
<!-- 5430&#45;&gt;7899 -->
<g id="edge42" class="edge"><title>5430&#45;&gt;7899</title>
<path fill="none" stroke="black" d="M1154.43,-2170.33C1124.15,-2196 1068.14,-2243.48 1039.78,-2267.53"/>
</g>
<!-- 8661 -->
<g id="node20" class="node"><title>8661</title>
<g id="a_node20"><a xlink:title="6th_week">
<ellipse fill="#20ff05" stroke="black" cx="1273.67" cy="-2317.11" rx="28.6953" ry="18"/>
<text text-anchor="middle" x="1273.67" y="-2313.41" font-family="Times,serif" font-size="14.00">8661</text>
</a>
</g>
</g>
<!-- 5430&#45;&gt;8661 -->
<g id="edge14" class="edge"><title>5430&#45;&gt;8661</title>
<path fill="none" stroke="black" d="M1187.31,-2173.34C1206.94,-2206.02 1245,-2269.39 1263.33,-2299.89"/>
</g>
<!-- 10146 -->
<g id="node23" class="node"><title>10146</title>
<g id="a_node23"><a xlink:title="6th_week">
<ellipse fill="#20ff05" stroke="black" cx="909.382" cy="-2216.63" rx="32.4942" ry="18"/>
<text text-anchor="middle" x="909.382" y="-2212.93" font-family="Times,serif" font-size="14.00">10146</text>
</a>
</g>
</g>
<!-- 5430&#45;&gt;10146 -->
<g id="edge54" class="edge"><title>5430&#45;&gt;10146</title>
<path fill="none" stroke="black" d="M1144.29,-2160.25C1092.94,-2172.57 990.32,-2197.2 939.429,-2209.42"/>
</g>
<!-- 11289 -->
<g id="node25" class="node"><title>11289</title>
<g id="a_node25"><a xlink:title="6th_week">
<ellipse fill="grey" stroke="black" cx="1365.11" cy="-2013.54" rx="32.4942" ry="18"/>
<text text-anchor="middle" x="1365.11" y="-2009.84" font-family="Times,serif" font-size="14.00">11289</text>
</a>
</g>
</g>
<!-- 5430&#45;&gt;11289 -->
<g id="edge30" class="edge"><title>5430&#45;&gt;11289</title>
<path fill="none" stroke="black" d="M1197.19,-2136.62C1234.61,-2109.19 1309.67,-2054.18 1345.37,-2028.01"/>
</g>
<!-- 13607 -->
<g id="node27" class="node"><title>13607</title>
<g id="a_node27"><a xlink:title="PRE">
<ellipse fill="#20ff05" stroke="black" cx="1084.72" cy="-1951.43" rx="32.4942" ry="18"/>
<text text-anchor="middle" x="1084.72" y="-1947.73" font-family="Times,serif" font-size="14.00">13607</text>
</a>
</g>
</g>
<!-- 5430&#45;&gt;13607 -->
<g id="edge50" class="edge"><title>5430&#45;&gt;13607</title>
<path fill="none" stroke="black" d="M1165.52,-2131.69C1147.64,-2091.79 1109.26,-2006.17 1092.65,-1969.12"/>
</g>
<!-- 16089 -->
<g id="node32" class="node"><title>16089</title>
<g id="a_node32"><a xlink:title="6th_week">
<ellipse fill="#ffffff" stroke="black" cx="983.517" cy="-2064.71" rx="32.4942" ry="18"/>
<text text-anchor="middle" x="983.517" y="-2061.01" font-family="Times,serif" font-size="14.00">16089</text>
</a>
</g>
</g>
<!-- 5430&#45;&gt;16089 -->
<g id="edge4" class="edge"><title>5430&#45;&gt;16089</title>
<path fill="none" stroke="black" d="M1147.99,-2140.43C1110.87,-2123.34 1044.64,-2092.85 1008.58,-2076.25"/>
</g>
<!-- 5430&#45;&gt;16124 -->
<g id="edge49" class="edge"><title>5430&#45;&gt;16124</title>
<path fill="none" stroke="black" d="M1207.72,-2150.57C1277.75,-2145.66 1441.47,-2134.16 1511.19,-2129.27"/>
</g>
<!-- 20219 -->
<g id="node34" class="node"><title>20219</title>
<g id="a_node34"><a xlink:title="6th_week">
<ellipse fill="#20ff05" stroke="black" cx="1341.89" cy="-2261.55" rx="32.4942" ry="18"/>
<text text-anchor="middle" x="1341.89" y="-2257.85" font-family="Times,serif" font-size="14.00">20219</text>
</a>
</g>
</g>
<!-- 5430&#45;&gt;20219 -->
<g id="edge35" class="edge"><title>5430&#45;&gt;20219</title>
<path fill="none" stroke="black" d="M1198.57,-2168.21C1231.18,-2189.45 1289.6,-2227.49 1320.83,-2247.83"/>
</g>
<!-- 20345 -->
<g id="node35" class="node"><title>20345</title>
<g id="a_node35"><a xlink:title="6th_week">
<ellipse fill="#20ff05" stroke="black" cx="1222.51" cy="-2377.63" rx="32.4942" ry="18"/>
<text text-anchor="middle" x="1222.51" y="-2373.93" font-family="Times,serif" font-size="14.00">20345</text>
</a>
</g>
</g>
<!-- 5430&#45;&gt;20345 -->
<g id="edge31" class="edge"><title>5430&#45;&gt;20345</title>
<path fill="none" stroke="black" d="M1179.66,-2174.83C1189.04,-2219.24 1210.11,-2318.93 1218.73,-2359.72"/>
</g>
<!-- 24570 -->
<g id="node40" class="node"><title>24570</title>
<g id="a_node40"><a xlink:title="3rd_week">
<ellipse fill="#20ff05" stroke="black" cx="1086.21" cy="-2488.2" rx="32.4942" ry="18"/>
<text text-anchor="middle" x="1086.21" y="-2484.5" font-family="Times,serif" font-size="14.00">24570</text>
</a>
</g>
</g>
<!-- 5430&#45;&gt;24570 -->
<g id="edge9" class="edge"><title>5430&#45;&gt;24570</title>
<path fill="none" stroke="black" d="M1169.26,-2174.62C1152.85,-2236.59 1106.05,-2413.3 1090.96,-2470.27"/>
</g>
<!-- 25845 -->
<g id="node42" class="node"><title>25845</title>
<g id="a_node42"><a xlink:title="6th_week">
<ellipse fill="#20ff05" stroke="black" cx="1256.15" cy="-1995.21" rx="32.4942" ry="18"/>
<text text-anchor="middle" x="1256.15" y="-1991.51" font-family="Times,serif" font-size="14.00">25845</text>
</a>
</g>
</g>
<!-- 5430&#45;&gt;25845 -->
<g id="edge10" class="edge"><title>5430&#45;&gt;25845</title>
<path fill="none" stroke="black" d="M1185.79,-2131.94C1201.91,-2100.61 1232.03,-2042.1 1247.09,-2012.83"/>
</g>
<!-- 26046 -->
<g id="node43" class="node"><title>26046</title>
<g id="a_node43"><a xlink:title="6th_week">
<ellipse fill="#20ff05" stroke="black" cx="1027.36" cy="-1804.15" rx="32.4942" ry="18"/>
<text text-anchor="middle" x="1027.36" y="-1800.45" font-family="Times,serif" font-size="14.00">26046</text>
</a>
</g>
</g>
<!-- 5430&#45;&gt;26046 -->
<g id="edge47" class="edge"><title>5430&#45;&gt;26046</title>
<path fill="none" stroke="black" d="M1166,-2131.58C1139.08,-2068 1059.59,-1880.27 1034.82,-1821.77"/>
</g>
<!-- 26768 -->
<g id="node44" class="node"><title>26768</title>
<g id="a_node44"><a xlink:title="6th_week">
<ellipse fill="#20ff05" stroke="black" cx="1137.92" cy="-2377.71" rx="32.4942" ry="18"/>
<text text-anchor="middle" x="1137.92" y="-2374.01" font-family="Times,serif" font-size="14.00">26768</text>
</a>
</g>
</g>
<!-- 5430&#45;&gt;26768 -->
<g id="edge34" class="edge"><title>5430&#45;&gt;26768</title>
<path fill="none" stroke="black" d="M1171.39,-2174.84C1164.08,-2219.15 1147.69,-2318.49 1140.93,-2359.49"/>
</g>
<!-- 29244 -->
<g id="node45" class="node"><title>29244</title>
<g id="a_node45"><a xlink:title="6th_week">
<ellipse fill="#20ff05" stroke="black" cx="1050.3" cy="-2343.26" rx="32.4942" ry="18"/>
<text text-anchor="middle" x="1050.3" y="-2339.56" font-family="Times,serif" font-size="14.00">29244</text>
</a>
</g>
</g>
<!-- 5430&#45;&gt;29244 -->
<g id="edge16" class="edge"><title>5430&#45;&gt;29244</title>
<path fill="none" stroke="black" d="M1161.67,-2173.25C1136.97,-2210.95 1084.57,-2290.94 1061.55,-2326.09"/>
</g>
<!-- 30327 -->
<g id="node49" class="node"><title>30327</title>
<g id="a_node49"><a xlink:title="6th_week">
<ellipse fill="#20ff05" stroke="black" cx="1144.67" cy="-2309.27" rx="32.4942" ry="18"/>
<text text-anchor="middle" x="1144.67" y="-2305.57" font-family="Times,serif" font-size="14.00">30327</text>
</a>
</g>
</g>
<!-- 5430&#45;&gt;30327 -->
<g id="edge40" class="edge"><title>5430&#45;&gt;30327</title>
<path fill="none" stroke="black" d="M1170.73,-2174.95C1164.69,-2206.1 1153.77,-2262.38 1148.18,-2291.2"/>
</g>
<!-- 30340 -->
<g id="node50" class="node"><title>30340</title>
<g id="a_node50"><a xlink:title="6th_week">
<ellipse fill="grey" stroke="black" cx="1338.78" cy="-1954.12" rx="32.4942" ry="18"/>
<text text-anchor="middle" x="1338.78" y="-1950.42" font-family="Times,serif" font-size="14.00">30340</text>
</a>
</g>
</g>
<!-- 5430&#45;&gt;30340 -->
<g id="edge46" class="edge"><title>5430&#45;&gt;30340</title>
<path fill="none" stroke="black" d="M1191.02,-2133.45C1223.21,-2094.38 1295.29,-2006.9 1325.28,-1970.5"/>
</g>
<!-- 30424 -->
<g id="node51" class="node"><title>30424</title>
<g id="a_node51"><a xlink:title="6th_week">
<ellipse fill="#20ff05" stroke="black" cx="989.495" cy="-2011.5" rx="32.4942" ry="18"/>
<text text-anchor="middle" x="989.495" y="-2007.8" font-family="Times,serif" font-size="14.00">30424</text>
</a>
</g>
</g>
<!-- 5430&#45;&gt;30424 -->
<g id="edge11" class="edge"><title>5430&#45;&gt;30424</title>
<path fill="none" stroke="black" d="M1153.37,-2136.38C1116.86,-2108.55 1043.61,-2052.73 1008.76,-2026.18"/>
</g>
<!-- 32022 -->
<g id="node52" class="node"><title>32022</title>
<g id="a_node52"><a xlink:title="6th_week">
<ellipse fill="#20ff05" stroke="black" cx="1175.61" cy="-1908.85" rx="32.4942" ry="18"/>
<text text-anchor="middle" x="1175.61" y="-1905.15" font-family="Times,serif" font-size="14.00">32022</text>
</a>
</g>
</g>
<!-- 5430&#45;&gt;32022 -->
<g id="edge22" class="edge"><title>5430&#45;&gt;32022</title>
<path fill="none" stroke="black" d="M1175.07,-2130.79C1175.19,-2083.04 1175.46,-1970.96 1175.57,-1927"/>
</g>
<!-- 34038 -->
<g id="node53" class="node"><title>34038</title>
<g id="a_node53"><a xlink:title="6th_week">
<ellipse fill="#20ff05" stroke="black" cx="1410.1" cy="-2210.25" rx="32.4942" ry="18"/>
<text text-anchor="middle" x="1410.1" y="-2206.55" font-family="Times,serif" font-size="14.00">34038</text>
</a>
</g>
</g>
<!-- 5430&#45;&gt;34038 -->
<g id="edge39" class="edge"><title>5430&#45;&gt;34038</title>
<path fill="none" stroke="black" d="M1205.75,-2160.37C1251.05,-2171.43 1335.22,-2191.97 1380.1,-2202.93"/>
</g>
<!-- 34119 -->
<g id="node54" class="node"><title>34119</title>
<g id="a_node54"><a xlink:title="6th_week">
<ellipse fill="#ffffff" stroke="black" cx="1407.76" cy="-2067.41" rx="32.4942" ry="18"/>
<text text-anchor="middle" x="1407.76" y="-2063.71" font-family="Times,serif" font-size="14.00">34119</text>
</a>
</g>
</g>
<!-- 5430&#45;&gt;34119 -->
<g id="edge43" class="edge"><title>5430&#45;&gt;34119</title>
<path fill="none" stroke="black" d="M1204.02,-2142.22C1249.35,-2125.58 1336.36,-2093.63 1380.56,-2077.4"/>
</g>
<!-- 16299 -->
<g id="node55" class="node"><title>16299</title>
<g id="a_node55"><a xlink:title="6th_week">
<ellipse fill="#20ff05" stroke="black" cx="1413.56" cy="-2148.18" rx="32.4942" ry="18"/>
<text text-anchor="middle" x="1413.56" y="-2144.48" font-family="Times,serif" font-size="14.00">16299</text>
</a>
</g>
</g>
<!-- 5430&#45;&gt;16299 -->
<g id="edge1" class="edge"><title>5430&#45;&gt;16299</title>
<path fill="none" stroke="black" d="M1207.68,-2152.23C1253.24,-2151.33 1335.36,-2149.72 1380.91,-2148.82"/>
</g>
<!-- 9509 -->
<g id="node22" class="node"><title>9509</title>
<g id="a_node22"><a xlink:title="Day_0">
<ellipse fill="grey" stroke="black" cx="477.181" cy="-394.402" rx="28.6953" ry="18"/>
<text text-anchor="middle" x="477.181" y="-390.702" font-family="Times,serif" font-size="14.00">9509</text>
</a>
</g>
</g>
<!-- 5760&#45;&gt;9509 -->
<g id="edge26" class="edge"><title>5760&#45;&gt;9509</title>
<path fill="none" stroke="black" d="M479.261,-569.657C478.822,-532.692 477.831,-449.218 477.395,-412.412"/>
</g>
<!-- 13358 -->
<g id="node26" class="node"><title>13358</title>
<g id="a_node26"><a xlink:title="Day_0">
<ellipse fill="grey" stroke="black" cx="566.871" cy="-456.626" rx="32.4942" ry="18"/>
<text text-anchor="middle" x="566.871" y="-452.926" font-family="Times,serif" font-size="14.00">13358</text>
</a>
</g>
</g>
<!-- 5760&#45;&gt;13358 -->
<g id="edge7" class="edge"><title>5760&#45;&gt;13358</title>
<path fill="none" stroke="black" d="M490.545,-571.236C507.264,-546.131 538.788,-498.795 555.616,-473.526"/>
</g>
<!-- 5760&#45;&gt;14606 -->
<g id="edge15" class="edge"><title>5760&#45;&gt;14606</title>
<path fill="none" stroke="black" d="M486.537,-605.566C506.806,-656.409 565.018,-802.429 585.284,-853.263"/>
</g>
<!-- 7569 -->
<g id="node18" class="node"><title>7569</title>
<g id="a_node18"><a xlink:title="6th_week">
<ellipse fill="#20ff05" stroke="black" cx="703.728" cy="-2270.27" rx="28.6953" ry="18"/>
<text text-anchor="middle" x="703.728" y="-2266.57" font-family="Times,serif" font-size="14.00">7569</text>
</a>
</g>
</g>
<!-- 7569&#45;&gt;10146 -->
<g id="edge57" class="edge"><title>7569&#45;&gt;10146</title>
<path fill="none" stroke="black" d="M730.192,-2263.36C768.596,-2253.35 839.555,-2234.84 879.692,-2224.38"/>
</g>
<!-- 9152&#45;&gt;26046 -->
<g id="edge8" class="edge"><title>9152&#45;&gt;26046</title>
<path fill="none" stroke="black" d="M877.833,-1487.05C905.037,-1544.74 991.631,-1728.38 1018.99,-1786.4"/>
</g>
<!-- 32202 -->
<g id="node57" class="node"><title>32202</title>
<g id="a_node57"><a xlink:title="Day_0">
<ellipse fill="grey" stroke="black" cx="503.055" cy="-220.978" rx="32.4942" ry="18"/>
<text text-anchor="middle" x="503.055" y="-217.278" font-family="Times,serif" font-size="14.00">32202</text>
</a>
</g>
</g>
<!-- 9509&#45;&gt;32202 -->
<g id="edge25" class="edge"><title>9509&#45;&gt;32202</title>
<path fill="none" stroke="black" d="M479.901,-376.17C484.883,-342.776 495.416,-272.177 500.372,-238.966"/>
</g>
<!-- 10607 -->
<g id="node24" class="node"><title>10607</title>
<g id="a_node24"><a xlink:title="PRE">
<ellipse fill="#20ff05" stroke="black" cx="1768.34" cy="-2072.12" rx="32.4942" ry="18"/>
<text text-anchor="middle" x="1768.34" y="-2068.42" font-family="Times,serif" font-size="14.00">10607</text>
</a>
</g>
</g>
<!-- 10607&#45;&gt;16124 -->
<g id="edge20" class="edge"><title>10607&#45;&gt;16124</title>
<path fill="none" stroke="black" d="M1738.49,-2079.41C1695.5,-2089.9 1616.6,-2109.16 1573.54,-2119.68"/>
</g>
<!-- 13830 -->
<g id="node28" class="node"><title>13830</title>
<g id="a_node28"><a xlink:title="PRE">
<ellipse fill="grey" stroke="black" cx="1730.63" cy="-1996.91" rx="32.4942" ry="18"/>
<text text-anchor="middle" x="1730.63" y="-1993.21" font-family="Times,serif" font-size="14.00">13830</text>
</a>
</g>
</g>
<!-- 13830&#45;&gt;16124 -->
<g id="edge28" class="edge"><title>13830&#45;&gt;16124</title>
<path fill="none" stroke="black" d="M1710.26,-2011.08C1674.27,-2036.1 1599.88,-2087.83 1563.91,-2112.84"/>
</g>
<!-- 13948 -->
<g id="node29" class="node"><title>13948</title>
<g id="a_node29"><a xlink:title="3rd_week">
<ellipse fill="#20ff05" stroke="black" cx="1043.23" cy="-2739.42" rx="32.4942" ry="18"/>
<text text-anchor="middle" x="1043.23" y="-2735.72" font-family="Times,serif" font-size="14.00">13948</text>
</a>
</g>
</g>
<!-- 13948&#45;&gt;24570 -->
<g id="edge48" class="edge"><title>13948&#45;&gt;24570</title>
<path fill="none" stroke="black" d="M1046.33,-2721.36C1054.24,-2675.12 1075.15,-2552.87 1083.09,-2506.44"/>
</g>
<!-- 16020 -->
<g id="node31" class="node"><title>16020</title>
<g id="a_node31"><a xlink:title="6th_week">
<ellipse fill="#20ff05" stroke="black" cx="424.863" cy="-863.748" rx="32.4942" ry="18"/>
<text text-anchor="middle" x="424.863" y="-860.048" font-family="Times,serif" font-size="14.00">16020</text>
</a>
</g>
</g>
<!-- 14606&#45;&gt;16020 -->
<g id="edge6" class="edge"><title>14606&#45;&gt;16020</title>
<path fill="none" stroke="black" d="M559.652,-869.557C530.142,-868.285 486.954,-866.424 457.469,-865.153"/>
</g>
<!-- 22761 -->
<g id="node38" class="node"><title>22761</title>
<g id="a_node38"><a xlink:title="6th_week">
<ellipse fill="#20ff05" stroke="black" cx="501.607" cy="-755.975" rx="32.4942" ry="18"/>
<text text-anchor="middle" x="501.607" y="-752.275" font-family="Times,serif" font-size="14.00">22761</text>
</a>
</g>
</g>
<!-- 14606&#45;&gt;22761 -->
<g id="edge29" class="edge"><title>14606&#45;&gt;22761</title>
<path fill="none" stroke="black" d="M578.953,-853.999C561.7,-832.133 531.891,-794.355 514.755,-772.638"/>
</g>
<!-- 29480 -->
<g id="node46" class="node"><title>29480</title>
<g id="a_node46"><a xlink:title="6th_week">
<ellipse fill="#20ff05" stroke="black" cx="690.213" cy="-739.056" rx="32.4942" ry="18"/>
<text text-anchor="middle" x="690.213" y="-735.356" font-family="Times,serif" font-size="14.00">29480</text>
</a>
</g>
</g>
<!-- 14606&#45;&gt;29480 -->
<g id="edge53" class="edge"><title>14606&#45;&gt;29480</title>
<path fill="none" stroke="black" d="M604.737,-854.26C623.46,-829.025 658.763,-781.443 677.609,-756.043"/>
</g>
<!-- 30119 -->
<g id="node48" class="node"><title>30119</title>
<g id="a_node48"><a xlink:title="PRE">
<ellipse fill="#20ff05" stroke="black" cx="1749.97" cy="-2228.6" rx="32.4942" ry="18"/>
<text text-anchor="middle" x="1749.97" y="-2224.9" font-family="Times,serif" font-size="14.00">30119</text>
</a>
</g>
</g>
<!-- 16124&#45;&gt;30119 -->
<g id="edge55" class="edge"><title>16124&#45;&gt;30119</title>
<path fill="none" stroke="black" d="M1568.05,-2139.05C1607.78,-2158.6 1685.81,-2197.01 1725.52,-2216.56"/>
</g>
<!-- 22173 -->
<g id="node36" class="node"><title>22173</title>
<g id="a_node36"><a xlink:title="3rd_week">
<ellipse fill="#20ff05" stroke="black" cx="1127.97" cy="-2714.46" rx="32.4942" ry="18"/>
<text text-anchor="middle" x="1127.97" y="-2710.76" font-family="Times,serif" font-size="14.00">22173</text>
</a>
</g>
</g>
<!-- 22173&#45;&gt;24570 -->
<g id="edge27" class="edge"><title>22173&#45;&gt;24570</title>
<path fill="none" stroke="black" d="M1124.62,-2696.33C1116.8,-2653.96 1097.41,-2548.87 1089.57,-2506.42"/>
</g>
<!-- 23257 -->
<g id="node39" class="node"><title>23257</title>
<g id="a_node39"><a xlink:title="3rd_week">
<ellipse fill="#20ff05" stroke="black" cx="908.228" cy="-2624.74" rx="32.4942" ry="18"/>
<text text-anchor="middle" x="908.228" y="-2621.04" font-family="Times,serif" font-size="14.00">23257</text>
</a>
</g>
</g>
<!-- 23257&#45;&gt;24570 -->
<g id="edge44" class="edge"><title>23257&#45;&gt;24570</title>
<path fill="none" stroke="black" d="M927.276,-2610.13C961.443,-2583.92 1032.77,-2529.2 1067.03,-2502.92"/>
</g>
<!-- 11077 -->
<g id="node58" class="node"><title>11077</title>
<g id="a_node58"><a xlink:title="3rd_week">
<ellipse fill="#efff05" stroke="black" cx="988.658" cy="-2688.32" rx="32.4942" ry="18"/>
<text text-anchor="middle" x="988.658" y="-2684.62" font-family="Times,serif" font-size="14.00">11077</text>
</a>
</g>
</g>
<!-- 24570&#45;&gt;11077 -->
<g id="edge33" class="edge"><title>24570&#45;&gt;11077</title>
<path fill="none" stroke="black" d="M1077.72,-2505.61C1059.28,-2543.46 1015.69,-2632.87 997.195,-2670.81"/>
</g>
</g>
</svg>
