<?xml version="1.0" encoding="UTF-8" standalone="no"?>
<!DOCTYPE svg PUBLIC "-//W3C//DTD SVG 1.1//EN"
 "http://www.w3.org/Graphics/SVG/1.1/DTD/svg11.dtd">
<!-- Generated by graphviz version 2.38.0 (20140413.2041)
 -->
<!-- Title: %3 Pages: 1 -->
<svg width="2160pt" height="2432pt"
 viewBox="0.00 0.00 2160.00 2432.00" xmlns="http://www.w3.org/2000/svg" xmlns:xlink="http://www.w3.org/1999/xlink">
<g id="graph0" class="graph" transform="scale(1 1) rotate(0) translate(4 2428)">
<title>%3</title>
<polygon fill="white" stroke="none" points="-4,4 -4,-2428 2156,-2428 2156,4 -4,4"/>
<!-- 32 -->
<g id="node1" class="node"><title>32</title>
<g id="a_node1"><a xlink:title="3rd_week">
<ellipse fill="#efff05" stroke="black" cx="1925.38" cy="-17.7505" rx="27" ry="18"/>
<text text-anchor="middle" x="1925.38" y="-14.0505" font-family="Times,serif" font-size="14.00">32</text>
</a>
</g>
</g>
<!-- 3365 -->
<g id="node9" class="node"><title>3365</title>
<g id="a_node9"><a xlink:title="3rd_week">
<ellipse fill="#efff05" stroke="black" cx="1968.01" cy="-162.859" rx="28.6953" ry="18"/>
<text text-anchor="middle" x="1968.01" y="-159.159" font-family="Times,serif" font-size="14.00">3365</text>
</a>
</g>
</g>
<!-- 32&#45;&gt;3365 -->
<g id="edge2" class="edge"><title>32&#45;&gt;3365</title>
<path fill="none" stroke="black" d="M1930.61,-35.5436C1938.79,-63.3938 1954.53,-116.981 1962.74,-144.92"/>
</g>
<!-- 79 -->
<g id="node2" class="node"><title>79</title>
<g id="a_node2"><a xlink:title="3rd_week">
<ellipse fill="#efff05" stroke="black" cx="222.85" cy="-1620.88" rx="27" ry="18"/>
<text text-anchor="middle" x="222.85" y="-1617.18" font-family="Times,serif" font-size="14.00">79</text>
</a>
</g>
</g>
<!-- 3857 -->
<g id="node12" class="node"><title>3857</title>
<g id="a_node12"><a xlink:title="3rd_week">
<ellipse fill="#efff05" stroke="black" cx="41.7756" cy="-1688.79" rx="28.6953" ry="18"/>
<text text-anchor="middle" x="41.7756" y="-1685.09" font-family="Times,serif" font-size="14.00">3857</text>
</a>
</g>
</g>
<!-- 79&#45;&gt;3857 -->
<g id="edge5" class="edge"><title>79&#45;&gt;3857</title>
<path fill="none" stroke="black" d="M199.178,-1629.76C164.858,-1642.63 101.578,-1666.36 66.615,-1679.47"/>
</g>
<!-- 8063 -->
<g id="node21" class="node"><title>8063</title>
<g id="a_node21"><a xlink:title="3rd_week">
<ellipse fill="#efff05" stroke="black" cx="28.6803" cy="-1613.25" rx="28.6953" ry="18"/>
<text text-anchor="middle" x="28.6803" y="-1609.55" font-family="Times,serif" font-size="14.00">8063</text>
</a>
</g>
</g>
<!-- 79&#45;&gt;8063 -->
<g id="edge37" class="edge"><title>79&#45;&gt;8063</title>
<path fill="none" stroke="black" d="M195.852,-1619.82C159.38,-1618.39 94.6528,-1615.84 57.3438,-1614.38"/>
</g>
<!-- 12210 -->
<g id="node34" class="node"><title>12210</title>
<g id="a_node34"><a xlink:title="3rd_week,Day_0">
<ellipse fill="#efff05" stroke="black" cx="475.669" cy="-1647.87" rx="32.4945" ry="18"/>
<ellipse fill="none" stroke="black" cx="475.669" cy="-1647.87" rx="36.4942" ry="22"/>
<text text-anchor="middle" x="475.669" y="-1644.17" font-family="Times,serif" font-size="14.00">12210</text>
</a>
</g>
</g>
<!-- 79&#45;&gt;12210 -->
<g id="edge24" class="edge"><title>79&#45;&gt;12210</title>
<path fill="none" stroke="black" d="M249.906,-1623.77C295.637,-1628.65 388.232,-1638.54 439.489,-1644.01"/>
</g>
<!-- 16688 -->
<g id="node63" class="node"><title>16688</title>
<g id="a_node63"><a xlink:title="6th_week">
<ellipse fill="#efff05" stroke="black" cx="44.6661" cy="-1536.47" rx="32.4942" ry="18"/>
<text text-anchor="middle" x="44.6661" y="-1532.77" font-family="Times,serif" font-size="14.00">16688</text>
</a>
</g>
</g>
<!-- 79&#45;&gt;16688 -->
<g id="edge22" class="edge"><title>79&#45;&gt;16688</title>
<path fill="none" stroke="black" d="M200.643,-1610.36C167.245,-1594.54 104.294,-1564.72 69.4462,-1548.21"/>
</g>
<!-- 1174 -->
<g id="node3" class="node"><title>1174</title>
<g id="a_node3"><a xlink:title="3rd_week">
<ellipse fill="#efff05" stroke="black" cx="1592.73" cy="-463.091" rx="28.6953" ry="18"/>
<text text-anchor="middle" x="1592.73" y="-459.391" font-family="Times,serif" font-size="14.00">1174</text>
</a>
</g>
</g>
<!-- 2106 -->
<g id="node6" class="node"><title>2106</title>
<g id="a_node6"><a xlink:title="3rd_week">
<ellipse fill="#efff05" stroke="black" cx="1362.81" cy="-634.812" rx="28.6953" ry="18"/>
<text text-anchor="middle" x="1362.81" y="-631.112" font-family="Times,serif" font-size="14.00">2106</text>
</a>
</g>
</g>
<!-- 1174&#45;&gt;2106 -->
<g id="edge51" class="edge"><title>1174&#45;&gt;2106</title>
<path fill="none" stroke="black" d="M1573.92,-477.143C1530.59,-509.504 1424.2,-588.963 1381.24,-621.045"/>
</g>
<!-- 3628 -->
<g id="node10" class="node"><title>3628</title>
<g id="a_node10"><a xlink:title="3rd_week">
<ellipse fill="#efff05" stroke="black" cx="1778.57" cy="-311.905" rx="28.6953" ry="18"/>
<text text-anchor="middle" x="1778.57" y="-308.205" font-family="Times,serif" font-size="14.00">3628</text>
</a>
</g>
</g>
<!-- 1174&#45;&gt;3628 -->
<g id="edge50" class="edge"><title>1174&#45;&gt;3628</title>
<path fill="none" stroke="black" d="M1610.55,-448.594C1646.07,-419.697 1725.33,-355.219 1760.81,-326.358"/>
</g>
<!-- 9117 -->
<g id="node24" class="node"><title>9117</title>
<g id="a_node24"><a xlink:title="3rd_week">
<ellipse fill="#efff05" stroke="black" cx="1729.92" cy="-420.239" rx="28.6953" ry="18"/>
<text text-anchor="middle" x="1729.92" y="-416.539" font-family="Times,serif" font-size="14.00">9117</text>
</a>
</g>
</g>
<!-- 1174&#45;&gt;9117 -->
<g id="edge13" class="edge"><title>1174&#45;&gt;9117</title>
<path fill="none" stroke="black" d="M1618.54,-455.03C1643.06,-447.369 1679.74,-435.912 1704.23,-428.263"/>
</g>
<!-- 1526 -->
<g id="node4" class="node"><title>1526</title>
<g id="a_node4"><a xlink:title="3rd_week">
<ellipse fill="#efff05" stroke="black" cx="1510.59" cy="-563.916" rx="28.6953" ry="18"/>
<text text-anchor="middle" x="1510.59" y="-560.216" font-family="Times,serif" font-size="14.00">1526</text>
</a>
</g>
</g>
<!-- 1526&#45;&gt;2106 -->
<g id="edge34" class="edge"><title>1526&#45;&gt;2106</title>
<path fill="none" stroke="black" d="M1487.82,-574.838C1460.13,-588.122 1413.66,-610.419 1385.85,-623.761"/>
</g>
<!-- 1910 -->
<g id="node5" class="node"><title>1910</title>
<g id="a_node5"><a xlink:title="Day_0">
<ellipse fill="#efff05" stroke="black" cx="1034.39" cy="-367.464" rx="28.6953" ry="18"/>
<text text-anchor="middle" x="1034.39" y="-363.764" font-family="Times,serif" font-size="14.00">1910</text>
</a>
</g>
</g>
<!-- 12014 -->
<g id="node33" class="node"><title>12014</title>
<g id="a_node33"><a xlink:title="Day_0">
<ellipse fill="#efff05" stroke="black" cx="1035.01" cy="-516.436" rx="32.4942" ry="18"/>
<text text-anchor="middle" x="1035.01" y="-512.736" font-family="Times,serif" font-size="14.00">12014</text>
</a>
</g>
</g>
<!-- 1910&#45;&gt;12014 -->
<g id="edge8" class="edge"><title>1910&#45;&gt;12014</title>
<path fill="none" stroke="black" d="M1034.46,-385.731C1034.58,-414.323 1034.82,-469.336 1034.94,-498.02"/>
</g>
<!-- 5758 -->
<g id="node17" class="node"><title>5758</title>
<g id="a_node17"><a xlink:title="Day_0">
<ellipse fill="#efff05" stroke="black" cx="1145.63" cy="-796.764" rx="28.6953" ry="18"/>
<text text-anchor="middle" x="1145.63" y="-793.064" font-family="Times,serif" font-size="14.00">5758</text>
</a>
</g>
</g>
<!-- 2106&#45;&gt;5758 -->
<g id="edge42" class="edge"><title>2106&#45;&gt;5758</title>
<path fill="none" stroke="black" d="M1344.29,-648.62C1303.26,-679.217 1205.09,-752.426 1164.1,-782.991"/>
</g>
<!-- 2598 -->
<g id="node7" class="node"><title>2598</title>
<g id="a_node7"><a xlink:title="Day_0">
<ellipse fill="#efff05" stroke="black" cx="935.502" cy="-1065.69" rx="28.6953" ry="18"/>
<text text-anchor="middle" x="935.502" y="-1061.99" font-family="Times,serif" font-size="14.00">2598</text>
</a>
</g>
</g>
<!-- 2598&#45;&gt;5758 -->
<g id="edge62" class="edge"><title>2598&#45;&gt;5758</title>
<path fill="none" stroke="black" d="M948.331,-1049.28C985.933,-1001.15 1095.58,-860.816 1132.97,-812.967"/>
</g>
<!-- 13557 -->
<g id="node36" class="node"><title>13557</title>
<g id="a_node36"><a xlink:title="Day_0">
<ellipse fill="grey" stroke="black" cx="1014.97" cy="-1183.76" rx="32.4942" ry="18"/>
<text text-anchor="middle" x="1014.97" y="-1180.06" font-family="Times,serif" font-size="14.00">13557</text>
</a>
</g>
</g>
<!-- 2598&#45;&gt;13557 -->
<g id="edge18" class="edge"><title>2598&#45;&gt;13557</title>
<path fill="none" stroke="black" d="M946.72,-1082.36C961.779,-1104.73 988.391,-1144.27 1003.55,-1166.8"/>
</g>
<!-- 15127 -->
<g id="node41" class="node"><title>15127</title>
<g id="a_node41"><a xlink:title="Day_0">
<ellipse fill="#efff05" stroke="black" cx="702.653" cy="-1354.7" rx="32.4942" ry="18"/>
<text text-anchor="middle" x="702.653" y="-1351" font-family="Times,serif" font-size="14.00">15127</text>
</a>
</g>
</g>
<!-- 2598&#45;&gt;15127 -->
<g id="edge29" class="edge"><title>2598&#45;&gt;15127</title>
<path fill="none" stroke="black" d="M922.316,-1082.06C881.428,-1132.81 757.066,-1287.16 715.983,-1338.16"/>
</g>
<!-- 3170 -->
<g id="node8" class="node"><title>3170</title>
<g id="a_node8"><a xlink:title="Day_0">
<ellipse fill="#efff05" stroke="black" cx="938.402" cy="-392.866" rx="28.6953" ry="18"/>
<text text-anchor="middle" x="938.402" y="-389.166" font-family="Times,serif" font-size="14.00">3170</text>
</a>
</g>
</g>
<!-- 3170&#45;&gt;12014 -->
<g id="edge61" class="edge"><title>3170&#45;&gt;12014</title>
<path fill="none" stroke="black" d="M951.032,-409.021C969.446,-432.572 1003.48,-476.109 1022.07,-499.883"/>
</g>
<!-- 3365&#45;&gt;3628 -->
<g id="edge26" class="edge"><title>3365&#45;&gt;3628</title>
<path fill="none" stroke="black" d="M1949.84,-177.15C1913.64,-205.639 1832.85,-269.204 1796.68,-297.657"/>
</g>
<!-- 7126 -->
<g id="node19" class="node"><title>7126</title>
<g id="a_node19"><a xlink:title="3rd_week">
<ellipse fill="#efff05" stroke="black" cx="2122.07" cy="-128.204" rx="28.6953" ry="18"/>
<text text-anchor="middle" x="2122.07" y="-124.504" font-family="Times,serif" font-size="14.00">7126</text>
</a>
</g>
</g>
<!-- 3365&#45;&gt;7126 -->
<g id="edge21" class="edge"><title>3365&#45;&gt;7126</title>
<path fill="none" stroke="black" d="M1995.2,-156.743C2023.27,-150.428 2066.82,-140.631 2094.89,-134.317"/>
</g>
<!-- 10766 -->
<g id="node29" class="node"><title>10766</title>
<g id="a_node29"><a xlink:title="3rd_week">
<ellipse fill="grey" stroke="black" cx="2092.54" cy="-67.7186" rx="32.4942" ry="18"/>
<text text-anchor="middle" x="2092.54" y="-64.0186" font-family="Times,serif" font-size="14.00">10766</text>
</a>
</g>
</g>
<!-- 3365&#45;&gt;10766 -->
<g id="edge55" class="edge"><title>3365&#45;&gt;10766</title>
<path fill="none" stroke="black" d="M1986.38,-148.82C2009.66,-131.039 2049.58,-100.541 2073.27,-82.4408"/>
</g>
<!-- 17561 -->
<g id="node47" class="node"><title>17561</title>
<g id="a_node47"><a xlink:title="3rd_week">
<ellipse fill="grey" stroke="black" cx="2012.71" cy="-20.6703" rx="32.4942" ry="18"/>
<text text-anchor="middle" x="2012.71" y="-16.9703" font-family="Times,serif" font-size="14.00">17561</text>
</a>
</g>
</g>
<!-- 3365&#45;&gt;17561 -->
<g id="edge59" class="edge"><title>3365&#45;&gt;17561</title>
<path fill="none" stroke="black" d="M1973.58,-145.138C1982.15,-117.891 1998.46,-65.9955 2007.07,-38.6144"/>
</g>
<!-- 17989 -->
<g id="node49" class="node"><title>17989</title>
<g id="a_node49"><a xlink:title="3rd_week">
<ellipse fill="#efff05" stroke="black" cx="2119.92" cy="-206.351" rx="32.4942" ry="18"/>
<text text-anchor="middle" x="2119.92" y="-202.651" font-family="Times,serif" font-size="14.00">17989</text>
</a>
</g>
</g>
<!-- 3365&#45;&gt;17989 -->
<g id="edge4" class="edge"><title>3365&#45;&gt;17989</title>
<path fill="none" stroke="black" d="M1994.12,-170.335C2021.1,-178.059 2063.09,-190.082 2091.04,-198.084"/>
</g>
<!-- 3823 -->
<g id="node11" class="node"><title>3823</title>
<g id="a_node11"><a xlink:title="3rd_week">
<ellipse fill="#efff05" stroke="black" cx="637.063" cy="-1570.32" rx="28.6953" ry="18"/>
<text text-anchor="middle" x="637.063" y="-1566.62" font-family="Times,serif" font-size="14.00">3823</text>
</a>
</g>
</g>
<!-- 3823&#45;&gt;12210 -->
<g id="edge16" class="edge"><title>3823&#45;&gt;12210</title>
<path fill="none" stroke="black" d="M614.282,-1581.27C585.434,-1595.13 535.716,-1619.02 504.323,-1634.1"/>
</g>
<!-- 4399 -->
<g id="node13" class="node"><title>4399</title>
<g id="a_node13"><a xlink:title="Day_0">
<ellipse fill="#efff05" stroke="black" cx="976.605" cy="-320.333" rx="28.6953" ry="18"/>
<text text-anchor="middle" x="976.605" y="-316.633" font-family="Times,serif" font-size="14.00">4399</text>
</a>
</g>
</g>
<!-- 9224 -->
<g id="node25" class="node"><title>9224</title>
<g id="a_node25"><a xlink:title="Day_0">
<ellipse fill="#efff05" stroke="black" cx="927.173" cy="-154.027" rx="28.6953" ry="18"/>
<text text-anchor="middle" x="927.173" y="-150.327" font-family="Times,serif" font-size="14.00">9224</text>
</a>
</g>
</g>
<!-- 4399&#45;&gt;9224 -->
<g id="edge48" class="edge"><title>4399&#45;&gt;9224</title>
<path fill="none" stroke="black" d="M971.315,-302.535C961.826,-270.609 942.016,-203.962 932.5,-171.948"/>
</g>
<!-- 4399&#45;&gt;12014 -->
<g id="edge60" class="edge"><title>4399&#45;&gt;12014</title>
<path fill="none" stroke="black" d="M981.892,-338.081C992.984,-375.323 1018.58,-461.257 1029.7,-498.586"/>
</g>
<!-- 4531 -->
<g id="node14" class="node"><title>4531</title>
<g id="a_node14"><a xlink:title="Day_0">
<ellipse fill="#efff05" stroke="black" cx="887.528" cy="-441.053" rx="28.6953" ry="18"/>
<text text-anchor="middle" x="887.528" y="-437.353" font-family="Times,serif" font-size="14.00">4531</text>
</a>
</g>
</g>
<!-- 4531&#45;&gt;12014 -->
<g id="edge28" class="edge"><title>4531&#45;&gt;12014</title>
<path fill="none" stroke="black" d="M909.928,-452.502C937.165,-466.423 982.954,-489.827 1010.93,-504.126"/>
</g>
<!-- 5371 -->
<g id="node15" class="node"><title>5371</title>
<g id="a_node15"><a xlink:title="3rd_week">
<ellipse fill="#efff05" stroke="black" cx="1114.8" cy="-931.903" rx="28.6953" ry="18"/>
<text text-anchor="middle" x="1114.8" y="-928.203" font-family="Times,serif" font-size="14.00">5371</text>
</a>
</g>
</g>
<!-- 5371&#45;&gt;5758 -->
<g id="edge41" class="edge"><title>5371&#45;&gt;5758</title>
<path fill="none" stroke="black" d="M1118.89,-913.957C1124.79,-888.11 1135.61,-840.672 1141.52,-814.784"/>
</g>
<!-- 5426 -->
<g id="node16" class="node"><title>5426</title>
<g id="a_node16"><a xlink:title="Day_0">
<ellipse fill="#efff05" stroke="black" cx="1248.59" cy="-729.424" rx="28.6953" ry="18"/>
<text text-anchor="middle" x="1248.59" y="-725.724" font-family="Times,serif" font-size="14.00">5426</text>
</a>
</g>
</g>
<!-- 5426&#45;&gt;5758 -->
<g id="edge47" class="edge"><title>5426&#45;&gt;5758</title>
<path fill="none" stroke="black" d="M1228.74,-742.408C1210.63,-754.256 1183.98,-771.683 1165.77,-783.59"/>
</g>
<!-- 5758&#45;&gt;12014 -->
<g id="edge32" class="edge"><title>5758&#45;&gt;12014</title>
<path fill="none" stroke="black" d="M1138.71,-779.228C1118.89,-729.005 1062.06,-584.988 1042.07,-534.326"/>
</g>
<!-- 14800 -->
<g id="node38" class="node"><title>14800</title>
<g id="a_node38"><a xlink:title="Day_0">
<ellipse fill="#efff05" stroke="black" cx="1127.15" cy="-666.984" rx="32.4942" ry="18"/>
<text text-anchor="middle" x="1127.15" y="-663.284" font-family="Times,serif" font-size="14.00">14800</text>
</a>
</g>
</g>
<!-- 5758&#45;&gt;14800 -->
<g id="edge36" class="edge"><title>5758&#45;&gt;14800</title>
<path fill="none" stroke="black" d="M1143.06,-778.719C1139.55,-754.063 1133.29,-710.087 1129.76,-685.294"/>
</g>
<!-- 1259 -->
<g id="node53" class="node"><title>1259</title>
<g id="a_node53"><a xlink:title="6th_week">
<ellipse fill="#efff05" stroke="black" cx="1340.39" cy="-842.594" rx="28.6953" ry="18"/>
<text text-anchor="middle" x="1340.39" y="-838.894" font-family="Times,serif" font-size="14.00">1259</text>
</a>
</g>
</g>
<!-- 5758&#45;&gt;1259 -->
<g id="edge33" class="edge"><title>5758&#45;&gt;1259</title>
<path fill="none" stroke="black" d="M1172.71,-803.137C1209.92,-811.892 1276.46,-827.548 1313.54,-836.276"/>
</g>
<!-- 10541 -->
<g id="node59" class="node"><title>10541</title>
<g id="a_node59"><a xlink:title="Day_0">
<ellipse fill="#ffffff" stroke="black" cx="985.324" cy="-779.148" rx="32.4942" ry="18"/>
<text text-anchor="middle" x="985.324" y="-775.448" font-family="Times,serif" font-size="14.00">10541</text>
</a>
</g>
</g>
<!-- 5758&#45;&gt;10541 -->
<g id="edge27" class="edge"><title>5758&#45;&gt;10541</title>
<path fill="none" stroke="black" d="M1117.34,-793.655C1089.39,-790.583 1046.68,-785.891 1017.46,-782.68"/>
</g>
<!-- 16781 -->
<g id="node64" class="node"><title>16781</title>
<g id="a_node64"><a xlink:title="6th_week">
<ellipse fill="#efff05" stroke="black" cx="1258.71" cy="-936.91" rx="32.4942" ry="18"/>
<text text-anchor="middle" x="1258.71" y="-933.21" font-family="Times,serif" font-size="14.00">16781</text>
</a>
</g>
</g>
<!-- 5758&#45;&gt;16781 -->
<g id="edge20" class="edge"><title>5758&#45;&gt;16781</title>
<path fill="none" stroke="black" d="M1158.6,-812.841C1180.18,-839.587 1223.25,-892.963 1245.19,-920.153"/>
</g>
<!-- 6668 -->
<g id="node18" class="node"><title>6668</title>
<g id="a_node18"><a xlink:title="Day_0">
<ellipse fill="#efff05" stroke="black" cx="875.954" cy="-517.944" rx="28.6953" ry="18"/>
<text text-anchor="middle" x="875.954" y="-514.244" font-family="Times,serif" font-size="14.00">6668</text>
</a>
</g>
</g>
<!-- 6668&#45;&gt;12014 -->
<g id="edge17" class="edge"><title>6668&#45;&gt;12014</title>
<path fill="none" stroke="black" d="M904.758,-517.671C932.242,-517.41 973.598,-517.018 1002.31,-516.746"/>
</g>
<!-- 7621 -->
<g id="node20" class="node"><title>7621</title>
<g id="a_node20"><a xlink:title="Day_0">
<ellipse fill="#efff05" stroke="black" cx="329.519" cy="-1662.33" rx="28.6953" ry="18"/>
<text text-anchor="middle" x="329.519" y="-1658.63" font-family="Times,serif" font-size="14.00">7621</text>
</a>
</g>
</g>
<!-- 7621&#45;&gt;12210 -->
<g id="edge3" class="edge"><title>7621&#45;&gt;12210</title>
<path fill="none" stroke="black" d="M358.045,-1659.51C381.305,-1657.2 414.302,-1653.94 439.431,-1651.46"/>
</g>
<!-- 8785 -->
<g id="node22" class="node"><title>8785</title>
<g id="a_node22"><a xlink:title="3rd_week">
<ellipse fill="#efff05" stroke="black" cx="295.92" cy="-1741.6" rx="28.6953" ry="18"/>
<text text-anchor="middle" x="295.92" y="-1737.9" font-family="Times,serif" font-size="14.00">8785</text>
</a>
</g>
</g>
<!-- 8785&#45;&gt;12210 -->
<g id="edge6" class="edge"><title>8785&#45;&gt;12210</title>
<path fill="none" stroke="black" d="M317.961,-1730.1C350.679,-1713.04 412.07,-1681.03 447.842,-1662.38"/>
</g>
<!-- 8430 -->
<g id="node57" class="node"><title>8430</title>
<g id="a_node57"><a xlink:title="3rd_week">
<ellipse fill="#ffffff" stroke="black" cx="136.368" cy="-1837.79" rx="28.6953" ry="18"/>
<text text-anchor="middle" x="136.368" y="-1834.09" font-family="Times,serif" font-size="14.00">8430</text>
</a>
</g>
</g>
<!-- 8785&#45;&gt;8430 -->
<g id="edge57" class="edge"><title>8785&#45;&gt;8430</title>
<path fill="none" stroke="black" d="M275.062,-1754.17C244.484,-1772.61 187.813,-1806.77 157.232,-1825.21"/>
</g>
<!-- 9090 -->
<g id="node23" class="node"><title>9090</title>
<g id="a_node23"><a xlink:title="3rd_week">
<ellipse fill="#efff05" stroke="black" cx="512.018" cy="-2348.8" rx="28.6953" ry="18"/>
<text text-anchor="middle" x="512.018" y="-2345.1" font-family="Times,serif" font-size="14.00">9090</text>
</a>
</g>
</g>
<!-- 17084 -->
<g id="node46" class="node"><title>17084</title>
<g id="a_node46"><a xlink:title="3rd_week,6th_week">
<ellipse fill="#efff05" stroke="black" cx="401.881" cy="-2223.13" rx="32.4945" ry="18"/>
<ellipse fill="none" stroke="black" cx="401.881" cy="-2223.13" rx="36.4942" ry="22"/>
<text text-anchor="middle" x="401.881" y="-2219.43" font-family="Times,serif" font-size="14.00">17084</text>
</a>
</g>
</g>
<!-- 9090&#45;&gt;17084 -->
<g id="edge12" class="edge"><title>9090&#45;&gt;17084</title>
<path fill="none" stroke="black" d="M498.069,-2332.89C477.925,-2309.9 440.728,-2267.46 418.965,-2242.62"/>
</g>
<!-- 9564 -->
<g id="node26" class="node"><title>9564</title>
<g id="a_node26"><a xlink:title="Day_0">
<ellipse fill="grey" stroke="black" cx="181.145" cy="-1359.43" rx="28.6953" ry="18"/>
<text text-anchor="middle" x="181.145" y="-1355.73" font-family="Times,serif" font-size="14.00">9564</text>
</a>
</g>
</g>
<!-- 10572 -->
<g id="node28" class="node"><title>10572</title>
<g id="a_node28"><a xlink:title="Day_0">
<ellipse fill="grey" stroke="black" cx="321.828" cy="-1481.8" rx="32.4942" ry="18"/>
<text text-anchor="middle" x="321.828" y="-1478.1" font-family="Times,serif" font-size="14.00">10572</text>
</a>
</g>
</g>
<!-- 9564&#45;&gt;10572 -->
<g id="edge19" class="edge"><title>9564&#45;&gt;10572</title>
<path fill="none" stroke="black" d="M198.115,-1374.19C225.008,-1397.59 277.153,-1442.94 304.356,-1466.6"/>
</g>
<!-- 9998 -->
<g id="node27" class="node"><title>9998</title>
<g id="a_node27"><a xlink:title="3rd_week">
<ellipse fill="#efff05" stroke="black" cx="515.27" cy="-1767.21" rx="28.6953" ry="18"/>
<text text-anchor="middle" x="515.27" y="-1763.51" font-family="Times,serif" font-size="14.00">9998</text>
</a>
</g>
</g>
<!-- 9998&#45;&gt;12210 -->
<g id="edge49" class="edge"><title>9998&#45;&gt;12210</title>
<path fill="none" stroke="black" d="M509.341,-1749.34C502.264,-1728.01 490.436,-1692.37 482.848,-1669.5"/>
</g>
<!-- 10572&#45;&gt;12210 -->
<g id="edge58" class="edge"><title>10572&#45;&gt;12210</title>
<path fill="none" stroke="black" d="M336.859,-1498.03C365.362,-1528.79 427.15,-1595.49 457.752,-1628.53"/>
</g>
<!-- 11153 -->
<g id="node30" class="node"><title>11153</title>
<g id="a_node30"><a xlink:title="3rd_week">
<ellipse fill="#efff05" stroke="black" cx="409.063" cy="-1476.6" rx="32.4942" ry="18"/>
<text text-anchor="middle" x="409.063" y="-1472.9" font-family="Times,serif" font-size="14.00">11153</text>
</a>
</g>
</g>
<!-- 11153&#45;&gt;12210 -->
<g id="edge31" class="edge"><title>11153&#45;&gt;12210</title>
<path fill="none" stroke="black" d="M415.94,-1494.29C428.238,-1525.91 453.954,-1592.03 467.273,-1626.28"/>
</g>
<!-- 11776 -->
<g id="node31" class="node"><title>11776</title>
<g id="a_node31"><a xlink:title="6th_week">
<ellipse fill="#efff05" stroke="black" cx="1507.17" cy="-831.017" rx="32.4942" ry="18"/>
<text text-anchor="middle" x="1507.17" y="-827.317" font-family="Times,serif" font-size="14.00">11776</text>
</a>
</g>
</g>
<!-- 11776&#45;&gt;1259 -->
<g id="edge1" class="edge"><title>11776&#45;&gt;1259</title>
<path fill="none" stroke="black" d="M1474.62,-833.277C1443.9,-835.409 1398.31,-838.574 1368.97,-840.61"/>
</g>
<!-- 11910 -->
<g id="node32" class="node"><title>11910</title>
<g id="a_node32"><a xlink:title="Day_0">
<ellipse fill="#efff05" stroke="black" cx="354.315" cy="-1811.6" rx="32.4942" ry="18"/>
<text text-anchor="middle" x="354.315" y="-1807.9" font-family="Times,serif" font-size="14.00">11910</text>
</a>
</g>
</g>
<!-- 11910&#45;&gt;12210 -->
<g id="edge25" class="edge"><title>11910&#45;&gt;12210</title>
<path fill="none" stroke="black" d="M366.845,-1794.7C389.372,-1764.3 436.612,-1700.57 460.762,-1667.98"/>
</g>
<!-- 13861 -->
<g id="node62" class="node"><title>13861</title>
<g id="a_node62"><a xlink:title="Day_0">
<ellipse fill="#efff05" stroke="black" cx="236.135" cy="-1962.53" rx="32.4942" ry="18"/>
<text text-anchor="middle" x="236.135" y="-1958.83" font-family="Times,serif" font-size="14.00">13861</text>
</a>
</g>
</g>
<!-- 11910&#45;&gt;13861 -->
<g id="edge11" class="edge"><title>11910&#45;&gt;13861</title>
<path fill="none" stroke="black" d="M341.216,-1828.33C318.499,-1857.34 272.049,-1916.66 249.292,-1945.72"/>
</g>
<!-- 14813 -->
<g id="node39" class="node"><title>14813</title>
<g id="a_node39"><a xlink:title="Day_0">
<ellipse fill="#efff05" stroke="black" cx="1164.35" cy="-413.867" rx="32.4942" ry="18"/>
<text text-anchor="middle" x="1164.35" y="-410.167" font-family="Times,serif" font-size="14.00">14813</text>
</a>
</g>
</g>
<!-- 12014&#45;&gt;14813 -->
<g id="edge43" class="edge"><title>12014&#45;&gt;14813</title>
<path fill="none" stroke="black" d="M1053.82,-501.522C1078.34,-482.075 1120.99,-448.255 1145.52,-428.799"/>
</g>
<!-- 15344 -->
<g id="node43" class="node"><title>15344</title>
<g id="a_node43"><a xlink:title="Day_0">
<ellipse fill="#efff05" stroke="black" cx="1107.02" cy="-360.526" rx="32.4942" ry="18"/>
<text text-anchor="middle" x="1107.02" y="-356.826" font-family="Times,serif" font-size="14.00">15344</text>
</a>
</g>
</g>
<!-- 12014&#45;&gt;15344 -->
<g id="edge38" class="edge"><title>12014&#45;&gt;15344</title>
<path fill="none" stroke="black" d="M1043.13,-498.854C1056.96,-468.911 1084.94,-408.345 1098.82,-378.283"/>
</g>
<!-- 13202 -->
<g id="node35" class="node"><title>13202</title>
<g id="a_node35"><a xlink:title="3rd_week">
<ellipse fill="#efff05" stroke="black" cx="438.21" cy="-1801.75" rx="32.4942" ry="18"/>
<text text-anchor="middle" x="438.21" y="-1798.05" font-family="Times,serif" font-size="14.00">13202</text>
</a>
</g>
</g>
<!-- 12210&#45;&gt;13202 -->
<g id="edge54" class="edge"><title>12210&#45;&gt;13202</title>
<path fill="none" stroke="black" d="M470.302,-1669.92C462.858,-1700.5 449.536,-1755.23 442.631,-1783.59"/>
</g>
<!-- 13839 -->
<g id="node37" class="node"><title>13839</title>
<g id="a_node37"><a xlink:title="Day_0">
<ellipse fill="#efff05" stroke="black" cx="575.803" cy="-1495.77" rx="32.4942" ry="18"/>
<text text-anchor="middle" x="575.803" y="-1492.07" font-family="Times,serif" font-size="14.00">13839</text>
</a>
</g>
</g>
<!-- 12210&#45;&gt;13839 -->
<g id="edge39" class="edge"><title>12210&#45;&gt;13839</title>
<path fill="none" stroke="black" d="M489.174,-1627.36C509.139,-1597.03 546.161,-1540.79 564.667,-1512.68"/>
</g>
<!-- 14840 -->
<g id="node40" class="node"><title>14840</title>
<g id="a_node40"><a xlink:title="3rd_week">
<ellipse fill="#efff05" stroke="black" cx="555.152" cy="-1811.58" rx="32.4942" ry="18"/>
<text text-anchor="middle" x="555.152" y="-1807.88" font-family="Times,serif" font-size="14.00">14840</text>
</a>
</g>
</g>
<!-- 12210&#45;&gt;14840 -->
<g id="edge44" class="edge"><title>12210&#45;&gt;14840</title>
<path fill="none" stroke="black" d="M486.06,-1669.27C501.967,-1702.04 532.045,-1763.99 546.7,-1794.18"/>
</g>
<!-- 12210&#45;&gt;15127 -->
<g id="edge15" class="edge"><title>12210&#45;&gt;15127</title>
<path fill="none" stroke="black" d="M491.271,-1627.72C533.739,-1572.87 650.833,-1421.63 689.83,-1371.26"/>
</g>
<!-- 15244 -->
<g id="node42" class="node"><title>15244</title>
<g id="a_node42"><a xlink:title="Day_0">
<ellipse fill="#efff05" stroke="black" cx="488.18" cy="-1459.56" rx="32.4942" ry="18"/>
<text text-anchor="middle" x="488.18" y="-1455.86" font-family="Times,serif" font-size="14.00">15244</text>
</a>
</g>
</g>
<!-- 12210&#45;&gt;15244 -->
<g id="edge63" class="edge"><title>12210&#45;&gt;15244</title>
<path fill="none" stroke="black" d="M477.154,-1625.53C479.658,-1587.83 484.676,-1512.3 486.977,-1477.67"/>
</g>
<!-- 16108 -->
<g id="node44" class="node"><title>16108</title>
<g id="a_node44"><a xlink:title="Day_0">
<ellipse fill="#efff05" stroke="black" cx="640.47" cy="-1796.58" rx="32.4942" ry="18"/>
<text text-anchor="middle" x="640.47" y="-1792.88" font-family="Times,serif" font-size="14.00">16108</text>
</a>
</g>
</g>
<!-- 12210&#45;&gt;16108 -->
<g id="edge56" class="edge"><title>12210&#45;&gt;16108</title>
<path fill="none" stroke="black" d="M496.208,-1666.4C528.996,-1695.99 592.58,-1753.36 623.186,-1780.98"/>
</g>
<!-- 16938 -->
<g id="node45" class="node"><title>16938</title>
<g id="a_node45"><a xlink:title="3rd_week">
<ellipse fill="#efff05" stroke="black" cx="329.484" cy="-1566.27" rx="32.4942" ry="18"/>
<text text-anchor="middle" x="329.484" y="-1562.57" font-family="Times,serif" font-size="14.00">16938</text>
</a>
</g>
</g>
<!-- 12210&#45;&gt;16938 -->
<g id="edge30" class="edge"><title>12210&#45;&gt;16938</title>
<path fill="none" stroke="black" d="M448.857,-1632.9C421.326,-1617.54 378.915,-1593.87 352.754,-1579.26"/>
</g>
<!-- 17880 -->
<g id="node48" class="node"><title>17880</title>
<g id="a_node48"><a xlink:title="Day_0">
<ellipse fill="#efff05" stroke="black" cx="667.441" cy="-1646.84" rx="32.4942" ry="18"/>
<text text-anchor="middle" x="667.441" y="-1643.14" font-family="Times,serif" font-size="14.00">17880</text>
</a>
</g>
</g>
<!-- 12210&#45;&gt;17880 -->
<g id="edge45" class="edge"><title>12210&#45;&gt;17880</title>
<path fill="none" stroke="black" d="M512.192,-1647.67C547.619,-1647.48 600.872,-1647.2 634.888,-1647.01"/>
</g>
<!-- 19187 -->
<g id="node50" class="node"><title>19187</title>
<g id="a_node50"><a xlink:title="3rd_week">
<ellipse fill="#efff05" stroke="black" cx="444.478" cy="-1923.25" rx="32.4942" ry="18"/>
<text text-anchor="middle" x="444.478" y="-1919.55" font-family="Times,serif" font-size="14.00">19187</text>
</a>
</g>
</g>
<!-- 12210&#45;&gt;19187 -->
<g id="edge7" class="edge"><title>12210&#45;&gt;19187</title>
<path fill="none" stroke="black" d="M473.17,-1669.94C467.17,-1722.91 452.046,-1856.43 446.531,-1905.12"/>
</g>
<!-- 1093 -->
<g id="node52" class="node"><title>1093</title>
<g id="a_node52"><a xlink:title="Day_0">
<ellipse fill="#efff05" stroke="black" cx="635.607" cy="-1714.02" rx="28.6953" ry="18"/>
<text text-anchor="middle" x="635.607" y="-1710.32" font-family="Times,serif" font-size="14.00">1093</text>
</a>
</g>
</g>
<!-- 12210&#45;&gt;1093 -->
<g id="edge10" class="edge"><title>12210&#45;&gt;1093</title>
<path fill="none" stroke="black" d="M506.129,-1660.47C536.763,-1673.14 583.378,-1692.42 611.523,-1704.06"/>
</g>
<!-- 5908 -->
<g id="node55" class="node"><title>5908</title>
<g id="a_node55"><a xlink:title="3rd_week">
<ellipse fill="#efff05" stroke="black" cx="763.357" cy="-1935.36" rx="28.6953" ry="18"/>
<text text-anchor="middle" x="763.357" y="-1931.66" font-family="Times,serif" font-size="14.00">5908</text>
</a>
</g>
</g>
<!-- 16108&#45;&gt;5908 -->
<g id="edge35" class="edge"><title>16108&#45;&gt;5908</title>
<path fill="none" stroke="black" d="M654.807,-1812.77C678.486,-1839.51 725.492,-1892.6 749.111,-1919.27"/>
</g>
<!-- 17084&#45;&gt;19187 -->
<g id="edge46" class="edge"><title>17084&#45;&gt;19187</title>
<path fill="none" stroke="black" d="M405.013,-2201.08C413.082,-2144.27 434.469,-1993.71 441.895,-1941.43"/>
</g>
<!-- 863 -->
<g id="node51" class="node"><title>863</title>
<g id="a_node51"><a xlink:title="3rd_week">
<ellipse fill="#ffffff" stroke="black" cx="317.878" cy="-2361.34" rx="27" ry="18"/>
<text text-anchor="middle" x="317.878" y="-2357.64" font-family="Times,serif" font-size="14.00">863</text>
</a>
</g>
</g>
<!-- 17084&#45;&gt;863 -->
<g id="edge9" class="edge"><title>17084&#45;&gt;863</title>
<path fill="none" stroke="black" d="M389.305,-2243.82C372.645,-2271.23 343.572,-2319.07 328.156,-2344.43"/>
</g>
<!-- 4298 -->
<g id="node54" class="node"><title>4298</title>
<g id="a_node54"><a xlink:title="3rd_week">
<ellipse fill="#efff05" stroke="black" cx="367.533" cy="-2405.91" rx="28.6953" ry="18"/>
<text text-anchor="middle" x="367.533" y="-2402.21" font-family="Times,serif" font-size="14.00">4298</text>
</a>
</g>
</g>
<!-- 17084&#45;&gt;4298 -->
<g id="edge40" class="edge"><title>17084&#45;&gt;4298</title>
<path fill="none" stroke="black" d="M397.737,-2245.18C390.868,-2281.73 377.251,-2354.2 370.918,-2387.89"/>
</g>
<!-- 7491 -->
<g id="node56" class="node"><title>7491</title>
<g id="a_node56"><a xlink:title="Day_0">
<ellipse fill="#efff05" stroke="black" cx="441.513" cy="-2389.46" rx="28.6953" ry="18"/>
<text text-anchor="middle" x="441.513" y="-2385.76" font-family="Times,serif" font-size="14.00">7491</text>
</a>
</g>
</g>
<!-- 17084&#45;&gt;7491 -->
<g id="edge14" class="edge"><title>17084&#45;&gt;7491</title>
<path fill="none" stroke="black" d="M407.144,-2245.22C415.061,-2278.44 429.885,-2340.66 437.202,-2371.37"/>
</g>
<!-- 12445 -->
<g id="node61" class="node"><title>12445</title>
<g id="a_node61"><a xlink:title="3rd_week">
<ellipse fill="#efff05" stroke="black" cx="239.334" cy="-2299.61" rx="32.4942" ry="18"/>
<text text-anchor="middle" x="239.334" y="-2295.91" font-family="Times,serif" font-size="14.00">12445</text>
</a>
</g>
</g>
<!-- 17084&#45;&gt;12445 -->
<g id="edge23" class="edge"><title>17084&#45;&gt;12445</title>
<path fill="none" stroke="black" d="M372.821,-2236.8C341.864,-2251.37 293.382,-2274.18 264.153,-2287.93"/>
</g>
<!-- 12205 -->
<g id="node60" class="node"><title>12205</title>
<g id="a_node60"><a xlink:title="6th_week">
<ellipse fill="grey" stroke="black" cx="1490.46" cy="-921.859" rx="32.4942" ry="18"/>
<text text-anchor="middle" x="1490.46" y="-918.159" font-family="Times,serif" font-size="14.00">12205</text>
</a>
</g>
</g>
<!-- 1259&#45;&gt;12205 -->
<g id="edge53" class="edge"><title>1259&#45;&gt;12205</title>
<path fill="none" stroke="black" d="M1362.54,-854.29C1390.42,-869.018 1438.13,-894.218 1466.74,-909.329"/>
</g>
<!-- 9680 -->
<g id="node58" class="node"><title>9680</title>
<g id="a_node58"><a xlink:title="6th_week">
<ellipse fill="grey" stroke="black" cx="1379.08" cy="-1051.06" rx="28.6953" ry="18"/>
<text text-anchor="middle" x="1379.08" y="-1047.36" font-family="Times,serif" font-size="14.00">9680</text>
</a>
</g>
</g>
<!-- 9680&#45;&gt;16781 -->
<g id="edge52" class="edge"><title>9680&#45;&gt;16781</title>
<path fill="none" stroke="black" d="M1362.85,-1035.67C1340,-1014 1298.58,-974.72 1275.46,-952.794"/>
</g>
</g>
</svg>
