<?xml version="1.0" encoding="UTF-8" standalone="no"?>
<!DOCTYPE svg PUBLIC "-//W3C//DTD SVG 1.1//EN"
 "http://www.w3.org/Graphics/SVG/1.1/DTD/svg11.dtd">
<!-- Generated by graphviz version 2.38.0 (20140413.2041)
 -->
<!-- Title: %3 Pages: 1 -->
<svg width="2394pt" height="1332pt"
 viewBox="0.00 0.00 2394.00 1332.00" xmlns="http://www.w3.org/2000/svg" xmlns:xlink="http://www.w3.org/1999/xlink">
<g id="graph0" class="graph" transform="scale(1 1) rotate(0) translate(4 1328)">
<title>%3</title>
<polygon fill="white" stroke="none" points="-4,4 -4,-1328 2390,-1328 2390,4 -4,4"/>
<!-- 319 -->
<g id="node1" class="node"><title>319</title>
<g id="a_node1"><a xlink:title="6th_week">
<ellipse fill="#20ff05" stroke="black" cx="315.826" cy="-789.767" rx="27" ry="18"/>
<text text-anchor="middle" x="315.826" y="-786.067" font-family="Times,serif" font-size="14.00">319</text>
</a>
</g>
</g>
<!-- 28944 -->
<g id="node41" class="node"><title>28944</title>
<g id="a_node41"><a xlink:title="6th_week">
<ellipse fill="#20ff05" stroke="black" cx="417.856" cy="-672.266" rx="32.4942" ry="18"/>
<text text-anchor="middle" x="417.856" y="-668.566" font-family="Times,serif" font-size="14.00">28944</text>
</a>
</g>
</g>
<!-- 319&#45;&gt;28944 -->
<g id="edge43" class="edge"><title>319&#45;&gt;28944</title>
<path fill="none" stroke="black" d="M329.586,-773.92C348.95,-751.62 384.061,-711.185 403.659,-688.616"/>
</g>
<!-- 1599 -->
<g id="node2" class="node"><title>1599</title>
<g id="a_node2"><a xlink:title="6th_week">
<ellipse fill="#20ff05" stroke="black" cx="2205.34" cy="-512.313" rx="28.6953" ry="18"/>
<text text-anchor="middle" x="2205.34" y="-508.613" font-family="Times,serif" font-size="14.00">1599</text>
</a>
</g>
</g>
<!-- 14534 -->
<g id="node19" class="node"><title>14534</title>
<g id="a_node19"><a xlink:title="6th_week">
<ellipse fill="#ffffff" stroke="black" cx="2353.99" cy="-453.371" rx="32.4942" ry="18"/>
<text text-anchor="middle" x="2353.99" y="-449.671" font-family="Times,serif" font-size="14.00">14534</text>
</a>
</g>
</g>
<!-- 1599&#45;&gt;14534 -->
<g id="edge25" class="edge"><title>1599&#45;&gt;14534</title>
<path fill="none" stroke="black" d="M2229.55,-502.712C2256.46,-492.045 2299.75,-474.877 2327.53,-463.864"/>
</g>
<!-- 29344 -->
<g id="node43" class="node"><title>29344</title>
<g id="a_node43"><a xlink:title="6th_week">
<ellipse fill="#20ff05" stroke="black" cx="1995.81" cy="-565.472" rx="32.4942" ry="18"/>
<text text-anchor="middle" x="1995.81" y="-561.772" font-family="Times,serif" font-size="14.00">29344</text>
</a>
</g>
</g>
<!-- 1599&#45;&gt;29344 -->
<g id="edge23" class="edge"><title>1599&#45;&gt;29344</title>
<path fill="none" stroke="black" d="M2178.8,-519.045C2139.6,-528.991 2066.44,-547.552 2025.5,-557.938"/>
</g>
<!-- 2278 -->
<g id="node3" class="node"><title>2278</title>
<g id="a_node3"><a xlink:title="6th_week">
<ellipse fill="#20ff05" stroke="black" cx="465.265" cy="-564.272" rx="28.6953" ry="18"/>
<text text-anchor="middle" x="465.265" y="-560.572" font-family="Times,serif" font-size="14.00">2278</text>
</a>
</g>
</g>
<!-- 23586 -->
<g id="node35" class="node"><title>23586</title>
<g id="a_node35"><a xlink:title="6th_week">
<ellipse fill="#20ff05" stroke="black" cx="614.836" cy="-544.95" rx="32.4942" ry="18"/>
<text text-anchor="middle" x="614.836" y="-541.25" font-family="Times,serif" font-size="14.00">23586</text>
</a>
</g>
</g>
<!-- 2278&#45;&gt;23586 -->
<g id="edge35" class="edge"><title>2278&#45;&gt;23586</title>
<path fill="none" stroke="black" d="M493.398,-560.638C518.869,-557.347 556.363,-552.504 582.939,-549.07"/>
</g>
<!-- 2885 -->
<g id="node4" class="node"><title>2885</title>
<g id="a_node4"><a xlink:title="6th_week">
<ellipse fill="#20ff05" stroke="black" cx="391.228" cy="-518.66" rx="28.6953" ry="18"/>
<text text-anchor="middle" x="391.228" y="-514.96" font-family="Times,serif" font-size="14.00">2885</text>
</a>
</g>
</g>
<!-- 14831 -->
<g id="node21" class="node"><title>14831</title>
<g id="a_node21"><a xlink:title="6th_week">
<ellipse fill="#20ff05" stroke="black" cx="214.322" cy="-498.175" rx="32.4942" ry="18"/>
<text text-anchor="middle" x="214.322" y="-494.475" font-family="Times,serif" font-size="14.00">14831</text>
</a>
</g>
</g>
<!-- 2885&#45;&gt;14831 -->
<g id="edge6" class="edge"><title>2885&#45;&gt;14831</title>
<path fill="none" stroke="black" d="M362.805,-515.369C330.965,-511.682 279.475,-505.719 246.266,-501.874"/>
</g>
<!-- 2885&#45;&gt;23586 -->
<g id="edge50" class="edge"><title>2885&#45;&gt;23586</title>
<path fill="none" stroke="black" d="M419.548,-521.989C461.268,-526.894 539.018,-536.036 582.778,-541.181"/>
</g>
<!-- 5354 -->
<g id="node5" class="node"><title>5354</title>
<g id="a_node5"><a xlink:title="6th_week">
<ellipse fill="#20ff05" stroke="black" cx="434.14" cy="-435.699" rx="28.6953" ry="18"/>
<text text-anchor="middle" x="434.14" y="-431.999" font-family="Times,serif" font-size="14.00">5354</text>
</a>
</g>
</g>
<!-- 16654 -->
<g id="node23" class="node"><title>16654</title>
<g id="a_node23"><a xlink:title="6th_week">
<ellipse fill="#20ff05" stroke="black" cx="302.854" cy="-348.754" rx="32.4942" ry="18"/>
<text text-anchor="middle" x="302.854" y="-345.054" font-family="Times,serif" font-size="14.00">16654</text>
</a>
</g>
</g>
<!-- 5354&#45;&gt;16654 -->
<g id="edge26" class="edge"><title>5354&#45;&gt;16654</title>
<path fill="none" stroke="black" d="M414.201,-422.494C389.812,-406.342 348.713,-379.124 323.852,-362.66"/>
</g>
<!-- 5354&#45;&gt;23586 -->
<g id="edge33" class="edge"><title>5354&#45;&gt;23586</title>
<path fill="none" stroke="black" d="M454.868,-448.232C489.168,-468.969 557.434,-510.244 592.662,-531.543"/>
</g>
<!-- 6278 -->
<g id="node6" class="node"><title>6278</title>
<g id="a_node6"><a xlink:title="6th_week">
<ellipse fill="#ffffff" stroke="black" cx="2017.17" cy="-408.845" rx="28.6953" ry="18"/>
<text text-anchor="middle" x="2017.17" y="-405.145" font-family="Times,serif" font-size="14.00">6278</text>
</a>
</g>
</g>
<!-- 6278&#45;&gt;29344 -->
<g id="edge30" class="edge"><title>6278&#45;&gt;29344</title>
<path fill="none" stroke="black" d="M2014.72,-426.812C2010.62,-456.864 2002.42,-516.999 1998.29,-547.232"/>
</g>
<!-- 7222 -->
<g id="node7" class="node"><title>7222</title>
<g id="a_node7"><a xlink:title="6th_week">
<ellipse fill="#20ff05" stroke="black" cx="519.443" cy="-333.608" rx="28.6953" ry="18"/>
<text text-anchor="middle" x="519.443" y="-329.908" font-family="Times,serif" font-size="14.00">7222</text>
</a>
</g>
</g>
<!-- 21351 -->
<g id="node33" class="node"><title>21351</title>
<g id="a_node33"><a xlink:title="6th_week">
<ellipse fill="#20ff05" stroke="black" cx="440.258" cy="-178.333" rx="32.4942" ry="18"/>
<text text-anchor="middle" x="440.258" y="-174.633" font-family="Times,serif" font-size="14.00">21351</text>
</a>
</g>
</g>
<!-- 7222&#45;&gt;21351 -->
<g id="edge14" class="edge"><title>7222&#45;&gt;21351</title>
<path fill="none" stroke="black" d="M510.666,-316.397C495.526,-286.708 464.651,-226.166 449.318,-196.097"/>
</g>
<!-- 7222&#45;&gt;23586 -->
<g id="edge21" class="edge"><title>7222&#45;&gt;23586</title>
<path fill="none" stroke="black" d="M527.412,-351.263C545.368,-391.045 588.824,-487.321 606.822,-527.196"/>
</g>
<!-- 7719 -->
<g id="node8" class="node"><title>7719</title>
<g id="a_node8"><a xlink:title="6th_week">
<ellipse fill="#ffffff" stroke="black" cx="1624.71" cy="-713.206" rx="28.6953" ry="18"/>
<text text-anchor="middle" x="1624.71" y="-709.506" font-family="Times,serif" font-size="14.00">7719</text>
</a>
</g>
</g>
<!-- 19071 -->
<g id="node28" class="node"><title>19071</title>
<g id="a_node28"><a xlink:title="6th_week">
<ellipse fill="#20ff05" stroke="black" cx="1500.54" cy="-774.821" rx="32.4942" ry="18"/>
<text text-anchor="middle" x="1500.54" y="-771.121" font-family="Times,serif" font-size="14.00">19071</text>
</a>
</g>
</g>
<!-- 7719&#45;&gt;19071 -->
<g id="edge27" class="edge"><title>7719&#45;&gt;19071</title>
<path fill="none" stroke="black" d="M1602.22,-724.364C1580.42,-735.184 1547.43,-751.554 1524.98,-762.691"/>
</g>
<!-- 8142 -->
<g id="node9" class="node"><title>8142</title>
<g id="a_node9"><a xlink:title="6th_week">
<ellipse fill="#20ff05" stroke="black" cx="1547.89" cy="-593.479" rx="28.6953" ry="18"/>
<text text-anchor="middle" x="1547.89" y="-589.779" font-family="Times,serif" font-size="14.00">8142</text>
</a>
</g>
</g>
<!-- 15419 -->
<g id="node22" class="node"><title>15419</title>
<g id="a_node22"><a xlink:title="6th_week">
<ellipse fill="grey" stroke="black" cx="1573.27" cy="-450.511" rx="32.4942" ry="18"/>
<text text-anchor="middle" x="1573.27" y="-446.811" font-family="Times,serif" font-size="14.00">15419</text>
</a>
</g>
</g>
<!-- 8142&#45;&gt;15419 -->
<g id="edge7" class="edge"><title>8142&#45;&gt;15419</title>
<path fill="none" stroke="black" d="M1551.11,-575.372C1555.99,-547.872 1565.22,-495.884 1570.08,-468.471"/>
</g>
<!-- 8142&#45;&gt;19071 -->
<g id="edge29" class="edge"><title>8142&#45;&gt;19071</title>
<path fill="none" stroke="black" d="M1543.18,-611.53C1534.1,-646.289 1514.3,-722.141 1505.24,-756.843"/>
</g>
<!-- 9552 -->
<g id="node10" class="node"><title>9552</title>
<g id="a_node10"><a xlink:title="6th_week">
<ellipse fill="#20ff05" stroke="black" cx="704.58" cy="-401.168" rx="28.6953" ry="18"/>
<text text-anchor="middle" x="704.58" y="-397.468" font-family="Times,serif" font-size="14.00">9552</text>
</a>
</g>
</g>
<!-- 9552&#45;&gt;23586 -->
<g id="edge47" class="edge"><title>9552&#45;&gt;23586</title>
<path fill="none" stroke="black" d="M694.109,-417.943C676.909,-445.5 642.855,-500.059 625.517,-527.836"/>
</g>
<!-- 11566 -->
<g id="node11" class="node"><title>11566</title>
<g id="a_node11"><a xlink:title="6th_week">
<ellipse fill="#20ff05" stroke="black" cx="1328.03" cy="-1075.68" rx="32.4942" ry="18"/>
<text text-anchor="middle" x="1328.03" y="-1071.98" font-family="Times,serif" font-size="14.00">11566</text>
</a>
</g>
</g>
<!-- 14709 -->
<g id="node20" class="node"><title>14709</title>
<g id="a_node20"><a xlink:title="6th_week">
<ellipse fill="#20ff05" stroke="black" cx="1415.35" cy="-925.097" rx="32.4942" ry="18"/>
<text text-anchor="middle" x="1415.35" y="-921.397" font-family="Times,serif" font-size="14.00">14709</text>
</a>
</g>
</g>
<!-- 11566&#45;&gt;14709 -->
<g id="edge19" class="edge"><title>11566&#45;&gt;14709</title>
<path fill="none" stroke="black" d="M1338.04,-1058.4C1354.8,-1029.51 1388.33,-971.699 1405.18,-942.633"/>
</g>
<!-- 11848 -->
<g id="node12" class="node"><title>11848</title>
<g id="a_node12"><a xlink:title="6th_week">
<ellipse fill="grey" stroke="black" cx="503.615" cy="-635.423" rx="32.4942" ry="18"/>
<text text-anchor="middle" x="503.615" y="-631.723" font-family="Times,serif" font-size="14.00">11848</text>
</a>
</g>
</g>
<!-- 11848&#45;&gt;23586 -->
<g id="edge17" class="edge"><title>11848&#45;&gt;23586</title>
<path fill="none" stroke="black" d="M521.981,-620.483C542.588,-603.72 575.824,-576.684 596.442,-559.912"/>
</g>
<!-- 12186 -->
<g id="node13" class="node"><title>12186</title>
<g id="a_node13"><a xlink:title="6th_week">
<ellipse fill="#20ff05" stroke="black" cx="2113.57" cy="-458.812" rx="32.4942" ry="18"/>
<text text-anchor="middle" x="2113.57" y="-455.112" font-family="Times,serif" font-size="14.00">12186</text>
</a>
</g>
</g>
<!-- 12186&#45;&gt;29344 -->
<g id="edge46" class="edge"><title>12186&#45;&gt;29344</title>
<path fill="none" stroke="black" d="M2096.45,-474.322C2074.12,-494.543 2035.29,-529.713 2012.95,-549.944"/>
</g>
<!-- 12624 -->
<g id="node14" class="node"><title>12624</title>
<g id="a_node14"><a xlink:title="6th_week">
<ellipse fill="#20ff05" stroke="black" cx="350.874" cy="-18.3931" rx="32.4942" ry="18"/>
<text text-anchor="middle" x="350.874" y="-14.6931" font-family="Times,serif" font-size="14.00">12624</text>
</a>
</g>
</g>
<!-- 12624&#45;&gt;21351 -->
<g id="edge55" class="edge"><title>12624&#45;&gt;21351</title>
<path fill="none" stroke="black" d="M360.609,-35.8139C377.803,-66.5797 413.349,-130.183 430.534,-160.933"/>
</g>
<!-- 12835 -->
<g id="node15" class="node"><title>12835</title>
<g id="a_node15"><a xlink:title="6th_week">
<ellipse fill="#20ff05" stroke="black" cx="1198.8" cy="-694.826" rx="32.4942" ry="18"/>
<text text-anchor="middle" x="1198.8" y="-691.126" font-family="Times,serif" font-size="14.00">12835</text>
</a>
</g>
</g>
<!-- 12835&#45;&gt;19071 -->
<g id="edge2" class="edge"><title>12835&#45;&gt;19071</title>
<path fill="none" stroke="black" d="M1228.29,-702.642C1285.97,-717.935 1413.16,-751.654 1470.94,-766.973"/>
</g>
<!-- 20303 -->
<g id="node31" class="node"><title>20303</title>
<g id="a_node31"><a xlink:title="6th_week">
<ellipse fill="#20ff05" stroke="black" cx="922.953" cy="-627.524" rx="32.4942" ry="18"/>
<text text-anchor="middle" x="922.953" y="-623.824" font-family="Times,serif" font-size="14.00">20303</text>
</a>
</g>
</g>
<!-- 12835&#45;&gt;20303 -->
<g id="edge48" class="edge"><title>12835&#45;&gt;20303</title>
<path fill="none" stroke="black" d="M1169.02,-687.559C1116.08,-674.643 1006.18,-647.829 953.03,-634.862"/>
</g>
<!-- 13179 -->
<g id="node16" class="node"><title>13179</title>
<g id="a_node16"><a xlink:title="6th_week">
<ellipse fill="#20ff05" stroke="black" cx="706.456" cy="-657.895" rx="32.4942" ry="18"/>
<text text-anchor="middle" x="706.456" y="-654.195" font-family="Times,serif" font-size="14.00">13179</text>
</a>
</g>
</g>
<!-- 13179&#45;&gt;23586 -->
<g id="edge40" class="edge"><title>13179&#45;&gt;23586</title>
<path fill="none" stroke="black" d="M692.937,-641.23C675.615,-619.875 645.759,-583.071 628.41,-561.684"/>
</g>
<!-- 13750 -->
<g id="node17" class="node"><title>13750</title>
<g id="a_node17"><a xlink:title="6th_week">
<ellipse fill="#20ff05" stroke="black" cx="743.178" cy="-455.155" rx="32.4942" ry="18"/>
<text text-anchor="middle" x="743.178" y="-451.455" font-family="Times,serif" font-size="14.00">13750</text>
</a>
</g>
</g>
<!-- 13750&#45;&gt;23586 -->
<g id="edge36" class="edge"><title>13750&#45;&gt;23586</title>
<path fill="none" stroke="black" d="M722.841,-469.384C698.81,-486.197 659.067,-514.003 635.077,-530.788"/>
</g>
<!-- 14129 -->
<g id="node18" class="node"><title>14129</title>
<g id="a_node18"><a xlink:title="6th_week">
<ellipse fill="#ffffff" stroke="black" cx="1382.47" cy="-688.764" rx="32.4942" ry="18"/>
<text text-anchor="middle" x="1382.47" y="-685.064" font-family="Times,serif" font-size="14.00">14129</text>
</a>
</g>
</g>
<!-- 14129&#45;&gt;19071 -->
<g id="edge13" class="edge"><title>14129&#45;&gt;19071</title>
<path fill="none" stroke="black" d="M1402.24,-703.168C1424.03,-719.053 1458.89,-744.465 1480.71,-760.37"/>
</g>
<!-- 14709&#45;&gt;19071 -->
<g id="edge24" class="edge"><title>14709&#45;&gt;19071</title>
<path fill="none" stroke="black" d="M1425.12,-907.859C1441.47,-879.025 1474.18,-821.329 1490.62,-792.321"/>
</g>
<!-- 18867 -->
<g id="node26" class="node"><title>18867</title>
<g id="a_node26"><a xlink:title="6th_week">
<ellipse fill="grey" stroke="black" cx="32.634" cy="-472.563" rx="32.4942" ry="18"/>
<text text-anchor="middle" x="32.634" y="-468.863" font-family="Times,serif" font-size="14.00">18867</text>
</a>
</g>
</g>
<!-- 14831&#45;&gt;18867 -->
<g id="edge44" class="edge"><title>14831&#45;&gt;18867</title>
<path fill="none" stroke="black" d="M182.675,-493.714C149.429,-489.027 97.4474,-481.699 64.2233,-477.016"/>
</g>
<!-- 18303 -->
<g id="node24" class="node"><title>18303</title>
<g id="a_node24"><a xlink:title="6th_week">
<ellipse fill="#20ff05" stroke="black" cx="1378.89" cy="-835.446" rx="32.4942" ry="18"/>
<text text-anchor="middle" x="1378.89" y="-831.746" font-family="Times,serif" font-size="14.00">18303</text>
</a>
</g>
</g>
<!-- 18303&#45;&gt;19071 -->
<g id="edge32" class="edge"><title>18303&#45;&gt;19071</title>
<path fill="none" stroke="black" d="M1403.22,-823.324C1424.43,-812.75 1455.05,-797.49 1476.26,-786.923"/>
</g>
<!-- 18554 -->
<g id="node25" class="node"><title>18554</title>
<g id="a_node25"><a xlink:title="6th_week">
<ellipse fill="#20ff05" stroke="black" cx="613.895" cy="-704.107" rx="32.4942" ry="18"/>
<text text-anchor="middle" x="613.895" y="-700.407" font-family="Times,serif" font-size="14.00">18554</text>
</a>
</g>
</g>
<!-- 18554&#45;&gt;23586 -->
<g id="edge16" class="edge"><title>18554&#45;&gt;23586</title>
<path fill="none" stroke="black" d="M614.003,-685.85C614.184,-655.149 614.548,-593.552 614.729,-562.994"/>
</g>
<!-- 18918 -->
<g id="node27" class="node"><title>18918</title>
<g id="a_node27"><a xlink:title="6th_week">
<ellipse fill="#20ff05" stroke="black" cx="2120.48" cy="-682.297" rx="32.4942" ry="18"/>
<text text-anchor="middle" x="2120.48" y="-678.597" font-family="Times,serif" font-size="14.00">18918</text>
</a>
</g>
</g>
<!-- 18918&#45;&gt;29344 -->
<g id="edge38" class="edge"><title>18918&#45;&gt;29344</title>
<path fill="none" stroke="black" d="M2103.92,-666.783C2080.08,-644.439 2036.31,-603.429 2012.43,-581.049"/>
</g>
<!-- 20142 -->
<g id="node30" class="node"><title>20142</title>
<g id="a_node30"><a xlink:title="6th_week">
<ellipse fill="#20ff05" stroke="black" cx="1760.83" cy="-657.226" rx="32.4942" ry="18"/>
<text text-anchor="middle" x="1760.83" y="-653.526" font-family="Times,serif" font-size="14.00">20142</text>
</a>
</g>
</g>
<!-- 19071&#45;&gt;20142 -->
<g id="edge34" class="edge"><title>19071&#45;&gt;20142</title>
<path fill="none" stroke="black" d="M1525.97,-763.331C1575.73,-740.85 1685.45,-691.281 1735.29,-668.762"/>
</g>
<!-- 22536 -->
<g id="node34" class="node"><title>22536</title>
<g id="a_node34"><a xlink:title="6th_week">
<ellipse fill="grey" stroke="black" cx="1461.98" cy="-621.207" rx="32.4942" ry="18"/>
<text text-anchor="middle" x="1461.98" y="-617.507" font-family="Times,serif" font-size="14.00">22536</text>
</a>
</g>
</g>
<!-- 19071&#45;&gt;22536 -->
<g id="edge15" class="edge"><title>19071&#45;&gt;22536</title>
<path fill="none" stroke="black" d="M1496.04,-756.899C1488.65,-727.457 1474.02,-669.167 1466.57,-639.491"/>
</g>
<!-- 24123 -->
<g id="node36" class="node"><title>24123</title>
<g id="a_node36"><a xlink:title="6th_week">
<ellipse fill="#20ff05" stroke="black" cx="1623.34" cy="-829.758" rx="32.4942" ry="18"/>
<text text-anchor="middle" x="1623.34" y="-826.058" font-family="Times,serif" font-size="14.00">24123</text>
</a>
</g>
</g>
<!-- 19071&#45;&gt;24123 -->
<g id="edge54" class="edge"><title>19071&#45;&gt;24123</title>
<path fill="none" stroke="black" d="M1525.99,-786.204C1547.06,-795.632 1576.86,-808.965 1597.93,-818.39"/>
</g>
<!-- 17006 -->
<g id="node48" class="node"><title>17006</title>
<g id="a_node48"><a xlink:title="6th_week">
<ellipse fill="#20ff05" stroke="black" cx="1616.4" cy="-1002.82" rx="32.4942" ry="18"/>
<text text-anchor="middle" x="1616.4" y="-999.125" font-family="Times,serif" font-size="14.00">17006</text>
</a>
</g>
</g>
<!-- 19071&#45;&gt;17006 -->
<g id="edge5" class="edge"><title>19071&#45;&gt;17006</title>
<path fill="none" stroke="black" d="M1509.44,-792.333C1531.01,-834.774 1585.87,-942.75 1607.47,-985.252"/>
</g>
<!-- 19439 -->
<g id="node29" class="node"><title>19439</title>
<g id="a_node29"><a xlink:title="6th_week">
<ellipse fill="grey" stroke="black" cx="536.216" cy="-685.905" rx="32.4942" ry="18"/>
<text text-anchor="middle" x="536.216" y="-682.205" font-family="Times,serif" font-size="14.00">19439</text>
</a>
</g>
</g>
<!-- 19439&#45;&gt;23586 -->
<g id="edge49" class="edge"><title>19439&#45;&gt;23586</title>
<path fill="none" stroke="black" d="M545.857,-668.621C560.946,-641.568 589.979,-589.515 605.116,-562.375"/>
</g>
<!-- 20142&#45;&gt;29344 -->
<g id="edge41" class="edge"><title>20142&#45;&gt;29344</title>
<path fill="none" stroke="black" d="M1787.78,-646.7C1833.11,-629.001 1924.05,-593.491 1969.17,-575.874"/>
</g>
<!-- 13613 -->
<g id="node47" class="node"><title>13613</title>
<g id="a_node47"><a xlink:title="6th_week">
<ellipse fill="#07ffd1" stroke="black" cx="1836.73" cy="-544.544" rx="32.4942" ry="18"/>
<text text-anchor="middle" x="1836.73" y="-540.844" font-family="Times,serif" font-size="14.00">13613</text>
</a>
</g>
</g>
<!-- 20142&#45;&gt;13613 -->
<g id="edge20" class="edge"><title>20142&#45;&gt;13613</title>
<path fill="none" stroke="black" d="M1772.35,-640.112C1786.7,-618.81 1811.06,-582.655 1825.34,-561.45"/>
</g>
<!-- 20303&#45;&gt;23586 -->
<g id="edge28" class="edge"><title>20303&#45;&gt;23586</title>
<path fill="none" stroke="black" d="M893.688,-619.681C834.953,-603.94 703.301,-568.658 644.356,-552.861"/>
</g>
<!-- 29336 -->
<g id="node42" class="node"><title>29336</title>
<g id="a_node42"><a xlink:title="6th_week">
<ellipse fill="grey" stroke="black" cx="912.727" cy="-771.671" rx="32.4942" ry="18"/>
<text text-anchor="middle" x="912.727" y="-767.971" font-family="Times,serif" font-size="14.00">29336</text>
</a>
</g>
</g>
<!-- 20303&#45;&gt;29336 -->
<g id="edge31" class="edge"><title>20303&#45;&gt;29336</title>
<path fill="none" stroke="black" d="M921.658,-645.78C919.691,-673.508 915.973,-725.924 914.012,-753.563"/>
</g>
<!-- 20336 -->
<g id="node32" class="node"><title>20336</title>
<g id="a_node32"><a xlink:title="6th_week">
<ellipse fill="#20ff05" stroke="black" cx="265.243" cy="-725.979" rx="32.4942" ry="18"/>
<text text-anchor="middle" x="265.243" y="-722.279" font-family="Times,serif" font-size="14.00">20336</text>
</a>
</g>
</g>
<!-- 20336&#45;&gt;28944 -->
<g id="edge9" class="edge"><title>20336&#45;&gt;28944</title>
<path fill="none" stroke="black" d="M292.88,-716.252C320.539,-706.517 362.839,-691.629 390.424,-681.921"/>
</g>
<!-- 24784 -->
<g id="node37" class="node"><title>24784</title>
<g id="a_node37"><a xlink:title="6th_week">
<ellipse fill="#20ff05" stroke="black" cx="629.652" cy="-354.363" rx="32.4942" ry="18"/>
<text text-anchor="middle" x="629.652" y="-350.663" font-family="Times,serif" font-size="14.00">24784</text>
</a>
</g>
</g>
<!-- 23586&#45;&gt;24784 -->
<g id="edge42" class="edge"><title>23586&#45;&gt;24784</title>
<path fill="none" stroke="black" d="M616.256,-526.675C619.088,-490.246 625.407,-408.965 628.235,-372.582"/>
</g>
<!-- 26073 -->
<g id="node38" class="node"><title>26073</title>
<g id="a_node38"><a xlink:title="6th_week">
<ellipse fill="grey" stroke="black" cx="747.36" cy="-550.021" rx="32.4942" ry="18"/>
<text text-anchor="middle" x="747.36" y="-546.321" font-family="Times,serif" font-size="14.00">26073</text>
</a>
</g>
</g>
<!-- 23586&#45;&gt;26073 -->
<g id="edge18" class="edge"><title>23586&#45;&gt;26073</title>
<path fill="none" stroke="black" d="M647.594,-546.203C667.983,-546.983 694.114,-547.983 714.518,-548.764"/>
</g>
<!-- 26770 -->
<g id="node39" class="node"><title>26770</title>
<g id="a_node39"><a xlink:title="6th_week">
<ellipse fill="#20ff05" stroke="black" cx="508.325" cy="-412.291" rx="32.4942" ry="18"/>
<text text-anchor="middle" x="508.325" y="-408.591" font-family="Times,serif" font-size="14.00">26770</text>
</a>
</g>
</g>
<!-- 23586&#45;&gt;26770 -->
<g id="edge22" class="edge"><title>23586&#45;&gt;26770</title>
<path fill="none" stroke="black" d="M601.561,-528.417C581.151,-502.996 542.277,-454.578 521.766,-429.032"/>
</g>
<!-- 28280 -->
<g id="node40" class="node"><title>28280</title>
<g id="a_node40"><a xlink:title="6th_week">
<ellipse fill="#20ff05" stroke="black" cx="595.29" cy="-402.055" rx="32.4942" ry="18"/>
<text text-anchor="middle" x="595.29" y="-398.355" font-family="Times,serif" font-size="14.00">28280</text>
</a>
</g>
</g>
<!-- 23586&#45;&gt;28280 -->
<g id="edge4" class="edge"><title>23586&#45;&gt;28280</title>
<path fill="none" stroke="black" d="M612.36,-526.852C608.601,-499.366 601.493,-447.405 597.746,-420.006"/>
</g>
<!-- 23586&#45;&gt;28944 -->
<g id="edge39" class="edge"><title>23586&#45;&gt;28944</title>
<path fill="none" stroke="black" d="M593.38,-558.817C555.489,-583.308 477.156,-633.937 439.284,-658.416"/>
</g>
<!-- 20144 -->
<g id="node50" class="node"><title>20144</title>
<g id="a_node50"><a xlink:title="6th_week">
<ellipse fill="#20ff05" stroke="black" cx="2167.96" cy="-629.28" rx="32.4942" ry="18"/>
<text text-anchor="middle" x="2167.96" y="-625.58" font-family="Times,serif" font-size="14.00">20144</text>
</a>
</g>
</g>
<!-- 29344&#45;&gt;20144 -->
<g id="edge11" class="edge"><title>29344&#45;&gt;20144</title>
<path fill="none" stroke="black" d="M2023.08,-575.583C2055.32,-587.531 2108.63,-607.29 2140.81,-619.217"/>
</g>
<!-- 28572 -->
<g id="node54" class="node"><title>28572</title>
<g id="a_node54"><a xlink:title="6th_week">
<ellipse fill="grey" stroke="black" cx="2091.8" cy="-412.629" rx="32.4942" ry="18"/>
<text text-anchor="middle" x="2091.8" y="-408.929" font-family="Times,serif" font-size="14.00">28572</text>
</a>
</g>
</g>
<!-- 29344&#45;&gt;28572 -->
<g id="edge12" class="edge"><title>29344&#45;&gt;28572</title>
<path fill="none" stroke="black" d="M2006.63,-548.236C2025.07,-518.881 2062.35,-459.508 2080.86,-430.036"/>
</g>
<!-- 20507 -->
<g id="node56" class="node"><title>20507</title>
<g id="a_node56"><a xlink:title="6th_week">
<ellipse fill="#ffffff" stroke="black" cx="2171.07" cy="-563.734" rx="32.4942" ry="18"/>
<text text-anchor="middle" x="2171.07" y="-560.034" font-family="Times,serif" font-size="14.00">20507</text>
</a>
</g>
</g>
<!-- 29344&#45;&gt;20507 -->
<g id="edge45" class="edge"><title>29344&#45;&gt;20507</title>
<path fill="none" stroke="black" d="M2028.36,-565.149C2059.74,-564.838 2106.97,-564.37 2138.39,-564.058"/>
</g>
<!-- 4134 -->
<g id="node44" class="node"><title>4134</title>
<g id="a_node44"><a xlink:title="6th_week">
<ellipse fill="#20ff05" stroke="black" cx="1780.11" cy="-1025.29" rx="28.6953" ry="18"/>
<text text-anchor="middle" x="1780.11" y="-1021.59" font-family="Times,serif" font-size="14.00">4134</text>
</a>
</g>
</g>
<!-- 4134&#45;&gt;17006 -->
<g id="edge37" class="edge"><title>4134&#45;&gt;17006</title>
<path fill="none" stroke="black" d="M1751.97,-1021.42C1723.08,-1017.46 1678.21,-1011.3 1648.09,-1007.17"/>
</g>
<!-- 11572 -->
<g id="node45" class="node"><title>11572</title>
<g id="a_node45"><a xlink:title="6th_week">
<ellipse fill="#20ff05" stroke="black" cx="1593.72" cy="-1149.66" rx="32.4942" ry="18"/>
<text text-anchor="middle" x="1593.72" y="-1145.96" font-family="Times,serif" font-size="14.00">11572</text>
</a>
</g>
</g>
<!-- 11572&#45;&gt;17006 -->
<g id="edge51" class="edge"><title>11572&#45;&gt;17006</title>
<path fill="none" stroke="black" d="M1596.5,-1131.65C1600.85,-1103.47 1609.23,-1049.25 1613.6,-1020.98"/>
</g>
<!-- 12319 -->
<g id="node46" class="node"><title>12319</title>
<g id="a_node46"><a xlink:title="6th_week">
<ellipse fill="#20ff05" stroke="black" cx="1611.73" cy="-1198.26" rx="32.4942" ry="18"/>
<text text-anchor="middle" x="1611.73" y="-1194.56" font-family="Times,serif" font-size="14.00">12319</text>
</a>
</g>
</g>
<!-- 12319&#45;&gt;17006 -->
<g id="edge1" class="edge"><title>12319&#45;&gt;17006</title>
<path fill="none" stroke="black" d="M1612.16,-1180.23C1613.05,-1143.09 1615.07,-1058.44 1615.96,-1021.1"/>
</g>
<!-- 18130 -->
<g id="node49" class="node"><title>18130</title>
<g id="a_node49"><a xlink:title="6th_week">
<ellipse fill="#20ff05" stroke="black" cx="1757.84" cy="-1170.47" rx="32.4942" ry="18"/>
<text text-anchor="middle" x="1757.84" y="-1166.77" font-family="Times,serif" font-size="14.00">18130</text>
</a>
</g>
</g>
<!-- 17006&#45;&gt;18130 -->
<g id="edge53" class="edge"><title>17006&#45;&gt;18130</title>
<path fill="none" stroke="black" d="M1630.22,-1019.2C1657.19,-1051.17 1716.57,-1121.55 1743.75,-1153.77"/>
</g>
<!-- 22805 -->
<g id="node51" class="node"><title>22805</title>
<g id="a_node51"><a xlink:title="6th_week">
<ellipse fill="#20ff05" stroke="black" cx="1768.41" cy="-1097.37" rx="32.4942" ry="18"/>
<text text-anchor="middle" x="1768.41" y="-1093.67" font-family="Times,serif" font-size="14.00">22805</text>
</a>
</g>
</g>
<!-- 17006&#45;&gt;22805 -->
<g id="edge8" class="edge"><title>17006&#45;&gt;22805</title>
<path fill="none" stroke="black" d="M1638.18,-1016.37C1667.08,-1034.34 1717.8,-1065.89 1746.67,-1083.85"/>
</g>
<!-- 27751 -->
<g id="node53" class="node"><title>27751</title>
<g id="a_node53"><a xlink:title="6th_week">
<ellipse fill="#20ff05" stroke="black" cx="1668.25" cy="-1139.42" rx="32.4942" ry="18"/>
<text text-anchor="middle" x="1668.25" y="-1135.72" font-family="Times,serif" font-size="14.00">27751</text>
</a>
</g>
</g>
<!-- 17006&#45;&gt;27751 -->
<g id="edge52" class="edge"><title>17006&#45;&gt;27751</title>
<path fill="none" stroke="black" d="M1623.18,-1020.68C1633.12,-1046.86 1651.53,-1095.38 1661.47,-1121.56"/>
</g>
<!-- 12550 -->
<g id="node55" class="node"><title>12550</title>
<g id="a_node55"><a xlink:title="6th_week">
<ellipse fill="grey" stroke="black" cx="1520.67" cy="-1149.52" rx="32.4942" ry="18"/>
<text text-anchor="middle" x="1520.67" y="-1145.82" font-family="Times,serif" font-size="14.00">12550</text>
</a>
</g>
</g>
<!-- 17006&#45;&gt;12550 -->
<g id="edge10" class="edge"><title>17006&#45;&gt;12550</title>
<path fill="none" stroke="black" d="M1605.23,-1019.94C1586.78,-1048.21 1550.16,-1104.32 1531.76,-1132.52"/>
</g>
<!-- 23878 -->
<g id="node52" class="node"><title>23878</title>
<g id="a_node52"><a xlink:title="6th_week">
<ellipse fill="#20ff05" stroke="black" cx="1846.76" cy="-1306.17" rx="32.4942" ry="18"/>
<text text-anchor="middle" x="1846.76" y="-1302.47" font-family="Times,serif" font-size="14.00">23878</text>
</a>
</g>
</g>
<!-- 18130&#45;&gt;23878 -->
<g id="edge3" class="edge"><title>18130&#45;&gt;23878</title>
<path fill="none" stroke="black" d="M1769.1,-1187.65C1786.2,-1213.76 1818.54,-1263.1 1835.59,-1289.13"/>
</g>
</g>
</svg>
