<?xml version="1.0" encoding="UTF-8" standalone="no"?>
<!DOCTYPE svg PUBLIC "-//W3C//DTD SVG 1.1//EN"
 "http://www.w3.org/Graphics/SVG/1.1/DTD/svg11.dtd">
<!-- Generated by graphviz version 2.38.0 (20140413.2041)
 -->
<!-- Title: %3 Pages: 1 -->
<svg width="1798pt" height="1422pt"
 viewBox="0.00 0.00 1798.00 1422.00" xmlns="http://www.w3.org/2000/svg" xmlns:xlink="http://www.w3.org/1999/xlink">
<g id="graph0" class="graph" transform="scale(1 1) rotate(0) translate(4 1418)">
<title>%3</title>
<polygon fill="white" stroke="none" points="-4,4 -4,-1418 1794,-1418 1794,4 -4,4"/>
<!-- 369 -->
<g id="node1" class="node"><title>369</title>
<g id="a_node1"><a xlink:title="6th_week">
<ellipse fill="#ff9f0f" stroke="black" cx="865.768" cy="-521.533" rx="27" ry="18"/>
<text text-anchor="middle" x="865.768" y="-517.833" font-family="Times,serif" font-size="14.00">369</text>
</a>
</g>
</g>
<!-- 24571 -->
<g id="node44" class="node"><title>24571</title>
<g id="a_node44"><a xlink:title="6th_week">
<ellipse fill="#ff9f0f" stroke="black" cx="1013.19" cy="-746.489" rx="32.4942" ry="18"/>
<text text-anchor="middle" x="1013.19" y="-742.789" font-family="Times,serif" font-size="14.00">24571</text>
</a>
</g>
</g>
<!-- 369&#45;&gt;24571 -->
<g id="edge28" class="edge"><title>369&#45;&gt;24571</title>
<path fill="none" stroke="black" d="M876.608,-538.075C903.738,-579.473 974.358,-687.238 1001.93,-729.309"/>
</g>
<!-- 32302 -->
<g id="node58" class="node"><title>32302</title>
<g id="a_node58"><a xlink:title="6th_week">
<ellipse fill="#ff9f0f" stroke="black" cx="750.91" cy="-341.671" rx="32.4942" ry="18"/>
<text text-anchor="middle" x="750.91" y="-337.971" font-family="Times,serif" font-size="14.00">32302</text>
</a>
</g>
</g>
<!-- 369&#45;&gt;32302 -->
<g id="edge8" class="edge"><title>369&#45;&gt;32302</title>
<path fill="none" stroke="black" d="M855.169,-504.934C833.399,-470.844 783.85,-393.253 761.819,-358.754"/>
</g>
<!-- 868 -->
<g id="node2" class="node"><title>868</title>
<g id="a_node2"><a xlink:title="6th_week">
<ellipse fill="grey" stroke="black" cx="1240.51" cy="-1178.12" rx="27" ry="18"/>
<text text-anchor="middle" x="1240.51" y="-1174.42" font-family="Times,serif" font-size="14.00">868</text>
</a>
</g>
</g>
<!-- 14895 -->
<g id="node24" class="node"><title>14895</title>
<g id="a_node24"><a xlink:title="6th_week">
<ellipse fill="#ff9f0f" stroke="black" cx="1141.77" cy="-990.411" rx="32.4942" ry="18"/>
<text text-anchor="middle" x="1141.77" y="-986.711" font-family="Times,serif" font-size="14.00">14895</text>
</a>
</g>
</g>
<!-- 868&#45;&gt;14895 -->
<g id="edge18" class="edge"><title>868&#45;&gt;14895</title>
<path fill="none" stroke="black" d="M1231.57,-1161.13C1212.87,-1125.57 1169.77,-1043.65 1150.9,-1007.77"/>
</g>
<!-- 2339 -->
<g id="node3" class="node"><title>2339</title>
<g id="a_node3"><a xlink:title="6th_week">
<ellipse fill="#ff9f0f" stroke="black" cx="116.354" cy="-1395.53" rx="28.6953" ry="18"/>
<text text-anchor="middle" x="116.354" y="-1391.83" font-family="Times,serif" font-size="14.00">2339</text>
</a>
</g>
</g>
<!-- 3684 -->
<g id="node6" class="node"><title>3684</title>
<g id="a_node6"><a xlink:title="6th_week">
<ellipse fill="#ff9f0f" stroke="black" cx="219.756" cy="-1243.37" rx="28.6953" ry="18"/>
<text text-anchor="middle" x="219.756" y="-1239.67" font-family="Times,serif" font-size="14.00">3684</text>
</a>
</g>
</g>
<!-- 2339&#45;&gt;3684 -->
<g id="edge40" class="edge"><title>2339&#45;&gt;3684</title>
<path fill="none" stroke="black" d="M127.617,-1378.95C147.507,-1349.68 188.627,-1289.18 208.507,-1259.92"/>
</g>
<!-- 3013 -->
<g id="node4" class="node"><title>3013</title>
<g id="a_node4"><a xlink:title="6th_week">
<ellipse fill="grey" stroke="black" cx="1014.32" cy="-1264.02" rx="28.6953" ry="18"/>
<text text-anchor="middle" x="1014.32" y="-1260.32" font-family="Times,serif" font-size="14.00">3013</text>
</a>
</g>
</g>
<!-- 13115 -->
<g id="node22" class="node"><title>13115</title>
<g id="a_node22"><a xlink:title="6th_week">
<ellipse fill="#ff9f0f" stroke="black" cx="988.869" cy="-1061.63" rx="32.4942" ry="18"/>
<text text-anchor="middle" x="988.869" y="-1057.93" font-family="Times,serif" font-size="14.00">13115</text>
</a>
</g>
</g>
<!-- 3013&#45;&gt;13115 -->
<g id="edge19" class="edge"><title>3013&#45;&gt;13115</title>
<path fill="none" stroke="black" d="M1012.06,-1246.05C1007.24,-1207.75 996.003,-1118.37 991.159,-1079.84"/>
</g>
<!-- 3384 -->
<g id="node5" class="node"><title>3384</title>
<g id="a_node5"><a xlink:title="6th_week">
<ellipse fill="#ff9f0f" stroke="black" cx="1507.14" cy="-159.388" rx="28.6953" ry="18"/>
<text text-anchor="middle" x="1507.14" y="-155.688" font-family="Times,serif" font-size="14.00">3384</text>
</a>
</g>
</g>
<!-- 20503 -->
<g id="node32" class="node"><title>20503</title>
<g id="a_node32"><a xlink:title="6th_week">
<ellipse fill="#ff9f0f" stroke="black" cx="1385.57" cy="-307.604" rx="32.4942" ry="18"/>
<text text-anchor="middle" x="1385.57" y="-303.904" font-family="Times,serif" font-size="14.00">20503</text>
</a>
</g>
</g>
<!-- 3384&#45;&gt;20503 -->
<g id="edge20" class="edge"><title>3384&#45;&gt;20503</title>
<path fill="none" stroke="black" d="M1493.9,-175.532C1470.64,-203.893 1422.68,-262.364 1399.17,-291.028"/>
</g>
<!-- 11694 -->
<g id="node18" class="node"><title>11694</title>
<g id="a_node18"><a xlink:title="6th_week">
<ellipse fill="#ff9f0f" stroke="black" cx="450.678" cy="-1110.24" rx="32.4942" ry="18"/>
<text text-anchor="middle" x="450.678" y="-1106.54" font-family="Times,serif" font-size="14.00">11694</text>
</a>
</g>
</g>
<!-- 3684&#45;&gt;11694 -->
<g id="edge2" class="edge"><title>3684&#45;&gt;11694</title>
<path fill="none" stroke="black" d="M241.066,-1231.08C284.611,-1205.98 383.438,-1149.01 428.063,-1123.28"/>
</g>
<!-- 15450 -->
<g id="node26" class="node"><title>15450</title>
<g id="a_node26"><a xlink:title="6th_week">
<ellipse fill="#ffffff" stroke="black" cx="54.9121" cy="-1341.99" rx="32.4942" ry="18"/>
<text text-anchor="middle" x="54.9121" y="-1338.29" font-family="Times,serif" font-size="14.00">15450</text>
</a>
</g>
</g>
<!-- 3684&#45;&gt;15450 -->
<g id="edge24" class="edge"><title>3684&#45;&gt;15450</title>
<path fill="none" stroke="black" d="M198.878,-1255.86C167.69,-1274.52 109.185,-1309.52 77.1972,-1328.66"/>
</g>
<!-- 24471 -->
<g id="node42" class="node"><title>24471</title>
<g id="a_node42"><a xlink:title="6th_week">
<ellipse fill="#ff9f0f" stroke="black" cx="32.5769" cy="-1262.84" rx="32.4942" ry="18"/>
<text text-anchor="middle" x="32.5769" y="-1259.14" font-family="Times,serif" font-size="14.00">24471</text>
</a>
</g>
</g>
<!-- 3684&#45;&gt;24471 -->
<g id="edge50" class="edge"><title>3684&#45;&gt;24471</title>
<path fill="none" stroke="black" d="M191.327,-1246.33C157.271,-1249.87 100.362,-1255.79 64.7325,-1259.49"/>
</g>
<!-- 4703 -->
<g id="node7" class="node"><title>4703</title>
<g id="a_node7"><a xlink:title="6th_week">
<ellipse fill="#ff9f0f" stroke="black" cx="985.303" cy="-205.057" rx="28.6953" ry="18"/>
<text text-anchor="middle" x="985.303" y="-201.357" font-family="Times,serif" font-size="14.00">4703</text>
</a>
</g>
</g>
<!-- 4836 -->
<g id="node9" class="node"><title>4836</title>
<g id="a_node9"><a xlink:title="6th_week">
<ellipse fill="#ff9f0f" stroke="black" cx="971.743" cy="-17.7005" rx="28.6953" ry="18"/>
<text text-anchor="middle" x="971.743" y="-14.0005" font-family="Times,serif" font-size="14.00">4836</text>
</a>
</g>
</g>
<!-- 4703&#45;&gt;4836 -->
<g id="edge55" class="edge"><title>4703&#45;&gt;4836</title>
<path fill="none" stroke="black" d="M983.978,-186.751C981.379,-150.841 975.641,-71.5518 973.053,-35.8046"/>
</g>
<!-- 19382 -->
<g id="node29" class="node"><title>19382</title>
<g id="a_node29"><a xlink:title="6th_week">
<ellipse fill="#ff9f0f" stroke="black" cx="1000.57" cy="-452.617" rx="32.4942" ry="18"/>
<text text-anchor="middle" x="1000.57" y="-448.917" font-family="Times,serif" font-size="14.00">19382</text>
</a>
</g>
</g>
<!-- 4703&#45;&gt;19382 -->
<g id="edge27" class="edge"><title>4703&#45;&gt;19382</title>
<path fill="none" stroke="black" d="M986.426,-223.26C989.249,-269.042 996.621,-388.576 999.446,-434.386"/>
</g>
<!-- 4774 -->
<g id="node8" class="node"><title>4774</title>
<g id="a_node8"><a xlink:title="6th_week">
<ellipse fill="#ff9f0f" stroke="black" cx="1158.89" cy="-902.768" rx="28.6953" ry="18"/>
<text text-anchor="middle" x="1158.89" y="-899.068" font-family="Times,serif" font-size="14.00">4774</text>
</a>
</g>
</g>
<!-- 4774&#45;&gt;24571 -->
<g id="edge39" class="edge"><title>4774&#45;&gt;24571</title>
<path fill="none" stroke="black" d="M1144.39,-887.212C1116.75,-857.565 1056.77,-793.232 1028.5,-762.918"/>
</g>
<!-- 6566 -->
<g id="node10" class="node"><title>6566</title>
<g id="a_node10"><a xlink:title="6th_week">
<ellipse fill="#ff9f0f" stroke="black" cx="1150.62" cy="-767.859" rx="28.6953" ry="18"/>
<text text-anchor="middle" x="1150.62" y="-764.159" font-family="Times,serif" font-size="14.00">6566</text>
</a>
</g>
</g>
<!-- 6566&#45;&gt;24571 -->
<g id="edge49" class="edge"><title>6566&#45;&gt;24571</title>
<path fill="none" stroke="black" d="M1122.81,-763.534C1100.22,-760.022 1068.36,-755.068 1044.8,-751.405"/>
</g>
<!-- 6684 -->
<g id="node11" class="node"><title>6684</title>
<g id="a_node11"><a xlink:title="6th_week">
<ellipse fill="#ffffff" stroke="black" cx="1399.38" cy="-390.89" rx="28.6953" ry="18"/>
<text text-anchor="middle" x="1399.38" y="-387.19" font-family="Times,serif" font-size="14.00">6684</text>
</a>
</g>
</g>
<!-- 29549 -->
<g id="node51" class="node"><title>29549</title>
<g id="a_node51"><a xlink:title="6th_week">
<ellipse fill="#ff9f0f" stroke="black" cx="1234.35" cy="-511.768" rx="32.4942" ry="18"/>
<text text-anchor="middle" x="1234.35" y="-508.068" font-family="Times,serif" font-size="14.00">29549</text>
</a>
</g>
</g>
<!-- 6684&#45;&gt;29549 -->
<g id="edge21" class="edge"><title>6684&#45;&gt;29549</title>
<path fill="none" stroke="black" d="M1380.45,-404.756C1348.96,-427.825 1286.1,-473.863 1254.08,-497.315"/>
</g>
<!-- 7296 -->
<g id="node12" class="node"><title>7296</title>
<g id="a_node12"><a xlink:title="6th_week">
<ellipse fill="#ff9f0f" stroke="black" cx="922.71" cy="-865.089" rx="28.6953" ry="18"/>
<text text-anchor="middle" x="922.71" y="-861.389" font-family="Times,serif" font-size="14.00">7296</text>
</a>
</g>
</g>
<!-- 7296&#45;&gt;24571 -->
<g id="edge4" class="edge"><title>7296&#45;&gt;24571</title>
<path fill="none" stroke="black" d="M935.291,-848.598C952.479,-826.066 983.137,-785.879 1000.42,-763.222"/>
</g>
<!-- 8013 -->
<g id="node13" class="node"><title>8013</title>
<g id="a_node13"><a xlink:title="6th_week">
<ellipse fill="#ff9f0f" stroke="black" cx="1761.48" cy="-686.901" rx="28.6953" ry="18"/>
<text text-anchor="middle" x="1761.48" y="-683.201" font-family="Times,serif" font-size="14.00">8013</text>
</a>
</g>
</g>
<!-- 23355 -->
<g id="node37" class="node"><title>23355</title>
<g id="a_node37"><a xlink:title="6th_week">
<ellipse fill="#ff9f0f" stroke="black" cx="1560.17" cy="-701.62" rx="32.4942" ry="18"/>
<text text-anchor="middle" x="1560.17" y="-697.92" font-family="Times,serif" font-size="14.00">23355</text>
</a>
</g>
</g>
<!-- 8013&#45;&gt;23355 -->
<g id="edge37" class="edge"><title>8013&#45;&gt;23355</title>
<path fill="none" stroke="black" d="M1733.06,-688.979C1696,-691.689 1631.31,-696.419 1592.43,-699.261"/>
</g>
<!-- 8375 -->
<g id="node14" class="node"><title>8375</title>
<g id="a_node14"><a xlink:title="6th_week">
<ellipse fill="#ff9f0f" stroke="black" cx="750.63" cy="-721.26" rx="28.6953" ry="18"/>
<text text-anchor="middle" x="750.63" y="-717.56" font-family="Times,serif" font-size="14.00">8375</text>
</a>
</g>
</g>
<!-- 20528 -->
<g id="node33" class="node"><title>20528</title>
<g id="a_node33"><a xlink:title="6th_week">
<ellipse fill="#ff9f0f" stroke="black" cx="539.486" cy="-694.782" rx="32.4942" ry="18"/>
<text text-anchor="middle" x="539.486" y="-691.082" font-family="Times,serif" font-size="14.00">20528</text>
</a>
</g>
</g>
<!-- 8375&#45;&gt;20528 -->
<g id="edge34" class="edge"><title>8375&#45;&gt;20528</title>
<path fill="none" stroke="black" d="M722.154,-717.689C682.869,-712.762 612.267,-703.909 571.294,-698.771"/>
</g>
<!-- 8375&#45;&gt;24571 -->
<g id="edge51" class="edge"><title>8375&#45;&gt;24571</title>
<path fill="none" stroke="black" d="M778.978,-723.984C828.172,-728.711 929.047,-738.404 980.876,-743.384"/>
</g>
<!-- 8925 -->
<g id="node15" class="node"><title>8925</title>
<g id="a_node15"><a xlink:title="6th_week">
<ellipse fill="#ff9f0f" stroke="black" cx="988.854" cy="-962.309" rx="28.6953" ry="18"/>
<text text-anchor="middle" x="988.854" y="-958.609" font-family="Times,serif" font-size="14.00">8925</text>
</a>
</g>
</g>
<!-- 8925&#45;&gt;24571 -->
<g id="edge11" class="edge"><title>8925&#45;&gt;24571</title>
<path fill="none" stroke="black" d="M990.887,-944.28C995.467,-903.655 1006.55,-805.339 1011.14,-764.619"/>
</g>
<!-- 9310 -->
<g id="node16" class="node"><title>9310</title>
<g id="a_node16"><a xlink:title="6th_week">
<ellipse fill="grey" stroke="black" cx="854.808" cy="-898.463" rx="28.6953" ry="18"/>
<text text-anchor="middle" x="854.808" y="-894.763" font-family="Times,serif" font-size="14.00">9310</text>
</a>
</g>
</g>
<!-- 9310&#45;&gt;24571 -->
<g id="edge23" class="edge"><title>9310&#45;&gt;24571</title>
<path fill="none" stroke="black" d="M870.573,-883.336C900.618,-854.506 965.816,-791.944 996.537,-762.466"/>
</g>
<!-- 10153 -->
<g id="node17" class="node"><title>10153</title>
<g id="a_node17"><a xlink:title="6th_week">
<ellipse fill="#ff9f0f" stroke="black" cx="1227.43" cy="-747.988" rx="32.4942" ry="18"/>
<text text-anchor="middle" x="1227.43" y="-744.288" font-family="Times,serif" font-size="14.00">10153</text>
</a>
</g>
</g>
<!-- 10153&#45;&gt;24571 -->
<g id="edge29" class="edge"><title>10153&#45;&gt;24571</title>
<path fill="none" stroke="black" d="M1194.89,-747.76C1154.62,-747.479 1086.44,-747.001 1046.03,-746.719"/>
</g>
<!-- 24325 -->
<g id="node40" class="node"><title>24325</title>
<g id="a_node40"><a xlink:title="6th_week">
<ellipse fill="#ffffff" stroke="black" cx="325.944" cy="-1230.49" rx="32.4942" ry="18"/>
<text text-anchor="middle" x="325.944" y="-1226.79" font-family="Times,serif" font-size="14.00">24325</text>
</a>
</g>
</g>
<!-- 11694&#45;&gt;24325 -->
<g id="edge56" class="edge"><title>11694&#45;&gt;24325</title>
<path fill="none" stroke="black" d="M434.371,-1125.96C410.466,-1149.01 366.162,-1191.72 342.255,-1214.77"/>
</g>
<!-- 30321 -->
<g id="node53" class="node"><title>30321</title>
<g id="a_node53"><a xlink:title="6th_week">
<ellipse fill="#ff9f0f" stroke="black" cx="721.994" cy="-938.05" rx="32.4942" ry="18"/>
<text text-anchor="middle" x="721.994" y="-934.35" font-family="Times,serif" font-size="14.00">30321</text>
</a>
</g>
</g>
<!-- 11694&#45;&gt;30321 -->
<g id="edge16" class="edge"><title>11694&#45;&gt;30321</title>
<path fill="none" stroke="black" d="M472.422,-1096.44C523.349,-1064.12 649.867,-983.826 700.523,-951.677"/>
</g>
<!-- 11743 -->
<g id="node19" class="node"><title>11743</title>
<g id="a_node19"><a xlink:title="6th_week">
<ellipse fill="#ff9f0f" stroke="black" cx="991.328" cy="-910.906" rx="32.4942" ry="18"/>
<text text-anchor="middle" x="991.328" y="-907.206" font-family="Times,serif" font-size="14.00">11743</text>
</a>
</g>
</g>
<!-- 11743&#45;&gt;24571 -->
<g id="edge12" class="edge"><title>11743&#45;&gt;24571</title>
<path fill="none" stroke="black" d="M993.751,-892.682C997.953,-861.078 1006.54,-796.455 1010.75,-764.794"/>
</g>
<!-- 12275 -->
<g id="node20" class="node"><title>12275</title>
<g id="a_node20"><a xlink:title="6th_week">
<ellipse fill="#ff9f0f" stroke="black" cx="832.921" cy="-673.203" rx="32.4942" ry="18"/>
<text text-anchor="middle" x="832.921" y="-669.503" font-family="Times,serif" font-size="14.00">12275</text>
</a>
</g>
</g>
<!-- 12275&#45;&gt;24571 -->
<g id="edge44" class="edge"><title>12275&#45;&gt;24571</title>
<path fill="none" stroke="black" d="M859.133,-683.86C893.31,-697.754 952.75,-721.919 986.943,-735.82"/>
</g>
<!-- 12731 -->
<g id="node21" class="node"><title>12731</title>
<g id="a_node21"><a xlink:title="6th_week">
<ellipse fill="#ff9f0f" stroke="black" cx="1007.04" cy="-579.72" rx="32.4942" ry="18"/>
<text text-anchor="middle" x="1007.04" y="-576.02" font-family="Times,serif" font-size="14.00">12731</text>
</a>
</g>
</g>
<!-- 12731&#45;&gt;24571 -->
<g id="edge14" class="edge"><title>12731&#45;&gt;24571</title>
<path fill="none" stroke="black" d="M1007.71,-597.885C1008.89,-629.964 1011.34,-696.283 1012.52,-728.347"/>
</g>
<!-- 13115&#45;&gt;24571 -->
<g id="edge59" class="edge"><title>13115&#45;&gt;24571</title>
<path fill="none" stroke="black" d="M990.281,-1043.32C994.58,-987.624 1007.47,-820.61 1011.77,-764.845"/>
</g>
<!-- 26397 -->
<g id="node49" class="node"><title>26397</title>
<g id="a_node49"><a xlink:title="6th_week">
<ellipse fill="#ff9f0f" stroke="black" cx="932.484" cy="-1261.35" rx="32.4942" ry="18"/>
<text text-anchor="middle" x="932.484" y="-1257.65" font-family="Times,serif" font-size="14.00">26397</text>
</a>
</g>
</g>
<!-- 13115&#45;&gt;26397 -->
<g id="edge9" class="edge"><title>13115&#45;&gt;26397</title>
<path fill="none" stroke="black" d="M983.766,-1079.7C973.031,-1117.73 948.224,-1205.59 937.535,-1243.45"/>
</g>
<!-- 13275 -->
<g id="node23" class="node"><title>13275</title>
<g id="a_node23"><a xlink:title="6th_week">
<ellipse fill="#ff9f0f" stroke="black" cx="1172.94" cy="-854.26" rx="32.4942" ry="18"/>
<text text-anchor="middle" x="1172.94" y="-850.56" font-family="Times,serif" font-size="14.00">13275</text>
</a>
</g>
</g>
<!-- 13275&#45;&gt;24571 -->
<g id="edge58" class="edge"><title>13275&#45;&gt;24571</title>
<path fill="none" stroke="black" d="M1152.06,-840.17C1121.35,-819.459 1064.38,-781.026 1033.82,-760.411"/>
</g>
<!-- 14895&#45;&gt;24571 -->
<g id="edge45" class="edge"><title>14895&#45;&gt;24571</title>
<path fill="none" stroke="black" d="M1132.52,-972.869C1108.8,-927.863 1045.98,-808.703 1022.35,-763.872"/>
</g>
<!-- 14924 -->
<g id="node25" class="node"><title>14924</title>
<g id="a_node25"><a xlink:title="6th_week">
<ellipse fill="#ff9f0f" stroke="black" cx="805.44" cy="-788.908" rx="32.4942" ry="18"/>
<text text-anchor="middle" x="805.44" y="-785.208" font-family="Times,serif" font-size="14.00">14924</text>
</a>
</g>
</g>
<!-- 14924&#45;&gt;24571 -->
<g id="edge13" class="edge"><title>14924&#45;&gt;24571</title>
<path fill="none" stroke="black" d="M836.094,-782.649C875.372,-774.629 943.069,-760.806 982.407,-752.774"/>
</g>
<!-- 15869 -->
<g id="node27" class="node"><title>15869</title>
<g id="a_node27"><a xlink:title="6th_week">
<ellipse fill="#ff9f0f" stroke="black" cx="1082.3" cy="-581.08" rx="32.4942" ry="18"/>
<text text-anchor="middle" x="1082.3" y="-577.38" font-family="Times,serif" font-size="14.00">15869</text>
</a>
</g>
</g>
<!-- 15869&#45;&gt;24571 -->
<g id="edge47" class="edge"><title>15869&#45;&gt;24571</title>
<path fill="none" stroke="black" d="M1074.91,-598.781C1061.6,-630.618 1033.79,-697.171 1020.53,-728.914"/>
</g>
<!-- 18573 -->
<g id="node28" class="node"><title>18573</title>
<g id="a_node28"><a xlink:title="6th_week">
<ellipse fill="#ff9f0f" stroke="black" cx="1162.63" cy="-584.155" rx="32.4942" ry="18"/>
<text text-anchor="middle" x="1162.63" y="-580.455" font-family="Times,serif" font-size="14.00">18573</text>
</a>
</g>
</g>
<!-- 18573&#45;&gt;24571 -->
<g id="edge17" class="edge"><title>18573&#45;&gt;24571</title>
<path fill="none" stroke="black" d="M1147.75,-600.314C1119.11,-631.43 1056.6,-699.331 1028,-730.396"/>
</g>
<!-- 19382&#45;&gt;24571 -->
<g id="edge15" class="edge"><title>19382&#45;&gt;24571</title>
<path fill="none" stroke="black" d="M1001.36,-471C1003.63,-523.901 1010.16,-676.068 1012.41,-728.488"/>
</g>
<!-- 19862 -->
<g id="node30" class="node"><title>19862</title>
<g id="a_node30"><a xlink:title="6th_week">
<ellipse fill="grey" stroke="black" cx="886.374" cy="-802.543" rx="32.4942" ry="18"/>
<text text-anchor="middle" x="886.374" y="-798.843" font-family="Times,serif" font-size="14.00">19862</text>
</a>
</g>
</g>
<!-- 19862&#45;&gt;24571 -->
<g id="edge36" class="edge"><title>19862&#45;&gt;24571</title>
<path fill="none" stroke="black" d="M912.037,-791.199C934.038,-781.474 965.572,-767.536 987.563,-757.815"/>
</g>
<!-- 20128 -->
<g id="node31" class="node"><title>20128</title>
<g id="a_node31"><a xlink:title="6th_week">
<ellipse fill="#ff9f0f" stroke="black" cx="851.341" cy="-616.15" rx="32.4942" ry="18"/>
<text text-anchor="middle" x="851.341" y="-612.45" font-family="Times,serif" font-size="14.00">20128</text>
</a>
</g>
</g>
<!-- 20128&#45;&gt;24571 -->
<g id="edge6" class="edge"><title>20128&#45;&gt;24571</title>
<path fill="none" stroke="black" d="M869.906,-631.101C901.043,-656.176 963.431,-706.419 994.589,-731.512"/>
</g>
<!-- 20503&#45;&gt;29549 -->
<g id="edge52" class="edge"><title>20503&#45;&gt;29549</title>
<path fill="none" stroke="black" d="M1373.19,-324.312C1344.84,-362.596 1275.42,-456.323 1246.9,-494.829"/>
</g>
<!-- 21402 -->
<g id="node34" class="node"><title>21402</title>
<g id="a_node34"><a xlink:title="6th_week">
<ellipse fill="#ffffff" stroke="black" cx="1221.29" cy="-810.257" rx="32.4942" ry="18"/>
<text text-anchor="middle" x="1221.29" y="-806.557" font-family="Times,serif" font-size="14.00">21402</text>
</a>
</g>
</g>
<!-- 21402&#45;&gt;24571 -->
<g id="edge1" class="edge"><title>21402&#45;&gt;24571</title>
<path fill="none" stroke="black" d="M1192.79,-801.524C1153.05,-789.347 1081.41,-767.394 1041.68,-755.219"/>
</g>
<!-- 22235 -->
<g id="node35" class="node"><title>22235</title>
<g id="a_node35"><a xlink:title="6th_week">
<ellipse fill="#ff9f0f" stroke="black" cx="925.473" cy="-567.057" rx="32.4942" ry="18"/>
<text text-anchor="middle" x="925.473" y="-563.357" font-family="Times,serif" font-size="14.00">22235</text>
</a>
</g>
</g>
<!-- 22235&#45;&gt;24571 -->
<g id="edge22" class="edge"><title>22235&#45;&gt;24571</title>
<path fill="none" stroke="black" d="M934.043,-584.588C950.812,-618.892 987.785,-694.526 1004.58,-728.886"/>
</g>
<!-- 22954 -->
<g id="node36" class="node"><title>22954</title>
<g id="a_node36"><a xlink:title="6th_week">
<ellipse fill="#ff9f0f" stroke="black" cx="817.514" cy="-851.608" rx="32.4942" ry="18"/>
<text text-anchor="middle" x="817.514" y="-847.908" font-family="Times,serif" font-size="14.00">22954</text>
</a>
</g>
</g>
<!-- 22954&#45;&gt;24571 -->
<g id="edge35" class="edge"><title>22954&#45;&gt;24571</title>
<path fill="none" stroke="black" d="M841.117,-838.928C878.828,-818.669 952.234,-779.234 989.805,-759.05"/>
</g>
<!-- 32784 -->
<g id="node59" class="node"><title>32784</title>
<g id="a_node59"><a xlink:title="6th_week">
<ellipse fill="#ff9f0f" stroke="black" cx="1316.27" cy="-721.509" rx="32.4942" ry="18"/>
<text text-anchor="middle" x="1316.27" y="-717.809" font-family="Times,serif" font-size="14.00">32784</text>
</a>
</g>
</g>
<!-- 23355&#45;&gt;32784 -->
<g id="edge10" class="edge"><title>23355&#45;&gt;32784</title>
<path fill="none" stroke="black" d="M1527.78,-704.261C1481.13,-708.065 1395.51,-715.047 1348.79,-718.857"/>
</g>
<!-- 23421 -->
<g id="node38" class="node"><title>23421</title>
<g id="a_node38"><a xlink:title="6th_week">
<ellipse fill="#ff9f0f" stroke="black" cx="917.77" cy="-945.104" rx="32.4942" ry="18"/>
<text text-anchor="middle" x="917.77" y="-941.404" font-family="Times,serif" font-size="14.00">23421</text>
</a>
</g>
</g>
<!-- 23421&#45;&gt;24571 -->
<g id="edge42" class="edge"><title>23421&#45;&gt;24571</title>
<path fill="none" stroke="black" d="M926.237,-927.478C944.344,-889.787 986.648,-801.731 1004.74,-764.075"/>
</g>
<!-- 24160 -->
<g id="node39" class="node"><title>24160</title>
<g id="a_node39"><a xlink:title="6th_week">
<ellipse fill="#efff05" stroke="black" cx="596.609" cy="-476.913" rx="32.4942" ry="18"/>
<text text-anchor="middle" x="596.609" y="-473.213" font-family="Times,serif" font-size="14.00">24160</text>
</a>
</g>
</g>
<!-- 24524 -->
<g id="node43" class="node"><title>24524</title>
<g id="a_node43"><a xlink:title="6th_week">
<ellipse fill="grey" stroke="black" cx="778.058" cy="-597.856" rx="32.4942" ry="18"/>
<text text-anchor="middle" x="778.058" y="-594.156" font-family="Times,serif" font-size="14.00">24524</text>
</a>
</g>
</g>
<!-- 24160&#45;&gt;24524 -->
<g id="edge3" class="edge"><title>24160&#45;&gt;24524</title>
<path fill="none" stroke="black" d="M617.424,-490.787C652.332,-514.054 722.276,-560.675 757.207,-583.959"/>
</g>
<!-- 24412 -->
<g id="node41" class="node"><title>24412</title>
<g id="a_node41"><a xlink:title="6th_week">
<ellipse fill="#ff9f0f" stroke="black" cx="1207.33" cy="-639.971" rx="32.4942" ry="18"/>
<text text-anchor="middle" x="1207.33" y="-636.271" font-family="Times,serif" font-size="14.00">24412</text>
</a>
</g>
</g>
<!-- 24412&#45;&gt;24571 -->
<g id="edge25" class="edge"><title>24412&#45;&gt;24571</title>
<path fill="none" stroke="black" d="M1183.91,-652.82C1146.5,-673.348 1073.66,-713.308 1036.39,-733.761"/>
</g>
<!-- 24524&#45;&gt;24571 -->
<g id="edge57" class="edge"><title>24524&#45;&gt;24571</title>
<path fill="none" stroke="black" d="M799.757,-611.573C844.55,-639.888 946.792,-704.519 991.54,-732.805"/>
</g>
<!-- 25125 -->
<g id="node45" class="node"><title>25125</title>
<g id="a_node45"><a xlink:title="6th_week">
<ellipse fill="grey" stroke="black" cx="931.016" cy="-625.796" rx="32.4942" ry="18"/>
<text text-anchor="middle" x="931.016" y="-622.096" font-family="Times,serif" font-size="14.00">25125</text>
</a>
</g>
</g>
<!-- 24571&#45;&gt;25125 -->
<g id="edge26" class="edge"><title>24571&#45;&gt;25125</title>
<path fill="none" stroke="black" d="M1001.59,-729.453C985.928,-706.45 958.186,-665.704 942.556,-642.746"/>
</g>
<!-- 25262 -->
<g id="node46" class="node"><title>25262</title>
<g id="a_node46"><a xlink:title="6th_week">
<ellipse fill="#ffffff" stroke="black" cx="1066.62" cy="-949.234" rx="32.4942" ry="18"/>
<text text-anchor="middle" x="1066.62" y="-945.534" font-family="Times,serif" font-size="14.00">25262</text>
</a>
</g>
</g>
<!-- 24571&#45;&gt;25262 -->
<g id="edge7" class="edge"><title>24571&#45;&gt;25262</title>
<path fill="none" stroke="black" d="M1017.93,-764.481C1028.07,-802.956 1051.76,-892.844 1061.89,-931.282"/>
</g>
<!-- 25464 -->
<g id="node47" class="node"><title>25464</title>
<g id="a_node47"><a xlink:title="6th_week">
<ellipse fill="#ff9f0f" stroke="black" cx="1083.1" cy="-535.23" rx="32.4942" ry="18"/>
<text text-anchor="middle" x="1083.1" y="-531.53" font-family="Times,serif" font-size="14.00">25464</text>
</a>
</g>
</g>
<!-- 24571&#45;&gt;25464 -->
<g id="edge54" class="edge"><title>24571&#45;&gt;25464</title>
<path fill="none" stroke="black" d="M1019.15,-728.477C1032.36,-688.564 1063.96,-593.067 1077.16,-553.196"/>
</g>
<!-- 24571&#45;&gt;29549 -->
<g id="edge38" class="edge"><title>24571&#45;&gt;29549</title>
<path fill="none" stroke="black" d="M1028.39,-730.356C1068.79,-687.476 1178.52,-571.023 1219.04,-528.014"/>
</g>
<!-- 29560 -->
<g id="node52" class="node"><title>29560</title>
<g id="a_node52"><a xlink:title="6th_week">
<ellipse fill="#ff9f0f" stroke="black" cx="1126.76" cy="-636.957" rx="32.4942" ry="18"/>
<text text-anchor="middle" x="1126.76" y="-633.257" font-family="Times,serif" font-size="14.00">29560</text>
</a>
</g>
</g>
<!-- 24571&#45;&gt;29560 -->
<g id="edge32" class="edge"><title>24571&#45;&gt;29560</title>
<path fill="none" stroke="black" d="M1029.46,-730.796C1051.05,-709.974 1088.94,-673.428 1110.52,-652.621"/>
</g>
<!-- 24571&#45;&gt;30321 -->
<g id="edge5" class="edge"><title>24571&#45;&gt;30321</title>
<path fill="none" stroke="black" d="M992.245,-760.266C938.648,-795.524 796.955,-888.738 743.138,-924.141"/>
</g>
<!-- 31294 -->
<g id="node54" class="node"><title>31294</title>
<g id="a_node54"><a xlink:title="6th_week">
<ellipse fill="#ff9f0f" stroke="black" cx="826.654" cy="-730.655" rx="32.4942" ry="18"/>
<text text-anchor="middle" x="826.654" y="-726.955" font-family="Times,serif" font-size="14.00">31294</text>
</a>
</g>
</g>
<!-- 24571&#45;&gt;31294 -->
<g id="edge48" class="edge"><title>24571&#45;&gt;31294</title>
<path fill="none" stroke="black" d="M980.695,-743.731C946.563,-740.833 893.195,-736.303 859.085,-733.408"/>
</g>
<!-- 31592 -->
<g id="node55" class="node"><title>31592</title>
<g id="a_node55"><a xlink:title="6th_week">
<ellipse fill="#ff9f0f" stroke="black" cx="1288.1" cy="-917.416" rx="32.4942" ry="18"/>
<text text-anchor="middle" x="1288.1" y="-913.716" font-family="Times,serif" font-size="14.00">31592</text>
</a>
</g>
</g>
<!-- 24571&#45;&gt;31592 -->
<g id="edge33" class="edge"><title>24571&#45;&gt;31592</title>
<path fill="none" stroke="black" d="M1035.22,-760.188C1086.82,-792.271 1215.02,-871.976 1266.34,-903.889"/>
</g>
<!-- 31667 -->
<g id="node56" class="node"><title>31667</title>
<g id="a_node56"><a xlink:title="6th_week">
<ellipse fill="#ff9f0f" stroke="black" cx="1005.49" cy="-525.601" rx="32.4942" ry="18"/>
<text text-anchor="middle" x="1005.49" y="-521.901" font-family="Times,serif" font-size="14.00">31667</text>
</a>
</g>
</g>
<!-- 24571&#45;&gt;31667 -->
<g id="edge46" class="edge"><title>24571&#45;&gt;31667</title>
<path fill="none" stroke="black" d="M1012.56,-728.413C1011.11,-686.889 1007.57,-585.082 1006.12,-543.617"/>
</g>
<!-- 32277 -->
<g id="node57" class="node"><title>32277</title>
<g id="a_node57"><a xlink:title="6th_week">
<ellipse fill="#ff9f0f" stroke="black" cx="1210.9" cy="-693.135" rx="32.4942" ry="18"/>
<text text-anchor="middle" x="1210.9" y="-689.435" font-family="Times,serif" font-size="14.00">32277</text>
</a>
</g>
</g>
<!-- 24571&#45;&gt;32277 -->
<g id="edge30" class="edge"><title>24571&#45;&gt;32277</title>
<path fill="none" stroke="black" d="M1042.79,-738.501C1080.17,-728.414 1144.1,-711.162 1181.42,-701.09"/>
</g>
<!-- 24571&#45;&gt;32784 -->
<g id="edge31" class="edge"><title>24571&#45;&gt;32784</title>
<path fill="none" stroke="black" d="M1045.33,-743.839C1103.53,-739.043 1225.7,-728.973 1283.99,-724.169"/>
</g>
<!-- 33439 -->
<g id="node60" class="node"><title>33439</title>
<g id="a_node60"><a xlink:title="6th_week">
<ellipse fill="#ffffff" stroke="black" cx="1088.06" cy="-897.132" rx="32.4942" ry="18"/>
<text text-anchor="middle" x="1088.06" y="-893.432" font-family="Times,serif" font-size="14.00">33439</text>
</a>
</g>
</g>
<!-- 24571&#45;&gt;33439 -->
<g id="edge43" class="edge"><title>24571&#45;&gt;33439</title>
<path fill="none" stroke="black" d="M1021.92,-764.064C1036.35,-793.092 1064.99,-850.715 1079.38,-879.669"/>
</g>
<!-- 25634 -->
<g id="node48" class="node"><title>25634</title>
<g id="a_node48"><a xlink:title="6th_week">
<ellipse fill="grey" stroke="black" cx="1441.04" cy="-1060.65" rx="32.4942" ry="18"/>
<text text-anchor="middle" x="1441.04" y="-1056.95" font-family="Times,serif" font-size="14.00">25634</text>
</a>
</g>
</g>
<!-- 25634&#45;&gt;31592 -->
<g id="edge41" class="edge"><title>25634&#45;&gt;31592</title>
<path fill="none" stroke="black" d="M1424.39,-1045.05C1394.97,-1017.5 1334.14,-960.537 1304.74,-932.998"/>
</g>
<!-- 28737 -->
<g id="node50" class="node"><title>28737</title>
<g id="a_node50"><a xlink:title="6th_week">
<ellipse fill="grey" stroke="black" cx="1483.34" cy="-991.662" rx="32.4942" ry="18"/>
<text text-anchor="middle" x="1483.34" y="-987.962" font-family="Times,serif" font-size="14.00">28737</text>
</a>
</g>
</g>
<!-- 28737&#45;&gt;31592 -->
<g id="edge53" class="edge"><title>28737&#45;&gt;31592</title>
<path fill="none" stroke="black" d="M1456.19,-981.339C1418.89,-967.154 1352.2,-941.791 1315.02,-927.652"/>
</g>
</g>
</svg>
