<?xml version="1.0" encoding="UTF-8" standalone="no"?>
<!DOCTYPE svg PUBLIC "-//W3C//DTD SVG 1.1//EN"
 "http://www.w3.org/Graphics/SVG/1.1/DTD/svg11.dtd">
<!-- Generated by graphviz version 2.38.0 (20140413.2041)
 -->
<!-- Title: %3 Pages: 1 -->
<svg width="2933pt" height="3249pt"
 viewBox="0.00 0.00 2933.00 3249.00" xmlns="http://www.w3.org/2000/svg" xmlns:xlink="http://www.w3.org/1999/xlink">
<g id="graph0" class="graph" transform="scale(1 1) rotate(0) translate(4 3245)">
<title>%3</title>
<polygon fill="white" stroke="none" points="-4,4 -4,-3245 2929,-3245 2929,4 -4,4"/>
<!-- 376 -->
<g id="node1" class="node"><title>376</title>
<g id="a_node1"><a xlink:title="6th_week">
<ellipse fill="#20ff05" stroke="black" cx="2297.63" cy="-1202.1" rx="27" ry="18"/>
<text text-anchor="middle" x="2297.63" y="-1198.4" font-family="Times,serif" font-size="14.00">376</text>
</a>
</g>
</g>
<!-- 21026 -->
<g id="node40" class="node"><title>21026</title>
<g id="a_node40"><a xlink:title="6th_week">
<ellipse fill="#20ff05" stroke="black" cx="2557.66" cy="-1145.42" rx="32.4942" ry="18"/>
<text text-anchor="middle" x="2557.66" y="-1141.72" font-family="Times,serif" font-size="14.00">21026</text>
</a>
</g>
</g>
<!-- 376&#45;&gt;21026 -->
<g id="edge79" class="edge"><title>376&#45;&gt;21026</title>
<path fill="none" stroke="black" d="M2323.51,-1196.46C2371.82,-1185.93 2475.45,-1163.34 2527.1,-1152.08"/>
</g>
<!-- 24648 -->
<g id="node46" class="node"><title>24648</title>
<g id="a_node46"><a xlink:title="6th_week">
<ellipse fill="#20ff05" stroke="black" cx="1994.43" cy="-1273.47" rx="32.4942" ry="18"/>
<text text-anchor="middle" x="1994.43" y="-1269.77" font-family="Times,serif" font-size="14.00">24648</text>
</a>
</g>
</g>
<!-- 376&#45;&gt;24648 -->
<g id="edge73" class="edge"><title>376&#45;&gt;24648</title>
<path fill="none" stroke="black" d="M2272.04,-1208.12C2216.36,-1221.23 2084.43,-1252.29 2024.72,-1266.34"/>
</g>
<!-- 915 -->
<g id="node2" class="node"><title>915</title>
<g id="a_node2"><a xlink:title="6th_week">
<ellipse fill="grey" stroke="black" cx="1961.38" cy="-1022.86" rx="27" ry="18"/>
<text text-anchor="middle" x="1961.38" y="-1019.16" font-family="Times,serif" font-size="14.00">915</text>
</a>
</g>
</g>
<!-- 915&#45;&gt;24648 -->
<g id="edge15" class="edge"><title>915&#45;&gt;24648</title>
<path fill="none" stroke="black" d="M1963.75,-1040.89C1969.84,-1087.01 1985.92,-1208.96 1992.03,-1255.28"/>
</g>
<!-- 1188 -->
<g id="node3" class="node"><title>1188</title>
<g id="a_node3"><a xlink:title="6th_week">
<ellipse fill="#20ff05" stroke="black" cx="1978.45" cy="-863.04" rx="28.6953" ry="18"/>
<text text-anchor="middle" x="1978.45" y="-859.34" font-family="Times,serif" font-size="14.00">1188</text>
</a>
</g>
</g>
<!-- 1692 -->
<g id="node5" class="node"><title>1692</title>
<g id="a_node5"><a xlink:title="6th_week">
<ellipse fill="#20ff05" stroke="black" cx="2011.88" cy="-528.067" rx="28.6953" ry="18"/>
<text text-anchor="middle" x="2011.88" y="-524.367" font-family="Times,serif" font-size="14.00">1692</text>
</a>
</g>
</g>
<!-- 1188&#45;&gt;1692 -->
<g id="edge87" class="edge"><title>1188&#45;&gt;1692</title>
<path fill="none" stroke="black" d="M1980.25,-845.031C1986.05,-786.868 2004.26,-604.455 2010.08,-546.166"/>
</g>
<!-- 19550 -->
<g id="node35" class="node"><title>19550</title>
<g id="a_node35"><a xlink:title="6th_week">
<ellipse fill="#20ff05" stroke="black" cx="1935.48" cy="-612.264" rx="32.4942" ry="18"/>
<text text-anchor="middle" x="1935.48" y="-608.564" font-family="Times,serif" font-size="14.00">19550</text>
</a>
</g>
</g>
<!-- 1188&#45;&gt;19550 -->
<g id="edge92" class="edge"><title>1188&#45;&gt;19550</title>
<path fill="none" stroke="black" d="M1975.36,-845.005C1967.45,-798.847 1946.54,-676.82 1938.6,-630.473"/>
</g>
<!-- 1188&#45;&gt;24648 -->
<g id="edge88" class="edge"><title>1188&#45;&gt;24648</title>
<path fill="none" stroke="black" d="M1979.16,-881.206C1981.8,-949.001 1991.06,-1186.83 1993.71,-1255.05"/>
</g>
<!-- 1544 -->
<g id="node4" class="node"><title>1544</title>
<g id="a_node4"><a xlink:title="6th_week">
<ellipse fill="#20ff05" stroke="black" cx="2227.3" cy="-990.531" rx="28.6953" ry="18"/>
<text text-anchor="middle" x="2227.3" y="-986.831" font-family="Times,serif" font-size="14.00">1544</text>
</a>
</g>
</g>
<!-- 2849 -->
<g id="node6" class="node"><title>2849</title>
<g id="a_node6"><a xlink:title="6th_week">
<ellipse fill="#20ff05" stroke="black" cx="2368.45" cy="-769.617" rx="28.6953" ry="18"/>
<text text-anchor="middle" x="2368.45" y="-765.917" font-family="Times,serif" font-size="14.00">2849</text>
</a>
</g>
</g>
<!-- 1544&#45;&gt;2849 -->
<g id="edge72" class="edge"><title>1544&#45;&gt;2849</title>
<path fill="none" stroke="black" d="M2238.14,-973.563C2264.48,-932.341 2331.59,-827.309 2357.77,-786.34"/>
</g>
<!-- 1544&#45;&gt;24648 -->
<g id="edge12" class="edge"><title>1544&#45;&gt;24648</title>
<path fill="none" stroke="black" d="M2214.12,-1006.55C2173.32,-1056.12 2049.43,-1206.64 2008.05,-1256.92"/>
</g>
<!-- 26316 -->
<g id="node51" class="node"><title>26316</title>
<g id="a_node51"><a xlink:title="6th_week">
<ellipse fill="#ffffff" stroke="black" cx="2435.18" cy="-820.158" rx="32.4942" ry="18"/>
<text text-anchor="middle" x="2435.18" y="-816.458" font-family="Times,serif" font-size="14.00">26316</text>
</a>
</g>
</g>
<!-- 1544&#45;&gt;26316 -->
<g id="edge33" class="edge"><title>1544&#45;&gt;26316</title>
<path fill="none" stroke="black" d="M2245.03,-976.005C2284.11,-943.978 2377.33,-867.57 2416.91,-835.133"/>
</g>
<!-- 28307 -->
<g id="node56" class="node"><title>28307</title>
<g id="a_node56"><a xlink:title="6th_week">
<ellipse fill="grey" stroke="black" cx="2041.82" cy="-258.786" rx="32.4942" ry="18"/>
<text text-anchor="middle" x="2041.82" y="-255.086" font-family="Times,serif" font-size="14.00">28307</text>
</a>
</g>
</g>
<!-- 1692&#45;&gt;28307 -->
<g id="edge25" class="edge"><title>1692&#45;&gt;28307</title>
<path fill="none" stroke="black" d="M2013.89,-509.981C2019.35,-460.925 2034.38,-325.757 2039.82,-276.794"/>
</g>
<!-- 3423 -->
<g id="node7" class="node"><title>3423</title>
<g id="a_node7"><a xlink:title="6th_week">
<ellipse fill="grey" stroke="black" cx="2085.49" cy="-1500.41" rx="28.6953" ry="18"/>
<text text-anchor="middle" x="2085.49" y="-1496.71" font-family="Times,serif" font-size="14.00">3423</text>
</a>
</g>
</g>
<!-- 3423&#45;&gt;24648 -->
<g id="edge44" class="edge"><title>3423&#45;&gt;24648</title>
<path fill="none" stroke="black" d="M2078.34,-1482.6C2061.32,-1440.18 2018.53,-1333.54 2001.54,-1291.2"/>
</g>
<!-- 3945 -->
<g id="node8" class="node"><title>3945</title>
<g id="a_node8"><a xlink:title="6th_week">
<ellipse fill="#20ff05" stroke="black" cx="1821.34" cy="-1079.7" rx="28.6953" ry="18"/>
<text text-anchor="middle" x="1821.34" y="-1076" font-family="Times,serif" font-size="14.00">3945</text>
</a>
</g>
</g>
<!-- 3945&#45;&gt;24648 -->
<g id="edge74" class="edge"><title>3945&#45;&gt;24648</title>
<path fill="none" stroke="black" d="M1835.51,-1095.56C1867.88,-1131.8 1947.03,-1220.41 1979.82,-1257.12"/>
</g>
<!-- 4248 -->
<g id="node9" class="node"><title>4248</title>
<g id="a_node9"><a xlink:title="6th_week">
<ellipse fill="#20ff05" stroke="black" cx="2186.28" cy="-1394.26" rx="28.6953" ry="18"/>
<text text-anchor="middle" x="2186.28" y="-1390.56" font-family="Times,serif" font-size="14.00">4248</text>
</a>
</g>
</g>
<!-- 4248&#45;&gt;24648 -->
<g id="edge22" class="edge"><title>4248&#45;&gt;24648</title>
<path fill="none" stroke="black" d="M2165.75,-1381.33C2129.21,-1358.33 2053.24,-1310.5 2015.98,-1287.04"/>
</g>
<!-- 4505 -->
<g id="node10" class="node"><title>4505</title>
<g id="a_node10"><a xlink:title="6th_week">
<ellipse fill="grey" stroke="black" cx="2002.53" cy="-1091.06" rx="28.6953" ry="18"/>
<text text-anchor="middle" x="2002.53" y="-1087.36" font-family="Times,serif" font-size="14.00">4505</text>
</a>
</g>
</g>
<!-- 4505&#45;&gt;24648 -->
<g id="edge86" class="edge"><title>4505&#45;&gt;24648</title>
<path fill="none" stroke="black" d="M2001.72,-1109.22C2000.17,-1144.18 1996.78,-1220.48 1995.23,-1255.39"/>
</g>
<!-- 5095 -->
<g id="node11" class="node"><title>5095</title>
<g id="a_node11"><a xlink:title="6th_week">
<ellipse fill="#20ff05" stroke="black" cx="2054.51" cy="-1595.3" rx="28.6953" ry="18"/>
<text text-anchor="middle" x="2054.51" y="-1591.6" font-family="Times,serif" font-size="14.00">5095</text>
</a>
</g>
</g>
<!-- 5095&#45;&gt;24648 -->
<g id="edge50" class="edge"><title>5095&#45;&gt;24648</title>
<path fill="none" stroke="black" d="M2051.11,-1577.07C2040.53,-1520.43 2008.32,-1347.87 1997.79,-1291.5"/>
</g>
<!-- 30250 -->
<g id="node59" class="node"><title>30250</title>
<g id="a_node59"><a xlink:title="6th_week">
<ellipse fill="#20ff05" stroke="black" cx="2121.64" cy="-1850.12" rx="32.4942" ry="18"/>
<text text-anchor="middle" x="2121.64" y="-1846.42" font-family="Times,serif" font-size="14.00">30250</text>
</a>
</g>
</g>
<!-- 5095&#45;&gt;30250 -->
<g id="edge28" class="edge"><title>5095&#45;&gt;30250</title>
<path fill="none" stroke="black" d="M2059.23,-1613.22C2071.56,-1660 2104.6,-1785.45 2116.92,-1832.22"/>
</g>
<!-- 5863 -->
<g id="node12" class="node"><title>5863</title>
<g id="a_node12"><a xlink:title="3rd_week">
<ellipse fill="#20ff05" stroke="black" cx="1450.41" cy="-1577.81" rx="28.6953" ry="18"/>
<text text-anchor="middle" x="1450.41" y="-1574.11" font-family="Times,serif" font-size="14.00">5863</text>
</a>
</g>
</g>
<!-- 5863&#45;&gt;24648 -->
<g id="edge85" class="edge"><title>5863&#45;&gt;24648</title>
<path fill="none" stroke="black" d="M1472.07,-1565.69C1559.02,-1517.05 1882.3,-1336.2 1971.5,-1286.3"/>
</g>
<!-- 22258 -->
<g id="node68" class="node"><title>22258</title>
<g id="a_node68"><a xlink:title="Day_0">
<ellipse fill="#20ff05" stroke="black" cx="916.145" cy="-1879.38" rx="32.4942" ry="18"/>
<text text-anchor="middle" x="916.145" y="-1875.68" font-family="Times,serif" font-size="14.00">22258</text>
</a>
</g>
</g>
<!-- 5863&#45;&gt;22258 -->
<g id="edge31" class="edge"><title>5863&#45;&gt;22258</title>
<path fill="none" stroke="black" d="M1428.8,-1590C1343,-1638.43 1026.75,-1816.94 938.911,-1866.53"/>
</g>
<!-- 5884 -->
<g id="node13" class="node"><title>5884</title>
<g id="a_node13"><a xlink:title="6th_week">
<ellipse fill="#20ff05" stroke="black" cx="2164.56" cy="-1548.07" rx="28.6953" ry="18"/>
<text text-anchor="middle" x="2164.56" y="-1544.37" font-family="Times,serif" font-size="14.00">5884</text>
</a>
</g>
</g>
<!-- 9473 -->
<g id="node20" class="node"><title>9473</title>
<g id="a_node20"><a xlink:title="6th_week">
<ellipse fill="#20ff05" stroke="black" cx="2316.84" cy="-1763.88" rx="28.6953" ry="18"/>
<text text-anchor="middle" x="2316.84" y="-1760.18" font-family="Times,serif" font-size="14.00">9473</text>
</a>
</g>
</g>
<!-- 5884&#45;&gt;9473 -->
<g id="edge75" class="edge"><title>5884&#45;&gt;9473</title>
<path fill="none" stroke="black" d="M2176.26,-1564.64C2204.6,-1604.81 2276.72,-1707.02 2305.11,-1747.25"/>
</g>
<!-- 5884&#45;&gt;24648 -->
<g id="edge21" class="edge"><title>5884&#45;&gt;24648</title>
<path fill="none" stroke="black" d="M2153.92,-1530.89C2123.37,-1481.58 2035.62,-1339.95 2005.07,-1290.64"/>
</g>
<!-- 6509 -->
<g id="node14" class="node"><title>6509</title>
<g id="a_node14"><a xlink:title="6th_week">
<ellipse fill="grey" stroke="black" cx="2668.52" cy="-1299.44" rx="28.6953" ry="18"/>
<text text-anchor="middle" x="2668.52" y="-1295.74" font-family="Times,serif" font-size="14.00">6509</text>
</a>
</g>
</g>
<!-- 7808 -->
<g id="node18" class="node"><title>7808</title>
<g id="a_node18"><a xlink:title="6th_week">
<ellipse fill="grey" stroke="black" cx="2896.63" cy="-1303.37" rx="28.6953" ry="18"/>
<text text-anchor="middle" x="2896.63" y="-1299.67" font-family="Times,serif" font-size="14.00">7808</text>
</a>
</g>
</g>
<!-- 6509&#45;&gt;7808 -->
<g id="edge43" class="edge"><title>6509&#45;&gt;7808</title>
<path fill="none" stroke="black" d="M2697.41,-1299.94C2741.29,-1300.69 2824.24,-1302.12 2867.98,-1302.87"/>
</g>
<!-- 20375 -->
<g id="node36" class="node"><title>20375</title>
<g id="a_node36"><a xlink:title="6th_week">
<ellipse fill="#20ff05" stroke="black" cx="2350.75" cy="-1288.89" rx="32.4942" ry="18"/>
<text text-anchor="middle" x="2350.75" y="-1285.19" font-family="Times,serif" font-size="14.00">20375</text>
</a>
</g>
</g>
<!-- 6509&#45;&gt;20375 -->
<g id="edge51" class="edge"><title>6509&#45;&gt;20375</title>
<path fill="none" stroke="black" d="M2639.76,-1298.49C2580.63,-1296.52 2445.77,-1292.05 2383.44,-1289.98"/>
</g>
<!-- 6775 -->
<g id="node15" class="node"><title>6775</title>
<g id="a_node15"><a xlink:title="6th_week">
<ellipse fill="#ffffff" stroke="black" cx="2509.21" cy="-983.58" rx="28.6953" ry="18"/>
<text text-anchor="middle" x="2509.21" y="-979.88" font-family="Times,serif" font-size="14.00">6775</text>
</a>
</g>
</g>
<!-- 12525 -->
<g id="node25" class="node"><title>12525</title>
<g id="a_node25"><a xlink:title="6th_week">
<ellipse fill="#20ff05" stroke="black" cx="2271.62" cy="-1109.17" rx="32.4942" ry="18"/>
<text text-anchor="middle" x="2271.62" y="-1105.47" font-family="Times,serif" font-size="14.00">12525</text>
</a>
</g>
</g>
<!-- 6775&#45;&gt;12525 -->
<g id="edge84" class="edge"><title>6775&#45;&gt;12525</title>
<path fill="none" stroke="black" d="M2487.29,-995.17C2442.6,-1018.79 2341.32,-1072.33 2295.24,-1096.69"/>
</g>
<!-- 7199 -->
<g id="node16" class="node"><title>7199</title>
<g id="a_node16"><a xlink:title="6th_week">
<ellipse fill="grey" stroke="black" cx="1842.96" cy="-1163.63" rx="28.6953" ry="18"/>
<text text-anchor="middle" x="1842.96" y="-1159.93" font-family="Times,serif" font-size="14.00">7199</text>
</a>
</g>
</g>
<!-- 7199&#45;&gt;24648 -->
<g id="edge55" class="edge"><title>7199&#45;&gt;24648</title>
<path fill="none" stroke="black" d="M1861.84,-1177.32C1890.55,-1198.14 1944.94,-1237.59 1974.35,-1258.91"/>
</g>
<!-- 7399 -->
<g id="node17" class="node"><title>7399</title>
<g id="a_node17"><a xlink:title="6th_week">
<ellipse fill="grey" stroke="black" cx="1904.63" cy="-1094.92" rx="28.6953" ry="18"/>
<text text-anchor="middle" x="1904.63" y="-1091.22" font-family="Times,serif" font-size="14.00">7399</text>
</a>
</g>
</g>
<!-- 7399&#45;&gt;24648 -->
<g id="edge10" class="edge"><title>7399&#45;&gt;24648</title>
<path fill="none" stroke="black" d="M1913.41,-1112.37C1930.57,-1146.5 1968.42,-1221.77 1985.62,-1255.96"/>
</g>
<!-- 8328 -->
<g id="node19" class="node"><title>8328</title>
<g id="a_node19"><a xlink:title="6th_week">
<ellipse fill="#20ff05" stroke="black" cx="1928.07" cy="-1472.12" rx="28.6953" ry="18"/>
<text text-anchor="middle" x="1928.07" y="-1468.42" font-family="Times,serif" font-size="14.00">8328</text>
</a>
</g>
</g>
<!-- 8328&#45;&gt;24648 -->
<g id="edge80" class="edge"><title>8328&#45;&gt;24648</title>
<path fill="none" stroke="black" d="M1933.96,-1454.5C1946.52,-1416.89 1975.82,-1329.17 1988.46,-1291.35"/>
</g>
<!-- 9525 -->
<g id="node21" class="node"><title>9525</title>
<g id="a_node21"><a xlink:title="6th_week">
<ellipse fill="#20ff05" stroke="black" cx="1811.29" cy="-1334.57" rx="28.6953" ry="18"/>
<text text-anchor="middle" x="1811.29" y="-1330.87" font-family="Times,serif" font-size="14.00">9525</text>
</a>
</g>
</g>
<!-- 9525&#45;&gt;24648 -->
<g id="edge24" class="edge"><title>9525&#45;&gt;24648</title>
<path fill="none" stroke="black" d="M1836.75,-1326.08C1870.86,-1314.7 1931.16,-1294.58 1966.48,-1282.8"/>
</g>
<!-- 10220 -->
<g id="node22" class="node"><title>10220</title>
<g id="a_node22"><a xlink:title="6th_week">
<ellipse fill="#20ff05" stroke="black" cx="2185.71" cy="-1190.19" rx="32.4942" ry="18"/>
<text text-anchor="middle" x="2185.71" y="-1186.49" font-family="Times,serif" font-size="14.00">10220</text>
</a>
</g>
</g>
<!-- 10220&#45;&gt;24648 -->
<g id="edge90" class="edge"><title>10220&#45;&gt;24648</title>
<path fill="none" stroke="black" d="M2159.91,-1201.42C2123.3,-1217.36 2056.67,-1246.37 2020.12,-1262.29"/>
</g>
<!-- 11882 -->
<g id="node23" class="node"><title>11882</title>
<g id="a_node23"><a xlink:title="6th_week">
<ellipse fill="grey" stroke="black" cx="2007.86" cy="-1524.41" rx="32.4942" ry="18"/>
<text text-anchor="middle" x="2007.86" y="-1520.71" font-family="Times,serif" font-size="14.00">11882</text>
</a>
</g>
</g>
<!-- 11882&#45;&gt;24648 -->
<g id="edge2" class="edge"><title>11882&#45;&gt;24648</title>
<path fill="none" stroke="black" d="M2006.9,-1506.36C2004.42,-1460.17 1997.89,-1338.07 1995.4,-1291.69"/>
</g>
<!-- 11929 -->
<g id="node24" class="node"><title>11929</title>
<g id="a_node24"><a xlink:title="6th_week">
<ellipse fill="grey" stroke="black" cx="2119.63" cy="-1063.27" rx="32.4942" ry="18"/>
<text text-anchor="middle" x="2119.63" y="-1059.57" font-family="Times,serif" font-size="14.00">11929</text>
</a>
</g>
</g>
<!-- 11929&#45;&gt;24648 -->
<g id="edge17" class="edge"><title>11929&#45;&gt;24648</title>
<path fill="none" stroke="black" d="M2109.39,-1080.47C2085.85,-1119.99 2028.14,-1216.87 2004.64,-1256.33"/>
</g>
<!-- 12525&#45;&gt;24648 -->
<g id="edge5" class="edge"><title>12525&#45;&gt;24648</title>
<path fill="none" stroke="black" d="M2249.4,-1122.34C2197.5,-1153.1 2068.75,-1229.42 2016.75,-1260.24"/>
</g>
<!-- 15062 -->
<g id="node26" class="node"><title>15062</title>
<g id="a_node26"><a xlink:title="6th_week">
<ellipse fill="#20ff05" stroke="black" cx="1888.04" cy="-1020.87" rx="32.4942" ry="18"/>
<text text-anchor="middle" x="1888.04" y="-1017.17" font-family="Times,serif" font-size="14.00">15062</text>
</a>
</g>
</g>
<!-- 15062&#45;&gt;24648 -->
<g id="edge63" class="edge"><title>15062&#45;&gt;24648</title>
<path fill="none" stroke="black" d="M1895.53,-1038.64C1915.06,-1085.01 1967.43,-1209.37 1986.96,-1255.73"/>
</g>
<!-- 15637 -->
<g id="node27" class="node"><title>15637</title>
<g id="a_node27"><a xlink:title="6th_week">
<ellipse fill="#20ff05" stroke="black" cx="1755.25" cy="-1127.86" rx="32.4942" ry="18"/>
<text text-anchor="middle" x="1755.25" y="-1124.16" font-family="Times,serif" font-size="14.00">15637</text>
</a>
</g>
</g>
<!-- 15637&#45;&gt;24648 -->
<g id="edge56" class="edge"><title>15637&#45;&gt;24648</title>
<path fill="none" stroke="black" d="M1777.32,-1141.3C1822.89,-1169.04 1926.89,-1232.36 1972.41,-1260.07"/>
</g>
<!-- 16223 -->
<g id="node28" class="node"><title>16223</title>
<g id="a_node28"><a xlink:title="6th_week">
<ellipse fill="#20ff05" stroke="black" cx="1870.98" cy="-1421.9" rx="32.4942" ry="18"/>
<text text-anchor="middle" x="1870.98" y="-1418.2" font-family="Times,serif" font-size="14.00">16223</text>
</a>
</g>
</g>
<!-- 16223&#45;&gt;24648 -->
<g id="edge11" class="edge"><title>16223&#45;&gt;24648</title>
<path fill="none" stroke="black" d="M1884.66,-1405.45C1908.39,-1376.92 1956.91,-1318.58 1980.68,-1290"/>
</g>
<!-- 16297 -->
<g id="node29" class="node"><title>16297</title>
<g id="a_node29"><a xlink:title="6th_week">
<ellipse fill="grey" stroke="black" cx="1648.95" cy="-791.539" rx="32.4942" ry="18"/>
<text text-anchor="middle" x="1648.95" y="-787.839" font-family="Times,serif" font-size="14.00">16297</text>
</a>
</g>
</g>
<!-- 31251 -->
<g id="node60" class="node"><title>31251</title>
<g id="a_node60"><a xlink:title="6th_week">
<ellipse fill="grey" stroke="black" cx="1788.35" cy="-994.634" rx="32.4942" ry="18"/>
<text text-anchor="middle" x="1788.35" y="-990.934" font-family="Times,serif" font-size="14.00">31251</text>
</a>
</g>
</g>
<!-- 16297&#45;&gt;31251 -->
<g id="edge8" class="edge"><title>16297&#45;&gt;31251</title>
<path fill="none" stroke="black" d="M1660.6,-808.505C1686.84,-846.735 1750.34,-939.254 1776.64,-977.573"/>
</g>
<!-- 16789 -->
<g id="node30" class="node"><title>16789</title>
<g id="a_node30"><a xlink:title="6th_week">
<ellipse fill="#20ff05" stroke="black" cx="1811.88" cy="-1237.76" rx="32.4942" ry="18"/>
<text text-anchor="middle" x="1811.88" y="-1234.06" font-family="Times,serif" font-size="14.00">16789</text>
</a>
</g>
</g>
<!-- 16789&#45;&gt;24648 -->
<g id="edge52" class="edge"><title>16789&#45;&gt;24648</title>
<path fill="none" stroke="black" d="M1842.84,-1243.82C1876.51,-1250.41 1930,-1260.87 1963.61,-1267.44"/>
</g>
<!-- 18182 -->
<g id="node31" class="node"><title>18182</title>
<g id="a_node31"><a xlink:title="6th_week">
<ellipse fill="#20ff05" stroke="black" cx="2245.4" cy="-1480.39" rx="32.4942" ry="18"/>
<text text-anchor="middle" x="2245.4" y="-1476.69" font-family="Times,serif" font-size="14.00">18182</text>
</a>
</g>
</g>
<!-- 23336 -->
<g id="node44" class="node"><title>23336</title>
<g id="a_node44"><a xlink:title="6th_week">
<ellipse fill="#20ff05" stroke="black" cx="2463.49" cy="-1646.51" rx="32.4942" ry="18"/>
<text text-anchor="middle" x="2463.49" y="-1642.81" font-family="Times,serif" font-size="14.00">23336</text>
</a>
</g>
</g>
<!-- 18182&#45;&gt;23336 -->
<g id="edge30" class="edge"><title>18182&#45;&gt;23336</title>
<path fill="none" stroke="black" d="M2264.75,-1495.13C2306.14,-1526.65 2402.83,-1600.3 2444.18,-1631.8"/>
</g>
<!-- 18182&#45;&gt;24648 -->
<g id="edge13" class="edge"><title>18182&#45;&gt;24648</title>
<path fill="none" stroke="black" d="M2226.94,-1465.17C2180.42,-1426.81 2058.76,-1326.51 2012.57,-1288.43"/>
</g>
<!-- 18374 -->
<g id="node32" class="node"><title>18374</title>
<g id="a_node32"><a xlink:title="6th_week">
<ellipse fill="#20ff05" stroke="black" cx="1850.24" cy="-1507.14" rx="32.4942" ry="18"/>
<text text-anchor="middle" x="1850.24" y="-1503.44" font-family="Times,serif" font-size="14.00">18374</text>
</a>
</g>
</g>
<!-- 18374&#45;&gt;24648 -->
<g id="edge71" class="edge"><title>18374&#45;&gt;24648</title>
<path fill="none" stroke="black" d="M1860.84,-1489.96C1887.5,-1446.75 1957.13,-1333.92 1983.81,-1290.68"/>
</g>
<!-- 19286 -->
<g id="node33" class="node"><title>19286</title>
<g id="a_node33"><a xlink:title="6th_week">
<ellipse fill="#20ff05" stroke="black" cx="2014.17" cy="-1451.42" rx="32.4942" ry="18"/>
<text text-anchor="middle" x="2014.17" y="-1447.72" font-family="Times,serif" font-size="14.00">19286</text>
</a>
</g>
</g>
<!-- 19286&#45;&gt;24648 -->
<g id="edge46" class="edge"><title>19286&#45;&gt;24648</title>
<path fill="none" stroke="black" d="M2012.17,-1433.38C2008.38,-1399.27 2000.22,-1325.71 1996.44,-1291.56"/>
</g>
<!-- 19299 -->
<g id="node34" class="node"><title>19299</title>
<g id="a_node34"><a xlink:title="6th_week">
<ellipse fill="#20ff05" stroke="black" cx="1757.79" cy="-1389.6" rx="32.4942" ry="18"/>
<text text-anchor="middle" x="1757.79" y="-1385.9" font-family="Times,serif" font-size="14.00">19299</text>
</a>
</g>
</g>
<!-- 19299&#45;&gt;24648 -->
<g id="edge76" class="edge"><title>19299&#45;&gt;24648</title>
<path fill="none" stroke="black" d="M1782.22,-1377.61C1827.57,-1355.36 1924.26,-1307.91 1969.77,-1285.57"/>
</g>
<!-- 20375&#45;&gt;24648 -->
<g id="edge62" class="edge"><title>20375&#45;&gt;24648</title>
<path fill="none" stroke="black" d="M2318.18,-1287.48C2250.41,-1284.55 2094.87,-1277.82 2027.05,-1274.88"/>
</g>
<!-- 20466 -->
<g id="node37" class="node"><title>20466</title>
<g id="a_node37"><a xlink:title="6th_week">
<ellipse fill="grey" stroke="black" cx="2293.66" cy="-1388.84" rx="32.4942" ry="18"/>
<text text-anchor="middle" x="2293.66" y="-1385.14" font-family="Times,serif" font-size="14.00">20466</text>
</a>
</g>
</g>
<!-- 20466&#45;&gt;24648 -->
<g id="edge1" class="edge"><title>20466&#45;&gt;24648</title>
<path fill="none" stroke="black" d="M2266.84,-1378.5C2210.04,-1356.6 2078.14,-1305.75 2021.29,-1283.83"/>
</g>
<!-- 24748 -->
<g id="node47" class="node"><title>24748</title>
<g id="a_node47"><a xlink:title="6th_week">
<ellipse fill="grey" stroke="black" cx="2549.32" cy="-1482.92" rx="32.4942" ry="18"/>
<text text-anchor="middle" x="2549.32" y="-1479.22" font-family="Times,serif" font-size="14.00">24748</text>
</a>
</g>
</g>
<!-- 20466&#45;&gt;24748 -->
<g id="edge26" class="edge"><title>20466&#45;&gt;24748</title>
<path fill="none" stroke="black" d="M2321.02,-1398.9C2370.23,-1417.01 2473.09,-1454.87 2522.16,-1472.92"/>
</g>
<!-- 20485 -->
<g id="node38" class="node"><title>20485</title>
<g id="a_node38"><a xlink:title="6th_week">
<ellipse fill="grey" stroke="black" cx="2150.76" cy="-1442.83" rx="32.4942" ry="18"/>
<text text-anchor="middle" x="2150.76" y="-1439.13" font-family="Times,serif" font-size="14.00">20485</text>
</a>
</g>
</g>
<!-- 20485&#45;&gt;24648 -->
<g id="edge49" class="edge"><title>20485&#45;&gt;24648</title>
<path fill="none" stroke="black" d="M2135.77,-1426.59C2105.89,-1394.22 2039.22,-1321.99 2009.37,-1289.66"/>
</g>
<!-- 20830 -->
<g id="node39" class="node"><title>20830</title>
<g id="a_node39"><a xlink:title="6th_week">
<ellipse fill="#20ff05" stroke="black" cx="2072.09" cy="-17.5717" rx="32.4942" ry="18"/>
<text text-anchor="middle" x="2072.09" y="-13.8717" font-family="Times,serif" font-size="14.00">20830</text>
</a>
</g>
</g>
<!-- 20830&#45;&gt;28307 -->
<g id="edge4" class="edge"><title>20830&#45;&gt;28307</title>
<path fill="none" stroke="black" d="M2069.81,-35.702C2064.19,-80.514 2049.69,-196.088 2044.08,-240.775"/>
</g>
<!-- 21536 -->
<g id="node41" class="node"><title>21536</title>
<g id="a_node41"><a xlink:title="6th_week">
<ellipse fill="#20ff05" stroke="black" cx="2167.72" cy="-705.526" rx="32.4942" ry="18"/>
<text text-anchor="middle" x="2167.72" y="-701.826" font-family="Times,serif" font-size="14.00">21536</text>
</a>
</g>
</g>
<!-- 25019 -->
<g id="node48" class="node"><title>25019</title>
<g id="a_node48"><a xlink:title="6th_week">
<ellipse fill="#20ff05" stroke="black" cx="2080.88" cy="-958.952" rx="32.4942" ry="18"/>
<text text-anchor="middle" x="2080.88" y="-955.252" font-family="Times,serif" font-size="14.00">25019</text>
</a>
</g>
</g>
<!-- 21536&#45;&gt;25019 -->
<g id="edge54" class="edge"><title>21536&#45;&gt;25019</title>
<path fill="none" stroke="black" d="M2161.61,-723.347C2145.67,-769.878 2102.91,-894.643 2086.98,-941.152"/>
</g>
<!-- 22657 -->
<g id="node42" class="node"><title>22657</title>
<g id="a_node42"><a xlink:title="6th_week">
<ellipse fill="grey" stroke="black" cx="2144.68" cy="-1338.51" rx="32.4942" ry="18"/>
<text text-anchor="middle" x="2144.68" y="-1334.81" font-family="Times,serif" font-size="14.00">22657</text>
</a>
</g>
</g>
<!-- 22657&#45;&gt;24648 -->
<g id="edge39" class="edge"><title>22657&#45;&gt;24648</title>
<path fill="none" stroke="black" d="M2118.85,-1327.33C2091.33,-1315.41 2048.01,-1296.66 2020.42,-1284.72"/>
</g>
<!-- 22688 -->
<g id="node43" class="node"><title>22688</title>
<g id="a_node43"><a xlink:title="6th_week">
<ellipse fill="#20ff05" stroke="black" cx="1724.32" cy="-1260.43" rx="32.4942" ry="18"/>
<text text-anchor="middle" x="1724.32" y="-1256.73" font-family="Times,serif" font-size="14.00">22688</text>
</a>
</g>
</g>
<!-- 22688&#45;&gt;24648 -->
<g id="edge35" class="edge"><title>22688&#45;&gt;24648</title>
<path fill="none" stroke="black" d="M1756.9,-1262C1808.82,-1264.51 1909.74,-1269.38 1961.73,-1271.89"/>
</g>
<!-- 24017 -->
<g id="node45" class="node"><title>24017</title>
<g id="a_node45"><a xlink:title="6th_week">
<ellipse fill="#20ff05" stroke="black" cx="2212.13" cy="-1250.95" rx="32.4942" ry="18"/>
<text text-anchor="middle" x="2212.13" y="-1247.25" font-family="Times,serif" font-size="14.00">24017</text>
</a>
</g>
</g>
<!-- 24017&#45;&gt;24648 -->
<g id="edge42" class="edge"><title>24017&#45;&gt;24648</title>
<path fill="none" stroke="black" d="M2180.01,-1254.27C2138.85,-1258.53 2067.91,-1265.87 2026.68,-1270.14"/>
</g>
<!-- 24648&#45;&gt;25019 -->
<g id="edge64" class="edge"><title>24648&#45;&gt;25019</title>
<path fill="none" stroke="black" d="M1999.32,-1255.66C2014.5,-1200.43 2060.68,-1032.45 2075.93,-976.958"/>
</g>
<!-- 25053 -->
<g id="node49" class="node"><title>25053</title>
<g id="a_node49"><a xlink:title="6th_week">
<ellipse fill="grey" stroke="black" cx="2096.37" cy="-1130.36" rx="32.4942" ry="18"/>
<text text-anchor="middle" x="2096.37" y="-1126.66" font-family="Times,serif" font-size="14.00">25053</text>
</a>
</g>
</g>
<!-- 24648&#45;&gt;25053 -->
<g id="edge57" class="edge"><title>24648&#45;&gt;25053</title>
<path fill="none" stroke="black" d="M2006.52,-1256.49C2026.14,-1228.95 2064.68,-1174.85 2084.29,-1147.32"/>
</g>
<!-- 25406 -->
<g id="node50" class="node"><title>25406</title>
<g id="a_node50"><a xlink:title="6th_week">
<ellipse fill="#20ff05" stroke="black" cx="1719.95" cy="-1326.05" rx="32.4942" ry="18"/>
<text text-anchor="middle" x="1719.95" y="-1322.35" font-family="Times,serif" font-size="14.00">25406</text>
</a>
</g>
</g>
<!-- 24648&#45;&gt;25406 -->
<g id="edge67" class="edge"><title>24648&#45;&gt;25406</title>
<path fill="none" stroke="black" d="M1963.48,-1279.4C1910.62,-1289.53 1803.57,-1310.03 1750.79,-1320.14"/>
</g>
<!-- 26739 -->
<g id="node52" class="node"><title>26739</title>
<g id="a_node52"><a xlink:title="6th_week">
<ellipse fill="#20ff05" stroke="black" cx="2173.15" cy="-1121.16" rx="32.4942" ry="18"/>
<text text-anchor="middle" x="2173.15" y="-1117.46" font-family="Times,serif" font-size="14.00">26739</text>
</a>
</g>
</g>
<!-- 24648&#45;&gt;26739 -->
<g id="edge3" class="edge"><title>24648&#45;&gt;26739</title>
<path fill="none" stroke="black" d="M2012.22,-1258.31C2046.47,-1229.12 2121.23,-1165.41 2155.43,-1136.26"/>
</g>
<!-- 27871 -->
<g id="node53" class="node"><title>27871</title>
<g id="a_node53"><a xlink:title="6th_week">
<ellipse fill="#20ff05" stroke="black" cx="1729.64" cy="-1188.2" rx="32.4942" ry="18"/>
<text text-anchor="middle" x="1729.64" y="-1184.5" font-family="Times,serif" font-size="14.00">27871</text>
</a>
</g>
</g>
<!-- 24648&#45;&gt;27871 -->
<g id="edge6" class="edge"><title>24648&#45;&gt;27871</title>
<path fill="none" stroke="black" d="M1966.09,-1264.35C1915.13,-1247.93 1808.59,-1213.63 1757.77,-1197.26"/>
</g>
<!-- 27999 -->
<g id="node54" class="node"><title>27999</title>
<g id="a_node54"><a xlink:title="6th_week">
<ellipse fill="#20ff05" stroke="black" cx="2041.71" cy="-1030.29" rx="32.4942" ry="18"/>
<text text-anchor="middle" x="2041.71" y="-1026.59" font-family="Times,serif" font-size="14.00">27999</text>
</a>
</g>
</g>
<!-- 24648&#45;&gt;27999 -->
<g id="edge40" class="edge"><title>24648&#45;&gt;27999</title>
<path fill="none" stroke="black" d="M1997.98,-1255.19C2006.77,-1210.02 2029.42,-1093.5 2038.18,-1048.45"/>
</g>
<!-- 28228 -->
<g id="node55" class="node"><title>28228</title>
<g id="a_node55"><a xlink:title="6th_week">
<ellipse fill="#20ff05" stroke="black" cx="1928.53" cy="-1538.46" rx="32.4942" ry="18"/>
<text text-anchor="middle" x="1928.53" y="-1534.76" font-family="Times,serif" font-size="14.00">28228</text>
</a>
</g>
</g>
<!-- 24648&#45;&gt;28228 -->
<g id="edge41" class="edge"><title>24648&#45;&gt;28228</title>
<path fill="none" stroke="black" d="M1989.9,-1291.69C1977.83,-1340.21 1945,-1472.2 1933,-1520.47"/>
</g>
<!-- 28397 -->
<g id="node57" class="node"><title>28397</title>
<g id="a_node57"><a xlink:title="6th_week">
<ellipse fill="#ffffff" stroke="black" cx="2220.23" cy="-1318.01" rx="32.4942" ry="18"/>
<text text-anchor="middle" x="2220.23" y="-1314.31" font-family="Times,serif" font-size="14.00">28397</text>
</a>
</g>
</g>
<!-- 24648&#45;&gt;28397 -->
<g id="edge83" class="edge"><title>24648&#45;&gt;28397</title>
<path fill="none" stroke="black" d="M2025.35,-1279.57C2068.47,-1288.08 2146.2,-1303.41 2189.32,-1311.91"/>
</g>
<!-- 28403 -->
<g id="node58" class="node"><title>28403</title>
<g id="a_node58"><a xlink:title="6th_week">
<ellipse fill="#20ff05" stroke="black" cx="1783.25" cy="-1450.73" rx="32.4942" ry="18"/>
<text text-anchor="middle" x="1783.25" y="-1447.03" font-family="Times,serif" font-size="14.00">28403</text>
</a>
</g>
</g>
<!-- 24648&#45;&gt;28403 -->
<g id="edge16" class="edge"><title>24648&#45;&gt;28403</title>
<path fill="none" stroke="black" d="M1976.42,-1288.59C1936.52,-1322.07 1841.06,-1402.2 1801.21,-1435.66"/>
</g>
<!-- 24648&#45;&gt;31251 -->
<g id="edge82" class="edge"><title>24648&#45;&gt;31251</title>
<path fill="none" stroke="black" d="M1981.85,-1256.45C1944.97,-1206.55 1837.44,-1061.05 1800.77,-1011.43"/>
</g>
<!-- 1890 -->
<g id="node61" class="node"><title>1890</title>
<g id="a_node61"><a xlink:title="Day_0">
<ellipse fill="#20ff05" stroke="black" cx="1000.31" cy="-2037.57" rx="28.6953" ry="18"/>
<text text-anchor="middle" x="1000.31" y="-2033.87" font-family="Times,serif" font-size="14.00">1890</text>
</a>
</g>
</g>
<!-- 1890&#45;&gt;22258 -->
<g id="edge29" class="edge"><title>1890&#45;&gt;22258</title>
<path fill="none" stroke="black" d="M991.139,-2020.34C975.035,-1990.07 941.833,-1927.66 925.557,-1897.07"/>
</g>
<!-- 3392 -->
<g id="node62" class="node"><title>3392</title>
<g id="a_node62"><a xlink:title="Day_0">
<ellipse fill="#20ff05" stroke="black" cx="781.807" cy="-1796.71" rx="28.6953" ry="18"/>
<text text-anchor="middle" x="781.807" y="-1793.01" font-family="Times,serif" font-size="14.00">3392</text>
</a>
</g>
</g>
<!-- 3392&#45;&gt;22258 -->
<g id="edge48" class="edge"><title>3392&#45;&gt;22258</title>
<path fill="none" stroke="black" d="M802.503,-1809.45C827.379,-1824.75 868.937,-1850.33 894.31,-1865.94"/>
</g>
<!-- 11070 -->
<g id="node63" class="node"><title>11070</title>
<g id="a_node63"><a xlink:title="Day_0">
<ellipse fill="grey" stroke="black" cx="469.234" cy="-1522.91" rx="32.4942" ry="18"/>
<text text-anchor="middle" x="469.234" y="-1519.21" font-family="Times,serif" font-size="14.00">11070</text>
</a>
</g>
</g>
<!-- 13263 -->
<g id="node65" class="node"><title>13263</title>
<g id="a_node65"><a xlink:title="Day_0">
<ellipse fill="#20ff05" stroke="black" cx="582.156" cy="-1679.55" rx="32.4942" ry="18"/>
<text text-anchor="middle" x="582.156" y="-1675.85" font-family="Times,serif" font-size="14.00">13263</text>
</a>
</g>
</g>
<!-- 11070&#45;&gt;13263 -->
<g id="edge89" class="edge"><title>11070&#45;&gt;13263</title>
<path fill="none" stroke="black" d="M481.319,-1539.67C502.939,-1569.66 548.012,-1632.19 569.816,-1662.43"/>
</g>
<!-- 11634 -->
<g id="node64" class="node"><title>11634</title>
<g id="a_node64"><a xlink:title="Day_0">
<ellipse fill="#20ff05" stroke="black" cx="900.555" cy="-2063.99" rx="32.4942" ry="18"/>
<text text-anchor="middle" x="900.555" y="-2060.29" font-family="Times,serif" font-size="14.00">11634</text>
</a>
</g>
</g>
<!-- 11634&#45;&gt;22258 -->
<g id="edge78" class="edge"><title>11634&#45;&gt;22258</title>
<path fill="none" stroke="black" d="M902.078,-2045.96C905.059,-2010.66 911.63,-1932.84 914.616,-1897.49"/>
</g>
<!-- 16058 -->
<g id="node66" class="node"><title>16058</title>
<g id="a_node66"><a xlink:title="Day_0">
<ellipse fill="#20ff05" stroke="black" cx="333.676" cy="-1650.26" rx="32.4942" ry="18"/>
<text text-anchor="middle" x="333.676" y="-1646.56" font-family="Times,serif" font-size="14.00">16058</text>
</a>
</g>
</g>
<!-- 13263&#45;&gt;16058 -->
<g id="edge81" class="edge"><title>13263&#45;&gt;16058</title>
<path fill="none" stroke="black" d="M550.181,-1675.78C502.469,-1670.16 413.169,-1659.63 365.529,-1654.01"/>
</g>
<!-- 17638 -->
<g id="node67" class="node"><title>17638</title>
<g id="a_node67"><a xlink:title="Day_0">
<ellipse fill="#20ff05" stroke="black" cx="507.284" cy="-1469.12" rx="32.4942" ry="18"/>
<text text-anchor="middle" x="507.284" y="-1465.42" font-family="Times,serif" font-size="14.00">17638</text>
</a>
</g>
</g>
<!-- 13263&#45;&gt;17638 -->
<g id="edge47" class="edge"><title>13263&#45;&gt;17638</title>
<path fill="none" stroke="black" d="M575.773,-1661.61C561.627,-1621.85 527.782,-1526.73 513.651,-1487.02"/>
</g>
<!-- 13263&#45;&gt;22258 -->
<g id="edge69" class="edge"><title>13263&#45;&gt;22258</title>
<path fill="none" stroke="black" d="M604.329,-1692.82C664.937,-1729.08 832.904,-1829.57 893.761,-1865.98"/>
</g>
<!-- 25140 -->
<g id="node69" class="node"><title>25140</title>
<g id="a_node69"><a xlink:title="Day_0">
<ellipse fill="#20ff05" stroke="black" cx="362.609" cy="-1590.11" rx="32.4942" ry="18"/>
<text text-anchor="middle" x="362.609" y="-1586.41" font-family="Times,serif" font-size="14.00">25140</text>
</a>
</g>
</g>
<!-- 13263&#45;&gt;25140 -->
<g id="edge66" class="edge"><title>13263&#45;&gt;25140</title>
<path fill="none" stroke="black" d="M555.674,-1668.76C513.362,-1651.53 430.999,-1617.97 388.844,-1600.8"/>
</g>
<!-- 31004 -->
<g id="node70" class="node"><title>31004</title>
<g id="a_node70"><a xlink:title="Day_0">
<ellipse fill="#20ff05" stroke="black" cx="378.826" cy="-1532.66" rx="32.4942" ry="18"/>
<text text-anchor="middle" x="378.826" y="-1528.96" font-family="Times,serif" font-size="14.00">31004</text>
</a>
</g>
</g>
<!-- 13263&#45;&gt;31004 -->
<g id="edge36" class="edge"><title>13263&#45;&gt;31004</title>
<path fill="none" stroke="black" d="M562.29,-1665.2C523.418,-1637.12 437.71,-1575.2 398.773,-1547.07"/>
</g>
<!-- 31201 -->
<g id="node71" class="node"><title>31201</title>
<g id="a_node71"><a xlink:title="Day_0">
<ellipse fill="#20ff05" stroke="black" cx="365.107" cy="-1718.17" rx="32.4942" ry="18"/>
<text text-anchor="middle" x="365.107" y="-1714.47" font-family="Times,serif" font-size="14.00">31201</text>
</a>
</g>
</g>
<!-- 13263&#45;&gt;31201 -->
<g id="edge45" class="edge"><title>13263&#45;&gt;31201</title>
<path fill="none" stroke="black" d="M551.058,-1685.09C509.797,-1692.43 437.379,-1705.31 396.147,-1712.65"/>
</g>
<!-- 6857 -->
<g id="node76" class="node"><title>6857</title>
<g id="a_node76"><a xlink:title="6th_week">
<ellipse fill="#20ff05" stroke="black" cx="800.123" cy="-1988.66" rx="28.6953" ry="18"/>
<text text-anchor="middle" x="800.123" y="-1984.96" font-family="Times,serif" font-size="14.00">6857</text>
</a>
</g>
</g>
<!-- 22258&#45;&gt;6857 -->
<g id="edge65" class="edge"><title>22258&#45;&gt;6857</title>
<path fill="none" stroke="black" d="M899.522,-1895.03C877.341,-1915.93 838.315,-1952.69 816.341,-1973.39"/>
</g>
<!-- 18974 -->
<g id="node85" class="node"><title>18974</title>
<g id="a_node85"><a xlink:title="Day_0">
<ellipse fill="#20ff05" stroke="black" cx="708.711" cy="-2287.69" rx="32.4942" ry="18"/>
<text text-anchor="middle" x="708.711" y="-2283.99" font-family="Times,serif" font-size="14.00">18974</text>
</a>
</g>
</g>
<!-- 22258&#45;&gt;18974 -->
<g id="edge20" class="edge"><title>22258&#45;&gt;18974</title>
<path fill="none" stroke="black" d="M907.232,-1896.92C873.189,-1963.93 751.577,-2203.31 717.591,-2270.21"/>
</g>
<!-- 28201 -->
<g id="node92" class="node"><title>28201</title>
<g id="a_node92"><a xlink:title="6th_week">
<ellipse fill="#20ff05" stroke="black" cx="554.801" cy="-2016.76" rx="32.4942" ry="18"/>
<text text-anchor="middle" x="554.801" y="-2013.06" font-family="Times,serif" font-size="14.00">28201</text>
</a>
</g>
</g>
<!-- 22258&#45;&gt;28201 -->
<g id="edge68" class="edge"><title>22258&#45;&gt;28201</title>
<path fill="none" stroke="black" d="M889.281,-1889.59C822.385,-1915.02 648.925,-1980.98 581.842,-2006.48"/>
</g>
<!-- 2360 -->
<g id="node72" class="node"><title>2360</title>
<g id="a_node72"><a xlink:title="6th_week">
<ellipse fill="grey" stroke="black" cx="342.815" cy="-2075.61" rx="28.6953" ry="18"/>
<text text-anchor="middle" x="342.815" y="-2071.91" font-family="Times,serif" font-size="14.00">2360</text>
</a>
</g>
</g>
<!-- 2360&#45;&gt;28201 -->
<g id="edge18" class="edge"><title>2360&#45;&gt;28201</title>
<path fill="none" stroke="black" d="M369.234,-2068.28C409.08,-2057.22 484.281,-2036.34 525.667,-2024.85"/>
</g>
<!-- 5109 -->
<g id="node73" class="node"><title>5109</title>
<g id="a_node73"><a xlink:title="Day_0">
<ellipse fill="#20ff05" stroke="black" cx="330.332" cy="-2812.56" rx="28.6953" ry="18"/>
<text text-anchor="middle" x="330.332" y="-2808.86" font-family="Times,serif" font-size="14.00">5109</text>
</a>
</g>
</g>
<!-- 26819 -->
<g id="node90" class="node"><title>26819</title>
<g id="a_node90"><a xlink:title="Day_0">
<ellipse fill="#20ff05" stroke="black" cx="467.171" cy="-2688.43" rx="32.4942" ry="18"/>
<text text-anchor="middle" x="467.171" y="-2684.73" font-family="Times,serif" font-size="14.00">26819</text>
</a>
</g>
</g>
<!-- 5109&#45;&gt;26819 -->
<g id="edge60" class="edge"><title>5109&#45;&gt;26819</title>
<path fill="none" stroke="black" d="M346.838,-2797.59C372.997,-2773.86 423.717,-2727.85 450.178,-2703.85"/>
</g>
<!-- 6084 -->
<g id="node74" class="node"><title>6084</title>
<g id="a_node74"><a xlink:title="Day_0">
<ellipse fill="#20ff05" stroke="black" cx="315.106" cy="-3222.81" rx="28.6953" ry="18"/>
<text text-anchor="middle" x="315.106" y="-3219.11" font-family="Times,serif" font-size="14.00">6084</text>
</a>
</g>
</g>
<!-- 19862 -->
<g id="node86" class="node"><title>19862</title>
<g id="a_node86"><a xlink:title="Day_0">
<ellipse fill="#20ff05" stroke="black" cx="328.495" cy="-2989.43" rx="32.4942" ry="18"/>
<text text-anchor="middle" x="328.495" y="-2985.73" font-family="Times,serif" font-size="14.00">19862</text>
</a>
</g>
</g>
<!-- 6084&#45;&gt;19862 -->
<g id="edge14" class="edge"><title>6084&#45;&gt;19862</title>
<path fill="none" stroke="black" d="M316.157,-3204.5C318.659,-3160.87 324.951,-3051.2 327.449,-3007.66"/>
</g>
<!-- 6639 -->
<g id="node75" class="node"><title>6639</title>
<g id="a_node75"><a xlink:title="6th_week">
<ellipse fill="#20ff05" stroke="black" cx="394.788" cy="-2167.88" rx="28.6953" ry="18"/>
<text text-anchor="middle" x="394.788" y="-2164.18" font-family="Times,serif" font-size="14.00">6639</text>
</a>
</g>
</g>
<!-- 6639&#45;&gt;28201 -->
<g id="edge53" class="edge"><title>6639&#45;&gt;28201</title>
<path fill="none" stroke="black" d="M410.715,-2152.83C441.07,-2124.17 506.941,-2061.96 537.979,-2032.65"/>
</g>
<!-- 6864 -->
<g id="node77" class="node"><title>6864</title>
<g id="a_node77"><a xlink:title="Day_0">
<ellipse fill="grey" stroke="black" cx="157.31" cy="-3150.26" rx="28.6953" ry="18"/>
<text text-anchor="middle" x="157.31" y="-3146.56" font-family="Times,serif" font-size="14.00">6864</text>
</a>
</g>
</g>
<!-- 6864&#45;&gt;19862 -->
<g id="edge38" class="edge"><title>6864&#45;&gt;19862</title>
<path fill="none" stroke="black" d="M173.415,-3135.13C205.875,-3104.64 278.864,-3036.06 311.805,-3005.12"/>
</g>
<!-- 7487 -->
<g id="node78" class="node"><title>7487</title>
<g id="a_node78"><a xlink:title="6th_week">
<ellipse fill="#20ff05" stroke="black" cx="371.718" cy="-1945.32" rx="28.6953" ry="18"/>
<text text-anchor="middle" x="371.718" y="-1941.62" font-family="Times,serif" font-size="14.00">7487</text>
</a>
</g>
</g>
<!-- 7487&#45;&gt;28201 -->
<g id="edge58" class="edge"><title>7487&#45;&gt;28201</title>
<path fill="none" stroke="black" d="M396.03,-1954.81C430.269,-1968.17 492.473,-1992.44 528.008,-2006.31"/>
</g>
<!-- 8608 -->
<g id="node79" class="node"><title>8608</title>
<g id="a_node79"><a xlink:title="Day_0">
<ellipse fill="#ffffff" stroke="black" cx="227.384" cy="-3203.97" rx="28.6953" ry="18"/>
<text text-anchor="middle" x="227.384" y="-3200.27" font-family="Times,serif" font-size="14.00">8608</text>
</a>
</g>
</g>
<!-- 8608&#45;&gt;19862 -->
<g id="edge23" class="edge"><title>8608&#45;&gt;19862</title>
<path fill="none" stroke="black" d="M235.658,-3186.42C254.665,-3146.09 301.267,-3047.21 320.248,-3006.93"/>
</g>
<!-- 9060 -->
<g id="node80" class="node"><title>9060</title>
<g id="a_node80"><a xlink:title="Day_0">
<ellipse fill="#20ff05" stroke="black" cx="403.454" cy="-2867.27" rx="28.6953" ry="18"/>
<text text-anchor="middle" x="403.454" y="-2863.57" font-family="Times,serif" font-size="14.00">9060</text>
</a>
</g>
</g>
<!-- 9060&#45;&gt;26819 -->
<g id="edge59" class="edge"><title>9060&#45;&gt;26819</title>
<path fill="none" stroke="black" d="M409.797,-2849.47C422.01,-2815.19 448.662,-2740.38 460.855,-2706.16"/>
</g>
<!-- 9336 -->
<g id="node81" class="node"><title>9336</title>
<g id="a_node81"><a xlink:title="6th_week">
<ellipse fill="#20ff05" stroke="black" cx="408.64" cy="-2105.64" rx="28.6953" ry="18"/>
<text text-anchor="middle" x="408.64" y="-2101.94" font-family="Times,serif" font-size="14.00">9336</text>
</a>
</g>
</g>
<!-- 9336&#45;&gt;28201 -->
<g id="edge9" class="edge"><title>9336&#45;&gt;28201</title>
<path fill="none" stroke="black" d="M429.272,-2093.1C456.656,-2076.44 504.806,-2047.16 532.843,-2030.11"/>
</g>
<!-- 9882 -->
<g id="node82" class="node"><title>9882</title>
<g id="a_node82"><a xlink:title="Day_0">
<ellipse fill="#20ff05" stroke="black" cx="28.1635" cy="-2925.71" rx="28.6953" ry="18"/>
<text text-anchor="middle" x="28.1635" y="-2922.01" font-family="Times,serif" font-size="14.00">9882</text>
</a>
</g>
</g>
<!-- 28035 -->
<g id="node91" class="node"><title>28035</title>
<g id="a_node91"><a xlink:title="Day_0">
<ellipse fill="#20ff05" stroke="black" cx="231.209" cy="-2811.52" rx="32.4942" ry="18"/>
<text text-anchor="middle" x="231.209" y="-2807.82" font-family="Times,serif" font-size="14.00">28035</text>
</a>
</g>
</g>
<!-- 9882&#45;&gt;28035 -->
<g id="edge91" class="edge"><title>9882&#45;&gt;28035</title>
<path fill="none" stroke="black" d="M49.5091,-2913.7C87.9965,-2892.06 168.692,-2846.68 208.295,-2824.4"/>
</g>
<!-- 14814 -->
<g id="node83" class="node"><title>14814</title>
<g id="a_node83"><a xlink:title="Day_0">
<ellipse fill="grey" stroke="black" cx="484.82" cy="-2894.59" rx="32.4942" ry="18"/>
<text text-anchor="middle" x="484.82" y="-2890.89" font-family="Times,serif" font-size="14.00">14814</text>
</a>
</g>
</g>
<!-- 14814&#45;&gt;26819 -->
<g id="edge70" class="edge"><title>14814&#45;&gt;26819</title>
<path fill="none" stroke="black" d="M483.254,-2876.3C479.905,-2837.17 472.08,-2745.77 468.734,-2706.69"/>
</g>
<!-- 14925 -->
<g id="node84" class="node"><title>14925</title>
<g id="a_node84"><a xlink:title="6th_week">
<ellipse fill="#20ff05" stroke="black" cx="484.333" cy="-2200.58" rx="32.4942" ry="18"/>
<text text-anchor="middle" x="484.333" y="-2196.88" font-family="Times,serif" font-size="14.00">14925</text>
</a>
</g>
</g>
<!-- 14925&#45;&gt;28201 -->
<g id="edge37" class="edge"><title>14925&#45;&gt;28201</title>
<path fill="none" stroke="black" d="M491.089,-2182.96C504.524,-2147.91 534.458,-2069.83 547.961,-2034.6"/>
</g>
<!-- 23272 -->
<g id="node88" class="node"><title>23272</title>
<g id="a_node88"><a xlink:title="Day_0">
<ellipse fill="#20ff05" stroke="black" cx="697.619" cy="-2493.92" rx="32.4942" ry="18"/>
<text text-anchor="middle" x="697.619" y="-2490.22" font-family="Times,serif" font-size="14.00">23272</text>
</a>
</g>
</g>
<!-- 18974&#45;&gt;23272 -->
<g id="edge77" class="edge"><title>18974&#45;&gt;23272</title>
<path fill="none" stroke="black" d="M707.726,-2305.99C705.622,-2345.13 700.704,-2436.56 698.601,-2475.66"/>
</g>
<!-- 18974&#45;&gt;26819 -->
<g id="edge19" class="edge"><title>18974&#45;&gt;26819</title>
<path fill="none" stroke="black" d="M698.332,-2304.91C658.692,-2370.68 517.086,-2605.62 477.511,-2671.28"/>
</g>
<!-- 19862&#45;&gt;26819 -->
<g id="edge34" class="edge"><title>19862&#45;&gt;26819</title>
<path fill="none" stroke="black" d="M336.55,-2971.95C361.06,-2918.75 434.554,-2759.23 459.094,-2705.96"/>
</g>
<!-- 19956 -->
<g id="node87" class="node"><title>19956</title>
<g id="a_node87"><a xlink:title="Day_0">
<ellipse fill="#20ff05" stroke="black" cx="270.675" cy="-2708.15" rx="32.4942" ry="18"/>
<text text-anchor="middle" x="270.675" y="-2704.45" font-family="Times,serif" font-size="14.00">19956</text>
</a>
</g>
</g>
<!-- 19956&#45;&gt;26819 -->
<g id="edge27" class="edge"><title>19956&#45;&gt;26819</title>
<path fill="none" stroke="black" d="M302.683,-2704.93C339.223,-2701.27 398.643,-2695.31 435.177,-2691.64"/>
</g>
<!-- 25152 -->
<g id="node89" class="node"><title>25152</title>
<g id="a_node89"><a xlink:title="6th_week">
<ellipse fill="#20ff05" stroke="black" cx="329.578" cy="-2004.69" rx="32.4942" ry="18"/>
<text text-anchor="middle" x="329.578" y="-2000.99" font-family="Times,serif" font-size="14.00">25152</text>
</a>
</g>
</g>
<!-- 25152&#45;&gt;28201 -->
<g id="edge61" class="edge"><title>25152&#45;&gt;28201</title>
<path fill="none" stroke="black" d="M362.327,-2006.44C405.15,-2008.74 479.716,-2012.74 522.378,-2015.02"/>
</g>
<!-- 26819&#45;&gt;28035 -->
<g id="edge7" class="edge"><title>26819&#45;&gt;28035</title>
<path fill="none" stroke="black" d="M443.248,-2700.91C398.022,-2724.5 300.47,-2775.39 255.196,-2799.01"/>
</g>
<!-- 28377 -->
<g id="node93" class="node"><title>28377</title>
<g id="a_node93"><a xlink:title="Day_0">
<ellipse fill="#20ff05" stroke="black" cx="564.009" cy="-2864.57" rx="32.4942" ry="18"/>
<text text-anchor="middle" x="564.009" y="-2860.87" font-family="Times,serif" font-size="14.00">28377</text>
</a>
</g>
</g>
<!-- 26819&#45;&gt;28377 -->
<g id="edge32" class="edge"><title>26819&#45;&gt;28377</title>
<path fill="none" stroke="black" d="M476.811,-2705.96C495.372,-2739.73 535.878,-2813.41 554.409,-2847.11"/>
</g>
</g>
</svg>
