<?xml version="1.0" encoding="UTF-8" standalone="no"?>
<!DOCTYPE svg PUBLIC "-//W3C//DTD SVG 1.1//EN"
 "http://www.w3.org/Graphics/SVG/1.1/DTD/svg11.dtd">
<!-- Generated by graphviz version 2.38.0 (20140413.2041)
 -->
<!-- Title: %3 Pages: 1 -->
<svg width="2234pt" height="1244pt"
 viewBox="0.00 0.00 2234.00 1244.00" xmlns="http://www.w3.org/2000/svg" xmlns:xlink="http://www.w3.org/1999/xlink">
<g id="graph0" class="graph" transform="scale(1 1) rotate(0) translate(4 1240)">
<title>%3</title>
<polygon fill="white" stroke="none" points="-4,4 -4,-1240 2230,-1240 2230,4 -4,4"/>
<!-- 34 -->
<g id="node1" class="node"><title>34</title>
<g id="a_node1"><a xlink:title="6th_week">
<ellipse fill="#efff05" stroke="black" cx="143.288" cy="-1092.65" rx="27" ry="18"/>
<text text-anchor="middle" x="143.288" y="-1088.95" font-family="Times,serif" font-size="14.00">34</text>
</a>
</g>
</g>
<!-- 35461 -->
<g id="node51" class="node"><title>35461</title>
<g id="a_node51"><a xlink:title="6th_week">
<ellipse fill="#efff05" stroke="black" cx="258.774" cy="-962.213" rx="32.4942" ry="18"/>
<text text-anchor="middle" x="258.774" y="-958.513" font-family="Times,serif" font-size="14.00">35461</text>
</a>
</g>
</g>
<!-- 34&#45;&gt;35461 -->
<g id="edge18" class="edge"><title>34&#45;&gt;35461</title>
<path fill="none" stroke="black" d="M157.218,-1076.92C179.295,-1051.98 222.1,-1003.63 244.432,-978.412"/>
</g>
<!-- 226 -->
<g id="node2" class="node"><title>226</title>
<g id="a_node2"><a xlink:title="6th_week">
<ellipse fill="grey" stroke="black" cx="1154.23" cy="-744.177" rx="27" ry="18"/>
<text text-anchor="middle" x="1154.23" y="-740.477" font-family="Times,serif" font-size="14.00">226</text>
</a>
</g>
</g>
<!-- 30462 -->
<g id="node49" class="node"><title>30462</title>
<g id="a_node49"><a xlink:title="6th_week">
<ellipse fill="#efff05" stroke="black" cx="1305.53" cy="-693.656" rx="32.4942" ry="18"/>
<text text-anchor="middle" x="1305.53" y="-689.956" font-family="Times,serif" font-size="14.00">30462</text>
</a>
</g>
</g>
<!-- 226&#45;&gt;30462 -->
<g id="edge4" class="edge"><title>226&#45;&gt;30462</title>
<path fill="none" stroke="black" d="M1178.54,-736.06C1205.6,-727.023 1249.27,-712.442 1277.68,-702.953"/>
</g>
<!-- 1304 -->
<g id="node3" class="node"><title>1304</title>
<g id="a_node3"><a xlink:title="6th_week">
<ellipse fill="#efff05" stroke="black" cx="2020.95" cy="-65.6701" rx="28.6953" ry="18"/>
<text text-anchor="middle" x="2020.95" y="-61.9701" font-family="Times,serif" font-size="14.00">1304</text>
</a>
</g>
</g>
<!-- 4215 -->
<g id="node6" class="node"><title>4215</title>
<g id="a_node6"><a xlink:title="6th_week">
<ellipse fill="#efff05" stroke="black" cx="1955.7" cy="-245.426" rx="28.6953" ry="18"/>
<text text-anchor="middle" x="1955.7" y="-241.726" font-family="Times,serif" font-size="14.00">4215</text>
</a>
</g>
</g>
<!-- 1304&#45;&gt;4215 -->
<g id="edge2" class="edge"><title>1304&#45;&gt;4215</title>
<path fill="none" stroke="black" d="M2014.58,-83.2332C2002.1,-117.598 1974.59,-193.369 1962.1,-227.792"/>
</g>
<!-- 2031 -->
<g id="node4" class="node"><title>2031</title>
<g id="a_node4"><a xlink:title="6th_week">
<ellipse fill="#efff05" stroke="black" cx="1102.64" cy="-802.765" rx="28.6953" ry="18"/>
<text text-anchor="middle" x="1102.64" y="-799.065" font-family="Times,serif" font-size="14.00">2031</text>
</a>
</g>
</g>
<!-- 2031&#45;&gt;30462 -->
<g id="edge14" class="edge"><title>2031&#45;&gt;30462</title>
<path fill="none" stroke="black" d="M1124.74,-790.88C1163.35,-770.113 1242.75,-727.414 1282.21,-706.195"/>
</g>
<!-- 3800 -->
<g id="node5" class="node"><title>3800</title>
<g id="a_node5"><a xlink:title="6th_week">
<ellipse fill="grey" stroke="black" cx="2159.21" cy="-311.333" rx="28.6953" ry="18"/>
<text text-anchor="middle" x="2159.21" y="-307.633" font-family="Times,serif" font-size="14.00">3800</text>
</a>
</g>
</g>
<!-- 3800&#45;&gt;4215 -->
<g id="edge15" class="edge"><title>3800&#45;&gt;4215</title>
<path fill="none" stroke="black" d="M2133.43,-302.985C2094.29,-290.308 2020.28,-266.342 1981.26,-253.705"/>
</g>
<!-- 11105 -->
<g id="node17" class="node"><title>11105</title>
<g id="a_node17"><a xlink:title="6th_week">
<ellipse fill="#efff05" stroke="black" cx="2095.14" cy="-46.1714" rx="32.4942" ry="18"/>
<text text-anchor="middle" x="2095.14" y="-42.4714" font-family="Times,serif" font-size="14.00">11105</text>
</a>
</g>
</g>
<!-- 4215&#45;&gt;11105 -->
<g id="edge20" class="edge"><title>4215&#45;&gt;11105</title>
<path fill="none" stroke="black" d="M1967.35,-228.78C1993.53,-191.367 2056.8,-100.956 2083.23,-63.192"/>
</g>
<!-- 13005 -->
<g id="node21" class="node"><title>13005</title>
<g id="a_node21"><a xlink:title="6th_week">
<ellipse fill="#efff05" stroke="black" cx="1972.81" cy="-17.6857" rx="32.4942" ry="18"/>
<text text-anchor="middle" x="1972.81" y="-13.9857" font-family="Times,serif" font-size="14.00">13005</text>
</a>
</g>
</g>
<!-- 4215&#45;&gt;13005 -->
<g id="edge39" class="edge"><title>4215&#45;&gt;13005</title>
<path fill="none" stroke="black" d="M1957.07,-227.174C1960.28,-184.426 1968.26,-78.2286 1971.46,-35.7084"/>
</g>
<!-- 14326 -->
<g id="node22" class="node"><title>14326</title>
<g id="a_node22"><a xlink:title="6th_week">
<ellipse fill="#efff05" stroke="black" cx="2181.42" cy="-182.2" rx="32.4942" ry="18"/>
<text text-anchor="middle" x="2181.42" y="-178.5" font-family="Times,serif" font-size="14.00">14326</text>
</a>
</g>
</g>
<!-- 4215&#45;&gt;14326 -->
<g id="edge38" class="edge"><title>4215&#45;&gt;14326</title>
<path fill="none" stroke="black" d="M1982.03,-238.049C2024.6,-226.127 2108.19,-202.711 2152.41,-190.326"/>
</g>
<!-- 16164 -->
<g id="node26" class="node"><title>16164</title>
<g id="a_node26"><a xlink:title="6th_week">
<ellipse fill="#efff05" stroke="black" cx="1895.34" cy="-65.6015" rx="32.4942" ry="18"/>
<text text-anchor="middle" x="1895.34" y="-61.9015" font-family="Times,serif" font-size="14.00">16164</text>
</a>
</g>
</g>
<!-- 4215&#45;&gt;16164 -->
<g id="edge1" class="edge"><title>4215&#45;&gt;16164</title>
<path fill="none" stroke="black" d="M1949.69,-227.526C1938.12,-193.057 1912.88,-117.84 1901.33,-83.4288"/>
</g>
<!-- 16196 -->
<g id="node27" class="node"><title>16196</title>
<g id="a_node27"><a xlink:title="6th_week">
<ellipse fill="#efff05" stroke="black" cx="2193.13" cy="-249.579" rx="32.4942" ry="18"/>
<text text-anchor="middle" x="2193.13" y="-245.879" font-family="Times,serif" font-size="14.00">16196</text>
</a>
</g>
</g>
<!-- 4215&#45;&gt;16196 -->
<g id="edge33" class="edge"><title>4215&#45;&gt;16196</title>
<path fill="none" stroke="black" d="M1984.34,-245.927C2028.74,-246.704 2113.92,-248.194 2160.59,-249.01"/>
</g>
<!-- 17646 -->
<g id="node30" class="node"><title>17646</title>
<g id="a_node30"><a xlink:title="6th_week">
<ellipse fill="#efff05" stroke="black" cx="2158.2" cy="-113.28" rx="32.4942" ry="18"/>
<text text-anchor="middle" x="2158.2" y="-109.58" font-family="Times,serif" font-size="14.00">17646</text>
</a>
</g>
</g>
<!-- 4215&#45;&gt;17646 -->
<g id="edge42" class="edge"><title>4215&#45;&gt;17646</title>
<path fill="none" stroke="black" d="M1975.85,-232.272C2014.27,-207.204 2097.63,-152.805 2136.91,-127.172"/>
</g>
<!-- 22678 -->
<g id="node37" class="node"><title>22678</title>
<g id="a_node37"><a xlink:title="6th_week">
<ellipse fill="#efff05" stroke="black" cx="1654.85" cy="-462.671" rx="32.4942" ry="18"/>
<text text-anchor="middle" x="1654.85" y="-458.971" font-family="Times,serif" font-size="14.00">22678</text>
</a>
</g>
</g>
<!-- 4215&#45;&gt;22678 -->
<g id="edge27" class="edge"><title>4215&#45;&gt;22678</title>
<path fill="none" stroke="black" d="M1936.88,-259.016C1883.24,-297.751 1729.89,-408.482 1674.84,-448.24"/>
</g>
<!-- 27587 -->
<g id="node43" class="node"><title>27587</title>
<g id="a_node43"><a xlink:title="6th_week">
<ellipse fill="#efff05" stroke="black" cx="2118.37" cy="-374.826" rx="32.4942" ry="18"/>
<text text-anchor="middle" x="2118.37" y="-371.126" font-family="Times,serif" font-size="14.00">27587</text>
</a>
</g>
</g>
<!-- 4215&#45;&gt;27587 -->
<g id="edge8" class="edge"><title>4215&#45;&gt;27587</title>
<path fill="none" stroke="black" d="M1973.73,-259.768C2004.83,-284.51 2068.26,-334.964 2099.76,-360.021"/>
</g>
<!-- 295 -->
<g id="node54" class="node"><title>295</title>
<g id="a_node54"><a xlink:title="6th_week">
<ellipse fill="grey" stroke="black" cx="2062.58" cy="-151.662" rx="27" ry="18"/>
<text text-anchor="middle" x="2062.58" y="-147.962" font-family="Times,serif" font-size="14.00">295</text>
</a>
</g>
</g>
<!-- 4215&#45;&gt;295 -->
<g id="edge21" class="edge"><title>4215&#45;&gt;295</title>
<path fill="none" stroke="black" d="M1972.4,-230.775C1992.48,-213.16 2025.97,-183.779 2045.99,-166.21"/>
</g>
<!-- 6024 -->
<g id="node7" class="node"><title>6024</title>
<g id="a_node7"><a xlink:title="6th_week">
<ellipse fill="#efff05" stroke="black" cx="1228.79" cy="-846.653" rx="28.6953" ry="18"/>
<text text-anchor="middle" x="1228.79" y="-842.953" font-family="Times,serif" font-size="14.00">6024</text>
</a>
</g>
</g>
<!-- 6024&#45;&gt;30462 -->
<g id="edge29" class="edge"><title>6024&#45;&gt;30462</title>
<path fill="none" stroke="black" d="M1237.45,-829.4C1252.18,-800.016 1281.99,-740.582 1296.79,-711.081"/>
</g>
<!-- 6133 -->
<g id="node8" class="node"><title>6133</title>
<g id="a_node8"><a xlink:title="6th_week">
<ellipse fill="grey" stroke="black" cx="1487.72" cy="-938.245" rx="28.6953" ry="18"/>
<text text-anchor="middle" x="1487.72" y="-934.545" font-family="Times,serif" font-size="14.00">6133</text>
</a>
</g>
</g>
<!-- 16824 -->
<g id="node28" class="node"><title>16824</title>
<g id="a_node28"><a xlink:title="6th_week">
<ellipse fill="grey" stroke="black" cx="1613.85" cy="-1110.32" rx="32.4942" ry="18"/>
<text text-anchor="middle" x="1613.85" y="-1106.62" font-family="Times,serif" font-size="14.00">16824</text>
</a>
</g>
</g>
<!-- 6133&#45;&gt;16824 -->
<g id="edge24" class="edge"><title>6133&#45;&gt;16824</title>
<path fill="none" stroke="black" d="M1499.82,-954.744C1523.86,-987.551 1577.44,-1060.65 1601.61,-1093.62"/>
</g>
<!-- 6133&#45;&gt;30462 -->
<g id="edge25" class="edge"><title>6133&#45;&gt;30462</title>
<path fill="none" stroke="black" d="M1475.49,-921.817C1442.38,-877.367 1351.28,-755.076 1317.95,-710.334"/>
</g>
<!-- 6751 -->
<g id="node9" class="node"><title>6751</title>
<g id="a_node9"><a xlink:title="6th_week">
<ellipse fill="#efff05" stroke="black" cx="1180.54" cy="-574.911" rx="28.6953" ry="18"/>
<text text-anchor="middle" x="1180.54" y="-571.211" font-family="Times,serif" font-size="14.00">6751</text>
</a>
</g>
</g>
<!-- 6751&#45;&gt;30462 -->
<g id="edge50" class="edge"><title>6751&#45;&gt;30462</title>
<path fill="none" stroke="black" d="M1196.37,-589.95C1220.15,-612.542 1264.87,-655.029 1289.03,-677.985"/>
</g>
<!-- 7542 -->
<g id="node10" class="node"><title>7542</title>
<g id="a_node10"><a xlink:title="6th_week">
<ellipse fill="#efff05" stroke="black" cx="243.09" cy="-1150.21" rx="28.6953" ry="18"/>
<text text-anchor="middle" x="243.09" y="-1146.51" font-family="Times,serif" font-size="14.00">7542</text>
</a>
</g>
</g>
<!-- 7542&#45;&gt;35461 -->
<g id="edge52" class="edge"><title>7542&#45;&gt;35461</title>
<path fill="none" stroke="black" d="M244.594,-1132.19C247.584,-1096.34 254.246,-1016.48 257.251,-980.461"/>
</g>
<!-- 7804 -->
<g id="node11" class="node"><title>7804</title>
<g id="a_node11"><a xlink:title="6th_week">
<ellipse fill="#efff05" stroke="black" cx="1297.19" cy="-897.184" rx="28.6953" ry="18"/>
<text text-anchor="middle" x="1297.19" y="-893.484" font-family="Times,serif" font-size="14.00">7804</text>
</a>
</g>
</g>
<!-- 7804&#45;&gt;30462 -->
<g id="edge32" class="edge"><title>7804&#45;&gt;30462</title>
<path fill="none" stroke="black" d="M1297.93,-879.123C1299.51,-840.5 1303.21,-750.264 1304.79,-711.677"/>
</g>
<!-- 8038 -->
<g id="node12" class="node"><title>8038</title>
<g id="a_node12"><a xlink:title="6th_week">
<ellipse fill="#efff05" stroke="black" cx="1118.02" cy="-651.361" rx="28.6953" ry="18"/>
<text text-anchor="middle" x="1118.02" y="-647.661" font-family="Times,serif" font-size="14.00">8038</text>
</a>
</g>
</g>
<!-- 8038&#45;&gt;30462 -->
<g id="edge22" class="edge"><title>8038&#45;&gt;30462</title>
<path fill="none" stroke="black" d="M1145.29,-657.511C1179.82,-665.301 1239.15,-678.684 1275.12,-686.796"/>
</g>
<!-- 8719 -->
<g id="node13" class="node"><title>8719</title>
<g id="a_node13"><a xlink:title="6th_week">
<ellipse fill="#efff05" stroke="black" cx="1463.72" cy="-763.704" rx="28.6953" ry="18"/>
<text text-anchor="middle" x="1463.72" y="-760.004" font-family="Times,serif" font-size="14.00">8719</text>
</a>
</g>
</g>
<!-- 8719&#45;&gt;30462 -->
<g id="edge12" class="edge"><title>8719&#45;&gt;30462</title>
<path fill="none" stroke="black" d="M1440.03,-753.217C1410.73,-740.241 1361.03,-718.233 1330.94,-704.911"/>
</g>
<!-- 8851 -->
<g id="node14" class="node"><title>8851</title>
<g id="a_node14"><a xlink:title="6th_week">
<ellipse fill="#ffffff" stroke="black" cx="80.4916" cy="-858.484" rx="28.6953" ry="18"/>
<text text-anchor="middle" x="80.4916" y="-854.784" font-family="Times,serif" font-size="14.00">8851</text>
</a>
</g>
</g>
<!-- 8851&#45;&gt;35461 -->
<g id="edge17" class="edge"><title>8851&#45;&gt;35461</title>
<path fill="none" stroke="black" d="M101.643,-870.791C135.494,-890.486 201.55,-928.918 236.249,-949.107"/>
</g>
<!-- 10744 -->
<g id="node15" class="node"><title>10744</title>
<g id="a_node15"><a xlink:title="6th_week">
<ellipse fill="#efff05" stroke="black" cx="1299.72" cy="-1002.16" rx="32.4942" ry="18"/>
<text text-anchor="middle" x="1299.72" y="-998.46" font-family="Times,serif" font-size="14.00">10744</text>
</a>
</g>
</g>
<!-- 24827 -->
<g id="node39" class="node"><title>24827</title>
<g id="a_node39"><a xlink:title="6th_week">
<ellipse fill="grey" stroke="black" cx="1297.16" cy="-1218.07" rx="32.4942" ry="18"/>
<text text-anchor="middle" x="1297.16" y="-1214.37" font-family="Times,serif" font-size="14.00">24827</text>
</a>
</g>
</g>
<!-- 10744&#45;&gt;24827 -->
<g id="edge45" class="edge"><title>10744&#45;&gt;24827</title>
<path fill="none" stroke="black" d="M1299.51,-1020.2C1299.02,-1060.84 1297.86,-1159.2 1297.37,-1199.93"/>
</g>
<!-- 10744&#45;&gt;30462 -->
<g id="edge37" class="edge"><title>10744&#45;&gt;30462</title>
<path fill="none" stroke="black" d="M1300.07,-983.785C1301.1,-928.915 1304.15,-766.678 1305.18,-711.934"/>
</g>
<!-- 10858 -->
<g id="node16" class="node"><title>10858</title>
<g id="a_node16"><a xlink:title="6th_week">
<ellipse fill="#efff05" stroke="black" cx="1541.89" cy="-719.251" rx="32.4942" ry="18"/>
<text text-anchor="middle" x="1541.89" y="-715.551" font-family="Times,serif" font-size="14.00">10858</text>
</a>
</g>
</g>
<!-- 10858&#45;&gt;30462 -->
<g id="edge36" class="edge"><title>10858&#45;&gt;30462</title>
<path fill="none" stroke="black" d="M1509.52,-715.746C1464.25,-710.844 1382.56,-701.997 1337.5,-697.119"/>
</g>
<!-- 11889 -->
<g id="node18" class="node"><title>11889</title>
<g id="a_node18"><a xlink:title="6th_week">
<ellipse fill="#efff05" stroke="black" cx="146.555" cy="-1163.31" rx="32.4942" ry="18"/>
<text text-anchor="middle" x="146.555" y="-1159.61" font-family="Times,serif" font-size="14.00">11889</text>
</a>
</g>
</g>
<!-- 11889&#45;&gt;35461 -->
<g id="edge19" class="edge"><title>11889&#45;&gt;35461</title>
<path fill="none" stroke="black" d="M156.318,-1145.82C177.594,-1107.69 227.931,-1017.48 249.114,-979.524"/>
</g>
<!-- 12189 -->
<g id="node19" class="node"><title>12189</title>
<g id="a_node19"><a xlink:title="6th_week">
<ellipse fill="#ffffff" stroke="black" cx="32.4581" cy="-994.109" rx="32.4942" ry="18"/>
<text text-anchor="middle" x="32.4581" y="-990.409" font-family="Times,serif" font-size="14.00">12189</text>
</a>
</g>
</g>
<!-- 12189&#45;&gt;35461 -->
<g id="edge53" class="edge"><title>12189&#45;&gt;35461</title>
<path fill="none" stroke="black" d="M64.4036,-989.607C107.536,-983.528 183.942,-972.759 226.991,-966.692"/>
</g>
<!-- 12769 -->
<g id="node20" class="node"><title>12769</title>
<g id="a_node20"><a xlink:title="6th_week">
<ellipse fill="#efff05" stroke="black" cx="1489.41" cy="-852.187" rx="32.4942" ry="18"/>
<text text-anchor="middle" x="1489.41" y="-848.487" font-family="Times,serif" font-size="14.00">12769</text>
</a>
</g>
</g>
<!-- 12769&#45;&gt;30462 -->
<g id="edge30" class="edge"><title>12769&#45;&gt;30462</title>
<path fill="none" stroke="black" d="M1471.78,-836.986C1436.63,-806.685 1358.21,-739.074 1323.1,-708.81"/>
</g>
<!-- 14759 -->
<g id="node23" class="node"><title>14759</title>
<g id="a_node23"><a xlink:title="6th_week">
<ellipse fill="grey" stroke="black" cx="1003.87" cy="-276.868" rx="32.4942" ry="18"/>
<text text-anchor="middle" x="1003.87" y="-273.168" font-family="Times,serif" font-size="14.00">14759</text>
</a>
</g>
</g>
<!-- 26725 -->
<g id="node40" class="node"><title>26725</title>
<g id="a_node40"><a xlink:title="6th_week">
<ellipse fill="grey" stroke="black" cx="1141.43" cy="-477.419" rx="32.4942" ry="18"/>
<text text-anchor="middle" x="1141.43" y="-473.719" font-family="Times,serif" font-size="14.00">26725</text>
</a>
</g>
</g>
<!-- 14759&#45;&gt;26725 -->
<g id="edge47" class="edge"><title>14759&#45;&gt;26725</title>
<path fill="none" stroke="black" d="M1015.6,-293.967C1041.59,-331.857 1103.77,-422.514 1129.73,-460.364"/>
</g>
<!-- 14915 -->
<g id="node24" class="node"><title>14915</title>
<g id="a_node24"><a xlink:title="6th_week">
<ellipse fill="#ffffff" stroke="black" cx="1076.86" cy="-714.76" rx="32.4942" ry="18"/>
<text text-anchor="middle" x="1076.86" y="-711.06" font-family="Times,serif" font-size="14.00">14915</text>
</a>
</g>
</g>
<!-- 14915&#45;&gt;30462 -->
<g id="edge28" class="edge"><title>14915&#45;&gt;30462</title>
<path fill="none" stroke="black" d="M1109.14,-711.781C1152.72,-707.759 1229.92,-700.634 1273.41,-696.619"/>
</g>
<!-- 15039 -->
<g id="node25" class="node"><title>15039</title>
<g id="a_node25"><a xlink:title="6th_week">
<ellipse fill="#efff05" stroke="black" cx="1485.54" cy="-601.894" rx="32.4942" ry="18"/>
<text text-anchor="middle" x="1485.54" y="-598.194" font-family="Times,serif" font-size="14.00">15039</text>
</a>
</g>
</g>
<!-- 15039&#45;&gt;30462 -->
<g id="edge6" class="edge"><title>15039&#45;&gt;30462</title>
<path fill="none" stroke="black" d="M1461.26,-614.269C1426.81,-631.831 1364.11,-663.795 1329.71,-681.33"/>
</g>
<!-- 17349 -->
<g id="node29" class="node"><title>17349</title>
<g id="a_node29"><a xlink:title="6th_week">
<ellipse fill="#efff05" stroke="black" cx="1370.16" cy="-934.384" rx="32.4942" ry="18"/>
<text text-anchor="middle" x="1370.16" y="-930.684" font-family="Times,serif" font-size="14.00">17349</text>
</a>
</g>
</g>
<!-- 17349&#45;&gt;30462 -->
<g id="edge5" class="edge"><title>17349&#45;&gt;30462</title>
<path fill="none" stroke="black" d="M1365.3,-916.29C1353.29,-871.569 1322.33,-756.228 1310.35,-711.631"/>
</g>
<!-- 18820 -->
<g id="node31" class="node"><title>18820</title>
<g id="a_node31"><a xlink:title="6th_week">
<ellipse fill="grey" stroke="black" cx="33.3811" cy="-920.173" rx="32.4942" ry="18"/>
<text text-anchor="middle" x="33.3811" y="-916.473" font-family="Times,serif" font-size="14.00">18820</text>
</a>
</g>
</g>
<!-- 18820&#45;&gt;35461 -->
<g id="edge11" class="edge"><title>18820&#45;&gt;35461</title>
<path fill="none" stroke="black" d="M64.2484,-925.93C107.29,-933.958 184.883,-948.431 227.918,-956.458"/>
</g>
<!-- 19075 -->
<g id="node32" class="node"><title>19075</title>
<g id="a_node32"><a xlink:title="6th_week">
<ellipse fill="#efff05" stroke="black" cx="1526.78" cy="-655.077" rx="32.4942" ry="18"/>
<text text-anchor="middle" x="1526.78" y="-651.377" font-family="Times,serif" font-size="14.00">19075</text>
</a>
</g>
</g>
<!-- 19075&#45;&gt;30462 -->
<g id="edge40" class="edge"><title>19075&#45;&gt;30462</title>
<path fill="none" stroke="black" d="M1495.55,-660.523C1453.38,-667.875 1378.68,-680.9 1336.6,-688.238"/>
</g>
<!-- 19260 -->
<g id="node33" class="node"><title>19260</title>
<g id="a_node33"><a xlink:title="6th_week">
<ellipse fill="#ffffff" stroke="black" cx="1305.42" cy="-512.247" rx="32.4942" ry="18"/>
<text text-anchor="middle" x="1305.42" y="-508.547" font-family="Times,serif" font-size="14.00">19260</text>
</a>
</g>
</g>
<!-- 19260&#45;&gt;30462 -->
<g id="edge9" class="edge"><title>19260&#45;&gt;30462</title>
<path fill="none" stroke="black" d="M1305.43,-530.304C1305.45,-564.987 1305.49,-640.566 1305.51,-675.402"/>
</g>
<!-- 21089 -->
<g id="node34" class="node"><title>21089</title>
<g id="a_node34"><a xlink:title="6th_week">
<ellipse fill="grey" stroke="black" cx="1411.14" cy="-876.288" rx="32.4942" ry="18"/>
<text text-anchor="middle" x="1411.14" y="-872.588" font-family="Times,serif" font-size="14.00">21089</text>
</a>
</g>
</g>
<!-- 21089&#45;&gt;30462 -->
<g id="edge16" class="edge"><title>21089&#45;&gt;30462</title>
<path fill="none" stroke="black" d="M1401.2,-859.107C1381.07,-824.298 1335.68,-745.806 1315.51,-710.925"/>
</g>
<!-- 21824 -->
<g id="node35" class="node"><title>21824</title>
<g id="a_node35"><a xlink:title="6th_week">
<ellipse fill="#efff05" stroke="black" cx="1384.39" cy="-485.605" rx="32.4942" ry="18"/>
<text text-anchor="middle" x="1384.39" y="-481.905" font-family="Times,serif" font-size="14.00">21824</text>
</a>
</g>
</g>
<!-- 21824&#45;&gt;30462 -->
<g id="edge46" class="edge"><title>21824&#45;&gt;30462</title>
<path fill="none" stroke="black" d="M1377.67,-503.344C1362.77,-542.65 1327.12,-636.697 1312.23,-675.962"/>
</g>
<!-- 22169 -->
<g id="node36" class="node"><title>22169</title>
<g id="a_node36"><a xlink:title="6th_week">
<ellipse fill="#efff05" stroke="black" cx="941.377" cy="-798.421" rx="32.4942" ry="18"/>
<text text-anchor="middle" x="941.377" y="-794.721" font-family="Times,serif" font-size="14.00">22169</text>
</a>
</g>
</g>
<!-- 28807 -->
<g id="node45" class="node"><title>28807</title>
<g id="a_node45"><a xlink:title="6th_week">
<ellipse fill="#efff05" stroke="black" cx="579.749" cy="-886.149" rx="32.4942" ry="18"/>
<text text-anchor="middle" x="579.749" y="-882.449" font-family="Times,serif" font-size="14.00">28807</text>
</a>
</g>
</g>
<!-- 22169&#45;&gt;28807 -->
<g id="edge44" class="edge"><title>22169&#45;&gt;28807</title>
<path fill="none" stroke="black" d="M911.476,-805.675C843.449,-822.178 677.745,-862.376 609.685,-878.887"/>
</g>
<!-- 22169&#45;&gt;30462 -->
<g id="edge34" class="edge"><title>22169&#45;&gt;30462</title>
<path fill="none" stroke="black" d="M970.255,-790.112C1038.38,-770.512 1208.51,-721.566 1276.64,-701.965"/>
</g>
<!-- 22678&#45;&gt;30462 -->
<g id="edge31" class="edge"><title>22678&#45;&gt;30462</title>
<path fill="none" stroke="black" d="M1633.79,-476.6C1571.54,-517.761 1388.9,-638.524 1326.62,-679.709"/>
</g>
<!-- 22804 -->
<g id="node38" class="node"><title>22804</title>
<g id="a_node38"><a xlink:title="6th_week">
<ellipse fill="#efff05" stroke="black" cx="1103.06" cy="-594.678" rx="32.4942" ry="18"/>
<text text-anchor="middle" x="1103.06" y="-590.978" font-family="Times,serif" font-size="14.00">22804</text>
</a>
</g>
</g>
<!-- 22804&#45;&gt;30462 -->
<g id="edge7" class="edge"><title>22804&#45;&gt;30462</title>
<path fill="none" stroke="black" d="M1127.48,-606.617C1166.39,-625.641 1242.05,-662.624 1281.02,-681.674"/>
</g>
<!-- 26725&#45;&gt;30462 -->
<g id="edge13" class="edge"><title>26725&#45;&gt;30462</title>
<path fill="none" stroke="black" d="M1154.04,-494.028C1184.58,-534.278 1262.29,-636.682 1292.88,-676.99"/>
</g>
<!-- 26740 -->
<g id="node41" class="node"><title>26740</title>
<g id="a_node41"><a xlink:title="6th_week">
<ellipse fill="#efff05" stroke="black" cx="1377.82" cy="-556.767" rx="32.4942" ry="18"/>
<text text-anchor="middle" x="1377.82" y="-553.067" font-family="Times,serif" font-size="14.00">26740</text>
</a>
</g>
</g>
<!-- 26740&#45;&gt;30462 -->
<g id="edge10" class="edge"><title>26740&#45;&gt;30462</title>
<path fill="none" stroke="black" d="M1368.66,-574.104C1354.83,-600.291 1328.75,-649.669 1314.83,-676.027"/>
</g>
<!-- 26790 -->
<g id="node42" class="node"><title>26790</title>
<g id="a_node42"><a xlink:title="6th_week">
<ellipse fill="#efff05" stroke="black" cx="1281.69" cy="-462.302" rx="32.4942" ry="18"/>
<text text-anchor="middle" x="1281.69" y="-458.602" font-family="Times,serif" font-size="14.00">26790</text>
</a>
</g>
</g>
<!-- 26790&#45;&gt;30462 -->
<g id="edge3" class="edge"><title>26790&#45;&gt;30462</title>
<path fill="none" stroke="black" d="M1283.56,-480.456C1288.02,-523.704 1299.22,-632.423 1303.66,-675.586"/>
</g>
<!-- 28619 -->
<g id="node44" class="node"><title>28619</title>
<g id="a_node44"><a xlink:title="6th_week">
<ellipse fill="#ffffff" stroke="black" cx="1215.16" cy="-931.805" rx="32.4942" ry="18"/>
<text text-anchor="middle" x="1215.16" y="-928.105" font-family="Times,serif" font-size="14.00">28619</text>
</a>
</g>
</g>
<!-- 28619&#45;&gt;30462 -->
<g id="edge26" class="edge"><title>28619&#45;&gt;30462</title>
<path fill="none" stroke="black" d="M1221.95,-913.905C1238.74,-869.662 1282.04,-755.557 1298.78,-711.438"/>
</g>
<!-- 28807&#45;&gt;35461 -->
<g id="edge49" class="edge"><title>28807&#45;&gt;35461</title>
<path fill="none" stroke="black" d="M549.84,-893.237C488.678,-907.731 349.92,-940.613 288.723,-955.115"/>
</g>
<!-- 28898 -->
<g id="node46" class="node"><title>28898</title>
<g id="a_node46"><a xlink:title="6th_week">
<ellipse fill="#efff05" stroke="black" cx="147.507" cy="-805.429" rx="32.4942" ry="18"/>
<text text-anchor="middle" x="147.507" y="-801.729" font-family="Times,serif" font-size="14.00">28898</text>
</a>
</g>
</g>
<!-- 28898&#45;&gt;35461 -->
<g id="edge23" class="edge"><title>28898&#45;&gt;35461</title>
<path fill="none" stroke="black" d="M159.415,-822.207C180.718,-852.226 225.13,-914.807 246.614,-945.079"/>
</g>
<!-- 29871 -->
<g id="node47" class="node"><title>29871</title>
<g id="a_node47"><a xlink:title="6th_week">
<ellipse fill="#efff05" stroke="black" cx="1130.24" cy="-864.987" rx="32.4942" ry="18"/>
<text text-anchor="middle" x="1130.24" y="-861.287" font-family="Times,serif" font-size="14.00">29871</text>
</a>
</g>
</g>
<!-- 29871&#45;&gt;30462 -->
<g id="edge41" class="edge"><title>29871&#45;&gt;30462</title>
<path fill="none" stroke="black" d="M1146.42,-849.176C1179.81,-816.536 1256.03,-742.035 1289.39,-709.429"/>
</g>
<!-- 30106 -->
<g id="node48" class="node"><title>30106</title>
<g id="a_node48"><a xlink:title="6th_week">
<ellipse fill="#efff05" stroke="black" cx="1215.68" cy="-512.207" rx="32.4942" ry="18"/>
<text text-anchor="middle" x="1215.68" y="-508.507" font-family="Times,serif" font-size="14.00">30106</text>
</a>
</g>
</g>
<!-- 30106&#45;&gt;30462 -->
<g id="edge35" class="edge"><title>30106&#45;&gt;30462</title>
<path fill="none" stroke="black" d="M1224.3,-529.605C1241.42,-564.199 1279.59,-641.276 1296.8,-676.044"/>
</g>
<!-- 36451 -->
<g id="node52" class="node"><title>36451</title>
<g id="a_node52"><a xlink:title="6th_week">
<ellipse fill="#07ffd1" stroke="black" cx="1458.79" cy="-539.208" rx="32.4942" ry="18"/>
<text text-anchor="middle" x="1458.79" y="-535.508" font-family="Times,serif" font-size="14.00">36451</text>
</a>
</g>
</g>
<!-- 30462&#45;&gt;36451 -->
<g id="edge43" class="edge"><title>30462&#45;&gt;36451</title>
<path fill="none" stroke="black" d="M1321.35,-677.709C1350.72,-648.113 1413.35,-585.004 1442.83,-555.299"/>
</g>
<!-- 36958 -->
<g id="node53" class="node"><title>36958</title>
<g id="a_node53"><a xlink:title="6th_week">
<ellipse fill="#efff05" stroke="black" cx="1540.7" cy="-793.905" rx="32.4942" ry="18"/>
<text text-anchor="middle" x="1540.7" y="-790.205" font-family="Times,serif" font-size="14.00">36958</text>
</a>
</g>
</g>
<!-- 30462&#45;&gt;36958 -->
<g id="edge51" class="edge"><title>30462&#45;&gt;36958</title>
<path fill="none" stroke="black" d="M1331.59,-704.767C1376.92,-724.088 1469.72,-763.648 1514.87,-782.897"/>
</g>
<!-- 34798 -->
<g id="node50" class="node"><title>34798</title>
<g id="a_node50"><a xlink:title="6th_week">
<ellipse fill="grey" stroke="black" cx="49.6631" cy="-1057.16" rx="32.4942" ry="18"/>
<text text-anchor="middle" x="49.6631" y="-1053.46" font-family="Times,serif" font-size="14.00">34798</text>
</a>
</g>
</g>
<!-- 34798&#45;&gt;35461 -->
<g id="edge48" class="edge"><title>34798&#45;&gt;35461</title>
<path fill="none" stroke="black" d="M74.8867,-1045.7C115.079,-1027.45 193.212,-991.98 233.46,-973.706"/>
</g>
</g>
</svg>
