<?xml version="1.0" encoding="UTF-8" standalone="no"?>
<!DOCTYPE svg PUBLIC "-//W3C//DTD SVG 1.1//EN"
 "http://www.w3.org/Graphics/SVG/1.1/DTD/svg11.dtd">
<!-- Generated by graphviz version 2.38.0 (20140413.2041)
 -->
<!-- Title: %3 Pages: 1 -->
<svg width="1887pt" height="1387pt"
 viewBox="0.00 0.00 1887.00 1387.00" xmlns="http://www.w3.org/2000/svg" xmlns:xlink="http://www.w3.org/1999/xlink">
<g id="graph0" class="graph" transform="scale(1 1) rotate(0) translate(4 1383)">
<title>%3</title>
<polygon fill="white" stroke="none" points="-4,4 -4,-1383 1883,-1383 1883,4 -4,4"/>
<!-- 26 -->
<g id="node1" class="node"><title>26</title>
<g id="a_node1"><a xlink:title="3rd_week">
<ellipse fill="#efff05" stroke="black" cx="1357.81" cy="-758.77" rx="27" ry="18"/>
<text text-anchor="middle" x="1357.81" y="-755.07" font-family="Times,serif" font-size="14.00">26</text>
</a>
</g>
</g>
<!-- 9878 -->
<g id="node17" class="node"><title>9878</title>
<g id="a_node17"><a xlink:title="3rd_week">
<ellipse fill="#efff05" stroke="black" cx="1229.68" cy="-645.152" rx="28.6953" ry="18"/>
<text text-anchor="middle" x="1229.68" y="-641.452" font-family="Times,serif" font-size="14.00">9878</text>
</a>
</g>
</g>
<!-- 26&#45;&gt;9878 -->
<g id="edge26" class="edge"><title>26&#45;&gt;9878</title>
<path fill="none" stroke="black" d="M1341.59,-744.38C1317.21,-722.764 1271.36,-682.111 1246.59,-660.146"/>
</g>
<!-- 1049 -->
<g id="node2" class="node"><title>1049</title>
<g id="a_node2"><a xlink:title="3rd_week">
<ellipse fill="#efff05" stroke="black" cx="1463.42" cy="-398.894" rx="28.6953" ry="18"/>
<text text-anchor="middle" x="1463.42" y="-395.194" font-family="Times,serif" font-size="14.00">1049</text>
</a>
</g>
</g>
<!-- 3464 -->
<g id="node8" class="node"><title>3464</title>
<g id="a_node8"><a xlink:title="3rd_week">
<ellipse fill="#efff05" stroke="black" cx="1605.74" cy="-174.039" rx="28.6953" ry="18"/>
<text text-anchor="middle" x="1605.74" y="-170.339" font-family="Times,serif" font-size="14.00">3464</text>
</a>
</g>
</g>
<!-- 1049&#45;&gt;3464 -->
<g id="edge58" class="edge"><title>1049&#45;&gt;3464</title>
<path fill="none" stroke="black" d="M1474.11,-381.994C1500.55,-340.221 1568.75,-232.485 1595.12,-190.829"/>
</g>
<!-- 1049&#45;&gt;9878 -->
<g id="edge4" class="edge"><title>1049&#45;&gt;9878</title>
<path fill="none" stroke="black" d="M1448.44,-414.674C1406.22,-459.153 1286.6,-585.186 1244.54,-629.504"/>
</g>
<!-- 33864 -->
<g id="node57" class="node"><title>33864</title>
<g id="a_node57"><a xlink:title="3rd_week">
<ellipse fill="#ff9f0f" stroke="black" cx="1680.42" cy="-236.667" rx="32.4942" ry="18"/>
<text text-anchor="middle" x="1680.42" y="-232.967" font-family="Times,serif" font-size="14.00">33864</text>
</a>
</g>
</g>
<!-- 1049&#45;&gt;33864 -->
<g id="edge8" class="edge"><title>1049&#45;&gt;33864</title>
<path fill="none" stroke="black" d="M1481.92,-385.063C1522.61,-354.644 1619.54,-282.178 1661.04,-251.159"/>
</g>
<!-- 1633 -->
<g id="node3" class="node"><title>1633</title>
<g id="a_node3"><a xlink:title="3rd_week">
<ellipse fill="#ffffff" stroke="black" cx="722.792" cy="-286.758" rx="28.6953" ry="18"/>
<text text-anchor="middle" x="722.792" y="-283.058" font-family="Times,serif" font-size="14.00">1633</text>
</a>
</g>
</g>
<!-- 10336 -->
<g id="node19" class="node"><title>10336</title>
<g id="a_node19"><a xlink:title="3rd_week">
<ellipse fill="#efff05" stroke="black" cx="916.023" cy="-473.666" rx="32.4942" ry="18"/>
<text text-anchor="middle" x="916.023" y="-469.966" font-family="Times,serif" font-size="14.00">10336</text>
</a>
</g>
</g>
<!-- 1633&#45;&gt;10336 -->
<g id="edge46" class="edge"><title>1633&#45;&gt;10336</title>
<path fill="none" stroke="black" d="M738.605,-302.053C774.749,-337.015 863.106,-422.481 899.719,-457.895"/>
</g>
<!-- 1771 -->
<g id="node4" class="node"><title>1771</title>
<g id="a_node4"><a xlink:title="3rd_week">
<ellipse fill="#efff05" stroke="black" cx="1372.03" cy="-568.274" rx="28.6953" ry="18"/>
<text text-anchor="middle" x="1372.03" y="-564.574" font-family="Times,serif" font-size="14.00">1771</text>
</a>
</g>
</g>
<!-- 1771&#45;&gt;9878 -->
<g id="edge56" class="edge"><title>1771&#45;&gt;9878</title>
<path fill="none" stroke="black" d="M1350.1,-580.118C1323.27,-594.607 1278.14,-618.983 1251.41,-633.421"/>
</g>
<!-- 2017 -->
<g id="node5" class="node"><title>2017</title>
<g id="a_node5"><a xlink:title="3rd_week">
<ellipse fill="#efff05" stroke="black" cx="1043.53" cy="-557.903" rx="28.6953" ry="18"/>
<text text-anchor="middle" x="1043.53" y="-554.203" font-family="Times,serif" font-size="14.00">2017</text>
</a>
</g>
</g>
<!-- 2017&#45;&gt;9878 -->
<g id="edge29" class="edge"><title>2017&#45;&gt;9878</title>
<path fill="none" stroke="black" d="M1066.73,-568.776C1102.5,-585.541 1170.71,-617.514 1206.48,-634.278"/>
</g>
<!-- 2210 -->
<g id="node6" class="node"><title>2210</title>
<g id="a_node6"><a xlink:title="3rd_week">
<ellipse fill="#efff05" stroke="black" cx="1306.59" cy="-467.949" rx="28.6953" ry="18"/>
<text text-anchor="middle" x="1306.59" y="-464.249" font-family="Times,serif" font-size="14.00">2210</text>
</a>
</g>
</g>
<!-- 2210&#45;&gt;9878 -->
<g id="edge40" class="edge"><title>2210&#45;&gt;9878</title>
<path fill="none" stroke="black" d="M1298.94,-485.588C1284.19,-519.554 1252.03,-593.675 1237.31,-627.584"/>
</g>
<!-- 3039 -->
<g id="node7" class="node"><title>3039</title>
<g id="a_node7"><a xlink:title="3rd_week">
<ellipse fill="#ffffff" stroke="black" cx="1817.04" cy="-461.001" rx="28.6953" ry="18"/>
<text text-anchor="middle" x="1817.04" y="-457.301" font-family="Times,serif" font-size="14.00">3039</text>
</a>
</g>
</g>
<!-- 11073 -->
<g id="node21" class="node"><title>11073</title>
<g id="a_node21"><a xlink:title="3rd_week">
<ellipse fill="#efff05" stroke="black" cx="1569.23" cy="-574.878" rx="32.4942" ry="18"/>
<text text-anchor="middle" x="1569.23" y="-571.178" font-family="Times,serif" font-size="14.00">11073</text>
</a>
</g>
</g>
<!-- 3039&#45;&gt;11073 -->
<g id="edge17" class="edge"><title>3039&#45;&gt;11073</title>
<path fill="none" stroke="black" d="M1793.72,-471.714C1747.1,-493.141 1642.7,-541.117 1594.51,-563.265"/>
</g>
<!-- 3525 -->
<g id="node9" class="node"><title>3525</title>
<g id="a_node9"><a xlink:title="3rd_week">
<ellipse fill="#efff05" stroke="black" cx="1047.96" cy="-678.255" rx="28.6953" ry="18"/>
<text text-anchor="middle" x="1047.96" y="-674.555" font-family="Times,serif" font-size="14.00">3525</text>
</a>
</g>
</g>
<!-- 3525&#45;&gt;9878 -->
<g id="edge30" class="edge"><title>3525&#45;&gt;9878</title>
<path fill="none" stroke="black" d="M1075.56,-673.228C1109.81,-666.988 1167.88,-656.409 1202.12,-650.172"/>
</g>
<!-- 5387 -->
<g id="node10" class="node"><title>5387</title>
<g id="a_node10"><a xlink:title="3rd_week">
<ellipse fill="#ffffff" stroke="black" cx="1143.62" cy="-18.9535" rx="28.6953" ry="18"/>
<text text-anchor="middle" x="1143.62" y="-15.2535" font-family="Times,serif" font-size="14.00">5387</text>
</a>
</g>
</g>
<!-- 29342 -->
<g id="node49" class="node"><title>29342</title>
<g id="a_node49"><a xlink:title="3rd_week">
<ellipse fill="#efff05" stroke="black" cx="1118.6" cy="-279.513" rx="32.4942" ry="18"/>
<text text-anchor="middle" x="1118.6" y="-275.813" font-family="Times,serif" font-size="14.00">29342</text>
</a>
</g>
</g>
<!-- 5387&#45;&gt;29342 -->
<g id="edge25" class="edge"><title>5387&#45;&gt;29342</title>
<path fill="none" stroke="black" d="M1141.86,-37.2755C1137.27,-85.1164 1124.95,-213.393 1120.36,-261.211"/>
</g>
<!-- 5723 -->
<g id="node11" class="node"><title>5723</title>
<g id="a_node11"><a xlink:title="3rd_week">
<ellipse fill="#efff05" stroke="black" cx="1311.5" cy="-879.608" rx="28.6953" ry="18"/>
<text text-anchor="middle" x="1311.5" y="-875.908" font-family="Times,serif" font-size="14.00">5723</text>
</a>
</g>
</g>
<!-- 5723&#45;&gt;9878 -->
<g id="edge34" class="edge"><title>5723&#45;&gt;9878</title>
<path fill="none" stroke="black" d="M1305.36,-861.986C1290.19,-818.536 1251.14,-706.643 1235.91,-662.979"/>
</g>
<!-- 5728 -->
<g id="node12" class="node"><title>5728</title>
<g id="a_node12"><a xlink:title="3rd_week">
<ellipse fill="#efff05" stroke="black" cx="259.095" cy="-934.001" rx="28.6953" ry="18"/>
<text text-anchor="middle" x="259.095" y="-930.301" font-family="Times,serif" font-size="14.00">5728</text>
</a>
</g>
</g>
<!-- 16247 -->
<g id="node29" class="node"><title>16247</title>
<g id="a_node29"><a xlink:title="3rd_week">
<ellipse fill="#efff05" stroke="black" cx="32.1364" cy="-996.737" rx="32.4942" ry="18"/>
<text text-anchor="middle" x="32.1364" y="-993.037" font-family="Times,serif" font-size="14.00">16247</text>
</a>
</g>
</g>
<!-- 5728&#45;&gt;16247 -->
<g id="edge9" class="edge"><title>5728&#45;&gt;16247</title>
<path fill="none" stroke="black" d="M232.615,-941.321C189.818,-953.151 105.763,-976.385 61.3046,-988.675"/>
</g>
<!-- 31322 -->
<g id="node53" class="node"><title>31322</title>
<g id="a_node53"><a xlink:title="3rd_week">
<ellipse fill="#efff05" stroke="black" cx="503.71" cy="-865.794" rx="32.4942" ry="18"/>
<text text-anchor="middle" x="503.71" y="-862.094" font-family="Times,serif" font-size="14.00">31322</text>
</a>
</g>
</g>
<!-- 5728&#45;&gt;31322 -->
<g id="edge20" class="edge"><title>5728&#45;&gt;31322</title>
<path fill="none" stroke="black" d="M285.273,-926.702C331.245,-913.883 426.166,-887.416 474.317,-873.989"/>
</g>
<!-- 5799 -->
<g id="node13" class="node"><title>5799</title>
<g id="a_node13"><a xlink:title="3rd_week">
<ellipse fill="#efff05" stroke="black" cx="1484.99" cy="-830.916" rx="28.6953" ry="18"/>
<text text-anchor="middle" x="1484.99" y="-827.216" font-family="Times,serif" font-size="14.00">5799</text>
</a>
</g>
</g>
<!-- 5799&#45;&gt;9878 -->
<g id="edge19" class="edge"><title>5799&#45;&gt;9878</title>
<path fill="none" stroke="black" d="M1466.21,-817.256C1419,-782.903 1295.73,-693.206 1248.48,-658.831"/>
</g>
<!-- 1833 -->
<g id="node59" class="node"><title>1833</title>
<g id="a_node59"><a xlink:title="3rd_week">
<ellipse fill="#20ff05" stroke="black" cx="1704.7" cy="-962.778" rx="28.6953" ry="18"/>
<text text-anchor="middle" x="1704.7" y="-959.078" font-family="Times,serif" font-size="14.00">1833</text>
</a>
</g>
</g>
<!-- 5799&#45;&gt;1833 -->
<g id="edge39" class="edge"><title>5799&#45;&gt;1833</title>
<path fill="none" stroke="black" d="M1506.05,-843.559C1548.05,-868.763 1641.76,-925 1683.7,-950.173"/>
</g>
<!-- 6108 -->
<g id="node14" class="node"><title>6108</title>
<g id="a_node14"><a xlink:title="3rd_week">
<ellipse fill="#ffffff" stroke="black" cx="976.268" cy="-62.6379" rx="28.6953" ry="18"/>
<text text-anchor="middle" x="976.268" y="-58.9379" font-family="Times,serif" font-size="14.00">6108</text>
</a>
</g>
</g>
<!-- 6108&#45;&gt;29342 -->
<g id="edge36" class="edge"><title>6108&#45;&gt;29342</title>
<path fill="none" stroke="black" d="M987.2,-79.2956C1013.63,-119.566 1080.77,-221.866 1107.44,-262.499"/>
</g>
<!-- 6953 -->
<g id="node15" class="node"><title>6953</title>
<g id="a_node15"><a xlink:title="3rd_week">
<ellipse fill="#ffffff" stroke="black" cx="1235.46" cy="-416.226" rx="28.6953" ry="18"/>
<text text-anchor="middle" x="1235.46" y="-412.526" font-family="Times,serif" font-size="14.00">6953</text>
</a>
</g>
</g>
<!-- 6953&#45;&gt;9878 -->
<g id="edge24" class="edge"><title>6953&#45;&gt;9878</title>
<path fill="none" stroke="black" d="M1234.99,-434.573C1233.91,-477.543 1231.22,-584.294 1230.14,-627.035"/>
</g>
<!-- 9844 -->
<g id="node16" class="node"><title>9844</title>
<g id="a_node16"><a xlink:title="3rd_week">
<ellipse fill="#efff05" stroke="black" cx="1311.45" cy="-356.791" rx="28.6953" ry="18"/>
<text text-anchor="middle" x="1311.45" y="-353.091" font-family="Times,serif" font-size="14.00">9844</text>
</a>
</g>
</g>
<!-- 9844&#45;&gt;9878 -->
<g id="edge18" class="edge"><title>9844&#45;&gt;9878</title>
<path fill="none" stroke="black" d="M1306.34,-374.829C1291.65,-426.615 1249.48,-575.343 1234.8,-627.12"/>
</g>
<!-- 31185 -->
<g id="node52" class="node"><title>31185</title>
<g id="a_node52"><a xlink:title="3rd_week">
<ellipse fill="#efff05" stroke="black" cx="1392.94" cy="-93.8956" rx="32.4942" ry="18"/>
<text text-anchor="middle" x="1392.94" y="-90.1956" font-family="Times,serif" font-size="14.00">31185</text>
</a>
</g>
</g>
<!-- 9844&#45;&gt;31185 -->
<g id="edge31" class="edge"><title>9844&#45;&gt;31185</title>
<path fill="none" stroke="black" d="M1317.05,-338.721C1331.98,-290.578 1372.57,-159.632 1387.41,-111.744"/>
</g>
<!-- 10221 -->
<g id="node18" class="node"><title>10221</title>
<g id="a_node18"><a xlink:title="3rd_week">
<ellipse fill="#efff05" stroke="black" cx="972.888" cy="-594.551" rx="32.4942" ry="18"/>
<text text-anchor="middle" x="972.888" y="-590.851" font-family="Times,serif" font-size="14.00">10221</text>
</a>
</g>
</g>
<!-- 9878&#45;&gt;10221 -->
<g id="edge44" class="edge"><title>9878&#45;&gt;10221</title>
<path fill="none" stroke="black" d="M1202.2,-639.737C1153.94,-630.227 1054.29,-610.592 1003.74,-600.631"/>
</g>
<!-- 9878&#45;&gt;10336 -->
<g id="edge45" class="edge"><title>9878&#45;&gt;10336</title>
<path fill="none" stroke="black" d="M1207.63,-633.093C1150.46,-601.836 997.856,-518.406 939.324,-486.405"/>
</g>
<!-- 10687 -->
<g id="node20" class="node"><title>10687</title>
<g id="a_node20"><a xlink:title="3rd_week">
<ellipse fill="#efff05" stroke="black" cx="1446.32" cy="-637.342" rx="32.4942" ry="18"/>
<text text-anchor="middle" x="1446.32" y="-633.642" font-family="Times,serif" font-size="14.00">10687</text>
</a>
</g>
</g>
<!-- 9878&#45;&gt;10687 -->
<g id="edge57" class="edge"><title>9878&#45;&gt;10687</title>
<path fill="none" stroke="black" d="M1258.45,-644.115C1298.62,-642.666 1371.32,-640.046 1413.53,-638.524"/>
</g>
<!-- 9878&#45;&gt;11073 -->
<g id="edge23" class="edge"><title>9878&#45;&gt;11073</title>
<path fill="none" stroke="black" d="M1256.9,-639.52C1319.37,-626.59 1472.75,-594.847 1538.5,-581.24"/>
</g>
<!-- 11353 -->
<g id="node23" class="node"><title>11353</title>
<g id="a_node23"><a xlink:title="3rd_week">
<ellipse fill="#efff05" stroke="black" cx="1162.75" cy="-1064.02" rx="32.4942" ry="18"/>
<text text-anchor="middle" x="1162.75" y="-1060.32" font-family="Times,serif" font-size="14.00">11353</text>
</a>
</g>
</g>
<!-- 9878&#45;&gt;11353 -->
<g id="edge5" class="edge"><title>9878&#45;&gt;11353</title>
<path fill="none" stroke="black" d="M1226.81,-663.15C1215.82,-731.894 1176.58,-977.464 1165.61,-1046.09"/>
</g>
<!-- 13140 -->
<g id="node24" class="node"><title>13140</title>
<g id="a_node24"><a xlink:title="3rd_week">
<ellipse fill="#efff05" stroke="black" cx="1054.08" cy="-867.428" rx="32.4942" ry="18"/>
<text text-anchor="middle" x="1054.08" y="-863.728" font-family="Times,serif" font-size="14.00">13140</text>
</a>
</g>
</g>
<!-- 9878&#45;&gt;13140 -->
<g id="edge52" class="edge"><title>9878&#45;&gt;13140</title>
<path fill="none" stroke="black" d="M1216.77,-661.496C1184.38,-702.502 1099.92,-809.405 1067.25,-850.757"/>
</g>
<!-- 13617 -->
<g id="node25" class="node"><title>13617</title>
<g id="a_node25"><a xlink:title="3rd_week">
<ellipse fill="#efff05" stroke="black" cx="1385.52" cy="-835.852" rx="32.4942" ry="18"/>
<text text-anchor="middle" x="1385.52" y="-832.152" font-family="Times,serif" font-size="14.00">13617</text>
</a>
</g>
</g>
<!-- 9878&#45;&gt;13617 -->
<g id="edge42" class="edge"><title>9878&#45;&gt;13617</title>
<path fill="none" stroke="black" d="M1242.97,-661.411C1272.34,-697.349 1342.51,-783.213 1372.05,-819.363"/>
</g>
<!-- 14761 -->
<g id="node26" class="node"><title>14761</title>
<g id="a_node26"><a xlink:title="3rd_week">
<ellipse fill="#efff05" stroke="black" cx="1532.79" cy="-721.958" rx="32.4942" ry="18"/>
<text text-anchor="middle" x="1532.79" y="-718.258" font-family="Times,serif" font-size="14.00">14761</text>
</a>
</g>
</g>
<!-- 9878&#45;&gt;14761 -->
<g id="edge51" class="edge"><title>9878&#45;&gt;14761</title>
<path fill="none" stroke="black" d="M1256.32,-651.9C1312.8,-666.213 1444.26,-699.523 1503.23,-714.467"/>
</g>
<!-- 15762 -->
<g id="node28" class="node"><title>15762</title>
<g id="a_node28"><a xlink:title="3rd_week">
<ellipse fill="#efff05" stroke="black" cx="1383.11" cy="-478.757" rx="32.4942" ry="18"/>
<text text-anchor="middle" x="1383.11" y="-475.057" font-family="Times,serif" font-size="14.00">15762</text>
</a>
</g>
</g>
<!-- 9878&#45;&gt;15762 -->
<g id="edge54" class="edge"><title>9878&#45;&gt;15762</title>
<path fill="none" stroke="black" d="M1244.12,-629.498C1273.21,-597.946 1338.63,-526.999 1368.15,-494.98"/>
</g>
<!-- 17075 -->
<g id="node30" class="node"><title>17075</title>
<g id="a_node30"><a xlink:title="3rd_week">
<ellipse fill="#efff05" stroke="black" cx="1204.07" cy="-467.73" rx="32.4942" ry="18"/>
<text text-anchor="middle" x="1204.07" y="-464.03" font-family="Times,serif" font-size="14.00">17075</text>
</a>
</g>
</g>
<!-- 9878&#45;&gt;17075 -->
<g id="edge3" class="edge"><title>9878&#45;&gt;17075</title>
<path fill="none" stroke="black" d="M1227.09,-627.163C1222.18,-593.158 1211.59,-519.808 1206.67,-485.766"/>
</g>
<!-- 17637 -->
<g id="node32" class="node"><title>17637</title>
<g id="a_node32"><a xlink:title="3rd_week">
<ellipse fill="grey" stroke="black" cx="1027.1" cy="-801.695" rx="32.4942" ry="18"/>
<text text-anchor="middle" x="1027.1" y="-797.995" font-family="Times,serif" font-size="14.00">17637</text>
</a>
</g>
</g>
<!-- 9878&#45;&gt;17637 -->
<g id="edge49" class="edge"><title>9878&#45;&gt;17637</title>
<path fill="none" stroke="black" d="M1211.35,-659.32C1173.07,-688.898 1085,-756.953 1046.13,-786.99"/>
</g>
<!-- 18882 -->
<g id="node34" class="node"><title>18882</title>
<g id="a_node34"><a xlink:title="3rd_week">
<ellipse fill="#efff05" stroke="black" cx="824.813" cy="-775.902" rx="32.4942" ry="18"/>
<text text-anchor="middle" x="824.813" y="-772.202" font-family="Times,serif" font-size="14.00">18882</text>
</a>
</g>
</g>
<!-- 9878&#45;&gt;18882 -->
<g id="edge13" class="edge"><title>9878&#45;&gt;18882</title>
<path fill="none" stroke="black" d="M1204.05,-653.43C1132,-676.698 928.055,-742.561 852.994,-766.801"/>
</g>
<!-- 18902 -->
<g id="node35" class="node"><title>18902</title>
<g id="a_node35"><a xlink:title="3rd_week">
<ellipse fill="#efff05" stroke="black" cx="1128.27" cy="-812.384" rx="32.4942" ry="18"/>
<text text-anchor="middle" x="1128.27" y="-808.684" font-family="Times,serif" font-size="14.00">18902</text>
</a>
</g>
</g>
<!-- 9878&#45;&gt;18902 -->
<g id="edge6" class="edge"><title>9878&#45;&gt;18902</title>
<path fill="none" stroke="black" d="M1219.4,-662.107C1200.07,-693.994 1158.47,-762.581 1138.88,-794.882"/>
</g>
<!-- 19596 -->
<g id="node37" class="node"><title>19596</title>
<g id="a_node37"><a xlink:title="3rd_week">
<ellipse fill="#efff05" stroke="black" cx="1441.15" cy="-551.171" rx="32.4942" ry="18"/>
<text text-anchor="middle" x="1441.15" y="-547.471" font-family="Times,serif" font-size="14.00">19596</text>
</a>
</g>
</g>
<!-- 9878&#45;&gt;19596 -->
<g id="edge53" class="edge"><title>9878&#45;&gt;19596</title>
<path fill="none" stroke="black" d="M1253.12,-634.735C1293.13,-616.957 1374.26,-580.899 1415.64,-562.51"/>
</g>
<!-- 20701 -->
<g id="node38" class="node"><title>20701</title>
<g id="a_node38"><a xlink:title="3rd_week">
<ellipse fill="grey" stroke="black" cx="1237.6" cy="-844.816" rx="32.4942" ry="18"/>
<text text-anchor="middle" x="1237.6" y="-841.116" font-family="Times,serif" font-size="14.00">20701</text>
</a>
</g>
</g>
<!-- 9878&#45;&gt;20701 -->
<g id="edge14" class="edge"><title>9878&#45;&gt;20701</title>
<path fill="none" stroke="black" d="M1230.4,-663.223C1231.9,-701.141 1235.37,-788.635 1236.88,-826.642"/>
</g>
<!-- 23164 -->
<g id="node42" class="node"><title>23164</title>
<g id="a_node42"><a xlink:title="3rd_week">
<ellipse fill="#efff05" stroke="black" cx="1219.32" cy="-916.803" rx="32.4942" ry="18"/>
<text text-anchor="middle" x="1219.32" y="-913.103" font-family="Times,serif" font-size="14.00">23164</text>
</a>
</g>
</g>
<!-- 9878&#45;&gt;23164 -->
<g id="edge11" class="edge"><title>9878&#45;&gt;23164</title>
<path fill="none" stroke="black" d="M1228.99,-663.397C1227.1,-712.885 1221.9,-849.243 1220.01,-898.637"/>
</g>
<!-- 23696 -->
<g id="node45" class="node"><title>23696</title>
<g id="a_node45"><a xlink:title="3rd_week">
<ellipse fill="#efff05" stroke="black" cx="1425.81" cy="-937.464" rx="32.4942" ry="18"/>
<text text-anchor="middle" x="1425.81" y="-933.764" font-family="Times,serif" font-size="14.00">23696</text>
</a>
</g>
</g>
<!-- 9878&#45;&gt;23696 -->
<g id="edge16" class="edge"><title>9878&#45;&gt;23696</title>
<path fill="none" stroke="black" d="M1241.08,-662.131C1275.74,-713.795 1379.68,-868.712 1414.39,-920.438"/>
</g>
<!-- 27605 -->
<g id="node47" class="node"><title>27605</title>
<g id="a_node47"><a xlink:title="3rd_week">
<ellipse fill="grey" stroke="black" cx="969.049" cy="-671.622" rx="32.4942" ry="18"/>
<text text-anchor="middle" x="969.049" y="-667.922" font-family="Times,serif" font-size="14.00">27605</text>
</a>
</g>
</g>
<!-- 9878&#45;&gt;27605 -->
<g id="edge43" class="edge"><title>9878&#45;&gt;27605</title>
<path fill="none" stroke="black" d="M1201.3,-648.035C1152.35,-653.006 1052.39,-663.157 1001.05,-668.372"/>
</g>
<!-- 28302 -->
<g id="node48" class="node"><title>28302</title>
<g id="a_node48"><a xlink:title="3rd_week">
<ellipse fill="#efff05" stroke="black" cx="1124.61" cy="-509.169" rx="32.4942" ry="18"/>
<text text-anchor="middle" x="1124.61" y="-505.469" font-family="Times,serif" font-size="14.00">28302</text>
</a>
</g>
</g>
<!-- 9878&#45;&gt;28302 -->
<g id="edge47" class="edge"><title>9878&#45;&gt;28302</title>
<path fill="none" stroke="black" d="M1217.01,-628.749C1196.92,-602.754 1157.97,-552.352 1137.66,-526.057"/>
</g>
<!-- 9878&#45;&gt;29342 -->
<g id="edge12" class="edge"><title>9878&#45;&gt;29342</title>
<path fill="none" stroke="black" d="M1224.25,-627.269C1205.39,-565.186 1142.87,-359.39 1124.03,-297.361"/>
</g>
<!-- 30944 -->
<g id="node51" class="node"><title>30944</title>
<g id="a_node51"><a xlink:title="3rd_week">
<ellipse fill="#efff05" stroke="black" cx="1131.81" cy="-900.403" rx="32.4942" ry="18"/>
<text text-anchor="middle" x="1131.81" y="-896.703" font-family="Times,serif" font-size="14.00">30944</text>
</a>
</g>
</g>
<!-- 9878&#45;&gt;30944 -->
<g id="edge41" class="edge"><title>9878&#45;&gt;30944</title>
<path fill="none" stroke="black" d="M1222.96,-662.696C1205.08,-709.326 1156.52,-835.965 1138.58,-882.735"/>
</g>
<!-- 31527 -->
<g id="node54" class="node"><title>31527</title>
<g id="a_node54"><a xlink:title="3rd_week">
<ellipse fill="#efff05" stroke="black" cx="981.298" cy="-749.809" rx="32.4942" ry="18"/>
<text text-anchor="middle" x="981.298" y="-746.109" font-family="Times,serif" font-size="14.00">31527</text>
</a>
</g>
</g>
<!-- 9878&#45;&gt;31527 -->
<g id="edge1" class="edge"><title>9878&#45;&gt;31527</title>
<path fill="none" stroke="black" d="M1205.87,-655.187C1159.12,-674.884 1055.7,-718.461 1007.27,-738.867"/>
</g>
<!-- 32515 -->
<g id="node55" class="node"><title>32515</title>
<g id="a_node55"><a xlink:title="3rd_week">
<ellipse fill="#efff05" stroke="black" cx="1029.54" cy="-461.698" rx="32.4942" ry="18"/>
<text text-anchor="middle" x="1029.54" y="-457.998" font-family="Times,serif" font-size="14.00">32515</text>
</a>
</g>
</g>
<!-- 9878&#45;&gt;32515 -->
<g id="edge27" class="edge"><title>9878&#45;&gt;32515</title>
<path fill="none" stroke="black" d="M1213.31,-630.139C1175.87,-595.824 1084.35,-511.937 1046.42,-477.178"/>
</g>
<!-- 33032 -->
<g id="node56" class="node"><title>33032</title>
<g id="a_node56"><a xlink:title="3rd_week">
<ellipse fill="#efff05" stroke="black" cx="1433.15" cy="-717.436" rx="32.4942" ry="18"/>
<text text-anchor="middle" x="1433.15" y="-713.736" font-family="Times,serif" font-size="14.00">33032</text>
</a>
</g>
</g>
<!-- 9878&#45;&gt;33032 -->
<g id="edge21" class="edge"><title>9878&#45;&gt;33032</title>
<path fill="none" stroke="black" d="M1254.63,-654.015C1292.94,-667.625 1365.97,-693.571 1405.72,-707.692"/>
</g>
<!-- 34688 -->
<g id="node58" class="node"><title>34688</title>
<g id="a_node58"><a xlink:title="3rd_week">
<ellipse fill="#efff05" stroke="black" cx="1119.12" cy="-425.34" rx="32.4942" ry="18"/>
<text text-anchor="middle" x="1119.12" y="-421.64" font-family="Times,serif" font-size="14.00">34688</text>
</a>
</g>
</g>
<!-- 9878&#45;&gt;34688 -->
<g id="edge48" class="edge"><title>9878&#45;&gt;34688</title>
<path fill="none" stroke="black" d="M1221.01,-627.903C1200.39,-586.914 1148.64,-484.026 1127.91,-442.812"/>
</g>
<!-- 22328 -->
<g id="node41" class="node"><title>22328</title>
<g id="a_node41"><a xlink:title="3rd_week">
<ellipse fill="#ffffff" stroke="black" cx="664.451" cy="-370.493" rx="32.4942" ry="18"/>
<text text-anchor="middle" x="664.451" y="-366.793" font-family="Times,serif" font-size="14.00">22328</text>
</a>
</g>
</g>
<!-- 10336&#45;&gt;22328 -->
<g id="edge22" class="edge"><title>10336&#45;&gt;22328</title>
<path fill="none" stroke="black" d="M889.576,-462.819C841.259,-443.004 739.254,-401.171 690.921,-381.349"/>
</g>
<!-- 17456 -->
<g id="node31" class="node"><title>17456</title>
<g id="a_node31"><a xlink:title="3rd_week">
<ellipse fill="#20ff05" stroke="black" cx="1846.09" cy="-555.55" rx="32.4942" ry="18"/>
<text text-anchor="middle" x="1846.09" y="-551.85" font-family="Times,serif" font-size="14.00">17456</text>
</a>
</g>
</g>
<!-- 11073&#45;&gt;17456 -->
<g id="edge37" class="edge"><title>11073&#45;&gt;17456</title>
<path fill="none" stroke="black" d="M1601.53,-572.623C1654.74,-568.909 1760.22,-561.545 1813.57,-557.821"/>
</g>
<!-- 11328 -->
<g id="node22" class="node"><title>11328</title>
<g id="a_node22"><a xlink:title="3rd_week">
<ellipse fill="#efff05" stroke="black" cx="612.297" cy="-921.039" rx="32.4942" ry="18"/>
<text text-anchor="middle" x="612.297" y="-917.339" font-family="Times,serif" font-size="14.00">11328</text>
</a>
</g>
</g>
<!-- 11328&#45;&gt;18882 -->
<g id="edge38" class="edge"><title>11328&#45;&gt;18882</title>
<path fill="none" stroke="black" d="M633.061,-906.859C673.793,-879.041 763.73,-817.618 804.277,-789.927"/>
</g>
<!-- 19073 -->
<g id="node36" class="node"><title>19073</title>
<g id="a_node36"><a xlink:title="3rd_week">
<ellipse fill="#efff05" stroke="black" cx="1167.2" cy="-1343.89" rx="32.4942" ry="18"/>
<text text-anchor="middle" x="1167.2" y="-1340.19" font-family="Times,serif" font-size="14.00">19073</text>
</a>
</g>
</g>
<!-- 11353&#45;&gt;19073 -->
<g id="edge7" class="edge"><title>11353&#45;&gt;19073</title>
<path fill="none" stroke="black" d="M1163.04,-1082.39C1163.85,-1133.22 1166.11,-1275.35 1166.91,-1325.82"/>
</g>
<!-- 21948 -->
<g id="node40" class="node"><title>21948</title>
<g id="a_node40"><a xlink:title="3rd_week">
<ellipse fill="grey" stroke="black" cx="1008.48" cy="-1281.39" rx="32.4942" ry="18"/>
<text text-anchor="middle" x="1008.48" y="-1277.69" font-family="Times,serif" font-size="14.00">21948</text>
</a>
</g>
</g>
<!-- 11353&#45;&gt;21948 -->
<g id="edge10" class="edge"><title>11353&#45;&gt;21948</title>
<path fill="none" stroke="black" d="M1150.64,-1081.08C1121.8,-1121.71 1049.31,-1223.86 1020.53,-1264.42"/>
</g>
<!-- 25691 -->
<g id="node46" class="node"><title>25691</title>
<g id="a_node46"><a xlink:title="3rd_week">
<ellipse fill="grey" stroke="black" cx="1098.13" cy="-1295.58" rx="32.4942" ry="18"/>
<text text-anchor="middle" x="1098.13" y="-1291.88" font-family="Times,serif" font-size="14.00">25691</text>
</a>
</g>
</g>
<!-- 11353&#45;&gt;25691 -->
<g id="edge2" class="edge"><title>11353&#45;&gt;25691</title>
<path fill="none" stroke="black" d="M1157.68,-1082.19C1145.6,-1125.48 1115.23,-1234.29 1103.18,-1277.5"/>
</g>
<!-- 29711 -->
<g id="node50" class="node"><title>29711</title>
<g id="a_node50"><a xlink:title="3rd_week">
<ellipse fill="#efff05" stroke="black" cx="1255.93" cy="-1308.22" rx="32.4942" ry="18"/>
<text text-anchor="middle" x="1255.93" y="-1304.52" font-family="Times,serif" font-size="14.00">29711</text>
</a>
</g>
</g>
<!-- 11353&#45;&gt;29711 -->
<g id="edge33" class="edge"><title>11353&#45;&gt;29711</title>
<path fill="none" stroke="black" d="M1169.6,-1081.98C1186.87,-1127.25 1232.04,-1245.62 1249.19,-1290.56"/>
</g>
<!-- 23631 -->
<g id="node44" class="node"><title>23631</title>
<g id="a_node44"><a xlink:title="3rd_week">
<ellipse fill="grey" stroke="black" cx="1803.13" cy="-778.193" rx="32.4942" ry="18"/>
<text text-anchor="middle" x="1803.13" y="-774.493" font-family="Times,serif" font-size="14.00">23631</text>
</a>
</g>
</g>
<!-- 14761&#45;&gt;23631 -->
<g id="edge55" class="edge"><title>14761&#45;&gt;23631</title>
<path fill="none" stroke="black" d="M1563.28,-728.3C1615.2,-739.1 1720.21,-760.945 1772.34,-771.789"/>
</g>
<!-- 14945 -->
<g id="node27" class="node"><title>14945</title>
<g id="a_node27"><a xlink:title="3rd_week">
<ellipse fill="#efff05" stroke="black" cx="1765.39" cy="-1360.65" rx="32.4942" ry="18"/>
<text text-anchor="middle" x="1765.39" y="-1356.95" font-family="Times,serif" font-size="14.00">14945</text>
</a>
</g>
</g>
<!-- 23285 -->
<g id="node43" class="node"><title>23285</title>
<g id="a_node43"><a xlink:title="3rd_week">
<ellipse fill="#efff05" stroke="black" cx="1622.54" cy="-1184.23" rx="32.4942" ry="18"/>
<text text-anchor="middle" x="1622.54" y="-1180.53" font-family="Times,serif" font-size="14.00">23285</text>
</a>
</g>
</g>
<!-- 14945&#45;&gt;23285 -->
<g id="edge28" class="edge"><title>14945&#45;&gt;23285</title>
<path fill="none" stroke="black" d="M1751.95,-1344.05C1724.66,-1310.34 1663.02,-1234.22 1635.84,-1200.66"/>
</g>
<!-- 18140 -->
<g id="node33" class="node"><title>18140</title>
<g id="a_node33"><a xlink:title="3rd_week">
<ellipse fill="grey" stroke="black" cx="1054.47" cy="-18.1612" rx="32.4942" ry="18"/>
<text text-anchor="middle" x="1054.47" y="-14.4612" font-family="Times,serif" font-size="14.00">18140</text>
</a>
</g>
</g>
<!-- 18140&#45;&gt;29342 -->
<g id="edge50" class="edge"><title>18140&#45;&gt;29342</title>
<path fill="none" stroke="black" d="M1058.88,-36.1249C1070.59,-83.8697 1102.41,-213.535 1114.16,-261.423"/>
</g>
<!-- 21096 -->
<g id="node39" class="node"><title>21096</title>
<g id="a_node39"><a xlink:title="3rd_week">
<ellipse fill="#efff05" stroke="black" cx="568.1" cy="-771.368" rx="32.4942" ry="18"/>
<text text-anchor="middle" x="568.1" y="-767.668" font-family="Times,serif" font-size="14.00">21096</text>
</a>
</g>
</g>
<!-- 18882&#45;&gt;21096 -->
<g id="edge35" class="edge"><title>18882&#45;&gt;21096</title>
<path fill="none" stroke="black" d="M792.3,-775.328C743.055,-774.458 650.081,-772.816 600.753,-771.944"/>
</g>
<!-- 18882&#45;&gt;31322 -->
<g id="edge32" class="edge"><title>18882&#45;&gt;31322</title>
<path fill="none" stroke="black" d="M795.751,-784.038C734.771,-801.109 594.062,-840.5 532.938,-857.611"/>
</g>
<!-- 23285&#45;&gt;23696 -->
<g id="edge15" class="edge"><title>23285&#45;&gt;23696</title>
<path fill="none" stroke="black" d="M1609.33,-1167.66C1573.49,-1122.7 1474.74,-998.836 1438.97,-953.967"/>
</g>
</g>
</svg>
