<?xml version="1.0" encoding="UTF-8" standalone="no"?>
<!DOCTYPE svg PUBLIC "-//W3C//DTD SVG 1.1//EN"
 "http://www.w3.org/Graphics/SVG/1.1/DTD/svg11.dtd">
<!-- Generated by graphviz version 2.38.0 (20140413.2041)
 -->
<!-- Title: %3 Pages: 1 -->
<svg width="1299pt" height="1530pt"
 viewBox="0.00 0.00 1299.00 1530.00" xmlns="http://www.w3.org/2000/svg" xmlns:xlink="http://www.w3.org/1999/xlink">
<g id="graph0" class="graph" transform="scale(1 1) rotate(0) translate(4 1526)">
<title>%3</title>
<polygon fill="white" stroke="none" points="-4,4 -4,-1526 1295,-1526 1295,4 -4,4"/>
<!-- 200 -->
<g id="node1" class="node"><title>200</title>
<g id="a_node1"><a xlink:title="6th_week">
<ellipse fill="#20ff05" stroke="black" cx="798.838" cy="-990.744" rx="27" ry="18"/>
<text text-anchor="middle" x="798.838" y="-987.044" font-family="Times,serif" font-size="14.00">200</text>
</a>
</g>
</g>
<!-- 39679 -->
<g id="node61" class="node"><title>39679</title>
<g id="a_node61"><a xlink:title="6th_week">
<ellipse fill="#20ff05" stroke="black" cx="665.767" cy="-895.378" rx="32.4942" ry="18"/>
<text text-anchor="middle" x="665.767" y="-891.678" font-family="Times,serif" font-size="14.00">39679</text>
</a>
</g>
</g>
<!-- 200&#45;&gt;39679 -->
<g id="edge25" class="edge"><title>200&#45;&gt;39679</title>
<path fill="none" stroke="black" d="M780.335,-977.484C755.483,-959.673 711.487,-928.143 685.851,-909.771"/>
</g>
<!-- 558 -->
<g id="node2" class="node"><title>558</title>
<g id="a_node2"><a xlink:title="6th_week">
<ellipse fill="#20ff05" stroke="black" cx="561.313" cy="-1049.88" rx="27" ry="18"/>
<text text-anchor="middle" x="561.313" y="-1046.18" font-family="Times,serif" font-size="14.00">558</text>
</a>
</g>
</g>
<!-- 558&#45;&gt;39679 -->
<g id="edge32" class="edge"><title>558&#45;&gt;39679</title>
<path fill="none" stroke="black" d="M572.492,-1033.35C592.491,-1003.76 634.184,-942.094 654.353,-912.262"/>
</g>
<!-- 786 -->
<g id="node3" class="node"><title>786</title>
<g id="a_node3"><a xlink:title="6th_week">
<ellipse fill="#ffffff" stroke="black" cx="444.22" cy="-249.556" rx="27" ry="18"/>
<text text-anchor="middle" x="444.22" y="-245.856" font-family="Times,serif" font-size="14.00">786</text>
</a>
</g>
</g>
<!-- 16037 -->
<g id="node28" class="node"><title>16037</title>
<g id="a_node28"><a xlink:title="6th_week">
<ellipse fill="grey" stroke="black" cx="368.577" cy="-42.88" rx="32.4942" ry="18"/>
<text text-anchor="middle" x="368.577" y="-39.18" font-family="Times,serif" font-size="14.00">16037</text>
</a>
</g>
</g>
<!-- 786&#45;&gt;16037 -->
<g id="edge21" class="edge"><title>786&#45;&gt;16037</title>
<path fill="none" stroke="black" d="M437.771,-231.935C423.515,-192.986 389.457,-99.9287 375.118,-60.75"/>
</g>
<!-- 42703 -->
<g id="node67" class="node"><title>42703</title>
<g id="a_node67"><a xlink:title="6th_week">
<ellipse fill="#20ff05" stroke="black" cx="544.924" cy="-545.334" rx="32.4942" ry="18"/>
<text text-anchor="middle" x="544.924" y="-541.634" font-family="Times,serif" font-size="14.00">42703</text>
</a>
</g>
</g>
<!-- 786&#45;&gt;42703 -->
<g id="edge27" class="edge"><title>786&#45;&gt;42703</title>
<path fill="none" stroke="black" d="M450.218,-267.172C468.087,-319.655 520.837,-474.588 538.83,-527.436"/>
</g>
<!-- 1831 -->
<g id="node4" class="node"><title>1831</title>
<g id="a_node4"><a xlink:title="6th_week">
<ellipse fill="#20ff05" stroke="black" cx="894.353" cy="-1163.43" rx="28.6953" ry="18"/>
<text text-anchor="middle" x="894.353" y="-1159.73" font-family="Times,serif" font-size="14.00">1831</text>
</a>
</g>
</g>
<!-- 13460 -->
<g id="node25" class="node"><title>13460</title>
<g id="a_node25"><a xlink:title="6th_week">
<ellipse fill="grey" stroke="black" cx="1109.05" cy="-1338.62" rx="32.4942" ry="18"/>
<text text-anchor="middle" x="1109.05" y="-1334.92" font-family="Times,serif" font-size="14.00">13460</text>
</a>
</g>
</g>
<!-- 1831&#45;&gt;13460 -->
<g id="edge51" class="edge"><title>1831&#45;&gt;13460</title>
<path fill="none" stroke="black" d="M911.922,-1177.76C951.981,-1210.45 1049.76,-1290.24 1090.63,-1323.59"/>
</g>
<!-- 34270 -->
<g id="node49" class="node"><title>34270</title>
<g id="a_node49"><a xlink:title="6th_week">
<ellipse fill="#ffffff" stroke="black" cx="1044.07" cy="-1396.59" rx="32.4942" ry="18"/>
<text text-anchor="middle" x="1044.07" y="-1392.89" font-family="Times,serif" font-size="14.00">34270</text>
</a>
</g>
</g>
<!-- 1831&#45;&gt;34270 -->
<g id="edge14" class="edge"><title>1831&#45;&gt;34270</title>
<path fill="none" stroke="black" d="M905.12,-1180.2C932.61,-1223.01 1005.17,-1336.02 1033,-1379.35"/>
</g>
<!-- 1831&#45;&gt;39679 -->
<g id="edge5" class="edge"><title>1831&#45;&gt;39679</title>
<path fill="none" stroke="black" d="M880.738,-1147.46C840.274,-1100.01 721.008,-960.156 679.891,-911.94"/>
</g>
<!-- 2535 -->
<g id="node5" class="node"><title>2535</title>
<g id="a_node5"><a xlink:title="6th_week">
<ellipse fill="grey" stroke="black" cx="455.668" cy="-612.301" rx="28.6953" ry="18"/>
<text text-anchor="middle" x="455.668" y="-608.601" font-family="Times,serif" font-size="14.00">2535</text>
</a>
</g>
</g>
<!-- 6078 -->
<g id="node13" class="node"><title>6078</title>
<g id="a_node13"><a xlink:title="6th_week">
<ellipse fill="grey" stroke="black" cx="317.932" cy="-429.444" rx="28.6953" ry="18"/>
<text text-anchor="middle" x="317.932" y="-425.744" font-family="Times,serif" font-size="14.00">6078</text>
</a>
</g>
</g>
<!-- 2535&#45;&gt;6078 -->
<g id="edge4" class="edge"><title>2535&#45;&gt;6078</title>
<path fill="none" stroke="black" d="M443.202,-595.751C416.979,-560.937 356.382,-480.49 330.27,-445.825"/>
</g>
<!-- 2535&#45;&gt;39679 -->
<g id="edge15" class="edge"><title>2535&#45;&gt;39679</title>
<path fill="none" stroke="black" d="M467.872,-628.744C504.918,-678.657 615.827,-828.09 653.265,-878.533"/>
</g>
<!-- 2985 -->
<g id="node6" class="node"><title>2985</title>
<g id="a_node6"><a xlink:title="6th_week">
<ellipse fill="#20ff05" stroke="black" cx="580.358" cy="-1121.4" rx="28.6953" ry="18"/>
<text text-anchor="middle" x="580.358" y="-1117.7" font-family="Times,serif" font-size="14.00">2985</text>
</a>
</g>
</g>
<!-- 2985&#45;&gt;39679 -->
<g id="edge64" class="edge"><title>2985&#45;&gt;39679</title>
<path fill="none" stroke="black" d="M587.06,-1103.67C603.026,-1061.41 643.162,-955.2 659.096,-913.031"/>
</g>
<!-- 3052 -->
<g id="node7" class="node"><title>3052</title>
<g id="a_node7"><a xlink:title="6th_week">
<ellipse fill="#20ff05" stroke="black" cx="933.995" cy="-719.837" rx="28.6953" ry="18"/>
<text text-anchor="middle" x="933.995" y="-716.137" font-family="Times,serif" font-size="14.00">3052</text>
</a>
</g>
</g>
<!-- 3052&#45;&gt;39679 -->
<g id="edge44" class="edge"><title>3052&#45;&gt;39679</title>
<path fill="none" stroke="black" d="M913.834,-733.031C864.369,-765.403 737.368,-848.519 686.902,-881.546"/>
</g>
<!-- 42168 -->
<g id="node66" class="node"><title>42168</title>
<g id="a_node66"><a xlink:title="6th_week">
<ellipse fill="#20ff05" stroke="black" cx="1178.19" cy="-582.32" rx="32.4942" ry="18"/>
<text text-anchor="middle" x="1178.19" y="-578.62" font-family="Times,serif" font-size="14.00">42168</text>
</a>
</g>
</g>
<!-- 3052&#45;&gt;42168 -->
<g id="edge24" class="edge"><title>3052&#45;&gt;42168</title>
<path fill="none" stroke="black" d="M955.666,-707.633C1001.54,-681.8 1108.1,-621.793 1155.15,-595.295"/>
</g>
<!-- 3346 -->
<g id="node8" class="node"><title>3346</title>
<g id="a_node8"><a xlink:title="6th_week">
<ellipse fill="#20ff05" stroke="black" cx="743.64" cy="-708.889" rx="28.6953" ry="18"/>
<text text-anchor="middle" x="743.64" y="-705.189" font-family="Times,serif" font-size="14.00">3346</text>
</a>
</g>
</g>
<!-- 3346&#45;&gt;39679 -->
<g id="edge60" class="edge"><title>3346&#45;&gt;39679</title>
<path fill="none" stroke="black" d="M736.314,-726.434C721.472,-761.977 688.004,-842.126 673.131,-877.744"/>
</g>
<!-- 4625 -->
<g id="node9" class="node"><title>4625</title>
<g id="a_node9"><a xlink:title="6th_week">
<ellipse fill="#20ff05" stroke="black" cx="659.613" cy="-692.586" rx="28.6953" ry="18"/>
<text text-anchor="middle" x="659.613" y="-688.886" font-family="Times,serif" font-size="14.00">4625</text>
</a>
</g>
</g>
<!-- 4625&#45;&gt;39679 -->
<g id="edge43" class="edge"><title>4625&#45;&gt;39679</title>
<path fill="none" stroke="black" d="M660.17,-710.94C661.342,-749.549 664.049,-838.766 665.216,-877.211"/>
</g>
<!-- 5098 -->
<g id="node10" class="node"><title>5098</title>
<g id="a_node10"><a xlink:title="6th_week">
<ellipse fill="grey" stroke="black" cx="518.388" cy="-961.976" rx="28.6953" ry="18"/>
<text text-anchor="middle" x="518.388" y="-958.276" font-family="Times,serif" font-size="14.00">5098</text>
</a>
</g>
</g>
<!-- 5098&#45;&gt;39679 -->
<g id="edge38" class="edge"><title>5098&#45;&gt;39679</title>
<path fill="none" stroke="black" d="M541.741,-951.423C568.688,-939.246 612.837,-919.296 640.55,-906.773"/>
</g>
<!-- 5240 -->
<g id="node11" class="node"><title>5240</title>
<g id="a_node11"><a xlink:title="6th_week">
<ellipse fill="grey" stroke="black" cx="975.42" cy="-936.63" rx="28.6953" ry="18"/>
<text text-anchor="middle" x="975.42" y="-932.93" font-family="Times,serif" font-size="14.00">5240</text>
</a>
</g>
</g>
<!-- 14170 -->
<g id="node26" class="node"><title>14170</title>
<g id="a_node26"><a xlink:title="6th_week">
<ellipse fill="grey" stroke="black" cx="1252.3" cy="-975.656" rx="32.4942" ry="18"/>
<text text-anchor="middle" x="1252.3" y="-971.956" font-family="Times,serif" font-size="14.00">14170</text>
</a>
</g>
</g>
<!-- 5240&#45;&gt;14170 -->
<g id="edge20" class="edge"><title>5240&#45;&gt;14170</title>
<path fill="none" stroke="black" d="M1003.49,-940.586C1055.46,-947.911 1166.31,-963.536 1220.78,-971.212"/>
</g>
<!-- 5240&#45;&gt;39679 -->
<g id="edge6" class="edge"><title>5240&#45;&gt;39679</title>
<path fill="none" stroke="black" d="M947.394,-932.896C889.78,-925.221 758.362,-907.713 697.627,-899.622"/>
</g>
<!-- 5896 -->
<g id="node12" class="node"><title>5896</title>
<g id="a_node12"><a xlink:title="6th_week">
<ellipse fill="#20ff05" stroke="black" cx="379.501" cy="-698.438" rx="28.6953" ry="18"/>
<text text-anchor="middle" x="379.501" y="-694.738" font-family="Times,serif" font-size="14.00">5896</text>
</a>
</g>
</g>
<!-- 27355 -->
<g id="node40" class="node"><title>27355</title>
<g id="a_node40"><a xlink:title="6th_week">
<ellipse fill="grey" stroke="black" cx="178.404" cy="-559.85" rx="32.4942" ry="18"/>
<text text-anchor="middle" x="178.404" y="-556.15" font-family="Times,serif" font-size="14.00">27355</text>
</a>
</g>
</g>
<!-- 5896&#45;&gt;27355 -->
<g id="edge3" class="edge"><title>5896&#45;&gt;27355</title>
<path fill="none" stroke="black" d="M359.853,-684.897C321.705,-658.607 237.946,-600.884 199.031,-574.066"/>
</g>
<!-- 5896&#45;&gt;39679 -->
<g id="edge50" class="edge"><title>5896&#45;&gt;39679</title>
<path fill="none" stroke="black" d="M399.178,-711.974C451.221,-747.778 592.13,-844.718 645.187,-881.219"/>
</g>
<!-- 8616 -->
<g id="node14" class="node"><title>8616</title>
<g id="a_node14"><a xlink:title="6th_week">
<ellipse fill="#20ff05" stroke="black" cx="861.585" cy="-635.353" rx="28.6953" ry="18"/>
<text text-anchor="middle" x="861.585" y="-631.653" font-family="Times,serif" font-size="14.00">8616</text>
</a>
</g>
</g>
<!-- 14915 -->
<g id="node27" class="node"><title>14915</title>
<g id="a_node27"><a xlink:title="6th_week">
<ellipse fill="#20ff05" stroke="black" cx="1047.6" cy="-429.079" rx="32.4942" ry="18"/>
<text text-anchor="middle" x="1047.6" y="-425.379" font-family="Times,serif" font-size="14.00">14915</text>
</a>
</g>
</g>
<!-- 8616&#45;&gt;14915 -->
<g id="edge11" class="edge"><title>8616&#45;&gt;14915</title>
<path fill="none" stroke="black" d="M875.872,-619.51C910.412,-581.208 998.155,-483.908 1033.01,-445.261"/>
</g>
<!-- 8616&#45;&gt;39679 -->
<g id="edge26" class="edge"><title>8616&#45;&gt;39679</title>
<path fill="none" stroke="black" d="M849.336,-651.619C814.337,-698.093 714.133,-831.154 678.519,-878.445"/>
</g>
<!-- 9241 -->
<g id="node15" class="node"><title>9241</title>
<g id="a_node15"><a xlink:title="6th_week">
<ellipse fill="#20ff05" stroke="black" cx="826.497" cy="-1056.63" rx="28.6953" ry="18"/>
<text text-anchor="middle" x="826.497" y="-1052.93" font-family="Times,serif" font-size="14.00">9241</text>
</a>
</g>
</g>
<!-- 9241&#45;&gt;39679 -->
<g id="edge23" class="edge"><title>9241&#45;&gt;39679</title>
<path fill="none" stroke="black" d="M811.085,-1041.17C780.599,-1010.58 712.865,-942.629 681.845,-911.508"/>
</g>
<!-- 9697 -->
<g id="node16" class="node"><title>9697</title>
<g id="a_node16"><a xlink:title="6th_week">
<ellipse fill="#20ff05" stroke="black" cx="788.877" cy="-787.612" rx="28.6953" ry="18"/>
<text text-anchor="middle" x="788.877" y="-783.912" font-family="Times,serif" font-size="14.00">9697</text>
</a>
</g>
</g>
<!-- 9697&#45;&gt;39679 -->
<g id="edge17" class="edge"><title>9697&#45;&gt;39679</title>
<path fill="none" stroke="black" d="M772.017,-802.37C748.705,-822.777 706.837,-859.426 683.217,-880.103"/>
</g>
<!-- 11145 -->
<g id="node17" class="node"><title>11145</title>
<g id="a_node17"><a xlink:title="6th_week">
<ellipse fill="#20ff05" stroke="black" cx="857.759" cy="-931.31" rx="32.4942" ry="18"/>
<text text-anchor="middle" x="857.759" y="-927.61" font-family="Times,serif" font-size="14.00">11145</text>
</a>
</g>
</g>
<!-- 11145&#45;&gt;39679 -->
<g id="edge55" class="edge"><title>11145&#45;&gt;39679</title>
<path fill="none" stroke="black" d="M826.912,-925.537C791.19,-918.851 732.68,-907.901 696.856,-901.196"/>
</g>
<!-- 11361 -->
<g id="node18" class="node"><title>11361</title>
<g id="a_node18"><a xlink:title="6th_week">
<ellipse fill="grey" stroke="black" cx="939.234" cy="-876.644" rx="32.4942" ry="18"/>
<text text-anchor="middle" x="939.234" y="-872.944" font-family="Times,serif" font-size="14.00">11361</text>
</a>
</g>
</g>
<!-- 11361&#45;&gt;39679 -->
<g id="edge2" class="edge"><title>11361&#45;&gt;39679</title>
<path fill="none" stroke="black" d="M906.789,-878.867C854.158,-882.472 750.773,-889.554 698.169,-893.158"/>
</g>
<!-- 11787 -->
<g id="node19" class="node"><title>11787</title>
<g id="a_node19"><a xlink:title="6th_week">
<ellipse fill="#20ff05" stroke="black" cx="357.686" cy="-1119.36" rx="32.4942" ry="18"/>
<text text-anchor="middle" x="357.686" y="-1115.66" font-family="Times,serif" font-size="14.00">11787</text>
</a>
</g>
</g>
<!-- 29710 -->
<g id="node42" class="node"><title>29710</title>
<g id="a_node42"><a xlink:title="6th_week">
<ellipse fill="#ffffff" stroke="black" cx="117.995" cy="-1252.83" rx="32.4942" ry="18"/>
<text text-anchor="middle" x="117.995" y="-1249.13" font-family="Times,serif" font-size="14.00">29710</text>
</a>
</g>
</g>
<!-- 11787&#45;&gt;29710 -->
<g id="edge70" class="edge"><title>11787&#45;&gt;29710</title>
<path fill="none" stroke="black" d="M334.704,-1132.16C289.006,-1157.6 187.188,-1214.3 141.26,-1239.88"/>
</g>
<!-- 39642 -->
<g id="node60" class="node"><title>39642</title>
<g id="a_node60"><a xlink:title="6th_week">
<ellipse fill="#20ff05" stroke="black" cx="169.341" cy="-1324.76" rx="32.4942" ry="18"/>
<text text-anchor="middle" x="169.341" y="-1321.06" font-family="Times,serif" font-size="14.00">39642</text>
</a>
</g>
</g>
<!-- 11787&#45;&gt;39642 -->
<g id="edge69" class="edge"><title>11787&#45;&gt;39642</title>
<path fill="none" stroke="black" d="M342.907,-1135.47C307.786,-1173.78 219.626,-1269.92 184.312,-1308.43"/>
</g>
<!-- 11787&#45;&gt;39679 -->
<g id="edge1" class="edge"><title>11787&#45;&gt;39679</title>
<path fill="none" stroke="black" d="M377.427,-1105.01C432.94,-1064.65 589.995,-950.465 645.792,-909.9"/>
</g>
<!-- 11973 -->
<g id="node20" class="node"><title>11973</title>
<g id="a_node20"><a xlink:title="6th_week">
<ellipse fill="#20ff05" stroke="black" cx="568.954" cy="-699.686" rx="32.4942" ry="18"/>
<text text-anchor="middle" x="568.954" y="-695.986" font-family="Times,serif" font-size="14.00">11973</text>
</a>
</g>
</g>
<!-- 11973&#45;&gt;39679 -->
<g id="edge45" class="edge"><title>11973&#45;&gt;39679</title>
<path fill="none" stroke="black" d="M577.546,-717.052C595.871,-754.094 638.624,-840.512 657.056,-877.769"/>
</g>
<!-- 12000 -->
<g id="node21" class="node"><title>12000</title>
<g id="a_node21"><a xlink:title="6th_week">
<ellipse fill="grey" stroke="black" cx="861.303" cy="-767.48" rx="32.4942" ry="18"/>
<text text-anchor="middle" x="861.303" y="-763.78" font-family="Times,serif" font-size="14.00">12000</text>
</a>
</g>
</g>
<!-- 12000&#45;&gt;39679 -->
<g id="edge13" class="edge"><title>12000&#45;&gt;39679</title>
<path fill="none" stroke="black" d="M840.005,-781.411C802.392,-806.013 724.633,-856.874 687.039,-881.464"/>
</g>
<!-- 12256 -->
<g id="node22" class="node"><title>12256</title>
<g id="a_node22"><a xlink:title="6th_week">
<ellipse fill="#20ff05" stroke="black" cx="457.407" cy="-1059.57" rx="32.4942" ry="18"/>
<text text-anchor="middle" x="457.407" y="-1055.87" font-family="Times,serif" font-size="14.00">12256</text>
</a>
</g>
</g>
<!-- 12256&#45;&gt;39679 -->
<g id="edge34" class="edge"><title>12256&#45;&gt;39679</title>
<path fill="none" stroke="black" d="M476.265,-1044.71C515.834,-1013.53 607.139,-941.578 646.802,-910.323"/>
</g>
<!-- 12798 -->
<g id="node23" class="node"><title>12798</title>
<g id="a_node23"><a xlink:title="6th_week">
<ellipse fill="#20ff05" stroke="black" cx="864.54" cy="-833.366" rx="32.4942" ry="18"/>
<text text-anchor="middle" x="864.54" y="-829.666" font-family="Times,serif" font-size="14.00">12798</text>
</a>
</g>
</g>
<!-- 12798&#45;&gt;39679 -->
<g id="edge19" class="edge"><title>12798&#45;&gt;39679</title>
<path fill="none" stroke="black" d="M836.061,-842.25C798.274,-854.039 731.954,-874.729 694.194,-886.509"/>
</g>
<!-- 13160 -->
<g id="node24" class="node"><title>13160</title>
<g id="a_node24"><a xlink:title="6th_week">
<ellipse fill="#20ff05" stroke="black" cx="978.908" cy="-816.156" rx="32.4942" ry="18"/>
<text text-anchor="middle" x="978.908" y="-812.456" font-family="Times,serif" font-size="14.00">13160</text>
</a>
</g>
</g>
<!-- 35500 -->
<g id="node54" class="node"><title>35500</title>
<g id="a_node54"><a xlink:title="6th_week">
<ellipse fill="#20ff05" stroke="black" cx="1258.51" cy="-760.148" rx="32.4942" ry="18"/>
<text text-anchor="middle" x="1258.51" y="-756.448" font-family="Times,serif" font-size="14.00">35500</text>
</a>
</g>
</g>
<!-- 13160&#45;&gt;35500 -->
<g id="edge7" class="edge"><title>13160&#45;&gt;35500</title>
<path fill="none" stroke="black" d="M1009.63,-810.002C1063.4,-799.232 1173.94,-777.089 1227.74,-766.312"/>
</g>
<!-- 13160&#45;&gt;39679 -->
<g id="edge65" class="edge"><title>13160&#45;&gt;39679</title>
<path fill="none" stroke="black" d="M949.166,-823.681C889.474,-838.782 755.675,-872.632 695.769,-887.788"/>
</g>
<!-- 16198 -->
<g id="node29" class="node"><title>16198</title>
<g id="a_node29"><a xlink:title="6th_week">
<ellipse fill="#20ff05" stroke="black" cx="392.504" cy="-879.361" rx="32.4942" ry="18"/>
<text text-anchor="middle" x="392.504" y="-875.661" font-family="Times,serif" font-size="14.00">16198</text>
</a>
</g>
</g>
<!-- 16198&#45;&gt;39679 -->
<g id="edge35" class="edge"><title>16198&#45;&gt;39679</title>
<path fill="none" stroke="black" d="M424.924,-881.262C477.516,-884.344 580.825,-890.399 633.389,-893.48"/>
</g>
<!-- 16960 -->
<g id="node30" class="node"><title>16960</title>
<g id="a_node30"><a xlink:title="6th_week">
<ellipse fill="grey" stroke="black" cx="756.967" cy="-515.531" rx="32.4942" ry="18"/>
<text text-anchor="middle" x="756.967" y="-511.831" font-family="Times,serif" font-size="14.00">16960</text>
</a>
</g>
</g>
<!-- 33861 -->
<g id="node48" class="node"><title>33861</title>
<g id="a_node48"><a xlink:title="6th_week">
<ellipse fill="#20ff05" stroke="black" cx="878.545" cy="-225.556" rx="32.4942" ry="18"/>
<text text-anchor="middle" x="878.545" y="-221.856" font-family="Times,serif" font-size="14.00">33861</text>
</a>
</g>
</g>
<!-- 16960&#45;&gt;33861 -->
<g id="edge33" class="edge"><title>16960&#45;&gt;33861</title>
<path fill="none" stroke="black" d="M764.39,-497.828C786.094,-446.06 849.288,-295.337 871.066,-243.395"/>
</g>
<!-- 35192 -->
<g id="node52" class="node"><title>35192</title>
<g id="a_node52"><a xlink:title="6th_week">
<ellipse fill="grey" stroke="black" cx="786.482" cy="-252.724" rx="32.4942" ry="18"/>
<text text-anchor="middle" x="786.482" y="-249.024" font-family="Times,serif" font-size="14.00">35192</text>
</a>
</g>
</g>
<!-- 16960&#45;&gt;35192 -->
<g id="edge8" class="edge"><title>16960&#45;&gt;35192</title>
<path fill="none" stroke="black" d="M758.996,-497.467C764.388,-449.456 779.031,-319.069 784.439,-270.914"/>
</g>
<!-- 16960&#45;&gt;39679 -->
<g id="edge49" class="edge"><title>16960&#45;&gt;39679</title>
<path fill="none" stroke="black" d="M752.63,-533.596C737.267,-597.584 685.536,-813.04 670.131,-877.202"/>
</g>
<!-- 17537 -->
<g id="node31" class="node"><title>17537</title>
<g id="a_node31"><a xlink:title="6th_week">
<ellipse fill="grey" stroke="black" cx="747.307" cy="-1065.47" rx="32.4942" ry="18"/>
<text text-anchor="middle" x="747.307" y="-1061.77" font-family="Times,serif" font-size="14.00">17537</text>
</a>
</g>
</g>
<!-- 17537&#45;&gt;39679 -->
<g id="edge48" class="edge"><title>17537&#45;&gt;39679</title>
<path fill="none" stroke="black" d="M738.888,-1047.91C723.222,-1015.23 689.771,-945.452 674.14,-912.845"/>
</g>
<!-- 19058 -->
<g id="node32" class="node"><title>19058</title>
<g id="a_node32"><a xlink:title="6th_week">
<ellipse fill="#20ff05" stroke="black" cx="957.149" cy="-17.9194" rx="32.4942" ry="18"/>
<text text-anchor="middle" x="957.149" y="-14.2194" font-family="Times,serif" font-size="14.00">19058</text>
</a>
</g>
</g>
<!-- 19058&#45;&gt;33861 -->
<g id="edge12" class="edge"><title>19058&#45;&gt;33861</title>
<path fill="none" stroke="black" d="M950.447,-35.6224C935.597,-74.8507 900.065,-168.711 885.23,-207.898"/>
</g>
<!-- 19819 -->
<g id="node33" class="node"><title>19819</title>
<g id="a_node33"><a xlink:title="6th_week">
<ellipse fill="#20ff05" stroke="black" cx="654.193" cy="-1137.07" rx="32.4942" ry="18"/>
<text text-anchor="middle" x="654.193" y="-1133.37" font-family="Times,serif" font-size="14.00">19819</text>
</a>
</g>
</g>
<!-- 19819&#45;&gt;39679 -->
<g id="edge46" class="edge"><title>19819&#45;&gt;39679</title>
<path fill="none" stroke="black" d="M655.063,-1118.9C657.213,-1074 662.759,-958.199 664.903,-913.425"/>
</g>
<!-- 19824 -->
<g id="node34" class="node"><title>19824</title>
<g id="a_node34"><a xlink:title="6th_week">
<ellipse fill="grey" stroke="black" cx="271.426" cy="-945.254" rx="32.4942" ry="18"/>
<text text-anchor="middle" x="271.426" y="-941.554" font-family="Times,serif" font-size="14.00">19824</text>
</a>
</g>
</g>
<!-- 35462 -->
<g id="node53" class="node"><title>35462</title>
<g id="a_node53"><a xlink:title="6th_week">
<ellipse fill="grey" stroke="black" cx="32.3624" cy="-934.338" rx="32.4942" ry="18"/>
<text text-anchor="middle" x="32.3624" y="-930.638" font-family="Times,serif" font-size="14.00">35462</text>
</a>
</g>
</g>
<!-- 19824&#45;&gt;35462 -->
<g id="edge61" class="edge"><title>19824&#45;&gt;35462</title>
<path fill="none" stroke="black" d="M238.687,-943.759C193.034,-941.674 110.735,-937.916 65.0892,-935.832"/>
</g>
<!-- 38618 -->
<g id="node57" class="node"><title>38618</title>
<g id="a_node57"><a xlink:title="6th_week">
<ellipse fill="#efff05" stroke="black" cx="43.8866" cy="-1016.4" rx="32.4942" ry="18"/>
<text text-anchor="middle" x="43.8866" y="-1012.7" font-family="Times,serif" font-size="14.00">38618</text>
</a>
</g>
</g>
<!-- 19824&#45;&gt;38618 -->
<g id="edge67" class="edge"><title>19824&#45;&gt;38618</title>
<path fill="none" stroke="black" d="M243.068,-954.121C199.346,-967.793 115.965,-993.865 72.2437,-1007.54"/>
</g>
<!-- 19824&#45;&gt;39679 -->
<g id="edge62" class="edge"><title>19824&#45;&gt;39679</title>
<path fill="none" stroke="black" d="M303.363,-941.214C377.439,-931.845 560.254,-908.723 634.083,-899.385"/>
</g>
<!-- 20044 -->
<g id="node35" class="node"><title>20044</title>
<g id="a_node35"><a xlink:title="6th_week">
<ellipse fill="#20ff05" stroke="black" cx="405.774" cy="-938.4" rx="32.4942" ry="18"/>
<text text-anchor="middle" x="405.774" y="-934.7" font-family="Times,serif" font-size="14.00">20044</text>
</a>
</g>
</g>
<!-- 20044&#45;&gt;39679 -->
<g id="edge30" class="edge"><title>20044&#45;&gt;39679</title>
<path fill="none" stroke="black" d="M437.135,-933.21C487.107,-924.941 584.253,-908.866 634.295,-900.585"/>
</g>
<!-- 23994 -->
<g id="node36" class="node"><title>23994</title>
<g id="a_node36"><a xlink:title="6th_week">
<ellipse fill="#20ff05" stroke="black" cx="662.023" cy="-616.429" rx="32.4942" ry="18"/>
<text text-anchor="middle" x="662.023" y="-612.729" font-family="Times,serif" font-size="14.00">23994</text>
</a>
</g>
</g>
<!-- 23994&#45;&gt;39679 -->
<g id="edge66" class="edge"><title>23994&#45;&gt;39679</title>
<path fill="none" stroke="black" d="M662.268,-634.732C662.949,-685.397 664.85,-827.061 665.526,-877.37"/>
</g>
<!-- 24471 -->
<g id="node37" class="node"><title>24471</title>
<g id="a_node37"><a xlink:title="6th_week">
<ellipse fill="#20ff05" stroke="black" cx="814.617" cy="-701.107" rx="32.4942" ry="18"/>
<text text-anchor="middle" x="814.617" y="-697.407" font-family="Times,serif" font-size="14.00">24471</text>
</a>
</g>
</g>
<!-- 24471&#45;&gt;39679 -->
<g id="edge9" class="edge"><title>24471&#45;&gt;39679</title>
<path fill="none" stroke="black" d="M801.668,-718.007C773.446,-754.841 706.678,-841.983 678.58,-878.655"/>
</g>
<!-- 25789 -->
<g id="node38" class="node"><title>25789</title>
<g id="a_node38"><a xlink:title="6th_week">
<ellipse fill="#20ff05" stroke="black" cx="530.166" cy="-761.455" rx="32.4942" ry="18"/>
<text text-anchor="middle" x="530.166" y="-757.755" font-family="Times,serif" font-size="14.00">25789</text>
</a>
</g>
</g>
<!-- 25789&#45;&gt;39679 -->
<g id="edge59" class="edge"><title>25789&#45;&gt;39679</title>
<path fill="none" stroke="black" d="M546.254,-777.343C572.351,-803.118 623.616,-853.748 649.7,-879.51"/>
</g>
<!-- 26526 -->
<g id="node39" class="node"><title>26526</title>
<g id="a_node39"><a xlink:title="6th_week">
<ellipse fill="grey" stroke="black" cx="369.786" cy="-1469.62" rx="32.4942" ry="18"/>
<text text-anchor="middle" x="369.786" y="-1465.92" font-family="Times,serif" font-size="14.00">26526</text>
</a>
</g>
</g>
<!-- 38668 -->
<g id="node58" class="node"><title>38668</title>
<g id="a_node58"><a xlink:title="6th_week">
<ellipse fill="#20ff05" stroke="black" cx="510.003" cy="-1231.65" rx="32.4942" ry="18"/>
<text text-anchor="middle" x="510.003" y="-1227.95" font-family="Times,serif" font-size="14.00">38668</text>
</a>
</g>
</g>
<!-- 26526&#45;&gt;38668 -->
<g id="edge52" class="edge"><title>26526&#45;&gt;38668</title>
<path fill="none" stroke="black" d="M379.87,-1452.51C405.678,-1408.71 473.908,-1292.91 499.822,-1248.93"/>
</g>
<!-- 27576 -->
<g id="node41" class="node"><title>27576</title>
<g id="a_node41"><a xlink:title="6th_week">
<ellipse fill="#20ff05" stroke="black" cx="853.722" cy="-1471.05" rx="32.4942" ry="18"/>
<text text-anchor="middle" x="853.722" y="-1467.35" font-family="Times,serif" font-size="14.00">27576</text>
</a>
</g>
</g>
<!-- 32847 -->
<g id="node46" class="node"><title>32847</title>
<g id="a_node46"><a xlink:title="6th_week">
<ellipse fill="#20ff05" stroke="black" cx="764.357" cy="-1203.78" rx="32.4942" ry="18"/>
<text text-anchor="middle" x="764.357" y="-1200.08" font-family="Times,serif" font-size="14.00">32847</text>
</a>
</g>
</g>
<!-- 27576&#45;&gt;32847 -->
<g id="edge16" class="edge"><title>27576&#45;&gt;32847</title>
<path fill="none" stroke="black" d="M847.72,-1453.1C831.44,-1404.41 786.582,-1270.25 770.333,-1221.66"/>
</g>
<!-- 30441 -->
<g id="node43" class="node"><title>30441</title>
<g id="a_node43"><a xlink:title="6th_week">
<ellipse fill="#20ff05" stroke="black" cx="505.839" cy="-1106.88" rx="32.4942" ry="18"/>
<text text-anchor="middle" x="505.839" y="-1103.18" font-family="Times,serif" font-size="14.00">30441</text>
</a>
</g>
</g>
<!-- 30441&#45;&gt;39679 -->
<g id="edge63" class="edge"><title>30441&#45;&gt;39679</title>
<path fill="none" stroke="black" d="M518.656,-1089.93C548.675,-1050.23 623.252,-951.603 653.111,-912.115"/>
</g>
<!-- 30668 -->
<g id="node44" class="node"><title>30668</title>
<g id="a_node44"><a xlink:title="6th_week">
<ellipse fill="#20ff05" stroke="black" cx="582.63" cy="-634.976" rx="32.4942" ry="18"/>
<text text-anchor="middle" x="582.63" y="-631.276" font-family="Times,serif" font-size="14.00">30668</text>
</a>
</g>
</g>
<!-- 30668&#45;&gt;39679 -->
<g id="edge58" class="edge"><title>30668&#45;&gt;39679</title>
<path fill="none" stroke="black" d="M588.344,-652.875C603.532,-700.446 644.779,-829.64 660.013,-877.354"/>
</g>
<!-- 31985 -->
<g id="node45" class="node"><title>31985</title>
<g id="a_node45"><a xlink:title="6th_week">
<ellipse fill="#20ff05" stroke="black" cx="451.076" cy="-1503.62" rx="32.4942" ry="18"/>
<text text-anchor="middle" x="451.076" y="-1499.92" font-family="Times,serif" font-size="14.00">31985</text>
</a>
</g>
</g>
<!-- 31985&#45;&gt;38668 -->
<g id="edge31" class="edge"><title>31985&#45;&gt;38668</title>
<path fill="none" stroke="black" d="M455.034,-1485.35C465.769,-1435.81 495.348,-1299.29 506.063,-1249.84"/>
</g>
<!-- 32847&#45;&gt;39679 -->
<g id="edge53" class="edge"><title>32847&#45;&gt;39679</title>
<path fill="none" stroke="black" d="M758.63,-1185.87C741.205,-1131.36 688.956,-967.915 671.51,-913.341"/>
</g>
<!-- 33440 -->
<g id="node47" class="node"><title>33440</title>
<g id="a_node47"><a xlink:title="6th_week">
<ellipse fill="#ffffff" stroke="black" cx="497.898" cy="-853.585" rx="32.4942" ry="18"/>
<text text-anchor="middle" x="497.898" y="-849.885" font-family="Times,serif" font-size="14.00">33440</text>
</a>
</g>
</g>
<!-- 33440&#45;&gt;39679 -->
<g id="edge18" class="edge"><title>33440&#45;&gt;39679</title>
<path fill="none" stroke="black" d="M527.91,-861.057C558.465,-868.664 605.554,-880.387 636.015,-887.971"/>
</g>
<!-- 34372 -->
<g id="node50" class="node"><title>34372</title>
<g id="a_node50"><a xlink:title="6th_week">
<ellipse fill="#20ff05" stroke="black" cx="948.443" cy="-1039.27" rx="32.4942" ry="18"/>
<text text-anchor="middle" x="948.443" y="-1035.57" font-family="Times,serif" font-size="14.00">34372</text>
</a>
</g>
</g>
<!-- 34372&#45;&gt;39679 -->
<g id="edge29" class="edge"><title>34372&#45;&gt;39679</title>
<path fill="none" stroke="black" d="M924.342,-1027C870.937,-999.814 743.156,-934.77 689.807,-907.614"/>
</g>
<!-- 41307 -->
<g id="node65" class="node"><title>41307</title>
<g id="a_node65"><a xlink:title="6th_week">
<ellipse fill="#20ff05" stroke="black" cx="1206.55" cy="-1159.98" rx="32.4942" ry="18"/>
<text text-anchor="middle" x="1206.55" y="-1156.28" font-family="Times,serif" font-size="14.00">41307</text>
</a>
</g>
</g>
<!-- 34372&#45;&gt;41307 -->
<g id="edge22" class="edge"><title>34372&#45;&gt;41307</title>
<path fill="none" stroke="black" d="M973.661,-1051.06C1023.13,-1074.2 1132.36,-1125.29 1181.61,-1148.32"/>
</g>
<!-- 35138 -->
<g id="node51" class="node"><title>35138</title>
<g id="a_node51"><a xlink:title="6th_week">
<ellipse fill="#20ff05" stroke="black" cx="419.171" cy="-1006.18" rx="32.4942" ry="18"/>
<text text-anchor="middle" x="419.171" y="-1002.48" font-family="Times,serif" font-size="14.00">35138</text>
</a>
</g>
</g>
<!-- 35138&#45;&gt;39679 -->
<g id="edge37" class="edge"><title>35138&#45;&gt;39679</title>
<path fill="none" stroke="black" d="M444.632,-994.743C492.009,-973.454 593.173,-927.997 640.444,-906.756"/>
</g>
<!-- 36170 -->
<g id="node55" class="node"><title>36170</title>
<g id="a_node55"><a xlink:title="6th_week">
<ellipse fill="grey" stroke="black" cx="327.312" cy="-797.132" rx="32.4942" ry="18"/>
<text text-anchor="middle" x="327.312" y="-793.432" font-family="Times,serif" font-size="14.00">36170</text>
</a>
</g>
</g>
<!-- 36170&#45;&gt;39679 -->
<g id="edge28" class="edge"><title>36170&#45;&gt;39679</title>
<path fill="none" stroke="black" d="M356.169,-805.508C419.952,-824.023 572.344,-868.259 636.503,-886.883"/>
</g>
<!-- 40776 -->
<g id="node63" class="node"><title>40776</title>
<g id="a_node63"><a xlink:title="6th_week">
<ellipse fill="grey" stroke="black" cx="88.7058" cy="-724.735" rx="32.4942" ry="18"/>
<text text-anchor="middle" x="88.7058" y="-721.035" font-family="Times,serif" font-size="14.00">40776</text>
</a>
</g>
</g>
<!-- 36170&#45;&gt;40776 -->
<g id="edge54" class="edge"><title>36170&#45;&gt;40776</title>
<path fill="none" stroke="black" d="M298.531,-788.399C252.545,-774.447 163.033,-747.287 117.218,-733.386"/>
</g>
<!-- 36303 -->
<g id="node56" class="node"><title>36303</title>
<g id="a_node56"><a xlink:title="6th_week">
<ellipse fill="#20ff05" stroke="black" cx="484.908" cy="-696.062" rx="32.4942" ry="18"/>
<text text-anchor="middle" x="484.908" y="-692.362" font-family="Times,serif" font-size="14.00">36303</text>
</a>
</g>
</g>
<!-- 36303&#45;&gt;39679 -->
<g id="edge57" class="edge"><title>36303&#45;&gt;39679</title>
<path fill="none" stroke="black" d="M499.708,-712.373C533.707,-749.841 617.065,-841.705 651.016,-879.121"/>
</g>
<!-- 38668&#45;&gt;39679 -->
<g id="edge41" class="edge"><title>38668&#45;&gt;39679</title>
<path fill="none" stroke="black" d="M518.159,-1214.04C545.013,-1156.07 630.495,-971.524 657.505,-913.215"/>
</g>
<!-- 38857 -->
<g id="node59" class="node"><title>38857</title>
<g id="a_node59"><a xlink:title="6th_week">
<ellipse fill="#20ff05" stroke="black" cx="661.974" cy="-1081.32" rx="32.4942" ry="18"/>
<text text-anchor="middle" x="661.974" y="-1077.62" font-family="Times,serif" font-size="14.00">38857</text>
</a>
</g>
</g>
<!-- 38857&#45;&gt;39679 -->
<g id="edge10" class="edge"><title>38857&#45;&gt;39679</title>
<path fill="none" stroke="black" d="M662.345,-1063.15C663.07,-1027.6 664.669,-949.226 665.395,-913.619"/>
</g>
<!-- 41045 -->
<g id="node64" class="node"><title>41045</title>
<g id="a_node64"><a xlink:title="6th_week">
<ellipse fill="#20ff05" stroke="black" cx="750.647" cy="-1118.91" rx="32.4942" ry="18"/>
<text text-anchor="middle" x="750.647" y="-1115.21" font-family="Times,serif" font-size="14.00">41045</text>
</a>
</g>
</g>
<!-- 39679&#45;&gt;41045 -->
<g id="edge39" class="edge"><title>39679&#45;&gt;41045</title>
<path fill="none" stroke="black" d="M672.57,-913.292C688.502,-955.25 728.082,-1059.48 743.93,-1101.22"/>
</g>
<!-- 39679&#45;&gt;42703 -->
<g id="edge36" class="edge"><title>39679&#45;&gt;42703</title>
<path fill="none" stroke="black" d="M659.608,-877.538C638.879,-817.49 571.782,-623.131 551.071,-563.138"/>
</g>
<!-- 43076 -->
<g id="node68" class="node"><title>43076</title>
<g id="a_node68"><a xlink:title="6th_week">
<ellipse fill="grey" stroke="black" cx="875.945" cy="-994.092" rx="32.4942" ry="18"/>
<text text-anchor="middle" x="875.945" y="-990.392" font-family="Times,serif" font-size="14.00">43076</text>
</a>
</g>
</g>
<!-- 39679&#45;&gt;43076 -->
<g id="edge42" class="edge"><title>39679&#45;&gt;43076</title>
<path fill="none" stroke="black" d="M690.703,-907.089C731.153,-926.088 810.612,-963.407 851.042,-982.396"/>
</g>
<!-- 43645 -->
<g id="node69" class="node"><title>43645</title>
<g id="a_node69"><a xlink:title="6th_week">
<ellipse fill="#20ff05" stroke="black" cx="652.078" cy="-1221.12" rx="32.4942" ry="18"/>
<text text-anchor="middle" x="652.078" y="-1217.42" font-family="Times,serif" font-size="14.00">43645</text>
</a>
</g>
</g>
<!-- 39679&#45;&gt;43645 -->
<g id="edge56" class="edge"><title>39679&#45;&gt;43645</title>
<path fill="none" stroke="black" d="M664.992,-913.824C662.583,-971.159 655.243,-1145.82 652.845,-1202.88"/>
</g>
<!-- 44612 -->
<g id="node70" class="node"><title>44612</title>
<g id="a_node70"><a xlink:title="6th_week">
<ellipse fill="#20ff05" stroke="black" cx="742.485" cy="-636.958" rx="32.4942" ry="18"/>
<text text-anchor="middle" x="742.485" y="-633.258" font-family="Times,serif" font-size="14.00">44612</text>
</a>
</g>
</g>
<!-- 39679&#45;&gt;44612 -->
<g id="edge68" class="edge"><title>39679&#45;&gt;44612</title>
<path fill="none" stroke="black" d="M671.04,-877.615C685.055,-830.406 723.118,-702.196 737.175,-654.845"/>
</g>
<!-- 45651 -->
<g id="node71" class="node"><title>45651</title>
<g id="a_node71"><a xlink:title="6th_week">
<ellipse fill="#20ff05" stroke="black" cx="427.016" cy="-805.196" rx="32.4942" ry="18"/>
<text text-anchor="middle" x="427.016" y="-801.496" font-family="Times,serif" font-size="14.00">45651</text>
</a>
</g>
</g>
<!-- 39679&#45;&gt;45651 -->
<g id="edge47" class="edge"><title>39679&#45;&gt;45651</title>
<path fill="none" stroke="black" d="M638.844,-885.208C592.99,-867.888 500.244,-832.856 454.208,-815.467"/>
</g>
<!-- 40765 -->
<g id="node62" class="node"><title>40765</title>
<g id="a_node62"><a xlink:title="6th_week">
<ellipse fill="#ffffff" stroke="black" cx="660.274" cy="-1502.14" rx="32.4942" ry="18"/>
<text text-anchor="middle" x="660.274" y="-1498.44" font-family="Times,serif" font-size="14.00">40765</text>
</a>
</g>
</g>
<!-- 40765&#45;&gt;43645 -->
<g id="edge40" class="edge"><title>40765&#45;&gt;43645</title>
<path fill="none" stroke="black" d="M659.749,-1484.13C658.272,-1433.5 654.094,-1290.24 652.61,-1239.34"/>
</g>
</g>
</svg>
