<?xml version="1.0" encoding="UTF-8" standalone="no"?>
<!DOCTYPE svg PUBLIC "-//W3C//DTD SVG 1.1//EN"
 "http://www.w3.org/Graphics/SVG/1.1/DTD/svg11.dtd">
<!-- Generated by graphviz version 2.38.0 (20140413.2041)
 -->
<!-- Title: %3 Pages: 1 -->
<svg width="1674pt" height="3052pt"
 viewBox="0.00 0.00 1674.00 3052.00" xmlns="http://www.w3.org/2000/svg" xmlns:xlink="http://www.w3.org/1999/xlink">
<g id="graph0" class="graph" transform="scale(1 1) rotate(0) translate(4 3048)">
<title>%3</title>
<polygon fill="white" stroke="none" points="-4,4 -4,-3048 1670,-3048 1670,4 -4,4"/>
<!-- 9 -->
<g id="node1" class="node"><title>9</title>
<g id="a_node1"><a xlink:title="Day_0">
<ellipse fill="#20ff05" stroke="black" cx="1088.26" cy="-369.391" rx="27" ry="18"/>
<text text-anchor="middle" x="1088.26" y="-365.691" font-family="Times,serif" font-size="14.00">9</text>
</a>
</g>
</g>
<!-- 23808 -->
<g id="node16" class="node"><title>23808</title>
<g id="a_node16"><a xlink:title="Day_0">
<ellipse fill="#20ff05" stroke="black" cx="994.236" cy="-497.593" rx="32.4942" ry="18"/>
<text text-anchor="middle" x="994.236" y="-493.893" font-family="Times,serif" font-size="14.00">23808</text>
</a>
</g>
</g>
<!-- 9&#45;&gt;23808 -->
<g id="edge60" class="edge"><title>9&#45;&gt;23808</title>
<path fill="none" stroke="black" d="M1076.36,-385.628C1058.47,-410.019 1024.82,-455.89 1006.65,-480.675"/>
</g>
<!-- 544 -->
<g id="node2" class="node"><title>544</title>
<g id="a_node2"><a xlink:title="Day_0">
<ellipse fill="#20ff05" stroke="black" cx="935.6" cy="-315.846" rx="27" ry="18"/>
<text text-anchor="middle" x="935.6" y="-312.146" font-family="Times,serif" font-size="14.00">544</text>
</a>
</g>
</g>
<!-- 544&#45;&gt;23808 -->
<g id="edge68" class="edge"><title>544&#45;&gt;23808</title>
<path fill="none" stroke="black" d="M941.329,-333.603C952.539,-368.349 977.256,-444.96 988.484,-479.764"/>
</g>
<!-- 2279 -->
<g id="node3" class="node"><title>2279</title>
<g id="a_node3"><a xlink:title="Day_0">
<ellipse fill="#20ff05" stroke="black" cx="846.421" cy="-550.11" rx="28.6953" ry="18"/>
<text text-anchor="middle" x="846.421" y="-546.41" font-family="Times,serif" font-size="14.00">2279</text>
</a>
</g>
</g>
<!-- 2279&#45;&gt;23808 -->
<g id="edge43" class="edge"><title>2279&#45;&gt;23808</title>
<path fill="none" stroke="black" d="M871.496,-541.202C897.936,-531.808 939.468,-517.052 966.776,-507.35"/>
</g>
<!-- 5188 -->
<g id="node4" class="node"><title>5188</title>
<g id="a_node4"><a xlink:title="Day_0">
<ellipse fill="#ffffff" stroke="black" cx="1162.28" cy="-357.32" rx="28.6953" ry="18"/>
<text text-anchor="middle" x="1162.28" y="-353.62" font-family="Times,serif" font-size="14.00">5188</text>
</a>
</g>
</g>
<!-- 5188&#45;&gt;23808 -->
<g id="edge24" class="edge"><title>5188&#45;&gt;23808</title>
<path fill="none" stroke="black" d="M1144.93,-371.803C1112.89,-398.543 1044.78,-455.404 1012.25,-482.555"/>
</g>
<!-- 5931 -->
<g id="node5" class="node"><title>5931</title>
<g id="a_node5"><a xlink:title="Day_0">
<ellipse fill="grey" stroke="black" cx="1139.21" cy="-556.526" rx="28.6953" ry="18"/>
<text text-anchor="middle" x="1139.21" y="-552.826" font-family="Times,serif" font-size="14.00">5931</text>
</a>
</g>
</g>
<!-- 5931&#45;&gt;23808 -->
<g id="edge7" class="edge"><title>5931&#45;&gt;23808</title>
<path fill="none" stroke="black" d="M1114.94,-546.662C1088.83,-536.045 1047.43,-519.216 1020.54,-508.288"/>
</g>
<!-- 7371 -->
<g id="node6" class="node"><title>7371</title>
<g id="a_node6"><a xlink:title="Day_0">
<ellipse fill="#20ff05" stroke="black" cx="888.818" cy="-382.423" rx="28.6953" ry="18"/>
<text text-anchor="middle" x="888.818" y="-378.723" font-family="Times,serif" font-size="14.00">7371</text>
</a>
</g>
</g>
<!-- 7371&#45;&gt;23808 -->
<g id="edge4" class="edge"><title>7371&#45;&gt;23808</title>
<path fill="none" stroke="black" d="M903.476,-398.437C923.503,-420.317 959.224,-459.342 979.363,-481.344"/>
</g>
<!-- 9291 -->
<g id="node7" class="node"><title>9291</title>
<g id="a_node7"><a xlink:title="PRE">
<ellipse fill="#20ff05" stroke="black" cx="834.949" cy="-845.205" rx="28.6953" ry="18"/>
<text text-anchor="middle" x="834.949" y="-841.505" font-family="Times,serif" font-size="14.00">9291</text>
</a>
</g>
</g>
<!-- 13733 -->
<g id="node10" class="node"><title>13733</title>
<g id="a_node10"><a xlink:title="PRE">
<ellipse fill="#20ff05" stroke="black" cx="961.973" cy="-925.867" rx="32.4942" ry="18"/>
<text text-anchor="middle" x="961.973" y="-922.167" font-family="Times,serif" font-size="14.00">13733</text>
</a>
</g>
</g>
<!-- 9291&#45;&gt;13733 -->
<g id="edge28" class="edge"><title>9291&#45;&gt;13733</title>
<path fill="none" stroke="black" d="M855.358,-858.165C878.641,-872.95 916.557,-897.027 940.34,-912.13"/>
</g>
<!-- 12448 -->
<g id="node8" class="node"><title>12448</title>
<g id="a_node8"><a xlink:title="Day_0">
<ellipse fill="#20ff05" stroke="black" cx="1012.33" cy="-289.235" rx="32.4942" ry="18"/>
<text text-anchor="middle" x="1012.33" y="-285.535" font-family="Times,serif" font-size="14.00">12448</text>
</a>
</g>
</g>
<!-- 12448&#45;&gt;23808 -->
<g id="edge25" class="edge"><title>12448&#45;&gt;23808</title>
<path fill="none" stroke="black" d="M1010.76,-307.361C1007.34,-346.766 999.251,-439.859 995.82,-479.361"/>
</g>
<!-- 13698 -->
<g id="node9" class="node"><title>13698</title>
<g id="a_node9"><a xlink:title="Day_0">
<ellipse fill="grey" stroke="black" cx="1106.01" cy="-298.161" rx="32.4942" ry="18"/>
<text text-anchor="middle" x="1106.01" y="-294.461" font-family="Times,serif" font-size="14.00">13698</text>
</a>
</g>
</g>
<!-- 13698&#45;&gt;23808 -->
<g id="edge64" class="edge"><title>13698&#45;&gt;23808</title>
<path fill="none" stroke="black" d="M1096.29,-315.511C1075.15,-353.228 1025.21,-442.333 1004.02,-480.142"/>
</g>
<!-- 13733&#45;&gt;23808 -->
<g id="edge10" class="edge"><title>13733&#45;&gt;23808</title>
<path fill="none" stroke="black" d="M963.339,-907.738C968.604,-837.845 987.555,-586.281 992.852,-515.966"/>
</g>
<!-- 14317 -->
<g id="node21" class="node"><title>14317</title>
<g id="a_node21"><a xlink:title="Day_0">
<ellipse fill="#20ff05" stroke="black" cx="942.155" cy="-1369.9" rx="32.4942" ry="18"/>
<text text-anchor="middle" x="942.155" y="-1366.2" font-family="Times,serif" font-size="14.00">14317</text>
</a>
</g>
</g>
<!-- 13733&#45;&gt;14317 -->
<g id="edge65" class="edge"><title>13733&#45;&gt;14317</title>
<path fill="none" stroke="black" d="M961.159,-944.102C957.947,-1016.07 946.169,-1279.96 942.965,-1351.76"/>
</g>
<!-- 14331 -->
<g id="node11" class="node"><title>14331</title>
<g id="a_node11"><a xlink:title="Day_0">
<ellipse fill="#ffffff" stroke="black" cx="1189.17" cy="-417.76" rx="32.4942" ry="18"/>
<text text-anchor="middle" x="1189.17" y="-414.06" font-family="Times,serif" font-size="14.00">14331</text>
</a>
</g>
</g>
<!-- 14331&#45;&gt;23808 -->
<g id="edge31" class="edge"><title>14331&#45;&gt;23808</title>
<path fill="none" stroke="black" d="M1162.88,-428.526C1125.58,-443.806 1057.67,-471.614 1020.42,-486.87"/>
</g>
<!-- 15615 -->
<g id="node12" class="node"><title>15615</title>
<g id="a_node12"><a xlink:title="Day_0">
<ellipse fill="#20ff05" stroke="black" cx="844.851" cy="-317.007" rx="32.4942" ry="18"/>
<text text-anchor="middle" x="844.851" y="-313.307" font-family="Times,serif" font-size="14.00">15615</text>
</a>
</g>
</g>
<!-- 15615&#45;&gt;23808 -->
<g id="edge58" class="edge"><title>15615&#45;&gt;23808</title>
<path fill="none" stroke="black" d="M858.637,-333.673C887.168,-368.162 952.384,-446.999 980.699,-481.229"/>
</g>
<!-- 16126 -->
<g id="node13" class="node"><title>16126</title>
<g id="a_node13"><a xlink:title="Day_0">
<ellipse fill="#20ff05" stroke="black" cx="856.634" cy="-50.2362" rx="32.4942" ry="18"/>
<text text-anchor="middle" x="856.634" y="-46.5362" font-family="Times,serif" font-size="14.00">16126</text>
</a>
</g>
</g>
<!-- 30287 -->
<g id="node20" class="node"><title>30287</title>
<g id="a_node20"><a xlink:title="Day_0">
<ellipse fill="#20ff05" stroke="black" cx="914.179" cy="-235.823" rx="32.4942" ry="18"/>
<text text-anchor="middle" x="914.179" y="-232.123" font-family="Times,serif" font-size="14.00">30287</text>
</a>
</g>
</g>
<!-- 16126&#45;&gt;30287 -->
<g id="edge57" class="edge"><title>16126&#45;&gt;30287</title>
<path fill="none" stroke="black" d="M862.151,-68.031C873.151,-103.504 897.693,-182.653 908.678,-218.082"/>
</g>
<!-- 17045 -->
<g id="node14" class="node"><title>17045</title>
<g id="a_node14"><a xlink:title="Day_0">
<ellipse fill="#20ff05" stroke="black" cx="1127.8" cy="-18.445" rx="32.4942" ry="18"/>
<text text-anchor="middle" x="1127.8" y="-14.745" font-family="Times,serif" font-size="14.00">17045</text>
</a>
</g>
</g>
<!-- 25031 -->
<g id="node17" class="node"><title>25031</title>
<g id="a_node17"><a xlink:title="Day_0">
<ellipse fill="#20ff05" stroke="black" cx="1062.96" cy="-234.372" rx="32.4942" ry="18"/>
<text text-anchor="middle" x="1062.96" y="-230.672" font-family="Times,serif" font-size="14.00">25031</text>
</a>
</g>
</g>
<!-- 17045&#45;&gt;25031 -->
<g id="edge30" class="edge"><title>17045&#45;&gt;25031</title>
<path fill="none" stroke="black" d="M1122.39,-36.4833C1110.15,-77.2296 1080.49,-175.984 1068.31,-216.536"/>
</g>
<!-- 17912 -->
<g id="node15" class="node"><title>17912</title>
<g id="a_node15"><a xlink:title="Day_0">
<ellipse fill="#ffffff" stroke="black" cx="1185.95" cy="-487.076" rx="32.4942" ry="18"/>
<text text-anchor="middle" x="1185.95" y="-483.376" font-family="Times,serif" font-size="14.00">17912</text>
</a>
</g>
</g>
<!-- 17912&#45;&gt;23808 -->
<g id="edge51" class="edge"><title>17912&#45;&gt;23808</title>
<path fill="none" stroke="black" d="M1153.43,-488.86C1118.07,-490.8 1061.89,-493.882 1026.6,-495.818"/>
</g>
<!-- 23808&#45;&gt;25031 -->
<g id="edge5" class="edge"><title>23808&#45;&gt;25031</title>
<path fill="none" stroke="black" d="M998.96,-479.501C1011.54,-431.298 1045.77,-300.19 1058.29,-252.242"/>
</g>
<!-- 27150 -->
<g id="node18" class="node"><title>27150</title>
<g id="a_node18"><a xlink:title="Day_0">
<ellipse fill="#20ff05" stroke="black" cx="791.084" cy="-408.918" rx="32.4942" ry="18"/>
<text text-anchor="middle" x="791.084" y="-405.218" font-family="Times,serif" font-size="14.00">27150</text>
</a>
</g>
</g>
<!-- 23808&#45;&gt;27150 -->
<g id="edge45" class="edge"><title>23808&#45;&gt;27150</title>
<path fill="none" stroke="black" d="M968.507,-486.363C929.536,-469.352 855.96,-437.236 816.924,-420.197"/>
</g>
<!-- 28854 -->
<g id="node19" class="node"><title>28854</title>
<g id="a_node19"><a xlink:title="Day_0">
<ellipse fill="#20ff05" stroke="black" cx="798.647" cy="-475.271" rx="32.4942" ry="18"/>
<text text-anchor="middle" x="798.647" y="-471.571" font-family="Times,serif" font-size="14.00">28854</text>
</a>
</g>
</g>
<!-- 23808&#45;&gt;28854 -->
<g id="edge40" class="edge"><title>23808&#45;&gt;28854</title>
<path fill="none" stroke="black" d="M962.376,-493.957C926.005,-489.806 866.859,-483.056 830.493,-478.905"/>
</g>
<!-- 23808&#45;&gt;30287 -->
<g id="edge6" class="edge"><title>23808&#45;&gt;30287</title>
<path fill="none" stroke="black" d="M988.734,-479.601C974.073,-431.664 934.198,-301.278 919.615,-253.595"/>
</g>
<!-- 21175 -->
<g id="node22" class="node"><title>21175</title>
<g id="a_node22"><a xlink:title="Day_0">
<ellipse fill="#20ff05" stroke="black" cx="1216.57" cy="-1257.12" rx="32.4942" ry="18"/>
<text text-anchor="middle" x="1216.57" y="-1253.42" font-family="Times,serif" font-size="14.00">21175</text>
</a>
</g>
</g>
<!-- 14317&#45;&gt;21175 -->
<g id="edge47" class="edge"><title>14317&#45;&gt;21175</title>
<path fill="none" stroke="black" d="M968.467,-1359.09C1020.92,-1337.53 1137.95,-1289.43 1190.34,-1267.9"/>
</g>
<!-- 1951 -->
<g id="node25" class="node"><title>1951</title>
<g id="a_node25"><a xlink:title="3rd_week,Day_0">
<ellipse fill="#20ff05" stroke="black" cx="827.234" cy="-1813.21" rx="28.6832" ry="18"/>
<ellipse fill="none" stroke="black" cx="827.234" cy="-1813.21" rx="32.6952" ry="22"/>
<text text-anchor="middle" x="827.234" y="-1809.51" font-family="Times,serif" font-size="14.00">1951</text>
</a>
</g>
</g>
<!-- 14317&#45;&gt;1951 -->
<g id="edge33" class="edge"><title>14317&#45;&gt;1951</title>
<path fill="none" stroke="black" d="M937.508,-1387.83C919.283,-1458.13 852.721,-1714.9 832.863,-1791.5"/>
</g>
<!-- 14206 -->
<g id="node49" class="node"><title>14206</title>
<g id="a_node49"><a xlink:title="6th_week">
<ellipse fill="#20ff05" stroke="black" cx="1427.15" cy="-1191.54" rx="32.4942" ry="18"/>
<text text-anchor="middle" x="1427.15" y="-1187.84" font-family="Times,serif" font-size="14.00">14206</text>
</a>
</g>
</g>
<!-- 21175&#45;&gt;14206 -->
<g id="edge55" class="edge"><title>21175&#45;&gt;14206</title>
<path fill="none" stroke="black" d="M1244.97,-1248.28C1285.16,-1235.76 1358.22,-1213.01 1398.53,-1200.46"/>
</g>
<!-- 17035 -->
<g id="node55" class="node"><title>17035</title>
<g id="a_node55"><a xlink:title="Day_0">
<ellipse fill="#20ff05" stroke="black" cx="1386.57" cy="-1269.9" rx="32.4942" ry="18"/>
<text text-anchor="middle" x="1386.57" y="-1266.2" font-family="Times,serif" font-size="14.00">17035</text>
</a>
</g>
</g>
<!-- 21175&#45;&gt;17035 -->
<g id="edge38" class="edge"><title>21175&#45;&gt;17035</title>
<path fill="none" stroke="black" d="M1248.94,-1259.55C1279.19,-1261.83 1324.1,-1265.2 1354.31,-1267.48"/>
</g>
<!-- 26377 -->
<g id="node61" class="node"><title>26377</title>
<g id="a_node61"><a xlink:title="Day_0">
<ellipse fill="#20ff05" stroke="black" cx="1329.94" cy="-1132.33" rx="32.4942" ry="18"/>
<text text-anchor="middle" x="1329.94" y="-1128.63" font-family="Times,serif" font-size="14.00">26377</text>
</a>
</g>
</g>
<!-- 21175&#45;&gt;26377 -->
<g id="edge46" class="edge"><title>21175&#45;&gt;26377</title>
<path fill="none" stroke="black" d="M1231.39,-1240.81C1253.12,-1216.89 1293.39,-1172.57 1315.12,-1148.65"/>
</g>
<!-- 1275 -->
<g id="node23" class="node"><title>1275</title>
<g id="a_node23"><a xlink:title="Day_0">
<ellipse fill="#20ff05" stroke="black" cx="792.657" cy="-2155.25" rx="28.6953" ry="18"/>
<text text-anchor="middle" x="792.657" y="-2151.55" font-family="Times,serif" font-size="14.00">1275</text>
</a>
</g>
</g>
<!-- 1275&#45;&gt;1951 -->
<g id="edge41" class="edge"><title>1275&#45;&gt;1951</title>
<path fill="none" stroke="black" d="M794.516,-2136.86C800.408,-2078.58 818.65,-1898.13 825.015,-1835.16"/>
</g>
<!-- 5068 -->
<g id="node33" class="node"><title>5068</title>
<g id="a_node33"><a xlink:title="6th_week">
<ellipse fill="#20ff05" stroke="black" cx="780.899" cy="-2493.74" rx="28.6953" ry="18"/>
<text text-anchor="middle" x="780.899" y="-2490.04" font-family="Times,serif" font-size="14.00">5068</text>
</a>
</g>
</g>
<!-- 1275&#45;&gt;5068 -->
<g id="edge29" class="edge"><title>1275&#45;&gt;5068</title>
<path fill="none" stroke="black" d="M792.025,-2173.45C789.984,-2232.22 783.581,-2416.55 781.535,-2475.45"/>
</g>
<!-- 1531 -->
<g id="node24" class="node"><title>1531</title>
<g id="a_node24"><a xlink:title="Day_0">
<ellipse fill="#20ff05" stroke="black" cx="1010.32" cy="-2022.98" rx="28.6953" ry="18"/>
<text text-anchor="middle" x="1010.32" y="-2019.28" font-family="Times,serif" font-size="14.00">1531</text>
</a>
</g>
</g>
<!-- 1531&#45;&gt;1951 -->
<g id="edge49" class="edge"><title>1531&#45;&gt;1951</title>
<path fill="none" stroke="black" d="M996.258,-2006.87C963.015,-1968.78 879.702,-1873.33 843.954,-1832.37"/>
</g>
<!-- 27746 -->
<g id="node64" class="node"><title>27746</title>
<g id="a_node64"><a xlink:title="Day_0">
<ellipse fill="#ffffff" stroke="black" cx="1126.47" cy="-2213.89" rx="32.4942" ry="18"/>
<text text-anchor="middle" x="1126.47" y="-2210.19" font-family="Times,serif" font-size="14.00">27746</text>
</a>
</g>
</g>
<!-- 1531&#45;&gt;27746 -->
<g id="edge35" class="edge"><title>1531&#45;&gt;27746</title>
<path fill="none" stroke="black" d="M1020.63,-2039.92C1042.61,-2076.06 1093.9,-2160.37 1116.02,-2196.71"/>
</g>
<!-- 30025 -->
<g id="node68" class="node"><title>30025</title>
<g id="a_node68"><a xlink:title="Day_0">
<ellipse fill="#20ff05" stroke="black" cx="1198.67" cy="-2155.16" rx="32.4942" ry="18"/>
<text text-anchor="middle" x="1198.67" y="-2151.46" font-family="Times,serif" font-size="14.00">30025</text>
</a>
</g>
</g>
<!-- 1531&#45;&gt;30025 -->
<g id="edge3" class="edge"><title>1531&#45;&gt;30025</title>
<path fill="none" stroke="black" d="M1029.42,-2036.38C1065.14,-2061.45 1141.77,-2115.23 1178.38,-2140.92"/>
</g>
<!-- 2158 -->
<g id="node26" class="node"><title>2158</title>
<g id="a_node26"><a xlink:title="Day_0">
<ellipse fill="#20ff05" stroke="black" cx="624.516" cy="-1883.39" rx="28.6953" ry="18"/>
<text text-anchor="middle" x="624.516" y="-1879.69" font-family="Times,serif" font-size="14.00">2158</text>
</a>
</g>
</g>
<!-- 1951&#45;&gt;2158 -->
<g id="edge62" class="edge"><title>1951&#45;&gt;2158</title>
<path fill="none" stroke="black" d="M798.189,-1823.27C758.339,-1837.06 687.37,-1861.63 649.672,-1874.68"/>
</g>
<!-- 2250 -->
<g id="node27" class="node"><title>2250</title>
<g id="a_node27"><a xlink:title="Day_0">
<ellipse fill="#20ff05" stroke="black" cx="1077.51" cy="-1865.44" rx="28.6953" ry="18"/>
<text text-anchor="middle" x="1077.51" y="-1861.74" font-family="Times,serif" font-size="14.00">2250</text>
</a>
</g>
</g>
<!-- 1951&#45;&gt;2250 -->
<g id="edge59" class="edge"><title>1951&#45;&gt;2250</title>
<path fill="none" stroke="black" d="M858.426,-1819.72C907.828,-1830.03 1003.26,-1849.95 1050.15,-1859.73"/>
</g>
<!-- 3240 -->
<g id="node28" class="node"><title>3240</title>
<g id="a_node28"><a xlink:title="Day_0">
<ellipse fill="#20ff05" stroke="black" cx="729.232" cy="-1953.67" rx="28.6953" ry="18"/>
<text text-anchor="middle" x="729.232" y="-1949.97" font-family="Times,serif" font-size="14.00">3240</text>
</a>
</g>
</g>
<!-- 1951&#45;&gt;3240 -->
<g id="edge44" class="edge"><title>1951&#45;&gt;3240</title>
<path fill="none" stroke="black" d="M813.193,-1833.34C793.716,-1861.25 758.863,-1911.21 740.798,-1937.1"/>
</g>
<!-- 4090 -->
<g id="node29" class="node"><title>4090</title>
<g id="a_node29"><a xlink:title="Day_0">
<ellipse fill="#20ff05" stroke="black" cx="691.7" cy="-1790.94" rx="28.6953" ry="18"/>
<text text-anchor="middle" x="691.7" y="-1787.24" font-family="Times,serif" font-size="14.00">4090</text>
</a>
</g>
</g>
<!-- 1951&#45;&gt;4090 -->
<g id="edge20" class="edge"><title>1951&#45;&gt;4090</title>
<path fill="none" stroke="black" d="M795.457,-1807.99C772.454,-1804.21 741.657,-1799.15 719.602,-1795.53"/>
</g>
<!-- 4600 -->
<g id="node30" class="node"><title>4600</title>
<g id="a_node30"><a xlink:title="Day_0">
<ellipse fill="#20ff05" stroke="black" cx="936.422" cy="-1716.57" rx="28.6953" ry="18"/>
<text text-anchor="middle" x="936.422" y="-1712.87" font-family="Times,serif" font-size="14.00">4600</text>
</a>
</g>
</g>
<!-- 1951&#45;&gt;4600 -->
<g id="edge27" class="edge"><title>1951&#45;&gt;4600</title>
<path fill="none" stroke="black" d="M847.007,-1795.71C867.779,-1777.33 900.093,-1748.73 919.657,-1731.41"/>
</g>
<!-- 4811 -->
<g id="node31" class="node"><title>4811</title>
<g id="a_node31"><a xlink:title="Day_0">
<ellipse fill="#20ff05" stroke="black" cx="696.262" cy="-1616.58" rx="28.6953" ry="18"/>
<text text-anchor="middle" x="696.262" y="-1612.88" font-family="Times,serif" font-size="14.00">4811</text>
</a>
</g>
</g>
<!-- 1951&#45;&gt;4811 -->
<g id="edge37" class="edge"><title>1951&#45;&gt;4811</title>
<path fill="none" stroke="black" d="M813.711,-1792.91C787.764,-1753.95 731.441,-1669.4 707.449,-1633.38"/>
</g>
<!-- 5028 -->
<g id="node32" class="node"><title>5028</title>
<g id="a_node32"><a xlink:title="Day_0">
<ellipse fill="grey" stroke="black" cx="978.767" cy="-1924.43" rx="28.6953" ry="18"/>
<text text-anchor="middle" x="978.767" y="-1920.73" font-family="Times,serif" font-size="14.00">5028</text>
</a>
</g>
</g>
<!-- 1951&#45;&gt;5028 -->
<g id="edge61" class="edge"><title>1951&#45;&gt;5028</title>
<path fill="none" stroke="black" d="M849.593,-1829.62C879.56,-1851.62 932.206,-1890.25 960.139,-1910.75"/>
</g>
<!-- 6613 -->
<g id="node34" class="node"><title>6613</title>
<g id="a_node34"><a xlink:title="Day_0">
<ellipse fill="#20ff05" stroke="black" cx="607.408" cy="-1736.18" rx="28.6953" ry="18"/>
<text text-anchor="middle" x="607.408" y="-1732.48" font-family="Times,serif" font-size="14.00">6613</text>
</a>
</g>
</g>
<!-- 1951&#45;&gt;6613 -->
<g id="edge22" class="edge"><title>1951&#45;&gt;6613</title>
<path fill="none" stroke="black" d="M798.043,-1802.98C754.597,-1787.76 673.648,-1759.39 632.628,-1745.02"/>
</g>
<!-- 6806 -->
<g id="node36" class="node"><title>6806</title>
<g id="a_node36"><a xlink:title="Day_0">
<ellipse fill="#20ff05" stroke="black" cx="646.371" cy="-1943.95" rx="28.6953" ry="18"/>
<text text-anchor="middle" x="646.371" y="-1940.25" font-family="Times,serif" font-size="14.00">6806</text>
</a>
</g>
</g>
<!-- 1951&#45;&gt;6806 -->
<g id="edge23" class="edge"><title>1951&#45;&gt;6806</title>
<path fill="none" stroke="black" d="M804.693,-1829.51C768.71,-1855.52 698.929,-1905.96 665.34,-1930.24"/>
</g>
<!-- 7037 -->
<g id="node37" class="node"><title>7037</title>
<g id="a_node37"><a xlink:title="Day_0">
<ellipse fill="#20ff05" stroke="black" cx="978.561" cy="-1662.9" rx="28.6953" ry="18"/>
<text text-anchor="middle" x="978.561" y="-1659.2" font-family="Times,serif" font-size="14.00">7037</text>
</a>
</g>
</g>
<!-- 1951&#45;&gt;7037 -->
<g id="edge63" class="edge"><title>1951&#45;&gt;7037</title>
<path fill="none" stroke="black" d="M845.79,-1794.78C875.938,-1764.83 935.007,-1706.16 963.06,-1678.3"/>
</g>
<!-- 7250 -->
<g id="node38" class="node"><title>7250</title>
<g id="a_node38"><a xlink:title="3rd_week">
<ellipse fill="#20ff05" stroke="black" cx="710.498" cy="-1677.17" rx="28.6953" ry="18"/>
<text text-anchor="middle" x="710.498" y="-1673.47" font-family="Times,serif" font-size="14.00">7250</text>
</a>
</g>
</g>
<!-- 1951&#45;&gt;7250 -->
<g id="edge8" class="edge"><title>1951&#45;&gt;7250</title>
<path fill="none" stroke="black" d="M810.756,-1794.01C787.628,-1767.06 745.953,-1718.49 724.34,-1693.31"/>
</g>
<!-- 7441 -->
<g id="node39" class="node"><title>7441</title>
<g id="a_node39"><a xlink:title="Day_0">
<ellipse fill="#20ff05" stroke="black" cx="867.18" cy="-2018.46" rx="28.6953" ry="18"/>
<text text-anchor="middle" x="867.18" y="-2014.76" font-family="Times,serif" font-size="14.00">7441</text>
</a>
</g>
</g>
<!-- 1951&#45;&gt;7441 -->
<g id="edge15" class="edge"><title>1951&#45;&gt;7441</title>
<path fill="none" stroke="black" d="M831.509,-1835.18C839.459,-1876.03 856.373,-1962.94 863.688,-2000.53"/>
</g>
<!-- 8245 -->
<g id="node40" class="node"><title>8245</title>
<g id="a_node40"><a xlink:title="Day_0">
<ellipse fill="#20ff05" stroke="black" cx="837.304" cy="-1973.43" rx="28.6953" ry="18"/>
<text text-anchor="middle" x="837.304" y="-1969.73" font-family="Times,serif" font-size="14.00">8245</text>
</a>
</g>
</g>
<!-- 1951&#45;&gt;8245 -->
<g id="edge42" class="edge"><title>1951&#45;&gt;8245</title>
<path fill="none" stroke="black" d="M828.634,-1835.49C830.645,-1867.47 834.311,-1925.8 836.165,-1955.3"/>
</g>
<!-- 8655 -->
<g id="node41" class="node"><title>8655</title>
<g id="a_node41"><a xlink:title="Day_0">
<ellipse fill="grey" stroke="black" cx="816.999" cy="-1648.96" rx="28.6953" ry="18"/>
<text text-anchor="middle" x="816.999" y="-1645.26" font-family="Times,serif" font-size="14.00">8655</text>
</a>
</g>
</g>
<!-- 1951&#45;&gt;8655 -->
<g id="edge21" class="edge"><title>1951&#45;&gt;8655</title>
<path fill="none" stroke="black" d="M825.854,-1791.06C823.813,-1758.31 820.029,-1697.59 818.137,-1667.23"/>
</g>
<!-- 11600 -->
<g id="node45" class="node"><title>11600</title>
<g id="a_node45"><a xlink:title="Day_0">
<ellipse fill="#20ff05" stroke="black" cx="1012.84" cy="-1732.56" rx="32.4942" ry="18"/>
<text text-anchor="middle" x="1012.84" y="-1728.86" font-family="Times,serif" font-size="14.00">11600</text>
</a>
</g>
</g>
<!-- 1951&#45;&gt;11600 -->
<g id="edge67" class="edge"><title>1951&#45;&gt;11600</title>
<path fill="none" stroke="black" d="M855.021,-1801.14C890.82,-1785.58 952.558,-1758.75 987.254,-1743.68"/>
</g>
<!-- 13831 -->
<g id="node47" class="node"><title>13831</title>
<g id="a_node47"><a xlink:title="3rd_week,Day_0">
<ellipse fill="#20ff05" stroke="black" cx="483.781" cy="-1907.96" rx="32.4945" ry="18"/>
<ellipse fill="none" stroke="black" cx="483.781" cy="-1907.96" rx="36.4942" ry="22"/>
<text text-anchor="middle" x="483.781" y="-1904.26" font-family="Times,serif" font-size="14.00">13831</text>
</a>
</g>
</g>
<!-- 1951&#45;&gt;13831 -->
<g id="edge12" class="edge"><title>1951&#45;&gt;13831</title>
<path fill="none" stroke="black" d="M797.056,-1821.54C732.972,-1839.22 583.723,-1880.39 517.022,-1898.79"/>
</g>
<!-- 14369 -->
<g id="node50" class="node"><title>14369</title>
<g id="a_node50"><a xlink:title="Day_0">
<ellipse fill="grey" stroke="black" cx="693.774" cy="-2009.35" rx="32.4942" ry="18"/>
<text text-anchor="middle" x="693.774" y="-2005.65" font-family="Times,serif" font-size="14.00">14369</text>
</a>
</g>
</g>
<!-- 1951&#45;&gt;14369 -->
<g id="edge26" class="edge"><title>1951&#45;&gt;14369</title>
<path fill="none" stroke="black" d="M813.454,-1833.46C787.081,-1872.22 729.91,-1956.24 705.359,-1992.32"/>
</g>
<!-- 14735 -->
<g id="node51" class="node"><title>14735</title>
<g id="a_node51"><a xlink:title="Day_0">
<ellipse fill="#20ff05" stroke="black" cx="893.771" cy="-1602.02" rx="32.4942" ry="18"/>
<text text-anchor="middle" x="893.771" y="-1598.32" font-family="Times,serif" font-size="14.00">14735</text>
</a>
</g>
</g>
<!-- 1951&#45;&gt;14735 -->
<g id="edge14" class="edge"><title>1951&#45;&gt;14735</title>
<path fill="none" stroke="black" d="M834.104,-1791.41C847.319,-1749.46 876.043,-1658.29 888.179,-1619.76"/>
</g>
<!-- 16809 -->
<g id="node54" class="node"><title>16809</title>
<g id="a_node54"><a xlink:title="Day_0">
<ellipse fill="#20ff05" stroke="black" cx="631.836" cy="-1677.5" rx="32.4942" ry="18"/>
<text text-anchor="middle" x="631.836" y="-1673.8" font-family="Times,serif" font-size="14.00">16809</text>
</a>
</g>
</g>
<!-- 1951&#45;&gt;16809 -->
<g id="edge69" class="edge"><title>1951&#45;&gt;16809</title>
<path fill="none" stroke="black" d="M804.437,-1797.38C765.98,-1770.67 688.829,-1717.09 652.13,-1691.6"/>
</g>
<!-- 19482 -->
<g id="node56" class="node"><title>19482</title>
<g id="a_node56"><a xlink:title="Day_0">
<ellipse fill="#20ff05" stroke="black" cx="776.145" cy="-2026.36" rx="32.4942" ry="18"/>
<text text-anchor="middle" x="776.145" y="-2022.66" font-family="Times,serif" font-size="14.00">19482</text>
</a>
</g>
</g>
<!-- 1951&#45;&gt;19482 -->
<g id="edge13" class="edge"><title>1951&#45;&gt;19482</title>
<path fill="none" stroke="black" d="M821.959,-1835.22C811.812,-1877.55 789.757,-1969.57 780.438,-2008.44"/>
</g>
<!-- 26032 -->
<g id="node60" class="node"><title>26032</title>
<g id="a_node60"><a xlink:title="Day_0">
<ellipse fill="grey" stroke="black" cx="1017.67" cy="-1797" rx="32.4942" ry="18"/>
<text text-anchor="middle" x="1017.67" y="-1793.3" font-family="Times,serif" font-size="14.00">26032</text>
</a>
</g>
</g>
<!-- 1951&#45;&gt;26032 -->
<g id="edge9" class="edge"><title>1951&#45;&gt;26032</title>
<path fill="none" stroke="black" d="M859.971,-1810.43C895.065,-1807.44 950.432,-1802.72 985.36,-1799.75"/>
</g>
<!-- 27677 -->
<g id="node63" class="node"><title>27677</title>
<g id="a_node63"><a xlink:title="Day_0">
<ellipse fill="#20ff05" stroke="black" cx="991.669" cy="-1861.48" rx="32.4942" ry="18"/>
<text text-anchor="middle" x="991.669" y="-1857.78" font-family="Times,serif" font-size="14.00">27677</text>
</a>
</g>
</g>
<!-- 1951&#45;&gt;27677 -->
<g id="edge18" class="edge"><title>1951&#45;&gt;27677</title>
<path fill="none" stroke="black" d="M857.394,-1822.06C887.434,-1830.88 933.225,-1844.32 962.803,-1853"/>
</g>
<!-- 29090 -->
<g id="node65" class="node"><title>29090</title>
<g id="a_node65"><a xlink:title="Day_0">
<ellipse fill="#20ff05" stroke="black" cx="595.119" cy="-1821.77" rx="32.4942" ry="18"/>
<text text-anchor="middle" x="595.119" y="-1818.07" font-family="Times,serif" font-size="14.00">29090</text>
</a>
</g>
</g>
<!-- 1951&#45;&gt;29090 -->
<g id="edge2" class="edge"><title>1951&#45;&gt;29090</title>
<path fill="none" stroke="black" d="M794.47,-1814.42C750.232,-1816.05 671.869,-1818.94 627.716,-1820.57"/>
</g>
<!-- 29274 -->
<g id="node66" class="node"><title>29274</title>
<g id="a_node66"><a xlink:title="Day_0">
<ellipse fill="#20ff05" stroke="black" cx="927.401" cy="-1974.23" rx="32.4942" ry="18"/>
<text text-anchor="middle" x="927.401" y="-1970.53" font-family="Times,serif" font-size="14.00">29274</text>
</a>
</g>
</g>
<!-- 1951&#45;&gt;29274 -->
<g id="edge1" class="edge"><title>1951&#45;&gt;29274</title>
<path fill="none" stroke="black" d="M839.92,-1833.61C859.82,-1865.59 898.019,-1927 916.651,-1956.95"/>
</g>
<!-- 30591 -->
<g id="node70" class="node"><title>30591</title>
<g id="a_node70"><a xlink:title="Day_0">
<ellipse fill="grey" stroke="black" cx="781.891" cy="-1591.03" rx="32.4942" ry="18"/>
<text text-anchor="middle" x="781.891" y="-1587.33" font-family="Times,serif" font-size="14.00">30591</text>
</a>
</g>
</g>
<!-- 1951&#45;&gt;30591 -->
<g id="edge39" class="edge"><title>1951&#45;&gt;30591</title>
<path fill="none" stroke="black" d="M822.721,-1791.1C813.738,-1747.08 793.781,-1649.29 785.55,-1608.96"/>
</g>
<!-- 13639 -->
<g id="node46" class="node"><title>13639</title>
<g id="a_node46"><a xlink:title="Day_0">
<ellipse fill="#ffffff" stroke="black" cx="1299.45" cy="-1916.45" rx="32.4942" ry="18"/>
<text text-anchor="middle" x="1299.45" y="-1912.75" font-family="Times,serif" font-size="14.00">13639</text>
</a>
</g>
</g>
<!-- 2250&#45;&gt;13639 -->
<g id="edge48" class="edge"><title>2250&#45;&gt;13639</title>
<path fill="none" stroke="black" d="M1104.73,-1871.7C1146.4,-1881.27 1225.74,-1899.51 1269.18,-1909.49"/>
</g>
<!-- 27456 -->
<g id="node62" class="node"><title>27456</title>
<g id="a_node62"><a xlink:title="Day_0">
<ellipse fill="#20ff05" stroke="black" cx="770.04" cy="-2800.76" rx="32.4942" ry="18"/>
<text text-anchor="middle" x="770.04" y="-2797.06" font-family="Times,serif" font-size="14.00">27456</text>
</a>
</g>
</g>
<!-- 5068&#45;&gt;27456 -->
<g id="edge50" class="edge"><title>5068&#45;&gt;27456</title>
<path fill="none" stroke="black" d="M780.253,-2512.03C778.321,-2566.63 772.61,-2728.09 770.683,-2782.57"/>
</g>
<!-- 6748 -->
<g id="node35" class="node"><title>6748</title>
<g id="a_node35"><a xlink:title="Day_0">
<ellipse fill="#20ff05" stroke="black" cx="752.814" cy="-3026.25" rx="28.6953" ry="18"/>
<text text-anchor="middle" x="752.814" y="-3022.55" font-family="Times,serif" font-size="14.00">6748</text>
</a>
</g>
</g>
<!-- 6748&#45;&gt;27456 -->
<g id="edge32" class="edge"><title>6748&#45;&gt;27456</title>
<path fill="none" stroke="black" d="M754.195,-3008.18C757.42,-2965.96 765.421,-2861.22 768.653,-2818.92"/>
</g>
<!-- 9013 -->
<g id="node42" class="node"><title>9013</title>
<g id="a_node42"><a xlink:title="Day_0">
<ellipse fill="#20ff05" stroke="black" cx="319.17" cy="-2051.29" rx="28.6953" ry="18"/>
<text text-anchor="middle" x="319.17" y="-2047.59" font-family="Times,serif" font-size="14.00">9013</text>
</a>
</g>
</g>
<!-- 9013&#45;&gt;13831 -->
<g id="edge66" class="edge"><title>9013&#45;&gt;13831</title>
<path fill="none" stroke="black" d="M336.167,-2036.49C366.478,-2010.1 429.771,-1954.99 462.762,-1926.26"/>
</g>
<!-- 9801 -->
<g id="node43" class="node"><title>9801</title>
<g id="a_node43"><a xlink:title="3rd_week">
<ellipse fill="#20ff05" stroke="black" cx="72.1436" cy="-2099.15" rx="28.6953" ry="18"/>
<text text-anchor="middle" x="72.1436" y="-2095.45" font-family="Times,serif" font-size="14.00">9801</text>
</a>
</g>
</g>
<!-- 16220 -->
<g id="node53" class="node"><title>16220</title>
<g id="a_node53"><a xlink:title="Day_0">
<ellipse fill="#20ff05" stroke="black" cx="239.511" cy="-2016" rx="32.4942" ry="18"/>
<text text-anchor="middle" x="239.511" y="-2012.3" font-family="Times,serif" font-size="14.00">16220</text>
</a>
</g>
</g>
<!-- 9801&#45;&gt;16220 -->
<g id="edge11" class="edge"><title>9801&#45;&gt;16220</title>
<path fill="none" stroke="black" d="M94.7155,-2087.94C126.123,-2072.33 182.784,-2044.18 215.129,-2028.11"/>
</g>
<!-- 10563 -->
<g id="node44" class="node"><title>10563</title>
<g id="a_node44"><a xlink:title="Day_0">
<ellipse fill="#20ff05" stroke="black" cx="619.136" cy="-2935.46" rx="32.4942" ry="18"/>
<text text-anchor="middle" x="619.136" y="-2931.76" font-family="Times,serif" font-size="14.00">10563</text>
</a>
</g>
</g>
<!-- 10563&#45;&gt;27456 -->
<g id="edge34" class="edge"><title>10563&#45;&gt;27456</title>
<path fill="none" stroke="black" d="M636.447,-2920.01C665.401,-2894.16 723.338,-2842.45 752.466,-2816.44"/>
</g>
<!-- 13831&#45;&gt;16220 -->
<g id="edge36" class="edge"><title>13831&#45;&gt;16220</title>
<path fill="none" stroke="black" d="M454.316,-1920.99C405.971,-1942.37 310.629,-1984.54 265.006,-2004.72"/>
</g>
<!-- 25221 -->
<g id="node59" class="node"><title>25221</title>
<g id="a_node59"><a xlink:title="Day_0">
<ellipse fill="#20ff05" stroke="black" cx="221.847" cy="-1901.42" rx="32.4942" ry="18"/>
<text text-anchor="middle" x="221.847" y="-1897.72" font-family="Times,serif" font-size="14.00">25221</text>
</a>
</g>
</g>
<!-- 13831&#45;&gt;25221 -->
<g id="edge54" class="edge"><title>13831&#45;&gt;25221</title>
<path fill="none" stroke="black" d="M447.085,-1907.04C395.834,-1905.76 303.613,-1903.46 254.58,-1902.24"/>
</g>
<!-- 13873 -->
<g id="node48" class="node"><title>13873</title>
<g id="a_node48"><a xlink:title="Day_0">
<ellipse fill="#20ff05" stroke="black" cx="671.746" cy="-2997.67" rx="32.4942" ry="18"/>
<text text-anchor="middle" x="671.746" y="-2993.97" font-family="Times,serif" font-size="14.00">13873</text>
</a>
</g>
</g>
<!-- 13873&#45;&gt;27456 -->
<g id="edge53" class="edge"><title>13873&#45;&gt;27456</title>
<path fill="none" stroke="black" d="M680.469,-2980.19C699.122,-2942.83 742.701,-2855.52 761.336,-2818.19"/>
</g>
<!-- 29774 -->
<g id="node67" class="node"><title>29774</title>
<g id="a_node67"><a xlink:title="6th_week">
<ellipse fill="grey" stroke="black" cx="1633.41" cy="-1136.63" rx="32.4942" ry="18"/>
<text text-anchor="middle" x="1633.41" y="-1132.93" font-family="Times,serif" font-size="14.00">29774</text>
</a>
</g>
</g>
<!-- 14206&#45;&gt;29774 -->
<g id="edge19" class="edge"><title>14206&#45;&gt;29774</title>
<path fill="none" stroke="black" d="M1456.7,-1183.68C1495.91,-1173.24 1564.73,-1154.92 1603.91,-1144.49"/>
</g>
<!-- 14948 -->
<g id="node52" class="node"><title>14948</title>
<g id="a_node52"><a xlink:title="Day_0">
<ellipse fill="#ffffff" stroke="black" cx="778.403" cy="-2954.89" rx="32.4942" ry="18"/>
<text text-anchor="middle" x="778.403" y="-2951.19" font-family="Times,serif" font-size="14.00">14948</text>
</a>
</g>
</g>
<!-- 14948&#45;&gt;27456 -->
<g id="edge17" class="edge"><title>14948&#45;&gt;27456</title>
<path fill="none" stroke="black" d="M777.41,-2936.61C775.801,-2906.94 772.639,-2848.67 771.031,-2819.02"/>
</g>
<!-- 20397 -->
<g id="node57" class="node"><title>20397</title>
<g id="a_node57"><a xlink:title="Day_0">
<ellipse fill="grey" stroke="black" cx="32.0324" cy="-1905.78" rx="32.4942" ry="18"/>
<text text-anchor="middle" x="32.0324" y="-1902.08" font-family="Times,serif" font-size="14.00">20397</text>
</a>
</g>
</g>
<!-- 20397&#45;&gt;25221 -->
<g id="edge52" class="edge"><title>20397&#45;&gt;25221</title>
<path fill="none" stroke="black" d="M64.6627,-1905.03C99.5359,-1904.23 154.494,-1902.96 189.325,-1902.17"/>
</g>
<!-- 23013 -->
<g id="node58" class="node"><title>23013</title>
<g id="a_node58"><a xlink:title="Day_0">
<ellipse fill="#20ff05" stroke="black" cx="861.039" cy="-3001.85" rx="32.4942" ry="18"/>
<text text-anchor="middle" x="861.039" y="-2998.15" font-family="Times,serif" font-size="14.00">23013</text>
</a>
</g>
</g>
<!-- 23013&#45;&gt;27456 -->
<g id="edge16" class="edge"><title>23013&#45;&gt;27456</title>
<path fill="none" stroke="black" d="M853.122,-2984.35C835.912,-2946.32 795.255,-2856.48 778.003,-2818.35"/>
</g>
<!-- 30102 -->
<g id="node69" class="node"><title>30102</title>
<g id="a_node69"><a xlink:title="Day_0">
<ellipse fill="#20ff05" stroke="black" cx="914.213" cy="-2939.68" rx="32.4942" ry="18"/>
<text text-anchor="middle" x="914.213" y="-2935.98" font-family="Times,serif" font-size="14.00">30102</text>
</a>
</g>
</g>
<!-- 27456&#45;&gt;30102 -->
<g id="edge56" class="edge"><title>27456&#45;&gt;30102</title>
<path fill="none" stroke="black" d="M786.298,-2816.42C813.988,-2843.11 869.993,-2897.07 897.793,-2923.86"/>
</g>
</g>
</svg>
