<?xml version="1.0" encoding="UTF-8" standalone="no"?>
<!DOCTYPE svg PUBLIC "-//W3C//DTD SVG 1.1//EN"
 "http://www.w3.org/Graphics/SVG/1.1/DTD/svg11.dtd">
<!-- Generated by graphviz version 2.38.0 (20140413.2041)
 -->
<!-- Title: %3 Pages: 1 -->
<svg width="1056pt" height="1539pt"
 viewBox="0.00 0.00 1056.00 1539.00" xmlns="http://www.w3.org/2000/svg" xmlns:xlink="http://www.w3.org/1999/xlink">
<g id="graph0" class="graph" transform="scale(1 1) rotate(0) translate(4 1535)">
<title>%3</title>
<polygon fill="white" stroke="none" points="-4,4 -4,-1535 1052,-1535 1052,4 -4,4"/>
<!-- 1527 -->
<g id="node1" class="node"><title>1527</title>
<g id="a_node1"><a xlink:title="Day_0">
<ellipse fill="#efff05" stroke="black" cx="395.596" cy="-778.412" rx="28.6953" ry="18"/>
<text text-anchor="middle" x="395.596" y="-774.712" font-family="Times,serif" font-size="14.00">1527</text>
</a>
</g>
</g>
<!-- 6335 -->
<g id="node7" class="node"><title>6335</title>
<g id="a_node7"><a xlink:title="Day_0">
<ellipse fill="#efff05" stroke="black" cx="458.372" cy="-996.746" rx="28.6953" ry="18"/>
<text text-anchor="middle" x="458.372" y="-993.046" font-family="Times,serif" font-size="14.00">6335</text>
</a>
</g>
</g>
<!-- 1527&#45;&gt;6335 -->
<g id="edge13" class="edge"><title>1527&#45;&gt;6335</title>
<path fill="none" stroke="black" d="M400.733,-796.28C412.534,-837.323 441.467,-937.952 453.252,-978.938"/>
</g>
<!-- 11546 -->
<g id="node17" class="node"><title>11546</title>
<g id="a_node17"><a xlink:title="Day_0">
<ellipse fill="#efff05" stroke="black" cx="260.064" cy="-713.251" rx="32.4942" ry="18"/>
<text text-anchor="middle" x="260.064" y="-709.551" font-family="Times,serif" font-size="14.00">11546</text>
</a>
</g>
</g>
<!-- 1527&#45;&gt;11546 -->
<g id="edge44" class="edge"><title>1527&#45;&gt;11546</title>
<path fill="none" stroke="black" d="M372.605,-767.359C348.286,-755.667 310.044,-737.28 285.009,-725.244"/>
</g>
<!-- 12941 -->
<g id="node19" class="node"><title>12941</title>
<g id="a_node19"><a xlink:title="Day_0">
<ellipse fill="#efff05" stroke="black" cx="254.037" cy="-844.848" rx="32.4942" ry="18"/>
<text text-anchor="middle" x="254.037" y="-841.148" font-family="Times,serif" font-size="14.00">12941</text>
</a>
</g>
</g>
<!-- 1527&#45;&gt;12941 -->
<g id="edge28" class="edge"><title>1527&#45;&gt;12941</title>
<path fill="none" stroke="black" d="M372.537,-789.234C346.84,-801.294 305.435,-820.726 278.994,-833.135"/>
</g>
<!-- 14614 -->
<g id="node24" class="node"><title>14614</title>
<g id="a_node24"><a xlink:title="Day_0">
<ellipse fill="#efff05" stroke="black" cx="409.476" cy="-891.075" rx="32.4942" ry="18"/>
<text text-anchor="middle" x="409.476" y="-887.375" font-family="Times,serif" font-size="14.00">14614</text>
</a>
</g>
</g>
<!-- 1527&#45;&gt;14614 -->
<g id="edge34" class="edge"><title>1527&#45;&gt;14614</title>
<path fill="none" stroke="black" d="M397.826,-796.514C400.416,-817.538 404.664,-852.014 407.252,-873.018"/>
</g>
<!-- 15177 -->
<g id="node26" class="node"><title>15177</title>
<g id="a_node26"><a xlink:title="Day_0">
<ellipse fill="#efff05" stroke="black" cx="226.231" cy="-782.815" rx="32.4942" ry="18"/>
<text text-anchor="middle" x="226.231" y="-779.115" font-family="Times,serif" font-size="14.00">15177</text>
</a>
</g>
</g>
<!-- 1527&#45;&gt;15177 -->
<g id="edge36" class="edge"><title>1527&#45;&gt;15177</title>
<path fill="none" stroke="black" d="M366.866,-779.159C336.948,-779.937 290.167,-781.153 258.872,-781.966"/>
</g>
<!-- 15452 -->
<g id="node27" class="node"><title>15452</title>
<g id="a_node27"><a xlink:title="Day_0">
<ellipse fill="#efff05" stroke="black" cx="297.377" cy="-893.249" rx="32.4942" ry="18"/>
<text text-anchor="middle" x="297.377" y="-889.549" font-family="Times,serif" font-size="14.00">15452</text>
</a>
</g>
</g>
<!-- 1527&#45;&gt;15452 -->
<g id="edge45" class="edge"><title>1527&#45;&gt;15452</title>
<path fill="none" stroke="black" d="M381.939,-794.38C363.385,-816.073 330.374,-854.67 311.554,-876.674"/>
</g>
<!-- 16990 -->
<g id="node33" class="node"><title>16990</title>
<g id="a_node33"><a xlink:title="Day_0">
<ellipse fill="grey" stroke="black" cx="394.124" cy="-668.013" rx="32.4942" ry="18"/>
<text text-anchor="middle" x="394.124" y="-664.313" font-family="Times,serif" font-size="14.00">16990</text>
</a>
</g>
</g>
<!-- 1527&#45;&gt;16990 -->
<g id="edge39" class="edge"><title>1527&#45;&gt;16990</title>
<path fill="none" stroke="black" d="M395.353,-760.182C395.08,-739.727 394.64,-706.737 394.367,-686.271"/>
</g>
<!-- 21051 -->
<g id="node41" class="node"><title>21051</title>
<g id="a_node41"><a xlink:title="Day_0">
<ellipse fill="#efff05" stroke="black" cx="288.672" cy="-601.948" rx="32.4942" ry="18"/>
<text text-anchor="middle" x="288.672" y="-598.248" font-family="Times,serif" font-size="14.00">21051</text>
</a>
</g>
</g>
<!-- 1527&#45;&gt;21051 -->
<g id="edge47" class="edge"><title>1527&#45;&gt;21051</title>
<path fill="none" stroke="black" d="M385.344,-761.492C364.958,-727.849 319.538,-652.889 299.05,-619.076"/>
</g>
<!-- 21738 -->
<g id="node43" class="node"><title>21738</title>
<g id="a_node43"><a xlink:title="Day_0">
<ellipse fill="#efff05" stroke="black" cx="499.869" cy="-817.51" rx="32.4942" ry="18"/>
<text text-anchor="middle" x="499.869" y="-813.81" font-family="Times,serif" font-size="14.00">21738</text>
</a>
</g>
</g>
<!-- 1527&#45;&gt;21738 -->
<g id="edge42" class="edge"><title>1527&#45;&gt;21738</title>
<path fill="none" stroke="black" d="M420.307,-787.678C436.086,-793.594 456.55,-801.267 472.772,-807.35"/>
</g>
<!-- 23436 -->
<g id="node44" class="node"><title>23436</title>
<g id="a_node44"><a xlink:title="Day_0">
<ellipse fill="#efff05" stroke="black" cx="563.097" cy="-660.61" rx="32.4942" ry="18"/>
<text text-anchor="middle" x="563.097" y="-656.91" font-family="Times,serif" font-size="14.00">23436</text>
</a>
</g>
</g>
<!-- 1527&#45;&gt;23436 -->
<g id="edge35" class="edge"><title>1527&#45;&gt;23436</title>
<path fill="none" stroke="black" d="M414.811,-764.899C446.691,-742.477 510.229,-697.792 542.806,-674.88"/>
</g>
<!-- 2252 -->
<g id="node2" class="node"><title>2252</title>
<g id="a_node2"><a xlink:title="Day_0">
<ellipse fill="#efff05" stroke="black" cx="533.312" cy="-1330.56" rx="28.6953" ry="18"/>
<text text-anchor="middle" x="533.312" y="-1326.86" font-family="Times,serif" font-size="14.00">2252</text>
</a>
</g>
</g>
<!-- 20095 -->
<g id="node38" class="node"><title>20095</title>
<g id="a_node38"><a xlink:title="Day_0">
<ellipse fill="#efff05" stroke="black" cx="566.223" cy="-1208.56" rx="32.4942" ry="18"/>
<text text-anchor="middle" x="566.223" y="-1204.86" font-family="Times,serif" font-size="14.00">20095</text>
</a>
</g>
</g>
<!-- 2252&#45;&gt;20095 -->
<g id="edge5" class="edge"><title>2252&#45;&gt;20095</title>
<path fill="none" stroke="black" d="M538.169,-1312.55C544.391,-1289.49 555.115,-1249.74 561.347,-1226.63"/>
</g>
<!-- 2644 -->
<g id="node3" class="node"><title>2644</title>
<g id="a_node3"><a xlink:title="Day_0">
<ellipse fill="#efff05" stroke="black" cx="608.26" cy="-1339.89" rx="28.6953" ry="18"/>
<text text-anchor="middle" x="608.26" y="-1336.19" font-family="Times,serif" font-size="14.00">2644</text>
</a>
</g>
</g>
<!-- 2644&#45;&gt;20095 -->
<g id="edge50" class="edge"><title>2644&#45;&gt;20095</title>
<path fill="none" stroke="black" d="M602.591,-1322.18C594.568,-1297.11 579.984,-1251.55 571.937,-1226.41"/>
</g>
<!-- 2964 -->
<g id="node4" class="node"><title>2964</title>
<g id="a_node4"><a xlink:title="Day_0">
<ellipse fill="grey" stroke="black" cx="683.318" cy="-638.164" rx="28.6953" ry="18"/>
<text text-anchor="middle" x="683.318" y="-634.464" font-family="Times,serif" font-size="14.00">2964</text>
</a>
</g>
</g>
<!-- 2964&#45;&gt;23436 -->
<g id="edge26" class="edge"><title>2964&#45;&gt;23436</title>
<path fill="none" stroke="black" d="M655.737,-643.313C637.297,-646.756 613.012,-651.29 593.933,-654.852"/>
</g>
<!-- 3812 -->
<g id="node5" class="node"><title>3812</title>
<g id="a_node5"><a xlink:title="Day_0">
<ellipse fill="grey" stroke="black" cx="460.773" cy="-1300.91" rx="28.6953" ry="18"/>
<text text-anchor="middle" x="460.773" y="-1297.21" font-family="Times,serif" font-size="14.00">3812</text>
</a>
</g>
</g>
<!-- 3812&#45;&gt;20095 -->
<g id="edge49" class="edge"><title>3812&#45;&gt;20095</title>
<path fill="none" stroke="black" d="M477.716,-1286.07C497.161,-1269.04 528.901,-1241.25 548.62,-1223.98"/>
</g>
<!-- 4926 -->
<g id="node6" class="node"><title>4926</title>
<g id="a_node6"><a xlink:title="Day_0">
<ellipse fill="#efff05" stroke="black" cx="727.792" cy="-544.775" rx="28.6953" ry="18"/>
<text text-anchor="middle" x="727.792" y="-541.075" font-family="Times,serif" font-size="14.00">4926</text>
</a>
</g>
</g>
<!-- 12054 -->
<g id="node18" class="node"><title>12054</title>
<g id="a_node18"><a xlink:title="Day_0">
<ellipse fill="#efff05" stroke="black" cx="770.863" cy="-430.11" rx="32.4942" ry="18"/>
<text text-anchor="middle" x="770.863" y="-426.41" font-family="Times,serif" font-size="14.00">12054</text>
</a>
</g>
</g>
<!-- 4926&#45;&gt;12054 -->
<g id="edge4" class="edge"><title>4926&#45;&gt;12054</title>
<path fill="none" stroke="black" d="M734.522,-526.859C742.614,-505.317 756.11,-469.386 764.18,-447.901"/>
</g>
<!-- 14853 -->
<g id="node25" class="node"><title>14853</title>
<g id="a_node25"><a xlink:title="Day_0">
<ellipse fill="#ff9f0f" stroke="black" cx="847.531" cy="-532.446" rx="32.4942" ry="18"/>
<text text-anchor="middle" x="847.531" y="-528.746" font-family="Times,serif" font-size="14.00">14853</text>
</a>
</g>
</g>
<!-- 4926&#45;&gt;14853 -->
<g id="edge1" class="edge"><title>4926&#45;&gt;14853</title>
<path fill="none" stroke="black" d="M756.169,-541.853C774.011,-540.016 797.07,-537.641 815.558,-535.738"/>
</g>
<!-- 19151 -->
<g id="node36" class="node"><title>19151</title>
<g id="a_node36"><a xlink:title="Day_0">
<ellipse fill="#efff05" stroke="black" cx="873.563" cy="-448.213" rx="32.4942" ry="18"/>
<text text-anchor="middle" x="873.563" y="-444.513" font-family="Times,serif" font-size="14.00">19151</text>
</a>
</g>
</g>
<!-- 4926&#45;&gt;19151 -->
<g id="edge27" class="edge"><title>4926&#45;&gt;19151</title>
<path fill="none" stroke="black" d="M747.755,-531.551C775.203,-513.369 824.374,-480.797 852.425,-462.215"/>
</g>
<!-- 4926&#45;&gt;23436 -->
<g id="edge18" class="edge"><title>4926&#45;&gt;23436</title>
<path fill="none" stroke="black" d="M708.577,-558.289C677.182,-580.371 615.188,-623.973 583.216,-646.46"/>
</g>
<!-- 6335&#45;&gt;20095 -->
<g id="edge52" class="edge"><title>6335&#45;&gt;20095</title>
<path fill="none" stroke="black" d="M467.198,-1014.08C487.422,-1053.8 536.934,-1151.04 557.275,-1190.99"/>
</g>
<!-- 20223 -->
<g id="node40" class="node"><title>20223</title>
<g id="a_node40"><a xlink:title="Day_0">
<ellipse fill="#efff05" stroke="black" cx="360.284" cy="-1109.69" rx="32.4942" ry="18"/>
<text text-anchor="middle" x="360.284" y="-1105.99" font-family="Times,serif" font-size="14.00">20223</text>
</a>
</g>
</g>
<!-- 6335&#45;&gt;20223 -->
<g id="edge40" class="edge"><title>6335&#45;&gt;20223</title>
<path fill="none" stroke="black" d="M444.318,-1012.93C425.778,-1034.28 393.316,-1071.66 374.63,-1093.17"/>
</g>
<!-- 6384 -->
<g id="node8" class="node"><title>6384</title>
<g id="a_node8"><a xlink:title="Day_0">
<ellipse fill="#efff05" stroke="black" cx="274.276" cy="-472.263" rx="28.6953" ry="18"/>
<text text-anchor="middle" x="274.276" y="-468.563" font-family="Times,serif" font-size="14.00">6384</text>
</a>
</g>
</g>
<!-- 6384&#45;&gt;21051 -->
<g id="edge51" class="edge"><title>6384&#45;&gt;21051</title>
<path fill="none" stroke="black" d="M276.277,-490.295C279.012,-514.933 283.89,-558.876 286.64,-583.651"/>
</g>
<!-- 8085 -->
<g id="node9" class="node"><title>8085</title>
<g id="a_node9"><a xlink:title="Day_0">
<ellipse fill="#efff05" stroke="black" cx="848.874" cy="-1354.22" rx="28.6953" ry="18"/>
<text text-anchor="middle" x="848.874" y="-1350.52" font-family="Times,serif" font-size="14.00">8085</text>
</a>
</g>
</g>
<!-- 15818 -->
<g id="node29" class="node"><title>15818</title>
<g id="a_node29"><a xlink:title="Day_0">
<ellipse fill="#efff05" stroke="black" cx="751.589" cy="-1271.66" rx="32.4942" ry="18"/>
<text text-anchor="middle" x="751.589" y="-1267.96" font-family="Times,serif" font-size="14.00">15818</text>
</a>
</g>
</g>
<!-- 8085&#45;&gt;15818 -->
<g id="edge30" class="edge"><title>8085&#45;&gt;15818</title>
<path fill="none" stroke="black" d="M831.482,-1339.46C813.992,-1324.62 787.156,-1301.84 769.489,-1286.85"/>
</g>
<!-- 9076 -->
<g id="node10" class="node"><title>9076</title>
<g id="a_node10"><a xlink:title="Day_0">
<ellipse fill="grey" stroke="black" cx="176.157" cy="-531.18" rx="28.6953" ry="18"/>
<text text-anchor="middle" x="176.157" y="-527.48" font-family="Times,serif" font-size="14.00">9076</text>
</a>
</g>
</g>
<!-- 9076&#45;&gt;21051 -->
<g id="edge23" class="edge"><title>9076&#45;&gt;21051</title>
<path fill="none" stroke="black" d="M196.533,-543.996C216.417,-556.503 246.567,-575.466 266.912,-588.262"/>
</g>
<!-- 9214 -->
<g id="node11" class="node"><title>9214</title>
<g id="a_node11"><a xlink:title="Day_0">
<ellipse fill="#efff05" stroke="black" cx="677.664" cy="-1303.86" rx="28.6953" ry="18"/>
<text text-anchor="middle" x="677.664" y="-1300.16" font-family="Times,serif" font-size="14.00">9214</text>
</a>
</g>
</g>
<!-- 9214&#45;&gt;20095 -->
<g id="edge22" class="edge"><title>9214&#45;&gt;20095</title>
<path fill="none" stroke="black" d="M660.251,-1288.97C639.56,-1271.27 605.21,-1241.9 584.252,-1223.98"/>
</g>
<!-- 9221 -->
<g id="node12" class="node"><title>9221</title>
<g id="a_node12"><a xlink:title="Day_0">
<ellipse fill="#efff05" stroke="black" cx="86.6934" cy="-757.646" rx="28.6953" ry="18"/>
<text text-anchor="middle" x="86.6934" y="-753.946" font-family="Times,serif" font-size="14.00">9221</text>
</a>
</g>
</g>
<!-- 9221&#45;&gt;15177 -->
<g id="edge48" class="edge"><title>9221&#45;&gt;15177</title>
<path fill="none" stroke="black" d="M114.261,-762.618C137.612,-766.83 171.065,-772.864 195.32,-777.239"/>
</g>
<!-- 9356 -->
<g id="node13" class="node"><title>9356</title>
<g id="a_node13"><a xlink:title="Day_0">
<ellipse fill="#efff05" stroke="black" cx="194.38" cy="-440.065" rx="28.6953" ry="18"/>
<text text-anchor="middle" x="194.38" y="-436.365" font-family="Times,serif" font-size="14.00">9356</text>
</a>
</g>
</g>
<!-- 11269 -->
<g id="node16" class="node"><title>11269</title>
<g id="a_node16"><a xlink:title="Day_0">
<ellipse fill="#efff05" stroke="black" cx="92.993" cy="-369.27" rx="32.4942" ry="18"/>
<text text-anchor="middle" x="92.993" y="-365.57" font-family="Times,serif" font-size="14.00">11269</text>
</a>
</g>
</g>
<!-- 9356&#45;&gt;11269 -->
<g id="edge16" class="edge"><title>9356&#45;&gt;11269</title>
<path fill="none" stroke="black" d="M174.832,-426.415C157.224,-414.12 131.431,-396.109 113.526,-383.607"/>
</g>
<!-- 15758 -->
<g id="node28" class="node"><title>15758</title>
<g id="a_node28"><a xlink:title="Day_0">
<ellipse fill="#efff05" stroke="black" cx="130.996" cy="-293.414" rx="32.4942" ry="18"/>
<text text-anchor="middle" x="130.996" y="-289.714" font-family="Times,serif" font-size="14.00">15758</text>
</a>
</g>
</g>
<!-- 9356&#45;&gt;15758 -->
<g id="edge46" class="edge"><title>9356&#45;&gt;15758</title>
<path fill="none" stroke="black" d="M186.86,-422.666C174.727,-394.594 150.956,-339.595 138.704,-311.247"/>
</g>
<!-- 9356&#45;&gt;21051 -->
<g id="edge11" class="edge"><title>9356&#45;&gt;21051</title>
<path fill="none" stroke="black" d="M204.293,-457.083C222.355,-488.093 260.435,-553.47 278.608,-584.671"/>
</g>
<!-- 9362 -->
<g id="node14" class="node"><title>9362</title>
<g id="a_node14"><a xlink:title="Day_0">
<ellipse fill="#efff05" stroke="black" cx="835.023" cy="-737.162" rx="28.6953" ry="18"/>
<text text-anchor="middle" x="835.023" y="-733.462" font-family="Times,serif" font-size="14.00">9362</text>
</a>
</g>
</g>
<!-- 13388 -->
<g id="node22" class="node"><title>13388</title>
<g id="a_node22"><a xlink:title="Day_0">
<ellipse fill="#efff05" stroke="black" cx="714.798" cy="-707.303" rx="32.4942" ry="18"/>
<text text-anchor="middle" x="714.798" y="-703.603" font-family="Times,serif" font-size="14.00">13388</text>
</a>
</g>
</g>
<!-- 9362&#45;&gt;13388 -->
<g id="edge14" class="edge"><title>9362&#45;&gt;13388</title>
<path fill="none" stroke="black" d="M808.341,-730.536C789.525,-725.862 764.301,-719.597 744.787,-714.751"/>
</g>
<!-- 10011 -->
<g id="node15" class="node"><title>10011</title>
<g id="a_node15"><a xlink:title="Day_0">
<ellipse fill="#efff05" stroke="black" cx="139.866" cy="-665.069" rx="32.4942" ry="18"/>
<text text-anchor="middle" x="139.866" y="-661.369" font-family="Times,serif" font-size="14.00">10011</text>
</a>
</g>
</g>
<!-- 10011&#45;&gt;11546 -->
<g id="edge7" class="edge"><title>10011&#45;&gt;11546</title>
<path fill="none" stroke="black" d="M166.244,-675.643C186.147,-683.621 213.344,-694.523 233.332,-702.535"/>
</g>
<!-- 16770 -->
<g id="node31" class="node"><title>16770</title>
<g id="a_node31"><a xlink:title="6th_week">
<ellipse fill="grey" stroke="black" cx="135.029" cy="-902.354" rx="32.4942" ry="18"/>
<text text-anchor="middle" x="135.029" y="-898.654" font-family="Times,serif" font-size="14.00">16770</text>
</a>
</g>
</g>
<!-- 12941&#45;&gt;16770 -->
<g id="edge10" class="edge"><title>12941&#45;&gt;16770</title>
<path fill="none" stroke="black" d="M229.379,-856.763C208.954,-866.633 180.072,-880.589 159.656,-890.454"/>
</g>
<!-- 13235 -->
<g id="node20" class="node"><title>13235</title>
<g id="a_node20"><a xlink:title="Day_0">
<ellipse fill="#efff05" stroke="black" cx="685.051" cy="-1171.45" rx="32.4942" ry="18"/>
<text text-anchor="middle" x="685.051" y="-1167.75" font-family="Times,serif" font-size="14.00">13235</text>
</a>
</g>
</g>
<!-- 13235&#45;&gt;20095 -->
<g id="edge15" class="edge"><title>13235&#45;&gt;20095</title>
<path fill="none" stroke="black" d="M656.589,-1180.34C637.913,-1186.17 613.577,-1193.77 594.865,-1199.62"/>
</g>
<!-- 13358 -->
<g id="node21" class="node"><title>13358</title>
<g id="a_node21"><a xlink:title="Day_0">
<ellipse fill="#efff05" stroke="black" cx="624.552" cy="-547.988" rx="32.4942" ry="18"/>
<text text-anchor="middle" x="624.552" y="-544.288" font-family="Times,serif" font-size="14.00">13358</text>
</a>
</g>
</g>
<!-- 13358&#45;&gt;23436 -->
<g id="edge20" class="edge"><title>13358&#45;&gt;23436</title>
<path fill="none" stroke="black" d="M614.95,-565.586C603.404,-586.743 584.147,-622.034 572.632,-643.136"/>
</g>
<!-- 13388&#45;&gt;23436 -->
<g id="edge24" class="edge"><title>13388&#45;&gt;23436</title>
<path fill="none" stroke="black" d="M686.264,-698.52C659.228,-690.198 618.839,-677.767 591.76,-669.432"/>
</g>
<!-- 14333 -->
<g id="node23" class="node"><title>14333</title>
<g id="a_node23"><a xlink:title="Day_0">
<ellipse fill="#efff05" stroke="black" cx="201.905" cy="-980.913" rx="32.4942" ry="18"/>
<text text-anchor="middle" x="201.905" y="-977.213" font-family="Times,serif" font-size="14.00">14333</text>
</a>
</g>
</g>
<!-- 14333&#45;&gt;15452 -->
<g id="edge31" class="edge"><title>14333&#45;&gt;15452</title>
<path fill="none" stroke="black" d="M218.974,-965.24C236.352,-949.284 263.133,-924.693 280.457,-908.786"/>
</g>
<!-- 17489 -->
<g id="node34" class="node"><title>17489</title>
<g id="a_node34"><a xlink:title="Day_0">
<ellipse fill="#efff05" stroke="black" cx="83.2165" cy="-816.509" rx="32.4942" ry="18"/>
<text text-anchor="middle" x="83.2165" y="-812.809" font-family="Times,serif" font-size="14.00">17489</text>
</a>
</g>
</g>
<!-- 15177&#45;&gt;17489 -->
<g id="edge12" class="edge"><title>15177&#45;&gt;17489</title>
<path fill="none" stroke="black" d="M196.25,-789.878C171.842,-795.629 137.555,-803.707 113.157,-809.455"/>
</g>
<!-- 16676 -->
<g id="node30" class="node"><title>16676</title>
<g id="a_node30"><a xlink:title="Day_0">
<ellipse fill="#efff05" stroke="black" cx="32.4205" cy="-195.786" rx="32.4942" ry="18"/>
<text text-anchor="middle" x="32.4205" y="-192.086" font-family="Times,serif" font-size="14.00">16676</text>
</a>
</g>
</g>
<!-- 15758&#45;&gt;16676 -->
<g id="edge8" class="edge"><title>15758&#45;&gt;16676</title>
<path fill="none" stroke="black" d="M114.718,-277.293C96.3445,-259.096 66.6436,-229.68 48.3953,-211.607"/>
</g>
<!-- 24100 -->
<g id="node46" class="node"><title>24100</title>
<g id="a_node46"><a xlink:title="Day_0">
<ellipse fill="#efff05" stroke="black" cx="86.5852" cy="-135.581" rx="32.4942" ry="18"/>
<text text-anchor="middle" x="86.5852" y="-131.881" font-family="Times,serif" font-size="14.00">24100</text>
</a>
</g>
</g>
<!-- 15758&#45;&gt;24100 -->
<g id="edge43" class="edge"><title>15758&#45;&gt;24100</title>
<path fill="none" stroke="black" d="M125.988,-275.615C117.458,-245.302 100.206,-183.99 91.6432,-153.557"/>
</g>
<!-- 15818&#45;&gt;20095 -->
<g id="edge6" class="edge"><title>15818&#45;&gt;20095</title>
<path fill="none" stroke="black" d="M723.838,-1262.21C688.892,-1250.32 629.198,-1230 594.164,-1218.07"/>
</g>
<!-- 16823 -->
<g id="node32" class="node"><title>16823</title>
<g id="a_node32"><a xlink:title="Day_0">
<ellipse fill="#efff05" stroke="black" cx="1015.04" cy="-452.009" rx="32.4942" ry="18"/>
<text text-anchor="middle" x="1015.04" y="-448.309" font-family="Times,serif" font-size="14.00">16823</text>
</a>
</g>
</g>
<!-- 16823&#45;&gt;19151 -->
<g id="edge41" class="edge"><title>16823&#45;&gt;19151</title>
<path fill="none" stroke="black" d="M982.226,-451.129C959.37,-450.516 929.015,-449.701 906.198,-449.089"/>
</g>
<!-- 17676 -->
<g id="node35" class="node"><title>17676</title>
<g id="a_node35"><a xlink:title="Day_0">
<ellipse fill="#efff05" stroke="black" cx="444.681" cy="-1255.58" rx="32.4942" ry="18"/>
<text text-anchor="middle" x="444.681" y="-1251.88" font-family="Times,serif" font-size="14.00">17676</text>
</a>
</g>
</g>
<!-- 17676&#45;&gt;20095 -->
<g id="edge21" class="edge"><title>17676&#45;&gt;20095</title>
<path fill="none" stroke="black" d="M471.354,-1245.26C491.479,-1237.48 518.98,-1226.84 539.192,-1219.02"/>
</g>
<!-- 3291 -->
<g id="node50" class="node"><title>3291</title>
<g id="a_node50"><a xlink:title="Day_0">
<ellipse fill="#ffffff" stroke="black" cx="983.6" cy="-355.35" rx="28.6953" ry="18"/>
<text text-anchor="middle" x="983.6" y="-351.65" font-family="Times,serif" font-size="14.00">3291</text>
</a>
</g>
</g>
<!-- 19151&#45;&gt;3291 -->
<g id="edge2" class="edge"><title>19151&#45;&gt;3291</title>
<path fill="none" stroke="black" d="M891.734,-432.879C912.488,-415.364 946.189,-386.922 966.489,-369.79"/>
</g>
<!-- 23253 -->
<g id="node51" class="node"><title>23253</title>
<g id="a_node51"><a xlink:title="Day_0">
<ellipse fill="#efff05" stroke="black" cx="900.539" cy="-310.002" rx="32.4942" ry="18"/>
<text text-anchor="middle" x="900.539" y="-306.302" font-family="Times,serif" font-size="14.00">23253</text>
</a>
</g>
</g>
<!-- 19151&#45;&gt;23253 -->
<g id="edge3" class="edge"><title>19151&#45;&gt;23253</title>
<path fill="none" stroke="black" d="M877.09,-430.145C882.26,-403.657 891.841,-354.566 897.011,-328.075"/>
</g>
<!-- 7645 -->
<g id="node52" class="node"><title>7645</title>
<g id="a_node52"><a xlink:title="Day_0">
<ellipse fill="#efff05" stroke="black" cx="1009.11" cy="-401.33" rx="28.6953" ry="18"/>
<text text-anchor="middle" x="1009.11" y="-397.63" font-family="Times,serif" font-size="14.00">7645</text>
</a>
</g>
</g>
<!-- 19151&#45;&gt;7645 -->
<g id="edge19" class="edge"><title>19151&#45;&gt;7645</title>
<path fill="none" stroke="black" d="M901.32,-438.613C925.486,-430.254 960.226,-418.238 983.68,-410.126"/>
</g>
<!-- 19946 -->
<g id="node37" class="node"><title>19946</title>
<g id="a_node37"><a xlink:title="Day_0">
<ellipse fill="#efff05" stroke="black" cx="267.106" cy="-1200.39" rx="32.4942" ry="18"/>
<text text-anchor="middle" x="267.106" y="-1196.69" font-family="Times,serif" font-size="14.00">19946</text>
</a>
</g>
</g>
<!-- 19946&#45;&gt;20223 -->
<g id="edge32" class="edge"><title>19946&#45;&gt;20223</title>
<path fill="none" stroke="black" d="M283.336,-1184.59C300.334,-1168.05 326.882,-1142.21 343.927,-1125.61"/>
</g>
<!-- 21119 -->
<g id="node42" class="node"><title>21119</title>
<g id="a_node42"><a xlink:title="Day_0">
<ellipse fill="#efff05" stroke="black" cx="526.118" cy="-1375.17" rx="32.4942" ry="18"/>
<text text-anchor="middle" x="526.118" y="-1371.47" font-family="Times,serif" font-size="14.00">21119</text>
</a>
</g>
</g>
<!-- 20095&#45;&gt;21119 -->
<g id="edge37" class="edge"><title>20095&#45;&gt;21119</title>
<path fill="none" stroke="black" d="M561.855,-1226.71C554.12,-1258.84 538.108,-1325.36 530.421,-1357.3"/>
</g>
<!-- 23467 -->
<g id="node45" class="node"><title>23467</title>
<g id="a_node45"><a xlink:title="Day_0">
<ellipse fill="#efff05" stroke="black" cx="678.2" cy="-1221.06" rx="32.4942" ry="18"/>
<text text-anchor="middle" x="678.2" y="-1217.36" font-family="Times,serif" font-size="14.00">23467</text>
</a>
</g>
</g>
<!-- 20095&#45;&gt;23467 -->
<g id="edge38" class="edge"><title>20095&#45;&gt;23467</title>
<path fill="none" stroke="black" d="M598.311,-1212.14C613.305,-1213.82 631.113,-1215.8 646.107,-1217.48"/>
</g>
<!-- 25461 -->
<g id="node47" class="node"><title>25461</title>
<g id="a_node47"><a xlink:title="Day_0">
<ellipse fill="grey" stroke="black" cx="597.834" cy="-1278.34" rx="32.4942" ry="18"/>
<text text-anchor="middle" x="597.834" y="-1274.64" font-family="Times,serif" font-size="14.00">25461</text>
</a>
</g>
</g>
<!-- 20095&#45;&gt;25461 -->
<g id="edge17" class="edge"><title>20095&#45;&gt;25461</title>
<path fill="none" stroke="black" d="M574.2,-1226.17C578.955,-1236.67 584.976,-1249.95 589.75,-1260.49"/>
</g>
<!-- 20184 -->
<g id="node39" class="node"><title>20184</title>
<g id="a_node39"><a xlink:title="Day_0">
<ellipse fill="#efff05" stroke="black" cx="521.994" cy="-1512.95" rx="32.4942" ry="18"/>
<text text-anchor="middle" x="521.994" y="-1509.25" font-family="Times,serif" font-size="14.00">20184</text>
</a>
</g>
</g>
<!-- 20184&#45;&gt;21119 -->
<g id="edge9" class="edge"><title>20184&#45;&gt;21119</title>
<path fill="none" stroke="black" d="M522.533,-1494.94C523.324,-1468.53 524.789,-1419.6 525.579,-1393.19"/>
</g>
<!-- 15676 -->
<g id="node48" class="node"><title>15676</title>
<g id="a_node48"><a xlink:title="6th_week">
<ellipse fill="#efff05" stroke="black" cx="546.489" cy="-508.154" rx="32.4942" ry="18"/>
<text text-anchor="middle" x="546.489" y="-504.454" font-family="Times,serif" font-size="14.00">15676</text>
</a>
</g>
</g>
<!-- 23436&#45;&gt;15676 -->
<g id="edge33" class="edge"><title>23436&#45;&gt;15676</title>
<path fill="none" stroke="black" d="M561.126,-642.522C557.93,-613.181 551.651,-555.544 548.457,-526.218"/>
</g>
<!-- 2490 -->
<g id="node49" class="node"><title>2490</title>
<g id="a_node49"><a xlink:title="Day_0">
<ellipse fill="#efff05" stroke="black" cx="45.5562" cy="-18.4671" rx="28.6953" ry="18"/>
<text text-anchor="middle" x="45.5562" y="-14.7671" font-family="Times,serif" font-size="14.00">2490</text>
</a>
</g>
</g>
<!-- 24100&#45;&gt;2490 -->
<g id="edge29" class="edge"><title>24100&#45;&gt;2490</title>
<path fill="none" stroke="black" d="M80.3537,-117.794C72.6421,-95.7818 59.5848,-58.5107 51.8462,-36.4216"/>
</g>
<!-- 19571 -->
<g id="node53" class="node"><title>19571</title>
<g id="a_node53"><a xlink:title="6th_week">
<ellipse fill="#efff05" stroke="black" cx="529.228" cy="-382.156" rx="32.4942" ry="18"/>
<text text-anchor="middle" x="529.228" y="-378.456" font-family="Times,serif" font-size="14.00">19571</text>
</a>
</g>
</g>
<!-- 15676&#45;&gt;19571 -->
<g id="edge25" class="edge"><title>15676&#45;&gt;19571</title>
<path fill="none" stroke="black" d="M544.016,-490.102C540.734,-466.149 534.975,-424.11 531.696,-400.175"/>
</g>
</g>
</svg>
