<?xml version="1.0" encoding="UTF-8" standalone="no"?>
<!DOCTYPE svg PUBLIC "-//W3C//DTD SVG 1.1//EN"
 "http://www.w3.org/Graphics/SVG/1.1/DTD/svg11.dtd">
<!-- Generated by graphviz version 2.38.0 (20140413.2041)
 -->
<!-- Title: %3 Pages: 1 -->
<svg width="2902pt" height="2264pt"
 viewBox="0.00 0.00 2902.00 2264.00" xmlns="http://www.w3.org/2000/svg" xmlns:xlink="http://www.w3.org/1999/xlink">
<g id="graph0" class="graph" transform="scale(1 1) rotate(0) translate(4 2260)">
<title>%3</title>
<polygon fill="white" stroke="none" points="-4,4 -4,-2260 2898,-2260 2898,4 -4,4"/>
<!-- 195 -->
<g id="node1" class="node"><title>195</title>
<g id="a_node1"><a xlink:title="Day_0">
<ellipse fill="#efff05" stroke="black" cx="1697.05" cy="-2237.81" rx="27" ry="18"/>
<text text-anchor="middle" x="1697.05" y="-2234.11" font-family="Times,serif" font-size="14.00">195</text>
</a>
</g>
</g>
<!-- 8789 -->
<g id="node24" class="node"><title>8789</title>
<g id="a_node24"><a xlink:title="Day_0">
<ellipse fill="#efff05" stroke="black" cx="1706.71" cy="-1982.55" rx="28.6953" ry="18"/>
<text text-anchor="middle" x="1706.71" y="-1978.85" font-family="Times,serif" font-size="14.00">8789</text>
</a>
</g>
</g>
<!-- 195&#45;&gt;8789 -->
<g id="edge60" class="edge"><title>195&#45;&gt;8789</title>
<path fill="none" stroke="black" d="M1697.75,-2219.45C1699.53,-2172.35 1704.25,-2047.65 1706.02,-2000.74"/>
</g>
<!-- 686 -->
<g id="node2" class="node"><title>686</title>
<g id="a_node2"><a xlink:title="Day_0">
<ellipse fill="#efff05" stroke="black" cx="1581.69" cy="-930.984" rx="27" ry="18"/>
<text text-anchor="middle" x="1581.69" y="-927.284" font-family="Times,serif" font-size="14.00">686</text>
</a>
</g>
</g>
<!-- 20937 -->
<g id="node72" class="node"><title>20937</title>
<g id="a_node72"><a xlink:title="Day_0">
<ellipse fill="grey" stroke="black" cx="1421.06" cy="-753.445" rx="32.4942" ry="18"/>
<text text-anchor="middle" x="1421.06" y="-749.745" font-family="Times,serif" font-size="14.00">20937</text>
</a>
</g>
</g>
<!-- 686&#45;&gt;20937 -->
<g id="edge56" class="edge"><title>686&#45;&gt;20937</title>
<path fill="none" stroke="black" d="M1567.71,-915.539C1537.56,-882.216 1466.64,-803.833 1435.81,-769.749"/>
</g>
<!-- 24810 -->
<g id="node84" class="node"><title>24810</title>
<g id="a_node84"><a xlink:title="Day_0">
<ellipse fill="#efff05" stroke="black" cx="1774.49" cy="-1147.31" rx="32.4942" ry="18"/>
<text text-anchor="middle" x="1774.49" y="-1143.61" font-family="Times,serif" font-size="14.00">24810</text>
</a>
</g>
</g>
<!-- 686&#45;&gt;24810 -->
<g id="edge33" class="edge"><title>686&#45;&gt;24810</title>
<path fill="none" stroke="black" d="M1595.55,-946.542C1630.87,-986.166 1723.95,-1090.6 1759.97,-1131.02"/>
</g>
<!-- 747 -->
<g id="node3" class="node"><title>747</title>
<g id="a_node3"><a xlink:title="Day_0">
<ellipse fill="#efff05" stroke="black" cx="1815.45" cy="-411.443" rx="27" ry="18"/>
<text text-anchor="middle" x="1815.45" y="-407.743" font-family="Times,serif" font-size="14.00">747</text>
</a>
</g>
</g>
<!-- 20720 -->
<g id="node71" class="node"><title>20720</title>
<g id="a_node71"><a xlink:title="Day_0">
<ellipse fill="#efff05" stroke="black" cx="1768.39" cy="-587.305" rx="32.4942" ry="18"/>
<text text-anchor="middle" x="1768.39" y="-583.605" font-family="Times,serif" font-size="14.00">20720</text>
</a>
</g>
</g>
<!-- 747&#45;&gt;20720 -->
<g id="edge37" class="edge"><title>747&#45;&gt;20720</title>
<path fill="none" stroke="black" d="M1810.68,-429.273C1801.66,-462.98 1782.2,-535.685 1773.17,-569.427"/>
</g>
<!-- 1519 -->
<g id="node4" class="node"><title>1519</title>
<g id="a_node4"><a xlink:title="Day_0">
<ellipse fill="#efff05" stroke="black" cx="2428.8" cy="-1427.79" rx="28.6953" ry="18"/>
<text text-anchor="middle" x="2428.8" y="-1424.09" font-family="Times,serif" font-size="14.00">1519</text>
</a>
</g>
</g>
<!-- 17096 -->
<g id="node55" class="node"><title>17096</title>
<g id="a_node55"><a xlink:title="Day_0">
<ellipse fill="#efff05" stroke="black" cx="2313.27" cy="-1276.88" rx="32.4942" ry="18"/>
<text text-anchor="middle" x="2313.27" y="-1273.18" font-family="Times,serif" font-size="14.00">17096</text>
</a>
</g>
</g>
<!-- 1519&#45;&gt;17096 -->
<g id="edge80" class="edge"><title>1519&#45;&gt;17096</title>
<path fill="none" stroke="black" d="M2416.22,-1411.35C2394.11,-1382.48 2348.53,-1322.94 2326.19,-1293.76"/>
</g>
<!-- 1997 -->
<g id="node5" class="node"><title>1997</title>
<g id="a_node5"><a xlink:title="Day_0">
<ellipse fill="grey" stroke="black" cx="318.778" cy="-854.32" rx="28.6953" ry="18"/>
<text text-anchor="middle" x="318.778" y="-850.62" font-family="Times,serif" font-size="14.00">1997</text>
</a>
</g>
</g>
<!-- 9162 -->
<g id="node26" class="node"><title>9162</title>
<g id="a_node26"><a xlink:title="Day_0">
<ellipse fill="#efff05" stroke="black" cx="591.277" cy="-962.799" rx="28.6953" ry="18"/>
<text text-anchor="middle" x="591.277" y="-959.099" font-family="Times,serif" font-size="14.00">9162</text>
</a>
</g>
</g>
<!-- 1997&#45;&gt;9162 -->
<g id="edge93" class="edge"><title>1997&#45;&gt;9162</title>
<path fill="none" stroke="black" d="M342.961,-863.946C394.542,-884.48 514.877,-932.385 566.757,-953.038"/>
</g>
<!-- 17785 -->
<g id="node57" class="node"><title>17785</title>
<g id="a_node57"><a xlink:title="Day_0">
<ellipse fill="#20ff05" stroke="black" cx="73.8052" cy="-762.014" rx="32.4942" ry="18"/>
<text text-anchor="middle" x="73.8052" y="-758.314" font-family="Times,serif" font-size="14.00">17785</text>
</a>
</g>
</g>
<!-- 1997&#45;&gt;17785 -->
<g id="edge53" class="edge"><title>1997&#45;&gt;17785</title>
<path fill="none" stroke="black" d="M293.941,-844.961C247.718,-827.544 148.847,-790.289 100.939,-772.238"/>
</g>
<!-- 2041 -->
<g id="node6" class="node"><title>2041</title>
<g id="a_node6"><a xlink:title="Day_0">
<ellipse fill="#efff05" stroke="black" cx="560.748" cy="-1159.15" rx="28.6953" ry="18"/>
<text text-anchor="middle" x="560.748" y="-1155.45" font-family="Times,serif" font-size="14.00">2041</text>
</a>
</g>
</g>
<!-- 2041&#45;&gt;9162 -->
<g id="edge25" class="edge"><title>2041&#45;&gt;9162</title>
<path fill="none" stroke="black" d="M563.566,-1141.03C569.381,-1103.62 582.656,-1018.24 588.466,-980.875"/>
</g>
<!-- 2124 -->
<g id="node7" class="node"><title>2124</title>
<g id="a_node7"><a xlink:title="Day_0">
<ellipse fill="#efff05" stroke="black" cx="964.383" cy="-1083.39" rx="28.6953" ry="18"/>
<text text-anchor="middle" x="964.383" y="-1079.69" font-family="Times,serif" font-size="14.00">2124</text>
</a>
</g>
</g>
<!-- 12502 -->
<g id="node35" class="node"><title>12502</title>
<g id="a_node35"><a xlink:title="Day_0">
<ellipse fill="#efff05" stroke="black" cx="1174.99" cy="-1044.38" rx="32.4942" ry="18"/>
<text text-anchor="middle" x="1174.99" y="-1040.68" font-family="Times,serif" font-size="14.00">12502</text>
</a>
</g>
</g>
<!-- 2124&#45;&gt;12502 -->
<g id="edge66" class="edge"><title>2124&#45;&gt;12502</title>
<path fill="none" stroke="black" d="M991.916,-1078.29C1031.16,-1071.02 1102.98,-1057.72 1144.03,-1050.11"/>
</g>
<!-- 2207 -->
<g id="node8" class="node"><title>2207</title>
<g id="a_node8"><a xlink:title="Day_0">
<ellipse fill="grey" stroke="black" cx="445.876" cy="-1004.17" rx="28.6953" ry="18"/>
<text text-anchor="middle" x="445.876" y="-1000.47" font-family="Times,serif" font-size="14.00">2207</text>
</a>
</g>
</g>
<!-- 2207&#45;&gt;9162 -->
<g id="edge67" class="edge"><title>2207&#45;&gt;9162</title>
<path fill="none" stroke="black" d="M472.207,-996.678C498.558,-989.18 538.859,-977.713 565.141,-970.235"/>
</g>
<!-- 2362 -->
<g id="node9" class="node"><title>2362</title>
<g id="a_node9"><a xlink:title="Day_0">
<ellipse fill="#efff05" stroke="black" cx="1705" cy="-406.857" rx="28.6953" ry="18"/>
<text text-anchor="middle" x="1705" y="-403.157" font-family="Times,serif" font-size="14.00">2362</text>
</a>
</g>
</g>
<!-- 2362&#45;&gt;20720 -->
<g id="edge89" class="edge"><title>2362&#45;&gt;20720</title>
<path fill="none" stroke="black" d="M1711.2,-424.488C1723.31,-458.985 1750.03,-535.048 1762.17,-569.603"/>
</g>
<!-- 2479 -->
<g id="node10" class="node"><title>2479</title>
<g id="a_node10"><a xlink:title="Day_0">
<ellipse fill="#efff05" stroke="black" cx="1894.46" cy="-1430.58" rx="28.6953" ry="18"/>
<text text-anchor="middle" x="1894.46" y="-1426.88" font-family="Times,serif" font-size="14.00">2479</text>
</a>
</g>
</g>
<!-- 2479&#45;&gt;24810 -->
<g id="edge77" class="edge"><title>2479&#45;&gt;24810</title>
<path fill="none" stroke="black" d="M1886.95,-1412.86C1865.41,-1361.99 1803.53,-1215.89 1781.99,-1165.03"/>
</g>
<!-- 25462 -->
<g id="node87" class="node"><title>25462</title>
<g id="a_node87"><a xlink:title="Day_0">
<ellipse fill="#efff05" stroke="black" cx="2043.15" cy="-1709.29" rx="32.4942" ry="18"/>
<text text-anchor="middle" x="2043.15" y="-1705.59" font-family="Times,serif" font-size="14.00">25462</text>
</a>
</g>
</g>
<!-- 2479&#45;&gt;25462 -->
<g id="edge30" class="edge"><title>2479&#45;&gt;25462</title>
<path fill="none" stroke="black" d="M1903.76,-1448.01C1930.46,-1498.07 2007.15,-1641.82 2033.85,-1691.87"/>
</g>
<!-- 2879 -->
<g id="node11" class="node"><title>2879</title>
<g id="a_node11"><a xlink:title="Day_0">
<ellipse fill="#efff05" stroke="black" cx="1651.3" cy="-1273.26" rx="28.6953" ry="18"/>
<text text-anchor="middle" x="1651.3" y="-1269.56" font-family="Times,serif" font-size="14.00">2879</text>
</a>
</g>
</g>
<!-- 2879&#45;&gt;24810 -->
<g id="edge6" class="edge"><title>2879&#45;&gt;24810</title>
<path fill="none" stroke="black" d="M1666.4,-1257.82C1689.92,-1233.78 1735.05,-1187.64 1758.87,-1163.28"/>
</g>
<!-- 3225 -->
<g id="node12" class="node"><title>3225</title>
<g id="a_node12"><a xlink:title="Day_0">
<ellipse fill="#efff05" stroke="black" cx="480.275" cy="-1103.71" rx="28.6953" ry="18"/>
<text text-anchor="middle" x="480.275" y="-1100.01" font-family="Times,serif" font-size="14.00">3225</text>
</a>
</g>
</g>
<!-- 3225&#45;&gt;9162 -->
<g id="edge91" class="edge"><title>3225&#45;&gt;9162</title>
<path fill="none" stroke="black" d="M493.008,-1087.55C514.306,-1060.51 556.923,-1006.41 578.35,-979.209"/>
</g>
<!-- 3227 -->
<g id="node13" class="node"><title>3227</title>
<g id="a_node13"><a xlink:title="Day_0">
<ellipse fill="#efff05" stroke="black" cx="2573.7" cy="-1286.65" rx="28.6953" ry="18"/>
<text text-anchor="middle" x="2573.7" y="-1282.95" font-family="Times,serif" font-size="14.00">3227</text>
</a>
</g>
</g>
<!-- 3227&#45;&gt;17096 -->
<g id="edge83" class="edge"><title>3227&#45;&gt;17096</title>
<path fill="none" stroke="black" d="M2544.84,-1285.57C2495.97,-1283.74 2397.26,-1280.03 2345.93,-1278.1"/>
</g>
<!-- 3321 -->
<g id="node14" class="node"><title>3321</title>
<g id="a_node14"><a xlink:title="Day_0">
<ellipse fill="#efff05" stroke="black" cx="2038.04" cy="-1570.39" rx="28.6953" ry="18"/>
<text text-anchor="middle" x="2038.04" y="-1566.69" font-family="Times,serif" font-size="14.00">3321</text>
</a>
</g>
</g>
<!-- 12610 -->
<g id="node37" class="node"><title>12610</title>
<g id="a_node37"><a xlink:title="Day_0">
<ellipse fill="#efff05" stroke="black" cx="1912.07" cy="-1358.19" rx="32.4942" ry="18"/>
<text text-anchor="middle" x="1912.07" y="-1354.49" font-family="Times,serif" font-size="14.00">12610</text>
</a>
</g>
</g>
<!-- 3321&#45;&gt;12610 -->
<g id="edge46" class="edge"><title>3321&#45;&gt;12610</title>
<path fill="none" stroke="black" d="M2027.94,-1553.38C2004.41,-1513.75 1946.14,-1415.58 1922.39,-1375.58"/>
</g>
<!-- 3325 -->
<g id="node15" class="node"><title>3325</title>
<g id="a_node15"><a xlink:title="Day_0">
<ellipse fill="#efff05" stroke="black" cx="615.875" cy="-765.334" rx="28.6953" ry="18"/>
<text text-anchor="middle" x="615.875" y="-761.634" font-family="Times,serif" font-size="14.00">3325</text>
</a>
</g>
</g>
<!-- 3325&#45;&gt;9162 -->
<g id="edge31" class="edge"><title>3325&#45;&gt;9162</title>
<path fill="none" stroke="black" d="M613.605,-783.557C608.918,-821.175 598.222,-907.04 593.541,-944.62"/>
</g>
<!-- 3996 -->
<g id="node16" class="node"><title>3996</title>
<g id="a_node16"><a xlink:title="Day_0">
<ellipse fill="#ffffff" stroke="black" cx="1761.26" cy="-1921.25" rx="28.6953" ry="18"/>
<text text-anchor="middle" x="1761.26" y="-1917.55" font-family="Times,serif" font-size="14.00">3996</text>
</a>
</g>
</g>
<!-- 24994 -->
<g id="node86" class="node"><title>24994</title>
<g id="a_node86"><a xlink:title="Day_0">
<ellipse fill="#efff05" stroke="black" cx="1702.18" cy="-1682.97" rx="32.4942" ry="18"/>
<text text-anchor="middle" x="1702.18" y="-1679.27" font-family="Times,serif" font-size="14.00">24994</text>
</a>
</g>
</g>
<!-- 3996&#45;&gt;24994 -->
<g id="edge49" class="edge"><title>3996&#45;&gt;24994</title>
<path fill="none" stroke="black" d="M1756.81,-1903.34C1745.87,-1859.18 1717.67,-1745.46 1706.67,-1701.09"/>
</g>
<!-- 4728 -->
<g id="node17" class="node"><title>4728</title>
<g id="a_node17"><a xlink:title="Day_0">
<ellipse fill="#efff05" stroke="black" cx="1904.84" cy="-999.107" rx="28.6953" ry="18"/>
<text text-anchor="middle" x="1904.84" y="-995.407" font-family="Times,serif" font-size="14.00">4728</text>
</a>
</g>
</g>
<!-- 4728&#45;&gt;24810 -->
<g id="edge72" class="edge"><title>4728&#45;&gt;24810</title>
<path fill="none" stroke="black" d="M1890.89,-1014.97C1865.93,-1043.34 1813.9,-1102.5 1788.73,-1131.12"/>
</g>
<!-- 5191 -->
<g id="node18" class="node"><title>5191</title>
<g id="a_node18"><a xlink:title="Day_0">
<ellipse fill="#efff05" stroke="black" cx="2525.18" cy="-1142.51" rx="28.6953" ry="18"/>
<text text-anchor="middle" x="2525.18" y="-1138.81" font-family="Times,serif" font-size="14.00">5191</text>
</a>
</g>
</g>
<!-- 5191&#45;&gt;17096 -->
<g id="edge87" class="edge"><title>5191&#45;&gt;17096</title>
<path fill="none" stroke="black" d="M2504.86,-1155.39C2464.77,-1180.81 2375.82,-1237.21 2334.78,-1263.24"/>
</g>
<!-- 5536 -->
<g id="node19" class="node"><title>5536</title>
<g id="a_node19"><a xlink:title="Day_0">
<ellipse fill="#efff05" stroke="black" cx="525.06" cy="-793.248" rx="28.6953" ry="18"/>
<text text-anchor="middle" x="525.06" y="-789.548" font-family="Times,serif" font-size="14.00">5536</text>
</a>
</g>
</g>
<!-- 5536&#45;&gt;9162 -->
<g id="edge36" class="edge"><title>5536&#45;&gt;9162</title>
<path fill="none" stroke="black" d="M531.897,-810.755C544.586,-843.245 571.642,-912.524 584.378,-945.134"/>
</g>
<!-- 6267 -->
<g id="node20" class="node"><title>6267</title>
<g id="a_node20"><a xlink:title="Day_0">
<ellipse fill="#efff05" stroke="black" cx="1517.3" cy="-1319.72" rx="28.6953" ry="18"/>
<text text-anchor="middle" x="1517.3" y="-1316.02" font-family="Times,serif" font-size="14.00">6267</text>
</a>
</g>
</g>
<!-- 6267&#45;&gt;24810 -->
<g id="edge22" class="edge"><title>6267&#45;&gt;24810</title>
<path fill="none" stroke="black" d="M1537.05,-1306.48C1584.57,-1274.62 1704.93,-1193.94 1753.6,-1161.32"/>
</g>
<!-- 14224 -->
<g id="node92" class="node"><title>14224</title>
<g id="a_node92"><a xlink:title="Day_0">
<ellipse fill="grey" stroke="black" cx="1296.5" cy="-1436.58" rx="32.4942" ry="18"/>
<text text-anchor="middle" x="1296.5" y="-1432.88" font-family="Times,serif" font-size="14.00">14224</text>
</a>
</g>
</g>
<!-- 6267&#45;&gt;14224 -->
<g id="edge10" class="edge"><title>6267&#45;&gt;14224</title>
<path fill="none" stroke="black" d="M1495.32,-1331.35C1453.54,-1353.46 1363.01,-1401.37 1320.05,-1424.11"/>
</g>
<!-- 10441 -->
<g id="node94" class="node"><title>10441</title>
<g id="a_node94"><a xlink:title="Day_0">
<ellipse fill="grey" stroke="black" cx="1347.94" cy="-1508.99" rx="32.4942" ry="18"/>
<text text-anchor="middle" x="1347.94" y="-1505.29" font-family="Times,serif" font-size="14.00">10441</text>
</a>
</g>
</g>
<!-- 6267&#45;&gt;10441 -->
<g id="edge86" class="edge"><title>6267&#45;&gt;10441</title>
<path fill="none" stroke="black" d="M1503.15,-1335.53C1471.35,-1371.07 1394.5,-1456.95 1362.4,-1492.83"/>
</g>
<!-- 7174 -->
<g id="node21" class="node"><title>7174</title>
<g id="a_node21"><a xlink:title="Day_0">
<ellipse fill="#efff05" stroke="black" cx="2439.3" cy="-1507.82" rx="28.6953" ry="18"/>
<text text-anchor="middle" x="2439.3" y="-1504.12" font-family="Times,serif" font-size="14.00">7174</text>
</a>
</g>
</g>
<!-- 7174&#45;&gt;17096 -->
<g id="edge19" class="edge"><title>7174&#45;&gt;17096</title>
<path fill="none" stroke="black" d="M2429.83,-1490.46C2406.41,-1447.56 2346.03,-1336.91 2322.68,-1294.12"/>
</g>
<!-- 7943 -->
<g id="node22" class="node"><title>7943</title>
<g id="a_node22"><a xlink:title="Day_0">
<ellipse fill="#efff05" stroke="black" cx="1982.3" cy="-1283.91" rx="28.6953" ry="18"/>
<text text-anchor="middle" x="1982.3" y="-1280.21" font-family="Times,serif" font-size="14.00">7943</text>
</a>
</g>
</g>
<!-- 22272 -->
<g id="node80" class="node"><title>22272</title>
<g id="a_node80"><a xlink:title="Day_0">
<ellipse fill="grey" stroke="black" cx="2162.09" cy="-1446.39" rx="32.4942" ry="18"/>
<text text-anchor="middle" x="2162.09" y="-1442.69" font-family="Times,serif" font-size="14.00">22272</text>
</a>
</g>
</g>
<!-- 7943&#45;&gt;22272 -->
<g id="edge81" class="edge"><title>7943&#45;&gt;22272</title>
<path fill="none" stroke="black" d="M1998.9,-1298.9C2032.97,-1329.7 2110.53,-1399.8 2145.01,-1430.96"/>
</g>
<!-- 7943&#45;&gt;24810 -->
<g id="edge41" class="edge"><title>7943&#45;&gt;24810</title>
<path fill="none" stroke="black" d="M1962.38,-1270.81C1923.06,-1244.97 1835.84,-1187.64 1795.59,-1161.18"/>
</g>
<!-- 8175 -->
<g id="node23" class="node"><title>8175</title>
<g id="a_node23"><a xlink:title="Day_0">
<ellipse fill="#efff05" stroke="black" cx="1679.92" cy="-1871.89" rx="28.6953" ry="18"/>
<text text-anchor="middle" x="1679.92" y="-1868.19" font-family="Times,serif" font-size="14.00">8175</text>
</a>
</g>
</g>
<!-- 8175&#45;&gt;24994 -->
<g id="edge58" class="edge"><title>8175&#45;&gt;24994</title>
<path fill="none" stroke="black" d="M1682.06,-1853.78C1686.31,-1817.67 1695.8,-1737.09 1700.05,-1701.03"/>
</g>
<!-- 8789&#45;&gt;24994 -->
<g id="edge42" class="edge"><title>8789&#45;&gt;24994</title>
<path fill="none" stroke="black" d="M1706.43,-1964.26C1705.62,-1910.65 1703.26,-1754.32 1702.45,-1701.02"/>
</g>
<!-- 8805 -->
<g id="node25" class="node"><title>8805</title>
<g id="a_node25"><a xlink:title="Day_0">
<ellipse fill="grey" stroke="black" cx="1929.29" cy="-442.192" rx="28.6953" ry="18"/>
<text text-anchor="middle" x="1929.29" y="-438.492" font-family="Times,serif" font-size="14.00">8805</text>
</a>
</g>
</g>
<!-- 8805&#45;&gt;20720 -->
<g id="edge51" class="edge"><title>8805&#45;&gt;20720</title>
<path fill="none" stroke="black" d="M1912.67,-457.175C1882,-484.837 1816.78,-543.66 1785.64,-571.747"/>
</g>
<!-- 9239 -->
<g id="node27" class="node"><title>9239</title>
<g id="a_node27"><a xlink:title="Day_0">
<ellipse fill="#efff05" stroke="black" cx="464.472" cy="-869.418" rx="28.6953" ry="18"/>
<text text-anchor="middle" x="464.472" y="-865.718" font-family="Times,serif" font-size="14.00">9239</text>
</a>
</g>
</g>
<!-- 9162&#45;&gt;9239 -->
<g id="edge21" class="edge"><title>9162&#45;&gt;9239</title>
<path fill="none" stroke="black" d="M572.566,-949.02C548.592,-931.365 507.271,-900.935 483.259,-883.253"/>
</g>
<!-- 9162&#45;&gt;12502 -->
<g id="edge3" class="edge"><title>9162&#45;&gt;12502</title>
<path fill="none" stroke="black" d="M619.43,-966.733C717.013,-980.372 1040.39,-1025.57 1143.27,-1039.94"/>
</g>
<!-- 12581 -->
<g id="node36" class="node"><title>12581</title>
<g id="a_node36"><a xlink:title="Day_0">
<ellipse fill="#efff05" stroke="black" cx="389.596" cy="-900.002" rx="32.4942" ry="18"/>
<text text-anchor="middle" x="389.596" y="-896.302" font-family="Times,serif" font-size="14.00">12581</text>
</a>
</g>
</g>
<!-- 9162&#45;&gt;12581 -->
<g id="edge68" class="edge"><title>9162&#45;&gt;12581</title>
<path fill="none" stroke="black" d="M565.323,-954.718C527.449,-942.925 457.287,-921.079 418.048,-908.861"/>
</g>
<!-- 13941 -->
<g id="node39" class="node"><title>13941</title>
<g id="a_node39"><a xlink:title="Day_0">
<ellipse fill="#efff05" stroke="black" cx="409.599" cy="-1113.44" rx="32.4942" ry="18"/>
<text text-anchor="middle" x="409.599" y="-1109.74" font-family="Times,serif" font-size="14.00">13941</text>
</a>
</g>
</g>
<!-- 9162&#45;&gt;13941 -->
<g id="edge92" class="edge"><title>9162&#45;&gt;13941</title>
<path fill="none" stroke="black" d="M573.857,-977.242C539.397,-1005.81 462.836,-1069.3 427.772,-1098.37"/>
</g>
<!-- 16033 -->
<g id="node47" class="node"><title>16033</title>
<g id="a_node47"><a xlink:title="Day_0">
<ellipse fill="#efff05" stroke="black" cx="453.699" cy="-768.9" rx="32.4942" ry="18"/>
<text text-anchor="middle" x="453.699" y="-765.2" font-family="Times,serif" font-size="14.00">16033</text>
</a>
</g>
</g>
<!-- 9162&#45;&gt;16033 -->
<g id="edge39" class="edge"><title>9162&#45;&gt;16033</title>
<path fill="none" stroke="black" d="M579.547,-946.267C553.619,-909.726 491.675,-822.422 465.595,-785.665"/>
</g>
<!-- 16313 -->
<g id="node51" class="node"><title>16313</title>
<g id="a_node51"><a xlink:title="Day_0">
<ellipse fill="#efff05" stroke="black" cx="405.33" cy="-818.079" rx="32.4942" ry="18"/>
<text text-anchor="middle" x="405.33" y="-814.379" font-family="Times,serif" font-size="14.00">16313</text>
</a>
</g>
</g>
<!-- 9162&#45;&gt;16313 -->
<g id="edge32" class="edge"><title>9162&#45;&gt;16313</title>
<path fill="none" stroke="black" d="M573.109,-948.659C537.834,-921.205 460.386,-860.928 424.403,-832.923"/>
</g>
<!-- 17509 -->
<g id="node56" class="node"><title>17509</title>
<g id="a_node56"><a xlink:title="Day_0">
<ellipse fill="grey" stroke="black" cx="531.595" cy="-734.464" rx="32.4942" ry="18"/>
<text text-anchor="middle" x="531.595" y="-730.764" font-family="Times,serif" font-size="14.00">17509</text>
</a>
</g>
</g>
<!-- 9162&#45;&gt;17509 -->
<g id="edge90" class="edge"><title>9162&#45;&gt;17509</title>
<path fill="none" stroke="black" d="M586.593,-944.882C575.437,-902.198 547.391,-794.898 536.256,-752.298"/>
</g>
<!-- 19775 -->
<g id="node64" class="node"><title>19775</title>
<g id="a_node64"><a xlink:title="Day_0">
<ellipse fill="#efff05" stroke="black" cx="473.108" cy="-1166.56" rx="32.4942" ry="18"/>
<text text-anchor="middle" x="473.108" y="-1162.86" font-family="Times,serif" font-size="14.00">19775</text>
</a>
</g>
</g>
<!-- 9162&#45;&gt;19775 -->
<g id="edge63" class="edge"><title>9162&#45;&gt;19775</title>
<path fill="none" stroke="black" d="M581.405,-979.821C559.217,-1018.08 505.599,-1110.53 483.203,-1149.15"/>
</g>
<!-- 20095 -->
<g id="node67" class="node"><title>20095</title>
<g id="a_node67"><a xlink:title="Day_0">
<ellipse fill="#efff05" stroke="black" cx="296.485" cy="-1003.38" rx="32.4942" ry="18"/>
<text text-anchor="middle" x="296.485" y="-999.682" font-family="Times,serif" font-size="14.00">20095</text>
</a>
</g>
</g>
<!-- 9162&#45;&gt;20095 -->
<g id="edge52" class="edge"><title>9162&#45;&gt;20095</title>
<path fill="none" stroke="black" d="M563.277,-966.653C508.233,-974.231 386.25,-991.024 328.276,-999.005"/>
</g>
<!-- 20708 -->
<g id="node70" class="node"><title>20708</title>
<g id="a_node70"><a xlink:title="Day_0">
<ellipse fill="#efff05" stroke="black" cx="376.002" cy="-970.39" rx="32.4942" ry="18"/>
<text text-anchor="middle" x="376.002" y="-966.69" font-family="Times,serif" font-size="14.00">20708</text>
</a>
</g>
</g>
<!-- 9162&#45;&gt;20708 -->
<g id="edge28" class="edge"><title>9162&#45;&gt;20708</title>
<path fill="none" stroke="black" d="M562.69,-963.807C522.774,-965.214 450.533,-967.762 408.582,-969.241"/>
</g>
<!-- 24908 -->
<g id="node85" class="node"><title>24908</title>
<g id="a_node85"><a xlink:title="Day_0">
<ellipse fill="#efff05" stroke="black" cx="378.466" cy="-1053.96" rx="32.4942" ry="18"/>
<text text-anchor="middle" x="378.466" y="-1050.26" font-family="Times,serif" font-size="14.00">24908</text>
</a>
</g>
</g>
<!-- 9162&#45;&gt;24908 -->
<g id="edge75" class="edge"><title>9162&#45;&gt;24908</title>
<path fill="none" stroke="black" d="M567.278,-973.079C526.95,-990.356 445.929,-1025.06 404.362,-1042.87"/>
</g>
<!-- 9284 -->
<g id="node28" class="node"><title>9284</title>
<g id="a_node28"><a xlink:title="Day_0">
<ellipse fill="#efff05" stroke="black" cx="1789.14" cy="-358.742" rx="28.6953" ry="18"/>
<text text-anchor="middle" x="1789.14" y="-355.042" font-family="Times,serif" font-size="14.00">9284</text>
</a>
</g>
</g>
<!-- 9284&#45;&gt;20720 -->
<g id="edge44" class="edge"><title>9284&#45;&gt;20720</title>
<path fill="none" stroke="black" d="M1787.48,-377.06C1783.58,-419.963 1773.9,-526.544 1770.03,-569.217"/>
</g>
<!-- 9302 -->
<g id="node29" class="node"><title>9302</title>
<g id="a_node29"><a xlink:title="Day_0">
<ellipse fill="grey" stroke="black" cx="1909.39" cy="-1229.17" rx="28.6953" ry="18"/>
<text text-anchor="middle" x="1909.39" y="-1225.47" font-family="Times,serif" font-size="14.00">9302</text>
</a>
</g>
</g>
<!-- 9302&#45;&gt;24810 -->
<g id="edge35" class="edge"><title>9302&#45;&gt;24810</title>
<path fill="none" stroke="black" d="M1888.61,-1216.56C1863.63,-1201.4 1821.9,-1176.08 1796.42,-1160.62"/>
</g>
<!-- 9561 -->
<g id="node30" class="node"><title>9561</title>
<g id="a_node30"><a xlink:title="Day_0">
<ellipse fill="grey" stroke="black" cx="2269.98" cy="-900.546" rx="28.6953" ry="18"/>
<text text-anchor="middle" x="2269.98" y="-896.846" font-family="Times,serif" font-size="14.00">9561</text>
</a>
</g>
</g>
<!-- 21457 -->
<g id="node77" class="node"><title>21457</title>
<g id="a_node77"><a xlink:title="Day_0">
<ellipse fill="#efff05" stroke="black" cx="2058.52" cy="-1023.81" rx="32.4942" ry="18"/>
<text text-anchor="middle" x="2058.52" y="-1020.11" font-family="Times,serif" font-size="14.00">21457</text>
</a>
</g>
</g>
<!-- 9561&#45;&gt;21457 -->
<g id="edge5" class="edge"><title>9561&#45;&gt;21457</title>
<path fill="none" stroke="black" d="M2248.93,-912.815C2208.92,-936.137 2122.22,-986.676 2081.07,-1010.66"/>
</g>
<!-- 10625 -->
<g id="node31" class="node"><title>10625</title>
<g id="a_node31"><a xlink:title="Day_0">
<ellipse fill="#efff05" stroke="black" cx="2314.42" cy="-617.281" rx="32.4942" ry="18"/>
<text text-anchor="middle" x="2314.42" y="-613.581" font-family="Times,serif" font-size="14.00">10625</text>
</a>
</g>
</g>
<!-- 16231 -->
<g id="node50" class="node"><title>16231</title>
<g id="a_node50"><a xlink:title="Day_0">
<ellipse fill="grey" stroke="black" cx="2489.5" cy="-464.149" rx="32.4942" ry="18"/>
<text text-anchor="middle" x="2489.5" y="-460.449" font-family="Times,serif" font-size="14.00">16231</text>
</a>
</g>
</g>
<!-- 10625&#45;&gt;16231 -->
<g id="edge70" class="edge"><title>10625&#45;&gt;16231</title>
<path fill="none" stroke="black" d="M2331.85,-602.038C2365.32,-572.761 2438.26,-508.963 2471.89,-479.557"/>
</g>
<!-- 16893 -->
<g id="node54" class="node"><title>16893</title>
<g id="a_node54"><a xlink:title="Day_0">
<ellipse fill="#efff05" stroke="black" cx="2064.76" cy="-835.474" rx="32.4942" ry="18"/>
<text text-anchor="middle" x="2064.76" y="-831.774" font-family="Times,serif" font-size="14.00">16893</text>
</a>
</g>
</g>
<!-- 10625&#45;&gt;16893 -->
<g id="edge17" class="edge"><title>10625&#45;&gt;16893</title>
<path fill="none" stroke="black" d="M2296.86,-632.624C2251.02,-672.686 2128.11,-780.105 2082.29,-820.148"/>
</g>
<!-- 10633 -->
<g id="node32" class="node"><title>10633</title>
<g id="a_node32"><a xlink:title="Day_0">
<ellipse fill="#efff05" stroke="black" cx="1564.34" cy="-1884.49" rx="32.4942" ry="18"/>
<text text-anchor="middle" x="1564.34" y="-1880.79" font-family="Times,serif" font-size="14.00">10633</text>
</a>
</g>
</g>
<!-- 10633&#45;&gt;24994 -->
<g id="edge48" class="edge"><title>10633&#45;&gt;24994</title>
<path fill="none" stroke="black" d="M1575.86,-1867.66C1601.8,-1829.73 1664.59,-1737.92 1690.6,-1699.9"/>
</g>
<!-- 11558 -->
<g id="node33" class="node"><title>11558</title>
<g id="a_node33"><a xlink:title="Day_0">
<ellipse fill="#efff05" stroke="black" cx="1598.61" cy="-451.777" rx="32.4942" ry="18"/>
<text text-anchor="middle" x="1598.61" y="-448.077" font-family="Times,serif" font-size="14.00">11558</text>
</a>
</g>
</g>
<!-- 11558&#45;&gt;20720 -->
<g id="edge24" class="edge"><title>11558&#45;&gt;20720</title>
<path fill="none" stroke="black" d="M1617.43,-466.799C1650.15,-492.919 1717.15,-546.4 1749.74,-572.423"/>
</g>
<!-- 11602 -->
<g id="node34" class="node"><title>11602</title>
<g id="a_node34"><a xlink:title="Day_0">
<ellipse fill="grey" stroke="black" cx="1861.19" cy="-929.634" rx="32.4942" ry="18"/>
<text text-anchor="middle" x="1861.19" y="-925.934" font-family="Times,serif" font-size="14.00">11602</text>
</a>
</g>
</g>
<!-- 11602&#45;&gt;24810 -->
<g id="edge34" class="edge"><title>11602&#45;&gt;24810</title>
<path fill="none" stroke="black" d="M1854.1,-947.448C1837.8,-988.368 1797.84,-1088.7 1781.56,-1129.56"/>
</g>
<!-- 15491 -->
<g id="node44" class="node"><title>15491</title>
<g id="a_node44"><a xlink:title="Day_0">
<ellipse fill="#efff05" stroke="black" cx="994.035" cy="-923.941" rx="32.4942" ry="18"/>
<text text-anchor="middle" x="994.035" y="-920.241" font-family="Times,serif" font-size="14.00">15491</text>
</a>
</g>
</g>
<!-- 12502&#45;&gt;15491 -->
<g id="edge55" class="edge"><title>12502&#45;&gt;15491</title>
<path fill="none" stroke="black" d="M1153.88,-1030.33C1119.01,-1007.12 1049.79,-961.051 1015.01,-937.903"/>
</g>
<!-- 12502&#45;&gt;24810 -->
<g id="edge23" class="edge"><title>12502&#45;&gt;24810</title>
<path fill="none" stroke="black" d="M1206.38,-1049.77C1309.97,-1067.55 1640.27,-1124.27 1743.41,-1141.98"/>
</g>
<!-- 12610&#45;&gt;24810 -->
<g id="edge84" class="edge"><title>12610&#45;&gt;24810</title>
<path fill="none" stroke="black" d="M1900.81,-1340.94C1874.95,-1301.29 1811.54,-1204.1 1785.71,-1164.51"/>
</g>
<!-- 12800 -->
<g id="node38" class="node"><title>12800</title>
<g id="a_node38"><a xlink:title="Day_0">
<ellipse fill="grey" stroke="black" cx="1660.45" cy="-964.743" rx="32.4942" ry="18"/>
<text text-anchor="middle" x="1660.45" y="-961.043" font-family="Times,serif" font-size="14.00">12800</text>
</a>
</g>
</g>
<!-- 12800&#45;&gt;24810 -->
<g id="edge12" class="edge"><title>12800&#45;&gt;24810</title>
<path fill="none" stroke="black" d="M1671.18,-981.918C1692.92,-1016.71 1741.93,-1095.18 1763.71,-1130.05"/>
</g>
<!-- 14260 -->
<g id="node40" class="node"><title>14260</title>
<g id="a_node40"><a xlink:title="Day_0">
<ellipse fill="#efff05" stroke="black" cx="1267.43" cy="-1216.81" rx="32.4942" ry="18"/>
<text text-anchor="middle" x="1267.43" y="-1213.11" font-family="Times,serif" font-size="14.00">14260</text>
</a>
</g>
</g>
<!-- 15387 -->
<g id="node43" class="node"><title>15387</title>
<g id="a_node43"><a xlink:title="Day_0">
<ellipse fill="#efff05" stroke="black" cx="1499.85" cy="-1167.78" rx="32.4942" ry="18"/>
<text text-anchor="middle" x="1499.85" y="-1164.08" font-family="Times,serif" font-size="14.00">15387</text>
</a>
</g>
</g>
<!-- 14260&#45;&gt;15387 -->
<g id="edge11" class="edge"><title>14260&#45;&gt;15387</title>
<path fill="none" stroke="black" d="M1297.82,-1210.4C1342.36,-1201 1424.91,-1183.59 1469.46,-1174.19"/>
</g>
<!-- 14889 -->
<g id="node41" class="node"><title>14889</title>
<g id="a_node41"><a xlink:title="Day_0">
<ellipse fill="grey" stroke="black" cx="2157.92" cy="-1911.69" rx="32.4942" ry="18"/>
<text text-anchor="middle" x="2157.92" y="-1907.99" font-family="Times,serif" font-size="14.00">14889</text>
</a>
</g>
</g>
<!-- 14889&#45;&gt;25462 -->
<g id="edge57" class="edge"><title>14889&#45;&gt;25462</title>
<path fill="none" stroke="black" d="M2148.14,-1894.44C2126.45,-1856.2 2074.57,-1764.7 2052.91,-1726.51"/>
</g>
<!-- 15034 -->
<g id="node42" class="node"><title>15034</title>
<g id="a_node42"><a xlink:title="Day_0">
<ellipse fill="#efff05" stroke="black" cx="1810.68" cy="-1320.35" rx="32.4942" ry="18"/>
<text text-anchor="middle" x="1810.68" y="-1316.65" font-family="Times,serif" font-size="14.00">15034</text>
</a>
</g>
</g>
<!-- 15034&#45;&gt;24810 -->
<g id="edge73" class="edge"><title>15034&#45;&gt;24810</title>
<path fill="none" stroke="black" d="M1806.87,-1302.16C1799.91,-1268.84 1785.17,-1198.4 1778.24,-1165.26"/>
</g>
<!-- 15387&#45;&gt;24810 -->
<g id="edge20" class="edge"><title>15387&#45;&gt;24810</title>
<path fill="none" stroke="black" d="M1532.17,-1165.37C1584.91,-1161.44 1688.93,-1153.69 1741.88,-1149.74"/>
</g>
<!-- 15507 -->
<g id="node45" class="node"><title>15507</title>
<g id="a_node45"><a xlink:title="Day_0">
<ellipse fill="#efff05" stroke="black" cx="2557.51" cy="-1345.08" rx="32.4942" ry="18"/>
<text text-anchor="middle" x="2557.51" y="-1341.38" font-family="Times,serif" font-size="14.00">15507</text>
</a>
</g>
</g>
<!-- 15507&#45;&gt;17096 -->
<g id="edge65" class="edge"><title>15507&#45;&gt;17096</title>
<path fill="none" stroke="black" d="M2528.05,-1336.85C2480.98,-1323.71 2389.35,-1298.12 2342.45,-1285.03"/>
</g>
<!-- 15682 -->
<g id="node46" class="node"><title>15682</title>
<g id="a_node46"><a xlink:title="Day_0">
<ellipse fill="#ffffff" stroke="black" cx="1831.61" cy="-1876.18" rx="32.4942" ry="18"/>
<text text-anchor="middle" x="1831.61" y="-1872.48" font-family="Times,serif" font-size="14.00">15682</text>
</a>
</g>
</g>
<!-- 15682&#45;&gt;24994 -->
<g id="edge61" class="edge"><title>15682&#45;&gt;24994</title>
<path fill="none" stroke="black" d="M1820.13,-1859.03C1795.56,-1822.37 1738.18,-1736.71 1713.64,-1700.08"/>
</g>
<!-- 16165 -->
<g id="node48" class="node"><title>16165</title>
<g id="a_node48"><a xlink:title="Day_0">
<ellipse fill="#efff05" stroke="black" cx="1612.14" cy="-1935.33" rx="32.4942" ry="18"/>
<text text-anchor="middle" x="1612.14" y="-1931.63" font-family="Times,serif" font-size="14.00">16165</text>
</a>
</g>
</g>
<!-- 16165&#45;&gt;24994 -->
<g id="edge59" class="edge"><title>16165&#45;&gt;24994</title>
<path fill="none" stroke="black" d="M1618.47,-1917.58C1635,-1871.25 1679.33,-1747.01 1695.85,-1700.69"/>
</g>
<!-- 16214 -->
<g id="node49" class="node"><title>16214</title>
<g id="a_node49"><a xlink:title="Day_0">
<ellipse fill="#efff05" stroke="black" cx="1781.99" cy="-963.224" rx="32.4942" ry="18"/>
<text text-anchor="middle" x="1781.99" y="-959.524" font-family="Times,serif" font-size="14.00">16214</text>
</a>
</g>
</g>
<!-- 16214&#45;&gt;24810 -->
<g id="edge85" class="edge"><title>16214&#45;&gt;24810</title>
<path fill="none" stroke="black" d="M1781.24,-981.549C1779.8,-1016.83 1776.67,-1093.84 1775.23,-1129.06"/>
</g>
<!-- 16724 -->
<g id="node52" class="node"><title>16724</title>
<g id="a_node52"><a xlink:title="Day_0">
<ellipse fill="grey" stroke="black" cx="2297.59" cy="-726.233" rx="32.4942" ry="18"/>
<text text-anchor="middle" x="2297.59" y="-722.533" font-family="Times,serif" font-size="14.00">16724</text>
</a>
</g>
</g>
<!-- 16724&#45;&gt;16893 -->
<g id="edge29" class="edge"><title>16724&#45;&gt;16893</title>
<path fill="none" stroke="black" d="M2272.67,-737.924C2227.98,-758.895 2134.67,-802.673 2089.85,-823.702"/>
</g>
<!-- 16821 -->
<g id="node53" class="node"><title>16821</title>
<g id="a_node53"><a xlink:title="Day_0">
<ellipse fill="#efff05" stroke="black" cx="1635.58" cy="-391.12" rx="32.4942" ry="18"/>
<text text-anchor="middle" x="1635.58" y="-387.42" font-family="Times,serif" font-size="14.00">16821</text>
</a>
</g>
</g>
<!-- 16821&#45;&gt;20720 -->
<g id="edge9" class="edge"><title>16821&#45;&gt;20720</title>
<path fill="none" stroke="black" d="M1647.14,-408.187C1672.32,-445.383 1731.89,-533.385 1756.96,-570.417"/>
</g>
<!-- 20984 -->
<g id="node73" class="node"><title>20984</title>
<g id="a_node73"><a xlink:title="Day_0">
<ellipse fill="#efff05" stroke="black" cx="2235.49" cy="-654.736" rx="32.4942" ry="18"/>
<text text-anchor="middle" x="2235.49" y="-651.036" font-family="Times,serif" font-size="14.00">20984</text>
</a>
</g>
</g>
<!-- 16893&#45;&gt;20984 -->
<g id="edge76" class="edge"><title>16893&#45;&gt;20984</title>
<path fill="none" stroke="black" d="M2079.91,-819.435C2112.31,-785.137 2188.01,-705.005 2220.38,-670.739"/>
</g>
<!-- 24348 -->
<g id="node82" class="node"><title>24348</title>
<g id="a_node82"><a xlink:title="Day_0">
<ellipse fill="#efff05" stroke="black" cx="2170.6" cy="-603.918" rx="32.4942" ry="18"/>
<text text-anchor="middle" x="2170.6" y="-600.218" font-family="Times,serif" font-size="14.00">24348</text>
</a>
</g>
</g>
<!-- 16893&#45;&gt;24348 -->
<g id="edge1" class="edge"><title>16893&#45;&gt;24348</title>
<path fill="none" stroke="black" d="M2072.89,-817.689C2092.64,-774.481 2142.96,-664.389 2162.58,-621.447"/>
</g>
<!-- 16893&#45;&gt;24810 -->
<g id="edge64" class="edge"><title>16893&#45;&gt;24810</title>
<path fill="none" stroke="black" d="M2049.56,-851.801C1999.4,-905.688 1839.48,-1077.5 1789.54,-1131.15"/>
</g>
<!-- 19629 -->
<g id="node62" class="node"><title>19629</title>
<g id="a_node62"><a xlink:title="Day_0">
<ellipse fill="grey" stroke="black" cx="2525.53" cy="-1462.87" rx="32.4942" ry="18"/>
<text text-anchor="middle" x="2525.53" y="-1459.17" font-family="Times,serif" font-size="14.00">19629</text>
</a>
</g>
</g>
<!-- 17096&#45;&gt;19629 -->
<g id="edge54" class="edge"><title>17096&#45;&gt;19629</title>
<path fill="none" stroke="black" d="M2330.64,-1292.1C2370.44,-1326.98 2467.89,-1412.36 2507.92,-1447.44"/>
</g>
<!-- 19785 -->
<g id="node65" class="node"><title>19785</title>
<g id="a_node65"><a xlink:title="Day_0">
<ellipse fill="#efff05" stroke="black" cx="2547.15" cy="-1407.58" rx="32.4942" ry="18"/>
<text text-anchor="middle" x="2547.15" y="-1403.88" font-family="Times,serif" font-size="14.00">19785</text>
</a>
</g>
</g>
<!-- 17096&#45;&gt;19785 -->
<g id="edge43" class="edge"><title>17096&#45;&gt;19785</title>
<path fill="none" stroke="black" d="M2336.55,-1289.89C2381.38,-1314.94 2479.21,-1369.61 2523.97,-1394.62"/>
</g>
<!-- 19892 -->
<g id="node66" class="node"><title>19892</title>
<g id="a_node66"><a xlink:title="Day_0">
<ellipse fill="grey" stroke="black" cx="2585.02" cy="-1191.22" rx="32.4942" ry="18"/>
<text text-anchor="middle" x="2585.02" y="-1187.52" font-family="Times,serif" font-size="14.00">19892</text>
</a>
</g>
</g>
<!-- 17096&#45;&gt;19892 -->
<g id="edge82" class="edge"><title>17096&#45;&gt;19892</title>
<path fill="none" stroke="black" d="M2341.58,-1267.95C2393.78,-1251.5 2504.61,-1216.56 2556.77,-1200.12"/>
</g>
<!-- 17096&#45;&gt;24810 -->
<g id="edge26" class="edge"><title>17096&#45;&gt;24810</title>
<path fill="none" stroke="black" d="M2283.14,-1269.64C2188.63,-1246.91 1898.62,-1177.16 1804.4,-1154.51"/>
</g>
<!-- 25980 -->
<g id="node88" class="node"><title>25980</title>
<g id="a_node88"><a xlink:title="Day_0">
<ellipse fill="#efff05" stroke="black" cx="2496.02" cy="-1231.47" rx="32.4942" ry="18"/>
<text text-anchor="middle" x="2496.02" y="-1227.77" font-family="Times,serif" font-size="14.00">25980</text>
</a>
</g>
</g>
<!-- 17096&#45;&gt;25980 -->
<g id="edge7" class="edge"><title>17096&#45;&gt;25980</title>
<path fill="none" stroke="black" d="M2343.03,-1269.48C2377.02,-1261.04 2432.29,-1247.3 2466.26,-1238.86"/>
</g>
<!-- 4759 -->
<g id="node90" class="node"><title>4759</title>
<g id="a_node90"><a xlink:title="Day_0">
<ellipse fill="#efff05" stroke="black" cx="2639.99" cy="-1353.69" rx="28.6953" ry="18"/>
<text text-anchor="middle" x="2639.99" y="-1349.99" font-family="Times,serif" font-size="14.00">4759</text>
</a>
</g>
</g>
<!-- 17096&#45;&gt;4759 -->
<g id="edge13" class="edge"><title>17096&#45;&gt;4759</title>
<path fill="none" stroke="black" d="M2343.42,-1283.97C2406.76,-1298.86 2552.8,-1333.2 2613.14,-1347.38"/>
</g>
<!-- 17832 -->
<g id="node58" class="node"><title>17832</title>
<g id="a_node58"><a xlink:title="Day_0">
<ellipse fill="#efff05" stroke="black" cx="1565.67" cy="-1098.97" rx="32.4942" ry="18"/>
<text text-anchor="middle" x="1565.67" y="-1095.27" font-family="Times,serif" font-size="14.00">17832</text>
</a>
</g>
</g>
<!-- 17832&#45;&gt;24810 -->
<g id="edge50" class="edge"><title>17832&#45;&gt;24810</title>
<path fill="none" stroke="black" d="M1596.03,-1106C1635.74,-1115.19 1704.87,-1131.2 1744.43,-1140.35"/>
</g>
<!-- 17926 -->
<g id="node59" class="node"><title>17926</title>
<g id="a_node59"><a xlink:title="Day_0">
<ellipse fill="#efff05" stroke="black" cx="1706.49" cy="-341.268" rx="32.4942" ry="18"/>
<text text-anchor="middle" x="1706.49" y="-337.568" font-family="Times,serif" font-size="14.00">17926</text>
</a>
</g>
</g>
<!-- 17926&#45;&gt;20720 -->
<g id="edge69" class="edge"><title>17926&#45;&gt;20720</title>
<path fill="none" stroke="black" d="M1711.05,-359.36C1722.49,-404.859 1752.38,-523.659 1763.83,-569.187"/>
</g>
<!-- 18655 -->
<g id="node60" class="node"><title>18655</title>
<g id="a_node60"><a xlink:title="Day_0">
<ellipse fill="#efff05" stroke="black" cx="1634.5" cy="-1369.87" rx="32.4942" ry="18"/>
<text text-anchor="middle" x="1634.5" y="-1366.17" font-family="Times,serif" font-size="14.00">18655</text>
</a>
</g>
</g>
<!-- 21891 -->
<g id="node79" class="node"><title>21891</title>
<g id="a_node79"><a xlink:title="Day_0">
<ellipse fill="#efff05" stroke="black" cx="1505.65" cy="-1580.18" rx="32.4942" ry="18"/>
<text text-anchor="middle" x="1505.65" y="-1576.48" font-family="Times,serif" font-size="14.00">21891</text>
</a>
</g>
</g>
<!-- 18655&#45;&gt;21891 -->
<g id="edge15" class="edge"><title>18655&#45;&gt;21891</title>
<path fill="none" stroke="black" d="M1623.96,-1387.08C1599.74,-1426.62 1540.35,-1523.54 1516.16,-1563.02"/>
</g>
<!-- 18655&#45;&gt;24810 -->
<g id="edge74" class="edge"><title>18655&#45;&gt;24810</title>
<path fill="none" stroke="black" d="M1645.26,-1352.78C1671.31,-1311.35 1737.61,-1205.95 1763.7,-1164.47"/>
</g>
<!-- 19519 -->
<g id="node61" class="node"><title>19519</title>
<g id="a_node61"><a xlink:title="Day_0">
<ellipse fill="#efff05" stroke="black" cx="32.2089" cy="-1032.02" rx="32.4942" ry="18"/>
<text text-anchor="middle" x="32.2089" y="-1028.32" font-family="Times,serif" font-size="14.00">19519</text>
</a>
</g>
</g>
<!-- 19519&#45;&gt;20095 -->
<g id="edge62" class="edge"><title>19519&#45;&gt;20095</title>
<path fill="none" stroke="black" d="M64.3502,-1028.54C115.247,-1023.02 213.81,-1012.34 264.567,-1006.84"/>
</g>
<!-- 19682 -->
<g id="node63" class="node"><title>19682</title>
<g id="a_node63"><a xlink:title="Day_0">
<ellipse fill="grey" stroke="black" cx="1889.88" cy="-384.123" rx="32.4942" ry="18"/>
<text text-anchor="middle" x="1889.88" y="-380.423" font-family="Times,serif" font-size="14.00">19682</text>
</a>
</g>
</g>
<!-- 19682&#45;&gt;20720 -->
<g id="edge78" class="edge"><title>19682&#45;&gt;20720</title>
<path fill="none" stroke="black" d="M1879.52,-401.446C1856.57,-439.833 1801.65,-531.68 1778.72,-570.026"/>
</g>
<!-- 20209 -->
<g id="node68" class="node"><title>20209</title>
<g id="a_node68"><a xlink:title="Day_0">
<ellipse fill="#efff05" stroke="black" cx="1591.59" cy="-1023.98" rx="32.4942" ry="18"/>
<text text-anchor="middle" x="1591.59" y="-1020.28" font-family="Times,serif" font-size="14.00">20209</text>
</a>
</g>
</g>
<!-- 20209&#45;&gt;24810 -->
<g id="edge47" class="edge"><title>20209&#45;&gt;24810</title>
<path fill="none" stroke="black" d="M1612.57,-1038.13C1647.85,-1061.92 1718.64,-1109.65 1753.75,-1133.33"/>
</g>
<!-- 20604 -->
<g id="node69" class="node"><title>20604</title>
<g id="a_node69"><a xlink:title="Day_0">
<ellipse fill="#efff05" stroke="black" cx="1814.86" cy="-280.205" rx="32.4942" ry="18"/>
<text text-anchor="middle" x="1814.86" y="-276.505" font-family="Times,serif" font-size="14.00">20604</text>
</a>
</g>
</g>
<!-- 20604&#45;&gt;20720 -->
<g id="edge71" class="edge"><title>20604&#45;&gt;20720</title>
<path fill="none" stroke="black" d="M1812.1,-298.496C1803.83,-353.116 1779.39,-514.615 1771.14,-569.11"/>
</g>
<!-- 7273 -->
<g id="node91" class="node"><title>7273</title>
<g id="a_node91"><a xlink:title="Day_0">
<ellipse fill="grey" stroke="black" cx="1845.83" cy="-17.6068" rx="28.6953" ry="18"/>
<text text-anchor="middle" x="1845.83" y="-13.9068" font-family="Times,serif" font-size="14.00">7273</text>
</a>
</g>
</g>
<!-- 20604&#45;&gt;7273 -->
<g id="edge88" class="edge"><title>20604&#45;&gt;7273</title>
<path fill="none" stroke="black" d="M1816.99,-262.155C1822.65,-214.183 1838.02,-83.8992 1843.69,-35.7825"/>
</g>
<!-- 20720&#45;&gt;24810 -->
<g id="edge79" class="edge"><title>20720&#45;&gt;24810</title>
<path fill="none" stroke="black" d="M1768.59,-605.619C1769.51,-690.446 1773.37,-1044.61 1774.29,-1129.14"/>
</g>
<!-- 21147 -->
<g id="node74" class="node"><title>21147</title>
<g id="a_node74"><a xlink:title="Day_0">
<ellipse fill="#ffffff" stroke="black" cx="1731.72" cy="-908.229" rx="32.4942" ry="18"/>
<text text-anchor="middle" x="1731.72" y="-904.529" font-family="Times,serif" font-size="14.00">21147</text>
</a>
</g>
</g>
<!-- 21147&#45;&gt;24810 -->
<g id="edge2" class="edge"><title>21147&#45;&gt;24810</title>
<path fill="none" stroke="black" d="M1734.93,-926.199C1742.86,-970.507 1763.27,-1084.61 1771.24,-1129.13"/>
</g>
<!-- 21175 -->
<g id="node75" class="node"><title>21175</title>
<g id="a_node75"><a xlink:title="Day_0">
<ellipse fill="#efff05" stroke="black" cx="2303.77" cy="-978.592" rx="32.4942" ry="18"/>
<text text-anchor="middle" x="2303.77" y="-974.892" font-family="Times,serif" font-size="14.00">21175</text>
</a>
</g>
</g>
<!-- 21175&#45;&gt;21457 -->
<g id="edge4" class="edge"><title>21175&#45;&gt;21457</title>
<path fill="none" stroke="black" d="M2272.71,-984.318C2225.66,-992.992 2136.84,-1009.37 2089.71,-1018.06"/>
</g>
<!-- 21397 -->
<g id="node76" class="node"><title>21397</title>
<g id="a_node76"><a xlink:title="Day_0">
<ellipse fill="#efff05" stroke="black" cx="1587.94" cy="-1199.64" rx="32.4942" ry="18"/>
<text text-anchor="middle" x="1587.94" y="-1195.94" font-family="Times,serif" font-size="14.00">21397</text>
</a>
</g>
</g>
<!-- 21397&#45;&gt;24810 -->
<g id="edge38" class="edge"><title>21397&#45;&gt;24810</title>
<path fill="none" stroke="black" d="M1617.09,-1191.46C1652.03,-1181.66 1710.25,-1165.33 1745.24,-1155.52"/>
</g>
<!-- 21457&#45;&gt;24810 -->
<g id="edge18" class="edge"><title>21457&#45;&gt;24810</title>
<path fill="none" stroke="black" d="M2032.81,-1034.99C1978.87,-1058.44 1854.41,-1112.56 1800.34,-1136.07"/>
</g>
<!-- 21723 -->
<g id="node78" class="node"><title>21723</title>
<g id="a_node78"><a xlink:title="Day_0">
<ellipse fill="#ffffff" stroke="black" cx="1953.6" cy="-1073.11" rx="32.4942" ry="18"/>
<text text-anchor="middle" x="1953.6" y="-1069.41" font-family="Times,serif" font-size="14.00">21723</text>
</a>
</g>
</g>
<!-- 21723&#45;&gt;24810 -->
<g id="edge45" class="edge"><title>21723&#45;&gt;24810</title>
<path fill="none" stroke="black" d="M1927.56,-1083.9C1893.6,-1097.97 1834.54,-1122.44 1800.57,-1136.51"/>
</g>
<!-- 22539 -->
<g id="node81" class="node"><title>22539</title>
<g id="a_node81"><a xlink:title="Day_0">
<ellipse fill="#efff05" stroke="black" cx="1731.6" cy="-1337.26" rx="32.4942" ry="18"/>
<text text-anchor="middle" x="1731.6" y="-1333.56" font-family="Times,serif" font-size="14.00">22539</text>
</a>
</g>
</g>
<!-- 22539&#45;&gt;24810 -->
<g id="edge27" class="edge"><title>22539&#45;&gt;24810</title>
<path fill="none" stroke="black" d="M1735.64,-1319.39C1743.81,-1283.19 1762.24,-1201.55 1770.43,-1165.27"/>
</g>
<!-- 24525 -->
<g id="node83" class="node"><title>24525</title>
<g id="a_node83"><a xlink:title="Day_0">
<ellipse fill="#efff05" stroke="black" cx="1974.08" cy="-1157.47" rx="32.4942" ry="18"/>
<text text-anchor="middle" x="1974.08" y="-1153.77" font-family="Times,serif" font-size="14.00">24525</text>
</a>
</g>
</g>
<!-- 24525&#45;&gt;24810 -->
<g id="edge14" class="edge"><title>24525&#45;&gt;24810</title>
<path fill="none" stroke="black" d="M1941.57,-1155.82C1904.45,-1153.93 1844.1,-1150.86 1806.99,-1148.97"/>
</g>
<!-- 24810&#45;&gt;24994 -->
<g id="edge16" class="edge"><title>24810&#45;&gt;24994</title>
<path fill="none" stroke="black" d="M1772.04,-1165.44C1760.98,-1247.41 1715.69,-1582.89 1704.62,-1664.84"/>
</g>
<!-- 26619 -->
<g id="node89" class="node"><title>26619</title>
<g id="a_node89"><a xlink:title="Day_0">
<ellipse fill="#efff05" stroke="black" cx="1544.96" cy="-1825.68" rx="32.4942" ry="18"/>
<text text-anchor="middle" x="1544.96" y="-1821.98" font-family="Times,serif" font-size="14.00">26619</text>
</a>
</g>
</g>
<!-- 24994&#45;&gt;26619 -->
<g id="edge8" class="edge"><title>24994&#45;&gt;26619</title>
<path fill="none" stroke="black" d="M1685.05,-1698.51C1654.81,-1725.96 1592.29,-1782.71 1562.07,-1810.15"/>
</g>
<!-- 20257 -->
<g id="node93" class="node"><title>20257</title>
<g id="a_node93"><a xlink:title="Day_0">
<ellipse fill="#efff05" stroke="black" cx="2861.82" cy="-1407.84" rx="32.4942" ry="18"/>
<text text-anchor="middle" x="2861.82" y="-1404.14" font-family="Times,serif" font-size="14.00">20257</text>
</a>
</g>
</g>
<!-- 4759&#45;&gt;20257 -->
<g id="edge40" class="edge"><title>4759&#45;&gt;20257</title>
<path fill="none" stroke="black" d="M2666.74,-1360.22C2708.34,-1370.38 2788.26,-1389.89 2831.78,-1400.51"/>
</g>
</g>
</svg>
