<?xml version="1.0" encoding="UTF-8" standalone="no"?>
<!DOCTYPE svg PUBLIC "-//W3C//DTD SVG 1.1//EN"
 "http://www.w3.org/Graphics/SVG/1.1/DTD/svg11.dtd">
<!-- Generated by graphviz version 2.38.0 (20140413.2041)
 -->
<!-- Title: %3 Pages: 1 -->
<svg width="2257pt" height="2087pt"
 viewBox="0.00 0.00 2257.00 2087.00" xmlns="http://www.w3.org/2000/svg" xmlns:xlink="http://www.w3.org/1999/xlink">
<g id="graph0" class="graph" transform="scale(1 1) rotate(0) translate(4 2083)">
<title>%3</title>
<polygon fill="white" stroke="none" points="-4,4 -4,-2083 2253,-2083 2253,4 -4,4"/>
<!-- 1519 -->
<g id="node1" class="node"><title>1519</title>
<g id="a_node1"><a xlink:title="6th_week">
<ellipse fill="#07ffd1" stroke="black" cx="1233.27" cy="-935.927" rx="28.6953" ry="18"/>
<text text-anchor="middle" x="1233.27" y="-932.227" font-family="Times,serif" font-size="14.00">1519</text>
</a>
</g>
</g>
<!-- 13493 -->
<g id="node17" class="node"><title>13493</title>
<g id="a_node17"><a xlink:title="6th_week">
<ellipse fill="#07ffd1" stroke="black" cx="1160.32" cy="-754.885" rx="32.4942" ry="18"/>
<text text-anchor="middle" x="1160.32" y="-751.185" font-family="Times,serif" font-size="14.00">13493</text>
</a>
</g>
</g>
<!-- 1519&#45;&gt;13493 -->
<g id="edge21" class="edge"><title>1519&#45;&gt;13493</title>
<path fill="none" stroke="black" d="M1226.14,-918.238C1212.19,-883.627 1181.45,-807.314 1167.48,-772.646"/>
</g>
<!-- 27164 -->
<g id="node44" class="node"><title>27164</title>
<g id="a_node44"><a xlink:title="6th_week">
<ellipse fill="#07ffd1" stroke="black" cx="1287.78" cy="-1142.43" rx="32.4942" ry="18"/>
<text text-anchor="middle" x="1287.78" y="-1138.73" font-family="Times,serif" font-size="14.00">27164</text>
</a>
</g>
</g>
<!-- 1519&#45;&gt;27164 -->
<g id="edge38" class="edge"><title>1519&#45;&gt;27164</title>
<path fill="none" stroke="black" d="M1238.01,-953.891C1248.32,-992.945 1272.67,-1085.21 1283.01,-1124.36"/>
</g>
<!-- 1736 -->
<g id="node2" class="node"><title>1736</title>
<g id="a_node2"><a xlink:title="6th_week">
<ellipse fill="#07ffd1" stroke="black" cx="2026.24" cy="-811.325" rx="28.6953" ry="18"/>
<text text-anchor="middle" x="2026.24" y="-807.625" font-family="Times,serif" font-size="14.00">1736</text>
</a>
</g>
</g>
<!-- 5027 -->
<g id="node6" class="node"><title>5027</title>
<g id="a_node6"><a xlink:title="6th_week">
<ellipse fill="grey" stroke="black" cx="2090.77" cy="-651.685" rx="28.6953" ry="18"/>
<text text-anchor="middle" x="2090.77" y="-647.985" font-family="Times,serif" font-size="14.00">5027</text>
</a>
</g>
</g>
<!-- 1736&#45;&gt;5027 -->
<g id="edge30" class="edge"><title>1736&#45;&gt;5027</title>
<path fill="none" stroke="black" d="M2033.39,-793.63C2045.8,-762.944 2071.16,-700.2 2083.59,-669.459"/>
</g>
<!-- 17785 -->
<g id="node23" class="node"><title>17785</title>
<g id="a_node23"><a xlink:title="6th_week">
<ellipse fill="#07ffd1" stroke="black" cx="1721.37" cy="-896.048" rx="32.4942" ry="18"/>
<text text-anchor="middle" x="1721.37" y="-892.348" font-family="Times,serif" font-size="14.00">17785</text>
</a>
</g>
</g>
<!-- 1736&#45;&gt;17785 -->
<g id="edge32" class="edge"><title>1736&#45;&gt;17785</title>
<path fill="none" stroke="black" d="M1999.98,-818.621C1943.37,-834.356 1810.13,-871.383 1750.78,-887.875"/>
</g>
<!-- 19626 -->
<g id="node30" class="node"><title>19626</title>
<g id="a_node30"><a xlink:title="6th_week">
<ellipse fill="#07ffd1" stroke="black" cx="2216.94" cy="-839.056" rx="32.4942" ry="18"/>
<text text-anchor="middle" x="2216.94" y="-835.356" font-family="Times,serif" font-size="14.00">19626</text>
</a>
</g>
</g>
<!-- 1736&#45;&gt;19626 -->
<g id="edge3" class="edge"><title>1736&#45;&gt;19626</title>
<path fill="none" stroke="black" d="M2054.38,-815.416C2089.29,-820.494 2148.67,-829.129 2185.19,-834.438"/>
</g>
<!-- 27352 -->
<g id="node45" class="node"><title>27352</title>
<g id="a_node45"><a xlink:title="6th_week">
<ellipse fill="#07ffd1" stroke="black" cx="2209.01" cy="-779.878" rx="32.4942" ry="18"/>
<text text-anchor="middle" x="2209.01" y="-776.178" font-family="Times,serif" font-size="14.00">27352</text>
</a>
</g>
</g>
<!-- 1736&#45;&gt;27352 -->
<g id="edge63" class="edge"><title>1736&#45;&gt;27352</title>
<path fill="none" stroke="black" d="M2054,-806.549C2087.35,-800.81 2143.15,-791.209 2177.92,-785.226"/>
</g>
<!-- 28314 -->
<g id="node49" class="node"><title>28314</title>
<g id="a_node49"><a xlink:title="6th_week">
<ellipse fill="#07ffd1" stroke="black" cx="2180.22" cy="-894.856" rx="32.4942" ry="18"/>
<text text-anchor="middle" x="2180.22" y="-891.156" font-family="Times,serif" font-size="14.00">28314</text>
</a>
</g>
</g>
<!-- 1736&#45;&gt;28314 -->
<g id="edge18" class="edge"><title>1736&#45;&gt;28314</title>
<path fill="none" stroke="black" d="M2047.98,-823.115C2076.74,-838.721 2127.26,-866.125 2156.83,-882.168"/>
</g>
<!-- 28479 -->
<g id="node50" class="node"><title>28479</title>
<g id="a_node50"><a xlink:title="6th_week">
<ellipse fill="grey" stroke="black" cx="2210.79" cy="-727.775" rx="32.4942" ry="18"/>
<text text-anchor="middle" x="2210.79" y="-724.075" font-family="Times,serif" font-size="14.00">28479</text>
</a>
</g>
</g>
<!-- 1736&#45;&gt;28479 -->
<g id="edge7" class="edge"><title>1736&#45;&gt;28479</title>
<path fill="none" stroke="black" d="M2049.61,-800.743C2084.43,-784.979 2149.66,-755.447 2185.54,-739.205"/>
</g>
<!-- 33186 -->
<g id="node60" class="node"><title>33186</title>
<g id="a_node60"><a xlink:title="6th_week">
<ellipse fill="grey" stroke="black" cx="2105.41" cy="-701.632" rx="32.4942" ry="18"/>
<text text-anchor="middle" x="2105.41" y="-697.932" font-family="Times,serif" font-size="14.00">33186</text>
</a>
</g>
</g>
<!-- 1736&#45;&gt;33186 -->
<g id="edge44" class="edge"><title>1736&#45;&gt;33186</title>
<path fill="none" stroke="black" d="M2038.26,-794.665C2053.14,-774.047 2078.34,-739.138 2093.27,-718.449"/>
</g>
<!-- 2340 -->
<g id="node3" class="node"><title>2340</title>
<g id="a_node3"><a xlink:title="6th_week">
<ellipse fill="#07ffd1" stroke="black" cx="1809.65" cy="-511.085" rx="28.6953" ry="18"/>
<text text-anchor="middle" x="1809.65" y="-507.385" font-family="Times,serif" font-size="14.00">2340</text>
</a>
</g>
</g>
<!-- 10085 -->
<g id="node11" class="node"><title>10085</title>
<g id="a_node11"><a xlink:title="6th_week">
<ellipse fill="#07ffd1" stroke="black" cx="1701.41" cy="-385.628" rx="32.4942" ry="18"/>
<text text-anchor="middle" x="1701.41" y="-381.928" font-family="Times,serif" font-size="14.00">10085</text>
</a>
</g>
</g>
<!-- 2340&#45;&gt;10085 -->
<g id="edge14" class="edge"><title>2340&#45;&gt;10085</title>
<path fill="none" stroke="black" d="M1795.94,-495.196C1775.35,-471.328 1736.62,-426.438 1715.69,-402.185"/>
</g>
<!-- 2340&#45;&gt;17785 -->
<g id="edge64" class="edge"><title>2340&#45;&gt;17785</title>
<path fill="none" stroke="black" d="M1805.51,-529.137C1790.68,-593.799 1740.32,-813.436 1725.5,-878.036"/>
</g>
<!-- 19127 -->
<g id="node28" class="node"><title>19127</title>
<g id="a_node28"><a xlink:title="6th_week">
<ellipse fill="grey" stroke="black" cx="1919.51" cy="-405.214" rx="32.4942" ry="18"/>
<text text-anchor="middle" x="1919.51" y="-401.514" font-family="Times,serif" font-size="14.00">19127</text>
</a>
</g>
</g>
<!-- 2340&#45;&gt;19127 -->
<g id="edge60" class="edge"><title>2340&#45;&gt;19127</title>
<path fill="none" stroke="black" d="M1825.39,-495.917C1846.04,-476.019 1882.1,-441.268 1903.08,-421.046"/>
</g>
<!-- 27004 -->
<g id="node43" class="node"><title>27004</title>
<g id="a_node43"><a xlink:title="6th_week">
<ellipse fill="#07ffd1" stroke="black" cx="2001.81" cy="-322.979" rx="32.4942" ry="18"/>
<text text-anchor="middle" x="2001.81" y="-319.279" font-family="Times,serif" font-size="14.00">27004</text>
</a>
</g>
</g>
<!-- 2340&#45;&gt;27004 -->
<g id="edge34" class="edge"><title>2340&#45;&gt;27004</title>
<path fill="none" stroke="black" d="M1825.37,-495.692C1861.32,-460.506 1949.18,-374.492 1985.59,-338.851"/>
</g>
<!-- 30476 -->
<g id="node54" class="node"><title>30476</title>
<g id="a_node54"><a xlink:title="6th_week">
<ellipse fill="#07ffd1" stroke="black" cx="1810.51" cy="-358.07" rx="32.4942" ry="18"/>
<text text-anchor="middle" x="1810.51" y="-354.37" font-family="Times,serif" font-size="14.00">30476</text>
</a>
</g>
</g>
<!-- 2340&#45;&gt;30476 -->
<g id="edge69" class="edge"><title>2340&#45;&gt;30476</title>
<path fill="none" stroke="black" d="M1809.75,-492.932C1809.92,-463.483 1810.24,-405.634 1810.4,-376.2"/>
</g>
<!-- 43287 -->
<g id="node71" class="node"><title>43287</title>
<g id="a_node71"><a xlink:title="6th_week">
<ellipse fill="#07ffd1" stroke="black" cx="1785.31" cy="-246.728" rx="32.4942" ry="18"/>
<text text-anchor="middle" x="1785.31" y="-243.028" font-family="Times,serif" font-size="14.00">43287</text>
</a>
</g>
</g>
<!-- 2340&#45;&gt;43287 -->
<g id="edge73" class="edge"><title>2340&#45;&gt;43287</title>
<path fill="none" stroke="black" d="M1807.98,-492.915C1803.53,-444.621 1791.45,-313.465 1786.99,-265.026"/>
</g>
<!-- 2399 -->
<g id="node4" class="node"><title>2399</title>
<g id="a_node4"><a xlink:title="6th_week">
<ellipse fill="#07ffd1" stroke="black" cx="191.18" cy="-1960.5" rx="28.6953" ry="18"/>
<text text-anchor="middle" x="191.18" y="-1956.8" font-family="Times,serif" font-size="14.00">2399</text>
</a>
</g>
</g>
<!-- 10740 -->
<g id="node12" class="node"><title>10740</title>
<g id="a_node12"><a xlink:title="6th_week">
<ellipse fill="#07ffd1" stroke="black" cx="388.645" cy="-1843.9" rx="32.4942" ry="18"/>
<text text-anchor="middle" x="388.645" y="-1840.2" font-family="Times,serif" font-size="14.00">10740</text>
</a>
</g>
</g>
<!-- 2399&#45;&gt;10740 -->
<g id="edge8" class="edge"><title>2399&#45;&gt;10740</title>
<path fill="none" stroke="black" d="M212.312,-1948.02C249.821,-1925.87 327.696,-1879.89 366.155,-1857.18"/>
</g>
<!-- 34605 -->
<g id="node62" class="node"><title>34605</title>
<g id="a_node62"><a xlink:title="6th_week">
<ellipse fill="#07ffd1" stroke="black" cx="32.958" cy="-2060.91" rx="32.4942" ry="18"/>
<text text-anchor="middle" x="32.958" y="-2057.21" font-family="Times,serif" font-size="14.00">34605</text>
</a>
</g>
</g>
<!-- 2399&#45;&gt;34605 -->
<g id="edge47" class="edge"><title>2399&#45;&gt;34605</title>
<path fill="none" stroke="black" d="M170.819,-1973.42C140.856,-1992.44 85.133,-2027.8 54.5057,-2047.24"/>
</g>
<!-- 4518 -->
<g id="node5" class="node"><title>4518</title>
<g id="a_node5"><a xlink:title="6th_week">
<ellipse fill="#07ffd1" stroke="black" cx="2072.82" cy="-138.802" rx="28.6953" ry="18"/>
<text text-anchor="middle" x="2072.82" y="-135.102" font-family="Times,serif" font-size="14.00">4518</text>
</a>
</g>
</g>
<!-- 4518&#45;&gt;27004 -->
<g id="edge25" class="edge"><title>4518&#45;&gt;27004</title>
<path fill="none" stroke="black" d="M2066.01,-156.461C2052.44,-191.665 2022.15,-270.213 2008.59,-305.372"/>
</g>
<!-- 5587 -->
<g id="node7" class="node"><title>5587</title>
<g id="a_node7"><a xlink:title="6th_week">
<ellipse fill="#07ffd1" stroke="black" cx="1166.06" cy="-1220.82" rx="28.6953" ry="18"/>
<text text-anchor="middle" x="1166.06" y="-1217.12" font-family="Times,serif" font-size="14.00">5587</text>
</a>
</g>
</g>
<!-- 5587&#45;&gt;27164 -->
<g id="edge46" class="edge"><title>5587&#45;&gt;27164</title>
<path fill="none" stroke="black" d="M1186.16,-1207.88C1208.31,-1193.61 1243.78,-1170.76 1266.42,-1156.18"/>
</g>
<!-- 5657 -->
<g id="node8" class="node"><title>5657</title>
<g id="a_node8"><a xlink:title="6th_week">
<ellipse fill="grey" stroke="black" cx="2112.62" cy="-1283.54" rx="28.6953" ry="18"/>
<text text-anchor="middle" x="2112.62" y="-1279.84" font-family="Times,serif" font-size="14.00">5657</text>
</a>
</g>
</g>
<!-- 7389 -->
<g id="node9" class="node"><title>7389</title>
<g id="a_node9"><a xlink:title="6th_week">
<ellipse fill="#07ffd1" stroke="black" cx="1987.21" cy="-1117.57" rx="28.6953" ry="18"/>
<text text-anchor="middle" x="1987.21" y="-1113.87" font-family="Times,serif" font-size="14.00">7389</text>
</a>
</g>
</g>
<!-- 5657&#45;&gt;7389 -->
<g id="edge43" class="edge"><title>5657&#45;&gt;7389</title>
<path fill="none" stroke="black" d="M2100.14,-1267.02C2076.1,-1235.21 2023.64,-1165.78 1999.64,-1134.02"/>
</g>
<!-- 12540 -->
<g id="node14" class="node"><title>12540</title>
<g id="a_node14"><a xlink:title="6th_week">
<ellipse fill="#07ffd1" stroke="black" cx="2187.67" cy="-1212.69" rx="32.4942" ry="18"/>
<text text-anchor="middle" x="2187.67" y="-1208.99" font-family="Times,serif" font-size="14.00">12540</text>
</a>
</g>
</g>
<!-- 7389&#45;&gt;12540 -->
<g id="edge4" class="edge"><title>7389&#45;&gt;12540</title>
<path fill="none" stroke="black" d="M2010.2,-1128.48C2048.15,-1146.49 2123.58,-1182.28 2162.75,-1200.86"/>
</g>
<!-- 13162 -->
<g id="node16" class="node"><title>13162</title>
<g id="a_node16"><a xlink:title="6th_week">
<ellipse fill="#07ffd1" stroke="black" cx="1960.92" cy="-1294.64" rx="32.4942" ry="18"/>
<text text-anchor="middle" x="1960.92" y="-1290.94" font-family="Times,serif" font-size="14.00">13162</text>
</a>
</g>
</g>
<!-- 7389&#45;&gt;13162 -->
<g id="edge61" class="edge"><title>7389&#45;&gt;13162</title>
<path fill="none" stroke="black" d="M1984.54,-1135.52C1979.51,-1169.46 1968.64,-1242.66 1963.59,-1276.64"/>
</g>
<!-- 7389&#45;&gt;17785 -->
<g id="edge12" class="edge"><title>7389&#45;&gt;17785</title>
<path fill="none" stroke="black" d="M1969.77,-1103.04C1921.83,-1063.09 1788.41,-951.912 1739.58,-911.219"/>
</g>
<!-- 17984 -->
<g id="node25" class="node"><title>17984</title>
<g id="a_node25"><a xlink:title="6th_week">
<ellipse fill="grey" stroke="black" cx="2173.74" cy="-1145.22" rx="32.4942" ry="18"/>
<text text-anchor="middle" x="2173.74" y="-1141.52" font-family="Times,serif" font-size="14.00">17984</text>
</a>
</g>
</g>
<!-- 7389&#45;&gt;17984 -->
<g id="edge70" class="edge"><title>7389&#45;&gt;17984</title>
<path fill="none" stroke="black" d="M2015.13,-1121.71C2049.18,-1126.76 2106.57,-1135.27 2142.18,-1140.55"/>
</g>
<!-- 24293 -->
<g id="node40" class="node"><title>24293</title>
<g id="a_node40"><a xlink:title="6th_week">
<ellipse fill="#07ffd1" stroke="black" cx="2161.26" cy="-1079.07" rx="32.4942" ry="18"/>
<text text-anchor="middle" x="2161.26" y="-1075.37" font-family="Times,serif" font-size="14.00">24293</text>
</a>
</g>
</g>
<!-- 7389&#45;&gt;24293 -->
<g id="edge57" class="edge"><title>7389&#45;&gt;24293</title>
<path fill="none" stroke="black" d="M2014.4,-1111.56C2046.05,-1104.55 2098.16,-1093.03 2131.04,-1085.75"/>
</g>
<!-- 33281 -->
<g id="node61" class="node"><title>33281</title>
<g id="a_node61"><a xlink:title="6th_week">
<ellipse fill="grey" stroke="black" cx="2097.23" cy="-1187.58" rx="32.4942" ry="18"/>
<text text-anchor="middle" x="2097.23" y="-1183.88" font-family="Times,serif" font-size="14.00">33281</text>
</a>
</g>
</g>
<!-- 7389&#45;&gt;33281 -->
<g id="edge72" class="edge"><title>7389&#45;&gt;33281</title>
<path fill="none" stroke="black" d="M2007.39,-1130.41C2026.74,-1142.73 2055.87,-1161.26 2075.67,-1173.86"/>
</g>
<!-- 39569 -->
<g id="node67" class="node"><title>39569</title>
<g id="a_node67"><a xlink:title="6th_week">
<ellipse fill="grey" stroke="black" cx="2014.68" cy="-1231.83" rx="32.4942" ry="18"/>
<text text-anchor="middle" x="2014.68" y="-1228.13" font-family="Times,serif" font-size="14.00">39569</text>
</a>
</g>
</g>
<!-- 7389&#45;&gt;39569 -->
<g id="edge26" class="edge"><title>7389&#45;&gt;39569</title>
<path fill="none" stroke="black" d="M1991.5,-1135.42C1996.63,-1156.76 2005.17,-1192.27 2010.33,-1213.72"/>
</g>
<!-- 7796 -->
<g id="node10" class="node"><title>7796</title>
<g id="a_node10"><a xlink:title="6th_week">
<ellipse fill="#07ffd1" stroke="black" cx="953.525" cy="-1617.92" rx="28.6953" ry="18"/>
<text text-anchor="middle" x="953.525" y="-1614.22" font-family="Times,serif" font-size="14.00">7796</text>
</a>
</g>
</g>
<!-- 24706 -->
<g id="node42" class="node"><title>24706</title>
<g id="a_node42"><a xlink:title="6th_week">
<ellipse fill="#07ffd1" stroke="black" cx="947.007" cy="-1461.9" rx="32.4942" ry="18"/>
<text text-anchor="middle" x="947.007" y="-1458.2" font-family="Times,serif" font-size="14.00">24706</text>
</a>
</g>
</g>
<!-- 7796&#45;&gt;24706 -->
<g id="edge5" class="edge"><title>7796&#45;&gt;24706</title>
<path fill="none" stroke="black" d="M952.765,-1599.72C951.509,-1569.66 949.015,-1509.98 947.763,-1479.99"/>
</g>
<!-- 15291 -->
<g id="node19" class="node"><title>15291</title>
<g id="a_node19"><a xlink:title="6th_week">
<ellipse fill="#07ffd1" stroke="black" cx="308.572" cy="-2013.01" rx="32.4942" ry="18"/>
<text text-anchor="middle" x="308.572" y="-2009.31" font-family="Times,serif" font-size="14.00">15291</text>
</a>
</g>
</g>
<!-- 10740&#45;&gt;15291 -->
<g id="edge10" class="edge"><title>10740&#45;&gt;15291</title>
<path fill="none" stroke="black" d="M380.377,-1861.37C365.033,-1893.77 332.315,-1962.87 316.914,-1995.4"/>
</g>
<!-- 27632 -->
<g id="node47" class="node"><title>27632</title>
<g id="a_node47"><a xlink:title="6th_week">
<ellipse fill="#07ffd1" stroke="black" cx="386.852" cy="-2025.14" rx="32.4942" ry="18"/>
<text text-anchor="middle" x="386.852" y="-2021.44" font-family="Times,serif" font-size="14.00">27632</text>
</a>
</g>
</g>
<!-- 10740&#45;&gt;27632 -->
<g id="edge19" class="edge"><title>10740&#45;&gt;27632</title>
<path fill="none" stroke="black" d="M388.466,-1861.94C388.124,-1896.59 387.377,-1972.1 387.032,-2006.9"/>
</g>
<!-- 28217 -->
<g id="node48" class="node"><title>28217</title>
<g id="a_node48"><a xlink:title="6th_week">
<ellipse fill="#07ffd1" stroke="black" cx="215.948" cy="-1782.5" rx="32.4942" ry="18"/>
<text text-anchor="middle" x="215.948" y="-1778.8" font-family="Times,serif" font-size="14.00">28217</text>
</a>
</g>
</g>
<!-- 10740&#45;&gt;28217 -->
<g id="edge20" class="edge"><title>10740&#45;&gt;28217</title>
<path fill="none" stroke="black" d="M361.28,-1834.17C329.038,-1822.71 275.779,-1803.77 243.469,-1792.29"/>
</g>
<!-- 40578 -->
<g id="node68" class="node"><title>40578</title>
<g id="a_node68"><a xlink:title="6th_week">
<ellipse fill="#07ffd1" stroke="black" cx="207.735" cy="-1861.62" rx="32.4942" ry="18"/>
<text text-anchor="middle" x="207.735" y="-1857.92" font-family="Times,serif" font-size="14.00">40578</text>
</a>
</g>
</g>
<!-- 10740&#45;&gt;40578 -->
<g id="edge50" class="edge"><title>10740&#45;&gt;40578</title>
<path fill="none" stroke="black" d="M356.302,-1847.07C323.373,-1850.3 272.626,-1855.27 239.798,-1858.48"/>
</g>
<!-- 43081 -->
<g id="node70" class="node"><title>43081</title>
<g id="a_node70"><a xlink:title="6th_week">
<ellipse fill="#07ffd1" stroke="black" cx="684.766" cy="-1645.23" rx="32.4942" ry="18"/>
<text text-anchor="middle" x="684.766" y="-1641.53" font-family="Times,serif" font-size="14.00">43081</text>
</a>
</g>
</g>
<!-- 10740&#45;&gt;43081 -->
<g id="edge28" class="edge"><title>10740&#45;&gt;43081</title>
<path fill="none" stroke="black" d="M409.467,-1829.93C463.838,-1793.46 609.622,-1695.65 663.967,-1659.19"/>
</g>
<!-- 43953 -->
<g id="node74" class="node"><title>43953</title>
<g id="a_node74"><a xlink:title="6th_week">
<ellipse fill="#07ffd1" stroke="black" cx="263.271" cy="-1947.92" rx="32.4942" ry="18"/>
<text text-anchor="middle" x="263.271" y="-1944.22" font-family="Times,serif" font-size="14.00">43953</text>
</a>
</g>
</g>
<!-- 10740&#45;&gt;43953 -->
<g id="edge13" class="edge"><title>10740&#45;&gt;43953</title>
<path fill="none" stroke="black" d="M370.414,-1859.03C346.644,-1878.75 305.304,-1913.05 281.523,-1932.78"/>
</g>
<!-- 11862 -->
<g id="node13" class="node"><title>11862</title>
<g id="a_node13"><a xlink:title="6th_week">
<ellipse fill="#07ffd1" stroke="black" cx="2145.77" cy="-174.368" rx="32.4942" ry="18"/>
<text text-anchor="middle" x="2145.77" y="-170.668" font-family="Times,serif" font-size="14.00">11862</text>
</a>
</g>
</g>
<!-- 11862&#45;&gt;27004 -->
<g id="edge36" class="edge"><title>11862&#45;&gt;27004</title>
<path fill="none" stroke="black" d="M2130.36,-190.272C2102.8,-218.725 2045.34,-278.044 2017.54,-306.739"/>
</g>
<!-- 12798 -->
<g id="node15" class="node"><title>12798</title>
<g id="a_node15"><a xlink:title="6th_week">
<ellipse fill="#07ffd1" stroke="black" cx="1132.86" cy="-1122.26" rx="32.4942" ry="18"/>
<text text-anchor="middle" x="1132.86" y="-1118.56" font-family="Times,serif" font-size="14.00">12798</text>
</a>
</g>
</g>
<!-- 12798&#45;&gt;27164 -->
<g id="edge39" class="edge"><title>12798&#45;&gt;27164</title>
<path fill="none" stroke="black" d="M1164.59,-1126.39C1191.32,-1129.87 1229.38,-1134.82 1256.1,-1138.3"/>
</g>
<!-- 13761 -->
<g id="node18" class="node"><title>13761</title>
<g id="a_node18"><a xlink:title="6th_week">
<ellipse fill="#07ffd1" stroke="black" cx="904.617" cy="-1963.85" rx="32.4942" ry="18"/>
<text text-anchor="middle" x="904.617" y="-1960.15" font-family="Times,serif" font-size="14.00">13761</text>
</a>
</g>
</g>
<!-- 18697 -->
<g id="node27" class="node"><title>18697</title>
<g id="a_node27"><a xlink:title="6th_week">
<ellipse fill="#07ffd1" stroke="black" cx="964.558" cy="-1785.2" rx="32.4942" ry="18"/>
<text text-anchor="middle" x="964.558" y="-1781.5" font-family="Times,serif" font-size="14.00">18697</text>
</a>
</g>
</g>
<!-- 13761&#45;&gt;18697 -->
<g id="edge59" class="edge"><title>13761&#45;&gt;18697</title>
<path fill="none" stroke="black" d="M910.584,-1946.07C922.073,-1911.82 947.146,-1837.09 958.616,-1802.91"/>
</g>
<!-- 15542 -->
<g id="node20" class="node"><title>15542</title>
<g id="a_node20"><a xlink:title="6th_week">
<ellipse fill="grey" stroke="black" cx="545.641" cy="-1253.03" rx="32.4942" ry="18"/>
<text text-anchor="middle" x="545.641" y="-1249.33" font-family="Times,serif" font-size="14.00">15542</text>
</a>
</g>
</g>
<!-- 20812 -->
<g id="node33" class="node"><title>20812</title>
<g id="a_node33"><a xlink:title="6th_week">
<ellipse fill="#07ffd1" stroke="black" cx="719.349" cy="-1364.82" rx="32.4942" ry="18"/>
<text text-anchor="middle" x="719.349" y="-1361.12" font-family="Times,serif" font-size="14.00">20812</text>
</a>
</g>
</g>
<!-- 15542&#45;&gt;20812 -->
<g id="edge2" class="edge"><title>15542&#45;&gt;20812</title>
<path fill="none" stroke="black" d="M566.941,-1266.74C600.371,-1288.25 664.777,-1329.7 698.147,-1351.18"/>
</g>
<!-- 17037 -->
<g id="node21" class="node"><title>17037</title>
<g id="a_node21"><a xlink:title="6th_week">
<ellipse fill="#07ffd1" stroke="black" cx="550.982" cy="-1540.64" rx="32.4942" ry="18"/>
<text text-anchor="middle" x="550.982" y="-1536.94" font-family="Times,serif" font-size="14.00">17037</text>
</a>
</g>
</g>
<!-- 22542 -->
<g id="node39" class="node"><title>22542</title>
<g id="a_node39"><a xlink:title="6th_week">
<ellipse fill="#07ffd1" stroke="black" cx="744.155" cy="-1510.84" rx="32.4942" ry="18"/>
<text text-anchor="middle" x="744.155" y="-1507.14" font-family="Times,serif" font-size="14.00">22542</text>
</a>
</g>
</g>
<!-- 17037&#45;&gt;22542 -->
<g id="edge35" class="edge"><title>17037&#45;&gt;22542</title>
<path fill="none" stroke="black" d="M582.448,-1535.78C618.37,-1530.24 676.786,-1521.23 712.702,-1515.69"/>
</g>
<!-- 17531 -->
<g id="node22" class="node"><title>17531</title>
<g id="a_node22"><a xlink:title="6th_week">
<ellipse fill="#07ffd1" stroke="black" cx="838.719" cy="-1916.77" rx="32.4942" ry="18"/>
<text text-anchor="middle" x="838.719" y="-1913.07" font-family="Times,serif" font-size="14.00">17531</text>
</a>
</g>
</g>
<!-- 17531&#45;&gt;18697 -->
<g id="edge40" class="edge"><title>17531&#45;&gt;18697</title>
<path fill="none" stroke="black" d="M854.15,-1900.64C878.302,-1875.39 924.772,-1826.8 949.002,-1801.46"/>
</g>
<!-- 17877 -->
<g id="node24" class="node"><title>17877</title>
<g id="a_node24"><a xlink:title="6th_week">
<ellipse fill="#07ffd1" stroke="black" cx="1646.86" cy="-752.287" rx="32.4942" ry="18"/>
<text text-anchor="middle" x="1646.86" y="-748.587" font-family="Times,serif" font-size="14.00">17877</text>
</a>
</g>
</g>
<!-- 17785&#45;&gt;17877 -->
<g id="edge49" class="edge"><title>17785&#45;&gt;17877</title>
<path fill="none" stroke="black" d="M1712.39,-878.707C1698.06,-851.075 1670.22,-797.36 1655.88,-769.689"/>
</g>
<!-- 17785&#45;&gt;27164 -->
<g id="edge1" class="edge"><title>17785&#45;&gt;27164</title>
<path fill="none" stroke="black" d="M1698.67,-908.947C1623.83,-951.473 1385.41,-1086.95 1310.52,-1129.51"/>
</g>
<!-- 29040 -->
<g id="node51" class="node"><title>29040</title>
<g id="a_node51"><a xlink:title="6th_week">
<ellipse fill="#07ffd1" stroke="black" cx="1775.69" cy="-765.569" rx="32.4942" ry="18"/>
<text text-anchor="middle" x="1775.69" y="-761.869" font-family="Times,serif" font-size="14.00">29040</text>
</a>
</g>
</g>
<!-- 17785&#45;&gt;29040 -->
<g id="edge68" class="edge"><title>17785&#45;&gt;29040</title>
<path fill="none" stroke="black" d="M1728.7,-878.451C1739.07,-853.548 1757.91,-808.282 1768.31,-783.304"/>
</g>
<!-- 43505 -->
<g id="node72" class="node"><title>43505</title>
<g id="a_node72"><a xlink:title="6th_week">
<ellipse fill="#07ffd1" stroke="black" cx="1844.2" cy="-951.801" rx="32.4942" ry="18"/>
<text text-anchor="middle" x="1844.2" y="-948.101" font-family="Times,serif" font-size="14.00">43505</text>
</a>
</g>
</g>
<!-- 17785&#45;&gt;43505 -->
<g id="edge66" class="edge"><title>17785&#45;&gt;43505</title>
<path fill="none" stroke="black" d="M1746.53,-907.465C1767.58,-917.022 1797.5,-930.601 1818.66,-940.208"/>
</g>
<!-- 18665 -->
<g id="node26" class="node"><title>18665</title>
<g id="a_node26"><a xlink:title="6th_week">
<ellipse fill="#07ffd1" stroke="black" cx="981.238" cy="-1987.08" rx="32.4942" ry="18"/>
<text text-anchor="middle" x="981.238" y="-1983.38" font-family="Times,serif" font-size="14.00">18665</text>
</a>
</g>
</g>
<!-- 18665&#45;&gt;18697 -->
<g id="edge11" class="edge"><title>18665&#45;&gt;18697</title>
<path fill="none" stroke="black" d="M979.728,-1968.81C976.553,-1930.38 969.215,-1841.56 966.053,-1803.28"/>
</g>
<!-- 20260 -->
<g id="node32" class="node"><title>20260</title>
<g id="a_node32"><a xlink:title="6th_week">
<ellipse fill="#07ffd1" stroke="black" cx="1020.56" cy="-1941.4" rx="32.4942" ry="18"/>
<text text-anchor="middle" x="1020.56" y="-1937.7" font-family="Times,serif" font-size="14.00">20260</text>
</a>
</g>
</g>
<!-- 18697&#45;&gt;20260 -->
<g id="edge31" class="edge"><title>18697&#45;&gt;20260</title>
<path fill="none" stroke="black" d="M970.983,-1803.12C981.787,-1833.25 1003.46,-1893.7 1014.22,-1923.69"/>
</g>
<!-- 18697&#45;&gt;24706 -->
<g id="edge22" class="edge"><title>18697&#45;&gt;24706</title>
<path fill="none" stroke="black" d="M963.565,-1766.89C960.475,-1709.99 951.064,-1536.64 947.99,-1480.01"/>
</g>
<!-- 43914 -->
<g id="node73" class="node"><title>43914</title>
<g id="a_node73"><a xlink:title="6th_week">
<ellipse fill="#07ffd1" stroke="black" cx="1094.04" cy="-1922.18" rx="32.4942" ry="18"/>
<text text-anchor="middle" x="1094.04" y="-1918.48" font-family="Times,serif" font-size="14.00">43914</text>
</a>
</g>
</g>
<!-- 18697&#45;&gt;43914 -->
<g id="edge37" class="edge"><title>18697&#45;&gt;43914</title>
<path fill="none" stroke="black" d="M979.665,-1801.18C1004.48,-1827.43 1053.62,-1879.41 1078.63,-1905.88"/>
</g>
<!-- 19585 -->
<g id="node29" class="node"><title>19585</title>
<g id="a_node29"><a xlink:title="6th_week">
<ellipse fill="#07ffd1" stroke="black" cx="1244.58" cy="-1303" rx="32.4942" ry="18"/>
<text text-anchor="middle" x="1244.58" y="-1299.3" font-family="Times,serif" font-size="14.00">19585</text>
</a>
</g>
</g>
<!-- 19585&#45;&gt;27164 -->
<g id="edge56" class="edge"><title>19585&#45;&gt;27164</title>
<path fill="none" stroke="black" d="M1249.45,-1284.89C1257.75,-1254.05 1274.53,-1191.68 1282.86,-1160.71"/>
</g>
<!-- 19713 -->
<g id="node31" class="node"><title>19713</title>
<g id="a_node31"><a xlink:title="6th_week">
<ellipse fill="grey" stroke="black" cx="805.737" cy="-1452.49" rx="32.4942" ry="18"/>
<text text-anchor="middle" x="805.737" y="-1448.79" font-family="Times,serif" font-size="14.00">19713</text>
</a>
</g>
</g>
<!-- 19713&#45;&gt;24706 -->
<g id="edge54" class="edge"><title>19713&#45;&gt;24706</title>
<path fill="none" stroke="black" d="M838.147,-1454.65C860.956,-1456.17 891.375,-1458.2 914.258,-1459.72"/>
</g>
<!-- 22240 -->
<g id="node36" class="node"><title>22240</title>
<g id="a_node36"><a xlink:title="6th_week">
<ellipse fill="#07ffd1" stroke="black" cx="514.177" cy="-1341.38" rx="32.4942" ry="18"/>
<text text-anchor="middle" x="514.177" y="-1337.68" font-family="Times,serif" font-size="14.00">22240</text>
</a>
</g>
</g>
<!-- 20812&#45;&gt;22240 -->
<g id="edge9" class="edge"><title>20812&#45;&gt;22240</title>
<path fill="none" stroke="black" d="M687.291,-1361.16C648.746,-1356.76 584.454,-1349.41 546.01,-1345.02"/>
</g>
<!-- 20812&#45;&gt;24706 -->
<g id="edge17" class="edge"><title>20812&#45;&gt;24706</title>
<path fill="none" stroke="black" d="M745.464,-1375.96C789.379,-1394.69 877.487,-1432.26 921.196,-1450.9"/>
</g>
<!-- 21901 -->
<g id="node34" class="node"><title>21901</title>
<g id="a_node34"><a xlink:title="6th_week">
<ellipse fill="grey" stroke="black" cx="1190.2" cy="-1033.51" rx="32.4942" ry="18"/>
<text text-anchor="middle" x="1190.2" y="-1029.81" font-family="Times,serif" font-size="14.00">21901</text>
</a>
</g>
</g>
<!-- 21901&#45;&gt;27164 -->
<g id="edge29" class="edge"><title>21901&#45;&gt;27164</title>
<path fill="none" stroke="black" d="M1205.02,-1050.05C1223.47,-1070.64 1254.78,-1105.59 1273.14,-1126.09"/>
</g>
<!-- 22175 -->
<g id="node35" class="node"><title>22175</title>
<g id="a_node35"><a xlink:title="6th_week">
<ellipse fill="#07ffd1" stroke="black" cx="853.888" cy="-1589.97" rx="32.4942" ry="18"/>
<text text-anchor="middle" x="853.888" y="-1586.27" font-family="Times,serif" font-size="14.00">22175</text>
</a>
</g>
</g>
<!-- 22175&#45;&gt;24706 -->
<g id="edge27" class="edge"><title>22175&#45;&gt;24706</title>
<path fill="none" stroke="black" d="M866.061,-1573.23C883.908,-1548.68 916.982,-1503.2 934.83,-1478.65"/>
</g>
<!-- 22244 -->
<g id="node37" class="node"><title>22244</title>
<g id="a_node37"><a xlink:title="6th_week">
<ellipse fill="#07ffd1" stroke="black" cx="1403.56" cy="-1308.48" rx="32.4942" ry="18"/>
<text text-anchor="middle" x="1403.56" y="-1304.78" font-family="Times,serif" font-size="14.00">22244</text>
</a>
</g>
</g>
<!-- 22244&#45;&gt;27164 -->
<g id="edge55" class="edge"><title>22244&#45;&gt;27164</title>
<path fill="none" stroke="black" d="M1391.83,-1291.65C1369.63,-1259.82 1321.77,-1191.17 1299.55,-1159.31"/>
</g>
<!-- 22530 -->
<g id="node38" class="node"><title>22530</title>
<g id="a_node38"><a xlink:title="6th_week">
<ellipse fill="grey" stroke="black" cx="1329.46" cy="-1327.8" rx="32.4942" ry="18"/>
<text text-anchor="middle" x="1329.46" y="-1324.1" font-family="Times,serif" font-size="14.00">22530</text>
</a>
</g>
</g>
<!-- 22530&#45;&gt;27164 -->
<g id="edge58" class="edge"><title>22530&#45;&gt;27164</title>
<path fill="none" stroke="black" d="M1325.39,-1309.68C1317.4,-1274.16 1299.76,-1195.71 1291.81,-1160.34"/>
</g>
<!-- 22542&#45;&gt;24706 -->
<g id="edge65" class="edge"><title>22542&#45;&gt;24706</title>
<path fill="none" stroke="black" d="M774.086,-1503.62C812.439,-1494.37 878.541,-1478.42 916.953,-1469.15"/>
</g>
<!-- 24669 -->
<g id="node41" class="node"><title>24669</title>
<g id="a_node41"><a xlink:title="6th_week">
<ellipse fill="#07ffd1" stroke="black" cx="2189.97" cy="-242.335" rx="32.4942" ry="18"/>
<text text-anchor="middle" x="2189.97" y="-238.635" font-family="Times,serif" font-size="14.00">24669</text>
</a>
</g>
</g>
<!-- 24669&#45;&gt;27004 -->
<g id="edge48" class="edge"><title>24669&#45;&gt;27004</title>
<path fill="none" stroke="black" d="M2164.2,-253.379C2128.27,-268.779 2063.49,-296.541 2027.57,-311.939"/>
</g>
<!-- 24706&#45;&gt;27164 -->
<g id="edge53" class="edge"><title>24706&#45;&gt;27164</title>
<path fill="none" stroke="black" d="M963.906,-1446.06C1022.06,-1391.54 1213.49,-1212.07 1271.18,-1157.99"/>
</g>
<!-- 32463 -->
<g id="node58" class="node"><title>32463</title>
<g id="a_node58"><a xlink:title="6th_week">
<ellipse fill="#07ffd1" stroke="black" cx="839.255" cy="-1337.39" rx="32.4942" ry="18"/>
<text text-anchor="middle" x="839.255" y="-1333.69" font-family="Times,serif" font-size="14.00">32463</text>
</a>
</g>
</g>
<!-- 24706&#45;&gt;32463 -->
<g id="edge16" class="edge"><title>24706&#45;&gt;32463</title>
<path fill="none" stroke="black" d="M932.92,-1445.63C912.27,-1421.76 873.998,-1377.54 853.345,-1353.68"/>
</g>
<!-- 36092 -->
<g id="node63" class="node"><title>36092</title>
<g id="a_node63"><a xlink:title="6th_week">
<ellipse fill="#07ffd1" stroke="black" cx="1060.06" cy="-1596.18" rx="32.4942" ry="18"/>
<text text-anchor="middle" x="1060.06" y="-1592.48" font-family="Times,serif" font-size="14.00">36092</text>
</a>
</g>
</g>
<!-- 24706&#45;&gt;36092 -->
<g id="edge24" class="edge"><title>24706&#45;&gt;36092</title>
<path fill="none" stroke="black" d="M960.869,-1478.37C982.566,-1504.14 1024.31,-1553.72 1046.08,-1579.58"/>
</g>
<!-- 24706&#45;&gt;43081 -->
<g id="edge42" class="edge"><title>24706&#45;&gt;43081</title>
<path fill="none" stroke="black" d="M926.429,-1476.29C877.407,-1510.56 754.174,-1596.71 705.248,-1630.91"/>
</g>
<!-- 27494 -->
<g id="node46" class="node"><title>27494</title>
<g id="a_node46"><a xlink:title="6th_week">
<ellipse fill="grey" stroke="black" cx="1425.89" cy="-1042.08" rx="32.4942" ry="18"/>
<text text-anchor="middle" x="1425.89" y="-1038.38" font-family="Times,serif" font-size="14.00">27494</text>
</a>
</g>
</g>
<!-- 27164&#45;&gt;27494 -->
<g id="edge62" class="edge"><title>27164&#45;&gt;27494</title>
<path fill="none" stroke="black" d="M1307.57,-1128.05C1333.82,-1108.97 1379.91,-1075.49 1406.14,-1056.43"/>
</g>
<!-- 29800 -->
<g id="node52" class="node"><title>29800</title>
<g id="a_node52"><a xlink:title="6th_week">
<ellipse fill="#07ffd1" stroke="black" cx="1331.43" cy="-979.133" rx="32.4942" ry="18"/>
<text text-anchor="middle" x="1331.43" y="-975.433" font-family="Times,serif" font-size="14.00">29800</text>
</a>
</g>
</g>
<!-- 27164&#45;&gt;29800 -->
<g id="edge33" class="edge"><title>27164&#45;&gt;29800</title>
<path fill="none" stroke="black" d="M1292.62,-1124.33C1301.01,-1092.94 1318.16,-1028.76 1326.57,-997.313"/>
</g>
<!-- 31061 -->
<g id="node56" class="node"><title>31061</title>
<g id="a_node56"><a xlink:title="6th_week">
<ellipse fill="#07ffd1" stroke="black" cx="1454.23" cy="-1251.14" rx="32.4942" ry="18"/>
<text text-anchor="middle" x="1454.23" y="-1247.44" font-family="Times,serif" font-size="14.00">31061</text>
</a>
</g>
</g>
<!-- 27164&#45;&gt;31061 -->
<g id="edge71" class="edge"><title>27164&#45;&gt;31061</title>
<path fill="none" stroke="black" d="M1308.86,-1156.2C1340.79,-1177.05 1401.07,-1216.42 1433.06,-1237.31"/>
</g>
<!-- 36302 -->
<g id="node64" class="node"><title>36302</title>
<g id="a_node64"><a xlink:title="6th_week">
<ellipse fill="#07ffd1" stroke="black" cx="1107" cy="-980.353" rx="32.4942" ry="18"/>
<text text-anchor="middle" x="1107" y="-976.653" font-family="Times,serif" font-size="14.00">36302</text>
</a>
</g>
</g>
<!-- 27164&#45;&gt;36302 -->
<g id="edge52" class="edge"><title>27164&#45;&gt;36302</title>
<path fill="none" stroke="black" d="M1270.45,-1126.89C1235.89,-1095.91 1158.79,-1026.79 1124.28,-995.846"/>
</g>
<!-- 37509 -->
<g id="node65" class="node"><title>37509</title>
<g id="a_node65"><a xlink:title="6th_week">
<ellipse fill="grey" stroke="black" cx="1471.43" cy="-1162.1" rx="32.4942" ry="18"/>
<text text-anchor="middle" x="1471.43" y="-1158.4" font-family="Times,serif" font-size="14.00">37509</text>
</a>
</g>
</g>
<!-- 27164&#45;&gt;37509 -->
<g id="edge67" class="edge"><title>27164&#45;&gt;37509</title>
<path fill="none" stroke="black" d="M1319.77,-1145.85C1353.37,-1149.45 1405.92,-1155.08 1439.5,-1158.68"/>
</g>
<!-- 30067 -->
<g id="node53" class="node"><title>30067</title>
<g id="a_node53"><a xlink:title="6th_week">
<ellipse fill="grey" stroke="black" cx="1898.16" cy="-83.4947" rx="32.4942" ry="18"/>
<text text-anchor="middle" x="1898.16" y="-79.7947" font-family="Times,serif" font-size="14.00">30067</text>
</a>
</g>
</g>
<!-- 30067&#45;&gt;43287 -->
<g id="edge41" class="edge"><title>30067&#45;&gt;43287</title>
<path fill="none" stroke="black" d="M1886.51,-100.349C1864.88,-131.628 1818.77,-198.327 1797.06,-229.721"/>
</g>
<!-- 30986 -->
<g id="node55" class="node"><title>30986</title>
<g id="a_node55"><a xlink:title="6th_week">
<ellipse fill="#07ffd1" stroke="black" cx="981.98" cy="-810.173" rx="32.4942" ry="18"/>
<text text-anchor="middle" x="981.98" y="-806.473" font-family="Times,serif" font-size="14.00">30986</text>
</a>
</g>
</g>
<!-- 30986&#45;&gt;36302 -->
<g id="edge6" class="edge"><title>30986&#45;&gt;36302</title>
<path fill="none" stroke="black" d="M994.424,-827.113C1018.39,-859.733 1070.68,-930.916 1094.6,-963.482"/>
</g>
<!-- 31477 -->
<g id="node57" class="node"><title>31477</title>
<g id="a_node57"><a xlink:title="6th_week">
<ellipse fill="#07ffd1" stroke="black" cx="922.489" cy="-882.124" rx="32.4942" ry="18"/>
<text text-anchor="middle" x="922.489" y="-878.424" font-family="Times,serif" font-size="14.00">31477</text>
</a>
</g>
</g>
<!-- 31477&#45;&gt;36302 -->
<g id="edge23" class="edge"><title>31477&#45;&gt;36302</title>
<path fill="none" stroke="black" d="M946.232,-894.765C981.66,-913.626 1047.97,-948.928 1083.34,-967.761"/>
</g>
<!-- 33066 -->
<g id="node59" class="node"><title>33066</title>
<g id="a_node59"><a xlink:title="6th_week">
<ellipse fill="#07ffd1" stroke="black" cx="1737.68" cy="-59.6278" rx="32.4942" ry="18"/>
<text text-anchor="middle" x="1737.68" y="-55.9278" font-family="Times,serif" font-size="14.00">33066</text>
</a>
</g>
</g>
<!-- 33066&#45;&gt;43287 -->
<g id="edge51" class="edge"><title>33066&#45;&gt;43287</title>
<path fill="none" stroke="black" d="M1742.24,-77.5677C1751.35,-113.33 1771.66,-193.125 1780.75,-228.842"/>
</g>
<!-- 37672 -->
<g id="node66" class="node"><title>37672</title>
<g id="a_node66"><a xlink:title="6th_week">
<ellipse fill="#07ffd1" stroke="black" cx="1650.62" cy="-97.8421" rx="32.4942" ry="18"/>
<text text-anchor="middle" x="1650.62" y="-94.1421" font-family="Times,serif" font-size="14.00">37672</text>
</a>
</g>
</g>
<!-- 37672&#45;&gt;43287 -->
<g id="edge15" class="edge"><title>37672&#45;&gt;43287</title>
<path fill="none" stroke="black" d="M1665.29,-114.059C1691.2,-142.698 1744.76,-201.906 1770.65,-230.531"/>
</g>
<!-- 42457 -->
<g id="node69" class="node"><title>42457</title>
<g id="a_node69"><a xlink:title="6th_week">
<ellipse fill="#07ffd1" stroke="black" cx="1816.74" cy="-18.2248" rx="32.4942" ry="18"/>
<text text-anchor="middle" x="1816.74" y="-14.5248" font-family="Times,serif" font-size="14.00">42457</text>
</a>
</g>
</g>
<!-- 42457&#45;&gt;43287 -->
<g id="edge45" class="edge"><title>42457&#45;&gt;43287</title>
<path fill="none" stroke="black" d="M1814.22,-36.5379C1808.32,-79.4292 1793.66,-185.982 1787.79,-228.645"/>
</g>
</g>
</svg>
