<?xml version="1.0" encoding="UTF-8" standalone="no"?>
<!DOCTYPE svg PUBLIC "-//W3C//DTD SVG 1.1//EN"
 "http://www.w3.org/Graphics/SVG/1.1/DTD/svg11.dtd">
<!-- Generated by graphviz version 2.38.0 (20140413.2041)
 -->
<!-- Title: %3 Pages: 1 -->
<svg width="1178pt" height="1472pt"
 viewBox="0.00 0.00 1178.00 1472.00" xmlns="http://www.w3.org/2000/svg" xmlns:xlink="http://www.w3.org/1999/xlink">
<g id="graph0" class="graph" transform="scale(1 1) rotate(0) translate(4 1468)">
<title>%3</title>
<polygon fill="white" stroke="none" points="-4,4 -4,-1468 1174,-1468 1174,4 -4,4"/>
<!-- 663 -->
<g id="node1" class="node"><title>663</title>
<g id="a_node1"><a xlink:title="3rd_week">
<ellipse fill="#ffffff" stroke="black" cx="240.934" cy="-137.239" rx="27" ry="18"/>
<text text-anchor="middle" x="240.934" y="-133.539" font-family="Times,serif" font-size="14.00">663</text>
</a>
</g>
</g>
<!-- 24297 -->
<g id="node19" class="node"><title>24297</title>
<g id="a_node19"><a xlink:title="3rd_week">
<ellipse fill="grey" stroke="black" cx="378.121" cy="-322.473" rx="32.4942" ry="18"/>
<text text-anchor="middle" x="378.121" y="-318.773" font-family="Times,serif" font-size="14.00">24297</text>
</a>
</g>
</g>
<!-- 663&#45;&gt;24297 -->
<g id="edge4" class="edge"><title>663&#45;&gt;24297</title>
<path fill="none" stroke="black" d="M253.109,-153.677C279.076,-188.74 339.658,-270.539 365.776,-305.805"/>
</g>
<!-- 5409 -->
<g id="node2" class="node"><title>5409</title>
<g id="a_node2"><a xlink:title="3rd_week">
<ellipse fill="#20ff05" stroke="black" cx="710.678" cy="-301.581" rx="28.6953" ry="18"/>
<text text-anchor="middle" x="710.678" y="-297.881" font-family="Times,serif" font-size="14.00">5409</text>
</a>
</g>
</g>
<!-- 17849 -->
<g id="node14" class="node"><title>17849</title>
<g id="a_node14"><a xlink:title="3rd_week">
<ellipse fill="#20ff05" stroke="black" cx="568.275" cy="-592.567" rx="32.4942" ry="18"/>
<text text-anchor="middle" x="568.275" y="-588.867" font-family="Times,serif" font-size="14.00">17849</text>
</a>
</g>
</g>
<!-- 5409&#45;&gt;17849 -->
<g id="edge30" class="edge"><title>5409&#45;&gt;17849</title>
<path fill="none" stroke="black" d="M702.197,-318.912C676.929,-370.545 602.335,-522.968 576.892,-574.959"/>
</g>
<!-- 27975 -->
<g id="node48" class="node"><title>27975</title>
<g id="a_node48"><a xlink:title="3rd_week">
<ellipse fill="#20ff05" stroke="black" cx="813.714" cy="-96.159" rx="32.4942" ry="18"/>
<text text-anchor="middle" x="813.714" y="-92.459" font-family="Times,serif" font-size="14.00">27975</text>
</a>
</g>
</g>
<!-- 5409&#45;&gt;27975 -->
<g id="edge49" class="edge"><title>5409&#45;&gt;27975</title>
<path fill="none" stroke="black" d="M719.463,-284.067C738.93,-245.257 785.506,-152.398 804.952,-113.629"/>
</g>
<!-- 6994 -->
<g id="node3" class="node"><title>6994</title>
<g id="a_node3"><a xlink:title="3rd_week">
<ellipse fill="grey" stroke="black" cx="686.414" cy="-1167.89" rx="28.6953" ry="18"/>
<text text-anchor="middle" x="686.414" y="-1164.19" font-family="Times,serif" font-size="14.00">6994</text>
</a>
</g>
</g>
<!-- 7019 -->
<g id="node4" class="node"><title>7019</title>
<g id="a_node4"><a xlink:title="3rd_week">
<ellipse fill="grey" stroke="black" cx="612.721" cy="-949.895" rx="28.6953" ry="18"/>
<text text-anchor="middle" x="612.721" y="-946.195" font-family="Times,serif" font-size="14.00">7019</text>
</a>
</g>
</g>
<!-- 6994&#45;&gt;7019 -->
<g id="edge18" class="edge"><title>6994&#45;&gt;7019</title>
<path fill="none" stroke="black" d="M680.384,-1150.05C666.53,-1109.07 632.565,-1008.6 618.732,-967.675"/>
</g>
<!-- 12534 -->
<g id="node10" class="node"><title>12534</title>
<g id="a_node10"><a xlink:title="3rd_week">
<ellipse fill="#ffffff" stroke="black" cx="610.386" cy="-1234.07" rx="32.4942" ry="18"/>
<text text-anchor="middle" x="610.386" y="-1230.37" font-family="Times,serif" font-size="14.00">12534</text>
</a>
</g>
</g>
<!-- 7019&#45;&gt;12534 -->
<g id="edge48" class="edge"><title>7019&#45;&gt;12534</title>
<path fill="none" stroke="black" d="M612.571,-968.103C612.15,-1019.43 610.955,-1164.87 610.535,-1216.01"/>
</g>
<!-- 7019&#45;&gt;17849 -->
<g id="edge3" class="edge"><title>7019&#45;&gt;17849</title>
<path fill="none" stroke="black" d="M610.456,-931.684C602.831,-870.387 578.153,-671.984 570.535,-610.742"/>
</g>
<!-- 8234 -->
<g id="node5" class="node"><title>8234</title>
<g id="a_node5"><a xlink:title="3rd_week">
<ellipse fill="#20ff05" stroke="black" cx="832.117" cy="-769.462" rx="28.6953" ry="18"/>
<text text-anchor="middle" x="832.117" y="-765.762" font-family="Times,serif" font-size="14.00">8234</text>
</a>
</g>
</g>
<!-- 8234&#45;&gt;17849 -->
<g id="edge43" class="edge"><title>8234&#45;&gt;17849</title>
<path fill="none" stroke="black" d="M812.286,-756.167C763.63,-723.545 638.705,-639.788 589.064,-606.506"/>
</g>
<!-- 18249 -->
<g id="node15" class="node"><title>18249</title>
<g id="a_node15"><a xlink:title="3rd_week">
<ellipse fill="#20ff05" stroke="black" cx="1034.15" cy="-907.997" rx="32.4942" ry="18"/>
<text text-anchor="middle" x="1034.15" y="-904.297" font-family="Times,serif" font-size="14.00">18249</text>
</a>
</g>
</g>
<!-- 8234&#45;&gt;18249 -->
<g id="edge26" class="edge"><title>8234&#45;&gt;18249</title>
<path fill="none" stroke="black" d="M851.489,-782.746C889.711,-808.954 974.511,-867.102 1013.64,-893.932"/>
</g>
<!-- 9132 -->
<g id="node6" class="node"><title>9132</title>
<g id="a_node6"><a xlink:title="3rd_week">
<ellipse fill="#20ff05" stroke="black" cx="459.941" cy="-820.447" rx="28.6953" ry="18"/>
<text text-anchor="middle" x="459.941" y="-816.747" font-family="Times,serif" font-size="14.00">9132</text>
</a>
</g>
</g>
<!-- 9132&#45;&gt;17849 -->
<g id="edge9" class="edge"><title>9132&#45;&gt;17849</title>
<path fill="none" stroke="black" d="M468.262,-802.944C488.427,-760.526 539.731,-652.609 559.925,-610.13"/>
</g>
<!-- 10666 -->
<g id="node7" class="node"><title>10666</title>
<g id="a_node7"><a xlink:title="3rd_week">
<ellipse fill="grey" stroke="black" cx="556.558" cy="-270.2" rx="32.4942" ry="18"/>
<text text-anchor="middle" x="556.558" y="-266.5" font-family="Times,serif" font-size="14.00">10666</text>
</a>
</g>
</g>
<!-- 10666&#45;&gt;17849 -->
<g id="edge23" class="edge"><title>10666&#45;&gt;17849</title>
<path fill="none" stroke="black" d="M557.221,-288.456C559.283,-345.196 565.566,-518.046 567.618,-574.512"/>
</g>
<!-- 41620 -->
<g id="node51" class="node"><title>41620</title>
<g id="a_node51"><a xlink:title="3rd_week">
<ellipse fill="grey" stroke="black" cx="540.204" cy="-18.2825" rx="32.4942" ry="18"/>
<text text-anchor="middle" x="540.204" y="-14.5825" font-family="Times,serif" font-size="14.00">41620</text>
</a>
</g>
</g>
<!-- 10666&#45;&gt;41620 -->
<g id="edge15" class="edge"><title>10666&#45;&gt;41620</title>
<path fill="none" stroke="black" d="M555.382,-252.083C552.372,-205.715 544.414,-83.1324 541.392,-36.5741"/>
</g>
<!-- 10882 -->
<g id="node8" class="node"><title>10882</title>
<g id="a_node8"><a xlink:title="3rd_week">
<ellipse fill="#20ff05" stroke="black" cx="739.022" cy="-397.349" rx="32.4942" ry="18"/>
<text text-anchor="middle" x="739.022" y="-393.649" font-family="Times,serif" font-size="14.00">10882</text>
</a>
</g>
</g>
<!-- 10882&#45;&gt;17849 -->
<g id="edge10" class="edge"><title>10882&#45;&gt;17849</title>
<path fill="none" stroke="black" d="M724.758,-413.657C692.617,-450.404 614.834,-539.335 582.618,-576.168"/>
</g>
<!-- 11768 -->
<g id="node9" class="node"><title>11768</title>
<g id="a_node9"><a xlink:title="3rd_week">
<ellipse fill="#20ff05" stroke="black" cx="715.395" cy="-702.343" rx="32.4942" ry="18"/>
<text text-anchor="middle" x="715.395" y="-698.643" font-family="Times,serif" font-size="14.00">11768</text>
</a>
</g>
</g>
<!-- 11768&#45;&gt;17849 -->
<g id="edge46" class="edge"><title>11768&#45;&gt;17849</title>
<path fill="none" stroke="black" d="M695.858,-687.765C667.72,-666.769 616.076,-628.235 587.892,-607.205"/>
</g>
<!-- 32101 -->
<g id="node24" class="node"><title>32101</title>
<g id="a_node24"><a xlink:title="3rd_week">
<ellipse fill="#ffffff" stroke="black" cx="619.273" cy="-1446.42" rx="32.4942" ry="18"/>
<text text-anchor="middle" x="619.273" y="-1442.72" font-family="Times,serif" font-size="14.00">32101</text>
</a>
</g>
</g>
<!-- 12534&#45;&gt;32101 -->
<g id="edge50" class="edge"><title>12534&#45;&gt;32101</title>
<path fill="none" stroke="black" d="M611.144,-1252.17C612.823,-1292.29 616.84,-1388.28 618.518,-1428.36"/>
</g>
<!-- 16101 -->
<g id="node11" class="node"><title>16101</title>
<g id="a_node11"><a xlink:title="3rd_week">
<ellipse fill="#20ff05" stroke="black" cx="361.805" cy="-638.265" rx="32.4942" ry="18"/>
<text text-anchor="middle" x="361.805" y="-634.565" font-family="Times,serif" font-size="14.00">16101</text>
</a>
</g>
</g>
<!-- 16101&#45;&gt;17849 -->
<g id="edge42" class="edge"><title>16101&#45;&gt;17849</title>
<path fill="none" stroke="black" d="M392.27,-631.522C431.419,-622.858 498.974,-607.906 538.021,-599.264"/>
</g>
<!-- 16128 -->
<g id="node12" class="node"><title>16128</title>
<g id="a_node12"><a xlink:title="3rd_week">
<ellipse fill="grey" stroke="black" cx="273.936" cy="-675.565" rx="32.4942" ry="18"/>
<text text-anchor="middle" x="273.936" y="-671.865" font-family="Times,serif" font-size="14.00">16128</text>
</a>
</g>
</g>
<!-- 16128&#45;&gt;17849 -->
<g id="edge11" class="edge"><title>16128&#45;&gt;17849</title>
<path fill="none" stroke="black" d="M302.964,-667.38C359.237,-651.512 482.584,-616.731 539.029,-600.814"/>
</g>
<!-- 32122 -->
<g id="node25" class="node"><title>32122</title>
<g id="a_node25"><a xlink:title="3rd_week">
<ellipse fill="#20ff05" stroke="black" cx="32.0262" cy="-740.829" rx="32.4942" ry="18"/>
<text text-anchor="middle" x="32.0262" y="-737.129" font-family="Times,serif" font-size="14.00">32122</text>
</a>
</g>
</g>
<!-- 16128&#45;&gt;32122 -->
<g id="edge16" class="edge"><title>16128&#45;&gt;32122</title>
<path fill="none" stroke="black" d="M244.273,-683.568C197.718,-696.128 108.024,-720.326 61.553,-732.863"/>
</g>
<!-- 17371 -->
<g id="node13" class="node"><title>17371</title>
<g id="a_node13"><a xlink:title="3rd_week">
<ellipse fill="#20ff05" stroke="black" cx="1137.42" cy="-607.103" rx="32.4942" ry="18"/>
<text text-anchor="middle" x="1137.42" y="-603.403" font-family="Times,serif" font-size="14.00">17371</text>
</a>
</g>
</g>
<!-- 44367 -->
<g id="node34" class="node"><title>44367</title>
<g id="a_node34"><a xlink:title="3rd_week">
<ellipse fill="#20ff05" stroke="black" cx="901.31" cy="-599.947" rx="32.4942" ry="18"/>
<text text-anchor="middle" x="901.31" y="-596.247" font-family="Times,serif" font-size="14.00">44367</text>
</a>
</g>
</g>
<!-- 17371&#45;&gt;44367 -->
<g id="edge29" class="edge"><title>17371&#45;&gt;44367</title>
<path fill="none" stroke="black" d="M1104.59,-606.108C1059.48,-604.741 978.824,-602.296 933.862,-600.933"/>
</g>
<!-- 22258 -->
<g id="node16" class="node"><title>22258</title>
<g id="a_node16"><a xlink:title="3rd_week">
<ellipse fill="#20ff05" stroke="black" cx="846.893" cy="-423.242" rx="32.4942" ry="18"/>
<text text-anchor="middle" x="846.893" y="-419.542" font-family="Times,serif" font-size="14.00">22258</text>
</a>
</g>
</g>
<!-- 17849&#45;&gt;22258 -->
<g id="edge40" class="edge"><title>17849&#45;&gt;22258</title>
<path fill="none" stroke="black" d="M590.604,-578.997C642.902,-547.214 772.825,-468.256 824.844,-436.642"/>
</g>
<!-- 22501 -->
<g id="node17" class="node"><title>22501</title>
<g id="a_node17"><a xlink:title="3rd_week">
<ellipse fill="#20ff05" stroke="black" cx="278.474" cy="-471.618" rx="32.4942" ry="18"/>
<text text-anchor="middle" x="278.474" y="-467.918" font-family="Times,serif" font-size="14.00">22501</text>
</a>
</g>
</g>
<!-- 17849&#45;&gt;22501 -->
<g id="edge41" class="edge"><title>17849&#45;&gt;22501</title>
<path fill="none" stroke="black" d="M542.302,-581.728C487.286,-558.766 359.549,-505.455 304.493,-482.477"/>
</g>
<!-- 23962 -->
<g id="node18" class="node"><title>23962</title>
<g id="a_node18"><a xlink:title="3rd_week">
<ellipse fill="grey" stroke="black" cx="659.915" cy="-372.612" rx="32.4942" ry="18"/>
<text text-anchor="middle" x="659.915" y="-368.912" font-family="Times,serif" font-size="14.00">23962</text>
</a>
</g>
</g>
<!-- 17849&#45;&gt;23962 -->
<g id="edge5" class="edge"><title>17849&#45;&gt;23962</title>
<path fill="none" stroke="black" d="M575.619,-574.939C592.778,-533.755 635.342,-431.592 652.535,-390.324"/>
</g>
<!-- 17849&#45;&gt;24297 -->
<g id="edge38" class="edge"><title>17849&#45;&gt;24297</title>
<path fill="none" stroke="black" d="M556.38,-575.672C522.231,-527.166 424.155,-387.859 390.011,-339.362"/>
</g>
<!-- 25835 -->
<g id="node20" class="node"><title>25835</title>
<g id="a_node20"><a xlink:title="3rd_week">
<ellipse fill="#20ff05" stroke="black" cx="360.979" cy="-821.391" rx="32.4942" ry="18"/>
<text text-anchor="middle" x="360.979" y="-817.691" font-family="Times,serif" font-size="14.00">25835</text>
</a>
</g>
</g>
<!-- 17849&#45;&gt;25835 -->
<g id="edge13" class="edge"><title>17849&#45;&gt;25835</title>
<path fill="none" stroke="black" d="M553.698,-608.658C515.729,-650.57 414.077,-762.779 375.817,-805.012"/>
</g>
<!-- 25936 -->
<g id="node21" class="node"><title>25936</title>
<g id="a_node21"><a xlink:title="3rd_week">
<ellipse fill="#20ff05" stroke="black" cx="522.988" cy="-763.27" rx="32.4942" ry="18"/>
<text text-anchor="middle" x="522.988" y="-759.57" font-family="Times,serif" font-size="14.00">25936</text>
</a>
</g>
</g>
<!-- 17849&#45;&gt;25936 -->
<g id="edge19" class="edge"><title>17849&#45;&gt;25936</title>
<path fill="none" stroke="black" d="M563.514,-610.513C554.816,-643.298 536.454,-712.512 527.753,-745.309"/>
</g>
<!-- 29259 -->
<g id="node22" class="node"><title>29259</title>
<g id="a_node22"><a xlink:title="3rd_week">
<ellipse fill="#20ff05" stroke="black" cx="424.708" cy="-760.992" rx="32.4942" ry="18"/>
<text text-anchor="middle" x="424.708" y="-757.292" font-family="Times,serif" font-size="14.00">29259</text>
</a>
</g>
</g>
<!-- 17849&#45;&gt;29259 -->
<g id="edge20" class="edge"><title>17849&#45;&gt;29259</title>
<path fill="none" stroke="black" d="M554.247,-609.023C526.871,-641.139 466.595,-711.852 439.004,-744.22"/>
</g>
<!-- 32001 -->
<g id="node23" class="node"><title>32001</title>
<g id="a_node23"><a xlink:title="3rd_week">
<ellipse fill="#20ff05" stroke="black" cx="581.882" cy="-344.292" rx="32.4942" ry="18"/>
<text text-anchor="middle" x="581.882" y="-340.592" font-family="Times,serif" font-size="14.00">32001</text>
</a>
</g>
</g>
<!-- 17849&#45;&gt;32001 -->
<g id="edge34" class="edge"><title>17849&#45;&gt;32001</title>
<path fill="none" stroke="black" d="M569.275,-574.311C571.792,-528.397 578.362,-408.518 580.88,-362.575"/>
</g>
<!-- 37118 -->
<g id="node26" class="node"><title>37118</title>
<g id="a_node26"><a xlink:title="3rd_week">
<ellipse fill="#20ff05" stroke="black" cx="288.184" cy="-597.651" rx="32.4942" ry="18"/>
<text text-anchor="middle" x="288.184" y="-593.951" font-family="Times,serif" font-size="14.00">37118</text>
</a>
</g>
</g>
<!-- 17849&#45;&gt;37118 -->
<g id="edge44" class="edge"><title>17849&#45;&gt;37118</title>
<path fill="none" stroke="black" d="M535.596,-593.161C481.77,-594.137 375.06,-596.074 321.087,-597.054"/>
</g>
<!-- 37133 -->
<g id="node27" class="node"><title>37133</title>
<g id="a_node27"><a xlink:title="3rd_week">
<ellipse fill="#20ff05" stroke="black" cx="784.271" cy="-474.458" rx="32.4942" ry="18"/>
<text text-anchor="middle" x="784.271" y="-470.758" font-family="Times,serif" font-size="14.00">37133</text>
</a>
</g>
</g>
<!-- 17849&#45;&gt;37133 -->
<g id="edge1" class="edge"><title>17849&#45;&gt;37133</title>
<path fill="none" stroke="black" d="M591.801,-579.703C633.459,-556.924 719.698,-509.767 761.1,-487.128"/>
</g>
<!-- 37944 -->
<g id="node29" class="node"><title>37944</title>
<g id="a_node29"><a xlink:title="3rd_week">
<ellipse fill="grey" stroke="black" cx="727.252" cy="-574.716" rx="32.4942" ry="18"/>
<text text-anchor="middle" x="727.252" y="-571.016" font-family="Times,serif" font-size="14.00">37944</text>
</a>
</g>
</g>
<!-- 17849&#45;&gt;37944 -->
<g id="edge7" class="edge"><title>17849&#45;&gt;37944</title>
<path fill="none" stroke="black" d="M600.446,-588.955C628.119,-585.848 667.821,-581.389 695.4,-578.293"/>
</g>
<!-- 38115 -->
<g id="node30" class="node"><title>38115</title>
<g id="a_node30"><a xlink:title="3rd_week">
<ellipse fill="#ffffff" stroke="black" cx="546.851" cy="-831.076" rx="32.4942" ry="18"/>
<text text-anchor="middle" x="546.851" y="-827.376" font-family="Times,serif" font-size="14.00">38115</text>
</a>
</g>
</g>
<!-- 17849&#45;&gt;38115 -->
<g id="edge37" class="edge"><title>17849&#45;&gt;38115</title>
<path fill="none" stroke="black" d="M566.629,-610.887C562.632,-655.392 552.446,-768.789 548.473,-813.021"/>
</g>
<!-- 39464 -->
<g id="node31" class="node"><title>39464</title>
<g id="a_node31"><a xlink:title="3rd_week">
<ellipse fill="#20ff05" stroke="black" cx="360.898" cy="-550.437" rx="32.4942" ry="18"/>
<text text-anchor="middle" x="360.898" y="-546.737" font-family="Times,serif" font-size="14.00">39464</text>
</a>
</g>
</g>
<!-- 17849&#45;&gt;39464 -->
<g id="edge36" class="edge"><title>17849&#45;&gt;39464</title>
<path fill="none" stroke="black" d="M537.676,-586.351C498.468,-578.385 430.891,-564.657 391.623,-556.679"/>
</g>
<!-- 41411 -->
<g id="node32" class="node"><title>41411</title>
<g id="a_node32"><a xlink:title="3rd_week">
<ellipse fill="#20ff05" stroke="black" cx="816.748" cy="-538.077" rx="32.4942" ry="18"/>
<text text-anchor="middle" x="816.748" y="-534.377" font-family="Times,serif" font-size="14.00">41411</text>
</a>
</g>
</g>
<!-- 17849&#45;&gt;41411 -->
<g id="edge32" class="edge"><title>17849&#45;&gt;41411</title>
<path fill="none" stroke="black" d="M598.742,-585.886C646.561,-575.399 738.688,-555.196 786.42,-544.728"/>
</g>
<!-- 43399 -->
<g id="node33" class="node"><title>43399</title>
<g id="a_node33"><a xlink:title="3rd_week">
<ellipse fill="#20ff05" stroke="black" cx="622.041" cy="-833.034" rx="32.4942" ry="18"/>
<text text-anchor="middle" x="622.041" y="-829.334" font-family="Times,serif" font-size="14.00">43399</text>
</a>
</g>
</g>
<!-- 17849&#45;&gt;43399 -->
<g id="edge24" class="edge"><title>17849&#45;&gt;43399</title>
<path fill="none" stroke="black" d="M572.316,-610.642C582.304,-655.315 608.066,-770.53 618.026,-815.078"/>
</g>
<!-- 17849&#45;&gt;44367 -->
<g id="edge33" class="edge"><title>17849&#45;&gt;44367</title>
<path fill="none" stroke="black" d="M600.814,-593.288C664.483,-594.699 804.864,-597.81 868.639,-599.223"/>
</g>
<!-- 45756 -->
<g id="node35" class="node"><title>45756</title>
<g id="a_node35"><a xlink:title="3rd_week">
<ellipse fill="#20ff05" stroke="black" cx="495.794" cy="-344.574" rx="32.4942" ry="18"/>
<text text-anchor="middle" x="495.794" y="-340.874" font-family="Times,serif" font-size="14.00">45756</text>
</a>
</g>
</g>
<!-- 17849&#45;&gt;45756 -->
<g id="edge51" class="edge"><title>17849&#45;&gt;45756</title>
<path fill="none" stroke="black" d="M563.062,-574.732C549.721,-529.087 514.452,-408.413 501.057,-362.58"/>
</g>
<!-- 1254 -->
<g id="node36" class="node"><title>1254</title>
<g id="a_node36"><a xlink:title="3rd_week">
<ellipse fill="#20ff05" stroke="black" cx="583.282" cy="-415.378" rx="28.6953" ry="18"/>
<text text-anchor="middle" x="583.282" y="-411.678" font-family="Times,serif" font-size="14.00">1254</text>
</a>
</g>
</g>
<!-- 17849&#45;&gt;1254 -->
<g id="edge28" class="edge"><title>17849&#45;&gt;1254</title>
<path fill="none" stroke="black" d="M569.824,-574.272C572.707,-540.23 578.864,-467.54 581.741,-433.573"/>
</g>
<!-- 5319 -->
<g id="node37" class="node"><title>5319</title>
<g id="a_node37"><a xlink:title="3rd_week">
<ellipse fill="grey" stroke="black" cx="436.695" cy="-676.741" rx="28.6953" ry="18"/>
<text text-anchor="middle" x="436.695" y="-673.041" font-family="Times,serif" font-size="14.00">5319</text>
</a>
</g>
</g>
<!-- 17849&#45;&gt;5319 -->
<g id="edge27" class="edge"><title>17849&#45;&gt;5319</title>
<path fill="none" stroke="black" d="M546.841,-606.279C521.936,-622.211 481.157,-648.298 456.823,-663.865"/>
</g>
<!-- 5954 -->
<g id="node40" class="node"><title>5954</title>
<g id="a_node40"><a xlink:title="3rd_week">
<ellipse fill="#20ff05" stroke="black" cx="620.961" cy="-763.53" rx="28.6953" ry="18"/>
<text text-anchor="middle" x="620.961" y="-759.83" font-family="Times,serif" font-size="14.00">5954</text>
</a>
</g>
</g>
<!-- 17849&#45;&gt;5954 -->
<g id="edge12" class="edge"><title>17849&#45;&gt;5954</title>
<path fill="none" stroke="black" d="M573.813,-610.54C583.959,-643.461 605.406,-713.057 615.496,-745.798"/>
</g>
<!-- 12558 -->
<g id="node41" class="node"><title>12558</title>
<g id="a_node41"><a xlink:title="3rd_week">
<ellipse fill="#20ff05" stroke="black" cx="474.798" cy="-405.292" rx="32.4942" ry="18"/>
<text text-anchor="middle" x="474.798" y="-401.592" font-family="Times,serif" font-size="14.00">12558</text>
</a>
</g>
</g>
<!-- 17849&#45;&gt;12558 -->
<g id="edge25" class="edge"><title>17849&#45;&gt;12558</title>
<path fill="none" stroke="black" d="M559.481,-574.949C541.619,-539.165 501.285,-458.357 483.501,-422.727"/>
</g>
<!-- 17429 -->
<g id="node42" class="node"><title>17429</title>
<g id="a_node42"><a xlink:title="3rd_week">
<ellipse fill="grey" stroke="black" cx="432.324" cy="-487.059" rx="32.4942" ry="18"/>
<text text-anchor="middle" x="432.324" y="-483.359" font-family="Times,serif" font-size="14.00">17429</text>
</a>
</g>
</g>
<!-- 17849&#45;&gt;17429 -->
<g id="edge14" class="edge"><title>17849&#45;&gt;17429</title>
<path fill="none" stroke="black" d="M549.371,-577.897C523.543,-557.852 477.477,-522.101 451.505,-501.945"/>
</g>
<!-- 18207 -->
<g id="node43" class="node"><title>18207</title>
<g id="a_node43"><a xlink:title="3rd_week">
<ellipse fill="#20ff05" stroke="black" cx="708.234" cy="-456.268" rx="32.4942" ry="18"/>
<text text-anchor="middle" x="708.234" y="-452.568" font-family="Times,serif" font-size="14.00">18207</text>
</a>
</g>
</g>
<!-- 17849&#45;&gt;18207 -->
<g id="edge45" class="edge"><title>17849&#45;&gt;18207</title>
<path fill="none" stroke="black" d="M584.604,-576.665C611.572,-550.402 665.109,-498.266 692.009,-472.069"/>
</g>
<!-- 18349 -->
<g id="node44" class="node"><title>18349</title>
<g id="a_node44"><a xlink:title="3rd_week">
<ellipse fill="#20ff05" stroke="black" cx="798.747" cy="-683.713" rx="32.4942" ry="18"/>
<text text-anchor="middle" x="798.747" y="-680.013" font-family="Times,serif" font-size="14.00">18349</text>
</a>
</g>
</g>
<!-- 17849&#45;&gt;18349 -->
<g id="edge21" class="edge"><title>17849&#45;&gt;18349</title>
<path fill="none" stroke="black" d="M595.164,-603.201C639.573,-620.764 727.732,-655.628 772.029,-673.147"/>
</g>
<!-- 20075 -->
<g id="node45" class="node"><title>20075</title>
<g id="a_node45"><a xlink:title="3rd_week">
<ellipse fill="#ffffff" stroke="black" cx="705.682" cy="-815.541" rx="32.4942" ry="18"/>
<text text-anchor="middle" x="705.682" y="-811.841" font-family="Times,serif" font-size="14.00">20075</text>
</a>
</g>
</g>
<!-- 17849&#45;&gt;20075 -->
<g id="edge17" class="edge"><title>17849&#45;&gt;20075</title>
<path fill="none" stroke="black" d="M578.829,-609.694C604.406,-651.198 669.478,-756.792 695.092,-798.356"/>
</g>
<!-- 22400 -->
<g id="node46" class="node"><title>22400</title>
<g id="a_node46"><a xlink:title="3rd_week">
<ellipse fill="#20ff05" stroke="black" cx="358.835" cy="-479.896" rx="32.4942" ry="18"/>
<text text-anchor="middle" x="358.835" y="-476.196" font-family="Times,serif" font-size="14.00">22400</text>
</a>
</g>
</g>
<!-- 17849&#45;&gt;22400 -->
<g id="edge35" class="edge"><title>17849&#45;&gt;22400</title>
<path fill="none" stroke="black" d="M544.656,-579.862C504.325,-558.165 422.639,-514.221 382.367,-492.556"/>
</g>
<!-- 23841 -->
<g id="node47" class="node"><title>23841</title>
<g id="a_node47"><a xlink:title="3rd_week">
<ellipse fill="#20ff05" stroke="black" cx="750.083" cy="-758.236" rx="32.4942" ry="18"/>
<text text-anchor="middle" x="750.083" y="-754.536" font-family="Times,serif" font-size="14.00">23841</text>
</a>
</g>
</g>
<!-- 17849&#45;&gt;23841 -->
<g id="edge6" class="edge"><title>17849&#45;&gt;23841</title>
<path fill="none" stroke="black" d="M585.379,-608.153C620.118,-639.809 698.567,-711.294 733.157,-742.813"/>
</g>
<!-- 31372 -->
<g id="node49" class="node"><title>31372</title>
<g id="a_node49"><a xlink:title="3rd_week">
<ellipse fill="#20ff05" stroke="black" cx="399.84" cy="-417.592" rx="32.4942" ry="18"/>
<text text-anchor="middle" x="399.84" y="-413.892" font-family="Times,serif" font-size="14.00">31372</text>
</a>
</g>
</g>
<!-- 17849&#45;&gt;31372 -->
<g id="edge39" class="edge"><title>17849&#45;&gt;31372</title>
<path fill="none" stroke="black" d="M552.731,-576.42C520.643,-543.086 447.402,-467.001 415.346,-433.701"/>
</g>
<!-- 41217 -->
<g id="node50" class="node"><title>41217</title>
<g id="a_node50"><a xlink:title="3rd_week">
<ellipse fill="#20ff05" stroke="black" cx="365.377" cy="-714.844" rx="32.4942" ry="18"/>
<text text-anchor="middle" x="365.377" y="-711.144" font-family="Times,serif" font-size="14.00">41217</text>
</a>
</g>
</g>
<!-- 17849&#45;&gt;41217 -->
<g id="edge8" class="edge"><title>17849&#45;&gt;41217</title>
<path fill="none" stroke="black" d="M546.175,-605.886C507.146,-629.407 426.459,-678.033 387.45,-701.542"/>
</g>
<!-- 44516 -->
<g id="node52" class="node"><title>44516</title>
<g id="a_node52"><a xlink:title="3rd_week">
<ellipse fill="#20ff05" stroke="black" cx="807.958" cy="-622.179" rx="32.4942" ry="18"/>
<text text-anchor="middle" x="807.958" y="-618.479" font-family="Times,serif" font-size="14.00">44516</text>
</a>
</g>
</g>
<!-- 17849&#45;&gt;44516 -->
<g id="edge2" class="edge"><title>17849&#45;&gt;44516</title>
<path fill="none" stroke="black" d="M600.103,-596.5C645.945,-602.163 730.082,-612.558 775.998,-618.23"/>
</g>
<!-- 5353 -->
<g id="node38" class="node"><title>5353</title>
<g id="a_node38"><a xlink:title="3rd_week">
<ellipse fill="grey" stroke="black" cx="1059.75" cy="-296.409" rx="28.6953" ry="18"/>
<text text-anchor="middle" x="1059.75" y="-292.709" font-family="Times,serif" font-size="14.00">5353</text>
</a>
</g>
</g>
<!-- 22258&#45;&gt;5353 -->
<g id="edge31" class="edge"><title>22258&#45;&gt;5353</title>
<path fill="none" stroke="black" d="M869.27,-409.909C910.686,-385.231 998.721,-332.775 1038.93,-308.814"/>
</g>
<!-- 5560 -->
<g id="node39" class="node"><title>5560</title>
<g id="a_node39"><a xlink:title="3rd_week">
<ellipse fill="#20ff05" stroke="black" cx="48.3457" cy="-383.931" rx="28.6953" ry="18"/>
<text text-anchor="middle" x="48.3457" y="-380.231" font-family="Times,serif" font-size="14.00">5560</text>
</a>
</g>
</g>
<!-- 22501&#45;&gt;5560 -->
<g id="edge22" class="edge"><title>22501&#45;&gt;5560</title>
<path fill="none" stroke="black" d="M251.625,-461.388C206.57,-444.22 116.419,-409.869 72.9291,-393.298"/>
</g>
<!-- 37257 -->
<g id="node28" class="node"><title>37257</title>
<g id="a_node28"><a xlink:title="3rd_week">
<ellipse fill="#20ff05" stroke="black" cx="191.566" cy="-1003.75" rx="32.4942" ry="18"/>
<text text-anchor="middle" x="191.566" y="-1000.05" font-family="Times,serif" font-size="14.00">37257</text>
</a>
</g>
</g>
<!-- 25835&#45;&gt;37257 -->
<g id="edge47" class="edge"><title>25835&#45;&gt;37257</title>
<path fill="none" stroke="black" d="M345.945,-837.574C313.796,-872.181 238.685,-953.032 206.566,-987.607"/>
</g>
</g>
</svg>
