<?xml version="1.0" encoding="UTF-8" standalone="no"?>
<!DOCTYPE svg PUBLIC "-//W3C//DTD SVG 1.1//EN"
 "http://www.w3.org/Graphics/SVG/1.1/DTD/svg11.dtd">
<!-- Generated by graphviz version 2.38.0 (20140413.2041)
 -->
<!-- Title: %3 Pages: 1 -->
<svg width="1829pt" height="1674pt"
 viewBox="0.00 0.00 1829.00 1674.00" xmlns="http://www.w3.org/2000/svg" xmlns:xlink="http://www.w3.org/1999/xlink">
<g id="graph0" class="graph" transform="scale(1 1) rotate(0) translate(4 1670)">
<title>%3</title>
<polygon fill="white" stroke="none" points="-4,4 -4,-1670 1825,-1670 1825,4 -4,4"/>
<!-- 450 -->
<g id="node1" class="node"><title>450</title>
<g id="a_node1"><a xlink:title="Day_0">
<ellipse fill="#ffffff" stroke="black" cx="934.478" cy="-302.363" rx="27" ry="18"/>
<text text-anchor="middle" x="934.478" y="-298.663" font-family="Times,serif" font-size="14.00">450</text>
</a>
</g>
</g>
<!-- 41043 -->
<g id="node24" class="node"><title>41043</title>
<g id="a_node24"><a xlink:title="Day_0">
<ellipse fill="#efff05" stroke="black" cx="860.557" cy="-377.777" rx="32.4942" ry="18"/>
<text text-anchor="middle" x="860.557" y="-374.077" font-family="Times,serif" font-size="14.00">41043</text>
</a>
</g>
</g>
<!-- 450&#45;&gt;41043 -->
<g id="edge13" class="edge"><title>450&#45;&gt;41043</title>
<path fill="none" stroke="black" d="M919.519,-317.624C906.947,-330.45 889.036,-348.723 876.259,-361.757"/>
</g>
<!-- 1780 -->
<g id="node2" class="node"><title>1780</title>
<g id="a_node2"><a xlink:title="Day_0">
<ellipse fill="#efff05" stroke="black" cx="1568.8" cy="-380.788" rx="28.6953" ry="18"/>
<text text-anchor="middle" x="1568.8" y="-377.088" font-family="Times,serif" font-size="14.00">1780</text>
</a>
</g>
</g>
<!-- 41005 -->
<g id="node23" class="node"><title>41005</title>
<g id="a_node23"><a xlink:title="Day_0">
<ellipse fill="#efff05" stroke="black" cx="1481.51" cy="-295.591" rx="32.4942" ry="18"/>
<text text-anchor="middle" x="1481.51" y="-291.891" font-family="Times,serif" font-size="14.00">41005</text>
</a>
</g>
</g>
<!-- 1780&#45;&gt;41005 -->
<g id="edge12" class="edge"><title>1780&#45;&gt;41005</title>
<path fill="none" stroke="black" d="M1553.19,-365.556C1537.5,-350.24 1513.42,-326.739 1497.57,-311.267"/>
</g>
<!-- 2617 -->
<g id="node3" class="node"><title>2617</title>
<g id="a_node3"><a xlink:title="Day_0">
<ellipse fill="grey" stroke="black" cx="1477.7" cy="-199.965" rx="28.6953" ry="18"/>
<text text-anchor="middle" x="1477.7" y="-196.265" font-family="Times,serif" font-size="14.00">2617</text>
</a>
</g>
</g>
<!-- 2617&#45;&gt;41005 -->
<g id="edge33" class="edge"><title>2617&#45;&gt;41005</title>
<path fill="none" stroke="black" d="M1478.43,-218.402C1479.11,-235.444 1480.12,-260.615 1480.79,-277.534"/>
</g>
<!-- 3519 -->
<g id="node4" class="node"><title>3519</title>
<g id="a_node4"><a xlink:title="Day_0">
<ellipse fill="grey" stroke="black" cx="1591.58" cy="-427.514" rx="28.6953" ry="18"/>
<text text-anchor="middle" x="1591.58" y="-423.814" font-family="Times,serif" font-size="14.00">3519</text>
</a>
</g>
</g>
<!-- 3519&#45;&gt;41005 -->
<g id="edge45" class="edge"><title>3519&#45;&gt;41005</title>
<path fill="none" stroke="black" d="M1578.08,-411.338C1557.07,-386.155 1516.75,-337.829 1495.46,-312.315"/>
</g>
<!-- 3148 -->
<g id="node30" class="node"><title>3148</title>
<g id="a_node30"><a xlink:title="Day_0">
<ellipse fill="#efff05" stroke="black" cx="1673.49" cy="-517.938" rx="28.6953" ry="18"/>
<text text-anchor="middle" x="1673.49" y="-514.238" font-family="Times,serif" font-size="14.00">3148</text>
</a>
</g>
</g>
<!-- 3519&#45;&gt;3148 -->
<g id="edge22" class="edge"><title>3519&#45;&gt;3148</title>
<path fill="none" stroke="black" d="M1605.85,-443.265C1620.79,-459.76 1644.13,-485.523 1659.11,-502.065"/>
</g>
<!-- 3918 -->
<g id="node5" class="node"><title>3918</title>
<g id="a_node5"><a xlink:title="Day_0">
<ellipse fill="#efff05" stroke="black" cx="776.448" cy="-247.233" rx="28.6953" ry="18"/>
<text text-anchor="middle" x="776.448" y="-243.533" font-family="Times,serif" font-size="14.00">3918</text>
</a>
</g>
</g>
<!-- 3918&#45;&gt;41043 -->
<g id="edge53" class="edge"><title>3918&#45;&gt;41043</title>
<path fill="none" stroke="black" d="M787.272,-264.032C803.333,-288.961 833.318,-335.499 849.508,-360.628"/>
</g>
<!-- 19517 -->
<g id="node36" class="node"><title>19517</title>
<g id="a_node36"><a xlink:title="Day_0">
<ellipse fill="#efff05" stroke="black" cx="690.8" cy="-118.481" rx="32.4942" ry="18"/>
<text text-anchor="middle" x="690.8" y="-114.781" font-family="Times,serif" font-size="14.00">19517</text>
</a>
</g>
</g>
<!-- 3918&#45;&gt;19517 -->
<g id="edge44" class="edge"><title>3918&#45;&gt;19517</title>
<path fill="none" stroke="black" d="M765.251,-230.401C748.927,-205.862 718.751,-160.499 702.273,-135.728"/>
</g>
<!-- 4737 -->
<g id="node6" class="node"><title>4737</title>
<g id="a_node6"><a xlink:title="Day_0">
<ellipse fill="grey" stroke="black" cx="921.109" cy="-471.318" rx="28.6953" ry="18"/>
<text text-anchor="middle" x="921.109" y="-467.618" font-family="Times,serif" font-size="14.00">4737</text>
</a>
</g>
</g>
<!-- 4737&#45;&gt;41043 -->
<g id="edge16" class="edge"><title>4737&#45;&gt;41043</title>
<path fill="none" stroke="black" d="M910.284,-454.595C899.398,-437.779 882.695,-411.976 871.699,-394.988"/>
</g>
<!-- 5684 -->
<g id="node7" class="node"><title>5684</title>
<g id="a_node7"><a xlink:title="Day_0">
<ellipse fill="grey" stroke="black" cx="732.236" cy="-402.284" rx="28.6953" ry="18"/>
<text text-anchor="middle" x="732.236" y="-398.584" font-family="Times,serif" font-size="14.00">5684</text>
</a>
</g>
</g>
<!-- 5684&#45;&gt;41043 -->
<g id="edge3" class="edge"><title>5684&#45;&gt;41043</title>
<path fill="none" stroke="black" d="M759.764,-397.027C780.237,-393.117 808.193,-387.778 829.47,-383.714"/>
</g>
<!-- 11720 -->
<g id="node8" class="node"><title>11720</title>
<g id="a_node8"><a xlink:title="Day_0">
<ellipse fill="#efff05" stroke="black" cx="1482.51" cy="-141.085" rx="32.4942" ry="18"/>
<text text-anchor="middle" x="1482.51" y="-137.385" font-family="Times,serif" font-size="14.00">11720</text>
</a>
</g>
</g>
<!-- 11720&#45;&gt;41005 -->
<g id="edge14" class="edge"><title>11720&#45;&gt;41005</title>
<path fill="none" stroke="black" d="M1482.39,-159.111C1482.2,-188.724 1481.82,-247.352 1481.63,-277.2"/>
</g>
<!-- 12027 -->
<g id="node9" class="node"><title>12027</title>
<g id="a_node9"><a xlink:title="Day_0">
<ellipse fill="grey" stroke="black" cx="1634.23" cy="-219.492" rx="32.4942" ry="18"/>
<text text-anchor="middle" x="1634.23" y="-215.792" font-family="Times,serif" font-size="14.00">12027</text>
</a>
</g>
</g>
<!-- 12027&#45;&gt;41005 -->
<g id="edge19" class="edge"><title>12027&#45;&gt;41005</title>
<path fill="none" stroke="black" d="M1610.03,-231.55C1581.52,-245.757 1534.42,-269.226 1505.85,-283.463"/>
</g>
<!-- 36250 -->
<g id="node47" class="node"><title>36250</title>
<g id="a_node47"><a xlink:title="Day_0">
<ellipse fill="grey" stroke="black" cx="1746.51" cy="-146.645" rx="32.4942" ry="18"/>
<text text-anchor="middle" x="1746.51" y="-142.945" font-family="Times,serif" font-size="14.00">36250</text>
</a>
</g>
</g>
<!-- 12027&#45;&gt;36250 -->
<g id="edge25" class="edge"><title>12027&#45;&gt;36250</title>
<path fill="none" stroke="black" d="M1655.35,-205.79C1675.3,-192.849 1705.06,-173.536 1725.1,-160.534"/>
</g>
<!-- 12828 -->
<g id="node10" class="node"><title>12828</title>
<g id="a_node10"><a xlink:title="Day_0">
<ellipse fill="#efff05" stroke="black" cx="1571.91" cy="-156.239" rx="32.4942" ry="18"/>
<text text-anchor="middle" x="1571.91" y="-152.539" font-family="Times,serif" font-size="14.00">12828</text>
</a>
</g>
</g>
<!-- 12828&#45;&gt;41005 -->
<g id="edge55" class="edge"><title>12828&#45;&gt;41005</title>
<path fill="none" stroke="black" d="M1560.83,-173.326C1543.48,-200.071 1510.09,-251.532 1492.69,-278.364"/>
</g>
<!-- 37235 -->
<g id="node48" class="node"><title>37235</title>
<g id="a_node48"><a xlink:title="Day_0">
<ellipse fill="grey" stroke="black" cx="1634.76" cy="-40.7214" rx="32.4942" ry="18"/>
<text text-anchor="middle" x="1634.76" y="-37.0214" font-family="Times,serif" font-size="14.00">37235</text>
</a>
</g>
</g>
<!-- 12828&#45;&gt;37235 -->
<g id="edge42" class="edge"><title>12828&#45;&gt;37235</title>
<path fill="none" stroke="black" d="M1581.46,-138.694C1593.34,-116.856 1613.5,-79.7912 1625.33,-58.0527"/>
</g>
<!-- 13141 -->
<g id="node11" class="node"><title>13141</title>
<g id="a_node11"><a xlink:title="Day_0">
<ellipse fill="#efff05" stroke="black" cx="1271.28" cy="-324.068" rx="32.4942" ry="18"/>
<text text-anchor="middle" x="1271.28" y="-320.368" font-family="Times,serif" font-size="14.00">13141</text>
</a>
</g>
</g>
<!-- 25124 -->
<g id="node18" class="node"><title>25124</title>
<g id="a_node18"><a xlink:title="Day_0">
<ellipse fill="#efff05" stroke="black" cx="1057.37" cy="-352.969" rx="32.4942" ry="18"/>
<text text-anchor="middle" x="1057.37" y="-349.269" font-family="Times,serif" font-size="14.00">25124</text>
</a>
</g>
</g>
<!-- 13141&#45;&gt;25124 -->
<g id="edge17" class="edge"><title>13141&#45;&gt;25124</title>
<path fill="none" stroke="black" d="M1239.26,-328.395C1198.81,-333.859 1129.64,-343.204 1089.26,-348.66"/>
</g>
<!-- 13141&#45;&gt;41005 -->
<g id="edge6" class="edge"><title>13141&#45;&gt;41005</title>
<path fill="none" stroke="black" d="M1303.21,-319.743C1342.84,-314.375 1410.02,-305.275 1449.63,-299.91"/>
</g>
<!-- 14815 -->
<g id="node12" class="node"><title>14815</title>
<g id="a_node12"><a xlink:title="Day_0">
<ellipse fill="#efff05" stroke="black" cx="727.093" cy="-347.087" rx="32.4942" ry="18"/>
<text text-anchor="middle" x="727.093" y="-343.387" font-family="Times,serif" font-size="14.00">14815</text>
</a>
</g>
</g>
<!-- 14815&#45;&gt;41043 -->
<g id="edge1" class="edge"><title>14815&#45;&gt;41043</title>
<path fill="none" stroke="black" d="M757.379,-354.051C779.221,-359.074 808.578,-365.824 830.392,-370.84"/>
</g>
<!-- 16206 -->
<g id="node13" class="node"><title>16206</title>
<g id="a_node13"><a xlink:title="Day_0">
<ellipse fill="#efff05" stroke="black" cx="888.823" cy="-256.462" rx="32.4942" ry="18"/>
<text text-anchor="middle" x="888.823" y="-252.762" font-family="Times,serif" font-size="14.00">16206</text>
</a>
</g>
</g>
<!-- 16206&#45;&gt;41043 -->
<g id="edge29" class="edge"><title>16206&#45;&gt;41043</title>
<path fill="none" stroke="black" d="M884.652,-274.363C879.308,-297.299 870.097,-336.831 864.745,-359.803"/>
</g>
<!-- 19511 -->
<g id="node14" class="node"><title>19511</title>
<g id="a_node14"><a xlink:title="Day_0">
<ellipse fill="#efff05" stroke="black" cx="736.93" cy="-299.688" rx="32.4942" ry="18"/>
<text text-anchor="middle" x="736.93" y="-295.988" font-family="Times,serif" font-size="14.00">19511</text>
</a>
</g>
</g>
<!-- 19511&#45;&gt;41043 -->
<g id="edge11" class="edge"><title>19511&#45;&gt;41043</title>
<path fill="none" stroke="black" d="M758.464,-313.29C781.017,-327.535 816.24,-349.784 838.855,-364.069"/>
</g>
<!-- 20997 -->
<g id="node15" class="node"><title>20997</title>
<g id="a_node15"><a xlink:title="Day_0">
<ellipse fill="#efff05" stroke="black" cx="1411.23" cy="-410.459" rx="32.4942" ry="18"/>
<text text-anchor="middle" x="1411.23" y="-406.759" font-family="Times,serif" font-size="14.00">20997</text>
</a>
</g>
</g>
<!-- 20997&#45;&gt;41005 -->
<g id="edge9" class="edge"><title>20997&#45;&gt;41005</title>
<path fill="none" stroke="black" d="M1421.91,-393.013C1435.19,-371.297 1457.74,-334.441 1470.97,-312.824"/>
</g>
<!-- 22570 -->
<g id="node16" class="node"><title>22570</title>
<g id="a_node16"><a xlink:title="Day_0">
<ellipse fill="#efff05" stroke="black" cx="774.493" cy="-557.963" rx="32.4942" ry="18"/>
<text text-anchor="middle" x="774.493" y="-554.263" font-family="Times,serif" font-size="14.00">22570</text>
</a>
</g>
</g>
<!-- 22570&#45;&gt;41043 -->
<g id="edge49" class="edge"><title>22570&#45;&gt;41043</title>
<path fill="none" stroke="black" d="M782.902,-540.358C799.398,-505.822 835.82,-429.567 852.241,-395.188"/>
</g>
<!-- 11901 -->
<g id="node33" class="node"><title>11901</title>
<g id="a_node33"><a xlink:title="Day_0">
<ellipse fill="#efff05" stroke="black" cx="823.433" cy="-673.313" rx="32.4942" ry="18"/>
<text text-anchor="middle" x="823.433" y="-669.613" font-family="Times,serif" font-size="14.00">11901</text>
</a>
</g>
</g>
<!-- 22570&#45;&gt;11901 -->
<g id="edge34" class="edge"><title>22570&#45;&gt;11901</title>
<path fill="none" stroke="black" d="M782.14,-575.987C791.334,-597.657 806.67,-633.802 815.84,-655.416"/>
</g>
<!-- 20433 -->
<g id="node38" class="node"><title>20433</title>
<g id="a_node38"><a xlink:title="Day_0">
<ellipse fill="#efff05" stroke="black" cx="676.021" cy="-681.758" rx="32.4942" ry="18"/>
<text text-anchor="middle" x="676.021" y="-678.058" font-family="Times,serif" font-size="14.00">20433</text>
</a>
</g>
</g>
<!-- 22570&#45;&gt;20433 -->
<g id="edge26" class="edge"><title>22570&#45;&gt;20433</title>
<path fill="none" stroke="black" d="M761.213,-574.659C742.419,-598.286 708.256,-641.234 689.405,-664.932"/>
</g>
<!-- 24465 -->
<g id="node17" class="node"><title>24465</title>
<g id="a_node17"><a xlink:title="Day_0">
<ellipse fill="#efff05" stroke="black" cx="1406.14" cy="-179.571" rx="32.4942" ry="18"/>
<text text-anchor="middle" x="1406.14" y="-175.871" font-family="Times,serif" font-size="14.00">24465</text>
</a>
</g>
</g>
<!-- 24465&#45;&gt;41005 -->
<g id="edge18" class="edge"><title>24465&#45;&gt;41005</title>
<path fill="none" stroke="black" d="M1417.26,-196.69C1431.51,-218.625 1456.07,-256.432 1470.34,-278.401"/>
</g>
<!-- 25124&#45;&gt;41043 -->
<g id="edge7" class="edge"><title>25124&#45;&gt;41043</title>
<path fill="none" stroke="black" d="M1025.31,-357.01C988.603,-361.637 928.841,-369.17 892.277,-373.779"/>
</g>
<!-- 27608 -->
<g id="node19" class="node"><title>27608</title>
<g id="a_node19"><a xlink:title="Day_0">
<ellipse fill="#efff05" stroke="black" cx="1381.22" cy="-342.366" rx="32.4942" ry="18"/>
<text text-anchor="middle" x="1381.22" y="-338.666" font-family="Times,serif" font-size="14.00">27608</text>
</a>
</g>
</g>
<!-- 27608&#45;&gt;41005 -->
<g id="edge4" class="edge"><title>27608&#45;&gt;41005</title>
<path fill="none" stroke="black" d="M1406.27,-330.683C1421.58,-323.54 1441.11,-314.433 1456.43,-307.287"/>
</g>
<!-- 30779 -->
<g id="node20" class="node"><title>30779</title>
<g id="a_node20"><a xlink:title="Day_0">
<ellipse fill="#efff05" stroke="black" cx="821.253" cy="-301.185" rx="32.4942" ry="18"/>
<text text-anchor="middle" x="821.253" y="-297.485" font-family="Times,serif" font-size="14.00">30779</text>
</a>
</g>
</g>
<!-- 30779&#45;&gt;41043 -->
<g id="edge56" class="edge"><title>30779&#45;&gt;41043</title>
<path fill="none" stroke="black" d="M830.172,-318.565C836.559,-331.011 845.128,-347.71 851.538,-360.201"/>
</g>
<!-- 31718 -->
<g id="node21" class="node"><title>31718</title>
<g id="a_node21"><a xlink:title="Day_0">
<ellipse fill="#efff05" stroke="black" cx="1653.18" cy="-339.671" rx="32.4942" ry="18"/>
<text text-anchor="middle" x="1653.18" y="-335.971" font-family="Times,serif" font-size="14.00">31718</text>
</a>
</g>
</g>
<!-- 31718&#45;&gt;41005 -->
<g id="edge39" class="edge"><title>31718&#45;&gt;41005</title>
<path fill="none" stroke="black" d="M1623.67,-332.093C1592.22,-324.019 1542.73,-311.309 1511.21,-303.217"/>
</g>
<!-- 33976 -->
<g id="node44" class="node"><title>33976</title>
<g id="a_node44"><a xlink:title="Day_0">
<ellipse fill="grey" stroke="black" cx="1779.64" cy="-376.804" rx="32.4942" ry="18"/>
<text text-anchor="middle" x="1779.64" y="-373.104" font-family="Times,serif" font-size="14.00">33976</text>
</a>
</g>
</g>
<!-- 31718&#45;&gt;33976 -->
<g id="edge54" class="edge"><title>31718&#45;&gt;33976</title>
<path fill="none" stroke="black" d="M1682.19,-348.19C1702.75,-354.228 1730.23,-362.295 1750.76,-368.324"/>
</g>
<!-- 40241 -->
<g id="node22" class="node"><title>40241</title>
<g id="a_node22"><a xlink:title="Day_0">
<ellipse fill="grey" stroke="black" cx="1551.68" cy="-217.912" rx="32.4942" ry="18"/>
<text text-anchor="middle" x="1551.68" y="-214.212" font-family="Times,serif" font-size="14.00">40241</text>
</a>
</g>
</g>
<!-- 40241&#45;&gt;41005 -->
<g id="edge32" class="edge"><title>40241&#45;&gt;41005</title>
<path fill="none" stroke="black" d="M1536.8,-234.386C1524.81,-247.657 1508.05,-266.214 1496.13,-279.407"/>
</g>
<!-- 2940 -->
<g id="node29" class="node"><title>2940</title>
<g id="a_node29"><a xlink:title="3rd_week,Day_0">
<ellipse fill="#efff05" stroke="black" cx="1654.98" cy="-276.562" rx="28.6832" ry="18"/>
<ellipse fill="none" stroke="black" cx="1654.98" cy="-276.562" rx="32.6952" ry="22"/>
<text text-anchor="middle" x="1654.98" y="-272.862" font-family="Times,serif" font-size="14.00">2940</text>
</a>
</g>
</g>
<!-- 41005&#45;&gt;2940 -->
<g id="edge21" class="edge"><title>41005&#45;&gt;2940</title>
<path fill="none" stroke="black" d="M1513.73,-292.056C1544.79,-288.649 1591.54,-283.521 1622.64,-280.11"/>
</g>
<!-- 24539 -->
<g id="node39" class="node"><title>24539</title>
<g id="a_node39"><a xlink:title="Day_0">
<ellipse fill="#efff05" stroke="black" cx="1377.3" cy="-239.529" rx="32.4942" ry="18"/>
<text text-anchor="middle" x="1377.3" y="-235.829" font-family="Times,serif" font-size="14.00">24539</text>
</a>
</g>
</g>
<!-- 41005&#45;&gt;24539 -->
<g id="edge46" class="edge"><title>41005&#45;&gt;24539</title>
<path fill="none" stroke="black" d="M1458.12,-283.009C1441.08,-273.841 1418.08,-261.466 1400.97,-252.263"/>
</g>
<!-- 34587 -->
<g id="node46" class="node"><title>34587</title>
<g id="a_node46"><a xlink:title="Day_0">
<ellipse fill="#efff05" stroke="black" cx="1509.37" cy="-446.231" rx="32.4942" ry="18"/>
<text text-anchor="middle" x="1509.37" y="-442.531" font-family="Times,serif" font-size="14.00">34587</text>
</a>
</g>
</g>
<!-- 41005&#45;&gt;34587 -->
<g id="edge31" class="edge"><title>41005&#45;&gt;34587</title>
<path fill="none" stroke="black" d="M1484.87,-313.761C1490.23,-342.715 1500.64,-399.002 1506,-427.996"/>
</g>
<!-- 38135 -->
<g id="node50" class="node"><title>38135</title>
<g id="a_node50"><a xlink:title="Day_0">
<ellipse fill="#efff05" stroke="black" cx="1561.96" cy="-294.587" rx="32.4942" ry="18"/>
<text text-anchor="middle" x="1561.96" y="-290.887" font-family="Times,serif" font-size="14.00">38135</text>
</a>
</g>
</g>
<!-- 41005&#45;&gt;38135 -->
<g id="edge52" class="edge"><title>41005&#45;&gt;38135</title>
<path fill="none" stroke="black" d="M1514.23,-295.182C1519.19,-295.12 1524.31,-295.057 1529.27,-294.995"/>
</g>
<!-- 41865 -->
<g id="node55" class="node"><title>41865</title>
<g id="a_node55"><a xlink:title="Day_0">
<ellipse fill="#efff05" stroke="black" cx="1494.57" cy="-390.384" rx="32.4942" ry="18"/>
<text text-anchor="middle" x="1494.57" y="-386.684" font-family="Times,serif" font-size="14.00">41865</text>
</a>
</g>
</g>
<!-- 41005&#45;&gt;41865 -->
<g id="edge8" class="edge"><title>41005&#45;&gt;41865</title>
<path fill="none" stroke="black" d="M1484.03,-313.868C1486.34,-330.653 1489.75,-355.395 1492.06,-372.163"/>
</g>
<!-- 26323 -->
<g id="node40" class="node"><title>26323</title>
<g id="a_node40"><a xlink:title="Day_0">
<ellipse fill="#ffffff" stroke="black" cx="761.254" cy="-454.749" rx="32.4942" ry="18"/>
<text text-anchor="middle" x="761.254" y="-451.049" font-family="Times,serif" font-size="14.00">26323</text>
</a>
</g>
</g>
<!-- 41043&#45;&gt;26323 -->
<g id="edge38" class="edge"><title>41043&#45;&gt;26323</title>
<path fill="none" stroke="black" d="M841.411,-392.618C823.826,-406.248 797.908,-426.338 780.342,-439.954"/>
</g>
<!-- 654 -->
<g id="node25" class="node"><title>654</title>
<g id="a_node25"><a xlink:title="Day_0">
<ellipse fill="#efff05" stroke="black" cx="235.426" cy="-1391.39" rx="27" ry="18"/>
<text text-anchor="middle" x="235.426" y="-1387.69" font-family="Times,serif" font-size="14.00">654</text>
</a>
</g>
</g>
<!-- 27150 -->
<g id="node41" class="node"><title>27150</title>
<g id="a_node41"><a xlink:title="Day_0">
<ellipse fill="#efff05" stroke="black" cx="160.752" cy="-1518.35" rx="32.4942" ry="18"/>
<text text-anchor="middle" x="160.752" y="-1514.65" font-family="Times,serif" font-size="14.00">27150</text>
</a>
</g>
</g>
<!-- 654&#45;&gt;27150 -->
<g id="edge23" class="edge"><title>654&#45;&gt;27150</title>
<path fill="none" stroke="black" d="M225.51,-1408.25C211.307,-1432.4 185.306,-1476.61 170.949,-1501.02"/>
</g>
<!-- 41454 -->
<g id="node54" class="node"><title>41454</title>
<g id="a_node54"><a xlink:title="Day_0">
<ellipse fill="#efff05" stroke="black" cx="324.278" cy="-1255.3" rx="32.4942" ry="18"/>
<text text-anchor="middle" x="324.278" y="-1251.6" font-family="Times,serif" font-size="14.00">41454</text>
</a>
</g>
</g>
<!-- 654&#45;&gt;41454 -->
<g id="edge57" class="edge"><title>654&#45;&gt;41454</title>
<path fill="none" stroke="black" d="M246.321,-1374.7C263.281,-1348.72 295.83,-1298.87 313.013,-1272.55"/>
</g>
<!-- 1929 -->
<g id="node26" class="node"><title>1929</title>
<g id="a_node26"><a xlink:title="Day_0">
<ellipse fill="#efff05" stroke="black" cx="623.453" cy="-18.1016" rx="28.6953" ry="18"/>
<text text-anchor="middle" x="623.453" y="-14.4016" font-family="Times,serif" font-size="14.00">1929</text>
</a>
</g>
</g>
<!-- 1929&#45;&gt;19517 -->
<g id="edge51" class="edge"><title>1929&#45;&gt;19517</title>
<path fill="none" stroke="black" d="M634.878,-35.1295C647.262,-53.5879 666.913,-82.8781 679.319,-101.369"/>
</g>
<!-- 2072 -->
<g id="node27" class="node"><title>2072</title>
<g id="a_node27"><a xlink:title="Day_0">
<ellipse fill="#efff05" stroke="black" cx="457.251" cy="-859.036" rx="28.6953" ry="18"/>
<text text-anchor="middle" x="457.251" y="-855.336" font-family="Times,serif" font-size="14.00">2072</text>
</a>
</g>
</g>
<!-- 32958 -->
<g id="node43" class="node"><title>32958</title>
<g id="a_node43"><a xlink:title="Day_0">
<ellipse fill="#efff05" stroke="black" cx="570.864" cy="-835.709" rx="32.4942" ry="18"/>
<text text-anchor="middle" x="570.864" y="-832.009" font-family="Times,serif" font-size="14.00">32958</text>
</a>
</g>
</g>
<!-- 2072&#45;&gt;32958 -->
<g id="edge37" class="edge"><title>2072&#45;&gt;32958</title>
<path fill="none" stroke="black" d="M484.464,-853.448C501.27,-849.998 522.87,-845.563 540.268,-841.991"/>
</g>
<!-- 2458 -->
<g id="node28" class="node"><title>2458</title>
<g id="a_node28"><a xlink:title="Day_0">
<ellipse fill="#efff05" stroke="black" cx="464.916" cy="-1099.95" rx="28.6953" ry="18"/>
<text text-anchor="middle" x="464.916" y="-1096.25" font-family="Times,serif" font-size="14.00">2458</text>
</a>
</g>
</g>
<!-- 14063 -->
<g id="node34" class="node"><title>14063</title>
<g id="a_node34"><a xlink:title="Day_0">
<ellipse fill="#efff05" stroke="black" cx="498.147" cy="-981.051" rx="32.4942" ry="18"/>
<text text-anchor="middle" x="498.147" y="-977.351" font-family="Times,serif" font-size="14.00">14063</text>
</a>
</g>
</g>
<!-- 2458&#45;&gt;14063 -->
<g id="edge43" class="edge"><title>2458&#45;&gt;14063</title>
<path fill="none" stroke="black" d="M469.891,-1082.15C476.155,-1059.73 486.857,-1021.44 493.138,-998.973"/>
</g>
<!-- 38811 -->
<g id="node52" class="node"><title>38811</title>
<g id="a_node52"><a xlink:title="3rd_week">
<ellipse fill="#efff05" stroke="black" cx="1788.66" cy="-257.067" rx="32.4942" ry="18"/>
<text text-anchor="middle" x="1788.66" y="-253.367" font-family="Times,serif" font-size="14.00">38811</text>
</a>
</g>
</g>
<!-- 2940&#45;&gt;38811 -->
<g id="edge10" class="edge"><title>2940&#45;&gt;38811</title>
<path fill="none" stroke="black" d="M1687,-271.892C1708.17,-268.806 1735.79,-264.777 1756.9,-261.698"/>
</g>
<!-- 8261 -->
<g id="node31" class="node"><title>8261</title>
<g id="a_node31"><a xlink:title="Day_0">
<ellipse fill="#efff05" stroke="black" cx="330.651" cy="-1380.28" rx="28.6953" ry="18"/>
<text text-anchor="middle" x="330.651" y="-1376.58" font-family="Times,serif" font-size="14.00">8261</text>
</a>
</g>
</g>
<!-- 8261&#45;&gt;41454 -->
<g id="edge20" class="edge"><title>8261&#45;&gt;41454</title>
<path fill="none" stroke="black" d="M329.724,-1362.1C328.516,-1338.41 326.415,-1297.2 325.206,-1273.5"/>
</g>
<!-- 10240 -->
<g id="node32" class="node"><title>10240</title>
<g id="a_node32"><a xlink:title="Day_0">
<ellipse fill="#efff05" stroke="black" cx="652.514" cy="-920.669" rx="32.4942" ry="18"/>
<text text-anchor="middle" x="652.514" y="-916.969" font-family="Times,serif" font-size="14.00">10240</text>
</a>
</g>
</g>
<!-- 10240&#45;&gt;32958 -->
<g id="edge40" class="edge"><title>10240&#45;&gt;32958</title>
<path fill="none" stroke="black" d="M637.156,-904.688C622.558,-889.499 600.728,-866.783 586.153,-851.617"/>
</g>
<!-- 3309 -->
<g id="node57" class="node"><title>3309</title>
<g id="a_node57"><a xlink:title="Day_0">
<ellipse fill="grey" stroke="black" cx="878.84" cy="-785.002" rx="28.6953" ry="18"/>
<text text-anchor="middle" x="878.84" y="-781.302" font-family="Times,serif" font-size="14.00">3309</text>
</a>
</g>
</g>
<!-- 11901&#45;&gt;3309 -->
<g id="edge24" class="edge"><title>11901&#45;&gt;3309</title>
<path fill="none" stroke="black" d="M832.091,-690.764C842.5,-711.747 859.861,-746.745 870.243,-767.673"/>
</g>
<!-- 19895 -->
<g id="node37" class="node"><title>19895</title>
<g id="a_node37"><a xlink:title="Day_0">
<ellipse fill="#efff05" stroke="black" cx="545.732" cy="-1104.19" rx="32.4942" ry="18"/>
<text text-anchor="middle" x="545.732" y="-1100.49" font-family="Times,serif" font-size="14.00">19895</text>
</a>
</g>
</g>
<!-- 14063&#45;&gt;19895 -->
<g id="edge28" class="edge"><title>14063&#45;&gt;19895</title>
<path fill="none" stroke="black" d="M504.964,-998.693C514.01,-1022.1 529.887,-1063.19 538.927,-1086.58"/>
</g>
<!-- 14063&#45;&gt;32958 -->
<g id="edge41" class="edge"><title>14063&#45;&gt;32958</title>
<path fill="none" stroke="black" d="M506.918,-963.52C520.894,-935.584 548.065,-881.277 562.061,-853.303"/>
</g>
<!-- 38704 -->
<g id="node51" class="node"><title>38704</title>
<g id="a_node51"><a xlink:title="Day_0">
<ellipse fill="#efff05" stroke="black" cx="391.368" cy="-1120.46" rx="32.4942" ry="18"/>
<text text-anchor="middle" x="391.368" y="-1116.76" font-family="Times,serif" font-size="14.00">38704</text>
</a>
</g>
</g>
<!-- 14063&#45;&gt;38704 -->
<g id="edge5" class="edge"><title>14063&#45;&gt;38704</title>
<path fill="none" stroke="black" d="M485.267,-997.868C464.743,-1024.66 424.846,-1076.75 404.294,-1103.59"/>
</g>
<!-- 18507 -->
<g id="node35" class="node"><title>18507</title>
<g id="a_node35"><a xlink:title="Day_0">
<ellipse fill="#efff05" stroke="black" cx="577.36" cy="-945.851" rx="32.4942" ry="18"/>
<text text-anchor="middle" x="577.36" y="-942.151" font-family="Times,serif" font-size="14.00">18507</text>
</a>
</g>
</g>
<!-- 18507&#45;&gt;32958 -->
<g id="edge15" class="edge"><title>18507&#45;&gt;32958</title>
<path fill="none" stroke="black" d="M576.287,-927.663C575.084,-907.255 573.142,-874.342 571.938,-853.923"/>
</g>
<!-- 20433&#45;&gt;32958 -->
<g id="edge47" class="edge"><title>20433&#45;&gt;32958</title>
<path fill="none" stroke="black" d="M664.365,-698.822C644.152,-728.414 602.821,-788.923 582.571,-818.569"/>
</g>
<!-- 29996 -->
<g id="node42" class="node"><title>29996</title>
<g id="a_node42"><a xlink:title="Day_0">
<ellipse fill="#efff05" stroke="black" cx="54.297" cy="-1599.26" rx="32.4942" ry="18"/>
<text text-anchor="middle" x="54.297" y="-1595.56" font-family="Times,serif" font-size="14.00">29996</text>
</a>
</g>
</g>
<!-- 27150&#45;&gt;29996 -->
<g id="edge50" class="edge"><title>27150&#45;&gt;29996</title>
<path fill="none" stroke="black" d="M141.227,-1533.19C122.019,-1547.79 92.8639,-1569.95 73.6988,-1584.52"/>
</g>
<!-- 37322 -->
<g id="node49" class="node"><title>37322</title>
<g id="a_node49"><a xlink:title="Day_0">
<ellipse fill="#efff05" stroke="black" cx="32.0286" cy="-1542.52" rx="32.4942" ry="18"/>
<text text-anchor="middle" x="32.0286" y="-1538.82" font-family="Times,serif" font-size="14.00">37322</text>
</a>
</g>
</g>
<!-- 27150&#45;&gt;37322 -->
<g id="edge27" class="edge"><title>27150&#45;&gt;37322</title>
<path fill="none" stroke="black" d="M129.92,-1524.14C109.689,-1527.94 83.3258,-1532.89 63.0557,-1536.69"/>
</g>
<!-- 13713 -->
<g id="node56" class="node"><title>13713</title>
<g id="a_node56"><a xlink:title="Day_0">
<ellipse fill="#efff05" stroke="black" cx="115.219" cy="-1647.64" rx="32.4942" ry="18"/>
<text text-anchor="middle" x="115.219" y="-1643.94" font-family="Times,serif" font-size="14.00">13713</text>
</a>
</g>
</g>
<!-- 27150&#45;&gt;13713 -->
<g id="edge48" class="edge"><title>27150&#45;&gt;13713</title>
<path fill="none" stroke="black" d="M154.517,-1536.06C145.846,-1560.68 130.234,-1605 121.525,-1629.73"/>
</g>
<!-- 4428 -->
<g id="node58" class="node"><title>4428</title>
<g id="a_node58"><a xlink:title="Day_0">
<ellipse fill="grey" stroke="black" cx="199.679" cy="-1637.46" rx="28.6953" ry="18"/>
<text text-anchor="middle" x="199.679" y="-1633.76" font-family="Times,serif" font-size="14.00">4428</text>
</a>
</g>
</g>
<!-- 27150&#45;&gt;4428 -->
<g id="edge2" class="edge"><title>27150&#45;&gt;4428</title>
<path fill="none" stroke="black" d="M166.58,-1536.19C173.919,-1558.64 186.454,-1597 193.811,-1619.51"/>
</g>
<!-- 34520 -->
<g id="node45" class="node"><title>34520</title>
<g id="a_node45"><a xlink:title="Day_0">
<ellipse fill="#ffffff" stroke="black" cx="455.465" cy="-787.495" rx="32.4942" ry="18"/>
<text text-anchor="middle" x="455.465" y="-783.795" font-family="Times,serif" font-size="14.00">34520</text>
</a>
</g>
</g>
<!-- 32958&#45;&gt;34520 -->
<g id="edge36" class="edge"><title>32958&#45;&gt;34520</title>
<path fill="none" stroke="black" d="M544.678,-824.768C525.792,-816.878 500.409,-806.272 481.547,-798.392"/>
</g>
<!-- 39947 -->
<g id="node53" class="node"><title>39947</title>
<g id="a_node53"><a xlink:title="Day_0">
<ellipse fill="#efff05" stroke="black" cx="275.329" cy="-1148.56" rx="32.4942" ry="18"/>
<text text-anchor="middle" x="275.329" y="-1144.86" font-family="Times,serif" font-size="14.00">39947</text>
</a>
</g>
</g>
<!-- 38704&#45;&gt;39947 -->
<g id="edge30" class="edge"><title>38704&#45;&gt;39947</title>
<path fill="none" stroke="black" d="M361.485,-1127.7C344.16,-1131.89 322.419,-1137.16 305.111,-1141.35"/>
</g>
<!-- 38704&#45;&gt;41454 -->
<g id="edge35" class="edge"><title>38704&#45;&gt;41454</title>
<path fill="none" stroke="black" d="M382.597,-1138.09C369.739,-1163.93 345.91,-1211.83 333.051,-1237.67"/>
</g>
</g>
</svg>
