<?xml version="1.0" encoding="UTF-8" standalone="no"?>
<!DOCTYPE svg PUBLIC "-//W3C//DTD SVG 1.1//EN"
 "http://www.w3.org/Graphics/SVG/1.1/DTD/svg11.dtd">
<!-- Generated by graphviz version 2.38.0 (20140413.2041)
 -->
<!-- Title: %3 Pages: 1 -->
<svg width="1880pt" height="1785pt"
 viewBox="0.00 0.00 1880.00 1785.00" xmlns="http://www.w3.org/2000/svg" xmlns:xlink="http://www.w3.org/1999/xlink">
<g id="graph0" class="graph" transform="scale(1 1) rotate(0) translate(4 1781)">
<title>%3</title>
<polygon fill="white" stroke="none" points="-4,4 -4,-1781 1876,-1781 1876,4 -4,4"/>
<!-- 368 -->
<g id="node1" class="node"><title>368</title>
<g id="a_node1"><a xlink:title="6th_week">
<ellipse fill="#20ff05" stroke="black" cx="730.447" cy="-681.303" rx="27" ry="18"/>
<text text-anchor="middle" x="730.447" y="-677.603" font-family="Times,serif" font-size="14.00">368</text>
</a>
</g>
</g>
<!-- 19889 -->
<g id="node45" class="node"><title>19889</title>
<g id="a_node45"><a xlink:title="6th_week">
<ellipse fill="#20ff05" stroke="black" cx="812.959" cy="-777.41" rx="32.4942" ry="18"/>
<text text-anchor="middle" x="812.959" y="-773.71" font-family="Times,serif" font-size="14.00">19889</text>
</a>
</g>
</g>
<!-- 368&#45;&gt;19889 -->
<g id="edge54" class="edge"><title>368&#45;&gt;19889</title>
<path fill="none" stroke="black" d="M744.072,-697.174C759.177,-714.767 783.428,-743.014 798.76,-760.872"/>
</g>
<!-- 525 -->
<g id="node2" class="node"><title>525</title>
<g id="a_node2"><a xlink:title="6th_week">
<ellipse fill="#20ff05" stroke="black" cx="650.567" cy="-856.926" rx="27" ry="18"/>
<text text-anchor="middle" x="650.567" y="-853.226" font-family="Times,serif" font-size="14.00">525</text>
</a>
</g>
</g>
<!-- 525&#45;&gt;19889 -->
<g id="edge19" class="edge"><title>525&#45;&gt;19889</title>
<path fill="none" stroke="black" d="M672.468,-846.202C702.682,-831.408 756.983,-804.819 788.495,-789.389"/>
</g>
<!-- 776 -->
<g id="node3" class="node"><title>776</title>
<g id="a_node3"><a xlink:title="6th_week">
<ellipse fill="grey" stroke="black" cx="1227.29" cy="-1031.18" rx="27" ry="18"/>
<text text-anchor="middle" x="1227.29" y="-1027.48" font-family="Times,serif" font-size="14.00">776</text>
</a>
</g>
</g>
<!-- 23015 -->
<g id="node53" class="node"><title>23015</title>
<g id="a_node53"><a xlink:title="6th_week">
<ellipse fill="#20ff05" stroke="black" cx="1057.9" cy="-928.13" rx="32.4942" ry="18"/>
<text text-anchor="middle" x="1057.9" y="-924.43" font-family="Times,serif" font-size="14.00">23015</text>
</a>
</g>
</g>
<!-- 776&#45;&gt;23015 -->
<g id="edge53" class="edge"><title>776&#45;&gt;23015</title>
<path fill="none" stroke="black" d="M1207.19,-1018.96C1175.21,-999.496 1112.95,-961.623 1079.85,-941.479"/>
</g>
<!-- 1139 -->
<g id="node4" class="node"><title>1139</title>
<g id="a_node4"><a xlink:title="6th_week">
<ellipse fill="#20ff05" stroke="black" cx="801.959" cy="-946.285" rx="28.6953" ry="18"/>
<text text-anchor="middle" x="801.959" y="-942.585" font-family="Times,serif" font-size="14.00">1139</text>
</a>
</g>
</g>
<!-- 1139&#45;&gt;19889 -->
<g id="edge8" class="edge"><title>1139&#45;&gt;19889</title>
<path fill="none" stroke="black" d="M803.136,-928.212C805.248,-895.794 809.656,-828.117 811.773,-795.608"/>
</g>
<!-- 1517 -->
<g id="node5" class="node"><title>1517</title>
<g id="a_node5"><a xlink:title="3rd_week">
<ellipse fill="#20ff05" stroke="black" cx="557.664" cy="-1525.67" rx="28.6953" ry="18"/>
<text text-anchor="middle" x="557.664" y="-1521.97" font-family="Times,serif" font-size="14.00">1517</text>
</a>
</g>
</g>
<!-- 9989 -->
<g id="node18" class="node"><title>9989</title>
<g id="a_node18"><a xlink:title="6th_week">
<ellipse fill="#20ff05" stroke="black" cx="682.111" cy="-1164.35" rx="28.6953" ry="18"/>
<text text-anchor="middle" x="682.111" y="-1160.65" font-family="Times,serif" font-size="14.00">9989</text>
</a>
</g>
</g>
<!-- 1517&#45;&gt;9989 -->
<g id="edge41" class="edge"><title>1517&#45;&gt;9989</title>
<path fill="none" stroke="black" d="M563.836,-1507.75C585.072,-1446.09 654.981,-1243.12 676.049,-1181.95"/>
</g>
<!-- 16228 -->
<g id="node36" class="node"><title>16228</title>
<g id="a_node36"><a xlink:title="3rd_week">
<ellipse fill="#20ff05" stroke="black" cx="363.195" cy="-1603.73" rx="32.4942" ry="18"/>
<text text-anchor="middle" x="363.195" y="-1600.03" font-family="Times,serif" font-size="14.00">16228</text>
</a>
</g>
</g>
<!-- 1517&#45;&gt;16228 -->
<g id="edge10" class="edge"><title>1517&#45;&gt;16228</title>
<path fill="none" stroke="black" d="M533.428,-1535.4C496.773,-1550.11 427.504,-1577.92 389.605,-1593.13"/>
</g>
<!-- 16297 -->
<g id="node37" class="node"><title>16297</title>
<g id="a_node37"><a xlink:title="3rd_week">
<ellipse fill="#20ff05" stroke="black" cx="637.942" cy="-1697.67" rx="32.4942" ry="18"/>
<text text-anchor="middle" x="637.942" y="-1693.97" font-family="Times,serif" font-size="14.00">16297</text>
</a>
</g>
</g>
<!-- 1517&#45;&gt;16297 -->
<g id="edge17" class="edge"><title>1517&#45;&gt;16297</title>
<path fill="none" stroke="black" d="M565.804,-1543.11C581.19,-1576.08 614.378,-1647.19 629.781,-1680.19"/>
</g>
<!-- 16311 -->
<g id="node38" class="node"><title>16311</title>
<g id="a_node38"><a xlink:title="3rd_week">
<ellipse fill="#20ff05" stroke="black" cx="570.681" cy="-1758.94" rx="32.4942" ry="18"/>
<text text-anchor="middle" x="570.681" y="-1755.24" font-family="Times,serif" font-size="14.00">16311</text>
</a>
</g>
</g>
<!-- 1517&#45;&gt;16311 -->
<g id="edge15" class="edge"><title>1517&#45;&gt;16311</title>
<path fill="none" stroke="black" d="M558.686,-1543.97C561.119,-1587.58 567.236,-1697.2 569.664,-1740.72"/>
</g>
<!-- 17695 -->
<g id="node42" class="node"><title>17695</title>
<g id="a_node42"><a xlink:title="3rd_week">
<ellipse fill="#20ff05" stroke="black" cx="420.793" cy="-1667.5" rx="32.4942" ry="18"/>
<text text-anchor="middle" x="420.793" y="-1663.8" font-family="Times,serif" font-size="14.00">17695</text>
</a>
</g>
</g>
<!-- 1517&#45;&gt;17695 -->
<g id="edge25" class="edge"><title>1517&#45;&gt;17695</title>
<path fill="none" stroke="black" d="M542.756,-1541.12C516.705,-1568.11 463.141,-1623.62 436.523,-1651.2"/>
</g>
<!-- 22836 -->
<g id="node52" class="node"><title>22836</title>
<g id="a_node52"><a xlink:title="3rd_week">
<ellipse fill="#20ff05" stroke="black" cx="560.984" cy="-1695.58" rx="32.4942" ry="18"/>
<text text-anchor="middle" x="560.984" y="-1691.88" font-family="Times,serif" font-size="14.00">22836</text>
</a>
</g>
</g>
<!-- 1517&#45;&gt;22836 -->
<g id="edge44" class="edge"><title>1517&#45;&gt;22836</title>
<path fill="none" stroke="black" d="M558.02,-1543.85C558.659,-1576.56 559.994,-1644.92 560.631,-1677.53"/>
</g>
<!-- 16242 -->
<g id="node58" class="node"><title>16242</title>
<g id="a_node58"><a xlink:title="3rd_week">
<ellipse fill="#20ff05" stroke="black" cx="469.413" cy="-1719.56" rx="32.4942" ry="18"/>
<text text-anchor="middle" x="469.413" y="-1715.86" font-family="Times,serif" font-size="14.00">16242</text>
</a>
</g>
</g>
<!-- 1517&#45;&gt;16242 -->
<g id="edge9" class="edge"><title>1517&#45;&gt;16242</title>
<path fill="none" stroke="black" d="M549.677,-1543.22C532.917,-1580.04 494.245,-1665 477.445,-1701.91"/>
</g>
<!-- 1550 -->
<g id="node6" class="node"><title>1550</title>
<g id="a_node6"><a xlink:title="6th_week">
<ellipse fill="#20ff05" stroke="black" cx="805.435" cy="-1014.14" rx="28.6953" ry="18"/>
<text text-anchor="middle" x="805.435" y="-1010.44" font-family="Times,serif" font-size="14.00">1550</text>
</a>
</g>
</g>
<!-- 1550&#45;&gt;19889 -->
<g id="edge46" class="edge"><title>1550&#45;&gt;19889</title>
<path fill="none" stroke="black" d="M806.013,-995.959C807.413,-951.894 810.976,-839.784 812.379,-795.655"/>
</g>
<!-- 2112 -->
<g id="node7" class="node"><title>2112</title>
<g id="a_node7"><a xlink:title="3rd_week">
<ellipse fill="grey" stroke="black" cx="197.985" cy="-254.42" rx="28.6953" ry="18"/>
<text text-anchor="middle" x="197.985" y="-250.72" font-family="Times,serif" font-size="14.00">2112</text>
</a>
</g>
</g>
<!-- 10423 -->
<g id="node19" class="node"><title>10423</title>
<g id="a_node19"><a xlink:title="3rd_week">
<ellipse fill="#20ff05" stroke="black" cx="359.602" cy="-410.945" rx="32.4942" ry="18"/>
<text text-anchor="middle" x="359.602" y="-407.245" font-family="Times,serif" font-size="14.00">10423</text>
</a>
</g>
</g>
<!-- 2112&#45;&gt;10423 -->
<g id="edge60" class="edge"><title>2112&#45;&gt;10423</title>
<path fill="none" stroke="black" d="M213.776,-269.713C244.435,-299.406 311.75,-364.6 343.024,-394.889"/>
</g>
<!-- 2873 -->
<g id="node8" class="node"><title>2873</title>
<g id="a_node8"><a xlink:title="6th_week">
<ellipse fill="grey" stroke="black" cx="941.707" cy="-875.693" rx="28.6953" ry="18"/>
<text text-anchor="middle" x="941.707" y="-871.993" font-family="Times,serif" font-size="14.00">2873</text>
</a>
</g>
</g>
<!-- 2873&#45;&gt;19889 -->
<g id="edge64" class="edge"><title>2873&#45;&gt;19889</title>
<path fill="none" stroke="black" d="M923.261,-861.611C899.064,-843.14 856.803,-810.879 832.212,-792.107"/>
</g>
<!-- 3340 -->
<g id="node9" class="node"><title>3340</title>
<g id="a_node9"><a xlink:title="6th_week">
<ellipse fill="#20ff05" stroke="black" cx="825.422" cy="-484.318" rx="28.6953" ry="18"/>
<text text-anchor="middle" x="825.422" y="-480.618" font-family="Times,serif" font-size="14.00">3340</text>
</a>
</g>
</g>
<!-- 3340&#45;&gt;19889 -->
<g id="edge51" class="edge"><title>3340&#45;&gt;19889</title>
<path fill="none" stroke="black" d="M824.642,-502.652C822.404,-555.287 815.976,-706.456 813.738,-759.083"/>
</g>
<!-- 21476 -->
<g id="node48" class="node"><title>21476</title>
<g id="a_node48"><a xlink:title="6th_week">
<ellipse fill="#20ff05" stroke="black" cx="839.766" cy="-210.969" rx="32.4942" ry="18"/>
<text text-anchor="middle" x="839.766" y="-207.269" font-family="Times,serif" font-size="14.00">21476</text>
</a>
</g>
</g>
<!-- 3340&#45;&gt;21476 -->
<g id="edge2" class="edge"><title>3340&#45;&gt;21476</title>
<path fill="none" stroke="black" d="M826.385,-465.958C828.998,-416.161 836.198,-278.952 838.807,-229.249"/>
</g>
<!-- 3810 -->
<g id="node10" class="node"><title>3810</title>
<g id="a_node10"><a xlink:title="6th_week">
<ellipse fill="#20ff05" stroke="black" cx="1396.11" cy="-618.99" rx="28.6953" ry="18"/>
<text text-anchor="middle" x="1396.11" y="-615.29" font-family="Times,serif" font-size="14.00">3810</text>
</a>
</g>
</g>
<!-- 20382 -->
<g id="node47" class="node"><title>20382</title>
<g id="a_node47"><a xlink:title="6th_week">
<ellipse fill="grey" stroke="black" cx="1234.31" cy="-663.793" rx="32.4942" ry="18"/>
<text text-anchor="middle" x="1234.31" y="-660.093" font-family="Times,serif" font-size="14.00">20382</text>
</a>
</g>
</g>
<!-- 3810&#45;&gt;20382 -->
<g id="edge57" class="edge"><title>3810&#45;&gt;20382</title>
<path fill="none" stroke="black" d="M1369.76,-626.288C1340.57,-634.372 1293.64,-647.366 1263.39,-655.74"/>
</g>
<!-- 4378 -->
<g id="node11" class="node"><title>4378</title>
<g id="a_node11"><a xlink:title="6th_week">
<ellipse fill="#20ff05" stroke="black" cx="622.274" cy="-1361.14" rx="28.6953" ry="18"/>
<text text-anchor="middle" x="622.274" y="-1357.44" font-family="Times,serif" font-size="14.00">4378</text>
</a>
</g>
</g>
<!-- 4378&#45;&gt;9989 -->
<g id="edge24" class="edge"><title>4378&#45;&gt;9989</title>
<path fill="none" stroke="black" d="M627.69,-1343.33C639.053,-1305.96 665.274,-1219.73 676.664,-1182.27"/>
</g>
<!-- 4813 -->
<g id="node12" class="node"><title>4813</title>
<g id="a_node12"><a xlink:title="6th_week">
<ellipse fill="#20ff05" stroke="black" cx="552.679" cy="-862.444" rx="28.6953" ry="18"/>
<text text-anchor="middle" x="552.679" y="-858.744" font-family="Times,serif" font-size="14.00">4813</text>
</a>
</g>
</g>
<!-- 4813&#45;&gt;19889 -->
<g id="edge26" class="edge"><title>4813&#45;&gt;19889</title>
<path fill="none" stroke="black" d="M578.11,-854.136C626.974,-838.172 733.654,-803.319 784.677,-786.65"/>
</g>
<!-- 24633 -->
<g id="node57" class="node"><title>24633</title>
<g id="a_node57"><a xlink:title="6th_week">
<ellipse fill="#20ff05" stroke="black" cx="359.584" cy="-922.776" rx="32.4942" ry="18"/>
<text text-anchor="middle" x="359.584" y="-919.076" font-family="Times,serif" font-size="14.00">24633</text>
</a>
</g>
</g>
<!-- 4813&#45;&gt;24633 -->
<g id="edge6" class="edge"><title>4813&#45;&gt;24633</title>
<path fill="none" stroke="black" d="M527.038,-870.456C491.029,-881.706 425.693,-902.12 388.163,-913.847"/>
</g>
<!-- 6238 -->
<g id="node13" class="node"><title>6238</title>
<g id="a_node13"><a xlink:title="6th_week">
<ellipse fill="#20ff05" stroke="black" cx="877.918" cy="-978.115" rx="28.6953" ry="18"/>
<text text-anchor="middle" x="877.918" y="-974.415" font-family="Times,serif" font-size="14.00">6238</text>
</a>
</g>
</g>
<!-- 6238&#45;&gt;19889 -->
<g id="edge61" class="edge"><title>6238&#45;&gt;19889</title>
<path fill="none" stroke="black" d="M872.153,-960.304C859.826,-922.217 831.026,-833.233 818.71,-795.181"/>
</g>
<!-- 6488 -->
<g id="node14" class="node"><title>6488</title>
<g id="a_node14"><a xlink:title="6th_week">
<ellipse fill="grey" stroke="black" cx="897.731" cy="-670.311" rx="28.6953" ry="18"/>
<text text-anchor="middle" x="897.731" y="-666.611" font-family="Times,serif" font-size="14.00">6488</text>
</a>
</g>
</g>
<!-- 6488&#45;&gt;19889 -->
<g id="edge50" class="edge"><title>6488&#45;&gt;19889</title>
<path fill="none" stroke="black" d="M884.856,-686.577C869.015,-706.59 842.257,-740.395 826.235,-760.637"/>
</g>
<!-- 7313 -->
<g id="node15" class="node"><title>7313</title>
<g id="a_node15"><a xlink:title="6th_week">
<ellipse fill="#20ff05" stroke="black" cx="963.123" cy="-1055.81" rx="28.6953" ry="18"/>
<text text-anchor="middle" x="963.123" y="-1052.11" font-family="Times,serif" font-size="14.00">7313</text>
</a>
</g>
</g>
<!-- 12338 -->
<g id="node26" class="node"><title>12338</title>
<g id="a_node26"><a xlink:title="6th_week">
<ellipse fill="#20ff05" stroke="black" cx="1097.06" cy="-1207.3" rx="32.4942" ry="18"/>
<text text-anchor="middle" x="1097.06" y="-1203.6" font-family="Times,serif" font-size="14.00">12338</text>
</a>
</g>
</g>
<!-- 7313&#45;&gt;12338 -->
<g id="edge18" class="edge"><title>7313&#45;&gt;12338</title>
<path fill="none" stroke="black" d="M977.204,-1071.74C1002.86,-1100.76 1056.95,-1161.94 1082.77,-1191.13"/>
</g>
<!-- 16193 -->
<g id="node35" class="node"><title>16193</title>
<g id="a_node35"><a xlink:title="6th_week">
<ellipse fill="grey" stroke="black" cx="1023.74" cy="-1246" rx="32.4942" ry="18"/>
<text text-anchor="middle" x="1023.74" y="-1242.3" font-family="Times,serif" font-size="14.00">16193</text>
</a>
</g>
</g>
<!-- 7313&#45;&gt;16193 -->
<g id="edge65" class="edge"><title>7313&#45;&gt;16193</title>
<path fill="none" stroke="black" d="M968.825,-1073.7C980.378,-1109.95 1006.43,-1191.69 1018,-1228.02"/>
</g>
<!-- 7313&#45;&gt;19889 -->
<g id="edge28" class="edge"><title>7313&#45;&gt;19889</title>
<path fill="none" stroke="black" d="M953.73,-1038.4C926.762,-988.4 849.312,-844.808 822.349,-794.819"/>
</g>
<!-- 7418 -->
<g id="node16" class="node"><title>7418</title>
<g id="a_node16"><a xlink:title="3rd_week">
<ellipse fill="#20ff05" stroke="black" cx="308.135" cy="-496.084" rx="28.6953" ry="18"/>
<text text-anchor="middle" x="308.135" y="-492.384" font-family="Times,serif" font-size="14.00">7418</text>
</a>
</g>
</g>
<!-- 11111 -->
<g id="node24" class="node"><title>11111</title>
<g id="a_node24"><a xlink:title="3rd_week">
<ellipse fill="#20ff05" stroke="black" cx="522.472" cy="-583.079" rx="32.4942" ry="18"/>
<text text-anchor="middle" x="522.472" y="-579.379" font-family="Times,serif" font-size="14.00">11111</text>
</a>
</g>
</g>
<!-- 7418&#45;&gt;11111 -->
<g id="edge30" class="edge"><title>7418&#45;&gt;11111</title>
<path fill="none" stroke="black" d="M332.305,-505.894C372.814,-522.335 454.086,-555.322 496.051,-572.355"/>
</g>
<!-- 18090 -->
<g id="node43" class="node"><title>18090</title>
<g id="a_node43"><a xlink:title="3rd_week">
<ellipse fill="#20ff05" stroke="black" cx="101.083" cy="-407.644" rx="32.4942" ry="18"/>
<text text-anchor="middle" x="101.083" y="-403.944" font-family="Times,serif" font-size="14.00">18090</text>
</a>
</g>
</g>
<!-- 7418&#45;&gt;18090 -->
<g id="edge31" class="edge"><title>7418&#45;&gt;18090</title>
<path fill="none" stroke="black" d="M284.383,-485.938C245.187,-469.196 167.28,-435.919 126.819,-418.637"/>
</g>
<!-- 8717 -->
<g id="node17" class="node"><title>8717</title>
<g id="a_node17"><a xlink:title="6th_week">
<ellipse fill="#20ff05" stroke="black" cx="849.063" cy="-17.9222" rx="28.6953" ry="18"/>
<text text-anchor="middle" x="849.063" y="-14.2222" font-family="Times,serif" font-size="14.00">8717</text>
</a>
</g>
</g>
<!-- 8717&#45;&gt;21476 -->
<g id="edge29" class="edge"><title>8717&#45;&gt;21476</title>
<path fill="none" stroke="black" d="M848.188,-36.0836C846.416,-72.8769 842.421,-155.845 840.645,-192.716"/>
</g>
<!-- 9989&#45;&gt;19889 -->
<g id="edge48" class="edge"><title>9989&#45;&gt;19889</title>
<path fill="none" stroke="black" d="M688.073,-1146.72C709.871,-1082.26 785.106,-859.776 806.961,-795.145"/>
</g>
<!-- 10423&#45;&gt;11111 -->
<g id="edge40" class="edge"><title>10423&#45;&gt;11111</title>
<path fill="none" stroke="black" d="M374.924,-427.139C405.966,-459.946 475.965,-533.926 507.072,-566.803"/>
</g>
<!-- 10575 -->
<g id="node20" class="node"><title>10575</title>
<g id="a_node20"><a xlink:title="6th_week">
<ellipse fill="#20ff05" stroke="black" cx="1011.11" cy="-774.627" rx="32.4942" ry="18"/>
<text text-anchor="middle" x="1011.11" y="-770.927" font-family="Times,serif" font-size="14.00">10575</text>
</a>
</g>
</g>
<!-- 10575&#45;&gt;19889 -->
<g id="edge36" class="edge"><title>10575&#45;&gt;19889</title>
<path fill="none" stroke="black" d="M978.393,-775.087C941.678,-775.602 882.464,-776.434 845.729,-776.95"/>
</g>
<!-- 10687 -->
<g id="node21" class="node"><title>10687</title>
<g id="a_node21"><a xlink:title="6th_week">
<ellipse fill="#20ff05" stroke="black" cx="735.352" cy="-600.497" rx="32.4942" ry="18"/>
<text text-anchor="middle" x="735.352" y="-596.797" font-family="Times,serif" font-size="14.00">10687</text>
</a>
</g>
</g>
<!-- 10687&#45;&gt;19889 -->
<g id="edge58" class="edge"><title>10687&#45;&gt;19889</title>
<path fill="none" stroke="black" d="M743.077,-618.107C757.953,-652.018 790.414,-726.017 805.265,-759.871"/>
</g>
<!-- 10809 -->
<g id="node22" class="node"><title>10809</title>
<g id="a_node22"><a xlink:title="6th_week">
<ellipse fill="#20ff05" stroke="black" cx="263.45" cy="-770.942" rx="32.4942" ry="18"/>
<text text-anchor="middle" x="263.45" y="-767.242" font-family="Times,serif" font-size="14.00">10809</text>
</a>
</g>
</g>
<!-- 13510 -->
<g id="node29" class="node"><title>13510</title>
<g id="a_node29"><a xlink:title="6th_week">
<ellipse fill="#20ff05" stroke="black" cx="32.3235" cy="-778.728" rx="32.4942" ry="18"/>
<text text-anchor="middle" x="32.3235" y="-775.028" font-family="Times,serif" font-size="14.00">13510</text>
</a>
</g>
</g>
<!-- 10809&#45;&gt;13510 -->
<g id="edge32" class="edge"><title>10809&#45;&gt;13510</title>
<path fill="none" stroke="black" d="M230.825,-772.041C186.776,-773.525 108.746,-776.153 64.7821,-777.634"/>
</g>
<!-- 15227 -->
<g id="node31" class="node"><title>15227</title>
<g id="a_node31"><a xlink:title="6th_week">
<ellipse fill="#20ff05" stroke="black" cx="504.964" cy="-770.24" rx="32.4942" ry="18"/>
<text text-anchor="middle" x="504.964" y="-766.54" font-family="Times,serif" font-size="14.00">15227</text>
</a>
</g>
</g>
<!-- 10809&#45;&gt;15227 -->
<g id="edge35" class="edge"><title>10809&#45;&gt;15227</title>
<path fill="none" stroke="black" d="M296.022,-770.847C342.116,-770.713 425.904,-770.469 472.137,-770.335"/>
</g>
<!-- 10836 -->
<g id="node23" class="node"><title>10836</title>
<g id="a_node23"><a xlink:title="6th_week">
<ellipse fill="#ffffff" stroke="black" cx="637.615" cy="-626.137" rx="32.4942" ry="18"/>
<text text-anchor="middle" x="637.615" y="-622.437" font-family="Times,serif" font-size="14.00">10836</text>
</a>
</g>
</g>
<!-- 10836&#45;&gt;19889 -->
<g id="edge5" class="edge"><title>10836&#45;&gt;19889</title>
<path fill="none" stroke="black" d="M655.393,-641.475C689.087,-670.543 761.866,-733.331 795.395,-762.257"/>
</g>
<!-- 11111&#45;&gt;19889 -->
<g id="edge12" class="edge"><title>11111&#45;&gt;19889</title>
<path fill="none" stroke="black" d="M543.363,-597.055C596.83,-632.823 738.18,-727.384 791.867,-763.3"/>
</g>
<!-- 12231 -->
<g id="node25" class="node"><title>12231</title>
<g id="a_node25"><a xlink:title="6th_week">
<ellipse fill="#20ff05" stroke="black" cx="434.1" cy="-1079.97" rx="32.4942" ry="18"/>
<text text-anchor="middle" x="434.1" y="-1076.27" font-family="Times,serif" font-size="14.00">12231</text>
</a>
</g>
</g>
<!-- 19335 -->
<g id="node44" class="node"><title>19335</title>
<g id="a_node44"><a xlink:title="6th_week">
<ellipse fill="#20ff05" stroke="black" cx="597.098" cy="-956.398" rx="32.4942" ry="18"/>
<text text-anchor="middle" x="597.098" y="-952.698" font-family="Times,serif" font-size="14.00">19335</text>
</a>
</g>
</g>
<!-- 12231&#45;&gt;19335 -->
<g id="edge63" class="edge"><title>12231&#45;&gt;19335</title>
<path fill="none" stroke="black" d="M453.438,-1065.31C484.809,-1041.53 546.431,-994.811 577.785,-971.04"/>
</g>
<!-- 12902 -->
<g id="node27" class="node"><title>12902</title>
<g id="a_node27"><a xlink:title="6th_week">
<ellipse fill="#20ff05" stroke="black" cx="888.106" cy="-606.688" rx="32.4942" ry="18"/>
<text text-anchor="middle" x="888.106" y="-602.988" font-family="Times,serif" font-size="14.00">12902</text>
</a>
</g>
</g>
<!-- 12902&#45;&gt;19889 -->
<g id="edge7" class="edge"><title>12902&#45;&gt;19889</title>
<path fill="none" stroke="black" d="M880.347,-624.315C865.909,-657.115 835.081,-727.152 820.675,-759.879"/>
</g>
<!-- 13123 -->
<g id="node28" class="node"><title>13123</title>
<g id="a_node28"><a xlink:title="6th_week">
<ellipse fill="grey" stroke="black" cx="512.106" cy="-63.7778" rx="32.4942" ry="18"/>
<text text-anchor="middle" x="512.106" y="-60.0778" font-family="Times,serif" font-size="14.00">13123</text>
</a>
</g>
</g>
<!-- 22635 -->
<g id="node51" class="node"><title>22635</title>
<g id="a_node51"><a xlink:title="6th_week">
<ellipse fill="#20ff05" stroke="black" cx="587.078" cy="-248.512" rx="32.4942" ry="18"/>
<text text-anchor="middle" x="587.078" y="-244.812" font-family="Times,serif" font-size="14.00">22635</text>
</a>
</g>
</g>
<!-- 13123&#45;&gt;22635 -->
<g id="edge33" class="edge"><title>13123&#45;&gt;22635</title>
<path fill="none" stroke="black" d="M519.295,-81.4908C533.625,-116.801 565.599,-195.586 579.911,-230.852"/>
</g>
<!-- 13618 -->
<g id="node30" class="node"><title>13618</title>
<g id="a_node30"><a xlink:title="6th_week">
<ellipse fill="#20ff05" stroke="black" cx="943.597" cy="-542.484" rx="32.4942" ry="18"/>
<text text-anchor="middle" x="943.597" y="-538.784" font-family="Times,serif" font-size="14.00">13618</text>
</a>
</g>
</g>
<!-- 15661 -->
<g id="node32" class="node"><title>15661</title>
<g id="a_node32"><a xlink:title="6th_week">
<ellipse fill="grey" stroke="black" cx="1046.74" cy="-331.737" rx="32.4942" ry="18"/>
<text text-anchor="middle" x="1046.74" y="-328.037" font-family="Times,serif" font-size="14.00">15661</text>
</a>
</g>
</g>
<!-- 13618&#45;&gt;15661 -->
<g id="edge37" class="edge"><title>13618&#45;&gt;15661</title>
<path fill="none" stroke="black" d="M952.214,-524.878C971.678,-485.109 1018.85,-388.724 1038.22,-349.144"/>
</g>
<!-- 13618&#45;&gt;19889 -->
<g id="edge42" class="edge"><title>13618&#45;&gt;19889</title>
<path fill="none" stroke="black" d="M933.991,-559.759C909.832,-603.204 846.753,-716.638 822.579,-760.11"/>
</g>
<!-- 15227&#45;&gt;19889 -->
<g id="edge13" class="edge"><title>15227&#45;&gt;19889</title>
<path fill="none" stroke="black" d="M537.633,-771C596.773,-772.377 720.927,-775.268 780.161,-776.647"/>
</g>
<!-- 16008 -->
<g id="node33" class="node"><title>16008</title>
<g id="a_node33"><a xlink:title="6th_week">
<ellipse fill="#20ff05" stroke="black" cx="1013.24" cy="-836.346" rx="32.4942" ry="18"/>
<text text-anchor="middle" x="1013.24" y="-832.646" font-family="Times,serif" font-size="14.00">16008</text>
</a>
</g>
</g>
<!-- 16008&#45;&gt;19889 -->
<g id="edge22" class="edge"><title>16008&#45;&gt;19889</title>
<path fill="none" stroke="black" d="M984.114,-827.776C946.034,-816.571 879.727,-797.058 841.791,-785.895"/>
</g>
<!-- 16101 -->
<g id="node34" class="node"><title>16101</title>
<g id="a_node34"><a xlink:title="6th_week">
<ellipse fill="grey" stroke="black" cx="1000.65" cy="-717.678" rx="32.4942" ry="18"/>
<text text-anchor="middle" x="1000.65" y="-713.978" font-family="Times,serif" font-size="14.00">16101</text>
</a>
</g>
</g>
<!-- 16101&#45;&gt;19889 -->
<g id="edge49" class="edge"><title>16101&#45;&gt;19889</title>
<path fill="none" stroke="black" d="M972.148,-726.75C936.767,-738.01 876.788,-757.097 841.426,-768.351"/>
</g>
<!-- 16380 -->
<g id="node39" class="node"><title>16380</title>
<g id="a_node39"><a xlink:title="6th_week">
<ellipse fill="#20ff05" stroke="black" cx="615.46" cy="-779.745" rx="32.4942" ry="18"/>
<text text-anchor="middle" x="615.46" y="-776.045" font-family="Times,serif" font-size="14.00">16380</text>
</a>
</g>
</g>
<!-- 16380&#45;&gt;19889 -->
<g id="edge66" class="edge"><title>16380&#45;&gt;19889</title>
<path fill="none" stroke="black" d="M648.073,-779.359C684.666,-778.927 743.684,-778.229 780.297,-777.796"/>
</g>
<!-- 16763 -->
<g id="node40" class="node"><title>16763</title>
<g id="a_node40"><a xlink:title="6th_week">
<ellipse fill="#ffffff" stroke="black" cx="725.703" cy="-989.102" rx="32.4942" ry="18"/>
<text text-anchor="middle" x="725.703" y="-985.402" font-family="Times,serif" font-size="14.00">16763</text>
</a>
</g>
</g>
<!-- 16763&#45;&gt;19889 -->
<g id="edge67" class="edge"><title>16763&#45;&gt;19889</title>
<path fill="none" stroke="black" d="M732.992,-971.417C749.417,-931.569 789.166,-835.134 805.629,-795.193"/>
</g>
<!-- 17313 -->
<g id="node41" class="node"><title>17313</title>
<g id="a_node41"><a xlink:title="6th_week">
<ellipse fill="#20ff05" stroke="black" cx="1600.51" cy="-556.091" rx="32.4942" ry="18"/>
<text text-anchor="middle" x="1600.51" y="-552.391" font-family="Times,serif" font-size="14.00">17313</text>
</a>
</g>
</g>
<!-- 17313&#45;&gt;20382 -->
<g id="edge38" class="edge"><title>17313&#45;&gt;20382</title>
<path fill="none" stroke="black" d="M1571.77,-564.543C1503.4,-584.651 1331.66,-635.163 1263.17,-655.306"/>
</g>
<!-- 14539 -->
<g id="node59" class="node"><title>14539</title>
<g id="a_node59"><a xlink:title="6th_week">
<ellipse fill="#20ff05" stroke="black" cx="1734.43" cy="-483.526" rx="32.4942" ry="18"/>
<text text-anchor="middle" x="1734.43" y="-479.826" font-family="Times,serif" font-size="14.00">14539</text>
</a>
</g>
</g>
<!-- 17313&#45;&gt;14539 -->
<g id="edge21" class="edge"><title>17313&#45;&gt;14539</title>
<path fill="none" stroke="black" d="M1623.83,-543.452C1648.27,-530.214 1686.42,-509.539 1710.92,-496.265"/>
</g>
<!-- 915 -->
<g id="node60" class="node"><title>915</title>
<g id="a_node60"><a xlink:title="6th_week">
<ellipse fill="#20ff05" stroke="black" cx="1736.05" cy="-409.666" rx="27" ry="18"/>
<text text-anchor="middle" x="1736.05" y="-405.966" font-family="Times,serif" font-size="14.00">915</text>
</a>
</g>
</g>
<!-- 17313&#45;&gt;915 -->
<g id="edge43" class="edge"><title>17313&#45;&gt;915</title>
<path fill="none" stroke="black" d="M1615.53,-539.862C1641.86,-511.418 1695.99,-452.943 1721.78,-425.083"/>
</g>
<!-- 3086 -->
<g id="node61" class="node"><title>3086</title>
<g id="a_node61"><a xlink:title="6th_week">
<ellipse fill="#20ff05" stroke="black" cx="1744.74" cy="-652.223" rx="28.6953" ry="18"/>
<text text-anchor="middle" x="1744.74" y="-648.523" font-family="Times,serif" font-size="14.00">3086</text>
</a>
</g>
</g>
<!-- 17313&#45;&gt;3086 -->
<g id="edge55" class="edge"><title>17313&#45;&gt;3086</title>
<path fill="none" stroke="black" d="M1621.48,-570.07C1649.14,-588.504 1697.48,-620.72 1724.68,-638.848"/>
</g>
<!-- 3168 -->
<g id="node62" class="node"><title>3168</title>
<g id="a_node62"><a xlink:title="6th_week">
<ellipse fill="grey" stroke="black" cx="1772.27" cy="-704.874" rx="28.6953" ry="18"/>
<text text-anchor="middle" x="1772.27" y="-701.174" font-family="Times,serif" font-size="14.00">3168</text>
</a>
</g>
</g>
<!-- 17313&#45;&gt;3168 -->
<g id="edge4" class="edge"><title>17313&#45;&gt;3168</title>
<path fill="none" stroke="black" d="M1618.24,-571.453C1651.5,-600.261 1722.81,-662.028 1755.4,-690.256"/>
</g>
<!-- 8282 -->
<g id="node63" class="node"><title>8282</title>
<g id="a_node63"><a xlink:title="6th_week">
<ellipse fill="#20ff05" stroke="black" cx="1647.67" cy="-356.971" rx="28.6953" ry="18"/>
<text text-anchor="middle" x="1647.67" y="-353.271" font-family="Times,serif" font-size="14.00">8282</text>
</a>
</g>
</g>
<!-- 17313&#45;&gt;8282 -->
<g id="edge39" class="edge"><title>17313&#45;&gt;8282</title>
<path fill="none" stroke="black" d="M1604.77,-538.07C1613.75,-500.159 1634.5,-412.557 1643.45,-374.809"/>
</g>
<!-- 10642 -->
<g id="node64" class="node"><title>10642</title>
<g id="a_node64"><a xlink:title="6th_week">
<ellipse fill="#20ff05" stroke="black" cx="1735.3" cy="-353.481" rx="32.4942" ry="18"/>
<text text-anchor="middle" x="1735.3" y="-349.781" font-family="Times,serif" font-size="14.00">10642</text>
</a>
</g>
</g>
<!-- 17313&#45;&gt;10642 -->
<g id="edge47" class="edge"><title>17313&#45;&gt;10642</title>
<path fill="none" stroke="black" d="M1611.77,-539.165C1637.14,-501.027 1698.55,-408.729 1723.98,-370.501"/>
</g>
<!-- 11684 -->
<g id="node65" class="node"><title>11684</title>
<g id="a_node65"><a xlink:title="6th_week">
<ellipse fill="#20ff05" stroke="black" cx="1821.18" cy="-628.494" rx="32.4942" ry="18"/>
<text text-anchor="middle" x="1821.18" y="-624.794" font-family="Times,serif" font-size="14.00">11684</text>
</a>
</g>
</g>
<!-- 17313&#45;&gt;11684 -->
<g id="edge34" class="edge"><title>17313&#45;&gt;11684</title>
<path fill="none" stroke="black" d="M1628.9,-565.409C1671.28,-579.311 1750.58,-605.331 1792.89,-619.212"/>
</g>
<!-- 14492 -->
<g id="node66" class="node"><title>14492</title>
<g id="a_node66"><a xlink:title="6th_week">
<ellipse fill="grey" stroke="black" cx="1839.44" cy="-567.676" rx="32.4942" ry="18"/>
<text text-anchor="middle" x="1839.44" y="-563.976" font-family="Times,serif" font-size="14.00">14492</text>
</a>
</g>
</g>
<!-- 17313&#45;&gt;14492 -->
<g id="edge56" class="edge"><title>17313&#45;&gt;14492</title>
<path fill="none" stroke="black" d="M1633.23,-557.678C1678.85,-559.89 1761.11,-563.878 1806.73,-566.09"/>
</g>
<!-- 15569 -->
<g id="node67" class="node"><title>15569</title>
<g id="a_node67"><a xlink:title="6th_week">
<ellipse fill="#20ff05" stroke="black" cx="1810.94" cy="-434.423" rx="32.4942" ry="18"/>
<text text-anchor="middle" x="1810.94" y="-430.723" font-family="Times,serif" font-size="14.00">15569</text>
</a>
</g>
</g>
<!-- 17313&#45;&gt;15569 -->
<g id="edge45" class="edge"><title>17313&#45;&gt;15569</title>
<path fill="none" stroke="black" d="M1623.03,-543.071C1663.42,-519.714 1747.75,-470.956 1788.26,-447.534"/>
</g>
<!-- 15869 -->
<g id="node68" class="node"><title>15869</title>
<g id="a_node68"><a xlink:title="6th_week">
<ellipse fill="grey" stroke="black" cx="1836.66" cy="-511.66" rx="32.4942" ry="18"/>
<text text-anchor="middle" x="1836.66" y="-507.96" font-family="Times,serif" font-size="14.00">15869</text>
</a>
</g>
</g>
<!-- 17313&#45;&gt;15869 -->
<g id="edge52" class="edge"><title>17313&#45;&gt;15869</title>
<path fill="none" stroke="black" d="M1631.38,-550.283C1676.64,-541.768 1760.51,-525.986 1805.78,-517.47"/>
</g>
<!-- 19335&#45;&gt;19889 -->
<g id="edge11" class="edge"><title>19335&#45;&gt;19889</title>
<path fill="none" stroke="black" d="M615.502,-941.138C656.386,-907.237 754.35,-826.007 794.906,-792.379"/>
</g>
<!-- 20221 -->
<g id="node46" class="node"><title>20221</title>
<g id="a_node46"><a xlink:title="6th_week">
<ellipse fill="#20ff05" stroke="black" cx="810.699" cy="-592.962" rx="32.4942" ry="18"/>
<text text-anchor="middle" x="810.699" y="-589.262" font-family="Times,serif" font-size="14.00">20221</text>
</a>
</g>
</g>
<!-- 19889&#45;&gt;20221 -->
<g id="edge20" class="edge"><title>19889&#45;&gt;20221</title>
<path fill="none" stroke="black" d="M812.738,-759.389C812.306,-724.126 811.354,-646.377 810.921,-611.056"/>
</g>
<!-- 19889&#45;&gt;20382 -->
<g id="edge23" class="edge"><title>19889&#45;&gt;20382</title>
<path fill="none" stroke="black" d="M842.253,-769.511C919.424,-748.702 1127.67,-692.55 1204.93,-671.715"/>
</g>
<!-- 21532 -->
<g id="node49" class="node"><title>21532</title>
<g id="a_node49"><a xlink:title="6th_week">
<ellipse fill="#20ff05" stroke="black" cx="621.281" cy="-707.794" rx="32.4942" ry="18"/>
<text text-anchor="middle" x="621.281" y="-704.094" font-family="Times,serif" font-size="14.00">21532</text>
</a>
</g>
</g>
<!-- 19889&#45;&gt;21532 -->
<g id="edge3" class="edge"><title>19889&#45;&gt;21532</title>
<path fill="none" stroke="black" d="M785.496,-767.436C749.058,-754.202 685.105,-730.974 648.693,-717.749"/>
</g>
<!-- 22500 -->
<g id="node50" class="node"><title>22500</title>
<g id="a_node50"><a xlink:title="6th_week">
<ellipse fill="#20ff05" stroke="black" cx="953.366" cy="-946.234" rx="32.4942" ry="18"/>
<text text-anchor="middle" x="953.366" y="-942.534" font-family="Times,serif" font-size="14.00">22500</text>
</a>
</g>
</g>
<!-- 19889&#45;&gt;22500 -->
<g id="edge14" class="edge"><title>19889&#45;&gt;22500</title>
<path fill="none" stroke="black" d="M826.677,-793.905C853.451,-826.097 912.401,-896.977 939.384,-929.422"/>
</g>
<!-- 19889&#45;&gt;23015 -->
<g id="edge27" class="edge"><title>19889&#45;&gt;23015</title>
<path fill="none" stroke="black" d="M835.128,-791.051C881.763,-819.747 989.525,-886.055 1035.96,-914.628"/>
</g>
<!-- 23903 -->
<g id="node54" class="node"><title>23903</title>
<g id="a_node54"><a xlink:title="6th_week">
<ellipse fill="#20ff05" stroke="black" cx="973.721" cy="-659.696" rx="32.4942" ry="18"/>
<text text-anchor="middle" x="973.721" y="-655.996" font-family="Times,serif" font-size="14.00">23903</text>
</a>
</g>
</g>
<!-- 19889&#45;&gt;23903 -->
<g id="edge16" class="edge"><title>19889&#45;&gt;23903</title>
<path fill="none" stroke="black" d="M832.671,-762.976C863.526,-740.384 922.893,-696.913 953.847,-674.248"/>
</g>
<!-- 23992 -->
<g id="node55" class="node"><title>23992</title>
<g id="a_node55"><a xlink:title="6th_week">
<ellipse fill="#20ff05" stroke="black" cx="679.114" cy="-935.901" rx="32.4942" ry="18"/>
<text text-anchor="middle" x="679.114" y="-932.201" font-family="Times,serif" font-size="14.00">23992</text>
</a>
</g>
</g>
<!-- 19889&#45;&gt;23992 -->
<g id="edge1" class="edge"><title>19889&#45;&gt;23992</title>
<path fill="none" stroke="black" d="M799.139,-793.775C773.491,-824.145 718.801,-888.906 693.059,-919.389"/>
</g>
<!-- 24272 -->
<g id="node56" class="node"><title>24272</title>
<g id="a_node56"><a xlink:title="6th_week">
<ellipse fill="#20ff05" stroke="black" cx="691.994" cy="-510.573" rx="32.4942" ry="18"/>
<text text-anchor="middle" x="691.994" y="-506.873" font-family="Times,serif" font-size="14.00">24272</text>
</a>
</g>
</g>
<!-- 19889&#45;&gt;24272 -->
<g id="edge59" class="edge"><title>19889&#45;&gt;24272</title>
<path fill="none" stroke="black" d="M805.022,-759.902C783.104,-711.553 721.913,-576.572 699.96,-528.145"/>
</g>
<!-- 22635&#45;&gt;24272 -->
<g id="edge62" class="edge"><title>22635&#45;&gt;24272</title>
<path fill="none" stroke="black" d="M594.125,-266.113C613.192,-313.739 665.648,-444.766 684.84,-492.703"/>
</g>
</g>
</svg>
