<?xml version="1.0" encoding="UTF-8" standalone="no"?>
<!DOCTYPE svg PUBLIC "-//W3C//DTD SVG 1.1//EN"
 "http://www.w3.org/Graphics/SVG/1.1/DTD/svg11.dtd">
<!-- Generated by graphviz version 2.38.0 (20140413.2041)
 -->
<!-- Title: %3 Pages: 1 -->
<svg width="1024pt" height="2441pt"
 viewBox="0.00 0.00 1024.00 2441.00" xmlns="http://www.w3.org/2000/svg" xmlns:xlink="http://www.w3.org/1999/xlink">
<g id="graph0" class="graph" transform="scale(1 1) rotate(0) translate(4 2437)">
<title>%3</title>
<polygon fill="white" stroke="none" points="-4,4 -4,-2437 1020,-2437 1020,4 -4,4"/>
<!-- 2 -->
<g id="node1" class="node"><title>2</title>
<g id="a_node1"><a xlink:title="Day_0">
<ellipse fill="#20ff05" stroke="black" cx="191.166" cy="-199.451" rx="27" ry="18"/>
<text text-anchor="middle" x="191.166" y="-195.751" font-family="Times,serif" font-size="14.00">2</text>
</a>
</g>
</g>
<!-- 15937 -->
<g id="node28" class="node"><title>15937</title>
<g id="a_node28"><a xlink:title="Day_0">
<ellipse fill="#20ff05" stroke="black" cx="275.22" cy="-368.18" rx="32.4942" ry="18"/>
<text text-anchor="middle" x="275.22" y="-364.48" font-family="Times,serif" font-size="14.00">15937</text>
</a>
</g>
</g>
<!-- 2&#45;&gt;15937 -->
<g id="edge33" class="edge"><title>2&#45;&gt;15937</title>
<path fill="none" stroke="black" d="M199.688,-216.558C215.757,-248.814 250.368,-318.292 266.55,-350.775"/>
</g>
<!-- 43 -->
<g id="node2" class="node"><title>43</title>
<g id="a_node2"><a xlink:title="3rd_week">
<ellipse fill="#20ff05" stroke="black" cx="462.66" cy="-951.359" rx="27" ry="18"/>
<text text-anchor="middle" x="462.66" y="-947.659" font-family="Times,serif" font-size="14.00">43</text>
</a>
</g>
</g>
<!-- 3104 -->
<g id="node7" class="node"><title>3104</title>
<g id="a_node7"><a xlink:title="3rd_week">
<ellipse fill="#20ff05" stroke="black" cx="443.484" cy="-806.134" rx="28.6953" ry="18"/>
<text text-anchor="middle" x="443.484" y="-802.434" font-family="Times,serif" font-size="14.00">3104</text>
</a>
</g>
</g>
<!-- 43&#45;&gt;3104 -->
<g id="edge34" class="edge"><title>43&#45;&gt;3104</title>
<path fill="none" stroke="black" d="M460.27,-933.26C456.596,-905.431 449.597,-852.427 445.904,-824.461"/>
</g>
<!-- 4765 -->
<g id="node11" class="node"><title>4765</title>
<g id="a_node11"><a xlink:title="3rd_week">
<ellipse fill="#20ff05" stroke="black" cx="335.224" cy="-862.252" rx="28.6953" ry="18"/>
<text text-anchor="middle" x="335.224" y="-858.552" font-family="Times,serif" font-size="14.00">4765</text>
</a>
</g>
</g>
<!-- 43&#45;&gt;4765 -->
<g id="edge47" class="edge"><title>43&#45;&gt;4765</title>
<path fill="none" stroke="black" d="M443.857,-938.211C419.901,-921.461 378.712,-892.661 354.522,-875.746"/>
</g>
<!-- 5335 -->
<g id="node12" class="node"><title>5335</title>
<g id="a_node12"><a xlink:title="3rd_week">
<ellipse fill="#20ff05" stroke="black" cx="567.198" cy="-836.021" rx="28.6953" ry="18"/>
<text text-anchor="middle" x="567.198" y="-832.321" font-family="Times,serif" font-size="14.00">5335</text>
</a>
</g>
</g>
<!-- 43&#45;&gt;5335 -->
<g id="edge43" class="edge"><title>43&#45;&gt;5335</title>
<path fill="none" stroke="black" d="M476.759,-935.804C496.71,-913.791 532.977,-873.777 552.989,-851.698"/>
</g>
<!-- 13379 -->
<g id="node23" class="node"><title>13379</title>
<g id="a_node23"><a xlink:title="3rd_week">
<ellipse fill="#20ff05" stroke="black" cx="307.476" cy="-947.29" rx="32.4942" ry="18"/>
<text text-anchor="middle" x="307.476" y="-943.59" font-family="Times,serif" font-size="14.00">13379</text>
</a>
</g>
</g>
<!-- 43&#45;&gt;13379 -->
<g id="edge32" class="edge"><title>43&#45;&gt;13379</title>
<path fill="none" stroke="black" d="M435.629,-950.65C409.057,-949.953 368.471,-948.889 340.114,-948.146"/>
</g>
<!-- 13737 -->
<g id="node24" class="node"><title>13737</title>
<g id="a_node24"><a xlink:title="Day_0,PRE">
<ellipse fill="#20ff05" stroke="black" cx="424.423" cy="-543.933" rx="32.4945" ry="18"/>
<ellipse fill="none" stroke="black" cx="424.423" cy="-543.933" rx="36.4942" ry="22"/>
<text text-anchor="middle" x="424.423" y="-540.233" font-family="Times,serif" font-size="14.00">13737</text>
</a>
</g>
</g>
<!-- 43&#45;&gt;13737 -->
<g id="edge53" class="edge"><title>43&#45;&gt;13737</title>
<path fill="none" stroke="black" d="M460.968,-933.327C454.767,-867.26 433.301,-638.528 426.504,-566.105"/>
</g>
<!-- 15535 -->
<g id="node25" class="node"><title>15535</title>
<g id="a_node25"><a xlink:title="3rd_week">
<ellipse fill="#20ff05" stroke="black" cx="614.557" cy="-914.196" rx="32.4942" ry="18"/>
<text text-anchor="middle" x="614.557" y="-910.496" font-family="Times,serif" font-size="14.00">15535</text>
</a>
</g>
</g>
<!-- 43&#45;&gt;15535 -->
<g id="edge39" class="edge"><title>43&#45;&gt;15535</title>
<path fill="none" stroke="black" d="M488.084,-945.139C514.688,-938.63 556.428,-928.418 584.61,-921.523"/>
</g>
<!-- 15842 -->
<g id="node26" class="node"><title>15842</title>
<g id="a_node26"><a xlink:title="Day_0">
<ellipse fill="#20ff05" stroke="black" cx="501.606" cy="-1327.25" rx="32.4942" ry="18"/>
<text text-anchor="middle" x="501.606" y="-1323.55" font-family="Times,serif" font-size="14.00">15842</text>
</a>
</g>
</g>
<!-- 43&#45;&gt;15842 -->
<g id="edge5" class="edge"><title>43&#45;&gt;15842</title>
<path fill="none" stroke="black" d="M464.539,-969.489C471.118,-1032.99 493.08,-1244.96 499.701,-1308.86"/>
</g>
<!-- 1039 -->
<g id="node3" class="node"><title>1039</title>
<g id="a_node3"><a xlink:title="Day_0">
<ellipse fill="#20ff05" stroke="black" cx="465.698" cy="-17.5293" rx="28.6953" ry="18"/>
<text text-anchor="middle" x="465.698" y="-13.8293" font-family="Times,serif" font-size="14.00">1039</text>
</a>
</g>
</g>
<!-- 1151 -->
<g id="node4" class="node"><title>1151</title>
<g id="a_node4"><a xlink:title="Day_0">
<ellipse fill="#20ff05" stroke="black" cx="448.799" cy="-228.348" rx="28.6953" ry="18"/>
<text text-anchor="middle" x="448.799" y="-224.648" font-family="Times,serif" font-size="14.00">1151</text>
</a>
</g>
</g>
<!-- 1039&#45;&gt;1151 -->
<g id="edge58" class="edge"><title>1039&#45;&gt;1151</title>
<path fill="none" stroke="black" d="M464.228,-35.8693C461.024,-75.8403 453.443,-170.406 450.254,-210.201"/>
</g>
<!-- 3932 -->
<g id="node9" class="node"><title>3932</title>
<g id="a_node9"><a xlink:title="Day_0">
<ellipse fill="#20ff05" stroke="black" cx="464.944" cy="-66.8105" rx="28.6953" ry="18"/>
<text text-anchor="middle" x="464.944" y="-63.1105" font-family="Times,serif" font-size="14.00">3932</text>
</a>
</g>
</g>
<!-- 1151&#45;&gt;3932 -->
<g id="edge56" class="edge"><title>1151&#45;&gt;3932</title>
<path fill="none" stroke="black" d="M450.62,-210.132C453.72,-179.107 459.992,-116.356 463.105,-85.2082"/>
</g>
<!-- 4695 -->
<g id="node10" class="node"><title>4695</title>
<g id="a_node10"><a xlink:title="Day_0">
<ellipse fill="#20ff05" stroke="black" cx="583.433" cy="-102.247" rx="28.6953" ry="18"/>
<text text-anchor="middle" x="583.433" y="-98.5465" font-family="Times,serif" font-size="14.00">4695</text>
</a>
</g>
</g>
<!-- 1151&#45;&gt;4695 -->
<g id="edge63" class="edge"><title>1151&#45;&gt;4695</title>
<path fill="none" stroke="black" d="M464.772,-213.388C490.684,-189.118 541.583,-141.445 567.481,-117.188"/>
</g>
<!-- 6202 -->
<g id="node14" class="node"><title>6202</title>
<g id="a_node14"><a xlink:title="Day_0">
<ellipse fill="grey" stroke="black" cx="398.563" cy="-33.4904" rx="28.6953" ry="18"/>
<text text-anchor="middle" x="398.563" y="-29.7904" font-family="Times,serif" font-size="14.00">6202</text>
</a>
</g>
</g>
<!-- 1151&#45;&gt;6202 -->
<g id="edge38" class="edge"><title>1151&#45;&gt;6202</title>
<path fill="none" stroke="black" d="M444.163,-210.366C434.593,-173.245 412.749,-88.5135 403.188,-51.4294"/>
</g>
<!-- 6904 -->
<g id="node15" class="node"><title>6904</title>
<g id="a_node15"><a xlink:title="Day_0">
<ellipse fill="#ffffff" stroke="black" cx="539.023" cy="-50.7506" rx="28.6953" ry="18"/>
<text text-anchor="middle" x="539.023" y="-47.0506" font-family="Times,serif" font-size="14.00">6904</text>
</a>
</g>
</g>
<!-- 1151&#45;&gt;6904 -->
<g id="edge29" class="edge"><title>1151&#45;&gt;6904</title>
<path fill="none" stroke="black" d="M457.614,-210.996C474.907,-176.956 513.09,-101.797 530.304,-67.9117"/>
</g>
<!-- 13141 -->
<g id="node22" class="node"><title>13141</title>
<g id="a_node22"><a xlink:title="Day_0">
<ellipse fill="#20ff05" stroke="black" cx="331.363" cy="-93.1061" rx="32.4942" ry="18"/>
<text text-anchor="middle" x="331.363" y="-89.4061" font-family="Times,serif" font-size="14.00">13141</text>
</a>
</g>
</g>
<!-- 1151&#45;&gt;13141 -->
<g id="edge17" class="edge"><title>1151&#45;&gt;13141</title>
<path fill="none" stroke="black" d="M434.866,-212.303C412.386,-186.415 368.344,-135.695 345.644,-109.552"/>
</g>
<!-- 1151&#45;&gt;13737 -->
<g id="edge9" class="edge"><title>1151&#45;&gt;13737</title>
<path fill="none" stroke="black" d="M447.383,-246.68C443.166,-301.273 430.701,-462.656 426.129,-521.846"/>
</g>
<!-- 1718 -->
<g id="node5" class="node"><title>1718</title>
<g id="a_node5"><a xlink:title="Day_0">
<ellipse fill="#20ff05" stroke="black" cx="627.447" cy="-411.259" rx="28.6953" ry="18"/>
<text text-anchor="middle" x="627.447" y="-407.559" font-family="Times,serif" font-size="14.00">1718</text>
</a>
</g>
</g>
<!-- 8182 -->
<g id="node17" class="node"><title>8182</title>
<g id="a_node17"><a xlink:title="Day_0">
<ellipse fill="#20ff05" stroke="black" cx="706.803" cy="-257.036" rx="28.6953" ry="18"/>
<text text-anchor="middle" x="706.803" y="-253.336" font-family="Times,serif" font-size="14.00">8182</text>
</a>
</g>
</g>
<!-- 1718&#45;&gt;8182 -->
<g id="edge37" class="edge"><title>1718&#45;&gt;8182</title>
<path fill="none" stroke="black" d="M636.396,-393.868C651.637,-364.248 682.464,-304.338 697.765,-274.601"/>
</g>
<!-- 9383 -->
<g id="node18" class="node"><title>9383</title>
<g id="a_node18"><a xlink:title="Day_0">
<ellipse fill="#20ff05" stroke="black" cx="803.596" cy="-374.716" rx="28.6953" ry="18"/>
<text text-anchor="middle" x="803.596" y="-371.016" font-family="Times,serif" font-size="14.00">9383</text>
</a>
</g>
</g>
<!-- 1718&#45;&gt;9383 -->
<g id="edge12" class="edge"><title>1718&#45;&gt;9383</title>
<path fill="none" stroke="black" d="M654.97,-405.549C688.063,-398.684 743.26,-387.233 776.266,-380.386"/>
</g>
<!-- 1718&#45;&gt;13737 -->
<g id="edge48" class="edge"><title>1718&#45;&gt;13737</title>
<path fill="none" stroke="black" d="M607.238,-424.466C569.827,-448.913 489.899,-501.145 449.257,-527.704"/>
</g>
<!-- 15881 -->
<g id="node27" class="node"><title>15881</title>
<g id="a_node27"><a xlink:title="Day_0">
<ellipse fill="#20ff05" stroke="black" cx="787.643" cy="-314.49" rx="32.4942" ry="18"/>
<text text-anchor="middle" x="787.643" y="-310.79" font-family="Times,serif" font-size="14.00">15881</text>
</a>
</g>
</g>
<!-- 1718&#45;&gt;15881 -->
<g id="edge59" class="edge"><title>1718&#45;&gt;15881</title>
<path fill="none" stroke="black" d="M648.39,-398.608C678.752,-380.267 734.737,-346.449 765.668,-327.764"/>
</g>
<!-- 1753 -->
<g id="node6" class="node"><title>1753</title>
<g id="a_node6"><a xlink:title="Day_0">
<ellipse fill="#20ff05" stroke="black" cx="51.8226" cy="-368.14" rx="28.6953" ry="18"/>
<text text-anchor="middle" x="51.8226" y="-364.44" font-family="Times,serif" font-size="14.00">1753</text>
</a>
</g>
</g>
<!-- 12727 -->
<g id="node21" class="node"><title>12727</title>
<g id="a_node21"><a xlink:title="Day_0">
<ellipse fill="#20ff05" stroke="black" cx="192.219" cy="-461.47" rx="32.4942" ry="18"/>
<text text-anchor="middle" x="192.219" y="-457.77" font-family="Times,serif" font-size="14.00">12727</text>
</a>
</g>
</g>
<!-- 1753&#45;&gt;12727 -->
<g id="edge4" class="edge"><title>1753&#45;&gt;12727</title>
<path fill="none" stroke="black" d="M71.6401,-381.314C97.9442,-398.8 144.195,-429.546 171.126,-447.449"/>
</g>
<!-- 3320 -->
<g id="node8" class="node"><title>3320</title>
<g id="a_node8"><a xlink:title="Day_0">
<ellipse fill="#20ff05" stroke="black" cx="28.6701" cy="-441.315" rx="28.6953" ry="18"/>
<text text-anchor="middle" x="28.6701" y="-437.615" font-family="Times,serif" font-size="14.00">3320</text>
</a>
</g>
</g>
<!-- 3320&#45;&gt;12727 -->
<g id="edge3" class="edge"><title>3320&#45;&gt;12727</title>
<path fill="none" stroke="black" d="M56.7851,-444.78C85.554,-448.325 130.187,-453.826 160.275,-457.533"/>
</g>
<!-- 6134 -->
<g id="node13" class="node"><title>6134</title>
<g id="a_node13"><a xlink:title="PRE">
<ellipse fill="grey" stroke="black" cx="548.288" cy="-476.329" rx="28.6953" ry="18"/>
<text text-anchor="middle" x="548.288" y="-472.629" font-family="Times,serif" font-size="14.00">6134</text>
</a>
</g>
</g>
<!-- 6134&#45;&gt;13737 -->
<g id="edge50" class="edge"><title>6134&#45;&gt;13737</title>
<path fill="none" stroke="black" d="M526.429,-488.26C505.593,-499.632 474.153,-516.791 451.69,-529.051"/>
</g>
<!-- 8168 -->
<g id="node16" class="node"><title>8168</title>
<g id="a_node16"><a xlink:title="Day_0">
<ellipse fill="#20ff05" stroke="black" cx="422.955" cy="-401.621" rx="28.6953" ry="18"/>
<text text-anchor="middle" x="422.955" y="-397.921" font-family="Times,serif" font-size="14.00">8168</text>
</a>
</g>
</g>
<!-- 8168&#45;&gt;13737 -->
<g id="edge16" class="edge"><title>8168&#45;&gt;13737</title>
<path fill="none" stroke="black" d="M423.141,-419.645C423.409,-445.673 423.905,-493.737 424.195,-521.857"/>
</g>
<!-- 10608 -->
<g id="node19" class="node"><title>10608</title>
<g id="a_node19"><a xlink:title="Day_0">
<ellipse fill="#20ff05" stroke="black" cx="273" cy="-529.468" rx="32.4942" ry="18"/>
<text text-anchor="middle" x="273" y="-525.768" font-family="Times,serif" font-size="14.00">10608</text>
</a>
</g>
</g>
<!-- 10608&#45;&gt;13737 -->
<g id="edge61" class="edge"><title>10608&#45;&gt;13737</title>
<path fill="none" stroke="black" d="M305.113,-532.536C329.421,-534.858 362.824,-538.048 388.105,-540.463"/>
</g>
<!-- 12603 -->
<g id="node20" class="node"><title>12603</title>
<g id="a_node20"><a xlink:title="Day_0">
<ellipse fill="#20ff05" stroke="black" cx="119.683" cy="-246.736" rx="32.4942" ry="18"/>
<text text-anchor="middle" x="119.683" y="-243.036" font-family="Times,serif" font-size="14.00">12603</text>
</a>
</g>
</g>
<!-- 12603&#45;&gt;15937 -->
<g id="edge20" class="edge"><title>12603&#45;&gt;15937</title>
<path fill="none" stroke="black" d="M138.755,-261.628C168.606,-284.936 226.044,-329.784 255.992,-353.167"/>
</g>
<!-- 12727&#45;&gt;13737 -->
<g id="edge22" class="edge"><title>12727&#45;&gt;13737</title>
<path fill="none" stroke="black" d="M219.767,-471.254C263.136,-486.655 347.089,-516.469 392.837,-532.715"/>
</g>
<!-- 13737&#45;&gt;15937 -->
<g id="edge26" class="edge"><title>13737&#45;&gt;15937</title>
<path fill="none" stroke="black" d="M407.598,-524.113C377.875,-489.102 316.625,-416.953 289.124,-384.558"/>
</g>
<!-- 2835 -->
<g id="node34" class="node"><title>2835</title>
<g id="a_node34"><a xlink:title="Day_0,PRE">
<ellipse fill="#20ff05" stroke="black" cx="544.905" cy="-1731.22" rx="28.6832" ry="18"/>
<ellipse fill="none" stroke="black" cx="544.905" cy="-1731.22" rx="32.6952" ry="22"/>
<text text-anchor="middle" x="544.905" y="-1727.52" font-family="Times,serif" font-size="14.00">2835</text>
</a>
</g>
</g>
<!-- 15842&#45;&gt;2835 -->
<g id="edge1" class="edge"><title>15842&#45;&gt;2835</title>
<path fill="none" stroke="black" d="M503.551,-1345.39C510.594,-1411.1 534.76,-1636.57 542.5,-1708.78"/>
</g>
<!-- 131 -->
<g id="node29" class="node"><title>131</title>
<g id="a_node29"><a xlink:title="Day_0">
<ellipse fill="#20ff05" stroke="black" cx="708.448" cy="-1919.97" rx="27" ry="18"/>
<text text-anchor="middle" x="708.448" y="-1916.27" font-family="Times,serif" font-size="14.00">131</text>
</a>
</g>
</g>
<!-- 131&#45;&gt;2835 -->
<g id="edge24" class="edge"><title>131&#45;&gt;2835</title>
<path fill="none" stroke="black" d="M694.785,-1904.2C664.922,-1869.74 593.92,-1787.79 561.528,-1750.41"/>
</g>
<!-- 9952 -->
<g id="node44" class="node"><title>9952</title>
<g id="a_node44"><a xlink:title="Day_0">
<ellipse fill="#20ff05" stroke="black" cx="830.643" cy="-2053.3" rx="28.6953" ry="18"/>
<text text-anchor="middle" x="830.643" y="-2049.6" font-family="Times,serif" font-size="14.00">9952</text>
</a>
</g>
</g>
<!-- 131&#45;&gt;9952 -->
<g id="edge44" class="edge"><title>131&#45;&gt;9952</title>
<path fill="none" stroke="black" d="M722.704,-1935.52C746.124,-1961.08 792.492,-2011.67 816.099,-2037.43"/>
</g>
<!-- 612 -->
<g id="node30" class="node"><title>612</title>
<g id="a_node30"><a xlink:title="Day_0">
<ellipse fill="#20ff05" stroke="black" cx="640.192" cy="-2001.98" rx="27" ry="18"/>
<text text-anchor="middle" x="640.192" y="-1998.28" font-family="Times,serif" font-size="14.00">612</text>
</a>
</g>
</g>
<!-- 612&#45;&gt;2835 -->
<g id="edge31" class="edge"><title>612&#45;&gt;2835</title>
<path fill="none" stroke="black" d="M633.94,-1984.21C617.089,-1936.33 570.767,-1804.71 552.477,-1752.74"/>
</g>
<!-- 2801 -->
<g id="node58" class="node"><title>2801</title>
<g id="a_node58"><a xlink:title="Day_0">
<ellipse fill="#20ff05" stroke="black" cx="715.827" cy="-2217.81" rx="28.6953" ry="18"/>
<text text-anchor="middle" x="715.827" y="-2214.11" font-family="Times,serif" font-size="14.00">2801</text>
</a>
</g>
</g>
<!-- 612&#45;&gt;2801 -->
<g id="edge30" class="edge"><title>612&#45;&gt;2801</title>
<path fill="none" stroke="black" d="M646.382,-2019.64C660.6,-2060.21 695.46,-2159.69 709.658,-2200.21"/>
</g>
<!-- 1901 -->
<g id="node31" class="node"><title>1901</title>
<g id="a_node31"><a xlink:title="Day_0">
<ellipse fill="#20ff05" stroke="black" cx="454.717" cy="-1974.29" rx="28.6953" ry="18"/>
<text text-anchor="middle" x="454.717" y="-1970.59" font-family="Times,serif" font-size="14.00">1901</text>
</a>
</g>
</g>
<!-- 1901&#45;&gt;2835 -->
<g id="edge14" class="edge"><title>1901&#45;&gt;2835</title>
<path fill="none" stroke="black" d="M461.349,-1956.42C477.58,-1912.67 519.257,-1800.35 536.863,-1752.9"/>
</g>
<!-- 8564 -->
<g id="node41" class="node"><title>8564</title>
<g id="a_node41"><a xlink:title="Day_0">
<ellipse fill="grey" stroke="black" cx="387.845" cy="-2144.75" rx="28.6953" ry="18"/>
<text text-anchor="middle" x="387.845" y="-2141.05" font-family="Times,serif" font-size="14.00">8564</text>
</a>
</g>
</g>
<!-- 1901&#45;&gt;8564 -->
<g id="edge52" class="edge"><title>1901&#45;&gt;8564</title>
<path fill="none" stroke="black" d="M447.813,-1991.89C434.965,-2024.64 407.531,-2094.57 394.712,-2127.24"/>
</g>
<!-- 2431 -->
<g id="node32" class="node"><title>2431</title>
<g id="a_node32"><a xlink:title="Day_0">
<ellipse fill="#20ff05" stroke="black" cx="793.808" cy="-1671.65" rx="28.6953" ry="18"/>
<text text-anchor="middle" x="793.808" y="-1667.95" font-family="Times,serif" font-size="14.00">2431</text>
</a>
</g>
</g>
<!-- 2431&#45;&gt;2835 -->
<g id="edge49" class="edge"><title>2431&#45;&gt;2835</title>
<path fill="none" stroke="black" d="M766.697,-1678.14C720.079,-1689.3 625.011,-1712.05 575.865,-1723.81"/>
</g>
<!-- 1786 -->
<g id="node57" class="node"><title>1786</title>
<g id="a_node57"><a xlink:title="Day_0">
<ellipse fill="#20ff05" stroke="black" cx="966.302" cy="-1629.73" rx="28.6953" ry="18"/>
<text text-anchor="middle" x="966.302" y="-1626.03" font-family="Times,serif" font-size="14.00">1786</text>
</a>
</g>
</g>
<!-- 2431&#45;&gt;1786 -->
<g id="edge65" class="edge"><title>2431&#45;&gt;1786</title>
<path fill="none" stroke="black" d="M820.76,-1665.1C853.166,-1657.23 907.218,-1644.09 939.539,-1636.24"/>
</g>
<!-- 2822 -->
<g id="node33" class="node"><title>2822</title>
<g id="a_node33"><a xlink:title="Day_0">
<ellipse fill="#20ff05" stroke="black" cx="699.08" cy="-1799.9" rx="28.6953" ry="18"/>
<text text-anchor="middle" x="699.08" y="-1796.2" font-family="Times,serif" font-size="14.00">2822</text>
</a>
</g>
</g>
<!-- 2822&#45;&gt;2835 -->
<g id="edge67" class="edge"><title>2822&#45;&gt;2835</title>
<path fill="none" stroke="black" d="M675.664,-1789.47C647.865,-1777.09 601.581,-1756.47 572.188,-1743.38"/>
</g>
<!-- 5413 -->
<g id="node35" class="node"><title>5413</title>
<g id="a_node35"><a xlink:title="Day_0">
<ellipse fill="#20ff05" stroke="black" cx="658.525" cy="-1858.95" rx="28.6953" ry="18"/>
<text text-anchor="middle" x="658.525" y="-1855.25" font-family="Times,serif" font-size="14.00">5413</text>
</a>
</g>
</g>
<!-- 2835&#45;&gt;5413 -->
<g id="edge25" class="edge"><title>2835&#45;&gt;5413</title>
<path fill="none" stroke="black" d="M561.915,-1750.35C584.325,-1775.54 623.341,-1819.39 644.278,-1842.93"/>
</g>
<!-- 6713 -->
<g id="node36" class="node"><title>6713</title>
<g id="a_node36"><a xlink:title="Day_0">
<ellipse fill="#20ff05" stroke="black" cx="710.882" cy="-1728.44" rx="28.6953" ry="18"/>
<text text-anchor="middle" x="710.882" y="-1724.74" font-family="Times,serif" font-size="14.00">6713</text>
</a>
</g>
</g>
<!-- 2835&#45;&gt;6713 -->
<g id="edge46" class="edge"><title>2835&#45;&gt;6713</title>
<path fill="none" stroke="black" d="M577.697,-1730.68C608.117,-1730.17 652.952,-1729.41 682.039,-1728.93"/>
</g>
<!-- 7000 -->
<g id="node38" class="node"><title>7000</title>
<g id="a_node38"><a xlink:title="Day_0">
<ellipse fill="#20ff05" stroke="black" cx="799.266" cy="-1770.55" rx="28.6953" ry="18"/>
<text text-anchor="middle" x="799.266" y="-1766.85" font-family="Times,serif" font-size="14.00">7000</text>
</a>
</g>
</g>
<!-- 2835&#45;&gt;7000 -->
<g id="edge18" class="edge"><title>2835&#45;&gt;7000</title>
<path fill="none" stroke="black" d="M576.862,-1736.17C627.032,-1743.92 723.459,-1758.83 771.146,-1766.21"/>
</g>
<!-- 7993 -->
<g id="node39" class="node"><title>7993</title>
<g id="a_node39"><a xlink:title="Day_0">
<ellipse fill="#20ff05" stroke="black" cx="298.496" cy="-1684.18" rx="28.6953" ry="18"/>
<text text-anchor="middle" x="298.496" y="-1680.48" font-family="Times,serif" font-size="14.00">7993</text>
</a>
</g>
</g>
<!-- 2835&#45;&gt;7993 -->
<g id="edge42" class="edge"><title>2835&#45;&gt;7993</title>
<path fill="none" stroke="black" d="M513.447,-1725.22C464.793,-1715.93 372.101,-1698.24 325.98,-1689.43"/>
</g>
<!-- 7997 -->
<g id="node40" class="node"><title>7997</title>
<g id="a_node40"><a xlink:title="PRE">
<ellipse fill="#20ff05" stroke="black" cx="683.174" cy="-1608.04" rx="28.6953" ry="18"/>
<text text-anchor="middle" x="683.174" y="-1604.34" font-family="Times,serif" font-size="14.00">7997</text>
</a>
</g>
</g>
<!-- 2835&#45;&gt;7997 -->
<g id="edge64" class="edge"><title>2835&#45;&gt;7997</title>
<path fill="none" stroke="black" d="M564.716,-1713.58C592.046,-1689.23 640.835,-1645.76 666.438,-1622.95"/>
</g>
<!-- 8770 -->
<g id="node42" class="node"><title>8770</title>
<g id="a_node42"><a xlink:title="Day_0">
<ellipse fill="#20ff05" stroke="black" cx="401.543" cy="-1670.05" rx="28.6953" ry="18"/>
<text text-anchor="middle" x="401.543" y="-1666.35" font-family="Times,serif" font-size="14.00">8770</text>
</a>
</g>
</g>
<!-- 2835&#45;&gt;8770 -->
<g id="edge10" class="edge"><title>2835&#45;&gt;8770</title>
<path fill="none" stroke="black" d="M517.263,-1719.43C490.575,-1708.04 450.59,-1690.98 425.297,-1680.19"/>
</g>
<!-- 9458 -->
<g id="node43" class="node"><title>9458</title>
<g id="a_node43"><a xlink:title="Day_0">
<ellipse fill="#20ff05" stroke="black" cx="386.779" cy="-1927.91" rx="28.6953" ry="18"/>
<text text-anchor="middle" x="386.779" y="-1924.21" font-family="Times,serif" font-size="14.00">9458</text>
</a>
</g>
</g>
<!-- 2835&#45;&gt;9458 -->
<g id="edge57" class="edge"><title>2835&#45;&gt;9458</title>
<path fill="none" stroke="black" d="M529.165,-1750.8C497.918,-1789.67 428.589,-1875.9 399.753,-1911.77"/>
</g>
<!-- 10002 -->
<g id="node45" class="node"><title>10002</title>
<g id="a_node45"><a xlink:title="Day_0">
<ellipse fill="grey" stroke="black" cx="599.474" cy="-1914.85" rx="32.4942" ry="18"/>
<text text-anchor="middle" x="599.474" y="-1911.15" font-family="Times,serif" font-size="14.00">10002</text>
</a>
</g>
</g>
<!-- 2835&#45;&gt;10002 -->
<g id="edge27" class="edge"><title>2835&#45;&gt;10002</title>
<path fill="none" stroke="black" d="M551.379,-1753.01C562.277,-1789.68 584.079,-1863.05 594.15,-1896.93"/>
</g>
<!-- 10693 -->
<g id="node46" class="node"><title>10693</title>
<g id="a_node46"><a xlink:title="Day_0">
<ellipse fill="#20ff05" stroke="black" cx="516.161" cy="-1604.12" rx="32.4942" ry="18"/>
<text text-anchor="middle" x="516.161" y="-1600.42" font-family="Times,serif" font-size="14.00">10693</text>
</a>
</g>
</g>
<!-- 2835&#45;&gt;10693 -->
<g id="edge41" class="edge"><title>2835&#45;&gt;10693</title>
<path fill="none" stroke="black" d="M539.964,-1709.37C534.378,-1684.67 525.389,-1644.92 520.204,-1621.99"/>
</g>
<!-- 10958 -->
<g id="node47" class="node"><title>10958</title>
<g id="a_node47"><a xlink:title="Day_0">
<ellipse fill="#20ff05" stroke="black" cx="319.585" cy="-1879.64" rx="32.4942" ry="18"/>
<text text-anchor="middle" x="319.585" y="-1875.94" font-family="Times,serif" font-size="14.00">10958</text>
</a>
</g>
</g>
<!-- 2835&#45;&gt;10958 -->
<g id="edge55" class="edge"><title>2835&#45;&gt;10958</title>
<path fill="none" stroke="black" d="M521.218,-1746.83C477.039,-1775.93 382.745,-1838.04 340.644,-1865.77"/>
</g>
<!-- 11364 -->
<g id="node48" class="node"><title>11364</title>
<g id="a_node48"><a xlink:title="Day_0">
<ellipse fill="#20ff05" stroke="black" cx="443.084" cy="-1569.95" rx="32.4942" ry="18"/>
<text text-anchor="middle" x="443.084" y="-1566.25" font-family="Times,serif" font-size="14.00">11364</text>
</a>
</g>
</g>
<!-- 2835&#45;&gt;11364 -->
<g id="edge68" class="edge"><title>2835&#45;&gt;11364</title>
<path fill="none" stroke="black" d="M532.009,-1710.8C511.781,-1678.76 472.952,-1617.26 454.012,-1587.26"/>
</g>
<!-- 11955 -->
<g id="node49" class="node"><title>11955</title>
<g id="a_node49"><a xlink:title="Day_0">
<ellipse fill="#20ff05" stroke="black" cx="522.185" cy="-1910.57" rx="32.4942" ry="18"/>
<text text-anchor="middle" x="522.185" y="-1906.87" font-family="Times,serif" font-size="14.00">11955</text>
</a>
</g>
</g>
<!-- 2835&#45;&gt;11955 -->
<g id="edge40" class="edge"><title>2835&#45;&gt;11955</title>
<path fill="none" stroke="black" d="M542.119,-1753.22C537.581,-1789.04 528.678,-1859.32 524.479,-1892.46"/>
</g>
<!-- 12100 -->
<g id="node50" class="node"><title>12100</title>
<g id="a_node50"><a xlink:title="Day_0">
<ellipse fill="#20ff05" stroke="black" cx="535.891" cy="-2003.97" rx="32.4942" ry="18"/>
<text text-anchor="middle" x="535.891" y="-2000.27" font-family="Times,serif" font-size="14.00">12100</text>
</a>
</g>
</g>
<!-- 2835&#45;&gt;12100 -->
<g id="edge15" class="edge"><title>2835&#45;&gt;12100</title>
<path fill="none" stroke="black" d="M544.167,-1753.55C542.427,-1806.22 538.09,-1937.44 536.493,-1985.75"/>
</g>
<!-- 12318 -->
<g id="node51" class="node"><title>12318</title>
<g id="a_node51"><a xlink:title="Day_0">
<ellipse fill="#20ff05" stroke="black" cx="613.991" cy="-1624.13" rx="32.4942" ry="18"/>
<text text-anchor="middle" x="613.991" y="-1620.43" font-family="Times,serif" font-size="14.00">12318</text>
</a>
</g>
</g>
<!-- 2835&#45;&gt;12318 -->
<g id="edge7" class="edge"><title>2835&#45;&gt;12318</title>
<path fill="none" stroke="black" d="M558.062,-1710.83C571.06,-1690.68 590.718,-1660.21 602.933,-1641.27"/>
</g>
<!-- 12695 -->
<g id="node52" class="node"><title>12695</title>
<g id="a_node52"><a xlink:title="Day_0">
<ellipse fill="#20ff05" stroke="black" cx="534.043" cy="-1549.06" rx="32.4942" ry="18"/>
<text text-anchor="middle" x="534.043" y="-1545.36" font-family="Times,serif" font-size="14.00">12695</text>
</a>
</g>
</g>
<!-- 2835&#45;&gt;12695 -->
<g id="edge6" class="edge"><title>2835&#45;&gt;12695</title>
<path fill="none" stroke="black" d="M543.573,-1708.89C541.398,-1672.4 537.124,-1600.74 535.124,-1567.19"/>
</g>
<!-- 13184 -->
<g id="node53" class="node"><title>13184</title>
<g id="a_node53"><a xlink:title="Day_0">
<ellipse fill="#20ff05" stroke="black" cx="435.662" cy="-1870.87" rx="32.4942" ry="18"/>
<text text-anchor="middle" x="435.662" y="-1867.17" font-family="Times,serif" font-size="14.00">13184</text>
</a>
</g>
</g>
<!-- 2835&#45;&gt;13184 -->
<g id="edge23" class="edge"><title>2835&#45;&gt;13184</title>
<path fill="none" stroke="black" d="M529.485,-1750.94C507.841,-1778.6 468.842,-1828.46 448.616,-1854.31"/>
</g>
<!-- 13207 -->
<g id="node54" class="node"><title>13207</title>
<g id="a_node54"><a xlink:title="PRE">
<ellipse fill="#20ff05" stroke="black" cx="292.768" cy="-1790.09" rx="32.4942" ry="18"/>
<text text-anchor="middle" x="292.768" y="-1786.39" font-family="Times,serif" font-size="14.00">13207</text>
</a>
</g>
</g>
<!-- 2835&#45;&gt;13207 -->
<g id="edge28" class="edge"><title>2835&#45;&gt;13207</title>
<path fill="none" stroke="black" d="M513.988,-1738.44C465.202,-1749.83 370.964,-1771.84 322.76,-1783.09"/>
</g>
<!-- 14425 -->
<g id="node55" class="node"><title>14425</title>
<g id="a_node55"><a xlink:title="Day_0">
<ellipse fill="#20ff05" stroke="black" cx="773.296" cy="-1857.49" rx="32.4942" ry="18"/>
<text text-anchor="middle" x="773.296" y="-1853.79" font-family="Times,serif" font-size="14.00">14425</text>
</a>
</g>
</g>
<!-- 2835&#45;&gt;14425 -->
<g id="edge69" class="edge"><title>2835&#45;&gt;14425</title>
<path fill="none" stroke="black" d="M570.22,-1745.22C614.934,-1769.94 707.228,-1820.96 750.264,-1844.76"/>
</g>
<!-- 14627 -->
<g id="node56" class="node"><title>14627</title>
<g id="a_node56"><a xlink:title="Day_0">
<ellipse fill="#20ff05" stroke="black" cx="367.488" cy="-1737.39" rx="32.4942" ry="18"/>
<text text-anchor="middle" x="367.488" y="-1733.69" font-family="Times,serif" font-size="14.00">14627</text>
</a>
</g>
</g>
<!-- 2835&#45;&gt;14627 -->
<g id="edge21" class="edge"><title>2835&#45;&gt;14627</title>
<path fill="none" stroke="black" d="M511.95,-1732.37C479.983,-1733.48 431.772,-1735.16 399.967,-1736.26"/>
</g>
<!-- 3569 -->
<g id="node59" class="node"><title>3569</title>
<g id="a_node59"><a xlink:title="Day_0">
<ellipse fill="#20ff05" stroke="black" cx="617.232" cy="-1564.18" rx="28.6953" ry="18"/>
<text text-anchor="middle" x="617.232" y="-1560.48" font-family="Times,serif" font-size="14.00">3569</text>
</a>
</g>
</g>
<!-- 2835&#45;&gt;3569 -->
<g id="edge8" class="edge"><title>2835&#45;&gt;3569</title>
<path fill="none" stroke="black" d="M554.065,-1710.07C568.51,-1676.71 596.308,-1612.51 609.682,-1581.62"/>
</g>
<!-- 8810 -->
<g id="node61" class="node"><title>8810</title>
<g id="a_node61"><a xlink:title="Day_0">
<ellipse fill="grey" stroke="black" cx="394.332" cy="-1807.66" rx="28.6953" ry="18"/>
<text text-anchor="middle" x="394.332" y="-1803.96" font-family="Times,serif" font-size="14.00">8810</text>
</a>
</g>
</g>
<!-- 2835&#45;&gt;8810 -->
<g id="edge19" class="edge"><title>2835&#45;&gt;8810</title>
<path fill="none" stroke="black" d="M518.677,-1744.54C489.861,-1759.17 444.061,-1782.41 416.823,-1796.24"/>
</g>
<!-- 15289 -->
<g id="node65" class="node"><title>15289</title>
<g id="a_node65"><a xlink:title="Day_0">
<ellipse fill="grey" stroke="black" cx="705.154" cy="-1659.48" rx="32.4942" ry="18"/>
<text text-anchor="middle" x="705.154" y="-1655.78" font-family="Times,serif" font-size="14.00">15289</text>
</a>
</g>
</g>
<!-- 2835&#45;&gt;15289 -->
<g id="edge66" class="edge"><title>2835&#45;&gt;15289</title>
<path fill="none" stroke="black" d="M572.089,-1719.05C602.182,-1705.58 650.308,-1684.04 679.692,-1670.88"/>
</g>
<!-- 14565 -->
<g id="node70" class="node"><title>14565</title>
<g id="a_node70"><a xlink:title="Day_0">
<ellipse fill="grey" stroke="black" cx="390.854" cy="-1618.88" rx="32.4942" ry="18"/>
<text text-anchor="middle" x="390.854" y="-1615.18" font-family="Times,serif" font-size="14.00">14565</text>
</a>
</g>
</g>
<!-- 2835&#45;&gt;14565 -->
<g id="edge45" class="edge"><title>2835&#45;&gt;14565</title>
<path fill="none" stroke="black" d="M522.505,-1714.89C492.463,-1692.98 439.581,-1654.41 410.83,-1633.45"/>
</g>
<!-- 6783 -->
<g id="node37" class="node"><title>6783</title>
<g id="a_node37"><a xlink:title="Day_0">
<ellipse fill="#20ff05" stroke="black" cx="272.137" cy="-2069.9" rx="28.6953" ry="18"/>
<text text-anchor="middle" x="272.137" y="-2066.2" font-family="Times,serif" font-size="14.00">6783</text>
</a>
</g>
</g>
<!-- 6783&#45;&gt;9458 -->
<g id="edge35" class="edge"><title>6783&#45;&gt;9458</title>
<path fill="none" stroke="black" d="M285.288,-2053.61C307.402,-2026.22 351.771,-1971.27 373.782,-1944.01"/>
</g>
<!-- 12210 -->
<g id="node69" class="node"><title>12210</title>
<g id="a_node69"><a xlink:title="Day_0">
<ellipse fill="#ffffff" stroke="black" cx="983.862" cy="-1797.54" rx="32.4942" ry="18"/>
<text text-anchor="middle" x="983.862" y="-1793.84" font-family="Times,serif" font-size="14.00">12210</text>
</a>
</g>
</g>
<!-- 7000&#45;&gt;12210 -->
<g id="edge13" class="edge"><title>7000&#45;&gt;12210</title>
<path fill="none" stroke="black" d="M827.302,-1774.65C860.888,-1779.56 917.012,-1787.76 952.15,-1792.9"/>
</g>
<!-- 11619 -->
<g id="node63" class="node"><title>11619</title>
<g id="a_node63"><a xlink:title="Day_0">
<ellipse fill="#20ff05" stroke="black" cx="121.767" cy="-1656.68" rx="32.4942" ry="18"/>
<text text-anchor="middle" x="121.767" y="-1652.98" font-family="Times,serif" font-size="14.00">11619</text>
</a>
</g>
</g>
<!-- 7993&#45;&gt;11619 -->
<g id="edge11" class="edge"><title>7993&#45;&gt;11619</title>
<path fill="none" stroke="black" d="M270.493,-1679.83C238.569,-1674.86 186.51,-1666.75 153.216,-1661.57"/>
</g>
<!-- 9121 -->
<g id="node62" class="node"><title>9121</title>
<g id="a_node62"><a xlink:title="Day_0">
<ellipse fill="#20ff05" stroke="black" cx="161.93" cy="-1983.6" rx="28.6953" ry="18"/>
<text text-anchor="middle" x="161.93" y="-1979.9" font-family="Times,serif" font-size="14.00">9121</text>
</a>
</g>
</g>
<!-- 10958&#45;&gt;9121 -->
<g id="edge54" class="edge"><title>10958&#45;&gt;9121</title>
<path fill="none" stroke="black" d="M298.649,-1893.45C268.161,-1913.55 211.921,-1950.63 181.954,-1970.39"/>
</g>
<!-- 11774 -->
<g id="node68" class="node"><title>11774</title>
<g id="a_node68"><a xlink:title="Day_0">
<ellipse fill="grey" stroke="black" cx="525.067" cy="-2192.24" rx="32.4942" ry="18"/>
<text text-anchor="middle" x="525.067" y="-2188.54" font-family="Times,serif" font-size="14.00">11774</text>
</a>
</g>
</g>
<!-- 12100&#45;&gt;11774 -->
<g id="edge62" class="edge"><title>12100&#45;&gt;11774</title>
<path fill="none" stroke="black" d="M534.853,-2022.02C532.784,-2058.01 528.168,-2138.3 526.101,-2174.24"/>
</g>
<!-- 2319 -->
<g id="node66" class="node"><title>2319</title>
<g id="a_node66"><a xlink:title="PRE">
<ellipse fill="#20ff05" stroke="black" cx="114.307" cy="-1834.05" rx="28.6953" ry="18"/>
<text text-anchor="middle" x="114.307" y="-1830.35" font-family="Times,serif" font-size="14.00">2319</text>
</a>
</g>
</g>
<!-- 13207&#45;&gt;2319 -->
<g id="edge51" class="edge"><title>13207&#45;&gt;2319</title>
<path fill="none" stroke="black" d="M262.898,-1797.45C228.863,-1805.83 173.743,-1819.41 141.063,-1827.46"/>
</g>
<!-- 4689 -->
<g id="node67" class="node"><title>4689</title>
<g id="a_node67"><a xlink:title="PRE">
<ellipse fill="#20ff05" stroke="black" cx="939.524" cy="-1945.86" rx="28.6953" ry="18"/>
<text text-anchor="middle" x="939.524" y="-1942.16" font-family="Times,serif" font-size="14.00">4689</text>
</a>
</g>
</g>
<!-- 14425&#45;&gt;4689 -->
<g id="edge36" class="edge"><title>14425&#45;&gt;4689</title>
<path fill="none" stroke="black" d="M796.76,-1869.96C828.888,-1887.04 886.15,-1917.48 917.504,-1934.15"/>
</g>
<!-- 6759 -->
<g id="node60" class="node"><title>6759</title>
<g id="a_node60"><a xlink:title="Day_0">
<ellipse fill="grey" stroke="black" cx="739.458" cy="-2414.9" rx="28.6953" ry="18"/>
<text text-anchor="middle" x="739.458" y="-2411.2" font-family="Times,serif" font-size="14.00">6759</text>
</a>
</g>
</g>
<!-- 2801&#45;&gt;6759 -->
<g id="edge60" class="edge"><title>2801&#45;&gt;6759</title>
<path fill="none" stroke="black" d="M718.008,-2236C722.51,-2273.54 732.786,-2359.24 737.283,-2396.75"/>
</g>
<!-- 14322 -->
<g id="node64" class="node"><title>14322</title>
<g id="a_node64"><a xlink:title="Day_0">
<ellipse fill="#20ff05" stroke="black" cx="819.934" cy="-2392.31" rx="32.4942" ry="18"/>
<text text-anchor="middle" x="819.934" y="-2388.61" font-family="Times,serif" font-size="14.00">14322</text>
</a>
</g>
</g>
<!-- 2801&#45;&gt;14322 -->
<g id="edge2" class="edge"><title>2801&#45;&gt;14322</title>
<path fill="none" stroke="black" d="M725.999,-2234.86C745.902,-2268.22 789.785,-2341.78 809.721,-2375.19"/>
</g>
</g>
</svg>
