<?xml version="1.0" encoding="UTF-8" standalone="no"?>
<!DOCTYPE svg PUBLIC "-//W3C//DTD SVG 1.1//EN"
 "http://www.w3.org/Graphics/SVG/1.1/DTD/svg11.dtd">
<!-- Generated by graphviz version 2.38.0 (20140413.2041)
 -->
<!-- Title: %3 Pages: 1 -->
<svg width="1207pt" height="2804pt"
 viewBox="0.00 0.00 1207.00 2804.00" xmlns="http://www.w3.org/2000/svg" xmlns:xlink="http://www.w3.org/1999/xlink">
<g id="graph0" class="graph" transform="scale(1 1) rotate(0) translate(4 2800)">
<title>%3</title>
<polygon fill="white" stroke="none" points="-4,4 -4,-2800 1203,-2800 1203,4 -4,4"/>
<!-- 410 -->
<g id="node1" class="node"><title>410</title>
<g id="a_node1"><a xlink:title="6th_week">
<ellipse fill="#efff05" stroke="black" cx="725.751" cy="-2127.78" rx="27" ry="18"/>
<text text-anchor="middle" x="725.751" y="-2124.08" font-family="Times,serif" font-size="14.00">410</text>
</a>
</g>
</g>
<!-- 470 -->
<g id="node2" class="node"><title>470</title>
<g id="a_node2"><a xlink:title="6th_week">
<ellipse fill="#efff05" stroke="black" cx="608.659" cy="-2013.5" rx="27" ry="18"/>
<text text-anchor="middle" x="608.659" y="-2009.8" font-family="Times,serif" font-size="14.00">470</text>
</a>
</g>
</g>
<!-- 410&#45;&gt;470 -->
<g id="edge5" class="edge"><title>410&#45;&gt;470</title>
<path fill="none" stroke="black" d="M710.444,-2112.84C688.003,-2090.94 646.413,-2050.35 623.971,-2028.44"/>
</g>
<!-- 1286 -->
<g id="node3" class="node"><title>1286</title>
<g id="a_node3"><a xlink:title="6th_week">
<ellipse fill="grey" stroke="black" cx="676.978" cy="-1970.79" rx="28.6953" ry="18"/>
<text text-anchor="middle" x="676.978" y="-1967.09" font-family="Times,serif" font-size="14.00">1286</text>
</a>
</g>
</g>
<!-- 410&#45;&gt;1286 -->
<g id="edge39" class="edge"><title>410&#45;&gt;1286</title>
<path fill="none" stroke="black" d="M720.251,-2110.08C710.884,-2079.93 691.937,-2018.94 682.532,-1988.67"/>
</g>
<!-- 4752 -->
<g id="node10" class="node"><title>4752</title>
<g id="a_node10"><a xlink:title="6th_week">
<ellipse fill="#efff05" stroke="black" cx="573.699" cy="-2302.38" rx="28.6953" ry="18"/>
<text text-anchor="middle" x="573.699" y="-2298.68" font-family="Times,serif" font-size="14.00">4752</text>
</a>
</g>
</g>
<!-- 410&#45;&gt;4752 -->
<g id="edge16" class="edge"><title>410&#45;&gt;4752</title>
<path fill="none" stroke="black" d="M711.99,-2143.59C683.114,-2176.74 616.483,-2253.25 587.539,-2286.49"/>
</g>
<!-- 5485 -->
<g id="node12" class="node"><title>5485</title>
<g id="a_node12"><a xlink:title="6th_week">
<ellipse fill="#efff05" stroke="black" cx="657.972" cy="-1774.75" rx="28.6953" ry="18"/>
<text text-anchor="middle" x="657.972" y="-1771.05" font-family="Times,serif" font-size="14.00">5485</text>
</a>
</g>
</g>
<!-- 410&#45;&gt;5485 -->
<g id="edge26" class="edge"><title>410&#45;&gt;5485</title>
<path fill="none" stroke="black" d="M722.297,-2109.79C710.67,-2049.23 673.036,-1853.21 661.419,-1792.7"/>
</g>
<!-- 8281 -->
<g id="node15" class="node"><title>8281</title>
<g id="a_node15"><a xlink:title="6th_week">
<ellipse fill="#efff05" stroke="black" cx="575.458" cy="-2208.18" rx="28.6953" ry="18"/>
<text text-anchor="middle" x="575.458" y="-2204.48" font-family="Times,serif" font-size="14.00">8281</text>
</a>
</g>
</g>
<!-- 410&#45;&gt;8281 -->
<g id="edge18" class="edge"><title>410&#45;&gt;8281</title>
<path fill="none" stroke="black" d="M704.537,-2139.13C676.217,-2154.28 626.297,-2180.99 597.542,-2196.37"/>
</g>
<!-- 8833 -->
<g id="node17" class="node"><title>8833</title>
<g id="a_node17"><a xlink:title="6th_week">
<ellipse fill="#efff05" stroke="black" cx="733.952" cy="-2323.22" rx="28.6953" ry="18"/>
<text text-anchor="middle" x="733.952" y="-2319.52" font-family="Times,serif" font-size="14.00">8833</text>
</a>
</g>
</g>
<!-- 410&#45;&gt;8833 -->
<g id="edge38" class="edge"><title>410&#45;&gt;8833</title>
<path fill="none" stroke="black" d="M726.508,-2145.82C728.067,-2182.96 731.619,-2267.6 733.185,-2304.94"/>
</g>
<!-- 9712 -->
<g id="node18" class="node"><title>9712</title>
<g id="a_node18"><a xlink:title="6th_week">
<ellipse fill="grey" stroke="black" cx="639.922" cy="-2253.59" rx="28.6953" ry="18"/>
<text text-anchor="middle" x="639.922" y="-2249.89" font-family="Times,serif" font-size="14.00">9712</text>
</a>
</g>
</g>
<!-- 410&#45;&gt;9712 -->
<g id="edge37" class="edge"><title>410&#45;&gt;9712</title>
<path fill="none" stroke="black" d="M714.531,-2144.23C698.172,-2168.21 667.933,-2212.53 651.419,-2236.74"/>
</g>
<!-- 13887 -->
<g id="node20" class="node"><title>13887</title>
<g id="a_node20"><a xlink:title="6th_week">
<ellipse fill="#efff05" stroke="black" cx="764.424" cy="-2272.37" rx="32.4942" ry="18"/>
<text text-anchor="middle" x="764.424" y="-2268.67" font-family="Times,serif" font-size="14.00">13887</text>
</a>
</g>
</g>
<!-- 410&#45;&gt;13887 -->
<g id="edge14" class="edge"><title>410&#45;&gt;13887</title>
<path fill="none" stroke="black" d="M730.493,-2145.51C737.916,-2173.26 752.197,-2226.66 759.643,-2254.5"/>
</g>
<!-- 15056 -->
<g id="node21" class="node"><title>15056</title>
<g id="a_node21"><a xlink:title="6th_week">
<ellipse fill="grey" stroke="black" cx="804.175" cy="-2380.93" rx="32.4942" ry="18"/>
<text text-anchor="middle" x="804.175" y="-2377.23" font-family="Times,serif" font-size="14.00">15056</text>
</a>
</g>
</g>
<!-- 410&#45;&gt;15056 -->
<g id="edge11" class="edge"><title>410&#45;&gt;15056</title>
<path fill="none" stroke="black" d="M731.266,-2145.58C745.665,-2192.06 784.274,-2316.69 798.667,-2363.15"/>
</g>
<!-- 16728 -->
<g id="node22" class="node"><title>16728</title>
<g id="a_node22"><a xlink:title="6th_week">
<ellipse fill="#ffffff" stroke="black" cx="505.711" cy="-2162.91" rx="32.4942" ry="18"/>
<text text-anchor="middle" x="505.711" y="-2159.21" font-family="Times,serif" font-size="14.00">16728</text>
</a>
</g>
</g>
<!-- 410&#45;&gt;16728 -->
<g id="edge20" class="edge"><title>410&#45;&gt;16728</title>
<path fill="none" stroke="black" d="M699.209,-2132.02C658.403,-2138.54 580.427,-2150.99 536.956,-2157.93"/>
</g>
<!-- 18830 -->
<g id="node24" class="node"><title>18830</title>
<g id="a_node24"><a xlink:title="6th_week">
<ellipse fill="#efff05" stroke="black" cx="747.053" cy="-1937.12" rx="32.4942" ry="18"/>
<text text-anchor="middle" x="747.053" y="-1933.42" font-family="Times,serif" font-size="14.00">18830</text>
</a>
</g>
</g>
<!-- 410&#45;&gt;18830 -->
<g id="edge33" class="edge"><title>410&#45;&gt;18830</title>
<path fill="none" stroke="black" d="M727.794,-2109.5C731.866,-2073.06 740.95,-1991.74 745.017,-1955.34"/>
</g>
<!-- 21769 -->
<g id="node28" class="node"><title>21769</title>
<g id="a_node28"><a xlink:title="6th_week">
<ellipse fill="#efff05" stroke="black" cx="892.179" cy="-2178.35" rx="32.4942" ry="18"/>
<text text-anchor="middle" x="892.179" y="-2174.65" font-family="Times,serif" font-size="14.00">21769</text>
</a>
</g>
</g>
<!-- 410&#45;&gt;21769 -->
<g id="edge17" class="edge"><title>410&#45;&gt;21769</title>
<path fill="none" stroke="black" d="M750.667,-2135.35C780.864,-2144.53 831.642,-2159.95 863.456,-2169.62"/>
</g>
<!-- 22056 -->
<g id="node30" class="node"><title>22056</title>
<g id="a_node30"><a xlink:title="6th_week">
<ellipse fill="grey" stroke="black" cx="840.235" cy="-2293.71" rx="32.4942" ry="18"/>
<text text-anchor="middle" x="840.235" y="-2290.01" font-family="Times,serif" font-size="14.00">22056</text>
</a>
</g>
</g>
<!-- 410&#45;&gt;22056 -->
<g id="edge50" class="edge"><title>410&#45;&gt;22056</title>
<path fill="none" stroke="black" d="M737.147,-2144.3C758.978,-2175.94 806.485,-2244.8 828.545,-2276.77"/>
</g>
<!-- 22499 -->
<g id="node32" class="node"><title>22499</title>
<g id="a_node32"><a xlink:title="6th_week">
<ellipse fill="#efff05" stroke="black" cx="891.398" cy="-2005.88" rx="32.4942" ry="18"/>
<text text-anchor="middle" x="891.398" y="-2002.18" font-family="Times,serif" font-size="14.00">22499</text>
</a>
</g>
</g>
<!-- 410&#45;&gt;22499 -->
<g id="edge31" class="edge"><title>410&#45;&gt;22499</title>
<path fill="none" stroke="black" d="M744.111,-2114.27C775.531,-2091.15 839.342,-2044.19 871.673,-2020.4"/>
</g>
<!-- 23630 -->
<g id="node33" class="node"><title>23630</title>
<g id="a_node33"><a xlink:title="6th_week">
<ellipse fill="grey" stroke="black" cx="913.05" cy="-2055.42" rx="32.4942" ry="18"/>
<text text-anchor="middle" x="913.05" y="-2051.72" font-family="Times,serif" font-size="14.00">23630</text>
</a>
</g>
</g>
<!-- 410&#45;&gt;23630 -->
<g id="edge30" class="edge"><title>410&#45;&gt;23630</title>
<path fill="none" stroke="black" d="M749.473,-2118.62C784.418,-2105.12 849.543,-2079.95 886.197,-2065.79"/>
</g>
<!-- 24527 -->
<g id="node34" class="node"><title>24527</title>
<g id="a_node34"><a xlink:title="6th_week">
<ellipse fill="#efff05" stroke="black" cx="526.986" cy="-2066.38" rx="32.4942" ry="18"/>
<text text-anchor="middle" x="526.986" y="-2062.68" font-family="Times,serif" font-size="14.00">24527</text>
</a>
</g>
</g>
<!-- 410&#45;&gt;24527 -->
<g id="edge7" class="edge"><title>410&#45;&gt;24527</title>
<path fill="none" stroke="black" d="M700.98,-2120.13C664.036,-2108.72 594.676,-2087.29 555.612,-2075.23"/>
</g>
<!-- 27004 -->
<g id="node37" class="node"><title>27004</title>
<g id="a_node37"><a xlink:title="6th_week">
<ellipse fill="grey" stroke="black" cx="578.063" cy="-2113.98" rx="32.4942" ry="18"/>
<text text-anchor="middle" x="578.063" y="-2110.28" font-family="Times,serif" font-size="14.00">27004</text>
</a>
</g>
</g>
<!-- 410&#45;&gt;27004 -->
<g id="edge35" class="edge"><title>410&#45;&gt;27004</title>
<path fill="none" stroke="black" d="M699.006,-2125.28C674.069,-2122.95 636.832,-2119.48 610.272,-2116.99"/>
</g>
<!-- 29061 -->
<g id="node39" class="node"><title>29061</title>
<g id="a_node39"><a xlink:title="6th_week">
<ellipse fill="grey" stroke="black" cx="894.093" cy="-2246.68" rx="32.4942" ry="18"/>
<text text-anchor="middle" x="894.093" y="-2242.98" font-family="Times,serif" font-size="14.00">29061</text>
</a>
</g>
</g>
<!-- 410&#45;&gt;29061 -->
<g id="edge24" class="edge"><title>410&#45;&gt;29061</title>
<path fill="none" stroke="black" d="M744.41,-2140.96C776.255,-2163.45 840.842,-2209.07 873.781,-2232.33"/>
</g>
<!-- 29631 -->
<g id="node40" class="node"><title>29631</title>
<g id="a_node40"><a xlink:title="6th_week">
<ellipse fill="grey" stroke="black" cx="662.04" cy="-2317.15" rx="32.4942" ry="18"/>
<text text-anchor="middle" x="662.04" y="-2313.45" font-family="Times,serif" font-size="14.00">29631</text>
</a>
</g>
</g>
<!-- 410&#45;&gt;29631 -->
<g id="edge10" class="edge"><title>410&#45;&gt;29631</title>
<path fill="none" stroke="black" d="M719.758,-2145.6C707.615,-2181.69 680.233,-2263.07 668.065,-2299.24"/>
</g>
<!-- 29982 -->
<g id="node41" class="node"><title>29982</title>
<g id="a_node41"><a xlink:title="6th_week">
<ellipse fill="#efff05" stroke="black" cx="929.57" cy="-2116.17" rx="32.4942" ry="18"/>
<text text-anchor="middle" x="929.57" y="-2112.47" font-family="Times,serif" font-size="14.00">29982</text>
</a>
</g>
</g>
<!-- 410&#45;&gt;29982 -->
<g id="edge28" class="edge"><title>410&#45;&gt;29982</title>
<path fill="none" stroke="black" d="M752.817,-2126.24C790.068,-2124.12 857.052,-2120.3 897,-2118.02"/>
</g>
<!-- 31479 -->
<g id="node43" class="node"><title>31479</title>
<g id="a_node43"><a xlink:title="6th_week">
<ellipse fill="#efff05" stroke="black" cx="967.491" cy="-2202.02" rx="32.4942" ry="18"/>
<text text-anchor="middle" x="967.491" y="-2198.32" font-family="Times,serif" font-size="14.00">31479</text>
</a>
</g>
</g>
<!-- 410&#45;&gt;31479 -->
<g id="edge46" class="edge"><title>410&#45;&gt;31479</title>
<path fill="none" stroke="black" d="M750.711,-2135.45C795.949,-2149.34 891.21,-2178.6 938.951,-2193.26"/>
</g>
<!-- 35926 -->
<g id="node49" class="node"><title>35926</title>
<g id="a_node49"><a xlink:title="6th_week">
<ellipse fill="#ffffff" stroke="black" cx="806.303" cy="-1998.17" rx="32.4942" ry="18"/>
<text text-anchor="middle" x="806.303" y="-1994.47" font-family="Times,serif" font-size="14.00">35926</text>
</a>
</g>
</g>
<!-- 410&#45;&gt;35926 -->
<g id="edge9" class="edge"><title>410&#45;&gt;35926</title>
<path fill="none" stroke="black" d="M736.117,-2111.1C751.499,-2086.36 780.216,-2040.15 795.722,-2015.2"/>
</g>
<!-- 2278 -->
<g id="node4" class="node"><title>2278</title>
<g id="a_node4"><a xlink:title="6th_week">
<ellipse fill="#efff05" stroke="black" cx="322.166" cy="-216.912" rx="28.6953" ry="18"/>
<text text-anchor="middle" x="322.166" y="-213.212" font-family="Times,serif" font-size="14.00">2278</text>
</a>
</g>
</g>
<!-- 12301 -->
<g id="node19" class="node"><title>12301</title>
<g id="a_node19"><a xlink:title="6th_week">
<ellipse fill="#efff05" stroke="black" cx="367.112" cy="-448.425" rx="32.4942" ry="18"/>
<text text-anchor="middle" x="367.112" y="-444.725" font-family="Times,serif" font-size="14.00">12301</text>
</a>
</g>
</g>
<!-- 2278&#45;&gt;12301 -->
<g id="edge8" class="edge"><title>2278&#45;&gt;12301</title>
<path fill="none" stroke="black" d="M325.693,-235.078C334.095,-278.356 355.216,-387.15 363.601,-430.343"/>
</g>
<!-- 19341 -->
<g id="node25" class="node"><title>19341</title>
<g id="a_node25"><a xlink:title="6th_week">
<ellipse fill="#ffffff" stroke="black" cx="274.601" cy="-17.9971" rx="32.4942" ry="18"/>
<text text-anchor="middle" x="274.601" y="-14.2971" font-family="Times,serif" font-size="14.00">19341</text>
</a>
</g>
</g>
<!-- 2278&#45;&gt;19341 -->
<g id="edge3" class="edge"><title>2278&#45;&gt;19341</title>
<path fill="none" stroke="black" d="M317.861,-198.909C308.828,-161.133 287.985,-73.9677 278.931,-36.1029"/>
</g>
<!-- 2319 -->
<g id="node5" class="node"><title>2319</title>
<g id="a_node5"><a xlink:title="6th_week">
<ellipse fill="#efff05" stroke="black" cx="528.785" cy="-333.406" rx="28.6953" ry="18"/>
<text text-anchor="middle" x="528.785" y="-329.706" font-family="Times,serif" font-size="14.00">2319</text>
</a>
</g>
</g>
<!-- 2319&#45;&gt;12301 -->
<g id="edge49" class="edge"><title>2319&#45;&gt;12301</title>
<path fill="none" stroke="black" d="M509.604,-347.051C478.823,-368.95 418.678,-411.739 387.281,-434.076"/>
</g>
<!-- 2520 -->
<g id="node6" class="node"><title>2520</title>
<g id="a_node6"><a xlink:title="6th_week">
<ellipse fill="#efff05" stroke="black" cx="189.561" cy="-435.488" rx="28.6953" ry="18"/>
<text text-anchor="middle" x="189.561" y="-431.788" font-family="Times,serif" font-size="14.00">2520</text>
</a>
</g>
</g>
<!-- 2520&#45;&gt;12301 -->
<g id="edge1" class="edge"><title>2520&#45;&gt;12301</title>
<path fill="none" stroke="black" d="M218.087,-437.566C249.946,-439.888 301.405,-443.637 334.745,-446.066"/>
</g>
<!-- 3632 -->
<g id="node7" class="node"><title>3632</title>
<g id="a_node7"><a xlink:title="6th_week">
<ellipse fill="#efff05" stroke="black" cx="347.423" cy="-594.456" rx="28.6953" ry="18"/>
<text text-anchor="middle" x="347.423" y="-590.756" font-family="Times,serif" font-size="14.00">3632</text>
</a>
</g>
</g>
<!-- 3632&#45;&gt;12301 -->
<g id="edge40" class="edge"><title>3632&#45;&gt;12301</title>
<path fill="none" stroke="black" d="M349.877,-576.256C353.671,-548.12 360.914,-494.392 364.689,-466.395"/>
</g>
<!-- 3962 -->
<g id="node8" class="node"><title>3962</title>
<g id="a_node8"><a xlink:title="6th_week">
<ellipse fill="#ffffff" stroke="black" cx="554.138" cy="-400.242" rx="28.6953" ry="18"/>
<text text-anchor="middle" x="554.138" y="-396.542" font-family="Times,serif" font-size="14.00">3962</text>
</a>
</g>
</g>
<!-- 3962&#45;&gt;12301 -->
<g id="edge6" class="edge"><title>3962&#45;&gt;12301</title>
<path fill="none" stroke="black" d="M527.342,-407.146C492.697,-416.071 432.56,-431.564 396.635,-440.819"/>
</g>
<!-- 4505 -->
<g id="node9" class="node"><title>4505</title>
<g id="a_node9"><a xlink:title="6th_week">
<ellipse fill="#efff05" stroke="black" cx="453.659" cy="-302.057" rx="28.6953" ry="18"/>
<text text-anchor="middle" x="453.659" y="-298.357" font-family="Times,serif" font-size="14.00">4505</text>
</a>
</g>
</g>
<!-- 4505&#45;&gt;12301 -->
<g id="edge25" class="edge"><title>4505&#45;&gt;12301</title>
<path fill="none" stroke="black" d="M443.562,-319.134C426.974,-347.186 394.133,-402.727 377.413,-431.003"/>
</g>
<!-- 35990 -->
<g id="node50" class="node"><title>35990</title>
<g id="a_node50"><a xlink:title="6th_week">
<ellipse fill="#efff05" stroke="black" cx="438.167" cy="-2461.44" rx="32.4942" ry="18"/>
<text text-anchor="middle" x="438.167" y="-2457.74" font-family="Times,serif" font-size="14.00">35990</text>
</a>
</g>
</g>
<!-- 4752&#45;&gt;35990 -->
<g id="edge36" class="edge"><title>4752&#45;&gt;35990</title>
<path fill="none" stroke="black" d="M559.958,-2318.51C534.115,-2348.84 478.529,-2414.07 452.351,-2444.8"/>
</g>
<!-- 4761 -->
<g id="node11" class="node"><title>4761</title>
<g id="a_node11"><a xlink:title="6th_week">
<ellipse fill="#efff05" stroke="black" cx="597.535" cy="-845.988" rx="28.6953" ry="18"/>
<text text-anchor="middle" x="597.535" y="-842.288" font-family="Times,serif" font-size="14.00">4761</text>
</a>
</g>
</g>
<!-- 36355 -->
<g id="node51" class="node"><title>36355</title>
<g id="a_node51"><a xlink:title="6th_week">
<ellipse fill="#efff05" stroke="black" cx="454.365" cy="-793.115" rx="32.4942" ry="18"/>
<text text-anchor="middle" x="454.365" y="-789.415" font-family="Times,serif" font-size="14.00">36355</text>
</a>
</g>
</g>
<!-- 4761&#45;&gt;36355 -->
<g id="edge13" class="edge"><title>4761&#45;&gt;36355</title>
<path fill="none" stroke="black" d="M572.596,-836.778C547.12,-827.369 507.681,-812.805 481.452,-803.118"/>
</g>
<!-- 32515 -->
<g id="node44" class="node"><title>32515</title>
<g id="a_node44"><a xlink:title="6th_week">
<ellipse fill="#ffffff" stroke="black" cx="663.829" cy="-1610.62" rx="32.4942" ry="18"/>
<text text-anchor="middle" x="663.829" y="-1606.92" font-family="Times,serif" font-size="14.00">32515</text>
</a>
</g>
</g>
<!-- 5485&#45;&gt;32515 -->
<g id="edge27" class="edge"><title>5485&#45;&gt;32515</title>
<path fill="none" stroke="black" d="M658.621,-1756.55C659.747,-1725.01 662.049,-1660.5 663.177,-1628.89"/>
</g>
<!-- 32993 -->
<g id="node45" class="node"><title>32993</title>
<g id="a_node45"><a xlink:title="6th_week">
<ellipse fill="#efff05" stroke="black" cx="586.035" cy="-1438.02" rx="32.4942" ry="18"/>
<text text-anchor="middle" x="586.035" y="-1434.32" font-family="Times,serif" font-size="14.00">32993</text>
</a>
</g>
</g>
<!-- 5485&#45;&gt;32993 -->
<g id="edge21" class="edge"><title>5485&#45;&gt;32993</title>
<path fill="none" stroke="black" d="M654.104,-1756.64C641.614,-1698.17 602.439,-1514.81 589.922,-1456.21"/>
</g>
<!-- 5597 -->
<g id="node13" class="node"><title>5597</title>
<g id="a_node13"><a xlink:title="6th_week">
<ellipse fill="grey" stroke="black" cx="219.359" cy="-374.261" rx="28.6953" ry="18"/>
<text text-anchor="middle" x="219.359" y="-370.561" font-family="Times,serif" font-size="14.00">5597</text>
</a>
</g>
</g>
<!-- 5597&#45;&gt;12301 -->
<g id="edge45" class="edge"><title>5597&#45;&gt;12301</title>
<path fill="none" stroke="black" d="M241.8,-385.525C269.086,-399.221 314.958,-422.246 342.985,-436.314"/>
</g>
<!-- 6313 -->
<g id="node14" class="node"><title>6313</title>
<g id="a_node14"><a xlink:title="6th_week">
<ellipse fill="grey" stroke="black" cx="207.446" cy="-502.033" rx="28.6953" ry="18"/>
<text text-anchor="middle" x="207.446" y="-498.333" font-family="Times,serif" font-size="14.00">6313</text>
</a>
</g>
</g>
<!-- 6313&#45;&gt;12301 -->
<g id="edge22" class="edge"><title>6313&#45;&gt;12301</title>
<path fill="none" stroke="black" d="M232.746,-493.539C261.763,-483.796 309.194,-467.871 339.247,-457.78"/>
</g>
<!-- 8466 -->
<g id="node16" class="node"><title>8466</title>
<g id="a_node16"><a xlink:title="6th_week">
<ellipse fill="grey" stroke="black" cx="862.388" cy="-2608.08" rx="28.6953" ry="18"/>
<text text-anchor="middle" x="862.388" y="-2604.38" font-family="Times,serif" font-size="14.00">8466</text>
</a>
</g>
</g>
<!-- 8466&#45;&gt;15056 -->
<g id="edge43" class="edge"><title>8466&#45;&gt;15056</title>
<path fill="none" stroke="black" d="M857.82,-2590.25C846.965,-2547.9 819.717,-2441.57 808.802,-2398.98"/>
</g>
<!-- 34092 -->
<g id="node46" class="node"><title>34092</title>
<g id="a_node46"><a xlink:title="6th_week">
<ellipse fill="#efff05" stroke="black" cx="904.772" cy="-2778.32" rx="32.4942" ry="18"/>
<text text-anchor="middle" x="904.772" y="-2774.62" font-family="Times,serif" font-size="14.00">34092</text>
</a>
</g>
</g>
<!-- 8466&#45;&gt;34092 -->
<g id="edge23" class="edge"><title>8466&#45;&gt;34092</title>
<path fill="none" stroke="black" d="M866.844,-2625.98C874.984,-2658.67 892.169,-2727.7 900.312,-2760.41"/>
</g>
<!-- 17007 -->
<g id="node23" class="node"><title>17007</title>
<g id="a_node23"><a xlink:title="6th_week">
<ellipse fill="#efff05" stroke="black" cx="249.247" cy="-565.915" rx="32.4942" ry="18"/>
<text text-anchor="middle" x="249.247" y="-562.215" font-family="Times,serif" font-size="14.00">17007</text>
</a>
</g>
</g>
<!-- 12301&#45;&gt;17007 -->
<g id="edge15" class="edge"><title>12301&#45;&gt;17007</title>
<path fill="none" stroke="black" d="M351.216,-464.27C328.721,-486.694 287.83,-527.454 265.267,-549.945"/>
</g>
<!-- 19390 -->
<g id="node26" class="node"><title>19390</title>
<g id="a_node26"><a xlink:title="6th_week">
<ellipse fill="#efff05" stroke="black" cx="276.915" cy="-297.874" rx="32.4942" ry="18"/>
<text text-anchor="middle" x="276.915" y="-294.174" font-family="Times,serif" font-size="14.00">19390</text>
</a>
</g>
</g>
<!-- 12301&#45;&gt;19390 -->
<g id="edge12" class="edge"><title>12301&#45;&gt;19390</title>
<path fill="none" stroke="black" d="M356.765,-431.155C339.459,-402.268 304.829,-344.467 287.419,-315.406"/>
</g>
<!-- 22001 -->
<g id="node29" class="node"><title>22001</title>
<g id="a_node29"><a xlink:title="6th_week">
<ellipse fill="#efff05" stroke="black" cx="553.683" cy="-476.325" rx="32.4942" ry="18"/>
<text text-anchor="middle" x="553.683" y="-472.625" font-family="Times,serif" font-size="14.00">22001</text>
</a>
</g>
</g>
<!-- 12301&#45;&gt;22001 -->
<g id="edge29" class="edge"><title>12301&#45;&gt;22001</title>
<path fill="none" stroke="black" d="M398.761,-453.158C433.173,-458.304 487.84,-466.479 522.19,-471.615"/>
</g>
<!-- 25374 -->
<g id="node35" class="node"><title>25374</title>
<g id="a_node35"><a xlink:title="6th_week">
<ellipse fill="grey" stroke="black" cx="494.069" cy="-553.397" rx="32.4942" ry="18"/>
<text text-anchor="middle" x="494.069" y="-549.697" font-family="Times,serif" font-size="14.00">25374</text>
</a>
</g>
</g>
<!-- 12301&#45;&gt;25374 -->
<g id="edge34" class="edge"><title>12301&#45;&gt;25374</title>
<path fill="none" stroke="black" d="M385.302,-463.465C409.436,-483.42 451.795,-518.444 475.913,-538.385"/>
</g>
<!-- 27904 -->
<g id="node38" class="node"><title>27904</title>
<g id="a_node38"><a xlink:title="6th_week">
<ellipse fill="#efff05" stroke="black" cx="192.166" cy="-297.156" rx="32.4942" ry="18"/>
<text text-anchor="middle" x="192.166" y="-293.456" font-family="Times,serif" font-size="14.00">27904</text>
</a>
</g>
</g>
<!-- 12301&#45;&gt;27904 -->
<g id="edge4" class="edge"><title>12301&#45;&gt;27904</title>
<path fill="none" stroke="black" d="M349.374,-433.088C315.843,-404.095 243.518,-341.558 209.95,-312.534"/>
</g>
<!-- 34710 -->
<g id="node47" class="node"><title>34710</title>
<g id="a_node47"><a xlink:title="6th_week">
<ellipse fill="#efff05" stroke="black" cx="371.876" cy="-267.496" rx="32.4942" ry="18"/>
<text text-anchor="middle" x="371.876" y="-263.796" font-family="Times,serif" font-size="14.00">34710</text>
</a>
</g>
</g>
<!-- 12301&#45;&gt;34710 -->
<g id="edge48" class="edge"><title>12301&#45;&gt;34710</title>
<path fill="none" stroke="black" d="M367.586,-430.415C368.497,-395.824 370.482,-320.446 371.397,-285.701"/>
</g>
<!-- 35353 -->
<g id="node48" class="node"><title>35353</title>
<g id="a_node48"><a xlink:title="6th_week">
<ellipse fill="#efff05" stroke="black" cx="473.728" cy="-224.721" rx="32.4942" ry="18"/>
<text text-anchor="middle" x="473.728" y="-221.021" font-family="Times,serif" font-size="14.00">35353</text>
</a>
</g>
</g>
<!-- 12301&#45;&gt;35353 -->
<g id="edge47" class="edge"><title>12301&#45;&gt;35353</title>
<path fill="none" stroke="black" d="M375.478,-430.871C395.408,-389.053 445.51,-283.928 465.401,-242.193"/>
</g>
<!-- 12301&#45;&gt;36355 -->
<g id="edge2" class="edge"><title>12301&#45;&gt;36355</title>
<path fill="none" stroke="black" d="M371.68,-466.471C386.758,-526.035 434.831,-715.945 449.842,-775.247"/>
</g>
<!-- 19860 -->
<g id="node27" class="node"><title>19860</title>
<g id="a_node27"><a xlink:title="6th_week">
<ellipse fill="#efff05" stroke="black" cx="523.154" cy="-1135.84" rx="32.4942" ry="18"/>
<text text-anchor="middle" x="523.154" y="-1132.14" font-family="Times,serif" font-size="14.00">19860</text>
</a>
</g>
</g>
<!-- 19860&#45;&gt;32993 -->
<g id="edge41" class="edge"><title>19860&#45;&gt;32993</title>
<path fill="none" stroke="black" d="M526.899,-1153.84C538.083,-1207.58 571.151,-1366.49 582.309,-1420.12"/>
</g>
<!-- 19860&#45;&gt;36355 -->
<g id="edge19" class="edge"><title>19860&#45;&gt;36355</title>
<path fill="none" stroke="black" d="M519.552,-1117.89C507.693,-1058.81 469.942,-870.723 458.014,-811.295"/>
</g>
<!-- 22171 -->
<g id="node31" class="node"><title>22171</title>
<g id="a_node31"><a xlink:title="6th_week">
<ellipse fill="#efff05" stroke="black" cx="1166.3" cy="-2274.06" rx="32.4942" ry="18"/>
<text text-anchor="middle" x="1166.3" y="-2270.36" font-family="Times,serif" font-size="14.00">22171</text>
</a>
</g>
</g>
<!-- 22171&#45;&gt;31479 -->
<g id="edge32" class="edge"><title>22171&#45;&gt;31479</title>
<path fill="none" stroke="black" d="M1139.07,-2264.19C1101.11,-2250.43 1032.67,-2225.64 994.707,-2211.88"/>
</g>
<!-- 25607 -->
<g id="node36" class="node"><title>25607</title>
<g id="a_node36"><a xlink:title="6th_week">
<ellipse fill="#20ff05" stroke="black" cx="546.017" cy="-56.2189" rx="32.4942" ry="18"/>
<text text-anchor="middle" x="546.017" y="-52.5189" font-family="Times,serif" font-size="14.00">25607</text>
</a>
</g>
</g>
<!-- 25607&#45;&gt;35353 -->
<g id="edge42" class="edge"><title>25607&#45;&gt;35353</title>
<path fill="none" stroke="black" d="M538.418,-73.933C524.534,-106.295 495.223,-174.617 481.334,-206.991"/>
</g>
<!-- 30380 -->
<g id="node42" class="node"><title>30380</title>
<g id="a_node42"><a xlink:title="6th_week">
<ellipse fill="grey" stroke="black" cx="32.3345" cy="-166.356" rx="32.4942" ry="18"/>
<text text-anchor="middle" x="32.3345" y="-162.656" font-family="Times,serif" font-size="14.00">30380</text>
</a>
</g>
</g>
<!-- 27904&#45;&gt;30380 -->
<g id="edge44" class="edge"><title>27904&#45;&gt;30380</title>
<path fill="none" stroke="black" d="M173.831,-282.152C143.164,-257.055 81.7993,-206.837 50.9477,-181.589"/>
</g>
</g>
</svg>
