<?xml version="1.0" encoding="UTF-8" standalone="no"?>
<!DOCTYPE svg PUBLIC "-//W3C//DTD SVG 1.1//EN"
 "http://www.w3.org/Graphics/SVG/1.1/DTD/svg11.dtd">
<!-- Generated by graphviz version 2.38.0 (20140413.2041)
 -->
<!-- Title: %3 Pages: 1 -->
<svg width="1908pt" height="2592pt"
 viewBox="0.00 0.00 1908.00 2592.00" xmlns="http://www.w3.org/2000/svg" xmlns:xlink="http://www.w3.org/1999/xlink">
<g id="graph0" class="graph" transform="scale(1 1) rotate(0) translate(4 2588)">
<title>%3</title>
<polygon fill="white" stroke="none" points="-4,4 -4,-2588 1904,-2588 1904,4 -4,4"/>
<!-- 509 -->
<g id="node1" class="node"><title>509</title>
<g id="a_node1"><a xlink:title="3rd_week">
<ellipse fill="#efff05" stroke="black" cx="921.923" cy="-1519.41" rx="27" ry="18"/>
<text text-anchor="middle" x="921.923" y="-1515.71" font-family="Times,serif" font-size="14.00">509</text>
</a>
</g>
</g>
<!-- 2826 -->
<g id="node6" class="node"><title>2826</title>
<g id="a_node6"><a xlink:title="3rd_week">
<ellipse fill="#efff05" stroke="black" cx="901.31" cy="-1780.61" rx="28.6953" ry="18"/>
<text text-anchor="middle" x="901.31" y="-1776.91" font-family="Times,serif" font-size="14.00">2826</text>
</a>
</g>
</g>
<!-- 509&#45;&gt;2826 -->
<g id="edge75" class="edge"><title>509&#45;&gt;2826</title>
<path fill="none" stroke="black" d="M920.474,-1537.78C916.68,-1585.85 906.492,-1714.95 902.73,-1762.61"/>
</g>
<!-- 6426 -->
<g id="node18" class="node"><title>6426</title>
<g id="a_node18"><a xlink:title="3rd_week">
<ellipse fill="grey" stroke="black" cx="1007.46" cy="-1610.01" rx="28.6953" ry="18"/>
<text text-anchor="middle" x="1007.46" y="-1606.31" font-family="Times,serif" font-size="14.00">6426</text>
</a>
</g>
</g>
<!-- 509&#45;&gt;6426 -->
<g id="edge74" class="edge"><title>509&#45;&gt;6426</title>
<path fill="none" stroke="black" d="M936.433,-1534.78C952.066,-1551.34 976.817,-1577.56 992.588,-1594.26"/>
</g>
<!-- 8197 -->
<g id="node22" class="node"><title>8197</title>
<g id="a_node22"><a xlink:title="3rd_week">
<ellipse fill="#efff05" stroke="black" cx="1037.56" cy="-1546.51" rx="28.6953" ry="18"/>
<text text-anchor="middle" x="1037.56" y="-1542.81" font-family="Times,serif" font-size="14.00">8197</text>
</a>
</g>
</g>
<!-- 509&#45;&gt;8197 -->
<g id="edge36" class="edge"><title>509&#45;&gt;8197</title>
<path fill="none" stroke="black" d="M947.586,-1525.42C966.216,-1529.79 991.377,-1535.69 1010.35,-1540.14"/>
</g>
<!-- 12789 -->
<g id="node33" class="node"><title>12789</title>
<g id="a_node33"><a xlink:title="3rd_week">
<ellipse fill="#efff05" stroke="black" cx="910.755" cy="-1642.14" rx="32.4942" ry="18"/>
<text text-anchor="middle" x="910.755" y="-1638.44" font-family="Times,serif" font-size="14.00">12789</text>
</a>
</g>
</g>
<!-- 509&#45;&gt;12789 -->
<g id="edge23" class="edge"><title>509&#45;&gt;12789</title>
<path fill="none" stroke="black" d="M920.275,-1537.52C918.163,-1560.72 914.524,-1600.71 912.409,-1623.95"/>
</g>
<!-- 18946 -->
<g id="node55" class="node"><title>18946</title>
<g id="a_node55"><a xlink:title="3rd_week">
<ellipse fill="grey" stroke="black" cx="817.279" cy="-1601.09" rx="32.4942" ry="18"/>
<text text-anchor="middle" x="817.279" y="-1597.39" font-family="Times,serif" font-size="14.00">18946</text>
</a>
</g>
</g>
<!-- 509&#45;&gt;18946 -->
<g id="edge79" class="edge"><title>509&#45;&gt;18946</title>
<path fill="none" stroke="black" d="M904.172,-1533.26C885.279,-1548.01 855.501,-1571.25 836.18,-1586.34"/>
</g>
<!-- 21254 -->
<g id="node65" class="node"><title>21254</title>
<g id="a_node65"><a xlink:title="3rd_week">
<ellipse fill="grey" stroke="black" cx="794.754" cy="-1531.67" rx="32.4942" ry="18"/>
<text text-anchor="middle" x="794.754" y="-1527.97" font-family="Times,serif" font-size="14.00">21254</text>
</a>
</g>
</g>
<!-- 509&#45;&gt;21254 -->
<g id="edge57" class="edge"><title>509&#45;&gt;21254</title>
<path fill="none" stroke="black" d="M894.954,-1522.01C875.123,-1523.92 848.083,-1526.53 827.091,-1528.55"/>
</g>
<!-- 24483 -->
<g id="node74" class="node"><title>24483</title>
<g id="a_node74"><a xlink:title="3rd_week">
<ellipse fill="#efff05" stroke="black" cx="917.597" cy="-1283.96" rx="32.4942" ry="18"/>
<text text-anchor="middle" x="917.597" y="-1280.26" font-family="Times,serif" font-size="14.00">24483</text>
</a>
</g>
</g>
<!-- 509&#45;&gt;24483 -->
<g id="edge10" class="edge"><title>509&#45;&gt;24483</title>
<path fill="none" stroke="black" d="M921.591,-1501.32C920.786,-1457.5 918.737,-1345.99 917.931,-1302.1"/>
</g>
<!-- 1206 -->
<g id="node2" class="node"><title>1206</title>
<g id="a_node2"><a xlink:title="3rd_week">
<ellipse fill="#efff05" stroke="black" cx="517.204" cy="-1254.62" rx="28.6953" ry="18"/>
<text text-anchor="middle" x="517.204" y="-1250.92" font-family="Times,serif" font-size="14.00">1206</text>
</a>
</g>
</g>
<!-- 13517 -->
<g id="node35" class="node"><title>13517</title>
<g id="a_node35"><a xlink:title="3rd_week">
<ellipse fill="#efff05" stroke="black" cx="339.614" cy="-1248.2" rx="32.4942" ry="18"/>
<text text-anchor="middle" x="339.614" y="-1244.5" font-family="Times,serif" font-size="14.00">13517</text>
</a>
</g>
</g>
<!-- 1206&#45;&gt;13517 -->
<g id="edge63" class="edge"><title>1206&#45;&gt;13517</title>
<path fill="none" stroke="black" d="M488.276,-1253.57C456.431,-1252.42 405.358,-1250.57 372.145,-1249.37"/>
</g>
<!-- 23316 -->
<g id="node70" class="node"><title>23316</title>
<g id="a_node70"><a xlink:title="3rd_week">
<ellipse fill="#efff05" stroke="black" cx="719.862" cy="-1259.18" rx="32.4942" ry="18"/>
<text text-anchor="middle" x="719.862" y="-1255.48" font-family="Times,serif" font-size="14.00">23316</text>
</a>
</g>
</g>
<!-- 1206&#45;&gt;23316 -->
<g id="edge77" class="edge"><title>1206&#45;&gt;23316</title>
<path fill="none" stroke="black" d="M545.81,-1255.26C583.125,-1256.1 648.248,-1257.57 687.38,-1258.45"/>
</g>
<!-- 1250 -->
<g id="node3" class="node"><title>1250</title>
<g id="a_node3"><a xlink:title="3rd_week">
<ellipse fill="#efff05" stroke="black" cx="1297.72" cy="-428.372" rx="28.6953" ry="18"/>
<text text-anchor="middle" x="1297.72" y="-424.672" font-family="Times,serif" font-size="14.00">1250</text>
</a>
</g>
</g>
<!-- 26113 -->
<g id="node78" class="node"><title>26113</title>
<g id="a_node78"><a xlink:title="3rd_week">
<ellipse fill="#efff05" stroke="black" cx="1257.18" cy="-561.057" rx="32.4942" ry="18"/>
<text text-anchor="middle" x="1257.18" y="-557.357" font-family="Times,serif" font-size="14.00">26113</text>
</a>
</g>
</g>
<!-- 1250&#45;&gt;26113 -->
<g id="edge35" class="edge"><title>1250&#45;&gt;26113</title>
<path fill="none" stroke="black" d="M1292.26,-446.266C1284.52,-471.59 1270.45,-517.622 1262.69,-543.022"/>
</g>
<!-- 1584 -->
<g id="node4" class="node"><title>1584</title>
<g id="a_node4"><a xlink:title="3rd_week">
<ellipse fill="#efff05" stroke="black" cx="1161.63" cy="-950.279" rx="28.6953" ry="18"/>
<text text-anchor="middle" x="1161.63" y="-946.579" font-family="Times,serif" font-size="14.00">1584</text>
</a>
</g>
</g>
<!-- 8895 -->
<g id="node27" class="node"><title>8895</title>
<g id="a_node27"><a xlink:title="3rd_week">
<ellipse fill="#efff05" stroke="black" cx="1217.19" cy="-839.763" rx="28.6953" ry="18"/>
<text text-anchor="middle" x="1217.19" y="-836.063" font-family="Times,serif" font-size="14.00">8895</text>
</a>
</g>
</g>
<!-- 1584&#45;&gt;8895 -->
<g id="edge20" class="edge"><title>1584&#45;&gt;8895</title>
<path fill="none" stroke="black" d="M1170.31,-933.011C1180.69,-912.37 1197.96,-878.022 1208.39,-857.274"/>
</g>
<!-- 2161 -->
<g id="node5" class="node"><title>2161</title>
<g id="a_node5"><a xlink:title="3rd_week">
<ellipse fill="grey" stroke="black" cx="1279.87" cy="-767.961" rx="28.6953" ry="18"/>
<text text-anchor="middle" x="1279.87" y="-764.261" font-family="Times,serif" font-size="14.00">2161</text>
</a>
</g>
</g>
<!-- 2161&#45;&gt;8895 -->
<g id="edge55" class="edge"><title>2161&#45;&gt;8895</title>
<path fill="none" stroke="black" d="M1265.96,-783.896C1255.57,-795.795 1241.44,-811.984 1231.06,-823.872"/>
</g>
<!-- 9042 -->
<g id="node28" class="node"><title>9042</title>
<g id="a_node28"><a xlink:title="3rd_week">
<ellipse fill="#efff05" stroke="black" cx="975.679" cy="-1878.9" rx="28.6953" ry="18"/>
<text text-anchor="middle" x="975.679" y="-1875.2" font-family="Times,serif" font-size="14.00">9042</text>
</a>
</g>
</g>
<!-- 2826&#45;&gt;9042 -->
<g id="edge31" class="edge"><title>2826&#45;&gt;9042</title>
<path fill="none" stroke="black" d="M913.926,-1797.29C927.684,-1815.47 949.565,-1844.39 963.25,-1862.47"/>
</g>
<!-- 14348 -->
<g id="node44" class="node"><title>14348</title>
<g id="a_node44"><a xlink:title="3rd_week">
<ellipse fill="#efff05" stroke="black" cx="1027.1" cy="-1825.28" rx="32.4942" ry="18"/>
<text text-anchor="middle" x="1027.1" y="-1821.58" font-family="Times,serif" font-size="14.00">14348</text>
</a>
</g>
</g>
<!-- 2826&#45;&gt;14348 -->
<g id="edge26" class="edge"><title>2826&#45;&gt;14348</title>
<path fill="none" stroke="black" d="M926.462,-1789.55C947.54,-1797.03 977.593,-1807.7 999.364,-1815.43"/>
</g>
<!-- 17022 -->
<g id="node47" class="node"><title>17022</title>
<g id="a_node47"><a xlink:title="3rd_week">
<ellipse fill="#efff05" stroke="black" cx="785.387" cy="-1809" rx="32.4942" ry="18"/>
<text text-anchor="middle" x="785.387" y="-1805.3" font-family="Times,serif" font-size="14.00">17022</text>
</a>
</g>
</g>
<!-- 2826&#45;&gt;17022 -->
<g id="edge56" class="edge"><title>2826&#45;&gt;17022</title>
<path fill="none" stroke="black" d="M874.423,-1787.2C856.766,-1791.52 833.646,-1797.18 815.391,-1801.65"/>
</g>
<!-- 18787 -->
<g id="node54" class="node"><title>18787</title>
<g id="a_node54"><a xlink:title="3rd_week">
<ellipse fill="#efff05" stroke="black" cx="883.676" cy="-1895.55" rx="32.4942" ry="18"/>
<text text-anchor="middle" x="883.676" y="-1891.85" font-family="Times,serif" font-size="14.00">18787</text>
</a>
</g>
</g>
<!-- 2826&#45;&gt;18787 -->
<g id="edge32" class="edge"><title>2826&#45;&gt;18787</title>
<path fill="none" stroke="black" d="M898.555,-1798.57C895.261,-1820.04 889.781,-1855.76 886.47,-1877.33"/>
</g>
<!-- 19174 -->
<g id="node56" class="node"><title>19174</title>
<g id="a_node56"><a xlink:title="3rd_week">
<ellipse fill="#efff05" stroke="black" cx="793.239" cy="-1868.42" rx="32.4942" ry="18"/>
<text text-anchor="middle" x="793.239" y="-1864.72" font-family="Times,serif" font-size="14.00">19174</text>
</a>
</g>
</g>
<!-- 2826&#45;&gt;19174 -->
<g id="edge70" class="edge"><title>2826&#45;&gt;19174</title>
<path fill="none" stroke="black" d="M883.464,-1795.11C863.68,-1811.19 831.918,-1836.99 811.836,-1853.31"/>
</g>
<!-- 21294 -->
<g id="node66" class="node"><title>21294</title>
<g id="a_node66"><a xlink:title="3rd_week">
<ellipse fill="#efff05" stroke="black" cx="896.673" cy="-2010.57" rx="32.4942" ry="18"/>
<text text-anchor="middle" x="896.673" y="-2006.87" font-family="Times,serif" font-size="14.00">21294</text>
</a>
</g>
</g>
<!-- 2826&#45;&gt;21294 -->
<g id="edge53" class="edge"><title>2826&#45;&gt;21294</title>
<path fill="none" stroke="black" d="M900.946,-1798.66C900.082,-1841.54 897.911,-1949.17 897.042,-1992.29"/>
</g>
<!-- 3239 -->
<g id="node7" class="node"><title>3239</title>
<g id="a_node7"><a xlink:title="3rd_week">
<ellipse fill="#efff05" stroke="black" cx="1863.41" cy="-1047.55" rx="28.6953" ry="18"/>
<text text-anchor="middle" x="1863.41" y="-1043.85" font-family="Times,serif" font-size="14.00">3239</text>
</a>
</g>
</g>
<!-- 8692 -->
<g id="node24" class="node"><title>8692</title>
<g id="a_node24"><a xlink:title="3rd_week">
<ellipse fill="#efff05" stroke="black" cx="1739.61" cy="-1020.01" rx="28.6953" ry="18"/>
<text text-anchor="middle" x="1739.61" y="-1016.31" font-family="Times,serif" font-size="14.00">8692</text>
</a>
</g>
</g>
<!-- 3239&#45;&gt;8692 -->
<g id="edge51" class="edge"><title>3239&#45;&gt;8692</title>
<path fill="none" stroke="black" d="M1836.24,-1041.51C1815.6,-1036.91 1787.34,-1030.63 1766.71,-1026.04"/>
</g>
<!-- 3372 -->
<g id="node8" class="node"><title>3372</title>
<g id="a_node8"><a xlink:title="3rd_week">
<ellipse fill="#efff05" stroke="black" cx="164.508" cy="-1241.95" rx="28.6953" ry="18"/>
<text text-anchor="middle" x="164.508" y="-1238.25" font-family="Times,serif" font-size="14.00">3372</text>
</a>
</g>
</g>
<!-- 3372&#45;&gt;13517 -->
<g id="edge41" class="edge"><title>3372&#45;&gt;13517</title>
<path fill="none" stroke="black" d="M193.423,-1242.98C224.702,-1244.1 274.459,-1245.87 307.082,-1247.04"/>
</g>
<!-- 25792 -->
<g id="node77" class="node"><title>25792</title>
<g id="a_node77"><a xlink:title="3rd_week">
<ellipse fill="#efff05" stroke="black" cx="32.988" cy="-1237.61" rx="32.4942" ry="18"/>
<text text-anchor="middle" x="32.988" y="-1233.91" font-family="Times,serif" font-size="14.00">25792</text>
</a>
</g>
</g>
<!-- 3372&#45;&gt;25792 -->
<g id="edge52" class="edge"><title>3372&#45;&gt;25792</title>
<path fill="none" stroke="black" d="M135.645,-1241C114.926,-1240.32 86.983,-1239.39 65.4813,-1238.68"/>
</g>
<!-- 3634 -->
<g id="node9" class="node"><title>3634</title>
<g id="a_node9"><a xlink:title="3rd_week">
<ellipse fill="#efff05" stroke="black" cx="1214.12" cy="-485.025" rx="28.6953" ry="18"/>
<text text-anchor="middle" x="1214.12" y="-481.325" font-family="Times,serif" font-size="14.00">3634</text>
</a>
</g>
</g>
<!-- 3634&#45;&gt;26113 -->
<g id="edge64" class="edge"><title>3634&#45;&gt;26113</title>
<path fill="none" stroke="black" d="M1223.89,-502.278C1230.94,-514.721 1240.41,-531.445 1247.45,-543.872"/>
</g>
<!-- 3665 -->
<g id="node10" class="node"><title>3665</title>
<g id="a_node10"><a xlink:title="3rd_week">
<ellipse fill="#efff05" stroke="black" cx="1128.37" cy="-388.348" rx="28.6953" ry="18"/>
<text text-anchor="middle" x="1128.37" y="-384.648" font-family="Times,serif" font-size="14.00">3665</text>
</a>
</g>
</g>
<!-- 14156 -->
<g id="node41" class="node"><title>14156</title>
<g id="a_node41"><a xlink:title="3rd_week">
<ellipse fill="#efff05" stroke="black" cx="1032.13" cy="-277.144" rx="32.4942" ry="18"/>
<text text-anchor="middle" x="1032.13" y="-273.444" font-family="Times,serif" font-size="14.00">14156</text>
</a>
</g>
</g>
<!-- 3665&#45;&gt;14156 -->
<g id="edge60" class="edge"><title>3665&#45;&gt;14156</title>
<path fill="none" stroke="black" d="M1114.58,-372.416C1096.39,-351.396 1064.54,-314.594 1046.21,-293.409"/>
</g>
<!-- 16160 -->
<g id="node45" class="node"><title>16160</title>
<g id="a_node45"><a xlink:title="3rd_week">
<ellipse fill="grey" stroke="black" cx="1114.88" cy="-251.116" rx="32.4942" ry="18"/>
<text text-anchor="middle" x="1114.88" y="-247.416" font-family="Times,serif" font-size="14.00">16160</text>
</a>
</g>
</g>
<!-- 3665&#45;&gt;16160 -->
<g id="edge59" class="edge"><title>3665&#45;&gt;16160</title>
<path fill="none" stroke="black" d="M1126.58,-370.125C1124,-343.877 1119.26,-295.704 1116.68,-269.415"/>
</g>
<!-- 3665&#45;&gt;26113 -->
<g id="edge42" class="edge"><title>3665&#45;&gt;26113</title>
<path fill="none" stroke="black" d="M1140.72,-404.908C1165.28,-437.836 1220,-511.2 1244.68,-544.293"/>
</g>
<!-- 8280 -->
<g id="node81" class="node"><title>8280</title>
<g id="a_node81"><a xlink:title="3rd_week">
<ellipse fill="grey" stroke="black" cx="997.38" cy="-337.635" rx="28.6953" ry="18"/>
<text text-anchor="middle" x="997.38" y="-333.935" font-family="Times,serif" font-size="14.00">8280</text>
</a>
</g>
</g>
<!-- 3665&#45;&gt;8280 -->
<g id="edge21" class="edge"><title>3665&#45;&gt;8280</title>
<path fill="none" stroke="black" d="M1103.73,-378.81C1080.31,-369.743 1045.29,-356.184 1021.91,-347.131"/>
</g>
<!-- 3686 -->
<g id="node11" class="node"><title>3686</title>
<g id="a_node11"><a xlink:title="3rd_week">
<ellipse fill="#efff05" stroke="black" cx="831.615" cy="-1216.23" rx="28.6953" ry="18"/>
<text text-anchor="middle" x="831.615" y="-1212.53" font-family="Times,serif" font-size="14.00">3686</text>
</a>
</g>
</g>
<!-- 3686&#45;&gt;24483 -->
<g id="edge73" class="edge"><title>3686&#45;&gt;24483</title>
<path fill="none" stroke="black" d="M849.849,-1230.59C864.244,-1241.93 884.255,-1257.69 898.795,-1269.15"/>
</g>
<!-- 3867 -->
<g id="node12" class="node"><title>3867</title>
<g id="a_node12"><a xlink:title="3rd_week">
<ellipse fill="#efff05" stroke="black" cx="1380.54" cy="-597.269" rx="28.6953" ry="18"/>
<text text-anchor="middle" x="1380.54" y="-593.569" font-family="Times,serif" font-size="14.00">3867</text>
</a>
</g>
</g>
<!-- 3867&#45;&gt;26113 -->
<g id="edge17" class="edge"><title>3867&#45;&gt;26113</title>
<path fill="none" stroke="black" d="M1354.38,-589.59C1334.43,-583.735 1306.97,-575.674 1286.33,-569.613"/>
</g>
<!-- 4750 -->
<g id="node13" class="node"><title>4750</title>
<g id="a_node13"><a xlink:title="3rd_week">
<ellipse fill="grey" stroke="black" cx="1502.46" cy="-806.664" rx="28.6953" ry="18"/>
<text text-anchor="middle" x="1502.46" y="-802.964" font-family="Times,serif" font-size="14.00">4750</text>
</a>
</g>
</g>
<!-- 5896 -->
<g id="node17" class="node"><title>5896</title>
<g id="a_node17"><a xlink:title="3rd_week">
<ellipse fill="grey" stroke="black" cx="1357.72" cy="-821.782" rx="28.6953" ry="18"/>
<text text-anchor="middle" x="1357.72" y="-818.082" font-family="Times,serif" font-size="14.00">5896</text>
</a>
</g>
</g>
<!-- 4750&#45;&gt;5896 -->
<g id="edge67" class="edge"><title>4750&#45;&gt;5896</title>
<path fill="none" stroke="black" d="M1474.21,-809.615C1448.87,-812.261 1411.87,-816.127 1386.4,-818.787"/>
</g>
<!-- 4768 -->
<g id="node14" class="node"><title>4768</title>
<g id="a_node14"><a xlink:title="3rd_week">
<ellipse fill="#efff05" stroke="black" cx="1354.61" cy="-869.92" rx="28.6953" ry="18"/>
<text text-anchor="middle" x="1354.61" y="-866.22" font-family="Times,serif" font-size="14.00">4768</text>
</a>
</g>
</g>
<!-- 4768&#45;&gt;8895 -->
<g id="edge66" class="edge"><title>4768&#45;&gt;8895</title>
<path fill="none" stroke="black" d="M1327.46,-863.962C1303.37,-858.675 1268.36,-850.992 1244.28,-845.709"/>
</g>
<!-- 21760 -->
<g id="node67" class="node"><title>21760</title>
<g id="a_node67"><a xlink:title="3rd_week">
<ellipse fill="#efff05" stroke="black" cx="1485.2" cy="-931.217" rx="32.4942" ry="18"/>
<text text-anchor="middle" x="1485.2" y="-927.517" font-family="Times,serif" font-size="14.00">21760</text>
</a>
</g>
</g>
<!-- 4768&#45;&gt;21760 -->
<g id="edge34" class="edge"><title>4768&#45;&gt;21760</title>
<path fill="none" stroke="black" d="M1377.65,-880.738C1400.79,-891.598 1436.33,-908.281 1460.15,-919.463"/>
</g>
<!-- 4987 -->
<g id="node15" class="node"><title>4987</title>
<g id="a_node15"><a xlink:title="6th_week">
<ellipse fill="#efff05" stroke="black" cx="1078.23" cy="-2295.6" rx="28.6953" ry="18"/>
<text text-anchor="middle" x="1078.23" y="-2291.9" font-family="Times,serif" font-size="14.00">4987</text>
</a>
</g>
</g>
<!-- 6798 -->
<g id="node20" class="node"><title>6798</title>
<g id="a_node20"><a xlink:title="6th_week">
<ellipse fill="grey" stroke="black" cx="1119.41" cy="-2428.44" rx="28.6953" ry="18"/>
<text text-anchor="middle" x="1119.41" y="-2424.74" font-family="Times,serif" font-size="14.00">6798</text>
</a>
</g>
</g>
<!-- 4987&#45;&gt;6798 -->
<g id="edge61" class="edge"><title>4987&#45;&gt;6798</title>
<path fill="none" stroke="black" d="M1083.78,-2313.52C1091.64,-2338.87 1105.93,-2384.96 1113.81,-2410.39"/>
</g>
<!-- 8874 -->
<g id="node26" class="node"><title>8874</title>
<g id="a_node26"><a xlink:title="6th_week">
<ellipse fill="#efff05" stroke="black" cx="986.318" cy="-2140.68" rx="28.6953" ry="18"/>
<text text-anchor="middle" x="986.318" y="-2136.98" font-family="Times,serif" font-size="14.00">8874</text>
</a>
</g>
</g>
<!-- 4987&#45;&gt;8874 -->
<g id="edge2" class="edge"><title>4987&#45;&gt;8874</title>
<path fill="none" stroke="black" d="M1068.22,-2278.73C1050.63,-2249.09 1014.37,-2187.97 996.597,-2158.01"/>
</g>
<!-- 23383 -->
<g id="node71" class="node"><title>23383</title>
<g id="a_node71"><a xlink:title="6th_week">
<ellipse fill="#efff05" stroke="black" cx="1171.76" cy="-2381.27" rx="32.4942" ry="18"/>
<text text-anchor="middle" x="1171.76" y="-2377.57" font-family="Times,serif" font-size="14.00">23383</text>
</a>
</g>
</g>
<!-- 4987&#45;&gt;23383 -->
<g id="edge29" class="edge"><title>4987&#45;&gt;23383</title>
<path fill="none" stroke="black" d="M1094.52,-2310.53C1111.37,-2325.96 1137.58,-2349.96 1154.71,-2365.65"/>
</g>
<!-- 5661 -->
<g id="node16" class="node"><title>5661</title>
<g id="a_node16"><a xlink:title="3rd_week">
<ellipse fill="#efff05" stroke="black" cx="1837.63" cy="-1098.86" rx="28.6953" ry="18"/>
<text text-anchor="middle" x="1837.63" y="-1095.16" font-family="Times,serif" font-size="14.00">5661</text>
</a>
</g>
</g>
<!-- 5661&#45;&gt;8692 -->
<g id="edge68" class="edge"><title>5661&#45;&gt;8692</title>
<path fill="none" stroke="black" d="M1819.65,-1084.4C1801.97,-1070.17 1775.12,-1048.57 1757.47,-1034.38"/>
</g>
<!-- 5896&#45;&gt;8895 -->
<g id="edge11" class="edge"><title>5896&#45;&gt;8895</title>
<path fill="none" stroke="black" d="M1329.62,-825.378C1305.11,-828.514 1269.74,-833.039 1245.24,-836.174"/>
</g>
<!-- 6427 -->
<g id="node19" class="node"><title>6427</title>
<g id="a_node19"><a xlink:title="3rd_week">
<ellipse fill="#efff05" stroke="black" cx="1140.14" cy="-481.961" rx="28.6953" ry="18"/>
<text text-anchor="middle" x="1140.14" y="-478.261" font-family="Times,serif" font-size="14.00">6427</text>
</a>
</g>
</g>
<!-- 6427&#45;&gt;26113 -->
<g id="edge33" class="edge"><title>6427&#45;&gt;26113</title>
<path fill="none" stroke="black" d="M1159.73,-495.2C1180.94,-509.536 1214.65,-532.315 1236.34,-546.974"/>
</g>
<!-- 1971 -->
<g id="node82" class="node"><title>1971</title>
<g id="a_node82"><a xlink:title="6th_week">
<ellipse fill="#ffffff" stroke="black" cx="1170.26" cy="-2566.1" rx="28.6953" ry="18"/>
<text text-anchor="middle" x="1170.26" y="-2562.4" font-family="Times,serif" font-size="14.00">1971</text>
</a>
</g>
</g>
<!-- 6798&#45;&gt;1971 -->
<g id="edge76" class="edge"><title>6798&#45;&gt;1971</title>
<path fill="none" stroke="black" d="M1125.95,-2446.16C1135.72,-2472.59 1153.99,-2522.06 1163.74,-2548.45"/>
</g>
<!-- 8104 -->
<g id="node21" class="node"><title>8104</title>
<g id="a_node21"><a xlink:title="3rd_week">
<ellipse fill="#efff05" stroke="black" cx="1462.58" cy="-306.871" rx="28.6953" ry="18"/>
<text text-anchor="middle" x="1462.58" y="-303.171" font-family="Times,serif" font-size="14.00">8104</text>
</a>
</g>
</g>
<!-- 13876 -->
<g id="node38" class="node"><title>13876</title>
<g id="a_node38"><a xlink:title="3rd_week">
<ellipse fill="#efff05" stroke="black" cx="1377.57" cy="-414.14" rx="32.4942" ry="18"/>
<text text-anchor="middle" x="1377.57" y="-410.44" font-family="Times,serif" font-size="14.00">13876</text>
</a>
</g>
</g>
<!-- 8104&#45;&gt;13876 -->
<g id="edge25" class="edge"><title>8104&#45;&gt;13876</title>
<path fill="none" stroke="black" d="M1449.67,-323.163C1433.78,-343.208 1406.95,-377.066 1390.88,-397.341"/>
</g>
<!-- 8339 -->
<g id="node23" class="node"><title>8339</title>
<g id="a_node23"><a xlink:title="3rd_week">
<ellipse fill="#efff05" stroke="black" cx="796.495" cy="-2108.8" rx="28.6953" ry="18"/>
<text text-anchor="middle" x="796.495" y="-2105.1" font-family="Times,serif" font-size="14.00">8339</text>
</a>
</g>
</g>
<!-- 9657 -->
<g id="node30" class="node"><title>9657</title>
<g id="a_node30"><a xlink:title="6th_week">
<ellipse fill="#efff05" stroke="black" cx="688.392" cy="-2206.9" rx="28.6953" ry="18"/>
<text text-anchor="middle" x="688.392" y="-2203.2" font-family="Times,serif" font-size="14.00">9657</text>
</a>
</g>
</g>
<!-- 8339&#45;&gt;9657 -->
<g id="edge39" class="edge"><title>8339&#45;&gt;9657</title>
<path fill="none" stroke="black" d="M780.077,-2123.7C759.758,-2142.14 725.355,-2173.36 704.965,-2191.86"/>
</g>
<!-- 8339&#45;&gt;21294 -->
<g id="edge48" class="edge"><title>8339&#45;&gt;21294</title>
<path fill="none" stroke="black" d="M812.148,-2093.45C830.748,-2075.21 861.627,-2044.93 880.467,-2026.46"/>
</g>
<!-- 17246 -->
<g id="node49" class="node"><title>17246</title>
<g id="a_node49"><a xlink:title="3rd_week">
<ellipse fill="grey" stroke="black" cx="1867.64" cy="-990.538" rx="32.4942" ry="18"/>
<text text-anchor="middle" x="1867.64" y="-986.838" font-family="Times,serif" font-size="14.00">17246</text>
</a>
</g>
</g>
<!-- 8692&#45;&gt;17246 -->
<g id="edge47" class="edge"><title>8692&#45;&gt;17246</title>
<path fill="none" stroke="black" d="M1766.76,-1013.76C1787.46,-1008.99 1815.96,-1002.43 1837.39,-997.5"/>
</g>
<!-- 25445 -->
<g id="node76" class="node"><title>25445</title>
<g id="a_node76"><a xlink:title="3rd_week">
<ellipse fill="#efff05" stroke="black" cx="1556.01" cy="-977.243" rx="32.4942" ry="18"/>
<text text-anchor="middle" x="1556.01" y="-973.543" font-family="Times,serif" font-size="14.00">25445</text>
</a>
</g>
</g>
<!-- 8692&#45;&gt;25445 -->
<g id="edge19" class="edge"><title>8692&#45;&gt;25445</title>
<path fill="none" stroke="black" d="M1712.52,-1013.7C1678.81,-1005.84 1621.4,-992.472 1586.27,-984.29"/>
</g>
<!-- 8838 -->
<g id="node25" class="node"><title>8838</title>
<g id="a_node25"><a xlink:title="3rd_week">
<ellipse fill="#efff05" stroke="black" cx="1460.33" cy="-46.4413" rx="28.6953" ry="18"/>
<text text-anchor="middle" x="1460.33" y="-42.7413" font-family="Times,serif" font-size="14.00">8838</text>
</a>
</g>
</g>
<!-- 13840 -->
<g id="node37" class="node"><title>13840</title>
<g id="a_node37"><a xlink:title="3rd_week">
<ellipse fill="#efff05" stroke="black" cx="1375.47" cy="-178.933" rx="32.4942" ry="18"/>
<text text-anchor="middle" x="1375.47" y="-175.233" font-family="Times,serif" font-size="14.00">13840</text>
</a>
</g>
</g>
<!-- 8838&#45;&gt;13840 -->
<g id="edge7" class="edge"><title>8838&#45;&gt;13840</title>
<path fill="none" stroke="black" d="M1449.58,-63.2215C1433.35,-88.5677 1402.74,-136.359 1386.4,-161.871"/>
</g>
<!-- 8874&#45;&gt;21294 -->
<g id="edge49" class="edge"><title>8874&#45;&gt;21294</title>
<path fill="none" stroke="black" d="M974.782,-2123.94C957.664,-2099.09 925.706,-2052.71 908.45,-2027.66"/>
</g>
<!-- 9208 -->
<g id="node29" class="node"><title>9208</title>
<g id="a_node29"><a xlink:title="3rd_week">
<ellipse fill="#efff05" stroke="black" cx="1066.63" cy="-1065.9" rx="28.6953" ry="18"/>
<text text-anchor="middle" x="1066.63" y="-1062.2" font-family="Times,serif" font-size="14.00">9208</text>
</a>
</g>
</g>
<!-- 8895&#45;&gt;9208 -->
<g id="edge28" class="edge"><title>8895&#45;&gt;9208</title>
<path fill="none" stroke="black" d="M1206.12,-856.391C1178.28,-898.21 1105.58,-1007.4 1077.72,-1049.24"/>
</g>
<!-- 10433 -->
<g id="node31" class="node"><title>10433</title>
<g id="a_node31"><a xlink:title="3rd_week">
<ellipse fill="#ffffff" stroke="black" cx="1097.94" cy="-793.437" rx="32.4942" ry="18"/>
<text text-anchor="middle" x="1097.94" y="-789.737" font-family="Times,serif" font-size="14.00">10433</text>
</a>
</g>
</g>
<!-- 8895&#45;&gt;10433 -->
<g id="edge18" class="edge"><title>8895&#45;&gt;10433</title>
<path fill="none" stroke="black" d="M1192.77,-830.276C1173.01,-822.6 1145.21,-811.801 1124.82,-803.879"/>
</g>
<!-- 18779 -->
<g id="node53" class="node"><title>18779</title>
<g id="a_node53"><a xlink:title="3rd_week">
<ellipse fill="#efff05" stroke="black" cx="1385.52" cy="-935.882" rx="32.4942" ry="18"/>
<text text-anchor="middle" x="1385.52" y="-932.182" font-family="Times,serif" font-size="14.00">18779</text>
</a>
</g>
</g>
<!-- 8895&#45;&gt;18779 -->
<g id="edge82" class="edge"><title>8895&#45;&gt;18779</title>
<path fill="none" stroke="black" d="M1238.51,-851.936C1270.36,-870.122 1330.1,-904.236 1362.77,-922.888"/>
</g>
<!-- 22574 -->
<g id="node69" class="node"><title>22574</title>
<g id="a_node69"><a xlink:title="3rd_week">
<ellipse fill="#efff05" stroke="black" cx="1258.49" cy="-965.621" rx="32.4942" ry="18"/>
<text text-anchor="middle" x="1258.49" y="-961.921" font-family="Times,serif" font-size="14.00">22574</text>
</a>
</g>
</g>
<!-- 8895&#45;&gt;22574 -->
<g id="edge8" class="edge"><title>8895&#45;&gt;22574</title>
<path fill="none" stroke="black" d="M1223.02,-857.528C1230.85,-881.38 1244.68,-923.526 1252.56,-947.539"/>
</g>
<!-- 24817 -->
<g id="node75" class="node"><title>24817</title>
<g id="a_node75"><a xlink:title="3rd_week">
<ellipse fill="#ffffff" stroke="black" cx="1088.2" cy="-867.13" rx="32.4942" ry="18"/>
<text text-anchor="middle" x="1088.2" y="-863.43" font-family="Times,serif" font-size="14.00">24817</text>
</a>
</g>
</g>
<!-- 8895&#45;&gt;24817 -->
<g id="edge81" class="edge"><title>8895&#45;&gt;24817</title>
<path fill="none" stroke="black" d="M1189.84,-845.567C1168.98,-849.991 1140.27,-856.083 1118.68,-860.664"/>
</g>
<!-- 8895&#45;&gt;26113 -->
<g id="edge43" class="edge"><title>8895&#45;&gt;26113</title>
<path fill="none" stroke="black" d="M1219.82,-821.476C1227.08,-770.855 1247.39,-629.314 1254.6,-579.048"/>
</g>
<!-- 9208&#45;&gt;24483 -->
<g id="edge5" class="edge"><title>9208&#45;&gt;24483</title>
<path fill="none" stroke="black" d="M1055.18,-1082.64C1027.51,-1123.13 957.21,-1225.99 929.289,-1266.85"/>
</g>
<!-- 11671 -->
<g id="node32" class="node"><title>11671</title>
<g id="a_node32"><a xlink:title="3rd_week">
<ellipse fill="#efff05" stroke="black" cx="225.458" cy="-1342.85" rx="32.4942" ry="18"/>
<text text-anchor="middle" x="225.458" y="-1339.15" font-family="Times,serif" font-size="14.00">11671</text>
</a>
</g>
</g>
<!-- 11671&#45;&gt;13517 -->
<g id="edge69" class="edge"><title>11671&#45;&gt;13517</title>
<path fill="none" stroke="black" d="M243.546,-1327.85C264.796,-1310.23 299.856,-1281.16 321.232,-1263.44"/>
</g>
<!-- 13273 -->
<g id="node34" class="node"><title>13273</title>
<g id="a_node34"><a xlink:title="6th_week">
<ellipse fill="#efff05" stroke="black" cx="867.043" cy="-2194.79" rx="32.4942" ry="18"/>
<text text-anchor="middle" x="867.043" y="-2191.09" font-family="Times,serif" font-size="14.00">13273</text>
</a>
</g>
</g>
<!-- 18621 -->
<g id="node52" class="node"><title>18621</title>
<g id="a_node52"><a xlink:title="6th_week">
<ellipse fill="#efff05" stroke="black" cx="757.251" cy="-2299.31" rx="32.4942" ry="18"/>
<text text-anchor="middle" x="757.251" y="-2295.61" font-family="Times,serif" font-size="14.00">18621</text>
</a>
</g>
</g>
<!-- 13273&#45;&gt;18621 -->
<g id="edge78" class="edge"><title>13273&#45;&gt;18621</title>
<path fill="none" stroke="black" d="M850.368,-2210.66C829.612,-2230.42 794.385,-2263.96 773.724,-2283.63"/>
</g>
<!-- 20626 -->
<g id="node62" class="node"><title>20626</title>
<g id="a_node62"><a xlink:title="6th_week">
<ellipse fill="#efff05" stroke="black" cx="883.197" cy="-2355.07" rx="32.4942" ry="18"/>
<text text-anchor="middle" x="883.197" y="-2351.37" font-family="Times,serif" font-size="14.00">20626</text>
</a>
</g>
</g>
<!-- 13273&#45;&gt;20626 -->
<g id="edge30" class="edge"><title>13273&#45;&gt;20626</title>
<path fill="none" stroke="black" d="M868.865,-2212.86C871.967,-2243.65 878.242,-2305.91 881.357,-2336.81"/>
</g>
<!-- 13273&#45;&gt;21294 -->
<g id="edge3" class="edge"><title>13273&#45;&gt;21294</title>
<path fill="none" stroke="black" d="M869.938,-2176.79C875.603,-2141.57 888.093,-2063.92 893.767,-2028.64"/>
</g>
<!-- 24475 -->
<g id="node73" class="node"><title>24475</title>
<g id="a_node73"><a xlink:title="6th_week">
<ellipse fill="#efff05" stroke="black" cx="809.556" cy="-2347.19" rx="32.4942" ry="18"/>
<text text-anchor="middle" x="809.556" y="-2343.49" font-family="Times,serif" font-size="14.00">24475</text>
</a>
</g>
</g>
<!-- 13273&#45;&gt;24475 -->
<g id="edge27" class="edge"><title>13273&#45;&gt;24475</title>
<path fill="none" stroke="black" d="M860.336,-2212.57C849.259,-2241.94 827.27,-2300.23 816.221,-2329.53"/>
</g>
<!-- 9815 -->
<g id="node83" class="node"><title>9815</title>
<g id="a_node83"><a xlink:title="6th_week">
<ellipse fill="grey" stroke="black" cx="946.77" cy="-2309.41" rx="28.6953" ry="18"/>
<text text-anchor="middle" x="946.77" y="-2305.71" font-family="Times,serif" font-size="14.00">9815</text>
</a>
</g>
</g>
<!-- 13273&#45;&gt;9815 -->
<g id="edge24" class="edge"><title>13273&#45;&gt;9815</title>
<path fill="none" stroke="black" d="M878.807,-2211.7C893.968,-2233.5 920.16,-2271.15 935.217,-2292.8"/>
</g>
<!-- 17853 -->
<g id="node51" class="node"><title>17853</title>
<g id="a_node51"><a xlink:title="3rd_week">
<ellipse fill="#efff05" stroke="black" cx="199.146" cy="-1192.87" rx="32.4942" ry="18"/>
<text text-anchor="middle" x="199.146" y="-1189.17" font-family="Times,serif" font-size="14.00">17853</text>
</a>
</g>
</g>
<!-- 13517&#45;&gt;17853 -->
<g id="edge6" class="edge"><title>13517&#45;&gt;17853</title>
<path fill="none" stroke="black" d="M312.862,-1237.66C287.868,-1227.81 250.76,-1213.2 225.798,-1203.36"/>
</g>
<!-- 20128 -->
<g id="node61" class="node"><title>20128</title>
<g id="a_node61"><a xlink:title="3rd_week">
<ellipse fill="#20ff05" stroke="black" cx="195.339" cy="-1293.04" rx="32.4942" ry="18"/>
<text text-anchor="middle" x="195.339" y="-1289.34" font-family="Times,serif" font-size="14.00">20128</text>
</a>
</g>
</g>
<!-- 13517&#45;&gt;20128 -->
<g id="edge37" class="edge"><title>13517&#45;&gt;20128</title>
<path fill="none" stroke="black" d="M311.11,-1257.05C285.817,-1264.92 249.06,-1276.34 223.784,-1284.19"/>
</g>
<!-- 20784 -->
<g id="node63" class="node"><title>20784</title>
<g id="a_node63"><a xlink:title="3rd_week">
<ellipse fill="#efff05" stroke="black" cx="233.235" cy="-1145.37" rx="32.4942" ry="18"/>
<text text-anchor="middle" x="233.235" y="-1141.67" font-family="Times,serif" font-size="14.00">20784</text>
</a>
</g>
</g>
<!-- 13517&#45;&gt;20784 -->
<g id="edge46" class="edge"><title>13517&#45;&gt;20784</title>
<path fill="none" stroke="black" d="M322.992,-1232.13C303.007,-1212.81 269.673,-1180.59 249.74,-1161.32"/>
</g>
<!-- 13771 -->
<g id="node36" class="node"><title>13771</title>
<g id="a_node36"><a xlink:title="3rd_week">
<ellipse fill="grey" stroke="black" cx="1583.29" cy="-441.242" rx="32.4942" ry="18"/>
<text text-anchor="middle" x="1583.29" y="-437.542" font-family="Times,serif" font-size="14.00">13771</text>
</a>
</g>
</g>
<!-- 19858 -->
<g id="node59" class="node"><title>19858</title>
<g id="a_node59"><a xlink:title="3rd_week">
<ellipse fill="grey" stroke="black" cx="1446.6" cy="-474.241" rx="32.4942" ry="18"/>
<text text-anchor="middle" x="1446.6" y="-470.541" font-family="Times,serif" font-size="14.00">19858</text>
</a>
</g>
</g>
<!-- 13771&#45;&gt;19858 -->
<g id="edge45" class="edge"><title>13771&#45;&gt;19858</title>
<path fill="none" stroke="black" d="M1553.3,-448.484C1530.51,-453.986 1499.3,-461.519 1476.53,-467.017"/>
</g>
<!-- 19505 -->
<g id="node57" class="node"><title>19505</title>
<g id="a_node57"><a xlink:title="3rd_week">
<ellipse fill="#efff05" stroke="black" cx="1377.69" cy="-17.5343" rx="32.4942" ry="18"/>
<text text-anchor="middle" x="1377.69" y="-13.8343" font-family="Times,serif" font-size="14.00">19505</text>
</a>
</g>
</g>
<!-- 13840&#45;&gt;19505 -->
<g id="edge44" class="edge"><title>13840&#45;&gt;19505</title>
<path fill="none" stroke="black" d="M1375.72,-160.733C1376.14,-129.735 1377.01,-67.0371 1377.44,-35.9162"/>
</g>
<!-- 22561 -->
<g id="node68" class="node"><title>22561</title>
<g id="a_node68"><a xlink:title="3rd_week">
<ellipse fill="#efff05" stroke="black" cx="1323.31" cy="-350.895" rx="32.4942" ry="18"/>
<text text-anchor="middle" x="1323.31" y="-347.195" font-family="Times,serif" font-size="14.00">22561</text>
</a>
</g>
</g>
<!-- 13840&#45;&gt;22561 -->
<g id="edge12" class="edge"><title>13840&#45;&gt;22561</title>
<path fill="none" stroke="black" d="M1370.08,-196.689C1360.09,-229.64 1338.78,-299.905 1328.75,-332.978"/>
</g>
<!-- 13876&#45;&gt;26113 -->
<g id="edge58" class="edge"><title>13876&#45;&gt;26113</title>
<path fill="none" stroke="black" d="M1363.99,-430.708C1340.87,-458.924 1294.1,-515.996 1270.89,-544.324"/>
</g>
<!-- 13963 -->
<g id="node39" class="node"><title>13963</title>
<g id="a_node39"><a xlink:title="3rd_week">
<ellipse fill="#efff05" stroke="black" cx="1027.16" cy="-1339.33" rx="32.4942" ry="18"/>
<text text-anchor="middle" x="1027.16" y="-1335.63" font-family="Times,serif" font-size="14.00">13963</text>
</a>
</g>
</g>
<!-- 13963&#45;&gt;24483 -->
<g id="edge71" class="edge"><title>13963&#45;&gt;24483</title>
<path fill="none" stroke="black" d="M1003.12,-1327.18C984.978,-1318.01 960.185,-1305.48 941.965,-1296.27"/>
</g>
<!-- 14041 -->
<g id="node40" class="node"><title>14041</title>
<g id="a_node40"><a xlink:title="3rd_week">
<ellipse fill="grey" stroke="black" cx="1237.16" cy="-223.729" rx="32.4942" ry="18"/>
<text text-anchor="middle" x="1237.16" y="-220.029" font-family="Times,serif" font-size="14.00">14041</text>
</a>
</g>
</g>
<!-- 14192 -->
<g id="node42" class="node"><title>14192</title>
<g id="a_node42"><a xlink:title="3rd_week">
<ellipse fill="#efff05" stroke="black" cx="1245.21" cy="-364.541" rx="32.4942" ry="18"/>
<text text-anchor="middle" x="1245.21" y="-360.841" font-family="Times,serif" font-size="14.00">14192</text>
</a>
</g>
</g>
<!-- 14041&#45;&gt;14192 -->
<g id="edge4" class="edge"><title>14041&#45;&gt;14192</title>
<path fill="none" stroke="black" d="M1238.2,-241.85C1239.75,-268.888 1242.64,-319.493 1244.18,-346.491"/>
</g>
<!-- 14192&#45;&gt;26113 -->
<g id="edge54" class="edge"><title>14192&#45;&gt;26113</title>
<path fill="none" stroke="black" d="M1246.32,-382.677C1248.6,-420.114 1253.8,-505.566 1256.08,-542.965"/>
</g>
<!-- 14241 -->
<g id="node43" class="node"><title>14241</title>
<g id="a_node43"><a xlink:title="3rd_week">
<ellipse fill="#efff05" stroke="black" cx="1365.97" cy="-478.237" rx="32.4942" ry="18"/>
<text text-anchor="middle" x="1365.97" y="-474.537" font-family="Times,serif" font-size="14.00">14241</text>
</a>
</g>
</g>
<!-- 14241&#45;&gt;26113 -->
<g id="edge80" class="edge"><title>14241&#45;&gt;26113</title>
<path fill="none" stroke="black" d="M1346.77,-492.853C1327,-507.899 1296.38,-531.214 1276.55,-546.308"/>
</g>
<!-- 16292 -->
<g id="node46" class="node"><title>16292</title>
<g id="a_node46"><a xlink:title="3rd_week">
<ellipse fill="#efff05" stroke="black" cx="597.468" cy="-1327.34" rx="32.4942" ry="18"/>
<text text-anchor="middle" x="597.468" y="-1323.64" font-family="Times,serif" font-size="14.00">16292</text>
</a>
</g>
</g>
<!-- 16292&#45;&gt;23316 -->
<g id="edge14" class="edge"><title>16292&#45;&gt;23316</title>
<path fill="none" stroke="black" d="M620.489,-1314.52C642.371,-1302.33 675.096,-1284.11 696.944,-1271.94"/>
</g>
<!-- 17146 -->
<g id="node48" class="node"><title>17146</title>
<g id="a_node48"><a xlink:title="3rd_week">
<ellipse fill="#efff05" stroke="black" cx="588.667" cy="-1209.9" rx="32.4942" ry="18"/>
<text text-anchor="middle" x="588.667" y="-1206.2" font-family="Times,serif" font-size="14.00">17146</text>
</a>
</g>
</g>
<!-- 17146&#45;&gt;23316 -->
<g id="edge9" class="edge"><title>17146&#45;&gt;23316</title>
<path fill="none" stroke="black" d="M615.851,-1220.11C638.367,-1228.57 670.206,-1240.53 692.713,-1248.98"/>
</g>
<!-- 17345 -->
<g id="node50" class="node"><title>17345</title>
<g id="a_node50"><a xlink:title="3rd_week">
<ellipse fill="grey" stroke="black" cx="1119.43" cy="-530.423" rx="32.4942" ry="18"/>
<text text-anchor="middle" x="1119.43" y="-526.723" font-family="Times,serif" font-size="14.00">17345</text>
</a>
</g>
</g>
<!-- 17345&#45;&gt;26113 -->
<g id="edge40" class="edge"><title>17345&#45;&gt;26113</title>
<path fill="none" stroke="black" d="M1149.66,-537.145C1172.63,-542.253 1204.07,-549.246 1227.02,-554.35"/>
</g>
<!-- 18779&#45;&gt;25445 -->
<g id="edge38" class="edge"><title>18779&#45;&gt;25445</title>
<path fill="none" stroke="black" d="M1415.61,-943.181C1446.77,-950.741 1495.17,-962.483 1526.23,-970.016"/>
</g>
<!-- 20857 -->
<g id="node64" class="node"><title>20857</title>
<g id="a_node64"><a xlink:title="3rd_week">
<ellipse fill="#efff05" stroke="black" cx="671.315" cy="-1953.45" rx="32.4942" ry="18"/>
<text text-anchor="middle" x="671.315" y="-1949.75" font-family="Times,serif" font-size="14.00">20857</text>
</a>
</g>
</g>
<!-- 19174&#45;&gt;20857 -->
<g id="edge13" class="edge"><title>19174&#45;&gt;20857</title>
<path fill="none" stroke="black" d="M772.832,-1882.65C750.325,-1898.35 714.322,-1923.45 691.789,-1939.17"/>
</g>
<!-- 19666 -->
<g id="node58" class="node"><title>19666</title>
<g id="a_node58"><a xlink:title="3rd_week">
<ellipse fill="#efff05" stroke="black" cx="628.449" cy="-1153.51" rx="32.4942" ry="18"/>
<text text-anchor="middle" x="628.449" y="-1149.81" font-family="Times,serif" font-size="14.00">19666</text>
</a>
</g>
</g>
<!-- 19666&#45;&gt;23316 -->
<g id="edge16" class="edge"><title>19666&#45;&gt;23316</title>
<path fill="none" stroke="black" d="M642.732,-1170.02C659.906,-1189.87 688.55,-1222.98 705.679,-1242.78"/>
</g>
<!-- 19858&#45;&gt;26113 -->
<g id="edge50" class="edge"><title>19858&#45;&gt;26113</title>
<path fill="none" stroke="black" d="M1421.45,-485.77C1385.22,-502.374 1318.73,-532.849 1282.44,-549.481"/>
</g>
<!-- 13511 -->
<g id="node80" class="node"><title>13511</title>
<g id="a_node80"><a xlink:title="3rd_week">
<ellipse fill="#efff05" stroke="black" cx="1558.07" cy="-387.386" rx="32.4942" ry="18"/>
<text text-anchor="middle" x="1558.07" y="-383.686" font-family="Times,serif" font-size="14.00">13511</text>
</a>
</g>
</g>
<!-- 19858&#45;&gt;13511 -->
<g id="edge62" class="edge"><title>19858&#45;&gt;13511</title>
<path fill="none" stroke="black" d="M1465.51,-459.508C1486.01,-443.536 1518.54,-418.192 1539.07,-402.192"/>
</g>
<!-- 20027 -->
<g id="node60" class="node"><title>20027</title>
<g id="a_node60"><a xlink:title="3rd_week">
<ellipse fill="#efff05" stroke="black" cx="1133.61" cy="-588.184" rx="32.4942" ry="18"/>
<text text-anchor="middle" x="1133.61" y="-584.484" font-family="Times,serif" font-size="14.00">20027</text>
</a>
</g>
</g>
<!-- 20027&#45;&gt;26113 -->
<g id="edge15" class="edge"><title>20027&#45;&gt;26113</title>
<path fill="none" stroke="black" d="M1163.83,-581.548C1182.98,-577.344 1207.66,-571.927 1226.83,-567.718"/>
</g>
<!-- 22561&#45;&gt;26113 -->
<g id="edge1" class="edge"><title>22561&#45;&gt;26113</title>
<path fill="none" stroke="black" d="M1317.67,-368.813C1305.18,-408.518 1275.28,-503.52 1262.8,-543.184"/>
</g>
<!-- 23316&#45;&gt;24483 -->
<g id="edge72" class="edge"><title>23316&#45;&gt;24483</title>
<path fill="none" stroke="black" d="M751.632,-1263.16C788.422,-1267.77 848.683,-1275.32 885.579,-1279.94"/>
</g>
<!-- 23462 -->
<g id="node72" class="node"><title>23462</title>
<g id="a_node72"><a xlink:title="3rd_week">
<ellipse fill="#efff05" stroke="black" cx="1398.9" cy="-541.489" rx="32.4942" ry="18"/>
<text text-anchor="middle" x="1398.9" y="-537.789" font-family="Times,serif" font-size="14.00">23462</text>
</a>
</g>
</g>
<!-- 23462&#45;&gt;26113 -->
<g id="edge22" class="edge"><title>23462&#45;&gt;26113</title>
<path fill="none" stroke="black" d="M1367.09,-545.88C1343.75,-549.103 1312.19,-553.461 1288.88,-556.68"/>
</g>
<!-- 4053 -->
<g id="node79" class="node"><title>4053</title>
<g id="a_node79"><a xlink:title="3rd_week">
<ellipse fill="#ffffff" stroke="black" cx="1206.09" cy="-416.183" rx="28.6953" ry="18"/>
<text text-anchor="middle" x="1206.09" y="-412.483" font-family="Times,serif" font-size="14.00">4053</text>
</a>
</g>
</g>
<!-- 26113&#45;&gt;4053 -->
<g id="edge65" class="edge"><title>26113&#45;&gt;4053</title>
<path fill="none" stroke="black" d="M1250.92,-543.292C1241.11,-515.487 1222.24,-461.987 1212.41,-434.093"/>
</g>
</g>
</svg>
