<?xml version="1.0" encoding="UTF-8" standalone="no"?>
<!DOCTYPE svg PUBLIC "-//W3C//DTD SVG 1.1//EN"
 "http://www.w3.org/Graphics/SVG/1.1/DTD/svg11.dtd">
<!-- Generated by graphviz version 2.38.0 (20140413.2041)
 -->
<!-- Title: %3 Pages: 1 -->
<svg width="2150pt" height="2314pt"
 viewBox="0.00 0.00 2150.00 2314.00" xmlns="http://www.w3.org/2000/svg" xmlns:xlink="http://www.w3.org/1999/xlink">
<g id="graph0" class="graph" transform="scale(1 1) rotate(0) translate(4 2310)">
<title>%3</title>
<polygon fill="white" stroke="none" points="-4,4 -4,-2310 2146,-2310 2146,4 -4,4"/>
<!-- 135 -->
<g id="node1" class="node"><title>135</title>
<g id="a_node1"><a xlink:title="Day_0">
<ellipse fill="#20ff05" stroke="black" cx="1749.56" cy="-214.243" rx="27" ry="18"/>
<text text-anchor="middle" x="1749.56" y="-210.543" font-family="Times,serif" font-size="14.00">135</text>
</a>
</g>
</g>
<!-- 413 -->
<g id="node3" class="node"><title>413</title>
<g id="a_node3"><a xlink:title="3rd_week">
<ellipse fill="#20ff05" stroke="black" cx="1696.99" cy="-306.381" rx="27" ry="18"/>
<text text-anchor="middle" x="1696.99" y="-302.681" font-family="Times,serif" font-size="14.00">413</text>
</a>
</g>
</g>
<!-- 135&#45;&gt;413 -->
<g id="edge79" class="edge"><title>135&#45;&gt;413</title>
<path fill="none" stroke="black" d="M1739.92,-231.143C1730.49,-247.664 1716.22,-272.686 1706.75,-289.277"/>
</g>
<!-- 331 -->
<g id="node2" class="node"><title>331</title>
<g id="a_node2"><a xlink:title="Day_0">
<ellipse fill="#20ff05" stroke="black" cx="1607.39" cy="-671.15" rx="27" ry="18"/>
<text text-anchor="middle" x="1607.39" y="-667.45" font-family="Times,serif" font-size="14.00">331</text>
</a>
</g>
</g>
<!-- 18578 -->
<g id="node15" class="node"><title>18578</title>
<g id="a_node15"><a xlink:title="Day_0">
<ellipse fill="#20ff05" stroke="black" cx="1434.29" cy="-677.495" rx="32.4942" ry="18"/>
<text text-anchor="middle" x="1434.29" y="-673.795" font-family="Times,serif" font-size="14.00">18578</text>
</a>
</g>
</g>
<!-- 331&#45;&gt;18578 -->
<g id="edge55" class="edge"><title>331&#45;&gt;18578</title>
<path fill="none" stroke="black" d="M1580.35,-672.142C1549.63,-673.267 1499.54,-675.103 1466.75,-676.305"/>
</g>
<!-- 1059 -->
<g id="node18" class="node"><title>1059</title>
<g id="a_node18"><a xlink:title="Day_0">
<ellipse fill="#20ff05" stroke="black" cx="1733.19" cy="-667.42" rx="28.6953" ry="18"/>
<text text-anchor="middle" x="1733.19" y="-663.72" font-family="Times,serif" font-size="14.00">1059</text>
</a>
</g>
</g>
<!-- 331&#45;&gt;1059 -->
<g id="edge34" class="edge"><title>331&#45;&gt;1059</title>
<path fill="none" stroke="black" d="M1634.38,-670.35C1655.03,-669.738 1683.44,-668.895 1704.5,-668.271"/>
</g>
<!-- 8412 -->
<g id="node30" class="node"><title>8412</title>
<g id="a_node30"><a xlink:title="Day_0">
<ellipse fill="grey" stroke="black" cx="1718.62" cy="-722.413" rx="28.6953" ry="18"/>
<text text-anchor="middle" x="1718.62" y="-718.713" font-family="Times,serif" font-size="14.00">8412</text>
</a>
</g>
</g>
<!-- 331&#45;&gt;8412 -->
<g id="edge25" class="edge"><title>331&#45;&gt;8412</title>
<path fill="none" stroke="black" d="M1629.63,-681.401C1648.65,-690.166 1675.94,-702.74 1695.27,-711.65"/>
</g>
<!-- 9445 -->
<g id="node33" class="node"><title>9445</title>
<g id="a_node33"><a xlink:title="Day_0">
<ellipse fill="#20ff05" stroke="black" cx="1713.92" cy="-613.674" rx="28.6953" ry="18"/>
<text text-anchor="middle" x="1713.92" y="-609.974" font-family="Times,serif" font-size="14.00">9445</text>
</a>
</g>
</g>
<!-- 331&#45;&gt;9445 -->
<g id="edge43" class="edge"><title>331&#45;&gt;9445</title>
<path fill="none" stroke="black" d="M1628.44,-659.795C1646.87,-649.849 1673.55,-635.455 1692.19,-625.4"/>
</g>
<!-- 1629 -->
<g id="node5" class="node"><title>1629</title>
<g id="a_node5"><a xlink:title="3rd_week">
<ellipse fill="#ffffff" stroke="black" cx="1672.24" cy="-167.685" rx="28.6953" ry="18"/>
<text text-anchor="middle" x="1672.24" y="-163.985" font-family="Times,serif" font-size="14.00">1629</text>
</a>
</g>
</g>
<!-- 413&#45;&gt;1629 -->
<g id="edge64" class="edge"><title>413&#45;&gt;1629</title>
<path fill="none" stroke="black" d="M1693.76,-288.249C1689.01,-261.668 1680.22,-212.405 1675.48,-185.822"/>
</g>
<!-- 2686 -->
<g id="node6" class="node"><title>2686</title>
<g id="a_node6"><a xlink:title="3rd_week">
<ellipse fill="#20ff05" stroke="black" cx="1814.71" cy="-252.469" rx="28.6953" ry="18"/>
<text text-anchor="middle" x="1814.71" y="-248.769" font-family="Times,serif" font-size="14.00">2686</text>
</a>
</g>
</g>
<!-- 413&#45;&gt;2686 -->
<g id="edge21" class="edge"><title>413&#45;&gt;2686</title>
<path fill="none" stroke="black" d="M1719.41,-296.114C1740.09,-286.643 1770.66,-272.641 1791.57,-263.066"/>
</g>
<!-- 13630 -->
<g id="node9" class="node"><title>13630</title>
<g id="a_node9"><a xlink:title="3rd_week,Day_0">
<ellipse fill="#20ff05" stroke="black" cx="1801.81" cy="-163.281" rx="32.4945" ry="18"/>
<ellipse fill="none" stroke="black" cx="1801.81" cy="-163.281" rx="36.4942" ry="22"/>
<text text-anchor="middle" x="1801.81" y="-159.581" font-family="Times,serif" font-size="14.00">13630</text>
</a>
</g>
</g>
<!-- 413&#45;&gt;13630 -->
<g id="edge42" class="edge"><title>413&#45;&gt;13630</title>
<path fill="none" stroke="black" d="M1709.02,-289.966C1728.27,-263.684 1765.96,-212.219 1786.9,-183.637"/>
</g>
<!-- 24334 -->
<g id="node17" class="node"><title>24334</title>
<g id="a_node17"><a xlink:title="3rd_week">
<ellipse fill="#20ff05" stroke="black" cx="1584" cy="-495.5" rx="32.4942" ry="18"/>
<text text-anchor="middle" x="1584" y="-491.8" font-family="Times,serif" font-size="14.00">24334</text>
</a>
</g>
</g>
<!-- 413&#45;&gt;24334 -->
<g id="edge39" class="edge"><title>413&#45;&gt;24334</title>
<path fill="none" stroke="black" d="M1686.97,-323.164C1665.63,-358.872 1615.93,-442.056 1594.33,-478.209"/>
</g>
<!-- 1141 -->
<g id="node4" class="node"><title>1141</title>
<g id="a_node4"><a xlink:title="3rd_week">
<ellipse fill="#20ff05" stroke="black" cx="1857.23" cy="-17.6979" rx="28.6953" ry="18"/>
<text text-anchor="middle" x="1857.23" y="-13.9979" font-family="Times,serif" font-size="14.00">1141</text>
</a>
</g>
</g>
<!-- 1141&#45;&gt;13630 -->
<g id="edge57" class="edge"><title>1141&#45;&gt;13630</title>
<path fill="none" stroke="black" d="M1850.54,-35.2586C1840.41,-61.8792 1821.18,-112.407 1810.14,-141.388"/>
</g>
<!-- 8101 -->
<g id="node7" class="node"><title>8101</title>
<g id="a_node7"><a xlink:title="3rd_week">
<ellipse fill="grey" stroke="black" cx="1868.03" cy="-381.088" rx="28.6953" ry="18"/>
<text text-anchor="middle" x="1868.03" y="-377.388" font-family="Times,serif" font-size="14.00">8101</text>
</a>
</g>
</g>
<!-- 17820 -->
<g id="node14" class="node"><title>17820</title>
<g id="a_node14"><a xlink:title="3rd_week">
<ellipse fill="grey" stroke="black" cx="1738.08" cy="-420.414" rx="32.4942" ry="18"/>
<text text-anchor="middle" x="1738.08" y="-416.714" font-family="Times,serif" font-size="14.00">17820</text>
</a>
</g>
</g>
<!-- 8101&#45;&gt;17820 -->
<g id="edge63" class="edge"><title>8101&#45;&gt;17820</title>
<path fill="none" stroke="black" d="M1842.05,-388.951C1820.27,-395.541 1789.23,-404.937 1766.73,-411.743"/>
</g>
<!-- 10152 -->
<g id="node8" class="node"><title>10152</title>
<g id="a_node8"><a xlink:title="Day_0">
<ellipse fill="#20ff05" stroke="black" cx="1539.34" cy="-913.743" rx="32.4942" ry="18"/>
<text text-anchor="middle" x="1539.34" y="-910.043" font-family="Times,serif" font-size="14.00">10152</text>
</a>
</g>
</g>
<!-- 17688 -->
<g id="node13" class="node"><title>17688</title>
<g id="a_node13"><a xlink:title="Day_0,PRE">
<ellipse fill="#20ff05" stroke="black" cx="1644.52" cy="-1140.36" rx="32.4945" ry="18"/>
<ellipse fill="none" stroke="black" cx="1644.52" cy="-1140.36" rx="36.4942" ry="22"/>
<text text-anchor="middle" x="1644.52" y="-1136.66" font-family="Times,serif" font-size="14.00">17688</text>
</a>
</g>
</g>
<!-- 10152&#45;&gt;17688 -->
<g id="edge10" class="edge"><title>10152&#45;&gt;17688</title>
<path fill="none" stroke="black" d="M1547.59,-931.525C1566.72,-972.74 1614.03,-1074.66 1634.65,-1119.08"/>
</g>
<!-- 10152&#45;&gt;18578 -->
<g id="edge48" class="edge"><title>10152&#45;&gt;18578</title>
<path fill="none" stroke="black" d="M1531.44,-895.986C1511.93,-852.097 1461.6,-738.902 1442.13,-695.135"/>
</g>
<!-- 21375 -->
<g id="node16" class="node"><title>21375</title>
<g id="a_node16"><a xlink:title="3rd_week">
<ellipse fill="#20ff05" stroke="black" cx="1926.63" cy="-61.9431" rx="32.4942" ry="18"/>
<text text-anchor="middle" x="1926.63" y="-58.2431" font-family="Times,serif" font-size="14.00">21375</text>
</a>
</g>
</g>
<!-- 13630&#45;&gt;21375 -->
<g id="edge9" class="edge"><title>13630&#45;&gt;21375</title>
<path fill="none" stroke="black" d="M1823.84,-145.397C1847.77,-125.965 1885.6,-95.2571 1908.07,-77.0076"/>
</g>
<!-- 16586 -->
<g id="node10" class="node"><title>16586</title>
<g id="a_node10"><a xlink:title="6th_week">
<ellipse fill="#20ff05" stroke="black" cx="1429.3" cy="-564.419" rx="32.4942" ry="18"/>
<text text-anchor="middle" x="1429.3" y="-560.719" font-family="Times,serif" font-size="14.00">16586</text>
</a>
</g>
</g>
<!-- 16586&#45;&gt;18578 -->
<g id="edge33" class="edge"><title>16586&#45;&gt;18578</title>
<path fill="none" stroke="black" d="M1430.1,-582.586C1431.03,-603.688 1432.56,-638.29 1433.49,-659.372"/>
</g>
<!-- 16861 -->
<g id="node11" class="node"><title>16861</title>
<g id="a_node11"><a xlink:title="3rd_week">
<ellipse fill="#ffffff" stroke="black" cx="1588.05" cy="-358.879" rx="32.4942" ry="18"/>
<text text-anchor="middle" x="1588.05" y="-355.179" font-family="Times,serif" font-size="14.00">16861</text>
</a>
</g>
</g>
<!-- 16861&#45;&gt;24334 -->
<g id="edge28" class="edge"><title>16861&#45;&gt;24334</title>
<path fill="none" stroke="black" d="M1587.51,-377.021C1586.74,-403.152 1585.32,-451.11 1584.54,-477.283"/>
</g>
<!-- 17211 -->
<g id="node12" class="node"><title>17211</title>
<g id="a_node12"><a xlink:title="3rd_week">
<ellipse fill="#20ff05" stroke="black" cx="1714.35" cy="-469.929" rx="32.4942" ry="18"/>
<text text-anchor="middle" x="1714.35" y="-466.229" font-family="Times,serif" font-size="14.00">17211</text>
</a>
</g>
</g>
<!-- 17211&#45;&gt;24334 -->
<g id="edge11" class="edge"><title>17211&#45;&gt;24334</title>
<path fill="none" stroke="black" d="M1683.46,-475.989C1662.68,-480.066 1635.4,-485.417 1614.67,-489.484"/>
</g>
<!-- 3132 -->
<g id="node21" class="node"><title>3132</title>
<g id="a_node21"><a xlink:title="PRE">
<ellipse fill="#20ff05" stroke="black" cx="1819.23" cy="-1178.83" rx="28.6953" ry="18"/>
<text text-anchor="middle" x="1819.23" y="-1175.13" font-family="Times,serif" font-size="14.00">3132</text>
</a>
</g>
</g>
<!-- 17688&#45;&gt;3132 -->
<g id="edge41" class="edge"><title>17688&#45;&gt;3132</title>
<path fill="none" stroke="black" d="M1679.04,-1147.96C1712.26,-1155.27 1761.79,-1166.18 1792.23,-1172.88"/>
</g>
<!-- 8581 -->
<g id="node31" class="node"><title>8581</title>
<g id="a_node31"><a xlink:title="Day_0">
<ellipse fill="#20ff05" stroke="black" cx="1713.01" cy="-1251.92" rx="28.6953" ry="18"/>
<text text-anchor="middle" x="1713.01" y="-1248.22" font-family="Times,serif" font-size="14.00">8581</text>
</a>
</g>
</g>
<!-- 17688&#45;&gt;8581 -->
<g id="edge53" class="edge"><title>17688&#45;&gt;8581</title>
<path fill="none" stroke="black" d="M1657.25,-1161.08C1670.32,-1182.38 1690.43,-1215.15 1702.6,-1234.96"/>
</g>
<!-- 9592 -->
<g id="node34" class="node"><title>9592</title>
<g id="a_node34"><a xlink:title="PRE">
<ellipse fill="#20ff05" stroke="black" cx="1698.68" cy="-1390.69" rx="28.6953" ry="18"/>
<text text-anchor="middle" x="1698.68" y="-1386.99" font-family="Times,serif" font-size="14.00">9592</text>
</a>
</g>
</g>
<!-- 17688&#45;&gt;9592 -->
<g id="edge62" class="edge"><title>17688&#45;&gt;9592</title>
<path fill="none" stroke="black" d="M1649.33,-1162.57C1659.92,-1211.51 1685.08,-1327.83 1694.77,-1372.65"/>
</g>
<!-- 10504 -->
<g id="node36" class="node"><title>10504</title>
<g id="a_node36"><a xlink:title="PRE">
<ellipse fill="#20ff05" stroke="black" cx="1579.67" cy="-1259.07" rx="32.4942" ry="18"/>
<text text-anchor="middle" x="1579.67" y="-1255.37" font-family="Times,serif" font-size="14.00">10504</text>
</a>
</g>
</g>
<!-- 17688&#45;&gt;10504 -->
<g id="edge47" class="edge"><title>17688&#45;&gt;10504</title>
<path fill="none" stroke="black" d="M1633.08,-1161.31C1620.57,-1184.21 1600.76,-1220.47 1589.11,-1241.8"/>
</g>
<!-- 25519 -->
<g id="node56" class="node"><title>25519</title>
<g id="a_node56"><a xlink:title="PRE">
<ellipse fill="grey" stroke="black" cx="1772.75" cy="-1115.46" rx="32.4942" ry="18"/>
<text text-anchor="middle" x="1772.75" y="-1111.76" font-family="Times,serif" font-size="14.00">25519</text>
</a>
</g>
</g>
<!-- 17688&#45;&gt;25519 -->
<g id="edge58" class="edge"><title>17688&#45;&gt;25519</title>
<path fill="none" stroke="black" d="M1679.56,-1133.56C1698.99,-1129.78 1722.94,-1125.14 1741.69,-1121.49"/>
</g>
<!-- 17820&#45;&gt;24334 -->
<g id="edge72" class="edge"><title>17820&#45;&gt;24334</title>
<path fill="none" stroke="black" d="M1713.67,-432.311C1684.9,-446.33 1637.38,-469.486 1608.56,-483.534"/>
</g>
<!-- 18578&#45;&gt;24334 -->
<g id="edge69" class="edge"><title>18578&#45;&gt;24334</title>
<path fill="none" stroke="black" d="M1447.84,-661.023C1476.27,-626.461 1541.88,-546.71 1570.37,-512.066"/>
</g>
<!-- 19007 -->
<g id="node48" class="node"><title>19007</title>
<g id="a_node48"><a xlink:title="PRE">
<ellipse fill="#20ff05" stroke="black" cx="1540.28" cy="-772.821" rx="32.4942" ry="18"/>
<text text-anchor="middle" x="1540.28" y="-769.121" font-family="Times,serif" font-size="14.00">19007</text>
</a>
</g>
</g>
<!-- 18578&#45;&gt;19007 -->
<g id="edge70" class="edge"><title>18578&#45;&gt;19007</title>
<path fill="none" stroke="black" d="M1451.79,-693.236C1471.55,-711.004 1503.49,-739.726 1523.11,-757.372"/>
</g>
<!-- 20219 -->
<g id="node50" class="node"><title>20219</title>
<g id="a_node50"><a xlink:title="PRE">
<ellipse fill="#20ff05" stroke="black" cx="1169.84" cy="-619.184" rx="32.4942" ry="18"/>
<text text-anchor="middle" x="1169.84" y="-615.484" font-family="Times,serif" font-size="14.00">20219</text>
</a>
</g>
</g>
<!-- 18578&#45;&gt;20219 -->
<g id="edge12" class="edge"><title>18578&#45;&gt;20219</title>
<path fill="none" stroke="black" d="M1403.95,-670.806C1353.08,-659.588 1251.14,-637.11 1200.23,-625.885"/>
</g>
<!-- 1683 -->
<g id="node19" class="node"><title>1683</title>
<g id="a_node19"><a xlink:title="Day_0">
<ellipse fill="#20ff05" stroke="black" cx="1598.33" cy="-1981.12" rx="28.6953" ry="18"/>
<text text-anchor="middle" x="1598.33" y="-1977.42" font-family="Times,serif" font-size="14.00">1683</text>
</a>
</g>
</g>
<!-- 13290 -->
<g id="node41" class="node"><title>13290</title>
<g id="a_node41"><a xlink:title="Day_0">
<ellipse fill="grey" stroke="black" cx="1621.29" cy="-1792.13" rx="32.4942" ry="18"/>
<text text-anchor="middle" x="1621.29" y="-1788.43" font-family="Times,serif" font-size="14.00">13290</text>
</a>
</g>
</g>
<!-- 1683&#45;&gt;13290 -->
<g id="edge27" class="edge"><title>1683&#45;&gt;13290</title>
<path fill="none" stroke="black" d="M1600.53,-1963C1604.92,-1926.88 1614.71,-1846.28 1619.1,-1810.2"/>
</g>
<!-- 13514 -->
<g id="node42" class="node"><title>13514</title>
<g id="a_node42"><a xlink:title="Day_0">
<ellipse fill="#20ff05" stroke="black" cx="1663.59" cy="-2096.74" rx="32.4942" ry="18"/>
<text text-anchor="middle" x="1663.59" y="-2093.04" font-family="Times,serif" font-size="14.00">13514</text>
</a>
</g>
</g>
<!-- 1683&#45;&gt;13514 -->
<g id="edge22" class="edge"><title>1683&#45;&gt;13514</title>
<path fill="none" stroke="black" d="M1607.96,-1998.18C1620.23,-2019.92 1641.32,-2057.29 1653.71,-2079.23"/>
</g>
<!-- 16592 -->
<g id="node47" class="node"><title>16592</title>
<g id="a_node47"><a xlink:title="Day_0">
<ellipse fill="#20ff05" stroke="black" cx="1529.78" cy="-2106.55" rx="32.4942" ry="18"/>
<text text-anchor="middle" x="1529.78" y="-2102.85" font-family="Times,serif" font-size="14.00">16592</text>
</a>
</g>
</g>
<!-- 1683&#45;&gt;16592 -->
<g id="edge19" class="edge"><title>1683&#45;&gt;16592</title>
<path fill="none" stroke="black" d="M1588.94,-1998.3C1575.89,-2022.18 1552.39,-2065.19 1539.28,-2089.17"/>
</g>
<!-- 20845 -->
<g id="node51" class="node"><title>20845</title>
<g id="a_node51"><a xlink:title="Day_0">
<ellipse fill="#20ff05" stroke="black" cx="1486.43" cy="-2060.18" rx="32.4942" ry="18"/>
<text text-anchor="middle" x="1486.43" y="-2056.48" font-family="Times,serif" font-size="14.00">20845</text>
</a>
</g>
</g>
<!-- 1683&#45;&gt;20845 -->
<g id="edge68" class="edge"><title>1683&#45;&gt;20845</title>
<path fill="none" stroke="black" d="M1579.09,-1994.71C1558.85,-2009.02 1527.12,-2031.43 1506.55,-2045.97"/>
</g>
<!-- 23946 -->
<g id="node55" class="node"><title>23946</title>
<g id="a_node55"><a xlink:title="6th_week">
<ellipse fill="#20ff05" stroke="black" cx="1608.81" cy="-2144.6" rx="32.4942" ry="18"/>
<text text-anchor="middle" x="1608.81" y="-2140.9" font-family="Times,serif" font-size="14.00">23946</text>
</a>
</g>
</g>
<!-- 1683&#45;&gt;23946 -->
<g id="edge46" class="edge"><title>1683&#45;&gt;23946</title>
<path fill="none" stroke="black" d="M1599.49,-1999.24C1601.51,-2030.67 1605.62,-2094.92 1607.64,-2126.4"/>
</g>
<!-- 2907 -->
<g id="node20" class="node"><title>2907</title>
<g id="a_node20"><a xlink:title="6th_week">
<ellipse fill="#20ff05" stroke="black" cx="1609.59" cy="-2287.54" rx="28.6953" ry="18"/>
<text text-anchor="middle" x="1609.59" y="-2283.84" font-family="Times,serif" font-size="14.00">2907</text>
</a>
</g>
</g>
<!-- 2907&#45;&gt;23946 -->
<g id="edge38" class="edge"><title>2907&#45;&gt;23946</title>
<path fill="none" stroke="black" d="M1609.5,-2269.44C1609.34,-2242.09 1609.06,-2190.53 1608.91,-2163.01"/>
</g>
<!-- 11257 -->
<g id="node38" class="node"><title>11257</title>
<g id="a_node38"><a xlink:title="PRE">
<ellipse fill="grey" stroke="black" cx="1938.66" cy="-1231.54" rx="32.4942" ry="18"/>
<text text-anchor="middle" x="1938.66" y="-1227.84" font-family="Times,serif" font-size="14.00">11257</text>
</a>
</g>
</g>
<!-- 3132&#45;&gt;11257 -->
<g id="edge56" class="edge"><title>3132&#45;&gt;11257</title>
<path fill="none" stroke="black" d="M1842.83,-1189.24C1863.09,-1198.18 1892.23,-1211.04 1913.05,-1220.23"/>
</g>
<!-- 15621 -->
<g id="node45" class="node"><title>15621</title>
<g id="a_node45"><a xlink:title="PRE">
<ellipse fill="#20ff05" stroke="black" cx="1950.28" cy="-1164.58" rx="32.4942" ry="18"/>
<text text-anchor="middle" x="1950.28" y="-1160.88" font-family="Times,serif" font-size="14.00">15621</text>
</a>
</g>
</g>
<!-- 3132&#45;&gt;15621 -->
<g id="edge66" class="edge"><title>3132&#45;&gt;15621</title>
<path fill="none" stroke="black" d="M1847.67,-1175.74C1868.44,-1173.48 1896.64,-1170.41 1918.22,-1168.07"/>
</g>
<!-- 3262 -->
<g id="node22" class="node"><title>3262</title>
<g id="a_node22"><a xlink:title="3rd_week,6th_week">
<ellipse fill="#20ff05" stroke="black" cx="661.592" cy="-563.721" rx="28.6832" ry="18"/>
<ellipse fill="none" stroke="black" cx="661.592" cy="-563.721" rx="32.6952" ry="22"/>
<text text-anchor="middle" x="661.592" y="-560.021" font-family="Times,serif" font-size="14.00">3262</text>
</a>
</g>
</g>
<!-- 10200 -->
<g id="node35" class="node"><title>10200</title>
<g id="a_node35"><a xlink:title="3rd_week">
<ellipse fill="#20ff05" stroke="black" cx="498.462" cy="-575.494" rx="32.4942" ry="18"/>
<text text-anchor="middle" x="498.462" y="-571.794" font-family="Times,serif" font-size="14.00">10200</text>
</a>
</g>
</g>
<!-- 3262&#45;&gt;10200 -->
<g id="edge71" class="edge"><title>3262&#45;&gt;10200</title>
<path fill="none" stroke="black" d="M628.972,-566.075C600.428,-568.135 559.192,-571.111 530.747,-573.164"/>
</g>
<!-- 15953 -->
<g id="node46" class="node"><title>15953</title>
<g id="a_node46"><a xlink:title="Day_0">
<ellipse fill="#20ff05" stroke="black" cx="890.751" cy="-664.436" rx="32.4942" ry="18"/>
<text text-anchor="middle" x="890.751" y="-660.736" font-family="Times,serif" font-size="14.00">15953</text>
</a>
</g>
</g>
<!-- 3262&#45;&gt;15953 -->
<g id="edge6" class="edge"><title>3262&#45;&gt;15953</title>
<path fill="none" stroke="black" d="M689.234,-575.869C733.993,-595.541 821.692,-634.085 865.124,-653.173"/>
</g>
<!-- 4540 -->
<g id="node58" class="node"><title>4540</title>
<g id="a_node58"><a xlink:title="6th_week">
<ellipse fill="#20ff05" stroke="black" cx="560.091" cy="-469.074" rx="28.6953" ry="18"/>
<text text-anchor="middle" x="560.091" y="-465.374" font-family="Times,serif" font-size="14.00">4540</text>
</a>
</g>
</g>
<!-- 3262&#45;&gt;4540 -->
<g id="edge45" class="edge"><title>3262&#45;&gt;4540</title>
<path fill="none" stroke="black" d="M642.021,-545.472C622.896,-527.638 594.124,-500.809 576.258,-484.15"/>
</g>
<!-- 19323 -->
<g id="node60" class="node"><title>19323</title>
<g id="a_node60"><a xlink:title="6th_week">
<ellipse fill="#20ff05" stroke="black" cx="419.147" cy="-495.754" rx="32.4942" ry="18"/>
<text text-anchor="middle" x="419.147" y="-492.054" font-family="Times,serif" font-size="14.00">19323</text>
</a>
</g>
</g>
<!-- 3262&#45;&gt;19323 -->
<g id="edge2" class="edge"><title>3262&#45;&gt;19323</title>
<path fill="none" stroke="black" d="M631.376,-555.25C584.41,-542.084 494.492,-516.876 448.228,-503.906"/>
</g>
<!-- 15787 -->
<g id="node70" class="node"><title>15787</title>
<g id="a_node70"><a xlink:title="3rd_week">
<ellipse fill="#20ff05" stroke="black" cx="642.278" cy="-421.598" rx="32.4942" ry="18"/>
<text text-anchor="middle" x="642.278" y="-417.898" font-family="Times,serif" font-size="14.00">15787</text>
</a>
</g>
</g>
<!-- 3262&#45;&gt;15787 -->
<g id="edge32" class="edge"><title>3262&#45;&gt;15787</title>
<path fill="none" stroke="black" d="M658.574,-541.514C654.755,-513.409 648.25,-465.542 644.724,-439.598"/>
</g>
<!-- 4477 -->
<g id="node23" class="node"><title>4477</title>
<g id="a_node23"><a xlink:title="6th_week">
<ellipse fill="#20ff05" stroke="black" cx="902.692" cy="-822.884" rx="28.6953" ry="18"/>
<text text-anchor="middle" x="902.692" y="-819.184" font-family="Times,serif" font-size="14.00">4477</text>
</a>
</g>
</g>
<!-- 4477&#45;&gt;15953 -->
<g id="edge54" class="edge"><title>4477&#45;&gt;15953</title>
<path fill="none" stroke="black" d="M901.323,-804.708C899.031,-774.307 894.447,-713.473 892.142,-682.888"/>
</g>
<!-- 13826 -->
<g id="node77" class="node"><title>13826</title>
<g id="a_node77"><a xlink:title="3rd_week">
<ellipse fill="#20ff05" stroke="black" cx="894.439" cy="-985.32" rx="32.4942" ry="18"/>
<text text-anchor="middle" x="894.439" y="-981.62" font-family="Times,serif" font-size="14.00">13826</text>
</a>
</g>
</g>
<!-- 4477&#45;&gt;13826 -->
<g id="edge74" class="edge"><title>4477&#45;&gt;13826</title>
<path fill="none" stroke="black" d="M901.778,-840.888C900.191,-872.112 896.948,-935.956 895.358,-967.235"/>
</g>
<!-- 5562 -->
<g id="node24" class="node"><title>5562</title>
<g id="a_node24"><a xlink:title="Day_0">
<ellipse fill="#ffffff" stroke="black" cx="1134.85" cy="-256.353" rx="28.6953" ry="18"/>
<text text-anchor="middle" x="1134.85" y="-252.653" font-family="Times,serif" font-size="14.00">5562</text>
</a>
</g>
</g>
<!-- 14578 -->
<g id="node43" class="node"><title>14578</title>
<g id="a_node43"><a xlink:title="3rd_week,Day_0">
<ellipse fill="#20ff05" stroke="black" cx="1130.91" cy="-418.318" rx="32.4945" ry="18"/>
<ellipse fill="none" stroke="black" cx="1130.91" cy="-418.318" rx="36.4942" ry="22"/>
<text text-anchor="middle" x="1130.91" y="-414.618" font-family="Times,serif" font-size="14.00">14578</text>
</a>
</g>
</g>
<!-- 5562&#45;&gt;14578 -->
<g id="edge75" class="edge"><title>5562&#45;&gt;14578</title>
<path fill="none" stroke="black" d="M1134.41,-274.618C1133.68,-304.566 1132.23,-364.001 1131.44,-396.255"/>
</g>
<!-- 6308 -->
<g id="node25" class="node"><title>6308</title>
<g id="a_node25"><a xlink:title="Day_0">
<ellipse fill="grey" stroke="black" cx="1977.23" cy="-1539.1" rx="28.6953" ry="18"/>
<text text-anchor="middle" x="1977.23" y="-1535.4" font-family="Times,serif" font-size="14.00">6308</text>
</a>
</g>
</g>
<!-- 22176 -->
<g id="node52" class="node"><title>22176</title>
<g id="a_node52"><a xlink:title="Day_0">
<ellipse fill="#20ff05" stroke="black" cx="1844.26" cy="-1505.47" rx="32.4942" ry="18"/>
<text text-anchor="middle" x="1844.26" y="-1501.77" font-family="Times,serif" font-size="14.00">22176</text>
</a>
</g>
</g>
<!-- 6308&#45;&gt;22176 -->
<g id="edge61" class="edge"><title>6308&#45;&gt;22176</title>
<path fill="none" stroke="black" d="M1950.64,-1532.37C1928.51,-1526.78 1897.02,-1518.81 1874.05,-1513"/>
</g>
<!-- 6326 -->
<g id="node26" class="node"><title>6326</title>
<g id="a_node26"><a xlink:title="PRE">
<ellipse fill="#20ff05" stroke="black" cx="1182.77" cy="-514.135" rx="28.6953" ry="18"/>
<text text-anchor="middle" x="1182.77" y="-510.435" font-family="Times,serif" font-size="14.00">6326</text>
</a>
</g>
</g>
<!-- 6326&#45;&gt;20219 -->
<g id="edge44" class="edge"><title>6326&#45;&gt;20219</title>
<path fill="none" stroke="black" d="M1180.52,-532.433C1178.15,-551.714 1174.43,-581.894 1172.06,-601.096"/>
</g>
<!-- 7292 -->
<g id="node27" class="node"><title>7292</title>
<g id="a_node27"><a xlink:title="Day_0">
<ellipse fill="#20ff05" stroke="black" cx="802.989" cy="-957.246" rx="28.6953" ry="18"/>
<text text-anchor="middle" x="802.989" y="-953.546" font-family="Times,serif" font-size="14.00">7292</text>
</a>
</g>
</g>
<!-- 15579 -->
<g id="node44" class="node"><title>15579</title>
<g id="a_node44"><a xlink:title="Day_0">
<ellipse fill="#20ff05" stroke="black" cx="804.074" cy="-822.728" rx="32.4942" ry="18"/>
<text text-anchor="middle" x="804.074" y="-819.028" font-family="Times,serif" font-size="14.00">15579</text>
</a>
</g>
</g>
<!-- 7292&#45;&gt;15579 -->
<g id="edge36" class="edge"><title>7292&#45;&gt;15579</title>
<path fill="none" stroke="black" d="M803.135,-939.104C803.342,-913.431 803.719,-866.763 803.926,-841.012"/>
</g>
<!-- 8248 -->
<g id="node28" class="node"><title>8248</title>
<g id="a_node28"><a xlink:title="Day_0">
<ellipse fill="#20ff05" stroke="black" cx="1902" cy="-1630.09" rx="28.6953" ry="18"/>
<text text-anchor="middle" x="1902" y="-1626.39" font-family="Times,serif" font-size="14.00">8248</text>
</a>
</g>
</g>
<!-- 8248&#45;&gt;22176 -->
<g id="edge37" class="edge"><title>8248&#45;&gt;22176</title>
<path fill="none" stroke="black" d="M1893.97,-1612.76C1883,-1589.09 1863.44,-1546.86 1852.41,-1523.05"/>
</g>
<!-- 8286 -->
<g id="node29" class="node"><title>8286</title>
<g id="a_node29"><a xlink:title="PRE">
<ellipse fill="#20ff05" stroke="black" cx="1717.73" cy="-1520.05" rx="28.6953" ry="18"/>
<text text-anchor="middle" x="1717.73" y="-1516.35" font-family="Times,serif" font-size="14.00">8286</text>
</a>
</g>
</g>
<!-- 8286&#45;&gt;9592 -->
<g id="edge8" class="edge"><title>8286&#45;&gt;9592</title>
<path fill="none" stroke="black" d="M1715.08,-1502.06C1711.46,-1477.49 1705.01,-1433.65 1701.37,-1408.94"/>
</g>
<!-- 10596 -->
<g id="node37" class="node"><title>10596</title>
<g id="a_node37"><a xlink:title="PRE">
<ellipse fill="#ffffff" stroke="black" cx="1741.18" cy="-1656.91" rx="32.4942" ry="18"/>
<text text-anchor="middle" x="1741.18" y="-1653.21" font-family="Times,serif" font-size="14.00">10596</text>
</a>
</g>
</g>
<!-- 8286&#45;&gt;10596 -->
<g id="edge73" class="edge"><title>8286&#45;&gt;10596</title>
<path fill="none" stroke="black" d="M1720.84,-1538.23C1725.33,-1564.4 1733.56,-1612.45 1738.06,-1638.66"/>
</g>
<!-- 8907 -->
<g id="node32" class="node"><title>8907</title>
<g id="a_node32"><a xlink:title="PRE">
<ellipse fill="#20ff05" stroke="black" cx="1654.85" cy="-1586.97" rx="28.6953" ry="18"/>
<text text-anchor="middle" x="1654.85" y="-1583.27" font-family="Times,serif" font-size="14.00">8907</text>
</a>
</g>
</g>
<!-- 8907&#45;&gt;9592 -->
<g id="edge80" class="edge"><title>8907&#45;&gt;9592</title>
<path fill="none" stroke="black" d="M1658.9,-1568.85C1667.24,-1531.46 1686.3,-1446.11 1694.64,-1408.76"/>
</g>
<!-- 8907&#45;&gt;13290 -->
<g id="edge76" class="edge"><title>8907&#45;&gt;13290</title>
<path fill="none" stroke="black" d="M1651.87,-1605.18C1645.5,-1644.11 1630.62,-1735.07 1624.26,-1773.97"/>
</g>
<!-- 9592&#45;&gt;22176 -->
<g id="edge49" class="edge"><title>9592&#45;&gt;22176</title>
<path fill="none" stroke="black" d="M1716.53,-1404.76C1744.17,-1426.55 1797.07,-1468.26 1825.34,-1490.55"/>
</g>
<!-- 12159 -->
<g id="node59" class="node"><title>12159</title>
<g id="a_node59"><a xlink:title="3rd_week">
<ellipse fill="#20ff05" stroke="black" cx="370.369" cy="-609.145" rx="32.4942" ry="18"/>
<text text-anchor="middle" x="370.369" y="-605.445" font-family="Times,serif" font-size="14.00">12159</text>
</a>
</g>
</g>
<!-- 10200&#45;&gt;12159 -->
<g id="edge18" class="edge"><title>10200&#45;&gt;12159</title>
<path fill="none" stroke="black" d="M469.075,-583.214C448.394,-588.647 420.812,-595.893 400.063,-601.344"/>
</g>
<!-- 11350 -->
<g id="node39" class="node"><title>11350</title>
<g id="a_node39"><a xlink:title="PRE">
<ellipse fill="#20ff05" stroke="black" cx="1647.74" cy="-836.164" rx="32.4942" ry="18"/>
<text text-anchor="middle" x="1647.74" y="-832.464" font-family="Times,serif" font-size="14.00">11350</text>
</a>
</g>
</g>
<!-- 11350&#45;&gt;19007 -->
<g id="edge15" class="edge"><title>11350&#45;&gt;19007</title>
<path fill="none" stroke="black" d="M1625.47,-823.039C1607.15,-812.24 1581.3,-797 1562.89,-786.147"/>
</g>
<!-- 12621 -->
<g id="node40" class="node"><title>12621</title>
<g id="a_node40"><a xlink:title="Day_0">
<ellipse fill="#20ff05" stroke="black" cx="1984.25" cy="-1626.14" rx="32.4942" ry="18"/>
<text text-anchor="middle" x="1984.25" y="-1622.44" font-family="Times,serif" font-size="14.00">12621</text>
</a>
</g>
</g>
<!-- 12621&#45;&gt;22176 -->
<g id="edge13" class="edge"><title>12621&#45;&gt;22176</title>
<path fill="none" stroke="black" d="M1966.52,-1610.85C1939.59,-1587.64 1888.69,-1543.76 1861.85,-1520.62"/>
</g>
<!-- 17511 -->
<g id="node80" class="node"><title>17511</title>
<g id="a_node80"><a xlink:title="Day_0">
<ellipse fill="#ffffff" stroke="black" cx="2063.29" cy="-1740.14" rx="32.4942" ry="18"/>
<text text-anchor="middle" x="2063.29" y="-1736.44" font-family="Times,serif" font-size="14.00">17511</text>
</a>
</g>
</g>
<!-- 12621&#45;&gt;17511 -->
<g id="edge59" class="edge"><title>12621&#45;&gt;17511</title>
<path fill="none" stroke="black" d="M1995.91,-1642.96C2010.86,-1664.51 2036.61,-1701.66 2051.58,-1723.25"/>
</g>
<!-- 20866 -->
<g id="node81" class="node"><title>20866</title>
<g id="a_node81"><a xlink:title="Day_0">
<ellipse fill="#20ff05" stroke="black" cx="2109.27" cy="-1686.63" rx="32.4942" ry="18"/>
<text text-anchor="middle" x="2109.27" y="-1682.93" font-family="Times,serif" font-size="14.00">20866</text>
</a>
</g>
</g>
<!-- 12621&#45;&gt;20866 -->
<g id="edge30" class="edge"><title>12621&#45;&gt;20866</title>
<path fill="none" stroke="black" d="M2008.95,-1638.09C2030.87,-1648.69 2062.72,-1664.11 2084.62,-1674.7"/>
</g>
<!-- 14578&#45;&gt;20219 -->
<g id="edge17" class="edge"><title>14578&#45;&gt;20219</title>
<path fill="none" stroke="black" d="M1135.15,-440.197C1142.89,-480.157 1159.19,-564.227 1166.34,-601.148"/>
</g>
<!-- 23404 -->
<g id="node53" class="node"><title>23404</title>
<g id="a_node53"><a xlink:title="3rd_week">
<ellipse fill="#20ff05" stroke="black" cx="1207.93" cy="-286.736" rx="32.4942" ry="18"/>
<text text-anchor="middle" x="1207.93" y="-283.036" font-family="Times,serif" font-size="14.00">23404</text>
</a>
</g>
</g>
<!-- 14578&#45;&gt;23404 -->
<g id="edge81" class="edge"><title>14578&#45;&gt;23404</title>
<path fill="none" stroke="black" d="M1143.11,-397.469C1158.21,-371.671 1183.65,-328.214 1197.75,-304.127"/>
</g>
<!-- 23675 -->
<g id="node54" class="node"><title>23675</title>
<g id="a_node54"><a xlink:title="3rd_week">
<ellipse fill="#20ff05" stroke="black" cx="1134.48" cy="-311.268" rx="32.4942" ry="18"/>
<text text-anchor="middle" x="1134.48" y="-307.568" font-family="Times,serif" font-size="14.00">23675</text>
</a>
</g>
</g>
<!-- 14578&#45;&gt;23675 -->
<g id="edge51" class="edge"><title>14578&#45;&gt;23675</title>
<path fill="none" stroke="black" d="M1131.65,-396.137C1132.31,-376.417 1133.26,-347.934 1133.87,-329.509"/>
</g>
<!-- 24778 -->
<g id="node61" class="node"><title>24778</title>
<g id="a_node61"><a xlink:title="6th_week">
<ellipse fill="#20ff05" stroke="black" cx="1011.45" cy="-333.716" rx="32.4942" ry="18"/>
<text text-anchor="middle" x="1011.45" y="-330.016" font-family="Times,serif" font-size="14.00">24778</text>
</a>
</g>
</g>
<!-- 14578&#45;&gt;24778 -->
<g id="edge16" class="edge"><title>14578&#45;&gt;24778</title>
<path fill="none" stroke="black" d="M1107.02,-401.401C1084.96,-385.778 1052.55,-362.823 1031.72,-348.072"/>
</g>
<!-- 4066 -->
<g id="node78" class="node"><title>4066</title>
<g id="a_node78"><a xlink:title="3rd_week">
<ellipse fill="#20ff05" stroke="black" cx="1063.2" cy="-276.674" rx="28.6953" ry="18"/>
<text text-anchor="middle" x="1063.2" y="-272.974" font-family="Times,serif" font-size="14.00">4066</text>
</a>
</g>
</g>
<!-- 14578&#45;&gt;4066 -->
<g id="edge31" class="edge"><title>14578&#45;&gt;4066</title>
<path fill="none" stroke="black" d="M1120.77,-397.113C1107.34,-369.021 1083.91,-319.998 1071.49,-294.004"/>
</g>
<!-- 15579&#45;&gt;15953 -->
<g id="edge52" class="edge"><title>15579&#45;&gt;15953</title>
<path fill="none" stroke="black" d="M813.515,-805.486C830.1,-775.198 864.294,-712.752 881.057,-682.14"/>
</g>
<!-- 19101 -->
<g id="node49" class="node"><title>19101</title>
<g id="a_node49"><a xlink:title="Day_0">
<ellipse fill="grey" stroke="black" cx="732.756" cy="-955.378" rx="32.4942" ry="18"/>
<text text-anchor="middle" x="732.756" y="-951.678" font-family="Times,serif" font-size="14.00">19101</text>
</a>
</g>
</g>
<!-- 15579&#45;&gt;19101 -->
<g id="edge14" class="edge"><title>15579&#45;&gt;19101</title>
<path fill="none" stroke="black" d="M794.75,-840.069C781.082,-865.492 755.751,-912.607 742.081,-938.032"/>
</g>
<!-- 15972 -->
<g id="node79" class="node"><title>15972</title>
<g id="a_node79"><a xlink:title="Day_0">
<ellipse fill="#20ff05" stroke="black" cx="684.993" cy="-910.916" rx="32.4942" ry="18"/>
<text text-anchor="middle" x="684.993" y="-907.216" font-family="Times,serif" font-size="14.00">15972</text>
</a>
</g>
</g>
<!-- 15579&#45;&gt;15972 -->
<g id="edge3" class="edge"><title>15579&#45;&gt;15972</title>
<path fill="none" stroke="black" d="M784.41,-837.29C762.346,-853.63 726.762,-879.983 704.686,-896.332"/>
</g>
<!-- 15953&#45;&gt;20219 -->
<g id="edge65" class="edge"><title>15953&#45;&gt;20219</title>
<path fill="none" stroke="black" d="M921.953,-659.377C975.578,-650.682 1084.63,-633 1138.41,-624.28"/>
</g>
<!-- 364 -->
<g id="node57" class="node"><title>364</title>
<g id="a_node57"><a xlink:title="6th_week">
<ellipse fill="#20ff05" stroke="black" cx="734.901" cy="-708.244" rx="27" ry="18"/>
<text text-anchor="middle" x="734.901" y="-704.544" font-family="Times,serif" font-size="14.00">364</text>
</a>
</g>
</g>
<!-- 15953&#45;&gt;364 -->
<g id="edge60" class="edge"><title>15953&#45;&gt;364</title>
<path fill="none" stroke="black" d="M861.437,-672.676C832.163,-680.905 787.649,-693.417 759.968,-701.198"/>
</g>
<!-- 20945 -->
<g id="node62" class="node"><title>20945</title>
<g id="a_node62"><a xlink:title="6th_week">
<ellipse fill="#20ff05" stroke="black" cx="594.332" cy="-718.498" rx="32.4942" ry="18"/>
<text text-anchor="middle" x="594.332" y="-714.798" font-family="Times,serif" font-size="14.00">20945</text>
</a>
</g>
</g>
<!-- 364&#45;&gt;20945 -->
<g id="edge26" class="edge"><title>364&#45;&gt;20945</title>
<path fill="none" stroke="black" d="M707.798,-710.221C684.662,-711.909 651.333,-714.34 626.78,-716.131"/>
</g>
<!-- 2564 -->
<g id="node64" class="node"><title>2564</title>
<g id="a_node64"><a xlink:title="6th_week">
<ellipse fill="#20ff05" stroke="black" cx="623.656" cy="-658.054" rx="28.6953" ry="18"/>
<text text-anchor="middle" x="623.656" y="-654.354" font-family="Times,serif" font-size="14.00">2564</text>
</a>
</g>
</g>
<!-- 364&#45;&gt;2564 -->
<g id="edge7" class="edge"><title>364&#45;&gt;2564</title>
<path fill="none" stroke="black" d="M712.389,-698.087C693.343,-689.494 666.152,-677.227 646.901,-668.541"/>
</g>
<!-- 11457 -->
<g id="node68" class="node"><title>11457</title>
<g id="a_node68"><a xlink:title="6th_week">
<ellipse fill="#20ff05" stroke="black" cx="657.445" cy="-817.379" rx="32.4942" ry="18"/>
<text text-anchor="middle" x="657.445" y="-813.679" font-family="Times,serif" font-size="14.00">11457</text>
</a>
</g>
</g>
<!-- 364&#45;&gt;11457 -->
<g id="edge23" class="edge"><title>364&#45;&gt;11457</title>
<path fill="none" stroke="black" d="M723.137,-724.819C708.664,-745.212 684.215,-779.66 669.576,-800.287"/>
</g>
<!-- 511 -->
<g id="node82" class="node"><title>511</title>
<g id="a_node82"><a xlink:title="6th_week">
<ellipse fill="grey" stroke="black" cx="614.396" cy="-769.531" rx="27" ry="18"/>
<text text-anchor="middle" x="614.396" y="-765.831" font-family="Times,serif" font-size="14.00">511</text>
</a>
</g>
</g>
<!-- 364&#45;&gt;511 -->
<g id="edge78" class="edge"><title>364&#45;&gt;511</title>
<path fill="none" stroke="black" d="M713.357,-719.201C691.558,-730.287 658.037,-747.336 636.159,-758.462"/>
</g>
<!-- 22347 -->
<g id="node73" class="node"><title>22347</title>
<g id="a_node73"><a xlink:title="6th_week">
<ellipse fill="#20ff05" stroke="black" cx="195.292" cy="-440.59" rx="32.4942" ry="18"/>
<text text-anchor="middle" x="195.292" y="-436.89" font-family="Times,serif" font-size="14.00">22347</text>
</a>
</g>
</g>
<!-- 19323&#45;&gt;22347 -->
<g id="edge4" class="edge"><title>19323&#45;&gt;22347</title>
<path fill="none" stroke="black" d="M389.421,-488.428C346.605,-477.878 268.025,-458.513 225.141,-447.945"/>
</g>
<!-- 229 -->
<g id="node63" class="node"><title>229</title>
<g id="a_node63"><a xlink:title="6th_week">
<ellipse fill="#20ff05" stroke="black" cx="112.588" cy="-495.833" rx="27" ry="18"/>
<text text-anchor="middle" x="112.588" y="-492.133" font-family="Times,serif" font-size="14.00">229</text>
</a>
</g>
</g>
<!-- 229&#45;&gt;22347 -->
<g id="edge77" class="edge"><title>229&#45;&gt;22347</title>
<path fill="none" stroke="black" d="M131.77,-483.02C144.558,-474.478 161.363,-463.253 174.476,-454.494"/>
</g>
<!-- 5704 -->
<g id="node65" class="node"><title>5704</title>
<g id="a_node65"><a xlink:title="6th_week">
<ellipse fill="#20ff05" stroke="black" cx="156.657" cy="-338.565" rx="28.6953" ry="18"/>
<text text-anchor="middle" x="156.657" y="-334.865" font-family="Times,serif" font-size="14.00">5704</text>
</a>
</g>
</g>
<!-- 5704&#45;&gt;22347 -->
<g id="edge67" class="edge"><title>5704&#45;&gt;22347</title>
<path fill="none" stroke="black" d="M163.387,-356.336C170.435,-374.948 181.442,-404.016 188.51,-422.679"/>
</g>
<!-- 9005 -->
<g id="node66" class="node"><title>9005</title>
<g id="a_node66"><a xlink:title="6th_week">
<ellipse fill="#20ff05" stroke="black" cx="84.0075" cy="-548.866" rx="28.6953" ry="18"/>
<text text-anchor="middle" x="84.0075" y="-545.166" font-family="Times,serif" font-size="14.00">9005</text>
</a>
</g>
</g>
<!-- 9005&#45;&gt;22347 -->
<g id="edge40" class="edge"><title>9005&#45;&gt;22347</title>
<path fill="none" stroke="black" d="M99.9519,-533.352C120.987,-512.886 157.816,-477.053 179.015,-456.426"/>
</g>
<!-- 10961 -->
<g id="node67" class="node"><title>10961</title>
<g id="a_node67"><a xlink:title="6th_week">
<ellipse fill="#20ff05" stroke="black" cx="111.798" cy="-386.702" rx="32.4942" ry="18"/>
<text text-anchor="middle" x="111.798" y="-383.002" font-family="Times,serif" font-size="14.00">10961</text>
</a>
</g>
</g>
<!-- 10961&#45;&gt;22347 -->
<g id="edge1" class="edge"><title>10961&#45;&gt;22347</title>
<path fill="none" stroke="black" d="M133.299,-400.579C145.765,-408.625 161.409,-418.722 173.863,-426.759"/>
</g>
<!-- 15491 -->
<g id="node69" class="node"><title>15491</title>
<g id="a_node69"><a xlink:title="6th_week">
<ellipse fill="#efff05" stroke="black" cx="172.2" cy="-291.03" rx="32.4942" ry="18"/>
<text text-anchor="middle" x="172.2" y="-287.33" font-family="Times,serif" font-size="14.00">15491</text>
</a>
</g>
</g>
<!-- 15491&#45;&gt;22347 -->
<g id="edge5" class="edge"><title>15491&#45;&gt;22347</title>
<path fill="none" stroke="black" d="M174.986,-309.071C179.424,-337.817 188.052,-393.699 192.497,-422.485"/>
</g>
<!-- 16419 -->
<g id="node71" class="node"><title>16419</title>
<g id="a_node71"><a xlink:title="6th_week">
<ellipse fill="#ffffff" stroke="black" cx="35.9358" cy="-382.212" rx="32.4942" ry="18"/>
<text text-anchor="middle" x="35.9358" y="-378.512" font-family="Times,serif" font-size="14.00">16419</text>
</a>
</g>
</g>
<!-- 16419&#45;&gt;22347 -->
<g id="edge20" class="edge"><title>16419&#45;&gt;22347</title>
<path fill="none" stroke="black" d="M63.3301,-392.247C92.6075,-402.972 138.747,-419.875 167.989,-430.587"/>
</g>
<!-- 19059 -->
<g id="node72" class="node"><title>19059</title>
<g id="a_node72"><a xlink:title="6th_week">
<ellipse fill="#20ff05" stroke="black" cx="33.1779" cy="-485.416" rx="32.4942" ry="18"/>
<text text-anchor="middle" x="33.1779" y="-481.716" font-family="Times,serif" font-size="14.00">19059</text>
</a>
</g>
</g>
<!-- 19059&#45;&gt;22347 -->
<g id="edge50" class="edge"><title>19059&#45;&gt;22347</title>
<path fill="none" stroke="black" d="M62.5356,-477.298C91.9161,-469.174 136.85,-456.75 166.153,-448.647"/>
</g>
<!-- 23007 -->
<g id="node74" class="node"><title>23007</title>
<g id="a_node74"><a xlink:title="6th_week">
<ellipse fill="#20ff05" stroke="black" cx="32.0198" cy="-428.593" rx="32.4942" ry="18"/>
<text text-anchor="middle" x="32.0198" y="-424.893" font-family="Times,serif" font-size="14.00">23007</text>
</a>
</g>
</g>
<!-- 22347&#45;&gt;23007 -->
<g id="edge24" class="edge"><title>22347&#45;&gt;23007</title>
<path fill="none" stroke="black" d="M163.035,-438.219C134.504,-436.123 93.0837,-433.08 64.4891,-430.979"/>
</g>
<!-- 24996 -->
<g id="node75" class="node"><title>24996</title>
<g id="a_node75"><a xlink:title="6th_week">
<ellipse fill="#20ff05" stroke="black" cx="74.4715" cy="-329.084" rx="32.4942" ry="18"/>
<text text-anchor="middle" x="74.4715" y="-325.384" font-family="Times,serif" font-size="14.00">24996</text>
</a>
</g>
</g>
<!-- 22347&#45;&gt;24996 -->
<g id="edge29" class="edge"><title>22347&#45;&gt;24996</title>
<path fill="none" stroke="black" d="M178.492,-425.085C155.539,-403.901 114.599,-366.118 91.5178,-344.816"/>
</g>
<!-- 12906 -->
<g id="node76" class="node"><title>12906</title>
<g id="a_node76"><a xlink:title="3rd_week">
<ellipse fill="#20ff05" stroke="black" cx="863.943" cy="-1116.25" rx="32.4942" ry="18"/>
<text text-anchor="middle" x="863.943" y="-1112.55" font-family="Times,serif" font-size="14.00">12906</text>
</a>
</g>
</g>
<!-- 12906&#45;&gt;13826 -->
<g id="edge35" class="edge"><title>12906&#45;&gt;13826</title>
<path fill="none" stroke="black" d="M868.119,-1098.32C873.927,-1073.39 884.383,-1028.5 890.216,-1003.46"/>
</g>
</g>
</svg>
