<?xml version="1.0" encoding="UTF-8" standalone="no"?>
<!DOCTYPE svg PUBLIC "-//W3C//DTD SVG 1.1//EN"
 "http://www.w3.org/Graphics/SVG/1.1/DTD/svg11.dtd">
<!-- Generated by graphviz version 2.38.0 (20140413.2041)
 -->
<!-- Title: %3 Pages: 1 -->
<svg width="2469pt" height="2789pt"
 viewBox="0.00 0.00 2469.00 2789.00" xmlns="http://www.w3.org/2000/svg" xmlns:xlink="http://www.w3.org/1999/xlink">
<g id="graph0" class="graph" transform="scale(1 1) rotate(0) translate(4 2785)">
<title>%3</title>
<polygon fill="white" stroke="none" points="-4,4 -4,-2785 2465,-2785 2465,4 -4,4"/>
<!-- 72 -->
<g id="node1" class="node"><title>72</title>
<g id="a_node1"><a xlink:title="PRE">
<ellipse fill="#20ff05" stroke="black" cx="1656.89" cy="-1543.61" rx="27" ry="18"/>
<text text-anchor="middle" x="1656.89" y="-1539.91" font-family="Times,serif" font-size="14.00">72</text>
</a>
</g>
</g>
<!-- 5673 -->
<g id="node10" class="node"><title>5673</title>
<g id="a_node10"><a xlink:title="PRE">
<ellipse fill="#07ffd1" stroke="black" cx="1502.29" cy="-1570.57" rx="28.6953" ry="18"/>
<text text-anchor="middle" x="1502.29" y="-1566.87" font-family="Times,serif" font-size="14.00">5673</text>
</a>
</g>
</g>
<!-- 72&#45;&gt;5673 -->
<g id="edge28" class="edge"><title>72&#45;&gt;5673</title>
<path fill="none" stroke="black" d="M1630.66,-1548.19C1602.67,-1553.07 1558.49,-1560.77 1529.95,-1565.75"/>
</g>
<!-- 657 -->
<g id="node2" class="node"><title>657</title>
<g id="a_node2"><a xlink:title="PRE">
<ellipse fill="#07ffd1" stroke="black" cx="2025.76" cy="-2419.64" rx="27" ry="18"/>
<text text-anchor="middle" x="2025.76" y="-2415.94" font-family="Times,serif" font-size="14.00">657</text>
</a>
</g>
</g>
<!-- 5343 -->
<g id="node9" class="node"><title>5343</title>
<g id="a_node9"><a xlink:title="PRE">
<ellipse fill="#07ffd1" stroke="black" cx="1995.55" cy="-2264.84" rx="28.6953" ry="18"/>
<text text-anchor="middle" x="1995.55" y="-2261.14" font-family="Times,serif" font-size="14.00">5343</text>
</a>
</g>
</g>
<!-- 657&#45;&gt;5343 -->
<g id="edge26" class="edge"><title>657&#45;&gt;5343</title>
<path fill="none" stroke="black" d="M2022.23,-2401.58C2016.41,-2371.75 2004.86,-2312.54 1999.05,-2282.78"/>
</g>
<!-- 1770 -->
<g id="node3" class="node"><title>1770</title>
<g id="a_node3"><a xlink:title="PRE">
<ellipse fill="#ffffff" stroke="black" cx="1631.16" cy="-1656.55" rx="28.6953" ry="18"/>
<text text-anchor="middle" x="1631.16" y="-1652.85" font-family="Times,serif" font-size="14.00">1770</text>
</a>
</g>
</g>
<!-- 1770&#45;&gt;5673 -->
<g id="edge24" class="edge"><title>1770&#45;&gt;5673</title>
<path fill="none" stroke="black" d="M1611.31,-1643.3C1587.02,-1627.1 1546.16,-1599.84 1521.96,-1583.69"/>
</g>
<!-- 1982 -->
<g id="node4" class="node"><title>1982</title>
<g id="a_node4"><a xlink:title="PRE">
<ellipse fill="#07ffd1" stroke="black" cx="727.344" cy="-980.194" rx="28.6953" ry="18"/>
<text text-anchor="middle" x="727.344" y="-976.494" font-family="Times,serif" font-size="14.00">1982</text>
</a>
</g>
</g>
<!-- 22051 -->
<g id="node37" class="node"><title>22051</title>
<g id="a_node37"><a xlink:title="PRE">
<ellipse fill="#07ffd1" stroke="black" cx="932.238" cy="-983.531" rx="32.4942" ry="18"/>
<text text-anchor="middle" x="932.238" y="-979.831" font-family="Times,serif" font-size="14.00">22051</text>
</a>
</g>
</g>
<!-- 1982&#45;&gt;22051 -->
<g id="edge25" class="edge"><title>1982&#45;&gt;22051</title>
<path fill="none" stroke="black" d="M756.266,-980.665C794.103,-981.281 860.219,-982.358 899.744,-983.002"/>
</g>
<!-- 16888 -->
<g id="node61" class="node"><title>16888</title>
<g id="a_node61"><a xlink:title="PRE">
<ellipse fill="#07ffd1" stroke="black" cx="557.213" cy="-983.451" rx="32.4942" ry="18"/>
<text text-anchor="middle" x="557.213" y="-979.751" font-family="Times,serif" font-size="14.00">16888</text>
</a>
</g>
</g>
<!-- 1982&#45;&gt;16888 -->
<g id="edge16" class="edge"><title>1982&#45;&gt;16888</title>
<path fill="none" stroke="black" d="M698.484,-980.747C668.336,-981.324 621.141,-982.227 589.705,-982.829"/>
</g>
<!-- 3477 -->
<g id="node5" class="node"><title>3477</title>
<g id="a_node5"><a xlink:title="PRE">
<ellipse fill="#07ffd1" stroke="black" cx="1793.61" cy="-1918.08" rx="28.6953" ry="18"/>
<text text-anchor="middle" x="1793.61" y="-1914.38" font-family="Times,serif" font-size="14.00">3477</text>
</a>
</g>
</g>
<!-- 4556 -->
<g id="node7" class="node"><title>4556</title>
<g id="a_node7"><a xlink:title="PRE">
<ellipse fill="#07ffd1" stroke="black" cx="1838.03" cy="-2065.61" rx="28.6953" ry="18"/>
<text text-anchor="middle" x="1838.03" y="-2061.91" font-family="Times,serif" font-size="14.00">4556</text>
</a>
</g>
</g>
<!-- 3477&#45;&gt;4556 -->
<g id="edge73" class="edge"><title>3477&#45;&gt;4556</title>
<path fill="none" stroke="black" d="M1798.97,-1935.87C1807.5,-1964.23 1824.1,-2019.36 1832.65,-2047.75"/>
</g>
<!-- 3477&#45;&gt;5343 -->
<g id="edge29" class="edge"><title>3477&#45;&gt;5343</title>
<path fill="none" stroke="black" d="M1803.62,-1935.27C1838,-1994.31 1951,-2188.34 1985.47,-2247.54"/>
</g>
<!-- 3477&#45;&gt;5673 -->
<g id="edge51" class="edge"><title>3477&#45;&gt;5673</title>
<path fill="none" stroke="black" d="M1779.95,-1901.78C1731.02,-1843.41 1564.81,-1645.15 1515.92,-1586.83"/>
</g>
<!-- 9491 -->
<g id="node17" class="node"><title>9491</title>
<g id="a_node17"><a xlink:title="PRE">
<ellipse fill="grey" stroke="black" cx="1933.94" cy="-1856.17" rx="28.6953" ry="18"/>
<text text-anchor="middle" x="1933.94" y="-1852.47" font-family="Times,serif" font-size="14.00">9491</text>
</a>
</g>
</g>
<!-- 3477&#45;&gt;9491 -->
<g id="edge20" class="edge"><title>3477&#45;&gt;9491</title>
<path fill="none" stroke="black" d="M1817.1,-1907.72C1843,-1896.29 1884.44,-1878.01 1910.37,-1866.57"/>
</g>
<!-- 22132 -->
<g id="node38" class="node"><title>22132</title>
<g id="a_node38"><a xlink:title="PRE">
<ellipse fill="#07ffd1" stroke="black" cx="1914.66" cy="-2022.84" rx="32.4942" ry="18"/>
<text text-anchor="middle" x="1914.66" y="-2019.14" font-family="Times,serif" font-size="14.00">22132</text>
</a>
</g>
</g>
<!-- 3477&#45;&gt;22132 -->
<g id="edge44" class="edge"><title>3477&#45;&gt;22132</title>
<path fill="none" stroke="black" d="M1810.44,-1932.64C1833.18,-1952.32 1873.53,-1987.24 1896.79,-2007.37"/>
</g>
<!-- 25347 -->
<g id="node47" class="node"><title>25347</title>
<g id="a_node47"><a xlink:title="PRE">
<ellipse fill="#07ffd1" stroke="black" cx="1685.93" cy="-2043.43" rx="32.4942" ry="18"/>
<text text-anchor="middle" x="1685.93" y="-2039.73" font-family="Times,serif" font-size="14.00">25347</text>
</a>
</g>
</g>
<!-- 3477&#45;&gt;25347 -->
<g id="edge41" class="edge"><title>3477&#45;&gt;25347</title>
<path fill="none" stroke="black" d="M1779.97,-1933.95C1759.48,-1957.8 1720.96,-2002.65 1700.14,-2026.88"/>
</g>
<!-- 27275 -->
<g id="node50" class="node"><title>27275</title>
<g id="a_node50"><a xlink:title="PRE">
<ellipse fill="#07ffd1" stroke="black" cx="2034.29" cy="-1882.19" rx="32.4942" ry="18"/>
<text text-anchor="middle" x="2034.29" y="-1878.49" font-family="Times,serif" font-size="14.00">27275</text>
</a>
</g>
</g>
<!-- 3477&#45;&gt;27275 -->
<g id="edge66" class="edge"><title>3477&#45;&gt;27275</title>
<path fill="none" stroke="black" d="M1821.69,-1913.89C1866.83,-1907.16 1955.24,-1893.98 2002.58,-1886.92"/>
</g>
<!-- 28050 -->
<g id="node51" class="node"><title>28050</title>
<g id="a_node51"><a xlink:title="PRE">
<ellipse fill="#07ffd1" stroke="black" cx="1760.18" cy="-2081.24" rx="32.4942" ry="18"/>
<text text-anchor="middle" x="1760.18" y="-2077.54" font-family="Times,serif" font-size="14.00">28050</text>
</a>
</g>
</g>
<!-- 3477&#45;&gt;28050 -->
<g id="edge2" class="edge"><title>3477&#45;&gt;28050</title>
<path fill="none" stroke="black" d="M1789.9,-1936.16C1783.48,-1967.53 1770.34,-2031.66 1763.9,-2063.08"/>
</g>
<!-- 17938 -->
<g id="node63" class="node"><title>17938</title>
<g id="a_node63"><a xlink:title="PRE">
<ellipse fill="#ffffff" stroke="black" cx="1951.58" cy="-1950.73" rx="32.4942" ry="18"/>
<text text-anchor="middle" x="1951.58" y="-1947.03" font-family="Times,serif" font-size="14.00">17938</text>
</a>
</g>
</g>
<!-- 3477&#45;&gt;17938 -->
<g id="edge40" class="edge"><title>3477&#45;&gt;17938</title>
<path fill="none" stroke="black" d="M1821.13,-1923.76C1848.97,-1929.52 1891.93,-1938.4 1920.87,-1944.38"/>
</g>
<!-- 3794 -->
<g id="node6" class="node"><title>3794</title>
<g id="a_node6"><a xlink:title="PRE">
<ellipse fill="#07ffd1" stroke="black" cx="1566.03" cy="-1431.89" rx="28.6953" ry="18"/>
<text text-anchor="middle" x="1566.03" y="-1428.19" font-family="Times,serif" font-size="14.00">3794</text>
</a>
</g>
</g>
<!-- 3794&#45;&gt;5673 -->
<g id="edge52" class="edge"><title>3794&#45;&gt;5673</title>
<path fill="none" stroke="black" d="M1557.96,-1449.45C1545.7,-1476.13 1522.52,-1526.56 1510.3,-1553.15"/>
</g>
<!-- 4658 -->
<g id="node8" class="node"><title>4658</title>
<g id="a_node8"><a xlink:title="PRE">
<ellipse fill="#07ffd1" stroke="black" cx="1550.35" cy="-1346.61" rx="28.6953" ry="18"/>
<text text-anchor="middle" x="1550.35" y="-1342.91" font-family="Times,serif" font-size="14.00">4658</text>
</a>
</g>
</g>
<!-- 4658&#45;&gt;5673 -->
<g id="edge46" class="edge"><title>4658&#45;&gt;5673</title>
<path fill="none" stroke="black" d="M1546.5,-1364.56C1537.5,-1406.49 1515.18,-1510.52 1506.16,-1552.54"/>
</g>
<!-- 7035 -->
<g id="node12" class="node"><title>7035</title>
<g id="a_node12"><a xlink:title="PRE">
<ellipse fill="#07ffd1" stroke="black" cx="1595.63" cy="-1170.65" rx="28.6953" ry="18"/>
<text text-anchor="middle" x="1595.63" y="-1166.95" font-family="Times,serif" font-size="14.00">7035</text>
</a>
</g>
</g>
<!-- 4658&#45;&gt;7035 -->
<g id="edge38" class="edge"><title>4658&#45;&gt;7035</title>
<path fill="none" stroke="black" d="M1554.94,-1328.77C1563.62,-1295.04 1582.34,-1222.3 1591.03,-1188.53"/>
</g>
<!-- 6429 -->
<g id="node11" class="node"><title>6429</title>
<g id="a_node11"><a xlink:title="PRE">
<ellipse fill="#07ffd1" stroke="black" cx="1954.01" cy="-2424.73" rx="28.6953" ry="18"/>
<text text-anchor="middle" x="1954.01" y="-2421.03" font-family="Times,serif" font-size="14.00">6429</text>
</a>
</g>
</g>
<!-- 5343&#45;&gt;6429 -->
<g id="edge42" class="edge"><title>5343&#45;&gt;6429</title>
<path fill="none" stroke="black" d="M1990.86,-2282.87C1982.89,-2313.58 1966.75,-2375.69 1958.74,-2406.52"/>
</g>
<!-- 12205 -->
<g id="node24" class="node"><title>12205</title>
<g id="a_node24"><a xlink:title="PRE">
<ellipse fill="#07ffd1" stroke="black" cx="2078.18" cy="-2563.95" rx="32.4942" ry="18"/>
<text text-anchor="middle" x="2078.18" y="-2560.25" font-family="Times,serif" font-size="14.00">12205</text>
</a>
</g>
</g>
<!-- 5343&#45;&gt;12205 -->
<g id="edge68" class="edge"><title>5343&#45;&gt;12205</title>
<path fill="none" stroke="black" d="M2000.47,-2282.65C2015.13,-2335.73 2058.42,-2492.41 2073.18,-2545.85"/>
</g>
<!-- 13933 -->
<g id="node28" class="node"><title>13933</title>
<g id="a_node28"><a xlink:title="PRE">
<ellipse fill="#07ffd1" stroke="black" cx="1884.48" cy="-2391.16" rx="32.4942" ry="18"/>
<text text-anchor="middle" x="1884.48" y="-2387.46" font-family="Times,serif" font-size="14.00">13933</text>
</a>
</g>
</g>
<!-- 5343&#45;&gt;13933 -->
<g id="edge18" class="edge"><title>5343&#45;&gt;13933</title>
<path fill="none" stroke="black" d="M1981.48,-2280.84C1960.23,-2305 1920.17,-2350.57 1898.78,-2374.89"/>
</g>
<!-- 16137 -->
<g id="node30" class="node"><title>16137</title>
<g id="a_node30"><a xlink:title="PRE">
<ellipse fill="grey" stroke="black" cx="2142.94" cy="-2328.68" rx="32.4942" ry="18"/>
<text text-anchor="middle" x="2142.94" y="-2324.98" font-family="Times,serif" font-size="14.00">16137</text>
</a>
</g>
</g>
<!-- 5343&#45;&gt;16137 -->
<g id="edge1" class="edge"><title>5343&#45;&gt;16137</title>
<path fill="none" stroke="black" d="M2019.23,-2275.09C2046.08,-2286.73 2089.71,-2305.62 2117.34,-2317.59"/>
</g>
<!-- 18422 -->
<g id="node32" class="node"><title>18422</title>
<g id="a_node32"><a xlink:title="PRE">
<ellipse fill="#07ffd1" stroke="black" cx="2098.05" cy="-2396.69" rx="32.4942" ry="18"/>
<text text-anchor="middle" x="2098.05" y="-2392.99" font-family="Times,serif" font-size="14.00">18422</text>
</a>
</g>
</g>
<!-- 5343&#45;&gt;18422 -->
<g id="edge27" class="edge"><title>5343&#45;&gt;18422</title>
<path fill="none" stroke="black" d="M2008.32,-2281.27C2027.96,-2306.53 2065.38,-2354.66 2085.12,-2380.05"/>
</g>
<!-- 22515 -->
<g id="node39" class="node"><title>22515</title>
<g id="a_node39"><a xlink:title="PRE">
<ellipse fill="#07ffd1" stroke="black" cx="2160.79" cy="-2247.62" rx="32.4942" ry="18"/>
<text text-anchor="middle" x="2160.79" y="-2243.92" font-family="Times,serif" font-size="14.00">22515</text>
</a>
</g>
</g>
<!-- 5343&#45;&gt;22515 -->
<g id="edge23" class="edge"><title>5343&#45;&gt;22515</title>
<path fill="none" stroke="black" d="M2023.95,-2261.88C2053.11,-2258.84 2098.4,-2254.12 2128.81,-2250.95"/>
</g>
<!-- 29223 -->
<g id="node55" class="node"><title>29223</title>
<g id="a_node55"><a xlink:title="PRE">
<ellipse fill="#07ffd1" stroke="black" cx="2227.49" cy="-2365.99" rx="32.4942" ry="18"/>
<text text-anchor="middle" x="2227.49" y="-2362.29" font-family="Times,serif" font-size="14.00">29223</text>
</a>
</g>
</g>
<!-- 5343&#45;&gt;29223 -->
<g id="edge63" class="edge"><title>5343&#45;&gt;29223</title>
<path fill="none" stroke="black" d="M2019.06,-2275.09C2062.83,-2294.18 2156.44,-2335 2201.8,-2354.78"/>
</g>
<!-- 7463 -->
<g id="node13" class="node"><title>7463</title>
<g id="a_node13"><a xlink:title="PRE">
<ellipse fill="#07ffd1" stroke="black" cx="1397.03" cy="-1678.83" rx="28.6953" ry="18"/>
<text text-anchor="middle" x="1397.03" y="-1675.13" font-family="Times,serif" font-size="14.00">7463</text>
</a>
</g>
</g>
<!-- 5673&#45;&gt;7463 -->
<g id="edge67" class="edge"><title>5673&#45;&gt;7463</title>
<path fill="none" stroke="black" d="M1487.21,-1586.08C1467.2,-1606.66 1432.08,-1642.78 1412.08,-1663.35"/>
</g>
<!-- 9709 -->
<g id="node18" class="node"><title>9709</title>
<g id="a_node18"><a xlink:title="PRE">
<ellipse fill="grey" stroke="black" cx="1428.72" cy="-1455.84" rx="28.6953" ry="18"/>
<text text-anchor="middle" x="1428.72" y="-1452.14" font-family="Times,serif" font-size="14.00">9709</text>
</a>
</g>
</g>
<!-- 5673&#45;&gt;9709 -->
<g id="edge22" class="edge"><title>5673&#45;&gt;9709</title>
<path fill="none" stroke="black" d="M1491.44,-1553.64C1477.53,-1531.95 1453.55,-1494.56 1439.62,-1472.84"/>
</g>
<!-- 10569 -->
<g id="node19" class="node"><title>10569</title>
<g id="a_node19"><a xlink:title="PRE">
<ellipse fill="#07ffd1" stroke="black" cx="1213.53" cy="-1271.41" rx="32.4942" ry="18"/>
<text text-anchor="middle" x="1213.53" y="-1267.71" font-family="Times,serif" font-size="14.00">10569</text>
</a>
</g>
</g>
<!-- 5673&#45;&gt;10569 -->
<g id="edge57" class="edge"><title>5673&#45;&gt;10569</title>
<path fill="none" stroke="black" d="M1487.18,-1554.91C1437.51,-1503.45 1279.66,-1339.92 1229.2,-1287.65"/>
</g>
<!-- 10582 -->
<g id="node20" class="node"><title>10582</title>
<g id="a_node20"><a xlink:title="PRE">
<ellipse fill="#07ffd1" stroke="black" cx="1443.16" cy="-1726.38" rx="32.4942" ry="18"/>
<text text-anchor="middle" x="1443.16" y="-1722.68" font-family="Times,serif" font-size="14.00">10582</text>
</a>
</g>
</g>
<!-- 5673&#45;&gt;10582 -->
<g id="edge53" class="edge"><title>5673&#45;&gt;10582</title>
<path fill="none" stroke="black" d="M1495.63,-1588.14C1484.27,-1618.07 1461.3,-1678.59 1449.9,-1708.63"/>
</g>
<!-- 10657 -->
<g id="node21" class="node"><title>10657</title>
<g id="a_node21"><a xlink:title="PRE">
<ellipse fill="#07ffd1" stroke="black" cx="1347.24" cy="-1632.39" rx="32.4942" ry="18"/>
<text text-anchor="middle" x="1347.24" y="-1628.69" font-family="Times,serif" font-size="14.00">10657</text>
</a>
</g>
</g>
<!-- 5673&#45;&gt;10657 -->
<g id="edge13" class="edge"><title>5673&#45;&gt;10657</title>
<path fill="none" stroke="black" d="M1478.07,-1580.23C1449.7,-1591.54 1402.89,-1610.2 1373.63,-1621.87"/>
</g>
<!-- 12495 -->
<g id="node26" class="node"><title>12495</title>
<g id="a_node26"><a xlink:title="PRE">
<ellipse fill="#07ffd1" stroke="black" cx="1709.81" cy="-1463.82" rx="32.4942" ry="18"/>
<text text-anchor="middle" x="1709.81" y="-1460.12" font-family="Times,serif" font-size="14.00">12495</text>
</a>
</g>
</g>
<!-- 5673&#45;&gt;12495 -->
<g id="edge45" class="edge"><title>5673&#45;&gt;12495</title>
<path fill="none" stroke="black" d="M1524.5,-1559.15C1563.81,-1538.92 1645.32,-1496.99 1685.85,-1476.14"/>
</g>
<!-- 12553 -->
<g id="node27" class="node"><title>12553</title>
<g id="a_node27"><a xlink:title="PRE">
<ellipse fill="#07ffd1" stroke="black" cx="1359.15" cy="-1459.15" rx="32.4942" ry="18"/>
<text text-anchor="middle" x="1359.15" y="-1455.45" font-family="Times,serif" font-size="14.00">12553</text>
</a>
</g>
</g>
<!-- 5673&#45;&gt;12553 -->
<g id="edge60" class="edge"><title>5673&#45;&gt;12553</title>
<path fill="none" stroke="black" d="M1484.16,-1556.46C1456.93,-1535.26 1405.71,-1495.39 1378.04,-1473.85"/>
</g>
<!-- 17582 -->
<g id="node31" class="node"><title>17582</title>
<g id="a_node31"><a xlink:title="PRE">
<ellipse fill="#07ffd1" stroke="black" cx="1633.89" cy="-1476.44" rx="32.4942" ry="18"/>
<text text-anchor="middle" x="1633.89" y="-1472.74" font-family="Times,serif" font-size="14.00">17582</text>
</a>
</g>
</g>
<!-- 5673&#45;&gt;17582 -->
<g id="edge64" class="edge"><title>5673&#45;&gt;17582</title>
<path fill="none" stroke="black" d="M1521.43,-1556.88C1546.09,-1539.24 1588.78,-1508.7 1613.87,-1490.76"/>
</g>
<!-- 18554 -->
<g id="node33" class="node"><title>18554</title>
<g id="a_node33"><a xlink:title="PRE">
<ellipse fill="#07ffd1" stroke="black" cx="1327.79" cy="-1570.92" rx="32.4942" ry="18"/>
<text text-anchor="middle" x="1327.79" y="-1567.22" font-family="Times,serif" font-size="14.00">18554</text>
</a>
</g>
</g>
<!-- 5673&#45;&gt;18554 -->
<g id="edge39" class="edge"><title>5673&#45;&gt;18554</title>
<path fill="none" stroke="black" d="M1473.48,-1570.63C1442.4,-1570.69 1393.03,-1570.79 1360.51,-1570.86"/>
</g>
<!-- 18871 -->
<g id="node34" class="node"><title>18871</title>
<g id="a_node34"><a xlink:title="PRE">
<ellipse fill="#07ffd1" stroke="black" cx="1644.46" cy="-1384.3" rx="32.4942" ry="18"/>
<text text-anchor="middle" x="1644.46" y="-1380.6" font-family="Times,serif" font-size="14.00">18871</text>
</a>
</g>
</g>
<!-- 5673&#45;&gt;18871 -->
<g id="edge12" class="edge"><title>5673&#45;&gt;18871</title>
<path fill="none" stroke="black" d="M1514.91,-1554.04C1541.82,-1518.78 1604.6,-1436.52 1631.67,-1401.06"/>
</g>
<!-- 23796 -->
<g id="node42" class="node"><title>23796</title>
<g id="a_node42"><a xlink:title="PRE">
<ellipse fill="#07ffd1" stroke="black" cx="1516.18" cy="-1750.89" rx="32.4942" ry="18"/>
<text text-anchor="middle" x="1516.18" y="-1747.19" font-family="Times,serif" font-size="14.00">23796</text>
</a>
</g>
</g>
<!-- 5673&#45;&gt;23796 -->
<g id="edge43" class="edge"><title>5673&#45;&gt;23796</title>
<path fill="none" stroke="black" d="M1503.7,-1588.85C1506.37,-1623.5 1512.14,-1698.35 1514.79,-1732.83"/>
</g>
<!-- 24262 -->
<g id="node44" class="node"><title>24262</title>
<g id="a_node44"><a xlink:title="PRE">
<ellipse fill="#07ffd1" stroke="black" cx="1259.53" cy="-1664.14" rx="32.4942" ry="18"/>
<text text-anchor="middle" x="1259.53" y="-1660.44" font-family="Times,serif" font-size="14.00">24262</text>
</a>
</g>
</g>
<!-- 5673&#45;&gt;24262 -->
<g id="edge32" class="edge"><title>5673&#45;&gt;24262</title>
<path fill="none" stroke="black" d="M1477.68,-1580.06C1431.87,-1597.71 1333.89,-1635.48 1286.42,-1653.77"/>
</g>
<!-- 24530 -->
<g id="node45" class="node"><title>24530</title>
<g id="a_node45"><a xlink:title="PRE">
<ellipse fill="#07ffd1" stroke="black" cx="1496.24" cy="-1399.48" rx="32.4942" ry="18"/>
<text text-anchor="middle" x="1496.24" y="-1395.78" font-family="Times,serif" font-size="14.00">24530</text>
</a>
</g>
</g>
<!-- 5673&#45;&gt;24530 -->
<g id="edge47" class="edge"><title>5673&#45;&gt;24530</title>
<path fill="none" stroke="black" d="M1501.65,-1552.26C1500.48,-1519.33 1498.04,-1450.49 1496.88,-1417.65"/>
</g>
<!-- 25762 -->
<g id="node48" class="node"><title>25762</title>
<g id="a_node48"><a xlink:title="PRE">
<ellipse fill="#07ffd1" stroke="black" cx="1587.23" cy="-1706.61" rx="32.4942" ry="18"/>
<text text-anchor="middle" x="1587.23" y="-1702.91" font-family="Times,serif" font-size="14.00">25762</text>
</a>
</g>
</g>
<!-- 5673&#45;&gt;25762 -->
<g id="edge4" class="edge"><title>5673&#45;&gt;25762</title>
<path fill="none" stroke="black" d="M1512.88,-1587.53C1529.16,-1613.6 1560.16,-1663.25 1576.51,-1689.45"/>
</g>
<!-- 25801 -->
<g id="node49" class="node"><title>25801</title>
<g id="a_node49"><a xlink:title="PRE">
<ellipse fill="#07ffd1" stroke="black" cx="1364.41" cy="-1754.45" rx="32.4942" ry="18"/>
<text text-anchor="middle" x="1364.41" y="-1750.75" font-family="Times,serif" font-size="14.00">25801</text>
</a>
</g>
</g>
<!-- 5673&#45;&gt;25801 -->
<g id="edge15" class="edge"><title>5673&#45;&gt;25801</title>
<path fill="none" stroke="black" d="M1490.06,-1586.89C1464.02,-1621.61 1403.38,-1702.48 1377.02,-1737.64"/>
</g>
<!-- 28236 -->
<g id="node52" class="node"><title>28236</title>
<g id="a_node52"><a xlink:title="PRE">
<ellipse fill="#07ffd1" stroke="black" cx="1673.65" cy="-1603.14" rx="32.4942" ry="18"/>
<text text-anchor="middle" x="1673.65" y="-1599.44" font-family="Times,serif" font-size="14.00">28236</text>
</a>
</g>
</g>
<!-- 5673&#45;&gt;28236 -->
<g id="edge69" class="edge"><title>5673&#45;&gt;28236</title>
<path fill="none" stroke="black" d="M1529.83,-1575.8C1560.67,-1581.67 1610.54,-1591.15 1642.71,-1597.26"/>
</g>
<!-- 29101 -->
<g id="node54" class="node"><title>29101</title>
<g id="a_node54"><a xlink:title="PRE">
<ellipse fill="#07ffd1" stroke="black" cx="1422.58" cy="-1400.46" rx="32.4942" ry="18"/>
<text text-anchor="middle" x="1422.58" y="-1396.76" font-family="Times,serif" font-size="14.00">29101</text>
</a>
</g>
</g>
<!-- 5673&#45;&gt;29101 -->
<g id="edge11" class="edge"><title>5673&#45;&gt;29101</title>
<path fill="none" stroke="black" d="M1494.06,-1553.01C1478.75,-1520.33 1446.05,-1450.54 1430.77,-1417.93"/>
</g>
<!-- 29253 -->
<g id="node56" class="node"><title>29253</title>
<g id="a_node56"><a xlink:title="PRE">
<ellipse fill="grey" stroke="black" cx="1334.03" cy="-1513.75" rx="32.4942" ry="18"/>
<text text-anchor="middle" x="1334.03" y="-1510.05" font-family="Times,serif" font-size="14.00">29253</text>
</a>
</g>
</g>
<!-- 5673&#45;&gt;29253 -->
<g id="edge34" class="edge"><title>5673&#45;&gt;29253</title>
<path fill="none" stroke="black" d="M1476.74,-1561.94C1445.76,-1551.48 1393.73,-1533.91 1361.79,-1523.12"/>
</g>
<!-- 7868 -->
<g id="node14" class="node"><title>7868</title>
<g id="a_node14"><a xlink:title="PRE">
<ellipse fill="#07ffd1" stroke="black" cx="2011.79" cy="-2729.95" rx="28.6953" ry="18"/>
<text text-anchor="middle" x="2011.79" y="-2726.25" font-family="Times,serif" font-size="14.00">7868</text>
</a>
</g>
</g>
<!-- 7868&#45;&gt;12205 -->
<g id="edge61" class="edge"><title>7868&#45;&gt;12205</title>
<path fill="none" stroke="black" d="M2018.9,-2712.18C2031.68,-2680.23 2058.39,-2613.45 2071.13,-2581.59"/>
</g>
<!-- 7947 -->
<g id="node15" class="node"><title>7947</title>
<g id="a_node15"><a xlink:title="PRE">
<ellipse fill="#07ffd1" stroke="black" cx="2109.31" cy="-2717.13" rx="28.6953" ry="18"/>
<text text-anchor="middle" x="2109.31" y="-2713.43" font-family="Times,serif" font-size="14.00">7947</text>
</a>
</g>
</g>
<!-- 7947&#45;&gt;12205 -->
<g id="edge30" class="edge"><title>7947&#45;&gt;12205</title>
<path fill="none" stroke="black" d="M2105.68,-2699.26C2099.71,-2669.9 2087.9,-2611.78 2081.89,-2582.19"/>
</g>
<!-- 8588 -->
<g id="node16" class="node"><title>8588</title>
<g id="a_node16"><a xlink:title="PRE">
<ellipse fill="#07ffd1" stroke="black" cx="1123.95" cy="-1145.09" rx="28.6953" ry="18"/>
<text text-anchor="middle" x="1123.95" y="-1141.39" font-family="Times,serif" font-size="14.00">8588</text>
</a>
</g>
</g>
<!-- 8588&#45;&gt;10569 -->
<g id="edge72" class="edge"><title>8588&#45;&gt;10569</title>
<path fill="none" stroke="black" d="M1135.66,-1161.6C1152.73,-1185.68 1184.3,-1230.19 1201.53,-1254.49"/>
</g>
<!-- 10569&#45;&gt;22051 -->
<g id="edge65" class="edge"><title>10569&#45;&gt;22051</title>
<path fill="none" stroke="black" d="M1198.01,-1255.52C1148.83,-1205.19 996.828,-1049.63 947.714,-999.37"/>
</g>
<!-- 11184 -->
<g id="node22" class="node"><title>11184</title>
<g id="a_node22"><a xlink:title="PRE">
<ellipse fill="grey" stroke="black" cx="1074.52" cy="-1694.48" rx="32.4942" ry="18"/>
<text text-anchor="middle" x="1074.52" y="-1690.78" font-family="Times,serif" font-size="14.00">11184</text>
</a>
</g>
</g>
<!-- 11184&#45;&gt;24262 -->
<g id="edge19" class="edge"><title>11184&#45;&gt;24262</title>
<path fill="none" stroke="black" d="M1105.91,-1689.33C1140.03,-1683.73 1194.24,-1674.84 1228.3,-1669.26"/>
</g>
<!-- 11887 -->
<g id="node23" class="node"><title>11887</title>
<g id="a_node23"><a xlink:title="PRE">
<ellipse fill="#07ffd1" stroke="black" cx="1006.52" cy="-836.761" rx="32.4942" ry="18"/>
<text text-anchor="middle" x="1006.52" y="-833.061" font-family="Times,serif" font-size="14.00">11887</text>
</a>
</g>
</g>
<!-- 11887&#45;&gt;22051 -->
<g id="edge33" class="edge"><title>11887&#45;&gt;22051</title>
<path fill="none" stroke="black" d="M997.71,-854.174C983.413,-882.421 955.329,-937.908 941.039,-966.141"/>
</g>
<!-- 23084 -->
<g id="node40" class="node"><title>23084</title>
<g id="a_node40"><a xlink:title="PRE">
<ellipse fill="grey" stroke="black" cx="2081.6" cy="-2762.57" rx="32.4942" ry="18"/>
<text text-anchor="middle" x="2081.6" y="-2758.87" font-family="Times,serif" font-size="14.00">23084</text>
</a>
</g>
</g>
<!-- 12205&#45;&gt;23084 -->
<g id="edge6" class="edge"><title>12205&#45;&gt;23084</title>
<path fill="none" stroke="black" d="M2078.5,-2582.28C2079.15,-2620.12 2080.63,-2706.49 2081.28,-2744.29"/>
</g>
<!-- 17227 -->
<g id="node62" class="node"><title>17227</title>
<g id="a_node62"><a xlink:title="PRE">
<ellipse fill="#ffffff" stroke="black" cx="2224.78" cy="-2678.9" rx="32.4942" ry="18"/>
<text text-anchor="middle" x="2224.78" y="-2675.2" font-family="Times,serif" font-size="14.00">17227</text>
</a>
</g>
</g>
<!-- 12205&#45;&gt;17227 -->
<g id="edge56" class="edge"><title>12205&#45;&gt;17227</title>
<path fill="none" stroke="black" d="M2097.05,-2578.75C2125.2,-2600.82 2177.88,-2642.13 2205.99,-2664.17"/>
</g>
<!-- 29185 -->
<g id="node66" class="node"><title>29185</title>
<g id="a_node66"><a xlink:title="PRE">
<ellipse fill="#07ffd1" stroke="black" cx="2179.13" cy="-2729.61" rx="32.4942" ry="18"/>
<text text-anchor="middle" x="2179.13" y="-2725.91" font-family="Times,serif" font-size="14.00">29185</text>
</a>
</g>
</g>
<!-- 12205&#45;&gt;29185 -->
<g id="edge36" class="edge"><title>12205&#45;&gt;29185</title>
<path fill="none" stroke="black" d="M2088.6,-2581.06C2107.95,-2612.8 2149.2,-2680.49 2168.61,-2712.35"/>
</g>
<!-- 12325 -->
<g id="node25" class="node"><title>12325</title>
<g id="a_node25"><a xlink:title="PRE">
<ellipse fill="#07ffd1" stroke="black" cx="1103.12" cy="-1770.62" rx="32.4942" ry="18"/>
<text text-anchor="middle" x="1103.12" y="-1766.92" font-family="Times,serif" font-size="14.00">12325</text>
</a>
</g>
</g>
<!-- 12325&#45;&gt;24262 -->
<g id="edge31" class="edge"><title>12325&#45;&gt;24262</title>
<path fill="none" stroke="black" d="M1123.89,-1756.48C1153.8,-1736.11 1208.71,-1698.73 1238.67,-1678.34"/>
</g>
<!-- 28240 -->
<g id="node53" class="node"><title>28240</title>
<g id="a_node53"><a xlink:title="PRE">
<ellipse fill="#07ffd1" stroke="black" cx="1874.72" cy="-1365.99" rx="32.4942" ry="18"/>
<text text-anchor="middle" x="1874.72" y="-1362.29" font-family="Times,serif" font-size="14.00">28240</text>
</a>
</g>
</g>
<!-- 12495&#45;&gt;28240 -->
<g id="edge70" class="edge"><title>12495&#45;&gt;28240</title>
<path fill="none" stroke="black" d="M1732.05,-1450.62C1763.52,-1431.95 1820.73,-1398.01 1852.3,-1379.28"/>
</g>
<!-- 14313 -->
<g id="node29" class="node"><title>14313</title>
<g id="a_node29"><a xlink:title="PRE">
<ellipse fill="#07ffd1" stroke="black" cx="788.142" cy="-1045.67" rx="32.4942" ry="18"/>
<text text-anchor="middle" x="788.142" y="-1041.97" font-family="Times,serif" font-size="14.00">14313</text>
</a>
</g>
</g>
<!-- 14313&#45;&gt;22051 -->
<g id="edge48" class="edge"><title>14313&#45;&gt;22051</title>
<path fill="none" stroke="black" d="M813.903,-1034.56C839.969,-1023.32 880.053,-1006.03 906.213,-994.754"/>
</g>
<!-- 19413 -->
<g id="node35" class="node"><title>19413</title>
<g id="a_node35"><a xlink:title="PRE">
<ellipse fill="#07ffd1" stroke="black" cx="1762.49" cy="-1230.79" rx="32.4942" ry="18"/>
<text text-anchor="middle" x="1762.49" y="-1227.09" font-family="Times,serif" font-size="14.00">19413</text>
</a>
</g>
</g>
<!-- 18871&#45;&gt;19413 -->
<g id="edge21" class="edge"><title>18871&#45;&gt;19413</title>
<path fill="none" stroke="black" d="M1657.32,-1367.58C1680.02,-1338.05 1726.96,-1277.01 1749.65,-1247.49"/>
</g>
<!-- 20380 -->
<g id="node36" class="node"><title>20380</title>
<g id="a_node36"><a xlink:title="PRE">
<ellipse fill="#07ffd1" stroke="black" cx="2250.32" cy="-1848.17" rx="32.4942" ry="18"/>
<text text-anchor="middle" x="2250.32" y="-1844.47" font-family="Times,serif" font-size="14.00">20380</text>
</a>
</g>
</g>
<!-- 20380&#45;&gt;27275 -->
<g id="edge14" class="edge"><title>20380&#45;&gt;27275</title>
<path fill="none" stroke="black" d="M2218.91,-1853.12C2177.95,-1859.57 2106.72,-1870.78 2065.74,-1877.23"/>
</g>
<!-- 16121 -->
<g id="node60" class="node"><title>16121</title>
<g id="a_node60"><a xlink:title="PRE">
<ellipse fill="grey" stroke="black" cx="2428.61" cy="-1820.42" rx="32.4942" ry="18"/>
<text text-anchor="middle" x="2428.61" y="-1816.72" font-family="Times,serif" font-size="14.00">16121</text>
</a>
</g>
</g>
<!-- 20380&#45;&gt;16121 -->
<g id="edge55" class="edge"><title>20380&#45;&gt;16121</title>
<path fill="none" stroke="black" d="M2281.79,-1843.27C2314.28,-1838.21 2364.68,-1830.37 2397.16,-1825.31"/>
</g>
<!-- 23518 -->
<g id="node41" class="node"><title>23518</title>
<g id="a_node41"><a xlink:title="PRE">
<ellipse fill="#07ffd1" stroke="black" cx="856.935" cy="-838.26" rx="32.4942" ry="18"/>
<text text-anchor="middle" x="856.935" y="-834.56" font-family="Times,serif" font-size="14.00">23518</text>
</a>
</g>
</g>
<!-- 22051&#45;&gt;23518 -->
<g id="edge5" class="edge"><title>22051&#45;&gt;23518</title>
<path fill="none" stroke="black" d="M923.154,-966.008C908.681,-938.086 880.544,-883.806 866.051,-855.845"/>
</g>
<!-- 24056 -->
<g id="node43" class="node"><title>24056</title>
<g id="a_node43"><a xlink:title="PRE">
<ellipse fill="#07ffd1" stroke="black" cx="794.464" cy="-902.786" rx="32.4942" ry="18"/>
<text text-anchor="middle" x="794.464" y="-899.086" font-family="Times,serif" font-size="14.00">24056</text>
</a>
</g>
</g>
<!-- 22051&#45;&gt;24056 -->
<g id="edge74" class="edge"><title>22051&#45;&gt;24056</title>
<path fill="none" stroke="black" d="M909.795,-970.378C884.176,-955.363 842.513,-930.946 816.897,-915.933"/>
</g>
<!-- 25962 -->
<g id="node64" class="node"><title>25962</title>
<g id="a_node64"><a xlink:title="PRE">
<ellipse fill="#07ffd1" stroke="black" cx="702.02" cy="-720.914" rx="32.4942" ry="18"/>
<text text-anchor="middle" x="702.02" y="-717.214" font-family="Times,serif" font-size="14.00">25962</text>
</a>
</g>
</g>
<!-- 22051&#45;&gt;25962 -->
<g id="edge10" class="edge"><title>22051&#45;&gt;25962</title>
<path fill="none" stroke="black" d="M917.836,-967.103C876.492,-919.941 757.753,-784.491 716.415,-737.336"/>
</g>
<!-- 26091 -->
<g id="node65" class="node"><title>26091</title>
<g id="a_node65"><a xlink:title="PRE">
<ellipse fill="#07ffd1" stroke="black" cx="932.765" cy="-814.31" rx="32.4942" ry="18"/>
<text text-anchor="middle" x="932.765" y="-810.61" font-family="Times,serif" font-size="14.00">26091</text>
</a>
</g>
</g>
<!-- 22051&#45;&gt;26091 -->
<g id="edge9" class="edge"><title>22051&#45;&gt;26091</title>
<path fill="none" stroke="black" d="M932.294,-965.422C932.395,-932.937 932.606,-865.121 932.708,-832.546"/>
</g>
<!-- 24973 -->
<g id="node46" class="node"><title>24973</title>
<g id="a_node46"><a xlink:title="PRE">
<ellipse fill="#07ffd1" stroke="black" cx="1248.45" cy="-1902.53" rx="32.4942" ry="18"/>
<text text-anchor="middle" x="1248.45" y="-1898.83" font-family="Times,serif" font-size="14.00">24973</text>
</a>
</g>
</g>
<!-- 24973&#45;&gt;25801 -->
<g id="edge62" class="edge"><title>24973&#45;&gt;25801</title>
<path fill="none" stroke="black" d="M1261.52,-1885.83C1283.8,-1857.39 1328.84,-1799.86 1351.2,-1771.31"/>
</g>
<!-- 321 -->
<g id="node57" class="node"><title>321</title>
<g id="a_node57"><a xlink:title="PRE">
<ellipse fill="grey" stroke="black" cx="2372.57" cy="-2472.98" rx="27" ry="18"/>
<text text-anchor="middle" x="2372.57" y="-2469.28" font-family="Times,serif" font-size="14.00">321</text>
</a>
</g>
</g>
<!-- 29223&#45;&gt;321 -->
<g id="edge58" class="edge"><title>29223&#45;&gt;321</title>
<path fill="none" stroke="black" d="M2247.06,-2380.42C2275.21,-2401.18 2326.77,-2439.2 2354.23,-2459.45"/>
</g>
<!-- 13874 -->
<g id="node59" class="node"><title>13874</title>
<g id="a_node59"><a xlink:title="PRE">
<ellipse fill="#07ffd1" stroke="black" cx="2410.11" cy="-2402.99" rx="32.4942" ry="18"/>
<text text-anchor="middle" x="2410.11" y="-2399.29" font-family="Times,serif" font-size="14.00">13874</text>
</a>
</g>
</g>
<!-- 29223&#45;&gt;13874 -->
<g id="edge37" class="edge"><title>29223&#45;&gt;13874</title>
<path fill="none" stroke="black" d="M2258.06,-2372.18C2291.77,-2379.01 2345.69,-2389.94 2379.44,-2396.78"/>
</g>
<!-- 11336 -->
<g id="node58" class="node"><title>11336</title>
<g id="a_node58"><a xlink:title="PRE">
<ellipse fill="#07ffd1" stroke="black" cx="495.292" cy="-500.533" rx="32.4942" ry="18"/>
<text text-anchor="middle" x="495.292" y="-496.833" font-family="Times,serif" font-size="14.00">11336</text>
</a>
</g>
</g>
<!-- 11336&#45;&gt;25962 -->
<g id="edge50" class="edge"><title>11336&#45;&gt;25962</title>
<path fill="none" stroke="black" d="M510.493,-516.739C548.723,-557.494 648.542,-663.905 686.796,-704.685"/>
</g>
<!-- 5249 -->
<g id="node70" class="node"><title>5249</title>
<g id="a_node70"><a xlink:title="Day_0">
<ellipse fill="#07ffd1" stroke="black" cx="302.28" cy="-295.151" rx="28.6953" ry="18"/>
<text text-anchor="middle" x="302.28" y="-291.451" font-family="Times,serif" font-size="14.00">5249</text>
</a>
</g>
</g>
<!-- 11336&#45;&gt;5249 -->
<g id="edge7" class="edge"><title>11336&#45;&gt;5249</title>
<path fill="none" stroke="black" d="M480.146,-484.417C443.977,-445.93 352.917,-349.034 317.089,-310.91"/>
</g>
<!-- 2688 -->
<g id="node67" class="node"><title>2688</title>
<g id="a_node67"><a xlink:title="PRE">
<ellipse fill="#07ffd1" stroke="black" cx="697.642" cy="-555.931" rx="28.6953" ry="18"/>
<text text-anchor="middle" x="697.642" y="-552.231" font-family="Times,serif" font-size="14.00">2688</text>
</a>
</g>
</g>
<!-- 25962&#45;&gt;2688 -->
<g id="edge54" class="edge"><title>25962&#45;&gt;2688</title>
<path fill="none" stroke="black" d="M701.534,-702.628C700.691,-670.831 698.963,-605.726 698.123,-574.048"/>
</g>
<!-- 23834 -->
<g id="node68" class="node"><title>23834</title>
<g id="a_node68"><a xlink:title="PRE">
<ellipse fill="grey" stroke="black" cx="541.642" cy="-673.634" rx="32.4942" ry="18"/>
<text text-anchor="middle" x="541.642" y="-669.934" font-family="Times,serif" font-size="14.00">23834</text>
</a>
</g>
</g>
<!-- 25962&#45;&gt;23834 -->
<g id="edge8" class="edge"><title>25962&#45;&gt;23834</title>
<path fill="none" stroke="black" d="M672.976,-712.352C643.911,-703.783 599.458,-690.679 570.469,-682.133"/>
</g>
<!-- 24957 -->
<g id="node69" class="node"><title>24957</title>
<g id="a_node69"><a xlink:title="PRE">
<ellipse fill="grey" stroke="black" cx="605.984" cy="-586.836" rx="32.4942" ry="18"/>
<text text-anchor="middle" x="605.984" y="-583.136" font-family="Times,serif" font-size="14.00">24957</text>
</a>
</g>
</g>
<!-- 25962&#45;&gt;24957 -->
<g id="edge3" class="edge"><title>25962&#45;&gt;24957</title>
<path fill="none" stroke="black" d="M689.857,-703.933C671.384,-678.143 636.462,-629.388 618.048,-603.68"/>
</g>
<!-- 8733 -->
<g id="node71" class="node"><title>8733</title>
<g id="a_node71"><a xlink:title="Day_0">
<ellipse fill="grey" stroke="black" cx="162.538" cy="-225.998" rx="28.6953" ry="18"/>
<text text-anchor="middle" x="162.538" y="-222.298" font-family="Times,serif" font-size="14.00">8733</text>
</a>
</g>
</g>
<!-- 5249&#45;&gt;8733 -->
<g id="edge75" class="edge"><title>5249&#45;&gt;8733</title>
<path fill="none" stroke="black" d="M279.517,-283.887C253.531,-271.027 211.273,-250.115 185.291,-237.258"/>
</g>
<!-- 14492 -->
<g id="node72" class="node"><title>14492</title>
<g id="a_node72"><a xlink:title="Day_0">
<ellipse fill="#07ffd1" stroke="black" cx="242.057" cy="-143.217" rx="32.4942" ry="18"/>
<text text-anchor="middle" x="242.057" y="-139.517" font-family="Times,serif" font-size="14.00">14492</text>
</a>
</g>
</g>
<!-- 5249&#45;&gt;14492 -->
<g id="edge17" class="edge"><title>5249&#45;&gt;14492</title>
<path fill="none" stroke="black" d="M295.253,-277.425C283.649,-248.149 260.613,-190.032 249.038,-160.83"/>
</g>
<!-- 20437 -->
<g id="node73" class="node"><title>20437</title>
<g id="a_node73"><a xlink:title="Day_0">
<ellipse fill="#07ffd1" stroke="black" cx="319.299" cy="-133.036" rx="32.4942" ry="18"/>
<text text-anchor="middle" x="319.299" y="-129.336" font-family="Times,serif" font-size="14.00">20437</text>
</a>
</g>
</g>
<!-- 5249&#45;&gt;20437 -->
<g id="edge35" class="edge"><title>5249&#45;&gt;20437</title>
<path fill="none" stroke="black" d="M304.166,-277.183C307.437,-246.021 314.127,-182.303 317.404,-151.085"/>
</g>
<!-- 25047 -->
<g id="node74" class="node"><title>25047</title>
<g id="a_node74"><a xlink:title="Day_0">
<ellipse fill="#07ffd1" stroke="black" cx="154.896" cy="-143.436" rx="32.4942" ry="18"/>
<text text-anchor="middle" x="154.896" y="-139.736" font-family="Times,serif" font-size="14.00">25047</text>
</a>
</g>
</g>
<!-- 5249&#45;&gt;25047 -->
<g id="edge71" class="edge"><title>5249&#45;&gt;25047</title>
<path fill="none" stroke="black" d="M287.337,-279.769C259.235,-250.841 198.788,-188.618 170.321,-159.314"/>
</g>
<!-- 10295 -->
<g id="node75" class="node"><title>10295</title>
<g id="a_node75"><a xlink:title="Day_0">
<ellipse fill="grey" stroke="black" cx="138.876" cy="-300.28" rx="32.4942" ry="18"/>
<text text-anchor="middle" x="138.876" y="-296.58" font-family="Times,serif" font-size="14.00">10295</text>
</a>
</g>
</g>
<!-- 5249&#45;&gt;10295 -->
<g id="edge59" class="edge"><title>5249&#45;&gt;10295</title>
<path fill="none" stroke="black" d="M273.442,-296.056C244.857,-296.954 201.14,-298.326 171.348,-299.261"/>
</g>
<!-- 15372 -->
<g id="node76" class="node"><title>15372</title>
<g id="a_node76"><a xlink:title="Day_0">
<ellipse fill="#ffffff" stroke="black" cx="32.8963" cy="-18.0207" rx="32.4942" ry="18"/>
<text text-anchor="middle" x="32.8963" y="-14.3207" font-family="Times,serif" font-size="14.00">15372</text>
</a>
</g>
</g>
<!-- 25047&#45;&gt;15372 -->
<g id="edge49" class="edge"><title>25047&#45;&gt;15372</title>
<path fill="none" stroke="black" d="M139.445,-127.552C116.106,-103.56 72.0989,-58.3209 48.6076,-34.1718"/>
</g>
</g>
</svg>
