<?xml version="1.0" encoding="UTF-8" standalone="no"?>
<!DOCTYPE svg PUBLIC "-//W3C//DTD SVG 1.1//EN"
 "http://www.w3.org/Graphics/SVG/1.1/DTD/svg11.dtd">
<!-- Generated by graphviz version 2.38.0 (20140413.2041)
 -->
<!-- Title: %3 Pages: 1 -->
<svg width="1770pt" height="1102pt"
 viewBox="0.00 0.00 1770.00 1102.00" xmlns="http://www.w3.org/2000/svg" xmlns:xlink="http://www.w3.org/1999/xlink">
<g id="graph0" class="graph" transform="scale(1 1) rotate(0) translate(4 1098)">
<title>%3</title>
<polygon fill="white" stroke="none" points="-4,4 -4,-1098 1766,-1098 1766,4 -4,4"/>
<!-- 155 -->
<g id="node1" class="node"><title>155</title>
<g id="a_node1"><a xlink:title="6th_week">
<ellipse fill="#20ff05" stroke="black" cx="512.7" cy="-443.046" rx="27" ry="18"/>
<text text-anchor="middle" x="512.7" y="-439.346" font-family="Times,serif" font-size="14.00">155</text>
</a>
</g>
</g>
<!-- 10497 -->
<g id="node22" class="node"><title>10497</title>
<g id="a_node22"><a xlink:title="6th_week">
<ellipse fill="#20ff05" stroke="black" cx="336.602" cy="-531.881" rx="32.4942" ry="18"/>
<text text-anchor="middle" x="336.602" y="-528.181" font-family="Times,serif" font-size="14.00">10497</text>
</a>
</g>
</g>
<!-- 155&#45;&gt;10497 -->
<g id="edge41" class="edge"><title>155&#45;&gt;10497</title>
<path fill="none" stroke="black" d="M491.107,-453.939C458.136,-470.572 395.441,-502.199 360.915,-519.616"/>
</g>
<!-- 10543 -->
<g id="node23" class="node"><title>10543</title>
<g id="a_node23"><a xlink:title="6th_week">
<ellipse fill="#20ff05" stroke="black" cx="406.883" cy="-621.405" rx="32.4942" ry="18"/>
<text text-anchor="middle" x="406.883" y="-617.705" font-family="Times,serif" font-size="14.00">10543</text>
</a>
</g>
</g>
<!-- 155&#45;&gt;10543 -->
<g id="edge13" class="edge"><title>155&#45;&gt;10543</title>
<path fill="none" stroke="black" d="M502.745,-459.826C482.629,-493.733 437.331,-570.084 417.044,-604.279"/>
</g>
<!-- 17141 -->
<g id="node36" class="node"><title>17141</title>
<g id="a_node36"><a xlink:title="6th_week">
<ellipse fill="#20ff05" stroke="black" cx="315.425" cy="-405.996" rx="32.4942" ry="18"/>
<text text-anchor="middle" x="315.425" y="-402.296" font-family="Times,serif" font-size="14.00">17141</text>
</a>
</g>
</g>
<!-- 155&#45;&gt;17141 -->
<g id="edge14" class="edge"><title>155&#45;&gt;17141</title>
<path fill="none" stroke="black" d="M486.504,-438.126C450.24,-431.315 384.861,-419.036 346.278,-411.79"/>
</g>
<!-- 18833 -->
<g id="node41" class="node"><title>18833</title>
<g id="a_node41"><a xlink:title="6th_week">
<ellipse fill="#20ff05" stroke="black" cx="390.367" cy="-283.641" rx="32.4942" ry="18"/>
<text text-anchor="middle" x="390.367" y="-279.941" font-family="Times,serif" font-size="14.00">18833</text>
</a>
</g>
</g>
<!-- 155&#45;&gt;18833 -->
<g id="edge45" class="edge"><title>155&#45;&gt;18833</title>
<path fill="none" stroke="black" d="M500.297,-426.884C476.972,-396.49 426.798,-331.113 403.17,-300.324"/>
</g>
<!-- 19894 -->
<g id="node43" class="node"><title>19894</title>
<g id="a_node43"><a xlink:title="6th_week">
<ellipse fill="#20ff05" stroke="black" cx="801.965" cy="-401.662" rx="32.4942" ry="18"/>
<text text-anchor="middle" x="801.965" y="-397.962" font-family="Times,serif" font-size="14.00">19894</text>
</a>
</g>
</g>
<!-- 155&#45;&gt;19894 -->
<g id="edge51" class="edge"><title>155&#45;&gt;19894</title>
<path fill="none" stroke="black" d="M539.138,-439.264C592.554,-431.621 713.126,-414.372 770.492,-406.164"/>
</g>
<!-- 255 -->
<g id="node2" class="node"><title>255</title>
<g id="a_node2"><a xlink:title="6th_week">
<ellipse fill="#ffffff" stroke="black" cx="1032.15" cy="-306.301" rx="27" ry="18"/>
<text text-anchor="middle" x="1032.15" y="-302.601" font-family="Times,serif" font-size="14.00">255</text>
</a>
</g>
</g>
<!-- 22222 -->
<g id="node48" class="node"><title>22222</title>
<g id="a_node48"><a xlink:title="6th_week">
<ellipse fill="#20ff05" stroke="black" cx="1118.66" cy="-410.232" rx="32.4942" ry="18"/>
<text text-anchor="middle" x="1118.66" y="-406.532" font-family="Times,serif" font-size="14.00">22222</text>
</a>
</g>
</g>
<!-- 255&#45;&gt;22222 -->
<g id="edge7" class="edge"><title>255&#45;&gt;22222</title>
<path fill="none" stroke="black" d="M1045.29,-322.086C1061.36,-341.393 1088.44,-373.929 1104.82,-393.609"/>
</g>
<!-- 345 -->
<g id="node3" class="node"><title>345</title>
<g id="a_node3"><a xlink:title="6th_week">
<ellipse fill="#20ff05" stroke="black" cx="1296.53" cy="-740.956" rx="27" ry="18"/>
<text text-anchor="middle" x="1296.53" y="-737.256" font-family="Times,serif" font-size="14.00">345</text>
</a>
</g>
</g>
<!-- 23245 -->
<g id="node52" class="node"><title>23245</title>
<g id="a_node52"><a xlink:title="6th_week">
<ellipse fill="#20ff05" stroke="black" cx="1260.38" cy="-591.529" rx="32.4942" ry="18"/>
<text text-anchor="middle" x="1260.38" y="-587.829" font-family="Times,serif" font-size="14.00">23245</text>
</a>
</g>
</g>
<!-- 345&#45;&gt;23245 -->
<g id="edge8" class="edge"><title>345&#45;&gt;23245</title>
<path fill="none" stroke="black" d="M1292.17,-722.932C1285.22,-694.211 1271.71,-638.378 1264.75,-609.617"/>
</g>
<!-- 1269 -->
<g id="node4" class="node"><title>1269</title>
<g id="a_node4"><a xlink:title="6th_week">
<ellipse fill="#20ff05" stroke="black" cx="1109.44" cy="-540.417" rx="28.6953" ry="18"/>
<text text-anchor="middle" x="1109.44" y="-536.717" font-family="Times,serif" font-size="14.00">1269</text>
</a>
</g>
</g>
<!-- 1269&#45;&gt;22222 -->
<g id="edge25" class="edge"><title>1269&#45;&gt;22222</title>
<path fill="none" stroke="black" d="M1110.72,-522.315C1112.48,-497.583 1115.6,-453.47 1117.36,-428.6"/>
</g>
<!-- 2265 -->
<g id="node5" class="node"><title>2265</title>
<g id="a_node5"><a xlink:title="6th_week">
<ellipse fill="#20ff05" stroke="black" cx="1523" cy="-304.175" rx="28.6953" ry="18"/>
<text text-anchor="middle" x="1523" y="-300.475" font-family="Times,serif" font-size="14.00">2265</text>
</a>
</g>
</g>
<!-- 12969 -->
<g id="node29" class="node"><title>12969</title>
<g id="a_node29"><a xlink:title="6th_week">
<ellipse fill="#20ff05" stroke="black" cx="1378.25" cy="-255.514" rx="32.4942" ry="18"/>
<text text-anchor="middle" x="1378.25" y="-251.814" font-family="Times,serif" font-size="14.00">12969</text>
</a>
</g>
</g>
<!-- 2265&#45;&gt;12969 -->
<g id="edge35" class="edge"><title>2265&#45;&gt;12969</title>
<path fill="none" stroke="black" d="M1497.45,-295.587C1471.89,-286.993 1432.66,-273.805 1406.26,-264.929"/>
</g>
<!-- 2279 -->
<g id="node6" class="node"><title>2279</title>
<g id="a_node6"><a xlink:title="6th_week">
<ellipse fill="#20ff05" stroke="black" cx="1154.54" cy="-276.58" rx="28.6953" ry="18"/>
<text text-anchor="middle" x="1154.54" y="-272.88" font-family="Times,serif" font-size="14.00">2279</text>
</a>
</g>
</g>
<!-- 2279&#45;&gt;22222 -->
<g id="edge43" class="edge"><title>2279&#45;&gt;22222</title>
<path fill="none" stroke="black" d="M1149.7,-294.605C1142.85,-320.113 1130.41,-366.481 1123.54,-392.066"/>
</g>
<!-- 2808 -->
<g id="node7" class="node"><title>2808</title>
<g id="a_node7"><a xlink:title="6th_week">
<ellipse fill="grey" stroke="black" cx="1384.66" cy="-136.78" rx="28.6953" ry="18"/>
<text text-anchor="middle" x="1384.66" y="-133.08" font-family="Times,serif" font-size="14.00">2808</text>
</a>
</g>
</g>
<!-- 2808&#45;&gt;12969 -->
<g id="edge40" class="edge"><title>2808&#45;&gt;12969</title>
<path fill="none" stroke="black" d="M1383.69,-154.813C1382.49,-177.129 1380.45,-214.916 1379.24,-237.311"/>
</g>
<!-- 4592 -->
<g id="node8" class="node"><title>4592</title>
<g id="a_node8"><a xlink:title="6th_week">
<ellipse fill="#20ff05" stroke="black" cx="1572.26" cy="-247.16" rx="28.6953" ry="18"/>
<text text-anchor="middle" x="1572.26" y="-243.46" font-family="Times,serif" font-size="14.00">4592</text>
</a>
</g>
</g>
<!-- 10785 -->
<g id="node24" class="node"><title>10785</title>
<g id="a_node24"><a xlink:title="6th_week">
<ellipse fill="#20ff05" stroke="black" cx="1729.98" cy="-233.331" rx="32.4942" ry="18"/>
<text text-anchor="middle" x="1729.98" y="-229.631" font-family="Times,serif" font-size="14.00">10785</text>
</a>
</g>
</g>
<!-- 4592&#45;&gt;10785 -->
<g id="edge27" class="edge"><title>4592&#45;&gt;10785</title>
<path fill="none" stroke="black" d="M1600.82,-244.656C1628.16,-242.258 1669.35,-238.647 1697.83,-236.15"/>
</g>
<!-- 4592&#45;&gt;12969 -->
<g id="edge37" class="edge"><title>4592&#45;&gt;12969</title>
<path fill="none" stroke="black" d="M1543.63,-248.393C1508.22,-249.917 1448.06,-252.508 1410.89,-254.108"/>
</g>
<!-- 5145 -->
<g id="node9" class="node"><title>5145</title>
<g id="a_node9"><a xlink:title="6th_week">
<ellipse fill="#20ff05" stroke="black" cx="1521.85" cy="-121.234" rx="28.6953" ry="18"/>
<text text-anchor="middle" x="1521.85" y="-117.534" font-family="Times,serif" font-size="14.00">5145</text>
</a>
</g>
</g>
<!-- 7651 -->
<g id="node16" class="node"><title>7651</title>
<g id="a_node16"><a xlink:title="6th_week">
<ellipse fill="grey" stroke="black" cx="1636.75" cy="-17.5612" rx="28.6953" ry="18"/>
<text text-anchor="middle" x="1636.75" y="-13.8612" font-family="Times,serif" font-size="14.00">7651</text>
</a>
</g>
</g>
<!-- 5145&#45;&gt;7651 -->
<g id="edge49" class="edge"><title>5145&#45;&gt;7651</title>
<path fill="none" stroke="black" d="M1538.31,-106.38C1560.15,-86.672 1598.49,-52.0817 1620.32,-32.3874"/>
</g>
<!-- 5145&#45;&gt;12969 -->
<g id="edge53" class="edge"><title>5145&#45;&gt;12969</title>
<path fill="none" stroke="black" d="M1505.65,-136.376C1478.22,-162.029 1422.89,-213.774 1395.05,-239.805"/>
</g>
<!-- 5378 -->
<g id="node10" class="node"><title>5378</title>
<g id="a_node10"><a xlink:title="6th_week">
<ellipse fill="#20ff05" stroke="black" cx="1038.71" cy="-527.597" rx="28.6953" ry="18"/>
<text text-anchor="middle" x="1038.71" y="-523.897" font-family="Times,serif" font-size="14.00">5378</text>
</a>
</g>
</g>
<!-- 5378&#45;&gt;22222 -->
<g id="edge17" class="edge"><title>5378&#45;&gt;22222</title>
<path fill="none" stroke="black" d="M1049.99,-511.03C1065.15,-488.789 1091.92,-449.486 1107.17,-427.094"/>
</g>
<!-- 5417 -->
<g id="node11" class="node"><title>5417</title>
<g id="a_node11"><a xlink:title="6th_week">
<ellipse fill="#20ff05" stroke="black" cx="680.723" cy="-371.058" rx="28.6953" ry="18"/>
<text text-anchor="middle" x="680.723" y="-367.358" font-family="Times,serif" font-size="14.00">5417</text>
</a>
</g>
</g>
<!-- 5417&#45;&gt;19894 -->
<g id="edge23" class="edge"><title>5417&#45;&gt;19894</title>
<path fill="none" stroke="black" d="M707.33,-377.774C726.43,-382.595 752.189,-389.098 772.011,-394.101"/>
</g>
<!-- 5534 -->
<g id="node12" class="node"><title>5534</title>
<g id="a_node12"><a xlink:title="6th_week">
<ellipse fill="#20ff05" stroke="black" cx="28.8954" cy="-623.454" rx="28.6953" ry="18"/>
<text text-anchor="middle" x="28.8954" y="-619.754" font-family="Times,serif" font-size="14.00">5534</text>
</a>
</g>
</g>
<!-- 7765 -->
<g id="node18" class="node"><title>7765</title>
<g id="a_node18"><a xlink:title="6th_week">
<ellipse fill="#20ff05" stroke="black" cx="169.246" cy="-583.175" rx="28.6953" ry="18"/>
<text text-anchor="middle" x="169.246" y="-579.475" font-family="Times,serif" font-size="14.00">7765</text>
</a>
</g>
</g>
<!-- 5534&#45;&gt;7765 -->
<g id="edge21" class="edge"><title>5534&#45;&gt;7765</title>
<path fill="none" stroke="black" d="M54.9654,-615.972C80.016,-608.783 117.677,-597.975 142.839,-590.754"/>
</g>
<!-- 6368 -->
<g id="node13" class="node"><title>6368</title>
<g id="a_node13"><a xlink:title="6th_week">
<ellipse fill="grey" stroke="black" cx="727.221" cy="-80.2355" rx="28.6953" ry="18"/>
<text text-anchor="middle" x="727.221" y="-76.5355" font-family="Times,serif" font-size="14.00">6368</text>
</a>
</g>
</g>
<!-- 13139 -->
<g id="node30" class="node"><title>13139</title>
<g id="a_node30"><a xlink:title="6th_week">
<ellipse fill="grey" stroke="black" cx="737.289" cy="-225.795" rx="32.4942" ry="18"/>
<text text-anchor="middle" x="737.289" y="-222.095" font-family="Times,serif" font-size="14.00">13139</text>
</a>
</g>
</g>
<!-- 6368&#45;&gt;13139 -->
<g id="edge15" class="edge"><title>6368&#45;&gt;13139</title>
<path fill="none" stroke="black" d="M728.476,-98.3764C730.405,-126.269 734.08,-179.395 736.019,-207.425"/>
</g>
<!-- 7497 -->
<g id="node14" class="node"><title>7497</title>
<g id="a_node14"><a xlink:title="6th_week">
<ellipse fill="#ffffff" stroke="black" cx="1491.29" cy="-352.675" rx="28.6953" ry="18"/>
<text text-anchor="middle" x="1491.29" y="-348.975" font-family="Times,serif" font-size="14.00">7497</text>
</a>
</g>
</g>
<!-- 7497&#45;&gt;12969 -->
<g id="edge18" class="edge"><title>7497&#45;&gt;12969</title>
<path fill="none" stroke="black" d="M1474.12,-337.918C1453,-319.762 1417.32,-289.094 1395.96,-270.73"/>
</g>
<!-- 7547 -->
<g id="node15" class="node"><title>7547</title>
<g id="a_node15"><a xlink:title="6th_week">
<ellipse fill="#20ff05" stroke="black" cx="1360.31" cy="-713.631" rx="28.6953" ry="18"/>
<text text-anchor="middle" x="1360.31" y="-709.931" font-family="Times,serif" font-size="14.00">7547</text>
</a>
</g>
</g>
<!-- 7547&#45;&gt;23245 -->
<g id="edge2" class="edge"><title>7547&#45;&gt;23245</title>
<path fill="none" stroke="black" d="M1347.04,-697.417C1328.03,-674.193 1293.24,-631.677 1274.02,-608.202"/>
</g>
<!-- 7703 -->
<g id="node17" class="node"><title>7703</title>
<g id="a_node17"><a xlink:title="6th_week">
<ellipse fill="#20ff05" stroke="black" cx="295.884" cy="-166.258" rx="28.6953" ry="18"/>
<text text-anchor="middle" x="295.884" y="-162.558" font-family="Times,serif" font-size="14.00">7703</text>
</a>
</g>
</g>
<!-- 7703&#45;&gt;18833 -->
<g id="edge39" class="edge"><title>7703&#45;&gt;18833</title>
<path fill="none" stroke="black" d="M309.022,-182.58C326.971,-204.88 358.986,-244.655 377.036,-267.08"/>
</g>
<!-- 7765&#45;&gt;10497 -->
<g id="edge38" class="edge"><title>7765&#45;&gt;10497</title>
<path fill="none" stroke="black" d="M195.029,-575.273C225.561,-565.915 276.264,-550.374 307.985,-540.652"/>
</g>
<!-- 8452 -->
<g id="node19" class="node"><title>8452</title>
<g id="a_node19"><a xlink:title="6th_week">
<ellipse fill="#20ff05" stroke="black" cx="129.646" cy="-1076.1" rx="28.6953" ry="18"/>
<text text-anchor="middle" x="129.646" y="-1072.4" font-family="Times,serif" font-size="14.00">8452</text>
</a>
</g>
</g>
<!-- 10821 -->
<g id="node25" class="node"><title>10821</title>
<g id="a_node25"><a xlink:title="6th_week">
<ellipse fill="#20ff05" stroke="black" cx="181.115" cy="-941.743" rx="32.4942" ry="18"/>
<text text-anchor="middle" x="181.115" y="-938.043" font-family="Times,serif" font-size="14.00">10821</text>
</a>
</g>
</g>
<!-- 8452&#45;&gt;10821 -->
<g id="edge26" class="edge"><title>8452&#45;&gt;10821</title>
<path fill="none" stroke="black" d="M136.374,-1058.54C146.184,-1032.93 164.318,-985.592 174.22,-959.741"/>
</g>
<!-- 8680 -->
<g id="node20" class="node"><title>8680</title>
<g id="a_node20"><a xlink:title="6th_week">
<ellipse fill="#20ff05" stroke="black" cx="1215.98" cy="-323.876" rx="28.6953" ry="18"/>
<text text-anchor="middle" x="1215.98" y="-320.176" font-family="Times,serif" font-size="14.00">8680</text>
</a>
</g>
</g>
<!-- 8680&#45;&gt;22222 -->
<g id="edge52" class="edge"><title>8680&#45;&gt;22222</title>
<path fill="none" stroke="black" d="M1199.03,-338.918C1181.39,-354.575 1153.89,-378.974 1136.07,-394.781"/>
</g>
<!-- 8733 -->
<g id="node21" class="node"><title>8733</title>
<g id="a_node21"><a xlink:title="6th_week">
<ellipse fill="#20ff05" stroke="black" cx="192.733" cy="-324.24" rx="28.6953" ry="18"/>
<text text-anchor="middle" x="192.733" y="-320.54" font-family="Times,serif" font-size="14.00">8733</text>
</a>
</g>
</g>
<!-- 8733&#45;&gt;17141 -->
<g id="edge5" class="edge"><title>8733&#45;&gt;17141</title>
<path fill="none" stroke="black" d="M212.446,-337.376C234.935,-352.361 271.558,-376.765 294.53,-392.072"/>
</g>
<!-- 23609 -->
<g id="node53" class="node"><title>23609</title>
<g id="a_node53"><a xlink:title="6th_week">
<ellipse fill="#20ff05" stroke="black" cx="237.9" cy="-637.209" rx="32.4942" ry="18"/>
<text text-anchor="middle" x="237.9" y="-633.509" font-family="Times,serif" font-size="14.00">23609</text>
</a>
</g>
</g>
<!-- 10497&#45;&gt;23609 -->
<g id="edge3" class="edge"><title>10497&#45;&gt;23609</title>
<path fill="none" stroke="black" d="M321.612,-547.878C303.06,-567.675 271.649,-601.195 253.032,-621.061"/>
</g>
<!-- 22793 -->
<g id="node49" class="node"><title>22793</title>
<g id="a_node49"><a xlink:title="6th_week">
<ellipse fill="grey" stroke="black" cx="293.612" cy="-790.572" rx="32.4942" ry="18"/>
<text text-anchor="middle" x="293.612" y="-786.872" font-family="Times,serif" font-size="14.00">22793</text>
</a>
</g>
</g>
<!-- 10543&#45;&gt;22793 -->
<g id="edge16" class="edge"><title>10543&#45;&gt;22793</title>
<path fill="none" stroke="black" d="M395.399,-638.557C373.632,-671.064 326.618,-741.279 304.959,-773.627"/>
</g>
<!-- 14255 -->
<g id="node32" class="node"><title>14255</title>
<g id="a_node32"><a xlink:title="6th_week">
<ellipse fill="#20ff05" stroke="black" cx="61.1654" cy="-1029.9" rx="32.4942" ry="18"/>
<text text-anchor="middle" x="61.1654" y="-1026.2" font-family="Times,serif" font-size="14.00">14255</text>
</a>
</g>
</g>
<!-- 10821&#45;&gt;14255 -->
<g id="edge30" class="edge"><title>10821&#45;&gt;14255</title>
<path fill="none" stroke="black" d="M161.308,-956.3C139.083,-972.634 103.239,-998.978 81.0021,-1015.32"/>
</g>
<!-- 10821&#45;&gt;22793 -->
<g id="edge29" class="edge"><title>10821&#45;&gt;22793</title>
<path fill="none" stroke="black" d="M193.584,-924.987C215.208,-895.929 259.424,-836.513 281.087,-807.403"/>
</g>
<!-- 11359 -->
<g id="node26" class="node"><title>11359</title>
<g id="a_node26"><a xlink:title="6th_week">
<ellipse fill="#20ff05" stroke="black" cx="993.956" cy="-472.362" rx="32.4942" ry="18"/>
<text text-anchor="middle" x="993.956" y="-468.662" font-family="Times,serif" font-size="14.00">11359</text>
</a>
</g>
</g>
<!-- 11359&#45;&gt;22222 -->
<g id="edge10" class="edge"><title>11359&#45;&gt;22222</title>
<path fill="none" stroke="black" d="M1018.3,-460.235C1040.27,-449.288 1072.43,-433.266 1094.38,-422.328"/>
</g>
<!-- 11940 -->
<g id="node27" class="node"><title>11940</title>
<g id="a_node27"><a xlink:title="6th_week">
<ellipse fill="#20ff05" stroke="black" cx="1258.58" cy="-409.154" rx="32.4942" ry="18"/>
<text text-anchor="middle" x="1258.58" y="-405.454" font-family="Times,serif" font-size="14.00">11940</text>
</a>
</g>
</g>
<!-- 11940&#45;&gt;22222 -->
<g id="edge12" class="edge"><title>11940&#45;&gt;22222</title>
<path fill="none" stroke="black" d="M1225.78,-409.407C1203.32,-409.58 1173.67,-409.808 1151.26,-409.981"/>
</g>
<!-- 12458 -->
<g id="node28" class="node"><title>12458</title>
<g id="a_node28"><a xlink:title="6th_week">
<ellipse fill="grey" stroke="black" cx="726.82" cy="-517.305" rx="32.4942" ry="18"/>
<text text-anchor="middle" x="726.82" y="-513.605" font-family="Times,serif" font-size="14.00">12458</text>
</a>
</g>
</g>
<!-- 12458&#45;&gt;19894 -->
<g id="edge48" class="edge"><title>12458&#45;&gt;19894</title>
<path fill="none" stroke="black" d="M737.908,-500.241C752.115,-478.377 776.602,-440.693 790.831,-418.795"/>
</g>
<!-- 16854 -->
<g id="node35" class="node"><title>16854</title>
<g id="a_node35"><a xlink:title="6th_week">
<ellipse fill="#20ff05" stroke="black" cx="1521.68" cy="-183.485" rx="32.4942" ry="18"/>
<text text-anchor="middle" x="1521.68" y="-179.785" font-family="Times,serif" font-size="14.00">16854</text>
</a>
</g>
</g>
<!-- 12969&#45;&gt;16854 -->
<g id="edge54" class="edge"><title>12969&#45;&gt;16854</title>
<path fill="none" stroke="black" d="M1402.59,-243.295C1428.96,-230.05 1470.81,-209.032 1497.23,-195.764"/>
</g>
<!-- 18353 -->
<g id="node39" class="node"><title>18353</title>
<g id="a_node39"><a xlink:title="6th_week">
<ellipse fill="#20ff05" stroke="black" cx="1503.15" cy="-230.536" rx="32.4942" ry="18"/>
<text text-anchor="middle" x="1503.15" y="-226.836" font-family="Times,serif" font-size="14.00">18353</text>
</a>
</g>
</g>
<!-- 12969&#45;&gt;18353 -->
<g id="edge33" class="edge"><title>12969&#45;&gt;18353</title>
<path fill="none" stroke="black" d="M1409.13,-249.339C1428.34,-245.497 1452.97,-240.572 1472.2,-236.726"/>
</g>
<!-- 20644 -->
<g id="node45" class="node"><title>20644</title>
<g id="a_node45"><a xlink:title="6th_week">
<ellipse fill="#20ff05" stroke="black" cx="1417.73" cy="-92.5154" rx="32.4942" ry="18"/>
<text text-anchor="middle" x="1417.73" y="-88.8154" font-family="Times,serif" font-size="14.00">20644</text>
</a>
</g>
</g>
<!-- 12969&#45;&gt;20644 -->
<g id="edge20" class="edge"><title>12969&#45;&gt;20644</title>
<path fill="none" stroke="black" d="M1382.63,-237.447C1390.22,-206.116 1405.73,-142.051 1413.34,-110.663"/>
</g>
<!-- 20847 -->
<g id="node46" class="node"><title>20847</title>
<g id="a_node46"><a xlink:title="6th_week">
<ellipse fill="#ffffff" stroke="black" cx="1315.34" cy="-108.672" rx="32.4942" ry="18"/>
<text text-anchor="middle" x="1315.34" y="-104.972" font-family="Times,serif" font-size="14.00">20847</text>
</a>
</g>
</g>
<!-- 12969&#45;&gt;20847 -->
<g id="edge34" class="edge"><title>12969&#45;&gt;20847</title>
<path fill="none" stroke="black" d="M1370.66,-237.801C1358.57,-209.577 1335.06,-154.71 1322.95,-126.447"/>
</g>
<!-- 12969&#45;&gt;22222 -->
<g id="edge50" class="edge"><title>12969&#45;&gt;22222</title>
<path fill="none" stroke="black" d="M1356.12,-268.705C1307.2,-297.862 1190.32,-367.525 1141.11,-396.854"/>
</g>
<!-- 5561 -->
<g id="node55" class="node"><title>5561</title>
<g id="a_node55"><a xlink:title="6th_week">
<ellipse fill="#20ff05" stroke="black" cx="1456.61" cy="-137.141" rx="28.6953" ry="18"/>
<text text-anchor="middle" x="1456.61" y="-133.441" font-family="Times,serif" font-size="14.00">5561</text>
</a>
</g>
</g>
<!-- 12969&#45;&gt;5561 -->
<g id="edge1" class="edge"><title>12969&#45;&gt;5561</title>
<path fill="none" stroke="black" d="M1389.48,-238.554C1404.38,-216.051 1430.52,-176.556 1445.4,-154.069"/>
</g>
<!-- 14203 -->
<g id="node31" class="node"><title>14203</title>
<g id="a_node31"><a xlink:title="6th_week">
<ellipse fill="#20ff05" stroke="black" cx="656.224" cy="-100.315" rx="32.4942" ry="18"/>
<text text-anchor="middle" x="656.224" y="-96.6146" font-family="Times,serif" font-size="14.00">14203</text>
</a>
</g>
</g>
<!-- 13139&#45;&gt;14203 -->
<g id="edge42" class="edge"><title>13139&#45;&gt;14203</title>
<path fill="none" stroke="black" d="M726.187,-208.61C710.664,-184.581 682.643,-141.209 667.192,-117.291"/>
</g>
<!-- 13139&#45;&gt;19894 -->
<g id="edge9" class="edge"><title>13139&#45;&gt;19894</title>
<path fill="none" stroke="black" d="M743.846,-243.626C756.242,-277.333 782.981,-350.04 795.39,-383.784"/>
</g>
<!-- 14333 -->
<g id="node33" class="node"><title>14333</title>
<g id="a_node33"><a xlink:title="6th_week">
<ellipse fill="#20ff05" stroke="black" cx="255.655" cy="-210.306" rx="32.4942" ry="18"/>
<text text-anchor="middle" x="255.655" y="-206.606" font-family="Times,serif" font-size="14.00">14333</text>
</a>
</g>
</g>
<!-- 14333&#45;&gt;18833 -->
<g id="edge24" class="edge"><title>14333&#45;&gt;18833</title>
<path fill="none" stroke="black" d="M279.12,-223.08C303.845,-236.54 342.547,-257.609 367.17,-271.013"/>
</g>
<!-- 15746 -->
<g id="node34" class="node"><title>15746</title>
<g id="a_node34"><a xlink:title="6th_week">
<ellipse fill="grey" stroke="black" cx="1084.7" cy="-261.983" rx="32.4942" ry="18"/>
<text text-anchor="middle" x="1084.7" y="-258.283" font-family="Times,serif" font-size="14.00">15746</text>
</a>
</g>
</g>
<!-- 15746&#45;&gt;22222 -->
<g id="edge46" class="edge"><title>15746&#45;&gt;22222</title>
<path fill="none" stroke="black" d="M1088.8,-279.865C1095.33,-308.359 1108.01,-363.752 1114.55,-392.286"/>
</g>
<!-- 18545 -->
<g id="node40" class="node"><title>18545</title>
<g id="a_node40"><a xlink:title="6th_week">
<ellipse fill="#20ff05" stroke="black" cx="162.2" cy="-376.324" rx="32.4942" ry="18"/>
<text text-anchor="middle" x="162.2" y="-372.624" font-family="Times,serif" font-size="14.00">18545</text>
</a>
</g>
</g>
<!-- 17141&#45;&gt;18545 -->
<g id="edge32" class="edge"><title>17141&#45;&gt;18545</title>
<path fill="none" stroke="black" d="M284.418,-399.991C257.747,-394.826 219.481,-387.416 192.899,-382.269"/>
</g>
<!-- 19752 -->
<g id="node42" class="node"><title>19752</title>
<g id="a_node42"><a xlink:title="6th_week">
<ellipse fill="#20ff05" stroke="black" cx="168.687" cy="-438.632" rx="32.4942" ry="18"/>
<text text-anchor="middle" x="168.687" y="-434.932" font-family="Times,serif" font-size="14.00">19752</text>
</a>
</g>
</g>
<!-- 17141&#45;&gt;19752 -->
<g id="edge19" class="edge"><title>17141&#45;&gt;19752</title>
<path fill="none" stroke="black" d="M285.021,-412.758C259.837,-418.359 224.226,-426.28 199.052,-431.879"/>
</g>
<!-- 17366 -->
<g id="node37" class="node"><title>17366</title>
<g id="a_node37"><a xlink:title="6th_week">
<ellipse fill="#20ff05" stroke="black" cx="989.132" cy="-372.133" rx="32.4942" ry="18"/>
<text text-anchor="middle" x="989.132" y="-368.433" font-family="Times,serif" font-size="14.00">17366</text>
</a>
</g>
</g>
<!-- 17366&#45;&gt;22222 -->
<g id="edge22" class="edge"><title>17366&#45;&gt;22222</title>
<path fill="none" stroke="black" d="M1017.88,-380.589C1039.19,-386.858 1068.14,-395.373 1089.55,-401.669"/>
</g>
<!-- 17480 -->
<g id="node38" class="node"><title>17480</title>
<g id="a_node38"><a xlink:title="6th_week">
<ellipse fill="#20ff05" stroke="black" cx="365.069" cy="-133.975" rx="32.4942" ry="18"/>
<text text-anchor="middle" x="365.069" y="-130.275" font-family="Times,serif" font-size="14.00">17480</text>
</a>
</g>
</g>
<!-- 17480&#45;&gt;18833 -->
<g id="edge6" class="edge"><title>17480&#45;&gt;18833</title>
<path fill="none" stroke="black" d="M368.121,-152.028C372.983,-180.795 382.435,-236.717 387.304,-265.524"/>
</g>
<!-- 19894&#45;&gt;22222 -->
<g id="edge31" class="edge"><title>19894&#45;&gt;22222</title>
<path fill="none" stroke="black" d="M834.664,-402.547C895.508,-404.193 1025.43,-407.709 1086.14,-409.352"/>
</g>
<!-- 20547 -->
<g id="node44" class="node"><title>20547</title>
<g id="a_node44"><a xlink:title="6th_week">
<ellipse fill="#20ff05" stroke="black" cx="1108.68" cy="-755.402" rx="32.4942" ry="18"/>
<text text-anchor="middle" x="1108.68" y="-751.702" font-family="Times,serif" font-size="14.00">20547</text>
</a>
</g>
</g>
<!-- 22190 -->
<g id="node47" class="node"><title>22190</title>
<g id="a_node47"><a xlink:title="6th_week">
<ellipse fill="#20ff05" stroke="black" cx="1112.33" cy="-598.569" rx="32.4942" ry="18"/>
<text text-anchor="middle" x="1112.33" y="-594.869" font-family="Times,serif" font-size="14.00">22190</text>
</a>
</g>
</g>
<!-- 20547&#45;&gt;22190 -->
<g id="edge28" class="edge"><title>20547&#45;&gt;22190</title>
<path fill="none" stroke="black" d="M1109.1,-737.104C1109.81,-706.884 1111.21,-646.893 1111.91,-616.75"/>
</g>
<!-- 22190&#45;&gt;22222 -->
<g id="edge4" class="edge"><title>22190&#45;&gt;22222</title>
<path fill="none" stroke="black" d="M1112.94,-580.51C1114.15,-544.512 1116.85,-464.19 1118.06,-428.236"/>
</g>
<!-- 22875 -->
<g id="node50" class="node"><title>22875</title>
<g id="a_node50"><a xlink:title="6th_week">
<ellipse fill="#20ff05" stroke="black" cx="1246.06" cy="-478.259" rx="32.4942" ry="18"/>
<text text-anchor="middle" x="1246.06" y="-474.559" font-family="Times,serif" font-size="14.00">22875</text>
</a>
</g>
</g>
<!-- 22222&#45;&gt;22875 -->
<g id="edge36" class="edge"><title>22222&#45;&gt;22875</title>
<path fill="none" stroke="black" d="M1142.32,-422.868C1165.21,-435.087 1199.68,-453.495 1222.52,-465.69"/>
</g>
<!-- 22222&#45;&gt;23245 -->
<g id="edge11" class="edge"><title>22222&#45;&gt;23245</title>
<path fill="none" stroke="black" d="M1131.74,-426.963C1158.74,-461.501 1220.36,-540.335 1247.33,-574.838"/>
</g>
<!-- 23647 -->
<g id="node54" class="node"><title>23647</title>
<g id="a_node54"><a xlink:title="6th_week">
<ellipse fill="#20ff05" stroke="black" cx="1191.13" cy="-531.553" rx="32.4942" ry="18"/>
<text text-anchor="middle" x="1191.13" y="-527.853" font-family="Times,serif" font-size="14.00">23647</text>
</a>
</g>
</g>
<!-- 22222&#45;&gt;23647 -->
<g id="edge44" class="edge"><title>22222&#45;&gt;23647</title>
<path fill="none" stroke="black" d="M1128.89,-427.357C1142.62,-450.349 1166.89,-490.976 1180.72,-514.123"/>
</g>
<!-- 23132 -->
<g id="node51" class="node"><title>23132</title>
<g id="a_node51"><a xlink:title="6th_week">
<ellipse fill="#20ff05" stroke="black" cx="1399.55" cy="-668.825" rx="32.4942" ry="18"/>
<text text-anchor="middle" x="1399.55" y="-665.125" font-family="Times,serif" font-size="14.00">23132</text>
</a>
</g>
</g>
<!-- 23132&#45;&gt;23245 -->
<g id="edge47" class="edge"><title>23132&#45;&gt;23245</title>
<path fill="none" stroke="black" d="M1376.57,-656.061C1350.78,-641.739 1309.19,-618.641 1283.39,-604.312"/>
</g>
</g>
</svg>
