<?xml version="1.0" encoding="UTF-8" standalone="no"?>
<!DOCTYPE svg PUBLIC "-//W3C//DTD SVG 1.1//EN"
 "http://www.w3.org/Graphics/SVG/1.1/DTD/svg11.dtd">
<!-- Generated by graphviz version 2.38.0 (20140413.2041)
 -->
<!-- Title: %3 Pages: 1 -->
<svg width="2373pt" height="1267pt"
 viewBox="0.00 0.00 2373.00 1267.00" xmlns="http://www.w3.org/2000/svg" xmlns:xlink="http://www.w3.org/1999/xlink">
<g id="graph0" class="graph" transform="scale(1 1) rotate(0) translate(4 1263)">
<title>%3</title>
<polygon fill="white" stroke="none" points="-4,4 -4,-1263 2369,-1263 2369,4 -4,4"/>
<!-- 527 -->
<g id="node1" class="node"><title>527</title>
<g id="a_node1"><a xlink:title="6th_week">
<ellipse fill="#20ff05" stroke="black" cx="522.421" cy="-746.172" rx="27" ry="18"/>
<text text-anchor="middle" x="522.421" y="-742.472" font-family="Times,serif" font-size="14.00">527</text>
</a>
</g>
</g>
<!-- 18029 -->
<g id="node23" class="node"><title>18029</title>
<g id="a_node23"><a xlink:title="6th_week">
<ellipse fill="#20ff05" stroke="black" cx="491.493" cy="-893.774" rx="32.4942" ry="18"/>
<text text-anchor="middle" x="491.493" y="-890.074" font-family="Times,serif" font-size="14.00">18029</text>
</a>
</g>
</g>
<!-- 527&#45;&gt;18029 -->
<g id="edge57" class="edge"><title>527&#45;&gt;18029</title>
<path fill="none" stroke="black" d="M518.629,-764.271C512.693,-792.6 501.271,-847.107 495.316,-875.527"/>
</g>
<!-- 1759 -->
<g id="node2" class="node"><title>1759</title>
<g id="a_node2"><a xlink:title="6th_week">
<ellipse fill="#20ff05" stroke="black" cx="2058.22" cy="-298.268" rx="28.6953" ry="18"/>
<text text-anchor="middle" x="2058.22" y="-294.568" font-family="Times,serif" font-size="14.00">1759</text>
</a>
</g>
</g>
<!-- 4347 -->
<g id="node3" class="node"><title>4347</title>
<g id="a_node3"><a xlink:title="6th_week">
<ellipse fill="#ffffff" stroke="black" cx="2233.65" cy="-218.965" rx="28.6953" ry="18"/>
<text text-anchor="middle" x="2233.65" y="-215.265" font-family="Times,serif" font-size="14.00">4347</text>
</a>
</g>
</g>
<!-- 1759&#45;&gt;4347 -->
<g id="edge51" class="edge"><title>1759&#45;&gt;4347</title>
<path fill="none" stroke="black" d="M2081.51,-287.737C2115.07,-272.57 2176.65,-244.732 2210.26,-229.54"/>
</g>
<!-- 11030 -->
<g id="node13" class="node"><title>11030</title>
<g id="a_node13"><a xlink:title="6th_week">
<ellipse fill="#20ff05" stroke="black" cx="1863.9" cy="-447.678" rx="32.4942" ry="18"/>
<text text-anchor="middle" x="1863.9" y="-443.978" font-family="Times,serif" font-size="14.00">11030</text>
</a>
</g>
</g>
<!-- 1759&#45;&gt;11030 -->
<g id="edge18" class="edge"><title>1759&#45;&gt;11030</title>
<path fill="none" stroke="black" d="M2039.93,-312.324C2003.18,-340.583 1920.66,-404.033 1883.14,-432.889"/>
</g>
<!-- 23776 -->
<g id="node36" class="node"><title>23776</title>
<g id="a_node36"><a xlink:title="6th_week">
<ellipse fill="#ffffff" stroke="black" cx="2186.91" cy="-148.059" rx="32.4942" ry="18"/>
<text text-anchor="middle" x="2186.91" y="-144.359" font-family="Times,serif" font-size="14.00">23776</text>
</a>
</g>
</g>
<!-- 1759&#45;&gt;23776 -->
<g id="edge14" class="edge"><title>1759&#45;&gt;23776</title>
<path fill="none" stroke="black" d="M2071.99,-282.193C2096.63,-253.434 2148,-193.477 2172.85,-164.474"/>
</g>
<!-- 4431 -->
<g id="node4" class="node"><title>4431</title>
<g id="a_node4"><a xlink:title="6th_week">
<ellipse fill="#20ff05" stroke="black" cx="62.6278" cy="-827.778" rx="28.6953" ry="18"/>
<text text-anchor="middle" x="62.6278" y="-824.078" font-family="Times,serif" font-size="14.00">4431</text>
</a>
</g>
</g>
<!-- 27747 -->
<g id="node42" class="node"><title>27747</title>
<g id="a_node42"><a xlink:title="6th_week">
<ellipse fill="#20ff05" stroke="black" cx="231.974" cy="-919.109" rx="32.4942" ry="18"/>
<text text-anchor="middle" x="231.974" y="-915.409" font-family="Times,serif" font-size="14.00">27747</text>
</a>
</g>
</g>
<!-- 4431&#45;&gt;27747 -->
<g id="edge7" class="edge"><title>4431&#45;&gt;27747</title>
<path fill="none" stroke="black" d="M84.4201,-839.531C116.401,-856.779 175.799,-888.813 208.637,-906.523"/>
</g>
<!-- 5600 -->
<g id="node5" class="node"><title>5600</title>
<g id="a_node5"><a xlink:title="6th_week">
<ellipse fill="#20ff05" stroke="black" cx="1144.14" cy="-674.126" rx="28.6953" ry="18"/>
<text text-anchor="middle" x="1144.14" y="-670.426" font-family="Times,serif" font-size="14.00">5600</text>
</a>
</g>
</g>
<!-- 12735 -->
<g id="node14" class="node"><title>12735</title>
<g id="a_node14"><a xlink:title="6th_week">
<ellipse fill="grey" stroke="black" cx="1130.81" cy="-549.331" rx="32.4942" ry="18"/>
<text text-anchor="middle" x="1130.81" y="-545.631" font-family="Times,serif" font-size="14.00">12735</text>
</a>
</g>
</g>
<!-- 5600&#45;&gt;12735 -->
<g id="edge28" class="edge"><title>5600&#45;&gt;12735</title>
<path fill="none" stroke="black" d="M1142.2,-655.98C1139.68,-632.32 1135.28,-591.17 1132.75,-567.499"/>
</g>
<!-- 23241 -->
<g id="node34" class="node"><title>23241</title>
<g id="a_node34"><a xlink:title="6th_week">
<ellipse fill="#20ff05" stroke="black" cx="1040.87" cy="-538.735" rx="32.4942" ry="18"/>
<text text-anchor="middle" x="1040.87" y="-535.035" font-family="Times,serif" font-size="14.00">23241</text>
</a>
</g>
</g>
<!-- 5600&#45;&gt;23241 -->
<g id="edge37" class="edge"><title>5600&#45;&gt;23241</title>
<path fill="none" stroke="black" d="M1131.68,-657.795C1111.94,-631.912 1073.66,-581.729 1053.69,-555.549"/>
</g>
<!-- 26638 -->
<g id="node40" class="node"><title>26638</title>
<g id="a_node40"><a xlink:title="6th_week">
<ellipse fill="#20ff05" stroke="black" cx="822.359" cy="-792.483" rx="32.4942" ry="18"/>
<text text-anchor="middle" x="822.359" y="-788.783" font-family="Times,serif" font-size="14.00">26638</text>
</a>
</g>
</g>
<!-- 5600&#45;&gt;26638 -->
<g id="edge44" class="edge"><title>5600&#45;&gt;26638</title>
<path fill="none" stroke="black" d="M1119.43,-683.217C1060.41,-704.923 911.615,-759.653 849.871,-782.364"/>
</g>
<!-- 28232 -->
<g id="node43" class="node"><title>28232</title>
<g id="a_node43"><a xlink:title="6th_week">
<ellipse fill="#20ff05" stroke="black" cx="1514.15" cy="-611.946" rx="32.4942" ry="18"/>
<text text-anchor="middle" x="1514.15" y="-608.246" font-family="Times,serif" font-size="14.00">28232</text>
</a>
</g>
</g>
<!-- 5600&#45;&gt;28232 -->
<g id="edge6" class="edge"><title>5600&#45;&gt;28232</title>
<path fill="none" stroke="black" d="M1171.95,-669.452C1239.51,-658.099 1411.94,-629.123 1482.91,-617.197"/>
</g>
<!-- 6081 -->
<g id="node6" class="node"><title>6081</title>
<g id="a_node6"><a xlink:title="6th_week">
<ellipse fill="grey" stroke="black" cx="2008.96" cy="-626.465" rx="28.6953" ry="18"/>
<text text-anchor="middle" x="2008.96" y="-622.765" font-family="Times,serif" font-size="14.00">6081</text>
</a>
</g>
</g>
<!-- 6081&#45;&gt;11030 -->
<g id="edge38" class="edge"><title>6081&#45;&gt;11030</title>
<path fill="none" stroke="black" d="M1995.84,-610.283C1968.36,-576.416 1905.04,-498.381 1877.32,-464.211"/>
</g>
<!-- 28490 -->
<g id="node58" class="node"><title>28490</title>
<g id="a_node58"><a xlink:title="6th_week">
<ellipse fill="#20ff05" stroke="black" cx="2138.84" cy="-767.199" rx="32.4942" ry="18"/>
<text text-anchor="middle" x="2138.84" y="-763.499" font-family="Times,serif" font-size="14.00">28490</text>
</a>
</g>
</g>
<!-- 6081&#45;&gt;28490 -->
<g id="edge46" class="edge"><title>6081&#45;&gt;28490</title>
<path fill="none" stroke="black" d="M2023.36,-642.063C2048.19,-668.972 2098.83,-723.845 2123.98,-751.098"/>
</g>
<!-- 6868 -->
<g id="node7" class="node"><title>6868</title>
<g id="a_node7"><a xlink:title="6th_week">
<ellipse fill="grey" stroke="black" cx="441.977" cy="-720.199" rx="28.6953" ry="18"/>
<text text-anchor="middle" x="441.977" y="-716.499" font-family="Times,serif" font-size="14.00">6868</text>
</a>
</g>
</g>
<!-- 6868&#45;&gt;18029 -->
<g id="edge40" class="edge"><title>6868&#45;&gt;18029</title>
<path fill="none" stroke="black" d="M447.089,-738.121C456.602,-771.469 476.916,-842.676 486.408,-875.95"/>
</g>
<!-- 8198 -->
<g id="node8" class="node"><title>8198</title>
<g id="a_node8"><a xlink:title="6th_week">
<ellipse fill="#20ff05" stroke="black" cx="894.323" cy="-927.289" rx="28.6953" ry="18"/>
<text text-anchor="middle" x="894.323" y="-923.589" font-family="Times,serif" font-size="14.00">8198</text>
</a>
</g>
</g>
<!-- 8198&#45;&gt;26638 -->
<g id="edge3" class="edge"><title>8198&#45;&gt;26638</title>
<path fill="none" stroke="black" d="M885.208,-910.216C871.442,-884.427 845.483,-835.801 831.627,-809.844"/>
</g>
<!-- 8794 -->
<g id="node9" class="node"><title>8794</title>
<g id="a_node9"><a xlink:title="6th_week">
<ellipse fill="grey" stroke="black" cx="2022.07" cy="-56.6027" rx="28.6953" ry="18"/>
<text text-anchor="middle" x="2022.07" y="-52.9027" font-family="Times,serif" font-size="14.00">8794</text>
</a>
</g>
</g>
<!-- 36474 -->
<g id="node51" class="node"><title>36474</title>
<g id="a_node51"><a xlink:title="6th_week">
<ellipse fill="#20ff05" stroke="black" cx="1947.6" cy="-234.536" rx="32.4942" ry="18"/>
<text text-anchor="middle" x="1947.6" y="-230.836" font-family="Times,serif" font-size="14.00">36474</text>
</a>
</g>
</g>
<!-- 8794&#45;&gt;36474 -->
<g id="edge52" class="edge"><title>8794&#45;&gt;36474</title>
<path fill="none" stroke="black" d="M2014.66,-74.3141C2000.38,-108.42 1969.24,-182.847 1954.98,-216.896"/>
</g>
<!-- 9436 -->
<g id="node10" class="node"><title>9436</title>
<g id="a_node10"><a xlink:title="6th_week">
<ellipse fill="#20ff05" stroke="black" cx="1953.94" cy="-322.87" rx="28.6953" ry="18"/>
<text text-anchor="middle" x="1953.94" y="-319.17" font-family="Times,serif" font-size="14.00">9436</text>
</a>
</g>
</g>
<!-- 9436&#45;&gt;11030 -->
<g id="edge41" class="edge"><title>9436&#45;&gt;11030</title>
<path fill="none" stroke="black" d="M1941.98,-339.444C1924.86,-363.182 1893.51,-406.64 1876.2,-430.635"/>
</g>
<!-- 10187 -->
<g id="node11" class="node"><title>10187</title>
<g id="a_node11"><a xlink:title="6th_week">
<ellipse fill="#20ff05" stroke="black" cx="439.629" cy="-1029.02" rx="32.4942" ry="18"/>
<text text-anchor="middle" x="439.629" y="-1025.32" font-family="Times,serif" font-size="14.00">10187</text>
</a>
</g>
</g>
<!-- 10187&#45;&gt;18029 -->
<g id="edge49" class="edge"><title>10187&#45;&gt;18029</title>
<path fill="none" stroke="black" d="M446.409,-1011.34C456.349,-985.422 474.77,-937.383 484.711,-911.46"/>
</g>
<!-- 10828 -->
<g id="node12" class="node"><title>10828</title>
<g id="a_node12"><a xlink:title="6th_week">
<ellipse fill="#20ff05" stroke="black" cx="783.192" cy="-636.084" rx="32.4942" ry="18"/>
<text text-anchor="middle" x="783.192" y="-632.384" font-family="Times,serif" font-size="14.00">10828</text>
</a>
</g>
</g>
<!-- 10828&#45;&gt;26638 -->
<g id="edge55" class="edge"><title>10828&#45;&gt;26638</title>
<path fill="none" stroke="black" d="M787.685,-654.025C795.2,-684.033 810.238,-744.08 817.798,-774.27"/>
</g>
<!-- 15013 -->
<g id="node18" class="node"><title>15013</title>
<g id="a_node18"><a xlink:title="6th_week">
<ellipse fill="#20ff05" stroke="black" cx="1798" cy="-316.154" rx="32.4942" ry="18"/>
<text text-anchor="middle" x="1798" y="-312.454" font-family="Times,serif" font-size="14.00">15013</text>
</a>
</g>
</g>
<!-- 11030&#45;&gt;15013 -->
<g id="edge59" class="edge"><title>11030&#45;&gt;15013</title>
<path fill="none" stroke="black" d="M1855.15,-430.212C1842.55,-405.057 1819.42,-358.887 1806.79,-333.692"/>
</g>
<!-- 16863 -->
<g id="node19" class="node"><title>16863</title>
<g id="a_node19"><a xlink:title="6th_week">
<ellipse fill="#20ff05" stroke="black" cx="1684.77" cy="-367.884" rx="32.4942" ry="18"/>
<text text-anchor="middle" x="1684.77" y="-364.184" font-family="Times,serif" font-size="14.00">16863</text>
</a>
</g>
</g>
<!-- 11030&#45;&gt;16863 -->
<g id="edge39" class="edge"><title>11030&#45;&gt;16863</title>
<path fill="none" stroke="black" d="M1838.24,-436.245C1804.09,-421.033 1744.08,-394.302 1710.1,-379.167"/>
</g>
<!-- 18097 -->
<g id="node24" class="node"><title>18097</title>
<g id="a_node24"><a xlink:title="6th_week">
<ellipse fill="grey" stroke="black" cx="1730.11" cy="-575.283" rx="32.4942" ry="18"/>
<text text-anchor="middle" x="1730.11" y="-571.583" font-family="Times,serif" font-size="14.00">18097</text>
</a>
</g>
</g>
<!-- 11030&#45;&gt;18097 -->
<g id="edge50" class="edge"><title>11030&#45;&gt;18097</title>
<path fill="none" stroke="black" d="M1847.5,-463.325C1821.82,-487.816 1772.41,-534.939 1746.65,-559.508"/>
</g>
<!-- 18522 -->
<g id="node26" class="node"><title>18522</title>
<g id="a_node26"><a xlink:title="6th_week">
<ellipse fill="#20ff05" stroke="black" cx="1714.24" cy="-312.537" rx="32.4942" ry="18"/>
<text text-anchor="middle" x="1714.24" y="-308.837" font-family="Times,serif" font-size="14.00">18522</text>
</a>
</g>
</g>
<!-- 11030&#45;&gt;18522 -->
<g id="edge1" class="edge"><title>11030&#45;&gt;18522</title>
<path fill="none" stroke="black" d="M1846.73,-432.175C1818.02,-406.246 1760.56,-354.361 1731.67,-328.275"/>
</g>
<!-- 20111 -->
<g id="node28" class="node"><title>20111</title>
<g id="a_node28"><a xlink:title="6th_week">
<ellipse fill="grey" stroke="black" cx="1836.31" cy="-212.896" rx="32.4942" ry="18"/>
<text text-anchor="middle" x="1836.31" y="-209.196" font-family="Times,serif" font-size="14.00">20111</text>
</a>
</g>
</g>
<!-- 11030&#45;&gt;20111 -->
<g id="edge48" class="edge"><title>11030&#45;&gt;20111</title>
<path fill="none" stroke="black" d="M1861.78,-429.645C1856.65,-385.942 1843.58,-274.756 1838.44,-230.99"/>
</g>
<!-- 20628 -->
<g id="node29" class="node"><title>20628</title>
<g id="a_node29"><a xlink:title="6th_week">
<ellipse fill="grey" stroke="black" cx="1688.74" cy="-506.299" rx="32.4942" ry="18"/>
<text text-anchor="middle" x="1688.74" y="-502.599" font-family="Times,serif" font-size="14.00">20628</text>
</a>
</g>
</g>
<!-- 11030&#45;&gt;20628 -->
<g id="edge32" class="edge"><title>11030&#45;&gt;20628</title>
<path fill="none" stroke="black" d="M1835.76,-457.096C1803.07,-468.036 1749.47,-485.974 1716.81,-496.904"/>
</g>
<!-- 21016 -->
<g id="node30" class="node"><title>21016</title>
<g id="a_node30"><a xlink:title="6th_week">
<ellipse fill="#20ff05" stroke="black" cx="2026.4" cy="-499.504" rx="32.4942" ry="18"/>
<text text-anchor="middle" x="2026.4" y="-495.804" font-family="Times,serif" font-size="14.00">21016</text>
</a>
</g>
</g>
<!-- 11030&#45;&gt;21016 -->
<g id="edge27" class="edge"><title>11030&#45;&gt;21016</title>
<path fill="none" stroke="black" d="M1892.21,-456.705C1921.94,-466.188 1968.43,-481.016 1998.14,-490.493"/>
</g>
<!-- 23109 -->
<g id="node32" class="node"><title>23109</title>
<g id="a_node32"><a xlink:title="6th_week">
<ellipse fill="grey" stroke="black" cx="2031.6" cy="-432.216" rx="32.4942" ry="18"/>
<text text-anchor="middle" x="2031.6" y="-428.516" font-family="Times,serif" font-size="14.00">23109</text>
</a>
</g>
</g>
<!-- 11030&#45;&gt;23109 -->
<g id="edge33" class="edge"><title>11030&#45;&gt;23109</title>
<path fill="none" stroke="black" d="M1896.24,-444.696C1925.93,-441.958 1969.7,-437.923 1999.37,-435.188"/>
</g>
<!-- 23190 -->
<g id="node33" class="node"><title>23190</title>
<g id="a_node33"><a xlink:title="6th_week">
<ellipse fill="grey" stroke="black" cx="1881.25" cy="-280.66" rx="32.4942" ry="18"/>
<text text-anchor="middle" x="1881.25" y="-276.96" font-family="Times,serif" font-size="14.00">23190</text>
</a>
</g>
</g>
<!-- 11030&#45;&gt;23190 -->
<g id="edge17" class="edge"><title>11030&#45;&gt;23190</title>
<path fill="none" stroke="black" d="M1865.79,-429.486C1869.13,-397.359 1876.02,-330.94 1879.36,-298.829"/>
</g>
<!-- 25323 -->
<g id="node38" class="node"><title>25323</title>
<g id="a_node38"><a xlink:title="6th_week">
<ellipse fill="#20ff05" stroke="black" cx="1860.78" cy="-589.842" rx="32.4942" ry="18"/>
<text text-anchor="middle" x="1860.78" y="-586.142" font-family="Times,serif" font-size="14.00">25323</text>
</a>
</g>
</g>
<!-- 11030&#45;&gt;25323 -->
<g id="edge26" class="edge"><title>11030&#45;&gt;25323</title>
<path fill="none" stroke="black" d="M1863.51,-465.683C1862.91,-492.88 1861.78,-544.16 1861.18,-571.534"/>
</g>
<!-- 25689 -->
<g id="node39" class="node"><title>25689</title>
<g id="a_node39"><a xlink:title="6th_week">
<ellipse fill="#20ff05" stroke="black" cx="2009.71" cy="-370.597" rx="32.4942" ry="18"/>
<text text-anchor="middle" x="2009.71" y="-366.897" font-family="Times,serif" font-size="14.00">25689</text>
</a>
</g>
</g>
<!-- 11030&#45;&gt;25689 -->
<g id="edge8" class="edge"><title>11030&#45;&gt;25689</title>
<path fill="none" stroke="black" d="M1887.65,-435.122C1914.77,-420.788 1958.86,-397.479 1985.97,-383.148"/>
</g>
<!-- 11030&#45;&gt;28232 -->
<g id="edge34" class="edge"><title>11030&#45;&gt;28232</title>
<path fill="none" stroke="black" d="M1839.03,-459.36C1774.73,-489.559 1603.54,-569.959 1539.13,-600.214"/>
</g>
<!-- 29678 -->
<g id="node44" class="node"><title>29678</title>
<g id="a_node44"><a xlink:title="6th_week">
<ellipse fill="grey" stroke="black" cx="1673.55" cy="-432.847" rx="32.4942" ry="18"/>
<text text-anchor="middle" x="1673.55" y="-429.147" font-family="Times,serif" font-size="14.00">29678</text>
</a>
</g>
</g>
<!-- 11030&#45;&gt;29678 -->
<g id="edge29" class="edge"><title>11030&#45;&gt;29678</title>
<path fill="none" stroke="black" d="M1831.61,-445.162C1796.61,-442.435 1741.07,-438.107 1706,-435.375"/>
</g>
<!-- 33749 -->
<g id="node48" class="node"><title>33749</title>
<g id="a_node48"><a xlink:title="6th_week">
<ellipse fill="#ffffff" stroke="black" cx="1785.72" cy="-629.458" rx="32.4942" ry="18"/>
<text text-anchor="middle" x="1785.72" y="-625.758" font-family="Times,serif" font-size="14.00">33749</text>
</a>
</g>
</g>
<!-- 11030&#45;&gt;33749 -->
<g id="edge21" class="edge"><title>11030&#45;&gt;33749</title>
<path fill="none" stroke="black" d="M1856.26,-465.439C1841.28,-500.28 1808.19,-577.209 1793.28,-611.892"/>
</g>
<!-- 34554 -->
<g id="node50" class="node"><title>34554</title>
<g id="a_node50"><a xlink:title="6th_week">
<ellipse fill="#20ff05" stroke="black" cx="1935.9" cy="-622.337" rx="32.4942" ry="18"/>
<text text-anchor="middle" x="1935.9" y="-618.637" font-family="Times,serif" font-size="14.00">34554</text>
</a>
</g>
</g>
<!-- 11030&#45;&gt;34554 -->
<g id="edge61" class="edge"><title>11030&#45;&gt;34554</title>
<path fill="none" stroke="black" d="M1871.2,-465.386C1885,-498.862 1914.77,-571.069 1928.58,-604.581"/>
</g>
<!-- 11030&#45;&gt;36474 -->
<g id="edge13" class="edge"><title>11030&#45;&gt;36474</title>
<path fill="none" stroke="black" d="M1870.89,-429.872C1886.69,-389.651 1924.97,-292.171 1940.69,-252.141"/>
</g>
<!-- 37000 -->
<g id="node52" class="node"><title>37000</title>
<g id="a_node52"><a xlink:title="6th_week">
<ellipse fill="#ffffff" stroke="black" cx="2129.04" cy="-488.647" rx="32.4942" ry="18"/>
<text text-anchor="middle" x="2129.04" y="-484.947" font-family="Times,serif" font-size="14.00">37000</text>
</a>
</g>
</g>
<!-- 11030&#45;&gt;37000 -->
<g id="edge30" class="edge"><title>11030&#45;&gt;37000</title>
<path fill="none" stroke="black" d="M1895.36,-452.538C1946.39,-460.423 2046.62,-475.912 2097.63,-483.793"/>
</g>
<!-- 7531 -->
<g id="node55" class="node"><title>7531</title>
<g id="a_node55"><a xlink:title="6th_week">
<ellipse fill="grey" stroke="black" cx="1865.14" cy="-647.437" rx="28.6953" ry="18"/>
<text text-anchor="middle" x="1865.14" y="-643.737" font-family="Times,serif" font-size="14.00">7531</text>
</a>
</g>
</g>
<!-- 11030&#45;&gt;7531 -->
<g id="edge25" class="edge"><title>11030&#45;&gt;7531</title>
<path fill="none" stroke="black" d="M1864.01,-465.757C1864.25,-503.693 1864.79,-591.229 1865.03,-629.255"/>
</g>
<!-- 10433 -->
<g id="node56" class="node"><title>10433</title>
<g id="a_node56"><a xlink:title="6th_week">
<ellipse fill="#20ff05" stroke="black" cx="1994.7" cy="-556.074" rx="32.4942" ry="18"/>
<text text-anchor="middle" x="1994.7" y="-552.374" font-family="Times,serif" font-size="14.00">10433</text>
</a>
</g>
</g>
<!-- 11030&#45;&gt;10433 -->
<g id="edge53" class="edge"><title>11030&#45;&gt;10433</title>
<path fill="none" stroke="black" d="M1882.09,-462.75C1906.94,-483.343 1951.26,-520.073 1976.25,-540.781"/>
</g>
<!-- 25369 -->
<g id="node57" class="node"><title>25369</title>
<g id="a_node57"><a xlink:title="6th_week">
<ellipse fill="#20ff05" stroke="black" cx="1770.37" cy="-266.347" rx="32.4942" ry="18"/>
<text text-anchor="middle" x="1770.37" y="-262.647" font-family="Times,serif" font-size="14.00">25369</text>
</a>
</g>
</g>
<!-- 11030&#45;&gt;25369 -->
<g id="edge16" class="edge"><title>11030&#45;&gt;25369</title>
<path fill="none" stroke="black" d="M1854.93,-430.291C1837.06,-395.631 1797.17,-318.297 1779.31,-283.681"/>
</g>
<!-- 13319 -->
<g id="node15" class="node"><title>13319</title>
<g id="a_node15"><a xlink:title="6th_week">
<ellipse fill="grey" stroke="black" cx="333.292" cy="-834.234" rx="32.4942" ry="18"/>
<text text-anchor="middle" x="333.292" y="-830.534" font-family="Times,serif" font-size="14.00">13319</text>
</a>
</g>
</g>
<!-- 13319&#45;&gt;18029 -->
<g id="edge10" class="edge"><title>13319&#45;&gt;18029</title>
<path fill="none" stroke="black" d="M360.488,-844.469C389.553,-855.408 435.358,-872.647 464.388,-883.573"/>
</g>
<!-- 13498 -->
<g id="node16" class="node"><title>13498</title>
<g id="a_node16"><a xlink:title="6th_week">
<ellipse fill="#20ff05" stroke="black" cx="338.73" cy="-915.303" rx="32.4942" ry="18"/>
<text text-anchor="middle" x="338.73" y="-911.603" font-family="Times,serif" font-size="14.00">13498</text>
</a>
</g>
</g>
<!-- 13498&#45;&gt;18029 -->
<g id="edge45" class="edge"><title>13498&#45;&gt;18029</title>
<path fill="none" stroke="black" d="M370.382,-910.843C396.6,-907.148 433.674,-901.923 459.881,-898.229"/>
</g>
<!-- 14769 -->
<g id="node17" class="node"><title>14769</title>
<g id="a_node17"><a xlink:title="6th_week">
<ellipse fill="#20ff05" stroke="black" cx="797.822" cy="-938.741" rx="32.4942" ry="18"/>
<text text-anchor="middle" x="797.822" y="-935.041" font-family="Times,serif" font-size="14.00">14769</text>
</a>
</g>
</g>
<!-- 14769&#45;&gt;26638 -->
<g id="edge54" class="edge"><title>14769&#45;&gt;26638</title>
<path fill="none" stroke="black" d="M800.831,-920.807C805.54,-892.736 814.601,-838.725 819.326,-810.564"/>
</g>
<!-- 17358 -->
<g id="node20" class="node"><title>17358</title>
<g id="a_node20"><a xlink:title="6th_week">
<ellipse fill="#20ff05" stroke="black" cx="709.562" cy="-699.474" rx="32.4942" ry="18"/>
<text text-anchor="middle" x="709.562" y="-695.774" font-family="Times,serif" font-size="14.00">17358</text>
</a>
</g>
</g>
<!-- 17358&#45;&gt;26638 -->
<g id="edge2" class="edge"><title>17358&#45;&gt;26638</title>
<path fill="none" stroke="black" d="M727.685,-714.417C748.61,-731.671 782.843,-759.899 803.907,-777.268"/>
</g>
<!-- 17451 -->
<g id="node21" class="node"><title>17451</title>
<g id="a_node21"><a xlink:title="6th_week">
<ellipse fill="grey" stroke="black" cx="390.511" cy="-1081.18" rx="32.4942" ry="18"/>
<text text-anchor="middle" x="390.511" y="-1077.48" font-family="Times,serif" font-size="14.00">17451</text>
</a>
</g>
</g>
<!-- 17451&#45;&gt;18029 -->
<g id="edge56" class="edge"><title>17451&#45;&gt;18029</title>
<path fill="none" stroke="black" d="M399.83,-1063.89C419.068,-1028.19 462.978,-946.694 482.196,-911.027"/>
</g>
<!-- 27474 -->
<g id="node41" class="node"><title>27474</title>
<g id="a_node41"><a xlink:title="6th_week">
<ellipse fill="grey" stroke="black" cx="294.301" cy="-1241.02" rx="32.4942" ry="18"/>
<text text-anchor="middle" x="294.301" y="-1237.32" font-family="Times,serif" font-size="14.00">27474</text>
</a>
</g>
</g>
<!-- 17451&#45;&gt;27474 -->
<g id="edge23" class="edge"><title>17451&#45;&gt;27474</title>
<path fill="none" stroke="black" d="M380.215,-1098.29C361.794,-1128.89 323.392,-1192.69 304.815,-1223.55"/>
</g>
<!-- 17477 -->
<g id="node22" class="node"><title>17477</title>
<g id="a_node22"><a xlink:title="6th_week">
<ellipse fill="#20ff05" stroke="black" cx="365.126" cy="-991.915" rx="32.4942" ry="18"/>
<text text-anchor="middle" x="365.126" y="-988.215" font-family="Times,serif" font-size="14.00">17477</text>
</a>
</g>
</g>
<!-- 17477&#45;&gt;18029 -->
<g id="edge35" class="edge"><title>17477&#45;&gt;18029</title>
<path fill="none" stroke="black" d="M384.045,-977.222C407.867,-958.721 448.561,-927.116 472.445,-908.567"/>
</g>
<!-- 18183 -->
<g id="node25" class="node"><title>18183</title>
<g id="a_node25"><a xlink:title="6th_week">
<ellipse fill="#ffffff" stroke="black" cx="535.896" cy="-1076.29" rx="32.4942" ry="18"/>
<text text-anchor="middle" x="535.896" y="-1072.59" font-family="Times,serif" font-size="14.00">18183</text>
</a>
</g>
</g>
<!-- 18029&#45;&gt;18183 -->
<g id="edge47" class="edge"><title>18029&#45;&gt;18183</title>
<path fill="none" stroke="black" d="M495.912,-911.941C504.424,-946.925 522.997,-1023.27 531.494,-1058.19"/>
</g>
<!-- 18029&#45;&gt;26638 -->
<g id="edge19" class="edge"><title>18029&#45;&gt;26638</title>
<path fill="none" stroke="black" d="M519.988,-885.05C582.532,-865.903 731.226,-820.382 793.814,-801.222"/>
</g>
<!-- 18029&#45;&gt;27747 -->
<g id="edge11" class="edge"><title>18029&#45;&gt;27747</title>
<path fill="none" stroke="black" d="M459.41,-896.906C409.504,-901.778 313.844,-911.117 263.983,-915.985"/>
</g>
<!-- 30289 -->
<g id="node45" class="node"><title>30289</title>
<g id="a_node45"><a xlink:title="6th_week">
<ellipse fill="#20ff05" stroke="black" cx="366.921" cy="-775.365" rx="32.4942" ry="18"/>
<text text-anchor="middle" x="366.921" y="-771.665" font-family="Times,serif" font-size="14.00">30289</text>
</a>
</g>
</g>
<!-- 18029&#45;&gt;30289 -->
<g id="edge43" class="edge"><title>18029&#45;&gt;30289</title>
<path fill="none" stroke="black" d="M474.95,-878.05C451.124,-855.403 407.396,-813.838 383.531,-791.154"/>
</g>
<!-- 31644 -->
<g id="node46" class="node"><title>31644</title>
<g id="a_node46"><a xlink:title="6th_week">
<ellipse fill="#ffffff" stroke="black" cx="593.722" cy="-1013.25" rx="32.4942" ry="18"/>
<text text-anchor="middle" x="593.722" y="-1009.55" font-family="Times,serif" font-size="14.00">31644</text>
</a>
</g>
</g>
<!-- 18029&#45;&gt;31644 -->
<g id="edge31" class="edge"><title>18029&#45;&gt;31644</title>
<path fill="none" stroke="black" d="M505.707,-910.386C525.238,-933.212 560.161,-974.025 579.628,-996.777"/>
</g>
<!-- 18884 -->
<g id="node27" class="node"><title>18884</title>
<g id="a_node27"><a xlink:title="6th_week">
<ellipse fill="#ffffff" stroke="black" cx="2306.78" cy="-588.77" rx="32.4942" ry="18"/>
<text text-anchor="middle" x="2306.78" y="-585.07" font-family="Times,serif" font-size="14.00">18884</text>
</a>
</g>
</g>
<!-- 18884&#45;&gt;37000 -->
<g id="edge42" class="edge"><title>18884&#45;&gt;37000</title>
<path fill="none" stroke="black" d="M2283.91,-575.885C2249.78,-556.661 2185.9,-520.678 2151.83,-501.482"/>
</g>
<!-- 29255 -->
<g id="node59" class="node"><title>29255</title>
<g id="a_node59"><a xlink:title="6th_week">
<ellipse fill="grey" stroke="black" cx="1829.38" cy="-17.653" rx="32.4942" ry="18"/>
<text text-anchor="middle" x="1829.38" y="-13.953" font-family="Times,serif" font-size="14.00">29255</text>
</a>
</g>
</g>
<!-- 20111&#45;&gt;29255 -->
<g id="edge9" class="edge"><title>20111&#45;&gt;29255</title>
<path fill="none" stroke="black" d="M1835.67,-194.878C1834.35,-157.778 1831.35,-73.2153 1830.03,-35.9113"/>
</g>
<!-- 22349 -->
<g id="node31" class="node"><title>22349</title>
<g id="a_node31"><a xlink:title="6th_week">
<ellipse fill="#ffffff" stroke="black" cx="32.9253" cy="-903.091" rx="32.4942" ry="18"/>
<text text-anchor="middle" x="32.9253" y="-899.391" font-family="Times,serif" font-size="14.00">22349</text>
</a>
</g>
</g>
<!-- 22349&#45;&gt;27747 -->
<g id="edge60" class="edge"><title>22349&#45;&gt;27747</title>
<path fill="none" stroke="black" d="M65.3489,-905.7C102.363,-908.679 162.556,-913.523 199.564,-916.501"/>
</g>
<!-- 9847 -->
<g id="node62" class="node"><title>9847</title>
<g id="a_node62"><a xlink:title="6th_week">
<ellipse fill="#ffffff" stroke="black" cx="958.18" cy="-395.25" rx="28.6953" ry="18"/>
<text text-anchor="middle" x="958.18" y="-391.55" font-family="Times,serif" font-size="14.00">9847</text>
</a>
</g>
</g>
<!-- 23241&#45;&gt;9847 -->
<g id="edge24" class="edge"><title>23241&#45;&gt;9847</title>
<path fill="none" stroke="black" d="M1030.89,-521.427C1014.92,-493.7 983.77,-439.656 967.933,-412.174"/>
</g>
<!-- 23327 -->
<g id="node35" class="node"><title>23327</title>
<g id="a_node35"><a xlink:title="6th_week">
<ellipse fill="#20ff05" stroke="black" cx="41.8352" cy="-978.933" rx="32.4942" ry="18"/>
<text text-anchor="middle" x="41.8352" y="-975.233" font-family="Times,serif" font-size="14.00">23327</text>
</a>
</g>
</g>
<!-- 23327&#45;&gt;27747 -->
<g id="edge20" class="edge"><title>23327&#45;&gt;27747</title>
<path fill="none" stroke="black" d="M70.3009,-969.977C106.25,-958.666 167.731,-939.322 203.625,-928.029"/>
</g>
<!-- 24246 -->
<g id="node37" class="node"><title>24246</title>
<g id="a_node37"><a xlink:title="6th_week">
<ellipse fill="#20ff05" stroke="black" cx="1494.34" cy="-859.634" rx="32.4942" ry="18"/>
<text text-anchor="middle" x="1494.34" y="-855.934" font-family="Times,serif" font-size="14.00">24246</text>
</a>
</g>
</g>
<!-- 24246&#45;&gt;28232 -->
<g id="edge36" class="edge"><title>24246&#45;&gt;28232</title>
<path fill="none" stroke="black" d="M1495.8,-841.421C1499.46,-795.616 1509.02,-676.02 1512.69,-630.186"/>
</g>
<!-- 6398 -->
<g id="node54" class="node"><title>6398</title>
<g id="a_node54"><a xlink:title="6th_week">
<ellipse fill="#20ff05" stroke="black" cx="1417.03" cy="-990.284" rx="28.6953" ry="18"/>
<text text-anchor="middle" x="1417.03" y="-986.584" font-family="Times,serif" font-size="14.00">6398</text>
</a>
</g>
</g>
<!-- 24246&#45;&gt;6398 -->
<g id="edge15" class="edge"><title>24246&#45;&gt;6398</title>
<path fill="none" stroke="black" d="M1484.08,-876.984C1469.21,-902.111 1441.85,-948.345 1427.1,-973.279"/>
</g>
<!-- 32491 -->
<g id="node60" class="node"><title>32491</title>
<g id="a_node60"><a xlink:title="6th_week">
<ellipse fill="#20ff05" stroke="black" cx="1576.74" cy="-1004.42" rx="32.4942" ry="18"/>
<text text-anchor="middle" x="1576.74" y="-1000.72" font-family="Times,serif" font-size="14.00">32491</text>
</a>
</g>
</g>
<!-- 24246&#45;&gt;32491 -->
<g id="edge58" class="edge"><title>24246&#45;&gt;32491</title>
<path fill="none" stroke="black" d="M1504.12,-876.812C1519.89,-904.528 1550.79,-958.828 1566.72,-986.816"/>
</g>
<!-- 36650 -->
<g id="node61" class="node"><title>36650</title>
<g id="a_node61"><a xlink:title="6th_week">
<ellipse fill="#20ff05" stroke="black" cx="1496.35" cy="-1026.66" rx="32.4942" ry="18"/>
<text text-anchor="middle" x="1496.35" y="-1022.96" font-family="Times,serif" font-size="14.00">36650</text>
</a>
</g>
</g>
<!-- 24246&#45;&gt;36650 -->
<g id="edge4" class="edge"><title>24246&#45;&gt;36650</title>
<path fill="none" stroke="black" d="M1494.56,-877.827C1494.95,-909.956 1495.75,-976.377 1496.13,-1008.49"/>
</g>
<!-- 33015 -->
<g id="node47" class="node"><title>33015</title>
<g id="a_node47"><a xlink:title="6th_week">
<ellipse fill="#20ff05" stroke="black" cx="82.249" cy="-1048.1" rx="32.4942" ry="18"/>
<text text-anchor="middle" x="82.249" y="-1044.4" font-family="Times,serif" font-size="14.00">33015</text>
</a>
</g>
</g>
<!-- 27747&#45;&gt;33015 -->
<g id="edge5" class="edge"><title>27747&#45;&gt;33015</title>
<path fill="none" stroke="black" d="M214.211,-934.413C185.395,-959.238 128.79,-1008 99.9892,-1032.82"/>
</g>
<!-- 34337 -->
<g id="node49" class="node"><title>34337</title>
<g id="a_node49"><a xlink:title="6th_week">
<ellipse fill="#ffffff" stroke="black" cx="2332.94" cy="-513.853" rx="32.4942" ry="18"/>
<text text-anchor="middle" x="2332.94" y="-510.153" font-family="Times,serif" font-size="14.00">34337</text>
</a>
</g>
</g>
<!-- 34337&#45;&gt;37000 -->
<g id="edge12" class="edge"><title>34337&#45;&gt;37000</title>
<path fill="none" stroke="black" d="M2301.08,-509.915C2262.89,-505.193 2199.26,-497.327 2161.01,-492.6"/>
</g>
<!-- 1355 -->
<g id="node53" class="node"><title>1355</title>
<g id="a_node53"><a xlink:title="6th_week">
<ellipse fill="#ffffff" stroke="black" cx="2321.5" cy="-436.825" rx="28.6953" ry="18"/>
<text text-anchor="middle" x="2321.5" y="-433.125" font-family="Times,serif" font-size="14.00">1355</text>
</a>
</g>
</g>
<!-- 37000&#45;&gt;1355 -->
<g id="edge22" class="edge"><title>37000&#45;&gt;1355</title>
<path fill="none" stroke="black" d="M2158.27,-480.777C2195.5,-470.753 2259.28,-453.58 2295.1,-443.935"/>
</g>
</g>
</svg>
