<?xml version="1.0" encoding="UTF-8" standalone="no"?>
<!DOCTYPE svg PUBLIC "-//W3C//DTD SVG 1.1//EN"
 "http://www.w3.org/Graphics/SVG/1.1/DTD/svg11.dtd">
<!-- Generated by graphviz version 2.38.0 (20140413.2041)
 -->
<!-- Title: %3 Pages: 1 -->
<svg width="1930pt" height="1787pt"
 viewBox="0.00 0.00 1930.00 1787.00" xmlns="http://www.w3.org/2000/svg" xmlns:xlink="http://www.w3.org/1999/xlink">
<g id="graph0" class="graph" transform="scale(1 1) rotate(0) translate(4 1783)">
<title>%3</title>
<polygon fill="white" stroke="none" points="-4,4 -4,-1783 1926,-1783 1926,4 -4,4"/>
<!-- 2 -->
<g id="node1" class="node"><title>2</title>
<g id="a_node1"><a xlink:title="Day_0">
<ellipse fill="#20ff05" stroke="black" cx="1026.76" cy="-864.117" rx="27" ry="18"/>
<text text-anchor="middle" x="1026.76" y="-860.417" font-family="Times,serif" font-size="14.00">2</text>
</a>
</g>
</g>
<!-- 2544 -->
<g id="node6" class="node"><title>2544</title>
<g id="a_node6"><a xlink:title="Day_0">
<ellipse fill="#20ff05" stroke="black" cx="1147.51" cy="-794.673" rx="28.6953" ry="18"/>
<text text-anchor="middle" x="1147.51" y="-790.973" font-family="Times,serif" font-size="14.00">2544</text>
</a>
</g>
</g>
<!-- 2&#45;&gt;2544 -->
<g id="edge43" class="edge"><title>2&#45;&gt;2544</title>
<path fill="none" stroke="black" d="M1047.24,-852.337C1069.18,-839.722 1103.83,-819.794 1126.11,-806.98"/>
</g>
<!-- 10606 -->
<g id="node24" class="node"><title>10606</title>
<g id="a_node24"><a xlink:title="Day_0,PRE">
<ellipse fill="#20ff05" stroke="black" cx="835.738" cy="-1067.07" rx="32.4945" ry="18"/>
<ellipse fill="none" stroke="black" cx="835.738" cy="-1067.07" rx="36.4942" ry="22"/>
<text text-anchor="middle" x="835.738" y="-1063.37" font-family="Times,serif" font-size="14.00">10606</text>
</a>
</g>
</g>
<!-- 2&#45;&gt;10606 -->
<g id="edge54" class="edge"><title>2&#45;&gt;10606</title>
<path fill="none" stroke="black" d="M1012.4,-879.372C978.129,-915.786 891.59,-1007.73 853.829,-1047.85"/>
</g>
<!-- 25984 -->
<g id="node59" class="node"><title>25984</title>
<g id="a_node59"><a xlink:title="Day_0">
<ellipse fill="grey" stroke="black" cx="1015" cy="-721.116" rx="32.4942" ry="18"/>
<text text-anchor="middle" x="1015" y="-717.416" font-family="Times,serif" font-size="14.00">25984</text>
</a>
</g>
</g>
<!-- 2&#45;&gt;25984 -->
<g id="edge18" class="edge"><title>2&#45;&gt;25984</title>
<path fill="none" stroke="black" d="M1025.27,-846.006C1023.02,-818.649 1018.78,-767.067 1016.51,-739.532"/>
</g>
<!-- 26382 -->
<g id="node60" class="node"><title>26382</title>
<g id="a_node60"><a xlink:title="Day_0">
<ellipse fill="#20ff05" stroke="black" cx="1200.13" cy="-685.387" rx="32.4942" ry="18"/>
<text text-anchor="middle" x="1200.13" y="-681.687" font-family="Times,serif" font-size="14.00">26382</text>
</a>
</g>
</g>
<!-- 2&#45;&gt;26382 -->
<g id="edge34" class="edge"><title>2&#45;&gt;26382</title>
<path fill="none" stroke="black" d="M1041.54,-848.879C1074.05,-815.365 1151.49,-735.527 1184.64,-701.353"/>
</g>
<!-- 30447 -->
<g id="node63" class="node"><title>30447</title>
<g id="a_node63"><a xlink:title="Day_0">
<ellipse fill="#20ff05" stroke="black" cx="1102" cy="-743.921" rx="32.4942" ry="18"/>
<text text-anchor="middle" x="1102" y="-740.221" font-family="Times,serif" font-size="14.00">30447</text>
</a>
</g>
</g>
<!-- 2&#45;&gt;30447 -->
<g id="edge58" class="edge"><title>2&#45;&gt;30447</title>
<path fill="none" stroke="black" d="M1037.22,-847.404C1051.43,-824.699 1076.72,-784.301 1091.14,-761.27"/>
</g>
<!-- 30913 -->
<g id="node65" class="node"><title>30913</title>
<g id="a_node65"><a xlink:title="Day_0">
<ellipse fill="#20ff05" stroke="black" cx="1171.41" cy="-859.435" rx="32.4942" ry="18"/>
<text text-anchor="middle" x="1171.41" y="-855.735" font-family="Times,serif" font-size="14.00">30913</text>
</a>
</g>
</g>
<!-- 2&#45;&gt;30913 -->
<g id="edge30" class="edge"><title>2&#45;&gt;30913</title>
<path fill="none" stroke="black" d="M1053.97,-863.237C1078.03,-862.458 1113.18,-861.32 1138.75,-860.492"/>
</g>
<!-- 1503 -->
<g id="node2" class="node"><title>1503</title>
<g id="a_node2"><a xlink:title="Day_0">
<ellipse fill="#20ff05" stroke="black" cx="1807.7" cy="-193.605" rx="28.6953" ry="18"/>
<text text-anchor="middle" x="1807.7" y="-189.905" font-family="Times,serif" font-size="14.00">1503</text>
</a>
</g>
</g>
<!-- 4585 -->
<g id="node10" class="node"><title>4585</title>
<g id="a_node10"><a xlink:title="Day_0">
<ellipse fill="#20ff05" stroke="black" cx="1685.16" cy="-239.322" rx="28.6953" ry="18"/>
<text text-anchor="middle" x="1685.16" y="-235.622" font-family="Times,serif" font-size="14.00">4585</text>
</a>
</g>
</g>
<!-- 1503&#45;&gt;4585 -->
<g id="edge65" class="edge"><title>1503&#45;&gt;4585</title>
<path fill="none" stroke="black" d="M1782.9,-202.857C1761.64,-210.788 1731.17,-222.156 1709.92,-230.084"/>
</g>
<!-- 1756 -->
<g id="node3" class="node"><title>1756</title>
<g id="a_node3"><a xlink:title="3rd_week">
<ellipse fill="#20ff05" stroke="black" cx="1554.02" cy="-206.88" rx="28.6953" ry="18"/>
<text text-anchor="middle" x="1554.02" y="-203.18" font-family="Times,serif" font-size="14.00">1756</text>
</a>
</g>
</g>
<!-- 21478 -->
<g id="node47" class="node"><title>21478</title>
<g id="a_node47"><a xlink:title="3rd_week,Day_0">
<ellipse fill="#20ff05" stroke="black" cx="1523.42" cy="-362.209" rx="32.4945" ry="18"/>
<ellipse fill="none" stroke="black" cx="1523.42" cy="-362.209" rx="36.4942" ry="22"/>
<text text-anchor="middle" x="1523.42" y="-358.509" font-family="Times,serif" font-size="14.00">21478</text>
</a>
</g>
</g>
<!-- 1756&#45;&gt;21478 -->
<g id="edge57" class="edge"><title>1756&#45;&gt;21478</title>
<path fill="none" stroke="black" d="M1550.45,-225.002C1544.81,-253.652 1533.84,-309.319 1527.76,-340.213"/>
</g>
<!-- 1947 -->
<g id="node4" class="node"><title>1947</title>
<g id="a_node4"><a xlink:title="Day_0">
<ellipse fill="#20ff05" stroke="black" cx="1666.87" cy="-327.79" rx="28.6953" ry="18"/>
<text text-anchor="middle" x="1666.87" y="-324.09" font-family="Times,serif" font-size="14.00">1947</text>
</a>
</g>
</g>
<!-- 1947&#45;&gt;21478 -->
<g id="edge63" class="edge"><title>1947&#45;&gt;21478</title>
<path fill="none" stroke="black" d="M1639.89,-334.264C1616.52,-339.873 1582.59,-348.014 1557.37,-354.063"/>
</g>
<!-- 2388 -->
<g id="node5" class="node"><title>2388</title>
<g id="a_node5"><a xlink:title="Day_0">
<ellipse fill="#ffffff" stroke="black" cx="569.728" cy="-1638.39" rx="28.6953" ry="18"/>
<text text-anchor="middle" x="569.728" y="-1634.69" font-family="Times,serif" font-size="14.00">2388</text>
</a>
</g>
</g>
<!-- 25974 -->
<g id="node58" class="node"><title>25974</title>
<g id="a_node58"><a xlink:title="Day_0">
<ellipse fill="#20ff05" stroke="black" cx="556.997" cy="-1484.1" rx="32.4942" ry="18"/>
<text text-anchor="middle" x="556.997" y="-1480.4" font-family="Times,serif" font-size="14.00">25974</text>
</a>
</g>
</g>
<!-- 2388&#45;&gt;25974 -->
<g id="edge22" class="edge"><title>2388&#45;&gt;25974</title>
<path fill="none" stroke="black" d="M568.243,-1620.39C565.803,-1590.82 560.972,-1532.27 558.513,-1502.47"/>
</g>
<!-- 3557 -->
<g id="node7" class="node"><title>3557</title>
<g id="a_node7"><a xlink:title="6th_week">
<ellipse fill="#20ff05" stroke="black" cx="730.117" cy="-920.506" rx="28.6953" ry="18"/>
<text text-anchor="middle" x="730.117" y="-916.806" font-family="Times,serif" font-size="14.00">3557</text>
</a>
</g>
</g>
<!-- 7109 -->
<g id="node18" class="node"><title>7109</title>
<g id="a_node18"><a xlink:title="6th_week">
<ellipse fill="#20ff05" stroke="black" cx="660.922" cy="-807.048" rx="28.6953" ry="18"/>
<text text-anchor="middle" x="660.922" y="-803.348" font-family="Times,serif" font-size="14.00">7109</text>
</a>
</g>
</g>
<!-- 3557&#45;&gt;7109 -->
<g id="edge59" class="edge"><title>3557&#45;&gt;7109</title>
<path fill="none" stroke="black" d="M719.607,-903.274C706.526,-881.825 684.325,-845.421 671.304,-824.07"/>
</g>
<!-- 3557&#45;&gt;10606 -->
<g id="edge46" class="edge"><title>3557&#45;&gt;10606</title>
<path fill="none" stroke="black" d="M742.027,-937.034C761.45,-963.986 799.889,-1017.33 821,-1046.62"/>
</g>
<!-- 3589 -->
<g id="node8" class="node"><title>3589</title>
<g id="a_node8"><a xlink:title="Day_0">
<ellipse fill="#20ff05" stroke="black" cx="361.619" cy="-694.259" rx="28.6953" ry="18"/>
<text text-anchor="middle" x="361.619" y="-690.559" font-family="Times,serif" font-size="14.00">3589</text>
</a>
</g>
</g>
<!-- 23511 -->
<g id="node54" class="node"><title>23511</title>
<g id="a_node54"><a xlink:title="3rd_week,Day_0">
<ellipse fill="#20ff05" stroke="black" cx="374.581" cy="-838.298" rx="32.4945" ry="18"/>
<ellipse fill="none" stroke="black" cx="374.581" cy="-838.298" rx="36.4942" ry="22"/>
<text text-anchor="middle" x="374.581" y="-834.598" font-family="Times,serif" font-size="14.00">23511</text>
</a>
</g>
</g>
<!-- 3589&#45;&gt;23511 -->
<g id="edge25" class="edge"><title>3589&#45;&gt;23511</title>
<path fill="none" stroke="black" d="M363.261,-712.502C365.631,-738.846 370.009,-787.493 372.57,-815.955"/>
</g>
<!-- 4336 -->
<g id="node9" class="node"><title>4336</title>
<g id="a_node9"><a xlink:title="Day_0">
<ellipse fill="#20ff05" stroke="black" cx="1362.67" cy="-1414.16" rx="28.6953" ry="18"/>
<text text-anchor="middle" x="1362.67" y="-1410.46" font-family="Times,serif" font-size="14.00">4336</text>
</a>
</g>
</g>
<!-- 19434 -->
<g id="node41" class="node"><title>19434</title>
<g id="a_node41"><a xlink:title="Day_0">
<ellipse fill="#20ff05" stroke="black" cx="1233.44" cy="-1346.95" rx="32.4942" ry="18"/>
<text text-anchor="middle" x="1233.44" y="-1343.25" font-family="Times,serif" font-size="14.00">19434</text>
</a>
</g>
</g>
<!-- 4336&#45;&gt;19434 -->
<g id="edge5" class="edge"><title>4336&#45;&gt;19434</title>
<path fill="none" stroke="black" d="M1340.45,-1402.6C1317.36,-1390.59 1281.33,-1371.85 1257.56,-1359.49"/>
</g>
<!-- 13104 -->
<g id="node30" class="node"><title>13104</title>
<g id="a_node30"><a xlink:title="Day_0">
<ellipse fill="#20ff05" stroke="black" cx="1786.34" cy="-121.188" rx="32.4942" ry="18"/>
<text text-anchor="middle" x="1786.34" y="-117.488" font-family="Times,serif" font-size="14.00">13104</text>
</a>
</g>
</g>
<!-- 4585&#45;&gt;13104 -->
<g id="edge44" class="edge"><title>4585&#45;&gt;13104</title>
<path fill="none" stroke="black" d="M1698.81,-223.39C1718.01,-200.969 1752.83,-160.317 1772.27,-137.625"/>
</g>
<!-- 4585&#45;&gt;21478 -->
<g id="edge36" class="edge"><title>4585&#45;&gt;21478</title>
<path fill="none" stroke="black" d="M1666.61,-253.418C1636.82,-276.051 1578.41,-320.431 1546.16,-344.934"/>
</g>
<!-- 4760 -->
<g id="node11" class="node"><title>4760</title>
<g id="a_node11"><a xlink:title="Day_0">
<ellipse fill="#20ff05" stroke="black" cx="508.004" cy="-1587.89" rx="28.6953" ry="18"/>
<text text-anchor="middle" x="508.004" y="-1584.19" font-family="Times,serif" font-size="14.00">4760</text>
</a>
</g>
</g>
<!-- 4760&#45;&gt;25974 -->
<g id="edge32" class="edge"><title>4760&#45;&gt;25974</title>
<path fill="none" stroke="black" d="M516.315,-1570.28C525.325,-1551.2 539.62,-1520.91 548.646,-1501.79"/>
</g>
<!-- 5007 -->
<g id="node12" class="node"><title>5007</title>
<g id="a_node12"><a xlink:title="Day_0">
<ellipse fill="#20ff05" stroke="black" cx="1612.99" cy="-261.915" rx="28.6953" ry="18"/>
<text text-anchor="middle" x="1612.99" y="-258.215" font-family="Times,serif" font-size="14.00">5007</text>
</a>
</g>
</g>
<!-- 5007&#45;&gt;21478 -->
<g id="edge17" class="edge"><title>5007&#45;&gt;21478</title>
<path fill="none" stroke="black" d="M1598.6,-278.029C1582.87,-295.637 1557.68,-323.846 1540.85,-342.695"/>
</g>
<!-- 5140 -->
<g id="node13" class="node"><title>5140</title>
<g id="a_node13"><a xlink:title="Day_0">
<ellipse fill="grey" stroke="black" cx="853.984" cy="-937.706" rx="28.6953" ry="18"/>
<text text-anchor="middle" x="853.984" y="-934.006" font-family="Times,serif" font-size="14.00">5140</text>
</a>
</g>
</g>
<!-- 5140&#45;&gt;10606 -->
<g id="edge10" class="edge"><title>5140&#45;&gt;10606</title>
<path fill="none" stroke="black" d="M851.447,-955.694C848.157,-979.022 842.42,-1019.7 838.864,-1044.91"/>
</g>
<!-- 5314 -->
<g id="node14" class="node"><title>5314</title>
<g id="a_node14"><a xlink:title="Day_0">
<ellipse fill="#20ff05" stroke="black" cx="362.839" cy="-1760.94" rx="28.6953" ry="18"/>
<text text-anchor="middle" x="362.839" y="-1757.24" font-family="Times,serif" font-size="14.00">5314</text>
</a>
</g>
</g>
<!-- 30486 -->
<g id="node64" class="node"><title>30486</title>
<g id="a_node64"><a xlink:title="Day_0">
<ellipse fill="#20ff05" stroke="black" cx="439.434" cy="-1640.92" rx="32.4942" ry="18"/>
<text text-anchor="middle" x="439.434" y="-1637.22" font-family="Times,serif" font-size="14.00">30486</text>
</a>
</g>
</g>
<!-- 5314&#45;&gt;30486 -->
<g id="edge51" class="edge"><title>5314&#45;&gt;30486</title>
<path fill="none" stroke="black" d="M373.651,-1744C388.166,-1721.25 413.816,-1681.06 428.429,-1658.16"/>
</g>
<!-- 6151 -->
<g id="node15" class="node"><title>6151</title>
<g id="a_node15"><a xlink:title="Day_0">
<ellipse fill="grey" stroke="black" cx="662.867" cy="-1421.11" rx="28.6953" ry="18"/>
<text text-anchor="middle" x="662.867" y="-1417.41" font-family="Times,serif" font-size="14.00">6151</text>
</a>
</g>
</g>
<!-- 10190 -->
<g id="node21" class="node"><title>10190</title>
<g id="a_node21"><a xlink:title="Day_0">
<ellipse fill="#20ff05" stroke="black" cx="669.013" cy="-1287.48" rx="32.4942" ry="18"/>
<text text-anchor="middle" x="669.013" y="-1283.78" font-family="Times,serif" font-size="14.00">10190</text>
</a>
</g>
</g>
<!-- 6151&#45;&gt;10190 -->
<g id="edge45" class="edge"><title>6151&#45;&gt;10190</title>
<path fill="none" stroke="black" d="M663.696,-1403.09C664.869,-1377.58 667.001,-1331.22 668.178,-1305.64"/>
</g>
<!-- 6281 -->
<g id="node16" class="node"><title>6281</title>
<g id="a_node16"><a xlink:title="Day_0">
<ellipse fill="#20ff05" stroke="black" cx="28.339" cy="-758.519" rx="28.6953" ry="18"/>
<text text-anchor="middle" x="28.339" y="-754.819" font-family="Times,serif" font-size="14.00">6281</text>
</a>
</g>
</g>
<!-- 12328 -->
<g id="node28" class="node"><title>12328</title>
<g id="a_node28"><a xlink:title="Day_0">
<ellipse fill="#20ff05" stroke="black" cx="169.338" cy="-738.525" rx="32.4942" ry="18"/>
<text text-anchor="middle" x="169.338" y="-734.825" font-family="Times,serif" font-size="14.00">12328</text>
</a>
</g>
</g>
<!-- 6281&#45;&gt;12328 -->
<g id="edge64" class="edge"><title>6281&#45;&gt;12328</title>
<path fill="none" stroke="black" d="M56.5335,-754.521C80.0003,-751.193 113.391,-746.458 137.753,-743.004"/>
</g>
<!-- 6449 -->
<g id="node17" class="node"><title>6449</title>
<g id="a_node17"><a xlink:title="Day_0">
<ellipse fill="#20ff05" stroke="black" cx="1893.65" cy="-18.1413" rx="28.6953" ry="18"/>
<text text-anchor="middle" x="1893.65" y="-14.4413" font-family="Times,serif" font-size="14.00">6449</text>
</a>
</g>
</g>
<!-- 6449&#45;&gt;13104 -->
<g id="edge3" class="edge"><title>6449&#45;&gt;13104</title>
<path fill="none" stroke="black" d="M1877.81,-33.3462C1857.64,-52.7168 1822.96,-86.0224 1802.59,-105.583"/>
</g>
<!-- 7694 -->
<g id="node19" class="node"><title>7694</title>
<g id="a_node19"><a xlink:title="Day_0">
<ellipse fill="#20ff05" stroke="black" cx="1065.44" cy="-1392.05" rx="28.6953" ry="18"/>
<text text-anchor="middle" x="1065.44" y="-1388.35" font-family="Times,serif" font-size="14.00">7694</text>
</a>
</g>
</g>
<!-- 25970 -->
<g id="node57" class="node"><title>25970</title>
<g id="a_node57"><a xlink:title="3rd_week,Day_0">
<ellipse fill="#20ff05" stroke="black" cx="1038.1" cy="-1272.66" rx="32.4945" ry="18"/>
<ellipse fill="none" stroke="black" cx="1038.1" cy="-1272.66" rx="36.4942" ry="22"/>
<text text-anchor="middle" x="1038.1" y="-1268.96" font-family="Times,serif" font-size="14.00">25970</text>
</a>
</g>
</g>
<!-- 7694&#45;&gt;25970 -->
<g id="edge2" class="edge"><title>7694&#45;&gt;25970</title>
<path fill="none" stroke="black" d="M1061.34,-1374.18C1056.49,-1352.97 1048.39,-1317.61 1043.15,-1294.72"/>
</g>
<!-- 10005 -->
<g id="node20" class="node"><title>10005</title>
<g id="a_node20"><a xlink:title="Day_0">
<ellipse fill="#20ff05" stroke="black" cx="365.281" cy="-1391.87" rx="32.4942" ry="18"/>
<text text-anchor="middle" x="365.281" y="-1388.17" font-family="Times,serif" font-size="14.00">10005</text>
</a>
</g>
</g>
<!-- 23108 -->
<g id="node51" class="node"><title>23108</title>
<g id="a_node51"><a xlink:title="Day_0">
<ellipse fill="#20ff05" stroke="black" cx="512.454" cy="-1336.7" rx="32.4942" ry="18"/>
<text text-anchor="middle" x="512.454" y="-1333" font-family="Times,serif" font-size="14.00">23108</text>
</a>
</g>
</g>
<!-- 10005&#45;&gt;23108 -->
<g id="edge15" class="edge"><title>10005&#45;&gt;23108</title>
<path fill="none" stroke="black" d="M392.275,-1381.75C418.747,-1371.83 458.885,-1356.78 485.383,-1346.85"/>
</g>
<!-- 10190&#45;&gt;10606 -->
<g id="edge48" class="edge"><title>10190&#45;&gt;10606</title>
<path fill="none" stroke="black" d="M681.819,-1270.55C712.091,-1230.53 787.959,-1130.24 820.513,-1087.2"/>
</g>
<!-- 10190&#45;&gt;23108 -->
<g id="edge11" class="edge"><title>10190&#45;&gt;23108</title>
<path fill="none" stroke="black" d="M640.661,-1296.39C612.376,-1305.29 569.163,-1318.87 540.859,-1327.77"/>
</g>
<!-- 23470 -->
<g id="node53" class="node"><title>23470</title>
<g id="a_node53"><a xlink:title="3rd_week">
<ellipse fill="#20ff05" stroke="black" cx="578.09" cy="-1383.56" rx="32.4942" ry="18"/>
<text text-anchor="middle" x="578.09" y="-1379.86" font-family="Times,serif" font-size="14.00">23470</text>
</a>
</g>
</g>
<!-- 10190&#45;&gt;23470 -->
<g id="edge50" class="edge"><title>10190&#45;&gt;23470</title>
<path fill="none" stroke="black" d="M653.589,-1303.78C636.768,-1321.55 610.017,-1349.82 593.286,-1367.5"/>
</g>
<!-- 10190&#45;&gt;25974 -->
<g id="edge28" class="edge"><title>10190&#45;&gt;25974</title>
<path fill="none" stroke="black" d="M659.072,-1304.93C637.815,-1342.24 588.153,-1429.42 566.916,-1466.69"/>
</g>
<!-- 10244 -->
<g id="node22" class="node"><title>10244</title>
<g id="a_node22"><a xlink:title="Day_0">
<ellipse fill="#ffffff" stroke="black" cx="595.621" cy="-952.071" rx="32.4942" ry="18"/>
<text text-anchor="middle" x="595.621" y="-948.371" font-family="Times,serif" font-size="14.00">10244</text>
</a>
</g>
</g>
<!-- 10244&#45;&gt;10606 -->
<g id="edge8" class="edge"><title>10244&#45;&gt;10606</title>
<path fill="none" stroke="black" d="M620.413,-963.945C665.227,-985.408 759.465,-1030.54 807.009,-1053.31"/>
</g>
<!-- 10244&#45;&gt;23511 -->
<g id="edge38" class="edge"><title>10244&#45;&gt;23511</title>
<path fill="none" stroke="black" d="M571.545,-939.678C530.257,-918.427 446.176,-875.149 402.429,-852.632"/>
</g>
<!-- 10545 -->
<g id="node23" class="node"><title>10545</title>
<g id="a_node23"><a xlink:title="Day_0">
<ellipse fill="#20ff05" stroke="black" cx="254.828" cy="-781.454" rx="32.4942" ry="18"/>
<text text-anchor="middle" x="254.828" y="-777.754" font-family="Times,serif" font-size="14.00">10545</text>
</a>
</g>
</g>
<!-- 10545&#45;&gt;23511 -->
<g id="edge55" class="edge"><title>10545&#45;&gt;23511</title>
<path fill="none" stroke="black" d="M279.641,-793.232C298.823,-802.338 325.419,-814.962 345.582,-824.533"/>
</g>
<!-- 11375 -->
<g id="node26" class="node"><title>11375</title>
<g id="a_node26"><a xlink:title="Day_0">
<ellipse fill="#20ff05" stroke="black" cx="964.86" cy="-1103.73" rx="32.4942" ry="18"/>
<text text-anchor="middle" x="964.86" y="-1100.03" font-family="Times,serif" font-size="14.00">11375</text>
</a>
</g>
</g>
<!-- 10606&#45;&gt;11375 -->
<g id="edge47" class="edge"><title>10606&#45;&gt;11375</title>
<path fill="none" stroke="black" d="M868.99,-1076.51C889.614,-1082.37 915.861,-1089.82 935.676,-1095.44"/>
</g>
<!-- 13792 -->
<g id="node31" class="node"><title>13792</title>
<g id="a_node31"><a xlink:title="Day_0">
<ellipse fill="#20ff05" stroke="black" cx="702.818" cy="-1135.15" rx="32.4942" ry="18"/>
<text text-anchor="middle" x="702.818" y="-1131.45" font-family="Times,serif" font-size="14.00">13792</text>
</a>
</g>
</g>
<!-- 10606&#45;&gt;13792 -->
<g id="edge19" class="edge"><title>10606&#45;&gt;13792</title>
<path fill="none" stroke="black" d="M807.874,-1081.34C783.97,-1093.59 749.873,-1111.05 727.075,-1122.72"/>
</g>
<!-- 15345 -->
<g id="node32" class="node"><title>15345</title>
<g id="a_node32"><a xlink:title="Day_0">
<ellipse fill="#20ff05" stroke="black" cx="913.662" cy="-1174.11" rx="32.4942" ry="18"/>
<text text-anchor="middle" x="913.662" y="-1170.41" font-family="Times,serif" font-size="14.00">15345</text>
</a>
</g>
</g>
<!-- 10606&#45;&gt;15345 -->
<g id="edge20" class="edge"><title>10606&#45;&gt;15345</title>
<path fill="none" stroke="black" d="M850.578,-1087.46C865.327,-1107.72 887.679,-1138.42 901.437,-1157.32"/>
</g>
<!-- 16084 -->
<g id="node33" class="node"><title>16084</title>
<g id="a_node33"><a xlink:title="Day_0">
<ellipse fill="#20ff05" stroke="black" cx="833.151" cy="-1209.22" rx="32.4942" ry="18"/>
<text text-anchor="middle" x="833.151" y="-1205.52" font-family="Times,serif" font-size="14.00">16084</text>
</a>
</g>
</g>
<!-- 10606&#45;&gt;16084 -->
<g id="edge40" class="edge"><title>10606&#45;&gt;16084</title>
<path fill="none" stroke="black" d="M835.334,-1089.28C834.822,-1117.39 833.951,-1165.27 833.479,-1191.22"/>
</g>
<!-- 19641 -->
<g id="node42" class="node"><title>19641</title>
<g id="a_node42"><a xlink:title="Day_0">
<ellipse fill="#20ff05" stroke="black" cx="925.416" cy="-965.138" rx="32.4942" ry="18"/>
<text text-anchor="middle" x="925.416" y="-961.438" font-family="Times,serif" font-size="14.00">19641</text>
</a>
</g>
</g>
<!-- 10606&#45;&gt;19641 -->
<g id="edge29" class="edge"><title>10606&#45;&gt;19641</title>
<path fill="none" stroke="black" d="M853.029,-1047.42C869.927,-1028.21 895.347,-999.317 911.132,-981.374"/>
</g>
<!-- 21154 -->
<g id="node45" class="node"><title>21154</title>
<g id="a_node45"><a xlink:title="Day_0">
<ellipse fill="#20ff05" stroke="black" cx="804.149" cy="-884.311" rx="32.4942" ry="18"/>
<text text-anchor="middle" x="804.149" y="-880.611" font-family="Times,serif" font-size="14.00">21154</text>
</a>
</g>
</g>
<!-- 10606&#45;&gt;21154 -->
<g id="edge7" class="edge"><title>10606&#45;&gt;21154</title>
<path fill="none" stroke="black" d="M831.928,-1045.03C825.61,-1008.48 813.086,-936.02 807.262,-902.324"/>
</g>
<!-- 22396 -->
<g id="node48" class="node"><title>22396</title>
<g id="a_node48"><a xlink:title="Day_0">
<ellipse fill="grey" stroke="black" cx="967.479" cy="-1031.39" rx="32.4942" ry="18"/>
<text text-anchor="middle" x="967.479" y="-1027.69" font-family="Times,serif" font-size="14.00">22396</text>
</a>
</g>
</g>
<!-- 10606&#45;&gt;22396 -->
<g id="edge66" class="edge"><title>10606&#45;&gt;22396</title>
<path fill="none" stroke="black" d="M869.323,-1057.98C890.516,-1052.24 917.633,-1044.89 937.992,-1039.38"/>
</g>
<!-- 10606&#45;&gt;25970 -->
<g id="edge16" class="edge"><title>10606&#45;&gt;25970</title>
<path fill="none" stroke="black" d="M854.414,-1086.05C892.965,-1125.21 980.961,-1214.61 1019.47,-1253.73"/>
</g>
<!-- 29517 -->
<g id="node61" class="node"><title>29517</title>
<g id="a_node61"><a xlink:title="Day_0">
<ellipse fill="#20ff05" stroke="black" cx="683.943" cy="-1072.57" rx="32.4942" ry="18"/>
<text text-anchor="middle" x="683.943" y="-1068.87" font-family="Times,serif" font-size="14.00">29517</text>
</a>
</g>
</g>
<!-- 10606&#45;&gt;29517 -->
<g id="edge60" class="edge"><title>10606&#45;&gt;29517</title>
<path fill="none" stroke="black" d="M798.993,-1068.41C773.81,-1069.32 740.71,-1070.52 716.48,-1071.4"/>
</g>
<!-- 29724 -->
<g id="node62" class="node"><title>29724</title>
<g id="a_node62"><a xlink:title="Day_0">
<ellipse fill="#20ff05" stroke="black" cx="705.434" cy="-1004.79" rx="32.4942" ry="18"/>
<text text-anchor="middle" x="705.434" y="-1001.09" font-family="Times,serif" font-size="14.00">29724</text>
</a>
</g>
</g>
<!-- 10606&#45;&gt;29724 -->
<g id="edge31" class="edge"><title>10606&#45;&gt;29724</title>
<path fill="none" stroke="black" d="M806.82,-1053.25C783.876,-1042.28 752.143,-1027.12 730.322,-1016.69"/>
</g>
<!-- 27326 -->
<g id="node68" class="node"><title>27326</title>
<g id="a_node68"><a xlink:title="Day_0">
<ellipse fill="#ffffff" stroke="black" cx="756.506" cy="-1186.19" rx="32.4942" ry="18"/>
<text text-anchor="middle" x="756.506" y="-1182.49" font-family="Times,serif" font-size="14.00">27326</text>
</a>
</g>
</g>
<!-- 10606&#45;&gt;27326 -->
<g id="edge26" class="edge"><title>10606&#45;&gt;27326</title>
<path fill="none" stroke="black" d="M822.118,-1087.55C806.809,-1110.57 782.227,-1147.52 767.897,-1169.07"/>
</g>
<!-- 10931 -->
<g id="node25" class="node"><title>10931</title>
<g id="a_node25"><a xlink:title="Day_0">
<ellipse fill="#20ff05" stroke="black" cx="1269.52" cy="-573.658" rx="32.4942" ry="18"/>
<text text-anchor="middle" x="1269.52" y="-569.958" font-family="Times,serif" font-size="14.00">10931</text>
</a>
</g>
</g>
<!-- 10931&#45;&gt;26382 -->
<g id="edge27" class="edge"><title>10931&#45;&gt;26382</title>
<path fill="none" stroke="black" d="M1258.67,-591.115C1245.64,-612.105 1223.89,-647.116 1210.89,-668.052"/>
</g>
<!-- 11642 -->
<g id="node27" class="node"><title>11642</title>
<g id="a_node27"><a xlink:title="Day_0">
<ellipse fill="#20ff05" stroke="black" cx="980.238" cy="-1413.62" rx="32.4942" ry="18"/>
<text text-anchor="middle" x="980.238" y="-1409.92" font-family="Times,serif" font-size="14.00">11642</text>
</a>
</g>
</g>
<!-- 11642&#45;&gt;25970 -->
<g id="edge41" class="edge"><title>11642&#45;&gt;25970</title>
<path fill="none" stroke="black" d="M987.449,-1396.06C998.053,-1370.22 1017.83,-1322.05 1029.28,-1294.14"/>
</g>
<!-- 12857 -->
<g id="node29" class="node"><title>12857</title>
<g id="a_node29"><a xlink:title="Day_0">
<ellipse fill="#20ff05" stroke="black" cx="110.415" cy="-605.651" rx="32.4942" ry="18"/>
<text text-anchor="middle" x="110.415" y="-601.951" font-family="Times,serif" font-size="14.00">12857</text>
</a>
</g>
</g>
<!-- 12328&#45;&gt;12857 -->
<g id="edge1" class="edge"><title>12328&#45;&gt;12857</title>
<path fill="none" stroke="black" d="M161.514,-720.88C150.244,-695.466 129.56,-648.823 118.272,-623.369"/>
</g>
<!-- 16758 -->
<g id="node35" class="node"><title>16758</title>
<g id="a_node35"><a xlink:title="Day_0">
<ellipse fill="#20ff05" stroke="black" cx="48.7904" cy="-653.551" rx="32.4942" ry="18"/>
<text text-anchor="middle" x="48.7904" y="-649.851" font-family="Times,serif" font-size="14.00">16758</text>
</a>
</g>
</g>
<!-- 12328&#45;&gt;16758 -->
<g id="edge39" class="edge"><title>12328&#45;&gt;16758</title>
<path fill="none" stroke="black" d="M149.161,-724.302C126.909,-708.616 91.312,-683.524 69.0333,-667.82"/>
</g>
<!-- 12328&#45;&gt;23511 -->
<g id="edge61" class="edge"><title>12328&#45;&gt;23511</title>
<path fill="none" stroke="black" d="M194.095,-750.56C232.371,-769.166 305.705,-804.816 346.116,-824.46"/>
</g>
<!-- 5602 -->
<g id="node66" class="node"><title>5602</title>
<g id="a_node66"><a xlink:title="Day_0">
<ellipse fill="grey" stroke="black" cx="30.8746" cy="-701.695" rx="28.6953" ry="18"/>
<text text-anchor="middle" x="30.8746" y="-697.995" font-family="Times,serif" font-size="14.00">5602</text>
</a>
</g>
</g>
<!-- 12328&#45;&gt;5602 -->
<g id="edge53" class="edge"><title>12328&#45;&gt;5602</title>
<path fill="none" stroke="black" d="M139.974,-730.714C115.523,-724.21 81.0094,-715.03 57.3875,-708.747"/>
</g>
<!-- 16387 -->
<g id="node34" class="node"><title>16387</title>
<g id="a_node34"><a xlink:title="3rd_week">
<ellipse fill="#20ff05" stroke="black" cx="784.149" cy="-743.173" rx="32.4942" ry="18"/>
<text text-anchor="middle" x="784.149" y="-739.473" font-family="Times,serif" font-size="14.00">16387</text>
</a>
</g>
</g>
<!-- 16387&#45;&gt;21154 -->
<g id="edge9" class="edge"><title>16387&#45;&gt;21154</title>
<path fill="none" stroke="black" d="M786.723,-761.335C790.563,-788.436 797.751,-839.159 801.585,-866.218"/>
</g>
<!-- 17288 -->
<g id="node36" class="node"><title>17288</title>
<g id="a_node36"><a xlink:title="Day_0">
<ellipse fill="#20ff05" stroke="black" cx="423.697" cy="-1568.64" rx="32.4942" ry="18"/>
<text text-anchor="middle" x="423.697" y="-1564.94" font-family="Times,serif" font-size="14.00">17288</text>
</a>
</g>
</g>
<!-- 17288&#45;&gt;25974 -->
<g id="edge35" class="edge"><title>17288&#45;&gt;25974</title>
<path fill="none" stroke="black" d="M445.114,-1555.06C469.842,-1539.38 510.299,-1513.72 535.191,-1497.93"/>
</g>
<!-- 17319 -->
<g id="node37" class="node"><title>17319</title>
<g id="a_node37"><a xlink:title="3rd_week">
<ellipse fill="#20ff05" stroke="black" cx="1365.76" cy="-522.618" rx="32.4942" ry="18"/>
<text text-anchor="middle" x="1365.76" y="-518.918" font-family="Times,serif" font-size="14.00">17319</text>
</a>
</g>
</g>
<!-- 17319&#45;&gt;21478 -->
<g id="edge33" class="edge"><title>17319&#45;&gt;21478</title>
<path fill="none" stroke="black" d="M1381.46,-506.651C1410.66,-476.934 1473.24,-413.263 1504.64,-381.317"/>
</g>
<!-- 17319&#45;&gt;26382 -->
<g id="edge24" class="edge"><title>17319&#45;&gt;26382</title>
<path fill="none" stroke="black" d="M1349.58,-538.521C1317.83,-569.719 1247.73,-638.602 1216.13,-669.658"/>
</g>
<!-- 18080 -->
<g id="node38" class="node"><title>18080</title>
<g id="a_node38"><a xlink:title="Day_0">
<ellipse fill="#20ff05" stroke="black" cx="1140.7" cy="-1444.34" rx="32.4942" ry="18"/>
<text text-anchor="middle" x="1140.7" y="-1440.64" font-family="Times,serif" font-size="14.00">18080</text>
</a>
</g>
</g>
<!-- 20583 -->
<g id="node43" class="node"><title>20583</title>
<g id="a_node43"><a xlink:title="Day_0">
<ellipse fill="#20ff05" stroke="black" cx="1213.92" cy="-1576.2" rx="32.4942" ry="18"/>
<text text-anchor="middle" x="1213.92" y="-1572.5" font-family="Times,serif" font-size="14.00">20583</text>
</a>
</g>
</g>
<!-- 18080&#45;&gt;20583 -->
<g id="edge49" class="edge"><title>18080&#45;&gt;20583</title>
<path fill="none" stroke="black" d="M1150.27,-1461.58C1164.3,-1486.85 1190.31,-1533.68 1204.34,-1558.96"/>
</g>
<!-- 18080&#45;&gt;25970 -->
<g id="edge13" class="edge"><title>18080&#45;&gt;25970</title>
<path fill="none" stroke="black" d="M1130.49,-1427.25C1111.53,-1395.53 1070.97,-1327.66 1050.49,-1293.38"/>
</g>
<!-- 18149 -->
<g id="node39" class="node"><title>18149</title>
<g id="a_node39"><a xlink:title="Day_0">
<ellipse fill="#20ff05" stroke="black" cx="220.943" cy="-849.048" rx="32.4942" ry="18"/>
<text text-anchor="middle" x="220.943" y="-845.348" font-family="Times,serif" font-size="14.00">18149</text>
</a>
</g>
</g>
<!-- 18149&#45;&gt;23511 -->
<g id="edge4" class="edge"><title>18149&#45;&gt;23511</title>
<path fill="none" stroke="black" d="M253.525,-846.768C278.365,-845.03 312.566,-842.637 338.28,-840.838"/>
</g>
<!-- 18429 -->
<g id="node40" class="node"><title>18429</title>
<g id="a_node40"><a xlink:title="Day_0">
<ellipse fill="grey" stroke="black" cx="1200.53" cy="-1283.46" rx="32.4942" ry="18"/>
<text text-anchor="middle" x="1200.53" y="-1279.76" font-family="Times,serif" font-size="14.00">18429</text>
</a>
</g>
</g>
<!-- 18429&#45;&gt;25970 -->
<g id="edge52" class="edge"><title>18429&#45;&gt;25970</title>
<path fill="none" stroke="black" d="M1168.05,-1281.3C1141.02,-1279.5 1102.55,-1276.94 1074.49,-1275.08"/>
</g>
<!-- 19434&#45;&gt;25970 -->
<g id="edge23" class="edge"><title>19434&#45;&gt;25970</title>
<path fill="none" stroke="black" d="M1206.28,-1336.62C1170.32,-1322.94 1107.06,-1298.89 1069.22,-1284.49"/>
</g>
<!-- 21095 -->
<g id="node44" class="node"><title>21095</title>
<g id="a_node44"><a xlink:title="Day_0">
<ellipse fill="grey" stroke="black" cx="1151.75" cy="-1338.69" rx="32.4942" ry="18"/>
<text text-anchor="middle" x="1151.75" y="-1334.99" font-family="Times,serif" font-size="14.00">21095</text>
</a>
</g>
</g>
<!-- 21095&#45;&gt;25970 -->
<g id="edge56" class="edge"><title>21095&#45;&gt;25970</title>
<path fill="none" stroke="black" d="M1129.29,-1325.64C1110.66,-1314.82 1084.14,-1299.41 1064.5,-1287.99"/>
</g>
<!-- 21455 -->
<g id="node46" class="node"><title>21455</title>
<g id="a_node46"><a xlink:title="Day_0">
<ellipse fill="#20ff05" stroke="black" cx="282.161" cy="-715.926" rx="32.4942" ry="18"/>
<text text-anchor="middle" x="282.161" y="-712.226" font-family="Times,serif" font-size="14.00">21455</text>
</a>
</g>
</g>
<!-- 21455&#45;&gt;23511 -->
<g id="edge67" class="edge"><title>21455&#45;&gt;23511</title>
<path fill="none" stroke="black" d="M294.817,-732.685C311.626,-754.94 341.284,-794.211 359.314,-818.084"/>
</g>
<!-- 22797 -->
<g id="node49" class="node"><title>22797</title>
<g id="a_node49"><a xlink:title="Day_0">
<ellipse fill="#20ff05" stroke="black" cx="1471.27" cy="-226.642" rx="32.4942" ry="18"/>
<text text-anchor="middle" x="1471.27" y="-222.942" font-family="Times,serif" font-size="14.00">22797</text>
</a>
</g>
</g>
<!-- 21478&#45;&gt;22797 -->
<g id="edge14" class="edge"><title>21478&#45;&gt;22797</title>
<path fill="none" stroke="black" d="M1515.16,-340.728C1504.94,-314.149 1487.71,-269.376 1478.17,-244.559"/>
</g>
<!-- 22811 -->
<g id="node50" class="node"><title>22811</title>
<g id="a_node50"><a xlink:title="Day_0">
<ellipse fill="#20ff05" stroke="black" cx="1670.53" cy="-396.885" rx="32.4942" ry="18"/>
<text text-anchor="middle" x="1670.53" y="-393.185" font-family="Times,serif" font-size="14.00">22811</text>
</a>
</g>
</g>
<!-- 21478&#45;&gt;22811 -->
<g id="edge6" class="edge"><title>21478&#45;&gt;22811</title>
<path fill="none" stroke="black" d="M1557.54,-370.252C1582.67,-376.174 1616.5,-384.15 1640.58,-389.826"/>
</g>
<!-- 23259 -->
<g id="node52" class="node"><title>23259</title>
<g id="a_node52"><a xlink:title="Day_0">
<ellipse fill="#20ff05" stroke="black" cx="1151.49" cy="-1392.17" rx="32.4942" ry="18"/>
<text text-anchor="middle" x="1151.49" y="-1388.47" font-family="Times,serif" font-size="14.00">23259</text>
</a>
</g>
</g>
<!-- 23259&#45;&gt;25970 -->
<g id="edge21" class="edge"><title>23259&#45;&gt;25970</title>
<path fill="none" stroke="black" d="M1136.2,-1376.05C1115.53,-1354.26 1078.7,-1315.45 1056.53,-1292.08"/>
</g>
<!-- 25960 -->
<g id="node56" class="node"><title>25960</title>
<g id="a_node56"><a xlink:title="Day_0">
<ellipse fill="#20ff05" stroke="black" cx="239.491" cy="-911.866" rx="32.4942" ry="18"/>
<text text-anchor="middle" x="239.491" y="-908.166" font-family="Times,serif" font-size="14.00">25960</text>
</a>
</g>
</g>
<!-- 23511&#45;&gt;25960 -->
<g id="edge37" class="edge"><title>23511&#45;&gt;25960</title>
<path fill="none" stroke="black" d="M347.243,-853.185C322.418,-866.705 286.2,-886.429 262.738,-899.206"/>
</g>
<!-- 25135 -->
<g id="node55" class="node"><title>25135</title>
<g id="a_node55"><a xlink:title="Day_0">
<ellipse fill="#20ff05" stroke="black" cx="1056.37" cy="-1442.73" rx="32.4942" ry="18"/>
<text text-anchor="middle" x="1056.37" y="-1439.03" font-family="Times,serif" font-size="14.00">25135</text>
</a>
</g>
</g>
<!-- 25135&#45;&gt;25970 -->
<g id="edge62" class="edge"><title>25135&#45;&gt;25970</title>
<path fill="none" stroke="black" d="M1054.41,-1424.53C1051.03,-1393.08 1044.12,-1328.69 1040.47,-1294.73"/>
</g>
<!-- 30143 -->
<g id="node67" class="node"><title>30143</title>
<g id="a_node67"><a xlink:title="Day_0">
<ellipse fill="#ffffff" stroke="black" cx="1189.28" cy="-1225.98" rx="32.4942" ry="18"/>
<text text-anchor="middle" x="1189.28" y="-1222.28" font-family="Times,serif" font-size="14.00">30143</text>
</a>
</g>
</g>
<!-- 25970&#45;&gt;30143 -->
<g id="edge12" class="edge"><title>25970&#45;&gt;30143</title>
<path fill="none" stroke="black" d="M1070.91,-1262.53C1097.65,-1254.27 1135.06,-1242.72 1160.62,-1234.83"/>
</g>
<!-- 25974&#45;&gt;30486 -->
<g id="edge42" class="edge"><title>25974&#45;&gt;30486</title>
<path fill="none" stroke="black" d="M544.416,-1500.88C521.788,-1531.07 474.487,-1594.16 451.925,-1624.26"/>
</g>
</g>
</svg>
