<?xml version="1.0" encoding="UTF-8" standalone="no"?>
<!DOCTYPE svg PUBLIC "-//W3C//DTD SVG 1.1//EN"
 "http://www.w3.org/Graphics/SVG/1.1/DTD/svg11.dtd">
<!-- Generated by graphviz version 2.38.0 (20140413.2041)
 -->
<!-- Title: %3 Pages: 1 -->
<svg width="1104pt" height="1359pt"
 viewBox="0.00 0.00 1104.00 1359.00" xmlns="http://www.w3.org/2000/svg" xmlns:xlink="http://www.w3.org/1999/xlink">
<g id="graph0" class="graph" transform="scale(1 1) rotate(0) translate(4 1355)">
<title>%3</title>
<polygon fill="white" stroke="none" points="-4,4 -4,-1355 1100,-1355 1100,4 -4,4"/>
<!-- 691 -->
<g id="node1" class="node"><title>691</title>
<g id="a_node1"><a xlink:title="PRE">
<ellipse fill="grey" stroke="black" cx="27.4215" cy="-838.977" rx="27" ry="18"/>
<text text-anchor="middle" x="27.4215" y="-835.277" font-family="Times,serif" font-size="14.00">691</text>
</a>
</g>
</g>
<!-- 21171 -->
<g id="node4" class="node"><title>21171</title>
<g id="a_node4"><a xlink:title="PRE">
<ellipse fill="grey" stroke="black" cx="146.401" cy="-764.297" rx="32.4942" ry="18"/>
<text text-anchor="middle" x="146.401" y="-760.597" font-family="Times,serif" font-size="14.00">21171</text>
</a>
</g>
</g>
<!-- 691&#45;&gt;21171 -->
<g id="edge49" class="edge"><title>691&#45;&gt;21171</title>
<path fill="none" stroke="black" d="M47.336,-826.477C68.7697,-813.024 102.747,-791.697 124.81,-777.849"/>
</g>
<!-- 11472 -->
<g id="node2" class="node"><title>11472</title>
<g id="a_node2"><a xlink:title="PRE">
<ellipse fill="#20ff05" stroke="black" cx="274.351" cy="-653.292" rx="32.4942" ry="18"/>
<text text-anchor="middle" x="274.351" y="-649.592" font-family="Times,serif" font-size="14.00">11472</text>
</a>
</g>
</g>
<!-- 11472&#45;&gt;21171 -->
<g id="edge33" class="edge"><title>11472&#45;&gt;21171</title>
<path fill="none" stroke="black" d="M256.828,-668.494C232.463,-689.633 188.594,-727.692 164.123,-748.922"/>
</g>
<!-- 26538 -->
<g id="node5" class="node"><title>26538</title>
<g id="a_node5"><a xlink:title="PRE">
<ellipse fill="#20ff05" stroke="black" cx="389.302" cy="-518.099" rx="32.4942" ry="18"/>
<text text-anchor="middle" x="389.302" y="-514.399" font-family="Times,serif" font-size="14.00">26538</text>
</a>
</g>
</g>
<!-- 11472&#45;&gt;26538 -->
<g id="edge14" class="edge"><title>11472&#45;&gt;26538</title>
<path fill="none" stroke="black" d="M288.217,-636.985C310.311,-611 353.262,-560.485 375.387,-534.464"/>
</g>
<!-- 13566 -->
<g id="node3" class="node"><title>13566</title>
<g id="a_node3"><a xlink:title="PRE">
<ellipse fill="#20ff05" stroke="black" cx="331.094" cy="-408.341" rx="32.4942" ry="18"/>
<text text-anchor="middle" x="331.094" y="-404.641" font-family="Times,serif" font-size="14.00">13566</text>
</a>
</g>
</g>
<!-- 13566&#45;&gt;26538 -->
<g id="edge52" class="edge"><title>13566&#45;&gt;26538</title>
<path fill="none" stroke="black" d="M340.446,-425.976C351.308,-446.458 369.121,-480.045 379.973,-500.508"/>
</g>
<!-- 26965 -->
<g id="node6" class="node"><title>26965</title>
<g id="a_node6"><a xlink:title="PRE">
<ellipse fill="#20ff05" stroke="black" cx="311.625" cy="-359.495" rx="32.4942" ry="18"/>
<text text-anchor="middle" x="311.625" y="-355.795" font-family="Times,serif" font-size="14.00">26965</text>
</a>
</g>
</g>
<!-- 26538&#45;&gt;26965 -->
<g id="edge8" class="edge"><title>26538&#45;&gt;26965</title>
<path fill="none" stroke="black" d="M380.692,-500.519C365.761,-470.032 335.231,-407.695 320.273,-377.153"/>
</g>
<!-- 28765 -->
<g id="node7" class="node"><title>28765</title>
<g id="a_node7"><a xlink:title="PRE">
<ellipse fill="#20ff05" stroke="black" cx="224.916" cy="-514.943" rx="32.4942" ry="18"/>
<text text-anchor="middle" x="224.916" y="-511.243" font-family="Times,serif" font-size="14.00">28765</text>
</a>
</g>
</g>
<!-- 26538&#45;&gt;28765 -->
<g id="edge17" class="edge"><title>26538&#45;&gt;28765</title>
<path fill="none" stroke="black" d="M356.431,-517.468C327.666,-516.916 286.113,-516.118 257.449,-515.568"/>
</g>
<!-- 9884 -->
<g id="node10" class="node"><title>9884</title>
<g id="a_node10"><a xlink:title="PRE">
<ellipse fill="#20ff05" stroke="black" cx="601.182" cy="-548.937" rx="28.6953" ry="18"/>
<text text-anchor="middle" x="601.182" y="-545.237" font-family="Times,serif" font-size="14.00">9884</text>
</a>
</g>
</g>
<!-- 26538&#45;&gt;9884 -->
<g id="edge29" class="edge"><title>26538&#45;&gt;9884</title>
<path fill="none" stroke="black" d="M421.023,-522.715C462.352,-528.731 533.966,-539.154 573.307,-544.88"/>
</g>
<!-- 12979 -->
<g id="node11" class="node"><title>12979</title>
<g id="a_node11"><a xlink:title="PRE">
<ellipse fill="grey" stroke="black" cx="230.844" cy="-459.299" rx="32.4942" ry="18"/>
<text text-anchor="middle" x="230.844" y="-455.599" font-family="Times,serif" font-size="14.00">12979</text>
</a>
</g>
</g>
<!-- 26538&#45;&gt;12979 -->
<g id="edge37" class="edge"><title>26538&#45;&gt;12979</title>
<path fill="none" stroke="black" d="M362.062,-507.991C332.95,-497.188 287.071,-480.163 257.993,-469.373"/>
</g>
<!-- 25814 -->
<g id="node12" class="node"><title>25814</title>
<g id="a_node12"><a xlink:title="PRE">
<ellipse fill="#ffffff" stroke="black" cx="238.714" cy="-410.285" rx="32.4942" ry="18"/>
<text text-anchor="middle" x="238.714" y="-406.585" font-family="Times,serif" font-size="14.00">25814</text>
</a>
</g>
</g>
<!-- 26538&#45;&gt;25814 -->
<g id="edge31" class="edge"><title>26538&#45;&gt;25814</title>
<path fill="none" stroke="black" d="M369.305,-503.782C340.503,-483.161 287.642,-445.315 258.794,-424.661"/>
</g>
<!-- 8455 -->
<g id="node8" class="node"><title>8455</title>
<g id="a_node8"><a xlink:title="PRE">
<ellipse fill="#20ff05" stroke="black" cx="628.542" cy="-777.503" rx="28.6953" ry="18"/>
<text text-anchor="middle" x="628.542" y="-773.803" font-family="Times,serif" font-size="14.00">8455</text>
</a>
</g>
</g>
<!-- 8455&#45;&gt;9884 -->
<g id="edge32" class="edge"><title>8455&#45;&gt;9884</title>
<path fill="none" stroke="black" d="M626.35,-759.184C621.214,-716.281 608.456,-609.699 603.348,-567.025"/>
</g>
<!-- 30690 -->
<g id="node49" class="node"><title>30690</title>
<g id="a_node49"><a xlink:title="PRE">
<ellipse fill="#20ff05" stroke="black" cx="656.398" cy="-981.205" rx="32.4942" ry="18"/>
<text text-anchor="middle" x="656.398" y="-977.505" font-family="Times,serif" font-size="14.00">30690</text>
</a>
</g>
</g>
<!-- 8455&#45;&gt;30690 -->
<g id="edge6" class="edge"><title>8455&#45;&gt;30690</title>
<path fill="none" stroke="black" d="M631.014,-795.58C636.3,-834.236 648.65,-924.548 653.931,-963.168"/>
</g>
<!-- 9081 -->
<g id="node9" class="node"><title>9081</title>
<g id="a_node9"><a xlink:title="PRE">
<ellipse fill="#20ff05" stroke="black" cx="671.605" cy="-28.241" rx="28.6953" ry="18"/>
<text text-anchor="middle" x="671.605" y="-24.541" font-family="Times,serif" font-size="14.00">9081</text>
</a>
</g>
</g>
<!-- 10544 -->
<g id="node15" class="node"><title>10544</title>
<g id="a_node15"><a xlink:title="PRE">
<ellipse fill="#20ff05" stroke="black" cx="714.969" cy="-165.426" rx="32.4942" ry="18"/>
<text text-anchor="middle" x="714.969" y="-161.726" font-family="Times,serif" font-size="14.00">10544</text>
</a>
</g>
</g>
<!-- 9081&#45;&gt;10544 -->
<g id="edge46" class="edge"><title>9081&#45;&gt;10544</title>
<path fill="none" stroke="black" d="M677.274,-46.1755C685.585,-72.4668 700.987,-121.193 709.298,-147.487"/>
</g>
<!-- 9385 -->
<g id="node14" class="node"><title>9385</title>
<g id="a_node14"><a xlink:title="PRE">
<ellipse fill="#20ff05" stroke="black" cx="738.551" cy="-353.247" rx="28.6953" ry="18"/>
<text text-anchor="middle" x="738.551" y="-349.547" font-family="Times,serif" font-size="14.00">9385</text>
</a>
</g>
</g>
<!-- 9884&#45;&gt;9385 -->
<g id="edge42" class="edge"><title>9884&#45;&gt;9385</title>
<path fill="none" stroke="black" d="M612.894,-532.252C638.847,-495.281 700.944,-406.821 726.869,-369.889"/>
</g>
<!-- 3842 -->
<g id="node21" class="node"><title>3842</title>
<g id="a_node21"><a xlink:title="PRE">
<ellipse fill="#20ff05" stroke="black" cx="666.959" cy="-696.359" rx="28.6953" ry="18"/>
<text text-anchor="middle" x="666.959" y="-692.659" font-family="Times,serif" font-size="14.00">3842</text>
</a>
</g>
</g>
<!-- 9884&#45;&gt;3842 -->
<g id="edge35" class="edge"><title>9884&#45;&gt;3842</title>
<path fill="none" stroke="black" d="M608.986,-566.427C621.645,-594.8 646.513,-650.534 659.166,-678.892"/>
</g>
<!-- 4626 -->
<g id="node23" class="node"><title>4626</title>
<g id="a_node23"><a xlink:title="PRE">
<ellipse fill="#20ff05" stroke="black" cx="532.526" cy="-405.651" rx="28.6953" ry="18"/>
<text text-anchor="middle" x="532.526" y="-401.951" font-family="Times,serif" font-size="14.00">4626</text>
</a>
</g>
</g>
<!-- 9884&#45;&gt;4626 -->
<g id="edge40" class="edge"><title>9884&#45;&gt;4626</title>
<path fill="none" stroke="black" d="M592.901,-531.653C579.705,-504.113 554.051,-450.575 540.837,-422.996"/>
</g>
<!-- 17570 -->
<g id="node33" class="node"><title>17570</title>
<g id="a_node33"><a xlink:title="PRE">
<ellipse fill="#20ff05" stroke="black" cx="789.249" cy="-549.118" rx="32.4942" ry="18"/>
<text text-anchor="middle" x="789.249" y="-545.418" font-family="Times,serif" font-size="14.00">17570</text>
</a>
</g>
</g>
<!-- 9884&#45;&gt;17570 -->
<g id="edge2" class="edge"><title>9884&#45;&gt;17570</title>
<path fill="none" stroke="black" d="M630.156,-548.965C664.261,-548.997 720.761,-549.052 756.446,-549.086"/>
</g>
<!-- 19169 -->
<g id="node35" class="node"><title>19169</title>
<g id="a_node35"><a xlink:title="PRE">
<ellipse fill="#20ff05" stroke="black" cx="541.227" cy="-701.155" rx="32.4942" ry="18"/>
<text text-anchor="middle" x="541.227" y="-697.455" font-family="Times,serif" font-size="14.00">19169</text>
</a>
</g>
</g>
<!-- 9884&#45;&gt;19169 -->
<g id="edge44" class="edge"><title>9884&#45;&gt;19169</title>
<path fill="none" stroke="black" d="M594.187,-566.696C582.635,-596.027 559.701,-654.252 548.178,-683.509"/>
</g>
<!-- 20517 -->
<g id="node38" class="node"><title>20517</title>
<g id="a_node38"><a xlink:title="PRE">
<ellipse fill="#20ff05" stroke="black" cx="665.986" cy="-405.518" rx="32.4942" ry="18"/>
<text text-anchor="middle" x="665.986" y="-401.818" font-family="Times,serif" font-size="14.00">20517</text>
</a>
</g>
</g>
<!-- 9884&#45;&gt;20517 -->
<g id="edge23" class="edge"><title>9884&#45;&gt;20517</title>
<path fill="none" stroke="black" d="M609.128,-531.351C621.566,-503.825 645.497,-450.862 657.974,-423.248"/>
</g>
<!-- 25724 -->
<g id="node42" class="node"><title>25724</title>
<g id="a_node42"><a xlink:title="PRE">
<ellipse fill="#20ff05" stroke="black" cx="768.659" cy="-661.711" rx="32.4942" ry="18"/>
<text text-anchor="middle" x="768.659" y="-658.011" font-family="Times,serif" font-size="14.00">25724</text>
</a>
</g>
</g>
<!-- 9884&#45;&gt;25724 -->
<g id="edge48" class="edge"><title>9884&#45;&gt;25724</title>
<path fill="none" stroke="black" d="M620.722,-562.094C652.561,-583.534 715.348,-625.813 747.936,-647.757"/>
</g>
<!-- 26338 -->
<g id="node43" class="node"><title>26338</title>
<g id="a_node43"><a xlink:title="PRE">
<ellipse fill="#20ff05" stroke="black" cx="403.248" cy="-620.076" rx="32.4942" ry="18"/>
<text text-anchor="middle" x="403.248" y="-616.376" font-family="Times,serif" font-size="14.00">26338</text>
</a>
</g>
</g>
<!-- 9884&#45;&gt;26338 -->
<g id="edge18" class="edge"><title>9884&#45;&gt;26338</title>
<path fill="none" stroke="black" d="M576.114,-557.946C538.872,-571.331 469.195,-596.374 430.649,-610.228"/>
</g>
<!-- 8733 -->
<g id="node13" class="node"><title>8733</title>
<g id="a_node13"><a xlink:title="PRE">
<ellipse fill="#20ff05" stroke="black" cx="919.989" cy="-212.968" rx="28.6953" ry="18"/>
<text text-anchor="middle" x="919.989" y="-209.268" font-family="Times,serif" font-size="14.00">8733</text>
</a>
</g>
</g>
<!-- 8733&#45;&gt;9385 -->
<g id="edge39" class="edge"><title>8733&#45;&gt;9385</title>
<path fill="none" stroke="black" d="M901.929,-226.931C867.24,-253.751 791.65,-312.194 756.808,-339.132"/>
</g>
<!-- 3733 -->
<g id="node20" class="node"><title>3733</title>
<g id="a_node20"><a xlink:title="PRE">
<ellipse fill="#20ff05" stroke="black" cx="1041.9" cy="-209.799" rx="28.6953" ry="18"/>
<text text-anchor="middle" x="1041.9" y="-206.099" font-family="Times,serif" font-size="14.00">3733</text>
</a>
</g>
</g>
<!-- 8733&#45;&gt;3733 -->
<g id="edge24" class="edge"><title>8733&#45;&gt;3733</title>
<path fill="none" stroke="black" d="M948.571,-212.225C967.994,-211.72 993.596,-211.055 1013.07,-210.548"/>
</g>
<!-- 4294 -->
<g id="node22" class="node"><title>4294</title>
<g id="a_node22"><a xlink:title="PRE">
<ellipse fill="#20ff05" stroke="black" cx="1000.64" cy="-140.914" rx="28.6953" ry="18"/>
<text text-anchor="middle" x="1000.64" y="-137.214" font-family="Times,serif" font-size="14.00">4294</text>
</a>
</g>
</g>
<!-- 8733&#45;&gt;4294 -->
<g id="edge3" class="edge"><title>8733&#45;&gt;4294</title>
<path fill="none" stroke="black" d="M936.699,-198.038C950.541,-185.672 970.113,-168.185 983.949,-155.824"/>
</g>
<!-- 8130 -->
<g id="node26" class="node"><title>8130</title>
<g id="a_node26"><a xlink:title="PRE">
<ellipse fill="#20ff05" stroke="black" cx="918.797" cy="-77.8541" rx="28.6953" ry="18"/>
<text text-anchor="middle" x="918.797" y="-74.1541" font-family="Times,serif" font-size="14.00">8130</text>
</a>
</g>
</g>
<!-- 8733&#45;&gt;8130 -->
<g id="edge34" class="edge"><title>8733&#45;&gt;8130</title>
<path fill="none" stroke="black" d="M919.828,-194.746C919.601,-168.958 919.187,-122.084 918.959,-96.219"/>
</g>
<!-- 15984 -->
<g id="node30" class="node"><title>15984</title>
<g id="a_node30"><a xlink:title="PRE">
<ellipse fill="#20ff05" stroke="black" cx="1006.95" cy="-83.499" rx="32.4942" ry="18"/>
<text text-anchor="middle" x="1006.95" y="-79.799" font-family="Times,serif" font-size="14.00">15984</text>
</a>
</g>
</g>
<!-- 8733&#45;&gt;15984 -->
<g id="edge13" class="edge"><title>8733&#45;&gt;15984</title>
<path fill="none" stroke="black" d="M931.18,-196.307C947.787,-171.584 978.79,-125.429 995.53,-100.507"/>
</g>
<!-- 19528 -->
<g id="node36" class="node"><title>19528</title>
<g id="a_node36"><a xlink:title="PRE">
<ellipse fill="#ffffff" stroke="black" cx="1063.66" cy="-256.013" rx="32.4942" ry="18"/>
<text text-anchor="middle" x="1063.66" y="-252.313" font-family="Times,serif" font-size="14.00">19528</text>
</a>
</g>
</g>
<!-- 8733&#45;&gt;19528 -->
<g id="edge28" class="edge"><title>8733&#45;&gt;19528</title>
<path fill="none" stroke="black" d="M946.007,-220.763C971.074,-228.274 1008.92,-239.612 1034.88,-247.389"/>
</g>
<!-- 9385&#45;&gt;10544 -->
<g id="edge25" class="edge"><title>9385&#45;&gt;10544</title>
<path fill="none" stroke="black" d="M736.29,-335.238C731.794,-299.429 721.776,-219.645 717.258,-183.656"/>
</g>
<!-- 24061 -->
<g id="node41" class="node"><title>24061</title>
<g id="a_node41"><a xlink:title="PRE">
<ellipse fill="#20ff05" stroke="black" cx="789.711" cy="-229.831" rx="32.4942" ry="18"/>
<text text-anchor="middle" x="789.711" y="-226.131" font-family="Times,serif" font-size="14.00">24061</text>
</a>
</g>
</g>
<!-- 9385&#45;&gt;24061 -->
<g id="edge22" class="edge"><title>9385&#45;&gt;24061</title>
<path fill="none" stroke="black" d="M745.773,-335.826C755.468,-312.438 772.6,-271.109 782.361,-247.563"/>
</g>
<!-- 14787 -->
<g id="node29" class="node"><title>14787</title>
<g id="a_node29"><a xlink:title="PRE">
<ellipse fill="#20ff05" stroke="black" cx="764.62" cy="-18.2682" rx="32.4942" ry="18"/>
<text text-anchor="middle" x="764.62" y="-14.5682" font-family="Times,serif" font-size="14.00">14787</text>
</a>
</g>
</g>
<!-- 10544&#45;&gt;14787 -->
<g id="edge47" class="edge"><title>10544&#45;&gt;14787</title>
<path fill="none" stroke="black" d="M720.958,-147.675C730.501,-119.391 749.053,-64.4057 758.61,-36.0818"/>
</g>
<!-- 807 -->
<g id="node16" class="node"><title>807</title>
<g id="a_node16"><a xlink:title="PRE">
<ellipse fill="#20ff05" stroke="black" cx="885.523" cy="-735.57" rx="27" ry="18"/>
<text text-anchor="middle" x="885.523" y="-731.87" font-family="Times,serif" font-size="14.00">807</text>
</a>
</g>
</g>
<!-- 807&#45;&gt;25724 -->
<g id="edge4" class="edge"><title>807&#45;&gt;25724</title>
<path fill="none" stroke="black" d="M865.698,-723.041C844.73,-709.789 811.754,-688.948 790.168,-675.305"/>
</g>
<!-- 1265 -->
<g id="node17" class="node"><title>1265</title>
<g id="a_node17"><a xlink:title="PRE">
<ellipse fill="#20ff05" stroke="black" cx="769.503" cy="-276.861" rx="28.6953" ry="18"/>
<text text-anchor="middle" x="769.503" y="-273.161" font-family="Times,serif" font-size="14.00">1265</text>
</a>
</g>
</g>
<!-- 1265&#45;&gt;20517 -->
<g id="edge50" class="edge"><title>1265&#45;&gt;20517</title>
<path fill="none" stroke="black" d="M756.393,-293.155C736.59,-317.768 699.249,-364.176 679.317,-388.949"/>
</g>
<!-- 24277 -->
<g id="node50" class="node"><title>24277</title>
<g id="a_node50"><a xlink:title="PRE">
<ellipse fill="grey" stroke="black" cx="836.841" cy="-151.609" rx="32.4942" ry="18"/>
<text text-anchor="middle" x="836.841" y="-147.909" font-family="Times,serif" font-size="14.00">24277</text>
</a>
</g>
</g>
<!-- 1265&#45;&gt;24277 -->
<g id="edge41" class="edge"><title>1265&#45;&gt;24277</title>
<path fill="none" stroke="black" d="M778.725,-259.708C791.548,-235.856 814.636,-192.912 827.515,-168.957"/>
</g>
<!-- 1418 -->
<g id="node18" class="node"><title>1418</title>
<g id="a_node18"><a xlink:title="PRE">
<ellipse fill="#20ff05" stroke="black" cx="625.964" cy="-263.229" rx="28.6953" ry="18"/>
<text text-anchor="middle" x="625.964" y="-259.529" font-family="Times,serif" font-size="14.00">1418</text>
</a>
</g>
</g>
<!-- 1418&#45;&gt;20517 -->
<g id="edge20" class="edge"><title>1418&#45;&gt;20517</title>
<path fill="none" stroke="black" d="M630.952,-280.962C638.621,-308.229 653.228,-360.161 660.935,-387.561"/>
</g>
<!-- 1862 -->
<g id="node19" class="node"><title>1862</title>
<g id="a_node19"><a xlink:title="PRE">
<ellipse fill="#20ff05" stroke="black" cx="203.418" cy="-651.275" rx="28.6953" ry="18"/>
<text text-anchor="middle" x="203.418" y="-647.575" font-family="Times,serif" font-size="14.00">1862</text>
</a>
</g>
</g>
<!-- 16908 -->
<g id="node32" class="node"><title>16908</title>
<g id="a_node32"><a xlink:title="PRE">
<ellipse fill="#20ff05" stroke="black" cx="58.0473" cy="-621.285" rx="32.4942" ry="18"/>
<text text-anchor="middle" x="58.0473" y="-617.585" font-family="Times,serif" font-size="14.00">16908</text>
</a>
</g>
</g>
<!-- 1862&#45;&gt;16908 -->
<g id="edge43" class="edge"><title>1862&#45;&gt;16908</title>
<path fill="none" stroke="black" d="M176.075,-645.634C151.154,-640.493 114.393,-632.909 88.5341,-627.575"/>
</g>
<!-- 22689 -->
<g id="node39" class="node"><title>22689</title>
<g id="a_node39"><a xlink:title="PRE">
<ellipse fill="grey" stroke="black" cx="64.2646" cy="-690.757" rx="32.4942" ry="18"/>
<text text-anchor="middle" x="64.2646" y="-687.057" font-family="Times,serif" font-size="14.00">22689</text>
</a>
</g>
</g>
<!-- 1862&#45;&gt;22689 -->
<g id="edge19" class="edge"><title>1862&#45;&gt;22689</title>
<path fill="none" stroke="black" d="M177.244,-658.701C153.31,-665.492 117.968,-675.519 93.2028,-682.546"/>
</g>
<!-- 1862&#45;&gt;26338 -->
<g id="edge38" class="edge"><title>1862&#45;&gt;26338</title>
<path fill="none" stroke="black" d="M231.203,-646.937C268.094,-641.177 333.077,-631.032 371.749,-624.994"/>
</g>
<!-- 27040 -->
<g id="node44" class="node"><title>27040</title>
<g id="a_node44"><a xlink:title="PRE">
<ellipse fill="#ffffff" stroke="black" cx="716.522" cy="-821.522" rx="32.4942" ry="18"/>
<text text-anchor="middle" x="716.522" y="-817.822" font-family="Times,serif" font-size="14.00">27040</text>
</a>
</g>
</g>
<!-- 3842&#45;&gt;27040 -->
<g id="edge51" class="edge"><title>3842&#45;&gt;27040</title>
<path fill="none" stroke="black" d="M673.955,-714.027C683.348,-737.746 699.945,-779.66 709.401,-803.539"/>
</g>
<!-- 14501 -->
<g id="node28" class="node"><title>14501</title>
<g id="a_node28"><a xlink:title="PRE">
<ellipse fill="#20ff05" stroke="black" cx="430.006" cy="-290.729" rx="32.4942" ry="18"/>
<text text-anchor="middle" x="430.006" y="-287.029" font-family="Times,serif" font-size="14.00">14501</text>
</a>
</g>
</g>
<!-- 4626&#45;&gt;14501 -->
<g id="edge1" class="edge"><title>4626&#45;&gt;14501</title>
<path fill="none" stroke="black" d="M518.271,-389.671C498.794,-367.839 464.056,-328.898 444.47,-306.943"/>
</g>
<!-- 28741 -->
<g id="node46" class="node"><title>28741</title>
<g id="a_node46"><a xlink:title="PRE">
<ellipse fill="grey" stroke="black" cx="510.885" cy="-255.262" rx="32.4942" ry="18"/>
<text text-anchor="middle" x="510.885" y="-251.562" font-family="Times,serif" font-size="14.00">28741</text>
</a>
</g>
</g>
<!-- 4626&#45;&gt;28741 -->
<g id="edge12" class="edge"><title>4626&#45;&gt;28741</title>
<path fill="none" stroke="black" d="M529.916,-387.511C525.756,-358.605 517.67,-302.413 513.505,-273.467"/>
</g>
<!-- 4773 -->
<g id="node24" class="node"><title>4773</title>
<g id="a_node24"><a xlink:title="PRE">
<ellipse fill="#20ff05" stroke="black" cx="707.821" cy="-1333.25" rx="28.6953" ry="18"/>
<text text-anchor="middle" x="707.821" y="-1329.55" font-family="Times,serif" font-size="14.00">4773</text>
</a>
</g>
</g>
<!-- 30403 -->
<g id="node48" class="node"><title>30403</title>
<g id="a_node48"><a xlink:title="PRE">
<ellipse fill="#20ff05" stroke="black" cx="682.061" cy="-1176.35" rx="32.4942" ry="18"/>
<text text-anchor="middle" x="682.061" y="-1172.65" font-family="Times,serif" font-size="14.00">30403</text>
</a>
</g>
</g>
<!-- 4773&#45;&gt;30403 -->
<g id="edge36" class="edge"><title>4773&#45;&gt;30403</title>
<path fill="none" stroke="black" d="M704.866,-1315.25C699.923,-1285.15 690.033,-1224.91 685.061,-1194.62"/>
</g>
<!-- 7285 -->
<g id="node25" class="node"><title>7285</title>
<g id="a_node25"><a xlink:title="PRE">
<ellipse fill="#ffffff" stroke="black" cx="331.477" cy="-757.566" rx="28.6953" ry="18"/>
<text text-anchor="middle" x="331.477" y="-753.866" font-family="Times,serif" font-size="14.00">7285</text>
</a>
</g>
</g>
<!-- 7285&#45;&gt;26338 -->
<g id="edge21" class="edge"><title>7285&#45;&gt;26338</title>
<path fill="none" stroke="black" d="M340.422,-740.431C354.175,-714.084 380.369,-663.904 394.19,-637.428"/>
</g>
<!-- 11396 -->
<g id="node27" class="node"><title>11396</title>
<g id="a_node27"><a xlink:title="PRE">
<ellipse fill="#20ff05" stroke="black" cx="930.762" cy="-579.765" rx="32.4942" ry="18"/>
<text text-anchor="middle" x="930.762" y="-576.065" font-family="Times,serif" font-size="14.00">11396</text>
</a>
</g>
</g>
<!-- 11396&#45;&gt;17570 -->
<g id="edge5" class="edge"><title>11396&#45;&gt;17570</title>
<path fill="none" stroke="black" d="M900.404,-573.19C876.528,-568.019 843.421,-560.85 819.557,-555.682"/>
</g>
<!-- 16627 -->
<g id="node31" class="node"><title>16627</title>
<g id="a_node31"><a xlink:title="PRE">
<ellipse fill="#20ff05" stroke="black" cx="816.604" cy="-793.94" rx="32.4942" ry="18"/>
<text text-anchor="middle" x="816.604" y="-790.24" font-family="Times,serif" font-size="14.00">16627</text>
</a>
</g>
</g>
<!-- 16627&#45;&gt;25724 -->
<g id="edge15" class="edge"><title>16627&#45;&gt;25724</title>
<path fill="none" stroke="black" d="M810.138,-776.107C800.988,-750.87 784.354,-704.997 775.176,-679.684"/>
</g>
<!-- 27941 -->
<g id="node45" class="node"><title>27941</title>
<g id="a_node45"><a xlink:title="PRE">
<ellipse fill="#07ffd1" stroke="black" cx="927.579" cy="-510.918" rx="32.4942" ry="18"/>
<text text-anchor="middle" x="927.579" y="-507.218" font-family="Times,serif" font-size="14.00">27941</text>
</a>
</g>
</g>
<!-- 17570&#45;&gt;27941 -->
<g id="edge9" class="edge"><title>17570&#45;&gt;27941</title>
<path fill="none" stroke="black" d="M818.586,-541.017C842.061,-534.534 874.822,-525.487 898.285,-519.008"/>
</g>
<!-- 17802 -->
<g id="node34" class="node"><title>17802</title>
<g id="a_node34"><a xlink:title="3rd_week">
<ellipse fill="#20ff05" stroke="black" cx="494.888" cy="-836.085" rx="32.4942" ry="18"/>
<text text-anchor="middle" x="494.888" y="-832.385" font-family="Times,serif" font-size="14.00">17802</text>
</a>
</g>
</g>
<!-- 17802&#45;&gt;19169 -->
<g id="edge26" class="edge"><title>17802&#45;&gt;19169</title>
<path fill="none" stroke="black" d="M501.041,-818.168C509.904,-792.36 526.171,-744.995 535.048,-719.147"/>
</g>
<!-- 20418 -->
<g id="node37" class="node"><title>20418</title>
<g id="a_node37"><a xlink:title="PRE">
<ellipse fill="#20ff05" stroke="black" cx="912.346" cy="-679.964" rx="32.4942" ry="18"/>
<text text-anchor="middle" x="912.346" y="-676.264" font-family="Times,serif" font-size="14.00">20418</text>
</a>
</g>
</g>
<!-- 20418&#45;&gt;25724 -->
<g id="edge27" class="edge"><title>20418&#45;&gt;25724</title>
<path fill="none" stroke="black" d="M880.458,-675.913C856.646,-672.888 824.249,-668.773 800.459,-665.751"/>
</g>
<!-- 23796 -->
<g id="node40" class="node"><title>23796</title>
<g id="a_node40"><a xlink:title="PRE">
<ellipse fill="grey" stroke="black" cx="275.524" cy="-594.935" rx="32.4942" ry="18"/>
<text text-anchor="middle" x="275.524" y="-591.235" font-family="Times,serif" font-size="14.00">23796</text>
</a>
</g>
</g>
<!-- 23796&#45;&gt;26338 -->
<g id="edge45" class="edge"><title>23796&#45;&gt;26338</title>
<path fill="none" stroke="black" d="M306.442,-601.021C326.524,-604.974 352.59,-610.105 372.614,-614.046"/>
</g>
<!-- 28742 -->
<g id="node47" class="node"><title>28742</title>
<g id="a_node47"><a xlink:title="PRE">
<ellipse fill="#20ff05" stroke="black" cx="562.701" cy="-1260.39" rx="32.4942" ry="18"/>
<text text-anchor="middle" x="562.701" y="-1256.69" font-family="Times,serif" font-size="14.00">28742</text>
</a>
</g>
</g>
<!-- 28742&#45;&gt;30403 -->
<g id="edge11" class="edge"><title>28742&#45;&gt;30403</title>
<path fill="none" stroke="black" d="M582.949,-1246.13C604.897,-1230.68 639.726,-1206.15 661.714,-1190.67"/>
</g>
<!-- 30403&#45;&gt;30690 -->
<g id="edge10" class="edge"><title>30403&#45;&gt;30690</title>
<path fill="none" stroke="black" d="M679.692,-1158.34C674.803,-1121.16 663.644,-1036.31 658.76,-999.17"/>
</g>
<!-- 1255 -->
<g id="node51" class="node"><title>1255</title>
<g id="a_node51"><a xlink:title="PRE">
<ellipse fill="#ffffff" stroke="black" cx="625.665" cy="-1318.67" rx="28.6953" ry="18"/>
<text text-anchor="middle" x="625.665" y="-1314.97" font-family="Times,serif" font-size="14.00">1255</text>
</a>
</g>
</g>
<!-- 30403&#45;&gt;1255 -->
<g id="edge16" class="edge"><title>30403&#45;&gt;1255</title>
<path fill="none" stroke="black" d="M675.032,-1194.08C664.166,-1221.51 643.417,-1273.87 632.605,-1301.16"/>
</g>
<!-- 25666 -->
<g id="node52" class="node"><title>25666</title>
<g id="a_node52"><a xlink:title="6th_week">
<ellipse fill="#20ff05" stroke="black" cx="826.236" cy="-1237.39" rx="32.4942" ry="18"/>
<text text-anchor="middle" x="826.236" y="-1233.69" font-family="Times,serif" font-size="14.00">25666</text>
</a>
</g>
</g>
<!-- 30403&#45;&gt;25666 -->
<g id="edge7" class="edge"><title>30403&#45;&gt;25666</title>
<path fill="none" stroke="black" d="M708.17,-1187.4C734.299,-1198.47 774.261,-1215.39 800.321,-1226.42"/>
</g>
<!-- 5035 -->
<g id="node53" class="node"><title>5035</title>
<g id="a_node53"><a xlink:title="PRE">
<ellipse fill="#07ffd1" stroke="black" cx="758.683" cy="-1287.19" rx="28.6953" ry="18"/>
<text text-anchor="middle" x="758.683" y="-1283.49" font-family="Times,serif" font-size="14.00">5035</text>
</a>
</g>
</g>
<!-- 30403&#45;&gt;5035 -->
<g id="edge30" class="edge"><title>30403&#45;&gt;5035</title>
<path fill="none" stroke="black" d="M693.698,-1193.18C708.183,-1214.14 732.768,-1249.7 747.187,-1270.56"/>
</g>
</g>
</svg>
