<?xml version="1.0" encoding="UTF-8" standalone="no"?>
<!DOCTYPE svg PUBLIC "-//W3C//DTD SVG 1.1//EN"
 "http://www.w3.org/Graphics/SVG/1.1/DTD/svg11.dtd">
<!-- Generated by graphviz version 2.38.0 (20140413.2041)
 -->
<!-- Title: %3 Pages: 1 -->
<svg width="1256pt" height="1538pt"
 viewBox="0.00 0.00 1256.00 1538.00" xmlns="http://www.w3.org/2000/svg" xmlns:xlink="http://www.w3.org/1999/xlink">
<g id="graph0" class="graph" transform="scale(1 1) rotate(0) translate(4 1534)">
<title>%3</title>
<polygon fill="white" stroke="none" points="-4,4 -4,-1534 1252,-1534 1252,4 -4,4"/>
<!-- 71 -->
<g id="node1" class="node"><title>71</title>
<g id="a_node1"><a xlink:title="6th_week">
<ellipse fill="#07ffd1" stroke="black" cx="119.899" cy="-636.36" rx="27" ry="18"/>
<text text-anchor="middle" x="119.899" y="-632.66" font-family="Times,serif" font-size="14.00">71</text>
</a>
</g>
</g>
<!-- 16360 -->
<g id="node29" class="node"><title>16360</title>
<g id="a_node29"><a xlink:title="6th_week">
<ellipse fill="#07ffd1" stroke="black" cx="258.395" cy="-779.595" rx="32.4942" ry="18"/>
<text text-anchor="middle" x="258.395" y="-775.895" font-family="Times,serif" font-size="14.00">16360</text>
</a>
</g>
</g>
<!-- 71&#45;&gt;16360 -->
<g id="edge54" class="edge"><title>71&#45;&gt;16360</title>
<path fill="none" stroke="black" d="M134.721,-651.689C161.098,-678.969 215.938,-735.685 242.836,-763.503"/>
</g>
<!-- 183 -->
<g id="node2" class="node"><title>183</title>
<g id="a_node2"><a xlink:title="6th_week">
<ellipse fill="#07ffd1" stroke="black" cx="1137.79" cy="-911.667" rx="27" ry="18"/>
<text text-anchor="middle" x="1137.79" y="-907.967" font-family="Times,serif" font-size="14.00">183</text>
</a>
</g>
</g>
<!-- 23925 -->
<g id="node46" class="node"><title>23925</title>
<g id="a_node46"><a xlink:title="3rd_week">
<ellipse fill="#07ffd1" stroke="black" cx="952.714" cy="-829.7" rx="32.4942" ry="18"/>
<text text-anchor="middle" x="952.714" y="-826" font-family="Times,serif" font-size="14.00">23925</text>
</a>
</g>
</g>
<!-- 183&#45;&gt;23925 -->
<g id="edge38" class="edge"><title>183&#45;&gt;23925</title>
<path fill="none" stroke="black" d="M1115.09,-901.616C1080.44,-886.269 1014.55,-857.087 978.266,-841.017"/>
</g>
<!-- 2040 -->
<g id="node3" class="node"><title>2040</title>
<g id="a_node3"><a xlink:title="6th_week">
<ellipse fill="#ffffff" stroke="black" cx="916.128" cy="-548.514" rx="28.6953" ry="18"/>
<text text-anchor="middle" x="916.128" y="-544.814" font-family="Times,serif" font-size="14.00">2040</text>
</a>
</g>
</g>
<!-- 24811 -->
<g id="node49" class="node"><title>24811</title>
<g id="a_node49"><a xlink:title="3rd_week,6th_week">
<ellipse fill="#07ffd1" stroke="black" cx="693.747" cy="-713.021" rx="32.4945" ry="18"/>
<ellipse fill="none" stroke="black" cx="693.747" cy="-713.021" rx="36.4942" ry="22"/>
<text text-anchor="middle" x="693.747" y="-709.321" font-family="Times,serif" font-size="14.00">24811</text>
</a>
</g>
</g>
<!-- 2040&#45;&gt;24811 -->
<g id="edge34" class="edge"><title>2040&#45;&gt;24811</title>
<path fill="none" stroke="black" d="M897.55,-562.257C857.152,-592.142 761.387,-662.984 717.035,-695.794"/>
</g>
<!-- 26987 -->
<g id="node52" class="node"><title>26987</title>
<g id="a_node52"><a xlink:title="6th_week">
<ellipse fill="#ffffff" stroke="black" cx="1078.9" cy="-422.36" rx="32.4942" ry="18"/>
<text text-anchor="middle" x="1078.9" y="-418.66" font-family="Times,serif" font-size="14.00">26987</text>
</a>
</g>
</g>
<!-- 2040&#45;&gt;26987 -->
<g id="edge5" class="edge"><title>2040&#45;&gt;26987</title>
<path fill="none" stroke="black" d="M934.169,-534.532C965.127,-510.539 1028.08,-461.745 1059.77,-437.185"/>
</g>
<!-- 2128 -->
<g id="node4" class="node"><title>2128</title>
<g id="a_node4"><a xlink:title="3rd_week">
<ellipse fill="#07ffd1" stroke="black" cx="862.092" cy="-845.539" rx="28.6953" ry="18"/>
<text text-anchor="middle" x="862.092" y="-841.839" font-family="Times,serif" font-size="14.00">2128</text>
</a>
</g>
</g>
<!-- 2128&#45;&gt;24811 -->
<g id="edge16" class="edge"><title>2128&#45;&gt;24811</title>
<path fill="none" stroke="black" d="M844.076,-831.357C813.116,-806.986 749.899,-757.223 716.151,-730.657"/>
</g>
<!-- 2245 -->
<g id="node5" class="node"><title>2245</title>
<g id="a_node5"><a xlink:title="3rd_week">
<ellipse fill="grey" stroke="black" cx="825.596" cy="-1249.3" rx="28.6953" ry="18"/>
<text text-anchor="middle" x="825.596" y="-1245.6" font-family="Times,serif" font-size="14.00">2245</text>
</a>
</g>
</g>
<!-- 11413 -->
<g id="node24" class="node"><title>11413</title>
<g id="a_node24"><a xlink:title="3rd_week">
<ellipse fill="#07ffd1" stroke="black" cx="824.8" cy="-1058.24" rx="32.4942" ry="18"/>
<text text-anchor="middle" x="824.8" y="-1054.54" font-family="Times,serif" font-size="14.00">11413</text>
</a>
</g>
</g>
<!-- 2245&#45;&gt;11413 -->
<g id="edge39" class="edge"><title>2245&#45;&gt;11413</title>
<path fill="none" stroke="black" d="M825.52,-1230.98C825.367,-1194.46 825.028,-1112.98 824.876,-1076.5"/>
</g>
<!-- 2406 -->
<g id="node6" class="node"><title>2406</title>
<g id="a_node6"><a xlink:title="3rd_week">
<ellipse fill="#07ffd1" stroke="black" cx="703.53" cy="-552.646" rx="28.6953" ry="18"/>
<text text-anchor="middle" x="703.53" y="-548.946" font-family="Times,serif" font-size="14.00">2406</text>
</a>
</g>
</g>
<!-- 2406&#45;&gt;24811 -->
<g id="edge52" class="edge"><title>2406&#45;&gt;24811</title>
<path fill="none" stroke="black" d="M702.427,-570.731C700.623,-600.304 697.048,-658.911 695.096,-690.909"/>
</g>
<!-- 2621 -->
<g id="node7" class="node"><title>2621</title>
<g id="a_node7"><a xlink:title="3rd_week">
<ellipse fill="#07ffd1" stroke="black" cx="1199.1" cy="-602.573" rx="28.6953" ry="18"/>
<text text-anchor="middle" x="1199.1" y="-598.873" font-family="Times,serif" font-size="14.00">2621</text>
</a>
</g>
</g>
<!-- 10469 -->
<g id="node22" class="node"><title>10469</title>
<g id="a_node22"><a xlink:title="6th_week">
<ellipse fill="#07ffd1" stroke="black" cx="1006.53" cy="-670.515" rx="32.4942" ry="18"/>
<text text-anchor="middle" x="1006.53" y="-666.815" font-family="Times,serif" font-size="14.00">10469</text>
</a>
</g>
</g>
<!-- 2621&#45;&gt;10469 -->
<g id="edge27" class="edge"><title>2621&#45;&gt;10469</title>
<path fill="none" stroke="black" d="M1173.92,-611.456C1137.84,-624.189 1071.63,-647.547 1034.21,-660.751"/>
</g>
<!-- 3213 -->
<g id="node8" class="node"><title>3213</title>
<g id="a_node8"><a xlink:title="6th_week">
<ellipse fill="grey" stroke="black" cx="943.579" cy="-289.601" rx="28.6953" ry="18"/>
<text text-anchor="middle" x="943.579" y="-285.901" font-family="Times,serif" font-size="14.00">3213</text>
</a>
</g>
</g>
<!-- 8122 -->
<g id="node18" class="node"><title>8122</title>
<g id="a_node18"><a xlink:title="3rd_week">
<ellipse fill="grey" stroke="black" cx="841.383" cy="-465.742" rx="28.6953" ry="18"/>
<text text-anchor="middle" x="841.383" y="-462.042" font-family="Times,serif" font-size="14.00">8122</text>
</a>
</g>
</g>
<!-- 3213&#45;&gt;8122 -->
<g id="edge2" class="edge"><title>3213&#45;&gt;8122</title>
<path fill="none" stroke="black" d="M933.594,-306.811C914.006,-340.571 870.757,-415.114 851.258,-448.721"/>
</g>
<!-- 3970 -->
<g id="node9" class="node"><title>3970</title>
<g id="a_node9"><a xlink:title="6th_week">
<ellipse fill="#07ffd1" stroke="black" cx="708.621" cy="-881.669" rx="28.6953" ry="18"/>
<text text-anchor="middle" x="708.621" y="-877.969" font-family="Times,serif" font-size="14.00">3970</text>
</a>
</g>
</g>
<!-- 3970&#45;&gt;24811 -->
<g id="edge6" class="edge"><title>3970&#45;&gt;24811</title>
<path fill="none" stroke="black" d="M707.029,-863.621C704.286,-832.52 698.678,-768.927 695.702,-735.188"/>
</g>
<!-- 4712 -->
<g id="node10" class="node"><title>4712</title>
<g id="a_node10"><a xlink:title="6th_week">
<ellipse fill="#07ffd1" stroke="black" cx="661.29" cy="-929.001" rx="28.6953" ry="18"/>
<text text-anchor="middle" x="661.29" y="-925.301" font-family="Times,serif" font-size="14.00">4712</text>
</a>
</g>
</g>
<!-- 4712&#45;&gt;24811 -->
<g id="edge53" class="edge"><title>4712&#45;&gt;24811</title>
<path fill="none" stroke="black" d="M664.001,-910.958C669.928,-871.519 684.019,-777.751 690.448,-734.974"/>
</g>
<!-- 4965 -->
<g id="node11" class="node"><title>4965</title>
<g id="a_node11"><a xlink:title="3rd_week">
<ellipse fill="#07ffd1" stroke="black" cx="487.002" cy="-758.421" rx="28.6953" ry="18"/>
<text text-anchor="middle" x="487.002" y="-754.721" font-family="Times,serif" font-size="14.00">4965</text>
</a>
</g>
</g>
<!-- 4965&#45;&gt;24811 -->
<g id="edge23" class="edge"><title>4965&#45;&gt;24811</title>
<path fill="none" stroke="black" d="M514.03,-752.486C551.245,-744.313 618.285,-729.592 659.128,-720.623"/>
</g>
<!-- 5787 -->
<g id="node12" class="node"><title>5787</title>
<g id="a_node12"><a xlink:title="6th_week">
<ellipse fill="#07ffd1" stroke="black" cx="171.531" cy="-959.141" rx="28.6953" ry="18"/>
<text text-anchor="middle" x="171.531" y="-955.441" font-family="Times,serif" font-size="14.00">5787</text>
</a>
</g>
</g>
<!-- 5787&#45;&gt;16360 -->
<g id="edge40" class="edge"><title>5787&#45;&gt;16360</title>
<path fill="none" stroke="black" d="M180.018,-941.598C196.624,-907.273 233.24,-831.591 249.874,-797.209"/>
</g>
<!-- 6105 -->
<g id="node13" class="node"><title>6105</title>
<g id="a_node13"><a xlink:title="3rd_week">
<ellipse fill="#ffffff" stroke="black" cx="601.446" cy="-525.246" rx="28.6953" ry="18"/>
<text text-anchor="middle" x="601.446" y="-521.546" font-family="Times,serif" font-size="14.00">6105</text>
</a>
</g>
</g>
<!-- 6105&#45;&gt;24811 -->
<g id="edge25" class="edge"><title>6105&#45;&gt;24811</title>
<path fill="none" stroke="black" d="M609.964,-542.575C626.923,-577.076 664.86,-654.253 683.294,-691.754"/>
</g>
<!-- 6493 -->
<g id="node14" class="node"><title>6493</title>
<g id="a_node14"><a xlink:title="6th_week">
<ellipse fill="#07ffd1" stroke="black" cx="110.399" cy="-727.694" rx="28.6953" ry="18"/>
<text text-anchor="middle" x="110.399" y="-723.994" font-family="Times,serif" font-size="14.00">6493</text>
</a>
</g>
</g>
<!-- 6493&#45;&gt;16360 -->
<g id="edge17" class="edge"><title>6493&#45;&gt;16360</title>
<path fill="none" stroke="black" d="M135.505,-736.498C161.977,-745.782 203.56,-760.365 230.901,-769.953"/>
</g>
<!-- 6811 -->
<g id="node15" class="node"><title>6811</title>
<g id="a_node15"><a xlink:title="3rd_week">
<ellipse fill="#07ffd1" stroke="black" cx="788.764" cy="-839.1" rx="28.6953" ry="18"/>
<text text-anchor="middle" x="788.764" y="-835.4" font-family="Times,serif" font-size="14.00">6811</text>
</a>
</g>
</g>
<!-- 6811&#45;&gt;24811 -->
<g id="edge13" class="edge"><title>6811&#45;&gt;24811</title>
<path fill="none" stroke="black" d="M776.342,-822.617C759.037,-799.656 727.701,-758.075 709,-733.26"/>
</g>
<!-- 6848 -->
<g id="node16" class="node"><title>6848</title>
<g id="a_node16"><a xlink:title="3rd_week">
<ellipse fill="grey" stroke="black" cx="494.685" cy="-207.211" rx="28.6953" ry="18"/>
<text text-anchor="middle" x="494.685" y="-203.511" font-family="Times,serif" font-size="14.00">6848</text>
</a>
</g>
</g>
<!-- 21175 -->
<g id="node40" class="node"><title>21175</title>
<g id="a_node40"><a xlink:title="3rd_week">
<ellipse fill="grey" stroke="black" cx="578.844" cy="-429.845" rx="32.4942" ry="18"/>
<text text-anchor="middle" x="578.844" y="-426.145" font-family="Times,serif" font-size="14.00">21175</text>
</a>
</g>
</g>
<!-- 6848&#45;&gt;21175 -->
<g id="edge41" class="edge"><title>6848&#45;&gt;21175</title>
<path fill="none" stroke="black" d="M501.429,-225.054C517.227,-266.843 556.471,-370.66 572.184,-412.227"/>
</g>
<!-- 26557 -->
<g id="node51" class="node"><title>26557</title>
<g id="a_node51"><a xlink:title="6th_week">
<ellipse fill="#20ff05" stroke="black" cx="427.843" cy="-18.3777" rx="32.4942" ry="18"/>
<text text-anchor="middle" x="427.843" y="-14.6777" font-family="Times,serif" font-size="14.00">26557</text>
</a>
</g>
</g>
<!-- 6848&#45;&gt;26557 -->
<g id="edge8" class="edge"><title>6848&#45;&gt;26557</title>
<path fill="none" stroke="black" d="M488.396,-189.446C475.657,-153.456 446.93,-72.2985 434.164,-36.233"/>
</g>
<!-- 7257 -->
<g id="node17" class="node"><title>7257</title>
<g id="a_node17"><a xlink:title="6th_week">
<ellipse fill="#07ffd1" stroke="black" cx="599.835" cy="-586.236" rx="28.6953" ry="18"/>
<text text-anchor="middle" x="599.835" y="-582.536" font-family="Times,serif" font-size="14.00">7257</text>
</a>
</g>
</g>
<!-- 7257&#45;&gt;24811 -->
<g id="edge37" class="edge"><title>7257&#45;&gt;24811</title>
<path fill="none" stroke="black" d="M611.92,-602.551C628.962,-625.558 660.042,-667.517 678.603,-692.576"/>
</g>
<!-- 8122&#45;&gt;24811 -->
<g id="edge45" class="edge"><title>8122&#45;&gt;24811</title>
<path fill="none" stroke="black" d="M831.235,-482.738C804.981,-526.712 734.877,-644.131 706.218,-692.133"/>
</g>
<!-- 8402 -->
<g id="node19" class="node"><title>8402</title>
<g id="a_node19"><a xlink:title="3rd_week">
<ellipse fill="#07ffd1" stroke="black" cx="515.963" cy="-620.364" rx="28.6953" ry="18"/>
<text text-anchor="middle" x="515.963" y="-616.664" font-family="Times,serif" font-size="14.00">8402</text>
</a>
</g>
</g>
<!-- 8402&#45;&gt;24811 -->
<g id="edge15" class="edge"><title>8402&#45;&gt;24811</title>
<path fill="none" stroke="black" d="M538.12,-631.911C570.512,-648.794 630.767,-680.197 666.044,-698.583"/>
</g>
<!-- 9398 -->
<g id="node20" class="node"><title>9398</title>
<g id="a_node20"><a xlink:title="3rd_week">
<ellipse fill="#07ffd1" stroke="black" cx="553.87" cy="-711.641" rx="28.6953" ry="18"/>
<text text-anchor="middle" x="553.87" y="-707.941" font-family="Times,serif" font-size="14.00">9398</text>
</a>
</g>
</g>
<!-- 9398&#45;&gt;24811 -->
<g id="edge28" class="edge"><title>9398&#45;&gt;24811</title>
<path fill="none" stroke="black" d="M582.514,-711.923C604.094,-712.136 633.847,-712.43 657.152,-712.66"/>
</g>
<!-- 9881 -->
<g id="node21" class="node"><title>9881</title>
<g id="a_node21"><a xlink:title="3rd_week">
<ellipse fill="#07ffd1" stroke="black" cx="611.673" cy="-856.735" rx="28.6953" ry="18"/>
<text text-anchor="middle" x="611.673" y="-853.035" font-family="Times,serif" font-size="14.00">9881</text>
</a>
</g>
</g>
<!-- 9881&#45;&gt;24811 -->
<g id="edge50" class="edge"><title>9881&#45;&gt;24811</title>
<path fill="none" stroke="black" d="M621.41,-839.685C636.442,-813.364 665.268,-762.889 681.627,-734.243"/>
</g>
<!-- 18441 -->
<g id="node37" class="node"><title>18441</title>
<g id="a_node37"><a xlink:title="3rd_week">
<ellipse fill="#07ffd1" stroke="black" cx="1215.59" cy="-682.712" rx="32.4942" ry="18"/>
<text text-anchor="middle" x="1215.59" y="-679.012" font-family="Times,serif" font-size="14.00">18441</text>
</a>
</g>
</g>
<!-- 10469&#45;&gt;18441 -->
<g id="edge20" class="edge"><title>10469&#45;&gt;18441</title>
<path fill="none" stroke="black" d="M1039.2,-672.421C1078.47,-674.712 1143.98,-678.534 1183.15,-680.819"/>
</g>
<!-- 10469&#45;&gt;24811 -->
<g id="edge36" class="edge"><title>10469&#45;&gt;24811</title>
<path fill="none" stroke="black" d="M974.821,-674.824C916.113,-682.802 790.889,-699.82 729.364,-708.181"/>
</g>
<!-- 10521 -->
<g id="node23" class="node"><title>10521</title>
<g id="a_node23"><a xlink:title="3rd_week">
<ellipse fill="grey" stroke="black" cx="877.642" cy="-782.133" rx="32.4942" ry="18"/>
<text text-anchor="middle" x="877.642" y="-778.433" font-family="Times,serif" font-size="14.00">10521</text>
</a>
</g>
</g>
<!-- 10521&#45;&gt;24811 -->
<g id="edge21" class="edge"><title>10521&#45;&gt;24811</title>
<path fill="none" stroke="black" d="M850.508,-771.935C817.038,-759.357 760.257,-738.017 724.998,-724.765"/>
</g>
<!-- 13499 -->
<g id="node27" class="node"><title>13499</title>
<g id="a_node27"><a xlink:title="6th_week">
<ellipse fill="grey" stroke="black" cx="950.46" cy="-1207.53" rx="32.4942" ry="18"/>
<text text-anchor="middle" x="950.46" y="-1203.83" font-family="Times,serif" font-size="14.00">13499</text>
</a>
</g>
</g>
<!-- 11413&#45;&gt;13499 -->
<g id="edge24" class="edge"><title>11413&#45;&gt;13499</title>
<path fill="none" stroke="black" d="M838.728,-1074.79C862.883,-1103.48 912.272,-1162.16 936.47,-1190.91"/>
</g>
<!-- 11413&#45;&gt;24811 -->
<g id="edge26" class="edge"><title>11413&#45;&gt;24811</title>
<path fill="none" stroke="black" d="M817.939,-1040.17C795.766,-981.758 726.089,-798.214 702.021,-734.815"/>
</g>
<!-- 31755 -->
<g id="node55" class="node"><title>31755</title>
<g id="a_node55"><a xlink:title="3rd_week">
<ellipse fill="#07ffd1" stroke="black" cx="923.587" cy="-1311.69" rx="32.4942" ry="18"/>
<text text-anchor="middle" x="923.587" y="-1307.99" font-family="Times,serif" font-size="14.00">31755</text>
</a>
</g>
</g>
<!-- 11413&#45;&gt;31755 -->
<g id="edge14" class="edge"><title>11413&#45;&gt;31755</title>
<path fill="none" stroke="black" d="M831.747,-1076.06C849.885,-1122.6 898.519,-1247.37 916.648,-1293.88"/>
</g>
<!-- 11846 -->
<g id="node25" class="node"><title>11846</title>
<g id="a_node25"><a xlink:title="6th_week">
<ellipse fill="#ffffff" stroke="black" cx="119.532" cy="-893.231" rx="32.4942" ry="18"/>
<text text-anchor="middle" x="119.532" y="-889.531" font-family="Times,serif" font-size="14.00">11846</text>
</a>
</g>
</g>
<!-- 11846&#45;&gt;16360 -->
<g id="edge12" class="edge"><title>11846&#45;&gt;16360</title>
<path fill="none" stroke="black" d="M137.972,-878.141C164.531,-856.407 213.277,-816.517 239.879,-794.747"/>
</g>
<!-- 13318 -->
<g id="node26" class="node"><title>13318</title>
<g id="a_node26"><a xlink:title="6th_week">
<ellipse fill="grey" stroke="black" cx="44.4833" cy="-857.488" rx="32.4942" ry="18"/>
<text text-anchor="middle" x="44.4833" y="-853.788" font-family="Times,serif" font-size="14.00">13318</text>
</a>
</g>
</g>
<!-- 13318&#45;&gt;16360 -->
<g id="edge43" class="edge"><title>13318&#45;&gt;16360</title>
<path fill="none" stroke="black" d="M72.0106,-847.464C113.084,-832.508 189.961,-804.514 230.974,-789.58"/>
</g>
<!-- 15211 -->
<g id="node28" class="node"><title>15211</title>
<g id="a_node28"><a xlink:title="6th_week">
<ellipse fill="#07ffd1" stroke="black" cx="51.2658" cy="-806.89" rx="32.4942" ry="18"/>
<text text-anchor="middle" x="51.2658" y="-803.19" font-family="Times,serif" font-size="14.00">15211</text>
</a>
</g>
</g>
<!-- 15211&#45;&gt;16360 -->
<g id="edge3" class="edge"><title>15211&#45;&gt;16360</title>
<path fill="none" stroke="black" d="M83.1758,-802.685C122.099,-797.555 187.509,-788.936 226.449,-783.805"/>
</g>
<!-- 18232 -->
<g id="node35" class="node"><title>18232</title>
<g id="a_node35"><a xlink:title="6th_week">
<ellipse fill="#ffffff" stroke="black" cx="51.0635" cy="-678.495" rx="32.4942" ry="18"/>
<text text-anchor="middle" x="51.0635" y="-674.795" font-family="Times,serif" font-size="14.00">18232</text>
</a>
</g>
</g>
<!-- 16360&#45;&gt;18232 -->
<g id="edge48" class="edge"><title>16360&#45;&gt;18232</title>
<path fill="none" stroke="black" d="M233.797,-767.6C193.895,-748.143 115.512,-709.922 75.6294,-690.474"/>
</g>
<!-- 22743 -->
<g id="node43" class="node"><title>22743</title>
<g id="a_node43"><a xlink:title="6th_week">
<ellipse fill="#07ffd1" stroke="black" cx="32.3914" cy="-754.174" rx="32.4942" ry="18"/>
<text text-anchor="middle" x="32.3914" y="-750.474" font-family="Times,serif" font-size="14.00">22743</text>
</a>
</g>
</g>
<!-- 16360&#45;&gt;22743 -->
<g id="edge35" class="edge"><title>16360&#45;&gt;22743</title>
<path fill="none" stroke="black" d="M226.494,-776.007C183.542,-771.175 107.551,-762.628 64.4957,-757.785"/>
</g>
<!-- 22832 -->
<g id="node45" class="node"><title>22832</title>
<g id="a_node45"><a xlink:title="6th_week">
<ellipse fill="grey" stroke="black" cx="95.2404" cy="-939.67" rx="32.4942" ry="18"/>
<text text-anchor="middle" x="95.2404" y="-935.97" font-family="Times,serif" font-size="14.00">22832</text>
</a>
</g>
</g>
<!-- 16360&#45;&gt;22832 -->
<g id="edge1" class="edge"><title>16360&#45;&gt;22832</title>
<path fill="none" stroke="black" d="M242.155,-795.529C210.881,-826.212 142.637,-893.168 111.415,-923.8"/>
</g>
<!-- 16360&#45;&gt;24811 -->
<g id="edge11" class="edge"><title>16360&#45;&gt;24811</title>
<path fill="none" stroke="black" d="M290.055,-774.753C369.203,-762.65 575.26,-731.14 658.299,-718.441"/>
</g>
<!-- 16823 -->
<g id="node30" class="node"><title>16823</title>
<g id="a_node30"><a xlink:title="3rd_week">
<ellipse fill="#07ffd1" stroke="black" cx="584.435" cy="-917.292" rx="32.4942" ry="18"/>
<text text-anchor="middle" x="584.435" y="-913.592" font-family="Times,serif" font-size="14.00">16823</text>
</a>
</g>
</g>
<!-- 16823&#45;&gt;24811 -->
<g id="edge9" class="edge"><title>16823&#45;&gt;24811</title>
<path fill="none" stroke="black" d="M593.755,-899.876C613.787,-862.441 660.882,-774.436 682.518,-734.005"/>
</g>
<!-- 16852 -->
<g id="node31" class="node"><title>16852</title>
<g id="a_node31"><a xlink:title="3rd_week">
<ellipse fill="grey" stroke="black" cx="518.32" cy="-812.617" rx="32.4942" ry="18"/>
<text text-anchor="middle" x="518.32" y="-808.917" font-family="Times,serif" font-size="14.00">16852</text>
</a>
</g>
</g>
<!-- 16852&#45;&gt;24811 -->
<g id="edge31" class="edge"><title>16852&#45;&gt;24811</title>
<path fill="none" stroke="black" d="M541.254,-799.596C573.667,-781.194 632.746,-747.653 667.077,-728.162"/>
</g>
<!-- 17090 -->
<g id="node32" class="node"><title>17090</title>
<g id="a_node32"><a xlink:title="3rd_week">
<ellipse fill="grey" stroke="black" cx="906.444" cy="-729.938" rx="32.4942" ry="18"/>
<text text-anchor="middle" x="906.444" y="-726.238" font-family="Times,serif" font-size="14.00">17090</text>
</a>
</g>
</g>
<!-- 17090&#45;&gt;24811 -->
<g id="edge47" class="edge"><title>17090&#45;&gt;24811</title>
<path fill="none" stroke="black" d="M874.14,-727.369C835.441,-724.291 770.773,-719.147 730.286,-715.927"/>
</g>
<!-- 17226 -->
<g id="node33" class="node"><title>17226</title>
<g id="a_node33"><a xlink:title="3rd_week">
<ellipse fill="#07ffd1" stroke="black" cx="530.541" cy="-561.195" rx="32.4942" ry="18"/>
<text text-anchor="middle" x="530.541" y="-557.495" font-family="Times,serif" font-size="14.00">17226</text>
</a>
</g>
</g>
<!-- 17226&#45;&gt;24811 -->
<g id="edge49" class="edge"><title>17226&#45;&gt;24811</title>
<path fill="none" stroke="black" d="M547.392,-576.872C577.689,-605.056 641.22,-664.157 673.699,-694.371"/>
</g>
<!-- 17616 -->
<g id="node34" class="node"><title>17616</title>
<g id="a_node34"><a xlink:title="6th_week">
<ellipse fill="#07ffd1" stroke="black" cx="809.016" cy="-904.298" rx="32.4942" ry="18"/>
<text text-anchor="middle" x="809.016" y="-900.598" font-family="Times,serif" font-size="14.00">17616</text>
</a>
</g>
</g>
<!-- 17616&#45;&gt;24811 -->
<g id="edge4" class="edge"><title>17616&#45;&gt;24811</title>
<path fill="none" stroke="black" d="M798.584,-886.986C777.358,-851.764 729.224,-771.891 706.316,-733.878"/>
</g>
<!-- 18393 -->
<g id="node36" class="node"><title>18393</title>
<g id="a_node36"><a xlink:title="3rd_week">
<ellipse fill="#07ffd1" stroke="black" cx="724.067" cy="-433.526" rx="32.4942" ry="18"/>
<text text-anchor="middle" x="724.067" y="-429.826" font-family="Times,serif" font-size="14.00">18393</text>
</a>
</g>
</g>
<!-- 18393&#45;&gt;24811 -->
<g id="edge55" class="edge"><title>18393&#45;&gt;24811</title>
<path fill="none" stroke="black" d="M722.077,-451.864C716.715,-501.292 701.976,-637.162 696.156,-690.812"/>
</g>
<!-- 31965 -->
<g id="node56" class="node"><title>31965</title>
<g id="a_node56"><a xlink:title="3rd_week">
<ellipse fill="#ffffff" stroke="black" cx="747.141" cy="-226.163" rx="32.4942" ry="18"/>
<text text-anchor="middle" x="747.141" y="-222.463" font-family="Times,serif" font-size="14.00">31965</text>
</a>
</g>
</g>
<!-- 18393&#45;&gt;31965 -->
<g id="edge18" class="edge"><title>18393&#45;&gt;31965</title>
<path fill="none" stroke="black" d="M726.074,-415.486C730.438,-376.269 740.747,-283.622 745.122,-244.308"/>
</g>
<!-- 18614 -->
<g id="node38" class="node"><title>18614</title>
<g id="a_node38"><a xlink:title="3rd_week">
<ellipse fill="#07ffd1" stroke="black" cx="1040.13" cy="-1478.25" rx="32.4942" ry="18"/>
<text text-anchor="middle" x="1040.13" y="-1474.55" font-family="Times,serif" font-size="14.00">18614</text>
</a>
</g>
</g>
<!-- 18614&#45;&gt;31755 -->
<g id="edge10" class="edge"><title>18614&#45;&gt;31755</title>
<path fill="none" stroke="black" d="M1028.31,-1461.36C1005.98,-1429.44 957.796,-1360.58 935.435,-1328.62"/>
</g>
<!-- 19336 -->
<g id="node39" class="node"><title>19336</title>
<g id="a_node39"><a xlink:title="3rd_week">
<ellipse fill="#ffffff" stroke="black" cx="870.242" cy="-619.138" rx="32.4942" ry="18"/>
<text text-anchor="middle" x="870.242" y="-615.438" font-family="Times,serif" font-size="14.00">19336</text>
</a>
</g>
</g>
<!-- 19336&#45;&gt;24811 -->
<g id="edge32" class="edge"><title>19336&#45;&gt;24811</title>
<path fill="none" stroke="black" d="M846.439,-631.799C813.883,-649.117 755.597,-680.121 721.225,-698.405"/>
</g>
<!-- 21175&#45;&gt;24811 -->
<g id="edge33" class="edge"><title>21175&#45;&gt;24811</title>
<path fill="none" stroke="black" d="M586.032,-447.559C606.175,-497.203 663.13,-637.566 685.024,-691.522"/>
</g>
<!-- 22227 -->
<g id="node41" class="node"><title>22227</title>
<g id="a_node41"><a xlink:title="3rd_week">
<ellipse fill="#07ffd1" stroke="black" cx="827.286" cy="-569.54" rx="32.4942" ry="18"/>
<text text-anchor="middle" x="827.286" y="-565.84" font-family="Times,serif" font-size="14.00">22227</text>
</a>
</g>
</g>
<!-- 22227&#45;&gt;24811 -->
<g id="edge42" class="edge"><title>22227&#45;&gt;24811</title>
<path fill="none" stroke="black" d="M812.227,-585.72C787.535,-612.251 738.531,-664.902 711.938,-693.475"/>
</g>
<!-- 22372 -->
<g id="node42" class="node"><title>22372</title>
<g id="a_node42"><a xlink:title="3rd_week">
<ellipse fill="#07ffd1" stroke="black" cx="953.725" cy="-1512.49" rx="32.4942" ry="18"/>
<text text-anchor="middle" x="953.725" y="-1508.79" font-family="Times,serif" font-size="14.00">22372</text>
</a>
</g>
</g>
<!-- 22372&#45;&gt;31755 -->
<g id="edge44" class="edge"><title>22372&#45;&gt;31755</title>
<path fill="none" stroke="black" d="M950.997,-1494.32C945.259,-1456.09 932,-1367.74 926.287,-1329.67"/>
</g>
<!-- 22819 -->
<g id="node44" class="node"><title>22819</title>
<g id="a_node44"><a xlink:title="3rd_week">
<ellipse fill="#07ffd1" stroke="black" cx="780.007" cy="-525.07" rx="32.4942" ry="18"/>
<text text-anchor="middle" x="780.007" y="-521.37" font-family="Times,serif" font-size="14.00">22819</text>
</a>
</g>
</g>
<!-- 22819&#45;&gt;24811 -->
<g id="edge46" class="edge"><title>22819&#45;&gt;24811</title>
<path fill="none" stroke="black" d="M771.892,-542.752C755.997,-577.386 720.815,-654.044 703.609,-691.533"/>
</g>
<!-- 23925&#45;&gt;24811 -->
<g id="edge22" class="edge"><title>23925&#45;&gt;24811</title>
<path fill="none" stroke="black" d="M927.412,-818.3C879.176,-796.567 774.316,-749.322 723.093,-726.243"/>
</g>
<!-- 24233 -->
<g id="node47" class="node"><title>24233</title>
<g id="a_node47"><a xlink:title="6th_week">
<ellipse fill="grey" stroke="black" cx="670.982" cy="-499.11" rx="32.4942" ry="18"/>
<text text-anchor="middle" x="670.982" y="-495.41" font-family="Times,serif" font-size="14.00">24233</text>
</a>
</g>
</g>
<!-- 24233&#45;&gt;24811 -->
<g id="edge7" class="edge"><title>24233&#45;&gt;24811</title>
<path fill="none" stroke="black" d="M672.923,-517.348C677.095,-556.55 686.902,-648.707 691.408,-691.046"/>
</g>
<!-- 24440 -->
<g id="node48" class="node"><title>24440</title>
<g id="a_node48"><a xlink:title="3rd_week">
<ellipse fill="#07ffd1" stroke="black" cx="735.059" cy="-933.737" rx="32.4942" ry="18"/>
<text text-anchor="middle" x="735.059" y="-930.037" font-family="Times,serif" font-size="14.00">24440</text>
</a>
</g>
</g>
<!-- 24440&#45;&gt;24811 -->
<g id="edge19" class="edge"><title>24440&#45;&gt;24811</title>
<path fill="none" stroke="black" d="M731.678,-915.675C724.163,-875.522 706.088,-778.956 697.901,-735.217"/>
</g>
<!-- 26054 -->
<g id="node50" class="node"><title>26054</title>
<g id="a_node50"><a xlink:title="6th_week">
<ellipse fill="#07ffd1" stroke="black" cx="541.858" cy="-867.214" rx="32.4942" ry="18"/>
<text text-anchor="middle" x="541.858" y="-863.514" font-family="Times,serif" font-size="14.00">26054</text>
</a>
</g>
</g>
<!-- 24811&#45;&gt;26054 -->
<g id="edge30" class="edge"><title>24811&#45;&gt;26054</title>
<path fill="none" stroke="black" d="M674.817,-732.237C644.598,-762.915 585.996,-822.406 557.788,-851.042"/>
</g>
<!-- 30344 -->
<g id="node53" class="node"><title>30344</title>
<g id="a_node53"><a xlink:title="3rd_week">
<ellipse fill="#07ffd1" stroke="black" cx="895.468" cy="-671.988" rx="32.4942" ry="18"/>
<text text-anchor="middle" x="895.468" y="-668.288" font-family="Times,serif" font-size="14.00">30344</text>
</a>
</g>
</g>
<!-- 24811&#45;&gt;30344 -->
<g id="edge29" class="edge"><title>24811&#45;&gt;30344</title>
<path fill="none" stroke="black" d="M728.424,-705.967C766.837,-698.153 828.179,-685.676 864.87,-678.212"/>
</g>
<!-- 31310 -->
<g id="node54" class="node"><title>31310</title>
<g id="a_node54"><a xlink:title="3rd_week">
<ellipse fill="#07ffd1" stroke="black" cx="476.969" cy="-671.769" rx="32.4942" ry="18"/>
<text text-anchor="middle" x="476.969" y="-668.069" font-family="Times,serif" font-size="14.00">31310</text>
</a>
</g>
</g>
<!-- 24811&#45;&gt;31310 -->
<g id="edge51" class="edge"><title>24811&#45;&gt;31310</title>
<path fill="none" stroke="black" d="M658.918,-706.393C617.148,-698.444 547.783,-685.244 507.85,-677.645"/>
</g>
</g>
</svg>
