<?xml version="1.0" encoding="UTF-8" standalone="no"?>
<!DOCTYPE svg PUBLIC "-//W3C//DTD SVG 1.1//EN"
 "http://www.w3.org/Graphics/SVG/1.1/DTD/svg11.dtd">
<!-- Generated by graphviz version 2.38.0 (20140413.2041)
 -->
<!-- Title: %3 Pages: 1 -->
<svg width="1932pt" height="1959pt"
 viewBox="0.00 0.00 1932.00 1959.00" xmlns="http://www.w3.org/2000/svg" xmlns:xlink="http://www.w3.org/1999/xlink">
<g id="graph0" class="graph" transform="scale(1 1) rotate(0) translate(4 1955)">
<title>%3</title>
<polygon fill="white" stroke="none" points="-4,4 -4,-1955 1928,-1955 1928,4 -4,4"/>
<!-- 307 -->
<g id="node1" class="node"><title>307</title>
<g id="a_node1"><a xlink:title="Day_0">
<ellipse fill="#07ffd1" stroke="black" cx="684.127" cy="-410.005" rx="27" ry="18"/>
<text text-anchor="middle" x="684.127" y="-406.305" font-family="Times,serif" font-size="14.00">307</text>
</a>
</g>
</g>
<!-- 6431 -->
<g id="node5" class="node"><title>6431</title>
<g id="a_node5"><a xlink:title="Day_0">
<ellipse fill="#07ffd1" stroke="black" cx="776.084" cy="-298.828" rx="28.6953" ry="18"/>
<text text-anchor="middle" x="776.084" y="-295.128" font-family="Times,serif" font-size="14.00">6431</text>
</a>
</g>
</g>
<!-- 307&#45;&gt;6431 -->
<g id="edge43" class="edge"><title>307&#45;&gt;6431</title>
<path fill="none" stroke="black" d="M697.302,-394.076C714.684,-373.061 745.116,-336.268 762.634,-315.089"/>
</g>
<!-- 7736 -->
<g id="node7" class="node"><title>7736</title>
<g id="a_node7"><a xlink:title="Day_0">
<ellipse fill="#ffffff" stroke="black" cx="776.581" cy="-687.673" rx="28.6953" ry="18"/>
<text text-anchor="middle" x="776.581" y="-683.973" font-family="Times,serif" font-size="14.00">7736</text>
</a>
</g>
</g>
<!-- 307&#45;&gt;7736 -->
<g id="edge59" class="edge"><title>307&#45;&gt;7736</title>
<path fill="none" stroke="black" d="M690.051,-427.797C706.75,-477.949 754.068,-620.059 770.706,-670.029"/>
</g>
<!-- 9732 -->
<g id="node9" class="node"><title>9732</title>
<g id="a_node9"><a xlink:title="Day_0">
<ellipse fill="#07ffd1" stroke="black" cx="554.779" cy="-319.353" rx="28.6953" ry="18"/>
<text text-anchor="middle" x="554.779" y="-315.653" font-family="Times,serif" font-size="14.00">9732</text>
</a>
</g>
</g>
<!-- 307&#45;&gt;9732 -->
<g id="edge54" class="edge"><title>307&#45;&gt;9732</title>
<path fill="none" stroke="black" d="M665.319,-396.823C640.935,-379.734 598.632,-350.086 574.033,-332.846"/>
</g>
<!-- 14969 -->
<g id="node10" class="node"><title>14969</title>
<g id="a_node10"><a xlink:title="Day_0">
<ellipse fill="#07ffd1" stroke="black" cx="540.97" cy="-369.198" rx="32.4942" ry="18"/>
<text text-anchor="middle" x="540.97" y="-365.498" font-family="Times,serif" font-size="14.00">14969</text>
</a>
</g>
</g>
<!-- 307&#45;&gt;14969 -->
<g id="edge49" class="edge"><title>307&#45;&gt;14969</title>
<path fill="none" stroke="black" d="M659.191,-402.897C634.357,-395.818 596.257,-384.958 570.059,-377.49"/>
</g>
<!-- 15583 -->
<g id="node11" class="node"><title>15583</title>
<g id="a_node11"><a xlink:title="Day_0">
<ellipse fill="grey" stroke="black" cx="624.556" cy="-263.714" rx="32.4942" ry="18"/>
<text text-anchor="middle" x="624.556" y="-260.014" font-family="Times,serif" font-size="14.00">15583</text>
</a>
</g>
</g>
<!-- 307&#45;&gt;15583 -->
<g id="edge36" class="edge"><title>307&#45;&gt;15583</title>
<path fill="none" stroke="black" d="M676.941,-392.359C665.491,-364.241 643.233,-309.58 631.767,-281.423"/>
</g>
<!-- 15728 -->
<g id="node12" class="node"><title>15728</title>
<g id="a_node12"><a xlink:title="Day_0">
<ellipse fill="grey" stroke="black" cx="712.817" cy="-245.482" rx="32.4942" ry="18"/>
<text text-anchor="middle" x="712.817" y="-241.782" font-family="Times,serif" font-size="14.00">15728</text>
</a>
</g>
</g>
<!-- 307&#45;&gt;15728 -->
<g id="edge2" class="edge"><title>307&#45;&gt;15728</title>
<path fill="none" stroke="black" d="M687.252,-392.085C692.756,-360.521 704.12,-295.356 709.652,-263.63"/>
</g>
<!-- 24516 -->
<g id="node19" class="node"><title>24516</title>
<g id="a_node19"><a xlink:title="Day_0">
<ellipse fill="#07ffd1" stroke="black" cx="617.852" cy="-195.977" rx="32.4942" ry="18"/>
<text text-anchor="middle" x="617.852" y="-192.277" font-family="Times,serif" font-size="14.00">24516</text>
</a>
</g>
</g>
<!-- 307&#45;&gt;24516 -->
<g id="edge31" class="edge"><title>307&#45;&gt;24516</title>
<path fill="none" stroke="black" d="M678.59,-392.125C666.115,-351.838 635.923,-254.338 623.419,-213.957"/>
</g>
<!-- 1259 -->
<g id="node2" class="node"><title>1259</title>
<g id="a_node2"><a xlink:title="PRE">
<ellipse fill="#07ffd1" stroke="black" cx="686.054" cy="-1170.8" rx="28.6953" ry="18"/>
<text text-anchor="middle" x="686.054" y="-1167.1" font-family="Times,serif" font-size="14.00">1259</text>
</a>
</g>
</g>
<!-- 1470 -->
<g id="node3" class="node"><title>1470</title>
<g id="a_node3"><a xlink:title="PRE">
<ellipse fill="#07ffd1" stroke="black" cx="862.903" cy="-949.002" rx="28.6953" ry="18"/>
<text text-anchor="middle" x="862.903" y="-945.302" font-family="Times,serif" font-size="14.00">1470</text>
</a>
</g>
</g>
<!-- 1259&#45;&gt;1470 -->
<g id="edge53" class="edge"><title>1259&#45;&gt;1470</title>
<path fill="none" stroke="black" d="M699.058,-1154.49C731.763,-1113.47 817.154,-1006.38 849.879,-965.335"/>
</g>
<!-- 3187 -->
<g id="node20" class="node"><title>3187</title>
<g id="a_node20"><a xlink:title="Day_0">
<ellipse fill="#07ffd1" stroke="black" cx="585.702" cy="-1390.17" rx="28.6953" ry="18"/>
<text text-anchor="middle" x="585.702" y="-1386.47" font-family="Times,serif" font-size="14.00">3187</text>
</a>
</g>
</g>
<!-- 1259&#45;&gt;3187 -->
<g id="edge7" class="edge"><title>1259&#45;&gt;3187</title>
<path fill="none" stroke="black" d="M678.012,-1188.38C659.175,-1229.56 612.38,-1331.85 593.644,-1372.81"/>
</g>
<!-- 22310 -->
<g id="node28" class="node"><title>22310</title>
<g id="a_node28"><a xlink:title="6th_week">
<ellipse fill="#07ffd1" stroke="black" cx="486.808" cy="-1290.13" rx="32.4942" ry="18"/>
<text text-anchor="middle" x="486.808" y="-1286.43" font-family="Times,serif" font-size="14.00">22310</text>
</a>
</g>
</g>
<!-- 1259&#45;&gt;22310 -->
<g id="edge35" class="edge"><title>1259&#45;&gt;22310</title>
<path fill="none" stroke="black" d="M665.108,-1183.35C627.241,-1206.02 547.736,-1253.64 508.986,-1276.84"/>
</g>
<!-- 1470&#45;&gt;7736 -->
<g id="edge18" class="edge"><title>1470&#45;&gt;7736</title>
<path fill="none" stroke="black" d="M856.969,-931.04C841.162,-883.184 798.166,-753.018 782.442,-705.415"/>
</g>
<!-- 22351 -->
<g id="node17" class="node"><title>22351</title>
<g id="a_node17"><a xlink:title="6th_week">
<ellipse fill="#07ffd1" stroke="black" cx="719.48" cy="-882.536" rx="32.4942" ry="18"/>
<text text-anchor="middle" x="719.48" y="-878.836" font-family="Times,serif" font-size="14.00">22351</text>
</a>
</g>
</g>
<!-- 1470&#45;&gt;22351 -->
<g id="edge38" class="edge"><title>1470&#45;&gt;22351</title>
<path fill="none" stroke="black" d="M839.859,-938.323C813.887,-926.287 771.788,-906.777 744.884,-894.309"/>
</g>
<!-- 22382 -->
<g id="node18" class="node"><title>22382</title>
<g id="a_node18"><a xlink:title="PRE">
<ellipse fill="#07ffd1" stroke="black" cx="1196.33" cy="-1093.65" rx="32.4942" ry="18"/>
<text text-anchor="middle" x="1196.33" y="-1089.95" font-family="Times,serif" font-size="14.00">22382</text>
</a>
</g>
</g>
<!-- 1470&#45;&gt;22382 -->
<g id="edge25" class="edge"><title>1470&#45;&gt;22382</title>
<path fill="none" stroke="black" d="M886.615,-959.289C947.317,-985.622 1107.95,-1055.31 1170.7,-1082.53"/>
</g>
<!-- 17726 -->
<g id="node23" class="node"><title>17726</title>
<g id="a_node23"><a xlink:title="Day_0">
<ellipse fill="#07ffd1" stroke="black" cx="629.65" cy="-937.182" rx="32.4942" ry="18"/>
<text text-anchor="middle" x="629.65" y="-933.482" font-family="Times,serif" font-size="14.00">17726</text>
</a>
</g>
</g>
<!-- 1470&#45;&gt;17726 -->
<g id="edge4" class="edge"><title>1470&#45;&gt;17726</title>
<path fill="none" stroke="black" d="M834.301,-947.553C790.75,-945.346 708.048,-941.155 662.237,-938.833"/>
</g>
<!-- 1669 -->
<g id="node30" class="node"><title>1669</title>
<g id="a_node30"><a xlink:title="Day_0">
<ellipse fill="#07ffd1" stroke="black" cx="964.287" cy="-756.167" rx="28.6953" ry="18"/>
<text text-anchor="middle" x="964.287" y="-752.467" font-family="Times,serif" font-size="14.00">1669</text>
</a>
</g>
</g>
<!-- 1470&#45;&gt;1669 -->
<g id="edge40" class="edge"><title>1470&#45;&gt;1669</title>
<path fill="none" stroke="black" d="M871.9,-931.889C891.091,-895.388 935.862,-810.232 955.164,-773.519"/>
</g>
<!-- 11004 -->
<g id="node35" class="node"><title>11004</title>
<g id="a_node35"><a xlink:title="PRE">
<ellipse fill="#ffffff" stroke="black" cx="927.626" cy="-860.834" rx="32.4942" ry="18"/>
<text text-anchor="middle" x="927.626" y="-857.134" font-family="Times,serif" font-size="14.00">11004</text>
</a>
</g>
</g>
<!-- 1470&#45;&gt;11004 -->
<g id="edge24" class="edge"><title>1470&#45;&gt;11004</title>
<path fill="none" stroke="black" d="M875.076,-932.418C886.575,-916.755 903.734,-893.38 915.286,-877.643"/>
</g>
<!-- 5223 -->
<g id="node4" class="node"><title>5223</title>
<g id="a_node4"><a xlink:title="Day_0">
<ellipse fill="#07ffd1" stroke="black" cx="700.95" cy="-562.589" rx="28.6953" ry="18"/>
<text text-anchor="middle" x="700.95" y="-558.889" font-family="Times,serif" font-size="14.00">5223</text>
</a>
</g>
</g>
<!-- 5223&#45;&gt;7736 -->
<g id="edge12" class="edge"><title>5223&#45;&gt;7736</title>
<path fill="none" stroke="black" d="M711.15,-579.459C725.585,-603.332 751.823,-646.727 766.301,-670.672"/>
</g>
<!-- 6890 -->
<g id="node6" class="node"><title>6890</title>
<g id="a_node6"><a xlink:title="PRE">
<ellipse fill="#07ffd1" stroke="black" cx="1318.52" cy="-1125.13" rx="28.6953" ry="18"/>
<text text-anchor="middle" x="1318.52" y="-1121.43" font-family="Times,serif" font-size="14.00">6890</text>
</a>
</g>
</g>
<!-- 6890&#45;&gt;22382 -->
<g id="edge69" class="edge"><title>6890&#45;&gt;22382</title>
<path fill="none" stroke="black" d="M1292.01,-1118.3C1272.64,-1113.31 1246.35,-1106.54 1226.23,-1101.35"/>
</g>
<!-- 9357 -->
<g id="node8" class="node"><title>9357</title>
<g id="a_node8"><a xlink:title="Day_0">
<ellipse fill="#07ffd1" stroke="black" cx="1725.33" cy="-936.143" rx="28.6953" ry="18"/>
<text text-anchor="middle" x="1725.33" y="-932.443" font-family="Times,serif" font-size="14.00">9357</text>
</a>
</g>
</g>
<!-- 19190 -->
<g id="node14" class="node"><title>19190</title>
<g id="a_node14"><a xlink:title="Day_0">
<ellipse fill="#07ffd1" stroke="black" cx="1458.37" cy="-999.866" rx="32.4942" ry="18"/>
<text text-anchor="middle" x="1458.37" y="-996.166" font-family="Times,serif" font-size="14.00">19190</text>
</a>
</g>
</g>
<!-- 9357&#45;&gt;19190 -->
<g id="edge16" class="edge"><title>9357&#45;&gt;19190</title>
<path fill="none" stroke="black" d="M1698.27,-942.603C1648.03,-954.595 1540.71,-980.21 1488.35,-992.709"/>
</g>
<!-- 3450 -->
<g id="node45" class="node"><title>3450</title>
<g id="a_node45"><a xlink:title="Day_0">
<ellipse fill="#07ffd1" stroke="black" cx="1806.79" cy="-845.745" rx="28.6953" ry="18"/>
<text text-anchor="middle" x="1806.79" y="-842.045" font-family="Times,serif" font-size="14.00">3450</text>
</a>
</g>
</g>
<!-- 9357&#45;&gt;3450 -->
<g id="edge68" class="edge"><title>9357&#45;&gt;3450</title>
<path fill="none" stroke="black" d="M1739.52,-920.397C1754.38,-903.906 1777.59,-878.151 1792.49,-861.614"/>
</g>
<!-- 11345 -->
<g id="node48" class="node"><title>11345</title>
<g id="a_node48"><a xlink:title="Day_0">
<ellipse fill="#07ffd1" stroke="black" cx="1886.6" cy="-920.685" rx="32.4942" ry="18"/>
<text text-anchor="middle" x="1886.6" y="-916.985" font-family="Times,serif" font-size="14.00">11345</text>
</a>
</g>
</g>
<!-- 9357&#45;&gt;11345 -->
<g id="edge6" class="edge"><title>9357&#45;&gt;11345</title>
<path fill="none" stroke="black" d="M1753.79,-933.415C1782.01,-930.711 1825.15,-926.575 1854.55,-923.757"/>
</g>
<!-- 11420 -->
<g id="node49" class="node"><title>11420</title>
<g id="a_node49"><a xlink:title="Day_0">
<ellipse fill="#07ffd1" stroke="black" cx="1854.96" cy="-1033.28" rx="32.4942" ry="18"/>
<text text-anchor="middle" x="1854.96" y="-1029.58" font-family="Times,serif" font-size="14.00">11420</text>
</a>
</g>
</g>
<!-- 9357&#45;&gt;11420 -->
<g id="edge47" class="edge"><title>9357&#45;&gt;11420</title>
<path fill="none" stroke="black" d="M1743.91,-950.061C1768.27,-968.318 1810.82,-1000.2 1835.58,-1018.76"/>
</g>
<!-- 11522 -->
<g id="node50" class="node"><title>11522</title>
<g id="a_node50"><a xlink:title="Day_0">
<ellipse fill="#07ffd1" stroke="black" cx="1799.58" cy="-794.684" rx="32.4942" ry="18"/>
<text text-anchor="middle" x="1799.58" y="-790.984" font-family="Times,serif" font-size="14.00">11522</text>
</a>
</g>
</g>
<!-- 9357&#45;&gt;11522 -->
<g id="edge28" class="edge"><title>9357&#45;&gt;11522</title>
<path fill="none" stroke="black" d="M1734.44,-918.797C1748.69,-891.647 1776.1,-839.409 1790.4,-812.172"/>
</g>
<!-- 18332 -->
<g id="node51" class="node"><title>18332</title>
<g id="a_node51"><a xlink:title="Day_0">
<ellipse fill="#07ffd1" stroke="black" cx="1891.48" cy="-868.121" rx="32.4942" ry="18"/>
<text text-anchor="middle" x="1891.48" y="-864.421" font-family="Times,serif" font-size="14.00">18332</text>
</a>
</g>
</g>
<!-- 9357&#45;&gt;18332 -->
<g id="edge39" class="edge"><title>9357&#45;&gt;18332</title>
<path fill="none" stroke="black" d="M1749.49,-926.252C1780.27,-913.65 1833.29,-891.947 1865.1,-878.924"/>
</g>
<!-- 19899 -->
<g id="node53" class="node"><title>19899</title>
<g id="a_node53"><a xlink:title="Day_0">
<ellipse fill="grey" stroke="black" cx="1879.01" cy="-970.894" rx="32.4942" ry="18"/>
<text text-anchor="middle" x="1879.01" y="-967.194" font-family="Times,serif" font-size="14.00">19899</text>
</a>
</g>
</g>
<!-- 9357&#45;&gt;19899 -->
<g id="edge19" class="edge"><title>9357&#45;&gt;19899</title>
<path fill="none" stroke="black" d="M1752.46,-942.276C1779.43,-948.374 1820.72,-957.712 1848.74,-964.049"/>
</g>
<!-- 16831 -->
<g id="node13" class="node"><title>16831</title>
<g id="a_node13"><a xlink:title="PRE">
<ellipse fill="#07ffd1" stroke="black" cx="1260.54" cy="-1206.74" rx="32.4942" ry="18"/>
<text text-anchor="middle" x="1260.54" y="-1203.04" font-family="Times,serif" font-size="14.00">16831</text>
</a>
</g>
</g>
<!-- 16831&#45;&gt;22382 -->
<g id="edge41" class="edge"><title>16831&#45;&gt;22382</title>
<path fill="none" stroke="black" d="M1250.79,-1189.56C1238.72,-1168.31 1218.29,-1132.32 1206.18,-1110.99"/>
</g>
<!-- 19190&#45;&gt;22382 -->
<g id="edge5" class="edge"><title>19190&#45;&gt;22382</title>
<path fill="none" stroke="black" d="M1430.82,-1009.72C1380.5,-1027.74 1274.25,-1065.76 1223.9,-1083.78"/>
</g>
<!-- 19774 -->
<g id="node15" class="node"><title>19774</title>
<g id="a_node15"><a xlink:title="PRE">
<ellipse fill="#07ffd1" stroke="black" cx="1293.18" cy="-982.173" rx="32.4942" ry="18"/>
<text text-anchor="middle" x="1293.18" y="-978.473" font-family="Times,serif" font-size="14.00">19774</text>
</a>
</g>
</g>
<!-- 19774&#45;&gt;22382 -->
<g id="edge15" class="edge"><title>19774&#45;&gt;22382</title>
<path fill="none" stroke="black" d="M1278.89,-998.621C1260.58,-1019.7 1229.02,-1056.02 1210.68,-1077.13"/>
</g>
<!-- 19995 -->
<g id="node16" class="node"><title>19995</title>
<g id="a_node16"><a xlink:title="Day_0">
<ellipse fill="#07ffd1" stroke="black" cx="637.807" cy="-18.271" rx="32.4942" ry="18"/>
<text text-anchor="middle" x="637.807" y="-14.571" font-family="Times,serif" font-size="14.00">19995</text>
</a>
</g>
</g>
<!-- 19995&#45;&gt;24516 -->
<g id="edge44" class="edge"><title>19995&#45;&gt;24516</title>
<path fill="none" stroke="black" d="M635.784,-36.2884C631.959,-70.3484 623.709,-143.815 619.88,-177.912"/>
</g>
<!-- 7733 -->
<g id="node21" class="node"><title>7733</title>
<g id="a_node21"><a xlink:title="6th_week">
<ellipse fill="#07ffd1" stroke="black" cx="567.859" cy="-855.83" rx="28.6953" ry="18"/>
<text text-anchor="middle" x="567.859" y="-852.13" font-family="Times,serif" font-size="14.00">7733</text>
</a>
</g>
</g>
<!-- 22351&#45;&gt;7733 -->
<g id="edge22" class="edge"><title>22351&#45;&gt;7733</title>
<path fill="none" stroke="black" d="M688.432,-877.068C661.227,-872.276 622.042,-865.374 595.803,-860.752"/>
</g>
<!-- 18443 -->
<g id="node24" class="node"><title>18443</title>
<g id="a_node24"><a xlink:title="6th_week">
<ellipse fill="#07ffd1" stroke="black" cx="603.699" cy="-775.156" rx="32.4942" ry="18"/>
<text text-anchor="middle" x="603.699" y="-771.456" font-family="Times,serif" font-size="14.00">18443</text>
</a>
</g>
</g>
<!-- 22351&#45;&gt;18443 -->
<g id="edge27" class="edge"><title>22351&#45;&gt;18443</title>
<path fill="none" stroke="black" d="M702.396,-866.692C680.38,-846.273 642.343,-810.996 620.476,-790.716"/>
</g>
<!-- 23682 -->
<g id="node29" class="node"><title>23682</title>
<g id="a_node29"><a xlink:title="PRE">
<ellipse fill="#07ffd1" stroke="black" cx="1364.56" cy="-1058.32" rx="32.4942" ry="18"/>
<text text-anchor="middle" x="1364.56" y="-1054.62" font-family="Times,serif" font-size="14.00">23682</text>
</a>
</g>
</g>
<!-- 22382&#45;&gt;23682 -->
<g id="edge34" class="edge"><title>22382&#45;&gt;23682</title>
<path fill="none" stroke="black" d="M1226.8,-1087.25C1257.19,-1080.87 1303.62,-1071.12 1334.04,-1064.73"/>
</g>
<!-- 3826 -->
<g id="node31" class="node"><title>3826</title>
<g id="a_node31"><a xlink:title="6th_week">
<ellipse fill="#07ffd1" stroke="black" cx="1124.44" cy="-1249.75" rx="28.6953" ry="18"/>
<text text-anchor="middle" x="1124.44" y="-1246.05" font-family="Times,serif" font-size="14.00">3826</text>
</a>
</g>
</g>
<!-- 22382&#45;&gt;3826 -->
<g id="edge42" class="edge"><title>22382&#45;&gt;3826</title>
<path fill="none" stroke="black" d="M1188.22,-1111.25C1174.34,-1141.39 1146.19,-1202.52 1132.4,-1232.45"/>
</g>
<!-- 5058 -->
<g id="node32" class="node"><title>5058</title>
<g id="a_node32"><a xlink:title="PRE">
<ellipse fill="#ffffff" stroke="black" cx="1079.08" cy="-1153.75" rx="28.6953" ry="18"/>
<text text-anchor="middle" x="1079.08" y="-1150.05" font-family="Times,serif" font-size="14.00">5058</text>
</a>
</g>
</g>
<!-- 22382&#45;&gt;5058 -->
<g id="edge67" class="edge"><title>22382&#45;&gt;5058</title>
<path fill="none" stroke="black" d="M1172.32,-1105.96C1151.55,-1116.6 1121.75,-1131.88 1101.47,-1142.27"/>
</g>
<!-- 22773 -->
<g id="node43" class="node"><title>22773</title>
<g id="a_node43"><a xlink:title="PRE">
<ellipse fill="#07ffd1" stroke="black" cx="1217.23" cy="-950.449" rx="32.4942" ry="18"/>
<text text-anchor="middle" x="1217.23" y="-946.749" font-family="Times,serif" font-size="14.00">22773</text>
</a>
</g>
</g>
<!-- 22382&#45;&gt;22773 -->
<g id="edge58" class="edge"><title>22382&#45;&gt;22773</title>
<path fill="none" stroke="black" d="M1198.98,-1075.51C1203,-1047.97 1210.6,-995.895 1214.6,-968.438"/>
</g>
<!-- 24354 -->
<g id="node44" class="node"><title>24354</title>
<g id="a_node44"><a xlink:title="Day_0">
<ellipse fill="#07ffd1" stroke="black" cx="1210.49" cy="-1302.27" rx="32.4942" ry="18"/>
<text text-anchor="middle" x="1210.49" y="-1298.57" font-family="Times,serif" font-size="14.00">24354</text>
</a>
</g>
</g>
<!-- 22382&#45;&gt;24354 -->
<g id="edge48" class="edge"><title>22382&#45;&gt;24354</title>
<path fill="none" stroke="black" d="M1197.56,-1111.8C1200.24,-1151.25 1206.57,-1244.47 1209.25,-1284.02"/>
</g>
<!-- 4931 -->
<g id="node46" class="node"><title>4931</title>
<g id="a_node46"><a xlink:title="6th_week">
<ellipse fill="#07ffd1" stroke="black" cx="1398.58" cy="-1269.88" rx="28.6953" ry="18"/>
<text text-anchor="middle" x="1398.58" y="-1266.18" font-family="Times,serif" font-size="14.00">4931</text>
</a>
</g>
</g>
<!-- 22382&#45;&gt;4931 -->
<g id="edge23" class="edge"><title>22382&#45;&gt;4931</title>
<path fill="none" stroke="black" d="M1213.93,-1108.98C1252.47,-1142.56 1343.91,-1222.24 1381.74,-1255.21"/>
</g>
<!-- 8899 -->
<g id="node33" class="node"><title>8899</title>
<g id="a_node33"><a xlink:title="PRE">
<ellipse fill="#07ffd1" stroke="black" cx="500.159" cy="-69.2161" rx="28.6953" ry="18"/>
<text text-anchor="middle" x="500.159" y="-65.5161" font-family="Times,serif" font-size="14.00">8899</text>
</a>
</g>
</g>
<!-- 24516&#45;&gt;8899 -->
<g id="edge56" class="edge"><title>24516&#45;&gt;8899</title>
<path fill="none" stroke="black" d="M602.946,-179.923C580.307,-155.54 537.51,-109.446 514.944,-85.1401"/>
</g>
<!-- 12955 -->
<g id="node54" class="node"><title>12955</title>
<g id="a_node54"><a xlink:title="Day_0">
<ellipse fill="#07ffd1" stroke="black" cx="560.422" cy="-23.7161" rx="32.4942" ry="18"/>
<text text-anchor="middle" x="560.422" y="-20.0161" font-family="Times,serif" font-size="14.00">12955</text>
</a>
</g>
</g>
<!-- 24516&#45;&gt;12955 -->
<g id="edge17" class="edge"><title>24516&#45;&gt;12955</title>
<path fill="none" stroke="black" d="M611.922,-178.191C600.917,-145.182 577.451,-74.7942 566.405,-41.6635"/>
</g>
<!-- 20270 -->
<g id="node27" class="node"><title>20270</title>
<g id="a_node27"><a xlink:title="Day_0">
<ellipse fill="#07ffd1" stroke="black" cx="483.066" cy="-1589.3" rx="32.4942" ry="18"/>
<text text-anchor="middle" x="483.066" y="-1585.6" font-family="Times,serif" font-size="14.00">20270</text>
</a>
</g>
</g>
<!-- 3187&#45;&gt;20270 -->
<g id="edge52" class="edge"><title>3187&#45;&gt;20270</title>
<path fill="none" stroke="black" d="M576.773,-1407.49C557.363,-1445.15 511.506,-1534.13 492.047,-1571.88"/>
</g>
<!-- 10031 -->
<g id="node22" class="node"><title>10031</title>
<g id="a_node22"><a xlink:title="Day_0">
<ellipse fill="#07ffd1" stroke="black" cx="380.292" cy="-902.699" rx="32.4942" ry="18"/>
<text text-anchor="middle" x="380.292" y="-898.999" font-family="Times,serif" font-size="14.00">10031</text>
</a>
</g>
</g>
<!-- 10031&#45;&gt;17726 -->
<g id="edge45" class="edge"><title>10031&#45;&gt;17726</title>
<path fill="none" stroke="black" d="M411.873,-907.066C459.708,-913.681 550.018,-926.17 597.933,-932.796"/>
</g>
<!-- 11124 -->
<g id="node36" class="node"><title>11124</title>
<g id="a_node36"><a xlink:title="Day_0">
<ellipse fill="#07ffd1" stroke="black" cx="263.907" cy="-803.385" rx="32.4942" ry="18"/>
<text text-anchor="middle" x="263.907" y="-799.685" font-family="Times,serif" font-size="14.00">11124</text>
</a>
</g>
</g>
<!-- 10031&#45;&gt;11124 -->
<g id="edge9" class="edge"><title>10031&#45;&gt;11124</title>
<path fill="none" stroke="black" d="M362.362,-887.399C340.427,-868.681 303.523,-837.19 281.666,-818.539"/>
</g>
<!-- 11425 -->
<g id="node37" class="node"><title>11425</title>
<g id="a_node37"><a xlink:title="Day_0">
<ellipse fill="#07ffd1" stroke="black" cx="229.211" cy="-910.222" rx="32.4942" ry="18"/>
<text text-anchor="middle" x="229.211" y="-906.522" font-family="Times,serif" font-size="14.00">11425</text>
</a>
</g>
</g>
<!-- 10031&#45;&gt;11425 -->
<g id="edge8" class="edge"><title>10031&#45;&gt;11425</title>
<path fill="none" stroke="black" d="M347.881,-904.313C322.477,-905.578 287.285,-907.33 261.828,-908.598"/>
</g>
<!-- 17628 -->
<g id="node40" class="node"><title>17628</title>
<g id="a_node40"><a xlink:title="Day_0">
<ellipse fill="grey" stroke="black" cx="243.218" cy="-973.096" rx="32.4942" ry="18"/>
<text text-anchor="middle" x="243.218" y="-969.396" font-family="Times,serif" font-size="14.00">17628</text>
</a>
</g>
</g>
<!-- 10031&#45;&gt;17628 -->
<g id="edge30" class="edge"><title>10031&#45;&gt;17628</title>
<path fill="none" stroke="black" d="M356.416,-914.961C331.41,-927.803 292.356,-947.86 267.281,-960.738"/>
</g>
<!-- 7282 -->
<g id="node61" class="node"><title>7282</title>
<g id="a_node61"><a xlink:title="Day_0">
<ellipse fill="#07ffd1" stroke="black" cx="203.463" cy="-855.964" rx="28.6953" ry="18"/>
<text text-anchor="middle" x="203.463" y="-852.264" font-family="Times,serif" font-size="14.00">7282</text>
</a>
</g>
</g>
<!-- 10031&#45;&gt;7282 -->
<g id="edge3" class="edge"><title>10031&#45;&gt;7282</title>
<path fill="none" stroke="black" d="M350.695,-894.876C316.972,-885.964 262.355,-871.529 229.974,-862.971"/>
</g>
<!-- 18925 -->
<g id="node25" class="node"><title>18925</title>
<g id="a_node25"><a xlink:title="6th_week">
<ellipse fill="#07ffd1" stroke="black" cx="338.497" cy="-1343.49" rx="32.4942" ry="18"/>
<text text-anchor="middle" x="338.497" y="-1339.79" font-family="Times,serif" font-size="14.00">18925</text>
</a>
</g>
</g>
<!-- 18925&#45;&gt;22310 -->
<g id="edge1" class="edge"><title>18925&#45;&gt;22310</title>
<path fill="none" stroke="black" d="M366.046,-1333.57C392.685,-1323.99 432.818,-1309.55 459.407,-1299.98"/>
</g>
<!-- 19074 -->
<g id="node26" class="node"><title>19074</title>
<g id="a_node26"><a xlink:title="6th_week">
<ellipse fill="grey" stroke="black" cx="335.296" cy="-1281.27" rx="32.4942" ry="18"/>
<text text-anchor="middle" x="335.296" y="-1277.57" font-family="Times,serif" font-size="14.00">19074</text>
</a>
</g>
</g>
<!-- 19074&#45;&gt;22310 -->
<g id="edge61" class="edge"><title>19074&#45;&gt;22310</title>
<path fill="none" stroke="black" d="M367.799,-1283.17C393.363,-1284.66 428.808,-1286.73 454.358,-1288.23"/>
</g>
<!-- 14847 -->
<g id="node39" class="node"><title>14847</title>
<g id="a_node39"><a xlink:title="Day_0">
<ellipse fill="#07ffd1" stroke="black" cx="457.91" cy="-1748.71" rx="32.4942" ry="18"/>
<text text-anchor="middle" x="457.91" y="-1745.01" font-family="Times,serif" font-size="14.00">14847</text>
</a>
</g>
</g>
<!-- 20270&#45;&gt;14847 -->
<g id="edge11" class="edge"><title>20270&#45;&gt;14847</title>
<path fill="none" stroke="black" d="M480.229,-1607.28C475.398,-1637.89 465.626,-1699.82 460.775,-1730.55"/>
</g>
<!-- 4529 -->
<g id="node58" class="node"><title>4529</title>
<g id="a_node58"><a xlink:title="PRE">
<ellipse fill="#07ffd1" stroke="black" cx="357.212" cy="-1781.8" rx="28.6953" ry="18"/>
<text text-anchor="middle" x="357.212" y="-1778.1" font-family="Times,serif" font-size="14.00">4529</text>
</a>
</g>
</g>
<!-- 20270&#45;&gt;4529 -->
<g id="edge37" class="edge"><title>20270&#45;&gt;4529</title>
<path fill="none" stroke="black" d="M471.897,-1606.39C447.954,-1643.01 391.935,-1728.69 368.176,-1765.03"/>
</g>
<!-- 15837 -->
<g id="node62" class="node"><title>15837</title>
<g id="a_node62"><a xlink:title="6th_week">
<ellipse fill="grey" stroke="black" cx="445.534" cy="-1432.29" rx="32.4942" ry="18"/>
<text text-anchor="middle" x="445.534" y="-1428.59" font-family="Times,serif" font-size="14.00">15837</text>
</a>
</g>
</g>
<!-- 22310&#45;&gt;15837 -->
<g id="edge62" class="edge"><title>22310&#45;&gt;15837</title>
<path fill="none" stroke="black" d="M481.58,-1308.13C473.641,-1335.48 458.633,-1387.17 450.719,-1414.43"/>
</g>
<!-- 23956 -->
<g id="node63" class="node"><title>23956</title>
<g id="a_node63"><a xlink:title="6th_week">
<ellipse fill="#ffffff" stroke="black" cx="370.818" cy="-1391.43" rx="32.4942" ry="18"/>
<text text-anchor="middle" x="370.818" y="-1387.73" font-family="Times,serif" font-size="14.00">23956</text>
</a>
</g>
</g>
<!-- 22310&#45;&gt;23956 -->
<g id="edge63" class="edge"><title>22310&#45;&gt;23956</title>
<path fill="none" stroke="black" d="M469.192,-1305.51C447.391,-1324.55 410.478,-1356.79 388.6,-1375.9"/>
</g>
<!-- 18880 -->
<g id="node52" class="node"><title>18880</title>
<g id="a_node52"><a xlink:title="PRE">
<ellipse fill="#07ffd1" stroke="black" cx="1536.15" cy="-1051.23" rx="32.4942" ry="18"/>
<text text-anchor="middle" x="1536.15" y="-1047.53" font-family="Times,serif" font-size="14.00">18880</text>
</a>
</g>
</g>
<!-- 23682&#45;&gt;18880 -->
<g id="edge13" class="edge"><title>23682&#45;&gt;18880</title>
<path fill="none" stroke="black" d="M1397.24,-1056.97C1427.77,-1055.71 1473.1,-1053.83 1503.59,-1052.57"/>
</g>
<!-- 9283 -->
<g id="node34" class="node"><title>9283</title>
<g id="a_node34"><a xlink:title="Day_0">
<ellipse fill="grey" stroke="black" cx="1094.86" cy="-682.786" rx="28.6953" ry="18"/>
<text text-anchor="middle" x="1094.86" y="-679.086" font-family="Times,serif" font-size="14.00">9283</text>
</a>
</g>
</g>
<!-- 1669&#45;&gt;9283 -->
<g id="edge33" class="edge"><title>1669&#45;&gt;9283</title>
<path fill="none" stroke="black" d="M985.848,-744.05C1010.04,-730.454 1049.06,-708.525 1073.26,-694.922"/>
</g>
<!-- 14315 -->
<g id="node38" class="node"><title>14315</title>
<g id="a_node38"><a xlink:title="Day_0">
<ellipse fill="#07ffd1" stroke="black" cx="1072.44" cy="-625.001" rx="32.4942" ry="18"/>
<text text-anchor="middle" x="1072.44" y="-621.301" font-family="Times,serif" font-size="14.00">14315</text>
</a>
</g>
</g>
<!-- 1669&#45;&gt;14315 -->
<g id="edge21" class="edge"><title>1669&#45;&gt;14315</title>
<path fill="none" stroke="black" d="M977.549,-740.084C998.193,-715.046 1037.81,-666.997 1058.73,-641.63"/>
</g>
<!-- 19533 -->
<g id="node41" class="node"><title>19533</title>
<g id="a_node41"><a xlink:title="Day_0">
<ellipse fill="#07ffd1" stroke="black" cx="1008.55" cy="-580.62" rx="32.4942" ry="18"/>
<text text-anchor="middle" x="1008.55" y="-576.92" font-family="Times,serif" font-size="14.00">19533</text>
</a>
</g>
</g>
<!-- 1669&#45;&gt;19533 -->
<g id="edge64" class="edge"><title>1669&#45;&gt;19533</title>
<path fill="none" stroke="black" d="M968.775,-738.369C977.259,-704.723 995.559,-632.148 1004.05,-598.465"/>
</g>
<!-- 22199 -->
<g id="node42" class="node"><title>22199</title>
<g id="a_node42"><a xlink:title="Day_0">
<ellipse fill="grey" stroke="black" cx="920.877" cy="-613.443" rx="32.4942" ry="18"/>
<text text-anchor="middle" x="920.877" y="-609.743" font-family="Times,serif" font-size="14.00">22199</text>
</a>
</g>
</g>
<!-- 1669&#45;&gt;22199 -->
<g id="edge50" class="edge"><title>1669&#45;&gt;22199</title>
<path fill="none" stroke="black" d="M958.877,-738.38C950.558,-711.03 934.715,-658.939 926.355,-631.455"/>
</g>
<!-- 18578 -->
<g id="node64" class="node"><title>18578</title>
<g id="a_node64"><a xlink:title="6th_week">
<ellipse fill="#07ffd1" stroke="black" cx="1068.21" cy="-1403.95" rx="32.4942" ry="18"/>
<text text-anchor="middle" x="1068.21" y="-1400.25" font-family="Times,serif" font-size="14.00">18578</text>
</a>
</g>
</g>
<!-- 3826&#45;&gt;18578 -->
<g id="edge20" class="edge"><title>3826&#45;&gt;18578</title>
<path fill="none" stroke="black" d="M1117.99,-1267.44C1107.2,-1297.03 1085.61,-1356.23 1074.76,-1385.99"/>
</g>
<!-- 17732 -->
<g id="node55" class="node"><title>17732</title>
<g id="a_node55"><a xlink:title="Day_0">
<ellipse fill="#07ffd1" stroke="black" cx="1184.33" cy="-1476.35" rx="32.4942" ry="18"/>
<text text-anchor="middle" x="1184.33" y="-1472.65" font-family="Times,serif" font-size="14.00">17732</text>
</a>
</g>
</g>
<!-- 24354&#45;&gt;17732 -->
<g id="edge66" class="edge"><title>24354&#45;&gt;17732</title>
<path fill="none" stroke="black" d="M1207.79,-1320.25C1202.78,-1353.6 1192.09,-1424.73 1187.06,-1458.21"/>
</g>
<!-- 20296 -->
<g id="node56" class="node"><title>20296</title>
<g id="a_node56"><a xlink:title="Day_0">
<ellipse fill="#07ffd1" stroke="black" cx="1264.53" cy="-1470.27" rx="32.4942" ry="18"/>
<text text-anchor="middle" x="1264.53" y="-1466.57" font-family="Times,serif" font-size="14.00">20296</text>
</a>
</g>
</g>
<!-- 24354&#45;&gt;20296 -->
<g id="edge26" class="edge"><title>24354&#45;&gt;20296</title>
<path fill="none" stroke="black" d="M1216.27,-1320.25C1226.68,-1352.59 1248.42,-1420.18 1258.79,-1452.42"/>
</g>
<!-- 6288 -->
<g id="node47" class="node"><title>6288</title>
<g id="a_node47"><a xlink:title="6th_week">
<ellipse fill="#07ffd1" stroke="black" cx="1409.81" cy="-1432.78" rx="28.6953" ry="18"/>
<text text-anchor="middle" x="1409.81" y="-1429.08" font-family="Times,serif" font-size="14.00">6288</text>
</a>
</g>
</g>
<!-- 4931&#45;&gt;6288 -->
<g id="edge60" class="edge"><title>4931&#45;&gt;6288</title>
<path fill="none" stroke="black" d="M1399.83,-1287.94C1401.99,-1319.25 1406.4,-1383.28 1408.56,-1414.65"/>
</g>
<!-- 21164 -->
<g id="node57" class="node"><title>21164</title>
<g id="a_node57"><a xlink:title="6th_week">
<ellipse fill="#07ffd1" stroke="black" cx="1563.96" cy="-1268.45" rx="32.4942" ry="18"/>
<text text-anchor="middle" x="1563.96" y="-1264.75" font-family="Times,serif" font-size="14.00">21164</text>
</a>
</g>
</g>
<!-- 4931&#45;&gt;21164 -->
<g id="edge57" class="edge"><title>4931&#45;&gt;21164</title>
<path fill="none" stroke="black" d="M1427.39,-1269.63C1456.36,-1269.38 1500.95,-1269 1531.23,-1268.74"/>
</g>
<!-- 13250 -->
<g id="node65" class="node"><title>13250</title>
<g id="a_node65"><a xlink:title="6th_week">
<ellipse fill="#20ff05" stroke="black" cx="1569.98" cy="-1324.45" rx="32.4942" ry="18"/>
<text text-anchor="middle" x="1569.98" y="-1320.75" font-family="Times,serif" font-size="14.00">13250</text>
</a>
</g>
</g>
<!-- 4931&#45;&gt;13250 -->
<g id="edge14" class="edge"><title>4931&#45;&gt;13250</title>
<path fill="none" stroke="black" d="M1424.24,-1278.05C1455.71,-1288.07 1508.89,-1305 1541.57,-1315.41"/>
</g>
<!-- 15388 -->
<g id="node66" class="node"><title>15388</title>
<g id="a_node66"><a xlink:title="6th_week">
<ellipse fill="#07ffd1" stroke="black" cx="1492.19" cy="-1435.51" rx="32.4942" ry="18"/>
<text text-anchor="middle" x="1492.19" y="-1431.81" font-family="Times,serif" font-size="14.00">15388</text>
</a>
</g>
</g>
<!-- 4931&#45;&gt;15388 -->
<g id="edge29" class="edge"><title>4931&#45;&gt;15388</title>
<path fill="none" stroke="black" d="M1408.25,-1286.98C1426.19,-1318.72 1464.43,-1386.4 1482.44,-1418.25"/>
</g>
<!-- 15718 -->
<g id="node67" class="node"><title>15718</title>
<g id="a_node67"><a xlink:title="6th_week">
<ellipse fill="#07ffd1" stroke="black" cx="1559.82" cy="-1379.51" rx="32.4942" ry="18"/>
<text text-anchor="middle" x="1559.82" y="-1375.81" font-family="Times,serif" font-size="14.00">15718</text>
</a>
</g>
</g>
<!-- 4931&#45;&gt;15718 -->
<g id="edge32" class="edge"><title>4931&#45;&gt;15718</title>
<path fill="none" stroke="black" d="M1418.03,-1283.11C1448.69,-1303.95 1507.97,-1344.25 1539.28,-1365.55"/>
</g>
<!-- 19707 -->
<g id="node68" class="node"><title>19707</title>
<g id="a_node68"><a xlink:title="6th_week">
<ellipse fill="grey" stroke="black" cx="1479.23" cy="-1378.33" rx="32.4942" ry="18"/>
<text text-anchor="middle" x="1479.23" y="-1374.63" font-family="Times,serif" font-size="14.00">19707</text>
</a>
</g>
</g>
<!-- 4931&#45;&gt;19707 -->
<g id="edge10" class="edge"><title>4931&#45;&gt;19707</title>
<path fill="none" stroke="black" d="M1410.83,-1286.35C1425.9,-1306.62 1451.35,-1340.85 1466.6,-1361.34"/>
</g>
<!-- 10612 -->
<g id="node59" class="node"><title>10612</title>
<g id="a_node59"><a xlink:title="PRE">
<ellipse fill="grey" stroke="black" cx="271.075" cy="-1907.99" rx="32.4942" ry="18"/>
<text text-anchor="middle" x="271.075" y="-1904.29" font-family="Times,serif" font-size="14.00">10612</text>
</a>
</g>
</g>
<!-- 4529&#45;&gt;10612 -->
<g id="edge51" class="edge"><title>4529&#45;&gt;10612</title>
<path fill="none" stroke="black" d="M345.774,-1798.55C329.391,-1822.56 299.398,-1866.5 282.837,-1890.76"/>
</g>
<!-- 21808 -->
<g id="node60" class="node"><title>21808</title>
<g id="a_node60"><a xlink:title="PRE">
<ellipse fill="grey" stroke="black" cx="350.987" cy="-1933.3" rx="32.4942" ry="18"/>
<text text-anchor="middle" x="350.987" y="-1929.6" font-family="Times,serif" font-size="14.00">21808</text>
</a>
</g>
</g>
<!-- 4529&#45;&gt;21808 -->
<g id="edge65" class="edge"><title>4529&#45;&gt;21808</title>
<path fill="none" stroke="black" d="M356.461,-1800.07C355.265,-1829.19 352.939,-1885.8 351.741,-1914.96"/>
</g>
<!-- 23925 -->
<g id="node69" class="node"><title>23925</title>
<g id="a_node69"><a xlink:title="PRE">
<ellipse fill="grey" stroke="black" cx="226.652" cy="-1860.31" rx="32.4942" ry="18"/>
<text text-anchor="middle" x="226.652" y="-1856.61" font-family="Times,serif" font-size="14.00">23925</text>
</a>
</g>
</g>
<!-- 4529&#45;&gt;23925 -->
<g id="edge46" class="edge"><title>4529&#45;&gt;23925</title>
<path fill="none" stroke="black" d="M336.525,-1794.24C312.653,-1808.59 273.542,-1832.11 248.992,-1846.88"/>
</g>
<!-- 14870 -->
<g id="node70" class="node"><title>14870</title>
<g id="a_node70"><a xlink:title="Day_0">
<ellipse fill="#07ffd1" stroke="black" cx="32.3171" cy="-822.396" rx="32.4942" ry="18"/>
<text text-anchor="middle" x="32.3171" y="-818.696" font-family="Times,serif" font-size="14.00">14870</text>
</a>
</g>
</g>
<!-- 7282&#45;&gt;14870 -->
<g id="edge55" class="edge"><title>7282&#45;&gt;14870</title>
<path fill="none" stroke="black" d="M175.965,-850.571C145.161,-844.529 95.3478,-834.759 63.2204,-828.458"/>
</g>
</g>
</svg>
