<?xml version="1.0" encoding="UTF-8" standalone="no"?>
<!DOCTYPE svg PUBLIC "-//W3C//DTD SVG 1.1//EN"
 "http://www.w3.org/Graphics/SVG/1.1/DTD/svg11.dtd">
<!-- Generated by graphviz version 2.38.0 (20140413.2041)
 -->
<!-- Title: %3 Pages: 1 -->
<svg width="1976pt" height="1210pt"
 viewBox="0.00 0.00 1976.00 1210.00" xmlns="http://www.w3.org/2000/svg" xmlns:xlink="http://www.w3.org/1999/xlink">
<g id="graph0" class="graph" transform="scale(1 1) rotate(0) translate(4 1206)">
<title>%3</title>
<polygon fill="white" stroke="none" points="-4,4 -4,-1206 1972,-1206 1972,4 -4,4"/>
<!-- 511 -->
<g id="node1" class="node"><title>511</title>
<g id="a_node1"><a xlink:title="3rd_week">
<ellipse fill="#ffffff" stroke="black" cx="1512.45" cy="-716.997" rx="27" ry="18"/>
<text text-anchor="middle" x="1512.45" y="-713.297" font-family="Times,serif" font-size="14.00">511</text>
</a>
</g>
</g>
<!-- 13710 -->
<g id="node15" class="node"><title>13710</title>
<g id="a_node15"><a xlink:title="3rd_week">
<ellipse fill="#ffffff" stroke="black" cx="1397.16" cy="-607.447" rx="32.4942" ry="18"/>
<text text-anchor="middle" x="1397.16" y="-603.747" font-family="Times,serif" font-size="14.00">13710</text>
</a>
</g>
</g>
<!-- 511&#45;&gt;13710 -->
<g id="edge39" class="edge"><title>511&#45;&gt;13710</title>
<path fill="none" stroke="black" d="M1496.9,-702.223C1475.14,-681.548 1435.79,-644.156 1413.58,-623.046"/>
</g>
<!-- 1934 -->
<g id="node2" class="node"><title>1934</title>
<g id="a_node2"><a xlink:title="3rd_week">
<ellipse fill="#ffffff" stroke="black" cx="1939.47" cy="-883.06" rx="28.6953" ry="18"/>
<text text-anchor="middle" x="1939.47" y="-879.36" font-family="Times,serif" font-size="14.00">1934</text>
</a>
</g>
</g>
<!-- 29165 -->
<g id="node36" class="node"><title>29165</title>
<g id="a_node36"><a xlink:title="3rd_week">
<ellipse fill="#ffffff" stroke="black" cx="1793.29" cy="-810.397" rx="32.4942" ry="18"/>
<text text-anchor="middle" x="1793.29" y="-806.697" font-family="Times,serif" font-size="14.00">29165</text>
</a>
</g>
</g>
<!-- 1934&#45;&gt;29165 -->
<g id="edge41" class="edge"><title>1934&#45;&gt;29165</title>
<path fill="none" stroke="black" d="M1916.95,-871.865C1890.04,-858.489 1845.19,-836.197 1817.54,-822.452"/>
</g>
<!-- 1968 -->
<g id="node3" class="node"><title>1968</title>
<g id="a_node3"><a xlink:title="3rd_week">
<ellipse fill="#ffffff" stroke="black" cx="1520.07" cy="-505.972" rx="28.6953" ry="18"/>
<text text-anchor="middle" x="1520.07" y="-502.272" font-family="Times,serif" font-size="14.00">1968</text>
</a>
</g>
</g>
<!-- 1968&#45;&gt;13710 -->
<g id="edge13" class="edge"><title>1968&#45;&gt;13710</title>
<path fill="none" stroke="black" d="M1502.72,-520.296C1479.7,-539.308 1439.21,-572.737 1415.63,-592.202"/>
</g>
<!-- 1993 -->
<g id="node4" class="node"><title>1993</title>
<g id="a_node4"><a xlink:title="3rd_week">
<ellipse fill="#ffffff" stroke="black" cx="1150.59" cy="-17.8424" rx="28.6953" ry="18"/>
<text text-anchor="middle" x="1150.59" y="-14.1424" font-family="Times,serif" font-size="14.00">1993</text>
</a>
</g>
</g>
<!-- 21255 -->
<g id="node26" class="node"><title>21255</title>
<g id="a_node26"><a xlink:title="3rd_week">
<ellipse fill="#ffffff" stroke="black" cx="1218.14" cy="-192.971" rx="32.4942" ry="18"/>
<text text-anchor="middle" x="1218.14" y="-189.271" font-family="Times,serif" font-size="14.00">21255</text>
</a>
</g>
</g>
<!-- 1993&#45;&gt;21255 -->
<g id="edge2" class="edge"><title>1993&#45;&gt;21255</title>
<path fill="none" stroke="black" d="M1157.44,-35.5984C1170.39,-69.1644 1198.31,-141.566 1211.27,-175.168"/>
</g>
<!-- 2873 -->
<g id="node5" class="node"><title>2873</title>
<g id="a_node5"><a xlink:title="3rd_week">
<ellipse fill="#ffffff" stroke="black" cx="1597.97" cy="-708.939" rx="28.6953" ry="18"/>
<text text-anchor="middle" x="1597.97" y="-705.239" font-family="Times,serif" font-size="14.00">2873</text>
</a>
</g>
</g>
<!-- 2873&#45;&gt;13710 -->
<g id="edge16" class="edge"><title>2873&#45;&gt;13710</title>
<path fill="none" stroke="black" d="M1575.33,-697.494C1537.17,-678.209 1460.41,-639.412 1421.28,-619.637"/>
</g>
<!-- 2873&#45;&gt;29165 -->
<g id="edge38" class="edge"><title>2873&#45;&gt;29165</title>
<path fill="none" stroke="black" d="M1620.38,-720.577C1657.45,-739.836 1731.24,-778.166 1769.32,-797.947"/>
</g>
<!-- 3144 -->
<g id="node6" class="node"><title>3144</title>
<g id="a_node6"><a xlink:title="3rd_week">
<ellipse fill="#ffffff" stroke="black" cx="1326.35" cy="-720.082" rx="28.6953" ry="18"/>
<text text-anchor="middle" x="1326.35" y="-716.382" font-family="Times,serif" font-size="14.00">3144</text>
</a>
</g>
</g>
<!-- 3144&#45;&gt;13710 -->
<g id="edge14" class="edge"><title>3144&#45;&gt;13710</title>
<path fill="none" stroke="black" d="M1337.11,-702.975C1350.42,-681.805 1372.95,-645.959 1386.31,-624.715"/>
</g>
<!-- 7067 -->
<g id="node7" class="node"><title>7067</title>
<g id="a_node7"><a xlink:title="3rd_week">
<ellipse fill="#ffffff" stroke="black" cx="1347.02" cy="-430.816" rx="28.6953" ry="18"/>
<text text-anchor="middle" x="1347.02" y="-427.116" font-family="Times,serif" font-size="14.00">7067</text>
</a>
</g>
</g>
<!-- 7067&#45;&gt;13710 -->
<g id="edge50" class="edge"><title>7067&#45;&gt;13710</title>
<path fill="none" stroke="black" d="M1352.1,-448.724C1361.71,-482.578 1382.44,-555.601 1392.07,-589.491"/>
</g>
<!-- 8825 -->
<g id="node8" class="node"><title>8825</title>
<g id="a_node8"><a xlink:title="3rd_week">
<ellipse fill="#ffffff" stroke="black" cx="1781.33" cy="-471.55" rx="28.6953" ry="18"/>
<text text-anchor="middle" x="1781.33" y="-467.85" font-family="Times,serif" font-size="14.00">8825</text>
</a>
</g>
</g>
<!-- 14229 -->
<g id="node16" class="node"><title>14229</title>
<g id="a_node16"><a xlink:title="3rd_week">
<ellipse fill="#ffffff" stroke="black" cx="1618.1" cy="-527.485" rx="32.4942" ry="18"/>
<text text-anchor="middle" x="1618.1" y="-523.785" font-family="Times,serif" font-size="14.00">14229</text>
</a>
</g>
</g>
<!-- 8825&#45;&gt;14229 -->
<g id="edge35" class="edge"><title>8825&#45;&gt;14229</title>
<path fill="none" stroke="black" d="M1756.18,-480.167C1726.41,-490.372 1676.95,-507.318 1646.02,-517.92"/>
</g>
<!-- 8853 -->
<g id="node9" class="node"><title>8853</title>
<g id="a_node9"><a xlink:title="3rd_week">
<ellipse fill="#ffffff" stroke="black" cx="1535.09" cy="-206.854" rx="28.6953" ry="18"/>
<text text-anchor="middle" x="1535.09" y="-203.154" font-family="Times,serif" font-size="14.00">8853</text>
</a>
</g>
</g>
<!-- 19733 -->
<g id="node22" class="node"><title>19733</title>
<g id="a_node22"><a xlink:title="3rd_week">
<ellipse fill="#ffffff" stroke="black" cx="1454.79" cy="-357.43" rx="32.4942" ry="18"/>
<text text-anchor="middle" x="1454.79" y="-353.73" font-family="Times,serif" font-size="14.00">19733</text>
</a>
</g>
</g>
<!-- 8853&#45;&gt;19733 -->
<g id="edge18" class="edge"><title>8853&#45;&gt;19733</title>
<path fill="none" stroke="black" d="M1525.88,-224.127C1510.47,-253.018 1479.64,-310.83 1464.14,-339.895"/>
</g>
<!-- 9271 -->
<g id="node10" class="node"><title>9271</title>
<g id="a_node10"><a xlink:title="3rd_week">
<ellipse fill="#ffffff" stroke="black" cx="1624.07" cy="-630.916" rx="28.6953" ry="18"/>
<text text-anchor="middle" x="1624.07" y="-627.216" font-family="Times,serif" font-size="14.00">9271</text>
</a>
</g>
</g>
<!-- 9271&#45;&gt;13710 -->
<g id="edge48" class="edge"><title>9271&#45;&gt;13710</title>
<path fill="none" stroke="black" d="M1595.79,-627.991C1553.5,-623.617 1473.99,-615.393 1429.47,-610.788"/>
</g>
<!-- 20427 -->
<g id="node24" class="node"><title>20427</title>
<g id="a_node24"><a xlink:title="3rd_week">
<ellipse fill="#ffffff" stroke="black" cx="1796.86" cy="-632.982" rx="32.4942" ry="18"/>
<text text-anchor="middle" x="1796.86" y="-629.282" font-family="Times,serif" font-size="14.00">20427</text>
</a>
</g>
</g>
<!-- 9271&#45;&gt;20427 -->
<g id="edge40" class="edge"><title>9271&#45;&gt;20427</title>
<path fill="none" stroke="black" d="M1652.99,-631.262C1683.73,-631.629 1732.25,-632.209 1764.31,-632.593"/>
</g>
<!-- 9593 -->
<g id="node11" class="node"><title>9593</title>
<g id="a_node11"><a xlink:title="3rd_week">
<ellipse fill="#ffffff" stroke="black" cx="1098.7" cy="-707.408" rx="28.6953" ry="18"/>
<text text-anchor="middle" x="1098.7" y="-703.708" font-family="Times,serif" font-size="14.00">9593</text>
</a>
</g>
</g>
<!-- 9593&#45;&gt;13710 -->
<g id="edge30" class="edge"><title>9593&#45;&gt;13710</title>
<path fill="none" stroke="black" d="M1124.14,-698.885C1179.69,-680.283 1311.42,-636.163 1369.19,-616.815"/>
</g>
<!-- 15725 -->
<g id="node47" class="node"><title>15725</title>
<g id="a_node47"><a xlink:title="3rd_week">
<ellipse fill="#ffffff" stroke="black" cx="850.446" cy="-800.915" rx="32.4942" ry="18"/>
<text text-anchor="middle" x="850.446" y="-797.215" font-family="Times,serif" font-size="14.00">15725</text>
</a>
</g>
</g>
<!-- 9593&#45;&gt;15725 -->
<g id="edge46" class="edge"><title>9593&#45;&gt;15725</title>
<path fill="none" stroke="black" d="M1073.99,-716.716C1027.26,-734.316 926.291,-772.347 877.682,-790.656"/>
</g>
<!-- 10759 -->
<g id="node12" class="node"><title>10759</title>
<g id="a_node12"><a xlink:title="3rd_week">
<ellipse fill="#ffffff" stroke="black" cx="1374.64" cy="-769.253" rx="32.4942" ry="18"/>
<text text-anchor="middle" x="1374.64" y="-765.553" font-family="Times,serif" font-size="14.00">10759</text>
</a>
</g>
</g>
<!-- 10759&#45;&gt;13710 -->
<g id="edge32" class="edge"><title>10759&#45;&gt;13710</title>
<path fill="none" stroke="black" d="M1377.18,-751.006C1381.5,-719.93 1390.26,-657.075 1394.6,-625.875"/>
</g>
<!-- 11888 -->
<g id="node13" class="node"><title>11888</title>
<g id="a_node13"><a xlink:title="3rd_week">
<ellipse fill="#ffffff" stroke="black" cx="1562.89" cy="-446.532" rx="32.4942" ry="18"/>
<text text-anchor="middle" x="1562.89" y="-442.832" font-family="Times,serif" font-size="14.00">11888</text>
</a>
</g>
</g>
<!-- 11888&#45;&gt;13710 -->
<g id="edge27" class="edge"><title>11888&#45;&gt;13710</title>
<path fill="none" stroke="black" d="M1546.7,-462.254C1515.1,-492.938 1445.52,-560.498 1413.67,-591.423"/>
</g>
<!-- 19398 -->
<g id="node21" class="node"><title>19398</title>
<g id="a_node21"><a xlink:title="3rd_week">
<ellipse fill="#ffffff" stroke="black" cx="1713.31" cy="-313.506" rx="32.4942" ry="18"/>
<text text-anchor="middle" x="1713.31" y="-309.806" font-family="Times,serif" font-size="14.00">19398</text>
</a>
</g>
</g>
<!-- 11888&#45;&gt;19398 -->
<g id="edge11" class="edge"><title>11888&#45;&gt;19398</title>
<path fill="none" stroke="black" d="M1580.14,-431.272C1609.01,-405.748 1666.76,-354.675 1695.8,-328.998"/>
</g>
<!-- 12712 -->
<g id="node14" class="node"><title>12712</title>
<g id="a_node14"><a xlink:title="3rd_week">
<ellipse fill="#ffffff" stroke="black" cx="1487.89" cy="-429.027" rx="32.4942" ry="18"/>
<text text-anchor="middle" x="1487.89" y="-425.327" font-family="Times,serif" font-size="14.00">12712</text>
</a>
</g>
</g>
<!-- 12712&#45;&gt;13710 -->
<g id="edge43" class="edge"><title>12712&#45;&gt;13710</title>
<path fill="none" stroke="black" d="M1479.03,-446.459C1461.68,-480.569 1423.44,-555.777 1406.06,-589.944"/>
</g>
<!-- 13710&#45;&gt;14229 -->
<g id="edge17" class="edge"><title>13710&#45;&gt;14229</title>
<path fill="none" stroke="black" d="M1424.7,-597.481C1467.15,-582.117 1548.12,-552.815 1590.57,-537.45"/>
</g>
<!-- 14509 -->
<g id="node17" class="node"><title>14509</title>
<g id="a_node17"><a xlink:title="3rd_week">
<ellipse fill="#ffffff" stroke="black" cx="1542.36" cy="-573.582" rx="32.4942" ry="18"/>
<text text-anchor="middle" x="1542.36" y="-569.882" font-family="Times,serif" font-size="14.00">14509</text>
</a>
</g>
</g>
<!-- 13710&#45;&gt;14509 -->
<g id="edge6" class="edge"><title>13710&#45;&gt;14509</title>
<path fill="none" stroke="black" d="M1427.25,-600.43C1452.17,-594.618 1487.41,-586.399 1512.32,-580.589"/>
</g>
<!-- 15863 -->
<g id="node18" class="node"><title>15863</title>
<g id="a_node18"><a xlink:title="3rd_week">
<ellipse fill="#ffffff" stroke="black" cx="1449.93" cy="-773.997" rx="32.4942" ry="18"/>
<text text-anchor="middle" x="1449.93" y="-770.297" font-family="Times,serif" font-size="14.00">15863</text>
</a>
</g>
</g>
<!-- 13710&#45;&gt;15863 -->
<g id="edge12" class="edge"><title>13710&#45;&gt;15863</title>
<path fill="none" stroke="black" d="M1402.81,-625.271C1412.94,-657.243 1434.09,-723.988 1444.24,-756.049"/>
</g>
<!-- 18124 -->
<g id="node19" class="node"><title>18124</title>
<g id="a_node19"><a xlink:title="3rd_week">
<ellipse fill="#ffffff" stroke="black" cx="1267.77" cy="-451.608" rx="32.4942" ry="18"/>
<text text-anchor="middle" x="1267.77" y="-447.908" font-family="Times,serif" font-size="14.00">18124</text>
</a>
</g>
</g>
<!-- 13710&#45;&gt;18124 -->
<g id="edge42" class="edge"><title>13710&#45;&gt;18124</title>
<path fill="none" stroke="black" d="M1383.56,-591.064C1358.77,-561.212 1306.52,-498.276 1281.58,-468.241"/>
</g>
<!-- 19308 -->
<g id="node20" class="node"><title>19308</title>
<g id="a_node20"><a xlink:title="3rd_week">
<ellipse fill="#ffffff" stroke="black" cx="1394.32" cy="-827.323" rx="32.4942" ry="18"/>
<text text-anchor="middle" x="1394.32" y="-823.623" font-family="Times,serif" font-size="14.00">19308</text>
</a>
</g>
</g>
<!-- 13710&#45;&gt;19308 -->
<g id="edge21" class="edge"><title>13710&#45;&gt;19308</title>
<path fill="none" stroke="black" d="M1396.93,-625.815C1396.39,-667.307 1395.09,-767.867 1394.56,-809.162"/>
</g>
<!-- 13710&#45;&gt;19733 -->
<g id="edge24" class="edge"><title>13710&#45;&gt;19733</title>
<path fill="none" stroke="black" d="M1401.31,-589.466C1411.92,-543.448 1439.96,-421.791 1450.61,-375.583"/>
</g>
<!-- 20250 -->
<g id="node23" class="node"><title>20250</title>
<g id="a_node23"><a xlink:title="3rd_week">
<ellipse fill="#ffffff" stroke="black" cx="1536" cy="-663.443" rx="32.4942" ry="18"/>
<text text-anchor="middle" x="1536" y="-659.743" font-family="Times,serif" font-size="14.00">20250</text>
</a>
</g>
</g>
<!-- 13710&#45;&gt;20250 -->
<g id="edge3" class="edge"><title>13710&#45;&gt;20250</title>
<path fill="none" stroke="black" d="M1423.61,-618.111C1448.31,-628.075 1484.99,-642.867 1509.66,-652.818"/>
</g>
<!-- 21101 -->
<g id="node25" class="node"><title>21101</title>
<g id="a_node25"><a xlink:title="3rd_week">
<ellipse fill="#ffffff" stroke="black" cx="1418.93" cy="-487.904" rx="32.4942" ry="18"/>
<text text-anchor="middle" x="1418.93" y="-484.204" font-family="Times,serif" font-size="14.00">21101</text>
</a>
</g>
</g>
<!-- 13710&#45;&gt;21101 -->
<g id="edge34" class="edge"><title>13710&#45;&gt;21101</title>
<path fill="none" stroke="black" d="M1400.47,-589.291C1404.58,-566.692 1411.57,-528.335 1415.66,-505.839"/>
</g>
<!-- 23201 -->
<g id="node28" class="node"><title>23201</title>
<g id="a_node28"><a xlink:title="3rd_week">
<ellipse fill="#ffffff" stroke="black" cx="1233.1" cy="-667.241" rx="32.4942" ry="18"/>
<text text-anchor="middle" x="1233.1" y="-663.541" font-family="Times,serif" font-size="14.00">23201</text>
</a>
</g>
</g>
<!-- 13710&#45;&gt;23201 -->
<g id="edge22" class="edge"><title>13710&#45;&gt;23201</title>
<path fill="none" stroke="black" d="M1369.7,-617.455C1339.33,-628.526 1290.68,-646.256 1260.38,-657.3"/>
</g>
<!-- 23489 -->
<g id="node29" class="node"><title>23489</title>
<g id="a_node29"><a xlink:title="3rd_week">
<ellipse fill="#ffffff" stroke="black" cx="1214.35" cy="-558.515" rx="32.4942" ry="18"/>
<text text-anchor="middle" x="1214.35" y="-554.815" font-family="Times,serif" font-size="14.00">23489</text>
</a>
</g>
</g>
<!-- 13710&#45;&gt;23489 -->
<g id="edge19" class="edge"><title>13710&#45;&gt;23489</title>
<path fill="none" stroke="black" d="M1367.79,-599.585C1333.68,-590.454 1277.73,-575.48 1243.65,-566.358"/>
</g>
<!-- 24037 -->
<g id="node30" class="node"><title>24037</title>
<g id="a_node30"><a xlink:title="3rd_week">
<ellipse fill="#ffffff" stroke="black" cx="1282.49" cy="-775.721" rx="32.4942" ry="18"/>
<text text-anchor="middle" x="1282.49" y="-772.021" font-family="Times,serif" font-size="14.00">24037</text>
</a>
</g>
</g>
<!-- 13710&#45;&gt;24037 -->
<g id="edge25" class="edge"><title>13710&#45;&gt;24037</title>
<path fill="none" stroke="black" d="M1385.54,-624.508C1363.56,-656.76 1316.15,-726.328 1294.15,-758.615"/>
</g>
<!-- 25354 -->
<g id="node31" class="node"><title>25354</title>
<g id="a_node31"><a xlink:title="3rd_week">
<ellipse fill="#ffffff" stroke="black" cx="1319.83" cy="-510.52" rx="32.4942" ry="18"/>
<text text-anchor="middle" x="1319.83" y="-506.82" font-family="Times,serif" font-size="14.00">25354</text>
</a>
</g>
</g>
<!-- 13710&#45;&gt;25354 -->
<g id="edge31" class="edge"><title>13710&#45;&gt;25354</title>
<path fill="none" stroke="black" d="M1383.69,-590.564C1369.5,-572.773 1347.28,-544.927 1333.15,-527.21"/>
</g>
<!-- 26219 -->
<g id="node32" class="node"><title>26219</title>
<g id="a_node32"><a xlink:title="3rd_week">
<ellipse fill="#ffffff" stroke="black" cx="1254.13" cy="-720.306" rx="32.4942" ry="18"/>
<text text-anchor="middle" x="1254.13" y="-716.606" font-family="Times,serif" font-size="14.00">26219</text>
</a>
</g>
</g>
<!-- 13710&#45;&gt;26219 -->
<g id="edge36" class="edge"><title>13710&#45;&gt;26219</title>
<path fill="none" stroke="black" d="M1378.46,-622.201C1351.05,-643.831 1300.25,-683.917 1272.83,-705.548"/>
</g>
<!-- 29124 -->
<g id="node35" class="node"><title>29124</title>
<g id="a_node35"><a xlink:title="3rd_week">
<ellipse fill="#ffffff" stroke="black" cx="1211.16" cy="-613.152" rx="32.4942" ry="18"/>
<text text-anchor="middle" x="1211.16" y="-609.452" font-family="Times,serif" font-size="14.00">29124</text>
</a>
</g>
</g>
<!-- 13710&#45;&gt;29124 -->
<g id="edge45" class="edge"><title>13710&#45;&gt;29124</title>
<path fill="none" stroke="black" d="M1364.34,-608.454C1330.34,-609.497 1277.54,-611.116 1243.66,-612.155"/>
</g>
<!-- 29450 -->
<g id="node37" class="node"><title>29450</title>
<g id="a_node37"><a xlink:title="3rd_week">
<ellipse fill="#ffffff" stroke="black" cx="1221.96" cy="-503.212" rx="32.4942" ry="18"/>
<text text-anchor="middle" x="1221.96" y="-499.512" font-family="Times,serif" font-size="14.00">29450</text>
</a>
</g>
</g>
<!-- 13710&#45;&gt;29450 -->
<g id="edge28" class="edge"><title>13710&#45;&gt;29450</title>
<path fill="none" stroke="black" d="M1374.97,-594.246C1341.37,-574.25 1277.91,-536.5 1244.25,-516.471"/>
</g>
<!-- 29758 -->
<g id="node38" class="node"><title>29758</title>
<g id="a_node38"><a xlink:title="3rd_week">
<ellipse fill="#ffffff" stroke="black" cx="1527.9" cy="-797.321" rx="32.4942" ry="18"/>
<text text-anchor="middle" x="1527.9" y="-793.621" font-family="Times,serif" font-size="14.00">29758</text>
</a>
</g>
</g>
<!-- 13710&#45;&gt;29758 -->
<g id="edge15" class="edge"><title>13710&#45;&gt;29758</title>
<path fill="none" stroke="black" d="M1408.77,-624.297C1433.51,-660.238 1491.25,-744.087 1516.14,-780.236"/>
</g>
<!-- 32479 -->
<g id="node39" class="node"><title>32479</title>
<g id="a_node39"><a xlink:title="3rd_week">
<ellipse fill="#ffffff" stroke="black" cx="1294.49" cy="-372.704" rx="32.4942" ry="18"/>
<text text-anchor="middle" x="1294.49" y="-369.004" font-family="Times,serif" font-size="14.00">32479</text>
</a>
</g>
</g>
<!-- 13710&#45;&gt;32479 -->
<g id="edge26" class="edge"><title>13710&#45;&gt;32479</title>
<path fill="none" stroke="black" d="M1389.45,-589.803C1370.37,-546.193 1321.18,-433.72 1302.15,-390.232"/>
</g>
<!-- 28209 -->
<g id="node34" class="node"><title>28209</title>
<g id="a_node34"><a xlink:title="3rd_week">
<ellipse fill="#ffffff" stroke="black" cx="1399.28" cy="-1026.89" rx="32.4942" ry="18"/>
<text text-anchor="middle" x="1399.28" y="-1023.19" font-family="Times,serif" font-size="14.00">28209</text>
</a>
</g>
</g>
<!-- 19308&#45;&gt;28209 -->
<g id="edge20" class="edge"><title>19308&#45;&gt;28209</title>
<path fill="none" stroke="black" d="M1394.77,-845.385C1395.71,-883.285 1397.88,-970.736 1398.83,-1008.72"/>
</g>
<!-- 26617 -->
<g id="node33" class="node"><title>26617</title>
<g id="a_node33"><a xlink:title="3rd_week">
<ellipse fill="#ffffff" stroke="black" cx="1462.05" cy="-183.255" rx="32.4942" ry="18"/>
<text text-anchor="middle" x="1462.05" y="-179.555" font-family="Times,serif" font-size="14.00">26617</text>
</a>
</g>
</g>
<!-- 19733&#45;&gt;26617 -->
<g id="edge37" class="edge"><title>19733&#45;&gt;26617</title>
<path fill="none" stroke="black" d="M1455.55,-339.119C1456.95,-305.58 1459.91,-234.676 1461.3,-201.32"/>
</g>
<!-- 21255&#45;&gt;32479 -->
<g id="edge49" class="edge"><title>21255&#45;&gt;32479</title>
<path fill="none" stroke="black" d="M1225.6,-210.532C1240.2,-244.892 1272.38,-320.654 1287,-355.072"/>
</g>
<!-- 22213 -->
<g id="node27" class="node"><title>22213</title>
<g id="a_node27"><a xlink:title="3rd_week">
<ellipse fill="#ffffff" stroke="black" cx="1641.58" cy="-965.599" rx="32.4942" ry="18"/>
<text text-anchor="middle" x="1641.58" y="-961.899" font-family="Times,serif" font-size="14.00">22213</text>
</a>
</g>
</g>
<!-- 22213&#45;&gt;29758 -->
<g id="edge5" class="edge"><title>22213&#45;&gt;29758</title>
<path fill="none" stroke="black" d="M1630.06,-948.538C1608.27,-916.285 1561.27,-846.715 1539.46,-814.427"/>
</g>
<!-- 5951 -->
<g id="node40" class="node"><title>5951</title>
<g id="a_node40"><a xlink:title="3rd_week">
<ellipse fill="#ffffff" stroke="black" cx="393.137" cy="-965.775" rx="28.6953" ry="18"/>
<text text-anchor="middle" x="393.137" y="-962.075" font-family="Times,serif" font-size="14.00">5951</text>
</a>
</g>
</g>
<!-- 32675 -->
<g id="node42" class="node"><title>32675</title>
<g id="a_node42"><a xlink:title="3rd_week">
<ellipse fill="#ffffff" stroke="black" cx="584.912" cy="-896.335" rx="32.4942" ry="18"/>
<text text-anchor="middle" x="584.912" y="-892.635" font-family="Times,serif" font-size="14.00">32675</text>
</a>
</g>
</g>
<!-- 5951&#45;&gt;32675 -->
<g id="edge10" class="edge"><title>5951&#45;&gt;32675</title>
<path fill="none" stroke="black" d="M418.208,-956.697C454.251,-943.646 520.455,-919.674 557.668,-906.2"/>
</g>
<!-- 11792 -->
<g id="node46" class="node"><title>11792</title>
<g id="a_node46"><a xlink:title="3rd_week">
<ellipse fill="#ffffff" stroke="black" cx="187.172" cy="-1040.47" rx="32.4942" ry="18"/>
<text text-anchor="middle" x="187.172" y="-1036.77" font-family="Times,serif" font-size="14.00">11792</text>
</a>
</g>
</g>
<!-- 5951&#45;&gt;11792 -->
<g id="edge47" class="edge"><title>5951&#45;&gt;11792</title>
<path fill="none" stroke="black" d="M368.293,-974.785C329.454,-988.87 254.646,-1016 214.394,-1030.6"/>
</g>
<!-- 25524 -->
<g id="node41" class="node"><title>25524</title>
<g id="a_node41"><a xlink:title="3rd_week">
<ellipse fill="#ffffff" stroke="black" cx="32.2255" cy="-1047.59" rx="32.4942" ry="18"/>
<text text-anchor="middle" x="32.2255" y="-1043.89" font-family="Times,serif" font-size="14.00">25524</text>
</a>
</g>
</g>
<!-- 25524&#45;&gt;11792 -->
<g id="edge9" class="edge"><title>25524&#45;&gt;11792</title>
<path fill="none" stroke="black" d="M64.7074,-1046.1C91.1522,-1044.88 128.3,-1043.18 154.733,-1041.96"/>
</g>
<!-- 5613 -->
<g id="node45" class="node"><title>5613</title>
<g id="a_node45"><a xlink:title="3rd_week">
<ellipse fill="#ffffff" stroke="black" cx="494.41" cy="-1040.6" rx="28.6953" ry="18"/>
<text text-anchor="middle" x="494.41" y="-1036.9" font-family="Times,serif" font-size="14.00">5613</text>
</a>
</g>
</g>
<!-- 32675&#45;&gt;5613 -->
<g id="edge23" class="edge"><title>32675&#45;&gt;5613</title>
<path fill="none" stroke="black" d="M574.175,-913.451C556.757,-941.216 522.542,-995.757 505.133,-1023.51"/>
</g>
<!-- 32675&#45;&gt;15725 -->
<g id="edge29" class="edge"><title>32675&#45;&gt;15725</title>
<path fill="none" stroke="black" d="M612.329,-886.483C663.344,-868.15 772.276,-829.005 823.178,-810.713"/>
</g>
<!-- 31269 -->
<g id="node50" class="node"><title>31269</title>
<g id="a_node50"><a xlink:title="3rd_week">
<ellipse fill="#ffffff" stroke="black" cx="418.377" cy="-842.163" rx="32.4942" ry="18"/>
<text text-anchor="middle" x="418.377" y="-838.463" font-family="Times,serif" font-size="14.00">31269</text>
</a>
</g>
</g>
<!-- 32675&#45;&gt;31269 -->
<g id="edge4" class="edge"><title>32675&#45;&gt;31269</title>
<path fill="none" stroke="black" d="M556.662,-887.145C525.945,-877.154 477.149,-861.281 446.488,-851.307"/>
</g>
<!-- 1018 -->
<g id="node43" class="node"><title>1018</title>
<g id="a_node43"><a xlink:title="3rd_week">
<ellipse fill="#ffffff" stroke="black" cx="691.937" cy="-770.856" rx="28.6953" ry="18"/>
<text text-anchor="middle" x="691.937" y="-767.156" font-family="Times,serif" font-size="14.00">1018</text>
</a>
</g>
</g>
<!-- 1018&#45;&gt;15725 -->
<g id="edge7" class="edge"><title>1018&#45;&gt;15725</title>
<path fill="none" stroke="black" d="M719.547,-776.092C747.487,-781.39 790.595,-789.565 819.631,-795.071"/>
</g>
<!-- 4380 -->
<g id="node44" class="node"><title>4380</title>
<g id="a_node44"><a xlink:title="3rd_week">
<ellipse fill="#ffffff" stroke="black" cx="67.8863" cy="-1132.46" rx="28.6953" ry="18"/>
<text text-anchor="middle" x="67.8863" y="-1128.76" font-family="Times,serif" font-size="14.00">4380</text>
</a>
</g>
</g>
<!-- 4380&#45;&gt;11792 -->
<g id="edge44" class="edge"><title>4380&#45;&gt;11792</title>
<path fill="none" stroke="black" d="M86.0032,-1118.49C108.163,-1101.4 145.505,-1072.6 168.094,-1055.18"/>
</g>
<!-- 10786 -->
<g id="node51" class="node"><title>10786</title>
<g id="a_node51"><a xlink:title="3rd_week">
<ellipse fill="#ffffff" stroke="black" cx="397.845" cy="-1184.35" rx="32.4942" ry="18"/>
<text text-anchor="middle" x="397.845" y="-1180.65" font-family="Times,serif" font-size="14.00">10786</text>
</a>
</g>
</g>
<!-- 5613&#45;&gt;10786 -->
<g id="edge33" class="edge"><title>5613&#45;&gt;10786</title>
<path fill="none" stroke="black" d="M483.144,-1057.37C464.636,-1084.92 427.994,-1139.47 409.339,-1167.24"/>
</g>
<!-- 30341 -->
<g id="node49" class="node"><title>30341</title>
<g id="a_node49"><a xlink:title="3rd_week">
<ellipse fill="#ffffff" stroke="black" cx="750.22" cy="-932.893" rx="32.4942" ry="18"/>
<text text-anchor="middle" x="750.22" y="-929.193" font-family="Times,serif" font-size="14.00">30341</text>
</a>
</g>
</g>
<!-- 15725&#45;&gt;30341 -->
<g id="edge8" class="edge"><title>15725&#45;&gt;30341</title>
<path fill="none" stroke="black" d="M837.752,-817.63C818.578,-842.878 782.426,-890.484 763.127,-915.897"/>
</g>
<!-- 25870 -->
<g id="node48" class="node"><title>25870</title>
<g id="a_node48"><a xlink:title="3rd_week">
<ellipse fill="#ffffff" stroke="black" cx="248.505" cy="-793.082" rx="32.4942" ry="18"/>
<text text-anchor="middle" x="248.505" y="-789.382" font-family="Times,serif" font-size="14.00">25870</text>
</a>
</g>
</g>
<!-- 25870&#45;&gt;31269 -->
<g id="edge1" class="edge"><title>25870&#45;&gt;31269</title>
<path fill="none" stroke="black" d="M277.322,-801.408C308.559,-810.433 358.127,-824.755 389.419,-833.796"/>
</g>
</g>
</svg>
