<?xml version="1.0" encoding="UTF-8" standalone="no"?>
<!DOCTYPE svg PUBLIC "-//W3C//DTD SVG 1.1//EN"
 "http://www.w3.org/Graphics/SVG/1.1/DTD/svg11.dtd">
<!-- Generated by graphviz version 2.38.0 (20140413.2041)
 -->
<!-- Title: %3 Pages: 1 -->
<svg width="1619pt" height="1442pt"
 viewBox="0.00 0.00 1619.00 1442.00" xmlns="http://www.w3.org/2000/svg" xmlns:xlink="http://www.w3.org/1999/xlink">
<g id="graph0" class="graph" transform="scale(1 1) rotate(0) translate(4 1438)">
<title>%3</title>
<polygon fill="white" stroke="none" points="-4,4 -4,-1438 1615,-1438 1615,4 -4,4"/>
<!-- 786 -->
<g id="node1" class="node"><title>786</title>
<g id="a_node1"><a xlink:title="6th_week">
<ellipse fill="#07ffd1" stroke="black" cx="537.329" cy="-1062.61" rx="27" ry="18"/>
<text text-anchor="middle" x="537.329" y="-1058.91" font-family="Times,serif" font-size="14.00">786</text>
</a>
</g>
</g>
<!-- 23690 -->
<g id="node53" class="node"><title>23690</title>
<g id="a_node53"><a xlink:title="6th_week">
<ellipse fill="#07ffd1" stroke="black" cx="617.062" cy="-942.837" rx="32.4942" ry="18"/>
<text text-anchor="middle" x="617.062" y="-939.137" font-family="Times,serif" font-size="14.00">23690</text>
</a>
</g>
</g>
<!-- 786&#45;&gt;23690 -->
<g id="edge11" class="edge"><title>786&#45;&gt;23690</title>
<path fill="none" stroke="black" d="M548.416,-1045.96C563.563,-1023.2 590.58,-982.617 605.813,-959.735"/>
</g>
<!-- 1289 -->
<g id="node2" class="node"><title>1289</title>
<g id="a_node2"><a xlink:title="6th_week">
<ellipse fill="#07ffd1" stroke="black" cx="1134.21" cy="-766.452" rx="28.6953" ry="18"/>
<text text-anchor="middle" x="1134.21" y="-762.752" font-family="Times,serif" font-size="14.00">1289</text>
</a>
</g>
</g>
<!-- 18510 -->
<g id="node40" class="node"><title>18510</title>
<g id="a_node40"><a xlink:title="6th_week">
<ellipse fill="#07ffd1" stroke="black" cx="991.84" cy="-778.323" rx="32.4942" ry="18"/>
<text text-anchor="middle" x="991.84" y="-774.623" font-family="Times,serif" font-size="14.00">18510</text>
</a>
</g>
</g>
<!-- 1289&#45;&gt;18510 -->
<g id="edge9" class="edge"><title>1289&#45;&gt;18510</title>
<path fill="none" stroke="black" d="M1105.74,-768.826C1082.13,-770.795 1048.56,-773.593 1023.98,-775.642"/>
</g>
<!-- 1507 -->
<g id="node3" class="node"><title>1507</title>
<g id="a_node3"><a xlink:title="6th_week">
<ellipse fill="#07ffd1" stroke="black" cx="588.231" cy="-747.03" rx="28.6953" ry="18"/>
<text text-anchor="middle" x="588.231" y="-743.33" font-family="Times,serif" font-size="14.00">1507</text>
</a>
</g>
</g>
<!-- 7160 -->
<g id="node17" class="node"><title>7160</title>
<g id="a_node17"><a xlink:title="6th_week">
<ellipse fill="#07ffd1" stroke="black" cx="708.599" cy="-800.732" rx="28.6953" ry="18"/>
<text text-anchor="middle" x="708.599" y="-797.032" font-family="Times,serif" font-size="14.00">7160</text>
</a>
</g>
</g>
<!-- 1507&#45;&gt;7160 -->
<g id="edge56" class="edge"><title>1507&#45;&gt;7160</title>
<path fill="none" stroke="black" d="M611.725,-757.512C632.934,-766.974 663.974,-780.823 685.165,-790.277"/>
</g>
<!-- 1881 -->
<g id="node4" class="node"><title>1881</title>
<g id="a_node4"><a xlink:title="6th_week">
<ellipse fill="#07ffd1" stroke="black" cx="243.546" cy="-355.863" rx="28.6953" ry="18"/>
<text text-anchor="middle" x="243.546" y="-352.163" font-family="Times,serif" font-size="14.00">1881</text>
</a>
</g>
</g>
<!-- 26194 -->
<g id="node57" class="node"><title>26194</title>
<g id="a_node57"><a xlink:title="6th_week">
<ellipse fill="#07ffd1" stroke="black" cx="384.012" cy="-355.356" rx="32.4942" ry="18"/>
<text text-anchor="middle" x="384.012" y="-351.656" font-family="Times,serif" font-size="14.00">26194</text>
</a>
</g>
</g>
<!-- 1881&#45;&gt;26194 -->
<g id="edge5" class="edge"><title>1881&#45;&gt;26194</title>
<path fill="none" stroke="black" d="M272.31,-355.759C295.266,-355.677 327.429,-355.56 351.352,-355.474"/>
</g>
<!-- 2316 -->
<g id="node5" class="node"><title>2316</title>
<g id="a_node5"><a xlink:title="6th_week">
<ellipse fill="grey" stroke="black" cx="785.267" cy="-901.751" rx="28.6953" ry="18"/>
<text text-anchor="middle" x="785.267" y="-898.051" font-family="Times,serif" font-size="14.00">2316</text>
</a>
</g>
</g>
<!-- 2316&#45;&gt;7160 -->
<g id="edge13" class="edge"><title>2316&#45;&gt;7160</title>
<path fill="none" stroke="black" d="M772.607,-885.07C758.316,-866.24 735.217,-835.803 721.024,-817.103"/>
</g>
<!-- 2429 -->
<g id="node6" class="node"><title>2429</title>
<g id="a_node6"><a xlink:title="6th_week">
<ellipse fill="grey" stroke="black" cx="1582.76" cy="-738.591" rx="28.6953" ry="18"/>
<text text-anchor="middle" x="1582.76" y="-734.891" font-family="Times,serif" font-size="14.00">2429</text>
</a>
</g>
</g>
<!-- 4265 -->
<g id="node7" class="node"><title>4265</title>
<g id="a_node7"><a xlink:title="6th_week">
<ellipse fill="#07ffd1" stroke="black" cx="1430.81" cy="-748.481" rx="28.6953" ry="18"/>
<text text-anchor="middle" x="1430.81" y="-744.781" font-family="Times,serif" font-size="14.00">4265</text>
</a>
</g>
</g>
<!-- 2429&#45;&gt;4265 -->
<g id="edge50" class="edge"><title>2429&#45;&gt;4265</title>
<path fill="none" stroke="black" d="M1554.18,-740.452C1527.01,-742.22 1486.38,-744.864 1459.26,-746.629"/>
</g>
<!-- 21622 -->
<g id="node47" class="node"><title>21622</title>
<g id="a_node47"><a xlink:title="6th_week">
<ellipse fill="#07ffd1" stroke="black" cx="1248.17" cy="-760.634" rx="32.4942" ry="18"/>
<text text-anchor="middle" x="1248.17" y="-756.934" font-family="Times,serif" font-size="14.00">21622</text>
</a>
</g>
</g>
<!-- 4265&#45;&gt;21622 -->
<g id="edge29" class="edge"><title>4265&#45;&gt;21622</title>
<path fill="none" stroke="black" d="M1402.27,-750.38C1369.26,-752.576 1315.05,-756.184 1280.51,-758.482"/>
</g>
<!-- 4267 -->
<g id="node8" class="node"><title>4267</title>
<g id="a_node8"><a xlink:title="6th_week">
<ellipse fill="#ffffff" stroke="black" cx="901.668" cy="-1122.73" rx="28.6953" ry="18"/>
<text text-anchor="middle" x="901.668" y="-1119.03" font-family="Times,serif" font-size="14.00">4267</text>
</a>
</g>
</g>
<!-- 12693 -->
<g id="node24" class="node"><title>12693</title>
<g id="a_node24"><a xlink:title="6th_week">
<ellipse fill="#07ffd1" stroke="black" cx="770.98" cy="-1048.34" rx="32.4942" ry="18"/>
<text text-anchor="middle" x="770.98" y="-1044.64" font-family="Times,serif" font-size="14.00">12693</text>
</a>
</g>
</g>
<!-- 4267&#45;&gt;12693 -->
<g id="edge55" class="edge"><title>4267&#45;&gt;12693</title>
<path fill="none" stroke="black" d="M880.38,-1110.62C856.657,-1097.11 818.431,-1075.35 794.02,-1061.46"/>
</g>
<!-- 4415 -->
<g id="node9" class="node"><title>4415</title>
<g id="a_node9"><a xlink:title="6th_week">
<ellipse fill="#07ffd1" stroke="black" cx="1351.75" cy="-654.978" rx="28.6953" ry="18"/>
<text text-anchor="middle" x="1351.75" y="-651.278" font-family="Times,serif" font-size="14.00">4415</text>
</a>
</g>
</g>
<!-- 4415&#45;&gt;21622 -->
<g id="edge31" class="edge"><title>4415&#45;&gt;21622</title>
<path fill="none" stroke="black" d="M1336.47,-670.568C1317,-690.429 1283.52,-724.578 1263.86,-744.634"/>
</g>
<!-- 4659 -->
<g id="node10" class="node"><title>4659</title>
<g id="a_node10"><a xlink:title="6th_week">
<ellipse fill="#07ffd1" stroke="black" cx="520.276" cy="-804.173" rx="28.6953" ry="18"/>
<text text-anchor="middle" x="520.276" y="-800.473" font-family="Times,serif" font-size="14.00">4659</text>
</a>
</g>
</g>
<!-- 4659&#45;&gt;7160 -->
<g id="edge20" class="edge"><title>4659&#45;&gt;7160</title>
<path fill="none" stroke="black" d="M548.878,-803.65C584.274,-803.004 644.208,-801.909 679.728,-801.26"/>
</g>
<!-- 23362 -->
<g id="node51" class="node"><title>23362</title>
<g id="a_node51"><a xlink:title="6th_week">
<ellipse fill="#07ffd1" stroke="black" cx="377.247" cy="-774.5" rx="32.4942" ry="18"/>
<text text-anchor="middle" x="377.247" y="-770.8" font-family="Times,serif" font-size="14.00">23362</text>
</a>
</g>
</g>
<!-- 4659&#45;&gt;23362 -->
<g id="edge16" class="edge"><title>4659&#45;&gt;23362</title>
<path fill="none" stroke="black" d="M493.037,-798.522C468.721,-793.477 433.147,-786.097 407.857,-780.85"/>
</g>
<!-- 1061 -->
<g id="node61" class="node"><title>1061</title>
<g id="a_node61"><a xlink:title="6th_week">
<ellipse fill="#ffffff" stroke="black" cx="383.692" cy="-844.253" rx="28.6953" ry="18"/>
<text text-anchor="middle" x="383.692" y="-840.553" font-family="Times,serif" font-size="14.00">1061</text>
</a>
</g>
</g>
<!-- 4659&#45;&gt;1061 -->
<g id="edge17" class="edge"><title>4659&#45;&gt;1061</title>
<path fill="none" stroke="black" d="M494.264,-811.806C470.115,-818.892 434.338,-829.391 410.072,-836.512"/>
</g>
<!-- 4697 -->
<g id="node11" class="node"><title>4697</title>
<g id="a_node11"><a xlink:title="6th_week">
<ellipse fill="#07ffd1" stroke="black" cx="637.676" cy="-692.116" rx="28.6953" ry="18"/>
<text text-anchor="middle" x="637.676" y="-688.416" font-family="Times,serif" font-size="14.00">4697</text>
</a>
</g>
</g>
<!-- 4697&#45;&gt;7160 -->
<g id="edge48" class="edge"><title>4697&#45;&gt;7160</title>
<path fill="none" stroke="black" d="M648.758,-709.087C662.082,-729.492 684.306,-763.528 697.595,-783.88"/>
</g>
<!-- 4857 -->
<g id="node12" class="node"><title>4857</title>
<g id="a_node12"><a xlink:title="6th_week">
<ellipse fill="#07ffd1" stroke="black" cx="803.645" cy="-1169.71" rx="28.6953" ry="18"/>
<text text-anchor="middle" x="803.645" y="-1166.01" font-family="Times,serif" font-size="14.00">4857</text>
</a>
</g>
</g>
<!-- 4857&#45;&gt;12693 -->
<g id="edge28" class="edge"><title>4857&#45;&gt;12693</title>
<path fill="none" stroke="black" d="M798.825,-1151.8C792.649,-1128.85 782.005,-1089.3 775.82,-1066.32"/>
</g>
<!-- 5400 -->
<g id="node13" class="node"><title>5400</title>
<g id="a_node13"><a xlink:title="6th_week">
<ellipse fill="#07ffd1" stroke="black" cx="178.714" cy="-1415.69" rx="28.6953" ry="18"/>
<text text-anchor="middle" x="178.714" y="-1411.99" font-family="Times,serif" font-size="14.00">5400</text>
</a>
</g>
</g>
<!-- 26340 -->
<g id="node59" class="node"><title>26340</title>
<g id="a_node59"><a xlink:title="6th_week">
<ellipse fill="#07ffd1" stroke="black" cx="177.817" cy="-1273.71" rx="32.4942" ry="18"/>
<text text-anchor="middle" x="177.817" y="-1270.01" font-family="Times,serif" font-size="14.00">26340</text>
</a>
</g>
</g>
<!-- 5400&#45;&gt;26340 -->
<g id="edge47" class="edge"><title>5400&#45;&gt;26340</title>
<path fill="none" stroke="black" d="M178.598,-1397.42C178.426,-1370.15 178.104,-1319.13 177.932,-1291.91"/>
</g>
<!-- 5602 -->
<g id="node14" class="node"><title>5602</title>
<g id="a_node14"><a xlink:title="6th_week">
<ellipse fill="#07ffd1" stroke="black" cx="1090.03" cy="-887.569" rx="28.6953" ry="18"/>
<text text-anchor="middle" x="1090.03" y="-883.869" font-family="Times,serif" font-size="14.00">5602</text>
</a>
</g>
</g>
<!-- 5602&#45;&gt;18510 -->
<g id="edge6" class="edge"><title>5602&#45;&gt;18510</title>
<path fill="none" stroke="black" d="M1075.54,-871.449C1056.98,-850.794 1024.98,-815.195 1006.39,-794.508"/>
</g>
<!-- 6909 -->
<g id="node15" class="node"><title>6909</title>
<g id="a_node15"><a xlink:title="6th_week">
<ellipse fill="#07ffd1" stroke="black" cx="688.159" cy="-1169.12" rx="28.6953" ry="18"/>
<text text-anchor="middle" x="688.159" y="-1165.42" font-family="Times,serif" font-size="14.00">6909</text>
</a>
</g>
</g>
<!-- 6909&#45;&gt;12693 -->
<g id="edge46" class="edge"><title>6909&#45;&gt;12693</title>
<path fill="none" stroke="black" d="M699.675,-1152.33C715.409,-1129.38 743.473,-1088.46 759.295,-1065.38"/>
</g>
<!-- 6912 -->
<g id="node16" class="node"><title>6912</title>
<g id="a_node16"><a xlink:title="6th_week">
<ellipse fill="#07ffd1" stroke="black" cx="1365.39" cy="-850.692" rx="28.6953" ry="18"/>
<text text-anchor="middle" x="1365.39" y="-846.992" font-family="Times,serif" font-size="14.00">6912</text>
</a>
</g>
</g>
<!-- 6912&#45;&gt;21622 -->
<g id="edge3" class="edge"><title>6912&#45;&gt;21622</title>
<path fill="none" stroke="black" d="M1347.07,-836.621C1325.44,-819.999 1289.61,-792.468 1267.53,-775.505"/>
</g>
<!-- 11604 -->
<g id="node20" class="node"><title>11604</title>
<g id="a_node20"><a xlink:title="6th_week">
<ellipse fill="#07ffd1" stroke="black" cx="705.248" cy="-929.627" rx="32.4942" ry="18"/>
<text text-anchor="middle" x="705.248" y="-925.927" font-family="Times,serif" font-size="14.00">11604</text>
</a>
</g>
</g>
<!-- 7160&#45;&gt;11604 -->
<g id="edge60" class="edge"><title>7160&#45;&gt;11604</title>
<path fill="none" stroke="black" d="M708.126,-818.926C707.488,-843.492 706.356,-887.007 705.719,-911.525"/>
</g>
<!-- 11961 -->
<g id="node22" class="node"><title>11961</title>
<g id="a_node22"><a xlink:title="6th_week">
<ellipse fill="#07ffd1" stroke="black" cx="799.717" cy="-628.919" rx="32.4942" ry="18"/>
<text text-anchor="middle" x="799.717" y="-625.219" font-family="Times,serif" font-size="14.00">11961</text>
</a>
</g>
</g>
<!-- 7160&#45;&gt;11961 -->
<g id="edge35" class="edge"><title>7160&#45;&gt;11961</title>
<path fill="none" stroke="black" d="M717.669,-783.63C735.09,-750.781 773.051,-679.201 790.549,-646.207"/>
</g>
<!-- 7160&#45;&gt;12693 -->
<g id="edge37" class="edge"><title>7160&#45;&gt;12693</title>
<path fill="none" stroke="black" d="M713.086,-818.539C724.568,-864.115 754.922,-984.601 766.451,-1030.36"/>
</g>
<!-- 15177 -->
<g id="node29" class="node"><title>15177</title>
<g id="a_node29"><a xlink:title="6th_week">
<ellipse fill="#07ffd1" stroke="black" cx="832.08" cy="-761.171" rx="32.4942" ry="18"/>
<text text-anchor="middle" x="832.08" y="-757.471" font-family="Times,serif" font-size="14.00">15177</text>
</a>
</g>
</g>
<!-- 7160&#45;&gt;15177 -->
<g id="edge4" class="edge"><title>7160&#45;&gt;15177</title>
<path fill="none" stroke="black" d="M734.185,-792.535C754.529,-786.017 782.961,-776.908 803.944,-770.185"/>
</g>
<!-- 15300 -->
<g id="node31" class="node"><title>15300</title>
<g id="a_node31"><a xlink:title="6th_week">
<ellipse fill="#20ff05" stroke="black" cx="589.012" cy="-853.377" rx="32.4942" ry="18"/>
<text text-anchor="middle" x="589.012" y="-849.677" font-family="Times,serif" font-size="14.00">15300</text>
</a>
</g>
</g>
<!-- 7160&#45;&gt;15300 -->
<g id="edge57" class="edge"><title>7160&#45;&gt;15300</title>
<path fill="none" stroke="black" d="M684.973,-811.133C664.688,-820.063 635.509,-832.908 614.66,-842.086"/>
</g>
<!-- 15586 -->
<g id="node32" class="node"><title>15586</title>
<g id="a_node32"><a xlink:title="6th_week">
<ellipse fill="#07ffd1" stroke="black" cx="539.519" cy="-575.542" rx="32.4942" ry="18"/>
<text text-anchor="middle" x="539.519" y="-571.842" font-family="Times,serif" font-size="14.00">15586</text>
</a>
</g>
</g>
<!-- 7160&#45;&gt;15586 -->
<g id="edge7" class="edge"><title>7160&#45;&gt;15586</title>
<path fill="none" stroke="black" d="M696.167,-784.173C664.975,-742.63 583.656,-634.325 552.2,-592.431"/>
</g>
<!-- 7160&#45;&gt;18510 -->
<g id="edge39" class="edge"><title>7160&#45;&gt;18510</title>
<path fill="none" stroke="black" d="M737.054,-798.481C790.082,-794.285 903.684,-785.297 959.516,-780.88"/>
</g>
<!-- 20036 -->
<g id="node44" class="node"><title>20036</title>
<g id="a_node44"><a xlink:title="6th_week">
<ellipse fill="#07ffd1" stroke="black" cx="832.408" cy="-845.33" rx="32.4942" ry="18"/>
<text text-anchor="middle" x="832.408" y="-841.63" font-family="Times,serif" font-size="14.00">20036</text>
</a>
</g>
</g>
<!-- 7160&#45;&gt;20036 -->
<g id="edge38" class="edge"><title>7160&#45;&gt;20036</title>
<path fill="none" stroke="black" d="M733.654,-809.757C754.286,-817.189 783.505,-827.715 804.806,-835.387"/>
</g>
<!-- 22810 -->
<g id="node49" class="node"><title>22810</title>
<g id="a_node49"><a xlink:title="6th_week">
<ellipse fill="#ffffff" stroke="black" cx="699.042" cy="-629.599" rx="32.4942" ry="18"/>
<text text-anchor="middle" x="699.042" y="-625.899" font-family="Times,serif" font-size="14.00">22810</text>
</a>
</g>
</g>
<!-- 7160&#45;&gt;22810 -->
<g id="edge30" class="edge"><title>7160&#45;&gt;22810</title>
<path fill="none" stroke="black" d="M707.595,-782.741C705.759,-749.874 701.884,-680.485 700.048,-647.606"/>
</g>
<!-- 23246 -->
<g id="node50" class="node"><title>23246</title>
<g id="a_node50"><a xlink:title="6th_week">
<ellipse fill="#07ffd1" stroke="black" cx="523.336" cy="-959.851" rx="32.4942" ry="18"/>
<text text-anchor="middle" x="523.336" y="-956.151" font-family="Times,serif" font-size="14.00">23246</text>
</a>
</g>
</g>
<!-- 7160&#45;&gt;23246 -->
<g id="edge23" class="edge"><title>7160&#45;&gt;23246</title>
<path fill="none" stroke="black" d="M691.502,-815.416C656.478,-845.498 576.874,-913.868 541.205,-944.503"/>
</g>
<!-- 7160&#45;&gt;23690 -->
<g id="edge25" class="edge"><title>7160&#45;&gt;23690</title>
<path fill="none" stroke="black" d="M697.739,-817.591C680.217,-844.794 645.888,-898.087 628.193,-925.556"/>
</g>
<!-- 24216 -->
<g id="node54" class="node"><title>24216</title>
<g id="a_node54"><a xlink:title="6th_week">
<ellipse fill="#07ffd1" stroke="black" cx="777.321" cy="-697.063" rx="32.4942" ry="18"/>
<text text-anchor="middle" x="777.321" y="-693.363" font-family="Times,serif" font-size="14.00">24216</text>
</a>
</g>
</g>
<!-- 7160&#45;&gt;24216 -->
<g id="edge14" class="edge"><title>7160&#45;&gt;24216</title>
<path fill="none" stroke="black" d="M719.641,-784.076C732.389,-764.844 753.246,-733.381 766.079,-714.022"/>
</g>
<!-- 8644 -->
<g id="node18" class="node"><title>8644</title>
<g id="a_node18"><a xlink:title="6th_week">
<ellipse fill="#07ffd1" stroke="black" cx="1127.2" cy="-836.365" rx="28.6953" ry="18"/>
<text text-anchor="middle" x="1127.2" y="-832.665" font-family="Times,serif" font-size="14.00">8644</text>
</a>
</g>
</g>
<!-- 8644&#45;&gt;18510 -->
<g id="edge58" class="edge"><title>8644&#45;&gt;18510</title>
<path fill="none" stroke="black" d="M1103.31,-826.122C1079.33,-815.838 1042.49,-800.04 1017.8,-789.453"/>
</g>
<!-- 11091 -->
<g id="node19" class="node"><title>11091</title>
<g id="a_node19"><a xlink:title="6th_week">
<ellipse fill="#07ffd1" stroke="black" cx="32.3797" cy="-1267.19" rx="32.4942" ry="18"/>
<text text-anchor="middle" x="32.3797" y="-1263.49" font-family="Times,serif" font-size="14.00">11091</text>
</a>
</g>
</g>
<!-- 11091&#45;&gt;26340 -->
<g id="edge54" class="edge"><title>11091&#45;&gt;26340</title>
<path fill="none" stroke="black" d="M65.0187,-1268.65C88.9712,-1269.72 121.361,-1271.18 145.287,-1272.25"/>
</g>
<!-- 11842 -->
<g id="node21" class="node"><title>11842</title>
<g id="a_node21"><a xlink:title="6th_week">
<ellipse fill="grey" stroke="black" cx="294.749" cy="-168.784" rx="32.4942" ry="18"/>
<text text-anchor="middle" x="294.749" y="-165.084" font-family="Times,serif" font-size="14.00">11842</text>
</a>
</g>
</g>
<!-- 12839 -->
<g id="node26" class="node"><title>12839</title>
<g id="a_node26"><a xlink:title="6th_week">
<ellipse fill="#07ffd1" stroke="black" cx="268.501" cy="-18.1303" rx="32.4942" ry="18"/>
<text text-anchor="middle" x="268.501" y="-14.4303" font-family="Times,serif" font-size="14.00">12839</text>
</a>
</g>
</g>
<!-- 11842&#45;&gt;12839 -->
<g id="edge52" class="edge"><title>11842&#45;&gt;12839</title>
<path fill="none" stroke="black" d="M291.583,-150.612C286.538,-121.656 276.73,-65.3641 271.678,-36.3671"/>
</g>
<!-- 19500 -->
<g id="node43" class="node"><title>19500</title>
<g id="a_node43"><a xlink:title="6th_week">
<ellipse fill="#ffffff" stroke="black" cx="193.264" cy="-53.8998" rx="32.4942" ry="18"/>
<text text-anchor="middle" x="193.264" y="-50.1998" font-family="Times,serif" font-size="14.00">19500</text>
</a>
</g>
</g>
<!-- 11842&#45;&gt;19500 -->
<g id="edge32" class="edge"><title>11842&#45;&gt;19500</title>
<path fill="none" stroke="black" d="M280.209,-152.324C260.916,-130.485 227.056,-92.1536 207.778,-70.3295"/>
</g>
<!-- 11842&#45;&gt;26194 -->
<g id="edge36" class="edge"><title>11842&#45;&gt;26194</title>
<path fill="none" stroke="black" d="M303.147,-186.337C320.159,-221.896 358.523,-302.081 375.572,-337.715"/>
</g>
<!-- 16929 -->
<g id="node36" class="node"><title>16929</title>
<g id="a_node36"><a xlink:title="6th_week">
<ellipse fill="#07ffd1" stroke="black" cx="829.995" cy="-475.519" rx="32.4942" ry="18"/>
<text text-anchor="middle" x="829.995" y="-471.819" font-family="Times,serif" font-size="14.00">16929</text>
</a>
</g>
</g>
<!-- 11961&#45;&gt;16929 -->
<g id="edge22" class="edge"><title>11961&#45;&gt;16929</title>
<path fill="none" stroke="black" d="M803.249,-611.022C809.052,-581.621 820.542,-523.412 826.391,-493.777"/>
</g>
<!-- 17533 -->
<g id="node38" class="node"><title>17533</title>
<g id="a_node38"><a xlink:title="6th_week">
<ellipse fill="#07ffd1" stroke="black" cx="909.041" cy="-518.573" rx="32.4942" ry="18"/>
<text text-anchor="middle" x="909.041" y="-514.873" font-family="Times,serif" font-size="14.00">17533</text>
</a>
</g>
</g>
<!-- 11961&#45;&gt;17533 -->
<g id="edge10" class="edge"><title>11961&#45;&gt;17533</title>
<path fill="none" stroke="black" d="M815.38,-613.109C836.163,-592.132 872.639,-555.315 893.407,-534.353"/>
</g>
<!-- 12494 -->
<g id="node23" class="node"><title>12494</title>
<g id="a_node23"><a xlink:title="6th_week">
<ellipse fill="#ffffff" stroke="black" cx="700.572" cy="-481.491" rx="32.4942" ry="18"/>
<text text-anchor="middle" x="700.572" y="-477.791" font-family="Times,serif" font-size="14.00">12494</text>
</a>
</g>
</g>
<!-- 12494&#45;&gt;22810 -->
<g id="edge34" class="edge"><title>12494&#45;&gt;22810</title>
<path fill="none" stroke="black" d="M700.384,-499.652C700.091,-528.078 699.526,-582.772 699.231,-611.29"/>
</g>
<!-- 13280 -->
<g id="node27" class="node"><title>13280</title>
<g id="a_node27"><a xlink:title="6th_week">
<ellipse fill="#07ffd1" stroke="black" cx="747.787" cy="-1218.01" rx="32.4942" ry="18"/>
<text text-anchor="middle" x="747.787" y="-1214.31" font-family="Times,serif" font-size="14.00">13280</text>
</a>
</g>
</g>
<!-- 12693&#45;&gt;13280 -->
<g id="edge19" class="edge"><title>12693&#45;&gt;13280</title>
<path fill="none" stroke="black" d="M768.498,-1066.5C764.034,-1099.15 754.702,-1167.42 750.251,-1199.98"/>
</g>
<!-- 16699 -->
<g id="node35" class="node"><title>16699</title>
<g id="a_node35"><a xlink:title="6th_week">
<ellipse fill="#07ffd1" stroke="black" cx="825.681" cy="-1235.67" rx="32.4942" ry="18"/>
<text text-anchor="middle" x="825.681" y="-1231.97" font-family="Times,serif" font-size="14.00">16699</text>
</a>
</g>
</g>
<!-- 12693&#45;&gt;16699 -->
<g id="edge21" class="edge"><title>12693&#45;&gt;16699</title>
<path fill="none" stroke="black" d="M776.225,-1066.3C786.681,-1102.11 810.009,-1182 820.451,-1217.76"/>
</g>
<!-- 18762 -->
<g id="node41" class="node"><title>18762</title>
<g id="a_node41"><a xlink:title="6th_week">
<ellipse fill="#07ffd1" stroke="black" cx="875.694" cy="-1171.22" rx="32.4942" ry="18"/>
<text text-anchor="middle" x="875.694" y="-1167.52" font-family="Times,serif" font-size="14.00">18762</text>
</a>
</g>
</g>
<!-- 12693&#45;&gt;18762 -->
<g id="edge40" class="edge"><title>12693&#45;&gt;18762</title>
<path fill="none" stroke="black" d="M784.886,-1064.66C804.913,-1088.16 841.672,-1131.3 861.732,-1154.84"/>
</g>
<!-- 12707 -->
<g id="node25" class="node"><title>12707</title>
<g id="a_node25"><a xlink:title="6th_week">
<ellipse fill="#07ffd1" stroke="black" cx="56.5802" cy="-1370.3" rx="32.4942" ry="18"/>
<text text-anchor="middle" x="56.5802" y="-1366.6" font-family="Times,serif" font-size="14.00">12707</text>
</a>
</g>
</g>
<!-- 12707&#45;&gt;26340 -->
<g id="edge49" class="edge"><title>12707&#45;&gt;26340</title>
<path fill="none" stroke="black" d="M75.2579,-1355.42C97.9741,-1337.32 136.103,-1306.94 158.919,-1288.76"/>
</g>
<!-- 15160 -->
<g id="node28" class="node"><title>15160</title>
<g id="a_node28"><a xlink:title="6th_week">
<ellipse fill="#ffffff" stroke="black" cx="1394.06" cy="-798.418" rx="32.4942" ry="18"/>
<text text-anchor="middle" x="1394.06" y="-794.718" font-family="Times,serif" font-size="14.00">15160</text>
</a>
</g>
</g>
<!-- 15160&#45;&gt;21622 -->
<g id="edge53" class="edge"><title>15160&#45;&gt;21622</title>
<path fill="none" stroke="black" d="M1364.54,-790.772C1339.23,-784.217 1302.95,-774.821 1277.65,-768.269"/>
</g>
<!-- 15208 -->
<g id="node30" class="node"><title>15208</title>
<g id="a_node30"><a xlink:title="6th_week">
<ellipse fill="#ffffff" stroke="black" cx="269.625" cy="-250.402" rx="32.4942" ry="18"/>
<text text-anchor="middle" x="269.625" y="-246.702" font-family="Times,serif" font-size="14.00">15208</text>
</a>
</g>
</g>
<!-- 15208&#45;&gt;26194 -->
<g id="edge51" class="edge"><title>15208&#45;&gt;26194</title>
<path fill="none" stroke="black" d="M286.503,-265.889C308.13,-285.732 345.404,-319.932 367.064,-339.806"/>
</g>
<!-- 22199 -->
<g id="node48" class="node"><title>22199</title>
<g id="a_node48"><a xlink:title="6th_week">
<ellipse fill="#07ffd1" stroke="black" cx="427.201" cy="-498.376" rx="32.4942" ry="18"/>
<text text-anchor="middle" x="427.201" y="-494.676" font-family="Times,serif" font-size="14.00">22199</text>
</a>
</g>
</g>
<!-- 15586&#45;&gt;22199 -->
<g id="edge42" class="edge"><title>15586&#45;&gt;22199</title>
<path fill="none" stroke="black" d="M518.918,-561.388C498.652,-547.465 467.892,-526.332 447.671,-512.439"/>
</g>
<!-- 15586&#45;&gt;26194 -->
<g id="edge15" class="edge"><title>15586&#45;&gt;26194</title>
<path fill="none" stroke="black" d="M527.575,-558.63C498.629,-517.644 424.985,-413.37 395.997,-372.326"/>
</g>
<!-- 15722 -->
<g id="node33" class="node"><title>15722</title>
<g id="a_node33"><a xlink:title="6th_week">
<ellipse fill="#07ffd1" stroke="black" cx="869.338" cy="-1384.85" rx="32.4942" ry="18"/>
<text text-anchor="middle" x="869.338" y="-1381.15" font-family="Times,serif" font-size="14.00">15722</text>
</a>
</g>
</g>
<!-- 15722&#45;&gt;16699 -->
<g id="edge26" class="edge"><title>15722&#45;&gt;16699</title>
<path fill="none" stroke="black" d="M864.072,-1366.85C855.681,-1338.18 839.368,-1282.44 830.965,-1253.73"/>
</g>
<!-- 16652 -->
<g id="node34" class="node"><title>16652</title>
<g id="a_node34"><a xlink:title="6th_week">
<ellipse fill="grey" stroke="black" cx="389.188" cy="-190.869" rx="32.4942" ry="18"/>
<text text-anchor="middle" x="389.188" y="-187.169" font-family="Times,serif" font-size="14.00">16652</text>
</a>
</g>
</g>
<!-- 16652&#45;&gt;26194 -->
<g id="edge8" class="edge"><title>16652&#45;&gt;26194</title>
<path fill="none" stroke="black" d="M388.614,-209.101C387.619,-240.718 385.585,-305.368 384.588,-337.043"/>
</g>
<!-- 17240 -->
<g id="node37" class="node"><title>17240</title>
<g id="a_node37"><a xlink:title="6th_week">
<ellipse fill="#ffffff" stroke="black" cx="1387.56" cy="-702.802" rx="32.4942" ry="18"/>
<text text-anchor="middle" x="1387.56" y="-699.102" font-family="Times,serif" font-size="14.00">17240</text>
</a>
</g>
</g>
<!-- 17240&#45;&gt;21622 -->
<g id="edge12" class="edge"><title>17240&#45;&gt;21622</title>
<path fill="none" stroke="black" d="M1361.34,-713.68C1336.42,-724.019 1299.15,-739.482 1274.27,-749.805"/>
</g>
<!-- 18113 -->
<g id="node39" class="node"><title>18113</title>
<g id="a_node39"><a xlink:title="6th_week">
<ellipse fill="#07ffd1" stroke="black" cx="205.711" cy="-298.26" rx="32.4942" ry="18"/>
<text text-anchor="middle" x="205.711" y="-294.56" font-family="Times,serif" font-size="14.00">18113</text>
</a>
</g>
</g>
<!-- 24333 -->
<g id="node55" class="node"><title>24333</title>
<g id="a_node55"><a xlink:title="6th_week">
<ellipse fill="#07ffd1" stroke="black" cx="67.9971" cy="-229.872" rx="32.4942" ry="18"/>
<text text-anchor="middle" x="67.9971" y="-226.172" font-family="Times,serif" font-size="14.00">24333</text>
</a>
</g>
</g>
<!-- 18113&#45;&gt;24333 -->
<g id="edge18" class="edge"><title>18113&#45;&gt;24333</title>
<path fill="none" stroke="black" d="M181.407,-286.191C156.389,-273.767 117.619,-254.514 92.5208,-242.05"/>
</g>
<!-- 18113&#45;&gt;26194 -->
<g id="edge27" class="edge"><title>18113&#45;&gt;26194</title>
<path fill="none" stroke="black" d="M233.963,-307.307C267.251,-317.967 322.238,-335.575 355.597,-346.257"/>
</g>
<!-- 19078 -->
<g id="node42" class="node"><title>19078</title>
<g id="a_node42"><a xlink:title="6th_week">
<ellipse fill="#ffffff" stroke="black" cx="1120.5" cy="-697.324" rx="32.4942" ry="18"/>
<text text-anchor="middle" x="1120.5" y="-693.624" font-family="Times,serif" font-size="14.00">19078</text>
</a>
</g>
</g>
<!-- 18510&#45;&gt;19078 -->
<g id="edge43" class="edge"><title>18510&#45;&gt;19078</title>
<path fill="none" stroke="black" d="M1013.37,-764.765C1037.12,-749.814 1075.11,-725.895 1098.89,-710.926"/>
</g>
<!-- 18510&#45;&gt;21622 -->
<g id="edge1" class="edge"><title>18510&#45;&gt;21622</title>
<path fill="none" stroke="black" d="M1024.3,-776.082C1073.48,-772.689 1166.31,-766.283 1215.57,-762.884"/>
</g>
<!-- 24658 -->
<g id="node56" class="node"><title>24658</title>
<g id="a_node56"><a xlink:title="6th_week">
<ellipse fill="#ffffff" stroke="black" cx="1075.96" cy="-652.273" rx="32.4942" ry="18"/>
<text text-anchor="middle" x="1075.96" y="-648.573" font-family="Times,serif" font-size="14.00">24658</text>
</a>
</g>
</g>
<!-- 18510&#45;&gt;24658 -->
<g id="edge33" class="edge"><title>18510&#45;&gt;24658</title>
<path fill="none" stroke="black" d="M1003.18,-761.323C1019.24,-737.265 1048.42,-693.535 1064.52,-669.406"/>
</g>
<!-- 20355 -->
<g id="node45" class="node"><title>20355</title>
<g id="a_node45"><a xlink:title="6th_week">
<ellipse fill="#07ffd1" stroke="black" cx="349.929" cy="-1116.6" rx="32.4942" ry="18"/>
<text text-anchor="middle" x="349.929" y="-1112.9" font-family="Times,serif" font-size="14.00">20355</text>
</a>
</g>
</g>
<!-- 20355&#45;&gt;23246 -->
<g id="edge59" class="edge"><title>20355&#45;&gt;23246</title>
<path fill="none" stroke="black" d="M367.19,-1100.99C400.428,-1070.95 472.961,-1005.39 506.145,-975.39"/>
</g>
<!-- 20355&#45;&gt;26340 -->
<g id="edge44" class="edge"><title>20355&#45;&gt;26340</title>
<path fill="none" stroke="black" d="M332.797,-1132.24C299.807,-1162.35 227.816,-1228.07 194.88,-1258.13"/>
</g>
<!-- 21452 -->
<g id="node46" class="node"><title>21452</title>
<g id="a_node46"><a xlink:title="6th_week">
<ellipse fill="#07ffd1" stroke="black" cx="37.7515" cy="-1325.85" rx="32.4942" ry="18"/>
<text text-anchor="middle" x="37.7515" y="-1322.15" font-family="Times,serif" font-size="14.00">21452</text>
</a>
</g>
</g>
<!-- 21452&#45;&gt;26340 -->
<g id="edge41" class="edge"><title>21452&#45;&gt;26340</title>
<path fill="none" stroke="black" d="M64.7576,-1315.8C89.4011,-1306.62 125.65,-1293.13 150.416,-1283.91"/>
</g>
<!-- 23474 -->
<g id="node52" class="node"><title>23474</title>
<g id="a_node52"><a xlink:title="6th_week">
<ellipse fill="#07ffd1" stroke="black" cx="345.121" cy="-235.801" rx="32.4942" ry="18"/>
<text text-anchor="middle" x="345.121" y="-232.101" font-family="Times,serif" font-size="14.00">23474</text>
</a>
</g>
</g>
<!-- 23474&#45;&gt;26194 -->
<g id="edge24" class="edge"><title>23474&#45;&gt;26194</title>
<path fill="none" stroke="black" d="M350.944,-253.7C358.275,-276.238 370.799,-314.739 378.15,-337.335"/>
</g>
<!-- 26945 -->
<g id="node60" class="node"><title>26945</title>
<g id="a_node60"><a xlink:title="6th_week">
<ellipse fill="#07ffd1" stroke="black" cx="464.305" cy="-233.957" rx="32.4942" ry="18"/>
<text text-anchor="middle" x="464.305" y="-230.257" font-family="Times,serif" font-size="14.00">26945</text>
</a>
</g>
</g>
<!-- 26194&#45;&gt;26945 -->
<g id="edge45" class="edge"><title>26194&#45;&gt;26945</title>
<path fill="none" stroke="black" d="M395.346,-338.22C410.648,-315.083 437.756,-274.098 453.029,-251.006"/>
</g>
<!-- 26266 -->
<g id="node58" class="node"><title>26266</title>
<g id="a_node58"><a xlink:title="6th_week">
<ellipse fill="#07ffd1" stroke="black" cx="106.054" cy="-1416.07" rx="32.4942" ry="18"/>
<text text-anchor="middle" x="106.054" y="-1412.37" font-family="Times,serif" font-size="14.00">26266</text>
</a>
</g>
</g>
<!-- 26266&#45;&gt;26340 -->
<g id="edge2" class="edge"><title>26266&#45;&gt;26340</title>
<path fill="none" stroke="black" d="M114.853,-1398.61C128.627,-1371.29 155.128,-1318.72 168.946,-1291.31"/>
</g>
</g>
</svg>
