<?xml version="1.0" encoding="UTF-8" standalone="no"?>
<!DOCTYPE svg PUBLIC "-//W3C//DTD SVG 1.1//EN"
 "http://www.w3.org/Graphics/SVG/1.1/DTD/svg11.dtd">
<!-- Generated by graphviz version 2.38.0 (20140413.2041)
 -->
<!-- Title: %3 Pages: 1 -->
<svg width="1838pt" height="1149pt"
 viewBox="0.00 0.00 1838.00 1149.00" xmlns="http://www.w3.org/2000/svg" xmlns:xlink="http://www.w3.org/1999/xlink">
<g id="graph0" class="graph" transform="scale(1 1) rotate(0) translate(4 1145)">
<title>%3</title>
<polygon fill="white" stroke="none" points="-4,4 -4,-1145 1834,-1145 1834,4 -4,4"/>
<!-- 274 -->
<g id="node1" class="node"><title>274</title>
<g id="a_node1"><a xlink:title="6th_week">
<ellipse fill="#ffffff" stroke="black" cx="1307" cy="-388.471" rx="27" ry="18"/>
<text text-anchor="middle" x="1307" y="-384.771" font-family="Times,serif" font-size="14.00">274</text>
</a>
</g>
</g>
<!-- 13937 -->
<g id="node33" class="node"><title>13937</title>
<g id="a_node33"><a xlink:title="6th_week">
<ellipse fill="#20ff05" stroke="black" cx="1129.03" cy="-554.782" rx="32.4942" ry="18"/>
<text text-anchor="middle" x="1129.03" y="-551.082" font-family="Times,serif" font-size="14.00">13937</text>
</a>
</g>
</g>
<!-- 274&#45;&gt;13937 -->
<g id="edge33" class="edge"><title>274&#45;&gt;13937</title>
<path fill="none" stroke="black" d="M1291.21,-403.23C1257.77,-434.472 1180.11,-507.043 1145.82,-539.09"/>
</g>
<!-- 308 -->
<g id="node2" class="node"><title>308</title>
<g id="a_node2"><a xlink:title="6th_week">
<ellipse fill="#20ff05" stroke="black" cx="1194.39" cy="-401.145" rx="27" ry="18"/>
<text text-anchor="middle" x="1194.39" y="-397.445" font-family="Times,serif" font-size="14.00">308</text>
</a>
</g>
</g>
<!-- 308&#45;&gt;13937 -->
<g id="edge49" class="edge"><title>308&#45;&gt;13937</title>
<path fill="none" stroke="black" d="M1187.02,-418.471C1174.53,-447.821 1149.34,-507.026 1136.67,-536.809"/>
</g>
<!-- 760 -->
<g id="node3" class="node"><title>760</title>
<g id="a_node3"><a xlink:title="6th_week">
<ellipse fill="#20ff05" stroke="black" cx="219.396" cy="-556.65" rx="27" ry="18"/>
<text text-anchor="middle" x="219.396" y="-552.95" font-family="Times,serif" font-size="14.00">760</text>
</a>
</g>
</g>
<!-- 16646 -->
<g id="node41" class="node"><title>16646</title>
<g id="a_node41"><a xlink:title="6th_week">
<ellipse fill="#20ff05" stroke="black" cx="476.333" cy="-555.232" rx="32.4942" ry="18"/>
<text text-anchor="middle" x="476.333" y="-551.532" font-family="Times,serif" font-size="14.00">16646</text>
</a>
</g>
</g>
<!-- 760&#45;&gt;16646 -->
<g id="edge36" class="edge"><title>760&#45;&gt;16646</title>
<path fill="none" stroke="black" d="M246.407,-556.501C293.95,-556.238 392.391,-555.695 443.67,-555.412"/>
</g>
<!-- 20255 -->
<g id="node48" class="node"><title>20255</title>
<g id="a_node48"><a xlink:title="6th_week">
<ellipse fill="#20ff05" stroke="black" cx="32.2642" cy="-557.288" rx="32.4942" ry="18"/>
<text text-anchor="middle" x="32.2642" y="-553.588" font-family="Times,serif" font-size="14.00">20255</text>
</a>
</g>
</g>
<!-- 760&#45;&gt;20255 -->
<g id="edge10" class="edge"><title>760&#45;&gt;20255</title>
<path fill="none" stroke="black" d="M192.185,-556.742C158.43,-556.857 100.935,-557.054 64.8592,-557.177"/>
</g>
<!-- 838 -->
<g id="node4" class="node"><title>838</title>
<g id="a_node4"><a xlink:title="6th_week">
<ellipse fill="#ffffff" stroke="black" cx="556.154" cy="-583.716" rx="27" ry="18"/>
<text text-anchor="middle" x="556.154" y="-580.016" font-family="Times,serif" font-size="14.00">838</text>
</a>
</g>
</g>
<!-- 23413 -->
<g id="node53" class="node"><title>23413</title>
<g id="a_node53"><a xlink:title="6th_week">
<ellipse fill="#20ff05" stroke="black" cx="753.164" cy="-558.475" rx="32.4942" ry="18"/>
<text text-anchor="middle" x="753.164" y="-554.775" font-family="Times,serif" font-size="14.00">23413</text>
</a>
</g>
</g>
<!-- 838&#45;&gt;23413 -->
<g id="edge46" class="edge"><title>838&#45;&gt;23413</title>
<path fill="none" stroke="black" d="M582.724,-580.312C618.749,-575.697 682.999,-567.465 721.489,-562.533"/>
</g>
<!-- 1052 -->
<g id="node5" class="node"><title>1052</title>
<g id="a_node5"><a xlink:title="6th_week">
<ellipse fill="#20ff05" stroke="black" cx="1278.02" cy="-626.912" rx="28.6953" ry="18"/>
<text text-anchor="middle" x="1278.02" y="-623.212" font-family="Times,serif" font-size="14.00">1052</text>
</a>
</g>
</g>
<!-- 1052&#45;&gt;13937 -->
<g id="edge1" class="edge"><title>1052&#45;&gt;13937</title>
<path fill="none" stroke="black" d="M1255.07,-615.8C1227.64,-602.522 1181.93,-580.393 1153.74,-566.748"/>
</g>
<!-- 1445 -->
<g id="node6" class="node"><title>1445</title>
<g id="a_node6"><a xlink:title="6th_week">
<ellipse fill="#20ff05" stroke="black" cx="1114.38" cy="-362.351" rx="28.6953" ry="18"/>
<text text-anchor="middle" x="1114.38" y="-358.651" font-family="Times,serif" font-size="14.00">1445</text>
</a>
</g>
</g>
<!-- 1445&#45;&gt;13937 -->
<g id="edge38" class="edge"><title>1445&#45;&gt;13937</title>
<path fill="none" stroke="black" d="M1115.76,-380.454C1118.55,-417.13 1124.84,-499.834 1127.64,-536.586"/>
</g>
<!-- 1499 -->
<g id="node7" class="node"><title>1499</title>
<g id="a_node7"><a xlink:title="6th_week">
<ellipse fill="#20ff05" stroke="black" cx="1274.31" cy="-17.5658" rx="28.6953" ry="18"/>
<text text-anchor="middle" x="1274.31" y="-13.8658" font-family="Times,serif" font-size="14.00">1499</text>
</a>
</g>
</g>
<!-- 5318 -->
<g id="node13" class="node"><title>5318</title>
<g id="a_node13"><a xlink:title="6th_week">
<ellipse fill="#20ff05" stroke="black" cx="1243.8" cy="-231.119" rx="28.6953" ry="18"/>
<text text-anchor="middle" x="1243.8" y="-227.419" font-family="Times,serif" font-size="14.00">5318</text>
</a>
</g>
</g>
<!-- 1499&#45;&gt;5318 -->
<g id="edge12" class="edge"><title>1499&#45;&gt;5318</title>
<path fill="none" stroke="black" d="M1271.71,-35.7732C1265.94,-76.1194 1252.15,-172.654 1246.4,-212.958"/>
</g>
<!-- 2953 -->
<g id="node8" class="node"><title>2953</title>
<g id="a_node8"><a xlink:title="6th_week">
<ellipse fill="#20ff05" stroke="black" cx="1270.72" cy="-698.143" rx="28.6953" ry="18"/>
<text text-anchor="middle" x="1270.72" y="-694.443" font-family="Times,serif" font-size="14.00">2953</text>
</a>
</g>
</g>
<!-- 2953&#45;&gt;13937 -->
<g id="edge44" class="edge"><title>2953&#45;&gt;13937</title>
<path fill="none" stroke="black" d="M1255.56,-682.801C1228.57,-655.497 1172.46,-598.731 1144.95,-570.888"/>
</g>
<!-- 2992 -->
<g id="node9" class="node"><title>2992</title>
<g id="a_node9"><a xlink:title="6th_week">
<ellipse fill="#20ff05" stroke="black" cx="692.123" cy="-863.441" rx="28.6953" ry="18"/>
<text text-anchor="middle" x="692.123" y="-859.741" font-family="Times,serif" font-size="14.00">2992</text>
</a>
</g>
</g>
<!-- 18061 -->
<g id="node46" class="node"><title>18061</title>
<g id="a_node46"><a xlink:title="6th_week">
<ellipse fill="#20ff05" stroke="black" cx="892.738" cy="-710.868" rx="32.4942" ry="18"/>
<text text-anchor="middle" x="892.738" y="-707.168" font-family="Times,serif" font-size="14.00">18061</text>
</a>
</g>
</g>
<!-- 2992&#45;&gt;18061 -->
<g id="edge52" class="edge"><title>2992&#45;&gt;18061</title>
<path fill="none" stroke="black" d="M710.637,-849.361C748.564,-820.516 834.764,-754.959 873.388,-725.584"/>
</g>
<!-- 3018 -->
<g id="node10" class="node"><title>3018</title>
<g id="a_node10"><a xlink:title="6th_week">
<ellipse fill="#20ff05" stroke="black" cx="832.134" cy="-107.166" rx="28.6953" ry="18"/>
<text text-anchor="middle" x="832.134" y="-103.466" font-family="Times,serif" font-size="14.00">3018</text>
</a>
</g>
</g>
<!-- 21798 -->
<g id="node51" class="node"><title>21798</title>
<g id="a_node51"><a xlink:title="6th_week">
<ellipse fill="#20ff05" stroke="black" cx="954.127" cy="-291.825" rx="32.4942" ry="18"/>
<text text-anchor="middle" x="954.127" y="-288.125" font-family="Times,serif" font-size="14.00">21798</text>
</a>
</g>
</g>
<!-- 3018&#45;&gt;21798 -->
<g id="edge40" class="edge"><title>3018&#45;&gt;21798</title>
<path fill="none" stroke="black" d="M843.175,-123.879C866.284,-158.858 919.53,-239.456 942.845,-274.749"/>
</g>
<!-- 3522 -->
<g id="node11" class="node"><title>3522</title>
<g id="a_node11"><a xlink:title="6th_week">
<ellipse fill="#20ff05" stroke="black" cx="1356.71" cy="-46.8932" rx="28.6953" ry="18"/>
<text text-anchor="middle" x="1356.71" y="-43.1932" font-family="Times,serif" font-size="14.00">3522</text>
</a>
</g>
</g>
<!-- 3522&#45;&gt;5318 -->
<g id="edge47" class="edge"><title>3522&#45;&gt;5318</title>
<path fill="none" stroke="black" d="M1346.29,-63.8945C1324.78,-98.9903 1275.68,-179.098 1254.2,-214.159"/>
</g>
<!-- 5085 -->
<g id="node12" class="node"><title>5085</title>
<g id="a_node12"><a xlink:title="6th_week">
<ellipse fill="grey" stroke="black" cx="1033.72" cy="-24.1948" rx="28.6953" ry="18"/>
<text text-anchor="middle" x="1033.72" y="-20.4948" font-family="Times,serif" font-size="14.00">5085</text>
</a>
</g>
</g>
<!-- 17941 -->
<g id="node45" class="node"><title>17941</title>
<g id="a_node45"><a xlink:title="6th_week">
<ellipse fill="#20ff05" stroke="black" cx="1074.47" cy="-241.784" rx="32.4942" ry="18"/>
<text text-anchor="middle" x="1074.47" y="-238.084" font-family="Times,serif" font-size="14.00">17941</text>
</a>
</g>
</g>
<!-- 5085&#45;&gt;17941 -->
<g id="edge5" class="edge"><title>5085&#45;&gt;17941</title>
<path fill="none" stroke="black" d="M1037.13,-42.3721C1044.82,-83.432 1063.45,-182.946 1071.11,-223.811"/>
</g>
<!-- 5318&#45;&gt;13937 -->
<g id="edge42" class="edge"><title>5318&#45;&gt;13937</title>
<path fill="none" stroke="black" d="M1237.47,-248.982C1217.4,-305.569 1155.38,-480.464 1135.34,-536.974"/>
</g>
<!-- 5501 -->
<g id="node14" class="node"><title>5501</title>
<g id="a_node14"><a xlink:title="6th_week">
<ellipse fill="#20ff05" stroke="black" cx="1265.03" cy="-338.49" rx="28.6953" ry="18"/>
<text text-anchor="middle" x="1265.03" y="-334.79" font-family="Times,serif" font-size="14.00">5501</text>
</a>
</g>
</g>
<!-- 5501&#45;&gt;13937 -->
<g id="edge41" class="edge"><title>5501&#45;&gt;13937</title>
<path fill="none" stroke="black" d="M1254.36,-355.462C1229,-395.795 1165.34,-497.035 1139.84,-537.589"/>
</g>
<!-- 6503 -->
<g id="node15" class="node"><title>6503</title>
<g id="a_node15"><a xlink:title="6th_week">
<ellipse fill="grey" stroke="black" cx="986.743" cy="-702.256" rx="28.6953" ry="18"/>
<text text-anchor="middle" x="986.743" y="-698.556" font-family="Times,serif" font-size="14.00">6503</text>
</a>
</g>
</g>
<!-- 6503&#45;&gt;13937 -->
<g id="edge2" class="edge"><title>6503&#45;&gt;13937</title>
<path fill="none" stroke="black" d="M1001.7,-686.752C1028.81,-658.65 1085.82,-599.567 1113.41,-570.97"/>
</g>
<!-- 6740 -->
<g id="node16" class="node"><title>6740</title>
<g id="a_node16"><a xlink:title="6th_week">
<ellipse fill="grey" stroke="black" cx="1013.21" cy="-649.771" rx="28.6953" ry="18"/>
<text text-anchor="middle" x="1013.21" y="-646.071" font-family="Times,serif" font-size="14.00">6740</text>
</a>
</g>
</g>
<!-- 6740&#45;&gt;13937 -->
<g id="edge45" class="edge"><title>6740&#45;&gt;13937</title>
<path fill="none" stroke="black" d="M1030.8,-635.344C1052.31,-617.698 1088.57,-587.962 1110.5,-569.974"/>
</g>
<!-- 7124 -->
<g id="node17" class="node"><title>7124</title>
<g id="a_node17"><a xlink:title="6th_week">
<ellipse fill="#20ff05" stroke="black" cx="1541.4" cy="-481.526" rx="28.6953" ry="18"/>
<text text-anchor="middle" x="1541.4" y="-477.826" font-family="Times,serif" font-size="14.00">7124</text>
</a>
</g>
</g>
<!-- 7480 -->
<g id="node18" class="node"><title>7480</title>
<g id="a_node18"><a xlink:title="6th_week">
<ellipse fill="#20ff05" stroke="black" cx="1745.54" cy="-608.184" rx="28.6953" ry="18"/>
<text text-anchor="middle" x="1745.54" y="-604.484" font-family="Times,serif" font-size="14.00">7480</text>
</a>
</g>
</g>
<!-- 7124&#45;&gt;7480 -->
<g id="edge56" class="edge"><title>7124&#45;&gt;7480</title>
<path fill="none" stroke="black" d="M1562.1,-494.368C1601.33,-518.706 1686.06,-571.278 1725.09,-595.497"/>
</g>
<!-- 10016 -->
<g id="node25" class="node"><title>10016</title>
<g id="a_node25"><a xlink:title="6th_week">
<ellipse fill="#20ff05" stroke="black" cx="1783.23" cy="-543.769" rx="32.4942" ry="18"/>
<text text-anchor="middle" x="1783.23" y="-540.069" font-family="Times,serif" font-size="14.00">10016</text>
</a>
</g>
</g>
<!-- 7124&#45;&gt;10016 -->
<g id="edge3" class="edge"><title>7124&#45;&gt;10016</title>
<path fill="none" stroke="black" d="M1568.21,-488.425C1613.83,-500.168 1706.24,-523.951 1753.67,-536.16"/>
</g>
<!-- 7124&#45;&gt;13937 -->
<g id="edge19" class="edge"><title>7124&#45;&gt;13937</title>
<path fill="none" stroke="black" d="M1513.7,-486.446C1439.75,-499.583 1238.02,-535.419 1160.21,-549.242"/>
</g>
<!-- 17920 -->
<g id="node44" class="node"><title>17920</title>
<g id="a_node44"><a xlink:title="6th_week">
<ellipse fill="grey" stroke="black" cx="1700.35" cy="-314.264" rx="32.4942" ry="18"/>
<text text-anchor="middle" x="1700.35" y="-310.564" font-family="Times,serif" font-size="14.00">17920</text>
</a>
</g>
</g>
<!-- 7124&#45;&gt;17920 -->
<g id="edge31" class="edge"><title>7124&#45;&gt;17920</title>
<path fill="none" stroke="black" d="M1556.35,-465.79C1586.49,-434.074 1654.27,-362.758 1684.85,-330.572"/>
</g>
<!-- 896 -->
<g id="node55" class="node"><title>896</title>
<g id="a_node55"><a xlink:title="6th_week">
<ellipse fill="#ffffff" stroke="black" cx="1730.13" cy="-435.572" rx="27" ry="18"/>
<text text-anchor="middle" x="1730.13" y="-431.872" font-family="Times,serif" font-size="14.00">896</text>
</a>
</g>
</g>
<!-- 7124&#45;&gt;896 -->
<g id="edge29" class="edge"><title>7124&#45;&gt;896</title>
<path fill="none" stroke="black" d="M1568.44,-474.942C1604.83,-466.082 1669.08,-450.437 1704.65,-441.776"/>
</g>
<!-- 13157 -->
<g id="node56" class="node"><title>13157</title>
<g id="a_node56"><a xlink:title="6th_week">
<ellipse fill="grey" stroke="black" cx="1760.04" cy="-368.578" rx="32.4942" ry="18"/>
<text text-anchor="middle" x="1760.04" y="-364.878" font-family="Times,serif" font-size="14.00">13157</text>
</a>
</g>
</g>
<!-- 7124&#45;&gt;13157 -->
<g id="edge57" class="edge"><title>7124&#45;&gt;13157</title>
<path fill="none" stroke="black" d="M1563.57,-470.074C1604.93,-448.706 1693.53,-402.937 1736.16,-380.914"/>
</g>
<!-- 13335 -->
<g id="node57" class="node"><title>13335</title>
<g id="a_node57"><a xlink:title="6th_week">
<ellipse fill="#20ff05" stroke="black" cx="1797.73" cy="-469.742" rx="32.4942" ry="18"/>
<text text-anchor="middle" x="1797.73" y="-466.042" font-family="Times,serif" font-size="14.00">13335</text>
</a>
</g>
</g>
<!-- 7124&#45;&gt;13335 -->
<g id="edge22" class="edge"><title>7124&#45;&gt;13335</title>
<path fill="none" stroke="black" d="M1570.31,-480.197C1618.49,-477.982 1714.89,-473.55 1765.31,-471.232"/>
</g>
<!-- 7960 -->
<g id="node19" class="node"><title>7960</title>
<g id="a_node19"><a xlink:title="6th_week">
<ellipse fill="grey" stroke="black" cx="682.934" cy="-247.712" rx="28.6953" ry="18"/>
<text text-anchor="middle" x="682.934" y="-244.012" font-family="Times,serif" font-size="14.00">7960</text>
</a>
</g>
</g>
<!-- 21690 -->
<g id="node50" class="node"><title>21690</title>
<g id="a_node50"><a xlink:title="6th_week">
<ellipse fill="#20ff05" stroke="black" cx="873.82" cy="-368.87" rx="32.4942" ry="18"/>
<text text-anchor="middle" x="873.82" y="-365.17" font-family="Times,serif" font-size="14.00">21690</text>
</a>
</g>
</g>
<!-- 7960&#45;&gt;21690 -->
<g id="edge7" class="edge"><title>7960&#45;&gt;21690</title>
<path fill="none" stroke="black" d="M703.362,-260.678C739.718,-283.754 815.302,-331.728 852.375,-355.259"/>
</g>
<!-- 8829 -->
<g id="node20" class="node"><title>8829</title>
<g id="a_node20"><a xlink:title="6th_week">
<ellipse fill="#20ff05" stroke="black" cx="1085.84" cy="-833.514" rx="28.6953" ry="18"/>
<text text-anchor="middle" x="1085.84" y="-829.814" font-family="Times,serif" font-size="14.00">8829</text>
</a>
</g>
</g>
<!-- 9363 -->
<g id="node23" class="node"><title>9363</title>
<g id="a_node23"><a xlink:title="6th_week">
<ellipse fill="#20ff05" stroke="black" cx="1041.84" cy="-1076.44" rx="28.6953" ry="18"/>
<text text-anchor="middle" x="1041.84" y="-1072.74" font-family="Times,serif" font-size="14.00">9363</text>
</a>
</g>
</g>
<!-- 8829&#45;&gt;9363 -->
<g id="edge20" class="edge"><title>8829&#45;&gt;9363</title>
<path fill="none" stroke="black" d="M1082.54,-851.773C1074.36,-896.904 1053.28,-1013.3 1045.13,-1058.31"/>
</g>
<!-- 8829&#45;&gt;13937 -->
<g id="edge13" class="edge"><title>8829&#45;&gt;13937</title>
<path fill="none" stroke="black" d="M1088.68,-815.226C1096.52,-764.6 1118.45,-623.046 1126.24,-572.775"/>
</g>
<!-- 8984 -->
<g id="node21" class="node"><title>8984</title>
<g id="a_node21"><a xlink:title="6th_week">
<ellipse fill="#20ff05" stroke="black" cx="1145.62" cy="-709.582" rx="28.6953" ry="18"/>
<text text-anchor="middle" x="1145.62" y="-705.882" font-family="Times,serif" font-size="14.00">8984</text>
</a>
</g>
</g>
<!-- 8984&#45;&gt;13937 -->
<g id="edge16" class="edge"><title>8984&#45;&gt;13937</title>
<path fill="none" stroke="black" d="M1143.68,-691.521C1140.5,-661.852 1134.21,-603.112 1131,-573.207"/>
</g>
<!-- 9240 -->
<g id="node22" class="node"><title>9240</title>
<g id="a_node22"><a xlink:title="6th_week">
<ellipse fill="#20ff05" stroke="black" cx="973.909" cy="-516.248" rx="28.6953" ry="18"/>
<text text-anchor="middle" x="973.909" y="-512.548" font-family="Times,serif" font-size="14.00">9240</text>
</a>
</g>
</g>
<!-- 9240&#45;&gt;13937 -->
<g id="edge25" class="edge"><title>9240&#45;&gt;13937</title>
<path fill="none" stroke="black" d="M1000.57,-522.873C1028.03,-529.694 1070.73,-540.3 1099.27,-547.39"/>
</g>
<!-- 9731 -->
<g id="node24" class="node"><title>9731</title>
<g id="a_node24"><a xlink:title="6th_week">
<ellipse fill="#ffffff" stroke="black" cx="1020.14" cy="-396.361" rx="28.6953" ry="18"/>
<text text-anchor="middle" x="1020.14" y="-392.661" font-family="Times,serif" font-size="14.00">9731</text>
</a>
</g>
</g>
<!-- 9731&#45;&gt;13937 -->
<g id="edge39" class="edge"><title>9731&#45;&gt;13937</title>
<path fill="none" stroke="black" d="M1031.59,-413.015C1052.45,-443.362 1096.42,-507.341 1117.41,-537.874"/>
</g>
<!-- 10468 -->
<g id="node26" class="node"><title>10468</title>
<g id="a_node26"><a xlink:title="6th_week">
<ellipse fill="#20ff05" stroke="black" cx="933.981" cy="-630.367" rx="32.4942" ry="18"/>
<text text-anchor="middle" x="933.981" y="-626.667" font-family="Times,serif" font-size="14.00">10468</text>
</a>
</g>
</g>
<!-- 10468&#45;&gt;13937 -->
<g id="edge35" class="edge"><title>10468&#45;&gt;13937</title>
<path fill="none" stroke="black" d="M960.692,-620.016C997.939,-605.582 1065.08,-579.561 1102.33,-565.129"/>
</g>
<!-- 10515 -->
<g id="node27" class="node"><title>10515</title>
<g id="a_node27"><a xlink:title="6th_week">
<ellipse fill="#20ff05" stroke="black" cx="911.758" cy="-570.336" rx="32.4942" ry="18"/>
<text text-anchor="middle" x="911.758" y="-566.636" font-family="Times,serif" font-size="14.00">10515</text>
</a>
</g>
</g>
<!-- 10515&#45;&gt;13937 -->
<g id="edge43" class="edge"><title>10515&#45;&gt;13937</title>
<path fill="none" stroke="black" d="M944.285,-568.007C985.363,-565.067 1055.62,-560.037 1096.63,-557.101"/>
</g>
<!-- 11259 -->
<g id="node28" class="node"><title>11259</title>
<g id="a_node28"><a xlink:title="6th_week">
<ellipse fill="#20ff05" stroke="black" cx="1262.18" cy="-480.49" rx="32.4942" ry="18"/>
<text text-anchor="middle" x="1262.18" y="-476.79" font-family="Times,serif" font-size="14.00">11259</text>
</a>
</g>
</g>
<!-- 11259&#45;&gt;13937 -->
<g id="edge48" class="edge"><title>11259&#45;&gt;13937</title>
<path fill="none" stroke="black" d="M1238.99,-493.43C1214.55,-507.066 1176.29,-528.41 1151.96,-541.989"/>
</g>
<!-- 11964 -->
<g id="node29" class="node"><title>11964</title>
<g id="a_node29"><a xlink:title="6th_week">
<ellipse fill="#20ff05" stroke="black" cx="1272.52" cy="-1123.07" rx="32.4942" ry="18"/>
<text text-anchor="middle" x="1272.52" y="-1119.37" font-family="Times,serif" font-size="14.00">11964</text>
</a>
</g>
</g>
<!-- 20602 -->
<g id="node49" class="node"><title>20602</title>
<g id="a_node49"><a xlink:title="6th_week">
<ellipse fill="#20ff05" stroke="black" cx="1239.51" cy="-870.135" rx="32.4942" ry="18"/>
<text text-anchor="middle" x="1239.51" y="-866.435" font-family="Times,serif" font-size="14.00">20602</text>
</a>
</g>
</g>
<!-- 11964&#45;&gt;20602 -->
<g id="edge54" class="edge"><title>11964&#45;&gt;20602</title>
<path fill="none" stroke="black" d="M1270.15,-1104.88C1264.06,-1058.21 1247.93,-934.647 1241.86,-888.161"/>
</g>
<!-- 12089 -->
<g id="node30" class="node"><title>12089</title>
<g id="a_node30"><a xlink:title="6th_week">
<ellipse fill="#20ff05" stroke="black" cx="1534.3" cy="-913.158" rx="32.4942" ry="18"/>
<text text-anchor="middle" x="1534.3" y="-909.458" font-family="Times,serif" font-size="14.00">12089</text>
</a>
</g>
</g>
<!-- 17177 -->
<g id="node43" class="node"><title>17177</title>
<g id="a_node43"><a xlink:title="6th_week">
<ellipse fill="#20ff05" stroke="black" cx="1350" cy="-739.331" rx="32.4942" ry="18"/>
<text text-anchor="middle" x="1350" y="-735.631" font-family="Times,serif" font-size="14.00">17177</text>
</a>
</g>
</g>
<!-- 12089&#45;&gt;17177 -->
<g id="edge55" class="edge"><title>12089&#45;&gt;17177</title>
<path fill="none" stroke="black" d="M1517.62,-897.426C1482.53,-864.331 1401.45,-787.856 1366.51,-754.903"/>
</g>
<!-- 12986 -->
<g id="node31" class="node"><title>12986</title>
<g id="a_node31"><a xlink:title="6th_week">
<ellipse fill="#20ff05" stroke="black" cx="1060.96" cy="-742.855" rx="32.4942" ry="18"/>
<text text-anchor="middle" x="1060.96" y="-739.155" font-family="Times,serif" font-size="14.00">12986</text>
</a>
</g>
</g>
<!-- 12986&#45;&gt;13937 -->
<g id="edge24" class="edge"><title>12986&#45;&gt;13937</title>
<path fill="none" stroke="black" d="M1067.37,-725.162C1080.34,-689.317 1109.59,-608.486 1122.59,-572.565"/>
</g>
<!-- 13702 -->
<g id="node32" class="node"><title>13702</title>
<g id="a_node32"><a xlink:title="6th_week">
<ellipse fill="#20ff05" stroke="black" cx="978.544" cy="-797.608" rx="32.4942" ry="18"/>
<text text-anchor="middle" x="978.544" y="-793.908" font-family="Times,serif" font-size="14.00">13702</text>
</a>
</g>
</g>
<!-- 13702&#45;&gt;13937 -->
<g id="edge53" class="edge"><title>13702&#45;&gt;13937</title>
<path fill="none" stroke="black" d="M989.126,-780.533C1016.76,-735.948 1090.84,-616.402 1118.46,-571.838"/>
</g>
<!-- 19513 -->
<g id="node58" class="node"><title>19513</title>
<g id="a_node58"><a xlink:title="6th_week">
<ellipse fill="grey" stroke="black" cx="846.634" cy="-1016.85" rx="32.4942" ry="18"/>
<text text-anchor="middle" x="846.634" y="-1013.15" font-family="Times,serif" font-size="14.00">19513</text>
</a>
</g>
</g>
<!-- 13702&#45;&gt;19513 -->
<g id="edge30" class="edge"><title>13702&#45;&gt;19513</title>
<path fill="none" stroke="black" d="M968.194,-814.811C943.535,-855.795 881.547,-958.821 856.937,-999.724"/>
</g>
<!-- 14181 -->
<g id="node35" class="node"><title>14181</title>
<g id="a_node35"><a xlink:title="6th_week">
<ellipse fill="#20ff05" stroke="black" cx="1361.12" cy="-528.37" rx="32.4942" ry="18"/>
<text text-anchor="middle" x="1361.12" y="-524.67" font-family="Times,serif" font-size="14.00">14181</text>
</a>
</g>
</g>
<!-- 13937&#45;&gt;14181 -->
<g id="edge34" class="edge"><title>13937&#45;&gt;14181</title>
<path fill="none" stroke="black" d="M1161.3,-551.109C1205.64,-546.063 1284.92,-537.041 1329.12,-532.011"/>
</g>
<!-- 14323 -->
<g id="node36" class="node"><title>14323</title>
<g id="a_node36"><a xlink:title="6th_week">
<ellipse fill="grey" stroke="black" cx="1044.01" cy="-333.9" rx="32.4942" ry="18"/>
<text text-anchor="middle" x="1044.01" y="-330.2" font-family="Times,serif" font-size="14.00">14323</text>
</a>
</g>
</g>
<!-- 13937&#45;&gt;14323 -->
<g id="edge51" class="edge"><title>13937&#45;&gt;14323</title>
<path fill="none" stroke="black" d="M1122.21,-537.08C1106.29,-495.721 1066.81,-393.128 1050.86,-351.686"/>
</g>
<!-- 14408 -->
<g id="node37" class="node"><title>14408</title>
<g id="a_node37"><a xlink:title="6th_week">
<ellipse fill="#20ff05" stroke="black" cx="923.149" cy="-444.212" rx="32.4942" ry="18"/>
<text text-anchor="middle" x="923.149" y="-440.512" font-family="Times,serif" font-size="14.00">14408</text>
</a>
</g>
</g>
<!-- 13937&#45;&gt;14408 -->
<g id="edge28" class="edge"><title>13937&#45;&gt;14408</title>
<path fill="none" stroke="black" d="M1105.41,-542.098C1065.7,-520.769 986.018,-477.976 946.49,-456.748"/>
</g>
<!-- 14482 -->
<g id="node38" class="node"><title>14482</title>
<g id="a_node38"><a xlink:title="6th_week">
<ellipse fill="#20ff05" stroke="black" cx="1354.59" cy="-443.972" rx="32.4942" ry="18"/>
<text text-anchor="middle" x="1354.59" y="-440.272" font-family="Times,serif" font-size="14.00">14482</text>
</a>
</g>
</g>
<!-- 13937&#45;&gt;14482 -->
<g id="edge32" class="edge"><title>13937&#45;&gt;14482</title>
<path fill="none" stroke="black" d="M1153.59,-542.712C1196.98,-521.397 1286.68,-477.331 1330.05,-456.027"/>
</g>
<!-- 15302 -->
<g id="node39" class="node"><title>15302</title>
<g id="a_node39"><a xlink:title="6th_week">
<ellipse fill="#20ff05" stroke="black" cx="1159" cy="-302.95" rx="32.4942" ry="18"/>
<text text-anchor="middle" x="1159" y="-299.25" font-family="Times,serif" font-size="14.00">15302</text>
</a>
</g>
</g>
<!-- 13937&#45;&gt;15302 -->
<g id="edge9" class="edge"><title>13937&#45;&gt;15302</title>
<path fill="none" stroke="black" d="M1131.18,-536.671C1136.7,-490.319 1151.29,-367.778 1156.83,-321.235"/>
</g>
<!-- 16403 -->
<g id="node40" class="node"><title>16403</title>
<g id="a_node40"><a xlink:title="6th_week">
<ellipse fill="#ffffff" stroke="black" cx="898.764" cy="-501.239" rx="32.4942" ry="18"/>
<text text-anchor="middle" x="898.764" y="-497.539" font-family="Times,serif" font-size="14.00">16403</text>
</a>
</g>
</g>
<!-- 13937&#45;&gt;16403 -->
<g id="edge23" class="edge"><title>13937&#45;&gt;16403</title>
<path fill="none" stroke="black" d="M1098.92,-547.782C1054.79,-537.521 973.008,-518.503 928.874,-508.241"/>
</g>
<!-- 17076 -->
<g id="node42" class="node"><title>17076</title>
<g id="a_node42"><a xlink:title="6th_week">
<ellipse fill="grey" stroke="black" cx="1350.25" cy="-646.801" rx="32.4942" ry="18"/>
<text text-anchor="middle" x="1350.25" y="-643.101" font-family="Times,serif" font-size="14.00">17076</text>
</a>
</g>
</g>
<!-- 13937&#45;&gt;17076 -->
<g id="edge18" class="edge"><title>13937&#45;&gt;17076</title>
<path fill="none" stroke="black" d="M1155.27,-565.699C1197.85,-583.409 1281.49,-618.197 1324.04,-635.898"/>
</g>
<!-- 13937&#45;&gt;17177 -->
<g id="edge14" class="edge"><title>13937&#45;&gt;17177</title>
<path fill="none" stroke="black" d="M1147.11,-569.884C1188.65,-604.577 1290.5,-689.635 1331.98,-724.279"/>
</g>
<!-- 13937&#45;&gt;17941 -->
<g id="edge27" class="edge"><title>13937&#45;&gt;17941</title>
<path fill="none" stroke="black" d="M1125.86,-536.601C1116.22,-481.281 1087.3,-315.402 1077.65,-260.015"/>
</g>
<!-- 13937&#45;&gt;18061 -->
<g id="edge4" class="edge"><title>13937&#45;&gt;18061</title>
<path fill="none" stroke="black" d="M1108.06,-568.633C1063.22,-598.254 958.458,-667.455 913.66,-697.048"/>
</g>
<!-- 18621 -->
<g id="node47" class="node"><title>18621</title>
<g id="a_node47"><a xlink:title="6th_week">
<ellipse fill="grey" stroke="black" cx="1151.91" cy="-769.584" rx="32.4942" ry="18"/>
<text text-anchor="middle" x="1151.91" y="-765.884" font-family="Times,serif" font-size="14.00">18621</text>
</a>
</g>
</g>
<!-- 13937&#45;&gt;18621 -->
<g id="edge26" class="edge"><title>13937&#45;&gt;18621</title>
<path fill="none" stroke="black" d="M1130.98,-573.096C1135.3,-613.678 1145.64,-710.778 1149.96,-751.317"/>
</g>
<!-- 13937&#45;&gt;20602 -->
<g id="edge17" class="edge"><title>13937&#45;&gt;20602</title>
<path fill="none" stroke="black" d="M1135.28,-572.64C1154.68,-628.016 1213.69,-796.442 1233.18,-852.082"/>
</g>
<!-- 13937&#45;&gt;21690 -->
<g id="edge21" class="edge"><title>13937&#45;&gt;21690</title>
<path fill="none" stroke="black" d="M1109,-540.194C1061.29,-505.44 941.366,-418.076 893.753,-383.391"/>
</g>
<!-- 13937&#45;&gt;21798 -->
<g id="edge50" class="edge"><title>13937&#45;&gt;21798</title>
<path fill="none" stroke="black" d="M1117.55,-537.528C1085.78,-489.768 996.961,-356.225 965.417,-308.8"/>
</g>
<!-- 22646 -->
<g id="node52" class="node"><title>22646</title>
<g id="a_node52"><a xlink:title="6th_week">
<ellipse fill="#20ff05" stroke="black" cx="1358.76" cy="-580.714" rx="32.4942" ry="18"/>
<text text-anchor="middle" x="1358.76" y="-577.014" font-family="Times,serif" font-size="14.00">22646</text>
</a>
</g>
</g>
<!-- 13937&#45;&gt;22646 -->
<g id="edge15" class="edge"><title>13937&#45;&gt;22646</title>
<path fill="none" stroke="black" d="M1160.97,-558.388C1204.74,-563.328 1282.9,-572.151 1326.71,-577.097"/>
</g>
<!-- 13937&#45;&gt;23413 -->
<g id="edge8" class="edge"><title>13937&#45;&gt;23413</title>
<path fill="none" stroke="black" d="M1096.33,-555.103C1025.16,-555.803 856.89,-557.456 785.786,-558.155"/>
</g>
<!-- 23725 -->
<g id="node54" class="node"><title>23725</title>
<g id="a_node54"><a xlink:title="6th_week">
<ellipse fill="#20ff05" stroke="black" cx="1228.99" cy="-745" rx="32.4942" ry="18"/>
<text text-anchor="middle" x="1228.99" y="-741.3" font-family="Times,serif" font-size="14.00">23725</text>
</a>
</g>
</g>
<!-- 13937&#45;&gt;23725 -->
<g id="edge37" class="edge"><title>13937&#45;&gt;23725</title>
<path fill="none" stroke="black" d="M1138.25,-572.336C1157.29,-608.573 1200.76,-691.287 1219.79,-727.488"/>
</g>
<!-- 13990 -->
<g id="node34" class="node"><title>13990</title>
<g id="a_node34"><a xlink:title="6th_week">
<ellipse fill="#ffffff" stroke="black" cx="1359.17" cy="-1090.05" rx="32.4942" ry="18"/>
<text text-anchor="middle" x="1359.17" y="-1086.35" font-family="Times,serif" font-size="14.00">13990</text>
</a>
</g>
</g>
<!-- 13990&#45;&gt;20602 -->
<g id="edge11" class="edge"><title>13990&#45;&gt;20602</title>
<path fill="none" stroke="black" d="M1349.78,-1072.79C1327.47,-1031.79 1271.46,-928.849 1249.02,-887.616"/>
</g>
<!-- 16646&#45;&gt;23413 -->
<g id="edge6" class="edge"><title>16646&#45;&gt;23413</title>
<path fill="none" stroke="black" d="M508.903,-555.614C562.071,-556.237 666.923,-557.465 720.288,-558.09"/>
</g>
</g>
</svg>
