<?xml version="1.0" encoding="UTF-8" standalone="no"?>
<!DOCTYPE svg PUBLIC "-//W3C//DTD SVG 1.1//EN"
 "http://www.w3.org/Graphics/SVG/1.1/DTD/svg11.dtd">
<!-- Generated by graphviz version 2.38.0 (20140413.2041)
 -->
<!-- Title: %3 Pages: 1 -->
<svg width="1183pt" height="1137pt"
 viewBox="0.00 0.00 1183.00 1137.00" xmlns="http://www.w3.org/2000/svg" xmlns:xlink="http://www.w3.org/1999/xlink">
<g id="graph0" class="graph" transform="scale(1 1) rotate(0) translate(4 1133)">
<title>%3</title>
<polygon fill="white" stroke="none" points="-4,4 -4,-1133 1179,-1133 1179,4 -4,4"/>
<!-- 2080 -->
<g id="node1" class="node"><title>2080</title>
<g id="a_node1"><a xlink:title="6th_week">
<ellipse fill="#ff9f0f" stroke="black" cx="711.495" cy="-774.085" rx="28.6953" ry="18"/>
<text text-anchor="middle" x="711.495" y="-770.385" font-family="Times,serif" font-size="14.00">2080</text>
</a>
</g>
</g>
<!-- 27667 -->
<g id="node38" class="node"><title>27667</title>
<g id="a_node38"><a xlink:title="6th_week">
<ellipse fill="#ff9f0f" stroke="black" cx="579.822" cy="-564.037" rx="32.4942" ry="18"/>
<text text-anchor="middle" x="579.822" y="-560.337" font-family="Times,serif" font-size="14.00">27667</text>
</a>
</g>
</g>
<!-- 2080&#45;&gt;27667 -->
<g id="edge15" class="edge"><title>2080&#45;&gt;27667</title>
<path fill="none" stroke="black" d="M700.942,-757.251C676.348,-718.019 615.432,-620.843 590.609,-581.245"/>
</g>
<!-- 2147 -->
<g id="node2" class="node"><title>2147</title>
<g id="a_node2"><a xlink:title="6th_week">
<ellipse fill="#ff9f0f" stroke="black" cx="83.3491" cy="-333.03" rx="28.6953" ry="18"/>
<text text-anchor="middle" x="83.3491" y="-329.33" font-family="Times,serif" font-size="14.00">2147</text>
</a>
</g>
</g>
<!-- 6325 -->
<g id="node12" class="node"><title>6325</title>
<g id="a_node12"><a xlink:title="6th_week">
<ellipse fill="#ff9f0f" stroke="black" cx="285.845" cy="-428.927" rx="28.6953" ry="18"/>
<text text-anchor="middle" x="285.845" y="-425.227" font-family="Times,serif" font-size="14.00">6325</text>
</a>
</g>
</g>
<!-- 2147&#45;&gt;6325 -->
<g id="edge28" class="edge"><title>2147&#45;&gt;6325</title>
<path fill="none" stroke="black" d="M106.578,-344.031C145.639,-362.529 224.009,-399.643 262.887,-418.054"/>
</g>
<!-- 2254 -->
<g id="node3" class="node"><title>2254</title>
<g id="a_node3"><a xlink:title="6th_week">
<ellipse fill="grey" stroke="black" cx="357.079" cy="-46.0017" rx="28.6953" ry="18"/>
<text text-anchor="middle" x="357.079" y="-42.3017" font-family="Times,serif" font-size="14.00">2254</text>
</a>
</g>
</g>
<!-- 31407 -->
<g id="node46" class="node"><title>31407</title>
<g id="a_node46"><a xlink:title="6th_week">
<ellipse fill="#ff9f0f" stroke="black" cx="447.959" cy="-253.873" rx="32.4942" ry="18"/>
<text text-anchor="middle" x="447.959" y="-250.173" font-family="Times,serif" font-size="14.00">31407</text>
</a>
</g>
</g>
<!-- 2254&#45;&gt;31407 -->
<g id="edge48" class="edge"><title>2254&#45;&gt;31407</title>
<path fill="none" stroke="black" d="M364.671,-63.3672C381.735,-102.398 422.971,-196.719 440.195,-236.116"/>
</g>
<!-- 2488 -->
<g id="node4" class="node"><title>2488</title>
<g id="a_node4"><a xlink:title="6th_week">
<ellipse fill="#ff9f0f" stroke="black" cx="834.808" cy="-353.829" rx="28.6953" ry="18"/>
<text text-anchor="middle" x="834.808" y="-350.129" font-family="Times,serif" font-size="14.00">2488</text>
</a>
</g>
</g>
<!-- 20241 -->
<g id="node29" class="node"><title>20241</title>
<g id="a_node29"><a xlink:title="6th_week">
<ellipse fill="grey" stroke="black" cx="1012.42" cy="-210.986" rx="32.4942" ry="18"/>
<text text-anchor="middle" x="1012.42" y="-207.286" font-family="Times,serif" font-size="14.00">20241</text>
</a>
</g>
</g>
<!-- 2488&#45;&gt;20241 -->
<g id="edge17" class="edge"><title>2488&#45;&gt;20241</title>
<path fill="none" stroke="black" d="M852.487,-339.611C886.18,-312.513 959.294,-253.711 993.745,-226.003"/>
</g>
<!-- 2488&#45;&gt;27667 -->
<g id="edge19" class="edge"><title>2488&#45;&gt;27667</title>
<path fill="none" stroke="black" d="M817.282,-368.278C770.925,-406.494 645.413,-509.965 598.154,-548.925"/>
</g>
<!-- 2942 -->
<g id="node5" class="node"><title>2942</title>
<g id="a_node5"><a xlink:title="6th_week">
<ellipse fill="#ff9f0f" stroke="black" cx="705.719" cy="-684.685" rx="28.6953" ry="18"/>
<text text-anchor="middle" x="705.719" y="-680.985" font-family="Times,serif" font-size="14.00">2942</text>
</a>
</g>
</g>
<!-- 2942&#45;&gt;27667 -->
<g id="edge3" class="edge"><title>2942&#45;&gt;27667</title>
<path fill="none" stroke="black" d="M689.774,-669.405C665.822,-646.451 620.775,-603.283 596.437,-579.959"/>
</g>
<!-- 3350 -->
<g id="node6" class="node"><title>3350</title>
<g id="a_node6"><a xlink:title="6th_week">
<ellipse fill="#ff9f0f" stroke="black" cx="685.426" cy="-418.91" rx="28.6953" ry="18"/>
<text text-anchor="middle" x="685.426" y="-415.21" font-family="Times,serif" font-size="14.00">3350</text>
</a>
</g>
</g>
<!-- 3350&#45;&gt;27667 -->
<g id="edge44" class="edge"><title>3350&#45;&gt;27667</title>
<path fill="none" stroke="black" d="M673.517,-435.276C653.343,-463.001 612.648,-518.926 592.176,-547.06"/>
</g>
<!-- 3744 -->
<g id="node7" class="node"><title>3744</title>
<g id="a_node7"><a xlink:title="6th_week">
<ellipse fill="#ff9f0f" stroke="black" cx="405.892" cy="-743.139" rx="28.6953" ry="18"/>
<text text-anchor="middle" x="405.892" y="-739.439" font-family="Times,serif" font-size="14.00">3744</text>
</a>
</g>
</g>
<!-- 3744&#45;&gt;27667 -->
<g id="edge25" class="edge"><title>3744&#45;&gt;27667</title>
<path fill="none" stroke="black" d="M421.023,-727.558C453.834,-693.771 531.237,-614.067 564.353,-579.967"/>
</g>
<!-- 3924 -->
<g id="node8" class="node"><title>3924</title>
<g id="a_node8"><a xlink:title="6th_week">
<ellipse fill="#ff9f0f" stroke="black" cx="411.535" cy="-482.751" rx="28.6953" ry="18"/>
<text text-anchor="middle" x="411.535" y="-479.051" font-family="Times,serif" font-size="14.00">3924</text>
</a>
</g>
</g>
<!-- 3924&#45;&gt;27667 -->
<g id="edge46" class="edge"><title>3924&#45;&gt;27667</title>
<path fill="none" stroke="black" d="M434.231,-493.714C465.811,-508.968 522.783,-536.486 555.307,-552.196"/>
</g>
<!-- 4444 -->
<g id="node9" class="node"><title>4444</title>
<g id="a_node9"><a xlink:title="6th_week">
<ellipse fill="grey" stroke="black" cx="259.602" cy="-603.191" rx="28.6953" ry="18"/>
<text text-anchor="middle" x="259.602" y="-599.491" font-family="Times,serif" font-size="14.00">4444</text>
</a>
</g>
</g>
<!-- 12012 -->
<g id="node18" class="node"><title>12012</title>
<g id="a_node18"><a xlink:title="6th_week">
<ellipse fill="#efff05" stroke="black" cx="32.7095" cy="-634.935" rx="32.4942" ry="18"/>
<text text-anchor="middle" x="32.7095" y="-631.235" font-family="Times,serif" font-size="14.00">12012</text>
</a>
</g>
</g>
<!-- 4444&#45;&gt;12012 -->
<g id="edge21" class="edge"><title>4444&#45;&gt;12012</title>
<path fill="none" stroke="black" d="M231.325,-607.147C188.796,-613.097 108.637,-624.312 64.2635,-630.52"/>
</g>
<!-- 4444&#45;&gt;27667 -->
<g id="edge5" class="edge"><title>4444&#45;&gt;27667</title>
<path fill="none" stroke="black" d="M287.739,-599.751C347.106,-592.492 484.866,-575.648 547.629,-567.974"/>
</g>
<!-- 4899 -->
<g id="node10" class="node"><title>4899</title>
<g id="a_node10"><a xlink:title="6th_week">
<ellipse fill="#ff9f0f" stroke="black" cx="693.422" cy="-851.243" rx="28.6953" ry="18"/>
<text text-anchor="middle" x="693.422" y="-847.543" font-family="Times,serif" font-size="14.00">4899</text>
</a>
</g>
</g>
<!-- 23990 -->
<g id="node34" class="node"><title>23990</title>
<g id="a_node34"><a xlink:title="6th_week">
<ellipse fill="#ff9f0f" stroke="black" cx="782.007" cy="-1082.7" rx="32.4942" ry="18"/>
<text text-anchor="middle" x="782.007" y="-1079" font-family="Times,serif" font-size="14.00">23990</text>
</a>
</g>
</g>
<!-- 4899&#45;&gt;23990 -->
<g id="edge31" class="edge"><title>4899&#45;&gt;23990</title>
<path fill="none" stroke="black" d="M700.226,-869.021C716.715,-912.105 758.666,-1021.72 775.179,-1064.86"/>
</g>
<!-- 4899&#45;&gt;27667 -->
<g id="edge24" class="edge"><title>4899&#45;&gt;27667</title>
<path fill="none" stroke="black" d="M686.487,-833.71C666.206,-782.436 607.159,-633.153 586.811,-581.707"/>
</g>
<!-- 5109 -->
<g id="node11" class="node"><title>5109</title>
<g id="a_node11"><a xlink:title="6th_week">
<ellipse fill="#ff9f0f" stroke="black" cx="398.691" cy="-581.402" rx="28.6953" ry="18"/>
<text text-anchor="middle" x="398.691" y="-577.702" font-family="Times,serif" font-size="14.00">5109</text>
</a>
</g>
</g>
<!-- 5109&#45;&gt;27667 -->
<g id="edge47" class="edge"><title>5109&#45;&gt;27667</title>
<path fill="none" stroke="black" d="M426.992,-578.689C459.727,-575.55 513.497,-570.396 547.752,-567.112"/>
</g>
<!-- 6325&#45;&gt;27667 -->
<g id="edge27" class="edge"><title>6325&#45;&gt;27667</title>
<path fill="none" stroke="black" d="M309.406,-439.755C363.905,-464.803 498.298,-526.569 554.487,-552.394"/>
</g>
<!-- 8269 -->
<g id="node13" class="node"><title>8269</title>
<g id="a_node13"><a xlink:title="6th_week">
<ellipse fill="#ff9f0f" stroke="black" cx="706.934" cy="-341.366" rx="28.6953" ry="18"/>
<text text-anchor="middle" x="706.934" y="-337.666" font-family="Times,serif" font-size="14.00">8269</text>
</a>
</g>
</g>
<!-- 8269&#45;&gt;27667 -->
<g id="edge2" class="edge"><title>8269&#45;&gt;27667</title>
<path fill="none" stroke="black" d="M697.171,-358.469C673.568,-399.816 613.609,-504.85 589.794,-546.569"/>
</g>
<!-- 8485 -->
<g id="node14" class="node"><title>8485</title>
<g id="a_node14"><a xlink:title="6th_week">
<ellipse fill="#ff9f0f" stroke="black" cx="572.407" cy="-370.941" rx="28.6953" ry="18"/>
<text text-anchor="middle" x="572.407" y="-367.241" font-family="Times,serif" font-size="14.00">8485</text>
</a>
</g>
</g>
<!-- 8485&#45;&gt;27667 -->
<g id="edge12" class="edge"><title>8485&#45;&gt;27667</title>
<path fill="none" stroke="black" d="M573.104,-389.107C574.518,-425.91 577.705,-508.899 579.121,-545.779"/>
</g>
<!-- 9150 -->
<g id="node15" class="node"><title>9150</title>
<g id="a_node15"><a xlink:title="6th_week">
<ellipse fill="#ff9f0f" stroke="black" cx="556.295" cy="-298.779" rx="28.6953" ry="18"/>
<text text-anchor="middle" x="556.295" y="-295.079" font-family="Times,serif" font-size="14.00">9150</text>
</a>
</g>
</g>
<!-- 9150&#45;&gt;27667 -->
<g id="edge7" class="edge"><title>9150&#45;&gt;27667</title>
<path fill="none" stroke="black" d="M557.912,-317.012C562.221,-365.587 573.939,-497.71 578.225,-546.028"/>
</g>
<!-- 11060 -->
<g id="node16" class="node"><title>11060</title>
<g id="a_node16"><a xlink:title="6th_week">
<ellipse fill="#ff9f0f" stroke="black" cx="797.424" cy="-451.655" rx="32.4942" ry="18"/>
<text text-anchor="middle" x="797.424" y="-447.955" font-family="Times,serif" font-size="14.00">11060</text>
</a>
</g>
</g>
<!-- 11060&#45;&gt;27667 -->
<g id="edge40" class="edge"><title>11060&#45;&gt;27667</title>
<path fill="none" stroke="black" d="M773.305,-464.112C731.367,-485.771 645.499,-530.118 603.717,-551.697"/>
</g>
<!-- 11371 -->
<g id="node17" class="node"><title>11371</title>
<g id="a_node17"><a xlink:title="6th_week">
<ellipse fill="grey" stroke="black" cx="722.859" cy="-17.812" rx="32.4942" ry="18"/>
<text text-anchor="middle" x="722.859" y="-14.112" font-family="Times,serif" font-size="14.00">11371</text>
</a>
</g>
</g>
<!-- 14533 -->
<g id="node23" class="node"><title>14533</title>
<g id="a_node23"><a xlink:title="6th_week">
<ellipse fill="#ff9f0f" stroke="black" cx="664.43" cy="-241.434" rx="32.4942" ry="18"/>
<text text-anchor="middle" x="664.43" y="-237.734" font-family="Times,serif" font-size="14.00">14533</text>
</a>
</g>
</g>
<!-- 11371&#45;&gt;14533 -->
<g id="edge11" class="edge"><title>11371&#45;&gt;14533</title>
<path fill="none" stroke="black" d="M718.176,-35.734C707.236,-77.6053 680.098,-181.471 669.135,-223.427"/>
</g>
<!-- 12462 -->
<g id="node19" class="node"><title>12462</title>
<g id="a_node19"><a xlink:title="6th_week">
<ellipse fill="grey" stroke="black" cx="477.379" cy="-790.349" rx="32.4942" ry="18"/>
<text text-anchor="middle" x="477.379" y="-786.649" font-family="Times,serif" font-size="14.00">12462</text>
</a>
</g>
</g>
<!-- 12462&#45;&gt;27667 -->
<g id="edge33" class="edge"><title>12462&#45;&gt;27667</title>
<path fill="none" stroke="black" d="M485.418,-772.591C504.568,-730.285 552.708,-623.935 571.821,-581.713"/>
</g>
<!-- 12909 -->
<g id="node20" class="node"><title>12909</title>
<g id="a_node20"><a xlink:title="6th_week">
<ellipse fill="#ff9f0f" stroke="black" cx="556.331" cy="-754.618" rx="32.4942" ry="18"/>
<text text-anchor="middle" x="556.331" y="-750.918" font-family="Times,serif" font-size="14.00">12909</text>
</a>
</g>
</g>
<!-- 12909&#45;&gt;27667 -->
<g id="edge14" class="edge"><title>12909&#45;&gt;27667</title>
<path fill="none" stroke="black" d="M558.583,-736.345C563.074,-699.917 573.092,-618.638 577.576,-582.256"/>
</g>
<!-- 13869 -->
<g id="node21" class="node"><title>13869</title>
<g id="a_node21"><a xlink:title="6th_week">
<ellipse fill="#ff9f0f" stroke="black" cx="329.59" cy="-772.51" rx="32.4942" ry="18"/>
<text text-anchor="middle" x="329.59" y="-768.81" font-family="Times,serif" font-size="14.00">13869</text>
</a>
</g>
</g>
<!-- 17269 -->
<g id="node25" class="node"><title>17269</title>
<g id="a_node25"><a xlink:title="6th_week">
<ellipse fill="#ff9f0f" stroke="black" cx="136.096" cy="-940.422" rx="32.4942" ry="18"/>
<text text-anchor="middle" x="136.096" y="-936.722" font-family="Times,serif" font-size="14.00">17269</text>
</a>
</g>
</g>
<!-- 13869&#45;&gt;17269 -->
<g id="edge8" class="edge"><title>13869&#45;&gt;17269</title>
<path fill="none" stroke="black" d="M312.077,-787.707C275.331,-819.595 190.541,-893.175 153.709,-925.139"/>
</g>
<!-- 13869&#45;&gt;27667 -->
<g id="edge37" class="edge"><title>13869&#45;&gt;27667</title>
<path fill="none" stroke="black" d="M347.586,-757.517C393.643,-719.145 515.406,-617.703 561.653,-579.175"/>
</g>
<!-- 14268 -->
<g id="node22" class="node"><title>14268</title>
<g id="a_node22"><a xlink:title="6th_week">
<ellipse fill="#ff9f0f" stroke="black" cx="348.104" cy="-625.783" rx="32.4942" ry="18"/>
<text text-anchor="middle" x="348.104" y="-622.083" font-family="Times,serif" font-size="14.00">14268</text>
</a>
</g>
</g>
<!-- 14268&#45;&gt;27667 -->
<g id="edge32" class="edge"><title>14268&#45;&gt;27667</title>
<path fill="none" stroke="black" d="M377.451,-617.963C421.902,-606.119 505.823,-583.756 550.348,-571.891"/>
</g>
<!-- 14533&#45;&gt;27667 -->
<g id="edge23" class="edge"><title>14533&#45;&gt;27667</title>
<path fill="none" stroke="black" d="M659.639,-259.703C644.747,-316.485 599.381,-489.462 584.561,-545.969"/>
</g>
<!-- 16553 -->
<g id="node24" class="node"><title>16553</title>
<g id="a_node24"><a xlink:title="6th_week">
<ellipse fill="#ff9f0f" stroke="black" cx="856.386" cy="-725.331" rx="32.4942" ry="18"/>
<text text-anchor="middle" x="856.386" y="-721.631" font-family="Times,serif" font-size="14.00">16553</text>
</a>
</g>
</g>
<!-- 16553&#45;&gt;27667 -->
<g id="edge30" class="edge"><title>16553&#45;&gt;27667</title>
<path fill="none" stroke="black" d="M833.754,-712.132C781.764,-681.811 654.296,-607.471 602.379,-577.193"/>
</g>
<!-- 30284 -->
<g id="node44" class="node"><title>30284</title>
<g id="a_node44"><a xlink:title="6th_week">
<ellipse fill="#ff9f0f" stroke="black" cx="1070.92" cy="-860.469" rx="32.4942" ry="18"/>
<text text-anchor="middle" x="1070.92" y="-856.769" font-family="Times,serif" font-size="14.00">30284</text>
</a>
</g>
</g>
<!-- 16553&#45;&gt;30284 -->
<g id="edge9" class="edge"><title>16553&#45;&gt;30284</title>
<path fill="none" stroke="black" d="M878.137,-739.033C919.362,-765.001 1008.41,-821.092 1049.43,-846.933"/>
</g>
<!-- 17794 -->
<g id="node26" class="node"><title>17794</title>
<g id="a_node26"><a xlink:title="6th_week">
<ellipse fill="grey" stroke="black" cx="324.823" cy="-533.627" rx="32.4942" ry="18"/>
<text text-anchor="middle" x="324.823" y="-529.927" font-family="Times,serif" font-size="14.00">17794</text>
</a>
</g>
</g>
<!-- 17794&#45;&gt;27667 -->
<g id="edge43" class="edge"><title>17794&#45;&gt;27667</title>
<path fill="none" stroke="black" d="M356.603,-537.417C405.601,-543.26 499.045,-554.404 548.043,-560.248"/>
</g>
<!-- 18891 -->
<g id="node27" class="node"><title>18891</title>
<g id="a_node27"><a xlink:title="6th_week">
<ellipse fill="#ff9f0f" stroke="black" cx="508.613" cy="-865.176" rx="32.4942" ry="18"/>
<text text-anchor="middle" x="508.613" y="-861.476" font-family="Times,serif" font-size="14.00">18891</text>
</a>
</g>
</g>
<!-- 18891&#45;&gt;27667 -->
<g id="edge39" class="edge"><title>18891&#45;&gt;27667</title>
<path fill="none" stroke="black" d="M512.854,-847.24C525.489,-793.807 562.79,-636.065 575.513,-582.26"/>
</g>
<!-- 29259 -->
<g id="node42" class="node"><title>29259</title>
<g id="a_node42"><a xlink:title="6th_week">
<ellipse fill="#ff9f0f" stroke="black" cx="451.722" cy="-1110.63" rx="32.4942" ry="18"/>
<text text-anchor="middle" x="451.722" y="-1106.93" font-family="Times,serif" font-size="14.00">29259</text>
</a>
</g>
</g>
<!-- 18891&#45;&gt;29259 -->
<g id="edge34" class="edge"><title>18891&#45;&gt;29259</title>
<path fill="none" stroke="black" d="M504.429,-883.225C493.908,-928.616 466.438,-1047.13 455.911,-1092.55"/>
</g>
<!-- 19591 -->
<g id="node28" class="node"><title>19591</title>
<g id="a_node28"><a xlink:title="6th_week">
<ellipse fill="#ff9f0f" stroke="black" cx="481.323" cy="-330.993" rx="32.4942" ry="18"/>
<text text-anchor="middle" x="481.323" y="-327.293" font-family="Times,serif" font-size="14.00">19591</text>
</a>
</g>
</g>
<!-- 19591&#45;&gt;27667 -->
<g id="edge10" class="edge"><title>19591&#45;&gt;27667</title>
<path fill="none" stroke="black" d="M488.888,-348.892C507.268,-392.378 554.099,-503.178 572.366,-546.396"/>
</g>
<!-- 20631 -->
<g id="node30" class="node"><title>20631</title>
<g id="a_node30"><a xlink:title="6th_week">
<ellipse fill="#ff9f0f" stroke="black" cx="787.429" cy="-649.098" rx="32.4942" ry="18"/>
<text text-anchor="middle" x="787.429" y="-645.398" font-family="Times,serif" font-size="14.00">20631</text>
</a>
</g>
</g>
<!-- 20631&#45;&gt;27667 -->
<g id="edge49" class="edge"><title>20631&#45;&gt;27667</title>
<path fill="none" stroke="black" d="M761.135,-638.325C721.31,-622.008 646.121,-591.202 606.229,-574.857"/>
</g>
<!-- 23334 -->
<g id="node31" class="node"><title>23334</title>
<g id="a_node31"><a xlink:title="6th_week">
<ellipse fill="#ff9f0f" stroke="black" cx="384.165" cy="-677.784" rx="32.4942" ry="18"/>
<text text-anchor="middle" x="384.165" y="-674.084" font-family="Times,serif" font-size="14.00">23334</text>
</a>
</g>
</g>
<!-- 23334&#45;&gt;27667 -->
<g id="edge1" class="edge"><title>23334&#45;&gt;27667</title>
<path fill="none" stroke="black" d="M406.609,-664.736C444.25,-642.853 519.672,-599.006 557.339,-577.108"/>
</g>
<!-- 23707 -->
<g id="node32" class="node"><title>23707</title>
<g id="a_node32"><a xlink:title="6th_week">
<ellipse fill="#ff9f0f" stroke="black" cx="760.661" cy="-395.266" rx="32.4942" ry="18"/>
<text text-anchor="middle" x="760.661" y="-391.566" font-family="Times,serif" font-size="14.00">23707</text>
</a>
</g>
</g>
<!-- 23707&#45;&gt;27667 -->
<g id="edge4" class="edge"><title>23707&#45;&gt;27667</title>
<path fill="none" stroke="black" d="M743.972,-410.842C709.522,-442.993 630.886,-516.381 596.47,-548.5"/>
</g>
<!-- 23788 -->
<g id="node33" class="node"><title>23788</title>
<g id="a_node33"><a xlink:title="6th_week">
<ellipse fill="#ff9f0f" stroke="black" cx="487.499" cy="-701.548" rx="32.4942" ry="18"/>
<text text-anchor="middle" x="487.499" y="-697.848" font-family="Times,serif" font-size="14.00">23788</text>
</a>
</g>
</g>
<!-- 23788&#45;&gt;27667 -->
<g id="edge6" class="edge"><title>23788&#45;&gt;27667</title>
<path fill="none" stroke="black" d="M499.005,-684.41C516.794,-657.915 550.761,-607.322 568.461,-580.959"/>
</g>
<!-- 23992 -->
<g id="node35" class="node"><title>23992</title>
<g id="a_node35"><a xlink:title="6th_week">
<ellipse fill="#ff9f0f" stroke="black" cx="823.247" cy="-593.423" rx="32.4942" ry="18"/>
<text text-anchor="middle" x="823.247" y="-589.723" font-family="Times,serif" font-size="14.00">23992</text>
</a>
</g>
</g>
<!-- 23992&#45;&gt;27667 -->
<g id="edge42" class="edge"><title>23992&#45;&gt;27667</title>
<path fill="none" stroke="black" d="M791.424,-589.581C744.771,-583.949 658.31,-573.512 611.654,-567.88"/>
</g>
<!-- 24048 -->
<g id="node36" class="node"><title>24048</title>
<g id="a_node36"><a xlink:title="6th_week">
<ellipse fill="#ff9f0f" stroke="black" cx="397.631" cy="-364.656" rx="32.4942" ry="18"/>
<text text-anchor="middle" x="397.631" y="-360.956" font-family="Times,serif" font-size="14.00">24048</text>
</a>
</g>
</g>
<!-- 24048&#45;&gt;27667 -->
<g id="edge22" class="edge"><title>24048&#45;&gt;27667</title>
<path fill="none" stroke="black" d="M412.541,-380.972C446.79,-418.453 530.761,-510.347 564.962,-547.775"/>
</g>
<!-- 24099 -->
<g id="node37" class="node"><title>24099</title>
<g id="a_node37"><a xlink:title="6th_week">
<ellipse fill="#ff9f0f" stroke="black" cx="909.024" cy="-550.029" rx="32.4942" ry="18"/>
<text text-anchor="middle" x="909.024" y="-546.329" font-family="Times,serif" font-size="14.00">24099</text>
</a>
</g>
</g>
<!-- 24099&#45;&gt;27667 -->
<g id="edge35" class="edge"><title>24099&#45;&gt;27667</title>
<path fill="none" stroke="black" d="M876.558,-551.411C813.619,-554.089 675.663,-559.959 612.532,-562.646"/>
</g>
<!-- 31564 -->
<g id="node47" class="node"><title>31564</title>
<g id="a_node47"><a xlink:title="6th_week">
<ellipse fill="grey" stroke="black" cx="1142.7" cy="-542.544" rx="32.4942" ry="18"/>
<text text-anchor="middle" x="1142.7" y="-538.844" font-family="Times,serif" font-size="14.00">31564</text>
</a>
</g>
</g>
<!-- 24099&#45;&gt;31564 -->
<g id="edge45" class="edge"><title>24099&#45;&gt;31564</title>
<path fill="none" stroke="black" d="M941.515,-548.988C986.034,-547.562 1065.54,-545.016 1110.11,-543.588"/>
</g>
<!-- 27669 -->
<g id="node39" class="node"><title>27669</title>
<g id="a_node39"><a xlink:title="6th_week">
<ellipse fill="#ff9f0f" stroke="black" cx="830.637" cy="-506.945" rx="32.4942" ry="18"/>
<text text-anchor="middle" x="830.637" y="-503.245" font-family="Times,serif" font-size="14.00">27669</text>
</a>
</g>
</g>
<!-- 27667&#45;&gt;27669 -->
<g id="edge20" class="edge"><title>27667&#45;&gt;27669</title>
<path fill="none" stroke="black" d="M610.076,-557.151C658.284,-546.177 752,-524.845 800.275,-513.856"/>
</g>
<!-- 27963 -->
<g id="node40" class="node"><title>27963</title>
<g id="a_node40"><a xlink:title="6th_week">
<ellipse fill="#ff9f0f" stroke="black" cx="368.672" cy="-422.049" rx="32.4942" ry="18"/>
<text text-anchor="middle" x="368.672" y="-418.349" font-family="Times,serif" font-size="14.00">27963</text>
</a>
</g>
</g>
<!-- 27667&#45;&gt;27963 -->
<g id="edge26" class="edge"><title>27667&#45;&gt;27963</title>
<path fill="none" stroke="black" d="M558.804,-549.904C518.331,-522.688 430.011,-463.296 389.604,-436.125"/>
</g>
<!-- 29249 -->
<g id="node41" class="node"><title>29249</title>
<g id="a_node41"><a xlink:title="6th_week">
<ellipse fill="#ff9f0f" stroke="black" cx="777.249" cy="-716.626" rx="32.4942" ry="18"/>
<text text-anchor="middle" x="777.249" y="-712.926" font-family="Times,serif" font-size="14.00">29249</text>
</a>
</g>
</g>
<!-- 27667&#45;&gt;29249 -->
<g id="edge38" class="edge"><title>27667&#45;&gt;29249</title>
<path fill="none" stroke="black" d="M598.752,-578.668C636.392,-607.76 720.256,-672.578 758.086,-701.816"/>
</g>
<!-- 29358 -->
<g id="node43" class="node"><title>29358</title>
<g id="a_node43"><a xlink:title="6th_week">
<ellipse fill="#ff9f0f" stroke="black" cx="486.086" cy="-418.198" rx="32.4942" ry="18"/>
<text text-anchor="middle" x="486.086" y="-414.498" font-family="Times,serif" font-size="14.00">29358</text>
</a>
</g>
</g>
<!-- 27667&#45;&gt;29358 -->
<g id="edge16" class="edge"><title>27667&#45;&gt;29358</title>
<path fill="none" stroke="black" d="M568.886,-547.022C550.921,-519.071 515.352,-463.731 497.243,-435.557"/>
</g>
<!-- 31374 -->
<g id="node45" class="node"><title>31374</title>
<g id="a_node45"><a xlink:title="6th_week">
<ellipse fill="#ff9f0f" stroke="black" cx="635.63" cy="-319.873" rx="32.4942" ry="18"/>
<text text-anchor="middle" x="635.63" y="-316.173" font-family="Times,serif" font-size="14.00">31374</text>
</a>
</g>
</g>
<!-- 27667&#45;&gt;31374 -->
<g id="edge18" class="edge"><title>27667&#45;&gt;31374</title>
<path fill="none" stroke="black" d="M583.926,-546.083C594.246,-500.93 621.194,-383.035 631.521,-337.853"/>
</g>
<!-- 27667&#45;&gt;31407 -->
<g id="edge13" class="edge"><title>27667&#45;&gt;31407</title>
<path fill="none" stroke="black" d="M572.355,-546.473C549.2,-492.009 478.773,-326.354 455.507,-271.629"/>
</g>
<!-- 33558 -->
<g id="node48" class="node"><title>33558</title>
<g id="a_node48"><a xlink:title="6th_week">
<ellipse fill="#ff9f0f" stroke="black" cx="743.839" cy="-554.862" rx="32.4942" ry="18"/>
<text text-anchor="middle" x="743.839" y="-551.162" font-family="Times,serif" font-size="14.00">33558</text>
</a>
</g>
</g>
<!-- 27667&#45;&gt;33558 -->
<g id="edge36" class="edge"><title>27667&#45;&gt;33558</title>
<path fill="none" stroke="black" d="M612.227,-562.225C640.981,-560.616 682.768,-558.278 711.502,-556.671"/>
</g>
<!-- 33847 -->
<g id="node49" class="node"><title>33847</title>
<g id="a_node49"><a xlink:title="6th_week">
<ellipse fill="grey" stroke="black" cx="592.749" cy="-810.296" rx="32.4942" ry="18"/>
<text text-anchor="middle" x="592.749" y="-806.596" font-family="Times,serif" font-size="14.00">33847</text>
</a>
</g>
</g>
<!-- 27667&#45;&gt;33847 -->
<g id="edge29" class="edge"><title>27667&#45;&gt;33847</title>
<path fill="none" stroke="black" d="M580.773,-582.145C583.163,-627.686 589.405,-746.592 591.797,-792.162"/>
</g>
<!-- 35107 -->
<g id="node50" class="node"><title>35107</title>
<g id="a_node50"><a xlink:title="6th_week">
<ellipse fill="#ff9f0f" stroke="black" cx="632.264" cy="-762.714" rx="32.4942" ry="18"/>
<text text-anchor="middle" x="632.264" y="-759.014" font-family="Times,serif" font-size="14.00">35107</text>
</a>
</g>
</g>
<!-- 27667&#45;&gt;35107 -->
<g id="edge41" class="edge"><title>27667&#45;&gt;35107</title>
<path fill="none" stroke="black" d="M584.568,-582.019C594.528,-619.749 617.508,-706.811 627.491,-744.63"/>
</g>
</g>
</svg>
