<?xml version="1.0" encoding="UTF-8" standalone="no"?>
<!DOCTYPE svg PUBLIC "-//W3C//DTD SVG 1.1//EN"
 "http://www.w3.org/Graphics/SVG/1.1/DTD/svg11.dtd">
<!-- Generated by graphviz version 2.38.0 (20140413.2041)
 -->
<!-- Title: %3 Pages: 1 -->
<svg width="1154pt" height="1657pt"
 viewBox="0.00 0.00 1154.00 1657.00" xmlns="http://www.w3.org/2000/svg" xmlns:xlink="http://www.w3.org/1999/xlink">
<g id="graph0" class="graph" transform="scale(1 1) rotate(0) translate(4 1653)">
<title>%3</title>
<polygon fill="white" stroke="none" points="-4,4 -4,-1653 1150,-1653 1150,4 -4,4"/>
<!-- 60 -->
<g id="node1" class="node"><title>60</title>
<g id="a_node1"><a xlink:title="PRE">
<ellipse fill="#ff9f0f" stroke="black" cx="1097.96" cy="-434.106" rx="27" ry="18"/>
<text text-anchor="middle" x="1097.96" y="-430.406" font-family="Times,serif" font-size="14.00">60</text>
</a>
</g>
</g>
<!-- 4261 -->
<g id="node8" class="node"><title>4261</title>
<g id="a_node8"><a xlink:title="PRE">
<ellipse fill="grey" stroke="black" cx="968.407" cy="-430.621" rx="28.6953" ry="18"/>
<text text-anchor="middle" x="968.407" y="-426.921" font-family="Times,serif" font-size="14.00">4261</text>
</a>
</g>
</g>
<!-- 60&#45;&gt;4261 -->
<g id="edge5" class="edge"><title>60&#45;&gt;4261</title>
<path fill="none" stroke="black" d="M1070.8,-433.376C1049.29,-432.797 1019.29,-431.99 997.33,-431.399"/>
</g>
<!-- 348 -->
<g id="node2" class="node"><title>348</title>
<g id="a_node2"><a xlink:title="PRE">
<ellipse fill="#efff05" stroke="black" cx="514.385" cy="-1037.96" rx="27" ry="18"/>
<text text-anchor="middle" x="514.385" y="-1034.26" font-family="Times,serif" font-size="14.00">348</text>
</a>
</g>
</g>
<!-- 8835 -->
<g id="node14" class="node"><title>8835</title>
<g id="a_node14"><a xlink:title="PRE">
<ellipse fill="#efff05" stroke="black" cx="349.665" cy="-1057.98" rx="28.6953" ry="18"/>
<text text-anchor="middle" x="349.665" y="-1054.28" font-family="Times,serif" font-size="14.00">8835</text>
</a>
</g>
</g>
<!-- 348&#45;&gt;8835 -->
<g id="edge57" class="edge"><title>348&#45;&gt;8835</title>
<path fill="none" stroke="black" d="M487.553,-1041.22C457.379,-1044.89 408.59,-1050.82 377.865,-1054.55"/>
</g>
<!-- 19647 -->
<g id="node24" class="node"><title>19647</title>
<g id="a_node24"><a xlink:title="PRE">
<ellipse fill="#efff05" stroke="black" cx="572.036" cy="-803.85" rx="32.4942" ry="18"/>
<text text-anchor="middle" x="572.036" y="-800.15" font-family="Times,serif" font-size="14.00">19647</text>
</a>
</g>
</g>
<!-- 348&#45;&gt;19647 -->
<g id="edge32" class="edge"><title>348&#45;&gt;19647</title>
<path fill="none" stroke="black" d="M518.813,-1019.98C529.544,-976.402 556.846,-865.533 567.592,-821.892"/>
</g>
<!-- 26240 -->
<g id="node31" class="node"><title>26240</title>
<g id="a_node31"><a xlink:title="PRE">
<ellipse fill="#efff05" stroke="black" cx="623.634" cy="-1265.04" rx="32.4942" ry="18"/>
<text text-anchor="middle" x="623.634" y="-1261.34" font-family="Times,serif" font-size="14.00">26240</text>
</a>
</g>
</g>
<!-- 348&#45;&gt;26240 -->
<g id="edge42" class="edge"><title>348&#45;&gt;26240</title>
<path fill="none" stroke="black" d="M522.776,-1055.4C543.112,-1097.67 594.849,-1205.21 615.215,-1247.54"/>
</g>
<!-- 29567 -->
<g id="node35" class="node"><title>29567</title>
<g id="a_node35"><a xlink:title="PRE">
<ellipse fill="#efff05" stroke="black" cx="458.143" cy="-1169.48" rx="32.4942" ry="18"/>
<text text-anchor="middle" x="458.143" y="-1165.78" font-family="Times,serif" font-size="14.00">29567</text>
</a>
</g>
</g>
<!-- 348&#45;&gt;29567 -->
<g id="edge41" class="edge"><title>348&#45;&gt;29567</title>
<path fill="none" stroke="black" d="M506.916,-1055.43C496.159,-1080.58 476.416,-1126.75 465.642,-1151.95"/>
</g>
<!-- 3437 -->
<g id="node43" class="node"><title>3437</title>
<g id="a_node43"><a xlink:title="PRE">
<ellipse fill="#efff05" stroke="black" cx="430.825" cy="-971.704" rx="28.6953" ry="18"/>
<text text-anchor="middle" x="430.825" y="-968.004" font-family="Times,serif" font-size="14.00">3437</text>
</a>
</g>
</g>
<!-- 348&#45;&gt;3437 -->
<g id="edge8" class="edge"><title>348&#45;&gt;3437</title>
<path fill="none" stroke="black" d="M496.664,-1023.91C482.579,-1012.74 462.961,-997.186 448.808,-985.964"/>
</g>
<!-- 1223 -->
<g id="node3" class="node"><title>1223</title>
<g id="a_node3"><a xlink:title="PRE">
<ellipse fill="#efff05" stroke="black" cx="678.516" cy="-638.602" rx="28.6953" ry="18"/>
<text text-anchor="middle" x="678.516" y="-634.902" font-family="Times,serif" font-size="14.00">1223</text>
</a>
</g>
</g>
<!-- 14101 -->
<g id="node17" class="node"><title>14101</title>
<g id="a_node17"><a xlink:title="PRE">
<ellipse fill="#efff05" stroke="black" cx="607.203" cy="-530.928" rx="32.4942" ry="18"/>
<text text-anchor="middle" x="607.203" y="-527.228" font-family="Times,serif" font-size="14.00">14101</text>
</a>
</g>
</g>
<!-- 1223&#45;&gt;14101 -->
<g id="edge37" class="edge"><title>1223&#45;&gt;14101</title>
<path fill="none" stroke="black" d="M667.374,-621.778C654.055,-601.668 631.891,-568.204 618.503,-547.989"/>
</g>
<!-- 1571 -->
<g id="node4" class="node"><title>1571</title>
<g id="a_node4"><a xlink:title="PRE">
<ellipse fill="grey" stroke="black" cx="532.982" cy="-1580.96" rx="28.6953" ry="18"/>
<text text-anchor="middle" x="532.982" y="-1577.26" font-family="Times,serif" font-size="14.00">1571</text>
</a>
</g>
</g>
<!-- 21410 -->
<g id="node28" class="node"><title>21410</title>
<g id="a_node28"><a xlink:title="PRE">
<ellipse fill="#efff05" stroke="black" cx="480.399" cy="-1439.27" rx="32.4942" ry="18"/>
<text text-anchor="middle" x="480.399" y="-1435.57" font-family="Times,serif" font-size="14.00">21410</text>
</a>
</g>
</g>
<!-- 1571&#45;&gt;21410 -->
<g id="edge40" class="edge"><title>1571&#45;&gt;21410</title>
<path fill="none" stroke="black" d="M526.429,-1563.3C516.352,-1536.15 497.161,-1484.44 487.035,-1457.15"/>
</g>
<!-- 1772 -->
<g id="node5" class="node"><title>1772</title>
<g id="a_node5"><a xlink:title="PRE">
<ellipse fill="#efff05" stroke="black" cx="925.636" cy="-358.083" rx="28.6953" ry="18"/>
<text text-anchor="middle" x="925.636" y="-354.383" font-family="Times,serif" font-size="14.00">1772</text>
</a>
</g>
</g>
<!-- 15142 -->
<g id="node20" class="node"><title>15142</title>
<g id="a_node20"><a xlink:title="PRE">
<ellipse fill="#efff05" stroke="black" cx="796.678" cy="-415.275" rx="32.4942" ry="18"/>
<text text-anchor="middle" x="796.678" y="-411.575" font-family="Times,serif" font-size="14.00">15142</text>
</a>
</g>
</g>
<!-- 1772&#45;&gt;15142 -->
<g id="edge34" class="edge"><title>1772&#45;&gt;15142</title>
<path fill="none" stroke="black" d="M901.983,-368.573C879.442,-378.57 845.593,-393.582 822.392,-403.871"/>
</g>
<!-- 2642 -->
<g id="node6" class="node"><title>2642</title>
<g id="a_node6"><a xlink:title="PRE">
<ellipse fill="grey" stroke="black" cx="47.5507" cy="-1025.6" rx="28.6953" ry="18"/>
<text text-anchor="middle" x="47.5507" y="-1021.9" font-family="Times,serif" font-size="14.00">2642</text>
</a>
</g>
</g>
<!-- 3108 -->
<g id="node7" class="node"><title>3108</title>
<g id="a_node7"><a xlink:title="PRE">
<ellipse fill="#efff05" stroke="black" cx="158.055" cy="-1090.48" rx="28.6953" ry="18"/>
<text text-anchor="middle" x="158.055" y="-1086.78" font-family="Times,serif" font-size="14.00">3108</text>
</a>
</g>
</g>
<!-- 2642&#45;&gt;3108 -->
<g id="edge9" class="edge"><title>2642&#45;&gt;3108</title>
<path fill="none" stroke="black" d="M68.5959,-1037.95C88.2589,-1049.5 117.451,-1066.64 137.089,-1078.17"/>
</g>
<!-- 7881 -->
<g id="node12" class="node"><title>7881</title>
<g id="a_node12"><a xlink:title="PRE">
<ellipse fill="#efff05" stroke="black" cx="28.497" cy="-1084.15" rx="28.6953" ry="18"/>
<text text-anchor="middle" x="28.497" y="-1080.45" font-family="Times,serif" font-size="14.00">7881</text>
</a>
</g>
</g>
<!-- 3108&#45;&gt;7881 -->
<g id="edge23" class="edge"><title>3108&#45;&gt;7881</title>
<path fill="none" stroke="black" d="M129.302,-1089.07C107.832,-1088.03 78.6205,-1086.6 57.1698,-1085.55"/>
</g>
<!-- 3108&#45;&gt;8835 -->
<g id="edge17" class="edge"><title>3108&#45;&gt;8835</title>
<path fill="none" stroke="black" d="M185.917,-1085.75C222.245,-1079.59 285.426,-1068.87 321.77,-1062.71"/>
</g>
<!-- 21325 -->
<g id="node27" class="node"><title>21325</title>
<g id="a_node27"><a xlink:title="PRE">
<ellipse fill="#efff05" stroke="black" cx="32.1269" cy="-1141.07" rx="32.4942" ry="18"/>
<text text-anchor="middle" x="32.1269" y="-1137.37" font-family="Times,serif" font-size="14.00">21325</text>
</a>
</g>
</g>
<!-- 3108&#45;&gt;21325 -->
<g id="edge7" class="edge"><title>3108&#45;&gt;21325</title>
<path fill="none" stroke="black" d="M133.775,-1100.23C112.191,-1108.9 80.7042,-1121.56 58.5064,-1130.47"/>
</g>
<!-- 25650 -->
<g id="node56" class="node"><title>25650</title>
<g id="a_node56"><a xlink:title="PRE">
<ellipse fill="grey" stroke="black" cx="68.3772" cy="-1190.22" rx="32.4942" ry="18"/>
<text text-anchor="middle" x="68.3772" y="-1186.52" font-family="Times,serif" font-size="14.00">25650</text>
</a>
</g>
</g>
<!-- 3108&#45;&gt;25650 -->
<g id="edge48" class="edge"><title>3108&#45;&gt;25650</title>
<path fill="none" stroke="black" d="M143.647,-1106.5C127.011,-1125.01 99.7938,-1155.28 83.0477,-1173.9"/>
</g>
<!-- 4261&#45;&gt;15142 -->
<g id="edge21" class="edge"><title>4261&#45;&gt;15142</title>
<path fill="none" stroke="black" d="M940.049,-428.087C909.469,-425.354 860.878,-421.012 828.881,-418.153"/>
</g>
<!-- 5388 -->
<g id="node9" class="node"><title>5388</title>
<g id="a_node9"><a xlink:title="PRE">
<ellipse fill="#efff05" stroke="black" cx="953.899" cy="-262.99" rx="28.6953" ry="18"/>
<text text-anchor="middle" x="953.899" y="-259.29" font-family="Times,serif" font-size="14.00">5388</text>
</a>
</g>
</g>
<!-- 11120 -->
<g id="node15" class="node"><title>11120</title>
<g id="a_node15"><a xlink:title="PRE">
<ellipse fill="#efff05" stroke="black" cx="1052.81" cy="-183.313" rx="32.4942" ry="18"/>
<text text-anchor="middle" x="1052.81" y="-179.613" font-family="Times,serif" font-size="14.00">11120</text>
</a>
</g>
</g>
<!-- 5388&#45;&gt;11120 -->
<g id="edge30" class="edge"><title>5388&#45;&gt;11120</title>
<path fill="none" stroke="black" d="M971.582,-248.745C989.251,-234.511 1016.3,-212.717 1034.27,-198.245"/>
</g>
<!-- 5388&#45;&gt;15142 -->
<g id="edge28" class="edge"><title>5388&#45;&gt;15142</title>
<path fill="none" stroke="black" d="M938.25,-278.148C908.424,-307.037 843.703,-369.727 813.206,-399.266"/>
</g>
<!-- 22308 -->
<g id="node29" class="node"><title>22308</title>
<g id="a_node29"><a xlink:title="PRE">
<ellipse fill="#efff05" stroke="black" cx="1086.06" cy="-246.39" rx="32.4942" ry="18"/>
<text text-anchor="middle" x="1086.06" y="-242.69" font-family="Times,serif" font-size="14.00">22308</text>
</a>
</g>
</g>
<!-- 5388&#45;&gt;22308 -->
<g id="edge51" class="edge"><title>5388&#45;&gt;22308</title>
<path fill="none" stroke="black" d="M982.251,-259.429C1003.34,-256.78 1032.13,-253.164 1054.04,-250.412"/>
</g>
<!-- 29946 -->
<g id="node36" class="node"><title>29946</title>
<g id="a_node36"><a xlink:title="PRE">
<ellipse fill="#efff05" stroke="black" cx="1022.19" cy="-127.372" rx="32.4942" ry="18"/>
<text text-anchor="middle" x="1022.19" y="-123.672" font-family="Times,serif" font-size="14.00">29946</text>
</a>
</g>
</g>
<!-- 5388&#45;&gt;29946 -->
<g id="edge18" class="edge"><title>5388&#45;&gt;29946</title>
<path fill="none" stroke="black" d="M962.548,-245.813C975.611,-219.869 1000.24,-170.95 1013.39,-144.837"/>
</g>
<!-- 7214 -->
<g id="node10" class="node"><title>7214</title>
<g id="a_node10"><a xlink:title="PRE">
<ellipse fill="#efff05" stroke="black" cx="249.656" cy="-433.831" rx="28.6953" ry="18"/>
<text text-anchor="middle" x="249.656" y="-430.131" font-family="Times,serif" font-size="14.00">7214</text>
</a>
</g>
</g>
<!-- 12619 -->
<g id="node16" class="node"><title>12619</title>
<g id="a_node16"><a xlink:title="PRE">
<ellipse fill="#efff05" stroke="black" cx="430.209" cy="-496.54" rx="32.4942" ry="18"/>
<text text-anchor="middle" x="430.209" y="-492.84" font-family="Times,serif" font-size="14.00">12619</text>
</a>
</g>
</g>
<!-- 7214&#45;&gt;12619 -->
<g id="edge14" class="edge"><title>7214&#45;&gt;12619</title>
<path fill="none" stroke="black" d="M274.762,-442.55C308.385,-454.228 367.834,-474.876 402.658,-486.971"/>
</g>
<!-- 15053 -->
<g id="node19" class="node"><title>15053</title>
<g id="a_node19"><a xlink:title="PRE">
<ellipse fill="#efff05" stroke="black" cx="120.172" cy="-423.127" rx="32.4942" ry="18"/>
<text text-anchor="middle" x="120.172" y="-419.427" font-family="Times,serif" font-size="14.00">15053</text>
</a>
</g>
</g>
<!-- 7214&#45;&gt;15053 -->
<g id="edge27" class="edge"><title>7214&#45;&gt;15053</title>
<path fill="none" stroke="black" d="M221.241,-431.482C200.992,-429.808 173.733,-427.554 152.627,-425.81"/>
</g>
<!-- 21631 -->
<g id="node60" class="node"><title>21631</title>
<g id="a_node60"><a xlink:title="PRE">
<ellipse fill="#efff05" stroke="black" cx="148.889" cy="-348.902" rx="32.4942" ry="18"/>
<text text-anchor="middle" x="148.889" y="-345.202" font-family="Times,serif" font-size="14.00">21631</text>
</a>
</g>
</g>
<!-- 7214&#45;&gt;21631 -->
<g id="edge1" class="edge"><title>7214&#45;&gt;21631</title>
<path fill="none" stroke="black" d="M232.104,-419.037C213.835,-403.639 185.364,-379.643 166.919,-364.098"/>
</g>
<!-- 7221 -->
<g id="node11" class="node"><title>7221</title>
<g id="a_node11"><a xlink:title="PRE">
<ellipse fill="grey" stroke="black" cx="622.843" cy="-1381.22" rx="28.6953" ry="18"/>
<text text-anchor="middle" x="622.843" y="-1377.52" font-family="Times,serif" font-size="14.00">7221</text>
</a>
</g>
</g>
<!-- 7221&#45;&gt;26240 -->
<g id="edge15" class="edge"><title>7221&#45;&gt;26240</title>
<path fill="none" stroke="black" d="M622.966,-1363.07C623.115,-1341.24 623.363,-1304.83 623.512,-1283.06"/>
</g>
<!-- 8533 -->
<g id="node13" class="node"><title>8533</title>
<g id="a_node13"><a xlink:title="PRE">
<ellipse fill="#efff05" stroke="black" cx="835.229" cy="-274.08" rx="28.6953" ry="18"/>
<text text-anchor="middle" x="835.229" y="-270.38" font-family="Times,serif" font-size="14.00">8533</text>
</a>
</g>
</g>
<!-- 8533&#45;&gt;15142 -->
<g id="edge45" class="edge"><title>8533&#45;&gt;15142</title>
<path fill="none" stroke="black" d="M830.346,-291.962C822.971,-318.974 809.065,-369.904 801.642,-397.092"/>
</g>
<!-- 12619&#45;&gt;14101 -->
<g id="edge52" class="edge"><title>12619&#45;&gt;14101</title>
<path fill="none" stroke="black" d="M461.039,-502.53C493.426,-508.822 544.065,-518.661 576.43,-524.949"/>
</g>
<!-- 14401 -->
<g id="node18" class="node"><title>14401</title>
<g id="a_node18"><a xlink:title="PRE">
<ellipse fill="#efff05" stroke="black" cx="722.514" cy="-490.512" rx="32.4942" ry="18"/>
<text text-anchor="middle" x="722.514" y="-486.812" font-family="Times,serif" font-size="14.00">14401</text>
</a>
</g>
</g>
<!-- 14101&#45;&gt;14401 -->
<g id="edge26" class="edge"><title>14101&#45;&gt;14401</title>
<path fill="none" stroke="black" d="M634.823,-521.247C652.946,-514.895 676.562,-506.618 694.72,-500.253"/>
</g>
<!-- 14101&#45;&gt;15142 -->
<g id="edge43" class="edge"><title>14101&#45;&gt;15142</title>
<path fill="none" stroke="black" d="M629.309,-517.435C665.819,-495.15 738.296,-450.911 774.713,-428.682"/>
</g>
<!-- 16477 -->
<g id="node22" class="node"><title>16477</title>
<g id="a_node22"><a xlink:title="PRE">
<ellipse fill="#efff05" stroke="black" cx="488.651" cy="-426.227" rx="32.4942" ry="18"/>
<text text-anchor="middle" x="488.651" y="-422.527" font-family="Times,serif" font-size="14.00">16477</text>
</a>
</g>
</g>
<!-- 14101&#45;&gt;16477 -->
<g id="edge58" class="edge"><title>14101&#45;&gt;16477</title>
<path fill="none" stroke="black" d="M589.71,-515.479C567.296,-495.684 528.664,-461.565 506.215,-441.74"/>
</g>
<!-- 14101&#45;&gt;19647 -->
<g id="edge4" class="edge"><title>14101&#45;&gt;19647</title>
<path fill="none" stroke="black" d="M604.841,-549.259C598.435,-598.978 580.782,-735.973 574.387,-785.598"/>
</g>
<!-- 24689 -->
<g id="node30" class="node"><title>24689</title>
<g id="a_node30"><a xlink:title="PRE">
<ellipse fill="#efff05" stroke="black" cx="489.566" cy="-591.611" rx="32.4942" ry="18"/>
<text text-anchor="middle" x="489.566" y="-587.911" font-family="Times,serif" font-size="14.00">24689</text>
</a>
</g>
</g>
<!-- 14101&#45;&gt;24689 -->
<g id="edge12" class="edge"><title>14101&#45;&gt;24689</title>
<path fill="none" stroke="black" d="M583.398,-543.208C563.122,-553.667 534.12,-568.628 513.74,-579.141"/>
</g>
<!-- 27798 -->
<g id="node33" class="node"><title>27798</title>
<g id="a_node33"><a xlink:title="PRE">
<ellipse fill="#efff05" stroke="black" cx="737.605" cy="-577.863" rx="32.4942" ry="18"/>
<text text-anchor="middle" x="737.605" y="-574.163" font-family="Times,serif" font-size="14.00">27798</text>
</a>
</g>
</g>
<!-- 14101&#45;&gt;27798 -->
<g id="edge33" class="edge"><title>14101&#45;&gt;27798</title>
<path fill="none" stroke="black" d="M634.54,-540.767C656.795,-548.777 688.058,-560.03 710.304,-568.037"/>
</g>
<!-- 8426 -->
<g id="node46" class="node"><title>8426</title>
<g id="a_node46"><a xlink:title="PRE">
<ellipse fill="grey" stroke="black" cx="632.965" cy="-423.34" rx="28.6953" ry="18"/>
<text text-anchor="middle" x="632.965" y="-419.64" font-family="Times,serif" font-size="14.00">8426</text>
</a>
</g>
</g>
<!-- 14101&#45;&gt;8426 -->
<g id="edge11" class="edge"><title>14101&#45;&gt;8426</title>
<path fill="none" stroke="black" d="M611.573,-512.677C616.339,-492.773 623.919,-461.119 628.659,-441.322"/>
</g>
<!-- 15414 -->
<g id="node50" class="node"><title>15414</title>
<g id="a_node50"><a xlink:title="PRE">
<ellipse fill="#efff05" stroke="black" cx="572.726" cy="-344.916" rx="32.4942" ry="18"/>
<text text-anchor="middle" x="572.726" y="-341.216" font-family="Times,serif" font-size="14.00">15414</text>
</a>
</g>
</g>
<!-- 14101&#45;&gt;15414 -->
<g id="edge50" class="edge"><title>14101&#45;&gt;15414</title>
<path fill="none" stroke="black" d="M603.835,-512.754C597.227,-477.101 582.636,-398.381 576.058,-362.89"/>
</g>
<!-- 16061 -->
<g id="node21" class="node"><title>16061</title>
<g id="a_node21"><a xlink:title="PRE">
<ellipse fill="#efff05" stroke="black" cx="689.043" cy="-831.181" rx="32.4942" ry="18"/>
<text text-anchor="middle" x="689.043" y="-827.481" font-family="Times,serif" font-size="14.00">16061</text>
</a>
</g>
</g>
<!-- 16061&#45;&gt;19647 -->
<g id="edge35" class="edge"><title>16061&#45;&gt;19647</title>
<path fill="none" stroke="black" d="M658.91,-824.142C641.441,-820.062 619.518,-814.941 602.066,-810.864"/>
</g>
<!-- 21329 -->
<g id="node54" class="node"><title>21329</title>
<g id="a_node54"><a xlink:title="PRE">
<ellipse fill="#efff05" stroke="black" cx="356.311" cy="-351.607" rx="32.4942" ry="18"/>
<text text-anchor="middle" x="356.311" y="-347.907" font-family="Times,serif" font-size="14.00">21329</text>
</a>
</g>
</g>
<!-- 16477&#45;&gt;21329 -->
<g id="edge53" class="edge"><title>16477&#45;&gt;21329</title>
<path fill="none" stroke="black" d="M465.599,-413.229C441.309,-399.533 403.289,-378.095 379.099,-364.456"/>
</g>
<!-- 14129 -->
<g id="node61" class="node"><title>14129</title>
<g id="a_node61"><a xlink:title="PRE">
<ellipse fill="#efff05" stroke="black" cx="409.707" cy="-295.652" rx="32.4942" ry="18"/>
<text text-anchor="middle" x="409.707" y="-291.952" font-family="Times,serif" font-size="14.00">14129</text>
</a>
</g>
</g>
<!-- 16477&#45;&gt;14129 -->
<g id="edge56" class="edge"><title>16477&#45;&gt;14129</title>
<path fill="none" stroke="black" d="M478.33,-409.157C463.201,-384.132 435.161,-337.754 420.03,-312.727"/>
</g>
<!-- 19087 -->
<g id="node23" class="node"><title>19087</title>
<g id="a_node23"><a xlink:title="PRE">
<ellipse fill="#efff05" stroke="black" cx="1113.2" cy="-17.6418" rx="32.4942" ry="18"/>
<text text-anchor="middle" x="1113.2" y="-13.9418" font-family="Times,serif" font-size="14.00">19087</text>
</a>
</g>
</g>
<!-- 19087&#45;&gt;29946 -->
<g id="edge22" class="edge"><title>19087&#45;&gt;29946</title>
<path fill="none" stroke="black" d="M1099.38,-34.3074C1082.17,-55.0516 1052.97,-90.2592 1035.84,-110.909"/>
</g>
<!-- 20855 -->
<g id="node25" class="node"><title>20855</title>
<g id="a_node25"><a xlink:title="PRE">
<ellipse fill="#efff05" stroke="black" cx="748.128" cy="-1223.85" rx="32.4942" ry="18"/>
<text text-anchor="middle" x="748.128" y="-1220.15" font-family="Times,serif" font-size="14.00">20855</text>
</a>
</g>
</g>
<!-- 20855&#45;&gt;26240 -->
<g id="edge29" class="edge"><title>20855&#45;&gt;26240</title>
<path fill="none" stroke="black" d="M720.189,-1233.1C699.829,-1239.83 672.348,-1248.92 651.911,-1255.68"/>
</g>
<!-- 21306 -->
<g id="node26" class="node"><title>21306</title>
<g id="a_node26"><a xlink:title="PRE">
<ellipse fill="grey" stroke="black" cx="705.141" cy="-1166.95" rx="32.4942" ry="18"/>
<text text-anchor="middle" x="705.141" y="-1163.25" font-family="Times,serif" font-size="14.00">21306</text>
</a>
</g>
</g>
<!-- 21306&#45;&gt;26240 -->
<g id="edge20" class="edge"><title>21306&#45;&gt;26240</title>
<path fill="none" stroke="black" d="M691.315,-1183.59C676.236,-1201.73 652.255,-1230.59 637.257,-1248.64"/>
</g>
<!-- 21410&#45;&gt;26240 -->
<g id="edge47" class="edge"><title>21410&#45;&gt;26240</title>
<path fill="none" stroke="black" d="M493.874,-1422.88C521.173,-1389.67 582.734,-1314.79 610.091,-1281.51"/>
</g>
<!-- 959 -->
<g id="node38" class="node"><title>959</title>
<g id="a_node38"><a xlink:title="PRE">
<ellipse fill="#efff05" stroke="black" cx="455.932" cy="-1588.77" rx="27" ry="18"/>
<text text-anchor="middle" x="455.932" y="-1585.07" font-family="Times,serif" font-size="14.00">959</text>
</a>
</g>
</g>
<!-- 21410&#45;&gt;959 -->
<g id="edge6" class="edge"><title>21410&#45;&gt;959</title>
<path fill="none" stroke="black" d="M477.447,-1457.3C472.745,-1486.04 463.603,-1541.9 458.893,-1570.67"/>
</g>
<!-- 2217 -->
<g id="node40" class="node"><title>2217</title>
<g id="a_node40"><a xlink:title="PRE">
<ellipse fill="grey" stroke="black" cx="452.37" cy="-1535.6" rx="28.6953" ry="18"/>
<text text-anchor="middle" x="452.37" y="-1531.9" font-family="Times,serif" font-size="14.00">2217</text>
</a>
</g>
</g>
<!-- 21410&#45;&gt;2217 -->
<g id="edge25" class="edge"><title>21410&#45;&gt;2217</title>
<path fill="none" stroke="black" d="M475.127,-1457.39C470.084,-1474.72 462.527,-1500.69 457.524,-1517.89"/>
</g>
<!-- 26207 -->
<g id="node58" class="node"><title>26207</title>
<g id="a_node58"><a xlink:title="PRE">
<ellipse fill="#efff05" stroke="black" cx="375.148" cy="-1538.8" rx="32.4942" ry="18"/>
<text text-anchor="middle" x="375.148" y="-1535.1" font-family="Times,serif" font-size="14.00">26207</text>
</a>
</g>
</g>
<!-- 21410&#45;&gt;26207 -->
<g id="edge36" class="edge"><title>21410&#45;&gt;26207</title>
<path fill="none" stroke="black" d="M463.953,-1454.82C444.296,-1473.41 411.584,-1504.34 391.825,-1523.03"/>
</g>
<!-- 4752 -->
<g id="node59" class="node"><title>4752</title>
<g id="a_node59"><a xlink:title="PRE">
<ellipse fill="#20ff05" stroke="black" cx="353.758" cy="-1479.68" rx="28.6953" ry="18"/>
<text text-anchor="middle" x="353.758" y="-1475.98" font-family="Times,serif" font-size="14.00">4752</text>
</a>
</g>
</g>
<!-- 21410&#45;&gt;4752 -->
<g id="edge39" class="edge"><title>21410&#45;&gt;4752</title>
<path fill="none" stroke="black" d="M451.978,-1448.34C430.246,-1455.27 400.539,-1464.75 379.502,-1471.46"/>
</g>
<!-- 26357 -->
<g id="node32" class="node"><title>26357</title>
<g id="a_node32"><a xlink:title="PRE">
<ellipse fill="#efff05" stroke="black" cx="747.64" cy="-1288.31" rx="32.4942" ry="18"/>
<text text-anchor="middle" x="747.64" y="-1284.61" font-family="Times,serif" font-size="14.00">26357</text>
</a>
</g>
</g>
<!-- 26240&#45;&gt;26357 -->
<g id="edge16" class="edge"><title>26240&#45;&gt;26357</title>
<path fill="none" stroke="black" d="M654.606,-1270.85C673.545,-1274.4 697.688,-1278.94 716.633,-1282.49"/>
</g>
<!-- 29515 -->
<g id="node34" class="node"><title>29515</title>
<g id="a_node34"><a xlink:title="PRE">
<ellipse fill="#efff05" stroke="black" cx="707.237" cy="-1353.09" rx="32.4942" ry="18"/>
<text text-anchor="middle" x="707.237" y="-1349.39" font-family="Times,serif" font-size="14.00">29515</text>
</a>
</g>
</g>
<!-- 26240&#45;&gt;29515 -->
<g id="edge31" class="edge"><title>26240&#45;&gt;29515</title>
<path fill="none" stroke="black" d="M638.968,-1281.19C654.053,-1297.08 676.949,-1321.19 692,-1337.04"/>
</g>
<!-- 14560 -->
<g id="node49" class="node"><title>14560</title>
<g id="a_node49"><a xlink:title="PRE">
<ellipse fill="#efff05" stroke="black" cx="777.49" cy="-1404.15" rx="32.4942" ry="18"/>
<text text-anchor="middle" x="777.49" y="-1400.45" font-family="Times,serif" font-size="14.00">14560</text>
</a>
</g>
</g>
<!-- 26240&#45;&gt;14560 -->
<g id="edge24" class="edge"><title>26240&#45;&gt;14560</title>
<path fill="none" stroke="black" d="M640.687,-1280.46C670.262,-1307.2 730.733,-1361.87 760.361,-1388.66"/>
</g>
<!-- 896 -->
<g id="node37" class="node"><title>896</title>
<g id="a_node37"><a xlink:title="PRE">
<ellipse fill="#efff05" stroke="black" cx="331.383" cy="-1227.4" rx="27" ry="18"/>
<text text-anchor="middle" x="331.383" y="-1223.7" font-family="Times,serif" font-size="14.00">896</text>
</a>
</g>
</g>
<!-- 29567&#45;&gt;896 -->
<g id="edge46" class="edge"><title>29567&#45;&gt;896</title>
<path fill="none" stroke="black" d="M432.796,-1181.06C409.676,-1191.63 375.842,-1207.09 353.717,-1217.19"/>
</g>
<!-- 24667 -->
<g id="node55" class="node"><title>24667</title>
<g id="a_node55"><a xlink:title="PRE">
<ellipse fill="#efff05" stroke="black" cx="472.382" cy="-1314.04" rx="32.4942" ry="18"/>
<text text-anchor="middle" x="472.382" y="-1310.34" font-family="Times,serif" font-size="14.00">24667</text>
</a>
</g>
</g>
<!-- 29567&#45;&gt;24667 -->
<g id="edge19" class="edge"><title>29567&#45;&gt;24667</title>
<path fill="none" stroke="black" d="M459.917,-1187.5C462.646,-1215.2 467.843,-1267.96 470.585,-1295.79"/>
</g>
<!-- 1920 -->
<g id="node39" class="node"><title>1920</title>
<g id="a_node39"><a xlink:title="PRE">
<ellipse fill="#efff05" stroke="black" cx="564.258" cy="-1425.5" rx="28.6953" ry="18"/>
<text text-anchor="middle" x="564.258" y="-1421.8" font-family="Times,serif" font-size="14.00">1920</text>
</a>
</g>
</g>
<!-- 1920&#45;&gt;24667 -->
<g id="edge44" class="edge"><title>1920&#45;&gt;24667</title>
<path fill="none" stroke="black" d="M550.702,-1409.06C533.331,-1387.98 503.392,-1351.66 485.994,-1330.55"/>
</g>
<!-- 2309 -->
<g id="node41" class="node"><title>2309</title>
<g id="a_node41"><a xlink:title="PRE">
<ellipse fill="#efff05" stroke="black" cx="1009.77" cy="-1631.1" rx="28.6953" ry="18"/>
<text text-anchor="middle" x="1009.77" y="-1627.4" font-family="Times,serif" font-size="14.00">2309</text>
</a>
</g>
</g>
<!-- 2823 -->
<g id="node42" class="node"><title>2823</title>
<g id="a_node42"><a xlink:title="PRE">
<ellipse fill="#efff05" stroke="black" cx="918.488" cy="-1534.58" rx="28.6953" ry="18"/>
<text text-anchor="middle" x="918.488" y="-1530.88" font-family="Times,serif" font-size="14.00">2823</text>
</a>
</g>
</g>
<!-- 2309&#45;&gt;2823 -->
<g id="edge2" class="edge"><title>2309&#45;&gt;2823</title>
<path fill="none" stroke="black" d="M995.101,-1615.6C978.067,-1597.58 950.135,-1568.05 933.117,-1550.05"/>
</g>
<!-- 2823&#45;&gt;14560 -->
<g id="edge61" class="edge"><title>2823&#45;&gt;14560</title>
<path fill="none" stroke="black" d="M902.314,-1519.62C875.405,-1494.73 821.705,-1445.05 794.349,-1419.74"/>
</g>
<!-- 6116 -->
<g id="node44" class="node"><title>6116</title>
<g id="a_node44"><a xlink:title="PRE">
<ellipse fill="#efff05" stroke="black" cx="838.312" cy="-1509.94" rx="28.6953" ry="18"/>
<text text-anchor="middle" x="838.312" y="-1506.24" font-family="Times,serif" font-size="14.00">6116</text>
</a>
</g>
</g>
<!-- 6116&#45;&gt;14560 -->
<g id="edge55" class="edge"><title>6116&#45;&gt;14560</title>
<path fill="none" stroke="black" d="M828.54,-1492.94C817.257,-1473.32 798.798,-1441.21 787.44,-1421.45"/>
</g>
<!-- 7664 -->
<g id="node45" class="node"><title>7664</title>
<g id="a_node45"><a xlink:title="PRE">
<ellipse fill="#efff05" stroke="black" cx="620.787" cy="-33.4061" rx="28.6953" ry="18"/>
<text text-anchor="middle" x="620.787" y="-29.7061" font-family="Times,serif" font-size="14.00">7664</text>
</a>
</g>
</g>
<!-- 19951 -->
<g id="node52" class="node"><title>19951</title>
<g id="a_node52"><a xlink:title="PRE">
<ellipse fill="#efff05" stroke="black" cx="601.605" cy="-163.699" rx="32.4942" ry="18"/>
<text text-anchor="middle" x="601.605" y="-159.999" font-family="Times,serif" font-size="14.00">19951</text>
</a>
</g>
</g>
<!-- 7664&#45;&gt;19951 -->
<g id="edge54" class="edge"><title>7664&#45;&gt;19951</title>
<path fill="none" stroke="black" d="M618.12,-51.5228C614.455,-76.4156 607.903,-120.925 604.25,-145.736"/>
</g>
<!-- 9699 -->
<g id="node47" class="node"><title>9699</title>
<g id="a_node47"><a xlink:title="PRE">
<ellipse fill="#efff05" stroke="black" cx="934.823" cy="-1398.55" rx="28.6953" ry="18"/>
<text text-anchor="middle" x="934.823" y="-1394.85" font-family="Times,serif" font-size="14.00">9699</text>
</a>
</g>
</g>
<!-- 9699&#45;&gt;14560 -->
<g id="edge38" class="edge"><title>9699&#45;&gt;14560</title>
<path fill="none" stroke="black" d="M905.966,-1399.58C878.82,-1400.54 838.231,-1401.99 809.964,-1402.99"/>
</g>
<!-- 11363 -->
<g id="node48" class="node"><title>11363</title>
<g id="a_node48"><a xlink:title="PRE">
<ellipse fill="#efff05" stroke="black" cx="496.204" cy="-165.981" rx="32.4942" ry="18"/>
<text text-anchor="middle" x="496.204" y="-162.281" font-family="Times,serif" font-size="14.00">11363</text>
</a>
</g>
</g>
<!-- 11363&#45;&gt;15414 -->
<g id="edge60" class="edge"><title>11363&#45;&gt;15414</title>
<path fill="none" stroke="black" d="M503.821,-183.792C518.489,-218.09 550.497,-292.936 565.14,-327.177"/>
</g>
<!-- 16252 -->
<g id="node51" class="node"><title>16252</title>
<g id="a_node51"><a xlink:title="PRE">
<ellipse fill="grey" stroke="black" cx="391.236" cy="-69.2183" rx="32.4942" ry="18"/>
<text text-anchor="middle" x="391.236" y="-65.5183" font-family="Times,serif" font-size="14.00">16252</text>
</a>
</g>
</g>
<!-- 11363&#45;&gt;16252 -->
<g id="edge59" class="edge"><title>11363&#45;&gt;16252</title>
<path fill="none" stroke="black" d="M479.339,-150.434C459.751,-132.377 427.63,-102.767 408.059,-84.7263"/>
</g>
<!-- 25874 -->
<g id="node57" class="node"><title>25874</title>
<g id="a_node57"><a xlink:title="PRE">
<ellipse fill="#efff05" stroke="black" cx="488.932" cy="-24.1026" rx="32.4942" ry="18"/>
<text text-anchor="middle" x="488.932" y="-20.4026" font-family="Times,serif" font-size="14.00">25874</text>
</a>
</g>
</g>
<!-- 11363&#45;&gt;25874 -->
<g id="edge10" class="edge"><title>11363&#45;&gt;25874</title>
<path fill="none" stroke="black" d="M495.268,-147.723C493.872,-120.481 491.259,-69.4918 489.865,-42.2902"/>
</g>
<!-- 19992 -->
<g id="node53" class="node"><title>19992</title>
<g id="a_node53"><a xlink:title="PRE">
<ellipse fill="#efff05" stroke="black" cx="779.577" cy="-1566.65" rx="32.4942" ry="18"/>
<text text-anchor="middle" x="779.577" y="-1562.95" font-family="Times,serif" font-size="14.00">19992</text>
</a>
</g>
</g>
<!-- 14560&#45;&gt;19992 -->
<g id="edge3" class="edge"><title>14560&#45;&gt;19992</title>
<path fill="none" stroke="black" d="M777.722,-1422.16C778.123,-1453.39 778.943,-1517.27 779.345,-1548.56"/>
</g>
<!-- 24291 -->
<g id="node62" class="node"><title>24291</title>
<g id="a_node62"><a xlink:title="PRE">
<ellipse fill="grey" stroke="black" cx="930.968" cy="-1467.61" rx="32.4942" ry="18"/>
<text text-anchor="middle" x="930.968" y="-1463.91" font-family="Times,serif" font-size="14.00">24291</text>
</a>
</g>
</g>
<!-- 14560&#45;&gt;24291 -->
<g id="edge49" class="edge"><title>14560&#45;&gt;24291</title>
<path fill="none" stroke="black" d="M803.874,-1415.06C832.071,-1426.71 876.509,-1445.09 904.672,-1456.73"/>
</g>
<!-- 15414&#45;&gt;19951 -->
<g id="edge13" class="edge"><title>15414&#45;&gt;19951</title>
<path fill="none" stroke="black" d="M575.601,-326.878C581.136,-292.142 593.216,-216.343 598.742,-181.664"/>
</g>
</g>
</svg>
