<?xml version="1.0" encoding="UTF-8" standalone="no"?>
<!DOCTYPE svg PUBLIC "-//W3C//DTD SVG 1.1//EN"
 "http://www.w3.org/Graphics/SVG/1.1/DTD/svg11.dtd">
<!-- Generated by graphviz version 2.38.0 (20140413.2041)
 -->
<!-- Title: %3 Pages: 1 -->
<svg width="951pt" height="2653pt"
 viewBox="0.00 0.00 951.00 2653.00" xmlns="http://www.w3.org/2000/svg" xmlns:xlink="http://www.w3.org/1999/xlink">
<g id="graph0" class="graph" transform="scale(1 1) rotate(0) translate(4 2649)">
<title>%3</title>
<polygon fill="white" stroke="none" points="-4,4 -4,-2649 947,-2649 947,4 -4,4"/>
<!-- 564 -->
<g id="node1" class="node"><title>564</title>
<g id="a_node1"><a xlink:title="3rd_week">
<ellipse fill="#efff05" stroke="black" cx="915.999" cy="-1954.37" rx="27" ry="18"/>
<text text-anchor="middle" x="915.999" y="-1950.67" font-family="Times,serif" font-size="14.00">564</text>
</a>
</g>
</g>
<!-- 12401 -->
<g id="node31" class="node"><title>12401</title>
<g id="a_node31"><a xlink:title="3rd_week">
<ellipse fill="#efff05" stroke="black" cx="757.16" cy="-1876.93" rx="32.4942" ry="18"/>
<text text-anchor="middle" x="757.16" y="-1873.23" font-family="Times,serif" font-size="14.00">12401</text>
</a>
</g>
</g>
<!-- 564&#45;&gt;12401 -->
<g id="edge51" class="edge"><title>564&#45;&gt;12401</title>
<path fill="none" stroke="black" d="M893.913,-1943.6C864.419,-1929.22 812.336,-1903.83 781.663,-1888.87"/>
</g>
<!-- 1015 -->
<g id="node2" class="node"><title>1015</title>
<g id="a_node2"><a xlink:title="Day_0">
<ellipse fill="#efff05" stroke="black" cx="208.8" cy="-505.741" rx="28.6953" ry="18"/>
<text text-anchor="middle" x="208.8" y="-502.041" font-family="Times,serif" font-size="14.00">1015</text>
</a>
</g>
</g>
<!-- 2090 -->
<g id="node5" class="node"><title>2090</title>
<g id="a_node5"><a xlink:title="Day_0">
<ellipse fill="#efff05" stroke="black" cx="412.904" cy="-561.686" rx="28.6953" ry="18"/>
<text text-anchor="middle" x="412.904" y="-557.986" font-family="Times,serif" font-size="14.00">2090</text>
</a>
</g>
</g>
<!-- 1015&#45;&gt;2090 -->
<g id="edge13" class="edge"><title>1015&#45;&gt;2090</title>
<path fill="none" stroke="black" d="M235.065,-512.94C274.148,-523.653 347.205,-543.678 386.416,-554.425"/>
</g>
<!-- 1053 -->
<g id="node3" class="node"><title>1053</title>
<g id="a_node3"><a xlink:title="Day_0">
<ellipse fill="#efff05" stroke="black" cx="223.757" cy="-449.34" rx="28.6953" ry="18"/>
<text text-anchor="middle" x="223.757" y="-445.64" font-family="Times,serif" font-size="14.00">1053</text>
</a>
</g>
</g>
<!-- 1053&#45;&gt;2090 -->
<g id="edge9" class="edge"><title>1053&#45;&gt;2090</title>
<path fill="none" stroke="black" d="M244.722,-461.792C281.08,-483.387 355.422,-527.544 391.845,-549.178"/>
</g>
<!-- 1688 -->
<g id="node4" class="node"><title>1688</title>
<g id="a_node4"><a xlink:title="Day_0">
<ellipse fill="grey" stroke="black" cx="621.818" cy="-668.099" rx="28.6953" ry="18"/>
<text text-anchor="middle" x="621.818" y="-664.399" font-family="Times,serif" font-size="14.00">1688</text>
</a>
</g>
</g>
<!-- 1688&#45;&gt;2090 -->
<g id="edge34" class="edge"><title>1688&#45;&gt;2090</title>
<path fill="none" stroke="black" d="M599.46,-656.711C559.356,-636.283 475.633,-593.638 435.416,-573.153"/>
</g>
<!-- 2310 -->
<g id="node7" class="node"><title>2310</title>
<g id="a_node7"><a xlink:title="Day_0">
<ellipse fill="grey" stroke="black" cx="501.542" cy="-404.436" rx="28.6953" ry="18"/>
<text text-anchor="middle" x="501.542" y="-400.736" font-family="Times,serif" font-size="14.00">2310</text>
</a>
</g>
</g>
<!-- 2090&#45;&gt;2310 -->
<g id="edge32" class="edge"><title>2090&#45;&gt;2310</title>
<path fill="none" stroke="black" d="M422.558,-544.558C439.608,-514.31 474.857,-451.776 491.899,-421.543"/>
</g>
<!-- 3696 -->
<g id="node9" class="node"><title>3696</title>
<g id="a_node9"><a xlink:title="Day_0">
<ellipse fill="#efff05" stroke="black" cx="246.02" cy="-581.429" rx="28.6953" ry="18"/>
<text text-anchor="middle" x="246.02" y="-577.729" font-family="Times,serif" font-size="14.00">3696</text>
</a>
</g>
</g>
<!-- 2090&#45;&gt;3696 -->
<g id="edge5" class="edge"><title>2090&#45;&gt;3696</title>
<path fill="none" stroke="black" d="M384.594,-565.035C353.813,-568.676 304.915,-574.461 274.19,-578.096"/>
</g>
<!-- 4285 -->
<g id="node10" class="node"><title>4285</title>
<g id="a_node10"><a xlink:title="Day_0">
<ellipse fill="#efff05" stroke="black" cx="285.358" cy="-671.683" rx="28.6953" ry="18"/>
<text text-anchor="middle" x="285.358" y="-667.983" font-family="Times,serif" font-size="14.00">4285</text>
</a>
</g>
</g>
<!-- 2090&#45;&gt;4285 -->
<g id="edge48" class="edge"><title>2090&#45;&gt;4285</title>
<path fill="none" stroke="black" d="M395.967,-576.292C371.572,-597.331 326.799,-635.943 302.366,-657.015"/>
</g>
<!-- 4497 -->
<g id="node11" class="node"><title>4497</title>
<g id="a_node11"><a xlink:title="Day_0">
<ellipse fill="#efff05" stroke="black" cx="524.056" cy="-695.791" rx="28.6953" ry="18"/>
<text text-anchor="middle" x="524.056" y="-692.091" font-family="Times,serif" font-size="14.00">4497</text>
</a>
</g>
</g>
<!-- 2090&#45;&gt;4497 -->
<g id="edge1" class="edge"><title>2090&#45;&gt;4497</title>
<path fill="none" stroke="black" d="M426.311,-577.862C447.675,-603.637 489.207,-653.746 510.601,-679.557"/>
</g>
<!-- 4620 -->
<g id="node12" class="node"><title>4620</title>
<g id="a_node12"><a xlink:title="Day_0">
<ellipse fill="#efff05" stroke="black" cx="505.568" cy="-344.942" rx="28.6953" ry="18"/>
<text text-anchor="middle" x="505.568" y="-341.242" font-family="Times,serif" font-size="14.00">4620</text>
</a>
</g>
</g>
<!-- 2090&#45;&gt;4620 -->
<g id="edge18" class="edge"><title>2090&#45;&gt;4620</title>
<path fill="none" stroke="black" d="M420.487,-543.948C437.906,-503.204 480.615,-403.307 498.01,-362.62"/>
</g>
<!-- 5417 -->
<g id="node14" class="node"><title>5417</title>
<g id="a_node14"><a xlink:title="Day_0">
<ellipse fill="#efff05" stroke="black" cx="369.6" cy="-394.496" rx="28.6953" ry="18"/>
<text text-anchor="middle" x="369.6" y="-390.796" font-family="Times,serif" font-size="14.00">5417</text>
</a>
</g>
</g>
<!-- 2090&#45;&gt;5417 -->
<g id="edge3" class="edge"><title>2090&#45;&gt;5417</title>
<path fill="none" stroke="black" d="M408.269,-543.793C399.956,-511.698 382.602,-444.697 374.266,-412.513"/>
</g>
<!-- 5493 -->
<g id="node15" class="node"><title>5493</title>
<g id="a_node15"><a xlink:title="Day_0">
<ellipse fill="#efff05" stroke="black" cx="572.154" cy="-465.592" rx="28.6953" ry="18"/>
<text text-anchor="middle" x="572.154" y="-461.892" font-family="Times,serif" font-size="14.00">5493</text>
</a>
</g>
</g>
<!-- 2090&#45;&gt;5493 -->
<g id="edge41" class="edge"><title>2090&#45;&gt;5493</title>
<path fill="none" stroke="black" d="M433.723,-549.123C464.243,-530.707 520.807,-496.575 551.33,-478.157"/>
</g>
<!-- 6035 -->
<g id="node16" class="node"><title>6035</title>
<g id="a_node16"><a xlink:title="Day_0">
<ellipse fill="#efff05" stroke="black" cx="519.21" cy="-770.372" rx="28.6953" ry="18"/>
<text text-anchor="middle" x="519.21" y="-766.672" font-family="Times,serif" font-size="14.00">6035</text>
</a>
</g>
</g>
<!-- 2090&#45;&gt;6035 -->
<g id="edge27" class="edge"><title>2090&#45;&gt;6035</title>
<path fill="none" stroke="black" d="M421.784,-579.119C441.845,-618.499 490.464,-713.942 510.429,-753.135"/>
</g>
<!-- 6497 -->
<g id="node17" class="node"><title>6497</title>
<g id="a_node17"><a xlink:title="Day_0">
<ellipse fill="#efff05" stroke="black" cx="647.729" cy="-488.352" rx="28.6953" ry="18"/>
<text text-anchor="middle" x="647.729" y="-484.652" font-family="Times,serif" font-size="14.00">6497</text>
</a>
</g>
</g>
<!-- 2090&#45;&gt;6497 -->
<g id="edge36" class="edge"><title>2090&#45;&gt;6497</title>
<path fill="none" stroke="black" d="M438.931,-553.557C484.189,-539.424 576.854,-510.485 621.943,-496.405"/>
</g>
<!-- 6675 -->
<g id="node18" class="node"><title>6675</title>
<g id="a_node18"><a xlink:title="Day_0">
<ellipse fill="#efff05" stroke="black" cx="637.979" cy="-425.889" rx="28.6953" ry="18"/>
<text text-anchor="middle" x="637.979" y="-422.189" font-family="Times,serif" font-size="14.00">6675</text>
</a>
</g>
</g>
<!-- 2090&#45;&gt;6675 -->
<g id="edge33" class="edge"><title>2090&#45;&gt;6675</title>
<path fill="none" stroke="black" d="M433.675,-549.154C476.553,-523.284 574.423,-464.235 617.258,-438.391"/>
</g>
<!-- 7535 -->
<g id="node19" class="node"><title>7535</title>
<g id="a_node19"><a xlink:title="Day_0">
<ellipse fill="grey" stroke="black" cx="295.679" cy="-455.79" rx="28.6953" ry="18"/>
<text text-anchor="middle" x="295.679" y="-452.09" font-family="Times,serif" font-size="14.00">7535</text>
</a>
</g>
</g>
<!-- 2090&#45;&gt;7535 -->
<g id="edge10" class="edge"><title>2090&#45;&gt;7535</title>
<path fill="none" stroke="black" d="M396.357,-546.738C374.015,-526.555 334.44,-490.804 312.141,-470.661"/>
</g>
<!-- 8305 -->
<g id="node22" class="node"><title>8305</title>
<g id="a_node22"><a xlink:title="Day_0">
<ellipse fill="#efff05" stroke="black" cx="427.332" cy="-345.322" rx="28.6953" ry="18"/>
<text text-anchor="middle" x="427.332" y="-341.622" font-family="Times,serif" font-size="14.00">8305</text>
</a>
</g>
</g>
<!-- 2090&#45;&gt;8305 -->
<g id="edge8" class="edge"><title>2090&#45;&gt;8305</title>
<path fill="none" stroke="black" d="M414.109,-543.611C416.825,-502.884 423.398,-404.32 426.12,-363.498"/>
</g>
<!-- 9498 -->
<g id="node25" class="node"><title>9498</title>
<g id="a_node25"><a xlink:title="Day_0">
<ellipse fill="grey" stroke="black" cx="442.929" cy="-769.819" rx="28.6953" ry="18"/>
<text text-anchor="middle" x="442.929" y="-766.119" font-family="Times,serif" font-size="14.00">9498</text>
</a>
</g>
</g>
<!-- 2090&#45;&gt;9498 -->
<g id="edge20" class="edge"><title>2090&#45;&gt;9498</title>
<path fill="none" stroke="black" d="M415.516,-579.792C421.194,-619.155 434.61,-712.147 440.302,-751.606"/>
</g>
<!-- 11049 -->
<g id="node29" class="node"><title>11049</title>
<g id="a_node29"><a xlink:title="Day_0">
<ellipse fill="grey" stroke="black" cx="175.068" cy="-555.919" rx="32.4942" ry="18"/>
<text text-anchor="middle" x="175.068" y="-552.219" font-family="Times,serif" font-size="14.00">11049</text>
</a>
</g>
</g>
<!-- 2090&#45;&gt;11049 -->
<g id="edge17" class="edge"><title>2090&#45;&gt;11049</title>
<path fill="none" stroke="black" d="M384.215,-560.99C339.737,-559.912 254.407,-557.843 207.663,-556.709"/>
</g>
<!-- 11456 -->
<g id="node30" class="node"><title>11456</title>
<g id="a_node30"><a xlink:title="Day_0">
<ellipse fill="#efff05" stroke="black" cx="487.353" cy="-235.085" rx="32.4942" ry="18"/>
<text text-anchor="middle" x="487.353" y="-231.385" font-family="Times,serif" font-size="14.00">11456</text>
</a>
</g>
</g>
<!-- 2090&#45;&gt;11456 -->
<g id="edge22" class="edge"><title>2090&#45;&gt;11456</title>
<path fill="none" stroke="black" d="M417.012,-543.661C430.029,-486.559 470.258,-310.078 483.257,-253.054"/>
</g>
<!-- 12771 -->
<g id="node33" class="node"><title>12771</title>
<g id="a_node33"><a xlink:title="Day_0">
<ellipse fill="#efff05" stroke="black" cx="348.121" cy="-737.212" rx="32.4942" ry="18"/>
<text text-anchor="middle" x="348.121" y="-733.512" font-family="Times,serif" font-size="14.00">12771</text>
</a>
</g>
</g>
<!-- 2090&#45;&gt;12771 -->
<g id="edge11" class="edge"><title>2090&#45;&gt;12771</title>
<path fill="none" stroke="black" d="M406.335,-579.482C393.919,-613.124 367.137,-685.69 354.707,-719.368"/>
</g>
<!-- 12929 -->
<g id="node35" class="node"><title>12929</title>
<g id="a_node35"><a xlink:title="Day_0">
<ellipse fill="#efff05" stroke="black" cx="474.399" cy="-993.041" rx="32.4942" ry="18"/>
<text text-anchor="middle" x="474.399" y="-989.341" font-family="Times,serif" font-size="14.00">12929</text>
</a>
</g>
</g>
<!-- 2090&#45;&gt;12929 -->
<g id="edge21" class="edge"><title>2090&#45;&gt;12929</title>
<path fill="none" stroke="black" d="M415.468,-579.671C425.47,-649.828 461.803,-904.687 471.824,-974.979"/>
</g>
<!-- 14319 -->
<g id="node36" class="node"><title>14319</title>
<g id="a_node36"><a xlink:title="Day_0">
<ellipse fill="#ffffff" stroke="black" cx="332.334" cy="-315.16" rx="32.4942" ry="18"/>
<text text-anchor="middle" x="332.334" y="-311.46" font-family="Times,serif" font-size="14.00">14319</text>
</a>
</g>
</g>
<!-- 2090&#45;&gt;14319 -->
<g id="edge29" class="edge"><title>2090&#45;&gt;14319</title>
<path fill="none" stroke="black" d="M407.109,-543.956C392.28,-498.581 353.075,-378.622 338.184,-333.06"/>
</g>
<!-- 15777 -->
<g id="node38" class="node"><title>15777</title>
<g id="a_node38"><a xlink:title="Day_0">
<ellipse fill="#efff05" stroke="black" cx="668.589" cy="-539.082" rx="32.4942" ry="18"/>
<text text-anchor="middle" x="668.589" y="-535.382" font-family="Times,serif" font-size="14.00">15777</text>
</a>
</g>
</g>
<!-- 2090&#45;&gt;15777 -->
<g id="edge30" class="edge"><title>2090&#45;&gt;15777</title>
<path fill="none" stroke="black" d="M441.243,-559.18C489.091,-554.95 585.605,-546.418 636.109,-541.954"/>
</g>
<!-- 17310 -->
<g id="node40" class="node"><title>17310</title>
<g id="a_node40"><a xlink:title="Day_0">
<ellipse fill="#efff05" stroke="black" cx="215.47" cy="-689.21" rx="32.4942" ry="18"/>
<text text-anchor="middle" x="215.47" y="-685.51" font-family="Times,serif" font-size="14.00">17310</text>
</a>
</g>
</g>
<!-- 2090&#45;&gt;17310 -->
<g id="edge45" class="edge"><title>2090&#45;&gt;17310</title>
<path fill="none" stroke="black" d="M392.886,-574.615C355.437,-598.804 275.109,-650.688 236.732,-675.477"/>
</g>
<!-- 17501 -->
<g id="node41" class="node"><title>17501</title>
<g id="a_node41"><a xlink:title="Day_0">
<ellipse fill="#efff05" stroke="black" cx="272.821" cy="-745.112" rx="32.4942" ry="18"/>
<text text-anchor="middle" x="272.821" y="-741.412" font-family="Times,serif" font-size="14.00">17501</text>
</a>
</g>
</g>
<!-- 2090&#45;&gt;17501 -->
<g id="edge50" class="edge"><title>2090&#45;&gt;17501</title>
<path fill="none" stroke="black" d="M400.472,-577.963C374.023,-612.596 312.408,-693.277 285.629,-728.341"/>
</g>
<!-- 18757 -->
<g id="node44" class="node"><title>18757</title>
<g id="a_node44"><a xlink:title="Day_0">
<ellipse fill="#efff05" stroke="black" cx="570.977" cy="-587.574" rx="32.4942" ry="18"/>
<text text-anchor="middle" x="570.977" y="-583.874" font-family="Times,serif" font-size="14.00">18757</text>
</a>
</g>
</g>
<!-- 2090&#45;&gt;18757 -->
<g id="edge44" class="edge"><title>2090&#45;&gt;18757</title>
<path fill="none" stroke="black" d="M440.8,-566.254C468.453,-570.783 510.744,-577.709 539.564,-582.429"/>
</g>
<!-- 19628 -->
<g id="node45" class="node"><title>19628</title>
<g id="a_node45"><a xlink:title="Day_0">
<ellipse fill="#20ff05" stroke="black" cx="290.082" cy="-377.58" rx="32.4942" ry="18"/>
<text text-anchor="middle" x="290.082" y="-373.88" font-family="Times,serif" font-size="14.00">19628</text>
</a>
</g>
</g>
<!-- 2090&#45;&gt;19628 -->
<g id="edge24" class="edge"><title>2090&#45;&gt;19628</title>
<path fill="none" stroke="black" d="M401.787,-545.023C378.522,-510.148 324.914,-429.792 301.44,-394.605"/>
</g>
<!-- 19749 -->
<g id="node46" class="node"><title>19749</title>
<g id="a_node46"><a xlink:title="Day_0">
<ellipse fill="#efff05" stroke="black" cx="602.78" cy="-734.71" rx="32.4942" ry="18"/>
<text text-anchor="middle" x="602.78" y="-731.01" font-family="Times,serif" font-size="14.00">19749</text>
</a>
</g>
</g>
<!-- 2090&#45;&gt;19749 -->
<g id="edge6" class="edge"><title>2090&#45;&gt;19749</title>
<path fill="none" stroke="black" d="M429.422,-576.738C465.241,-609.378 549.741,-686.378 585.892,-719.321"/>
</g>
<!-- 19999 -->
<g id="node47" class="node"><title>19999</title>
<g id="a_node47"><a xlink:title="Day_0">
<ellipse fill="#efff05" stroke="black" cx="585.004" cy="-374.244" rx="32.4942" ry="18"/>
<text text-anchor="middle" x="585.004" y="-370.544" font-family="Times,serif" font-size="14.00">19999</text>
</a>
</g>
</g>
<!-- 2090&#45;&gt;19999 -->
<g id="edge16" class="edge"><title>2090&#45;&gt;19999</title>
<path fill="none" stroke="black" d="M427.281,-546.027C459.514,-510.92 537.295,-426.206 570.057,-390.523"/>
</g>
<!-- 20079 -->
<g id="node48" class="node"><title>20079</title>
<g id="a_node48"><a xlink:title="Day_0">
<ellipse fill="#efff05" stroke="black" cx="370.312" cy="-791.455" rx="32.4942" ry="18"/>
<text text-anchor="middle" x="370.312" y="-787.755" font-family="Times,serif" font-size="14.00">20079</text>
</a>
</g>
</g>
<!-- 2090&#45;&gt;20079 -->
<g id="edge42" class="edge"><title>2090&#45;&gt;20079</title>
<path fill="none" stroke="black" d="M409.561,-579.715C401.6,-622.667 381.585,-730.642 373.639,-773.509"/>
</g>
<!-- 20896 -->
<g id="node50" class="node"><title>20896</title>
<g id="a_node50"><a xlink:title="Day_0">
<ellipse fill="#efff05" stroke="black" cx="186.552" cy="-626.934" rx="32.4942" ry="18"/>
<text text-anchor="middle" x="186.552" y="-623.234" font-family="Times,serif" font-size="14.00">20896</text>
</a>
</g>
</g>
<!-- 2090&#45;&gt;20896 -->
<g id="edge28" class="edge"><title>2090&#45;&gt;20896</title>
<path fill="none" stroke="black" d="M386.495,-569.298C343.813,-581.602 259.982,-605.767 215.642,-618.548"/>
</g>
<!-- 21289 -->
<g id="node51" class="node"><title>21289</title>
<g id="a_node51"><a xlink:title="Day_0">
<ellipse fill="#efff05" stroke="black" cx="210.44" cy="-364.729" rx="32.4942" ry="18"/>
<text text-anchor="middle" x="210.44" y="-361.029" font-family="Times,serif" font-size="14.00">21289</text>
</a>
</g>
</g>
<!-- 2090&#45;&gt;21289 -->
<g id="edge31" class="edge"><title>2090&#45;&gt;21289</title>
<path fill="none" stroke="black" d="M397.353,-546.558C359.851,-510.076 264.726,-417.539 226.605,-380.454"/>
</g>
<!-- 21428 -->
<g id="node52" class="node"><title>21428</title>
<g id="a_node52"><a xlink:title="Day_0">
<ellipse fill="#efff05" stroke="black" cx="669.512" cy="-618.587" rx="32.4942" ry="18"/>
<text text-anchor="middle" x="669.512" y="-614.887" font-family="Times,serif" font-size="14.00">21428</text>
</a>
</g>
</g>
<!-- 2090&#45;&gt;21428 -->
<g id="edge47" class="edge"><title>2090&#45;&gt;21428</title>
<path fill="none" stroke="black" d="M439.88,-567.667C488.006,-578.339 588.351,-600.59 638.947,-611.81"/>
</g>
<!-- 2129 -->
<g id="node6" class="node"><title>2129</title>
<g id="a_node6"><a xlink:title="3rd_week">
<ellipse fill="#efff05" stroke="black" cx="707.844" cy="-2205.91" rx="28.6953" ry="18"/>
<text text-anchor="middle" x="707.844" y="-2202.21" font-family="Times,serif" font-size="14.00">2129</text>
</a>
</g>
</g>
<!-- 15367 -->
<g id="node37" class="node"><title>15367</title>
<g id="a_node37"><a xlink:title="3rd_week">
<ellipse fill="#efff05" stroke="black" cx="535.213" cy="-2138.71" rx="32.4942" ry="18"/>
<text text-anchor="middle" x="535.213" y="-2135.01" font-family="Times,serif" font-size="14.00">15367</text>
</a>
</g>
</g>
<!-- 2129&#45;&gt;15367 -->
<g id="edge23" class="edge"><title>2129&#45;&gt;15367</title>
<path fill="none" stroke="black" d="M683.477,-2196.43C651.412,-2183.94 595.241,-2162.08 562.01,-2149.14"/>
</g>
<!-- 2745 -->
<g id="node8" class="node"><title>2745</title>
<g id="a_node8"><a xlink:title="3rd_week">
<ellipse fill="#efff05" stroke="black" cx="513.528" cy="-1362.13" rx="28.6953" ry="18"/>
<text text-anchor="middle" x="513.528" y="-1358.43" font-family="Times,serif" font-size="14.00">2745</text>
</a>
</g>
</g>
<!-- 2745&#45;&gt;12929 -->
<g id="edge40" class="edge"><title>2745&#45;&gt;12929</title>
<path fill="none" stroke="black" d="M511.614,-1344.08C504.97,-1281.41 482.947,-1073.67 476.309,-1011.06"/>
</g>
<!-- 18036 -->
<g id="node43" class="node"><title>18036</title>
<g id="a_node43"><a xlink:title="3rd_week">
<ellipse fill="#efff05" stroke="black" cx="554.103" cy="-1766.73" rx="32.4942" ry="18"/>
<text text-anchor="middle" x="554.103" y="-1763.03" font-family="Times,serif" font-size="14.00">18036</text>
</a>
</g>
</g>
<!-- 2745&#45;&gt;18036 -->
<g id="edge12" class="edge"><title>2745&#45;&gt;18036</title>
<path fill="none" stroke="black" d="M515.35,-1380.3C522.089,-1447.5 545.555,-1681.5 552.285,-1748.61"/>
</g>
<!-- 4943 -->
<g id="node13" class="node"><title>4943</title>
<g id="a_node13"><a xlink:title="Day_0">
<ellipse fill="#efff05" stroke="black" cx="580.447" cy="-44.5478" rx="28.6953" ry="18"/>
<text text-anchor="middle" x="580.447" y="-40.8478" font-family="Times,serif" font-size="14.00">4943</text>
</a>
</g>
</g>
<!-- 4943&#45;&gt;11456 -->
<g id="edge2" class="edge"><title>4943&#45;&gt;11456</title>
<path fill="none" stroke="black" d="M572.021,-61.7927C554.387,-97.8856 513.754,-181.049 495.962,-217.465"/>
</g>
<!-- 7708 -->
<g id="node20" class="node"><title>7708</title>
<g id="a_node20"><a xlink:title="3rd_week">
<ellipse fill="#ffffff" stroke="black" cx="431.012" cy="-2324.62" rx="28.6953" ry="18"/>
<text text-anchor="middle" x="431.012" y="-2320.92" font-family="Times,serif" font-size="14.00">7708</text>
</a>
</g>
</g>
<!-- 7708&#45;&gt;15367 -->
<g id="edge26" class="edge"><title>7708&#45;&gt;15367</title>
<path fill="none" stroke="black" d="M440.628,-2307.46C460.429,-2272.14 505.56,-2191.62 525.469,-2156.1"/>
</g>
<!-- 7808 -->
<g id="node21" class="node"><title>7808</title>
<g id="a_node21"><a xlink:title="3rd_week">
<ellipse fill="#efff05" stroke="black" cx="716.81" cy="-1763.07" rx="28.6953" ry="18"/>
<text text-anchor="middle" x="716.81" y="-1759.37" font-family="Times,serif" font-size="14.00">7808</text>
</a>
</g>
</g>
<!-- 7808&#45;&gt;18036 -->
<g id="edge7" class="edge"><title>7808&#45;&gt;18036</title>
<path fill="none" stroke="black" d="M688.096,-1763.71C659.723,-1764.35 616.381,-1765.33 586.723,-1765.99"/>
</g>
<!-- 8438 -->
<g id="node23" class="node"><title>8438</title>
<g id="a_node23"><a xlink:title="3rd_week">
<ellipse fill="#efff05" stroke="black" cx="522.701" cy="-2328.28" rx="28.6953" ry="18"/>
<text text-anchor="middle" x="522.701" y="-2324.58" font-family="Times,serif" font-size="14.00">8438</text>
</a>
</g>
</g>
<!-- 8438&#45;&gt;15367 -->
<g id="edge25" class="edge"><title>8438&#45;&gt;15367</title>
<path fill="none" stroke="black" d="M523.901,-2310.1C526.292,-2273.87 531.629,-2193.02 534.017,-2156.83"/>
</g>
<!-- 8744 -->
<g id="node24" class="node"><title>8744</title>
<g id="a_node24"><a xlink:title="3rd_week">
<ellipse fill="#efff05" stroke="black" cx="395.335" cy="-1806.53" rx="28.6953" ry="18"/>
<text text-anchor="middle" x="395.335" y="-1802.83" font-family="Times,serif" font-size="14.00">8744</text>
</a>
</g>
</g>
<!-- 8744&#45;&gt;18036 -->
<g id="edge46" class="edge"><title>8744&#45;&gt;18036</title>
<path fill="none" stroke="black" d="M421.909,-1799.87C450.245,-1792.76 495.012,-1781.54 524.469,-1774.16"/>
</g>
<!-- 9689 -->
<g id="node26" class="node"><title>9689</title>
<g id="a_node26"><a xlink:title="3rd_week">
<ellipse fill="#efff05" stroke="black" cx="350.378" cy="-2184.79" rx="28.6953" ry="18"/>
<text text-anchor="middle" x="350.378" y="-2181.09" font-family="Times,serif" font-size="14.00">9689</text>
</a>
</g>
</g>
<!-- 9689&#45;&gt;15367 -->
<g id="edge39" class="edge"><title>9689&#45;&gt;15367</title>
<path fill="none" stroke="black" d="M377.254,-2178.09C411.397,-2169.58 470.127,-2154.94 505.549,-2146.11"/>
</g>
<!-- 10237 -->
<g id="node27" class="node"><title>10237</title>
<g id="a_node27"><a xlink:title="3rd_week">
<ellipse fill="#efff05" stroke="black" cx="519.911" cy="-2406.08" rx="32.4942" ry="18"/>
<text text-anchor="middle" x="519.911" y="-2402.38" font-family="Times,serif" font-size="14.00">10237</text>
</a>
</g>
</g>
<!-- 12830 -->
<g id="node34" class="node"><title>12830</title>
<g id="a_node34"><a xlink:title="3rd_week">
<ellipse fill="#efff05" stroke="black" cx="510.552" cy="-2627.01" rx="32.4942" ry="18"/>
<text text-anchor="middle" x="510.552" y="-2623.31" font-family="Times,serif" font-size="14.00">12830</text>
</a>
</g>
</g>
<!-- 10237&#45;&gt;12830 -->
<g id="edge43" class="edge"><title>10237&#45;&gt;12830</title>
<path fill="none" stroke="black" d="M519.145,-2424.16C517.386,-2465.69 513.072,-2567.52 511.315,-2608.99"/>
</g>
<!-- 10237&#45;&gt;15367 -->
<g id="edge38" class="edge"><title>10237&#45;&gt;15367</title>
<path fill="none" stroke="black" d="M520.963,-2387.7C523.765,-2338.74 531.387,-2205.57 534.174,-2156.86"/>
</g>
<!-- 10478 -->
<g id="node28" class="node"><title>10478</title>
<g id="a_node28"><a xlink:title="3rd_week">
<ellipse fill="#efff05" stroke="black" cx="616.359" cy="-2339.43" rx="32.4942" ry="18"/>
<text text-anchor="middle" x="616.359" y="-2335.73" font-family="Times,serif" font-size="14.00">10478</text>
</a>
</g>
</g>
<!-- 10478&#45;&gt;15367 -->
<g id="edge15" class="edge"><title>10478&#45;&gt;15367</title>
<path fill="none" stroke="black" d="M609.158,-2321.62C593.759,-2283.53 557.783,-2194.54 542.398,-2156.48"/>
</g>
<!-- 12717 -->
<g id="node32" class="node"><title>12717</title>
<g id="a_node32"><a xlink:title="Day_0">
<ellipse fill="#efff05" stroke="black" cx="484.566" cy="-17.5" rx="32.4942" ry="18"/>
<text text-anchor="middle" x="484.566" y="-13.8" font-family="Times,serif" font-size="14.00">12717</text>
</a>
</g>
</g>
<!-- 11456&#45;&gt;12717 -->
<g id="edge4" class="edge"><title>11456&#45;&gt;12717</title>
<path fill="none" stroke="black" d="M487.12,-216.908C486.596,-175.951 485.326,-76.831 484.8,-35.7782"/>
</g>
<!-- 12401&#45;&gt;18036 -->
<g id="edge35" class="edge"><title>12401&#45;&gt;18036</title>
<path fill="none" stroke="black" d="M733.867,-1864.29C694.802,-1843.08 616.528,-1800.61 577.436,-1779.39"/>
</g>
<!-- 16612 -->
<g id="node39" class="node"><title>16612</title>
<g id="a_node39"><a xlink:title="3rd_week">
<ellipse fill="#efff05" stroke="black" cx="364.719" cy="-2275.1" rx="32.4942" ry="18"/>
<text text-anchor="middle" x="364.719" y="-2271.4" font-family="Times,serif" font-size="14.00">16612</text>
</a>
</g>
</g>
<!-- 15367&#45;&gt;16612 -->
<g id="edge37" class="edge"><title>15367&#45;&gt;16612</title>
<path fill="none" stroke="black" d="M516.643,-2153.57C483.847,-2179.8 416.046,-2234.04 383.266,-2260.26"/>
</g>
<!-- 15367&#45;&gt;18036 -->
<g id="edge49" class="edge"><title>15367&#45;&gt;18036</title>
<path fill="none" stroke="black" d="M536.137,-2120.52C539.344,-2057.36 549.976,-1847.99 553.181,-1784.89"/>
</g>
<!-- 21875 -->
<g id="node53" class="node"><title>21875</title>
<g id="a_node53"><a xlink:title="3rd_week">
<ellipse fill="#efff05" stroke="black" cx="685.236" cy="-2291.7" rx="32.4942" ry="18"/>
<text text-anchor="middle" x="685.236" y="-2288" font-family="Times,serif" font-size="14.00">21875</text>
</a>
</g>
</g>
<!-- 15367&#45;&gt;21875 -->
<g id="edge19" class="edge"><title>15367&#45;&gt;21875</title>
<path fill="none" stroke="black" d="M550.985,-2154.79C579.873,-2184.25 640.945,-2246.53 669.676,-2275.83"/>
</g>
<!-- 17898 -->
<g id="node42" class="node"><title>17898</title>
<g id="a_node42"><a xlink:title="Day_0">
<ellipse fill="#efff05" stroke="black" cx="32.892" cy="-196.608" rx="32.4942" ry="18"/>
<text text-anchor="middle" x="32.892" y="-192.908" font-family="Times,serif" font-size="14.00">17898</text>
</a>
</g>
</g>
<!-- 17898&#45;&gt;21289 -->
<g id="edge14" class="edge"><title>17898&#45;&gt;21289</title>
<path fill="none" stroke="black" d="M49.5953,-212.424C83.5209,-244.549 160.131,-317.092 193.911,-349.077"/>
</g>
<!-- 20645 -->
<g id="node49" class="node"><title>20645</title>
<g id="a_node49"><a xlink:title="3rd_week">
<ellipse fill="#efff05" stroke="black" cx="488.704" cy="-1901.59" rx="32.4942" ry="18"/>
<text text-anchor="middle" x="488.704" y="-1897.89" font-family="Times,serif" font-size="14.00">20645</text>
</a>
</g>
</g>
<!-- 18036&#45;&gt;20645 -->
<g id="edge52" class="edge"><title>18036&#45;&gt;20645</title>
<path fill="none" stroke="black" d="M545.553,-1784.36C533.019,-1810.21 509.791,-1858.11 497.256,-1883.96"/>
</g>
</g>
</svg>
