<?xml version="1.0" encoding="UTF-8" standalone="no"?>
<!DOCTYPE svg PUBLIC "-//W3C//DTD SVG 1.1//EN"
 "http://www.w3.org/Graphics/SVG/1.1/DTD/svg11.dtd">
<!-- Generated by graphviz version 2.38.0 (20140413.2041)
 -->
<!-- Title: %3 Pages: 1 -->
<svg width="1207pt" height="2071pt"
 viewBox="0.00 0.00 1207.00 2071.00" xmlns="http://www.w3.org/2000/svg" xmlns:xlink="http://www.w3.org/1999/xlink">
<g id="graph0" class="graph" transform="scale(1 1) rotate(0) translate(4 2067)">
<title>%3</title>
<polygon fill="white" stroke="none" points="-4,4 -4,-2067 1203,-2067 1203,4 -4,4"/>
<!-- 1187 -->
<g id="node1" class="node"><title>1187</title>
<g id="a_node1"><a xlink:title="6th_week">
<ellipse fill="#c81d25" stroke="black" cx="1011.99" cy="-1210.08" rx="28.6953" ry="18"/>
<text text-anchor="middle" x="1011.99" y="-1206.38" font-family="Times,serif" font-size="14.00">1187</text>
</a>
</g>
</g>
<!-- 63368 -->
<g id="node52" class="node"><title>63368</title>
<g id="a_node52"><a xlink:title="6th_week">
<ellipse fill="#c81d25" stroke="black" cx="843.048" cy="-1217.52" rx="32.4942" ry="18"/>
<text text-anchor="middle" x="843.048" y="-1213.82" font-family="Times,serif" font-size="14.00">63368</text>
</a>
</g>
</g>
<!-- 1187&#45;&gt;63368 -->
<g id="edge34" class="edge"><title>1187&#45;&gt;63368</title>
<path fill="none" stroke="black" d="M983.335,-1211.35C953.491,-1212.66 906.826,-1214.72 875.609,-1216.09"/>
</g>
<!-- 2623 -->
<g id="node2" class="node"><title>2623</title>
<g id="a_node2"><a xlink:title="6th_week">
<ellipse fill="#c81d25" stroke="black" cx="359.744" cy="-455.78" rx="28.6953" ry="18"/>
<text text-anchor="middle" x="359.744" y="-452.08" font-family="Times,serif" font-size="14.00">2623</text>
</a>
</g>
</g>
<!-- 13138 -->
<g id="node9" class="node"><title>13138</title>
<g id="a_node9"><a xlink:title="6th_week">
<ellipse fill="#c81d25" stroke="black" cx="540.564" cy="-520.884" rx="32.4942" ry="18"/>
<text text-anchor="middle" x="540.564" y="-517.184" font-family="Times,serif" font-size="14.00">13138</text>
</a>
</g>
</g>
<!-- 2623&#45;&gt;13138 -->
<g id="edge49" class="edge"><title>2623&#45;&gt;13138</title>
<path fill="none" stroke="black" d="M384.887,-464.833C418.656,-476.991 478.439,-498.516 513.273,-511.058"/>
</g>
<!-- 3611 -->
<g id="node3" class="node"><title>3611</title>
<g id="a_node3"><a xlink:title="6th_week">
<ellipse fill="#c81d25" stroke="black" cx="402.049" cy="-394.742" rx="28.6953" ry="18"/>
<text text-anchor="middle" x="402.049" y="-391.042" font-family="Times,serif" font-size="14.00">3611</text>
</a>
</g>
</g>
<!-- 3611&#45;&gt;13138 -->
<g id="edge52" class="edge"><title>3611&#45;&gt;13138</title>
<path fill="none" stroke="black" d="M418.483,-409.708C444.854,-433.724 496.384,-480.65 523.284,-505.147"/>
</g>
<!-- 5987 -->
<g id="node4" class="node"><title>5987</title>
<g id="a_node4"><a xlink:title="6th_week">
<ellipse fill="#c81d25" stroke="black" cx="73.843" cy="-518.606" rx="28.6953" ry="18"/>
<text text-anchor="middle" x="73.843" y="-514.906" font-family="Times,serif" font-size="14.00">5987</text>
</a>
</g>
</g>
<!-- 25362 -->
<g id="node14" class="node"><title>25362</title>
<g id="a_node14"><a xlink:title="6th_week">
<ellipse fill="#c81d25" stroke="black" cx="254.657" cy="-545.605" rx="32.4942" ry="18"/>
<text text-anchor="middle" x="254.657" y="-541.905" font-family="Times,serif" font-size="14.00">25362</text>
</a>
</g>
</g>
<!-- 5987&#45;&gt;25362 -->
<g id="edge5" class="edge"><title>5987&#45;&gt;25362</title>
<path fill="none" stroke="black" d="M101.699,-522.765C134.488,-527.661 188.81,-535.773 223.119,-540.896"/>
</g>
<!-- 6081 -->
<g id="node5" class="node"><title>6081</title>
<g id="a_node5"><a xlink:title="6th_week">
<ellipse fill="#c81d25" stroke="black" cx="176.218" cy="-167.718" rx="28.6953" ry="18"/>
<text text-anchor="middle" x="176.218" y="-164.018" font-family="Times,serif" font-size="14.00">6081</text>
</a>
</g>
</g>
<!-- 21327 -->
<g id="node12" class="node"><title>21327</title>
<g id="a_node12"><a xlink:title="6th_week">
<ellipse fill="#c81d25" stroke="black" cx="32.8853" cy="-17.8971" rx="32.4942" ry="18"/>
<text text-anchor="middle" x="32.8853" y="-14.1971" font-family="Times,serif" font-size="14.00">21327</text>
</a>
</g>
</g>
<!-- 6081&#45;&gt;21327 -->
<g id="edge2" class="edge"><title>6081&#45;&gt;21327</title>
<path fill="none" stroke="black" d="M161.419,-152.249C134.096,-123.689 75.995,-62.9582 48.2521,-33.9595"/>
</g>
<!-- 59127 -->
<g id="node43" class="node"><title>59127</title>
<g id="a_node43"><a xlink:title="6th_week">
<ellipse fill="#c81d25" stroke="black" cx="312.945" cy="-328.65" rx="32.4942" ry="18"/>
<text text-anchor="middle" x="312.945" y="-324.95" font-family="Times,serif" font-size="14.00">59127</text>
</a>
</g>
</g>
<!-- 6081&#45;&gt;59127 -->
<g id="edge9" class="edge"><title>6081&#45;&gt;59127</title>
<path fill="none" stroke="black" d="M189.828,-183.737C215.901,-214.426 272.637,-281.207 298.983,-312.217"/>
</g>
<!-- 6140 -->
<g id="node6" class="node"><title>6140</title>
<g id="a_node6"><a xlink:title="6th_week">
<ellipse fill="#c81d25" stroke="black" cx="901.014" cy="-2045.09" rx="28.6953" ry="18"/>
<text text-anchor="middle" x="901.014" y="-2041.39" font-family="Times,serif" font-size="14.00">6140</text>
</a>
</g>
</g>
<!-- 60800 -->
<g id="node44" class="node"><title>60800</title>
<g id="a_node44"><a xlink:title="6th_week">
<ellipse fill="#c81d25" stroke="black" cx="919.61" cy="-1844.98" rx="32.4942" ry="18"/>
<text text-anchor="middle" x="919.61" y="-1841.28" font-family="Times,serif" font-size="14.00">60800</text>
</a>
</g>
</g>
<!-- 6140&#45;&gt;60800 -->
<g id="edge43" class="edge"><title>6140&#45;&gt;60800</title>
<path fill="none" stroke="black" d="M902.697,-2026.98C906.229,-1988.98 914.378,-1901.29 917.918,-1863.2"/>
</g>
<!-- 6166 -->
<g id="node7" class="node"><title>6166</title>
<g id="a_node7"><a xlink:title="6th_week">
<ellipse fill="#c81d25" stroke="black" cx="1162.44" cy="-1676.45" rx="28.6953" ry="18"/>
<text text-anchor="middle" x="1162.44" y="-1672.75" font-family="Times,serif" font-size="14.00">6166</text>
</a>
</g>
</g>
<!-- 45134 -->
<g id="node36" class="node"><title>45134</title>
<g id="a_node36"><a xlink:title="6th_week">
<ellipse fill="#c81d25" stroke="black" cx="953.913" cy="-1611.5" rx="32.4942" ry="18"/>
<text text-anchor="middle" x="953.913" y="-1607.8" font-family="Times,serif" font-size="14.00">45134</text>
</a>
</g>
</g>
<!-- 6166&#45;&gt;45134 -->
<g id="edge23" class="edge"><title>6166&#45;&gt;45134</title>
<path fill="none" stroke="black" d="M1136.46,-1668.36C1097.26,-1656.15 1023.28,-1633.11 982.572,-1620.43"/>
</g>
<!-- 9124 -->
<g id="node8" class="node"><title>9124</title>
<g id="a_node8"><a xlink:title="6th_week">
<ellipse fill="#c81d25" stroke="black" cx="527.748" cy="-392.549" rx="28.6953" ry="18"/>
<text text-anchor="middle" x="527.748" y="-388.849" font-family="Times,serif" font-size="14.00">9124</text>
</a>
</g>
</g>
<!-- 9124&#45;&gt;13138 -->
<g id="edge16" class="edge"><title>9124&#45;&gt;13138</title>
<path fill="none" stroke="black" d="M529.557,-410.664C532,-435.123 536.326,-478.449 538.764,-502.861"/>
</g>
<!-- 15113 -->
<g id="node11" class="node"><title>15113</title>
<g id="a_node11"><a xlink:title="6th_week">
<ellipse fill="#c81d25" stroke="black" cx="596.308" cy="-331.399" rx="32.4942" ry="18"/>
<text text-anchor="middle" x="596.308" y="-327.699" font-family="Times,serif" font-size="14.00">15113</text>
</a>
</g>
</g>
<!-- 13138&#45;&gt;15113 -->
<g id="edge30" class="edge"><title>13138&#45;&gt;15113</title>
<path fill="none" stroke="black" d="M545.808,-503.057C556.433,-466.943 580.391,-385.506 591.038,-349.316"/>
</g>
<!-- 13138&#45;&gt;25362 -->
<g id="edge41" class="edge"><title>13138&#45;&gt;25362</title>
<path fill="none" stroke="black" d="M508.323,-523.671C453.266,-528.432 341.757,-538.074 286.781,-542.827"/>
</g>
<!-- 25639 -->
<g id="node16" class="node"><title>25639</title>
<g id="a_node16"><a xlink:title="6th_week">
<ellipse fill="#c81d25" stroke="black" cx="353.48" cy="-529.467" rx="32.4942" ry="18"/>
<text text-anchor="middle" x="353.48" y="-525.767" font-family="Times,serif" font-size="14.00">25639</text>
</a>
</g>
</g>
<!-- 13138&#45;&gt;25639 -->
<g id="edge28" class="edge"><title>13138&#45;&gt;25639</title>
<path fill="none" stroke="black" d="M507.976,-522.379C473.743,-523.949 420.218,-526.405 386.007,-527.974"/>
</g>
<!-- 28980 -->
<g id="node19" class="node"><title>28980</title>
<g id="a_node19"><a xlink:title="6th_week">
<ellipse fill="#c81d25" stroke="black" cx="531.416" cy="-212.056" rx="32.4942" ry="18"/>
<text text-anchor="middle" x="531.416" y="-208.356" font-family="Times,serif" font-size="14.00">28980</text>
</a>
</g>
</g>
<!-- 13138&#45;&gt;28980 -->
<g id="edge29" class="edge"><title>13138&#45;&gt;28980</title>
<path fill="none" stroke="black" d="M540.019,-502.49C538.392,-447.562 533.581,-285.155 531.958,-230.353"/>
</g>
<!-- 29454 -->
<g id="node20" class="node"><title>29454</title>
<g id="a_node20"><a xlink:title="6th_week">
<ellipse fill="#c81d25" stroke="black" cx="686.667" cy="-318.717" rx="32.4942" ry="18"/>
<text text-anchor="middle" x="686.667" y="-315.017" font-family="Times,serif" font-size="14.00">29454</text>
</a>
</g>
</g>
<!-- 13138&#45;&gt;29454 -->
<g id="edge14" class="edge"><title>13138&#45;&gt;29454</title>
<path fill="none" stroke="black" d="M552.769,-503.995C580.271,-465.94 646.828,-373.844 674.394,-335.7"/>
</g>
<!-- 31313 -->
<g id="node21" class="node"><title>31313</title>
<g id="a_node21"><a xlink:title="6th_week">
<ellipse fill="#c81d25" stroke="black" cx="704.084" cy="-480.601" rx="32.4942" ry="18"/>
<text text-anchor="middle" x="704.084" y="-476.901" font-family="Times,serif" font-size="14.00">31313</text>
</a>
</g>
</g>
<!-- 13138&#45;&gt;31313 -->
<g id="edge51" class="edge"><title>13138&#45;&gt;31313</title>
<path fill="none" stroke="black" d="M570.556,-513.495C600.06,-506.227 644.843,-495.194 674.282,-487.942"/>
</g>
<!-- 33067 -->
<g id="node22" class="node"><title>33067</title>
<g id="a_node22"><a xlink:title="6th_week">
<ellipse fill="#c81d25" stroke="black" cx="678.491" cy="-608.868" rx="32.4942" ry="18"/>
<text text-anchor="middle" x="678.491" y="-605.168" font-family="Times,serif" font-size="14.00">33067</text>
</a>
</g>
</g>
<!-- 13138&#45;&gt;33067 -->
<g id="edge32" class="edge"><title>13138&#45;&gt;33067</title>
<path fill="none" stroke="black" d="M562.115,-534.631C588.027,-551.161 631.247,-578.731 657.092,-595.217"/>
</g>
<!-- 34663 -->
<g id="node26" class="node"><title>34663</title>
<g id="a_node26"><a xlink:title="6th_week">
<ellipse fill="#c81d25" stroke="black" cx="527.988" cy="-691.632" rx="32.4942" ry="18"/>
<text text-anchor="middle" x="527.988" y="-687.932" font-family="Times,serif" font-size="14.00">34663</text>
</a>
</g>
</g>
<!-- 13138&#45;&gt;34663 -->
<g id="edge1" class="edge"><title>13138&#45;&gt;34663</title>
<path fill="none" stroke="black" d="M539.218,-539.157C536.798,-572.021 531.738,-640.722 529.324,-673.49"/>
</g>
<!-- 36047 -->
<g id="node28" class="node"><title>36047</title>
<g id="a_node28"><a xlink:title="6th_week">
<ellipse fill="#c81d25" stroke="black" cx="701.112" cy="-876.313" rx="32.4942" ry="18"/>
<text text-anchor="middle" x="701.112" y="-872.613" font-family="Times,serif" font-size="14.00">36047</text>
</a>
</g>
</g>
<!-- 13138&#45;&gt;36047 -->
<g id="edge47" class="edge"><title>13138&#45;&gt;36047</title>
<path fill="none" stroke="black" d="M548.526,-538.509C575.859,-599.022 665.695,-797.907 693.102,-858.581"/>
</g>
<!-- 42606 -->
<g id="node32" class="node"><title>42606</title>
<g id="a_node32"><a xlink:title="6th_week">
<ellipse fill="#c81d25" stroke="black" cx="611.479" cy="-660.866" rx="32.4942" ry="18"/>
<text text-anchor="middle" x="611.479" y="-657.166" font-family="Times,serif" font-size="14.00">42606</text>
</a>
</g>
</g>
<!-- 13138&#45;&gt;42606 -->
<g id="edge42" class="edge"><title>13138&#45;&gt;42606</title>
<path fill="none" stroke="black" d="M549.402,-538.329C562.991,-565.154 588.874,-616.244 602.53,-643.2"/>
</g>
<!-- 42662 -->
<g id="node33" class="node"><title>42662</title>
<g id="a_node33"><a xlink:title="6th_week">
<ellipse fill="#c81d25" stroke="black" cx="446.342" cy="-341.853" rx="32.4942" ry="18"/>
<text text-anchor="middle" x="446.342" y="-338.153" font-family="Times,serif" font-size="14.00">42662</text>
</a>
</g>
</g>
<!-- 13138&#45;&gt;42662 -->
<g id="edge35" class="edge"><title>13138&#45;&gt;42662</title>
<path fill="none" stroke="black" d="M531.358,-503.391C513.299,-469.077 473.424,-393.311 455.447,-359.153"/>
</g>
<!-- 43358 -->
<g id="node34" class="node"><title>43358</title>
<g id="a_node34"><a xlink:title="6th_week">
<ellipse fill="#c81d25" stroke="black" cx="368.425" cy="-602.405" rx="32.4942" ry="18"/>
<text text-anchor="middle" x="368.425" y="-598.705" font-family="Times,serif" font-size="14.00">43358</text>
</a>
</g>
</g>
<!-- 13138&#45;&gt;43358 -->
<g id="edge40" class="edge"><title>13138&#45;&gt;43358</title>
<path fill="none" stroke="black" d="M515.534,-532.738C482.804,-548.238 425.813,-575.228 393.207,-590.669"/>
</g>
<!-- 54195 -->
<g id="node39" class="node"><title>54195</title>
<g id="a_node39"><a xlink:title="6th_week">
<ellipse fill="#c81d25" stroke="black" cx="660.053" cy="-400.254" rx="32.4942" ry="18"/>
<text text-anchor="middle" x="660.053" y="-396.554" font-family="Times,serif" font-size="14.00">54195</text>
</a>
</g>
</g>
<!-- 13138&#45;&gt;54195 -->
<g id="edge20" class="edge"><title>13138&#45;&gt;54195</title>
<path fill="none" stroke="black" d="M556.679,-504.615C579.612,-481.464 621.402,-439.274 644.194,-416.265"/>
</g>
<!-- 13138&#45;&gt;59127 -->
<g id="edge17" class="edge"><title>13138&#45;&gt;59127</title>
<path fill="none" stroke="black" d="M522.703,-505.799C480.258,-469.953 373.716,-379.973 331.038,-343.93"/>
</g>
<!-- 60861 -->
<g id="node46" class="node"><title>60861</title>
<g id="a_node46"><a xlink:title="6th_week">
<ellipse fill="#c81d25" stroke="black" cx="383.559" cy="-669.123" rx="32.4942" ry="18"/>
<text text-anchor="middle" x="383.559" y="-665.423" font-family="Times,serif" font-size="14.00">60861</text>
</a>
</g>
</g>
<!-- 13138&#45;&gt;60861 -->
<g id="edge37" class="edge"><title>13138&#45;&gt;60861</title>
<path fill="none" stroke="black" d="M524.058,-536.468C493.983,-564.864 430.576,-624.731 400.316,-653.301"/>
</g>
<!-- 61401 -->
<g id="node47" class="node"><title>61401</title>
<g id="a_node47"><a xlink:title="6th_week">
<ellipse fill="#c81d25" stroke="black" cx="716.235" cy="-546.678" rx="32.4942" ry="18"/>
<text text-anchor="middle" x="716.235" y="-542.978" font-family="Times,serif" font-size="14.00">61401</text>
</a>
</g>
</g>
<!-- 13138&#45;&gt;61401 -->
<g id="edge27" class="edge"><title>13138&#45;&gt;61401</title>
<path fill="none" stroke="black" d="M572.377,-525.555C604.214,-530.23 652.905,-537.379 684.659,-542.042"/>
</g>
<!-- 61403 -->
<g id="node48" class="node"><title>61403</title>
<g id="a_node48"><a xlink:title="6th_week">
<ellipse fill="#c81d25" stroke="black" cx="763.922" cy="-414.558" rx="32.4942" ry="18"/>
<text text-anchor="middle" x="763.922" y="-410.858" font-family="Times,serif" font-size="14.00">61403</text>
</a>
</g>
</g>
<!-- 13138&#45;&gt;61403 -->
<g id="edge4" class="edge"><title>13138&#45;&gt;61403</title>
<path fill="none" stroke="black" d="M565.321,-509.099C608.255,-488.661 696.043,-446.871 739.054,-426.396"/>
</g>
<!-- 63024 -->
<g id="node51" class="node"><title>63024</title>
<g id="a_node51"><a xlink:title="6th_week">
<ellipse fill="#c81d25" stroke="black" cx="482.463" cy="-635.327" rx="32.4942" ry="18"/>
<text text-anchor="middle" x="482.463" y="-631.627" font-family="Times,serif" font-size="14.00">63024</text>
</a>
</g>
</g>
<!-- 13138&#45;&gt;63024 -->
<g id="edge7" class="edge"><title>13138&#45;&gt;63024</title>
<path fill="none" stroke="black" d="M531.74,-538.265C520.819,-559.775 502.329,-596.196 491.37,-617.782"/>
</g>
<!-- 13802 -->
<g id="node10" class="node"><title>13802</title>
<g id="a_node10"><a xlink:title="6th_week">
<ellipse fill="#c81d25" stroke="black" cx="604.581" cy="-40.1024" rx="32.4942" ry="18"/>
<text text-anchor="middle" x="604.581" y="-36.4024" font-family="Times,serif" font-size="14.00">13802</text>
</a>
</g>
</g>
<!-- 13802&#45;&gt;28980 -->
<g id="edge3" class="edge"><title>13802&#45;&gt;28980</title>
<path fill="none" stroke="black" d="M597.026,-57.8567C582.97,-90.8929 552.954,-161.435 538.929,-194.398"/>
</g>
<!-- 22993 -->
<g id="node13" class="node"><title>22993</title>
<g id="a_node13"><a xlink:title="6th_week">
<ellipse fill="#c81d25" stroke="black" cx="698.928" cy="-1295.49" rx="32.4942" ry="18"/>
<text text-anchor="middle" x="698.928" y="-1291.79" font-family="Times,serif" font-size="14.00">22993</text>
</a>
</g>
</g>
<!-- 22993&#45;&gt;63368 -->
<g id="edge8" class="edge"><title>22993&#45;&gt;63368</title>
<path fill="none" stroke="black" d="M722.404,-1282.79C749.204,-1268.29 792.786,-1244.71 819.582,-1230.22"/>
</g>
<!-- 34283 -->
<g id="node23" class="node"><title>34283</title>
<g id="a_node23"><a xlink:title="6th_week">
<ellipse fill="#c81d25" stroke="black" cx="80.334" cy="-605.941" rx="32.4942" ry="18"/>
<text text-anchor="middle" x="80.334" y="-602.241" font-family="Times,serif" font-size="14.00">34283</text>
</a>
</g>
</g>
<!-- 25362&#45;&gt;34283 -->
<g id="edge10" class="edge"><title>25362&#45;&gt;34283</title>
<path fill="none" stroke="black" d="M227.035,-555.166C194.489,-566.43 140.729,-585.038 108.115,-596.326"/>
</g>
<!-- 25605 -->
<g id="node15" class="node"><title>25605</title>
<g id="a_node15"><a xlink:title="6th_week">
<ellipse fill="#c81d25" stroke="black" cx="1166.97" cy="-1617.49" rx="32.4942" ry="18"/>
<text text-anchor="middle" x="1166.97" y="-1613.79" font-family="Times,serif" font-size="14.00">25605</text>
</a>
</g>
</g>
<!-- 25605&#45;&gt;45134 -->
<g id="edge46" class="edge"><title>25605&#45;&gt;45134</title>
<path fill="none" stroke="black" d="M1134.15,-1616.56C1093.99,-1615.44 1026.44,-1613.54 986.424,-1612.41"/>
</g>
<!-- 26281 -->
<g id="node17" class="node"><title>26281</title>
<g id="a_node17"><a xlink:title="6th_week">
<ellipse fill="#c81d25" stroke="black" cx="908.339" cy="-1776.5" rx="32.4942" ry="18"/>
<text text-anchor="middle" x="908.339" y="-1772.8" font-family="Times,serif" font-size="14.00">26281</text>
</a>
</g>
</g>
<!-- 26281&#45;&gt;45134 -->
<g id="edge11" class="edge"><title>26281&#45;&gt;45134</title>
<path fill="none" stroke="black" d="M913.303,-1758.53C922.069,-1726.79 940.192,-1661.17 948.955,-1629.45"/>
</g>
<!-- 27800 -->
<g id="node18" class="node"><title>27800</title>
<g id="a_node18"><a xlink:title="6th_week">
<ellipse fill="#c81d25" stroke="black" cx="796.979" cy="-1577.62" rx="32.4942" ry="18"/>
<text text-anchor="middle" x="796.979" y="-1573.92" font-family="Times,serif" font-size="14.00">27800</text>
</a>
</g>
</g>
<!-- 27800&#45;&gt;45134 -->
<g id="edge50" class="edge"><title>27800&#45;&gt;45134</title>
<path fill="none" stroke="black" d="M827.61,-1584.24C855.351,-1590.22 895.992,-1599 923.626,-1604.96"/>
</g>
<!-- 35964 -->
<g id="node27" class="node"><title>35964</title>
<g id="a_node27"><a xlink:title="6th_week">
<ellipse fill="#c81d25" stroke="black" cx="531.289" cy="-23.4049" rx="32.4942" ry="18"/>
<text text-anchor="middle" x="531.289" y="-19.7049" font-family="Times,serif" font-size="14.00">35964</text>
</a>
</g>
</g>
<!-- 28980&#45;&gt;35964 -->
<g id="edge44" class="edge"><title>28980&#45;&gt;35964</title>
<path fill="none" stroke="black" d="M531.403,-193.967C531.379,-157.908 531.325,-77.4527 531.301,-41.4388"/>
</g>
<!-- 55779 -->
<g id="node40" class="node"><title>55779</title>
<g id="a_node40"><a xlink:title="6th_week">
<ellipse fill="#c81d25" stroke="black" cx="457.023" cy="-37.7929" rx="32.4942" ry="18"/>
<text text-anchor="middle" x="457.023" y="-34.0929" font-family="Times,serif" font-size="14.00">55779</text>
</a>
</g>
</g>
<!-- 28980&#45;&gt;55779 -->
<g id="edge39" class="edge"><title>28980&#45;&gt;55779</title>
<path fill="none" stroke="black" d="M523.873,-194.388C509.615,-160.987 478.859,-88.944 464.585,-55.5079"/>
</g>
<!-- 60850 -->
<g id="node45" class="node"><title>60850</title>
<g id="a_node45"><a xlink:title="6th_week">
<ellipse fill="#c81d25" stroke="black" cx="801.99" cy="-170.197" rx="32.4942" ry="18"/>
<text text-anchor="middle" x="801.99" y="-166.497" font-family="Times,serif" font-size="14.00">60850</text>
</a>
</g>
</g>
<!-- 29454&#45;&gt;60850 -->
<g id="edge36" class="edge"><title>29454&#45;&gt;60850</title>
<path fill="none" stroke="black" d="M699.672,-301.969C721.821,-273.444 766.619,-215.75 788.856,-187.112"/>
</g>
<!-- 34394 -->
<g id="node24" class="node"><title>34394</title>
<g id="a_node24"><a xlink:title="6th_week">
<ellipse fill="#c81d25" stroke="black" cx="851.951" cy="-905.146" rx="32.4942" ry="18"/>
<text text-anchor="middle" x="851.951" y="-901.446" font-family="Times,serif" font-size="14.00">34394</text>
</a>
</g>
</g>
<!-- 34394&#45;&gt;36047 -->
<g id="edge26" class="edge"><title>34394&#45;&gt;36047</title>
<path fill="none" stroke="black" d="M821.063,-899.242C795.033,-894.266 757.977,-887.183 731.959,-882.21"/>
</g>
<!-- 34533 -->
<g id="node25" class="node"><title>34533</title>
<g id="a_node25"><a xlink:title="6th_week">
<ellipse fill="#c81d25" stroke="black" cx="811.555" cy="-1768.84" rx="32.4942" ry="18"/>
<text text-anchor="middle" x="811.555" y="-1765.14" font-family="Times,serif" font-size="14.00">34533</text>
</a>
</g>
</g>
<!-- 34533&#45;&gt;45134 -->
<g id="edge31" class="edge"><title>34533&#45;&gt;45134</title>
<path fill="none" stroke="black" d="M826.253,-1752.6C853.533,-1722.45 911.701,-1658.16 939.081,-1627.89"/>
</g>
<!-- 36047&#45;&gt;63368 -->
<g id="edge53" class="edge"><title>36047&#45;&gt;63368</title>
<path fill="none" stroke="black" d="M708.543,-894.178C733.07,-953.14 811.271,-1141.13 835.691,-1199.84"/>
</g>
<!-- 36307 -->
<g id="node29" class="node"><title>36307</title>
<g id="a_node29"><a xlink:title="6th_week">
<ellipse fill="#c81d25" stroke="black" cx="802.136" cy="-1710.21" rx="32.4942" ry="18"/>
<text text-anchor="middle" x="802.136" y="-1706.51" font-family="Times,serif" font-size="14.00">36307</text>
</a>
</g>
</g>
<!-- 36307&#45;&gt;45134 -->
<g id="edge22" class="edge"><title>36307&#45;&gt;45134</title>
<path fill="none" stroke="black" d="M823.24,-1696.49C852.074,-1677.73 903.503,-1644.29 932.499,-1625.43"/>
</g>
<!-- 36705 -->
<g id="node30" class="node"><title>36705</title>
<g id="a_node30"><a xlink:title="6th_week">
<ellipse fill="#c81d25" stroke="black" cx="1071.94" cy="-1788.93" rx="32.4942" ry="18"/>
<text text-anchor="middle" x="1071.94" y="-1785.23" font-family="Times,serif" font-size="14.00">36705</text>
</a>
</g>
</g>
<!-- 36705&#45;&gt;45134 -->
<g id="edge13" class="edge"><title>36705&#45;&gt;45134</title>
<path fill="none" stroke="black" d="M1060.62,-1771.92C1038.06,-1738 987.727,-1662.33 965.195,-1628.46"/>
</g>
<!-- 41294 -->
<g id="node31" class="node"><title>41294</title>
<g id="a_node31"><a xlink:title="6th_week">
<ellipse fill="#c81d25" stroke="black" cx="784.732" cy="-1650.81" rx="32.4942" ry="18"/>
<text text-anchor="middle" x="784.732" y="-1647.11" font-family="Times,serif" font-size="14.00">41294</text>
</a>
</g>
</g>
<!-- 41294&#45;&gt;45134 -->
<g id="edge6" class="edge"><title>41294&#45;&gt;45134</title>
<path fill="none" stroke="black" d="M814.978,-1643.78C845.772,-1636.62 893.229,-1625.6 923.928,-1618.47"/>
</g>
<!-- 43853 -->
<g id="node35" class="node"><title>43853</title>
<g id="a_node35"><a xlink:title="6th_week">
<ellipse fill="#c81d25" stroke="black" cx="1108.87" cy="-1736.7" rx="32.4942" ry="18"/>
<text text-anchor="middle" x="1108.87" y="-1733" font-family="Times,serif" font-size="14.00">43853</text>
</a>
</g>
</g>
<!-- 43853&#45;&gt;45134 -->
<g id="edge54" class="edge"><title>43853&#45;&gt;45134</title>
<path fill="none" stroke="black" d="M1090.48,-1721.85C1060.82,-1697.88 1002.71,-1650.93 972.756,-1626.73"/>
</g>
<!-- 51069 -->
<g id="node37" class="node"><title>51069</title>
<g id="a_node37"><a xlink:title="6th_week">
<ellipse fill="#c81d25" stroke="black" cx="989.891" cy="-1750.93" rx="32.4942" ry="18"/>
<text text-anchor="middle" x="989.891" y="-1747.23" font-family="Times,serif" font-size="14.00">51069</text>
</a>
</g>
</g>
<!-- 45134&#45;&gt;51069 -->
<g id="edge38" class="edge"><title>45134&#45;&gt;51069</title>
<path fill="none" stroke="black" d="M958.542,-1629.44C965.451,-1656.22 978.381,-1706.32 985.279,-1733.05"/>
</g>
<!-- 53434 -->
<g id="node38" class="node"><title>53434</title>
<g id="a_node38"><a xlink:title="6th_week">
<ellipse fill="#c81d25" stroke="black" cx="1067.6" cy="-1640.22" rx="32.4942" ry="18"/>
<text text-anchor="middle" x="1067.6" y="-1636.52" font-family="Times,serif" font-size="14.00">53434</text>
</a>
</g>
</g>
<!-- 45134&#45;&gt;53434 -->
<g id="edge19" class="edge"><title>45134&#45;&gt;53434</title>
<path fill="none" stroke="black" d="M983.485,-1618.97C1000.2,-1623.19 1021.03,-1628.46 1037.78,-1632.69"/>
</g>
<!-- 45134&#45;&gt;60800 -->
<g id="edge15" class="edge"><title>45134&#45;&gt;60800</title>
<path fill="none" stroke="black" d="M951.221,-1629.82C944.809,-1673.47 928.689,-1783.19 922.289,-1826.75"/>
</g>
<!-- 62647 -->
<g id="node49" class="node"><title>62647</title>
<g id="a_node49"><a xlink:title="6th_week">
<ellipse fill="#c81d25" stroke="black" cx="1080.17" cy="-1494.51" rx="32.4942" ry="18"/>
<text text-anchor="middle" x="1080.17" y="-1490.81" font-family="Times,serif" font-size="14.00">62647</text>
</a>
</g>
</g>
<!-- 45134&#45;&gt;62647 -->
<g id="edge12" class="edge"><title>45134&#45;&gt;62647</title>
<path fill="none" stroke="black" d="M970.679,-1595.97C994.827,-1573.59 1039.15,-1532.52 1063.34,-1510.11"/>
</g>
<!-- 62949 -->
<g id="node50" class="node"><title>62949</title>
<g id="a_node50"><a xlink:title="6th_week">
<ellipse fill="#c81d25" stroke="black" cx="1141.39" cy="-1549.54" rx="32.4942" ry="18"/>
<text text-anchor="middle" x="1141.39" y="-1545.84" font-family="Times,serif" font-size="14.00">62949</text>
</a>
</g>
</g>
<!-- 45134&#45;&gt;62949 -->
<g id="edge24" class="edge"><title>45134&#45;&gt;62949</title>
<path fill="none" stroke="black" d="M981.98,-1602.23C1017.43,-1590.51 1078.05,-1570.48 1113.44,-1558.78"/>
</g>
<!-- 45134&#45;&gt;63368 -->
<g id="edge48" class="edge"><title>45134&#45;&gt;63368</title>
<path fill="none" stroke="black" d="M948.861,-1593.55C930.392,-1527.92 866.647,-1301.39 848.13,-1235.58"/>
</g>
<!-- 63466 -->
<g id="node53" class="node"><title>63466</title>
<g id="a_node53"><a xlink:title="6th_week">
<ellipse fill="#c81d25" stroke="black" cx="998.496" cy="-1799.43" rx="32.4942" ry="18"/>
<text text-anchor="middle" x="998.496" y="-1795.73" font-family="Times,serif" font-size="14.00">63466</text>
</a>
</g>
</g>
<!-- 45134&#45;&gt;63466 -->
<g id="edge21" class="edge"><title>45134&#45;&gt;63466</title>
<path fill="none" stroke="black" d="M958.187,-1629.52C966.709,-1665.44 985.723,-1745.59 994.234,-1781.46"/>
</g>
<!-- 56050 -->
<g id="node41" class="node"><title>56050</title>
<g id="a_node41"><a xlink:title="6th_week">
<ellipse fill="#c81d25" stroke="black" cx="976.601" cy="-1131.51" rx="32.4942" ry="18"/>
<text text-anchor="middle" x="976.601" y="-1127.81" font-family="Times,serif" font-size="14.00">56050</text>
</a>
</g>
</g>
<!-- 56050&#45;&gt;63368 -->
<g id="edge33" class="edge"><title>56050&#45;&gt;63368</title>
<path fill="none" stroke="black" d="M955.143,-1145.33C930.221,-1161.38 889.352,-1187.7 864.453,-1203.74"/>
</g>
<!-- 56627 -->
<g id="node42" class="node"><title>56627</title>
<g id="a_node42"><a xlink:title="6th_week">
<ellipse fill="#c81d25" stroke="black" cx="146.574" cy="-252.434" rx="32.4942" ry="18"/>
<text text-anchor="middle" x="146.574" y="-248.734" font-family="Times,serif" font-size="14.00">56627</text>
</a>
</g>
</g>
<!-- 56627&#45;&gt;59127 -->
<g id="edge18" class="edge"><title>56627&#45;&gt;59127</title>
<path fill="none" stroke="black" d="M171.842,-264.01C203.203,-278.377 256.367,-302.732 287.712,-317.091"/>
</g>
<!-- 57937 -->
<g id="node54" class="node"><title>57937</title>
<g id="a_node54"><a xlink:title="6th_week">
<ellipse fill="#c81d25" stroke="black" cx="928.931" cy="-331.196" rx="32.4942" ry="18"/>
<text text-anchor="middle" x="928.931" y="-327.496" font-family="Times,serif" font-size="14.00">57937</text>
</a>
</g>
</g>
<!-- 61403&#45;&gt;57937 -->
<g id="edge25" class="edge"><title>61403&#45;&gt;57937</title>
<path fill="none" stroke="black" d="M788.27,-402.258C819.557,-386.452 873.547,-359.176 904.752,-343.411"/>
</g>
<!-- 14831 -->
<g id="node55" class="node"><title>14831</title>
<g id="a_node55"><a xlink:title="6th_week">
<ellipse fill="#c81d25" stroke="black" cx="971.187" cy="-1298.63" rx="32.4942" ry="18"/>
<text text-anchor="middle" x="971.187" y="-1294.93" font-family="Times,serif" font-size="14.00">14831</text>
</a>
</g>
</g>
<!-- 63368&#45;&gt;14831 -->
<g id="edge45" class="edge"><title>63368&#45;&gt;14831</title>
<path fill="none" stroke="black" d="M864.496,-1231.1C888.149,-1246.07 925.988,-1270.02 949.669,-1285.01"/>
</g>
</g>
</svg>
