<?xml version="1.0" encoding="UTF-8" standalone="no"?>
<!DOCTYPE svg PUBLIC "-//W3C//DTD SVG 1.1//EN"
 "http://www.w3.org/Graphics/SVG/1.1/DTD/svg11.dtd">
<!-- Generated by graphviz version 2.38.0 (20140413.2041)
 -->
<!-- Title: %3 Pages: 1 -->
<svg width="1247pt" height="1303pt"
 viewBox="0.00 0.00 1247.00 1303.00" xmlns="http://www.w3.org/2000/svg" xmlns:xlink="http://www.w3.org/1999/xlink">
<g id="graph0" class="graph" transform="scale(1 1) rotate(0) translate(4 1299)">
<title>%3</title>
<polygon fill="white" stroke="none" points="-4,4 -4,-1299 1243,-1299 1243,4 -4,4"/>
<!-- 596 -->
<g id="node1" class="node"><title>596</title>
<g id="a_node1"><a xlink:title="3rd_week">
<ellipse fill="#ee9898" stroke="black" cx="318.778" cy="-1149.33" rx="27" ry="18"/>
<text text-anchor="middle" x="318.778" y="-1145.63" font-family="Times,serif" font-size="14.00">596</text>
</a>
</g>
</g>
<!-- 33292 -->
<g id="node21" class="node"><title>33292</title>
<g id="a_node21"><a xlink:title="3rd_week">
<ellipse fill="#ee9898" stroke="black" cx="457.846" cy="-940.137" rx="32.4942" ry="18"/>
<text text-anchor="middle" x="457.846" y="-936.437" font-family="Times,serif" font-size="14.00">33292</text>
</a>
</g>
</g>
<!-- 596&#45;&gt;33292 -->
<g id="edge47" class="edge"><title>596&#45;&gt;33292</title>
<path fill="none" stroke="black" d="M329.923,-1132.57C355.898,-1093.49 420.236,-996.712 446.453,-957.275"/>
</g>
<!-- 751 -->
<g id="node2" class="node"><title>751</title>
<g id="a_node2"><a xlink:title="3rd_week">
<ellipse fill="#ee9898" stroke="black" cx="602.808" cy="-846.803" rx="27" ry="18"/>
<text text-anchor="middle" x="602.808" y="-843.103" font-family="Times,serif" font-size="14.00">751</text>
</a>
</g>
</g>
<!-- 44747 -->
<g id="node32" class="node"><title>44747</title>
<g id="a_node32"><a xlink:title="3rd_week,6th_week,PRE">
<ellipse fill="#71a9f7" stroke="black" cx="617.389" cy="-684.102" rx="32.4948" ry="18"/>
<ellipse fill="none" stroke="black" cx="617.389" cy="-684.102" rx="36.4945" ry="22"/>
<ellipse fill="none" stroke="black" cx="617.389" cy="-684.102" rx="40.4942" ry="26"/>
<text text-anchor="middle" x="617.389" y="-680.402" font-family="Times,serif" font-size="14.00">44747</text>
</a>
</g>
</g>
<!-- 751&#45;&gt;44747 -->
<g id="edge13" class="edge"><title>751&#45;&gt;44747</title>
<path fill="none" stroke="black" d="M604.424,-828.769C607.005,-799.977 612.067,-743.491 615.045,-710.259"/>
</g>
<!-- 766 -->
<g id="node3" class="node"><title>766</title>
<g id="a_node3"><a xlink:title="3rd_week">
<ellipse fill="#ee9898" stroke="black" cx="790.173" cy="-68.2752" rx="27" ry="18"/>
<text text-anchor="middle" x="790.173" y="-64.5752" font-family="Times,serif" font-size="14.00">766</text>
</a>
</g>
</g>
<!-- 49029 -->
<g id="node37" class="node"><title>49029</title>
<g id="a_node37"><a xlink:title="3rd_week">
<ellipse fill="#ee9898" stroke="black" cx="716.475" cy="-259.273" rx="32.4942" ry="18"/>
<text text-anchor="middle" x="716.475" y="-255.573" font-family="Times,serif" font-size="14.00">49029</text>
</a>
</g>
</g>
<!-- 766&#45;&gt;49029 -->
<g id="edge48" class="edge"><title>766&#45;&gt;49029</title>
<path fill="none" stroke="black" d="M783.372,-85.9014C769.367,-122.195 737.448,-204.918 723.367,-241.411"/>
</g>
<!-- 8686 -->
<g id="node4" class="node"><title>8686</title>
<g id="a_node4"><a xlink:title="3rd_week">
<ellipse fill="#ee9898" stroke="black" cx="790.746" cy="-640.953" rx="28.6953" ry="18"/>
<text text-anchor="middle" x="790.746" y="-637.253" font-family="Times,serif" font-size="14.00">8686</text>
</a>
</g>
</g>
<!-- 8686&#45;&gt;44747 -->
<g id="edge35" class="edge"><title>8686&#45;&gt;44747</title>
<path fill="none" stroke="black" d="M764.039,-647.601C734.976,-654.834 688.27,-666.459 655.391,-674.643"/>
</g>
<!-- 10431 -->
<g id="node5" class="node"><title>10431</title>
<g id="a_node5"><a xlink:title="3rd_week">
<ellipse fill="#ee9898" stroke="black" cx="95.2112" cy="-357.176" rx="32.4942" ry="18"/>
<text text-anchor="middle" x="95.2112" y="-353.476" font-family="Times,serif" font-size="14.00">10431</text>
</a>
</g>
</g>
<!-- 54384 -->
<g id="node40" class="node"><title>54384</title>
<g id="a_node40"><a xlink:title="3rd_week">
<ellipse fill="#ee9898" stroke="black" cx="278.687" cy="-524.79" rx="32.4942" ry="18"/>
<text text-anchor="middle" x="278.687" y="-521.09" font-family="Times,serif" font-size="14.00">54384</text>
</a>
</g>
</g>
<!-- 10431&#45;&gt;54384 -->
<g id="edge41" class="edge"><title>10431&#45;&gt;54384</title>
<path fill="none" stroke="black" d="M112.143,-372.645C147.096,-404.576 226.878,-477.46 261.796,-509.36"/>
</g>
<!-- 10650 -->
<g id="node6" class="node"><title>10650</title>
<g id="a_node6"><a xlink:title="3rd_week">
<ellipse fill="#ee9898" stroke="black" cx="360.823" cy="-197.982" rx="32.4942" ry="18"/>
<text text-anchor="middle" x="360.823" y="-194.282" font-family="Times,serif" font-size="14.00">10650</text>
</a>
</g>
</g>
<!-- 60334 -->
<g id="node47" class="node"><title>60334</title>
<g id="a_node47"><a xlink:title="3rd_week">
<ellipse fill="#ee9898" stroke="black" cx="470.865" cy="-389.398" rx="32.4942" ry="18"/>
<text text-anchor="middle" x="470.865" y="-385.698" font-family="Times,serif" font-size="14.00">60334</text>
</a>
</g>
</g>
<!-- 10650&#45;&gt;60334 -->
<g id="edge19" class="edge"><title>10650&#45;&gt;60334</title>
<path fill="none" stroke="black" d="M370.783,-215.306C391.681,-251.658 439.902,-335.538 460.849,-371.975"/>
</g>
<!-- 11983 -->
<g id="node7" class="node"><title>11983</title>
<g id="a_node7"><a xlink:title="3rd_week">
<ellipse fill="#ee9898" stroke="black" cx="49.1391" cy="-427.056" rx="32.4942" ry="18"/>
<text text-anchor="middle" x="49.1391" y="-423.356" font-family="Times,serif" font-size="14.00">11983</text>
</a>
</g>
</g>
<!-- 11983&#45;&gt;54384 -->
<g id="edge46" class="edge"><title>11983&#45;&gt;54384</title>
<path fill="none" stroke="black" d="M75.025,-438.077C119.229,-456.898 208.757,-495.016 252.896,-513.809"/>
</g>
<!-- 16362 -->
<g id="node8" class="node"><title>16362</title>
<g id="a_node8"><a xlink:title="3rd_week">
<ellipse fill="#ee9898" stroke="black" cx="864.306" cy="-101.774" rx="32.4942" ry="18"/>
<text text-anchor="middle" x="864.306" y="-98.0744" font-family="Times,serif" font-size="14.00">16362</text>
</a>
</g>
</g>
<!-- 16362&#45;&gt;49029 -->
<g id="edge14" class="edge"><title>16362&#45;&gt;49029</title>
<path fill="none" stroke="black" d="M849.043,-118.036C820.714,-148.217 760.309,-212.572 731.877,-242.863"/>
</g>
<!-- 16854 -->
<g id="node9" class="node"><title>16854</title>
<g id="a_node9"><a xlink:title="6th_week">
<ellipse fill="#c81d25" stroke="black" cx="1058.88" cy="-352.22" rx="32.4942" ry="18"/>
<text text-anchor="middle" x="1058.88" y="-348.52" font-family="Times,serif" font-size="14.00">16854</text>
</a>
</g>
</g>
<!-- 50699 -->
<g id="node38" class="node"><title>50699</title>
<g id="a_node38"><a xlink:title="6th_week">
<ellipse fill="#c81d25" stroke="black" cx="876.361" cy="-484.151" rx="32.4942" ry="18"/>
<text text-anchor="middle" x="876.361" y="-480.451" font-family="Times,serif" font-size="14.00">50699</text>
</a>
</g>
</g>
<!-- 16854&#45;&gt;50699 -->
<g id="edge44" class="edge"><title>16854&#45;&gt;50699</title>
<path fill="none" stroke="black" d="M1039,-366.59C1003.89,-391.968 931.307,-444.433 896.216,-469.799"/>
</g>
<!-- 17251 -->
<g id="node10" class="node"><title>17251</title>
<g id="a_node10"><a xlink:title="3rd_week">
<ellipse fill="#ee9898" stroke="black" cx="866.556" cy="-704.057" rx="32.4942" ry="18"/>
<text text-anchor="middle" x="866.556" y="-700.357" font-family="Times,serif" font-size="14.00">17251</text>
</a>
</g>
</g>
<!-- 17251&#45;&gt;44747 -->
<g id="edge55" class="edge"><title>17251&#45;&gt;44747</title>
<path fill="none" stroke="black" d="M834.237,-701.468C789.072,-697.851 707.101,-691.286 657.908,-687.347"/>
</g>
<!-- 17526 -->
<g id="node11" class="node"><title>17526</title>
<g id="a_node11"><a xlink:title="3rd_week">
<ellipse fill="#ee9898" stroke="black" cx="392.62" cy="-680.679" rx="32.4942" ry="18"/>
<text text-anchor="middle" x="392.62" y="-676.979" font-family="Times,serif" font-size="14.00">17526</text>
</a>
</g>
</g>
<!-- 17526&#45;&gt;44747 -->
<g id="edge20" class="edge"><title>17526&#45;&gt;44747</title>
<path fill="none" stroke="black" d="M425.303,-681.177C465.361,-681.787 533.252,-682.82 576.666,-683.482"/>
</g>
<!-- 18449 -->
<g id="node12" class="node"><title>18449</title>
<g id="a_node12"><a xlink:title="3rd_week">
<ellipse fill="#ee9898" stroke="black" cx="795.823" cy="-833.953" rx="32.4942" ry="18"/>
<text text-anchor="middle" x="795.823" y="-830.253" font-family="Times,serif" font-size="14.00">18449</text>
</a>
</g>
</g>
<!-- 18449&#45;&gt;44747 -->
<g id="edge28" class="edge"><title>18449&#45;&gt;44747</title>
<path fill="none" stroke="black" d="M777.731,-818.76C745.57,-791.75 678.415,-735.352 642.052,-704.814"/>
</g>
<!-- 22351 -->
<g id="node13" class="node"><title>22351</title>
<g id="a_node13"><a xlink:title="3rd_week">
<ellipse fill="#ee9898" stroke="black" cx="446.068" cy="-799.707" rx="32.4942" ry="18"/>
<text text-anchor="middle" x="446.068" y="-796.007" font-family="Times,serif" font-size="14.00">22351</text>
</a>
</g>
</g>
<!-- 22351&#45;&gt;44747 -->
<g id="edge23" class="edge"><title>22351&#45;&gt;44747</title>
<path fill="none" stroke="black" d="M466.734,-785.762C497.348,-765.104 554.833,-726.314 589.261,-703.082"/>
</g>
<!-- 23007 -->
<g id="node14" class="node"><title>23007</title>
<g id="a_node14"><a xlink:title="3rd_week">
<ellipse fill="#ee9898" stroke="black" cx="32.6886" cy="-508.668" rx="32.4942" ry="18"/>
<text text-anchor="middle" x="32.6886" y="-504.968" font-family="Times,serif" font-size="14.00">23007</text>
</a>
</g>
</g>
<!-- 23007&#45;&gt;54384 -->
<g id="edge37" class="edge"><title>23007&#45;&gt;54384</title>
<path fill="none" stroke="black" d="M65.1016,-510.793C112.2,-513.879 199.063,-519.572 246.203,-522.662"/>
</g>
<!-- 23820 -->
<g id="node15" class="node"><title>23820</title>
<g id="a_node15"><a xlink:title="3rd_week">
<ellipse fill="#ee9898" stroke="black" cx="1206.94" cy="-786.809" rx="32.4942" ry="18"/>
<text text-anchor="middle" x="1206.94" y="-783.109" font-family="Times,serif" font-size="14.00">23820</text>
</a>
</g>
</g>
<!-- 42577 -->
<g id="node30" class="node"><title>42577</title>
<g id="a_node30"><a xlink:title="3rd_week">
<ellipse fill="#ee9898" stroke="black" cx="984.89" cy="-773.057" rx="32.4942" ry="18"/>
<text text-anchor="middle" x="984.89" y="-769.357" font-family="Times,serif" font-size="14.00">42577</text>
</a>
</g>
</g>
<!-- 23820&#45;&gt;42577 -->
<g id="edge39" class="edge"><title>23820&#45;&gt;42577</title>
<path fill="none" stroke="black" d="M1174.18,-784.78C1132.07,-782.172 1059.42,-777.673 1017.43,-775.072"/>
</g>
<!-- 24128 -->
<g id="node16" class="node"><title>24128</title>
<g id="a_node16"><a xlink:title="3rd_week">
<ellipse fill="#ee9898" stroke="black" cx="158.123" cy="-1000.18" rx="32.4942" ry="18"/>
<text text-anchor="middle" x="158.123" y="-996.482" font-family="Times,serif" font-size="14.00">24128</text>
</a>
</g>
</g>
<!-- 37512 -->
<g id="node28" class="node"><title>37512</title>
<g id="a_node28"><a xlink:title="6th_week">
<ellipse fill="#c81d25" stroke="black" cx="369.06" cy="-853.892" rx="32.4942" ry="18"/>
<text text-anchor="middle" x="369.06" y="-850.192" font-family="Times,serif" font-size="14.00">37512</text>
</a>
</g>
</g>
<!-- 24128&#45;&gt;37512 -->
<g id="edge9" class="edge"><title>24128&#45;&gt;37512</title>
<path fill="none" stroke="black" d="M178.732,-985.889C219.162,-957.85 308.431,-895.94 348.677,-868.028"/>
</g>
<!-- 27579 -->
<g id="node17" class="node"><title>27579</title>
<g id="a_node17"><a xlink:title="3rd_week">
<ellipse fill="#ee9898" stroke="black" cx="937.743" cy="-605.959" rx="32.4942" ry="18"/>
<text text-anchor="middle" x="937.743" y="-602.259" font-family="Times,serif" font-size="14.00">27579</text>
</a>
</g>
</g>
<!-- 27579&#45;&gt;44747 -->
<g id="edge7" class="edge"><title>27579&#45;&gt;44747</title>
<path fill="none" stroke="black" d="M907.892,-613.241C849.412,-627.506 719.851,-659.109 655.371,-674.837"/>
</g>
<!-- 68330 -->
<g id="node53" class="node"><title>68330</title>
<g id="a_node53"><a xlink:title="3rd_week">
<ellipse fill="#ee9898" stroke="black" cx="1155.33" cy="-550.494" rx="32.4942" ry="18"/>
<text text-anchor="middle" x="1155.33" y="-546.794" font-family="Times,serif" font-size="14.00">68330</text>
</a>
</g>
</g>
<!-- 27579&#45;&gt;68330 -->
<g id="edge10" class="edge"><title>27579&#45;&gt;68330</title>
<path fill="none" stroke="black" d="M967.541,-598.364C1009.09,-587.772 1083.99,-568.678 1125.54,-558.087"/>
</g>
<!-- 30086 -->
<g id="node18" class="node"><title>30086</title>
<g id="a_node18"><a xlink:title="3rd_week">
<ellipse fill="#ee9898" stroke="black" cx="430.233" cy="-735.545" rx="32.4942" ry="18"/>
<text text-anchor="middle" x="430.233" y="-731.845" font-family="Times,serif" font-size="14.00">30086</text>
</a>
</g>
</g>
<!-- 30086&#45;&gt;44747 -->
<g id="edge36" class="edge"><title>30086&#45;&gt;44747</title>
<path fill="none" stroke="black" d="M459.476,-727.507C491.964,-718.578 544.502,-704.136 579.965,-694.388"/>
</g>
<!-- 30613 -->
<g id="node19" class="node"><title>30613</title>
<g id="a_node19"><a xlink:title="3rd_week">
<ellipse fill="#ee9898" stroke="black" cx="606.903" cy="-1023.59" rx="32.4942" ry="18"/>
<text text-anchor="middle" x="606.903" y="-1019.89" font-family="Times,serif" font-size="14.00">30613</text>
</a>
</g>
</g>
<!-- 34292 -->
<g id="node23" class="node"><title>34292</title>
<g id="a_node23"><a xlink:title="3rd_week">
<ellipse fill="#ee9898" stroke="black" cx="633.834" cy="-1276.71" rx="32.4942" ry="18"/>
<text text-anchor="middle" x="633.834" y="-1273.01" font-family="Times,serif" font-size="14.00">34292</text>
</a>
</g>
</g>
<!-- 30613&#45;&gt;34292 -->
<g id="edge26" class="edge"><title>30613&#45;&gt;34292</title>
<path fill="none" stroke="black" d="M608.84,-1041.8C613.809,-1088.5 626.965,-1212.15 631.915,-1258.67"/>
</g>
<!-- 30613&#45;&gt;44747 -->
<g id="edge18" class="edge"><title>30613&#45;&gt;44747</title>
<path fill="none" stroke="black" d="M607.467,-1005.34C609.211,-948.873 614.524,-776.847 616.572,-710.547"/>
</g>
<!-- 58532 -->
<g id="node44" class="node"><title>58532</title>
<g id="a_node44"><a xlink:title="3rd_week">
<ellipse fill="#ee9898" stroke="black" cx="540.506" cy="-1271.57" rx="32.4942" ry="18"/>
<text text-anchor="middle" x="540.506" y="-1267.87" font-family="Times,serif" font-size="14.00">58532</text>
</a>
</g>
</g>
<!-- 30613&#45;&gt;58532 -->
<g id="edge32" class="edge"><title>30613&#45;&gt;58532</title>
<path fill="none" stroke="black" d="M602.128,-1041.43C589.907,-1087.07 557.598,-1207.73 545.327,-1253.56"/>
</g>
<!-- 33286 -->
<g id="node20" class="node"><title>33286</title>
<g id="a_node20"><a xlink:title="3rd_week">
<ellipse fill="#ee9898" stroke="black" cx="543.773" cy="-475.647" rx="32.4942" ry="18"/>
<text text-anchor="middle" x="543.773" y="-471.947" font-family="Times,serif" font-size="14.00">33286</text>
</a>
</g>
</g>
<!-- 33286&#45;&gt;44747 -->
<g id="edge53" class="edge"><title>33286&#45;&gt;44747</title>
<path fill="none" stroke="black" d="M550.049,-493.42C563.123,-530.44 593.311,-615.923 608.427,-658.723"/>
</g>
<!-- 33292&#45;&gt;44747 -->
<g id="edge34" class="edge"><title>33292&#45;&gt;44747</title>
<path fill="none" stroke="black" d="M468.562,-922.941C496.229,-878.54 570.128,-759.947 602.193,-708.488"/>
</g>
<!-- 34149 -->
<g id="node22" class="node"><title>34149</title>
<g id="a_node22"><a xlink:title="3rd_week">
<ellipse fill="#ee9898" stroke="black" cx="72.4361" cy="-799.447" rx="32.4942" ry="18"/>
<text text-anchor="middle" x="72.4361" y="-795.747" font-family="Times,serif" font-size="14.00">34149</text>
</a>
</g>
</g>
<!-- 60834 -->
<g id="node48" class="node"><title>60834</title>
<g id="a_node48"><a xlink:title="3rd_week">
<ellipse fill="#ee9898" stroke="black" cx="321.67" cy="-741.601" rx="32.4942" ry="18"/>
<text text-anchor="middle" x="321.67" y="-737.901" font-family="Times,serif" font-size="14.00">60834</text>
</a>
</g>
</g>
<!-- 34149&#45;&gt;60834 -->
<g id="edge21" class="edge"><title>34149&#45;&gt;60834</title>
<path fill="none" stroke="black" d="M102.5,-792.47C150.403,-781.351 243.529,-759.737 291.5,-748.603"/>
</g>
<!-- 34309 -->
<g id="node24" class="node"><title>34309</title>
<g id="a_node24"><a xlink:title="3rd_week">
<ellipse fill="#ee9898" stroke="black" cx="551.008" cy="-900.875" rx="32.4942" ry="18"/>
<text text-anchor="middle" x="551.008" y="-897.175" font-family="Times,serif" font-size="14.00">34309</text>
</a>
</g>
</g>
<!-- 34309&#45;&gt;44747 -->
<g id="edge29" class="edge"><title>34309&#45;&gt;44747</title>
<path fill="none" stroke="black" d="M556.554,-882.766C568.332,-844.302 595.878,-754.349 609.49,-709.898"/>
</g>
<!-- 34392 -->
<g id="node25" class="node"><title>34392</title>
<g id="a_node25"><a xlink:title="3rd_week">
<ellipse fill="#ee9898" stroke="black" cx="860.719" cy="-890.391" rx="32.4942" ry="18"/>
<text text-anchor="middle" x="860.719" y="-886.691" font-family="Times,serif" font-size="14.00">34392</text>
</a>
</g>
</g>
<!-- 34392&#45;&gt;44747 -->
<g id="edge31" class="edge"><title>34392&#45;&gt;44747</title>
<path fill="none" stroke="black" d="M842.826,-875.222C799.912,-838.841 691.069,-746.566 642.02,-704.983"/>
</g>
<!-- 49560 -->
<g id="node56" class="node"><title>49560</title>
<g id="a_node56"><a xlink:title="3rd_week">
<ellipse fill="#ee9898" stroke="black" cx="1043.14" cy="-1068.33" rx="32.4942" ry="18"/>
<text text-anchor="middle" x="1043.14" y="-1064.63" font-family="Times,serif" font-size="14.00">49560</text>
</a>
</g>
</g>
<!-- 34392&#45;&gt;49560 -->
<g id="edge15" class="edge"><title>34392&#45;&gt;49560</title>
<path fill="none" stroke="black" d="M876.907,-906.182C911.525,-939.949 992.402,-1018.84 1026.99,-1052.58"/>
</g>
<!-- 34397 -->
<g id="node26" class="node"><title>34397</title>
<g id="a_node26"><a xlink:title="3rd_week">
<ellipse fill="#ee9898" stroke="black" cx="408.971" cy="-623.599" rx="32.4942" ry="18"/>
<text text-anchor="middle" x="408.971" y="-619.899" font-family="Times,serif" font-size="14.00">34397</text>
</a>
</g>
</g>
<!-- 34397&#45;&gt;44747 -->
<g id="edge38" class="edge"><title>34397&#45;&gt;44747</title>
<path fill="none" stroke="black" d="M437.951,-632.011C475.085,-642.791 539.509,-661.494 580.218,-673.311"/>
</g>
<!-- 34758 -->
<g id="node27" class="node"><title>34758</title>
<g id="a_node27"><a xlink:title="6th_week">
<ellipse fill="#c81d25" stroke="black" cx="641.508" cy="-488.359" rx="32.4942" ry="18"/>
<text text-anchor="middle" x="641.508" y="-484.659" font-family="Times,serif" font-size="14.00">34758</text>
</a>
</g>
</g>
<!-- 34758&#45;&gt;44747 -->
<g id="edge50" class="edge"><title>34758&#45;&gt;44747</title>
<path fill="none" stroke="black" d="M639.282,-506.424C634.99,-541.252 625.558,-617.804 620.592,-658.109"/>
</g>
<!-- 37512&#45;&gt;44747 -->
<g id="edge27" class="edge"><title>37512&#45;&gt;44747</title>
<path fill="none" stroke="black" d="M389.805,-839.708C434.335,-809.262 539.104,-737.628 589.436,-703.214"/>
</g>
<!-- 41457 -->
<g id="node29" class="node"><title>41457</title>
<g id="a_node29"><a xlink:title="3rd_week">
<ellipse fill="#ee9898" stroke="black" cx="493.243" cy="-850.06" rx="32.4942" ry="18"/>
<text text-anchor="middle" x="493.243" y="-846.36" font-family="Times,serif" font-size="14.00">41457</text>
</a>
</g>
</g>
<!-- 41457&#45;&gt;44747 -->
<g id="edge3" class="edge"><title>41457&#45;&gt;44747</title>
<path fill="none" stroke="black" d="M505.83,-833.234C528.083,-803.485 574.416,-741.548 599.809,-707.602"/>
</g>
<!-- 42577&#45;&gt;44747 -->
<g id="edge49" class="edge"><title>42577&#45;&gt;44747</title>
<path fill="none" stroke="black" d="M954.815,-765.777C888.302,-749.677 728.821,-711.074 655.474,-693.32"/>
</g>
<!-- 50691 -->
<g id="node55" class="node"><title>50691</title>
<g id="a_node55"><a xlink:title="3rd_week">
<ellipse fill="#ee9898" stroke="black" cx="1180.83" cy="-870.83" rx="32.4942" ry="18"/>
<text text-anchor="middle" x="1180.83" y="-867.13" font-family="Times,serif" font-size="14.00">50691</text>
</a>
</g>
</g>
<!-- 42577&#45;&gt;50691 -->
<g id="edge30" class="edge"><title>42577&#45;&gt;50691</title>
<path fill="none" stroke="black" d="M1009.31,-785.242C1046.96,-804.029 1118.76,-839.858 1156.41,-858.645"/>
</g>
<!-- 43676 -->
<g id="node31" class="node"><title>43676</title>
<g id="a_node31"><a xlink:title="3rd_week">
<ellipse fill="#ee9898" stroke="black" cx="415.415" cy="-559.086" rx="32.4942" ry="18"/>
<text text-anchor="middle" x="415.415" y="-555.386" font-family="Times,serif" font-size="14.00">43676</text>
</a>
</g>
</g>
<!-- 43676&#45;&gt;44747 -->
<g id="edge25" class="edge"><title>43676&#45;&gt;44747</title>
<path fill="none" stroke="black" d="M437.414,-572.702C473.914,-595.295 547.014,-640.541 587.928,-665.866"/>
</g>
<!-- 46365 -->
<g id="node33" class="node"><title>46365</title>
<g id="a_node33"><a xlink:title="3rd_week">
<ellipse fill="#ee9898" stroke="black" cx="679.336" cy="-436.134" rx="32.4942" ry="18"/>
<text text-anchor="middle" x="679.336" y="-432.434" font-family="Times,serif" font-size="14.00">46365</text>
</a>
</g>
</g>
<!-- 44747&#45;&gt;46365 -->
<g id="edge16" class="edge"><title>44747&#45;&gt;46365</title>
<path fill="none" stroke="black" d="M623.901,-658.033C636.513,-607.549 663.981,-497.6 674.813,-454.238"/>
</g>
<!-- 48120 -->
<g id="node34" class="node"><title>48120</title>
<g id="a_node34"><a xlink:title="3rd_week">
<ellipse fill="#ee9898" stroke="black" cx="754.119" cy="-961.046" rx="32.4942" ry="18"/>
<text text-anchor="middle" x="754.119" y="-957.346" font-family="Times,serif" font-size="14.00">48120</text>
</a>
</g>
</g>
<!-- 44747&#45;&gt;48120 -->
<g id="edge1" class="edge"><title>44747&#45;&gt;48120</title>
<path fill="none" stroke="black" d="M629.764,-709.167C657.111,-764.557 722.113,-896.218 745.527,-943.644"/>
</g>
<!-- 48227 -->
<g id="node35" class="node"><title>48227</title>
<g id="a_node35"><a xlink:title="3rd_week">
<ellipse fill="#ee9898" stroke="black" cx="841.062" cy="-574.617" rx="32.4942" ry="18"/>
<text text-anchor="middle" x="841.062" y="-570.917" font-family="Times,serif" font-size="14.00">48227</text>
</a>
</g>
</g>
<!-- 44747&#45;&gt;48227 -->
<g id="edge42" class="edge"><title>44747&#45;&gt;48227</title>
<path fill="none" stroke="black" d="M649.913,-668.182C695.107,-646.06 775.901,-606.512 816.439,-586.669"/>
</g>
<!-- 48294 -->
<g id="node36" class="node"><title>48294</title>
<g id="a_node36"><a xlink:title="3rd_week">
<ellipse fill="#ee9898" stroke="black" cx="853.082" cy="-770.129" rx="32.4942" ry="18"/>
<text text-anchor="middle" x="853.082" y="-766.429" font-family="Times,serif" font-size="14.00">48294</text>
</a>
</g>
</g>
<!-- 44747&#45;&gt;48294 -->
<g id="edge11" class="edge"><title>44747&#45;&gt;48294</title>
<path fill="none" stroke="black" d="M652.675,-696.981C699.933,-714.23 782.788,-744.472 825.656,-760.119"/>
</g>
<!-- 44747&#45;&gt;49029 -->
<g id="edge51" class="edge"><title>44747&#45;&gt;49029</title>
<path fill="none" stroke="black" d="M623.438,-658.166C641.8,-579.441 696.594,-344.513 712.252,-277.375"/>
</g>
<!-- 44747&#45;&gt;50699 -->
<g id="edge43" class="edge"><title>44747&#45;&gt;50699</title>
<path fill="none" stroke="black" d="M643.646,-663.829C695.853,-623.52 811.594,-534.157 857.28,-498.883"/>
</g>
<!-- 44747&#45;&gt;54384 -->
<g id="edge33" class="edge"><title>44747&#45;&gt;54384</title>
<path fill="none" stroke="black" d="M584.605,-668.681C517.036,-636.9 363.581,-564.721 303.483,-536.453"/>
</g>
<!-- 55132 -->
<g id="node41" class="node"><title>55132</title>
<g id="a_node41"><a xlink:title="3rd_week">
<ellipse fill="#ee9898" stroke="black" cx="708.924" cy="-883.614" rx="32.4942" ry="18"/>
<text text-anchor="middle" x="708.924" y="-879.914" font-family="Times,serif" font-size="14.00">55132</text>
</a>
</g>
</g>
<!-- 44747&#45;&gt;55132 -->
<g id="edge6" class="edge"><title>44747&#45;&gt;55132</title>
<path fill="none" stroke="black" d="M628.982,-709.37C647.84,-750.473 684.682,-830.775 700.916,-866.159"/>
</g>
<!-- 58602 -->
<g id="node45" class="node"><title>58602</title>
<g id="a_node45"><a xlink:title="6th_week">
<ellipse fill="#c81d25" stroke="black" cx="603.34" cy="-423.304" rx="32.4942" ry="18"/>
<text text-anchor="middle" x="603.34" y="-419.604" font-family="Times,serif" font-size="14.00">58602</text>
</a>
</g>
</g>
<!-- 44747&#45;&gt;58602 -->
<g id="edge2" class="edge"><title>44747&#45;&gt;58602</title>
<path fill="none" stroke="black" d="M615.965,-657.66C613.111,-604.696 606.76,-486.802 604.32,-441.511"/>
</g>
<!-- 58776 -->
<g id="node46" class="node"><title>58776</title>
<g id="a_node46"><a xlink:title="3rd_week">
<ellipse fill="#ee9898" stroke="black" cx="459.587" cy="-496.023" rx="32.4942" ry="18"/>
<text text-anchor="middle" x="459.587" y="-492.323" font-family="Times,serif" font-size="14.00">58776</text>
</a>
</g>
</g>
<!-- 44747&#45;&gt;58776 -->
<g id="edge54" class="edge"><title>44747&#45;&gt;58776</title>
<path fill="none" stroke="black" d="M598.039,-661.04C565.695,-622.49 501.431,-545.896 473.306,-512.375"/>
</g>
<!-- 44747&#45;&gt;60334 -->
<g id="edge52" class="edge"><title>44747&#45;&gt;60334</title>
<path fill="none" stroke="black" d="M605.023,-659.229C576.045,-600.947 504.333,-456.712 479.496,-406.759"/>
</g>
<!-- 44747&#45;&gt;60834 -->
<g id="edge5" class="edge"><title>44747&#45;&gt;60834</title>
<path fill="none" stroke="black" d="M578.425,-691.678C518.984,-703.235 406.855,-725.037 352.612,-735.584"/>
</g>
<!-- 61591 -->
<g id="node49" class="node"><title>61591</title>
<g id="a_node49"><a xlink:title="3rd_week">
<ellipse fill="#ee9898" stroke="black" cx="761.152" cy="-537.16" rx="32.4942" ry="18"/>
<text text-anchor="middle" x="761.152" y="-533.46" font-family="Times,serif" font-size="14.00">61591</text>
</a>
</g>
</g>
<!-- 44747&#45;&gt;61591 -->
<g id="edge4" class="edge"><title>44747&#45;&gt;61591</title>
<path fill="none" stroke="black" d="M639.224,-661.784C668.444,-631.918 719.569,-579.663 745.343,-553.319"/>
</g>
<!-- 64877 -->
<g id="node50" class="node"><title>64877</title>
<g id="a_node50"><a xlink:title="3rd_week">
<ellipse fill="#ee9898" stroke="black" cx="635.498" cy="-914.606" rx="32.4942" ry="18"/>
<text text-anchor="middle" x="635.498" y="-910.906" font-family="Times,serif" font-size="14.00">64877</text>
</a>
</g>
</g>
<!-- 44747&#45;&gt;64877 -->
<g id="edge45" class="edge"><title>44747&#45;&gt;64877</title>
<path fill="none" stroke="black" d="M619.431,-710.095C623.14,-757.309 630.895,-856.015 634.083,-896.595"/>
</g>
<!-- 67025 -->
<g id="node51" class="node"><title>67025</title>
<g id="a_node51"><a xlink:title="3rd_week">
<ellipse fill="#ee9898" stroke="black" cx="777.812" cy="-489.521" rx="32.4942" ry="18"/>
<text text-anchor="middle" x="777.812" y="-485.821" font-family="Times,serif" font-size="14.00">67025</text>
</a>
</g>
</g>
<!-- 44747&#45;&gt;67025 -->
<g id="edge40" class="edge"><title>44747&#45;&gt;67025</title>
<path fill="none" stroke="black" d="M636.422,-661.017C669.205,-621.252 735.559,-540.771 764.172,-506.065"/>
</g>
<!-- 67861 -->
<g id="node52" class="node"><title>67861</title>
<g id="a_node52"><a xlink:title="3rd_week">
<ellipse fill="#ee9898" stroke="black" cx="489.689" cy="-559.986" rx="32.4942" ry="18"/>
<text text-anchor="middle" x="489.689" y="-556.286" font-family="Times,serif" font-size="14.00">67861</text>
</a>
</g>
</g>
<!-- 44747&#45;&gt;67861 -->
<g id="edge17" class="edge"><title>44747&#45;&gt;67861</title>
<path fill="none" stroke="black" d="M594.853,-662.198C569.363,-637.423 528.477,-597.686 505.929,-575.77"/>
</g>
<!-- 48670 -->
<g id="node54" class="node"><title>48670</title>
<g id="a_node54"><a xlink:title="3rd_week">
<ellipse fill="#ee9898" stroke="black" cx="768.401" cy="-783.051" rx="32.4942" ry="18"/>
<text text-anchor="middle" x="768.401" y="-779.351" font-family="Times,serif" font-size="14.00">48670</text>
</a>
</g>
</g>
<!-- 44747&#45;&gt;48670 -->
<g id="edge24" class="edge"><title>44747&#45;&gt;48670</title>
<path fill="none" stroke="black" d="M645.793,-702.713C675.355,-722.083 720.955,-751.962 747.416,-769.301"/>
</g>
<!-- 56117 -->
<g id="node42" class="node"><title>56117</title>
<g id="a_node42"><a xlink:title="3rd_week">
<ellipse fill="#ee9898" stroke="black" cx="861.309" cy="-1193.67" rx="32.4942" ry="18"/>
<text text-anchor="middle" x="861.309" y="-1189.97" font-family="Times,serif" font-size="14.00">56117</text>
</a>
</g>
</g>
<!-- 48120&#45;&gt;56117 -->
<g id="edge12" class="edge"><title>48120&#45;&gt;56117</title>
<path fill="none" stroke="black" d="M762.176,-978.531C782.041,-1021.64 833.197,-1132.66 853.159,-1175.98"/>
</g>
<!-- 53319 -->
<g id="node39" class="node"><title>53319</title>
<g id="a_node39"><a xlink:title="3rd_week">
<ellipse fill="#ee9898" stroke="black" cx="650.559" cy="-53.5864" rx="32.4942" ry="18"/>
<text text-anchor="middle" x="650.559" y="-49.8864" font-family="Times,serif" font-size="14.00">53319</text>
</a>
</g>
</g>
<!-- 49029&#45;&gt;53319 -->
<g id="edge22" class="edge"><title>49029&#45;&gt;53319</title>
<path fill="none" stroke="black" d="M710.74,-241.379C698.274,-202.479 668.823,-110.58 656.327,-71.585"/>
</g>
<!-- 58040 -->
<g id="node43" class="node"><title>58040</title>
<g id="a_node43"><a xlink:title="3rd_week">
<ellipse fill="#ee9898" stroke="black" cx="733.571" cy="-17.9452" rx="32.4942" ry="18"/>
<text text-anchor="middle" x="733.571" y="-14.2452" font-family="Times,serif" font-size="14.00">58040</text>
</a>
</g>
</g>
<!-- 49029&#45;&gt;58040 -->
<g id="edge8" class="edge"><title>49029&#45;&gt;58040</title>
<path fill="none" stroke="black" d="M717.76,-241.134C720.936,-196.301 729.127,-80.673 732.295,-35.9653"/>
</g>
</g>
</svg>
