<?xml version="1.0" encoding="UTF-8" standalone="no"?>
<!DOCTYPE svg PUBLIC "-//W3C//DTD SVG 1.1//EN"
 "http://www.w3.org/Graphics/SVG/1.1/DTD/svg11.dtd">
<!-- Generated by graphviz version 2.38.0 (20140413.2041)
 -->
<!-- Title: %3 Pages: 1 -->
<svg width="2666pt" height="2058pt"
 viewBox="0.00 0.00 2666.00 2058.00" xmlns="http://www.w3.org/2000/svg" xmlns:xlink="http://www.w3.org/1999/xlink">
<g id="graph0" class="graph" transform="scale(1 1) rotate(0) translate(4 2054)">
<title>%3</title>
<polygon fill="white" stroke="none" points="-4,4 -4,-2054 2662,-2054 2662,4 -4,4"/>
<!-- 479 -->
<g id="node1" class="node"><title>479</title>
<g id="a_node1"><a xlink:title="6th_week">
<ellipse fill="#c81d25" stroke="black" cx="405.651" cy="-883.981" rx="27" ry="18"/>
<text text-anchor="middle" x="405.651" y="-880.281" font-family="Times,serif" font-size="14.00">479</text>
</a>
</g>
</g>
<!-- 480 -->
<g id="node2" class="node"><title>480</title>
<g id="a_node2"><a xlink:title="6th_week">
<ellipse fill="#c81d25" stroke="black" cx="217.097" cy="-822.422" rx="27" ry="18"/>
<text text-anchor="middle" x="217.097" y="-818.722" font-family="Times,serif" font-size="14.00">480</text>
</a>
</g>
</g>
<!-- 479&#45;&gt;480 -->
<g id="edge19" class="edge"><title>479&#45;&gt;480</title>
<path fill="none" stroke="black" d="M381.386,-876.059C345.281,-864.272 277.79,-842.237 241.566,-830.411"/>
</g>
<!-- 13039 -->
<g id="node24" class="node"><title>13039</title>
<g id="a_node24"><a xlink:title="6th_week">
<ellipse fill="#c81d25" stroke="black" cx="202.89" cy="-906.874" rx="32.4942" ry="18"/>
<text text-anchor="middle" x="202.89" y="-903.174" font-family="Times,serif" font-size="14.00">13039</text>
</a>
</g>
</g>
<!-- 479&#45;&gt;13039 -->
<g id="edge57" class="edge"><title>479&#45;&gt;13039</title>
<path fill="none" stroke="black" d="M378.726,-887.021C341.561,-891.217 274.644,-898.773 234.946,-903.255"/>
</g>
<!-- 30574 -->
<g id="node70" class="node"><title>30574</title>
<g id="a_node70"><a xlink:title="6th_week">
<ellipse fill="#c81d25" stroke="black" cx="675.717" cy="-902.465" rx="32.4942" ry="18"/>
<text text-anchor="middle" x="675.717" y="-898.765" font-family="Times,serif" font-size="14.00">30574</text>
</a>
</g>
</g>
<!-- 479&#45;&gt;30574 -->
<g id="edge49" class="edge"><title>479&#45;&gt;30574</title>
<path fill="none" stroke="black" d="M432.533,-885.821C482.431,-889.236 589.191,-896.543 643.116,-900.234"/>
</g>
<!-- 855 -->
<g id="node3" class="node"><title>855</title>
<g id="a_node3"><a xlink:title="6th_week">
<ellipse fill="#c81d25" stroke="black" cx="712.875" cy="-1335.91" rx="27" ry="18"/>
<text text-anchor="middle" x="712.875" y="-1332.21" font-family="Times,serif" font-size="14.00">855</text>
</a>
</g>
</g>
<!-- 8147 -->
<g id="node14" class="node"><title>8147</title>
<g id="a_node14"><a xlink:title="6th_week">
<ellipse fill="#c81d25" stroke="black" cx="548.644" cy="-1431.46" rx="28.6953" ry="18"/>
<text text-anchor="middle" x="548.644" y="-1427.76" font-family="Times,serif" font-size="14.00">8147</text>
</a>
</g>
</g>
<!-- 855&#45;&gt;8147 -->
<g id="edge48" class="edge"><title>855&#45;&gt;8147</title>
<path fill="none" stroke="black" d="M692.407,-1347.82C661.108,-1366.02 601.65,-1400.62 569.89,-1419.09"/>
</g>
<!-- 9244 -->
<g id="node16" class="node"><title>9244</title>
<g id="a_node16"><a xlink:title="6th_week">
<ellipse fill="#c81d25" stroke="black" cx="592.047" cy="-1480.3" rx="28.6953" ry="18"/>
<text text-anchor="middle" x="592.047" y="-1476.6" font-family="Times,serif" font-size="14.00">9244</text>
</a>
</g>
</g>
<!-- 855&#45;&gt;9244 -->
<g id="edge27" class="edge"><title>855&#45;&gt;9244</title>
<path fill="none" stroke="black" d="M699.714,-1351.63C676.594,-1379.26 628.927,-1436.22 605.56,-1464.15"/>
</g>
<!-- 21099 -->
<g id="node46" class="node"><title>21099</title>
<g id="a_node46"><a xlink:title="6th_week">
<ellipse fill="#c81d25" stroke="black" cx="520.442" cy="-1374.52" rx="32.4942" ry="18"/>
<text text-anchor="middle" x="520.442" y="-1370.82" font-family="Times,serif" font-size="14.00">21099</text>
</a>
</g>
</g>
<!-- 855&#45;&gt;21099 -->
<g id="edge66" class="edge"><title>855&#45;&gt;21099</title>
<path fill="none" stroke="black" d="M686.923,-1341.11C651.632,-1348.2 588.611,-1360.84 551.053,-1368.38"/>
</g>
<!-- 22378 -->
<g id="node49" class="node"><title>22378</title>
<g id="a_node49"><a xlink:title="6th_week">
<ellipse fill="#c81d25" stroke="black" cx="1007.99" cy="-1230.44" rx="32.4942" ry="18"/>
<text text-anchor="middle" x="1007.99" y="-1226.74" font-family="Times,serif" font-size="14.00">22378</text>
</a>
</g>
</g>
<!-- 855&#45;&gt;22378 -->
<g id="edge52" class="edge"><title>855&#45;&gt;22378</title>
<path fill="none" stroke="black" d="M737.026,-1327.28C791.402,-1307.84 923.154,-1260.76 980.529,-1240.25"/>
</g>
<!-- 23939 -->
<g id="node53" class="node"><title>23939</title>
<g id="a_node53"><a xlink:title="6th_week">
<ellipse fill="#c81d25" stroke="black" cx="533.165" cy="-1304.19" rx="32.4942" ry="18"/>
<text text-anchor="middle" x="533.165" y="-1300.49" font-family="Times,serif" font-size="14.00">23939</text>
</a>
</g>
</g>
<!-- 855&#45;&gt;23939 -->
<g id="edge55" class="edge"><title>855&#45;&gt;23939</title>
<path fill="none" stroke="black" d="M686.744,-1331.3C654.23,-1325.56 598.78,-1315.77 564.156,-1309.66"/>
</g>
<!-- 2528 -->
<g id="node4" class="node"><title>2528</title>
<g id="a_node4"><a xlink:title="3rd_week">
<ellipse fill="#ee9898" stroke="black" cx="1370.92" cy="-1574.98" rx="28.6953" ry="18"/>
<text text-anchor="middle" x="1370.92" y="-1571.28" font-family="Times,serif" font-size="14.00">2528</text>
</a>
</g>
</g>
<!-- 11199 -->
<g id="node21" class="node"><title>11199</title>
<g id="a_node21"><a xlink:title="3rd_week,6th_week">
<ellipse fill="#ee9898" stroke="black" cx="1498.38" cy="-1452.22" rx="32.4945" ry="18"/>
<ellipse fill="none" stroke="black" cx="1498.38" cy="-1452.22" rx="36.4942" ry="22"/>
<text text-anchor="middle" x="1498.38" y="-1448.52" font-family="Times,serif" font-size="14.00">11199</text>
</a>
</g>
</g>
<!-- 2528&#45;&gt;11199 -->
<g id="edge12" class="edge"><title>2528&#45;&gt;11199</title>
<path fill="none" stroke="black" d="M1386.8,-1559.68C1410.16,-1537.18 1453.72,-1495.23 1478.95,-1470.93"/>
</g>
<!-- 2553 -->
<g id="node5" class="node"><title>2553</title>
<g id="a_node5"><a xlink:title="3rd_week">
<ellipse fill="#ee9898" stroke="black" cx="1923.77" cy="-1677.57" rx="28.6953" ry="18"/>
<text text-anchor="middle" x="1923.77" y="-1673.87" font-family="Times,serif" font-size="14.00">2553</text>
</a>
</g>
</g>
<!-- 9425 -->
<g id="node18" class="node"><title>9425</title>
<g id="a_node18"><a xlink:title="3rd_week">
<ellipse fill="#ee9898" stroke="black" cx="1739.13" cy="-1574.96" rx="28.6953" ry="18"/>
<text text-anchor="middle" x="1739.13" y="-1571.26" font-family="Times,serif" font-size="14.00">9425</text>
</a>
</g>
</g>
<!-- 2553&#45;&gt;9425 -->
<g id="edge8" class="edge"><title>2553&#45;&gt;9425</title>
<path fill="none" stroke="black" d="M1902.23,-1665.6C1866.75,-1645.88 1796.4,-1606.78 1760.82,-1587.01"/>
</g>
<!-- 3948 -->
<g id="node6" class="node"><title>3948</title>
<g id="a_node6"><a xlink:title="6th_week">
<ellipse fill="#c81d25" stroke="black" cx="511.992" cy="-626.488" rx="28.6953" ry="18"/>
<text text-anchor="middle" x="511.992" y="-622.788" font-family="Times,serif" font-size="14.00">3948</text>
</a>
</g>
</g>
<!-- 17064 -->
<g id="node30" class="node"><title>17064</title>
<g id="a_node30"><a xlink:title="6th_week">
<ellipse fill="#c81d25" stroke="black" cx="340.61" cy="-398.689" rx="32.4942" ry="18"/>
<text text-anchor="middle" x="340.61" y="-394.989" font-family="Times,serif" font-size="14.00">17064</text>
</a>
</g>
</g>
<!-- 3948&#45;&gt;17064 -->
<g id="edge63" class="edge"><title>3948&#45;&gt;17064</title>
<path fill="none" stroke="black" d="M499.667,-610.105C468.199,-568.279 385.133,-457.869 353.286,-415.538"/>
</g>
<!-- 17812 -->
<g id="node33" class="node"><title>17812</title>
<g id="a_node33"><a xlink:title="6th_week">
<ellipse fill="#c81d25" stroke="black" cx="454.938" cy="-438.679" rx="32.4942" ry="18"/>
<text text-anchor="middle" x="454.938" y="-434.979" font-family="Times,serif" font-size="14.00">17812</text>
</a>
</g>
</g>
<!-- 3948&#45;&gt;17812 -->
<g id="edge31" class="edge"><title>3948&#45;&gt;17812</title>
<path fill="none" stroke="black" d="M506.521,-608.48C495.616,-572.582 471.284,-492.486 460.392,-456.632"/>
</g>
<!-- 3948&#45;&gt;30574 -->
<g id="edge22" class="edge"><title>3948&#45;&gt;30574</title>
<path fill="none" stroke="black" d="M522.234,-643.752C551.637,-693.313 636.081,-835.655 665.479,-885.208"/>
</g>
<!-- 4109 -->
<g id="node7" class="node"><title>4109</title>
<g id="a_node7"><a xlink:title="3rd_week">
<ellipse fill="#ee9898" stroke="black" cx="1596.92" cy="-1639.31" rx="28.6953" ry="18"/>
<text text-anchor="middle" x="1596.92" y="-1635.61" font-family="Times,serif" font-size="14.00">4109</text>
</a>
</g>
</g>
<!-- 4109&#45;&gt;11199 -->
<g id="edge71" class="edge"><title>4109&#45;&gt;11199</title>
<path fill="none" stroke="black" d="M1587.82,-1622.04C1569.72,-1587.67 1529.22,-1510.77 1509.54,-1473.41"/>
</g>
<!-- 4432 -->
<g id="node8" class="node"><title>4432</title>
<g id="a_node8"><a xlink:title="3rd_week,6th_week">
<ellipse fill="#ee9898" stroke="black" cx="1661.86" cy="-1796.68" rx="28.6832" ry="18"/>
<ellipse fill="none" stroke="black" cx="1661.86" cy="-1796.68" rx="32.6952" ry="22"/>
<text text-anchor="middle" x="1661.86" y="-1792.98" font-family="Times,serif" font-size="14.00">4432</text>
</a>
</g>
</g>
<!-- 7980 -->
<g id="node13" class="node"><title>7980</title>
<g id="a_node13"><a xlink:title="6th_week">
<ellipse fill="#c81d25" stroke="black" cx="1647.1" cy="-2007.7" rx="28.6953" ry="18"/>
<text text-anchor="middle" x="1647.1" y="-2004" font-family="Times,serif" font-size="14.00">7980</text>
</a>
</g>
</g>
<!-- 4432&#45;&gt;7980 -->
<g id="edge37" class="edge"><title>4432&#45;&gt;7980</title>
<path fill="none" stroke="black" d="M1660.31,-1818.86C1657.38,-1860.77 1651.08,-1950.82 1648.38,-1989.47"/>
</g>
<!-- 4432&#45;&gt;11199 -->
<g id="edge16" class="edge"><title>4432&#45;&gt;11199</title>
<path fill="none" stroke="black" d="M1651.88,-1775.65C1622.7,-1714.15 1537.72,-1535.11 1508.44,-1473.41"/>
</g>
<!-- 16176 -->
<g id="node28" class="node"><title>16176</title>
<g id="a_node28"><a xlink:title="3rd_week">
<ellipse fill="#ee9898" stroke="black" cx="1787.9" cy="-1982.23" rx="32.4942" ry="18"/>
<text text-anchor="middle" x="1787.9" y="-1978.53" font-family="Times,serif" font-size="14.00">16176</text>
</a>
</g>
</g>
<!-- 4432&#45;&gt;16176 -->
<g id="edge62" class="edge"><title>4432&#45;&gt;16176</title>
<path fill="none" stroke="black" d="M1675.59,-1816.89C1700.6,-1853.71 1753.15,-1931.07 1776.41,-1965.31"/>
</g>
<!-- 23446 -->
<g id="node50" class="node"><title>23446</title>
<g id="a_node50"><a xlink:title="3rd_week">
<ellipse fill="#ee9898" stroke="black" cx="1721.76" cy="-2032.21" rx="32.4942" ry="18"/>
<text text-anchor="middle" x="1721.76" y="-2028.51" font-family="Times,serif" font-size="14.00">23446</text>
</a>
</g>
</g>
<!-- 4432&#45;&gt;23446 -->
<g id="edge24" class="edge"><title>4432&#45;&gt;23446</title>
<path fill="none" stroke="black" d="M1667.39,-1818.41C1679.12,-1864.53 1706.31,-1971.46 1717.17,-2014.14"/>
</g>
<!-- 25351 -->
<g id="node59" class="node"><title>25351</title>
<g id="a_node59"><a xlink:title="6th_week">
<ellipse fill="#c81d25" stroke="black" cx="1835.58" cy="-1937.09" rx="32.4942" ry="18"/>
<text text-anchor="middle" x="1835.58" y="-1933.39" font-family="Times,serif" font-size="14.00">25351</text>
</a>
</g>
</g>
<!-- 4432&#45;&gt;25351 -->
<g id="edge6" class="edge"><title>4432&#45;&gt;25351</title>
<path fill="none" stroke="black" d="M1682.82,-1813.61C1717.11,-1841.33 1784.65,-1895.92 1817.2,-1922.22"/>
</g>
<!-- 5850 -->
<g id="node9" class="node"><title>5850</title>
<g id="a_node9"><a xlink:title="3rd_week">
<ellipse fill="#ee9898" stroke="black" cx="2432.09" cy="-1630.56" rx="28.6953" ry="18"/>
<text text-anchor="middle" x="2432.09" y="-1626.86" font-family="Times,serif" font-size="14.00">5850</text>
</a>
</g>
</g>
<!-- 6665 -->
<g id="node11" class="node"><title>6665</title>
<g id="a_node11"><a xlink:title="6th_week">
<ellipse fill="#c81d25" stroke="black" cx="2194.38" cy="-1564.62" rx="28.6953" ry="18"/>
<text text-anchor="middle" x="2194.38" y="-1560.92" font-family="Times,serif" font-size="14.00">6665</text>
</a>
</g>
</g>
<!-- 5850&#45;&gt;6665 -->
<g id="edge2" class="edge"><title>5850&#45;&gt;6665</title>
<path fill="none" stroke="black" d="M2405.74,-1623.26C2360.05,-1610.58 2266.62,-1584.66 2220.84,-1571.97"/>
</g>
<!-- 26549 -->
<g id="node64" class="node"><title>26549</title>
<g id="a_node64"><a xlink:title="3rd_week">
<ellipse fill="#ee9898" stroke="black" cx="2625.38" cy="-1680.1" rx="32.4942" ry="18"/>
<text text-anchor="middle" x="2625.38" y="-1676.4" font-family="Times,serif" font-size="14.00">26549</text>
</a>
</g>
</g>
<!-- 5850&#45;&gt;26549 -->
<g id="edge35" class="edge"><title>5850&#45;&gt;26549</title>
<path fill="none" stroke="black" d="M2458.97,-1637.45C2494.96,-1646.68 2558.6,-1662.99 2595.89,-1672.54"/>
</g>
<!-- 6261 -->
<g id="node10" class="node"><title>6261</title>
<g id="a_node10"><a xlink:title="3rd_week">
<ellipse fill="#ee9898" stroke="black" cx="1647.08" cy="-1213.21" rx="28.6953" ry="18"/>
<text text-anchor="middle" x="1647.08" y="-1209.51" font-family="Times,serif" font-size="14.00">6261</text>
</a>
</g>
</g>
<!-- 6261&#45;&gt;11199 -->
<g id="edge70" class="edge"><title>6261&#45;&gt;11199</title>
<path fill="none" stroke="black" d="M1636.62,-1230.01C1610.12,-1272.62 1540.33,-1384.79 1511.32,-1431.42"/>
</g>
<!-- 27364 -->
<g id="node67" class="node"><title>27364</title>
<g id="a_node67"><a xlink:title="3rd_week">
<ellipse fill="#ee9898" stroke="black" cx="1751.11" cy="-1033.77" rx="32.4942" ry="18"/>
<text text-anchor="middle" x="1751.11" y="-1030.07" font-family="Times,serif" font-size="14.00">27364</text>
</a>
</g>
</g>
<!-- 6261&#45;&gt;27364 -->
<g id="edge43" class="edge"><title>6261&#45;&gt;27364</title>
<path fill="none" stroke="black" d="M1657.06,-1196C1676.94,-1161.7 1721.31,-1085.18 1741.17,-1050.93"/>
</g>
<!-- 15611 -->
<g id="node27" class="node"><title>15611</title>
<g id="a_node27"><a xlink:title="3rd_week">
<ellipse fill="#ee9898" stroke="black" cx="1872.88" cy="-1507.73" rx="32.4942" ry="18"/>
<text text-anchor="middle" x="1872.88" y="-1504.03" font-family="Times,serif" font-size="14.00">15611</text>
</a>
</g>
</g>
<!-- 6665&#45;&gt;15611 -->
<g id="edge73" class="edge"><title>6665&#45;&gt;15611</title>
<path fill="none" stroke="black" d="M2166.69,-1559.72C2106.98,-1549.16 1966.48,-1524.29 1903.89,-1513.22"/>
</g>
<!-- 20743 -->
<g id="node45" class="node"><title>20743</title>
<g id="a_node45"><a xlink:title="6th_week">
<ellipse fill="#c81d25" stroke="black" cx="2388.44" cy="-1519.13" rx="32.4942" ry="18"/>
<text text-anchor="middle" x="2388.44" y="-1515.43" font-family="Times,serif" font-size="14.00">20743</text>
</a>
</g>
</g>
<!-- 6665&#45;&gt;20743 -->
<g id="edge40" class="edge"><title>6665&#45;&gt;20743</title>
<path fill="none" stroke="black" d="M2221.36,-1558.3C2257.39,-1549.85 2321.03,-1534.94 2358.5,-1526.15"/>
</g>
<!-- 7199 -->
<g id="node73" class="node"><title>7199</title>
<g id="a_node73"><a xlink:title="6th_week">
<ellipse fill="#c81d25" stroke="black" cx="2361.21" cy="-1620.89" rx="28.6953" ry="18"/>
<text text-anchor="middle" x="2361.21" y="-1617.19" font-family="Times,serif" font-size="14.00">7199</text>
</a>
</g>
</g>
<!-- 6665&#45;&gt;7199 -->
<g id="edge15" class="edge"><title>6665&#45;&gt;7199</title>
<path fill="none" stroke="black" d="M2219.72,-1573.17C2251.16,-1583.78 2304.47,-1601.75 2335.9,-1612.36"/>
</g>
<!-- 7450 -->
<g id="node12" class="node"><title>7450</title>
<g id="a_node12"><a xlink:title="6th_week">
<ellipse fill="#c81d25" stroke="black" cx="903.238" cy="-1101.32" rx="28.6953" ry="18"/>
<text text-anchor="middle" x="903.238" y="-1097.62" font-family="Times,serif" font-size="14.00">7450</text>
</a>
</g>
</g>
<!-- 7450&#45;&gt;22378 -->
<g id="edge64" class="edge"><title>7450&#45;&gt;22378</title>
<path fill="none" stroke="black" d="M916.293,-1117.42C936.257,-1142.02 974.183,-1188.77 994.44,-1213.73"/>
</g>
<!-- 8462 -->
<g id="node15" class="node"><title>8462</title>
<g id="a_node15"><a xlink:title="3rd_week">
<ellipse fill="#ee9898" stroke="black" cx="1675.52" cy="-1487.75" rx="28.6953" ry="18"/>
<text text-anchor="middle" x="1675.52" y="-1484.05" font-family="Times,serif" font-size="14.00">8462</text>
</a>
</g>
</g>
<!-- 8462&#45;&gt;11199 -->
<g id="edge72" class="edge"><title>8462&#45;&gt;11199</title>
<path fill="none" stroke="black" d="M1648.23,-1482.28C1617.37,-1476.09 1567.04,-1465.99 1533.33,-1459.23"/>
</g>
<!-- 9293 -->
<g id="node17" class="node"><title>9293</title>
<g id="a_node17"><a xlink:title="6th_week">
<ellipse fill="#c81d25" stroke="black" cx="1941.05" cy="-1101.27" rx="28.6953" ry="18"/>
<text text-anchor="middle" x="1941.05" y="-1097.57" font-family="Times,serif" font-size="14.00">9293</text>
</a>
</g>
</g>
<!-- 24334 -->
<g id="node54" class="node"><title>24334</title>
<g id="a_node54"><a xlink:title="3rd_week,6th_week">
<ellipse fill="#ee9898" stroke="black" cx="1804.7" cy="-1267.53" rx="32.4945" ry="18"/>
<ellipse fill="none" stroke="black" cx="1804.7" cy="-1267.53" rx="36.4942" ry="22"/>
<text text-anchor="middle" x="1804.7" y="-1263.83" font-family="Times,serif" font-size="14.00">24334</text>
</a>
</g>
</g>
<!-- 9293&#45;&gt;24334 -->
<g id="edge26" class="edge"><title>9293&#45;&gt;24334</title>
<path fill="none" stroke="black" d="M1927.73,-1117.51C1902.6,-1148.15 1848.28,-1214.38 1821.01,-1247.63"/>
</g>
<!-- 9425&#45;&gt;11199 -->
<g id="edge14" class="edge"><title>9425&#45;&gt;11199</title>
<path fill="none" stroke="black" d="M1716.48,-1563.41C1672.23,-1540.85 1574.44,-1491 1526.29,-1466.45"/>
</g>
<!-- 9680 -->
<g id="node19" class="node"><title>9680</title>
<g id="a_node19"><a xlink:title="3rd_week">
<ellipse fill="#ee9898" stroke="black" cx="1580.91" cy="-963.416" rx="28.6953" ry="18"/>
<text text-anchor="middle" x="1580.91" y="-959.716" font-family="Times,serif" font-size="14.00">9680</text>
</a>
</g>
</g>
<!-- 26282 -->
<g id="node63" class="node"><title>26282</title>
<g id="a_node63"><a xlink:title="3rd_week">
<ellipse fill="#ee9898" stroke="black" cx="1543.44" cy="-1165.37" rx="32.4942" ry="18"/>
<text text-anchor="middle" x="1543.44" y="-1161.67" font-family="Times,serif" font-size="14.00">26282</text>
</a>
</g>
</g>
<!-- 9680&#45;&gt;26282 -->
<g id="edge3" class="edge"><title>9680&#45;&gt;26282</title>
<path fill="none" stroke="black" d="M1577.59,-981.338C1570.49,-1019.57 1553.94,-1108.75 1546.81,-1147.2"/>
</g>
<!-- 10288 -->
<g id="node20" class="node"><title>10288</title>
<g id="a_node20"><a xlink:title="3rd_week">
<ellipse fill="#ee9898" stroke="black" cx="1437.78" cy="-1301.61" rx="32.4942" ry="18"/>
<text text-anchor="middle" x="1437.78" y="-1297.91" font-family="Times,serif" font-size="14.00">10288</text>
</a>
</g>
</g>
<!-- 10288&#45;&gt;11199 -->
<g id="edge46" class="edge"><title>10288&#45;&gt;11199</title>
<path fill="none" stroke="black" d="M1444.85,-1319.18C1455.99,-1346.89 1477.62,-1400.63 1489.7,-1430.64"/>
</g>
<!-- 11200 -->
<g id="node22" class="node"><title>11200</title>
<g id="a_node22"><a xlink:title="3rd_week">
<ellipse fill="#ee9898" stroke="black" cx="1307.8" cy="-1657.2" rx="32.4942" ry="18"/>
<text text-anchor="middle" x="1307.8" y="-1653.5" font-family="Times,serif" font-size="14.00">11200</text>
</a>
</g>
</g>
<!-- 11199&#45;&gt;11200 -->
<g id="edge39" class="edge"><title>11199&#45;&gt;11200</title>
<path fill="none" stroke="black" d="M1480.45,-1471.5C1443.11,-1511.67 1357.59,-1603.65 1322.87,-1641"/>
</g>
<!-- 14064 -->
<g id="node26" class="node"><title>14064</title>
<g id="a_node26"><a xlink:title="3rd_week">
<ellipse fill="#ee9898" stroke="black" cx="1687.44" cy="-1378.83" rx="32.4942" ry="18"/>
<text text-anchor="middle" x="1687.44" y="-1375.13" font-family="Times,serif" font-size="14.00">14064</text>
</a>
</g>
</g>
<!-- 11199&#45;&gt;14064 -->
<g id="edge5" class="edge"><title>11199&#45;&gt;14064</title>
<path fill="none" stroke="black" d="M1529.18,-1440.26C1565.7,-1426.09 1625.96,-1402.7 1660.64,-1389.24"/>
</g>
<!-- 11199&#45;&gt;15611 -->
<g id="edge56" class="edge"><title>11199&#45;&gt;15611</title>
<path fill="none" stroke="black" d="M1533.95,-1457.49C1606.8,-1468.29 1771.94,-1492.77 1841.29,-1503.05"/>
</g>
<!-- 17506 -->
<g id="node31" class="node"><title>17506</title>
<g id="a_node31"><a xlink:title="3rd_week">
<ellipse fill="#ee9898" stroke="black" cx="1295.06" cy="-1533.58" rx="32.4942" ry="18"/>
<text text-anchor="middle" x="1295.06" y="-1529.88" font-family="Times,serif" font-size="14.00">17506</text>
</a>
</g>
</g>
<!-- 11199&#45;&gt;17506 -->
<g id="edge25" class="edge"><title>11199&#45;&gt;17506</title>
<path fill="none" stroke="black" d="M1467.94,-1464.4C1428.17,-1480.31 1359.18,-1507.92 1321.5,-1523"/>
</g>
<!-- 17822 -->
<g id="node34" class="node"><title>17822</title>
<g id="a_node34"><a xlink:title="3rd_week">
<ellipse fill="#ee9898" stroke="black" cx="1588.06" cy="-1585.36" rx="32.4942" ry="18"/>
<text text-anchor="middle" x="1588.06" y="-1581.66" font-family="Times,serif" font-size="14.00">17822</text>
</a>
</g>
</g>
<!-- 11199&#45;&gt;17822 -->
<g id="edge21" class="edge"><title>11199&#45;&gt;17822</title>
<path fill="none" stroke="black" d="M1512.2,-1472.73C1529.88,-1498.99 1560.2,-1544 1576.64,-1568.41"/>
</g>
<!-- 18121 -->
<g id="node35" class="node"><title>18121</title>
<g id="a_node35"><a xlink:title="3rd_week">
<ellipse fill="#ee9898" stroke="black" cx="1361.18" cy="-1289.67" rx="32.4942" ry="18"/>
<text text-anchor="middle" x="1361.18" y="-1285.97" font-family="Times,serif" font-size="14.00">18121</text>
</a>
</g>
</g>
<!-- 11199&#45;&gt;18121 -->
<g id="edge53" class="edge"><title>11199&#45;&gt;18121</title>
<path fill="none" stroke="black" d="M1481.56,-1432.29C1454.22,-1399.9 1400.67,-1336.45 1375.24,-1306.32"/>
</g>
<!-- 18841 -->
<g id="node38" class="node"><title>18841</title>
<g id="a_node38"><a xlink:title="3rd_week">
<ellipse fill="#ee9898" stroke="black" cx="1669.42" cy="-1563.52" rx="32.4942" ry="18"/>
<text text-anchor="middle" x="1669.42" y="-1559.82" font-family="Times,serif" font-size="14.00">18841</text>
</a>
</g>
</g>
<!-- 11199&#45;&gt;18841 -->
<g id="edge45" class="edge"><title>11199&#45;&gt;18841</title>
<path fill="none" stroke="black" d="M1523.25,-1468.4C1556.97,-1490.35 1616.62,-1529.16 1648.29,-1549.77"/>
</g>
<!-- 19341 -->
<g id="node40" class="node"><title>19341</title>
<g id="a_node40"><a xlink:title="3rd_week">
<ellipse fill="#ee9898" stroke="black" cx="1301.01" cy="-1410.73" rx="32.4942" ry="18"/>
<text text-anchor="middle" x="1301.01" y="-1407.03" font-family="Times,serif" font-size="14.00">19341</text>
</a>
</g>
</g>
<!-- 11199&#45;&gt;19341 -->
<g id="edge10" class="edge"><title>11199&#45;&gt;19341</title>
<path fill="none" stroke="black" d="M1463.55,-1444.9C1426.15,-1437.03 1367.29,-1424.66 1331.61,-1417.16"/>
</g>
<!-- 19848 -->
<g id="node42" class="node"><title>19848</title>
<g id="a_node42"><a xlink:title="3rd_week">
<ellipse fill="#ee9898" stroke="black" cx="1513.31" cy="-1638.09" rx="32.4942" ry="18"/>
<text text-anchor="middle" x="1513.31" y="-1634.39" font-family="Times,serif" font-size="14.00">19848</text>
</a>
</g>
</g>
<!-- 11199&#45;&gt;19848 -->
<g id="edge50" class="edge"><title>11199&#45;&gt;19848</title>
<path fill="none" stroke="black" d="M1500.15,-1474.27C1503.13,-1511.39 1509.1,-1585.65 1511.85,-1619.95"/>
</g>
<!-- 20403 -->
<g id="node43" class="node"><title>20403</title>
<g id="a_node43"><a xlink:title="3rd_week">
<ellipse fill="#ee9898" stroke="black" cx="1587.29" cy="-1280.31" rx="32.4942" ry="18"/>
<text text-anchor="middle" x="1587.29" y="-1276.61" font-family="Times,serif" font-size="14.00">20403</text>
</a>
</g>
</g>
<!-- 11199&#45;&gt;20403 -->
<g id="edge60" class="edge"><title>11199&#45;&gt;20403</title>
<path fill="none" stroke="black" d="M1509.28,-1431.14C1527.04,-1396.8 1561.88,-1329.43 1578.31,-1297.67"/>
</g>
<!-- 20688 -->
<g id="node44" class="node"><title>20688</title>
<g id="a_node44"><a xlink:title="3rd_week">
<ellipse fill="#ee9898" stroke="black" cx="1512.56" cy="-1252.29" rx="32.4942" ry="18"/>
<text text-anchor="middle" x="1512.56" y="-1248.59" font-family="Times,serif" font-size="14.00">20688</text>
</a>
</g>
</g>
<!-- 11199&#45;&gt;20688 -->
<g id="edge34" class="edge"><title>11199&#45;&gt;20688</title>
<path fill="none" stroke="black" d="M1499.95,-1430.06C1502.78,-1390.2 1508.67,-1307.17 1511.27,-1270.44"/>
</g>
<!-- 21351 -->
<g id="node47" class="node"><title>21351</title>
<g id="a_node47"><a xlink:title="3rd_week">
<ellipse fill="#ee9898" stroke="black" cx="1431.94" cy="-1619.62" rx="32.4942" ry="18"/>
<text text-anchor="middle" x="1431.94" y="-1615.92" font-family="Times,serif" font-size="14.00">21351</text>
</a>
</g>
</g>
<!-- 11199&#45;&gt;21351 -->
<g id="edge29" class="edge"><title>11199&#45;&gt;21351</title>
<path fill="none" stroke="black" d="M1489.83,-1473.76C1476.58,-1507.14 1451.34,-1570.73 1439.04,-1601.73"/>
</g>
<!-- 11199&#45;&gt;22378 -->
<g id="edge68" class="edge"><title>11199&#45;&gt;22378</title>
<path fill="none" stroke="black" d="M1469.17,-1439.01C1380.72,-1399 1116.72,-1279.61 1033.45,-1241.95"/>
</g>
<!-- 23798 -->
<g id="node51" class="node"><title>23798</title>
<g id="a_node51"><a xlink:title="3rd_week">
<ellipse fill="#ee9898" stroke="black" cx="1328.68" cy="-1350.68" rx="32.4942" ry="18"/>
<text text-anchor="middle" x="1328.68" y="-1346.98" font-family="Times,serif" font-size="14.00">23798</text>
</a>
</g>
</g>
<!-- 11199&#45;&gt;23798 -->
<g id="edge13" class="edge"><title>11199&#45;&gt;23798</title>
<path fill="none" stroke="black" d="M1472.24,-1436.57C1438.95,-1416.66 1382.03,-1382.6 1350.8,-1363.91"/>
</g>
<!-- 11199&#45;&gt;24334 -->
<g id="edge17" class="edge"><title>11199&#45;&gt;24334</title>
<path fill="none" stroke="black" d="M1524.23,-1436.63C1581.93,-1401.84 1720.65,-1318.2 1778.59,-1283.27"/>
</g>
<!-- 24482 -->
<g id="node55" class="node"><title>24482</title>
<g id="a_node55"><a xlink:title="3rd_week">
<ellipse fill="#ee9898" stroke="black" cx="1494.48" cy="-1722.03" rx="32.4942" ry="18"/>
<text text-anchor="middle" x="1494.48" y="-1718.33" font-family="Times,serif" font-size="14.00">24482</text>
</a>
</g>
</g>
<!-- 11199&#45;&gt;24482 -->
<g id="edge54" class="edge"><title>11199&#45;&gt;24482</title>
<path fill="none" stroke="black" d="M1498.06,-1474.3C1497.31,-1526.4 1495.43,-1656.22 1494.74,-1704.01"/>
</g>
<!-- 24593 -->
<g id="node56" class="node"><title>24593</title>
<g id="a_node56"><a xlink:title="3rd_week">
<ellipse fill="#ee9898" stroke="black" cx="1309.5" cy="-1473.81" rx="32.4942" ry="18"/>
<text text-anchor="middle" x="1309.5" y="-1470.11" font-family="Times,serif" font-size="14.00">24593</text>
</a>
</g>
</g>
<!-- 11199&#45;&gt;24593 -->
<g id="edge11" class="edge"><title>11199&#45;&gt;24593</title>
<path fill="none" stroke="black" d="M1462.41,-1456.33C1427.52,-1460.32 1375.07,-1466.32 1341.57,-1470.15"/>
</g>
<!-- 25157 -->
<g id="node58" class="node"><title>25157</title>
<g id="a_node58"><a xlink:title="3rd_week">
<ellipse fill="#ee9898" stroke="black" cx="1398.2" cy="-1704.21" rx="32.4942" ry="18"/>
<text text-anchor="middle" x="1398.2" y="-1700.51" font-family="Times,serif" font-size="14.00">25157</text>
</a>
</g>
</g>
<!-- 11199&#45;&gt;25157 -->
<g id="edge69" class="edge"><title>11199&#45;&gt;25157</title>
<path fill="none" stroke="black" d="M1489.84,-1473.7C1470.39,-1522.62 1423.11,-1641.54 1405.22,-1686.55"/>
</g>
<!-- 25419 -->
<g id="node60" class="node"><title>25419</title>
<g id="a_node60"><a xlink:title="3rd_week">
<ellipse fill="#ee9898" stroke="black" cx="1716.55" cy="-1436.67" rx="32.4942" ry="18"/>
<text text-anchor="middle" x="1716.55" y="-1432.97" font-family="Times,serif" font-size="14.00">25419</text>
</a>
</g>
</g>
<!-- 11199&#45;&gt;25419 -->
<g id="edge1" class="edge"><title>11199&#45;&gt;25419</title>
<path fill="none" stroke="black" d="M1534.9,-1449.62C1576.63,-1446.64 1644.29,-1441.82 1684.19,-1438.98"/>
</g>
<!-- 11199&#45;&gt;26282 -->
<g id="edge38" class="edge"><title>11199&#45;&gt;26282</title>
<path fill="none" stroke="black" d="M1501.84,-1430.19C1510.45,-1375.35 1532.73,-1233.55 1540.62,-1183.33"/>
</g>
<!-- 27177 -->
<g id="node66" class="node"><title>27177</title>
<g id="a_node66"><a xlink:title="3rd_week">
<ellipse fill="#ee9898" stroke="black" cx="1660.96" cy="-1320.51" rx="32.4942" ry="18"/>
<text text-anchor="middle" x="1660.96" y="-1316.81" font-family="Times,serif" font-size="14.00">27177</text>
</a>
</g>
</g>
<!-- 11199&#45;&gt;27177 -->
<g id="edge59" class="edge"><title>11199&#45;&gt;27177</title>
<path fill="none" stroke="black" d="M1520.31,-1434.46C1552.55,-1408.33 1612.19,-1360.02 1642.4,-1335.55"/>
</g>
<!-- 29804 -->
<g id="node69" class="node"><title>29804</title>
<g id="a_node69"><a xlink:title="3rd_week">
<ellipse fill="#ee9898" stroke="black" cx="1430.99" cy="-1236.84" rx="32.4942" ry="18"/>
<text text-anchor="middle" x="1430.99" y="-1233.14" font-family="Times,serif" font-size="14.00">29804</text>
</a>
</g>
</g>
<!-- 11199&#45;&gt;29804 -->
<g id="edge9" class="edge"><title>11199&#45;&gt;29804</title>
<path fill="none" stroke="black" d="M1491.55,-1430.38C1478.2,-1387.71 1448.88,-1294.01 1436.58,-1254.72"/>
</g>
<!-- 16699 -->
<g id="node29" class="node"><title>16699</title>
<g id="a_node29"><a xlink:title="3rd_week">
<ellipse fill="#ee9898" stroke="black" cx="1168.55" cy="-1828.55" rx="32.4942" ry="18"/>
<text text-anchor="middle" x="1168.55" y="-1824.85" font-family="Times,serif" font-size="14.00">16699</text>
</a>
</g>
</g>
<!-- 11200&#45;&gt;16699 -->
<g id="edge36" class="edge"><title>11200&#45;&gt;16699</title>
<path fill="none" stroke="black" d="M1294.45,-1673.63C1267.9,-1706.3 1208.75,-1779.09 1182.07,-1811.92"/>
</g>
<!-- 11520 -->
<g id="node23" class="node"><title>11520</title>
<g id="a_node23"><a xlink:title="6th_week">
<ellipse fill="#c81d25" stroke="black" cx="634.157" cy="-719.876" rx="32.4942" ry="18"/>
<text text-anchor="middle" x="634.157" y="-716.176" font-family="Times,serif" font-size="14.00">11520</text>
</a>
</g>
</g>
<!-- 11520&#45;&gt;30574 -->
<g id="edge47" class="edge"><title>11520&#45;&gt;30574</title>
<path fill="none" stroke="black" d="M638.293,-738.051C646.26,-773.05 663.644,-849.423 671.597,-884.364"/>
</g>
<!-- 13209 -->
<g id="node25" class="node"><title>13209</title>
<g id="a_node25"><a xlink:title="6th_week">
<ellipse fill="#c81d25" stroke="black" cx="305.302" cy="-652.228" rx="32.4942" ry="18"/>
<text text-anchor="middle" x="305.302" y="-648.528" font-family="Times,serif" font-size="14.00">13209</text>
</a>
</g>
</g>
<!-- 21497 -->
<g id="node48" class="node"><title>21497</title>
<g id="a_node48"><a xlink:title="6th_week">
<ellipse fill="#c81d25" stroke="black" cx="478.47" cy="-768.222" rx="32.4942" ry="18"/>
<text text-anchor="middle" x="478.47" y="-764.522" font-family="Times,serif" font-size="14.00">21497</text>
</a>
</g>
</g>
<!-- 13209&#45;&gt;21497 -->
<g id="edge30" class="edge"><title>13209&#45;&gt;21497</title>
<path fill="none" stroke="black" d="M326.19,-666.22C359.474,-688.514 424.178,-731.855 457.508,-754.181"/>
</g>
<!-- 23860 -->
<g id="node52" class="node"><title>23860</title>
<g id="a_node52"><a xlink:title="6th_week">
<ellipse fill="#c81d25" stroke="black" cx="187.714" cy="-198.737" rx="32.4942" ry="18"/>
<text text-anchor="middle" x="187.714" y="-195.037" font-family="Times,serif" font-size="14.00">23860</text>
</a>
</g>
</g>
<!-- 17064&#45;&gt;23860 -->
<g id="edge20" class="edge"><title>17064&#45;&gt;23860</title>
<path fill="none" stroke="black" d="M327.837,-381.985C299.057,-344.347 229.405,-253.26 200.558,-215.534"/>
</g>
<!-- 17782 -->
<g id="node32" class="node"><title>17782</title>
<g id="a_node32"><a xlink:title="6th_week">
<ellipse fill="#c81d25" stroke="black" cx="565.654" cy="-768.642" rx="32.4942" ry="18"/>
<text text-anchor="middle" x="565.654" y="-764.942" font-family="Times,serif" font-size="14.00">17782</text>
</a>
</g>
</g>
<!-- 17782&#45;&gt;30574 -->
<g id="edge58" class="edge"><title>17782&#45;&gt;30574</title>
<path fill="none" stroke="black" d="M579.15,-785.052C600.274,-810.736 640.919,-860.155 662.111,-885.922"/>
</g>
<!-- 18472 -->
<g id="node36" class="node"><title>18472</title>
<g id="a_node36"><a xlink:title="6th_week">
<ellipse fill="#c81d25" stroke="black" cx="511.816" cy="-871.122" rx="32.4942" ry="18"/>
<text text-anchor="middle" x="511.816" y="-867.422" font-family="Times,serif" font-size="14.00">18472</text>
</a>
</g>
</g>
<!-- 18472&#45;&gt;30574 -->
<g id="edge23" class="edge"><title>18472&#45;&gt;30574</title>
<path fill="none" stroke="black" d="M542.645,-877.017C571.855,-882.603 615.493,-890.948 644.749,-896.543"/>
</g>
<!-- 18800 -->
<g id="node37" class="node"><title>18800</title>
<g id="a_node37"><a xlink:title="6th_week">
<ellipse fill="#c81d25" stroke="black" cx="708.266" cy="-710.129" rx="32.4942" ry="18"/>
<text text-anchor="middle" x="708.266" y="-706.429" font-family="Times,serif" font-size="14.00">18800</text>
</a>
</g>
</g>
<!-- 18800&#45;&gt;30574 -->
<g id="edge51" class="edge"><title>18800&#45;&gt;30574</title>
<path fill="none" stroke="black" d="M705.204,-728.223C699,-764.881 685.011,-847.544 678.795,-884.279"/>
</g>
<!-- 19262 -->
<g id="node39" class="node"><title>19262</title>
<g id="a_node39"><a xlink:title="3rd_week">
<ellipse fill="#ee9898" stroke="black" cx="1475.64" cy="-1943.12" rx="32.4942" ry="18"/>
<text text-anchor="middle" x="1475.64" y="-1939.42" font-family="Times,serif" font-size="14.00">19262</text>
</a>
</g>
</g>
<!-- 19262&#45;&gt;24482 -->
<g id="edge42" class="edge"><title>19262&#45;&gt;24482</title>
<path fill="none" stroke="black" d="M1477.18,-1925.03C1480.72,-1883.47 1489.41,-1781.57 1492.95,-1740.07"/>
</g>
<!-- 19547 -->
<g id="node41" class="node"><title>19547</title>
<g id="a_node41"><a xlink:title="6th_week">
<ellipse fill="#c81d25" stroke="black" cx="724.415" cy="-1530.29" rx="32.4942" ry="18"/>
<text text-anchor="middle" x="724.415" y="-1526.59" font-family="Times,serif" font-size="14.00">19547</text>
</a>
</g>
</g>
<!-- 26002 -->
<g id="node62" class="node"><title>26002</title>
<g id="a_node62"><a xlink:title="6th_week">
<ellipse fill="#c81d25" stroke="black" cx="842.178" cy="-1382.33" rx="32.4942" ry="18"/>
<text text-anchor="middle" x="842.178" y="-1378.63" font-family="Times,serif" font-size="14.00">26002</text>
</a>
</g>
</g>
<!-- 19547&#45;&gt;26002 -->
<g id="edge18" class="edge"><title>19547&#45;&gt;26002</title>
<path fill="none" stroke="black" d="M737.695,-1513.6C760.312,-1485.18 806.059,-1427.71 828.766,-1399.18"/>
</g>
<!-- 21497&#45;&gt;30574 -->
<g id="edge28" class="edge"><title>21497&#45;&gt;30574</title>
<path fill="none" stroke="black" d="M499.206,-782.335C537.089,-808.117 617.067,-862.549 654.963,-888.34"/>
</g>
<!-- 22378&#45;&gt;26002 -->
<g id="edge61" class="edge"><title>22378&#45;&gt;26002</title>
<path fill="none" stroke="black" d="M990.872,-1246.12C959.098,-1275.23 891.345,-1337.29 859.454,-1366.5"/>
</g>
<!-- 22378&#45;&gt;30574 -->
<g id="edge67" class="edge"><title>22378&#45;&gt;30574</title>
<path fill="none" stroke="black" d="M991.966,-1214.62C935.834,-1159.21 748.458,-974.265 691.972,-918.51"/>
</g>
<!-- 26692 -->
<g id="node65" class="node"><title>26692</title>
<g id="a_node65"><a xlink:title="6th_week">
<ellipse fill="#c81d25" stroke="black" cx="32.2557" cy="-77.8071" rx="32.4942" ry="18"/>
<text text-anchor="middle" x="32.2557" y="-74.1071" font-family="Times,serif" font-size="14.00">26692</text>
</a>
</g>
</g>
<!-- 23860&#45;&gt;26692 -->
<g id="edge44" class="edge"><title>23860&#45;&gt;26692</title>
<path fill="none" stroke="black" d="M168.652,-183.909C138.815,-160.699 81.4062,-116.041 51.4738,-92.7568"/>
</g>
<!-- 11266 -->
<g id="node74" class="node"><title>11266</title>
<g id="a_node74"><a xlink:title="6th_week">
<ellipse fill="#c81d25" stroke="black" cx="110.824" cy="-17.6554" rx="32.4942" ry="18"/>
<text text-anchor="middle" x="110.824" y="-13.9554" font-family="Times,serif" font-size="14.00">11266</text>
</a>
</g>
</g>
<!-- 23860&#45;&gt;11266 -->
<g id="edge4" class="edge"><title>23860&#45;&gt;11266</title>
<path fill="none" stroke="black" d="M180.201,-181.045C165.502,-146.426 133.091,-70.096 118.367,-35.4198"/>
</g>
<!-- 22241 -->
<g id="node71" class="node"><title>22241</title>
<g id="a_node71"><a xlink:title="6th_week">
<ellipse fill="#c81d25" stroke="black" cx="1992.8" cy="-1154.02" rx="32.4942" ry="18"/>
<text text-anchor="middle" x="1992.8" y="-1150.32" font-family="Times,serif" font-size="14.00">22241</text>
</a>
</g>
</g>
<!-- 24334&#45;&gt;22241 -->
<g id="edge41" class="edge"><title>24334&#45;&gt;22241</title>
<path fill="none" stroke="black" d="M1830.85,-1251.74C1868.1,-1229.27 1935.78,-1188.43 1970.68,-1167.37"/>
</g>
<!-- 25840 -->
<g id="node72" class="node"><title>25840</title>
<g id="a_node72"><a xlink:title="6th_week">
<ellipse fill="#c81d25" stroke="black" cx="2016.62" cy="-1225.65" rx="32.4942" ry="18"/>
<text text-anchor="middle" x="2016.62" y="-1221.95" font-family="Times,serif" font-size="14.00">25840</text>
</a>
</g>
</g>
<!-- 24334&#45;&gt;25840 -->
<g id="edge32" class="edge"><title>24334&#45;&gt;25840</title>
<path fill="none" stroke="black" d="M1839.69,-1260.61C1880.37,-1252.57 1946.86,-1239.43 1985.71,-1231.76"/>
</g>
<!-- 24907 -->
<g id="node57" class="node"><title>24907</title>
<g id="a_node57"><a xlink:title="6th_week">
<ellipse fill="#c81d25" stroke="black" cx="774.439" cy="-754.445" rx="32.4942" ry="18"/>
<text text-anchor="middle" x="774.439" y="-750.745" font-family="Times,serif" font-size="14.00">24907</text>
</a>
</g>
</g>
<!-- 24907&#45;&gt;30574 -->
<g id="edge33" class="edge"><title>24907&#45;&gt;30574</title>
<path fill="none" stroke="black" d="M763.115,-771.425C744.173,-799.826 706.27,-856.656 687.214,-885.228"/>
</g>
<!-- 29146 -->
<g id="node68" class="node"><title>29146</title>
<g id="a_node68"><a xlink:title="3rd_week">
<ellipse fill="#ee9898" stroke="black" cx="1317.84" cy="-1914.18" rx="32.4942" ry="18"/>
<text text-anchor="middle" x="1317.84" y="-1910.48" font-family="Times,serif" font-size="14.00">29146</text>
</a>
</g>
</g>
<!-- 25157&#45;&gt;29146 -->
<g id="edge7" class="edge"><title>25157&#45;&gt;29146</title>
<path fill="none" stroke="black" d="M1391.35,-1722.11C1376.16,-1761.78 1339.84,-1856.69 1324.67,-1896.32"/>
</g>
<!-- 25928 -->
<g id="node61" class="node"><title>25928</title>
<g id="a_node61"><a xlink:title="6th_week">
<ellipse fill="#c81d25" stroke="black" cx="512.795" cy="-970.039" rx="32.4942" ry="18"/>
<text text-anchor="middle" x="512.795" y="-966.339" font-family="Times,serif" font-size="14.00">25928</text>
</a>
</g>
</g>
<!-- 25928&#45;&gt;30574 -->
<g id="edge65" class="edge"><title>25928&#45;&gt;30574</title>
<path fill="none" stroke="black" d="M538.972,-959.182C569.375,-946.572 619.231,-925.894 649.606,-913.295"/>
</g>
</g>
</svg>
