<?xml version="1.0" encoding="UTF-8" standalone="no"?>
<!DOCTYPE svg PUBLIC "-//W3C//DTD SVG 1.1//EN"
 "http://www.w3.org/Graphics/SVG/1.1/DTD/svg11.dtd">
<!-- Generated by graphviz version 2.38.0 (20140413.2041)
 -->
<!-- Title: %3 Pages: 1 -->
<svg width="1491pt" height="1029pt"
 viewBox="0.00 0.00 1491.00 1029.00" xmlns="http://www.w3.org/2000/svg" xmlns:xlink="http://www.w3.org/1999/xlink">
<g id="graph0" class="graph" transform="scale(1 1) rotate(0) translate(4 1025)">
<title>%3</title>
<polygon fill="white" stroke="none" points="-4,4 -4,-1025 1487,-1025 1487,4 -4,4"/>
<!-- 132 -->
<g id="node1" class="node"><title>132</title>
<g id="a_node1"><a xlink:title="3rd_week">
<ellipse fill="#ee9898" stroke="black" cx="234.311" cy="-239.391" rx="27" ry="18"/>
<text text-anchor="middle" x="234.311" y="-235.691" font-family="Times,serif" font-size="14.00">132</text>
</a>
</g>
</g>
<!-- 6657 -->
<g id="node8" class="node"><title>6657</title>
<g id="a_node8"><a xlink:title="3rd_week">
<ellipse fill="#ee9898" stroke="black" cx="353.448" cy="-275.872" rx="28.6953" ry="18"/>
<text text-anchor="middle" x="353.448" y="-272.172" font-family="Times,serif" font-size="14.00">6657</text>
</a>
</g>
</g>
<!-- 132&#45;&gt;6657 -->
<g id="edge30" class="edge"><title>132&#45;&gt;6657</title>
<path fill="none" stroke="black" d="M258.996,-246.95C279.034,-253.086 307.203,-261.711 327.558,-267.944"/>
</g>
<!-- 186 -->
<g id="node2" class="node"><title>186</title>
<g id="a_node2"><a xlink:title="Day_0">
<ellipse fill="#e5dada" stroke="black" cx="634.778" cy="-381.193" rx="27" ry="18"/>
<text text-anchor="middle" x="634.778" y="-377.493" font-family="Times,serif" font-size="14.00">186</text>
</a>
</g>
</g>
<!-- 5090 -->
<g id="node5" class="node"><title>5090</title>
<g id="a_node5"><a xlink:title="Day_0">
<ellipse fill="#e5dada" stroke="black" cx="656.359" cy="-256.686" rx="28.6953" ry="18"/>
<text text-anchor="middle" x="656.359" y="-252.986" font-family="Times,serif" font-size="14.00">5090</text>
</a>
</g>
</g>
<!-- 186&#45;&gt;5090 -->
<g id="edge12" class="edge"><title>186&#45;&gt;5090</title>
<path fill="none" stroke="black" d="M637.916,-363.088C642.008,-339.483 649.124,-298.428 653.217,-274.812"/>
</g>
<!-- 7123 -->
<g id="node9" class="node"><title>7123</title>
<g id="a_node9"><a xlink:title="Day_0">
<ellipse fill="#e5dada" stroke="black" cx="649.564" cy="-524.755" rx="28.6953" ry="18"/>
<text text-anchor="middle" x="649.564" y="-521.055" font-family="Times,serif" font-size="14.00">7123</text>
</a>
</g>
</g>
<!-- 186&#45;&gt;7123 -->
<g id="edge33" class="edge"><title>186&#45;&gt;7123</title>
<path fill="none" stroke="black" d="M636.651,-399.375C639.495,-426.99 644.871,-479.193 647.706,-506.72"/>
</g>
<!-- 9795 -->
<g id="node14" class="node"><title>9795</title>
<g id="a_node14"><a xlink:title="Day_0">
<ellipse fill="#e5dada" stroke="black" cx="589.807" cy="-263.965" rx="28.6953" ry="18"/>
<text text-anchor="middle" x="589.807" y="-260.265" font-family="Times,serif" font-size="14.00">9795</text>
</a>
</g>
</g>
<!-- 186&#45;&gt;9795 -->
<g id="edge21" class="edge"><title>186&#45;&gt;9795</title>
<path fill="none" stroke="black" d="M628.046,-363.643C619.568,-341.543 605.085,-303.792 596.586,-281.636"/>
</g>
<!-- 1649 -->
<g id="node3" class="node"><title>1649</title>
<g id="a_node3"><a xlink:title="3rd_week">
<ellipse fill="#ee9898" stroke="black" cx="373.492" cy="-151.301" rx="28.6953" ry="18"/>
<text text-anchor="middle" x="373.492" y="-147.601" font-family="Times,serif" font-size="14.00">1649</text>
</a>
</g>
</g>
<!-- 1649&#45;&gt;6657 -->
<g id="edge13" class="edge"><title>1649&#45;&gt;6657</title>
<path fill="none" stroke="black" d="M370.577,-169.415C366.777,-193.032 360.168,-234.108 356.366,-257.736"/>
</g>
<!-- 4509 -->
<g id="node4" class="node"><title>4509</title>
<g id="a_node4"><a xlink:title="3rd_week">
<ellipse fill="#ee9898" stroke="black" cx="302.988" cy="-146.086" rx="28.6953" ry="18"/>
<text text-anchor="middle" x="302.988" y="-142.386" font-family="Times,serif" font-size="14.00">4509</text>
</a>
</g>
</g>
<!-- 4509&#45;&gt;6657 -->
<g id="edge44" class="edge"><title>4509&#45;&gt;6657</title>
<path fill="none" stroke="black" d="M309.794,-163.589C319.424,-188.36 336.93,-233.386 346.589,-258.231"/>
</g>
<!-- 5864 -->
<g id="node6" class="node"><title>5864</title>
<g id="a_node6"><a xlink:title="Day_0">
<ellipse fill="#e5dada" stroke="black" cx="28.5077" cy="-343.998" rx="28.6953" ry="18"/>
<text text-anchor="middle" x="28.5077" y="-340.298" font-family="Times,serif" font-size="14.00">5864</text>
</a>
</g>
</g>
<!-- 8911 -->
<g id="node11" class="node"><title>8911</title>
<g id="a_node11"><a xlink:title="Day_0">
<ellipse fill="#e5dada" stroke="black" cx="161.101" cy="-367.044" rx="28.6953" ry="18"/>
<text text-anchor="middle" x="161.101" y="-363.344" font-family="Times,serif" font-size="14.00">8911</text>
</a>
</g>
</g>
<!-- 5864&#45;&gt;8911 -->
<g id="edge11" class="edge"><title>5864&#45;&gt;8911</title>
<path fill="none" stroke="black" d="M56.3036,-348.829C78.9333,-352.762 110.722,-358.288 133.342,-362.219"/>
</g>
<!-- 5960 -->
<g id="node7" class="node"><title>5960</title>
<g id="a_node7"><a xlink:title="Day_0">
<ellipse fill="#e5dada" stroke="black" cx="460.363" cy="-429.996" rx="28.6953" ry="18"/>
<text text-anchor="middle" x="460.363" y="-426.296" font-family="Times,serif" font-size="14.00">5960</text>
</a>
</g>
</g>
<!-- 5960&#45;&gt;6657 -->
<g id="edge18" class="edge"><title>5960&#45;&gt;6657</title>
<path fill="none" stroke="black" d="M448.718,-413.209C428.152,-383.562 385.635,-322.271 365.079,-292.638"/>
</g>
<!-- 5960&#45;&gt;7123 -->
<g id="edge37" class="edge"><title>5960&#45;&gt;7123</title>
<path fill="none" stroke="black" d="M482.81,-441.238C519.223,-459.475 590.752,-495.299 627.146,-513.527"/>
</g>
<!-- 9063 -->
<g id="node12" class="node"><title>9063</title>
<g id="a_node12"><a xlink:title="Day_0">
<ellipse fill="#e5dada" stroke="black" cx="367.257" cy="-502.878" rx="28.6953" ry="18"/>
<text text-anchor="middle" x="367.257" y="-499.178" font-family="Times,serif" font-size="14.00">9063</text>
</a>
</g>
</g>
<!-- 5960&#45;&gt;9063 -->
<g id="edge31" class="edge"><title>5960&#45;&gt;9063</title>
<path fill="none" stroke="black" d="M442.411,-444.048C426.03,-456.871 401.934,-475.733 385.471,-488.62"/>
</g>
<!-- 9350 -->
<g id="node13" class="node"><title>9350</title>
<g id="a_node13"><a xlink:title="Day_0">
<ellipse fill="#e5dada" stroke="black" cx="303.183" cy="-391.039" rx="28.6953" ry="18"/>
<text text-anchor="middle" x="303.183" y="-387.339" font-family="Times,serif" font-size="14.00">9350</text>
</a>
</g>
</g>
<!-- 5960&#45;&gt;9350 -->
<g id="edge5" class="edge"><title>5960&#45;&gt;9350</title>
<path fill="none" stroke="black" d="M433.7,-423.388C404.796,-416.224 358.932,-404.856 329.977,-397.68"/>
</g>
<!-- 146 -->
<g id="node15" class="node"><title>146</title>
<g id="a_node15"><a xlink:title="Day_0">
<ellipse fill="#e5dada" stroke="black" cx="312.361" cy="-453.499" rx="27" ry="18"/>
<text text-anchor="middle" x="312.361" y="-449.799" font-family="Times,serif" font-size="14.00">146</text>
</a>
</g>
</g>
<!-- 5960&#45;&gt;146 -->
<g id="edge7" class="edge"><title>5960&#45;&gt;146</title>
<path fill="none" stroke="black" d="M432.525,-434.417C405.73,-438.672 365.489,-445.062 339.077,-449.257"/>
</g>
<!-- 8590 -->
<g id="node10" class="node"><title>8590</title>
<g id="a_node10"><a xlink:title="3rd_week">
<ellipse fill="#ee9898" stroke="black" cx="251.361" cy="-191.999" rx="28.6953" ry="18"/>
<text text-anchor="middle" x="251.361" y="-188.299" font-family="Times,serif" font-size="14.00">8590</text>
</a>
</g>
</g>
<!-- 6657&#45;&gt;8590 -->
<g id="edge25" class="edge"><title>6657&#45;&gt;8590</title>
<path fill="none" stroke="black" d="M335.666,-261.262C316.928,-245.868 287.6,-221.772 268.939,-206.441"/>
</g>
<!-- 801 -->
<g id="node16" class="node"><title>801</title>
<g id="a_node16"><a xlink:title="Day_0">
<ellipse fill="#e5dada" stroke="black" cx="546.591" cy="-544.165" rx="27" ry="18"/>
<text text-anchor="middle" x="546.591" y="-540.465" font-family="Times,serif" font-size="14.00">801</text>
</a>
</g>
</g>
<!-- 7123&#45;&gt;801 -->
<g id="edge3" class="edge"><title>7123&#45;&gt;801</title>
<path fill="none" stroke="black" d="M621.969,-529.956C606.718,-532.831 587.873,-536.383 572.842,-539.217"/>
</g>
<!-- 7486 -->
<g id="node21" class="node"><title>7486</title>
<g id="a_node21"><a xlink:title="6th_week">
<ellipse fill="#c81d25" stroke="black" cx="537.592" cy="-673.455" rx="28.6953" ry="18"/>
<text text-anchor="middle" x="537.592" y="-669.755" font-family="Times,serif" font-size="14.00">7486</text>
</a>
</g>
</g>
<!-- 7123&#45;&gt;7486 -->
<g id="edge9" class="edge"><title>7123&#45;&gt;7486</title>
<path fill="none" stroke="black" d="M637.153,-541.236C615.63,-569.82 571.62,-628.265 550.058,-656.899"/>
</g>
<!-- 8829 -->
<g id="node22" class="node"><title>8829</title>
<g id="a_node22"><a xlink:title="Day_0">
<ellipse fill="#e5dada" stroke="black" cx="886.616" cy="-555.762" rx="28.6953" ry="18"/>
<text text-anchor="middle" x="886.616" y="-552.062" font-family="Times,serif" font-size="14.00">8829</text>
</a>
</g>
</g>
<!-- 7123&#45;&gt;8829 -->
<g id="edge46" class="edge"><title>7123&#45;&gt;8829</title>
<path fill="none" stroke="black" d="M677.688,-528.433C723.311,-534.401 812.93,-546.123 858.529,-552.088"/>
</g>
<!-- 8911&#45;&gt;9350 -->
<g id="edge41" class="edge"><title>8911&#45;&gt;9350</title>
<path fill="none" stroke="black" d="M188.833,-371.728C213.868,-375.956 250.507,-382.143 275.521,-386.367"/>
</g>
<!-- 5972 -->
<g id="node24" class="node"><title>5972</title>
<g id="a_node24"><a xlink:title="Day_0">
<ellipse fill="#e5dada" stroke="black" cx="190.551" cy="-489.576" rx="28.6953" ry="18"/>
<text text-anchor="middle" x="190.551" y="-485.876" font-family="Times,serif" font-size="14.00">5972</text>
</a>
</g>
</g>
<!-- 146&#45;&gt;5972 -->
<g id="edge27" class="edge"><title>146&#45;&gt;5972</title>
<path fill="none" stroke="black" d="M287.417,-460.887C266.814,-466.989 237.658,-475.624 216.724,-481.824"/>
</g>
<!-- 2172 -->
<g id="node17" class="node"><title>2172</title>
<g id="a_node17"><a xlink:title="6th_week">
<ellipse fill="#c81d25" stroke="black" cx="421.929" cy="-747.016" rx="28.6953" ry="18"/>
<text text-anchor="middle" x="421.929" y="-743.316" font-family="Times,serif" font-size="14.00">2172</text>
</a>
</g>
</g>
<!-- 2172&#45;&gt;7486 -->
<g id="edge10" class="edge"><title>2172&#45;&gt;7486</title>
<path fill="none" stroke="black" d="M442.076,-734.203C463.176,-720.783 496.129,-699.825 517.288,-686.368"/>
</g>
<!-- 2284 -->
<g id="node18" class="node"><title>2284</title>
<g id="a_node18"><a xlink:title="6th_week">
<ellipse fill="#c81d25" stroke="black" cx="456.439" cy="-793.901" rx="28.6953" ry="18"/>
<text text-anchor="middle" x="456.439" y="-790.201" font-family="Times,serif" font-size="14.00">2284</text>
</a>
</g>
</g>
<!-- 2284&#45;&gt;7486 -->
<g id="edge35" class="edge"><title>2284&#45;&gt;7486</title>
<path fill="none" stroke="black" d="M467.723,-777.154C483.227,-754.142 510.95,-712.997 526.404,-690.06"/>
</g>
<!-- 5699 -->
<g id="node19" class="node"><title>5699</title>
<g id="a_node19"><a xlink:title="6th_week">
<ellipse fill="#c81d25" stroke="black" cx="523.862" cy="-766.949" rx="28.6953" ry="18"/>
<text text-anchor="middle" x="523.862" y="-763.249" font-family="Times,serif" font-size="14.00">5699</text>
</a>
</g>
</g>
<!-- 5699&#45;&gt;7486 -->
<g id="edge28" class="edge"><title>5699&#45;&gt;7486</title>
<path fill="none" stroke="black" d="M526.509,-748.922C528.94,-732.366 532.524,-707.964 534.953,-691.426"/>
</g>
<!-- 6581 -->
<g id="node20" class="node"><title>6581</title>
<g id="a_node20"><a xlink:title="6th_week">
<ellipse fill="#c81d25" stroke="black" cx="527.062" cy="-819.778" rx="28.6953" ry="18"/>
<text text-anchor="middle" x="527.062" y="-816.078" font-family="Times,serif" font-size="14.00">6581</text>
</a>
</g>
</g>
<!-- 6581&#45;&gt;7486 -->
<g id="edge26" class="edge"><title>6581&#45;&gt;7486</title>
<path fill="none" stroke="black" d="M528.374,-801.542C530.403,-773.349 534.277,-719.514 536.296,-691.461"/>
</g>
<!-- 4545 -->
<g id="node31" class="node"><title>4545</title>
<g id="a_node31"><a xlink:title="6th_week">
<ellipse fill="#c81d25" stroke="black" cx="409.925" cy="-698.108" rx="28.6953" ry="18"/>
<text text-anchor="middle" x="409.925" y="-694.408" font-family="Times,serif" font-size="14.00">4545</text>
</a>
</g>
</g>
<!-- 7486&#45;&gt;4545 -->
<g id="edge6" class="edge"><title>7486&#45;&gt;4545</title>
<path fill="none" stroke="black" d="M510.204,-678.744C488.664,-682.903 458.796,-688.671 437.268,-692.828"/>
</g>
<!-- 1640 -->
<g id="node23" class="node"><title>1640</title>
<g id="a_node23"><a xlink:title="Day_0">
<ellipse fill="#e5dada" stroke="black" cx="784.176" cy="-590.323" rx="28.6953" ry="18"/>
<text text-anchor="middle" x="784.176" y="-586.623" font-family="Times,serif" font-size="14.00">1640</text>
</a>
</g>
</g>
<!-- 8829&#45;&gt;1640 -->
<g id="edge36" class="edge"><title>8829&#45;&gt;1640</title>
<path fill="none" stroke="black" d="M861.294,-564.305C845.534,-569.622 825.334,-576.437 809.562,-581.758"/>
</g>
<!-- 6372 -->
<g id="node25" class="node"><title>6372</title>
<g id="a_node25"><a xlink:title="Day_0">
<ellipse fill="#e5dada" stroke="black" cx="850.66" cy="-441.852" rx="28.6953" ry="18"/>
<text text-anchor="middle" x="850.66" y="-438.152" font-family="Times,serif" font-size="14.00">6372</text>
</a>
</g>
</g>
<!-- 8829&#45;&gt;6372 -->
<g id="edge32" class="edge"><title>8829&#45;&gt;6372</title>
<path fill="none" stroke="black" d="M880.998,-537.963C874.243,-516.564 862.976,-480.87 856.239,-459.526"/>
</g>
<!-- 6413 -->
<g id="node26" class="node"><title>6413</title>
<g id="a_node26"><a xlink:title="Day_0">
<ellipse fill="#e5dada" stroke="black" cx="1030.18" cy="-417.333" rx="28.6953" ry="18"/>
<text text-anchor="middle" x="1030.18" y="-413.633" font-family="Times,serif" font-size="14.00">6413</text>
</a>
</g>
</g>
<!-- 8829&#45;&gt;6413 -->
<g id="edge22" class="edge"><title>8829&#45;&gt;6413</title>
<path fill="none" stroke="black" d="M902.254,-540.684C929.724,-514.196 986.36,-459.585 1014.12,-432.814"/>
</g>
<!-- 7284 -->
<g id="node27" class="node"><title>7284</title>
<g id="a_node27"><a xlink:title="Day_0">
<ellipse fill="#e5dada" stroke="black" cx="886.651" cy="-722.072" rx="28.6953" ry="18"/>
<text text-anchor="middle" x="886.651" y="-718.372" font-family="Times,serif" font-size="14.00">7284</text>
</a>
</g>
</g>
<!-- 8829&#45;&gt;7284 -->
<g id="edge29" class="edge"><title>8829&#45;&gt;7284</title>
<path fill="none" stroke="black" d="M886.62,-573.876C886.627,-605.868 886.641,-672.004 886.648,-703.98"/>
</g>
<!-- 9769 -->
<g id="node28" class="node"><title>9769</title>
<g id="a_node28"><a xlink:title="Day_0">
<ellipse fill="#e5dada" stroke="black" cx="837.945" cy="-655.634" rx="28.6953" ry="18"/>
<text text-anchor="middle" x="837.945" y="-651.934" font-family="Times,serif" font-size="14.00">9769</text>
</a>
</g>
</g>
<!-- 8829&#45;&gt;9769 -->
<g id="edge4" class="edge"><title>8829&#45;&gt;9769</title>
<path fill="none" stroke="black" d="M878.138,-573.158C869.26,-591.377 855.393,-619.832 846.489,-638.102"/>
</g>
<!-- 9778 -->
<g id="node29" class="node"><title>9778</title>
<g id="a_node29"><a xlink:title="Day_0">
<ellipse fill="#e5dada" stroke="black" cx="990.974" cy="-516.599" rx="28.6953" ry="18"/>
<text text-anchor="middle" x="990.974" y="-512.899" font-family="Times,serif" font-size="14.00">9778</text>
</a>
</g>
</g>
<!-- 8829&#45;&gt;9778 -->
<g id="edge16" class="edge"><title>8829&#45;&gt;9778</title>
<path fill="none" stroke="black" d="M911.348,-546.48C927.862,-540.283 949.506,-532.161 966.058,-525.949"/>
</g>
<!-- 5617 -->
<g id="node32" class="node"><title>5617</title>
<g id="a_node32"><a xlink:title="Day_0">
<ellipse fill="#e5dada" stroke="black" cx="949.264" cy="-672.189" rx="28.6953" ry="18"/>
<text text-anchor="middle" x="949.264" y="-668.489" font-family="Times,serif" font-size="14.00">5617</text>
</a>
</g>
</g>
<!-- 8829&#45;&gt;5617 -->
<g id="edge23" class="edge"><title>8829&#45;&gt;5617</title>
<path fill="none" stroke="black" d="M895.86,-572.941C907.705,-594.953 928.12,-632.893 939.982,-654.939"/>
</g>
<!-- 2183 -->
<g id="node35" class="node"><title>2183</title>
<g id="a_node35"><a xlink:title="6th_week">
<ellipse fill="#c81d25" stroke="black" cx="1071.33" cy="-626.209" rx="28.6953" ry="18"/>
<text text-anchor="middle" x="1071.33" y="-622.509" font-family="Times,serif" font-size="14.00">2183</text>
</a>
</g>
</g>
<!-- 8829&#45;&gt;2183 -->
<g id="edge50" class="edge"><title>8829&#45;&gt;2183</title>
<path fill="none" stroke="black" d="M911.145,-565.116C946.474,-578.59 1011.31,-603.32 1046.7,-616.815"/>
</g>
<!-- 4007 -->
<g id="node37" class="node"><title>4007</title>
<g id="a_node37"><a xlink:title="Day_0">
<ellipse fill="#e5dada" stroke="black" cx="923.657" cy="-441.82" rx="28.6953" ry="18"/>
<text text-anchor="middle" x="923.657" y="-438.12" font-family="Times,serif" font-size="14.00">4007</text>
</a>
</g>
</g>
<!-- 8829&#45;&gt;4007 -->
<g id="edge20" class="edge"><title>8829&#45;&gt;4007</title>
<path fill="none" stroke="black" d="M892.404,-537.958C899.362,-516.552 910.969,-480.848 917.91,-459.498"/>
</g>
<!-- 1416 -->
<g id="node33" class="node"><title>1416</title>
<g id="a_node33"><a xlink:title="Day_0">
<ellipse fill="#e5dada" stroke="black" cx="1169.66" cy="-289.232" rx="28.6953" ry="18"/>
<text text-anchor="middle" x="1169.66" y="-285.532" font-family="Times,serif" font-size="14.00">1416</text>
</a>
</g>
</g>
<!-- 6413&#45;&gt;1416 -->
<g id="edge45" class="edge"><title>6413&#45;&gt;1416</title>
<path fill="none" stroke="black" d="M1046.45,-402.387C1073.33,-377.703 1126.69,-328.703 1153.49,-304.082"/>
</g>
<!-- 1975 -->
<g id="node34" class="node"><title>1975</title>
<g id="a_node34"><a xlink:title="Day_0">
<ellipse fill="#e5dada" stroke="black" cx="915.279" cy="-876.047" rx="28.6953" ry="18"/>
<text text-anchor="middle" x="915.279" y="-872.347" font-family="Times,serif" font-size="14.00">1975</text>
</a>
</g>
</g>
<!-- 7284&#45;&gt;1975 -->
<g id="edge43" class="edge"><title>7284&#45;&gt;1975</title>
<path fill="none" stroke="black" d="M889.991,-740.036C895.478,-769.547 906.341,-827.974 911.872,-857.72"/>
</g>
<!-- 6198 -->
<g id="node41" class="node"><title>6198</title>
<g id="a_node41"><a xlink:title="6th_week">
<ellipse fill="#c81d25" stroke="black" cx="848.583" cy="-847.713" rx="28.6953" ry="18"/>
<text text-anchor="middle" x="848.583" y="-844.013" font-family="Times,serif" font-size="14.00">6198</text>
</a>
</g>
</g>
<!-- 7284&#45;&gt;6198 -->
<g id="edge34" class="edge"><title>7284&#45;&gt;6198</title>
<path fill="none" stroke="black" d="M881.278,-739.807C874.063,-763.617 861.315,-805.691 854.052,-829.662"/>
</g>
<!-- 2472 -->
<g id="node30" class="node"><title>2472</title>
<g id="a_node30"><a xlink:title="6th_week">
<ellipse fill="#c81d25" stroke="black" cx="1184.15" cy="-564.429" rx="28.6953" ry="18"/>
<text text-anchor="middle" x="1184.15" y="-560.729" font-family="Times,serif" font-size="14.00">2472</text>
</a>
</g>
</g>
<!-- 2472&#45;&gt;2183 -->
<g id="edge47" class="edge"><title>2472&#45;&gt;2183</title>
<path fill="none" stroke="black" d="M1162.4,-576.341C1142.42,-587.281 1112.97,-603.405 1093.02,-614.334"/>
</g>
<!-- 6556 -->
<g id="node42" class="node"><title>6556</title>
<g id="a_node42"><a xlink:title="Day_0">
<ellipse fill="#e5dada" stroke="black" cx="1002.09" cy="-793.089" rx="28.6953" ry="18"/>
<text text-anchor="middle" x="1002.09" y="-789.389" font-family="Times,serif" font-size="14.00">6556</text>
</a>
</g>
</g>
<!-- 5617&#45;&gt;6556 -->
<g id="edge48" class="edge"><title>5617&#45;&gt;6556</title>
<path fill="none" stroke="black" d="M956.946,-689.769C966.961,-712.691 984.379,-752.555 994.399,-775.487"/>
</g>
<!-- 5971 -->
<g id="node40" class="node"><title>5971</title>
<g id="a_node40"><a xlink:title="Day_0">
<ellipse fill="#e5dada" stroke="black" cx="1210.12" cy="-192.537" rx="28.6953" ry="18"/>
<text text-anchor="middle" x="1210.12" y="-188.837" font-family="Times,serif" font-size="14.00">5971</text>
</a>
</g>
</g>
<!-- 1416&#45;&gt;5971 -->
<g id="edge8" class="edge"><title>1416&#45;&gt;5971</title>
<path fill="none" stroke="black" d="M1177.09,-271.496C1184.39,-254.049 1195.47,-227.567 1202.75,-210.16"/>
</g>
<!-- 2557 -->
<g id="node46" class="node"><title>2557</title>
<g id="a_node46"><a xlink:title="Day_0">
<ellipse fill="#e5dada" stroke="black" cx="1184.54" cy="-140.502" rx="28.6953" ry="18"/>
<text text-anchor="middle" x="1184.54" y="-136.802" font-family="Times,serif" font-size="14.00">2557</text>
</a>
</g>
</g>
<!-- 1416&#45;&gt;2557 -->
<g id="edge15" class="edge"><title>1416&#45;&gt;2557</title>
<path fill="none" stroke="black" d="M1171.49,-270.994C1174.34,-242.449 1179.84,-187.525 1182.7,-158.888"/>
</g>
<!-- 3835 -->
<g id="node47" class="node"><title>3835</title>
<g id="a_node47"><a xlink:title="Day_0">
<ellipse fill="#e5dada" stroke="black" cx="1280.87" cy="-189.551" rx="28.6953" ry="18"/>
<text text-anchor="middle" x="1280.87" y="-185.851" font-family="Times,serif" font-size="14.00">3835</text>
</a>
</g>
</g>
<!-- 1416&#45;&gt;3835 -->
<g id="edge2" class="edge"><title>1416&#45;&gt;3835</title>
<path fill="none" stroke="black" d="M1186.55,-274.092C1207.58,-255.248 1243.26,-223.264 1264.19,-204.506"/>
</g>
<!-- 9278 -->
<g id="node50" class="node"><title>9278</title>
<g id="a_node50"><a xlink:title="Day_0">
<ellipse fill="#e5dada" stroke="black" cx="1327.79" cy="-254.402" rx="28.6953" ry="18"/>
<text text-anchor="middle" x="1327.79" y="-250.702" font-family="Times,serif" font-size="14.00">9278</text>
</a>
</g>
</g>
<!-- 1416&#45;&gt;9278 -->
<g id="edge24" class="edge"><title>1416&#45;&gt;9278</title>
<path fill="none" stroke="black" d="M1196.85,-283.244C1225.9,-276.845 1271.68,-266.761 1300.7,-260.37"/>
</g>
<!-- 4445 -->
<g id="node38" class="node"><title>4445</title>
<g id="a_node38"><a xlink:title="Day_0">
<ellipse fill="#e5dada" stroke="black" cx="937.67" cy="-1002.54" rx="28.6953" ry="18"/>
<text text-anchor="middle" x="937.67" y="-998.845" font-family="Times,serif" font-size="14.00">4445</text>
</a>
</g>
</g>
<!-- 1975&#45;&gt;4445 -->
<g id="edge49" class="edge"><title>1975&#45;&gt;4445</title>
<path fill="none" stroke="black" d="M918.487,-894.171C922.744,-918.218 930.214,-960.424 934.468,-984.454"/>
</g>
<!-- 2865 -->
<g id="node36" class="node"><title>2865</title>
<g id="a_node36"><a xlink:title="6th_week">
<ellipse fill="#c81d25" stroke="black" cx="1129.29" cy="-706.321" rx="28.6953" ry="18"/>
<text text-anchor="middle" x="1129.29" y="-702.621" font-family="Times,serif" font-size="14.00">2865</text>
</a>
</g>
</g>
<!-- 2183&#45;&gt;2865 -->
<g id="edge51" class="edge"><title>2183&#45;&gt;2865</title>
<path fill="none" stroke="black" d="M1083.34,-642.808C1093.29,-656.557 1107.36,-676 1117.3,-689.743"/>
</g>
<!-- 4720 -->
<g id="node39" class="node"><title>4720</title>
<g id="a_node39"><a xlink:title="6th_week">
<ellipse fill="#c81d25" stroke="black" cx="1206.44" cy="-615.926" rx="28.6953" ry="18"/>
<text text-anchor="middle" x="1206.44" y="-612.226" font-family="Times,serif" font-size="14.00">4720</text>
</a>
</g>
</g>
<!-- 2183&#45;&gt;4720 -->
<g id="edge42" class="edge"><title>2183&#45;&gt;4720</title>
<path fill="none" stroke="black" d="M1099.98,-624.028C1122.91,-622.283 1154.91,-619.848 1177.83,-618.104"/>
</g>
<!-- 6680 -->
<g id="node43" class="node"><title>6680</title>
<g id="a_node43"><a xlink:title="6th_week">
<ellipse fill="#c81d25" stroke="black" cx="1201" cy="-709.742" rx="28.6953" ry="18"/>
<text text-anchor="middle" x="1201" y="-706.042" font-family="Times,serif" font-size="14.00">6680</text>
</a>
</g>
</g>
<!-- 2183&#45;&gt;6680 -->
<g id="edge38" class="edge"><title>2183&#45;&gt;6680</title>
<path fill="none" stroke="black" d="M1091.59,-639.261C1115.95,-654.954 1156.59,-681.129 1180.88,-696.781"/>
</g>
<!-- 8513 -->
<g id="node44" class="node"><title>8513</title>
<g id="a_node44"><a xlink:title="6th_week">
<ellipse fill="#c81d25" stroke="black" cx="1127.79" cy="-753.019" rx="28.6953" ry="18"/>
<text text-anchor="middle" x="1127.79" y="-749.319" font-family="Times,serif" font-size="14.00">8513</text>
</a>
</g>
</g>
<!-- 2183&#45;&gt;8513 -->
<g id="edge39" class="edge"><title>2183&#45;&gt;8513</title>
<path fill="none" stroke="black" d="M1079.06,-643.575C1089.81,-667.724 1109.17,-711.202 1119.97,-735.455"/>
</g>
<!-- 9411 -->
<g id="node45" class="node"><title>9411</title>
<g id="a_node45"><a xlink:title="6th_week">
<ellipse fill="#c81d25" stroke="black" cx="1203.21" cy="-663.315" rx="28.6953" ry="18"/>
<text text-anchor="middle" x="1203.21" y="-659.615" font-family="Times,serif" font-size="14.00">9411</text>
</a>
</g>
</g>
<!-- 2183&#45;&gt;9411 -->
<g id="edge1" class="edge"><title>2183&#45;&gt;9411</title>
<path fill="none" stroke="black" d="M1097.7,-633.628C1120.7,-640.1 1153.9,-649.44 1176.89,-655.908"/>
</g>
<!-- 3969 -->
<g id="node51" class="node"><title>3969</title>
<g id="a_node51"><a xlink:title="Day_0">
<ellipse fill="#e5dada" stroke="black" cx="1218.77" cy="-18.4118" rx="28.6953" ry="18"/>
<text text-anchor="middle" x="1218.77" y="-14.7118" font-family="Times,serif" font-size="14.00">3969</text>
</a>
</g>
</g>
<!-- 2557&#45;&gt;3969 -->
<g id="edge17" class="edge"><title>2557&#45;&gt;3969</title>
<path fill="none" stroke="black" d="M1189.52,-122.749C1196.01,-99.6016 1207.29,-59.3442 1213.78,-36.1862"/>
</g>
<!-- 5563 -->
<g id="node48" class="node"><title>5563</title>
<g id="a_node48"><a xlink:title="Day_0">
<ellipse fill="#e5dada" stroke="black" cx="1363.29" cy="-90.9849" rx="28.6953" ry="18"/>
<text text-anchor="middle" x="1363.29" y="-87.2849" font-family="Times,serif" font-size="14.00">5563</text>
</a>
</g>
</g>
<!-- 3835&#45;&gt;5563 -->
<g id="edge14" class="edge"><title>3835&#45;&gt;5563</title>
<path fill="none" stroke="black" d="M1294.48,-173.274C1309.84,-154.902 1334.67,-125.205 1349.93,-106.958"/>
</g>
<!-- 8710 -->
<g id="node49" class="node"><title>8710</title>
<g id="a_node49"><a xlink:title="Day_0">
<ellipse fill="#e5dada" stroke="black" cx="1438.7" cy="-191.9" rx="28.6953" ry="18"/>
<text text-anchor="middle" x="1438.7" y="-188.2" font-family="Times,serif" font-size="14.00">8710</text>
</a>
</g>
</g>
<!-- 8710&#45;&gt;9278 -->
<g id="edge19" class="edge"><title>8710&#45;&gt;9278</title>
<path fill="none" stroke="black" d="M1417.31,-203.951C1397.67,-215.019 1368.73,-231.332 1349.11,-242.388"/>
</g>
<!-- 9688 -->
<g id="node52" class="node"><title>9688</title>
<g id="a_node52"><a xlink:title="Day_0">
<ellipse fill="#e5dada" stroke="black" cx="1454.1" cy="-254.727" rx="28.6953" ry="18"/>
<text text-anchor="middle" x="1454.1" y="-251.027" font-family="Times,serif" font-size="14.00">9688</text>
</a>
</g>
</g>
<!-- 9278&#45;&gt;9688 -->
<g id="edge40" class="edge"><title>9278&#45;&gt;9688</title>
<path fill="none" stroke="black" d="M1356.45,-254.476C1376.98,-254.529 1404.52,-254.6 1425.12,-254.653"/>
</g>
</g>
</svg>
