<?xml version="1.0" encoding="UTF-8" standalone="no"?>
<!DOCTYPE svg PUBLIC "-//W3C//DTD SVG 1.1//EN"
 "http://www.w3.org/Graphics/SVG/1.1/DTD/svg11.dtd">
<!-- Generated by graphviz version 2.38.0 (20140413.2041)
 -->
<!-- Title: %3 Pages: 1 -->
<svg width="1693pt" height="1517pt"
 viewBox="0.00 0.00 1693.00 1517.00" xmlns="http://www.w3.org/2000/svg" xmlns:xlink="http://www.w3.org/1999/xlink">
<g id="graph0" class="graph" transform="scale(1 1) rotate(0) translate(4 1513)">
<title>%3</title>
<polygon fill="white" stroke="none" points="-4,4 -4,-1513 1689,-1513 1689,4 -4,4"/>
<!-- 1074 -->
<g id="node1" class="node"><title>1074</title>
<g id="a_node1"><a xlink:title="6th_week">
<ellipse fill="#c81d25" stroke="black" cx="647.269" cy="-175.888" rx="28.6953" ry="18"/>
<text text-anchor="middle" x="647.269" y="-172.188" font-family="Times,serif" font-size="14.00">1074</text>
</a>
</g>
</g>
<!-- 5000 -->
<g id="node3" class="node"><title>5000</title>
<g id="a_node3"><a xlink:title="6th_week">
<ellipse fill="#c81d25" stroke="black" cx="657.073" cy="-76.4539" rx="28.6953" ry="18"/>
<text text-anchor="middle" x="657.073" y="-72.7539" font-family="Times,serif" font-size="14.00">5000</text>
</a>
</g>
</g>
<!-- 1074&#45;&gt;5000 -->
<g id="edge39" class="edge"><title>1074&#45;&gt;5000</title>
<path fill="none" stroke="black" d="M649.067,-157.65C650.836,-139.709 653.521,-112.477 655.286,-94.5761"/>
</g>
<!-- 9033 -->
<g id="node5" class="node"><title>9033</title>
<g id="a_node5"><a xlink:title="6th_week">
<ellipse fill="#c81d25" stroke="black" cx="664.257" cy="-17.5726" rx="28.6953" ry="18"/>
<text text-anchor="middle" x="664.257" y="-13.8726" font-family="Times,serif" font-size="14.00">9033</text>
</a>
</g>
</g>
<!-- 1074&#45;&gt;9033 -->
<g id="edge30" class="edge"><title>1074&#45;&gt;9033</title>
<path fill="none" stroke="black" d="M649.218,-157.727C652.477,-127.351 658.999,-66.5684 662.278,-36.0093"/>
</g>
<!-- 11133 -->
<g id="node6" class="node"><title>11133</title>
<g id="a_node6"><a xlink:title="6th_week">
<ellipse fill="#c81d25" stroke="black" cx="511.013" cy="-152.716" rx="32.4942" ry="18"/>
<text text-anchor="middle" x="511.013" y="-149.016" font-family="Times,serif" font-size="14.00">11133</text>
</a>
</g>
</g>
<!-- 1074&#45;&gt;11133 -->
<g id="edge26" class="edge"><title>1074&#45;&gt;11133</title>
<path fill="none" stroke="black" d="M619.367,-171.143C596.944,-167.33 565.463,-161.976 542.209,-158.021"/>
</g>
<!-- 16244 -->
<g id="node8" class="node"><title>16244</title>
<g id="a_node8"><a xlink:title="6th_week">
<ellipse fill="#c81d25" stroke="black" cx="579.759" cy="-43.4493" rx="32.4942" ry="18"/>
<text text-anchor="middle" x="579.759" y="-39.7493" font-family="Times,serif" font-size="14.00">16244</text>
</a>
</g>
</g>
<!-- 1074&#45;&gt;16244 -->
<g id="edge6" class="edge"><title>1074&#45;&gt;16244</title>
<path fill="none" stroke="black" d="M638.443,-158.574C625.577,-133.333 601.791,-86.671 588.802,-61.1904"/>
</g>
<!-- 17469 -->
<g id="node9" class="node"><title>17469</title>
<g id="a_node9"><a xlink:title="6th_week">
<ellipse fill="#c81d25" stroke="black" cx="531.346" cy="-96.0273" rx="32.4942" ry="18"/>
<text text-anchor="middle" x="531.346" y="-92.3273" font-family="Times,serif" font-size="14.00">17469</text>
</a>
</g>
</g>
<!-- 1074&#45;&gt;17469 -->
<g id="edge17" class="edge"><title>1074&#45;&gt;17469</title>
<path fill="none" stroke="black" d="M627.866,-162.521C606.854,-148.046 573.469,-125.047 551.986,-110.247"/>
</g>
<!-- 20145 -->
<g id="node10" class="node"><title>20145</title>
<g id="a_node10"><a xlink:title="6th_week">
<ellipse fill="#c81d25" stroke="black" cx="726.163" cy="-391.409" rx="32.4942" ry="18"/>
<text text-anchor="middle" x="726.163" y="-387.709" font-family="Times,serif" font-size="14.00">20145</text>
</a>
</g>
</g>
<!-- 1074&#45;&gt;20145 -->
<g id="edge15" class="edge"><title>1074&#45;&gt;20145</title>
<path fill="none" stroke="black" d="M653.725,-193.525C668.519,-233.939 704.738,-332.88 719.617,-373.528"/>
</g>
<!-- 31173 -->
<g id="node13" class="node"><title>31173</title>
<g id="a_node13"><a xlink:title="6th_week">
<ellipse fill="#c81d25" stroke="black" cx="732.465" cy="-63.2206" rx="32.4942" ry="18"/>
<text text-anchor="middle" x="732.465" y="-59.5206" font-family="Times,serif" font-size="14.00">31173</text>
</a>
</g>
</g>
<!-- 1074&#45;&gt;31173 -->
<g id="edge23" class="edge"><title>1074&#45;&gt;31173</title>
<path fill="none" stroke="black" d="M659.84,-159.264C675.948,-137.962 703.71,-101.248 719.842,-79.9133"/>
</g>
<!-- 2714 -->
<g id="node2" class="node"><title>2714</title>
<g id="a_node2"><a xlink:title="6th_week">
<ellipse fill="#c81d25" stroke="black" cx="795.794" cy="-577.347" rx="28.6953" ry="18"/>
<text text-anchor="middle" x="795.794" y="-573.647" font-family="Times,serif" font-size="14.00">2714</text>
</a>
</g>
</g>
<!-- 13580 -->
<g id="node7" class="node"><title>13580</title>
<g id="a_node7"><a xlink:title="6th_week">
<ellipse fill="#c81d25" stroke="black" cx="885.645" cy="-786.495" rx="32.4942" ry="18"/>
<text text-anchor="middle" x="885.645" y="-782.795" font-family="Times,serif" font-size="14.00">13580</text>
</a>
</g>
</g>
<!-- 2714&#45;&gt;13580 -->
<g id="edge27" class="edge"><title>2714&#45;&gt;13580</title>
<path fill="none" stroke="black" d="M803.3,-594.819C820.213,-634.188 861.145,-729.465 878.097,-768.926"/>
</g>
<!-- 2714&#45;&gt;20145 -->
<g id="edge44" class="edge"><title>2714&#45;&gt;20145</title>
<path fill="none" stroke="black" d="M789.118,-559.518C775.808,-523.978 746.112,-444.679 732.819,-409.183"/>
</g>
<!-- 5928 -->
<g id="node4" class="node"><title>5928</title>
<g id="a_node4"><a xlink:title="6th_week">
<ellipse fill="#c81d25" stroke="black" cx="784.312" cy="-698.503" rx="28.6953" ry="18"/>
<text text-anchor="middle" x="784.312" y="-694.803" font-family="Times,serif" font-size="14.00">5928</text>
</a>
</g>
</g>
<!-- 5928&#45;&gt;13580 -->
<g id="edge10" class="edge"><title>5928&#45;&gt;13580</title>
<path fill="none" stroke="black" d="M801.502,-713.43C820.023,-729.512 849.346,-754.975 868.031,-771.199"/>
</g>
<!-- 21463 -->
<g id="node11" class="node"><title>21463</title>
<g id="a_node11"><a xlink:title="6th_week">
<ellipse fill="#c81d25" stroke="black" cx="718.321" cy="-1015.95" rx="32.4942" ry="18"/>
<text text-anchor="middle" x="718.321" y="-1012.25" font-family="Times,serif" font-size="14.00">21463</text>
</a>
</g>
</g>
<!-- 13580&#45;&gt;21463 -->
<g id="edge33" class="edge"><title>13580&#45;&gt;21463</title>
<path fill="none" stroke="black" d="M873.341,-803.368C842.398,-845.801 761.605,-956.596 730.643,-999.056"/>
</g>
<!-- 26119 -->
<g id="node12" class="node"><title>26119</title>
<g id="a_node12"><a xlink:title="6th_week">
<ellipse fill="#c81d25" stroke="black" cx="748.475" cy="-788.22" rx="32.4942" ry="18"/>
<text text-anchor="middle" x="748.475" y="-784.52" font-family="Times,serif" font-size="14.00">26119</text>
</a>
</g>
</g>
<!-- 13580&#45;&gt;26119 -->
<g id="edge36" class="edge"><title>13580&#45;&gt;26119</title>
<path fill="none" stroke="black" d="M853.138,-786.904C831.43,-787.177 802.982,-787.534 781.225,-787.808"/>
</g>
<!-- 18218 -->
<g id="node31" class="node"><title>18218</title>
<g id="a_node31"><a xlink:title="6th_week">
<ellipse fill="#c81d25" stroke="black" cx="1130" cy="-702.808" rx="32.4942" ry="18"/>
<text text-anchor="middle" x="1130" y="-699.108" font-family="Times,serif" font-size="14.00">18218</text>
</a>
</g>
</g>
<!-- 13580&#45;&gt;18218 -->
<g id="edge32" class="edge"><title>13580&#45;&gt;18218</title>
<path fill="none" stroke="black" d="M913.676,-776.895C960.812,-760.752 1055.38,-728.364 1102.3,-712.296"/>
</g>
<!-- 7255 -->
<g id="node20" class="node"><title>7255</title>
<g id="a_node20"><a xlink:title="6th_week">
<ellipse fill="#c81d25" stroke="black" cx="821.987" cy="-1202.75" rx="28.6953" ry="18"/>
<text text-anchor="middle" x="821.987" y="-1199.05" font-family="Times,serif" font-size="14.00">7255</text>
</a>
</g>
</g>
<!-- 21463&#45;&gt;7255 -->
<g id="edge9" class="edge"><title>21463&#45;&gt;7255</title>
<path fill="none" stroke="black" d="M727.888,-1033.19C747.636,-1068.78 792.714,-1150 812.443,-1185.55"/>
</g>
<!-- 18827 -->
<g id="node32" class="node"><title>18827</title>
<g id="a_node32"><a xlink:title="6th_week">
<ellipse fill="#c81d25" stroke="black" cx="488.788" cy="-1143.24" rx="32.4942" ry="18"/>
<text text-anchor="middle" x="488.788" y="-1139.54" font-family="Times,serif" font-size="14.00">18827</text>
</a>
</g>
</g>
<!-- 21463&#45;&gt;18827 -->
<g id="edge46" class="edge"><title>21463&#45;&gt;18827</title>
<path fill="none" stroke="black" d="M695.049,-1028.86C650.941,-1053.32 555.671,-1106.15 511.78,-1130.49"/>
</g>
<!-- 1130 -->
<g id="node14" class="node"><title>1130</title>
<g id="a_node14"><a xlink:title="6th_week">
<ellipse fill="#c81d25" stroke="black" cx="313.441" cy="-1234.34" rx="28.6953" ry="18"/>
<text text-anchor="middle" x="313.441" y="-1230.64" font-family="Times,serif" font-size="14.00">1130</text>
</a>
</g>
</g>
<!-- 1130&#45;&gt;18827 -->
<g id="edge8" class="edge"><title>1130&#45;&gt;18827</title>
<path fill="none" stroke="black" d="M335.649,-1222.8C368.825,-1205.57 431.057,-1173.23 465.083,-1155.55"/>
</g>
<!-- 19994 -->
<g id="node33" class="node"><title>19994</title>
<g id="a_node33"><a xlink:title="6th_week">
<ellipse fill="#c81d25" stroke="black" cx="171.087" cy="-1305.07" rx="32.4942" ry="18"/>
<text text-anchor="middle" x="171.087" y="-1301.37" font-family="Times,serif" font-size="14.00">19994</text>
</a>
</g>
</g>
<!-- 1130&#45;&gt;19994 -->
<g id="edge41" class="edge"><title>1130&#45;&gt;19994</title>
<path fill="none" stroke="black" d="M290.884,-1245.55C264.856,-1258.48 222.212,-1279.67 195.445,-1292.96"/>
</g>
<!-- 2636 -->
<g id="node15" class="node"><title>2636</title>
<g id="a_node15"><a xlink:title="6th_week">
<ellipse fill="#c81d25" stroke="black" cx="850.302" cy="-1344.65" rx="28.6953" ry="18"/>
<text text-anchor="middle" x="850.302" y="-1340.95" font-family="Times,serif" font-size="14.00">2636</text>
</a>
</g>
</g>
<!-- 2636&#45;&gt;7255 -->
<g id="edge42" class="edge"><title>2636&#45;&gt;7255</title>
<path fill="none" stroke="black" d="M846.716,-1326.68C841.299,-1299.53 831.086,-1248.35 825.634,-1221.02"/>
</g>
<!-- 4473 -->
<g id="node16" class="node"><title>4473</title>
<g id="a_node16"><a xlink:title="6th_week">
<ellipse fill="#c81d25" stroke="black" cx="371.181" cy="-1123.89" rx="28.6953" ry="18"/>
<text text-anchor="middle" x="371.181" y="-1120.19" font-family="Times,serif" font-size="14.00">4473</text>
</a>
</g>
</g>
<!-- 4473&#45;&gt;18827 -->
<g id="edge35" class="edge"><title>4473&#45;&gt;18827</title>
<path fill="none" stroke="black" d="M399.052,-1128.47C416.577,-1131.36 439.226,-1135.08 457.385,-1138.07"/>
</g>
<!-- 5498 -->
<g id="node17" class="node"><title>5498</title>
<g id="a_node17"><a xlink:title="6th_week">
<ellipse fill="#c81d25" stroke="black" cx="1150.5" cy="-604.812" rx="28.6953" ry="18"/>
<text text-anchor="middle" x="1150.5" y="-601.112" font-family="Times,serif" font-size="14.00">5498</text>
</a>
</g>
</g>
<!-- 5498&#45;&gt;18218 -->
<g id="edge4" class="edge"><title>5498&#45;&gt;18218</title>
<path fill="none" stroke="black" d="M1146.74,-622.786C1143.06,-640.357 1137.5,-666.971 1133.81,-684.616"/>
</g>
<!-- 6258 -->
<g id="node18" class="node"><title>6258</title>
<g id="a_node18"><a xlink:title="6th_week">
<ellipse fill="#c81d25" stroke="black" cx="400.844" cy="-1254.66" rx="28.6953" ry="18"/>
<text text-anchor="middle" x="400.844" y="-1250.96" font-family="Times,serif" font-size="14.00">6258</text>
</a>
</g>
</g>
<!-- 6258&#45;&gt;18827 -->
<g id="edge19" class="edge"><title>6258&#45;&gt;18827</title>
<path fill="none" stroke="black" d="M413.82,-1238.22C430.447,-1217.16 459.105,-1180.85 475.758,-1159.75"/>
</g>
<!-- 6981 -->
<g id="node19" class="node"><title>6981</title>
<g id="a_node19"><a xlink:title="6th_week">
<ellipse fill="#c81d25" stroke="black" cx="563.221" cy="-1244.69" rx="28.6953" ry="18"/>
<text text-anchor="middle" x="563.221" y="-1240.99" font-family="Times,serif" font-size="14.00">6981</text>
</a>
</g>
</g>
<!-- 6981&#45;&gt;18827 -->
<g id="edge38" class="edge"><title>6981&#45;&gt;18827</title>
<path fill="none" stroke="black" d="M550.93,-1227.94C537.139,-1209.14 514.896,-1178.82 501.098,-1160.02"/>
</g>
<!-- 12135 -->
<g id="node25" class="node"><title>12135</title>
<g id="a_node25"><a xlink:title="6th_week">
<ellipse fill="#c81d25" stroke="black" cx="777.237" cy="-1331.3" rx="32.4942" ry="18"/>
<text text-anchor="middle" x="777.237" y="-1327.6" font-family="Times,serif" font-size="14.00">12135</text>
</a>
</g>
</g>
<!-- 7255&#45;&gt;12135 -->
<g id="edge11" class="edge"><title>7255&#45;&gt;12135</title>
<path fill="none" stroke="black" d="M815.859,-1220.35C807.337,-1244.83 791.994,-1288.91 783.435,-1313.49"/>
</g>
<!-- 27824 -->
<g id="node38" class="node"><title>27824</title>
<g id="a_node38"><a xlink:title="6th_week">
<ellipse fill="#c81d25" stroke="black" cx="945.902" cy="-1252.07" rx="32.4942" ry="18"/>
<text text-anchor="middle" x="945.902" y="-1248.37" font-family="Times,serif" font-size="14.00">27824</text>
</a>
</g>
</g>
<!-- 7255&#45;&gt;27824 -->
<g id="edge1" class="edge"><title>7255&#45;&gt;27824</title>
<path fill="none" stroke="black" d="M846.173,-1212.38C867.162,-1220.73 897.503,-1232.81 919.199,-1241.44"/>
</g>
<!-- 31430 -->
<g id="node41" class="node"><title>31430</title>
<g id="a_node41"><a xlink:title="6th_week">
<ellipse fill="#c81d25" stroke="black" cx="932.191" cy="-1308.12" rx="32.4942" ry="18"/>
<text text-anchor="middle" x="932.191" y="-1304.42" font-family="Times,serif" font-size="14.00">31430</text>
</a>
</g>
</g>
<!-- 7255&#45;&gt;31430 -->
<g id="edge3" class="edge"><title>7255&#45;&gt;31430</title>
<path fill="none" stroke="black" d="M837.777,-1217.85C858.488,-1237.65 894.662,-1272.24 915.711,-1292.36"/>
</g>
<!-- 7611 -->
<g id="node21" class="node"><title>7611</title>
<g id="a_node21"><a xlink:title="6th_week">
<ellipse fill="#c81d25" stroke="black" cx="1110.12" cy="-830.491" rx="28.6953" ry="18"/>
<text text-anchor="middle" x="1110.12" y="-826.791" font-family="Times,serif" font-size="14.00">7611</text>
</a>
</g>
</g>
<!-- 7611&#45;&gt;18218 -->
<g id="edge48" class="edge"><title>7611&#45;&gt;18218</title>
<path fill="none" stroke="black" d="M1112.92,-812.468C1116.69,-788.271 1123.35,-745.513 1127.15,-721.153"/>
</g>
<!-- 8711 -->
<g id="node22" class="node"><title>8711</title>
<g id="a_node22"><a xlink:title="6th_week">
<ellipse fill="#c81d25" stroke="black" cx="151.538" cy="-1050.76" rx="28.6953" ry="18"/>
<text text-anchor="middle" x="151.538" y="-1047.06" font-family="Times,serif" font-size="14.00">8711</text>
</a>
</g>
</g>
<!-- 17884 -->
<g id="node29" class="node"><title>17884</title>
<g id="a_node29"><a xlink:title="6th_week">
<ellipse fill="#c81d25" stroke="black" cx="290.637" cy="-1078.92" rx="32.4942" ry="18"/>
<text text-anchor="middle" x="290.637" y="-1075.22" font-family="Times,serif" font-size="14.00">17884</text>
</a>
</g>
</g>
<!-- 8711&#45;&gt;17884 -->
<g id="edge7" class="edge"><title>8711&#45;&gt;17884</title>
<path fill="none" stroke="black" d="M179.019,-1056.32C202.297,-1061.04 235.645,-1067.79 259.823,-1072.68"/>
</g>
<!-- 9724 -->
<g id="node23" class="node"><title>9724</title>
<g id="a_node23"><a xlink:title="6th_week">
<ellipse fill="#c81d25" stroke="black" cx="28.1978" cy="-1378.36" rx="28.6953" ry="18"/>
<text text-anchor="middle" x="28.1978" y="-1374.66" font-family="Times,serif" font-size="14.00">9724</text>
</a>
</g>
</g>
<!-- 9724&#45;&gt;19994 -->
<g id="edge12" class="edge"><title>9724&#45;&gt;19994</title>
<path fill="none" stroke="black" d="M50.5243,-1366.91C76.7405,-1353.46 120.059,-1331.24 147.01,-1317.42"/>
</g>
<!-- 12059 -->
<g id="node24" class="node"><title>12059</title>
<g id="a_node24"><a xlink:title="6th_week">
<ellipse fill="#c81d25" stroke="black" cx="480.502" cy="-1285.93" rx="32.4942" ry="18"/>
<text text-anchor="middle" x="480.502" y="-1282.23" font-family="Times,serif" font-size="14.00">12059</text>
</a>
</g>
</g>
<!-- 12059&#45;&gt;18827 -->
<g id="edge5" class="edge"><title>12059&#45;&gt;18827</title>
<path fill="none" stroke="black" d="M481.552,-1267.85C483.137,-1240.56 486.126,-1189.09 487.721,-1161.61"/>
</g>
<!-- 15138 -->
<g id="node26" class="node"><title>15138</title>
<g id="a_node26"><a xlink:title="6th_week">
<ellipse fill="#c81d25" stroke="black" cx="1238.31" cy="-752.187" rx="32.4942" ry="18"/>
<text text-anchor="middle" x="1238.31" y="-748.487" font-family="Times,serif" font-size="14.00">15138</text>
</a>
</g>
</g>
<!-- 15138&#45;&gt;18218 -->
<g id="edge16" class="edge"><title>15138&#45;&gt;18218</title>
<path fill="none" stroke="black" d="M1213.19,-740.734C1195.82,-732.814 1172.79,-722.313 1155.36,-714.37"/>
</g>
<!-- 15391 -->
<g id="node27" class="node"><title>15391</title>
<g id="a_node27"><a xlink:title="6th_week">
<ellipse fill="#c81d25" stroke="black" cx="1339.97" cy="-650.052" rx="32.4942" ry="18"/>
<text text-anchor="middle" x="1339.97" y="-646.352" font-family="Times,serif" font-size="14.00">15391</text>
</a>
</g>
</g>
<!-- 15391&#45;&gt;18218 -->
<g id="edge45" class="edge"><title>15391&#45;&gt;18218</title>
<path fill="none" stroke="black" d="M1310.34,-657.499C1270.43,-667.525 1199.83,-685.263 1159.83,-695.314"/>
</g>
<!-- 9641 -->
<g id="node50" class="node"><title>9641</title>
<g id="a_node50"><a xlink:title="6th_week">
<ellipse fill="#c81d25" stroke="black" cx="1469.43" cy="-583.173" rx="28.6953" ry="18"/>
<text text-anchor="middle" x="1469.43" y="-579.473" font-family="Times,serif" font-size="14.00">9641</text>
</a>
</g>
</g>
<!-- 15391&#45;&gt;9641 -->
<g id="edge25" class="edge"><title>15391&#45;&gt;9641</title>
<path fill="none" stroke="black" d="M1364.02,-637.629C1387.86,-625.315 1424.07,-606.605 1447.24,-594.636"/>
</g>
<!-- 17814 -->
<g id="node28" class="node"><title>17814</title>
<g id="a_node28"><a xlink:title="6th_week">
<ellipse fill="#c81d25" stroke="black" cx="1333.56" cy="-735.235" rx="32.4942" ry="18"/>
<text text-anchor="middle" x="1333.56" y="-731.535" font-family="Times,serif" font-size="14.00">17814</text>
</a>
</g>
</g>
<!-- 17814&#45;&gt;18218 -->
<g id="edge22" class="edge"><title>17814&#45;&gt;18218</title>
<path fill="none" stroke="black" d="M1302.2,-730.239C1263.95,-724.146 1199.67,-713.906 1161.4,-707.809"/>
</g>
<!-- 25477 -->
<g id="node35" class="node"><title>25477</title>
<g id="a_node35"><a xlink:title="6th_week">
<ellipse fill="#c81d25" stroke="black" cx="1496.91" cy="-753.347" rx="32.4942" ry="18"/>
<text text-anchor="middle" x="1496.91" y="-749.647" font-family="Times,serif" font-size="14.00">25477</text>
</a>
</g>
</g>
<!-- 17814&#45;&gt;25477 -->
<g id="edge50" class="edge"><title>17814&#45;&gt;25477</title>
<path fill="none" stroke="black" d="M1365.44,-738.77C1394.13,-741.951 1436.08,-746.602 1464.83,-749.79"/>
</g>
<!-- 17884&#45;&gt;18827 -->
<g id="edge13" class="edge"><title>17884&#45;&gt;18827</title>
<path fill="none" stroke="black" d="M319.027,-1088.13C356.696,-1100.36 422.809,-1121.82 460.451,-1134.04"/>
</g>
<!-- 17980 -->
<g id="node30" class="node"><title>17980</title>
<g id="a_node30"><a xlink:title="6th_week">
<ellipse fill="#c81d25" stroke="black" cx="424.477" cy="-1330.66" rx="32.4942" ry="18"/>
<text text-anchor="middle" x="424.477" y="-1326.96" font-family="Times,serif" font-size="14.00">17980</text>
</a>
</g>
</g>
<!-- 17980&#45;&gt;18827 -->
<g id="edge20" class="edge"><title>17980&#45;&gt;18827</title>
<path fill="none" stroke="black" d="M430.644,-1312.69C442.936,-1276.87 470.363,-1196.93 482.64,-1161.15"/>
</g>
<!-- 8324 -->
<g id="node43" class="node"><title>8324</title>
<g id="a_node43"><a xlink:title="6th_week">
<ellipse fill="#c81d25" stroke="black" cx="421.549" cy="-1491.27" rx="28.6953" ry="18"/>
<text text-anchor="middle" x="421.549" y="-1487.57" font-family="Times,serif" font-size="14.00">8324</text>
</a>
</g>
</g>
<!-- 17980&#45;&gt;8324 -->
<g id="edge28" class="edge"><title>17980&#45;&gt;8324</title>
<path fill="none" stroke="black" d="M424.147,-1348.78C423.585,-1379.62 422.447,-1442.01 421.883,-1472.98"/>
</g>
<!-- 15006 -->
<g id="node44" class="node"><title>15006</title>
<g id="a_node44"><a xlink:title="6th_week">
<ellipse fill="#c81d25" stroke="black" cx="343.156" cy="-1474.56" rx="32.4942" ry="18"/>
<text text-anchor="middle" x="343.156" y="-1470.86" font-family="Times,serif" font-size="14.00">15006</text>
</a>
</g>
</g>
<!-- 17980&#45;&gt;15006 -->
<g id="edge40" class="edge"><title>17980&#45;&gt;15006</title>
<path fill="none" stroke="black" d="M414.668,-1348.02C399.038,-1375.68 368.652,-1429.44 353,-1457.14"/>
</g>
<!-- 26919 -->
<g id="node36" class="node"><title>26919</title>
<g id="a_node36"><a xlink:title="6th_week">
<ellipse fill="#c81d25" stroke="black" cx="1257.61" cy="-683.633" rx="32.4942" ry="18"/>
<text text-anchor="middle" x="1257.61" y="-679.933" font-family="Times,serif" font-size="14.00">26919</text>
</a>
</g>
</g>
<!-- 18218&#45;&gt;26919 -->
<g id="edge21" class="edge"><title>18218&#45;&gt;26919</title>
<path fill="none" stroke="black" d="M1161.55,-698.068C1181.18,-695.118 1206.34,-691.337 1225.98,-688.385"/>
</g>
<!-- 27012 -->
<g id="node37" class="node"><title>27012</title>
<g id="a_node37"><a xlink:title="6th_week">
<ellipse fill="#c81d25" stroke="black" cx="1027.48" cy="-633.519" rx="32.4942" ry="18"/>
<text text-anchor="middle" x="1027.48" y="-629.819" font-family="Times,serif" font-size="14.00">27012</text>
</a>
</g>
</g>
<!-- 18218&#45;&gt;27012 -->
<g id="edge14" class="edge"><title>18218&#45;&gt;27012</title>
<path fill="none" stroke="black" d="M1109.26,-688.786C1091.47,-676.765 1065.97,-659.535 1048.19,-647.52"/>
</g>
<!-- 29323 -->
<g id="node39" class="node"><title>29323</title>
<g id="a_node39"><a xlink:title="6th_week">
<ellipse fill="#c81d25" stroke="black" cx="1139.07" cy="-533.834" rx="32.4942" ry="18"/>
<text text-anchor="middle" x="1139.07" y="-530.134" font-family="Times,serif" font-size="14.00">29323</text>
</a>
</g>
</g>
<!-- 18218&#45;&gt;29323 -->
<g id="edge37" class="edge"><title>18218&#45;&gt;29323</title>
<path fill="none" stroke="black" d="M1130.97,-684.725C1132.71,-652.287 1136.35,-584.571 1138.09,-552.042"/>
</g>
<!-- 29563 -->
<g id="node40" class="node"><title>29563</title>
<g id="a_node40"><a xlink:title="6th_week">
<ellipse fill="#c81d25" stroke="black" cx="1185.89" cy="-846.501" rx="32.4942" ry="18"/>
<text text-anchor="middle" x="1185.89" y="-842.801" font-family="Times,serif" font-size="14.00">29563</text>
</a>
</g>
</g>
<!-- 18218&#45;&gt;29563 -->
<g id="edge49" class="edge"><title>18218&#45;&gt;29563</title>
<path fill="none" stroke="black" d="M1136.86,-720.428C1147.58,-748.006 1168.22,-801.07 1178.98,-828.738"/>
</g>
<!-- 17289 -->
<g id="node45" class="node"><title>17289</title>
<g id="a_node45"><a xlink:title="6th_week">
<ellipse fill="#c81d25" stroke="black" cx="1246.66" cy="-613.2" rx="32.4942" ry="18"/>
<text text-anchor="middle" x="1246.66" y="-609.5" font-family="Times,serif" font-size="14.00">17289</text>
</a>
</g>
</g>
<!-- 18218&#45;&gt;17289 -->
<g id="edge24" class="edge"><title>18218&#45;&gt;17289</title>
<path fill="none" stroke="black" d="M1149.27,-688.011C1170.88,-671.408 1205.74,-644.631 1227.37,-628.019"/>
</g>
<!-- 1254 -->
<g id="node48" class="node"><title>1254</title>
<g id="a_node48"><a xlink:title="6th_week">
<ellipse fill="#c81d25" stroke="black" cx="1066.21" cy="-567.164" rx="28.6953" ry="18"/>
<text text-anchor="middle" x="1066.21" y="-563.464" font-family="Times,serif" font-size="14.00">1254</text>
</a>
</g>
</g>
<!-- 18218&#45;&gt;1254 -->
<g id="edge31" class="edge"><title>18218&#45;&gt;1254</title>
<path fill="none" stroke="black" d="M1121.79,-685.353C1109.55,-659.307 1086.62,-610.559 1074.39,-584.553"/>
</g>
<!-- 1333 -->
<g id="node49" class="node"><title>1333</title>
<g id="a_node49"><a xlink:title="6th_week">
<ellipse fill="#c81d25" stroke="black" cx="1220.64" cy="-564.564" rx="28.6953" ry="18"/>
<text text-anchor="middle" x="1220.64" y="-560.864" font-family="Times,serif" font-size="14.00">1333</text>
</a>
</g>
</g>
<!-- 18218&#45;&gt;1333 -->
<g id="edge47" class="edge"><title>18218&#45;&gt;1333</title>
<path fill="none" stroke="black" d="M1141.12,-685.857C1158.61,-659.18 1192.35,-607.716 1209.72,-581.222"/>
</g>
<!-- 24155 -->
<g id="node51" class="node"><title>24155</title>
<g id="a_node51"><a xlink:title="6th_week">
<ellipse fill="#c81d25" stroke="black" cx="1274.24" cy="-814.499" rx="32.4942" ry="18"/>
<text text-anchor="middle" x="1274.24" y="-810.799" font-family="Times,serif" font-size="14.00">24155</text>
</a>
</g>
</g>
<!-- 18218&#45;&gt;24155 -->
<g id="edge43" class="edge"><title>18218&#45;&gt;24155</title>
<path fill="none" stroke="black" d="M1149.16,-717.64C1176.74,-739.002 1227.37,-778.21 1255,-799.606"/>
</g>
<!-- 20598 -->
<g id="node34" class="node"><title>20598</title>
<g id="a_node34"><a xlink:title="6th_week">
<ellipse fill="#c81d25" stroke="black" cx="340.782" cy="-1179.86" rx="32.4942" ry="18"/>
<text text-anchor="middle" x="340.782" y="-1176.16" font-family="Times,serif" font-size="14.00">20598</text>
</a>
</g>
</g>
<!-- 18827&#45;&gt;20598 -->
<g id="edge34" class="edge"><title>18827&#45;&gt;20598</title>
<path fill="none" stroke="black" d="M458.837,-1150.65C433.159,-1157 396.354,-1166.11 370.689,-1172.46"/>
</g>
<!-- 31848 -->
<g id="node46" class="node"><title>31848</title>
<g id="a_node46"><a xlink:title="6th_week">
<ellipse fill="#c81d25" stroke="black" cx="455.306" cy="-1009.06" rx="32.4942" ry="18"/>
<text text-anchor="middle" x="455.306" y="-1005.36" font-family="Times,serif" font-size="14.00">31848</text>
</a>
</g>
</g>
<!-- 18827&#45;&gt;31848 -->
<g id="edge18" class="edge"><title>18827&#45;&gt;31848</title>
<path fill="none" stroke="black" d="M484.273,-1125.14C477.882,-1099.53 466.267,-1052.98 459.857,-1027.3"/>
</g>
<!-- 19762 -->
<g id="node47" class="node"><title>19762</title>
<g id="a_node47"><a xlink:title="6th_week">
<ellipse fill="#c81d25" stroke="black" cx="376.748" cy="-1038.46" rx="32.4942" ry="18"/>
<text text-anchor="middle" x="376.748" y="-1034.76" font-family="Times,serif" font-size="14.00">19762</text>
</a>
</g>
</g>
<!-- 18827&#45;&gt;19762 -->
<g id="edge29" class="edge"><title>18827&#45;&gt;19762</title>
<path fill="none" stroke="black" d="M471.772,-1127.32C450.591,-1107.52 414.642,-1073.9 393.558,-1054.18"/>
</g>
<!-- 3015 -->
<g id="node42" class="node"><title>3015</title>
<g id="a_node42"><a xlink:title="6th_week">
<ellipse fill="#c81d25" stroke="black" cx="1656.36" cy="-766.156" rx="28.6953" ry="18"/>
<text text-anchor="middle" x="1656.36" y="-762.456" font-family="Times,serif" font-size="14.00">3015</text>
</a>
</g>
</g>
<!-- 25477&#45;&gt;3015 -->
<g id="edge2" class="edge"><title>25477&#45;&gt;3015</title>
<path fill="none" stroke="black" d="M1529.18,-755.939C1558.11,-758.264 1600.17,-761.642 1627.88,-763.869"/>
</g>
</g>
</svg>
