<?xml version="1.0" encoding="UTF-8" standalone="no"?>
<!DOCTYPE svg PUBLIC "-//W3C//DTD SVG 1.1//EN"
 "http://www.w3.org/Graphics/SVG/1.1/DTD/svg11.dtd">
<!-- Generated by graphviz version 2.38.0 (20140413.2041)
 -->
<!-- Title: %3 Pages: 1 -->
<svg width="2053pt" height="1579pt"
 viewBox="0.00 0.00 2053.00 1579.00" xmlns="http://www.w3.org/2000/svg" xmlns:xlink="http://www.w3.org/1999/xlink">
<g id="graph0" class="graph" transform="scale(1 1) rotate(0) translate(4 1575)">
<title>%3</title>
<polygon fill="white" stroke="none" points="-4,4 -4,-1575 2049,-1575 2049,4 -4,4"/>
<!-- 71 -->
<g id="node1" class="node"><title>71</title>
<g id="a_node1"><a xlink:title="3rd_week">
<ellipse fill="#ee9898" stroke="black" cx="653.975" cy="-1075.87" rx="27" ry="18"/>
<text text-anchor="middle" x="653.975" y="-1072.17" font-family="Times,serif" font-size="14.00">71</text>
</a>
</g>
</g>
<!-- 25243 -->
<g id="node2" class="node"><title>25243</title>
<g id="a_node2"><a xlink:title="3rd_week">
<ellipse fill="#ee9898" stroke="black" cx="777.03" cy="-901.727" rx="32.4942" ry="18"/>
<text text-anchor="middle" x="777.03" y="-898.027" font-family="Times,serif" font-size="14.00">25243</text>
</a>
</g>
</g>
<!-- 71&#45;&gt;25243 -->
<g id="edge22" class="edge"><title>71&#45;&gt;25243</title>
<path fill="none" stroke="black" d="M665.552,-1059.49C688.885,-1026.47 741.353,-952.217 765.032,-918.706"/>
</g>
<!-- 32814 -->
<g id="node46" class="node"><title>32814</title>
<g id="a_node46"><a xlink:title="3rd_week">
<ellipse fill="#ee9898" stroke="black" cx="586.592" cy="-1010.11" rx="32.4942" ry="18"/>
<text text-anchor="middle" x="586.592" y="-1006.41" font-family="Times,serif" font-size="14.00">32814</text>
</a>
</g>
</g>
<!-- 25243&#45;&gt;32814 -->
<g id="edge33" class="edge"><title>25243&#45;&gt;32814</title>
<path fill="none" stroke="black" d="M754.059,-914.801C717.357,-935.689 645.914,-976.351 609.348,-997.162"/>
</g>
<!-- 35121 -->
<g id="node50" class="node"><title>35121</title>
<g id="a_node50"><a xlink:title="3rd_week,6th_week">
<ellipse fill="#ee9898" stroke="black" cx="1000.26" cy="-701.675" rx="32.4945" ry="18"/>
<ellipse fill="none" stroke="black" cx="1000.26" cy="-701.675" rx="36.4942" ry="22"/>
<text text-anchor="middle" x="1000.26" y="-697.975" font-family="Times,serif" font-size="14.00">35121</text>
</a>
</g>
</g>
<!-- 25243&#45;&gt;35121 -->
<g id="edge45" class="edge"><title>25243&#45;&gt;35121</title>
<path fill="none" stroke="black" d="M794.176,-886.361C834.706,-850.038 936.285,-759.005 979.872,-719.944"/>
</g>
<!-- 987 -->
<g id="node3" class="node"><title>987</title>
<g id="a_node3"><a xlink:title="3rd_week">
<ellipse fill="#ee9898" stroke="black" cx="1121.42" cy="-849.409" rx="27" ry="18"/>
<text text-anchor="middle" x="1121.42" y="-845.709" font-family="Times,serif" font-size="14.00">987</text>
</a>
</g>
</g>
<!-- 987&#45;&gt;35121 -->
<g id="edge2" class="edge"><title>987&#45;&gt;35121</title>
<path fill="none" stroke="black" d="M1108.46,-833.599C1086.24,-806.504 1040.92,-751.256 1016.58,-721.58"/>
</g>
<!-- 1972 -->
<g id="node4" class="node"><title>1972</title>
<g id="a_node4"><a xlink:title="3rd_week">
<ellipse fill="#ee9898" stroke="black" cx="814.506" cy="-776.522" rx="28.6953" ry="18"/>
<text text-anchor="middle" x="814.506" y="-772.822" font-family="Times,serif" font-size="14.00">1972</text>
</a>
</g>
</g>
<!-- 1972&#45;&gt;35121 -->
<g id="edge9" class="edge"><title>1972&#45;&gt;35121</title>
<path fill="none" stroke="black" d="M838.79,-766.737C872.422,-753.185 933.167,-728.708 969.798,-713.948"/>
</g>
<!-- 2795 -->
<g id="node5" class="node"><title>2795</title>
<g id="a_node5"><a xlink:title="6th_week">
<ellipse fill="#c81d25" stroke="black" cx="229.292" cy="-193.292" rx="28.6953" ry="18"/>
<text text-anchor="middle" x="229.292" y="-189.592" font-family="Times,serif" font-size="14.00">2795</text>
</a>
</g>
</g>
<!-- 4373 -->
<g id="node7" class="node"><title>4373</title>
<g id="a_node7"><a xlink:title="6th_week">
<ellipse fill="#c81d25" stroke="black" cx="432.879" cy="-338.458" rx="28.6953" ry="18"/>
<text text-anchor="middle" x="432.879" y="-334.758" font-family="Times,serif" font-size="14.00">4373</text>
</a>
</g>
</g>
<!-- 2795&#45;&gt;4373 -->
<g id="edge25" class="edge"><title>2795&#45;&gt;4373</title>
<path fill="none" stroke="black" d="M248.445,-206.949C287.346,-234.687 375.192,-297.325 413.926,-324.943"/>
</g>
<!-- 19549 -->
<g id="node31" class="node"><title>19549</title>
<g id="a_node31"><a xlink:title="6th_week">
<ellipse fill="#c81d25" stroke="black" cx="32.0357" cy="-161.976" rx="32.4942" ry="18"/>
<text text-anchor="middle" x="32.0357" y="-158.276" font-family="Times,serif" font-size="14.00">19549</text>
</a>
</g>
</g>
<!-- 2795&#45;&gt;19549 -->
<g id="edge46" class="edge"><title>2795&#45;&gt;19549</title>
<path fill="none" stroke="black" d="M201.448,-188.872C165.022,-183.089 101.37,-172.984 63.3179,-166.943"/>
</g>
<!-- 27317 -->
<g id="node39" class="node"><title>27317</title>
<g id="a_node39"><a xlink:title="6th_week">
<ellipse fill="#c81d25" stroke="black" cx="63.7997" cy="-77.6901" rx="32.4942" ry="18"/>
<text text-anchor="middle" x="63.7997" y="-73.9901" font-family="Times,serif" font-size="14.00">27317</text>
</a>
</g>
</g>
<!-- 2795&#45;&gt;27317 -->
<g id="edge23" class="edge"><title>2795&#45;&gt;27317</title>
<path fill="none" stroke="black" d="M209.984,-179.805C178.436,-157.768 116.143,-114.254 84.016,-91.8119"/>
</g>
<!-- 29658 -->
<g id="node43" class="node"><title>29658</title>
<g id="a_node43"><a xlink:title="6th_week">
<ellipse fill="#c81d25" stroke="black" cx="131.665" cy="-18.4455" rx="32.4942" ry="18"/>
<text text-anchor="middle" x="131.665" y="-14.7455" font-family="Times,serif" font-size="14.00">29658</text>
</a>
</g>
</g>
<!-- 2795&#45;&gt;29658 -->
<g id="edge20" class="edge"><title>2795&#45;&gt;29658</title>
<path fill="none" stroke="black" d="M219.753,-176.209C201.137,-142.868 160.149,-69.4592 141.387,-35.8573"/>
</g>
<!-- 2901 -->
<g id="node6" class="node"><title>2901</title>
<g id="a_node6"><a xlink:title="3rd_week">
<ellipse fill="#ee9898" stroke="black" cx="1058.48" cy="-442.462" rx="28.6953" ry="18"/>
<text text-anchor="middle" x="1058.48" y="-438.762" font-family="Times,serif" font-size="14.00">2901</text>
</a>
</g>
</g>
<!-- 21796 -->
<g id="node33" class="node"><title>21796</title>
<g id="a_node33"><a xlink:title="3rd_week">
<ellipse fill="#ee9898" stroke="black" cx="1086.78" cy="-248.698" rx="32.4942" ry="18"/>
<text text-anchor="middle" x="1086.78" y="-244.998" font-family="Times,serif" font-size="14.00">21796</text>
</a>
</g>
</g>
<!-- 2901&#45;&gt;21796 -->
<g id="edge7" class="edge"><title>2901&#45;&gt;21796</title>
<path fill="none" stroke="black" d="M1061.14,-424.233C1066.55,-387.209 1078.76,-303.601 1084.15,-266.737"/>
</g>
<!-- 2901&#45;&gt;35121 -->
<g id="edge30" class="edge"><title>2901&#45;&gt;35121</title>
<path fill="none" stroke="black" d="M1054.38,-460.689C1043.95,-507.13 1016.41,-629.763 1005.15,-679.873"/>
</g>
<!-- 6360 -->
<g id="node12" class="node"><title>6360</title>
<g id="a_node12"><a xlink:title="6th_week">
<ellipse fill="#c81d25" stroke="black" cx="267.252" cy="-362.862" rx="28.6953" ry="18"/>
<text text-anchor="middle" x="267.252" y="-359.162" font-family="Times,serif" font-size="14.00">6360</text>
</a>
</g>
</g>
<!-- 4373&#45;&gt;6360 -->
<g id="edge11" class="edge"><title>4373&#45;&gt;6360</title>
<path fill="none" stroke="black" d="M404.783,-342.598C374.234,-347.099 325.704,-354.25 295.21,-358.743"/>
</g>
<!-- 10392 -->
<g id="node19" class="node"><title>10392</title>
<g id="a_node19"><a xlink:title="6th_week">
<ellipse fill="#c81d25" stroke="black" cx="383.558" cy="-175.951" rx="32.4942" ry="18"/>
<text text-anchor="middle" x="383.558" y="-172.251" font-family="Times,serif" font-size="14.00">10392</text>
</a>
</g>
</g>
<!-- 4373&#45;&gt;10392 -->
<g id="edge16" class="edge"><title>4373&#45;&gt;10392</title>
<path fill="none" stroke="black" d="M427.507,-320.757C418.07,-289.662 398.613,-225.553 389.074,-194.126"/>
</g>
<!-- 16767 -->
<g id="node24" class="node"><title>16767</title>
<g id="a_node24"><a xlink:title="6th_week">
<ellipse fill="#c81d25" stroke="black" cx="294.029" cy="-263.85" rx="32.4942" ry="18"/>
<text text-anchor="middle" x="294.029" y="-260.15" font-family="Times,serif" font-size="14.00">16767</text>
</a>
</g>
</g>
<!-- 4373&#45;&gt;16767 -->
<g id="edge47" class="edge"><title>4373&#45;&gt;16767</title>
<path fill="none" stroke="black" d="M410.878,-326.636C385.491,-312.995 343.896,-290.645 317.787,-276.616"/>
</g>
<!-- 18696 -->
<g id="node29" class="node"><title>18696</title>
<g id="a_node29"><a xlink:title="3rd_week">
<ellipse fill="#ee9898" stroke="black" cx="703.045" cy="-517.198" rx="32.4942" ry="18"/>
<text text-anchor="middle" x="703.045" y="-513.498" font-family="Times,serif" font-size="14.00">18696</text>
</a>
</g>
</g>
<!-- 4373&#45;&gt;18696 -->
<g id="edge15" class="edge"><title>4373&#45;&gt;18696</title>
<path fill="none" stroke="black" d="M452.745,-351.601C502.342,-384.414 631.252,-469.7 682.04,-503.301"/>
</g>
<!-- 5129 -->
<g id="node8" class="node"><title>5129</title>
<g id="a_node8"><a xlink:title="3rd_week">
<ellipse fill="#ee9898" stroke="black" cx="1187.42" cy="-802.726" rx="28.6953" ry="18"/>
<text text-anchor="middle" x="1187.42" y="-799.026" font-family="Times,serif" font-size="14.00">5129</text>
</a>
</g>
</g>
<!-- 5129&#45;&gt;35121 -->
<g id="edge27" class="edge"><title>5129&#45;&gt;35121</title>
<path fill="none" stroke="black" d="M1165.58,-790.936C1131.35,-772.454 1065.11,-736.689 1027.7,-716.493"/>
</g>
<!-- 5569 -->
<g id="node9" class="node"><title>5569</title>
<g id="a_node9"><a xlink:title="3rd_week">
<ellipse fill="#ee9898" stroke="black" cx="837.646" cy="-570.588" rx="28.6953" ry="18"/>
<text text-anchor="middle" x="837.646" y="-566.888" font-family="Times,serif" font-size="14.00">5569</text>
</a>
</g>
</g>
<!-- 5569&#45;&gt;35121 -->
<g id="edge38" class="edge"><title>5569&#45;&gt;35121</title>
<path fill="none" stroke="black" d="M855.358,-584.867C885.238,-608.954 945.584,-657.601 978.177,-683.875"/>
</g>
<!-- 5875 -->
<g id="node10" class="node"><title>5875</title>
<g id="a_node10"><a xlink:title="6th_week">
<ellipse fill="#c81d25" stroke="black" cx="909.331" cy="-842.92" rx="28.6953" ry="18"/>
<text text-anchor="middle" x="909.331" y="-839.22" font-family="Times,serif" font-size="14.00">5875</text>
</a>
</g>
</g>
<!-- 5875&#45;&gt;35121 -->
<g id="edge41" class="edge"><title>5875&#45;&gt;35121</title>
<path fill="none" stroke="black" d="M920.118,-826.162C936.771,-800.294 968.706,-750.686 986.83,-722.532"/>
</g>
<!-- 6351 -->
<g id="node11" class="node"><title>6351</title>
<g id="a_node11"><a xlink:title="3rd_week">
<ellipse fill="#ee9898" stroke="black" cx="1132.32" cy="-757.852" rx="28.6953" ry="18"/>
<text text-anchor="middle" x="1132.32" y="-754.152" font-family="Times,serif" font-size="14.00">6351</text>
</a>
</g>
</g>
<!-- 6351&#45;&gt;35121 -->
<g id="edge29" class="edge"><title>6351&#45;&gt;35121</title>
<path fill="none" stroke="black" d="M1108.4,-747.678C1086.55,-738.383 1054.14,-724.594 1030.49,-714.537"/>
</g>
<!-- 6980 -->
<g id="node13" class="node"><title>6980</title>
<g id="a_node13"><a xlink:title="6th_week">
<ellipse fill="#c81d25" stroke="black" cx="1166" cy="-656.565" rx="28.6953" ry="18"/>
<text text-anchor="middle" x="1166" y="-652.865" font-family="Times,serif" font-size="14.00">6980</text>
</a>
</g>
</g>
<!-- 6980&#45;&gt;35121 -->
<g id="edge8" class="edge"><title>6980&#45;&gt;35121</title>
<path fill="none" stroke="black" d="M1139.73,-663.713C1110.98,-671.538 1064.81,-684.104 1033.54,-692.615"/>
</g>
<!-- 7196 -->
<g id="node14" class="node"><title>7196</title>
<g id="a_node14"><a xlink:title="3rd_week">
<ellipse fill="#ee9898" stroke="black" cx="1675.38" cy="-1177.59" rx="28.6953" ry="18"/>
<text text-anchor="middle" x="1675.38" y="-1173.89" font-family="Times,serif" font-size="14.00">7196</text>
</a>
</g>
</g>
<!-- 21721 -->
<g id="node32" class="node"><title>21721</title>
<g id="a_node32"><a xlink:title="3rd_week">
<ellipse fill="#ee9898" stroke="black" cx="1522.77" cy="-1124.47" rx="32.4942" ry="18"/>
<text text-anchor="middle" x="1522.77" y="-1120.77" font-family="Times,serif" font-size="14.00">21721</text>
</a>
</g>
</g>
<!-- 7196&#45;&gt;21721 -->
<g id="edge18" class="edge"><title>7196&#45;&gt;21721</title>
<path fill="none" stroke="black" d="M1650.18,-1168.82C1622.66,-1159.24 1578.74,-1143.95 1550.33,-1134.07"/>
</g>
<!-- 7906 -->
<g id="node15" class="node"><title>7906</title>
<g id="a_node15"><a xlink:title="6th_week">
<ellipse fill="#c81d25" stroke="black" cx="2016.66" cy="-1552.83" rx="28.6953" ry="18"/>
<text text-anchor="middle" x="2016.66" y="-1549.13" font-family="Times,serif" font-size="14.00">7906</text>
</a>
</g>
</g>
<!-- 11726 -->
<g id="node20" class="node"><title>11726</title>
<g id="a_node20"><a xlink:title="6th_week">
<ellipse fill="#c81d25" stroke="black" cx="1890.14" cy="-1439.97" rx="32.4942" ry="18"/>
<text text-anchor="middle" x="1890.14" y="-1436.27" font-family="Times,serif" font-size="14.00">11726</text>
</a>
</g>
</g>
<!-- 7906&#45;&gt;11726 -->
<g id="edge3" class="edge"><title>7906&#45;&gt;11726</title>
<path fill="none" stroke="black" d="M2000.12,-1538.08C1976.14,-1516.69 1931.92,-1477.24 1907.49,-1455.45"/>
</g>
<!-- 8415 -->
<g id="node16" class="node"><title>8415</title>
<g id="a_node16"><a xlink:title="3rd_week">
<ellipse fill="#ee9898" stroke="black" cx="870.665" cy="-618.017" rx="28.6953" ry="18"/>
<text text-anchor="middle" x="870.665" y="-614.317" font-family="Times,serif" font-size="14.00">8415</text>
</a>
</g>
</g>
<!-- 8415&#45;&gt;35121 -->
<g id="edge50" class="edge"><title>8415&#45;&gt;35121</title>
<path fill="none" stroke="black" d="M890.63,-630.905C913.349,-645.572 950.493,-669.549 975.155,-685.47"/>
</g>
<!-- 8635 -->
<g id="node17" class="node"><title>8635</title>
<g id="a_node17"><a xlink:title="3rd_week">
<ellipse fill="#ee9898" stroke="black" cx="900.476" cy="-524.594" rx="28.6953" ry="18"/>
<text text-anchor="middle" x="900.476" y="-520.894" font-family="Times,serif" font-size="14.00">8635</text>
</a>
</g>
</g>
<!-- 8635&#45;&gt;35121 -->
<g id="edge12" class="edge"><title>8635&#45;&gt;35121</title>
<path fill="none" stroke="black" d="M910.043,-541.573C928.384,-574.122 968.44,-645.209 988.425,-680.677"/>
</g>
<!-- 8736 -->
<g id="node18" class="node"><title>8736</title>
<g id="a_node18"><a xlink:title="3rd_week">
<ellipse fill="#ee9898" stroke="black" cx="995.253" cy="-883.034" rx="28.6953" ry="18"/>
<text text-anchor="middle" x="995.253" y="-879.334" font-family="Times,serif" font-size="14.00">8736</text>
</a>
</g>
</g>
<!-- 8736&#45;&gt;35121 -->
<g id="edge35" class="edge"><title>8736&#45;&gt;35121</title>
<path fill="none" stroke="black" d="M995.751,-864.982C996.673,-831.563 998.643,-760.163 999.645,-723.859"/>
</g>
<!-- 27133 -->
<g id="node38" class="node"><title>27133</title>
<g id="a_node38"><a xlink:title="3rd_week">
<ellipse fill="#ee9898" stroke="black" cx="1727.8" cy="-1274.92" rx="32.4942" ry="18"/>
<text text-anchor="middle" x="1727.8" y="-1271.22" font-family="Times,serif" font-size="14.00">27133</text>
</a>
</g>
</g>
<!-- 11726&#45;&gt;27133 -->
<g id="edge26" class="edge"><title>11726&#45;&gt;27133</title>
<path fill="none" stroke="black" d="M1874.57,-1424.14C1843.62,-1392.67 1774.66,-1322.56 1743.56,-1290.94"/>
</g>
<!-- 12332 -->
<g id="node21" class="node"><title>12332</title>
<g id="a_node21"><a xlink:title="3rd_week">
<ellipse fill="#ee9898" stroke="black" cx="969.68" cy="-495.109" rx="32.4942" ry="18"/>
<text text-anchor="middle" x="969.68" y="-491.409" font-family="Times,serif" font-size="14.00">12332</text>
</a>
</g>
</g>
<!-- 12332&#45;&gt;35121 -->
<g id="edge17" class="edge"><title>12332&#45;&gt;35121</title>
<path fill="none" stroke="black" d="M972.34,-513.079C977.934,-550.869 990.9,-638.465 996.989,-679.595"/>
</g>
<!-- 14648 -->
<g id="node22" class="node"><title>14648</title>
<g id="a_node22"><a xlink:title="3rd_week">
<ellipse fill="#ee9898" stroke="black" cx="1235.77" cy="-613.649" rx="32.4942" ry="18"/>
<text text-anchor="middle" x="1235.77" y="-609.949" font-family="Times,serif" font-size="14.00">14648</text>
</a>
</g>
</g>
<!-- 19345 -->
<g id="node30" class="node"><title>19345</title>
<g id="a_node30"><a xlink:title="3rd_week">
<ellipse fill="#ee9898" stroke="black" cx="1435.74" cy="-528.23" rx="32.4942" ry="18"/>
<text text-anchor="middle" x="1435.74" y="-524.53" font-family="Times,serif" font-size="14.00">19345</text>
</a>
</g>
</g>
<!-- 14648&#45;&gt;19345 -->
<g id="edge4" class="edge"><title>14648&#45;&gt;19345</title>
<path fill="none" stroke="black" d="M1261.5,-602.657C1299.79,-586.3 1371.37,-555.725 1409.79,-539.315"/>
</g>
<!-- 14648&#45;&gt;35121 -->
<g id="edge5" class="edge"><title>14648&#45;&gt;35121</title>
<path fill="none" stroke="black" d="M1208.75,-623.747C1164.77,-640.185 1077.95,-672.637 1031.42,-690.025"/>
</g>
<!-- 15710 -->
<g id="node23" class="node"><title>15710</title>
<g id="a_node23"><a xlink:title="3rd_week">
<ellipse fill="#ee9898" stroke="black" cx="1610.29" cy="-1270.44" rx="32.4942" ry="18"/>
<text text-anchor="middle" x="1610.29" y="-1266.74" font-family="Times,serif" font-size="14.00">15710</text>
</a>
</g>
</g>
<!-- 15710&#45;&gt;21721 -->
<g id="edge28" class="edge"><title>15710&#45;&gt;21721</title>
<path fill="none" stroke="black" d="M1599.9,-1253.12C1583.06,-1225.03 1549.98,-1169.85 1533.14,-1141.77"/>
</g>
<!-- 17080 -->
<g id="node25" class="node"><title>17080</title>
<g id="a_node25"><a xlink:title="3rd_week">
<ellipse fill="#ee9898" stroke="black" cx="1088.68" cy="-900.941" rx="32.4942" ry="18"/>
<text text-anchor="middle" x="1088.68" y="-897.241" font-family="Times,serif" font-size="14.00">17080</text>
</a>
</g>
</g>
<!-- 17080&#45;&gt;35121 -->
<g id="edge1" class="edge"><title>17080&#45;&gt;35121</title>
<path fill="none" stroke="black" d="M1080.83,-883.257C1064.6,-846.681 1027.39,-762.829 1009.8,-723.189"/>
</g>
<!-- 17614 -->
<g id="node26" class="node"><title>17614</title>
<g id="a_node26"><a xlink:title="3rd_week">
<ellipse fill="#ee9898" stroke="black" cx="558.134" cy="-393.056" rx="32.4942" ry="18"/>
<text text-anchor="middle" x="558.134" y="-389.356" font-family="Times,serif" font-size="14.00">17614</text>
</a>
</g>
</g>
<!-- 17614&#45;&gt;18696 -->
<g id="edge32" class="edge"><title>17614&#45;&gt;18696</title>
<path fill="none" stroke="black" d="M575.903,-408.278C603.715,-432.105 657.229,-477.949 685.131,-501.852"/>
</g>
<!-- 17810 -->
<g id="node27" class="node"><title>17810</title>
<g id="a_node27"><a xlink:title="3rd_week">
<ellipse fill="#ee9898" stroke="black" cx="1259.84" cy="-921.28" rx="32.4942" ry="18"/>
<text text-anchor="middle" x="1259.84" y="-917.58" font-family="Times,serif" font-size="14.00">17810</text>
</a>
</g>
</g>
<!-- 17810&#45;&gt;21721 -->
<g id="edge34" class="edge"><title>17810&#45;&gt;21721</title>
<path fill="none" stroke="black" d="M1279.18,-936.221C1327.92,-973.889 1455.38,-1072.39 1503.76,-1109.78"/>
</g>
<!-- 17810&#45;&gt;35121 -->
<g id="edge24" class="edge"><title>17810&#45;&gt;35121</title>
<path fill="none" stroke="black" d="M1242,-906.186C1195.61,-866.939 1071.35,-761.818 1021.44,-719.595"/>
</g>
<!-- 18420 -->
<g id="node28" class="node"><title>18420</title>
<g id="a_node28"><a xlink:title="3rd_week">
<ellipse fill="#ee9898" stroke="black" cx="952.649" cy="-1173.97" rx="32.4942" ry="18"/>
<text text-anchor="middle" x="952.649" y="-1170.27" font-family="Times,serif" font-size="14.00">18420</text>
</a>
</g>
</g>
<!-- 25233 -->
<g id="node36" class="node"><title>25233</title>
<g id="a_node36"><a xlink:title="3rd_week">
<ellipse fill="#ee9898" stroke="black" cx="974.296" cy="-982.852" rx="32.4942" ry="18"/>
<text text-anchor="middle" x="974.296" y="-979.152" font-family="Times,serif" font-size="14.00">25233</text>
</a>
</g>
</g>
<!-- 18420&#45;&gt;25233 -->
<g id="edge13" class="edge"><title>18420&#45;&gt;25233</title>
<path fill="none" stroke="black" d="M954.686,-1155.99C958.811,-1119.57 968.115,-1037.43 972.249,-1000.92"/>
</g>
<!-- 18696&#45;&gt;35121 -->
<g id="edge19" class="edge"><title>18696&#45;&gt;35121</title>
<path fill="none" stroke="black" d="M724.9,-530.763C778.657,-564.13 917.115,-650.069 974.622,-685.764"/>
</g>
<!-- 26924 -->
<g id="node37" class="node"><title>26924</title>
<g id="a_node37"><a xlink:title="3rd_week">
<ellipse fill="#ee9898" stroke="black" cx="1695.62" cy="-1091.03" rx="32.4942" ry="18"/>
<text text-anchor="middle" x="1695.62" y="-1087.33" font-family="Times,serif" font-size="14.00">26924</text>
</a>
</g>
</g>
<!-- 21721&#45;&gt;26924 -->
<g id="edge21" class="edge"><title>21721&#45;&gt;26924</title>
<path fill="none" stroke="black" d="M1553.67,-1118.49C1585.04,-1112.43 1633.32,-1103.08 1664.69,-1097.01"/>
</g>
<!-- 21721&#45;&gt;27133 -->
<g id="edge14" class="edge"><title>21721&#45;&gt;27133</title>
<path fill="none" stroke="black" d="M1542.43,-1138.9C1581.62,-1167.65 1669.06,-1231.81 1708.2,-1260.53"/>
</g>
<!-- 30243 -->
<g id="node44" class="node"><title>30243</title>
<g id="a_node44"><a xlink:title="3rd_week">
<ellipse fill="#ee9898" stroke="black" cx="1530.49" cy="-1301.05" rx="32.4942" ry="18"/>
<text text-anchor="middle" x="1530.49" y="-1297.35" font-family="Times,serif" font-size="14.00">30243</text>
</a>
</g>
</g>
<!-- 21721&#45;&gt;30243 -->
<g id="edge44" class="edge"><title>21721&#45;&gt;30243</title>
<path fill="none" stroke="black" d="M1523.57,-1142.7C1525.05,-1176.63 1528.22,-1249.07 1529.7,-1282.92"/>
</g>
<!-- 22224 -->
<g id="node34" class="node"><title>22224</title>
<g id="a_node34"><a xlink:title="3rd_week">
<ellipse fill="#ee9898" stroke="black" cx="918.591" cy="-909.181" rx="32.4942" ry="18"/>
<text text-anchor="middle" x="918.591" y="-905.481" font-family="Times,serif" font-size="14.00">22224</text>
</a>
</g>
</g>
<!-- 22224&#45;&gt;35121 -->
<g id="edge40" class="edge"><title>22224&#45;&gt;35121</title>
<path fill="none" stroke="black" d="M925.554,-891.489C940.481,-853.559 975.522,-764.523 991.742,-723.309"/>
</g>
<!-- 22520 -->
<g id="node35" class="node"><title>22520</title>
<g id="a_node35"><a xlink:title="3rd_week">
<ellipse fill="#ee9898" stroke="black" cx="1139.99" cy="-586.397" rx="32.4942" ry="18"/>
<text text-anchor="middle" x="1139.99" y="-582.697" font-family="Times,serif" font-size="14.00">22520</text>
</a>
</g>
</g>
<!-- 22520&#45;&gt;35121 -->
<g id="edge39" class="edge"><title>22520&#45;&gt;35121</title>
<path fill="none" stroke="black" d="M1121.72,-601.468C1096.13,-622.584 1049.65,-660.923 1022.21,-683.564"/>
</g>
<!-- 25233&#45;&gt;35121 -->
<g id="edge48" class="edge"><title>25233&#45;&gt;35121</title>
<path fill="none" stroke="black" d="M975.959,-964.835C980.525,-915.382 993.243,-777.635 998.222,-723.716"/>
</g>
<!-- 8425 -->
<g id="node52" class="node"><title>8425</title>
<g id="a_node52"><a xlink:title="3rd_week">
<ellipse fill="#ee9898" stroke="black" cx="1912.38" cy="-1334.66" rx="28.6953" ry="18"/>
<text text-anchor="middle" x="1912.38" y="-1330.96" font-family="Times,serif" font-size="14.00">8425</text>
</a>
</g>
</g>
<!-- 27133&#45;&gt;8425 -->
<g id="edge43" class="edge"><title>27133&#45;&gt;8425</title>
<path fill="none" stroke="black" d="M1756.24,-1284.12C1791.93,-1295.67 1852.63,-1315.32 1886.88,-1326.41"/>
</g>
<!-- 27972 -->
<g id="node40" class="node"><title>27972</title>
<g id="a_node40"><a xlink:title="3rd_week">
<ellipse fill="#ee9898" stroke="black" cx="982.667" cy="-548.014" rx="32.4942" ry="18"/>
<text text-anchor="middle" x="982.667" y="-544.314" font-family="Times,serif" font-size="14.00">27972</text>
</a>
</g>
</g>
<!-- 27972&#45;&gt;35121 -->
<g id="edge49" class="edge"><title>27972&#45;&gt;35121</title>
<path fill="none" stroke="black" d="M984.754,-566.244C987.994,-594.546 994.223,-648.966 997.719,-679.5"/>
</g>
<!-- 28813 -->
<g id="node41" class="node"><title>28813</title>
<g id="a_node41"><a xlink:title="3rd_week">
<ellipse fill="#ee9898" stroke="black" cx="1201.77" cy="-719.881" rx="32.4942" ry="18"/>
<text text-anchor="middle" x="1201.77" y="-716.181" font-family="Times,serif" font-size="14.00">28813</text>
</a>
</g>
</g>
<!-- 28813&#45;&gt;35121 -->
<g id="edge10" class="edge"><title>28813&#45;&gt;35121</title>
<path fill="none" stroke="black" d="M1169.39,-716.956C1133.12,-713.679 1074.47,-708.38 1036.64,-704.962"/>
</g>
<!-- 28978 -->
<g id="node42" class="node"><title>28978</title>
<g id="a_node42"><a xlink:title="3rd_week">
<ellipse fill="#ee9898" stroke="black" cx="783.281" cy="-667.545" rx="32.4942" ry="18"/>
<text text-anchor="middle" x="783.281" y="-663.845" font-family="Times,serif" font-size="14.00">28978</text>
</a>
</g>
</g>
<!-- 28978&#45;&gt;35121 -->
<g id="edge36" class="edge"><title>28978&#45;&gt;35121</title>
<path fill="none" stroke="black" d="M814.831,-672.508C854.675,-678.775 923.046,-689.53 964.7,-696.082"/>
</g>
<!-- 32775 -->
<g id="node45" class="node"><title>32775</title>
<g id="a_node45"><a xlink:title="3rd_week">
<ellipse fill="#ee9898" stroke="black" cx="1156.09" cy="-503.844" rx="32.4942" ry="18"/>
<text text-anchor="middle" x="1156.09" y="-500.144" font-family="Times,serif" font-size="14.00">32775</text>
</a>
</g>
</g>
<!-- 34695 -->
<g id="node48" class="node"><title>34695</title>
<g id="a_node48"><a xlink:title="3rd_week">
<ellipse fill="#ee9898" stroke="black" cx="1294.38" cy="-328.484" rx="32.4942" ry="18"/>
<text text-anchor="middle" x="1294.38" y="-324.784" font-family="Times,serif" font-size="14.00">34695</text>
</a>
</g>
</g>
<!-- 32775&#45;&gt;34695 -->
<g id="edge42" class="edge"><title>32775&#45;&gt;34695</title>
<path fill="none" stroke="black" d="M1169.1,-487.346C1195.45,-453.924 1254.89,-378.558 1281.3,-345.065"/>
</g>
<!-- 32775&#45;&gt;35121 -->
<g id="edge37" class="edge"><title>32775&#45;&gt;35121</title>
<path fill="none" stroke="black" d="M1143.07,-520.37C1114.61,-556.495 1046.96,-642.384 1016.1,-681.566"/>
</g>
<!-- 33300 -->
<g id="node47" class="node"><title>33300</title>
<g id="a_node47"><a xlink:title="3rd_week">
<ellipse fill="#ee9898" stroke="black" cx="777.781" cy="-726.913" rx="32.4942" ry="18"/>
<text text-anchor="middle" x="777.781" y="-723.213" font-family="Times,serif" font-size="14.00">33300</text>
</a>
</g>
</g>
<!-- 33300&#45;&gt;35121 -->
<g id="edge6" class="edge"><title>33300&#45;&gt;35121</title>
<path fill="none" stroke="black" d="M809.657,-723.297C850.628,-718.649 921.57,-710.601 964.387,-705.744"/>
</g>
<!-- 35031 -->
<g id="node49" class="node"><title>35031</title>
<g id="a_node49"><a xlink:title="3rd_week">
<ellipse fill="#ee9898" stroke="black" cx="833.928" cy="-843.98" rx="32.4942" ry="18"/>
<text text-anchor="middle" x="833.928" y="-840.28" font-family="Times,serif" font-size="14.00">35031</text>
</a>
</g>
</g>
<!-- 35031&#45;&gt;35121 -->
<g id="edge51" class="edge"><title>35031&#45;&gt;35121</title>
<path fill="none" stroke="black" d="M851.728,-828.751C882.653,-802.293 946.15,-747.967 979.207,-719.684"/>
</g>
<!-- 35525 -->
<g id="node51" class="node"><title>35525</title>
<g id="a_node51"><a xlink:title="3rd_week">
<ellipse fill="#ee9898" stroke="black" cx="1074.82" cy="-538.736" rx="32.4942" ry="18"/>
<text text-anchor="middle" x="1074.82" y="-535.036" font-family="Times,serif" font-size="14.00">35525</text>
</a>
</g>
</g>
<!-- 35121&#45;&gt;35525 -->
<g id="edge31" class="edge"><title>35121&#45;&gt;35525</title>
<path fill="none" stroke="black" d="M1010.01,-680.373C1024.85,-647.939 1052.85,-586.757 1066.67,-556.542"/>
</g>
</g>
</svg>
