<?xml version="1.0" encoding="UTF-8" standalone="no"?>
<!DOCTYPE svg PUBLIC "-//W3C//DTD SVG 1.1//EN"
 "http://www.w3.org/Graphics/SVG/1.1/DTD/svg11.dtd">
<!-- Generated by graphviz version 2.38.0 (20140413.2041)
 -->
<!-- Title: %3 Pages: 1 -->
<svg width="1516pt" height="1615pt"
 viewBox="0.00 0.00 1516.00 1615.00" xmlns="http://www.w3.org/2000/svg" xmlns:xlink="http://www.w3.org/1999/xlink">
<g id="graph0" class="graph" transform="scale(1 1) rotate(0) translate(4 1611)">
<title>%3</title>
<polygon fill="white" stroke="none" points="-4,4 -4,-1611 1512,-1611 1512,4 -4,4"/>
<!-- 228 -->
<g id="node1" class="node"><title>228</title>
<g id="a_node1"><a xlink:title="PRE">
<ellipse fill="#71a9f7" stroke="black" cx="946.006" cy="-975.718" rx="27" ry="18"/>
<text text-anchor="middle" x="946.006" y="-972.018" font-family="Times,serif" font-size="14.00">228</text>
</a>
</g>
</g>
<!-- 7096 -->
<g id="node19" class="node"><title>7096</title>
<g id="a_node19"><a xlink:title="PRE">
<ellipse fill="#71a9f7" stroke="black" cx="1053.56" cy="-889.486" rx="28.6953" ry="18"/>
<text text-anchor="middle" x="1053.56" y="-885.786" font-family="Times,serif" font-size="14.00">7096</text>
</a>
</g>
</g>
<!-- 228&#45;&gt;7096 -->
<g id="edge12" class="edge"><title>228&#45;&gt;7096</title>
<path fill="none" stroke="black" d="M963.287,-961.863C983.121,-945.962 1015.49,-920.007 1035.61,-903.881"/>
</g>
<!-- 7346 -->
<g id="node20" class="node"><title>7346</title>
<g id="a_node20"><a xlink:title="PRE">
<ellipse fill="#71a9f7" stroke="black" cx="1068.24" cy="-1023.21" rx="28.6953" ry="18"/>
<text text-anchor="middle" x="1068.24" y="-1019.51" font-family="Times,serif" font-size="14.00">7346</text>
</a>
</g>
</g>
<!-- 228&#45;&gt;7346 -->
<g id="edge47" class="edge"><title>228&#45;&gt;7346</title>
<path fill="none" stroke="black" d="M969.574,-984.876C990.803,-993.124 1021.9,-1005.21 1043.49,-1013.59"/>
</g>
<!-- 10126 -->
<g id="node29" class="node"><title>10126</title>
<g id="a_node29"><a xlink:title="PRE">
<ellipse fill="#71a9f7" stroke="black" cx="697.162" cy="-1039.67" rx="32.4942" ry="18"/>
<text text-anchor="middle" x="697.162" y="-1035.97" font-family="Times,serif" font-size="14.00">10126</text>
</a>
</g>
</g>
<!-- 228&#45;&gt;10126 -->
<g id="edge24" class="edge"><title>228&#45;&gt;10126</title>
<path fill="none" stroke="black" d="M920.776,-982.202C874.441,-994.11 776.024,-1019.4 726.672,-1032.09"/>
</g>
<!-- 14412 -->
<g id="node35" class="node"><title>14412</title>
<g id="a_node35"><a xlink:title="PRE">
<ellipse fill="#71a9f7" stroke="black" cx="979.8" cy="-854.617" rx="32.4942" ry="18"/>
<text text-anchor="middle" x="979.8" y="-850.917" font-family="Times,serif" font-size="14.00">14412</text>
</a>
</g>
</g>
<!-- 228&#45;&gt;14412 -->
<g id="edge21" class="edge"><title>228&#45;&gt;14412</title>
<path fill="none" stroke="black" d="M950.993,-957.849C957.382,-934.953 968.394,-895.491 974.793,-872.559"/>
</g>
<!-- 15164 -->
<g id="node37" class="node"><title>15164</title>
<g id="a_node37"><a xlink:title="PRE">
<ellipse fill="#71a9f7" stroke="black" cx="1150.21" cy="-956.922" rx="32.4942" ry="18"/>
<text text-anchor="middle" x="1150.21" y="-953.222" font-family="Times,serif" font-size="14.00">15164</text>
</a>
</g>
</g>
<!-- 228&#45;&gt;15164 -->
<g id="edge1" class="edge"><title>228&#45;&gt;15164</title>
<path fill="none" stroke="black" d="M973.123,-973.222C1010.55,-969.777 1077.95,-963.574 1117.93,-959.894"/>
</g>
<!-- 21878 -->
<g id="node56" class="node"><title>21878</title>
<g id="a_node56"><a xlink:title="PRE">
<ellipse fill="#71a9f7" stroke="black" cx="1066.75" cy="-954.036" rx="32.4942" ry="18"/>
<text text-anchor="middle" x="1066.75" y="-950.336" font-family="Times,serif" font-size="14.00">21878</text>
</a>
</g>
</g>
<!-- 228&#45;&gt;21878 -->
<g id="edge7" class="edge"><title>228&#45;&gt;21878</title>
<path fill="none" stroke="black" d="M972.207,-971.014C990.795,-967.676 1015.83,-963.181 1035.47,-959.654"/>
</g>
<!-- 645 -->
<g id="node2" class="node"><title>645</title>
<g id="a_node2"><a xlink:title="PRE">
<ellipse fill="#71a9f7" stroke="black" cx="785.858" cy="-1241.89" rx="27" ry="18"/>
<text text-anchor="middle" x="785.858" y="-1238.19" font-family="Times,serif" font-size="14.00">645</text>
</a>
</g>
</g>
<!-- 827 -->
<g id="node3" class="node"><title>827</title>
<g id="a_node3"><a xlink:title="PRE">
<ellipse fill="#71a9f7" stroke="black" cx="888.144" cy="-1396.02" rx="27" ry="18"/>
<text text-anchor="middle" x="888.144" y="-1392.32" font-family="Times,serif" font-size="14.00">827</text>
</a>
</g>
</g>
<!-- 645&#45;&gt;827 -->
<g id="edge8" class="edge"><title>645&#45;&gt;827</title>
<path fill="none" stroke="black" d="M796.805,-1258.39C816.389,-1287.9 857.217,-1349.41 876.967,-1379.17"/>
</g>
<!-- 6427 -->
<g id="node15" class="node"><title>6427</title>
<g id="a_node15"><a xlink:title="PRE">
<ellipse fill="#71a9f7" stroke="black" cx="819.422" cy="-1346.74" rx="28.6953" ry="18"/>
<text text-anchor="middle" x="819.422" y="-1343.04" font-family="Times,serif" font-size="14.00">6427</text>
</a>
</g>
</g>
<!-- 645&#45;&gt;6427 -->
<g id="edge14" class="edge"><title>645&#45;&gt;6427</title>
<path fill="none" stroke="black" d="M791.552,-1259.68C797.724,-1278.96 807.517,-1309.55 813.7,-1328.87"/>
</g>
<!-- 8837 -->
<g id="node23" class="node"><title>8837</title>
<g id="a_node23"><a xlink:title="PRE">
<ellipse fill="#71a9f7" stroke="black" cx="726.955" cy="-1367.76" rx="28.6953" ry="18"/>
<text text-anchor="middle" x="726.955" y="-1364.06" font-family="Times,serif" font-size="14.00">8837</text>
</a>
</g>
</g>
<!-- 645&#45;&gt;8837 -->
<g id="edge11" class="edge"><title>645&#45;&gt;8837</title>
<path fill="none" stroke="black" d="M777.791,-1259.13C766.575,-1283.1 746.379,-1326.25 735.114,-1350.33"/>
</g>
<!-- 645&#45;&gt;10126 -->
<g id="edge2" class="edge"><title>645&#45;&gt;10126</title>
<path fill="none" stroke="black" d="M778.142,-1224.3C761.368,-1186.06 721.739,-1095.7 704.923,-1057.37"/>
</g>
<!-- 19982 -->
<g id="node48" class="node"><title>19982</title>
<g id="a_node48"><a xlink:title="PRE">
<ellipse fill="#71a9f7" stroke="black" cx="806.551" cy="-1411.06" rx="32.4942" ry="18"/>
<text text-anchor="middle" x="806.551" y="-1407.36" font-family="Times,serif" font-size="14.00">19982</text>
</a>
</g>
</g>
<!-- 645&#45;&gt;19982 -->
<g id="edge4" class="edge"><title>645&#45;&gt;19982</title>
<path fill="none" stroke="black" d="M788.073,-1260C792.055,-1292.56 800.381,-1360.62 804.352,-1393.08"/>
</g>
<!-- 23366 -->
<g id="node60" class="node"><title>23366</title>
<g id="a_node60"><a xlink:title="PRE">
<ellipse fill="#71a9f7" stroke="black" cx="908.35" cy="-1334.65" rx="32.4942" ry="18"/>
<text text-anchor="middle" x="908.35" y="-1330.95" font-family="Times,serif" font-size="14.00">23366</text>
</a>
</g>
</g>
<!-- 645&#45;&gt;23366 -->
<g id="edge30" class="edge"><title>645&#45;&gt;23366</title>
<path fill="none" stroke="black" d="M803.932,-1255.58C826.692,-1272.81 865.636,-1302.3 888.987,-1319.99"/>
</g>
<!-- 18157 -->
<g id="node45" class="node"><title>18157</title>
<g id="a_node45"><a xlink:title="PRE">
<ellipse fill="#71a9f7" stroke="black" cx="964.715" cy="-1516.25" rx="32.4942" ry="18"/>
<text text-anchor="middle" x="964.715" y="-1512.55" font-family="Times,serif" font-size="14.00">18157</text>
</a>
</g>
</g>
<!-- 827&#45;&gt;18157 -->
<g id="edge48" class="edge"><title>827&#45;&gt;18157</title>
<path fill="none" stroke="black" d="M898.791,-1412.73C913.256,-1435.45 938.991,-1475.86 953.662,-1498.9"/>
</g>
<!-- 1588 -->
<g id="node4" class="node"><title>1588</title>
<g id="a_node4"><a xlink:title="PRE">
<ellipse fill="#71a9f7" stroke="black" cx="583.133" cy="-1029.88" rx="28.6953" ry="18"/>
<text text-anchor="middle" x="583.133" y="-1026.18" font-family="Times,serif" font-size="14.00">1588</text>
</a>
</g>
</g>
<!-- 1588&#45;&gt;10126 -->
<g id="edge34" class="edge"><title>1588&#45;&gt;10126</title>
<path fill="none" stroke="black" d="M611.614,-1032.32C627.841,-1033.72 648.224,-1035.47 665.023,-1036.91"/>
</g>
<!-- 3567 -->
<g id="node5" class="node"><title>3567</title>
<g id="a_node5"><a xlink:title="PRE">
<ellipse fill="#71a9f7" stroke="black" cx="329.747" cy="-553.07" rx="28.6953" ry="18"/>
<text text-anchor="middle" x="329.747" y="-549.37" font-family="Times,serif" font-size="14.00">3567</text>
</a>
</g>
</g>
<!-- 3926 -->
<g id="node6" class="node"><title>3926</title>
<g id="a_node6"><a xlink:title="PRE">
<ellipse fill="#71a9f7" stroke="black" cx="447.87" cy="-589.898" rx="28.6953" ry="18"/>
<text text-anchor="middle" x="447.87" y="-586.198" font-family="Times,serif" font-size="14.00">3926</text>
</a>
</g>
</g>
<!-- 3567&#45;&gt;3926 -->
<g id="edge53" class="edge"><title>3567&#45;&gt;3926</title>
<path fill="none" stroke="black" d="M355.378,-561.061C375.055,-567.196 402.115,-575.633 421.881,-581.795"/>
</g>
<!-- 4726 -->
<g id="node9" class="node"><title>4726</title>
<g id="a_node9"><a xlink:title="PRE">
<ellipse fill="#71a9f7" stroke="black" cx="455.317" cy="-465.484" rx="28.6953" ry="18"/>
<text text-anchor="middle" x="455.317" y="-461.784" font-family="Times,serif" font-size="14.00">4726</text>
</a>
</g>
</g>
<!-- 3926&#45;&gt;4726 -->
<g id="edge39" class="edge"><title>3926&#45;&gt;4726</title>
<path fill="none" stroke="black" d="M448.953,-571.807C450.365,-548.219 452.821,-507.196 454.233,-483.597"/>
</g>
<!-- 10628 -->
<g id="node31" class="node"><title>10628</title>
<g id="a_node31"><a xlink:title="PRE">
<ellipse fill="#71a9f7" stroke="black" cx="339.629" cy="-502.012" rx="32.4942" ry="18"/>
<text text-anchor="middle" x="339.629" y="-498.312" font-family="Times,serif" font-size="14.00">10628</text>
</a>
</g>
</g>
<!-- 3926&#45;&gt;10628 -->
<g id="edge56" class="edge"><title>3926&#45;&gt;10628</title>
<path fill="none" stroke="black" d="M429.996,-575.385C410.181,-559.297 378.369,-533.467 358.256,-517.136"/>
</g>
<!-- 20411 -->
<g id="node51" class="node"><title>20411</title>
<g id="a_node51"><a xlink:title="PRE">
<ellipse fill="#71a9f7" stroke="black" cx="585.925" cy="-753.456" rx="32.4942" ry="18"/>
<text text-anchor="middle" x="585.925" y="-749.756" font-family="Times,serif" font-size="14.00">20411</text>
</a>
</g>
</g>
<!-- 3926&#45;&gt;20411 -->
<g id="edge46" class="edge"><title>3926&#45;&gt;20411</title>
<path fill="none" stroke="black" d="M461.359,-605.878C487.548,-636.906 545.049,-705.029 571.764,-736.679"/>
</g>
<!-- 22922 -->
<g id="node59" class="node"><title>22922</title>
<g id="a_node59"><a xlink:title="PRE">
<ellipse fill="#71a9f7" stroke="black" cx="366.215" cy="-452.899" rx="32.4942" ry="18"/>
<text text-anchor="middle" x="366.215" y="-449.199" font-family="Times,serif" font-size="14.00">22922</text>
</a>
</g>
</g>
<!-- 3926&#45;&gt;22922 -->
<g id="edge26" class="edge"><title>3926&#45;&gt;22922</title>
<path fill="none" stroke="black" d="M437.694,-572.824C422.046,-546.571 392.244,-496.57 376.52,-470.188"/>
</g>
<!-- 4304 -->
<g id="node7" class="node"><title>4304</title>
<g id="a_node7"><a xlink:title="6th_week">
<ellipse fill="#c81d25" stroke="black" cx="223.226" cy="-1382.58" rx="28.6953" ry="18"/>
<text text-anchor="middle" x="223.226" y="-1378.88" font-family="Times,serif" font-size="14.00">4304</text>
</a>
</g>
</g>
<!-- 5061 -->
<g id="node10" class="node"><title>5061</title>
<g id="a_node10"><a xlink:title="PRE">
<ellipse fill="#71a9f7" stroke="black" cx="337.911" cy="-1305.97" rx="28.6953" ry="18"/>
<text text-anchor="middle" x="337.911" y="-1302.27" font-family="Times,serif" font-size="14.00">5061</text>
</a>
</g>
</g>
<!-- 4304&#45;&gt;5061 -->
<g id="edge54" class="edge"><title>4304&#45;&gt;5061</title>
<path fill="none" stroke="black" d="M242.941,-1369.41C263.947,-1355.38 297.015,-1333.29 318.07,-1319.22"/>
</g>
<!-- 4467 -->
<g id="node8" class="node"><title>4467</title>
<g id="a_node8"><a xlink:title="PRE">
<ellipse fill="#71a9f7" stroke="black" cx="573.153" cy="-164.428" rx="28.6953" ry="18"/>
<text text-anchor="middle" x="573.153" y="-160.728" font-family="Times,serif" font-size="14.00">4467</text>
</a>
</g>
</g>
<!-- 9236 -->
<g id="node26" class="node"><title>9236</title>
<g id="a_node26"><a xlink:title="PRE">
<ellipse fill="#71a9f7" stroke="black" cx="579.318" cy="-329.62" rx="28.6953" ry="18"/>
<text text-anchor="middle" x="579.318" y="-325.92" font-family="Times,serif" font-size="14.00">9236</text>
</a>
</g>
</g>
<!-- 4467&#45;&gt;9236 -->
<g id="edge22" class="edge"><title>4467&#45;&gt;9236</title>
<path fill="none" stroke="black" d="M573.836,-182.737C575.024,-214.575 577.457,-279.762 578.641,-311.48"/>
</g>
<!-- 21307 -->
<g id="node53" class="node"><title>21307</title>
<g id="a_node53"><a xlink:title="PRE">
<ellipse fill="#71a9f7" stroke="black" cx="615.97" cy="-17.7925" rx="32.4942" ry="18"/>
<text text-anchor="middle" x="615.97" y="-14.0925" font-family="Times,serif" font-size="14.00">21307</text>
</a>
</g>
</g>
<!-- 4467&#45;&gt;21307 -->
<g id="edge10" class="edge"><title>4467&#45;&gt;21307</title>
<path fill="none" stroke="black" d="M578.403,-146.447C586.621,-118.304 602.432,-64.1535 610.677,-35.9199"/>
</g>
<!-- 22153 -->
<g id="node58" class="node"><title>22153</title>
<g id="a_node58"><a xlink:title="PRE">
<ellipse fill="#71a9f7" stroke="black" cx="521.361" cy="-20.8559" rx="32.4942" ry="18"/>
<text text-anchor="middle" x="521.361" y="-17.1559" font-family="Times,serif" font-size="14.00">22153</text>
</a>
</g>
</g>
<!-- 4467&#45;&gt;22153 -->
<g id="edge20" class="edge"><title>4467&#45;&gt;22153</title>
<path fill="none" stroke="black" d="M566.802,-146.823C556.862,-119.268 537.736,-66.2483 527.763,-38.6046"/>
</g>
<!-- 10941 -->
<g id="node32" class="node"><title>10941</title>
<g id="a_node32"><a xlink:title="PRE">
<ellipse fill="#71a9f7" stroke="black" cx="526.281" cy="-1244.17" rx="32.4942" ry="18"/>
<text text-anchor="middle" x="526.281" y="-1240.47" font-family="Times,serif" font-size="14.00">10941</text>
</a>
</g>
</g>
<!-- 5061&#45;&gt;10941 -->
<g id="edge31" class="edge"><title>5061&#45;&gt;10941</title>
<path fill="none" stroke="black" d="M363.316,-1297.63C398.464,-1286.1 461.711,-1265.35 498.217,-1253.37"/>
</g>
<!-- 12562 -->
<g id="node34" class="node"><title>12562</title>
<g id="a_node34"><a xlink:title="PRE">
<ellipse fill="#71a9f7" stroke="black" cx="198.401" cy="-1325.07" rx="32.4942" ry="18"/>
<text text-anchor="middle" x="198.401" y="-1321.37" font-family="Times,serif" font-size="14.00">12562</text>
</a>
</g>
</g>
<!-- 5061&#45;&gt;12562 -->
<g id="edge27" class="edge"><title>5061&#45;&gt;12562</title>
<path fill="none" stroke="black" d="M309.679,-1309.84C286.589,-1313 253.956,-1317.47 229.998,-1320.75"/>
</g>
<!-- 5659 -->
<g id="node11" class="node"><title>5659</title>
<g id="a_node11"><a xlink:title="PRE">
<ellipse fill="#71a9f7" stroke="black" cx="452.464" cy="-1445.56" rx="28.6953" ry="18"/>
<text text-anchor="middle" x="452.464" y="-1441.86" font-family="Times,serif" font-size="14.00">5659</text>
</a>
</g>
</g>
<!-- 5659&#45;&gt;10941 -->
<g id="edge3" class="edge"><title>5659&#45;&gt;10941</title>
<path fill="none" stroke="black" d="M459.015,-1427.69C473.023,-1389.47 505.75,-1300.18 519.745,-1262"/>
</g>
<!-- 17378 -->
<g id="node42" class="node"><title>17378</title>
<g id="a_node42"><a xlink:title="PRE">
<ellipse fill="#71a9f7" stroke="black" cx="369.56" cy="-1563.2" rx="32.4942" ry="18"/>
<text text-anchor="middle" x="369.56" y="-1559.5" font-family="Times,serif" font-size="14.00">17378</text>
</a>
</g>
</g>
<!-- 5659&#45;&gt;17378 -->
<g id="edge51" class="edge"><title>5659&#45;&gt;17378</title>
<path fill="none" stroke="black" d="M440.762,-1462.16C425.051,-1484.46 397.289,-1523.85 381.472,-1546.3"/>
</g>
<!-- 23375 -->
<g id="node61" class="node"><title>23375</title>
<g id="a_node61"><a xlink:title="PRE">
<ellipse fill="#71a9f7" stroke="black" cx="451.678" cy="-1588.8" rx="32.4942" ry="18"/>
<text text-anchor="middle" x="451.678" y="-1585.1" font-family="Times,serif" font-size="14.00">23375</text>
</a>
</g>
</g>
<!-- 5659&#45;&gt;23375 -->
<g id="edge28" class="edge"><title>5659&#45;&gt;23375</title>
<path fill="none" stroke="black" d="M452.364,-1463.7C452.214,-1491.1 451.931,-1542.77 451.779,-1570.36"/>
</g>
<!-- 5834 -->
<g id="node12" class="node"><title>5834</title>
<g id="a_node12"><a xlink:title="PRE">
<ellipse fill="#71a9f7" stroke="black" cx="34.2878" cy="-734.111" rx="28.6953" ry="18"/>
<text text-anchor="middle" x="34.2878" y="-730.411" font-family="Times,serif" font-size="14.00">5834</text>
</a>
</g>
</g>
<!-- 9139 -->
<g id="node25" class="node"><title>9139</title>
<g id="a_node25"><a xlink:title="PRE">
<ellipse fill="#71a9f7" stroke="black" cx="190.132" cy="-725.833" rx="28.6953" ry="18"/>
<text text-anchor="middle" x="190.132" y="-722.133" font-family="Times,serif" font-size="14.00">9139</text>
</a>
</g>
</g>
<!-- 5834&#45;&gt;9139 -->
<g id="edge36" class="edge"><title>5834&#45;&gt;9139</title>
<path fill="none" stroke="black" d="M62.8721,-732.592C90.9035,-731.103 133.406,-728.846 161.466,-727.355"/>
</g>
<!-- 6002 -->
<g id="node13" class="node"><title>6002</title>
<g id="a_node13"><a xlink:title="PRE">
<ellipse fill="#71a9f7" stroke="black" cx="991.579" cy="-1120.42" rx="28.6953" ry="18"/>
<text text-anchor="middle" x="991.579" y="-1116.72" font-family="Times,serif" font-size="14.00">6002</text>
</a>
</g>
</g>
<!-- 8856 -->
<g id="node24" class="node"><title>8856</title>
<g id="a_node24"><a xlink:title="PRE">
<ellipse fill="#71a9f7" stroke="black" cx="864.535" cy="-1095.25" rx="28.6953" ry="18"/>
<text text-anchor="middle" x="864.535" y="-1091.55" font-family="Times,serif" font-size="14.00">8856</text>
</a>
</g>
</g>
<!-- 6002&#45;&gt;8856 -->
<g id="edge18" class="edge"><title>6002&#45;&gt;8856</title>
<path fill="none" stroke="black" d="M964.013,-1114.96C942.703,-1110.74 913.344,-1104.92 892.048,-1100.7"/>
</g>
<!-- 6270 -->
<g id="node14" class="node"><title>6270</title>
<g id="a_node14"><a xlink:title="PRE">
<ellipse fill="#71a9f7" stroke="black" cx="389.102" cy="-1227.28" rx="28.6953" ry="18"/>
<text text-anchor="middle" x="389.102" y="-1223.58" font-family="Times,serif" font-size="14.00">6270</text>
</a>
</g>
</g>
<!-- 6270&#45;&gt;10941 -->
<g id="edge62" class="edge"><title>6270&#45;&gt;10941</title>
<path fill="none" stroke="black" d="M417.193,-1230.74C439.611,-1233.5 471.022,-1237.37 494.385,-1240.24"/>
</g>
<!-- 6539 -->
<g id="node16" class="node"><title>6539</title>
<g id="a_node16"><a xlink:title="PRE">
<ellipse fill="#71a9f7" stroke="black" cx="180.834" cy="-614.633" rx="28.6953" ry="18"/>
<text text-anchor="middle" x="180.834" y="-610.933" font-family="Times,serif" font-size="14.00">6539</text>
</a>
</g>
</g>
<!-- 19766 -->
<g id="node47" class="node"><title>19766</title>
<g id="a_node47"><a xlink:title="PRE">
<ellipse fill="#71a9f7" stroke="black" cx="346.824" cy="-707.672" rx="32.4942" ry="18"/>
<text text-anchor="middle" x="346.824" y="-703.972" font-family="Times,serif" font-size="14.00">19766</text>
</a>
</g>
</g>
<!-- 6539&#45;&gt;19766 -->
<g id="edge16" class="edge"><title>6539&#45;&gt;19766</title>
<path fill="none" stroke="black" d="M202.195,-626.606C233.542,-644.176 291.762,-676.809 323.95,-694.851"/>
</g>
<!-- 4381 -->
<g id="node64" class="node"><title>4381</title>
<g id="a_node64"><a xlink:title="PRE">
<ellipse fill="#71a9f7" stroke="black" cx="59.6947" cy="-513.246" rx="28.6953" ry="18"/>
<text text-anchor="middle" x="59.6947" y="-509.546" font-family="Times,serif" font-size="14.00">4381</text>
</a>
</g>
</g>
<!-- 6539&#45;&gt;4381 -->
<g id="edge55" class="edge"><title>6539&#45;&gt;4381</title>
<path fill="none" stroke="black" d="M163.478,-600.107C140.449,-580.833 100.031,-547.005 77.0189,-527.745"/>
</g>
<!-- 6058 -->
<g id="node65" class="node"><title>6058</title>
<g id="a_node65"><a xlink:title="PRE">
<ellipse fill="#71a9f7" stroke="black" cx="28.1003" cy="-573.242" rx="28.6953" ry="18"/>
<text text-anchor="middle" x="28.1003" y="-569.542" font-family="Times,serif" font-size="14.00">6058</text>
</a>
</g>
</g>
<!-- 6539&#45;&gt;6058 -->
<g id="edge44" class="edge"><title>6539&#45;&gt;6058</title>
<path fill="none" stroke="black" d="M154.23,-607.424C126.197,-599.826 82.3175,-587.935 54.3997,-580.369"/>
</g>
<!-- 6557 -->
<g id="node17" class="node"><title>6557</title>
<g id="a_node17"><a xlink:title="PRE">
<ellipse fill="#71a9f7" stroke="black" cx="973.679" cy="-1172.19" rx="28.6953" ry="18"/>
<text text-anchor="middle" x="973.679" y="-1168.49" font-family="Times,serif" font-size="14.00">6557</text>
</a>
</g>
</g>
<!-- 6557&#45;&gt;8856 -->
<g id="edge33" class="edge"><title>6557&#45;&gt;8856</title>
<path fill="none" stroke="black" d="M954.417,-1158.61C934.467,-1144.54 903.483,-1122.7 883.604,-1108.69"/>
</g>
<!-- 6863 -->
<g id="node18" class="node"><title>6863</title>
<g id="a_node18"><a xlink:title="PRE">
<ellipse fill="#71a9f7" stroke="black" cx="600.977" cy="-1351.97" rx="28.6953" ry="18"/>
<text text-anchor="middle" x="600.977" y="-1348.27" font-family="Times,serif" font-size="14.00">6863</text>
</a>
</g>
</g>
<!-- 6863&#45;&gt;10941 -->
<g id="edge32" class="edge"><title>6863&#45;&gt;10941</title>
<path fill="none" stroke="black" d="M589.306,-1335.13C575.355,-1314.99 552.14,-1281.49 538.116,-1261.25"/>
</g>
<!-- 7417 -->
<g id="node21" class="node"><title>7417</title>
<g id="a_node21"><a xlink:title="PRE">
<ellipse fill="#71a9f7" stroke="black" cx="1278.73" cy="-903.453" rx="28.6953" ry="18"/>
<text text-anchor="middle" x="1278.73" y="-899.753" font-family="Times,serif" font-size="14.00">7417</text>
</a>
</g>
</g>
<!-- 7417&#45;&gt;15164 -->
<g id="edge17" class="edge"><title>7417&#45;&gt;15164</title>
<path fill="none" stroke="black" d="M1254.86,-913.384C1232.64,-922.626 1199.6,-936.372 1176.61,-945.938"/>
</g>
<!-- 8494 -->
<g id="node22" class="node"><title>8494</title>
<g id="a_node22"><a xlink:title="PRE">
<ellipse fill="#71a9f7" stroke="black" cx="893.712" cy="-352.164" rx="28.6953" ry="18"/>
<text text-anchor="middle" x="893.712" y="-348.464" font-family="Times,serif" font-size="14.00">8494</text>
</a>
</g>
</g>
<!-- 20201 -->
<g id="node50" class="node"><title>20201</title>
<g id="a_node50"><a xlink:title="PRE">
<ellipse fill="#71a9f7" stroke="black" cx="817.261" cy="-470.456" rx="32.4942" ry="18"/>
<text text-anchor="middle" x="817.261" y="-466.756" font-family="Times,serif" font-size="14.00">20201</text>
</a>
</g>
</g>
<!-- 8494&#45;&gt;20201 -->
<g id="edge29" class="edge"><title>8494&#45;&gt;20201</title>
<path fill="none" stroke="black" d="M882.921,-368.861C868.433,-391.279 842.831,-430.892 828.245,-453.461"/>
</g>
<!-- 8856&#45;&gt;10126 -->
<g id="edge57" class="edge"><title>8856&#45;&gt;10126</title>
<path fill="none" stroke="black" d="M839.114,-1086.81C808.387,-1076.6 756.856,-1059.49 725.059,-1048.93"/>
</g>
<!-- 9139&#45;&gt;19766 -->
<g id="edge35" class="edge"><title>9139&#45;&gt;19766</title>
<path fill="none" stroke="black" d="M218.508,-722.544C245.671,-719.396 286.588,-714.654 314.882,-711.374"/>
</g>
<!-- 17855 -->
<g id="node43" class="node"><title>17855</title>
<g id="a_node43"><a xlink:title="PRE">
<ellipse fill="#71a9f7" stroke="black" cx="585.391" cy="-533.357" rx="32.4942" ry="18"/>
<text text-anchor="middle" x="585.391" y="-529.657" font-family="Times,serif" font-size="14.00">17855</text>
</a>
</g>
</g>
<!-- 9236&#45;&gt;17855 -->
<g id="edge38" class="edge"><title>9236&#45;&gt;17855</title>
<path fill="none" stroke="black" d="M579.857,-347.7C581.009,-386.363 583.702,-476.691 584.853,-515.317"/>
</g>
<!-- 9343 -->
<g id="node27" class="node"><title>9343</title>
<g id="a_node27"><a xlink:title="PRE">
<ellipse fill="#71a9f7" stroke="black" cx="238.968" cy="-780.662" rx="28.6953" ry="18"/>
<text text-anchor="middle" x="238.968" y="-776.962" font-family="Times,serif" font-size="14.00">9343</text>
</a>
</g>
</g>
<!-- 9343&#45;&gt;19766 -->
<g id="edge52" class="edge"><title>9343&#45;&gt;19766</title>
<path fill="none" stroke="black" d="M258.75,-767.274C277.846,-754.352 306.646,-734.862 326.064,-721.721"/>
</g>
<!-- 9869 -->
<g id="node28" class="node"><title>9869</title>
<g id="a_node28"><a xlink:title="PRE">
<ellipse fill="#71a9f7" stroke="black" cx="528.892" cy="-394.943" rx="28.6953" ry="18"/>
<text text-anchor="middle" x="528.892" y="-391.243" font-family="Times,serif" font-size="14.00">9869</text>
</a>
</g>
</g>
<!-- 9869&#45;&gt;17855 -->
<g id="edge23" class="edge"><title>9869&#45;&gt;17855</title>
<path fill="none" stroke="black" d="M536.048,-412.473C546.856,-438.952 567.236,-488.88 578.115,-515.532"/>
</g>
<!-- 10126&#45;&gt;10941 -->
<g id="edge6" class="edge"><title>10126&#45;&gt;10941</title>
<path fill="none" stroke="black" d="M683.467,-1056.06C651.471,-1094.35 572.101,-1189.33 540.041,-1227.7"/>
</g>
<!-- 18131 -->
<g id="node44" class="node"><title>18131</title>
<g id="a_node44"><a xlink:title="PRE">
<ellipse fill="#71a9f7" stroke="black" cx="805.67" cy="-1148.81" rx="32.4942" ry="18"/>
<text text-anchor="middle" x="805.67" y="-1145.11" font-family="Times,serif" font-size="14.00">18131</text>
</a>
</g>
</g>
<!-- 10126&#45;&gt;18131 -->
<g id="edge5" class="edge"><title>10126&#45;&gt;18131</title>
<path fill="none" stroke="black" d="M713.173,-1055.77C733.806,-1076.53 769.454,-1112.38 789.946,-1133"/>
</g>
<!-- 10126&#45;&gt;20411 -->
<g id="edge40" class="edge"><title>10126&#45;&gt;20411</title>
<path fill="none" stroke="black" d="M690.204,-1021.77C670.227,-970.366 612.854,-822.745 592.881,-771.353"/>
</g>
<!-- 10433 -->
<g id="node30" class="node"><title>10433</title>
<g id="a_node30"><a xlink:title="PRE">
<ellipse fill="#71a9f7" stroke="black" cx="515.178" cy="-1400.04" rx="32.4942" ry="18"/>
<text text-anchor="middle" x="515.178" y="-1396.34" font-family="Times,serif" font-size="14.00">10433</text>
</a>
</g>
</g>
<!-- 10433&#45;&gt;10941 -->
<g id="edge41" class="edge"><title>10433&#45;&gt;10941</title>
<path fill="none" stroke="black" d="M516.473,-1381.86C518.613,-1351.82 522.86,-1292.2 524.994,-1262.24"/>
</g>
<!-- 12493 -->
<g id="node33" class="node"><title>12493</title>
<g id="a_node33"><a xlink:title="PRE">
<ellipse fill="#71a9f7" stroke="black" cx="373.602" cy="-1363.54" rx="32.4942" ry="18"/>
<text text-anchor="middle" x="373.602" y="-1359.84" font-family="Times,serif" font-size="14.00">12493</text>
</a>
</g>
</g>
<!-- 10941&#45;&gt;12493 -->
<g id="edge19" class="edge"><title>10941&#45;&gt;12493</title>
<path fill="none" stroke="black" d="M507.252,-1259.04C477.835,-1282.04 421.661,-1325.96 392.39,-1348.85"/>
</g>
<!-- 25475 -->
<g id="node62" class="node"><title>25475</title>
<g id="a_node62"><a xlink:title="PRE">
<ellipse fill="#71a9f7" stroke="black" cx="467.701" cy="-1346.18" rx="32.4942" ry="18"/>
<text text-anchor="middle" x="467.701" y="-1342.48" font-family="Times,serif" font-size="14.00">25475</text>
</a>
</g>
</g>
<!-- 10941&#45;&gt;25475 -->
<g id="edge59" class="edge"><title>10941&#45;&gt;25475</title>
<path fill="none" stroke="black" d="M516.343,-1261.47C505.571,-1280.23 488.478,-1310 477.687,-1328.79"/>
</g>
<!-- 21341 -->
<g id="node54" class="node"><title>21341</title>
<g id="a_node54"><a xlink:title="PRE">
<ellipse fill="#71a9f7" stroke="black" cx="276.649" cy="-1476.98" rx="32.4942" ry="18"/>
<text text-anchor="middle" x="276.649" y="-1473.28" font-family="Times,serif" font-size="14.00">21341</text>
</a>
</g>
</g>
<!-- 12493&#45;&gt;21341 -->
<g id="edge58" class="edge"><title>12493&#45;&gt;21341</title>
<path fill="none" stroke="black" d="M359.296,-1380.28C340.86,-1401.85 309.009,-1439.12 290.698,-1460.54"/>
</g>
<!-- 15151 -->
<g id="node36" class="node"><title>15151</title>
<g id="a_node36"><a xlink:title="PRE">
<ellipse fill="#71a9f7" stroke="black" cx="911.436" cy="-1232.53" rx="32.4942" ry="18"/>
<text text-anchor="middle" x="911.436" y="-1228.83" font-family="Times,serif" font-size="14.00">15151</text>
</a>
</g>
</g>
<!-- 15151&#45;&gt;18131 -->
<g id="edge50" class="edge"><title>15151&#45;&gt;18131</title>
<path fill="none" stroke="black" d="M892.527,-1217.57C873.276,-1202.33 843.607,-1178.84 824.415,-1163.65"/>
</g>
<!-- 20041 -->
<g id="node49" class="node"><title>20041</title>
<g id="a_node49"><a xlink:title="PRE">
<ellipse fill="#71a9f7" stroke="black" cx="1313.48" cy="-960.617" rx="32.4942" ry="18"/>
<text text-anchor="middle" x="1313.48" y="-956.917" font-family="Times,serif" font-size="14.00">20041</text>
</a>
</g>
</g>
<!-- 15164&#45;&gt;20041 -->
<g id="edge43" class="edge"><title>15164&#45;&gt;20041</title>
<path fill="none" stroke="black" d="M1182.86,-957.661C1211.34,-958.305 1252.43,-959.235 1280.89,-959.879"/>
</g>
<!-- 15173 -->
<g id="node38" class="node"><title>15173</title>
<g id="a_node38"><a xlink:title="PRE">
<ellipse fill="#71a9f7" stroke="black" cx="724.943" cy="-624.886" rx="32.4942" ry="18"/>
<text text-anchor="middle" x="724.943" y="-621.186" font-family="Times,serif" font-size="14.00">15173</text>
</a>
</g>
</g>
<!-- 15173&#45;&gt;20201 -->
<g id="edge25" class="edge"><title>15173&#45;&gt;20201</title>
<path fill="none" stroke="black" d="M735.176,-607.77C752.921,-578.085 789.206,-517.388 806.983,-487.65"/>
</g>
<!-- 15173&#45;&gt;20411 -->
<g id="edge61" class="edge"><title>15173&#45;&gt;20411</title>
<path fill="none" stroke="black" d="M708.175,-640.395C681.455,-665.107 629.511,-713.146 602.753,-737.893"/>
</g>
<!-- 21526 -->
<g id="node55" class="node"><title>21526</title>
<g id="a_node55"><a xlink:title="PRE">
<ellipse fill="#71a9f7" stroke="black" cx="874.36" cy="-612.919" rx="32.4942" ry="18"/>
<text text-anchor="middle" x="874.36" y="-609.219" font-family="Times,serif" font-size="14.00">21526</text>
</a>
</g>
</g>
<!-- 15173&#45;&gt;21526 -->
<g id="edge63" class="edge"><title>15173&#45;&gt;21526</title>
<path fill="none" stroke="black" d="M757.365,-622.29C782.427,-620.282 816.956,-617.517 842.002,-615.511"/>
</g>
<!-- 21945 -->
<g id="node57" class="node"><title>21945</title>
<g id="a_node57"><a xlink:title="PRE">
<ellipse fill="#71a9f7" stroke="black" cx="871.174" cy="-518.899" rx="32.4942" ry="18"/>
<text text-anchor="middle" x="871.174" y="-515.199" font-family="Times,serif" font-size="14.00">21945</text>
</a>
</g>
</g>
<!-- 15173&#45;&gt;21945 -->
<g id="edge37" class="edge"><title>15173&#45;&gt;21945</title>
<path fill="none" stroke="black" d="M744.97,-610.371C772.973,-590.075 823.518,-553.44 851.39,-533.238"/>
</g>
<!-- 15237 -->
<g id="node39" class="node"><title>15237</title>
<g id="a_node39"><a xlink:title="PRE">
<ellipse fill="#71a9f7" stroke="black" cx="605.8" cy="-384.364" rx="32.4942" ry="18"/>
<text text-anchor="middle" x="605.8" y="-380.664" font-family="Times,serif" font-size="14.00">15237</text>
</a>
</g>
</g>
<!-- 15237&#45;&gt;17855 -->
<g id="edge60" class="edge"><title>15237&#45;&gt;17855</title>
<path fill="none" stroke="black" d="M603.338,-402.336C599.415,-430.973 591.789,-486.644 587.861,-515.321"/>
</g>
<!-- 16803 -->
<g id="node40" class="node"><title>16803</title>
<g id="a_node40"><a xlink:title="PRE">
<ellipse fill="#71a9f7" stroke="black" cx="982.114" cy="-666.797" rx="32.4942" ry="18"/>
<text text-anchor="middle" x="982.114" y="-663.097" font-family="Times,serif" font-size="14.00">16803</text>
</a>
</g>
</g>
<!-- 16803&#45;&gt;21526 -->
<g id="edge13" class="edge"><title>16803&#45;&gt;21526</title>
<path fill="none" stroke="black" d="M957.932,-654.706C940.31,-645.895 916.524,-634.002 898.834,-625.157"/>
</g>
<!-- 17308 -->
<g id="node41" class="node"><title>17308</title>
<g id="a_node41"><a xlink:title="PRE">
<ellipse fill="#71a9f7" stroke="black" cx="1475.34" cy="-953.619" rx="32.4942" ry="18"/>
<text text-anchor="middle" x="1475.34" y="-949.919" font-family="Times,serif" font-size="14.00">17308</text>
</a>
</g>
</g>
<!-- 17308&#45;&gt;20041 -->
<g id="edge45" class="edge"><title>17308&#45;&gt;20041</title>
<path fill="none" stroke="black" d="M1442.59,-955.035C1414.41,-956.253 1373.99,-958.001 1345.91,-959.215"/>
</g>
<!-- 18314 -->
<g id="node46" class="node"><title>18314</title>
<g id="a_node46"><a xlink:title="PRE">
<ellipse fill="#71a9f7" stroke="black" cx="679.901" cy="-416.165" rx="32.4942" ry="18"/>
<text text-anchor="middle" x="679.901" y="-412.465" font-family="Times,serif" font-size="14.00">18314</text>
</a>
</g>
</g>
<!-- 17855&#45;&gt;18314 -->
<g id="edge15" class="edge"><title>17855&#45;&gt;18314</title>
<path fill="none" stroke="black" d="M598.731,-516.815C616.744,-494.479 648.651,-454.915 666.628,-432.623"/>
</g>
<!-- 17855&#45;&gt;20411 -->
<g id="edge9" class="edge"><title>17855&#45;&gt;20411</title>
<path fill="none" stroke="black" d="M585.434,-551.368C585.535,-592.641 585.78,-693.684 585.88,-735.196"/>
</g>
<!-- 19766&#45;&gt;20411 -->
<g id="edge42" class="edge"><title>19766&#45;&gt;20411</title>
<path fill="none" stroke="black" d="M377.593,-713.564C423.377,-722.331 508.961,-738.719 554.895,-747.514"/>
</g>
<!-- 20996 -->
<g id="node52" class="node"><title>20996</title>
<g id="a_node52"><a xlink:title="PRE">
<ellipse fill="#71a9f7" stroke="black" cx="224.086" cy="-668.057" rx="32.4942" ry="18"/>
<text text-anchor="middle" x="224.086" y="-664.357" font-family="Times,serif" font-size="14.00">20996</text>
</a>
</g>
</g>
<!-- 19766&#45;&gt;20996 -->
<g id="edge64" class="edge"><title>19766&#45;&gt;20996</title>
<path fill="none" stroke="black" d="M318.666,-698.584C298.849,-692.188 272.42,-683.658 252.539,-677.241"/>
</g>
<!-- 5301 -->
<g id="node63" class="node"><title>5301</title>
<g id="a_node63"><a xlink:title="PRE">
<ellipse fill="#71a9f7" stroke="black" cx="983.856" cy="-435.193" rx="28.6953" ry="18"/>
<text text-anchor="middle" x="983.856" y="-431.493" font-family="Times,serif" font-size="14.00">5301</text>
</a>
</g>
</g>
<!-- 21945&#45;&gt;5301 -->
<g id="edge49" class="edge"><title>21945&#45;&gt;5301</title>
<path fill="none" stroke="black" d="M890.802,-504.318C911.736,-488.767 944.648,-464.319 965.201,-449.051"/>
</g>
</g>
</svg>
