<?xml version="1.0" encoding="UTF-8" standalone="no"?>
<!DOCTYPE svg PUBLIC "-//W3C//DTD SVG 1.1//EN"
 "http://www.w3.org/Graphics/SVG/1.1/DTD/svg11.dtd">
<!-- Generated by graphviz version 2.38.0 (20140413.2041)
 -->
<!-- Title: %3 Pages: 1 -->
<svg width="1919pt" height="2794pt"
 viewBox="0.00 0.00 1919.00 2794.00" xmlns="http://www.w3.org/2000/svg" xmlns:xlink="http://www.w3.org/1999/xlink">
<g id="graph0" class="graph" transform="scale(1 1) rotate(0) translate(4 2790)">
<title>%3</title>
<polygon fill="white" stroke="none" points="-4,4 -4,-2790 1915,-2790 1915,4 -4,4"/>
<!-- 23 -->
<g id="node1" class="node"><title>23</title>
<g id="a_node1"><a xlink:title="6th_week">
<ellipse fill="#c81d25" stroke="black" cx="296.541" cy="-768.412" rx="27" ry="18"/>
<text text-anchor="middle" x="296.541" y="-764.712" font-family="Times,serif" font-size="14.00">23</text>
</a>
</g>
</g>
<!-- 14536 -->
<g id="node71" class="node"><title>14536</title>
<g id="a_node71"><a xlink:title="6th_week">
<ellipse fill="#c81d25" stroke="black" cx="296.558" cy="-942.07" rx="32.4942" ry="18"/>
<text text-anchor="middle" x="296.558" y="-938.37" font-family="Times,serif" font-size="14.00">14536</text>
</a>
</g>
</g>
<!-- 23&#45;&gt;14536 -->
<g id="edge78" class="edge"><title>23&#45;&gt;14536</title>
<path fill="none" stroke="black" d="M296.543,-786.668C296.546,-820.108 296.553,-890.801 296.556,-924.058"/>
</g>
<!-- 79 -->
<g id="node2" class="node"><title>79</title>
<g id="a_node2"><a xlink:title="6th_week">
<ellipse fill="#c81d25" stroke="black" cx="1435.61" cy="-762.196" rx="27" ry="18"/>
<text text-anchor="middle" x="1435.61" y="-758.496" font-family="Times,serif" font-size="14.00">79</text>
</a>
</g>
</g>
<!-- 13681 -->
<g id="node65" class="node"><title>13681</title>
<g id="a_node65"><a xlink:title="6th_week">
<ellipse fill="#c81d25" stroke="black" cx="1555.38" cy="-458.052" rx="32.4942" ry="18"/>
<text text-anchor="middle" x="1555.38" y="-454.352" font-family="Times,serif" font-size="14.00">13681</text>
</a>
</g>
</g>
<!-- 79&#45;&gt;13681 -->
<g id="edge74" class="edge"><title>79&#45;&gt;13681</title>
<path fill="none" stroke="black" d="M1442.56,-744.529C1463.73,-690.774 1527.21,-529.587 1548.41,-475.767"/>
</g>
<!-- 14075 -->
<g id="node67" class="node"><title>14075</title>
<g id="a_node67"><a xlink:title="6th_week">
<ellipse fill="#c81d25" stroke="black" cx="1315.06" cy="-1118.78" rx="32.4942" ry="18"/>
<text text-anchor="middle" x="1315.06" y="-1115.08" font-family="Times,serif" font-size="14.00">14075</text>
</a>
</g>
</g>
<!-- 79&#45;&gt;14075 -->
<g id="edge84" class="edge"><title>79&#45;&gt;14075</title>
<path fill="none" stroke="black" d="M1429.63,-779.879C1409.1,-840.588 1341.65,-1040.12 1321.08,-1100.99"/>
</g>
<!-- 438 -->
<g id="node3" class="node"><title>438</title>
<g id="a_node3"><a xlink:title="6th_week">
<ellipse fill="#c81d25" stroke="black" cx="208.216" cy="-1103.1" rx="27" ry="18"/>
<text text-anchor="middle" x="208.216" y="-1099.4" font-family="Times,serif" font-size="14.00">438</text>
</a>
</g>
</g>
<!-- 438&#45;&gt;14536 -->
<g id="edge49" class="edge"><title>438&#45;&gt;14536</title>
<path fill="none" stroke="black" d="M217.503,-1086.17C234.337,-1055.48 269.73,-990.972 286.86,-959.747"/>
</g>
<!-- 544 -->
<g id="node4" class="node"><title>544</title>
<g id="a_node4"><a xlink:title="6th_week">
<ellipse fill="#c81d25" stroke="black" cx="133.967" cy="-932.051" rx="27" ry="18"/>
<text text-anchor="middle" x="133.967" y="-928.351" font-family="Times,serif" font-size="14.00">544</text>
</a>
</g>
</g>
<!-- 544&#45;&gt;14536 -->
<g id="edge7" class="edge"><title>544&#45;&gt;14536</title>
<path fill="none" stroke="black" d="M161.181,-933.728C189.567,-935.477 234.053,-938.218 264.215,-940.077"/>
</g>
<!-- 643 -->
<g id="node5" class="node"><title>643</title>
<g id="a_node5"><a xlink:title="6th_week">
<ellipse fill="#c81d25" stroke="black" cx="217.229" cy="-2049.28" rx="27" ry="18"/>
<text text-anchor="middle" x="217.229" y="-2045.58" font-family="Times,serif" font-size="14.00">643</text>
</a>
</g>
</g>
<!-- 8651 -->
<g id="node44" class="node"><title>8651</title>
<g id="a_node44"><a xlink:title="6th_week">
<ellipse fill="#c81d25" stroke="black" cx="404.833" cy="-1957.7" rx="28.6953" ry="18"/>
<text text-anchor="middle" x="404.833" y="-1954" font-family="Times,serif" font-size="14.00">8651</text>
</a>
</g>
</g>
<!-- 643&#45;&gt;8651 -->
<g id="edge77" class="edge"><title>643&#45;&gt;8651</title>
<path fill="none" stroke="black" d="M239.116,-2038.59C274.976,-2021.09 345.878,-1986.48 382.21,-1968.74"/>
</g>
<!-- 819 -->
<g id="node6" class="node"><title>819</title>
<g id="a_node6"><a xlink:title="6th_week">
<ellipse fill="#c81d25" stroke="black" cx="782.292" cy="-1176.39" rx="27" ry="18"/>
<text text-anchor="middle" x="782.292" y="-1172.69" font-family="Times,serif" font-size="14.00">819</text>
</a>
</g>
</g>
<!-- 13178 -->
<g id="node63" class="node"><title>13178</title>
<g id="a_node63"><a xlink:title="6th_week">
<ellipse fill="#c81d25" stroke="black" cx="564.405" cy="-1581.88" rx="32.4942" ry="18"/>
<text text-anchor="middle" x="564.405" y="-1578.18" font-family="Times,serif" font-size="14.00">13178</text>
</a>
</g>
</g>
<!-- 819&#45;&gt;13178 -->
<g id="edge85" class="edge"><title>819&#45;&gt;13178</title>
<path fill="none" stroke="black" d="M773.069,-1193.55C737.511,-1259.73 609.525,-1497.91 573.752,-1564.48"/>
</g>
<!-- 819&#45;&gt;14075 -->
<g id="edge8" class="edge"><title>819&#45;&gt;14075</title>
<path fill="none" stroke="black" d="M809.078,-1173.49C898.44,-1163.83 1186.15,-1132.72 1282.95,-1122.25"/>
</g>
<!-- 819&#45;&gt;14536 -->
<g id="edge53" class="edge"><title>819&#45;&gt;14536</title>
<path fill="none" stroke="black" d="M760.159,-1165.71C679.983,-1127.03 405.06,-994.411 321.104,-953.911"/>
</g>
<!-- 951 -->
<g id="node7" class="node"><title>951</title>
<g id="a_node7"><a xlink:title="6th_week">
<ellipse fill="#c81d25" stroke="black" cx="1555.1" cy="-963.161" rx="27" ry="18"/>
<text text-anchor="middle" x="1555.1" y="-959.461" font-family="Times,serif" font-size="14.00">951</text>
</a>
</g>
</g>
<!-- 13111 -->
<g id="node62" class="node"><title>13111</title>
<g id="a_node62"><a xlink:title="6th_week">
<ellipse fill="#c81d25" stroke="black" cx="1727.76" cy="-846.647" rx="32.4942" ry="18"/>
<text text-anchor="middle" x="1727.76" y="-842.947" font-family="Times,serif" font-size="14.00">13111</text>
</a>
</g>
</g>
<!-- 951&#45;&gt;13111 -->
<g id="edge17" class="edge"><title>951&#45;&gt;13111</title>
<path fill="none" stroke="black" d="M1574.24,-950.247C1606.9,-928.206 1673.14,-883.503 1706.93,-860.705"/>
</g>
<!-- 951&#45;&gt;14075 -->
<g id="edge31" class="edge"><title>951&#45;&gt;14075</title>
<path fill="none" stroke="black" d="M1535.46,-975.896C1490.9,-1004.79 1382.44,-1075.1 1336.35,-1104.98"/>
</g>
<!-- 1213 -->
<g id="node8" class="node"><title>1213</title>
<g id="a_node8"><a xlink:title="6th_week">
<ellipse fill="#c81d25" stroke="black" cx="1175.15" cy="-1226.85" rx="28.6953" ry="18"/>
<text text-anchor="middle" x="1175.15" y="-1223.15" font-family="Times,serif" font-size="14.00">1213</text>
</a>
</g>
</g>
<!-- 1213&#45;&gt;14075 -->
<g id="edge14" class="edge"><title>1213&#45;&gt;14075</title>
<path fill="none" stroke="black" d="M1193.44,-1212.72C1219.96,-1192.24 1268.85,-1154.47 1295.87,-1133.61"/>
</g>
<!-- 1332 -->
<g id="node9" class="node"><title>1332</title>
<g id="a_node9"><a xlink:title="6th_week">
<ellipse fill="#c81d25" stroke="black" cx="1755.32" cy="-18.4192" rx="28.6953" ry="18"/>
<text text-anchor="middle" x="1755.32" y="-14.7192" font-family="Times,serif" font-size="14.00">1332</text>
</a>
</g>
</g>
<!-- 10340 -->
<g id="node51" class="node"><title>10340</title>
<g id="a_node51"><a xlink:title="6th_week">
<ellipse fill="#c81d25" stroke="black" cx="1672.24" cy="-196.005" rx="32.4942" ry="18"/>
<text text-anchor="middle" x="1672.24" y="-192.305" font-family="Times,serif" font-size="14.00">10340</text>
</a>
</g>
</g>
<!-- 1332&#45;&gt;10340 -->
<g id="edge21" class="edge"><title>1332&#45;&gt;10340</title>
<path fill="none" stroke="black" d="M1747.21,-35.7702C1731.37,-69.6331 1696.48,-144.192 1680.52,-178.32"/>
</g>
<!-- 1540 -->
<g id="node10" class="node"><title>1540</title>
<g id="a_node10"><a xlink:title="6th_week">
<ellipse fill="#c81d25" stroke="black" cx="1274.28" cy="-1284.59" rx="28.6953" ry="18"/>
<text text-anchor="middle" x="1274.28" y="-1280.89" font-family="Times,serif" font-size="14.00">1540</text>
</a>
</g>
</g>
<!-- 1540&#45;&gt;14075 -->
<g id="edge68" class="edge"><title>1540&#45;&gt;14075</title>
<path fill="none" stroke="black" d="M1278.72,-1266.53C1286.56,-1234.64 1302.78,-1168.7 1310.63,-1136.82"/>
</g>
<!-- 1550 -->
<g id="node11" class="node"><title>1550</title>
<g id="a_node11"><a xlink:title="6th_week">
<ellipse fill="#c81d25" stroke="black" cx="458.497" cy="-2190.86" rx="28.6953" ry="18"/>
<text text-anchor="middle" x="458.497" y="-2187.16" font-family="Times,serif" font-size="14.00">1550</text>
</a>
</g>
</g>
<!-- 1550&#45;&gt;8651 -->
<g id="edge30" class="edge"><title>1550&#45;&gt;8651</title>
<path fill="none" stroke="black" d="M454.375,-2172.95C444.386,-2129.55 418.972,-2019.13 408.969,-1975.67"/>
</g>
<!-- 2788 -->
<g id="node12" class="node"><title>2788</title>
<g id="a_node12"><a xlink:title="6th_week">
<ellipse fill="#c81d25" stroke="black" cx="290.48" cy="-703.945" rx="28.6953" ry="18"/>
<text text-anchor="middle" x="290.48" y="-700.245" font-family="Times,serif" font-size="14.00">2788</text>
</a>
</g>
</g>
<!-- 2788&#45;&gt;14536 -->
<g id="edge82" class="edge"><title>2788&#45;&gt;14536</title>
<path fill="none" stroke="black" d="M290.947,-722.235C292.081,-766.669 294.97,-879.884 296.098,-924.044"/>
</g>
<!-- 2798 -->
<g id="node13" class="node"><title>2798</title>
<g id="a_node13"><a xlink:title="6th_week">
<ellipse fill="#c81d25" stroke="black" cx="294.926" cy="-2113.54" rx="28.6953" ry="18"/>
<text text-anchor="middle" x="294.926" y="-2109.84" font-family="Times,serif" font-size="14.00">2798</text>
</a>
</g>
</g>
<!-- 2798&#45;&gt;8651 -->
<g id="edge10" class="edge"><title>2798&#45;&gt;8651</title>
<path fill="none" stroke="black" d="M306.688,-2096.86C327.842,-2066.87 372.064,-2004.17 393.156,-1974.26"/>
</g>
<!-- 2991 -->
<g id="node14" class="node"><title>2991</title>
<g id="a_node14"><a xlink:title="6th_week">
<ellipse fill="#c81d25" stroke="black" cx="1530.54" cy="-1097.25" rx="28.6953" ry="18"/>
<text text-anchor="middle" x="1530.54" y="-1093.55" font-family="Times,serif" font-size="14.00">2991</text>
</a>
</g>
</g>
<!-- 2991&#45;&gt;14075 -->
<g id="edge27" class="edge"><title>2991&#45;&gt;14075</title>
<path fill="none" stroke="black" d="M1501.93,-1100.11C1461.86,-1104.12 1389.25,-1111.37 1347.31,-1115.56"/>
</g>
<!-- 3343 -->
<g id="node15" class="node"><title>3343</title>
<g id="a_node15"><a xlink:title="6th_week">
<ellipse fill="#c81d25" stroke="black" cx="141.898" cy="-1080.69" rx="28.6953" ry="18"/>
<text text-anchor="middle" x="141.898" y="-1076.99" font-family="Times,serif" font-size="14.00">3343</text>
</a>
</g>
</g>
<!-- 3343&#45;&gt;14536 -->
<g id="edge50" class="edge"><title>3343&#45;&gt;14536</title>
<path fill="none" stroke="black" d="M158.45,-1065.85C187.906,-1039.45 249.145,-984.565 279.183,-957.643"/>
</g>
<!-- 3468 -->
<g id="node16" class="node"><title>3468</title>
<g id="a_node16"><a xlink:title="6th_week">
<ellipse fill="#c81d25" stroke="black" cx="1384.3" cy="-921.473" rx="28.6953" ry="18"/>
<text text-anchor="middle" x="1384.3" y="-917.773" font-family="Times,serif" font-size="14.00">3468</text>
</a>
</g>
</g>
<!-- 3468&#45;&gt;14075 -->
<g id="edge19" class="edge"><title>3468&#45;&gt;14075</title>
<path fill="none" stroke="black" d="M1378.04,-939.331C1364.85,-976.896 1334.39,-1063.7 1321.26,-1101.11"/>
</g>
<!-- 4159 -->
<g id="node17" class="node"><title>4159</title>
<g id="a_node17"><a xlink:title="6th_week">
<ellipse fill="#c81d25" stroke="black" cx="1142.05" cy="-1170.01" rx="28.6953" ry="18"/>
<text text-anchor="middle" x="1142.05" y="-1166.31" font-family="Times,serif" font-size="14.00">4159</text>
</a>
</g>
</g>
<!-- 4159&#45;&gt;14075 -->
<g id="edge39" class="edge"><title>4159&#45;&gt;14075</title>
<path fill="none" stroke="black" d="M1167.95,-1162.34C1199.72,-1152.93 1253.4,-1137.04 1286.38,-1127.27"/>
</g>
<!-- 4303 -->
<g id="node18" class="node"><title>4303</title>
<g id="a_node18"><a xlink:title="6th_week">
<ellipse fill="#c81d25" stroke="black" cx="1881.93" cy="-1024.12" rx="28.6953" ry="18"/>
<text text-anchor="middle" x="1881.93" y="-1020.42" font-family="Times,serif" font-size="14.00">4303</text>
</a>
</g>
</g>
<!-- 14170 -->
<g id="node69" class="node"><title>14170</title>
<g id="a_node69"><a xlink:title="6th_week">
<ellipse fill="#c81d25" stroke="black" cx="1671.6" cy="-1060.05" rx="32.4942" ry="18"/>
<text text-anchor="middle" x="1671.6" y="-1056.35" font-family="Times,serif" font-size="14.00">14170</text>
</a>
</g>
</g>
<!-- 4303&#45;&gt;14170 -->
<g id="edge15" class="edge"><title>4303&#45;&gt;14170</title>
<path fill="none" stroke="black" d="M1854,-1028.89C1814.78,-1035.59 1743.61,-1047.75 1702.73,-1054.74"/>
</g>
<!-- 4377 -->
<g id="node19" class="node"><title>4377</title>
<g id="a_node19"><a xlink:title="6th_week">
<ellipse fill="#c81d25" stroke="black" cx="1238.22" cy="-993.042" rx="28.6953" ry="18"/>
<text text-anchor="middle" x="1238.22" y="-989.342" font-family="Times,serif" font-size="14.00">4377</text>
</a>
</g>
</g>
<!-- 4377&#45;&gt;14075 -->
<g id="edge26" class="edge"><title>4377&#45;&gt;14075</title>
<path fill="none" stroke="black" d="M1248.59,-1010C1263.25,-1034 1289.91,-1077.62 1304.62,-1101.69"/>
</g>
<!-- 4502 -->
<g id="node20" class="node"><title>4502</title>
<g id="a_node20"><a xlink:title="6th_week">
<ellipse fill="#c81d25" stroke="black" cx="419.79" cy="-806.141" rx="28.6953" ry="18"/>
<text text-anchor="middle" x="419.79" y="-802.441" font-family="Times,serif" font-size="14.00">4502</text>
</a>
</g>
</g>
<!-- 4502&#45;&gt;14536 -->
<g id="edge46" class="edge"><title>4502&#45;&gt;14536</title>
<path fill="none" stroke="black" d="M405.412,-822C381.794,-848.052 335.032,-899.631 311.226,-925.891"/>
</g>
<!-- 4526 -->
<g id="node21" class="node"><title>4526</title>
<g id="a_node21"><a xlink:title="6th_week">
<ellipse fill="#c81d25" stroke="black" cx="581.762" cy="-1743.88" rx="28.6953" ry="18"/>
<text text-anchor="middle" x="581.762" y="-1740.18" font-family="Times,serif" font-size="14.00">4526</text>
</a>
</g>
</g>
<!-- 4526&#45;&gt;13178 -->
<g id="edge28" class="edge"><title>4526&#45;&gt;13178</title>
<path fill="none" stroke="black" d="M579.805,-1725.61C576.471,-1694.5 569.729,-1631.56 566.382,-1600.33"/>
</g>
<!-- 4858 -->
<g id="node22" class="node"><title>4858</title>
<g id="a_node22"><a xlink:title="6th_week">
<ellipse fill="#c81d25" stroke="black" cx="1359.35" cy="-1280.89" rx="28.6953" ry="18"/>
<text text-anchor="middle" x="1359.35" y="-1277.19" font-family="Times,serif" font-size="14.00">4858</text>
</a>
</g>
</g>
<!-- 4858&#45;&gt;14075 -->
<g id="edge1" class="edge"><title>4858&#45;&gt;14075</title>
<path fill="none" stroke="black" d="M1354.44,-1262.92C1345.93,-1231.76 1328.52,-1168.05 1319.99,-1136.83"/>
</g>
<!-- 5263 -->
<g id="node23" class="node"><title>5263</title>
<g id="a_node23"><a xlink:title="6th_week">
<ellipse fill="#c81d25" stroke="black" cx="92.8552" cy="-820.773" rx="28.6953" ry="18"/>
<text text-anchor="middle" x="92.8552" y="-817.073" font-family="Times,serif" font-size="14.00">5263</text>
</a>
</g>
</g>
<!-- 5263&#45;&gt;14536 -->
<g id="edge48" class="edge"><title>5263&#45;&gt;14536</title>
<path fill="none" stroke="black" d="M113.888,-833.297C152.617,-856.359 234.859,-905.331 274.408,-928.881"/>
</g>
<!-- 5411 -->
<g id="node24" class="node"><title>5411</title>
<g id="a_node24"><a xlink:title="6th_week">
<ellipse fill="#c81d25" stroke="black" cx="1795.83" cy="-1248.7" rx="28.6953" ry="18"/>
<text text-anchor="middle" x="1795.83" y="-1245" font-family="Times,serif" font-size="14.00">5411</text>
</a>
</g>
</g>
<!-- 7262 -->
<g id="node33" class="node"><title>7262</title>
<g id="a_node33"><a xlink:title="6th_week">
<ellipse fill="#c81d25" stroke="black" cx="1596.82" cy="-1192.45" rx="28.6953" ry="18"/>
<text text-anchor="middle" x="1596.82" y="-1188.75" font-family="Times,serif" font-size="14.00">7262</text>
</a>
</g>
</g>
<!-- 5411&#45;&gt;7262 -->
<g id="edge56" class="edge"><title>5411&#45;&gt;7262</title>
<path fill="none" stroke="black" d="M1769.41,-1241.23C1731.24,-1230.44 1661.09,-1210.62 1623.04,-1199.86"/>
</g>
<!-- 5484 -->
<g id="node25" class="node"><title>5484</title>
<g id="a_node25"><a xlink:title="6th_week">
<ellipse fill="#c81d25" stroke="black" cx="1135.83" cy="-1102.27" rx="28.6953" ry="18"/>
<text text-anchor="middle" x="1135.83" y="-1098.57" font-family="Times,serif" font-size="14.00">5484</text>
</a>
</g>
</g>
<!-- 5484&#45;&gt;14075 -->
<g id="edge58" class="edge"><title>5484&#45;&gt;14075</title>
<path fill="none" stroke="black" d="M1164.23,-1104.89C1196.51,-1107.86 1249.08,-1112.7 1282.86,-1115.82"/>
</g>
<!-- 5686 -->
<g id="node26" class="node"><title>5686</title>
<g id="a_node26"><a xlink:title="6th_week">
<ellipse fill="#c81d25" stroke="black" cx="109.746" cy="-868.884" rx="28.6953" ry="18"/>
<text text-anchor="middle" x="109.746" y="-865.184" font-family="Times,serif" font-size="14.00">5686</text>
</a>
</g>
</g>
<!-- 5686&#45;&gt;14536 -->
<g id="edge51" class="edge"><title>5686&#45;&gt;14536</title>
<path fill="none" stroke="black" d="M134.168,-878.452C169.278,-892.207 233.769,-917.472 270.018,-931.673"/>
</g>
<!-- 6085 -->
<g id="node27" class="node"><title>6085</title>
<g id="a_node27"><a xlink:title="6th_week">
<ellipse fill="#c81d25" stroke="black" cx="138.126" cy="-773.251" rx="28.6953" ry="18"/>
<text text-anchor="middle" x="138.126" y="-769.551" font-family="Times,serif" font-size="14.00">6085</text>
</a>
</g>
</g>
<!-- 6085&#45;&gt;14536 -->
<g id="edge38" class="edge"><title>6085&#45;&gt;14536</title>
<path fill="none" stroke="black" d="M152.747,-788.831C182.776,-820.828 251.122,-893.656 281.51,-926.036"/>
</g>
<!-- 6440 -->
<g id="node28" class="node"><title>6440</title>
<g id="a_node28"><a xlink:title="6th_week">
<ellipse fill="#c81d25" stroke="black" cx="1503" cy="-1172.19" rx="28.6953" ry="18"/>
<text text-anchor="middle" x="1503" y="-1168.49" font-family="Times,serif" font-size="14.00">6440</text>
</a>
</g>
</g>
<!-- 6440&#45;&gt;14075 -->
<g id="edge35" class="edge"><title>6440&#45;&gt;14075</title>
<path fill="none" stroke="black" d="M1476.87,-1164.76C1441.97,-1154.85 1380.35,-1137.33 1344.05,-1127.02"/>
</g>
<!-- 6484 -->
<g id="node29" class="node"><title>6484</title>
<g id="a_node29"><a xlink:title="6th_week">
<ellipse fill="#c81d25" stroke="black" cx="1349.9" cy="-1349.63" rx="28.6953" ry="18"/>
<text text-anchor="middle" x="1349.9" y="-1345.93" font-family="Times,serif" font-size="14.00">6484</text>
</a>
</g>
</g>
<!-- 6484&#45;&gt;14075 -->
<g id="edge62" class="edge"><title>6484&#45;&gt;14075</title>
<path fill="none" stroke="black" d="M1347.17,-1331.52C1340.65,-1288.36 1324.28,-1179.88 1317.78,-1136.81"/>
</g>
<!-- 6714 -->
<g id="node30" class="node"><title>6714</title>
<g id="a_node30"><a xlink:title="6th_week">
<ellipse fill="#c81d25" stroke="black" cx="1486.34" cy="-850.969" rx="28.6953" ry="18"/>
<text text-anchor="middle" x="1486.34" y="-847.269" font-family="Times,serif" font-size="14.00">6714</text>
</a>
</g>
</g>
<!-- 7477 -->
<g id="node37" class="node"><title>7477</title>
<g id="a_node37"><a xlink:title="6th_week">
<ellipse fill="#c81d25" stroke="black" cx="1628.38" cy="-704.953" rx="28.6953" ry="18"/>
<text text-anchor="middle" x="1628.38" y="-701.253" font-family="Times,serif" font-size="14.00">7477</text>
</a>
</g>
</g>
<!-- 6714&#45;&gt;7477 -->
<g id="edge64" class="edge"><title>6714&#45;&gt;7477</title>
<path fill="none" stroke="black" d="M1501.54,-835.342C1528.88,-807.238 1586.03,-748.489 1613.29,-720.466"/>
</g>
<!-- 6714&#45;&gt;14075 -->
<g id="edge73" class="edge"><title>6714&#45;&gt;14075</title>
<path fill="none" stroke="black" d="M1475.63,-867.722C1444.94,-915.703 1356.95,-1053.29 1325.99,-1101.69"/>
</g>
<!-- 7718 -->
<g id="node83" class="node"><title>7718</title>
<g id="a_node83"><a xlink:title="6th_week">
<ellipse fill="#c81d25" stroke="black" cx="1550.57" cy="-662.579" rx="28.6953" ry="18"/>
<text text-anchor="middle" x="1550.57" y="-658.879" font-family="Times,serif" font-size="14.00">7718</text>
</a>
</g>
</g>
<!-- 6714&#45;&gt;7718 -->
<g id="edge9" class="edge"><title>6714&#45;&gt;7718</title>
<path fill="none" stroke="black" d="M1492.38,-833.245C1504.63,-797.34 1532.23,-716.373 1544.5,-680.393"/>
</g>
<!-- 7140 -->
<g id="node31" class="node"><title>7140</title>
<g id="a_node31"><a xlink:title="6th_week">
<ellipse fill="#c81d25" stroke="black" cx="178.041" cy="-821.224" rx="28.6953" ry="18"/>
<text text-anchor="middle" x="178.041" y="-817.524" font-family="Times,serif" font-size="14.00">7140</text>
</a>
</g>
</g>
<!-- 7140&#45;&gt;14536 -->
<g id="edge3" class="edge"><title>7140&#45;&gt;14536</title>
<path fill="none" stroke="black" d="M193.535,-837.022C216.123,-860.055 257.88,-902.632 280.682,-925.882"/>
</g>
<!-- 7154 -->
<g id="node32" class="node"><title>7154</title>
<g id="a_node32"><a xlink:title="6th_week">
<ellipse fill="#c81d25" stroke="black" cx="405.365" cy="-1660.48" rx="28.6953" ry="18"/>
<text text-anchor="middle" x="405.365" y="-1656.78" font-family="Times,serif" font-size="14.00">7154</text>
</a>
</g>
</g>
<!-- 7154&#45;&gt;13178 -->
<g id="edge16" class="edge"><title>7154&#45;&gt;13178</title>
<path fill="none" stroke="black" d="M428.152,-1649.22C457.87,-1634.53 509.646,-1608.94 540.096,-1593.89"/>
</g>
<!-- 7262&#45;&gt;14075 -->
<g id="edge71" class="edge"><title>7262&#45;&gt;14075</title>
<path fill="none" stroke="black" d="M1570.31,-1185.52C1517.57,-1171.73 1399.82,-1140.94 1344.65,-1126.52"/>
</g>
<!-- 7343 -->
<g id="node34" class="node"><title>7343</title>
<g id="a_node34"><a xlink:title="6th_week">
<ellipse fill="#c81d25" stroke="black" cx="159.146" cy="-1013.46" rx="28.6953" ry="18"/>
<text text-anchor="middle" x="159.146" y="-1009.76" font-family="Times,serif" font-size="14.00">7343</text>
</a>
</g>
</g>
<!-- 7343&#45;&gt;14536 -->
<g id="edge59" class="edge"><title>7343&#45;&gt;14536</title>
<path fill="none" stroke="black" d="M181.224,-1001.99C206.259,-988.98 246.935,-967.849 272.689,-954.47"/>
</g>
<!-- 7447 -->
<g id="node35" class="node"><title>7447</title>
<g id="a_node35"><a xlink:title="6th_week">
<ellipse fill="#c81d25" stroke="black" cx="1857.75" cy="-960.184" rx="28.6953" ry="18"/>
<text text-anchor="middle" x="1857.75" y="-956.484" font-family="Times,serif" font-size="14.00">7447</text>
</a>
</g>
</g>
<!-- 7447&#45;&gt;14170 -->
<g id="edge41" class="edge"><title>7447&#45;&gt;14170</title>
<path fill="none" stroke="black" d="M1835.66,-972.033C1800.32,-990.995 1731.35,-1028 1695.12,-1047.44"/>
</g>
<!-- 7460 -->
<g id="node36" class="node"><title>7460</title>
<g id="a_node36"><a xlink:title="6th_week">
<ellipse fill="#c81d25" stroke="black" cx="411.876" cy="-2141.62" rx="28.6953" ry="18"/>
<text text-anchor="middle" x="411.876" y="-2137.92" font-family="Times,serif" font-size="14.00">7460</text>
</a>
</g>
</g>
<!-- 7460&#45;&gt;8651 -->
<g id="edge54" class="edge"><title>7460&#45;&gt;8651</title>
<path fill="none" stroke="black" d="M411.175,-2123.31C409.825,-2088.06 406.879,-2011.13 405.531,-1975.93"/>
</g>
<!-- 7809 -->
<g id="node38" class="node"><title>7809</title>
<g id="a_node38"><a xlink:title="6th_week">
<ellipse fill="#c81d25" stroke="black" cx="1701.6" cy="-288.575" rx="28.6953" ry="18"/>
<text text-anchor="middle" x="1701.6" y="-284.875" font-family="Times,serif" font-size="14.00">7809</text>
</a>
</g>
</g>
<!-- 7809&#45;&gt;13681 -->
<g id="edge40" class="edge"><title>7809&#45;&gt;13681</title>
<path fill="none" stroke="black" d="M1687.85,-304.519C1660.05,-336.738 1597.46,-409.287 1569.43,-441.778"/>
</g>
<!-- 8134 -->
<g id="node39" class="node"><title>8134</title>
<g id="a_node39"><a xlink:title="6th_week">
<ellipse fill="#c81d25" stroke="black" cx="473.692" cy="-1719.04" rx="28.6953" ry="18"/>
<text text-anchor="middle" x="473.692" y="-1715.34" font-family="Times,serif" font-size="14.00">8134</text>
</a>
</g>
</g>
<!-- 8134&#45;&gt;13178 -->
<g id="edge69" class="edge"><title>8134&#45;&gt;13178</title>
<path fill="none" stroke="black" d="M484.815,-1702.23C502.225,-1675.9 535.724,-1625.24 553.191,-1598.83"/>
</g>
<!-- 8232 -->
<g id="node40" class="node"><title>8232</title>
<g id="a_node40"><a xlink:title="6th_week">
<ellipse fill="#c81d25" stroke="black" cx="370.708" cy="-737.59" rx="28.6953" ry="18"/>
<text text-anchor="middle" x="370.708" y="-733.89" font-family="Times,serif" font-size="14.00">8232</text>
</a>
</g>
</g>
<!-- 8232&#45;&gt;14536 -->
<g id="edge65" class="edge"><title>8232&#45;&gt;14536</title>
<path fill="none" stroke="black" d="M364.258,-755.379C350.234,-794.05 317.104,-885.41 303.046,-924.177"/>
</g>
<!-- 8398 -->
<g id="node41" class="node"><title>8398</title>
<g id="a_node41"><a xlink:title="6th_week">
<ellipse fill="#c81d25" stroke="black" cx="1647.85" cy="-2291.68" rx="28.6953" ry="18"/>
<text text-anchor="middle" x="1647.85" y="-2287.98" font-family="Times,serif" font-size="14.00">8398</text>
</a>
</g>
</g>
<!-- 12713 -->
<g id="node59" class="node"><title>12713</title>
<g id="a_node59"><a xlink:title="6th_week">
<ellipse fill="#c81d25" stroke="black" cx="1624.26" cy="-2502.41" rx="32.4942" ry="18"/>
<text text-anchor="middle" x="1624.26" y="-2498.71" font-family="Times,serif" font-size="14.00">12713</text>
</a>
</g>
</g>
<!-- 8398&#45;&gt;12713 -->
<g id="edge37" class="edge"><title>8398&#45;&gt;12713</title>
<path fill="none" stroke="black" d="M1645.84,-2309.64C1641.39,-2349.36 1630.77,-2444.24 1626.3,-2484.19"/>
</g>
<!-- 14146 -->
<g id="node68" class="node"><title>14146</title>
<g id="a_node68"><a xlink:title="6th_week">
<ellipse fill="#c81d25" stroke="black" cx="1548.93" cy="-2461.57" rx="32.4942" ry="18"/>
<text text-anchor="middle" x="1548.93" y="-2457.87" font-family="Times,serif" font-size="14.00">14146</text>
</a>
</g>
</g>
<!-- 8398&#45;&gt;14146 -->
<g id="edge55" class="edge"><title>8398&#45;&gt;14146</title>
<path fill="none" stroke="black" d="M1638,-2308.59C1619.14,-2340.99 1578.09,-2411.49 1559.03,-2444.23"/>
</g>
<!-- 14855 -->
<g id="node72" class="node"><title>14855</title>
<g id="a_node72"><a xlink:title="6th_week">
<ellipse fill="#c81d25" stroke="black" cx="1554.33" cy="-1916.59" rx="32.4942" ry="18"/>
<text text-anchor="middle" x="1554.33" y="-1912.89" font-family="Times,serif" font-size="14.00">14855</text>
</a>
</g>
</g>
<!-- 8398&#45;&gt;14855 -->
<g id="edge4" class="edge"><title>8398&#45;&gt;14855</title>
<path fill="none" stroke="black" d="M1643.34,-2273.59C1627.5,-2210.08 1574.56,-1997.73 1558.79,-1934.5"/>
</g>
<!-- 462 -->
<g id="node79" class="node"><title>462</title>
<g id="a_node79"><a xlink:title="6th_week">
<ellipse fill="#c81d25" stroke="black" cx="1793.13" cy="-2446.92" rx="27" ry="18"/>
<text text-anchor="middle" x="1793.13" y="-2443.22" font-family="Times,serif" font-size="14.00">462</text>
</a>
</g>
</g>
<!-- 8398&#45;&gt;462 -->
<g id="edge81" class="edge"><title>8398&#45;&gt;462</title>
<path fill="none" stroke="black" d="M1662.58,-2307.42C1690.57,-2337.33 1751.11,-2402.02 1778.79,-2431.6"/>
</g>
<!-- 4495 -->
<g id="node80" class="node"><title>4495</title>
<g id="a_node80"><a xlink:title="6th_week">
<ellipse fill="#c81d25" stroke="black" cx="1726.08" cy="-2480.96" rx="28.6953" ry="18"/>
<text text-anchor="middle" x="1726.08" y="-2477.26" font-family="Times,serif" font-size="14.00">4495</text>
</a>
</g>
</g>
<!-- 8398&#45;&gt;4495 -->
<g id="edge29" class="edge"><title>8398&#45;&gt;4495</title>
<path fill="none" stroke="black" d="M1655.07,-2309.15C1669.97,-2345.2 1703.99,-2427.51 1718.88,-2463.53"/>
</g>
<!-- 6458 -->
<g id="node81" class="node"><title>6458</title>
<g id="a_node81"><a xlink:title="6th_week">
<ellipse fill="#c81d25" stroke="black" cx="1831.12" cy="-2378.12" rx="28.6953" ry="18"/>
<text text-anchor="middle" x="1831.12" y="-2374.42" font-family="Times,serif" font-size="14.00">6458</text>
</a>
</g>
</g>
<!-- 8398&#45;&gt;6458 -->
<g id="edge44" class="edge"><title>8398&#45;&gt;6458</title>
<path fill="none" stroke="black" d="M1671.06,-2302.63C1706.31,-2319.25 1772.96,-2350.68 1808.1,-2367.26"/>
</g>
<!-- 12282 -->
<g id="node86" class="node"><title>12282</title>
<g id="a_node86"><a xlink:title="6th_week">
<ellipse fill="#c81d25" stroke="black" cx="1684.22" cy="-2575.59" rx="32.4942" ry="18"/>
<text text-anchor="middle" x="1684.22" y="-2571.89" font-family="Times,serif" font-size="14.00">12282</text>
</a>
</g>
</g>
<!-- 8398&#45;&gt;12282 -->
<g id="edge83" class="edge"><title>8398&#45;&gt;12282</title>
<path fill="none" stroke="black" d="M1650.18,-2309.87C1656.75,-2361.15 1675.36,-2506.46 1681.9,-2557.55"/>
</g>
<!-- 8617 -->
<g id="node42" class="node"><title>8617</title>
<g id="a_node42"><a xlink:title="6th_week">
<ellipse fill="#c81d25" stroke="black" cx="1443.01" cy="-968.546" rx="28.6953" ry="18"/>
<text text-anchor="middle" x="1443.01" y="-964.846" font-family="Times,serif" font-size="14.00">8617</text>
</a>
</g>
</g>
<!-- 8617&#45;&gt;14075 -->
<g id="edge24" class="edge"><title>8617&#45;&gt;14075</title>
<path fill="none" stroke="black" d="M1429.31,-984.624C1404.82,-1013.39 1353.75,-1073.36 1329.04,-1102.36"/>
</g>
<!-- 8636 -->
<g id="node43" class="node"><title>8636</title>
<g id="a_node43"><a xlink:title="6th_week">
<ellipse fill="#c81d25" stroke="black" cx="215.824" cy="-760.509" rx="28.6953" ry="18"/>
<text text-anchor="middle" x="215.824" y="-756.809" font-family="Times,serif" font-size="14.00">8636</text>
</a>
</g>
</g>
<!-- 8636&#45;&gt;14536 -->
<g id="edge12" class="edge"><title>8636&#45;&gt;14536</title>
<path fill="none" stroke="black" d="M223.565,-777.918C238.957,-812.533 273.252,-889.658 288.721,-924.447"/>
</g>
<!-- 11315 -->
<g id="node54" class="node"><title>11315</title>
<g id="a_node54"><a xlink:title="6th_week">
<ellipse fill="#c81d25" stroke="black" cx="193.242" cy="-1982.98" rx="32.4942" ry="18"/>
<text text-anchor="middle" x="193.242" y="-1979.28" font-family="Times,serif" font-size="14.00">11315</text>
</a>
</g>
</g>
<!-- 8651&#45;&gt;11315 -->
<g id="edge66" class="edge"><title>8651&#45;&gt;11315</title>
<path fill="none" stroke="black" d="M376.736,-1961.06C337.503,-1965.74 266.498,-1974.23 225.264,-1979.15"/>
</g>
<!-- 12479 -->
<g id="node58" class="node"><title>12479</title>
<g id="a_node58"><a xlink:title="6th_week">
<ellipse fill="#c81d25" stroke="black" cx="363.435" cy="-2197.53" rx="32.4942" ry="18"/>
<text text-anchor="middle" x="363.435" y="-2193.83" font-family="Times,serif" font-size="14.00">12479</text>
</a>
</g>
</g>
<!-- 8651&#45;&gt;12479 -->
<g id="edge75" class="edge"><title>8651&#45;&gt;12479</title>
<path fill="none" stroke="black" d="M401.722,-1975.73C394.05,-2020.17 374.292,-2134.63 366.583,-2179.29"/>
</g>
<!-- 13089 -->
<g id="node61" class="node"><title>13089</title>
<g id="a_node61"><a xlink:title="6th_week">
<ellipse fill="#c81d25" stroke="black" cx="510.169" cy="-2130.56" rx="32.4942" ry="18"/>
<text text-anchor="middle" x="510.169" y="-2126.86" font-family="Times,serif" font-size="14.00">13089</text>
</a>
</g>
</g>
<!-- 8651&#45;&gt;13089 -->
<g id="edge34" class="edge"><title>8651&#45;&gt;13089</title>
<path fill="none" stroke="black" d="M415.125,-1974.59C435.211,-2007.55 479.436,-2080.13 499.68,-2113.35"/>
</g>
<!-- 8651&#45;&gt;13178 -->
<g id="edge45" class="edge"><title>8651&#45;&gt;13178</title>
<path fill="none" stroke="black" d="M412.316,-1940.08C439.119,-1876.95 530.161,-1662.53 556.939,-1599.46"/>
</g>
<!-- 13256 -->
<g id="node64" class="node"><title>13256</title>
<g id="a_node64"><a xlink:title="6th_week">
<ellipse fill="#c81d25" stroke="black" cx="286.126" cy="-2181.49" rx="32.4942" ry="18"/>
<text text-anchor="middle" x="286.126" y="-2177.79" font-family="Times,serif" font-size="14.00">13256</text>
</a>
</g>
</g>
<!-- 8651&#45;&gt;13256 -->
<g id="edge42" class="edge"><title>8651&#45;&gt;13256</title>
<path fill="none" stroke="black" d="M395.716,-1974.89C373.674,-2016.44 317.679,-2122 295.438,-2163.93"/>
</g>
<!-- 16020 -->
<g id="node75" class="node"><title>16020</title>
<g id="a_node75"><a xlink:title="6th_week">
<ellipse fill="#c81d25" stroke="black" cx="213.36" cy="-2116" rx="32.4942" ry="18"/>
<text text-anchor="middle" x="213.36" y="-2112.3" font-family="Times,serif" font-size="14.00">16020</text>
</a>
</g>
</g>
<!-- 8651&#45;&gt;16020 -->
<g id="edge70" class="edge"><title>8651&#45;&gt;16020</title>
<path fill="none" stroke="black" d="M387.504,-1972.03C351.418,-2001.86 268.509,-2070.41 231.627,-2100.9"/>
</g>
<!-- 8736 -->
<g id="node45" class="node"><title>8736</title>
<g id="a_node45"><a xlink:title="6th_week">
<ellipse fill="#c81d25" stroke="black" cx="289.633" cy="-1103.97" rx="28.6953" ry="18"/>
<text text-anchor="middle" x="289.633" y="-1100.27" font-family="Times,serif" font-size="14.00">8736</text>
</a>
</g>
</g>
<!-- 8736&#45;&gt;14536 -->
<g id="edge23" class="edge"><title>8736&#45;&gt;14536</title>
<path fill="none" stroke="black" d="M290.414,-1085.72C291.744,-1054.62 294.434,-991.728 295.769,-960.509"/>
</g>
<!-- 9000 -->
<g id="node46" class="node"><title>9000</title>
<g id="a_node46"><a xlink:title="6th_week">
<ellipse fill="#c81d25" stroke="black" cx="1469.24" cy="-1246.95" rx="28.6953" ry="18"/>
<text text-anchor="middle" x="1469.24" y="-1243.25" font-family="Times,serif" font-size="14.00">9000</text>
</a>
</g>
</g>
<!-- 9000&#45;&gt;14075 -->
<g id="edge18" class="edge"><title>9000&#45;&gt;14075</title>
<path fill="none" stroke="black" d="M1451.85,-1232.5C1422.4,-1208.01 1362.99,-1158.62 1333.1,-1133.78"/>
</g>
<!-- 9715 -->
<g id="node47" class="node"><title>9715</title>
<g id="a_node47"><a xlink:title="6th_week">
<ellipse fill="#c81d25" stroke="black" cx="1430.67" cy="-1312.28" rx="28.6953" ry="18"/>
<text text-anchor="middle" x="1430.67" y="-1308.58" font-family="Times,serif" font-size="14.00">9715</text>
</a>
</g>
</g>
<!-- 9715&#45;&gt;14075 -->
<g id="edge61" class="edge"><title>9715&#45;&gt;14075</title>
<path fill="none" stroke="black" d="M1420.41,-1295.11C1398.47,-1258.39 1347.22,-1172.6 1325.3,-1135.92"/>
</g>
<!-- 9957 -->
<g id="node48" class="node"><title>9957</title>
<g id="a_node48"><a xlink:title="6th_week">
<ellipse fill="#c81d25" stroke="black" cx="388.524" cy="-1579.74" rx="28.6953" ry="18"/>
<text text-anchor="middle" x="388.524" y="-1576.04" font-family="Times,serif" font-size="14.00">9957</text>
</a>
</g>
</g>
<!-- 9957&#45;&gt;13178 -->
<g id="edge60" class="edge"><title>9957&#45;&gt;13178</title>
<path fill="none" stroke="black" d="M417.174,-1580.09C448.614,-1580.47 498.981,-1581.08 531.882,-1581.48"/>
</g>
<!-- 9998 -->
<g id="node49" class="node"><title>9998</title>
<g id="a_node49"><a xlink:title="6th_week">
<ellipse fill="#c81d25" stroke="black" cx="1882.82" cy="-1092.98" rx="28.6953" ry="18"/>
<text text-anchor="middle" x="1882.82" y="-1089.28" font-family="Times,serif" font-size="14.00">9998</text>
</a>
</g>
</g>
<!-- 9998&#45;&gt;14170 -->
<g id="edge47" class="edge"><title>9998&#45;&gt;14170</title>
<path fill="none" stroke="black" d="M1854.77,-1088.61C1815.5,-1082.48 1744.32,-1071.39 1703.21,-1064.98"/>
</g>
<!-- 10257 -->
<g id="node50" class="node"><title>10257</title>
<g id="a_node50"><a xlink:title="6th_week">
<ellipse fill="#c81d25" stroke="black" cx="1294.23" cy="-884.497" rx="32.4942" ry="18"/>
<text text-anchor="middle" x="1294.23" y="-880.797" font-family="Times,serif" font-size="14.00">10257</text>
</a>
</g>
</g>
<!-- 10257&#45;&gt;14075 -->
<g id="edge57" class="edge"><title>10257&#45;&gt;14075</title>
<path fill="none" stroke="black" d="M1295.83,-902.492C1299.7,-946.102 1309.57,-1057.05 1313.46,-1100.73"/>
</g>
<!-- 10340&#45;&gt;13681 -->
<g id="edge67" class="edge"><title>10340&#45;&gt;13681</title>
<path fill="none" stroke="black" d="M1664.4,-213.605C1643.11,-261.343 1584.45,-392.88 1563.2,-440.528"/>
</g>
<!-- 11002 -->
<g id="node52" class="node"><title>11002</title>
<g id="a_node52"><a xlink:title="6th_week">
<ellipse fill="#c81d25" stroke="black" cx="1462.21" cy="-1539.15" rx="32.4942" ry="18"/>
<text text-anchor="middle" x="1462.21" y="-1535.45" font-family="Times,serif" font-size="14.00">11002</text>
</a>
</g>
</g>
<!-- 11002&#45;&gt;14075 -->
<g id="edge25" class="edge"><title>11002&#45;&gt;14075</title>
<path fill="none" stroke="black" d="M1455.98,-1521.36C1431.96,-1452.75 1345.53,-1205.83 1321.37,-1136.82"/>
</g>
<!-- 14414 -->
<g id="node70" class="node"><title>14414</title>
<g id="a_node70"><a xlink:title="6th_week">
<ellipse fill="#c81d25" stroke="black" cx="1622.57" cy="-1697.11" rx="32.4942" ry="18"/>
<text text-anchor="middle" x="1622.57" y="-1693.41" font-family="Times,serif" font-size="14.00">14414</text>
</a>
</g>
</g>
<!-- 11002&#45;&gt;14414 -->
<g id="edge11" class="edge"><title>11002&#45;&gt;14414</title>
<path fill="none" stroke="black" d="M1478.17,-1554.87C1508.75,-1584.99 1575.3,-1650.54 1606.2,-1680.98"/>
</g>
<!-- 11002&#45;&gt;14855 -->
<g id="edge6" class="edge"><title>11002&#45;&gt;14855</title>
<path fill="none" stroke="black" d="M1466.65,-1557.35C1482.25,-1621.26 1534.4,-1834.95 1549.93,-1898.57"/>
</g>
<!-- 11027 -->
<g id="node53" class="node"><title>11027</title>
<g id="a_node53"><a xlink:title="6th_week">
<ellipse fill="#c81d25" stroke="black" cx="1202.92" cy="-1290.6" rx="32.4942" ry="18"/>
<text text-anchor="middle" x="1202.92" y="-1286.9" font-family="Times,serif" font-size="14.00">11027</text>
</a>
</g>
</g>
<!-- 11027&#45;&gt;14075 -->
<g id="edge5" class="edge"><title>11027&#45;&gt;14075</title>
<path fill="none" stroke="black" d="M1214.08,-1273.5C1235.58,-1240.56 1282.48,-1168.7 1303.94,-1135.82"/>
</g>
<!-- 11622 -->
<g id="node55" class="node"><title>11622</title>
<g id="a_node55"><a xlink:title="6th_week">
<ellipse fill="#c81d25" stroke="black" cx="1796.18" cy="-1841.21" rx="32.4942" ry="18"/>
<text text-anchor="middle" x="1796.18" y="-1837.51" font-family="Times,serif" font-size="14.00">11622</text>
</a>
</g>
</g>
<!-- 11622&#45;&gt;14414 -->
<g id="edge13" class="edge"><title>11622&#45;&gt;14414</title>
<path fill="none" stroke="black" d="M1777.93,-1826.06C1744.59,-1798.38 1674.2,-1739.96 1640.84,-1712.27"/>
</g>
<!-- 11994 -->
<g id="node56" class="node"><title>11994</title>
<g id="a_node56"><a xlink:title="6th_week">
<ellipse fill="#c81d25" stroke="black" cx="1310.46" cy="-934.568" rx="32.4942" ry="18"/>
<text text-anchor="middle" x="1310.46" y="-930.868" font-family="Times,serif" font-size="14.00">11994</text>
</a>
</g>
</g>
<!-- 11994&#45;&gt;14075 -->
<g id="edge22" class="edge"><title>11994&#45;&gt;14075</title>
<path fill="none" stroke="black" d="M1310.91,-952.566C1311.79,-987.784 1313.73,-1065.43 1314.61,-1100.71"/>
</g>
<!-- 12002 -->
<g id="node57" class="node"><title>12002</title>
<g id="a_node57"><a xlink:title="6th_week">
<ellipse fill="#c81d25" stroke="black" cx="1736.42" cy="-1403.42" rx="32.4942" ry="18"/>
<text text-anchor="middle" x="1736.42" y="-1399.72" font-family="Times,serif" font-size="14.00">12002</text>
</a>
</g>
</g>
<!-- 17069 -->
<g id="node77" class="node"><title>17069</title>
<g id="a_node77"><a xlink:title="6th_week">
<ellipse fill="#c81d25" stroke="black" cx="1556.59" cy="-1290.48" rx="32.4942" ry="18"/>
<text text-anchor="middle" x="1556.59" y="-1286.78" font-family="Times,serif" font-size="14.00">17069</text>
</a>
</g>
</g>
<!-- 12002&#45;&gt;17069 -->
<g id="edge86" class="edge"><title>12002&#45;&gt;17069</title>
<path fill="none" stroke="black" d="M1714.73,-1389.8C1680.17,-1368.09 1612.97,-1325.89 1578.36,-1304.15"/>
</g>
<!-- 13035 -->
<g id="node60" class="node"><title>13035</title>
<g id="a_node60"><a xlink:title="6th_week">
<ellipse fill="#c81d25" stroke="black" cx="202.341" cy="-714.69" rx="32.4942" ry="18"/>
<text text-anchor="middle" x="202.341" y="-710.99" font-family="Times,serif" font-size="14.00">13035</text>
</a>
</g>
</g>
<!-- 13035&#45;&gt;14536 -->
<g id="edge52" class="edge"><title>13035&#45;&gt;14536</title>
<path fill="none" stroke="black" d="M209.734,-732.532C227.346,-775.037 271.621,-881.889 289.199,-924.311"/>
</g>
<!-- 13949 -->
<g id="node66" class="node"><title>13949</title>
<g id="a_node66"><a xlink:title="6th_week">
<ellipse fill="#c81d25" stroke="black" cx="1569.58" cy="-229.914" rx="32.4942" ry="18"/>
<text text-anchor="middle" x="1569.58" y="-226.214" font-family="Times,serif" font-size="14.00">13949</text>
</a>
</g>
</g>
<!-- 13681&#45;&gt;13949 -->
<g id="edge36" class="edge"><title>13681&#45;&gt;13949</title>
<path fill="none" stroke="black" d="M1556.52,-439.768C1559.19,-396.946 1565.81,-290.563 1568.46,-247.969"/>
</g>
<!-- 14075&#45;&gt;14170 -->
<g id="edge72" class="edge"><title>14075&#45;&gt;14170</title>
<path fill="none" stroke="black" d="M1346.39,-1113.62C1413.94,-1102.5 1572.62,-1076.36 1640.22,-1065.22"/>
</g>
<!-- 15760 -->
<g id="node74" class="node"><title>15760</title>
<g id="a_node74"><a xlink:title="6th_week">
<ellipse fill="#c81d25" stroke="black" cx="1164.71" cy="-970.336" rx="32.4942" ry="18"/>
<text text-anchor="middle" x="1164.71" y="-966.636" font-family="Times,serif" font-size="14.00">15760</text>
</a>
</g>
</g>
<!-- 14075&#45;&gt;15760 -->
<g id="edge20" class="edge"><title>14075&#45;&gt;15760</title>
<path fill="none" stroke="black" d="M1298.97,-1102.9C1270.03,-1074.32 1209.54,-1014.6 1180.69,-986.108"/>
</g>
<!-- 14075&#45;&gt;17069 -->
<g id="edge79" class="edge"><title>14075&#45;&gt;17069</title>
<path fill="none" stroke="black" d="M1335.24,-1133.13C1380.7,-1165.44 1490.73,-1243.66 1536.3,-1276.05"/>
</g>
<!-- 6973 -->
<g id="node82" class="node"><title>6973</title>
<g id="a_node82"><a xlink:title="6th_week">
<ellipse fill="#c81d25" stroke="black" cx="1491.93" cy="-1032.89" rx="28.6953" ry="18"/>
<text text-anchor="middle" x="1491.93" y="-1029.19" font-family="Times,serif" font-size="14.00">6973</text>
</a>
</g>
</g>
<!-- 14075&#45;&gt;6973 -->
<g id="edge80" class="edge"><title>14075&#45;&gt;6973</title>
<path fill="none" stroke="black" d="M1339.65,-1106.84C1374.01,-1090.15 1435.91,-1060.1 1469.23,-1043.92"/>
</g>
<!-- 9841 -->
<g id="node84" class="node"><title>9841</title>
<g id="a_node84"><a xlink:title="6th_week">
<ellipse fill="#c81d25" stroke="black" cx="1148.28" cy="-1037.26" rx="28.6953" ry="18"/>
<text text-anchor="middle" x="1148.28" y="-1033.56" font-family="Times,serif" font-size="14.00">9841</text>
</a>
</g>
</g>
<!-- 14075&#45;&gt;9841 -->
<g id="edge43" class="edge"><title>14075&#45;&gt;9841</title>
<path fill="none" stroke="black" d="M1290.45,-1106.75C1258.28,-1091.03 1202.37,-1063.7 1171.11,-1048.42"/>
</g>
<!-- 13751 -->
<g id="node87" class="node"><title>13751</title>
<g id="a_node87"><a xlink:title="6th_week">
<ellipse fill="#c81d25" stroke="black" cx="1220.9" cy="-918.587" rx="32.4942" ry="18"/>
<text text-anchor="middle" x="1220.9" y="-914.887" font-family="Times,serif" font-size="14.00">13751</text>
</a>
</g>
</g>
<!-- 14075&#45;&gt;13751 -->
<g id="edge76" class="edge"><title>14075&#45;&gt;13751</title>
<path fill="none" stroke="black" d="M1306.71,-1101.02C1288.79,-1062.93 1246.88,-973.821 1229.1,-936.027"/>
</g>
<!-- 15169 -->
<g id="node73" class="node"><title>15169</title>
<g id="a_node73"><a xlink:title="6th_week">
<ellipse fill="#c81d25" stroke="black" cx="32.779" cy="-921.699" rx="32.4942" ry="18"/>
<text text-anchor="middle" x="32.779" y="-917.999" font-family="Times,serif" font-size="14.00">15169</text>
</a>
</g>
</g>
<!-- 14536&#45;&gt;15169 -->
<g id="edge32" class="edge"><title>14536&#45;&gt;15169</title>
<path fill="none" stroke="black" d="M264.213,-939.572C213.45,-935.652 115.647,-928.099 64.975,-924.185"/>
</g>
<!-- 16250 -->
<g id="node76" class="node"><title>16250</title>
<g id="a_node76"><a xlink:title="6th_week">
<ellipse fill="#c81d25" stroke="black" cx="87.9129" cy="-1033.65" rx="32.4942" ry="18"/>
<text text-anchor="middle" x="87.9129" y="-1029.95" font-family="Times,serif" font-size="14.00">16250</text>
</a>
</g>
</g>
<!-- 14536&#45;&gt;16250 -->
<g id="edge33" class="edge"><title>14536&#45;&gt;16250</title>
<path fill="none" stroke="black" d="M270.974,-953.3C230.929,-970.876 153.879,-1004.7 113.706,-1022.33"/>
</g>
<!-- 17418 -->
<g id="node78" class="node"><title>17418</title>
<g id="a_node78"><a xlink:title="6th_week">
<ellipse fill="#c81d25" stroke="black" cx="65.6102" cy="-974.159" rx="32.4942" ry="18"/>
<text text-anchor="middle" x="65.6102" y="-970.459" font-family="Times,serif" font-size="14.00">17418</text>
</a>
</g>
</g>
<!-- 14536&#45;&gt;17418 -->
<g id="edge2" class="edge"><title>14536&#45;&gt;17418</title>
<path fill="none" stroke="black" d="M264.93,-946.464C220.827,-952.592 141.322,-963.639 97.226,-969.766"/>
</g>
<!-- 10927 -->
<g id="node85" class="node"><title>10927</title>
<g id="a_node85"><a xlink:title="6th_week">
<ellipse fill="#c81d25" stroke="black" cx="1721.43" cy="-2768.17" rx="32.4942" ry="18"/>
<text text-anchor="middle" x="1721.43" y="-2764.47" font-family="Times,serif" font-size="14.00">10927</text>
</a>
</g>
</g>
<!-- 10927&#45;&gt;12282 -->
<g id="edge63" class="edge"><title>10927&#45;&gt;12282</title>
<path fill="none" stroke="black" d="M1717.93,-2750.06C1710.82,-2713.26 1694.76,-2630.16 1687.68,-2593.52"/>
</g>
</g>
</svg>
