<?xml version="1.0" encoding="UTF-8" standalone="no"?>
<!DOCTYPE svg PUBLIC "-//W3C//DTD SVG 1.1//EN"
 "http://www.w3.org/Graphics/SVG/1.1/DTD/svg11.dtd">
<!-- Generated by graphviz version 2.38.0 (20140413.2041)
 -->
<!-- Title: %3 Pages: 1 -->
<svg width="1501pt" height="1153pt"
 viewBox="0.00 0.00 1501.00 1153.00" xmlns="http://www.w3.org/2000/svg" xmlns:xlink="http://www.w3.org/1999/xlink">
<g id="graph0" class="graph" transform="scale(1 1) rotate(0) translate(4 1149)">
<title>%3</title>
<polygon fill="white" stroke="none" points="-4,4 -4,-1149 1497,-1149 1497,4 -4,4"/>
<!-- 7 -->
<g id="node1" class="node"><title>7</title>
<g id="a_node1"><a xlink:title="3rd_week">
<ellipse fill="#ee9898" stroke="black" cx="484.354" cy="-300.687" rx="27" ry="18"/>
<text text-anchor="middle" x="484.354" y="-296.987" font-family="Times,serif" font-size="14.00">7</text>
</a>
</g>
</g>
<!-- 11095 -->
<g id="node18" class="node"><title>11095</title>
<g id="a_node18"><a xlink:title="3rd_week">
<ellipse fill="#ee9898" stroke="black" cx="396.801" cy="-98.8186" rx="32.4942" ry="18"/>
<text text-anchor="middle" x="396.801" y="-95.1186" font-family="Times,serif" font-size="14.00">11095</text>
</a>
</g>
</g>
<!-- 7&#45;&gt;11095 -->
<g id="edge17" class="edge"><title>7&#45;&gt;11095</title>
<path fill="none" stroke="black" d="M476.737,-283.125C460.179,-244.948 421.061,-154.755 404.462,-116.483"/>
</g>
<!-- 19688 -->
<g id="node34" class="node"><title>19688</title>
<g id="a_node34"><a xlink:title="3rd_week">
<ellipse fill="#ee9898" stroke="black" cx="611.172" cy="-570.72" rx="32.4942" ry="18"/>
<text text-anchor="middle" x="611.172" y="-567.02" font-family="Times,serif" font-size="14.00">19688</text>
</a>
</g>
</g>
<!-- 7&#45;&gt;19688 -->
<g id="edge26" class="edge"><title>7&#45;&gt;19688</title>
<path fill="none" stroke="black" d="M492.48,-317.989C515.331,-366.647 579.981,-504.306 602.949,-553.212"/>
</g>
<!-- 278 -->
<g id="node2" class="node"><title>278</title>
<g id="a_node2"><a xlink:title="3rd_week">
<ellipse fill="#ee9898" stroke="black" cx="713.678" cy="-890.255" rx="27" ry="18"/>
<text text-anchor="middle" x="713.678" y="-886.555" font-family="Times,serif" font-size="14.00">278</text>
</a>
</g>
</g>
<!-- 1436 -->
<g id="node5" class="node"><title>1436</title>
<g id="a_node5"><a xlink:title="3rd_week">
<ellipse fill="#ee9898" stroke="black" cx="741.364" cy="-1099.88" rx="28.6953" ry="18"/>
<text text-anchor="middle" x="741.364" y="-1096.18" font-family="Times,serif" font-size="14.00">1436</text>
</a>
</g>
</g>
<!-- 278&#45;&gt;1436 -->
<g id="edge3" class="edge"><title>278&#45;&gt;1436</title>
<path fill="none" stroke="black" d="M716.087,-908.491C721.336,-948.235 733.755,-1042.26 738.981,-1081.83"/>
</g>
<!-- 278&#45;&gt;19688 -->
<g id="edge14" class="edge"><title>278&#45;&gt;19688</title>
<path fill="none" stroke="black" d="M708.021,-872.62C690.141,-816.885 634.968,-644.899 616.938,-588.694"/>
</g>
<!-- 21625 -->
<g id="node36" class="node"><title>21625</title>
<g id="a_node36"><a xlink:title="3rd_week">
<ellipse fill="#ee9898" stroke="black" cx="817.874" cy="-1079.53" rx="32.4942" ry="18"/>
<text text-anchor="middle" x="817.874" y="-1075.83" font-family="Times,serif" font-size="14.00">21625</text>
</a>
</g>
</g>
<!-- 278&#45;&gt;21625 -->
<g id="edge54" class="edge"><title>278&#45;&gt;21625</title>
<path fill="none" stroke="black" d="M723.109,-907.385C742.896,-943.329 788.556,-1026.27 808.39,-1062.3"/>
</g>
<!-- 426 -->
<g id="node3" class="node"><title>426</title>
<g id="a_node3"><a xlink:title="3rd_week">
<ellipse fill="#ee9898" stroke="black" cx="610.124" cy="-427.757" rx="27" ry="18"/>
<text text-anchor="middle" x="610.124" y="-424.057" font-family="Times,serif" font-size="14.00">426</text>
</a>
</g>
</g>
<!-- 426&#45;&gt;19688 -->
<g id="edge31" class="edge"><title>426&#45;&gt;19688</title>
<path fill="none" stroke="black" d="M610.257,-445.863C610.457,-473.212 610.835,-524.781 611.037,-552.309"/>
</g>
<!-- 1185 -->
<g id="node4" class="node"><title>1185</title>
<g id="a_node4"><a xlink:title="3rd_week">
<ellipse fill="#ee9898" stroke="black" cx="380.073" cy="-539.451" rx="28.6953" ry="18"/>
<text text-anchor="middle" x="380.073" y="-535.751" font-family="Times,serif" font-size="14.00">1185</text>
</a>
</g>
</g>
<!-- 1185&#45;&gt;19688 -->
<g id="edge53" class="edge"><title>1185&#45;&gt;19688</title>
<path fill="none" stroke="black" d="M408.41,-543.286C451.679,-549.14 533.956,-560.273 579.266,-566.403"/>
</g>
<!-- 1555 -->
<g id="node6" class="node"><title>1555</title>
<g id="a_node6"><a xlink:title="3rd_week">
<ellipse fill="#ee9898" stroke="black" cx="421.788" cy="-486.165" rx="28.6953" ry="18"/>
<text text-anchor="middle" x="421.788" y="-482.465" font-family="Times,serif" font-size="14.00">1555</text>
</a>
</g>
</g>
<!-- 1555&#45;&gt;19688 -->
<g id="edge8" class="edge"><title>1555&#45;&gt;19688</title>
<path fill="none" stroke="black" d="M445.39,-496.703C481.186,-512.685 548.92,-542.926 585.759,-559.374"/>
</g>
<!-- 2684 -->
<g id="node7" class="node"><title>2684</title>
<g id="a_node7"><a xlink:title="3rd_week">
<ellipse fill="#ee9898" stroke="black" cx="744.158" cy="-720.369" rx="28.6953" ry="18"/>
<text text-anchor="middle" x="744.158" y="-716.669" font-family="Times,serif" font-size="14.00">2684</text>
</a>
</g>
</g>
<!-- 2684&#45;&gt;19688 -->
<g id="edge13" class="edge"><title>2684&#45;&gt;19688</title>
<path fill="none" stroke="black" d="M730.178,-704.637C704.836,-676.12 651.558,-616.166 625.77,-587.148"/>
</g>
<!-- 3431 -->
<g id="node8" class="node"><title>3431</title>
<g id="a_node8"><a xlink:title="3rd_week">
<ellipse fill="#ee9898" stroke="black" cx="37.8634" cy="-673.358" rx="28.6953" ry="18"/>
<text text-anchor="middle" x="37.8634" y="-669.658" font-family="Times,serif" font-size="14.00">3431</text>
</a>
</g>
</g>
<!-- 31205 -->
<g id="node51" class="node"><title>31205</title>
<g id="a_node51"><a xlink:title="3rd_week">
<ellipse fill="#ee9898" stroke="black" cx="247.554" cy="-636.565" rx="32.4942" ry="18"/>
<text text-anchor="middle" x="247.554" y="-632.865" font-family="Times,serif" font-size="14.00">31205</text>
</a>
</g>
</g>
<!-- 3431&#45;&gt;31205 -->
<g id="edge23" class="edge"><title>3431&#45;&gt;31205</title>
<path fill="none" stroke="black" d="M65.7087,-668.472C104.812,-661.611 175.764,-649.162 216.519,-642.011"/>
</g>
<!-- 4049 -->
<g id="node9" class="node"><title>4049</title>
<g id="a_node9"><a xlink:title="3rd_week">
<ellipse fill="#ee9898" stroke="black" cx="1042.27" cy="-220.603" rx="28.6953" ry="18"/>
<text text-anchor="middle" x="1042.27" y="-216.903" font-family="Times,serif" font-size="14.00">4049</text>
</a>
</g>
</g>
<!-- 6077 -->
<g id="node13" class="node"><title>6077</title>
<g id="a_node13"><a xlink:title="3rd_week">
<ellipse fill="#ee9898" stroke="black" cx="843.844" cy="-350.577" rx="28.6953" ry="18"/>
<text text-anchor="middle" x="843.844" y="-346.877" font-family="Times,serif" font-size="14.00">6077</text>
</a>
</g>
</g>
<!-- 4049&#45;&gt;6077 -->
<g id="edge28" class="edge"><title>4049&#45;&gt;6077</title>
<path fill="none" stroke="black" d="M1022.16,-233.781C984.025,-258.757 901.663,-312.704 863.721,-337.557"/>
</g>
<!-- 5588 -->
<g id="node10" class="node"><title>5588</title>
<g id="a_node10"><a xlink:title="3rd_week">
<ellipse fill="#ee9898" stroke="black" cx="732.602" cy="-622.615" rx="28.6953" ry="18"/>
<text text-anchor="middle" x="732.602" y="-618.915" font-family="Times,serif" font-size="14.00">5588</text>
</a>
</g>
</g>
<!-- 5588&#45;&gt;19688 -->
<g id="edge51" class="edge"><title>5588&#45;&gt;19688</title>
<path fill="none" stroke="black" d="M708.901,-612.486C688.195,-603.637 658.201,-590.819 636.912,-581.721"/>
</g>
<!-- 5622 -->
<g id="node11" class="node"><title>5622</title>
<g id="a_node11"><a xlink:title="3rd_week">
<ellipse fill="#ee9898" stroke="black" cx="537.272" cy="-713.797" rx="28.6953" ry="18"/>
<text text-anchor="middle" x="537.272" y="-710.097" font-family="Times,serif" font-size="14.00">5622</text>
</a>
</g>
</g>
<!-- 5622&#45;&gt;19688 -->
<g id="edge22" class="edge"><title>5622&#45;&gt;19688</title>
<path fill="none" stroke="black" d="M546.186,-696.539C560.39,-669.039 588.002,-615.578 602.226,-588.04"/>
</g>
<!-- 5937 -->
<g id="node12" class="node"><title>5937</title>
<g id="a_node12"><a xlink:title="3rd_week">
<ellipse fill="#ee9898" stroke="black" cx="821.232" cy="-680.538" rx="28.6953" ry="18"/>
<text text-anchor="middle" x="821.232" y="-676.838" font-family="Times,serif" font-size="14.00">5937</text>
</a>
</g>
</g>
<!-- 5937&#45;&gt;19688 -->
<g id="edge41" class="edge"><title>5937&#45;&gt;19688</title>
<path fill="none" stroke="black" d="M799.149,-668.994C759.332,-648.177 675.848,-604.533 634.877,-583.114"/>
</g>
<!-- 6077&#45;&gt;19688 -->
<g id="edge44" class="edge"><title>6077&#45;&gt;19688</title>
<path fill="none" stroke="black" d="M827.851,-365.708C785.551,-405.731 671.023,-514.092 627.899,-554.894"/>
</g>
<!-- 11226 -->
<g id="node61" class="node"><title>11226</title>
<g id="a_node61"><a xlink:title="3rd_week">
<ellipse fill="#ee9898" stroke="black" cx="991.221" cy="-153.692" rx="32.4942" ry="18"/>
<text text-anchor="middle" x="991.221" y="-149.992" font-family="Times,serif" font-size="14.00">11226</text>
</a>
</g>
</g>
<!-- 6077&#45;&gt;11226 -->
<g id="edge10" class="edge"><title>6077&#45;&gt;11226</title>
<path fill="none" stroke="black" d="M856.156,-334.129C883.828,-297.161 950.699,-207.826 978.632,-170.51"/>
</g>
<!-- 8215 -->
<g id="node14" class="node"><title>8215</title>
<g id="a_node14"><a xlink:title="3rd_week">
<ellipse fill="#ee9898" stroke="black" cx="1050.07" cy="-905.475" rx="28.6953" ry="18"/>
<text text-anchor="middle" x="1050.07" y="-901.775" font-family="Times,serif" font-size="14.00">8215</text>
</a>
</g>
</g>
<!-- 17694 -->
<g id="node28" class="node"><title>17694</title>
<g id="a_node28"><a xlink:title="3rd_week">
<ellipse fill="#ee9898" stroke="black" cx="866.167" cy="-799.623" rx="32.4942" ry="18"/>
<text text-anchor="middle" x="866.167" y="-795.923" font-family="Times,serif" font-size="14.00">17694</text>
</a>
</g>
</g>
<!-- 8215&#45;&gt;17694 -->
<g id="edge27" class="edge"><title>8215&#45;&gt;17694</title>
<path fill="none" stroke="black" d="M1028.61,-893.125C993.651,-873.001 924.707,-833.318 888.922,-812.721"/>
</g>
<!-- 8914 -->
<g id="node15" class="node"><title>8914</title>
<g id="a_node15"><a xlink:title="3rd_week">
<ellipse fill="#ee9898" stroke="black" cx="522.128" cy="-788.734" rx="28.6953" ry="18"/>
<text text-anchor="middle" x="522.128" y="-785.034" font-family="Times,serif" font-size="14.00">8914</text>
</a>
</g>
</g>
<!-- 8914&#45;&gt;19688 -->
<g id="edge2" class="edge"><title>8914&#45;&gt;19688</title>
<path fill="none" stroke="black" d="M529.264,-771.261C545.896,-730.541 587.091,-629.68 603.877,-588.581"/>
</g>
<!-- 10049 -->
<g id="node16" class="node"><title>10049</title>
<g id="a_node16"><a xlink:title="3rd_week">
<ellipse fill="#ee9898" stroke="black" cx="403.246" cy="-348.374" rx="32.4942" ry="18"/>
<text text-anchor="middle" x="403.246" y="-344.674" font-family="Times,serif" font-size="14.00">10049</text>
</a>
</g>
</g>
<!-- 11982 -->
<g id="node19" class="node"><title>11982</title>
<g id="a_node19"><a xlink:title="3rd_week">
<ellipse fill="#ee9898" stroke="black" cx="256.769" cy="-175.667" rx="32.4942" ry="18"/>
<text text-anchor="middle" x="256.769" y="-171.967" font-family="Times,serif" font-size="14.00">11982</text>
</a>
</g>
</g>
<!-- 10049&#45;&gt;11982 -->
<g id="edge35" class="edge"><title>10049&#45;&gt;11982</title>
<path fill="none" stroke="black" d="M389.201,-331.814C361.204,-298.803 298.734,-225.147 270.771,-192.176"/>
</g>
<!-- 10049&#45;&gt;19688 -->
<g id="edge29" class="edge"><title>10049&#45;&gt;19688</title>
<path fill="none" stroke="black" d="M418.2,-364.365C456.47,-405.29 557.646,-513.483 596.074,-554.576"/>
</g>
<!-- 10653 -->
<g id="node17" class="node"><title>10653</title>
<g id="a_node17"><a xlink:title="3rd_week">
<ellipse fill="#ee9898" stroke="black" cx="738.889" cy="-398.308" rx="32.4942" ry="18"/>
<text text-anchor="middle" x="738.889" y="-394.608" font-family="Times,serif" font-size="14.00">10653</text>
</a>
</g>
</g>
<!-- 10653&#45;&gt;19688 -->
<g id="edge43" class="edge"><title>10653&#45;&gt;19688</title>
<path fill="none" stroke="black" d="M726.41,-415.153C701.931,-448.199 647.881,-521.164 623.513,-554.06"/>
</g>
<!-- 12339 -->
<g id="node20" class="node"><title>12339</title>
<g id="a_node20"><a xlink:title="3rd_week">
<ellipse fill="#ee9898" stroke="black" cx="528.297" cy="-1126.64" rx="32.4942" ry="18"/>
<text text-anchor="middle" x="528.297" y="-1122.94" font-family="Times,serif" font-size="14.00">12339</text>
</a>
</g>
</g>
<!-- 22863 -->
<g id="node41" class="node"><title>22863</title>
<g id="a_node41"><a xlink:title="3rd_week">
<ellipse fill="#ee9898" stroke="black" cx="536.023" cy="-904.09" rx="32.4942" ry="18"/>
<text text-anchor="middle" x="536.023" y="-900.39" font-family="Times,serif" font-size="14.00">22863</text>
</a>
</g>
</g>
<!-- 12339&#45;&gt;22863 -->
<g id="edge1" class="edge"><title>12339&#45;&gt;22863</title>
<path fill="none" stroke="black" d="M528.929,-1108.43C530.382,-1066.59 533.942,-964.02 535.392,-922.242"/>
</g>
<!-- 13031 -->
<g id="node21" class="node"><title>13031</title>
<g id="a_node21"><a xlink:title="3rd_week">
<ellipse fill="#ee9898" stroke="black" cx="258.098" cy="-1004.27" rx="32.4942" ry="18"/>
<text text-anchor="middle" x="258.098" y="-1000.57" font-family="Times,serif" font-size="14.00">13031</text>
</a>
</g>
</g>
<!-- 33657 -->
<g id="node58" class="node"><title>33657</title>
<g id="a_node58"><a xlink:title="3rd_week">
<ellipse fill="#ee9898" stroke="black" cx="377.629" cy="-817.474" rx="32.4942" ry="18"/>
<text text-anchor="middle" x="377.629" y="-813.774" font-family="Times,serif" font-size="14.00">33657</text>
</a>
</g>
</g>
<!-- 13031&#45;&gt;33657 -->
<g id="edge20" class="edge"><title>13031&#45;&gt;33657</title>
<path fill="none" stroke="black" d="M269.129,-987.028C291.9,-951.443 343.876,-870.219 366.624,-834.67"/>
</g>
<!-- 13818 -->
<g id="node22" class="node"><title>13818</title>
<g id="a_node22"><a xlink:title="3rd_week">
<ellipse fill="#ee9898" stroke="black" cx="470.473" cy="-578.713" rx="32.4942" ry="18"/>
<text text-anchor="middle" x="470.473" y="-575.013" font-family="Times,serif" font-size="14.00">13818</text>
</a>
</g>
</g>
<!-- 13818&#45;&gt;19688 -->
<g id="edge58" class="edge"><title>13818&#45;&gt;19688</title>
<path fill="none" stroke="black" d="M503.106,-576.859C525.836,-575.568 556.025,-573.853 578.716,-572.564"/>
</g>
<!-- 14192 -->
<g id="node23" class="node"><title>14192</title>
<g id="a_node23"><a xlink:title="3rd_week">
<ellipse fill="#ee9898" stroke="black" cx="714.436" cy="-779.209" rx="32.4942" ry="18"/>
<text text-anchor="middle" x="714.436" y="-775.509" font-family="Times,serif" font-size="14.00">14192</text>
</a>
</g>
</g>
<!-- 14192&#45;&gt;19688 -->
<g id="edge11" class="edge"><title>14192&#45;&gt;19688</title>
<path fill="none" stroke="black" d="M705.81,-761.792C686.372,-722.547 639.33,-627.571 619.846,-588.234"/>
</g>
<!-- 14211 -->
<g id="node24" class="node"><title>14211</title>
<g id="a_node24"><a xlink:title="3rd_week">
<ellipse fill="#ee9898" stroke="black" cx="373.502" cy="-615.445" rx="32.4942" ry="18"/>
<text text-anchor="middle" x="373.502" y="-611.745" font-family="Times,serif" font-size="14.00">14211</text>
</a>
</g>
</g>
<!-- 14211&#45;&gt;19688 -->
<g id="edge46" class="edge"><title>14211&#45;&gt;19688</title>
<path fill="none" stroke="black" d="M404.573,-609.598C450.122,-601.027 534.539,-585.141 580.093,-576.569"/>
</g>
<!-- 16261 -->
<g id="node25" class="node"><title>16261</title>
<g id="a_node25"><a xlink:title="3rd_week">
<ellipse fill="#ee9898" stroke="black" cx="56.1672" cy="-743.147" rx="32.4942" ry="18"/>
<text text-anchor="middle" x="56.1672" y="-739.447" font-family="Times,serif" font-size="14.00">16261</text>
</a>
</g>
</g>
<!-- 16261&#45;&gt;31205 -->
<g id="edge55" class="edge"><title>16261&#45;&gt;31205</title>
<path fill="none" stroke="black" d="M79.2529,-730.291C116.038,-709.805 187.549,-669.981 224.386,-649.467"/>
</g>
<!-- 16950 -->
<g id="node26" class="node"><title>16950</title>
<g id="a_node26"><a xlink:title="3rd_week">
<ellipse fill="#ee9898" stroke="black" cx="974.842" cy="-624.26" rx="32.4942" ry="18"/>
<text text-anchor="middle" x="974.842" y="-620.56" font-family="Times,serif" font-size="14.00">16950</text>
</a>
</g>
</g>
<!-- 16950&#45;&gt;19688 -->
<g id="edge45" class="edge"><title>16950&#45;&gt;19688</title>
<path fill="none" stroke="black" d="M943.205,-619.602C874.34,-609.464 711.533,-585.496 642.735,-575.367"/>
</g>
<!-- 28726 -->
<g id="node47" class="node"><title>28726</title>
<g id="a_node47"><a xlink:title="3rd_week">
<ellipse fill="#ee9898" stroke="black" cx="1185.8" cy="-607.041" rx="32.4942" ry="18"/>
<text text-anchor="middle" x="1185.8" y="-603.341" font-family="Times,serif" font-size="14.00">28726</text>
</a>
</g>
</g>
<!-- 16950&#45;&gt;28726 -->
<g id="edge38" class="edge"><title>16950&#45;&gt;28726</title>
<path fill="none" stroke="black" d="M1007.34,-621.607C1047.1,-618.362 1113.99,-612.902 1153.61,-609.668"/>
</g>
<!-- 32407 -->
<g id="node54" class="node"><title>32407</title>
<g id="a_node54"><a xlink:title="3rd_week">
<ellipse fill="#ee9898" stroke="black" cx="1226.58" cy="-681.881" rx="32.4942" ry="18"/>
<text text-anchor="middle" x="1226.58" y="-678.181" font-family="Times,serif" font-size="14.00">32407</text>
</a>
</g>
</g>
<!-- 16950&#45;&gt;32407 -->
<g id="edge48" class="edge"><title>16950&#45;&gt;32407</title>
<path fill="none" stroke="black" d="M1005.21,-631.21C1053.72,-642.315 1148.16,-663.932 1196.5,-674.996"/>
</g>
<!-- 17557 -->
<g id="node27" class="node"><title>17557</title>
<g id="a_node27"><a xlink:title="3rd_week">
<ellipse fill="#ee9898" stroke="black" cx="805.223" cy="-40.7361" rx="32.4942" ry="18"/>
<text text-anchor="middle" x="805.223" y="-37.0361" font-family="Times,serif" font-size="14.00">17557</text>
</a>
</g>
</g>
<!-- 27919 -->
<g id="node45" class="node"><title>27919</title>
<g id="a_node45"><a xlink:title="3rd_week">
<ellipse fill="#ee9898" stroke="black" cx="705.749" cy="-238.312" rx="32.4942" ry="18"/>
<text text-anchor="middle" x="705.749" y="-234.612" font-family="Times,serif" font-size="14.00">27919</text>
</a>
</g>
</g>
<!-- 17557&#45;&gt;27919 -->
<g id="edge52" class="edge"><title>17557&#45;&gt;27919</title>
<path fill="none" stroke="black" d="M796.396,-58.2697C777.519,-95.7632 733.416,-183.36 714.557,-220.818"/>
</g>
<!-- 17694&#45;&gt;19688 -->
<g id="edge7" class="edge"><title>17694&#45;&gt;19688</title>
<path fill="none" stroke="black" d="M849.04,-784.249C802.698,-742.649 675.205,-628.201 628.56,-586.329"/>
</g>
<!-- 22066 -->
<g id="node39" class="node"><title>22066</title>
<g id="a_node39"><a xlink:title="3rd_week">
<ellipse fill="#ee9898" stroke="black" cx="1003.8" cy="-973.079" rx="32.4942" ry="18"/>
<text text-anchor="middle" x="1003.8" y="-969.379" font-family="Times,serif" font-size="14.00">22066</text>
</a>
</g>
</g>
<!-- 17694&#45;&gt;22066 -->
<g id="edge6" class="edge"><title>17694&#45;&gt;22066</title>
<path fill="none" stroke="black" d="M879.363,-816.255C905.671,-849.41 964.368,-923.385 990.643,-956.498"/>
</g>
<!-- 18033 -->
<g id="node29" class="node"><title>18033</title>
<g id="a_node29"><a xlink:title="3rd_week">
<ellipse fill="#ee9898" stroke="black" cx="574.981" cy="-281.852" rx="32.4942" ry="18"/>
<text text-anchor="middle" x="574.981" y="-278.152" font-family="Times,serif" font-size="14.00">18033</text>
</a>
</g>
</g>
<!-- 18033&#45;&gt;19688 -->
<g id="edge59" class="edge"><title>18033&#45;&gt;19688</title>
<path fill="none" stroke="black" d="M577.245,-299.922C583.744,-351.799 602.41,-500.789 608.909,-552.657"/>
</g>
<!-- 22320 -->
<g id="node40" class="node"><title>22320</title>
<g id="a_node40"><a xlink:title="3rd_week">
<ellipse fill="#ee9898" stroke="black" cx="543.238" cy="-31.3157" rx="32.4942" ry="18"/>
<text text-anchor="middle" x="543.238" y="-27.6157" font-family="Times,serif" font-size="14.00">22320</text>
</a>
</g>
</g>
<!-- 18033&#45;&gt;22320 -->
<g id="edge40" class="edge"><title>18033&#45;&gt;22320</title>
<path fill="none" stroke="black" d="M572.698,-263.834C566.856,-217.72 551.41,-95.81 545.543,-49.507"/>
</g>
<!-- 18521 -->
<g id="node30" class="node"><title>18521</title>
<g id="a_node30"><a xlink:title="3rd_week">
<ellipse fill="#ee9898" stroke="black" cx="460.279" cy="-429.504" rx="32.4942" ry="18"/>
<text text-anchor="middle" x="460.279" y="-425.804" font-family="Times,serif" font-size="14.00">18521</text>
</a>
</g>
</g>
<!-- 18521&#45;&gt;19688 -->
<g id="edge60" class="edge"><title>18521&#45;&gt;19688</title>
<path fill="none" stroke="black" d="M477.004,-445.156C506.008,-472.301 565.315,-527.805 594.372,-554.998"/>
</g>
<!-- 18929 -->
<g id="node31" class="node"><title>18929</title>
<g id="a_node31"><a xlink:title="3rd_week">
<ellipse fill="#ee9898" stroke="black" cx="1460.41" cy="-723.99" rx="32.4942" ry="18"/>
<text text-anchor="middle" x="1460.41" y="-720.29" font-family="Times,serif" font-size="14.00">18929</text>
</a>
</g>
</g>
<!-- 18929&#45;&gt;32407 -->
<g id="edge50" class="edge"><title>18929&#45;&gt;32407</title>
<path fill="none" stroke="black" d="M1429.36,-718.398C1384.64,-710.344 1302.55,-695.563 1257.76,-687.496"/>
</g>
<!-- 18991 -->
<g id="node32" class="node"><title>18991</title>
<g id="a_node32"><a xlink:title="3rd_week">
<ellipse fill="#ee9898" stroke="black" cx="880.744" cy="-487.68" rx="32.4942" ry="18"/>
<text text-anchor="middle" x="880.744" y="-483.98" font-family="Times,serif" font-size="14.00">18991</text>
</a>
</g>
</g>
<!-- 18991&#45;&gt;19688 -->
<g id="edge34" class="edge"><title>18991&#45;&gt;19688</title>
<path fill="none" stroke="black" d="M852.151,-496.488C800.388,-512.433 691.723,-545.907 639.878,-561.878"/>
</g>
<!-- 29192 -->
<g id="node49" class="node"><title>29192</title>
<g id="a_node49"><a xlink:title="3rd_week">
<ellipse fill="#ee9898" stroke="black" cx="1118.26" cy="-406.083" rx="32.4942" ry="18"/>
<text text-anchor="middle" x="1118.26" y="-402.383" font-family="Times,serif" font-size="14.00">29192</text>
</a>
</g>
</g>
<!-- 18991&#45;&gt;29192 -->
<g id="edge36" class="edge"><title>18991&#45;&gt;29192</title>
<path fill="none" stroke="black" d="M908.455,-478.16C954.1,-462.479 1044.59,-431.392 1090.36,-415.668"/>
</g>
<!-- 19331 -->
<g id="node33" class="node"><title>19331</title>
<g id="a_node33"><a xlink:title="3rd_week">
<ellipse fill="#ee9898" stroke="black" cx="659.087" cy="-367.448" rx="32.4942" ry="18"/>
<text text-anchor="middle" x="659.087" y="-363.748" font-family="Times,serif" font-size="14.00">19331</text>
</a>
</g>
</g>
<!-- 19331&#45;&gt;19688 -->
<g id="edge39" class="edge"><title>19331&#45;&gt;19688</title>
<path fill="none" stroke="black" d="M654.835,-385.487C645.742,-424.061 624.499,-514.183 615.414,-552.722"/>
</g>
<!-- 20084 -->
<g id="node35" class="node"><title>20084</title>
<g id="a_node35"><a xlink:title="3rd_week">
<ellipse fill="#ee9898" stroke="black" cx="603.006" cy="-812.188" rx="32.4942" ry="18"/>
<text text-anchor="middle" x="603.006" y="-808.488" font-family="Times,serif" font-size="14.00">20084</text>
</a>
</g>
</g>
<!-- 19688&#45;&gt;20084 -->
<g id="edge30" class="edge"><title>19688&#45;&gt;20084</title>
<path fill="none" stroke="black" d="M610.558,-588.87C609.041,-633.729 605.128,-749.424 603.616,-794.158"/>
</g>
<!-- 21687 -->
<g id="node37" class="node"><title>21687</title>
<g id="a_node37"><a xlink:title="3rd_week">
<ellipse fill="#ee9898" stroke="black" cx="440.522" cy="-726.113" rx="32.4942" ry="18"/>
<text text-anchor="middle" x="440.522" y="-722.413" font-family="Times,serif" font-size="14.00">21687</text>
</a>
</g>
</g>
<!-- 19688&#45;&gt;21687 -->
<g id="edge18" class="edge"><title>19688&#45;&gt;21687</title>
<path fill="none" stroke="black" d="M594.185,-586.188C561.475,-615.974 490.095,-680.972 457.439,-710.708"/>
</g>
<!-- 21860 -->
<g id="node38" class="node"><title>21860</title>
<g id="a_node38"><a xlink:title="3rd_week">
<ellipse fill="#ee9898" stroke="black" cx="539.85" cy="-371.488" rx="32.4942" ry="18"/>
<text text-anchor="middle" x="539.85" y="-367.788" font-family="Times,serif" font-size="14.00">21860</text>
</a>
</g>
</g>
<!-- 19688&#45;&gt;21860 -->
<g id="edge57" class="edge"><title>19688&#45;&gt;21860</title>
<path fill="none" stroke="black" d="M604.842,-553.04C591.342,-515.327 559.846,-427.346 546.268,-389.415"/>
</g>
<!-- 19688&#45;&gt;22863 -->
<g id="edge49" class="edge"><title>19688&#45;&gt;22863</title>
<path fill="none" stroke="black" d="M607.131,-588.644C594.083,-646.528 553.16,-828.068 540.083,-886.078"/>
</g>
<!-- 25466 -->
<g id="node43" class="node"><title>25466</title>
<g id="a_node43"><a xlink:title="3rd_week">
<ellipse fill="#ee9898" stroke="black" cx="804.808" cy="-540.161" rx="32.4942" ry="18"/>
<text text-anchor="middle" x="804.808" y="-536.461" font-family="Times,serif" font-size="14.00">25466</text>
</a>
</g>
</g>
<!-- 19688&#45;&gt;25466 -->
<g id="edge37" class="edge"><title>19688&#45;&gt;25466</title>
<path fill="none" stroke="black" d="M642.714,-565.742C678.722,-560.06 737.278,-550.818 773.28,-545.136"/>
</g>
<!-- 25694 -->
<g id="node44" class="node"><title>25694</title>
<g id="a_node44"><a xlink:title="3rd_week">
<ellipse fill="#ee9898" stroke="black" cx="707.933" cy="-445.571" rx="32.4942" ry="18"/>
<text text-anchor="middle" x="707.933" y="-441.871" font-family="Times,serif" font-size="14.00">25694</text>
</a>
</g>
</g>
<!-- 19688&#45;&gt;25694 -->
<g id="edge5" class="edge"><title>19688&#45;&gt;25694</title>
<path fill="none" stroke="black" d="M624.021,-554.101C642.528,-530.165 676.494,-486.233 695.031,-462.259"/>
</g>
<!-- 19688&#45;&gt;27919 -->
<g id="edge21" class="edge"><title>19688&#45;&gt;27919</title>
<path fill="none" stroke="black" d="M616.257,-552.849C632.678,-495.132 684.182,-314.115 700.639,-256.272"/>
</g>
<!-- 28182 -->
<g id="node46" class="node"><title>28182</title>
<g id="a_node46"><a xlink:title="3rd_week">
<ellipse fill="#ee9898" stroke="black" cx="640.896" cy="-758.395" rx="32.4942" ry="18"/>
<text text-anchor="middle" x="640.896" y="-754.695" font-family="Times,serif" font-size="14.00">28182</text>
</a>
</g>
</g>
<!-- 19688&#45;&gt;28182 -->
<g id="edge9" class="edge"><title>19688&#45;&gt;28182</title>
<path fill="none" stroke="black" d="M614.022,-588.715C619.703,-624.588 632.38,-704.627 638.055,-740.455"/>
</g>
<!-- 19688&#45;&gt;31205 -->
<g id="edge16" class="edge"><title>19688&#45;&gt;31205</title>
<path fill="none" stroke="black" d="M580.17,-576.334C511.472,-588.774 347.102,-618.539 278.477,-630.966"/>
</g>
<!-- 31304 -->
<g id="node52" class="node"><title>31304</title>
<g id="a_node52"><a xlink:title="3rd_week">
<ellipse fill="#ee9898" stroke="black" cx="823.382" cy="-606.808" rx="32.4942" ry="18"/>
<text text-anchor="middle" x="823.382" y="-603.108" font-family="Times,serif" font-size="14.00">31304</text>
</a>
</g>
</g>
<!-- 19688&#45;&gt;31304 -->
<g id="edge56" class="edge"><title>19688&#45;&gt;31304</title>
<path fill="none" stroke="black" d="M642.484,-576.045C682.721,-582.888 752.155,-594.695 792.287,-601.52"/>
</g>
<!-- 33006 -->
<g id="node56" class="node"><title>33006</title>
<g id="a_node56"><a xlink:title="3rd_week">
<ellipse fill="#ee9898" stroke="black" cx="782.744" cy="-472.26" rx="32.4942" ry="18"/>
<text text-anchor="middle" x="782.744" y="-468.56" font-family="Times,serif" font-size="14.00">33006</text>
</a>
</g>
</g>
<!-- 19688&#45;&gt;33006 -->
<g id="edge47" class="edge"><title>19688&#45;&gt;33006</title>
<path fill="none" stroke="black" d="M633.955,-557.646C666.862,-538.761 727.333,-504.059 760.139,-485.232"/>
</g>
<!-- 19688&#45;&gt;33657 -->
<g id="edge25" class="edge"><title>19688&#45;&gt;33657</title>
<path fill="none" stroke="black" d="M595.848,-586.911C553.532,-631.621 435.392,-756.442 393.008,-801.224"/>
</g>
<!-- 34194 -->
<g id="node59" class="node"><title>34194</title>
<g id="a_node59"><a xlink:title="3rd_week">
<ellipse fill="#ee9898" stroke="black" cx="402.901" cy="-679.687" rx="32.4942" ry="18"/>
<text text-anchor="middle" x="402.901" y="-675.987" font-family="Times,serif" font-size="14.00">34194</text>
</a>
</g>
</g>
<!-- 19688&#45;&gt;34194 -->
<g id="edge32" class="edge"><title>19688&#45;&gt;34194</title>
<path fill="none" stroke="black" d="M587.28,-583.22C547.213,-604.184 466.929,-646.188 426.834,-667.166"/>
</g>
<!-- 34478 -->
<g id="node60" class="node"><title>34478</title>
<g id="a_node60"><a xlink:title="3rd_week">
<ellipse fill="#ee9898" stroke="black" cx="303.92" cy="-424.78" rx="32.4942" ry="18"/>
<text text-anchor="middle" x="303.92" y="-421.08" font-family="Times,serif" font-size="14.00">34478</text>
</a>
</g>
</g>
<!-- 19688&#45;&gt;34478 -->
<g id="edge19" class="edge"><title>19688&#45;&gt;34478</title>
<path fill="none" stroke="black" d="M586.288,-558.901C528.571,-531.486 386.131,-463.829 328.607,-436.506"/>
</g>
<!-- 23684 -->
<g id="node42" class="node"><title>23684</title>
<g id="a_node42"><a xlink:title="3rd_week">
<ellipse fill="#ee9898" stroke="black" cx="448.71" cy="-1109.46" rx="32.4942" ry="18"/>
<text text-anchor="middle" x="448.71" y="-1105.76" font-family="Times,serif" font-size="14.00">23684</text>
</a>
</g>
</g>
<!-- 22863&#45;&gt;23684 -->
<g id="edge24" class="edge"><title>22863&#45;&gt;23684</title>
<path fill="none" stroke="black" d="M528.427,-921.957C511.873,-960.895 472.707,-1053.02 456.226,-1091.79"/>
</g>
<!-- 33584 -->
<g id="node57" class="node"><title>33584</title>
<g id="a_node57"><a xlink:title="3rd_week">
<ellipse fill="#ee9898" stroke="black" cx="727.199" cy="-18.2395" rx="32.4942" ry="18"/>
<text text-anchor="middle" x="727.199" y="-14.5395" font-family="Times,serif" font-size="14.00">33584</text>
</a>
</g>
</g>
<!-- 27919&#45;&gt;33584 -->
<g id="edge15" class="edge"><title>27919&#45;&gt;33584</title>
<path fill="none" stroke="black" d="M707.504,-220.303C711.527,-179.035 721.374,-78.0046 725.42,-36.4978"/>
</g>
<!-- 28729 -->
<g id="node48" class="node"><title>28729</title>
<g id="a_node48"><a xlink:title="3rd_week">
<ellipse fill="#ee9898" stroke="black" cx="89.6147" cy="-362.904" rx="32.4942" ry="18"/>
<text text-anchor="middle" x="89.6147" y="-359.204" font-family="Times,serif" font-size="14.00">28729</text>
</a>
</g>
</g>
<!-- 28729&#45;&gt;34478 -->
<g id="edge42" class="edge"><title>28729&#45;&gt;34478</title>
<path fill="none" stroke="black" d="M118.517,-371.249C159.418,-383.059 233.766,-404.525 274.791,-416.37"/>
</g>
<!-- 31016 -->
<g id="node50" class="node"><title>31016</title>
<g id="a_node50"><a xlink:title="3rd_week">
<ellipse fill="#ee9898" stroke="black" cx="199.513" cy="-947.862" rx="32.4942" ry="18"/>
<text text-anchor="middle" x="199.513" y="-944.162" font-family="Times,serif" font-size="14.00">31016</text>
</a>
</g>
</g>
<!-- 31016&#45;&gt;33657 -->
<g id="edge12" class="edge"><title>31016&#45;&gt;33657</title>
<path fill="none" stroke="black" d="M219.255,-933.41C253.493,-908.347 323.499,-857.099 357.798,-831.99"/>
</g>
<!-- 32413 -->
<g id="node55" class="node"><title>32413</title>
<g id="a_node55"><a xlink:title="3rd_week">
<ellipse fill="#ee9898" stroke="black" cx="32.3381" cy="-601.549" rx="32.4942" ry="18"/>
<text text-anchor="middle" x="32.3381" y="-597.849" font-family="Times,serif" font-size="14.00">32413</text>
</a>
</g>
</g>
<!-- 31205&#45;&gt;32413 -->
<g id="edge33" class="edge"><title>31205&#45;&gt;32413</title>
<path fill="none" stroke="black" d="M216.259,-631.474C175.456,-624.835 104.492,-613.289 63.67,-606.647"/>
</g>
<!-- 31408 -->
<g id="node53" class="node"><title>31408</title>
<g id="a_node53"><a xlink:title="3rd_week">
<ellipse fill="#ee9898" stroke="black" cx="126.124" cy="-290.563" rx="32.4942" ry="18"/>
<text text-anchor="middle" x="126.124" y="-286.863" font-family="Times,serif" font-size="14.00">31408</text>
</a>
</g>
</g>
<!-- 31408&#45;&gt;34478 -->
<g id="edge4" class="edge"><title>31408&#45;&gt;34478</title>
<path fill="none" stroke="black" d="M145.49,-305.182C179.69,-331 250.394,-384.374 284.578,-410.179"/>
</g>
</g>
</svg>
