<?xml version="1.0" encoding="UTF-8" standalone="no"?>
<!DOCTYPE svg PUBLIC "-//W3C//DTD SVG 1.1//EN"
 "http://www.w3.org/Graphics/SVG/1.1/DTD/svg11.dtd">
<!-- Generated by graphviz version 2.38.0 (20140413.2041)
 -->
<!-- Title: %3 Pages: 1 -->
<svg width="2492pt" height="1584pt"
 viewBox="0.00 0.00 2492.00 1584.00" xmlns="http://www.w3.org/2000/svg" xmlns:xlink="http://www.w3.org/1999/xlink">
<g id="graph0" class="graph" transform="scale(1 1) rotate(0) translate(4 1580)">
<title>%3</title>
<polygon fill="white" stroke="none" points="-4,4 -4,-1580 2488,-1580 2488,4 -4,4"/>
<!-- 98 -->
<g id="node1" class="node"><title>98</title>
<g id="a_node1"><a xlink:title="6th_week">
<ellipse fill="#c81d25" stroke="black" cx="996.093" cy="-445.558" rx="27" ry="18"/>
<text text-anchor="middle" x="996.093" y="-441.858" font-family="Times,serif" font-size="14.00">98</text>
</a>
</g>
</g>
<!-- 18962 -->
<g id="node36" class="node"><title>18962</title>
<g id="a_node36"><a xlink:title="6th_week">
<ellipse fill="#c81d25" stroke="black" cx="861.374" cy="-609.084" rx="32.4942" ry="18"/>
<text text-anchor="middle" x="861.374" y="-605.384" font-family="Times,serif" font-size="14.00">18962</text>
</a>
</g>
</g>
<!-- 98&#45;&gt;18962 -->
<g id="edge37" class="edge"><title>98&#45;&gt;18962</title>
<path fill="none" stroke="black" d="M982.93,-461.535C957.374,-492.556 901.262,-560.667 875.192,-592.311"/>
</g>
<!-- 213 -->
<g id="node2" class="node"><title>213</title>
<g id="a_node2"><a xlink:title="6th_week">
<ellipse fill="#c81d25" stroke="black" cx="2191.09" cy="-1188.74" rx="27" ry="18"/>
<text text-anchor="middle" x="2191.09" y="-1185.04" font-family="Times,serif" font-size="14.00">213</text>
</a>
</g>
</g>
<!-- 7216 -->
<g id="node14" class="node"><title>7216</title>
<g id="a_node14"><a xlink:title="6th_week">
<ellipse fill="#c81d25" stroke="black" cx="2012.46" cy="-1305.89" rx="28.6953" ry="18"/>
<text text-anchor="middle" x="2012.46" y="-1302.19" font-family="Times,serif" font-size="14.00">7216</text>
</a>
</g>
</g>
<!-- 213&#45;&gt;7216 -->
<g id="edge36" class="edge"><title>213&#45;&gt;7216</title>
<path fill="none" stroke="black" d="M2171.63,-1201.5C2137.45,-1223.92 2066.98,-1270.13 2032.44,-1292.79"/>
</g>
<!-- 359 -->
<g id="node3" class="node"><title>359</title>
<g id="a_node3"><a xlink:title="6th_week">
<ellipse fill="#c81d25" stroke="black" cx="1037.88" cy="-771.094" rx="27" ry="18"/>
<text text-anchor="middle" x="1037.88" y="-767.394" font-family="Times,serif" font-size="14.00">359</text>
</a>
</g>
</g>
<!-- 359&#45;&gt;18962 -->
<g id="edge64" class="edge"><title>359&#45;&gt;18962</title>
<path fill="none" stroke="black" d="M1021.91,-756.431C988.641,-725.898 912.212,-655.747 878.213,-624.541"/>
</g>
<!-- 724 -->
<g id="node4" class="node"><title>724</title>
<g id="a_node4"><a xlink:title="6th_week">
<ellipse fill="#c81d25" stroke="black" cx="709.218" cy="-553.484" rx="27" ry="18"/>
<text text-anchor="middle" x="709.218" y="-549.784" font-family="Times,serif" font-size="14.00">724</text>
</a>
</g>
</g>
<!-- 724&#45;&gt;18962 -->
<g id="edge4" class="edge"><title>724&#45;&gt;18962</title>
<path fill="none" stroke="black" d="M732.992,-562.171C760.407,-572.189 805.384,-588.625 834.171,-599.144"/>
</g>
<!-- 1258 -->
<g id="node5" class="node"><title>1258</title>
<g id="a_node5"><a xlink:title="6th_week">
<ellipse fill="#c81d25" stroke="black" cx="1055.54" cy="-668.571" rx="28.6953" ry="18"/>
<text text-anchor="middle" x="1055.54" y="-664.871" font-family="Times,serif" font-size="14.00">1258</text>
</a>
</g>
</g>
<!-- 1258&#45;&gt;18962 -->
<g id="edge15" class="edge"><title>1258&#45;&gt;18962</title>
<path fill="none" stroke="black" d="M1029.76,-660.671C993.547,-649.578 927.849,-629.45 890.111,-617.889"/>
</g>
<!-- 1325 -->
<g id="node6" class="node"><title>1325</title>
<g id="a_node6"><a xlink:title="6th_week">
<ellipse fill="#c81d25" stroke="black" cx="288.568" cy="-459.607" rx="28.6953" ry="18"/>
<text text-anchor="middle" x="288.568" y="-455.907" font-family="Times,serif" font-size="14.00">1325</text>
</a>
</g>
</g>
<!-- 26706 -->
<g id="node54" class="node"><title>26706</title>
<g id="a_node54"><a xlink:title="6th_week">
<ellipse fill="#c81d25" stroke="black" cx="545.047" cy="-520.136" rx="32.4942" ry="18"/>
<text text-anchor="middle" x="545.047" y="-516.436" font-family="Times,serif" font-size="14.00">26706</text>
</a>
</g>
</g>
<!-- 1325&#45;&gt;26706 -->
<g id="edge2" class="edge"><title>1325&#45;&gt;26706</title>
<path fill="none" stroke="black" d="M315.531,-465.97C363.761,-477.353 464.464,-501.119 514.902,-513.022"/>
</g>
<!-- 1397 -->
<g id="node7" class="node"><title>1397</title>
<g id="a_node7"><a xlink:title="6th_week">
<ellipse fill="#c81d25" stroke="black" cx="743.675" cy="-734.851" rx="28.6953" ry="18"/>
<text text-anchor="middle" x="743.675" y="-731.151" font-family="Times,serif" font-size="14.00">1397</text>
</a>
</g>
</g>
<!-- 1397&#45;&gt;18962 -->
<g id="edge12" class="edge"><title>1397&#45;&gt;18962</title>
<path fill="none" stroke="black" d="M758.343,-719.177C780.774,-695.208 823.386,-649.676 846.147,-625.355"/>
</g>
<!-- 1939 -->
<g id="node8" class="node"><title>1939</title>
<g id="a_node8"><a xlink:title="6th_week">
<ellipse fill="#c81d25" stroke="black" cx="2183" cy="-1296.32" rx="28.6953" ry="18"/>
<text text-anchor="middle" x="2183" y="-1292.62" font-family="Times,serif" font-size="14.00">1939</text>
</a>
</g>
</g>
<!-- 1939&#45;&gt;7216 -->
<g id="edge65" class="edge"><title>1939&#45;&gt;7216</title>
<path fill="none" stroke="black" d="M2154.46,-1297.92C2122.97,-1299.68 2072.62,-1302.51 2041.1,-1304.28"/>
</g>
<!-- 2091 -->
<g id="node9" class="node"><title>2091</title>
<g id="a_node9"><a xlink:title="6th_week">
<ellipse fill="#c81d25" stroke="black" cx="796.966" cy="-791.902" rx="28.6953" ry="18"/>
<text text-anchor="middle" x="796.966" y="-788.202" font-family="Times,serif" font-size="14.00">2091</text>
</a>
</g>
</g>
<!-- 2091&#45;&gt;18962 -->
<g id="edge42" class="edge"><title>2091&#45;&gt;18962</title>
<path fill="none" stroke="black" d="M803.259,-774.04C815.572,-739.089 842.721,-662.028 855.055,-627.019"/>
</g>
<!-- 3031 -->
<g id="node10" class="node"><title>3031</title>
<g id="a_node10"><a xlink:title="6th_week">
<ellipse fill="#c81d25" stroke="black" cx="1032.03" cy="-514.052" rx="28.6953" ry="18"/>
<text text-anchor="middle" x="1032.03" y="-510.352" font-family="Times,serif" font-size="14.00">3031</text>
</a>
</g>
</g>
<!-- 3031&#45;&gt;18962 -->
<g id="edge22" class="edge"><title>3031&#45;&gt;18962</title>
<path fill="none" stroke="black" d="M1010.41,-526.088C978.127,-544.068 917.56,-577.796 884.444,-596.237"/>
</g>
<!-- 4892 -->
<g id="node11" class="node"><title>4892</title>
<g id="a_node11"><a xlink:title="6th_week">
<ellipse fill="#c81d25" stroke="black" cx="1002.24" cy="-715.13" rx="28.6953" ry="18"/>
<text text-anchor="middle" x="1002.24" y="-711.43" font-family="Times,serif" font-size="14.00">4892</text>
</a>
</g>
</g>
<!-- 4892&#45;&gt;18962 -->
<g id="edge24" class="edge"><title>4892&#45;&gt;18962</title>
<path fill="none" stroke="black" d="M983.824,-701.266C957.125,-681.167 907.896,-644.107 880.697,-623.631"/>
</g>
<!-- 5564 -->
<g id="node12" class="node"><title>5564</title>
<g id="a_node12"><a xlink:title="6th_week">
<ellipse fill="#c81d25" stroke="black" cx="1990.69" cy="-1519.85" rx="28.6953" ry="18"/>
<text text-anchor="middle" x="1990.69" y="-1516.15" font-family="Times,serif" font-size="14.00">5564</text>
</a>
</g>
</g>
<!-- 5564&#45;&gt;7216 -->
<g id="edge35" class="edge"><title>5564&#45;&gt;7216</title>
<path fill="none" stroke="black" d="M1992.55,-1501.61C1996.66,-1461.19 2006.5,-1364.47 2010.61,-1324.09"/>
</g>
<!-- 5959 -->
<g id="node13" class="node"><title>5959</title>
<g id="a_node13"><a xlink:title="6th_week">
<ellipse fill="#c81d25" stroke="black" cx="812.159" cy="-426.118" rx="28.6953" ry="18"/>
<text text-anchor="middle" x="812.159" y="-422.418" font-family="Times,serif" font-size="14.00">5959</text>
</a>
</g>
</g>
<!-- 5959&#45;&gt;18962 -->
<g id="edge28" class="edge"><title>5959&#45;&gt;18962</title>
<path fill="none" stroke="black" d="M816.967,-443.994C826.376,-478.973 847.121,-556.098 856.546,-591.135"/>
</g>
<!-- 10663 -->
<g id="node20" class="node"><title>10663</title>
<g id="a_node20"><a xlink:title="6th_week">
<ellipse fill="#c81d25" stroke="black" cx="2087.81" cy="-1482.95" rx="32.4942" ry="18"/>
<text text-anchor="middle" x="2087.81" y="-1479.25" font-family="Times,serif" font-size="14.00">10663</text>
</a>
</g>
</g>
<!-- 7216&#45;&gt;10663 -->
<g id="edge27" class="edge"><title>7216&#45;&gt;10663</title>
<path fill="none" stroke="black" d="M2019.96,-1323.51C2034.4,-1357.45 2065.92,-1431.52 2080.34,-1465.4"/>
</g>
<!-- 14144 -->
<g id="node24" class="node"><title>14144</title>
<g id="a_node24"><a xlink:title="6th_week">
<ellipse fill="#c81d25" stroke="black" cx="2257.36" cy="-1343.08" rx="32.4942" ry="18"/>
<text text-anchor="middle" x="2257.36" y="-1339.38" font-family="Times,serif" font-size="14.00">14144</text>
</a>
</g>
</g>
<!-- 7216&#45;&gt;14144 -->
<g id="edge44" class="edge"><title>7216&#45;&gt;14144</title>
<path fill="none" stroke="black" d="M2040.55,-1310.16C2086.54,-1317.14 2177.57,-1330.96 2225.74,-1338.28"/>
</g>
<!-- 14582 -->
<g id="node27" class="node"><title>14582</title>
<g id="a_node27"><a xlink:title="6th_week">
<ellipse fill="#c81d25" stroke="black" cx="2116.87" cy="-1145.56" rx="32.4942" ry="18"/>
<text text-anchor="middle" x="2116.87" y="-1141.86" font-family="Times,serif" font-size="14.00">14582</text>
</a>
</g>
</g>
<!-- 7216&#45;&gt;14582 -->
<g id="edge20" class="edge"><title>7216&#45;&gt;14582</title>
<path fill="none" stroke="black" d="M2023.44,-1289.03C2043.44,-1258.32 2085.61,-1193.57 2105.73,-1162.67"/>
</g>
<!-- 19130 -->
<g id="node37" class="node"><title>19130</title>
<g id="a_node37"><a xlink:title="6th_week">
<ellipse fill="#c81d25" stroke="black" cx="2190" cy="-1412.34" rx="32.4942" ry="18"/>
<text text-anchor="middle" x="2190" y="-1408.64" font-family="Times,serif" font-size="14.00">19130</text>
</a>
</g>
</g>
<!-- 7216&#45;&gt;19130 -->
<g id="edge10" class="edge"><title>7216&#45;&gt;19130</title>
<path fill="none" stroke="black" d="M2033.17,-1318.31C2066.83,-1338.49 2133.12,-1378.24 2167.75,-1399"/>
</g>
<!-- 21556 -->
<g id="node43" class="node"><title>21556</title>
<g id="a_node43"><a xlink:title="6th_week">
<ellipse fill="#c81d25" stroke="black" cx="2169.79" cy="-1495.96" rx="32.4942" ry="18"/>
<text text-anchor="middle" x="2169.79" y="-1492.26" font-family="Times,serif" font-size="14.00">21556</text>
</a>
</g>
</g>
<!-- 7216&#45;&gt;21556 -->
<g id="edge6" class="edge"><title>7216&#45;&gt;21556</title>
<path fill="none" stroke="black" d="M2025.88,-1322.09C2055.53,-1357.91 2126.36,-1443.49 2156.19,-1479.52"/>
</g>
<!-- 24658 -->
<g id="node50" class="node"><title>24658</title>
<g id="a_node50"><a xlink:title="6th_week">
<ellipse fill="#c81d25" stroke="black" cx="1658.65" cy="-1090" rx="32.4942" ry="18"/>
<text text-anchor="middle" x="1658.65" y="-1086.3" font-family="Times,serif" font-size="14.00">24658</text>
</a>
</g>
</g>
<!-- 7216&#45;&gt;24658 -->
<g id="edge53" class="edge"><title>7216&#45;&gt;24658</title>
<path fill="none" stroke="black" d="M1991.91,-1293.35C1929.82,-1255.46 1744.51,-1142.4 1680.6,-1103.4"/>
</g>
<!-- 26210 -->
<g id="node51" class="node"><title>26210</title>
<g id="a_node51"><a xlink:title="6th_week">
<ellipse fill="#c81d25" stroke="black" cx="2077.04" cy="-1551.56" rx="32.4942" ry="18"/>
<text text-anchor="middle" x="2077.04" y="-1547.86" font-family="Times,serif" font-size="14.00">26210</text>
</a>
</g>
</g>
<!-- 7216&#45;&gt;26210 -->
<g id="edge14" class="edge"><title>7216&#45;&gt;26210</title>
<path fill="none" stroke="black" d="M2017.21,-1323.95C2029.15,-1369.39 2060.33,-1488.01 2072.28,-1533.47"/>
</g>
<!-- 27624 -->
<g id="node56" class="node"><title>27624</title>
<g id="a_node56"><a xlink:title="6th_week">
<ellipse fill="#c81d25" stroke="black" cx="2252.86" cy="-1249.11" rx="32.4942" ry="18"/>
<text text-anchor="middle" x="2252.86" y="-1245.41" font-family="Times,serif" font-size="14.00">27624</text>
</a>
</g>
</g>
<!-- 7216&#45;&gt;27624 -->
<g id="edge52" class="edge"><title>7216&#45;&gt;27624</title>
<path fill="none" stroke="black" d="M2039.57,-1299.49C2084.88,-1288.79 2175.67,-1267.34 2222.85,-1256.2"/>
</g>
<!-- 32461 -->
<g id="node62" class="node"><title>32461</title>
<g id="a_node62"><a xlink:title="6th_week">
<ellipse fill="#c81d25" stroke="black" cx="2269.54" cy="-1452.72" rx="32.4942" ry="18"/>
<text text-anchor="middle" x="2269.54" y="-1449.02" font-family="Times,serif" font-size="14.00">32461</text>
</a>
</g>
</g>
<!-- 7216&#45;&gt;32461 -->
<g id="edge11" class="edge"><title>7216&#45;&gt;32461</title>
<path fill="none" stroke="black" d="M2033.94,-1318.16C2081.97,-1345.59 2197.69,-1411.68 2246.84,-1439.76"/>
</g>
<!-- 33108 -->
<g id="node65" class="node"><title>33108</title>
<g id="a_node65"><a xlink:title="6th_week">
<ellipse fill="#c81d25" stroke="black" cx="1919.32" cy="-1472.12" rx="32.4942" ry="18"/>
<text text-anchor="middle" x="1919.32" y="-1468.42" font-family="Times,serif" font-size="14.00">33108</text>
</a>
</g>
</g>
<!-- 7216&#45;&gt;33108 -->
<g id="edge66" class="edge"><title>7216&#45;&gt;33108</title>
<path fill="none" stroke="black" d="M2002.84,-1323.05C1985,-1354.91 1946.94,-1422.83 1929.03,-1454.8"/>
</g>
<!-- 8462 -->
<g id="node15" class="node"><title>8462</title>
<g id="a_node15"><a xlink:title="6th_week">
<ellipse fill="#c81d25" stroke="black" cx="699.095" cy="-451.425" rx="28.6953" ry="18"/>
<text text-anchor="middle" x="699.095" y="-447.725" font-family="Times,serif" font-size="14.00">8462</text>
</a>
</g>
</g>
<!-- 8462&#45;&gt;18962 -->
<g id="edge3" class="edge"><title>8462&#45;&gt;18962</title>
<path fill="none" stroke="black" d="M714.655,-466.542C745.435,-496.446 813.822,-562.886 845.141,-593.314"/>
</g>
<!-- 8617 -->
<g id="node16" class="node"><title>8617</title>
<g id="a_node16"><a xlink:title="6th_week">
<ellipse fill="#c81d25" stroke="black" cx="871.532" cy="-797.25" rx="28.6953" ry="18"/>
<text text-anchor="middle" x="871.532" y="-793.55" font-family="Times,serif" font-size="14.00">8617</text>
</a>
</g>
</g>
<!-- 8617&#45;&gt;18962 -->
<g id="edge63" class="edge"><title>8617&#45;&gt;18962</title>
<path fill="none" stroke="black" d="M870.558,-779.208C868.622,-743.334 864.306,-663.403 862.36,-627.348"/>
</g>
<!-- 9719 -->
<g id="node17" class="node"><title>9719</title>
<g id="a_node17"><a xlink:title="6th_week">
<ellipse fill="#c81d25" stroke="black" cx="987.264" cy="-831.132" rx="28.6953" ry="18"/>
<text text-anchor="middle" x="987.264" y="-827.432" font-family="Times,serif" font-size="14.00">9719</text>
</a>
</g>
</g>
<!-- 9719&#45;&gt;18962 -->
<g id="edge13" class="edge"><title>9719&#45;&gt;18962</title>
<path fill="none" stroke="black" d="M977.595,-814.077C954.219,-772.847 894.836,-668.106 871.25,-626.504"/>
</g>
<!-- 10033 -->
<g id="node18" class="node"><title>10033</title>
<g id="a_node18"><a xlink:title="6th_week">
<ellipse fill="#c81d25" stroke="black" cx="624.586" cy="-492.089" rx="32.4942" ry="18"/>
<text text-anchor="middle" x="624.586" y="-488.389" font-family="Times,serif" font-size="14.00">10033</text>
</a>
</g>
</g>
<!-- 10033&#45;&gt;18962 -->
<g id="edge34" class="edge"><title>10033&#45;&gt;18962</title>
<path fill="none" stroke="black" d="M649.035,-504.169C694.527,-526.647 791.667,-574.643 837.058,-597.07"/>
</g>
<!-- 10269 -->
<g id="node19" class="node"><title>10269</title>
<g id="a_node19"><a xlink:title="6th_week">
<ellipse fill="#c81d25" stroke="black" cx="599.29" cy="-640.987" rx="32.4942" ry="18"/>
<text text-anchor="middle" x="599.29" y="-637.287" font-family="Times,serif" font-size="14.00">10269</text>
</a>
</g>
</g>
<!-- 10269&#45;&gt;18962 -->
<g id="edge5" class="edge"><title>10269&#45;&gt;18962</title>
<path fill="none" stroke="black" d="M631.164,-637.107C681.502,-630.98 778.857,-619.129 829.311,-612.987"/>
</g>
<!-- 11791 -->
<g id="node21" class="node"><title>11791</title>
<g id="a_node21"><a xlink:title="6th_week">
<ellipse fill="#c81d25" stroke="black" cx="645.294" cy="-783.464" rx="32.4942" ry="18"/>
<text text-anchor="middle" x="645.294" y="-779.764" font-family="Times,serif" font-size="14.00">11791</text>
</a>
</g>
</g>
<!-- 11791&#45;&gt;18962 -->
<g id="edge60" class="edge"><title>11791&#45;&gt;18962</title>
<path fill="none" stroke="black" d="M663.716,-768.596C704.438,-735.733 801.729,-657.218 842.69,-624.162"/>
</g>
<!-- 13027 -->
<g id="node22" class="node"><title>13027</title>
<g id="a_node22"><a xlink:title="6th_week">
<ellipse fill="#c81d25" stroke="black" cx="589.096" cy="-402.044" rx="32.4942" ry="18"/>
<text text-anchor="middle" x="589.096" y="-398.344" font-family="Times,serif" font-size="14.00">13027</text>
</a>
</g>
</g>
<!-- 13027&#45;&gt;18962 -->
<g id="edge51" class="edge"><title>13027&#45;&gt;18962</title>
<path fill="none" stroke="black" d="M608.242,-416.603C658.113,-454.525 791.631,-556.052 841.884,-594.265"/>
</g>
<!-- 30264 -->
<g id="node59" class="node"><title>30264</title>
<g id="a_node59"><a xlink:title="6th_week">
<ellipse fill="#c81d25" stroke="black" cx="395.217" cy="-258.264" rx="32.4942" ry="18"/>
<text text-anchor="middle" x="395.217" y="-254.564" font-family="Times,serif" font-size="14.00">30264</text>
</a>
</g>
</g>
<!-- 13027&#45;&gt;30264 -->
<g id="edge41" class="edge"><title>13027&#45;&gt;30264</title>
<path fill="none" stroke="black" d="M569.439,-387.466C532.279,-359.909 452.126,-300.467 414.926,-272.88"/>
</g>
<!-- 13727 -->
<g id="node23" class="node"><title>13727</title>
<g id="a_node23"><a xlink:title="6th_week">
<ellipse fill="#c81d25" stroke="black" cx="32.093" cy="-1003.89" rx="32.4942" ry="18"/>
<text text-anchor="middle" x="32.093" y="-1000.19" font-family="Times,serif" font-size="14.00">13727</text>
</a>
</g>
</g>
<!-- 17740 -->
<g id="node34" class="node"><title>17740</title>
<g id="a_node34"><a xlink:title="6th_week">
<ellipse fill="#c81d25" stroke="black" cx="260.275" cy="-898.406" rx="32.4942" ry="18"/>
<text text-anchor="middle" x="260.275" y="-894.706" font-family="Times,serif" font-size="14.00">17740</text>
</a>
</g>
</g>
<!-- 13727&#45;&gt;17740 -->
<g id="edge7" class="edge"><title>13727&#45;&gt;17740</title>
<path fill="none" stroke="black" d="M57.3843,-992.196C101.362,-971.866 191.405,-930.242 235.218,-909.989"/>
</g>
<!-- 14285 -->
<g id="node25" class="node"><title>14285</title>
<g id="a_node25"><a xlink:title="6th_week">
<ellipse fill="#c81d25" stroke="black" cx="888.027" cy="-339.449" rx="32.4942" ry="18"/>
<text text-anchor="middle" x="888.027" y="-335.749" font-family="Times,serif" font-size="14.00">14285</text>
</a>
</g>
</g>
<!-- 14285&#45;&gt;18962 -->
<g id="edge62" class="edge"><title>14285&#45;&gt;18962</title>
<path fill="none" stroke="black" d="M886.237,-357.559C881.382,-406.68 868.002,-542.025 863.156,-591.053"/>
</g>
<!-- 14375 -->
<g id="node26" class="node"><title>14375</title>
<g id="a_node26"><a xlink:title="6th_week">
<ellipse fill="#c81d25" stroke="black" cx="1127.19" cy="-532.436" rx="32.4942" ry="18"/>
<text text-anchor="middle" x="1127.19" y="-528.736" font-family="Times,serif" font-size="14.00">14375</text>
</a>
</g>
</g>
<!-- 14375&#45;&gt;18962 -->
<g id="edge54" class="edge"><title>14375&#45;&gt;18962</title>
<path fill="none" stroke="black" d="M1098.24,-540.785C1047.11,-555.529 941.398,-586.009 890.291,-600.746"/>
</g>
<!-- 14902 -->
<g id="node28" class="node"><title>14902</title>
<g id="a_node28"><a xlink:title="6th_week">
<ellipse fill="#c81d25" stroke="black" cx="1114.62" cy="-364.256" rx="32.4942" ry="18"/>
<text text-anchor="middle" x="1114.62" y="-360.556" font-family="Times,serif" font-size="14.00">14902</text>
</a>
</g>
</g>
<!-- 14902&#45;&gt;18962 -->
<g id="edge30" class="edge"><title>14902&#45;&gt;18962</title>
<path fill="none" stroke="black" d="M1098.4,-379.944C1052.76,-424.059 923.66,-548.869 877.793,-593.211"/>
</g>
<!-- 26317 -->
<g id="node52" class="node"><title>26317</title>
<g id="a_node52"><a xlink:title="6th_week">
<ellipse fill="#c81d25" stroke="black" cx="1286.45" cy="-198.177" rx="32.4942" ry="18"/>
<text text-anchor="middle" x="1286.45" y="-194.477" font-family="Times,serif" font-size="14.00">26317</text>
</a>
</g>
</g>
<!-- 14902&#45;&gt;26317 -->
<g id="edge21" class="edge"><title>14902&#45;&gt;26317</title>
<path fill="none" stroke="black" d="M1130.79,-348.632C1163.54,-316.979 1237.39,-245.601 1270.2,-213.881"/>
</g>
<!-- 15217 -->
<g id="node29" class="node"><title>15217</title>
<g id="a_node29"><a xlink:title="6th_week">
<ellipse fill="#c81d25" stroke="black" cx="721.882" cy="-385.212" rx="32.4942" ry="18"/>
<text text-anchor="middle" x="721.882" y="-381.512" font-family="Times,serif" font-size="14.00">15217</text>
</a>
</g>
</g>
<!-- 15217&#45;&gt;18962 -->
<g id="edge56" class="edge"><title>15217&#45;&gt;18962</title>
<path fill="none" stroke="black" d="M732.596,-402.407C758.561,-444.079 824.62,-550.099 850.623,-591.831"/>
</g>
<!-- 15967 -->
<g id="node30" class="node"><title>15967</title>
<g id="a_node30"><a xlink:title="6th_week">
<ellipse fill="#c81d25" stroke="black" cx="1266.38" cy="-850.009" rx="32.4942" ry="18"/>
<text text-anchor="middle" x="1266.38" y="-846.309" font-family="Times,serif" font-size="14.00">15967</text>
</a>
</g>
</g>
<!-- 15967&#45;&gt;18962 -->
<g id="edge9" class="edge"><title>15967&#45;&gt;18962</title>
<path fill="none" stroke="black" d="M1244.03,-836.713C1173.22,-794.591 954.37,-664.404 883.656,-622.34"/>
</g>
<!-- 15967&#45;&gt;24658 -->
<g id="edge18" class="edge"><title>15967&#45;&gt;24658</title>
<path fill="none" stroke="black" d="M1288.31,-863.427C1357.05,-905.479 1567.78,-1034.41 1636.63,-1076.53"/>
</g>
<!-- 16044 -->
<g id="node31" class="node"><title>16044</title>
<g id="a_node31"><a xlink:title="6th_week">
<ellipse fill="#c81d25" stroke="black" cx="277.275" cy="-807.433" rx="32.4942" ry="18"/>
<text text-anchor="middle" x="277.275" y="-803.733" font-family="Times,serif" font-size="14.00">16044</text>
</a>
</g>
</g>
<!-- 19475 -->
<g id="node39" class="node"><title>19475</title>
<g id="a_node39"><a xlink:title="6th_week">
<ellipse fill="#c81d25" stroke="black" cx="499.951" cy="-762.659" rx="32.4942" ry="18"/>
<text text-anchor="middle" x="499.951" y="-758.959" font-family="Times,serif" font-size="14.00">19475</text>
</a>
</g>
</g>
<!-- 16044&#45;&gt;19475 -->
<g id="edge33" class="edge"><title>16044&#45;&gt;19475</title>
<path fill="none" stroke="black" d="M308.237,-801.208C350.78,-792.653 426.848,-777.358 469.252,-768.832"/>
</g>
<!-- 17275 -->
<g id="node32" class="node"><title>17275</title>
<g id="a_node32"><a xlink:title="6th_week">
<ellipse fill="#c81d25" stroke="black" cx="1004.41" cy="-375.052" rx="32.4942" ry="18"/>
<text text-anchor="middle" x="1004.41" y="-371.352" font-family="Times,serif" font-size="14.00">17275</text>
</a>
</g>
</g>
<!-- 17275&#45;&gt;18962 -->
<g id="edge8" class="edge"><title>17275&#45;&gt;18962</title>
<path fill="none" stroke="black" d="M993.89,-392.261C967.439,-435.54 898.375,-548.543 871.907,-591.85"/>
</g>
<!-- 17568 -->
<g id="node33" class="node"><title>17568</title>
<g id="a_node33"><a xlink:title="6th_week">
<ellipse fill="#c81d25" stroke="black" cx="924.274" cy="-396.29" rx="32.4942" ry="18"/>
<text text-anchor="middle" x="924.274" y="-392.59" font-family="Times,serif" font-size="14.00">17568</text>
</a>
</g>
</g>
<!-- 17568&#45;&gt;18962 -->
<g id="edge17" class="edge"><title>17568&#45;&gt;18962</title>
<path fill="none" stroke="black" d="M919.019,-414.067C907.179,-454.122 878.525,-551.06 866.657,-591.209"/>
</g>
<!-- 17740&#45;&gt;19475 -->
<g id="edge26" class="edge"><title>17740&#45;&gt;19475</title>
<path fill="none" stroke="black" d="M283.256,-885.39C329.068,-859.443 431.285,-801.55 477.04,-775.636"/>
</g>
<!-- 18165 -->
<g id="node35" class="node"><title>18165</title>
<g id="a_node35"><a xlink:title="6th_week">
<ellipse fill="#c81d25" stroke="black" cx="836.711" cy="-860.979" rx="32.4942" ry="18"/>
<text text-anchor="middle" x="836.711" y="-857.279" font-family="Times,serif" font-size="14.00">18165</text>
</a>
</g>
</g>
<!-- 18165&#45;&gt;18962 -->
<g id="edge57" class="edge"><title>18165&#45;&gt;18962</title>
<path fill="none" stroke="black" d="M838.485,-842.863C843.024,-796.5 855.025,-673.928 859.583,-627.374"/>
</g>
<!-- 19147 -->
<g id="node38" class="node"><title>19147</title>
<g id="a_node38"><a xlink:title="6th_week">
<ellipse fill="#c81d25" stroke="black" cx="1091.39" cy="-459.294" rx="32.4942" ry="18"/>
<text text-anchor="middle" x="1091.39" y="-455.594" font-family="Times,serif" font-size="14.00">19147</text>
</a>
</g>
</g>
<!-- 18962&#45;&gt;19147 -->
<g id="edge61" class="edge"><title>18962&#45;&gt;19147</title>
<path fill="none" stroke="black" d="M882.601,-595.261C926.42,-566.725 1026.44,-501.591 1070.21,-473.084"/>
</g>
<!-- 18962&#45;&gt;19475 -->
<g id="edge40" class="edge"><title>18962&#45;&gt;19475</title>
<path fill="none" stroke="black" d="M835.381,-620.129C768.858,-648.396 592.99,-723.125 526.194,-751.508"/>
</g>
<!-- 20001 -->
<g id="node40" class="node"><title>20001</title>
<g id="a_node40"><a xlink:title="6th_week">
<ellipse fill="#c81d25" stroke="black" cx="916.698" cy="-863.548" rx="32.4942" ry="18"/>
<text text-anchor="middle" x="916.698" y="-859.848" font-family="Times,serif" font-size="14.00">20001</text>
</a>
</g>
</g>
<!-- 18962&#45;&gt;20001 -->
<g id="edge43" class="edge"><title>18962&#45;&gt;20001</title>
<path fill="none" stroke="black" d="M865.264,-626.978C875.422,-673.7 902.659,-798.975 912.812,-845.675"/>
</g>
<!-- 20722 -->
<g id="node41" class="node"><title>20722</title>
<g id="a_node41"><a xlink:title="6th_week">
<ellipse fill="#c81d25" stroke="black" cx="948.999" cy="-781.602" rx="32.4942" ry="18"/>
<text text-anchor="middle" x="948.999" y="-777.902" font-family="Times,serif" font-size="14.00">20722</text>
</a>
</g>
</g>
<!-- 18962&#45;&gt;20722 -->
<g id="edge32" class="edge"><title>18962&#45;&gt;20722</title>
<path fill="none" stroke="black" d="M870.258,-626.576C887.052,-659.641 923.278,-730.963 940.091,-764.065"/>
</g>
<!-- 20861 -->
<g id="node42" class="node"><title>20861</title>
<g id="a_node42"><a xlink:title="6th_week">
<ellipse fill="#c81d25" stroke="black" cx="1047.05" cy="-589.127" rx="32.4942" ry="18"/>
<text text-anchor="middle" x="1047.05" y="-585.427" font-family="Times,serif" font-size="14.00">20861</text>
</a>
</g>
</g>
<!-- 18962&#45;&gt;20861 -->
<g id="edge25" class="edge"><title>18962&#45;&gt;20861</title>
<path fill="none" stroke="black" d="M893.293,-605.654C927.302,-601.998 980.84,-596.244 1014.93,-592.58"/>
</g>
<!-- 21921 -->
<g id="node44" class="node"><title>21921</title>
<g id="a_node44"><a xlink:title="6th_week">
<ellipse fill="#c81d25" stroke="black" cx="684.251" cy="-309.295" rx="32.4942" ry="18"/>
<text text-anchor="middle" x="684.251" y="-305.595" font-family="Times,serif" font-size="14.00">21921</text>
</a>
</g>
</g>
<!-- 18962&#45;&gt;21921 -->
<g id="edge23" class="edge"><title>18962&#45;&gt;21921</title>
<path fill="none" stroke="black" d="M851.085,-591.671C819.78,-538.685 725.911,-379.806 694.568,-326.757"/>
</g>
<!-- 22048 -->
<g id="node45" class="node"><title>22048</title>
<g id="a_node45"><a xlink:title="6th_week">
<ellipse fill="#c81d25" stroke="black" cx="1094.77" cy="-713.132" rx="32.4942" ry="18"/>
<text text-anchor="middle" x="1094.77" y="-709.432" font-family="Times,serif" font-size="14.00">22048</text>
</a>
</g>
</g>
<!-- 18962&#45;&gt;22048 -->
<g id="edge47" class="edge"><title>18962&#45;&gt;22048</title>
<path fill="none" stroke="black" d="M886.796,-620.417C931.693,-640.432 1024.51,-681.809 1069.38,-701.813"/>
</g>
<!-- 24532 -->
<g id="node49" class="node"><title>24532</title>
<g id="a_node49"><a xlink:title="6th_week">
<ellipse fill="#c81d25" stroke="black" cx="972.024" cy="-275.132" rx="32.4942" ry="18"/>
<text text-anchor="middle" x="972.024" y="-271.432" font-family="Times,serif" font-size="14.00">24532</text>
</a>
</g>
</g>
<!-- 18962&#45;&gt;24532 -->
<g id="edge38" class="edge"><title>18962&#45;&gt;24532</title>
<path fill="none" stroke="black" d="M867.323,-591.13C886.535,-533.144 946.792,-351.287 966.046,-293.175"/>
</g>
<!-- 18962&#45;&gt;26706 -->
<g id="edge58" class="edge"><title>18962&#45;&gt;26706</title>
<path fill="none" stroke="black" d="M832.181,-600.876C771.92,-583.931 634.37,-545.253 574.169,-528.325"/>
</g>
<!-- 26826 -->
<g id="node55" class="node"><title>26826</title>
<g id="a_node55"><a xlink:title="6th_week">
<ellipse fill="#c81d25" stroke="black" cx="632.093" cy="-713.629" rx="32.4942" ry="18"/>
<text text-anchor="middle" x="632.093" y="-709.929" font-family="Times,serif" font-size="14.00">26826</text>
</a>
</g>
</g>
<!-- 18962&#45;&gt;26826 -->
<g id="edge39" class="edge"><title>18962&#45;&gt;26826</title>
<path fill="none" stroke="black" d="M835.961,-620.672C791.771,-640.821 701.294,-682.075 657.27,-702.148"/>
</g>
<!-- 28965 -->
<g id="node57" class="node"><title>28965</title>
<g id="a_node57"><a xlink:title="6th_week">
<ellipse fill="#c81d25" stroke="black" cx="819.983" cy="-260.373" rx="32.4942" ry="18"/>
<text text-anchor="middle" x="819.983" y="-256.673" font-family="Times,serif" font-size="14.00">28965</text>
</a>
</g>
</g>
<!-- 18962&#45;&gt;28965 -->
<g id="edge29" class="edge"><title>18962&#45;&gt;28965</title>
<path fill="none" stroke="black" d="M859.207,-590.827C852.054,-530.568 829.25,-338.444 822.129,-278.449"/>
</g>
<!-- 29825 -->
<g id="node58" class="node"><title>29825</title>
<g id="a_node58"><a xlink:title="6th_week">
<ellipse fill="#c81d25" stroke="black" cx="676.011" cy="-659.58" rx="32.4942" ry="18"/>
<text text-anchor="middle" x="676.011" y="-655.88" font-family="Times,serif" font-size="14.00">29825</text>
</a>
</g>
</g>
<!-- 18962&#45;&gt;29825 -->
<g id="edge55" class="edge"><title>18962&#45;&gt;29825</title>
<path fill="none" stroke="black" d="M832.002,-617.085C797.294,-626.541 739.894,-642.177 705.245,-651.616"/>
</g>
<!-- 31174 -->
<g id="node60" class="node"><title>31174</title>
<g id="a_node60"><a xlink:title="6th_week">
<ellipse fill="#c81d25" stroke="black" cx="742.781" cy="-900.325" rx="32.4942" ry="18"/>
<text text-anchor="middle" x="742.781" y="-896.625" font-family="Times,serif" font-size="14.00">31174</text>
</a>
</g>
</g>
<!-- 18962&#45;&gt;31174 -->
<g id="edge49" class="edge"><title>18962&#45;&gt;31174</title>
<path fill="none" stroke="black" d="M854.134,-626.864C832.962,-678.858 771.32,-830.239 750.077,-882.408"/>
</g>
<!-- 31489 -->
<g id="node61" class="node"><title>31489</title>
<g id="a_node61"><a xlink:title="6th_week">
<ellipse fill="#c81d25" stroke="black" cx="715.945" cy="-841.772" rx="32.4942" ry="18"/>
<text text-anchor="middle" x="715.945" y="-838.072" font-family="Times,serif" font-size="14.00">31489</text>
</a>
</g>
</g>
<!-- 18962&#45;&gt;31489 -->
<g id="edge16" class="edge"><title>18962&#45;&gt;31489</title>
<path fill="none" stroke="black" d="M850.68,-626.194C823.786,-669.225 753.565,-781.579 726.654,-824.637"/>
</g>
<!-- 32584 -->
<g id="node63" class="node"><title>32584</title>
<g id="a_node63"><a xlink:title="6th_week">
<ellipse fill="#c81d25" stroke="black" cx="803.305" cy="-350.749" rx="32.4942" ry="18"/>
<text text-anchor="middle" x="803.305" y="-347.049" font-family="Times,serif" font-size="14.00">32584</text>
</a>
</g>
</g>
<!-- 18962&#45;&gt;32584 -->
<g id="edge48" class="edge"><title>18962&#45;&gt;32584</title>
<path fill="none" stroke="black" d="M857.29,-590.919C846.628,-543.486 818.041,-416.304 807.384,-368.894"/>
</g>
<!-- 33539 -->
<g id="node66" class="node"><title>33539</title>
<g id="a_node66"><a xlink:title="6th_week">
<ellipse fill="#c81d25" stroke="black" cx="610.088" cy="-575.175" rx="32.4942" ry="18"/>
<text text-anchor="middle" x="610.088" y="-571.475" font-family="Times,serif" font-size="14.00">33539</text>
</a>
</g>
</g>
<!-- 18962&#45;&gt;33539 -->
<g id="edge59" class="edge"><title>18962&#45;&gt;33539</title>
<path fill="none" stroke="black" d="M829.548,-604.79C781.344,-598.285 690.336,-586.004 642.051,-579.489"/>
</g>
<!-- 34417 -->
<g id="node67" class="node"><title>34417</title>
<g id="a_node67"><a xlink:title="6th_week">
<ellipse fill="#c81d25" stroke="black" cx="1147.07" cy="-621.154" rx="32.4942" ry="18"/>
<text text-anchor="middle" x="1147.07" y="-617.454" font-family="Times,serif" font-size="14.00">34417</text>
</a>
</g>
</g>
<!-- 18962&#45;&gt;34417 -->
<g id="edge19" class="edge"><title>18962&#45;&gt;34417</title>
<path fill="none" stroke="black" d="M893.868,-610.457C948.859,-612.78 1059.63,-617.46 1114.6,-619.783"/>
</g>
<!-- 22999 -->
<g id="node46" class="node"><title>22999</title>
<g id="a_node46"><a xlink:title="6th_week">
<ellipse fill="#c81d25" stroke="black" cx="561.054" cy="-99.2034" rx="32.4942" ry="18"/>
<text text-anchor="middle" x="561.054" y="-95.5034" font-family="Times,serif" font-size="14.00">22999</text>
</a>
</g>
</g>
<!-- 21921&#45;&gt;22999 -->
<g id="edge1" class="edge"><title>21921&#45;&gt;22999</title>
<path fill="none" stroke="black" d="M674.169,-292.103C651.01,-252.608 594.229,-155.778 571.102,-116.339"/>
</g>
<!-- 23854 -->
<g id="node47" class="node"><title>23854</title>
<g id="a_node47"><a xlink:title="6th_week">
<ellipse fill="#c81d25" stroke="black" cx="1047.18" cy="-43.6915" rx="32.4942" ry="18"/>
<text text-anchor="middle" x="1047.18" y="-39.9915" font-family="Times,serif" font-size="14.00">23854</text>
</a>
</g>
</g>
<!-- 23854&#45;&gt;24532 -->
<g id="edge45" class="edge"><title>23854&#45;&gt;24532</title>
<path fill="none" stroke="black" d="M1041.4,-61.4679C1027.42,-104.548 991.825,-214.152 977.816,-257.295"/>
</g>
<!-- 24413 -->
<g id="node48" class="node"><title>24413</title>
<g id="a_node48"><a xlink:title="6th_week">
<ellipse fill="#c81d25" stroke="black" cx="642.625" cy="-1150.99" rx="32.4942" ry="18"/>
<text text-anchor="middle" x="642.625" y="-1147.29" font-family="Times,serif" font-size="14.00">24413</text>
</a>
</g>
</g>
<!-- 24413&#45;&gt;31174 -->
<g id="edge50" class="edge"><title>24413&#45;&gt;31174</title>
<path fill="none" stroke="black" d="M649.668,-1133.36C668.057,-1087.34 717.365,-963.933 735.746,-917.932"/>
</g>
<!-- 26535 -->
<g id="node53" class="node"><title>26535</title>
<g id="a_node53"><a xlink:title="6th_week">
<ellipse fill="#c81d25" stroke="black" cx="2451.57" cy="-1558.36" rx="32.4942" ry="18"/>
<text text-anchor="middle" x="2451.57" y="-1554.66" font-family="Times,serif" font-size="14.00">26535</text>
</a>
</g>
</g>
<!-- 26535&#45;&gt;32461 -->
<g id="edge46" class="edge"><title>26535&#45;&gt;32461</title>
<path fill="none" stroke="black" d="M2428.88,-1545.19C2393.9,-1524.89 2327.2,-1486.18 2292.22,-1465.88"/>
</g>
<!-- 32954 -->
<g id="node64" class="node"><title>32954</title>
<g id="a_node64"><a xlink:title="6th_week">
<ellipse fill="#c81d25" stroke="black" cx="790.585" cy="-17.813" rx="32.4942" ry="18"/>
<text text-anchor="middle" x="790.585" y="-14.113" font-family="Times,serif" font-size="14.00">32954</text>
</a>
</g>
</g>
<!-- 28965&#45;&gt;32954 -->
<g id="edge31" class="edge"><title>28965&#45;&gt;32954</title>
<path fill="none" stroke="black" d="M817.773,-242.141C812.312,-197.079 798.226,-80.8611 792.78,-35.9251"/>
</g>
</g>
</svg>
