<?xml version="1.0" encoding="UTF-8" standalone="no"?>
<!DOCTYPE svg PUBLIC "-//W3C//DTD SVG 1.1//EN"
 "http://www.w3.org/Graphics/SVG/1.1/DTD/svg11.dtd">
<!-- Generated by graphviz version 2.38.0 (20140413.2041)
 -->
<!-- Title: %3 Pages: 1 -->
<svg width="1635pt" height="1423pt"
 viewBox="0.00 0.00 1635.00 1423.00" xmlns="http://www.w3.org/2000/svg" xmlns:xlink="http://www.w3.org/1999/xlink">
<g id="graph0" class="graph" transform="scale(1 1) rotate(0) translate(4 1419)">
<title>%3</title>
<polygon fill="white" stroke="none" points="-4,4 -4,-1419 1631,-1419 1631,4 -4,4"/>
<!-- 780 -->
<g id="node1" class="node"><title>780</title>
<g id="a_node1"><a xlink:title="PRE">
<ellipse fill="#71a9f7" stroke="black" cx="535.782" cy="-666.37" rx="27" ry="18"/>
<text text-anchor="middle" x="535.782" y="-662.67" font-family="Times,serif" font-size="14.00">780</text>
</a>
</g>
</g>
<!-- 15887 -->
<g id="node26" class="node"><title>15887</title>
<g id="a_node26"><a xlink:title="PRE">
<ellipse fill="#71a9f7" stroke="black" cx="660.369" cy="-547.806" rx="32.4942" ry="18"/>
<text text-anchor="middle" x="660.369" y="-544.106" font-family="Times,serif" font-size="14.00">15887</text>
</a>
</g>
</g>
<!-- 780&#45;&gt;15887 -->
<g id="edge2" class="edge"><title>780&#45;&gt;15887</title>
<path fill="none" stroke="black" d="M551.309,-651.593C574.922,-629.122 619.663,-586.544 643.852,-563.524"/>
</g>
<!-- 1335 -->
<g id="node2" class="node"><title>1335</title>
<g id="a_node2"><a xlink:title="PRE">
<ellipse fill="#71a9f7" stroke="black" cx="641.371" cy="-713.898" rx="28.6953" ry="18"/>
<text text-anchor="middle" x="641.371" y="-710.198" font-family="Times,serif" font-size="14.00">1335</text>
</a>
</g>
</g>
<!-- 1335&#45;&gt;15887 -->
<g id="edge14" class="edge"><title>1335&#45;&gt;15887</title>
<path fill="none" stroke="black" d="M643.44,-695.807C647.095,-663.858 654.65,-597.808 658.303,-565.874"/>
</g>
<!-- 1530 -->
<g id="node3" class="node"><title>1530</title>
<g id="a_node3"><a xlink:title="PRE">
<ellipse fill="#71a9f7" stroke="black" cx="761.853" cy="-264.497" rx="28.6953" ry="18"/>
<text text-anchor="middle" x="761.853" y="-260.797" font-family="Times,serif" font-size="14.00">1530</text>
</a>
</g>
</g>
<!-- 1530&#45;&gt;15887 -->
<g id="edge4" class="edge"><title>1530&#45;&gt;15887</title>
<path fill="none" stroke="black" d="M755.505,-282.219C737.28,-333.097 684.937,-479.22 666.715,-530.09"/>
</g>
<!-- 24608 -->
<g id="node36" class="node"><title>24608</title>
<g id="a_node36"><a xlink:title="PRE">
<ellipse fill="#71a9f7" stroke="black" cx="838.17" cy="-62.4831" rx="32.4942" ry="18"/>
<text text-anchor="middle" x="838.17" y="-58.7831" font-family="Times,serif" font-size="14.00">24608</text>
</a>
</g>
</g>
<!-- 1530&#45;&gt;24608 -->
<g id="edge44" class="edge"><title>1530&#45;&gt;24608</title>
<path fill="none" stroke="black" d="M768.492,-246.923C782.926,-208.717 817.024,-118.459 831.492,-80.1603"/>
</g>
<!-- 2501 -->
<g id="node4" class="node"><title>2501</title>
<g id="a_node4"><a xlink:title="PRE">
<ellipse fill="#71a9f7" stroke="black" cx="745.651" cy="-670.725" rx="28.6953" ry="18"/>
<text text-anchor="middle" x="745.651" y="-667.025" font-family="Times,serif" font-size="14.00">2501</text>
</a>
</g>
</g>
<!-- 2501&#45;&gt;15887 -->
<g id="edge6" class="edge"><title>2501&#45;&gt;15887</title>
<path fill="none" stroke="black" d="M734.15,-654.148C717.964,-630.819 688.617,-588.52 672.236,-564.909"/>
</g>
<!-- 3343 -->
<g id="node5" class="node"><title>3343</title>
<g id="a_node5"><a xlink:title="PRE">
<ellipse fill="#71a9f7" stroke="black" cx="837.444" cy="-497.43" rx="28.6953" ry="18"/>
<text text-anchor="middle" x="837.444" y="-493.73" font-family="Times,serif" font-size="14.00">3343</text>
</a>
</g>
</g>
<!-- 3343&#45;&gt;15887 -->
<g id="edge55" class="edge"><title>3343&#45;&gt;15887</title>
<path fill="none" stroke="black" d="M811.316,-504.863C778.799,-514.114 723.431,-529.866 689.554,-539.503"/>
</g>
<!-- 4068 -->
<g id="node6" class="node"><title>4068</title>
<g id="a_node6"><a xlink:title="PRE">
<ellipse fill="#71a9f7" stroke="black" cx="139.809" cy="-435.451" rx="28.6953" ry="18"/>
<text text-anchor="middle" x="139.809" y="-431.751" font-family="Times,serif" font-size="14.00">4068</text>
</a>
</g>
</g>
<!-- 24668 -->
<g id="node37" class="node"><title>24668</title>
<g id="a_node37"><a xlink:title="PRE">
<ellipse fill="#71a9f7" stroke="black" cx="357.801" cy="-484.712" rx="32.4942" ry="18"/>
<text text-anchor="middle" x="357.801" y="-481.012" font-family="Times,serif" font-size="14.00">24668</text>
</a>
</g>
</g>
<!-- 4068&#45;&gt;24668 -->
<g id="edge27" class="edge"><title>4068&#45;&gt;24668</title>
<path fill="none" stroke="black" d="M166.977,-441.591C207.837,-450.824 284.852,-468.228 327.485,-477.862"/>
</g>
<!-- 4479 -->
<g id="node7" class="node"><title>4479</title>
<g id="a_node7"><a xlink:title="PRE">
<ellipse fill="#71a9f7" stroke="black" cx="699.936" cy="-336.192" rx="28.6953" ry="18"/>
<text text-anchor="middle" x="699.936" y="-332.492" font-family="Times,serif" font-size="14.00">4479</text>
</a>
</g>
</g>
<!-- 4479&#45;&gt;15887 -->
<g id="edge48" class="edge"><title>4479&#45;&gt;15887</title>
<path fill="none" stroke="black" d="M696.562,-354.234C689.087,-394.214 671.201,-489.872 663.734,-529.809"/>
</g>
<!-- 4961 -->
<g id="node8" class="node"><title>4961</title>
<g id="a_node8"><a xlink:title="PRE">
<ellipse fill="#71a9f7" stroke="black" cx="474.115" cy="-310.599" rx="28.6953" ry="18"/>
<text text-anchor="middle" x="474.115" y="-306.899" font-family="Times,serif" font-size="14.00">4961</text>
</a>
</g>
</g>
<!-- 5674 -->
<g id="node9" class="node"><title>5674</title>
<g id="a_node9"><a xlink:title="PRE">
<ellipse fill="#71a9f7" stroke="black" cx="339.77" cy="-138.118" rx="28.6953" ry="18"/>
<text text-anchor="middle" x="339.77" y="-134.418" font-family="Times,serif" font-size="14.00">5674</text>
</a>
</g>
</g>
<!-- 4961&#45;&gt;5674 -->
<g id="edge29" class="edge"><title>4961&#45;&gt;5674</title>
<path fill="none" stroke="black" d="M461.476,-294.372C435.871,-261.499 378.132,-187.369 352.473,-154.427"/>
</g>
<!-- 4961&#45;&gt;15887 -->
<g id="edge32" class="edge"><title>4961&#45;&gt;15887</title>
<path fill="none" stroke="black" d="M486.917,-326.903C520.86,-370.132 612.904,-487.355 647.229,-531.071"/>
</g>
<!-- 5764 -->
<g id="node10" class="node"><title>5764</title>
<g id="a_node10"><a xlink:title="PRE">
<ellipse fill="#71a9f7" stroke="black" cx="201.802" cy="-946.806" rx="28.6953" ry="18"/>
<text text-anchor="middle" x="201.802" y="-943.106" font-family="Times,serif" font-size="14.00">5764</text>
</a>
</g>
</g>
<!-- 15033 -->
<g id="node23" class="node"><title>15033</title>
<g id="a_node23"><a xlink:title="PRE">
<ellipse fill="#71a9f7" stroke="black" cx="377.781" cy="-770.67" rx="32.4942" ry="18"/>
<text text-anchor="middle" x="377.781" y="-766.97" font-family="Times,serif" font-size="14.00">15033</text>
</a>
</g>
</g>
<!-- 5764&#45;&gt;15033 -->
<g id="edge37" class="edge"><title>5764&#45;&gt;15033</title>
<path fill="none" stroke="black" d="M217.111,-931.483C250.226,-898.339 328.23,-820.266 361.876,-786.59"/>
</g>
<!-- 3123 -->
<g id="node50" class="node"><title>3123</title>
<g id="a_node50"><a xlink:title="PRE">
<ellipse fill="#71a9f7" stroke="black" cx="28.9164" cy="-1092.95" rx="28.6953" ry="18"/>
<text text-anchor="middle" x="28.9164" y="-1089.25" font-family="Times,serif" font-size="14.00">3123</text>
</a>
</g>
</g>
<!-- 5764&#45;&gt;3123 -->
<g id="edge33" class="edge"><title>5764&#45;&gt;3123</title>
<path fill="none" stroke="black" d="M184.593,-961.354C151.454,-989.367 79.1395,-1050.5 46.0558,-1078.46"/>
</g>
<!-- 8750 -->
<g id="node11" class="node"><title>8750</title>
<g id="a_node11"><a xlink:title="PRE">
<ellipse fill="#71a9f7" stroke="black" cx="1004.48" cy="-141.917" rx="28.6953" ry="18"/>
<text text-anchor="middle" x="1004.48" y="-138.217" font-family="Times,serif" font-size="14.00">8750</text>
</a>
</g>
</g>
<!-- 25629 -->
<g id="node42" class="node"><title>25629</title>
<g id="a_node42"><a xlink:title="PRE">
<ellipse fill="#71a9f7" stroke="black" cx="845.124" cy="-327.765" rx="32.4942" ry="18"/>
<text text-anchor="middle" x="845.124" y="-324.065" font-family="Times,serif" font-size="14.00">25629</text>
</a>
</g>
</g>
<!-- 8750&#45;&gt;25629 -->
<g id="edge20" class="edge"><title>8750&#45;&gt;25629</title>
<path fill="none" stroke="black" d="M990.893,-157.762C960.937,-192.698 889.47,-276.046 859.13,-311.43"/>
</g>
<!-- 9404 -->
<g id="node12" class="node"><title>9404</title>
<g id="a_node12"><a xlink:title="PRE">
<ellipse fill="#71a9f7" stroke="black" cx="809.882" cy="-436.165" rx="28.6953" ry="18"/>
<text text-anchor="middle" x="809.882" y="-432.465" font-family="Times,serif" font-size="14.00">9404</text>
</a>
</g>
</g>
<!-- 9404&#45;&gt;15887 -->
<g id="edge52" class="edge"><title>9404&#45;&gt;15887</title>
<path fill="none" stroke="black" d="M791.248,-450.079C762.911,-471.238 709.219,-511.33 680.191,-533.005"/>
</g>
<!-- 10088 -->
<g id="node13" class="node"><title>10088</title>
<g id="a_node13"><a xlink:title="PRE">
<ellipse fill="#71a9f7" stroke="black" cx="449.658" cy="-648.831" rx="32.4942" ry="18"/>
<text text-anchor="middle" x="449.658" y="-645.131" font-family="Times,serif" font-size="14.00">10088</text>
</a>
</g>
</g>
<!-- 10088&#45;&gt;15887 -->
<g id="edge8" class="edge"><title>10088&#45;&gt;15887</title>
<path fill="none" stroke="black" d="M474.241,-637.044C514.735,-617.63 595.013,-579.141 635.617,-559.673"/>
</g>
<!-- 10586 -->
<g id="node14" class="node"><title>10586</title>
<g id="a_node14"><a xlink:title="PRE">
<ellipse fill="#71a9f7" stroke="black" cx="667.723" cy="-776.523" rx="32.4942" ry="18"/>
<text text-anchor="middle" x="667.723" y="-772.823" font-family="Times,serif" font-size="14.00">10586</text>
</a>
</g>
</g>
<!-- 10586&#45;&gt;15887 -->
<g id="edge16" class="edge"><title>10586&#45;&gt;15887</title>
<path fill="none" stroke="black" d="M667.134,-758.193C665.753,-715.261 662.324,-608.608 660.951,-565.906"/>
</g>
<!-- 10666 -->
<g id="node15" class="node"><title>10666</title>
<g id="a_node15"><a xlink:title="PRE">
<ellipse fill="#71a9f7" stroke="black" cx="929.633" cy="-1009.35" rx="32.4942" ry="18"/>
<text text-anchor="middle" x="929.633" y="-1005.65" font-family="Times,serif" font-size="14.00">10666</text>
</a>
</g>
</g>
<!-- 24772 -->
<g id="node38" class="node"><title>24772</title>
<g id="a_node38"><a xlink:title="PRE">
<ellipse fill="#71a9f7" stroke="black" cx="801.22" cy="-798.061" rx="32.4942" ry="18"/>
<text text-anchor="middle" x="801.22" y="-794.361" font-family="Times,serif" font-size="14.00">24772</text>
</a>
</g>
</g>
<!-- 10666&#45;&gt;24772 -->
<g id="edge54" class="edge"><title>10666&#45;&gt;24772</title>
<path fill="none" stroke="black" d="M919.124,-992.055C894.985,-952.337 835.8,-854.956 811.694,-815.294"/>
</g>
<!-- 10825 -->
<g id="node16" class="node"><title>10825</title>
<g id="a_node16"><a xlink:title="PRE">
<ellipse fill="#71a9f7" stroke="black" cx="629.61" cy="-1397.4" rx="32.4942" ry="18"/>
<text text-anchor="middle" x="629.61" y="-1393.7" font-family="Times,serif" font-size="14.00">10825</text>
</a>
</g>
</g>
<!-- 29024 -->
<g id="node49" class="node"><title>29024</title>
<g id="a_node49"><a xlink:title="PRE">
<ellipse fill="#71a9f7" stroke="black" cx="635.639" cy="-1162.55" rx="32.4942" ry="18"/>
<text text-anchor="middle" x="635.639" y="-1158.85" font-family="Times,serif" font-size="14.00">29024</text>
</a>
</g>
</g>
<!-- 10825&#45;&gt;29024 -->
<g id="edge51" class="edge"><title>10825&#45;&gt;29024</title>
<path fill="none" stroke="black" d="M630.073,-1379.36C631.195,-1335.65 634.05,-1224.43 635.174,-1180.65"/>
</g>
<!-- 11818 -->
<g id="node17" class="node"><title>11818</title>
<g id="a_node17"><a xlink:title="PRE">
<ellipse fill="#71a9f7" stroke="black" cx="907.969" cy="-424.05" rx="32.4942" ry="18"/>
<text text-anchor="middle" x="907.969" y="-420.35" font-family="Times,serif" font-size="14.00">11818</text>
</a>
</g>
</g>
<!-- 11818&#45;&gt;15887 -->
<g id="edge23" class="edge"><title>11818&#45;&gt;15887</title>
<path fill="none" stroke="black" d="M883.778,-436.141C836.442,-459.801 732.073,-511.966 684.659,-535.665"/>
</g>
<!-- 24241 -->
<g id="node35" class="node"><title>24241</title>
<g id="a_node35"><a xlink:title="PRE">
<ellipse fill="#71a9f7" stroke="black" cx="1125" cy="-313.393" rx="32.4942" ry="18"/>
<text text-anchor="middle" x="1125" y="-309.693" font-family="Times,serif" font-size="14.00">24241</text>
</a>
</g>
</g>
<!-- 11818&#45;&gt;24241 -->
<g id="edge36" class="edge"><title>11818&#45;&gt;24241</title>
<path fill="none" stroke="black" d="M932.024,-411.785C973.742,-390.514 1059.04,-347.022 1100.84,-325.713"/>
</g>
<!-- 12345 -->
<g id="node18" class="node"><title>12345</title>
<g id="a_node18"><a xlink:title="PRE">
<ellipse fill="#71a9f7" stroke="black" cx="207.086" cy="-262.338" rx="32.4942" ry="18"/>
<text text-anchor="middle" x="207.086" y="-258.638" font-family="Times,serif" font-size="14.00">12345</text>
</a>
</g>
</g>
<!-- 13775 -->
<g id="node19" class="node"><title>13775</title>
<g id="a_node19"><a xlink:title="PRE">
<ellipse fill="#71a9f7" stroke="black" cx="399.329" cy="-385.059" rx="32.4942" ry="18"/>
<text text-anchor="middle" x="399.329" y="-381.359" font-family="Times,serif" font-size="14.00">13775</text>
</a>
</g>
</g>
<!-- 12345&#45;&gt;13775 -->
<g id="edge42" class="edge"><title>12345&#45;&gt;13775</title>
<path fill="none" stroke="black" d="M228.394,-275.94C265.347,-299.53 340.906,-347.764 377.926,-371.396"/>
</g>
<!-- 13775&#45;&gt;15887 -->
<g id="edge19" class="edge"><title>13775&#45;&gt;15887</title>
<path fill="none" stroke="black" d="M421.136,-398.655C470.273,-429.289 589.189,-503.428 638.441,-534.134"/>
</g>
<!-- 14191 -->
<g id="node20" class="node"><title>14191</title>
<g id="a_node20"><a xlink:title="PRE">
<ellipse fill="#71a9f7" stroke="black" cx="488.058" cy="-426.65" rx="32.4942" ry="18"/>
<text text-anchor="middle" x="488.058" y="-422.95" font-family="Times,serif" font-size="14.00">14191</text>
</a>
</g>
</g>
<!-- 14191&#45;&gt;15887 -->
<g id="edge28" class="edge"><title>14191&#45;&gt;15887</title>
<path fill="none" stroke="black" d="M508.501,-441.024C541.753,-464.404 607.158,-510.391 640.219,-533.638"/>
</g>
<!-- 14195 -->
<g id="node21" class="node"><title>14195</title>
<g id="a_node21"><a xlink:title="PRE">
<ellipse fill="#71a9f7" stroke="black" cx="546.279" cy="-367.875" rx="32.4942" ry="18"/>
<text text-anchor="middle" x="546.279" y="-364.175" font-family="Times,serif" font-size="14.00">14195</text>
</a>
</g>
</g>
<!-- 14195&#45;&gt;15887 -->
<g id="edge39" class="edge"><title>14195&#45;&gt;15887</title>
<path fill="none" stroke="black" d="M557.218,-385.128C579.026,-419.52 627.683,-496.256 649.463,-530.606"/>
</g>
<!-- 14905 -->
<g id="node22" class="node"><title>14905</title>
<g id="a_node22"><a xlink:title="PRE">
<ellipse fill="#71a9f7" stroke="black" cx="562.87" cy="-258.949" rx="32.4942" ry="18"/>
<text text-anchor="middle" x="562.87" y="-255.249" font-family="Times,serif" font-size="14.00">14905</text>
</a>
</g>
</g>
<!-- 14905&#45;&gt;15887 -->
<g id="edge41" class="edge"><title>14905&#45;&gt;15887</title>
<path fill="none" stroke="black" d="M568.969,-277.018C586.52,-329.016 637.006,-478.587 654.397,-530.112"/>
</g>
<!-- 27818 -->
<g id="node47" class="node"><title>27818</title>
<g id="a_node47"><a xlink:title="PRE">
<ellipse fill="#71a9f7" stroke="black" cx="491.17" cy="-43.5185" rx="32.4942" ry="18"/>
<text text-anchor="middle" x="491.17" y="-39.8185" font-family="Times,serif" font-size="14.00">27818</text>
</a>
</g>
</g>
<!-- 14905&#45;&gt;27818 -->
<g id="edge38" class="edge"><title>14905&#45;&gt;27818</title>
<path fill="none" stroke="black" d="M556.88,-240.952C543.35,-200.299 510.558,-101.772 497.092,-61.3127"/>
</g>
<!-- 15033&#45;&gt;15887 -->
<g id="edge30" class="edge"><title>15033&#45;&gt;15887</title>
<path fill="none" stroke="black" d="M396.762,-755.701C448.241,-715.102 590.089,-603.233 641.472,-562.709"/>
</g>
<!-- 23816 -->
<g id="node34" class="node"><title>23816</title>
<g id="a_node34"><a xlink:title="PRE">
<ellipse fill="#71a9f7" stroke="black" cx="186.688" cy="-860.059" rx="32.4942" ry="18"/>
<text text-anchor="middle" x="186.688" y="-856.359" font-family="Times,serif" font-size="14.00">23816</text>
</a>
</g>
</g>
<!-- 15033&#45;&gt;23816 -->
<g id="edge26" class="edge"><title>15033&#45;&gt;23816</title>
<path fill="none" stroke="black" d="M352.799,-782.356C316.176,-799.488 248.303,-831.237 211.676,-848.37"/>
</g>
<!-- 15143 -->
<g id="node24" class="node"><title>15143</title>
<g id="a_node24"><a xlink:title="PRE">
<ellipse fill="#71a9f7" stroke="black" cx="559.403" cy="-1109.02" rx="32.4942" ry="18"/>
<text text-anchor="middle" x="559.403" y="-1105.32" font-family="Times,serif" font-size="14.00">15143</text>
</a>
</g>
</g>
<!-- 21661 -->
<g id="node32" class="node"><title>21661</title>
<g id="a_node32"><a xlink:title="PRE">
<ellipse fill="#71a9f7" stroke="black" cx="623.583" cy="-908.707" rx="32.4942" ry="18"/>
<text text-anchor="middle" x="623.583" y="-905.007" font-family="Times,serif" font-size="14.00">21661</text>
</a>
</g>
</g>
<!-- 15143&#45;&gt;21661 -->
<g id="edge13" class="edge"><title>15143&#45;&gt;21661</title>
<path fill="none" stroke="black" d="M565.098,-1091.24C577.278,-1053.23 605.732,-964.421 617.9,-926.443"/>
</g>
<!-- 15329 -->
<g id="node25" class="node"><title>15329</title>
<g id="a_node25"><a xlink:title="PRE">
<ellipse fill="#71a9f7" stroke="black" cx="908.054" cy="-541.889" rx="32.4942" ry="18"/>
<text text-anchor="middle" x="908.054" y="-538.189" font-family="Times,serif" font-size="14.00">15329</text>
</a>
</g>
</g>
<!-- 15329&#45;&gt;15887 -->
<g id="edge25" class="edge"><title>15329&#45;&gt;15887</title>
<path fill="none" stroke="black" d="M875.419,-542.669C827.997,-543.802 740.539,-545.891 693.077,-547.025"/>
</g>
<!-- 15888 -->
<g id="node27" class="node"><title>15888</title>
<g id="a_node27"><a xlink:title="PRE">
<ellipse fill="#71a9f7" stroke="black" cx="560.647" cy="-773.216" rx="32.4942" ry="18"/>
<text text-anchor="middle" x="560.647" y="-769.516" font-family="Times,serif" font-size="14.00">15888</text>
</a>
</g>
</g>
<!-- 15887&#45;&gt;15888 -->
<g id="edge1" class="edge"><title>15887&#45;&gt;15888</title>
<path fill="none" stroke="black" d="M652.544,-565.493C633.903,-607.63 587.041,-713.556 568.436,-755.61"/>
</g>
<!-- 17701 -->
<g id="node28" class="node"><title>17701</title>
<g id="a_node28"><a xlink:title="PRE">
<ellipse fill="#71a9f7" stroke="black" cx="763.586" cy="-380.74" rx="32.4942" ry="18"/>
<text text-anchor="middle" x="763.586" y="-377.04" font-family="Times,serif" font-size="14.00">17701</text>
</a>
</g>
</g>
<!-- 15887&#45;&gt;17701 -->
<g id="edge50" class="edge"><title>15887&#45;&gt;17701</title>
<path fill="none" stroke="black" d="M671.027,-530.556C690.805,-498.542 732.981,-430.278 752.832,-398.147"/>
</g>
<!-- 17722 -->
<g id="node29" class="node"><title>17722</title>
<g id="a_node29"><a xlink:title="PRE">
<ellipse fill="#71a9f7" stroke="black" cx="446.972" cy="-572.271" rx="32.4942" ry="18"/>
<text text-anchor="middle" x="446.972" y="-568.571" font-family="Times,serif" font-size="14.00">17722</text>
</a>
</g>
</g>
<!-- 15887&#45;&gt;17722 -->
<g id="edge18" class="edge"><title>15887&#45;&gt;17722</title>
<path fill="none" stroke="black" d="M628.422,-551.468C588.192,-556.081 519.471,-563.959 479.138,-568.583"/>
</g>
<!-- 20776 -->
<g id="node30" class="node"><title>20776</title>
<g id="a_node30"><a xlink:title="PRE">
<ellipse fill="#71a9f7" stroke="black" cx="831.281" cy="-594.965" rx="32.4942" ry="18"/>
<text text-anchor="middle" x="831.281" y="-591.265" font-family="Times,serif" font-size="14.00">20776</text>
</a>
</g>
</g>
<!-- 15887&#45;&gt;20776 -->
<g id="edge49" class="edge"><title>15887&#45;&gt;20776</title>
<path fill="none" stroke="black" d="M689.75,-555.913C721.151,-564.577 770.636,-578.231 801.998,-586.885"/>
</g>
<!-- 21102 -->
<g id="node31" class="node"><title>21102</title>
<g id="a_node31"><a xlink:title="PRE">
<ellipse fill="#71a9f7" stroke="black" cx="862.369" cy="-645.528" rx="32.4942" ry="18"/>
<text text-anchor="middle" x="862.369" y="-641.828" font-family="Times,serif" font-size="14.00">21102</text>
</a>
</g>
</g>
<!-- 15887&#45;&gt;21102 -->
<g id="edge17" class="edge"><title>15887&#45;&gt;21102</title>
<path fill="none" stroke="black" d="M685.138,-559.788C724.013,-578.595 798.909,-614.828 837.713,-633.6"/>
</g>
<!-- 15887&#45;&gt;21661 -->
<g id="edge43" class="edge"><title>15887&#45;&gt;21661</title>
<path fill="none" stroke="black" d="M658.495,-566.199C652.184,-628.109 631.759,-828.496 625.454,-890.35"/>
</g>
<!-- 22146 -->
<g id="node33" class="node"><title>22146</title>
<g id="a_node33"><a xlink:title="PRE">
<ellipse fill="#71a9f7" stroke="black" cx="660.134" cy="-243.645" rx="32.4942" ry="18"/>
<text text-anchor="middle" x="660.134" y="-239.945" font-family="Times,serif" font-size="14.00">22146</text>
</a>
</g>
</g>
<!-- 15887&#45;&gt;22146 -->
<g id="edge9" class="edge"><title>15887&#45;&gt;22146</title>
<path fill="none" stroke="black" d="M660.355,-529.69C660.313,-475.592 660.19,-315.64 660.148,-261.666"/>
</g>
<!-- 15887&#45;&gt;24668 -->
<g id="edge46" class="edge"><title>15887&#45;&gt;24668</title>
<path fill="none" stroke="black" d="M629.692,-541.409C571.701,-529.316 446.613,-503.232 388.559,-491.126"/>
</g>
<!-- 15887&#45;&gt;24772 -->
<g id="edge45" class="edge"><title>15887&#45;&gt;24772</title>
<path fill="none" stroke="black" d="M670.051,-565.007C695.782,-610.724 765.663,-734.884 791.471,-780.739"/>
</g>
<!-- 24994 -->
<g id="node39" class="node"><title>24994</title>
<g id="a_node39"><a xlink:title="PRE">
<ellipse fill="#71a9f7" stroke="black" cx="352.831" cy="-597.634" rx="32.4942" ry="18"/>
<text text-anchor="middle" x="352.831" y="-593.934" font-family="Times,serif" font-size="14.00">24994</text>
</a>
</g>
</g>
<!-- 15887&#45;&gt;24994 -->
<g id="edge56" class="edge"><title>15887&#45;&gt;24994</title>
<path fill="none" stroke="black" d="M628.903,-552.904C569.811,-562.478 442.906,-583.04 384.024,-592.58"/>
</g>
<!-- 25271 -->
<g id="node40" class="node"><title>25271</title>
<g id="a_node40"><a xlink:title="PRE">
<ellipse fill="#71a9f7" stroke="black" cx="1042.34" cy="-628.655" rx="32.4942" ry="18"/>
<text text-anchor="middle" x="1042.34" y="-624.955" font-family="Times,serif" font-size="14.00">25271</text>
</a>
</g>
</g>
<!-- 15887&#45;&gt;25271 -->
<g id="edge15" class="edge"><title>15887&#45;&gt;25271</title>
<path fill="none" stroke="black" d="M690.982,-554.285C762.591,-569.443 940.356,-607.069 1011.85,-622.201"/>
</g>
<!-- 25302 -->
<g id="node41" class="node"><title>25302</title>
<g id="a_node41"><a xlink:title="PRE">
<ellipse fill="#71a9f7" stroke="black" cx="495.48" cy="-728.124" rx="32.4942" ry="18"/>
<text text-anchor="middle" x="495.48" y="-724.424" font-family="Times,serif" font-size="14.00">25302</text>
</a>
</g>
</g>
<!-- 15887&#45;&gt;25302 -->
<g id="edge12" class="edge"><title>15887&#45;&gt;25302</title>
<path fill="none" stroke="black" d="M645.446,-564.126C614.053,-598.456 541.51,-677.786 510.251,-711.97"/>
</g>
<!-- 15887&#45;&gt;25629 -->
<g id="edge47" class="edge"><title>15887&#45;&gt;25629</title>
<path fill="none" stroke="black" d="M674.256,-531.267C708.579,-490.389 797.101,-384.96 831.328,-344.196"/>
</g>
<!-- 26028 -->
<g id="node44" class="node"><title>26028</title>
<g id="a_node44"><a xlink:title="PRE">
<ellipse fill="#71a9f7" stroke="black" cx="619.5" cy="-394.272" rx="32.4942" ry="18"/>
<text text-anchor="middle" x="619.5" y="-390.572" font-family="Times,serif" font-size="14.00">26028</text>
</a>
</g>
</g>
<!-- 15887&#45;&gt;26028 -->
<g id="edge34" class="edge"><title>15887&#45;&gt;26028</title>
<path fill="none" stroke="black" d="M655.601,-529.893C647.768,-500.467 632.26,-442.207 624.364,-412.546"/>
</g>
<!-- 26931 -->
<g id="node46" class="node"><title>26931</title>
<g id="a_node46"><a xlink:title="PRE">
<ellipse fill="#71a9f7" stroke="black" cx="452.615" cy="-496.029" rx="32.4942" ry="18"/>
<text text-anchor="middle" x="452.615" y="-492.329" font-family="Times,serif" font-size="14.00">26931</text>
</a>
</g>
</g>
<!-- 15887&#45;&gt;26931 -->
<g id="edge53" class="edge"><title>15887&#45;&gt;26931</title>
<path fill="none" stroke="black" d="M630.603,-540.387C591.109,-530.545 521.792,-513.269 482.326,-503.433"/>
</g>
<!-- 28775 -->
<g id="node48" class="node"><title>28775</title>
<g id="a_node48"><a xlink:title="PRE">
<ellipse fill="#71a9f7" stroke="black" cx="817.949" cy="-697.792" rx="32.4942" ry="18"/>
<text text-anchor="middle" x="817.949" y="-694.092" font-family="Times,serif" font-size="14.00">28775</text>
</a>
</g>
</g>
<!-- 15887&#45;&gt;28775 -->
<g id="edge24" class="edge"><title>15887&#45;&gt;28775</title>
<path fill="none" stroke="black" d="M676.935,-563.573C707.121,-592.304 770.76,-652.877 801.131,-681.784"/>
</g>
<!-- 9619 -->
<g id="node53" class="node"><title>9619</title>
<g id="a_node53"><a xlink:title="PRE">
<ellipse fill="#71a9f7" stroke="black" cx="738.205" cy="-739.954" rx="28.6953" ry="18"/>
<text text-anchor="middle" x="738.205" y="-736.254" font-family="Times,serif" font-size="14.00">9619</text>
</a>
</g>
</g>
<!-- 15887&#45;&gt;9619 -->
<g id="edge7" class="edge"><title>15887&#45;&gt;9619</title>
<path fill="none" stroke="black" d="M667.552,-565.538C682.38,-602.143 716.226,-685.696 731.039,-722.264"/>
</g>
<!-- 21661&#45;&gt;29024 -->
<g id="edge3" class="edge"><title>21661&#45;&gt;29024</title>
<path fill="none" stroke="black" d="M624.45,-926.962C626.674,-973.798 632.564,-1097.8 634.779,-1144.46"/>
</g>
<!-- 26233 -->
<g id="node45" class="node"><title>26233</title>
<g id="a_node45"><a xlink:title="PRE">
<ellipse fill="#71a9f7" stroke="black" cx="663.742" cy="-18.3985" rx="32.4942" ry="18"/>
<text text-anchor="middle" x="663.742" y="-14.6985" font-family="Times,serif" font-size="14.00">26233</text>
</a>
</g>
</g>
<!-- 22146&#45;&gt;26233 -->
<g id="edge22" class="edge"><title>22146&#45;&gt;26233</title>
<path fill="none" stroke="black" d="M660.423,-225.593C661.099,-183.417 662.775,-78.7969 663.452,-36.5366"/>
</g>
<!-- 25838 -->
<g id="node43" class="node"><title>25838</title>
<g id="a_node43"><a xlink:title="PRE">
<ellipse fill="#71a9f7" stroke="black" cx="129.262" cy="-626.566" rx="32.4942" ry="18"/>
<text text-anchor="middle" x="129.262" y="-622.866" font-family="Times,serif" font-size="14.00">25838</text>
</a>
</g>
</g>
<!-- 24994&#45;&gt;25838 -->
<g id="edge5" class="edge"><title>24994&#45;&gt;25838</title>
<path fill="none" stroke="black" d="M320.799,-601.779C278.299,-607.279 203.705,-616.932 161.234,-622.428"/>
</g>
<!-- 26876 -->
<g id="node55" class="node"><title>26876</title>
<g id="a_node55"><a xlink:title="Day_0">
<ellipse fill="#e5dada" stroke="black" cx="1365.11" cy="-694.838" rx="32.4942" ry="18"/>
<text text-anchor="middle" x="1365.11" y="-691.138" font-family="Times,serif" font-size="14.00">26876</text>
</a>
</g>
</g>
<!-- 25271&#45;&gt;26876 -->
<g id="edge40" class="edge"><title>25271&#45;&gt;26876</title>
<path fill="none" stroke="black" d="M1072.99,-634.941C1134.52,-647.557 1272.43,-675.836 1334.18,-688.497"/>
</g>
<!-- 4894 -->
<g id="node51" class="node"><title>4894</title>
<g id="a_node51"><a xlink:title="Day_0">
<ellipse fill="#e5dada" stroke="black" cx="1560.49" cy="-805.053" rx="28.6953" ry="18"/>
<text text-anchor="middle" x="1560.49" y="-801.353" font-family="Times,serif" font-size="14.00">4894</text>
</a>
</g>
</g>
<!-- 4894&#45;&gt;26876 -->
<g id="edge21" class="edge"><title>4894&#45;&gt;26876</title>
<path fill="none" stroke="black" d="M1538.83,-792.837C1501.67,-771.875 1426.1,-729.246 1388.07,-707.79"/>
</g>
<!-- 6076 -->
<g id="node52" class="node"><title>6076</title>
<g id="a_node52"><a xlink:title="Day_0">
<ellipse fill="#e5dada" stroke="black" cx="1508.29" cy="-862.652" rx="28.6953" ry="18"/>
<text text-anchor="middle" x="1508.29" y="-858.952" font-family="Times,serif" font-size="14.00">6076</text>
</a>
</g>
</g>
<!-- 6076&#45;&gt;26876 -->
<g id="edge11" class="edge"><title>6076&#45;&gt;26876</title>
<path fill="none" stroke="black" d="M1494.56,-846.561C1467.26,-814.567 1406.44,-743.282 1379,-711.126"/>
</g>
<!-- 22689 -->
<g id="node54" class="node"><title>22689</title>
<g id="a_node54"><a xlink:title="Day_0">
<ellipse fill="#e5dada" stroke="black" cx="1593.87" cy="-741.791" rx="32.4942" ry="18"/>
<text text-anchor="middle" x="1593.87" y="-738.091" font-family="Times,serif" font-size="14.00">22689</text>
</a>
</g>
</g>
<!-- 22689&#45;&gt;26876 -->
<g id="edge10" class="edge"><title>22689&#45;&gt;26876</title>
<path fill="none" stroke="black" d="M1563.02,-735.459C1519.24,-726.472 1439.55,-710.117 1395.83,-701.144"/>
</g>
<!-- 29113 -->
<g id="node56" class="node"><title>29113</title>
<g id="a_node56"><a xlink:title="Day_0">
<ellipse fill="#e5dada" stroke="black" cx="1567.09" cy="-595.233" rx="32.4942" ry="18"/>
<text text-anchor="middle" x="1567.09" y="-591.533" font-family="Times,serif" font-size="14.00">29113</text>
</a>
</g>
</g>
<!-- 26876&#45;&gt;29113 -->
<g id="edge31" class="edge"><title>26876&#45;&gt;29113</title>
<path fill="none" stroke="black" d="M1389.47,-682.823C1428.29,-663.679 1503.76,-626.462 1542.64,-607.29"/>
</g>
<!-- 25200 -->
<g id="node57" class="node"><title>25200</title>
<g id="a_node57"><a xlink:title="Day_0">
<ellipse fill="#e5dada" stroke="black" cx="1594.06" cy="-669.347" rx="32.4942" ry="18"/>
<text text-anchor="middle" x="1594.06" y="-665.647" font-family="Times,serif" font-size="14.00">25200</text>
</a>
</g>
</g>
<!-- 26876&#45;&gt;25200 -->
<g id="edge35" class="edge"><title>26876&#45;&gt;25200</title>
<path fill="none" stroke="black" d="M1397.42,-691.24C1441.06,-686.381 1518.36,-677.776 1561.91,-672.927"/>
</g>
</g>
</svg>
