<?xml version="1.0" encoding="UTF-8" standalone="no"?>
<!DOCTYPE svg PUBLIC "-//W3C//DTD SVG 1.1//EN"
 "http://www.w3.org/Graphics/SVG/1.1/DTD/svg11.dtd">
<!-- Generated by graphviz version 2.38.0 (20140413.2041)
 -->
<!-- Title: %3 Pages: 1 -->
<svg width="2018pt" height="2080pt"
 viewBox="0.00 0.00 2018.00 2080.00" xmlns="http://www.w3.org/2000/svg" xmlns:xlink="http://www.w3.org/1999/xlink">
<g id="graph0" class="graph" transform="scale(1 1) rotate(0) translate(4 2076)">
<title>%3</title>
<polygon fill="white" stroke="none" points="-4,4 -4,-2076 2014,-2076 2014,4 -4,4"/>
<!-- 8 -->
<g id="node1" class="node"><title>8</title>
<g id="a_node1"><a xlink:title="6th_week">
<ellipse fill="#c81d25" stroke="black" cx="1259.11" cy="-2008.15" rx="27" ry="18"/>
<text text-anchor="middle" x="1259.11" y="-2004.45" font-family="Times,serif" font-size="14.00">8</text>
</a>
</g>
</g>
<!-- 2413 -->
<g id="node10" class="node"><title>2413</title>
<g id="a_node10"><a xlink:title="6th_week">
<ellipse fill="#c81d25" stroke="black" cx="1202.47" cy="-1803.43" rx="28.6953" ry="18"/>
<text text-anchor="middle" x="1202.47" y="-1799.73" font-family="Times,serif" font-size="14.00">2413</text>
</a>
</g>
</g>
<!-- 8&#45;&gt;2413 -->
<g id="edge50" class="edge"><title>8&#45;&gt;2413</title>
<path fill="none" stroke="black" d="M1254.18,-1990.34C1243.47,-1951.62 1218.17,-1860.16 1207.43,-1821.35"/>
</g>
<!-- 350 -->
<g id="node2" class="node"><title>350</title>
<g id="a_node2"><a xlink:title="6th_week">
<ellipse fill="#c81d25" stroke="black" cx="1307.45" cy="-1400.62" rx="27" ry="18"/>
<text text-anchor="middle" x="1307.45" y="-1396.92" font-family="Times,serif" font-size="14.00">350</text>
</a>
</g>
</g>
<!-- 4350 -->
<g id="node19" class="node"><title>4350</title>
<g id="a_node19"><a xlink:title="6th_week">
<ellipse fill="#c81d25" stroke="black" cx="1154.13" cy="-1353.4" rx="28.6953" ry="18"/>
<text text-anchor="middle" x="1154.13" y="-1349.7" font-family="Times,serif" font-size="14.00">4350</text>
</a>
</g>
</g>
<!-- 350&#45;&gt;4350 -->
<g id="edge57" class="edge"><title>350&#45;&gt;4350</title>
<path fill="none" stroke="black" d="M1282.82,-1393.04C1254.63,-1384.35 1208.67,-1370.2 1179.99,-1361.36"/>
</g>
<!-- 1026 -->
<g id="node3" class="node"><title>1026</title>
<g id="a_node3"><a xlink:title="6th_week">
<ellipse fill="#c81d25" stroke="black" cx="1190.07" cy="-1208.38" rx="28.6953" ry="18"/>
<text text-anchor="middle" x="1190.07" y="-1204.68" font-family="Times,serif" font-size="14.00">1026</text>
</a>
</g>
</g>
<!-- 1026&#45;&gt;4350 -->
<g id="edge68" class="edge"><title>1026&#45;&gt;4350</title>
<path fill="none" stroke="black" d="M1185.59,-1226.45C1178.67,-1254.39 1165.45,-1307.75 1158.56,-1335.56"/>
</g>
<!-- 1145 -->
<g id="node4" class="node"><title>1145</title>
<g id="a_node4"><a xlink:title="6th_week">
<ellipse fill="#c81d25" stroke="black" cx="922.69" cy="-1346.85" rx="28.6953" ry="18"/>
<text text-anchor="middle" x="922.69" y="-1343.15" font-family="Times,serif" font-size="14.00">1145</text>
</a>
</g>
</g>
<!-- 1145&#45;&gt;4350 -->
<g id="edge29" class="edge"><title>1145&#45;&gt;4350</title>
<path fill="none" stroke="black" d="M951.535,-1347.67C996.007,-1348.93 1080.82,-1351.33 1125.29,-1352.59"/>
</g>
<!-- 1223 -->
<g id="node5" class="node"><title>1223</title>
<g id="a_node5"><a xlink:title="6th_week">
<ellipse fill="#c81d25" stroke="black" cx="1097.52" cy="-1563.09" rx="28.6953" ry="18"/>
<text text-anchor="middle" x="1097.52" y="-1559.39" font-family="Times,serif" font-size="14.00">1223</text>
</a>
</g>
</g>
<!-- 1223&#45;&gt;4350 -->
<g id="edge26" class="edge"><title>1223&#45;&gt;4350</title>
<path fill="none" stroke="black" d="M1102.35,-1545.21C1113.04,-1505.59 1138.64,-1410.81 1149.32,-1371.23"/>
</g>
<!-- 1278 -->
<g id="node6" class="node"><title>1278</title>
<g id="a_node6"><a xlink:title="6th_week">
<ellipse fill="#c81d25" stroke="black" cx="1184.9" cy="-1143.93" rx="28.6953" ry="18"/>
<text text-anchor="middle" x="1184.9" y="-1140.23" font-family="Times,serif" font-size="14.00">1278</text>
</a>
</g>
</g>
<!-- 1278&#45;&gt;4350 -->
<g id="edge74" class="edge"><title>1278&#45;&gt;4350</title>
<path fill="none" stroke="black" d="M1182.23,-1162.16C1176.39,-1201.87 1162.59,-1295.83 1156.78,-1335.37"/>
</g>
<!-- 1385 -->
<g id="node7" class="node"><title>1385</title>
<g id="a_node7"><a xlink:title="6th_week">
<ellipse fill="#c81d25" stroke="black" cx="1212.93" cy="-2053.63" rx="28.6953" ry="18"/>
<text text-anchor="middle" x="1212.93" y="-2049.93" font-family="Times,serif" font-size="14.00">1385</text>
</a>
</g>
</g>
<!-- 1385&#45;&gt;2413 -->
<g id="edge14" class="edge"><title>1385&#45;&gt;2413</title>
<path fill="none" stroke="black" d="M1212.16,-2035.23C1210.22,-1988.85 1205.15,-1867.57 1203.23,-1821.52"/>
</g>
<!-- 1605 -->
<g id="node8" class="node"><title>1605</title>
<g id="a_node8"><a xlink:title="6th_week">
<ellipse fill="#c81d25" stroke="black" cx="1293.7" cy="-1111.11" rx="28.6953" ry="18"/>
<text text-anchor="middle" x="1293.7" y="-1107.41" font-family="Times,serif" font-size="14.00">1605</text>
</a>
</g>
</g>
<!-- 1605&#45;&gt;4350 -->
<g id="edge25" class="edge"><title>1605&#45;&gt;4350</title>
<path fill="none" stroke="black" d="M1283.89,-1128.15C1258.26,-1172.64 1189.55,-1291.92 1163.94,-1336.38"/>
</g>
<!-- 22693 -->
<g id="node69" class="node"><title>22693</title>
<g id="a_node69"><a xlink:title="6th_week">
<ellipse fill="#c81d25" stroke="black" cx="1434.9" cy="-888.231" rx="32.4942" ry="18"/>
<text text-anchor="middle" x="1434.9" y="-884.531" font-family="Times,serif" font-size="14.00">22693</text>
</a>
</g>
</g>
<!-- 1605&#45;&gt;22693 -->
<g id="edge49" class="edge"><title>1605&#45;&gt;22693</title>
<path fill="none" stroke="black" d="M1304.32,-1094.36C1330.42,-1053.16 1397.54,-947.206 1423.97,-905.484"/>
</g>
<!-- 2375 -->
<g id="node9" class="node"><title>2375</title>
<g id="a_node9"><a xlink:title="6th_week">
<ellipse fill="#c81d25" stroke="black" cx="884.354" cy="-1843.44" rx="28.6953" ry="18"/>
<text text-anchor="middle" x="884.354" y="-1839.74" font-family="Times,serif" font-size="14.00">2375</text>
</a>
</g>
</g>
<!-- 18246 -->
<g id="node62" class="node"><title>18246</title>
<g id="a_node62"><a xlink:title="6th_week">
<ellipse fill="#c81d25" stroke="black" cx="997.209" cy="-1645.28" rx="32.4942" ry="18"/>
<text text-anchor="middle" x="997.209" y="-1641.58" font-family="Times,serif" font-size="14.00">18246</text>
</a>
</g>
</g>
<!-- 2375&#45;&gt;18246 -->
<g id="edge19" class="edge"><title>2375&#45;&gt;18246</title>
<path fill="none" stroke="black" d="M894.172,-1826.2C915.515,-1788.73 965.938,-1700.19 987.333,-1662.62"/>
</g>
<!-- 2413&#45;&gt;4350 -->
<g id="edge70" class="edge"><title>2413&#45;&gt;4350</title>
<path fill="none" stroke="black" d="M1200.52,-1785.23C1192.73,-1712.72 1163.95,-1444.75 1156.11,-1371.83"/>
</g>
<!-- 10987 -->
<g id="node38" class="node"><title>10987</title>
<g id="a_node38"><a xlink:title="6th_week">
<ellipse fill="#c81d25" stroke="black" cx="1118.71" cy="-2036.44" rx="32.4942" ry="18"/>
<text text-anchor="middle" x="1118.71" y="-2032.74" font-family="Times,serif" font-size="14.00">10987</text>
</a>
</g>
</g>
<!-- 2413&#45;&gt;10987 -->
<g id="edge54" class="edge"><title>2413&#45;&gt;10987</title>
<path fill="none" stroke="black" d="M1196.04,-1821.33C1180.45,-1864.7 1140.78,-1975.05 1125.17,-2018.48"/>
</g>
<!-- 16271 -->
<g id="node58" class="node"><title>16271</title>
<g id="a_node58"><a xlink:title="6th_week">
<ellipse fill="#c81d25" stroke="black" cx="1329.21" cy="-2001.65" rx="32.4942" ry="18"/>
<text text-anchor="middle" x="1329.21" y="-1997.95" font-family="Times,serif" font-size="14.00">16271</text>
</a>
</g>
</g>
<!-- 2413&#45;&gt;16271 -->
<g id="edge60" class="edge"><title>2413&#45;&gt;16271</title>
<path fill="none" stroke="black" d="M1213.28,-1820.33C1237.16,-1857.69 1294.23,-1946.93 1318.25,-1984.51"/>
</g>
<!-- 2930 -->
<g id="node11" class="node"><title>2930</title>
<g id="a_node11"><a xlink:title="6th_week">
<ellipse fill="#c81d25" stroke="black" cx="811.208" cy="-1390.56" rx="28.6953" ry="18"/>
<text text-anchor="middle" x="811.208" y="-1386.86" font-family="Times,serif" font-size="14.00">2930</text>
</a>
</g>
</g>
<!-- 2930&#45;&gt;4350 -->
<g id="edge2" class="edge"><title>2930&#45;&gt;4350</title>
<path fill="none" stroke="black" d="M839.563,-1387.49C904.072,-1380.5 1061.21,-1363.47 1125.75,-1356.48"/>
</g>
<!-- 7976 -->
<g id="node29" class="node"><title>7976</title>
<g id="a_node29"><a xlink:title="6th_week">
<ellipse fill="#c81d25" stroke="black" cx="557.002" cy="-1366.84" rx="28.6953" ry="18"/>
<text text-anchor="middle" x="557.002" y="-1363.14" font-family="Times,serif" font-size="14.00">7976</text>
</a>
</g>
</g>
<!-- 2930&#45;&gt;7976 -->
<g id="edge36" class="edge"><title>2930&#45;&gt;7976</title>
<path fill="none" stroke="black" d="M782.542,-1387.89C733.59,-1383.32 634.444,-1374.07 585.564,-1369.51"/>
</g>
<!-- 17448 -->
<g id="node61" class="node"><title>17448</title>
<g id="a_node61"><a xlink:title="6th_week">
<ellipse fill="#c81d25" stroke="black" cx="556.225" cy="-1449.73" rx="32.4942" ry="18"/>
<text text-anchor="middle" x="556.225" y="-1446.03" font-family="Times,serif" font-size="14.00">17448</text>
</a>
</g>
</g>
<!-- 2930&#45;&gt;17448 -->
<g id="edge20" class="edge"><title>2930&#45;&gt;17448</title>
<path fill="none" stroke="black" d="M783.921,-1396.89C735.871,-1408.04 636.524,-1431.1 586.461,-1442.71"/>
</g>
<!-- 3095 -->
<g id="node12" class="node"><title>3095</title>
<g id="a_node12"><a xlink:title="6th_week">
<ellipse fill="#c81d25" stroke="black" cx="1038.11" cy="-1232.82" rx="28.6953" ry="18"/>
<text text-anchor="middle" x="1038.11" y="-1229.12" font-family="Times,serif" font-size="14.00">3095</text>
</a>
</g>
</g>
<!-- 3095&#45;&gt;4350 -->
<g id="edge45" class="edge"><title>3095&#45;&gt;4350</title>
<path fill="none" stroke="black" d="M1053.27,-1248.58C1075.51,-1271.69 1116.72,-1314.52 1138.96,-1337.63"/>
</g>
<!-- 3306 -->
<g id="node13" class="node"><title>3306</title>
<g id="a_node13"><a xlink:title="6th_week">
<ellipse fill="#c81d25" stroke="black" cx="816.011" cy="-707.499" rx="28.6953" ry="18"/>
<text text-anchor="middle" x="816.011" y="-703.799" font-family="Times,serif" font-size="14.00">3306</text>
</a>
</g>
</g>
<!-- 4315 -->
<g id="node18" class="node"><title>4315</title>
<g id="a_node18"><a xlink:title="6th_week">
<ellipse fill="#c81d25" stroke="black" cx="865.241" cy="-982.382" rx="28.6953" ry="18"/>
<text text-anchor="middle" x="865.241" y="-978.682" font-family="Times,serif" font-size="14.00">4315</text>
</a>
</g>
</g>
<!-- 3306&#45;&gt;4315 -->
<g id="edge23" class="edge"><title>3306&#45;&gt;4315</title>
<path fill="none" stroke="black" d="M819.241,-725.535C828.162,-775.342 853.065,-914.393 861.999,-964.28"/>
</g>
<!-- 10983 -->
<g id="node37" class="node"><title>10983</title>
<g id="a_node37"><a xlink:title="6th_week">
<ellipse fill="#c81d25" stroke="black" cx="801.399" cy="-504.778" rx="32.4942" ry="18"/>
<text text-anchor="middle" x="801.399" y="-501.078" font-family="Times,serif" font-size="14.00">10983</text>
</a>
</g>
</g>
<!-- 3306&#45;&gt;10983 -->
<g id="edge24" class="edge"><title>3306&#45;&gt;10983</title>
<path fill="none" stroke="black" d="M814.715,-689.509C811.949,-651.136 805.496,-561.614 802.714,-523.02"/>
</g>
<!-- 3307 -->
<g id="node14" class="node"><title>3307</title>
<g id="a_node14"><a xlink:title="6th_week">
<ellipse fill="#c81d25" stroke="black" cx="1517.22" cy="-1494.95" rx="28.6953" ry="18"/>
<text text-anchor="middle" x="1517.22" y="-1491.25" font-family="Times,serif" font-size="14.00">3307</text>
</a>
</g>
</g>
<!-- 3307&#45;&gt;4350 -->
<g id="edge33" class="edge"><title>3307&#45;&gt;4350</title>
<path fill="none" stroke="black" d="M1492.84,-1485.44C1426.85,-1459.72 1245.31,-1388.95 1178.89,-1363.05"/>
</g>
<!-- 8770 -->
<g id="node31" class="node"><title>8770</title>
<g id="a_node31"><a xlink:title="6th_week">
<ellipse fill="#c81d25" stroke="black" cx="1711.89" cy="-1658.57" rx="28.6953" ry="18"/>
<text text-anchor="middle" x="1711.89" y="-1654.87" font-family="Times,serif" font-size="14.00">8770</text>
</a>
</g>
</g>
<!-- 3307&#45;&gt;8770 -->
<g id="edge13" class="edge"><title>3307&#45;&gt;8770</title>
<path fill="none" stroke="black" d="M1534.5,-1509.47C1571.44,-1540.52 1657.75,-1613.06 1694.66,-1644.08"/>
</g>
<!-- 15100 -->
<g id="node50" class="node"><title>15100</title>
<g id="a_node50"><a xlink:title="6th_week">
<ellipse fill="#c81d25" stroke="black" cx="1773.66" cy="-1544.19" rx="32.4942" ry="18"/>
<text text-anchor="middle" x="1773.66" y="-1540.49" font-family="Times,serif" font-size="14.00">15100</text>
</a>
</g>
</g>
<!-- 3307&#45;&gt;15100 -->
<g id="edge7" class="edge"><title>3307&#45;&gt;15100</title>
<path fill="none" stroke="black" d="M1544.67,-1500.22C1592.86,-1509.48 1692.37,-1528.58 1742.85,-1538.28"/>
</g>
<!-- 16089 -->
<g id="node57" class="node"><title>16089</title>
<g id="a_node57"><a xlink:title="6th_week">
<ellipse fill="#c81d25" stroke="black" cx="1773.98" cy="-1475.02" rx="32.4942" ry="18"/>
<text text-anchor="middle" x="1773.98" y="-1471.32" font-family="Times,serif" font-size="14.00">16089</text>
</a>
</g>
</g>
<!-- 3307&#45;&gt;16089 -->
<g id="edge47" class="edge"><title>3307&#45;&gt;16089</title>
<path fill="none" stroke="black" d="M1545.68,-1492.74C1593.86,-1489 1691.18,-1481.45 1741.78,-1477.52"/>
</g>
<!-- 23781 -->
<g id="node77" class="node"><title>23781</title>
<g id="a_node77"><a xlink:title="6th_week">
<ellipse fill="#c81d25" stroke="black" cx="1756.03" cy="-1606.66" rx="32.4942" ry="18"/>
<text text-anchor="middle" x="1756.03" y="-1602.96" font-family="Times,serif" font-size="14.00">23781</text>
</a>
</g>
</g>
<!-- 3307&#45;&gt;23781 -->
<g id="edge67" class="edge"><title>3307&#45;&gt;23781</title>
<path fill="none" stroke="black" d="M1540.56,-1505.87C1585.74,-1527 1684.81,-1573.35 1731.17,-1595.04"/>
</g>
<!-- 4036 -->
<g id="node15" class="node"><title>4036</title>
<g id="a_node15"><a xlink:title="6th_week">
<ellipse fill="#c81d25" stroke="black" cx="1363.19" cy="-1564.07" rx="28.6953" ry="18"/>
<text text-anchor="middle" x="1363.19" y="-1560.37" font-family="Times,serif" font-size="14.00">4036</text>
</a>
</g>
</g>
<!-- 4036&#45;&gt;4350 -->
<g id="edge53" class="edge"><title>4036&#45;&gt;4350</title>
<path fill="none" stroke="black" d="M1347.82,-1548.58C1309.16,-1509.62 1208.21,-1407.9 1169.53,-1368.92"/>
</g>
<!-- 14223 -->
<g id="node48" class="node"><title>14223</title>
<g id="a_node48"><a xlink:title="6th_week">
<ellipse fill="#c81d25" stroke="black" cx="1552.44" cy="-1744.8" rx="32.4942" ry="18"/>
<text text-anchor="middle" x="1552.44" y="-1741.1" font-family="Times,serif" font-size="14.00">14223</text>
</a>
</g>
</g>
<!-- 4036&#45;&gt;14223 -->
<g id="edge44" class="edge"><title>4036&#45;&gt;14223</title>
<path fill="none" stroke="black" d="M1379,-1579.17C1414.44,-1613.02 1499.97,-1694.7 1536,-1729.11"/>
</g>
<!-- 4252 -->
<g id="node16" class="node"><title>4252</title>
<g id="a_node16"><a xlink:title="6th_week">
<ellipse fill="#c81d25" stroke="black" cx="108.623" cy="-17.6615" rx="28.6953" ry="18"/>
<text text-anchor="middle" x="108.623" y="-13.9615" font-family="Times,serif" font-size="14.00">4252</text>
</a>
</g>
</g>
<!-- 10624 -->
<g id="node35" class="node"><title>10624</title>
<g id="a_node35"><a xlink:title="6th_week">
<ellipse fill="#c81d25" stroke="black" cx="189.881" cy="-190.354" rx="32.4942" ry="18"/>
<text text-anchor="middle" x="189.881" y="-186.654" font-family="Times,serif" font-size="14.00">10624</text>
</a>
</g>
</g>
<!-- 4252&#45;&gt;10624 -->
<g id="edge48" class="edge"><title>4252&#45;&gt;10624</title>
<path fill="none" stroke="black" d="M116.862,-35.1706C132.436,-68.2697 166.029,-139.664 181.62,-172.799"/>
</g>
<!-- 4311 -->
<g id="node17" class="node"><title>4311</title>
<g id="a_node17"><a xlink:title="6th_week">
<ellipse fill="#c81d25" stroke="black" cx="1212.09" cy="-780.488" rx="28.6953" ry="18"/>
<text text-anchor="middle" x="1212.09" y="-776.788" font-family="Times,serif" font-size="14.00">4311</text>
</a>
</g>
</g>
<!-- 11324 -->
<g id="node40" class="node"><title>11324</title>
<g id="a_node40"><a xlink:title="6th_week">
<ellipse fill="#c81d25" stroke="black" cx="1205.25" cy="-1037.09" rx="32.4942" ry="18"/>
<text text-anchor="middle" x="1205.25" y="-1033.39" font-family="Times,serif" font-size="14.00">11324</text>
</a>
</g>
</g>
<!-- 4311&#45;&gt;11324 -->
<g id="edge6" class="edge"><title>4311&#45;&gt;11324</title>
<path fill="none" stroke="black" d="M1211.61,-798.532C1210.35,-845.647 1206.99,-971.978 1205.73,-1019.07"/>
</g>
<!-- 4315&#45;&gt;4350 -->
<g id="edge61" class="edge"><title>4315&#45;&gt;4350</title>
<path fill="none" stroke="black" d="M878.027,-998.803C925.856,-1060.23 1093.91,-1276.06 1141.5,-1337.17"/>
</g>
<!-- 4889 -->
<g id="node22" class="node"><title>4889</title>
<g id="a_node22"><a xlink:title="6th_week">
<ellipse fill="#c81d25" stroke="black" cx="700.507" cy="-823.298" rx="28.6953" ry="18"/>
<text text-anchor="middle" x="700.507" y="-819.598" font-family="Times,serif" font-size="14.00">4889</text>
</a>
</g>
</g>
<!-- 4315&#45;&gt;4889 -->
<g id="edge55" class="edge"><title>4315&#45;&gt;4889</title>
<path fill="none" stroke="black" d="M849.446,-967.128C818.039,-936.799 748.062,-869.222 716.497,-838.739"/>
</g>
<!-- 5959 -->
<g id="node24" class="node"><title>5959</title>
<g id="a_node24"><a xlink:title="6th_week">
<ellipse fill="#c81d25" stroke="black" cx="575.106" cy="-653.506" rx="28.6953" ry="18"/>
<text text-anchor="middle" x="575.106" y="-649.806" font-family="Times,serif" font-size="14.00">5959</text>
</a>
</g>
</g>
<!-- 4315&#45;&gt;5959 -->
<g id="edge17" class="edge"><title>4315&#45;&gt;5959</title>
<path fill="none" stroke="black" d="M851.247,-966.52C802.234,-910.962 638.622,-725.503 589.299,-669.594"/>
</g>
<!-- 4682 -->
<g id="node20" class="node"><title>4682</title>
<g id="a_node20"><a xlink:title="6th_week">
<ellipse fill="#c81d25" stroke="black" cx="850.363" cy="-1532.19" rx="28.6953" ry="18"/>
<text text-anchor="middle" x="850.363" y="-1528.49" font-family="Times,serif" font-size="14.00">4682</text>
</a>
</g>
</g>
<!-- 4350&#45;&gt;4682 -->
<g id="edge66" class="edge"><title>4350&#45;&gt;4682</title>
<path fill="none" stroke="black" d="M1132.77,-1365.97C1076.86,-1398.88 926.723,-1487.25 871.296,-1519.87"/>
</g>
<!-- 4714 -->
<g id="node21" class="node"><title>4714</title>
<g id="a_node21"><a xlink:title="6th_week">
<ellipse fill="#c81d25" stroke="black" cx="957.436" cy="-1282.57" rx="28.6953" ry="18"/>
<text text-anchor="middle" x="957.436" y="-1278.87" font-family="Times,serif" font-size="14.00">4714</text>
</a>
</g>
</g>
<!-- 4350&#45;&gt;4714 -->
<g id="edge31" class="edge"><title>4350&#45;&gt;4714</title>
<path fill="none" stroke="black" d="M1129.22,-1344.43C1091.49,-1330.84 1020.25,-1305.19 982.456,-1291.58"/>
</g>
<!-- 4896 -->
<g id="node23" class="node"><title>4896</title>
<g id="a_node23"><a xlink:title="6th_week">
<ellipse fill="#c81d25" stroke="black" cx="1261.39" cy="-1544.69" rx="28.6953" ry="18"/>
<text text-anchor="middle" x="1261.39" y="-1540.99" font-family="Times,serif" font-size="14.00">4896</text>
</a>
</g>
</g>
<!-- 4350&#45;&gt;4896 -->
<g id="edge32" class="edge"><title>4350&#45;&gt;4896</title>
<path fill="none" stroke="black" d="M1163.65,-1370.38C1183.95,-1406.59 1231.32,-1491.06 1251.74,-1527.48"/>
</g>
<!-- 6796 -->
<g id="node25" class="node"><title>6796</title>
<g id="a_node25"><a xlink:title="6th_week">
<ellipse fill="#c81d25" stroke="black" cx="970.862" cy="-1217.39" rx="28.6953" ry="18"/>
<text text-anchor="middle" x="970.862" y="-1213.69" font-family="Times,serif" font-size="14.00">6796</text>
</a>
</g>
</g>
<!-- 4350&#45;&gt;6796 -->
<g id="edge11" class="edge"><title>4350&#45;&gt;6796</title>
<path fill="none" stroke="black" d="M1135.55,-1339.61C1100.43,-1313.54 1024.66,-1257.31 989.493,-1231.21"/>
</g>
<!-- 7673 -->
<g id="node26" class="node"><title>7673</title>
<g id="a_node26"><a xlink:title="6th_week">
<ellipse fill="#c81d25" stroke="black" cx="1026.94" cy="-1168.62" rx="28.6953" ry="18"/>
<text text-anchor="middle" x="1026.94" y="-1164.92" font-family="Times,serif" font-size="14.00">7673</text>
</a>
</g>
</g>
<!-- 4350&#45;&gt;7673 -->
<g id="edge12" class="edge"><title>4350&#45;&gt;7673</title>
<path fill="none" stroke="black" d="M1142.62,-1336.68C1118.41,-1301.5 1062.45,-1220.2 1038.34,-1185.17"/>
</g>
<!-- 7698 -->
<g id="node27" class="node"><title>7698</title>
<g id="a_node27"><a xlink:title="6th_week">
<ellipse fill="#c81d25" stroke="black" cx="1007.57" cy="-1473.23" rx="28.6953" ry="18"/>
<text text-anchor="middle" x="1007.57" y="-1469.53" font-family="Times,serif" font-size="14.00">7698</text>
</a>
</g>
</g>
<!-- 4350&#45;&gt;7698 -->
<g id="edge77" class="edge"><title>4350&#45;&gt;7698</title>
<path fill="none" stroke="black" d="M1136.45,-1367.86C1108.28,-1390.89 1053.52,-1435.66 1025.31,-1458.72"/>
</g>
<!-- 7741 -->
<g id="node28" class="node"><title>7741</title>
<g id="a_node28"><a xlink:title="6th_week">
<ellipse fill="#c81d25" stroke="black" cx="1013.84" cy="-1371.73" rx="28.6953" ry="18"/>
<text text-anchor="middle" x="1013.84" y="-1368.03" font-family="Times,serif" font-size="14.00">7741</text>
</a>
</g>
</g>
<!-- 4350&#45;&gt;7741 -->
<g id="edge63" class="edge"><title>4350&#45;&gt;7741</title>
<path fill="none" stroke="black" d="M1126.08,-1357.07C1101.61,-1360.27 1066.3,-1364.88 1041.84,-1368.07"/>
</g>
<!-- 10775 -->
<g id="node36" class="node"><title>10775</title>
<g id="a_node36"><a xlink:title="6th_week">
<ellipse fill="#c81d25" stroke="black" cx="1414.08" cy="-1235.04" rx="32.4942" ry="18"/>
<text text-anchor="middle" x="1414.08" y="-1231.34" font-family="Times,serif" font-size="14.00">10775</text>
</a>
</g>
</g>
<!-- 4350&#45;&gt;10775 -->
<g id="edge46" class="edge"><title>4350&#45;&gt;10775</title>
<path fill="none" stroke="black" d="M1177.66,-1342.69C1226.53,-1320.44 1338.63,-1269.39 1388.89,-1246.5"/>
</g>
<!-- 10996 -->
<g id="node39" class="node"><title>10996</title>
<g id="a_node39"><a xlink:title="6th_week">
<ellipse fill="#c81d25" stroke="black" cx="1317.72" cy="-1498.39" rx="32.4942" ry="18"/>
<text text-anchor="middle" x="1317.72" y="-1494.69" font-family="Times,serif" font-size="14.00">10996</text>
</a>
</g>
</g>
<!-- 4350&#45;&gt;10996 -->
<g id="edge4" class="edge"><title>4350&#45;&gt;10996</title>
<path fill="none" stroke="black" d="M1170.72,-1368.1C1201.83,-1395.68 1268.65,-1454.9 1300.35,-1483"/>
</g>
<!-- 4350&#45;&gt;11324 -->
<g id="edge22" class="edge"><title>4350&#45;&gt;11324</title>
<path fill="none" stroke="black" d="M1157.03,-1335.49C1166,-1279.95 1193.31,-1111.01 1202.32,-1055.2"/>
</g>
<!-- 12963 -->
<g id="node43" class="node"><title>12963</title>
<g id="a_node43"><a xlink:title="6th_week">
<ellipse fill="#c81d25" stroke="black" cx="1107.47" cy="-1174.51" rx="32.4942" ry="18"/>
<text text-anchor="middle" x="1107.47" y="-1170.81" font-family="Times,serif" font-size="14.00">12963</text>
</a>
</g>
</g>
<!-- 4350&#45;&gt;12963 -->
<g id="edge51" class="edge"><title>4350&#45;&gt;12963</title>
<path fill="none" stroke="black" d="M1149.49,-1335.6C1140.57,-1301.39 1121.13,-1226.86 1112.17,-1192.51"/>
</g>
<!-- 13251 -->
<g id="node45" class="node"><title>13251</title>
<g id="a_node45"><a xlink:title="6th_week">
<ellipse fill="#c81d25" stroke="black" cx="1380.23" cy="-1376.36" rx="32.4942" ry="18"/>
<text text-anchor="middle" x="1380.23" y="-1372.66" font-family="Times,serif" font-size="14.00">13251</text>
</a>
</g>
</g>
<!-- 4350&#45;&gt;13251 -->
<g id="edge9" class="edge"><title>4350&#45;&gt;13251</title>
<path fill="none" stroke="black" d="M1182.77,-1356.31C1225.07,-1360.61 1304.01,-1368.62 1348.18,-1373.11"/>
</g>
<!-- 13257 -->
<g id="node46" class="node"><title>13257</title>
<g id="a_node46"><a xlink:title="6th_week">
<ellipse fill="#c81d25" stroke="black" cx="1183.17" cy="-1536.28" rx="32.4942" ry="18"/>
<text text-anchor="middle" x="1183.17" y="-1532.58" font-family="Times,serif" font-size="14.00">13257</text>
</a>
</g>
</g>
<!-- 4350&#45;&gt;13257 -->
<g id="edge65" class="edge"><title>4350&#45;&gt;13257</title>
<path fill="none" stroke="black" d="M1157.02,-1371.61C1162.59,-1406.66 1174.74,-1483.15 1180.29,-1518.15"/>
</g>
<!-- 14885 -->
<g id="node49" class="node"><title>14885</title>
<g id="a_node49"><a xlink:title="6th_week">
<ellipse fill="#c81d25" stroke="black" cx="1475.44" cy="-1301.61" rx="32.4942" ry="18"/>
<text text-anchor="middle" x="1475.44" y="-1297.91" font-family="Times,serif" font-size="14.00">14885</text>
</a>
</g>
</g>
<!-- 4350&#45;&gt;14885 -->
<g id="edge21" class="edge"><title>4350&#45;&gt;14885</title>
<path fill="none" stroke="black" d="M1182.09,-1348.9C1241.78,-1339.27 1381.38,-1316.77 1444.03,-1306.67"/>
</g>
<!-- 15287 -->
<g id="node51" class="node"><title>15287</title>
<g id="a_node51"><a xlink:title="6th_week">
<ellipse fill="#c81d25" stroke="black" cx="1095.24" cy="-1123.34" rx="32.4942" ry="18"/>
<text text-anchor="middle" x="1095.24" y="-1119.64" font-family="Times,serif" font-size="14.00">15287</text>
</a>
</g>
</g>
<!-- 4350&#45;&gt;15287 -->
<g id="edge41" class="edge"><title>4350&#45;&gt;15287</title>
<path fill="none" stroke="black" d="M1149.51,-1335.35C1138.5,-1292.34 1110.83,-1184.23 1099.84,-1141.31"/>
</g>
<!-- 15803 -->
<g id="node54" class="node"><title>15803</title>
<g id="a_node54"><a xlink:title="6th_week">
<ellipse fill="#c81d25" stroke="black" cx="868.801" cy="-1254.04" rx="32.4942" ry="18"/>
<text text-anchor="middle" x="868.801" y="-1250.34" font-family="Times,serif" font-size="14.00">15803</text>
</a>
</g>
</g>
<!-- 4350&#45;&gt;15803 -->
<g id="edge52" class="edge"><title>4350&#45;&gt;15803</title>
<path fill="none" stroke="black" d="M1128.81,-1344.58C1075.48,-1326.01 951.969,-1283 896.567,-1263.71"/>
</g>
<!-- 15908 -->
<g id="node55" class="node"><title>15908</title>
<g id="a_node55"><a xlink:title="6th_week">
<ellipse fill="#c81d25" stroke="black" cx="923.536" cy="-1593.14" rx="32.4942" ry="18"/>
<text text-anchor="middle" x="923.536" y="-1589.44" font-family="Times,serif" font-size="14.00">15908</text>
</a>
</g>
</g>
<!-- 4350&#45;&gt;15908 -->
<g id="edge64" class="edge"><title>4350&#45;&gt;15908</title>
<path fill="none" stroke="black" d="M1139,-1369.13C1097.32,-1412.47 981.13,-1533.27 939.024,-1577.04"/>
</g>
<!-- 16027 -->
<g id="node56" class="node"><title>16027</title>
<g id="a_node56"><a xlink:title="6th_week">
<ellipse fill="#c81d25" stroke="black" cx="1184.34" cy="-1604.82" rx="32.4942" ry="18"/>
<text text-anchor="middle" x="1184.34" y="-1601.12" font-family="Times,serif" font-size="14.00">16027</text>
</a>
</g>
</g>
<!-- 4350&#45;&gt;16027 -->
<g id="edge38" class="edge"><title>4350&#45;&gt;16027</title>
<path fill="none" stroke="black" d="M1156.31,-1371.48C1161.87,-1417.76 1176.56,-1540.1 1182.15,-1586.56"/>
</g>
<!-- 4350&#45;&gt;18246 -->
<g id="edge34" class="edge"><title>4350&#45;&gt;18246</title>
<path fill="none" stroke="black" d="M1144.79,-1370.79C1116.88,-1422.7 1034.35,-1576.2 1006.51,-1627.99"/>
</g>
<!-- 18604 -->
<g id="node65" class="node"><title>18604</title>
<g id="a_node65"><a xlink:title="6th_week">
<ellipse fill="#c81d25" stroke="black" cx="1315.49" cy="-1256.71" rx="32.4942" ry="18"/>
<text text-anchor="middle" x="1315.49" y="-1253.01" font-family="Times,serif" font-size="14.00">18604</text>
</a>
</g>
</g>
<!-- 4350&#45;&gt;18604 -->
<g id="edge35" class="edge"><title>4350&#45;&gt;18604</title>
<path fill="none" stroke="black" d="M1174.9,-1340.96C1205.37,-1322.7 1261.97,-1288.79 1293.25,-1270.04"/>
</g>
<!-- 19942 -->
<g id="node66" class="node"><title>19942</title>
<g id="a_node66"><a xlink:title="6th_week">
<ellipse fill="#c81d25" stroke="black" cx="1083.8" cy="-1674.45" rx="32.4942" ry="18"/>
<text text-anchor="middle" x="1083.8" y="-1670.75" font-family="Times,serif" font-size="14.00">19942</text>
</a>
</g>
</g>
<!-- 4350&#45;&gt;19942 -->
<g id="edge73" class="edge"><title>4350&#45;&gt;19942</title>
<path fill="none" stroke="black" d="M1150.15,-1371.58C1137.77,-1428.09 1100.06,-1600.23 1087.74,-1656.47"/>
</g>
<!-- 20028 -->
<g id="node67" class="node"><title>20028</title>
<g id="a_node67"><a xlink:title="6th_week">
<ellipse fill="#c81d25" stroke="black" cx="1297.62" cy="-1626.67" rx="32.4942" ry="18"/>
<text text-anchor="middle" x="1297.62" y="-1622.97" font-family="Times,serif" font-size="14.00">20028</text>
</a>
</g>
</g>
<!-- 4350&#45;&gt;20028 -->
<g id="edge10" class="edge"><title>4350&#45;&gt;20028</title>
<path fill="none" stroke="black" d="M1163.11,-1370.5C1188.82,-1419.46 1262.53,-1559.85 1288.46,-1609.23"/>
</g>
<!-- 21283 -->
<g id="node68" class="node"><title>21283</title>
<g id="a_node68"><a xlink:title="6th_week">
<ellipse fill="#c81d25" stroke="black" cx="1370.56" cy="-1448.73" rx="32.4942" ry="18"/>
<text text-anchor="middle" x="1370.56" y="-1445.03" font-family="Times,serif" font-size="14.00">21283</text>
</a>
</g>
</g>
<!-- 4350&#45;&gt;21283 -->
<g id="edge18" class="edge"><title>4350&#45;&gt;21283</title>
<path fill="none" stroke="black" d="M1177.71,-1363.79C1218.68,-1381.83 1302.7,-1418.84 1345.02,-1437.48"/>
</g>
<!-- 23278 -->
<g id="node71" class="node"><title>23278</title>
<g id="a_node71"><a xlink:title="6th_week">
<ellipse fill="#c81d25" stroke="black" cx="925.142" cy="-1433.22" rx="32.4942" ry="18"/>
<text text-anchor="middle" x="925.142" y="-1429.52" font-family="Times,serif" font-size="14.00">23278</text>
</a>
</g>
</g>
<!-- 4350&#45;&gt;23278 -->
<g id="edge58" class="edge"><title>4350&#45;&gt;23278</title>
<path fill="none" stroke="black" d="M1128.75,-1362.25C1085.43,-1377.35 997.578,-1407.97 952.771,-1423.59"/>
</g>
<!-- 23354 -->
<g id="node72" class="node"><title>23354</title>
<g id="a_node72"><a xlink:title="6th_week">
<ellipse fill="#c81d25" stroke="black" cx="1367.82" cy="-1160.25" rx="32.4942" ry="18"/>
<text text-anchor="middle" x="1367.82" y="-1156.55" font-family="Times,serif" font-size="14.00">23354</text>
</a>
</g>
</g>
<!-- 4350&#45;&gt;23354 -->
<g id="edge16" class="edge"><title>4350&#45;&gt;23354</title>
<path fill="none" stroke="black" d="M1170.55,-1338.57C1210.13,-1302.79 1310.52,-1212.04 1350.76,-1175.67"/>
</g>
<!-- 23505 -->
<g id="node73" class="node"><title>23505</title>
<g id="a_node73"><a xlink:title="6th_week">
<ellipse fill="#c81d25" stroke="black" cx="1352.73" cy="-1313.46" rx="32.4942" ry="18"/>
<text text-anchor="middle" x="1352.73" y="-1309.76" font-family="Times,serif" font-size="14.00">23505</text>
</a>
</g>
</g>
<!-- 4350&#45;&gt;23505 -->
<g id="edge43" class="edge"><title>4350&#45;&gt;23505</title>
<path fill="none" stroke="black" d="M1181.75,-1347.85C1218.62,-1340.43 1283.74,-1327.33 1322.09,-1319.62"/>
</g>
<!-- 23665 -->
<g id="node76" class="node"><title>23665</title>
<g id="a_node76"><a xlink:title="6th_week">
<ellipse fill="#c81d25" stroke="black" cx="1014.19" cy="-1540.86" rx="32.4942" ry="18"/>
<text text-anchor="middle" x="1014.19" y="-1537.16" font-family="Times,serif" font-size="14.00">23665</text>
</a>
</g>
</g>
<!-- 4350&#45;&gt;23665 -->
<g id="edge37" class="edge"><title>4350&#45;&gt;23665</title>
<path fill="none" stroke="black" d="M1141.96,-1369.71C1115.56,-1405.07 1053.28,-1488.49 1026.64,-1524.18"/>
</g>
<!-- 24108 -->
<g id="node78" class="node"><title>24108</title>
<g id="a_node78"><a xlink:title="6th_week">
<ellipse fill="#c81d25" stroke="black" cx="1271.42" cy="-1200.41" rx="32.4942" ry="18"/>
<text text-anchor="middle" x="1271.42" y="-1196.71" font-family="Times,serif" font-size="14.00">24108</text>
</a>
</g>
</g>
<!-- 4350&#45;&gt;24108 -->
<g id="edge72" class="edge"><title>4350&#45;&gt;24108</title>
<path fill="none" stroke="black" d="M1166.69,-1337.03C1189.14,-1307.74 1235.96,-1246.67 1258.6,-1217.13"/>
</g>
<!-- 12863 -->
<g id="node42" class="node"><title>12863</title>
<g id="a_node42"><a xlink:title="6th_week">
<ellipse fill="#c81d25" stroke="black" cx="603.035" cy="-1625.04" rx="32.4942" ry="18"/>
<text text-anchor="middle" x="603.035" y="-1621.34" font-family="Times,serif" font-size="14.00">12863</text>
</a>
</g>
</g>
<!-- 4682&#45;&gt;12863 -->
<g id="edge30" class="edge"><title>4682&#45;&gt;12863</title>
<path fill="none" stroke="black" d="M825.744,-1541.43C779.191,-1558.91 678.598,-1596.67 630.17,-1614.85"/>
</g>
<!-- 14155 -->
<g id="node47" class="node"><title>14155</title>
<g id="a_node47"><a xlink:title="6th_week">
<ellipse fill="#c81d25" stroke="black" cx="641.581" cy="-1695.04" rx="32.4942" ry="18"/>
<text text-anchor="middle" x="641.581" y="-1691.34" font-family="Times,serif" font-size="14.00">14155</text>
</a>
</g>
</g>
<!-- 4682&#45;&gt;14155 -->
<g id="edge27" class="edge"><title>4682&#45;&gt;14155</title>
<path fill="none" stroke="black" d="M832.2,-1546.36C792.913,-1577 700.369,-1649.19 660.451,-1680.32"/>
</g>
<!-- 9023 -->
<g id="node33" class="node"><title>9023</title>
<g id="a_node33"><a xlink:title="6th_week">
<ellipse fill="#c81d25" stroke="black" cx="381.986" cy="-421.795" rx="28.6953" ry="18"/>
<text text-anchor="middle" x="381.986" y="-418.095" font-family="Times,serif" font-size="14.00">9023</text>
</a>
</g>
</g>
<!-- 5959&#45;&gt;9023 -->
<g id="edge28" class="edge"><title>5959&#45;&gt;9023</title>
<path fill="none" stroke="black" d="M561.526,-637.212C525.982,-594.565 430.532,-480.041 395.294,-437.762"/>
</g>
<!-- 12279 -->
<g id="node41" class="node"><title>12279</title>
<g id="a_node41"><a xlink:title="6th_week">
<ellipse fill="#c81d25" stroke="black" cx="379.262" cy="-615.438" rx="32.4942" ry="18"/>
<text text-anchor="middle" x="379.262" y="-611.738" font-family="Times,serif" font-size="14.00">12279</text>
</a>
</g>
</g>
<!-- 5959&#45;&gt;12279 -->
<g id="edge76" class="edge"><title>5959&#45;&gt;12279</title>
<path fill="none" stroke="black" d="M547.461,-648.132C511.191,-641.082 447.731,-628.747 409.99,-621.411"/>
</g>
<!-- 16634 -->
<g id="node60" class="node"><title>16634</title>
<g id="a_node60"><a xlink:title="6th_week">
<ellipse fill="#c81d25" stroke="black" cx="412.37" cy="-544.003" rx="32.4942" ry="18"/>
<text text-anchor="middle" x="412.37" y="-540.303" font-family="Times,serif" font-size="14.00">16634</text>
</a>
</g>
</g>
<!-- 5959&#45;&gt;16634 -->
<g id="edge62" class="edge"><title>5959&#45;&gt;16634</title>
<path fill="none" stroke="black" d="M555.476,-640.297C524.536,-619.478 464.703,-579.217 433.096,-557.949"/>
</g>
<!-- 18368 -->
<g id="node63" class="node"><title>18368</title>
<g id="a_node63"><a xlink:title="6th_week">
<ellipse fill="#c81d25" stroke="black" cx="552.679" cy="-454.233" rx="32.4942" ry="18"/>
<text text-anchor="middle" x="552.679" y="-450.533" font-family="Times,serif" font-size="14.00">18368</text>
</a>
</g>
</g>
<!-- 5959&#45;&gt;18368 -->
<g id="edge8" class="edge"><title>5959&#45;&gt;18368</title>
<path fill="none" stroke="black" d="M573.076,-635.47C568.817,-597.627 558.99,-510.305 554.721,-472.372"/>
</g>
<!-- 23254 -->
<g id="node70" class="node"><title>23254</title>
<g id="a_node70"><a xlink:title="6th_week">
<ellipse fill="#c81d25" stroke="black" cx="477.62" cy="-485.082" rx="32.4942" ry="18"/>
<text text-anchor="middle" x="477.62" y="-481.382" font-family="Times,serif" font-size="14.00">23254</text>
</a>
</g>
</g>
<!-- 5959&#45;&gt;23254 -->
<g id="edge40" class="edge"><title>5959&#45;&gt;23254</title>
<path fill="none" stroke="black" d="M565.222,-636.43C546.634,-604.316 506.652,-535.24 487.822,-502.709"/>
</g>
<!-- 8474 -->
<g id="node30" class="node"><title>8474</title>
<g id="a_node30"><a xlink:title="6th_week">
<ellipse fill="#c81d25" stroke="black" cx="1768.2" cy="-1227.75" rx="28.6953" ry="18"/>
<text text-anchor="middle" x="1768.2" y="-1224.05" font-family="Times,serif" font-size="14.00">8474</text>
</a>
</g>
</g>
<!-- 8474&#45;&gt;14885 -->
<g id="edge42" class="edge"><title>8474&#45;&gt;14885</title>
<path fill="none" stroke="black" d="M1741.44,-1234.5C1686.68,-1248.32 1562.15,-1279.73 1505.05,-1294.14"/>
</g>
<!-- 15331 -->
<g id="node52" class="node"><title>15331</title>
<g id="a_node52"><a xlink:title="6th_week">
<ellipse fill="#c81d25" stroke="black" cx="1977.64" cy="-1173.92" rx="32.4942" ry="18"/>
<text text-anchor="middle" x="1977.64" y="-1170.22" font-family="Times,serif" font-size="14.00">15331</text>
</a>
</g>
</g>
<!-- 8474&#45;&gt;15331 -->
<g id="edge39" class="edge"><title>8474&#45;&gt;15331</title>
<path fill="none" stroke="black" d="M1794.73,-1220.93C1833.91,-1210.86 1907.04,-1192.07 1947.96,-1181.55"/>
</g>
<!-- 8894 -->
<g id="node32" class="node"><title>8894</title>
<g id="a_node32"><a xlink:title="6th_week">
<ellipse fill="#c81d25" stroke="black" cx="1646.74" cy="-1111.81" rx="28.6953" ry="18"/>
<text text-anchor="middle" x="1646.74" y="-1108.11" font-family="Times,serif" font-size="14.00">8894</text>
</a>
</g>
</g>
<!-- 8894&#45;&gt;10775 -->
<g id="edge59" class="edge"><title>8894&#45;&gt;10775</title>
<path fill="none" stroke="black" d="M1624.86,-1123.4C1581.08,-1146.59 1483.06,-1198.5 1437.8,-1222.47"/>
</g>
<!-- 9023&#45;&gt;10624 -->
<g id="edge69" class="edge"><title>9023&#45;&gt;10624</title>
<path fill="none" stroke="black" d="M368.477,-405.52C333.291,-363.129 239.087,-249.636 203.631,-206.92"/>
</g>
<!-- 10476 -->
<g id="node34" class="node"><title>10476</title>
<g id="a_node34"><a xlink:title="6th_week">
<ellipse fill="#c81d25" stroke="black" cx="1298.48" cy="-789.764" rx="32.4942" ry="18"/>
<text text-anchor="middle" x="1298.48" y="-786.064" font-family="Times,serif" font-size="14.00">10476</text>
</a>
</g>
</g>
<!-- 10476&#45;&gt;11324 -->
<g id="edge75" class="edge"><title>10476&#45;&gt;11324</title>
<path fill="none" stroke="black" d="M1291.78,-807.552C1274.58,-853.186 1229.03,-974.012 1211.9,-1019.47"/>
</g>
<!-- 23590 -->
<g id="node74" class="node"><title>23590</title>
<g id="a_node74"><a xlink:title="6th_week">
<ellipse fill="#c81d25" stroke="black" cx="32.0057" cy="-75.6657" rx="32.4942" ry="18"/>
<text text-anchor="middle" x="32.0057" y="-71.9657" font-family="Times,serif" font-size="14.00">23590</text>
</a>
</g>
</g>
<!-- 10624&#45;&gt;23590 -->
<g id="edge1" class="edge"><title>10624&#45;&gt;23590</title>
<path fill="none" stroke="black" d="M169.886,-175.829C139.518,-153.768 82.1095,-112.064 51.8383,-90.0731"/>
</g>
<!-- 12997 -->
<g id="node44" class="node"><title>12997</title>
<g id="a_node44"><a xlink:title="6th_week">
<ellipse fill="#c81d25" stroke="black" cx="766.69" cy="-1767.89" rx="32.4942" ry="18"/>
<text text-anchor="middle" x="766.69" y="-1764.19" font-family="Times,serif" font-size="14.00">12997</text>
</a>
</g>
</g>
<!-- 12997&#45;&gt;15908 -->
<g id="edge3" class="edge"><title>12997&#45;&gt;15908</title>
<path fill="none" stroke="black" d="M781.164,-1751.76C810.968,-1718.56 878.9,-1642.87 908.868,-1609.48"/>
</g>
<!-- 15678 -->
<g id="node53" class="node"><title>15678</title>
<g id="a_node53"><a xlink:title="6th_week">
<ellipse fill="#c81d25" stroke="black" cx="1445.09" cy="-1849.09" rx="32.4942" ry="18"/>
<text text-anchor="middle" x="1445.09" y="-1845.39" font-family="Times,serif" font-size="14.00">15678</text>
</a>
</g>
</g>
<!-- 15678&#45;&gt;20028 -->
<g id="edge15" class="edge"><title>15678&#45;&gt;20028</title>
<path fill="none" stroke="black" d="M1433.76,-1832C1406.31,-1790.6 1336.47,-1685.27 1308.98,-1643.81"/>
</g>
<!-- 18479 -->
<g id="node64" class="node"><title>18479</title>
<g id="a_node64"><a xlink:title="6th_week">
<ellipse fill="#c81d25" stroke="black" cx="625.021" cy="-1166.64" rx="32.4942" ry="18"/>
<text text-anchor="middle" x="625.021" y="-1162.94" font-family="Times,serif" font-size="14.00">18479</text>
</a>
</g>
</g>
<!-- 15803&#45;&gt;18479 -->
<g id="edge56" class="edge"><title>15803&#45;&gt;18479</title>
<path fill="none" stroke="black" d="M841.31,-1244.18C794.366,-1227.35 699.287,-1193.27 652.412,-1176.46"/>
</g>
<!-- 16471 -->
<g id="node59" class="node"><title>16471</title>
<g id="a_node59"><a xlink:title="6th_week">
<ellipse fill="#c81d25" stroke="black" cx="1565.77" cy="-975.712" rx="32.4942" ry="18"/>
<text text-anchor="middle" x="1565.77" y="-972.012" font-family="Times,serif" font-size="14.00">16471</text>
</a>
</g>
</g>
<!-- 16471&#45;&gt;23354 -->
<g id="edge71" class="edge"><title>16471&#45;&gt;23354</title>
<path fill="none" stroke="black" d="M1548.9,-991.446C1511.5,-1026.31 1422.01,-1109.73 1384.65,-1144.55"/>
</g>
<!-- 23650 -->
<g id="node75" class="node"><title>23650</title>
<g id="a_node75"><a xlink:title="6th_week">
<ellipse fill="#c81d25" stroke="black" cx="1016.53" cy="-1894.8" rx="32.4942" ry="18"/>
<text text-anchor="middle" x="1016.53" y="-1891.1" font-family="Times,serif" font-size="14.00">23650</text>
</a>
</g>
</g>
<!-- 19942&#45;&gt;23650 -->
<g id="edge5" class="edge"><title>19942&#45;&gt;23650</title>
<path fill="none" stroke="black" d="M1078.3,-1692.48C1065.65,-1733.9 1034.64,-1835.46 1022.02,-1876.83"/>
</g>
</g>
</svg>
