<?xml version="1.0" encoding="UTF-8" standalone="no"?>
<!DOCTYPE svg PUBLIC "-//W3C//DTD SVG 1.1//EN"
 "http://www.w3.org/Graphics/SVG/1.1/DTD/svg11.dtd">
<!-- Generated by graphviz version 2.38.0 (20140413.2041)
 -->
<!-- Title: %3 Pages: 1 -->
<svg width="1368pt" height="2403pt"
 viewBox="0.00 0.00 1368.00 2403.00" xmlns="http://www.w3.org/2000/svg" xmlns:xlink="http://www.w3.org/1999/xlink">
<g id="graph0" class="graph" transform="scale(1 1) rotate(0) translate(4 2399)">
<title>%3</title>
<polygon fill="white" stroke="none" points="-4,4 -4,-2399 1364,-2399 1364,4 -4,4"/>
<!-- 60 -->
<g id="node1" class="node"><title>60</title>
<g id="a_node1"><a xlink:title="6th_week">
<ellipse fill="#c81d25" stroke="black" cx="477.227" cy="-716.579" rx="27" ry="18"/>
<text text-anchor="middle" x="477.227" y="-712.879" font-family="Times,serif" font-size="14.00">60</text>
</a>
</g>
</g>
<!-- 10478 -->
<g id="node29" class="node"><title>10478</title>
<g id="a_node29"><a xlink:title="6th_week">
<ellipse fill="#c81d25" stroke="black" cx="601.576" cy="-1027.9" rx="32.4942" ry="18"/>
<text text-anchor="middle" x="601.576" y="-1024.2" font-family="Times,serif" font-size="14.00">10478</text>
</a>
</g>
</g>
<!-- 60&#45;&gt;10478 -->
<g id="edge2" class="edge"><title>60&#45;&gt;10478</title>
<path fill="none" stroke="black" d="M484.269,-734.209C506.104,-788.877 572.518,-955.152 594.458,-1010.08"/>
</g>
<!-- 13143 -->
<g id="node38" class="node"><title>13143</title>
<g id="a_node38"><a xlink:title="6th_week">
<ellipse fill="#c81d25" stroke="black" cx="359.372" cy="-416.337" rx="32.4942" ry="18"/>
<text text-anchor="middle" x="359.372" y="-412.637" font-family="Times,serif" font-size="14.00">13143</text>
</a>
</g>
</g>
<!-- 60&#45;&gt;13143 -->
<g id="edge43" class="edge"><title>60&#45;&gt;13143</title>
<path fill="none" stroke="black" d="M470.381,-699.139C449.6,-646.199 387.386,-487.705 366.385,-434.203"/>
</g>
<!-- 577 -->
<g id="node2" class="node"><title>577</title>
<g id="a_node2"><a xlink:title="6th_week">
<ellipse fill="#c81d25" stroke="black" cx="1085.03" cy="-1717.13" rx="27" ry="18"/>
<text text-anchor="middle" x="1085.03" y="-1713.43" font-family="Times,serif" font-size="14.00">577</text>
</a>
</g>
</g>
<!-- 7639 -->
<g id="node23" class="node"><title>7639</title>
<g id="a_node23"><a xlink:title="6th_week">
<ellipse fill="#c81d25" stroke="black" cx="880.355" cy="-1717.55" rx="28.6953" ry="18"/>
<text text-anchor="middle" x="880.355" y="-1713.85" font-family="Times,serif" font-size="14.00">7639</text>
</a>
</g>
</g>
<!-- 577&#45;&gt;7639 -->
<g id="edge41" class="edge"><title>577&#45;&gt;7639</title>
<path fill="none" stroke="black" d="M1057.85,-1717.18C1019.14,-1717.26 948.447,-1717.41 908.965,-1717.49"/>
</g>
<!-- 9846 -->
<g id="node28" class="node"><title>9846</title>
<g id="a_node28"><a xlink:title="6th_week">
<ellipse fill="#c81d25" stroke="black" cx="1279.7" cy="-1749.02" rx="28.6953" ry="18"/>
<text text-anchor="middle" x="1279.7" y="-1745.32" font-family="Times,serif" font-size="14.00">9846</text>
</a>
</g>
</g>
<!-- 577&#45;&gt;9846 -->
<g id="edge10" class="edge"><title>577&#45;&gt;9846</title>
<path fill="none" stroke="black" d="M1111.28,-1721.43C1148.02,-1727.45 1214.47,-1738.33 1251.98,-1744.47"/>
</g>
<!-- 671 -->
<g id="node3" class="node"><title>671</title>
<g id="a_node3"><a xlink:title="6th_week">
<ellipse fill="#c81d25" stroke="black" cx="629.949" cy="-1823.73" rx="27" ry="18"/>
<text text-anchor="middle" x="629.949" y="-1820.03" font-family="Times,serif" font-size="14.00">671</text>
</a>
</g>
</g>
<!-- 1684 -->
<g id="node7" class="node"><title>1684</title>
<g id="a_node7"><a xlink:title="6th_week">
<ellipse fill="#c81d25" stroke="black" cx="520.818" cy="-1956.42" rx="28.6953" ry="18"/>
<text text-anchor="middle" x="520.818" y="-1952.72" font-family="Times,serif" font-size="14.00">1684</text>
</a>
</g>
</g>
<!-- 671&#45;&gt;1684 -->
<g id="edge28" class="edge"><title>671&#45;&gt;1684</title>
<path fill="none" stroke="black" d="M616.785,-1839.74C595.81,-1865.24 555.033,-1914.82 534.028,-1940.36"/>
</g>
<!-- 671&#45;&gt;7639 -->
<g id="edge35" class="edge"><title>671&#45;&gt;7639</title>
<path fill="none" stroke="black" d="M653.058,-1813.93C700.519,-1793.81 808.543,-1748 856.571,-1727.64"/>
</g>
<!-- 20661 -->
<g id="node62" class="node"><title>20661</title>
<g id="a_node62"><a xlink:title="6th_week">
<ellipse fill="#c81d25" stroke="black" cx="430.111" cy="-1858.01" rx="32.4942" ry="18"/>
<text text-anchor="middle" x="430.111" y="-1854.31" font-family="Times,serif" font-size="14.00">20661</text>
</a>
</g>
</g>
<!-- 671&#45;&gt;20661 -->
<g id="edge45" class="edge"><title>671&#45;&gt;20661</title>
<path fill="none" stroke="black" d="M603.412,-1828.28C566.677,-1834.58 500.449,-1845.95 461.365,-1852.65"/>
</g>
<!-- 20980 -->
<g id="node63" class="node"><title>20980</title>
<g id="a_node63"><a xlink:title="6th_week">
<ellipse fill="#c81d25" stroke="black" cx="417.548" cy="-1943.12" rx="32.4942" ry="18"/>
<text text-anchor="middle" x="417.548" y="-1939.42" font-family="Times,serif" font-size="14.00">20980</text>
</a>
</g>
</g>
<!-- 671&#45;&gt;20980 -->
<g id="edge30" class="edge"><title>671&#45;&gt;20980</title>
<path fill="none" stroke="black" d="M609.197,-1835.39C569.321,-1857.81 482.265,-1906.74 440.627,-1930.15"/>
</g>
<!-- 801 -->
<g id="node4" class="node"><title>801</title>
<g id="a_node4"><a xlink:title="6th_week">
<ellipse fill="#c81d25" stroke="black" cx="1275.92" cy="-1859.37" rx="27" ry="18"/>
<text text-anchor="middle" x="1275.92" y="-1855.67" font-family="Times,serif" font-size="14.00">801</text>
</a>
</g>
</g>
<!-- 14803 -->
<g id="node44" class="node"><title>14803</title>
<g id="a_node44"><a xlink:title="6th_week">
<ellipse fill="#c81d25" stroke="black" cx="1086.07" cy="-1783.05" rx="32.4942" ry="18"/>
<text text-anchor="middle" x="1086.07" y="-1779.35" font-family="Times,serif" font-size="14.00">14803</text>
</a>
</g>
</g>
<!-- 801&#45;&gt;14803 -->
<g id="edge19" class="edge"><title>801&#45;&gt;14803</title>
<path fill="none" stroke="black" d="M1252.64,-1850.02C1217.19,-1835.77 1149.88,-1808.71 1112.6,-1793.72"/>
</g>
<!-- 1234 -->
<g id="node5" class="node"><title>1234</title>
<g id="a_node5"><a xlink:title="6th_week">
<ellipse fill="#c81d25" stroke="black" cx="832.55" cy="-1524.85" rx="28.6953" ry="18"/>
<text text-anchor="middle" x="832.55" y="-1521.15" font-family="Times,serif" font-size="14.00">1234</text>
</a>
</g>
</g>
<!-- 1234&#45;&gt;7639 -->
<g id="edge20" class="edge"><title>1234&#45;&gt;7639</title>
<path fill="none" stroke="black" d="M837.047,-1542.98C846.182,-1579.8 866.809,-1662.95 875.904,-1699.61"/>
</g>
<!-- 1311 -->
<g id="node6" class="node"><title>1311</title>
<g id="a_node6"><a xlink:title="6th_week">
<ellipse fill="#c81d25" stroke="black" cx="770.385" cy="-1943.96" rx="28.6953" ry="18"/>
<text text-anchor="middle" x="770.385" y="-1940.26" font-family="Times,serif" font-size="14.00">1311</text>
</a>
</g>
</g>
<!-- 6113 -->
<g id="node21" class="node"><title>6113</title>
<g id="a_node21"><a xlink:title="6th_week">
<ellipse fill="#c81d25" stroke="black" cx="758.503" cy="-2144.34" rx="28.6953" ry="18"/>
<text text-anchor="middle" x="758.503" y="-2140.64" font-family="Times,serif" font-size="14.00">6113</text>
</a>
</g>
</g>
<!-- 1311&#45;&gt;6113 -->
<g id="edge32" class="edge"><title>1311&#45;&gt;6113</title>
<path fill="none" stroke="black" d="M769.309,-1962.1C767.053,-2000.15 761.846,-2087.96 759.584,-2126.1"/>
</g>
<!-- 1311&#45;&gt;7639 -->
<g id="edge15" class="edge"><title>1311&#45;&gt;7639</title>
<path fill="none" stroke="black" d="M778.831,-1926.57C799.301,-1884.43 851.38,-1777.21 871.879,-1735"/>
</g>
<!-- 16711 -->
<g id="node51" class="node"><title>16711</title>
<g id="a_node51"><a xlink:title="6th_week">
<ellipse fill="#c81d25" stroke="black" cx="685.987" cy="-2142.33" rx="32.4942" ry="18"/>
<text text-anchor="middle" x="685.987" y="-2138.63" font-family="Times,serif" font-size="14.00">16711</text>
</a>
</g>
</g>
<!-- 1311&#45;&gt;16711 -->
<g id="edge8" class="edge"><title>1311&#45;&gt;16711</title>
<path fill="none" stroke="black" d="M762.895,-1961.57C746.879,-1999.21 709.461,-2087.16 693.46,-2124.76"/>
</g>
<!-- 17975 -->
<g id="node54" class="node"><title>17975</title>
<g id="a_node54"><a xlink:title="6th_week">
<ellipse fill="#c81d25" stroke="black" cx="630.567" cy="-2095.26" rx="32.4942" ry="18"/>
<text text-anchor="middle" x="630.567" y="-2091.56" font-family="Times,serif" font-size="14.00">17975</text>
</a>
</g>
</g>
<!-- 1311&#45;&gt;17975 -->
<g id="edge18" class="edge"><title>1311&#45;&gt;17975</title>
<path fill="none" stroke="black" d="M755.948,-1959.59C729.295,-1988.43 672.619,-2049.76 645.557,-2079.04"/>
</g>
<!-- 1750 -->
<g id="node8" class="node"><title>1750</title>
<g id="a_node8"><a xlink:title="6th_week">
<ellipse fill="#c81d25" stroke="black" cx="858.098" cy="-1873.47" rx="28.6953" ry="18"/>
<text text-anchor="middle" x="858.098" y="-1869.77" font-family="Times,serif" font-size="14.00">1750</text>
</a>
</g>
</g>
<!-- 1750&#45;&gt;7639 -->
<g id="edge64" class="edge"><title>1750&#45;&gt;7639</title>
<path fill="none" stroke="black" d="M860.695,-1855.28C864.984,-1825.24 873.497,-1765.59 877.775,-1735.63"/>
</g>
<!-- 2027 -->
<g id="node9" class="node"><title>2027</title>
<g id="a_node9"><a xlink:title="6th_week">
<ellipse fill="#c81d25" stroke="black" cx="730.857" cy="-1639.85" rx="28.6953" ry="18"/>
<text text-anchor="middle" x="730.857" y="-1636.15" font-family="Times,serif" font-size="14.00">2027</text>
</a>
</g>
</g>
<!-- 2027&#45;&gt;7639 -->
<g id="edge53" class="edge"><title>2027&#45;&gt;7639</title>
<path fill="none" stroke="black" d="M752.916,-1651.32C781.181,-1666.01 829.897,-1691.33 858.205,-1706.04"/>
</g>
<!-- 2267 -->
<g id="node10" class="node"><title>2267</title>
<g id="a_node10"><a xlink:title="6th_week">
<ellipse fill="#c81d25" stroke="black" cx="1076.55" cy="-2081.61" rx="28.6953" ry="18"/>
<text text-anchor="middle" x="1076.55" y="-2077.91" font-family="Times,serif" font-size="14.00">2267</text>
</a>
</g>
</g>
<!-- 5658 -->
<g id="node19" class="node"><title>5658</title>
<g id="a_node19"><a xlink:title="6th_week">
<ellipse fill="#c81d25" stroke="black" cx="1009.59" cy="-1898.24" rx="28.6953" ry="18"/>
<text text-anchor="middle" x="1009.59" y="-1894.54" font-family="Times,serif" font-size="14.00">5658</text>
</a>
</g>
</g>
<!-- 2267&#45;&gt;5658 -->
<g id="edge7" class="edge"><title>2267&#45;&gt;5658</title>
<path fill="none" stroke="black" d="M1070.13,-2064.02C1057.36,-2029.07 1028.92,-1951.17 1016.09,-1916.04"/>
</g>
<!-- 2402 -->
<g id="node11" class="node"><title>2402</title>
<g id="a_node11"><a xlink:title="6th_week">
<ellipse fill="#c81d25" stroke="black" cx="1167.51" cy="-2019.75" rx="28.6953" ry="18"/>
<text text-anchor="middle" x="1167.51" y="-2016.05" font-family="Times,serif" font-size="14.00">2402</text>
</a>
</g>
</g>
<!-- 2402&#45;&gt;5658 -->
<g id="edge21" class="edge"><title>2402&#45;&gt;5658</title>
<path fill="none" stroke="black" d="M1149.4,-2005.81C1119.1,-1982.49 1058.46,-1935.84 1027.98,-1912.39"/>
</g>
<!-- 2602 -->
<g id="node12" class="node"><title>2602</title>
<g id="a_node12"><a xlink:title="6th_week">
<ellipse fill="#c81d25" stroke="black" cx="899.644" cy="-1543.8" rx="28.6953" ry="18"/>
<text text-anchor="middle" x="899.644" y="-1540.1" font-family="Times,serif" font-size="14.00">2602</text>
</a>
</g>
</g>
<!-- 2602&#45;&gt;7639 -->
<g id="edge47" class="edge"><title>2602&#45;&gt;7639</title>
<path fill="none" stroke="black" d="M897.616,-1562.07C893.902,-1595.53 886.049,-1666.26 882.355,-1699.53"/>
</g>
<!-- 2865 -->
<g id="node13" class="node"><title>2865</title>
<g id="a_node13"><a xlink:title="6th_week">
<ellipse fill="#c81d25" stroke="black" cx="277.064" cy="-228.524" rx="28.6953" ry="18"/>
<text text-anchor="middle" x="277.064" y="-224.824" font-family="Times,serif" font-size="14.00">2865</text>
</a>
</g>
</g>
<!-- 3640 -->
<g id="node16" class="node"><title>3640</title>
<g id="a_node16"><a xlink:title="6th_week">
<ellipse fill="#c81d25" stroke="black" cx="205.149" cy="-60.4885" rx="28.6953" ry="18"/>
<text text-anchor="middle" x="205.149" y="-56.7885" font-family="Times,serif" font-size="14.00">3640</text>
</a>
</g>
</g>
<!-- 2865&#45;&gt;3640 -->
<g id="edge24" class="edge"><title>2865&#45;&gt;3640</title>
<path fill="none" stroke="black" d="M269.503,-210.859C255.656,-178.502 226.38,-110.097 212.608,-77.917"/>
</g>
<!-- 2865&#45;&gt;13143 -->
<g id="edge40" class="edge"><title>2865&#45;&gt;13143</title>
<path fill="none" stroke="black" d="M284.807,-246.193C300.494,-281.989 335.869,-362.708 351.589,-398.579"/>
</g>
<!-- 3390 -->
<g id="node14" class="node"><title>3390</title>
<g id="a_node14"><a xlink:title="6th_week">
<ellipse fill="#c81d25" stroke="black" cx="925.01" cy="-2169.5" rx="28.6953" ry="18"/>
<text text-anchor="middle" x="925.01" y="-2165.8" font-family="Times,serif" font-size="14.00">3390</text>
</a>
</g>
</g>
<!-- 13735 -->
<g id="node39" class="node"><title>13735</title>
<g id="a_node39"><a xlink:title="6th_week">
<ellipse fill="#c81d25" stroke="black" cx="924.522" cy="-1965.59" rx="32.4942" ry="18"/>
<text text-anchor="middle" x="924.522" y="-1961.89" font-family="Times,serif" font-size="14.00">13735</text>
</a>
</g>
</g>
<!-- 3390&#45;&gt;13735 -->
<g id="edge52" class="edge"><title>3390&#45;&gt;13735</title>
<path fill="none" stroke="black" d="M924.967,-2151.41C924.874,-2112.71 924.658,-2022.31 924.565,-1983.65"/>
</g>
<!-- 3636 -->
<g id="node15" class="node"><title>3636</title>
<g id="a_node15"><a xlink:title="6th_week">
<ellipse fill="#c81d25" stroke="black" cx="1118.63" cy="-1649.6" rx="28.6953" ry="18"/>
<text text-anchor="middle" x="1118.63" y="-1645.9" font-family="Times,serif" font-size="14.00">3636</text>
</a>
</g>
</g>
<!-- 3636&#45;&gt;7639 -->
<g id="edge65" class="edge"><title>3636&#45;&gt;7639</title>
<path fill="none" stroke="black" d="M1092.22,-1657.13C1046.3,-1670.23 952.27,-1697.04 906.52,-1710.09"/>
</g>
<!-- 14669 -->
<g id="node43" class="node"><title>14669</title>
<g id="a_node43"><a xlink:title="6th_week">
<ellipse fill="#c81d25" stroke="black" cx="1327.86" cy="-1652.07" rx="32.4942" ry="18"/>
<text text-anchor="middle" x="1327.86" y="-1648.37" font-family="Times,serif" font-size="14.00">14669</text>
</a>
</g>
</g>
<!-- 3636&#45;&gt;14669 -->
<g id="edge27" class="edge"><title>3636&#45;&gt;14669</title>
<path fill="none" stroke="black" d="M1147.28,-1649.94C1185.89,-1650.4 1254.46,-1651.2 1295.08,-1651.68"/>
</g>
<!-- 18611 -->
<g id="node56" class="node"><title>18611</title>
<g id="a_node56"><a xlink:title="6th_week">
<ellipse fill="#c81d25" stroke="black" cx="1313.05" cy="-1580.12" rx="32.4942" ry="18"/>
<text text-anchor="middle" x="1313.05" y="-1576.42" font-family="Times,serif" font-size="14.00">18611</text>
</a>
</g>
</g>
<!-- 3636&#45;&gt;18611 -->
<g id="edge61" class="edge"><title>3636&#45;&gt;18611</title>
<path fill="none" stroke="black" d="M1143.65,-1640.66C1180.16,-1627.61 1247.8,-1603.44 1285.62,-1589.93"/>
</g>
<!-- 3793 -->
<g id="node17" class="node"><title>3793</title>
<g id="a_node17"><a xlink:title="6th_week">
<ellipse fill="#c81d25" stroke="black" cx="929.622" cy="-1849.59" rx="28.6953" ry="18"/>
<text text-anchor="middle" x="929.622" y="-1845.89" font-family="Times,serif" font-size="14.00">3793</text>
</a>
</g>
</g>
<!-- 3793&#45;&gt;7639 -->
<g id="edge36" class="edge"><title>3793&#45;&gt;7639</title>
<path fill="none" stroke="black" d="M923.079,-1832.05C913.656,-1806.8 896.362,-1760.45 886.924,-1735.16"/>
</g>
<!-- 4738 -->
<g id="node18" class="node"><title>4738</title>
<g id="a_node18"><a xlink:title="6th_week">
<ellipse fill="#c81d25" stroke="black" cx="439.414" cy="-263.418" rx="28.6953" ry="18"/>
<text text-anchor="middle" x="439.414" y="-259.718" font-family="Times,serif" font-size="14.00">4738</text>
</a>
</g>
</g>
<!-- 4738&#45;&gt;13143 -->
<g id="edge39" class="edge"><title>4738&#45;&gt;13143</title>
<path fill="none" stroke="black" d="M430.388,-280.662C415.015,-310.032 383.922,-369.435 368.488,-398.921"/>
</g>
<!-- 5658&#45;&gt;7639 -->
<g id="edge17" class="edge"><title>5658&#45;&gt;7639</title>
<path fill="none" stroke="black" d="M997.66,-1881.56C973.041,-1847.14 916.846,-1768.57 892.252,-1734.19"/>
</g>
<!-- 6043 -->
<g id="node20" class="node"><title>6043</title>
<g id="a_node20"><a xlink:title="6th_week">
<ellipse fill="#c81d25" stroke="black" cx="1064.56" cy="-1548.12" rx="28.6953" ry="18"/>
<text text-anchor="middle" x="1064.56" y="-1544.42" font-family="Times,serif" font-size="14.00">6043</text>
</a>
</g>
</g>
<!-- 6043&#45;&gt;7639 -->
<g id="edge66" class="edge"><title>6043&#45;&gt;7639</title>
<path fill="none" stroke="black" d="M1048.22,-1563.16C1013.26,-1595.31 931.589,-1670.43 896.665,-1702.55"/>
</g>
<!-- 11391 -->
<g id="node32" class="node"><title>11391</title>
<g id="a_node32"><a xlink:title="6th_week">
<ellipse fill="#c81d25" stroke="black" cx="1197.41" cy="-1395.01" rx="32.4942" ry="18"/>
<text text-anchor="middle" x="1197.41" y="-1391.31" font-family="Times,serif" font-size="14.00">11391</text>
</a>
</g>
</g>
<!-- 6043&#45;&gt;11391 -->
<g id="edge26" class="edge"><title>6043&#45;&gt;11391</title>
<path fill="none" stroke="black" d="M1078.28,-1532.31C1103.6,-1503.13 1157.45,-1441.06 1183.16,-1411.43"/>
</g>
<!-- 16491 -->
<g id="node49" class="node"><title>16491</title>
<g id="a_node49"><a xlink:title="6th_week">
<ellipse fill="#c81d25" stroke="black" cx="1246.5" cy="-1455.25" rx="32.4942" ry="18"/>
<text text-anchor="middle" x="1246.5" y="-1451.55" font-family="Times,serif" font-size="14.00">16491</text>
</a>
</g>
</g>
<!-- 6043&#45;&gt;16491 -->
<g id="edge55" class="edge"><title>6043&#45;&gt;16491</title>
<path fill="none" stroke="black" d="M1086.87,-1536.74C1121.31,-1519.15 1187.15,-1485.54 1222.56,-1467.47"/>
</g>
<!-- 7179 -->
<g id="node22" class="node"><title>7179</title>
<g id="a_node22"><a xlink:title="6th_week">
<ellipse fill="#c81d25" stroke="black" cx="462.929" cy="-1627.63" rx="28.6953" ry="18"/>
<text text-anchor="middle" x="462.929" y="-1623.93" font-family="Times,serif" font-size="14.00">7179</text>
</a>
</g>
</g>
<!-- 20417 -->
<g id="node61" class="node"><title>20417</title>
<g id="a_node61"><a xlink:title="6th_week">
<ellipse fill="#c81d25" stroke="black" cx="653.642" cy="-1657.62" rx="32.4942" ry="18"/>
<text text-anchor="middle" x="653.642" y="-1653.92" font-family="Times,serif" font-size="14.00">20417</text>
</a>
</g>
</g>
<!-- 7179&#45;&gt;20417 -->
<g id="edge56" class="edge"><title>7179&#45;&gt;20417</title>
<path fill="none" stroke="black" d="M491.069,-1632.06C526.091,-1637.57 585.723,-1646.94 622.21,-1652.68"/>
</g>
<!-- 7981 -->
<g id="node24" class="node"><title>7981</title>
<g id="a_node24"><a xlink:title="6th_week">
<ellipse fill="#c81d25" stroke="black" cx="1043.92" cy="-1835.51" rx="28.6953" ry="18"/>
<text text-anchor="middle" x="1043.92" y="-1831.81" font-family="Times,serif" font-size="14.00">7981</text>
</a>
</g>
</g>
<!-- 7639&#45;&gt;7981 -->
<g id="edge37" class="edge"><title>7639&#45;&gt;7981</title>
<path fill="none" stroke="black" d="M899.438,-1731.31C930.956,-1754.04 993.523,-1799.16 1024.96,-1821.84"/>
</g>
<!-- 8896 -->
<g id="node26" class="node"><title>8896</title>
<g id="a_node26"><a xlink:title="6th_week">
<ellipse fill="#c81d25" stroke="black" cx="1017.96" cy="-1648.67" rx="28.6953" ry="18"/>
<text text-anchor="middle" x="1017.96" y="-1644.97" font-family="Times,serif" font-size="14.00">8896</text>
</a>
</g>
</g>
<!-- 7639&#45;&gt;8896 -->
<g id="edge42" class="edge"><title>7639&#45;&gt;8896</title>
<path fill="none" stroke="black" d="M902.769,-1706.33C928.357,-1693.52 969.967,-1672.69 995.551,-1659.88"/>
</g>
<!-- 12704 -->
<g id="node36" class="node"><title>12704</title>
<g id="a_node36"><a xlink:title="6th_week">
<ellipse fill="#c81d25" stroke="black" cx="726.471" cy="-1829.23" rx="32.4942" ry="18"/>
<text text-anchor="middle" x="726.471" y="-1825.53" font-family="Times,serif" font-size="14.00">12704</text>
</a>
</g>
</g>
<!-- 7639&#45;&gt;12704 -->
<g id="edge60" class="edge"><title>7639&#45;&gt;12704</title>
<path fill="none" stroke="black" d="M861.486,-1731.24C832.272,-1752.45 776.356,-1793.03 746.47,-1814.72"/>
</g>
<!-- 7639&#45;&gt;13735 -->
<g id="edge58" class="edge"><title>7639&#45;&gt;13735</title>
<path fill="none" stroke="black" d="M883.603,-1735.79C891.79,-1781.77 913.201,-1902.01 921.329,-1947.66"/>
</g>
<!-- 13825 -->
<g id="node40" class="node"><title>13825</title>
<g id="a_node40"><a xlink:title="6th_week">
<ellipse fill="#c81d25" stroke="black" cx="733.821" cy="-1359.94" rx="32.4942" ry="18"/>
<text text-anchor="middle" x="733.821" y="-1356.24" font-family="Times,serif" font-size="14.00">13825</text>
</a>
</g>
</g>
<!-- 7639&#45;&gt;13825 -->
<g id="edge59" class="edge"><title>7639&#45;&gt;13825</title>
<path fill="none" stroke="black" d="M873.088,-1699.82C848.141,-1638.93 766.146,-1438.83 741.132,-1377.78"/>
</g>
<!-- 14126 -->
<g id="node42" class="node"><title>14126</title>
<g id="a_node42"><a xlink:title="6th_week">
<ellipse fill="#c81d25" stroke="black" cx="819.529" cy="-1570.25" rx="32.4942" ry="18"/>
<text text-anchor="middle" x="819.529" y="-1566.55" font-family="Times,serif" font-size="14.00">14126</text>
</a>
</g>
</g>
<!-- 7639&#45;&gt;14126 -->
<g id="edge9" class="edge"><title>7639&#45;&gt;14126</title>
<path fill="none" stroke="black" d="M873.138,-1700.07C861.495,-1671.88 838.683,-1616.63 826.925,-1588.16"/>
</g>
<!-- 7639&#45;&gt;14803 -->
<g id="edge23" class="edge"><title>7639&#45;&gt;14803</title>
<path fill="none" stroke="black" d="M905.993,-1725.71C944.661,-1738.03 1017.64,-1761.26 1057.8,-1774.05"/>
</g>
<!-- 15456 -->
<g id="node47" class="node"><title>15456</title>
<g id="a_node47"><a xlink:title="6th_week">
<ellipse fill="#c81d25" stroke="black" cx="833.783" cy="-1826.27" rx="32.4942" ry="18"/>
<text text-anchor="middle" x="833.783" y="-1822.57" font-family="Times,serif" font-size="14.00">15456</text>
</a>
</g>
</g>
<!-- 7639&#45;&gt;15456 -->
<g id="edge29" class="edge"><title>7639&#45;&gt;15456</title>
<path fill="none" stroke="black" d="M872.872,-1735.02C864.233,-1755.19 850.098,-1788.18 841.402,-1808.49"/>
</g>
<!-- 17437 -->
<g id="node52" class="node"><title>17437</title>
<g id="a_node52"><a xlink:title="6th_week">
<ellipse fill="#c81d25" stroke="black" cx="716.267" cy="-1769.15" rx="32.4942" ry="18"/>
<text text-anchor="middle" x="716.267" y="-1765.45" font-family="Times,serif" font-size="14.00">17437</text>
</a>
</g>
</g>
<!-- 7639&#45;&gt;17437 -->
<g id="edge12" class="edge"><title>7639&#45;&gt;17437</title>
<path fill="none" stroke="black" d="M854.716,-1725.61C824.881,-1735 775.758,-1750.45 744.755,-1760.2"/>
</g>
<!-- 18826 -->
<g id="node57" class="node"><title>18826</title>
<g id="a_node57"><a xlink:title="6th_week">
<ellipse fill="#c81d25" stroke="black" cx="703.317" cy="-1708.34" rx="32.4942" ry="18"/>
<text text-anchor="middle" x="703.317" y="-1704.64" font-family="Times,serif" font-size="14.00">18826</text>
</a>
</g>
</g>
<!-- 7639&#45;&gt;18826 -->
<g id="edge50" class="edge"><title>7639&#45;&gt;18826</title>
<path fill="none" stroke="black" d="M851.517,-1716.05C819.771,-1714.4 768.857,-1711.75 735.747,-1710.02"/>
</g>
<!-- 19738 -->
<g id="node58" class="node"><title>19738</title>
<g id="a_node58"><a xlink:title="6th_week">
<ellipse fill="#c81d25" stroke="black" cx="710.927" cy="-1575.96" rx="32.4942" ry="18"/>
<text text-anchor="middle" x="710.927" y="-1572.26" font-family="Times,serif" font-size="14.00">19738</text>
</a>
</g>
</g>
<!-- 7639&#45;&gt;19738 -->
<g id="edge54" class="edge"><title>7639&#45;&gt;19738</title>
<path fill="none" stroke="black" d="M862.861,-1702.93C830.564,-1675.94 761.885,-1618.54 729.092,-1591.14"/>
</g>
<!-- 19931 -->
<g id="node60" class="node"><title>19931</title>
<g id="a_node60"><a xlink:title="6th_week">
<ellipse fill="#c81d25" stroke="black" cx="957.753" cy="-1497.03" rx="32.4942" ry="18"/>
<text text-anchor="middle" x="957.753" y="-1493.33" font-family="Times,serif" font-size="14.00">19931</text>
</a>
</g>
</g>
<!-- 7639&#45;&gt;19931 -->
<g id="edge67" class="edge"><title>7639&#45;&gt;19931</title>
<path fill="none" stroke="black" d="M886.558,-1699.88C901.05,-1658.59 936.999,-1556.16 951.52,-1514.79"/>
</g>
<!-- 7639&#45;&gt;20417 -->
<g id="edge31" class="edge"><title>7639&#45;&gt;20417</title>
<path fill="none" stroke="black" d="M853.904,-1710.56C811.27,-1699.29 727.647,-1677.18 683.144,-1665.42"/>
</g>
<!-- 21733 -->
<g id="node64" class="node"><title>21733</title>
<g id="a_node64"><a xlink:title="6th_week">
<ellipse fill="#c81d25" stroke="black" cx="980.757" cy="-1576.47" rx="32.4942" ry="18"/>
<text text-anchor="middle" x="980.757" y="-1572.77" font-family="Times,serif" font-size="14.00">21733</text>
</a>
</g>
</g>
<!-- 7639&#45;&gt;21733 -->
<g id="edge38" class="edge"><title>7639&#45;&gt;21733</title>
<path fill="none" stroke="black" d="M892.069,-1701.09C911.312,-1674.05 949.41,-1620.52 968.807,-1593.26"/>
</g>
<!-- 22220 -->
<g id="node65" class="node"><title>22220</title>
<g id="a_node65"><a xlink:title="6th_week">
<ellipse fill="#c81d25" stroke="black" cx="997.435" cy="-1774.07" rx="32.4942" ry="18"/>
<text text-anchor="middle" x="997.435" y="-1770.37" font-family="Times,serif" font-size="14.00">22220</text>
</a>
</g>
</g>
<!-- 7639&#45;&gt;22220 -->
<g id="edge51" class="edge"><title>7639&#45;&gt;22220</title>
<path fill="none" stroke="black" d="M903.207,-1728.58C923.171,-1738.22 952.09,-1752.18 972.616,-1762.09"/>
</g>
<!-- 12420 -->
<g id="node35" class="node"><title>12420</title>
<g id="a_node35"><a xlink:title="6th_week">
<ellipse fill="#c81d25" stroke="black" cx="1213.87" cy="-1949.17" rx="32.4942" ry="18"/>
<text text-anchor="middle" x="1213.87" y="-1945.47" font-family="Times,serif" font-size="14.00">12420</text>
</a>
</g>
</g>
<!-- 7981&#45;&gt;12420 -->
<g id="edge57" class="edge"><title>7981&#45;&gt;12420</title>
<path fill="none" stroke="black" d="M1063.75,-1848.77C1096.15,-1870.44 1160.12,-1913.22 1193.11,-1935.28"/>
</g>
<!-- 8091 -->
<g id="node25" class="node"><title>8091</title>
<g id="a_node25"><a xlink:title="6th_week">
<ellipse fill="#c81d25" stroke="black" cx="338.343" cy="-273.317" rx="28.6953" ry="18"/>
<text text-anchor="middle" x="338.343" y="-269.617" font-family="Times,serif" font-size="14.00">8091</text>
</a>
</g>
</g>
<!-- 8091&#45;&gt;13143 -->
<g id="edge48" class="edge"><title>8091&#45;&gt;13143</title>
<path fill="none" stroke="black" d="M341.007,-291.43C345.052,-318.941 352.698,-370.948 356.73,-398.371"/>
</g>
<!-- 9005 -->
<g id="node27" class="node"><title>9005</title>
<g id="a_node27"><a xlink:title="6th_week">
<ellipse fill="#c81d25" stroke="black" cx="577.303" cy="-1257.93" rx="28.6953" ry="18"/>
<text text-anchor="middle" x="577.303" y="-1254.23" font-family="Times,serif" font-size="14.00">9005</text>
</a>
</g>
</g>
<!-- 9005&#45;&gt;13825 -->
<g id="edge1" class="edge"><title>9005&#45;&gt;13825</title>
<path fill="none" stroke="black" d="M597.444,-1271.06C627.168,-1290.43 682.515,-1326.51 712.758,-1346.22"/>
</g>
<!-- 10478&#45;&gt;13825 -->
<g id="edge3" class="edge"><title>10478&#45;&gt;13825</title>
<path fill="none" stroke="black" d="M608.686,-1045.76C631.648,-1103.41 703.664,-1284.23 726.676,-1342"/>
</g>
<!-- 10701 -->
<g id="node30" class="node"><title>10701</title>
<g id="a_node30"><a xlink:title="6th_week">
<ellipse fill="#c81d25" stroke="black" cx="410.515" cy="-17.9155" rx="32.4942" ry="18"/>
<text text-anchor="middle" x="410.515" y="-14.2155" font-family="Times,serif" font-size="14.00">10701</text>
</a>
</g>
</g>
<!-- 14935 -->
<g id="node46" class="node"><title>14935</title>
<g id="a_node46"><a xlink:title="6th_week">
<ellipse fill="#c81d25" stroke="black" cx="391.393" cy="-206.562" rx="32.4942" ry="18"/>
<text text-anchor="middle" x="391.393" y="-202.862" font-family="Times,serif" font-size="14.00">14935</text>
</a>
</g>
</g>
<!-- 10701&#45;&gt;14935 -->
<g id="edge63" class="edge"><title>10701&#45;&gt;14935</title>
<path fill="none" stroke="black" d="M408.682,-36.0038C405.027,-72.0619 396.871,-152.516 393.221,-188.529"/>
</g>
<!-- 11285 -->
<g id="node31" class="node"><title>11285</title>
<g id="a_node31"><a xlink:title="6th_week">
<ellipse fill="#c81d25" stroke="black" cx="999.826" cy="-2206.6" rx="32.4942" ry="18"/>
<text text-anchor="middle" x="999.826" y="-2202.9" font-family="Times,serif" font-size="14.00">11285</text>
</a>
</g>
</g>
<!-- 11285&#45;&gt;13735 -->
<g id="edge62" class="edge"><title>11285&#45;&gt;13735</title>
<path fill="none" stroke="black" d="M994.166,-2188.48C980.176,-2143.71 944.096,-2028.24 930.145,-1983.59"/>
</g>
<!-- 13393 -->
<g id="node71" class="node"><title>13393</title>
<g id="a_node71"><a xlink:title="6th_week">
<ellipse fill="#c81d25" stroke="black" cx="1049.06" cy="-2377.26" rx="32.4942" ry="18"/>
<text text-anchor="middle" x="1049.06" y="-2373.56" font-family="Times,serif" font-size="14.00">13393</text>
</a>
</g>
</g>
<!-- 11285&#45;&gt;13393 -->
<g id="edge22" class="edge"><title>11285&#45;&gt;13393</title>
<path fill="none" stroke="black" d="M1005,-2224.54C1014.46,-2257.31 1034.42,-2326.51 1043.88,-2359.3"/>
</g>
<!-- 12335 -->
<g id="node33" class="node"><title>12335</title>
<g id="a_node33"><a xlink:title="6th_week">
<ellipse fill="#c81d25" stroke="black" cx="32.1847" cy="-186.534" rx="32.4942" ry="18"/>
<text text-anchor="middle" x="32.1847" y="-182.834" font-family="Times,serif" font-size="14.00">12335</text>
</a>
</g>
</g>
<!-- 14833 -->
<g id="node45" class="node"><title>14833</title>
<g id="a_node45"><a xlink:title="6th_week">
<ellipse fill="#c81d25" stroke="black" cx="180.852" cy="-300.535" rx="32.4942" ry="18"/>
<text text-anchor="middle" x="180.852" y="-296.835" font-family="Times,serif" font-size="14.00">14833</text>
</a>
</g>
</g>
<!-- 12335&#45;&gt;14833 -->
<g id="edge70" class="edge"><title>12335&#45;&gt;14833</title>
<path fill="none" stroke="black" d="M51.316,-201.204C79.862,-223.094 133.291,-264.064 161.794,-285.921"/>
</g>
<!-- 12397 -->
<g id="node34" class="node"><title>12397</title>
<g id="a_node34"><a xlink:title="6th_week">
<ellipse fill="#c81d25" stroke="black" cx="182.002" cy="-430.39" rx="32.4942" ry="18"/>
<text text-anchor="middle" x="182.002" y="-426.69" font-family="Times,serif" font-size="14.00">12397</text>
</a>
</g>
</g>
<!-- 12397&#45;&gt;13143 -->
<g id="edge68" class="edge"><title>12397&#45;&gt;13143</title>
<path fill="none" stroke="black" d="M214.535,-427.813C246.538,-425.277 295.114,-421.429 327.046,-418.899"/>
</g>
<!-- 12952 -->
<g id="node37" class="node"><title>12952</title>
<g id="a_node37"><a xlink:title="6th_week">
<ellipse fill="#c81d25" stroke="black" cx="652.313" cy="-1188.69" rx="32.4942" ry="18"/>
<text text-anchor="middle" x="652.313" y="-1184.99" font-family="Times,serif" font-size="14.00">12952</text>
</a>
</g>
</g>
<!-- 12952&#45;&gt;13825 -->
<g id="edge14" class="edge"><title>12952&#45;&gt;13825</title>
<path fill="none" stroke="black" d="M660.729,-1206.37C676.388,-1239.28 709.826,-1309.53 725.451,-1342.36"/>
</g>
<!-- 14033 -->
<g id="node41" class="node"><title>14033</title>
<g id="a_node41"><a xlink:title="6th_week">
<ellipse fill="#c81d25" stroke="black" cx="263.489" cy="-546.589" rx="32.4942" ry="18"/>
<text text-anchor="middle" x="263.489" y="-542.889" font-family="Times,serif" font-size="14.00">14033</text>
</a>
</g>
</g>
<!-- 13143&#45;&gt;14033 -->
<g id="edge69" class="edge"><title>13143&#45;&gt;14033</title>
<path fill="none" stroke="black" d="M347.033,-433.099C328.623,-458.109 294.164,-504.919 275.78,-529.892"/>
</g>
<!-- 13143&#45;&gt;14833 -->
<g id="edge5" class="edge"><title>13143&#45;&gt;14833</title>
<path fill="none" stroke="black" d="M338.192,-402.599C303.835,-380.311 236.344,-336.531 202.004,-314.256"/>
</g>
<!-- 13143&#45;&gt;14935 -->
<g id="edge34" class="edge"><title>13143&#45;&gt;14935</title>
<path fill="none" stroke="black" d="M362.158,-398.088C368.229,-358.315 382.592,-264.218 388.636,-224.62"/>
</g>
<!-- 16446 -->
<g id="node48" class="node"><title>16446</title>
<g id="a_node48"><a xlink:title="6th_week">
<ellipse fill="#c81d25" stroke="black" cx="257.406" cy="-306.855" rx="32.4942" ry="18"/>
<text text-anchor="middle" x="257.406" y="-303.155" font-family="Times,serif" font-size="14.00">16446</text>
</a>
</g>
</g>
<!-- 13143&#45;&gt;16446 -->
<g id="edge11" class="edge"><title>13143&#45;&gt;16446</title>
<path fill="none" stroke="black" d="M344.327,-400.183C325.048,-379.483 291.822,-343.807 272.514,-323.075"/>
</g>
<!-- 17611 -->
<g id="node53" class="node"><title>17611</title>
<g id="a_node53"><a xlink:title="6th_week">
<ellipse fill="#c81d25" stroke="black" cx="503.493" cy="-475.09" rx="32.4942" ry="18"/>
<text text-anchor="middle" x="503.493" y="-471.39" font-family="Times,serif" font-size="14.00">17611</text>
</a>
</g>
</g>
<!-- 13143&#45;&gt;17611 -->
<g id="edge44" class="edge"><title>13143&#45;&gt;17611</title>
<path fill="none" stroke="black" d="M385.806,-427.114C411.81,-437.714 451.281,-453.805 477.227,-464.382"/>
</g>
<!-- 18586 -->
<g id="node55" class="node"><title>18586</title>
<g id="a_node55"><a xlink:title="6th_week">
<ellipse fill="#c81d25" stroke="black" cx="431.18" cy="-312.85" rx="32.4942" ry="18"/>
<text text-anchor="middle" x="431.18" y="-309.15" font-family="Times,serif" font-size="14.00">18586</text>
</a>
</g>
</g>
<!-- 13143&#45;&gt;18586 -->
<g id="edge25" class="edge"><title>13143&#45;&gt;18586</title>
<path fill="none" stroke="black" d="M371.23,-399.249C384.535,-380.074 405.993,-349.149 419.305,-329.964"/>
</g>
<!-- 22820 -->
<g id="node66" class="node"><title>22820</title>
<g id="a_node66"><a xlink:title="6th_week">
<ellipse fill="#c81d25" stroke="black" cx="522.868" cy="-332.406" rx="32.4942" ry="18"/>
<text text-anchor="middle" x="522.868" y="-328.706" font-family="Times,serif" font-size="14.00">22820</text>
</a>
</g>
</g>
<!-- 13143&#45;&gt;22820 -->
<g id="edge4" class="edge"><title>13143&#45;&gt;22820</title>
<path fill="none" stroke="black" d="M383.496,-403.953C414.497,-388.039 467.992,-360.577 498.911,-344.705"/>
</g>
<!-- 22969 -->
<g id="node67" class="node"><title>22969</title>
<g id="a_node67"><a xlink:title="6th_week">
<ellipse fill="#c81d25" stroke="black" cx="203.529" cy="-493.061" rx="32.4942" ry="18"/>
<text text-anchor="middle" x="203.529" y="-489.361" font-family="Times,serif" font-size="14.00">22969</text>
</a>
</g>
</g>
<!-- 13143&#45;&gt;22969 -->
<g id="edge6" class="edge"><title>13143&#45;&gt;22969</title>
<path fill="none" stroke="black" d="M335.022,-428.326C305.829,-442.697 257.195,-466.641 227.965,-481.031"/>
</g>
<!-- 23526 -->
<g id="node69" class="node"><title>23526</title>
<g id="a_node69"><a xlink:title="6th_week">
<ellipse fill="#c81d25" stroke="black" cx="525.257" cy="-395.489" rx="32.4942" ry="18"/>
<text text-anchor="middle" x="525.257" y="-391.789" font-family="Times,serif" font-size="14.00">23526</text>
</a>
</g>
</g>
<!-- 13143&#45;&gt;23526 -->
<g id="edge33" class="edge"><title>13143&#45;&gt;23526</title>
<path fill="none" stroke="black" d="M391.356,-412.318C420.731,-408.626 464.028,-403.184 493.371,-399.496"/>
</g>
<!-- 24468 -->
<g id="node70" class="node"><title>24468</title>
<g id="a_node70"><a xlink:title="6th_week">
<ellipse fill="#c81d25" stroke="black" cx="203.473" cy="-371.284" rx="32.4942" ry="18"/>
<text text-anchor="middle" x="203.473" y="-367.584" font-family="Times,serif" font-size="14.00">24468</text>
</a>
</g>
</g>
<!-- 13143&#45;&gt;24468 -->
<g id="edge49" class="edge"><title>13143&#45;&gt;24468</title>
<path fill="none" stroke="black" d="M330.414,-407.969C302.5,-399.902 260.49,-387.761 232.54,-379.684"/>
</g>
<!-- 19770 -->
<g id="node59" class="node"><title>19770</title>
<g id="a_node59"><a xlink:title="6th_week">
<ellipse fill="#c81d25" stroke="black" cx="758.17" cy="-1171.12" rx="32.4942" ry="18"/>
<text text-anchor="middle" x="758.17" y="-1167.42" font-family="Times,serif" font-size="14.00">19770</text>
</a>
</g>
</g>
<!-- 13825&#45;&gt;19770 -->
<g id="edge16" class="edge"><title>13825&#45;&gt;19770</title>
<path fill="none" stroke="black" d="M736.156,-1341.84C740.81,-1305.75 751.194,-1225.22 755.842,-1189.17"/>
</g>
<!-- 16547 -->
<g id="node50" class="node"><title>16547</title>
<g id="a_node50"><a xlink:title="6th_week">
<ellipse fill="#c81d25" stroke="black" cx="269.15" cy="-2042.51" rx="32.4942" ry="18"/>
<text text-anchor="middle" x="269.15" y="-2038.81" font-family="Times,serif" font-size="14.00">16547</text>
</a>
</g>
</g>
<!-- 16547&#45;&gt;20980 -->
<g id="edge13" class="edge"><title>16547&#45;&gt;20980</title>
<path fill="none" stroke="black" d="M290.097,-2028.48C318.38,-2009.54 368.479,-1975.98 396.707,-1957.08"/>
</g>
<!-- 22986 -->
<g id="node68" class="node"><title>22986</title>
<g id="a_node68"><a xlink:title="6th_week">
<ellipse fill="#c81d25" stroke="black" cx="1042.29" cy="-1319.76" rx="32.4942" ry="18"/>
<text text-anchor="middle" x="1042.29" y="-1316.06" font-family="Times,serif" font-size="14.00">22986</text>
</a>
</g>
</g>
<!-- 19931&#45;&gt;22986 -->
<g id="edge46" class="edge"><title>19931&#45;&gt;22986</title>
<path fill="none" stroke="black" d="M966.167,-1479.39C982.371,-1445.41 1017.73,-1371.26 1033.91,-1337.34"/>
</g>
</g>
</svg>
