<?xml version="1.0" encoding="UTF-8" standalone="no"?>
<!DOCTYPE svg PUBLIC "-//W3C//DTD SVG 1.1//EN"
 "http://www.w3.org/Graphics/SVG/1.1/DTD/svg11.dtd">
<!-- Generated by graphviz version 2.38.0 (20140413.2041)
 -->
<!-- Title: %3 Pages: 1 -->
<svg width="1668pt" height="1395pt"
 viewBox="0.00 0.00 1668.00 1395.00" xmlns="http://www.w3.org/2000/svg" xmlns:xlink="http://www.w3.org/1999/xlink">
<g id="graph0" class="graph" transform="scale(1 1) rotate(0) translate(4 1391)">
<title>%3</title>
<polygon fill="white" stroke="none" points="-4,4 -4,-1391 1664,-1391 1664,4 -4,4"/>
<!-- 35 -->
<g id="node1" class="node"><title>35</title>
<g id="a_node1"><a xlink:title="6th_week">
<ellipse fill="#c81d25" stroke="black" cx="910.713" cy="-401.518" rx="27" ry="18"/>
<text text-anchor="middle" x="910.713" y="-397.818" font-family="Times,serif" font-size="14.00">35</text>
</a>
</g>
</g>
<!-- 16142 -->
<g id="node56" class="node"><title>16142</title>
<g id="a_node56"><a xlink:title="6th_week">
<ellipse fill="#c81d25" stroke="black" cx="810.688" cy="-560.816" rx="32.4942" ry="18"/>
<text text-anchor="middle" x="810.688" y="-557.116" font-family="Times,serif" font-size="14.00">16142</text>
</a>
</g>
</g>
<!-- 35&#45;&gt;16142 -->
<g id="edge35" class="edge"><title>35&#45;&gt;16142</title>
<path fill="none" stroke="black" d="M900.198,-418.265C881.037,-448.779 840.642,-513.113 821.364,-543.815"/>
</g>
<!-- 507 -->
<g id="node2" class="node"><title>507</title>
<g id="a_node2"><a xlink:title="6th_week">
<ellipse fill="#c81d25" stroke="black" cx="357.454" cy="-1206.3" rx="27" ry="18"/>
<text text-anchor="middle" x="357.454" y="-1202.6" font-family="Times,serif" font-size="14.00">507</text>
</a>
</g>
</g>
<!-- 11262 -->
<g id="node39" class="node"><title>11262</title>
<g id="a_node39"><a xlink:title="6th_week">
<ellipse fill="#c81d25" stroke="black" cx="430.186" cy="-1014.27" rx="32.4942" ry="18"/>
<text text-anchor="middle" x="430.186" y="-1010.57" font-family="Times,serif" font-size="14.00">11262</text>
</a>
</g>
</g>
<!-- 507&#45;&gt;11262 -->
<g id="edge44" class="edge"><title>507&#45;&gt;11262</title>
<path fill="none" stroke="black" d="M364.166,-1188.58C378.022,-1152 409.648,-1068.5 423.49,-1031.95"/>
</g>
<!-- 513 -->
<g id="node3" class="node"><title>513</title>
<g id="a_node3"><a xlink:title="6th_week">
<ellipse fill="#c81d25" stroke="black" cx="392.673" cy="-430.822" rx="27" ry="18"/>
<text text-anchor="middle" x="392.673" y="-427.122" font-family="Times,serif" font-size="14.00">513</text>
</a>
</g>
</g>
<!-- 12867 -->
<g id="node43" class="node"><title>12867</title>
<g id="a_node43"><a xlink:title="6th_week">
<ellipse fill="#c81d25" stroke="black" cx="532.601" cy="-597.048" rx="32.4942" ry="18"/>
<text text-anchor="middle" x="532.601" y="-593.348" font-family="Times,serif" font-size="14.00">12867</text>
</a>
</g>
</g>
<!-- 513&#45;&gt;12867 -->
<g id="edge26" class="edge"><title>513&#45;&gt;12867</title>
<path fill="none" stroke="black" d="M406.09,-446.76C432.63,-478.289 491.598,-548.339 518.604,-580.42"/>
</g>
<!-- 1451 -->
<g id="node4" class="node"><title>1451</title>
<g id="a_node4"><a xlink:title="6th_week">
<ellipse fill="#c81d25" stroke="black" cx="199.425" cy="-624.644" rx="28.6953" ry="18"/>
<text text-anchor="middle" x="199.425" y="-620.944" font-family="Times,serif" font-size="14.00">1451</text>
</a>
</g>
</g>
<!-- 12301 -->
<g id="node42" class="node"><title>12301</title>
<g id="a_node42"><a xlink:title="6th_week">
<ellipse fill="#c81d25" stroke="black" cx="406.501" cy="-694.158" rx="32.4942" ry="18"/>
<text text-anchor="middle" x="406.501" y="-690.458" font-family="Times,serif" font-size="14.00">12301</text>
</a>
</g>
</g>
<!-- 1451&#45;&gt;12301 -->
<g id="edge49" class="edge"><title>1451&#45;&gt;12301</title>
<path fill="none" stroke="black" d="M224.817,-633.168C263.804,-646.256 338.135,-671.208 378.587,-684.788"/>
</g>
<!-- 1604 -->
<g id="node5" class="node"><title>1604</title>
<g id="a_node5"><a xlink:title="6th_week">
<ellipse fill="#c81d25" stroke="black" cx="235.745" cy="-561.852" rx="28.6953" ry="18"/>
<text text-anchor="middle" x="235.745" y="-558.152" font-family="Times,serif" font-size="14.00">1604</text>
</a>
</g>
</g>
<!-- 1604&#45;&gt;12301 -->
<g id="edge55" class="edge"><title>1604&#45;&gt;12301</title>
<path fill="none" stroke="black" d="M254.019,-576.011C286.627,-601.276 354.512,-653.875 387.58,-679.498"/>
</g>
<!-- 1686 -->
<g id="node6" class="node"><title>1686</title>
<g id="a_node6"><a xlink:title="6th_week">
<ellipse fill="#c81d25" stroke="black" cx="948.962" cy="-1169.79" rx="28.6953" ry="18"/>
<text text-anchor="middle" x="948.962" y="-1166.09" font-family="Times,serif" font-size="14.00">1686</text>
</a>
</g>
</g>
<!-- 1792 -->
<g id="node7" class="node"><title>1792</title>
<g id="a_node7"><a xlink:title="6th_week">
<ellipse fill="#c81d25" stroke="black" cx="829.453" cy="-993.21" rx="28.6953" ry="18"/>
<text text-anchor="middle" x="829.453" y="-989.51" font-family="Times,serif" font-size="14.00">1792</text>
</a>
</g>
</g>
<!-- 1686&#45;&gt;1792 -->
<g id="edge20" class="edge"><title>1686&#45;&gt;1792</title>
<path fill="none" stroke="black" d="M937.718,-1153.18C914.941,-1119.52 863.578,-1043.63 840.753,-1009.91"/>
</g>
<!-- 13853 -->
<g id="node47" class="node"><title>13853</title>
<g id="a_node47"><a xlink:title="6th_week">
<ellipse fill="#c81d25" stroke="black" cx="676.384" cy="-793.783" rx="32.4942" ry="18"/>
<text text-anchor="middle" x="676.384" y="-790.083" font-family="Times,serif" font-size="14.00">13853</text>
</a>
</g>
</g>
<!-- 1792&#45;&gt;13853 -->
<g id="edge52" class="edge"><title>1792&#45;&gt;13853</title>
<path fill="none" stroke="black" d="M816.926,-976.89C788.295,-939.587 718.302,-848.397 689.3,-810.61"/>
</g>
<!-- 2103 -->
<g id="node8" class="node"><title>2103</title>
<g id="a_node8"><a xlink:title="6th_week">
<ellipse fill="#c81d25" stroke="black" cx="762.342" cy="-953.162" rx="28.6953" ry="18"/>
<text text-anchor="middle" x="762.342" y="-949.462" font-family="Times,serif" font-size="14.00">2103</text>
</a>
</g>
</g>
<!-- 2103&#45;&gt;13853 -->
<g id="edge50" class="edge"><title>2103&#45;&gt;13853</title>
<path fill="none" stroke="black" d="M753.143,-936.106C736.685,-905.591 702.375,-841.974 685.778,-811.2"/>
</g>
<!-- 2349 -->
<g id="node9" class="node"><title>2349</title>
<g id="a_node9"><a xlink:title="6th_week">
<ellipse fill="#c81d25" stroke="black" cx="486.049" cy="-712.605" rx="28.6953" ry="18"/>
<text text-anchor="middle" x="486.049" y="-708.905" font-family="Times,serif" font-size="14.00">2349</text>
</a>
</g>
</g>
<!-- 2349&#45;&gt;13853 -->
<g id="edge47" class="edge"><title>2349&#45;&gt;13853</title>
<path fill="none" stroke="black" d="M509.77,-722.722C545.646,-738.023 613.443,-766.938 650.535,-782.759"/>
</g>
<!-- 2622 -->
<g id="node10" class="node"><title>2622</title>
<g id="a_node10"><a xlink:title="6th_week">
<ellipse fill="#c81d25" stroke="black" cx="574.559" cy="-264.681" rx="28.6953" ry="18"/>
<text text-anchor="middle" x="574.559" y="-260.981" font-family="Times,serif" font-size="14.00">2622</text>
</a>
</g>
</g>
<!-- 14279 -->
<g id="node48" class="node"><title>14279</title>
<g id="a_node48"><a xlink:title="6th_week">
<ellipse fill="#c81d25" stroke="black" cx="678.685" cy="-447.596" rx="32.4942" ry="18"/>
<text text-anchor="middle" x="678.685" y="-443.896" font-family="Times,serif" font-size="14.00">14279</text>
</a>
</g>
</g>
<!-- 2622&#45;&gt;14279 -->
<g id="edge54" class="edge"><title>2622&#45;&gt;14279</title>
<path fill="none" stroke="black" d="M584.354,-281.889C604.2,-316.751 648.952,-395.365 668.839,-430.3"/>
</g>
<!-- 2795 -->
<g id="node11" class="node"><title>2795</title>
<g id="a_node11"><a xlink:title="6th_week">
<ellipse fill="#c81d25" stroke="black" cx="205.949" cy="-1206.56" rx="28.6953" ry="18"/>
<text text-anchor="middle" x="205.949" y="-1202.86" font-family="Times,serif" font-size="14.00">2795</text>
</a>
</g>
</g>
<!-- 7820 -->
<g id="node29" class="node"><title>7820</title>
<g id="a_node29"><a xlink:title="6th_week">
<ellipse fill="#c81d25" stroke="black" cx="72.347" cy="-1320.41" rx="28.6953" ry="18"/>
<text text-anchor="middle" x="72.347" y="-1316.71" font-family="Times,serif" font-size="14.00">7820</text>
</a>
</g>
</g>
<!-- 2795&#45;&gt;7820 -->
<g id="edge23" class="edge"><title>2795&#45;&gt;7820</title>
<path fill="none" stroke="black" d="M188.757,-1221.21C163.103,-1243.07 115.089,-1283.99 89.4737,-1305.82"/>
</g>
<!-- 10501 -->
<g id="node36" class="node"><title>10501</title>
<g id="a_node36"><a xlink:title="6th_week">
<ellipse fill="#c81d25" stroke="black" cx="127.435" cy="-1369.33" rx="32.4942" ry="18"/>
<text text-anchor="middle" x="127.435" y="-1365.63" font-family="Times,serif" font-size="14.00">10501</text>
</a>
</g>
</g>
<!-- 2795&#45;&gt;10501 -->
<g id="edge56" class="edge"><title>2795&#45;&gt;10501</title>
<path fill="none" stroke="black" d="M197.547,-1223.98C182.514,-1255.14 151.175,-1320.11 136.015,-1351.54"/>
</g>
<!-- 2795&#45;&gt;11262 -->
<g id="edge16" class="edge"><title>2795&#45;&gt;11262</title>
<path fill="none" stroke="black" d="M223.173,-1191.79C264.707,-1156.17 370.062,-1065.83 412.283,-1029.62"/>
</g>
<!-- 12125 -->
<g id="node41" class="node"><title>12125</title>
<g id="a_node41"><a xlink:title="6th_week">
<ellipse fill="#c81d25" stroke="black" cx="32.6197" cy="-1258.43" rx="32.4942" ry="18"/>
<text text-anchor="middle" x="32.6197" y="-1254.73" font-family="Times,serif" font-size="14.00">12125</text>
</a>
</g>
</g>
<!-- 2795&#45;&gt;12125 -->
<g id="edge41" class="edge"><title>2795&#45;&gt;12125</title>
<path fill="none" stroke="black" d="M180,-1214.32C148.174,-1223.85 94.3942,-1239.94 61.3487,-1249.83"/>
</g>
<!-- 3678 -->
<g id="node12" class="node"><title>3678</title>
<g id="a_node12"><a xlink:title="6th_week">
<ellipse fill="#c81d25" stroke="black" cx="188.719" cy="-697.271" rx="28.6953" ry="18"/>
<text text-anchor="middle" x="188.719" y="-693.571" font-family="Times,serif" font-size="14.00">3678</text>
</a>
</g>
</g>
<!-- 3678&#45;&gt;12301 -->
<g id="edge28" class="edge"><title>3678&#45;&gt;12301</title>
<path fill="none" stroke="black" d="M217.639,-696.858C258.136,-696.279 331.521,-695.23 373.906,-694.624"/>
</g>
<!-- 3820 -->
<g id="node13" class="node"><title>3820</title>
<g id="a_node13"><a xlink:title="6th_week">
<ellipse fill="#c81d25" stroke="black" cx="578.163" cy="-657.065" rx="28.6953" ry="18"/>
<text text-anchor="middle" x="578.163" y="-653.365" font-family="Times,serif" font-size="14.00">3820</text>
</a>
</g>
</g>
<!-- 3820&#45;&gt;13853 -->
<g id="edge42" class="edge"><title>3820&#45;&gt;13853</title>
<path fill="none" stroke="black" d="M590.011,-673.557C608.788,-699.693 645.193,-750.367 664.186,-776.805"/>
</g>
<!-- 3909 -->
<g id="node14" class="node"><title>3909</title>
<g id="a_node14"><a xlink:title="6th_week">
<ellipse fill="#c81d25" stroke="black" cx="1631.1" cy="-1251.2" rx="28.6953" ry="18"/>
<text text-anchor="middle" x="1631.1" y="-1247.5" font-family="Times,serif" font-size="14.00">3909</text>
</a>
</g>
</g>
<!-- 4723 -->
<g id="node18" class="node"><title>4723</title>
<g id="a_node18"><a xlink:title="6th_week">
<ellipse fill="#c81d25" stroke="black" cx="1453.78" cy="-1160.87" rx="28.6953" ry="18"/>
<text text-anchor="middle" x="1453.78" y="-1157.17" font-family="Times,serif" font-size="14.00">4723</text>
</a>
</g>
</g>
<!-- 3909&#45;&gt;4723 -->
<g id="edge37" class="edge"><title>3909&#45;&gt;4723</title>
<path fill="none" stroke="black" d="M1608.64,-1239.76C1574.53,-1222.38 1510.06,-1189.54 1476.06,-1172.22"/>
</g>
<!-- 4002 -->
<g id="node15" class="node"><title>4002</title>
<g id="a_node15"><a xlink:title="6th_week">
<ellipse fill="#c81d25" stroke="black" cx="824.014" cy="-692.267" rx="28.6953" ry="18"/>
<text text-anchor="middle" x="824.014" y="-688.567" font-family="Times,serif" font-size="14.00">4002</text>
</a>
</g>
</g>
<!-- 4002&#45;&gt;13853 -->
<g id="edge15" class="edge"><title>4002&#45;&gt;13853</title>
<path fill="none" stroke="black" d="M804.41,-705.747C776.488,-724.948 725.499,-760.01 697.021,-779.593"/>
</g>
<!-- 4134 -->
<g id="node16" class="node"><title>4134</title>
<g id="a_node16"><a xlink:title="6th_week">
<ellipse fill="#c81d25" stroke="black" cx="280.97" cy="-1146.24" rx="28.6953" ry="18"/>
<text text-anchor="middle" x="280.97" y="-1142.54" font-family="Times,serif" font-size="14.00">4134</text>
</a>
</g>
</g>
<!-- 4134&#45;&gt;11262 -->
<g id="edge4" class="edge"><title>4134&#45;&gt;11262</title>
<path fill="none" stroke="black" d="M297.797,-1131.36C326.303,-1106.15 383.804,-1055.29 412.73,-1029.71"/>
</g>
<!-- 4351 -->
<g id="node17" class="node"><title>4351</title>
<g id="a_node17"><a xlink:title="6th_week">
<ellipse fill="#c81d25" stroke="black" cx="757.916" cy="-641.357" rx="28.6953" ry="18"/>
<text text-anchor="middle" x="757.916" y="-637.657" font-family="Times,serif" font-size="14.00">4351</text>
</a>
</g>
</g>
<!-- 4351&#45;&gt;13853 -->
<g id="edge53" class="edge"><title>4351&#45;&gt;13853</title>
<path fill="none" stroke="black" d="M748.722,-658.546C733.063,-687.821 701.391,-747.033 685.67,-776.423"/>
</g>
<!-- 12883 -->
<g id="node44" class="node"><title>12883</title>
<g id="a_node44"><a xlink:title="6th_week">
<ellipse fill="#c81d25" stroke="black" cx="1269.58" cy="-1053.33" rx="32.4942" ry="18"/>
<text text-anchor="middle" x="1269.58" y="-1049.63" font-family="Times,serif" font-size="14.00">12883</text>
</a>
</g>
</g>
<!-- 4723&#45;&gt;12883 -->
<g id="edge3" class="edge"><title>4723&#45;&gt;12883</title>
<path fill="none" stroke="black" d="M1432.65,-1148.54C1397.69,-1128.12 1328.1,-1087.49 1292.18,-1066.53"/>
</g>
<!-- 5134 -->
<g id="node19" class="node"><title>5134</title>
<g id="a_node19"><a xlink:title="6th_week">
<ellipse fill="#c81d25" stroke="black" cx="1432.41" cy="-1092.8" rx="28.6953" ry="18"/>
<text text-anchor="middle" x="1432.41" y="-1089.1" font-family="Times,serif" font-size="14.00">5134</text>
</a>
</g>
</g>
<!-- 5134&#45;&gt;12883 -->
<g id="edge13" class="edge"><title>5134&#45;&gt;12883</title>
<path fill="none" stroke="black" d="M1405.52,-1086.28C1376.34,-1079.21 1329.88,-1067.95 1299.55,-1060.59"/>
</g>
<!-- 5292 -->
<g id="node20" class="node"><title>5292</title>
<g id="a_node20"><a xlink:title="6th_week">
<ellipse fill="#c81d25" stroke="black" cx="876.231" cy="-627.106" rx="28.6953" ry="18"/>
<text text-anchor="middle" x="876.231" y="-623.406" font-family="Times,serif" font-size="14.00">5292</text>
</a>
</g>
</g>
<!-- 5292&#45;&gt;13853 -->
<g id="edge5" class="edge"><title>5292&#45;&gt;13853</title>
<path fill="none" stroke="black" d="M858.845,-641.606C821.24,-672.97 732.656,-746.851 694.447,-778.719"/>
</g>
<!-- 14288 -->
<g id="node49" class="node"><title>14288</title>
<g id="a_node49"><a xlink:title="6th_week">
<ellipse fill="#c81d25" stroke="black" cx="1022.1" cy="-500.922" rx="32.4942" ry="18"/>
<text text-anchor="middle" x="1022.1" y="-497.222" font-family="Times,serif" font-size="14.00">14288</text>
</a>
</g>
</g>
<!-- 5292&#45;&gt;14288 -->
<g id="edge1" class="edge"><title>5292&#45;&gt;14288</title>
<path fill="none" stroke="black" d="M893.25,-612.384C921.058,-588.33 975.966,-540.832 1004.28,-516.336"/>
</g>
<!-- 5838 -->
<g id="node21" class="node"><title>5838</title>
<g id="a_node21"><a xlink:title="6th_week">
<ellipse fill="#c81d25" stroke="black" cx="1135.79" cy="-631.812" rx="28.6953" ry="18"/>
<text text-anchor="middle" x="1135.79" y="-628.112" font-family="Times,serif" font-size="14.00">5838</text>
</a>
</g>
</g>
<!-- 14475 -->
<g id="node50" class="node"><title>14475</title>
<g id="a_node50"><a xlink:title="6th_week">
<ellipse fill="#c81d25" stroke="black" cx="969.001" cy="-719.389" rx="32.4942" ry="18"/>
<text text-anchor="middle" x="969.001" y="-715.689" font-family="Times,serif" font-size="14.00">14475</text>
</a>
</g>
</g>
<!-- 5838&#45;&gt;14475 -->
<g id="edge33" class="edge"><title>5838&#45;&gt;14475</title>
<path fill="none" stroke="black" d="M1113.65,-643.442C1082.19,-659.959 1024.82,-690.083 992.588,-707.004"/>
</g>
<!-- 6145 -->
<g id="node22" class="node"><title>6145</title>
<g id="a_node22"><a xlink:title="6th_week">
<ellipse fill="#c81d25" stroke="black" cx="637.29" cy="-197.993" rx="28.6953" ry="18"/>
<text text-anchor="middle" x="637.29" y="-194.293" font-family="Times,serif" font-size="14.00">6145</text>
</a>
</g>
</g>
<!-- 6145&#45;&gt;14279 -->
<g id="edge19" class="edge"><title>6145&#45;&gt;14279</title>
<path fill="none" stroke="black" d="M640.267,-215.944C647.886,-261.886 668.029,-383.342 675.679,-429.473"/>
</g>
<!-- 15356 -->
<g id="node53" class="node"><title>15356</title>
<g id="a_node53"><a xlink:title="6th_week">
<ellipse fill="#c81d25" stroke="black" cx="615.766" cy="-17.9046" rx="32.4942" ry="18"/>
<text text-anchor="middle" x="615.766" y="-14.2046" font-family="Times,serif" font-size="14.00">15356</text>
</a>
</g>
</g>
<!-- 6145&#45;&gt;15356 -->
<g id="edge27" class="edge"><title>6145&#45;&gt;15356</title>
<path fill="none" stroke="black" d="M635.108,-179.734C630.972,-145.128 622.037,-70.3797 617.922,-35.944"/>
</g>
<!-- 6216 -->
<g id="node23" class="node"><title>6216</title>
<g id="a_node23"><a xlink:title="6th_week">
<ellipse fill="#c81d25" stroke="black" cx="713.086" cy="-1061.43" rx="28.6953" ry="18"/>
<text text-anchor="middle" x="713.086" y="-1057.73" font-family="Times,serif" font-size="14.00">6216</text>
</a>
</g>
</g>
<!-- 8830 -->
<g id="node34" class="node"><title>8830</title>
<g id="a_node34"><a xlink:title="6th_week">
<ellipse fill="#c81d25" stroke="black" cx="771.92" cy="-1266.65" rx="28.6953" ry="18"/>
<text text-anchor="middle" x="771.92" y="-1262.95" font-family="Times,serif" font-size="14.00">8830</text>
</a>
</g>
</g>
<!-- 6216&#45;&gt;8830 -->
<g id="edge17" class="edge"><title>6216&#45;&gt;8830</title>
<path fill="none" stroke="black" d="M718.204,-1079.29C729.331,-1118.1 755.618,-1209.78 766.772,-1248.69"/>
</g>
<!-- 10267 -->
<g id="node35" class="node"><title>10267</title>
<g id="a_node35"><a xlink:title="6th_week">
<ellipse fill="#c81d25" stroke="black" cx="689.904" cy="-1277.3" rx="32.4942" ry="18"/>
<text text-anchor="middle" x="689.904" y="-1273.6" font-family="Times,serif" font-size="14.00">10267</text>
</a>
</g>
</g>
<!-- 6216&#45;&gt;10267 -->
<g id="edge6" class="edge"><title>6216&#45;&gt;10267</title>
<path fill="none" stroke="black" d="M711.149,-1079.47C706.786,-1120.1 696.225,-1218.44 691.851,-1259.17"/>
</g>
<!-- 6216&#45;&gt;13853 -->
<g id="edge12" class="edge"><title>6216&#45;&gt;13853</title>
<path fill="none" stroke="black" d="M710.621,-1043.46C703.951,-994.816 685.6,-860.994 678.887,-812.034"/>
</g>
<!-- 6363 -->
<g id="node24" class="node"><title>6363</title>
<g id="a_node24"><a xlink:title="6th_week">
<ellipse fill="#c81d25" stroke="black" cx="517.971" cy="-919.333" rx="28.6953" ry="18"/>
<text text-anchor="middle" x="517.971" y="-915.633" font-family="Times,serif" font-size="14.00">6363</text>
</a>
</g>
</g>
<!-- 6363&#45;&gt;13853 -->
<g id="edge45" class="edge"><title>6363&#45;&gt;13853</title>
<path fill="none" stroke="black" d="M535.835,-905.175C565.936,-881.319 626.491,-833.326 657.357,-808.863"/>
</g>
<!-- 6903 -->
<g id="node25" class="node"><title>6903</title>
<g id="a_node25"><a xlink:title="6th_week">
<ellipse fill="#c81d25" stroke="black" cx="1154.13" cy="-707.771" rx="28.6953" ry="18"/>
<text text-anchor="middle" x="1154.13" y="-704.071" font-family="Times,serif" font-size="14.00">6903</text>
</a>
</g>
</g>
<!-- 6903&#45;&gt;14475 -->
<g id="edge8" class="edge"><title>6903&#45;&gt;14475</title>
<path fill="none" stroke="black" d="M1125.61,-709.561C1092.04,-711.667 1036.42,-715.158 1001.29,-717.362"/>
</g>
<!-- 6986 -->
<g id="node26" class="node"><title>6986</title>
<g id="a_node26"><a xlink:title="6th_week">
<ellipse fill="#c81d25" stroke="black" cx="874.571" cy="-857.966" rx="28.6953" ry="18"/>
<text text-anchor="middle" x="874.571" y="-854.266" font-family="Times,serif" font-size="14.00">6986</text>
</a>
</g>
</g>
<!-- 6986&#45;&gt;13853 -->
<g id="edge10" class="edge"><title>6986&#45;&gt;13853</title>
<path fill="none" stroke="black" d="M849.067,-849.707C811.954,-837.688 743.289,-815.451 704.668,-802.943"/>
</g>
<!-- 7446 -->
<g id="node27" class="node"><title>7446</title>
<g id="a_node27"><a xlink:title="6th_week">
<ellipse fill="#c81d25" stroke="black" cx="831.541" cy="-807.618" rx="28.6953" ry="18"/>
<text text-anchor="middle" x="831.541" y="-803.918" font-family="Times,serif" font-size="14.00">7446</text>
</a>
</g>
</g>
<!-- 7446&#45;&gt;13853 -->
<g id="edge31" class="edge"><title>7446&#45;&gt;13853</title>
<path fill="none" stroke="black" d="M803.083,-805.08C776.4,-802.701 736.546,-799.148 708.683,-796.663"/>
</g>
<!-- 7628 -->
<g id="node28" class="node"><title>7628</title>
<g id="a_node28"><a xlink:title="6th_week">
<ellipse fill="#c81d25" stroke="black" cx="674.367" cy="-985.079" rx="28.6953" ry="18"/>
<text text-anchor="middle" x="674.367" y="-981.379" font-family="Times,serif" font-size="14.00">7628</text>
</a>
</g>
</g>
<!-- 7628&#45;&gt;13853 -->
<g id="edge46" class="edge"><title>7628&#45;&gt;13853</title>
<path fill="none" stroke="black" d="M674.561,-966.737C674.947,-930.079 675.811,-848.171 676.194,-811.791"/>
</g>
<!-- 8238 -->
<g id="node30" class="node"><title>8238</title>
<g id="a_node30"><a xlink:title="6th_week">
<ellipse fill="#c81d25" stroke="black" cx="1441.74" cy="-1020.33" rx="28.6953" ry="18"/>
<text text-anchor="middle" x="1441.74" y="-1016.63" font-family="Times,serif" font-size="14.00">8238</text>
</a>
</g>
</g>
<!-- 8238&#45;&gt;12883 -->
<g id="edge58" class="edge"><title>8238&#45;&gt;12883</title>
<path fill="none" stroke="black" d="M1414.08,-1025.64C1383,-1031.59 1332.68,-1041.24 1300.37,-1047.43"/>
</g>
<!-- 8311 -->
<g id="node31" class="node"><title>8311</title>
<g id="a_node31"><a xlink:title="6th_week">
<ellipse fill="#c81d25" stroke="black" cx="1366.08" cy="-1195.62" rx="28.6953" ry="18"/>
<text text-anchor="middle" x="1366.08" y="-1191.92" font-family="Times,serif" font-size="14.00">8311</text>
</a>
</g>
</g>
<!-- 8311&#45;&gt;12883 -->
<g id="edge43" class="edge"><title>8311&#45;&gt;12883</title>
<path fill="none" stroke="black" d="M1354.82,-1179.02C1336.33,-1151.75 1299.71,-1097.76 1281.07,-1070.27"/>
</g>
<!-- 8318 -->
<g id="node32" class="node"><title>8318</title>
<g id="a_node32"><a xlink:title="6th_week">
<ellipse fill="#c81d25" stroke="black" cx="825.121" cy="-908.103" rx="28.6953" ry="18"/>
<text text-anchor="middle" x="825.121" y="-904.403" font-family="Times,serif" font-size="14.00">8318</text>
</a>
</g>
</g>
<!-- 8318&#45;&gt;13853 -->
<g id="edge9" class="edge"><title>8318&#45;&gt;13853</title>
<path fill="none" stroke="black" d="M806.883,-894.085C778.647,-872.383 724.601,-830.843 695.715,-808.641"/>
</g>
<!-- 8538 -->
<g id="node33" class="node"><title>8538</title>
<g id="a_node33"><a xlink:title="6th_week">
<ellipse fill="#c81d25" stroke="black" cx="585.751" cy="-879.162" rx="28.6953" ry="18"/>
<text text-anchor="middle" x="585.751" y="-875.462" font-family="Times,serif" font-size="14.00">8538</text>
</a>
</g>
</g>
<!-- 8538&#45;&gt;13853 -->
<g id="edge25" class="edge"><title>8538&#45;&gt;13853</title>
<path fill="none" stroke="black" d="M601.955,-863.898C618.248,-848.549 643.249,-824.998 659.708,-809.493"/>
</g>
<!-- 10668 -->
<g id="node37" class="node"><title>10668</title>
<g id="a_node37"><a xlink:title="6th_week">
<ellipse fill="#c81d25" stroke="black" cx="503.49" cy="-850.752" rx="32.4942" ry="18"/>
<text text-anchor="middle" x="503.49" y="-847.052" font-family="Times,serif" font-size="14.00">10668</text>
</a>
</g>
</g>
<!-- 10668&#45;&gt;13853 -->
<g id="edge57" class="edge"><title>10668&#45;&gt;13853</title>
<path fill="none" stroke="black" d="M531.653,-841.472C563.804,-830.878 616.087,-813.651 648.233,-803.059"/>
</g>
<!-- 10835 -->
<g id="node38" class="node"><title>10835</title>
<g id="a_node38"><a xlink:title="6th_week">
<ellipse fill="#c81d25" stroke="black" cx="493.298" cy="-790.673" rx="32.4942" ry="18"/>
<text text-anchor="middle" x="493.298" y="-786.973" font-family="Times,serif" font-size="14.00">10835</text>
</a>
</g>
</g>
<!-- 10835&#45;&gt;13853 -->
<g id="edge51" class="edge"><title>10835&#45;&gt;13853</title>
<path fill="none" stroke="black" d="M526.031,-791.229C559.253,-791.794 610.396,-792.662 643.627,-793.227"/>
</g>
<!-- 11262&#45;&gt;13853 -->
<g id="edge36" class="edge"><title>11262&#45;&gt;13853</title>
<path fill="none" stroke="black" d="M447.498,-998.765C492.702,-958.282 613.908,-849.734 659.091,-809.27"/>
</g>
<!-- 1880 -->
<g id="node59" class="node"><title>1880</title>
<g id="a_node59"><a xlink:title="6th_week">
<ellipse fill="#c81d25" stroke="black" cx="228.913" cy="-1061.27" rx="28.6953" ry="18"/>
<text text-anchor="middle" x="228.913" y="-1057.57" font-family="Times,serif" font-size="14.00">1880</text>
</a>
</g>
</g>
<!-- 11262&#45;&gt;1880 -->
<g id="edge30" class="edge"><title>11262&#45;&gt;1880</title>
<path fill="none" stroke="black" d="M400.053,-1021.31C361.012,-1030.42 293.523,-1046.18 256.021,-1054.94"/>
</g>
<!-- 11269 -->
<g id="node40" class="node"><title>11269</title>
<g id="a_node40"><a xlink:title="6th_week">
<ellipse fill="#c81d25" stroke="black" cx="624.623" cy="-608.016" rx="32.4942" ry="18"/>
<text text-anchor="middle" x="624.623" y="-604.316" font-family="Times,serif" font-size="14.00">11269</text>
</a>
</g>
</g>
<!-- 11269&#45;&gt;13853 -->
<g id="edge38" class="edge"><title>11269&#45;&gt;13853</title>
<path fill="none" stroke="black" d="M629.586,-625.828C639.454,-661.245 661.442,-740.157 671.36,-775.752"/>
</g>
<!-- 12301&#45;&gt;13853 -->
<g id="edge32" class="edge"><title>12301&#45;&gt;13853</title>
<path fill="none" stroke="black" d="M433.614,-704.167C485.344,-723.263 597.573,-764.691 649.289,-783.781"/>
</g>
<!-- 12867&#45;&gt;13853 -->
<g id="edge48" class="edge"><title>12867&#45;&gt;13853</title>
<path fill="none" stroke="black" d="M544.86,-613.821C572.024,-650.99 637.02,-739.923 664.156,-777.052"/>
</g>
<!-- 15423 -->
<g id="node54" class="node"><title>15423</title>
<g id="a_node54"><a xlink:title="6th_week">
<ellipse fill="#c81d25" stroke="black" cx="983.835" cy="-926.452" rx="32.4942" ry="18"/>
<text text-anchor="middle" x="983.835" y="-922.752" font-family="Times,serif" font-size="14.00">15423</text>
</a>
</g>
</g>
<!-- 12883&#45;&gt;15423 -->
<g id="edge29" class="edge"><title>12883&#45;&gt;15423</title>
<path fill="none" stroke="black" d="M1244.22,-1042.07C1190.13,-1018.05 1063.95,-962.024 1009.55,-937.869"/>
</g>
<!-- 13237 -->
<g id="node45" class="node"><title>13237</title>
<g id="a_node45"><a xlink:title="6th_week">
<ellipse fill="#c81d25" stroke="black" cx="589.783" cy="-958.586" rx="32.4942" ry="18"/>
<text text-anchor="middle" x="589.783" y="-954.886" font-family="Times,serif" font-size="14.00">13237</text>
</a>
</g>
</g>
<!-- 13237&#45;&gt;13853 -->
<g id="edge39" class="edge"><title>13237&#45;&gt;13853</title>
<path fill="none" stroke="black" d="M598.887,-941.26C615.519,-909.609 650.634,-842.787 667.272,-811.124"/>
</g>
<!-- 13816 -->
<g id="node46" class="node"><title>13816</title>
<g id="a_node46"><a xlink:title="6th_week">
<ellipse fill="#c81d25" stroke="black" cx="765.036" cy="-251.74" rx="32.4942" ry="18"/>
<text text-anchor="middle" x="765.036" y="-248.04" font-family="Times,serif" font-size="14.00">13816</text>
</a>
</g>
</g>
<!-- 13816&#45;&gt;14279 -->
<g id="edge24" class="edge"><title>13816&#45;&gt;14279</title>
<path fill="none" stroke="black" d="M757.22,-269.466C740.78,-306.755 702.791,-392.921 686.421,-430.051"/>
</g>
<!-- 13853&#45;&gt;14279 -->
<g id="edge18" class="edge"><title>13853&#45;&gt;14279</title>
<path fill="none" stroke="black" d="M676.505,-775.658C676.901,-715.975 678.164,-525.988 678.563,-465.96"/>
</g>
<!-- 13853&#45;&gt;14475 -->
<g id="edge7" class="edge"><title>13853&#45;&gt;14475</title>
<path fill="none" stroke="black" d="M706.052,-786.241C762.136,-771.982 883.109,-741.226 939.254,-726.952"/>
</g>
<!-- 14502 -->
<g id="node51" class="node"><title>14502</title>
<g id="a_node51"><a xlink:title="6th_week">
<ellipse fill="#c81d25" stroke="black" cx="698.217" cy="-595.736" rx="32.4942" ry="18"/>
<text text-anchor="middle" x="698.217" y="-592.036" font-family="Times,serif" font-size="14.00">14502</text>
</a>
</g>
</g>
<!-- 13853&#45;&gt;14502 -->
<g id="edge14" class="edge"><title>13853&#45;&gt;14502</title>
<path fill="none" stroke="black" d="M678.399,-775.506C682.558,-737.778 692.052,-651.66 696.207,-613.969"/>
</g>
<!-- 15266 -->
<g id="node52" class="node"><title>15266</title>
<g id="a_node52"><a xlink:title="6th_week">
<ellipse fill="#c81d25" stroke="black" cx="566.696" cy="-737.525" rx="32.4942" ry="18"/>
<text text-anchor="middle" x="566.696" y="-733.825" font-family="Times,serif" font-size="14.00">15266</text>
</a>
</g>
</g>
<!-- 13853&#45;&gt;15266 -->
<g id="edge34" class="edge"><title>13853&#45;&gt;15266</title>
<path fill="none" stroke="black" d="M652.313,-781.437C634.024,-772.057 608.986,-759.215 590.712,-749.842"/>
</g>
<!-- 13853&#45;&gt;15423 -->
<g id="edge11" class="edge"><title>13853&#45;&gt;15423</title>
<path fill="none" stroke="black" d="M702.068,-804.866C759.941,-829.839 899.999,-890.276 958.008,-915.307"/>
</g>
<!-- 13853&#45;&gt;16142 -->
<g id="edge21" class="edge"><title>13853&#45;&gt;16142</title>
<path fill="none" stroke="black" d="M686.479,-776.273C711.429,-732.993 775.779,-621.371 800.66,-578.212"/>
</g>
<!-- 16360 -->
<g id="node57" class="node"><title>16360</title>
<g id="a_node57"><a xlink:title="6th_week">
<ellipse fill="#c81d25" stroke="black" cx="872.706" cy="-742.281" rx="32.4942" ry="18"/>
<text text-anchor="middle" x="872.706" y="-738.581" font-family="Times,serif" font-size="14.00">16360</text>
</a>
</g>
</g>
<!-- 13853&#45;&gt;16360 -->
<g id="edge2" class="edge"><title>13853&#45;&gt;16360</title>
<path fill="none" stroke="black" d="M705.776,-786.073C742.786,-776.364 806.009,-759.778 843.114,-750.044"/>
</g>
<!-- 16397 -->
<g id="node58" class="node"><title>16397</title>
<g id="a_node58"><a xlink:title="6th_week">
<ellipse fill="#c81d25" stroke="black" cx="677.452" cy="-939.435" rx="32.4942" ry="18"/>
<text text-anchor="middle" x="677.452" y="-935.735" font-family="Times,serif" font-size="14.00">16397</text>
</a>
</g>
</g>
<!-- 13853&#45;&gt;16397 -->
<g id="edge40" class="edge"><title>13853&#45;&gt;16397</title>
<path fill="none" stroke="black" d="M676.517,-811.936C676.722,-839.846 677.112,-893.006 677.317,-921.054"/>
</g>
<!-- 16093 -->
<g id="node55" class="node"><title>16093</title>
<g id="a_node55"><a xlink:title="6th_week">
<ellipse fill="#c81d25" stroke="black" cx="686.286" cy="-250.662" rx="32.4942" ry="18"/>
<text text-anchor="middle" x="686.286" y="-246.962" font-family="Times,serif" font-size="14.00">16093</text>
</a>
</g>
</g>
<!-- 14279&#45;&gt;16093 -->
<g id="edge22" class="edge"><title>14279&#45;&gt;16093</title>
<path fill="none" stroke="black" d="M679.387,-429.422C680.835,-391.905 684.14,-306.272 685.586,-268.792"/>
</g>
</g>
</svg>
