<?xml version="1.0" encoding="UTF-8" standalone="no"?>
<!DOCTYPE svg PUBLIC "-//W3C//DTD SVG 1.1//EN"
 "http://www.w3.org/Graphics/SVG/1.1/DTD/svg11.dtd">
<!-- Generated by graphviz version 2.38.0 (20140413.2041)
 -->
<!-- Title: %3 Pages: 1 -->
<svg width="1319pt" height="1337pt"
 viewBox="0.00 0.00 1319.00 1337.00" xmlns="http://www.w3.org/2000/svg" xmlns:xlink="http://www.w3.org/1999/xlink">
<g id="graph0" class="graph" transform="scale(1 1) rotate(0) translate(4 1333)">
<title>%3</title>
<polygon fill="white" stroke="none" points="-4,4 -4,-1333 1315,-1333 1315,4 -4,4"/>
<!-- 22 -->
<g id="node1" class="node"><title>22</title>
<g id="a_node1"><a xlink:title="PRE">
<ellipse fill="#71a9f7" stroke="black" cx="319.171" cy="-292.473" rx="27" ry="18"/>
<text text-anchor="middle" x="319.171" y="-288.773" font-family="Times,serif" font-size="14.00">22</text>
</a>
</g>
</g>
<!-- 4581 -->
<g id="node6" class="node"><title>4581</title>
<g id="a_node6"><a xlink:title="PRE">
<ellipse fill="#71a9f7" stroke="black" cx="198.673" cy="-255.333" rx="28.6953" ry="18"/>
<text text-anchor="middle" x="198.673" y="-251.633" font-family="Times,serif" font-size="14.00">4581</text>
</a>
</g>
</g>
<!-- 22&#45;&gt;4581 -->
<g id="edge33" class="edge"><title>22&#45;&gt;4581</title>
<path fill="none" stroke="black" d="M294.496,-284.868C274.115,-278.586 245.273,-269.696 224.565,-263.314"/>
</g>
<!-- 13106 -->
<g id="node18" class="node"><title>13106</title>
<g id="a_node18"><a xlink:title="PRE">
<ellipse fill="#71a9f7" stroke="black" cx="183.059" cy="-326.855" rx="32.4942" ry="18"/>
<text text-anchor="middle" x="183.059" y="-323.155" font-family="Times,serif" font-size="14.00">13106</text>
</a>
</g>
</g>
<!-- 22&#45;&gt;13106 -->
<g id="edge21" class="edge"><title>22&#45;&gt;13106</title>
<path fill="none" stroke="black" d="M293.889,-298.86C270.978,-304.647 237.192,-313.181 212.952,-319.304"/>
</g>
<!-- 20123 -->
<g id="node26" class="node"><title>20123</title>
<g id="a_node26"><a xlink:title="PRE">
<ellipse fill="#71a9f7" stroke="black" cx="510.258" cy="-459.471" rx="32.4942" ry="18"/>
<text text-anchor="middle" x="510.258" y="-455.771" font-family="Times,serif" font-size="14.00">20123</text>
</a>
</g>
</g>
<!-- 22&#45;&gt;20123 -->
<g id="edge47" class="edge"><title>22&#45;&gt;20123</title>
<path fill="none" stroke="black" d="M335.795,-307.001C371.661,-338.346 456.025,-412.075 492.709,-444.135"/>
</g>
<!-- 23901 -->
<g id="node28" class="node"><title>23901</title>
<g id="a_node28"><a xlink:title="6th_week">
<ellipse fill="#c81d25" stroke="black" cx="182.356" cy="-174.302" rx="32.4942" ry="18"/>
<text text-anchor="middle" x="182.356" y="-170.602" font-family="Times,serif" font-size="14.00">23901</text>
</a>
</g>
</g>
<!-- 22&#45;&gt;23901 -->
<g id="edge6" class="edge"><title>22&#45;&gt;23901</title>
<path fill="none" stroke="black" d="M302.668,-278.219C276.798,-255.874 226.902,-212.778 200.218,-189.73"/>
</g>
<!-- 27189 -->
<g id="node29" class="node"><title>27189</title>
<g id="a_node29"><a xlink:title="PRE">
<ellipse fill="#71a9f7" stroke="black" cx="343.759" cy="-162.362" rx="32.4942" ry="18"/>
<text text-anchor="middle" x="343.759" y="-158.662" font-family="Times,serif" font-size="14.00">27189</text>
</a>
</g>
</g>
<!-- 22&#45;&gt;27189 -->
<g id="edge39" class="edge"><title>22&#45;&gt;27189</title>
<path fill="none" stroke="black" d="M322.59,-274.382C327.288,-249.524 335.687,-205.077 340.369,-180.3"/>
</g>
<!-- 27816 -->
<g id="node30" class="node"><title>27816</title>
<g id="a_node30"><a xlink:title="PRE">
<ellipse fill="#71a9f7" stroke="black" cx="261.782" cy="-180.142" rx="32.4942" ry="18"/>
<text text-anchor="middle" x="261.782" y="-176.442" font-family="Times,serif" font-size="14.00">27816</text>
</a>
</g>
</g>
<!-- 22&#45;&gt;27816 -->
<g id="edge49" class="edge"><title>22&#45;&gt;27816</title>
<path fill="none" stroke="black" d="M310.455,-275.413C299.731,-254.422 281.617,-218.966 270.77,-197.734"/>
</g>
<!-- 1430 -->
<g id="node2" class="node"><title>1430</title>
<g id="a_node2"><a xlink:title="PRE">
<ellipse fill="#71a9f7" stroke="black" cx="652.799" cy="-862.258" rx="28.6953" ry="18"/>
<text text-anchor="middle" x="652.799" y="-858.558" font-family="Times,serif" font-size="14.00">1430</text>
</a>
</g>
</g>
<!-- 2222 -->
<g id="node4" class="node"><title>2222</title>
<g id="a_node4"><a xlink:title="PRE">
<ellipse fill="#71a9f7" stroke="black" cx="694.883" cy="-617.005" rx="28.6953" ry="18"/>
<text text-anchor="middle" x="694.883" y="-613.305" font-family="Times,serif" font-size="14.00">2222</text>
</a>
</g>
</g>
<!-- 1430&#45;&gt;2222 -->
<g id="edge53" class="edge"><title>1430&#45;&gt;2222</title>
<path fill="none" stroke="black" d="M655.894,-844.224C663.677,-798.869 683.997,-680.449 691.784,-635.065"/>
</g>
<!-- 19418 -->
<g id="node24" class="node"><title>19418</title>
<g id="a_node24"><a xlink:title="PRE">
<ellipse fill="#71a9f7" stroke="black" cx="529.376" cy="-904.729" rx="32.4942" ry="18"/>
<text text-anchor="middle" x="529.376" y="-901.029" font-family="Times,serif" font-size="14.00">19418</text>
</a>
</g>
</g>
<!-- 1430&#45;&gt;19418 -->
<g id="edge38" class="edge"><title>1430&#45;&gt;19418</title>
<path fill="none" stroke="black" d="M627.525,-870.955C607.072,-877.993 578.301,-887.893 557.196,-895.156"/>
</g>
<!-- 22428 -->
<g id="node27" class="node"><title>22428</title>
<g id="a_node27"><a xlink:title="PRE">
<ellipse fill="#71a9f7" stroke="black" cx="774.446" cy="-999.185" rx="32.4942" ry="18"/>
<text text-anchor="middle" x="774.446" y="-995.485" font-family="Times,serif" font-size="14.00">22428</text>
</a>
</g>
</g>
<!-- 1430&#45;&gt;22428 -->
<g id="edge30" class="edge"><title>1430&#45;&gt;22428</title>
<path fill="none" stroke="black" d="M666.992,-878.233C690.306,-904.477 736.466,-956.435 759.966,-982.887"/>
</g>
<!-- 2468 -->
<g id="node36" class="node"><title>2468</title>
<g id="a_node36"><a xlink:title="Day_0">
<ellipse fill="#e5dada" stroke="black" cx="553.982" cy="-1117.56" rx="28.6953" ry="18"/>
<text text-anchor="middle" x="553.982" y="-1113.86" font-family="Times,serif" font-size="14.00">2468</text>
</a>
</g>
</g>
<!-- 1430&#45;&gt;2468 -->
<g id="edge8" class="edge"><title>1430&#45;&gt;2468</title>
<path fill="none" stroke="black" d="M646.007,-879.806C627.955,-926.445 578.928,-1053.11 560.821,-1099.89"/>
</g>
<!-- 1857 -->
<g id="node3" class="node"><title>1857</title>
<g id="a_node3"><a xlink:title="PRE">
<ellipse fill="#71a9f7" stroke="black" cx="971.859" cy="-1232.17" rx="28.6953" ry="18"/>
<text text-anchor="middle" x="971.859" y="-1228.47" font-family="Times,serif" font-size="14.00">1857</text>
</a>
</g>
</g>
<!-- 8488 -->
<g id="node13" class="node"><title>8488</title>
<g id="a_node13"><a xlink:title="PRE">
<ellipse fill="#71a9f7" stroke="black" cx="873.829" cy="-1110.29" rx="28.6953" ry="18"/>
<text text-anchor="middle" x="873.829" y="-1106.59" font-family="Times,serif" font-size="14.00">8488</text>
</a>
</g>
</g>
<!-- 1857&#45;&gt;8488 -->
<g id="edge24" class="edge"><title>1857&#45;&gt;8488</title>
<path fill="none" stroke="black" d="M958.841,-1215.99C940.092,-1192.67 905.68,-1149.89 886.9,-1126.54"/>
</g>
<!-- 6636 -->
<g id="node8" class="node"><title>6636</title>
<g id="a_node8"><a xlink:title="PRE">
<ellipse fill="#71a9f7" stroke="black" cx="944.157" cy="-518.77" rx="28.6953" ry="18"/>
<text text-anchor="middle" x="944.157" y="-515.07" font-family="Times,serif" font-size="14.00">6636</text>
</a>
</g>
</g>
<!-- 2222&#45;&gt;6636 -->
<g id="edge19" class="edge"><title>2222&#45;&gt;6636</title>
<path fill="none" stroke="black" d="M719.239,-607.407C766.894,-588.627 871.968,-547.218 919.703,-528.407"/>
</g>
<!-- 9917 -->
<g id="node15" class="node"><title>9917</title>
<g id="a_node15"><a xlink:title="PRE">
<ellipse fill="#71a9f7" stroke="black" cx="574.821" cy="-534.341" rx="28.6953" ry="18"/>
<text text-anchor="middle" x="574.821" y="-530.641" font-family="Times,serif" font-size="14.00">9917</text>
</a>
</g>
</g>
<!-- 2222&#45;&gt;9917 -->
<g id="edge41" class="edge"><title>2222&#45;&gt;9917</title>
<path fill="none" stroke="black" d="M675.326,-603.539C653,-588.168 616.693,-563.17 594.37,-547.8"/>
</g>
<!-- 16429 -->
<g id="node22" class="node"><title>16429</title>
<g id="a_node22"><a xlink:title="PRE">
<ellipse fill="#71a9f7" stroke="black" cx="753.879" cy="-721.47" rx="32.4942" ry="18"/>
<text text-anchor="middle" x="753.879" y="-717.77" font-family="Times,serif" font-size="14.00">16429</text>
</a>
</g>
</g>
<!-- 2222&#45;&gt;16429 -->
<g id="edge28" class="edge"><title>2222&#45;&gt;16429</title>
<path fill="none" stroke="black" d="M704.625,-634.255C715.556,-653.611 733.186,-684.828 744.123,-704.194"/>
</g>
<!-- 2222&#45;&gt;20123 -->
<g id="edge48" class="edge"><title>2222&#45;&gt;20123</title>
<path fill="none" stroke="black" d="M677.845,-602.467C642.941,-572.685 563.612,-504.996 528.066,-474.666"/>
</g>
<!-- 2392 -->
<g id="node5" class="node"><title>2392</title>
<g id="a_node5"><a xlink:title="6th_week">
<ellipse fill="#c81d25" stroke="black" cx="28.7589" cy="-131.149" rx="28.6953" ry="18"/>
<text text-anchor="middle" x="28.7589" y="-127.449" font-family="Times,serif" font-size="14.00">2392</text>
</a>
</g>
</g>
<!-- 2392&#45;&gt;23901 -->
<g id="edge44" class="edge"><title>2392&#45;&gt;23901</title>
<path fill="none" stroke="black" d="M55.1631,-138.567C82.4388,-146.23 124.898,-158.159 153.159,-166.099"/>
</g>
<!-- 4648 -->
<g id="node7" class="node"><title>4648</title>
<g id="a_node7"><a xlink:title="PRE">
<ellipse fill="#71a9f7" stroke="black" cx="560.593" cy="-407.917" rx="28.6953" ry="18"/>
<text text-anchor="middle" x="560.593" y="-404.217" font-family="Times,serif" font-size="14.00">4648</text>
</a>
</g>
</g>
<!-- 4648&#45;&gt;9917 -->
<g id="edge42" class="edge"><title>4648&#45;&gt;9917</title>
<path fill="none" stroke="black" d="M562.631,-426.031C565.336,-450.064 570.083,-492.245 572.786,-516.261"/>
</g>
<!-- 7698 -->
<g id="node11" class="node"><title>7698</title>
<g id="a_node11"><a xlink:title="PRE">
<ellipse fill="#71a9f7" stroke="black" cx="1021.51" cy="-645.26" rx="28.6953" ry="18"/>
<text text-anchor="middle" x="1021.51" y="-641.56" font-family="Times,serif" font-size="14.00">7698</text>
</a>
</g>
</g>
<!-- 6636&#45;&gt;7698 -->
<g id="edge7" class="edge"><title>6636&#45;&gt;7698</title>
<path fill="none" stroke="black" d="M954.588,-535.829C969.351,-559.97 996.186,-603.853 1010.99,-628.067"/>
</g>
<!-- 8487 -->
<g id="node12" class="node"><title>8487</title>
<g id="a_node12"><a xlink:title="PRE">
<ellipse fill="#71a9f7" stroke="black" cx="875.462" cy="-409.224" rx="28.6953" ry="18"/>
<text text-anchor="middle" x="875.462" y="-405.524" font-family="Times,serif" font-size="14.00">8487</text>
</a>
</g>
</g>
<!-- 6636&#45;&gt;8487 -->
<g id="edge20" class="edge"><title>6636&#45;&gt;8487</title>
<path fill="none" stroke="black" d="M933.423,-501.653C920.518,-481.073 898.992,-446.746 886.12,-426.22"/>
</g>
<!-- 9457 -->
<g id="node14" class="node"><title>9457</title>
<g id="a_node14"><a xlink:title="PRE">
<ellipse fill="#71a9f7" stroke="black" cx="948.326" cy="-392.644" rx="28.6953" ry="18"/>
<text text-anchor="middle" x="948.326" y="-388.944" font-family="Times,serif" font-size="14.00">9457</text>
</a>
</g>
</g>
<!-- 6636&#45;&gt;9457 -->
<g id="edge26" class="edge"><title>6636&#45;&gt;9457</title>
<path fill="none" stroke="black" d="M944.754,-500.699C945.547,-476.723 946.938,-434.641 947.73,-410.681"/>
</g>
<!-- 17948 -->
<g id="node23" class="node"><title>17948</title>
<g id="a_node23"><a xlink:title="Day_0">
<ellipse fill="#e5dada" stroke="black" cx="1056.47" cy="-343.969" rx="32.4942" ry="18"/>
<text text-anchor="middle" x="1056.47" y="-340.269" font-family="Times,serif" font-size="14.00">17948</text>
</a>
</g>
</g>
<!-- 6636&#45;&gt;17948 -->
<g id="edge2" class="edge"><title>6636&#45;&gt;17948</title>
<path fill="none" stroke="black" d="M954.925,-502.009C976.337,-468.683 1024.04,-394.43 1045.56,-360.936"/>
</g>
<!-- 29107 -->
<g id="node34" class="node"><title>29107</title>
<g id="a_node34"><a xlink:title="PRE">
<ellipse fill="#71a9f7" stroke="black" cx="1108.88" cy="-588.855" rx="32.4942" ry="18"/>
<text text-anchor="middle" x="1108.88" y="-585.155" font-family="Times,serif" font-size="14.00">29107</text>
</a>
</g>
</g>
<!-- 6636&#45;&gt;29107 -->
<g id="edge29" class="edge"><title>6636&#45;&gt;29107</title>
<path fill="none" stroke="black" d="M968.109,-528.961C998.716,-541.983 1051.49,-564.437 1083,-577.842"/>
</g>
<!-- 4099 -->
<g id="node38" class="node"><title>4099</title>
<g id="a_node38"><a xlink:title="PRE">
<ellipse fill="#71a9f7" stroke="black" cx="1102.26" cy="-484.855" rx="28.6953" ry="18"/>
<text text-anchor="middle" x="1102.26" y="-481.155" font-family="Times,serif" font-size="14.00">4099</text>
</a>
</g>
</g>
<!-- 6636&#45;&gt;4099 -->
<g id="edge35" class="edge"><title>6636&#45;&gt;4099</title>
<path fill="none" stroke="black" d="M971.336,-512.94C1000.38,-506.709 1046.16,-496.889 1075.17,-490.666"/>
</g>
<!-- 23576 -->
<g id="node51" class="node"><title>23576</title>
<g id="a_node51"><a xlink:title="PRE">
<ellipse fill="#71a9f7" stroke="black" cx="1023.32" cy="-443.104" rx="32.4942" ry="18"/>
<text text-anchor="middle" x="1023.32" y="-439.404" font-family="Times,serif" font-size="14.00">23576</text>
</a>
</g>
</g>
<!-- 6636&#45;&gt;23576 -->
<g id="edge31" class="edge"><title>6636&#45;&gt;23576</title>
<path fill="none" stroke="black" d="M960.177,-503.458C973.73,-490.503 993.079,-472.009 1006.78,-458.914"/>
</g>
<!-- 6969 -->
<g id="node9" class="node"><title>6969</title>
<g id="a_node9"><a xlink:title="Day_0">
<ellipse fill="#e5dada" stroke="black" cx="1079.03" cy="-242.215" rx="28.6953" ry="18"/>
<text text-anchor="middle" x="1079.03" y="-238.515" font-family="Times,serif" font-size="14.00">6969</text>
</a>
</g>
</g>
<!-- 6969&#45;&gt;17948 -->
<g id="edge54" class="edge"><title>6969&#45;&gt;17948</title>
<path fill="none" stroke="black" d="M1075,-260.407C1070.89,-278.928 1064.56,-307.471 1060.47,-325.935"/>
</g>
<!-- 7693 -->
<g id="node10" class="node"><title>7693</title>
<g id="a_node10"><a xlink:title="PRE">
<ellipse fill="#71a9f7" stroke="black" cx="1230.12" cy="-696" rx="28.6953" ry="18"/>
<text text-anchor="middle" x="1230.12" y="-692.3" font-family="Times,serif" font-size="14.00">7693</text>
</a>
</g>
</g>
<!-- 7693&#45;&gt;29107 -->
<g id="edge34" class="edge"><title>7693&#45;&gt;29107</title>
<path fill="none" stroke="black" d="M1213.52,-681.327C1190.69,-661.152 1149.79,-625.01 1126.46,-604.392"/>
</g>
<!-- 30033 -->
<g id="node35" class="node"><title>30033</title>
<g id="a_node35"><a xlink:title="PRE">
<ellipse fill="#71a9f7" stroke="black" cx="1117.94" cy="-767.804" rx="32.4942" ry="18"/>
<text text-anchor="middle" x="1117.94" y="-764.104" font-family="Times,serif" font-size="14.00">30033</text>
</a>
</g>
</g>
<!-- 7698&#45;&gt;30033 -->
<g id="edge40" class="edge"><title>7698&#45;&gt;30033</title>
<path fill="none" stroke="black" d="M1034.31,-661.533C1052.65,-684.841 1086.23,-727.511 1104.77,-751.071"/>
</g>
<!-- 8488&#45;&gt;22428 -->
<g id="edge36" class="edge"><title>8488&#45;&gt;22428</title>
<path fill="none" stroke="black" d="M859.589,-1094.37C840.804,-1073.37 807.914,-1036.6 788.982,-1015.44"/>
</g>
<!-- 19555 -->
<g id="node25" class="node"><title>19555</title>
<g id="a_node25"><a xlink:title="PRE">
<ellipse fill="#71a9f7" stroke="black" cx="410.642" cy="-593.494" rx="32.4942" ry="18"/>
<text text-anchor="middle" x="410.642" y="-589.794" font-family="Times,serif" font-size="14.00">19555</text>
</a>
</g>
</g>
<!-- 9917&#45;&gt;19555 -->
<g id="edge3" class="edge"><title>9917&#45;&gt;19555</title>
<path fill="none" stroke="black" d="M549.886,-543.325C519.745,-554.184 469.197,-572.397 438.007,-583.635"/>
</g>
<!-- 28507 -->
<g id="node33" class="node"><title>28507</title>
<g id="a_node33"><a xlink:title="PRE">
<ellipse fill="#71a9f7" stroke="black" cx="644.519" cy="-447.227" rx="32.4942" ry="18"/>
<text text-anchor="middle" x="644.519" y="-443.527" font-family="Times,serif" font-size="14.00">28507</text>
</a>
</g>
</g>
<!-- 9917&#45;&gt;28507 -->
<g id="edge10" class="edge"><title>9917&#45;&gt;28507</title>
<path fill="none" stroke="black" d="M587.93,-517.955C600.312,-502.479 618.791,-479.384 631.231,-463.835"/>
</g>
<!-- 11679 -->
<g id="node16" class="node"><title>11679</title>
<g id="a_node16"><a xlink:title="Day_0">
<ellipse fill="#e5dada" stroke="black" cx="1021.09" cy="-174.296" rx="32.4942" ry="18"/>
<text text-anchor="middle" x="1021.09" y="-170.596" font-family="Times,serif" font-size="14.00">11679</text>
</a>
</g>
</g>
<!-- 11679&#45;&gt;17948 -->
<g id="edge23" class="edge"><title>11679&#45;&gt;17948</title>
<path fill="none" stroke="black" d="M1024.88,-192.454C1031.68,-225.111 1045.92,-293.38 1052.71,-325.942"/>
</g>
<!-- 12922 -->
<g id="node17" class="node"><title>12922</title>
<g id="a_node17"><a xlink:title="PRE">
<ellipse fill="#71a9f7" stroke="black" cx="277.933" cy="-627.598" rx="32.4942" ry="18"/>
<text text-anchor="middle" x="277.933" y="-623.898" font-family="Times,serif" font-size="14.00">12922</text>
</a>
</g>
</g>
<!-- 12922&#45;&gt;19555 -->
<g id="edge15" class="edge"><title>12922&#45;&gt;19555</title>
<path fill="none" stroke="black" d="M307.716,-619.945C329.572,-614.328 359.127,-606.733 380.959,-601.122"/>
</g>
<!-- 13178 -->
<g id="node19" class="node"><title>13178</title>
<g id="a_node19"><a xlink:title="6th_week">
<ellipse fill="#c81d25" stroke="black" cx="55.1202" cy="-63.1621" rx="32.4942" ry="18"/>
<text text-anchor="middle" x="55.1202" y="-59.4621" font-family="Times,serif" font-size="14.00">13178</text>
</a>
</g>
</g>
<!-- 13178&#45;&gt;23901 -->
<g id="edge37" class="edge"><title>13178&#45;&gt;23901</title>
<path fill="none" stroke="black" d="M72.5449,-78.3826C96.7742,-99.5468 140.399,-137.653 164.733,-158.909"/>
</g>
<!-- 14395 -->
<g id="node20" class="node"><title>14395</title>
<g id="a_node20"><a xlink:title="PRE">
<ellipse fill="#71a9f7" stroke="black" cx="469.025" cy="-317.102" rx="32.4942" ry="18"/>
<text text-anchor="middle" x="469.025" y="-313.402" font-family="Times,serif" font-size="14.00">14395</text>
</a>
</g>
</g>
<!-- 14395&#45;&gt;20123 -->
<g id="edge25" class="edge"><title>14395&#45;&gt;20123</title>
<path fill="none" stroke="black" d="M474.247,-335.133C482.178,-362.519 497.172,-414.288 505.078,-441.587"/>
</g>
<!-- 16275 -->
<g id="node21" class="node"><title>16275</title>
<g id="a_node21"><a xlink:title="PRE">
<ellipse fill="#71a9f7" stroke="black" cx="1270.51" cy="-648.255" rx="32.4942" ry="18"/>
<text text-anchor="middle" x="1270.51" y="-644.555" font-family="Times,serif" font-size="14.00">16275</text>
</a>
</g>
</g>
<!-- 16275&#45;&gt;29107 -->
<g id="edge46" class="edge"><title>16275&#45;&gt;29107</title>
<path fill="none" stroke="black" d="M1243.09,-638.179C1213.28,-627.222 1165.92,-609.818 1136.17,-598.881"/>
</g>
<!-- 28306 -->
<g id="node32" class="node"><title>28306</title>
<g id="a_node32"><a xlink:title="Day_0">
<ellipse fill="#e5dada" stroke="black" cx="1121.05" cy="-177.879" rx="32.4942" ry="18"/>
<text text-anchor="middle" x="1121.05" y="-174.179" font-family="Times,serif" font-size="14.00">28306</text>
</a>
</g>
</g>
<!-- 17948&#45;&gt;28306 -->
<g id="edge11" class="edge"><title>17948&#45;&gt;28306</title>
<path fill="none" stroke="black" d="M1063.38,-326.195C1075.81,-294.227 1101.79,-227.401 1114.19,-195.526"/>
</g>
<!-- 11377 -->
<g id="node45" class="node"><title>11377</title>
<g id="a_node45"><a xlink:title="Day_0">
<ellipse fill="#e5dada" stroke="black" cx="1189.39" cy="-236.51" rx="32.4942" ry="18"/>
<text text-anchor="middle" x="1189.39" y="-232.81" font-family="Times,serif" font-size="14.00">11377</text>
</a>
</g>
</g>
<!-- 17948&#45;&gt;11377 -->
<g id="edge1" class="edge"><title>17948&#45;&gt;11377</title>
<path fill="none" stroke="black" d="M1074.95,-329.028C1100.2,-308.612 1145.24,-272.2 1170.64,-251.671"/>
</g>
<!-- 14810 -->
<g id="node53" class="node"><title>14810</title>
<g id="a_node53"><a xlink:title="6th_week">
<ellipse fill="#c81d25" stroke="black" cx="1212.62" cy="-284.631" rx="32.4942" ry="18"/>
<text text-anchor="middle" x="1212.62" y="-280.931" font-family="Times,serif" font-size="14.00">14810</text>
</a>
</g>
</g>
<!-- 17948&#45;&gt;14810 -->
<g id="edge12" class="edge"><title>17948&#45;&gt;14810</title>
<path fill="none" stroke="black" d="M1083.31,-333.769C1111.91,-322.9 1156.94,-305.791 1185.61,-294.897"/>
</g>
<!-- 28151 -->
<g id="node31" class="node"><title>28151</title>
<g id="a_node31"><a xlink:title="PRE">
<ellipse fill="#71a9f7" stroke="black" cx="360.805" cy="-443.998" rx="32.4942" ry="18"/>
<text text-anchor="middle" x="360.805" y="-440.298" font-family="Times,serif" font-size="14.00">28151</text>
</a>
</g>
</g>
<!-- 20123&#45;&gt;28151 -->
<g id="edge18" class="edge"><title>20123&#45;&gt;28151</title>
<path fill="none" stroke="black" d="M478.197,-456.152C452.98,-453.541 418.016,-449.921 392.814,-447.312"/>
</g>
<!-- 23318 -->
<g id="node55" class="node"><title>23318</title>
<g id="a_node55"><a xlink:title="6th_week">
<ellipse fill="#c81d25" stroke="black" cx="124.583" cy="-17.7634" rx="32.4942" ry="18"/>
<text text-anchor="middle" x="124.583" y="-14.0634" font-family="Times,serif" font-size="14.00">23318</text>
</a>
</g>
</g>
<!-- 23901&#45;&gt;23318 -->
<g id="edge14" class="edge"><title>23901&#45;&gt;23318</title>
<path fill="none" stroke="black" d="M175.841,-156.649C164.745,-126.585 142.303,-65.7755 131.163,-35.5917"/>
</g>
<!-- 29612 -->
<g id="node54" class="node"><title>29612</title>
<g id="a_node54"><a xlink:title="PRE">
<ellipse fill="#71a9f7" stroke="black" cx="1278.32" cy="-587.743" rx="32.4942" ry="18"/>
<text text-anchor="middle" x="1278.32" y="-584.043" font-family="Times,serif" font-size="14.00">29612</text>
</a>
</g>
</g>
<!-- 29107&#45;&gt;29612 -->
<g id="edge51" class="edge"><title>29107&#45;&gt;29612</title>
<path fill="none" stroke="black" d="M1141.55,-588.641C1171.55,-588.444 1215.78,-588.154 1245.75,-587.957"/>
</g>
<!-- 3748 -->
<g id="node37" class="node"><title>3748</title>
<g id="a_node37"><a xlink:title="Day_0">
<ellipse fill="#e5dada" stroke="black" cx="386.175" cy="-1201.15" rx="28.6953" ry="18"/>
<text text-anchor="middle" x="386.175" y="-1197.45" font-family="Times,serif" font-size="14.00">3748</text>
</a>
</g>
</g>
<!-- 2468&#45;&gt;3748 -->
<g id="edge45" class="edge"><title>2468&#45;&gt;3748</title>
<path fill="none" stroke="black" d="M531.35,-1128.83C499.234,-1144.83 440.781,-1173.95 408.715,-1189.92"/>
</g>
<!-- 7521 -->
<g id="node40" class="node"><title>7521</title>
<g id="a_node40"><a xlink:title="Day_0">
<ellipse fill="#e5dada" stroke="black" cx="480.125" cy="-1192.72" rx="28.6953" ry="18"/>
<text text-anchor="middle" x="480.125" y="-1189.02" font-family="Times,serif" font-size="14.00">7521</text>
</a>
</g>
</g>
<!-- 2468&#45;&gt;7521 -->
<g id="edge27" class="edge"><title>2468&#45;&gt;7521</title>
<path fill="none" stroke="black" d="M538.678,-1133.13C526.003,-1146.03 508.078,-1164.27 495.408,-1177.16"/>
</g>
<!-- 8858 -->
<g id="node41" class="node"><title>8858</title>
<g id="a_node41"><a xlink:title="Day_0">
<ellipse fill="#e5dada" stroke="black" cx="427.352" cy="-1142.54" rx="28.6953" ry="18"/>
<text text-anchor="middle" x="427.352" y="-1138.84" font-family="Times,serif" font-size="14.00">8858</text>
</a>
</g>
</g>
<!-- 2468&#45;&gt;8858 -->
<g id="edge16" class="edge"><title>2468&#45;&gt;8858</title>
<path fill="none" stroke="black" d="M526.505,-1122.98C505.265,-1127.17 476.002,-1132.94 454.775,-1137.13"/>
</g>
<!-- 10019 -->
<g id="node42" class="node"><title>10019</title>
<g id="a_node42"><a xlink:title="Day_0">
<ellipse fill="#e5dada" stroke="black" cx="533.355" cy="-1292.86" rx="32.4942" ry="18"/>
<text text-anchor="middle" x="533.355" y="-1289.16" font-family="Times,serif" font-size="14.00">10019</text>
</a>
</g>
</g>
<!-- 2468&#45;&gt;10019 -->
<g id="edge4" class="edge"><title>2468&#45;&gt;10019</title>
<path fill="none" stroke="black" d="M551.852,-1135.66C547.889,-1169.34 539.427,-1241.25 535.473,-1274.86"/>
</g>
<!-- 14760 -->
<g id="node46" class="node"><title>14760</title>
<g id="a_node46"><a xlink:title="Day_0">
<ellipse fill="#e5dada" stroke="black" cx="455.591" cy="-1262.86" rx="32.4942" ry="18"/>
<text text-anchor="middle" x="455.591" y="-1259.16" font-family="Times,serif" font-size="14.00">14760</text>
</a>
</g>
</g>
<!-- 2468&#45;&gt;14760 -->
<g id="edge32" class="edge"><title>2468&#45;&gt;14760</title>
<path fill="none" stroke="black" d="M542.695,-1134.22C523.817,-1162.1 486.041,-1217.89 467.049,-1245.94"/>
</g>
<!-- 15034 -->
<g id="node47" class="node"><title>15034</title>
<g id="a_node47"><a xlink:title="Day_0">
<ellipse fill="#e5dada" stroke="black" cx="424.749" cy="-1082.49" rx="32.4942" ry="18"/>
<text text-anchor="middle" x="424.749" y="-1078.79" font-family="Times,serif" font-size="14.00">15034</text>
</a>
</g>
</g>
<!-- 2468&#45;&gt;15034 -->
<g id="edge52" class="edge"><title>2468&#45;&gt;15034</title>
<path fill="none" stroke="black" d="M527.518,-1110.38C506.25,-1104.61 476.392,-1096.5 454.337,-1090.52"/>
</g>
<!-- 16931 -->
<g id="node48" class="node"><title>16931</title>
<g id="a_node48"><a xlink:title="Day_0">
<ellipse fill="#e5dada" stroke="black" cx="551.208" cy="-1225.46" rx="32.4942" ry="18"/>
<text text-anchor="middle" x="551.208" y="-1221.76" font-family="Times,serif" font-size="14.00">16931</text>
</a>
</g>
</g>
<!-- 2468&#45;&gt;16931 -->
<g id="edge50" class="edge"><title>2468&#45;&gt;16931</title>
<path fill="none" stroke="black" d="M553.511,-1135.86C552.998,-1155.82 552.182,-1187.57 551.671,-1207.43"/>
</g>
<!-- 17508 -->
<g id="node49" class="node"><title>17508</title>
<g id="a_node49"><a xlink:title="Day_0">
<ellipse fill="#e5dada" stroke="black" cx="683.187" cy="-1169.02" rx="32.4942" ry="18"/>
<text text-anchor="middle" x="683.187" y="-1165.32" font-family="Times,serif" font-size="14.00">17508</text>
</a>
</g>
</g>
<!-- 2468&#45;&gt;17508 -->
<g id="edge22" class="edge"><title>2468&#45;&gt;17508</title>
<path fill="none" stroke="black" d="M578.284,-1127.24C600.653,-1136.15 633.754,-1149.33 656.77,-1158.5"/>
</g>
<!-- 23480 -->
<g id="node50" class="node"><title>23480</title>
<g id="a_node50"><a xlink:title="Day_0">
<ellipse fill="#e5dada" stroke="black" cx="659.014" cy="-1225.42" rx="32.4942" ry="18"/>
<text text-anchor="middle" x="659.014" y="-1221.72" font-family="Times,serif" font-size="14.00">23480</text>
</a>
</g>
</g>
<!-- 2468&#45;&gt;23480 -->
<g id="edge9" class="edge"><title>2468&#45;&gt;23480</title>
<path fill="none" stroke="black" d="M569.03,-1133.01C588.77,-1153.28 623.246,-1188.69 643.307,-1209.29"/>
</g>
<!-- 29785 -->
<g id="node52" class="node"><title>29785</title>
<g id="a_node52"><a xlink:title="Day_0">
<ellipse fill="#e5dada" stroke="black" cx="621.153" cy="-1271.87" rx="32.4942" ry="18"/>
<text text-anchor="middle" x="621.153" y="-1268.17" font-family="Times,serif" font-size="14.00">29785</text>
</a>
</g>
</g>
<!-- 2468&#45;&gt;29785 -->
<g id="edge17" class="edge"><title>2468&#45;&gt;29785</title>
<path fill="none" stroke="black" d="M561.556,-1134.96C574.457,-1164.6 600.551,-1224.54 613.503,-1254.3"/>
</g>
<!-- 6735 -->
<g id="node39" class="node"><title>6735</title>
<g id="a_node39"><a xlink:title="Day_0">
<ellipse fill="#e5dada" stroke="black" cx="285.808" cy="-1311.34" rx="28.6953" ry="18"/>
<text text-anchor="middle" x="285.808" y="-1307.64" font-family="Times,serif" font-size="14.00">6735</text>
</a>
</g>
</g>
<!-- 3748&#45;&gt;6735 -->
<g id="edge43" class="edge"><title>3748&#45;&gt;6735</title>
<path fill="none" stroke="black" d="M371.795,-1216.94C352.715,-1237.88 319.227,-1274.65 300.161,-1295.58"/>
</g>
<!-- 10534 -->
<g id="node43" class="node"><title>10534</title>
<g id="a_node43"><a xlink:title="PRE">
<ellipse fill="#71a9f7" stroke="black" cx="1267.4" cy="-475.509" rx="32.4942" ry="18"/>
<text text-anchor="middle" x="1267.4" y="-471.809" font-family="Times,serif" font-size="14.00">10534</text>
</a>
</g>
</g>
<!-- 4099&#45;&gt;10534 -->
<g id="edge5" class="edge"><title>4099&#45;&gt;10534</title>
<path fill="none" stroke="black" d="M1131.03,-483.227C1160.04,-481.585 1204.76,-479.054 1235.01,-477.342"/>
</g>
<!-- 10721 -->
<g id="node44" class="node"><title>10721</title>
<g id="a_node44"><a xlink:title="PRE">
<ellipse fill="#71a9f7" stroke="black" cx="1249.83" cy="-414.988" rx="32.4942" ry="18"/>
<text text-anchor="middle" x="1249.83" y="-411.288" font-family="Times,serif" font-size="14.00">10721</text>
</a>
</g>
</g>
<!-- 4099&#45;&gt;10721 -->
<g id="edge13" class="edge"><title>4099&#45;&gt;10721</title>
<path fill="none" stroke="black" d="M1125.32,-473.938C1152.4,-461.12 1197.13,-439.939 1224.96,-426.761"/>
</g>
</g>
</svg>
