<?xml version="1.0" encoding="UTF-8" standalone="no"?>
<!DOCTYPE svg PUBLIC "-//W3C//DTD SVG 1.1//EN"
 "http://www.w3.org/Graphics/SVG/1.1/DTD/svg11.dtd">
<!-- Generated by graphviz version 2.38.0 (20140413.2041)
 -->
<!-- Title: %3 Pages: 1 -->
<svg width="1751pt" height="1759pt"
 viewBox="0.00 0.00 1751.00 1759.00" xmlns="http://www.w3.org/2000/svg" xmlns:xlink="http://www.w3.org/1999/xlink">
<g id="graph0" class="graph" transform="scale(1 1) rotate(0) translate(4 1755)">
<title>%3</title>
<polygon fill="white" stroke="none" points="-4,4 -4,-1755 1747,-1755 1747,4 -4,4"/>
<!-- 50 -->
<g id="node1" class="node"><title>50</title>
<g id="a_node1"><a xlink:title="PRE">
<ellipse fill="#71a9f7" stroke="black" cx="800.458" cy="-1537.98" rx="27" ry="18"/>
<text text-anchor="middle" x="800.458" y="-1534.28" font-family="Times,serif" font-size="14.00">50</text>
</a>
</g>
</g>
<!-- 1219 -->
<g id="node4" class="node"><title>1219</title>
<g id="a_node4"><a xlink:title="PRE">
<ellipse fill="#71a9f7" stroke="black" cx="698.176" cy="-1700.7" rx="28.6953" ry="18"/>
<text text-anchor="middle" x="698.176" y="-1697" font-family="Times,serif" font-size="14.00">1219</text>
</a>
</g>
</g>
<!-- 50&#45;&gt;1219 -->
<g id="edge20" class="edge"><title>50&#45;&gt;1219</title>
<path fill="none" stroke="black" d="M789.897,-1554.78C770.297,-1585.96 728.504,-1652.45 708.833,-1683.75"/>
</g>
<!-- 11552 -->
<g id="node30" class="node"><title>11552</title>
<g id="a_node30"><a xlink:title="PRE">
<ellipse fill="#71a9f7" stroke="black" cx="886.586" cy="-1284.44" rx="32.4942" ry="18"/>
<text text-anchor="middle" x="886.586" y="-1280.74" font-family="Times,serif" font-size="14.00">11552</text>
</a>
</g>
</g>
<!-- 50&#45;&gt;11552 -->
<g id="edge50" class="edge"><title>50&#45;&gt;11552</title>
<path fill="none" stroke="black" d="M806.514,-1520.15C822.328,-1473.6 864.73,-1348.78 880.537,-1302.25"/>
</g>
<!-- 22427 -->
<g id="node61" class="node"><title>22427</title>
<g id="a_node61"><a xlink:title="PRE">
<ellipse fill="#71a9f7" stroke="black" cx="777.386" cy="-1733.35" rx="32.4942" ry="18"/>
<text text-anchor="middle" x="777.386" y="-1729.65" font-family="Times,serif" font-size="14.00">22427</text>
</a>
</g>
</g>
<!-- 50&#45;&gt;22427 -->
<g id="edge35" class="edge"><title>50&#45;&gt;22427</title>
<path fill="none" stroke="black" d="M798.329,-1556.01C793.933,-1593.23 783.901,-1678.18 779.51,-1715.36"/>
</g>
<!-- 691 -->
<g id="node2" class="node"><title>691</title>
<g id="a_node2"><a xlink:title="PRE">
<ellipse fill="#71a9f7" stroke="black" cx="1412.35" cy="-1240.04" rx="27" ry="18"/>
<text text-anchor="middle" x="1412.35" y="-1236.34" font-family="Times,serif" font-size="14.00">691</text>
</a>
</g>
</g>
<!-- 9788 -->
<g id="node26" class="node"><title>9788</title>
<g id="a_node26"><a xlink:title="PRE">
<ellipse fill="#71a9f7" stroke="black" cx="1316.61" cy="-1077.89" rx="28.6953" ry="18"/>
<text text-anchor="middle" x="1316.61" y="-1074.19" font-family="Times,serif" font-size="14.00">9788</text>
</a>
</g>
</g>
<!-- 691&#45;&gt;9788 -->
<g id="edge62" class="edge"><title>691&#45;&gt;9788</title>
<path fill="none" stroke="black" d="M1402.29,-1223C1383.95,-1191.93 1345.28,-1126.45 1326.83,-1095.2"/>
</g>
<!-- 750 -->
<g id="node3" class="node"><title>750</title>
<g id="a_node3"><a xlink:title="PRE">
<ellipse fill="#71a9f7" stroke="black" cx="1349.16" cy="-178.792" rx="27" ry="18"/>
<text text-anchor="middle" x="1349.16" y="-175.092" font-family="Times,serif" font-size="14.00">750</text>
</a>
</g>
</g>
<!-- 12717 -->
<g id="node37" class="node"><title>12717</title>
<g id="a_node37"><a xlink:title="PRE">
<ellipse fill="#71a9f7" stroke="black" cx="1249.96" cy="-382.448" rx="32.4942" ry="18"/>
<text text-anchor="middle" x="1249.96" y="-378.748" font-family="Times,serif" font-size="14.00">12717</text>
</a>
</g>
</g>
<!-- 750&#45;&gt;12717 -->
<g id="edge40" class="edge"><title>750&#45;&gt;12717</title>
<path fill="none" stroke="black" d="M1340.7,-196.155C1322,-234.536 1277.34,-326.233 1258.53,-364.839"/>
</g>
<!-- 20816 -->
<g id="node57" class="node"><title>20816</title>
<g id="a_node57"><a xlink:title="PRE">
<ellipse fill="#71a9f7" stroke="black" cx="1429.18" cy="-18.4176" rx="32.4942" ry="18"/>
<text text-anchor="middle" x="1429.18" y="-14.7176" font-family="Times,serif" font-size="14.00">20816</text>
</a>
</g>
</g>
<!-- 750&#45;&gt;20816 -->
<g id="edge49" class="edge"><title>750&#45;&gt;20816</title>
<path fill="none" stroke="black" d="M1357.72,-161.629C1373.04,-130.923 1404.98,-66.9094 1420.44,-35.9433"/>
</g>
<!-- 1700 -->
<g id="node5" class="node"><title>1700</title>
<g id="a_node5"><a xlink:title="PRE">
<ellipse fill="#71a9f7" stroke="black" cx="662.143" cy="-1105.38" rx="28.6953" ry="18"/>
<text text-anchor="middle" x="662.143" y="-1101.68" font-family="Times,serif" font-size="14.00">1700</text>
</a>
</g>
</g>
<!-- 12100 -->
<g id="node34" class="node"><title>12100</title>
<g id="a_node34"><a xlink:title="PRE">
<ellipse fill="#71a9f7" stroke="black" cx="833.223" cy="-1019.77" rx="32.4942" ry="18"/>
<text text-anchor="middle" x="833.223" y="-1016.07" font-family="Times,serif" font-size="14.00">12100</text>
</a>
</g>
</g>
<!-- 1700&#45;&gt;12100 -->
<g id="edge45" class="edge"><title>1700&#45;&gt;12100</title>
<path fill="none" stroke="black" d="M684.861,-1094.01C717.128,-1077.86 775.974,-1048.42 809.03,-1031.87"/>
</g>
<!-- 1881 -->
<g id="node6" class="node"><title>1881</title>
<g id="a_node6"><a xlink:title="PRE">
<ellipse fill="#71a9f7" stroke="black" cx="1137.9" cy="-1145.08" rx="28.6953" ry="18"/>
<text text-anchor="middle" x="1137.9" y="-1141.38" font-family="Times,serif" font-size="14.00">1881</text>
</a>
</g>
</g>
<!-- 16806 -->
<g id="node50" class="node"><title>16806</title>
<g id="a_node50"><a xlink:title="PRE">
<ellipse fill="#71a9f7" stroke="black" cx="1236.65" cy="-1349.43" rx="32.4942" ry="18"/>
<text text-anchor="middle" x="1236.65" y="-1345.73" font-family="Times,serif" font-size="14.00">16806</text>
</a>
</g>
</g>
<!-- 1881&#45;&gt;16806 -->
<g id="edge2" class="edge"><title>1881&#45;&gt;16806</title>
<path fill="none" stroke="black" d="M1146.32,-1162.5C1164.93,-1201.01 1209.39,-1293.02 1228.11,-1331.76"/>
</g>
<!-- 19972 -->
<g id="node54" class="node"><title>19972</title>
<g id="a_node54"><a xlink:title="PRE">
<ellipse fill="#71a9f7" stroke="black" cx="1028.13" cy="-908.188" rx="32.4942" ry="18"/>
<text text-anchor="middle" x="1028.13" y="-904.488" font-family="Times,serif" font-size="14.00">19972</text>
</a>
</g>
</g>
<!-- 1881&#45;&gt;19972 -->
<g id="edge16" class="edge"><title>1881&#45;&gt;19972</title>
<path fill="none" stroke="black" d="M1129.83,-1127.66C1109.53,-1083.85 1056.53,-969.469 1036.22,-925.633"/>
</g>
<!-- 2225 -->
<g id="node7" class="node"><title>2225</title>
<g id="a_node7"><a xlink:title="PRE">
<ellipse fill="#71a9f7" stroke="black" cx="1344.32" cy="-542.323" rx="28.6953" ry="18"/>
<text text-anchor="middle" x="1344.32" y="-538.623" font-family="Times,serif" font-size="14.00">2225</text>
</a>
</g>
</g>
<!-- 3909 -->
<g id="node13" class="node"><title>3909</title>
<g id="a_node13"><a xlink:title="PRE">
<ellipse fill="#71a9f7" stroke="black" cx="1260.53" cy="-708.906" rx="28.6953" ry="18"/>
<text text-anchor="middle" x="1260.53" y="-705.206" font-family="Times,serif" font-size="14.00">3909</text>
</a>
</g>
</g>
<!-- 2225&#45;&gt;3909 -->
<g id="edge37" class="edge"><title>2225&#45;&gt;3909</title>
<path fill="none" stroke="black" d="M1335.67,-559.523C1319.61,-591.444 1285.38,-659.511 1269.26,-691.55"/>
</g>
<!-- 2942 -->
<g id="node8" class="node"><title>2942</title>
<g id="a_node8"><a xlink:title="PRE">
<ellipse fill="#71a9f7" stroke="black" cx="1049.76" cy="-743.315" rx="28.6953" ry="18"/>
<text text-anchor="middle" x="1049.76" y="-739.615" font-family="Times,serif" font-size="14.00">2942</text>
</a>
</g>
</g>
<!-- 2942&#45;&gt;19972 -->
<g id="edge48" class="edge"><title>2942&#45;&gt;19972</title>
<path fill="none" stroke="black" d="M1047.4,-761.273C1043.25,-792.905 1034.69,-858.208 1030.52,-890.001"/>
</g>
<!-- 3309 -->
<g id="node9" class="node"><title>3309</title>
<g id="a_node9"><a xlink:title="PRE">
<ellipse fill="#71a9f7" stroke="black" cx="1327.27" cy="-1523.91" rx="28.6953" ry="18"/>
<text text-anchor="middle" x="1327.27" y="-1520.21" font-family="Times,serif" font-size="14.00">3309</text>
</a>
</g>
</g>
<!-- 3309&#45;&gt;16806 -->
<g id="edge54" class="edge"><title>3309&#45;&gt;16806</title>
<path fill="none" stroke="black" d="M1318.25,-1506.54C1300.92,-1473.18 1263.17,-1400.49 1245.77,-1366.99"/>
</g>
<!-- 3376 -->
<g id="node10" class="node"><title>3376</title>
<g id="a_node10"><a xlink:title="PRE">
<ellipse fill="#71a9f7" stroke="black" cx="1538.92" cy="-1180.2" rx="28.6953" ry="18"/>
<text text-anchor="middle" x="1538.92" y="-1176.5" font-family="Times,serif" font-size="14.00">3376</text>
</a>
</g>
</g>
<!-- 3376&#45;&gt;9788 -->
<g id="edge53" class="edge"><title>3376&#45;&gt;9788</title>
<path fill="none" stroke="black" d="M1515.55,-1169.45C1472.85,-1149.8 1382.72,-1108.31 1340.01,-1088.65"/>
</g>
<!-- 14604 -->
<g id="node41" class="node"><title>14604</title>
<g id="a_node41"><a xlink:title="PRE">
<ellipse fill="#71a9f7" stroke="black" cx="1710.81" cy="-1265.07" rx="32.4942" ry="18"/>
<text text-anchor="middle" x="1710.81" y="-1261.37" font-family="Times,serif" font-size="14.00">14604</text>
</a>
</g>
</g>
<!-- 3376&#45;&gt;14604 -->
<g id="edge38" class="edge"><title>3376&#45;&gt;14604</title>
<path fill="none" stroke="black" d="M1561.75,-1191.47C1594.17,-1207.48 1653.29,-1236.67 1686.51,-1253.07"/>
</g>
<!-- 3571 -->
<g id="node11" class="node"><title>3571</title>
<g id="a_node11"><a xlink:title="PRE">
<ellipse fill="#71a9f7" stroke="black" cx="1505.7" cy="-1102.54" rx="28.6953" ry="18"/>
<text text-anchor="middle" x="1505.7" y="-1098.84" font-family="Times,serif" font-size="14.00">3571</text>
</a>
</g>
</g>
<!-- 3571&#45;&gt;9788 -->
<g id="edge11" class="edge"><title>3571&#45;&gt;9788</title>
<path fill="none" stroke="black" d="M1477.39,-1098.85C1441.64,-1094.19 1380.5,-1086.22 1344.81,-1081.56"/>
</g>
<!-- 3707 -->
<g id="node12" class="node"><title>3707</title>
<g id="a_node12"><a xlink:title="PRE">
<ellipse fill="#71a9f7" stroke="black" cx="684.321" cy="-742.35" rx="28.6953" ry="18"/>
<text text-anchor="middle" x="684.321" y="-738.65" font-family="Times,serif" font-size="14.00">3707</text>
</a>
</g>
</g>
<!-- 5587 -->
<g id="node17" class="node"><title>5587</title>
<g id="a_node17"><a xlink:title="Day_0">
<ellipse fill="#e5dada" stroke="black" cx="403.837" cy="-565.282" rx="28.6953" ry="18"/>
<text text-anchor="middle" x="403.837" y="-561.582" font-family="Times,serif" font-size="14.00">5587</text>
</a>
</g>
</g>
<!-- 3707&#45;&gt;5587 -->
<g id="edge51" class="edge"><title>3707&#45;&gt;5587</title>
<path fill="none" stroke="black" d="M663.697,-729.329C611.7,-696.504 475.733,-610.67 424.114,-578.083"/>
</g>
<!-- 17678 -->
<g id="node52" class="node"><title>17678</title>
<g id="a_node52"><a xlink:title="PRE">
<ellipse fill="#71a9f7" stroke="black" cx="474.962" cy="-758.526" rx="32.4942" ry="18"/>
<text text-anchor="middle" x="474.962" y="-754.826" font-family="Times,serif" font-size="14.00">17678</text>
</a>
</g>
</g>
<!-- 3707&#45;&gt;17678 -->
<g id="edge41" class="edge"><title>3707&#45;&gt;17678</title>
<path fill="none" stroke="black" d="M655.65,-744.565C616.902,-747.559 548.007,-752.882 507.407,-756.019"/>
</g>
<!-- 3707&#45;&gt;19972 -->
<g id="edge31" class="edge"><title>3707&#45;&gt;19972</title>
<path fill="none" stroke="black" d="M707.146,-753.359C768.937,-783.164 939.129,-865.257 1003.25,-896.187"/>
</g>
<!-- 11081 -->
<g id="node29" class="node"><title>11081</title>
<g id="a_node29"><a xlink:title="PRE">
<ellipse fill="#71a9f7" stroke="black" cx="1419.1" cy="-583.792" rx="32.4942" ry="18"/>
<text text-anchor="middle" x="1419.1" y="-580.092" font-family="Times,serif" font-size="14.00">11081</text>
</a>
</g>
</g>
<!-- 3909&#45;&gt;11081 -->
<g id="edge25" class="edge"><title>3909&#45;&gt;11081</title>
<path fill="none" stroke="black" d="M1278.41,-694.797C1308.54,-671.023 1369.16,-623.197 1400.06,-598.819"/>
</g>
<!-- 12469 -->
<g id="node35" class="node"><title>12469</title>
<g id="a_node35"><a xlink:title="PRE">
<ellipse fill="#71a9f7" stroke="black" cx="1440.61" cy="-641.711" rx="32.4942" ry="18"/>
<text text-anchor="middle" x="1440.61" y="-638.011" font-family="Times,serif" font-size="14.00">12469</text>
</a>
</g>
</g>
<!-- 3909&#45;&gt;12469 -->
<g id="edge7" class="edge"><title>3909&#45;&gt;12469</title>
<path fill="none" stroke="black" d="M1285.19,-699.703C1318.81,-687.159 1378.81,-664.771 1413.61,-651.787"/>
</g>
<!-- 3909&#45;&gt;19972 -->
<g id="edge36" class="edge"><title>3909&#45;&gt;19972</title>
<path fill="none" stroke="black" d="M1243.44,-723.559C1200.68,-760.233 1089.34,-855.699 1045.88,-892.969"/>
</g>
<!-- 4219 -->
<g id="node14" class="node"><title>4219</title>
<g id="a_node14"><a xlink:title="PRE">
<ellipse fill="#71a9f7" stroke="black" cx="972.149" cy="-749.113" rx="28.6953" ry="18"/>
<text text-anchor="middle" x="972.149" y="-745.413" font-family="Times,serif" font-size="14.00">4219</text>
</a>
</g>
</g>
<!-- 4219&#45;&gt;19972 -->
<g id="edge26" class="edge"><title>4219&#45;&gt;19972</title>
<path fill="none" stroke="black" d="M978.354,-766.744C989.115,-797.322 1011.12,-859.845 1021.9,-890.477"/>
</g>
<!-- 4365 -->
<g id="node15" class="node"><title>4365</title>
<g id="a_node15"><a xlink:title="PRE">
<ellipse fill="#71a9f7" stroke="black" cx="789.176" cy="-1451.34" rx="28.6953" ry="18"/>
<text text-anchor="middle" x="789.176" y="-1447.64" font-family="Times,serif" font-size="14.00">4365</text>
</a>
</g>
</g>
<!-- 4365&#45;&gt;11552 -->
<g id="edge58" class="edge"><title>4365&#45;&gt;11552</title>
<path fill="none" stroke="black" d="M799.053,-1434.42C817.626,-1402.6 857.577,-1334.14 876.392,-1301.91"/>
</g>
<!-- 4740 -->
<g id="node16" class="node"><title>4740</title>
<g id="a_node16"><a xlink:title="Day_0">
<ellipse fill="#e5dada" stroke="black" cx="194.54" cy="-452.044" rx="28.6953" ry="18"/>
<text text-anchor="middle" x="194.54" y="-448.344" font-family="Times,serif" font-size="14.00">4740</text>
</a>
</g>
</g>
<!-- 4740&#45;&gt;5587 -->
<g id="edge5" class="edge"><title>4740&#45;&gt;5587</title>
<path fill="none" stroke="black" d="M216.543,-463.949C256.845,-485.754 342.047,-531.851 382.129,-553.537"/>
</g>
<!-- 15033 -->
<g id="node43" class="node"><title>15033</title>
<g id="a_node43"><a xlink:title="Day_0">
<ellipse fill="#e5dada" stroke="black" cx="32.4024" cy="-362.342" rx="32.4942" ry="18"/>
<text text-anchor="middle" x="32.4024" y="-358.642" font-family="Times,serif" font-size="14.00">15033</text>
</a>
</g>
</g>
<!-- 4740&#45;&gt;15033 -->
<g id="edge12" class="edge"><title>4740&#45;&gt;15033</title>
<path fill="none" stroke="black" d="M173.009,-440.132C142.515,-423.262 86.9725,-392.533 55.5964,-375.174"/>
</g>
<!-- 7260 -->
<g id="node20" class="node"><title>7260</title>
<g id="a_node20"><a xlink:title="Day_0">
<ellipse fill="#e5dada" stroke="black" cx="224.054" cy="-535.652" rx="28.6953" ry="18"/>
<text text-anchor="middle" x="224.054" y="-531.952" font-family="Times,serif" font-size="14.00">7260</text>
</a>
</g>
</g>
<!-- 5587&#45;&gt;7260 -->
<g id="edge23" class="edge"><title>5587&#45;&gt;7260</title>
<path fill="none" stroke="black" d="M376.14,-560.718C342.355,-555.149 285.581,-545.793 251.782,-540.222"/>
</g>
<!-- 7491 -->
<g id="node23" class="node"><title>7491</title>
<g id="a_node23"><a xlink:title="Day_0">
<ellipse fill="#e5dada" stroke="black" cx="265.337" cy="-463.067" rx="28.6953" ry="18"/>
<text text-anchor="middle" x="265.337" y="-459.367" font-family="Times,serif" font-size="14.00">7491</text>
</a>
</g>
</g>
<!-- 5587&#45;&gt;7491 -->
<g id="edge46" class="edge"><title>5587&#45;&gt;7491</title>
<path fill="none" stroke="black" d="M385.158,-551.497C358.724,-531.988 310.675,-496.527 284.162,-476.96"/>
</g>
<!-- 14271 -->
<g id="node40" class="node"><title>14271</title>
<g id="a_node40"><a xlink:title="Day_0">
<ellipse fill="#e5dada" stroke="black" cx="219.78" cy="-603.659" rx="32.4942" ry="18"/>
<text text-anchor="middle" x="219.78" y="-599.959" font-family="Times,serif" font-size="14.00">14271</text>
</a>
</g>
</g>
<!-- 5587&#45;&gt;14271 -->
<g id="edge28" class="edge"><title>5587&#45;&gt;14271</title>
<path fill="none" stroke="black" d="M376.679,-570.945C342.98,-577.971 285.669,-589.921 250.428,-597.268"/>
</g>
<!-- 15487 -->
<g id="node46" class="node"><title>15487</title>
<g id="a_node46"><a xlink:title="Day_0">
<ellipse fill="#e5dada" stroke="black" cx="378.095" cy="-386.633" rx="32.4942" ry="18"/>
<text text-anchor="middle" x="378.095" y="-382.933" font-family="Times,serif" font-size="14.00">15487</text>
</a>
</g>
</g>
<!-- 5587&#45;&gt;15487 -->
<g id="edge14" class="edge"><title>5587&#45;&gt;15487</title>
<path fill="none" stroke="black" d="M401.227,-547.169C396.293,-512.929 385.651,-439.072 380.712,-404.794"/>
</g>
<!-- 24023 -->
<g id="node63" class="node"><title>24023</title>
<g id="a_node63"><a xlink:title="Day_0">
<ellipse fill="#e5dada" stroke="black" cx="297.639" cy="-407.037" rx="32.4942" ry="18"/>
<text text-anchor="middle" x="297.639" y="-403.337" font-family="Times,serif" font-size="14.00">24023</text>
</a>
</g>
</g>
<!-- 5587&#45;&gt;24023 -->
<g id="edge10" class="edge"><title>5587&#45;&gt;24023</title>
<path fill="none" stroke="black" d="M392.673,-548.646C372.33,-518.333 329.441,-454.426 308.973,-423.927"/>
</g>
<!-- 5683 -->
<g id="node18" class="node"><title>5683</title>
<g id="a_node18"><a xlink:title="PRE">
<ellipse fill="#71a9f7" stroke="black" cx="887.475" cy="-944.876" rx="28.6953" ry="18"/>
<text text-anchor="middle" x="887.475" y="-941.176" font-family="Times,serif" font-size="14.00">5683</text>
</a>
</g>
</g>
<!-- 5683&#45;&gt;19972 -->
<g id="edge6" class="edge"><title>5683&#45;&gt;19972</title>
<path fill="none" stroke="black" d="M913.932,-937.975C937.965,-931.707 973.379,-922.47 998.386,-915.947"/>
</g>
<!-- 6610 -->
<g id="node19" class="node"><title>6610</title>
<g id="a_node19"><a xlink:title="PRE">
<ellipse fill="#71a9f7" stroke="black" cx="975.03" cy="-1444.5" rx="28.6953" ry="18"/>
<text text-anchor="middle" x="975.03" y="-1440.8" font-family="Times,serif" font-size="14.00">6610</text>
</a>
</g>
</g>
<!-- 6610&#45;&gt;11552 -->
<g id="edge30" class="edge"><title>6610&#45;&gt;11552</title>
<path fill="none" stroke="black" d="M965.565,-1427.37C948.631,-1396.72 913.329,-1332.84 896.251,-1301.93"/>
</g>
<!-- 7300 -->
<g id="node21" class="node"><title>7300</title>
<g id="a_node21"><a xlink:title="PRE">
<ellipse fill="#71a9f7" stroke="black" cx="885.602" cy="-399.52" rx="28.6953" ry="18"/>
<text text-anchor="middle" x="885.602" y="-395.82" font-family="Times,serif" font-size="14.00">7300</text>
</a>
</g>
</g>
<!-- 15733 -->
<g id="node47" class="node"><title>15733</title>
<g id="a_node47"><a xlink:title="PRE">
<ellipse fill="#71a9f7" stroke="black" cx="844.375" cy="-210.752" rx="32.4942" ry="18"/>
<text text-anchor="middle" x="844.375" y="-207.052" font-family="Times,serif" font-size="14.00">15733</text>
</a>
</g>
</g>
<!-- 7300&#45;&gt;15733 -->
<g id="edge42" class="edge"><title>7300&#45;&gt;15733</title>
<path fill="none" stroke="black" d="M881.649,-381.42C873.769,-345.339 856.187,-264.833 848.316,-228.797"/>
</g>
<!-- 17587 -->
<g id="node51" class="node"><title>17587</title>
<g id="a_node51"><a xlink:title="PRE">
<ellipse fill="#71a9f7" stroke="black" cx="954.336" cy="-620.019" rx="32.4942" ry="18"/>
<text text-anchor="middle" x="954.336" y="-616.319" font-family="Times,serif" font-size="14.00">17587</text>
</a>
</g>
</g>
<!-- 7300&#45;&gt;17587 -->
<g id="edge22" class="edge"><title>7300&#45;&gt;17587</title>
<path fill="none" stroke="black" d="M891.111,-417.192C903.98,-458.478 935.905,-560.894 948.801,-602.263"/>
</g>
<!-- 7433 -->
<g id="node22" class="node"><title>7433</title>
<g id="a_node22"><a xlink:title="PRE">
<ellipse fill="#71a9f7" stroke="black" cx="858.087" cy="-1445.48" rx="28.6953" ry="18"/>
<text text-anchor="middle" x="858.087" y="-1441.78" font-family="Times,serif" font-size="14.00">7433</text>
</a>
</g>
</g>
<!-- 7433&#45;&gt;11552 -->
<g id="edge34" class="edge"><title>7433&#45;&gt;11552</title>
<path fill="none" stroke="black" d="M861.3,-1427.32C866.774,-1396.39 877.845,-1333.83 883.34,-1302.78"/>
</g>
<!-- 9614 -->
<g id="node24" class="node"><title>9614</title>
<g id="a_node24"><a xlink:title="PRE">
<ellipse fill="#71a9f7" stroke="black" cx="801.692" cy="-921.429" rx="28.6953" ry="18"/>
<text text-anchor="middle" x="801.692" y="-917.729" font-family="Times,serif" font-size="14.00">9614</text>
</a>
</g>
</g>
<!-- 9614&#45;&gt;19972 -->
<g id="edge44" class="edge"><title>9614&#45;&gt;19972</title>
<path fill="none" stroke="black" d="M830.371,-919.752C872.619,-917.282 951.354,-912.678 995.668,-910.086"/>
</g>
<!-- 21944 -->
<g id="node60" class="node"><title>21944</title>
<g id="a_node60"><a xlink:title="PRE">
<ellipse fill="#71a9f7" stroke="black" cx="613.758" cy="-946.761" rx="32.4942" ry="18"/>
<text text-anchor="middle" x="613.758" y="-943.061" font-family="Times,serif" font-size="14.00">21944</text>
</a>
</g>
</g>
<!-- 9614&#45;&gt;21944 -->
<g id="edge55" class="edge"><title>9614&#45;&gt;21944</title>
<path fill="none" stroke="black" d="M773.557,-925.222C739.254,-929.845 681.429,-937.64 645.548,-942.476"/>
</g>
<!-- 9646 -->
<g id="node25" class="node"><title>9646</title>
<g id="a_node25"><a xlink:title="PRE">
<ellipse fill="#71a9f7" stroke="black" cx="1081.87" cy="-1055.03" rx="28.6953" ry="18"/>
<text text-anchor="middle" x="1081.87" y="-1051.33" font-family="Times,serif" font-size="14.00">9646</text>
</a>
</g>
</g>
<!-- 9646&#45;&gt;19972 -->
<g id="edge60" class="edge"><title>9646&#45;&gt;19972</title>
<path fill="none" stroke="black" d="M1075.39,-1037.32C1065.06,-1009.09 1044.98,-954.226 1034.64,-925.963"/>
</g>
<!-- 9788&#45;&gt;19972 -->
<g id="edge9" class="edge"><title>9788&#45;&gt;19972</title>
<path fill="none" stroke="black" d="M1295.4,-1065.41C1242.44,-1034.26 1104.79,-953.284 1050.56,-921.382"/>
</g>
<!-- 20802 -->
<g id="node56" class="node"><title>20802</title>
<g id="a_node56"><a xlink:title="PRE">
<ellipse fill="#71a9f7" stroke="black" cx="1462.19" cy="-1193.13" rx="32.4942" ry="18"/>
<text text-anchor="middle" x="1462.19" y="-1189.43" font-family="Times,serif" font-size="14.00">20802</text>
</a>
</g>
</g>
<!-- 9788&#45;&gt;20802 -->
<g id="edge13" class="edge"><title>9788&#45;&gt;20802</title>
<path fill="none" stroke="black" d="M1334.46,-1092.02C1362.1,-1113.9 1415,-1155.78 1443.27,-1178.16"/>
</g>
<!-- 9816 -->
<g id="node27" class="node"><title>9816</title>
<g id="a_node27"><a xlink:title="PRE">
<ellipse fill="#71a9f7" stroke="black" cx="1243.53" cy="-946.527" rx="28.6953" ry="18"/>
<text text-anchor="middle" x="1243.53" y="-942.827" font-family="Times,serif" font-size="14.00">9816</text>
</a>
</g>
</g>
<!-- 9816&#45;&gt;19972 -->
<g id="edge17" class="edge"><title>9816&#45;&gt;19972</title>
<path fill="none" stroke="black" d="M1215.81,-941.593C1175.59,-934.434 1101.27,-921.205 1059.23,-913.723"/>
</g>
<!-- 21872 -->
<g id="node59" class="node"><title>21872</title>
<g id="a_node59"><a xlink:title="PRE">
<ellipse fill="#71a9f7" stroke="black" cx="1425.73" cy="-967.242" rx="32.4942" ry="18"/>
<text text-anchor="middle" x="1425.73" y="-963.542" font-family="Times,serif" font-size="14.00">21872</text>
</a>
</g>
</g>
<!-- 9816&#45;&gt;21872 -->
<g id="edge63" class="edge"><title>9816&#45;&gt;21872</title>
<path fill="none" stroke="black" d="M1272,-949.763C1305.03,-953.518 1359.34,-959.694 1393.78,-963.61"/>
</g>
<!-- 10980 -->
<g id="node28" class="node"><title>10980</title>
<g id="a_node28"><a xlink:title="PRE">
<ellipse fill="#71a9f7" stroke="black" cx="1005.62" cy="-1077.03" rx="32.4942" ry="18"/>
<text text-anchor="middle" x="1005.62" y="-1073.33" font-family="Times,serif" font-size="14.00">10980</text>
</a>
</g>
</g>
<!-- 10980&#45;&gt;19972 -->
<g id="edge29" class="edge"><title>10980&#45;&gt;19972</title>
<path fill="none" stroke="black" d="M1008.03,-1058.96C1012.35,-1026.55 1021.37,-958.886 1025.71,-926.382"/>
</g>
<!-- 12822 -->
<g id="node38" class="node"><title>12822</title>
<g id="a_node38"><a xlink:title="PRE">
<ellipse fill="#71a9f7" stroke="black" cx="710.692" cy="-1347.04" rx="32.4942" ry="18"/>
<text text-anchor="middle" x="710.692" y="-1343.34" font-family="Times,serif" font-size="14.00">12822</text>
</a>
</g>
</g>
<!-- 11552&#45;&gt;12822 -->
<g id="edge19" class="edge"><title>11552&#45;&gt;12822</title>
<path fill="none" stroke="black" d="M859.103,-1294.22C826.155,-1305.95 771.263,-1325.48 738.272,-1337.22"/>
</g>
<!-- 15358 -->
<g id="node44" class="node"><title>15358</title>
<g id="a_node44"><a xlink:title="PRE">
<ellipse fill="#71a9f7" stroke="black" cx="907.331" cy="-1490.66" rx="32.4942" ry="18"/>
<text text-anchor="middle" x="907.331" y="-1486.96" font-family="Times,serif" font-size="14.00">15358</text>
</a>
</g>
</g>
<!-- 11552&#45;&gt;15358 -->
<g id="edge39" class="edge"><title>11552&#45;&gt;15358</title>
<path fill="none" stroke="black" d="M888.427,-1302.74C892.364,-1341.87 901.561,-1433.3 905.494,-1472.4"/>
</g>
<!-- 18133 -->
<g id="node53" class="node"><title>18133</title>
<g id="a_node53"><a xlink:title="PRE">
<ellipse fill="#71a9f7" stroke="black" cx="729.54" cy="-1405.47" rx="32.4942" ry="18"/>
<text text-anchor="middle" x="729.54" y="-1401.77" font-family="Times,serif" font-size="14.00">18133</text>
</a>
</g>
</g>
<!-- 11552&#45;&gt;18133 -->
<g id="edge59" class="edge"><title>11552&#45;&gt;18133</title>
<path fill="none" stroke="black" d="M867.329,-1299.28C837.188,-1322.51 779.192,-1367.21 748.954,-1390.51"/>
</g>
<!-- 11552&#45;&gt;19972 -->
<g id="edge43" class="edge"><title>11552&#45;&gt;19972</title>
<path fill="none" stroke="black" d="M893.223,-1266.8C916.944,-1203.74 997.386,-989.917 1021.34,-926.23"/>
</g>
<!-- 11628 -->
<g id="node31" class="node"><title>11628</title>
<g id="a_node31"><a xlink:title="PRE">
<ellipse fill="#71a9f7" stroke="black" cx="869.21" cy="-844.315" rx="32.4942" ry="18"/>
<text text-anchor="middle" x="869.21" y="-840.615" font-family="Times,serif" font-size="14.00">11628</text>
</a>
</g>
</g>
<!-- 11628&#45;&gt;19972 -->
<g id="edge32" class="edge"><title>11628&#45;&gt;19972</title>
<path fill="none" stroke="black" d="M895.81,-855.006C925.234,-866.832 972.358,-885.771 1001.71,-897.569"/>
</g>
<!-- 11794 -->
<g id="node32" class="node"><title>11794</title>
<g id="a_node32"><a xlink:title="PRE">
<ellipse fill="#71a9f7" stroke="black" cx="287.962" cy="-796.596" rx="32.4942" ry="18"/>
<text text-anchor="middle" x="287.962" y="-792.896" font-family="Times,serif" font-size="14.00">11794</text>
</a>
</g>
</g>
<!-- 11794&#45;&gt;17678 -->
<g id="edge47" class="edge"><title>11794&#45;&gt;17678</title>
<path fill="none" stroke="black" d="M318.842,-790.31C353.593,-783.235 409.705,-771.811 444.348,-764.758"/>
</g>
<!-- 11810 -->
<g id="node33" class="node"><title>11810</title>
<g id="a_node33"><a xlink:title="PRE">
<ellipse fill="#71a9f7" stroke="black" cx="901.446" cy="-779.615" rx="32.4942" ry="18"/>
<text text-anchor="middle" x="901.446" y="-775.915" font-family="Times,serif" font-size="14.00">11810</text>
</a>
</g>
</g>
<!-- 11810&#45;&gt;19972 -->
<g id="edge8" class="edge"><title>11810&#45;&gt;19972</title>
<path fill="none" stroke="black" d="M917.235,-795.639C941.644,-820.411 988.255,-867.716 1012.54,-892.366"/>
</g>
<!-- 12100&#45;&gt;19972 -->
<g id="edge57" class="edge"><title>12100&#45;&gt;19972</title>
<path fill="none" stroke="black" d="M855.963,-1006.75C893.42,-985.306 967.677,-942.796 1005.24,-921.295"/>
</g>
<!-- 12590 -->
<g id="node36" class="node"><title>12590</title>
<g id="a_node36"><a xlink:title="PRE">
<ellipse fill="#71a9f7" stroke="black" cx="1478.6" cy="-782.56" rx="32.4942" ry="18"/>
<text text-anchor="middle" x="1478.6" y="-778.86" font-family="Times,serif" font-size="14.00">12590</text>
</a>
</g>
</g>
<!-- 20618 -->
<g id="node55" class="node"><title>20618</title>
<g id="a_node55"><a xlink:title="PRE">
<ellipse fill="#71a9f7" stroke="black" cx="1295.3" cy="-853.007" rx="32.4942" ry="18"/>
<text text-anchor="middle" x="1295.3" y="-849.307" font-family="Times,serif" font-size="14.00">20618</text>
</a>
</g>
</g>
<!-- 12590&#45;&gt;20618 -->
<g id="edge27" class="edge"><title>12590&#45;&gt;20618</title>
<path fill="none" stroke="black" d="M1451.56,-792.954C1416.8,-806.312 1356.83,-829.362 1322.16,-842.685"/>
</g>
<!-- 22931 -->
<g id="node62" class="node"><title>22931</title>
<g id="a_node62"><a xlink:title="PRE">
<ellipse fill="#71a9f7" stroke="black" cx="1137.44" cy="-616.86" rx="32.4942" ry="18"/>
<text text-anchor="middle" x="1137.44" y="-613.16" font-family="Times,serif" font-size="14.00">22931</text>
</a>
</g>
</g>
<!-- 12717&#45;&gt;22931 -->
<g id="edge56" class="edge"><title>12717&#45;&gt;22931</title>
<path fill="none" stroke="black" d="M1241.5,-400.067C1220.6,-443.615 1166.69,-555.93 1145.84,-599.357"/>
</g>
<!-- 13850 -->
<g id="node39" class="node"><title>13850</title>
<g id="a_node39"><a xlink:title="PRE">
<ellipse fill="#71a9f7" stroke="black" cx="1176.92" cy="-857.9" rx="32.4942" ry="18"/>
<text text-anchor="middle" x="1176.92" y="-854.2" font-family="Times,serif" font-size="14.00">13850</text>
</a>
</g>
</g>
<!-- 13850&#45;&gt;19972 -->
<g id="edge33" class="edge"><title>13850&#45;&gt;19972</title>
<path fill="none" stroke="black" d="M1148.93,-867.359C1122.33,-876.349 1082.55,-889.795 1055.99,-898.771"/>
</g>
<!-- 14784 -->
<g id="node42" class="node"><title>14784</title>
<g id="a_node42"><a xlink:title="PRE">
<ellipse fill="#71a9f7" stroke="black" cx="1168.21" cy="-434.187" rx="32.4942" ry="18"/>
<text text-anchor="middle" x="1168.21" y="-430.487" font-family="Times,serif" font-size="14.00">14784</text>
</a>
</g>
</g>
<!-- 14784&#45;&gt;22931 -->
<g id="edge61" class="edge"><title>14784&#45;&gt;22931</title>
<path fill="none" stroke="black" d="M1165.15,-452.37C1159.25,-487.385 1146.38,-563.794 1140.49,-598.751"/>
</g>
<!-- 15428 -->
<g id="node45" class="node"><title>15428</title>
<g id="a_node45"><a xlink:title="PRE">
<ellipse fill="#71a9f7" stroke="black" cx="1156.92" cy="-1007.14" rx="32.4942" ry="18"/>
<text text-anchor="middle" x="1156.92" y="-1003.44" font-family="Times,serif" font-size="14.00">15428</text>
</a>
</g>
</g>
<!-- 15428&#45;&gt;19972 -->
<g id="edge4" class="edge"><title>15428&#45;&gt;19972</title>
<path fill="none" stroke="black" d="M1137.64,-992.324C1113.36,-973.67 1071.88,-941.805 1047.54,-923.103"/>
</g>
<!-- 16281 -->
<g id="node48" class="node"><title>16281</title>
<g id="a_node48"><a xlink:title="PRE">
<ellipse fill="#71a9f7" stroke="black" cx="1493.5" cy="-850.826" rx="32.4942" ry="18"/>
<text text-anchor="middle" x="1493.5" y="-847.126" font-family="Times,serif" font-size="14.00">16281</text>
</a>
</g>
</g>
<!-- 16281&#45;&gt;20618 -->
<g id="edge24" class="edge"><title>16281&#45;&gt;20618</title>
<path fill="none" stroke="black" d="M1460.77,-851.187C1424.05,-851.591 1364.82,-852.242 1328.08,-852.647"/>
</g>
<!-- 16659 -->
<g id="node49" class="node"><title>16659</title>
<g id="a_node49"><a xlink:title="PRE">
<ellipse fill="#71a9f7" stroke="black" cx="1129.46" cy="-773.788" rx="32.4942" ry="18"/>
<text text-anchor="middle" x="1129.46" y="-770.088" font-family="Times,serif" font-size="14.00">16659</text>
</a>
</g>
</g>
<!-- 16659&#45;&gt;19972 -->
<g id="edge18" class="edge"><title>16659&#45;&gt;19972</title>
<path fill="none" stroke="black" d="M1116.83,-790.538C1097.42,-816.293 1060.43,-865.346 1040.92,-891.227"/>
</g>
<!-- 17587&#45;&gt;19972 -->
<g id="edge1" class="edge"><title>17587&#45;&gt;19972</title>
<path fill="none" stroke="black" d="M958.952,-638.045C972.205,-689.796 1010.27,-838.426 1023.52,-890.168"/>
</g>
<!-- 6961 -->
<g id="node64" class="node"><title>6961</title>
<g id="a_node64"><a xlink:title="PRE">
<ellipse fill="#71a9f7" stroke="black" cx="944.949" cy="-444.162" rx="28.6953" ry="18"/>
<text text-anchor="middle" x="944.949" y="-440.462" font-family="Times,serif" font-size="14.00">6961</text>
</a>
</g>
</g>
<!-- 17587&#45;&gt;6961 -->
<g id="edge52" class="edge"><title>17587&#45;&gt;6961</title>
<path fill="none" stroke="black" d="M953.367,-601.861C951.563,-568.075 947.712,-495.932 945.913,-462.22"/>
</g>
<!-- 19972&#45;&gt;20618 -->
<g id="edge3" class="edge"><title>19972&#45;&gt;20618</title>
<path fill="none" stroke="black" d="M1058.78,-901.858C1110.18,-891.242 1213.17,-869.971 1264.6,-859.348"/>
</g>
<!-- 21533 -->
<g id="node58" class="node"><title>21533</title>
<g id="a_node58"><a xlink:title="PRE">
<ellipse fill="#71a9f7" stroke="black" cx="931.019" cy="-1041.91" rx="32.4942" ry="18"/>
<text text-anchor="middle" x="931.019" y="-1038.21" font-family="Times,serif" font-size="14.00">21533</text>
</a>
</g>
</g>
<!-- 19972&#45;&gt;21533 -->
<g id="edge15" class="edge"><title>19972&#45;&gt;21533</title>
<path fill="none" stroke="black" d="M1015.83,-925.124C997.153,-950.845 961.839,-999.47 943.218,-1025.11"/>
</g>
<!-- 19972&#45;&gt;22931 -->
<g id="edge21" class="edge"><title>19972&#45;&gt;22931</title>
<path fill="none" stroke="black" d="M1034.81,-890.403C1054.32,-838.393 1111.14,-686.967 1130.72,-634.783"/>
</g>
</g>
</svg>
