<?xml version="1.0" encoding="UTF-8" standalone="no"?>
<!DOCTYPE svg PUBLIC "-//W3C//DTD SVG 1.1//EN"
 "http://www.w3.org/Graphics/SVG/1.1/DTD/svg11.dtd">
<!-- Generated by graphviz version 2.38.0 (20140413.2041)
 -->
<!-- Title: %3 Pages: 1 -->
<svg width="2172pt" height="1796pt"
 viewBox="0.00 0.00 2172.00 1796.00" xmlns="http://www.w3.org/2000/svg" xmlns:xlink="http://www.w3.org/1999/xlink">
<g id="graph0" class="graph" transform="scale(1 1) rotate(0) translate(4 1792)">
<title>%3</title>
<polygon fill="white" stroke="none" points="-4,4 -4,-1792 2168,-1792 2168,4 -4,4"/>
<!-- 1392 -->
<g id="node1" class="node"><title>1392</title>
<g id="a_node1"><a xlink:title="6th_week">
<ellipse fill="#c81d25" stroke="black" cx="516.236" cy="-1113.24" rx="28.6953" ry="18"/>
<text text-anchor="middle" x="516.236" y="-1109.54" font-family="Times,serif" font-size="14.00">1392</text>
</a>
</g>
</g>
<!-- 5253 -->
<g id="node14" class="node"><title>5253</title>
<g id="a_node14"><a xlink:title="6th_week">
<ellipse fill="#c81d25" stroke="black" cx="685.005" cy="-1108.13" rx="28.6953" ry="18"/>
<text text-anchor="middle" x="685.005" y="-1104.43" font-family="Times,serif" font-size="14.00">5253</text>
</a>
</g>
</g>
<!-- 1392&#45;&gt;5253 -->
<g id="edge61" class="edge"><title>1392&#45;&gt;5253</title>
<path fill="none" stroke="black" d="M544.865,-1112.38C575.9,-1111.44 625.146,-1109.95 656.235,-1109"/>
</g>
<!-- 2168 -->
<g id="node2" class="node"><title>2168</title>
<g id="a_node2"><a xlink:title="6th_week">
<ellipse fill="#c81d25" stroke="black" cx="696.975" cy="-1457.3" rx="28.6953" ry="18"/>
<text text-anchor="middle" x="696.975" y="-1453.6" font-family="Times,serif" font-size="14.00">2168</text>
</a>
</g>
</g>
<!-- 2168&#45;&gt;5253 -->
<g id="edge71" class="edge"><title>2168&#45;&gt;5253</title>
<path fill="none" stroke="black" d="M696.349,-1439.02C694.28,-1378.68 687.685,-1186.31 685.625,-1126.23"/>
</g>
<!-- 27933 -->
<g id="node86" class="node"><title>27933</title>
<g id="a_node86"><a xlink:title="6th_week">
<ellipse fill="#c81d25" stroke="black" cx="705.784" cy="-1718.54" rx="32.4942" ry="18"/>
<text text-anchor="middle" x="705.784" y="-1714.84" font-family="Times,serif" font-size="14.00">27933</text>
</a>
</g>
</g>
<!-- 2168&#45;&gt;27933 -->
<g id="edge83" class="edge"><title>2168&#45;&gt;27933</title>
<path fill="none" stroke="black" d="M697.595,-1475.67C699.216,-1523.75 703.569,-1652.87 705.177,-1700.53"/>
</g>
<!-- 2463 -->
<g id="node3" class="node"><title>2463</title>
<g id="a_node3"><a xlink:title="6th_week">
<ellipse fill="#c81d25" stroke="black" cx="679.745" cy="-868.599" rx="28.6953" ry="18"/>
<text text-anchor="middle" x="679.745" y="-864.899" font-family="Times,serif" font-size="14.00">2463</text>
</a>
</g>
</g>
<!-- 2463&#45;&gt;5253 -->
<g id="edge68" class="edge"><title>2463&#45;&gt;5253</title>
<path fill="none" stroke="black" d="M680.141,-886.603C681.115,-930.995 683.625,-1045.31 684.605,-1089.92"/>
</g>
<!-- 2569 -->
<g id="node4" class="node"><title>2569</title>
<g id="a_node4"><a xlink:title="6th_week">
<ellipse fill="#c81d25" stroke="black" cx="1378.51" cy="-1203.08" rx="28.6953" ry="18"/>
<text text-anchor="middle" x="1378.51" y="-1199.38" font-family="Times,serif" font-size="14.00">2569</text>
</a>
</g>
</g>
<!-- 24573 -->
<g id="node76" class="node"><title>24573</title>
<g id="a_node76"><a xlink:title="6th_week">
<ellipse fill="#c81d25" stroke="black" cx="1124.43" cy="-1166.88" rx="32.4942" ry="18"/>
<text text-anchor="middle" x="1124.43" y="-1163.18" font-family="Times,serif" font-size="14.00">24573</text>
</a>
</g>
</g>
<!-- 2569&#45;&gt;24573 -->
<g id="edge62" class="edge"><title>2569&#45;&gt;24573</title>
<path fill="none" stroke="black" d="M1350.35,-1199.07C1302.67,-1192.28 1206.37,-1178.55 1156.3,-1171.42"/>
</g>
<!-- 3504 -->
<g id="node5" class="node"><title>3504</title>
<g id="a_node5"><a xlink:title="6th_week">
<ellipse fill="#c81d25" stroke="black" cx="555.873" cy="-1769.58" rx="28.6953" ry="18"/>
<text text-anchor="middle" x="555.873" y="-1765.88" font-family="Times,serif" font-size="14.00">3504</text>
</a>
</g>
</g>
<!-- 19518 -->
<g id="node61" class="node"><title>19518</title>
<g id="a_node61"><a xlink:title="6th_week">
<ellipse fill="#c81d25" stroke="black" cx="583.625" cy="-1506.9" rx="32.4942" ry="18"/>
<text text-anchor="middle" x="583.625" y="-1503.2" font-family="Times,serif" font-size="14.00">19518</text>
</a>
</g>
</g>
<!-- 3504&#45;&gt;19518 -->
<g id="edge23" class="edge"><title>3504&#45;&gt;19518</title>
<path fill="none" stroke="black" d="M557.781,-1751.52C562.85,-1703.54 576.619,-1573.21 581.704,-1525.08"/>
</g>
<!-- 3631 -->
<g id="node6" class="node"><title>3631</title>
<g id="a_node6"><a xlink:title="6th_week">
<ellipse fill="#c81d25" stroke="black" cx="1431.64" cy="-376.316" rx="28.6953" ry="18"/>
<text text-anchor="middle" x="1431.64" y="-372.616" font-family="Times,serif" font-size="14.00">3631</text>
</a>
</g>
</g>
<!-- 23732 -->
<g id="node71" class="node"><title>23732</title>
<g id="a_node71"><a xlink:title="6th_week">
<ellipse fill="#c81d25" stroke="black" cx="1267.19" cy="-569.392" rx="32.4942" ry="18"/>
<text text-anchor="middle" x="1267.19" y="-565.692" font-family="Times,serif" font-size="14.00">23732</text>
</a>
</g>
</g>
<!-- 3631&#45;&gt;23732 -->
<g id="edge67" class="edge"><title>3631&#45;&gt;23732</title>
<path fill="none" stroke="black" d="M1417.9,-392.445C1387.02,-428.698 1312.41,-516.306 1281.24,-552.899"/>
</g>
<!-- 4040 -->
<g id="node7" class="node"><title>4040</title>
<g id="a_node7"><a xlink:title="6th_week">
<ellipse fill="#c81d25" stroke="black" cx="1276.61" cy="-915.227" rx="28.6953" ry="18"/>
<text text-anchor="middle" x="1276.61" y="-911.527" font-family="Times,serif" font-size="14.00">4040</text>
</a>
</g>
</g>
<!-- 14551 -->
<g id="node45" class="node"><title>14551</title>
<g id="a_node45"><a xlink:title="6th_week">
<ellipse fill="#c81d25" stroke="black" cx="1030.92" cy="-997.99" rx="32.4942" ry="18"/>
<text text-anchor="middle" x="1030.92" y="-994.29" font-family="Times,serif" font-size="14.00">14551</text>
</a>
</g>
</g>
<!-- 4040&#45;&gt;14551 -->
<g id="edge49" class="edge"><title>4040&#45;&gt;14551</title>
<path fill="none" stroke="black" d="M1251.24,-923.772C1204.9,-939.384 1106.89,-972.397 1058.77,-988.608"/>
</g>
<!-- 4043 -->
<g id="node8" class="node"><title>4043</title>
<g id="a_node8"><a xlink:title="6th_week">
<ellipse fill="#c81d25" stroke="black" cx="573.278" cy="-1253.01" rx="28.6953" ry="18"/>
<text text-anchor="middle" x="573.278" y="-1249.31" font-family="Times,serif" font-size="14.00">4043</text>
</a>
</g>
</g>
<!-- 4043&#45;&gt;5253 -->
<g id="edge11" class="edge"><title>4043&#45;&gt;5253</title>
<path fill="none" stroke="black" d="M585.877,-1236.68C607.335,-1208.85 650.737,-1152.57 672.28,-1124.63"/>
</g>
<!-- 4282 -->
<g id="node9" class="node"><title>4282</title>
<g id="a_node9"><a xlink:title="6th_week">
<ellipse fill="#c81d25" stroke="black" cx="78.3872" cy="-1134.1" rx="28.6953" ry="18"/>
<text text-anchor="middle" x="78.3872" y="-1130.4" font-family="Times,serif" font-size="14.00">4282</text>
</a>
</g>
</g>
<!-- 6672 -->
<g id="node17" class="node"><title>6672</title>
<g id="a_node17"><a xlink:title="6th_week">
<ellipse fill="#c81d25" stroke="black" cx="337.526" cy="-1118.06" rx="28.6953" ry="18"/>
<text text-anchor="middle" x="337.526" y="-1114.36" font-family="Times,serif" font-size="14.00">6672</text>
</a>
</g>
</g>
<!-- 4282&#45;&gt;6672 -->
<g id="edge6" class="edge"><title>4282&#45;&gt;6672</title>
<path fill="none" stroke="black" d="M107.11,-1132.32C156.922,-1129.24 258.774,-1122.94 308.675,-1119.85"/>
</g>
<!-- 4295 -->
<g id="node10" class="node"><title>4295</title>
<g id="a_node10"><a xlink:title="6th_week">
<ellipse fill="#c81d25" stroke="black" cx="639.911" cy="-935.039" rx="28.6953" ry="18"/>
<text text-anchor="middle" x="639.911" y="-931.339" font-family="Times,serif" font-size="14.00">4295</text>
</a>
</g>
</g>
<!-- 4295&#45;&gt;5253 -->
<g id="edge16" class="edge"><title>4295&#45;&gt;5253</title>
<path fill="none" stroke="black" d="M644.567,-952.911C653.231,-986.167 671.73,-1057.18 680.374,-1090.36"/>
</g>
<!-- 4540 -->
<g id="node11" class="node"><title>4540</title>
<g id="a_node11"><a xlink:title="6th_week">
<ellipse fill="#c81d25" stroke="black" cx="821.913" cy="-1211.39" rx="28.6953" ry="18"/>
<text text-anchor="middle" x="821.913" y="-1207.69" font-family="Times,serif" font-size="14.00">4540</text>
</a>
</g>
</g>
<!-- 4540&#45;&gt;5253 -->
<g id="edge50" class="edge"><title>4540&#45;&gt;5253</title>
<path fill="none" stroke="black" d="M803.449,-1197.46C777.319,-1177.76 729.822,-1141.94 703.614,-1122.17"/>
</g>
<!-- 4595 -->
<g id="node12" class="node"><title>4595</title>
<g id="a_node12"><a xlink:title="6th_week">
<ellipse fill="#c81d25" stroke="black" cx="288.138" cy="-1020.15" rx="28.6953" ry="18"/>
<text text-anchor="middle" x="288.138" y="-1016.45" font-family="Times,serif" font-size="14.00">4595</text>
</a>
</g>
</g>
<!-- 4595&#45;&gt;5253 -->
<g id="edge19" class="edge"><title>4595&#45;&gt;5253</title>
<path fill="none" stroke="black" d="M315.416,-1026.19C388.005,-1042.29 585.292,-1086.03 657.799,-1102.1"/>
</g>
<!-- 7784 -->
<g id="node20" class="node"><title>7784</title>
<g id="a_node20"><a xlink:title="6th_week">
<ellipse fill="#c81d25" stroke="black" cx="28.7155" cy="-1001.27" rx="28.6953" ry="18"/>
<text text-anchor="middle" x="28.7155" y="-997.567" font-family="Times,serif" font-size="14.00">7784</text>
</a>
</g>
</g>
<!-- 4595&#45;&gt;7784 -->
<g id="edge57" class="edge"><title>4595&#45;&gt;7784</title>
<path fill="none" stroke="black" d="M259.384,-1018.05C209.386,-1014.42 107.014,-1006.97 57.2028,-1003.34"/>
</g>
<!-- 22541 -->
<g id="node69" class="node"><title>22541</title>
<g id="a_node69"><a xlink:title="6th_week">
<ellipse fill="#c81d25" stroke="black" cx="39.6626" cy="-926.372" rx="32.4942" ry="18"/>
<text text-anchor="middle" x="39.6626" y="-922.672" font-family="Times,serif" font-size="14.00">22541</text>
</a>
</g>
</g>
<!-- 4595&#45;&gt;22541 -->
<g id="edge32" class="edge"><title>4595&#45;&gt;22541</title>
<path fill="none" stroke="black" d="M263.405,-1010.81C216.514,-993.116 115.045,-954.822 66.5417,-936.517"/>
</g>
<!-- 5018 -->
<g id="node13" class="node"><title>5018</title>
<g id="a_node13"><a xlink:title="6th_week">
<ellipse fill="#c81d25" stroke="black" cx="737.807" cy="-925.744" rx="28.6953" ry="18"/>
<text text-anchor="middle" x="737.807" y="-922.044" font-family="Times,serif" font-size="14.00">5018</text>
</a>
</g>
</g>
<!-- 5018&#45;&gt;5253 -->
<g id="edge87" class="edge"><title>5018&#45;&gt;5253</title>
<path fill="none" stroke="black" d="M732.648,-943.564C722.554,-978.433 700.296,-1055.31 690.185,-1090.24"/>
</g>
<!-- 6426 -->
<g id="node15" class="node"><title>6426</title>
<g id="a_node15"><a xlink:title="6th_week">
<ellipse fill="#c81d25" stroke="black" cx="814.966" cy="-1496.28" rx="28.6953" ry="18"/>
<text text-anchor="middle" x="814.966" y="-1492.58" font-family="Times,serif" font-size="14.00">6426</text>
</a>
</g>
</g>
<!-- 5253&#45;&gt;6426 -->
<g id="edge77" class="edge"><title>5253&#45;&gt;6426</title>
<path fill="none" stroke="black" d="M690.927,-1125.82C712.577,-1190.48 787.302,-1413.66 809.01,-1478.49"/>
</g>
<!-- 5253&#45;&gt;6672 -->
<g id="edge25" class="edge"><title>5253&#45;&gt;6672</title>
<path fill="none" stroke="black" d="M656.274,-1108.96C590.908,-1110.82 431.689,-1115.37 366.291,-1117.24"/>
</g>
<!-- 7380 -->
<g id="node18" class="node"><title>7380</title>
<g id="a_node18"><a xlink:title="6th_week">
<ellipse fill="#c81d25" stroke="black" cx="838.847" cy="-741.004" rx="28.6953" ry="18"/>
<text text-anchor="middle" x="838.847" y="-737.304" font-family="Times,serif" font-size="14.00">7380</text>
</a>
</g>
</g>
<!-- 5253&#45;&gt;7380 -->
<g id="edge74" class="edge"><title>5253&#45;&gt;7380</title>
<path fill="none" stroke="black" d="M692.425,-1090.43C718.474,-1028.26 805.569,-820.418 831.502,-758.533"/>
</g>
<!-- 8091 -->
<g id="node21" class="node"><title>8091</title>
<g id="a_node21"><a xlink:title="6th_week">
<ellipse fill="#c81d25" stroke="black" cx="768.681" cy="-1360.58" rx="28.6953" ry="18"/>
<text text-anchor="middle" x="768.681" y="-1356.88" font-family="Times,serif" font-size="14.00">8091</text>
</a>
</g>
</g>
<!-- 5253&#45;&gt;8091 -->
<g id="edge89" class="edge"><title>5253&#45;&gt;8091</title>
<path fill="none" stroke="black" d="M690.889,-1125.89C706.252,-1172.24 747.447,-1296.52 762.804,-1342.84"/>
</g>
<!-- 8376 -->
<g id="node22" class="node"><title>8376</title>
<g id="a_node22"><a xlink:title="6th_week">
<ellipse fill="#c81d25" stroke="black" cx="606.224" cy="-1354.39" rx="28.6953" ry="18"/>
<text text-anchor="middle" x="606.224" y="-1350.69" font-family="Times,serif" font-size="14.00">8376</text>
</a>
</g>
</g>
<!-- 5253&#45;&gt;8376 -->
<g id="edge35" class="edge"><title>5253&#45;&gt;8376</title>
<path fill="none" stroke="black" d="M679.339,-1125.84C664.839,-1171.17 626.504,-1291 611.944,-1336.51"/>
</g>
<!-- 8695 -->
<g id="node23" class="node"><title>8695</title>
<g id="a_node23"><a xlink:title="6th_week">
<ellipse fill="#c81d25" stroke="black" cx="748.867" cy="-857.176" rx="28.6953" ry="18"/>
<text text-anchor="middle" x="748.867" y="-853.476" font-family="Times,serif" font-size="14.00">8695</text>
</a>
</g>
</g>
<!-- 5253&#45;&gt;8695 -->
<g id="edge75" class="edge"><title>5253&#45;&gt;8695</title>
<path fill="none" stroke="black" d="M689.598,-1090.09C701.381,-1043.78 732.579,-921.185 744.316,-875.061"/>
</g>
<!-- 10828 -->
<g id="node28" class="node"><title>10828</title>
<g id="a_node28"><a xlink:title="6th_week">
<ellipse fill="#c81d25" stroke="black" cx="341.626" cy="-1202.95" rx="32.4942" ry="18"/>
<text text-anchor="middle" x="341.626" y="-1199.25" font-family="Times,serif" font-size="14.00">10828</text>
</a>
</g>
</g>
<!-- 5253&#45;&gt;10828 -->
<g id="edge78" class="edge"><title>5253&#45;&gt;10828</title>
<path fill="none" stroke="black" d="M658.631,-1115.42C595.656,-1132.8 436.872,-1176.65 370.985,-1194.84"/>
</g>
<!-- 11458 -->
<g id="node30" class="node"><title>11458</title>
<g id="a_node30"><a xlink:title="6th_week">
<ellipse fill="#c81d25" stroke="black" cx="535.303" cy="-918.531" rx="32.4942" ry="18"/>
<text text-anchor="middle" x="535.303" y="-914.831" font-family="Times,serif" font-size="14.00">11458</text>
</a>
</g>
</g>
<!-- 5253&#45;&gt;11458 -->
<g id="edge20" class="edge"><title>5253&#45;&gt;11458</title>
<path fill="none" stroke="black" d="M672.241,-1091.97C644.1,-1056.33 576.963,-971.295 548.461,-935.196"/>
</g>
<!-- 11584 -->
<g id="node32" class="node"><title>11584</title>
<g id="a_node32"><a xlink:title="6th_week">
<ellipse fill="#c81d25" stroke="black" cx="568.075" cy="-781.03" rx="32.4942" ry="18"/>
<text text-anchor="middle" x="568.075" y="-777.33" font-family="Times,serif" font-size="14.00">11584</text>
</a>
</g>
</g>
<!-- 5253&#45;&gt;11584 -->
<g id="edge64" class="edge"><title>5253&#45;&gt;11584</title>
<path fill="none" stroke="black" d="M678.718,-1090.55C658.415,-1033.75 594.739,-855.623 574.392,-798.703"/>
</g>
<!-- 11952 -->
<g id="node33" class="node"><title>11952</title>
<g id="a_node33"><a xlink:title="6th_week">
<ellipse fill="#c81d25" stroke="black" cx="558.04" cy="-985.352" rx="32.4942" ry="18"/>
<text text-anchor="middle" x="558.04" y="-981.652" font-family="Times,serif" font-size="14.00">11952</text>
</a>
</g>
</g>
<!-- 5253&#45;&gt;11952 -->
<g id="edge18" class="edge"><title>5253&#45;&gt;11952</title>
<path fill="none" stroke="black" d="M669.181,-1092.83C644.984,-1069.43 599.018,-1024.98 574.466,-1001.24"/>
</g>
<!-- 11989 -->
<g id="node34" class="node"><title>11989</title>
<g id="a_node34"><a xlink:title="6th_week">
<ellipse fill="#c81d25" stroke="black" cx="882.866" cy="-1402.77" rx="32.4942" ry="18"/>
<text text-anchor="middle" x="882.866" y="-1399.07" font-family="Times,serif" font-size="14.00">11989</text>
</a>
</g>
</g>
<!-- 5253&#45;&gt;11989 -->
<g id="edge37" class="edge"><title>5253&#45;&gt;11989</title>
<path fill="none" stroke="black" d="M696.21,-1124.82C730.872,-1176.43 836.132,-1333.18 871.291,-1385.53"/>
</g>
<!-- 12893 -->
<g id="node35" class="node"><title>12893</title>
<g id="a_node35"><a xlink:title="6th_week">
<ellipse fill="#c81d25" stroke="black" cx="840.601" cy="-1028.47" rx="32.4942" ry="18"/>
<text text-anchor="middle" x="840.601" y="-1024.77" font-family="Times,serif" font-size="14.00">12893</text>
</a>
</g>
</g>
<!-- 5253&#45;&gt;12893 -->
<g id="edge66" class="edge"><title>5253&#45;&gt;12893</title>
<path fill="none" stroke="black" d="M707.298,-1096.72C736.289,-1081.88 786.735,-1056.05 816.56,-1040.78"/>
</g>
<!-- 13628 -->
<g id="node38" class="node"><title>13628</title>
<g id="a_node38"><a xlink:title="6th_week">
<ellipse fill="#c81d25" stroke="black" cx="369.521" cy="-943.161" rx="32.4942" ry="18"/>
<text text-anchor="middle" x="369.521" y="-939.461" font-family="Times,serif" font-size="14.00">13628</text>
</a>
</g>
</g>
<!-- 5253&#45;&gt;13628 -->
<g id="edge1" class="edge"><title>5253&#45;&gt;13628</title>
<path fill="none" stroke="black" d="M662.821,-1096.53C605.456,-1066.54 452.578,-986.593 393.39,-955.643"/>
</g>
<!-- 13815 -->
<g id="node39" class="node"><title>13815</title>
<g id="a_node39"><a xlink:title="6th_week">
<ellipse fill="#c81d25" stroke="black" cx="824.654" cy="-881.754" rx="32.4942" ry="18"/>
<text text-anchor="middle" x="824.654" y="-878.054" font-family="Times,serif" font-size="14.00">13815</text>
</a>
</g>
</g>
<!-- 5253&#45;&gt;13815 -->
<g id="edge43" class="edge"><title>5253&#45;&gt;13815</title>
<path fill="none" stroke="black" d="M695.501,-1091.12C721.381,-1049.17 788.028,-941.127 814.036,-898.967"/>
</g>
<!-- 14252 -->
<g id="node41" class="node"><title>14252</title>
<g id="a_node41"><a xlink:title="6th_week">
<ellipse fill="#c81d25" stroke="black" cx="669.042" cy="-1301.31" rx="32.4942" ry="18"/>
<text text-anchor="middle" x="669.042" y="-1297.61" font-family="Times,serif" font-size="14.00">14252</text>
</a>
</g>
</g>
<!-- 5253&#45;&gt;14252 -->
<g id="edge27" class="edge"><title>5253&#45;&gt;14252</title>
<path fill="none" stroke="black" d="M683.503,-1126.31C680.453,-1163.22 673.565,-1246.57 670.528,-1283.32"/>
</g>
<!-- 14304 -->
<g id="node42" class="node"><title>14304</title>
<g id="a_node42"><a xlink:title="6th_week">
<ellipse fill="#c81d25" stroke="black" cx="385.927" cy="-1391.71" rx="32.4942" ry="18"/>
<text text-anchor="middle" x="385.927" y="-1388.01" font-family="Times,serif" font-size="14.00">14304</text>
</a>
</g>
</g>
<!-- 5253&#45;&gt;14304 -->
<g id="edge84" class="edge"><title>5253&#45;&gt;14304</title>
<path fill="none" stroke="black" d="M668.925,-1123.38C617.117,-1172.5 454.889,-1326.32 402.453,-1376.04"/>
</g>
<!-- 14387 -->
<g id="node43" class="node"><title>14387</title>
<g id="a_node43"><a xlink:title="6th_week">
<ellipse fill="#c81d25" stroke="black" cx="443.936" cy="-1126.73" rx="32.4942" ry="18"/>
<text text-anchor="middle" x="443.936" y="-1123.03" font-family="Times,serif" font-size="14.00">14387</text>
</a>
</g>
</g>
<!-- 5253&#45;&gt;14387 -->
<g id="edge4" class="edge"><title>5253&#45;&gt;14387</title>
<path fill="none" stroke="black" d="M656.404,-1110.34C611.256,-1113.82 523.739,-1120.57 476.335,-1124.23"/>
</g>
<!-- 5253&#45;&gt;14551 -->
<g id="edge55" class="edge"><title>5253&#45;&gt;14551</title>
<path fill="none" stroke="black" d="M710.722,-1099.95C773.979,-1079.8 936.77,-1027.97 1002.63,-1007"/>
</g>
<!-- 15018 -->
<g id="node48" class="node"><title>15018</title>
<g id="a_node48"><a xlink:title="6th_week">
<ellipse fill="#c81d25" stroke="black" cx="482.969" cy="-989.92" rx="32.4942" ry="18"/>
<text text-anchor="middle" x="482.969" y="-986.22" font-family="Times,serif" font-size="14.00">15018</text>
</a>
</g>
</g>
<!-- 5253&#45;&gt;15018 -->
<g id="edge69" class="edge"><title>5253&#45;&gt;15018</title>
<path fill="none" stroke="black" d="M663.765,-1095.71C625.368,-1073.24 544.75,-1026.07 505.457,-1003.08"/>
</g>
<!-- 15269 -->
<g id="node49" class="node"><title>15269</title>
<g id="a_node49"><a xlink:title="6th_week">
<ellipse fill="#c81d25" stroke="black" cx="926.237" cy="-976.902" rx="32.4942" ry="18"/>
<text text-anchor="middle" x="926.237" y="-973.202" font-family="Times,serif" font-size="14.00">15269</text>
</a>
</g>
</g>
<!-- 5253&#45;&gt;15269 -->
<g id="edge58" class="edge"><title>5253&#45;&gt;15269</title>
<path fill="none" stroke="black" d="M706.838,-1096.26C752.186,-1071.59 856.224,-1014.99 902.866,-989.616"/>
</g>
<!-- 15496 -->
<g id="node51" class="node"><title>15496</title>
<g id="a_node51"><a xlink:title="6th_week">
<ellipse fill="#c81d25" stroke="black" cx="1069.02" cy="-794.607" rx="32.4942" ry="18"/>
<text text-anchor="middle" x="1069.02" y="-790.907" font-family="Times,serif" font-size="14.00">15496</text>
</a>
</g>
</g>
<!-- 5253&#45;&gt;15496 -->
<g id="edge60" class="edge"><title>5253&#45;&gt;15496</title>
<path fill="none" stroke="black" d="M702.503,-1093.85C766.182,-1041.86 985.254,-862.996 1050.52,-809.706"/>
</g>
<!-- 16266 -->
<g id="node53" class="node"><title>16266</title>
<g id="a_node53"><a xlink:title="6th_week">
<ellipse fill="#c81d25" stroke="black" cx="880.731" cy="-1124.65" rx="32.4942" ry="18"/>
<text text-anchor="middle" x="880.731" y="-1120.95" font-family="Times,serif" font-size="14.00">16266</text>
</a>
</g>
</g>
<!-- 5253&#45;&gt;16266 -->
<g id="edge44" class="edge"><title>5253&#45;&gt;16266</title>
<path fill="none" stroke="black" d="M713.465,-1110.54C749.301,-1113.56 810.718,-1118.74 848.323,-1121.91"/>
</g>
<!-- 16541 -->
<g id="node54" class="node"><title>16541</title>
<g id="a_node54"><a xlink:title="6th_week">
<ellipse fill="#c81d25" stroke="black" cx="455.447" cy="-785.572" rx="32.4942" ry="18"/>
<text text-anchor="middle" x="455.447" y="-781.872" font-family="Times,serif" font-size="14.00">16541</text>
</a>
</g>
</g>
<!-- 5253&#45;&gt;16541 -->
<g id="edge15" class="edge"><title>5253&#45;&gt;16541</title>
<path fill="none" stroke="black" d="M673.305,-1091.69C634.018,-1036.49 507.057,-858.092 467.398,-802.365"/>
</g>
<!-- 16810 -->
<g id="node55" class="node"><title>16810</title>
<g id="a_node55"><a xlink:title="6th_week">
<ellipse fill="#c81d25" stroke="black" cx="489.105" cy="-1263.8" rx="32.4942" ry="18"/>
<text text-anchor="middle" x="489.105" y="-1260.1" font-family="Times,serif" font-size="14.00">16810</text>
</a>
</g>
</g>
<!-- 5253&#45;&gt;16810 -->
<g id="edge22" class="edge"><title>5253&#45;&gt;16810</title>
<path fill="none" stroke="black" d="M666.926,-1122.5C629.796,-1152 545.286,-1219.16 507.711,-1249.01"/>
</g>
<!-- 17053 -->
<g id="node56" class="node"><title>17053</title>
<g id="a_node56"><a xlink:title="6th_week">
<ellipse fill="#c81d25" stroke="black" cx="952.823" cy="-1345.77" rx="32.4942" ry="18"/>
<text text-anchor="middle" x="952.823" y="-1342.07" font-family="Times,serif" font-size="14.00">17053</text>
</a>
</g>
</g>
<!-- 5253&#45;&gt;17053 -->
<g id="edge42" class="edge"><title>5253&#45;&gt;17053</title>
<path fill="none" stroke="black" d="M701.758,-1123C749.625,-1165.47 886.674,-1287.08 935.383,-1330.3"/>
</g>
<!-- 19485 -->
<g id="node60" class="node"><title>19485</title>
<g id="a_node60"><a xlink:title="6th_week">
<ellipse fill="#c81d25" stroke="black" cx="959.622" cy="-1109.49" rx="32.4942" ry="18"/>
<text text-anchor="middle" x="959.622" y="-1105.79" font-family="Times,serif" font-size="14.00">19485</text>
</a>
</g>
</g>
<!-- 5253&#45;&gt;19485 -->
<g id="edge63" class="edge"><title>5253&#45;&gt;19485</title>
<path fill="none" stroke="black" d="M713.616,-1108.28C764.995,-1108.53 872.578,-1109.06 926.839,-1109.33"/>
</g>
<!-- 5253&#45;&gt;19518 -->
<g id="edge79" class="edge"><title>5253&#45;&gt;19518</title>
<path fill="none" stroke="black" d="M680.452,-1126.04C663.615,-1192.27 604.982,-1422.89 588.165,-1489.04"/>
</g>
<!-- 20261 -->
<g id="node63" class="node"><title>20261</title>
<g id="a_node63"><a xlink:title="6th_week">
<ellipse fill="#c81d25" stroke="black" cx="815.305" cy="-945.845" rx="32.4942" ry="18"/>
<text text-anchor="middle" x="815.305" y="-942.145" font-family="Times,serif" font-size="14.00">20261</text>
</a>
</g>
</g>
<!-- 5253&#45;&gt;20261 -->
<g id="edge26" class="edge"><title>5253&#45;&gt;20261</title>
<path fill="none" stroke="black" d="M697.975,-1091.98C722.822,-1061.03 776.892,-993.689 802,-962.417"/>
</g>
<!-- 21251 -->
<g id="node65" class="node"><title>21251</title>
<g id="a_node65"><a xlink:title="6th_week">
<ellipse fill="#c81d25" stroke="black" cx="376.777" cy="-1279.9" rx="32.4942" ry="18"/>
<text text-anchor="middle" x="376.777" y="-1276.2" font-family="Times,serif" font-size="14.00">21251</text>
</a>
</g>
</g>
<!-- 5253&#45;&gt;21251 -->
<g id="edge73" class="edge"><title>5253&#45;&gt;21251</title>
<path fill="none" stroke="black" d="M663.331,-1120.21C607.286,-1151.45 457.924,-1234.68 400.097,-1266.91"/>
</g>
<!-- 21946 -->
<g id="node66" class="node"><title>21946</title>
<g id="a_node66"><a xlink:title="6th_week">
<ellipse fill="#c81d25" stroke="black" cx="1005.7" cy="-1267.34" rx="32.4942" ry="18"/>
<text text-anchor="middle" x="1005.7" y="-1263.64" font-family="Times,serif" font-size="14.00">21946</text>
</a>
</g>
</g>
<!-- 5253&#45;&gt;21946 -->
<g id="edge7" class="edge"><title>5253&#45;&gt;21946</title>
<path fill="none" stroke="black" d="M707.555,-1119.33C765.867,-1148.28 921.27,-1225.43 981.435,-1255.29"/>
</g>
<!-- 22019 -->
<g id="node67" class="node"><title>22019</title>
<g id="a_node67"><a xlink:title="6th_week">
<ellipse fill="#c81d25" stroke="black" cx="769.921" cy="-1295.86" rx="32.4942" ry="18"/>
<text text-anchor="middle" x="769.921" y="-1292.16" font-family="Times,serif" font-size="14.00">22019</text>
</a>
</g>
</g>
<!-- 5253&#45;&gt;22019 -->
<g id="edge52" class="edge"><title>5253&#45;&gt;22019</title>
<path fill="none" stroke="black" d="M692.841,-1125.46C708.977,-1161.13 745.756,-1242.44 761.98,-1278.31"/>
</g>
<!-- 23885 -->
<g id="node72" class="node"><title>23885</title>
<g id="a_node72"><a xlink:title="6th_week">
<ellipse fill="#c81d25" stroke="black" cx="907.565" cy="-1237.4" rx="32.4942" ry="18"/>
<text text-anchor="middle" x="907.565" y="-1233.7" font-family="Times,serif" font-size="14.00">23885</text>
</a>
</g>
</g>
<!-- 5253&#45;&gt;23885 -->
<g id="edge56" class="edge"><title>5253&#45;&gt;23885</title>
<path fill="none" stroke="black" d="M706.345,-1120.53C748.45,-1144.99 841.866,-1199.24 884.969,-1224.28"/>
</g>
<!-- 23959 -->
<g id="node74" class="node"><title>23959</title>
<g id="a_node74"><a xlink:title="6th_week">
<ellipse fill="#c81d25" stroke="black" cx="603.632" cy="-872.956" rx="32.4942" ry="18"/>
<text text-anchor="middle" x="603.632" y="-869.256" font-family="Times,serif" font-size="14.00">23959</text>
</a>
</g>
</g>
<!-- 5253&#45;&gt;23959 -->
<g id="edge5" class="edge"><title>5253&#45;&gt;23959</title>
<path fill="none" stroke="black" d="M678.889,-1090.46C663.808,-1046.87 624.973,-934.636 609.819,-890.838"/>
</g>
<!-- 24152 -->
<g id="node75" class="node"><title>24152</title>
<g id="a_node75"><a xlink:title="6th_week">
<ellipse fill="#c81d25" stroke="black" cx="849.003" cy="-1303.96" rx="32.4942" ry="18"/>
<text text-anchor="middle" x="849.003" y="-1300.26" font-family="Times,serif" font-size="14.00">24152</text>
</a>
</g>
</g>
<!-- 5253&#45;&gt;24152 -->
<g id="edge28" class="edge"><title>5253&#45;&gt;24152</title>
<path fill="none" stroke="black" d="M698.425,-1124.16C729.102,-1160.79 804.092,-1250.34 835.166,-1287.44"/>
</g>
<!-- 5253&#45;&gt;24573 -->
<g id="edge31" class="edge"><title>5253&#45;&gt;24573</title>
<path fill="none" stroke="black" d="M713.161,-1111.9C791.299,-1122.34 1010.48,-1151.65 1092.72,-1162.64"/>
</g>
<!-- 24855 -->
<g id="node77" class="node"><title>24855</title>
<g id="a_node77"><a xlink:title="6th_week">
<ellipse fill="#c81d25" stroke="black" cx="669.158" cy="-702.566" rx="32.4942" ry="18"/>
<text text-anchor="middle" x="669.158" y="-698.866" font-family="Times,serif" font-size="14.00">24855</text>
</a>
</g>
</g>
<!-- 5253&#45;&gt;24855 -->
<g id="edge17" class="edge"><title>5253&#45;&gt;24855</title>
<path fill="none" stroke="black" d="M684.293,-1089.92C681.661,-1022.56 672.496,-788.003 669.867,-720.73"/>
</g>
<!-- 25651 -->
<g id="node78" class="node"><title>25651</title>
<g id="a_node78"><a xlink:title="6th_week">
<ellipse fill="#c81d25" stroke="black" cx="691.58" cy="-1363.56" rx="32.4942" ry="18"/>
<text text-anchor="middle" x="691.58" y="-1359.86" font-family="Times,serif" font-size="14.00">25651</text>
</a>
</g>
</g>
<!-- 5253&#45;&gt;25651 -->
<g id="edge81" class="edge"><title>5253&#45;&gt;25651</title>
<path fill="none" stroke="black" d="M685.478,-1126.5C686.691,-1173.63 689.903,-1298.41 691.111,-1345.36"/>
</g>
<!-- 26337 -->
<g id="node79" class="node"><title>26337</title>
<g id="a_node79"><a xlink:title="6th_week">
<ellipse fill="#c81d25" stroke="black" cx="452.061" cy="-1052" rx="32.4942" ry="18"/>
<text text-anchor="middle" x="452.061" y="-1048.3" font-family="Times,serif" font-size="14.00">26337</text>
</a>
</g>
</g>
<!-- 5253&#45;&gt;26337 -->
<g id="edge40" class="edge"><title>5253&#45;&gt;26337</title>
<path fill="none" stroke="black" d="M658.283,-1101.69C614.544,-1091.15 527.959,-1070.29 482.134,-1059.25"/>
</g>
<!-- 26348 -->
<g id="node80" class="node"><title>26348</title>
<g id="a_node80"><a xlink:title="6th_week">
<ellipse fill="#c81d25" stroke="black" cx="430.751" cy="-878.217" rx="32.4942" ry="18"/>
<text text-anchor="middle" x="430.751" y="-874.517" font-family="Times,serif" font-size="14.00">26348</text>
</a>
</g>
</g>
<!-- 5253&#45;&gt;26348 -->
<g id="edge13" class="edge"><title>5253&#45;&gt;26348</title>
<path fill="none" stroke="black" d="M668.322,-1093.05C622.364,-1051.49 494.253,-935.641 447.828,-893.659"/>
</g>
<!-- 26513 -->
<g id="node81" class="node"><title>26513</title>
<g id="a_node81"><a xlink:title="6th_week">
<ellipse fill="#c81d25" stroke="black" cx="536.063" cy="-1320.23" rx="32.4942" ry="18"/>
<text text-anchor="middle" x="536.063" y="-1316.53" font-family="Times,serif" font-size="14.00">26513</text>
</a>
</g>
</g>
<!-- 5253&#45;&gt;26513 -->
<g id="edge38" class="edge"><title>5253&#45;&gt;26513</title>
<path fill="none" stroke="black" d="M673.318,-1124.78C645.544,-1164.33 575.828,-1263.61 547.902,-1303.37"/>
</g>
<!-- 26677 -->
<g id="node82" class="node"><title>26677</title>
<g id="a_node82"><a xlink:title="6th_week">
<ellipse fill="#c81d25" stroke="black" cx="507.163" cy="-1413.24" rx="32.4942" ry="18"/>
<text text-anchor="middle" x="507.163" y="-1409.54" font-family="Times,serif" font-size="14.00">26677</text>
</a>
</g>
</g>
<!-- 5253&#45;&gt;26677 -->
<g id="edge54" class="edge"><title>5253&#45;&gt;26677</title>
<path fill="none" stroke="black" d="M674.934,-1125.41C643.705,-1178.99 548.722,-1341.94 517.344,-1395.77"/>
</g>
<!-- 27366 -->
<g id="node83" class="node"><title>27366</title>
<g id="a_node83"><a xlink:title="6th_week">
<ellipse fill="#c81d25" stroke="black" cx="930.618" cy="-1048.44" rx="32.4942" ry="18"/>
<text text-anchor="middle" x="930.618" y="-1044.74" font-family="Times,serif" font-size="14.00">27366</text>
</a>
</g>
</g>
<!-- 5253&#45;&gt;27366 -->
<g id="edge29" class="edge"><title>5253&#45;&gt;27366</title>
<path fill="none" stroke="black" d="M711.757,-1101.63C758.009,-1090.39 852.586,-1067.4 900.85,-1055.67"/>
</g>
<!-- 27424 -->
<g id="node84" class="node"><title>27424</title>
<g id="a_node84"><a xlink:title="6th_week">
<ellipse fill="#c81d25" stroke="black" cx="469.426" cy="-1197.9" rx="32.4942" ry="18"/>
<text text-anchor="middle" x="469.426" y="-1194.2" font-family="Times,serif" font-size="14.00">27424</text>
</a>
</g>
</g>
<!-- 5253&#45;&gt;27424 -->
<g id="edge39" class="edge"><title>5253&#45;&gt;27424</title>
<path fill="none" stroke="black" d="M661.11,-1118.08C620.33,-1135.06 537.62,-1169.5 495.437,-1187.07"/>
</g>
<!-- 27677 -->
<g id="node85" class="node"><title>27677</title>
<g id="a_node85"><a xlink:title="6th_week">
<ellipse fill="#c81d25" stroke="black" cx="943.062" cy="-1177.35" rx="32.4942" ry="18"/>
<text text-anchor="middle" x="943.062" y="-1173.65" font-family="Times,serif" font-size="14.00">27677</text>
</a>
</g>
</g>
<!-- 5253&#45;&gt;27677 -->
<g id="edge12" class="edge"><title>5253&#45;&gt;27677</title>
<path fill="none" stroke="black" d="M711.649,-1115.28C760.327,-1128.34 863.263,-1155.95 913.809,-1169.51"/>
</g>
<!-- 28836 -->
<g id="node88" class="node"><title>28836</title>
<g id="a_node88"><a xlink:title="6th_week">
<ellipse fill="#c81d25" stroke="black" cx="889.492" cy="-927.824" rx="32.4942" ry="18"/>
<text text-anchor="middle" x="889.492" y="-924.124" font-family="Times,serif" font-size="14.00">28836</text>
</a>
</g>
</g>
<!-- 5253&#45;&gt;28836 -->
<g id="edge41" class="edge"><title>5253&#45;&gt;28836</title>
<path fill="none" stroke="black" d="M701.739,-1093.38C739.893,-1059.74 833.027,-977.613 871.947,-943.294"/>
</g>
<!-- 11545 -->
<g id="node31" class="node"><title>11545</title>
<g id="a_node31"><a xlink:title="6th_week">
<ellipse fill="#c81d25" stroke="black" cx="862.273" cy="-1757.63" rx="32.4942" ry="18"/>
<text text-anchor="middle" x="862.273" y="-1753.93" font-family="Times,serif" font-size="14.00">11545</text>
</a>
</g>
</g>
<!-- 6426&#45;&gt;11545 -->
<g id="edge72" class="edge"><title>6426&#45;&gt;11545</title>
<path fill="none" stroke="black" d="M818.218,-1514.24C826.86,-1561.99 850.33,-1691.65 858.999,-1739.54"/>
</g>
<!-- 16153 -->
<g id="node52" class="node"><title>16153</title>
<g id="a_node52"><a xlink:title="6th_week">
<ellipse fill="#c81d25" stroke="black" cx="935.297" cy="-1733.18" rx="32.4942" ry="18"/>
<text text-anchor="middle" x="935.297" y="-1729.48" font-family="Times,serif" font-size="14.00">16153</text>
</a>
</g>
</g>
<!-- 6426&#45;&gt;16153 -->
<g id="edge48" class="edge"><title>6426&#45;&gt;16153</title>
<path fill="none" stroke="black" d="M823.814,-1513.7C846.067,-1557.51 904.169,-1671.9 926.436,-1715.74"/>
</g>
<!-- 6517 -->
<g id="node16" class="node"><title>6517</title>
<g id="a_node16"><a xlink:title="6th_week">
<ellipse fill="#c81d25" stroke="black" cx="1674.92" cy="-370.108" rx="28.6953" ry="18"/>
<text text-anchor="middle" x="1674.92" y="-366.408" font-family="Times,serif" font-size="14.00">6517</text>
</a>
</g>
</g>
<!-- 18171 -->
<g id="node58" class="node"><title>18171</title>
<g id="a_node58"><a xlink:title="6th_week">
<ellipse fill="#c81d25" stroke="black" cx="1915.76" cy="-194.464" rx="32.4942" ry="18"/>
<text text-anchor="middle" x="1915.76" y="-190.764" font-family="Times,serif" font-size="14.00">18171</text>
</a>
</g>
</g>
<!-- 6517&#45;&gt;18171 -->
<g id="edge24" class="edge"><title>6517&#45;&gt;18171</title>
<path fill="none" stroke="black" d="M1693.81,-356.326C1738.51,-323.735 1850.35,-242.169 1895.95,-208.917"/>
</g>
<!-- 20770 -->
<g id="node64" class="node"><title>20770</title>
<g id="a_node64"><a xlink:title="6th_week">
<ellipse fill="#c81d25" stroke="black" cx="1385.77" cy="-577.348" rx="32.4942" ry="18"/>
<text text-anchor="middle" x="1385.77" y="-573.648" font-family="Times,serif" font-size="14.00">20770</text>
</a>
</g>
</g>
<!-- 6517&#45;&gt;20770 -->
<g id="edge33" class="edge"><title>6517&#45;&gt;20770</title>
<path fill="none" stroke="black" d="M1655.94,-383.706C1603.93,-420.986 1459.39,-524.585 1405.96,-562.878"/>
</g>
<!-- 28543 -->
<g id="node87" class="node"><title>28543</title>
<g id="a_node87"><a xlink:title="6th_week">
<ellipse fill="#c81d25" stroke="black" cx="894.289" cy="-490.33" rx="32.4942" ry="18"/>
<text text-anchor="middle" x="894.289" y="-486.63" font-family="Times,serif" font-size="14.00">28543</text>
</a>
</g>
</g>
<!-- 7380&#45;&gt;28543 -->
<g id="edge51" class="edge"><title>7380&#45;&gt;28543</title>
<path fill="none" stroke="black" d="M842.835,-722.976C853.039,-676.837 880.017,-554.859 890.264,-508.531"/>
</g>
<!-- 2124 -->
<g id="node90" class="node"><title>2124</title>
<g id="a_node90"><a xlink:title="6th_week">
<ellipse fill="#c81d25" stroke="black" cx="966.765" cy="-527.536" rx="28.6953" ry="18"/>
<text text-anchor="middle" x="966.765" y="-523.836" font-family="Times,serif" font-size="14.00">2124</text>
</a>
</g>
</g>
<!-- 7380&#45;&gt;2124 -->
<g id="edge21" class="edge"><title>7380&#45;&gt;2124</title>
<path fill="none" stroke="black" d="M849.099,-723.895C873.11,-683.827 932.759,-584.285 956.642,-544.43"/>
</g>
<!-- 7491 -->
<g id="node19" class="node"><title>7491</title>
<g id="a_node19"><a xlink:title="6th_week">
<ellipse fill="#c81d25" stroke="black" cx="168.572" cy="-1542.94" rx="28.6953" ry="18"/>
<text text-anchor="middle" x="168.572" y="-1539.24" font-family="Times,serif" font-size="14.00">7491</text>
</a>
</g>
</g>
<!-- 7491&#45;&gt;14304 -->
<g id="edge14" class="edge"><title>7491&#45;&gt;14304</title>
<path fill="none" stroke="black" d="M187.861,-1529.52C228.692,-1501.11 323.537,-1435.12 365.419,-1405.98"/>
</g>
<!-- 8852 -->
<g id="node24" class="node"><title>8852</title>
<g id="a_node24"><a xlink:title="6th_week">
<ellipse fill="#c81d25" stroke="black" cx="1035.64" cy="-1616.35" rx="28.6953" ry="18"/>
<text text-anchor="middle" x="1035.64" y="-1612.65" font-family="Times,serif" font-size="14.00">8852</text>
</a>
</g>
</g>
<!-- 8852&#45;&gt;11989 -->
<g id="edge46" class="edge"><title>8852&#45;&gt;11989</title>
<path fill="none" stroke="black" d="M1023.66,-1599.59C995.166,-1559.76 923.655,-1459.79 895.01,-1419.74"/>
</g>
<!-- 9397 -->
<g id="node25" class="node"><title>9397</title>
<g id="a_node25"><a xlink:title="6th_week">
<ellipse fill="#c81d25" stroke="black" cx="693.31" cy="-445.133" rx="28.6953" ry="18"/>
<text text-anchor="middle" x="693.31" y="-441.433" font-family="Times,serif" font-size="14.00">9397</text>
</a>
</g>
</g>
<!-- 9397&#45;&gt;24855 -->
<g id="edge80" class="edge"><title>9397&#45;&gt;24855</title>
<path fill="none" stroke="black" d="M691.612,-463.235C687.177,-510.502 675.287,-637.239 670.854,-684.484"/>
</g>
<!-- 9772 -->
<g id="node26" class="node"><title>9772</title>
<g id="a_node26"><a xlink:title="6th_week">
<ellipse fill="#c81d25" stroke="black" cx="139.162" cy="-812.429" rx="28.6953" ry="18"/>
<text text-anchor="middle" x="139.162" y="-808.729" font-family="Times,serif" font-size="14.00">9772</text>
</a>
</g>
</g>
<!-- 9772&#45;&gt;13628 -->
<g id="edge2" class="edge"><title>9772&#45;&gt;13628</title>
<path fill="none" stroke="black" d="M160.42,-824.494C203.748,-849.083 301.94,-904.808 346.618,-930.163"/>
</g>
<!-- 10624 -->
<g id="node27" class="node"><title>10624</title>
<g id="a_node27"><a xlink:title="6th_week">
<ellipse fill="#c81d25" stroke="black" cx="371.338" cy="-1642.4" rx="32.4942" ry="18"/>
<text text-anchor="middle" x="371.338" y="-1638.7" font-family="Times,serif" font-size="14.00">10624</text>
</a>
</g>
</g>
<!-- 10624&#45;&gt;26677 -->
<g id="edge30" class="edge"><title>10624&#45;&gt;26677</title>
<path fill="none" stroke="black" d="M381.547,-1625.18C406.78,-1582.61 471.859,-1472.81 497.021,-1430.35"/>
</g>
<!-- 12914 -->
<g id="node36" class="node"><title>12914</title>
<g id="a_node36"><a xlink:title="6th_week">
<ellipse fill="#c81d25" stroke="black" cx="80.9606" cy="-1273.32" rx="32.4942" ry="18"/>
<text text-anchor="middle" x="80.9606" y="-1269.62" font-family="Times,serif" font-size="14.00">12914</text>
</a>
</g>
</g>
<!-- 10828&#45;&gt;12914 -->
<g id="edge65" class="edge"><title>10828&#45;&gt;12914</title>
<path fill="none" stroke="black" d="M312.231,-1210.88C262.035,-1224.43 160.371,-1251.88 110.248,-1265.41"/>
</g>
<!-- 11263 -->
<g id="node29" class="node"><title>11263</title>
<g id="a_node29"><a xlink:title="6th_week">
<ellipse fill="#c81d25" stroke="black" cx="1383.88" cy="-1131.42" rx="32.4942" ry="18"/>
<text text-anchor="middle" x="1383.88" y="-1127.72" font-family="Times,serif" font-size="14.00">11263</text>
</a>
</g>
</g>
<!-- 11263&#45;&gt;24573 -->
<g id="edge88" class="edge"><title>11263&#45;&gt;24573</title>
<path fill="none" stroke="black" d="M1352.32,-1135.73C1302.49,-1142.54 1206.12,-1155.71 1156.17,-1162.54"/>
</g>
<!-- 14196 -->
<g id="node40" class="node"><title>14196</title>
<g id="a_node40"><a xlink:title="6th_week">
<ellipse fill="#c81d25" stroke="black" cx="462.272" cy="-518.304" rx="32.4942" ry="18"/>
<text text-anchor="middle" x="462.272" y="-514.604" font-family="Times,serif" font-size="14.00">14196</text>
</a>
</g>
</g>
<!-- 11584&#45;&gt;14196 -->
<g id="edge34" class="edge"><title>11584&#45;&gt;14196</title>
<path fill="none" stroke="black" d="M560.968,-763.384C541.694,-715.522 488.586,-583.644 469.348,-535.873"/>
</g>
<!-- 13167 -->
<g id="node37" class="node"><title>13167</title>
<g id="a_node37"><a xlink:title="6th_week">
<ellipse fill="#c81d25" stroke="black" cx="480.031" cy="-1756.3" rx="32.4942" ry="18"/>
<text text-anchor="middle" x="480.031" y="-1752.6" font-family="Times,serif" font-size="14.00">13167</text>
</a>
</g>
</g>
<!-- 13167&#45;&gt;19518 -->
<g id="edge3" class="edge"><title>13167&#45;&gt;19518</title>
<path fill="none" stroke="black" d="M487.481,-1738.36C506.595,-1692.35 557.203,-1570.51 576.242,-1524.67"/>
</g>
<!-- 20096 -->
<g id="node62" class="node"><title>20096</title>
<g id="a_node62"><a xlink:title="6th_week">
<ellipse fill="#c81d25" stroke="black" cx="217.196" cy="-1602.15" rx="32.4942" ry="18"/>
<text text-anchor="middle" x="217.196" y="-1598.45" font-family="Times,serif" font-size="14.00">20096</text>
</a>
</g>
</g>
<!-- 14304&#45;&gt;20096 -->
<g id="edge82" class="edge"><title>14304&#45;&gt;20096</title>
<path fill="none" stroke="black" d="M372.687,-1408.22C341.223,-1447.46 262.245,-1545.96 230.608,-1585.42"/>
</g>
<!-- 14401 -->
<g id="node44" class="node"><title>14401</title>
<g id="a_node44"><a xlink:title="6th_week">
<ellipse fill="#c81d25" stroke="black" cx="2070.58" cy="-17.8553" rx="32.4942" ry="18"/>
<text text-anchor="middle" x="2070.58" y="-14.1553" font-family="Times,serif" font-size="14.00">14401</text>
</a>
</g>
</g>
<!-- 14401&#45;&gt;18171 -->
<g id="edge8" class="edge"><title>14401&#45;&gt;18171</title>
<path fill="none" stroke="black" d="M2056.3,-34.1537C2026.8,-67.7984 1959.48,-144.594 1930.02,-178.205"/>
</g>
<!-- 14685 -->
<g id="node46" class="node"><title>14685</title>
<g id="a_node46"><a xlink:title="6th_week">
<ellipse fill="#c81d25" stroke="black" cx="2131.68" cy="-99.6206" rx="32.4942" ry="18"/>
<text text-anchor="middle" x="2131.68" y="-95.9206" font-family="Times,serif" font-size="14.00">14685</text>
</a>
</g>
</g>
<!-- 14685&#45;&gt;18171 -->
<g id="edge47" class="edge"><title>14685&#45;&gt;18171</title>
<path fill="none" stroke="black" d="M2106.07,-110.873C2064.51,-129.126 1982.88,-164.982 1941.35,-183.227"/>
</g>
<!-- 14804 -->
<g id="node47" class="node"><title>14804</title>
<g id="a_node47"><a xlink:title="6th_week">
<ellipse fill="#c81d25" stroke="black" cx="1366.3" cy="-1273.22" rx="32.4942" ry="18"/>
<text text-anchor="middle" x="1366.3" y="-1269.52" font-family="Times,serif" font-size="14.00">14804</text>
</a>
</g>
</g>
<!-- 14804&#45;&gt;24573 -->
<g id="edge36" class="edge"><title>14804&#45;&gt;24573</title>
<path fill="none" stroke="black" d="M1340.42,-1261.84C1293.87,-1241.37 1196.55,-1198.58 1150.13,-1178.18"/>
</g>
<!-- 15356 -->
<g id="node50" class="node"><title>15356</title>
<g id="a_node50"><a xlink:title="6th_week">
<ellipse fill="#c81d25" stroke="black" cx="222.433" cy="-685.051" rx="32.4942" ry="18"/>
<text text-anchor="middle" x="222.433" y="-681.351" font-family="Times,serif" font-size="14.00">15356</text>
</a>
</g>
</g>
<!-- 15356&#45;&gt;26348 -->
<g id="edge53" class="edge"><title>15356&#45;&gt;26348</title>
<path fill="none" stroke="black" d="M239.129,-700.532C278.134,-736.701 374.892,-826.421 413.976,-862.662"/>
</g>
<!-- 15496&#45;&gt;20770 -->
<g id="edge45" class="edge"><title>15496&#45;&gt;20770</title>
<path fill="none" stroke="black" d="M1089.8,-780.352C1147.33,-740.891 1308.2,-630.556 1365.33,-591.373"/>
</g>
<!-- 15496&#45;&gt;23732 -->
<g id="edge85" class="edge"><title>15496&#45;&gt;23732</title>
<path fill="none" stroke="black" d="M1083.27,-778.41C1119.75,-736.957 1216.18,-627.368 1252.8,-585.745"/>
</g>
<!-- 23353 -->
<g id="node70" class="node"><title>23353</title>
<g id="a_node70"><a xlink:title="6th_week">
<ellipse fill="#c81d25" stroke="black" cx="264.738" cy="-525.998" rx="32.4942" ry="18"/>
<text text-anchor="middle" x="264.738" y="-522.298" font-family="Times,serif" font-size="14.00">23353</text>
</a>
</g>
</g>
<!-- 16541&#45;&gt;23353 -->
<g id="edge10" class="edge"><title>16541&#45;&gt;23353</title>
<path fill="none" stroke="black" d="M442.934,-768.54C408.296,-721.394 311.444,-589.569 277.049,-542.754"/>
</g>
<!-- 18309 -->
<g id="node59" class="node"><title>18309</title>
<g id="a_node59"><a xlink:title="6th_week">
<ellipse fill="#c81d25" stroke="black" cx="1152.75" cy="-1526.32" rx="32.4942" ry="18"/>
<text text-anchor="middle" x="1152.75" y="-1522.62" font-family="Times,serif" font-size="14.00">18309</text>
</a>
</g>
</g>
<!-- 17053&#45;&gt;18309 -->
<g id="edge59" class="edge"><title>17053&#45;&gt;18309</title>
<path fill="none" stroke="black" d="M969.868,-1361.16C1007.64,-1395.27 1098.02,-1476.89 1135.75,-1510.96"/>
</g>
<!-- 17973 -->
<g id="node57" class="node"><title>17973</title>
<g id="a_node57"><a xlink:title="6th_week">
<ellipse fill="#c81d25" stroke="black" cx="103.557" cy="-313.539" rx="32.4942" ry="18"/>
<text text-anchor="middle" x="103.557" y="-309.839" font-family="Times,serif" font-size="14.00">17973</text>
</a>
</g>
</g>
<!-- 17973&#45;&gt;23353 -->
<g id="edge70" class="edge"><title>17973&#45;&gt;23353</title>
<path fill="none" stroke="black" d="M116.204,-330.211C146.261,-369.829 221.705,-469.275 251.926,-509.11"/>
</g>
<!-- 22068 -->
<g id="node68" class="node"><title>22068</title>
<g id="a_node68"><a xlink:title="6th_week">
<ellipse fill="#c81d25" stroke="black" cx="137.93" cy="-1400.63" rx="32.4942" ry="18"/>
<text text-anchor="middle" x="137.93" y="-1396.93" font-family="Times,serif" font-size="14.00">22068</text>
</a>
</g>
</g>
<!-- 21251&#45;&gt;22068 -->
<g id="edge76" class="edge"><title>21251&#45;&gt;22068</title>
<path fill="none" stroke="black" d="M352.561,-1292.14C306.782,-1315.28 208.039,-1365.2 162.211,-1388.36"/>
</g>
<!-- 28860 -->
<g id="node89" class="node"><title>28860</title>
<g id="a_node89"><a xlink:title="6th_week">
<ellipse fill="#c81d25" stroke="black" cx="1238.29" cy="-1399.48" rx="32.4942" ry="18"/>
<text text-anchor="middle" x="1238.29" y="-1395.78" font-family="Times,serif" font-size="14.00">28860</text>
</a>
</g>
</g>
<!-- 21946&#45;&gt;28860 -->
<g id="edge9" class="edge"><title>21946&#45;&gt;28860</title>
<path fill="none" stroke="black" d="M1028.42,-1280.25C1072.89,-1305.51 1170.93,-1361.21 1215.47,-1386.52"/>
</g>
<!-- 23957 -->
<g id="node73" class="node"><title>23957</title>
<g id="a_node73"><a xlink:title="6th_week">
<ellipse fill="#c81d25" stroke="black" cx="614.13" cy="-442.789" rx="32.4942" ry="18"/>
<text text-anchor="middle" x="614.13" y="-439.089" font-family="Times,serif" font-size="14.00">23957</text>
</a>
</g>
</g>
<!-- 23957&#45;&gt;24855 -->
<g id="edge86" class="edge"><title>23957&#45;&gt;24855</title>
<path fill="none" stroke="black" d="M617.999,-461.056C628.127,-508.869 655.325,-637.264 665.366,-684.664"/>
</g>
</g>
</svg>
