<?xml version="1.0" encoding="UTF-8" standalone="no"?>
<!DOCTYPE svg PUBLIC "-//W3C//DTD SVG 1.1//EN"
 "http://www.w3.org/Graphics/SVG/1.1/DTD/svg11.dtd">
<!-- Generated by graphviz version 2.38.0 (20140413.2041)
 -->
<!-- Title: %3 Pages: 1 -->
<svg width="1426pt" height="1405pt"
 viewBox="0.00 0.00 1426.00 1405.00" xmlns="http://www.w3.org/2000/svg" xmlns:xlink="http://www.w3.org/1999/xlink">
<g id="graph0" class="graph" transform="scale(1 1) rotate(0) translate(4 1401)">
<title>%3</title>
<polygon fill="white" stroke="none" points="-4,4 -4,-1401 1422,-1401 1422,4 -4,4"/>
<!-- 787 -->
<g id="node1" class="node"><title>787</title>
<g id="a_node1"><a xlink:title="PRE">
<ellipse fill="#71a9f7" stroke="black" cx="750.696" cy="-1022.04" rx="27" ry="18"/>
<text text-anchor="middle" x="750.696" y="-1018.34" font-family="Times,serif" font-size="14.00">787</text>
</a>
</g>
</g>
<!-- 972 -->
<g id="node2" class="node"><title>972</title>
<g id="a_node2"><a xlink:title="PRE">
<ellipse fill="#71a9f7" stroke="black" cx="732.368" cy="-803.984" rx="27" ry="18"/>
<text text-anchor="middle" x="732.368" y="-800.284" font-family="Times,serif" font-size="14.00">972</text>
</a>
</g>
</g>
<!-- 787&#45;&gt;972 -->
<g id="edge46" class="edge"><title>787&#45;&gt;972</title>
<path fill="none" stroke="black" d="M749.165,-1003.83C745.706,-962.677 737.324,-862.948 733.881,-821.995"/>
</g>
<!-- 1307 -->
<g id="node3" class="node"><title>1307</title>
<g id="a_node3"><a xlink:title="PRE">
<ellipse fill="#71a9f7" stroke="black" cx="874.481" cy="-930.775" rx="28.6953" ry="18"/>
<text text-anchor="middle" x="874.481" y="-927.075" font-family="Times,serif" font-size="14.00">1307</text>
</a>
</g>
</g>
<!-- 972&#45;&gt;1307 -->
<g id="edge12" class="edge"><title>972&#45;&gt;1307</title>
<path fill="none" stroke="black" d="M748.67,-818.528C775.937,-842.856 830.499,-891.536 857.931,-916.01"/>
</g>
<!-- 2749 -->
<g id="node4" class="node"><title>2749</title>
<g id="a_node4"><a xlink:title="PRE">
<ellipse fill="#71a9f7" stroke="black" cx="908.398" cy="-637.623" rx="28.6953" ry="18"/>
<text text-anchor="middle" x="908.398" y="-633.923" font-family="Times,serif" font-size="14.00">2749</text>
</a>
</g>
</g>
<!-- 972&#45;&gt;2749 -->
<g id="edge31" class="edge"><title>972&#45;&gt;2749</title>
<path fill="none" stroke="black" d="M747.989,-789.22C781.225,-757.81 858.653,-684.635 892.303,-652.833"/>
</g>
<!-- 4792 -->
<g id="node9" class="node"><title>4792</title>
<g id="a_node9"><a xlink:title="PRE">
<ellipse fill="#71a9f7" stroke="black" cx="574.683" cy="-700.182" rx="28.6953" ry="18"/>
<text text-anchor="middle" x="574.683" y="-696.482" font-family="Times,serif" font-size="14.00">4792</text>
</a>
</g>
</g>
<!-- 972&#45;&gt;4792 -->
<g id="edge15" class="edge"><title>972&#45;&gt;4792</title>
<path fill="none" stroke="black" d="M713.032,-791.256C682.933,-771.442 625.169,-733.417 594.674,-713.342"/>
</g>
<!-- 6263 -->
<g id="node10" class="node"><title>6263</title>
<g id="a_node10"><a xlink:title="PRE">
<ellipse fill="#71a9f7" stroke="black" cx="666.68" cy="-965.484" rx="28.6953" ry="18"/>
<text text-anchor="middle" x="666.68" y="-961.784" font-family="Times,serif" font-size="14.00">6263</text>
</a>
</g>
</g>
<!-- 972&#45;&gt;6263 -->
<g id="edge2" class="edge"><title>972&#45;&gt;6263</title>
<path fill="none" stroke="black" d="M725.213,-821.575C712.577,-852.641 686.455,-916.864 673.826,-947.915"/>
</g>
<!-- 7344 -->
<g id="node12" class="node"><title>7344</title>
<g id="a_node12"><a xlink:title="PRE">
<ellipse fill="#71a9f7" stroke="black" cx="975.691" cy="-514.66" rx="28.6953" ry="18"/>
<text text-anchor="middle" x="975.691" y="-510.96" font-family="Times,serif" font-size="14.00">7344</text>
</a>
</g>
</g>
<!-- 972&#45;&gt;7344 -->
<g id="edge45" class="edge"><title>972&#45;&gt;7344</title>
<path fill="none" stroke="black" d="M745.796,-788.016C788.338,-737.432 919.82,-581.093 962.304,-530.578"/>
</g>
<!-- 7774 -->
<g id="node13" class="node"><title>7774</title>
<g id="a_node13"><a xlink:title="PRE">
<ellipse fill="#71a9f7" stroke="black" cx="910.465" cy="-804.158" rx="28.6953" ry="18"/>
<text text-anchor="middle" x="910.465" y="-800.458" font-family="Times,serif" font-size="14.00">7774</text>
</a>
</g>
</g>
<!-- 972&#45;&gt;7774 -->
<g id="edge3" class="edge"><title>972&#45;&gt;7774</title>
<path fill="none" stroke="black" d="M759.417,-804.01C792.405,-804.042 847.927,-804.097 881.682,-804.13"/>
</g>
<!-- 8737 -->
<g id="node15" class="node"><title>8737</title>
<g id="a_node15"><a xlink:title="PRE">
<ellipse fill="#71a9f7" stroke="black" cx="549.806" cy="-878.317" rx="28.6953" ry="18"/>
<text text-anchor="middle" x="549.806" y="-874.617" font-family="Times,serif" font-size="14.00">8737</text>
</a>
</g>
</g>
<!-- 972&#45;&gt;8737 -->
<g id="edge51" class="edge"><title>972&#45;&gt;8737</title>
<path fill="none" stroke="black" d="M709.246,-813.398C674.513,-827.54 609.192,-854.137 573.898,-868.508"/>
</g>
<!-- 11061 -->
<g id="node18" class="node"><title>11061</title>
<g id="a_node18"><a xlink:title="PRE">
<ellipse fill="#71a9f7" stroke="black" cx="978.742" cy="-754.655" rx="32.4942" ry="18"/>
<text text-anchor="middle" x="978.742" y="-750.955" font-family="Times,serif" font-size="14.00">11061</text>
</a>
</g>
</g>
<!-- 972&#45;&gt;11061 -->
<g id="edge10" class="edge"><title>972&#45;&gt;11061</title>
<path fill="none" stroke="black" d="M758.268,-798.798C803.98,-789.646 898.763,-770.668 947.821,-760.846"/>
</g>
<!-- 11645 -->
<g id="node19" class="node"><title>11645</title>
<g id="a_node19"><a xlink:title="PRE">
<ellipse fill="#71a9f7" stroke="black" cx="498.791" cy="-825.24" rx="32.4942" ry="18"/>
<text text-anchor="middle" x="498.791" y="-821.54" font-family="Times,serif" font-size="14.00">11645</text>
</a>
</g>
</g>
<!-- 972&#45;&gt;11645 -->
<g id="edge23" class="edge"><title>972&#45;&gt;11645</title>
<path fill="none" stroke="black" d="M705.573,-806.422C662.434,-810.348 577.73,-818.056 531.238,-822.287"/>
</g>
<!-- 12202 -->
<g id="node20" class="node"><title>12202</title>
<g id="a_node20"><a xlink:title="PRE">
<ellipse fill="#71a9f7" stroke="black" cx="473.977" cy="-639.965" rx="32.4942" ry="18"/>
<text text-anchor="middle" x="473.977" y="-636.265" font-family="Times,serif" font-size="14.00">12202</text>
</a>
</g>
</g>
<!-- 972&#45;&gt;12202 -->
<g id="edge49" class="edge"><title>972&#45;&gt;12202</title>
<path fill="none" stroke="black" d="M712.521,-791.386C665.015,-761.231 545.053,-685.082 495.7,-653.754"/>
</g>
<!-- 13143 -->
<g id="node22" class="node"><title>13143</title>
<g id="a_node22"><a xlink:title="PRE">
<ellipse fill="#71a9f7" stroke="black" cx="843.711" cy="-574.997" rx="32.4942" ry="18"/>
<text text-anchor="middle" x="843.711" y="-571.297" font-family="Times,serif" font-size="14.00">13143</text>
</a>
</g>
</g>
<!-- 972&#45;&gt;13143 -->
<g id="edge19" class="edge"><title>972&#45;&gt;13143</title>
<path fill="none" stroke="black" d="M740.736,-786.773C761.371,-744.336 814.509,-635.053 835.245,-592.408"/>
</g>
<!-- 14236 -->
<g id="node23" class="node"><title>14236</title>
<g id="a_node23"><a xlink:title="PRE">
<ellipse fill="#71a9f7" stroke="black" cx="956.746" cy="-918.365" rx="32.4942" ry="18"/>
<text text-anchor="middle" x="956.746" y="-914.665" font-family="Times,serif" font-size="14.00">14236</text>
</a>
</g>
</g>
<!-- 972&#45;&gt;14236 -->
<g id="edge20" class="edge"><title>972&#45;&gt;14236</title>
<path fill="none" stroke="black" d="M753.882,-814.951C795.892,-836.367 888.568,-883.611 932.602,-906.058"/>
</g>
<!-- 18264 -->
<g id="node25" class="node"><title>18264</title>
<g id="a_node25"><a xlink:title="PRE">
<ellipse fill="#71a9f7" stroke="black" cx="724.015" cy="-632.28" rx="32.4942" ry="18"/>
<text text-anchor="middle" x="724.015" y="-628.58" font-family="Times,serif" font-size="14.00">18264</text>
</a>
</g>
</g>
<!-- 972&#45;&gt;18264 -->
<g id="edge11" class="edge"><title>972&#45;&gt;18264</title>
<path fill="none" stroke="black" d="M731.489,-785.933C729.885,-752.956 726.499,-683.335 724.894,-650.346"/>
</g>
<!-- 18330 -->
<g id="node26" class="node"><title>18330</title>
<g id="a_node26"><a xlink:title="PRE">
<ellipse fill="#71a9f7" stroke="black" cx="545.572" cy="-945.655" rx="32.4942" ry="18"/>
<text text-anchor="middle" x="545.572" y="-941.955" font-family="Times,serif" font-size="14.00">18330</text>
</a>
</g>
</g>
<!-- 972&#45;&gt;18330 -->
<g id="edge47" class="edge"><title>972&#45;&gt;18330</title>
<path fill="none" stroke="black" d="M714.457,-817.568C679.209,-844.301 601.118,-903.527 564.818,-931.059"/>
</g>
<!-- 19699 -->
<g id="node27" class="node"><title>19699</title>
<g id="a_node27"><a xlink:title="PRE">
<ellipse fill="#71a9f7" stroke="black" cx="904.388" cy="-1003.6" rx="32.4942" ry="18"/>
<text text-anchor="middle" x="904.388" y="-999.904" font-family="Times,serif" font-size="14.00">19699</text>
</a>
</g>
</g>
<!-- 972&#45;&gt;19699 -->
<g id="edge55" class="edge"><title>972&#45;&gt;19699</title>
<path fill="none" stroke="black" d="M745.866,-819.648C777.785,-856.688 857.668,-949.387 890.234,-987.178"/>
</g>
<!-- 22018 -->
<g id="node28" class="node"><title>22018</title>
<g id="a_node28"><a xlink:title="PRE">
<ellipse fill="#71a9f7" stroke="black" cx="576.338" cy="-790.983" rx="32.4942" ry="18"/>
<text text-anchor="middle" x="576.338" y="-787.283" font-family="Times,serif" font-size="14.00">22018</text>
</a>
</g>
</g>
<!-- 972&#45;&gt;22018 -->
<g id="edge24" class="edge"><title>972&#45;&gt;22018</title>
<path fill="none" stroke="black" d="M705.545,-801.749C678.709,-799.513 637.403,-796.071 608.747,-793.683"/>
</g>
<!-- 27952 -->
<g id="node30" class="node"><title>27952</title>
<g id="a_node30"><a xlink:title="PRE">
<ellipse fill="#71a9f7" stroke="black" cx="989.908" cy="-842.394" rx="32.4942" ry="18"/>
<text text-anchor="middle" x="989.908" y="-838.694" font-family="Times,serif" font-size="14.00">27952</text>
</a>
</g>
</g>
<!-- 972&#45;&gt;27952 -->
<g id="edge41" class="edge"><title>972&#45;&gt;27952</title>
<path fill="none" stroke="black" d="M758.959,-807.95C806.767,-815.08 907.021,-830.032 958.272,-837.676"/>
</g>
<!-- 28206 -->
<g id="node31" class="node"><title>28206</title>
<g id="a_node31"><a xlink:title="PRE">
<ellipse fill="#71a9f7" stroke="black" cx="1107.41" cy="-730.821" rx="32.4942" ry="18"/>
<text text-anchor="middle" x="1107.41" y="-727.121" font-family="Times,serif" font-size="14.00">28206</text>
</a>
</g>
</g>
<!-- 972&#45;&gt;28206 -->
<g id="edge53" class="edge"><title>972&#45;&gt;28206</title>
<path fill="none" stroke="black" d="M758.442,-798.897C825.636,-785.789 1004.47,-750.902 1076.61,-736.83"/>
</g>
<!-- 32451 -->
<g id="node35" class="node"><title>32451</title>
<g id="a_node35"><a xlink:title="PRE">
<ellipse fill="#71a9f7" stroke="black" cx="664.037" cy="-574.614" rx="32.4942" ry="18"/>
<text text-anchor="middle" x="664.037" y="-570.914" font-family="Times,serif" font-size="14.00">32451</text>
</a>
</g>
</g>
<!-- 972&#45;&gt;32451 -->
<g id="edge21" class="edge"><title>972&#45;&gt;32451</title>
<path fill="none" stroke="black" d="M727.006,-785.986C714.232,-743.108 682.122,-635.321 669.374,-592.528"/>
</g>
<!-- 37520 -->
<g id="node37" class="node"><title>37520</title>
<g id="a_node37"><a xlink:title="PRE">
<ellipse fill="#71a9f7" stroke="black" cx="503.276" cy="-742.675" rx="32.4942" ry="18"/>
<text text-anchor="middle" x="503.276" y="-738.975" font-family="Times,serif" font-size="14.00">37520</text>
</a>
</g>
</g>
<!-- 972&#45;&gt;37520 -->
<g id="edge40" class="edge"><title>972&#45;&gt;37520</title>
<path fill="none" stroke="black" d="M706.975,-797.189C664.221,-785.747 578.099,-762.699 532.748,-750.562"/>
</g>
<!-- 37749 -->
<g id="node38" class="node"><title>37749</title>
<g id="a_node38"><a xlink:title="PRE">
<ellipse fill="#71a9f7" stroke="black" cx="573.544" cy="-541.614" rx="32.4942" ry="18"/>
<text text-anchor="middle" x="573.544" y="-537.914" font-family="Times,serif" font-size="14.00">37749</text>
</a>
</g>
</g>
<!-- 972&#45;&gt;37749 -->
<g id="edge35" class="edge"><title>972&#45;&gt;37749</title>
<path fill="none" stroke="black" d="M722.191,-787.172C693.641,-740.009 612.994,-606.783 584.049,-558.968"/>
</g>
<!-- 38254 -->
<g id="node41" class="node"><title>38254</title>
<g id="a_node41"><a xlink:title="PRE">
<ellipse fill="#71a9f7" stroke="black" cx="751.394" cy="-1136" rx="32.4942" ry="18"/>
<text text-anchor="middle" x="751.394" y="-1132.3" font-family="Times,serif" font-size="14.00">38254</text>
</a>
</g>
</g>
<!-- 972&#45;&gt;38254 -->
<g id="edge6" class="edge"><title>972&#45;&gt;38254</title>
<path fill="none" stroke="black" d="M733.418,-822.307C736.744,-880.355 747.025,-1059.76 750.347,-1117.73"/>
</g>
<!-- 38387 -->
<g id="node42" class="node"><title>38387</title>
<g id="a_node42"><a xlink:title="PRE">
<ellipse fill="#71a9f7" stroke="black" cx="1082.83" cy="-967.842" rx="32.4942" ry="18"/>
<text text-anchor="middle" x="1082.83" y="-964.142" font-family="Times,serif" font-size="14.00">38387</text>
</a>
</g>
</g>
<!-- 972&#45;&gt;38387 -->
<g id="edge7" class="edge"><title>972&#45;&gt;38387</title>
<path fill="none" stroke="black" d="M754.556,-814.358C816.699,-843.413 992.185,-925.461 1057.73,-956.105"/>
</g>
<!-- 42351 -->
<g id="node43" class="node"><title>42351</title>
<g id="a_node43"><a xlink:title="PRE">
<ellipse fill="#71a9f7" stroke="black" cx="567.351" cy="-629.301" rx="32.4942" ry="18"/>
<text text-anchor="middle" x="567.351" y="-625.601" font-family="Times,serif" font-size="14.00">42351</text>
</a>
</g>
</g>
<!-- 972&#45;&gt;42351 -->
<g id="edge39" class="edge"><title>972&#45;&gt;42351</title>
<path fill="none" stroke="black" d="M717.723,-788.482C686.567,-755.5 613.984,-678.666 582.439,-645.272"/>
</g>
<!-- 45617 -->
<g id="node46" class="node"><title>45617</title>
<g id="a_node46"><a xlink:title="PRE">
<ellipse fill="#71a9f7" stroke="black" cx="830.197" cy="-644.511" rx="32.4942" ry="18"/>
<text text-anchor="middle" x="830.197" y="-640.811" font-family="Times,serif" font-size="14.00">45617</text>
</a>
</g>
</g>
<!-- 972&#45;&gt;45617 -->
<g id="edge1" class="edge"><title>972&#45;&gt;45617</title>
<path fill="none" stroke="black" d="M742.652,-787.219C761.294,-756.831 800.487,-692.941 819.458,-662.017"/>
</g>
<!-- 46563 -->
<g id="node48" class="node"><title>46563</title>
<g id="a_node48"><a xlink:title="PRE">
<ellipse fill="#71a9f7" stroke="black" cx="824.876" cy="-1025.52" rx="32.4942" ry="18"/>
<text text-anchor="middle" x="824.876" y="-1021.82" font-family="Times,serif" font-size="14.00">46563</text>
</a>
</g>
</g>
<!-- 972&#45;&gt;46563 -->
<g id="edge25" class="edge"><title>972&#45;&gt;46563</title>
<path fill="none" stroke="black" d="M739.626,-821.368C756.877,-862.679 800.178,-966.376 817.522,-1007.91"/>
</g>
<!-- 49757 -->
<g id="node51" class="node"><title>49757</title>
<g id="a_node51"><a xlink:title="PRE">
<ellipse fill="#71a9f7" stroke="black" cx="928.363" cy="-1137.1" rx="32.4942" ry="18"/>
<text text-anchor="middle" x="928.363" y="-1133.4" font-family="Times,serif" font-size="14.00">49757</text>
</a>
</g>
</g>
<!-- 972&#45;&gt;49757 -->
<g id="edge26" class="edge"><title>972&#45;&gt;49757</title>
<path fill="none" stroke="black" d="M742.356,-820.961C775.9,-877.971 884.299,-1062.21 918.16,-1119.76"/>
</g>
<!-- 52661 -->
<g id="node52" class="node"><title>52661</title>
<g id="a_node52"><a xlink:title="PRE">
<ellipse fill="#71a9f7" stroke="black" cx="597.559" cy="-1002.74" rx="32.4942" ry="18"/>
<text text-anchor="middle" x="597.559" y="-999.043" font-family="Times,serif" font-size="14.00">52661</text>
</a>
</g>
</g>
<!-- 972&#45;&gt;52661 -->
<g id="edge42" class="edge"><title>972&#45;&gt;52661</title>
<path fill="none" stroke="black" d="M721.106,-820.588C695.793,-857.908 634.625,-948.094 609.074,-985.765"/>
</g>
<!-- 53915 -->
<g id="node53" class="node"><title>53915</title>
<g id="a_node53"><a xlink:title="PRE">
<ellipse fill="#71a9f7" stroke="black" cx="669.843" cy="-1050.04" rx="32.4942" ry="18"/>
<text text-anchor="middle" x="669.843" y="-1046.34" font-family="Times,serif" font-size="14.00">53915</text>
</a>
</g>
</g>
<!-- 972&#45;&gt;53915 -->
<g id="edge59" class="edge"><title>972&#45;&gt;53915</title>
<path fill="none" stroke="black" d="M727.77,-822.077C716.207,-867.581 686.017,-986.392 674.447,-1031.92"/>
</g>
<!-- 54473 -->
<g id="node54" class="node"><title>54473</title>
<g id="a_node54"><a xlink:title="PRE">
<ellipse fill="#71a9f7" stroke="black" cx="300.608" cy="-1077.68" rx="32.4942" ry="18"/>
<text text-anchor="middle" x="300.608" y="-1073.98" font-family="Times,serif" font-size="14.00">54473</text>
</a>
</g>
</g>
<!-- 972&#45;&gt;54473 -->
<g id="edge27" class="edge"><title>972&#45;&gt;54473</title>
<path fill="none" stroke="black" d="M712.694,-816.455C641.344,-861.685 396.487,-1016.9 322.168,-1064.02"/>
</g>
<!-- 60873 -->
<g id="node56" class="node"><title>60873</title>
<g id="a_node56"><a xlink:title="PRE">
<ellipse fill="#71a9f7" stroke="black" cx="756.342" cy="-567.314" rx="32.4942" ry="18"/>
<text text-anchor="middle" x="756.342" y="-563.614" font-family="Times,serif" font-size="14.00">60873</text>
</a>
</g>
</g>
<!-- 972&#45;&gt;60873 -->
<g id="edge8" class="edge"><title>972&#45;&gt;60873</title>
<path fill="none" stroke="black" d="M734.209,-785.806C738.672,-741.752 750.026,-629.672 754.495,-585.554"/>
</g>
<!-- 60905 -->
<g id="node57" class="node"><title>60905</title>
<g id="a_node57"><a xlink:title="PRE">
<ellipse fill="#71a9f7" stroke="black" cx="721.714" cy="-457.852" rx="32.4942" ry="18"/>
<text text-anchor="middle" x="721.714" y="-454.152" font-family="Times,serif" font-size="14.00">60905</text>
</a>
</g>
</g>
<!-- 972&#45;&gt;60905 -->
<g id="edge38" class="edge"><title>972&#45;&gt;60905</title>
<path fill="none" stroke="black" d="M731.81,-785.862C729.973,-726.188 724.126,-536.231 722.279,-476.212"/>
</g>
<!-- 62910 -->
<g id="node58" class="node"><title>62910</title>
<g id="a_node58"><a xlink:title="PRE">
<ellipse fill="#71a9f7" stroke="black" cx="955.451" cy="-686.51" rx="32.4942" ry="18"/>
<text text-anchor="middle" x="955.451" y="-682.81" font-family="Times,serif" font-size="14.00">62910</text>
</a>
</g>
</g>
<!-- 972&#45;&gt;62910 -->
<g id="edge57" class="edge"><title>972&#45;&gt;62910</title>
<path fill="none" stroke="black" d="M753.758,-792.72C795.635,-770.668 888.148,-721.951 931.788,-698.97"/>
</g>
<!-- 3750 -->
<g id="node5" class="node"><title>3750</title>
<g id="a_node5"><a xlink:title="PRE">
<ellipse fill="#71a9f7" stroke="black" cx="424.124" cy="-317.801" rx="28.6953" ry="18"/>
<text text-anchor="middle" x="424.124" y="-314.101" font-family="Times,serif" font-size="14.00">3750</text>
</a>
</g>
</g>
<!-- 3750&#45;&gt;37749 -->
<g id="edge37" class="edge"><title>3750&#45;&gt;37749</title>
<path fill="none" stroke="black" d="M435.355,-334.624C463.046,-376.101 534.356,-482.915 562.183,-524.596"/>
</g>
<!-- 3925 -->
<g id="node6" class="node"><title>3925</title>
<g id="a_node6"><a xlink:title="PRE">
<ellipse fill="#71a9f7" stroke="black" cx="151.612" cy="-1247.21" rx="28.6953" ry="18"/>
<text text-anchor="middle" x="151.612" y="-1243.51" font-family="Times,serif" font-size="14.00">3925</text>
</a>
</g>
</g>
<!-- 3925&#45;&gt;54473 -->
<g id="edge32" class="edge"><title>3925&#45;&gt;54473</title>
<path fill="none" stroke="black" d="M165.629,-1231.26C193.954,-1199.03 257.736,-1126.46 286.301,-1093.96"/>
</g>
<!-- 4049 -->
<g id="node7" class="node"><title>4049</title>
<g id="a_node7"><a xlink:title="PRE">
<ellipse fill="#71a9f7" stroke="black" cx="218.006" cy="-1322.84" rx="28.6953" ry="18"/>
<text text-anchor="middle" x="218.006" y="-1319.14" font-family="Times,serif" font-size="14.00">4049</text>
</a>
</g>
</g>
<!-- 4049&#45;&gt;54473 -->
<g id="edge29" class="edge"><title>4049&#45;&gt;54473</title>
<path fill="none" stroke="black" d="M223.946,-1305.21C239.15,-1260.09 279.344,-1140.79 294.611,-1095.48"/>
</g>
<!-- 4544 -->
<g id="node8" class="node"><title>4544</title>
<g id="a_node8"><a xlink:title="PRE">
<ellipse fill="#71a9f7" stroke="black" cx="1338.91" cy="-731.482" rx="28.6953" ry="18"/>
<text text-anchor="middle" x="1338.91" y="-727.782" font-family="Times,serif" font-size="14.00">4544</text>
</a>
</g>
</g>
<!-- 4544&#45;&gt;28206 -->
<g id="edge18" class="edge"><title>4544&#45;&gt;28206</title>
<path fill="none" stroke="black" d="M1310.06,-731.4C1266.79,-731.276 1185.34,-731.044 1139.99,-730.914"/>
</g>
<!-- 6492 -->
<g id="node11" class="node"><title>6492</title>
<g id="a_node11"><a xlink:title="PRE">
<ellipse fill="#71a9f7" stroke="black" cx="291.365" cy="-1321.02" rx="28.6953" ry="18"/>
<text text-anchor="middle" x="291.365" y="-1317.32" font-family="Times,serif" font-size="14.00">6492</text>
</a>
</g>
</g>
<!-- 6492&#45;&gt;54473 -->
<g id="edge43" class="edge"><title>6492&#45;&gt;54473</title>
<path fill="none" stroke="black" d="M292.06,-1302.73C293.777,-1257.53 298.206,-1140.93 299.918,-1095.85"/>
</g>
<!-- 12584 -->
<g id="node21" class="node"><title>12584</title>
<g id="a_node21"><a xlink:title="PRE">
<ellipse fill="#71a9f7" stroke="black" cx="1192.98" cy="-231.886" rx="32.4942" ry="18"/>
<text text-anchor="middle" x="1192.98" y="-228.186" font-family="Times,serif" font-size="14.00">12584</text>
</a>
</g>
</g>
<!-- 7344&#45;&gt;12584 -->
<g id="edge36" class="edge"><title>7344&#45;&gt;12584</title>
<path fill="none" stroke="black" d="M988.313,-498.234C1026.63,-448.374 1141.33,-299.101 1180.05,-248.712"/>
</g>
<!-- 8181 -->
<g id="node14" class="node"><title>8181</title>
<g id="a_node14"><a xlink:title="PRE">
<ellipse fill="#71a9f7" stroke="black" cx="1083.81" cy="-1313.19" rx="28.6953" ry="18"/>
<text text-anchor="middle" x="1083.81" y="-1309.49" font-family="Times,serif" font-size="14.00">8181</text>
</a>
</g>
</g>
<!-- 8181&#45;&gt;49757 -->
<g id="edge16" class="edge"><title>8181&#45;&gt;49757</title>
<path fill="none" stroke="black" d="M1069.74,-1297.25C1040.3,-1263.89 972.449,-1187.04 942.738,-1153.38"/>
</g>
<!-- 10059 -->
<g id="node16" class="node"><title>10059</title>
<g id="a_node16"><a xlink:title="PRE">
<ellipse fill="#71a9f7" stroke="black" cx="1249.03" cy="-18.1833" rx="32.4942" ry="18"/>
<text text-anchor="middle" x="1249.03" y="-14.4833" font-family="Times,serif" font-size="14.00">10059</text>
</a>
</g>
</g>
<!-- 10059&#45;&gt;12584 -->
<g id="edge4" class="edge"><title>10059&#45;&gt;12584</title>
<path fill="none" stroke="black" d="M1244.35,-36.0359C1233.8,-76.2622 1208.27,-173.613 1197.69,-213.934"/>
</g>
<!-- 10517 -->
<g id="node17" class="node"><title>10517</title>
<g id="a_node17"><a xlink:title="PRE">
<ellipse fill="#71a9f7" stroke="black" cx="651.519" cy="-198.548" rx="32.4942" ry="18"/>
<text text-anchor="middle" x="651.519" y="-194.848" font-family="Times,serif" font-size="14.00">10517</text>
</a>
</g>
</g>
<!-- 10517&#45;&gt;60905 -->
<g id="edge56" class="edge"><title>10517&#45;&gt;60905</title>
<path fill="none" stroke="black" d="M656.344,-216.371C669.168,-263.742 703.993,-392.391 716.855,-439.904"/>
</g>
<!-- 47611 -->
<g id="node60" class="node"><title>47611</title>
<g id="a_node60"><a xlink:title="PRE">
<ellipse fill="#71a9f7" stroke="black" cx="247.749" cy="-487.352" rx="32.4942" ry="18"/>
<text text-anchor="middle" x="247.749" y="-483.652" font-family="Times,serif" font-size="14.00">47611</text>
</a>
</g>
</g>
<!-- 12202&#45;&gt;47611 -->
<g id="edge14" class="edge"><title>12202&#45;&gt;47611</title>
<path fill="none" stroke="black" d="M453.1,-625.881C410.003,-596.808 311.631,-530.446 268.576,-501.402"/>
</g>
<!-- 45126 -->
<g id="node45" class="node"><title>45126</title>
<g id="a_node45"><a xlink:title="PRE">
<ellipse fill="#71a9f7" stroke="black" cx="1385.46" cy="-123.494" rx="32.4942" ry="18"/>
<text text-anchor="middle" x="1385.46" y="-119.794" font-family="Times,serif" font-size="14.00">45126</text>
</a>
</g>
</g>
<!-- 12584&#45;&gt;45126 -->
<g id="edge48" class="edge"><title>12584&#45;&gt;45126</title>
<path fill="none" stroke="black" d="M1215.82,-219.026C1252.86,-198.165 1325.63,-157.187 1362.65,-136.337"/>
</g>
<!-- 33305 -->
<g id="node59" class="node"><title>33305</title>
<g id="a_node59"><a xlink:title="PRE">
<ellipse fill="#71a9f7" stroke="black" cx="1328.87" cy="-55.7958" rx="32.4942" ry="18"/>
<text text-anchor="middle" x="1328.87" y="-52.0958" font-family="Times,serif" font-size="14.00">33305</text>
</a>
</g>
</g>
<!-- 12584&#45;&gt;33305 -->
<g id="edge30" class="edge"><title>12584&#45;&gt;33305</title>
<path fill="none" stroke="black" d="M1205.77,-215.32C1231.67,-181.758 1290.07,-106.078 1316.02,-72.4461"/>
</g>
<!-- 14899 -->
<g id="node24" class="node"><title>14899</title>
<g id="a_node24"><a xlink:title="PRE">
<ellipse fill="#71a9f7" stroke="black" cx="75.5172" cy="-1241.43" rx="32.4942" ry="18"/>
<text text-anchor="middle" x="75.5172" y="-1237.73" font-family="Times,serif" font-size="14.00">14899</text>
</a>
</g>
</g>
<!-- 14899&#45;&gt;54473 -->
<g id="edge33" class="edge"><title>14899&#45;&gt;54473</title>
<path fill="none" stroke="black" d="M95.4925,-1226.9C138.207,-1195.82 238.003,-1123.23 280.678,-1092.18"/>
</g>
<!-- 24076 -->
<g id="node29" class="node"><title>24076</title>
<g id="a_node29"><a xlink:title="PRE">
<ellipse fill="#71a9f7" stroke="black" cx="142.494" cy="-1311.72" rx="32.4942" ry="18"/>
<text text-anchor="middle" x="142.494" y="-1308.02" font-family="Times,serif" font-size="14.00">24076</text>
</a>
</g>
</g>
<!-- 24076&#45;&gt;54473 -->
<g id="edge28" class="edge"><title>24076&#45;&gt;54473</title>
<path fill="none" stroke="black" d="M154.121,-1294.51C183.432,-1251.12 260.079,-1137.67 289.178,-1094.6"/>
</g>
<!-- 49357 -->
<g id="node50" class="node"><title>49357</title>
<g id="a_node50"><a xlink:title="PRE">
<ellipse fill="#71a9f7" stroke="black" cx="1327" cy="-638.153" rx="32.4942" ry="18"/>
<text text-anchor="middle" x="1327" y="-634.453" font-family="Times,serif" font-size="14.00">49357</text>
</a>
</g>
</g>
<!-- 28206&#45;&gt;49357 -->
<g id="edge22" class="edge"><title>28206&#45;&gt;49357</title>
<path fill="none" stroke="black" d="M1133.46,-719.827C1175.73,-701.992 1258.74,-666.959 1300.98,-649.133"/>
</g>
<!-- 28761 -->
<g id="node32" class="node"><title>28761</title>
<g id="a_node32"><a xlink:title="PRE">
<ellipse fill="#71a9f7" stroke="black" cx="751.658" cy="-197.158" rx="32.4942" ry="18"/>
<text text-anchor="middle" x="751.658" y="-193.458" font-family="Times,serif" font-size="14.00">28761</text>
</a>
</g>
</g>
<!-- 28761&#45;&gt;60905 -->
<g id="edge58" class="edge"><title>28761&#45;&gt;60905</title>
<path fill="none" stroke="black" d="M749.552,-215.489C744.041,-263.471 729.241,-392.32 723.777,-439.887"/>
</g>
<!-- 30016 -->
<g id="node33" class="node"><title>30016</title>
<g id="a_node33"><a xlink:title="PRE">
<ellipse fill="#71a9f7" stroke="black" cx="1008.81" cy="-1367.68" rx="32.4942" ry="18"/>
<text text-anchor="middle" x="1008.81" y="-1363.98" font-family="Times,serif" font-size="14.00">30016</text>
</a>
</g>
</g>
<!-- 30016&#45;&gt;49757 -->
<g id="edge44" class="edge"><title>30016&#45;&gt;49757</title>
<path fill="none" stroke="black" d="M1002.63,-1349.97C987.658,-1307.05 949.56,-1197.85 934.564,-1154.87"/>
</g>
<!-- 31486 -->
<g id="node34" class="node"><title>31486</title>
<g id="a_node34"><a xlink:title="PRE">
<ellipse fill="#71a9f7" stroke="black" cx="38.6431" cy="-1030.19" rx="32.4942" ry="18"/>
<text text-anchor="middle" x="38.6431" y="-1026.49" font-family="Times,serif" font-size="14.00">31486</text>
</a>
</g>
</g>
<!-- 31486&#45;&gt;54473 -->
<g id="edge50" class="edge"><title>31486&#45;&gt;54473</title>
<path fill="none" stroke="black" d="M69.7227,-1035.83C120.14,-1044.97 219.178,-1062.92 269.569,-1072.06"/>
</g>
<!-- 34339 -->
<g id="node36" class="node"><title>34339</title>
<g id="a_node36"><a xlink:title="PRE">
<ellipse fill="#71a9f7" stroke="black" cx="1279.34" cy="-1110.27" rx="32.4942" ry="18"/>
<text text-anchor="middle" x="1279.34" y="-1106.57" font-family="Times,serif" font-size="14.00">34339</text>
</a>
</g>
</g>
<!-- 34339&#45;&gt;38387 -->
<g id="edge5" class="edge"><title>34339&#45;&gt;38387</title>
<path fill="none" stroke="black" d="M1259.42,-1095.83C1221.75,-1068.53 1140.51,-1009.65 1102.81,-982.321"/>
</g>
<!-- 38091 -->
<g id="node39" class="node"><title>38091</title>
<g id="a_node39"><a xlink:title="PRE">
<ellipse fill="#71a9f7" stroke="black" cx="38.877" cy="-1173.88" rx="32.4942" ry="18"/>
<text text-anchor="middle" x="38.877" y="-1170.18" font-family="Times,serif" font-size="14.00">38091</text>
</a>
</g>
</g>
<!-- 38091&#45;&gt;54473 -->
<g id="edge54" class="edge"><title>38091&#45;&gt;54473</title>
<path fill="none" stroke="black" d="M66.3922,-1163.76C116.791,-1145.24 223.338,-1106.08 273.462,-1087.66"/>
</g>
<!-- 38215 -->
<g id="node40" class="node"><title>38215</title>
<g id="a_node40"><a xlink:title="PRE">
<ellipse fill="#71a9f7" stroke="black" cx="123.212" cy="-1142" rx="32.4942" ry="18"/>
<text text-anchor="middle" x="123.212" y="-1138.3" font-family="Times,serif" font-size="14.00">38215</text>
</a>
</g>
</g>
<!-- 38215&#45;&gt;54473 -->
<g id="edge34" class="edge"><title>38215&#45;&gt;54473</title>
<path fill="none" stroke="black" d="M150.541,-1132.09C183.877,-1120 239.898,-1099.69 273.248,-1087.6"/>
</g>
<!-- 46140 -->
<g id="node47" class="node"><title>46140</title>
<g id="a_node47"><a xlink:title="PRE">
<ellipse fill="#71a9f7" stroke="black" cx="763.48" cy="-1378.52" rx="32.4942" ry="18"/>
<text text-anchor="middle" x="763.48" y="-1374.82" font-family="Times,serif" font-size="14.00">46140</text>
</a>
</g>
</g>
<!-- 38254&#45;&gt;46140 -->
<g id="edge17" class="edge"><title>38254&#45;&gt;46140</title>
<path fill="none" stroke="black" d="M752.302,-1154.22C754.548,-1199.28 760.339,-1315.48 762.578,-1360.41"/>
</g>
<!-- 57858 -->
<g id="node55" class="node"><title>57858</title>
<g id="a_node55"><a xlink:title="PRE">
<ellipse fill="#71a9f7" stroke="black" cx="1318.3" cy="-1025.44" rx="32.4942" ry="18"/>
<text text-anchor="middle" x="1318.3" y="-1021.74" font-family="Times,serif" font-size="14.00">57858</text>
</a>
</g>
</g>
<!-- 38387&#45;&gt;57858 -->
<g id="edge9" class="edge"><title>38387&#45;&gt;57858</title>
<path fill="none" stroke="black" d="M1112.65,-975.136C1157.82,-986.184 1243.1,-1007.04 1288.35,-1018.11"/>
</g>
<!-- 45123 -->
<g id="node44" class="node"><title>45123</title>
<g id="a_node44"><a xlink:title="PRE">
<ellipse fill="#71a9f7" stroke="black" cx="76.4065" cy="-967.433" rx="32.4942" ry="18"/>
<text text-anchor="middle" x="76.4065" y="-963.733" font-family="Times,serif" font-size="14.00">45123</text>
</a>
</g>
</g>
<!-- 45123&#45;&gt;54473 -->
<g id="edge13" class="edge"><title>45123&#45;&gt;54473</title>
<path fill="none" stroke="black" d="M100.827,-979.441C143.954,-1000.65 233.112,-1044.49 276.218,-1065.69"/>
</g>
<!-- 48414 -->
<g id="node49" class="node"><title>48414</title>
<g id="a_node49"><a xlink:title="PRE">
<ellipse fill="#71a9f7" stroke="black" cx="32.2628" cy="-1090.72" rx="32.4942" ry="18"/>
<text text-anchor="middle" x="32.2628" y="-1087.02" font-family="Times,serif" font-size="14.00">48414</text>
</a>
</g>
</g>
<!-- 48414&#45;&gt;54473 -->
<g id="edge52" class="edge"><title>48414&#45;&gt;54473</title>
<path fill="none" stroke="black" d="M64.899,-1089.13C116.579,-1086.62 216.66,-1081.76 268.199,-1079.26"/>
</g>
</g>
</svg>
