<?xml version="1.0" encoding="UTF-8" standalone="no"?>
<!DOCTYPE svg PUBLIC "-//W3C//DTD SVG 1.1//EN"
 "http://www.w3.org/Graphics/SVG/1.1/DTD/svg11.dtd">
<!-- Generated by graphviz version 2.38.0 (20140413.2041)
 -->
<!-- Title: %3 Pages: 1 -->
<svg width="1284pt" height="1384pt"
 viewBox="0.00 0.00 1284.00 1384.00" xmlns="http://www.w3.org/2000/svg" xmlns:xlink="http://www.w3.org/1999/xlink">
<g id="graph0" class="graph" transform="scale(1 1) rotate(0) translate(4 1380)">
<title>%3</title>
<polygon fill="white" stroke="none" points="-4,4 -4,-1380 1280,-1380 1280,4 -4,4"/>
<!-- 1416 -->
<g id="node1" class="node"><title>1416</title>
<g id="a_node1"><a xlink:title="6th_week">
<ellipse fill="#c81d25" stroke="black" cx="800.54" cy="-849.121" rx="28.6953" ry="18"/>
<text text-anchor="middle" x="800.54" y="-845.421" font-family="Times,serif" font-size="14.00">1416</text>
</a>
</g>
</g>
<!-- 35769 -->
<g id="node37" class="node"><title>35769</title>
<g id="a_node37"><a xlink:title="6th_week">
<ellipse fill="#c81d25" stroke="black" cx="649.082" cy="-733.849" rx="32.4942" ry="18"/>
<text text-anchor="middle" x="649.082" y="-730.149" font-family="Times,serif" font-size="14.00">35769</text>
</a>
</g>
</g>
<!-- 1416&#45;&gt;35769 -->
<g id="edge35" class="edge"><title>1416&#45;&gt;35769</title>
<path fill="none" stroke="black" d="M782.27,-835.216C753.474,-813.3 697.788,-770.918 668.371,-748.53"/>
</g>
<!-- 2610 -->
<g id="node2" class="node"><title>2610</title>
<g id="a_node2"><a xlink:title="6th_week">
<ellipse fill="#c81d25" stroke="black" cx="623.157" cy="-911.186" rx="28.6953" ry="18"/>
<text text-anchor="middle" x="623.157" y="-907.486" font-family="Times,serif" font-size="14.00">2610</text>
</a>
</g>
</g>
<!-- 2610&#45;&gt;35769 -->
<g id="edge58" class="edge"><title>2610&#45;&gt;35769</title>
<path fill="none" stroke="black" d="M625.785,-893.206C630.754,-859.217 641.472,-785.902 646.446,-751.876"/>
</g>
<!-- 2764 -->
<g id="node3" class="node"><title>2764</title>
<g id="a_node3"><a xlink:title="6th_week">
<ellipse fill="#c81d25" stroke="black" cx="502.342" cy="-534.46" rx="28.6953" ry="18"/>
<text text-anchor="middle" x="502.342" y="-530.76" font-family="Times,serif" font-size="14.00">2764</text>
</a>
</g>
</g>
<!-- 2764&#45;&gt;35769 -->
<g id="edge57" class="edge"><title>2764&#45;&gt;35769</title>
<path fill="none" stroke="black" d="M514.6,-551.117C542.222,-588.649 609.069,-679.48 636.755,-717.099"/>
</g>
<!-- 3626 -->
<g id="node4" class="node"><title>3626</title>
<g id="a_node4"><a xlink:title="6th_week">
<ellipse fill="#c81d25" stroke="black" cx="973.543" cy="-776.994" rx="28.6953" ry="18"/>
<text text-anchor="middle" x="973.543" y="-773.294" font-family="Times,serif" font-size="14.00">3626</text>
</a>
</g>
</g>
<!-- 28221 -->
<g id="node28" class="node"><title>28221</title>
<g id="a_node28"><a xlink:title="6th_week">
<ellipse fill="#c81d25" stroke="black" cx="1243.45" cy="-827.069" rx="32.4942" ry="18"/>
<text text-anchor="middle" x="1243.45" y="-823.369" font-family="Times,serif" font-size="14.00">28221</text>
</a>
</g>
</g>
<!-- 3626&#45;&gt;28221 -->
<g id="edge28" class="edge"><title>3626&#45;&gt;28221</title>
<path fill="none" stroke="black" d="M1001.16,-782.118C1051.81,-791.515 1159.23,-811.445 1212.36,-821.301"/>
</g>
<!-- 3626&#45;&gt;35769 -->
<g id="edge63" class="edge"><title>3626&#45;&gt;35769</title>
<path fill="none" stroke="black" d="M945.316,-773.241C885.033,-765.224 744.06,-746.479 680.796,-738.066"/>
</g>
<!-- 3713 -->
<g id="node5" class="node"><title>3713</title>
<g id="a_node5"><a xlink:title="6th_week">
<ellipse fill="#c81d25" stroke="black" cx="1088.25" cy="-1128.98" rx="28.6953" ry="18"/>
<text text-anchor="middle" x="1088.25" y="-1125.28" font-family="Times,serif" font-size="14.00">3713</text>
</a>
</g>
</g>
<!-- 8990 -->
<g id="node10" class="node"><title>8990</title>
<g id="a_node10"><a xlink:title="6th_week">
<ellipse fill="#c81d25" stroke="black" cx="888.068" cy="-941.604" rx="28.6953" ry="18"/>
<text text-anchor="middle" x="888.068" y="-937.904" font-family="Times,serif" font-size="14.00">8990</text>
</a>
</g>
</g>
<!-- 3713&#45;&gt;8990 -->
<g id="edge26" class="edge"><title>3713&#45;&gt;8990</title>
<path fill="none" stroke="black" d="M1072.2,-1113.97C1034.72,-1078.88 941.745,-991.848 904.188,-956.693"/>
</g>
<!-- 3735 -->
<g id="node6" class="node"><title>3735</title>
<g id="a_node6"><a xlink:title="6th_week">
<ellipse fill="#c81d25" stroke="black" cx="489.419" cy="-1306.98" rx="28.6953" ry="18"/>
<text text-anchor="middle" x="489.419" y="-1303.28" font-family="Times,serif" font-size="14.00">3735</text>
</a>
</g>
</g>
<!-- 61073 -->
<g id="node64" class="node"><title>61073</title>
<g id="a_node64"><a xlink:title="6th_week">
<ellipse fill="#c81d25" stroke="black" cx="563.735" cy="-1038.91" rx="32.4942" ry="18"/>
<text text-anchor="middle" x="563.735" y="-1035.21" font-family="Times,serif" font-size="14.00">61073</text>
</a>
</g>
</g>
<!-- 3735&#45;&gt;61073 -->
<g id="edge1" class="edge"><title>3735&#45;&gt;61073</title>
<path fill="none" stroke="black" d="M494.411,-1288.97C507.949,-1240.14 545.252,-1105.58 558.765,-1056.83"/>
</g>
<!-- 4718 -->
<g id="node7" class="node"><title>4718</title>
<g id="a_node7"><a xlink:title="6th_week">
<ellipse fill="#c81d25" stroke="black" cx="487.69" cy="-645.262" rx="28.6953" ry="18"/>
<text text-anchor="middle" x="487.69" y="-641.562" font-family="Times,serif" font-size="14.00">4718</text>
</a>
</g>
</g>
<!-- 4718&#45;&gt;35769 -->
<g id="edge47" class="edge"><title>4718&#45;&gt;35769</title>
<path fill="none" stroke="black" d="M509.456,-657.209C539.828,-673.88 594.691,-703.994 625.836,-721.089"/>
</g>
<!-- 4727 -->
<g id="node8" class="node"><title>4727</title>
<g id="a_node8"><a xlink:title="6th_week">
<ellipse fill="#c81d25" stroke="black" cx="501.333" cy="-420.802" rx="28.6953" ry="18"/>
<text text-anchor="middle" x="501.333" y="-417.102" font-family="Times,serif" font-size="14.00">4727</text>
</a>
</g>
</g>
<!-- 4727&#45;&gt;35769 -->
<g id="edge38" class="edge"><title>4727&#45;&gt;35769</title>
<path fill="none" stroke="black" d="M509.487,-438.079C535.259,-492.682 614.783,-661.177 640.771,-716.24"/>
</g>
<!-- 40705 -->
<g id="node70" class="node"><title>40705</title>
<g id="a_node70"><a xlink:title="6th_week">
<ellipse fill="#c81d25" stroke="black" cx="389.599" cy="-208.583" rx="32.4942" ry="18"/>
<text text-anchor="middle" x="389.599" y="-204.883" font-family="Times,serif" font-size="14.00">40705</text>
</a>
</g>
</g>
<!-- 4727&#45;&gt;40705 -->
<g id="edge23" class="edge"><title>4727&#45;&gt;40705</title>
<path fill="none" stroke="black" d="M492.19,-403.435C471.185,-363.542 419.687,-265.73 398.712,-225.892"/>
</g>
<!-- 6823 -->
<g id="node9" class="node"><title>6823</title>
<g id="a_node9"><a xlink:title="6th_week">
<ellipse fill="#c81d25" stroke="black" cx="575.812" cy="-559.94" rx="28.6953" ry="18"/>
<text text-anchor="middle" x="575.812" y="-556.24" font-family="Times,serif" font-size="14.00">6823</text>
</a>
</g>
</g>
<!-- 6823&#45;&gt;35769 -->
<g id="edge51" class="edge"><title>6823&#45;&gt;35769</title>
<path fill="none" stroke="black" d="M583.24,-577.572C597.284,-610.904 627.575,-682.802 641.633,-716.17"/>
</g>
<!-- 8990&#45;&gt;35769 -->
<g id="edge14" class="edge"><title>8990&#45;&gt;35769</title>
<path fill="none" stroke="black" d="M871.263,-926.995C827.702,-889.126 711.433,-788.052 666.836,-749.283"/>
</g>
<!-- 9975 -->
<g id="node11" class="node"><title>9975</title>
<g id="a_node11"><a xlink:title="6th_week">
<ellipse fill="#c81d25" stroke="black" cx="797.135" cy="-65.6001" rx="28.6953" ry="18"/>
<text text-anchor="middle" x="797.135" y="-61.9001" font-family="Times,serif" font-size="14.00">9975</text>
</a>
</g>
</g>
<!-- 20895 -->
<g id="node22" class="node"><title>20895</title>
<g id="a_node22"><a xlink:title="6th_week">
<ellipse fill="#c81d25" stroke="black" cx="685.862" cy="-269.46" rx="32.4942" ry="18"/>
<text text-anchor="middle" x="685.862" y="-265.76" font-family="Times,serif" font-size="14.00">20895</text>
</a>
</g>
</g>
<!-- 9975&#45;&gt;20895 -->
<g id="edge50" class="edge"><title>9975&#45;&gt;20895</title>
<path fill="none" stroke="black" d="M787.839,-82.6304C766.946,-120.908 716.456,-213.408 695.367,-252.046"/>
</g>
<!-- 11124 -->
<g id="node12" class="node"><title>11124</title>
<g id="a_node12"><a xlink:title="6th_week">
<ellipse fill="#c81d25" stroke="black" cx="484.052" cy="-785.701" rx="32.4942" ry="18"/>
<text text-anchor="middle" x="484.052" y="-782.001" font-family="Times,serif" font-size="14.00">11124</text>
</a>
</g>
</g>
<!-- 11124&#45;&gt;35769 -->
<g id="edge16" class="edge"><title>11124&#45;&gt;35769</title>
<path fill="none" stroke="black" d="M512.421,-776.788C542.741,-767.261 590.523,-752.248 620.807,-742.733"/>
</g>
<!-- 12218 -->
<g id="node13" class="node"><title>12218</title>
<g id="a_node13"><a xlink:title="6th_week">
<ellipse fill="#c81d25" stroke="black" cx="675.982" cy="-61.806" rx="32.4942" ry="18"/>
<text text-anchor="middle" x="675.982" y="-58.106" font-family="Times,serif" font-size="14.00">12218</text>
</a>
</g>
</g>
<!-- 12218&#45;&gt;20895 -->
<g id="edge21" class="edge"><title>12218&#45;&gt;20895</title>
<path fill="none" stroke="black" d="M676.842,-79.8706C678.71,-119.143 683.124,-211.921 684.997,-251.289"/>
</g>
<!-- 13614 -->
<g id="node14" class="node"><title>13614</title>
<g id="a_node14"><a xlink:title="6th_week">
<ellipse fill="#c81d25" stroke="black" cx="1189.05" cy="-492.281" rx="32.4942" ry="18"/>
<text text-anchor="middle" x="1189.05" y="-488.581" font-family="Times,serif" font-size="14.00">13614</text>
</a>
</g>
</g>
<!-- 37178 -->
<g id="node39" class="node"><title>37178</title>
<g id="a_node39"><a xlink:title="6th_week">
<ellipse fill="#c81d25" stroke="black" cx="961.452" cy="-586.512" rx="32.4942" ry="18"/>
<text text-anchor="middle" x="961.452" y="-582.812" font-family="Times,serif" font-size="14.00">37178</text>
</a>
</g>
</g>
<!-- 13614&#45;&gt;37178 -->
<g id="edge70" class="edge"><title>13614&#45;&gt;37178</title>
<path fill="none" stroke="black" d="M1162.94,-503.091C1119.15,-521.219 1031.42,-557.543 987.606,-575.684"/>
</g>
<!-- 13925 -->
<g id="node15" class="node"><title>13925</title>
<g id="a_node15"><a xlink:title="6th_week">
<ellipse fill="#c81d25" stroke="black" cx="406" cy="-482.998" rx="32.4942" ry="18"/>
<text text-anchor="middle" x="406" y="-479.298" font-family="Times,serif" font-size="14.00">13925</text>
</a>
</g>
</g>
<!-- 13925&#45;&gt;35769 -->
<g id="edge49" class="edge"><title>13925&#45;&gt;35769</title>
<path fill="none" stroke="black" d="M421.576,-499.071C465.481,-544.38 589.889,-672.764 633.636,-717.909"/>
</g>
<!-- 8187 -->
<g id="node71" class="node"><title>8187</title>
<g id="a_node71"><a xlink:title="6th_week">
<ellipse fill="#c81d25" stroke="black" cx="238.542" cy="-312.378" rx="28.6953" ry="18"/>
<text text-anchor="middle" x="238.542" y="-308.678" font-family="Times,serif" font-size="14.00">8187</text>
</a>
</g>
</g>
<!-- 13925&#45;&gt;8187 -->
<g id="edge54" class="edge"><title>13925&#45;&gt;8187</title>
<path fill="none" stroke="black" d="M390.246,-466.946C358.167,-434.262 285.624,-360.349 253.89,-328.016"/>
</g>
<!-- 15395 -->
<g id="node16" class="node"><title>15395</title>
<g id="a_node16"><a xlink:title="6th_week">
<ellipse fill="#c81d25" stroke="black" cx="745.882" cy="-522.711" rx="32.4942" ry="18"/>
<text text-anchor="middle" x="745.882" y="-519.011" font-family="Times,serif" font-size="14.00">15395</text>
</a>
</g>
</g>
<!-- 15395&#45;&gt;35769 -->
<g id="edge68" class="edge"><title>15395&#45;&gt;35769</title>
<path fill="none" stroke="black" d="M737.795,-540.349C719.574,-580.093 675.477,-676.276 657.213,-716.112"/>
</g>
<!-- 16661 -->
<g id="node17" class="node"><title>16661</title>
<g id="a_node17"><a xlink:title="6th_week">
<ellipse fill="#c81d25" stroke="black" cx="944.201" cy="-869.062" rx="32.4942" ry="18"/>
<text text-anchor="middle" x="944.201" y="-865.362" font-family="Times,serif" font-size="14.00">16661</text>
</a>
</g>
</g>
<!-- 16661&#45;&gt;35769 -->
<g id="edge31" class="edge"><title>16661&#45;&gt;35769</title>
<path fill="none" stroke="black" d="M919.039,-857.534C863.283,-831.988 729.877,-770.866 674.18,-745.348"/>
</g>
<!-- 46496 -->
<g id="node50" class="node"><title>46496</title>
<g id="a_node50"><a xlink:title="6th_week">
<ellipse fill="#c81d25" stroke="black" cx="1196.86" cy="-995.528" rx="32.4942" ry="18"/>
<text text-anchor="middle" x="1196.86" y="-991.828" font-family="Times,serif" font-size="14.00">46496</text>
</a>
</g>
</g>
<!-- 16661&#45;&gt;46496 -->
<g id="edge17" class="edge"><title>16661&#45;&gt;46496</title>
<path fill="none" stroke="black" d="M968.427,-881.188C1016.72,-905.361 1124.47,-959.296 1172.71,-983.439"/>
</g>
<!-- 17496 -->
<g id="node18" class="node"><title>17496</title>
<g id="a_node18"><a xlink:title="6th_week">
<ellipse fill="#c81d25" stroke="black" cx="419.4" cy="-717.609" rx="32.4942" ry="18"/>
<text text-anchor="middle" x="419.4" y="-713.909" font-family="Times,serif" font-size="14.00">17496</text>
</a>
</g>
</g>
<!-- 17496&#45;&gt;35769 -->
<g id="edge18" class="edge"><title>17496&#45;&gt;35769</title>
<path fill="none" stroke="black" d="M451.82,-719.901C495.595,-722.997 573.137,-728.479 616.826,-731.568"/>
</g>
<!-- 18256 -->
<g id="node19" class="node"><title>18256</title>
<g id="a_node19"><a xlink:title="6th_week">
<ellipse fill="#c81d25" stroke="black" cx="106.444" cy="-1103.86" rx="32.4942" ry="18"/>
<text text-anchor="middle" x="106.444" y="-1100.16" font-family="Times,serif" font-size="14.00">18256</text>
</a>
</g>
</g>
<!-- 37591 -->
<g id="node40" class="node"><title>37591</title>
<g id="a_node40"><a xlink:title="6th_week">
<ellipse fill="#c81d25" stroke="black" cx="299.988" cy="-908.349" rx="32.4942" ry="18"/>
<text text-anchor="middle" x="299.988" y="-904.649" font-family="Times,serif" font-size="14.00">37591</text>
</a>
</g>
</g>
<!-- 18256&#45;&gt;37591 -->
<g id="edge19" class="edge"><title>18256&#45;&gt;37591</title>
<path fill="none" stroke="black" d="M122.283,-1087.86C158.666,-1051.11 247.87,-960.998 284.202,-924.296"/>
</g>
<!-- 18996 -->
<g id="node20" class="node"><title>18996</title>
<g id="a_node20"><a xlink:title="6th_week">
<ellipse fill="#c81d25" stroke="black" cx="712.807" cy="-900.979" rx="32.4942" ry="18"/>
<text text-anchor="middle" x="712.807" y="-897.279" font-family="Times,serif" font-size="14.00">18996</text>
</a>
</g>
</g>
<!-- 18996&#45;&gt;35769 -->
<g id="edge36" class="edge"><title>18996&#45;&gt;35769</title>
<path fill="none" stroke="black" d="M705.987,-883.093C693.722,-850.925 668.082,-783.68 655.852,-751.606"/>
</g>
<!-- 19307 -->
<g id="node21" class="node"><title>19307</title>
<g id="a_node21"><a xlink:title="6th_week">
<ellipse fill="#c81d25" stroke="black" cx="785.086" cy="-596.398" rx="32.4942" ry="18"/>
<text text-anchor="middle" x="785.086" y="-592.698" font-family="Times,serif" font-size="14.00">19307</text>
</a>
</g>
</g>
<!-- 19307&#45;&gt;35769 -->
<g id="edge15" class="edge"><title>19307&#45;&gt;35769</title>
<path fill="none" stroke="black" d="M769.219,-612.434C743.012,-638.92 690.988,-691.497 664.848,-717.915"/>
</g>
<!-- 25809 -->
<g id="node26" class="node"><title>25809</title>
<g id="a_node26"><a xlink:title="6th_week">
<ellipse fill="#c81d25" stroke="black" cx="749.194" cy="-17.6392" rx="32.4942" ry="18"/>
<text text-anchor="middle" x="749.194" y="-13.9392" font-family="Times,serif" font-size="14.00">25809</text>
</a>
</g>
</g>
<!-- 20895&#45;&gt;25809 -->
<g id="edge3" class="edge"><title>20895&#45;&gt;25809</title>
<path fill="none" stroke="black" d="M690.416,-251.349C702.102,-204.887 733.04,-81.8674 744.68,-35.5854"/>
</g>
<!-- 29700 -->
<g id="node30" class="node"><title>29700</title>
<g id="a_node30"><a xlink:title="6th_week">
<ellipse fill="#c81d25" stroke="black" cx="581.786" cy="-25.5601" rx="32.4942" ry="18"/>
<text text-anchor="middle" x="581.786" y="-21.8601" font-family="Times,serif" font-size="14.00">29700</text>
</a>
</g>
</g>
<!-- 20895&#45;&gt;29700 -->
<g id="edge11" class="edge"><title>20895&#45;&gt;29700</title>
<path fill="none" stroke="black" d="M678.377,-251.919C659.221,-207.027 608.577,-88.3459 589.343,-43.2695"/>
</g>
<!-- 20895&#45;&gt;35769 -->
<g id="edge37" class="edge"><title>20895&#45;&gt;35769</title>
<path fill="none" stroke="black" d="M684.42,-287.664C678.536,-361.952 656.379,-641.715 650.514,-715.77"/>
</g>
<!-- 21233 -->
<g id="node23" class="node"><title>21233</title>
<g id="a_node23"><a xlink:title="6th_week">
<ellipse fill="#c81d25" stroke="black" cx="694.4" cy="-1357.94" rx="32.4942" ry="18"/>
<text text-anchor="middle" x="694.4" y="-1354.24" font-family="Times,serif" font-size="14.00">21233</text>
</a>
</g>
</g>
<!-- 47558 -->
<g id="node53" class="node"><title>47558</title>
<g id="a_node53"><a xlink:title="6th_week">
<ellipse fill="#c81d25" stroke="black" cx="701.485" cy="-1081.02" rx="32.4942" ry="18"/>
<text text-anchor="middle" x="701.485" y="-1077.32" font-family="Times,serif" font-size="14.00">47558</text>
</a>
</g>
</g>
<!-- 21233&#45;&gt;47558 -->
<g id="edge65" class="edge"><title>21233&#45;&gt;47558</title>
<path fill="none" stroke="black" d="M694.864,-1339.77C696.148,-1289.59 699.732,-1149.51 701.018,-1099.26"/>
</g>
<!-- 23084 -->
<g id="node24" class="node"><title>23084</title>
<g id="a_node24"><a xlink:title="6th_week">
<ellipse fill="#c81d25" stroke="black" cx="798.407" cy="-763.898" rx="32.4942" ry="18"/>
<text text-anchor="middle" x="798.407" y="-760.198" font-family="Times,serif" font-size="14.00">23084</text>
</a>
</g>
</g>
<!-- 23084&#45;&gt;35769 -->
<g id="edge69" class="edge"><title>23084&#45;&gt;35769</title>
<path fill="none" stroke="black" d="M767.829,-757.745C742.145,-752.576 705.619,-745.226 679.876,-740.046"/>
</g>
<!-- 25682 -->
<g id="node25" class="node"><title>25682</title>
<g id="a_node25"><a xlink:title="6th_week">
<ellipse fill="#c81d25" stroke="black" cx="306.165" cy="-571.65" rx="32.4942" ry="18"/>
<text text-anchor="middle" x="306.165" y="-567.95" font-family="Times,serif" font-size="14.00">25682</text>
</a>
</g>
</g>
<!-- 27028 -->
<g id="node27" class="node"><title>27028</title>
<g id="a_node27"><a xlink:title="6th_week">
<ellipse fill="#c81d25" stroke="black" cx="35.5196" cy="-505.113" rx="32.4942" ry="18"/>
<text text-anchor="middle" x="35.5196" y="-501.413" font-family="Times,serif" font-size="14.00">27028</text>
</a>
</g>
</g>
<!-- 25682&#45;&gt;27028 -->
<g id="edge40" class="edge"><title>25682&#45;&gt;27028</title>
<path fill="none" stroke="black" d="M276.427,-564.339C224.384,-551.544 117.384,-525.239 65.3067,-512.436"/>
</g>
<!-- 25682&#45;&gt;35769 -->
<g id="edge20" class="edge"><title>25682&#45;&gt;35769</title>
<path fill="none" stroke="black" d="M331.103,-583.445C394.447,-613.407 560.994,-692.184 624.237,-722.097"/>
</g>
<!-- 46581 -->
<g id="node51" class="node"><title>46581</title>
<g id="a_node51"><a xlink:title="6th_week">
<ellipse fill="#c81d25" stroke="black" cx="73.0249" cy="-425.338" rx="32.4942" ry="18"/>
<text text-anchor="middle" x="73.0249" y="-421.638" font-family="Times,serif" font-size="14.00">46581</text>
</a>
</g>
</g>
<!-- 25682&#45;&gt;46581 -->
<g id="edge34" class="edge"><title>25682&#45;&gt;46581</title>
<path fill="none" stroke="black" d="M284.65,-558.147C240.348,-530.345 139.372,-466.976 94.8272,-439.021"/>
</g>
<!-- 28577 -->
<g id="node29" class="node"><title>28577</title>
<g id="a_node29"><a xlink:title="6th_week">
<ellipse fill="#c81d25" stroke="black" cx="738.512" cy="-463.314" rx="32.4942" ry="18"/>
<text text-anchor="middle" x="738.512" y="-459.614" font-family="Times,serif" font-size="14.00">28577</text>
</a>
</g>
</g>
<!-- 28577&#45;&gt;35769 -->
<g id="edge46" class="edge"><title>28577&#45;&gt;35769</title>
<path fill="none" stroke="black" d="M732.644,-481.065C716.44,-530.084 671.201,-666.936 654.971,-716.033"/>
</g>
<!-- 30330 -->
<g id="node31" class="node"><title>30330</title>
<g id="a_node31"><a xlink:title="6th_week">
<ellipse fill="#c81d25" stroke="black" cx="657.6" cy="-514.557" rx="32.4942" ry="18"/>
<text text-anchor="middle" x="657.6" y="-510.857" font-family="Times,serif" font-size="14.00">30330</text>
</a>
</g>
</g>
<!-- 30330&#45;&gt;35769 -->
<g id="edge48" class="edge"><title>30330&#45;&gt;35769</title>
<path fill="none" stroke="black" d="M656.888,-532.877C655.281,-574.258 651.385,-674.551 649.785,-715.736"/>
</g>
<!-- 31200 -->
<g id="node32" class="node"><title>31200</title>
<g id="a_node32"><a xlink:title="6th_week">
<ellipse fill="#c81d25" stroke="black" cx="466.301" cy="-895.183" rx="32.4942" ry="18"/>
<text text-anchor="middle" x="466.301" y="-891.483" font-family="Times,serif" font-size="14.00">31200</text>
</a>
</g>
</g>
<!-- 31200&#45;&gt;35769 -->
<g id="edge43" class="edge"><title>31200&#45;&gt;35769</title>
<path fill="none" stroke="black" d="M483.827,-879.714C518.764,-848.876 596.716,-780.07 631.609,-749.271"/>
</g>
<!-- 31777 -->
<g id="node33" class="node"><title>31777</title>
<g id="a_node33"><a xlink:title="6th_week">
<ellipse fill="#c81d25" stroke="black" cx="905.047" cy="-451.282" rx="32.4942" ry="18"/>
<text text-anchor="middle" x="905.047" y="-447.582" font-family="Times,serif" font-size="14.00">31777</text>
</a>
</g>
</g>
<!-- 31777&#45;&gt;35769 -->
<g id="edge2" class="edge"><title>31777&#45;&gt;35769</title>
<path fill="none" stroke="black" d="M890.179,-467.695C844.833,-517.754 708.645,-668.095 663.672,-717.742"/>
</g>
<!-- 42028 -->
<g id="node45" class="node"><title>42028</title>
<g id="a_node45"><a xlink:title="6th_week">
<ellipse fill="#c81d25" stroke="black" cx="1067.03" cy="-227.316" rx="32.4942" ry="18"/>
<text text-anchor="middle" x="1067.03" y="-223.616" font-family="Times,serif" font-size="14.00">42028</text>
</a>
</g>
</g>
<!-- 31777&#45;&gt;42028 -->
<g id="edge41" class="edge"><title>31777&#45;&gt;42028</title>
<path fill="none" stroke="black" d="M917.223,-434.448C947.316,-392.84 1024.93,-285.531 1054.94,-244.04"/>
</g>
<!-- 11503 -->
<g id="node69" class="node"><title>11503</title>
<g id="a_node69"><a xlink:title="6th_week">
<ellipse fill="#c81d25" stroke="black" cx="1131.04" cy="-288.644" rx="32.4942" ry="18"/>
<text text-anchor="middle" x="1131.04" y="-284.944" font-family="Times,serif" font-size="14.00">11503</text>
</a>
</g>
</g>
<!-- 31777&#45;&gt;11503 -->
<g id="edge45" class="edge"><title>31777&#45;&gt;11503</title>
<path fill="none" stroke="black" d="M925.102,-436.849C967.988,-405.985 1068.18,-333.879 1111.03,-303.045"/>
</g>
<!-- 32288 -->
<g id="node34" class="node"><title>32288</title>
<g id="a_node34"><a xlink:title="6th_week">
<ellipse fill="#c81d25" stroke="black" cx="439.253" cy="-581.466" rx="32.4942" ry="18"/>
<text text-anchor="middle" x="439.253" y="-577.766" font-family="Times,serif" font-size="14.00">32288</text>
</a>
</g>
</g>
<!-- 32288&#45;&gt;35769 -->
<g id="edge22" class="edge"><title>32288&#45;&gt;35769</title>
<path fill="none" stroke="black" d="M458.993,-595.802C498.985,-624.845 589.166,-690.336 629.241,-719.44"/>
</g>
<!-- 33057 -->
<g id="node35" class="node"><title>33057</title>
<g id="a_node35"><a xlink:title="6th_week">
<ellipse fill="#c81d25" stroke="black" cx="432.808" cy="-838.489" rx="32.4942" ry="18"/>
<text text-anchor="middle" x="432.808" y="-834.789" font-family="Times,serif" font-size="14.00">33057</text>
</a>
</g>
</g>
<!-- 33057&#45;&gt;35769 -->
<g id="edge29" class="edge"><title>33057&#45;&gt;35769</title>
<path fill="none" stroke="black" d="M457.618,-826.486C499.336,-806.301 583.038,-765.803 624.562,-745.712"/>
</g>
<!-- 34109 -->
<g id="node36" class="node"><title>34109</title>
<g id="a_node36"><a xlink:title="6th_week">
<ellipse fill="#c81d25" stroke="black" cx="880.301" cy="-799.73" rx="32.4942" ry="18"/>
<text text-anchor="middle" x="880.301" y="-796.03" font-family="Times,serif" font-size="14.00">34109</text>
</a>
</g>
</g>
<!-- 34109&#45;&gt;35769 -->
<g id="edge30" class="edge"><title>34109&#45;&gt;35769</title>
<path fill="none" stroke="black" d="M851.017,-791.386C806.541,-778.713 722.462,-754.757 678.128,-742.125"/>
</g>
<!-- 35769&#45;&gt;37178 -->
<g id="edge10" class="edge"><title>35769&#45;&gt;37178</title>
<path fill="none" stroke="black" d="M673.854,-722.164C732.296,-694.599 878.233,-625.764 936.677,-598.198"/>
</g>
<!-- 35769&#45;&gt;37591 -->
<g id="edge4" class="edge"><title>35769&#45;&gt;37591</title>
<path fill="none" stroke="black" d="M624.811,-745.981C560.952,-777.902 388.763,-863.973 324.562,-896.065"/>
</g>
<!-- 37645 -->
<g id="node41" class="node"><title>37645</title>
<g id="a_node41"><a xlink:title="6th_week">
<ellipse fill="#c81d25" stroke="black" cx="464.09" cy="-994.636" rx="32.4942" ry="18"/>
<text text-anchor="middle" x="464.09" y="-990.936" font-family="Times,serif" font-size="14.00">37645</text>
</a>
</g>
</g>
<!-- 35769&#45;&gt;37645 -->
<g id="edge9" class="edge"><title>35769&#45;&gt;37645</title>
<path fill="none" stroke="black" d="M636.944,-750.96C603.344,-798.326 509.396,-930.767 476.032,-977.801"/>
</g>
<!-- 38212 -->
<g id="node42" class="node"><title>38212</title>
<g id="a_node42"><a xlink:title="6th_week">
<ellipse fill="#c81d25" stroke="black" cx="822.133" cy="-517.06" rx="32.4942" ry="18"/>
<text text-anchor="middle" x="822.133" y="-513.36" font-family="Times,serif" font-size="14.00">38212</text>
</a>
</g>
</g>
<!-- 35769&#45;&gt;38212 -->
<g id="edge56" class="edge"><title>35769&#45;&gt;38212</title>
<path fill="none" stroke="black" d="M662.373,-717.198C694.585,-676.844 776.537,-574.179 808.796,-533.768"/>
</g>
<!-- 39936 -->
<g id="node44" class="node"><title>39936</title>
<g id="a_node44"><a xlink:title="6th_week">
<ellipse fill="#c81d25" stroke="black" cx="863.186" cy="-585.364" rx="32.4942" ry="18"/>
<text text-anchor="middle" x="863.186" y="-581.664" font-family="Times,serif" font-size="14.00">39936</text>
</a>
</g>
</g>
<!-- 35769&#45;&gt;39936 -->
<g id="edge62" class="edge"><title>35769&#45;&gt;39936</title>
<path fill="none" stroke="black" d="M669.611,-719.612C710.535,-691.23 801.846,-627.905 842.719,-599.559"/>
</g>
<!-- 42076 -->
<g id="node46" class="node"><title>42076</title>
<g id="a_node46"><a xlink:title="6th_week">
<ellipse fill="#c81d25" stroke="black" cx="540.216" cy="-868.371" rx="32.4942" ry="18"/>
<text text-anchor="middle" x="540.216" y="-864.671" font-family="Times,serif" font-size="14.00">42076</text>
</a>
</g>
</g>
<!-- 35769&#45;&gt;42076 -->
<g id="edge52" class="edge"><title>35769&#45;&gt;42076</title>
<path fill="none" stroke="black" d="M635.733,-750.344C614.838,-776.162 574.636,-825.84 553.674,-851.741"/>
</g>
<!-- 43342 -->
<g id="node47" class="node"><title>43342</title>
<g id="a_node47"><a xlink:title="6th_week">
<ellipse fill="#c81d25" stroke="black" cx="317.566" cy="-723.603" rx="32.4942" ry="18"/>
<text text-anchor="middle" x="317.566" y="-719.903" font-family="Times,serif" font-size="14.00">43342</text>
</a>
</g>
</g>
<!-- 35769&#45;&gt;43342 -->
<g id="edge24" class="edge"><title>35769&#45;&gt;43342</title>
<path fill="none" stroke="black" d="M616.387,-732.838C552.843,-730.874 413.363,-726.564 350.015,-724.606"/>
</g>
<!-- 43610 -->
<g id="node48" class="node"><title>43610</title>
<g id="a_node48"><a xlink:title="6th_week">
<ellipse fill="#c81d25" stroke="black" cx="544.573" cy="-936.129" rx="32.4942" ry="18"/>
<text text-anchor="middle" x="544.573" y="-932.429" font-family="Times,serif" font-size="14.00">43610</text>
</a>
</g>
</g>
<!-- 35769&#45;&gt;43610 -->
<g id="edge7" class="edge"><title>35769&#45;&gt;43610</title>
<path fill="none" stroke="black" d="M639.99,-751.446C620.175,-789.798 573.297,-880.534 553.569,-918.717"/>
</g>
<!-- 43708 -->
<g id="node49" class="node"><title>43708</title>
<g id="a_node49"><a xlink:title="6th_week">
<ellipse fill="#c81d25" stroke="black" cx="712.907" cy="-962.775" rx="32.4942" ry="18"/>
<text text-anchor="middle" x="712.907" y="-959.075" font-family="Times,serif" font-size="14.00">43708</text>
</a>
</g>
</g>
<!-- 35769&#45;&gt;43708 -->
<g id="edge67" class="edge"><title>35769&#45;&gt;43708</title>
<path fill="none" stroke="black" d="M654.09,-751.812C666.021,-794.607 696.015,-902.185 707.922,-944.895"/>
</g>
<!-- 35769&#45;&gt;47558 -->
<g id="edge12" class="edge"><title>35769&#45;&gt;47558</title>
<path fill="none" stroke="black" d="M651.825,-752.026C660.881,-812.019 689.752,-1003.3 698.768,-1063.03"/>
</g>
<!-- 47938 -->
<g id="node54" class="node"><title>47938</title>
<g id="a_node54"><a xlink:title="6th_week">
<ellipse fill="#c81d25" stroke="black" cx="573.49" cy="-475.31" rx="32.4942" ry="18"/>
<text text-anchor="middle" x="573.49" y="-471.61" font-family="Times,serif" font-size="14.00">47938</text>
</a>
</g>
</g>
<!-- 35769&#45;&gt;47938 -->
<g id="edge33" class="edge"><title>35769&#45;&gt;47938</title>
<path fill="none" stroke="black" d="M643.886,-716.078C630.077,-668.848 592.573,-540.578 578.722,-493.205"/>
</g>
<!-- 51907 -->
<g id="node55" class="node"><title>51907</title>
<g id="a_node55"><a xlink:title="6th_week">
<ellipse fill="#c81d25" stroke="black" cx="862.792" cy="-656.707" rx="32.4942" ry="18"/>
<text text-anchor="middle" x="862.792" y="-653.007" font-family="Times,serif" font-size="14.00">51907</text>
</a>
</g>
</g>
<!-- 35769&#45;&gt;51907 -->
<g id="edge6" class="edge"><title>35769&#45;&gt;51907</title>
<path fill="none" stroke="black" d="M676.583,-723.922C717.618,-709.11 794.423,-681.386 835.397,-666.596"/>
</g>
<!-- 52521 -->
<g id="node56" class="node"><title>52521</title>
<g id="a_node56"><a xlink:title="6th_week">
<ellipse fill="#c81d25" stroke="black" cx="802.668" cy="-909.26" rx="32.4942" ry="18"/>
<text text-anchor="middle" x="802.668" y="-905.56" font-family="Times,serif" font-size="14.00">52521</text>
</a>
</g>
</g>
<!-- 35769&#45;&gt;52521 -->
<g id="edge66" class="edge"><title>35769&#45;&gt;52521</title>
<path fill="none" stroke="black" d="M663.531,-750.351C692.878,-783.868 759.149,-859.556 788.369,-892.929"/>
</g>
<!-- 53332 -->
<g id="node58" class="node"><title>53332</title>
<g id="a_node58"><a xlink:title="6th_week">
<ellipse fill="#c81d25" stroke="black" cx="406.897" cy="-778.034" rx="32.4942" ry="18"/>
<text text-anchor="middle" x="406.897" y="-774.334" font-family="Times,serif" font-size="14.00">53332</text>
</a>
</g>
</g>
<!-- 35769&#45;&gt;53332 -->
<g id="edge32" class="edge"><title>35769&#45;&gt;53332</title>
<path fill="none" stroke="black" d="M617.916,-739.535C571.413,-748.019 484.376,-763.898 437.943,-772.37"/>
</g>
<!-- 54266 -->
<g id="node59" class="node"><title>54266</title>
<g id="a_node59"><a xlink:title="6th_week">
<ellipse fill="#c81d25" stroke="black" cx="899.334" cy="-719.339" rx="32.4942" ry="18"/>
<text text-anchor="middle" x="899.334" y="-715.639" font-family="Times,serif" font-size="14.00">54266</text>
</a>
</g>
</g>
<!-- 35769&#45;&gt;54266 -->
<g id="edge8" class="edge"><title>35769&#45;&gt;54266</title>
<path fill="none" stroke="black" d="M681.541,-731.967C729.548,-729.183 818.958,-723.999 866.932,-721.218"/>
</g>
<!-- 55563 -->
<g id="node61" class="node"><title>55563</title>
<g id="a_node61"><a xlink:title="6th_week">
<ellipse fill="#c81d25" stroke="black" cx="811.767" cy="-1005.72" rx="32.4942" ry="18"/>
<text text-anchor="middle" x="811.767" y="-1002.02" font-family="Times,serif" font-size="14.00">55563</text>
</a>
</g>
</g>
<!-- 35769&#45;&gt;55563 -->
<g id="edge64" class="edge"><title>35769&#45;&gt;55563</title>
<path fill="none" stroke="black" d="M659.506,-751.269C688.89,-800.375 772.152,-939.519 801.429,-988.447"/>
</g>
<!-- 57861 -->
<g id="node63" class="node"><title>57861</title>
<g id="a_node63"><a xlink:title="6th_week">
<ellipse fill="#c81d25" stroke="black" cx="652.659" cy="-449.379" rx="32.4942" ry="18"/>
<text text-anchor="middle" x="652.659" y="-445.679" font-family="Times,serif" font-size="14.00">57861</text>
</a>
</g>
</g>
<!-- 35769&#45;&gt;57861 -->
<g id="edge25" class="edge"><title>35769&#45;&gt;57861</title>
<path fill="none" stroke="black" d="M649.311,-715.621C649.957,-664.24 651.788,-518.65 652.432,-467.455"/>
</g>
<!-- 35769&#45;&gt;61073 -->
<g id="edge5" class="edge"><title>35769&#45;&gt;61073</title>
<path fill="none" stroke="black" d="M643.998,-752.018C628.819,-806.276 583.937,-966.701 568.792,-1020.83"/>
</g>
<!-- 61827 -->
<g id="node65" class="node"><title>61827</title>
<g id="a_node65"><a xlink:title="6th_week">
<ellipse fill="#c81d25" stroke="black" cx="995.198" cy="-682.84" rx="32.4942" ry="18"/>
<text text-anchor="middle" x="995.198" y="-679.14" font-family="Times,serif" font-size="14.00">61827</text>
</a>
</g>
</g>
<!-- 35769&#45;&gt;61827 -->
<g id="edge39" class="edge"><title>35769&#45;&gt;61827</title>
<path fill="none" stroke="black" d="M680.715,-729.187C746.632,-719.472 898.018,-697.162 963.763,-687.472"/>
</g>
<!-- 62502 -->
<g id="node67" class="node"><title>62502</title>
<g id="a_node67"><a xlink:title="6th_week">
<ellipse fill="#c81d25" stroke="black" cx="406.531" cy="-648.78" rx="32.4942" ry="18"/>
<text text-anchor="middle" x="406.531" y="-645.08" font-family="Times,serif" font-size="14.00">62502</text>
</a>
</g>
</g>
<!-- 35769&#45;&gt;62502 -->
<g id="edge61" class="edge"><title>35769&#45;&gt;62502</title>
<path fill="none" stroke="black" d="M621.258,-724.09C574.471,-707.681 480.599,-674.758 434.03,-658.425"/>
</g>
<!-- 63225 -->
<g id="node68" class="node"><title>63225</title>
<g id="a_node68"><a xlink:title="6th_week">
<ellipse fill="#c81d25" stroke="black" cx="632.381" cy="-972.588" rx="32.4942" ry="18"/>
<text text-anchor="middle" x="632.381" y="-968.888" font-family="Times,serif" font-size="14.00">63225</text>
</a>
</g>
</g>
<!-- 35769&#45;&gt;63225 -->
<g id="edge60" class="edge"><title>35769&#45;&gt;63225</title>
<path fill="none" stroke="black" d="M647.799,-752.186C644.683,-796.734 636.742,-910.241 633.645,-954.515"/>
</g>
<!-- 36763 -->
<g id="node38" class="node"><title>36763</title>
<g id="a_node38"><a xlink:title="6th_week">
<ellipse fill="#c81d25" stroke="black" cx="781.005" cy="-1345.92" rx="32.4942" ry="18"/>
<text text-anchor="middle" x="781.005" y="-1342.22" font-family="Times,serif" font-size="14.00">36763</text>
</a>
</g>
</g>
<!-- 36763&#45;&gt;47558 -->
<g id="edge13" class="edge"><title>36763&#45;&gt;47558</title>
<path fill="none" stroke="black" d="M775.664,-1328.13C761.212,-1279.99 721.453,-1147.54 706.907,-1099.09"/>
</g>
<!-- 38251 -->
<g id="node43" class="node"><title>38251</title>
<g id="a_node43"><a xlink:title="6th_week">
<ellipse fill="#c81d25" stroke="black" cx="32.7571" cy="-966.884" rx="32.4942" ry="18"/>
<text text-anchor="middle" x="32.7571" y="-963.184" font-family="Times,serif" font-size="14.00">38251</text>
</a>
</g>
</g>
<!-- 37591&#45;&gt;38251 -->
<g id="edge53" class="edge"><title>37591&#45;&gt;38251</title>
<path fill="none" stroke="black" d="M269.594,-915.007C218.157,-926.273 114.541,-948.97 63.1233,-960.232"/>
</g>
<!-- 62262 -->
<g id="node66" class="node"><title>62262</title>
<g id="a_node66"><a xlink:title="6th_week">
<ellipse fill="#c81d25" stroke="black" cx="58.1333" cy="-1041.54" rx="32.4942" ry="18"/>
<text text-anchor="middle" x="58.1333" y="-1037.84" font-family="Times,serif" font-size="14.00">62262</text>
</a>
</g>
</g>
<!-- 37591&#45;&gt;62262 -->
<g id="edge27" class="edge"><title>37591&#45;&gt;62262</title>
<path fill="none" stroke="black" d="M276.798,-921.12C230.57,-946.578 127.424,-1003.38 81.2532,-1028.81"/>
</g>
<!-- 56322 -->
<g id="node62" class="node"><title>56322</title>
<g id="a_node62"><a xlink:title="6th_week">
<ellipse fill="#c81d25" stroke="black" cx="312.566" cy="-1233.14" rx="32.4942" ry="18"/>
<text text-anchor="middle" x="312.566" y="-1229.44" font-family="Times,serif" font-size="14.00">56322</text>
</a>
</g>
</g>
<!-- 37645&#45;&gt;56322 -->
<g id="edge44" class="edge"><title>37645&#45;&gt;56322</title>
<path fill="none" stroke="black" d="M453.192,-1011.79C425.235,-1055.79 351.213,-1172.31 323.364,-1216.14"/>
</g>
<!-- 52524 -->
<g id="node57" class="node"><title>52524</title>
<g id="a_node57"><a xlink:title="6th_week">
<ellipse fill="#c81d25" stroke="black" cx="39.1114" cy="-725.637" rx="32.4942" ry="18"/>
<text text-anchor="middle" x="39.1114" y="-721.937" font-family="Times,serif" font-size="14.00">52524</text>
</a>
</g>
</g>
<!-- 43342&#45;&gt;52524 -->
<g id="edge42" class="edge"><title>43342&#45;&gt;52524</title>
<path fill="none" stroke="black" d="M284.805,-723.842C231.181,-724.234 125.29,-725.007 71.7477,-725.398"/>
</g>
<!-- 46622 -->
<g id="node52" class="node"><title>46622</title>
<g id="a_node52"><a xlink:title="6th_week">
<ellipse fill="#c81d25" stroke="black" cx="954.078" cy="-1248.45" rx="32.4942" ry="18"/>
<text text-anchor="middle" x="954.078" y="-1244.75" font-family="Times,serif" font-size="14.00">46622</text>
</a>
</g>
</g>
<!-- 46622&#45;&gt;55563 -->
<g id="edge55" class="edge"><title>46622&#45;&gt;55563</title>
<path fill="none" stroke="black" d="M943.843,-1230.99C917.586,-1186.21 848.064,-1067.63 821.909,-1023.02"/>
</g>
<!-- 54396 -->
<g id="node60" class="node"><title>54396</title>
<g id="a_node60"><a xlink:title="6th_week">
<ellipse fill="#c81d25" stroke="black" cx="1236.15" cy="-658.89" rx="32.4942" ry="18"/>
<text text-anchor="middle" x="1236.15" y="-655.19" font-family="Times,serif" font-size="14.00">54396</text>
</a>
</g>
</g>
<!-- 54396&#45;&gt;61827 -->
<g id="edge59" class="edge"><title>54396&#45;&gt;61827</title>
<path fill="none" stroke="black" d="M1204.15,-662.07C1158.07,-666.651 1073.48,-675.058 1027.33,-679.646"/>
</g>
</g>
</svg>
