<?xml version="1.0" encoding="UTF-8" standalone="no"?>
<!DOCTYPE svg PUBLIC "-//W3C//DTD SVG 1.1//EN"
 "http://www.w3.org/Graphics/SVG/1.1/DTD/svg11.dtd">
<!-- Generated by graphviz version 2.38.0 (20140413.2041)
 -->
<!-- Title: %3 Pages: 1 -->
<svg width="1715pt" height="1299pt"
 viewBox="0.00 0.00 1715.00 1299.00" xmlns="http://www.w3.org/2000/svg" xmlns:xlink="http://www.w3.org/1999/xlink">
<g id="graph0" class="graph" transform="scale(1 1) rotate(0) translate(4 1295)">
<title>%3</title>
<polygon fill="white" stroke="none" points="-4,4 -4,-1295 1711,-1295 1711,4 -4,4"/>
<!-- 1435 -->
<g id="node1" class="node"><title>1435</title>
<g id="a_node1"><a xlink:title="3rd_week">
<ellipse fill="#ee9898" stroke="black" cx="28.6571" cy="-766.073" rx="28.6953" ry="18"/>
<text text-anchor="middle" x="28.6571" y="-762.373" font-family="Times,serif" font-size="14.00">1435</text>
</a>
</g>
</g>
<!-- 54968 -->
<g id="node48" class="node"><title>54968</title>
<g id="a_node48"><a xlink:title="3rd_week">
<ellipse fill="#ee9898" stroke="black" cx="241.186" cy="-787.953" rx="32.4942" ry="18"/>
<text text-anchor="middle" x="241.186" y="-784.253" font-family="Times,serif" font-size="14.00">54968</text>
</a>
</g>
</g>
<!-- 1435&#45;&gt;54968 -->
<g id="edge52" class="edge"><title>1435&#45;&gt;54968</title>
<path fill="none" stroke="black" d="M57.3196,-769.024C96.8624,-773.095 167.928,-780.411 209.168,-784.657"/>
</g>
<!-- 1897 -->
<g id="node2" class="node"><title>1897</title>
<g id="a_node2"><a xlink:title="3rd_week">
<ellipse fill="#ee9898" stroke="black" cx="1304.33" cy="-332.848" rx="28.6953" ry="18"/>
<text text-anchor="middle" x="1304.33" y="-329.148" font-family="Times,serif" font-size="14.00">1897</text>
</a>
</g>
</g>
<!-- 9655 -->
<g id="node5" class="node"><title>9655</title>
<g id="a_node5"><a xlink:title="3rd_week">
<ellipse fill="#ee9898" stroke="black" cx="1202.1" cy="-458.887" rx="28.6953" ry="18"/>
<text text-anchor="middle" x="1202.1" y="-455.187" font-family="Times,serif" font-size="14.00">9655</text>
</a>
</g>
</g>
<!-- 1897&#45;&gt;9655 -->
<g id="edge31" class="edge"><title>1897&#45;&gt;9655</title>
<path fill="none" stroke="black" d="M1291.18,-349.068C1271.55,-373.269 1234.81,-418.565 1215.21,-442.73"/>
</g>
<!-- 4956 -->
<g id="node3" class="node"><title>4956</title>
<g id="a_node3"><a xlink:title="3rd_week">
<ellipse fill="#ee9898" stroke="black" cx="1338.23" cy="-526.846" rx="28.6953" ry="18"/>
<text text-anchor="middle" x="1338.23" y="-523.146" font-family="Times,serif" font-size="14.00">4956</text>
</a>
</g>
</g>
<!-- 4956&#45;&gt;9655 -->
<g id="edge1" class="edge"><title>4956&#45;&gt;9655</title>
<path fill="none" stroke="black" d="M1315.75,-515.624C1290.53,-503.033 1249.85,-482.725 1224.61,-470.126"/>
</g>
<!-- 7768 -->
<g id="node4" class="node"><title>7768</title>
<g id="a_node4"><a xlink:title="3rd_week">
<ellipse fill="#ee9898" stroke="black" cx="1344.16" cy="-388.761" rx="28.6953" ry="18"/>
<text text-anchor="middle" x="1344.16" y="-385.061" font-family="Times,serif" font-size="14.00">7768</text>
</a>
</g>
</g>
<!-- 7768&#45;&gt;9655 -->
<g id="edge27" class="edge"><title>7768&#45;&gt;9655</title>
<path fill="none" stroke="black" d="M1321.65,-399.872C1295.21,-412.926 1251.58,-434.464 1224.98,-447.595"/>
</g>
<!-- 14902 -->
<g id="node8" class="node"><title>14902</title>
<g id="a_node8"><a xlink:title="3rd_week">
<ellipse fill="#ee9898" stroke="black" cx="1231.5" cy="-300.585" rx="32.4942" ry="18"/>
<text text-anchor="middle" x="1231.5" y="-296.885" font-family="Times,serif" font-size="14.00">14902</text>
</a>
</g>
</g>
<!-- 9655&#45;&gt;14902 -->
<g id="edge40" class="edge"><title>9655&#45;&gt;14902</title>
<path fill="none" stroke="black" d="M1205.47,-440.728C1211.15,-410.192 1222.53,-348.926 1228.17,-318.533"/>
</g>
<!-- 21812 -->
<g id="node13" class="node"><title>21812</title>
<g id="a_node13"><a xlink:title="3rd_week">
<ellipse fill="#ee9898" stroke="black" cx="1375.04" cy="-269.674" rx="32.4942" ry="18"/>
<text text-anchor="middle" x="1375.04" y="-265.974" font-family="Times,serif" font-size="14.00">21812</text>
</a>
</g>
</g>
<!-- 9655&#45;&gt;21812 -->
<g id="edge21" class="edge"><title>9655&#45;&gt;21812</title>
<path fill="none" stroke="black" d="M1216.55,-443.081C1249.02,-407.553 1327.49,-321.699 1360.27,-285.837"/>
</g>
<!-- 22445 -->
<g id="node14" class="node"><title>22445</title>
<g id="a_node14"><a xlink:title="3rd_week">
<ellipse fill="#ee9898" stroke="black" cx="1297.42" cy="-595.38" rx="32.4942" ry="18"/>
<text text-anchor="middle" x="1297.42" y="-591.68" font-family="Times,serif" font-size="14.00">22445</text>
</a>
</g>
</g>
<!-- 9655&#45;&gt;22445 -->
<g id="edge26" class="edge"><title>9655&#45;&gt;22445</title>
<path fill="none" stroke="black" d="M1213.79,-475.624C1232.08,-501.821 1267.28,-552.226 1285.64,-578.506"/>
</g>
<!-- 27847 -->
<g id="node17" class="node"><title>27847</title>
<g id="a_node17"><a xlink:title="3rd_week">
<ellipse fill="#ee9898" stroke="black" cx="1367.46" cy="-456.186" rx="32.4942" ry="18"/>
<text text-anchor="middle" x="1367.46" y="-452.486" font-family="Times,serif" font-size="14.00">27847</text>
</a>
</g>
</g>
<!-- 9655&#45;&gt;27847 -->
<g id="edge34" class="edge"><title>9655&#45;&gt;27847</title>
<path fill="none" stroke="black" d="M1230.9,-458.417C1259.87,-457.944 1304.45,-457.215 1334.73,-456.721"/>
</g>
<!-- 31398 -->
<g id="node21" class="node"><title>31398</title>
<g id="a_node21"><a xlink:title="3rd_week">
<ellipse fill="#ee9898" stroke="black" cx="1036.25" cy="-386.321" rx="32.4942" ry="18"/>
<text text-anchor="middle" x="1036.25" y="-382.621" font-family="Times,serif" font-size="14.00">31398</text>
</a>
</g>
</g>
<!-- 9655&#45;&gt;31398 -->
<g id="edge48" class="edge"><title>9655&#45;&gt;31398</title>
<path fill="none" stroke="black" d="M1178.34,-448.491C1147.44,-434.97 1093.67,-411.443 1061.88,-397.534"/>
</g>
<!-- 33799 -->
<g id="node22" class="node"><title>33799</title>
<g id="a_node22"><a xlink:title="3rd_week">
<ellipse fill="#ee9898" stroke="black" cx="1131.92" cy="-230.033" rx="32.4942" ry="18"/>
<text text-anchor="middle" x="1131.92" y="-226.333" font-family="Times,serif" font-size="14.00">33799</text>
</a>
</g>
</g>
<!-- 9655&#45;&gt;33799 -->
<g id="edge11" class="edge"><title>9655&#45;&gt;33799</title>
<path fill="none" stroke="black" d="M1196.59,-440.93C1183.47,-398.149 1150.49,-290.604 1137.4,-247.908"/>
</g>
<!-- 34396 -->
<g id="node23" class="node"><title>34396</title>
<g id="a_node23"><a xlink:title="3rd_week">
<ellipse fill="#ee9898" stroke="black" cx="1037.3" cy="-478.323" rx="32.4942" ry="18"/>
<text text-anchor="middle" x="1037.3" y="-474.623" font-family="Times,serif" font-size="14.00">34396</text>
</a>
</g>
</g>
<!-- 9655&#45;&gt;34396 -->
<g id="edge16" class="edge"><title>9655&#45;&gt;34396</title>
<path fill="none" stroke="black" d="M1173.77,-462.229C1144.69,-465.658 1099.52,-470.985 1069.2,-474.561"/>
</g>
<!-- 37551 -->
<g id="node25" class="node"><title>37551</title>
<g id="a_node25"><a xlink:title="3rd_week">
<ellipse fill="#ee9898" stroke="black" cx="1416.69" cy="-553.324" rx="32.4942" ry="18"/>
<text text-anchor="middle" x="1416.69" y="-549.624" font-family="Times,serif" font-size="14.00">37551</text>
</a>
</g>
</g>
<!-- 9655&#45;&gt;37551 -->
<g id="edge43" class="edge"><title>9655&#45;&gt;37551</title>
<path fill="none" stroke="black" d="M1225.89,-469.355C1266.59,-487.267 1349.25,-523.646 1391.13,-542.078"/>
</g>
<!-- 38262 -->
<g id="node26" class="node"><title>38262</title>
<g id="a_node26"><a xlink:title="3rd_week">
<ellipse fill="#ee9898" stroke="black" cx="1455.56" cy="-422.636" rx="32.4942" ry="18"/>
<text text-anchor="middle" x="1455.56" y="-418.936" font-family="Times,serif" font-size="14.00">38262</text>
</a>
</g>
</g>
<!-- 9655&#45;&gt;38262 -->
<g id="edge46" class="edge"><title>9655&#45;&gt;38262</title>
<path fill="none" stroke="black" d="M1230.19,-454.869C1277.75,-448.067 1373.82,-434.327 1423.77,-427.183"/>
</g>
<!-- 38288 -->
<g id="node27" class="node"><title>38288</title>
<g id="a_node27"><a xlink:title="3rd_week">
<ellipse fill="#ee9898" stroke="black" cx="845.135" cy="-634.882" rx="32.4942" ry="18"/>
<text text-anchor="middle" x="845.135" y="-631.182" font-family="Times,serif" font-size="14.00">38288</text>
</a>
</g>
</g>
<!-- 9655&#45;&gt;38288 -->
<g id="edge51" class="edge"><title>9655&#45;&gt;38288</title>
<path fill="none" stroke="black" d="M1179.5,-470.03C1115.9,-501.388 935.728,-590.217 869.743,-622.749"/>
</g>
<!-- 38867 -->
<g id="node28" class="node"><title>38867</title>
<g id="a_node28"><a xlink:title="3rd_week">
<ellipse fill="#ee9898" stroke="black" cx="1244.66" cy="-228.157" rx="32.4942" ry="18"/>
<text text-anchor="middle" x="1244.66" y="-224.457" font-family="Times,serif" font-size="14.00">38867</text>
</a>
</g>
</g>
<!-- 9655&#45;&gt;38867 -->
<g id="edge8" class="edge"><title>9655&#45;&gt;38867</title>
<path fill="none" stroke="black" d="M1205.44,-440.782C1213.4,-397.651 1233.39,-289.225 1241.33,-246.178"/>
</g>
<!-- 52399 -->
<g id="node44" class="node"><title>52399</title>
<g id="a_node44"><a xlink:title="3rd_week">
<ellipse fill="#ee9898" stroke="black" cx="1243.34" cy="-642.674" rx="32.4942" ry="18"/>
<text text-anchor="middle" x="1243.34" y="-638.974" font-family="Times,serif" font-size="14.00">52399</text>
</a>
</g>
</g>
<!-- 9655&#45;&gt;52399 -->
<g id="edge35" class="edge"><title>9655&#45;&gt;52399</title>
<path fill="none" stroke="black" d="M1206.13,-476.844C1214.01,-511.98 1231.4,-589.45 1239.29,-624.644"/>
</g>
<!-- 54579 -->
<g id="node46" class="node"><title>54579</title>
<g id="a_node46"><a xlink:title="3rd_week">
<ellipse fill="#ee9898" stroke="black" cx="1158.31" cy="-297.028" rx="32.4942" ry="18"/>
<text text-anchor="middle" x="1158.31" y="-293.328" font-family="Times,serif" font-size="14.00">54579</text>
</a>
</g>
</g>
<!-- 9655&#45;&gt;54579 -->
<g id="edge54" class="edge"><title>9655&#45;&gt;54579</title>
<path fill="none" stroke="black" d="M1197.25,-440.947C1188.83,-409.835 1171.62,-346.217 1163.19,-315.049"/>
</g>
<!-- 55895 -->
<g id="node49" class="node"><title>55895</title>
<g id="a_node49"><a xlink:title="3rd_week">
<ellipse fill="#ee9898" stroke="black" cx="1161.89" cy="-638.78" rx="32.4942" ry="18"/>
<text text-anchor="middle" x="1161.89" y="-635.08" font-family="Times,serif" font-size="14.00">55895</text>
</a>
</g>
</g>
<!-- 9655&#45;&gt;55895 -->
<g id="edge25" class="edge"><title>9655&#45;&gt;55895</title>
<path fill="none" stroke="black" d="M1198.1,-476.794C1190.41,-511.187 1173.66,-586.134 1165.94,-620.679"/>
</g>
<!-- 58145 -->
<g id="node50" class="node"><title>58145</title>
<g id="a_node50"><a xlink:title="3rd_week">
<ellipse fill="#ee9898" stroke="black" cx="1096.47" cy="-586.34" rx="32.4942" ry="18"/>
<text text-anchor="middle" x="1096.47" y="-582.64" font-family="Times,serif" font-size="14.00">58145</text>
</a>
</g>
</g>
<!-- 9655&#45;&gt;58145 -->
<g id="edge24" class="edge"><title>9655&#45;&gt;58145</title>
<path fill="none" stroke="black" d="M1188.72,-475.029C1168.51,-499.412 1130.41,-545.385 1110.07,-569.927"/>
</g>
<!-- 59367 -->
<g id="node52" class="node"><title>59367</title>
<g id="a_node52"><a xlink:title="3rd_week">
<ellipse fill="#ee9898" stroke="black" cx="1355.32" cy="-647.102" rx="32.4942" ry="18"/>
<text text-anchor="middle" x="1355.32" y="-643.402" font-family="Times,serif" font-size="14.00">59367</text>
</a>
</g>
</g>
<!-- 9655&#45;&gt;59367 -->
<g id="edge9" class="edge"><title>9655&#45;&gt;59367</title>
<path fill="none" stroke="black" d="M1215.16,-474.935C1243.97,-510.316 1312.68,-594.725 1341.86,-630.559"/>
</g>
<!-- 62567 -->
<g id="node53" class="node"><title>62567</title>
<g id="a_node53"><a xlink:title="3rd_week">
<ellipse fill="#ee9898" stroke="black" cx="1062.32" cy="-328.414" rx="32.4942" ry="18"/>
<text text-anchor="middle" x="1062.32" y="-324.714" font-family="Times,serif" font-size="14.00">62567</text>
</a>
</g>
</g>
<!-- 9655&#45;&gt;62567 -->
<g id="edge19" class="edge"><title>9655&#45;&gt;62567</title>
<path fill="none" stroke="black" d="M1186.07,-443.921C1159.39,-419.02 1106.15,-369.328 1079.04,-344.015"/>
</g>
<!-- 10252 -->
<g id="node6" class="node"><title>10252</title>
<g id="a_node6"><a xlink:title="3rd_week">
<ellipse fill="#ee9898" stroke="black" cx="318.251" cy="-761.925" rx="32.4942" ry="18"/>
<text text-anchor="middle" x="318.251" y="-758.225" font-family="Times,serif" font-size="14.00">10252</text>
</a>
</g>
</g>
<!-- 25458 -->
<g id="node15" class="node"><title>25458</title>
<g id="a_node15"><a xlink:title="3rd_week">
<ellipse fill="#ee9898" stroke="black" cx="475.624" cy="-818.436" rx="32.4942" ry="18"/>
<text text-anchor="middle" x="475.624" y="-814.736" font-family="Times,serif" font-size="14.00">25458</text>
</a>
</g>
</g>
<!-- 10252&#45;&gt;25458 -->
<g id="edge20" class="edge"><title>10252&#45;&gt;25458</title>
<path fill="none" stroke="black" d="M345.664,-771.768C374.46,-782.109 419.485,-798.277 448.263,-808.61"/>
</g>
<!-- 10364 -->
<g id="node7" class="node"><title>10364</title>
<g id="a_node7"><a xlink:title="3rd_week">
<ellipse fill="#ee9898" stroke="black" cx="143.725" cy="-1159.14" rx="32.4942" ry="18"/>
<text text-anchor="middle" x="143.725" y="-1155.44" font-family="Times,serif" font-size="14.00">10364</text>
</a>
</g>
</g>
<!-- 45022 -->
<g id="node36" class="node"><title>45022</title>
<g id="a_node36"><a xlink:title="3rd_week">
<ellipse fill="#ee9898" stroke="black" cx="314.911" cy="-1025.58" rx="32.4942" ry="18"/>
<text text-anchor="middle" x="314.911" y="-1021.88" font-family="Times,serif" font-size="14.00">45022</text>
</a>
</g>
</g>
<!-- 10364&#45;&gt;45022 -->
<g id="edge5" class="edge"><title>10364&#45;&gt;45022</title>
<path fill="none" stroke="black" d="M162.699,-1144.33C195.604,-1118.66 262.887,-1066.17 295.852,-1040.45"/>
</g>
<!-- 16134 -->
<g id="node9" class="node"><title>16134</title>
<g id="a_node9"><a xlink:title="3rd_week">
<ellipse fill="#ee9898" stroke="black" cx="254.71" cy="-893.961" rx="32.4942" ry="18"/>
<text text-anchor="middle" x="254.71" y="-890.261" font-family="Times,serif" font-size="14.00">16134</text>
</a>
</g>
</g>
<!-- 16134&#45;&gt;25458 -->
<g id="edge39" class="edge"><title>16134&#45;&gt;25458</title>
<path fill="none" stroke="black" d="M282.689,-884.395C325.183,-869.868 405.514,-842.405 447.873,-827.923"/>
</g>
<!-- 42428 -->
<g id="node34" class="node"><title>42428</title>
<g id="a_node34"><a xlink:title="3rd_week">
<ellipse fill="#ee9898" stroke="black" cx="45.4779" cy="-963.117" rx="32.4942" ry="18"/>
<text text-anchor="middle" x="45.4779" y="-959.417" font-family="Times,serif" font-size="14.00">42428</text>
</a>
</g>
</g>
<!-- 16134&#45;&gt;42428 -->
<g id="edge23" class="edge"><title>16134&#45;&gt;42428</title>
<path fill="none" stroke="black" d="M226.492,-903.287C186.447,-916.523 113.565,-940.613 73.5822,-953.828"/>
</g>
<!-- 17131 -->
<g id="node10" class="node"><title>17131</title>
<g id="a_node10"><a xlink:title="3rd_week">
<ellipse fill="#ee9898" stroke="black" cx="100.454" cy="-557.875" rx="32.4942" ry="18"/>
<text text-anchor="middle" x="100.454" y="-554.175" font-family="Times,serif" font-size="14.00">17131</text>
</a>
</g>
</g>
<!-- 63059 -->
<g id="node54" class="node"><title>63059</title>
<g id="a_node54"><a xlink:title="3rd_week">
<ellipse fill="#ee9898" stroke="black" cx="281.024" cy="-674.856" rx="32.4942" ry="18"/>
<text text-anchor="middle" x="281.024" y="-671.156" font-family="Times,serif" font-size="14.00">63059</text>
</a>
</g>
</g>
<!-- 17131&#45;&gt;63059 -->
<g id="edge15" class="edge"><title>17131&#45;&gt;63059</title>
<path fill="none" stroke="black" d="M121.877,-571.754C156.629,-594.268 224.895,-638.493 259.629,-660.995"/>
</g>
<!-- 18694 -->
<g id="node11" class="node"><title>18694</title>
<g id="a_node11"><a xlink:title="3rd_week">
<ellipse fill="#ee9898" stroke="black" cx="605.11" cy="-965.513" rx="32.4942" ry="18"/>
<text text-anchor="middle" x="605.11" y="-961.813" font-family="Times,serif" font-size="14.00">18694</text>
</a>
</g>
</g>
<!-- 18694&#45;&gt;25458 -->
<g id="edge6" class="edge"><title>18694&#45;&gt;25458</title>
<path fill="none" stroke="black" d="M590.758,-949.211C565.868,-920.94 514.975,-863.133 490.041,-834.811"/>
</g>
<!-- 21203 -->
<g id="node12" class="node"><title>21203</title>
<g id="a_node12"><a xlink:title="3rd_week">
<ellipse fill="#ee9898" stroke="black" cx="213.666" cy="-1216.5" rx="32.4942" ry="18"/>
<text text-anchor="middle" x="213.666" y="-1212.8" font-family="Times,serif" font-size="14.00">21203</text>
</a>
</g>
</g>
<!-- 21203&#45;&gt;45022 -->
<g id="edge22" class="edge"><title>21203&#45;&gt;45022</title>
<path fill="none" stroke="black" d="M222.829,-1199.22C242.056,-1162.97 286.422,-1079.3 305.695,-1042.96"/>
</g>
<!-- 40997 -->
<g id="node30" class="node"><title>40997</title>
<g id="a_node30"><a xlink:title="3rd_week">
<ellipse fill="#ee9898" stroke="black" cx="1553.04" cy="-145.866" rx="32.4942" ry="18"/>
<text text-anchor="middle" x="1553.04" y="-142.166" font-family="Times,serif" font-size="14.00">40997</text>
</a>
</g>
</g>
<!-- 21812&#45;&gt;40997 -->
<g id="edge49" class="edge"><title>21812&#45;&gt;40997</title>
<path fill="none" stroke="black" d="M1395.46,-255.472C1429.71,-231.653 1498.32,-183.928 1532.59,-160.093"/>
</g>
<!-- 59252 -->
<g id="node51" class="node"><title>59252</title>
<g id="a_node51"><a xlink:title="3rd_week">
<ellipse fill="#ee9898" stroke="black" cx="1489.69" cy="-85.2149" rx="32.4942" ry="18"/>
<text text-anchor="middle" x="1489.69" y="-81.5149" font-family="Times,serif" font-size="14.00">59252</text>
</a>
</g>
</g>
<!-- 21812&#45;&gt;59252 -->
<g id="edge50" class="edge"><title>21812&#45;&gt;59252</title>
<path fill="none" stroke="black" d="M1385.62,-252.652C1407.41,-217.601 1457.07,-137.709 1478.97,-102.465"/>
</g>
<!-- 25927 -->
<g id="node16" class="node"><title>25927</title>
<g id="a_node16"><a xlink:title="3rd_week">
<ellipse fill="#ee9898" stroke="black" cx="630.676" cy="-916.231" rx="32.4942" ry="18"/>
<text text-anchor="middle" x="630.676" y="-912.531" font-family="Times,serif" font-size="14.00">25927</text>
</a>
</g>
</g>
<!-- 25458&#45;&gt;25927 -->
<g id="edge41" class="edge"><title>25458&#45;&gt;25927</title>
<path fill="none" stroke="black" d="M497.184,-832.034C526.64,-850.613 579.179,-883.75 608.8,-902.433"/>
</g>
<!-- 28913 -->
<g id="node19" class="node"><title>28913</title>
<g id="a_node19"><a xlink:title="3rd_week">
<ellipse fill="#ee9898" stroke="black" cx="399.36" cy="-978.466" rx="32.4942" ry="18"/>
<text text-anchor="middle" x="399.36" y="-974.766" font-family="Times,serif" font-size="14.00">28913</text>
</a>
</g>
</g>
<!-- 25458&#45;&gt;28913 -->
<g id="edge38" class="edge"><title>25458&#45;&gt;28913</title>
<path fill="none" stroke="black" d="M467.318,-835.866C452.648,-866.65 422.319,-930.289 407.657,-961.057"/>
</g>
<!-- 34605 -->
<g id="node24" class="node"><title>34605</title>
<g id="a_node24"><a xlink:title="3rd_week">
<ellipse fill="#ee9898" stroke="black" cx="523.876" cy="-633.303" rx="32.4942" ry="18"/>
<text text-anchor="middle" x="523.876" y="-629.603" font-family="Times,serif" font-size="14.00">34605</text>
</a>
</g>
</g>
<!-- 25458&#45;&gt;34605 -->
<g id="edge3" class="edge"><title>25458&#45;&gt;34605</title>
<path fill="none" stroke="black" d="M480.339,-800.347C489.587,-764.863 510.007,-686.515 519.213,-651.192"/>
</g>
<!-- 25458&#45;&gt;38288 -->
<g id="edge33" class="edge"><title>25458&#45;&gt;38288</title>
<path fill="none" stroke="black" d="M499.869,-806.392C566.822,-773.133 753.742,-680.281 820.801,-646.97"/>
</g>
<!-- 39916 -->
<g id="node29" class="node"><title>39916</title>
<g id="a_node29"><a xlink:title="3rd_week">
<ellipse fill="#ee9898" stroke="black" cx="316.366" cy="-847.984" rx="32.4942" ry="18"/>
<text text-anchor="middle" x="316.366" y="-844.284" font-family="Times,serif" font-size="14.00">39916</text>
</a>
</g>
</g>
<!-- 25458&#45;&gt;39916 -->
<g id="edge4" class="edge"><title>25458&#45;&gt;39916</title>
<path fill="none" stroke="black" d="M444.54,-824.203C416.478,-829.41 375.41,-837.029 347.372,-842.231"/>
</g>
<!-- 41083 -->
<g id="node31" class="node"><title>41083</title>
<g id="a_node31"><a xlink:title="3rd_week">
<ellipse fill="#ee9898" stroke="black" cx="467.339" cy="-1059.88" rx="32.4942" ry="18"/>
<text text-anchor="middle" x="467.339" y="-1056.18" font-family="Times,serif" font-size="14.00">41083</text>
</a>
</g>
</g>
<!-- 25458&#45;&gt;41083 -->
<g id="edge53" class="edge"><title>25458&#45;&gt;41083</title>
<path fill="none" stroke="black" d="M475.002,-836.584C473.462,-881.439 469.493,-997.125 467.958,-1041.85"/>
</g>
<!-- 41482 -->
<g id="node32" class="node"><title>41482</title>
<g id="a_node32"><a xlink:title="3rd_week">
<ellipse fill="#ee9898" stroke="black" cx="368.528" cy="-629.246" rx="32.4942" ry="18"/>
<text text-anchor="middle" x="368.528" y="-625.546" font-family="Times,serif" font-size="14.00">41482</text>
</a>
</g>
</g>
<!-- 25458&#45;&gt;41482 -->
<g id="edge7" class="edge"><title>25458&#45;&gt;41482</title>
<path fill="none" stroke="black" d="M465.741,-800.976C445.339,-764.935 398.769,-682.669 378.387,-646.664"/>
</g>
<!-- 43068 -->
<g id="node35" class="node"><title>43068</title>
<g id="a_node35"><a xlink:title="3rd_week">
<ellipse fill="#ee9898" stroke="black" cx="589.397" cy="-698.249" rx="32.4942" ry="18"/>
<text text-anchor="middle" x="589.397" y="-694.549" font-family="Times,serif" font-size="14.00">43068</text>
</a>
</g>
</g>
<!-- 25458&#45;&gt;43068 -->
<g id="edge32" class="edge"><title>25458&#45;&gt;43068</title>
<path fill="none" stroke="black" d="M490.968,-802.227C512.804,-779.16 552.595,-737.126 574.296,-714.201"/>
</g>
<!-- 25458&#45;&gt;45022 -->
<g id="edge42" class="edge"><title>25458&#45;&gt;45022</title>
<path fill="none" stroke="black" d="M462.744,-835.037C432.652,-873.823 358.005,-970.035 327.852,-1008.9"/>
</g>
<!-- 46378 -->
<g id="node38" class="node"><title>46378</title>
<g id="a_node38"><a xlink:title="3rd_week">
<ellipse fill="#ee9898" stroke="black" cx="645.581" cy="-831.143" rx="32.4942" ry="18"/>
<text text-anchor="middle" x="645.581" y="-827.443" font-family="Times,serif" font-size="14.00">46378</text>
</a>
</g>
</g>
<!-- 25458&#45;&gt;46378 -->
<g id="edge13" class="edge"><title>25458&#45;&gt;46378</title>
<path fill="none" stroke="black" d="M507.992,-820.856C538.234,-823.117 583.131,-826.474 613.334,-828.732"/>
</g>
<!-- 48923 -->
<g id="node40" class="node"><title>48923</title>
<g id="a_node40"><a xlink:title="3rd_week">
<ellipse fill="#ee9898" stroke="black" cx="521.179" cy="-1013.36" rx="32.4942" ry="18"/>
<text text-anchor="middle" x="521.179" y="-1009.66" font-family="Times,serif" font-size="14.00">48923</text>
</a>
</g>
</g>
<!-- 25458&#45;&gt;48923 -->
<g id="edge14" class="edge"><title>25458&#45;&gt;48923</title>
<path fill="none" stroke="black" d="M479.829,-836.424C488.507,-873.557 508.316,-958.316 516.985,-995.412"/>
</g>
<!-- 49745 -->
<g id="node42" class="node"><title>49745</title>
<g id="a_node42"><a xlink:title="3rd_week">
<ellipse fill="#ee9898" stroke="black" cx="474.538" cy="-965.947" rx="32.4942" ry="18"/>
<text text-anchor="middle" x="474.538" y="-962.247" font-family="Times,serif" font-size="14.00">49745</text>
</a>
</g>
</g>
<!-- 25458&#45;&gt;49745 -->
<g id="edge36" class="edge"><title>25458&#45;&gt;49745</title>
<path fill="none" stroke="black" d="M475.491,-836.524C475.283,-864.835 474.882,-919.309 474.672,-947.711"/>
</g>
<!-- 51428 -->
<g id="node43" class="node"><title>51428</title>
<g id="a_node43"><a xlink:title="3rd_week">
<ellipse fill="#ee9898" stroke="black" cx="442.503" cy="-680.967" rx="32.4942" ry="18"/>
<text text-anchor="middle" x="442.503" y="-677.267" font-family="Times,serif" font-size="14.00">51428</text>
</a>
</g>
</g>
<!-- 25458&#45;&gt;51428 -->
<g id="edge47" class="edge"><title>25458&#45;&gt;51428</title>
<path fill="none" stroke="black" d="M471.294,-800.464C464.947,-774.118 453.182,-725.291 446.834,-698.943"/>
</g>
<!-- 53812 -->
<g id="node45" class="node"><title>53812</title>
<g id="a_node45"><a xlink:title="3rd_week">
<ellipse fill="#ee9898" stroke="black" cx="342.765" cy="-926.159" rx="32.4942" ry="18"/>
<text text-anchor="middle" x="342.765" y="-922.459" font-family="Times,serif" font-size="14.00">53812</text>
</a>
</g>
</g>
<!-- 25458&#45;&gt;53812 -->
<g id="edge45" class="edge"><title>25458&#45;&gt;53812</title>
<path fill="none" stroke="black" d="M457.151,-833.414C431.91,-853.879 386.891,-890.381 361.51,-910.961"/>
</g>
<!-- 54954 -->
<g id="node47" class="node"><title>54954</title>
<g id="a_node47"><a xlink:title="3rd_week">
<ellipse fill="#ee9898" stroke="black" cx="356.845" cy="-697.201" rx="32.4942" ry="18"/>
<text text-anchor="middle" x="356.845" y="-693.501" font-family="Times,serif" font-size="14.00">54954</text>
</a>
</g>
</g>
<!-- 25458&#45;&gt;54954 -->
<g id="edge12" class="edge"><title>25458&#45;&gt;54954</title>
<path fill="none" stroke="black" d="M460.096,-802.586C437.332,-779.352 395.144,-736.291 372.377,-713.054"/>
</g>
<!-- 25458&#45;&gt;54968 -->
<g id="edge10" class="edge"><title>25458&#45;&gt;54968</title>
<path fill="none" stroke="black" d="M443.518,-814.261C398.624,-808.424 317.589,-797.887 272.904,-792.077"/>
</g>
<!-- 25458&#45;&gt;63059 -->
<g id="edge17" class="edge"><title>25458&#45;&gt;63059</title>
<path fill="none" stroke="black" d="M455.894,-803.878C418.596,-776.359 338.145,-717 300.806,-689.451"/>
</g>
<!-- 27978 -->
<g id="node18" class="node"><title>27978</title>
<g id="a_node18"><a xlink:title="3rd_week">
<ellipse fill="#ee9898" stroke="black" cx="1504.35" cy="-803.526" rx="32.4942" ry="18"/>
<text text-anchor="middle" x="1504.35" y="-799.826" font-family="Times,serif" font-size="14.00">27978</text>
</a>
</g>
</g>
<!-- 27978&#45;&gt;59367 -->
<g id="edge18" class="edge"><title>27978&#45;&gt;59367</title>
<path fill="none" stroke="black" d="M1488.96,-787.375C1460.41,-757.4 1399.51,-693.484 1370.85,-663.399"/>
</g>
<!-- 29994 -->
<g id="node20" class="node"><title>29994</title>
<g id="a_node20"><a xlink:title="3rd_week">
<ellipse fill="#ee9898" stroke="black" cx="1674.75" cy="-433.64" rx="32.4942" ry="18"/>
<text text-anchor="middle" x="1674.75" y="-429.94" font-family="Times,serif" font-size="14.00">29994</text>
</a>
</g>
</g>
<!-- 29994&#45;&gt;38262 -->
<g id="edge44" class="edge"><title>29994&#45;&gt;38262</title>
<path fill="none" stroke="black" d="M1641.93,-431.993C1600.49,-429.912 1529.62,-426.354 1488.24,-424.276"/>
</g>
<!-- 45956 -->
<g id="node37" class="node"><title>45956</title>
<g id="a_node37"><a xlink:title="3rd_week">
<ellipse fill="#ee9898" stroke="black" cx="1089.09" cy="-21.3238" rx="32.4942" ry="18"/>
<text text-anchor="middle" x="1089.09" y="-17.6238" font-family="Times,serif" font-size="14.00">45956</text>
</a>
</g>
</g>
<!-- 33799&#45;&gt;45956 -->
<g id="edge2" class="edge"><title>33799&#45;&gt;45956</title>
<path fill="none" stroke="black" d="M1128.19,-211.877C1120.07,-172.306 1100.86,-78.6863 1092.77,-39.2896"/>
</g>
<!-- 47852 -->
<g id="node39" class="node"><title>47852</title>
<g id="a_node39"><a xlink:title="3rd_week">
<ellipse fill="#ee9898" stroke="black" cx="1620.74" cy="-634.811" rx="32.4942" ry="18"/>
<text text-anchor="middle" x="1620.74" y="-631.111" font-family="Times,serif" font-size="14.00">47852</text>
</a>
</g>
</g>
<!-- 37551&#45;&gt;47852 -->
<g id="edge30" class="edge"><title>37551&#45;&gt;47852</title>
<path fill="none" stroke="black" d="M1443.36,-563.977C1482.47,-579.594 1554.95,-608.537 1594.06,-624.156"/>
</g>
<!-- 49229 -->
<g id="node41" class="node"><title>49229</title>
<g id="a_node41"><a xlink:title="3rd_week">
<ellipse fill="#ee9898" stroke="black" cx="1658.51" cy="-347.248" rx="32.4942" ry="18"/>
<text text-anchor="middle" x="1658.51" y="-343.548" font-family="Times,serif" font-size="14.00">49229</text>
</a>
</g>
</g>
<!-- 38262&#45;&gt;49229 -->
<g id="edge29" class="edge"><title>38262&#45;&gt;49229</title>
<path fill="none" stroke="black" d="M1482.93,-412.469C1521.77,-398.04 1592.47,-371.78 1631.25,-357.374"/>
</g>
<!-- 42246 -->
<g id="node33" class="node"><title>42246</title>
<g id="a_node33"><a xlink:title="3rd_week">
<ellipse fill="#ee9898" stroke="black" cx="1293.05" cy="-17.6817" rx="32.4942" ry="18"/>
<text text-anchor="middle" x="1293.05" y="-13.9817" font-family="Times,serif" font-size="14.00">42246</text>
</a>
</g>
</g>
<!-- 38867&#45;&gt;42246 -->
<g id="edge37" class="edge"><title>38867&#45;&gt;42246</title>
<path fill="none" stroke="black" d="M1248.78,-210.212C1257.93,-170.447 1279.8,-75.3038 1288.94,-35.5813"/>
</g>
<!-- 63701 -->
<g id="node55" class="node"><title>63701</title>
<g id="a_node55"><a xlink:title="3rd_week">
<ellipse fill="#ee9898" stroke="black" cx="451.693" cy="-1273.15" rx="32.4942" ry="18"/>
<text text-anchor="middle" x="451.693" y="-1269.45" font-family="Times,serif" font-size="14.00">63701</text>
</a>
</g>
</g>
<!-- 41083&#45;&gt;63701 -->
<g id="edge28" class="edge"><title>41083&#45;&gt;63701</title>
<path fill="none" stroke="black" d="M466.005,-1078.07C463.049,-1118.36 455.977,-1214.77 453.024,-1255.02"/>
</g>
</g>
</svg>
