<?xml version="1.0" encoding="UTF-8" standalone="no"?>
<!DOCTYPE svg PUBLIC "-//W3C//DTD SVG 1.1//EN"
 "http://www.w3.org/Graphics/SVG/1.1/DTD/svg11.dtd">
<!-- Generated by graphviz version 2.38.0 (20140413.2041)
 -->
<!-- Title: %3 Pages: 1 -->
<svg width="1670pt" height="1896pt"
 viewBox="0.00 0.00 1670.00 1896.00" xmlns="http://www.w3.org/2000/svg" xmlns:xlink="http://www.w3.org/1999/xlink">
<g id="graph0" class="graph" transform="scale(1 1) rotate(0) translate(4 1892)">
<title>%3</title>
<polygon fill="white" stroke="none" points="-4,4 -4,-1892 1666,-1892 1666,4 -4,4"/>
<!-- 285 -->
<g id="node1" class="node"><title>285</title>
<g id="a_node1"><a xlink:title="3rd_week">
<ellipse fill="#ee9898" stroke="black" cx="675.48" cy="-680.702" rx="27" ry="18"/>
<text text-anchor="middle" x="675.48" y="-677.002" font-family="Times,serif" font-size="14.00">285</text>
</a>
</g>
</g>
<!-- 22958 -->
<g id="node82" class="node"><title>22958</title>
<g id="a_node82"><a xlink:title="3rd_week,6th_week">
<ellipse fill="#ee9898" stroke="black" cx="832.187" cy="-618.543" rx="32.4945" ry="18"/>
<ellipse fill="none" stroke="black" cx="832.187" cy="-618.543" rx="36.4942" ry="22"/>
<text text-anchor="middle" x="832.187" y="-614.843" font-family="Times,serif" font-size="14.00">22958</text>
</a>
</g>
</g>
<!-- 285&#45;&gt;22958 -->
<g id="edge42" class="edge"><title>285&#45;&gt;22958</title>
<path fill="none" stroke="black" d="M698.941,-671.396C726.263,-660.559 771.482,-642.622 801.554,-630.694"/>
</g>
<!-- 336 -->
<g id="node2" class="node"><title>336</title>
<g id="a_node2"><a xlink:title="6th_week">
<ellipse fill="#c81d25" stroke="black" cx="1368.35" cy="-1445.53" rx="27" ry="18"/>
<text text-anchor="middle" x="1368.35" y="-1441.83" font-family="Times,serif" font-size="14.00">336</text>
</a>
</g>
</g>
<!-- 6860 -->
<g id="node23" class="node"><title>6860</title>
<g id="a_node23"><a xlink:title="6th_week">
<ellipse fill="#c81d25" stroke="black" cx="1510.12" cy="-1569.31" rx="28.6953" ry="18"/>
<text text-anchor="middle" x="1510.12" y="-1565.61" font-family="Times,serif" font-size="14.00">6860</text>
</a>
</g>
</g>
<!-- 336&#45;&gt;6860 -->
<g id="edge45" class="edge"><title>336&#45;&gt;6860</title>
<path fill="none" stroke="black" d="M1384.89,-1459.97C1412.07,-1483.69 1465.86,-1530.66 1493.25,-1554.58"/>
</g>
<!-- 6980 -->
<g id="node24" class="node"><title>6980</title>
<g id="a_node24"><a xlink:title="6th_week">
<ellipse fill="#c81d25" stroke="black" cx="1502.36" cy="-1627.22" rx="28.6953" ry="18"/>
<text text-anchor="middle" x="1502.36" y="-1623.52" font-family="Times,serif" font-size="14.00">6980</text>
</a>
</g>
</g>
<!-- 336&#45;&gt;6980 -->
<g id="edge21" class="edge"><title>336&#45;&gt;6980</title>
<path fill="none" stroke="black" d="M1380.48,-1461.97C1405.93,-1496.48 1464.65,-1576.1 1490.16,-1610.68"/>
</g>
<!-- 8339 -->
<g id="node27" class="node"><title>8339</title>
<g id="a_node27"><a xlink:title="6th_week">
<ellipse fill="#c81d25" stroke="black" cx="1517.56" cy="-1695.85" rx="28.6953" ry="18"/>
<text text-anchor="middle" x="1517.56" y="-1692.15" font-family="Times,serif" font-size="14.00">8339</text>
</a>
</g>
</g>
<!-- 336&#45;&gt;8339 -->
<g id="edge33" class="edge"><title>336&#45;&gt;8339</title>
<path fill="none" stroke="black" d="M1378.38,-1462.34C1405.49,-1507.83 1480.09,-1632.99 1507.39,-1678.78"/>
</g>
<!-- 9482 -->
<g id="node29" class="node"><title>9482</title>
<g id="a_node29"><a xlink:title="6th_week">
<ellipse fill="#c81d25" stroke="black" cx="1434.2" cy="-1670.03" rx="28.6953" ry="18"/>
<text text-anchor="middle" x="1434.2" y="-1666.33" font-family="Times,serif" font-size="14.00">9482</text>
</a>
</g>
</g>
<!-- 336&#45;&gt;9482 -->
<g id="edge82" class="edge"><title>336&#45;&gt;9482</title>
<path fill="none" stroke="black" d="M1373.63,-1463.52C1385.99,-1505.66 1416.69,-1610.35 1428.99,-1652.26"/>
</g>
<!-- 14806 -->
<g id="node53" class="node"><title>14806</title>
<g id="a_node53"><a xlink:title="6th_week">
<ellipse fill="#c81d25" stroke="black" cx="1283.18" cy="-1652.68" rx="32.4942" ry="18"/>
<text text-anchor="middle" x="1283.18" y="-1648.98" font-family="Times,serif" font-size="14.00">14806</text>
</a>
</g>
</g>
<!-- 336&#45;&gt;14806 -->
<g id="edge50" class="edge"><title>336&#45;&gt;14806</title>
<path fill="none" stroke="black" d="M1361.09,-1463.19C1345,-1502.33 1306.5,-1595.97 1290.42,-1635.06"/>
</g>
<!-- 14922 -->
<g id="node55" class="node"><title>14922</title>
<g id="a_node55"><a xlink:title="3rd_week">
<ellipse fill="#ee9898" stroke="black" cx="1113.83" cy="-1059.19" rx="32.4942" ry="18"/>
<text text-anchor="middle" x="1113.83" y="-1055.49" font-family="Times,serif" font-size="14.00">14922</text>
</a>
</g>
</g>
<!-- 336&#45;&gt;14922 -->
<g id="edge64" class="edge"><title>336&#45;&gt;14922</title>
<path fill="none" stroke="black" d="M1357.42,-1428.93C1315.74,-1365.67 1167.11,-1140.06 1125.01,-1076.16"/>
</g>
<!-- 16081 -->
<g id="node57" class="node"><title>16081</title>
<g id="a_node57"><a xlink:title="6th_week">
<ellipse fill="#c81d25" stroke="black" cx="1362.45" cy="-1638.16" rx="32.4942" ry="18"/>
<text text-anchor="middle" x="1362.45" y="-1634.46" font-family="Times,serif" font-size="14.00">16081</text>
</a>
</g>
</g>
<!-- 336&#45;&gt;16081 -->
<g id="edge20" class="edge"><title>336&#45;&gt;16081</title>
<path fill="none" stroke="black" d="M1367.8,-1463.65C1366.67,-1500.36 1364.14,-1583.15 1363.01,-1619.94"/>
</g>
<!-- 20337 -->
<g id="node72" class="node"><title>20337</title>
<g id="a_node72"><a xlink:title="6th_week">
<ellipse fill="#c81d25" stroke="black" cx="1579.01" cy="-1452" rx="32.4942" ry="18"/>
<text text-anchor="middle" x="1579.01" y="-1448.3" font-family="Times,serif" font-size="14.00">20337</text>
</a>
</g>
</g>
<!-- 336&#45;&gt;20337 -->
<g id="edge69" class="edge"><title>336&#45;&gt;20337</title>
<path fill="none" stroke="black" d="M1395.46,-1446.36C1434.14,-1447.55 1505.03,-1449.73 1546.49,-1451"/>
</g>
<!-- 20685 -->
<g id="node74" class="node"><title>20685</title>
<g id="a_node74"><a xlink:title="6th_week">
<ellipse fill="#c81d25" stroke="black" cx="1362.49" cy="-1697.12" rx="32.4942" ry="18"/>
<text text-anchor="middle" x="1362.49" y="-1693.42" font-family="Times,serif" font-size="14.00">20685</text>
</a>
</g>
</g>
<!-- 336&#45;&gt;20685 -->
<g id="edge60" class="edge"><title>336&#45;&gt;20685</title>
<path fill="none" stroke="black" d="M1367.93,-1463.62C1366.85,-1509.93 1364,-1632.36 1362.92,-1678.86"/>
</g>
<!-- 23381 -->
<g id="node83" class="node"><title>23381</title>
<g id="a_node83"><a xlink:title="6th_week">
<ellipse fill="#c81d25" stroke="black" cx="1580.19" cy="-1576.55" rx="32.4942" ry="18"/>
<text text-anchor="middle" x="1580.19" y="-1572.85" font-family="Times,serif" font-size="14.00">23381</text>
</a>
</g>
</g>
<!-- 336&#45;&gt;23381 -->
<g id="edge3" class="edge"><title>336&#45;&gt;23381</title>
<path fill="none" stroke="black" d="M1388.28,-1457.85C1428.04,-1482.44 1516.92,-1537.42 1558.26,-1562.99"/>
</g>
<!-- 24709 -->
<g id="node89" class="node"><title>24709</title>
<g id="a_node89"><a xlink:title="6th_week">
<ellipse fill="#c81d25" stroke="black" cx="1578.65" cy="-1518.88" rx="32.4942" ry="18"/>
<text text-anchor="middle" x="1578.65" y="-1515.18" font-family="Times,serif" font-size="14.00">24709</text>
</a>
</g>
</g>
<!-- 336&#45;&gt;24709 -->
<g id="edge53" class="edge"><title>336&#45;&gt;24709</title>
<path fill="none" stroke="black" d="M1392.48,-1453.94C1431.75,-1467.64 1509.28,-1494.69 1550.82,-1509.18"/>
</g>
<!-- 585 -->
<g id="node3" class="node"><title>585</title>
<g id="a_node3"><a xlink:title="3rd_week">
<ellipse fill="#ee9898" stroke="black" cx="955.843" cy="-508.719" rx="27" ry="18"/>
<text text-anchor="middle" x="955.843" y="-505.019" font-family="Times,serif" font-size="14.00">585</text>
</a>
</g>
</g>
<!-- 585&#45;&gt;22958 -->
<g id="edge16" class="edge"><title>585&#45;&gt;22958</title>
<path fill="none" stroke="black" d="M939.423,-523.303C917.086,-543.141 877.126,-578.63 852.8,-600.236"/>
</g>
<!-- 641 -->
<g id="node4" class="node"><title>641</title>
<g id="a_node4"><a xlink:title="3rd_week">
<ellipse fill="#ee9898" stroke="black" cx="252.621" cy="-420.724" rx="27" ry="18"/>
<text text-anchor="middle" x="252.621" y="-417.024" font-family="Times,serif" font-size="14.00">641</text>
</a>
</g>
</g>
<!-- 24120 -->
<g id="node86" class="node"><title>24120</title>
<g id="a_node86"><a xlink:title="3rd_week">
<ellipse fill="#ee9898" stroke="black" cx="474.351" cy="-479.585" rx="32.4942" ry="18"/>
<text text-anchor="middle" x="474.351" y="-475.885" font-family="Times,serif" font-size="14.00">24120</text>
</a>
</g>
</g>
<!-- 641&#45;&gt;24120 -->
<g id="edge7" class="edge"><title>641&#45;&gt;24120</title>
<path fill="none" stroke="black" d="M278.057,-427.476C319.462,-438.468 401.208,-460.168 445.007,-471.796"/>
</g>
<!-- 1189 -->
<g id="node5" class="node"><title>1189</title>
<g id="a_node5"><a xlink:title="3rd_week">
<ellipse fill="#ee9898" stroke="black" cx="826.369" cy="-18.3249" rx="28.6953" ry="18"/>
<text text-anchor="middle" x="826.369" y="-14.6249" font-family="Times,serif" font-size="14.00">1189</text>
</a>
</g>
</g>
<!-- 21913 -->
<g id="node76" class="node"><title>21913</title>
<g id="a_node76"><a xlink:title="3rd_week">
<ellipse fill="#ee9898" stroke="black" cx="855.614" cy="-249.401" rx="32.4942" ry="18"/>
<text text-anchor="middle" x="855.614" y="-245.701" font-family="Times,serif" font-size="14.00">21913</text>
</a>
</g>
</g>
<!-- 1189&#45;&gt;21913 -->
<g id="edge56" class="edge"><title>1189&#45;&gt;21913</title>
<path fill="none" stroke="black" d="M828.664,-36.457C834.131,-79.6532 847.874,-188.242 853.33,-231.353"/>
</g>
<!-- 2206 -->
<g id="node6" class="node"><title>2206</title>
<g id="a_node6"><a xlink:title="3rd_week">
<ellipse fill="#ee9898" stroke="black" cx="732.417" cy="-778.753" rx="28.6953" ry="18"/>
<text text-anchor="middle" x="732.417" y="-775.053" font-family="Times,serif" font-size="14.00">2206</text>
</a>
</g>
</g>
<!-- 2206&#45;&gt;22958 -->
<g id="edge78" class="edge"><title>2206&#45;&gt;22958</title>
<path fill="none" stroke="black" d="M742.906,-761.911C761.317,-732.346 799.385,-671.216 819.342,-639.17"/>
</g>
<!-- 2670 -->
<g id="node7" class="node"><title>2670</title>
<g id="a_node7"><a xlink:title="3rd_week">
<ellipse fill="#ee9898" stroke="black" cx="707.718" cy="-527.743" rx="28.6953" ry="18"/>
<text text-anchor="middle" x="707.718" y="-524.043" font-family="Times,serif" font-size="14.00">2670</text>
</a>
</g>
</g>
<!-- 2670&#45;&gt;22958 -->
<g id="edge11" class="edge"><title>2670&#45;&gt;22958</title>
<path fill="none" stroke="black" d="M726.622,-541.534C748.656,-557.608 785.077,-584.176 808.853,-601.521"/>
</g>
<!-- 3543 -->
<g id="node8" class="node"><title>3543</title>
<g id="a_node8"><a xlink:title="3rd_week">
<ellipse fill="#ee9898" stroke="black" cx="1093.14" cy="-809.197" rx="28.6953" ry="18"/>
<text text-anchor="middle" x="1093.14" y="-805.497" font-family="Times,serif" font-size="14.00">3543</text>
</a>
</g>
</g>
<!-- 12334 -->
<g id="node39" class="node"><title>12334</title>
<g id="a_node39"><a xlink:title="3rd_week">
<ellipse fill="#ee9898" stroke="black" cx="1279.99" cy="-928.537" rx="32.4942" ry="18"/>
<text text-anchor="middle" x="1279.99" y="-924.837" font-family="Times,serif" font-size="14.00">12334</text>
</a>
</g>
</g>
<!-- 3543&#45;&gt;12334 -->
<g id="edge54" class="edge"><title>3543&#45;&gt;12334</title>
<path fill="none" stroke="black" d="M1113.49,-822.195C1149.06,-844.91 1222.18,-891.613 1258.52,-914.821"/>
</g>
<!-- 3543&#45;&gt;22958 -->
<g id="edge70" class="edge"><title>3543&#45;&gt;22958</title>
<path fill="none" stroke="black" d="M1074.38,-795.485C1027.75,-761.418 906.711,-672.99 855.557,-635.617"/>
</g>
<!-- 3670 -->
<g id="node9" class="node"><title>3670</title>
<g id="a_node9"><a xlink:title="3rd_week">
<ellipse fill="#ee9898" stroke="black" cx="1013.45" cy="-780.945" rx="28.6953" ry="18"/>
<text text-anchor="middle" x="1013.45" y="-777.245" font-family="Times,serif" font-size="14.00">3670</text>
</a>
</g>
</g>
<!-- 3670&#45;&gt;22958 -->
<g id="edge28" class="edge"><title>3670&#45;&gt;22958</title>
<path fill="none" stroke="black" d="M996.724,-765.957C963.419,-736.118 888.917,-669.369 852.716,-636.935"/>
</g>
<!-- 3700 -->
<g id="node10" class="node"><title>3700</title>
<g id="a_node10"><a xlink:title="3rd_week">
<ellipse fill="#ee9898" stroke="black" cx="903.072" cy="-856.08" rx="28.6953" ry="18"/>
<text text-anchor="middle" x="903.072" y="-852.38" font-family="Times,serif" font-size="14.00">3700</text>
</a>
</g>
</g>
<!-- 3700&#45;&gt;22958 -->
<g id="edge40" class="edge"><title>3700&#45;&gt;22958</title>
<path fill="none" stroke="black" d="M897.744,-838.226C884.962,-795.392 852.587,-686.904 838.689,-640.33"/>
</g>
<!-- 3792 -->
<g id="node11" class="node"><title>3792</title>
<g id="a_node11"><a xlink:title="3rd_week">
<ellipse fill="#ee9898" stroke="black" cx="830.172" cy="-809.059" rx="28.6953" ry="18"/>
<text text-anchor="middle" x="830.172" y="-805.359" font-family="Times,serif" font-size="14.00">3792</text>
</a>
</g>
</g>
<!-- 3792&#45;&gt;22958 -->
<g id="edge23" class="edge"><title>3792&#45;&gt;22958</title>
<path fill="none" stroke="black" d="M830.365,-790.792C830.737,-755.68 831.549,-678.886 831.951,-640.83"/>
</g>
<!-- 3974 -->
<g id="node12" class="node"><title>3974</title>
<g id="a_node12"><a xlink:title="3rd_week">
<ellipse fill="#ee9898" stroke="black" cx="28.5129" cy="-998.687" rx="28.6953" ry="18"/>
<text text-anchor="middle" x="28.5129" y="-994.987" font-family="Times,serif" font-size="14.00">3974</text>
</a>
</g>
</g>
<!-- 14742 -->
<g id="node52" class="node"><title>14742</title>
<g id="a_node52"><a xlink:title="3rd_week">
<ellipse fill="#ee9898" stroke="black" cx="257.709" cy="-901.399" rx="32.4942" ry="18"/>
<text text-anchor="middle" x="257.709" y="-897.699" font-family="Times,serif" font-size="14.00">14742</text>
</a>
</g>
</g>
<!-- 3974&#45;&gt;14742 -->
<g id="edge51" class="edge"><title>3974&#45;&gt;14742</title>
<path fill="none" stroke="black" d="M52.6077,-988.459C96.0521,-970.018 187.14,-931.354 231.844,-912.378"/>
</g>
<!-- 4175 -->
<g id="node13" class="node"><title>4175</title>
<g id="a_node13"><a xlink:title="3rd_week">
<ellipse fill="#ee9898" stroke="black" cx="1012.46" cy="-457.568" rx="28.6953" ry="18"/>
<text text-anchor="middle" x="1012.46" y="-453.868" font-family="Times,serif" font-size="14.00">4175</text>
</a>
</g>
</g>
<!-- 4175&#45;&gt;22958 -->
<g id="edge1" class="edge"><title>4175&#45;&gt;22958</title>
<path fill="none" stroke="black" d="M995.825,-472.424C962.789,-501.922 888.997,-567.815 852.889,-600.057"/>
</g>
<!-- 4324 -->
<g id="node14" class="node"><title>4324</title>
<g id="a_node14"><a xlink:title="3rd_week">
<ellipse fill="#ee9898" stroke="black" cx="1394.86" cy="-619.552" rx="28.6953" ry="18"/>
<text text-anchor="middle" x="1394.86" y="-615.852" font-family="Times,serif" font-size="14.00">4324</text>
</a>
</g>
</g>
<!-- 24798 -->
<g id="node90" class="node"><title>24798</title>
<g id="a_node90"><a xlink:title="3rd_week">
<ellipse fill="#ee9898" stroke="black" cx="1164.38" cy="-622.937" rx="32.4942" ry="18"/>
<text text-anchor="middle" x="1164.38" y="-619.237" font-family="Times,serif" font-size="14.00">24798</text>
</a>
</g>
</g>
<!-- 4324&#45;&gt;24798 -->
<g id="edge67" class="edge"><title>4324&#45;&gt;24798</title>
<path fill="none" stroke="black" d="M1366.13,-619.974C1323.17,-620.605 1242.42,-621.791 1197.19,-622.455"/>
</g>
<!-- 4333 -->
<g id="node15" class="node"><title>4333</title>
<g id="a_node15"><a xlink:title="3rd_week">
<ellipse fill="#ee9898" stroke="black" cx="223.719" cy="-1246.3" rx="28.6953" ry="18"/>
<text text-anchor="middle" x="223.719" y="-1242.6" font-family="Times,serif" font-size="14.00">4333</text>
</a>
</g>
</g>
<!-- 8451 -->
<g id="node28" class="node"><title>8451</title>
<g id="a_node28"><a xlink:title="3rd_week">
<ellipse fill="#ee9898" stroke="black" cx="392.197" cy="-1071.69" rx="28.6953" ry="18"/>
<text text-anchor="middle" x="392.197" y="-1067.99" font-family="Times,serif" font-size="14.00">8451</text>
</a>
</g>
</g>
<!-- 4333&#45;&gt;8451 -->
<g id="edge84" class="edge"><title>4333&#45;&gt;8451</title>
<path fill="none" stroke="black" d="M238.67,-1230.8C270.642,-1197.67 345.337,-1120.26 377.279,-1087.15"/>
</g>
<!-- 4616 -->
<g id="node16" class="node"><title>4616</title>
<g id="a_node16"><a xlink:title="3rd_week">
<ellipse fill="#ee9898" stroke="black" cx="1218.45" cy="-163.489" rx="28.6953" ry="18"/>
<text text-anchor="middle" x="1218.45" y="-159.789" font-family="Times,serif" font-size="14.00">4616</text>
</a>
</g>
</g>
<!-- 19456 -->
<g id="node67" class="node"><title>19456</title>
<g id="a_node67"><a xlink:title="3rd_week">
<ellipse fill="#ee9898" stroke="black" cx="1087.68" cy="-350.822" rx="32.4942" ry="18"/>
<text text-anchor="middle" x="1087.68" y="-347.122" font-family="Times,serif" font-size="14.00">19456</text>
</a>
</g>
</g>
<!-- 4616&#45;&gt;19456 -->
<g id="edge88" class="edge"><title>4616&#45;&gt;19456</title>
<path fill="none" stroke="black" d="M1206.85,-180.113C1182.09,-215.574 1124.34,-298.3 1099.45,-333.966"/>
</g>
<!-- 4635 -->
<g id="node17" class="node"><title>4635</title>
<g id="a_node17"><a xlink:title="3rd_week">
<ellipse fill="#ee9898" stroke="black" cx="762.87" cy="-446.897" rx="28.6953" ry="18"/>
<text text-anchor="middle" x="762.87" y="-443.197" font-family="Times,serif" font-size="14.00">4635</text>
</a>
</g>
</g>
<!-- 4635&#45;&gt;22958 -->
<g id="edge76" class="edge"><title>4635&#45;&gt;22958</title>
<path fill="none" stroke="black" d="M770.027,-464.62C782.826,-496.312 809.588,-562.582 823.449,-596.904"/>
</g>
<!-- 4841 -->
<g id="node18" class="node"><title>4841</title>
<g id="a_node18"><a xlink:title="3rd_week">
<ellipse fill="#ee9898" stroke="black" cx="1145.19" cy="-538.531" rx="28.6953" ry="18"/>
<text text-anchor="middle" x="1145.19" y="-534.831" font-family="Times,serif" font-size="14.00">4841</text>
</a>
</g>
</g>
<!-- 10125 -->
<g id="node32" class="node"><title>10125</title>
<g id="a_node32"><a xlink:title="3rd_week">
<ellipse fill="#ee9898" stroke="black" cx="1367.09" cy="-477.443" rx="32.4942" ry="18"/>
<text text-anchor="middle" x="1367.09" y="-473.743" font-family="Times,serif" font-size="14.00">10125</text>
</a>
</g>
</g>
<!-- 4841&#45;&gt;10125 -->
<g id="edge19" class="edge"><title>4841&#45;&gt;10125</title>
<path fill="none" stroke="black" d="M1171.52,-531.284C1213.3,-519.78 1294.52,-497.42 1337.99,-485.455"/>
</g>
<!-- 4841&#45;&gt;22958 -->
<g id="edge41" class="edge"><title>4841&#45;&gt;22958</title>
<path fill="none" stroke="black" d="M1118.5,-545.353C1061.59,-559.902 928.374,-593.955 865.791,-609.953"/>
</g>
<!-- 4870 -->
<g id="node19" class="node"><title>4870</title>
<g id="a_node19"><a xlink:title="3rd_week">
<ellipse fill="#ee9898" stroke="black" cx="1608.84" cy="-200.846" rx="28.6953" ry="18"/>
<text text-anchor="middle" x="1608.84" y="-197.146" font-family="Times,serif" font-size="14.00">4870</text>
</a>
</g>
</g>
<!-- 9676 -->
<g id="node30" class="node"><title>9676</title>
<g id="a_node30"><a xlink:title="3rd_week">
<ellipse fill="#ee9898" stroke="black" cx="1395.6" cy="-318.736" rx="28.6953" ry="18"/>
<text text-anchor="middle" x="1395.6" y="-315.036" font-family="Times,serif" font-size="14.00">9676</text>
</a>
</g>
</g>
<!-- 4870&#45;&gt;9676 -->
<g id="edge43" class="edge"><title>4870&#45;&gt;9676</title>
<path fill="none" stroke="black" d="M1587.22,-212.799C1546.35,-235.394 1458.2,-284.132 1417.28,-306.751"/>
</g>
<!-- 5238 -->
<g id="node20" class="node"><title>5238</title>
<g id="a_node20"><a xlink:title="3rd_week">
<ellipse fill="#ee9898" stroke="black" cx="361.151" cy="-284.389" rx="28.6953" ry="18"/>
<text text-anchor="middle" x="361.151" y="-280.689" font-family="Times,serif" font-size="14.00">5238</text>
</a>
</g>
</g>
<!-- 11775 -->
<g id="node38" class="node"><title>11775</title>
<g id="a_node38"><a xlink:title="3rd_week">
<ellipse fill="#ee9898" stroke="black" cx="570.327" cy="-442.979" rx="32.4942" ry="18"/>
<text text-anchor="middle" x="570.327" y="-439.279" font-family="Times,serif" font-size="14.00">11775</text>
</a>
</g>
</g>
<!-- 5238&#45;&gt;11775 -->
<g id="edge48" class="edge"><title>5238&#45;&gt;11775</title>
<path fill="none" stroke="black" d="M379.714,-298.463C419.109,-328.331 510.75,-397.809 550.898,-428.248"/>
</g>
<!-- 5379 -->
<g id="node21" class="node"><title>5379</title>
<g id="a_node21"><a xlink:title="3rd_week">
<ellipse fill="#ee9898" stroke="black" cx="871.685" cy="-399.577" rx="28.6953" ry="18"/>
<text text-anchor="middle" x="871.685" y="-395.877" font-family="Times,serif" font-size="14.00">5379</text>
</a>
</g>
</g>
<!-- 5379&#45;&gt;22958 -->
<g id="edge32" class="edge"><title>5379&#45;&gt;22958</title>
<path fill="none" stroke="black" d="M868.453,-417.495C861.267,-457.33 843.987,-553.13 836.159,-596.523"/>
</g>
<!-- 6731 -->
<g id="node22" class="node"><title>6731</title>
<g id="a_node22"><a xlink:title="3rd_week">
<ellipse fill="#ee9898" stroke="black" cx="868.979" cy="-456.987" rx="28.6953" ry="18"/>
<text text-anchor="middle" x="868.979" y="-453.287" font-family="Times,serif" font-size="14.00">6731</text>
</a>
</g>
</g>
<!-- 6731&#45;&gt;22958 -->
<g id="edge79" class="edge"><title>6731&#45;&gt;22958</title>
<path fill="none" stroke="black" d="M864.901,-474.894C858.11,-504.716 844.504,-564.457 837.161,-596.703"/>
</g>
<!-- 7157 -->
<g id="node25" class="node"><title>7157</title>
<g id="a_node25"><a xlink:title="3rd_week">
<ellipse fill="#ee9898" stroke="black" cx="966.372" cy="-697.316" rx="28.6953" ry="18"/>
<text text-anchor="middle" x="966.372" y="-693.616" font-family="Times,serif" font-size="14.00">7157</text>
</a>
</g>
</g>
<!-- 7157&#45;&gt;22958 -->
<g id="edge74" class="edge"><title>7157&#45;&gt;22958</title>
<path fill="none" stroke="black" d="M945.406,-685.008C921.966,-671.247 883.968,-648.941 858.538,-634.012"/>
</g>
<!-- 7421 -->
<g id="node26" class="node"><title>7421</title>
<g id="a_node26"><a xlink:title="3rd_week">
<ellipse fill="#ee9898" stroke="black" cx="885.797" cy="-935.204" rx="28.6953" ry="18"/>
<text text-anchor="middle" x="885.797" y="-931.504" font-family="Times,serif" font-size="14.00">7421</text>
</a>
</g>
</g>
<!-- 7421&#45;&gt;22958 -->
<g id="edge13" class="edge"><title>7421&#45;&gt;22958</title>
<path fill="none" stroke="black" d="M882.761,-917.271C873.569,-862.975 846.052,-700.437 835.955,-640.8"/>
</g>
<!-- 24572 -->
<g id="node88" class="node"><title>24572</title>
<g id="a_node88"><a xlink:title="3rd_week">
<ellipse fill="#ee9898" stroke="black" cx="909.54" cy="-1154.07" rx="32.4942" ry="18"/>
<text text-anchor="middle" x="909.54" y="-1150.37" font-family="Times,serif" font-size="14.00">24572</text>
</a>
</g>
</g>
<!-- 7421&#45;&gt;24572 -->
<g id="edge34" class="edge"><title>7421&#45;&gt;24572</title>
<path fill="none" stroke="black" d="M887.78,-953.487C892.261,-994.787 903.119,-1094.88 907.579,-1135.99"/>
</g>
<!-- 14710 -->
<g id="node51" class="node"><title>14710</title>
<g id="a_node51"><a xlink:title="6th_week">
<ellipse fill="#c81d25" stroke="black" cx="1629.34" cy="-1870.49" rx="32.4942" ry="18"/>
<text text-anchor="middle" x="1629.34" y="-1866.79" font-family="Times,serif" font-size="14.00">14710</text>
</a>
</g>
</g>
<!-- 8339&#45;&gt;14710 -->
<g id="edge38" class="edge"><title>8339&#45;&gt;14710</title>
<path fill="none" stroke="black" d="M1528.28,-1712.59C1549.54,-1745.8 1596.83,-1819.69 1618.33,-1853.28"/>
</g>
<!-- 19031 -->
<g id="node66" class="node"><title>19031</title>
<g id="a_node66"><a xlink:title="3rd_week">
<ellipse fill="#ee9898" stroke="black" cx="580.384" cy="-880.527" rx="32.4942" ry="18"/>
<text text-anchor="middle" x="580.384" y="-876.827" font-family="Times,serif" font-size="14.00">19031</text>
</a>
</g>
</g>
<!-- 8451&#45;&gt;19031 -->
<g id="edge2" class="edge"><title>8451&#45;&gt;19031</title>
<path fill="none" stroke="black" d="M407.279,-1056.37C442.341,-1020.76 529.059,-932.665 564.702,-896.458"/>
</g>
<!-- 23696 -->
<g id="node84" class="node"><title>23696</title>
<g id="a_node84"><a xlink:title="3rd_week">
<ellipse fill="#ee9898" stroke="black" cx="1156.67" cy="-449.019" rx="32.4942" ry="18"/>
<text text-anchor="middle" x="1156.67" y="-445.319" font-family="Times,serif" font-size="14.00">23696</text>
</a>
</g>
</g>
<!-- 9676&#45;&gt;23696 -->
<g id="edge87" class="edge"><title>9676&#45;&gt;23696</title>
<path fill="none" stroke="black" d="M1373.98,-330.527C1329.18,-354.956 1226.54,-410.92 1180.17,-436.203"/>
</g>
<!-- 9753 -->
<g id="node31" class="node"><title>9753</title>
<g id="a_node31"><a xlink:title="3rd_week">
<ellipse fill="#ee9898" stroke="black" cx="1026.13" cy="-581.751" rx="28.6953" ry="18"/>
<text text-anchor="middle" x="1026.13" y="-578.051" font-family="Times,serif" font-size="14.00">9753</text>
</a>
</g>
</g>
<!-- 9753&#45;&gt;22958 -->
<g id="edge90" class="edge"><title>9753&#45;&gt;22958</title>
<path fill="none" stroke="black" d="M998.345,-587.022C963.78,-593.579 904.746,-604.778 867.144,-611.911"/>
</g>
<!-- 10477 -->
<g id="node33" class="node"><title>10477</title>
<g id="a_node33"><a xlink:title="3rd_week">
<ellipse fill="#ee9898" stroke="black" cx="681.482" cy="-351.395" rx="32.4942" ry="18"/>
<text text-anchor="middle" x="681.482" y="-347.695" font-family="Times,serif" font-size="14.00">10477</text>
</a>
</g>
</g>
<!-- 11376 -->
<g id="node36" class="node"><title>11376</title>
<g id="a_node36"><a xlink:title="3rd_week">
<ellipse fill="#ee9898" stroke="black" cx="542.588" cy="-125.483" rx="32.4942" ry="18"/>
<text text-anchor="middle" x="542.588" y="-121.783" font-family="Times,serif" font-size="14.00">11376</text>
</a>
</g>
</g>
<!-- 10477&#45;&gt;11376 -->
<g id="edge85" class="edge"><title>10477&#45;&gt;11376</title>
<path fill="none" stroke="black" d="M670.814,-334.044C644.896,-291.889 578.86,-184.48 553.103,-142.585"/>
</g>
<!-- 10477&#45;&gt;22958 -->
<g id="edge73" class="edge"><title>10477&#45;&gt;22958</title>
<path fill="none" stroke="black" d="M691.37,-368.924C718.087,-416.284 791.644,-546.674 820.424,-597.691"/>
</g>
<!-- 10749 -->
<g id="node34" class="node"><title>10749</title>
<g id="a_node34"><a xlink:title="3rd_week">
<ellipse fill="#ee9898" stroke="black" cx="629.3" cy="-530.375" rx="32.4942" ry="18"/>
<text text-anchor="middle" x="629.3" y="-526.675" font-family="Times,serif" font-size="14.00">10749</text>
</a>
</g>
</g>
<!-- 10749&#45;&gt;22958 -->
<g id="edge47" class="edge"><title>10749&#45;&gt;22958</title>
<path fill="none" stroke="black" d="M654.996,-541.542C692.636,-557.899 762.601,-588.303 802.426,-605.609"/>
</g>
<!-- 11233 -->
<g id="node35" class="node"><title>11233</title>
<g id="a_node35"><a xlink:title="3rd_week">
<ellipse fill="#ee9898" stroke="black" cx="461.184" cy="-608.054" rx="32.4942" ry="18"/>
<text text-anchor="middle" x="461.184" y="-604.354" font-family="Times,serif" font-size="14.00">11233</text>
</a>
</g>
</g>
<!-- 11438 -->
<g id="node37" class="node"><title>11438</title>
<g id="a_node37"><a xlink:title="3rd_week">
<ellipse fill="#ee9898" stroke="black" cx="231.57" cy="-565.406" rx="32.4942" ry="18"/>
<text text-anchor="middle" x="231.57" y="-561.706" font-family="Times,serif" font-size="14.00">11438</text>
</a>
</g>
</g>
<!-- 11233&#45;&gt;11438 -->
<g id="edge75" class="edge"><title>11233&#45;&gt;11438</title>
<path fill="none" stroke="black" d="M430.217,-602.303C386.271,-594.14 306.289,-579.284 262.412,-571.135"/>
</g>
<!-- 14854 -->
<g id="node54" class="node"><title>14854</title>
<g id="a_node54"><a xlink:title="3rd_week">
<ellipse fill="#ee9898" stroke="black" cx="229.106" cy="-634.486" rx="32.4942" ry="18"/>
<text text-anchor="middle" x="229.106" y="-630.786" font-family="Times,serif" font-size="14.00">14854</text>
</a>
</g>
</g>
<!-- 11233&#45;&gt;14854 -->
<g id="edge72" class="edge"><title>11233&#45;&gt;14854</title>
<path fill="none" stroke="black" d="M428.915,-611.73C384.575,-616.779 305.296,-625.809 261.102,-630.842"/>
</g>
<!-- 11233&#45;&gt;22958 -->
<g id="edge66" class="edge"><title>11233&#45;&gt;22958</title>
<path fill="none" stroke="black" d="M493.783,-608.976C562.831,-610.928 723.405,-615.467 795.726,-617.512"/>
</g>
<!-- 11775&#45;&gt;22958 -->
<g id="edge58" class="edge"><title>11775&#45;&gt;22958</title>
<path fill="none" stroke="black" d="M591.314,-457.049C639.253,-489.19 756.588,-567.857 807.711,-602.133"/>
</g>
<!-- 12384 -->
<g id="node40" class="node"><title>12384</title>
<g id="a_node40"><a xlink:title="3rd_week">
<ellipse fill="#ee9898" stroke="black" cx="821.882" cy="-876.402" rx="32.4942" ry="18"/>
<text text-anchor="middle" x="821.882" y="-872.702" font-family="Times,serif" font-size="14.00">12384</text>
</a>
</g>
</g>
<!-- 12384&#45;&gt;22958 -->
<g id="edge52" class="edge"><title>12384&#45;&gt;22958</title>
<path fill="none" stroke="black" d="M822.607,-858.27C824.449,-812.186 829.304,-690.683 831.306,-640.602"/>
</g>
<!-- 12525 -->
<g id="node41" class="node"><title>12525</title>
<g id="a_node41"><a xlink:title="3rd_week">
<ellipse fill="#ee9898" stroke="black" cx="605.434" cy="-377.028" rx="32.4942" ry="18"/>
<text text-anchor="middle" x="605.434" y="-373.328" font-family="Times,serif" font-size="14.00">12525</text>
</a>
</g>
</g>
<!-- 14426 -->
<g id="node49" class="node"><title>14426</title>
<g id="a_node49"><a xlink:title="3rd_week">
<ellipse fill="#ee9898" stroke="black" cx="447.308" cy="-196.367" rx="32.4942" ry="18"/>
<text text-anchor="middle" x="447.308" y="-192.667" font-family="Times,serif" font-size="14.00">14426</text>
</a>
</g>
</g>
<!-- 12525&#45;&gt;14426 -->
<g id="edge12" class="edge"><title>12525&#45;&gt;14426</title>
<path fill="none" stroke="black" d="M591.123,-360.677C561.093,-326.368 491.802,-247.201 461.701,-212.811"/>
</g>
<!-- 12525&#45;&gt;22958 -->
<g id="edge57" class="edge"><title>12525&#45;&gt;22958</title>
<path fill="none" stroke="black" d="M620.664,-393.249C660.979,-436.189 770.363,-552.693 813.926,-599.093"/>
</g>
<!-- 12648 -->
<g id="node42" class="node"><title>12648</title>
<g id="a_node42"><a xlink:title="3rd_week">
<ellipse fill="#ee9898" stroke="black" cx="980.28" cy="-847.469" rx="32.4942" ry="18"/>
<text text-anchor="middle" x="980.28" y="-843.769" font-family="Times,serif" font-size="14.00">12648</text>
</a>
</g>
</g>
<!-- 12648&#45;&gt;22958 -->
<g id="edge68" class="edge"><title>12648&#45;&gt;22958</title>
<path fill="none" stroke="black" d="M969.149,-830.262C942.376,-788.877 874.466,-683.898 845.552,-639.202"/>
</g>
<!-- 12770 -->
<g id="node43" class="node"><title>12770</title>
<g id="a_node43"><a xlink:title="3rd_week">
<ellipse fill="#ee9898" stroke="black" cx="691.09" cy="-20.8558" rx="32.4942" ry="18"/>
<text text-anchor="middle" x="691.09" y="-17.1558" font-family="Times,serif" font-size="14.00">12770</text>
</a>
</g>
</g>
<!-- 17774 -->
<g id="node60" class="node"><title>17774</title>
<g id="a_node60"><a xlink:title="3rd_week">
<ellipse fill="#ee9898" stroke="black" cx="725.259" cy="-257.235" rx="32.4942" ry="18"/>
<text text-anchor="middle" x="725.259" y="-253.535" font-family="Times,serif" font-size="14.00">17774</text>
</a>
</g>
</g>
<!-- 12770&#45;&gt;17774 -->
<g id="edge4" class="edge"><title>12770&#45;&gt;17774</title>
<path fill="none" stroke="black" d="M693.715,-39.0116C700.075,-83.0114 716.256,-194.954 722.626,-239.017"/>
</g>
<!-- 13020 -->
<g id="node44" class="node"><title>13020</title>
<g id="a_node44"><a xlink:title="3rd_week">
<ellipse fill="#ee9898" stroke="black" cx="1029.03" cy="-27.7389" rx="32.4942" ry="18"/>
<text text-anchor="middle" x="1029.03" y="-24.0389" font-family="Times,serif" font-size="14.00">13020</text>
</a>
</g>
</g>
<!-- 20672 -->
<g id="node73" class="node"><title>20672</title>
<g id="a_node73"><a xlink:title="3rd_week">
<ellipse fill="#ee9898" stroke="black" cx="980.396" cy="-277.544" rx="32.4942" ry="18"/>
<text text-anchor="middle" x="980.396" y="-273.844" font-family="Times,serif" font-size="14.00">20672</text>
</a>
</g>
</g>
<!-- 13020&#45;&gt;20672 -->
<g id="edge83" class="edge"><title>13020&#45;&gt;20672</title>
<path fill="none" stroke="black" d="M1025.53,-45.7042C1016.58,-91.6832 992.915,-213.238 983.927,-259.405"/>
</g>
<!-- 13133 -->
<g id="node45" class="node"><title>13133</title>
<g id="a_node45"><a xlink:title="3rd_week">
<ellipse fill="#ee9898" stroke="black" cx="607.293" cy="-650.219" rx="32.4942" ry="18"/>
<text text-anchor="middle" x="607.293" y="-646.519" font-family="Times,serif" font-size="14.00">13133</text>
</a>
</g>
</g>
<!-- 13133&#45;&gt;22958 -->
<g id="edge14" class="edge"><title>13133&#45;&gt;22958</title>
<path fill="none" stroke="black" d="M639.038,-645.748C680.568,-639.898 753.138,-629.677 796.522,-623.566"/>
</g>
<!-- 13694 -->
<g id="node46" class="node"><title>13694</title>
<g id="a_node46"><a xlink:title="3rd_week">
<ellipse fill="#ee9898" stroke="black" cx="902.851" cy="-17.7624" rx="32.4942" ry="18"/>
<text text-anchor="middle" x="902.851" y="-14.0624" font-family="Times,serif" font-size="14.00">13694</text>
</a>
</g>
</g>
<!-- 13694&#45;&gt;21913 -->
<g id="edge25" class="edge"><title>13694&#45;&gt;21913</title>
<path fill="none" stroke="black" d="M899.144,-35.9387C890.314,-79.24 868.116,-188.093 859.304,-231.309"/>
</g>
<!-- 13730 -->
<g id="node47" class="node"><title>13730</title>
<g id="a_node47"><a xlink:title="3rd_week">
<ellipse fill="#ee9898" stroke="black" cx="508.574" cy="-786.106" rx="32.4942" ry="18"/>
<text text-anchor="middle" x="508.574" y="-782.406" font-family="Times,serif" font-size="14.00">13730</text>
</a>
</g>
</g>
<!-- 13730&#45;&gt;14742 -->
<g id="edge49" class="edge"><title>13730&#45;&gt;14742</title>
<path fill="none" stroke="black" d="M483.139,-797.795C434.932,-819.95 330.807,-867.804 282.838,-889.85"/>
</g>
<!-- 13730&#45;&gt;22958 -->
<g id="edge59" class="edge"><title>13730&#45;&gt;22958</title>
<path fill="none" stroke="black" d="M532.37,-773.785C590.902,-743.477 741.659,-665.417 804.275,-632.995"/>
</g>
<!-- 13811 -->
<g id="node48" class="node"><title>13811</title>
<g id="a_node48"><a xlink:title="3rd_week">
<ellipse fill="#ee9898" stroke="black" cx="1063.95" cy="-638.78" rx="32.4942" ry="18"/>
<text text-anchor="middle" x="1063.95" y="-635.08" font-family="Times,serif" font-size="14.00">13811</text>
</a>
</g>
</g>
<!-- 13811&#45;&gt;22958 -->
<g id="edge36" class="edge"><title>13811&#45;&gt;22958</title>
<path fill="none" stroke="black" d="M1031.72,-635.966C988.812,-632.219 913.132,-625.611 868.328,-621.698"/>
</g>
<!-- 14575 -->
<g id="node50" class="node"><title>14575</title>
<g id="a_node50"><a xlink:title="3rd_week">
<ellipse fill="#ee9898" stroke="black" cx="942.168" cy="-410.864" rx="32.4942" ry="18"/>
<text text-anchor="middle" x="942.168" y="-407.164" font-family="Times,serif" font-size="14.00">14575</text>
</a>
</g>
</g>
<!-- 14575&#45;&gt;22958 -->
<g id="edge30" class="edge"><title>14575&#45;&gt;22958</title>
<path fill="none" stroke="black" d="M932.98,-428.213C912.898,-466.136 865.149,-556.3 843.366,-597.433"/>
</g>
<!-- 14922&#45;&gt;22958 -->
<g id="edge35" class="edge"><title>14922&#45;&gt;22958</title>
<path fill="none" stroke="black" d="M1102.96,-1042.18C1058.89,-973.223 893.523,-714.504 845.401,-639.216"/>
</g>
<!-- 15490 -->
<g id="node56" class="node"><title>15490</title>
<g id="a_node56"><a xlink:title="3rd_week">
<ellipse fill="#ee9898" stroke="black" cx="622.303" cy="-734.123" rx="32.4942" ry="18"/>
<text text-anchor="middle" x="622.303" y="-730.423" font-family="Times,serif" font-size="14.00">15490</text>
</a>
</g>
</g>
<!-- 15490&#45;&gt;22958 -->
<g id="edge65" class="edge"><title>15490&#45;&gt;22958</title>
<path fill="none" stroke="black" d="M645.566,-721.312C684.736,-699.742 763.638,-656.292 805.186,-633.411"/>
</g>
<!-- 17402 -->
<g id="node58" class="node"><title>17402</title>
<g id="a_node58"><a xlink:title="3rd_week">
<ellipse fill="#ee9898" stroke="black" cx="715.359" cy="-1165.48" rx="32.4942" ry="18"/>
<text text-anchor="middle" x="715.359" y="-1161.78" font-family="Times,serif" font-size="14.00">17402</text>
</a>
</g>
</g>
<!-- 22573 -->
<g id="node80" class="node"><title>22573</title>
<g id="a_node80"><a xlink:title="3rd_week">
<ellipse fill="#ee9898" stroke="black" cx="767.235" cy="-941.977" rx="32.4942" ry="18"/>
<text text-anchor="middle" x="767.235" y="-938.277" font-family="Times,serif" font-size="14.00">22573</text>
</a>
</g>
</g>
<!-- 17402&#45;&gt;22573 -->
<g id="edge44" class="edge"><title>17402&#45;&gt;22573</title>
<path fill="none" stroke="black" d="M719.517,-1147.57C729.23,-1105.72 753.325,-1001.91 763.057,-959.975"/>
</g>
<!-- 17513 -->
<g id="node59" class="node"><title>17513</title>
<g id="a_node59"><a xlink:title="3rd_week">
<ellipse fill="#ee9898" stroke="black" cx="559.764" cy="-1110.05" rx="32.4942" ry="18"/>
<text text-anchor="middle" x="559.764" y="-1106.35" font-family="Times,serif" font-size="14.00">17513</text>
</a>
</g>
</g>
<!-- 17824 -->
<g id="node61" class="node"><title>17824</title>
<g id="a_node61"><a xlink:title="3rd_week">
<ellipse fill="#ee9898" stroke="black" cx="673.132" cy="-908.748" rx="32.4942" ry="18"/>
<text text-anchor="middle" x="673.132" y="-905.048" font-family="Times,serif" font-size="14.00">17824</text>
</a>
</g>
</g>
<!-- 17513&#45;&gt;17824 -->
<g id="edge80" class="edge"><title>17513&#45;&gt;17824</title>
<path fill="none" stroke="black" d="M569.627,-1092.54C591.121,-1054.37 641.974,-964.074 663.373,-926.076"/>
</g>
<!-- 20123 -->
<g id="node71" class="node"><title>20123</title>
<g id="a_node71"><a xlink:title="3rd_week">
<ellipse fill="#ee9898" stroke="black" cx="615.19" cy="-42.165" rx="32.4942" ry="18"/>
<text text-anchor="middle" x="615.19" y="-38.465" font-family="Times,serif" font-size="14.00">20123</text>
</a>
</g>
</g>
<!-- 17774&#45;&gt;20123 -->
<g id="edge39" class="edge"><title>17774&#45;&gt;20123</title>
<path fill="none" stroke="black" d="M716.252,-239.635C695.56,-199.205 644.83,-100.08 624.167,-59.7066"/>
</g>
<!-- 17774&#45;&gt;22958 -->
<g id="edge18" class="edge"><title>17774&#45;&gt;22958</title>
<path fill="none" stroke="black" d="M730.562,-275.152C748.387,-335.384 806.124,-530.477 825.658,-596.482"/>
</g>
<!-- 17824&#45;&gt;22958 -->
<g id="edge61" class="edge"><title>17824&#45;&gt;22958</title>
<path fill="none" stroke="black" d="M682.605,-891.463C710.226,-841.068 790.615,-694.393 820.67,-639.556"/>
</g>
<!-- 18129 -->
<g id="node62" class="node"><title>18129</title>
<g id="a_node62"><a xlink:title="3rd_week">
<ellipse fill="#ee9898" stroke="black" cx="781.569" cy="-376.235" rx="32.4942" ry="18"/>
<text text-anchor="middle" x="781.569" y="-372.535" font-family="Times,serif" font-size="14.00">18129</text>
</a>
</g>
</g>
<!-- 18129&#45;&gt;22958 -->
<g id="edge15" class="edge"><title>18129&#45;&gt;22958</title>
<path fill="none" stroke="black" d="M785.374,-394.447C794.525,-438.252 817.736,-549.367 827.619,-596.676"/>
</g>
<!-- 18453 -->
<g id="node63" class="node"><title>18453</title>
<g id="a_node63"><a xlink:title="3rd_week">
<ellipse fill="#ee9898" stroke="black" cx="1373.98" cy="-770.35" rx="32.4942" ry="18"/>
<text text-anchor="middle" x="1373.98" y="-766.65" font-family="Times,serif" font-size="14.00">18453</text>
</a>
</g>
</g>
<!-- 19540 -->
<g id="node68" class="node"><title>19540</title>
<g id="a_node68"><a xlink:title="3rd_week">
<ellipse fill="#ee9898" stroke="black" cx="1148.21" cy="-713.519" rx="32.4942" ry="18"/>
<text text-anchor="middle" x="1148.21" y="-709.819" font-family="Times,serif" font-size="14.00">19540</text>
</a>
</g>
</g>
<!-- 18453&#45;&gt;19540 -->
<g id="edge22" class="edge"><title>18453&#45;&gt;19540</title>
<path fill="none" stroke="black" d="M1344,-762.803C1300.7,-751.903 1221.13,-731.873 1177.96,-721.006"/>
</g>
<!-- 18639 -->
<g id="node64" class="node"><title>18639</title>
<g id="a_node64"><a xlink:title="3rd_week">
<ellipse fill="#ee9898" stroke="black" cx="1271.76" cy="-208.68" rx="32.4942" ry="18"/>
<text text-anchor="middle" x="1271.76" y="-204.98" font-family="Times,serif" font-size="14.00">18639</text>
</a>
</g>
</g>
<!-- 18639&#45;&gt;19456 -->
<g id="edge46" class="edge"><title>18639&#45;&gt;19456</title>
<path fill="none" stroke="black" d="M1252.75,-223.356C1217.48,-250.594 1142.26,-308.675 1106.86,-336.013"/>
</g>
<!-- 18826 -->
<g id="node65" class="node"><title>18826</title>
<g id="a_node65"><a xlink:title="3rd_week">
<ellipse fill="#ee9898" stroke="black" cx="692.324" cy="-461.367" rx="32.4942" ry="18"/>
<text text-anchor="middle" x="692.324" y="-457.667" font-family="Times,serif" font-size="14.00">18826</text>
</a>
</g>
</g>
<!-- 18826&#45;&gt;22958 -->
<g id="edge37" class="edge"><title>18826&#45;&gt;22958</title>
<path fill="none" stroke="black" d="M706.765,-477.596C732.659,-506.695 786.881,-567.628 814.781,-598.982"/>
</g>
<!-- 19031&#45;&gt;22958 -->
<g id="edge89" class="edge"><title>19031&#45;&gt;22958</title>
<path fill="none" stroke="black" d="M595.756,-864.533C639.749,-818.762 766.035,-687.37 813.687,-637.79"/>
</g>
<!-- 19456&#45;&gt;22958 -->
<g id="edge9" class="edge"><title>19456&#45;&gt;22958</title>
<path fill="none" stroke="black" d="M1072.46,-366.768C1028.09,-413.259 898.965,-548.569 850.687,-599.158"/>
</g>
<!-- 19540&#45;&gt;22958 -->
<g id="edge31" class="edge"><title>19540&#45;&gt;22958</title>
<path fill="none" stroke="black" d="M1119.61,-704.923C1060.96,-687.297 927.38,-647.151 865.185,-628.46"/>
</g>
<!-- 19859 -->
<g id="node69" class="node"><title>19859</title>
<g id="a_node69"><a xlink:title="3rd_week">
<ellipse fill="#ee9898" stroke="black" cx="1039.7" cy="-516.798" rx="32.4942" ry="18"/>
<text text-anchor="middle" x="1039.7" y="-513.098" font-family="Times,serif" font-size="14.00">19859</text>
</a>
</g>
</g>
<!-- 19859&#45;&gt;22958 -->
<g id="edge86" class="edge"><title>19859&#45;&gt;22958</title>
<path fill="none" stroke="black" d="M1015.08,-528.869C976.428,-547.819 901.711,-584.454 860.754,-604.536"/>
</g>
<!-- 20052 -->
<g id="node70" class="node"><title>20052</title>
<g id="a_node70"><a xlink:title="3rd_week">
<ellipse fill="#ee9898" stroke="black" cx="1122.79" cy="-69.0445" rx="32.4942" ry="18"/>
<text text-anchor="middle" x="1122.79" y="-65.3445" font-family="Times,serif" font-size="14.00">20052</text>
</a>
</g>
</g>
<!-- 20052&#45;&gt;20672 -->
<g id="edge8" class="edge"><title>20052&#45;&gt;20672</title>
<path fill="none" stroke="black" d="M1111.14,-86.1068C1084.37,-125.301 1018.74,-221.398 992.01,-260.538"/>
</g>
<!-- 20672&#45;&gt;22958 -->
<g id="edge17" class="edge"><title>20672&#45;&gt;22958</title>
<path fill="none" stroke="black" d="M972.637,-295.397C947.562,-353.09 868.762,-534.39 841.544,-597.015"/>
</g>
<!-- 20761 -->
<g id="node75" class="node"><title>20761</title>
<g id="a_node75"><a xlink:title="3rd_week">
<ellipse fill="#ee9898" stroke="black" cx="613.189" cy="-589.299" rx="32.4942" ry="18"/>
<text text-anchor="middle" x="613.189" y="-585.599" font-family="Times,serif" font-size="14.00">20761</text>
</a>
</g>
</g>
<!-- 20761&#45;&gt;22958 -->
<g id="edge62" class="edge"><title>20761&#45;&gt;22958</title>
<path fill="none" stroke="black" d="M645.033,-593.551C685.249,-598.921 754.256,-608.136 796.299,-613.75"/>
</g>
<!-- 21913&#45;&gt;22958 -->
<g id="edge81" class="edge"><title>21913&#45;&gt;22958</title>
<path fill="none" stroke="black" d="M854.468,-267.455C850.573,-328.83 837.849,-529.325 833.59,-596.433"/>
</g>
<!-- 22191 -->
<g id="node77" class="node"><title>22191</title>
<g id="a_node77"><a xlink:title="3rd_week">
<ellipse fill="#ee9898" stroke="black" cx="737.209" cy="-850.516" rx="32.4942" ry="18"/>
<text text-anchor="middle" x="737.209" y="-846.816" font-family="Times,serif" font-size="14.00">22191</text>
</a>
</g>
</g>
<!-- 22191&#45;&gt;22958 -->
<g id="edge29" class="edge"><title>22191&#45;&gt;22958</title>
<path fill="none" stroke="black" d="M744.504,-832.698C761.705,-790.686 804.751,-685.552 823.373,-640.07"/>
</g>
<!-- 22206 -->
<g id="node78" class="node"><title>22206</title>
<g id="a_node78"><a xlink:title="3rd_week">
<ellipse fill="#ee9898" stroke="black" cx="1062.65" cy="-709.623" rx="32.4942" ry="18"/>
<text text-anchor="middle" x="1062.65" y="-705.923" font-family="Times,serif" font-size="14.00">22206</text>
</a>
</g>
</g>
<!-- 22206&#45;&gt;22958 -->
<g id="edge27" class="edge"><title>22206&#45;&gt;22958</title>
<path fill="none" stroke="black" d="M1035.76,-698.997C992.662,-681.963 908.347,-648.641 862.924,-630.69"/>
</g>
<!-- 22447 -->
<g id="node79" class="node"><title>22447</title>
<g id="a_node79"><a xlink:title="3rd_week">
<ellipse fill="#ee9898" stroke="black" cx="300.04" cy="-763.951" rx="32.4942" ry="18"/>
<text text-anchor="middle" x="300.04" y="-760.251" font-family="Times,serif" font-size="14.00">22447</text>
</a>
</g>
</g>
<!-- 24922 -->
<g id="node91" class="node"><title>24922</title>
<g id="a_node91"><a xlink:title="3rd_week">
<ellipse fill="#ee9898" stroke="black" cx="519.992" cy="-702.242" rx="32.4942" ry="18"/>
<text text-anchor="middle" x="519.992" y="-698.542" font-family="Times,serif" font-size="14.00">24922</text>
</a>
</g>
</g>
<!-- 22447&#45;&gt;24922 -->
<g id="edge63" class="edge"><title>22447&#45;&gt;24922</title>
<path fill="none" stroke="black" d="M329.248,-755.757C371.317,-743.954 448.528,-722.292 490.664,-710.47"/>
</g>
<!-- 22573&#45;&gt;22958 -->
<g id="edge6" class="edge"><title>22573&#45;&gt;22958</title>
<path fill="none" stroke="black" d="M770.913,-923.661C782.104,-867.936 815.711,-700.586 827.797,-640.402"/>
</g>
<!-- 22957 -->
<g id="node81" class="node"><title>22957</title>
<g id="a_node81"><a xlink:title="3rd_week">
<ellipse fill="#ee9898" stroke="black" cx="659.722" cy="-794.508" rx="32.4942" ry="18"/>
<text text-anchor="middle" x="659.722" y="-790.808" font-family="Times,serif" font-size="14.00">22957</text>
</a>
</g>
</g>
<!-- 22957&#45;&gt;22958 -->
<g id="edge24" class="edge"><title>22957&#45;&gt;22958</title>
<path fill="none" stroke="black" d="M675.332,-778.581C707.089,-746.18 779.107,-672.7 813.381,-637.731"/>
</g>
<!-- 22958&#45;&gt;23696 -->
<g id="edge71" class="edge"><title>22958&#45;&gt;23696</title>
<path fill="none" stroke="black" d="M859.852,-604.089C922.382,-571.421 1073.74,-492.347 1132.65,-461.571"/>
</g>
<!-- 22958&#45;&gt;24120 -->
<g id="edge77" class="edge"><title>22958&#45;&gt;24120</title>
<path fill="none" stroke="black" d="M801.369,-606.575C732.371,-579.781 566.426,-515.341 501.265,-490.037"/>
</g>
<!-- 24191 -->
<g id="node87" class="node"><title>24191</title>
<g id="a_node87"><a xlink:title="3rd_week">
<ellipse fill="#ee9898" stroke="black" cx="938.182" cy="-797.217" rx="32.4942" ry="18"/>
<text text-anchor="middle" x="938.182" y="-793.517" font-family="Times,serif" font-size="14.00">24191</text>
</a>
</g>
</g>
<!-- 22958&#45;&gt;24191 -->
<g id="edge55" class="edge"><title>22958&#45;&gt;24191</title>
<path fill="none" stroke="black" d="M844.554,-639.389C865.688,-675.014 908.365,-746.955 927.944,-779.959"/>
</g>
<!-- 22958&#45;&gt;24798 -->
<g id="edge5" class="edge"><title>22958&#45;&gt;24798</title>
<path fill="none" stroke="black" d="M868.688,-619.025C933.914,-619.888 1069.47,-621.681 1131.77,-622.506"/>
</g>
<!-- 22958&#45;&gt;24922 -->
<g id="edge10" class="edge"><title>22958&#45;&gt;24922</title>
<path fill="none" stroke="black" d="M798.777,-627.5C737.43,-643.947 607.786,-678.705 549.486,-694.335"/>
</g>
<!-- 23755 -->
<g id="node85" class="node"><title>23755</title>
<g id="a_node85"><a xlink:title="3rd_week">
<ellipse fill="#ee9898" stroke="black" cx="267.667" cy="-353.538" rx="32.4942" ry="18"/>
<text text-anchor="middle" x="267.667" y="-349.838" font-family="Times,serif" font-size="14.00">23755</text>
</a>
</g>
</g>
<!-- 23755&#45;&gt;24120 -->
<g id="edge26" class="edge"><title>23755&#45;&gt;24120</title>
<path fill="none" stroke="black" d="M289.785,-367.027C329.566,-391.288 412.726,-442.003 452.391,-466.193"/>
</g>
</g>
</svg>
