<?xml version="1.0" encoding="UTF-8" standalone="no"?>
<!DOCTYPE svg PUBLIC "-//W3C//DTD SVG 1.1//EN"
 "http://www.w3.org/Graphics/SVG/1.1/DTD/svg11.dtd">
<!-- Generated by graphviz version 2.38.0 (20140413.2041)
 -->
<!-- Title: %3 Pages: 1 -->
<svg width="2176pt" height="1847pt"
 viewBox="0.00 0.00 2176.00 1847.00" xmlns="http://www.w3.org/2000/svg" xmlns:xlink="http://www.w3.org/1999/xlink">
<g id="graph0" class="graph" transform="scale(1 1) rotate(0) translate(4 1843)">
<title>%3</title>
<polygon fill="white" stroke="none" points="-4,4 -4,-1843 2172,-1843 2172,4 -4,4"/>
<!-- 430 -->
<g id="node1" class="node"><title>430</title>
<g id="a_node1"><a xlink:title="Day_0">
<ellipse fill="#e5dada" stroke="black" cx="541.015" cy="-380.272" rx="27" ry="18"/>
<text text-anchor="middle" x="541.015" y="-376.572" font-family="Times,serif" font-size="14.00">430</text>
</a>
</g>
</g>
<!-- 12343 -->
<g id="node20" class="node"><title>12343</title>
<g id="a_node20"><a xlink:title="Day_0">
<ellipse fill="#e5dada" stroke="black" cx="596.888" cy="-609.188" rx="32.4942" ry="18"/>
<text text-anchor="middle" x="596.888" y="-605.488" font-family="Times,serif" font-size="14.00">12343</text>
</a>
</g>
</g>
<!-- 430&#45;&gt;12343 -->
<g id="edge20" class="edge"><title>430&#45;&gt;12343</title>
<path fill="none" stroke="black" d="M545.4,-398.234C555.844,-441.027 582.101,-548.601 592.525,-591.309"/>
</g>
<!-- 14171 -->
<g id="node22" class="node"><title>14171</title>
<g id="a_node22"><a xlink:title="3rd_week">
<ellipse fill="#ee9898" stroke="black" cx="500.956" cy="-195.709" rx="32.4942" ry="18"/>
<text text-anchor="middle" x="500.956" y="-192.009" font-family="Times,serif" font-size="14.00">14171</text>
</a>
</g>
</g>
<!-- 430&#45;&gt;14171 -->
<g id="edge83" class="edge"><title>430&#45;&gt;14171</title>
<path fill="none" stroke="black" d="M537.101,-362.239C529.443,-326.955 512.557,-249.158 504.886,-213.815"/>
</g>
<!-- 456 -->
<g id="node2" class="node"><title>456</title>
<g id="a_node2"><a xlink:title="3rd_week">
<ellipse fill="#ee9898" stroke="black" cx="1251.63" cy="-944.774" rx="27" ry="18"/>
<text text-anchor="middle" x="1251.63" y="-941.074" font-family="Times,serif" font-size="14.00">456</text>
</a>
</g>
</g>
<!-- 4500 -->
<g id="node6" class="node"><title>4500</title>
<g id="a_node6"><a xlink:title="3rd_week">
<ellipse fill="#ee9898" stroke="black" cx="1108.8" cy="-904.969" rx="28.6953" ry="18"/>
<text text-anchor="middle" x="1108.8" y="-901.269" font-family="Times,serif" font-size="14.00">4500</text>
</a>
</g>
</g>
<!-- 456&#45;&gt;4500 -->
<g id="edge67" class="edge"><title>456&#45;&gt;4500</title>
<path fill="none" stroke="black" d="M1226.42,-937.75C1200.8,-930.608 1161.26,-919.588 1135.21,-912.328"/>
</g>
<!-- 2548 -->
<g id="node46" class="node"><title>2548</title>
<g id="a_node46"><a xlink:title="3rd_week">
<ellipse fill="#ee9898" stroke="black" cx="1377.23" cy="-987.301" rx="28.6953" ry="18"/>
<text text-anchor="middle" x="1377.23" y="-983.601" font-family="Times,serif" font-size="14.00">2548</text>
</a>
</g>
</g>
<!-- 456&#45;&gt;2548 -->
<g id="edge34" class="edge"><title>456&#45;&gt;2548</title>
<path fill="none" stroke="black" d="M1275.85,-952.974C1297.66,-960.36 1329.62,-971.178 1351.8,-978.689"/>
</g>
<!-- 1391 -->
<g id="node3" class="node"><title>1391</title>
<g id="a_node3"><a xlink:title="3rd_week">
<ellipse fill="#ee9898" stroke="black" cx="1359.04" cy="-730.925" rx="28.6953" ry="18"/>
<text text-anchor="middle" x="1359.04" y="-727.225" font-family="Times,serif" font-size="14.00">1391</text>
</a>
</g>
</g>
<!-- 3187 -->
<g id="node5" class="node"><title>3187</title>
<g id="a_node5"><a xlink:title="3rd_week">
<ellipse fill="#ee9898" stroke="black" cx="1572.11" cy="-777.934" rx="28.6953" ry="18"/>
<text text-anchor="middle" x="1572.11" y="-774.234" font-family="Times,serif" font-size="14.00">3187</text>
</a>
</g>
</g>
<!-- 1391&#45;&gt;3187 -->
<g id="edge87" class="edge"><title>1391&#45;&gt;3187</title>
<path fill="none" stroke="black" d="M1386.46,-736.975C1427.37,-746.001 1503.94,-762.895 1544.79,-771.908"/>
</g>
<!-- 1391&#45;&gt;4500 -->
<g id="edge19" class="edge"><title>1391&#45;&gt;4500</title>
<path fill="none" stroke="black" d="M1339.82,-744.293C1293.24,-776.69 1174.74,-859.112 1128.09,-891.555"/>
</g>
<!-- 5675 -->
<g id="node7" class="node"><title>5675</title>
<g id="a_node7"><a xlink:title="3rd_week">
<ellipse fill="#ee9898" stroke="black" cx="1495.51" cy="-719.571" rx="28.6953" ry="18"/>
<text text-anchor="middle" x="1495.51" y="-715.871" font-family="Times,serif" font-size="14.00">5675</text>
</a>
</g>
</g>
<!-- 1391&#45;&gt;5675 -->
<g id="edge1" class="edge"><title>1391&#45;&gt;5675</title>
<path fill="none" stroke="black" d="M1387.65,-728.545C1410.94,-726.607 1443.66,-723.885 1466.94,-721.948"/>
</g>
<!-- 9792 -->
<g id="node12" class="node"><title>9792</title>
<g id="a_node12"><a xlink:title="3rd_week">
<ellipse fill="#ee9898" stroke="black" cx="1590.26" cy="-639.247" rx="28.6953" ry="18"/>
<text text-anchor="middle" x="1590.26" y="-635.547" font-family="Times,serif" font-size="14.00">9792</text>
</a>
</g>
</g>
<!-- 1391&#45;&gt;9792 -->
<g id="edge73" class="edge"><title>1391&#45;&gt;9792</title>
<path fill="none" stroke="black" d="M1383.35,-721.287C1427.76,-703.68 1521.51,-666.507 1565.93,-648.893"/>
</g>
<!-- 16267 -->
<g id="node26" class="node"><title>16267</title>
<g id="a_node26"><a xlink:title="3rd_week">
<ellipse fill="#ee9898" stroke="black" cx="1511.16" cy="-550.879" rx="32.4942" ry="18"/>
<text text-anchor="middle" x="1511.16" y="-547.179" font-family="Times,serif" font-size="14.00">16267</text>
</a>
</g>
</g>
<!-- 1391&#45;&gt;16267 -->
<g id="edge62" class="edge"><title>1391&#45;&gt;16267</title>
<path fill="none" stroke="black" d="M1372.54,-714.947C1401.26,-680.953 1468.17,-601.759 1497.25,-567.34"/>
</g>
<!-- 28377 -->
<g id="node38" class="node"><title>28377</title>
<g id="a_node38"><a xlink:title="Day_0">
<ellipse fill="#e5dada" stroke="black" cx="1318.84" cy="-605.759" rx="32.4942" ry="18"/>
<text text-anchor="middle" x="1318.84" y="-602.059" font-family="Times,serif" font-size="14.00">28377</text>
</a>
</g>
</g>
<!-- 1391&#45;&gt;28377 -->
<g id="edge35" class="edge"><title>1391&#45;&gt;28377</title>
<path fill="none" stroke="black" d="M1353.37,-713.258C1345.75,-689.537 1332.29,-647.623 1324.62,-623.742"/>
</g>
<!-- 31369 -->
<g id="node41" class="node"><title>31369</title>
<g id="a_node41"><a xlink:title="3rd_week">
<ellipse fill="#ee9898" stroke="black" cx="1345.81" cy="-530.405" rx="32.4942" ry="18"/>
<text text-anchor="middle" x="1345.81" y="-526.705" font-family="Times,serif" font-size="14.00">31369</text>
</a>
</g>
</g>
<!-- 1391&#45;&gt;31369 -->
<g id="edge86" class="edge"><title>1391&#45;&gt;31369</title>
<path fill="none" stroke="black" d="M1357.85,-712.777C1355.33,-674.696 1349.53,-586.827 1347.01,-548.657"/>
</g>
<!-- 32472 -->
<g id="node44" class="node"><title>32472</title>
<g id="a_node44"><a xlink:title="3rd_week">
<ellipse fill="#ee9898" stroke="black" cx="1436.66" cy="-586.42" rx="32.4942" ry="18"/>
<text text-anchor="middle" x="1436.66" y="-582.72" font-family="Times,serif" font-size="14.00">32472</text>
</a>
</g>
</g>
<!-- 1391&#45;&gt;32472 -->
<g id="edge91" class="edge"><title>1391&#45;&gt;32472</title>
<path fill="none" stroke="black" d="M1368.25,-713.781C1383.11,-686.12 1412.22,-631.926 1427.23,-603.993"/>
</g>
<!-- 1959 -->
<g id="node4" class="node"><title>1959</title>
<g id="a_node4"><a xlink:title="3rd_week">
<ellipse fill="#ee9898" stroke="black" cx="653.082" cy="-389.794" rx="28.6953" ry="18"/>
<text text-anchor="middle" x="653.082" y="-386.094" font-family="Times,serif" font-size="14.00">1959</text>
</a>
</g>
</g>
<!-- 25341 -->
<g id="node33" class="node"><title>25341</title>
<g id="a_node33"><a xlink:title="3rd_week">
<ellipse fill="#ee9898" stroke="black" cx="626.048" cy="-550.505" rx="32.4942" ry="18"/>
<text text-anchor="middle" x="626.048" y="-546.805" font-family="Times,serif" font-size="14.00">25341</text>
</a>
</g>
</g>
<!-- 1959&#45;&gt;25341 -->
<g id="edge9" class="edge"><title>1959&#45;&gt;25341</title>
<path fill="none" stroke="black" d="M650.033,-407.917C644.841,-438.783 634.339,-501.213 629.127,-532.201"/>
</g>
<!-- 10975 -->
<g id="node15" class="node"><title>10975</title>
<g id="a_node15"><a xlink:title="3rd_week">
<ellipse fill="#ee9898" stroke="black" cx="1684.93" cy="-858.541" rx="32.4942" ry="18"/>
<text text-anchor="middle" x="1684.93" y="-854.841" font-family="Times,serif" font-size="14.00">10975</text>
</a>
</g>
</g>
<!-- 3187&#45;&gt;10975 -->
<g id="edge66" class="edge"><title>3187&#45;&gt;10975</title>
<path fill="none" stroke="black" d="M1591.25,-791.608C1611.74,-806.251 1644.12,-829.383 1664.94,-844.257"/>
</g>
<!-- 32065 -->
<g id="node43" class="node"><title>32065</title>
<g id="a_node43"><a xlink:title="3rd_week">
<ellipse fill="#ee9898" stroke="black" cx="1709.19" cy="-806.989" rx="32.4942" ry="18"/>
<text text-anchor="middle" x="1709.19" y="-803.289" font-family="Times,serif" font-size="14.00">32065</text>
</a>
</g>
</g>
<!-- 3187&#45;&gt;32065 -->
<g id="edge21" class="edge"><title>3187&#45;&gt;32065</title>
<path fill="none" stroke="black" d="M1599.52,-783.744C1622.33,-788.58 1654.8,-795.46 1678.48,-800.481"/>
</g>
<!-- 31463 -->
<g id="node78" class="node"><title>31463</title>
<g id="a_node78"><a xlink:title="3rd_week">
<ellipse fill="#ee9898" stroke="black" cx="1707.38" cy="-749.301" rx="32.4942" ry="18"/>
<text text-anchor="middle" x="1707.38" y="-745.601" font-family="Times,serif" font-size="14.00">31463</text>
</a>
</g>
</g>
<!-- 3187&#45;&gt;31463 -->
<g id="edge14" class="edge"><title>3187&#45;&gt;31463</title>
<path fill="none" stroke="black" d="M1599.48,-772.14C1621.87,-767.401 1653.51,-760.703 1676.74,-755.786"/>
</g>
<!-- 10407 -->
<g id="node13" class="node"><title>10407</title>
<g id="a_node13"><a xlink:title="3rd_week">
<ellipse fill="#ee9898" stroke="black" cx="1185.06" cy="-1007.53" rx="32.4942" ry="18"/>
<text text-anchor="middle" x="1185.06" y="-1003.83" font-family="Times,serif" font-size="14.00">10407</text>
</a>
</g>
</g>
<!-- 4500&#45;&gt;10407 -->
<g id="edge93" class="edge"><title>4500&#45;&gt;10407</title>
<path fill="none" stroke="black" d="M1121.06,-921.447C1135.2,-940.472 1158.35,-971.599 1172.59,-990.751"/>
</g>
<!-- 12036 -->
<g id="node18" class="node"><title>12036</title>
<g id="a_node18"><a xlink:title="3rd_week">
<ellipse fill="#ee9898" stroke="black" cx="1189.61" cy="-1239.61" rx="32.4942" ry="18"/>
<text text-anchor="middle" x="1189.61" y="-1235.91" font-family="Times,serif" font-size="14.00">12036</text>
</a>
</g>
</g>
<!-- 4500&#45;&gt;12036 -->
<g id="edge8" class="edge"><title>4500&#45;&gt;12036</title>
<path fill="none" stroke="black" d="M1113.15,-922.961C1127.18,-981.066 1171.18,-1163.3 1185.24,-1221.53"/>
</g>
<!-- 15435 -->
<g id="node24" class="node"><title>15435</title>
<g id="a_node24"><a xlink:title="PRE">
<ellipse fill="#71a9f7" stroke="black" cx="803.903" cy="-722.914" rx="32.4942" ry="18"/>
<text text-anchor="middle" x="803.903" y="-719.214" font-family="Times,serif" font-size="14.00">15435</text>
</a>
</g>
</g>
<!-- 4500&#45;&gt;15435 -->
<g id="edge48" class="edge"><title>4500&#45;&gt;15435</title>
<path fill="none" stroke="black" d="M1087.85,-892.455C1032.55,-859.438 883.062,-770.179 826.236,-736.249"/>
</g>
<!-- 16556 -->
<g id="node27" class="node"><title>16556</title>
<g id="a_node27"><a xlink:title="3rd_week">
<ellipse fill="#ee9898" stroke="black" cx="1068.85" cy="-1027.95" rx="32.4942" ry="18"/>
<text text-anchor="middle" x="1068.85" y="-1024.25" font-family="Times,serif" font-size="14.00">16556</text>
</a>
</g>
</g>
<!-- 4500&#45;&gt;16556 -->
<g id="edge88" class="edge"><title>4500&#45;&gt;16556</title>
<path fill="none" stroke="black" d="M1103,-922.851C1095.42,-946.166 1082.25,-986.716 1074.67,-1010.04"/>
</g>
<!-- 26169 -->
<g id="node35" class="node"><title>26169</title>
<g id="a_node35"><a xlink:title="3rd_week">
<ellipse fill="#ee9898" stroke="black" cx="1042.63" cy="-806.961" rx="32.4942" ry="18"/>
<text text-anchor="middle" x="1042.63" y="-803.261" font-family="Times,serif" font-size="14.00">26169</text>
</a>
</g>
</g>
<!-- 4500&#45;&gt;26169 -->
<g id="edge26" class="edge"><title>4500&#45;&gt;26169</title>
<path fill="none" stroke="black" d="M1097.58,-888.343C1085.48,-870.43 1066.33,-842.069 1054.13,-823.998"/>
</g>
<!-- 28410 -->
<g id="node39" class="node"><title>28410</title>
<g id="a_node39"><a xlink:title="Day_0">
<ellipse fill="#e5dada" stroke="black" cx="947.788" cy="-1034.87" rx="32.4942" ry="18"/>
<text text-anchor="middle" x="947.788" y="-1031.17" font-family="Times,serif" font-size="14.00">28410</text>
</a>
</g>
</g>
<!-- 4500&#45;&gt;28410 -->
<g id="edge49" class="edge"><title>4500&#45;&gt;28410</title>
<path fill="none" stroke="black" d="M1090.96,-919.367C1060.17,-944.206 997.389,-994.857 966.209,-1020.01"/>
</g>
<!-- 23595 -->
<g id="node50" class="node"><title>23595</title>
<g id="a_node50"><a xlink:title="3rd_week">
<ellipse fill="#ee9898" stroke="black" cx="1151.42" cy="-800.892" rx="32.4942" ry="18"/>
<text text-anchor="middle" x="1151.42" y="-797.192" font-family="Times,serif" font-size="14.00">23595</text>
</a>
</g>
</g>
<!-- 4500&#45;&gt;23595 -->
<g id="edge30" class="edge"><title>4500&#45;&gt;23595</title>
<path fill="none" stroke="black" d="M1116.03,-887.314C1123.87,-868.175 1136.31,-837.806 1144.16,-818.634"/>
</g>
<!-- 6821 -->
<g id="node8" class="node"><title>6821</title>
<g id="a_node8"><a xlink:title="3rd_week">
<ellipse fill="#ee9898" stroke="black" cx="1323.71" cy="-1313.44" rx="28.6953" ry="18"/>
<text text-anchor="middle" x="1323.71" y="-1309.74" font-family="Times,serif" font-size="14.00">6821</text>
</a>
</g>
</g>
<!-- 6821&#45;&gt;12036 -->
<g id="edge6" class="edge"><title>6821&#45;&gt;12036</title>
<path fill="none" stroke="black" d="M1302.16,-1301.58C1277.73,-1288.13 1238.04,-1266.28 1212.9,-1252.44"/>
</g>
<!-- 27276 -->
<g id="node36" class="node"><title>27276</title>
<g id="a_node36"><a xlink:title="3rd_week">
<ellipse fill="#ee9898" stroke="black" cx="1455.09" cy="-1427.35" rx="32.4942" ry="18"/>
<text text-anchor="middle" x="1455.09" y="-1423.65" font-family="Times,serif" font-size="14.00">27276</text>
</a>
</g>
</g>
<!-- 6821&#45;&gt;27276 -->
<g id="edge31" class="edge"><title>6821&#45;&gt;27276</title>
<path fill="none" stroke="black" d="M1340.62,-1328.1C1365.57,-1349.73 1412.02,-1390.01 1437.41,-1412.02"/>
</g>
<!-- 8186 -->
<g id="node9" class="node"><title>8186</title>
<g id="a_node9"><a xlink:title="3rd_week">
<ellipse fill="#ee9898" stroke="black" cx="1398.65" cy="-386.16" rx="28.6953" ry="18"/>
<text text-anchor="middle" x="1398.65" y="-382.46" font-family="Times,serif" font-size="14.00">8186</text>
</a>
</g>
</g>
<!-- 8186&#45;&gt;31369 -->
<g id="edge92" class="edge"><title>8186&#45;&gt;31369</title>
<path fill="none" stroke="black" d="M1392.17,-403.847C1382.03,-431.532 1362.51,-484.8 1352.34,-512.573"/>
</g>
<!-- 8960 -->
<g id="node10" class="node"><title>8960</title>
<g id="a_node10"><a xlink:title="3rd_week">
<ellipse fill="#ee9898" stroke="black" cx="539.117" cy="-28.0035" rx="28.6953" ry="18"/>
<text text-anchor="middle" x="539.117" y="-24.3035" font-family="Times,serif" font-size="14.00">8960</text>
</a>
</g>
</g>
<!-- 8960&#45;&gt;14171 -->
<g id="edge82" class="edge"><title>8960&#45;&gt;14171</title>
<path fill="none" stroke="black" d="M535.033,-45.9509C527.707,-78.1451 512.415,-145.353 505.069,-177.637"/>
</g>
<!-- 9483 -->
<g id="node11" class="node"><title>9483</title>
<g id="a_node11"><a xlink:title="3rd_week">
<ellipse fill="#ee9898" stroke="black" cx="511.52" cy="-441.174" rx="28.6953" ry="18"/>
<text text-anchor="middle" x="511.52" y="-437.474" font-family="Times,serif" font-size="14.00">9483</text>
</a>
</g>
</g>
<!-- 9483&#45;&gt;25341 -->
<g id="edge79" class="edge"><title>9483&#45;&gt;25341</title>
<path fill="none" stroke="black" d="M527.445,-456.376C549.08,-477.029 587.572,-513.775 609.517,-534.724"/>
</g>
<!-- 28950 -->
<g id="node40" class="node"><title>28950</title>
<g id="a_node40"><a xlink:title="Day_0">
<ellipse fill="#e5dada" stroke="black" cx="1797.24" cy="-553.98" rx="32.4942" ry="18"/>
<text text-anchor="middle" x="1797.24" y="-550.28" font-family="Times,serif" font-size="14.00">28950</text>
</a>
</g>
</g>
<!-- 9792&#45;&gt;28950 -->
<g id="edge42" class="edge"><title>9792&#45;&gt;28950</title>
<path fill="none" stroke="black" d="M1614.41,-629.299C1653.54,-613.176 1730.51,-581.468 1770.97,-564.802"/>
</g>
<!-- 10739 -->
<g id="node14" class="node"><title>10739</title>
<g id="a_node14"><a xlink:title="3rd_week">
<ellipse fill="#ee9898" stroke="black" cx="1590.48" cy="-394.404" rx="32.4942" ry="18"/>
<text text-anchor="middle" x="1590.48" y="-390.704" font-family="Times,serif" font-size="14.00">10739</text>
</a>
</g>
</g>
<!-- 10739&#45;&gt;16267 -->
<g id="edge80" class="edge"><title>10739&#45;&gt;16267</title>
<path fill="none" stroke="black" d="M1581.69,-411.748C1566.44,-441.825 1535.26,-503.326 1519.99,-533.458"/>
</g>
<!-- 5693 -->
<g id="node59" class="node"><title>5693</title>
<g id="a_node59"><a xlink:title="3rd_week">
<ellipse fill="#ee9898" stroke="black" cx="1672.55" cy="-235.746" rx="28.6953" ry="18"/>
<text text-anchor="middle" x="1672.55" y="-232.046" font-family="Times,serif" font-size="14.00">5693</text>
</a>
</g>
</g>
<!-- 10739&#45;&gt;5693 -->
<g id="edge46" class="edge"><title>10739&#45;&gt;5693</title>
<path fill="none" stroke="black" d="M1599.58,-376.819C1615.44,-346.16 1647.95,-283.302 1663.66,-252.928"/>
</g>
<!-- 11379 -->
<g id="node16" class="node"><title>11379</title>
<g id="a_node16"><a xlink:title="3rd_week">
<ellipse fill="#ee9898" stroke="black" cx="240.663" cy="-611.394" rx="32.4942" ry="18"/>
<text text-anchor="middle" x="240.663" y="-607.694" font-family="Times,serif" font-size="14.00">11379</text>
</a>
</g>
</g>
<!-- 31406 -->
<g id="node42" class="node"><title>31406</title>
<g id="a_node42"><a xlink:title="Day_0">
<ellipse fill="#e5dada" stroke="black" cx="389.592" cy="-607.117" rx="32.4942" ry="18"/>
<text text-anchor="middle" x="389.592" y="-603.417" font-family="Times,serif" font-size="14.00">31406</text>
</a>
</g>
</g>
<!-- 11379&#45;&gt;31406 -->
<g id="edge61" class="edge"><title>11379&#45;&gt;31406</title>
<path fill="none" stroke="black" d="M273.346,-610.455C298.177,-609.742 332.173,-608.766 356.985,-608.054"/>
</g>
<!-- 11523 -->
<g id="node17" class="node"><title>11523</title>
<g id="a_node17"><a xlink:title="3rd_week">
<ellipse fill="#ee9898" stroke="black" cx="806.389" cy="-588.884" rx="32.4942" ry="18"/>
<text text-anchor="middle" x="806.389" y="-585.184" font-family="Times,serif" font-size="14.00">11523</text>
</a>
</g>
</g>
<!-- 11523&#45;&gt;15435 -->
<g id="edge89" class="edge"><title>11523&#45;&gt;15435</title>
<path fill="none" stroke="black" d="M806.054,-606.96C805.579,-632.541 804.717,-679.039 804.241,-704.696"/>
</g>
<!-- 5663 -->
<g id="node47" class="node"><title>5663</title>
<g id="a_node47"><a xlink:title="3rd_week">
<ellipse fill="#ee9898" stroke="black" cx="1370.89" cy="-1367.14" rx="28.6953" ry="18"/>
<text text-anchor="middle" x="1370.89" y="-1363.44" font-family="Times,serif" font-size="14.00">5663</text>
</a>
</g>
</g>
<!-- 12036&#45;&gt;5663 -->
<g id="edge39" class="edge"><title>12036&#45;&gt;5663</title>
<path fill="none" stroke="black" d="M1210.05,-1253.99C1245.33,-1278.81 1317.17,-1329.35 1351.62,-1353.58"/>
</g>
<!-- 12764 -->
<g id="node64" class="node"><title>12764</title>
<g id="a_node64"><a xlink:title="3rd_week">
<ellipse fill="#ee9898" stroke="black" cx="1075.36" cy="-1467.66" rx="32.4942" ry="18"/>
<text text-anchor="middle" x="1075.36" y="-1463.96" font-family="Times,serif" font-size="14.00">12764</text>
</a>
</g>
</g>
<!-- 12036&#45;&gt;12764 -->
<g id="edge45" class="edge"><title>12036&#45;&gt;12764</title>
<path fill="none" stroke="black" d="M1180.83,-1257.13C1159.56,-1299.58 1105.46,-1407.57 1084.16,-1450.08"/>
</g>
<!-- 15647 -->
<g id="node65" class="node"><title>15647</title>
<g id="a_node65"><a xlink:title="Day_0">
<ellipse fill="#e5dada" stroke="black" cx="1267.92" cy="-1421.52" rx="32.4942" ry="18"/>
<text text-anchor="middle" x="1267.92" y="-1417.82" font-family="Times,serif" font-size="14.00">15647</text>
</a>
</g>
</g>
<!-- 12036&#45;&gt;15647 -->
<g id="edge53" class="edge"><title>12036&#45;&gt;15647</title>
<path fill="none" stroke="black" d="M1197.26,-1257.39C1212.27,-1292.25 1245.41,-1369.24 1260.35,-1403.94"/>
</g>
<!-- 32914 -->
<g id="node80" class="node"><title>32914</title>
<g id="a_node80"><a xlink:title="3rd_week">
<ellipse fill="#ee9898" stroke="black" cx="1173.41" cy="-1372.59" rx="32.4942" ry="18"/>
<text text-anchor="middle" x="1173.41" y="-1368.89" font-family="Times,serif" font-size="14.00">32914</text>
</a>
</g>
</g>
<!-- 12036&#45;&gt;32914 -->
<g id="edge63" class="edge"><title>12036&#45;&gt;32914</title>
<path fill="none" stroke="black" d="M1187.39,-1257.82C1184.29,-1283.29 1178.69,-1329.25 1175.61,-1354.6"/>
</g>
<!-- 12229 -->
<g id="node19" class="node"><title>12229</title>
<g id="a_node19"><a xlink:title="3rd_week">
<ellipse fill="#ee9898" stroke="black" cx="449.087" cy="-17.6063" rx="32.4942" ry="18"/>
<text text-anchor="middle" x="449.087" y="-13.9063" font-family="Times,serif" font-size="14.00">12229</text>
</a>
</g>
</g>
<!-- 12229&#45;&gt;14171 -->
<g id="edge16" class="edge"><title>12229&#45;&gt;14171</title>
<path fill="none" stroke="black" d="M454.346,-35.6639C464.313,-69.8884 485.842,-143.813 495.761,-177.869"/>
</g>
<!-- 12343&#45;&gt;15435 -->
<g id="edge71" class="edge"><title>12343&#45;&gt;15435</title>
<path fill="none" stroke="black" d="M620.233,-622.013C660.098,-643.913 740.837,-688.268 780.643,-710.136"/>
</g>
<!-- 17006 -->
<g id="node28" class="node"><title>17006</title>
<g id="a_node28"><a xlink:title="3rd_week">
<ellipse fill="#ee9898" stroke="black" cx="401.361" cy="-670.189" rx="32.4942" ry="18"/>
<text text-anchor="middle" x="401.361" y="-666.489" font-family="Times,serif" font-size="14.00">17006</text>
</a>
</g>
</g>
<!-- 12343&#45;&gt;17006 -->
<g id="edge47" class="edge"><title>12343&#45;&gt;17006</title>
<path fill="none" stroke="black" d="M568.457,-618.058C531.386,-629.623 466.914,-649.737 429.826,-661.308"/>
</g>
<!-- 18980 -->
<g id="node29" class="node"><title>18980</title>
<g id="a_node29"><a xlink:title="Day_0">
<ellipse fill="#e5dada" stroke="black" cx="499.49" cy="-727.601" rx="32.4942" ry="18"/>
<text text-anchor="middle" x="499.49" y="-723.901" font-family="Times,serif" font-size="14.00">18980</text>
</a>
</g>
</g>
<!-- 12343&#45;&gt;18980 -->
<g id="edge36" class="edge"><title>12343&#45;&gt;18980</title>
<path fill="none" stroke="black" d="M583.346,-625.653C564.842,-648.149 531.839,-688.273 513.232,-710.895"/>
</g>
<!-- 23448 -->
<g id="node31" class="node"><title>23448</title>
<g id="a_node31"><a xlink:title="Day_0">
<ellipse fill="#e5dada" stroke="black" cx="441.489" cy="-555.192" rx="32.4942" ry="18"/>
<text text-anchor="middle" x="441.489" y="-551.492" font-family="Times,serif" font-size="14.00">23448</text>
</a>
</g>
</g>
<!-- 12343&#45;&gt;23448 -->
<g id="edge57" class="edge"><title>12343&#45;&gt;23448</title>
<path fill="none" stroke="black" d="M569.106,-599.534C540.82,-589.706 497.229,-574.56 469.031,-564.762"/>
</g>
<!-- 27708 -->
<g id="node37" class="node"><title>27708</title>
<g id="a_node37"><a xlink:title="Day_0">
<ellipse fill="#e5dada" stroke="black" cx="512.011" cy="-646.626" rx="32.4942" ry="18"/>
<text text-anchor="middle" x="512.011" y="-642.926" font-family="Times,serif" font-size="14.00">27708</text>
</a>
</g>
</g>
<!-- 12343&#45;&gt;27708 -->
<g id="edge4" class="edge"><title>12343&#45;&gt;27708</title>
<path fill="none" stroke="black" d="M571.423,-620.42C560.68,-625.159 548.2,-630.663 537.459,-635.401"/>
</g>
<!-- 12343&#45;&gt;31406 -->
<g id="edge54" class="edge"><title>12343&#45;&gt;31406</title>
<path fill="none" stroke="black" d="M564.042,-608.86C525.226,-608.472 461.034,-607.831 422.285,-607.444"/>
</g>
<!-- 14776 -->
<g id="node91" class="node"><title>14776</title>
<g id="a_node91"><a xlink:title="Day_0">
<ellipse fill="#e5dada" stroke="black" cx="596.612" cy="-459.984" rx="32.4942" ry="18"/>
<text text-anchor="middle" x="596.612" y="-456.284" font-family="Times,serif" font-size="14.00">14776</text>
</a>
</g>
</g>
<!-- 12343&#45;&gt;14776 -->
<g id="edge22" class="edge"><title>12343&#45;&gt;14776</title>
<path fill="none" stroke="black" d="M596.855,-590.893C596.802,-562.256 596.7,-507.157 596.646,-478.429"/>
</g>
<!-- 12951 -->
<g id="node21" class="node"><title>12951</title>
<g id="a_node21"><a xlink:title="3rd_week">
<ellipse fill="#ee9898" stroke="black" cx="129.047" cy="-208.94" rx="32.4942" ry="18"/>
<text text-anchor="middle" x="129.047" y="-205.24" font-family="Times,serif" font-size="14.00">12951</text>
</a>
</g>
</g>
<!-- 25428 -->
<g id="node34" class="node"><title>25428</title>
<g id="a_node34"><a xlink:title="3rd_week">
<ellipse fill="#ee9898" stroke="black" cx="291.312" cy="-280.685" rx="32.4942" ry="18"/>
<text text-anchor="middle" x="291.312" y="-276.985" font-family="Times,serif" font-size="14.00">25428</text>
</a>
</g>
</g>
<!-- 12951&#45;&gt;25428 -->
<g id="edge17" class="edge"><title>12951&#45;&gt;25428</title>
<path fill="none" stroke="black" d="M154.758,-220.308C185.142,-233.742 235.39,-255.959 265.721,-269.37"/>
</g>
<!-- 28942 -->
<g id="node89" class="node"><title>28942</title>
<g id="a_node89"><a xlink:title="3rd_week">
<ellipse fill="#ee9898" stroke="black" cx="377.854" cy="-69.0462" rx="32.4942" ry="18"/>
<text text-anchor="middle" x="377.854" y="-65.3462" font-family="Times,serif" font-size="14.00">28942</text>
</a>
</g>
</g>
<!-- 14171&#45;&gt;28942 -->
<g id="edge25" class="edge"><title>14171&#45;&gt;28942</title>
<path fill="none" stroke="black" d="M485.365,-179.667C461.686,-155.303 416.922,-109.245 393.319,-84.9579"/>
</g>
<!-- 14304 -->
<g id="node23" class="node"><title>14304</title>
<g id="a_node23"><a xlink:title="3rd_week">
<ellipse fill="#ee9898" stroke="black" cx="682.074" cy="-821.611" rx="32.4942" ry="18"/>
<text text-anchor="middle" x="682.074" y="-817.911" font-family="Times,serif" font-size="14.00">14304</text>
</a>
</g>
</g>
<!-- 14304&#45;&gt;15435 -->
<g id="edge23" class="edge"><title>14304&#45;&gt;15435</title>
<path fill="none" stroke="black" d="M700.578,-806.621C723.476,-788.07 762.247,-756.66 785.225,-738.045"/>
</g>
<!-- 15326 -->
<g id="node86" class="node"><title>15326</title>
<g id="a_node86"><a xlink:title="3rd_week">
<ellipse fill="#ee9898" stroke="black" cx="538.511" cy="-917.1" rx="32.4942" ry="18"/>
<text text-anchor="middle" x="538.511" y="-913.4" font-family="Times,serif" font-size="14.00">15326</text>
</a>
</g>
</g>
<!-- 14304&#45;&gt;15326 -->
<g id="edge90" class="edge"><title>14304&#45;&gt;15326</title>
<path fill="none" stroke="black" d="M661.199,-835.496C633.981,-853.6 586.643,-885.086 559.412,-903.198"/>
</g>
<!-- 24761 -->
<g id="node32" class="node"><title>24761</title>
<g id="a_node32"><a xlink:title="3rd_week">
<ellipse fill="#ee9898" stroke="black" cx="701.791" cy="-694.328" rx="32.4942" ry="18"/>
<text text-anchor="middle" x="701.791" y="-690.628" font-family="Times,serif" font-size="14.00">24761</text>
</a>
</g>
</g>
<!-- 15435&#45;&gt;24761 -->
<g id="edge56" class="edge"><title>15435&#45;&gt;24761</title>
<path fill="none" stroke="black" d="M774.642,-714.722C760.969,-710.894 744.729,-706.348 731.056,-702.521"/>
</g>
<!-- 15435&#45;&gt;25341 -->
<g id="edge68" class="edge"><title>15435&#45;&gt;25341</title>
<path fill="none" stroke="black" d="M787.489,-707.003C753.607,-674.158 676.27,-599.189 642.422,-566.377"/>
</g>
<!-- 12497 -->
<g id="node63" class="node"><title>12497</title>
<g id="a_node63"><a xlink:title="3rd_week">
<ellipse fill="#ee9898" stroke="black" cx="884.56" cy="-607.552" rx="32.4942" ry="18"/>
<text text-anchor="middle" x="884.56" y="-603.852" font-family="Times,serif" font-size="14.00">12497</text>
</a>
</g>
</g>
<!-- 15435&#45;&gt;12497 -->
<g id="edge44" class="edge"><title>15435&#45;&gt;12497</title>
<path fill="none" stroke="black" d="M815.804,-705.891C831.054,-684.08 857.337,-646.488 872.61,-624.643"/>
</g>
<!-- 15576 -->
<g id="node25" class="node"><title>15576</title>
<g id="a_node25"><a xlink:title="3rd_week">
<ellipse fill="#ee9898" stroke="black" cx="1482.36" cy="-438.19" rx="32.4942" ry="18"/>
<text text-anchor="middle" x="1482.36" y="-434.49" font-family="Times,serif" font-size="14.00">15576</text>
</a>
</g>
</g>
<!-- 15576&#45;&gt;32472 -->
<g id="edge70" class="edge"><title>15576&#45;&gt;32472</title>
<path fill="none" stroke="black" d="M1476.85,-456.07C1468.06,-484.56 1450.99,-539.946 1442.2,-568.477"/>
</g>
<!-- 16148 -->
<g id="node66" class="node"><title>16148</title>
<g id="a_node66"><a xlink:title="6th_week">
<ellipse fill="#c81d25" stroke="black" cx="1622.84" cy="-464.581" rx="32.4942" ry="18"/>
<text text-anchor="middle" x="1622.84" y="-460.881" font-family="Times,serif" font-size="14.00">16148</text>
</a>
</g>
</g>
<!-- 16267&#45;&gt;16148 -->
<g id="edge32" class="edge"><title>16267&#45;&gt;16148</title>
<path fill="none" stroke="black" d="M1530.1,-536.239C1550.64,-520.37 1583.23,-495.189 1603.8,-479.292"/>
</g>
<!-- 32974 -->
<g id="node45" class="node"><title>32974</title>
<g id="a_node45"><a xlink:title="3rd_week">
<ellipse fill="#ee9898" stroke="black" cx="262.073" cy="-728.979" rx="32.4942" ry="18"/>
<text text-anchor="middle" x="262.073" y="-725.279" font-family="Times,serif" font-size="14.00">32974</text>
</a>
</g>
</g>
<!-- 17006&#45;&gt;32974 -->
<g id="edge43" class="edge"><title>17006&#45;&gt;32974</title>
<path fill="none" stroke="black" d="M375.488,-681.109C350.627,-691.602 313.252,-707.377 288.28,-717.918"/>
</g>
<!-- 19026 -->
<g id="node30" class="node"><title>19026</title>
<g id="a_node30"><a xlink:title="3rd_week">
<ellipse fill="#ee9898" stroke="black" cx="440.339" cy="-393.27" rx="32.4942" ry="18"/>
<text text-anchor="middle" x="440.339" y="-389.57" font-family="Times,serif" font-size="14.00">19026</text>
</a>
</g>
</g>
<!-- 19026&#45;&gt;25341 -->
<g id="edge75" class="edge"><title>19026&#45;&gt;25341</title>
<path fill="none" stroke="black" d="M458.145,-408.346C493.551,-438.323 572.438,-505.115 608.022,-535.243"/>
</g>
<!-- 19026&#45;&gt;25428 -->
<g id="edge72" class="edge"><title>19026&#45;&gt;25428</title>
<path fill="none" stroke="black" d="M420.856,-378.551C392.295,-356.975 339.363,-316.986 310.8,-295.407"/>
</g>
<!-- 30867 -->
<g id="node82" class="node"><title>30867</title>
<g id="a_node82"><a xlink:title="3rd_week">
<ellipse fill="#ee9898" stroke="black" cx="414.151" cy="-480.371" rx="32.4942" ry="18"/>
<text text-anchor="middle" x="414.151" y="-476.671" font-family="Times,serif" font-size="14.00">30867</text>
</a>
</g>
</g>
<!-- 25341&#45;&gt;30867 -->
<g id="edge60" class="edge"><title>25341&#45;&gt;30867</title>
<path fill="none" stroke="black" d="M597.91,-541.191C557.269,-527.74 482.585,-503.021 442.068,-489.611"/>
</g>
<!-- 27550 -->
<g id="node73" class="node"><title>27550</title>
<g id="a_node73"><a xlink:title="3rd_week">
<ellipse fill="#ee9898" stroke="black" cx="138.938" cy="-141.262" rx="32.4942" ry="18"/>
<text text-anchor="middle" x="138.938" y="-137.562" font-family="Times,serif" font-size="14.00">27550</text>
</a>
</g>
</g>
<!-- 25428&#45;&gt;27550 -->
<g id="edge69" class="edge"><title>25428&#45;&gt;27550</title>
<path fill="none" stroke="black" d="M274.423,-265.232C245.134,-238.432 185.245,-183.633 155.902,-156.785"/>
</g>
<!-- 3346 -->
<g id="node56" class="node"><title>3346</title>
<g id="a_node56"><a xlink:title="Day_0">
<ellipse fill="#e5dada" stroke="black" cx="865.882" cy="-1112.11" rx="28.6953" ry="18"/>
<text text-anchor="middle" x="865.882" y="-1108.41" font-family="Times,serif" font-size="14.00">3346</text>
</a>
</g>
</g>
<!-- 28410&#45;&gt;3346 -->
<g id="edge52" class="edge"><title>28410&#45;&gt;3346</title>
<path fill="none" stroke="black" d="M931.213,-1050.5C916.816,-1064.08 896.098,-1083.62 881.875,-1097.03"/>
</g>
<!-- 7432 -->
<g id="node60" class="node"><title>7432</title>
<g id="a_node60"><a xlink:title="Day_0">
<ellipse fill="#e5dada" stroke="black" cx="914.822" cy="-1188.67" rx="28.6953" ry="18"/>
<text text-anchor="middle" x="914.822" y="-1184.97" font-family="Times,serif" font-size="14.00">7432</text>
</a>
</g>
</g>
<!-- 28410&#45;&gt;7432 -->
<g id="edge13" class="edge"><title>28410&#45;&gt;7432</title>
<path fill="none" stroke="black" d="M943.942,-1052.82C937.623,-1082.29 925.114,-1140.65 918.746,-1170.36"/>
</g>
<!-- 23262 -->
<g id="node70" class="node"><title>23262</title>
<g id="a_node70"><a xlink:title="3rd_week">
<ellipse fill="#ee9898" stroke="black" cx="780.003" cy="-1137.06" rx="32.4942" ry="18"/>
<text text-anchor="middle" x="780.003" y="-1133.36" font-family="Times,serif" font-size="14.00">23262</text>
</a>
</g>
</g>
<!-- 28410&#45;&gt;23262 -->
<g id="edge18" class="edge"><title>28410&#45;&gt;23262</title>
<path fill="none" stroke="black" d="M925.853,-1048.23C893.697,-1067.82 834.102,-1104.11 801.944,-1123.7"/>
</g>
<!-- 29105 -->
<g id="node75" class="node"><title>29105</title>
<g id="a_node75"><a xlink:title="Day_0">
<ellipse fill="#e5dada" stroke="black" cx="792.344" cy="-1059.14" rx="32.4942" ry="18"/>
<text text-anchor="middle" x="792.344" y="-1055.44" font-family="Times,serif" font-size="14.00">29105</text>
</a>
</g>
</g>
<!-- 28410&#45;&gt;29105 -->
<g id="edge40" class="edge"><title>28410&#45;&gt;29105</title>
<path fill="none" stroke="black" d="M916.331,-1039.78C889.363,-1043.99 850.709,-1050.03 823.754,-1054.23"/>
</g>
<!-- 6718 -->
<g id="node48" class="node"><title>6718</title>
<g id="a_node48"><a xlink:title="Day_0">
<ellipse fill="#e5dada" stroke="black" cx="1872.32" cy="-403.089" rx="28.6953" ry="18"/>
<text text-anchor="middle" x="1872.32" y="-399.389" font-family="Times,serif" font-size="14.00">6718</text>
</a>
</g>
</g>
<!-- 28950&#45;&gt;6718 -->
<g id="edge84" class="edge"><title>28950&#45;&gt;6718</title>
<path fill="none" stroke="black" d="M1806,-536.376C1820.46,-507.301 1849.19,-449.583 1863.62,-420.581"/>
</g>
<!-- 12189 -->
<g id="node49" class="node"><title>12189</title>
<g id="a_node49"><a xlink:title="Day_0">
<ellipse fill="#e5dada" stroke="black" cx="1972.75" cy="-579.428" rx="32.4942" ry="18"/>
<text text-anchor="middle" x="1972.75" y="-575.728" font-family="Times,serif" font-size="14.00">12189</text>
</a>
</g>
</g>
<!-- 28950&#45;&gt;12189 -->
<g id="edge27" class="edge"><title>28950&#45;&gt;12189</title>
<path fill="none" stroke="black" d="M1829.02,-558.589C1860.83,-563.201 1909.48,-570.254 1941.2,-574.854"/>
</g>
<!-- 26745 -->
<g id="node51" class="node"><title>26745</title>
<g id="a_node51"><a xlink:title="Day_0">
<ellipse fill="#e5dada" stroke="black" cx="1902.58" cy="-495.847" rx="32.4942" ry="18"/>
<text text-anchor="middle" x="1902.58" y="-492.147" font-family="Times,serif" font-size="14.00">26745</text>
</a>
</g>
</g>
<!-- 28950&#45;&gt;26745 -->
<g id="edge24" class="edge"><title>28950&#45;&gt;26745</title>
<path fill="none" stroke="black" d="M1820.35,-541.223C1837.92,-531.53 1861.96,-518.26 1879.51,-508.575"/>
</g>
<!-- 28332 -->
<g id="node52" class="node"><title>28332</title>
<g id="a_node52"><a xlink:title="Day_0">
<ellipse fill="#e5dada" stroke="black" cx="1946.51" cy="-441.404" rx="32.4942" ry="18"/>
<text text-anchor="middle" x="1946.51" y="-437.704" font-family="Times,serif" font-size="14.00">28332</text>
</a>
</g>
</g>
<!-- 28950&#45;&gt;28332 -->
<g id="edge33" class="edge"><title>28950&#45;&gt;28332</title>
<path fill="none" stroke="black" d="M1816.75,-539.263C1845.36,-517.688 1898.38,-477.702 1926.99,-456.125"/>
</g>
<!-- 3869 -->
<g id="node57" class="node"><title>3869</title>
<g id="a_node57"><a xlink:title="3rd_week">
<ellipse fill="#ee9898" stroke="black" cx="2000.77" cy="-515.348" rx="28.6953" ry="18"/>
<text text-anchor="middle" x="2000.77" y="-511.648" font-family="Times,serif" font-size="14.00">3869</text>
</a>
</g>
</g>
<!-- 28950&#45;&gt;3869 -->
<g id="edge64" class="edge"><title>28950&#45;&gt;3869</title>
<path fill="none" stroke="black" d="M1828.15,-548.113C1867.63,-540.62 1935.35,-527.766 1973.17,-520.588"/>
</g>
<!-- 2702 -->
<g id="node54" class="node"><title>2702</title>
<g id="a_node54"><a xlink:title="3rd_week">
<ellipse fill="#ee9898" stroke="black" cx="1324.47" cy="-389.813" rx="28.6953" ry="18"/>
<text text-anchor="middle" x="1324.47" y="-386.113" font-family="Times,serif" font-size="14.00">2702</text>
</a>
</g>
</g>
<!-- 31369&#45;&gt;2702 -->
<g id="edge11" class="edge"><title>31369&#45;&gt;2702</title>
<path fill="none" stroke="black" d="M1343.06,-512.313C1338.97,-485.318 1331.3,-434.791 1327.21,-407.836"/>
</g>
<!-- 2477 -->
<g id="node53" class="node"><title>2477</title>
<g id="a_node53"><a xlink:title="3rd_week">
<ellipse fill="#ee9898" stroke="black" cx="1534.15" cy="-1400.55" rx="28.6953" ry="18"/>
<text text-anchor="middle" x="1534.15" y="-1396.85" font-family="Times,serif" font-size="14.00">2477</text>
</a>
</g>
</g>
<!-- 5663&#45;&gt;2477 -->
<g id="edge51" class="edge"><title>5663&#45;&gt;2477</title>
<path fill="none" stroke="black" d="M1398.22,-1372.73C1428.36,-1378.9 1476.57,-1388.76 1506.74,-1394.94"/>
</g>
<!-- 32504 -->
<g id="node79" class="node"><title>32504</title>
<g id="a_node79"><a xlink:title="3rd_week">
<ellipse fill="#ee9898" stroke="black" cx="1550.09" cy="-1550.14" rx="32.4942" ry="18"/>
<text text-anchor="middle" x="1550.09" y="-1546.44" font-family="Times,serif" font-size="14.00">32504</text>
</a>
</g>
</g>
<!-- 5663&#45;&gt;32504 -->
<g id="edge65" class="edge"><title>5663&#45;&gt;32504</title>
<path fill="none" stroke="black" d="M1386.17,-1382.74C1419.94,-1417.23 1500.62,-1499.63 1534.59,-1534.32"/>
</g>
<!-- 2892 -->
<g id="node55" class="node"><title>2892</title>
<g id="a_node55"><a xlink:title="3rd_week">
<ellipse fill="#ee9898" stroke="black" cx="669.222" cy="-1228.11" rx="28.6953" ry="18"/>
<text text-anchor="middle" x="669.222" y="-1224.41" font-family="Times,serif" font-size="14.00">2892</text>
</a>
</g>
</g>
<!-- 2892&#45;&gt;23262 -->
<g id="edge38" class="edge"><title>2892&#45;&gt;23262</title>
<path fill="none" stroke="black" d="M687.021,-1213.48C707.449,-1196.69 740.794,-1169.29 761.51,-1152.26"/>
</g>
<!-- 22981 -->
<g id="node69" class="node"><title>22981</title>
<g id="a_node69"><a xlink:title="3rd_week">
<ellipse fill="#ee9898" stroke="black" cx="2135.3" cy="-458.938" rx="32.4942" ry="18"/>
<text text-anchor="middle" x="2135.3" y="-455.238" font-family="Times,serif" font-size="14.00">22981</text>
</a>
</g>
</g>
<!-- 3869&#45;&gt;22981 -->
<g id="edge37" class="edge"><title>3869&#45;&gt;22981</title>
<path fill="none" stroke="black" d="M2024.82,-505.263C2048.55,-495.312 2084.73,-480.143 2109.16,-469.899"/>
</g>
<!-- 4442 -->
<g id="node58" class="node"><title>4442</title>
<g id="a_node58"><a xlink:title="3rd_week">
<ellipse fill="#ee9898" stroke="black" cx="28.6247" cy="-52.7198" rx="28.6953" ry="18"/>
<text text-anchor="middle" x="28.6247" y="-49.0198" font-family="Times,serif" font-size="14.00">4442</text>
</a>
</g>
</g>
<!-- 4442&#45;&gt;27550 -->
<g id="edge28" class="edge"><title>4442&#45;&gt;27550</title>
<path fill="none" stroke="black" d="M46.3484,-66.9457C66.5686,-83.1753 99.497,-109.605 120.151,-126.183"/>
</g>
<!-- 8863 -->
<g id="node61" class="node"><title>8863</title>
<g id="a_node61"><a xlink:title="3rd_week">
<ellipse fill="#ee9898" stroke="black" cx="1056.02" cy="-1663.27" rx="28.6953" ry="18"/>
<text text-anchor="middle" x="1056.02" y="-1659.57" font-family="Times,serif" font-size="14.00">8863</text>
</a>
</g>
</g>
<!-- 8863&#45;&gt;12764 -->
<g id="edge7" class="edge"><title>8863&#45;&gt;12764</title>
<path fill="none" stroke="black" d="M1057.81,-1645.22C1061.49,-1607.95 1069.9,-1522.89 1073.58,-1485.67"/>
</g>
<!-- 10530 -->
<g id="node62" class="node"><title>10530</title>
<g id="a_node62"><a xlink:title="3rd_week">
<ellipse fill="#ee9898" stroke="black" cx="915.004" cy="-1538.09" rx="32.4942" ry="18"/>
<text text-anchor="middle" x="915.004" y="-1534.39" font-family="Times,serif" font-size="14.00">10530</text>
</a>
</g>
</g>
<!-- 10530&#45;&gt;12764 -->
<g id="edge41" class="edge"><title>10530&#45;&gt;12764</title>
<path fill="none" stroke="black" d="M940.767,-1526.78C970.691,-1513.63 1019.76,-1492.08 1049.66,-1478.95"/>
</g>
<!-- 21992 -->
<g id="node68" class="node"><title>21992</title>
<g id="a_node68"><a xlink:title="3rd_week">
<ellipse fill="#ee9898" stroke="black" cx="1016.86" cy="-1529.81" rx="32.4942" ry="18"/>
<text text-anchor="middle" x="1016.86" y="-1526.11" font-family="Times,serif" font-size="14.00">21992</text>
</a>
</g>
</g>
<!-- 12764&#45;&gt;21992 -->
<g id="edge15" class="edge"><title>12764&#45;&gt;21992</title>
<path fill="none" stroke="black" d="M1060.29,-1483.67C1051.63,-1492.87 1040.77,-1504.41 1032.08,-1513.65"/>
</g>
<!-- 24784 -->
<g id="node71" class="node"><title>24784</title>
<g id="a_node71"><a xlink:title="3rd_week">
<ellipse fill="#ee9898" stroke="black" cx="1051.82" cy="-1586.97" rx="32.4942" ry="18"/>
<text text-anchor="middle" x="1051.82" y="-1583.27" font-family="Times,serif" font-size="14.00">24784</text>
</a>
</g>
</g>
<!-- 12764&#45;&gt;24784 -->
<g id="edge81" class="edge"><title>12764&#45;&gt;24784</title>
<path fill="none" stroke="black" d="M1071.78,-1485.78C1067.33,-1508.34 1059.78,-1546.62 1055.35,-1569.07"/>
</g>
<!-- 30616 -->
<g id="node76" class="node"><title>30616</title>
<g id="a_node76"><a xlink:title="3rd_week">
<ellipse fill="#ee9898" stroke="black" cx="1149.44" cy="-1634.39" rx="32.4942" ry="18"/>
<text text-anchor="middle" x="1149.44" y="-1630.69" font-family="Times,serif" font-size="14.00">30616</text>
</a>
</g>
</g>
<!-- 12764&#45;&gt;30616 -->
<g id="edge10" class="edge"><title>12764&#45;&gt;30616</title>
<path fill="none" stroke="black" d="M1083.14,-1485.19C1097.37,-1517.21 1127.41,-1584.82 1141.65,-1616.85"/>
</g>
<!-- 31104 -->
<g id="node77" class="node"><title>31104</title>
<g id="a_node77"><a xlink:title="3rd_week">
<ellipse fill="#ee9898" stroke="black" cx="975.175" cy="-1661.4" rx="32.4942" ry="18"/>
<text text-anchor="middle" x="975.175" y="-1657.7" font-family="Times,serif" font-size="14.00">31104</text>
</a>
</g>
</g>
<!-- 12764&#45;&gt;31104 -->
<g id="edge59" class="edge"><title>12764&#45;&gt;31104</title>
<path fill="none" stroke="black" d="M1066.29,-1485.19C1047.22,-1522.08 1003.14,-1607.32 984.149,-1644.04"/>
</g>
<!-- 23756 -->
<g id="node92" class="node"><title>23756</title>
<g id="a_node92"><a xlink:title="3rd_week">
<ellipse fill="#ee9898" stroke="black" cx="940.209" cy="-1600.51" rx="32.4942" ry="18"/>
<text text-anchor="middle" x="940.209" y="-1596.81" font-family="Times,serif" font-size="14.00">23756</text>
</a>
</g>
</g>
<!-- 12764&#45;&gt;23756 -->
<g id="edge85" class="edge"><title>12764&#45;&gt;23756</title>
<path fill="none" stroke="black" d="M1059.32,-1483.42C1033.31,-1508.99 982.219,-1559.21 956.222,-1584.77"/>
</g>
<!-- 19948 -->
<g id="node67" class="node"><title>19948</title>
<g id="a_node67"><a xlink:title="Day_0">
<ellipse fill="#e5dada" stroke="black" cx="1354.6" cy="-1583.75" rx="32.4942" ry="18"/>
<text text-anchor="middle" x="1354.6" y="-1580.05" font-family="Times,serif" font-size="14.00">19948</text>
</a>
</g>
</g>
<!-- 15647&#45;&gt;19948 -->
<g id="edge12" class="edge"><title>15647&#45;&gt;19948</title>
<path fill="none" stroke="black" d="M1277.19,-1438.88C1293.79,-1469.94 1328.39,-1534.7 1345.12,-1566.02"/>
</g>
<!-- 28492 -->
<g id="node74" class="node"><title>28492</title>
<g id="a_node74"><a xlink:title="Day_0">
<ellipse fill="#e5dada" stroke="black" cx="1395.04" cy="-1534.1" rx="32.4942" ry="18"/>
<text text-anchor="middle" x="1395.04" y="-1530.4" font-family="Times,serif" font-size="14.00">28492</text>
</a>
</g>
</g>
<!-- 15647&#45;&gt;28492 -->
<g id="edge2" class="edge"><title>15647&#45;&gt;28492</title>
<path fill="none" stroke="black" d="M1285.33,-1436.94C1309.53,-1458.38 1353.12,-1496.98 1377.43,-1518.51"/>
</g>
<!-- 17823 -->
<g id="node88" class="node"><title>17823</title>
<g id="a_node88"><a xlink:title="Day_0">
<ellipse fill="#e5dada" stroke="black" cx="1259.9" cy="-1601.31" rx="32.4942" ry="18"/>
<text text-anchor="middle" x="1259.9" y="-1597.61" font-family="Times,serif" font-size="14.00">17823</text>
</a>
</g>
</g>
<!-- 15647&#45;&gt;17823 -->
<g id="edge5" class="edge"><title>15647&#45;&gt;17823</title>
<path fill="none" stroke="black" d="M1267.1,-1439.75C1265.56,-1474.3 1262.23,-1548.92 1260.7,-1583.3"/>
</g>
<!-- 25665 -->
<g id="node72" class="node"><title>25665</title>
<g id="a_node72"><a xlink:title="3rd_week">
<ellipse fill="#ee9898" stroke="black" cx="1179.91" cy="-1533.17" rx="32.4942" ry="18"/>
<text text-anchor="middle" x="1179.91" y="-1529.47" font-family="Times,serif" font-size="14.00">25665</text>
</a>
</g>
</g>
<!-- 25665&#45;&gt;32914 -->
<g id="edge29" class="edge"><title>25665&#45;&gt;32914</title>
<path fill="none" stroke="black" d="M1179.18,-1515.06C1177.93,-1484.22 1175.41,-1421.84 1174.16,-1390.87"/>
</g>
<!-- 11240 -->
<g id="node87" class="node"><title>11240</title>
<g id="a_node87"><a xlink:title="3rd_week">
<ellipse fill="#ee9898" stroke="black" cx="916.112" cy="-1800.03" rx="32.4942" ry="18"/>
<text text-anchor="middle" x="916.112" y="-1796.33" font-family="Times,serif" font-size="14.00">11240</text>
</a>
</g>
</g>
<!-- 31104&#45;&gt;11240 -->
<g id="edge76" class="edge"><title>31104&#45;&gt;11240</title>
<path fill="none" stroke="black" d="M967.694,-1678.96C956.395,-1705.48 935.091,-1755.48 923.718,-1782.18"/>
</g>
<!-- 4235 -->
<g id="node83" class="node"><title>4235</title>
<g id="a_node83"><a xlink:title="3rd_week">
<ellipse fill="#ee9898" stroke="black" cx="1676.43" cy="-1691.9" rx="28.6953" ry="18"/>
<text text-anchor="middle" x="1676.43" y="-1688.2" font-family="Times,serif" font-size="14.00">4235</text>
</a>
</g>
</g>
<!-- 32504&#45;&gt;4235 -->
<g id="edge58" class="edge"><title>32504&#45;&gt;4235</title>
<path fill="none" stroke="black" d="M1564.58,-1566.41C1588.95,-1593.75 1637.85,-1648.61 1662.11,-1675.83"/>
</g>
<!-- 5978 -->
<g id="node84" class="node"><title>5978</title>
<g id="a_node84"><a xlink:title="3rd_week">
<ellipse fill="#ee9898" stroke="black" cx="1595.59" cy="-1677.01" rx="28.6953" ry="18"/>
<text text-anchor="middle" x="1595.59" y="-1673.31" font-family="Times,serif" font-size="14.00">5978</text>
</a>
</g>
</g>
<!-- 32504&#45;&gt;5978 -->
<g id="edge3" class="edge"><title>32504&#45;&gt;5978</title>
<path fill="none" stroke="black" d="M1556.51,-1568.05C1565.18,-1592.23 1580.55,-1635.06 1589.2,-1659.19"/>
</g>
<!-- 12705 -->
<g id="node85" class="node"><title>12705</title>
<g id="a_node85"><a xlink:title="3rd_week">
<ellipse fill="#ee9898" stroke="black" cx="1677.81" cy="-1599.34" rx="32.4942" ry="18"/>
<text text-anchor="middle" x="1677.81" y="-1595.64" font-family="Times,serif" font-size="14.00">12705</text>
</a>
</g>
</g>
<!-- 32504&#45;&gt;12705 -->
<g id="edge50" class="edge"><title>32504&#45;&gt;12705</title>
<path fill="none" stroke="black" d="M1576.86,-1560.46C1598.66,-1568.85 1629.28,-1580.65 1651.07,-1589.04"/>
</g>
<!-- 14922 -->
<g id="node81" class="node"><title>14922</title>
<g id="a_node81"><a xlink:title="3rd_week">
<ellipse fill="#ee9898" stroke="black" cx="250.604" cy="-443.325" rx="32.4942" ry="18"/>
<text text-anchor="middle" x="250.604" y="-439.625" font-family="Times,serif" font-size="14.00">14922</text>
</a>
</g>
</g>
<!-- 14922&#45;&gt;30867 -->
<g id="edge78" class="edge"><title>14922&#45;&gt;30867</title>
<path fill="none" stroke="black" d="M280.983,-450.207C310.358,-456.86 354.615,-466.885 383.935,-473.526"/>
</g>
<!-- 2090 -->
<g id="node90" class="node"><title>2090</title>
<g id="a_node90"><a xlink:title="3rd_week">
<ellipse fill="#ee9898" stroke="black" cx="74.6442" cy="-411.871" rx="28.6953" ry="18"/>
<text text-anchor="middle" x="74.6442" y="-408.171" font-family="Times,serif" font-size="14.00">2090</text>
</a>
</g>
</g>
<!-- 14922&#45;&gt;2090 -->
<g id="edge74" class="edge"><title>14922&#45;&gt;2090</title>
<path fill="none" stroke="black" d="M219.551,-437.774C186.302,-431.831 134.044,-422.489 102.205,-416.797"/>
</g>
<!-- 27626 -->
<g id="node93" class="node"><title>27626</title>
<g id="a_node93"><a xlink:title="3rd_week">
<ellipse fill="#ee9898" stroke="black" cx="1802.07" cy="-1760.05" rx="32.4942" ry="18"/>
<text text-anchor="middle" x="1802.07" y="-1756.35" font-family="Times,serif" font-size="14.00">27626</text>
</a>
</g>
</g>
<!-- 4235&#45;&gt;27626 -->
<g id="edge77" class="edge"><title>4235&#45;&gt;27626</title>
<path fill="none" stroke="black" d="M1698.32,-1703.77C1720.81,-1715.97 1755.72,-1734.91 1778.73,-1747.39"/>
</g>
<!-- 7899 -->
<g id="node94" class="node"><title>7899</title>
<g id="a_node94"><a xlink:title="3rd_week">
<ellipse fill="#ee9898" stroke="black" cx="1728.61" cy="-1821.2" rx="28.6953" ry="18"/>
<text text-anchor="middle" x="1728.61" y="-1817.5" font-family="Times,serif" font-size="14.00">7899</text>
</a>
</g>
</g>
<!-- 4235&#45;&gt;7899 -->
<g id="edge55" class="edge"><title>4235&#45;&gt;7899</title>
<path fill="none" stroke="black" d="M1683.58,-1709.61C1693.57,-1734.37 1711.61,-1779.06 1721.55,-1803.7"/>
</g>
</g>
</svg>
