<?xml version="1.0" encoding="UTF-8" standalone="no"?>
<!DOCTYPE svg PUBLIC "-//W3C//DTD SVG 1.1//EN"
 "http://www.w3.org/Graphics/SVG/1.1/DTD/svg11.dtd">
<!-- Generated by graphviz version 2.38.0 (20140413.2041)
 -->
<!-- Title: %3 Pages: 1 -->
<svg width="3190pt" height="1685pt"
 viewBox="0.00 0.00 3190.00 1685.00" xmlns="http://www.w3.org/2000/svg" xmlns:xlink="http://www.w3.org/1999/xlink">
<g id="graph0" class="graph" transform="scale(1 1) rotate(0) translate(4 1681)">
<title>%3</title>
<polygon fill="white" stroke="none" points="-4,4 -4,-1681 3186,-1681 3186,4 -4,4"/>
<!-- 1187 -->
<g id="node1" class="node"><title>1187</title>
<g id="a_node1"><a xlink:title="6th_week">
<ellipse fill="#c81d25" stroke="black" cx="2826.46" cy="-342.802" rx="28.6953" ry="18"/>
<text text-anchor="middle" x="2826.46" y="-339.102" font-family="Times,serif" font-size="14.00">1187</text>
</a>
</g>
</g>
<!-- 9955 -->
<g id="node24" class="node"><title>9955</title>
<g id="a_node24"><a xlink:title="6th_week">
<ellipse fill="#c81d25" stroke="black" cx="2653" cy="-317.62" rx="28.6953" ry="18"/>
<text text-anchor="middle" x="2653" y="-313.92" font-family="Times,serif" font-size="14.00">9955</text>
</a>
</g>
</g>
<!-- 1187&#45;&gt;9955 -->
<g id="edge18" class="edge"><title>1187&#45;&gt;9955</title>
<path fill="none" stroke="black" d="M2798.59,-338.756C2766.32,-334.071 2713.45,-326.397 2681.09,-321.698"/>
</g>
<!-- 1644 -->
<g id="node2" class="node"><title>1644</title>
<g id="a_node2"><a xlink:title="6th_week">
<ellipse fill="#c81d25" stroke="black" cx="2487.22" cy="-557.366" rx="28.6953" ry="18"/>
<text text-anchor="middle" x="2487.22" y="-553.666" font-family="Times,serif" font-size="14.00">1644</text>
</a>
</g>
</g>
<!-- 7310 -->
<g id="node16" class="node"><title>7310</title>
<g id="a_node16"><a xlink:title="6th_week">
<ellipse fill="#c81d25" stroke="black" cx="2306.34" cy="-462.819" rx="28.6953" ry="18"/>
<text text-anchor="middle" x="2306.34" y="-459.119" font-family="Times,serif" font-size="14.00">7310</text>
</a>
</g>
</g>
<!-- 1644&#45;&gt;7310 -->
<g id="edge35" class="edge"><title>1644&#45;&gt;7310</title>
<path fill="none" stroke="black" d="M2465.04,-545.773C2430.23,-527.578 2363.16,-492.522 2328.42,-474.359"/>
</g>
<!-- 2249 -->
<g id="node3" class="node"><title>2249</title>
<g id="a_node3"><a xlink:title="6th_week">
<ellipse fill="#c81d25" stroke="black" cx="1597.37" cy="-480.24" rx="28.6953" ry="18"/>
<text text-anchor="middle" x="1597.37" y="-476.54" font-family="Times,serif" font-size="14.00">2249</text>
</a>
</g>
</g>
<!-- 2466 -->
<g id="node4" class="node"><title>2466</title>
<g id="a_node4"><a xlink:title="3rd_week,6th_week">
<ellipse fill="#ee9898" stroke="black" cx="1501.78" cy="-777.126" rx="28.6832" ry="18"/>
<ellipse fill="none" stroke="black" cx="1501.78" cy="-777.126" rx="32.6952" ry="22"/>
<text text-anchor="middle" x="1501.78" y="-773.426" font-family="Times,serif" font-size="14.00">2466</text>
</a>
</g>
</g>
<!-- 2249&#45;&gt;2466 -->
<g id="edge28" class="edge"><title>2249&#45;&gt;2466</title>
<path fill="none" stroke="black" d="M1591.68,-497.923C1575.12,-549.354 1527,-698.803 1508.83,-755.22"/>
</g>
<!-- 11613 -->
<g id="node30" class="node"><title>11613</title>
<g id="a_node30"><a xlink:title="6th_week">
<ellipse fill="#c81d25" stroke="black" cx="1656.81" cy="-270.664" rx="32.4942" ry="18"/>
<text text-anchor="middle" x="1656.81" y="-266.964" font-family="Times,serif" font-size="14.00">11613</text>
</a>
</g>
</g>
<!-- 2249&#45;&gt;11613 -->
<g id="edge16" class="edge"><title>2249&#45;&gt;11613</title>
<path fill="none" stroke="black" d="M1602.44,-462.372C1613.67,-422.777 1640.54,-328.04 1651.75,-288.488"/>
</g>
<!-- 4854 -->
<g id="node8" class="node"><title>4854</title>
<g id="a_node8"><a xlink:title="6th_week">
<ellipse fill="#c81d25" stroke="black" cx="1681.33" cy="-734.528" rx="28.6953" ry="18"/>
<text text-anchor="middle" x="1681.33" y="-730.828" font-family="Times,serif" font-size="14.00">4854</text>
</a>
</g>
</g>
<!-- 2466&#45;&gt;4854 -->
<g id="edge34" class="edge"><title>2466&#45;&gt;4854</title>
<path fill="none" stroke="black" d="M1532.64,-769.804C1566.93,-761.668 1621.75,-748.662 1654.38,-740.922"/>
</g>
<!-- 5552 -->
<g id="node10" class="node"><title>5552</title>
<g id="a_node10"><a xlink:title="6th_week">
<ellipse fill="#c81d25" stroke="black" cx="1681.89" cy="-850.839" rx="28.6953" ry="18"/>
<text text-anchor="middle" x="1681.89" y="-847.139" font-family="Times,serif" font-size="14.00">5552</text>
</a>
</g>
</g>
<!-- 2466&#45;&gt;5552 -->
<g id="edge31" class="edge"><title>2466&#45;&gt;5552</title>
<path fill="none" stroke="black" d="M1529.92,-788.644C1565.05,-803.019 1624.52,-827.36 1657.7,-840.936"/>
</g>
<!-- 6487 -->
<g id="node12" class="node"><title>6487</title>
<g id="a_node12"><a xlink:title="6th_week">
<ellipse fill="#c81d25" stroke="black" cx="1494.11" cy="-556.155" rx="28.6953" ry="18"/>
<text text-anchor="middle" x="1494.11" y="-552.455" font-family="Times,serif" font-size="14.00">6487</text>
</a>
</g>
</g>
<!-- 2466&#45;&gt;6487 -->
<g id="edge66" class="edge"><title>2466&#45;&gt;6487</title>
<path fill="none" stroke="black" d="M1501.02,-755.131C1499.5,-711.465 1496.14,-614.582 1494.74,-574.285"/>
</g>
<!-- 6634 -->
<g id="node13" class="node"><title>6634</title>
<g id="a_node13"><a xlink:title="6th_week">
<ellipse fill="#c81d25" stroke="black" cx="1333.74" cy="-853.763" rx="28.6953" ry="18"/>
<text text-anchor="middle" x="1333.74" y="-850.063" font-family="Times,serif" font-size="14.00">6634</text>
</a>
</g>
</g>
<!-- 2466&#45;&gt;6634 -->
<g id="edge67" class="edge"><title>2466&#45;&gt;6634</title>
<path fill="none" stroke="black" d="M1474.41,-789.61C1441.76,-804.497 1387.77,-829.123 1357.04,-843.138"/>
</g>
<!-- 6873 -->
<g id="node14" class="node"><title>6873</title>
<g id="a_node14"><a xlink:title="6th_week">
<ellipse fill="#c81d25" stroke="black" cx="1518.45" cy="-941.121" rx="28.6953" ry="18"/>
<text text-anchor="middle" x="1518.45" y="-937.421" font-family="Times,serif" font-size="14.00">6873</text>
</a>
</g>
</g>
<!-- 2466&#45;&gt;6873 -->
<g id="edge32" class="edge"><title>2466&#45;&gt;6873</title>
<path fill="none" stroke="black" d="M1504.03,-799.243C1507.35,-831.942 1513.51,-892.574 1516.59,-922.883"/>
</g>
<!-- 6976 -->
<g id="node15" class="node"><title>6976</title>
<g id="a_node15"><a xlink:title="6th_week">
<ellipse fill="#c81d25" stroke="black" cx="1384.71" cy="-916.926" rx="28.6953" ry="18"/>
<text text-anchor="middle" x="1384.71" y="-913.226" font-family="Times,serif" font-size="14.00">6976</text>
</a>
</g>
</g>
<!-- 2466&#45;&gt;6976 -->
<g id="edge42" class="edge"><title>2466&#45;&gt;6976</title>
<path fill="none" stroke="black" d="M1485.5,-796.565C1462.25,-824.324 1419.97,-874.819 1398.3,-900.693"/>
</g>
<!-- 7849 -->
<g id="node18" class="node"><title>7849</title>
<g id="a_node18"><a xlink:title="6th_week">
<ellipse fill="#c81d25" stroke="black" cx="1048.86" cy="-1077.05" rx="28.6953" ry="18"/>
<text text-anchor="middle" x="1048.86" y="-1073.35" font-family="Times,serif" font-size="14.00">7849</text>
</a>
</g>
</g>
<!-- 2466&#45;&gt;7849 -->
<g id="edge5" class="edge"><title>2466&#45;&gt;7849</title>
<path fill="none" stroke="black" d="M1478.38,-792.62C1399.22,-845.039 1142.29,-1015.18 1068.71,-1063.9"/>
</g>
<!-- 9323 -->
<g id="node20" class="node"><title>9323</title>
<g id="a_node20"><a xlink:title="3rd_week">
<ellipse fill="#ee9898" stroke="black" cx="1314" cy="-779.521" rx="28.6953" ry="18"/>
<text text-anchor="middle" x="1314" y="-775.821" font-family="Times,serif" font-size="14.00">9323</text>
</a>
</g>
</g>
<!-- 2466&#45;&gt;9323 -->
<g id="edge8" class="edge"><title>2466&#45;&gt;9323</title>
<path fill="none" stroke="black" d="M1469.07,-777.544C1433.34,-777.999 1376.68,-778.722 1342.65,-779.156"/>
</g>
<!-- 9651 -->
<g id="node22" class="node"><title>9651</title>
<g id="a_node22"><a xlink:title="6th_week">
<ellipse fill="#c81d25" stroke="black" cx="1386.49" cy="-638.736" rx="28.6953" ry="18"/>
<text text-anchor="middle" x="1386.49" y="-635.036" font-family="Times,serif" font-size="14.00">9651</text>
</a>
</g>
</g>
<!-- 2466&#45;&gt;9651 -->
<g id="edge38" class="edge"><title>2466&#45;&gt;9651</title>
<path fill="none" stroke="black" d="M1485.75,-757.884C1462.86,-730.404 1421.22,-680.419 1399.88,-654.806"/>
</g>
<!-- 11108 -->
<g id="node27" class="node"><title>11108</title>
<g id="a_node27"><a xlink:title="6th_week">
<ellipse fill="#c81d25" stroke="black" cx="1606.61" cy="-1007.74" rx="32.4942" ry="18"/>
<text text-anchor="middle" x="1606.61" y="-1004.04" font-family="Times,serif" font-size="14.00">11108</text>
</a>
</g>
</g>
<!-- 2466&#45;&gt;11108 -->
<g id="edge2" class="edge"><title>2466&#45;&gt;11108</title>
<path fill="none" stroke="black" d="M1511.45,-798.408C1531.98,-843.567 1579.58,-948.26 1598.57,-990.047"/>
</g>
<!-- 11590 -->
<g id="node29" class="node"><title>11590</title>
<g id="a_node29"><a xlink:title="6th_week">
<ellipse fill="#c81d25" stroke="black" cx="1589.07" cy="-934.856" rx="32.4942" ry="18"/>
<text text-anchor="middle" x="1589.07" y="-931.156" font-family="Times,serif" font-size="14.00">11590</text>
</a>
</g>
</g>
<!-- 2466&#45;&gt;11590 -->
<g id="edge46" class="edge"><title>2466&#45;&gt;11590</title>
<path fill="none" stroke="black" d="M1513.19,-797.747C1530.57,-829.145 1563.35,-888.371 1579.53,-917.619"/>
</g>
<!-- 12808 -->
<g id="node33" class="node"><title>12808</title>
<g id="a_node33"><a xlink:title="6th_week">
<ellipse fill="#c81d25" stroke="black" cx="1931.09" cy="-610.214" rx="32.4942" ry="18"/>
<text text-anchor="middle" x="1931.09" y="-606.514" font-family="Times,serif" font-size="14.00">12808</text>
</a>
</g>
</g>
<!-- 2466&#45;&gt;12808 -->
<g id="edge40" class="edge"><title>2466&#45;&gt;12808</title>
<path fill="none" stroke="black" d="M1530.28,-766.046C1608.84,-735.501 1827.73,-650.398 1904.26,-620.644"/>
</g>
<!-- 12820 -->
<g id="node34" class="node"><title>12820</title>
<g id="a_node34"><a xlink:title="6th_week">
<ellipse fill="#c81d25" stroke="black" cx="1454.64" cy="-462.725" rx="32.4942" ry="18"/>
<text text-anchor="middle" x="1454.64" y="-459.025" font-family="Times,serif" font-size="14.00">12820</text>
</a>
</g>
</g>
<!-- 2466&#45;&gt;12820 -->
<g id="edge33" class="edge"><title>2466&#45;&gt;12820</title>
<path fill="none" stroke="black" d="M1498.46,-755.018C1489.6,-695.894 1465.47,-534.955 1457.35,-480.79"/>
</g>
<!-- 14736 -->
<g id="node40" class="node"><title>14736</title>
<g id="a_node40"><a xlink:title="3rd_week">
<ellipse fill="#ee9898" stroke="black" cx="1316.14" cy="-640.878" rx="32.4942" ry="18"/>
<text text-anchor="middle" x="1316.14" y="-637.178" font-family="Times,serif" font-size="14.00">14736</text>
</a>
</g>
</g>
<!-- 2466&#45;&gt;14736 -->
<g id="edge59" class="edge"><title>2466&#45;&gt;14736</title>
<path fill="none" stroke="black" d="M1479.39,-760.692C1442.74,-733.796 1370.57,-680.825 1335.79,-655.3"/>
</g>
<!-- 15095 -->
<g id="node41" class="node"><title>15095</title>
<g id="a_node41"><a xlink:title="3rd_week">
<ellipse fill="#ee9898" stroke="black" cx="1744.07" cy="-685.333" rx="32.4942" ry="18"/>
<text text-anchor="middle" x="1744.07" y="-681.633" font-family="Times,serif" font-size="14.00">15095</text>
</a>
</g>
</g>
<!-- 2466&#45;&gt;15095 -->
<g id="edge19" class="edge"><title>2466&#45;&gt;15095</title>
<path fill="none" stroke="black" d="M1530.52,-766.236C1577.78,-748.332 1671.23,-712.931 1717.22,-695.507"/>
</g>
<!-- 16331 -->
<g id="node44" class="node"><title>16331</title>
<g id="a_node44"><a xlink:title="6th_week">
<ellipse fill="#c81d25" stroke="black" cx="1691.81" cy="-974.104" rx="32.4942" ry="18"/>
<text text-anchor="middle" x="1691.81" y="-970.404" font-family="Times,serif" font-size="14.00">16331</text>
</a>
</g>
</g>
<!-- 2466&#45;&gt;16331 -->
<g id="edge24" class="edge"><title>2466&#45;&gt;16331</title>
<path fill="none" stroke="black" d="M1519.66,-795.658C1556.71,-834.062 1641.32,-921.77 1676.27,-957.994"/>
</g>
<!-- 17157 -->
<g id="node47" class="node"><title>17157</title>
<g id="a_node47"><a xlink:title="3rd_week,6th_week">
<ellipse fill="#ee9898" stroke="black" cx="1773.51" cy="-848.981" rx="32.4945" ry="18"/>
<ellipse fill="none" stroke="black" cx="1773.51" cy="-848.981" rx="36.4942" ry="22"/>
<text text-anchor="middle" x="1773.51" y="-845.281" font-family="Times,serif" font-size="14.00">17157</text>
</a>
</g>
</g>
<!-- 2466&#45;&gt;17157 -->
<g id="edge47" class="edge"><title>2466&#45;&gt;17157</title>
<path fill="none" stroke="black" d="M1532.16,-785.16C1583.4,-798.71 1686.63,-826.005 1739.94,-840.103"/>
</g>
<!-- 17775 -->
<g id="node49" class="node"><title>17775</title>
<g id="a_node49"><a xlink:title="6th_week">
<ellipse fill="#c81d25" stroke="black" cx="1434.84" cy="-979.474" rx="32.4942" ry="18"/>
<text text-anchor="middle" x="1434.84" y="-975.774" font-family="Times,serif" font-size="14.00">17775</text>
</a>
</g>
</g>
<!-- 2466&#45;&gt;17775 -->
<g id="edge58" class="edge"><title>2466&#45;&gt;17775</title>
<path fill="none" stroke="black" d="M1494.62,-798.781C1481.33,-838.951 1453.09,-924.3 1440.78,-961.506"/>
</g>
<!-- 17950 -->
<g id="node50" class="node"><title>17950</title>
<g id="a_node50"><a xlink:title="6th_week">
<ellipse fill="#c81d25" stroke="black" cx="1424.71" cy="-563.771" rx="32.4942" ry="18"/>
<text text-anchor="middle" x="1424.71" y="-560.071" font-family="Times,serif" font-size="14.00">17950</text>
</a>
</g>
</g>
<!-- 2466&#45;&gt;17950 -->
<g id="edge1" class="edge"><title>2466&#45;&gt;17950</title>
<path fill="none" stroke="black" d="M1493.97,-755.495C1478.7,-713.225 1445.17,-620.402 1431.11,-581.488"/>
</g>
<!-- 18981 -->
<g id="node52" class="node"><title>18981</title>
<g id="a_node52"><a xlink:title="6th_week">
<ellipse fill="#c81d25" stroke="black" cx="1699.43" cy="-624.061" rx="32.4942" ry="18"/>
<text text-anchor="middle" x="1699.43" y="-620.361" font-family="Times,serif" font-size="14.00">18981</text>
</a>
</g>
</g>
<!-- 2466&#45;&gt;18981 -->
<g id="edge4" class="edge"><title>2466&#45;&gt;18981</title>
<path fill="none" stroke="black" d="M1523.31,-760.454C1562.13,-730.391 1643.26,-667.564 1680.28,-638.896"/>
</g>
<!-- 19554 -->
<g id="node53" class="node"><title>19554</title>
<g id="a_node53"><a xlink:title="6th_week">
<ellipse fill="#c81d25" stroke="black" cx="1319.3" cy="-520.642" rx="32.4942" ry="18"/>
<text text-anchor="middle" x="1319.3" y="-516.942" font-family="Times,serif" font-size="14.00">19554</text>
</a>
</g>
</g>
<!-- 2466&#45;&gt;19554 -->
<g id="edge60" class="edge"><title>2466&#45;&gt;19554</title>
<path fill="none" stroke="black" d="M1487.46,-757C1452.59,-707.992 1363.77,-583.146 1331.36,-537.6"/>
</g>
<!-- 20602 -->
<g id="node56" class="node"><title>20602</title>
<g id="a_node56"><a xlink:title="6th_week">
<ellipse fill="#c81d25" stroke="black" cx="1294.45" cy="-710.217" rx="32.4942" ry="18"/>
<text text-anchor="middle" x="1294.45" y="-706.517" font-family="Times,serif" font-size="14.00">20602</text>
</a>
</g>
</g>
<!-- 2466&#45;&gt;20602 -->
<g id="edge10" class="edge"><title>2466&#45;&gt;20602</title>
<path fill="none" stroke="black" d="M1472.07,-767.54C1432.21,-754.676 1361.91,-731.988 1322.77,-719.356"/>
</g>
<!-- 21081 -->
<g id="node58" class="node"><title>21081</title>
<g id="a_node58"><a xlink:title="6th_week">
<ellipse fill="#c81d25" stroke="black" cx="1725.63" cy="-916.597" rx="32.4942" ry="18"/>
<text text-anchor="middle" x="1725.63" y="-912.897" font-family="Times,serif" font-size="14.00">21081</text>
</a>
</g>
</g>
<!-- 2466&#45;&gt;21081 -->
<g id="edge11" class="edge"><title>2466&#45;&gt;21081</title>
<path fill="none" stroke="black" d="M1525.73,-792.052C1569.5,-819.318 1661.73,-876.782 1703.83,-903.018"/>
</g>
<!-- 21490 -->
<g id="node61" class="node"><title>21490</title>
<g id="a_node61"><a xlink:title="3rd_week">
<ellipse fill="#ee9898" stroke="black" cx="1515.91" cy="-1011.45" rx="32.4942" ry="18"/>
<text text-anchor="middle" x="1515.91" y="-1007.75" font-family="Times,serif" font-size="14.00">21490</text>
</a>
</g>
</g>
<!-- 2466&#45;&gt;21490 -->
<g id="edge57" class="edge"><title>2466&#45;&gt;21490</title>
<path fill="none" stroke="black" d="M1503.11,-799.171C1505.88,-845.197 1512.25,-950.754 1514.81,-993.239"/>
</g>
<!-- 22720 -->
<g id="node66" class="node"><title>22720</title>
<g id="a_node66"><a xlink:title="3rd_week">
<ellipse fill="#ee9898" stroke="black" cx="1659.02" cy="-577.429" rx="32.4942" ry="18"/>
<text text-anchor="middle" x="1659.02" y="-573.729" font-family="Times,serif" font-size="14.00">22720</text>
</a>
</g>
</g>
<!-- 2466&#45;&gt;22720 -->
<g id="edge62" class="edge"><title>2466&#45;&gt;22720</title>
<path fill="none" stroke="black" d="M1517.14,-757.615C1547.98,-718.456 1616.92,-630.903 1645.85,-594.163"/>
</g>
<!-- 10062 -->
<g id="node67" class="node"><title>10062</title>
<g id="a_node67"><a xlink:title="6th_week">
<ellipse fill="#c81d25" stroke="black" cx="1762.27" cy="-770.967" rx="32.4942" ry="18"/>
<text text-anchor="middle" x="1762.27" y="-767.267" font-family="Times,serif" font-size="14.00">10062</text>
</a>
</g>
</g>
<!-- 2466&#45;&gt;10062 -->
<g id="edge61" class="edge"><title>2466&#45;&gt;10062</title>
<path fill="none" stroke="black" d="M1534.51,-776.353C1584.52,-775.17 1679.42,-772.926 1729.47,-771.742"/>
</g>
<!-- 22080 -->
<g id="node68" class="node"><title>22080</title>
<g id="a_node68"><a xlink:title="6th_week">
<ellipse fill="#c81d25" stroke="black" cx="1571.88" cy="-620.246" rx="32.4942" ry="18"/>
<text text-anchor="middle" x="1571.88" y="-616.546" font-family="Times,serif" font-size="14.00">22080</text>
</a>
</g>
</g>
<!-- 2466&#45;&gt;22080 -->
<g id="edge41" class="edge"><title>2466&#45;&gt;22080</title>
<path fill="none" stroke="black" d="M1511.23,-755.969C1525.13,-724.856 1550.85,-667.307 1563.87,-638.161"/>
</g>
<!-- 2769 -->
<g id="node5" class="node"><title>2769</title>
<g id="a_node5"><a xlink:title="6th_week">
<ellipse fill="#c81d25" stroke="black" cx="286.712" cy="-1637.14" rx="28.6953" ry="18"/>
<text text-anchor="middle" x="286.712" y="-1633.44" font-family="Times,serif" font-size="14.00">2769</text>
</a>
</g>
</g>
<!-- 9934 -->
<g id="node23" class="node"><title>9934</title>
<g id="a_node23"><a xlink:title="6th_week">
<ellipse fill="#c81d25" stroke="black" cx="260.512" cy="-1463.14" rx="28.6953" ry="18"/>
<text text-anchor="middle" x="260.512" y="-1459.44" font-family="Times,serif" font-size="14.00">9934</text>
</a>
</g>
</g>
<!-- 2769&#45;&gt;9934 -->
<g id="edge27" class="edge"><title>2769&#45;&gt;9934</title>
<path fill="none" stroke="black" d="M284.007,-1619.17C278.986,-1585.83 268.28,-1514.73 263.241,-1481.27"/>
</g>
<!-- 3076 -->
<g id="node6" class="node"><title>3076</title>
<g id="a_node6"><a xlink:title="6th_week">
<ellipse fill="#c81d25" stroke="black" cx="922.734" cy="-925.096" rx="28.6953" ry="18"/>
<text text-anchor="middle" x="922.734" y="-921.396" font-family="Times,serif" font-size="14.00">3076</text>
</a>
</g>
</g>
<!-- 3076&#45;&gt;7849 -->
<g id="edge39" class="edge"><title>3076&#45;&gt;7849</title>
<path fill="none" stroke="black" d="M935.993,-941.07C960.154,-970.177 1011.09,-1031.54 1035.4,-1060.83"/>
</g>
<!-- 4685 -->
<g id="node7" class="node"><title>4685</title>
<g id="a_node7"><a xlink:title="6th_week">
<ellipse fill="#c81d25" stroke="black" cx="1062.22" cy="-1287.68" rx="28.6953" ry="18"/>
<text text-anchor="middle" x="1062.22" y="-1283.98" font-family="Times,serif" font-size="14.00">4685</text>
</a>
</g>
</g>
<!-- 4685&#45;&gt;7849 -->
<g id="edge12" class="edge"><title>4685&#45;&gt;7849</title>
<path fill="none" stroke="black" d="M1061.06,-1269.36C1058.53,-1229.42 1052.53,-1134.94 1050.01,-1095.18"/>
</g>
<!-- 5492 -->
<g id="node9" class="node"><title>5492</title>
<g id="a_node9"><a xlink:title="6th_week">
<ellipse fill="#c81d25" stroke="black" cx="980.806" cy="-1568.98" rx="28.6953" ry="18"/>
<text text-anchor="middle" x="980.806" y="-1565.28" font-family="Times,serif" font-size="14.00">5492</text>
</a>
</g>
</g>
<!-- 10344 -->
<g id="node25" class="node"><title>10344</title>
<g id="a_node25"><a xlink:title="6th_week">
<ellipse fill="#c81d25" stroke="black" cx="1001.7" cy="-1363.27" rx="32.4942" ry="18"/>
<text text-anchor="middle" x="1001.7" y="-1359.57" font-family="Times,serif" font-size="14.00">10344</text>
</a>
</g>
</g>
<!-- 5492&#45;&gt;10344 -->
<g id="edge49" class="edge"><title>5492&#45;&gt;10344</title>
<path fill="none" stroke="black" d="M982.66,-1550.73C986.625,-1511.69 995.888,-1420.49 999.849,-1381.49"/>
</g>
<!-- 6275 -->
<g id="node11" class="node"><title>6275</title>
<g id="a_node11"><a xlink:title="6th_week">
<ellipse fill="#c81d25" stroke="black" cx="2383.04" cy="-274.135" rx="28.6953" ry="18"/>
<text text-anchor="middle" x="2383.04" y="-270.435" font-family="Times,serif" font-size="14.00">6275</text>
</a>
</g>
</g>
<!-- 6275&#45;&gt;7310 -->
<g id="edge17" class="edge"><title>6275&#45;&gt;7310</title>
<path fill="none" stroke="black" d="M2375.82,-291.886C2361.17,-327.94 2328.07,-409.355 2313.48,-445.253"/>
</g>
<!-- 7310&#45;&gt;9955 -->
<g id="edge30" class="edge"><title>7310&#45;&gt;9955</title>
<path fill="none" stroke="black" d="M2330.17,-452.839C2393.5,-426.314 2565.49,-354.276 2629.01,-327.67"/>
</g>
<!-- 7310&#45;&gt;12808 -->
<g id="edge64" class="edge"><title>7310&#45;&gt;12808</title>
<path fill="none" stroke="black" d="M2282.01,-472.377C2214.85,-498.755 2027.28,-572.43 1957.6,-599.801"/>
</g>
<!-- 19568 -->
<g id="node54" class="node"><title>19568</title>
<g id="a_node54"><a xlink:title="6th_week">
<ellipse fill="#c81d25" stroke="black" cx="2515.56" cy="-456.577" rx="32.4942" ry="18"/>
<text text-anchor="middle" x="2515.56" y="-452.877" font-family="Times,serif" font-size="14.00">19568</text>
</a>
</g>
</g>
<!-- 7310&#45;&gt;19568 -->
<g id="edge65" class="edge"><title>7310&#45;&gt;19568</title>
<path fill="none" stroke="black" d="M2334.99,-461.964C2373.6,-460.812 2442.16,-458.767 2482.78,-457.555"/>
</g>
<!-- 21706 -->
<g id="node64" class="node"><title>21706</title>
<g id="a_node64"><a xlink:title="6th_week">
<ellipse fill="#c81d25" stroke="black" cx="2471.27" cy="-338.242" rx="32.4942" ry="18"/>
<text text-anchor="middle" x="2471.27" y="-334.542" font-family="Times,serif" font-size="14.00">21706</text>
</a>
</g>
</g>
<!-- 7310&#45;&gt;21706 -->
<g id="edge22" class="edge"><title>7310&#45;&gt;21706</title>
<path fill="none" stroke="black" d="M2324.94,-448.771C2356.44,-424.972 2420,-376.965 2451.97,-352.815"/>
</g>
<!-- 7318 -->
<g id="node17" class="node"><title>7318</title>
<g id="a_node17"><a xlink:title="6th_week">
<ellipse fill="#c81d25" stroke="black" cx="3135.77" cy="-250.082" rx="28.6953" ry="18"/>
<text text-anchor="middle" x="3135.77" y="-246.382" font-family="Times,serif" font-size="14.00">7318</text>
</a>
</g>
</g>
<!-- 8074 -->
<g id="node19" class="node"><title>8074</title>
<g id="a_node19"><a xlink:title="6th_week">
<ellipse fill="#c81d25" stroke="black" cx="2923.47" cy="-204.813" rx="28.6953" ry="18"/>
<text text-anchor="middle" x="2923.47" y="-201.113" font-family="Times,serif" font-size="14.00">8074</text>
</a>
</g>
</g>
<!-- 7318&#45;&gt;8074 -->
<g id="edge63" class="edge"><title>7318&#45;&gt;8074</title>
<path fill="none" stroke="black" d="M3108.45,-244.256C3067.69,-235.564 2991.39,-219.295 2950.68,-210.616"/>
</g>
<!-- 7849&#45;&gt;10344 -->
<g id="edge14" class="edge"><title>7849&#45;&gt;10344</title>
<path fill="none" stroke="black" d="M1045.91,-1094.95C1037.46,-1146.23 1013.23,-1293.28 1004.71,-1345.01"/>
</g>
<!-- 12509 -->
<g id="node32" class="node"><title>12509</title>
<g id="a_node32"><a xlink:title="6th_week">
<ellipse fill="#c81d25" stroke="black" cx="889.096" cy="-1222.54" rx="32.4942" ry="18"/>
<text text-anchor="middle" x="889.096" y="-1218.84" font-family="Times,serif" font-size="14.00">12509</text>
</a>
</g>
</g>
<!-- 7849&#45;&gt;12509 -->
<g id="edge52" class="edge"><title>7849&#45;&gt;12509</title>
<path fill="none" stroke="black" d="M1032.36,-1092.07C1001.91,-1119.8 937.148,-1178.78 906.225,-1206.94"/>
</g>
<!-- 13794 -->
<g id="node38" class="node"><title>13794</title>
<g id="a_node38"><a xlink:title="6th_week">
<ellipse fill="#c81d25" stroke="black" cx="992.008" cy="-1270.11" rx="32.4942" ry="18"/>
<text text-anchor="middle" x="992.008" y="-1266.41" font-family="Times,serif" font-size="14.00">13794</text>
</a>
</g>
</g>
<!-- 7849&#45;&gt;13794 -->
<g id="edge7" class="edge"><title>7849&#45;&gt;13794</title>
<path fill="none" stroke="black" d="M1043.61,-1094.86C1032.78,-1131.64 1008.06,-1215.59 997.242,-1252.33"/>
</g>
<!-- 14323 -->
<g id="node39" class="node"><title>14323</title>
<g id="a_node39"><a xlink:title="6th_week">
<ellipse fill="#c81d25" stroke="black" cx="851.853" cy="-963.311" rx="32.4942" ry="18"/>
<text text-anchor="middle" x="851.853" y="-959.611" font-family="Times,serif" font-size="14.00">14323</text>
</a>
</g>
</g>
<!-- 7849&#45;&gt;14323 -->
<g id="edge36" class="edge"><title>7849&#45;&gt;14323</title>
<path fill="none" stroke="black" d="M1027.78,-1064.88C990.454,-1043.33 913.072,-998.654 874.596,-976.442"/>
</g>
<!-- 17002 -->
<g id="node45" class="node"><title>17002</title>
<g id="a_node45"><a xlink:title="6th_week">
<ellipse fill="#c81d25" stroke="black" cx="821.723" cy="-1030.22" rx="32.4942" ry="18"/>
<text text-anchor="middle" x="821.723" y="-1026.52" font-family="Times,serif" font-size="14.00">17002</text>
</a>
</g>
</g>
<!-- 7849&#45;&gt;17002 -->
<g id="edge37" class="edge"><title>7849&#45;&gt;17002</title>
<path fill="none" stroke="black" d="M1021.46,-1071.4C978.868,-1062.62 897.041,-1045.75 852.481,-1036.56"/>
</g>
<!-- 17119 -->
<g id="node46" class="node"><title>17119</title>
<g id="a_node46"><a xlink:title="6th_week">
<ellipse fill="#c81d25" stroke="black" cx="831.882" cy="-1102.07" rx="32.4942" ry="18"/>
<text text-anchor="middle" x="831.882" y="-1098.37" font-family="Times,serif" font-size="14.00">17119</text>
</a>
</g>
</g>
<!-- 7849&#45;&gt;17119 -->
<g id="edge53" class="edge"><title>7849&#45;&gt;17119</title>
<path fill="none" stroke="black" d="M1020.49,-1080.32C980.059,-1084.98 906.074,-1093.52 863.782,-1098.4"/>
</g>
<!-- 17307 -->
<g id="node48" class="node"><title>17307</title>
<g id="a_node48"><a xlink:title="6th_week">
<ellipse fill="#c81d25" stroke="black" cx="627.849" cy="-1269.26" rx="32.4942" ry="18"/>
<text text-anchor="middle" x="627.849" y="-1265.56" font-family="Times,serif" font-size="14.00">17307</text>
</a>
</g>
</g>
<!-- 7849&#45;&gt;17307 -->
<g id="edge56" class="edge"><title>7849&#45;&gt;17307</title>
<path fill="none" stroke="black" d="M1025.63,-1087.66C952.707,-1120.95 728.769,-1223.18 653.118,-1257.72"/>
</g>
<!-- 21543 -->
<g id="node62" class="node"><title>21543</title>
<g id="a_node62"><a xlink:title="6th_week">
<ellipse fill="#c81d25" stroke="black" cx="1154.97" cy="-1252.33" rx="32.4942" ry="18"/>
<text text-anchor="middle" x="1154.97" y="-1248.63" font-family="Times,serif" font-size="14.00">21543</text>
</a>
</g>
</g>
<!-- 7849&#45;&gt;21543 -->
<g id="edge55" class="edge"><title>7849&#45;&gt;21543</title>
<path fill="none" stroke="black" d="M1059.23,-1094.17C1079.51,-1127.68 1124.24,-1201.57 1144.56,-1235.13"/>
</g>
<!-- 21638 -->
<g id="node63" class="node"><title>21638</title>
<g id="a_node63"><a xlink:title="6th_week">
<ellipse fill="#c81d25" stroke="black" cx="833.133" cy="-1175.45" rx="32.4942" ry="18"/>
<text text-anchor="middle" x="833.133" y="-1171.75" font-family="Times,serif" font-size="14.00">21638</text>
</a>
</g>
</g>
<!-- 7849&#45;&gt;21638 -->
<g id="edge9" class="edge"><title>7849&#45;&gt;21638</title>
<path fill="none" stroke="black" d="M1025.36,-1087.77C984.412,-1106.44 900.327,-1144.8 858.261,-1163.99"/>
</g>
<!-- 8074&#45;&gt;9955 -->
<g id="edge50" class="edge"><title>8074&#45;&gt;9955</title>
<path fill="none" stroke="black" d="M2899.47,-214.824C2848.14,-236.231 2728.23,-286.245 2676.95,-307.632"/>
</g>
<!-- 12094 -->
<g id="node31" class="node"><title>12094</title>
<g id="a_node31"><a xlink:title="6th_week">
<ellipse fill="#c81d25" stroke="black" cx="3115.82" cy="-77.2503" rx="32.4942" ry="18"/>
<text text-anchor="middle" x="3115.82" y="-73.5503" font-family="Times,serif" font-size="14.00">12094</text>
</a>
</g>
</g>
<!-- 8074&#45;&gt;12094 -->
<g id="edge20" class="edge"><title>8074&#45;&gt;12094</title>
<path fill="none" stroke="black" d="M2943.33,-191.642C2979.9,-167.389 3057.56,-115.888 3094.91,-91.1208"/>
</g>
<!-- 15195 -->
<g id="node42" class="node"><title>15195</title>
<g id="a_node42"><a xlink:title="6th_week">
<ellipse fill="#c81d25" stroke="black" cx="3044.17" cy="-17.7946" rx="32.4942" ry="18"/>
<text text-anchor="middle" x="3044.17" y="-14.0946" font-family="Times,serif" font-size="14.00">15195</text>
</a>
</g>
</g>
<!-- 8074&#45;&gt;15195 -->
<g id="edge21" class="edge"><title>8074&#45;&gt;15195</title>
<path fill="none" stroke="black" d="M2934.39,-187.887C2957.31,-152.371 3010.21,-70.4179 3033.18,-34.8177"/>
</g>
<!-- 20721 -->
<g id="node57" class="node"><title>20721</title>
<g id="a_node57"><a xlink:title="6th_week">
<ellipse fill="#c81d25" stroke="black" cx="3149.14" cy="-158.238" rx="32.4942" ry="18"/>
<text text-anchor="middle" x="3149.14" y="-154.538" font-family="Times,serif" font-size="14.00">20721</text>
</a>
</g>
</g>
<!-- 8074&#45;&gt;20721 -->
<g id="edge48" class="edge"><title>8074&#45;&gt;20721</title>
<path fill="none" stroke="black" d="M2950.69,-199.195C2993.01,-190.461 3074.31,-173.682 3118.58,-164.545"/>
</g>
<!-- 9522 -->
<g id="node21" class="node"><title>9522</title>
<g id="a_node21"><a xlink:title="6th_week">
<ellipse fill="#c81d25" stroke="black" cx="140.842" cy="-1530.78" rx="28.6953" ry="18"/>
<text text-anchor="middle" x="140.842" y="-1527.08" font-family="Times,serif" font-size="14.00">9522</text>
</a>
</g>
</g>
<!-- 9522&#45;&gt;9934 -->
<g id="edge3" class="edge"><title>9522&#45;&gt;9934</title>
<path fill="none" stroke="black" d="M162.237,-1518.69C183.884,-1506.45 217.173,-1487.63 238.899,-1475.35"/>
</g>
<!-- 10636 -->
<g id="node26" class="node"><title>10636</title>
<g id="a_node26"><a xlink:title="6th_week">
<ellipse fill="#c81d25" stroke="black" cx="32.2958" cy="-1497.73" rx="32.4942" ry="18"/>
<text text-anchor="middle" x="32.2958" y="-1494.03" font-family="Times,serif" font-size="14.00">10636</text>
</a>
</g>
</g>
<!-- 9934&#45;&gt;10636 -->
<g id="edge26" class="edge"><title>9934&#45;&gt;10636</title>
<path fill="none" stroke="black" d="M232.528,-1467.38C189.798,-1473.85 108.548,-1486.17 63.8036,-1492.95"/>
</g>
<!-- 11124 -->
<g id="node28" class="node"><title>11124</title>
<g id="a_node28"><a xlink:title="6th_week">
<ellipse fill="#c81d25" stroke="black" cx="41.5432" cy="-1428.29" rx="32.4942" ry="18"/>
<text text-anchor="middle" x="41.5432" y="-1424.59" font-family="Times,serif" font-size="14.00">11124</text>
</a>
</g>
</g>
<!-- 9934&#45;&gt;11124 -->
<g id="edge51" class="edge"><title>9934&#45;&gt;11124</title>
<path fill="none" stroke="black" d="M232.779,-1458.72C191.925,-1452.22 115.788,-1440.11 72.9361,-1433.29"/>
</g>
<!-- 13664 -->
<g id="node37" class="node"><title>13664</title>
<g id="a_node37"><a xlink:title="6th_week">
<ellipse fill="#c81d25" stroke="black" cx="46.6397" cy="-1583.49" rx="32.4942" ry="18"/>
<text text-anchor="middle" x="46.6397" y="-1579.79" font-family="Times,serif" font-size="14.00">13664</text>
</a>
</g>
</g>
<!-- 9934&#45;&gt;13664 -->
<g id="edge15" class="edge"><title>9934&#45;&gt;13664</title>
<path fill="none" stroke="black" d="M238.827,-1475.34C198.261,-1498.17 111.245,-1547.14 69.6721,-1570.53"/>
</g>
<!-- 15781 -->
<g id="node43" class="node"><title>15781</title>
<g id="a_node43"><a xlink:title="6th_week">
<ellipse fill="#c81d25" stroke="black" cx="127.211" cy="-1307.39" rx="32.4942" ry="18"/>
<text text-anchor="middle" x="127.211" y="-1303.69" font-family="Times,serif" font-size="14.00">15781</text>
</a>
</g>
</g>
<!-- 9934&#45;&gt;15781 -->
<g id="edge54" class="edge"><title>9934&#45;&gt;15781</title>
<path fill="none" stroke="black" d="M246.748,-1447.06C221.338,-1417.37 167.304,-1354.23 141.503,-1324.09"/>
</g>
<!-- 9934&#45;&gt;17307 -->
<g id="edge29" class="edge"><title>9934&#45;&gt;17307</title>
<path fill="none" stroke="black" d="M282.663,-1451.44C347.656,-1417.14 537.449,-1316.97 604.253,-1281.71"/>
</g>
<!-- 18730 -->
<g id="node51" class="node"><title>18730</title>
<g id="a_node51"><a xlink:title="6th_week">
<ellipse fill="#c81d25" stroke="black" cx="61.8104" cy="-1358.22" rx="32.4942" ry="18"/>
<text text-anchor="middle" x="61.8104" y="-1354.52" font-family="Times,serif" font-size="14.00">18730</text>
</a>
</g>
</g>
<!-- 9934&#45;&gt;18730 -->
<g id="edge23" class="edge"><title>9934&#45;&gt;18730</title>
<path fill="none" stroke="black" d="M238.488,-1451.51C200.799,-1431.61 124.255,-1391.19 85.4719,-1370.71"/>
</g>
<!-- 20019 -->
<g id="node55" class="node"><title>20019</title>
<g id="a_node55"><a xlink:title="6th_week">
<ellipse fill="#c81d25" stroke="black" cx="128.783" cy="-1632.87" rx="32.4942" ry="18"/>
<text text-anchor="middle" x="128.783" y="-1629.17" font-family="Times,serif" font-size="14.00">20019</text>
</a>
</g>
</g>
<!-- 9934&#45;&gt;20019 -->
<g id="edge25" class="edge"><title>9934&#45;&gt;20019</title>
<path fill="none" stroke="black" d="M247.881,-1479.41C222.831,-1511.69 167.097,-1583.5 141.764,-1616.15"/>
</g>
<!-- 21156 -->
<g id="node60" class="node"><title>21156</title>
<g id="a_node60"><a xlink:title="6th_week">
<ellipse fill="#c81d25" stroke="black" cx="203.133" cy="-1659.08" rx="32.4942" ry="18"/>
<text text-anchor="middle" x="203.133" y="-1655.38" font-family="Times,serif" font-size="14.00">21156</text>
</a>
</g>
</g>
<!-- 9934&#45;&gt;21156 -->
<g id="edge43" class="edge"><title>9934&#45;&gt;21156</title>
<path fill="none" stroke="black" d="M255.319,-1480.87C244.422,-1518.08 219.279,-1603.94 208.356,-1641.24"/>
</g>
<!-- 21121 -->
<g id="node59" class="node"><title>21121</title>
<g id="a_node59"><a xlink:title="6th_week">
<ellipse fill="#c81d25" stroke="black" cx="2760.41" cy="-174.513" rx="32.4942" ry="18"/>
<text text-anchor="middle" x="2760.41" y="-170.813" font-family="Times,serif" font-size="14.00">21121</text>
</a>
</g>
</g>
<!-- 9955&#45;&gt;21121 -->
<g id="edge44" class="edge"><title>9955&#45;&gt;21121</title>
<path fill="none" stroke="black" d="M2665.32,-301.204C2685.93,-273.746 2727.17,-218.802 2747.91,-191.178"/>
</g>
<!-- 12955 -->
<g id="node35" class="node"><title>12955</title>
<g id="a_node35"><a xlink:title="6th_week">
<ellipse fill="#c81d25" stroke="black" cx="1416.43" cy="-241.023" rx="32.4942" ry="18"/>
<text text-anchor="middle" x="1416.43" y="-237.323" font-family="Times,serif" font-size="14.00">12955</text>
</a>
</g>
</g>
<!-- 12820&#45;&gt;12955 -->
<g id="edge13" class="edge"><title>12820&#45;&gt;12955</title>
<path fill="none" stroke="black" d="M1451.51,-444.582C1444.33,-402.905 1426.72,-300.724 1419.55,-259.106"/>
</g>
<!-- 12989 -->
<g id="node36" class="node"><title>12989</title>
<g id="a_node36"><a xlink:title="6th_week">
<ellipse fill="#c81d25" stroke="black" cx="1192.38" cy="-336.876" rx="32.4942" ry="18"/>
<text text-anchor="middle" x="1192.38" y="-333.176" font-family="Times,serif" font-size="14.00">12989</text>
</a>
</g>
</g>
<!-- 12989&#45;&gt;19554 -->
<g id="edge45" class="edge"><title>12989&#45;&gt;19554</title>
<path fill="none" stroke="black" d="M1204.1,-353.835C1228.27,-388.843 1283.46,-468.751 1307.61,-503.724"/>
</g>
<!-- 22069 -->
<g id="node65" class="node"><title>22069</title>
<g id="a_node65"><a xlink:title="6th_week">
<ellipse fill="#c81d25" stroke="black" cx="470.689" cy="-1360.14" rx="32.4942" ry="18"/>
<text text-anchor="middle" x="470.689" y="-1356.44" font-family="Times,serif" font-size="14.00">22069</text>
</a>
</g>
</g>
<!-- 17307&#45;&gt;22069 -->
<g id="edge6" class="edge"><title>17307&#45;&gt;22069</title>
<path fill="none" stroke="black" d="M605.332,-1282.28C575.541,-1299.51 523.317,-1329.71 493.42,-1347"/>
</g>
</g>
</svg>
