<?xml version="1.0" encoding="UTF-8" standalone="no"?>
<!DOCTYPE svg PUBLIC "-//W3C//DTD SVG 1.1//EN"
 "http://www.w3.org/Graphics/SVG/1.1/DTD/svg11.dtd">
<!-- Generated by graphviz version 2.38.0 (20140413.2041)
 -->
<!-- Title: %3 Pages: 1 -->
<svg width="2122pt" height="1321pt"
 viewBox="0.00 0.00 2122.00 1321.00" xmlns="http://www.w3.org/2000/svg" xmlns:xlink="http://www.w3.org/1999/xlink">
<g id="graph0" class="graph" transform="scale(1 1) rotate(0) translate(4 1317)">
<title>%3</title>
<polygon fill="white" stroke="none" points="-4,4 -4,-1317 2118,-1317 2118,4 -4,4"/>
<!-- 272 -->
<g id="node1" class="node"><title>272</title>
<g id="a_node1"><a xlink:title="6th_week">
<ellipse fill="#c81d25" stroke="black" cx="1517.72" cy="-195.526" rx="27" ry="18"/>
<text text-anchor="middle" x="1517.72" y="-191.826" font-family="Times,serif" font-size="14.00">272</text>
</a>
</g>
</g>
<!-- 20260 -->
<g id="node38" class="node"><title>20260</title>
<g id="a_node38"><a xlink:title="6th_week">
<ellipse fill="#c81d25" stroke="black" cx="1505.65" cy="-345.448" rx="32.4942" ry="18"/>
<text text-anchor="middle" x="1505.65" y="-341.748" font-family="Times,serif" font-size="14.00">20260</text>
</a>
</g>
</g>
<!-- 272&#45;&gt;20260 -->
<g id="edge2" class="edge"><title>272&#45;&gt;20260</title>
<path fill="none" stroke="black" d="M1516.27,-213.61C1513.94,-242.426 1509.43,-298.444 1507.11,-327.3"/>
</g>
<!-- 393 -->
<g id="node2" class="node"><title>393</title>
<g id="a_node2"><a xlink:title="6th_week">
<ellipse fill="#c81d25" stroke="black" cx="1511.07" cy="-625.97" rx="27" ry="18"/>
<text text-anchor="middle" x="1511.07" y="-622.27" font-family="Times,serif" font-size="14.00">393</text>
</a>
</g>
</g>
<!-- 16901 -->
<g id="node32" class="node"><title>16901</title>
<g id="a_node32"><a xlink:title="6th_week">
<ellipse fill="#c81d25" stroke="black" cx="1457.2" cy="-509.27" rx="32.4942" ry="18"/>
<text text-anchor="middle" x="1457.2" y="-505.57" font-family="Times,serif" font-size="14.00">16901</text>
</a>
</g>
</g>
<!-- 393&#45;&gt;16901 -->
<g id="edge43" class="edge"><title>393&#45;&gt;16901</title>
<path fill="none" stroke="black" d="M1503.12,-608.751C1492.99,-586.813 1475.58,-549.095 1465.35,-526.942"/>
</g>
<!-- 613 -->
<g id="node3" class="node"><title>613</title>
<g id="a_node3"><a xlink:title="6th_week">
<ellipse fill="#c81d25" stroke="black" cx="1651.41" cy="-54.368" rx="27" ry="18"/>
<text text-anchor="middle" x="1651.41" y="-50.668" font-family="Times,serif" font-size="14.00">613</text>
</a>
</g>
</g>
<!-- 24445 -->
<g id="node42" class="node"><title>24445</title>
<g id="a_node42"><a xlink:title="6th_week">
<ellipse fill="#c81d25" stroke="black" cx="1591.85" cy="-176.751" rx="32.4942" ry="18"/>
<text text-anchor="middle" x="1591.85" y="-173.051" font-family="Times,serif" font-size="14.00">24445</text>
</a>
</g>
</g>
<!-- 613&#45;&gt;24445 -->
<g id="edge22" class="edge"><title>613&#45;&gt;24445</title>
<path fill="none" stroke="black" d="M1643,-71.643C1631.72,-94.8357 1611.77,-135.818 1600.4,-159.168"/>
</g>
<!-- 1597 -->
<g id="node4" class="node"><title>1597</title>
<g id="a_node4"><a xlink:title="6th_week">
<ellipse fill="#c81d25" stroke="black" cx="2062" cy="-594.464" rx="28.6953" ry="18"/>
<text text-anchor="middle" x="2062" y="-590.764" font-family="Times,serif" font-size="14.00">1597</text>
</a>
</g>
</g>
<!-- 24809 -->
<g id="node44" class="node"><title>24809</title>
<g id="a_node44"><a xlink:title="6th_week">
<ellipse fill="#c81d25" stroke="black" cx="1934.53" cy="-537.289" rx="32.4942" ry="18"/>
<text text-anchor="middle" x="1934.53" y="-533.589" font-family="Times,serif" font-size="14.00">24809</text>
</a>
</g>
</g>
<!-- 1597&#45;&gt;24809 -->
<g id="edge56" class="edge"><title>1597&#45;&gt;24809</title>
<path fill="none" stroke="black" d="M2038.62,-583.977C2016.34,-573.983 1982.88,-558.976 1959.95,-548.69"/>
</g>
<!-- 1813 -->
<g id="node5" class="node"><title>1813</title>
<g id="a_node5"><a xlink:title="6th_week">
<ellipse fill="#c81d25" stroke="black" cx="256.062" cy="-1294.55" rx="28.6953" ry="18"/>
<text text-anchor="middle" x="256.062" y="-1290.85" font-family="Times,serif" font-size="14.00">1813</text>
</a>
</g>
</g>
<!-- 22089 -->
<g id="node40" class="node"><title>22089</title>
<g id="a_node40"><a xlink:title="6th_week">
<ellipse fill="#c81d25" stroke="black" cx="352.796" cy="-1193.73" rx="32.4942" ry="18"/>
<text text-anchor="middle" x="352.796" y="-1190.03" font-family="Times,serif" font-size="14.00">22089</text>
</a>
</g>
</g>
<!-- 1813&#45;&gt;22089 -->
<g id="edge41" class="edge"><title>1813&#45;&gt;22089</title>
<path fill="none" stroke="black" d="M271.176,-1278.8C289.243,-1259.97 319.308,-1228.63 337.468,-1209.7"/>
</g>
<!-- 4089 -->
<g id="node6" class="node"><title>4089</title>
<g id="a_node6"><a xlink:title="6th_week">
<ellipse fill="#c81d25" stroke="black" cx="739.417" cy="-155.301" rx="28.6953" ry="18"/>
<text text-anchor="middle" x="739.417" y="-151.601" font-family="Times,serif" font-size="14.00">4089</text>
</a>
</g>
</g>
<!-- 6742 -->
<g id="node14" class="node"><title>6742</title>
<g id="a_node14"><a xlink:title="6th_week">
<ellipse fill="#c81d25" stroke="black" cx="870.391" cy="-223.733" rx="28.6953" ry="18"/>
<text text-anchor="middle" x="870.391" y="-220.033" font-family="Times,serif" font-size="14.00">6742</text>
</a>
</g>
</g>
<!-- 4089&#45;&gt;6742 -->
<g id="edge26" class="edge"><title>4089&#45;&gt;6742</title>
<path fill="none" stroke="black" d="M761.635,-166.91C785.719,-179.493 823.937,-199.462 848.064,-212.068"/>
</g>
<!-- 7083 -->
<g id="node15" class="node"><title>7083</title>
<g id="a_node15"><a xlink:title="6th_week">
<ellipse fill="#c81d25" stroke="black" cx="623.646" cy="-101.328" rx="28.6953" ry="18"/>
<text text-anchor="middle" x="623.646" y="-97.6277" font-family="Times,serif" font-size="14.00">7083</text>
</a>
</g>
</g>
<!-- 4089&#45;&gt;7083 -->
<g id="edge55" class="edge"><title>4089&#45;&gt;7083</title>
<path fill="none" stroke="black" d="M716.267,-144.508C696.075,-135.095 666.936,-121.51 646.756,-112.102"/>
</g>
<!-- 4630 -->
<g id="node7" class="node"><title>4630</title>
<g id="a_node7"><a xlink:title="6th_week">
<ellipse fill="#c81d25" stroke="black" cx="515.784" cy="-1269.42" rx="28.6953" ry="18"/>
<text text-anchor="middle" x="515.784" y="-1265.72" font-family="Times,serif" font-size="14.00">4630</text>
</a>
</g>
</g>
<!-- 6171 -->
<g id="node12" class="node"><title>6171</title>
<g id="a_node12"><a xlink:title="6th_week">
<ellipse fill="#c81d25" stroke="black" cx="511.37" cy="-1138.99" rx="28.6953" ry="18"/>
<text text-anchor="middle" x="511.37" y="-1135.29" font-family="Times,serif" font-size="14.00">6171</text>
</a>
</g>
</g>
<!-- 4630&#45;&gt;6171 -->
<g id="edge20" class="edge"><title>4630&#45;&gt;6171</title>
<path fill="none" stroke="black" d="M515.17,-1251.28C514.331,-1226.5 512.836,-1182.31 511.992,-1157.39"/>
</g>
<!-- 5135 -->
<g id="node8" class="node"><title>5135</title>
<g id="a_node8"><a xlink:title="6th_week">
<ellipse fill="#c81d25" stroke="black" cx="1212.17" cy="-818.094" rx="28.6953" ry="18"/>
<text text-anchor="middle" x="1212.17" y="-814.394" font-family="Times,serif" font-size="14.00">5135</text>
</a>
</g>
</g>
<!-- 19958 -->
<g id="node37" class="node"><title>19958</title>
<g id="a_node37"><a xlink:title="6th_week">
<ellipse fill="#c81d25" stroke="black" cx="1312.39" cy="-750.198" rx="32.4942" ry="18"/>
<text text-anchor="middle" x="1312.39" y="-746.498" font-family="Times,serif" font-size="14.00">19958</text>
</a>
</g>
</g>
<!-- 5135&#45;&gt;19958 -->
<g id="edge27" class="edge"><title>5135&#45;&gt;19958</title>
<path fill="none" stroke="black" d="M1231.97,-804.68C1249.2,-793.009 1274.08,-776.151 1291.6,-764.286"/>
</g>
<!-- 5802 -->
<g id="node9" class="node"><title>5802</title>
<g id="a_node9"><a xlink:title="6th_week">
<ellipse fill="#c81d25" stroke="black" cx="933.747" cy="-295.281" rx="28.6953" ry="18"/>
<text text-anchor="middle" x="933.747" y="-291.581" font-family="Times,serif" font-size="14.00">5802</text>
</a>
</g>
</g>
<!-- 19600 -->
<g id="node36" class="node"><title>19600</title>
<g id="a_node36"><a xlink:title="6th_week">
<ellipse fill="#c81d25" stroke="black" cx="1056.2" cy="-258.776" rx="32.4942" ry="18"/>
<text text-anchor="middle" x="1056.2" y="-255.076" font-family="Times,serif" font-size="14.00">19600</text>
</a>
</g>
</g>
<!-- 5802&#45;&gt;19600 -->
<g id="edge29" class="edge"><title>5802&#45;&gt;19600</title>
<path fill="none" stroke="black" d="M959.716,-287.539C979.513,-281.637 1006.77,-273.511 1027.27,-267.401"/>
</g>
<!-- 5928 -->
<g id="node10" class="node"><title>5928</title>
<g id="a_node10"><a xlink:title="6th_week">
<ellipse fill="#c81d25" stroke="black" cx="1262.55" cy="-868.336" rx="28.6953" ry="18"/>
<text text-anchor="middle" x="1262.55" y="-864.636" font-family="Times,serif" font-size="14.00">5928</text>
</a>
</g>
</g>
<!-- 5928&#45;&gt;19958 -->
<g id="edge16" class="edge"><title>5928&#45;&gt;19958</title>
<path fill="none" stroke="black" d="M1269.9,-850.904C1279.27,-828.697 1295.38,-790.514 1304.84,-768.089"/>
</g>
<!-- 6148 -->
<g id="node11" class="node"><title>6148</title>
<g id="a_node11"><a xlink:title="6th_week">
<ellipse fill="#c81d25" stroke="black" cx="2062.88" cy="-470.366" rx="28.6953" ry="18"/>
<text text-anchor="middle" x="2062.88" y="-466.666" font-family="Times,serif" font-size="14.00">6148</text>
</a>
</g>
</g>
<!-- 6148&#45;&gt;24809 -->
<g id="edge17" class="edge"><title>6148&#45;&gt;24809</title>
<path fill="none" stroke="black" d="M2040.81,-481.871C2017.88,-493.83 1982.1,-512.488 1958.49,-524.799"/>
</g>
<!-- 15636 -->
<g id="node29" class="node"><title>15636</title>
<g id="a_node29"><a xlink:title="6th_week">
<ellipse fill="#c81d25" stroke="black" cx="343.034" cy="-1114.89" rx="32.4942" ry="18"/>
<text text-anchor="middle" x="343.034" y="-1111.19" font-family="Times,serif" font-size="14.00">15636</text>
</a>
</g>
</g>
<!-- 6171&#45;&gt;15636 -->
<g id="edge25" class="edge"><title>6171&#45;&gt;15636</title>
<path fill="none" stroke="black" d="M483.194,-1134.95C453.243,-1130.66 405.981,-1123.9 374.746,-1119.43"/>
</g>
<!-- 6171&#45;&gt;22089 -->
<g id="edge4" class="edge"><title>6171&#45;&gt;22089</title>
<path fill="none" stroke="black" d="M486.243,-1147.66C457.424,-1157.61 410.318,-1173.87 380.47,-1184.18"/>
</g>
<!-- 31131 -->
<g id="node52" class="node"><title>31131</title>
<g id="a_node52"><a xlink:title="6th_week">
<ellipse fill="#c81d25" stroke="black" cx="729.271" cy="-1067.16" rx="32.4942" ry="18"/>
<text text-anchor="middle" x="729.271" y="-1063.46" font-family="Times,serif" font-size="14.00">31131</text>
</a>
</g>
</g>
<!-- 6171&#45;&gt;31131 -->
<g id="edge52" class="edge"><title>6171&#45;&gt;31131</title>
<path fill="none" stroke="black" d="M536.792,-1130.61C577.881,-1117.06 658.583,-1090.46 701.267,-1076.39"/>
</g>
<!-- 32267 -->
<g id="node56" class="node"><title>32267</title>
<g id="a_node56"><a xlink:title="6th_week">
<ellipse fill="#c81d25" stroke="black" cx="442.898" cy="-1251.5" rx="32.4942" ry="18"/>
<text text-anchor="middle" x="442.898" y="-1247.8" font-family="Times,serif" font-size="14.00">32267</text>
</a>
</g>
</g>
<!-- 6171&#45;&gt;32267 -->
<g id="edge15" class="edge"><title>6171&#45;&gt;32267</title>
<path fill="none" stroke="black" d="M500.97,-1156.07C488.101,-1177.22 466.31,-1213.03 453.396,-1234.25"/>
</g>
<!-- 6262 -->
<g id="node13" class="node"><title>6262</title>
<g id="a_node13"><a xlink:title="6th_week">
<ellipse fill="#c81d25" stroke="black" cx="1773.02" cy="-376.268" rx="28.6953" ry="18"/>
<text text-anchor="middle" x="1773.02" y="-372.568" font-family="Times,serif" font-size="14.00">6262</text>
</a>
</g>
</g>
<!-- 28237 -->
<g id="node48" class="node"><title>28237</title>
<g id="a_node48"><a xlink:title="6th_week">
<ellipse fill="#c81d25" stroke="black" cx="1714.57" cy="-533.135" rx="32.4942" ry="18"/>
<text text-anchor="middle" x="1714.57" y="-529.435" font-family="Times,serif" font-size="14.00">28237</text>
</a>
</g>
</g>
<!-- 6262&#45;&gt;28237 -->
<g id="edge30" class="edge"><title>6262&#45;&gt;28237</title>
<path fill="none" stroke="black" d="M1766.43,-393.957C1755.2,-424.085 1732.5,-485.022 1721.22,-515.269"/>
</g>
<!-- 6742&#45;&gt;19600 -->
<g id="edge7" class="edge"><title>6742&#45;&gt;19600</title>
<path fill="none" stroke="black" d="M897.808,-228.904C931.827,-235.32 989.683,-246.231 1025.26,-252.94"/>
</g>
<!-- 7417 -->
<g id="node16" class="node"><title>7417</title>
<g id="a_node16"><a xlink:title="6th_week">
<ellipse fill="#c81d25" stroke="black" cx="200.409" cy="-1159.6" rx="28.6953" ry="18"/>
<text text-anchor="middle" x="200.409" y="-1155.9" font-family="Times,serif" font-size="14.00">7417</text>
</a>
</g>
</g>
<!-- 7417&#45;&gt;15636 -->
<g id="edge13" class="edge"><title>7417&#45;&gt;15636</title>
<path fill="none" stroke="black" d="M226.237,-1151.5C251.203,-1143.67 288.932,-1131.85 314.708,-1123.77"/>
</g>
<!-- 7658 -->
<g id="node17" class="node"><title>7658</title>
<g id="a_node17"><a xlink:title="6th_week">
<ellipse fill="#c81d25" stroke="black" cx="1851.48" cy="-611.802" rx="28.6953" ry="18"/>
<text text-anchor="middle" x="1851.48" y="-608.102" font-family="Times,serif" font-size="14.00">7658</text>
</a>
</g>
</g>
<!-- 7658&#45;&gt;28237 -->
<g id="edge9" class="edge"><title>7658&#45;&gt;28237</title>
<path fill="none" stroke="black" d="M1830.08,-599.51C1804.81,-584.99 1762.96,-560.942 1737.17,-546.125"/>
</g>
<!-- 7763 -->
<g id="node18" class="node"><title>7763</title>
<g id="a_node18"><a xlink:title="6th_week">
<ellipse fill="#c81d25" stroke="black" cx="1335.35" cy="-518.553" rx="28.6953" ry="18"/>
<text text-anchor="middle" x="1335.35" y="-514.853" font-family="Times,serif" font-size="14.00">7763</text>
</a>
</g>
</g>
<!-- 7763&#45;&gt;16901 -->
<g id="edge39" class="edge"><title>7763&#45;&gt;16901</title>
<path fill="none" stroke="black" d="M1363.91,-516.377C1382.2,-514.983 1405.97,-513.172 1424.94,-511.727"/>
</g>
<!-- 8817 -->
<g id="node19" class="node"><title>8817</title>
<g id="a_node19"><a xlink:title="6th_week">
<ellipse fill="#c81d25" stroke="black" cx="1249.96" cy="-18.4827" rx="28.6953" ry="18"/>
<text text-anchor="middle" x="1249.96" y="-14.7827" font-family="Times,serif" font-size="14.00">8817</text>
</a>
</g>
</g>
<!-- 14348 -->
<g id="node26" class="node"><title>14348</title>
<g id="a_node26"><a xlink:title="6th_week">
<ellipse fill="#c81d25" stroke="black" cx="1255.71" cy="-156.285" rx="32.4942" ry="18"/>
<text text-anchor="middle" x="1255.71" y="-152.585" font-family="Times,serif" font-size="14.00">14348</text>
</a>
</g>
</g>
<!-- 8817&#45;&gt;14348 -->
<g id="edge42" class="edge"><title>8817&#45;&gt;14348</title>
<path fill="none" stroke="black" d="M1250.71,-36.4979C1251.81,-62.9077 1253.86,-111.853 1254.96,-138.265"/>
</g>
<!-- 8826 -->
<g id="node20" class="node"><title>8826</title>
<g id="a_node20"><a xlink:title="6th_week">
<ellipse fill="#c81d25" stroke="black" cx="1768.16" cy="-449.451" rx="28.6953" ry="18"/>
<text text-anchor="middle" x="1768.16" y="-445.751" font-family="Times,serif" font-size="14.00">8826</text>
</a>
</g>
</g>
<!-- 8826&#45;&gt;28237 -->
<g id="edge53" class="edge"><title>8826&#45;&gt;28237</title>
<path fill="none" stroke="black" d="M1757.32,-466.386C1748.08,-480.809 1734.87,-501.44 1725.58,-515.938"/>
</g>
<!-- 9261 -->
<g id="node21" class="node"><title>9261</title>
<g id="a_node21"><a xlink:title="6th_week">
<ellipse fill="#c81d25" stroke="black" cx="1116.24" cy="-75.4318" rx="28.6953" ry="18"/>
<text text-anchor="middle" x="1116.24" y="-71.7318" font-family="Times,serif" font-size="14.00">9261</text>
</a>
</g>
</g>
<!-- 24453 -->
<g id="node43" class="node"><title>24453</title>
<g id="a_node43"><a xlink:title="6th_week">
<ellipse fill="#c81d25" stroke="black" cx="1168.57" cy="-200.926" rx="32.4942" ry="18"/>
<text text-anchor="middle" x="1168.57" y="-197.226" font-family="Times,serif" font-size="14.00">24453</text>
</a>
</g>
</g>
<!-- 9261&#45;&gt;24453 -->
<g id="edge54" class="edge"><title>9261&#45;&gt;24453</title>
<path fill="none" stroke="black" d="M1123.51,-92.8813C1133.46,-116.723 1151.19,-159.246 1161.19,-183.22"/>
</g>
<!-- 9312 -->
<g id="node22" class="node"><title>9312</title>
<g id="a_node22"><a xlink:title="6th_week">
<ellipse fill="#c81d25" stroke="black" cx="1646.81" cy="-297.461" rx="28.6953" ry="18"/>
<text text-anchor="middle" x="1646.81" y="-293.761" font-family="Times,serif" font-size="14.00">9312</text>
</a>
</g>
</g>
<!-- 16419 -->
<g id="node30" class="node"><title>16419</title>
<g id="a_node30"><a xlink:title="6th_week">
<ellipse fill="#c81d25" stroke="black" cx="1552.15" cy="-416.343" rx="32.4942" ry="18"/>
<text text-anchor="middle" x="1552.15" y="-412.643" font-family="Times,serif" font-size="14.00">16419</text>
</a>
</g>
</g>
<!-- 9312&#45;&gt;16419 -->
<g id="edge11" class="edge"><title>9312&#45;&gt;16419</title>
<path fill="none" stroke="black" d="M1633.65,-313.991C1615.66,-336.577 1583.59,-376.859 1565.5,-399.57"/>
</g>
<!-- 10144 -->
<g id="node23" class="node"><title>10144</title>
<g id="a_node23"><a xlink:title="6th_week">
<ellipse fill="#c81d25" stroke="black" cx="1184.79" cy="-734.771" rx="32.4942" ry="18"/>
<text text-anchor="middle" x="1184.79" y="-731.071" font-family="Times,serif" font-size="14.00">10144</text>
</a>
</g>
</g>
<!-- 10144&#45;&gt;19958 -->
<g id="edge1" class="edge"><title>10144&#45;&gt;19958</title>
<path fill="none" stroke="black" d="M1216.66,-738.624C1236.15,-740.98 1260.99,-743.984 1280.48,-746.341"/>
</g>
<!-- 11663 -->
<g id="node24" class="node"><title>11663</title>
<g id="a_node24"><a xlink:title="6th_week">
<ellipse fill="#c81d25" stroke="black" cx="32.3196" cy="-1085.69" rx="32.4942" ry="18"/>
<text text-anchor="middle" x="32.3196" y="-1081.99" font-family="Times,serif" font-size="14.00">11663</text>
</a>
</g>
</g>
<!-- 16440 -->
<g id="node31" class="node"><title>16440</title>
<g id="a_node31"><a xlink:title="6th_week">
<ellipse fill="#c81d25" stroke="black" cx="165.97" cy="-1086.06" rx="32.4942" ry="18"/>
<text text-anchor="middle" x="165.97" y="-1082.36" font-family="Times,serif" font-size="14.00">16440</text>
</a>
</g>
</g>
<!-- 11663&#45;&gt;16440 -->
<g id="edge35" class="edge"><title>11663&#45;&gt;16440</title>
<path fill="none" stroke="black" d="M65.0143,-1085.78C85.7251,-1085.84 112.415,-1085.91 133.15,-1085.97"/>
</g>
<!-- 12454 -->
<g id="node25" class="node"><title>12454</title>
<g id="a_node25"><a xlink:title="6th_week">
<ellipse fill="#c81d25" stroke="black" cx="1428.22" cy="-880.775" rx="32.4942" ry="18"/>
<text text-anchor="middle" x="1428.22" y="-877.075" font-family="Times,serif" font-size="14.00">12454</text>
</a>
</g>
</g>
<!-- 12454&#45;&gt;19958 -->
<g id="edge23" class="edge"><title>12454&#45;&gt;19958</title>
<path fill="none" stroke="black" d="M1413.79,-864.502C1391.59,-839.48 1349.31,-791.822 1327.01,-766.677"/>
</g>
<!-- 25367 -->
<g id="node46" class="node"><title>25367</title>
<g id="a_node46"><a xlink:title="6th_week">
<ellipse fill="#c81d25" stroke="black" cx="1494.52" cy="-1030.19" rx="32.4942" ry="18"/>
<text text-anchor="middle" x="1494.52" y="-1026.49" font-family="Times,serif" font-size="14.00">25367</text>
</a>
</g>
</g>
<!-- 12454&#45;&gt;25367 -->
<g id="edge47" class="edge"><title>12454&#45;&gt;25367</title>
<path fill="none" stroke="black" d="M1436.09,-898.502C1448.85,-927.258 1473.91,-983.746 1486.66,-1012.49"/>
</g>
<!-- 29565 -->
<g id="node51" class="node"><title>29565</title>
<g id="a_node51"><a xlink:title="6th_week">
<ellipse fill="#c81d25" stroke="black" cx="1275.16" cy="-343.362" rx="32.4942" ry="18"/>
<text text-anchor="middle" x="1275.16" y="-339.662" font-family="Times,serif" font-size="14.00">29565</text>
</a>
</g>
</g>
<!-- 14348&#45;&gt;29565 -->
<g id="edge18" class="edge"><title>14348&#45;&gt;29565</title>
<path fill="none" stroke="black" d="M1257.61,-174.563C1261.34,-210.42 1269.57,-289.591 1273.28,-325.285"/>
</g>
<!-- 15435 -->
<g id="node27" class="node"><title>15435</title>
<g id="a_node27"><a xlink:title="6th_week">
<ellipse fill="#c81d25" stroke="black" cx="951.411" cy="-181.156" rx="32.4942" ry="18"/>
<text text-anchor="middle" x="951.411" y="-177.456" font-family="Times,serif" font-size="14.00">15435</text>
</a>
</g>
</g>
<!-- 15435&#45;&gt;19600 -->
<g id="edge8" class="edge"><title>15435&#45;&gt;19600</title>
<path fill="none" stroke="black" d="M971.121,-195.756C989.855,-209.633 1017.87,-230.386 1036.58,-244.241"/>
</g>
<!-- 15437 -->
<g id="node28" class="node"><title>15437</title>
<g id="a_node28"><a xlink:title="6th_week">
<ellipse fill="#c81d25" stroke="black" cx="645.178" cy="-1178.02" rx="32.4942" ry="18"/>
<text text-anchor="middle" x="645.178" y="-1174.32" font-family="Times,serif" font-size="14.00">15437</text>
</a>
</g>
</g>
<!-- 15437&#45;&gt;31131 -->
<g id="edge33" class="edge"><title>15437&#45;&gt;31131</title>
<path fill="none" stroke="black" d="M657.95,-1161.18C673.848,-1140.23 700.83,-1104.65 716.654,-1083.79"/>
</g>
<!-- 15636&#45;&gt;16440 -->
<g id="edge51" class="edge"><title>15636&#45;&gt;16440</title>
<path fill="none" stroke="black" d="M311.786,-1109.8C279.52,-1104.55 229.463,-1096.4 197.203,-1091.15"/>
</g>
<!-- 16419&#45;&gt;16901 -->
<g id="edge12" class="edge"><title>16419&#45;&gt;16901</title>
<path fill="none" stroke="black" d="M1536.04,-432.107C1518.58,-449.195 1490.87,-476.31 1473.38,-493.429"/>
</g>
<!-- 16901&#45;&gt;19958 -->
<g id="edge46" class="edge"><title>16901&#45;&gt;19958</title>
<path fill="none" stroke="black" d="M1446.78,-526.597C1420.06,-571.05 1349.32,-688.748 1322.71,-733.028"/>
</g>
<!-- 16901&#45;&gt;20260 -->
<g id="edge48" class="edge"><title>16901&#45;&gt;20260</title>
<path fill="none" stroke="black" d="M1462.47,-491.426C1471.79,-459.914 1491.06,-394.767 1500.38,-363.27"/>
</g>
<!-- 16901&#45;&gt;28237 -->
<g id="edge40" class="edge"><title>16901&#45;&gt;28237</title>
<path fill="none" stroke="black" d="M1489.27,-512.244C1538.73,-516.83 1633.04,-525.575 1682.49,-530.161"/>
</g>
<!-- 16901&#45;&gt;29565 -->
<g id="edge31" class="edge"><title>16901&#45;&gt;29565</title>
<path fill="none" stroke="black" d="M1440.07,-493.661C1405.29,-461.96 1326.74,-390.372 1292.1,-358.807"/>
</g>
<!-- 17119 -->
<g id="node33" class="node"><title>17119</title>
<g id="a_node33"><a xlink:title="6th_week">
<ellipse fill="#c81d25" stroke="black" cx="1125.6" cy="-863.721" rx="32.4942" ry="18"/>
<text text-anchor="middle" x="1125.6" y="-860.021" font-family="Times,serif" font-size="14.00">17119</text>
</a>
</g>
</g>
<!-- 17119&#45;&gt;19958 -->
<g id="edge14" class="edge"><title>17119&#45;&gt;19958</title>
<path fill="none" stroke="black" d="M1147.76,-850.253C1183.71,-828.404 1254.33,-785.486 1290.26,-763.649"/>
</g>
<!-- 28245 -->
<g id="node49" class="node"><title>28245</title>
<g id="a_node49"><a xlink:title="6th_week">
<ellipse fill="#c81d25" stroke="black" cx="1069.18" cy="-1004.84" rx="32.4942" ry="18"/>
<text text-anchor="middle" x="1069.18" y="-1001.14" font-family="Times,serif" font-size="14.00">28245</text>
</a>
</g>
</g>
<!-- 17119&#45;&gt;28245 -->
<g id="edge38" class="edge"><title>17119&#45;&gt;28245</title>
<path fill="none" stroke="black" d="M1118.57,-881.309C1107.75,-908.351 1087.16,-959.857 1076.3,-987.033"/>
</g>
<!-- 33034 -->
<g id="node57" class="node"><title>33034</title>
<g id="a_node57"><a xlink:title="6th_week">
<ellipse fill="#c81d25" stroke="black" cx="912.508" cy="-973.364" rx="32.4942" ry="18"/>
<text text-anchor="middle" x="912.508" y="-969.664" font-family="Times,serif" font-size="14.00">33034</text>
</a>
</g>
</g>
<!-- 17119&#45;&gt;33034 -->
<g id="edge32" class="edge"><title>17119&#45;&gt;33034</title>
<path fill="none" stroke="black" d="M1101.57,-876.085C1060.53,-897.199 977.424,-939.962 936.45,-961.045"/>
</g>
<!-- 18856 -->
<g id="node34" class="node"><title>18856</title>
<g id="a_node34"><a xlink:title="6th_week">
<ellipse fill="#c81d25" stroke="black" cx="1847.94" cy="-478.581" rx="32.4942" ry="18"/>
<text text-anchor="middle" x="1847.94" y="-474.881" font-family="Times,serif" font-size="14.00">18856</text>
</a>
</g>
</g>
<!-- 18856&#45;&gt;28237 -->
<g id="edge57" class="edge"><title>18856&#45;&gt;28237</title>
<path fill="none" stroke="black" d="M1821.59,-489.359C1798.21,-498.923 1764.23,-512.822 1740.86,-522.379"/>
</g>
<!-- 19271 -->
<g id="node35" class="node"><title>19271</title>
<g id="a_node35"><a xlink:title="6th_week">
<ellipse fill="#c81d25" stroke="black" cx="1851.36" cy="-432.621" rx="32.4942" ry="18"/>
<text text-anchor="middle" x="1851.36" y="-428.921" font-family="Times,serif" font-size="14.00">19271</text>
</a>
</g>
</g>
<!-- 19271&#45;&gt;28237 -->
<g id="edge50" class="edge"><title>19271&#45;&gt;28237</title>
<path fill="none" stroke="black" d="M1831.76,-447.023C1805.76,-466.13 1760.12,-499.666 1734.13,-518.76"/>
</g>
<!-- 26272 -->
<g id="node47" class="node"><title>26272</title>
<g id="a_node47"><a xlink:title="6th_week">
<ellipse fill="#c81d25" stroke="black" cx="1003.91" cy="-128.254" rx="32.4942" ry="18"/>
<text text-anchor="middle" x="1003.91" y="-124.554" font-family="Times,serif" font-size="14.00">26272</text>
</a>
</g>
</g>
<!-- 19600&#45;&gt;26272 -->
<g id="edge45" class="edge"><title>19600&#45;&gt;26272</title>
<path fill="none" stroke="black" d="M1049.15,-241.173C1039.17,-216.262 1021.03,-170.981 1011.02,-145.995"/>
</g>
<!-- 19600&#45;&gt;29565 -->
<g id="edge24" class="edge"><title>19600&#45;&gt;29565</title>
<path fill="none" stroke="black" d="M1083.05,-269.147C1125.18,-285.426 1206.37,-316.788 1248.43,-333.037"/>
</g>
<!-- 29025 -->
<g id="node50" class="node"><title>29025</title>
<g id="a_node50"><a xlink:title="6th_week">
<ellipse fill="#c81d25" stroke="black" cx="1349.24" cy="-887.093" rx="32.4942" ry="18"/>
<text text-anchor="middle" x="1349.24" y="-883.393" font-family="Times,serif" font-size="14.00">29025</text>
</a>
</g>
</g>
<!-- 19958&#45;&gt;29025 -->
<g id="edge21" class="edge"><title>19958&#45;&gt;29025</title>
<path fill="none" stroke="black" d="M1317.21,-768.095C1324.27,-794.331 1337.36,-842.954 1344.42,-869.192"/>
</g>
<!-- 31154 -->
<g id="node53" class="node"><title>31154</title>
<g id="a_node53"><a xlink:title="6th_week">
<ellipse fill="#c81d25" stroke="black" cx="1355.1" cy="-840.745" rx="32.4942" ry="18"/>
<text text-anchor="middle" x="1355.1" y="-837.045" font-family="Times,serif" font-size="14.00">31154</text>
</a>
</g>
</g>
<!-- 19958&#45;&gt;31154 -->
<g id="edge37" class="edge"><title>19958&#45;&gt;31154</title>
<path fill="none" stroke="black" d="M1320.63,-767.657C1328.14,-783.587 1339.19,-807.021 1346.75,-823.031"/>
</g>
<!-- 20260&#45;&gt;24445 -->
<g id="edge34" class="edge"><title>20260&#45;&gt;24445</title>
<path fill="none" stroke="black" d="M1514.55,-328.03C1531.06,-295.704 1566.29,-226.772 1582.86,-194.327"/>
</g>
<!-- 21062 -->
<g id="node39" class="node"><title>21062</title>
<g id="a_node39"><a xlink:title="6th_week">
<ellipse fill="#c81d25" stroke="black" cx="1855.98" cy="-560.043" rx="32.4942" ry="18"/>
<text text-anchor="middle" x="1855.98" y="-556.343" font-family="Times,serif" font-size="14.00">21062</text>
</a>
</g>
</g>
<!-- 21062&#45;&gt;28237 -->
<g id="edge58" class="edge"><title>21062&#45;&gt;28237</title>
<path fill="none" stroke="black" d="M1824.94,-554.138C1801.37,-549.651 1769.09,-543.509 1745.53,-539.026"/>
</g>
<!-- 22321 -->
<g id="node41" class="node"><title>22321</title>
<g id="a_node41"><a xlink:title="6th_week">
<ellipse fill="#c81d25" stroke="black" cx="1250.37" cy="-216.499" rx="32.4942" ry="18"/>
<text text-anchor="middle" x="1250.37" y="-212.799" font-family="Times,serif" font-size="14.00">22321</text>
</a>
</g>
</g>
<!-- 22321&#45;&gt;29565 -->
<g id="edge5" class="edge"><title>22321&#45;&gt;29565</title>
<path fill="none" stroke="black" d="M1253.87,-234.406C1258.57,-258.448 1266.87,-300.931 1271.59,-325.135"/>
</g>
<!-- 24453&#45;&gt;29565 -->
<g id="edge10" class="edge"><title>24453&#45;&gt;29565</title>
<path fill="none" stroke="black" d="M1181.22,-217.825C1201.73,-245.238 1242.02,-299.086 1262.53,-326.485"/>
</g>
<!-- 24809&#45;&gt;28237 -->
<g id="edge36" class="edge"><title>24809&#45;&gt;28237</title>
<path fill="none" stroke="black" d="M1901.6,-536.667C1860.01,-535.882 1788.89,-534.538 1747.36,-533.754"/>
</g>
<!-- 31648 -->
<g id="node59" class="node"><title>31648</title>
<g id="a_node59"><a xlink:title="6th_week">
<ellipse fill="#c81d25" stroke="black" cx="2081.5" cy="-532.215" rx="32.4942" ry="18"/>
<text text-anchor="middle" x="2081.5" y="-528.515" font-family="Times,serif" font-size="14.00">31648</text>
</a>
</g>
</g>
<!-- 24809&#45;&gt;31648 -->
<g id="edge6" class="edge"><title>24809&#45;&gt;31648</title>
<path fill="none" stroke="black" d="M1967.15,-536.163C1991.51,-535.322 2024.64,-534.178 2048.98,-533.338"/>
</g>
<!-- 25358 -->
<g id="node45" class="node"><title>25358</title>
<g id="a_node45"><a xlink:title="6th_week">
<ellipse fill="#c81d25" stroke="black" cx="1337.37" cy="-216.777" rx="32.4942" ry="18"/>
<text text-anchor="middle" x="1337.37" y="-213.077" font-family="Times,serif" font-size="14.00">25358</text>
</a>
</g>
</g>
<!-- 25358&#45;&gt;29565 -->
<g id="edge19" class="edge"><title>25358&#45;&gt;29565</title>
<path fill="none" stroke="black" d="M1328.72,-234.378C1316.83,-258.562 1295.58,-301.805 1283.73,-325.91"/>
</g>
<!-- 31598 -->
<g id="node54" class="node"><title>31598</title>
<g id="a_node54"><a xlink:title="6th_week">
<ellipse fill="#c81d25" stroke="black" cx="1805.23" cy="-662.578" rx="32.4942" ry="18"/>
<text text-anchor="middle" x="1805.23" y="-658.878" font-family="Times,serif" font-size="14.00">31598</text>
</a>
</g>
</g>
<!-- 28237&#45;&gt;31598 -->
<g id="edge3" class="edge"><title>28237&#45;&gt;31598</title>
<path fill="none" stroke="black" d="M1726.42,-550.057C1743.8,-574.865 1776,-620.842 1793.38,-645.652"/>
</g>
<!-- 31890 -->
<g id="node55" class="node"><title>31890</title>
<g id="a_node55"><a xlink:title="6th_week">
<ellipse fill="#c81d25" stroke="black" cx="1725.16" cy="-667.515" rx="32.4942" ry="18"/>
<text text-anchor="middle" x="1725.16" y="-663.815" font-family="Times,serif" font-size="14.00">31890</text>
</a>
</g>
</g>
<!-- 28237&#45;&gt;31890 -->
<g id="edge44" class="edge"><title>28237&#45;&gt;31890</title>
<path fill="none" stroke="black" d="M1715.99,-551.258C1718.02,-576.905 1721.69,-623.525 1723.72,-649.25"/>
</g>
<!-- 31131&#45;&gt;33034 -->
<g id="edge49" class="edge"><title>31131&#45;&gt;33034</title>
<path fill="none" stroke="black" d="M753.226,-1054.9C788.343,-1036.92 853.426,-1003.61 888.547,-985.629"/>
</g>
<!-- 26904 -->
<g id="node58" class="node"><title>26904</title>
<g id="a_node58"><a xlink:title="6th_week">
<ellipse fill="#c81d25" stroke="black" cx="726.416" cy="-1209.36" rx="32.4942" ry="18"/>
<text text-anchor="middle" x="726.416" y="-1205.66" font-family="Times,serif" font-size="14.00">26904</text>
</a>
</g>
</g>
<!-- 31131&#45;&gt;26904 -->
<g id="edge28" class="edge"><title>31131&#45;&gt;26904</title>
<path fill="none" stroke="black" d="M728.909,-1085.17C728.363,-1112.37 727.333,-1163.67 726.783,-1191.05"/>
</g>
</g>
</svg>
