<?xml version="1.0" encoding="UTF-8" standalone="no"?>
<!DOCTYPE svg PUBLIC "-//W3C//DTD SVG 1.1//EN"
 "http://www.w3.org/Graphics/SVG/1.1/DTD/svg11.dtd">
<!-- Generated by graphviz version 2.38.0 (20140413.2041)
 -->
<!-- Title: %3 Pages: 1 -->
<svg width="1737pt" height="1206pt"
 viewBox="0.00 0.00 1737.00 1206.00" xmlns="http://www.w3.org/2000/svg" xmlns:xlink="http://www.w3.org/1999/xlink">
<g id="graph0" class="graph" transform="scale(1 1) rotate(0) translate(4 1202)">
<title>%3</title>
<polygon fill="white" stroke="none" points="-4,4 -4,-1202 1733,-1202 1733,4 -4,4"/>
<!-- 799 -->
<g id="node1" class="node"><title>799</title>
<g id="a_node1"><a xlink:title="6th_week">
<ellipse fill="#c81d25" stroke="black" cx="1238.61" cy="-350.763" rx="27" ry="18"/>
<text text-anchor="middle" x="1238.61" y="-347.063" font-family="Times,serif" font-size="14.00">799</text>
</a>
</g>
</g>
<!-- 4995 -->
<g id="node14" class="node"><title>4995</title>
<g id="a_node14"><a xlink:title="6th_week">
<ellipse fill="#c81d25" stroke="black" cx="1196.78" cy="-202.271" rx="28.6953" ry="18"/>
<text text-anchor="middle" x="1196.78" y="-198.571" font-family="Times,serif" font-size="14.00">4995</text>
</a>
</g>
</g>
<!-- 799&#45;&gt;4995 -->
<g id="edge9" class="edge"><title>799&#45;&gt;4995</title>
<path fill="none" stroke="black" d="M1233.57,-332.851C1225.53,-304.31 1209.9,-248.827 1201.84,-220.246"/>
</g>
<!-- 33420 -->
<g id="node43" class="node"><title>33420</title>
<g id="a_node43"><a xlink:title="6th_week">
<ellipse fill="#c81d25" stroke="black" cx="1286.96" cy="-518.016" rx="32.4942" ry="18"/>
<text text-anchor="middle" x="1286.96" y="-514.316" font-family="Times,serif" font-size="14.00">33420</text>
</a>
</g>
</g>
<!-- 799&#45;&gt;33420 -->
<g id="edge27" class="edge"><title>799&#45;&gt;33420</title>
<path fill="none" stroke="black" d="M1243.79,-368.662C1253.07,-400.769 1272.45,-467.796 1281.75,-499.993"/>
</g>
<!-- 1228 -->
<g id="node2" class="node"><title>1228</title>
<g id="a_node2"><a xlink:title="6th_week">
<ellipse fill="#c81d25" stroke="black" cx="1449.14" cy="-631.515" rx="28.6953" ry="18"/>
<text text-anchor="middle" x="1449.14" y="-627.815" font-family="Times,serif" font-size="14.00">1228</text>
</a>
</g>
</g>
<!-- 1410 -->
<g id="node4" class="node"><title>1410</title>
<g id="a_node4"><a xlink:title="6th_week">
<ellipse fill="#c81d25" stroke="black" cx="1279.38" cy="-765.058" rx="28.6953" ry="18"/>
<text text-anchor="middle" x="1279.38" y="-761.358" font-family="Times,serif" font-size="14.00">1410</text>
</a>
</g>
</g>
<!-- 1228&#45;&gt;1410 -->
<g id="edge37" class="edge"><title>1228&#45;&gt;1410</title>
<path fill="none" stroke="black" d="M1430.98,-645.806C1398.3,-671.51 1330,-725.241 1297.42,-750.87"/>
</g>
<!-- 20230 -->
<g id="node48" class="node"><title>20230</title>
<g id="a_node48"><a xlink:title="6th_week">
<ellipse fill="#c81d25" stroke="black" cx="1551.53" cy="-511.791" rx="32.4942" ry="18"/>
<text text-anchor="middle" x="1551.53" y="-508.091" font-family="Times,serif" font-size="14.00">20230</text>
</a>
</g>
</g>
<!-- 1228&#45;&gt;20230 -->
<g id="edge44" class="edge"><title>1228&#45;&gt;20230</title>
<path fill="none" stroke="black" d="M1462.95,-615.368C1482.49,-592.518 1518.02,-550.983 1537.62,-528.064"/>
</g>
<!-- 24401 -->
<g id="node50" class="node"><title>24401</title>
<g id="a_node50"><a xlink:title="6th_week">
<ellipse fill="#c81d25" stroke="black" cx="1594.08" cy="-566.428" rx="32.4942" ry="18"/>
<text text-anchor="middle" x="1594.08" y="-562.728" font-family="Times,serif" font-size="14.00">24401</text>
</a>
</g>
</g>
<!-- 1228&#45;&gt;24401 -->
<g id="edge15" class="edge"><title>1228&#45;&gt;24401</title>
<path fill="none" stroke="black" d="M1472.43,-621.057C1498.68,-609.271 1541.22,-590.166 1568.41,-577.956"/>
</g>
<!-- 1407 -->
<g id="node3" class="node"><title>1407</title>
<g id="a_node3"><a xlink:title="6th_week">
<ellipse fill="#c81d25" stroke="black" cx="260.828" cy="-956.26" rx="28.6953" ry="18"/>
<text text-anchor="middle" x="260.828" y="-952.56" font-family="Times,serif" font-size="14.00">1407</text>
</a>
</g>
</g>
<!-- 3390 -->
<g id="node9" class="node"><title>3390</title>
<g id="a_node9"><a xlink:title="6th_week">
<ellipse fill="#c81d25" stroke="black" cx="356.965" cy="-849.255" rx="28.6953" ry="18"/>
<text text-anchor="middle" x="356.965" y="-845.555" font-family="Times,serif" font-size="14.00">3390</text>
</a>
</g>
</g>
<!-- 1407&#45;&gt;3390 -->
<g id="edge14" class="edge"><title>1407&#45;&gt;3390</title>
<path fill="none" stroke="black" d="M275.014,-940.471C293.19,-920.24 324.518,-885.371 342.722,-865.108"/>
</g>
<!-- 2524 -->
<g id="node6" class="node"><title>2524</title>
<g id="a_node6"><a xlink:title="6th_week">
<ellipse fill="#c81d25" stroke="black" cx="1307.34" cy="-861.012" rx="28.6953" ry="18"/>
<text text-anchor="middle" x="1307.34" y="-857.312" font-family="Times,serif" font-size="14.00">2524</text>
</a>
</g>
</g>
<!-- 1410&#45;&gt;2524 -->
<g id="edge34" class="edge"><title>1410&#45;&gt;2524</title>
<path fill="none" stroke="black" d="M1284.64,-783.107C1289.64,-800.262 1297.12,-825.917 1302.11,-843.045"/>
</g>
<!-- 2806 -->
<g id="node7" class="node"><title>2806</title>
<g id="a_node7"><a xlink:title="6th_week">
<ellipse fill="#c81d25" stroke="black" cx="1475.22" cy="-810.095" rx="28.6953" ry="18"/>
<text text-anchor="middle" x="1475.22" y="-806.395" font-family="Times,serif" font-size="14.00">2806</text>
</a>
</g>
</g>
<!-- 1410&#45;&gt;2806 -->
<g id="edge35" class="edge"><title>1410&#45;&gt;2806</title>
<path fill="none" stroke="black" d="M1306.61,-771.321C1344.03,-779.925 1410.93,-795.31 1448.22,-803.886"/>
</g>
<!-- 3376 -->
<g id="node8" class="node"><title>3376</title>
<g id="a_node8"><a xlink:title="6th_week">
<ellipse fill="#c81d25" stroke="black" cx="1127.39" cy="-673.785" rx="28.6953" ry="18"/>
<text text-anchor="middle" x="1127.39" y="-670.085" font-family="Times,serif" font-size="14.00">3376</text>
</a>
</g>
</g>
<!-- 1410&#45;&gt;3376 -->
<g id="edge36" class="edge"><title>1410&#45;&gt;3376</title>
<path fill="none" stroke="black" d="M1258.57,-752.559C1229.62,-735.178 1177.51,-703.883 1148.44,-686.427"/>
</g>
<!-- 4227 -->
<g id="node11" class="node"><title>4227</title>
<g id="a_node11"><a xlink:title="6th_week">
<ellipse fill="#c81d25" stroke="black" cx="1404.5" cy="-766.529" rx="28.6953" ry="18"/>
<text text-anchor="middle" x="1404.5" y="-762.829" font-family="Times,serif" font-size="14.00">4227</text>
</a>
</g>
</g>
<!-- 1410&#45;&gt;4227 -->
<g id="edge2" class="edge"><title>1410&#45;&gt;4227</title>
<path fill="none" stroke="black" d="M1308.09,-765.396C1328.29,-765.633 1355.23,-765.95 1375.49,-766.188"/>
</g>
<!-- 8560 -->
<g id="node15" class="node"><title>8560</title>
<g id="a_node15"><a xlink:title="6th_week">
<ellipse fill="#c81d25" stroke="black" cx="1213.19" cy="-913.311" rx="28.6953" ry="18"/>
<text text-anchor="middle" x="1213.19" y="-909.611" font-family="Times,serif" font-size="14.00">8560</text>
</a>
</g>
</g>
<!-- 1410&#45;&gt;8560 -->
<g id="edge18" class="edge"><title>1410&#45;&gt;8560</title>
<path fill="none" stroke="black" d="M1271.53,-782.647C1258.79,-811.18 1233.76,-867.228 1221.03,-895.746"/>
</g>
<!-- 9004 -->
<g id="node16" class="node"><title>9004</title>
<g id="a_node16"><a xlink:title="6th_week">
<ellipse fill="#c81d25" stroke="black" cx="1358.31" cy="-635.207" rx="28.6953" ry="18"/>
<text text-anchor="middle" x="1358.31" y="-631.507" font-family="Times,serif" font-size="14.00">9004</text>
</a>
</g>
</g>
<!-- 1410&#45;&gt;9004 -->
<g id="edge39" class="edge"><title>1410&#45;&gt;9004</title>
<path fill="none" stroke="black" d="M1289.7,-748.083C1304.83,-723.197 1332.86,-677.076 1347.99,-652.187"/>
</g>
<!-- 11418 -->
<g id="node22" class="node"><title>11418</title>
<g id="a_node22"><a xlink:title="6th_week">
<ellipse fill="#c81d25" stroke="black" cx="1287.11" cy="-912.748" rx="32.4942" ry="18"/>
<text text-anchor="middle" x="1287.11" y="-909.048" font-family="Times,serif" font-size="14.00">11418</text>
</a>
</g>
</g>
<!-- 1410&#45;&gt;11418 -->
<g id="edge29" class="edge"><title>1410&#45;&gt;11418</title>
<path fill="none" stroke="black" d="M1280.33,-783.168C1281.81,-811.514 1284.66,-866.053 1286.15,-894.49"/>
</g>
<!-- 12761 -->
<g id="node23" class="node"><title>12761</title>
<g id="a_node23"><a xlink:title="6th_week">
<ellipse fill="#c81d25" stroke="black" cx="1269.88" cy="-960.416" rx="32.4942" ry="18"/>
<text text-anchor="middle" x="1269.88" y="-956.716" font-family="Times,serif" font-size="14.00">12761</text>
</a>
</g>
</g>
<!-- 1410&#45;&gt;12761 -->
<g id="edge28" class="edge"><title>1410&#45;&gt;12761</title>
<path fill="none" stroke="black" d="M1278.5,-783.087C1276.7,-820.209 1272.58,-904.821 1270.77,-942.147"/>
</g>
<!-- 13897 -->
<g id="node24" class="node"><title>13897</title>
<g id="a_node24"><a xlink:title="6th_week">
<ellipse fill="#c81d25" stroke="black" cx="1208.33" cy="-611.085" rx="32.4942" ry="18"/>
<text text-anchor="middle" x="1208.33" y="-607.385" font-family="Times,serif" font-size="14.00">13897</text>
</a>
</g>
</g>
<!-- 1410&#45;&gt;13897 -->
<g id="edge8" class="edge"><title>1410&#45;&gt;13897</title>
<path fill="none" stroke="black" d="M1271.37,-747.695C1257.72,-718.123 1230.12,-658.311 1216.42,-628.621"/>
</g>
<!-- 17498 -->
<g id="node26" class="node"><title>17498</title>
<g id="a_node26"><a xlink:title="6th_week">
<ellipse fill="#c81d25" stroke="black" cx="1210.23" cy="-860.128" rx="32.4942" ry="18"/>
<text text-anchor="middle" x="1210.23" y="-856.428" font-family="Times,serif" font-size="14.00">17498</text>
</a>
</g>
</g>
<!-- 1410&#45;&gt;17498 -->
<g id="edge43" class="edge"><title>1410&#45;&gt;17498</title>
<path fill="none" stroke="black" d="M1267.34,-781.618C1254.8,-798.855 1235.26,-825.716 1222.6,-843.118"/>
</g>
<!-- 18167 -->
<g id="node28" class="node"><title>18167</title>
<g id="a_node28"><a xlink:title="6th_week">
<ellipse fill="#c81d25" stroke="black" cx="1364.1" cy="-912.562" rx="32.4942" ry="18"/>
<text text-anchor="middle" x="1364.1" y="-908.862" font-family="Times,serif" font-size="14.00">18167</text>
</a>
</g>
</g>
<!-- 1410&#45;&gt;18167 -->
<g id="edge42" class="edge"><title>1410&#45;&gt;18167</title>
<path fill="none" stroke="black" d="M1289.27,-782.268C1305.5,-810.538 1337.65,-866.51 1354.02,-895.005"/>
</g>
<!-- 18729 -->
<g id="node29" class="node"><title>18729</title>
<g id="a_node29"><a xlink:title="6th_week">
<ellipse fill="#c81d25" stroke="black" cx="1478.55" cy="-729.832" rx="32.4942" ry="18"/>
<text text-anchor="middle" x="1478.55" y="-726.132" font-family="Times,serif" font-size="14.00">18729</text>
</a>
</g>
</g>
<!-- 1410&#45;&gt;18729 -->
<g id="edge48" class="edge"><title>1410&#45;&gt;18729</title>
<path fill="none" stroke="black" d="M1307.08,-760.16C1343.95,-753.638 1408.99,-742.135 1447.5,-735.325"/>
</g>
<!-- 19101 -->
<g id="node30" class="node"><title>19101</title>
<g id="a_node30"><a xlink:title="6th_week">
<ellipse fill="#c81d25" stroke="black" cx="1199.19" cy="-663.224" rx="32.4942" ry="18"/>
<text text-anchor="middle" x="1199.19" y="-659.524" font-family="Times,serif" font-size="14.00">19101</text>
</a>
</g>
</g>
<!-- 1410&#45;&gt;19101 -->
<g id="edge13" class="edge"><title>1410&#45;&gt;19101</title>
<path fill="none" stroke="black" d="M1266.5,-748.697C1251.62,-729.806 1227.29,-698.899 1212.31,-679.883"/>
</g>
<!-- 19401 -->
<g id="node32" class="node"><title>19401</title>
<g id="a_node32"><a xlink:title="6th_week">
<ellipse fill="#c81d25" stroke="black" cx="1287.82" cy="-597.956" rx="32.4942" ry="18"/>
<text text-anchor="middle" x="1287.82" y="-594.256" font-family="Times,serif" font-size="14.00">19401</text>
</a>
</g>
</g>
<!-- 1410&#45;&gt;19401 -->
<g id="edge4" class="edge"><title>1410&#45;&gt;19401</title>
<path fill="none" stroke="black" d="M1280.3,-746.857C1281.92,-714.714 1285.28,-648.262 1286.9,-616.134"/>
</g>
<!-- 19830 -->
<g id="node33" class="node"><title>19830</title>
<g id="a_node33"><a xlink:title="6th_week">
<ellipse fill="#c81d25" stroke="black" cx="1135.1" cy="-717.956" rx="32.4942" ry="18"/>
<text text-anchor="middle" x="1135.1" y="-714.256" font-family="Times,serif" font-size="14.00">19830</text>
</a>
</g>
</g>
<!-- 1410&#45;&gt;19830 -->
<g id="edge19" class="edge"><title>1410&#45;&gt;19830</title>
<path fill="none" stroke="black" d="M1253.92,-756.746C1228.52,-748.453 1189.58,-735.742 1163.27,-727.152"/>
</g>
<!-- 21423 -->
<g id="node35" class="node"><title>21423</title>
<g id="a_node35"><a xlink:title="6th_week">
<ellipse fill="#c81d25" stroke="black" cx="1010.22" cy="-777.653" rx="32.4942" ry="18"/>
<text text-anchor="middle" x="1010.22" y="-773.953" font-family="Times,serif" font-size="14.00">21423</text>
</a>
</g>
</g>
<!-- 1410&#45;&gt;21423 -->
<g id="edge3" class="edge"><title>1410&#45;&gt;21423</title>
<path fill="none" stroke="black" d="M1250.83,-766.394C1200.37,-768.756 1095.73,-773.652 1042.64,-776.136"/>
</g>
<!-- 23474 -->
<g id="node36" class="node"><title>23474</title>
<g id="a_node36"><a xlink:title="6th_week">
<ellipse fill="#c81d25" stroke="black" cx="1128.87" cy="-769.981" rx="32.4942" ry="18"/>
<text text-anchor="middle" x="1128.87" y="-766.281" font-family="Times,serif" font-size="14.00">23474</text>
</a>
</g>
</g>
<!-- 1410&#45;&gt;23474 -->
<g id="edge31" class="edge"><title>1410&#45;&gt;23474</title>
<path fill="none" stroke="black" d="M1250.72,-765.996C1225.21,-766.83 1187.94,-768.049 1161.35,-768.919"/>
</g>
<!-- 23482 -->
<g id="node37" class="node"><title>23482</title>
<g id="a_node37"><a xlink:title="6th_week">
<ellipse fill="#c81d25" stroke="black" cx="1397.47" cy="-852.529" rx="32.4942" ry="18"/>
<text text-anchor="middle" x="1397.47" y="-848.829" font-family="Times,serif" font-size="14.00">23482</text>
</a>
</g>
</g>
<!-- 1410&#45;&gt;23482 -->
<g id="edge49" class="edge"><title>1410&#45;&gt;23482</title>
<path fill="none" stroke="black" d="M1298.09,-778.918C1319.82,-795.008 1355.49,-821.431 1377.67,-837.858"/>
</g>
<!-- 27501 -->
<g id="node39" class="node"><title>27501</title>
<g id="a_node39"><a xlink:title="6th_week">
<ellipse fill="#c81d25" stroke="black" cx="1129.94" cy="-820.536" rx="32.4942" ry="18"/>
<text text-anchor="middle" x="1129.94" y="-816.836" font-family="Times,serif" font-size="14.00">27501</text>
</a>
</g>
</g>
<!-- 1410&#45;&gt;27501 -->
<g id="edge25" class="edge"><title>1410&#45;&gt;27501</title>
<path fill="none" stroke="black" d="M1254.7,-774.219C1227.84,-784.191 1185.02,-800.09 1157.19,-810.421"/>
</g>
<!-- 28297 -->
<g id="node40" class="node"><title>28297</title>
<g id="a_node40"><a xlink:title="6th_week">
<ellipse fill="#c81d25" stroke="black" cx="1134.61" cy="-910.51" rx="32.4942" ry="18"/>
<text text-anchor="middle" x="1134.61" y="-906.81" font-family="Times,serif" font-size="14.00">28297</text>
</a>
</g>
</g>
<!-- 1410&#45;&gt;28297 -->
<g id="edge41" class="edge"><title>1410&#45;&gt;28297</title>
<path fill="none" stroke="black" d="M1264.16,-780.349C1236.58,-808.066 1178.58,-866.339 1150.5,-894.543"/>
</g>
<!-- 32725 -->
<g id="node42" class="node"><title>32725</title>
<g id="a_node42"><a xlink:title="6th_week">
<ellipse fill="#c81d25" stroke="black" cx="1441.15" cy="-940.603" rx="32.4942" ry="18"/>
<text text-anchor="middle" x="1441.15" y="-936.903" font-family="Times,serif" font-size="14.00">32725</text>
</a>
</g>
</g>
<!-- 1410&#45;&gt;32725 -->
<g id="edge6" class="edge"><title>1410&#45;&gt;32725</title>
<path fill="none" stroke="black" d="M1293.74,-780.637C1324.28,-813.782 1395.43,-890.995 1426.36,-924.553"/>
</g>
<!-- 1410&#45;&gt;33420 -->
<g id="edge24" class="edge"><title>1410&#45;&gt;33420</title>
<path fill="none" stroke="black" d="M1279.94,-746.893C1281.34,-701.207 1285,-581.922 1286.4,-536.208"/>
</g>
<!-- 10407 -->
<g id="node44" class="node"><title>10407</title>
<g id="a_node44"><a xlink:title="6th_week">
<ellipse fill="#c81d25" stroke="black" cx="1283.38" cy="-647.56" rx="32.4942" ry="18"/>
<text text-anchor="middle" x="1283.38" y="-643.86" font-family="Times,serif" font-size="14.00">10407</text>
</a>
</g>
</g>
<!-- 1410&#45;&gt;10407 -->
<g id="edge16" class="edge"><title>1410&#45;&gt;10407</title>
<path fill="none" stroke="black" d="M1280,-746.957C1280.75,-724.941 1282,-687.988 1282.75,-665.876"/>
</g>
<!-- 19896 -->
<g id="node47" class="node"><title>19896</title>
<g id="a_node47"><a xlink:title="6th_week">
<ellipse fill="#c81d25" stroke="black" cx="1403.64" cy="-687.085" rx="32.4942" ry="18"/>
<text text-anchor="middle" x="1403.64" y="-683.385" font-family="Times,serif" font-size="14.00">19896</text>
</a>
</g>
</g>
<!-- 1410&#45;&gt;19896 -->
<g id="edge47" class="edge"><title>1410&#45;&gt;19896</title>
<path fill="none" stroke="black" d="M1299.9,-752.183C1322.51,-737.995 1358.72,-715.269 1381.83,-700.768"/>
</g>
<!-- 1760 -->
<g id="node5" class="node"><title>1760</title>
<g id="a_node5"><a xlink:title="6th_week">
<ellipse fill="#c81d25" stroke="black" cx="788.024" cy="-808.273" rx="28.6953" ry="18"/>
<text text-anchor="middle" x="788.024" y="-804.573" font-family="Times,serif" font-size="14.00">1760</text>
</a>
</g>
</g>
<!-- 17357 -->
<g id="node25" class="node"><title>17357</title>
<g id="a_node25"><a xlink:title="6th_week">
<ellipse fill="#c81d25" stroke="black" cx="563.243" cy="-836.681" rx="32.4942" ry="18"/>
<text text-anchor="middle" x="563.243" y="-832.981" font-family="Times,serif" font-size="14.00">17357</text>
</a>
</g>
</g>
<!-- 1760&#45;&gt;17357 -->
<g id="edge1" class="edge"><title>1760&#45;&gt;17357</title>
<path fill="none" stroke="black" d="M759.555,-811.871C717.499,-817.186 639.018,-827.104 595.098,-832.655"/>
</g>
<!-- 1760&#45;&gt;21423 -->
<g id="edge26" class="edge"><title>1760&#45;&gt;21423</title>
<path fill="none" stroke="black" d="M816.165,-804.395C857.622,-798.682 934.882,-788.035 978.366,-782.043"/>
</g>
<!-- 19286 -->
<g id="node31" class="node"><title>19286</title>
<g id="a_node31"><a xlink:title="6th_week">
<ellipse fill="#c81d25" stroke="black" cx="1628.39" cy="-852.03" rx="32.4942" ry="18"/>
<text text-anchor="middle" x="1628.39" y="-848.33" font-family="Times,serif" font-size="14.00">19286</text>
</a>
</g>
</g>
<!-- 2806&#45;&gt;19286 -->
<g id="edge45" class="edge"><title>2806&#45;&gt;19286</title>
<path fill="none" stroke="black" d="M1501.55,-817.304C1528.67,-824.727 1570.83,-836.27 1599.01,-843.986"/>
</g>
<!-- 11003 -->
<g id="node19" class="node"><title>11003</title>
<g id="a_node19"><a xlink:title="6th_week">
<ellipse fill="#c81d25" stroke="black" cx="216.8" cy="-898.908" rx="32.4942" ry="18"/>
<text text-anchor="middle" x="216.8" y="-895.208" font-family="Times,serif" font-size="14.00">11003</text>
</a>
</g>
</g>
<!-- 3390&#45;&gt;11003 -->
<g id="edge12" class="edge"><title>3390&#45;&gt;11003</title>
<path fill="none" stroke="black" d="M331.907,-858.132C307.339,-866.835 269.969,-880.073 244.523,-889.087"/>
</g>
<!-- 11393 -->
<g id="node21" class="node"><title>11393</title>
<g id="a_node21"><a xlink:title="6th_week">
<ellipse fill="#c81d25" stroke="black" cx="179.55" cy="-835.799" rx="32.4942" ry="18"/>
<text text-anchor="middle" x="179.55" y="-832.099" font-family="Times,serif" font-size="14.00">11393</text>
</a>
</g>
</g>
<!-- 3390&#45;&gt;11393 -->
<g id="edge10" class="edge"><title>3390&#45;&gt;11393</title>
<path fill="none" stroke="black" d="M328.461,-847.093C296.626,-844.678 245.207,-840.778 211.893,-838.252"/>
</g>
<!-- 3390&#45;&gt;17357 -->
<g id="edge40" class="edge"><title>3390&#45;&gt;17357</title>
<path fill="none" stroke="black" d="M385.647,-847.506C423.729,-845.185 490.808,-841.096 530.728,-838.663"/>
</g>
<!-- 28688 -->
<g id="node41" class="node"><title>28688</title>
<g id="a_node41"><a xlink:title="6th_week">
<ellipse fill="#c81d25" stroke="black" cx="239.511" cy="-763.277" rx="32.4942" ry="18"/>
<text text-anchor="middle" x="239.511" y="-759.577" font-family="Times,serif" font-size="14.00">28688</text>
</a>
</g>
</g>
<!-- 3390&#45;&gt;28688 -->
<g id="edge20" class="edge"><title>3390&#45;&gt;28688</title>
<path fill="none" stroke="black" d="M338.094,-835.441C316.565,-819.681 281.505,-794.017 259.515,-777.92"/>
</g>
<!-- 3415 -->
<g id="node10" class="node"><title>3415</title>
<g id="a_node10"><a xlink:title="6th_week">
<ellipse fill="#c81d25" stroke="black" cx="1387.8" cy="-156.211" rx="28.6953" ry="18"/>
<text text-anchor="middle" x="1387.8" y="-152.511" font-family="Times,serif" font-size="14.00">3415</text>
</a>
</g>
</g>
<!-- 9783 -->
<g id="node17" class="node"><title>9783</title>
<g id="a_node17"><a xlink:title="6th_week">
<ellipse fill="#c81d25" stroke="black" cx="1423.84" cy="-17.8103" rx="28.6953" ry="18"/>
<text text-anchor="middle" x="1423.84" y="-14.1103" font-family="Times,serif" font-size="14.00">9783</text>
</a>
</g>
</g>
<!-- 3415&#45;&gt;9783 -->
<g id="edge7" class="edge"><title>3415&#45;&gt;9783</title>
<path fill="none" stroke="black" d="M1392.44,-138.401C1399.32,-111.972 1412.17,-62.633 1419.11,-35.9916"/>
</g>
<!-- 24503 -->
<g id="node38" class="node"><title>24503</title>
<g id="a_node38"><a xlink:title="6th_week">
<ellipse fill="#c81d25" stroke="black" cx="1340.77" cy="-331.288" rx="32.4942" ry="18"/>
<text text-anchor="middle" x="1340.77" y="-327.588" font-family="Times,serif" font-size="14.00">24503</text>
</a>
</g>
</g>
<!-- 3415&#45;&gt;24503 -->
<g id="edge17" class="edge"><title>3415&#45;&gt;24503</title>
<path fill="none" stroke="black" d="M1383.04,-173.962C1374.04,-207.431 1354.68,-279.524 1345.62,-313.229"/>
</g>
<!-- 4293 -->
<g id="node12" class="node"><title>4293</title>
<g id="a_node12"><a xlink:title="6th_week">
<ellipse fill="#c81d25" stroke="black" cx="459.932" cy="-916.729" rx="28.6953" ry="18"/>
<text text-anchor="middle" x="459.932" y="-913.029" font-family="Times,serif" font-size="14.00">4293</text>
</a>
</g>
</g>
<!-- 4293&#45;&gt;17357 -->
<g id="edge33" class="edge"><title>4293&#45;&gt;17357</title>
<path fill="none" stroke="black" d="M478.402,-902.418C496.974,-888.028 525.472,-865.947 544.234,-851.41"/>
</g>
<!-- 4398 -->
<g id="node13" class="node"><title>4398</title>
<g id="a_node13"><a xlink:title="6th_week">
<ellipse fill="#c81d25" stroke="black" cx="1700.86" cy="-1180.29" rx="28.6953" ry="18"/>
<text text-anchor="middle" x="1700.86" y="-1176.59" font-family="Times,serif" font-size="14.00">4398</text>
</a>
</g>
</g>
<!-- 17710 -->
<g id="node27" class="node"><title>17710</title>
<g id="a_node27"><a xlink:title="6th_week">
<ellipse fill="#c81d25" stroke="black" cx="1583.59" cy="-1067.55" rx="32.4942" ry="18"/>
<text text-anchor="middle" x="1583.59" y="-1063.85" font-family="Times,serif" font-size="14.00">17710</text>
</a>
</g>
</g>
<!-- 4398&#45;&gt;17710 -->
<g id="edge5" class="edge"><title>4398&#45;&gt;17710</title>
<path fill="none" stroke="black" d="M1685.05,-1165.08C1662.79,-1143.68 1622.44,-1104.89 1599.91,-1083.23"/>
</g>
<!-- 10054 -->
<g id="node18" class="node"><title>10054</title>
<g id="a_node18"><a xlink:title="6th_week">
<ellipse fill="#c81d25" stroke="black" cx="1509.02" cy="-1084.91" rx="32.4942" ry="18"/>
<text text-anchor="middle" x="1509.02" y="-1081.21" font-family="Times,serif" font-size="14.00">10054</text>
</a>
</g>
</g>
<!-- 10054&#45;&gt;32725 -->
<g id="edge23" class="edge"><title>10054&#45;&gt;32725</title>
<path fill="none" stroke="black" d="M1500.7,-1067.22C1487.67,-1039.52 1462.61,-986.229 1449.54,-958.443"/>
</g>
<!-- 11211 -->
<g id="node20" class="node"><title>11211</title>
<g id="a_node20"><a xlink:title="6th_week">
<ellipse fill="#c81d25" stroke="black" cx="1045.64" cy="-1043.36" rx="32.4942" ry="18"/>
<text text-anchor="middle" x="1045.64" y="-1039.66" font-family="Times,serif" font-size="14.00">11211</text>
</a>
</g>
</g>
<!-- 11211&#45;&gt;28297 -->
<g id="edge46" class="edge"><title>11211&#45;&gt;28297</title>
<path fill="none" stroke="black" d="M1057.09,-1026.26C1074.17,-1000.75 1106.15,-953.01 1123.21,-927.54"/>
</g>
<!-- 23588 -->
<g id="node49" class="node"><title>23588</title>
<g id="a_node49"><a xlink:title="6th_week">
<ellipse fill="#c81d25" stroke="black" cx="32.0542" cy="-834.115" rx="32.4942" ry="18"/>
<text text-anchor="middle" x="32.0542" y="-830.415" font-family="Times,serif" font-size="14.00">23588</text>
</a>
</g>
</g>
<!-- 11393&#45;&gt;23588 -->
<g id="edge22" class="edge"><title>11393&#45;&gt;23588</title>
<path fill="none" stroke="black" d="M146.816,-835.425C122.374,-835.146 89.1175,-834.766 64.6969,-834.488"/>
</g>
<!-- 16433 -->
<g id="node46" class="node"><title>16433</title>
<g id="a_node46"><a xlink:title="6th_week">
<ellipse fill="#c81d25" stroke="black" cx="1263.8" cy="-1133.31" rx="32.4942" ry="18"/>
<text text-anchor="middle" x="1263.8" y="-1129.61" font-family="Times,serif" font-size="14.00">16433</text>
</a>
</g>
</g>
<!-- 12761&#45;&gt;16433 -->
<g id="edge32" class="edge"><title>12761&#45;&gt;16433</title>
<path fill="none" stroke="black" d="M1269.24,-978.593C1268.07,-1011.8 1265.61,-1081.9 1264.44,-1115.12"/>
</g>
<!-- 17710&#45;&gt;32725 -->
<g id="edge38" class="edge"><title>17710&#45;&gt;32725</title>
<path fill="none" stroke="black" d="M1566.41,-1052.23C1539.03,-1027.83 1485.81,-980.403 1458.39,-955.97"/>
</g>
<!-- 11550 -->
<g id="node45" class="node"><title>11550</title>
<g id="a_node45"><a xlink:title="6th_week">
<ellipse fill="#c81d25" stroke="black" cx="1641.3" cy="-711.73" rx="32.4942" ry="18"/>
<text text-anchor="middle" x="1641.3" y="-708.03" font-family="Times,serif" font-size="14.00">11550</text>
</a>
</g>
</g>
<!-- 18729&#45;&gt;11550 -->
<g id="edge11" class="edge"><title>18729&#45;&gt;11550</title>
<path fill="none" stroke="black" d="M1510.71,-726.256C1539.24,-723.082 1580.7,-718.47 1609.21,-715.299"/>
</g>
<!-- 20992 -->
<g id="node34" class="node"><title>20992</title>
<g id="a_node34"><a xlink:title="6th_week">
<ellipse fill="#c81d25" stroke="black" cx="865.789" cy="-744.207" rx="32.4942" ry="18"/>
<text text-anchor="middle" x="865.789" y="-740.507" font-family="Times,serif" font-size="14.00">20992</text>
</a>
</g>
</g>
<!-- 20992&#45;&gt;21423 -->
<g id="edge21" class="edge"><title>20992&#45;&gt;21423</title>
<path fill="none" stroke="black" d="M896.067,-751.219C920.717,-756.927 955.344,-764.945 979.984,-770.651"/>
</g>
<!-- 24503&#45;&gt;33420 -->
<g id="edge30" class="edge"><title>24503&#45;&gt;33420</title>
<path fill="none" stroke="black" d="M1335.61,-349.193C1325.33,-384.884 1302.38,-464.519 1292.11,-500.166"/>
</g>
</g>
</svg>
