<?xml version="1.0" encoding="UTF-8" standalone="no"?>
<!DOCTYPE svg PUBLIC "-//W3C//DTD SVG 1.1//EN"
 "http://www.w3.org/Graphics/SVG/1.1/DTD/svg11.dtd">
<!-- Generated by graphviz version 2.38.0 (20140413.2041)
 -->
<!-- Title: %3 Pages: 1 -->
<svg width="2412pt" height="1246pt"
 viewBox="0.00 0.00 2412.00 1246.00" xmlns="http://www.w3.org/2000/svg" xmlns:xlink="http://www.w3.org/1999/xlink">
<g id="graph0" class="graph" transform="scale(1 1) rotate(0) translate(4 1242)">
<title>%3</title>
<polygon fill="white" stroke="none" points="-4,4 -4,-1242 2408,-1242 2408,4 -4,4"/>
<!-- 39 -->
<g id="node1" class="node"><title>39</title>
<g id="a_node1"><a xlink:title="Day_0">
<ellipse fill="#e5dada" stroke="black" cx="26.9088" cy="-490.755" rx="27" ry="18"/>
<text text-anchor="middle" x="26.9088" y="-487.055" font-family="Times,serif" font-size="14.00">39</text>
</a>
</g>
</g>
<!-- 9230 -->
<g id="node17" class="node"><title>9230</title>
<g id="a_node17"><a xlink:title="Day_0">
<ellipse fill="#e5dada" stroke="black" cx="209.958" cy="-488.516" rx="28.6953" ry="18"/>
<text text-anchor="middle" x="209.958" y="-484.816" font-family="Times,serif" font-size="14.00">9230</text>
</a>
</g>
</g>
<!-- 39&#45;&gt;9230 -->
<g id="edge39" class="edge"><title>39&#45;&gt;9230</title>
<path fill="none" stroke="black" d="M53.9183,-490.425C88.0294,-490.007 146.467,-489.293 181.328,-488.866"/>
</g>
<!-- 68 -->
<g id="node2" class="node"><title>68</title>
<g id="a_node2"><a xlink:title="Day_0">
<ellipse fill="#e5dada" stroke="black" cx="1299.83" cy="-350.157" rx="27" ry="18"/>
<text text-anchor="middle" x="1299.83" y="-346.457" font-family="Times,serif" font-size="14.00">68</text>
</a>
</g>
</g>
<!-- 19529 -->
<g id="node32" class="node"><title>19529</title>
<g id="a_node32"><a xlink:title="Day_0">
<ellipse fill="#e5dada" stroke="black" cx="1214.85" cy="-469.444" rx="32.4942" ry="18"/>
<text text-anchor="middle" x="1214.85" y="-465.744" font-family="Times,serif" font-size="14.00">19529</text>
</a>
</g>
</g>
<!-- 68&#45;&gt;19529 -->
<g id="edge31" class="edge"><title>68&#45;&gt;19529</title>
<path fill="none" stroke="black" d="M1288.02,-366.743C1271.87,-389.406 1243.08,-429.826 1226.84,-452.614"/>
</g>
<!-- 90 -->
<g id="node3" class="node"><title>90</title>
<g id="a_node3"><a xlink:title="Day_0">
<ellipse fill="#e5dada" stroke="black" cx="1260.48" cy="-249.815" rx="27" ry="18"/>
<text text-anchor="middle" x="1260.48" y="-246.115" font-family="Times,serif" font-size="14.00">90</text>
</a>
</g>
</g>
<!-- 6424 -->
<g id="node9" class="node"><title>6424</title>
<g id="a_node9"><a xlink:title="Day_0">
<ellipse fill="#e5dada" stroke="black" cx="1307.13" cy="-65.4664" rx="28.6953" ry="18"/>
<text text-anchor="middle" x="1307.13" y="-61.7664" font-family="Times,serif" font-size="14.00">6424</text>
</a>
</g>
</g>
<!-- 90&#45;&gt;6424 -->
<g id="edge42" class="edge"><title>90&#45;&gt;6424</title>
<path fill="none" stroke="black" d="M1265.04,-231.803C1273.98,-196.469 1293.72,-118.453 1302.63,-83.2799"/>
</g>
<!-- 90&#45;&gt;19529 -->
<g id="edge38" class="edge"><title>90&#45;&gt;19529</title>
<path fill="none" stroke="black" d="M1256.74,-267.788C1248.17,-309.075 1227.14,-410.302 1218.57,-451.531"/>
</g>
<!-- 204 -->
<g id="node4" class="node"><title>204</title>
<g id="a_node4"><a xlink:title="Day_0">
<ellipse fill="#e5dada" stroke="black" cx="1794.51" cy="-869.576" rx="27" ry="18"/>
<text text-anchor="middle" x="1794.51" y="-865.876" font-family="Times,serif" font-size="14.00">204</text>
</a>
</g>
</g>
<!-- 14350 -->
<g id="node22" class="node"><title>14350</title>
<g id="a_node22"><a xlink:title="Day_0">
<ellipse fill="#e5dada" stroke="black" cx="1934.67" cy="-834.872" rx="32.4942" ry="18"/>
<text text-anchor="middle" x="1934.67" y="-831.172" font-family="Times,serif" font-size="14.00">14350</text>
</a>
</g>
</g>
<!-- 204&#45;&gt;14350 -->
<g id="edge29" class="edge"><title>204&#45;&gt;14350</title>
<path fill="none" stroke="black" d="M1819.89,-863.291C1843.79,-857.373 1879.6,-848.506 1904.86,-842.254"/>
</g>
<!-- 285 -->
<g id="node5" class="node"><title>285</title>
<g id="a_node5"><a xlink:title="Day_0">
<ellipse fill="#e5dada" stroke="black" cx="1133.37" cy="-610.015" rx="27" ry="18"/>
<text text-anchor="middle" x="1133.37" y="-606.315" font-family="Times,serif" font-size="14.00">285</text>
</a>
</g>
</g>
<!-- 285&#45;&gt;19529 -->
<g id="edge32" class="edge"><title>285&#45;&gt;19529</title>
<path fill="none" stroke="black" d="M1143.2,-593.059C1158.77,-566.186 1188.98,-514.084 1204.73,-486.901"/>
</g>
<!-- 907 -->
<g id="node6" class="node"><title>907</title>
<g id="a_node6"><a xlink:title="Day_0">
<ellipse fill="#e5dada" stroke="black" cx="1169.96" cy="-319.245" rx="27" ry="18"/>
<text text-anchor="middle" x="1169.96" y="-315.545" font-family="Times,serif" font-size="14.00">907</text>
</a>
</g>
</g>
<!-- 907&#45;&gt;19529 -->
<g id="edge27" class="edge"><title>907&#45;&gt;19529</title>
<path fill="none" stroke="black" d="M1175.29,-337.064C1183.93,-365.972 1200.9,-422.755 1209.53,-451.648"/>
</g>
<!-- 1435 -->
<g id="node7" class="node"><title>1435</title>
<g id="a_node7"><a xlink:title="Day_0">
<ellipse fill="#e5dada" stroke="black" cx="290.25" cy="-508.665" rx="28.6953" ry="18"/>
<text text-anchor="middle" x="290.25" y="-504.965" font-family="Times,serif" font-size="14.00">1435</text>
</a>
</g>
</g>
<!-- 24382 -->
<g id="node38" class="node"><title>24382</title>
<g id="a_node38"><a xlink:title="Day_0">
<ellipse fill="#e5dada" stroke="black" cx="458.056" cy="-480.084" rx="32.4942" ry="18"/>
<text text-anchor="middle" x="458.056" y="-476.384" font-family="Times,serif" font-size="14.00">24382</text>
</a>
</g>
</g>
<!-- 1435&#45;&gt;24382 -->
<g id="edge50" class="edge"><title>1435&#45;&gt;24382</title>
<path fill="none" stroke="black" d="M317.959,-503.945C347.934,-498.84 395.618,-490.718 426.88,-485.394"/>
</g>
<!-- 4735 -->
<g id="node8" class="node"><title>4735</title>
<g id="a_node8"><a xlink:title="Day_0">
<ellipse fill="#e5dada" stroke="black" cx="334.378" cy="-621.365" rx="28.6953" ry="18"/>
<text text-anchor="middle" x="334.378" y="-617.665" font-family="Times,serif" font-size="14.00">4735</text>
</a>
</g>
</g>
<!-- 4735&#45;&gt;24382 -->
<g id="edge30" class="edge"><title>4735&#45;&gt;24382</title>
<path fill="none" stroke="black" d="M348.325,-605.433C371.952,-578.443 419.612,-523.999 443.588,-496.611"/>
</g>
<!-- 6564 -->
<g id="node10" class="node"><title>6564</title>
<g id="a_node10"><a xlink:title="Day_0">
<ellipse fill="#e5dada" stroke="black" cx="1988.21" cy="-668.164" rx="28.6953" ry="18"/>
<text text-anchor="middle" x="1988.21" y="-664.464" font-family="Times,serif" font-size="14.00">6564</text>
</a>
</g>
</g>
<!-- 6564&#45;&gt;14350 -->
<g id="edge12" class="edge"><title>6564&#45;&gt;14350</title>
<path fill="none" stroke="black" d="M1982.48,-686.005C1972.2,-718.007 1950.75,-784.816 1940.44,-816.907"/>
</g>
<!-- 6568 -->
<g id="node11" class="node"><title>6568</title>
<g id="a_node11"><a xlink:title="Day_0">
<ellipse fill="#e5dada" stroke="black" cx="1934.72" cy="-1038.89" rx="28.6953" ry="18"/>
<text text-anchor="middle" x="1934.72" y="-1035.19" font-family="Times,serif" font-size="14.00">6568</text>
</a>
</g>
</g>
<!-- 6568&#45;&gt;14350 -->
<g id="edge11" class="edge"><title>6568&#45;&gt;14350</title>
<path fill="none" stroke="black" d="M1934.72,-1020.78C1934.71,-982.067 1934.68,-891.616 1934.67,-852.936"/>
</g>
<!-- 6658 -->
<g id="node12" class="node"><title>6658</title>
<g id="a_node12"><a xlink:title="Day_0">
<ellipse fill="#e5dada" stroke="black" cx="286.344" cy="-572.355" rx="28.6953" ry="18"/>
<text text-anchor="middle" x="286.344" y="-568.655" font-family="Times,serif" font-size="14.00">6658</text>
</a>
</g>
</g>
<!-- 6658&#45;&gt;24382 -->
<g id="edge40" class="edge"><title>6658&#45;&gt;24382</title>
<path fill="none" stroke="black" d="M308.441,-560.481C340.959,-543.007 401.433,-510.511 434.671,-492.65"/>
</g>
<!-- 7272 -->
<g id="node13" class="node"><title>7272</title>
<g id="a_node13"><a xlink:title="Day_0">
<ellipse fill="#e5dada" stroke="black" cx="1570.82" cy="-651.648" rx="28.6953" ry="18"/>
<text text-anchor="middle" x="1570.82" y="-647.948" font-family="Times,serif" font-size="14.00">7272</text>
</a>
</g>
</g>
<!-- 7272&#45;&gt;14350 -->
<g id="edge28" class="edge"><title>7272&#45;&gt;14350</title>
<path fill="none" stroke="black" d="M1593.31,-662.972C1657.92,-695.506 1843.72,-789.072 1910.45,-822.674"/>
</g>
<!-- 7272&#45;&gt;19529 -->
<g id="edge10" class="edge"><title>7272&#45;&gt;19529</title>
<path fill="none" stroke="black" d="M1548.56,-640.251C1485.24,-607.841 1304.51,-515.338 1238.97,-481.789"/>
</g>
<!-- 8727 -->
<g id="node14" class="node"><title>8727</title>
<g id="a_node14"><a xlink:title="Day_0">
<ellipse fill="#e5dada" stroke="black" cx="399.788" cy="-664.065" rx="28.6953" ry="18"/>
<text text-anchor="middle" x="399.788" y="-660.365" font-family="Times,serif" font-size="14.00">8727</text>
</a>
</g>
</g>
<!-- 8727&#45;&gt;24382 -->
<g id="edge4" class="edge"><title>8727&#45;&gt;24382</title>
<path fill="none" stroke="black" d="M405.481,-646.089C416.649,-610.826 441.308,-532.965 452.426,-497.862"/>
</g>
<!-- 8954 -->
<g id="node15" class="node"><title>8954</title>
<g id="a_node15"><a xlink:title="Day_0">
<ellipse fill="#e5dada" stroke="black" cx="2051.61" cy="-1047.2" rx="28.6953" ry="18"/>
<text text-anchor="middle" x="2051.61" y="-1043.5" font-family="Times,serif" font-size="14.00">8954</text>
</a>
</g>
</g>
<!-- 8954&#45;&gt;14350 -->
<g id="edge24" class="edge"><title>8954&#45;&gt;14350</title>
<path fill="none" stroke="black" d="M2042.24,-1030.18C2020.4,-990.522 1966.3,-892.293 1944.25,-852.266"/>
</g>
<!-- 15226 -->
<g id="node53" class="node"><title>15226</title>
<g id="a_node53"><a xlink:title="Day_0">
<ellipse fill="#e5dada" stroke="black" cx="2151.66" cy="-1220.14" rx="32.4942" ry="18"/>
<text text-anchor="middle" x="2151.66" y="-1216.44" font-family="Times,serif" font-size="14.00">15226</text>
</a>
</g>
</g>
<!-- 8954&#45;&gt;15226 -->
<g id="edge15" class="edge"><title>8954&#45;&gt;15226</title>
<path fill="none" stroke="black" d="M2061.57,-1064.41C2080.75,-1097.56 2122.59,-1169.9 2141.74,-1202.99"/>
</g>
<!-- 9115 -->
<g id="node16" class="node"><title>9115</title>
<g id="a_node16"><a xlink:title="Day_0">
<ellipse fill="#e5dada" stroke="black" cx="2181.1" cy="-797.522" rx="28.6953" ry="18"/>
<text text-anchor="middle" x="2181.1" y="-793.822" font-family="Times,serif" font-size="14.00">9115</text>
</a>
</g>
</g>
<!-- 9115&#45;&gt;14350 -->
<g id="edge3" class="edge"><title>9115&#45;&gt;14350</title>
<path fill="none" stroke="black" d="M2152.83,-801.807C2106.43,-808.839 2014.46,-822.779 1966.09,-830.11"/>
</g>
<!-- 13541 -->
<g id="node54" class="node"><title>13541</title>
<g id="a_node54"><a xlink:title="Day_0">
<ellipse fill="#e5dada" stroke="black" cx="2371.33" cy="-772.912" rx="32.4942" ry="18"/>
<text text-anchor="middle" x="2371.33" y="-769.212" font-family="Times,serif" font-size="14.00">13541</text>
</a>
</g>
</g>
<!-- 9115&#45;&gt;13541 -->
<g id="edge43" class="edge"><title>9115&#45;&gt;13541</title>
<path fill="none" stroke="black" d="M2209.17,-793.891C2244,-789.385 2303.23,-781.722 2339.65,-777.01"/>
</g>
<!-- 9230&#45;&gt;24382 -->
<g id="edge45" class="edge"><title>9230&#45;&gt;24382</title>
<path fill="none" stroke="black" d="M238.903,-487.532C285.431,-485.951 376.569,-482.853 425.371,-481.194"/>
</g>
<!-- 10374 -->
<g id="node18" class="node"><title>10374</title>
<g id="a_node18"><a xlink:title="Day_0">
<ellipse fill="#e5dada" stroke="black" cx="1862.84" cy="-1007.1" rx="32.4942" ry="18"/>
<text text-anchor="middle" x="1862.84" y="-1003.4" font-family="Times,serif" font-size="14.00">10374</text>
</a>
</g>
</g>
<!-- 10374&#45;&gt;14350 -->
<g id="edge25" class="edge"><title>10374&#45;&gt;14350</title>
<path fill="none" stroke="black" d="M1870.25,-989.318C1884.05,-956.229 1913.52,-885.574 1927.29,-852.558"/>
</g>
<!-- 11824 -->
<g id="node19" class="node"><title>11824</title>
<g id="a_node19"><a xlink:title="Day_0">
<ellipse fill="#e5dada" stroke="black" cx="1167.14" cy="-660.525" rx="32.4942" ry="18"/>
<text text-anchor="middle" x="1167.14" y="-656.825" font-family="Times,serif" font-size="14.00">11824</text>
</a>
</g>
</g>
<!-- 11824&#45;&gt;19529 -->
<g id="edge53" class="edge"><title>11824&#45;&gt;19529</title>
<path fill="none" stroke="black" d="M1171.63,-642.548C1180.72,-606.13 1201.23,-524.007 1210.34,-487.512"/>
</g>
<!-- 11874 -->
<g id="node20" class="node"><title>11874</title>
<g id="a_node20"><a xlink:title="Day_0">
<ellipse fill="#e5dada" stroke="black" cx="366.67" cy="-354.756" rx="32.4942" ry="18"/>
<text text-anchor="middle" x="366.67" y="-351.056" font-family="Times,serif" font-size="14.00">11874</text>
</a>
</g>
</g>
<!-- 11874&#45;&gt;24382 -->
<g id="edge9" class="edge"><title>11874&#45;&gt;24382</title>
<path fill="none" stroke="black" d="M378.995,-371.658C396.437,-395.578 428.141,-439.057 445.635,-463.049"/>
</g>
<!-- 12504 -->
<g id="node21" class="node"><title>12504</title>
<g id="a_node21"><a xlink:title="Day_0">
<ellipse fill="#e5dada" stroke="black" cx="457.526" cy="-307.638" rx="32.4942" ry="18"/>
<text text-anchor="middle" x="457.526" y="-303.938" font-family="Times,serif" font-size="14.00">12504</text>
</a>
</g>
</g>
<!-- 12504&#45;&gt;24382 -->
<g id="edge48" class="edge"><title>12504&#45;&gt;24382</title>
<path fill="none" stroke="black" d="M457.582,-325.766C457.684,-358.886 457.899,-428.807 458.001,-461.939"/>
</g>
<!-- 14515 -->
<g id="node24" class="node"><title>14515</title>
<g id="a_node24"><a xlink:title="Day_0">
<ellipse fill="#e5dada" stroke="black" cx="1809.6" cy="-959.85" rx="32.4942" ry="18"/>
<text text-anchor="middle" x="1809.6" y="-956.15" font-family="Times,serif" font-size="14.00">14515</text>
</a>
</g>
</g>
<!-- 14350&#45;&gt;14515 -->
<g id="edge51" class="edge"><title>14350&#45;&gt;14515</title>
<path fill="none" stroke="black" d="M1918.83,-850.7C1894.9,-874.609 1849.79,-919.69 1825.71,-943.755"/>
</g>
<!-- 15972 -->
<g id="node27" class="node"><title>15972</title>
<g id="a_node27"><a xlink:title="Day_0">
<ellipse fill="#e5dada" stroke="black" cx="1986.65" cy="-994.44" rx="32.4942" ry="18"/>
<text text-anchor="middle" x="1986.65" y="-990.74" font-family="Times,serif" font-size="14.00">15972</text>
</a>
</g>
</g>
<!-- 14350&#45;&gt;15972 -->
<g id="edge47" class="edge"><title>14350&#45;&gt;15972</title>
<path fill="none" stroke="black" d="M1940.53,-852.866C1950.52,-883.512 1970.71,-945.499 1980.73,-976.267"/>
</g>
<!-- 20482 -->
<g id="node34" class="node"><title>20482</title>
<g id="a_node34"><a xlink:title="Day_0">
<ellipse fill="#e5dada" stroke="black" cx="2103.18" cy="-884.139" rx="32.4942" ry="18"/>
<text text-anchor="middle" x="2103.18" y="-880.439" font-family="Times,serif" font-size="14.00">20482</text>
</a>
</g>
</g>
<!-- 14350&#45;&gt;20482 -->
<g id="edge16" class="edge"><title>14350&#45;&gt;20482</title>
<path fill="none" stroke="black" d="M1963.64,-843.341C1994.6,-852.393 2043.39,-866.658 2074.31,-875.698"/>
</g>
<!-- 26992 -->
<g id="node40" class="node"><title>26992</title>
<g id="a_node40"><a xlink:title="Day_0">
<ellipse fill="#e5dada" stroke="black" cx="2102.1" cy="-808.597" rx="32.4942" ry="18"/>
<text text-anchor="middle" x="2102.1" y="-804.897" font-family="Times,serif" font-size="14.00">26992</text>
</a>
</g>
</g>
<!-- 14350&#45;&gt;26992 -->
<g id="edge19" class="edge"><title>14350&#45;&gt;26992</title>
<path fill="none" stroke="black" d="M1966.16,-829.93C1996.1,-825.232 2040.86,-818.207 2070.75,-813.517"/>
</g>
<!-- 27297 -->
<g id="node41" class="node"><title>27297</title>
<g id="a_node41"><a xlink:title="Day_0">
<ellipse fill="#e5dada" stroke="black" cx="1911.88" cy="-671.581" rx="32.4942" ry="18"/>
<text text-anchor="middle" x="1911.88" y="-667.881" font-family="Times,serif" font-size="14.00">27297</text>
</a>
</g>
</g>
<!-- 14350&#45;&gt;27297 -->
<g id="edge2" class="edge"><title>14350&#45;&gt;27297</title>
<path fill="none" stroke="black" d="M1932.14,-816.773C1927.76,-785.385 1918.8,-721.205 1914.41,-689.761"/>
</g>
<!-- 27825 -->
<g id="node44" class="node"><title>27825</title>
<g id="a_node44"><a xlink:title="Day_0">
<ellipse fill="#e5dada" stroke="black" cx="2062.01" cy="-955.318" rx="32.4942" ry="18"/>
<text text-anchor="middle" x="2062.01" y="-951.618" font-family="Times,serif" font-size="14.00">27825</text>
</a>
</g>
</g>
<!-- 14350&#45;&gt;27825 -->
<g id="edge23" class="edge"><title>14350&#45;&gt;27825</title>
<path fill="none" stroke="black" d="M1951.32,-850.618C1975.72,-873.701 2020.95,-916.482 2045.36,-939.568"/>
</g>
<!-- 13995 -->
<g id="node49" class="node"><title>13995</title>
<g id="a_node49"><a xlink:title="Day_0">
<ellipse fill="#e5dada" stroke="black" cx="2063.35" cy="-685.806" rx="32.4942" ry="18"/>
<text text-anchor="middle" x="2063.35" y="-682.106" font-family="Times,serif" font-size="14.00">13995</text>
</a>
</g>
</g>
<!-- 14350&#45;&gt;13995 -->
<g id="edge52" class="edge"><title>14350&#45;&gt;13995</title>
<path fill="none" stroke="black" d="M1948.93,-818.35C1973.67,-789.696 2024.24,-731.107 2049.02,-702.402"/>
</g>
<!-- 18934 -->
<g id="node50" class="node"><title>18934</title>
<g id="a_node50"><a xlink:title="Day_0">
<ellipse fill="#e5dada" stroke="black" cx="2098.45" cy="-735.453" rx="32.4942" ry="18"/>
<text text-anchor="middle" x="2098.45" y="-731.753" font-family="Times,serif" font-size="14.00">18934</text>
</a>
</g>
</g>
<!-- 14350&#45;&gt;18934 -->
<g id="edge7" class="edge"><title>14350&#45;&gt;18934</title>
<path fill="none" stroke="black" d="M1956.76,-821.464C1988.1,-802.436 2045.15,-767.805 2076.45,-748.807"/>
</g>
<!-- 22716 -->
<g id="node52" class="node"><title>22716</title>
<g id="a_node52"><a xlink:title="Day_0">
<ellipse fill="#e5dada" stroke="black" cx="2157" cy="-946.04" rx="32.4942" ry="18"/>
<text text-anchor="middle" x="2157" y="-942.34" font-family="Times,serif" font-size="14.00">22716</text>
</a>
</g>
</g>
<!-- 14350&#45;&gt;22716 -->
<g id="edge21" class="edge"><title>14350&#45;&gt;22716</title>
<path fill="none" stroke="black" d="M1958.89,-846.98C2001.65,-868.365 2090.07,-912.573 2132.81,-933.946"/>
</g>
<!-- 14466 -->
<g id="node23" class="node"><title>14466</title>
<g id="a_node23"><a xlink:title="Day_0">
<ellipse fill="#e5dada" stroke="black" cx="367.716" cy="-296.445" rx="32.4942" ry="18"/>
<text text-anchor="middle" x="367.716" y="-292.745" font-family="Times,serif" font-size="14.00">14466</text>
</a>
</g>
</g>
<!-- 14466&#45;&gt;24382 -->
<g id="edge34" class="edge"><title>14466&#45;&gt;24382</title>
<path fill="none" stroke="black" d="M376.378,-314.053C393.646,-349.154 432.174,-427.472 449.42,-462.529"/>
</g>
<!-- 15633 -->
<g id="node25" class="node"><title>15633</title>
<g id="a_node25"><a xlink:title="Day_0">
<ellipse fill="#e5dada" stroke="black" cx="1240.63" cy="-650.459" rx="32.4942" ry="18"/>
<text text-anchor="middle" x="1240.63" y="-646.759" font-family="Times,serif" font-size="14.00">15633</text>
</a>
</g>
</g>
<!-- 15633&#45;&gt;19529 -->
<g id="edge37" class="edge"><title>15633&#45;&gt;19529</title>
<path fill="none" stroke="black" d="M1238.06,-632.441C1233.12,-597.744 1222.34,-522.029 1217.41,-487.39"/>
</g>
<!-- 15953 -->
<g id="node26" class="node"><title>15953</title>
<g id="a_node26"><a xlink:title="Day_0">
<ellipse fill="#e5dada" stroke="black" cx="270.904" cy="-429.231" rx="32.4942" ry="18"/>
<text text-anchor="middle" x="270.904" y="-425.531" font-family="Times,serif" font-size="14.00">15953</text>
</a>
</g>
</g>
<!-- 15953&#45;&gt;24382 -->
<g id="edge22" class="edge"><title>15953&#45;&gt;24382</title>
<path fill="none" stroke="black" d="M300.147,-437.176C335.204,-446.702 393.609,-462.572 428.711,-472.11"/>
</g>
<!-- 15996 -->
<g id="node28" class="node"><title>15996</title>
<g id="a_node28"><a xlink:title="Day_0">
<ellipse fill="#e5dada" stroke="black" cx="1370.45" cy="-516.665" rx="32.4942" ry="18"/>
<text text-anchor="middle" x="1370.45" y="-512.965" font-family="Times,serif" font-size="14.00">15996</text>
</a>
</g>
</g>
<!-- 15996&#45;&gt;19529 -->
<g id="edge26" class="edge"><title>15996&#45;&gt;19529</title>
<path fill="none" stroke="black" d="M1341.91,-508.004C1313.92,-499.51 1271.49,-486.632 1243.47,-478.13"/>
</g>
<!-- 16590 -->
<g id="node29" class="node"><title>16590</title>
<g id="a_node29"><a xlink:title="Day_0">
<ellipse fill="#e5dada" stroke="black" cx="1039.33" cy="-504.042" rx="32.4942" ry="18"/>
<text text-anchor="middle" x="1039.33" y="-500.342" font-family="Times,serif" font-size="14.00">16590</text>
</a>
</g>
</g>
<!-- 16590&#45;&gt;19529 -->
<g id="edge35" class="edge"><title>16590&#45;&gt;19529</title>
<path fill="none" stroke="black" d="M1070.31,-497.936C1102.39,-491.612 1152.22,-481.79 1184.19,-475.489"/>
</g>
<!-- 16594 -->
<g id="node30" class="node"><title>16594</title>
<g id="a_node30"><a xlink:title="Day_0">
<ellipse fill="#e5dada" stroke="black" cx="1320.17" cy="-603.058" rx="32.4942" ry="18"/>
<text text-anchor="middle" x="1320.17" y="-599.358" font-family="Times,serif" font-size="14.00">16594</text>
</a>
</g>
</g>
<!-- 16594&#45;&gt;19529 -->
<g id="edge6" class="edge"><title>16594&#45;&gt;19529</title>
<path fill="none" stroke="black" d="M1307.04,-586.406C1286.86,-560.802 1248.42,-512.036 1228.14,-486.306"/>
</g>
<!-- 19276 -->
<g id="node31" class="node"><title>19276</title>
<g id="a_node31"><a xlink:title="Day_0">
<ellipse fill="#e5dada" stroke="black" cx="1031.65" cy="-46.1574" rx="32.4942" ry="18"/>
<text text-anchor="middle" x="1031.65" y="-42.4574" font-family="Times,serif" font-size="14.00">19276</text>
</a>
</g>
</g>
<!-- 26315 -->
<g id="node39" class="node"><title>26315</title>
<g id="a_node39"><a xlink:title="Day_0">
<ellipse fill="#e5dada" stroke="black" cx="1129.57" cy="-217.695" rx="32.4942" ry="18"/>
<text text-anchor="middle" x="1129.57" y="-213.995" font-family="Times,serif" font-size="14.00">26315</text>
</a>
</g>
</g>
<!-- 19276&#45;&gt;26315 -->
<g id="edge13" class="edge"><title>19276&#45;&gt;26315</title>
<path fill="none" stroke="black" d="M1041.57,-63.5493C1060.39,-96.5122 1101.04,-167.712 1119.76,-200.512"/>
</g>
<!-- 20252 -->
<g id="node33" class="node"><title>20252</title>
<g id="a_node33"><a xlink:title="Day_0">
<ellipse fill="#e5dada" stroke="black" cx="826.288" cy="-475.256" rx="32.4942" ry="18"/>
<text text-anchor="middle" x="826.288" y="-471.556" font-family="Times,serif" font-size="14.00">20252</text>
</a>
</g>
</g>
<!-- 19529&#45;&gt;20252 -->
<g id="edge46" class="edge"><title>19529&#45;&gt;20252</title>
<path fill="none" stroke="black" d="M1182.06,-469.935C1108.69,-471.032 932.014,-473.675 858.857,-474.769"/>
</g>
<!-- 21653 -->
<g id="node35" class="node"><title>21653</title>
<g id="a_node35"><a xlink:title="Day_0">
<ellipse fill="#e5dada" stroke="black" cx="1081.3" cy="-347.483" rx="32.4942" ry="18"/>
<text text-anchor="middle" x="1081.3" y="-343.783" font-family="Times,serif" font-size="14.00">21653</text>
</a>
</g>
</g>
<!-- 19529&#45;&gt;21653 -->
<g id="edge8" class="edge"><title>19529&#45;&gt;21653</title>
<path fill="none" stroke="black" d="M1197.94,-453.998C1172.39,-430.666 1124.22,-386.673 1098.5,-363.19"/>
</g>
<!-- 22242 -->
<g id="node36" class="node"><title>22242</title>
<g id="a_node36"><a xlink:title="Day_0">
<ellipse fill="#e5dada" stroke="black" cx="1378.32" cy="-420.118" rx="32.4942" ry="18"/>
<text text-anchor="middle" x="1378.32" y="-416.418" font-family="Times,serif" font-size="14.00">22242</text>
</a>
</g>
</g>
<!-- 19529&#45;&gt;22242 -->
<g id="edge36" class="edge"><title>19529&#45;&gt;22242</title>
<path fill="none" stroke="black" d="M1243.7,-460.739C1273.58,-451.723 1319.99,-437.72 1349.76,-428.736"/>
</g>
<!-- 19529&#45;&gt;26315 -->
<g id="edge33" class="edge"><title>19529&#45;&gt;26315</title>
<path fill="none" stroke="black" d="M1208.86,-451.742C1193.24,-405.63 1151.42,-282.179 1135.68,-235.715"/>
</g>
<!-- 27575 -->
<g id="node43" class="node"><title>27575</title>
<g id="a_node43"><a xlink:title="Day_0">
<ellipse fill="#e5dada" stroke="black" cx="1042.78" cy="-419.471" rx="32.4942" ry="18"/>
<text text-anchor="middle" x="1042.78" y="-415.771" font-family="Times,serif" font-size="14.00">27575</text>
</a>
</g>
</g>
<!-- 19529&#45;&gt;27575 -->
<g id="edge18" class="edge"><title>19529&#45;&gt;27575</title>
<path fill="none" stroke="black" d="M1186.05,-461.08C1154.29,-451.855 1103.47,-437.098 1071.67,-427.862"/>
</g>
<!-- 29330 -->
<g id="node46" class="node"><title>29330</title>
<g id="a_node46"><a xlink:title="Day_0">
<ellipse fill="#e5dada" stroke="black" cx="1060.07" cy="-577.648" rx="32.4942" ry="18"/>
<text text-anchor="middle" x="1060.07" y="-573.948" font-family="Times,serif" font-size="14.00">29330</text>
</a>
</g>
</g>
<!-- 19529&#45;&gt;29330 -->
<g id="edge44" class="edge"><title>19529&#45;&gt;29330</title>
<path fill="none" stroke="black" d="M1194.62,-483.59C1164.95,-504.327 1109.98,-542.759 1080.31,-563.498"/>
</g>
<!-- 32237 -->
<g id="node47" class="node"><title>32237</title>
<g id="a_node47"><a xlink:title="Day_0">
<ellipse fill="#e5dada" stroke="black" cx="1364.29" cy="-294.541" rx="32.4942" ry="18"/>
<text text-anchor="middle" x="1364.29" y="-290.841" font-family="Times,serif" font-size="14.00">32237</text>
</a>
</g>
</g>
<!-- 19529&#45;&gt;32237 -->
<g id="edge1" class="edge"><title>19529&#45;&gt;32237</title>
<path fill="none" stroke="black" d="M1228.91,-452.99C1257.46,-419.569 1321.95,-344.1 1350.38,-310.824"/>
</g>
<!-- 20252&#45;&gt;24382 -->
<g id="edge49" class="edge"><title>20252&#45;&gt;24382</title>
<path fill="none" stroke="black" d="M793.61,-475.685C723.731,-476.601 560.474,-478.741 490.661,-479.656"/>
</g>
<!-- 24187 -->
<g id="node37" class="node"><title>24187</title>
<g id="a_node37"><a xlink:title="Day_0">
<ellipse fill="#e5dada" stroke="black" cx="1483.7" cy="-137.506" rx="32.4942" ry="18"/>
<text text-anchor="middle" x="1483.7" y="-133.806" font-family="Times,serif" font-size="14.00">24187</text>
</a>
</g>
</g>
<!-- 24187&#45;&gt;32237 -->
<g id="edge14" class="edge"><title>24187&#45;&gt;32237</title>
<path fill="none" stroke="black" d="M1470.92,-154.311C1447.94,-184.536 1399.89,-247.719 1376.98,-277.856"/>
</g>
<!-- 27404 -->
<g id="node42" class="node"><title>27404</title>
<g id="a_node42"><a xlink:title="Day_0">
<ellipse fill="#e5dada" stroke="black" cx="287.906" cy="-366.286" rx="32.4942" ry="18"/>
<text text-anchor="middle" x="287.906" y="-362.586" font-family="Times,serif" font-size="14.00">27404</text>
</a>
</g>
</g>
<!-- 24382&#45;&gt;27404 -->
<g id="edge5" class="edge"><title>24382&#45;&gt;27404</title>
<path fill="none" stroke="black" d="M437.193,-466.13C404.447,-444.23 341.36,-402.036 308.674,-380.176"/>
</g>
<!-- 28096 -->
<g id="node45" class="node"><title>28096</title>
<g id="a_node45"><a xlink:title="Day_0">
<ellipse fill="#e5dada" stroke="black" cx="473.77" cy="-642.726" rx="32.4942" ry="18"/>
<text text-anchor="middle" x="473.77" y="-639.026" font-family="Times,serif" font-size="14.00">28096</text>
</a>
</g>
</g>
<!-- 24382&#45;&gt;28096 -->
<g id="edge20" class="edge"><title>24382&#45;&gt;28096</title>
<path fill="none" stroke="black" d="M459.798,-498.111C462.819,-529.374 468.995,-593.299 472.021,-624.618"/>
</g>
<!-- 21469 -->
<g id="node51" class="node"><title>21469</title>
<g id="a_node51"><a xlink:title="Day_0">
<ellipse fill="#e5dada" stroke="black" cx="1119.25" cy="-17.5257" rx="32.4942" ry="18"/>
<text text-anchor="middle" x="1119.25" y="-13.8257" font-family="Times,serif" font-size="14.00">21469</text>
</a>
</g>
</g>
<!-- 26315&#45;&gt;21469 -->
<g id="edge17" class="edge"><title>26315&#45;&gt;21469</title>
<path fill="none" stroke="black" d="M1128.64,-199.578C1126.68,-161.565 1122.16,-73.8493 1120.19,-35.7458"/>
</g>
<!-- 9972 -->
<g id="node48" class="node"><title>9972</title>
<g id="a_node48"><a xlink:title="Day_0">
<ellipse fill="#e5dada" stroke="black" cx="2334.28" cy="-1034.45" rx="28.6953" ry="18"/>
<text text-anchor="middle" x="2334.28" y="-1030.75" font-family="Times,serif" font-size="14.00">9972</text>
</a>
</g>
</g>
<!-- 9972&#45;&gt;22716 -->
<g id="edge41" class="edge"><title>9972&#45;&gt;22716</title>
<path fill="none" stroke="black" d="M2311.83,-1023.25C2278.38,-1006.57 2215.72,-975.323 2181.25,-958.135"/>
</g>
</g>
</svg>
