<?xml version="1.0" encoding="UTF-8" standalone="no"?>
<!DOCTYPE svg PUBLIC "-//W3C//DTD SVG 1.1//EN"
 "http://www.w3.org/Graphics/SVG/1.1/DTD/svg11.dtd">
<!-- Generated by graphviz version 2.38.0 (20140413.2041)
 -->
<!-- Title: %3 Pages: 1 -->
<svg width="1805pt" height="1635pt"
 viewBox="0.00 0.00 1805.00 1635.00" xmlns="http://www.w3.org/2000/svg" xmlns:xlink="http://www.w3.org/1999/xlink">
<g id="graph0" class="graph" transform="scale(1 1) rotate(0) translate(4 1631)">
<title>%3</title>
<polygon fill="white" stroke="none" points="-4,4 -4,-1631 1801,-1631 1801,4 -4,4"/>
<!-- 562 -->
<g id="node1" class="node"><title>562</title>
<g id="a_node1"><a xlink:title="Day_0">
<ellipse fill="#e5dada" stroke="black" cx="1683.31" cy="-141.358" rx="27" ry="18"/>
<text text-anchor="middle" x="1683.31" y="-137.658" font-family="Times,serif" font-size="14.00">562</text>
</a>
</g>
</g>
<!-- 25101 -->
<g id="node11" class="node"><title>25101</title>
<g id="a_node11"><a xlink:title="Day_0">
<ellipse fill="#e5dada" stroke="black" cx="1764.86" cy="-18.0594" rx="32.4942" ry="18"/>
<text text-anchor="middle" x="1764.86" y="-14.3594" font-family="Times,serif" font-size="14.00">25101</text>
</a>
</g>
</g>
<!-- 562&#45;&gt;25101 -->
<g id="edge7" class="edge"><title>562&#45;&gt;25101</title>
<path fill="none" stroke="black" d="M1694.31,-124.729C1709.79,-101.328 1737.85,-58.8987 1753.51,-35.2157"/>
</g>
<!-- 62942 -->
<g id="node45" class="node"><title>62942</title>
<g id="a_node45"><a xlink:title="Day_0">
<ellipse fill="#e5dada" stroke="black" cx="1594.84" cy="-288.903" rx="32.4942" ry="18"/>
<text text-anchor="middle" x="1594.84" y="-285.203" font-family="Times,serif" font-size="14.00">62942</text>
</a>
</g>
</g>
<!-- 562&#45;&gt;62942 -->
<g id="edge11" class="edge"><title>562&#45;&gt;62942</title>
<path fill="none" stroke="black" d="M1673.16,-158.283C1656.19,-186.592 1622.22,-243.24 1605.14,-271.721"/>
</g>
<!-- 1560 -->
<g id="node2" class="node"><title>1560</title>
<g id="a_node2"><a xlink:title="PRE">
<ellipse fill="#71a9f7" stroke="black" cx="885.106" cy="-991.264" rx="28.6953" ry="18"/>
<text text-anchor="middle" x="885.106" y="-987.564" font-family="Times,serif" font-size="14.00">1560</text>
</a>
</g>
</g>
<!-- 7475 -->
<g id="node4" class="node"><title>7475</title>
<g id="a_node4"><a xlink:title="PRE">
<ellipse fill="#71a9f7" stroke="black" cx="654.471" cy="-1115.73" rx="28.6953" ry="18"/>
<text text-anchor="middle" x="654.471" y="-1112.03" font-family="Times,serif" font-size="14.00">7475</text>
</a>
</g>
</g>
<!-- 1560&#45;&gt;7475 -->
<g id="edge5" class="edge"><title>1560&#45;&gt;7475</title>
<path fill="none" stroke="black" d="M862.991,-1003.2C818.795,-1027.05 720.043,-1080.34 676.181,-1104.01"/>
</g>
<!-- 43773 -->
<g id="node23" class="node"><title>43773</title>
<g id="a_node23"><a xlink:title="PRE">
<ellipse fill="#71a9f7" stroke="black" cx="1113.6" cy="-865.006" rx="32.4942" ry="18"/>
<text text-anchor="middle" x="1113.6" y="-861.306" font-family="Times,serif" font-size="14.00">43773</text>
</a>
</g>
</g>
<!-- 1560&#45;&gt;43773 -->
<g id="edge50" class="edge"><title>1560&#45;&gt;43773</title>
<path fill="none" stroke="black" d="M906.602,-979.386C949.596,-955.629 1045.86,-902.438 1090.3,-877.882"/>
</g>
<!-- 6012 -->
<g id="node3" class="node"><title>6012</title>
<g id="a_node3"><a xlink:title="Day_0">
<ellipse fill="#e5dada" stroke="black" cx="1611.85" cy="-150.955" rx="28.6953" ry="18"/>
<text text-anchor="middle" x="1611.85" y="-147.255" font-family="Times,serif" font-size="14.00">6012</text>
</a>
</g>
</g>
<!-- 6012&#45;&gt;62942 -->
<g id="edge20" class="edge"><title>6012&#45;&gt;62942</title>
<path fill="none" stroke="black" d="M1609.63,-168.989C1606.37,-195.427 1600.33,-244.424 1597.07,-270.864"/>
</g>
<!-- 45016 -->
<g id="node27" class="node"><title>45016</title>
<g id="a_node27"><a xlink:title="PRE">
<ellipse fill="#71a9f7" stroke="black" cx="622.655" cy="-983.119" rx="32.4942" ry="18"/>
<text text-anchor="middle" x="622.655" y="-979.419" font-family="Times,serif" font-size="14.00">45016</text>
</a>
</g>
</g>
<!-- 7475&#45;&gt;45016 -->
<g id="edge31" class="edge"><title>7475&#45;&gt;45016</title>
<path fill="none" stroke="black" d="M650.18,-1097.85C644.107,-1072.54 633.07,-1026.53 626.979,-1001.14"/>
</g>
<!-- 46249 -->
<g id="node28" class="node"><title>46249</title>
<g id="a_node28"><a xlink:title="PRE">
<ellipse fill="#71a9f7" stroke="black" cx="712.542" cy="-998.191" rx="32.4942" ry="18"/>
<text text-anchor="middle" x="712.542" y="-994.491" font-family="Times,serif" font-size="14.00">46249</text>
</a>
</g>
</g>
<!-- 7475&#45;&gt;46249 -->
<g id="edge53" class="edge"><title>7475&#45;&gt;46249</title>
<path fill="none" stroke="black" d="M663.039,-1098.39C674.019,-1076.16 692.942,-1037.86 703.938,-1015.61"/>
</g>
<!-- 46311 -->
<g id="node29" class="node"><title>46311</title>
<g id="a_node29"><a xlink:title="PRE">
<ellipse fill="#71a9f7" stroke="black" cx="741.986" cy="-1221.23" rx="32.4942" ry="18"/>
<text text-anchor="middle" x="741.986" y="-1217.53" font-family="Times,serif" font-size="14.00">46311</text>
</a>
</g>
</g>
<!-- 7475&#45;&gt;46311 -->
<g id="edge41" class="edge"><title>7475&#45;&gt;46311</title>
<path fill="none" stroke="black" d="M667.762,-1131.75C684.116,-1151.47 711.739,-1184.77 728.28,-1204.71"/>
</g>
<!-- 50676 -->
<g id="node34" class="node"><title>50676</title>
<g id="a_node34"><a xlink:title="PRE">
<ellipse fill="#71a9f7" stroke="black" cx="409.992" cy="-1243.01" rx="32.4942" ry="18"/>
<text text-anchor="middle" x="409.992" y="-1239.31" font-family="Times,serif" font-size="14.00">50676</text>
</a>
</g>
</g>
<!-- 7475&#45;&gt;50676 -->
<g id="edge1" class="edge"><title>7475&#45;&gt;50676</title>
<path fill="none" stroke="black" d="M632.344,-1127.25C586.385,-1151.18 480.947,-1206.07 433.677,-1230.68"/>
</g>
<!-- 60153 -->
<g id="node41" class="node"><title>60153</title>
<g id="a_node41"><a xlink:title="PRE">
<ellipse fill="#71a9f7" stroke="black" cx="783.32" cy="-1145.18" rx="32.4942" ry="18"/>
<text text-anchor="middle" x="783.32" y="-1141.48" font-family="Times,serif" font-size="14.00">60153</text>
</a>
</g>
</g>
<!-- 7475&#45;&gt;60153 -->
<g id="edge22" class="edge"><title>7475&#45;&gt;60153</title>
<path fill="none" stroke="black" d="M681.482,-1121.9C702.439,-1126.69 731.48,-1133.33 753.189,-1138.29"/>
</g>
<!-- 7974 -->
<g id="node5" class="node"><title>7974</title>
<g id="a_node5"><a xlink:title="PRE">
<ellipse fill="#71a9f7" stroke="black" cx="280.891" cy="-1203.54" rx="28.6953" ry="18"/>
<text text-anchor="middle" x="280.891" y="-1199.84" font-family="Times,serif" font-size="14.00">7974</text>
</a>
</g>
</g>
<!-- 7974&#45;&gt;50676 -->
<g id="edge18" class="edge"><title>7974&#45;&gt;50676</title>
<path fill="none" stroke="black" d="M306.707,-1211.43C328.34,-1218.05 359.185,-1227.48 381.529,-1234.31"/>
</g>
<!-- 17583 -->
<g id="node6" class="node"><title>17583</title>
<g id="a_node6"><a xlink:title="PRE">
<ellipse fill="#71a9f7" stroke="black" cx="1445.97" cy="-472.275" rx="32.4942" ry="18"/>
<text text-anchor="middle" x="1445.97" y="-468.575" font-family="Times,serif" font-size="14.00">17583</text>
</a>
</g>
</g>
<!-- 21775 -->
<g id="node9" class="node"><title>21775</title>
<g id="a_node9"><a xlink:title="PRE">
<ellipse fill="#71a9f7" stroke="black" cx="1406.52" cy="-345.143" rx="32.4942" ry="18"/>
<text text-anchor="middle" x="1406.52" y="-341.443" font-family="Times,serif" font-size="14.00">21775</text>
</a>
</g>
</g>
<!-- 17583&#45;&gt;21775 -->
<g id="edge47" class="edge"><title>17583&#45;&gt;21775</title>
<path fill="none" stroke="black" d="M1440.4,-454.329C1432.88,-430.1 1419.56,-387.18 1412.06,-362.997"/>
</g>
<!-- 34664 -->
<g id="node18" class="node"><title>34664</title>
<g id="a_node18"><a xlink:title="Day_0">
<ellipse fill="#e5dada" stroke="black" cx="1282.23" cy="-658.096" rx="32.4942" ry="18"/>
<text text-anchor="middle" x="1282.23" y="-654.396" font-family="Times,serif" font-size="14.00">34664</text>
</a>
</g>
</g>
<!-- 17583&#45;&gt;34664 -->
<g id="edge26" class="edge"><title>17583&#45;&gt;34664</title>
<path fill="none" stroke="black" d="M1431.44,-488.765C1400.29,-524.117 1327.4,-606.828 1296.49,-641.908"/>
</g>
<!-- 38058 -->
<g id="node19" class="node"><title>38058</title>
<g id="a_node19"><a xlink:title="PRE">
<ellipse fill="#71a9f7" stroke="black" cx="1547.89" cy="-403.865" rx="32.4942" ry="18"/>
<text text-anchor="middle" x="1547.89" y="-400.165" font-family="Times,serif" font-size="14.00">38058</text>
</a>
</g>
</g>
<!-- 17583&#45;&gt;38058 -->
<g id="edge25" class="edge"><title>17583&#45;&gt;38058</title>
<path fill="none" stroke="black" d="M1467.09,-458.1C1484.7,-446.281 1509.65,-429.535 1527.15,-417.787"/>
</g>
<!-- 62849 -->
<g id="node44" class="node"><title>62849</title>
<g id="a_node44"><a xlink:title="PRE">
<ellipse fill="#71a9f7" stroke="black" cx="1576.87" cy="-500.994" rx="32.4942" ry="18"/>
<text text-anchor="middle" x="1576.87" y="-497.294" font-family="Times,serif" font-size="14.00">62849</text>
</a>
</g>
</g>
<!-- 17583&#45;&gt;62849 -->
<g id="edge17" class="edge"><title>17583&#45;&gt;62849</title>
<path fill="none" stroke="black" d="M1476.33,-478.936C1497.32,-483.542 1525.16,-489.65 1546.22,-494.27"/>
</g>
<!-- 17583&#45;&gt;62942 -->
<g id="edge34" class="edge"><title>17583&#45;&gt;62942</title>
<path fill="none" stroke="black" d="M1459.44,-455.678C1487.78,-420.766 1553.28,-340.093 1581.51,-305.33"/>
</g>
<!-- 19875 -->
<g id="node7" class="node"><title>19875</title>
<g id="a_node7"><a xlink:title="Day_0">
<ellipse fill="#e5dada" stroke="black" cx="1074.06" cy="-225.831" rx="32.4942" ry="18"/>
<text text-anchor="middle" x="1074.06" y="-222.131" font-family="Times,serif" font-size="14.00">19875</text>
</a>
</g>
</g>
<!-- 44153 -->
<g id="node25" class="node"><title>44153</title>
<g id="a_node25"><a xlink:title="Day_0">
<ellipse fill="#e5dada" stroke="black" cx="1130.6" cy="-355.291" rx="32.4942" ry="18"/>
<text text-anchor="middle" x="1130.6" y="-351.591" font-family="Times,serif" font-size="14.00">44153</text>
</a>
</g>
</g>
<!-- 19875&#45;&gt;44153 -->
<g id="edge12" class="edge"><title>19875&#45;&gt;44153</title>
<path fill="none" stroke="black" d="M1081.8,-243.56C1092.63,-268.351 1112.18,-313.1 1122.95,-337.776"/>
</g>
<!-- 20120 -->
<g id="node8" class="node"><title>20120</title>
<g id="a_node8"><a xlink:title="PRE">
<ellipse fill="#71a9f7" stroke="black" cx="359.905" cy="-1381.49" rx="32.4942" ry="18"/>
<text text-anchor="middle" x="359.905" y="-1377.79" font-family="Times,serif" font-size="14.00">20120</text>
</a>
</g>
</g>
<!-- 20120&#45;&gt;50676 -->
<g id="edge24" class="edge"><title>20120&#45;&gt;50676</title>
<path fill="none" stroke="black" d="M366.351,-1363.67C375.968,-1337.08 393.968,-1287.31 403.571,-1260.77"/>
</g>
<!-- 23414 -->
<g id="node10" class="node"><title>23414</title>
<g id="a_node10"><a xlink:title="PRE">
<ellipse fill="#71a9f7" stroke="black" cx="278.965" cy="-1382.86" rx="32.4942" ry="18"/>
<text text-anchor="middle" x="278.965" y="-1379.16" font-family="Times,serif" font-size="14.00">23414</text>
</a>
</g>
</g>
<!-- 23414&#45;&gt;50676 -->
<g id="edge37" class="edge"><title>23414&#45;&gt;50676</title>
<path fill="none" stroke="black" d="M293.996,-1366.82C319.136,-1339.99 369.442,-1286.29 394.733,-1259.3"/>
</g>
<!-- 22653 -->
<g id="node52" class="node"><title>22653</title>
<g id="a_node52"><a xlink:title="PRE">
<ellipse fill="#71a9f7" stroke="black" cx="171.55" cy="-1497.42" rx="32.4942" ry="18"/>
<text text-anchor="middle" x="171.55" y="-1493.72" font-family="Times,serif" font-size="14.00">22653</text>
</a>
</g>
</g>
<!-- 23414&#45;&gt;22653 -->
<g id="edge21" class="edge"><title>23414&#45;&gt;22653</title>
<path fill="none" stroke="black" d="M263.575,-1399.27C243.04,-1421.18 206.909,-1459.71 186.565,-1481.4"/>
</g>
<!-- 28072 -->
<g id="node12" class="node"><title>28072</title>
<g id="a_node12"><a xlink:title="PRE">
<ellipse fill="#71a9f7" stroke="black" cx="187.79" cy="-1168.77" rx="32.4942" ry="18"/>
<text text-anchor="middle" x="187.79" y="-1165.07" font-family="Times,serif" font-size="14.00">28072</text>
</a>
</g>
</g>
<!-- 30645 -->
<g id="node14" class="node"><title>30645</title>
<g id="a_node14"><a xlink:title="PRE">
<ellipse fill="#71a9f7" stroke="black" cx="32.3531" cy="-1147.91" rx="32.4942" ry="18"/>
<text text-anchor="middle" x="32.3531" y="-1144.21" font-family="Times,serif" font-size="14.00">30645</text>
</a>
</g>
</g>
<!-- 28072&#45;&gt;30645 -->
<g id="edge15" class="edge"><title>28072&#45;&gt;30645</title>
<path fill="none" stroke="black" d="M155.96,-1164.5C129.137,-1160.9 90.9517,-1155.78 64.1406,-1152.18"/>
</g>
<!-- 28072&#45;&gt;50676 -->
<g id="edge54" class="edge"><title>28072&#45;&gt;50676</title>
<path fill="none" stroke="black" d="M215.932,-1178.18C258.674,-1192.46 339.473,-1219.45 382.078,-1233.69"/>
</g>
<!-- 56716 -->
<g id="node37" class="node"><title>56716</title>
<g id="a_node37"><a xlink:title="PRE">
<ellipse fill="#71a9f7" stroke="black" cx="51.4118" cy="-1093.69" rx="32.4942" ry="18"/>
<text text-anchor="middle" x="51.4118" y="-1089.99" font-family="Times,serif" font-size="14.00">56716</text>
</a>
</g>
</g>
<!-- 28072&#45;&gt;56716 -->
<g id="edge13" class="edge"><title>28072&#45;&gt;56716</title>
<path fill="none" stroke="black" d="M164.655,-1156.04C139.577,-1142.23 99.7825,-1120.32 74.66,-1106.49"/>
</g>
<!-- 67373 -->
<g id="node50" class="node"><title>67373</title>
<g id="a_node50"><a xlink:title="PRE">
<ellipse fill="#71a9f7" stroke="black" cx="37.5311" cy="-1208.42" rx="32.4942" ry="18"/>
<text text-anchor="middle" x="37.5311" y="-1204.72" font-family="Times,serif" font-size="14.00">67373</text>
</a>
</g>
</g>
<!-- 28072&#45;&gt;67373 -->
<g id="edge28" class="edge"><title>28072&#45;&gt;67373</title>
<path fill="none" stroke="black" d="M158.104,-1176.61C131.676,-1183.58 93.2308,-1193.72 66.8997,-1200.67"/>
</g>
<!-- 5248 -->
<g id="node55" class="node"><title>5248</title>
<g id="a_node55"><a xlink:title="PRE">
<ellipse fill="#71a9f7" stroke="black" cx="102.912" cy="-1047.64" rx="28.6953" ry="18"/>
<text text-anchor="middle" x="102.912" y="-1043.94" font-family="Times,serif" font-size="14.00">5248</text>
</a>
</g>
</g>
<!-- 28072&#45;&gt;5248 -->
<g id="edge33" class="edge"><title>28072&#45;&gt;5248</title>
<path fill="none" stroke="black" d="M175.988,-1151.93C159.772,-1128.79 130.777,-1087.41 114.614,-1064.34"/>
</g>
<!-- 28894 -->
<g id="node13" class="node"><title>28894</title>
<g id="a_node13"><a xlink:title="Day_0">
<ellipse fill="#e5dada" stroke="black" cx="1355.31" cy="-1115.44" rx="32.4942" ry="18"/>
<text text-anchor="middle" x="1355.31" y="-1111.74" font-family="Times,serif" font-size="14.00">28894</text>
</a>
</g>
</g>
<!-- 44765 -->
<g id="node26" class="node"><title>44765</title>
<g id="a_node26"><a xlink:title="Day_0">
<ellipse fill="#e5dada" stroke="black" cx="1266.34" cy="-1000.07" rx="32.4942" ry="18"/>
<text text-anchor="middle" x="1266.34" y="-996.371" font-family="Times,serif" font-size="14.00">44765</text>
</a>
</g>
</g>
<!-- 28894&#45;&gt;44765 -->
<g id="edge29" class="edge"><title>28894&#45;&gt;44765</title>
<path fill="none" stroke="black" d="M1342.18,-1098.41C1325.27,-1076.48 1296.03,-1038.58 1279.23,-1016.79"/>
</g>
<!-- 31565 -->
<g id="node15" class="node"><title>31565</title>
<g id="a_node15"><a xlink:title="Day_0">
<ellipse fill="#e5dada" stroke="black" cx="1394.39" cy="-1068.04" rx="32.4942" ry="18"/>
<text text-anchor="middle" x="1394.39" y="-1064.34" font-family="Times,serif" font-size="14.00">31565</text>
</a>
</g>
</g>
<!-- 31565&#45;&gt;44765 -->
<g id="edge43" class="edge"><title>31565&#45;&gt;44765</title>
<path fill="none" stroke="black" d="M1370.9,-1055.57C1347.94,-1043.39 1313.17,-1024.93 1290.11,-1012.69"/>
</g>
<!-- 34169 -->
<g id="node16" class="node"><title>34169</title>
<g id="a_node16"><a xlink:title="PRE">
<ellipse fill="#71a9f7" stroke="black" cx="90.2318" cy="-1366.4" rx="32.4942" ry="18"/>
<text text-anchor="middle" x="90.2318" y="-1362.7" font-family="Times,serif" font-size="14.00">34169</text>
</a>
</g>
</g>
<!-- 62110 -->
<g id="node43" class="node"><title>62110</title>
<g id="a_node43"><a xlink:title="PRE">
<ellipse fill="#71a9f7" stroke="black" cx="232.002" cy="-1299.1" rx="32.4942" ry="18"/>
<text text-anchor="middle" x="232.002" y="-1295.4" font-family="Times,serif" font-size="14.00">62110</text>
</a>
</g>
</g>
<!-- 34169&#45;&gt;62110 -->
<g id="edge36" class="edge"><title>34169&#45;&gt;62110</title>
<path fill="none" stroke="black" d="M114.926,-1354.67C140.789,-1342.4 181.181,-1323.22 207.115,-1310.91"/>
</g>
<!-- 34564 -->
<g id="node17" class="node"><title>34564</title>
<g id="a_node17"><a xlink:title="PRE">
<ellipse fill="#71a9f7" stroke="black" cx="313.625" cy="-1134.48" rx="32.4942" ry="18"/>
<text text-anchor="middle" x="313.625" y="-1130.78" font-family="Times,serif" font-size="14.00">34564</text>
</a>
</g>
</g>
<!-- 34564&#45;&gt;50676 -->
<g id="edge49" class="edge"><title>34564&#45;&gt;50676</title>
<path fill="none" stroke="black" d="M328.261,-1150.96C346.479,-1171.48 377.399,-1206.31 395.534,-1226.73"/>
</g>
<!-- 34664&#45;&gt;43773 -->
<g id="edge52" class="edge"><title>34664&#45;&gt;43773</title>
<path fill="none" stroke="black" d="M1268.72,-674.679C1237.14,-713.421 1158.82,-809.525 1127.18,-848.345"/>
</g>
<!-- 47940 -->
<g id="node31" class="node"><title>47940</title>
<g id="a_node31"><a xlink:title="6th_week">
<ellipse fill="#c81d25" stroke="black" cx="1449.76" cy="-704.855" rx="32.4942" ry="18"/>
<text text-anchor="middle" x="1449.76" y="-701.155" font-family="Times,serif" font-size="14.00">47940</text>
</a>
</g>
</g>
<!-- 34664&#45;&gt;47940 -->
<g id="edge6" class="edge"><title>34664&#45;&gt;47940</title>
<path fill="none" stroke="black" d="M1311.41,-666.241C1342.07,-674.797 1390,-688.175 1420.63,-696.725"/>
</g>
<!-- 49133 -->
<g id="node33" class="node"><title>49133</title>
<g id="a_node33"><a xlink:title="Day_0">
<ellipse fill="#e5dada" stroke="black" cx="1203.06" cy="-507.25" rx="32.4942" ry="18"/>
<text text-anchor="middle" x="1203.06" y="-503.55" font-family="Times,serif" font-size="14.00">49133</text>
</a>
</g>
</g>
<!-- 34664&#45;&gt;49133 -->
<g id="edge3" class="edge"><title>34664&#45;&gt;49133</title>
<path fill="none" stroke="black" d="M1273.15,-640.792C1257.96,-611.849 1227.56,-553.934 1212.28,-524.817"/>
</g>
<!-- 39874 -->
<g id="node20" class="node"><title>39874</title>
<g id="a_node20"><a xlink:title="PRE">
<ellipse fill="#71a9f7" stroke="black" cx="539.305" cy="-1262.9" rx="32.4942" ry="18"/>
<text text-anchor="middle" x="539.305" y="-1259.2" font-family="Times,serif" font-size="14.00">39874</text>
</a>
</g>
</g>
<!-- 39874&#45;&gt;50676 -->
<g id="edge40" class="edge"><title>39874&#45;&gt;50676</title>
<path fill="none" stroke="black" d="M507.672,-1258.04C487.633,-1254.95 461.809,-1250.98 441.747,-1247.9"/>
</g>
<!-- 40394 -->
<g id="node21" class="node"><title>40394</title>
<g id="a_node21"><a xlink:title="PRE">
<ellipse fill="#71a9f7" stroke="black" cx="400.455" cy="-1609.01" rx="32.4942" ry="18"/>
<text text-anchor="middle" x="400.455" y="-1605.31" font-family="Times,serif" font-size="14.00">40394</text>
</a>
</g>
</g>
<!-- 58192 -->
<g id="node39" class="node"><title>58192</title>
<g id="a_node39"><a xlink:title="PRE">
<ellipse fill="#71a9f7" stroke="black" cx="384.739" cy="-1454.73" rx="32.4942" ry="18"/>
<text text-anchor="middle" x="384.739" y="-1451.03" font-family="Times,serif" font-size="14.00">58192</text>
</a>
</g>
</g>
<!-- 40394&#45;&gt;58192 -->
<g id="edge44" class="edge"><title>40394&#45;&gt;58192</title>
<path fill="none" stroke="black" d="M398.622,-1591.01C395.609,-1561.44 389.646,-1502.9 386.609,-1473.1"/>
</g>
<!-- 40451 -->
<g id="node22" class="node"><title>40451</title>
<g id="a_node22"><a xlink:title="Day_0">
<ellipse fill="#e5dada" stroke="black" cx="1280.86" cy="-1139.81" rx="32.4942" ry="18"/>
<text text-anchor="middle" x="1280.86" y="-1136.11" font-family="Times,serif" font-size="14.00">40451</text>
</a>
</g>
</g>
<!-- 40451&#45;&gt;44765 -->
<g id="edge38" class="edge"><title>40451&#45;&gt;44765</title>
<path fill="none" stroke="black" d="M1278.99,-1121.83C1276.22,-1095.15 1271.04,-1045.33 1268.24,-1018.43"/>
</g>
<!-- 43874 -->
<g id="node24" class="node"><title>43874</title>
<g id="a_node24"><a xlink:title="PRE">
<ellipse fill="#71a9f7" stroke="black" cx="1150.37" cy="-975.437" rx="32.4942" ry="18"/>
<text text-anchor="middle" x="1150.37" y="-971.737" font-family="Times,serif" font-size="14.00">43874</text>
</a>
</g>
</g>
<!-- 43773&#45;&gt;43874 -->
<g id="edge23" class="edge"><title>43773&#45;&gt;43874</title>
<path fill="none" stroke="black" d="M1119.51,-882.749C1126.33,-903.235 1137.49,-936.75 1144.35,-957.372"/>
</g>
<!-- 43773&#45;&gt;44765 -->
<g id="edge39" class="edge"><title>43773&#45;&gt;44765</title>
<path fill="none" stroke="black" d="M1131.12,-880.5C1160.58,-906.553 1219.7,-958.826 1249.02,-984.758"/>
</g>
<!-- 44153&#45;&gt;49133 -->
<g id="edge32" class="edge"><title>44153&#45;&gt;49133</title>
<path fill="none" stroke="black" d="M1138.91,-372.723C1152.82,-401.879 1180.64,-460.222 1194.62,-489.554"/>
</g>
<!-- 47630 -->
<g id="node30" class="node"><title>47630</title>
<g id="a_node30"><a xlink:title="Day_0">
<ellipse fill="#e5dada" stroke="black" cx="1404.51" cy="-998.989" rx="32.4942" ry="18"/>
<text text-anchor="middle" x="1404.51" y="-995.289" font-family="Times,serif" font-size="14.00">47630</text>
</a>
</g>
</g>
<!-- 44765&#45;&gt;47630 -->
<g id="edge9" class="edge"><title>44765&#45;&gt;47630</title>
<path fill="none" stroke="black" d="M1299.08,-999.815C1321.11,-999.642 1350.03,-999.416 1372,-999.244"/>
</g>
<!-- 53267 -->
<g id="node35" class="node"><title>53267</title>
<g id="a_node35"><a xlink:title="6th_week">
<ellipse fill="#c81d25" stroke="black" cx="1605.82" cy="-745.343" rx="32.4942" ry="18"/>
<text text-anchor="middle" x="1605.82" y="-741.643" font-family="Times,serif" font-size="14.00">53267</text>
</a>
</g>
</g>
<!-- 47940&#45;&gt;53267 -->
<g id="edge35" class="edge"><title>47940&#45;&gt;53267</title>
<path fill="none" stroke="black" d="M1479.48,-712.566C1507.25,-719.77 1548.48,-730.466 1576.21,-737.661"/>
</g>
<!-- 48982 -->
<g id="node32" class="node"><title>48982</title>
<g id="a_node32"><a xlink:title="PRE">
<ellipse fill="#71a9f7" stroke="black" cx="325.699" cy="-1599.24" rx="32.4942" ry="18"/>
<text text-anchor="middle" x="325.699" y="-1595.54" font-family="Times,serif" font-size="14.00">48982</text>
</a>
</g>
</g>
<!-- 48982&#45;&gt;58192 -->
<g id="edge42" class="edge"><title>48982&#45;&gt;58192</title>
<path fill="none" stroke="black" d="M332.938,-1581.52C344.27,-1553.78 366.072,-1500.42 377.44,-1472.6"/>
</g>
<!-- 56917 -->
<g id="node38" class="node"><title>56917</title>
<g id="a_node38"><a xlink:title="PRE">
<ellipse fill="#71a9f7" stroke="black" cx="462.818" cy="-1123.42" rx="32.4942" ry="18"/>
<text text-anchor="middle" x="462.818" y="-1119.72" font-family="Times,serif" font-size="14.00">56917</text>
</a>
</g>
</g>
<!-- 50676&#45;&gt;56917 -->
<g id="edge27" class="edge"><title>50676&#45;&gt;56917</title>
<path fill="none" stroke="black" d="M417.787,-1225.37C427.774,-1202.76 444.988,-1163.78 454.992,-1141.14"/>
</g>
<!-- 50676&#45;&gt;58192 -->
<g id="edge4" class="edge"><title>50676&#45;&gt;58192</title>
<path fill="none" stroke="black" d="M407.839,-1261.07C403.068,-1301.06 391.652,-1396.77 386.886,-1436.73"/>
</g>
<!-- 59843 -->
<g id="node40" class="node"><title>59843</title>
<g id="a_node40"><a xlink:title="PRE">
<ellipse fill="#71a9f7" stroke="black" cx="308.624" cy="-1321.16" rx="32.4942" ry="18"/>
<text text-anchor="middle" x="308.624" y="-1317.46" font-family="Times,serif" font-size="14.00">59843</text>
</a>
</g>
</g>
<!-- 50676&#45;&gt;59843 -->
<g id="edge30" class="edge"><title>50676&#45;&gt;59843</title>
<path fill="none" stroke="black" d="M390.925,-1257.71C372.803,-1271.68 345.7,-1292.58 327.605,-1306.53"/>
</g>
<!-- 50676&#45;&gt;62110 -->
<g id="edge14" class="edge"><title>50676&#45;&gt;62110</title>
<path fill="none" stroke="black" d="M381.395,-1252.02C348.18,-1262.49 293.713,-1279.65 260.528,-1290.11"/>
</g>
<!-- 66509 -->
<g id="node47" class="node"><title>66509</title>
<g id="a_node47"><a xlink:title="PRE">
<ellipse fill="#71a9f7" stroke="black" cx="523.231" cy="-1339.79" rx="32.4942" ry="18"/>
<text text-anchor="middle" x="523.231" y="-1336.09" font-family="Times,serif" font-size="14.00">66509</text>
</a>
</g>
</g>
<!-- 50676&#45;&gt;66509 -->
<g id="edge48" class="edge"><title>50676&#45;&gt;66509</title>
<path fill="none" stroke="black" d="M427.685,-1258.14C448.835,-1276.21 484.029,-1306.29 505.288,-1324.46"/>
</g>
<!-- 67362 -->
<g id="node49" class="node"><title>67362</title>
<g id="a_node49"><a xlink:title="PRE">
<ellipse fill="#71a9f7" stroke="black" cx="435.409" cy="-1344.04" rx="32.4942" ry="18"/>
<text text-anchor="middle" x="435.409" y="-1340.34" font-family="Times,serif" font-size="14.00">67362</text>
</a>
</g>
</g>
<!-- 50676&#45;&gt;67362 -->
<g id="edge8" class="edge"><title>50676&#45;&gt;67362</title>
<path fill="none" stroke="black" d="M414.536,-1261.08C419.162,-1279.47 426.292,-1307.81 430.904,-1326.14"/>
</g>
<!-- 4183 -->
<g id="node51" class="node"><title>4183</title>
<g id="a_node51"><a xlink:title="PRE">
<ellipse fill="#71a9f7" stroke="black" cx="467.857" cy="-1389.23" rx="28.6953" ry="18"/>
<text text-anchor="middle" x="467.857" y="-1385.53" font-family="Times,serif" font-size="14.00">4183</text>
</a>
</g>
</g>
<!-- 50676&#45;&gt;4183 -->
<g id="edge46" class="edge"><title>50676&#45;&gt;4183</title>
<path fill="none" stroke="black" d="M416.972,-1260.65C428.094,-1288.75 449.715,-1343.39 460.852,-1371.53"/>
</g>
<!-- 56660 -->
<g id="node54" class="node"><title>56660</title>
<g id="a_node54"><a xlink:title="PRE">
<ellipse fill="#71a9f7" stroke="black" cx="384.708" cy="-1090.36" rx="32.4942" ry="18"/>
<text text-anchor="middle" x="384.708" y="-1086.66" font-family="Times,serif" font-size="14.00">56660</text>
</a>
</g>
</g>
<!-- 50676&#45;&gt;56660 -->
<g id="edge2" class="edge"><title>50676&#45;&gt;56660</title>
<path fill="none" stroke="black" d="M406.992,-1224.9C402.126,-1195.52 392.567,-1137.81 387.703,-1108.45"/>
</g>
<!-- 39407 -->
<g id="node53" class="node"><title>39407</title>
<g id="a_node53"><a xlink:title="6th_week">
<ellipse fill="#c81d25" stroke="black" cx="1749.85" cy="-781.619" rx="32.4942" ry="18"/>
<text text-anchor="middle" x="1749.85" y="-777.919" font-family="Times,serif" font-size="14.00">39407</text>
</a>
</g>
</g>
<!-- 53267&#45;&gt;39407 -->
<g id="edge16" class="edge"><title>53267&#45;&gt;39407</title>
<path fill="none" stroke="black" d="M1635.67,-752.86C1660.39,-759.085 1695.34,-767.889 1720.05,-774.112"/>
</g>
<!-- 54155 -->
<g id="node36" class="node"><title>54155</title>
<g id="a_node36"><a xlink:title="Day_0">
<ellipse fill="#e5dada" stroke="black" cx="1542.15" cy="-154.524" rx="32.4942" ry="18"/>
<text text-anchor="middle" x="1542.15" y="-150.824" font-family="Times,serif" font-size="14.00">54155</text>
</a>
</g>
</g>
<!-- 54155&#45;&gt;62942 -->
<g id="edge10" class="edge"><title>54155&#45;&gt;62942</title>
<path fill="none" stroke="black" d="M1549.14,-172.369C1559.22,-198.07 1577.72,-245.242 1587.82,-270.985"/>
</g>
<!-- 61418 -->
<g id="node42" class="node"><title>61418</title>
<g id="a_node42"><a xlink:title="Day_0">
<ellipse fill="#e5dada" stroke="black" cx="1737.94" cy="-316.562" rx="32.4942" ry="18"/>
<text text-anchor="middle" x="1737.94" y="-312.862" font-family="Times,serif" font-size="14.00">61418</text>
</a>
</g>
</g>
<!-- 61418&#45;&gt;62942 -->
<g id="edge45" class="edge"><title>61418&#45;&gt;62942</title>
<path fill="none" stroke="black" d="M1707.24,-310.629C1683.26,-305.994 1650.08,-299.579 1625.98,-294.922"/>
</g>
<!-- 66344 -->
<g id="node46" class="node"><title>66344</title>
<g id="a_node46"><a xlink:title="Day_0">
<ellipse fill="#e5dada" stroke="black" cx="1739.35" cy="-251.408" rx="32.4942" ry="18"/>
<text text-anchor="middle" x="1739.35" y="-247.708" font-family="Times,serif" font-size="14.00">66344</text>
</a>
</g>
</g>
<!-- 62942&#45;&gt;66344 -->
<g id="edge51" class="edge"><title>62942&#45;&gt;66344</title>
<path fill="none" stroke="black" d="M1624.43,-281.225C1649.37,-274.755 1684.87,-265.544 1709.8,-259.076"/>
</g>
<!-- 66751 -->
<g id="node48" class="node"><title>66751</title>
<g id="a_node48"><a xlink:title="Day_0">
<ellipse fill="#e5dada" stroke="black" cx="1708.15" cy="-199.696" rx="32.4942" ry="18"/>
<text text-anchor="middle" x="1708.15" y="-195.996" font-family="Times,serif" font-size="14.00">66751</text>
</a>
</g>
</g>
<!-- 62942&#45;&gt;66751 -->
<g id="edge19" class="edge"><title>62942&#45;&gt;66751</title>
<path fill="none" stroke="black" d="M1613.55,-274.172C1634.55,-257.644 1668.41,-230.986 1689.42,-214.448"/>
</g>
</g>
</svg>
