<?xml version="1.0" encoding="UTF-8" standalone="no"?>
<!DOCTYPE svg PUBLIC "-//W3C//DTD SVG 1.1//EN"
 "http://www.w3.org/Graphics/SVG/1.1/DTD/svg11.dtd">
<!-- Generated by graphviz version 2.38.0 (20140413.2041)
 -->
<!-- Title: %3 Pages: 1 -->
<svg width="966pt" height="2126pt"
 viewBox="0.00 0.00 966.00 2126.00" xmlns="http://www.w3.org/2000/svg" xmlns:xlink="http://www.w3.org/1999/xlink">
<g id="graph0" class="graph" transform="scale(1 1) rotate(0) translate(4 2122)">
<title>%3</title>
<polygon fill="white" stroke="none" points="-4,4 -4,-2122 962,-2122 962,4 -4,4"/>
<!-- 521 -->
<g id="node1" class="node"><title>521</title>
<g id="a_node1"><a xlink:title="Day_0">
<ellipse fill="#e5dada" stroke="black" cx="575.875" cy="-215.403" rx="27" ry="18"/>
<text text-anchor="middle" x="575.875" y="-211.703" font-family="Times,serif" font-size="14.00">521</text>
</a>
</g>
</g>
<!-- 9023 -->
<g id="node15" class="node"><title>9023</title>
<g id="a_node15"><a xlink:title="Day_0">
<ellipse fill="#e5dada" stroke="black" cx="625.455" cy="-361.883" rx="28.6953" ry="18"/>
<text text-anchor="middle" x="625.455" y="-358.183" font-family="Times,serif" font-size="14.00">9023</text>
</a>
</g>
</g>
<!-- 521&#45;&gt;9023 -->
<g id="edge43" class="edge"><title>521&#45;&gt;9023</title>
<path fill="none" stroke="black" d="M581.856,-233.072C591.385,-261.226 609.911,-315.958 619.454,-344.152"/>
</g>
<!-- 1565 -->
<g id="node2" class="node"><title>1565</title>
<g id="a_node2"><a xlink:title="Day_0">
<ellipse fill="#e5dada" stroke="black" cx="722.338" cy="-290.244" rx="28.6953" ry="18"/>
<text text-anchor="middle" x="722.338" y="-286.544" font-family="Times,serif" font-size="14.00">1565</text>
</a>
</g>
</g>
<!-- 1565&#45;&gt;9023 -->
<g id="edge8" class="edge"><title>1565&#45;&gt;9023</title>
<path fill="none" stroke="black" d="M703.658,-304.057C686.502,-316.743 661.215,-335.441 644.078,-348.113"/>
</g>
<!-- 3096 -->
<g id="node3" class="node"><title>3096</title>
<g id="a_node3"><a xlink:title="Day_0">
<ellipse fill="#e5dada" stroke="black" cx="330.841" cy="-917.694" rx="28.6953" ry="18"/>
<text text-anchor="middle" x="330.841" y="-913.994" font-family="Times,serif" font-size="14.00">3096</text>
</a>
</g>
</g>
<!-- 18169 -->
<g id="node20" class="node"><title>18169</title>
<g id="a_node20"><a xlink:title="Day_0">
<ellipse fill="#e5dada" stroke="black" cx="409.451" cy="-1024.11" rx="32.4942" ry="18"/>
<text text-anchor="middle" x="409.451" y="-1020.41" font-family="Times,serif" font-size="14.00">18169</text>
</a>
</g>
</g>
<!-- 3096&#45;&gt;18169 -->
<g id="edge19" class="edge"><title>3096&#45;&gt;18169</title>
<path fill="none" stroke="black" d="M343.124,-934.321C357.805,-954.196 382.237,-987.269 396.995,-1007.25"/>
</g>
<!-- 4543 -->
<g id="node4" class="node"><title>4543</title>
<g id="a_node4"><a xlink:title="Day_0">
<ellipse fill="#e5dada" stroke="black" cx="897.297" cy="-652.702" rx="28.6953" ry="18"/>
<text text-anchor="middle" x="897.297" y="-649.002" font-family="Times,serif" font-size="14.00">4543</text>
</a>
</g>
</g>
<!-- 26926 -->
<g id="node25" class="node"><title>26926</title>
<g id="a_node25"><a xlink:title="Day_0">
<ellipse fill="#e5dada" stroke="black" cx="764.629" cy="-660.663" rx="32.4942" ry="18"/>
<text text-anchor="middle" x="764.629" y="-656.963" font-family="Times,serif" font-size="14.00">26926</text>
</a>
</g>
</g>
<!-- 4543&#45;&gt;26926 -->
<g id="edge21" class="edge"><title>4543&#45;&gt;26926</title>
<path fill="none" stroke="black" d="M868.51,-654.429C847.476,-655.691 818.933,-657.404 797.088,-658.715"/>
</g>
<!-- 4679 -->
<g id="node5" class="node"><title>4679</title>
<g id="a_node5"><a xlink:title="PRE">
<ellipse fill="#71a9f7" stroke="black" cx="350.507" cy="-1229.1" rx="28.6953" ry="18"/>
<text text-anchor="middle" x="350.507" y="-1225.4" font-family="Times,serif" font-size="14.00">4679</text>
</a>
</g>
</g>
<!-- 4679&#45;&gt;18169 -->
<g id="edge14" class="edge"><title>4679&#45;&gt;18169</title>
<path fill="none" stroke="black" d="M355.635,-1211.26C366.782,-1172.5 393.118,-1080.91 404.293,-1042.05"/>
</g>
<!-- 8996 -->
<g id="node29" class="node"><title>8996</title>
<g id="a_node29"><a xlink:title="Day_0">
<ellipse fill="#e5dada" stroke="black" cx="166.308" cy="-1210.86" rx="28.6953" ry="18"/>
<text text-anchor="middle" x="166.308" y="-1207.16" font-family="Times,serif" font-size="14.00">8996</text>
</a>
</g>
</g>
<!-- 4679&#45;&gt;8996 -->
<g id="edge29" class="edge"><title>4679&#45;&gt;8996</title>
<path fill="none" stroke="black" d="M322.13,-1226.29C287.515,-1222.86 229.347,-1217.1 194.718,-1213.67"/>
</g>
<!-- 15530 -->
<g id="node31" class="node"><title>15530</title>
<g id="a_node31"><a xlink:title="Day_0">
<ellipse fill="#e5dada" stroke="black" cx="239.492" cy="-1286.37" rx="32.4942" ry="18"/>
<text text-anchor="middle" x="239.492" y="-1282.67" font-family="Times,serif" font-size="14.00">15530</text>
</a>
</g>
</g>
<!-- 4679&#45;&gt;15530 -->
<g id="edge18" class="edge"><title>4679&#45;&gt;15530</title>
<path fill="none" stroke="black" d="M328.308,-1240.55C309.579,-1250.21 282.82,-1264.02 263.576,-1273.95"/>
</g>
<!-- 21146 -->
<g id="node34" class="node"><title>21146</title>
<g id="a_node34"><a xlink:title="6th_week">
<ellipse fill="#c81d25" stroke="black" cx="381.235" cy="-1477.66" rx="32.4942" ry="18"/>
<text text-anchor="middle" x="381.235" y="-1473.96" font-family="Times,serif" font-size="14.00">21146</text>
</a>
</g>
</g>
<!-- 4679&#45;&gt;21146 -->
<g id="edge44" class="edge"><title>4679&#45;&gt;21146</title>
<path fill="none" stroke="black" d="M352.767,-1247.38C358.463,-1293.45 373.359,-1413.95 379.014,-1459.69"/>
</g>
<!-- 4897 -->
<g id="node6" class="node"><title>4897</title>
<g id="a_node6"><a xlink:title="Day_0">
<ellipse fill="#e5dada" stroke="black" cx="491.326" cy="-239.668" rx="28.6953" ry="18"/>
<text text-anchor="middle" x="491.326" y="-235.968" font-family="Times,serif" font-size="14.00">4897</text>
</a>
</g>
</g>
<!-- 4897&#45;&gt;9023 -->
<g id="edge20" class="edge"><title>4897&#45;&gt;9023</title>
<path fill="none" stroke="black" d="M507.773,-254.654C533.516,-278.111 583.048,-323.243 608.874,-346.775"/>
</g>
<!-- 5659 -->
<g id="node7" class="node"><title>5659</title>
<g id="a_node7"><a xlink:title="Day_0">
<ellipse fill="#e5dada" stroke="black" cx="929.47" cy="-205.305" rx="28.6953" ry="18"/>
<text text-anchor="middle" x="929.47" y="-201.605" font-family="Times,serif" font-size="14.00">5659</text>
</a>
</g>
</g>
<!-- 28266 -->
<g id="node27" class="node"><title>28266</title>
<g id="a_node27"><a xlink:title="Day_0">
<ellipse fill="#e5dada" stroke="black" cx="813.408" cy="-287.18" rx="32.4942" ry="18"/>
<text text-anchor="middle" x="813.408" y="-283.48" font-family="Times,serif" font-size="14.00">28266</text>
</a>
</g>
</g>
<!-- 5659&#45;&gt;28266 -->
<g id="edge40" class="edge"><title>5659&#45;&gt;28266</title>
<path fill="none" stroke="black" d="M910.305,-218.825C889.187,-233.722 855.36,-257.585 833.774,-272.813"/>
</g>
<!-- 7083 -->
<g id="node8" class="node"><title>7083</title>
<g id="a_node8"><a xlink:title="Day_0">
<ellipse fill="#e5dada" stroke="black" cx="593.247" cy="-265.186" rx="28.6953" ry="18"/>
<text text-anchor="middle" x="593.247" y="-261.486" font-family="Times,serif" font-size="14.00">7083</text>
</a>
</g>
</g>
<!-- 7083&#45;&gt;9023 -->
<g id="edge23" class="edge"><title>7083&#45;&gt;9023</title>
<path fill="none" stroke="black" d="M599.154,-282.921C604.966,-300.369 613.787,-326.851 619.585,-344.26"/>
</g>
<!-- 7411 -->
<g id="node9" class="node"><title>7411</title>
<g id="a_node9"><a xlink:title="3rd_week">
<ellipse fill="#ee9898" stroke="black" cx="470.127" cy="-606.109" rx="28.6953" ry="18"/>
<text text-anchor="middle" x="470.127" y="-602.409" font-family="Times,serif" font-size="14.00">7411</text>
</a>
</g>
</g>
<!-- 9001 -->
<g id="node14" class="node"><title>9001</title>
<g id="a_node14"><a xlink:title="3rd_week">
<ellipse fill="#ee9898" stroke="black" cx="595.866" cy="-595.831" rx="28.6953" ry="18"/>
<text text-anchor="middle" x="595.866" y="-592.131" font-family="Times,serif" font-size="14.00">9001</text>
</a>
</g>
</g>
<!-- 7411&#45;&gt;9001 -->
<g id="edge2" class="edge"><title>7411&#45;&gt;9001</title>
<path fill="none" stroke="black" d="M498.659,-603.777C519.237,-602.095 546.895,-599.834 567.447,-598.154"/>
</g>
<!-- 7482 -->
<g id="node10" class="node"><title>7482</title>
<g id="a_node10"><a xlink:title="Day_0">
<ellipse fill="#e5dada" stroke="black" cx="500.598" cy="-814.733" rx="28.6953" ry="18"/>
<text text-anchor="middle" x="500.598" y="-811.033" font-family="Times,serif" font-size="14.00">7482</text>
</a>
</g>
</g>
<!-- 7482&#45;&gt;9001 -->
<g id="edge37" class="edge"><title>7482&#45;&gt;9001</title>
<path fill="none" stroke="black" d="M508.233,-797.19C526.071,-756.202 570.32,-654.528 588.194,-613.458"/>
</g>
<!-- 7482&#45;&gt;18169 -->
<g id="edge38" class="edge"><title>7482&#45;&gt;18169</title>
<path fill="none" stroke="black" d="M492.983,-832.224C475.826,-871.636 434.304,-967.016 417.107,-1006.52"/>
</g>
<!-- 8423 -->
<g id="node11" class="node"><title>8423</title>
<g id="a_node11"><a xlink:title="Day_0">
<ellipse fill="#e5dada" stroke="black" cx="655.431" cy="-213.748" rx="28.6953" ry="18"/>
<text text-anchor="middle" x="655.431" y="-210.048" font-family="Times,serif" font-size="14.00">8423</text>
</a>
</g>
</g>
<!-- 8423&#45;&gt;9023 -->
<g id="edge15" class="edge"><title>8423&#45;&gt;9023</title>
<path fill="none" stroke="black" d="M651.815,-231.617C646.054,-260.089 634.853,-315.439 629.084,-343.951"/>
</g>
<!-- 8432 -->
<g id="node12" class="node"><title>8432</title>
<g id="a_node12"><a xlink:title="Day_0">
<ellipse fill="#e5dada" stroke="black" cx="875.348" cy="-728.395" rx="28.6953" ry="18"/>
<text text-anchor="middle" x="875.348" y="-724.695" font-family="Times,serif" font-size="14.00">8432</text>
</a>
</g>
</g>
<!-- 8432&#45;&gt;26926 -->
<g id="edge4" class="edge"><title>8432&#45;&gt;26926</title>
<path fill="none" stroke="black" d="M854.782,-715.814C835.395,-703.954 806.435,-686.238 786.601,-674.104"/>
</g>
<!-- 8513 -->
<g id="node13" class="node"><title>8513</title>
<g id="a_node13"><a xlink:title="Day_0">
<ellipse fill="#e5dada" stroke="black" cx="732.306" cy="-421.068" rx="28.6953" ry="18"/>
<text text-anchor="middle" x="732.306" y="-417.368" font-family="Times,serif" font-size="14.00">8513</text>
</a>
</g>
</g>
<!-- 8513&#45;&gt;9023 -->
<g id="edge33" class="edge"><title>8513&#45;&gt;9023</title>
<path fill="none" stroke="black" d="M710.683,-409.091C692.145,-398.823 665.575,-384.106 647.046,-373.842"/>
</g>
<!-- 9001&#45;&gt;9023 -->
<g id="edge34" class="edge"><title>9001&#45;&gt;9023</title>
<path fill="none" stroke="black" d="M598.139,-577.862C603.646,-534.315 617.659,-423.524 623.175,-379.914"/>
</g>
<!-- 13105 -->
<g id="node18" class="node"><title>13105</title>
<g id="a_node18"><a xlink:title="3rd_week">
<ellipse fill="#ee9898" stroke="black" cx="700.245" cy="-608.409" rx="32.4942" ry="18"/>
<text text-anchor="middle" x="700.245" y="-604.709" font-family="Times,serif" font-size="14.00">13105</text>
</a>
</g>
</g>
<!-- 9001&#45;&gt;13105 -->
<g id="edge47" class="edge"><title>9001&#45;&gt;13105</title>
<path fill="none" stroke="black" d="M624.112,-599.235C637.757,-600.879 654.19,-602.859 668.29,-604.558"/>
</g>
<!-- 9001&#45;&gt;26926 -->
<g id="edge35" class="edge"><title>9001&#45;&gt;26926</title>
<path fill="none" stroke="black" d="M620.405,-605.258C651.67,-617.269 705.517,-637.954 737.828,-650.367"/>
</g>
<!-- 9431 -->
<g id="node16" class="node"><title>9431</title>
<g id="a_node16"><a xlink:title="Day_0">
<ellipse fill="#e5dada" stroke="black" cx="637.168" cy="-160.501" rx="28.6953" ry="18"/>
<text text-anchor="middle" x="637.168" y="-156.801" font-family="Times,serif" font-size="14.00">9431</text>
</a>
</g>
</g>
<!-- 9023&#45;&gt;9431 -->
<g id="edge27" class="edge"><title>9023&#45;&gt;9431</title>
<path fill="none" stroke="black" d="M626.515,-343.657C628.745,-305.316 633.899,-216.719 636.119,-178.541"/>
</g>
<!-- 12137 -->
<g id="node17" class="node"><title>12137</title>
<g id="a_node17"><a xlink:title="6th_week">
<ellipse fill="#c81d25" stroke="black" cx="505.879" cy="-403.628" rx="32.4942" ry="18"/>
<text text-anchor="middle" x="505.879" y="-399.928" font-family="Times,serif" font-size="14.00">12137</text>
</a>
</g>
</g>
<!-- 9023&#45;&gt;12137 -->
<g id="edge50" class="edge"><title>9023&#45;&gt;12137</title>
<path fill="none" stroke="black" d="M600.388,-370.634C580.802,-377.472 553.608,-386.965 533.417,-394.014"/>
</g>
<!-- 14359 -->
<g id="node19" class="node"><title>14359</title>
<g id="a_node19"><a xlink:title="Day_0">
<ellipse fill="#e5dada" stroke="black" cx="485.499" cy="-344.835" rx="32.4942" ry="18"/>
<text text-anchor="middle" x="485.499" y="-341.135" font-family="Times,serif" font-size="14.00">14359</text>
</a>
</g>
</g>
<!-- 9023&#45;&gt;14359 -->
<g id="edge51" class="edge"><title>9023&#45;&gt;14359</title>
<path fill="none" stroke="black" d="M597.133,-358.433C574.129,-355.631 541.683,-351.679 517.696,-348.757"/>
</g>
<!-- 18906 -->
<g id="node22" class="node"><title>18906</title>
<g id="a_node22"><a xlink:title="Day_0">
<ellipse fill="#e5dada" stroke="black" cx="770.932" cy="-359.36" rx="32.4942" ry="18"/>
<text text-anchor="middle" x="770.932" y="-355.66" font-family="Times,serif" font-size="14.00">18906</text>
</a>
</g>
</g>
<!-- 9023&#45;&gt;18906 -->
<g id="edge49" class="edge"><title>9023&#45;&gt;18906</title>
<path fill="none" stroke="black" d="M654.197,-361.385C678.459,-360.964 713.182,-360.362 738.447,-359.924"/>
</g>
<!-- 26622 -->
<g id="node24" class="node"><title>26622</title>
<g id="a_node24"><a xlink:title="Day_0">
<ellipse fill="#e5dada" stroke="black" cx="480.555" cy="-293.773" rx="32.4942" ry="18"/>
<text text-anchor="middle" x="480.555" y="-290.073" font-family="Times,serif" font-size="14.00">26622</text>
</a>
</g>
</g>
<!-- 9023&#45;&gt;26622 -->
<g id="edge17" class="edge"><title>9023&#45;&gt;26622</title>
<path fill="none" stroke="black" d="M602.495,-351.091C576.002,-338.638 532.595,-318.234 505.349,-305.427"/>
</g>
<!-- 27781 -->
<g id="node26" class="node"><title>27781</title>
<g id="a_node26"><a xlink:title="Day_0">
<ellipse fill="#e5dada" stroke="black" cx="737.022" cy="-234.551" rx="32.4942" ry="18"/>
<text text-anchor="middle" x="737.022" y="-230.851" font-family="Times,serif" font-size="14.00">27781</text>
</a>
</g>
</g>
<!-- 9023&#45;&gt;27781 -->
<g id="edge36" class="edge"><title>9023&#45;&gt;27781</title>
<path fill="none" stroke="black" d="M639.36,-346.014C660.622,-321.747 701.014,-275.648 722.589,-251.024"/>
</g>
<!-- 9023&#45;&gt;28266 -->
<g id="edge16" class="edge"><title>9023&#45;&gt;28266</title>
<path fill="none" stroke="black" d="M649.642,-352.27C684.938,-338.241 750.325,-312.253 786.893,-297.718"/>
</g>
<!-- 18227 -->
<g id="node21" class="node"><title>18227</title>
<g id="a_node21"><a xlink:title="Day_0">
<ellipse fill="#e5dada" stroke="black" cx="583.247" cy="-20.306" rx="32.4942" ry="18"/>
<text text-anchor="middle" x="583.247" y="-16.606" font-family="Times,serif" font-size="14.00">18227</text>
</a>
</g>
</g>
<!-- 9431&#45;&gt;18227 -->
<g id="edge45" class="edge"><title>9431&#45;&gt;18227</title>
<path fill="none" stroke="black" d="M630.339,-142.745C619.967,-115.778 600.36,-64.7988 590.021,-37.9176"/>
</g>
<!-- 23059 -->
<g id="node23" class="node"><title>23059</title>
<g id="a_node23"><a xlink:title="Day_0">
<ellipse fill="#e5dada" stroke="black" cx="660.577" cy="-17.5638" rx="32.4942" ry="18"/>
<text text-anchor="middle" x="660.577" y="-13.8638" font-family="Times,serif" font-size="14.00">23059</text>
</a>
</g>
</g>
<!-- 9431&#45;&gt;23059 -->
<g id="edge25" class="edge"><title>9431&#45;&gt;23059</title>
<path fill="none" stroke="black" d="M640.133,-142.398C644.636,-114.903 653.148,-62.9269 657.636,-35.5199"/>
</g>
<!-- 17096 -->
<g id="node33" class="node"><title>17096</title>
<g id="a_node33"><a xlink:title="Day_0">
<ellipse fill="#e5dada" stroke="black" cx="280.203" cy="-987.829" rx="32.4942" ry="18"/>
<text text-anchor="middle" x="280.203" y="-984.129" font-family="Times,serif" font-size="14.00">17096</text>
</a>
</g>
</g>
<!-- 18169&#45;&gt;17096 -->
<g id="edge30" class="edge"><title>18169&#45;&gt;17096</title>
<path fill="none" stroke="black" d="M380.445,-1015.97C359.308,-1010.03 330.777,-1002.02 309.559,-996.069"/>
</g>
<!-- 6611 -->
<g id="node28" class="node"><title>6611</title>
<g id="a_node28"><a xlink:title="Day_0">
<ellipse fill="#e5dada" stroke="black" cx="61.4736" cy="-1137.28" rx="28.6953" ry="18"/>
<text text-anchor="middle" x="61.4736" y="-1133.58" font-family="Times,serif" font-size="14.00">6611</text>
</a>
</g>
</g>
<!-- 6611&#45;&gt;8996 -->
<g id="edge9" class="edge"><title>6611&#45;&gt;8996</title>
<path fill="none" stroke="black" d="M80.7019,-1150.78C99.6175,-1164.05 128.329,-1184.2 147.202,-1197.45"/>
</g>
<!-- 13225 -->
<g id="node30" class="node"><title>13225</title>
<g id="a_node30"><a xlink:title="Day_0">
<ellipse fill="#e5dada" stroke="black" cx="32.0399" cy="-1198.65" rx="32.4942" ry="18"/>
<text text-anchor="middle" x="32.0399" y="-1194.95" font-family="Times,serif" font-size="14.00">13225</text>
</a>
</g>
</g>
<!-- 8996&#45;&gt;13225 -->
<g id="edge5" class="edge"><title>8996&#45;&gt;13225</title>
<path fill="none" stroke="black" d="M137.833,-1208.27C116.279,-1206.31 86.6601,-1203.61 64.2432,-1201.57"/>
</g>
<!-- 21731 -->
<g id="node35" class="node"><title>21731</title>
<g id="a_node35"><a xlink:title="Day_0">
<ellipse fill="#e5dada" stroke="black" cx="44.7147" cy="-1264.91" rx="32.4942" ry="18"/>
<text text-anchor="middle" x="44.7147" y="-1261.21" font-family="Times,serif" font-size="14.00">21731</text>
</a>
</g>
</g>
<!-- 8996&#45;&gt;21731 -->
<g id="edge31" class="edge"><title>8996&#45;&gt;21731</title>
<path fill="none" stroke="black" d="M142.864,-1221.28C122.022,-1230.54 91.6198,-1244.06 70.1862,-1253.59"/>
</g>
<!-- 16886 -->
<g id="node32" class="node"><title>16886</title>
<g id="a_node32"><a xlink:title="6th_week">
<ellipse fill="#c81d25" stroke="black" cx="429.673" cy="-1706.77" rx="32.4942" ry="18"/>
<text text-anchor="middle" x="429.673" y="-1703.07" font-family="Times,serif" font-size="14.00">16886</text>
</a>
</g>
</g>
<!-- 16886&#45;&gt;21146 -->
<g id="edge32" class="edge"><title>16886&#45;&gt;21146</title>
<path fill="none" stroke="black" d="M425.872,-1688.79C416.818,-1645.97 394.055,-1538.3 385.019,-1495.55"/>
</g>
<!-- 11001 -->
<g id="node38" class="node"><title>11001</title>
<g id="a_node38"><a xlink:title="6th_week">
<ellipse fill="#c81d25" stroke="black" cx="438.816" cy="-1861.45" rx="32.4942" ry="18"/>
<text text-anchor="middle" x="438.816" y="-1857.75" font-family="Times,serif" font-size="14.00">11001</text>
</a>
</g>
</g>
<!-- 16886&#45;&gt;11001 -->
<g id="edge41" class="edge"><title>16886&#45;&gt;11001</title>
<path fill="none" stroke="black" d="M430.74,-1724.82C432.492,-1754.46 435.961,-1813.16 437.727,-1843.04"/>
</g>
<!-- 11662 -->
<g id="node39" class="node"><title>11662</title>
<g id="a_node39"><a xlink:title="6th_week">
<ellipse fill="#c81d25" stroke="black" cx="569.637" cy="-1756.38" rx="32.4942" ry="18"/>
<text text-anchor="middle" x="569.637" y="-1752.68" font-family="Times,serif" font-size="14.00">11662</text>
</a>
</g>
</g>
<!-- 16886&#45;&gt;11662 -->
<g id="edge3" class="edge"><title>16886&#45;&gt;11662</title>
<path fill="none" stroke="black" d="M457.326,-1716.57C481.863,-1725.27 517.522,-1737.91 542.042,-1746.6"/>
</g>
<!-- 16659 -->
<g id="node40" class="node"><title>16659</title>
<g id="a_node40"><a xlink:title="6th_week">
<ellipse fill="#c81d25" stroke="black" cx="295.87" cy="-1741.41" rx="32.4942" ry="18"/>
<text text-anchor="middle" x="295.87" y="-1737.71" font-family="Times,serif" font-size="14.00">16659</text>
</a>
</g>
</g>
<!-- 16886&#45;&gt;16659 -->
<g id="edge46" class="edge"><title>16886&#45;&gt;16659</title>
<path fill="none" stroke="black" d="M399.978,-1714.46C377.805,-1720.2 347.636,-1728.01 325.482,-1733.74"/>
</g>
<!-- 24207 -->
<g id="node41" class="node"><title>24207</title>
<g id="a_node41"><a xlink:title="6th_week">
<ellipse fill="#c81d25" stroke="black" cx="306.133" cy="-1799.2" rx="32.4942" ry="18"/>
<text text-anchor="middle" x="306.133" y="-1795.5" font-family="Times,serif" font-size="14.00">24207</text>
</a>
</g>
</g>
<!-- 16886&#45;&gt;24207 -->
<g id="edge39" class="edge"><title>16886&#45;&gt;24207</title>
<path fill="none" stroke="black" d="M410.098,-1721.42C386.966,-1738.72 348.71,-1767.34 325.617,-1784.62"/>
</g>
<!-- 29876 -->
<g id="node42" class="node"><title>29876</title>
<g id="a_node42"><a xlink:title="Day_0">
<ellipse fill="#e5dada" stroke="black" cx="515.729" cy="-1819.8" rx="32.4942" ry="18"/>
<text text-anchor="middle" x="515.729" y="-1816.1" font-family="Times,serif" font-size="14.00">29876</text>
</a>
</g>
</g>
<!-- 16886&#45;&gt;29876 -->
<g id="edge52" class="edge"><title>16886&#45;&gt;29876</title>
<path fill="none" stroke="black" d="M442.371,-1723.45C458.642,-1744.82 486.684,-1781.65 502.98,-1803.05"/>
</g>
<!-- 2027 -->
<g id="node43" class="node"><title>2027</title>
<g id="a_node43"><a xlink:title="6th_week">
<ellipse fill="#c81d25" stroke="black" cx="356.85" cy="-1845.22" rx="28.6953" ry="18"/>
<text text-anchor="middle" x="356.85" y="-1841.52" font-family="Times,serif" font-size="14.00">2027</text>
</a>
</g>
</g>
<!-- 16886&#45;&gt;2027 -->
<g id="edge6" class="edge"><title>16886&#45;&gt;2027</title>
<path fill="none" stroke="black" d="M420.45,-1724.31C406.442,-1750.94 379.962,-1801.28 365.998,-1827.83"/>
</g>
<!-- 17675 -->
<g id="node48" class="node"><title>17675</title>
<g id="a_node48"><a xlink:title="6th_week">
<ellipse fill="#c81d25" stroke="black" cx="543.89" cy="-1930.11" rx="32.4942" ry="18"/>
<text text-anchor="middle" x="543.89" y="-1926.41" font-family="Times,serif" font-size="14.00">17675</text>
</a>
</g>
</g>
<!-- 16886&#45;&gt;17675 -->
<g id="edge26" class="edge"><title>16886&#45;&gt;17675</title>
<path fill="none" stroke="black" d="M438.636,-1724.3C459.987,-1766.05 513.66,-1871 534.969,-1912.66"/>
</g>
<!-- 24061 -->
<g id="node49" class="node"><title>24061</title>
<g id="a_node49"><a xlink:title="6th_week">
<ellipse fill="#c81d25" stroke="black" cx="564.605" cy="-1680.6" rx="32.4942" ry="18"/>
<text text-anchor="middle" x="564.605" y="-1676.9" font-family="Times,serif" font-size="14.00">24061</text>
</a>
</g>
</g>
<!-- 16886&#45;&gt;24061 -->
<g id="edge24" class="edge"><title>16886&#45;&gt;24061</title>
<path fill="none" stroke="black" d="M460.629,-1700.77C482.57,-1696.51 511.884,-1690.83 533.793,-1686.58"/>
</g>
<!-- 22844 -->
<g id="node36" class="node"><title>22844</title>
<g id="a_node36"><a xlink:title="6th_week">
<ellipse fill="#c81d25" stroke="black" cx="542.574" cy="-1461.08" rx="32.4942" ry="18"/>
<text text-anchor="middle" x="542.574" y="-1457.38" font-family="Times,serif" font-size="14.00">22844</text>
</a>
</g>
</g>
<!-- 21146&#45;&gt;22844 -->
<g id="edge10" class="edge"><title>21146&#45;&gt;22844</title>
<path fill="none" stroke="black" d="M413.497,-1474.34C441.636,-1471.45 482.245,-1467.28 510.368,-1464.39"/>
</g>
<!-- 3698 -->
<g id="node37" class="node"><title>3698</title>
<g id="a_node37"><a xlink:title="6th_week">
<ellipse fill="#c81d25" stroke="black" cx="234.312" cy="-1511.28" rx="28.6953" ry="18"/>
<text text-anchor="middle" x="234.312" y="-1507.58" font-family="Times,serif" font-size="14.00">3698</text>
</a>
</g>
</g>
<!-- 21146&#45;&gt;3698 -->
<g id="edge7" class="edge"><title>21146&#45;&gt;3698</title>
<path fill="none" stroke="black" d="M351.149,-1484.54C324.787,-1490.58 286.816,-1499.26 261.39,-1505.08"/>
</g>
<!-- 27976 -->
<g id="node53" class="node"><title>27976</title>
<g id="a_node53"><a xlink:title="6th_week">
<ellipse fill="#c81d25" stroke="black" cx="293.4" cy="-1557.04" rx="32.4942" ry="18"/>
<text text-anchor="middle" x="293.4" y="-1553.34" font-family="Times,serif" font-size="14.00">27976</text>
</a>
</g>
</g>
<!-- 21146&#45;&gt;27976 -->
<g id="edge42" class="edge"><title>21146&#45;&gt;27976</title>
<path fill="none" stroke="black" d="M363.882,-1493.34C348.383,-1507.35 325.814,-1527.75 310.419,-1541.66"/>
</g>
<!-- 12433 -->
<g id="node51" class="node"><title>12433</title>
<g id="a_node51"><a xlink:title="6th_week">
<ellipse fill="#c81d25" stroke="black" cx="671.388" cy="-1458.73" rx="32.4942" ry="18"/>
<text text-anchor="middle" x="671.388" y="-1455.03" font-family="Times,serif" font-size="14.00">12433</text>
</a>
</g>
</g>
<!-- 22844&#45;&gt;12433 -->
<g id="edge1" class="edge"><title>22844&#45;&gt;12433</title>
<path fill="none" stroke="black" d="M575.079,-1460.48C594.606,-1460.13 619.368,-1459.68 638.893,-1459.32"/>
</g>
<!-- 19312 -->
<g id="node52" class="node"><title>19312</title>
<g id="a_node52"><a xlink:title="6th_week">
<ellipse fill="#c81d25" stroke="black" cx="88.8575" cy="-1570.25" rx="32.4942" ry="18"/>
<text text-anchor="middle" x="88.8575" y="-1566.55" font-family="Times,serif" font-size="14.00">19312</text>
</a>
</g>
</g>
<!-- 3698&#45;&gt;19312 -->
<g id="edge53" class="edge"><title>3698&#45;&gt;19312</title>
<path fill="none" stroke="black" d="M209.966,-1521.15C183.763,-1531.77 142.225,-1548.61 115.254,-1559.55"/>
</g>
<!-- 5276 -->
<g id="node44" class="node"><title>5276</title>
<g id="a_node44"><a xlink:title="6th_week">
<ellipse fill="#c81d25" stroke="black" cx="470.539" cy="-2054.25" rx="28.6953" ry="18"/>
<text text-anchor="middle" x="470.539" y="-2050.55" font-family="Times,serif" font-size="14.00">5276</text>
</a>
</g>
</g>
<!-- 5276&#45;&gt;17675 -->
<g id="edge22" class="edge"><title>5276&#45;&gt;17675</title>
<path fill="none" stroke="black" d="M480.585,-2037.25C494.553,-2013.61 519.702,-1971.04 533.73,-1947.3"/>
</g>
<!-- 9360 -->
<g id="node45" class="node"><title>9360</title>
<g id="a_node45"><a xlink:title="6th_week">
<ellipse fill="#c81d25" stroke="black" cx="584.389" cy="-2038.13" rx="28.6953" ry="18"/>
<text text-anchor="middle" x="584.389" y="-2034.43" font-family="Times,serif" font-size="14.00">9360</text>
</a>
</g>
</g>
<!-- 9360&#45;&gt;17675 -->
<g id="edge11" class="edge"><title>9360&#45;&gt;17675</title>
<path fill="none" stroke="black" d="M577.701,-2020.29C570.198,-2000.28 558.095,-1968 550.587,-1947.97"/>
</g>
<!-- 13193 -->
<g id="node46" class="node"><title>13193</title>
<g id="a_node46"><a xlink:title="6th_week">
<ellipse fill="#c81d25" stroke="black" cx="685.093" cy="-1944.46" rx="32.4942" ry="18"/>
<text text-anchor="middle" x="685.093" y="-1940.76" font-family="Times,serif" font-size="14.00">13193</text>
</a>
</g>
</g>
<!-- 13193&#45;&gt;17675 -->
<g id="edge48" class="edge"><title>13193&#45;&gt;17675</title>
<path fill="none" stroke="black" d="M653.052,-1941.21C630.106,-1938.87 599.321,-1935.74 576.293,-1933.4"/>
</g>
<!-- 14929 -->
<g id="node47" class="node"><title>14929</title>
<g id="a_node47"><a xlink:title="6th_week">
<ellipse fill="#c81d25" stroke="black" cx="526.839" cy="-2099.86" rx="32.4942" ry="18"/>
<text text-anchor="middle" x="526.839" y="-2096.16" font-family="Times,serif" font-size="14.00">14929</text>
</a>
</g>
</g>
<!-- 14929&#45;&gt;17675 -->
<g id="edge13" class="edge"><title>14929&#45;&gt;17675</title>
<path fill="none" stroke="black" d="M528.664,-2081.69C531.946,-2049.02 538.806,-1980.72 542.078,-1948.14"/>
</g>
<!-- 25035 -->
<g id="node50" class="node"><title>25035</title>
<g id="a_node50"><a xlink:title="6th_week">
<ellipse fill="#c81d25" stroke="black" cx="667.348" cy="-2000.87" rx="32.4942" ry="18"/>
<text text-anchor="middle" x="667.348" y="-1997.17" font-family="Times,serif" font-size="14.00">25035</text>
</a>
</g>
</g>
<!-- 17675&#45;&gt;25035 -->
<g id="edge12" class="edge"><title>17675&#45;&gt;25035</title>
<path fill="none" stroke="black" d="M566.534,-1943.09C588.671,-1955.77 622.199,-1974.99 644.43,-1987.73"/>
</g>
<!-- 18332 -->
<g id="node54" class="node"><title>18332</title>
<g id="a_node54"><a xlink:title="6th_week">
<ellipse fill="#c81d25" stroke="black" cx="670.218" cy="-2050.63" rx="32.4942" ry="18"/>
<text text-anchor="middle" x="670.218" y="-2046.93" font-family="Times,serif" font-size="14.00">18332</text>
</a>
</g>
</g>
<!-- 17675&#45;&gt;18332 -->
<g id="edge28" class="edge"><title>17675&#45;&gt;18332</title>
<path fill="none" stroke="black" d="M560.405,-1945.86C584.616,-1968.96 629.486,-2011.77 653.699,-2034.87"/>
</g>
</g>
</svg>
