<?xml version="1.0" encoding="UTF-8" standalone="no"?>
<!DOCTYPE svg PUBLIC "-//W3C//DTD SVG 1.1//EN"
 "http://www.w3.org/Graphics/SVG/1.1/DTD/svg11.dtd">
<!-- Generated by graphviz version 2.38.0 (20140413.2041)
 -->
<!-- Title: %3 Pages: 1 -->
<svg width="2425pt" height="2509pt"
 viewBox="0.00 0.00 2425.00 2509.00" xmlns="http://www.w3.org/2000/svg" xmlns:xlink="http://www.w3.org/1999/xlink">
<g id="graph0" class="graph" transform="scale(1 1) rotate(0) translate(4 2505)">
<title>%3</title>
<polygon fill="white" stroke="none" points="-4,4 -4,-2505 2421,-2505 2421,4 -4,4"/>
<!-- 162 -->
<g id="node1" class="node"><title>162</title>
<g id="a_node1"><a xlink:title="6th_week">
<ellipse fill="#c81d25" stroke="black" cx="1701.58" cy="-1111.39" rx="27" ry="18"/>
<text text-anchor="middle" x="1701.58" y="-1107.69" font-family="Times,serif" font-size="14.00">162</text>
</a>
</g>
</g>
<!-- 4662 -->
<g id="node24" class="node"><title>4662</title>
<g id="a_node24"><a xlink:title="6th_week">
<ellipse fill="#c81d25" stroke="black" cx="1850.28" cy="-700.816" rx="28.6953" ry="18"/>
<text text-anchor="middle" x="1850.28" y="-697.116" font-family="Times,serif" font-size="14.00">4662</text>
</a>
</g>
</g>
<!-- 162&#45;&gt;4662 -->
<g id="edge16" class="edge"><title>162&#45;&gt;4662</title>
<path fill="none" stroke="black" d="M1707.97,-1093.75C1732.38,-1026.36 1819.55,-785.661 1843.91,-718.392"/>
</g>
<!-- 6237 -->
<g id="node30" class="node"><title>6237</title>
<g id="a_node30"><a xlink:title="6th_week">
<ellipse fill="#c81d25" stroke="black" cx="1601.81" cy="-998.722" rx="28.6953" ry="18"/>
<text text-anchor="middle" x="1601.81" y="-995.022" font-family="Times,serif" font-size="14.00">6237</text>
</a>
</g>
</g>
<!-- 162&#45;&gt;6237 -->
<g id="edge61" class="edge"><title>162&#45;&gt;6237</title>
<path fill="none" stroke="black" d="M1687.71,-1095.72C1668.75,-1074.32 1634.94,-1036.14 1615.88,-1014.62"/>
</g>
<!-- 9754 -->
<g id="node50" class="node"><title>9754</title>
<g id="a_node50"><a xlink:title="6th_week">
<ellipse fill="#c81d25" stroke="black" cx="1509.1" cy="-1532.45" rx="28.6953" ry="18"/>
<text text-anchor="middle" x="1509.1" y="-1528.75" font-family="Times,serif" font-size="14.00">9754</text>
</a>
</g>
</g>
<!-- 162&#45;&gt;9754 -->
<g id="edge9" class="edge"><title>162&#45;&gt;9754</title>
<path fill="none" stroke="black" d="M1693.68,-1128.68C1662.55,-1196.77 1548.61,-1446.03 1517.17,-1514.78"/>
</g>
<!-- 11429 -->
<g id="node60" class="node"><title>11429</title>
<g id="a_node60"><a xlink:title="6th_week">
<ellipse fill="#c81d25" stroke="black" cx="1796.82" cy="-1021.17" rx="32.4942" ry="18"/>
<text text-anchor="middle" x="1796.82" y="-1017.47" font-family="Times,serif" font-size="14.00">11429</text>
</a>
</g>
</g>
<!-- 162&#45;&gt;11429 -->
<g id="edge17" class="edge"><title>162&#45;&gt;11429</title>
<path fill="none" stroke="black" d="M1717.31,-1096.49C1734.64,-1080.07 1762.39,-1053.78 1780.11,-1037"/>
</g>
<!-- 15578 -->
<g id="node81" class="node"><title>15578</title>
<g id="a_node81"><a xlink:title="6th_week">
<ellipse fill="#c81d25" stroke="black" cx="1903.88" cy="-1109.47" rx="32.4942" ry="18"/>
<text text-anchor="middle" x="1903.88" y="-1105.77" font-family="Times,serif" font-size="14.00">15578</text>
</a>
</g>
</g>
<!-- 162&#45;&gt;15578 -->
<g id="edge57" class="edge"><title>162&#45;&gt;15578</title>
<path fill="none" stroke="black" d="M1728.87,-1111.13C1765.86,-1110.78 1831.84,-1110.15 1871.36,-1109.78"/>
</g>
<!-- 175 -->
<g id="node2" class="node"><title>175</title>
<g id="a_node2"><a xlink:title="6th_week">
<ellipse fill="#c81d25" stroke="black" cx="492.245" cy="-1230.83" rx="27" ry="18"/>
<text text-anchor="middle" x="492.245" y="-1227.13" font-family="Times,serif" font-size="14.00">175</text>
</a>
</g>
</g>
<!-- 13359 -->
<g id="node67" class="node"><title>13359</title>
<g id="a_node67"><a xlink:title="6th_week">
<ellipse fill="#c81d25" stroke="black" cx="662.813" cy="-1349.2" rx="32.4942" ry="18"/>
<text text-anchor="middle" x="662.813" y="-1345.5" font-family="Times,serif" font-size="14.00">13359</text>
</a>
</g>
</g>
<!-- 175&#45;&gt;13359 -->
<g id="edge47" class="edge"><title>175&#45;&gt;13359</title>
<path fill="none" stroke="black" d="M511.15,-1243.95C543.503,-1266.4 609.21,-1312 642.502,-1335.11"/>
</g>
<!-- 468 -->
<g id="node3" class="node"><title>468</title>
<g id="a_node3"><a xlink:title="6th_week">
<ellipse fill="#c81d25" stroke="black" cx="2072.34" cy="-2279.81" rx="27" ry="18"/>
<text text-anchor="middle" x="2072.34" y="-2276.11" font-family="Times,serif" font-size="14.00">468</text>
</a>
</g>
</g>
<!-- 2964 -->
<g id="node14" class="node"><title>2964</title>
<g id="a_node14"><a xlink:title="6th_week">
<ellipse fill="#c81d25" stroke="black" cx="2010.93" cy="-2078.49" rx="28.6953" ry="18"/>
<text text-anchor="middle" x="2010.93" y="-2074.79" font-family="Times,serif" font-size="14.00">2964</text>
</a>
</g>
</g>
<!-- 468&#45;&gt;2964 -->
<g id="edge49" class="edge"><title>468&#45;&gt;2964</title>
<path fill="none" stroke="black" d="M2066.89,-2261.94C2055.23,-2223.74 2028.01,-2134.49 2016.37,-2096.32"/>
</g>
<!-- 859 -->
<g id="node4" class="node"><title>859</title>
<g id="a_node4"><a xlink:title="6th_week">
<ellipse fill="#c81d25" stroke="black" cx="1074.38" cy="-1682.97" rx="27" ry="18"/>
<text text-anchor="middle" x="1074.38" y="-1679.27" font-family="Times,serif" font-size="14.00">859</text>
</a>
</g>
</g>
<!-- 885 -->
<g id="node6" class="node"><title>885</title>
<g id="a_node6"><a xlink:title="6th_week">
<ellipse fill="#c81d25" stroke="black" cx="1108.63" cy="-1546.59" rx="27" ry="18"/>
<text text-anchor="middle" x="1108.63" y="-1542.89" font-family="Times,serif" font-size="14.00">885</text>
</a>
</g>
</g>
<!-- 859&#45;&gt;885 -->
<g id="edge82" class="edge"><title>859&#45;&gt;885</title>
<path fill="none" stroke="black" d="M1078.86,-1665.14C1085.42,-1639 1097.59,-1590.56 1104.15,-1564.42"/>
</g>
<!-- 1308 -->
<g id="node9" class="node"><title>1308</title>
<g id="a_node9"><a xlink:title="6th_week">
<ellipse fill="#c81d25" stroke="black" cx="840.847" cy="-1485.53" rx="28.6953" ry="18"/>
<text text-anchor="middle" x="840.847" y="-1481.83" font-family="Times,serif" font-size="14.00">1308</text>
</a>
</g>
</g>
<!-- 859&#45;&gt;1308 -->
<g id="edge7" class="edge"><title>859&#45;&gt;1308</title>
<path fill="none" stroke="black" d="M1057.59,-1668.77C1014.71,-1632.52 901.517,-1536.83 858.121,-1500.14"/>
</g>
<!-- 2270 -->
<g id="node10" class="node"><title>2270</title>
<g id="a_node10"><a xlink:title="6th_week">
<ellipse fill="#c81d25" stroke="black" cx="1000.77" cy="-1900.34" rx="28.6953" ry="18"/>
<text text-anchor="middle" x="1000.77" y="-1896.64" font-family="Times,serif" font-size="14.00">2270</text>
</a>
</g>
</g>
<!-- 859&#45;&gt;2270 -->
<g id="edge83" class="edge"><title>859&#45;&gt;2270</title>
<path fill="none" stroke="black" d="M1068.36,-1700.76C1054.52,-1741.62 1020.59,-1841.81 1006.78,-1882.61"/>
</g>
<!-- 2846 -->
<g id="node13" class="node"><title>2846</title>
<g id="a_node13"><a xlink:title="6th_week">
<ellipse fill="#c81d25" stroke="black" cx="973.836" cy="-1814.5" rx="28.6953" ry="18"/>
<text text-anchor="middle" x="973.836" y="-1810.8" font-family="Times,serif" font-size="14.00">2846</text>
</a>
</g>
</g>
<!-- 859&#45;&gt;2846 -->
<g id="edge26" class="edge"><title>859&#45;&gt;2846</title>
<path fill="none" stroke="black" d="M1062.05,-1699.1C1042.76,-1724.34 1005.63,-1772.91 986.266,-1798.24"/>
</g>
<!-- 4905 -->
<g id="node25" class="node"><title>4905</title>
<g id="a_node25"><a xlink:title="6th_week">
<ellipse fill="#c81d25" stroke="black" cx="780.186" cy="-1910.62" rx="28.6953" ry="18"/>
<text text-anchor="middle" x="780.186" y="-1906.92" font-family="Times,serif" font-size="14.00">4905</text>
</a>
</g>
</g>
<!-- 859&#45;&gt;4905 -->
<g id="edge11" class="edge"><title>859&#45;&gt;4905</title>
<path fill="none" stroke="black" d="M1056.42,-1696.87C1003.9,-1737.51 850.983,-1855.84 798.285,-1896.61"/>
</g>
<!-- 5254 -->
<g id="node28" class="node"><title>5254</title>
<g id="a_node28"><a xlink:title="6th_week">
<ellipse fill="#c81d25" stroke="black" cx="1096.57" cy="-1910.01" rx="28.6953" ry="18"/>
<text text-anchor="middle" x="1096.57" y="-1906.31" font-family="Times,serif" font-size="14.00">5254</text>
</a>
</g>
</g>
<!-- 859&#45;&gt;5254 -->
<g id="edge15" class="edge"><title>859&#45;&gt;5254</title>
<path fill="none" stroke="black" d="M1076.16,-1701.17C1080.32,-1743.78 1090.67,-1849.65 1094.81,-1892.04"/>
</g>
<!-- 6305 -->
<g id="node31" class="node"><title>6305</title>
<g id="a_node31"><a xlink:title="6th_week">
<ellipse fill="#c81d25" stroke="black" cx="1118.32" cy="-1827.73" rx="28.6953" ry="18"/>
<text text-anchor="middle" x="1118.32" y="-1824.03" font-family="Times,serif" font-size="14.00">6305</text>
</a>
</g>
</g>
<!-- 859&#45;&gt;6305 -->
<g id="edge59" class="edge"><title>859&#45;&gt;6305</title>
<path fill="none" stroke="black" d="M1079.77,-1700.72C1088.2,-1728.5 1104.43,-1781.96 1112.89,-1809.84"/>
</g>
<!-- 9035 -->
<g id="node46" class="node"><title>9035</title>
<g id="a_node46"><a xlink:title="6th_week">
<ellipse fill="#c81d25" stroke="black" cx="951.375" cy="-1575.2" rx="28.6953" ry="18"/>
<text text-anchor="middle" x="951.375" y="-1571.5" font-family="Times,serif" font-size="14.00">9035</text>
</a>
</g>
</g>
<!-- 859&#45;&gt;9035 -->
<g id="edge71" class="edge"><title>859&#45;&gt;9035</title>
<path fill="none" stroke="black" d="M1057.79,-1668.43C1034.32,-1647.87 991.641,-1610.48 968.094,-1589.84"/>
</g>
<!-- 9447 -->
<g id="node48" class="node"><title>9447</title>
<g id="a_node48"><a xlink:title="6th_week">
<ellipse fill="#c81d25" stroke="black" cx="1186.21" cy="-1771.71" rx="28.6953" ry="18"/>
<text text-anchor="middle" x="1186.21" y="-1768.01" font-family="Times,serif" font-size="14.00">9447</text>
</a>
</g>
</g>
<!-- 859&#45;&gt;9447 -->
<g id="edge52" class="edge"><title>859&#45;&gt;9447</title>
<path fill="none" stroke="black" d="M1091.85,-1696.84C1112.62,-1713.31 1147.09,-1740.67 1168.12,-1757.36"/>
</g>
<!-- 859&#45;&gt;9754 -->
<g id="edge40" class="edge"><title>859&#45;&gt;9754</title>
<path fill="none" stroke="black" d="M1098.37,-1674.66C1173.93,-1648.5 1406.53,-1567.96 1483.83,-1541.2"/>
</g>
<!-- 9787 -->
<g id="node51" class="node"><title>9787</title>
<g id="a_node51"><a xlink:title="6th_week">
<ellipse fill="#c81d25" stroke="black" cx="1021.65" cy="-1527.02" rx="28.6953" ry="18"/>
<text text-anchor="middle" x="1021.65" y="-1523.32" font-family="Times,serif" font-size="14.00">9787</text>
</a>
</g>
</g>
<!-- 859&#45;&gt;9787 -->
<g id="edge65" class="edge"><title>859&#45;&gt;9787</title>
<path fill="none" stroke="black" d="M1068.43,-1665.38C1058.31,-1635.43 1037.82,-1574.85 1027.65,-1544.78"/>
</g>
<!-- 11151 -->
<g id="node58" class="node"><title>11151</title>
<g id="a_node58"><a xlink:title="6th_week">
<ellipse fill="#c81d25" stroke="black" cx="906.691" cy="-1659.38" rx="32.4942" ry="18"/>
<text text-anchor="middle" x="906.691" y="-1655.68" font-family="Times,serif" font-size="14.00">11151</text>
</a>
</g>
</g>
<!-- 859&#45;&gt;11151 -->
<g id="edge27" class="edge"><title>859&#45;&gt;11151</title>
<path fill="none" stroke="black" d="M1047.81,-1679.23C1018.07,-1675.05 969.924,-1668.28 938.283,-1663.83"/>
</g>
<!-- 14986 -->
<g id="node79" class="node"><title>14986</title>
<g id="a_node79"><a xlink:title="6th_week">
<ellipse fill="#c81d25" stroke="black" cx="784.144" cy="-1677.19" rx="32.4942" ry="18"/>
<text text-anchor="middle" x="784.144" y="-1673.49" font-family="Times,serif" font-size="14.00">14986</text>
</a>
</g>
</g>
<!-- 859&#45;&gt;14986 -->
<g id="edge44" class="edge"><title>859&#45;&gt;14986</title>
<path fill="none" stroke="black" d="M1047.34,-1682.43C993.861,-1681.37 874.786,-1678.99 816.942,-1677.84"/>
</g>
<!-- 16308 -->
<g id="node84" class="node"><title>16308</title>
<g id="a_node84"><a xlink:title="6th_week">
<ellipse fill="#c81d25" stroke="black" cx="911.763" cy="-1758.33" rx="32.4942" ry="18"/>
<text text-anchor="middle" x="911.763" y="-1754.63" font-family="Times,serif" font-size="14.00">16308</text>
</a>
</g>
</g>
<!-- 859&#45;&gt;16308 -->
<g id="edge81" class="edge"><title>859&#45;&gt;16308</title>
<path fill="none" stroke="black" d="M1052.11,-1693.29C1021.93,-1707.28 968.191,-1732.18 936.691,-1746.78"/>
</g>
<!-- 880 -->
<g id="node5" class="node"><title>880</title>
<g id="a_node5"><a xlink:title="6th_week">
<ellipse fill="#c81d25" stroke="black" cx="1562.44" cy="-1735.13" rx="27" ry="18"/>
<text text-anchor="middle" x="1562.44" y="-1731.43" font-family="Times,serif" font-size="14.00">880</text>
</a>
</g>
</g>
<!-- 880&#45;&gt;9754 -->
<g id="edge3" class="edge"><title>880&#45;&gt;9754</title>
<path fill="none" stroke="black" d="M1557.71,-1717.14C1547.59,-1678.68 1523.93,-1588.82 1513.82,-1550.4"/>
</g>
<!-- 10269 -->
<g id="node54" class="node"><title>10269</title>
<g id="a_node54"><a xlink:title="6th_week">
<ellipse fill="#c81d25" stroke="black" cx="1600.45" cy="-1895.62" rx="32.4942" ry="18"/>
<text text-anchor="middle" x="1600.45" y="-1891.92" font-family="Times,serif" font-size="14.00">10269</text>
</a>
</g>
</g>
<!-- 880&#45;&gt;10269 -->
<g id="edge18" class="edge"><title>880&#45;&gt;10269</title>
<path fill="none" stroke="black" d="M1566.66,-1752.92C1573.96,-1783.77 1588.9,-1846.85 1596.22,-1877.76"/>
</g>
<!-- 977 -->
<g id="node7" class="node"><title>977</title>
<g id="a_node7"><a xlink:title="6th_week">
<ellipse fill="#c81d25" stroke="black" cx="703.027" cy="-2060.69" rx="27" ry="18"/>
<text text-anchor="middle" x="703.027" y="-2056.99" font-family="Times,serif" font-size="14.00">977</text>
</a>
</g>
</g>
<!-- 977&#45;&gt;4905 -->
<g id="edge12" class="edge"><title>977&#45;&gt;4905</title>
<path fill="none" stroke="black" d="M711.878,-2043.48C726.683,-2014.68 756.307,-1957.06 771.201,-1928.1"/>
</g>
<!-- 1250 -->
<g id="node8" class="node"><title>1250</title>
<g id="a_node8"><a xlink:title="6th_week">
<ellipse fill="#c81d25" stroke="black" cx="515.077" cy="-2095.23" rx="28.6953" ry="18"/>
<text text-anchor="middle" x="515.077" y="-2091.53" font-family="Times,serif" font-size="14.00">1250</text>
</a>
</g>
</g>
<!-- 1250&#45;&gt;4905 -->
<g id="edge51" class="edge"><title>1250&#45;&gt;4905</title>
<path fill="none" stroke="black" d="M534.571,-2081.65C583.598,-2047.51 711.606,-1958.37 760.664,-1924.21"/>
</g>
<!-- 13719 -->
<g id="node73" class="node"><title>13719</title>
<g id="a_node73"><a xlink:title="6th_week">
<ellipse fill="#c81d25" stroke="black" cx="220.085" cy="-2298.49" rx="32.4942" ry="18"/>
<text text-anchor="middle" x="220.085" y="-2294.79" font-family="Times,serif" font-size="14.00">13719</text>
</a>
</g>
</g>
<!-- 1250&#45;&gt;13719 -->
<g id="edge46" class="edge"><title>1250&#45;&gt;13719</title>
<path fill="none" stroke="black" d="M495.722,-2108.56C442.656,-2145.13 295.19,-2246.74 240.682,-2284.3"/>
</g>
<!-- 3934 -->
<g id="node20" class="node"><title>3934</title>
<g id="a_node20"><a xlink:title="6th_week">
<ellipse fill="#c81d25" stroke="black" cx="686.259" cy="-1422.12" rx="28.6953" ry="18"/>
<text text-anchor="middle" x="686.259" y="-1418.42" font-family="Times,serif" font-size="14.00">3934</text>
</a>
</g>
</g>
<!-- 1308&#45;&gt;3934 -->
<g id="edge35" class="edge"><title>1308&#45;&gt;3934</title>
<path fill="none" stroke="black" d="M816.693,-1475.62C787.651,-1463.71 739.21,-1443.84 710.243,-1431.96"/>
</g>
<!-- 7697 -->
<g id="node40" class="node"><title>7697</title>
<g id="a_node40"><a xlink:title="6th_week">
<ellipse fill="#c81d25" stroke="black" cx="763.448" cy="-1333.63" rx="28.6953" ry="18"/>
<text text-anchor="middle" x="763.448" y="-1329.93" font-family="Times,serif" font-size="14.00">7697</text>
</a>
</g>
</g>
<!-- 1308&#45;&gt;7697 -->
<g id="edge14" class="edge"><title>1308&#45;&gt;7697</title>
<path fill="none" stroke="black" d="M831.969,-1468.11C817.039,-1438.81 787.083,-1380.02 772.223,-1350.85"/>
</g>
<!-- 1308&#45;&gt;13359 -->
<g id="edge78" class="edge"><title>1308&#45;&gt;13359</title>
<path fill="none" stroke="black" d="M822.465,-1471.46C788.527,-1445.47 716.36,-1390.2 681.9,-1363.82"/>
</g>
<!-- 6361 -->
<g id="node86" class="node"><title>6361</title>
<g id="a_node86"><a xlink:title="6th_week">
<ellipse fill="#c81d25" stroke="black" cx="954.794" cy="-2068.24" rx="28.6953" ry="18"/>
<text text-anchor="middle" x="954.794" y="-2064.54" font-family="Times,serif" font-size="14.00">6361</text>
</a>
</g>
</g>
<!-- 2270&#45;&gt;6361 -->
<g id="edge60" class="edge"><title>2270&#45;&gt;6361</title>
<path fill="none" stroke="black" d="M995.852,-1918.31C987.003,-1950.63 968.503,-2018.18 959.679,-2050.41"/>
</g>
<!-- 2548 -->
<g id="node11" class="node"><title>2548</title>
<g id="a_node11"><a xlink:title="6th_week">
<ellipse fill="#c81d25" stroke="black" cx="1900.38" cy="-575.787" rx="28.6953" ry="18"/>
<text text-anchor="middle" x="1900.38" y="-572.087" font-family="Times,serif" font-size="14.00">2548</text>
</a>
</g>
</g>
<!-- 2548&#45;&gt;4662 -->
<g id="edge77" class="edge"><title>2548&#45;&gt;4662</title>
<path fill="none" stroke="black" d="M1893.31,-593.435C1883.76,-617.264 1866.84,-659.475 1857.31,-683.258"/>
</g>
<!-- 2744 -->
<g id="node12" class="node"><title>2744</title>
<g id="a_node12"><a xlink:title="6th_week">
<ellipse fill="#c81d25" stroke="black" cx="1909.78" cy="-495.566" rx="28.6953" ry="18"/>
<text text-anchor="middle" x="1909.78" y="-491.866" font-family="Times,serif" font-size="14.00">2744</text>
</a>
</g>
</g>
<!-- 2744&#45;&gt;4662 -->
<g id="edge5" class="edge"><title>2744&#45;&gt;4662</title>
<path fill="none" stroke="black" d="M1904.61,-513.422C1893.35,-552.239 1866.77,-643.943 1855.49,-682.856"/>
</g>
<!-- 3124 -->
<g id="node15" class="node"><title>3124</title>
<g id="a_node15"><a xlink:title="6th_week">
<ellipse fill="#c81d25" stroke="black" cx="2193.33" cy="-2055.64" rx="28.6953" ry="18"/>
<text text-anchor="middle" x="2193.33" y="-2051.94" font-family="Times,serif" font-size="14.00">3124</text>
</a>
</g>
</g>
<!-- 2964&#45;&gt;3124 -->
<g id="edge39" class="edge"><title>2964&#45;&gt;3124</title>
<path fill="none" stroke="black" d="M2039.03,-2074.97C2073.31,-2070.68 2130.9,-2063.46 2165.2,-2059.16"/>
</g>
<!-- 6662 -->
<g id="node33" class="node"><title>6662</title>
<g id="a_node33"><a xlink:title="6th_week">
<ellipse fill="#c81d25" stroke="black" cx="1770.59" cy="-1813.76" rx="28.6953" ry="18"/>
<text text-anchor="middle" x="1770.59" y="-1810.06" font-family="Times,serif" font-size="14.00">6662</text>
</a>
</g>
</g>
<!-- 2964&#45;&gt;6662 -->
<g id="edge70" class="edge"><title>2964&#45;&gt;6662</title>
<path fill="none" stroke="black" d="M1996.62,-2062.73C1953.87,-2015.64 1827.48,-1876.42 1784.83,-1829.45"/>
</g>
<!-- 6991 -->
<g id="node36" class="node"><title>6991</title>
<g id="a_node36"><a xlink:title="6th_week">
<ellipse fill="#c81d25" stroke="black" cx="2190.06" cy="-2260.38" rx="28.6953" ry="18"/>
<text text-anchor="middle" x="2190.06" y="-2256.68" font-family="Times,serif" font-size="14.00">6991</text>
</a>
</g>
</g>
<!-- 2964&#45;&gt;6991 -->
<g id="edge67" class="edge"><title>2964&#45;&gt;6991</title>
<path fill="none" stroke="black" d="M2026.2,-2094C2060.04,-2128.37 2141.02,-2210.58 2174.82,-2244.91"/>
</g>
<!-- 7620 -->
<g id="node39" class="node"><title>7620</title>
<g id="a_node39"><a xlink:title="6th_week">
<ellipse fill="#c81d25" stroke="black" cx="2206" cy="-2121.3" rx="28.6953" ry="18"/>
<text text-anchor="middle" x="2206" y="-2117.6" font-family="Times,serif" font-size="14.00">7620</text>
</a>
</g>
</g>
<!-- 2964&#45;&gt;7620 -->
<g id="edge22" class="edge"><title>2964&#45;&gt;7620</title>
<path fill="none" stroke="black" d="M2038.05,-2084.45C2075.22,-2092.6 2141.58,-2107.16 2178.79,-2115.33"/>
</g>
<!-- 8246 -->
<g id="node42" class="node"><title>8246</title>
<g id="a_node42"><a xlink:title="6th_week">
<ellipse fill="#c81d25" stroke="black" cx="1952.88" cy="-2265.06" rx="28.6953" ry="18"/>
<text text-anchor="middle" x="1952.88" y="-2261.36" font-family="Times,serif" font-size="14.00">8246</text>
</a>
</g>
</g>
<!-- 2964&#45;&gt;8246 -->
<g id="edge53" class="edge"><title>2964&#45;&gt;8246</title>
<path fill="none" stroke="black" d="M2005.36,-2096.38C1994.27,-2132.04 1969.51,-2211.61 1958.43,-2247.23"/>
</g>
<!-- 11171 -->
<g id="node59" class="node"><title>11171</title>
<g id="a_node59"><a xlink:title="6th_week">
<ellipse fill="#c81d25" stroke="black" cx="2098.32" cy="-2216" rx="32.4942" ry="18"/>
<text text-anchor="middle" x="2098.32" y="-2212.3" font-family="Times,serif" font-size="14.00">11171</text>
</a>
</g>
</g>
<!-- 2964&#45;&gt;11171 -->
<g id="edge8" class="edge"><title>2964&#45;&gt;11171</title>
<path fill="none" stroke="black" d="M2021.65,-2095.36C2038.42,-2121.75 2070.69,-2172.53 2087.51,-2199"/>
</g>
<!-- 13486 -->
<g id="node70" class="node"><title>13486</title>
<g id="a_node70"><a xlink:title="6th_week">
<ellipse fill="#c81d25" stroke="black" cx="2189.91" cy="-2182.03" rx="32.4942" ry="18"/>
<text text-anchor="middle" x="2189.91" y="-2178.33" font-family="Times,serif" font-size="14.00">13486</text>
</a>
</g>
</g>
<!-- 2964&#45;&gt;13486 -->
<g id="edge80" class="edge"><title>2964&#45;&gt;13486</title>
<path fill="none" stroke="black" d="M2032.16,-2090.78C2066.15,-2110.44 2132.46,-2148.8 2167.29,-2168.95"/>
</g>
<!-- 15604 -->
<g id="node82" class="node"><title>15604</title>
<g id="a_node82"><a xlink:title="6th_week">
<ellipse fill="#c81d25" stroke="black" cx="2022.59" cy="-2216.76" rx="32.4942" ry="18"/>
<text text-anchor="middle" x="2022.59" y="-2213.06" font-family="Times,serif" font-size="14.00">15604</text>
</a>
</g>
</g>
<!-- 2964&#45;&gt;15604 -->
<g id="edge23" class="edge"><title>2964&#45;&gt;15604</title>
<path fill="none" stroke="black" d="M2012.45,-2096.57C2014.69,-2123.07 2018.83,-2172.18 2021.06,-2198.68"/>
</g>
<!-- 3285 -->
<g id="node16" class="node"><title>3285</title>
<g id="a_node16"><a xlink:title="6th_week">
<ellipse fill="#c81d25" stroke="black" cx="1653.78" cy="-1542.76" rx="28.6953" ry="18"/>
<text text-anchor="middle" x="1653.78" y="-1539.06" font-family="Times,serif" font-size="14.00">3285</text>
</a>
</g>
</g>
<!-- 3285&#45;&gt;9754 -->
<g id="edge45" class="edge"><title>3285&#45;&gt;9754</title>
<path fill="none" stroke="black" d="M1625.2,-1540.73C1599.83,-1538.92 1562.97,-1536.29 1537.62,-1534.49"/>
</g>
<!-- 3644 -->
<g id="node17" class="node"><title>3644</title>
<g id="a_node17"><a xlink:title="6th_week">
<ellipse fill="#c81d25" stroke="black" cx="1919.36" cy="-426.302" rx="28.6953" ry="18"/>
<text text-anchor="middle" x="1919.36" y="-422.602" font-family="Times,serif" font-size="14.00">3644</text>
</a>
</g>
</g>
<!-- 3644&#45;&gt;4662 -->
<g id="edge85" class="edge"><title>3644&#45;&gt;4662</title>
<path fill="none" stroke="black" d="M1914.83,-444.313C1902.31,-494.054 1867.36,-632.919 1854.83,-682.738"/>
</g>
<!-- 6407 -->
<g id="node32" class="node"><title>6407</title>
<g id="a_node32"><a xlink:title="6th_week">
<ellipse fill="#c81d25" stroke="black" cx="1975.26" cy="-219.032" rx="28.6953" ry="18"/>
<text text-anchor="middle" x="1975.26" y="-215.332" font-family="Times,serif" font-size="14.00">6407</text>
</a>
</g>
</g>
<!-- 3644&#45;&gt;6407 -->
<g id="edge76" class="edge"><title>3644&#45;&gt;6407</title>
<path fill="none" stroke="black" d="M1924.22,-408.27C1934.82,-368.972 1959.9,-275.999 1970.45,-236.874"/>
</g>
<!-- 3687 -->
<g id="node18" class="node"><title>3687</title>
<g id="a_node18"><a xlink:title="6th_week">
<ellipse fill="#c81d25" stroke="black" cx="634.06" cy="-1990.4" rx="28.6953" ry="18"/>
<text text-anchor="middle" x="634.06" y="-1986.7" font-family="Times,serif" font-size="14.00">3687</text>
</a>
</g>
</g>
<!-- 3687&#45;&gt;4905 -->
<g id="edge56" class="edge"><title>3687&#45;&gt;4905</title>
<path fill="none" stroke="black" d="M655.937,-1978.46C683.484,-1963.42 730.542,-1937.73 758.16,-1922.65"/>
</g>
<!-- 3743 -->
<g id="node19" class="node"><title>3743</title>
<g id="a_node19"><a xlink:title="6th_week">
<ellipse fill="#c81d25" stroke="black" cx="1767.09" cy="-599.345" rx="28.6953" ry="18"/>
<text text-anchor="middle" x="1767.09" y="-595.645" font-family="Times,serif" font-size="14.00">3743</text>
</a>
</g>
</g>
<!-- 3743&#45;&gt;4662 -->
<g id="edge48" class="edge"><title>3743&#45;&gt;4662</title>
<path fill="none" stroke="black" d="M1780.46,-615.649C1795.98,-634.584 1821.44,-665.635 1836.95,-684.554"/>
</g>
<!-- 4003 -->
<g id="node21" class="node"><title>4003</title>
<g id="a_node21"><a xlink:title="6th_week">
<ellipse fill="#c81d25" stroke="black" cx="234.236" cy="-2470.67" rx="28.6953" ry="18"/>
<text text-anchor="middle" x="234.236" y="-2466.97" font-family="Times,serif" font-size="14.00">4003</text>
</a>
</g>
</g>
<!-- 4003&#45;&gt;13719 -->
<g id="edge6" class="edge"><title>4003&#45;&gt;13719</title>
<path fill="none" stroke="black" d="M232.749,-2452.57C230.031,-2419.5 224.293,-2349.69 221.574,-2316.61"/>
</g>
<!-- 4033 -->
<g id="node22" class="node"><title>4033</title>
<g id="a_node22"><a xlink:title="6th_week">
<ellipse fill="#c81d25" stroke="black" cx="1697.32" cy="-697.22" rx="28.6953" ry="18"/>
<text text-anchor="middle" x="1697.32" y="-693.52" font-family="Times,serif" font-size="14.00">4033</text>
</a>
</g>
</g>
<!-- 4033&#45;&gt;4662 -->
<g id="edge31" class="edge"><title>4033&#45;&gt;4662</title>
<path fill="none" stroke="black" d="M1726.09,-697.896C1753.44,-698.539 1794.33,-699.501 1821.64,-700.143"/>
</g>
<!-- 4357 -->
<g id="node23" class="node"><title>4357</title>
<g id="a_node23"><a xlink:title="6th_week">
<ellipse fill="#c81d25" stroke="black" cx="1421.78" cy="-1413.28" rx="28.6953" ry="18"/>
<text text-anchor="middle" x="1421.78" y="-1409.58" font-family="Times,serif" font-size="14.00">4357</text>
</a>
</g>
</g>
<!-- 4357&#45;&gt;9754 -->
<g id="edge1" class="edge"><title>4357&#45;&gt;9754</title>
<path fill="none" stroke="black" d="M1433.92,-1429.85C1450.6,-1452.62 1480.43,-1493.33 1497.06,-1516.02"/>
</g>
<!-- 7325 -->
<g id="node37" class="node"><title>7325</title>
<g id="a_node37"><a xlink:title="6th_week">
<ellipse fill="#c81d25" stroke="black" cx="1984.5" cy="-589.976" rx="28.6953" ry="18"/>
<text text-anchor="middle" x="1984.5" y="-586.276" font-family="Times,serif" font-size="14.00">7325</text>
</a>
</g>
</g>
<!-- 4662&#45;&gt;7325 -->
<g id="edge43" class="edge"><title>4662&#45;&gt;7325</title>
<path fill="none" stroke="black" d="M1867.83,-686.326C1893.55,-665.084 1941.22,-625.715 1966.95,-604.47"/>
</g>
<!-- 7423 -->
<g id="node38" class="node"><title>7423</title>
<g id="a_node38"><a xlink:title="6th_week">
<ellipse fill="#c81d25" stroke="black" cx="2063.87" cy="-541.427" rx="28.6953" ry="18"/>
<text text-anchor="middle" x="2063.87" y="-537.727" font-family="Times,serif" font-size="14.00">7423</text>
</a>
</g>
</g>
<!-- 4662&#45;&gt;7423 -->
<g id="edge28" class="edge"><title>4662&#45;&gt;7423</title>
<path fill="none" stroke="black" d="M1868.86,-686.951C1909.25,-656.806 2004.68,-585.593 2045.18,-555.375"/>
</g>
<!-- 8261 -->
<g id="node43" class="node"><title>8261</title>
<g id="a_node43"><a xlink:title="6th_week">
<ellipse fill="#c81d25" stroke="black" cx="1828.19" cy="-477.741" rx="28.6953" ry="18"/>
<text text-anchor="middle" x="1828.19" y="-474.041" font-family="Times,serif" font-size="14.00">8261</text>
</a>
</g>
</g>
<!-- 4662&#45;&gt;8261 -->
<g id="edge24" class="edge"><title>4662&#45;&gt;8261</title>
<path fill="none" stroke="black" d="M1848.47,-682.561C1844.32,-640.626 1834.14,-537.811 1829.99,-495.935"/>
</g>
<!-- 8519 -->
<g id="node44" class="node"><title>8519</title>
<g id="a_node44"><a xlink:title="6th_week">
<ellipse fill="#c81d25" stroke="black" cx="2047.14" cy="-653.288" rx="28.6953" ry="18"/>
<text text-anchor="middle" x="2047.14" y="-649.588" font-family="Times,serif" font-size="14.00">8519</text>
</a>
</g>
</g>
<!-- 4662&#45;&gt;8519 -->
<g id="edge54" class="edge"><title>4662&#45;&gt;8519</title>
<path fill="none" stroke="black" d="M1877.24,-694.307C1914.83,-685.231 1982.6,-668.869 2020.19,-659.794"/>
</g>
<!-- 9104 -->
<g id="node47" class="node"><title>9104</title>
<g id="a_node47"><a xlink:title="6th_week">
<ellipse fill="#c81d25" stroke="black" cx="2018.69" cy="-777.678" rx="28.6953" ry="18"/>
<text text-anchor="middle" x="2018.69" y="-773.978" font-family="Times,serif" font-size="14.00">9104</text>
</a>
</g>
</g>
<!-- 4662&#45;&gt;9104 -->
<g id="edge4" class="edge"><title>4662&#45;&gt;9104</title>
<path fill="none" stroke="black" d="M1873.7,-711.504C1905.87,-726.188 1963.4,-752.445 1995.47,-767.082"/>
</g>
<!-- 9517 -->
<g id="node49" class="node"><title>9517</title>
<g id="a_node49"><a xlink:title="6th_week">
<ellipse fill="#c81d25" stroke="black" cx="1988.08" cy="-730.055" rx="28.6953" ry="18"/>
<text text-anchor="middle" x="1988.08" y="-726.355" font-family="Times,serif" font-size="14.00">9517</text>
</a>
</g>
</g>
<!-- 4662&#45;&gt;9517 -->
<g id="edge68" class="edge"><title>4662&#45;&gt;9517</title>
<path fill="none" stroke="black" d="M1877.5,-706.593C1901.66,-711.719 1936.77,-719.168 1960.91,-724.291"/>
</g>
<!-- 10539 -->
<g id="node56" class="node"><title>10539</title>
<g id="a_node56"><a xlink:title="6th_week">
<ellipse fill="#c81d25" stroke="black" cx="1740.34" cy="-504.405" rx="32.4942" ry="18"/>
<text text-anchor="middle" x="1740.34" y="-500.705" font-family="Times,serif" font-size="14.00">10539</text>
</a>
</g>
</g>
<!-- 4662&#45;&gt;10539 -->
<g id="edge33" class="edge"><title>4662&#45;&gt;10539</title>
<path fill="none" stroke="black" d="M1840.71,-683.73C1819.98,-646.677 1771.05,-559.27 1750.12,-521.874"/>
</g>
<!-- 10991 -->
<g id="node57" class="node"><title>10991</title>
<g id="a_node57"><a xlink:title="6th_week">
<ellipse fill="#c81d25" stroke="black" cx="1677.21" cy="-618.807" rx="32.4942" ry="18"/>
<text text-anchor="middle" x="1677.21" y="-615.107" font-family="Times,serif" font-size="14.00">10991</text>
</a>
</g>
</g>
<!-- 4662&#45;&gt;10991 -->
<g id="edge2" class="edge"><title>4662&#45;&gt;10991</title>
<path fill="none" stroke="black" d="M1827.3,-689.926C1794.75,-674.502 1735.46,-646.409 1701.97,-630.538"/>
</g>
<!-- 13414 -->
<g id="node68" class="node"><title>13414</title>
<g id="a_node68"><a xlink:title="6th_week">
<ellipse fill="#c81d25" stroke="black" cx="1687.37" cy="-549.171" rx="32.4942" ry="18"/>
<text text-anchor="middle" x="1687.37" y="-545.471" font-family="Times,serif" font-size="14.00">13414</text>
</a>
</g>
</g>
<!-- 4662&#45;&gt;13414 -->
<g id="edge74" class="edge"><title>4662&#45;&gt;13414</title>
<path fill="none" stroke="black" d="M1834.06,-685.722C1803,-656.804 1735.39,-593.877 1704,-564.656"/>
</g>
<!-- 13628 -->
<g id="node71" class="node"><title>13628</title>
<g id="a_node71"><a xlink:title="6th_week">
<ellipse fill="#c81d25" stroke="black" cx="1994.21" cy="-529.167" rx="32.4942" ry="18"/>
<text text-anchor="middle" x="1994.21" y="-525.467" font-family="Times,serif" font-size="14.00">13628</text>
</a>
</g>
</g>
<!-- 4662&#45;&gt;13628 -->
<g id="edge34" class="edge"><title>4662&#45;&gt;13628</title>
<path fill="none" stroke="black" d="M1863.82,-684.668C1891.18,-652.037 1952.8,-578.557 1980.39,-545.649"/>
</g>
<!-- 13698 -->
<g id="node72" class="node"><title>13698</title>
<g id="a_node72"><a xlink:title="6th_week">
<ellipse fill="#c81d25" stroke="black" cx="1830.2" cy="-548.896" rx="32.4942" ry="18"/>
<text text-anchor="middle" x="1830.2" y="-545.196" font-family="Times,serif" font-size="14.00">13698</text>
</a>
</g>
</g>
<!-- 4662&#45;&gt;13698 -->
<g id="edge41" class="edge"><title>4662&#45;&gt;13698</title>
<path fill="none" stroke="black" d="M1847.9,-682.793C1844.03,-653.554 1836.44,-596.12 1832.58,-566.896"/>
</g>
<!-- 14327 -->
<g id="node76" class="node"><title>14327</title>
<g id="a_node76"><a xlink:title="6th_week">
<ellipse fill="#c81d25" stroke="black" cx="2062.19" cy="-698.931" rx="32.4942" ry="18"/>
<text text-anchor="middle" x="2062.19" y="-695.231" font-family="Times,serif" font-size="14.00">14327</text>
</a>
</g>
</g>
<!-- 4662&#45;&gt;14327 -->
<g id="edge42" class="edge"><title>4662&#45;&gt;14327</title>
<path fill="none" stroke="black" d="M1879.3,-700.558C1918.52,-700.209 1988.25,-699.589 2029.35,-699.223"/>
</g>
<!-- 4967 -->
<g id="node26" class="node"><title>4967</title>
<g id="a_node26"><a xlink:title="6th_week">
<ellipse fill="#c81d25" stroke="black" cx="1855.24" cy="-1432.32" rx="28.6953" ry="18"/>
<text text-anchor="middle" x="1855.24" y="-1428.62" font-family="Times,serif" font-size="14.00">4967</text>
</a>
</g>
</g>
<!-- 5175 -->
<g id="node27" class="node"><title>5175</title>
<g id="a_node27"><a xlink:title="6th_week">
<ellipse fill="#c81d25" stroke="black" cx="1700.2" cy="-1457.9" rx="28.6953" ry="18"/>
<text text-anchor="middle" x="1700.2" y="-1454.2" font-family="Times,serif" font-size="14.00">5175</text>
</a>
</g>
</g>
<!-- 4967&#45;&gt;5175 -->
<g id="edge13" class="edge"><title>4967&#45;&gt;5175</title>
<path fill="none" stroke="black" d="M1827.52,-1436.89C1799.39,-1441.53 1756.08,-1448.68 1727.94,-1453.32"/>
</g>
<!-- 5175&#45;&gt;9754 -->
<g id="edge36" class="edge"><title>5175&#45;&gt;9754</title>
<path fill="none" stroke="black" d="M1675.6,-1467.49C1638.91,-1481.81 1570.23,-1508.6 1533.59,-1522.9"/>
</g>
<!-- 12048 -->
<g id="node63" class="node"><title>12048</title>
<g id="a_node63"><a xlink:title="6th_week">
<ellipse fill="#c81d25" stroke="black" cx="1110.7" cy="-2087.65" rx="32.4942" ry="18"/>
<text text-anchor="middle" x="1110.7" y="-2083.95" font-family="Times,serif" font-size="14.00">12048</text>
</a>
</g>
</g>
<!-- 5254&#45;&gt;12048 -->
<g id="edge10" class="edge"><title>5254&#45;&gt;12048</title>
<path fill="none" stroke="black" d="M1098,-1928.02C1100.71,-1962.07 1106.56,-2035.51 1109.27,-2069.59"/>
</g>
<!-- 5298 -->
<g id="node29" class="node"><title>5298</title>
<g id="a_node29"><a xlink:title="6th_week">
<ellipse fill="#c81d25" stroke="black" cx="68.773" cy="-2222.86" rx="28.6953" ry="18"/>
<text text-anchor="middle" x="68.773" y="-2219.16" font-family="Times,serif" font-size="14.00">5298</text>
</a>
</g>
</g>
<!-- 5298&#45;&gt;13719 -->
<g id="edge75" class="edge"><title>5298&#45;&gt;13719</title>
<path fill="none" stroke="black" d="M91.426,-2234.18C119.457,-2248.19 166.995,-2271.95 195.772,-2286.34"/>
</g>
<!-- 14877 -->
<g id="node78" class="node"><title>14877</title>
<g id="a_node78"><a xlink:title="6th_week">
<ellipse fill="#c81d25" stroke="black" cx="2032.79" cy="-18.3188" rx="32.4942" ry="18"/>
<text text-anchor="middle" x="2032.79" y="-14.6188" font-family="Times,serif" font-size="14.00">14877</text>
</a>
</g>
</g>
<!-- 6407&#45;&gt;14877 -->
<g id="edge63" class="edge"><title>6407&#45;&gt;14877</title>
<path fill="none" stroke="black" d="M1980.37,-201.22C1991.26,-163.227 2016.66,-74.5919 2027.61,-36.3793"/>
</g>
<!-- 6662&#45;&gt;9754 -->
<g id="edge32" class="edge"><title>6662&#45;&gt;9754</title>
<path fill="none" stroke="black" d="M1755.78,-1797.83C1709.76,-1748.32 1569.55,-1597.48 1523.74,-1548.21"/>
</g>
<!-- 6741 -->
<g id="node34" class="node"><title>6741</title>
<g id="a_node34"><a xlink:title="6th_week">
<ellipse fill="#c81d25" stroke="black" cx="1524.3" cy="-1379.09" rx="28.6953" ry="18"/>
<text text-anchor="middle" x="1524.3" y="-1375.39" font-family="Times,serif" font-size="14.00">6741</text>
</a>
</g>
</g>
<!-- 6741&#45;&gt;9754 -->
<g id="edge25" class="edge"><title>6741&#45;&gt;9754</title>
<path fill="none" stroke="black" d="M1522.49,-1397.28C1519.57,-1426.8 1513.82,-1484.78 1510.9,-1514.28"/>
</g>
<!-- 6767 -->
<g id="node35" class="node"><title>6767</title>
<g id="a_node35"><a xlink:title="6th_week">
<ellipse fill="#c81d25" stroke="black" cx="1991.41" cy="-1610.42" rx="28.6953" ry="18"/>
<text text-anchor="middle" x="1991.41" y="-1606.72" font-family="Times,serif" font-size="14.00">6767</text>
</a>
</g>
</g>
<!-- 7768 -->
<g id="node41" class="node"><title>7768</title>
<g id="a_node41"><a xlink:title="6th_week">
<ellipse fill="#c81d25" stroke="black" cx="2217.66" cy="-1633.59" rx="28.6953" ry="18"/>
<text text-anchor="middle" x="2217.66" y="-1629.89" font-family="Times,serif" font-size="14.00">7768</text>
</a>
</g>
</g>
<!-- 6767&#45;&gt;7768 -->
<g id="edge64" class="edge"><title>6767&#45;&gt;7768</title>
<path fill="none" stroke="black" d="M2020.07,-1613.36C2063.59,-1617.81 2145.86,-1626.24 2189.24,-1630.68"/>
</g>
<!-- 14248 -->
<g id="node75" class="node"><title>14248</title>
<g id="a_node75"><a xlink:title="6th_week">
<ellipse fill="#c81d25" stroke="black" cx="1769.58" cy="-1579.58" rx="32.4942" ry="18"/>
<text text-anchor="middle" x="1769.58" y="-1575.88" font-family="Times,serif" font-size="14.00">14248</text>
</a>
</g>
</g>
<!-- 6767&#45;&gt;14248 -->
<g id="edge50" class="edge"><title>6767&#45;&gt;14248</title>
<path fill="none" stroke="black" d="M1963.32,-1606.52C1921.93,-1600.76 1844.8,-1590.04 1801.39,-1584"/>
</g>
<!-- 14154 -->
<g id="node74" class="node"><title>14154</title>
<g id="a_node74"><a xlink:title="6th_week">
<ellipse fill="#c81d25" stroke="black" cx="2312.34" cy="-2399.25" rx="32.4942" ry="18"/>
<text text-anchor="middle" x="2312.34" y="-2395.55" font-family="Times,serif" font-size="14.00">14154</text>
</a>
</g>
</g>
<!-- 6991&#45;&gt;14154 -->
<g id="edge66" class="edge"><title>6991&#45;&gt;14154</title>
<path fill="none" stroke="black" d="M2204.08,-2276.31C2227.42,-2302.81 2273.99,-2355.7 2297.72,-2382.64"/>
</g>
<!-- 12602 -->
<g id="node65" class="node"><title>12602</title>
<g id="a_node65"><a xlink:title="6th_week">
<ellipse fill="#c81d25" stroke="black" cx="2211.34" cy="-420.072" rx="32.4942" ry="18"/>
<text text-anchor="middle" x="2211.34" y="-416.372" font-family="Times,serif" font-size="14.00">12602</text>
</a>
</g>
</g>
<!-- 7423&#45;&gt;12602 -->
<g id="edge55" class="edge"><title>7423&#45;&gt;12602</title>
<path fill="none" stroke="black" d="M2081.36,-527.03C2109.44,-503.925 2164.3,-458.779 2192.94,-435.212"/>
</g>
<!-- 8552 -->
<g id="node45" class="node"><title>8552</title>
<g id="a_node45"><a xlink:title="6th_week">
<ellipse fill="#c81d25" stroke="black" cx="2387.97" cy="-1649.85" rx="28.6953" ry="18"/>
<text text-anchor="middle" x="2387.97" y="-1646.15" font-family="Times,serif" font-size="14.00">8552</text>
</a>
</g>
</g>
<!-- 7768&#45;&gt;8552 -->
<g id="edge84" class="edge"><title>7768&#45;&gt;8552</title>
<path fill="none" stroke="black" d="M2246.17,-1636.31C2277.7,-1639.32 2328.2,-1644.15 2359.65,-1647.15"/>
</g>
<!-- 12645 -->
<g id="node66" class="node"><title>12645</title>
<g id="a_node66"><a xlink:title="6th_week">
<ellipse fill="#c81d25" stroke="black" cx="1458.07" cy="-1660.66" rx="32.4942" ry="18"/>
<text text-anchor="middle" x="1458.07" y="-1656.96" font-family="Times,serif" font-size="14.00">12645</text>
</a>
</g>
</g>
<!-- 9754&#45;&gt;12645 -->
<g id="edge72" class="edge"><title>9754&#45;&gt;12645</title>
<path fill="none" stroke="black" d="M1502.11,-1550.01C1492.39,-1574.42 1474.9,-1618.38 1465.14,-1642.9"/>
</g>
<!-- 9754&#45;&gt;14248 -->
<g id="edge37" class="edge"><title>9754&#45;&gt;14248</title>
<path fill="none" stroke="black" d="M1536.97,-1537.5C1585.93,-1546.35 1687.01,-1564.64 1738.28,-1573.92"/>
</g>
<!-- 15499 -->
<g id="node80" class="node"><title>15499</title>
<g id="a_node80"><a xlink:title="6th_week">
<ellipse fill="#c81d25" stroke="black" cx="1623.87" cy="-1648.73" rx="32.4942" ry="18"/>
<text text-anchor="middle" x="1623.87" y="-1645.03" font-family="Times,serif" font-size="14.00">15499</text>
</a>
</g>
</g>
<!-- 9754&#45;&gt;15499 -->
<g id="edge69" class="edge"><title>9754&#45;&gt;15499</title>
<path fill="none" stroke="black" d="M1524.58,-1548.13C1546.48,-1570.33 1586.3,-1610.66 1608.27,-1632.92"/>
</g>
<!-- 10208 -->
<g id="node52" class="node"><title>10208</title>
<g id="a_node52"><a xlink:title="6th_week">
<ellipse fill="#c81d25" stroke="black" cx="32.3297" cy="-2278.11" rx="32.4942" ry="18"/>
<text text-anchor="middle" x="32.3297" y="-2274.41" font-family="Times,serif" font-size="14.00">10208</text>
</a>
</g>
</g>
<!-- 10208&#45;&gt;13719 -->
<g id="edge58" class="edge"><title>10208&#45;&gt;13719</title>
<path fill="none" stroke="black" d="M64.606,-2281.61C99.1009,-2285.36 153.463,-2291.26 187.916,-2295"/>
</g>
<!-- 10247 -->
<g id="node53" class="node"><title>10247</title>
<g id="a_node53"><a xlink:title="6th_week">
<ellipse fill="#c81d25" stroke="black" cx="155.389" cy="-2483.25" rx="32.4942" ry="18"/>
<text text-anchor="middle" x="155.389" y="-2479.55" font-family="Times,serif" font-size="14.00">10247</text>
</a>
</g>
</g>
<!-- 10247&#45;&gt;13719 -->
<g id="edge19" class="edge"><title>10247&#45;&gt;13719</title>
<path fill="none" stroke="black" d="M161.593,-2465.54C173.927,-2430.31 201.409,-2351.83 213.806,-2316.42"/>
</g>
<!-- 10499 -->
<g id="node55" class="node"><title>10499</title>
<g id="a_node55"><a xlink:title="6th_week">
<ellipse fill="#c81d25" stroke="black" cx="57.1069" cy="-2447.16" rx="32.4942" ry="18"/>
<text text-anchor="middle" x="57.1069" y="-2443.46" font-family="Times,serif" font-size="14.00">10499</text>
</a>
</g>
</g>
<!-- 10499&#45;&gt;13719 -->
<g id="edge79" class="edge"><title>10499&#45;&gt;13719</title>
<path fill="none" stroke="black" d="M74.2404,-2431.53C105.623,-2402.91 171.97,-2342.38 203.181,-2313.91"/>
</g>
<!-- 11536 -->
<g id="node61" class="node"><title>11536</title>
<g id="a_node61"><a xlink:title="6th_week">
<ellipse fill="#c81d25" stroke="black" cx="155.833" cy="-2434.96" rx="32.4942" ry="18"/>
<text text-anchor="middle" x="155.833" y="-2431.26" font-family="Times,serif" font-size="14.00">11536</text>
</a>
</g>
</g>
<!-- 11536&#45;&gt;13719 -->
<g id="edge20" class="edge"><title>11536&#45;&gt;13719</title>
<path fill="none" stroke="black" d="M164.101,-2417.4C176.439,-2391.19 199.53,-2342.15 211.849,-2315.99"/>
</g>
<!-- 11596 -->
<g id="node62" class="node"><title>11596</title>
<g id="a_node62"><a xlink:title="6th_week">
<ellipse fill="#c81d25" stroke="black" cx="41.9563" cy="-2385.93" rx="32.4942" ry="18"/>
<text text-anchor="middle" x="41.9563" y="-2382.23" font-family="Times,serif" font-size="14.00">11596</text>
</a>
</g>
</g>
<!-- 11596&#45;&gt;13719 -->
<g id="edge29" class="edge"><title>11596&#45;&gt;13719</title>
<path fill="none" stroke="black" d="M66.3509,-2373.96C100.367,-2357.26 161.689,-2327.16 195.7,-2310.46"/>
</g>
<!-- 12263 -->
<g id="node64" class="node"><title>12263</title>
<g id="a_node64"><a xlink:title="6th_week">
<ellipse fill="#c81d25" stroke="black" cx="598.124" cy="-1671.67" rx="32.4942" ry="18"/>
<text text-anchor="middle" x="598.124" y="-1667.97" font-family="Times,serif" font-size="14.00">12263</text>
</a>
</g>
</g>
<!-- 12263&#45;&gt;14986 -->
<g id="edge73" class="edge"><title>12263&#45;&gt;14986</title>
<path fill="none" stroke="black" d="M630.953,-1672.64C664.955,-1673.65 717.763,-1675.22 751.643,-1676.22"/>
</g>
<!-- 13474 -->
<g id="node69" class="node"><title>13474</title>
<g id="a_node69"><a xlink:title="6th_week">
<ellipse fill="#c81d25" stroke="black" cx="49.9103" cy="-2334.15" rx="32.4942" ry="18"/>
<text text-anchor="middle" x="49.9103" y="-2330.45" font-family="Times,serif" font-size="14.00">13474</text>
</a>
</g>
</g>
<!-- 13474&#45;&gt;13719 -->
<g id="edge30" class="edge"><title>13474&#45;&gt;13719</title>
<path fill="none" stroke="black" d="M80.3341,-2327.77C111.214,-2321.3 158.751,-2311.34 189.638,-2304.87"/>
</g>
<!-- 14551 -->
<g id="node77" class="node"><title>14551</title>
<g id="a_node77"><a xlink:title="6th_week">
<ellipse fill="#c81d25" stroke="black" cx="614.128" cy="-1740.93" rx="32.4942" ry="18"/>
<text text-anchor="middle" x="614.128" y="-1737.23" font-family="Times,serif" font-size="14.00">14551</text>
</a>
</g>
</g>
<!-- 14551&#45;&gt;14986 -->
<g id="edge62" class="edge"><title>14551&#45;&gt;14986</title>
<path fill="none" stroke="black" d="M641.068,-1730.83C672.809,-1718.93 725.241,-1699.27 757.049,-1687.35"/>
</g>
<!-- 15962 -->
<g id="node83" class="node"><title>15962</title>
<g id="a_node83"><a xlink:title="6th_week">
<ellipse fill="#c81d25" stroke="black" cx="614.825" cy="-1604.63" rx="32.4942" ry="18"/>
<text text-anchor="middle" x="614.825" y="-1600.93" font-family="Times,serif" font-size="14.00">15962</text>
</a>
</g>
</g>
<!-- 14986&#45;&gt;15962 -->
<g id="edge21" class="edge"><title>14986&#45;&gt;15962</title>
<path fill="none" stroke="black" d="M758.428,-1666.17C726.603,-1652.53 672.718,-1629.44 640.783,-1615.75"/>
</g>
<!-- 16335 -->
<g id="node85" class="node"><title>16335</title>
<g id="a_node85"><a xlink:title="6th_week">
<ellipse fill="#c81d25" stroke="black" cx="2102.85" cy="-1102.78" rx="32.4942" ry="18"/>
<text text-anchor="middle" x="2102.85" y="-1099.08" font-family="Times,serif" font-size="14.00">16335</text>
</a>
</g>
</g>
<!-- 15578&#45;&gt;16335 -->
<g id="edge38" class="edge"><title>15578&#45;&gt;16335</title>
<path fill="none" stroke="black" d="M1936.74,-1108.36C1973.71,-1107.12 2033.41,-1105.11 2070.27,-1103.88"/>
</g>
</g>
</svg>
