<?xml version="1.0" encoding="UTF-8" standalone="no"?>
<!DOCTYPE svg PUBLIC "-//W3C//DTD SVG 1.1//EN"
 "http://www.w3.org/Graphics/SVG/1.1/DTD/svg11.dtd">
<!-- Generated by graphviz version 2.38.0 (20140413.2041)
 -->
<!-- Title: %3 Pages: 1 -->
<svg width="1576pt" height="1933pt"
 viewBox="0.00 0.00 1576.00 1933.00" xmlns="http://www.w3.org/2000/svg" xmlns:xlink="http://www.w3.org/1999/xlink">
<g id="graph0" class="graph" transform="scale(1 1) rotate(0) translate(4 1929)">
<title>%3</title>
<polygon fill="white" stroke="none" points="-4,4 -4,-1929 1572,-1929 1572,4 -4,4"/>
<!-- 1529 -->
<g id="node1" class="node"><title>1529</title>
<g id="a_node1"><a xlink:title="Day_0">
<ellipse fill="#e5dada" stroke="black" cx="762.593" cy="-840.626" rx="28.6953" ry="18"/>
<text text-anchor="middle" x="762.593" y="-836.926" font-family="Times,serif" font-size="14.00">1529</text>
</a>
</g>
</g>
<!-- 15427 -->
<g id="node4" class="node"><title>15427</title>
<g id="a_node4"><a xlink:title="Day_0">
<ellipse fill="#e5dada" stroke="black" cx="640.553" cy="-766.785" rx="32.4942" ry="18"/>
<text text-anchor="middle" x="640.553" y="-763.085" font-family="Times,serif" font-size="14.00">15427</text>
</a>
</g>
</g>
<!-- 1529&#45;&gt;15427 -->
<g id="edge24" class="edge"><title>1529&#45;&gt;15427</title>
<path fill="none" stroke="black" d="M741.891,-828.1C719.857,-814.768 685.129,-793.755 662.596,-780.122"/>
</g>
<!-- 28127 -->
<g id="node10" class="node"><title>28127</title>
<g id="a_node10"><a xlink:title="6th_week">
<ellipse fill="#c81d25" stroke="black" cx="878.247" cy="-995.364" rx="32.4942" ry="18"/>
<text text-anchor="middle" x="878.247" y="-991.664" font-family="Times,serif" font-size="14.00">28127</text>
</a>
</g>
</g>
<!-- 1529&#45;&gt;28127 -->
<g id="edge22" class="edge"><title>1529&#45;&gt;28127</title>
<path fill="none" stroke="black" d="M774.97,-857.185C797.114,-886.812 843.277,-948.576 865.609,-978.454"/>
</g>
<!-- 34114 -->
<g id="node14" class="node"><title>34114</title>
<g id="a_node14"><a xlink:title="Day_0">
<ellipse fill="#e5dada" stroke="black" cx="702.271" cy="-717.6" rx="32.4942" ry="18"/>
<text text-anchor="middle" x="702.271" y="-713.9" font-family="Times,serif" font-size="14.00">34114</text>
</a>
</g>
</g>
<!-- 1529&#45;&gt;34114 -->
<g id="edge36" class="edge"><title>1529&#45;&gt;34114</title>
<path fill="none" stroke="black" d="M754.079,-823.26C742.647,-799.945 722.446,-758.748 710.937,-735.276"/>
</g>
<!-- 11636 -->
<g id="node2" class="node"><title>11636</title>
<g id="a_node2"><a xlink:title="Day_0">
<ellipse fill="#e5dada" stroke="black" cx="939.368" cy="-240.722" rx="32.4942" ry="18"/>
<text text-anchor="middle" x="939.368" y="-237.022" font-family="Times,serif" font-size="14.00">11636</text>
</a>
</g>
</g>
<!-- 31010 -->
<g id="node12" class="node"><title>31010</title>
<g id="a_node12"><a xlink:title="Day_0">
<ellipse fill="#e5dada" stroke="black" cx="841.011" cy="-395.658" rx="32.4942" ry="18"/>
<text text-anchor="middle" x="841.011" y="-391.958" font-family="Times,serif" font-size="14.00">31010</text>
</a>
</g>
</g>
<!-- 11636&#45;&gt;31010 -->
<g id="edge15" class="edge"><title>11636&#45;&gt;31010</title>
<path fill="none" stroke="black" d="M928.467,-257.895C909.56,-287.677 870.902,-348.573 851.962,-378.408"/>
</g>
<!-- 13451 -->
<g id="node3" class="node"><title>13451</title>
<g id="a_node3"><a xlink:title="6th_week">
<ellipse fill="#c81d25" stroke="black" cx="967.94" cy="-295.528" rx="32.4942" ry="18"/>
<text text-anchor="middle" x="967.94" y="-291.828" font-family="Times,serif" font-size="14.00">13451</text>
</a>
</g>
</g>
<!-- 13451&#45;&gt;31010 -->
<g id="edge39" class="edge"><title>13451&#45;&gt;31010</title>
<path fill="none" stroke="black" d="M949.211,-310.303C925.213,-329.234 883.852,-361.863 859.817,-380.823"/>
</g>
<!-- 15571 -->
<g id="node5" class="node"><title>15571</title>
<g id="a_node5"><a xlink:title="Day_0">
<ellipse fill="#e5dada" stroke="black" cx="861.708" cy="-175.231" rx="32.4942" ry="18"/>
<text text-anchor="middle" x="861.708" y="-171.531" font-family="Times,serif" font-size="14.00">15571</text>
</a>
</g>
</g>
<!-- 15571&#45;&gt;31010 -->
<g id="edge9" class="edge"><title>15571&#45;&gt;31010</title>
<path fill="none" stroke="black" d="M860.014,-193.269C856.123,-234.706 846.584,-336.301 842.699,-377.68"/>
</g>
<!-- 18328 -->
<g id="node22" class="node"><title>18328</title>
<g id="a_node22"><a xlink:title="Day_0">
<ellipse fill="#e5dada" stroke="black" cx="880.811" cy="-17.6742" rx="32.4942" ry="18"/>
<text text-anchor="middle" x="880.811" y="-13.9742" font-family="Times,serif" font-size="14.00">18328</text>
</a>
</g>
</g>
<!-- 15571&#45;&gt;18328 -->
<g id="edge53" class="edge"><title>15571&#45;&gt;18328</title>
<path fill="none" stroke="black" d="M863.899,-157.157C867.565,-126.927 874.899,-66.435 878.586,-36.0225"/>
</g>
<!-- 19174 -->
<g id="node6" class="node"><title>19174</title>
<g id="a_node6"><a xlink:title="Day_0">
<ellipse fill="#e5dada" stroke="black" cx="691.411" cy="-225.85" rx="32.4942" ry="18"/>
<text text-anchor="middle" x="691.411" y="-222.15" font-family="Times,serif" font-size="14.00">19174</text>
</a>
</g>
</g>
<!-- 19174&#45;&gt;31010 -->
<g id="edge48" class="edge"><title>19174&#45;&gt;31010</title>
<path fill="none" stroke="black" d="M705.755,-242.132C734.35,-274.589 798.151,-347.009 826.71,-379.426"/>
</g>
<!-- 27447 -->
<g id="node24" class="node"><title>27447</title>
<g id="a_node24"><a xlink:title="Day_0">
<ellipse fill="#e5dada" stroke="black" cx="600.149" cy="-97.7029" rx="32.4942" ry="18"/>
<text text-anchor="middle" x="600.149" y="-94.0029" font-family="Times,serif" font-size="14.00">27447</text>
</a>
</g>
</g>
<!-- 19174&#45;&gt;27447 -->
<g id="edge40" class="edge"><title>19174&#45;&gt;27447</title>
<path fill="none" stroke="black" d="M679.48,-209.097C661.99,-184.538 629.575,-139.022 612.083,-114.46"/>
</g>
<!-- 20015 -->
<g id="node7" class="node"><title>20015</title>
<g id="a_node7"><a xlink:title="Day_0">
<ellipse fill="#e5dada" stroke="black" cx="726.009" cy="-282.122" rx="32.4942" ry="18"/>
<text text-anchor="middle" x="726.009" y="-278.422" font-family="Times,serif" font-size="14.00">20015</text>
</a>
</g>
</g>
<!-- 20015&#45;&gt;31010 -->
<g id="edge56" class="edge"><title>20015&#45;&gt;31010</title>
<path fill="none" stroke="black" d="M742,-297.909C763.848,-319.478 802.816,-357.95 824.786,-379.639"/>
</g>
<!-- 21584 -->
<g id="node8" class="node"><title>21584</title>
<g id="a_node8"><a xlink:title="Day_0">
<ellipse fill="#e5dada" stroke="black" cx="855.109" cy="-233.572" rx="32.4942" ry="18"/>
<text text-anchor="middle" x="855.109" y="-229.872" font-family="Times,serif" font-size="14.00">21584</text>
</a>
</g>
</g>
<!-- 21584&#45;&gt;31010 -->
<g id="edge8" class="edge"><title>21584&#45;&gt;31010</title>
<path fill="none" stroke="black" d="M853.52,-251.85C850.812,-282.98 845.335,-345.944 842.617,-377.198"/>
</g>
<!-- 23260 -->
<g id="node9" class="node"><title>23260</title>
<g id="a_node9"><a xlink:title="Day_0">
<ellipse fill="#e5dada" stroke="black" cx="895.646" cy="-673.303" rx="32.4942" ry="18"/>
<text text-anchor="middle" x="895.646" y="-669.603" font-family="Times,serif" font-size="14.00">23260</text>
</a>
</g>
</g>
<!-- 23260&#45;&gt;28127 -->
<g id="edge52" class="edge"><title>23260&#45;&gt;28127</title>
<path fill="none" stroke="black" d="M894.66,-691.541C891.598,-748.228 882.269,-920.914 879.222,-977.326"/>
</g>
<!-- 30317 -->
<g id="node11" class="node"><title>30317</title>
<g id="a_node11"><a xlink:title="Day_0">
<ellipse fill="#e5dada" stroke="black" cx="929.994" cy="-548.971" rx="32.4942" ry="18"/>
<text text-anchor="middle" x="929.994" y="-545.271" font-family="Times,serif" font-size="14.00">30317</text>
</a>
</g>
</g>
<!-- 23260&#45;&gt;30317 -->
<g id="edge2" class="edge"><title>23260&#45;&gt;30317</title>
<path fill="none" stroke="black" d="M900.567,-655.49C907.059,-631.988 918.427,-590.841 924.97,-567.156"/>
</g>
<!-- 23260&#45;&gt;31010 -->
<g id="edge46" class="edge"><title>23260&#45;&gt;31010</title>
<path fill="none" stroke="black" d="M892.061,-655.086C882.138,-604.658 854.392,-463.656 844.538,-413.581"/>
</g>
<!-- 25882 -->
<g id="node47" class="node"><title>25882</title>
<g id="a_node47"><a xlink:title="6th_week">
<ellipse fill="#c81d25" stroke="black" cx="1052.58" cy="-562.385" rx="32.4942" ry="18"/>
<text text-anchor="middle" x="1052.58" y="-558.685" font-family="Times,serif" font-size="14.00">25882</text>
</a>
</g>
</g>
<!-- 23260&#45;&gt;25882 -->
<g id="edge35" class="edge"><title>23260&#45;&gt;25882</title>
<path fill="none" stroke="black" d="M915.841,-659.03C945.975,-637.732 1002.38,-597.87 1032.46,-576.604"/>
</g>
<!-- 10004 -->
<g id="node21" class="node"><title>10004</title>
<g id="a_node21"><a xlink:title="6th_week">
<ellipse fill="#c81d25" stroke="black" cx="686.519" cy="-1279.67" rx="32.4942" ry="18"/>
<text text-anchor="middle" x="686.519" y="-1275.97" font-family="Times,serif" font-size="14.00">10004</text>
</a>
</g>
</g>
<!-- 28127&#45;&gt;10004 -->
<g id="edge32" class="edge"><title>28127&#45;&gt;10004</title>
<path fill="none" stroke="black" d="M866.828,-1012.3C832.808,-1062.75 732.377,-1211.67 698.121,-1262.47"/>
</g>
<!-- 2622 -->
<g id="node30" class="node"><title>2622</title>
<g id="a_node30"><a xlink:title="6th_week">
<ellipse fill="#c81d25" stroke="black" cx="988.588" cy="-929.544" rx="28.6953" ry="18"/>
<text text-anchor="middle" x="988.588" y="-925.844" font-family="Times,serif" font-size="14.00">2622</text>
</a>
</g>
</g>
<!-- 28127&#45;&gt;2622 -->
<g id="edge44" class="edge"><title>28127&#45;&gt;2622</title>
<path fill="none" stroke="black" d="M900.576,-982.044C920.224,-970.324 948.608,-953.393 967.785,-941.953"/>
</g>
<!-- 5427 -->
<g id="node31" class="node"><title>5427</title>
<g id="a_node31"><a xlink:title="Day_0">
<ellipse fill="#e5dada" stroke="black" cx="715.306" cy="-936.409" rx="28.6953" ry="18"/>
<text text-anchor="middle" x="715.306" y="-932.709" font-family="Times,serif" font-size="14.00">5427</text>
</a>
</g>
</g>
<!-- 28127&#45;&gt;5427 -->
<g id="edge19" class="edge"><title>28127&#45;&gt;5427</title>
<path fill="none" stroke="black" d="M850.974,-985.496C820.081,-974.319 770.159,-956.256 740.259,-945.438"/>
</g>
<!-- 22099 -->
<g id="node43" class="node"><title>22099</title>
<g id="a_node43"><a xlink:title="6th_week">
<ellipse fill="#c81d25" stroke="black" cx="1160.01" cy="-994.676" rx="32.4942" ry="18"/>
<text text-anchor="middle" x="1160.01" y="-990.976" font-family="Times,serif" font-size="14.00">22099</text>
</a>
</g>
</g>
<!-- 28127&#45;&gt;22099 -->
<g id="edge41" class="edge"><title>28127&#45;&gt;22099</title>
<path fill="none" stroke="black" d="M910.844,-995.285C965.022,-995.152 1073,-994.888 1127.27,-994.756"/>
</g>
<!-- 25214 -->
<g id="node23" class="node"><title>25214</title>
<g id="a_node23"><a xlink:title="Day_0">
<ellipse fill="#e5dada" stroke="black" cx="679.076" cy="-343.227" rx="32.4942" ry="18"/>
<text text-anchor="middle" x="679.076" y="-339.527" font-family="Times,serif" font-size="14.00">25214</text>
</a>
</g>
</g>
<!-- 31010&#45;&gt;25214 -->
<g id="edge20" class="edge"><title>31010&#45;&gt;25214</title>
<path fill="none" stroke="black" d="M812.804,-386.525C783.173,-376.931 736.843,-361.931 707.231,-352.343"/>
</g>
<!-- 18911 -->
<g id="node29" class="node"><title>18911</title>
<g id="a_node29"><a xlink:title="Day_0">
<ellipse fill="#e5dada" stroke="black" cx="777.385" cy="-224.75" rx="32.4942" ry="18"/>
<text text-anchor="middle" x="777.385" y="-221.05" font-family="Times,serif" font-size="14.00">18911</text>
</a>
</g>
</g>
<!-- 31010&#45;&gt;18911 -->
<g id="edge57" class="edge"><title>31010&#45;&gt;18911</title>
<path fill="none" stroke="black" d="M834.442,-378.012C822.249,-345.262 796.251,-275.427 784.014,-242.557"/>
</g>
<!-- 31069 -->
<g id="node13" class="node"><title>31069</title>
<g id="a_node13"><a xlink:title="Day_0">
<ellipse fill="#e5dada" stroke="black" cx="576.286" cy="-1363.78" rx="32.4942" ry="18"/>
<text text-anchor="middle" x="576.286" y="-1360.08" font-family="Times,serif" font-size="14.00">31069</text>
</a>
</g>
</g>
<!-- 31069&#45;&gt;10004 -->
<g id="edge50" class="edge"><title>31069&#45;&gt;10004</title>
<path fill="none" stroke="black" d="M595.487,-1349.13C615.596,-1333.79 647.003,-1309.82 667.168,-1294.44"/>
</g>
<!-- 3126 -->
<g id="node15" class="node"><title>3126</title>
<g id="a_node15"><a xlink:title="6th_week">
<ellipse fill="#c81d25" stroke="black" cx="932.335" cy="-1609.35" rx="28.6953" ry="18"/>
<text text-anchor="middle" x="932.335" y="-1605.65" font-family="Times,serif" font-size="14.00">3126</text>
</a>
</g>
</g>
<!-- 8426 -->
<g id="node20" class="node"><title>8426</title>
<g id="a_node20"><a xlink:title="6th_week">
<ellipse fill="#c81d25" stroke="black" cx="816.375" cy="-1537.07" rx="28.6953" ry="18"/>
<text text-anchor="middle" x="816.375" y="-1533.37" font-family="Times,serif" font-size="14.00">8426</text>
</a>
</g>
</g>
<!-- 3126&#45;&gt;8426 -->
<g id="edge13" class="edge"><title>3126&#45;&gt;8426</title>
<path fill="none" stroke="black" d="M911.87,-1596.6C890.804,-1583.47 858.159,-1563.12 837.025,-1549.94"/>
</g>
<!-- 6320 -->
<g id="node16" class="node"><title>6320</title>
<g id="a_node16"><a xlink:title="6th_week">
<ellipse fill="#c81d25" stroke="black" cx="805.679" cy="-1373.41" rx="28.6953" ry="18"/>
<text text-anchor="middle" x="805.679" y="-1369.71" font-family="Times,serif" font-size="14.00">6320</text>
</a>
</g>
</g>
<!-- 6320&#45;&gt;10004 -->
<g id="edge3" class="edge"><title>6320&#45;&gt;10004</title>
<path fill="none" stroke="black" d="M787.581,-1359.17C765.445,-1341.76 728.142,-1312.42 705.577,-1294.67"/>
</g>
<!-- 7674 -->
<g id="node17" class="node"><title>7674</title>
<g id="a_node17"><a xlink:title="6th_week">
<ellipse fill="#c81d25" stroke="black" cx="940.228" cy="-1692.99" rx="28.6953" ry="18"/>
<text text-anchor="middle" x="940.228" y="-1689.29" font-family="Times,serif" font-size="14.00">7674</text>
</a>
</g>
</g>
<!-- 8104 -->
<g id="node19" class="node"><title>8104</title>
<g id="a_node19"><a xlink:title="6th_week">
<ellipse fill="#c81d25" stroke="black" cx="1077.85" cy="-1806.51" rx="28.6953" ry="18"/>
<text text-anchor="middle" x="1077.85" y="-1802.81" font-family="Times,serif" font-size="14.00">8104</text>
</a>
</g>
</g>
<!-- 7674&#45;&gt;8104 -->
<g id="edge43" class="edge"><title>7674&#45;&gt;8104</title>
<path fill="none" stroke="black" d="M957.657,-1707.36C983.984,-1729.08 1033.62,-1770.03 1060.12,-1791.89"/>
</g>
<!-- 7674&#45;&gt;8426 -->
<g id="edge33" class="edge"><title>7674&#45;&gt;8426</title>
<path fill="none" stroke="black" d="M927.207,-1676.6C903.358,-1646.57 852.94,-1583.1 829.221,-1553.24"/>
</g>
<!-- 8583 -->
<g id="node59" class="node"><title>8583</title>
<g id="a_node59"><a xlink:title="6th_week">
<ellipse fill="#c81d25" stroke="black" cx="1016.85" cy="-1855.79" rx="28.6953" ry="18"/>
<text text-anchor="middle" x="1016.85" y="-1852.09" font-family="Times,serif" font-size="14.00">8583</text>
</a>
</g>
</g>
<!-- 7674&#45;&gt;8583 -->
<g id="edge42" class="edge"><title>7674&#45;&gt;8583</title>
<path fill="none" stroke="black" d="M948.427,-1710.41C963.174,-1741.75 994.002,-1807.25 1008.71,-1838.49"/>
</g>
<!-- 7779 -->
<g id="node18" class="node"><title>7779</title>
<g id="a_node18"><a xlink:title="6th_week">
<ellipse fill="#c81d25" stroke="black" cx="627.971" cy="-1174.31" rx="28.6953" ry="18"/>
<text text-anchor="middle" x="627.971" y="-1170.61" font-family="Times,serif" font-size="14.00">7779</text>
</a>
</g>
</g>
<!-- 7779&#45;&gt;10004 -->
<g id="edge29" class="edge"><title>7779&#45;&gt;10004</title>
<path fill="none" stroke="black" d="M637.639,-1191.71C648.487,-1211.23 665.983,-1242.72 676.837,-1262.25"/>
</g>
<!-- 8426&#45;&gt;10004 -->
<g id="edge5" class="edge"><title>8426&#45;&gt;10004</title>
<path fill="none" stroke="black" d="M807.653,-1519.78C784.054,-1473 719.128,-1344.31 695.374,-1297.23"/>
</g>
<!-- 33527 -->
<g id="node28" class="node"><title>33527</title>
<g id="a_node28"><a xlink:title="Day_0">
<ellipse fill="#e5dada" stroke="black" cx="819.973" cy="-1734.43" rx="32.4942" ry="18"/>
<text text-anchor="middle" x="819.973" y="-1730.73" font-family="Times,serif" font-size="14.00">33527</text>
</a>
</g>
</g>
<!-- 8426&#45;&gt;33527 -->
<g id="edge38" class="edge"><title>8426&#45;&gt;33527</title>
<path fill="none" stroke="black" d="M816.707,-1555.28C817.393,-1592.88 818.957,-1678.7 819.641,-1716.26"/>
</g>
<!-- 31128 -->
<g id="node25" class="node"><title>31128</title>
<g id="a_node25"><a xlink:title="6th_week">
<ellipse fill="#c81d25" stroke="black" cx="557.051" cy="-1241.89" rx="32.4942" ry="18"/>
<text text-anchor="middle" x="557.051" y="-1238.19" font-family="Times,serif" font-size="14.00">31128</text>
</a>
</g>
</g>
<!-- 10004&#45;&gt;31128 -->
<g id="edge16" class="edge"><title>10004&#45;&gt;31128</title>
<path fill="none" stroke="black" d="M657.464,-1271.19C636.141,-1264.97 607.308,-1256.56 586.009,-1250.34"/>
</g>
<!-- 16854 -->
<g id="node38" class="node"><title>16854</title>
<g id="a_node38"><a xlink:title="6th_week">
<ellipse fill="#c81d25" stroke="black" cx="834.119" cy="-1286.04" rx="32.4942" ry="18"/>
<text text-anchor="middle" x="834.119" y="-1282.34" font-family="Times,serif" font-size="14.00">16854</text>
</a>
</g>
</g>
<!-- 10004&#45;&gt;16854 -->
<g id="edge31" class="edge"><title>10004&#45;&gt;16854</title>
<path fill="none" stroke="black" d="M719.276,-1281.09C743.821,-1282.15 777.247,-1283.59 801.708,-1284.65"/>
</g>
<!-- 18262 -->
<g id="node40" class="node"><title>18262</title>
<g id="a_node40"><a xlink:title="6th_week">
<ellipse fill="#c81d25" stroke="black" cx="409.846" cy="-1333.2" rx="32.4942" ry="18"/>
<text text-anchor="middle" x="409.846" y="-1329.5" font-family="Times,serif" font-size="14.00">18262</text>
</a>
</g>
</g>
<!-- 10004&#45;&gt;18262 -->
<g id="edge37" class="edge"><title>10004&#45;&gt;18262</title>
<path fill="none" stroke="black" d="M655.586,-1285.66C602.285,-1295.97 493.743,-1316.97 440.58,-1327.26"/>
</g>
<!-- 29836 -->
<g id="node51" class="node"><title>29836</title>
<g id="a_node51"><a xlink:title="Day_0">
<ellipse fill="#e5dada" stroke="black" cx="572.129" cy="-1495.09" rx="32.4942" ry="18"/>
<text text-anchor="middle" x="572.129" y="-1491.39" font-family="Times,serif" font-size="14.00">29836</text>
</a>
</g>
</g>
<!-- 10004&#45;&gt;29836 -->
<g id="edge49" class="edge"><title>10004&#45;&gt;29836</title>
<path fill="none" stroke="black" d="M677.158,-1297.3C655.601,-1337.9 602.67,-1437.58 581.3,-1477.82"/>
</g>
<!-- 31929 -->
<g id="node55" class="node"><title>31929</title>
<g id="a_node55"><a xlink:title="Day_0">
<ellipse fill="#e5dada" stroke="black" cx="703.212" cy="-1463.8" rx="32.4942" ry="18"/>
<text text-anchor="middle" x="703.212" y="-1460.1" font-family="Times,serif" font-size="14.00">31929</text>
</a>
</g>
</g>
<!-- 10004&#45;&gt;31929 -->
<g id="edge18" class="edge"><title>10004&#45;&gt;31929</title>
<path fill="none" stroke="black" d="M688.15,-1297.66C691.341,-1332.86 698.378,-1410.48 701.575,-1445.74"/>
</g>
<!-- 14206 -->
<g id="node26" class="node"><title>14206</title>
<g id="a_node26"><a xlink:title="Day_0">
<ellipse fill="#e5dada" stroke="black" cx="877.765" cy="-1904.38" rx="32.4942" ry="18"/>
<text text-anchor="middle" x="877.765" y="-1900.68" font-family="Times,serif" font-size="14.00">14206</text>
</a>
</g>
</g>
<!-- 14206&#45;&gt;33527 -->
<g id="edge12" class="edge"><title>14206&#45;&gt;33527</title>
<path fill="none" stroke="black" d="M871.689,-1886.51C860.59,-1853.87 837.157,-1784.96 826.053,-1752.31"/>
</g>
<!-- 29138 -->
<g id="node27" class="node"><title>29138</title>
<g id="a_node27"><a xlink:title="Day_0">
<ellipse fill="#e5dada" stroke="black" cx="772.5" cy="-1906.7" rx="32.4942" ry="18"/>
<text text-anchor="middle" x="772.5" y="-1903" font-family="Times,serif" font-size="14.00">29138</text>
</a>
</g>
</g>
<!-- 29138&#45;&gt;33527 -->
<g id="edge1" class="edge"><title>29138&#45;&gt;33527</title>
<path fill="none" stroke="black" d="M777.491,-1888.59C786.632,-1855.42 805.957,-1785.29 815.049,-1752.3"/>
</g>
<!-- 16062 -->
<g id="node60" class="node"><title>16062</title>
<g id="a_node60"><a xlink:title="Day_0">
<ellipse fill="#e5dada" stroke="black" cx="584.479" cy="-886.723" rx="32.4942" ry="18"/>
<text text-anchor="middle" x="584.479" y="-883.023" font-family="Times,serif" font-size="14.00">16062</text>
</a>
</g>
</g>
<!-- 5427&#45;&gt;16062 -->
<g id="edge60" class="edge"><title>5427&#45;&gt;16062</title>
<path fill="none" stroke="black" d="M690.698,-927.064C668.197,-918.518 634.969,-905.898 611.685,-897.056"/>
</g>
<!-- 8947 -->
<g id="node32" class="node"><title>8947</title>
<g id="a_node32"><a xlink:title="6th_week">
<ellipse fill="#c81d25" stroke="black" cx="316.559" cy="-1471.2" rx="28.6953" ry="18"/>
<text text-anchor="middle" x="316.559" y="-1467.5" font-family="Times,serif" font-size="14.00">8947</text>
</a>
</g>
</g>
<!-- 8947&#45;&gt;18262 -->
<g id="edge45" class="edge"><title>8947&#45;&gt;18262</title>
<path fill="none" stroke="black" d="M327.811,-1454.56C345.645,-1428.18 380.222,-1377.03 398.261,-1350.34"/>
</g>
<!-- 9025 -->
<g id="node33" class="node"><title>9025</title>
<g id="a_node33"><a xlink:title="6th_week">
<ellipse fill="#c81d25" stroke="black" cx="248.109" cy="-1426.44" rx="28.6953" ry="18"/>
<text text-anchor="middle" x="248.109" y="-1422.74" font-family="Times,serif" font-size="14.00">9025</text>
</a>
</g>
</g>
<!-- 9025&#45;&gt;18262 -->
<g id="edge34" class="edge"><title>9025&#45;&gt;18262</title>
<path fill="none" stroke="black" d="M269.253,-1414.25C299.736,-1396.68 355.8,-1364.36 387.134,-1346.3"/>
</g>
<!-- 10470 -->
<g id="node34" class="node"><title>10470</title>
<g id="a_node34"><a xlink:title="6th_week">
<ellipse fill="#c81d25" stroke="black" cx="1240.25" cy="-853.69" rx="32.4942" ry="18"/>
<text text-anchor="middle" x="1240.25" y="-849.99" font-family="Times,serif" font-size="14.00">10470</text>
</a>
</g>
</g>
<!-- 10470&#45;&gt;22099 -->
<g id="edge25" class="edge"><title>10470&#45;&gt;22099</title>
<path fill="none" stroke="black" d="M1230.41,-870.978C1215.01,-898.037 1185.38,-950.101 1169.93,-977.247"/>
</g>
<!-- 12722 -->
<g id="node35" class="node"><title>12722</title>
<g id="a_node35"><a xlink:title="6th_week">
<ellipse fill="#c81d25" stroke="black" cx="1376.89" cy="-1023.07" rx="32.4942" ry="18"/>
<text text-anchor="middle" x="1376.89" y="-1019.37" font-family="Times,serif" font-size="14.00">12722</text>
</a>
</g>
</g>
<!-- 12722&#45;&gt;22099 -->
<g id="edge47" class="edge"><title>12722&#45;&gt;22099</title>
<path fill="none" stroke="black" d="M1344.89,-1018.88C1303.77,-1013.5 1232.8,-1004.21 1191.79,-998.837"/>
</g>
<!-- 28276 -->
<g id="node50" class="node"><title>28276</title>
<g id="a_node50"><a xlink:title="6th_week">
<ellipse fill="#c81d25" stroke="black" cx="1535.87" cy="-1043.95" rx="32.4942" ry="18"/>
<text text-anchor="middle" x="1535.87" y="-1040.25" font-family="Times,serif" font-size="14.00">28276</text>
</a>
</g>
</g>
<!-- 12722&#45;&gt;28276 -->
<g id="edge28" class="edge"><title>12722&#45;&gt;28276</title>
<path fill="none" stroke="black" d="M1408.68,-1027.25C1436.41,-1030.89 1476.43,-1036.14 1504.14,-1039.78"/>
</g>
<!-- 12849 -->
<g id="node36" class="node"><title>12849</title>
<g id="a_node36"><a xlink:title="Day_0">
<ellipse fill="#e5dada" stroke="black" cx="706.371" cy="-1610.77" rx="32.4942" ry="18"/>
<text text-anchor="middle" x="706.371" y="-1607.07" font-family="Times,serif" font-size="14.00">12849</text>
</a>
</g>
</g>
<!-- 12849&#45;&gt;31929 -->
<g id="edge10" class="edge"><title>12849&#45;&gt;31929</title>
<path fill="none" stroke="black" d="M705.984,-1592.75C705.377,-1564.54 704.211,-1510.27 703.603,-1481.97"/>
</g>
<!-- 16252 -->
<g id="node37" class="node"><title>16252</title>
<g id="a_node37"><a xlink:title="6th_week">
<ellipse fill="#c81d25" stroke="black" cx="1342.97" cy="-969.906" rx="32.4942" ry="18"/>
<text text-anchor="middle" x="1342.97" y="-966.206" font-family="Times,serif" font-size="14.00">16252</text>
</a>
</g>
</g>
<!-- 16252&#45;&gt;22099 -->
<g id="edge54" class="edge"><title>16252&#45;&gt;22099</title>
<path fill="none" stroke="black" d="M1311.1,-974.221C1277.62,-978.753 1225.28,-985.84 1191.82,-990.369"/>
</g>
<!-- 17860 -->
<g id="node39" class="node"><title>17860</title>
<g id="a_node39"><a xlink:title="Day_0">
<ellipse fill="#e5dada" stroke="black" cx="497.263" cy="-1645.64" rx="32.4942" ry="18"/>
<text text-anchor="middle" x="497.263" y="-1641.94" font-family="Times,serif" font-size="14.00">17860</text>
</a>
</g>
</g>
<!-- 17860&#45;&gt;29836 -->
<g id="edge26" class="edge"><title>17860&#45;&gt;29836</title>
<path fill="none" stroke="black" d="M505.998,-1628.07C520.424,-1599.06 549.061,-1541.48 563.45,-1512.54"/>
</g>
<!-- 24667 -->
<g id="node46" class="node"><title>24667</title>
<g id="a_node46"><a xlink:title="6th_week">
<ellipse fill="#c81d25" stroke="black" cx="295.858" cy="-1201.8" rx="32.4942" ry="18"/>
<text text-anchor="middle" x="295.858" y="-1198.1" font-family="Times,serif" font-size="14.00">24667</text>
</a>
</g>
</g>
<!-- 18262&#45;&gt;24667 -->
<g id="edge17" class="edge"><title>18262&#45;&gt;24667</title>
<path fill="none" stroke="black" d="M395.64,-1316.83C373.797,-1291.65 332.194,-1243.69 310.243,-1218.38"/>
</g>
<!-- 26571 -->
<g id="node48" class="node"><title>26571</title>
<g id="a_node48"><a xlink:title="6th_week">
<ellipse fill="#c81d25" stroke="black" cx="219.267" cy="-1312.92" rx="32.4942" ry="18"/>
<text text-anchor="middle" x="219.267" y="-1309.22" font-family="Times,serif" font-size="14.00">26571</text>
</a>
</g>
</g>
<!-- 18262&#45;&gt;26571 -->
<g id="edge27" class="edge"><title>18262&#45;&gt;26571</title>
<path fill="none" stroke="black" d="M377.517,-1329.76C342.365,-1326.02 286.524,-1320.08 251.436,-1316.35"/>
</g>
<!-- 30118 -->
<g id="node52" class="node"><title>30118</title>
<g id="a_node52"><a xlink:title="6th_week">
<ellipse fill="#c81d25" stroke="black" cx="190.556" cy="-1369.29" rx="32.4942" ry="18"/>
<text text-anchor="middle" x="190.556" y="-1365.59" font-family="Times,serif" font-size="14.00">30118</text>
</a>
</g>
</g>
<!-- 18262&#45;&gt;30118 -->
<g id="edge21" class="edge"><title>18262&#45;&gt;30118</title>
<path fill="none" stroke="black" d="M378.427,-1338.37C336.74,-1345.24 263.575,-1357.28 221.917,-1364.13"/>
</g>
<!-- 31381 -->
<g id="node53" class="node"><title>31381</title>
<g id="a_node53"><a xlink:title="6th_week">
<ellipse fill="#c81d25" stroke="black" cx="241.203" cy="-1248.71" rx="32.4942" ry="18"/>
<text text-anchor="middle" x="241.203" y="-1245.01" font-family="Times,serif" font-size="14.00">31381</text>
</a>
</g>
</g>
<!-- 18262&#45;&gt;31381 -->
<g id="edge55" class="edge"><title>18262&#45;&gt;31381</title>
<path fill="none" stroke="black" d="M385.684,-1321.1C353.625,-1305.04 297.357,-1276.85 265.321,-1260.8"/>
</g>
<!-- 4913 -->
<g id="node57" class="node"><title>4913</title>
<g id="a_node57"><a xlink:title="6th_week">
<ellipse fill="#c81d25" stroke="black" cx="280.313" cy="-1363.91" rx="28.6953" ry="18"/>
<text text-anchor="middle" x="280.313" y="-1360.21" font-family="Times,serif" font-size="14.00">4913</text>
</a>
</g>
</g>
<!-- 18262&#45;&gt;4913 -->
<g id="edge51" class="edge"><title>18262&#45;&gt;4913</title>
<path fill="none" stroke="black" d="M379.803,-1340.33C357.83,-1345.53 328.287,-1352.54 307.113,-1357.56"/>
</g>
<!-- 21320 -->
<g id="node41" class="node"><title>21320</title>
<g id="a_node41"><a xlink:title="Day_0">
<ellipse fill="#e5dada" stroke="black" cx="427.513" cy="-1592.67" rx="32.4942" ry="18"/>
<text text-anchor="middle" x="427.513" y="-1588.97" font-family="Times,serif" font-size="14.00">21320</text>
</a>
</g>
</g>
<!-- 21320&#45;&gt;29836 -->
<g id="edge7" class="edge"><title>21320&#45;&gt;29836</title>
<path fill="none" stroke="black" d="M448.233,-1578.69C475.724,-1560.14 523.975,-1527.58 551.447,-1509.05"/>
</g>
<!-- 21649 -->
<g id="node42" class="node"><title>21649</title>
<g id="a_node42"><a xlink:title="6th_week">
<ellipse fill="#c81d25" stroke="black" cx="1215.46" cy="-481.501" rx="32.4942" ry="18"/>
<text text-anchor="middle" x="1215.46" y="-477.801" font-family="Times,serif" font-size="14.00">21649</text>
</a>
</g>
</g>
<!-- 21649&#45;&gt;25882 -->
<g id="edge61" class="edge"><title>21649&#45;&gt;25882</title>
<path fill="none" stroke="black" d="M1191.08,-493.61C1160.28,-508.903 1107.61,-535.057 1076.87,-550.326"/>
</g>
<!-- 23179 -->
<g id="node44" class="node"><title>23179</title>
<g id="a_node44"><a xlink:title="6th_week">
<ellipse fill="#c81d25" stroke="black" cx="1309.9" cy="-1112.11" rx="32.4942" ry="18"/>
<text text-anchor="middle" x="1309.9" y="-1108.41" font-family="Times,serif" font-size="14.00">23179</text>
</a>
</g>
</g>
<!-- 22099&#45;&gt;23179 -->
<g id="edge59" class="edge"><title>22099&#45;&gt;23179</title>
<path fill="none" stroke="black" d="M1178.99,-1009.55C1207.82,-1032.14 1262.33,-1074.84 1291.07,-1097.35"/>
</g>
<!-- 24344 -->
<g id="node45" class="node"><title>24344</title>
<g id="a_node45"><a xlink:title="6th_week">
<ellipse fill="#c81d25" stroke="black" cx="1328.4" cy="-907.035" rx="32.4942" ry="18"/>
<text text-anchor="middle" x="1328.4" y="-903.335" font-family="Times,serif" font-size="14.00">24344</text>
</a>
</g>
</g>
<!-- 22099&#45;&gt;24344 -->
<g id="edge11" class="edge"><title>22099&#45;&gt;24344</title>
<path fill="none" stroke="black" d="M1183.78,-982.305C1215.78,-965.649 1272.4,-936.181 1304.48,-919.485"/>
</g>
<!-- 31765 -->
<g id="node54" class="node"><title>31765</title>
<g id="a_node54"><a xlink:title="6th_week">
<ellipse fill="#c81d25" stroke="black" cx="1280.21" cy="-1059.85" rx="32.4942" ry="18"/>
<text text-anchor="middle" x="1280.21" y="-1056.15" font-family="Times,serif" font-size="14.00">31765</text>
</a>
</g>
</g>
<!-- 22099&#45;&gt;31765 -->
<g id="edge14" class="edge"><title>22099&#45;&gt;31765</title>
<path fill="none" stroke="black" d="M1183.47,-1007.4C1204.65,-1018.88 1235.64,-1035.69 1256.8,-1047.16"/>
</g>
<!-- 32758 -->
<g id="node56" class="node"><title>32758</title>
<g id="a_node56"><a xlink:title="6th_week">
<ellipse fill="#c81d25" stroke="black" cx="1254.75" cy="-935.31" rx="32.4942" ry="18"/>
<text text-anchor="middle" x="1254.75" y="-931.61" font-family="Times,serif" font-size="14.00">32758</text>
</a>
</g>
</g>
<!-- 22099&#45;&gt;32758 -->
<g id="edge23" class="edge"><title>22099&#45;&gt;32758</title>
<path fill="none" stroke="black" d="M1181.98,-980.907C1197.4,-971.248 1217.91,-958.397 1233.22,-948.8"/>
</g>
<!-- 18360 -->
<g id="node61" class="node"><title>18360</title>
<g id="a_node61"><a xlink:title="6th_week">
<ellipse fill="#c81d25" stroke="black" cx="1233.75" cy="-1144.69" rx="32.4942" ry="18"/>
<text text-anchor="middle" x="1233.75" y="-1140.99" font-family="Times,serif" font-size="14.00">18360</text>
</a>
</g>
</g>
<!-- 22099&#45;&gt;18360 -->
<g id="edge58" class="edge"><title>22099&#45;&gt;18360</title>
<path fill="none" stroke="black" d="M1168.61,-1012.18C1182.82,-1041.08 1211.03,-1098.47 1225.2,-1127.3"/>
</g>
<!-- 1954 -->
<g id="node62" class="node"><title>1954</title>
<g id="a_node62"><a xlink:title="6th_week">
<ellipse fill="#c81d25" stroke="black" cx="1163.68" cy="-424.419" rx="28.6953" ry="18"/>
<text text-anchor="middle" x="1163.68" y="-420.719" font-family="Times,serif" font-size="14.00">1954</text>
</a>
</g>
</g>
<!-- 25882&#45;&gt;1954 -->
<g id="edge30" class="edge"><title>25882&#45;&gt;1954</title>
<path fill="none" stroke="black" d="M1065.98,-545.743C1087.45,-519.082 1129.3,-467.117 1150.57,-440.692"/>
</g>
<!-- 26880 -->
<g id="node49" class="node"><title>26880</title>
<g id="a_node49"><a xlink:title="Day_0">
<ellipse fill="#e5dada" stroke="black" cx="573.664" cy="-1649.99" rx="32.4942" ry="18"/>
<text text-anchor="middle" x="573.664" y="-1646.29" font-family="Times,serif" font-size="14.00">26880</text>
</a>
</g>
</g>
<!-- 26880&#45;&gt;29836 -->
<g id="edge4" class="edge"><title>26880&#45;&gt;29836</title>
<path fill="none" stroke="black" d="M573.485,-1631.92C573.191,-1602.23 572.608,-1543.45 572.312,-1513.53"/>
</g>
<!-- 32783 -->
<g id="node58" class="node"><title>32783</title>
<g id="a_node58"><a xlink:title="6th_week">
<ellipse fill="#c81d25" stroke="black" cx="32.812" cy="-1397.95" rx="32.4942" ry="18"/>
<text text-anchor="middle" x="32.812" y="-1394.25" font-family="Times,serif" font-size="14.00">32783</text>
</a>
</g>
</g>
<!-- 30118&#45;&gt;32783 -->
<g id="edge6" class="edge"><title>30118&#45;&gt;32783</title>
<path fill="none" stroke="black" d="M159.391,-1374.96C131.736,-1379.98 91.5477,-1387.28 63.9125,-1392.3"/>
</g>
</g>
</svg>
