<?xml version="1.0" encoding="UTF-8" standalone="no"?>
<!DOCTYPE svg PUBLIC "-//W3C//DTD SVG 1.1//EN"
 "http://www.w3.org/Graphics/SVG/1.1/DTD/svg11.dtd">
<!-- Generated by graphviz version 2.38.0 (20140413.2041)
 -->
<!-- Title: %3 Pages: 1 -->
<svg width="1564pt" height="1878pt"
 viewBox="0.00 0.00 1564.00 1878.00" xmlns="http://www.w3.org/2000/svg" xmlns:xlink="http://www.w3.org/1999/xlink">
<g id="graph0" class="graph" transform="scale(1 1) rotate(0) translate(4 1874)">
<title>%3</title>
<polygon fill="white" stroke="none" points="-4,4 -4,-1874 1560,-1874 1560,4 -4,4"/>
<!-- 282 -->
<g id="node1" class="node"><title>282</title>
<g id="a_node1"><a xlink:title="PRE">
<ellipse fill="#71a9f7" stroke="black" cx="583.485" cy="-1428.02" rx="27" ry="18"/>
<text text-anchor="middle" x="583.485" y="-1424.32" font-family="Times,serif" font-size="14.00">282</text>
</a>
</g>
</g>
<!-- 13002 -->
<g id="node22" class="node"><title>13002</title>
<g id="a_node22"><a xlink:title="3rd_week,6th_week,PRE">
<ellipse fill="#71a9f7" stroke="black" cx="561.375" cy="-1265.34" rx="32.4948" ry="18"/>
<ellipse fill="none" stroke="black" cx="561.375" cy="-1265.34" rx="36.4945" ry="22"/>
<ellipse fill="none" stroke="black" cx="561.375" cy="-1265.34" rx="40.4942" ry="26"/>
<text text-anchor="middle" x="561.375" y="-1261.64" font-family="Times,serif" font-size="14.00">13002</text>
</a>
</g>
</g>
<!-- 282&#45;&gt;13002 -->
<g id="edge67" class="edge"><title>282&#45;&gt;13002</title>
<path fill="none" stroke="black" d="M581.034,-1409.99C577.121,-1381.2 569.445,-1324.72 564.929,-1291.49"/>
</g>
<!-- 458 -->
<g id="node2" class="node"><title>458</title>
<g id="a_node2"><a xlink:title="6th_week">
<ellipse fill="#c81d25" stroke="black" cx="662.084" cy="-1422.47" rx="27" ry="18"/>
<text text-anchor="middle" x="662.084" y="-1418.77" font-family="Times,serif" font-size="14.00">458</text>
</a>
</g>
</g>
<!-- 458&#45;&gt;13002 -->
<g id="edge46" class="edge"><title>458&#45;&gt;13002</title>
<path fill="none" stroke="black" d="M651.307,-1405.65C633.394,-1377.71 597.433,-1321.6 576.825,-1289.44"/>
</g>
<!-- 902 -->
<g id="node3" class="node"><title>902</title>
<g id="a_node3"><a xlink:title="PRE">
<ellipse fill="#71a9f7" stroke="black" cx="266.404" cy="-1391.62" rx="27" ry="18"/>
<text text-anchor="middle" x="266.404" y="-1387.92" font-family="Times,serif" font-size="14.00">902</text>
</a>
</g>
</g>
<!-- 9414 -->
<g id="node14" class="node"><title>9414</title>
<g id="a_node14"><a xlink:title="PRE">
<ellipse fill="#71a9f7" stroke="black" cx="57.0247" cy="-1487.13" rx="28.6953" ry="18"/>
<text text-anchor="middle" x="57.0247" y="-1483.43" font-family="Times,serif" font-size="14.00">9414</text>
</a>
</g>
</g>
<!-- 902&#45;&gt;9414 -->
<g id="edge43" class="edge"><title>902&#45;&gt;9414</title>
<path fill="none" stroke="black" d="M243.997,-1401.84C204.014,-1420.08 120.773,-1458.05 80.2257,-1476.55"/>
</g>
<!-- 902&#45;&gt;13002 -->
<g id="edge63" class="edge"><title>902&#45;&gt;13002</title>
<path fill="none" stroke="black" d="M289.55,-1381.71C341.295,-1359.56 466.55,-1305.93 527.259,-1279.94"/>
</g>
<!-- 30954 -->
<g id="node61" class="node"><title>30954</title>
<g id="a_node61"><a xlink:title="PRE">
<ellipse fill="#71a9f7" stroke="black" cx="94.2074" cy="-1550.33" rx="32.4942" ry="18"/>
<text text-anchor="middle" x="94.2074" y="-1546.63" font-family="Times,serif" font-size="14.00">30954</text>
</a>
</g>
</g>
<!-- 902&#45;&gt;30954 -->
<g id="edge13" class="edge"><title>902&#45;&gt;30954</title>
<path fill="none" stroke="black" d="M250.513,-1406.27C218.042,-1436.19 144.347,-1504.12 111.071,-1534.79"/>
</g>
<!-- 29605 -->
<g id="node66" class="node"><title>29605</title>
<g id="a_node66"><a xlink:title="PRE">
<ellipse fill="#71a9f7" stroke="black" cx="32.7387" cy="-1417.45" rx="32.4942" ry="18"/>
<text text-anchor="middle" x="32.7387" y="-1413.75" font-family="Times,serif" font-size="14.00">29605</text>
</a>
</g>
</g>
<!-- 902&#45;&gt;29605 -->
<g id="edge50" class="edge"><title>902&#45;&gt;29605</title>
<path fill="none" stroke="black" d="M239.6,-1394.58C196.324,-1399.37 111.236,-1408.77 64.8114,-1413.91"/>
</g>
<!-- 1230 -->
<g id="node4" class="node"><title>1230</title>
<g id="a_node4"><a xlink:title="PRE">
<ellipse fill="#71a9f7" stroke="black" cx="517.768" cy="-1450.01" rx="28.6953" ry="18"/>
<text text-anchor="middle" x="517.768" y="-1446.31" font-family="Times,serif" font-size="14.00">1230</text>
</a>
</g>
</g>
<!-- 1230&#45;&gt;13002 -->
<g id="edge40" class="edge"><title>1230&#45;&gt;13002</title>
<path fill="none" stroke="black" d="M522.029,-1431.96C529.808,-1399.02 546.334,-1329.03 555.294,-1291.09"/>
</g>
<!-- 1485 -->
<g id="node5" class="node"><title>1485</title>
<g id="a_node5"><a xlink:title="PRE">
<ellipse fill="#71a9f7" stroke="black" cx="1362.38" cy="-500.718" rx="28.6953" ry="18"/>
<text text-anchor="middle" x="1362.38" y="-497.018" font-family="Times,serif" font-size="14.00">1485</text>
</a>
</g>
</g>
<!-- 17119 -->
<g id="node30" class="node"><title>17119</title>
<g id="a_node30"><a xlink:title="PRE">
<ellipse fill="#71a9f7" stroke="black" cx="1283.72" cy="-644.106" rx="32.4942" ry="18"/>
<text text-anchor="middle" x="1283.72" y="-640.406" font-family="Times,serif" font-size="14.00">17119</text>
</a>
</g>
</g>
<!-- 1485&#45;&gt;17119 -->
<g id="edge61" class="edge"><title>1485&#45;&gt;17119</title>
<path fill="none" stroke="black" d="M1352.9,-518.014C1337.78,-545.574 1308.38,-599.15 1293.24,-626.749"/>
</g>
<!-- 1678 -->
<g id="node6" class="node"><title>1678</title>
<g id="a_node6"><a xlink:title="PRE">
<ellipse fill="#71a9f7" stroke="black" cx="693.564" cy="-307.62" rx="28.6953" ry="18"/>
<text text-anchor="middle" x="693.564" y="-303.92" font-family="Times,serif" font-size="14.00">1678</text>
</a>
</g>
</g>
<!-- 28836 -->
<g id="node56" class="node"><title>28836</title>
<g id="a_node56"><a xlink:title="6th_week,PRE">
<ellipse fill="#71a9f7" stroke="black" cx="675.35" cy="-503.604" rx="32.4945" ry="18"/>
<ellipse fill="none" stroke="black" cx="675.35" cy="-503.604" rx="36.4942" ry="22"/>
<text text-anchor="middle" x="675.35" y="-499.904" font-family="Times,serif" font-size="14.00">28836</text>
</a>
</g>
</g>
<!-- 1678&#45;&gt;28836 -->
<g id="edge23" class="edge"><title>1678&#45;&gt;28836</title>
<path fill="none" stroke="black" d="M691.883,-325.707C688.536,-361.716 681.05,-442.267 677.413,-481.408"/>
</g>
<!-- 1902 -->
<g id="node7" class="node"><title>1902</title>
<g id="a_node7"><a xlink:title="PRE">
<ellipse fill="#71a9f7" stroke="black" cx="945.931" cy="-479.154" rx="28.6953" ry="18"/>
<text text-anchor="middle" x="945.931" y="-475.454" font-family="Times,serif" font-size="14.00">1902</text>
</a>
</g>
</g>
<!-- 11226 -->
<g id="node19" class="node"><title>11226</title>
<g id="a_node19"><a xlink:title="PRE">
<ellipse fill="#71a9f7" stroke="black" cx="896.912" cy="-305.991" rx="32.4942" ry="18"/>
<text text-anchor="middle" x="896.912" y="-302.291" font-family="Times,serif" font-size="14.00">11226</text>
</a>
</g>
</g>
<!-- 1902&#45;&gt;11226 -->
<g id="edge66" class="edge"><title>1902&#45;&gt;11226</title>
<path fill="none" stroke="black" d="M940.87,-461.275C931.476,-428.093 911.447,-357.337 902.019,-324.033"/>
</g>
<!-- 17597 -->
<g id="node31" class="node"><title>17597</title>
<g id="a_node31"><a xlink:title="PRE">
<ellipse fill="#71a9f7" stroke="black" cx="977.834" cy="-313.69" rx="32.4942" ry="18"/>
<text text-anchor="middle" x="977.834" y="-309.99" font-family="Times,serif" font-size="14.00">17597</text>
</a>
</g>
</g>
<!-- 1902&#45;&gt;17597 -->
<g id="edge14" class="edge"><title>1902&#45;&gt;17597</title>
<path fill="none" stroke="black" d="M949.406,-461.132C955.542,-429.303 968.229,-363.503 974.363,-331.69"/>
</g>
<!-- 25668 -->
<g id="node46" class="node"><title>25668</title>
<g id="a_node46"><a xlink:title="PRE">
<ellipse fill="#71a9f7" stroke="black" cx="983.464" cy="-244.502" rx="32.4942" ry="18"/>
<text text-anchor="middle" x="983.464" y="-240.802" font-family="Times,serif" font-size="14.00">25668</text>
</a>
</g>
</g>
<!-- 1902&#45;&gt;25668 -->
<g id="edge15" class="edge"><title>1902&#45;&gt;25668</title>
<path fill="none" stroke="black" d="M948.814,-461.131C955.8,-417.453 973.575,-306.328 980.571,-262.586"/>
</g>
<!-- 25994 -->
<g id="node47" class="node"><title>25994</title>
<g id="a_node47"><a xlink:title="PRE">
<ellipse fill="#71a9f7" stroke="black" cx="890.831" cy="-810.773" rx="32.4942" ry="18"/>
<text text-anchor="middle" x="890.831" y="-807.073" font-family="Times,serif" font-size="14.00">25994</text>
</a>
</g>
</g>
<!-- 1902&#45;&gt;25994 -->
<g id="edge12" class="edge"><title>1902&#45;&gt;25994</title>
<path fill="none" stroke="black" d="M942.89,-497.456C933.257,-555.435 903.483,-734.628 893.863,-792.528"/>
</g>
<!-- 26383 -->
<g id="node48" class="node"><title>26383</title>
<g id="a_node48"><a xlink:title="PRE">
<ellipse fill="#71a9f7" stroke="black" cx="1065.16" cy="-343.368" rx="32.4942" ry="18"/>
<text text-anchor="middle" x="1065.16" y="-339.668" font-family="Times,serif" font-size="14.00">26383</text>
</a>
</g>
</g>
<!-- 1902&#45;&gt;26383 -->
<g id="edge11" class="edge"><title>1902&#45;&gt;26383</title>
<path fill="none" stroke="black" d="M959.842,-463.312C982.571,-437.427 1027.45,-386.316 1050.6,-359.956"/>
</g>
<!-- 2073 -->
<g id="node8" class="node"><title>2073</title>
<g id="a_node8"><a xlink:title="PRE">
<ellipse fill="#71a9f7" stroke="black" cx="513.343" cy="-400.865" rx="28.6953" ry="18"/>
<text text-anchor="middle" x="513.343" y="-397.165" font-family="Times,serif" font-size="14.00">2073</text>
</a>
</g>
</g>
<!-- 2073&#45;&gt;28836 -->
<g id="edge53" class="edge"><title>2073&#45;&gt;28836</title>
<path fill="none" stroke="black" d="M533.533,-413.669C563.052,-432.388 617.959,-467.209 650.106,-487.595"/>
</g>
<!-- 2684 -->
<g id="node9" class="node"><title>2684</title>
<g id="a_node9"><a xlink:title="PRE">
<ellipse fill="#71a9f7" stroke="black" cx="1445.02" cy="-772.293" rx="28.6953" ry="18"/>
<text text-anchor="middle" x="1445.02" y="-768.593" font-family="Times,serif" font-size="14.00">2684</text>
</a>
</g>
</g>
<!-- 2684&#45;&gt;17119 -->
<g id="edge28" class="edge"><title>2684&#45;&gt;17119</title>
<path fill="none" stroke="black" d="M1427.15,-758.085C1396.39,-733.64 1333.74,-683.86 1302.42,-658.97"/>
</g>
<!-- 5961 -->
<g id="node10" class="node"><title>5961</title>
<g id="a_node10"><a xlink:title="PRE">
<ellipse fill="#71a9f7" stroke="black" cx="49.5301" cy="-1209.97" rx="28.6953" ry="18"/>
<text text-anchor="middle" x="49.5301" y="-1206.27" font-family="Times,serif" font-size="14.00">5961</text>
</a>
</g>
</g>
<!-- 18608 -->
<g id="node33" class="node"><title>18608</title>
<g id="a_node33"><a xlink:title="PRE">
<ellipse fill="#71a9f7" stroke="black" cx="285.89" cy="-1232.1" rx="32.4942" ry="18"/>
<text text-anchor="middle" x="285.89" y="-1228.4" font-family="Times,serif" font-size="14.00">18608</text>
</a>
</g>
</g>
<!-- 5961&#45;&gt;18608 -->
<g id="edge56" class="edge"><title>5961&#45;&gt;18608</title>
<path fill="none" stroke="black" d="M78.0406,-1212.63C122.242,-1216.77 207.043,-1224.71 253.498,-1229.06"/>
</g>
<!-- 7864 -->
<g id="node11" class="node"><title>7864</title>
<g id="a_node11"><a xlink:title="PRE">
<ellipse fill="#71a9f7" stroke="black" cx="751.133" cy="-1205.02" rx="28.6953" ry="18"/>
<text text-anchor="middle" x="751.133" y="-1201.32" font-family="Times,serif" font-size="14.00">7864</text>
</a>
</g>
</g>
<!-- 7864&#45;&gt;13002 -->
<g id="edge36" class="edge"><title>7864&#45;&gt;13002</title>
<path fill="none" stroke="black" d="M725.541,-1213.16C692.663,-1223.61 635.378,-1241.82 597.918,-1253.72"/>
</g>
<!-- 8670 -->
<g id="node12" class="node"><title>8670</title>
<g id="a_node12"><a xlink:title="PRE">
<ellipse fill="#71a9f7" stroke="black" cx="397.442" cy="-1356.29" rx="28.6953" ry="18"/>
<text text-anchor="middle" x="397.442" y="-1352.59" font-family="Times,serif" font-size="14.00">8670</text>
</a>
</g>
</g>
<!-- 8670&#45;&gt;13002 -->
<g id="edge7" class="edge"><title>8670&#45;&gt;13002</title>
<path fill="none" stroke="black" d="M419.211,-1344.21C447.778,-1328.36 498.088,-1300.45 530.558,-1282.43"/>
</g>
<!-- 9183 -->
<g id="node13" class="node"><title>9183</title>
<g id="a_node13"><a xlink:title="6th_week">
<ellipse fill="#c81d25" stroke="black" cx="498.845" cy="-1099.94" rx="28.6953" ry="18"/>
<text text-anchor="middle" x="498.845" y="-1096.24" font-family="Times,serif" font-size="14.00">9183</text>
</a>
</g>
</g>
<!-- 9183&#45;&gt;13002 -->
<g id="edge19" class="edge"><title>9183&#45;&gt;13002</title>
<path fill="none" stroke="black" d="M505.537,-1117.64C516.659,-1147.06 538.987,-1206.12 551.782,-1239.96"/>
</g>
<!-- 9808 -->
<g id="node15" class="node"><title>9808</title>
<g id="a_node15"><a xlink:title="6th_week">
<ellipse fill="#c81d25" stroke="black" cx="452.33" cy="-1401.41" rx="28.6953" ry="18"/>
<text text-anchor="middle" x="452.33" y="-1397.71" font-family="Times,serif" font-size="14.00">9808</text>
</a>
</g>
</g>
<!-- 9808&#45;&gt;13002 -->
<g id="edge21" class="edge"><title>9808&#45;&gt;13002</title>
<path fill="none" stroke="black" d="M465.267,-1385.27C484.448,-1361.33 520.536,-1316.3 542.618,-1288.74"/>
</g>
<!-- 10531 -->
<g id="node16" class="node"><title>10531</title>
<g id="a_node16"><a xlink:title="PRE">
<ellipse fill="#71a9f7" stroke="black" cx="1310.88" cy="-1044.09" rx="32.4942" ry="18"/>
<text text-anchor="middle" x="1310.88" y="-1040.39" font-family="Times,serif" font-size="14.00">10531</text>
</a>
</g>
</g>
<!-- 28823 -->
<g id="node55" class="node"><title>28823</title>
<g id="a_node55"><a xlink:title="PRE">
<ellipse fill="#71a9f7" stroke="black" cx="1144.67" cy="-951.858" rx="32.4942" ry="18"/>
<text text-anchor="middle" x="1144.67" y="-948.158" font-family="Times,serif" font-size="14.00">28823</text>
</a>
</g>
</g>
<!-- 10531&#45;&gt;28823 -->
<g id="edge24" class="edge"><title>10531&#45;&gt;28823</title>
<path fill="none" stroke="black" d="M1287.77,-1031.26C1256.1,-1013.69 1199.55,-982.313 1167.85,-964.722"/>
</g>
<!-- 10615 -->
<g id="node17" class="node"><title>10615</title>
<g id="a_node17"><a xlink:title="PRE">
<ellipse fill="#71a9f7" stroke="black" cx="317.067" cy="-1126.33" rx="32.4942" ry="18"/>
<text text-anchor="middle" x="317.067" y="-1122.63" font-family="Times,serif" font-size="14.00">10615</text>
</a>
</g>
</g>
<!-- 10615&#45;&gt;13002 -->
<g id="edge26" class="edge"><title>10615&#45;&gt;13002</title>
<path fill="none" stroke="black" d="M340.051,-1139.41C384.238,-1164.55 481.051,-1219.64 530.692,-1247.88"/>
</g>
<!-- 24785 -->
<g id="node44" class="node"><title>24785</title>
<g id="a_node44"><a xlink:title="6th_week">
<ellipse fill="#c81d25" stroke="black" cx="102.022" cy="-1027.27" rx="32.4942" ry="18"/>
<text text-anchor="middle" x="102.022" y="-1023.57" font-family="Times,serif" font-size="14.00">24785</text>
</a>
</g>
</g>
<!-- 10615&#45;&gt;24785 -->
<g id="edge51" class="edge"><title>10615&#45;&gt;24785</title>
<path fill="none" stroke="black" d="M291.978,-1114.78C250.652,-1095.74 168.723,-1058 127.284,-1038.91"/>
</g>
<!-- 10891 -->
<g id="node18" class="node"><title>10891</title>
<g id="a_node18"><a xlink:title="6th_week">
<ellipse fill="#c81d25" stroke="black" cx="391.473" cy="-1741.57" rx="32.4942" ry="18"/>
<text text-anchor="middle" x="391.473" y="-1737.87" font-family="Times,serif" font-size="14.00">10891</text>
</a>
</g>
</g>
<!-- 14984 -->
<g id="node25" class="node"><title>14984</title>
<g id="a_node25"><a xlink:title="PRE">
<ellipse fill="#71a9f7" stroke="black" cx="482.272" cy="-1519.38" rx="32.4942" ry="18"/>
<text text-anchor="middle" x="482.272" y="-1515.68" font-family="Times,serif" font-size="14.00">14984</text>
</a>
</g>
</g>
<!-- 10891&#45;&gt;14984 -->
<g id="edge2" class="edge"><title>10891&#45;&gt;14984</title>
<path fill="none" stroke="black" d="M398.75,-1723.76C415.793,-1682.06 458.133,-1578.45 475.086,-1536.96"/>
</g>
<!-- 11382 -->
<g id="node20" class="node"><title>11382</title>
<g id="a_node20"><a xlink:title="PRE">
<ellipse fill="#71a9f7" stroke="black" cx="394.557" cy="-1469.95" rx="32.4942" ry="18"/>
<text text-anchor="middle" x="394.557" y="-1466.25" font-family="Times,serif" font-size="14.00">11382</text>
</a>
</g>
</g>
<!-- 11382&#45;&gt;13002 -->
<g id="edge57" class="edge"><title>11382&#45;&gt;13002</title>
<path fill="none" stroke="black" d="M408.209,-1453.2C437.934,-1416.74 508.564,-1330.11 542.515,-1288.47"/>
</g>
<!-- 15945 -->
<g id="node28" class="node"><title>15945</title>
<g id="a_node28"><a xlink:title="PRE">
<ellipse fill="#71a9f7" stroke="black" cx="246.393" cy="-1661.18" rx="32.4942" ry="18"/>
<text text-anchor="middle" x="246.393" y="-1657.48" font-family="Times,serif" font-size="14.00">15945</text>
</a>
</g>
</g>
<!-- 11382&#45;&gt;15945 -->
<g id="edge59" class="edge"><title>11382&#45;&gt;15945</title>
<path fill="none" stroke="black" d="M381.668,-1486.58C353.647,-1522.75 287.448,-1608.19 259.358,-1644.45"/>
</g>
<!-- 11768 -->
<g id="node21" class="node"><title>11768</title>
<g id="a_node21"><a xlink:title="PRE">
<ellipse fill="#71a9f7" stroke="black" cx="626.626" cy="-1852.16" rx="32.4942" ry="18"/>
<text text-anchor="middle" x="626.626" y="-1848.46" font-family="Times,serif" font-size="14.00">11768</text>
</a>
</g>
</g>
<!-- 22362 -->
<g id="node40" class="node"><title>22362</title>
<g id="a_node40"><a xlink:title="PRE">
<ellipse fill="#71a9f7" stroke="black" cx="600.926" cy="-1611.32" rx="32.4942" ry="18"/>
<text text-anchor="middle" x="600.926" y="-1607.62" font-family="Times,serif" font-size="14.00">22362</text>
</a>
</g>
</g>
<!-- 11768&#45;&gt;22362 -->
<g id="edge62" class="edge"><title>11768&#45;&gt;22362</title>
<path fill="none" stroke="black" d="M624.695,-1834.06C619.92,-1789.32 607.606,-1673.92 602.845,-1629.31"/>
</g>
<!-- 14246 -->
<g id="node24" class="node"><title>14246</title>
<g id="a_node24"><a xlink:title="PRE">
<ellipse fill="#71a9f7" stroke="black" cx="786.804" cy="-1267.95" rx="32.4942" ry="18"/>
<text text-anchor="middle" x="786.804" y="-1264.25" font-family="Times,serif" font-size="14.00">14246</text>
</a>
</g>
</g>
<!-- 13002&#45;&gt;14246 -->
<g id="edge68" class="edge"><title>13002&#45;&gt;14246</title>
<path fill="none" stroke="black" d="M601.937,-1265.81C645.544,-1266.31 714.006,-1267.11 754.239,-1267.57"/>
</g>
<!-- 13002&#45;&gt;14984 -->
<g id="edge8" class="edge"><title>13002&#45;&gt;14984</title>
<path fill="none" stroke="black" d="M553.355,-1291.09C537.329,-1342.56 501.706,-1456.97 487.895,-1501.32"/>
</g>
<!-- 15059 -->
<g id="node26" class="node"><title>15059</title>
<g id="a_node26"><a xlink:title="6th_week">
<ellipse fill="#c81d25" stroke="black" cx="543.437" cy="-1043.02" rx="32.4942" ry="18"/>
<text text-anchor="middle" x="543.437" y="-1039.32" font-family="Times,serif" font-size="14.00">15059</text>
</a>
</g>
</g>
<!-- 13002&#45;&gt;15059 -->
<g id="edge31" class="edge"><title>13002&#45;&gt;15059</title>
<path fill="none" stroke="black" d="M559.247,-1238.96C555.553,-1193.18 548.048,-1100.18 544.89,-1061.03"/>
</g>
<!-- 18411 -->
<g id="node32" class="node"><title>18411</title>
<g id="a_node32"><a xlink:title="PRE">
<ellipse fill="#71a9f7" stroke="black" cx="631.005" cy="-1076.38" rx="32.4942" ry="18"/>
<text text-anchor="middle" x="631.005" y="-1072.68" font-family="Times,serif" font-size="14.00">18411</text>
</a>
</g>
</g>
<!-- 13002&#45;&gt;18411 -->
<g id="edge38" class="edge"><title>13002&#45;&gt;18411</title>
<path fill="none" stroke="black" d="M570.765,-1239.85C585.094,-1200.97 612.057,-1127.8 624.459,-1094.15"/>
</g>
<!-- 13002&#45;&gt;18608 -->
<g id="edge22" class="edge"><title>13002&#45;&gt;18608</title>
<path fill="none" stroke="black" d="M521.317,-1260.5C466.251,-1253.86 368.274,-1242.04 317.84,-1235.95"/>
</g>
<!-- 20797 -->
<g id="node35" class="node"><title>20797</title>
<g id="a_node35"><a xlink:title="PRE">
<ellipse fill="#71a9f7" stroke="black" cx="428.466" cy="-1082.15" rx="32.4942" ry="18"/>
<text text-anchor="middle" x="428.466" y="-1078.45" font-family="Times,serif" font-size="14.00">20797</text>
</a>
</g>
</g>
<!-- 13002&#45;&gt;20797 -->
<g id="edge9" class="edge"><title>13002&#45;&gt;20797</title>
<path fill="none" stroke="black" d="M544.271,-1241.76C517.069,-1204.27 464.59,-1131.94 440.767,-1099.1"/>
</g>
<!-- 21153 -->
<g id="node36" class="node"><title>21153</title>
<g id="a_node36"><a xlink:title="6th_week">
<ellipse fill="#c81d25" stroke="black" cx="774.268" cy="-1332.53" rx="32.4942" ry="18"/>
<text text-anchor="middle" x="774.268" y="-1328.83" font-family="Times,serif" font-size="14.00">21153</text>
</a>
</g>
</g>
<!-- 13002&#45;&gt;21153 -->
<g id="edge47" class="edge"><title>13002&#45;&gt;21153</title>
<path fill="none" stroke="black" d="M597.972,-1276.89C639.939,-1290.13 707.839,-1311.57 745.964,-1323.6"/>
</g>
<!-- 21715 -->
<g id="node37" class="node"><title>21715</title>
<g id="a_node37"><a xlink:title="6th_week">
<ellipse fill="#c81d25" stroke="black" cx="712.454" cy="-1128.88" rx="32.4942" ry="18"/>
<text text-anchor="middle" x="712.454" y="-1125.18" font-family="Times,serif" font-size="14.00">21715</text>
</a>
</g>
</g>
<!-- 13002&#45;&gt;21715 -->
<g id="edge33" class="edge"><title>13002&#45;&gt;21715</title>
<path fill="none" stroke="black" d="M584.981,-1244.02C615.521,-1216.43 668.013,-1169.02 695.123,-1144.54"/>
</g>
<!-- 22097 -->
<g id="node39" class="node"><title>22097</title>
<g id="a_node39"><a xlink:title="PRE">
<ellipse fill="#71a9f7" stroke="black" cx="365.789" cy="-1296.53" rx="32.4942" ry="18"/>
<text text-anchor="middle" x="365.789" y="-1292.83" font-family="Times,serif" font-size="14.00">22097</text>
</a>
</g>
</g>
<!-- 13002&#45;&gt;22097 -->
<g id="edge58" class="edge"><title>13002&#45;&gt;22097</title>
<path fill="none" stroke="black" d="M521.795,-1271.65C485.071,-1277.51 431.127,-1286.11 397.257,-1291.51"/>
</g>
<!-- 13002&#45;&gt;22362 -->
<g id="edge30" class="edge"><title>13002&#45;&gt;22362</title>
<path fill="none" stroke="black" d="M564.347,-1291.34C572.019,-1358.45 592.336,-1536.18 598.871,-1593.34"/>
</g>
<!-- 24025 -->
<g id="node42" class="node"><title>24025</title>
<g id="a_node42"><a xlink:title="PRE">
<ellipse fill="#71a9f7" stroke="black" cx="758.511" cy="-1382.41" rx="32.4942" ry="18"/>
<text text-anchor="middle" x="758.511" y="-1378.71" font-family="Times,serif" font-size="14.00">24025</text>
</a>
</g>
</g>
<!-- 13002&#45;&gt;24025 -->
<g id="edge3" class="edge"><title>13002&#45;&gt;24025</title>
<path fill="none" stroke="black" d="M591.315,-1283.12C631.169,-1306.78 700.736,-1348.1 736.259,-1369.19"/>
</g>
<!-- 13002&#45;&gt;25994 -->
<g id="edge27" class="edge"><title>13002&#45;&gt;25994</title>
<path fill="none" stroke="black" d="M578.624,-1241.54C637.276,-1160.61 828.161,-897.242 878.545,-827.725"/>
</g>
<!-- 30652 -->
<g id="node60" class="node"><title>30652</title>
<g id="a_node60"><a xlink:title="PRE">
<ellipse fill="#71a9f7" stroke="black" cx="377.404" cy="-1223.55" rx="32.4942" ry="18"/>
<text text-anchor="middle" x="377.404" y="-1219.85" font-family="Times,serif" font-size="14.00">30652</text>
</a>
</g>
</g>
<!-- 13002&#45;&gt;30652 -->
<g id="edge6" class="edge"><title>13002&#45;&gt;30652</title>
<path fill="none" stroke="black" d="M522.808,-1256.58C488.565,-1248.8 439.208,-1237.59 407.721,-1230.44"/>
</g>
<!-- 31198 -->
<g id="node63" class="node"><title>31198</title>
<g id="a_node63"><a xlink:title="PRE">
<ellipse fill="#71a9f7" stroke="black" cx="633.865" cy="-1474.97" rx="32.4942" ry="18"/>
<text text-anchor="middle" x="633.865" y="-1471.27" font-family="Times,serif" font-size="14.00">31198</text>
</a>
</g>
</g>
<!-- 13002&#45;&gt;31198 -->
<g id="edge41" class="edge"><title>13002&#45;&gt;31198</title>
<path fill="none" stroke="black" d="M570.263,-1291.04C585.159,-1334.12 614.793,-1419.82 627.661,-1457.03"/>
</g>
<!-- 31237 -->
<g id="node64" class="node"><title>31237</title>
<g id="a_node64"><a xlink:title="6th_week">
<ellipse fill="#c81d25" stroke="black" cx="402.483" cy="-1150.33" rx="32.4942" ry="18"/>
<text text-anchor="middle" x="402.483" y="-1146.63" font-family="Times,serif" font-size="14.00">31237</text>
</a>
</g>
</g>
<!-- 13002&#45;&gt;31237 -->
<g id="edge49" class="edge"><title>13002&#45;&gt;31237</title>
<path fill="none" stroke="black" d="M534.421,-1245.83C502.723,-1222.88 450.847,-1185.33 422.508,-1164.82"/>
</g>
<!-- 31522 -->
<g id="node65" class="node"><title>31522</title>
<g id="a_node65"><a xlink:title="PRE">
<ellipse fill="#71a9f7" stroke="black" cx="753.612" cy="-1467.82" rx="32.4942" ry="18"/>
<text text-anchor="middle" x="753.612" y="-1464.12" font-family="Times,serif" font-size="14.00">31522</text>
</a>
</g>
</g>
<!-- 13002&#45;&gt;31522 -->
<g id="edge25" class="edge"><title>13002&#45;&gt;31522</title>
<path fill="none" stroke="black" d="M582.682,-1287.78C621.785,-1328.97 704.117,-1415.69 738.266,-1451.66"/>
</g>
<!-- 13468 -->
<g id="node23" class="node"><title>13468</title>
<g id="a_node23"><a xlink:title="PRE">
<ellipse fill="#71a9f7" stroke="black" cx="1324.42" cy="-975.054" rx="32.4942" ry="18"/>
<text text-anchor="middle" x="1324.42" y="-971.354" font-family="Times,serif" font-size="14.00">13468</text>
</a>
</g>
</g>
<!-- 13468&#45;&gt;28823 -->
<g id="edge1" class="edge"><title>13468&#45;&gt;28823</title>
<path fill="none" stroke="black" d="M1292.7,-970.961C1259.94,-966.734 1209.12,-960.176 1176.37,-955.95"/>
</g>
<!-- 15730 -->
<g id="node27" class="node"><title>15730</title>
<g id="a_node27"><a xlink:title="PRE">
<ellipse fill="#71a9f7" stroke="black" cx="848.132" cy="-660.933" rx="32.4942" ry="18"/>
<text text-anchor="middle" x="848.132" y="-657.233" font-family="Times,serif" font-size="14.00">15730</text>
</a>
</g>
</g>
<!-- 15730&#45;&gt;25994 -->
<g id="edge5" class="edge"><title>15730&#45;&gt;25994</title>
<path fill="none" stroke="black" d="M853.282,-679.007C861.489,-707.807 877.444,-763.794 885.662,-792.634"/>
</g>
<!-- 16189 -->
<g id="node29" class="node"><title>16189</title>
<g id="a_node29"><a xlink:title="PRE">
<ellipse fill="#71a9f7" stroke="black" cx="1291.24" cy="-431.101" rx="32.4942" ry="18"/>
<text text-anchor="middle" x="1291.24" y="-427.401" font-family="Times,serif" font-size="14.00">16189</text>
</a>
</g>
</g>
<!-- 16189&#45;&gt;17119 -->
<g id="edge65" class="edge"><title>16189&#45;&gt;17119</title>
<path fill="none" stroke="black" d="M1290.6,-449.262C1289.18,-489.505 1285.78,-585.792 1284.36,-625.991"/>
</g>
<!-- 17119&#45;&gt;25994 -->
<g id="edge32" class="edge"><title>17119&#45;&gt;25994</title>
<path fill="none" stroke="black" d="M1257.64,-655.171C1186.17,-685.488 987.801,-769.637 916.648,-799.821"/>
</g>
<!-- 26814 -->
<g id="node49" class="node"><title>26814</title>
<g id="a_node49"><a xlink:title="PRE">
<ellipse fill="#71a9f7" stroke="black" cx="1523.46" cy="-643.382" rx="32.4942" ry="18"/>
<text text-anchor="middle" x="1523.46" y="-639.682" font-family="Times,serif" font-size="14.00">26814</text>
</a>
</g>
</g>
<!-- 17119&#45;&gt;26814 -->
<g id="edge54" class="edge"><title>17119&#45;&gt;26814</title>
<path fill="none" stroke="black" d="M1316.55,-644.007C1362.33,-643.869 1444.87,-643.62 1490.64,-643.481"/>
</g>
<!-- 27706 -->
<g id="node51" class="node"><title>27706</title>
<g id="a_node51"><a xlink:title="PRE">
<ellipse fill="#71a9f7" stroke="black" cx="1439.39" cy="-532.847" rx="32.4942" ry="18"/>
<text text-anchor="middle" x="1439.39" y="-529.147" font-family="Times,serif" font-size="14.00">27706</text>
</a>
</g>
</g>
<!-- 17119&#45;&gt;27706 -->
<g id="edge10" class="edge"><title>17119&#45;&gt;27706</title>
<path fill="none" stroke="black" d="M1303.75,-629.789C1333.64,-608.426 1389.59,-568.441 1419.43,-547.11"/>
</g>
<!-- 27897 -->
<g id="node52" class="node"><title>27897</title>
<g id="a_node52"><a xlink:title="PRE">
<ellipse fill="#71a9f7" stroke="black" cx="1475.77" cy="-480.393" rx="32.4942" ry="18"/>
<text text-anchor="middle" x="1475.77" y="-476.693" font-family="Times,serif" font-size="14.00">27897</text>
</a>
</g>
</g>
<!-- 17119&#45;&gt;27897 -->
<g id="edge34" class="edge"><title>17119&#45;&gt;27897</title>
<path fill="none" stroke="black" d="M1301.44,-628.998C1337.93,-597.889 1421.11,-526.983 1457.81,-495.703"/>
</g>
<!-- 27991 -->
<g id="node53" class="node"><title>27991</title>
<g id="a_node53"><a xlink:title="PRE">
<ellipse fill="#71a9f7" stroke="black" cx="1522.19" cy="-541.798" rx="32.4942" ry="18"/>
<text text-anchor="middle" x="1522.19" y="-538.098" font-family="Times,serif" font-size="14.00">27991</text>
</a>
</g>
</g>
<!-- 17119&#45;&gt;27991 -->
<g id="edge16" class="edge"><title>17119&#45;&gt;27991</title>
<path fill="none" stroke="black" d="M1309.69,-632.963C1355.56,-613.283 1450.4,-572.598 1496.25,-552.928"/>
</g>
<!-- 28474 -->
<g id="node54" class="node"><title>28474</title>
<g id="a_node54"><a xlink:title="PRE">
<ellipse fill="#71a9f7" stroke="black" cx="1519.7" cy="-720.625" rx="32.4942" ry="18"/>
<text text-anchor="middle" x="1519.7" y="-716.925" font-family="Times,serif" font-size="14.00">28474</text>
</a>
</g>
</g>
<!-- 17119&#45;&gt;28474 -->
<g id="edge4" class="edge"><title>17119&#45;&gt;28474</title>
<path fill="none" stroke="black" d="M1312.18,-653.336C1357.66,-668.083 1446.19,-696.789 1491.51,-711.481"/>
</g>
<!-- 29234 -->
<g id="node57" class="node"><title>29234</title>
<g id="a_node57"><a xlink:title="PRE">
<ellipse fill="#71a9f7" stroke="black" cx="1408.52" cy="-431.587" rx="32.4942" ry="18"/>
<text text-anchor="middle" x="1408.52" y="-427.887" font-family="Times,serif" font-size="14.00">29234</text>
</a>
</g>
</g>
<!-- 17119&#45;&gt;29234 -->
<g id="edge48" class="edge"><title>17119&#45;&gt;29234</title>
<path fill="none" stroke="black" d="M1293.93,-626.715C1317.39,-586.764 1374.91,-488.815 1398.34,-448.92"/>
</g>
<!-- 30469 -->
<g id="node58" class="node"><title>30469</title>
<g id="a_node58"><a xlink:title="PRE">
<ellipse fill="#71a9f7" stroke="black" cx="1505.28" cy="-596.83" rx="32.4942" ry="18"/>
<text text-anchor="middle" x="1505.28" y="-593.13" font-family="Times,serif" font-size="14.00">30469</text>
</a>
</g>
</g>
<!-- 17119&#45;&gt;30469 -->
<g id="edge35" class="edge"><title>17119&#45;&gt;30469</title>
<path fill="none" stroke="black" d="M1314.06,-637.632C1356.37,-628.604 1432.64,-612.329 1474.95,-603.302"/>
</g>
<!-- 31155 -->
<g id="node62" class="node"><title>31155</title>
<g id="a_node62"><a xlink:title="PRE">
<ellipse fill="#71a9f7" stroke="black" cx="1420.96" cy="-696.32" rx="32.4942" ry="18"/>
<text text-anchor="middle" x="1420.96" y="-692.62" font-family="Times,serif" font-size="14.00">31155</text>
</a>
</g>
</g>
<!-- 17119&#45;&gt;31155 -->
<g id="edge42" class="edge"><title>17119&#45;&gt;31155</title>
<path fill="none" stroke="black" d="M1310.51,-654.297C1334.53,-663.438 1369.63,-676.789 1393.78,-685.976"/>
</g>
<!-- 18741 -->
<g id="node34" class="node"><title>18741</title>
<g id="a_node34"><a xlink:title="PRE">
<ellipse fill="#71a9f7" stroke="black" cx="607.779" cy="-295.517" rx="32.4942" ry="18"/>
<text text-anchor="middle" x="607.779" y="-291.817" font-family="Times,serif" font-size="14.00">18741</text>
</a>
</g>
</g>
<!-- 18741&#45;&gt;28836 -->
<g id="edge18" class="edge"><title>18741&#45;&gt;28836</title>
<path fill="none" stroke="black" d="M613.54,-313.258C625.891,-351.294 654.884,-440.579 668.305,-481.909"/>
</g>
<!-- 21744 -->
<g id="node38" class="node"><title>21744</title>
<g id="a_node38"><a xlink:title="3rd_week">
<ellipse fill="#ee9898" stroke="black" cx="1008.93" cy="-727.361" rx="32.4942" ry="18"/>
<text text-anchor="middle" x="1008.93" y="-723.661" font-family="Times,serif" font-size="14.00">21744</text>
</a>
</g>
</g>
<!-- 21744&#45;&gt;25994 -->
<g id="edge64" class="edge"><title>21744&#45;&gt;25994</title>
<path fill="none" stroke="black" d="M988.632,-741.7C967,-756.978 932.946,-781.029 911.264,-796.342"/>
</g>
<!-- 19263 -->
<g id="node68" class="node"><title>19263</title>
<g id="a_node68"><a xlink:title="PRE">
<ellipse fill="#71a9f7" stroke="black" cx="542.323" cy="-1842.96" rx="32.4942" ry="18"/>
<text text-anchor="middle" x="542.323" y="-1839.26" font-family="Times,serif" font-size="14.00">19263</text>
</a>
</g>
</g>
<!-- 22362&#45;&gt;19263 -->
<g id="edge55" class="edge"><title>22362&#45;&gt;19263</title>
<path fill="none" stroke="black" d="M596.328,-1629.5C585.373,-1672.8 557.834,-1781.65 546.9,-1824.87"/>
</g>
<!-- 28688 -->
<g id="node69" class="node"><title>28688</title>
<g id="a_node69"><a xlink:title="PRE">
<ellipse fill="#71a9f7" stroke="black" cx="705.966" cy="-1823.03" rx="32.4942" ry="18"/>
<text text-anchor="middle" x="705.966" y="-1819.33" font-family="Times,serif" font-size="14.00">28688</text>
</a>
</g>
</g>
<!-- 22362&#45;&gt;28688 -->
<g id="edge29" class="edge"><title>22362&#45;&gt;28688</title>
<path fill="none" stroke="black" d="M609.701,-1629.01C629.522,-1668.96 677.563,-1765.78 697.29,-1805.54"/>
</g>
<!-- 23479 -->
<g id="node41" class="node"><title>23479</title>
<g id="a_node41"><a xlink:title="PRE">
<ellipse fill="#71a9f7" stroke="black" cx="539.889" cy="-343.405" rx="32.4942" ry="18"/>
<text text-anchor="middle" x="539.889" y="-339.705" font-family="Times,serif" font-size="14.00">23479</text>
</a>
</g>
</g>
<!-- 23479&#45;&gt;28836 -->
<g id="edge52" class="edge"><title>23479&#45;&gt;28836</title>
<path fill="none" stroke="black" d="M553.876,-359.946C579.022,-389.685 631.753,-452.045 658.71,-483.925"/>
</g>
<!-- 24179 -->
<g id="node43" class="node"><title>24179</title>
<g id="a_node43"><a xlink:title="PRE">
<ellipse fill="#71a9f7" stroke="black" cx="487.585" cy="-459.232" rx="32.4942" ry="18"/>
<text text-anchor="middle" x="487.585" y="-455.532" font-family="Times,serif" font-size="14.00">24179</text>
</a>
</g>
</g>
<!-- 24179&#45;&gt;28836 -->
<g id="edge60" class="edge"><title>24179&#45;&gt;28836</title>
<path fill="none" stroke="black" d="M517.753,-466.361C551.444,-474.323 605.863,-487.183 641.121,-495.515"/>
</g>
<!-- 25258 -->
<g id="node45" class="node"><title>25258</title>
<g id="a_node45"><a xlink:title="PRE">
<ellipse fill="#71a9f7" stroke="black" cx="902.558" cy="-1648.94" rx="32.4942" ry="18"/>
<text text-anchor="middle" x="902.558" y="-1645.24" font-family="Times,serif" font-size="14.00">25258</text>
</a>
</g>
</g>
<!-- 25258&#45;&gt;31522 -->
<g id="edge17" class="edge"><title>25258&#45;&gt;31522</title>
<path fill="none" stroke="black" d="M889.077,-1632.55C860.791,-1598.15 795.523,-1518.78 767.17,-1484.31"/>
</g>
<!-- 30551 -->
<g id="node59" class="node"><title>30551</title>
<g id="a_node59"><a xlink:title="PRE">
<ellipse fill="#71a9f7" stroke="black" cx="1013.8" cy="-18.1233" rx="32.4942" ry="18"/>
<text text-anchor="middle" x="1013.8" y="-14.4233" font-family="Times,serif" font-size="14.00">30551</text>
</a>
</g>
</g>
<!-- 25668&#45;&gt;30551 -->
<g id="edge45" class="edge"><title>25668&#45;&gt;30551</title>
<path fill="none" stroke="black" d="M985.895,-226.359C991.576,-183.972 1005.67,-78.8251 1011.36,-36.3525"/>
</g>
<!-- 25994&#45;&gt;28823 -->
<g id="edge39" class="edge"><title>25994&#45;&gt;28823</title>
<path fill="none" stroke="black" d="M913.805,-823.542C962.011,-850.335 1073.24,-912.16 1121.56,-939.016"/>
</g>
<!-- 25994&#45;&gt;28836 -->
<g id="edge44" class="edge"><title>25994&#45;&gt;28836</title>
<path fill="none" stroke="black" d="M878.939,-793.82C842.059,-741.248 729.701,-581.082 689.688,-524.043"/>
</g>
<!-- 26909 -->
<g id="node50" class="node"><title>26909</title>
<g id="a_node50"><a xlink:title="PRE">
<ellipse fill="#71a9f7" stroke="black" cx="622.617" cy="-341.554" rx="32.4942" ry="18"/>
<text text-anchor="middle" x="622.617" y="-337.854" font-family="Times,serif" font-size="14.00">26909</text>
</a>
</g>
</g>
<!-- 26909&#45;&gt;28836 -->
<g id="edge37" class="edge"><title>26909&#45;&gt;28836</title>
<path fill="none" stroke="black" d="M628.462,-359.515C638.223,-389.511 657.804,-449.684 668.308,-481.964"/>
</g>
<!-- 24828 -->
<g id="node67" class="node"><title>24828</title>
<g id="a_node67"><a xlink:title="PRE">
<ellipse fill="#71a9f7" stroke="black" cx="1259.44" cy="-1093.05" rx="32.4942" ry="18"/>
<text text-anchor="middle" x="1259.44" y="-1089.35" font-family="Times,serif" font-size="14.00">24828</text>
</a>
</g>
</g>
<!-- 28823&#45;&gt;24828 -->
<g id="edge20" class="edge"><title>28823&#45;&gt;24828</title>
<path fill="none" stroke="black" d="M1158.06,-968.331C1180.06,-995.391 1223.61,-1048.97 1245.78,-1076.24"/>
</g>
</g>
</svg>
