<?xml version="1.0" encoding="UTF-8" standalone="no"?>
<!DOCTYPE svg PUBLIC "-//W3C//DTD SVG 1.1//EN"
 "http://www.w3.org/Graphics/SVG/1.1/DTD/svg11.dtd">
<!-- Generated by graphviz version 2.38.0 (20140413.2041)
 -->
<!-- Title: %3 Pages: 1 -->
<svg width="2255pt" height="2104pt"
 viewBox="0.00 0.00 2255.00 2104.00" xmlns="http://www.w3.org/2000/svg" xmlns:xlink="http://www.w3.org/1999/xlink">
<g id="graph0" class="graph" transform="scale(1 1) rotate(0) translate(4 2100)">
<title>%3</title>
<polygon fill="white" stroke="none" points="-4,4 -4,-2100 2251,-2100 2251,4 -4,4"/>
<!-- 15 -->
<g id="node1" class="node"><title>15</title>
<g id="a_node1"><a xlink:title="6th_week">
<ellipse fill="#c81d25" stroke="black" cx="26.7175" cy="-407.041" rx="27" ry="18"/>
<text text-anchor="middle" x="26.7175" y="-403.341" font-family="Times,serif" font-size="14.00">15</text>
</a>
</g>
</g>
<!-- 26934 -->
<g id="node7" class="node"><title>26934</title>
<g id="a_node7"><a xlink:title="6th_week">
<ellipse fill="#c81d25" stroke="black" cx="214.287" cy="-428.964" rx="32.4942" ry="18"/>
<text text-anchor="middle" x="214.287" y="-425.264" font-family="Times,serif" font-size="14.00">26934</text>
</a>
</g>
</g>
<!-- 15&#45;&gt;26934 -->
<g id="edge26" class="edge"><title>15&#45;&gt;26934</title>
<path fill="none" stroke="black" d="M53.5916,-410.182C87.6278,-414.16 146.197,-421.006 182.442,-425.242"/>
</g>
<!-- 3039 -->
<g id="node2" class="node"><title>3039</title>
<g id="a_node2"><a xlink:title="6th_week">
<ellipse fill="#c81d25" stroke="black" cx="594.886" cy="-502.848" rx="28.6953" ry="18"/>
<text text-anchor="middle" x="594.886" y="-499.148" font-family="Times,serif" font-size="14.00">3039</text>
</a>
</g>
</g>
<!-- 25172 -->
<g id="node6" class="node"><title>25172</title>
<g id="a_node6"><a xlink:title="6th_week">
<ellipse fill="#c81d25" stroke="black" cx="452.314" cy="-449.807" rx="32.4942" ry="18"/>
<text text-anchor="middle" x="452.314" y="-446.107" font-family="Times,serif" font-size="14.00">25172</text>
</a>
</g>
</g>
<!-- 3039&#45;&gt;25172 -->
<g id="edge47" class="edge"><title>3039&#45;&gt;25172</title>
<path fill="none" stroke="black" d="M570.052,-493.609C544.841,-484.23 505.901,-469.743 479.782,-460.026"/>
</g>
<!-- 13205 -->
<g id="node3" class="node"><title>13205</title>
<g id="a_node3"><a xlink:title="6th_week">
<ellipse fill="#c81d25" stroke="black" cx="474.277" cy="-292.122" rx="32.4942" ry="18"/>
<text text-anchor="middle" x="474.277" y="-288.422" font-family="Times,serif" font-size="14.00">13205</text>
</a>
</g>
</g>
<!-- 13205&#45;&gt;25172 -->
<g id="edge71" class="edge"><title>13205&#45;&gt;25172</title>
<path fill="none" stroke="black" d="M471.758,-310.211C467.544,-340.466 459.111,-401.006 454.872,-431.444"/>
</g>
<!-- 15558 -->
<g id="node4" class="node"><title>15558</title>
<g id="a_node4"><a xlink:title="6th_week">
<ellipse fill="#c81d25" stroke="black" cx="309.196" cy="-387.793" rx="32.4942" ry="18"/>
<text text-anchor="middle" x="309.196" y="-384.093" font-family="Times,serif" font-size="14.00">15558</text>
</a>
</g>
</g>
<!-- 15558&#45;&gt;25172 -->
<g id="edge35" class="edge"><title>15558&#45;&gt;25172</title>
<path fill="none" stroke="black" d="M335.113,-399.023C361.051,-410.262 400.72,-427.451 426.589,-438.66"/>
</g>
<!-- 23257 -->
<g id="node5" class="node"><title>23257</title>
<g id="a_node5"><a xlink:title="6th_week">
<ellipse fill="#c81d25" stroke="black" cx="158.568" cy="-126.813" rx="32.4942" ry="18"/>
<text text-anchor="middle" x="158.568" y="-123.113" font-family="Times,serif" font-size="14.00">23257</text>
</a>
</g>
</g>
<!-- 13933 -->
<g id="node16" class="node"><title>13933</title>
<g id="a_node16"><a xlink:title="6th_week">
<ellipse fill="#c81d25" stroke="black" cx="290.887" cy="-272.042" rx="32.4942" ry="18"/>
<text text-anchor="middle" x="290.887" y="-268.342" font-family="Times,serif" font-size="14.00">13933</text>
</a>
</g>
</g>
<!-- 23257&#45;&gt;13933 -->
<g id="edge10" class="edge"><title>23257&#45;&gt;13933</title>
<path fill="none" stroke="black" d="M173.234,-142.91C198.668,-170.826 250.675,-227.907 276.155,-255.873"/>
</g>
<!-- 25172&#45;&gt;26934 -->
<g id="edge1" class="edge"><title>25172&#45;&gt;26934</title>
<path fill="none" stroke="black" d="M420.213,-446.996C374.784,-443.018 292.206,-435.787 246.64,-431.797"/>
</g>
<!-- 3740 -->
<g id="node9" class="node"><title>3740</title>
<g id="a_node9"><a xlink:title="6th_week">
<ellipse fill="#c81d25" stroke="black" cx="242.762" cy="-342.559" rx="28.6953" ry="18"/>
<text text-anchor="middle" x="242.762" y="-338.859" font-family="Times,serif" font-size="14.00">3740</text>
</a>
</g>
</g>
<!-- 25172&#45;&gt;3740 -->
<g id="edge7" class="edge"><title>25172&#45;&gt;3740</title>
<path fill="none" stroke="black" d="M428.276,-437.504C387.424,-416.596 305.023,-374.424 265.25,-354.068"/>
</g>
<!-- 10297 -->
<g id="node11" class="node"><title>10297</title>
<g id="a_node11"><a xlink:title="6th_week">
<ellipse fill="#c81d25" stroke="black" cx="455.122" cy="-211.533" rx="32.4942" ry="18"/>
<text text-anchor="middle" x="455.122" y="-207.833" font-family="Times,serif" font-size="14.00">10297</text>
</a>
</g>
</g>
<!-- 25172&#45;&gt;10297 -->
<g id="edge70" class="edge"><title>25172&#45;&gt;10297</title>
<path fill="none" stroke="black" d="M452.53,-431.506C453.054,-387.044 454.388,-273.758 454.909,-229.571"/>
</g>
<!-- 12169 -->
<g id="node14" class="node"><title>12169</title>
<g id="a_node14"><a xlink:title="Day_0">
<ellipse fill="#e5dada" stroke="black" cx="366.326" cy="-602.85" rx="32.4942" ry="18"/>
<text text-anchor="middle" x="366.326" y="-599.15" font-family="Times,serif" font-size="14.00">12169</text>
</a>
</g>
</g>
<!-- 25172&#45;&gt;12169 -->
<g id="edge11" class="edge"><title>25172&#45;&gt;12169</title>
<path fill="none" stroke="black" d="M442.617,-467.066C426.103,-496.459 392.699,-555.91 376.119,-585.42"/>
</g>
<!-- 13807 -->
<g id="node15" class="node"><title>13807</title>
<g id="a_node15"><a xlink:title="6th_week">
<ellipse fill="#c81d25" stroke="black" cx="527.063" cy="-582.019" rx="32.4942" ry="18"/>
<text text-anchor="middle" x="527.063" y="-578.319" font-family="Times,serif" font-size="14.00">13807</text>
</a>
</g>
</g>
<!-- 25172&#45;&gt;13807 -->
<g id="edge41" class="edge"><title>25172&#45;&gt;13807</title>
<path fill="none" stroke="black" d="M462.086,-467.091C476.412,-492.43 502.961,-539.389 517.288,-564.73"/>
</g>
<!-- 25172&#45;&gt;13933 -->
<g id="edge44" class="edge"><title>25172&#45;&gt;13933</title>
<path fill="none" stroke="black" d="M437.704,-433.718C407.047,-399.959 336.309,-322.062 305.58,-288.223"/>
</g>
<!-- 15170 -->
<g id="node18" class="node"><title>15170</title>
<g id="a_node18"><a xlink:title="6th_week">
<ellipse fill="#c81d25" stroke="black" cx="735.036" cy="-766.154" rx="32.4942" ry="18"/>
<text text-anchor="middle" x="735.036" y="-762.454" font-family="Times,serif" font-size="14.00">15170</text>
</a>
</g>
</g>
<!-- 25172&#45;&gt;15170 -->
<g id="edge23" class="edge"><title>25172&#45;&gt;15170</title>
<path fill="none" stroke="black" d="M467.116,-466.37C515.972,-521.036 671.739,-695.329 720.38,-749.755"/>
</g>
<!-- 15643 -->
<g id="node19" class="node"><title>15643</title>
<g id="a_node19"><a xlink:title="6th_week">
<ellipse fill="#c81d25" stroke="black" cx="316.771" cy="-558.493" rx="32.4942" ry="18"/>
<text text-anchor="middle" x="316.771" y="-554.793" font-family="Times,serif" font-size="14.00">15643</text>
</a>
</g>
</g>
<!-- 25172&#45;&gt;15643 -->
<g id="edge39" class="edge"><title>25172&#45;&gt;15643</title>
<path fill="none" stroke="black" d="M433.752,-464.691C407.94,-485.388 361.468,-522.653 335.544,-543.439"/>
</g>
<!-- 15956 -->
<g id="node20" class="node"><title>15956</title>
<g id="a_node20"><a xlink:title="6th_week">
<ellipse fill="#c81d25" stroke="black" cx="612.148" cy="-363.31" rx="32.4942" ry="18"/>
<text text-anchor="middle" x="612.148" y="-359.61" font-family="Times,serif" font-size="14.00">15956</text>
</a>
</g>
</g>
<!-- 25172&#45;&gt;15956 -->
<g id="edge18" class="edge"><title>25172&#45;&gt;15956</title>
<path fill="none" stroke="black" d="M475.898,-437.044C506.204,-420.643 558.501,-392.342 588.727,-375.984"/>
</g>
<!-- 20856 -->
<g id="node24" class="node"><title>20856</title>
<g id="a_node24"><a xlink:title="6th_week">
<ellipse fill="#c81d25" stroke="black" cx="557.353" cy="-318.709" rx="32.4942" ry="18"/>
<text text-anchor="middle" x="557.353" y="-315.009" font-family="Times,serif" font-size="14.00">20856</text>
</a>
</g>
</g>
<!-- 25172&#45;&gt;20856 -->
<g id="edge51" class="edge"><title>25172&#45;&gt;20856</title>
<path fill="none" stroke="black" d="M465.617,-433.203C485.822,-407.986 524.018,-360.315 544.158,-335.178"/>
</g>
<!-- 21132 -->
<g id="node25" class="node"><title>21132</title>
<g id="a_node25"><a xlink:title="6th_week">
<ellipse fill="#c81d25" stroke="black" cx="377.362" cy="-312.179" rx="32.4942" ry="18"/>
<text text-anchor="middle" x="377.362" y="-308.479" font-family="Times,serif" font-size="14.00">21132</text>
</a>
</g>
</g>
<!-- 25172&#45;&gt;21132 -->
<g id="edge27" class="edge"><title>25172&#45;&gt;21132</title>
<path fill="none" stroke="black" d="M442.821,-432.376C428.404,-405.903 401.149,-355.857 386.778,-329.468"/>
</g>
<!-- 22958 -->
<g id="node26" class="node"><title>22958</title>
<g id="a_node26"><a xlink:title="6th_week">
<ellipse fill="#c81d25" stroke="black" cx="295.068" cy="-479.585" rx="32.4942" ry="18"/>
<text text-anchor="middle" x="295.068" y="-475.885" font-family="Times,serif" font-size="14.00">22958</text>
</a>
</g>
</g>
<!-- 25172&#45;&gt;22958 -->
<g id="edge42" class="edge"><title>25172&#45;&gt;22958</title>
<path fill="none" stroke="black" d="M421.247,-455.69C393.68,-460.911 353.618,-468.497 326.07,-473.714"/>
</g>
<!-- 23760 -->
<g id="node27" class="node"><title>23760</title>
<g id="a_node27"><a xlink:title="6th_week">
<ellipse fill="#c81d25" stroke="black" cx="366.442" cy="-226.082" rx="32.4942" ry="18"/>
<text text-anchor="middle" x="366.442" y="-222.382" font-family="Times,serif" font-size="14.00">23760</text>
</a>
</g>
</g>
<!-- 25172&#45;&gt;23760 -->
<g id="edge67" class="edge"><title>25172&#45;&gt;23760</title>
<path fill="none" stroke="black" d="M445.432,-431.877C429.313,-389.883 389.271,-285.557 373.238,-243.787"/>
</g>
<!-- 24114 -->
<g id="node28" class="node"><title>24114</title>
<g id="a_node28"><a xlink:title="6th_week">
<ellipse fill="#c81d25" stroke="black" cx="439.405" cy="-611.794" rx="32.4942" ry="18"/>
<text text-anchor="middle" x="439.405" y="-608.094" font-family="Times,serif" font-size="14.00">24114</text>
</a>
</g>
</g>
<!-- 25172&#45;&gt;24114 -->
<g id="edge20" class="edge"><title>25172&#45;&gt;24114</title>
<path fill="none" stroke="black" d="M450.858,-468.074C448.379,-499.185 443.364,-562.111 440.875,-593.345"/>
</g>
<!-- 27824 -->
<g id="node30" class="node"><title>27824</title>
<g id="a_node30"><a xlink:title="6th_week">
<ellipse fill="#c81d25" stroke="black" cx="230.394" cy="-531.009" rx="32.4942" ry="18"/>
<text text-anchor="middle" x="230.394" y="-527.309" font-family="Times,serif" font-size="14.00">27824</text>
</a>
</g>
</g>
<!-- 25172&#45;&gt;27824 -->
<g id="edge34" class="edge"><title>25172&#45;&gt;27824</title>
<path fill="none" stroke="black" d="M425.102,-459.764C382.51,-475.349 300.557,-505.336 257.828,-520.971"/>
</g>
<!-- 31293 -->
<g id="node33" class="node"><title>31293</title>
<g id="a_node33"><a xlink:title="6th_week">
<ellipse fill="#c81d25" stroke="black" cx="619.687" cy="-427.422" rx="32.4942" ry="18"/>
<text text-anchor="middle" x="619.687" y="-423.722" font-family="Times,serif" font-size="14.00">31293</text>
</a>
</g>
</g>
<!-- 25172&#45;&gt;31293 -->
<g id="edge32" class="edge"><title>25172&#45;&gt;31293</title>
<path fill="none" stroke="black" d="M484.19,-445.544C513.972,-441.561 558.187,-435.648 587.93,-431.67"/>
</g>
<!-- 31331 -->
<g id="node34" class="node"><title>31331</title>
<g id="a_node34"><a xlink:title="6th_week">
<ellipse fill="#c81d25" stroke="black" cx="556.007" cy="-237.499" rx="32.4942" ry="18"/>
<text text-anchor="middle" x="556.007" y="-233.799" font-family="Times,serif" font-size="14.00">31331</text>
</a>
</g>
</g>
<!-- 25172&#45;&gt;31331 -->
<g id="edge68" class="edge"><title>25172&#45;&gt;31331</title>
<path fill="none" stroke="black" d="M460.977,-432.071C480.544,-392.007 527.968,-294.908 547.442,-255.035"/>
</g>
<!-- 3432 -->
<g id="node8" class="node"><title>3432</title>
<g id="a_node8"><a xlink:title="6th_week">
<ellipse fill="#c81d25" stroke="black" cx="1531.11" cy="-1162.37" rx="28.6953" ry="18"/>
<text text-anchor="middle" x="1531.11" y="-1158.67" font-family="Times,serif" font-size="14.00">3432</text>
</a>
</g>
</g>
<!-- 26247 -->
<g id="node29" class="node"><title>26247</title>
<g id="a_node29"><a xlink:title="6th_week">
<ellipse fill="#c81d25" stroke="black" cx="1349.13" cy="-1346.46" rx="32.4942" ry="18"/>
<text text-anchor="middle" x="1349.13" y="-1342.76" font-family="Times,serif" font-size="14.00">26247</text>
</a>
</g>
</g>
<!-- 3432&#45;&gt;26247 -->
<g id="edge15" class="edge"><title>3432&#45;&gt;26247</title>
<path fill="none" stroke="black" d="M1515.91,-1177.74C1481.82,-1212.22 1399.58,-1295.42 1364.93,-1330.47"/>
</g>
<!-- 6708 -->
<g id="node40" class="node"><title>6708</title>
<g id="a_node40"><a xlink:title="6th_week">
<ellipse fill="#c81d25" stroke="black" cx="1696.57" cy="-1037.27" rx="28.6953" ry="18"/>
<text text-anchor="middle" x="1696.57" y="-1033.57" font-family="Times,serif" font-size="14.00">6708</text>
</a>
</g>
</g>
<!-- 3432&#45;&gt;6708 -->
<g id="edge24" class="edge"><title>3432&#45;&gt;6708</title>
<path fill="none" stroke="black" d="M1549.45,-1148.5C1581.26,-1124.45 1646.29,-1075.28 1678.15,-1051.2"/>
</g>
<!-- 10994 -->
<g id="node47" class="node"><title>10994</title>
<g id="a_node47"><a xlink:title="6th_week">
<ellipse fill="#c81d25" stroke="black" cx="1606.61" cy="-1012.09" rx="32.4942" ry="18"/>
<text text-anchor="middle" x="1606.61" y="-1008.39" font-family="Times,serif" font-size="14.00">10994</text>
</a>
</g>
</g>
<!-- 3432&#45;&gt;10994 -->
<g id="edge66" class="edge"><title>3432&#45;&gt;10994</title>
<path fill="none" stroke="black" d="M1539.77,-1145.13C1554.26,-1116.29 1583.25,-1058.6 1597.82,-1029.59"/>
</g>
<!-- 28138 -->
<g id="node31" class="node"><title>28138</title>
<g id="a_node31"><a xlink:title="6th_week">
<ellipse fill="#c81d25" stroke="black" cx="72.5628" cy="-253.611" rx="32.4942" ry="18"/>
<text text-anchor="middle" x="72.5628" y="-249.911" font-family="Times,serif" font-size="14.00">28138</text>
</a>
</g>
</g>
<!-- 3740&#45;&gt;28138 -->
<g id="edge54" class="edge"><title>3740&#45;&gt;28138</title>
<path fill="none" stroke="black" d="M220.512,-330.93C188.434,-314.166 129.437,-283.334 96.4637,-266.102"/>
</g>
<!-- 5747 -->
<g id="node10" class="node"><title>5747</title>
<g id="a_node10"><a xlink:title="6th_week">
<ellipse fill="#c81d25" stroke="black" cx="500.519" cy="-1022.5" rx="28.6953" ry="18"/>
<text text-anchor="middle" x="500.519" y="-1018.8" font-family="Times,serif" font-size="14.00">5747</text>
</a>
</g>
</g>
<!-- 14402 -->
<g id="node17" class="node"><title>14402</title>
<g id="a_node17"><a xlink:title="6th_week">
<ellipse fill="#c81d25" stroke="black" cx="615.455" cy="-908.526" rx="32.4942" ry="18"/>
<text text-anchor="middle" x="615.455" y="-904.826" font-family="Times,serif" font-size="14.00">14402</text>
</a>
</g>
</g>
<!-- 5747&#45;&gt;14402 -->
<g id="edge46" class="edge"><title>5747&#45;&gt;14402</title>
<path fill="none" stroke="black" d="M516.02,-1007.13C537.833,-985.498 577.385,-946.277 599.462,-924.385"/>
</g>
<!-- 33728 -->
<g id="node35" class="node"><title>33728</title>
<g id="a_node35"><a xlink:title="6th_week">
<ellipse fill="#c81d25" stroke="black" cx="451.162" cy="-17.8679" rx="32.4942" ry="18"/>
<text text-anchor="middle" x="451.162" y="-14.1679" font-family="Times,serif" font-size="14.00">33728</text>
</a>
</g>
</g>
<!-- 10297&#45;&gt;33728 -->
<g id="edge59" class="edge"><title>10297&#45;&gt;33728</title>
<path fill="none" stroke="black" d="M454.749,-193.314C453.992,-156.308 452.284,-72.7435 451.53,-35.8979"/>
</g>
<!-- 10348 -->
<g id="node12" class="node"><title>10348</title>
<g id="a_node12"><a xlink:title="6th_week">
<ellipse fill="#c81d25" stroke="black" cx="629.054" cy="-62.455" rx="32.4942" ry="18"/>
<text text-anchor="middle" x="629.054" y="-58.755" font-family="Times,serif" font-size="14.00">10348</text>
</a>
</g>
</g>
<!-- 10348&#45;&gt;31331 -->
<g id="edge17" class="edge"><title>10348&#45;&gt;31331</title>
<path fill="none" stroke="black" d="M621.648,-80.2024C607.647,-113.752 577.448,-186.118 563.433,-219.704"/>
</g>
<!-- 11112 -->
<g id="node13" class="node"><title>11112</title>
<g id="a_node13"><a xlink:title="6th_week">
<ellipse fill="#c81d25" stroke="black" cx="292.509" cy="-44.9312" rx="32.4942" ry="18"/>
<text text-anchor="middle" x="292.509" y="-41.2312" font-family="Times,serif" font-size="14.00">11112</text>
</a>
</g>
</g>
<!-- 11112&#45;&gt;23760 -->
<g id="edge16" class="edge"><title>11112&#45;&gt;23760</title>
<path fill="none" stroke="black" d="M299.732,-62.6305C313.867,-97.2623 345.031,-173.621 359.189,-208.311"/>
</g>
<!-- 14402&#45;&gt;15170 -->
<g id="edge50" class="edge"><title>14402&#45;&gt;15170</title>
<path fill="none" stroke="black" d="M629.172,-892.194C652.116,-864.877 698.028,-810.215 721.11,-782.734"/>
</g>
<!-- 16636 -->
<g id="node54" class="node"><title>16636</title>
<g id="a_node54"><a xlink:title="6th_week">
<ellipse fill="#c81d25" stroke="black" cx="1040.49" cy="-1054.79" rx="32.4942" ry="18"/>
<text text-anchor="middle" x="1040.49" y="-1051.09" font-family="Times,serif" font-size="14.00">16636</text>
</a>
</g>
</g>
<!-- 15170&#45;&gt;16636 -->
<g id="edge69" class="edge"><title>15170&#45;&gt;16636</title>
<path fill="none" stroke="black" d="M751.894,-782.083C805.298,-832.548 970.354,-988.516 1023.69,-1038.91"/>
</g>
<!-- 16331 -->
<g id="node21" class="node"><title>16331</title>
<g id="a_node21"><a xlink:title="6th_week">
<ellipse fill="#c81d25" stroke="black" cx="47.4954" cy="-586.045" rx="32.4942" ry="18"/>
<text text-anchor="middle" x="47.4954" y="-582.345" font-family="Times,serif" font-size="14.00">16331</text>
</a>
</g>
</g>
<!-- 16331&#45;&gt;27824 -->
<g id="edge2" class="edge"><title>16331&#45;&gt;27824</title>
<path fill="none" stroke="black" d="M76.0733,-577.445C110.333,-567.136 167.411,-549.961 201.715,-539.639"/>
</g>
<!-- 17802 -->
<g id="node22" class="node"><title>17802</title>
<g id="a_node22"><a xlink:title="6th_week">
<ellipse fill="#c81d25" stroke="black" cx="1154.99" cy="-1438.5" rx="32.4942" ry="18"/>
<text text-anchor="middle" x="1154.99" y="-1434.8" font-family="Times,serif" font-size="14.00">17802</text>
</a>
</g>
</g>
<!-- 17802&#45;&gt;26247 -->
<g id="edge29" class="edge"><title>17802&#45;&gt;26247</title>
<path fill="none" stroke="black" d="M1179.97,-1426.65C1217.25,-1408.98 1287.02,-1375.9 1324.24,-1358.26"/>
</g>
<!-- 31333 -->
<g id="node67" class="node"><title>31333</title>
<g id="a_node67"><a xlink:title="6th_week">
<ellipse fill="#c81d25" stroke="black" cx="997.468" cy="-1523.31" rx="32.4942" ry="18"/>
<text text-anchor="middle" x="997.468" y="-1519.61" font-family="Times,serif" font-size="14.00">31333</text>
</a>
</g>
</g>
<!-- 17802&#45;&gt;31333 -->
<g id="edge56" class="edge"><title>17802&#45;&gt;31333</title>
<path fill="none" stroke="black" d="M1131.4,-1451.19C1101.62,-1467.23 1050.69,-1494.65 1020.95,-1510.66"/>
</g>
<!-- 19862 -->
<g id="node23" class="node"><title>19862</title>
<g id="a_node23"><a xlink:title="6th_week">
<ellipse fill="#c81d25" stroke="black" cx="1699.39" cy="-1800.54" rx="32.4942" ry="18"/>
<text text-anchor="middle" x="1699.39" y="-1796.84" font-family="Times,serif" font-size="14.00">19862</text>
</a>
</g>
</g>
<!-- 36736 -->
<g id="node37" class="node"><title>36736</title>
<g id="a_node37"><a xlink:title="6th_week">
<ellipse fill="#c81d25" stroke="black" cx="1678.59" cy="-1626.24" rx="32.4942" ry="18"/>
<text text-anchor="middle" x="1678.59" y="-1622.54" font-family="Times,serif" font-size="14.00">36736</text>
</a>
</g>
</g>
<!-- 19862&#45;&gt;36736 -->
<g id="edge33" class="edge"><title>19862&#45;&gt;36736</title>
<path fill="none" stroke="black" d="M1697.25,-1782.54C1693.26,-1749.14 1684.76,-1677.92 1680.76,-1644.4"/>
</g>
<!-- 26247&#45;&gt;36736 -->
<g id="edge25" class="edge"><title>26247&#45;&gt;36736</title>
<path fill="none" stroke="black" d="M1367.31,-1361.9C1424.91,-1410.81 1602.94,-1561.99 1660.46,-1610.84"/>
</g>
<!-- 178 -->
<g id="node38" class="node"><title>178</title>
<g id="a_node38"><a xlink:title="6th_week">
<ellipse fill="#c81d25" stroke="black" cx="1431.52" cy="-1218.88" rx="27" ry="18"/>
<text text-anchor="middle" x="1431.52" y="-1215.18" font-family="Times,serif" font-size="14.00">178</text>
</a>
</g>
</g>
<!-- 26247&#45;&gt;178 -->
<g id="edge21" class="edge"><title>26247&#45;&gt;178</title>
<path fill="none" stroke="black" d="M1360.24,-1329.25C1376.05,-1304.77 1404.87,-1260.14 1420.58,-1235.81"/>
</g>
<!-- 6834 -->
<g id="node41" class="node"><title>6834</title>
<g id="a_node41"><a xlink:title="6th_week">
<ellipse fill="#c81d25" stroke="black" cx="1214.61" cy="-1265.64" rx="28.6953" ry="18"/>
<text text-anchor="middle" x="1214.61" y="-1261.94" font-family="Times,serif" font-size="14.00">6834</text>
</a>
</g>
</g>
<!-- 26247&#45;&gt;6834 -->
<g id="edge38" class="edge"><title>26247&#45;&gt;6834</title>
<path fill="none" stroke="black" d="M1326.91,-1333.11C1301.54,-1317.87 1260.34,-1293.12 1235.53,-1278.21"/>
</g>
<!-- 7209 -->
<g id="node43" class="node"><title>7209</title>
<g id="a_node43"><a xlink:title="6th_week">
<ellipse fill="#c81d25" stroke="black" cx="1277.52" cy="-1205.1" rx="28.6953" ry="18"/>
<text text-anchor="middle" x="1277.52" y="-1201.4" font-family="Times,serif" font-size="14.00">7209</text>
</a>
</g>
</g>
<!-- 26247&#45;&gt;7209 -->
<g id="edge4" class="edge"><title>26247&#45;&gt;7209</title>
<path fill="none" stroke="black" d="M1340.35,-1329.12C1326.6,-1301.99 1300.16,-1249.79 1286.37,-1222.57"/>
</g>
<!-- 8469 -->
<g id="node44" class="node"><title>8469</title>
<g id="a_node44"><a xlink:title="6th_week">
<ellipse fill="#c81d25" stroke="black" cx="1339.73" cy="-1501.86" rx="28.6953" ry="18"/>
<text text-anchor="middle" x="1339.73" y="-1498.16" font-family="Times,serif" font-size="14.00">8469</text>
</a>
</g>
</g>
<!-- 26247&#45;&gt;8469 -->
<g id="edge12" class="edge"><title>26247&#45;&gt;8469</title>
<path fill="none" stroke="black" d="M1348.03,-1364.59C1346.22,-1394.53 1342.63,-1453.97 1340.82,-1483.84"/>
</g>
<!-- 8979 -->
<g id="node45" class="node"><title>8979</title>
<g id="a_node45"><a xlink:title="6th_week">
<ellipse fill="#c81d25" stroke="black" cx="1356.44" cy="-1184.16" rx="28.6953" ry="18"/>
<text text-anchor="middle" x="1356.44" y="-1180.46" font-family="Times,serif" font-size="14.00">8979</text>
</a>
</g>
</g>
<!-- 26247&#45;&gt;8979 -->
<g id="edge61" class="edge"><title>26247&#45;&gt;8979</title>
<path fill="none" stroke="black" d="M1349.95,-1328.16C1351.35,-1296.99 1354.19,-1233.94 1355.6,-1202.65"/>
</g>
<!-- 15697 -->
<g id="node51" class="node"><title>15697</title>
<g id="a_node51"><a xlink:title="6th_week">
<ellipse fill="#c81d25" stroke="black" cx="1248.11" cy="-1459.65" rx="32.4942" ry="18"/>
<text text-anchor="middle" x="1248.11" y="-1455.95" font-family="Times,serif" font-size="14.00">15697</text>
</a>
</g>
</g>
<!-- 26247&#45;&gt;15697 -->
<g id="edge62" class="edge"><title>26247&#45;&gt;15697</title>
<path fill="none" stroke="black" d="M1334.65,-1362.68C1315.45,-1384.19 1281.75,-1421.96 1262.56,-1443.46"/>
</g>
<!-- 26247&#45;&gt;16636 -->
<g id="edge8" class="edge"><title>26247&#45;&gt;16636</title>
<path fill="none" stroke="black" d="M1332.53,-1330.78C1278.94,-1280.13 1110.87,-1121.3 1057.17,-1070.55"/>
</g>
<!-- 18847 -->
<g id="node55" class="node"><title>18847</title>
<g id="a_node55"><a xlink:title="6th_week">
<ellipse fill="#c81d25" stroke="black" cx="1430.92" cy="-1476.46" rx="32.4942" ry="18"/>
<text text-anchor="middle" x="1430.92" y="-1472.76" font-family="Times,serif" font-size="14.00">18847</text>
</a>
</g>
</g>
<!-- 26247&#45;&gt;18847 -->
<g id="edge58" class="edge"><title>26247&#45;&gt;18847</title>
<path fill="none" stroke="black" d="M1359.99,-1363.72C1375.63,-1388.59 1404.34,-1434.22 1420.01,-1459.12"/>
</g>
<!-- 25098 -->
<g id="node60" class="node"><title>25098</title>
<g id="a_node60"><a xlink:title="6th_week">
<ellipse fill="#c81d25" stroke="black" cx="1187.74" cy="-1345.62" rx="32.4942" ry="18"/>
<text text-anchor="middle" x="1187.74" y="-1341.92" font-family="Times,serif" font-size="14.00">25098</text>
</a>
</g>
</g>
<!-- 26247&#45;&gt;25098 -->
<g id="edge30" class="edge"><title>26247&#45;&gt;25098</title>
<path fill="none" stroke="black" d="M1316.47,-1346.29C1288.47,-1346.14 1248.34,-1345.94 1220.35,-1345.79"/>
</g>
<!-- 27130 -->
<g id="node62" class="node"><title>27130</title>
<g id="a_node62"><a xlink:title="6th_week">
<ellipse fill="#c81d25" stroke="black" cx="1500.46" cy="-1290.39" rx="32.4942" ry="18"/>
<text text-anchor="middle" x="1500.46" y="-1286.69" font-family="Times,serif" font-size="14.00">27130</text>
</a>
</g>
</g>
<!-- 26247&#45;&gt;27130 -->
<g id="edge14" class="edge"><title>26247&#45;&gt;27130</title>
<path fill="none" stroke="black" d="M1376.18,-1336.43C1403.64,-1326.26 1445.92,-1310.6 1473.38,-1300.42"/>
</g>
<!-- 28189 -->
<g id="node64" class="node"><title>28189</title>
<g id="a_node64"><a xlink:title="6th_week">
<ellipse fill="#c81d25" stroke="black" cx="1222.96" cy="-1562.37" rx="32.4942" ry="18"/>
<text text-anchor="middle" x="1222.96" y="-1558.67" font-family="Times,serif" font-size="14.00">28189</text>
</a>
</g>
</g>
<!-- 26247&#45;&gt;28189 -->
<g id="edge49" class="edge"><title>26247&#45;&gt;28189</title>
<path fill="none" stroke="black" d="M1339.02,-1363.76C1315.39,-1404.19 1256.79,-1504.47 1233.12,-1544.98"/>
</g>
<!-- 31673 -->
<g id="node69" class="node"><title>31673</title>
<g id="a_node69"><a xlink:title="6th_week">
<ellipse fill="#c81d25" stroke="black" cx="1500.66" cy="-1381.95" rx="32.4942" ry="18"/>
<text text-anchor="middle" x="1500.66" y="-1378.25" font-family="Times,serif" font-size="14.00">31673</text>
</a>
</g>
</g>
<!-- 26247&#45;&gt;31673 -->
<g id="edge57" class="edge"><title>26247&#45;&gt;31673</title>
<path fill="none" stroke="black" d="M1379.06,-1353.47C1405.54,-1359.67 1443.99,-1368.68 1470.52,-1374.9"/>
</g>
<!-- 28394 -->
<g id="node32" class="node"><title>28394</title>
<g id="a_node32"><a xlink:title="6th_week">
<ellipse fill="#c81d25" stroke="black" cx="1987.06" cy="-1874.18" rx="32.4942" ry="18"/>
<text text-anchor="middle" x="1987.06" y="-1870.48" font-family="Times,serif" font-size="14.00">28394</text>
</a>
</g>
</g>
<!-- 34477 -->
<g id="node36" class="node"><title>34477</title>
<g id="a_node36"><a xlink:title="6th_week">
<ellipse fill="#c81d25" stroke="black" cx="2141.61" cy="-1898.22" rx="32.4942" ry="18"/>
<text text-anchor="middle" x="2141.61" y="-1894.52" font-family="Times,serif" font-size="14.00">34477</text>
</a>
</g>
</g>
<!-- 28394&#45;&gt;34477 -->
<g id="edge37" class="edge"><title>28394&#45;&gt;34477</title>
<path fill="none" stroke="black" d="M2018.71,-1879.1C2045.47,-1883.26 2083.59,-1889.2 2110.27,-1893.35"/>
</g>
<!-- 28394&#45;&gt;36736 -->
<g id="edge19" class="edge"><title>28394&#45;&gt;36736</title>
<path fill="none" stroke="black" d="M1968.23,-1859.04C1913.03,-1814.67 1752.06,-1685.29 1697.17,-1641.17"/>
</g>
<!-- 10019 -->
<g id="node46" class="node"><title>10019</title>
<g id="a_node46"><a xlink:title="6th_week">
<ellipse fill="#c81d25" stroke="black" cx="2022.63" cy="-2033.23" rx="32.4942" ry="18"/>
<text text-anchor="middle" x="2022.63" y="-2029.53" font-family="Times,serif" font-size="14.00">10019</text>
</a>
</g>
</g>
<!-- 28394&#45;&gt;10019 -->
<g id="edge65" class="edge"><title>28394&#45;&gt;10019</title>
<path fill="none" stroke="black" d="M1991.07,-1892.11C1997.9,-1922.66 2011.72,-1984.45 2018.58,-2015.12"/>
</g>
<!-- 11238 -->
<g id="node48" class="node"><title>11238</title>
<g id="a_node48"><a xlink:title="6th_week">
<ellipse fill="#c81d25" stroke="black" cx="1897.54" cy="-2020.95" rx="32.4942" ry="18"/>
<text text-anchor="middle" x="1897.54" y="-2017.25" font-family="Times,serif" font-size="14.00">11238</text>
</a>
</g>
</g>
<!-- 28394&#45;&gt;11238 -->
<g id="edge43" class="edge"><title>28394&#45;&gt;11238</title>
<path fill="none" stroke="black" d="M1976.62,-1891.3C1959.46,-1919.43 1925.49,-1975.13 1908.19,-2003.48"/>
</g>
<!-- 15114 -->
<g id="node50" class="node"><title>15114</title>
<g id="a_node50"><a xlink:title="6th_week">
<ellipse fill="#c81d25" stroke="black" cx="2107.07" cy="-2044.11" rx="32.4942" ry="18"/>
<text text-anchor="middle" x="2107.07" y="-2040.41" font-family="Times,serif" font-size="14.00">15114</text>
</a>
</g>
</g>
<!-- 28394&#45;&gt;15114 -->
<g id="edge63" class="edge"><title>28394&#45;&gt;15114</title>
<path fill="none" stroke="black" d="M1999.01,-1891.09C2022.01,-1923.67 2072.2,-1994.74 2095.17,-2027.26"/>
</g>
<!-- 16457 -->
<g id="node53" class="node"><title>16457</title>
<g id="a_node53"><a xlink:title="6th_week">
<ellipse fill="#c81d25" stroke="black" cx="1949" cy="-2065.27" rx="32.4942" ry="18"/>
<text text-anchor="middle" x="1949" y="-2061.57" font-family="Times,serif" font-size="14.00">16457</text>
</a>
</g>
</g>
<!-- 28394&#45;&gt;16457 -->
<g id="edge9" class="edge"><title>28394&#45;&gt;16457</title>
<path fill="none" stroke="black" d="M1983.48,-1892.15C1976.23,-1928.57 1959.87,-2010.7 1952.6,-2047.2"/>
</g>
<!-- 21164 -->
<g id="node59" class="node"><title>21164</title>
<g id="a_node59"><a xlink:title="6th_week">
<ellipse fill="#c81d25" stroke="black" cx="2034.03" cy="-2078.12" rx="32.4942" ry="18"/>
<text text-anchor="middle" x="2034.03" y="-2074.42" font-family="Times,serif" font-size="14.00">21164</text>
</a>
</g>
</g>
<!-- 28394&#45;&gt;21164 -->
<g id="edge31" class="edge"><title>28394&#45;&gt;21164</title>
<path fill="none" stroke="black" d="M1991.23,-1892.28C2000.14,-1930.98 2020.97,-2021.4 2029.87,-2060.06"/>
</g>
<!-- 27831 -->
<g id="node63" class="node"><title>27831</title>
<g id="a_node63"><a xlink:title="6th_week">
<ellipse fill="#c81d25" stroke="black" cx="2178.86" cy="-1942.98" rx="32.4942" ry="18"/>
<text text-anchor="middle" x="2178.86" y="-1939.28" font-family="Times,serif" font-size="14.00">27831</text>
</a>
</g>
</g>
<!-- 28394&#45;&gt;27831 -->
<g id="edge55" class="edge"><title>28394&#45;&gt;27831</title>
<path fill="none" stroke="black" d="M2014.54,-1884.03C2051,-1897.11 2115,-1920.07 2151.43,-1933.14"/>
</g>
<!-- 30083 -->
<g id="node65" class="node"><title>30083</title>
<g id="a_node65"><a xlink:title="6th_week">
<ellipse fill="#c81d25" stroke="black" cx="2159.8" cy="-1818.83" rx="32.4942" ry="18"/>
<text text-anchor="middle" x="2159.8" y="-1815.13" font-family="Times,serif" font-size="14.00">30083</text>
</a>
</g>
</g>
<!-- 28394&#45;&gt;30083 -->
<g id="edge28" class="edge"><title>28394&#45;&gt;30083</title>
<path fill="none" stroke="black" d="M2015.2,-1865.16C2047.23,-1854.9 2099.25,-1838.24 2131.39,-1827.94"/>
</g>
<!-- 31259 -->
<g id="node66" class="node"><title>31259</title>
<g id="a_node66"><a xlink:title="6th_week">
<ellipse fill="#c81d25" stroke="black" cx="2214.99" cy="-1863.43" rx="32.4942" ry="18"/>
<text text-anchor="middle" x="2214.99" y="-1859.73" font-family="Times,serif" font-size="14.00">31259</text>
</a>
</g>
</g>
<!-- 28394&#45;&gt;31259 -->
<g id="edge40" class="edge"><title>28394&#45;&gt;31259</title>
<path fill="none" stroke="black" d="M2019.72,-1872.64C2063.05,-1870.6 2139.09,-1867.01 2182.39,-1864.97"/>
</g>
<!-- 31417 -->
<g id="node68" class="node"><title>31417</title>
<g id="a_node68"><a xlink:title="6th_week">
<ellipse fill="#c81d25" stroke="black" cx="2077.58" cy="-1988.84" rx="32.4942" ry="18"/>
<text text-anchor="middle" x="2077.58" y="-1985.14" font-family="Times,serif" font-size="14.00">31417</text>
</a>
</g>
</g>
<!-- 28394&#45;&gt;31417 -->
<g id="edge5" class="edge"><title>28394&#45;&gt;31417</title>
<path fill="none" stroke="black" d="M2000.42,-1891.1C2017.63,-1912.9 2047.37,-1950.57 2064.46,-1972.23"/>
</g>
<!-- 32396 -->
<g id="node70" class="node"><title>32396</title>
<g id="a_node70"><a xlink:title="6th_week">
<ellipse fill="#c81d25" stroke="black" cx="2150.87" cy="-1994.89" rx="32.4942" ry="18"/>
<text text-anchor="middle" x="2150.87" y="-1991.19" font-family="Times,serif" font-size="14.00">32396</text>
</a>
</g>
</g>
<!-- 28394&#45;&gt;32396 -->
<g id="edge22" class="edge"><title>28394&#45;&gt;32396</title>
<path fill="none" stroke="black" d="M2006.82,-1888.74C2038.39,-1912 2099.85,-1957.29 2131.3,-1980.47"/>
</g>
<!-- 35858 -->
<g id="node72" class="node"><title>35858</title>
<g id="a_node72"><a xlink:title="6th_week">
<ellipse fill="#c81d25" stroke="black" cx="2125.18" cy="-1765.19" rx="32.4942" ry="18"/>
<text text-anchor="middle" x="2125.18" y="-1761.49" font-family="Times,serif" font-size="14.00">35858</text>
</a>
</g>
</g>
<!-- 28394&#45;&gt;35858 -->
<g id="edge13" class="edge"><title>28394&#45;&gt;35858</title>
<path fill="none" stroke="black" d="M2005.98,-1859.25C2032.43,-1838.38 2080.17,-1800.71 2106.5,-1779.94"/>
</g>
<!-- 437 -->
<g id="node39" class="node"><title>437</title>
<g id="a_node39"><a xlink:title="6th_week">
<ellipse fill="#c81d25" stroke="black" cx="1775.89" cy="-1744.08" rx="27" ry="18"/>
<text text-anchor="middle" x="1775.89" y="-1740.38" font-family="Times,serif" font-size="14.00">437</text>
</a>
</g>
</g>
<!-- 36736&#45;&gt;437 -->
<g id="edge36" class="edge"><title>36736&#45;&gt;437</title>
<path fill="none" stroke="black" d="M1692.12,-1642.62C1710.81,-1665.26 1744.32,-1705.85 1762.79,-1728.21"/>
</g>
<!-- 14228 -->
<g id="node49" class="node"><title>14228</title>
<g id="a_node49"><a xlink:title="6th_week">
<ellipse fill="#c81d25" stroke="black" cx="1635.66" cy="-1756.34" rx="32.4942" ry="18"/>
<text text-anchor="middle" x="1635.66" y="-1752.64" font-family="Times,serif" font-size="14.00">14228</text>
</a>
</g>
</g>
<!-- 36736&#45;&gt;14228 -->
<g id="edge48" class="edge"><title>36736&#45;&gt;14228</title>
<path fill="none" stroke="black" d="M1672.71,-1644.05C1664.53,-1668.83 1649.81,-1713.43 1641.6,-1738.32"/>
</g>
<!-- 16281 -->
<g id="node52" class="node"><title>16281</title>
<g id="a_node52"><a xlink:title="6th_week">
<ellipse fill="#c81d25" stroke="black" cx="1803.08" cy="-1516.76" rx="32.4942" ry="18"/>
<text text-anchor="middle" x="1803.08" y="-1513.06" font-family="Times,serif" font-size="14.00">16281</text>
</a>
</g>
</g>
<!-- 36736&#45;&gt;16281 -->
<g id="edge52" class="edge"><title>36736&#45;&gt;16281</title>
<path fill="none" stroke="black" d="M1696.16,-1610.78C1719.89,-1589.92 1761.92,-1552.96 1785.6,-1532.13"/>
</g>
<!-- 20716 -->
<g id="node57" class="node"><title>20716</title>
<g id="a_node57"><a xlink:title="6th_week">
<ellipse fill="#c81d25" stroke="black" cx="1836.83" cy="-1662.87" rx="32.4942" ry="18"/>
<text text-anchor="middle" x="1836.83" y="-1659.17" font-family="Times,serif" font-size="14.00">20716</text>
</a>
</g>
</g>
<!-- 36736&#45;&gt;20716 -->
<g id="edge60" class="edge"><title>36736&#45;&gt;20716</title>
<path fill="none" stroke="black" d="M1708.73,-1633.21C1736.88,-1639.73 1778.69,-1649.41 1806.81,-1655.92"/>
</g>
<!-- 26174 -->
<g id="node61" class="node"><title>26174</title>
<g id="a_node61"><a xlink:title="6th_week">
<ellipse fill="#c81d25" stroke="black" cx="1843.63" cy="-1581.64" rx="32.4942" ry="18"/>
<text text-anchor="middle" x="1843.63" y="-1577.94" font-family="Times,serif" font-size="14.00">26174</text>
</a>
</g>
</g>
<!-- 36736&#45;&gt;26174 -->
<g id="edge3" class="edge"><title>36736&#45;&gt;26174</title>
<path fill="none" stroke="black" d="M1708.09,-1618.26C1738.13,-1610.14 1784.43,-1597.63 1814.38,-1589.54"/>
</g>
<!-- 32476 -->
<g id="node71" class="node"><title>32476</title>
<g id="a_node71"><a xlink:title="6th_week">
<ellipse fill="#c81d25" stroke="black" cx="1561.95" cy="-1765.59" rx="32.4942" ry="18"/>
<text text-anchor="middle" x="1561.95" y="-1761.89" font-family="Times,serif" font-size="14.00">32476</text>
</a>
</g>
</g>
<!-- 36736&#45;&gt;32476 -->
<g id="edge53" class="edge"><title>36736&#45;&gt;32476</title>
<path fill="none" stroke="black" d="M1664.75,-1642.77C1642.3,-1669.59 1598.21,-1722.27 1575.77,-1749.08"/>
</g>
<!-- 19036 -->
<g id="node56" class="node"><title>19036</title>
<g id="a_node56"><a xlink:title="6th_week">
<ellipse fill="#c81d25" stroke="black" cx="1830.56" cy="-925.249" rx="32.4942" ry="18"/>
<text text-anchor="middle" x="1830.56" y="-921.549" font-family="Times,serif" font-size="14.00">19036</text>
</a>
</g>
</g>
<!-- 6708&#45;&gt;19036 -->
<g id="edge64" class="edge"><title>6708&#45;&gt;19036</title>
<path fill="none" stroke="black" d="M1713.81,-1022.85C1739.26,-1001.58 1786.64,-961.968 1812.53,-940.323"/>
</g>
<!-- 7164 -->
<g id="node42" class="node"><title>7164</title>
<g id="a_node42"><a xlink:title="6th_week">
<ellipse fill="#c81d25" stroke="black" cx="1167.87" cy="-1732.64" rx="28.6953" ry="18"/>
<text text-anchor="middle" x="1167.87" y="-1728.94" font-family="Times,serif" font-size="14.00">7164</text>
</a>
</g>
</g>
<!-- 7164&#45;&gt;28189 -->
<g id="edge45" class="edge"><title>7164&#45;&gt;28189</title>
<path fill="none" stroke="black" d="M1173.66,-1714.74C1184.24,-1682.04 1206.58,-1613 1217.17,-1580.28"/>
</g>
<!-- 20978 -->
<g id="node58" class="node"><title>20978</title>
<g id="a_node58"><a xlink:title="6th_week">
<ellipse fill="#c81d25" stroke="black" cx="1094.64" cy="-1695.07" rx="32.4942" ry="18"/>
<text text-anchor="middle" x="1094.64" y="-1691.37" font-family="Times,serif" font-size="14.00">20978</text>
</a>
</g>
</g>
<!-- 20978&#45;&gt;28189 -->
<g id="edge6" class="edge"><title>20978&#45;&gt;28189</title>
<path fill="none" stroke="black" d="M1110.12,-1679.06C1134.78,-1653.56 1182.73,-1603.97 1207.43,-1578.43"/>
</g>
</g>
</svg>
