<?xml version="1.0" encoding="UTF-8" standalone="no"?>
<!DOCTYPE svg PUBLIC "-//W3C//DTD SVG 1.1//EN"
 "http://www.w3.org/Graphics/SVG/1.1/DTD/svg11.dtd">
<!-- Generated by graphviz version 2.38.0 (20140413.2041)
 -->
<!-- Title: %3 Pages: 1 -->
<svg width="1971pt" height="1687pt"
 viewBox="0.00 0.00 1971.00 1687.00" xmlns="http://www.w3.org/2000/svg" xmlns:xlink="http://www.w3.org/1999/xlink">
<g id="graph0" class="graph" transform="scale(1 1) rotate(0) translate(4 1683)">
<title>%3</title>
<polygon fill="white" stroke="none" points="-4,4 -4,-1683 1967,-1683 1967,4 -4,4"/>
<!-- 1913 -->
<g id="node1" class="node"><title>1913</title>
<g id="a_node1"><a xlink:title="Day_0">
<ellipse fill="#e5dada" stroke="black" cx="1649.98" cy="-1194.76" rx="28.6953" ry="18"/>
<text text-anchor="middle" x="1649.98" y="-1191.06" font-family="Times,serif" font-size="14.00">1913</text>
</a>
</g>
</g>
<!-- 67346 -->
<g id="node44" class="node"><title>67346</title>
<g id="a_node44"><a xlink:title="Day_0">
<ellipse fill="#e5dada" stroke="black" cx="1596.91" cy="-1056.22" rx="32.4942" ry="18"/>
<text text-anchor="middle" x="1596.91" y="-1052.52" font-family="Times,serif" font-size="14.00">67346</text>
</a>
</g>
</g>
<!-- 1913&#45;&gt;67346 -->
<g id="edge41" class="edge"><title>1913&#45;&gt;67346</title>
<path fill="none" stroke="black" d="M1643.26,-1177.21C1633.11,-1150.71 1613.97,-1100.74 1603.75,-1074.06"/>
</g>
<!-- 3618 -->
<g id="node2" class="node"><title>3618</title>
<g id="a_node2"><a xlink:title="Day_0">
<ellipse fill="#e5dada" stroke="black" cx="1261.62" cy="-966.853" rx="28.6953" ry="18"/>
<text text-anchor="middle" x="1261.62" y="-963.153" font-family="Times,serif" font-size="14.00">3618</text>
</a>
</g>
</g>
<!-- 38853 -->
<g id="node21" class="node"><title>38853</title>
<g id="a_node21"><a xlink:title="Day_0">
<ellipse fill="#e5dada" stroke="black" cx="1142.59" cy="-1034.75" rx="32.4942" ry="18"/>
<text text-anchor="middle" x="1142.59" y="-1031.05" font-family="Times,serif" font-size="14.00">38853</text>
</a>
</g>
</g>
<!-- 3618&#45;&gt;38853 -->
<g id="edge29" class="edge"><title>3618&#45;&gt;38853</title>
<path fill="none" stroke="black" d="M1240.34,-978.991C1219.21,-991.043 1186.93,-1009.46 1165.31,-1021.79"/>
</g>
<!-- 4528 -->
<g id="node3" class="node"><title>4528</title>
<g id="a_node3"><a xlink:title="Day_0">
<ellipse fill="#e5dada" stroke="black" cx="352.983" cy="-183.072" rx="28.6953" ry="18"/>
<text text-anchor="middle" x="352.983" y="-179.372" font-family="Times,serif" font-size="14.00">4528</text>
</a>
</g>
</g>
<!-- 10862 -->
<g id="node6" class="node"><title>10862</title>
<g id="a_node6"><a xlink:title="Day_0">
<ellipse fill="#e5dada" stroke="black" cx="445.602" cy="-54.6685" rx="32.4942" ry="18"/>
<text text-anchor="middle" x="445.602" y="-50.9685" font-family="Times,serif" font-size="14.00">10862</text>
</a>
</g>
</g>
<!-- 4528&#45;&gt;10862 -->
<g id="edge43" class="edge"><title>4528&#45;&gt;10862</title>
<path fill="none" stroke="black" d="M364.902,-166.549C382.588,-142.029 415.606,-96.2535 433.435,-71.5365"/>
</g>
<!-- 19133 -->
<g id="node12" class="node"><title>19133</title>
<g id="a_node12"><a xlink:title="Day_0">
<ellipse fill="#e5dada" stroke="black" cx="237.238" cy="-110.206" rx="32.4942" ry="18"/>
<text text-anchor="middle" x="237.238" y="-106.506" font-family="Times,serif" font-size="14.00">19133</text>
</a>
</g>
</g>
<!-- 4528&#45;&gt;19133 -->
<g id="edge37" class="edge"><title>4528&#45;&gt;19133</title>
<path fill="none" stroke="black" d="M332.557,-170.213C311.919,-157.221 280.147,-137.219 259.034,-123.927"/>
</g>
<!-- 43436 -->
<g id="node27" class="node"><title>43436</title>
<g id="a_node27"><a xlink:title="Day_0">
<ellipse fill="#e5dada" stroke="black" cx="352.379" cy="-17.5063" rx="32.4942" ry="18"/>
<text text-anchor="middle" x="352.379" y="-13.8063" font-family="Times,serif" font-size="14.00">43436</text>
</a>
</g>
</g>
<!-- 4528&#45;&gt;43436 -->
<g id="edge27" class="edge"><title>4528&#45;&gt;43436</title>
<path fill="none" stroke="black" d="M352.917,-165.039C352.801,-133.191 352.561,-67.35 352.444,-35.5177"/>
</g>
<!-- 48802 -->
<g id="node30" class="node"><title>48802</title>
<g id="a_node30"><a xlink:title="Day_0">
<ellipse fill="#e5dada" stroke="black" cx="357.13" cy="-102.055" rx="32.4942" ry="18"/>
<text text-anchor="middle" x="357.13" y="-98.3554" font-family="Times,serif" font-size="14.00">48802</text>
</a>
</g>
</g>
<!-- 4528&#45;&gt;48802 -->
<g id="edge12" class="edge"><title>4528&#45;&gt;48802</title>
<path fill="none" stroke="black" d="M353.924,-164.688C354.607,-151.336 355.528,-133.358 356.207,-120.088"/>
</g>
<!-- 66749 -->
<g id="node42" class="node"><title>66749</title>
<g id="a_node42"><a xlink:title="Day_0">
<ellipse fill="#e5dada" stroke="black" cx="396.233" cy="-414.83" rx="32.4942" ry="18"/>
<text text-anchor="middle" x="396.233" y="-411.13" font-family="Times,serif" font-size="14.00">66749</text>
</a>
</g>
</g>
<!-- 4528&#45;&gt;66749 -->
<g id="edge53" class="edge"><title>4528&#45;&gt;66749</title>
<path fill="none" stroke="black" d="M356.377,-201.258C364.462,-244.582 384.786,-353.49 392.855,-396.729"/>
</g>
<!-- 24908 -->
<g id="node48" class="node"><title>24908</title>
<g id="a_node48"><a xlink:title="Day_0">
<ellipse fill="#e5dada" stroke="black" cx="281.6" cy="-63.5586" rx="32.4942" ry="18"/>
<text text-anchor="middle" x="281.6" y="-59.8586" font-family="Times,serif" font-size="14.00">24908</text>
</a>
</g>
</g>
<!-- 4528&#45;&gt;24908 -->
<g id="edge11" class="edge"><title>4528&#45;&gt;24908</title>
<path fill="none" stroke="black" d="M342.907,-166.202C329.379,-143.553 305.475,-103.532 291.856,-80.7297"/>
</g>
<!-- 54149 -->
<g id="node51" class="node"><title>54149</title>
<g id="a_node51"><a xlink:title="Day_0">
<ellipse fill="#e5dada" stroke="black" cx="466.593" cy="-113.318" rx="32.4942" ry="18"/>
<text text-anchor="middle" x="466.593" y="-109.618" font-family="Times,serif" font-size="14.00">54149</text>
</a>
</g>
</g>
<!-- 4528&#45;&gt;54149 -->
<g id="edge25" class="edge"><title>4528&#45;&gt;54149</title>
<path fill="none" stroke="black" d="M373.557,-170.44C393.635,-158.113 424.078,-139.421 444.621,-126.808"/>
</g>
<!-- 55669 -->
<g id="node52" class="node"><title>55669</title>
<g id="a_node52"><a xlink:title="Day_0">
<ellipse fill="#e5dada" stroke="black" cx="220.974" cy="-162.048" rx="32.4942" ry="18"/>
<text text-anchor="middle" x="220.974" y="-158.348" font-family="Times,serif" font-size="14.00">55669</text>
</a>
</g>
</g>
<!-- 4528&#45;&gt;55669 -->
<g id="edge39" class="edge"><title>4528&#45;&gt;55669</title>
<path fill="none" stroke="black" d="M324.987,-178.614C303.796,-175.239 274.675,-170.601 252.635,-167.091"/>
</g>
<!-- 9417 -->
<g id="node4" class="node"><title>9417</title>
<g id="a_node4"><a xlink:title="Day_0">
<ellipse fill="#e5dada" stroke="black" cx="661.383" cy="-1415.85" rx="28.6953" ry="18"/>
<text text-anchor="middle" x="661.383" y="-1412.15" font-family="Times,serif" font-size="14.00">9417</text>
</a>
</g>
</g>
<!-- 45226 -->
<g id="node28" class="node"><title>45226</title>
<g id="a_node28"><a xlink:title="Day_0">
<ellipse fill="#e5dada" stroke="black" cx="649.063" cy="-1269.01" rx="32.4942" ry="18"/>
<text text-anchor="middle" x="649.063" y="-1265.31" font-family="Times,serif" font-size="14.00">45226</text>
</a>
</g>
</g>
<!-- 9417&#45;&gt;45226 -->
<g id="edge58" class="edge"><title>9417&#45;&gt;45226</title>
<path fill="none" stroke="black" d="M659.872,-1397.85C657.508,-1369.66 652.959,-1315.44 650.586,-1287.16"/>
</g>
<!-- 10274 -->
<g id="node5" class="node"><title>10274</title>
<g id="a_node5"><a xlink:title="Day_0">
<ellipse fill="#e5dada" stroke="black" cx="1273.1" cy="-1086.12" rx="32.4942" ry="18"/>
<text text-anchor="middle" x="1273.1" y="-1082.42" font-family="Times,serif" font-size="14.00">10274</text>
</a>
</g>
</g>
<!-- 10274&#45;&gt;38853 -->
<g id="edge7" class="edge"><title>10274&#45;&gt;38853</title>
<path fill="none" stroke="black" d="M1246.37,-1075.6C1223.85,-1066.73 1191.79,-1054.11 1169.28,-1045.25"/>
</g>
<!-- 11039 -->
<g id="node7" class="node"><title>11039</title>
<g id="a_node7"><a xlink:title="Day_0">
<ellipse fill="#e5dada" stroke="black" cx="559.107" cy="-1033.29" rx="32.4942" ry="18"/>
<text text-anchor="middle" x="559.107" y="-1029.59" font-family="Times,serif" font-size="14.00">11039</text>
</a>
</g>
</g>
<!-- 39377 -->
<g id="node22" class="node"><title>39377</title>
<g id="a_node22"><a xlink:title="Day_0">
<ellipse fill="#e5dada" stroke="black" cx="678.474" cy="-1026.95" rx="32.4942" ry="18"/>
<text text-anchor="middle" x="678.474" y="-1023.25" font-family="Times,serif" font-size="14.00">39377</text>
</a>
</g>
</g>
<!-- 11039&#45;&gt;39377 -->
<g id="edge8" class="edge"><title>11039&#45;&gt;39377</title>
<path fill="none" stroke="black" d="M591.725,-1031.56C608.567,-1030.66 629.059,-1029.58 645.896,-1028.68"/>
</g>
<!-- 13457 -->
<g id="node8" class="node"><title>13457</title>
<g id="a_node8"><a xlink:title="Day_0">
<ellipse fill="#e5dada" stroke="black" cx="927.473" cy="-1002.37" rx="32.4942" ry="18"/>
<text text-anchor="middle" x="927.473" y="-998.675" font-family="Times,serif" font-size="14.00">13457</text>
</a>
</g>
</g>
<!-- 38621 -->
<g id="node20" class="node"><title>38621</title>
<g id="a_node20"><a xlink:title="6th_week">
<ellipse fill="#c81d25" stroke="black" cx="1025.3" cy="-875.835" rx="32.4942" ry="18"/>
<text text-anchor="middle" x="1025.3" y="-872.135" font-family="Times,serif" font-size="14.00">38621</text>
</a>
</g>
</g>
<!-- 13457&#45;&gt;38621 -->
<g id="edge51" class="edge"><title>13457&#45;&gt;38621</title>
<path fill="none" stroke="black" d="M940.463,-985.571C959.173,-961.369 993.512,-916.949 1012.25,-892.708"/>
</g>
<!-- 13457&#45;&gt;38853 -->
<g id="edge19" class="edge"><title>13457&#45;&gt;38853</title>
<path fill="none" stroke="black" d="M959.214,-1007.15C1000,-1013.29 1070.39,-1023.88 1111.07,-1030"/>
</g>
<!-- 13457&#45;&gt;39377 -->
<g id="edge60" class="edge"><title>13457&#45;&gt;39377</title>
<path fill="none" stroke="black" d="M895.43,-1005.54C847.751,-1010.24 758.624,-1019.04 710.788,-1023.76"/>
</g>
<!-- 15884 -->
<g id="node9" class="node"><title>15884</title>
<g id="a_node9"><a xlink:title="Day_0">
<ellipse fill="#e5dada" stroke="black" cx="727.972" cy="-1147.54" rx="32.4942" ry="18"/>
<text text-anchor="middle" x="727.972" y="-1143.84" font-family="Times,serif" font-size="14.00">15884</text>
</a>
</g>
</g>
<!-- 15884&#45;&gt;39377 -->
<g id="edge23" class="edge"><title>15884&#45;&gt;39377</title>
<path fill="none" stroke="black" d="M720.668,-1129.75C711.31,-1106.95 695.18,-1067.65 685.808,-1044.82"/>
</g>
<!-- 16469 -->
<g id="node10" class="node"><title>16469</title>
<g id="a_node10"><a xlink:title="Day_0">
<ellipse fill="#e5dada" stroke="black" cx="102.562" cy="-754.009" rx="32.4942" ry="18"/>
<text text-anchor="middle" x="102.562" y="-750.309" font-family="Times,serif" font-size="14.00">16469</text>
</a>
</g>
</g>
<!-- 29383 -->
<g id="node14" class="node"><title>29383</title>
<g id="a_node14"><a xlink:title="Day_0">
<ellipse fill="#e5dada" stroke="black" cx="224.894" cy="-828.149" rx="32.4942" ry="18"/>
<text text-anchor="middle" x="224.894" y="-824.449" font-family="Times,serif" font-size="14.00">29383</text>
</a>
</g>
</g>
<!-- 16469&#45;&gt;29383 -->
<g id="edge49" class="edge"><title>16469&#45;&gt;29383</title>
<path fill="none" stroke="black" d="M124.716,-767.435C146.886,-780.872 180.793,-801.421 202.905,-814.822"/>
</g>
<!-- 17995 -->
<g id="node11" class="node"><title>17995</title>
<g id="a_node11"><a xlink:title="Day_0">
<ellipse fill="#e5dada" stroke="black" cx="771.042" cy="-1349.62" rx="32.4942" ry="18"/>
<text text-anchor="middle" x="771.042" y="-1345.92" font-family="Times,serif" font-size="14.00">17995</text>
</a>
</g>
</g>
<!-- 17995&#45;&gt;45226 -->
<g id="edge42" class="edge"><title>17995&#45;&gt;45226</title>
<path fill="none" stroke="black" d="M750.073,-1335.76C727.731,-1321 692.56,-1297.75 670.167,-1282.95"/>
</g>
<!-- 25421 -->
<g id="node13" class="node"><title>25421</title>
<g id="a_node13"><a xlink:title="Day_0">
<ellipse fill="#e5dada" stroke="black" cx="1768.54" cy="-1104.51" rx="32.4942" ry="18"/>
<text text-anchor="middle" x="1768.54" y="-1100.81" font-family="Times,serif" font-size="14.00">25421</text>
</a>
</g>
</g>
<!-- 25421&#45;&gt;67346 -->
<g id="edge32" class="edge"><title>25421&#45;&gt;67346</title>
<path fill="none" stroke="black" d="M1739.42,-1096.32C1707.86,-1087.44 1657.78,-1073.35 1626.17,-1064.45"/>
</g>
<!-- 49271 -->
<g id="node31" class="node"><title>49271</title>
<g id="a_node31"><a xlink:title="Day_0">
<ellipse fill="#e5dada" stroke="black" cx="148.6" cy="-709.556" rx="32.4942" ry="18"/>
<text text-anchor="middle" x="148.6" y="-705.856" font-family="Times,serif" font-size="14.00">49271</text>
</a>
</g>
</g>
<!-- 29383&#45;&gt;49271 -->
<g id="edge5" class="edge"><title>29383&#45;&gt;49271</title>
<path fill="none" stroke="black" d="M213.963,-811.157C199.459,-788.613 174.004,-749.045 159.511,-726.516"/>
</g>
<!-- 58501 -->
<g id="node34" class="node"><title>58501</title>
<g id="a_node34"><a xlink:title="Day_0">
<ellipse fill="#e5dada" stroke="black" cx="88.4656" cy="-879.306" rx="32.4942" ry="18"/>
<text text-anchor="middle" x="88.4656" y="-875.606" font-family="Times,serif" font-size="14.00">58501</text>
</a>
</g>
</g>
<!-- 29383&#45;&gt;58501 -->
<g id="edge15" class="edge"><title>29383&#45;&gt;58501</title>
<path fill="none" stroke="black" d="M197.94,-838.256C174.177,-847.166 139.715,-860.088 115.83,-869.045"/>
</g>
<!-- 63174 -->
<g id="node39" class="node"><title>63174</title>
<g id="a_node39"><a xlink:title="Day_0">
<ellipse fill="#e5dada" stroke="black" cx="32.3119" cy="-807.586" rx="32.4942" ry="18"/>
<text text-anchor="middle" x="32.3119" y="-803.886" font-family="Times,serif" font-size="14.00">63174</text>
</a>
</g>
</g>
<!-- 29383&#45;&gt;63174 -->
<g id="edge50" class="edge"><title>29383&#45;&gt;63174</title>
<path fill="none" stroke="black" d="M192.66,-824.707C157.003,-820.9 99.8996,-814.803 64.3299,-811.005"/>
</g>
<!-- 65187 -->
<g id="node40" class="node"><title>65187</title>
<g id="a_node40"><a xlink:title="Day_0">
<ellipse fill="#e5dada" stroke="black" cx="123.879" cy="-929.531" rx="32.4942" ry="18"/>
<text text-anchor="middle" x="123.879" y="-925.831" font-family="Times,serif" font-size="14.00">65187</text>
</a>
</g>
</g>
<!-- 29383&#45;&gt;65187 -->
<g id="edge56" class="edge"><title>29383&#45;&gt;65187</title>
<path fill="none" stroke="black" d="M209.11,-843.99C190.244,-862.924 158.849,-894.433 139.885,-913.466"/>
</g>
<!-- 66913 -->
<g id="node43" class="node"><title>66913</title>
<g id="a_node43"><a xlink:title="Day_0">
<ellipse fill="#e5dada" stroke="black" cx="480" cy="-849.764" rx="32.4942" ry="18"/>
<text text-anchor="middle" x="480" y="-846.064" font-family="Times,serif" font-size="14.00">66913</text>
</a>
</g>
</g>
<!-- 29383&#45;&gt;66913 -->
<g id="edge28" class="edge"><title>29383&#45;&gt;66913</title>
<path fill="none" stroke="black" d="M257.203,-830.886C306.14,-835.033 398.532,-842.861 447.551,-847.014"/>
</g>
<!-- 59366 -->
<g id="node55" class="node"><title>59366</title>
<g id="a_node55"><a xlink:title="Day_0">
<ellipse fill="#e5dada" stroke="black" cx="124.684" cy="-830.469" rx="32.4942" ry="18"/>
<text text-anchor="middle" x="124.684" y="-826.769" font-family="Times,serif" font-size="14.00">59366</text>
</a>
</g>
</g>
<!-- 29383&#45;&gt;59366 -->
<g id="edge10" class="edge"><title>29383&#45;&gt;59366</title>
<path fill="none" stroke="black" d="M192.358,-828.902C181.157,-829.161 168.614,-829.452 157.399,-829.711"/>
</g>
<!-- 31073 -->
<g id="node15" class="node"><title>31073</title>
<g id="a_node15"><a xlink:title="Day_0">
<ellipse fill="#e5dada" stroke="black" cx="755.801" cy="-906.962" rx="32.4942" ry="18"/>
<text text-anchor="middle" x="755.801" y="-903.262" font-family="Times,serif" font-size="14.00">31073</text>
</a>
</g>
</g>
<!-- 31073&#45;&gt;39377 -->
<g id="edge1" class="edge"><title>31073&#45;&gt;39377</title>
<path fill="none" stroke="black" d="M744.722,-924.154C730.022,-946.964 704.222,-986.999 689.533,-1009.79"/>
</g>
<!-- 31165 -->
<g id="node16" class="node"><title>31165</title>
<g id="a_node16"><a xlink:title="Day_0">
<ellipse fill="#e5dada" stroke="black" cx="1719.93" cy="-1165.4" rx="32.4942" ry="18"/>
<text text-anchor="middle" x="1719.93" y="-1161.7" font-family="Times,serif" font-size="14.00">31165</text>
</a>
</g>
</g>
<!-- 31165&#45;&gt;67346 -->
<g id="edge22" class="edge"><title>31165&#45;&gt;67346</title>
<path fill="none" stroke="black" d="M1702.56,-1149.99C1679.12,-1129.18 1637.59,-1092.32 1614.19,-1071.55"/>
</g>
<!-- 34712 -->
<g id="node17" class="node"><title>34712</title>
<g id="a_node17"><a xlink:title="6th_week">
<ellipse fill="#c81d25" stroke="black" cx="1088.63" cy="-734.125" rx="32.4942" ry="18"/>
<text text-anchor="middle" x="1088.63" y="-730.425" font-family="Times,serif" font-size="14.00">34712</text>
</a>
</g>
</g>
<!-- 34712&#45;&gt;38621 -->
<g id="edge40" class="edge"><title>34712&#45;&gt;38621</title>
<path fill="none" stroke="black" d="M1080.74,-751.786C1068.6,-778.942 1045.49,-830.662 1033.29,-857.951"/>
</g>
<!-- 36376 -->
<g id="node18" class="node"><title>36376</title>
<g id="a_node18"><a xlink:title="Day_0">
<ellipse fill="#e5dada" stroke="black" cx="1697.16" cy="-1048.74" rx="32.4942" ry="18"/>
<text text-anchor="middle" x="1697.16" y="-1045.04" font-family="Times,serif" font-size="14.00">36376</text>
</a>
</g>
</g>
<!-- 36376&#45;&gt;67346 -->
<g id="edge18" class="edge"><title>36376&#45;&gt;67346</title>
<path fill="none" stroke="black" d="M1664.89,-1051.15C1653.44,-1052 1640.56,-1052.96 1629.12,-1053.82"/>
</g>
<!-- 36533 -->
<g id="node19" class="node"><title>36533</title>
<g id="a_node19"><a xlink:title="Day_0">
<ellipse fill="#e5dada" stroke="black" cx="433.186" cy="-615.622" rx="32.4942" ry="18"/>
<text text-anchor="middle" x="433.186" y="-611.922" font-family="Times,serif" font-size="14.00">36533</text>
</a>
</g>
</g>
<!-- 36533&#45;&gt;66749 -->
<g id="edge35" class="edge"><title>36533&#45;&gt;66749</title>
<path fill="none" stroke="black" d="M429.842,-597.448C422.806,-559.22 406.549,-470.883 399.544,-432.817"/>
</g>
<!-- 36533&#45;&gt;66913 -->
<g id="edge9" class="edge"><title>36533&#45;&gt;66913</title>
<path fill="none" stroke="black" d="M436.782,-633.606C445.496,-677.189 467.665,-788.072 476.392,-831.719"/>
</g>
<!-- 26109 -->
<g id="node49" class="node"><title>26109</title>
<g id="a_node49"><a xlink:title="6th_week">
<ellipse fill="#c81d25" stroke="black" cx="1149.18" cy="-782.734" rx="32.4942" ry="18"/>
<text text-anchor="middle" x="1149.18" y="-779.034" font-family="Times,serif" font-size="14.00">26109</text>
</a>
</g>
</g>
<!-- 38621&#45;&gt;26109 -->
<g id="edge47" class="edge"><title>38621&#45;&gt;26109</title>
<path fill="none" stroke="black" d="M1044.65,-861.288C1067.79,-843.9 1106.29,-814.965 1129.55,-797.486"/>
</g>
<!-- 42164 -->
<g id="node26" class="node"><title>42164</title>
<g id="a_node26"><a xlink:title="Day_0">
<ellipse fill="#e5dada" stroke="black" cx="1382.65" cy="-1054.96" rx="32.4942" ry="18"/>
<text text-anchor="middle" x="1382.65" y="-1051.26" font-family="Times,serif" font-size="14.00">42164</text>
</a>
</g>
</g>
<!-- 38853&#45;&gt;42164 -->
<g id="edge26" class="edge"><title>38853&#45;&gt;42164</title>
<path fill="none" stroke="black" d="M1174.97,-1037.47C1220.91,-1041.34 1304.53,-1048.38 1350.41,-1052.25"/>
</g>
<!-- 66373 -->
<g id="node41" class="node"><title>66373</title>
<g id="a_node41"><a xlink:title="Day_0">
<ellipse fill="#e5dada" stroke="black" cx="1219.88" cy="-1158.97" rx="32.4942" ry="18"/>
<text text-anchor="middle" x="1219.88" y="-1155.27" font-family="Times,serif" font-size="14.00">66373</text>
</a>
</g>
</g>
<!-- 38853&#45;&gt;66373 -->
<g id="edge20" class="edge"><title>38853&#45;&gt;66373</title>
<path fill="none" stroke="black" d="M1153.34,-1052.02C1168.1,-1075.75 1194.5,-1118.19 1209.22,-1141.84"/>
</g>
<!-- 40713 -->
<g id="node24" class="node"><title>40713</title>
<g id="a_node24"><a xlink:title="Day_0">
<ellipse fill="#e5dada" stroke="black" cx="802.376" cy="-1094.29" rx="32.4942" ry="18"/>
<text text-anchor="middle" x="802.376" y="-1090.59" font-family="Times,serif" font-size="14.00">40713</text>
</a>
</g>
</g>
<!-- 39377&#45;&gt;40713 -->
<g id="edge57" class="edge"><title>39377&#45;&gt;40713</title>
<path fill="none" stroke="black" d="M701.779,-1039.62C723.931,-1051.66 757.059,-1069.66 779.176,-1081.68"/>
</g>
<!-- 39377&#45;&gt;45226 -->
<g id="edge6" class="edge"><title>39377&#45;&gt;45226</title>
<path fill="none" stroke="black" d="M676.264,-1045.15C670.8,-1090.11 656.708,-1206.09 651.26,-1250.93"/>
</g>
<!-- 62297 -->
<g id="node36" class="node"><title>62297</title>
<g id="a_node36"><a xlink:title="Day_0">
<ellipse fill="#e5dada" stroke="black" cx="807.797" cy="-978.788" rx="32.4942" ry="18"/>
<text text-anchor="middle" x="807.797" y="-975.088" font-family="Times,serif" font-size="14.00">62297</text>
</a>
</g>
</g>
<!-- 39377&#45;&gt;62297 -->
<g id="edge3" class="edge"><title>39377&#45;&gt;62297</title>
<path fill="none" stroke="black" d="M705.584,-1016.86C727.656,-1008.64 758.661,-997.089 780.723,-988.872"/>
</g>
<!-- 39377&#45;&gt;66913 -->
<g id="edge46" class="edge"><title>39377&#45;&gt;66913</title>
<path fill="none" stroke="black" d="M661.208,-1011.54C623.672,-978.028 534.995,-898.861 497.367,-865.269"/>
</g>
<!-- 7291 -->
<g id="node45" class="node"><title>7291</title>
<g id="a_node45"><a xlink:title="Day_0">
<ellipse fill="#e5dada" stroke="black" cx="594.411" cy="-1110.85" rx="28.6953" ry="18"/>
<text text-anchor="middle" x="594.411" y="-1107.15" font-family="Times,serif" font-size="14.00">7291</text>
</a>
</g>
</g>
<!-- 39377&#45;&gt;7291 -->
<g id="edge45" class="edge"><title>39377&#45;&gt;7291</title>
<path fill="none" stroke="black" d="M662.663,-1042.73C647.538,-1057.83 624.873,-1080.45 609.868,-1095.43"/>
</g>
<!-- 56065 -->
<g id="node53" class="node"><title>56065</title>
<g id="a_node53"><a xlink:title="Day_0">
<ellipse fill="#e5dada" stroke="black" cx="673.434" cy="-896.876" rx="32.4942" ry="18"/>
<text text-anchor="middle" x="673.434" y="-893.176" font-family="Times,serif" font-size="14.00">56065</text>
</a>
</g>
</g>
<!-- 39377&#45;&gt;56065 -->
<g id="edge4" class="edge"><title>39377&#45;&gt;56065</title>
<path fill="none" stroke="black" d="M677.773,-1008.87C676.816,-984.155 675.108,-940.078 674.145,-915.228"/>
</g>
<!-- 40230 -->
<g id="node23" class="node"><title>40230</title>
<g id="a_node23"><a xlink:title="Day_0">
<ellipse fill="#e5dada" stroke="black" cx="615.83" cy="-1501.2" rx="32.4942" ry="18"/>
<text text-anchor="middle" x="615.83" y="-1497.5" font-family="Times,serif" font-size="14.00">40230</text>
</a>
</g>
</g>
<!-- 40230&#45;&gt;45226 -->
<g id="edge30" class="edge"><title>40230&#45;&gt;45226</title>
<path fill="none" stroke="black" d="M618.438,-1482.98C624.651,-1439.57 640.268,-1330.46 646.468,-1287.14"/>
</g>
<!-- 24534 -->
<g id="node47" class="node"><title>24534</title>
<g id="a_node47"><a xlink:title="Day_0">
<ellipse fill="#e5dada" stroke="black" cx="707.643" cy="-1609.96" rx="32.4942" ry="18"/>
<text text-anchor="middle" x="707.643" y="-1606.26" font-family="Times,serif" font-size="14.00">24534</text>
</a>
</g>
</g>
<!-- 40230&#45;&gt;24534 -->
<g id="edge14" class="edge"><title>40230&#45;&gt;24534</title>
<path fill="none" stroke="black" d="M629.775,-1517.72C647.132,-1538.28 676.591,-1573.17 693.868,-1593.64"/>
</g>
<!-- 56429 -->
<g id="node54" class="node"><title>56429</title>
<g id="a_node54"><a xlink:title="Day_0">
<ellipse fill="#e5dada" stroke="black" cx="500.716" cy="-1587.85" rx="32.4942" ry="18"/>
<text text-anchor="middle" x="500.716" y="-1584.15" font-family="Times,serif" font-size="14.00">56429</text>
</a>
</g>
</g>
<!-- 40230&#45;&gt;56429 -->
<g id="edge38" class="edge"><title>40230&#45;&gt;56429</title>
<path fill="none" stroke="black" d="M596.563,-1515.7C575.313,-1531.7 541.321,-1557.28 520.046,-1573.3"/>
</g>
<!-- 29552 -->
<g id="node59" class="node"><title>29552</title>
<g id="a_node59"><a xlink:title="Day_0">
<ellipse fill="#e5dada" stroke="black" cx="554.509" cy="-1637.46" rx="32.4942" ry="18"/>
<text text-anchor="middle" x="554.509" y="-1633.76" font-family="Times,serif" font-size="14.00">29552</text>
</a>
</g>
</g>
<!-- 40230&#45;&gt;29552 -->
<g id="edge24" class="edge"><title>40230&#45;&gt;29552</title>
<path fill="none" stroke="black" d="M607.939,-1518.73C596.165,-1544.9 574.127,-1593.86 562.37,-1619.99"/>
</g>
<!-- 50902 -->
<g id="node60" class="node"><title>50902</title>
<g id="a_node60"><a xlink:title="Day_0">
<ellipse fill="#e5dada" stroke="black" cx="634.544" cy="-1661.36" rx="32.4942" ry="18"/>
<text text-anchor="middle" x="634.544" y="-1657.66" font-family="Times,serif" font-size="14.00">50902</text>
</a>
</g>
</g>
<!-- 40230&#45;&gt;50902 -->
<g id="edge48" class="edge"><title>40230&#45;&gt;50902</title>
<path fill="none" stroke="black" d="M617.941,-1519.26C621.535,-1550.02 628.804,-1612.24 632.412,-1643.12"/>
</g>
<!-- 41175 -->
<g id="node25" class="node"><title>41175</title>
<g id="a_node25"><a xlink:title="Day_0">
<ellipse fill="#e5dada" stroke="black" cx="343.472" cy="-814.179" rx="32.4942" ry="18"/>
<text text-anchor="middle" x="343.472" y="-810.479" font-family="Times,serif" font-size="14.00">41175</text>
</a>
</g>
</g>
<!-- 41175&#45;&gt;66913 -->
<g id="edge54" class="edge"><title>41175&#45;&gt;66913</title>
<path fill="none" stroke="black" d="M373.096,-821.901C395.997,-827.869 427.547,-836.093 450.433,-842.058"/>
</g>
<!-- 62943 -->
<g id="node38" class="node"><title>62943</title>
<g id="a_node38"><a xlink:title="Day_0">
<ellipse fill="#e5dada" stroke="black" cx="1474.37" cy="-1141.77" rx="32.4942" ry="18"/>
<text text-anchor="middle" x="1474.37" y="-1138.07" font-family="Times,serif" font-size="14.00">62943</text>
</a>
</g>
</g>
<!-- 42164&#45;&gt;62943 -->
<g id="edge17" class="edge"><title>42164&#45;&gt;62943</title>
<path fill="none" stroke="black" d="M1399.48,-1070.88C1416.02,-1086.55 1441.14,-1110.32 1457.65,-1125.95"/>
</g>
<!-- 42164&#45;&gt;67346 -->
<g id="edge13" class="edge"><title>42164&#45;&gt;67346</title>
<path fill="none" stroke="black" d="M1415.2,-1055.15C1455.58,-1055.39 1524.05,-1055.79 1564.42,-1056.03"/>
</g>
<!-- 29428 -->
<g id="node50" class="node"><title>29428</title>
<g id="a_node50"><a xlink:title="Day_0">
<ellipse fill="#e5dada" stroke="black" cx="523.806" cy="-1363.48" rx="32.4942" ry="18"/>
<text text-anchor="middle" x="523.806" y="-1359.78" font-family="Times,serif" font-size="14.00">29428</text>
</a>
</g>
</g>
<!-- 45226&#45;&gt;29428 -->
<g id="edge36" class="edge"><title>45226&#45;&gt;29428</title>
<path fill="none" stroke="black" d="M629.767,-1283.56C606.297,-1301.26 566.904,-1330.97 543.331,-1348.75"/>
</g>
<!-- 55680 -->
<g id="node56" class="node"><title>55680</title>
<g id="a_node56"><a xlink:title="Day_0">
<ellipse fill="#e5dada" stroke="black" cx="505.015" cy="-1303.82" rx="32.4942" ry="18"/>
<text text-anchor="middle" x="505.015" y="-1300.12" font-family="Times,serif" font-size="14.00">55680</text>
</a>
</g>
</g>
<!-- 45226&#45;&gt;55680 -->
<g id="edge33" class="edge"><title>45226&#45;&gt;55680</title>
<path fill="none" stroke="black" d="M619.217,-1276.22C594.494,-1282.19 559.535,-1290.64 534.824,-1296.61"/>
</g>
<!-- 60210 -->
<g id="node57" class="node"><title>60210</title>
<g id="a_node57"><a xlink:title="Day_0">
<ellipse fill="#e5dada" stroke="black" cx="734.003" cy="-1399.68" rx="32.4942" ry="18"/>
<text text-anchor="middle" x="734.003" y="-1395.98" font-family="Times,serif" font-size="14.00">60210</text>
</a>
</g>
</g>
<!-- 45226&#45;&gt;60210 -->
<g id="edge2" class="edge"><title>45226&#45;&gt;60210</title>
<path fill="none" stroke="black" d="M660.168,-1286.09C676.446,-1311.13 706.616,-1357.55 722.896,-1382.59"/>
</g>
<!-- 64447 -->
<g id="node58" class="node"><title>64447</title>
<g id="a_node58"><a xlink:title="Day_0">
<ellipse fill="#e5dada" stroke="black" cx="568.212" cy="-1409.03" rx="32.4942" ry="18"/>
<text text-anchor="middle" x="568.212" y="-1405.33" font-family="Times,serif" font-size="14.00">64447</text>
</a>
</g>
</g>
<!-- 45226&#45;&gt;64447 -->
<g id="edge21" class="edge"><title>45226&#45;&gt;64447</title>
<path fill="none" stroke="black" d="M639.15,-1286.18C623.632,-1313.05 593.775,-1364.76 578.207,-1391.72"/>
</g>
<!-- 45691 -->
<g id="node29" class="node"><title>45691</title>
<g id="a_node29"><a xlink:title="Day_0">
<ellipse fill="#e5dada" stroke="black" cx="384.197" cy="-736.923" rx="32.4942" ry="18"/>
<text text-anchor="middle" x="384.197" y="-733.223" font-family="Times,serif" font-size="14.00">45691</text>
</a>
</g>
</g>
<!-- 45691&#45;&gt;66913 -->
<g id="edge52" class="edge"><title>45691&#45;&gt;66913</title>
<path fill="none" stroke="black" d="M398.333,-753.573C416.55,-775.03 448.024,-812.101 466.117,-833.412"/>
</g>
<!-- 51050 -->
<g id="node32" class="node"><title>51050</title>
<g id="a_node32"><a xlink:title="Day_0">
<ellipse fill="#e5dada" stroke="black" cx="1697.44" cy="-955.65" rx="32.4942" ry="18"/>
<text text-anchor="middle" x="1697.44" y="-951.95" font-family="Times,serif" font-size="14.00">51050</text>
</a>
</g>
</g>
<!-- 51050&#45;&gt;67346 -->
<g id="edge59" class="edge"><title>51050&#45;&gt;67346</title>
<path fill="none" stroke="black" d="M1681.29,-971.808C1662.42,-990.687 1631.4,-1021.72 1612.69,-1040.43"/>
</g>
<!-- 56982 -->
<g id="node33" class="node"><title>56982</title>
<g id="a_node33"><a xlink:title="Day_0">
<ellipse fill="#e5dada" stroke="black" cx="1930.64" cy="-978.384" rx="32.4942" ry="18"/>
<text text-anchor="middle" x="1930.64" y="-974.684" font-family="Times,serif" font-size="14.00">56982</text>
</a>
</g>
</g>
<!-- 62428 -->
<g id="node37" class="node"><title>62428</title>
<g id="a_node37"><a xlink:title="Day_0">
<ellipse fill="#e5dada" stroke="black" cx="1772.53" cy="-1006.93" rx="32.4942" ry="18"/>
<text text-anchor="middle" x="1772.53" y="-1003.23" font-family="Times,serif" font-size="14.00">62428</text>
</a>
</g>
</g>
<!-- 56982&#45;&gt;62428 -->
<g id="edge34" class="edge"><title>56982&#45;&gt;62428</title>
<path fill="none" stroke="black" d="M1899.4,-984.024C1871.6,-989.045 1831.14,-996.35 1803.43,-1001.35"/>
</g>
<!-- 61819 -->
<g id="node35" class="node"><title>61819</title>
<g id="a_node35"><a xlink:title="Day_0">
<ellipse fill="#e5dada" stroke="black" cx="545.182" cy="-727.709" rx="32.4942" ry="18"/>
<text text-anchor="middle" x="545.182" y="-724.009" font-family="Times,serif" font-size="14.00">61819</text>
</a>
</g>
</g>
<!-- 61819&#45;&gt;66913 -->
<g id="edge55" class="edge"><title>61819&#45;&gt;66913</title>
<path fill="none" stroke="black" d="M535.843,-745.196C523.452,-768.399 501.704,-809.122 489.322,-832.309"/>
</g>
<!-- 62428&#45;&gt;67346 -->
<g id="edge16" class="edge"><title>62428&#45;&gt;67346</title>
<path fill="none" stroke="black" d="M1743.53,-1015.07C1710.99,-1024.2 1658.51,-1038.93 1625.96,-1048.07"/>
</g>
<!-- 8225 -->
<g id="node46" class="node"><title>8225</title>
<g id="a_node46"><a xlink:title="6th_week">
<ellipse fill="#c81d25" stroke="black" cx="362.781" cy="-919.016" rx="28.6953" ry="18"/>
<text text-anchor="middle" x="362.781" y="-915.316" font-family="Times,serif" font-size="14.00">8225</text>
</a>
</g>
</g>
<!-- 66913&#45;&gt;8225 -->
<g id="edge44" class="edge"><title>66913&#45;&gt;8225</title>
<path fill="none" stroke="black" d="M457.676,-862.953C436.42,-875.511 404.665,-894.271 383.839,-906.575"/>
</g>
<!-- 41211 -->
<g id="node61" class="node"><title>41211</title>
<g id="a_node61"><a xlink:title="Day_0">
<ellipse fill="#e5dada" stroke="black" cx="468.267" cy="-708.761" rx="32.4942" ry="18"/>
<text text-anchor="middle" x="468.267" y="-705.061" font-family="Times,serif" font-size="14.00">41211</text>
</a>
</g>
</g>
<!-- 66913&#45;&gt;41211 -->
<g id="edge31" class="edge"><title>66913&#45;&gt;41211</title>
<path fill="none" stroke="black" d="M478.49,-831.619C476.237,-804.544 472.021,-753.87 469.771,-726.836"/>
</g>
</g>
</svg>
