<?xml version="1.0" encoding="UTF-8" standalone="no"?>
<!DOCTYPE svg PUBLIC "-//W3C//DTD SVG 1.1//EN"
 "http://www.w3.org/Graphics/SVG/1.1/DTD/svg11.dtd">
<!-- Generated by graphviz version 2.38.0 (20140413.2041)
 -->
<!-- Title: %3 Pages: 1 -->
<svg width="1245pt" height="1278pt"
 viewBox="0.00 0.00 1245.00 1278.00" xmlns="http://www.w3.org/2000/svg" xmlns:xlink="http://www.w3.org/1999/xlink">
<g id="graph0" class="graph" transform="scale(1 1) rotate(0) translate(4 1274)">
<title>%3</title>
<polygon fill="white" stroke="none" points="-4,4 -4,-1274 1241,-1274 1241,4 -4,4"/>
<!-- 268 -->
<g id="node1" class="node"><title>268</title>
<g id="a_node1"><a xlink:title="PRE">
<ellipse fill="#71a9f7" stroke="black" cx="315.197" cy="-1015.37" rx="27" ry="18"/>
<text text-anchor="middle" x="315.197" y="-1011.67" font-family="Times,serif" font-size="14.00">268</text>
</a>
</g>
</g>
<!-- 16297 -->
<g id="node41" class="node"><title>16297</title>
<g id="a_node41"><a xlink:title="PRE">
<ellipse fill="#71a9f7" stroke="black" cx="485.104" cy="-914.925" rx="32.4942" ry="18"/>
<text text-anchor="middle" x="485.104" y="-911.225" font-family="Times,serif" font-size="14.00">16297</text>
</a>
</g>
</g>
<!-- 268&#45;&gt;16297 -->
<g id="edge19" class="edge"><title>268&#45;&gt;16297</title>
<path fill="none" stroke="black" d="M335.692,-1003.25C367.731,-984.311 429.443,-947.829 462.648,-928.2"/>
</g>
<!-- 372 -->
<g id="node2" class="node"><title>372</title>
<g id="a_node2"><a xlink:title="PRE">
<ellipse fill="#71a9f7" stroke="black" cx="1207.51" cy="-662.075" rx="27" ry="18"/>
<text text-anchor="middle" x="1207.51" y="-658.375" font-family="Times,serif" font-size="14.00">372</text>
</a>
</g>
</g>
<!-- 3015 -->
<g id="node8" class="node"><title>3015</title>
<g id="a_node8"><a xlink:title="PRE">
<ellipse fill="#71a9f7" stroke="black" cx="1021.36" cy="-664.559" rx="28.6953" ry="18"/>
<text text-anchor="middle" x="1021.36" y="-660.859" font-family="Times,serif" font-size="14.00">3015</text>
</a>
</g>
</g>
<!-- 372&#45;&gt;3015 -->
<g id="edge32" class="edge"><title>372&#45;&gt;3015</title>
<path fill="none" stroke="black" d="M1180.44,-662.436C1145.65,-662.9 1085.52,-663.703 1049.99,-664.177"/>
</g>
<!-- 482 -->
<g id="node3" class="node"><title>482</title>
<g id="a_node3"><a xlink:title="PRE">
<ellipse fill="#71a9f7" stroke="black" cx="544.784" cy="-722.143" rx="27" ry="18"/>
<text text-anchor="middle" x="544.784" y="-718.443" font-family="Times,serif" font-size="14.00">482</text>
</a>
</g>
</g>
<!-- 4141 -->
<g id="node12" class="node"><title>4141</title>
<g id="a_node12"><a xlink:title="PRE">
<ellipse fill="#71a9f7" stroke="black" cx="719.303" cy="-783.326" rx="28.6953" ry="18"/>
<text text-anchor="middle" x="719.303" y="-779.626" font-family="Times,serif" font-size="14.00">4141</text>
</a>
</g>
</g>
<!-- 482&#45;&gt;4141 -->
<g id="edge30" class="edge"><title>482&#45;&gt;4141</title>
<path fill="none" stroke="black" d="M568.684,-730.522C601.637,-742.075 660.747,-762.797 694.282,-774.554"/>
</g>
<!-- 1086 -->
<g id="node4" class="node"><title>1086</title>
<g id="a_node4"><a xlink:title="PRE">
<ellipse fill="#71a9f7" stroke="black" cx="749.86" cy="-914.717" rx="28.6953" ry="18"/>
<text text-anchor="middle" x="749.86" y="-911.017" font-family="Times,serif" font-size="14.00">1086</text>
</a>
</g>
</g>
<!-- 1086&#45;&gt;4141 -->
<g id="edge49" class="edge"><title>1086&#45;&gt;4141</title>
<path fill="none" stroke="black" d="M745.675,-896.723C739.856,-871.702 729.379,-826.653 723.535,-801.524"/>
</g>
<!-- 1179 -->
<g id="node5" class="node"><title>1179</title>
<g id="a_node5"><a xlink:title="PRE">
<ellipse fill="#71a9f7" stroke="black" cx="859.024" cy="-723.12" rx="28.6953" ry="18"/>
<text text-anchor="middle" x="859.024" y="-719.42" font-family="Times,serif" font-size="14.00">1179</text>
</a>
</g>
</g>
<!-- 1179&#45;&gt;4141 -->
<g id="edge2" class="edge"><title>1179&#45;&gt;4141</title>
<path fill="none" stroke="black" d="M835.322,-733.333C809.629,-744.404 768.859,-761.972 743.121,-773.062"/>
</g>
<!-- 1298 -->
<g id="node6" class="node"><title>1298</title>
<g id="a_node6"><a xlink:title="PRE">
<ellipse fill="#71a9f7" stroke="black" cx="863.293" cy="-804.363" rx="28.6953" ry="18"/>
<text text-anchor="middle" x="863.293" y="-800.663" font-family="Times,serif" font-size="14.00">1298</text>
</a>
</g>
</g>
<!-- 1298&#45;&gt;4141 -->
<g id="edge51" class="edge"><title>1298&#45;&gt;4141</title>
<path fill="none" stroke="black" d="M835.188,-800.257C809.817,-796.55 772.686,-791.125 747.336,-787.421"/>
</g>
<!-- 2115 -->
<g id="node7" class="node"><title>2115</title>
<g id="a_node7"><a xlink:title="PRE">
<ellipse fill="#71a9f7" stroke="black" cx="844.441" cy="-18.4792" rx="28.6953" ry="18"/>
<text text-anchor="middle" x="844.441" y="-14.7792" font-family="Times,serif" font-size="14.00">2115</text>
</a>
</g>
</g>
<!-- 13831 -->
<g id="node33" class="node"><title>13831</title>
<g id="a_node33"><a xlink:title="PRE">
<ellipse fill="#71a9f7" stroke="black" cx="807.465" cy="-230.915" rx="32.4942" ry="18"/>
<text text-anchor="middle" x="807.465" y="-227.215" font-family="Times,serif" font-size="14.00">13831</text>
</a>
</g>
</g>
<!-- 2115&#45;&gt;13831 -->
<g id="edge5" class="edge"><title>2115&#45;&gt;13831</title>
<path fill="none" stroke="black" d="M841.288,-36.5913C834.302,-76.7263 817.588,-172.756 810.61,-212.848"/>
</g>
<!-- 3015&#45;&gt;4141 -->
<g id="edge47" class="edge"><title>3015&#45;&gt;4141</title>
<path fill="none" stroke="black" d="M996.897,-674.177C940.156,-696.487 800.124,-751.547 743.572,-773.783"/>
</g>
<!-- 13779 -->
<g id="node32" class="node"><title>13779</title>
<g id="a_node32"><a xlink:title="PRE">
<ellipse fill="#71a9f7" stroke="black" cx="1167.88" cy="-542.381" rx="32.4942" ry="18"/>
<text text-anchor="middle" x="1167.88" y="-538.681" font-family="Times,serif" font-size="14.00">13779</text>
</a>
</g>
</g>
<!-- 3015&#45;&gt;13779 -->
<g id="edge40" class="edge"><title>3015&#45;&gt;13779</title>
<path fill="none" stroke="black" d="M1038.74,-650.063C1066.64,-626.802 1121.15,-581.35 1149.6,-557.623"/>
</g>
<!-- 23955 -->
<g id="node55" class="node"><title>23955</title>
<g id="a_node55"><a xlink:title="PRE">
<ellipse fill="#71a9f7" stroke="black" cx="1202.89" cy="-597.664" rx="32.4942" ry="18"/>
<text text-anchor="middle" x="1202.89" y="-593.964" font-family="Times,serif" font-size="14.00">23955</text>
</a>
</g>
</g>
<!-- 3015&#45;&gt;23955 -->
<g id="edge14" class="edge"><title>3015&#45;&gt;23955</title>
<path fill="none" stroke="black" d="M1046.22,-655.397C1080.11,-642.909 1140.59,-620.621 1175.67,-607.695"/>
</g>
<!-- 3662 -->
<g id="node9" class="node"><title>3662</title>
<g id="a_node9"><a xlink:title="PRE">
<ellipse fill="#71a9f7" stroke="black" cx="799.933" cy="-1035.97" rx="28.6953" ry="18"/>
<text text-anchor="middle" x="799.933" y="-1032.27" font-family="Times,serif" font-size="14.00">3662</text>
</a>
</g>
</g>
<!-- 3662&#45;&gt;4141 -->
<g id="edge20" class="edge"><title>3662&#45;&gt;4141</title>
<path fill="none" stroke="black" d="M794.264,-1018.2C779.459,-971.815 739.764,-847.436 724.966,-801.071"/>
</g>
<!-- 18600 -->
<g id="node43" class="node"><title>18600</title>
<g id="a_node43"><a xlink:title="PRE">
<ellipse fill="#71a9f7" stroke="black" cx="866.386" cy="-1220.21" rx="32.4942" ry="18"/>
<text text-anchor="middle" x="866.386" y="-1216.51" font-family="Times,serif" font-size="14.00">18600</text>
</a>
</g>
</g>
<!-- 3662&#45;&gt;18600 -->
<g id="edge53" class="edge"><title>3662&#45;&gt;18600</title>
<path fill="none" stroke="black" d="M806.305,-1053.63C818.975,-1088.76 847.203,-1167.02 859.936,-1202.32"/>
</g>
<!-- 3803 -->
<g id="node10" class="node"><title>3803</title>
<g id="a_node10"><a xlink:title="PRE">
<ellipse fill="#71a9f7" stroke="black" cx="532.885" cy="-785.841" rx="28.6953" ry="18"/>
<text text-anchor="middle" x="532.885" y="-782.141" font-family="Times,serif" font-size="14.00">3803</text>
</a>
</g>
</g>
<!-- 3803&#45;&gt;4141 -->
<g id="edge11" class="edge"><title>3803&#45;&gt;4141</title>
<path fill="none" stroke="black" d="M561.604,-785.453C596.636,-784.981 655.505,-784.186 690.551,-783.713"/>
</g>
<!-- 4114 -->
<g id="node11" class="node"><title>4114</title>
<g id="a_node11"><a xlink:title="PRE">
<ellipse fill="#71a9f7" stroke="black" cx="769.076" cy="-457.474" rx="28.6953" ry="18"/>
<text text-anchor="middle" x="769.076" y="-453.774" font-family="Times,serif" font-size="14.00">4114</text>
</a>
</g>
</g>
<!-- 4114&#45;&gt;4141 -->
<g id="edge26" class="edge"><title>4114&#45;&gt;4141</title>
<path fill="none" stroke="black" d="M766.329,-475.457C757.627,-532.428 730.732,-708.505 722.041,-765.398"/>
</g>
<!-- 4114&#45;&gt;13831 -->
<g id="edge21" class="edge"><title>4114&#45;&gt;13831</title>
<path fill="none" stroke="black" d="M772.153,-439.316C779.359,-396.79 797.26,-291.144 804.427,-248.844"/>
</g>
<!-- 14076 -->
<g id="node36" class="node"><title>14076</title>
<g id="a_node36"><a xlink:title="PRE">
<ellipse fill="#71a9f7" stroke="black" cx="733.773" cy="-273.359" rx="32.4942" ry="18"/>
<text text-anchor="middle" x="733.773" y="-269.659" font-family="Times,serif" font-size="14.00">14076</text>
</a>
</g>
</g>
<!-- 4114&#45;&gt;14076 -->
<g id="edge15" class="edge"><title>4114&#45;&gt;14076</title>
<path fill="none" stroke="black" d="M765.627,-439.485C758.877,-404.286 743.996,-326.678 737.236,-291.421"/>
</g>
<!-- 19319 -->
<g id="node46" class="node"><title>19319</title>
<g id="a_node46"><a xlink:title="PRE">
<ellipse fill="#71a9f7" stroke="black" cx="856.679" cy="-293.664" rx="32.4942" ry="18"/>
<text text-anchor="middle" x="856.679" y="-289.964" font-family="Times,serif" font-size="14.00">19319</text>
</a>
</g>
</g>
<!-- 4114&#45;&gt;19319 -->
<g id="edge35" class="edge"><title>4114&#45;&gt;19319</title>
<path fill="none" stroke="black" d="M778.285,-440.253C795.066,-408.874 830.445,-342.719 847.329,-311.147"/>
</g>
<!-- 4666 -->
<g id="node14" class="node"><title>4666</title>
<g id="a_node14"><a xlink:title="PRE">
<ellipse fill="#71a9f7" stroke="black" cx="793.625" cy="-651.058" rx="28.6953" ry="18"/>
<text text-anchor="middle" x="793.625" y="-647.358" font-family="Times,serif" font-size="14.00">4666</text>
</a>
</g>
</g>
<!-- 4141&#45;&gt;4666 -->
<g id="edge33" class="edge"><title>4141&#45;&gt;4666</title>
<path fill="none" stroke="black" d="M728.867,-766.305C743.059,-741.047 769.555,-693.895 783.861,-668.434"/>
</g>
<!-- 6040 -->
<g id="node15" class="node"><title>6040</title>
<g id="a_node15"><a xlink:title="PRE">
<ellipse fill="#71a9f7" stroke="black" cx="637.541" cy="-666.58" rx="28.6953" ry="18"/>
<text text-anchor="middle" x="637.541" y="-662.88" font-family="Times,serif" font-size="14.00">6040</text>
</a>
</g>
</g>
<!-- 4141&#45;&gt;6040 -->
<g id="edge28" class="edge"><title>4141&#45;&gt;6040</title>
<path fill="none" stroke="black" d="M707.588,-766.599C692.046,-744.406 664.766,-705.454 649.234,-683.276"/>
</g>
<!-- 6206 -->
<g id="node16" class="node"><title>6206</title>
<g id="a_node16"><a xlink:title="PRE">
<ellipse fill="#71a9f7" stroke="black" cx="865.105" cy="-675.524" rx="28.6953" ry="18"/>
<text text-anchor="middle" x="865.105" y="-671.824" font-family="Times,serif" font-size="14.00">6206</text>
</a>
</g>
</g>
<!-- 4141&#45;&gt;6206 -->
<g id="edge7" class="edge"><title>4141&#45;&gt;6206</title>
<path fill="none" stroke="black" d="M738.065,-769.453C766.061,-748.754 818.46,-710.011 846.414,-689.343"/>
</g>
<!-- 6333 -->
<g id="node17" class="node"><title>6333</title>
<g id="a_node17"><a xlink:title="PRE">
<ellipse fill="#71a9f7" stroke="black" cx="876.814" cy="-586.38" rx="28.6953" ry="18"/>
<text text-anchor="middle" x="876.814" y="-582.68" font-family="Times,serif" font-size="14.00">6333</text>
</a>
</g>
</g>
<!-- 4141&#45;&gt;6333 -->
<g id="edge37" class="edge"><title>4141&#45;&gt;6333</title>
<path fill="none" stroke="black" d="M732.193,-767.209C761.729,-730.278 834.039,-639.865 863.746,-602.72"/>
</g>
<!-- 6355 -->
<g id="node18" class="node"><title>6355</title>
<g id="a_node18"><a xlink:title="PRE">
<ellipse fill="#71a9f7" stroke="black" cx="529.57" cy="-1021.15" rx="28.6953" ry="18"/>
<text text-anchor="middle" x="529.57" y="-1017.45" font-family="Times,serif" font-size="14.00">6355</text>
</a>
</g>
</g>
<!-- 4141&#45;&gt;6355 -->
<g id="edge59" class="edge"><title>4141&#45;&gt;6355</title>
<path fill="none" stroke="black" d="M706.262,-799.672C671.517,-843.225 577.013,-961.685 542.451,-1005.01"/>
</g>
<!-- 8434 -->
<g id="node22" class="node"><title>8434</title>
<g id="a_node22"><a xlink:title="PRE">
<ellipse fill="#71a9f7" stroke="black" cx="717.222" cy="-960.661" rx="28.6953" ry="18"/>
<text text-anchor="middle" x="717.222" y="-956.961" font-family="Times,serif" font-size="14.00">8434</text>
</a>
</g>
</g>
<!-- 4141&#45;&gt;8434 -->
<g id="edge41" class="edge"><title>4141&#45;&gt;8434</title>
<path fill="none" stroke="black" d="M719.088,-801.636C718.688,-835.706 717.834,-908.456 717.435,-942.45"/>
</g>
<!-- 8691 -->
<g id="node23" class="node"><title>8691</title>
<g id="a_node23"><a xlink:title="PRE">
<ellipse fill="#71a9f7" stroke="black" cx="987.506" cy="-852.273" rx="28.6953" ry="18"/>
<text text-anchor="middle" x="987.506" y="-848.573" font-family="Times,serif" font-size="14.00">8691</text>
</a>
</g>
</g>
<!-- 4141&#45;&gt;8691 -->
<g id="edge13" class="edge"><title>4141&#45;&gt;8691</title>
<path fill="none" stroke="black" d="M746,-790.189C797.409,-803.404 909.593,-832.244 960.917,-845.437"/>
</g>
<!-- 10582 -->
<g id="node27" class="node"><title>10582</title>
<g id="a_node27"><a xlink:title="PRE">
<ellipse fill="#71a9f7" stroke="black" cx="452.763" cy="-742.123" rx="32.4942" ry="18"/>
<text text-anchor="middle" x="452.763" y="-738.423" font-family="Times,serif" font-size="14.00">10582</text>
</a>
</g>
</g>
<!-- 4141&#45;&gt;10582 -->
<g id="edge27" class="edge"><title>4141&#45;&gt;10582</title>
<path fill="none" stroke="black" d="M691.282,-778.994C641.16,-771.246 536.508,-755.069 484.091,-746.966"/>
</g>
<!-- 11857 -->
<g id="node28" class="node"><title>11857</title>
<g id="a_node28"><a xlink:title="PRE">
<ellipse fill="#71a9f7" stroke="black" cx="877.492" cy="-856.243" rx="32.4942" ry="18"/>
<text text-anchor="middle" x="877.492" y="-852.543" font-family="Times,serif" font-size="14.00">11857</text>
</a>
</g>
</g>
<!-- 4141&#45;&gt;11857 -->
<g id="edge8" class="edge"><title>4141&#45;&gt;11857</title>
<path fill="none" stroke="black" d="M742.644,-794.085C772.037,-807.633 822.33,-830.816 852.487,-844.717"/>
</g>
<!-- 11894 -->
<g id="node29" class="node"><title>11894</title>
<g id="a_node29"><a xlink:title="PRE">
<ellipse fill="#71a9f7" stroke="black" cx="637.518" cy="-951.313" rx="32.4942" ry="18"/>
<text text-anchor="middle" x="637.518" y="-947.613" font-family="Times,serif" font-size="14.00">11894</text>
</a>
</g>
</g>
<!-- 4141&#45;&gt;11894 -->
<g id="edge46" class="edge"><title>4141&#45;&gt;11894</title>
<path fill="none" stroke="black" d="M710.858,-800.67C695.187,-832.861 661.769,-901.502 646.039,-933.811"/>
</g>
<!-- 12772 -->
<g id="node30" class="node"><title>12772</title>
<g id="a_node30"><a xlink:title="PRE">
<ellipse fill="#71a9f7" stroke="black" cx="443.935" cy="-605.17" rx="32.4942" ry="18"/>
<text text-anchor="middle" x="443.935" y="-601.47" font-family="Times,serif" font-size="14.00">12772</text>
</a>
</g>
</g>
<!-- 4141&#45;&gt;12772 -->
<g id="edge12" class="edge"><title>4141&#45;&gt;12772</title>
<path fill="none" stroke="black" d="M699.054,-770.225C648.503,-737.52 517.11,-652.513 465.345,-619.022"/>
</g>
<!-- 12971 -->
<g id="node31" class="node"><title>12971</title>
<g id="a_node31"><a xlink:title="PRE">
<ellipse fill="#71a9f7" stroke="black" cx="615.866" cy="-604.427" rx="32.4942" ry="18"/>
<text text-anchor="middle" x="615.866" y="-600.727" font-family="Times,serif" font-size="14.00">12971</text>
</a>
</g>
</g>
<!-- 4141&#45;&gt;12971 -->
<g id="edge24" class="edge"><title>4141&#45;&gt;12971</title>
<path fill="none" stroke="black" d="M709.385,-766.172C689.665,-732.065 645.726,-656.071 625.906,-621.792"/>
</g>
<!-- 13837 -->
<g id="node34" class="node"><title>13837</title>
<g id="a_node34"><a xlink:title="PRE">
<ellipse fill="#71a9f7" stroke="black" cx="937.271" cy="-761.854" rx="32.4942" ry="18"/>
<text text-anchor="middle" x="937.271" y="-758.154" font-family="Times,serif" font-size="14.00">13837</text>
</a>
</g>
</g>
<!-- 4141&#45;&gt;13837 -->
<g id="edge38" class="edge"><title>4141&#45;&gt;13837</title>
<path fill="none" stroke="black" d="M747.798,-780.519C788.418,-776.517 862.741,-769.196 905.226,-765.011"/>
</g>
<!-- 13928 -->
<g id="node35" class="node"><title>13928</title>
<g id="a_node35"><a xlink:title="PRE">
<ellipse fill="#71a9f7" stroke="black" cx="539.133" cy="-663.514" rx="32.4942" ry="18"/>
<text text-anchor="middle" x="539.133" y="-659.814" font-family="Times,serif" font-size="14.00">13928</text>
</a>
</g>
</g>
<!-- 4141&#45;&gt;13928 -->
<g id="edge3" class="edge"><title>4141&#45;&gt;13928</title>
<path fill="none" stroke="black" d="M699.333,-770.046C664.976,-747.199 595.009,-700.671 560.025,-677.407"/>
</g>
<!-- 14105 -->
<g id="node37" class="node"><title>14105</title>
<g id="a_node37"><a xlink:title="PRE">
<ellipse fill="#71a9f7" stroke="black" cx="636.981" cy="-1039.46" rx="32.4942" ry="18"/>
<text text-anchor="middle" x="636.981" y="-1035.76" font-family="Times,serif" font-size="14.00">14105</text>
</a>
</g>
</g>
<!-- 4141&#45;&gt;14105 -->
<g id="edge56" class="edge"><title>4141&#45;&gt;14105</title>
<path fill="none" stroke="black" d="M713.514,-801.337C698.399,-848.365 657.871,-974.464 642.763,-1021.47"/>
</g>
<!-- 14545 -->
<g id="node38" class="node"><title>14545</title>
<g id="a_node38"><a xlink:title="PRE">
<ellipse fill="#71a9f7" stroke="black" cx="704.6" cy="-621.089" rx="32.4942" ry="18"/>
<text text-anchor="middle" x="704.6" y="-617.389" font-family="Times,serif" font-size="14.00">14545</text>
</a>
</g>
</g>
<!-- 4141&#45;&gt;14545 -->
<g id="edge16" class="edge"><title>4141&#45;&gt;14545</title>
<path fill="none" stroke="black" d="M717.673,-765.344C714.847,-734.158 709.068,-670.393 706.237,-639.152"/>
</g>
<!-- 4141&#45;&gt;16297 -->
<g id="edge18" class="edge"><title>4141&#45;&gt;16297</title>
<path fill="none" stroke="black" d="M697.69,-795.47C653.527,-820.286 553.298,-876.606 508.04,-902.037"/>
</g>
<!-- 18764 -->
<g id="node44" class="node"><title>18764</title>
<g id="a_node44"><a xlink:title="PRE">
<ellipse fill="#71a9f7" stroke="black" cx="720.315" cy="-1052.63" rx="32.4942" ry="18"/>
<text text-anchor="middle" x="720.315" y="-1048.93" font-family="Times,serif" font-size="14.00">18764</text>
</a>
</g>
</g>
<!-- 4141&#45;&gt;18764 -->
<g id="edge58" class="edge"><title>4141&#45;&gt;18764</title>
<path fill="none" stroke="black" d="M719.371,-801.414C719.555,-850.475 720.063,-985.657 720.247,-1034.63"/>
</g>
<!-- 18786 -->
<g id="node45" class="node"><title>18786</title>
<g id="a_node45"><a xlink:title="PRE">
<ellipse fill="#71a9f7" stroke="black" cx="584.449" cy="-896.894" rx="32.4942" ry="18"/>
<text text-anchor="middle" x="584.449" y="-893.194" font-family="Times,serif" font-size="14.00">18786</text>
</a>
</g>
</g>
<!-- 4141&#45;&gt;18786 -->
<g id="edge43" class="edge"><title>4141&#45;&gt;18786</title>
<path fill="none" stroke="black" d="M701.949,-797.94C676.34,-819.507 628.653,-859.667 602.596,-881.61"/>
</g>
<!-- 19452 -->
<g id="node47" class="node"><title>19452</title>
<g id="a_node47"><a xlink:title="PRE">
<ellipse fill="#71a9f7" stroke="black" cx="786.097" cy="-595.427" rx="32.4942" ry="18"/>
<text text-anchor="middle" x="786.097" y="-591.727" font-family="Times,serif" font-size="14.00">19452</text>
</a>
</g>
</g>
<!-- 4141&#45;&gt;19452 -->
<g id="edge22" class="edge"><title>4141&#45;&gt;19452</title>
<path fill="none" stroke="black" d="M725.587,-765.648C738.317,-729.836 767.024,-649.081 779.781,-613.194"/>
</g>
<!-- 19981 -->
<g id="node49" class="node"><title>19981</title>
<g id="a_node49"><a xlink:title="PRE">
<ellipse fill="#71a9f7" stroke="black" cx="547.592" cy="-850.619" rx="32.4942" ry="18"/>
<text text-anchor="middle" x="547.592" y="-846.919" font-family="Times,serif" font-size="14.00">19981</text>
</a>
</g>
</g>
<!-- 4141&#45;&gt;19981 -->
<g id="edge25" class="edge"><title>4141&#45;&gt;19981</title>
<path fill="none" stroke="black" d="M694.701,-792.967C662.708,-805.505 607.037,-827.322 574.123,-840.221"/>
</g>
<!-- 20115 -->
<g id="node50" class="node"><title>20115</title>
<g id="a_node50"><a xlink:title="PRE">
<ellipse fill="#71a9f7" stroke="black" cx="824.796" cy="-912.188" rx="32.4942" ry="18"/>
<text text-anchor="middle" x="824.796" y="-908.488" font-family="Times,serif" font-size="14.00">20115</text>
</a>
</g>
</g>
<!-- 4141&#45;&gt;20115 -->
<g id="edge6" class="edge"><title>4141&#45;&gt;20115</title>
<path fill="none" stroke="black" d="M732.45,-799.386C752.555,-823.944 790.748,-870.598 811.148,-895.517"/>
</g>
<!-- 23934 -->
<g id="node54" class="node"><title>23934</title>
<g id="a_node54"><a xlink:title="PRE">
<ellipse fill="#71a9f7" stroke="black" cx="860.728" cy="-986.921" rx="32.4942" ry="18"/>
<text text-anchor="middle" x="860.728" y="-983.221" font-family="Times,serif" font-size="14.00">23934</text>
</a>
</g>
</g>
<!-- 4141&#45;&gt;23934 -->
<g id="edge54" class="edge"><title>4141&#45;&gt;23934</title>
<path fill="none" stroke="black" d="M730.876,-799.987C757.396,-838.164 822.321,-931.631 848.995,-970.03"/>
</g>
<!-- 24169 -->
<g id="node56" class="node"><title>24169</title>
<g id="a_node56"><a xlink:title="PRE">
<ellipse fill="#71a9f7" stroke="black" cx="453.612" cy="-834.835" rx="32.4942" ry="18"/>
<text text-anchor="middle" x="453.612" y="-831.135" font-family="Times,serif" font-size="14.00">24169</text>
</a>
</g>
</g>
<!-- 4141&#45;&gt;24169 -->
<g id="edge4" class="edge"><title>4141&#45;&gt;24169</title>
<path fill="none" stroke="black" d="M691.87,-788.644C642.018,-798.309 536.892,-818.69 484.562,-828.835"/>
</g>
<!-- 24466 -->
<g id="node57" class="node"><title>24466</title>
<g id="a_node57"><a xlink:title="PRE">
<ellipse fill="#71a9f7" stroke="black" cx="599.773" cy="-538.581" rx="32.4942" ry="18"/>
<text text-anchor="middle" x="599.773" y="-534.881" font-family="Times,serif" font-size="14.00">24466</text>
</a>
</g>
</g>
<!-- 4141&#45;&gt;24466 -->
<g id="edge34" class="edge"><title>4141&#45;&gt;24466</title>
<path fill="none" stroke="black" d="M710.898,-766.116C689.004,-721.287 630.39,-601.271 608.329,-556.1"/>
</g>
<!-- 25148 -->
<g id="node59" class="node"><title>25148</title>
<g id="a_node59"><a xlink:title="PRE">
<ellipse fill="#71a9f7" stroke="black" cx="909.92" cy="-927.95" rx="32.4942" ry="18"/>
<text text-anchor="middle" x="909.92" y="-924.25" font-family="Times,serif" font-size="14.00">25148</text>
</a>
</g>
</g>
<!-- 4141&#45;&gt;25148 -->
<g id="edge48" class="edge"><title>4141&#45;&gt;25148</title>
<path fill="none" stroke="black" d="M737.58,-797.193C773.642,-824.553 853.65,-885.257 890.567,-913.266"/>
</g>
<!-- 12277 -->
<g id="node60" class="node"><title>12277</title>
<g id="a_node60"><a xlink:title="PRE">
<ellipse fill="#71a9f7" stroke="black" cx="705.302" cy="-570.851" rx="32.4942" ry="18"/>
<text text-anchor="middle" x="705.302" y="-567.151" font-family="Times,serif" font-size="14.00">12277</text>
</a>
</g>
</g>
<!-- 4141&#45;&gt;12277 -->
<g id="edge17" class="edge"><title>4141&#45;&gt;12277</title>
<path fill="none" stroke="black" d="M718.109,-765.21C715.464,-725.068 709.135,-629.02 706.492,-588.92"/>
</g>
<!-- 4324 -->
<g id="node13" class="node"><title>4324</title>
<g id="a_node13"><a xlink:title="PRE">
<ellipse fill="#71a9f7" stroke="black" cx="1208.48" cy="-873.252" rx="28.6953" ry="18"/>
<text text-anchor="middle" x="1208.48" y="-869.552" font-family="Times,serif" font-size="14.00">4324</text>
</a>
</g>
</g>
<!-- 4324&#45;&gt;8691 -->
<g id="edge39" class="edge"><title>4324&#45;&gt;8691</title>
<path fill="none" stroke="black" d="M1180.04,-870.552C1137.61,-866.524 1058.2,-858.984 1015.83,-854.962"/>
</g>
<!-- 23588 -->
<g id="node52" class="node"><title>23588</title>
<g id="a_node52"><a xlink:title="PRE">
<ellipse fill="#71a9f7" stroke="black" cx="1023.83" cy="-414.556" rx="32.4942" ry="18"/>
<text text-anchor="middle" x="1023.83" y="-410.856" font-family="Times,serif" font-size="14.00">23588</text>
</a>
</g>
</g>
<!-- 6333&#45;&gt;23588 -->
<g id="edge1" class="edge"><title>6333&#45;&gt;23588</title>
<path fill="none" stroke="black" d="M890.381,-570.523C918.245,-537.956 981.665,-463.832 1009.86,-430.876"/>
</g>
<!-- 15131 -->
<g id="node40" class="node"><title>15131</title>
<g id="a_node40"><a xlink:title="PRE">
<ellipse fill="#71a9f7" stroke="black" cx="383.236" cy="-1153.57" rx="32.4942" ry="18"/>
<text text-anchor="middle" x="383.236" y="-1149.87" font-family="Times,serif" font-size="14.00">15131</text>
</a>
</g>
</g>
<!-- 6355&#45;&gt;15131 -->
<g id="edge10" class="edge"><title>6355&#45;&gt;15131</title>
<path fill="none" stroke="black" d="M513.068,-1036.09C485.113,-1061.38 428.722,-1112.41 400.355,-1138.08"/>
</g>
<!-- 24843 -->
<g id="node58" class="node"><title>24843</title>
<g id="a_node58"><a xlink:title="PRE">
<ellipse fill="#71a9f7" stroke="black" cx="440.611" cy="-1198.16" rx="32.4942" ry="18"/>
<text text-anchor="middle" x="440.611" y="-1194.46" font-family="Times,serif" font-size="14.00">24843</text>
</a>
</g>
</g>
<!-- 6355&#45;&gt;24843 -->
<g id="edge52" class="edge"><title>6355&#45;&gt;24843</title>
<path fill="none" stroke="black" d="M520.878,-1038.45C503.871,-1072.29 466.373,-1146.9 449.338,-1180.8"/>
</g>
<!-- 6599 -->
<g id="node19" class="node"><title>6599</title>
<g id="a_node19"><a xlink:title="PRE">
<ellipse fill="#71a9f7" stroke="black" cx="996.135" cy="-1167.7" rx="28.6953" ry="18"/>
<text text-anchor="middle" x="996.135" y="-1164" font-family="Times,serif" font-size="14.00">6599</text>
</a>
</g>
</g>
<!-- 6599&#45;&gt;23934 -->
<g id="edge36" class="edge"><title>6599&#45;&gt;23934</title>
<path fill="none" stroke="black" d="M983.88,-1151.34C958.23,-1117.1 899.129,-1038.19 873.25,-1003.64"/>
</g>
<!-- 7768 -->
<g id="node20" class="node"><title>7768</title>
<g id="a_node20"><a xlink:title="PRE">
<ellipse fill="#71a9f7" stroke="black" cx="258.631" cy="-722.971" rx="28.6953" ry="18"/>
<text text-anchor="middle" x="258.631" y="-719.271" font-family="Times,serif" font-size="14.00">7768</text>
</a>
</g>
</g>
<!-- 7768&#45;&gt;10582 -->
<g id="edge50" class="edge"><title>7768&#45;&gt;10582</title>
<path fill="none" stroke="black" d="M287.276,-725.797C322.925,-729.314 383.627,-735.302 420.768,-738.967"/>
</g>
<!-- 7949 -->
<g id="node21" class="node"><title>7949</title>
<g id="a_node21"><a xlink:title="PRE">
<ellipse fill="#71a9f7" stroke="black" cx="517.157" cy="-364.963" rx="28.6953" ry="18"/>
<text text-anchor="middle" x="517.157" y="-361.263" font-family="Times,serif" font-size="14.00">7949</text>
</a>
</g>
</g>
<!-- 7949&#45;&gt;24466 -->
<g id="edge9" class="edge"><title>7949&#45;&gt;24466</title>
<path fill="none" stroke="black" d="M525.38,-382.245C541.175,-415.438 575.595,-487.771 591.46,-521.112"/>
</g>
<!-- 23712 -->
<g id="node53" class="node"><title>23712</title>
<g id="a_node53"><a xlink:title="PRE">
<ellipse fill="#71a9f7" stroke="black" cx="1192.95" cy="-947.961" rx="32.4942" ry="18"/>
<text text-anchor="middle" x="1192.95" y="-944.261" font-family="Times,serif" font-size="14.00">23712</text>
</a>
</g>
</g>
<!-- 8691&#45;&gt;23712 -->
<g id="edge23" class="edge"><title>8691&#45;&gt;23712</title>
<path fill="none" stroke="black" d="M1010.67,-863.063C1049.61,-881.197 1127.82,-917.627 1167.95,-936.317"/>
</g>
<!-- 8850 -->
<g id="node24" class="node"><title>8850</title>
<g id="a_node24"><a xlink:title="PRE">
<ellipse fill="#71a9f7" stroke="black" cx="1095.01" cy="-1067.88" rx="28.6953" ry="18"/>
<text text-anchor="middle" x="1095.01" y="-1064.18" font-family="Times,serif" font-size="14.00">8850</text>
</a>
</g>
</g>
<!-- 8850&#45;&gt;25148 -->
<g id="edge44" class="edge"><title>8850&#45;&gt;25148</title>
<path fill="none" stroke="black" d="M1076.59,-1053.95C1041.47,-1027.4 965.28,-969.802 929.378,-942.66"/>
</g>
<!-- 9258 -->
<g id="node25" class="node"><title>9258</title>
<g id="a_node25"><a xlink:title="PRE">
<ellipse fill="#71a9f7" stroke="black" cx="260.228" cy="-877.092" rx="28.6953" ry="18"/>
<text text-anchor="middle" x="260.228" y="-873.392" font-family="Times,serif" font-size="14.00">9258</text>
</a>
</g>
</g>
<!-- 9258&#45;&gt;24169 -->
<g id="edge42" class="edge"><title>9258&#45;&gt;24169</title>
<path fill="none" stroke="black" d="M287.525,-871.127C323.34,-863.301 386.003,-849.609 423.27,-841.465"/>
</g>
<!-- 9463 -->
<g id="node26" class="node"><title>9463</title>
<g id="a_node26"><a xlink:title="PRE">
<ellipse fill="#71a9f7" stroke="black" cx="134.171" cy="-302.173" rx="28.6953" ry="18"/>
<text text-anchor="middle" x="134.171" y="-298.473" font-family="Times,serif" font-size="14.00">9463</text>
</a>
</g>
</g>
<!-- 15117 -->
<g id="node39" class="node"><title>15117</title>
<g id="a_node39"><a xlink:title="PRE">
<ellipse fill="#71a9f7" stroke="black" cx="289.207" cy="-448.649" rx="32.4942" ry="18"/>
<text text-anchor="middle" x="289.207" y="-444.949" font-family="Times,serif" font-size="14.00">15117</text>
</a>
</g>
</g>
<!-- 9463&#45;&gt;15117 -->
<g id="edge29" class="edge"><title>9463&#45;&gt;15117</title>
<path fill="none" stroke="black" d="M150.179,-317.297C179.733,-345.219 242.577,-404.594 272.585,-432.945"/>
</g>
<!-- 12772&#45;&gt;15117 -->
<g id="edge55" class="edge"><title>12772&#45;&gt;15117</title>
<path fill="none" stroke="black" d="M428.247,-589.301C398.591,-559.301 334.624,-494.593 304.936,-464.561"/>
</g>
<!-- 17163 -->
<g id="node42" class="node"><title>17163</title>
<g id="a_node42"><a xlink:title="PRE">
<ellipse fill="#71a9f7" stroke="black" cx="237.03" cy="-531.044" rx="32.4942" ry="18"/>
<text text-anchor="middle" x="237.03" y="-527.344" font-family="Times,serif" font-size="14.00">17163</text>
</a>
</g>
</g>
<!-- 12772&#45;&gt;17163 -->
<g id="edge60" class="edge"><title>12772&#45;&gt;17163</title>
<path fill="none" stroke="black" d="M416.46,-595.327C376.886,-581.149 304.256,-555.128 264.619,-540.928"/>
</g>
<!-- 13359 -->
<g id="node61" class="node"><title>13359</title>
<g id="a_node61"><a xlink:title="PRE">
<ellipse fill="#71a9f7" stroke="black" cx="587.807" cy="-1235.43" rx="32.4942" ry="18"/>
<text text-anchor="middle" x="587.807" y="-1231.73" font-family="Times,serif" font-size="14.00">13359</text>
</a>
</g>
</g>
<!-- 14105&#45;&gt;13359 -->
<g id="edge57" class="edge"><title>14105&#45;&gt;13359</title>
<path fill="none" stroke="black" d="M632.443,-1057.55C623.075,-1094.88 601.693,-1180.1 592.334,-1217.39"/>
</g>
<!-- 19727 -->
<g id="node48" class="node"><title>19727</title>
<g id="a_node48"><a xlink:title="PRE">
<ellipse fill="#71a9f7" stroke="black" cx="32.0799" cy="-457.763" rx="32.4942" ry="18"/>
<text text-anchor="middle" x="32.0799" y="-454.063" font-family="Times,serif" font-size="14.00">19727</text>
</a>
</g>
</g>
<!-- 17163&#45;&gt;19727 -->
<g id="edge31" class="edge"><title>17163&#45;&gt;19727</title>
<path fill="none" stroke="black" d="M209.39,-521.161C170.164,-507.135 98.7734,-481.609 59.609,-467.606"/>
</g>
<!-- 22254 -->
<g id="node51" class="node"><title>22254</title>
<g id="a_node51"><a xlink:title="PRE">
<ellipse fill="#71a9f7" stroke="black" cx="729.634" cy="-1252.18" rx="32.4942" ry="18"/>
<text text-anchor="middle" x="729.634" y="-1248.48" font-family="Times,serif" font-size="14.00">22254</text>
</a>
</g>
</g>
<!-- 18764&#45;&gt;22254 -->
<g id="edge45" class="edge"><title>18764&#45;&gt;22254</title>
<path fill="none" stroke="black" d="M721.159,-1070.69C722.928,-1108.59 727.012,-1196.03 728.785,-1234.01"/>
</g>
</g>
</svg>
