<?xml version="1.0" encoding="UTF-8" standalone="no"?>
<!DOCTYPE svg PUBLIC "-//W3C//DTD SVG 1.1//EN"
 "http://www.w3.org/Graphics/SVG/1.1/DTD/svg11.dtd">
<!-- Generated by graphviz version 2.38.0 (20140413.2041)
 -->
<!-- Title: %3 Pages: 1 -->
<svg width="1719pt" height="2044pt"
 viewBox="0.00 0.00 1719.00 2044.00" xmlns="http://www.w3.org/2000/svg" xmlns:xlink="http://www.w3.org/1999/xlink">
<g id="graph0" class="graph" transform="scale(1 1) rotate(0) translate(4 2040)">
<title>%3</title>
<polygon fill="white" stroke="none" points="-4,4 -4,-2040 1715,-2040 1715,4 -4,4"/>
<!-- 172 -->
<g id="node1" class="node"><title>172</title>
<g id="a_node1"><a xlink:title="3rd_week">
<ellipse fill="#ee9898" stroke="black" cx="967.955" cy="-472.402" rx="27" ry="18"/>
<text text-anchor="middle" x="967.955" y="-468.702" font-family="Times,serif" font-size="14.00">172</text>
</a>
</g>
</g>
<!-- 23465 -->
<g id="node50" class="node"><title>23465</title>
<g id="a_node50"><a xlink:title="3rd_week">
<ellipse fill="#ee9898" stroke="black" cx="813.315" cy="-559.769" rx="32.4942" ry="18"/>
<text text-anchor="middle" x="813.315" y="-556.069" font-family="Times,serif" font-size="14.00">23465</text>
</a>
</g>
</g>
<!-- 172&#45;&gt;23465 -->
<g id="edge10" class="edge"><title>172&#45;&gt;23465</title>
<path fill="none" stroke="black" d="M947.1,-484.185C918.163,-500.533 866.026,-529.989 836.098,-546.898"/>
</g>
<!-- 256 -->
<g id="node2" class="node"><title>256</title>
<g id="a_node2"><a xlink:title="3rd_week">
<ellipse fill="#ee9898" stroke="black" cx="698.815" cy="-666.272" rx="27" ry="18"/>
<text text-anchor="middle" x="698.815" y="-662.572" font-family="Times,serif" font-size="14.00">256</text>
</a>
</g>
</g>
<!-- 256&#45;&gt;23465 -->
<g id="edge19" class="edge"><title>256&#45;&gt;23465</title>
<path fill="none" stroke="black" d="M714.736,-651.463C736.243,-631.459 774.412,-595.955 796.413,-575.491"/>
</g>
<!-- 643 -->
<g id="node3" class="node"><title>643</title>
<g id="a_node3"><a xlink:title="3rd_week">
<ellipse fill="#ee9898" stroke="black" cx="1051.39" cy="-17.8208" rx="27" ry="18"/>
<text text-anchor="middle" x="1051.39" y="-14.1208" font-family="Times,serif" font-size="14.00">643</text>
</a>
</g>
</g>
<!-- 26878 -->
<g id="node57" class="node"><title>26878</title>
<g id="a_node57"><a xlink:title="3rd_week">
<ellipse fill="#ee9898" stroke="black" cx="1030.24" cy="-230.031" rx="32.4942" ry="18"/>
<text text-anchor="middle" x="1030.24" y="-226.331" font-family="Times,serif" font-size="14.00">26878</text>
</a>
</g>
</g>
<!-- 643&#45;&gt;26878 -->
<g id="edge44" class="edge"><title>643&#45;&gt;26878</title>
<path fill="none" stroke="black" d="M1049.59,-35.9137C1045.59,-76.0061 1036.03,-171.934 1032.04,-211.984"/>
</g>
<!-- 1131 -->
<g id="node4" class="node"><title>1131</title>
<g id="a_node4"><a xlink:title="3rd_week">
<ellipse fill="#ee9898" stroke="black" cx="498.8" cy="-469.469" rx="28.6953" ry="18"/>
<text text-anchor="middle" x="498.8" y="-465.769" font-family="Times,serif" font-size="14.00">1131</text>
</a>
</g>
</g>
<!-- 15119 -->
<g id="node27" class="node"><title>15119</title>
<g id="a_node27"><a xlink:title="3rd_week">
<ellipse fill="#ee9898" stroke="black" cx="255.584" cy="-400.543" rx="32.4942" ry="18"/>
<text text-anchor="middle" x="255.584" y="-396.843" font-family="Times,serif" font-size="14.00">15119</text>
</a>
</g>
</g>
<!-- 1131&#45;&gt;15119 -->
<g id="edge50" class="edge"><title>1131&#45;&gt;15119</title>
<path fill="none" stroke="black" d="M472.309,-461.962C426.386,-448.947 332.351,-422.298 284.677,-408.788"/>
</g>
<!-- 1131&#45;&gt;23465 -->
<g id="edge55" class="edge"><title>1131&#45;&gt;23465</title>
<path fill="none" stroke="black" d="M525.075,-477.013C583.391,-493.756 723.285,-533.921 784.175,-551.403"/>
</g>
<!-- 2090 -->
<g id="node5" class="node"><title>2090</title>
<g id="a_node5"><a xlink:title="3rd_week">
<ellipse fill="#ee9898" stroke="black" cx="616.979" cy="-574.56" rx="28.6953" ry="18"/>
<text text-anchor="middle" x="616.979" y="-570.86" font-family="Times,serif" font-size="14.00">2090</text>
</a>
</g>
</g>
<!-- 2090&#45;&gt;23465 -->
<g id="edge18" class="edge"><title>2090&#45;&gt;23465</title>
<path fill="none" stroke="black" d="M645.528,-572.41C681.476,-569.701 743.084,-565.06 780.807,-562.218"/>
</g>
<!-- 2626 -->
<g id="node6" class="node"><title>2626</title>
<g id="a_node6"><a xlink:title="3rd_week">
<ellipse fill="#ee9898" stroke="black" cx="1174.4" cy="-77.6587" rx="28.6953" ry="18"/>
<text text-anchor="middle" x="1174.4" y="-73.9587" font-family="Times,serif" font-size="14.00">2626</text>
</a>
</g>
</g>
<!-- 2626&#45;&gt;26878 -->
<g id="edge59" class="edge"><title>2626&#45;&gt;26878</title>
<path fill="none" stroke="black" d="M1159.51,-93.3913C1132.03,-122.437 1073.6,-184.202 1045.7,-213.695"/>
</g>
<!-- 3173 -->
<g id="node7" class="node"><title>3173</title>
<g id="a_node7"><a xlink:title="3rd_week">
<ellipse fill="#ee9898" stroke="black" cx="558.679" cy="-103.348" rx="28.6953" ry="18"/>
<text text-anchor="middle" x="558.679" y="-99.6477" font-family="Times,serif" font-size="14.00">3173</text>
</a>
</g>
</g>
<!-- 17557 -->
<g id="node34" class="node"><title>17557</title>
<g id="a_node34"><a xlink:title="3rd_week">
<ellipse fill="#ee9898" stroke="black" cx="664.146" cy="-296.376" rx="32.4942" ry="18"/>
<text text-anchor="middle" x="664.146" y="-292.676" font-family="Times,serif" font-size="14.00">17557</text>
</a>
</g>
</g>
<!-- 3173&#45;&gt;17557 -->
<g id="edge7" class="edge"><title>3173&#45;&gt;17557</title>
<path fill="none" stroke="black" d="M568.038,-120.478C588.002,-157.016 634.577,-242.257 654.656,-279.007"/>
</g>
<!-- 4337 -->
<g id="node8" class="node"><title>4337</title>
<g id="a_node8"><a xlink:title="3rd_week">
<ellipse fill="#ee9898" stroke="black" cx="1193.18" cy="-1259.64" rx="28.6953" ry="18"/>
<text text-anchor="middle" x="1193.18" y="-1255.94" font-family="Times,serif" font-size="14.00">4337</text>
</a>
</g>
</g>
<!-- 14383 -->
<g id="node26" class="node"><title>14383</title>
<g id="a_node26"><a xlink:title="3rd_week">
<ellipse fill="#ee9898" stroke="black" cx="1003.97" cy="-913.131" rx="32.4942" ry="18"/>
<text text-anchor="middle" x="1003.97" y="-909.431" font-family="Times,serif" font-size="14.00">14383</text>
</a>
</g>
</g>
<!-- 4337&#45;&gt;14383 -->
<g id="edge11" class="edge"><title>4337&#45;&gt;14383</title>
<path fill="none" stroke="black" d="M1183.8,-1242.45C1151.58,-1183.46 1045.71,-989.569 1013.41,-930.418"/>
</g>
<!-- 20240 -->
<g id="node40" class="node"><title>20240</title>
<g id="a_node40"><a xlink:title="3rd_week">
<ellipse fill="#ee9898" stroke="black" cx="1356.67" cy="-1570.48" rx="32.4942" ry="18"/>
<text text-anchor="middle" x="1356.67" y="-1566.78" font-family="Times,serif" font-size="14.00">20240</text>
</a>
</g>
</g>
<!-- 4337&#45;&gt;20240 -->
<g id="edge25" class="edge"><title>4337&#45;&gt;20240</title>
<path fill="none" stroke="black" d="M1202.2,-1276.79C1230.72,-1331.01 1318.72,-1498.32 1347.48,-1553"/>
</g>
<!-- 26774 -->
<g id="node56" class="node"><title>26774</title>
<g id="a_node56"><a xlink:title="3rd_week">
<ellipse fill="#ee9898" stroke="black" cx="1296.23" cy="-1378.36" rx="32.4942" ry="18"/>
<text text-anchor="middle" x="1296.23" y="-1374.66" font-family="Times,serif" font-size="14.00">26774</text>
</a>
</g>
</g>
<!-- 4337&#45;&gt;26774 -->
<g id="edge37" class="edge"><title>4337&#45;&gt;26774</title>
<path fill="none" stroke="black" d="M1207.08,-1275.65C1226.64,-1298.18 1262.09,-1339.04 1281.89,-1361.84"/>
</g>
<!-- 4860 -->
<g id="node9" class="node"><title>4860</title>
<g id="a_node9"><a xlink:title="3rd_week">
<ellipse fill="#ee9898" stroke="black" cx="1123.08" cy="-32.1873" rx="28.6953" ry="18"/>
<text text-anchor="middle" x="1123.08" y="-28.4873" font-family="Times,serif" font-size="14.00">4860</text>
</a>
</g>
</g>
<!-- 4860&#45;&gt;26878 -->
<g id="edge33" class="edge"><title>4860&#45;&gt;26878</title>
<path fill="none" stroke="black" d="M1114.84,-49.7446C1097.22,-87.2888 1056.06,-175.004 1038.46,-212.513"/>
</g>
<!-- 5479 -->
<g id="node10" class="node"><title>5479</title>
<g id="a_node10"><a xlink:title="3rd_week">
<ellipse fill="#ee9898" stroke="black" cx="513.928" cy="-607.249" rx="28.6953" ry="18"/>
<text text-anchor="middle" x="513.928" y="-603.549" font-family="Times,serif" font-size="14.00">5479</text>
</a>
</g>
</g>
<!-- 5479&#45;&gt;23465 -->
<g id="edge58" class="edge"><title>5479&#45;&gt;23465</title>
<path fill="none" stroke="black" d="M541.825,-602.825C597.712,-593.962 723.06,-574.083 781.806,-564.766"/>
</g>
<!-- 27279 -->
<g id="node58" class="node"><title>27279</title>
<g id="a_node58"><a xlink:title="3rd_week">
<ellipse fill="#ee9898" stroke="black" cx="298.418" cy="-646.552" rx="32.4942" ry="18"/>
<text text-anchor="middle" x="298.418" y="-642.852" font-family="Times,serif" font-size="14.00">27279</text>
</a>
</g>
</g>
<!-- 5479&#45;&gt;27279 -->
<g id="edge30" class="edge"><title>5479&#45;&gt;27279</title>
<path fill="none" stroke="black" d="M486.195,-612.307C445.951,-619.646 371.592,-633.207 329.53,-640.878"/>
</g>
<!-- 6048 -->
<g id="node11" class="node"><title>6048</title>
<g id="a_node11"><a xlink:title="3rd_week">
<ellipse fill="#ee9898" stroke="black" cx="741.657" cy="-768.126" rx="28.6953" ry="18"/>
<text text-anchor="middle" x="741.657" y="-764.426" font-family="Times,serif" font-size="14.00">6048</text>
</a>
</g>
</g>
<!-- 6048&#45;&gt;23465 -->
<g id="edge8" class="edge"><title>6048&#45;&gt;23465</title>
<path fill="none" stroke="black" d="M747.767,-750.362C761.305,-710.997 793.698,-616.811 807.221,-577.489"/>
</g>
<!-- 6538 -->
<g id="node12" class="node"><title>6538</title>
<g id="a_node12"><a xlink:title="3rd_week">
<ellipse fill="#ee9898" stroke="black" cx="852.849" cy="-331.472" rx="28.6953" ry="18"/>
<text text-anchor="middle" x="852.849" y="-327.772" font-family="Times,serif" font-size="14.00">6538</text>
</a>
</g>
</g>
<!-- 6538&#45;&gt;23465 -->
<g id="edge40" class="edge"><title>6538&#45;&gt;23465</title>
<path fill="none" stroke="black" d="M849.747,-349.386C842.375,-391.957 823.87,-498.818 816.458,-541.623"/>
</g>
<!-- 7767 -->
<g id="node13" class="node"><title>7767</title>
<g id="a_node13"><a xlink:title="3rd_week">
<ellipse fill="#ee9898" stroke="black" cx="617.078" cy="-646.187" rx="28.6953" ry="18"/>
<text text-anchor="middle" x="617.078" y="-642.487" font-family="Times,serif" font-size="14.00">7767</text>
</a>
</g>
</g>
<!-- 7767&#45;&gt;23465 -->
<g id="edge26" class="edge"><title>7767&#45;&gt;23465</title>
<path fill="none" stroke="black" d="M640.749,-635.763C677.855,-619.422 749.422,-587.906 787.695,-571.052"/>
</g>
<!-- 7782 -->
<g id="node14" class="node"><title>7782</title>
<g id="a_node14"><a xlink:title="3rd_week">
<ellipse fill="#ee9898" stroke="black" cx="1329.37" cy="-1762.08" rx="28.6953" ry="18"/>
<text text-anchor="middle" x="1329.37" y="-1758.38" font-family="Times,serif" font-size="14.00">7782</text>
</a>
</g>
</g>
<!-- 7782&#45;&gt;20240 -->
<g id="edge6" class="edge"><title>7782&#45;&gt;20240</title>
<path fill="none" stroke="black" d="M1331.94,-1744.05C1337.14,-1707.53 1348.88,-1625.19 1354.09,-1588.6"/>
</g>
<!-- 10360 -->
<g id="node15" class="node"><title>10360</title>
<g id="a_node15"><a xlink:title="3rd_week">
<ellipse fill="#ee9898" stroke="black" cx="820.827" cy="-801.39" rx="32.4942" ry="18"/>
<text text-anchor="middle" x="820.827" y="-797.69" font-family="Times,serif" font-size="14.00">10360</text>
</a>
</g>
</g>
<!-- 10360&#45;&gt;23465 -->
<g id="edge12" class="edge"><title>10360&#45;&gt;23465</title>
<path fill="none" stroke="black" d="M820.262,-783.229C818.867,-738.341 815.268,-622.573 813.876,-577.811"/>
</g>
<!-- 10439 -->
<g id="node16" class="node"><title>10439</title>
<g id="a_node16"><a xlink:title="3rd_week">
<ellipse fill="#ee9898" stroke="black" cx="1554.11" cy="-1573.65" rx="32.4942" ry="18"/>
<text text-anchor="middle" x="1554.11" y="-1569.95" font-family="Times,serif" font-size="14.00">10439</text>
</a>
</g>
</g>
<!-- 10439&#45;&gt;20240 -->
<g id="edge32" class="edge"><title>10439&#45;&gt;20240</title>
<path fill="none" stroke="black" d="M1521.5,-1573.12C1484.92,-1572.54 1425.92,-1571.59 1389.32,-1571"/>
</g>
<!-- 10664 -->
<g id="node17" class="node"><title>10664</title>
<g id="a_node17"><a xlink:title="3rd_week">
<ellipse fill="#ee9898" stroke="black" cx="670.186" cy="-807.673" rx="32.4942" ry="18"/>
<text text-anchor="middle" x="670.186" y="-803.973" font-family="Times,serif" font-size="14.00">10664</text>
</a>
</g>
</g>
<!-- 22251 -->
<g id="node47" class="node"><title>22251</title>
<g id="a_node47"><a xlink:title="3rd_week">
<ellipse fill="#ee9898" stroke="black" cx="548.969" cy="-1016.74" rx="32.4942" ry="18"/>
<text text-anchor="middle" x="548.969" y="-1013.04" font-family="Times,serif" font-size="14.00">22251</text>
</a>
</g>
</g>
<!-- 10664&#45;&gt;22251 -->
<g id="edge46" class="edge"><title>10664&#45;&gt;22251</title>
<path fill="none" stroke="black" d="M660.06,-825.138C637.186,-864.589 581.747,-960.204 558.981,-999.467"/>
</g>
<!-- 10664&#45;&gt;23465 -->
<g id="edge27" class="edge"><title>10664&#45;&gt;23465</title>
<path fill="none" stroke="black" d="M680.251,-790.241C706.531,-744.724 776.995,-622.678 803.262,-577.182"/>
</g>
<!-- 11028 -->
<g id="node18" class="node"><title>11028</title>
<g id="a_node18"><a xlink:title="3rd_week">
<ellipse fill="#ee9898" stroke="black" cx="832.36" cy="-736.6" rx="32.4942" ry="18"/>
<text text-anchor="middle" x="832.36" y="-732.9" font-family="Times,serif" font-size="14.00">11028</text>
</a>
</g>
</g>
<!-- 11028&#45;&gt;23465 -->
<g id="edge36" class="edge"><title>11028&#45;&gt;23465</title>
<path fill="none" stroke="black" d="M830.393,-718.342C826.734,-684.369 818.922,-611.826 815.271,-577.928"/>
</g>
<!-- 11208 -->
<g id="node19" class="node"><title>11208</title>
<g id="a_node19"><a xlink:title="3rd_week">
<ellipse fill="#ee9898" stroke="black" cx="1107.72" cy="-559.323" rx="32.4942" ry="18"/>
<text text-anchor="middle" x="1107.72" y="-555.623" font-family="Times,serif" font-size="14.00">11208</text>
</a>
</g>
</g>
<!-- 11208&#45;&gt;23465 -->
<g id="edge45" class="edge"><title>11208&#45;&gt;23465</title>
<path fill="none" stroke="black" d="M1075.09,-559.373C1018.5,-559.459 902.786,-559.634 846.093,-559.72"/>
</g>
<!-- 24171 -->
<g id="node52" class="node"><title>24171</title>
<g id="a_node52"><a xlink:title="3rd_week">
<ellipse fill="#ee9898" stroke="black" cx="1347.5" cy="-553.669" rx="32.4942" ry="18"/>
<text text-anchor="middle" x="1347.5" y="-549.969" font-family="Times,serif" font-size="14.00">24171</text>
</a>
</g>
</g>
<!-- 11208&#45;&gt;24171 -->
<g id="edge5" class="edge"><title>11208&#45;&gt;24171</title>
<path fill="none" stroke="black" d="M1140.56,-558.549C1186.35,-557.469 1268.89,-555.523 1314.67,-554.443"/>
</g>
<!-- 11695 -->
<g id="node20" class="node"><title>11695</title>
<g id="a_node20"><a xlink:title="3rd_week">
<ellipse fill="#ee9898" stroke="black" cx="1002.09" cy="-415.131" rx="32.4942" ry="18"/>
<text text-anchor="middle" x="1002.09" y="-411.431" font-family="Times,serif" font-size="14.00">11695</text>
</a>
</g>
</g>
<!-- 11695&#45;&gt;23465 -->
<g id="edge48" class="edge"><title>11695&#45;&gt;23465</title>
<path fill="none" stroke="black" d="M982.952,-429.796C946.77,-457.518 868.727,-517.314 832.506,-545.066"/>
</g>
<!-- 12746 -->
<g id="node21" class="node"><title>12746</title>
<g id="a_node21"><a xlink:title="3rd_week">
<ellipse fill="#ee9898" stroke="black" cx="753.214" cy="-37.6395" rx="32.4942" ry="18"/>
<text text-anchor="middle" x="753.214" y="-33.9395" font-family="Times,serif" font-size="14.00">12746</text>
</a>
</g>
</g>
<!-- 15418 -->
<g id="node28" class="node"><title>15418</title>
<g id="a_node28"><a xlink:title="3rd_week">
<ellipse fill="#ee9898" stroke="black" cx="782.178" cy="-258.885" rx="32.4942" ry="18"/>
<text text-anchor="middle" x="782.178" y="-255.185" font-family="Times,serif" font-size="14.00">15418</text>
</a>
</g>
</g>
<!-- 12746&#45;&gt;15418 -->
<g id="edge9" class="edge"><title>12746&#45;&gt;15418</title>
<path fill="none" stroke="black" d="M755.584,-55.745C761.029,-97.3358 774.378,-199.307 779.815,-240.84"/>
</g>
<!-- 13343 -->
<g id="node22" class="node"><title>13343</title>
<g id="a_node22"><a xlink:title="3rd_week">
<ellipse fill="#ee9898" stroke="black" cx="949.182" cy="-646.013" rx="32.4942" ry="18"/>
<text text-anchor="middle" x="949.182" y="-642.313" font-family="Times,serif" font-size="14.00">13343</text>
</a>
</g>
</g>
<!-- 13343&#45;&gt;23465 -->
<g id="edge14" class="edge"><title>13343&#45;&gt;23465</title>
<path fill="none" stroke="black" d="M927.653,-632.347C902.213,-616.198 860.14,-589.492 834.743,-573.371"/>
</g>
<!-- 13563 -->
<g id="node23" class="node"><title>13563</title>
<g id="a_node23"><a xlink:title="3rd_week">
<ellipse fill="#ee9898" stroke="black" cx="408.94" cy="-221.609" rx="32.4942" ry="18"/>
<text text-anchor="middle" x="408.94" y="-217.909" font-family="Times,serif" font-size="14.00">13563</text>
</a>
</g>
</g>
<!-- 18814 -->
<g id="node38" class="node"><title>18814</title>
<g id="a_node38"><a xlink:title="3rd_week">
<ellipse fill="#ee9898" stroke="black" cx="580.689" cy="-365.891" rx="32.4942" ry="18"/>
<text text-anchor="middle" x="580.689" y="-362.191" font-family="Times,serif" font-size="14.00">18814</text>
</a>
</g>
</g>
<!-- 13563&#45;&gt;18814 -->
<g id="edge13" class="edge"><title>13563&#45;&gt;18814</title>
<path fill="none" stroke="black" d="M426.996,-236.777C459.982,-264.488 529.62,-322.99 562.617,-350.71"/>
</g>
<!-- 13584 -->
<g id="node24" class="node"><title>13584</title>
<g id="a_node24"><a xlink:title="3rd_week">
<ellipse fill="#ee9898" stroke="black" cx="593.245" cy="-510.332" rx="32.4942" ry="18"/>
<text text-anchor="middle" x="593.245" y="-506.632" font-family="Times,serif" font-size="14.00">13584</text>
</a>
</g>
</g>
<!-- 13584&#45;&gt;23465 -->
<g id="edge23" class="edge"><title>13584&#45;&gt;23465</title>
<path fill="none" stroke="black" d="M623.383,-517.102C665.409,-526.543 741.169,-543.562 783.189,-553.002"/>
</g>
<!-- 14343 -->
<g id="node25" class="node"><title>14343</title>
<g id="a_node25"><a xlink:title="3rd_week">
<ellipse fill="#ee9898" stroke="black" cx="708.95" cy="-407.021" rx="32.4942" ry="18"/>
<text text-anchor="middle" x="708.95" y="-403.321" font-family="Times,serif" font-size="14.00">14343</text>
</a>
</g>
</g>
<!-- 14343&#45;&gt;23465 -->
<g id="edge35" class="edge"><title>14343&#45;&gt;23465</title>
<path fill="none" stroke="black" d="M720.518,-423.951C740.579,-453.313 781.599,-513.349 801.696,-542.763"/>
</g>
<!-- 14383&#45;&gt;23465 -->
<g id="edge31" class="edge"><title>14383&#45;&gt;23465</title>
<path fill="none" stroke="black" d="M994.512,-895.608C962.053,-835.448 855.372,-637.72 822.827,-577.398"/>
</g>
<!-- 17488 -->
<g id="node33" class="node"><title>17488</title>
<g id="a_node33"><a xlink:title="3rd_week">
<ellipse fill="#ee9898" stroke="black" cx="32.5451" cy="-335.442" rx="32.4942" ry="18"/>
<text text-anchor="middle" x="32.5451" y="-331.742" font-family="Times,serif" font-size="14.00">17488</text>
</a>
</g>
</g>
<!-- 15119&#45;&gt;17488 -->
<g id="edge41" class="edge"><title>15119&#45;&gt;17488</title>
<path fill="none" stroke="black" d="M226.426,-392.033C183.562,-379.522 104.022,-356.305 61.3572,-343.852"/>
</g>
<!-- 15418&#45;&gt;23465 -->
<g id="edge39" class="edge"><title>15418&#45;&gt;23465</title>
<path fill="none" stroke="black" d="M784.079,-277.254C789.651,-331.097 805.899,-488.106 811.439,-541.641"/>
</g>
<!-- 15564 -->
<g id="node29" class="node"><title>15564</title>
<g id="a_node29"><a xlink:title="3rd_week">
<ellipse fill="#ee9898" stroke="black" cx="1024.47" cy="-625.633" rx="32.4942" ry="18"/>
<text text-anchor="middle" x="1024.47" y="-621.933" font-family="Times,serif" font-size="14.00">15564</text>
</a>
</g>
</g>
<!-- 15564&#45;&gt;23465 -->
<g id="edge42" class="edge"><title>15564&#45;&gt;23465</title>
<path fill="none" stroke="black" d="M995.996,-616.75C955.583,-604.145 882.029,-581.202 841.678,-568.616"/>
</g>
<!-- 16409 -->
<g id="node30" class="node"><title>16409</title>
<g id="a_node30"><a xlink:title="3rd_week">
<ellipse fill="#ee9898" stroke="black" cx="1247.56" cy="-1735.96" rx="32.4942" ry="18"/>
<text text-anchor="middle" x="1247.56" y="-1732.26" font-family="Times,serif" font-size="14.00">16409</text>
</a>
</g>
</g>
<!-- 16409&#45;&gt;20240 -->
<g id="edge47" class="edge"><title>16409&#45;&gt;20240</title>
<path fill="none" stroke="black" d="M1258.82,-1718.87C1279.73,-1687.16 1324.32,-1619.55 1345.3,-1587.72"/>
</g>
<!-- 17104 -->
<g id="node31" class="node"><title>17104</title>
<g id="a_node31"><a xlink:title="3rd_week">
<ellipse fill="#ee9898" stroke="black" cx="910.139" cy="-709.574" rx="32.4942" ry="18"/>
<text text-anchor="middle" x="910.139" y="-705.874" font-family="Times,serif" font-size="14.00">17104</text>
</a>
</g>
</g>
<!-- 17104&#45;&gt;23465 -->
<g id="edge28" class="edge"><title>17104&#45;&gt;23465</title>
<path fill="none" stroke="black" d="M899.032,-692.389C880.355,-663.492 842.882,-605.515 824.293,-576.753"/>
</g>
<!-- 17193 -->
<g id="node32" class="node"><title>17193</title>
<g id="a_node32"><a xlink:title="3rd_week">
<ellipse fill="#ee9898" stroke="black" cx="668.119" cy="-726.626" rx="32.4942" ry="18"/>
<text text-anchor="middle" x="668.119" y="-722.926" font-family="Times,serif" font-size="14.00">17193</text>
</a>
</g>
</g>
<!-- 17193&#45;&gt;23465 -->
<g id="edge54" class="edge"><title>17193&#45;&gt;23465</title>
<path fill="none" stroke="black" d="M682.305,-710.323C709.992,-678.506 770.953,-608.452 798.856,-576.385"/>
</g>
<!-- 17557&#45;&gt;23465 -->
<g id="edge2" class="edge"><title>17557&#45;&gt;23465</title>
<path fill="none" stroke="black" d="M673.934,-313.658C700.962,-361.383 776.42,-494.622 803.492,-542.424"/>
</g>
<!-- 17816 -->
<g id="node35" class="node"><title>17816</title>
<g id="a_node35"><a xlink:title="3rd_week">
<ellipse fill="#ee9898" stroke="black" cx="1437.14" cy="-2018.45" rx="32.4942" ry="18"/>
<text text-anchor="middle" x="1437.14" y="-2014.75" font-family="Times,serif" font-size="14.00">17816</text>
</a>
</g>
</g>
<!-- 21151 -->
<g id="node43" class="node"><title>21151</title>
<g id="a_node43"><a xlink:title="3rd_week">
<ellipse fill="#ee9898" stroke="black" cx="1400.08" cy="-1827.55" rx="32.4942" ry="18"/>
<text text-anchor="middle" x="1400.08" y="-1823.85" font-family="Times,serif" font-size="14.00">21151</text>
</a>
</g>
</g>
<!-- 17816&#45;&gt;21151 -->
<g id="edge20" class="edge"><title>17816&#45;&gt;21151</title>
<path fill="none" stroke="black" d="M1433.65,-2000.49C1426.59,-1964.11 1410.66,-1882.06 1403.59,-1845.6"/>
</g>
<!-- 18312 -->
<g id="node36" class="node"><title>18312</title>
<g id="a_node36"><a xlink:title="3rd_week">
<ellipse fill="#ee9898" stroke="black" cx="1053.62" cy="-512.239" rx="32.4942" ry="18"/>
<text text-anchor="middle" x="1053.62" y="-508.539" font-family="Times,serif" font-size="14.00">18312</text>
</a>
</g>
</g>
<!-- 18312&#45;&gt;23465 -->
<g id="edge24" class="edge"><title>18312&#45;&gt;23465</title>
<path fill="none" stroke="black" d="M1022.7,-518.356C976.555,-527.482 890.193,-544.564 844.12,-553.676"/>
</g>
<!-- 18462 -->
<g id="node37" class="node"><title>18462</title>
<g id="a_node37"><a xlink:title="3rd_week">
<ellipse fill="#ee9898" stroke="black" cx="730.031" cy="-351.543" rx="32.4942" ry="18"/>
<text text-anchor="middle" x="730.031" y="-347.843" font-family="Times,serif" font-size="14.00">18462</text>
</a>
</g>
</g>
<!-- 18462&#45;&gt;23465 -->
<g id="edge16" class="edge"><title>18462&#45;&gt;23465</title>
<path fill="none" stroke="black" d="M737.132,-369.296C752.867,-408.636 790.515,-502.763 806.233,-542.061"/>
</g>
<!-- 18814&#45;&gt;23465 -->
<g id="edge49" class="edge"><title>18814&#45;&gt;23465</title>
<path fill="none" stroke="black" d="M598.943,-381.105C642.429,-417.347 751.746,-508.456 795.146,-544.627"/>
</g>
<!-- 19375 -->
<g id="node39" class="node"><title>19375</title>
<g id="a_node39"><a xlink:title="3rd_week">
<ellipse fill="#ee9898" stroke="black" cx="925.499" cy="-346.369" rx="32.4942" ry="18"/>
<text text-anchor="middle" x="925.499" y="-342.669" font-family="Times,serif" font-size="14.00">19375</text>
</a>
</g>
</g>
<!-- 19375&#45;&gt;23465 -->
<g id="edge21" class="edge"><title>19375&#45;&gt;23465</title>
<path fill="none" stroke="black" d="M916.319,-363.832C895.23,-403.948 843.525,-502.304 822.465,-542.364"/>
</g>
<!-- 21094 -->
<g id="node42" class="node"><title>21094</title>
<g id="a_node42"><a xlink:title="3rd_week">
<ellipse fill="#ee9898" stroke="black" cx="1447.11" cy="-1740.58" rx="32.4942" ry="18"/>
<text text-anchor="middle" x="1447.11" y="-1736.88" font-family="Times,serif" font-size="14.00">21094</text>
</a>
</g>
</g>
<!-- 20240&#45;&gt;21094 -->
<g id="edge4" class="edge"><title>20240&#45;&gt;21094</title>
<path fill="none" stroke="black" d="M1366.01,-1588.04C1383.38,-1620.72 1420.48,-1690.5 1437.82,-1723.11"/>
</g>
<!-- 20240&#45;&gt;21151 -->
<g id="edge38" class="edge"><title>20240&#45;&gt;21151</title>
<path fill="none" stroke="black" d="M1359.73,-1588.56C1367.7,-1635.76 1389.07,-1762.32 1397.03,-1809.49"/>
</g>
<!-- 24409 -->
<g id="node53" class="node"><title>24409</title>
<g id="a_node53"><a xlink:title="3rd_week">
<ellipse fill="#ee9898" stroke="black" cx="1542.33" cy="-1753.75" rx="32.4942" ry="18"/>
<text text-anchor="middle" x="1542.33" y="-1750.05" font-family="Times,serif" font-size="14.00">24409</text>
</a>
</g>
</g>
<!-- 20240&#45;&gt;24409 -->
<g id="edge3" class="edge"><title>20240&#45;&gt;24409</title>
<path fill="none" stroke="black" d="M1372.82,-1586.42C1408.02,-1621.17 1491.3,-1703.38 1526.35,-1737.98"/>
</g>
<!-- 29260 -->
<g id="node59" class="node"><title>29260</title>
<g id="a_node59"><a xlink:title="3rd_week">
<ellipse fill="#ee9898" stroke="black" cx="1537.77" cy="-1657.85" rx="32.4942" ry="18"/>
<text text-anchor="middle" x="1537.77" y="-1654.15" font-family="Times,serif" font-size="14.00">29260</text>
</a>
</g>
</g>
<!-- 20240&#45;&gt;29260 -->
<g id="edge15" class="edge"><title>20240&#45;&gt;29260</title>
<path fill="none" stroke="black" d="M1381.47,-1582.45C1416.06,-1599.13 1478.4,-1629.21 1512.98,-1645.89"/>
</g>
<!-- 21071 -->
<g id="node41" class="node"><title>21071</title>
<g id="a_node41"><a xlink:title="3rd_week">
<ellipse fill="#ee9898" stroke="black" cx="1678.32" cy="-1892.98" rx="32.4942" ry="18"/>
<text text-anchor="middle" x="1678.32" y="-1889.28" font-family="Times,serif" font-size="14.00">21071</text>
</a>
</g>
</g>
<!-- 21071&#45;&gt;24409 -->
<g id="edge22" class="edge"><title>21071&#45;&gt;24409</title>
<path fill="none" stroke="black" d="M1662.72,-1877.01C1636.62,-1850.3 1584.41,-1796.84 1558.16,-1769.97"/>
</g>
<!-- 21493 -->
<g id="node44" class="node"><title>21493</title>
<g id="a_node44"><a xlink:title="3rd_week">
<ellipse fill="#ee9898" stroke="black" cx="1002.74" cy="-564.141" rx="32.4942" ry="18"/>
<text text-anchor="middle" x="1002.74" y="-560.441" font-family="Times,serif" font-size="14.00">21493</text>
</a>
</g>
</g>
<!-- 21493&#45;&gt;23465 -->
<g id="edge34" class="edge"><title>21493&#45;&gt;23465</title>
<path fill="none" stroke="black" d="M970.175,-563.39C935.479,-562.589 880.862,-561.328 846.087,-560.526"/>
</g>
<!-- 21771 -->
<g id="node45" class="node"><title>21771</title>
<g id="a_node45"><a xlink:title="3rd_week">
<ellipse fill="#ee9898" stroke="black" cx="1222.81" cy="-132.293" rx="32.4942" ry="18"/>
<text text-anchor="middle" x="1222.81" y="-128.593" font-family="Times,serif" font-size="14.00">21771</text>
</a>
</g>
</g>
<!-- 21771&#45;&gt;26878 -->
<g id="edge43" class="edge"><title>21771&#45;&gt;26878</title>
<path fill="none" stroke="black" d="M1198.81,-144.474C1161.81,-163.254 1091.24,-199.07 1054.24,-217.85"/>
</g>
<!-- 21856 -->
<g id="node46" class="node"><title>21856</title>
<g id="a_node46"><a xlink:title="3rd_week">
<ellipse fill="#ee9898" stroke="black" cx="993.804" cy="-692.72" rx="32.4942" ry="18"/>
<text text-anchor="middle" x="993.804" y="-689.02" font-family="Times,serif" font-size="14.00">21856</text>
</a>
</g>
</g>
<!-- 21856&#45;&gt;23465 -->
<g id="edge57" class="edge"><title>21856&#45;&gt;23465</title>
<path fill="none" stroke="black" d="M974.145,-678.239C939.427,-652.665 867.652,-599.794 832.95,-574.233"/>
</g>
<!-- 22401 -->
<g id="node48" class="node"><title>22401</title>
<g id="a_node48"><a xlink:title="3rd_week">
<ellipse fill="#ee9898" stroke="black" cx="371.872" cy="-852.418" rx="32.4942" ry="18"/>
<text text-anchor="middle" x="371.872" y="-848.718" font-family="Times,serif" font-size="14.00">22401</text>
</a>
</g>
</g>
<!-- 30155 -->
<g id="node60" class="node"><title>30155</title>
<g id="a_node60"><a xlink:title="3rd_week">
<ellipse fill="#ee9898" stroke="black" cx="553.334" cy="-728.638" rx="32.4942" ry="18"/>
<text text-anchor="middle" x="553.334" y="-724.938" font-family="Times,serif" font-size="14.00">30155</text>
</a>
</g>
</g>
<!-- 22401&#45;&gt;30155 -->
<g id="edge56" class="edge"><title>22401&#45;&gt;30155</title>
<path fill="none" stroke="black" d="M392.688,-838.219C427.692,-814.342 497.921,-766.437 532.761,-742.672"/>
</g>
<!-- 23012 -->
<g id="node49" class="node"><title>23012</title>
<g id="a_node49"><a xlink:title="3rd_week">
<ellipse fill="#ee9898" stroke="black" cx="925.877" cy="-411.287" rx="32.4942" ry="18"/>
<text text-anchor="middle" x="925.877" y="-407.587" font-family="Times,serif" font-size="14.00">23012</text>
</a>
</g>
</g>
<!-- 23012&#45;&gt;23465 -->
<g id="edge53" class="edge"><title>23012&#45;&gt;23465</title>
<path fill="none" stroke="black" d="M913.184,-428.032C891.565,-456.549 847.839,-514.228 826.135,-542.859"/>
</g>
<!-- 23898 -->
<g id="node51" class="node"><title>23898</title>
<g id="a_node51"><a xlink:title="3rd_week">
<ellipse fill="#ee9898" stroke="black" cx="822.415" cy="-389.048" rx="32.4942" ry="18"/>
<text text-anchor="middle" x="822.415" y="-385.348" font-family="Times,serif" font-size="14.00">23898</text>
</a>
</g>
</g>
<!-- 23465&#45;&gt;23898 -->
<g id="edge52" class="edge"><title>23465&#45;&gt;23898</title>
<path fill="none" stroke="black" d="M814.289,-541.499C816.041,-508.64 819.702,-439.95 821.448,-407.187"/>
</g>
<!-- 25194 -->
<g id="node54" class="node"><title>25194</title>
<g id="a_node54"><a xlink:title="3rd_week">
<ellipse fill="#ee9898" stroke="black" cx="623.75" cy="-461.933" rx="32.4942" ry="18"/>
<text text-anchor="middle" x="623.75" y="-458.233" font-family="Times,serif" font-size="14.00">25194</text>
</a>
</g>
</g>
<!-- 23465&#45;&gt;25194 -->
<g id="edge29" class="edge"><title>23465&#45;&gt;25194</title>
<path fill="none" stroke="black" d="M789.307,-547.378C752.843,-528.559 683.911,-492.983 647.563,-474.223"/>
</g>
<!-- 25543 -->
<g id="node55" class="node"><title>25543</title>
<g id="a_node55"><a xlink:title="3rd_week">
<ellipse fill="#ee9898" stroke="black" cx="912.433" cy="-768.343" rx="32.4942" ry="18"/>
<text text-anchor="middle" x="912.433" y="-764.643" font-family="Times,serif" font-size="14.00">25543</text>
</a>
</g>
</g>
<!-- 23465&#45;&gt;25543 -->
<g id="edge1" class="edge"><title>23465&#45;&gt;25543</title>
<path fill="none" stroke="black" d="M821.596,-577.193C840.253,-616.454 885.405,-711.469 904.106,-750.822"/>
</g>
<!-- 23465&#45;&gt;26878 -->
<g id="edge51" class="edge"><title>23465&#45;&gt;26878</title>
<path fill="none" stroke="black" d="M824.673,-542.505C862.159,-485.525 981.677,-303.854 1019,-247.124"/>
</g>
<!-- 23465&#45;&gt;30155 -->
<g id="edge17" class="edge"><title>23465&#45;&gt;30155</title>
<path fill="none" stroke="black" d="M792.04,-573.589C743.168,-605.333 623.343,-683.165 574.539,-714.865"/>
</g>
</g>
</svg>
