<?xml version="1.0" encoding="UTF-8" standalone="no"?>
<!DOCTYPE svg PUBLIC "-//W3C//DTD SVG 1.1//EN"
 "http://www.w3.org/Graphics/SVG/1.1/DTD/svg11.dtd">
<!-- Generated by graphviz version 2.38.0 (20140413.2041)
 -->
<!-- Title: %3 Pages: 1 -->
<svg width="1663pt" height="2591pt"
 viewBox="0.00 0.00 1663.00 2591.00" xmlns="http://www.w3.org/2000/svg" xmlns:xlink="http://www.w3.org/1999/xlink">
<g id="graph0" class="graph" transform="scale(1 1) rotate(0) translate(4 2587)">
<title>%3</title>
<polygon fill="white" stroke="none" points="-4,4 -4,-2587 1659,-2587 1659,4 -4,4"/>
<!-- 89 -->
<g id="node1" class="node"><title>89</title>
<g id="a_node1"><a xlink:title="6th_week">
<ellipse fill="#c81d25" stroke="black" cx="1228.96" cy="-1065.09" rx="27" ry="18"/>
<text text-anchor="middle" x="1228.96" y="-1061.39" font-family="Times,serif" font-size="14.00">89</text>
</a>
</g>
</g>
<!-- 14864 -->
<g id="node57" class="node"><title>14864</title>
<g id="a_node57"><a xlink:title="6th_week">
<ellipse fill="#c81d25" stroke="black" cx="1445.5" cy="-934.698" rx="32.4942" ry="18"/>
<text text-anchor="middle" x="1445.5" y="-930.998" font-family="Times,serif" font-size="14.00">14864</text>
</a>
</g>
</g>
<!-- 89&#45;&gt;14864 -->
<g id="edge51" class="edge"><title>89&#45;&gt;14864</title>
<path fill="none" stroke="black" d="M1249.34,-1052.83C1290.08,-1028.29 1381.3,-973.356 1423.42,-947.995"/>
</g>
<!-- 23366 -->
<g id="node75" class="node"><title>23366</title>
<g id="a_node75"><a xlink:title="6th_week">
<ellipse fill="#c81d25" stroke="black" cx="990.185" cy="-1192.03" rx="32.4942" ry="18"/>
<text text-anchor="middle" x="990.185" y="-1188.33" font-family="Times,serif" font-size="14.00">23366</text>
</a>
</g>
</g>
<!-- 89&#45;&gt;23366 -->
<g id="edge58" class="edge"><title>89&#45;&gt;23366</title>
<path fill="none" stroke="black" d="M1207.77,-1076.36C1163.26,-1100.02 1060.31,-1154.75 1013.78,-1179.49"/>
</g>
<!-- 148 -->
<g id="node2" class="node"><title>148</title>
<g id="a_node2"><a xlink:title="6th_week">
<ellipse fill="#c81d25" stroke="black" cx="675.143" cy="-1851.05" rx="27" ry="18"/>
<text text-anchor="middle" x="675.143" y="-1847.35" font-family="Times,serif" font-size="14.00">148</text>
</a>
</g>
</g>
<!-- 1279 -->
<g id="node7" class="node"><title>1279</title>
<g id="a_node7"><a xlink:title="6th_week">
<ellipse fill="#c81d25" stroke="black" cx="590.534" cy="-1712.7" rx="28.6953" ry="18"/>
<text text-anchor="middle" x="590.534" y="-1709" font-family="Times,serif" font-size="14.00">1279</text>
</a>
</g>
</g>
<!-- 148&#45;&gt;1279 -->
<g id="edge49" class="edge"><title>148&#45;&gt;1279</title>
<path fill="none" stroke="black" d="M664.937,-1834.36C648.763,-1807.91 617.402,-1756.64 601.041,-1729.88"/>
</g>
<!-- 193 -->
<g id="node3" class="node"><title>193</title>
<g id="a_node3"><a xlink:title="6th_week">
<ellipse fill="#c81d25" stroke="black" cx="1350.53" cy="-640.97" rx="27" ry="18"/>
<text text-anchor="middle" x="1350.53" y="-637.27" font-family="Times,serif" font-size="14.00">193</text>
</a>
</g>
</g>
<!-- 6130 -->
<g id="node26" class="node"><title>6130</title>
<g id="a_node26"><a xlink:title="6th_week">
<ellipse fill="#c81d25" stroke="black" cx="1432.09" cy="-454.919" rx="28.6953" ry="18"/>
<text text-anchor="middle" x="1432.09" y="-451.219" font-family="Times,serif" font-size="14.00">6130</text>
</a>
</g>
</g>
<!-- 193&#45;&gt;6130 -->
<g id="edge15" class="edge"><title>193&#45;&gt;6130</title>
<path fill="none" stroke="black" d="M1358.21,-623.467C1373.75,-588.007 1408.8,-508.045 1424.37,-472.511"/>
</g>
<!-- 6583 -->
<g id="node27" class="node"><title>6583</title>
<g id="a_node27"><a xlink:title="6th_week">
<ellipse fill="#c81d25" stroke="black" cx="1502.53" cy="-501.941" rx="28.6953" ry="18"/>
<text text-anchor="middle" x="1502.53" y="-498.241" font-family="Times,serif" font-size="14.00">6583</text>
</a>
</g>
</g>
<!-- 193&#45;&gt;6583 -->
<g id="edge72" class="edge"><title>193&#45;&gt;6583</title>
<path fill="none" stroke="black" d="M1366.51,-626.354C1395.63,-599.722 1457.01,-543.575 1486.31,-516.779"/>
</g>
<!-- 13371 -->
<g id="node51" class="node"><title>13371</title>
<g id="a_node51"><a xlink:title="6th_week">
<ellipse fill="#c81d25" stroke="black" cx="1167.28" cy="-906.09" rx="32.4942" ry="18"/>
<text text-anchor="middle" x="1167.28" y="-902.39" font-family="Times,serif" font-size="14.00">13371</text>
</a>
</g>
</g>
<!-- 193&#45;&gt;13371 -->
<g id="edge73" class="edge"><title>193&#45;&gt;13371</title>
<path fill="none" stroke="black" d="M1339.07,-657.554C1306.24,-705.053 1212.09,-841.257 1178.97,-889.17"/>
</g>
<!-- 212 -->
<g id="node4" class="node"><title>212</title>
<g id="a_node4"><a xlink:title="6th_week">
<ellipse fill="#c81d25" stroke="black" cx="738.599" cy="-1879.15" rx="27" ry="18"/>
<text text-anchor="middle" x="738.599" y="-1875.45" font-family="Times,serif" font-size="14.00">212</text>
</a>
</g>
</g>
<!-- 212&#45;&gt;1279 -->
<g id="edge63" class="edge"><title>212&#45;&gt;1279</title>
<path fill="none" stroke="black" d="M724.67,-1863.49C696.449,-1831.77 632.813,-1760.23 604.534,-1728.44"/>
</g>
<!-- 599 -->
<g id="node5" class="node"><title>599</title>
<g id="a_node5"><a xlink:title="6th_week">
<ellipse fill="#c81d25" stroke="black" cx="906.519" cy="-1369.17" rx="27" ry="18"/>
<text text-anchor="middle" x="906.519" y="-1365.47" font-family="Times,serif" font-size="14.00">599</text>
</a>
</g>
</g>
<!-- 599&#45;&gt;23366 -->
<g id="edge59" class="edge"><title>599&#45;&gt;23366</title>
<path fill="none" stroke="black" d="M914.693,-1351.86C930.647,-1318.08 965.774,-1243.71 981.853,-1209.67"/>
</g>
<!-- 1149 -->
<g id="node6" class="node"><title>1149</title>
<g id="a_node6"><a xlink:title="6th_week">
<ellipse fill="#c81d25" stroke="black" cx="460.517" cy="-1942.34" rx="28.6953" ry="18"/>
<text text-anchor="middle" x="460.517" y="-1938.64" font-family="Times,serif" font-size="14.00">1149</text>
</a>
</g>
</g>
<!-- 1149&#45;&gt;1279 -->
<g id="edge64" class="edge"><title>1149&#45;&gt;1279</title>
<path fill="none" stroke="black" d="M470.29,-1925.08C494.444,-1882.42 556.739,-1772.39 580.825,-1729.85"/>
</g>
<!-- 11421 -->
<g id="node44" class="node"><title>11421</title>
<g id="a_node44"><a xlink:title="6th_week">
<ellipse fill="#c81d25" stroke="black" cx="321.659" cy="-2156.93" rx="32.4942" ry="18"/>
<text text-anchor="middle" x="321.659" y="-2153.23" font-family="Times,serif" font-size="14.00">11421</text>
</a>
</g>
</g>
<!-- 1149&#45;&gt;11421 -->
<g id="edge77" class="edge"><title>1149&#45;&gt;11421</title>
<path fill="none" stroke="black" d="M449.621,-1959.17C423.728,-1999.19 358.732,-2099.64 332.697,-2139.87"/>
</g>
<!-- 5252 -->
<g id="node21" class="node"><title>5252</title>
<g id="a_node21"><a xlink:title="6th_week">
<ellipse fill="#c81d25" stroke="black" cx="516.363" cy="-1546" rx="28.6953" ry="18"/>
<text text-anchor="middle" x="516.363" y="-1542.3" font-family="Times,serif" font-size="14.00">5252</text>
</a>
</g>
</g>
<!-- 1279&#45;&gt;5252 -->
<g id="edge20" class="edge"><title>1279&#45;&gt;5252</title>
<path fill="none" stroke="black" d="M582.736,-1695.18C568.491,-1663.16 538.417,-1595.57 524.167,-1563.54"/>
</g>
<!-- 5568 -->
<g id="node23" class="node"><title>5568</title>
<g id="a_node23"><a xlink:title="6th_week">
<ellipse fill="#c81d25" stroke="black" cx="304.268" cy="-1818.64" rx="28.6953" ry="18"/>
<text text-anchor="middle" x="304.268" y="-1814.94" font-family="Times,serif" font-size="14.00">5568</text>
</a>
</g>
</g>
<!-- 1279&#45;&gt;5568 -->
<g id="edge55" class="edge"><title>1279&#45;&gt;5568</title>
<path fill="none" stroke="black" d="M565.879,-1721.83C511.766,-1741.85 383.116,-1789.46 328.964,-1809.5"/>
</g>
<!-- 6926 -->
<g id="node30" class="node"><title>6926</title>
<g id="a_node30"><a xlink:title="6th_week">
<ellipse fill="#c81d25" stroke="black" cx="654.052" cy="-2059.4" rx="28.6953" ry="18"/>
<text text-anchor="middle" x="654.052" y="-2055.7" font-family="Times,serif" font-size="14.00">6926</text>
</a>
</g>
</g>
<!-- 1279&#45;&gt;6926 -->
<g id="edge31" class="edge"><title>1279&#45;&gt;6926</title>
<path fill="none" stroke="black" d="M593.859,-1730.86C604.836,-1790.77 639.832,-1981.78 650.76,-2041.43"/>
</g>
<!-- 7141 -->
<g id="node32" class="node"><title>7141</title>
<g id="a_node32"><a xlink:title="6th_week">
<ellipse fill="#c81d25" stroke="black" cx="395.893" cy="-1889.39" rx="28.6953" ry="18"/>
<text text-anchor="middle" x="395.893" y="-1885.69" font-family="Times,serif" font-size="14.00">7141</text>
</a>
</g>
</g>
<!-- 1279&#45;&gt;7141 -->
<g id="edge53" class="edge"><title>1279&#45;&gt;7141</title>
<path fill="none" stroke="black" d="M573.939,-1727.77C537.166,-1761.15 449.18,-1841.02 412.446,-1874.37"/>
</g>
<!-- 7678 -->
<g id="node33" class="node"><title>7678</title>
<g id="a_node33"><a xlink:title="6th_week">
<ellipse fill="#c81d25" stroke="black" cx="513.204" cy="-1859.64" rx="28.6953" ry="18"/>
<text text-anchor="middle" x="513.204" y="-1855.94" font-family="Times,serif" font-size="14.00">7678</text>
</a>
</g>
</g>
<!-- 1279&#45;&gt;7678 -->
<g id="edge8" class="edge"><title>1279&#45;&gt;7678</title>
<path fill="none" stroke="black" d="M581.512,-1729.85C566.691,-1758.01 537.347,-1813.76 522.408,-1842.15"/>
</g>
<!-- 9856 -->
<g id="node39" class="node"><title>9856</title>
<g id="a_node39"><a xlink:title="6th_week">
<ellipse fill="#c81d25" stroke="black" cx="471.511" cy="-1637.51" rx="28.6953" ry="18"/>
<text text-anchor="middle" x="471.511" y="-1633.81" font-family="Times,serif" font-size="14.00">9856</text>
</a>
</g>
</g>
<!-- 1279&#45;&gt;9856 -->
<g id="edge43" class="edge"><title>1279&#45;&gt;9856</title>
<path fill="none" stroke="black" d="M570.343,-1699.95C548.456,-1686.12 513.726,-1664.18 491.8,-1650.33"/>
</g>
<!-- 10519 -->
<g id="node41" class="node"><title>10519</title>
<g id="a_node41"><a xlink:title="6th_week">
<ellipse fill="#c81d25" stroke="black" cx="394.283" cy="-1628.26" rx="32.4942" ry="18"/>
<text text-anchor="middle" x="394.283" y="-1624.56" font-family="Times,serif" font-size="14.00">10519</text>
</a>
</g>
</g>
<!-- 1279&#45;&gt;10519 -->
<g id="edge7" class="edge"><title>1279&#45;&gt;10519</title>
<path fill="none" stroke="black" d="M566.861,-1702.52C529.855,-1686.6 458.575,-1655.92 420.221,-1639.42"/>
</g>
<!-- 12791 -->
<g id="node48" class="node"><title>12791</title>
<g id="a_node48"><a xlink:title="6th_week">
<ellipse fill="#c81d25" stroke="black" cx="433.28" cy="-1822.2" rx="32.4942" ry="18"/>
<text text-anchor="middle" x="433.28" y="-1818.5" font-family="Times,serif" font-size="14.00">12791</text>
</a>
</g>
</g>
<!-- 1279&#45;&gt;12791 -->
<g id="edge17" class="edge"><title>1279&#45;&gt;12791</title>
<path fill="none" stroke="black" d="M571.251,-1726.13C541.398,-1746.92 484.257,-1786.7 453.717,-1807.97"/>
</g>
<!-- 13018 -->
<g id="node49" class="node"><title>13018</title>
<g id="a_node49"><a xlink:title="6th_week">
<ellipse fill="#c81d25" stroke="black" cx="772.112" cy="-1754.17" rx="32.4942" ry="18"/>
<text text-anchor="middle" x="772.112" y="-1750.47" font-family="Times,serif" font-size="14.00">13018</text>
</a>
</g>
</g>
<!-- 1279&#45;&gt;13018 -->
<g id="edge44" class="edge"><title>1279&#45;&gt;13018</title>
<path fill="none" stroke="black" d="M617.718,-1718.91C651.059,-1726.53 707.398,-1739.39 742.016,-1747.3"/>
</g>
<!-- 14262 -->
<g id="node55" class="node"><title>14262</title>
<g id="a_node55"><a xlink:title="6th_week">
<ellipse fill="#c81d25" stroke="black" cx="433.059" cy="-1562.88" rx="32.4942" ry="18"/>
<text text-anchor="middle" x="433.059" y="-1559.18" font-family="Times,serif" font-size="14.00">14262</text>
</a>
</g>
</g>
<!-- 1279&#45;&gt;14262 -->
<g id="edge10" class="edge"><title>1279&#45;&gt;14262</title>
<path fill="none" stroke="black" d="M574.568,-1697.51C544.542,-1668.95 479.956,-1607.5 449.54,-1578.56"/>
</g>
<!-- 16485 -->
<g id="node58" class="node"><title>16485</title>
<g id="a_node58"><a xlink:title="6th_week">
<ellipse fill="#c81d25" stroke="black" cx="664.135" cy="-1921.88" rx="32.4942" ry="18"/>
<text text-anchor="middle" x="664.135" y="-1918.18" font-family="Times,serif" font-size="14.00">16485</text>
</a>
</g>
</g>
<!-- 1279&#45;&gt;16485 -->
<g id="edge14" class="edge"><title>1279&#45;&gt;16485</title>
<path fill="none" stroke="black" d="M596.809,-1730.54C610.714,-1770.06 643.985,-1864.62 657.876,-1904.09"/>
</g>
<!-- 16945 -->
<g id="node60" class="node"><title>16945</title>
<g id="a_node60"><a xlink:title="6th_week">
<ellipse fill="#c81d25" stroke="black" cx="392.304" cy="-1700.22" rx="32.4942" ry="18"/>
<text text-anchor="middle" x="392.304" y="-1696.52" font-family="Times,serif" font-size="14.00">16945</text>
</a>
</g>
</g>
<!-- 1279&#45;&gt;16945 -->
<g id="edge68" class="edge"><title>1279&#45;&gt;16945</title>
<path fill="none" stroke="black" d="M561.709,-1710.89C525.307,-1708.6 462.844,-1704.66 424.788,-1702.26"/>
</g>
<!-- 18540 -->
<g id="node62" class="node"><title>18540</title>
<g id="a_node62"><a xlink:title="6th_week">
<ellipse fill="#c81d25" stroke="black" cx="279.596" cy="-1664.07" rx="32.4942" ry="18"/>
<text text-anchor="middle" x="279.596" y="-1660.37" font-family="Times,serif" font-size="14.00">18540</text>
</a>
</g>
</g>
<!-- 1279&#45;&gt;18540 -->
<g id="edge56" class="edge"><title>1279&#45;&gt;18540</title>
<path fill="none" stroke="black" d="M562.666,-1708.35C504.83,-1699.3 372.09,-1678.53 311.187,-1669.01"/>
</g>
<!-- 20260 -->
<g id="node67" class="node"><title>20260</title>
<g id="a_node67"><a xlink:title="6th_week">
<ellipse fill="#c81d25" stroke="black" cx="414.279" cy="-1759.73" rx="32.4942" ry="18"/>
<text text-anchor="middle" x="414.279" y="-1756.03" font-family="Times,serif" font-size="14.00">20260</text>
</a>
</g>
</g>
<!-- 1279&#45;&gt;20260 -->
<g id="edge34" class="edge"><title>1279&#45;&gt;20260</title>
<path fill="none" stroke="black" d="M564.147,-1719.75C531.879,-1728.35 477.42,-1742.88 443.792,-1751.86"/>
</g>
<!-- 22767 -->
<g id="node72" class="node"><title>22767</title>
<g id="a_node72"><a xlink:title="6th_week">
<ellipse fill="#c81d25" stroke="black" cx="786.93" cy="-1824.55" rx="32.4942" ry="18"/>
<text text-anchor="middle" x="786.93" y="-1820.85" font-family="Times,serif" font-size="14.00">22767</text>
</a>
</g>
</g>
<!-- 1279&#45;&gt;22767 -->
<g id="edge65" class="edge"><title>1279&#45;&gt;22767</title>
<path fill="none" stroke="black" d="M611.925,-1724.89C649.207,-1746.12 725.756,-1789.71 764.053,-1811.52"/>
</g>
<!-- 23339 -->
<g id="node74" class="node"><title>23339</title>
<g id="a_node74"><a xlink:title="6th_week">
<ellipse fill="#c81d25" stroke="black" cx="541.413" cy="-1973.29" rx="32.4942" ry="18"/>
<text text-anchor="middle" x="541.413" y="-1969.59" font-family="Times,serif" font-size="14.00">23339</text>
</a>
</g>
</g>
<!-- 1279&#45;&gt;23339 -->
<g id="edge33" class="edge"><title>1279&#45;&gt;23339</title>
<path fill="none" stroke="black" d="M587.157,-1730.62C578.184,-1778.22 553.814,-1907.5 544.813,-1955.25"/>
</g>
<!-- 1279&#45;&gt;23366 -->
<g id="edge1" class="edge"><title>1279&#45;&gt;23366</title>
<path fill="none" stroke="black" d="M603.155,-1696.26C662.928,-1618.39 917.151,-1287.18 977.361,-1208.74"/>
</g>
<!-- 23601 -->
<g id="node76" class="node"><title>23601</title>
<g id="a_node76"><a xlink:title="6th_week">
<ellipse fill="#c81d25" stroke="black" cx="587.715" cy="-1897.01" rx="32.4942" ry="18"/>
<text text-anchor="middle" x="587.715" y="-1893.31" font-family="Times,serif" font-size="14.00">23601</text>
</a>
</g>
</g>
<!-- 1279&#45;&gt;23601 -->
<g id="edge60" class="edge"><title>1279&#45;&gt;23601</title>
<path fill="none" stroke="black" d="M590.258,-1730.71C589.719,-1765.95 588.531,-1843.64 587.992,-1878.93"/>
</g>
<!-- 1538 -->
<g id="node8" class="node"><title>1538</title>
<g id="a_node8"><a xlink:title="6th_week">
<ellipse fill="#c81d25" stroke="black" cx="802.407" cy="-1056.43" rx="28.6953" ry="18"/>
<text text-anchor="middle" x="802.407" y="-1052.73" font-family="Times,serif" font-size="14.00">1538</text>
</a>
</g>
</g>
<!-- 1538&#45;&gt;23366 -->
<g id="edge69" class="edge"><title>1538&#45;&gt;23366</title>
<path fill="none" stroke="black" d="M821.445,-1070.18C857.156,-1095.96 933.863,-1151.36 970.249,-1177.64"/>
</g>
<!-- 1912 -->
<g id="node9" class="node"><title>1912</title>
<g id="a_node9"><a xlink:title="6th_week">
<ellipse fill="#c81d25" stroke="black" cx="37.6333" cy="-1596.84" rx="28.6953" ry="18"/>
<text text-anchor="middle" x="37.6333" y="-1593.14" font-family="Times,serif" font-size="14.00">1912</text>
</a>
</g>
</g>
<!-- 1912&#45;&gt;18540 -->
<g id="edge75" class="edge"><title>1912&#45;&gt;18540</title>
<path fill="none" stroke="black" d="M63.9881,-1604.17C109.552,-1616.82 202.724,-1642.71 250.27,-1655.92"/>
</g>
<!-- 1929 -->
<g id="node10" class="node"><title>1929</title>
<g id="a_node10"><a xlink:title="6th_week">
<ellipse fill="#c81d25" stroke="black" cx="1596.85" cy="-1274.18" rx="28.6953" ry="18"/>
<text text-anchor="middle" x="1596.85" y="-1270.48" font-family="Times,serif" font-size="14.00">1929</text>
</a>
</g>
</g>
<!-- 23803 -->
<g id="node78" class="node"><title>23803</title>
<g id="a_node78"><a xlink:title="6th_week">
<ellipse fill="#c81d25" stroke="black" cx="1362.07" cy="-1187.11" rx="32.4942" ry="18"/>
<text text-anchor="middle" x="1362.07" y="-1183.41" font-family="Times,serif" font-size="14.00">23803</text>
</a>
</g>
</g>
<!-- 1929&#45;&gt;23803 -->
<g id="edge47" class="edge"><title>1929&#45;&gt;23803</title>
<path fill="none" stroke="black" d="M1572.17,-1265.02C1527.9,-1248.61 1435.34,-1214.28 1389.29,-1197.21"/>
</g>
<!-- 2029 -->
<g id="node11" class="node"><title>2029</title>
<g id="a_node11"><a xlink:title="6th_week">
<ellipse fill="#c81d25" stroke="black" cx="833.434" cy="-1139.7" rx="28.6953" ry="18"/>
<text text-anchor="middle" x="833.434" y="-1136" font-family="Times,serif" font-size="14.00">2029</text>
</a>
</g>
</g>
<!-- 2029&#45;&gt;23366 -->
<g id="edge24" class="edge"><title>2029&#45;&gt;23366</title>
<path fill="none" stroke="black" d="M858.968,-1148.22C887.336,-1157.7 932.992,-1172.94 962.282,-1182.72"/>
</g>
<!-- 2481 -->
<g id="node12" class="node"><title>2481</title>
<g id="a_node12"><a xlink:title="6th_week">
<ellipse fill="#c81d25" stroke="black" cx="210.662" cy="-2058.81" rx="28.6953" ry="18"/>
<text text-anchor="middle" x="210.662" y="-2055.11" font-family="Times,serif" font-size="14.00">2481</text>
</a>
</g>
</g>
<!-- 2481&#45;&gt;7141 -->
<g id="edge66" class="edge"><title>2481&#45;&gt;7141</title>
<path fill="none" stroke="black" d="M227.1,-2043.78C262.251,-2011.63 344.374,-1936.51 379.492,-1904.39"/>
</g>
<!-- 2540 -->
<g id="node13" class="node"><title>2540</title>
<g id="a_node13"><a xlink:title="6th_week">
<ellipse fill="#c81d25" stroke="black" cx="981.936" cy="-1024.72" rx="28.6953" ry="18"/>
<text text-anchor="middle" x="981.936" y="-1021.02" font-family="Times,serif" font-size="14.00">2540</text>
</a>
</g>
</g>
<!-- 2540&#45;&gt;23366 -->
<g id="edge35" class="edge"><title>2540&#45;&gt;23366</title>
<path fill="none" stroke="black" d="M982.834,-1042.94C984.421,-1075.13 987.702,-1141.66 989.288,-1173.83"/>
</g>
<!-- 2984 -->
<g id="node14" class="node"><title>2984</title>
<g id="a_node14"><a xlink:title="6th_week">
<ellipse fill="#c81d25" stroke="black" cx="1158.32" cy="-989.306" rx="28.6953" ry="18"/>
<text text-anchor="middle" x="1158.32" y="-985.606" font-family="Times,serif" font-size="14.00">2984</text>
</a>
</g>
</g>
<!-- 14402 -->
<g id="node56" class="node"><title>14402</title>
<g id="a_node56"><a xlink:title="6th_week">
<ellipse fill="#c81d25" stroke="black" cx="1316" cy="-793.495" rx="32.4942" ry="18"/>
<text text-anchor="middle" x="1316" y="-789.795" font-family="Times,serif" font-size="14.00">14402</text>
</a>
</g>
</g>
<!-- 2984&#45;&gt;14402 -->
<g id="edge11" class="edge"><title>2984&#45;&gt;14402</title>
<path fill="none" stroke="black" d="M1171.49,-972.948C1201.17,-936.09 1273,-846.889 1302.75,-809.944"/>
</g>
<!-- 2984&#45;&gt;23366 -->
<g id="edge48" class="edge"><title>2984&#45;&gt;23366</title>
<path fill="none" stroke="black" d="M1144.84,-1005.55C1113.44,-1043.42 1035.65,-1137.21 1003.96,-1175.42"/>
</g>
<!-- 4095 -->
<g id="node15" class="node"><title>4095</title>
<g id="a_node15"><a xlink:title="6th_week">
<ellipse fill="#c81d25" stroke="black" cx="886.443" cy="-492.205" rx="28.6953" ry="18"/>
<text text-anchor="middle" x="886.443" y="-488.505" font-family="Times,serif" font-size="14.00">4095</text>
</a>
</g>
</g>
<!-- 8296 -->
<g id="node34" class="node"><title>8296</title>
<g id="a_node34"><a xlink:title="6th_week">
<ellipse fill="#c81d25" stroke="black" cx="857.37" cy="-250.24" rx="28.6953" ry="18"/>
<text text-anchor="middle" x="857.37" y="-246.54" font-family="Times,serif" font-size="14.00">8296</text>
</a>
</g>
</g>
<!-- 4095&#45;&gt;8296 -->
<g id="edge36" class="edge"><title>4095&#45;&gt;8296</title>
<path fill="none" stroke="black" d="M884.258,-474.018C878.857,-429.067 864.927,-313.134 859.541,-268.308"/>
</g>
<!-- 23660 -->
<g id="node77" class="node"><title>23660</title>
<g id="a_node77"><a xlink:title="6th_week">
<ellipse fill="#c81d25" stroke="black" cx="925.267" cy="-816.541" rx="32.4942" ry="18"/>
<text text-anchor="middle" x="925.267" y="-812.841" font-family="Times,serif" font-size="14.00">23660</text>
</a>
</g>
</g>
<!-- 4095&#45;&gt;23660 -->
<g id="edge9" class="edge"><title>4095&#45;&gt;23660</title>
<path fill="none" stroke="black" d="M888.641,-510.572C895.475,-567.658 916.292,-741.565 923.092,-798.376"/>
</g>
<!-- 4105 -->
<g id="node16" class="node"><title>4105</title>
<g id="a_node16"><a xlink:title="6th_week">
<ellipse fill="#c81d25" stroke="black" cx="1155.2" cy="-1265.73" rx="28.6953" ry="18"/>
<text text-anchor="middle" x="1155.2" y="-1262.03" font-family="Times,serif" font-size="14.00">4105</text>
</a>
</g>
</g>
<!-- 4105&#45;&gt;23366 -->
<g id="edge54" class="edge"><title>4105&#45;&gt;23366</title>
<path fill="none" stroke="black" d="M1131.56,-1255.17C1100.81,-1241.44 1047.31,-1217.54 1015.68,-1203.42"/>
</g>
<!-- 4181 -->
<g id="node17" class="node"><title>4181</title>
<g id="a_node17"><a xlink:title="6th_week">
<ellipse fill="#c81d25" stroke="black" cx="676.143" cy="-2564.7" rx="28.6953" ry="18"/>
<text text-anchor="middle" x="676.143" y="-2561" font-family="Times,serif" font-size="14.00">4181</text>
</a>
</g>
</g>
<!-- 14142 -->
<g id="node54" class="node"><title>14142</title>
<g id="a_node54"><a xlink:title="6th_week">
<ellipse fill="#c81d25" stroke="black" cx="672.23" cy="-2356.61" rx="32.4942" ry="18"/>
<text text-anchor="middle" x="672.23" y="-2352.91" font-family="Times,serif" font-size="14.00">14142</text>
</a>
</g>
</g>
<!-- 4181&#45;&gt;14142 -->
<g id="edge62" class="edge"><title>4181&#45;&gt;14142</title>
<path fill="none" stroke="black" d="M675.803,-2546.6C675.063,-2507.24 673.314,-2414.27 672.572,-2374.82"/>
</g>
<!-- 4591 -->
<g id="node18" class="node"><title>4591</title>
<g id="a_node18"><a xlink:title="6th_week">
<ellipse fill="#c81d25" stroke="black" cx="540.922" cy="-830.625" rx="28.6953" ry="18"/>
<text text-anchor="middle" x="540.922" y="-826.925" font-family="Times,serif" font-size="14.00">4591</text>
</a>
</g>
</g>
<!-- 13374 -->
<g id="node52" class="node"><title>13374</title>
<g id="a_node52"><a xlink:title="6th_week">
<ellipse fill="#c81d25" stroke="black" cx="744.391" cy="-973.323" rx="32.4942" ry="18"/>
<text text-anchor="middle" x="744.391" y="-969.623" font-family="Times,serif" font-size="14.00">13374</text>
</a>
</g>
</g>
<!-- 4591&#45;&gt;13374 -->
<g id="edge4" class="edge"><title>4591&#45;&gt;13374</title>
<path fill="none" stroke="black" d="M560.064,-844.05C598.448,-870.969 684.512,-931.328 723.947,-958.985"/>
</g>
<!-- 4596 -->
<g id="node19" class="node"><title>4596</title>
<g id="a_node19"><a xlink:title="6th_week">
<ellipse fill="#c81d25" stroke="black" cx="60.3259" cy="-1875.97" rx="28.6953" ry="18"/>
<text text-anchor="middle" x="60.3259" y="-1872.27" font-family="Times,serif" font-size="14.00">4596</text>
</a>
</g>
</g>
<!-- 4596&#45;&gt;5568 -->
<g id="edge76" class="edge"><title>4596&#45;&gt;5568</title>
<path fill="none" stroke="black" d="M87.364,-1869.62C134.255,-1858.6 230.134,-1836.07 277.108,-1825.03"/>
</g>
<!-- 4935 -->
<g id="node20" class="node"><title>4935</title>
<g id="a_node20"><a xlink:title="6th_week">
<ellipse fill="#c81d25" stroke="black" cx="953.635" cy="-578.846" rx="28.6953" ry="18"/>
<text text-anchor="middle" x="953.635" y="-575.146" font-family="Times,serif" font-size="14.00">4935</text>
</a>
</g>
</g>
<!-- 4935&#45;&gt;23660 -->
<g id="edge21" class="edge"><title>4935&#45;&gt;23660</title>
<path fill="none" stroke="black" d="M951.456,-597.103C946.162,-641.456 932.675,-754.467 927.414,-798.548"/>
</g>
<!-- 5363 -->
<g id="node22" class="node"><title>5363</title>
<g id="a_node22"><a xlink:title="6th_week">
<ellipse fill="#c81d25" stroke="black" cx="1609.41" cy="-1143.44" rx="28.6953" ry="18"/>
<text text-anchor="middle" x="1609.41" y="-1139.74" font-family="Times,serif" font-size="14.00">5363</text>
</a>
</g>
</g>
<!-- 5363&#45;&gt;23803 -->
<g id="edge39" class="edge"><title>5363&#45;&gt;23803</title>
<path fill="none" stroke="black" d="M1581.52,-1148.37C1535.03,-1156.58 1442,-1173 1393.35,-1181.59"/>
</g>
<!-- 7001 -->
<g id="node31" class="node"><title>7001</title>
<g id="a_node31"><a xlink:title="6th_week">
<ellipse fill="#c81d25" stroke="black" cx="92.5615" cy="-1951.37" rx="28.6953" ry="18"/>
<text text-anchor="middle" x="92.5615" y="-1947.67" font-family="Times,serif" font-size="14.00">7001</text>
</a>
</g>
</g>
<!-- 5568&#45;&gt;7001 -->
<g id="edge42" class="edge"><title>5568&#45;&gt;7001</title>
<path fill="none" stroke="black" d="M283.968,-1831.37C243.606,-1856.68 153.676,-1913.06 113.11,-1938.49"/>
</g>
<!-- 5578 -->
<g id="node24" class="node"><title>5578</title>
<g id="a_node24"><a xlink:title="6th_week">
<ellipse fill="#c81d25" stroke="black" cx="1075.96" cy="-1052.91" rx="28.6953" ry="18"/>
<text text-anchor="middle" x="1075.96" y="-1049.21" font-family="Times,serif" font-size="14.00">5578</text>
</a>
</g>
</g>
<!-- 5578&#45;&gt;23366 -->
<g id="edge26" class="edge"><title>5578&#45;&gt;23366</title>
<path fill="none" stroke="black" d="M1065.61,-1069.69C1049.22,-1096.29 1017.42,-1147.85 1000.84,-1174.76"/>
</g>
<!-- 5849 -->
<g id="node25" class="node"><title>5849</title>
<g id="a_node25"><a xlink:title="6th_week">
<ellipse fill="#c81d25" stroke="black" cx="1197.43" cy="-1220.61" rx="28.6953" ry="18"/>
<text text-anchor="middle" x="1197.43" y="-1216.91" font-family="Times,serif" font-size="14.00">5849</text>
</a>
</g>
</g>
<!-- 5849&#45;&gt;23366 -->
<g id="edge22" class="edge"><title>5849&#45;&gt;23366</title>
<path fill="none" stroke="black" d="M1169.48,-1216.75C1131.03,-1211.45 1062.02,-1201.94 1021.75,-1196.39"/>
</g>
<!-- 6608 -->
<g id="node28" class="node"><title>6608</title>
<g id="a_node28"><a xlink:title="6th_week">
<ellipse fill="#c81d25" stroke="black" cx="28.9782" cy="-1683.25" rx="28.6953" ry="18"/>
<text text-anchor="middle" x="28.9782" y="-1679.55" font-family="Times,serif" font-size="14.00">6608</text>
</a>
</g>
</g>
<!-- 6608&#45;&gt;18540 -->
<g id="edge38" class="edge"><title>6608&#45;&gt;18540</title>
<path fill="none" stroke="black" d="M57.7272,-1681.05C104.785,-1677.45 197.94,-1670.32 247.241,-1666.54"/>
</g>
<!-- 6747 -->
<g id="node29" class="node"><title>6747</title>
<g id="a_node29"><a xlink:title="6th_week">
<ellipse fill="#c81d25" stroke="black" cx="832.913" cy="-1315.77" rx="28.6953" ry="18"/>
<text text-anchor="middle" x="832.913" y="-1312.07" font-family="Times,serif" font-size="14.00">6747</text>
</a>
</g>
</g>
<!-- 6747&#45;&gt;23366 -->
<g id="edge13" class="edge"><title>6747&#45;&gt;23366</title>
<path fill="none" stroke="black" d="M850.954,-1301.57C880.968,-1277.96 940.867,-1230.83 971.38,-1206.83"/>
</g>
<!-- 11694 -->
<g id="node45" class="node"><title>11694</title>
<g id="a_node45"><a xlink:title="6th_week">
<ellipse fill="#c81d25" stroke="black" cx="753.973" cy="-2279.84" rx="32.4942" ry="18"/>
<text text-anchor="middle" x="753.973" y="-2276.14" font-family="Times,serif" font-size="14.00">11694</text>
</a>
</g>
</g>
<!-- 6926&#45;&gt;11694 -->
<g id="edge19" class="edge"><title>6926&#45;&gt;11694</title>
<path fill="none" stroke="black" d="M662.06,-2077.07C680.77,-2118.35 727.18,-2220.73 745.927,-2262.09"/>
</g>
<!-- 11695 -->
<g id="node46" class="node"><title>11695</title>
<g id="a_node46"><a xlink:title="6th_week">
<ellipse fill="#c81d25" stroke="black" cx="621.257" cy="-2296.25" rx="32.4942" ry="18"/>
<text text-anchor="middle" x="621.257" y="-2292.55" font-family="Times,serif" font-size="14.00">11695</text>
</a>
</g>
</g>
<!-- 6926&#45;&gt;11695 -->
<g id="edge28" class="edge"><title>6926&#45;&gt;11695</title>
<path fill="none" stroke="black" d="M651.534,-2077.59C645.429,-2121.68 629.898,-2233.84 623.784,-2277.99"/>
</g>
<!-- 6926&#45;&gt;14142 -->
<g id="edge5" class="edge"><title>6926&#45;&gt;14142</title>
<path fill="none" stroke="black" d="M655.162,-2077.55C658.407,-2130.61 667.856,-2285.09 671.112,-2338.33"/>
</g>
<!-- 24051 -->
<g id="node80" class="node"><title>24051</title>
<g id="a_node80"><a xlink:title="6th_week">
<ellipse fill="#c81d25" stroke="black" cx="830.853" cy="-18.3069" rx="32.4942" ry="18"/>
<text text-anchor="middle" x="830.853" y="-14.6069" font-family="Times,serif" font-size="14.00">24051</text>
</a>
</g>
</g>
<!-- 8296&#45;&gt;24051 -->
<g id="edge40" class="edge"><title>8296&#45;&gt;24051</title>
<path fill="none" stroke="black" d="M855.289,-232.041C850.332,-188.685 837.871,-79.6928 832.924,-36.4218"/>
</g>
<!-- 8520 -->
<g id="node35" class="node"><title>8520</title>
<g id="a_node35"><a xlink:title="6th_week">
<ellipse fill="#c81d25" stroke="black" cx="1474.19" cy="-1433.26" rx="28.6953" ry="18"/>
<text text-anchor="middle" x="1474.19" y="-1429.56" font-family="Times,serif" font-size="14.00">8520</text>
</a>
</g>
</g>
<!-- 13299 -->
<g id="node50" class="node"><title>13299</title>
<g id="a_node50"><a xlink:title="6th_week">
<ellipse fill="#c81d25" stroke="black" cx="1246.22" cy="-1322.28" rx="32.4942" ry="18"/>
<text text-anchor="middle" x="1246.22" y="-1318.58" font-family="Times,serif" font-size="14.00">13299</text>
</a>
</g>
</g>
<!-- 8520&#45;&gt;13299 -->
<g id="edge79" class="edge"><title>8520&#45;&gt;13299</title>
<path fill="none" stroke="black" d="M1451.49,-1422.22C1408.47,-1401.27 1315.38,-1355.95 1270.88,-1334.29"/>
</g>
<!-- 8919 -->
<g id="node36" class="node"><title>8919</title>
<g id="a_node36"><a xlink:title="6th_week">
<ellipse fill="#c81d25" stroke="black" cx="462.247" cy="-2212.17" rx="28.6953" ry="18"/>
<text text-anchor="middle" x="462.247" y="-2208.47" font-family="Times,serif" font-size="14.00">8919</text>
</a>
</g>
</g>
<!-- 8919&#45;&gt;23339 -->
<g id="edge32" class="edge"><title>8919&#45;&gt;23339</title>
<path fill="none" stroke="black" d="M468.197,-2194.22C482.904,-2149.84 520.836,-2035.38 535.502,-1991.12"/>
</g>
<!-- 9051 -->
<g id="node37" class="node"><title>9051</title>
<g id="a_node37"><a xlink:title="6th_week">
<ellipse fill="#c81d25" stroke="black" cx="1182.74" cy="-1160.72" rx="28.6953" ry="18"/>
<text text-anchor="middle" x="1182.74" y="-1157.02" font-family="Times,serif" font-size="14.00">9051</text>
</a>
</g>
</g>
<!-- 9051&#45;&gt;23366 -->
<g id="edge74" class="edge"><title>9051&#45;&gt;23366</title>
<path fill="none" stroke="black" d="M1154.74,-1165.27C1119.28,-1171.04 1058.35,-1180.95 1021.41,-1186.95"/>
</g>
<!-- 9445 -->
<g id="node38" class="node"><title>9445</title>
<g id="a_node38"><a xlink:title="6th_week">
<ellipse fill="#c81d25" stroke="black" cx="1047.2" cy="-1351.39" rx="28.6953" ry="18"/>
<text text-anchor="middle" x="1047.2" y="-1347.69" font-family="Times,serif" font-size="14.00">9445</text>
</a>
</g>
</g>
<!-- 9445&#45;&gt;23366 -->
<g id="edge30" class="edge"><title>9445&#45;&gt;23366</title>
<path fill="none" stroke="black" d="M1040.88,-1333.73C1029.92,-1303.09 1007.51,-1240.46 996.533,-1209.77"/>
</g>
<!-- 10303 -->
<g id="node40" class="node"><title>10303</title>
<g id="a_node40"><a xlink:title="6th_week">
<ellipse fill="#c81d25" stroke="black" cx="1149.2" cy="-1100.49" rx="32.4942" ry="18"/>
<text text-anchor="middle" x="1149.2" y="-1096.79" font-family="Times,serif" font-size="14.00">10303</text>
</a>
</g>
</g>
<!-- 10303&#45;&gt;23366 -->
<g id="edge29" class="edge"><title>10303&#45;&gt;23366</title>
<path fill="none" stroke="black" d="M1126.42,-1113.61C1096.19,-1131.01 1043.13,-1161.55 1012.93,-1178.94"/>
</g>
<!-- 10837 -->
<g id="node42" class="node"><title>10837</title>
<g id="a_node42"><a xlink:title="6th_week">
<ellipse fill="#c81d25" stroke="black" cx="975.098" cy="-965.414" rx="32.4942" ry="18"/>
<text text-anchor="middle" x="975.098" y="-961.714" font-family="Times,serif" font-size="14.00">10837</text>
</a>
</g>
</g>
<!-- 10837&#45;&gt;23366 -->
<g id="edge23" class="edge"><title>10837&#45;&gt;23366</title>
<path fill="none" stroke="black" d="M976.307,-983.576C979.132,-1026.01 986.14,-1131.27 988.97,-1173.78"/>
</g>
<!-- 10844 -->
<g id="node43" class="node"><title>10844</title>
<g id="a_node43"><a xlink:title="6th_week">
<ellipse fill="#c81d25" stroke="black" cx="890.665" cy="-982.197" rx="32.4942" ry="18"/>
<text text-anchor="middle" x="890.665" y="-978.497" font-family="Times,serif" font-size="14.00">10844</text>
</a>
</g>
</g>
<!-- 10844&#45;&gt;23366 -->
<g id="edge12" class="edge"><title>10844&#45;&gt;23366</title>
<path fill="none" stroke="black" d="M898.979,-999.726C917.712,-1039.22 963.048,-1134.81 981.825,-1174.41"/>
</g>
<!-- 12008 -->
<g id="node47" class="node"><title>12008</title>
<g id="a_node47"><a xlink:title="6th_week">
<ellipse fill="#c81d25" stroke="black" cx="777.521" cy="-1252.96" rx="32.4942" ry="18"/>
<text text-anchor="middle" x="777.521" y="-1249.26" font-family="Times,serif" font-size="14.00">12008</text>
</a>
</g>
</g>
<!-- 12008&#45;&gt;23366 -->
<g id="edge3" class="edge"><title>12008&#45;&gt;23366</title>
<path fill="none" stroke="black" d="M806.645,-1244.61C847.256,-1232.98 920.467,-1212.01 961.072,-1200.37"/>
</g>
<!-- 13299&#45;&gt;23366 -->
<g id="edge67" class="edge"><title>13299&#45;&gt;23366</title>
<path fill="none" stroke="black" d="M1222.13,-1310.03C1173.33,-1285.21 1063.29,-1229.23 1014.39,-1204.35"/>
</g>
<!-- 13371&#45;&gt;23366 -->
<g id="edge16" class="edge"><title>13371&#45;&gt;23366</title>
<path fill="none" stroke="black" d="M1156.73,-923.12C1125.31,-973.858 1032.54,-1123.64 1000.9,-1174.73"/>
</g>
<!-- 13374&#45;&gt;23366 -->
<g id="edge70" class="edge"><title>13374&#45;&gt;23366</title>
<path fill="none" stroke="black" d="M761.675,-988.702C806.805,-1028.86 927.812,-1136.53 972.92,-1176.67"/>
</g>
<!-- 23966 -->
<g id="node79" class="node"><title>23966</title>
<g id="a_node79"><a xlink:title="6th_week">
<ellipse fill="#c81d25" stroke="black" cx="598.776" cy="-763.324" rx="32.4942" ry="18"/>
<text text-anchor="middle" x="598.776" y="-759.624" font-family="Times,serif" font-size="14.00">23966</text>
</a>
</g>
</g>
<!-- 13374&#45;&gt;23966 -->
<g id="edge78" class="edge"><title>13374&#45;&gt;23966</title>
<path fill="none" stroke="black" d="M732.721,-956.493C705.456,-917.172 637.822,-819.634 610.502,-780.234"/>
</g>
<!-- 13592 -->
<g id="node53" class="node"><title>13592</title>
<g id="a_node53"><a xlink:title="6th_week">
<ellipse fill="#c81d25" stroke="black" cx="981.994" cy="-1415.98" rx="32.4942" ry="18"/>
<text text-anchor="middle" x="981.994" y="-1412.28" font-family="Times,serif" font-size="14.00">13592</text>
</a>
</g>
</g>
<!-- 13592&#45;&gt;23366 -->
<g id="edge45" class="edge"><title>13592&#45;&gt;23366</title>
<path fill="none" stroke="black" d="M982.664,-1397.66C984.204,-1355.56 987.979,-1252.34 989.517,-1210.3"/>
</g>
<!-- 16589 -->
<g id="node59" class="node"><title>16589</title>
<g id="a_node59"><a xlink:title="6th_week">
<ellipse fill="#c81d25" stroke="black" cx="830.937" cy="-589.509" rx="32.4942" ry="18"/>
<text text-anchor="middle" x="830.937" y="-585.809" font-family="Times,serif" font-size="14.00">16589</text>
</a>
</g>
</g>
<!-- 16589&#45;&gt;23660 -->
<g id="edge46" class="edge"><title>16589&#45;&gt;23660</title>
<path fill="none" stroke="black" d="M838.339,-607.324C855.972,-649.764 900.3,-756.453 917.899,-798.809"/>
</g>
<!-- 18261 -->
<g id="node61" class="node"><title>18261</title>
<g id="a_node61"><a xlink:title="6th_week">
<ellipse fill="#c81d25" stroke="black" cx="1054.94" cy="-987.464" rx="32.4942" ry="18"/>
<text text-anchor="middle" x="1054.94" y="-983.764" font-family="Times,serif" font-size="14.00">18261</text>
</a>
</g>
</g>
<!-- 18261&#45;&gt;23366 -->
<g id="edge18" class="edge"><title>18261&#45;&gt;23366</title>
<path fill="none" stroke="black" d="M1049.31,-1005.26C1037.06,-1043.95 1008.13,-1135.35 995.852,-1174.13"/>
</g>
<!-- 18603 -->
<g id="node63" class="node"><title>18603</title>
<g id="a_node63"><a xlink:title="6th_week">
<ellipse fill="#c81d25" stroke="black" cx="759.502" cy="-1104.78" rx="32.4942" ry="18"/>
<text text-anchor="middle" x="759.502" y="-1101.08" font-family="Times,serif" font-size="14.00">18603</text>
</a>
</g>
</g>
<!-- 18603&#45;&gt;23366 -->
<g id="edge6" class="edge"><title>18603&#45;&gt;23366</title>
<path fill="none" stroke="black" d="M786.415,-1114.96C830.747,-1131.72 918.634,-1164.97 963.086,-1181.78"/>
</g>
<!-- 18978 -->
<g id="node64" class="node"><title>18978</title>
<g id="a_node64"><a xlink:title="6th_week">
<ellipse fill="#c81d25" stroke="black" cx="1381.42" cy="-1580.31" rx="32.4942" ry="18"/>
<text text-anchor="middle" x="1381.42" y="-1576.61" font-family="Times,serif" font-size="14.00">18978</text>
</a>
</g>
</g>
<!-- 19860 -->
<g id="node66" class="node"><title>19860</title>
<g id="a_node66"><a xlink:title="6th_week">
<ellipse fill="#c81d25" stroke="black" cx="1189.52" cy="-1408.83" rx="32.4942" ry="18"/>
<text text-anchor="middle" x="1189.52" y="-1405.13" font-family="Times,serif" font-size="14.00">19860</text>
</a>
</g>
</g>
<!-- 18978&#45;&gt;19860 -->
<g id="edge61" class="edge"><title>18978&#45;&gt;19860</title>
<path fill="none" stroke="black" d="M1364.05,-1564.79C1327.51,-1532.14 1243.09,-1456.7 1206.71,-1424.2"/>
</g>
<!-- 18995 -->
<g id="node65" class="node"><title>18995</title>
<g id="a_node65"><a xlink:title="6th_week">
<ellipse fill="#c81d25" stroke="black" cx="1080.06" cy="-1413.49" rx="32.4942" ry="18"/>
<text text-anchor="middle" x="1080.06" y="-1409.79" font-family="Times,serif" font-size="14.00">18995</text>
</a>
</g>
</g>
<!-- 18995&#45;&gt;23366 -->
<g id="edge50" class="edge"><title>18995&#45;&gt;23366</title>
<path fill="none" stroke="black" d="M1072.85,-1395.74C1056.03,-1354.28 1014.28,-1251.42 997.422,-1209.87"/>
</g>
<!-- 19860&#45;&gt;23366 -->
<g id="edge57" class="edge"><title>19860&#45;&gt;23366</title>
<path fill="none" stroke="black" d="M1174.54,-1392.54C1137.51,-1352.26 1042,-1248.39 1005.07,-1208.22"/>
</g>
<!-- 20302 -->
<g id="node68" class="node"><title>20302</title>
<g id="a_node68"><a xlink:title="6th_week">
<ellipse fill="#c81d25" stroke="black" cx="1140.57" cy="-1341.02" rx="32.4942" ry="18"/>
<text text-anchor="middle" x="1140.57" y="-1337.32" font-family="Times,serif" font-size="14.00">20302</text>
</a>
</g>
</g>
<!-- 20302&#45;&gt;23366 -->
<g id="edge52" class="edge"><title>20302&#45;&gt;23366</title>
<path fill="none" stroke="black" d="M1124.47,-1325.08C1095.53,-1296.4 1035.02,-1236.46 1006.16,-1207.86"/>
</g>
<!-- 20518 -->
<g id="node69" class="node"><title>20518</title>
<g id="a_node69"><a xlink:title="6th_week">
<ellipse fill="#c81d25" stroke="black" cx="1594.35" cy="-1075.44" rx="32.4942" ry="18"/>
<text text-anchor="middle" x="1594.35" y="-1071.74" font-family="Times,serif" font-size="14.00">20518</text>
</a>
</g>
</g>
<!-- 20518&#45;&gt;23803 -->
<g id="edge37" class="edge"><title>20518&#45;&gt;23803</title>
<path fill="none" stroke="black" d="M1569.49,-1087.39C1524.78,-1108.88 1431.32,-1153.82 1386.75,-1175.25"/>
</g>
<!-- 21111 -->
<g id="node70" class="node"><title>21111</title>
<g id="a_node70"><a xlink:title="6th_week">
<ellipse fill="#c81d25" stroke="black" cx="903.026" cy="-1028.23" rx="32.4942" ry="18"/>
<text text-anchor="middle" x="903.026" y="-1024.53" font-family="Times,serif" font-size="14.00">21111</text>
</a>
</g>
</g>
<!-- 21111&#45;&gt;23366 -->
<g id="edge41" class="edge"><title>21111&#45;&gt;23366</title>
<path fill="none" stroke="black" d="M912.354,-1045.76C929.129,-1077.28 964.198,-1143.19 980.925,-1174.63"/>
</g>
<!-- 21414 -->
<g id="node71" class="node"><title>21414</title>
<g id="a_node71"><a xlink:title="6th_week">
<ellipse fill="#c81d25" stroke="black" cx="752.593" cy="-1181.52" rx="32.4942" ry="18"/>
<text text-anchor="middle" x="752.593" y="-1177.82" font-family="Times,serif" font-size="14.00">21414</text>
</a>
</g>
</g>
<!-- 21414&#45;&gt;23366 -->
<g id="edge27" class="edge"><title>21414&#45;&gt;23366</title>
<path fill="none" stroke="black" d="M785.131,-1182.96C830.502,-1184.96 912.295,-1188.58 957.66,-1190.59"/>
</g>
<!-- 22783 -->
<g id="node73" class="node"><title>22783</title>
<g id="a_node73"><a xlink:title="6th_week">
<ellipse fill="#c81d25" stroke="black" cx="1622.98" cy="-1208.09" rx="32.4942" ry="18"/>
<text text-anchor="middle" x="1622.98" y="-1204.39" font-family="Times,serif" font-size="14.00">22783</text>
</a>
</g>
</g>
<!-- 22783&#45;&gt;23803 -->
<g id="edge25" class="edge"><title>22783&#45;&gt;23803</title>
<path fill="none" stroke="black" d="M1590.73,-1205.49C1540.55,-1201.46 1444.38,-1193.73 1394.25,-1189.7"/>
</g>
<!-- 23366&#45;&gt;23660 -->
<g id="edge71" class="edge"><title>23366&#45;&gt;23660</title>
<path fill="none" stroke="black" d="M987.054,-1173.92C976.062,-1110.34 939.309,-897.765 928.366,-834.47"/>
</g>
<!-- 23366&#45;&gt;23803 -->
<g id="edge2" class="edge"><title>23366&#45;&gt;23803</title>
<path fill="none" stroke="black" d="M1022.86,-1191.6C1093.31,-1190.67 1258.83,-1188.48 1329.33,-1187.54"/>
</g>
</g>
</svg>
