<?xml version="1.0" encoding="UTF-8" standalone="no"?>
<!DOCTYPE svg PUBLIC "-//W3C//DTD SVG 1.1//EN"
 "http://www.w3.org/Graphics/SVG/1.1/DTD/svg11.dtd">
<!-- Generated by graphviz version 2.38.0 (20140413.2041)
 -->
<!-- Title: %3 Pages: 1 -->
<svg width="1612pt" height="1029pt"
 viewBox="0.00 0.00 1612.00 1029.00" xmlns="http://www.w3.org/2000/svg" xmlns:xlink="http://www.w3.org/1999/xlink">
<g id="graph0" class="graph" transform="scale(1 1) rotate(0) translate(4 1025)">
<title>%3</title>
<polygon fill="white" stroke="none" points="-4,4 -4,-1025 1608,-1025 1608,4 -4,4"/>
<!-- 581 -->
<g id="node1" class="node"><title>581</title>
<g id="a_node1"><a xlink:title="6th_week">
<ellipse fill="#c81d25" stroke="black" cx="186.578" cy="-616.159" rx="27" ry="18"/>
<text text-anchor="middle" x="186.578" y="-612.459" font-family="Times,serif" font-size="14.00">581</text>
</a>
</g>
</g>
<!-- 5268 -->
<g id="node6" class="node"><title>5268</title>
<g id="a_node6"><a xlink:title="6th_week">
<ellipse fill="#c81d25" stroke="black" cx="52.7209" cy="-553.646" rx="28.6953" ry="18"/>
<text text-anchor="middle" x="52.7209" y="-549.946" font-family="Times,serif" font-size="14.00">5268</text>
</a>
</g>
</g>
<!-- 581&#45;&gt;5268 -->
<g id="edge20" class="edge"><title>581&#45;&gt;5268</title>
<path fill="none" stroke="black" d="M164.173,-605.696C139.762,-594.295 100.887,-576.14 76.0992,-564.564"/>
</g>
<!-- 22987 -->
<g id="node20" class="node"><title>22987</title>
<g id="a_node20"><a xlink:title="6th_week">
<ellipse fill="#c81d25" stroke="black" cx="32.3405" cy="-630.293" rx="32.4942" ry="18"/>
<text text-anchor="middle" x="32.3405" y="-626.593" font-family="Times,serif" font-size="14.00">22987</text>
</a>
</g>
</g>
<!-- 581&#45;&gt;22987 -->
<g id="edge19" class="edge"><title>581&#45;&gt;22987</title>
<path fill="none" stroke="black" d="M159.712,-618.621C133.215,-621.049 92.6998,-624.762 64.5036,-627.345"/>
</g>
<!-- 31126 -->
<g id="node25" class="node"><title>31126</title>
<g id="a_node25"><a xlink:title="6th_week">
<ellipse fill="#c81d25" stroke="black" cx="63.6252" cy="-704.215" rx="32.4942" ry="18"/>
<text text-anchor="middle" x="63.6252" y="-700.515" font-family="Times,serif" font-size="14.00">31126</text>
</a>
</g>
</g>
<!-- 581&#45;&gt;31126 -->
<g id="edge5" class="edge"><title>581&#45;&gt;31126</title>
<path fill="none" stroke="black" d="M168.171,-629.342C145.528,-645.559 107.219,-672.994 83.7961,-689.769"/>
</g>
<!-- 34185 -->
<g id="node29" class="node"><title>34185</title>
<g id="a_node29"><a xlink:title="6th_week">
<ellipse fill="#c81d25" stroke="black" cx="355.069" cy="-594.29" rx="32.4942" ry="18"/>
<text text-anchor="middle" x="355.069" y="-590.59" font-family="Times,serif" font-size="14.00">34185</text>
</a>
</g>
</g>
<!-- 581&#45;&gt;34185 -->
<g id="edge17" class="edge"><title>581&#45;&gt;34185</title>
<path fill="none" stroke="black" d="M213.276,-612.694C243.155,-608.816 291.534,-602.537 323.326,-598.41"/>
</g>
<!-- 2802 -->
<g id="node2" class="node"><title>2802</title>
<g id="a_node2"><a xlink:title="6th_week">
<ellipse fill="#c81d25" stroke="black" cx="797.957" cy="-529.265" rx="28.6953" ry="18"/>
<text text-anchor="middle" x="797.957" y="-525.565" font-family="Times,serif" font-size="14.00">2802</text>
</a>
</g>
</g>
<!-- 5024 -->
<g id="node4" class="node"><title>5024</title>
<g id="a_node4"><a xlink:title="6th_week">
<ellipse fill="#c81d25" stroke="black" cx="1039.04" cy="-625.023" rx="28.6953" ry="18"/>
<text text-anchor="middle" x="1039.04" y="-621.323" font-family="Times,serif" font-size="14.00">5024</text>
</a>
</g>
</g>
<!-- 2802&#45;&gt;5024 -->
<g id="edge35" class="edge"><title>2802&#45;&gt;5024</title>
<path fill="none" stroke="black" d="M822.4,-538.974C868.606,-557.327 968.273,-596.915 1014.53,-615.289"/>
</g>
<!-- 17170 -->
<g id="node16" class="node"><title>17170</title>
<g id="a_node16"><a xlink:title="6th_week">
<ellipse fill="#c81d25" stroke="black" cx="762.026" cy="-338.06" rx="32.4942" ry="18"/>
<text text-anchor="middle" x="762.026" y="-334.36" font-family="Times,serif" font-size="14.00">17170</text>
</a>
</g>
</g>
<!-- 2802&#45;&gt;17170 -->
<g id="edge31" class="edge"><title>2802&#45;&gt;17170</title>
<path fill="none" stroke="black" d="M794.577,-511.277C787.728,-474.835 772.286,-392.658 765.423,-356.14"/>
</g>
<!-- 32915 -->
<g id="node27" class="node"><title>32915</title>
<g id="a_node27"><a xlink:title="6th_week">
<ellipse fill="#c81d25" stroke="black" cx="572.335" cy="-576.983" rx="32.4942" ry="18"/>
<text text-anchor="middle" x="572.335" y="-573.283" font-family="Times,serif" font-size="14.00">32915</text>
</a>
</g>
</g>
<!-- 2802&#45;&gt;32915 -->
<g id="edge28" class="edge"><title>2802&#45;&gt;32915</title>
<path fill="none" stroke="black" d="M770.742,-535.021C728.431,-543.969 647.15,-561.16 602.887,-570.522"/>
</g>
<!-- 3045 -->
<g id="node3" class="node"><title>3045</title>
<g id="a_node3"><a xlink:title="6th_week">
<ellipse fill="#c81d25" stroke="black" cx="859.29" cy="-237.164" rx="28.6953" ry="18"/>
<text text-anchor="middle" x="859.29" y="-233.464" font-family="Times,serif" font-size="14.00">3045</text>
</a>
</g>
</g>
<!-- 3045&#45;&gt;17170 -->
<g id="edge8" class="edge"><title>3045&#45;&gt;17170</title>
<path fill="none" stroke="black" d="M844.092,-252.929C825.926,-271.773 795.697,-303.131 777.437,-322.073"/>
</g>
<!-- 5207 -->
<g id="node5" class="node"><title>5207</title>
<g id="a_node5"><a xlink:title="6th_week">
<ellipse fill="#c81d25" stroke="black" cx="1035.74" cy="-487.702" rx="28.6953" ry="18"/>
<text text-anchor="middle" x="1035.74" y="-484.002" font-family="Times,serif" font-size="14.00">5207</text>
</a>
</g>
</g>
<!-- 5024&#45;&gt;5207 -->
<g id="edge6" class="edge"><title>5024&#45;&gt;5207</title>
<path fill="none" stroke="black" d="M1038.6,-606.788C1037.97,-580.523 1036.81,-532.319 1036.18,-506.012"/>
</g>
<!-- 5953 -->
<g id="node8" class="node"><title>5953</title>
<g id="a_node8"><a xlink:title="3rd_week">
<ellipse fill="#ee9898" stroke="black" cx="1231.35" cy="-494.387" rx="28.6953" ry="18"/>
<text text-anchor="middle" x="1231.35" y="-490.687" font-family="Times,serif" font-size="14.00">5953</text>
</a>
</g>
</g>
<!-- 5024&#45;&gt;5953 -->
<g id="edge32" class="edge"><title>5024&#45;&gt;5953</title>
<path fill="none" stroke="black" d="M1058.54,-611.778C1095.4,-586.74 1174.9,-532.733 1211.8,-507.667"/>
</g>
<!-- 13786 -->
<g id="node13" class="node"><title>13786</title>
<g id="a_node13"><a xlink:title="6th_week">
<ellipse fill="#c81d25" stroke="black" cx="1231" cy="-710.458" rx="32.4942" ry="18"/>
<text text-anchor="middle" x="1231" y="-706.758" font-family="Times,serif" font-size="14.00">13786</text>
</a>
</g>
</g>
<!-- 5024&#45;&gt;13786 -->
<g id="edge10" class="edge"><title>5024&#45;&gt;13786</title>
<path fill="none" stroke="black" d="M1062.58,-635.499C1098.82,-651.629 1168.01,-682.421 1205.43,-699.08"/>
</g>
<!-- 18105 -->
<g id="node17" class="node"><title>18105</title>
<g id="a_node17"><a xlink:title="6th_week">
<ellipse fill="#c81d25" stroke="black" cx="1114.93" cy="-503.297" rx="32.4942" ry="18"/>
<text text-anchor="middle" x="1114.93" y="-499.597" font-family="Times,serif" font-size="14.00">18105</text>
</a>
</g>
</g>
<!-- 5024&#45;&gt;18105 -->
<g id="edge30" class="edge"><title>5024&#45;&gt;18105</title>
<path fill="none" stroke="black" d="M1049.59,-608.098C1064.01,-584.972 1089.72,-543.726 1104.22,-520.471"/>
</g>
<!-- 26847 -->
<g id="node21" class="node"><title>26847</title>
<g id="a_node21"><a xlink:title="6th_week">
<ellipse fill="#c81d25" stroke="black" cx="1136.21" cy="-756.763" rx="32.4942" ry="18"/>
<text text-anchor="middle" x="1136.21" y="-753.063" font-family="Times,serif" font-size="14.00">26847</text>
</a>
</g>
</g>
<!-- 5024&#45;&gt;26847 -->
<g id="edge11" class="edge"><title>5024&#45;&gt;26847</title>
<path fill="none" stroke="black" d="M1051.15,-641.442C1069.67,-666.549 1104.85,-714.244 1123.64,-739.72"/>
</g>
<!-- 30626 -->
<g id="node24" class="node"><title>30626</title>
<g id="a_node24"><a xlink:title="6th_week">
<ellipse fill="#c81d25" stroke="black" cx="930.473" cy="-676.506" rx="32.4942" ry="18"/>
<text text-anchor="middle" x="930.473" y="-672.806" font-family="Times,serif" font-size="14.00">30626</text>
</a>
</g>
</g>
<!-- 5024&#45;&gt;30626 -->
<g id="edge46" class="edge"><title>5024&#45;&gt;30626</title>
<path fill="none" stroke="black" d="M1016.01,-635.941C998.212,-644.383 973.607,-656.051 955.354,-664.707"/>
</g>
<!-- 33779 -->
<g id="node28" class="node"><title>33779</title>
<g id="a_node28"><a xlink:title="6th_week">
<ellipse fill="#c81d25" stroke="black" cx="995.626" cy="-733.982" rx="32.4942" ry="18"/>
<text text-anchor="middle" x="995.626" y="-730.282" font-family="Times,serif" font-size="14.00">33779</text>
</a>
</g>
</g>
<!-- 5024&#45;&gt;33779 -->
<g id="edge3" class="edge"><title>5024&#45;&gt;33779</title>
<path fill="none" stroke="black" d="M1032.06,-642.529C1024.01,-662.742 1010.83,-695.811 1002.73,-716.157"/>
</g>
<!-- 37954 -->
<g id="node31" class="node"><title>37954</title>
<g id="a_node31"><a xlink:title="6th_week">
<ellipse fill="#c81d25" stroke="black" cx="1035.75" cy="-831.085" rx="32.4942" ry="18"/>
<text text-anchor="middle" x="1035.75" y="-827.385" font-family="Times,serif" font-size="14.00">37954</text>
</a>
</g>
</g>
<!-- 5024&#45;&gt;37954 -->
<g id="edge51" class="edge"><title>5024&#45;&gt;37954</title>
<path fill="none" stroke="black" d="M1038.75,-643.31C1038.12,-682.413 1036.66,-773.772 1036.04,-812.839"/>
</g>
<!-- 40051 -->
<g id="node32" class="node"><title>40051</title>
<g id="a_node32"><a xlink:title="6th_week">
<ellipse fill="#c81d25" stroke="black" cx="1172.38" cy="-599.659" rx="32.4942" ry="18"/>
<text text-anchor="middle" x="1172.38" y="-595.959" font-family="Times,serif" font-size="14.00">40051</text>
</a>
</g>
</g>
<!-- 5024&#45;&gt;40051 -->
<g id="edge16" class="edge"><title>5024&#45;&gt;40051</title>
<path fill="none" stroke="black" d="M1066.67,-619.768C1088.48,-615.618 1118.91,-609.83 1141.53,-605.528"/>
</g>
<!-- 40582 -->
<g id="node34" class="node"><title>40582</title>
<g id="a_node34"><a xlink:title="6th_week">
<ellipse fill="#c81d25" stroke="black" cx="952.203" cy="-540.451" rx="32.4942" ry="18"/>
<text text-anchor="middle" x="952.203" y="-536.751" font-family="Times,serif" font-size="14.00">40582</text>
</a>
</g>
</g>
<!-- 5024&#45;&gt;40582 -->
<g id="edge18" class="edge"><title>5024&#45;&gt;40582</title>
<path fill="none" stroke="black" d="M1023.51,-609.903C1008,-594.795 984.249,-571.662 968.477,-556.301"/>
</g>
<!-- 5758 -->
<g id="node7" class="node"><title>5758</title>
<g id="a_node7"><a xlink:title="6th_week">
<ellipse fill="#c81d25" stroke="black" cx="783.718" cy="-184.024" rx="28.6953" ry="18"/>
<text text-anchor="middle" x="783.718" y="-180.324" font-family="Times,serif" font-size="14.00">5758</text>
</a>
</g>
</g>
<!-- 5758&#45;&gt;17170 -->
<g id="edge13" class="edge"><title>5758&#45;&gt;17170</title>
<path fill="none" stroke="black" d="M781.187,-201.995C777.03,-231.518 768.798,-289.968 764.608,-319.726"/>
</g>
<!-- 12978 -->
<g id="node37" class="node"><title>12978</title>
<g id="a_node37"><a xlink:title="6th_week">
<ellipse fill="#c81d25" stroke="black" cx="1406.88" cy="-380.089" rx="32.4942" ry="18"/>
<text text-anchor="middle" x="1406.88" y="-376.389" font-family="Times,serif" font-size="14.00">12978</text>
</a>
</g>
</g>
<!-- 5953&#45;&gt;12978 -->
<g id="edge36" class="edge"><title>5953&#45;&gt;12978</title>
<path fill="none" stroke="black" d="M1251.49,-481.276C1284.89,-459.521 1351.48,-416.164 1385.61,-393.934"/>
</g>
<!-- 8773 -->
<g id="node9" class="node"><title>8773</title>
<g id="a_node9"><a xlink:title="6th_week">
<ellipse fill="#c81d25" stroke="black" cx="594.925" cy="-712.771" rx="28.6953" ry="18"/>
<text text-anchor="middle" x="594.925" y="-709.071" font-family="Times,serif" font-size="14.00">8773</text>
</a>
</g>
</g>
<!-- 8773&#45;&gt;32915 -->
<g id="edge27" class="edge"><title>8773&#45;&gt;32915</title>
<path fill="none" stroke="black" d="M591.925,-694.739C587.605,-668.768 579.675,-621.102 575.348,-595.089"/>
</g>
<!-- 9218 -->
<g id="node10" class="node"><title>9218</title>
<g id="a_node10"><a xlink:title="6th_week">
<ellipse fill="#c81d25" stroke="black" cx="512.791" cy="-478.244" rx="28.6953" ry="18"/>
<text text-anchor="middle" x="512.791" y="-474.544" font-family="Times,serif" font-size="14.00">9218</text>
</a>
</g>
</g>
<!-- 9218&#45;&gt;32915 -->
<g id="edge1" class="edge"><title>9218&#45;&gt;32915</title>
<path fill="none" stroke="black" d="M523.163,-495.443C534.025,-513.455 550.99,-541.587 561.883,-559.65"/>
</g>
<!-- 9354 -->
<g id="node11" class="node"><title>9354</title>
<g id="a_node11"><a xlink:title="6th_week">
<ellipse fill="#c81d25" stroke="black" cx="1354.02" cy="-774.994" rx="28.6953" ry="18"/>
<text text-anchor="middle" x="1354.02" y="-771.294" font-family="Times,serif" font-size="14.00">9354</text>
</a>
</g>
</g>
<!-- 9354&#45;&gt;13786 -->
<g id="edge47" class="edge"><title>9354&#45;&gt;13786</title>
<path fill="none" stroke="black" d="M1332.03,-763.456C1310.33,-752.072 1277.25,-734.718 1254.9,-722.998"/>
</g>
<!-- 13236 -->
<g id="node12" class="node"><title>13236</title>
<g id="a_node12"><a xlink:title="6th_week">
<ellipse fill="#c81d25" stroke="black" cx="507.9" cy="-720.97" rx="32.4942" ry="18"/>
<text text-anchor="middle" x="507.9" y="-717.27" font-family="Times,serif" font-size="14.00">13236</text>
</a>
</g>
</g>
<!-- 13236&#45;&gt;32915 -->
<g id="edge33" class="edge"><title>13236&#45;&gt;32915</title>
<path fill="none" stroke="black" d="M515.801,-703.315C528.168,-675.68 551.963,-622.507 564.37,-594.783"/>
</g>
<!-- 16751 -->
<g id="node14" class="node"><title>16751</title>
<g id="a_node14"><a xlink:title="6th_week">
<ellipse fill="#c81d25" stroke="black" cx="1318.23" cy="-828.2" rx="32.4942" ry="18"/>
<text text-anchor="middle" x="1318.23" y="-824.5" font-family="Times,serif" font-size="14.00">16751</text>
</a>
</g>
</g>
<!-- 13786&#45;&gt;16751 -->
<g id="edge34" class="edge"><title>13786&#45;&gt;16751</title>
<path fill="none" stroke="black" d="M1243.5,-727.327C1260.08,-749.71 1289.18,-788.995 1305.75,-811.362"/>
</g>
<!-- 35569 -->
<g id="node46" class="node"><title>35569</title>
<g id="a_node46"><a xlink:title="6th_week">
<ellipse fill="#c81d25" stroke="black" cx="1370.93" cy="-709.824" rx="32.4942" ry="18"/>
<text text-anchor="middle" x="1370.93" y="-706.124" font-family="Times,serif" font-size="14.00">35569</text>
</a>
</g>
</g>
<!-- 13786&#45;&gt;35569 -->
<g id="edge50" class="edge"><title>13786&#45;&gt;35569</title>
<path fill="none" stroke="black" d="M1263.81,-710.309C1286.26,-710.207 1315.91,-710.073 1338.33,-709.971"/>
</g>
<!-- 16994 -->
<g id="node15" class="node"><title>16994</title>
<g id="a_node15"><a xlink:title="6th_week">
<ellipse fill="#c81d25" stroke="black" cx="1217.66" cy="-875.489" rx="32.4942" ry="18"/>
<text text-anchor="middle" x="1217.66" y="-871.789" font-family="Times,serif" font-size="14.00">16994</text>
</a>
</g>
</g>
<!-- 16994&#45;&gt;26847 -->
<g id="edge12" class="edge"><title>16994&#45;&gt;26847</title>
<path fill="none" stroke="black" d="M1205.99,-858.478C1190.51,-835.908 1163.34,-796.296 1147.86,-773.742"/>
</g>
<!-- 22030 -->
<g id="node19" class="node"><title>22030</title>
<g id="a_node19"><a xlink:title="6th_week">
<ellipse fill="#c81d25" stroke="black" cx="624.016" cy="-263.753" rx="32.4942" ry="18"/>
<text text-anchor="middle" x="624.016" y="-260.053" font-family="Times,serif" font-size="14.00">22030</text>
</a>
</g>
</g>
<!-- 17170&#45;&gt;22030 -->
<g id="edge7" class="edge"><title>17170&#45;&gt;22030</title>
<path fill="none" stroke="black" d="M738.614,-325.455C713.236,-311.791 672.965,-290.109 647.542,-276.42"/>
</g>
<!-- 29836 -->
<g id="node23" class="node"><title>29836</title>
<g id="a_node23"><a xlink:title="6th_week">
<ellipse fill="#c81d25" stroke="black" cx="695.33" cy="-151.664" rx="32.4942" ry="18"/>
<text text-anchor="middle" x="695.33" y="-147.964" font-family="Times,serif" font-size="14.00">29836</text>
</a>
</g>
</g>
<!-- 17170&#45;&gt;29836 -->
<g id="edge39" class="edge"><title>17170&#45;&gt;29836</title>
<path fill="none" stroke="black" d="M755.631,-320.188C742.882,-284.56 714.438,-205.066 701.706,-169.482"/>
</g>
<!-- 31462 -->
<g id="node26" class="node"><title>31462</title>
<g id="a_node26"><a xlink:title="6th_week">
<ellipse fill="#c81d25" stroke="black" cx="695.546" cy="-211.847" rx="32.4942" ry="18"/>
<text text-anchor="middle" x="695.546" y="-208.147" font-family="Times,serif" font-size="14.00">31462</text>
</a>
</g>
</g>
<!-- 17170&#45;&gt;31462 -->
<g id="edge48" class="edge"><title>17170&#45;&gt;31462</title>
<path fill="none" stroke="black" d="M752.921,-320.776C740.262,-296.741 717.468,-253.467 704.753,-229.328"/>
</g>
<!-- 18653 -->
<g id="node18" class="node"><title>18653</title>
<g id="a_node18"><a xlink:title="6th_week">
<ellipse fill="#c81d25" stroke="black" cx="496.945" cy="-433.898" rx="32.4942" ry="18"/>
<text text-anchor="middle" x="496.945" y="-430.198" font-family="Times,serif" font-size="14.00">18653</text>
</a>
</g>
</g>
<!-- 18653&#45;&gt;32915 -->
<g id="edge25" class="edge"><title>18653&#45;&gt;32915</title>
<path fill="none" stroke="black" d="M506.189,-451.443C520.659,-478.905 548.5,-531.745 563.015,-559.295"/>
</g>
<!-- 28689 -->
<g id="node22" class="node"><title>28689</title>
<g id="a_node22"><a xlink:title="6th_week">
<ellipse fill="#c81d25" stroke="black" cx="423.477" cy="-679.333" rx="32.4942" ry="18"/>
<text text-anchor="middle" x="423.477" y="-675.633" font-family="Times,serif" font-size="14.00">28689</text>
</a>
</g>
</g>
<!-- 28689&#45;&gt;32915 -->
<g id="edge43" class="edge"><title>28689&#45;&gt;32915</title>
<path fill="none" stroke="black" d="M444.175,-665.102C472.615,-645.548 523.466,-610.584 551.813,-591.094"/>
</g>
<!-- 33721 -->
<g id="node45" class="node"><title>33721</title>
<g id="a_node45"><a xlink:title="6th_week">
<ellipse fill="#c81d25" stroke="black" cx="649.662" cy="-18.0476" rx="32.4942" ry="18"/>
<text text-anchor="middle" x="649.662" y="-14.3476" font-family="Times,serif" font-size="14.00">33721</text>
</a>
</g>
</g>
<!-- 29836&#45;&gt;33721 -->
<g id="edge38" class="edge"><title>29836&#45;&gt;33721</title>
<path fill="none" stroke="black" d="M689.266,-133.921C680.531,-108.365 664.5,-61.4609 655.752,-35.8642"/>
</g>
<!-- 32915&#45;&gt;34185 -->
<g id="edge15" class="edge"><title>32915&#45;&gt;34185</title>
<path fill="none" stroke="black" d="M539.808,-579.574C498.731,-582.846 428.478,-588.443 387.463,-591.71"/>
</g>
<!-- 37323 -->
<g id="node30" class="node"><title>37323</title>
<g id="a_node30"><a xlink:title="6th_week">
<ellipse fill="#c81d25" stroke="black" cx="430.455" cy="-486.909" rx="32.4942" ry="18"/>
<text text-anchor="middle" x="430.455" y="-483.209" font-family="Times,serif" font-size="14.00">37323</text>
</a>
</g>
</g>
<!-- 32915&#45;&gt;37323 -->
<g id="edge44" class="edge"><title>32915&#45;&gt;37323</title>
<path fill="none" stroke="black" d="M550.787,-563.303C524.12,-546.373 478.967,-517.707 452.206,-500.718"/>
</g>
<!-- 40515 -->
<g id="node33" class="node"><title>40515</title>
<g id="a_node33"><a xlink:title="6th_week">
<ellipse fill="#c81d25" stroke="black" cx="414.672" cy="-549.772" rx="32.4942" ry="18"/>
<text text-anchor="middle" x="414.672" y="-546.072" font-family="Times,serif" font-size="14.00">40515</text>
</a>
</g>
</g>
<!-- 32915&#45;&gt;40515 -->
<g id="edge26" class="edge"><title>32915&#45;&gt;40515</title>
<path fill="none" stroke="black" d="M541.186,-571.607C513.545,-566.837 473.377,-559.904 445.756,-555.137"/>
</g>
<!-- 41750 -->
<g id="node35" class="node"><title>41750</title>
<g id="a_node35"><a xlink:title="6th_week">
<ellipse fill="#c81d25" stroke="black" cx="453.799" cy="-614.403" rx="32.4942" ry="18"/>
<text text-anchor="middle" x="453.799" y="-610.703" font-family="Times,serif" font-size="14.00">41750</text>
</a>
</g>
</g>
<!-- 32915&#45;&gt;41750 -->
<g id="edge29" class="edge"><title>32915&#45;&gt;41750</title>
<path fill="none" stroke="black" d="M543.943,-585.946C525.313,-591.827 501.036,-599.491 482.37,-605.384"/>
</g>
<!-- 6151 -->
<g id="node36" class="node"><title>6151</title>
<g id="a_node36"><a xlink:title="6th_week">
<ellipse fill="#c81d25" stroke="black" cx="1124.25" cy="-956.986" rx="28.6953" ry="18"/>
<text text-anchor="middle" x="1124.25" y="-953.286" font-family="Times,serif" font-size="14.00">6151</text>
</a>
</g>
</g>
<!-- 37954&#45;&gt;6151 -->
<g id="edge21" class="edge"><title>37954&#45;&gt;6151</title>
<path fill="none" stroke="black" d="M1047.68,-848.065C1064.67,-872.228 1095.62,-916.261 1112.5,-940.276"/>
</g>
<!-- 15725 -->
<g id="node39" class="node"><title>15725</title>
<g id="a_node39"><a xlink:title="6th_week">
<ellipse fill="#c81d25" stroke="black" cx="905.911" cy="-930.45" rx="32.4942" ry="18"/>
<text text-anchor="middle" x="905.911" y="-926.75" font-family="Times,serif" font-size="14.00">15725</text>
</a>
</g>
</g>
<!-- 37954&#45;&gt;15725 -->
<g id="edge42" class="edge"><title>37954&#45;&gt;15725</title>
<path fill="none" stroke="black" d="M1016.59,-845.747C992.043,-864.533 949.734,-896.913 925.148,-915.729"/>
</g>
<!-- 23359 -->
<g id="node40" class="node"><title>23359</title>
<g id="a_node40"><a xlink:title="6th_week">
<ellipse fill="#c81d25" stroke="black" cx="965.845" cy="-990.194" rx="32.4942" ry="18"/>
<text text-anchor="middle" x="965.845" y="-986.494" font-family="Times,serif" font-size="14.00">23359</text>
</a>
</g>
</g>
<!-- 37954&#45;&gt;23359 -->
<g id="edge37" class="edge"><title>37954&#45;&gt;23359</title>
<path fill="none" stroke="black" d="M1028,-848.72C1014.56,-879.304 987.089,-941.84 973.628,-972.479"/>
</g>
<!-- 26774 -->
<g id="node42" class="node"><title>26774</title>
<g id="a_node42"><a xlink:title="6th_week">
<ellipse fill="#c81d25" stroke="black" cx="1043.14" cy="-1003.2" rx="32.4942" ry="18"/>
<text text-anchor="middle" x="1043.14" y="-999.499" font-family="Times,serif" font-size="14.00">26774</text>
</a>
</g>
</g>
<!-- 37954&#45;&gt;26774 -->
<g id="edge24" class="edge"><title>37954&#45;&gt;26774</title>
<path fill="none" stroke="black" d="M1036.53,-849.179C1037.95,-882.235 1040.95,-952.022 1042.37,-985.089"/>
</g>
<!-- 11080 -->
<g id="node49" class="node"><title>11080</title>
<g id="a_node49"><a xlink:title="6th_week">
<ellipse fill="#c81d25" stroke="black" cx="1044.3" cy="-927.065" rx="32.4942" ry="18"/>
<text text-anchor="middle" x="1044.3" y="-923.365" font-family="Times,serif" font-size="14.00">11080</text>
</a>
</g>
</g>
<!-- 37954&#45;&gt;11080 -->
<g id="edge9" class="edge"><title>37954&#45;&gt;11080</title>
<path fill="none" stroke="black" d="M1037.36,-849.138C1038.88,-866.189 1041.14,-891.636 1042.67,-908.767"/>
</g>
<!-- 15581 -->
<g id="node38" class="node"><title>15581</title>
<g id="a_node38"><a xlink:title="6th_week">
<ellipse fill="#c81d25" stroke="black" cx="1560.53" cy="-299.746" rx="32.4942" ry="18"/>
<text text-anchor="middle" x="1560.53" y="-296.046" font-family="Times,serif" font-size="14.00">15581</text>
</a>
</g>
</g>
<!-- 12978&#45;&gt;15581 -->
<g id="edge23" class="edge"><title>12978&#45;&gt;15581</title>
<path fill="none" stroke="black" d="M1430.55,-367.711C1459.42,-352.613 1507.95,-327.242 1536.83,-312.138"/>
</g>
<!-- 24948 -->
<g id="node41" class="node"><title>24948</title>
<g id="a_node41"><a xlink:title="6th_week">
<ellipse fill="#c81d25" stroke="black" cx="1442.41" cy="-266.501" rx="32.4942" ry="18"/>
<text text-anchor="middle" x="1442.41" y="-262.801" font-family="Times,serif" font-size="14.00">24948</text>
</a>
</g>
</g>
<!-- 12978&#45;&gt;24948 -->
<g id="edge45" class="edge"><title>12978&#45;&gt;24948</title>
<path fill="none" stroke="black" d="M1412.43,-362.341C1419.06,-341.126 1430.11,-305.824 1436.78,-284.499"/>
</g>
<!-- 32812 -->
<g id="node43" class="node"><title>32812</title>
<g id="a_node43"><a xlink:title="6th_week">
<ellipse fill="#c81d25" stroke="black" cx="1539.91" cy="-254.455" rx="32.4942" ry="18"/>
<text text-anchor="middle" x="1539.91" y="-250.755" font-family="Times,serif" font-size="14.00">32812</text>
</a>
</g>
</g>
<!-- 12978&#45;&gt;32812 -->
<g id="edge2" class="edge"><title>12978&#45;&gt;32812</title>
<path fill="none" stroke="black" d="M1423.46,-364.431C1448.95,-340.356 1497.5,-294.503 1523.12,-270.31"/>
</g>
<!-- 33697 -->
<g id="node44" class="node"><title>33697</title>
<g id="a_node44"><a xlink:title="6th_week">
<ellipse fill="#c81d25" stroke="black" cx="1565.79" cy="-421.802" rx="32.4942" ry="18"/>
<text text-anchor="middle" x="1565.79" y="-418.102" font-family="Times,serif" font-size="14.00">33697</text>
</a>
</g>
</g>
<!-- 12978&#45;&gt;33697 -->
<g id="edge14" class="edge"><title>12978&#45;&gt;33697</title>
<path fill="none" stroke="black" d="M1436.39,-387.837C1464.85,-395.306 1507.67,-406.546 1536.16,-414.024"/>
</g>
<!-- 37691 -->
<g id="node47" class="node"><title>37691</title>
<g id="a_node47"><a xlink:title="6th_week">
<ellipse fill="#c81d25" stroke="black" cx="1363.97" cy="-232.201" rx="32.4942" ry="18"/>
<text text-anchor="middle" x="1363.97" y="-228.501" font-family="Times,serif" font-size="14.00">37691</text>
</a>
</g>
</g>
<!-- 12978&#45;&gt;37691 -->
<g id="edge4" class="edge"><title>12978&#45;&gt;37691</title>
<path fill="none" stroke="black" d="M1401.7,-362.25C1393.45,-333.825 1377.42,-278.567 1369.16,-250.103"/>
</g>
<!-- 38533 -->
<g id="node48" class="node"><title>38533</title>
<g id="a_node48"><a xlink:title="6th_week">
<ellipse fill="#c81d25" stroke="black" cx="1571.6" cy="-371.283" rx="32.4942" ry="18"/>
<text text-anchor="middle" x="1571.6" y="-367.583" font-family="Times,serif" font-size="14.00">38533</text>
</a>
</g>
</g>
<!-- 12978&#45;&gt;38533 -->
<g id="edge22" class="edge"><title>12978&#45;&gt;38533</title>
<path fill="none" stroke="black" d="M1439.42,-378.349C1468.3,-376.805 1510.26,-374.562 1539.12,-373.019"/>
</g>
<!-- 3021 -->
<g id="node50" class="node"><title>3021</title>
<g id="a_node50"><a xlink:title="6th_week">
<ellipse fill="#c81d25" stroke="black" cx="1523.59" cy="-475.162" rx="28.6953" ry="18"/>
<text text-anchor="middle" x="1523.59" y="-471.462" font-family="Times,serif" font-size="14.00">3021</text>
</a>
</g>
</g>
<!-- 12978&#45;&gt;3021 -->
<g id="edge40" class="edge"><title>12978&#45;&gt;3021</title>
<path fill="none" stroke="black" d="M1425.37,-395.153C1447.48,-413.165 1484.22,-443.09 1505.95,-460.79"/>
</g>
<!-- 9858 -->
<g id="node51" class="node"><title>9858</title>
<g id="a_node51"><a xlink:title="6th_week">
<ellipse fill="#c81d25" stroke="black" cx="1489.06" cy="-321.286" rx="28.6953" ry="18"/>
<text text-anchor="middle" x="1489.06" y="-317.586" font-family="Times,serif" font-size="14.00">9858</text>
</a>
</g>
</g>
<!-- 12978&#45;&gt;9858 -->
<g id="edge49" class="edge"><title>12978&#45;&gt;9858</title>
<path fill="none" stroke="black" d="M1426.77,-365.854C1439.88,-356.473 1456.96,-344.255 1469.91,-334.985"/>
</g>
<!-- 26793 -->
<g id="node52" class="node"><title>26793</title>
<g id="a_node52"><a xlink:title="6th_week">
<ellipse fill="#c81d25" stroke="black" cx="1462.19" cy="-211.804" rx="32.4942" ry="18"/>
<text text-anchor="middle" x="1462.19" y="-208.104" font-family="Times,serif" font-size="14.00">26793</text>
</a>
</g>
</g>
<!-- 12978&#45;&gt;26793 -->
<g id="edge41" class="edge"><title>12978&#45;&gt;26793</title>
<path fill="none" stroke="black" d="M1412.8,-362.079C1423.44,-329.689 1445.7,-261.98 1456.31,-229.684"/>
</g>
</g>
</svg>
