<?xml version="1.0" encoding="UTF-8" standalone="no"?>
<!DOCTYPE svg PUBLIC "-//W3C//DTD SVG 1.1//EN"
 "http://www.w3.org/Graphics/SVG/1.1/DTD/svg11.dtd">
<!-- Generated by graphviz version 2.38.0 (20140413.2041)
 -->
<!-- Title: %3 Pages: 1 -->
<svg width="1186pt" height="1203pt"
 viewBox="0.00 0.00 1186.00 1203.00" xmlns="http://www.w3.org/2000/svg" xmlns:xlink="http://www.w3.org/1999/xlink">
<g id="graph0" class="graph" transform="scale(1 1) rotate(0) translate(4 1199)">
<title>%3</title>
<polygon fill="white" stroke="none" points="-4,4 -4,-1199 1182,-1199 1182,4 -4,4"/>
<!-- 1320 -->
<g id="node1" class="node"><title>1320</title>
<g id="a_node1"><a xlink:title="6th_week">
<ellipse fill="#c81d25" stroke="black" cx="748.448" cy="-1050.98" rx="28.6953" ry="18"/>
<text text-anchor="middle" x="748.448" y="-1047.28" font-family="Times,serif" font-size="14.00">1320</text>
</a>
</g>
</g>
<!-- 47012 -->
<g id="node34" class="node"><title>47012</title>
<g id="a_node34"><a xlink:title="6th_week">
<ellipse fill="#c81d25" stroke="black" cx="664.256" cy="-826.899" rx="32.4942" ry="18"/>
<text text-anchor="middle" x="664.256" y="-823.199" font-family="Times,serif" font-size="14.00">47012</text>
</a>
</g>
</g>
<!-- 1320&#45;&gt;47012 -->
<g id="edge17" class="edge"><title>1320&#45;&gt;47012</title>
<path fill="none" stroke="black" d="M741.842,-1033.4C726.142,-991.611 686.734,-886.725 670.948,-844.711"/>
</g>
<!-- 1938 -->
<g id="node2" class="node"><title>1938</title>
<g id="a_node2"><a xlink:title="6th_week">
<ellipse fill="#c81d25" stroke="black" cx="588.078" cy="-752.756" rx="28.6953" ry="18"/>
<text text-anchor="middle" x="588.078" y="-749.056" font-family="Times,serif" font-size="14.00">1938</text>
</a>
</g>
</g>
<!-- 26716 -->
<g id="node18" class="node"><title>26716</title>
<g id="a_node18"><a xlink:title="6th_week">
<ellipse fill="#c81d25" stroke="black" cx="578.286" cy="-548.859" rx="32.4942" ry="18"/>
<text text-anchor="middle" x="578.286" y="-545.159" font-family="Times,serif" font-size="14.00">26716</text>
</a>
</g>
</g>
<!-- 1938&#45;&gt;26716 -->
<g id="edge36" class="edge"><title>1938&#45;&gt;26716</title>
<path fill="none" stroke="black" d="M587.209,-734.661C585.35,-695.969 581.009,-605.57 579.153,-566.913"/>
</g>
<!-- 3602 -->
<g id="node3" class="node"><title>3602</title>
<g id="a_node3"><a xlink:title="6th_week">
<ellipse fill="#c81d25" stroke="black" cx="717.944" cy="-591.681" rx="28.6953" ry="18"/>
<text text-anchor="middle" x="717.944" y="-587.981" font-family="Times,serif" font-size="14.00">3602</text>
</a>
</g>
</g>
<!-- 3602&#45;&gt;26716 -->
<g id="edge18" class="edge"><title>3602&#45;&gt;26716</title>
<path fill="none" stroke="black" d="M692.003,-583.727C667.864,-576.325 631.96,-565.317 606.976,-557.656"/>
</g>
<!-- 5213 -->
<g id="node4" class="node"><title>5213</title>
<g id="a_node4"><a xlink:title="6th_week">
<ellipse fill="#c81d25" stroke="black" cx="495.761" cy="-1152.6" rx="28.6953" ry="18"/>
<text text-anchor="middle" x="495.761" y="-1148.9" font-family="Times,serif" font-size="14.00">5213</text>
</a>
</g>
</g>
<!-- 48594 -->
<g id="node35" class="node"><title>48594</title>
<g id="a_node35"><a xlink:title="6th_week">
<ellipse fill="#c81d25" stroke="black" cx="452.724" cy="-940.708" rx="32.4942" ry="18"/>
<text text-anchor="middle" x="452.724" y="-937.008" font-family="Times,serif" font-size="14.00">48594</text>
</a>
</g>
</g>
<!-- 5213&#45;&gt;48594 -->
<g id="edge9" class="edge"><title>5213&#45;&gt;48594</title>
<path fill="none" stroke="black" d="M492.091,-1134.54C483.961,-1094.5 464.506,-998.719 456.384,-958.728"/>
</g>
<!-- 6205 -->
<g id="node5" class="node"><title>6205</title>
<g id="a_node5"><a xlink:title="6th_week">
<ellipse fill="#c81d25" stroke="black" cx="812.902" cy="-768.032" rx="28.6953" ry="18"/>
<text text-anchor="middle" x="812.902" y="-764.332" font-family="Times,serif" font-size="14.00">6205</text>
</a>
</g>
</g>
<!-- 6205&#45;&gt;26716 -->
<g id="edge13" class="edge"><title>6205&#45;&gt;26716</title>
<path fill="none" stroke="black" d="M796.776,-752.968C754.122,-713.122 638.637,-605.238 595.153,-564.616"/>
</g>
<!-- 41594 -->
<g id="node31" class="node"><title>41594</title>
<g id="a_node31"><a xlink:title="6th_week">
<ellipse fill="#c81d25" stroke="black" cx="956.964" cy="-958.786" rx="32.4942" ry="18"/>
<text text-anchor="middle" x="956.964" y="-955.086" font-family="Times,serif" font-size="14.00">41594</text>
</a>
</g>
</g>
<!-- 6205&#45;&gt;41594 -->
<g id="edge33" class="edge"><title>6205&#45;&gt;41594</title>
<path fill="none" stroke="black" d="M825.185,-784.296C852.266,-820.155 916.874,-905.702 944.302,-942.02"/>
</g>
<!-- 28521 -->
<g id="node50" class="node"><title>28521</title>
<g id="a_node50"><a xlink:title="6th_week">
<ellipse fill="#c81d25" stroke="black" cx="1017.79" cy="-890.903" rx="32.4942" ry="18"/>
<text text-anchor="middle" x="1017.79" y="-887.203" font-family="Times,serif" font-size="14.00">28521</text>
</a>
</g>
</g>
<!-- 6205&#45;&gt;28521 -->
<g id="edge3" class="edge"><title>6205&#45;&gt;28521</title>
<path fill="none" stroke="black" d="M833.675,-780.49C872.537,-803.796 955.897,-853.787 995.722,-877.67"/>
</g>
<!-- 6506 -->
<g id="node6" class="node"><title>6506</title>
<g id="a_node6"><a xlink:title="6th_week">
<ellipse fill="#c81d25" stroke="black" cx="69.3772" cy="-810.791" rx="28.6953" ry="18"/>
<text text-anchor="middle" x="69.3772" y="-807.091" font-family="Times,serif" font-size="14.00">6506</text>
</a>
</g>
</g>
<!-- 17678 -->
<g id="node11" class="node"><title>17678</title>
<g id="a_node11"><a xlink:title="6th_week">
<ellipse fill="#c81d25" stroke="black" cx="255.531" cy="-684.936" rx="32.4942" ry="18"/>
<text text-anchor="middle" x="255.531" y="-681.236" font-family="Times,serif" font-size="14.00">17678</text>
</a>
</g>
</g>
<!-- 6506&#45;&gt;17678 -->
<g id="edge42" class="edge"><title>6506&#45;&gt;17678</title>
<path fill="none" stroke="black" d="M88.9471,-797.56C124.326,-773.641 198.607,-723.422 234.811,-698.945"/>
</g>
<!-- 7387 -->
<g id="node7" class="node"><title>7387</title>
<g id="a_node7"><a xlink:title="6th_week">
<ellipse fill="#c81d25" stroke="black" cx="292.732" cy="-364.278" rx="28.6953" ry="18"/>
<text text-anchor="middle" x="292.732" y="-360.578" font-family="Times,serif" font-size="14.00">7387</text>
</a>
</g>
</g>
<!-- 7387&#45;&gt;26716 -->
<g id="edge39" class="edge"><title>7387&#45;&gt;26716</title>
<path fill="none" stroke="black" d="M312.811,-377.258C364.861,-410.902 503.785,-500.703 557.073,-535.147"/>
</g>
<!-- 61183 -->
<g id="node44" class="node"><title>61183</title>
<g id="a_node44"><a xlink:title="6th_week">
<ellipse fill="#c81d25" stroke="black" cx="82.9518" cy="-279.368" rx="32.4942" ry="18"/>
<text text-anchor="middle" x="82.9518" y="-275.668" font-family="Times,serif" font-size="14.00">61183</text>
</a>
</g>
</g>
<!-- 7387&#45;&gt;61183 -->
<g id="edge10" class="edge"><title>7387&#45;&gt;61183</title>
<path fill="none" stroke="black" d="M268.667,-354.538C229.062,-338.507 150.449,-306.688 109.361,-290.057"/>
</g>
<!-- 62684 -->
<g id="node48" class="node"><title>62684</title>
<g id="a_node48"><a xlink:title="6th_week">
<ellipse fill="#c81d25" stroke="black" cx="132.137" cy="-206.234" rx="32.4942" ry="18"/>
<text text-anchor="middle" x="132.137" y="-202.534" font-family="Times,serif" font-size="14.00">62684</text>
</a>
</g>
</g>
<!-- 7387&#45;&gt;62684 -->
<g id="edge20" class="edge"><title>7387&#45;&gt;62684</title>
<path fill="none" stroke="black" d="M277.041,-348.837C246.418,-318.7 178.992,-252.345 148.129,-221.972"/>
</g>
<!-- 11609 -->
<g id="node8" class="node"><title>11609</title>
<g id="a_node8"><a xlink:title="6th_week">
<ellipse fill="#c81d25" stroke="black" cx="400.813" cy="-414.772" rx="32.4942" ry="18"/>
<text text-anchor="middle" x="400.813" y="-411.072" font-family="Times,serif" font-size="14.00">11609</text>
</a>
</g>
</g>
<!-- 11609&#45;&gt;26716 -->
<g id="edge29" class="edge"><title>11609&#45;&gt;26716</title>
<path fill="none" stroke="black" d="M420.143,-429.377C454.282,-455.17 524.858,-508.493 558.979,-534.273"/>
</g>
<!-- 16886 -->
<g id="node9" class="node"><title>16886</title>
<g id="a_node9"><a xlink:title="6th_week">
<ellipse fill="#c81d25" stroke="black" cx="300.449" cy="-91.7349" rx="32.4942" ry="18"/>
<text text-anchor="middle" x="300.449" y="-88.0349" font-family="Times,serif" font-size="14.00">16886</text>
</a>
</g>
</g>
<!-- 36313 -->
<g id="node28" class="node"><title>36313</title>
<g id="a_node28"><a xlink:title="6th_week">
<ellipse fill="#c81d25" stroke="black" cx="414.263" cy="-289.849" rx="32.4942" ry="18"/>
<text text-anchor="middle" x="414.263" y="-286.149" font-family="Times,serif" font-size="14.00">36313</text>
</a>
</g>
</g>
<!-- 16886&#45;&gt;36313 -->
<g id="edge35" class="edge"><title>16886&#45;&gt;36313</title>
<path fill="none" stroke="black" d="M310.35,-108.97C331.875,-146.438 382.726,-234.953 404.304,-272.513"/>
</g>
<!-- 17282 -->
<g id="node10" class="node"><title>17282</title>
<g id="a_node10"><a xlink:title="6th_week">
<ellipse fill="#c81d25" stroke="black" cx="738.926" cy="-694.739" rx="32.4942" ry="18"/>
<text text-anchor="middle" x="738.926" y="-691.039" font-family="Times,serif" font-size="14.00">17282</text>
</a>
</g>
</g>
<!-- 17282&#45;&gt;26716 -->
<g id="edge50" class="edge"><title>17282&#45;&gt;26716</title>
<path fill="none" stroke="black" d="M721.735,-679.127C690.816,-651.049 626.182,-592.355 595.354,-564.359"/>
</g>
<!-- 17678&#45;&gt;26716 -->
<g id="edge2" class="edge"><title>17678&#45;&gt;26716</title>
<path fill="none" stroke="black" d="M281.398,-674.031C341.831,-648.551 491.741,-585.348 552.296,-559.817"/>
</g>
<!-- 33301 -->
<g id="node24" class="node"><title>33301</title>
<g id="a_node24"><a xlink:title="6th_week">
<ellipse fill="#c81d25" stroke="black" cx="32.8837" cy="-727.989" rx="32.4942" ry="18"/>
<text text-anchor="middle" x="32.8837" y="-724.289" font-family="Times,serif" font-size="14.00">33301</text>
</a>
</g>
</g>
<!-- 17678&#45;&gt;33301 -->
<g id="edge41" class="edge"><title>17678&#45;&gt;33301</title>
<path fill="none" stroke="black" d="M224.573,-690.923C182.036,-699.148 105.978,-713.855 63.5789,-722.054"/>
</g>
<!-- 19129 -->
<g id="node12" class="node"><title>19129</title>
<g id="a_node12"><a xlink:title="6th_week">
<ellipse fill="#c81d25" stroke="black" cx="429.57" cy="-732.031" rx="32.4942" ry="18"/>
<text text-anchor="middle" x="429.57" y="-728.331" font-family="Times,serif" font-size="14.00">19129</text>
</a>
</g>
</g>
<!-- 19129&#45;&gt;26716 -->
<g id="edge11" class="edge"><title>19129&#45;&gt;26716</title>
<path fill="none" stroke="black" d="M443.03,-715.452C471.272,-680.667 536.44,-600.4 564.749,-565.532"/>
</g>
<!-- 20302 -->
<g id="node13" class="node"><title>20302</title>
<g id="a_node13"><a xlink:title="6th_week">
<ellipse fill="#c81d25" stroke="black" cx="352.847" cy="-557.25" rx="32.4942" ry="18"/>
<text text-anchor="middle" x="352.847" y="-553.55" font-family="Times,serif" font-size="14.00">20302</text>
</a>
</g>
</g>
<!-- 20302&#45;&gt;26716 -->
<g id="edge22" class="edge"><title>20302&#45;&gt;26716</title>
<path fill="none" stroke="black" d="M385.628,-556.03C428.492,-554.434 503.129,-551.657 545.831,-550.067"/>
</g>
<!-- 21319 -->
<g id="node14" class="node"><title>21319</title>
<g id="a_node14"><a xlink:title="6th_week">
<ellipse fill="#c81d25" stroke="black" cx="659.673" cy="-18.0521" rx="32.4942" ry="18"/>
<text text-anchor="middle" x="659.673" y="-14.3521" font-family="Times,serif" font-size="14.00">21319</text>
</a>
</g>
</g>
<!-- 43902 -->
<g id="node32" class="node"><title>43902</title>
<g id="a_node32"><a xlink:title="6th_week">
<ellipse fill="#c81d25" stroke="black" cx="622.046" cy="-244.536" rx="32.4942" ry="18"/>
<text text-anchor="middle" x="622.046" y="-240.836" font-family="Times,serif" font-size="14.00">43902</text>
</a>
</g>
</g>
<!-- 21319&#45;&gt;43902 -->
<g id="edge14" class="edge"><title>21319&#45;&gt;43902</title>
<path fill="none" stroke="black" d="M656.657,-36.2034C649.612,-78.6105 632.135,-183.806 625.075,-226.298"/>
</g>
<!-- 23611 -->
<g id="node15" class="node"><title>23611</title>
<g id="a_node15"><a xlink:title="6th_week">
<ellipse fill="#c81d25" stroke="black" cx="786.565" cy="-544.249" rx="32.4942" ry="18"/>
<text text-anchor="middle" x="786.565" y="-540.549" font-family="Times,serif" font-size="14.00">23611</text>
</a>
</g>
</g>
<!-- 23611&#45;&gt;26716 -->
<g id="edge31" class="edge"><title>23611&#45;&gt;26716</title>
<path fill="none" stroke="black" d="M754.021,-544.969C715.007,-545.833 650.009,-547.272 610.944,-548.136"/>
</g>
<!-- 25259 -->
<g id="node16" class="node"><title>25259</title>
<g id="a_node16"><a xlink:title="6th_week">
<ellipse fill="#c81d25" stroke="black" cx="425.096" cy="-1176.93" rx="32.4942" ry="18"/>
<text text-anchor="middle" x="425.096" y="-1173.23" font-family="Times,serif" font-size="14.00">25259</text>
</a>
</g>
</g>
<!-- 25259&#45;&gt;48594 -->
<g id="edge37" class="edge"><title>25259&#45;&gt;48594</title>
<path fill="none" stroke="black" d="M427.218,-1158.79C432.361,-1114.82 445.444,-1002.95 450.595,-958.914"/>
</g>
<!-- 25706 -->
<g id="node17" class="node"><title>25706</title>
<g id="a_node17"><a xlink:title="6th_week">
<ellipse fill="#c81d25" stroke="black" cx="631.899" cy="-354.163" rx="32.4942" ry="18"/>
<text text-anchor="middle" x="631.899" y="-350.463" font-family="Times,serif" font-size="14.00">25706</text>
</a>
</g>
</g>
<!-- 25706&#45;&gt;26716 -->
<g id="edge48" class="edge"><title>25706&#45;&gt;26716</title>
<path fill="none" stroke="black" d="M626.951,-372.13C616.738,-409.221 593.425,-493.882 583.222,-530.935"/>
</g>
<!-- 31860 -->
<g id="node22" class="node"><title>31860</title>
<g id="a_node22"><a xlink:title="6th_week">
<ellipse fill="#c81d25" stroke="black" cx="394.307" cy="-613.298" rx="32.4942" ry="18"/>
<text text-anchor="middle" x="394.307" y="-609.598" font-family="Times,serif" font-size="14.00">31860</text>
</a>
</g>
</g>
<!-- 26716&#45;&gt;31860 -->
<g id="edge47" class="edge"><title>26716&#45;&gt;31860</title>
<path fill="none" stroke="black" d="M550.742,-558.507C516.059,-570.654 456.811,-591.406 422.039,-603.585"/>
</g>
<!-- 32529 -->
<g id="node23" class="node"><title>32529</title>
<g id="a_node23"><a xlink:title="6th_week">
<ellipse fill="#c81d25" stroke="black" cx="513.983" cy="-697.521" rx="32.4942" ry="18"/>
<text text-anchor="middle" x="513.983" y="-693.821" font-family="Times,serif" font-size="14.00">32529</text>
</a>
</g>
</g>
<!-- 26716&#45;&gt;32529 -->
<g id="edge12" class="edge"><title>26716&#45;&gt;32529</title>
<path fill="none" stroke="black" d="M570.657,-566.497C558.281,-595.108 533.971,-651.31 521.602,-679.907"/>
</g>
<!-- 34869 -->
<g id="node25" class="node"><title>34869</title>
<g id="a_node25"><a xlink:title="6th_week">
<ellipse fill="#c81d25" stroke="black" cx="475.153" cy="-374.55" rx="32.4942" ry="18"/>
<text text-anchor="middle" x="475.153" y="-370.85" font-family="Times,serif" font-size="14.00">34869</text>
</a>
</g>
</g>
<!-- 26716&#45;&gt;34869 -->
<g id="edge46" class="edge"><title>26716&#45;&gt;34869</title>
<path fill="none" stroke="black" d="M568.02,-531.509C548.252,-498.097 505.113,-425.187 485.377,-391.831"/>
</g>
<!-- 35832 -->
<g id="node27" class="node"><title>35832</title>
<g id="a_node27"><a xlink:title="6th_week">
<ellipse fill="#c81d25" stroke="black" cx="379.97" cy="-680.773" rx="32.4942" ry="18"/>
<text text-anchor="middle" x="379.97" y="-677.073" font-family="Times,serif" font-size="14.00">35832</text>
</a>
</g>
</g>
<!-- 26716&#45;&gt;35832 -->
<g id="edge51" class="edge"><title>26716&#45;&gt;35832</title>
<path fill="none" stroke="black" d="M557.437,-562.727C519.349,-588.062 438.939,-641.549 400.837,-666.893"/>
</g>
<!-- 26716&#45;&gt;36313 -->
<g id="edge52" class="edge"><title>26716&#45;&gt;36313</title>
<path fill="none" stroke="black" d="M567.524,-531.865C537.804,-484.934 454.832,-353.912 425.065,-306.906"/>
</g>
<!-- 37470 -->
<g id="node29" class="node"><title>37470</title>
<g id="a_node29"><a xlink:title="6th_week">
<ellipse fill="#c81d25" stroke="black" cx="555.353" cy="-353.562" rx="32.4942" ry="18"/>
<text text-anchor="middle" x="555.353" y="-349.862" font-family="Times,serif" font-size="14.00">37470</text>
</a>
</g>
</g>
<!-- 26716&#45;&gt;37470 -->
<g id="edge4" class="edge"><title>26716&#45;&gt;37470</title>
<path fill="none" stroke="black" d="M576.169,-530.836C571.801,-493.631 561.828,-408.709 557.464,-371.541"/>
</g>
<!-- 37518 -->
<g id="node30" class="node"><title>37518</title>
<g id="a_node30"><a xlink:title="6th_week">
<ellipse fill="#c81d25" stroke="black" cx="850.065" cy="-446.658" rx="32.4942" ry="18"/>
<text text-anchor="middle" x="850.065" y="-442.958" font-family="Times,serif" font-size="14.00">37518</text>
</a>
</g>
</g>
<!-- 26716&#45;&gt;37518 -->
<g id="edge30" class="edge"><title>26716&#45;&gt;37518</title>
<path fill="none" stroke="black" d="M605.339,-538.686C657.433,-519.096 771.113,-476.348 823.122,-456.79"/>
</g>
<!-- 26716&#45;&gt;43902 -->
<g id="edge26" class="edge"><title>26716&#45;&gt;43902</title>
<path fill="none" stroke="black" d="M580.892,-530.734C588.675,-476.607 611.688,-316.569 619.453,-262.566"/>
</g>
<!-- 45904 -->
<g id="node33" class="node"><title>45904</title>
<g id="a_node33"><a xlink:title="6th_week">
<ellipse fill="#c81d25" stroke="black" cx="779.379" cy="-637.196" rx="32.4942" ry="18"/>
<text text-anchor="middle" x="779.379" y="-633.496" font-family="Times,serif" font-size="14.00">45904</text>
</a>
</g>
</g>
<!-- 26716&#45;&gt;45904 -->
<g id="edge19" class="edge"><title>26716&#45;&gt;45904</title>
<path fill="none" stroke="black" d="M603.754,-560.047C642.33,-576.993 715.16,-608.986 753.801,-625.96"/>
</g>
<!-- 26716&#45;&gt;47012 -->
<g id="edge24" class="edge"><title>26716&#45;&gt;47012</title>
<path fill="none" stroke="black" d="M583.794,-566.675C599.285,-616.775 643.111,-758.516 658.682,-808.872"/>
</g>
<!-- 26716&#45;&gt;48594 -->
<g id="edge8" class="edge"><title>26716&#45;&gt;48594</title>
<path fill="none" stroke="black" d="M572.564,-566.715C551.647,-631.993 479.451,-857.299 458.479,-922.748"/>
</g>
<!-- 55291 -->
<g id="node36" class="node"><title>55291</title>
<g id="a_node36"><a xlink:title="6th_week">
<ellipse fill="#c81d25" stroke="black" cx="516.29" cy="-250.341" rx="32.4942" ry="18"/>
<text text-anchor="middle" x="516.29" y="-246.641" font-family="Times,serif" font-size="14.00">55291</text>
</a>
</g>
</g>
<!-- 26716&#45;&gt;55291 -->
<g id="edge23" class="edge"><title>26716&#45;&gt;55291</title>
<path fill="none" stroke="black" d="M574.501,-530.635C563.407,-477.215 531.055,-321.441 520.025,-268.327"/>
</g>
<!-- 56628 -->
<g id="node37" class="node"><title>56628</title>
<g id="a_node37"><a xlink:title="6th_week">
<ellipse fill="#c81d25" stroke="black" cx="273.171" cy="-516.949" rx="32.4942" ry="18"/>
<text text-anchor="middle" x="273.171" y="-513.249" font-family="Times,serif" font-size="14.00">56628</text>
</a>
</g>
</g>
<!-- 26716&#45;&gt;56628 -->
<g id="edge5" class="edge"><title>26716&#45;&gt;56628</title>
<path fill="none" stroke="black" d="M546.21,-545.505C487.61,-539.376 363.895,-526.437 305.275,-520.307"/>
</g>
<!-- 57047 -->
<g id="node38" class="node"><title>57047</title>
<g id="a_node38"><a xlink:title="6th_week">
<ellipse fill="#c81d25" stroke="black" cx="901.889" cy="-586.183" rx="32.4942" ry="18"/>
<text text-anchor="middle" x="901.889" y="-582.483" font-family="Times,serif" font-size="14.00">57047</text>
</a>
</g>
</g>
<!-- 26716&#45;&gt;57047 -->
<g id="edge32" class="edge"><title>26716&#45;&gt;57047</title>
<path fill="none" stroke="black" d="M610.2,-552.54C672.068,-559.676 807.678,-575.317 869.736,-582.474"/>
</g>
<!-- 57918 -->
<g id="node40" class="node"><title>57918</title>
<g id="a_node40"><a xlink:title="6th_week">
<ellipse fill="#c81d25" stroke="black" cx="505.933" cy="-774.418" rx="32.4942" ry="18"/>
<text text-anchor="middle" x="505.933" y="-770.718" font-family="Times,serif" font-size="14.00">57918</text>
</a>
</g>
</g>
<!-- 26716&#45;&gt;57918 -->
<g id="edge21" class="edge"><title>26716&#45;&gt;57918</title>
<path fill="none" stroke="black" d="M572.487,-566.937C558.906,-609.275 525.167,-714.455 511.659,-756.568"/>
</g>
<!-- 58943 -->
<g id="node41" class="node"><title>58943</title>
<g id="a_node41"><a xlink:title="6th_week">
<ellipse fill="#c81d25" stroke="black" cx="715.256" cy="-406.252" rx="32.4942" ry="18"/>
<text text-anchor="middle" x="715.256" y="-402.552" font-family="Times,serif" font-size="14.00">58943</text>
</a>
</g>
</g>
<!-- 26716&#45;&gt;58943 -->
<g id="edge38" class="edge"><title>26716&#45;&gt;58943</title>
<path fill="none" stroke="black" d="M593.732,-532.778C620.038,-505.389 673.246,-449.991 699.657,-422.494"/>
</g>
<!-- 59028 -->
<g id="node42" class="node"><title>59028</title>
<g id="a_node42"><a xlink:title="6th_week">
<ellipse fill="#c81d25" stroke="black" cx="383.21" cy="-483.888" rx="32.4942" ry="18"/>
<text text-anchor="middle" x="383.21" y="-480.188" font-family="Times,serif" font-size="14.00">59028</text>
</a>
</g>
</g>
<!-- 26716&#45;&gt;59028 -->
<g id="edge43" class="edge"><title>26716&#45;&gt;59028</title>
<path fill="none" stroke="black" d="M550.336,-539.551C513.252,-527.2 448.166,-505.522 411.108,-493.18"/>
</g>
<!-- 61241 -->
<g id="node45" class="node"><title>61241</title>
<g id="a_node45"><a xlink:title="6th_week">
<ellipse fill="#c81d25" stroke="black" cx="753.059" cy="-468.41" rx="32.4942" ry="18"/>
<text text-anchor="middle" x="753.059" y="-464.71" font-family="Times,serif" font-size="14.00">61241</text>
</a>
</g>
</g>
<!-- 26716&#45;&gt;61241 -->
<g id="edge6" class="edge"><title>26716&#45;&gt;61241</title>
<path fill="none" stroke="black" d="M603.327,-537.333C636.551,-522.04 694.863,-495.198 728.064,-479.915"/>
</g>
<!-- 61672 -->
<g id="node46" class="node"><title>61672</title>
<g id="a_node46"><a xlink:title="6th_week">
<ellipse fill="#c81d25" stroke="black" cx="796.425" cy="-353.008" rx="32.4942" ry="18"/>
<text text-anchor="middle" x="796.425" y="-349.308" font-family="Times,serif" font-size="14.00">61672</text>
</a>
</g>
</g>
<!-- 26716&#45;&gt;61672 -->
<g id="edge34" class="edge"><title>26716&#45;&gt;61672</title>
<path fill="none" stroke="black" d="M595.403,-533.491C636.08,-496.97 738.185,-405.297 779.086,-368.576"/>
</g>
<!-- 61740 -->
<g id="node47" class="node"><title>61740</title>
<g id="a_node47"><a xlink:title="6th_week">
<ellipse fill="#c81d25" stroke="black" cx="720.543" cy="-282.354" rx="32.4942" ry="18"/>
<text text-anchor="middle" x="720.543" y="-278.654" font-family="Times,serif" font-size="14.00">61740</text>
</a>
</g>
</g>
<!-- 26716&#45;&gt;61740 -->
<g id="edge40" class="edge"><title>26716&#45;&gt;61740</title>
<path fill="none" stroke="black" d="M587.62,-531.373C613.396,-483.084 685.358,-348.27 711.175,-299.904"/>
</g>
<!-- 63438 -->
<g id="node49" class="node"><title>63438</title>
<g id="a_node49"><a xlink:title="6th_week">
<ellipse fill="#c81d25" stroke="black" cx="658.067" cy="-746.645" rx="32.4942" ry="18"/>
<text text-anchor="middle" x="658.067" y="-742.945" font-family="Times,serif" font-size="14.00">63438</text>
</a>
</g>
</g>
<!-- 26716&#45;&gt;63438 -->
<g id="edge28" class="edge"><title>26716&#45;&gt;63438</title>
<path fill="none" stroke="black" d="M585.507,-566.76C600.696,-604.417 635.796,-691.431 650.92,-728.927"/>
</g>
<!-- 27484 -->
<g id="node19" class="node"><title>27484</title>
<g id="a_node19"><a xlink:title="6th_week">
<ellipse fill="#c81d25" stroke="black" cx="46.3339" cy="-494.527" rx="32.4942" ry="18"/>
<text text-anchor="middle" x="46.3339" y="-490.827" font-family="Times,serif" font-size="14.00">27484</text>
</a>
</g>
</g>
<!-- 27484&#45;&gt;56628 -->
<g id="edge25" class="edge"><title>27484&#45;&gt;56628</title>
<path fill="none" stroke="black" d="M78.3529,-497.692C121.463,-501.953 197.734,-509.492 240.948,-513.764"/>
</g>
<!-- 27699 -->
<g id="node20" class="node"><title>27699</title>
<g id="a_node20"><a xlink:title="6th_week">
<ellipse fill="#c81d25" stroke="black" cx="1134.94" cy="-656.969" rx="32.4942" ry="18"/>
<text text-anchor="middle" x="1134.94" y="-653.269" font-family="Times,serif" font-size="14.00">27699</text>
</a>
</g>
</g>
<!-- 27699&#45;&gt;57047 -->
<g id="edge16" class="edge"><title>27699&#45;&gt;57047</title>
<path fill="none" stroke="black" d="M1106.37,-648.289C1061.64,-634.703 975.573,-608.563 930.7,-594.934"/>
</g>
<!-- 28334 -->
<g id="node21" class="node"><title>28334</title>
<g id="a_node21"><a xlink:title="6th_week">
<ellipse fill="#c81d25" stroke="black" cx="842.563" cy="-63.2248" rx="32.4942" ry="18"/>
<text text-anchor="middle" x="842.563" y="-59.5248" font-family="Times,serif" font-size="14.00">28334</text>
</a>
</g>
</g>
<!-- 28334&#45;&gt;61740 -->
<g id="edge15" class="edge"><title>28334&#45;&gt;61740</title>
<path fill="none" stroke="black" d="M832.784,-80.7866C809.88,-121.918 752.981,-224.1 730.199,-265.012"/>
</g>
<!-- 35515 -->
<g id="node26" class="node"><title>35515</title>
<g id="a_node26"><a xlink:title="6th_week">
<ellipse fill="#c81d25" stroke="black" cx="1145.28" cy="-565.296" rx="32.4942" ry="18"/>
<text text-anchor="middle" x="1145.28" y="-561.596" font-family="Times,serif" font-size="14.00">35515</text>
</a>
</g>
</g>
<!-- 35515&#45;&gt;57047 -->
<g id="edge27" class="edge"><title>35515&#45;&gt;57047</title>
<path fill="none" stroke="black" d="M1112.96,-568.07C1066.4,-572.065 980.968,-579.397 934.342,-583.398"/>
</g>
<!-- 45097 -->
<g id="node51" class="node"><title>45097</title>
<g id="a_node51"><a xlink:title="6th_week">
<ellipse fill="#c81d25" stroke="black" cx="1083.02" cy="-355.252" rx="32.4942" ry="18"/>
<text text-anchor="middle" x="1083.02" y="-351.552" font-family="Times,serif" font-size="14.00">45097</text>
</a>
</g>
</g>
<!-- 37518&#45;&gt;45097 -->
<g id="edge49" class="edge"><title>37518&#45;&gt;45097</title>
<path fill="none" stroke="black" d="M876.788,-436.173C921.604,-418.588 1011.4,-383.353 1056.25,-365.755"/>
</g>
<!-- 57372 -->
<g id="node39" class="node"><title>57372</title>
<g id="a_node39"><a xlink:title="6th_week">
<ellipse fill="#c81d25" stroke="black" cx="347.854" cy="-1141.91" rx="32.4942" ry="18"/>
<text text-anchor="middle" x="347.854" y="-1138.21" font-family="Times,serif" font-size="14.00">57372</text>
</a>
</g>
</g>
<!-- 48594&#45;&gt;57372 -->
<g id="edge44" class="edge"><title>48594&#45;&gt;57372</title>
<path fill="none" stroke="black" d="M443.601,-958.212C423.718,-996.36 376.677,-1086.61 356.882,-1124.59"/>
</g>
<!-- 6232 -->
<g id="node53" class="node"><title>6232</title>
<g id="a_node53"><a xlink:title="6th_week">
<ellipse fill="#c81d25" stroke="black" cx="280.579" cy="-1090.79" rx="28.6953" ry="18"/>
<text text-anchor="middle" x="280.579" y="-1087.09" font-family="Times,serif" font-size="14.00">6232</text>
</a>
</g>
</g>
<!-- 48594&#45;&gt;6232 -->
<g id="edge7" class="edge"><title>48594&#45;&gt;6232</title>
<path fill="none" stroke="black" d="M435.27,-955.925C402.105,-984.841 330.37,-1047.38 297.568,-1075.98"/>
</g>
<!-- 59346 -->
<g id="node43" class="node"><title>59346</title>
<g id="a_node43"><a xlink:title="6th_week">
<ellipse fill="#c81d25" stroke="black" cx="474.638" cy="-24.744" rx="32.4942" ry="18"/>
<text text-anchor="middle" x="474.638" y="-21.044" font-family="Times,serif" font-size="14.00">59346</text>
</a>
</g>
</g>
<!-- 55291&#45;&gt;59346 -->
<g id="edge1" class="edge"><title>55291&#45;&gt;59346</title>
<path fill="none" stroke="black" d="M512.951,-232.261C505.152,-190.02 485.807,-85.2364 477.992,-42.9104"/>
</g>
<!-- 5526 -->
<g id="node52" class="node"><title>5526</title>
<g id="a_node52"><a xlink:title="6th_week">
<ellipse fill="#c81d25" stroke="black" cx="982.213" cy="-190.657" rx="28.6953" ry="18"/>
<text text-anchor="middle" x="982.213" y="-186.957" font-family="Times,serif" font-size="14.00">5526</text>
</a>
</g>
</g>
<!-- 61672&#45;&gt;5526 -->
<g id="edge45" class="edge"><title>61672&#45;&gt;5526</title>
<path fill="none" stroke="black" d="M813.903,-337.735C849.584,-306.555 930.386,-235.945 965.452,-205.303"/>
</g>
</g>
</svg>
