<?xml version="1.0" encoding="UTF-8" standalone="no"?>
<!DOCTYPE svg PUBLIC "-//W3C//DTD SVG 1.1//EN"
 "http://www.w3.org/Graphics/SVG/1.1/DTD/svg11.dtd">
<!-- Generated by graphviz version 2.38.0 (20140413.2041)
 -->
<!-- Title: %3 Pages: 1 -->
<svg width="2529pt" height="1501pt"
 viewBox="0.00 0.00 2529.00 1501.00" xmlns="http://www.w3.org/2000/svg" xmlns:xlink="http://www.w3.org/1999/xlink">
<g id="graph0" class="graph" transform="scale(1 1) rotate(0) translate(4 1497)">
<title>%3</title>
<polygon fill="white" stroke="none" points="-4,4 -4,-1497 2525,-1497 2525,4 -4,4"/>
<!-- 183 -->
<g id="node1" class="node"><title>183</title>
<g id="a_node1"><a xlink:title="6th_week">
<ellipse fill="#c81d25" stroke="black" cx="462.453" cy="-1364.81" rx="27" ry="18"/>
<text text-anchor="middle" x="462.453" y="-1361.11" font-family="Times,serif" font-size="14.00">183</text>
</a>
</g>
</g>
<!-- 13505 -->
<g id="node13" class="node"><title>13505</title>
<g id="a_node13"><a xlink:title="3rd_week,6th_week">
<ellipse fill="#ee9898" stroke="black" cx="491.544" cy="-1169.14" rx="32.4945" ry="18"/>
<ellipse fill="none" stroke="black" cx="491.544" cy="-1169.14" rx="36.4942" ry="22"/>
<text text-anchor="middle" x="491.544" y="-1165.44" font-family="Times,serif" font-size="14.00">13505</text>
</a>
</g>
</g>
<!-- 183&#45;&gt;13505 -->
<g id="edge53" class="edge"><title>183&#45;&gt;13505</title>
<path fill="none" stroke="black" d="M465.138,-1346.75C470.483,-1310.8 482.439,-1230.38 488.249,-1191.3"/>
</g>
<!-- 3029 -->
<g id="node2" class="node"><title>3029</title>
<g id="a_node2"><a xlink:title="6th_week">
<ellipse fill="#c81d25" stroke="black" cx="1214.55" cy="-917.679" rx="28.6953" ry="18"/>
<text text-anchor="middle" x="1214.55" y="-913.979" font-family="Times,serif" font-size="14.00">3029</text>
</a>
</g>
</g>
<!-- 13064 -->
<g id="node12" class="node"><title>13064</title>
<g id="a_node12"><a xlink:title="3rd_week,6th_week">
<ellipse fill="#ee9898" stroke="black" cx="868.399" cy="-1056.65" rx="32.4945" ry="18"/>
<ellipse fill="none" stroke="black" cx="868.399" cy="-1056.65" rx="36.4942" ry="22"/>
<text text-anchor="middle" x="868.399" y="-1052.95" font-family="Times,serif" font-size="14.00">13064</text>
</a>
</g>
</g>
<!-- 3029&#45;&gt;13064 -->
<g id="edge20" class="edge"><title>3029&#45;&gt;13064</title>
<path fill="none" stroke="black" d="M1190.21,-927.451C1128.65,-952.164 966.86,-1017.12 899.022,-1044.35"/>
</g>
<!-- 14255 -->
<g id="node14" class="node"><title>14255</title>
<g id="a_node14"><a xlink:title="6th_week">
<ellipse fill="#c81d25" stroke="black" cx="1224.31" cy="-1105.85" rx="32.4942" ry="18"/>
<text text-anchor="middle" x="1224.31" y="-1102.15" font-family="Times,serif" font-size="14.00">14255</text>
</a>
</g>
</g>
<!-- 3029&#45;&gt;14255 -->
<g id="edge45" class="edge"><title>3029&#45;&gt;14255</title>
<path fill="none" stroke="black" d="M1215.48,-935.721C1217.34,-971.596 1221.49,-1051.53 1223.36,-1087.58"/>
</g>
<!-- 31524 -->
<g id="node24" class="node"><title>31524</title>
<g id="a_node24"><a xlink:title="3rd_week">
<ellipse fill="#ee9898" stroke="black" cx="1574.34" cy="-729.001" rx="32.4942" ry="18"/>
<text text-anchor="middle" x="1574.34" y="-725.301" font-family="Times,serif" font-size="14.00">31524</text>
</a>
</g>
</g>
<!-- 3029&#45;&gt;31524 -->
<g id="edge47" class="edge"><title>3029&#45;&gt;31524</title>
<path fill="none" stroke="black" d="M1236.78,-906.019C1300.67,-872.515 1484.4,-776.164 1550.38,-741.562"/>
</g>
<!-- 5478 -->
<g id="node3" class="node"><title>5478</title>
<g id="a_node3"><a xlink:title="3rd_week">
<ellipse fill="#ee9898" stroke="black" cx="432.862" cy="-983.405" rx="28.6953" ry="18"/>
<text text-anchor="middle" x="432.862" y="-979.705" font-family="Times,serif" font-size="14.00">5478</text>
</a>
</g>
</g>
<!-- 5478&#45;&gt;13505 -->
<g id="edge12" class="edge"><title>5478&#45;&gt;13505</title>
<path fill="none" stroke="black" d="M438.489,-1001.21C449.304,-1035.45 472.957,-1110.31 484.679,-1147.42"/>
</g>
<!-- 5715 -->
<g id="node4" class="node"><title>5715</title>
<g id="a_node4"><a xlink:title="3rd_week">
<ellipse fill="#ee9898" stroke="black" cx="537.693" cy="-1365.45" rx="28.6953" ry="18"/>
<text text-anchor="middle" x="537.693" y="-1361.75" font-family="Times,serif" font-size="14.00">5715</text>
</a>
</g>
</g>
<!-- 5715&#45;&gt;13505 -->
<g id="edge32" class="edge"><title>5715&#45;&gt;13505</title>
<path fill="none" stroke="black" d="M533.434,-1347.34C524.932,-1311.17 505.887,-1230.16 496.698,-1191.07"/>
</g>
<!-- 6003 -->
<g id="node5" class="node"><title>6003</title>
<g id="a_node5"><a xlink:title="3rd_week,6th_week">
<ellipse fill="#ee9898" stroke="black" cx="1957.81" cy="-553.007" rx="28.6832" ry="18"/>
<ellipse fill="none" stroke="black" cx="1957.81" cy="-553.007" rx="32.6952" ry="22"/>
<text text-anchor="middle" x="1957.81" y="-549.307" font-family="Times,serif" font-size="14.00">6003</text>
</a>
</g>
</g>
<!-- 10229 -->
<g id="node7" class="node"><title>10229</title>
<g id="a_node7"><a xlink:title="6th_week">
<ellipse fill="#c81d25" stroke="black" cx="1760.18" cy="-405.137" rx="32.4942" ry="18"/>
<text text-anchor="middle" x="1760.18" y="-401.437" font-family="Times,serif" font-size="14.00">10229</text>
</a>
</g>
</g>
<!-- 6003&#45;&gt;10229 -->
<g id="edge37" class="edge"><title>6003&#45;&gt;10229</title>
<path fill="none" stroke="black" d="M1935.91,-536.618C1897.01,-507.517 1816.52,-447.29 1779.53,-419.617"/>
</g>
<!-- 19785 -->
<g id="node17" class="node"><title>19785</title>
<g id="a_node17"><a xlink:title="3rd_week">
<ellipse fill="#ee9898" stroke="black" cx="2236.28" cy="-504.521" rx="32.4942" ry="18"/>
<text text-anchor="middle" x="2236.28" y="-500.821" font-family="Times,serif" font-size="14.00">19785</text>
</a>
</g>
</g>
<!-- 6003&#45;&gt;19785 -->
<g id="edge17" class="edge"><title>6003&#45;&gt;19785</title>
<path fill="none" stroke="black" d="M1989.48,-547.493C2043.23,-538.135 2151.63,-519.26 2205.06,-509.957"/>
</g>
<!-- 6003&#45;&gt;31524 -->
<g id="edge13" class="edge"><title>6003&#45;&gt;31524</title>
<path fill="none" stroke="black" d="M1930.85,-565.383C1859.92,-597.932 1668.9,-685.602 1599.76,-717.334"/>
</g>
<!-- 2102 -->
<g id="node25" class="node"><title>2102</title>
<g id="a_node25"><a xlink:title="3rd_week">
<ellipse fill="#ee9898" stroke="black" cx="1964.46" cy="-260.381" rx="28.6953" ry="18"/>
<text text-anchor="middle" x="1964.46" y="-256.681" font-family="Times,serif" font-size="14.00">2102</text>
</a>
</g>
</g>
<!-- 6003&#45;&gt;2102 -->
<g id="edge26" class="edge"><title>6003&#45;&gt;2102</title>
<path fill="none" stroke="black" d="M1958.32,-530.531C1959.59,-474.589 1962.88,-329.929 1964.05,-278.698"/>
</g>
<!-- 4015 -->
<g id="node26" class="node"><title>4015</title>
<g id="a_node26"><a xlink:title="3rd_week">
<ellipse fill="#ee9898" stroke="black" cx="1953.64" cy="-365.921" rx="28.6953" ry="18"/>
<text text-anchor="middle" x="1953.64" y="-362.221" font-family="Times,serif" font-size="14.00">4015</text>
</a>
</g>
</g>
<!-- 6003&#45;&gt;4015 -->
<g id="edge7" class="edge"><title>6003&#45;&gt;4015</title>
<path fill="none" stroke="black" d="M1957.32,-530.812C1956.48,-493.45 1954.81,-418.703 1954.04,-384.176"/>
</g>
<!-- 5170 -->
<g id="node27" class="node"><title>5170</title>
<g id="a_node27"><a xlink:title="3rd_week">
<ellipse fill="#ee9898" stroke="black" cx="1767.48" cy="-600.247" rx="28.6953" ry="18"/>
<text text-anchor="middle" x="1767.48" y="-596.547" font-family="Times,serif" font-size="14.00">5170</text>
</a>
</g>
</g>
<!-- 6003&#45;&gt;5170 -->
<g id="edge38" class="edge"><title>6003&#45;&gt;5170</title>
<path fill="none" stroke="black" d="M1926.81,-560.703C1889.94,-569.853 1829.02,-584.973 1794.16,-593.624"/>
</g>
<!-- 7116 -->
<g id="node28" class="node"><title>7116</title>
<g id="a_node28"><a xlink:title="3rd_week">
<ellipse fill="#ee9898" stroke="black" cx="1987.33" cy="-780.361" rx="28.6953" ry="18"/>
<text text-anchor="middle" x="1987.33" y="-776.661" font-family="Times,serif" font-size="14.00">7116</text>
</a>
</g>
</g>
<!-- 6003&#45;&gt;7116 -->
<g id="edge39" class="edge"><title>6003&#45;&gt;7116</title>
<path fill="none" stroke="black" d="M1960.69,-575.221C1966.53,-620.138 1979.62,-720.984 1984.97,-762.243"/>
</g>
<!-- 9350 -->
<g id="node29" class="node"><title>9350</title>
<g id="a_node29"><a xlink:title="3rd_week">
<ellipse fill="#ee9898" stroke="black" cx="2054.33" cy="-757.748" rx="28.6953" ry="18"/>
<text text-anchor="middle" x="2054.33" y="-754.048" font-family="Times,serif" font-size="14.00">9350</text>
</a>
</g>
</g>
<!-- 6003&#45;&gt;9350 -->
<g id="edge24" class="edge"><title>6003&#45;&gt;9350</title>
<path fill="none" stroke="black" d="M1967.78,-574.147C1986.9,-614.708 2028.4,-702.755 2046.08,-740.26"/>
</g>
<!-- 12470 -->
<g id="node30" class="node"><title>12470</title>
<g id="a_node30"><a xlink:title="3rd_week">
<ellipse fill="#ee9898" stroke="black" cx="2046.69" cy="-391.26" rx="32.4942" ry="18"/>
<text text-anchor="middle" x="2046.69" y="-387.56" font-family="Times,serif" font-size="14.00">12470</text>
</a>
</g>
</g>
<!-- 6003&#45;&gt;12470 -->
<g id="edge1" class="edge"><title>6003&#45;&gt;12470</title>
<path fill="none" stroke="black" d="M1969.25,-532.193C1986.97,-499.941 2020.73,-438.494 2037.19,-408.54"/>
</g>
<!-- 14577 -->
<g id="node32" class="node"><title>14577</title>
<g id="a_node32"><a xlink:title="6th_week">
<ellipse fill="#c81d25" stroke="black" cx="1744.88" cy="-471.534" rx="32.4942" ry="18"/>
<text text-anchor="middle" x="1744.88" y="-467.834" font-family="Times,serif" font-size="14.00">14577</text>
</a>
</g>
</g>
<!-- 6003&#45;&gt;14577 -->
<g id="edge23" class="edge"><title>6003&#45;&gt;14577</title>
<path fill="none" stroke="black" d="M1929.09,-542.02C1887.77,-526.209 1812.1,-497.253 1771.8,-481.834"/>
</g>
<!-- 16540 -->
<g id="node33" class="node"><title>16540</title>
<g id="a_node33"><a xlink:title="6th_week">
<ellipse fill="#c81d25" stroke="black" cx="1813.27" cy="-339.293" rx="32.4942" ry="18"/>
<text text-anchor="middle" x="1813.27" y="-335.593" font-family="Times,serif" font-size="14.00">16540</text>
</a>
</g>
</g>
<!-- 6003&#45;&gt;16540 -->
<g id="edge33" class="edge"><title>6003&#45;&gt;16540</title>
<path fill="none" stroke="black" d="M1944.21,-532.902C1915.89,-491.027 1851.03,-395.124 1824.7,-356.188"/>
</g>
<!-- 17084 -->
<g id="node34" class="node"><title>17084</title>
<g id="a_node34"><a xlink:title="3rd_week">
<ellipse fill="#ee9898" stroke="black" cx="1843.04" cy="-405.492" rx="32.4942" ry="18"/>
<text text-anchor="middle" x="1843.04" y="-401.792" font-family="Times,serif" font-size="14.00">17084</text>
</a>
</g>
</g>
<!-- 6003&#45;&gt;17084 -->
<g id="edge51" class="edge"><title>6003&#45;&gt;17084</title>
<path fill="none" stroke="black" d="M1942.57,-533.419C1919.89,-504.264 1877.62,-449.943 1856.21,-422.416"/>
</g>
<!-- 18077 -->
<g id="node35" class="node"><title>18077</title>
<g id="a_node35"><a xlink:title="3rd_week">
<ellipse fill="#ee9898" stroke="black" cx="2036.93" cy="-674.355" rx="32.4942" ry="18"/>
<text text-anchor="middle" x="2036.93" y="-670.655" font-family="Times,serif" font-size="14.00">18077</text>
</a>
</g>
</g>
<!-- 6003&#45;&gt;18077 -->
<g id="edge18" class="edge"><title>6003&#45;&gt;18077</title>
<path fill="none" stroke="black" d="M1971.05,-573.318C1986.36,-596.798 2011.3,-635.037 2025.7,-657.124"/>
</g>
<!-- 19191 -->
<g id="node36" class="node"><title>19191</title>
<g id="a_node36"><a xlink:title="3rd_week">
<ellipse fill="#ee9898" stroke="black" cx="2138.88" cy="-493.643" rx="32.4942" ry="18"/>
<text text-anchor="middle" x="2138.88" y="-489.943" font-family="Times,serif" font-size="14.00">19191</text>
</a>
</g>
</g>
<!-- 6003&#45;&gt;19191 -->
<g id="edge34" class="edge"><title>6003&#45;&gt;19191</title>
<path fill="none" stroke="black" d="M1987.31,-543.337C2021.48,-532.134 2077.37,-513.811 2110.89,-502.821"/>
</g>
<!-- 20117 -->
<g id="node37" class="node"><title>20117</title>
<g id="a_node37"><a xlink:title="3rd_week">
<ellipse fill="#ee9898" stroke="black" cx="1833.94" cy="-724.057" rx="32.4942" ry="18"/>
<text text-anchor="middle" x="1833.94" y="-720.357" font-family="Times,serif" font-size="14.00">20117</text>
</a>
</g>
</g>
<!-- 6003&#45;&gt;20117 -->
<g id="edge36" class="edge"><title>6003&#45;&gt;20117</title>
<path fill="none" stroke="black" d="M1943.36,-572.964C1918.72,-606.981 1869.04,-675.584 1846.08,-707.29"/>
</g>
<!-- 22862 -->
<g id="node38" class="node"><title>22862</title>
<g id="a_node38"><a xlink:title="6th_week">
<ellipse fill="#c81d25" stroke="black" cx="1780.42" cy="-673.498" rx="32.4942" ry="18"/>
<text text-anchor="middle" x="1780.42" y="-669.798" font-family="Times,serif" font-size="14.00">22862</text>
</a>
</g>
</g>
<!-- 6003&#45;&gt;22862 -->
<g id="edge43" class="edge"><title>6003&#45;&gt;22862</title>
<path fill="none" stroke="black" d="M1934.62,-568.759C1899.78,-592.425 1834.47,-636.788 1801.14,-659.427"/>
</g>
<!-- 23670 -->
<g id="node39" class="node"><title>23670</title>
<g id="a_node39"><a xlink:title="3rd_week">
<ellipse fill="#ee9898" stroke="black" cx="1890.63" cy="-319.4" rx="32.4942" ry="18"/>
<text text-anchor="middle" x="1890.63" y="-315.7" font-family="Times,serif" font-size="14.00">23670</text>
</a>
</g>
</g>
<!-- 6003&#45;&gt;23670 -->
<g id="edge5" class="edge"><title>6003&#45;&gt;23670</title>
<path fill="none" stroke="black" d="M1951.49,-531.03C1938.26,-485.03 1907.88,-379.385 1895.76,-337.238"/>
</g>
<!-- 23807 -->
<g id="node40" class="node"><title>23807</title>
<g id="a_node40"><a xlink:title="3rd_week">
<ellipse fill="#ee9898" stroke="black" cx="2136.86" cy="-624.851" rx="32.4942" ry="18"/>
<text text-anchor="middle" x="2136.86" y="-621.151" font-family="Times,serif" font-size="14.00">23807</text>
</a>
</g>
</g>
<!-- 6003&#45;&gt;23807 -->
<g id="edge19" class="edge"><title>6003&#45;&gt;23807</title>
<path fill="none" stroke="black" d="M1986.18,-564.391C2020.3,-578.081 2077.12,-600.879 2110.38,-614.223"/>
</g>
<!-- 23889 -->
<g id="node41" class="node"><title>23889</title>
<g id="a_node41"><a xlink:title="6th_week">
<ellipse fill="#c81d25" stroke="black" cx="1729.99" cy="-538.057" rx="32.4942" ry="18"/>
<text text-anchor="middle" x="1729.99" y="-534.357" font-family="Times,serif" font-size="14.00">23889</text>
</a>
</g>
</g>
<!-- 6003&#45;&gt;23889 -->
<g id="edge49" class="edge"><title>6003&#45;&gt;23889</title>
<path fill="none" stroke="black" d="M1925.17,-550.865C1881.86,-548.023 1805.85,-543.035 1762.57,-540.195"/>
</g>
<!-- 25045 -->
<g id="node42" class="node"><title>25045</title>
<g id="a_node42"><a xlink:title="6th_week">
<ellipse fill="#c81d25" stroke="black" cx="1891.2" cy="-775.697" rx="32.4942" ry="18"/>
<text text-anchor="middle" x="1891.2" y="-771.997" font-family="Times,serif" font-size="14.00">25045</text>
</a>
</g>
</g>
<!-- 6003&#45;&gt;25045 -->
<g id="edge48" class="edge"><title>6003&#45;&gt;25045</title>
<path fill="none" stroke="black" d="M1951.3,-574.765C1938.18,-618.652 1908.74,-717.047 1896.6,-757.648"/>
</g>
<!-- 25698 -->
<g id="node43" class="node"><title>25698</title>
<g id="a_node43"><a xlink:title="6th_week">
<ellipse fill="#c81d25" stroke="black" cx="2165.14" cy="-330.161" rx="32.4942" ry="18"/>
<text text-anchor="middle" x="2165.14" y="-326.461" font-family="Times,serif" font-size="14.00">25698</text>
</a>
</g>
</g>
<!-- 6003&#45;&gt;25698 -->
<g id="edge29" class="edge"><title>6003&#45;&gt;25698</title>
<path fill="none" stroke="black" d="M1975.49,-534.008C2015.54,-490.959 2112.63,-386.607 2150.07,-346.365"/>
</g>
<!-- 28569 -->
<g id="node45" class="node"><title>28569</title>
<g id="a_node45"><a xlink:title="6th_week">
<ellipse fill="#c81d25" stroke="black" cx="1940.71" cy="-724.904" rx="32.4942" ry="18"/>
<text text-anchor="middle" x="1940.71" y="-721.204" font-family="Times,serif" font-size="14.00">28569</text>
</a>
</g>
</g>
<!-- 6003&#45;&gt;28569 -->
<g id="edge21" class="edge"><title>6003&#45;&gt;28569</title>
<path fill="none" stroke="black" d="M1955.61,-575.128C1952.19,-609.494 1945.67,-675.052 1942.51,-706.792"/>
</g>
<!-- 32438 -->
<g id="node47" class="node"><title>32438</title>
<g id="a_node47"><a xlink:title="6th_week">
<ellipse fill="#c81d25" stroke="black" cx="2211.03" cy="-674.433" rx="32.4942" ry="18"/>
<text text-anchor="middle" x="2211.03" y="-670.733" font-family="Times,serif" font-size="14.00">32438</text>
</a>
</g>
</g>
<!-- 6003&#45;&gt;32438 -->
<g id="edge52" class="edge"><title>6003&#45;&gt;32438</title>
<path fill="none" stroke="black" d="M1984.43,-565.773C2033.7,-589.398 2138.43,-639.617 2186.26,-662.557"/>
</g>
<!-- 16229 -->
<g id="node51" class="node"><title>16229</title>
<g id="a_node51"><a xlink:title="6th_week">
<ellipse fill="#c81d25" stroke="black" cx="2037.96" cy="-323.324" rx="32.4942" ry="18"/>
<text text-anchor="middle" x="2037.96" y="-319.624" font-family="Times,serif" font-size="14.00">16229</text>
</a>
</g>
</g>
<!-- 6003&#45;&gt;16229 -->
<g id="edge15" class="edge"><title>6003&#45;&gt;16229</title>
<path fill="none" stroke="black" d="M1965.35,-531.399C1981.09,-486.284 2017.2,-382.815 2031.73,-341.171"/>
</g>
<!-- 20035 -->
<g id="node52" class="node"><title>20035</title>
<g id="a_node52"><a xlink:title="6th_week">
<ellipse fill="#c81d25" stroke="black" cx="2163.35" cy="-560.164" rx="32.4942" ry="18"/>
<text text-anchor="middle" x="2163.35" y="-556.464" font-family="Times,serif" font-size="14.00">20035</text>
</a>
</g>
</g>
<!-- 6003&#45;&gt;20035 -->
<g id="edge11" class="edge"><title>6003&#45;&gt;20035</title>
<path fill="none" stroke="black" d="M1990.38,-554.141C2028.75,-555.478 2092.14,-557.685 2130.59,-559.024"/>
</g>
<!-- 26571 -->
<g id="node53" class="node"><title>26571</title>
<g id="a_node53"><a xlink:title="3rd_week">
<ellipse fill="#ee9898" stroke="black" cx="2132.41" cy="-426.32" rx="32.4942" ry="18"/>
<text text-anchor="middle" x="2132.41" y="-422.62" font-family="Times,serif" font-size="14.00">26571</text>
</a>
</g>
</g>
<!-- 6003&#45;&gt;26571 -->
<g id="edge22" class="edge"><title>6003&#45;&gt;26571</title>
<path fill="none" stroke="black" d="M1980.28,-536.705C2014.63,-511.778 2079.68,-464.585 2112.46,-440.798"/>
</g>
<!-- 29458 -->
<g id="node55" class="node"><title>29458</title>
<g id="a_node55"><a xlink:title="3rd_week">
<ellipse fill="#ee9898" stroke="black" cx="2136.79" cy="-715.559" rx="32.4942" ry="18"/>
<text text-anchor="middle" x="2136.79" y="-711.859" font-family="Times,serif" font-size="14.00">29458</text>
</a>
</g>
</g>
<!-- 6003&#45;&gt;29458 -->
<g id="edge41" class="edge"><title>6003&#45;&gt;29458</title>
<path fill="none" stroke="black" d="M1977.31,-570.713C2012.55,-602.721 2086.3,-669.703 2119.7,-700.039"/>
</g>
<!-- 9874 -->
<g id="node6" class="node"><title>9874</title>
<g id="a_node6"><a xlink:title="3rd_week">
<ellipse fill="#ee9898" stroke="black" cx="527.305" cy="-993.476" rx="28.6953" ry="18"/>
<text text-anchor="middle" x="527.305" y="-989.776" font-family="Times,serif" font-size="14.00">9874</text>
</a>
</g>
</g>
<!-- 9874&#45;&gt;13505 -->
<g id="edge44" class="edge"><title>9874&#45;&gt;13505</title>
<path fill="none" stroke="black" d="M523.612,-1011.61C516.992,-1044.14 503.128,-1112.24 495.994,-1147.28"/>
</g>
<!-- 10417 -->
<g id="node8" class="node"><title>10417</title>
<g id="a_node8"><a xlink:title="6th_week">
<ellipse fill="#c81d25" stroke="black" cx="315.354" cy="-1075.54" rx="32.4942" ry="18"/>
<text text-anchor="middle" x="315.354" y="-1071.84" font-family="Times,serif" font-size="14.00">10417</text>
</a>
</g>
</g>
<!-- 10417&#45;&gt;13505 -->
<g id="edge2" class="edge"><title>10417&#45;&gt;13505</title>
<path fill="none" stroke="black" d="M339.115,-1088.16C371.615,-1105.43 429.8,-1136.34 464.114,-1154.57"/>
</g>
<!-- 10468 -->
<g id="node9" class="node"><title>10468</title>
<g id="a_node9"><a xlink:title="6th_week">
<ellipse fill="#c81d25" stroke="black" cx="32.4241" cy="-1156.43" rx="32.4942" ry="18"/>
<text text-anchor="middle" x="32.4241" y="-1152.73" font-family="Times,serif" font-size="14.00">10468</text>
</a>
</g>
</g>
<!-- 29943 -->
<g id="node23" class="node"><title>29943</title>
<g id="a_node23"><a xlink:title="6th_week">
<ellipse fill="#c81d25" stroke="black" cx="236.429" cy="-1158.82" rx="32.4942" ry="18"/>
<text text-anchor="middle" x="236.429" y="-1155.12" font-family="Times,serif" font-size="14.00">29943</text>
</a>
</g>
</g>
<!-- 10468&#45;&gt;29943 -->
<g id="edge30" class="edge"><title>10468&#45;&gt;29943</title>
<path fill="none" stroke="black" d="M65.201,-1156.82C103.27,-1157.26 165.698,-1157.99 203.733,-1158.44"/>
</g>
<!-- 11161 -->
<g id="node10" class="node"><title>11161</title>
<g id="a_node10"><a xlink:title="6th_week">
<ellipse fill="#c81d25" stroke="black" cx="813.332" cy="-1190.33" rx="32.4942" ry="18"/>
<text text-anchor="middle" x="813.332" y="-1186.63" font-family="Times,serif" font-size="14.00">11161</text>
</a>
</g>
</g>
<!-- 11161&#45;&gt;13064 -->
<g id="edge9" class="edge"><title>11161&#45;&gt;13064</title>
<path fill="none" stroke="black" d="M820.645,-1172.58C830.709,-1148.14 848.806,-1104.21 859.599,-1078.01"/>
</g>
<!-- 13051 -->
<g id="node11" class="node"><title>13051</title>
<g id="a_node11"><a xlink:title="3rd_week">
<ellipse fill="#ee9898" stroke="black" cx="394.293" cy="-1335.75" rx="32.4942" ry="18"/>
<text text-anchor="middle" x="394.293" y="-1332.05" font-family="Times,serif" font-size="14.00">13051</text>
</a>
</g>
</g>
<!-- 13051&#45;&gt;13505 -->
<g id="edge3" class="edge"><title>13051&#45;&gt;13505</title>
<path fill="none" stroke="black" d="M404.334,-1318.55C422.29,-1287.79 459.838,-1223.46 479.284,-1190.15"/>
</g>
<!-- 13064&#45;&gt;13505 -->
<g id="edge14" class="edge"><title>13064&#45;&gt;13505</title>
<path fill="none" stroke="black" d="M835.615,-1066.44C764.253,-1087.74 595.544,-1138.1 524.251,-1159.38"/>
</g>
<!-- 21950 -->
<g id="node19" class="node"><title>21950</title>
<g id="a_node19"><a xlink:title="3rd_week">
<ellipse fill="#ee9898" stroke="black" cx="928.089" cy="-1210.19" rx="32.4942" ry="18"/>
<text text-anchor="middle" x="928.089" y="-1206.49" font-family="Times,serif" font-size="14.00">21950</text>
</a>
</g>
</g>
<!-- 13064&#45;&gt;21950 -->
<g id="edge27" class="edge"><title>13064&#45;&gt;21950</title>
<path fill="none" stroke="black" d="M876.825,-1078.32C888.715,-1108.91 910.192,-1164.15 921.191,-1192.45"/>
</g>
<!-- 19730 -->
<g id="node16" class="node"><title>19730</title>
<g id="a_node16"><a xlink:title="3rd_week">
<ellipse fill="#ee9898" stroke="black" cx="318.328" cy="-1167.56" rx="32.4942" ry="18"/>
<text text-anchor="middle" x="318.328" y="-1163.86" font-family="Times,serif" font-size="14.00">19730</text>
</a>
</g>
</g>
<!-- 13505&#45;&gt;19730 -->
<g id="edge28" class="edge"><title>13505&#45;&gt;19730</title>
<path fill="none" stroke="black" d="M454.809,-1168.81C424.023,-1168.53 380.484,-1168.13 350.921,-1167.86"/>
</g>
<!-- 20212 -->
<g id="node18" class="node"><title>20212</title>
<g id="a_node18"><a xlink:title="3rd_week">
<ellipse fill="#ee9898" stroke="black" cx="609.823" cy="-1314.38" rx="32.4942" ry="18"/>
<text text-anchor="middle" x="609.823" y="-1310.68" font-family="Times,serif" font-size="14.00">20212</text>
</a>
</g>
</g>
<!-- 13505&#45;&gt;20212 -->
<g id="edge4" class="edge"><title>13505&#45;&gt;20212</title>
<path fill="none" stroke="black" d="M507.742,-1189.03C531.278,-1217.93 574.501,-1271.01 596.379,-1297.87"/>
</g>
<!-- 26933 -->
<g id="node20" class="node"><title>26933</title>
<g id="a_node20"><a xlink:title="3rd_week">
<ellipse fill="#ee9898" stroke="black" cx="303.748" cy="-1343.17" rx="32.4942" ry="18"/>
<text text-anchor="middle" x="303.748" y="-1339.47" font-family="Times,serif" font-size="14.00">26933</text>
</a>
</g>
</g>
<!-- 13505&#45;&gt;26933 -->
<g id="edge40" class="edge"><title>13505&#45;&gt;26933</title>
<path fill="none" stroke="black" d="M471.446,-1187.77C434.165,-1222.32 354.955,-1295.72 320.424,-1327.72"/>
</g>
<!-- 28595 -->
<g id="node21" class="node"><title>28595</title>
<g id="a_node21"><a xlink:title="3rd_week">
<ellipse fill="#ee9898" stroke="black" cx="326.671" cy="-1254.76" rx="32.4942" ry="18"/>
<text text-anchor="middle" x="326.671" y="-1251.06" font-family="Times,serif" font-size="14.00">28595</text>
</a>
</g>
</g>
<!-- 13505&#45;&gt;28595 -->
<g id="edge31" class="edge"><title>13505&#45;&gt;28595</title>
<path fill="none" stroke="black" d="M463.575,-1183.67C431.787,-1200.17 380.441,-1226.83 350.488,-1242.39"/>
</g>
<!-- 29851 -->
<g id="node22" class="node"><title>29851</title>
<g id="a_node22"><a xlink:title="3rd_week">
<ellipse fill="#ee9898" stroke="black" cx="357.686" cy="-1012.09" rx="32.4942" ry="18"/>
<text text-anchor="middle" x="357.686" y="-1008.39" font-family="Times,serif" font-size="14.00">29851</text>
</a>
</g>
</g>
<!-- 13505&#45;&gt;29851 -->
<g id="edge8" class="edge"><title>13505&#45;&gt;29851</title>
<path fill="none" stroke="black" d="M474.861,-1149.57C448.229,-1118.32 396.584,-1057.73 371.724,-1028.56"/>
</g>
<!-- 13505&#45;&gt;29943 -->
<g id="edge6" class="edge"><title>13505&#45;&gt;29943</title>
<path fill="none" stroke="black" d="M454.992,-1167.66C405.117,-1165.65 316.51,-1162.06 268.873,-1160.13"/>
</g>
<!-- 19347 -->
<g id="node15" class="node"><title>19347</title>
<g id="a_node15"><a xlink:title="3rd_week">
<ellipse fill="#ee9898" stroke="black" cx="1242.37" cy="-1283.09" rx="32.4942" ry="18"/>
<text text-anchor="middle" x="1242.37" y="-1279.39" font-family="Times,serif" font-size="14.00">19347</text>
</a>
</g>
</g>
<!-- 14255&#45;&gt;19347 -->
<g id="edge10" class="edge"><title>14255&#45;&gt;19347</title>
<path fill="none" stroke="black" d="M1226.17,-1124.15C1229.65,-1158.2 1237.06,-1230.91 1240.52,-1264.89"/>
</g>
<!-- 12748 -->
<g id="node31" class="node"><title>12748</title>
<g id="a_node31"><a xlink:title="3rd_week">
<ellipse fill="#ee9898" stroke="black" cx="2448.27" cy="-478.837" rx="32.4942" ry="18"/>
<text text-anchor="middle" x="2448.27" y="-475.137" font-family="Times,serif" font-size="14.00">12748</text>
</a>
</g>
</g>
<!-- 19785&#45;&gt;12748 -->
<g id="edge16" class="edge"><title>19785&#45;&gt;12748</title>
<path fill="none" stroke="black" d="M2268.48,-500.621C2308.55,-495.765 2376.57,-487.524 2416.47,-482.691"/>
</g>
<!-- 31463 -->
<g id="node46" class="node"><title>31463</title>
<g id="a_node46"><a xlink:title="6th_week">
<ellipse fill="#c81d25" stroke="black" cx="147.271" cy="-1474.93" rx="32.4942" ry="18"/>
<text text-anchor="middle" x="147.271" y="-1471.23" font-family="Times,serif" font-size="14.00">31463</text>
</a>
</g>
</g>
<!-- 26933&#45;&gt;31463 -->
<g id="edge54" class="edge"><title>26933&#45;&gt;31463</title>
<path fill="none" stroke="black" d="M285.798,-1358.29C255.775,-1383.57 195.698,-1434.16 165.493,-1459.59"/>
</g>
<!-- 9100 -->
<g id="node48" class="node"><title>9100</title>
<g id="a_node48"><a xlink:title="Day_0">
<ellipse fill="#e5dada" stroke="black" cx="1389.96" cy="-756.273" rx="28.6953" ry="18"/>
<text text-anchor="middle" x="1389.96" y="-752.573" font-family="Times,serif" font-size="14.00">9100</text>
</a>
</g>
</g>
<!-- 31524&#45;&gt;9100 -->
<g id="edge42" class="edge"><title>31524&#45;&gt;9100</title>
<path fill="none" stroke="black" d="M1542.64,-733.689C1507.53,-738.882 1451.47,-747.176 1417.93,-752.137"/>
</g>
<!-- 16048 -->
<g id="node50" class="node"><title>16048</title>
<g id="a_node50"><a xlink:title="6th_week">
<ellipse fill="#c81d25" stroke="black" cx="1977.14" cy="-51.6946" rx="32.4942" ry="18"/>
<text text-anchor="middle" x="1977.14" y="-47.9946" font-family="Times,serif" font-size="14.00">16048</text>
</a>
</g>
</g>
<!-- 2102&#45;&gt;16048 -->
<g id="edge46" class="edge"><title>2102&#45;&gt;16048</title>
<path fill="none" stroke="black" d="M1965.57,-242.226C1967.96,-202.759 1973.63,-109.52 1976.03,-69.9557"/>
</g>
<!-- 26404 -->
<g id="node44" class="node"><title>26404</title>
<g id="a_node44"><a xlink:title="3rd_week">
<ellipse fill="#ee9898" stroke="black" cx="2349.2" cy="-151.535" rx="32.4942" ry="18"/>
<text text-anchor="middle" x="2349.2" y="-147.835" font-family="Times,serif" font-size="14.00">26404</text>
</a>
</g>
</g>
<!-- 25698&#45;&gt;26404 -->
<g id="edge35" class="edge"><title>25698&#45;&gt;26404</title>
<path fill="none" stroke="black" d="M2181.48,-314.309C2216.4,-280.412 2298.01,-201.217 2332.9,-167.352"/>
</g>
<!-- 27659 -->
<g id="node54" class="node"><title>27659</title>
<g id="a_node54"><a xlink:title="6th_week">
<ellipse fill="#c81d25" stroke="black" cx="2488.68" cy="-18.2968" rx="32.4942" ry="18"/>
<text text-anchor="middle" x="2488.68" y="-14.5968" font-family="Times,serif" font-size="14.00">27659</text>
</a>
</g>
</g>
<!-- 26404&#45;&gt;27659 -->
<g id="edge50" class="edge"><title>26404&#45;&gt;27659</title>
<path fill="none" stroke="black" d="M2365.75,-135.728C2392.59,-110.085 2445.33,-59.7133 2472.16,-34.0836"/>
</g>
<!-- 11807 -->
<g id="node49" class="node"><title>11807</title>
<g id="a_node49"><a xlink:title="6th_week">
<ellipse fill="#c81d25" stroke="black" cx="2401.75" cy="-770.879" rx="32.4942" ry="18"/>
<text text-anchor="middle" x="2401.75" y="-767.179" font-family="Times,serif" font-size="14.00">11807</text>
</a>
</g>
</g>
<!-- 32438&#45;&gt;11807 -->
<g id="edge25" class="edge"><title>32438&#45;&gt;11807</title>
<path fill="none" stroke="black" d="M2235.18,-686.648C2271.77,-705.149 2340.84,-740.079 2377.49,-758.612"/>
</g>
</g>
</svg>
