<?xml version="1.0" encoding="UTF-8" standalone="no"?>
<!DOCTYPE svg PUBLIC "-//W3C//DTD SVG 1.1//EN"
 "http://www.w3.org/Graphics/SVG/1.1/DTD/svg11.dtd">
<!-- Generated by graphviz version 2.38.0 (20140413.2041)
 -->
<!-- Title: %3 Pages: 1 -->
<svg width="1977pt" height="2316pt"
 viewBox="0.00 0.00 1977.00 2316.00" xmlns="http://www.w3.org/2000/svg" xmlns:xlink="http://www.w3.org/1999/xlink">
<g id="graph0" class="graph" transform="scale(1 1) rotate(0) translate(4 2312)">
<title>%3</title>
<polygon fill="white" stroke="none" points="-4,4 -4,-2312 1973,-2312 1973,4 -4,4"/>
<!-- 203 -->
<g id="node1" class="node"><title>203</title>
<g id="a_node1"><a xlink:title="6th_week">
<ellipse fill="#c81d25" stroke="black" cx="1496.27" cy="-17.5554" rx="27" ry="18"/>
<text text-anchor="middle" x="1496.27" y="-13.8554" font-family="Times,serif" font-size="14.00">203</text>
</a>
</g>
</g>
<!-- 30949 -->
<g id="node73" class="node"><title>30949</title>
<g id="a_node73"><a xlink:title="6th_week">
<ellipse fill="#c81d25" stroke="black" cx="1441.65" cy="-251.093" rx="32.4942" ry="18"/>
<text text-anchor="middle" x="1441.65" y="-247.393" font-family="Times,serif" font-size="14.00">30949</text>
</a>
</g>
</g>
<!-- 203&#45;&gt;30949 -->
<g id="edge19" class="edge"><title>203&#45;&gt;30949</title>
<path fill="none" stroke="black" d="M1492.08,-35.4929C1481.91,-78.9639 1456.04,-189.561 1445.86,-233.095"/>
</g>
<!-- 275 -->
<g id="node2" class="node"><title>275</title>
<g id="a_node2"><a xlink:title="6th_week">
<ellipse fill="#c81d25" stroke="black" cx="1575.26" cy="-437.355" rx="27" ry="18"/>
<text text-anchor="middle" x="1575.26" y="-433.655" font-family="Times,serif" font-size="14.00">275</text>
</a>
</g>
</g>
<!-- 25962 -->
<g id="node66" class="node"><title>25962</title>
<g id="a_node66"><a xlink:title="6th_week">
<ellipse fill="#c81d25" stroke="black" cx="1395.78" cy="-508.946" rx="32.4942" ry="18"/>
<text text-anchor="middle" x="1395.78" y="-505.246" font-family="Times,serif" font-size="14.00">25962</text>
</a>
</g>
</g>
<!-- 275&#45;&gt;25962 -->
<g id="edge57" class="edge"><title>275&#45;&gt;25962</title>
<path fill="none" stroke="black" d="M1551.8,-446.714C1518.35,-460.056 1457.15,-484.467 1422.17,-498.421"/>
</g>
<!-- 385 -->
<g id="node3" class="node"><title>385</title>
<g id="a_node3"><a xlink:title="6th_week">
<ellipse fill="#c81d25" stroke="black" cx="709.435" cy="-1414.29" rx="27" ry="18"/>
<text text-anchor="middle" x="709.435" y="-1410.59" font-family="Times,serif" font-size="14.00">385</text>
</a>
</g>
</g>
<!-- 936 -->
<g id="node6" class="node"><title>936</title>
<g id="a_node6"><a xlink:title="6th_week">
<ellipse fill="#c81d25" stroke="black" cx="504.689" cy="-1543.05" rx="27" ry="18"/>
<text text-anchor="middle" x="504.689" y="-1539.35" font-family="Times,serif" font-size="14.00">936</text>
</a>
</g>
</g>
<!-- 385&#45;&gt;936 -->
<g id="edge21" class="edge"><title>385&#45;&gt;936</title>
<path fill="none" stroke="black" d="M689.43,-1426.87C650.187,-1451.55 563.539,-1506.04 524.474,-1530.61"/>
</g>
<!-- 2986 -->
<g id="node12" class="node"><title>2986</title>
<g id="a_node12"><a xlink:title="6th_week">
<ellipse fill="#c81d25" stroke="black" cx="958.692" cy="-1298.84" rx="28.6953" ry="18"/>
<text text-anchor="middle" x="958.692" y="-1295.14" font-family="Times,serif" font-size="14.00">2986</text>
</a>
</g>
</g>
<!-- 385&#45;&gt;2986 -->
<g id="edge66" class="edge"><title>385&#45;&gt;2986</title>
<path fill="none" stroke="black" d="M731.994,-1403.84C779.211,-1381.97 888.004,-1331.58 935.642,-1309.51"/>
</g>
<!-- 25712 -->
<g id="node65" class="node"><title>25712</title>
<g id="a_node65"><a xlink:title="6th_week">
<ellipse fill="#c81d25" stroke="black" cx="463.354" cy="-1484.55" rx="32.4942" ry="18"/>
<text text-anchor="middle" x="463.354" y="-1480.85" font-family="Times,serif" font-size="14.00">25712</text>
</a>
</g>
</g>
<!-- 385&#45;&gt;25712 -->
<g id="edge35" class="edge"><title>385&#45;&gt;25712</title>
<path fill="none" stroke="black" d="M684.485,-1421.42C638.664,-1434.5 541.34,-1462.28 492.537,-1476.22"/>
</g>
<!-- 482 -->
<g id="node4" class="node"><title>482</title>
<g id="a_node4"><a xlink:title="6th_week">
<ellipse fill="#c81d25" stroke="black" cx="1069.07" cy="-1767.62" rx="27" ry="18"/>
<text text-anchor="middle" x="1069.07" y="-1763.92" font-family="Times,serif" font-size="14.00">482</text>
</a>
</g>
</g>
<!-- 20919 -->
<g id="node48" class="node"><title>20919</title>
<g id="a_node48"><a xlink:title="6th_week">
<ellipse fill="#c81d25" stroke="black" cx="1034.67" cy="-1535.2" rx="32.4942" ry="18"/>
<text text-anchor="middle" x="1034.67" y="-1531.5" font-family="Times,serif" font-size="14.00">20919</text>
</a>
</g>
</g>
<!-- 482&#45;&gt;20919 -->
<g id="edge23" class="edge"><title>482&#45;&gt;20919</title>
<path fill="none" stroke="black" d="M1066.37,-1749.38C1059.94,-1705.94 1043.78,-1596.71 1037.36,-1553.35"/>
</g>
<!-- 727 -->
<g id="node5" class="node"><title>727</title>
<g id="a_node5"><a xlink:title="6th_week">
<ellipse fill="#c81d25" stroke="black" cx="1729.58" cy="-1330.11" rx="27" ry="18"/>
<text text-anchor="middle" x="1729.58" y="-1326.41" font-family="Times,serif" font-size="14.00">727</text>
</a>
</g>
</g>
<!-- 16847 -->
<g id="node39" class="node"><title>16847</title>
<g id="a_node39"><a xlink:title="6th_week">
<ellipse fill="#c81d25" stroke="black" cx="1427.33" cy="-1331.86" rx="32.4942" ry="18"/>
<text text-anchor="middle" x="1427.33" y="-1328.16" font-family="Times,serif" font-size="14.00">16847</text>
</a>
</g>
</g>
<!-- 727&#45;&gt;16847 -->
<g id="edge56" class="edge"><title>727&#45;&gt;16847</title>
<path fill="none" stroke="black" d="M1702.49,-1330.27C1646.85,-1330.59 1519.89,-1331.33 1459.89,-1331.67"/>
</g>
<!-- 21932 -->
<g id="node80" class="node"><title>21932</title>
<g id="a_node80"><a xlink:title="6th_week">
<ellipse fill="#c81d25" stroke="black" cx="1936.69" cy="-1335.38" rx="32.4942" ry="18"/>
<text text-anchor="middle" x="1936.69" y="-1331.68" font-family="Times,serif" font-size="14.00">21932</text>
</a>
</g>
</g>
<!-- 727&#45;&gt;21932 -->
<g id="edge13" class="edge"><title>727&#45;&gt;21932</title>
<path fill="none" stroke="black" d="M1756.66,-1330.8C1794.6,-1331.77 1863.48,-1333.52 1904.15,-1334.55"/>
</g>
<!-- 980 -->
<g id="node7" class="node"><title>980</title>
<g id="a_node7"><a xlink:title="6th_week">
<ellipse fill="#c81d25" stroke="black" cx="1355.34" cy="-322.479" rx="27" ry="18"/>
<text text-anchor="middle" x="1355.34" y="-318.779" font-family="Times,serif" font-size="14.00">980</text>
</a>
</g>
</g>
<!-- 980&#45;&gt;25962 -->
<g id="edge61" class="edge"><title>980&#45;&gt;25962</title>
<path fill="none" stroke="black" d="M1359.22,-340.358C1366.93,-375.909 1384.11,-455.118 1391.85,-490.847"/>
</g>
<!-- 1108 -->
<g id="node8" class="node"><title>1108</title>
<g id="a_node8"><a xlink:title="6th_week">
<ellipse fill="#c81d25" stroke="black" cx="1630.46" cy="-1204.2" rx="28.6953" ry="18"/>
<text text-anchor="middle" x="1630.46" y="-1200.5" font-family="Times,serif" font-size="14.00">1108</text>
</a>
</g>
</g>
<!-- 1108&#45;&gt;16847 -->
<g id="edge41" class="edge"><title>1108&#45;&gt;16847</title>
<path fill="none" stroke="black" d="M1609.86,-1217.14C1571.23,-1241.42 1488.26,-1293.57 1448.9,-1318.31"/>
</g>
<!-- 1749 -->
<g id="node9" class="node"><title>1749</title>
<g id="a_node9"><a xlink:title="6th_week">
<ellipse fill="#c81d25" stroke="black" cx="1127.71" cy="-1243.36" rx="28.6953" ry="18"/>
<text text-anchor="middle" x="1127.71" y="-1239.66" font-family="Times,serif" font-size="14.00">1749</text>
</a>
</g>
</g>
<!-- 1749&#45;&gt;2986 -->
<g id="edge62" class="edge"><title>1749&#45;&gt;2986</title>
<path fill="none" stroke="black" d="M1102.04,-1251.79C1070.09,-1262.27 1015.86,-1280.07 984.05,-1290.51"/>
</g>
<!-- 1886 -->
<g id="node10" class="node"><title>1886</title>
<g id="a_node10"><a xlink:title="6th_week">
<ellipse fill="#c81d25" stroke="black" cx="1335.07" cy="-2246.2" rx="28.6953" ry="18"/>
<text text-anchor="middle" x="1335.07" y="-2242.5" font-family="Times,serif" font-size="14.00">1886</text>
</a>
</g>
</g>
<!-- 19485 -->
<g id="node45" class="node"><title>19485</title>
<g id="a_node45"><a xlink:title="6th_week">
<ellipse fill="#c81d25" stroke="black" cx="1299.87" cy="-2068.51" rx="32.4942" ry="18"/>
<text text-anchor="middle" x="1299.87" y="-2064.81" font-family="Times,serif" font-size="14.00">19485</text>
</a>
</g>
</g>
<!-- 1886&#45;&gt;19485 -->
<g id="edge87" class="edge"><title>1886&#45;&gt;19485</title>
<path fill="none" stroke="black" d="M1331.5,-2228.19C1324.76,-2194.13 1310.2,-2120.67 1303.45,-2086.58"/>
</g>
<!-- 2484 -->
<g id="node11" class="node"><title>2484</title>
<g id="a_node11"><a xlink:title="6th_week">
<ellipse fill="#c81d25" stroke="black" cx="1415.47" cy="-1136.99" rx="28.6953" ry="18"/>
<text text-anchor="middle" x="1415.47" y="-1133.29" font-family="Times,serif" font-size="14.00">2484</text>
</a>
</g>
</g>
<!-- 26405 -->
<g id="node67" class="node"><title>26405</title>
<g id="a_node67"><a xlink:title="6th_week">
<ellipse fill="#c81d25" stroke="black" cx="1234.52" cy="-1212.92" rx="32.4942" ry="18"/>
<text text-anchor="middle" x="1234.52" y="-1209.22" font-family="Times,serif" font-size="14.00">26405</text>
</a>
</g>
</g>
<!-- 2484&#45;&gt;26405 -->
<g id="edge31" class="edge"><title>2484&#45;&gt;26405</title>
<path fill="none" stroke="black" d="M1391.44,-1147.07C1357.5,-1161.31 1295.77,-1187.22 1260.7,-1201.94"/>
</g>
<!-- 3033 -->
<g id="node13" class="node"><title>3033</title>
<g id="a_node13"><a xlink:title="6th_week">
<ellipse fill="#c81d25" stroke="black" cx="943.565" cy="-1535.65" rx="28.6953" ry="18"/>
<text text-anchor="middle" x="943.565" y="-1531.95" font-family="Times,serif" font-size="14.00">3033</text>
</a>
</g>
</g>
<!-- 2986&#45;&gt;3033 -->
<g id="edge20" class="edge"><title>2986&#45;&gt;3033</title>
<path fill="none" stroke="black" d="M957.53,-1317.03C954.714,-1361.11 947.55,-1473.25 944.73,-1517.4"/>
</g>
<!-- 3075 -->
<g id="node14" class="node"><title>3075</title>
<g id="a_node14"><a xlink:title="6th_week">
<ellipse fill="#c81d25" stroke="black" cx="1194.31" cy="-908.917" rx="28.6953" ry="18"/>
<text text-anchor="middle" x="1194.31" y="-905.217" font-family="Times,serif" font-size="14.00">3075</text>
</a>
</g>
</g>
<!-- 2986&#45;&gt;3075 -->
<g id="edge44" class="edge"><title>2986&#45;&gt;3075</title>
<path fill="none" stroke="black" d="M968.968,-1281.83C1007.76,-1217.63 1145.09,-990.364 1183.98,-926.012"/>
</g>
<!-- 4787 -->
<g id="node15" class="node"><title>4787</title>
<g id="a_node15"><a xlink:title="6th_week">
<ellipse fill="#c81d25" stroke="black" cx="579.947" cy="-1173.64" rx="28.6953" ry="18"/>
<text text-anchor="middle" x="579.947" y="-1169.94" font-family="Times,serif" font-size="14.00">4787</text>
</a>
</g>
</g>
<!-- 2986&#45;&gt;4787 -->
<g id="edge52" class="edge"><title>2986&#45;&gt;4787</title>
<path fill="none" stroke="black" d="M933.253,-1290.43C864.256,-1267.62 674.142,-1204.77 605.275,-1182.01"/>
</g>
<!-- 7058 -->
<g id="node20" class="node"><title>7058</title>
<g id="a_node20"><a xlink:title="6th_week">
<ellipse fill="#c81d25" stroke="black" cx="734.301" cy="-1264.53" rx="28.6953" ry="18"/>
<text text-anchor="middle" x="734.301" y="-1260.83" font-family="Times,serif" font-size="14.00">7058</text>
</a>
</g>
</g>
<!-- 2986&#45;&gt;7058 -->
<g id="edge32" class="edge"><title>2986&#45;&gt;7058</title>
<path fill="none" stroke="black" d="M930.727,-1294.56C887.61,-1287.97 805.382,-1275.4 762.266,-1268.81"/>
</g>
<!-- 8250 -->
<g id="node22" class="node"><title>8250</title>
<g id="a_node22"><a xlink:title="6th_week">
<ellipse fill="#c81d25" stroke="black" cx="1166.63" cy="-1683.02" rx="28.6953" ry="18"/>
<text text-anchor="middle" x="1166.63" y="-1679.32" font-family="Times,serif" font-size="14.00">8250</text>
</a>
</g>
</g>
<!-- 2986&#45;&gt;8250 -->
<g id="edge65" class="edge"><title>2986&#45;&gt;8250</title>
<path fill="none" stroke="black" d="M968.031,-1316.09C1002.56,-1379.89 1122.82,-1602.08 1157.32,-1665.81"/>
</g>
<!-- 16503 -->
<g id="node37" class="node"><title>16503</title>
<g id="a_node37"><a xlink:title="6th_week">
<ellipse fill="#c81d25" stroke="black" cx="950.539" cy="-995.654" rx="32.4942" ry="18"/>
<text text-anchor="middle" x="950.539" y="-991.954" font-family="Times,serif" font-size="14.00">16503</text>
</a>
</g>
</g>
<!-- 2986&#45;&gt;16503 -->
<g id="edge77" class="edge"><title>2986&#45;&gt;16503</title>
<path fill="none" stroke="black" d="M958.207,-1280.78C956.76,-1226.98 952.489,-1068.17 951.032,-1014"/>
</g>
<!-- 16801 -->
<g id="node38" class="node"><title>16801</title>
<g id="a_node38"><a xlink:title="6th_week">
<ellipse fill="#c81d25" stroke="black" cx="1184.73" cy="-1125.28" rx="32.4942" ry="18"/>
<text text-anchor="middle" x="1184.73" y="-1121.58" font-family="Times,serif" font-size="14.00">16801</text>
</a>
</g>
</g>
<!-- 2986&#45;&gt;16801 -->
<g id="edge83" class="edge"><title>2986&#45;&gt;16801</title>
<path fill="none" stroke="black" d="M977.19,-1284.63C1019.47,-1252.17 1122.83,-1172.81 1165.66,-1139.92"/>
</g>
<!-- 2986&#45;&gt;16847 -->
<g id="edge55" class="edge"><title>2986&#45;&gt;16847</title>
<path fill="none" stroke="black" d="M987.302,-1300.85C1069.77,-1306.66 1307.64,-1323.43 1394.81,-1329.57"/>
</g>
<!-- 16984 -->
<g id="node40" class="node"><title>16984</title>
<g id="a_node40"><a xlink:title="6th_week">
<ellipse fill="#c81d25" stroke="black" cx="967.59" cy="-1118.47" rx="32.4942" ry="18"/>
<text text-anchor="middle" x="967.59" y="-1114.77" font-family="Times,serif" font-size="14.00">16984</text>
</a>
</g>
</g>
<!-- 2986&#45;&gt;16984 -->
<g id="edge16" class="edge"><title>2986&#45;&gt;16984</title>
<path fill="none" stroke="black" d="M959.594,-1280.55C961.304,-1245.89 964.997,-1171.03 966.699,-1136.54"/>
</g>
<!-- 17399 -->
<g id="node42" class="node"><title>17399</title>
<g id="a_node42"><a xlink:title="6th_week">
<ellipse fill="#c81d25" stroke="black" cx="865.197" cy="-1169.77" rx="32.4942" ry="18"/>
<text text-anchor="middle" x="865.197" y="-1166.07" font-family="Times,serif" font-size="14.00">17399</text>
</a>
</g>
</g>
<!-- 2986&#45;&gt;17399 -->
<g id="edge86" class="edge"><title>2986&#45;&gt;17399</title>
<path fill="none" stroke="black" d="M946.661,-1282.23C928.807,-1257.58 895.476,-1211.57 877.479,-1186.73"/>
</g>
<!-- 18815 -->
<g id="node44" class="node"><title>18815</title>
<g id="a_node44"><a xlink:title="6th_week">
<ellipse fill="#c81d25" stroke="black" cx="1174.39" cy="-1449.74" rx="32.4942" ry="18"/>
<text text-anchor="middle" x="1174.39" y="-1446.04" font-family="Times,serif" font-size="14.00">18815</text>
</a>
</g>
</g>
<!-- 2986&#45;&gt;18815 -->
<g id="edge36" class="edge"><title>2986&#45;&gt;18815</title>
<path fill="none" stroke="black" d="M977.834,-1312.23C1018.35,-1340.58 1112.48,-1406.43 1154.04,-1435.5"/>
</g>
<!-- 2986&#45;&gt;20919 -->
<g id="edge59" class="edge"><title>2986&#45;&gt;20919</title>
<path fill="none" stroke="black" d="M964.403,-1316.6C978.484,-1360.41 1014.74,-1473.21 1028.89,-1517.23"/>
</g>
<!-- 21083 -->
<g id="node50" class="node"><title>21083</title>
<g id="a_node50"><a xlink:title="6th_week">
<ellipse fill="#c81d25" stroke="black" cx="840.966" cy="-1387.33" rx="32.4942" ry="18"/>
<text text-anchor="middle" x="840.966" y="-1383.63" font-family="Times,serif" font-size="14.00">21083</text>
</a>
</g>
</g>
<!-- 2986&#45;&gt;21083 -->
<g id="edge50" class="edge"><title>2986&#45;&gt;21083</title>
<path fill="none" stroke="black" d="M940.297,-1312.66C918.569,-1329 882.58,-1356.05 860.406,-1372.72"/>
</g>
<!-- 21188 -->
<g id="node51" class="node"><title>21188</title>
<g id="a_node51"><a xlink:title="6th_week">
<ellipse fill="#c81d25" stroke="black" cx="1068.77" cy="-1145.3" rx="32.4942" ry="18"/>
<text text-anchor="middle" x="1068.77" y="-1141.6" font-family="Times,serif" font-size="14.00">21188</text>
</a>
</g>
</g>
<!-- 2986&#45;&gt;21188 -->
<g id="edge74" class="edge"><title>2986&#45;&gt;21188</title>
<path fill="none" stroke="black" d="M970.473,-1282.41C991.549,-1253.01 1035.49,-1191.73 1056.74,-1162.08"/>
</g>
<!-- 22322 -->
<g id="node53" class="node"><title>22322</title>
<g id="a_node53"><a xlink:title="6th_week">
<ellipse fill="#c81d25" stroke="black" cx="763.554" cy="-1635.75" rx="32.4942" ry="18"/>
<text text-anchor="middle" x="763.554" y="-1632.05" font-family="Times,serif" font-size="14.00">22322</text>
</a>
</g>
</g>
<!-- 2986&#45;&gt;22322 -->
<g id="edge54" class="edge"><title>2986&#45;&gt;22322</title>
<path fill="none" stroke="black" d="M948.747,-1316.01C915.35,-1373.67 807.426,-1560 773.713,-1618.21"/>
</g>
<!-- 22748 -->
<g id="node54" class="node"><title>22748</title>
<g id="a_node54"><a xlink:title="6th_week">
<ellipse fill="#c81d25" stroke="black" cx="1043.37" cy="-1451.46" rx="32.4942" ry="18"/>
<text text-anchor="middle" x="1043.37" y="-1447.76" font-family="Times,serif" font-size="14.00">22748</text>
</a>
</g>
</g>
<!-- 2986&#45;&gt;22748 -->
<g id="edge6" class="edge"><title>2986&#45;&gt;22748</title>
<path fill="none" stroke="black" d="M968.241,-1316.05C984.505,-1345.36 1017.4,-1404.65 1033.73,-1434.08"/>
</g>
<!-- 22865 -->
<g id="node56" class="node"><title>22865</title>
<g id="a_node56"><a xlink:title="6th_week">
<ellipse fill="#c81d25" stroke="black" cx="1162.95" cy="-1328.37" rx="32.4942" ry="18"/>
<text text-anchor="middle" x="1162.95" y="-1324.67" font-family="Times,serif" font-size="14.00">22865</text>
</a>
</g>
</g>
<!-- 2986&#45;&gt;22865 -->
<g id="edge18" class="edge"><title>2986&#45;&gt;22865</title>
<path fill="none" stroke="black" d="M986.665,-1302.88C1024.47,-1308.35 1091.69,-1318.06 1131.3,-1323.79"/>
</g>
<!-- 23514 -->
<g id="node58" class="node"><title>23514</title>
<g id="a_node58"><a xlink:title="6th_week">
<ellipse fill="#c81d25" stroke="black" cx="1065.52" cy="-1014.08" rx="32.4942" ry="18"/>
<text text-anchor="middle" x="1065.52" y="-1010.38" font-family="Times,serif" font-size="14.00">23514</text>
</a>
</g>
</g>
<!-- 2986&#45;&gt;23514 -->
<g id="edge25" class="edge"><title>2986&#45;&gt;23514</title>
<path fill="none" stroke="black" d="M965.375,-1281.02C984.559,-1229.89 1039.66,-1083.02 1058.84,-1031.89"/>
</g>
<!-- 24969 -->
<g id="node60" class="node"><title>24969</title>
<g id="a_node60"><a xlink:title="6th_week">
<ellipse fill="#c81d25" stroke="black" cx="1114.91" cy="-1398.74" rx="32.4942" ry="18"/>
<text text-anchor="middle" x="1114.91" y="-1395.04" font-family="Times,serif" font-size="14.00">24969</text>
</a>
</g>
</g>
<!-- 2986&#45;&gt;24969 -->
<g id="edge63" class="edge"><title>2986&#45;&gt;24969</title>
<path fill="none" stroke="black" d="M978.795,-1311.69C1008.3,-1330.56 1063.09,-1365.6 1093.38,-1384.97"/>
</g>
<!-- 25299 -->
<g id="node62" class="node"><title>25299</title>
<g id="a_node62"><a xlink:title="6th_week">
<ellipse fill="#c81d25" stroke="black" cx="919.872" cy="-1452.24" rx="32.4942" ry="18"/>
<text text-anchor="middle" x="919.872" y="-1448.54" font-family="Times,serif" font-size="14.00">25299</text>
</a>
</g>
</g>
<!-- 2986&#45;&gt;25299 -->
<g id="edge39" class="edge"><title>2986&#45;&gt;25299</title>
<path fill="none" stroke="black" d="M954.163,-1316.73C946.723,-1346.14 931.992,-1404.34 924.493,-1433.98"/>
</g>
<!-- 25387 -->
<g id="node63" class="node"><title>25387</title>
<g id="a_node63"><a xlink:title="6th_week">
<ellipse fill="#c81d25" stroke="black" cx="765.664" cy="-1162.94" rx="32.4942" ry="18"/>
<text text-anchor="middle" x="765.664" y="-1159.24" font-family="Times,serif" font-size="14.00">25387</text>
</a>
</g>
</g>
<!-- 2986&#45;&gt;25387 -->
<g id="edge3" class="edge"><title>2986&#45;&gt;25387</title>
<path fill="none" stroke="black" d="M939.478,-1285.31C902.86,-1259.53 823.398,-1203.59 785.956,-1177.23"/>
</g>
<!-- 2986&#45;&gt;26405 -->
<g id="edge53" class="edge"><title>2986&#45;&gt;26405</title>
<path fill="none" stroke="black" d="M984.642,-1290.75C1036.41,-1274.63 1152.15,-1238.58 1205.98,-1221.82"/>
</g>
<!-- 28988 -->
<g id="node71" class="node"><title>28988</title>
<g id="a_node71"><a xlink:title="6th_week">
<ellipse fill="#c81d25" stroke="black" cx="731.579" cy="-1336.83" rx="32.4942" ry="18"/>
<text text-anchor="middle" x="731.579" y="-1333.13" font-family="Times,serif" font-size="14.00">28988</text>
</a>
</g>
</g>
<!-- 2986&#45;&gt;28988 -->
<g id="edge11" class="edge"><title>2986&#45;&gt;28988</title>
<path fill="none" stroke="black" d="M930.844,-1303.5C888.321,-1310.61 807.463,-1324.13 762.934,-1331.58"/>
</g>
<!-- 31034 -->
<g id="node74" class="node"><title>31034</title>
<g id="a_node74"><a xlink:title="6th_week">
<ellipse fill="#c81d25" stroke="black" cx="771.493" cy="-1067.77" rx="32.4942" ry="18"/>
<text text-anchor="middle" x="771.493" y="-1064.07" font-family="Times,serif" font-size="14.00">31034</text>
</a>
</g>
</g>
<!-- 2986&#45;&gt;31034 -->
<g id="edge51" class="edge"><title>2986&#45;&gt;31034</title>
<path fill="none" stroke="black" d="M945.529,-1282.59C911.241,-1240.26 819.443,-1126.95 784.893,-1084.31"/>
</g>
<!-- 32775 -->
<g id="node77" class="node"><title>32775</title>
<g id="a_node77"><a xlink:title="6th_week">
<ellipse fill="#c81d25" stroke="black" cx="779.11" cy="-1503.73" rx="32.4942" ry="18"/>
<text text-anchor="middle" x="779.11" y="-1500.03" font-family="Times,serif" font-size="14.00">32775</text>
</a>
</g>
</g>
<!-- 2986&#45;&gt;32775 -->
<g id="edge2" class="edge"><title>2986&#45;&gt;32775</title>
<path fill="none" stroke="black" d="M944.601,-1314.91C911.113,-1353.12 827.056,-1449.03 793.385,-1487.45"/>
</g>
<!-- 33134 -->
<g id="node78" class="node"><title>33134</title>
<g id="a_node78"><a xlink:title="6th_week">
<ellipse fill="#c81d25" stroke="black" cx="833.405" cy="-985.08" rx="32.4942" ry="18"/>
<text text-anchor="middle" x="833.405" y="-981.38" font-family="Times,serif" font-size="14.00">33134</text>
</a>
</g>
</g>
<!-- 2986&#45;&gt;33134 -->
<g id="edge26" class="edge"><title>2986&#45;&gt;33134</title>
<path fill="none" stroke="black" d="M951.597,-1281.07C929.597,-1225.97 862.683,-1058.4 840.578,-1003.04"/>
</g>
<!-- 5662 -->
<g id="node18" class="node"><title>5662</title>
<g id="a_node18"><a xlink:title="6th_week">
<ellipse fill="#c81d25" stroke="black" cx="919.663" cy="-1768.22" rx="28.6953" ry="18"/>
<text text-anchor="middle" x="919.663" y="-1764.52" font-family="Times,serif" font-size="14.00">5662</text>
</a>
</g>
</g>
<!-- 3033&#45;&gt;5662 -->
<g id="edge68" class="edge"><title>3033&#45;&gt;5662</title>
<path fill="none" stroke="black" d="M941.689,-1553.9C937.221,-1597.37 925.989,-1706.67 921.53,-1750.06"/>
</g>
<!-- 4865 -->
<g id="node16" class="node"><title>4865</title>
<g id="a_node16"><a xlink:title="6th_week">
<ellipse fill="#c81d25" stroke="black" cx="1332.74" cy="-720.704" rx="28.6953" ry="18"/>
<text text-anchor="middle" x="1332.74" y="-717.004" font-family="Times,serif" font-size="14.00">4865</text>
</a>
</g>
</g>
<!-- 3075&#45;&gt;4865 -->
<g id="edge60" class="edge"><title>3075&#45;&gt;4865</title>
<path fill="none" stroke="black" d="M1206.35,-892.543C1232.53,-856.948 1294.38,-772.856 1320.63,-737.173"/>
</g>
<!-- 3075&#45;&gt;25962 -->
<g id="edge81" class="edge"><title>3075&#45;&gt;25962</title>
<path fill="none" stroke="black" d="M1202.97,-891.731C1235.96,-826.239 1353.61,-592.668 1386.93,-526.519"/>
</g>
<!-- 13343 -->
<g id="node32" class="node"><title>13343</title>
<g id="a_node32"><a xlink:title="6th_week">
<ellipse fill="#c81d25" stroke="black" cx="341.929" cy="-1108.97" rx="32.4942" ry="18"/>
<text text-anchor="middle" x="341.929" y="-1105.27" font-family="Times,serif" font-size="14.00">13343</text>
</a>
</g>
</g>
<!-- 4787&#45;&gt;13343 -->
<g id="edge49" class="edge"><title>4787&#45;&gt;13343</title>
<path fill="none" stroke="black" d="M553.565,-1166.47C508.781,-1154.3 418.201,-1129.69 371.402,-1116.98"/>
</g>
<!-- 14893 -->
<g id="node36" class="node"><title>14893</title>
<g id="a_node36"><a xlink:title="6th_week">
<ellipse fill="#c81d25" stroke="black" cx="247.316" cy="-1077.74" rx="32.4942" ry="18"/>
<text text-anchor="middle" x="247.316" y="-1074.04" font-family="Times,serif" font-size="14.00">14893</text>
</a>
</g>
</g>
<!-- 4787&#45;&gt;14893 -->
<g id="edge37" class="edge"><title>4787&#45;&gt;14893</title>
<path fill="none" stroke="black" d="M553.846,-1166.11C492.737,-1148.5 340.716,-1104.67 276.589,-1086.18"/>
</g>
<!-- 17251 -->
<g id="node41" class="node"><title>17251</title>
<g id="a_node41"><a xlink:title="6th_week">
<ellipse fill="#c81d25" stroke="black" cx="328.609" cy="-1193.99" rx="32.4942" ry="18"/>
<text text-anchor="middle" x="328.609" y="-1190.29" font-family="Times,serif" font-size="14.00">17251</text>
</a>
</g>
</g>
<!-- 4787&#45;&gt;17251 -->
<g id="edge48" class="edge"><title>4787&#45;&gt;17251</title>
<path fill="none" stroke="black" d="M551.115,-1175.97C503.922,-1179.79 410.499,-1187.36 361.057,-1191.36"/>
</g>
<!-- 23465 -->
<g id="node57" class="node"><title>23465</title>
<g id="a_node57"><a xlink:title="6th_week">
<ellipse fill="#c81d25" stroke="black" cx="376.344" cy="-1029.49" rx="32.4942" ry="18"/>
<text text-anchor="middle" x="376.344" y="-1025.79" font-family="Times,serif" font-size="14.00">23465</text>
</a>
</g>
</g>
<!-- 4787&#45;&gt;23465 -->
<g id="edge33" class="edge"><title>4787&#45;&gt;23465</title>
<path fill="none" stroke="black" d="M560.792,-1160.08C522.284,-1132.81 435.818,-1071.6 396.497,-1043.76"/>
</g>
<!-- 5243 -->
<g id="node17" class="node"><title>5243</title>
<g id="a_node17"><a xlink:title="6th_week">
<ellipse fill="#c81d25" stroke="black" cx="566.454" cy="-1030.84" rx="28.6953" ry="18"/>
<text text-anchor="middle" x="566.454" y="-1027.14" font-family="Times,serif" font-size="14.00">5243</text>
</a>
</g>
</g>
<!-- 5243&#45;&gt;25387 -->
<g id="edge4" class="edge"><title>5243&#45;&gt;25387</title>
<path fill="none" stroke="black" d="M586.283,-1043.99C624.074,-1069.05 706.08,-1123.43 744.721,-1149.05"/>
</g>
<!-- 6806 -->
<g id="node19" class="node"><title>6806</title>
<g id="a_node19"><a xlink:title="6th_week">
<ellipse fill="#c81d25" stroke="black" cx="1613.2" cy="-1500.13" rx="28.6953" ry="18"/>
<text text-anchor="middle" x="1613.2" y="-1496.43" font-family="Times,serif" font-size="14.00">6806</text>
</a>
</g>
</g>
<!-- 6806&#45;&gt;16847 -->
<g id="edge12" class="edge"><title>6806&#45;&gt;16847</title>
<path fill="none" stroke="black" d="M1596.7,-1485.2C1561.61,-1453.42 1479.85,-1379.41 1444.32,-1347.24"/>
</g>
<!-- 10794 -->
<g id="node25" class="node"><title>10794</title>
<g id="a_node25"><a xlink:title="6th_week">
<ellipse fill="#c81d25" stroke="black" cx="492.553" cy="-1262.47" rx="32.4942" ry="18"/>
<text text-anchor="middle" x="492.553" y="-1258.77" font-family="Times,serif" font-size="14.00">10794</text>
</a>
</g>
</g>
<!-- 7058&#45;&gt;10794 -->
<g id="edge5" class="edge"><title>7058&#45;&gt;10794</title>
<path fill="none" stroke="black" d="M705.62,-1264.29C660.469,-1263.9 573.065,-1263.16 525.437,-1262.75"/>
</g>
<!-- 7807 -->
<g id="node21" class="node"><title>7807</title>
<g id="a_node21"><a xlink:title="6th_week">
<ellipse fill="#c81d25" stroke="black" cx="61.6124" cy="-979.654" rx="28.6953" ry="18"/>
<text text-anchor="middle" x="61.6124" y="-975.954" font-family="Times,serif" font-size="14.00">7807</text>
</a>
</g>
</g>
<!-- 7807&#45;&gt;14893 -->
<g id="edge82" class="edge"><title>7807&#45;&gt;14893</title>
<path fill="none" stroke="black" d="M83.6443,-991.291C118.808,-1009.87 187.335,-1046.06 223.558,-1065.2"/>
</g>
<!-- 11027 -->
<g id="node27" class="node"><title>11027</title>
<g id="a_node27"><a xlink:title="6th_week">
<ellipse fill="#c81d25" stroke="black" cx="1372.34" cy="-1875.55" rx="32.4942" ry="18"/>
<text text-anchor="middle" x="1372.34" y="-1871.85" font-family="Times,serif" font-size="14.00">11027</text>
</a>
</g>
</g>
<!-- 8250&#45;&gt;11027 -->
<g id="edge14" class="edge"><title>8250&#45;&gt;11027</title>
<path fill="none" stroke="black" d="M1182.77,-1698.12C1221.04,-1733.94 1316.94,-1823.7 1355.7,-1859.98"/>
</g>
<!-- 8250&#45;&gt;19485 -->
<g id="edge43" class="edge"><title>8250&#45;&gt;19485</title>
<path fill="none" stroke="black" d="M1172.79,-1700.84C1195.05,-1765.25 1271.22,-1985.61 1293.62,-2050.44"/>
</g>
<!-- 21067 -->
<g id="node49" class="node"><title>21067</title>
<g id="a_node49"><a xlink:title="6th_week">
<ellipse fill="#c81d25" stroke="black" cx="1236.75" cy="-1902.35" rx="32.4942" ry="18"/>
<text text-anchor="middle" x="1236.75" y="-1898.65" font-family="Times,serif" font-size="14.00">21067</text>
</a>
</g>
</g>
<!-- 8250&#45;&gt;21067 -->
<g id="edge24" class="edge"><title>8250&#45;&gt;21067</title>
<path fill="none" stroke="black" d="M1172.37,-1700.97C1185.55,-1742.2 1217.87,-1843.29 1231.03,-1884.46"/>
</g>
<!-- 8900 -->
<g id="node23" class="node"><title>8900</title>
<g id="a_node23"><a xlink:title="6th_week">
<ellipse fill="#c81d25" stroke="black" cx="1660.35" cy="-1264.2" rx="28.6953" ry="18"/>
<text text-anchor="middle" x="1660.35" y="-1260.5" font-family="Times,serif" font-size="14.00">8900</text>
</a>
</g>
</g>
<!-- 8900&#45;&gt;16847 -->
<g id="edge64" class="edge"><title>8900&#45;&gt;16847</title>
<path fill="none" stroke="black" d="M1634.07,-1271.83C1590.15,-1284.58 1502.15,-1310.13 1456.42,-1323.41"/>
</g>
<!-- 9433 -->
<g id="node24" class="node"><title>9433</title>
<g id="a_node24"><a xlink:title="6th_week">
<ellipse fill="#c81d25" stroke="black" cx="1581.1" cy="-1451.01" rx="28.6953" ry="18"/>
<text text-anchor="middle" x="1581.1" y="-1447.31" font-family="Times,serif" font-size="14.00">9433</text>
</a>
</g>
</g>
<!-- 9433&#45;&gt;16847 -->
<g id="edge58" class="edge"><title>9433&#45;&gt;16847</title>
<path fill="none" stroke="black" d="M1562.85,-1436.88C1533.58,-1414.19 1476.37,-1369.86 1446.51,-1346.72"/>
</g>
<!-- 10923 -->
<g id="node26" class="node"><title>10923</title>
<g id="a_node26"><a xlink:title="6th_week">
<ellipse fill="#c81d25" stroke="black" cx="519.674" cy="-1879.42" rx="32.4942" ry="18"/>
<text text-anchor="middle" x="519.674" y="-1875.72" font-family="Times,serif" font-size="14.00">10923</text>
</a>
</g>
</g>
<!-- 10923&#45;&gt;22322 -->
<g id="edge80" class="edge"><title>10923&#45;&gt;22322</title>
<path fill="none" stroke="black" d="M535.676,-1863.43C579.865,-1819.28 703.233,-1696.01 747.493,-1651.79"/>
</g>
<!-- 33070 -->
<g id="node83" class="node"><title>33070</title>
<g id="a_node83"><a xlink:title="6th_week">
<ellipse fill="#c81d25" stroke="black" cx="399.61" cy="-2056.63" rx="32.4942" ry="18"/>
<text text-anchor="middle" x="399.61" y="-2052.93" font-family="Times,serif" font-size="14.00">33070</text>
</a>
</g>
</g>
<!-- 10923&#45;&gt;33070 -->
<g id="edge27" class="edge"><title>10923&#45;&gt;33070</title>
<path fill="none" stroke="black" d="M508.162,-1896.41C485.213,-1930.28 434.008,-2005.86 411.088,-2039.69"/>
</g>
<!-- 24199 -->
<g id="node87" class="node"><title>24199</title>
<g id="a_node87"><a xlink:title="6th_week">
<ellipse fill="#c81d25" stroke="black" cx="341.579" cy="-1999.79" rx="32.4942" ry="18"/>
<text text-anchor="middle" x="341.579" y="-1996.09" font-family="Times,serif" font-size="14.00">24199</text>
</a>
</g>
</g>
<!-- 10923&#45;&gt;24199 -->
<g id="edge75" class="edge"><title>10923&#45;&gt;24199</title>
<path fill="none" stroke="black" d="M498.896,-1893.46C464.579,-1916.66 396.455,-1962.7 362.225,-1985.84"/>
</g>
<!-- 27978 -->
<g id="node86" class="node"><title>27978</title>
<g id="a_node86"><a xlink:title="6th_week">
<ellipse fill="#c81d25" stroke="black" cx="1532.36" cy="-2004.94" rx="32.4942" ry="18"/>
<text text-anchor="middle" x="1532.36" y="-2001.24" font-family="Times,serif" font-size="14.00">27978</text>
</a>
</g>
</g>
<!-- 11027&#45;&gt;27978 -->
<g id="edge30" class="edge"><title>11027&#45;&gt;27978</title>
<path fill="none" stroke="black" d="M1391.01,-1890.65C1421.84,-1915.58 1483.05,-1965.07 1513.81,-1989.94"/>
</g>
<!-- 11297 -->
<g id="node28" class="node"><title>11297</title>
<g id="a_node28"><a xlink:title="6th_week">
<ellipse fill="#c81d25" stroke="black" cx="1419.18" cy="-2266.64" rx="32.4942" ry="18"/>
<text text-anchor="middle" x="1419.18" y="-2262.94" font-family="Times,serif" font-size="14.00">11297</text>
</a>
</g>
</g>
<!-- 11297&#45;&gt;19485 -->
<g id="edge70" class="edge"><title>11297&#45;&gt;19485</title>
<path fill="none" stroke="black" d="M1408.8,-2249.4C1386.23,-2211.93 1332.93,-2123.41 1310.31,-2085.85"/>
</g>
<!-- 11660 -->
<g id="node29" class="node"><title>11660</title>
<g id="a_node29"><a xlink:title="6th_week">
<ellipse fill="#c81d25" stroke="black" cx="623.914" cy="-856.814" rx="32.4942" ry="18"/>
<text text-anchor="middle" x="623.914" y="-853.114" font-family="Times,serif" font-size="14.00">11660</text>
</a>
</g>
</g>
<!-- 11660&#45;&gt;31034 -->
<g id="edge85" class="edge"><title>11660&#45;&gt;31034</title>
<path fill="none" stroke="black" d="M635.741,-873.721C663.374,-913.22 731.921,-1011.2 759.609,-1050.78"/>
</g>
<!-- 11683 -->
<g id="node30" class="node"><title>11683</title>
<g id="a_node30"><a xlink:title="6th_week">
<ellipse fill="#c81d25" stroke="black" cx="1351.63" cy="-1004.91" rx="32.4942" ry="18"/>
<text text-anchor="middle" x="1351.63" y="-1001.21" font-family="Times,serif" font-size="14.00">11683</text>
</a>
</g>
</g>
<!-- 11683&#45;&gt;16801 -->
<g id="edge42" class="edge"><title>11683&#45;&gt;16801</title>
<path fill="none" stroke="black" d="M1331.83,-1019.19C1299.8,-1042.29 1236.95,-1087.62 1204.77,-1110.83"/>
</g>
<!-- 13120 -->
<g id="node31" class="node"><title>13120</title>
<g id="a_node31"><a xlink:title="6th_week">
<ellipse fill="#c81d25" stroke="black" cx="1253.14" cy="-2272.11" rx="32.4942" ry="18"/>
<text text-anchor="middle" x="1253.14" y="-2268.41" font-family="Times,serif" font-size="14.00">13120</text>
</a>
</g>
</g>
<!-- 13120&#45;&gt;19485 -->
<g id="edge76" class="edge"><title>13120&#45;&gt;19485</title>
<path fill="none" stroke="black" d="M1257.29,-2254.04C1266.16,-2215.41 1286.87,-2125.14 1295.73,-2086.54"/>
</g>
<!-- 13706 -->
<g id="node33" class="node"><title>13706</title>
<g id="a_node33"><a xlink:title="6th_week">
<ellipse fill="#c81d25" stroke="black" cx="655.4" cy="-1922.83" rx="32.4942" ry="18"/>
<text text-anchor="middle" x="655.4" y="-1919.13" font-family="Times,serif" font-size="14.00">13706</text>
</a>
</g>
</g>
<!-- 13706&#45;&gt;22322 -->
<g id="edge72" class="edge"><title>13706&#45;&gt;22322</title>
<path fill="none" stroke="black" d="M662.165,-1904.87C681.588,-1853.31 737.371,-1705.24 756.791,-1653.7"/>
</g>
<!-- 10190 -->
<g id="node85" class="node"><title>10190</title>
<g id="a_node85"><a xlink:title="6th_week">
<ellipse fill="#c81d25" stroke="black" cx="579.12" cy="-2120.69" rx="32.4942" ry="18"/>
<text text-anchor="middle" x="579.12" y="-2116.99" font-family="Times,serif" font-size="14.00">10190</text>
</a>
</g>
</g>
<!-- 13706&#45;&gt;10190 -->
<g id="edge71" class="edge"><title>13706&#45;&gt;10190</title>
<path fill="none" stroke="black" d="M648.496,-1940.74C633.973,-1978.41 600.414,-2065.46 585.953,-2102.97"/>
</g>
<!-- 14670 -->
<g id="node34" class="node"><title>14670</title>
<g id="a_node34"><a xlink:title="6th_week">
<ellipse fill="#c81d25" stroke="black" cx="1712.21" cy="-111.581" rx="32.4942" ry="18"/>
<text text-anchor="middle" x="1712.21" y="-107.881" font-family="Times,serif" font-size="14.00">14670</text>
</a>
</g>
</g>
<!-- 27300 -->
<g id="node68" class="node"><title>27300</title>
<g id="a_node68"><a xlink:title="6th_week">
<ellipse fill="#c81d25" stroke="black" cx="1562.53" cy="-305.119" rx="32.4942" ry="18"/>
<text text-anchor="middle" x="1562.53" y="-301.419" font-family="Times,serif" font-size="14.00">27300</text>
</a>
</g>
</g>
<!-- 14670&#45;&gt;27300 -->
<g id="edge1" class="edge"><title>14670&#45;&gt;27300</title>
<path fill="none" stroke="black" d="M1699.19,-128.417C1670.81,-165.112 1603.67,-251.926 1575.42,-288.459"/>
</g>
<!-- 14700 -->
<g id="node35" class="node"><title>14700</title>
<g id="a_node35"><a xlink:title="6th_week">
<ellipse fill="#c81d25" stroke="black" cx="1528.09" cy="-375.516" rx="32.4942" ry="18"/>
<text text-anchor="middle" x="1528.09" y="-371.816" font-family="Times,serif" font-size="14.00">14700</text>
</a>
</g>
</g>
<!-- 14700&#45;&gt;25962 -->
<g id="edge34" class="edge"><title>14700&#45;&gt;25962</title>
<path fill="none" stroke="black" d="M1512.4,-391.346C1486.93,-417.026 1436.91,-467.47 1411.46,-493.137"/>
</g>
<!-- 27996 -->
<g id="node70" class="node"><title>27996</title>
<g id="a_node70"><a xlink:title="6th_week">
<ellipse fill="#c81d25" stroke="black" cx="32.7405" cy="-1058.76" rx="32.4942" ry="18"/>
<text text-anchor="middle" x="32.7405" y="-1055.06" font-family="Times,serif" font-size="14.00">27996</text>
</a>
</g>
</g>
<!-- 14893&#45;&gt;27996 -->
<g id="edge28" class="edge"><title>14893&#45;&gt;27996</title>
<path fill="none" stroke="black" d="M215.192,-1074.9C174.74,-1071.32 105.639,-1065.21 65.0843,-1061.62"/>
</g>
<!-- 19619 -->
<g id="node46" class="node"><title>19619</title>
<g id="a_node46"><a xlink:title="6th_week">
<ellipse fill="#c81d25" stroke="black" cx="980.587" cy="-764.867" rx="32.4942" ry="18"/>
<text text-anchor="middle" x="980.587" y="-761.167" font-family="Times,serif" font-size="14.00">19619</text>
</a>
</g>
</g>
<!-- 16503&#45;&gt;19619 -->
<g id="edge40" class="edge"><title>16503&#45;&gt;19619</title>
<path fill="none" stroke="black" d="M952.897,-977.544C958.514,-934.402 972.634,-825.95 978.24,-782.893"/>
</g>
<!-- 30925 -->
<g id="node72" class="node"><title>30925</title>
<g id="a_node72"><a xlink:title="6th_week">
<ellipse fill="#c81d25" stroke="black" cx="875.184" cy="-772.025" rx="32.4942" ry="18"/>
<text text-anchor="middle" x="875.184" y="-768.325" font-family="Times,serif" font-size="14.00">30925</text>
</a>
</g>
</g>
<!-- 16503&#45;&gt;30925 -->
<g id="edge79" class="edge"><title>16503&#45;&gt;30925</title>
<path fill="none" stroke="black" d="M944.499,-977.731C930.355,-935.755 895.216,-831.475 881.147,-789.722"/>
</g>
<!-- 21679 -->
<g id="node52" class="node"><title>21679</title>
<g id="a_node52"><a xlink:title="6th_week">
<ellipse fill="#c81d25" stroke="black" cx="1656.85" cy="-1338.21" rx="32.4942" ry="18"/>
<text text-anchor="middle" x="1656.85" y="-1334.51" font-family="Times,serif" font-size="14.00">21679</text>
</a>
</g>
</g>
<!-- 16847&#45;&gt;21679 -->
<g id="edge45" class="edge"><title>16847&#45;&gt;21679</title>
<path fill="none" stroke="black" d="M1460.21,-1332.77C1503.85,-1333.98 1580.43,-1336.09 1624.03,-1337.3"/>
</g>
<!-- 23735 -->
<g id="node59" class="node"><title>23735</title>
<g id="a_node59"><a xlink:title="6th_week">
<ellipse fill="#c81d25" stroke="black" cx="1679.66" cy="-1387.98" rx="32.4942" ry="18"/>
<text text-anchor="middle" x="1679.66" y="-1384.28" font-family="Times,serif" font-size="14.00">23735</text>
</a>
</g>
</g>
<!-- 16847&#45;&gt;23735 -->
<g id="edge78" class="edge"><title>16847&#45;&gt;23735</title>
<path fill="none" stroke="black" d="M1457.52,-1338.57C1506.05,-1349.37 1600.88,-1370.46 1649.44,-1381.26"/>
</g>
<!-- 18488 -->
<g id="node43" class="node"><title>18488</title>
<g id="a_node43"><a xlink:title="6th_week">
<ellipse fill="#c81d25" stroke="black" cx="1358.83" cy="-1599.46" rx="32.4942" ry="18"/>
<text text-anchor="middle" x="1358.83" y="-1595.76" font-family="Times,serif" font-size="14.00">18488</text>
</a>
</g>
</g>
<!-- 18488&#45;&gt;18815 -->
<g id="edge10" class="edge"><title>18488&#45;&gt;18815</title>
<path fill="none" stroke="black" d="M1340.47,-1584.55C1305.21,-1555.93 1228.37,-1493.56 1192.95,-1464.81"/>
</g>
<!-- 25475 -->
<g id="node64" class="node"><title>25475</title>
<g id="a_node64"><a xlink:title="6th_week">
<ellipse fill="#c81d25" stroke="black" cx="1490.88" cy="-2200.26" rx="32.4942" ry="18"/>
<text text-anchor="middle" x="1490.88" y="-2196.56" font-family="Times,serif" font-size="14.00">25475</text>
</a>
</g>
</g>
<!-- 19485&#45;&gt;25475 -->
<g id="edge29" class="edge"><title>19485&#45;&gt;25475</title>
<path fill="none" stroke="black" d="M1320.31,-2082.61C1356.98,-2107.9 1433.53,-2160.7 1470.3,-2186.07"/>
</g>
<!-- 32375 -->
<g id="node75" class="node"><title>32375</title>
<g id="a_node75"><a xlink:title="6th_week">
<ellipse fill="#c81d25" stroke="black" cx="1333.26" cy="-2290.47" rx="32.4942" ry="18"/>
<text text-anchor="middle" x="1333.26" y="-2286.77" font-family="Times,serif" font-size="14.00">32375</text>
</a>
</g>
</g>
<!-- 19485&#45;&gt;32375 -->
<g id="edge38" class="edge"><title>19485&#45;&gt;32375</title>
<path fill="none" stroke="black" d="M1302.6,-2086.68C1308.88,-2128.4 1324.27,-2230.7 1330.54,-2272.37"/>
</g>
<!-- 20563 -->
<g id="node47" class="node"><title>20563</title>
<g id="a_node47"><a xlink:title="6th_week">
<ellipse fill="#c81d25" stroke="black" cx="791.628" cy="-748.956" rx="32.4942" ry="18"/>
<text text-anchor="middle" x="791.628" y="-745.256" font-family="Times,serif" font-size="14.00">20563</text>
</a>
</g>
</g>
<!-- 20563&#45;&gt;33134 -->
<g id="edge84" class="edge"><title>20563&#45;&gt;33134</title>
<path fill="none" stroke="black" d="M794.837,-767.092C802.613,-811.045 822.398,-922.866 830.186,-966.882"/>
</g>
<!-- 32456 -->
<g id="node76" class="node"><title>32456</title>
<g id="a_node76"><a xlink:title="6th_week">
<ellipse fill="#c81d25" stroke="black" cx="673.617" cy="-1854.64" rx="32.4942" ry="18"/>
<text text-anchor="middle" x="673.617" y="-1850.94" font-family="Times,serif" font-size="14.00">32456</text>
</a>
</g>
</g>
<!-- 22322&#45;&gt;32456 -->
<g id="edge22" class="edge"><title>22322&#45;&gt;32456</title>
<path fill="none" stroke="black" d="M756.194,-1653.66C739.287,-1694.81 697.836,-1795.7 680.953,-1836.79"/>
</g>
<!-- 22794 -->
<g id="node55" class="node"><title>22794</title>
<g id="a_node55"><a xlink:title="6th_week">
<ellipse fill="#c81d25" stroke="black" cx="489.006" cy="-1380.3" rx="32.4942" ry="18"/>
<text text-anchor="middle" x="489.006" y="-1376.6" font-family="Times,serif" font-size="14.00">22794</text>
</a>
</g>
</g>
<!-- 22794&#45;&gt;28988 -->
<g id="edge69" class="edge"><title>22794&#45;&gt;28988</title>
<path fill="none" stroke="black" d="M520.221,-1374.7C566.799,-1366.36 653.976,-1350.73 700.483,-1342.4"/>
</g>
<!-- 27470 -->
<g id="node69" class="node"><title>27470</title>
<g id="a_node69"><a xlink:title="6th_week">
<ellipse fill="#c81d25" stroke="black" cx="1091.46" cy="-770.692" rx="32.4942" ry="18"/>
<text text-anchor="middle" x="1091.46" y="-766.992" font-family="Times,serif" font-size="14.00">27470</text>
</a>
</g>
</g>
<!-- 23514&#45;&gt;27470 -->
<g id="edge9" class="edge"><title>23514&#45;&gt;27470</title>
<path fill="none" stroke="black" d="M1067.47,-995.79C1072.29,-950.573 1084.72,-833.956 1089.52,-788.866"/>
</g>
<!-- 29427 -->
<g id="node82" class="node"><title>29427</title>
<g id="a_node82"><a xlink:title="6th_week">
<ellipse fill="#c81d25" stroke="black" cx="1170.71" cy="-793.488" rx="32.4942" ry="18"/>
<text text-anchor="middle" x="1170.71" y="-789.788" font-family="Times,serif" font-size="14.00">29427</text>
</a>
</g>
</g>
<!-- 23514&#45;&gt;29427 -->
<g id="edge67" class="edge"><title>23514&#45;&gt;29427</title>
<path fill="none" stroke="black" d="M1073.95,-996.404C1093.69,-954.998 1142.75,-852.132 1162.39,-810.946"/>
</g>
<!-- 25062 -->
<g id="node61" class="node"><title>25062</title>
<g id="a_node61"><a xlink:title="6th_week">
<ellipse fill="#c81d25" stroke="black" cx="1447.6" cy="-331.073" rx="32.4942" ry="18"/>
<text text-anchor="middle" x="1447.6" y="-327.373" font-family="Times,serif" font-size="14.00">25062</text>
</a>
</g>
</g>
<!-- 25062&#45;&gt;25962 -->
<g id="edge46" class="edge"><title>25062&#45;&gt;25962</title>
<path fill="none" stroke="black" d="M1442.34,-349.108C1432.39,-383.288 1410.88,-457.117 1400.97,-491.129"/>
</g>
<!-- 25962&#45;&gt;27300 -->
<g id="edge73" class="edge"><title>25962&#45;&gt;27300</title>
<path fill="none" stroke="black" d="M1409.43,-492.266C1440.77,-453.95 1517.63,-360.006 1548.93,-321.744"/>
</g>
<!-- 25962&#45;&gt;30949 -->
<g id="edge47" class="edge"><title>25962&#45;&gt;30949</title>
<path fill="none" stroke="black" d="M1399,-490.815C1407.43,-443.471 1430.01,-316.527 1438.43,-269.205"/>
</g>
<!-- 20994 -->
<g id="node79" class="node"><title>20994</title>
<g id="a_node79"><a xlink:title="6th_week">
<ellipse fill="#c81d25" stroke="black" cx="570.972" cy="-905.953" rx="32.4942" ry="18"/>
<text text-anchor="middle" x="570.972" y="-902.253" font-family="Times,serif" font-size="14.00">20994</text>
</a>
</g>
</g>
<!-- 31034&#45;&gt;20994 -->
<g id="edge15" class="edge"><title>31034&#45;&gt;20994</title>
<path fill="none" stroke="black" d="M752.988,-1052.83C714.788,-1022.01 627.594,-951.645 589.432,-920.85"/>
</g>
<!-- 7483 -->
<g id="node84" class="node"><title>7483</title>
<g id="a_node84"><a xlink:title="6th_week">
<ellipse fill="#c81d25" stroke="black" cx="642.765" cy="-1700.03" rx="28.6953" ry="18"/>
<text text-anchor="middle" x="642.765" y="-1696.33" font-family="Times,serif" font-size="14.00">7483</text>
</a>
</g>
</g>
<!-- 32775&#45;&gt;7483 -->
<g id="edge8" class="edge"><title>32775&#45;&gt;7483</title>
<path fill="none" stroke="black" d="M767.249,-1520.81C741.333,-1558.12 679.932,-1646.52 654.309,-1683.41"/>
</g>
<!-- 7886 -->
<g id="node88" class="node"><title>7886</title>
<g id="a_node88"><a xlink:title="6th_week">
<ellipse fill="#c81d25" stroke="black" cx="581.392" cy="-1644.62" rx="28.6953" ry="18"/>
<text text-anchor="middle" x="581.392" y="-1640.92" font-family="Times,serif" font-size="14.00">7886</text>
</a>
</g>
</g>
<!-- 32775&#45;&gt;7886 -->
<g id="edge7" class="edge"><title>32775&#45;&gt;7886</title>
<path fill="none" stroke="black" d="M759.064,-1518.02C720.776,-1545.3 637.729,-1604.47 600.327,-1631.12"/>
</g>
<!-- 19256 -->
<g id="node81" class="node"><title>19256</title>
<g id="a_node81"><a xlink:title="6th_week">
<ellipse fill="#c81d25" stroke="black" cx="691.673" cy="-798.243" rx="32.4942" ry="18"/>
<text text-anchor="middle" x="691.673" y="-794.543" font-family="Times,serif" font-size="14.00">19256</text>
</a>
</g>
</g>
<!-- 33134&#45;&gt;19256 -->
<g id="edge17" class="edge"><title>33134&#45;&gt;19256</title>
<path fill="none" stroke="black" d="M820.578,-968.17C793.593,-932.598 731.239,-850.4 704.37,-814.98"/>
</g>
</g>
</svg>
