<?xml version="1.0" encoding="UTF-8" standalone="no"?>
<!DOCTYPE svg PUBLIC "-//W3C//DTD SVG 1.1//EN"
 "http://www.w3.org/Graphics/SVG/1.1/DTD/svg11.dtd">
<!-- Generated by graphviz version 2.38.0 (20140413.2041)
 -->
<!-- Title: %3 Pages: 1 -->
<svg width="2990pt" height="1959pt"
 viewBox="0.00 0.00 2990.00 1959.00" xmlns="http://www.w3.org/2000/svg" xmlns:xlink="http://www.w3.org/1999/xlink">
<g id="graph0" class="graph" transform="scale(1 1) rotate(0) translate(4 1955)">
<title>%3</title>
<polygon fill="white" stroke="none" points="-4,4 -4,-1955 2986,-1955 2986,4 -4,4"/>
<!-- 614 -->
<g id="node1" class="node"><title>614</title>
<g id="a_node1"><a xlink:title="Day_0">
<ellipse fill="#e5dada" stroke="black" cx="278.738" cy="-206.248" rx="27" ry="18"/>
<text text-anchor="middle" x="278.738" y="-202.548" font-family="Times,serif" font-size="14.00">614</text>
</a>
</g>
</g>
<!-- 5862 -->
<g id="node2" class="node"><title>5862</title>
<g id="a_node2"><a xlink:title="Day_0">
<ellipse fill="#e5dada" stroke="black" cx="515.782" cy="-371.323" rx="28.6953" ry="18"/>
<text text-anchor="middle" x="515.782" y="-367.623" font-family="Times,serif" font-size="14.00">5862</text>
</a>
</g>
</g>
<!-- 614&#45;&gt;5862 -->
<g id="edge71" class="edge"><title>614&#45;&gt;5862</title>
<path fill="none" stroke="black" d="M297.735,-219.478C342.01,-250.31 451.676,-326.68 496.363,-357.799"/>
</g>
<!-- 6703 -->
<g id="node3" class="node"><title>6703</title>
<g id="a_node3"><a xlink:title="Day_0">
<ellipse fill="#e5dada" stroke="black" cx="283.2" cy="-17.8173" rx="28.6953" ry="18"/>
<text text-anchor="middle" x="283.2" y="-14.1173" font-family="Times,serif" font-size="14.00">6703</text>
</a>
</g>
</g>
<!-- 614&#45;&gt;6703 -->
<g id="edge7" class="edge"><title>614&#45;&gt;6703</title>
<path fill="none" stroke="black" d="M279.166,-188.18C280.019,-152.164 281.922,-71.802 282.774,-35.8302"/>
</g>
<!-- 7257 -->
<g id="node4" class="node"><title>7257</title>
<g id="a_node4"><a xlink:title="Day_0">
<ellipse fill="#e5dada" stroke="black" cx="97.4015" cy="-241.003" rx="28.6953" ry="18"/>
<text text-anchor="middle" x="97.4015" y="-237.303" font-family="Times,serif" font-size="14.00">7257</text>
</a>
</g>
</g>
<!-- 614&#45;&gt;7257 -->
<g id="edge10" class="edge"><title>614&#45;&gt;7257</title>
<path fill="none" stroke="black" d="M252.757,-211.227C218.774,-217.74 159.496,-229.102 124.818,-235.748"/>
</g>
<!-- 12088 -->
<g id="node6" class="node"><title>12088</title>
<g id="a_node6"><a xlink:title="Day_0">
<ellipse fill="#e5dada" stroke="black" cx="128.092" cy="-60.3396" rx="32.4942" ry="18"/>
<text text-anchor="middle" x="128.092" y="-56.6396" font-family="Times,serif" font-size="14.00">12088</text>
</a>
</g>
</g>
<!-- 614&#45;&gt;12088 -->
<g id="edge78" class="edge"><title>614&#45;&gt;12088</title>
<path fill="none" stroke="black" d="M263.183,-191.183C234.467,-163.369 173.401,-104.224 144.243,-75.9825"/>
</g>
<!-- 12665 -->
<g id="node7" class="node"><title>12665</title>
<g id="a_node7"><a xlink:title="Day_0">
<ellipse fill="#e5dada" stroke="black" cx="212.683" cy="-76.1515" rx="32.4942" ry="18"/>
<text text-anchor="middle" x="212.683" y="-72.4515" font-family="Times,serif" font-size="14.00">12665</text>
</a>
</g>
</g>
<!-- 614&#45;&gt;12665 -->
<g id="edge22" class="edge"><title>614&#45;&gt;12665</title>
<path fill="none" stroke="black" d="M269.966,-188.972C257.332,-164.089 234.145,-118.421 221.491,-93.4987"/>
</g>
<!-- 13609 -->
<g id="node8" class="node"><title>13609</title>
<g id="a_node8"><a xlink:title="Day_0">
<ellipse fill="#e5dada" stroke="black" cx="93.4485" cy="-105.327" rx="32.4942" ry="18"/>
<text text-anchor="middle" x="93.4485" y="-101.627" font-family="Times,serif" font-size="14.00">13609</text>
</a>
</g>
</g>
<!-- 614&#45;&gt;13609 -->
<g id="edge1" class="edge"><title>614&#45;&gt;13609</title>
<path fill="none" stroke="black" d="M257.483,-194.671C222.502,-175.618 153.065,-137.799 116.775,-118.032"/>
</g>
<!-- 16370 -->
<g id="node10" class="node"><title>16370</title>
<g id="a_node10"><a xlink:title="Day_0">
<ellipse fill="#e5dada" stroke="black" cx="76.2879" cy="-169.758" rx="32.4942" ry="18"/>
<text text-anchor="middle" x="76.2879" y="-166.058" font-family="Times,serif" font-size="14.00">16370</text>
</a>
</g>
</g>
<!-- 614&#45;&gt;16370 -->
<g id="edge32" class="edge"><title>614&#45;&gt;16370</title>
<path fill="none" stroke="black" d="M252.271,-201.478C214.972,-194.755 147.077,-182.517 107.408,-175.367"/>
</g>
<!-- 10385 -->
<g id="node5" class="node"><title>10385</title>
<g id="a_node5"><a xlink:title="Day_0">
<ellipse fill="#e5dada" stroke="black" cx="783.984" cy="-550.274" rx="32.4942" ry="18"/>
<text text-anchor="middle" x="783.984" y="-546.574" font-family="Times,serif" font-size="14.00">10385</text>
</a>
</g>
</g>
<!-- 5862&#45;&gt;10385 -->
<g id="edge65" class="edge"><title>5862&#45;&gt;10385</title>
<path fill="none" stroke="black" d="M535.504,-384.482C584.739,-417.333 712.713,-502.72 763.131,-536.361"/>
</g>
<!-- 13693 -->
<g id="node9" class="node"><title>13693</title>
<g id="a_node9"><a xlink:title="Day_0">
<ellipse fill="#e5dada" stroke="black" cx="969.433" cy="-864.919" rx="32.4942" ry="18"/>
<text text-anchor="middle" x="969.433" y="-861.219" font-family="Times,serif" font-size="14.00">13693</text>
</a>
</g>
</g>
<!-- 10385&#45;&gt;13693 -->
<g id="edge6" class="edge"><title>10385&#45;&gt;13693</title>
<path fill="none" stroke="black" d="M794.218,-567.639C826.641,-622.65 926.851,-792.672 959.23,-847.608"/>
</g>
<!-- 11193 -->
<g id="node35" class="node"><title>11193</title>
<g id="a_node35"><a xlink:title="Day_0">
<ellipse fill="#e5dada" stroke="black" cx="811.551" cy="-394.452" rx="32.4942" ry="18"/>
<text text-anchor="middle" x="811.551" y="-390.752" font-family="Times,serif" font-size="14.00">11193</text>
</a>
</g>
</g>
<!-- 10385&#45;&gt;11193 -->
<g id="edge45" class="edge"><title>10385&#45;&gt;11193</title>
<path fill="none" stroke="black" d="M787.2,-532.094C792.512,-502.069 803.056,-442.465 808.355,-412.516"/>
</g>
<!-- 12819 -->
<g id="node36" class="node"><title>12819</title>
<g id="a_node36"><a xlink:title="Day_0">
<ellipse fill="#e5dada" stroke="black" cx="748.63" cy="-238.854" rx="32.4942" ry="18"/>
<text text-anchor="middle" x="748.63" y="-235.154" font-family="Times,serif" font-size="14.00">12819</text>
</a>
</g>
</g>
<!-- 10385&#45;&gt;12819 -->
<g id="edge54" class="edge"><title>10385&#45;&gt;12819</title>
<path fill="none" stroke="black" d="M781.93,-532.185C775.681,-477.144 756.945,-312.101 750.689,-256.993"/>
</g>
<!-- 15822 -->
<g id="node42" class="node"><title>15822</title>
<g id="a_node42"><a xlink:title="Day_0">
<ellipse fill="#e5dada" stroke="black" cx="632.887" cy="-475.309" rx="32.4942" ry="18"/>
<text text-anchor="middle" x="632.887" y="-471.609" font-family="Times,serif" font-size="14.00">15822</text>
</a>
</g>
</g>
<!-- 10385&#45;&gt;15822 -->
<g id="edge28" class="edge"><title>10385&#45;&gt;15822</title>
<path fill="none" stroke="black" d="M759.707,-538.23C731.511,-524.24 685.273,-501.3 657.103,-487.323"/>
</g>
<!-- 647 -->
<g id="node12" class="node"><title>647</title>
<g id="a_node12"><a xlink:title="Day_0">
<ellipse fill="#e5dada" stroke="black" cx="1401.88" cy="-842.054" rx="27" ry="18"/>
<text text-anchor="middle" x="1401.88" y="-838.354" font-family="Times,serif" font-size="14.00">647</text>
</a>
</g>
</g>
<!-- 13693&#45;&gt;647 -->
<g id="edge57" class="edge"><title>13693&#45;&gt;647</title>
<path fill="none" stroke="black" d="M1001.94,-863.201C1084.14,-858.854 1299.17,-847.485 1374.96,-843.478"/>
</g>
<!-- 2279 -->
<g id="node17" class="node"><title>2279</title>
<g id="a_node17"><a xlink:title="Day_0">
<ellipse fill="#e5dada" stroke="black" cx="761.692" cy="-867.232" rx="28.6953" ry="18"/>
<text text-anchor="middle" x="761.692" y="-863.532" font-family="Times,serif" font-size="14.00">2279</text>
</a>
</g>
</g>
<!-- 13693&#45;&gt;2279 -->
<g id="edge2" class="edge"><title>13693&#45;&gt;2279</title>
<path fill="none" stroke="black" d="M936.516,-865.286C896.244,-865.734 828.714,-866.486 790.441,-866.912"/>
</g>
<!-- 6052 -->
<g id="node22" class="node"><title>6052</title>
<g id="a_node22"><a xlink:title="Day_0">
<ellipse fill="#e5dada" stroke="black" cx="754.727" cy="-1169.11" rx="28.6953" ry="18"/>
<text text-anchor="middle" x="754.727" y="-1165.41" font-family="Times,serif" font-size="14.00">6052</text>
</a>
</g>
</g>
<!-- 13693&#45;&gt;6052 -->
<g id="edge4" class="edge"><title>13693&#45;&gt;6052</title>
<path fill="none" stroke="black" d="M957.584,-881.707C920.046,-934.891 804.027,-1099.26 766.54,-1152.38"/>
</g>
<!-- 6219 -->
<g id="node24" class="node"><title>6219</title>
<g id="a_node24"><a xlink:title="Day_0">
<ellipse fill="#e5dada" stroke="black" cx="1039.52" cy="-735.508" rx="28.6953" ry="18"/>
<text text-anchor="middle" x="1039.52" y="-731.808" font-family="Times,serif" font-size="14.00">6219</text>
</a>
</g>
</g>
<!-- 13693&#45;&gt;6219 -->
<g id="edge36" class="edge"><title>13693&#45;&gt;6219</title>
<path fill="none" stroke="black" d="M978.885,-847.466C992.335,-822.629 1016.85,-777.369 1030.21,-752.685"/>
</g>
<!-- 15626 -->
<g id="node40" class="node"><title>15626</title>
<g id="a_node40"><a xlink:title="Day_0">
<ellipse fill="#e5dada" stroke="black" cx="991.048" cy="-1018.01" rx="32.4942" ry="18"/>
<text text-anchor="middle" x="991.048" y="-1014.31" font-family="Times,serif" font-size="14.00">15626</text>
</a>
</g>
</g>
<!-- 13693&#45;&gt;15626 -->
<g id="edge9" class="edge"><title>13693&#45;&gt;15626</title>
<path fill="none" stroke="black" d="M971.998,-883.082C976.158,-912.546 984.329,-970.424 988.487,-999.872"/>
</g>
<!-- 12585 -->
<g id="node59" class="node"><title>12585</title>
<g id="a_node59"><a xlink:title="Day_0">
<ellipse fill="#e5dada" stroke="black" cx="1099.7" cy="-952.986" rx="32.4942" ry="18"/>
<text text-anchor="middle" x="1099.7" y="-949.286" font-family="Times,serif" font-size="14.00">12585</text>
</a>
</g>
</g>
<!-- 13693&#45;&gt;12585 -->
<g id="edge46" class="edge"><title>13693&#45;&gt;12585</title>
<path fill="none" stroke="black" d="M990.075,-878.874C1014.32,-895.267 1054.33,-922.315 1078.73,-938.806"/>
</g>
<!-- 638 -->
<g id="node11" class="node"><title>638</title>
<g id="a_node11"><a xlink:title="Day_0">
<ellipse fill="#e5dada" stroke="black" cx="1824.51" cy="-1024.49" rx="27" ry="18"/>
<text text-anchor="middle" x="1824.51" y="-1020.79" font-family="Times,serif" font-size="14.00">638</text>
</a>
</g>
</g>
<!-- 8072 -->
<g id="node27" class="node"><title>8072</title>
<g id="a_node27"><a xlink:title="Day_0">
<ellipse fill="#e5dada" stroke="black" cx="1815.34" cy="-817.93" rx="28.6953" ry="18"/>
<text text-anchor="middle" x="1815.34" y="-814.23" font-family="Times,serif" font-size="14.00">8072</text>
</a>
</g>
</g>
<!-- 638&#45;&gt;8072 -->
<g id="edge30" class="edge"><title>638&#45;&gt;8072</title>
<path fill="none" stroke="black" d="M1823.7,-1006.16C1821.95,-966.865 1817.87,-874.921 1816.14,-835.925"/>
</g>
<!-- 15072 -->
<g id="node77" class="node"><title>15072</title>
<g id="a_node77"><a xlink:title="Day_0">
<ellipse fill="#e5dada" stroke="black" cx="1829.48" cy="-1181.74" rx="32.4942" ry="18"/>
<text text-anchor="middle" x="1829.48" y="-1178.04" font-family="Times,serif" font-size="14.00">15072</text>
</a>
</g>
</g>
<!-- 638&#45;&gt;15072 -->
<g id="edge24" class="edge"><title>638&#45;&gt;15072</title>
<path fill="none" stroke="black" d="M1825.08,-1042.53C1826.04,-1072.7 1827.94,-1133.08 1828.9,-1163.43"/>
</g>
<!-- 647&#45;&gt;8072 -->
<g id="edge15" class="edge"><title>647&#45;&gt;8072</title>
<path fill="none" stroke="black" d="M1429.01,-840.472C1503.48,-836.127 1710.57,-824.043 1786.74,-819.599"/>
</g>
<!-- 713 -->
<g id="node13" class="node"><title>713</title>
<g id="a_node13"><a xlink:title="Day_0">
<ellipse fill="#e5dada" stroke="black" cx="586.307" cy="-829.294" rx="27" ry="18"/>
<text text-anchor="middle" x="586.307" y="-825.594" font-family="Times,serif" font-size="14.00">713</text>
</a>
</g>
</g>
<!-- 713&#45;&gt;2279 -->
<g id="edge75" class="edge"><title>713&#45;&gt;2279</title>
<path fill="none" stroke="black" d="M612.186,-834.892C644.964,-841.982 701.186,-854.143 734.552,-861.361"/>
</g>
<!-- 972 -->
<g id="node14" class="node"><title>972</title>
<g id="a_node14"><a xlink:title="Day_0">
<ellipse fill="#e5dada" stroke="black" cx="678.273" cy="-97.8208" rx="27" ry="18"/>
<text text-anchor="middle" x="678.273" y="-94.1208" font-family="Times,serif" font-size="14.00">972</text>
</a>
</g>
</g>
<!-- 972&#45;&gt;12819 -->
<g id="edge62" class="edge"><title>972&#45;&gt;12819</title>
<path fill="none" stroke="black" d="M686.9,-115.114C700.403,-142.182 726.385,-194.264 739.932,-221.419"/>
</g>
<!-- 2068 -->
<g id="node15" class="node"><title>2068</title>
<g id="a_node15"><a xlink:title="Day_0">
<ellipse fill="#e5dada" stroke="black" cx="339.302" cy="-1885.81" rx="28.6953" ry="18"/>
<text text-anchor="middle" x="339.302" y="-1882.11" font-family="Times,serif" font-size="14.00">2068</text>
</a>
</g>
</g>
<!-- 3402 -->
<g id="node19" class="node"><title>3402</title>
<g id="a_node19"><a xlink:title="Day_0">
<ellipse fill="#e5dada" stroke="black" cx="255.831" cy="-1734.08" rx="28.6953" ry="18"/>
<text text-anchor="middle" x="255.831" y="-1730.38" font-family="Times,serif" font-size="14.00">3402</text>
</a>
</g>
</g>
<!-- 2068&#45;&gt;3402 -->
<g id="edge47" class="edge"><title>2068&#45;&gt;3402</title>
<path fill="none" stroke="black" d="M329.889,-1868.7C313.858,-1839.56 281.432,-1780.61 265.337,-1751.36"/>
</g>
<!-- 2105 -->
<g id="node16" class="node"><title>2105</title>
<g id="a_node16"><a xlink:title="Day_0">
<ellipse fill="#e5dada" stroke="black" cx="135.877" cy="-1710.03" rx="28.6953" ry="18"/>
<text text-anchor="middle" x="135.877" y="-1706.33" font-family="Times,serif" font-size="14.00">2105</text>
</a>
</g>
</g>
<!-- 2105&#45;&gt;3402 -->
<g id="edge58" class="edge"><title>2105&#45;&gt;3402</title>
<path fill="none" stroke="black" d="M163.397,-1715.55C182.902,-1719.46 208.962,-1724.68 228.439,-1728.58"/>
</g>
<!-- 7315 -->
<g id="node25" class="node"><title>7315</title>
<g id="a_node25"><a xlink:title="Day_0">
<ellipse fill="#e5dada" stroke="black" cx="642.918" cy="-977.269" rx="28.6953" ry="18"/>
<text text-anchor="middle" x="642.918" y="-973.569" font-family="Times,serif" font-size="14.00">7315</text>
</a>
</g>
</g>
<!-- 2279&#45;&gt;7315 -->
<g id="edge68" class="edge"><title>2279&#45;&gt;7315</title>
<path fill="none" stroke="black" d="M745.177,-882.532C722.485,-903.555 681.911,-941.144 659.293,-962.098"/>
</g>
<!-- 8206 -->
<g id="node28" class="node"><title>8206</title>
<g id="a_node28"><a xlink:title="Day_0">
<ellipse fill="#e5dada" stroke="black" cx="639.695" cy="-758.706" rx="28.6953" ry="18"/>
<text text-anchor="middle" x="639.695" y="-755.006" font-family="Times,serif" font-size="14.00">8206</text>
</a>
</g>
</g>
<!-- 2279&#45;&gt;8206 -->
<g id="edge5" class="edge"><title>2279&#45;&gt;8206</title>
<path fill="none" stroke="black" d="M744.985,-852.369C721.753,-831.703 679.925,-794.494 656.592,-773.738"/>
</g>
<!-- 10041 -->
<g id="node58" class="node"><title>10041</title>
<g id="a_node58"><a xlink:title="Day_0">
<ellipse fill="#e5dada" stroke="black" cx="577.736" cy="-909.926" rx="32.4942" ry="18"/>
<text text-anchor="middle" x="577.736" y="-906.226" font-family="Times,serif" font-size="14.00">10041</text>
</a>
</g>
</g>
<!-- 2279&#45;&gt;10041 -->
<g id="edge55" class="edge"><title>2279&#45;&gt;10041</title>
<path fill="none" stroke="black" d="M734.549,-873.531C700.668,-881.395 642.908,-894.8 607.743,-902.962"/>
</g>
<!-- 2319 -->
<g id="node18" class="node"><title>2319</title>
<g id="a_node18"><a xlink:title="Day_0">
<ellipse fill="#e5dada" stroke="black" cx="61.7156" cy="-1849.83" rx="28.6953" ry="18"/>
<text text-anchor="middle" x="61.7156" y="-1846.13" font-family="Times,serif" font-size="14.00">2319</text>
</a>
</g>
</g>
<!-- 2319&#45;&gt;3402 -->
<g id="edge3" class="edge"><title>2319&#45;&gt;3402</title>
<path fill="none" stroke="black" d="M82.4893,-1837.45C119.753,-1815.22 197.545,-1768.83 234.913,-1746.55"/>
</g>
<!-- 5213 -->
<g id="node20" class="node"><title>5213</title>
<g id="a_node20"><a xlink:title="Day_0">
<ellipse fill="#e5dada" stroke="black" cx="147.782" cy="-1603.64" rx="28.6953" ry="18"/>
<text text-anchor="middle" x="147.782" y="-1599.94" font-family="Times,serif" font-size="14.00">5213</text>
</a>
</g>
</g>
<!-- 3402&#45;&gt;5213 -->
<g id="edge53" class="edge"><title>3402&#45;&gt;5213</title>
<path fill="none" stroke="black" d="M242.582,-1718.08C221.844,-1693.05 181.943,-1644.88 161.139,-1619.76"/>
</g>
<!-- 6186 -->
<g id="node23" class="node"><title>6186</title>
<g id="a_node23"><a xlink:title="Day_0">
<ellipse fill="#e5dada" stroke="black" cx="144.02" cy="-1861.46" rx="28.6953" ry="18"/>
<text text-anchor="middle" x="144.02" y="-1857.76" font-family="Times,serif" font-size="14.00">6186</text>
</a>
</g>
</g>
<!-- 3402&#45;&gt;6186 -->
<g id="edge39" class="edge"><title>3402&#45;&gt;6186</title>
<path fill="none" stroke="black" d="M241.896,-1749.95C220.47,-1774.36 179.662,-1820.85 158.13,-1845.38"/>
</g>
<!-- 7697 -->
<g id="node26" class="node"><title>7697</title>
<g id="a_node26"><a xlink:title="Day_0">
<ellipse fill="#e5dada" stroke="black" cx="70.9587" cy="-1793.03" rx="28.6953" ry="18"/>
<text text-anchor="middle" x="70.9587" y="-1789.33" font-family="Times,serif" font-size="14.00">7697</text>
</a>
</g>
</g>
<!-- 3402&#45;&gt;7697 -->
<g id="edge18" class="edge"><title>3402&#45;&gt;7697</title>
<path fill="none" stroke="black" d="M230.125,-1742.27C194.904,-1753.51 132.006,-1773.56 96.7434,-1784.81"/>
</g>
<!-- 8764 -->
<g id="node30" class="node"><title>8764</title>
<g id="a_node30"><a xlink:title="Day_0">
<ellipse fill="#e5dada" stroke="black" cx="68.7917" cy="-1648.94" rx="28.6953" ry="18"/>
<text text-anchor="middle" x="68.7917" y="-1645.24" font-family="Times,serif" font-size="14.00">8764</text>
</a>
</g>
</g>
<!-- 3402&#45;&gt;8764 -->
<g id="edge70" class="edge"><title>3402&#45;&gt;8764</title>
<path fill="none" stroke="black" d="M232.52,-1723.46C196.581,-1707.11 128.041,-1675.91 92.1014,-1659.55"/>
</g>
<!-- 8859 -->
<g id="node31" class="node"><title>8859</title>
<g id="a_node31"><a xlink:title="Day_0">
<ellipse fill="#e5dada" stroke="black" cx="271.66" cy="-1933.39" rx="28.6953" ry="18"/>
<text text-anchor="middle" x="271.66" y="-1929.69" font-family="Times,serif" font-size="14.00">8859</text>
</a>
</g>
</g>
<!-- 3402&#45;&gt;8859 -->
<g id="edge77" class="edge"><title>3402&#45;&gt;8859</title>
<path fill="none" stroke="black" d="M257.263,-1752.11C260.27,-1789.97 267.206,-1877.31 270.219,-1915.25"/>
</g>
<!-- 9705 -->
<g id="node32" class="node"><title>9705</title>
<g id="a_node32"><a xlink:title="Day_0">
<ellipse fill="#e5dada" stroke="black" cx="377.68" cy="-1816.04" rx="28.6953" ry="18"/>
<text text-anchor="middle" x="377.68" y="-1812.34" font-family="Times,serif" font-size="14.00">9705</text>
</a>
</g>
</g>
<!-- 3402&#45;&gt;9705 -->
<g id="edge12" class="edge"><title>3402&#45;&gt;9705</title>
<path fill="none" stroke="black" d="M275.408,-1747.24C298.012,-1762.45 334.993,-1787.32 357.746,-1802.63"/>
</g>
<!-- 11066 -->
<g id="node34" class="node"><title>11066</title>
<g id="a_node34"><a xlink:title="Day_0">
<ellipse fill="#e5dada" stroke="black" cx="32.9594" cy="-1740.65" rx="32.4942" ry="18"/>
<text text-anchor="middle" x="32.9594" y="-1736.95" font-family="Times,serif" font-size="14.00">11066</text>
</a>
</g>
</g>
<!-- 3402&#45;&gt;11066 -->
<g id="edge52" class="edge"><title>3402&#45;&gt;11066</title>
<path fill="none" stroke="black" d="M227.15,-1734.92C185.65,-1736.14 109.067,-1738.4 65.5037,-1739.69"/>
</g>
<!-- 15922 -->
<g id="node43" class="node"><title>15922</title>
<g id="a_node43"><a xlink:title="Day_0">
<ellipse fill="#e5dada" stroke="black" cx="499.072" cy="-1457.99" rx="32.4942" ry="18"/>
<text text-anchor="middle" x="499.072" y="-1454.29" font-family="Times,serif" font-size="14.00">15922</text>
</a>
</g>
</g>
<!-- 3402&#45;&gt;15922 -->
<g id="edge73" class="edge"><title>3402&#45;&gt;15922</title>
<path fill="none" stroke="black" d="M269.96,-1718.04C312.849,-1669.36 441.253,-1523.61 484.598,-1474.42"/>
</g>
<!-- 2356 -->
<g id="node45" class="node"><title>2356</title>
<g id="a_node45"><a xlink:title="Day_0">
<ellipse fill="#e5dada" stroke="black" cx="191.577" cy="-1931.48" rx="28.6953" ry="18"/>
<text text-anchor="middle" x="191.577" y="-1927.78" font-family="Times,serif" font-size="14.00">2356</text>
</a>
</g>
</g>
<!-- 3402&#45;&gt;2356 -->
<g id="edge17" class="edge"><title>3402&#45;&gt;2356</title>
<path fill="none" stroke="black" d="M250.015,-1751.94C237.782,-1789.53 209.514,-1876.38 197.333,-1913.8"/>
</g>
<!-- 2730 -->
<g id="node79" class="node"><title>2730</title>
<g id="a_node79"><a xlink:title="Day_0">
<ellipse fill="#e5dada" stroke="black" cx="116.471" cy="-1909.39" rx="28.6953" ry="18"/>
<text text-anchor="middle" x="116.471" y="-1905.69" font-family="Times,serif" font-size="14.00">2730</text>
</a>
</g>
</g>
<!-- 3402&#45;&gt;2730 -->
<g id="edge8" class="edge"><title>3402&#45;&gt;2730</title>
<path fill="none" stroke="black" d="M242.97,-1750.25C216.421,-1783.65 155.823,-1859.88 129.301,-1893.25"/>
</g>
<!-- 3999 -->
<g id="node80" class="node"><title>3999</title>
<g id="a_node80"><a xlink:title="Day_0">
<ellipse fill="#e5dada" stroke="black" cx="254.29" cy="-1885.02" rx="28.6953" ry="18"/>
<text text-anchor="middle" x="254.29" y="-1881.32" font-family="Times,serif" font-size="14.00">3999</text>
</a>
</g>
</g>
<!-- 3402&#45;&gt;3999 -->
<g id="edge59" class="edge"><title>3402&#45;&gt;3999</title>
<path fill="none" stroke="black" d="M255.645,-1752.28C255.349,-1781.29 254.773,-1837.7 254.476,-1866.75"/>
</g>
<!-- 5476 -->
<g id="node21" class="node"><title>5476</title>
<g id="a_node21"><a xlink:title="Day_0">
<ellipse fill="#e5dada" stroke="black" cx="586.778" cy="-146.384" rx="28.6953" ry="18"/>
<text text-anchor="middle" x="586.778" y="-142.684" font-family="Times,serif" font-size="14.00">5476</text>
</a>
</g>
</g>
<!-- 5476&#45;&gt;12819 -->
<g id="edge66" class="edge"><title>5476&#45;&gt;12819</title>
<path fill="none" stroke="black" d="M608.271,-158.664C638.883,-176.153 694.783,-208.09 726.005,-225.928"/>
</g>
<!-- 10708 -->
<g id="node33" class="node"><title>10708</title>
<g id="a_node33"><a xlink:title="Day_0">
<ellipse fill="#e5dada" stroke="black" cx="807.381" cy="-1332.06" rx="32.4942" ry="18"/>
<text text-anchor="middle" x="807.381" y="-1328.36" font-family="Times,serif" font-size="14.00">10708</text>
</a>
</g>
</g>
<!-- 6052&#45;&gt;10708 -->
<g id="edge63" class="edge"><title>6052&#45;&gt;10708</title>
<path fill="none" stroke="black" d="M760.462,-1186.86C770.591,-1218.21 791.53,-1283.01 801.653,-1314.34"/>
</g>
<!-- 6052&#45;&gt;15922 -->
<g id="edge49" class="edge"><title>6052&#45;&gt;15922</title>
<path fill="none" stroke="black" d="M740.618,-1185.05C696.025,-1235.44 558.421,-1390.93 513.453,-1441.74"/>
</g>
<!-- 17069 -->
<g id="node44" class="node"><title>17069</title>
<g id="a_node44"><a xlink:title="Day_0">
<ellipse fill="#e5dada" stroke="black" cx="602.342" cy="-1250.74" rx="32.4942" ry="18"/>
<text text-anchor="middle" x="602.342" y="-1247.04" font-family="Times,serif" font-size="14.00">17069</text>
</a>
</g>
</g>
<!-- 6052&#45;&gt;17069 -->
<g id="edge74" class="edge"><title>6052&#45;&gt;17069</title>
<path fill="none" stroke="black" d="M732.894,-1180.81C704.502,-1196.02 655.096,-1222.48 625.887,-1238.13"/>
</g>
<!-- 13035 -->
<g id="node51" class="node"><title>13035</title>
<g id="a_node51"><a xlink:title="Day_0">
<ellipse fill="#e5dada" stroke="black" cx="701.612" cy="-1335.58" rx="32.4942" ry="18"/>
<text text-anchor="middle" x="701.612" y="-1331.88" font-family="Times,serif" font-size="14.00">13035</text>
</a>
</g>
</g>
<!-- 6052&#45;&gt;13035 -->
<g id="edge51" class="edge"><title>6052&#45;&gt;13035</title>
<path fill="none" stroke="black" d="M749.043,-1186.93C738.846,-1218.88 717.56,-1285.6 707.335,-1317.65"/>
</g>
<!-- 14397 -->
<g id="node39" class="node"><title>14397</title>
<g id="a_node39"><a xlink:title="Day_0">
<ellipse fill="#e5dada" stroke="black" cx="1968.86" cy="-828.965" rx="32.4942" ry="18"/>
<text text-anchor="middle" x="1968.86" y="-825.265" font-family="Times,serif" font-size="14.00">14397</text>
</a>
</g>
</g>
<!-- 8072&#45;&gt;14397 -->
<g id="edge40" class="edge"><title>8072&#45;&gt;14397</title>
<path fill="none" stroke="black" d="M1843.85,-819.98C1870.13,-821.868 1909.08,-824.668 1936.51,-826.64"/>
</g>
<!-- 12105 -->
<g id="node50" class="node"><title>12105</title>
<g id="a_node50"><a xlink:title="Day_0">
<ellipse fill="#e5dada" stroke="black" cx="2169.86" cy="-988.984" rx="32.4942" ry="18"/>
<text text-anchor="middle" x="2169.86" y="-985.284" font-family="Times,serif" font-size="14.00">12105</text>
</a>
</g>
</g>
<!-- 8072&#45;&gt;12105 -->
<g id="edge50" class="edge"><title>8072&#45;&gt;12105</title>
<path fill="none" stroke="black" d="M1838.05,-828.891C1901.32,-859.418 2079.22,-945.25 2145,-976.989"/>
</g>
<!-- 6523 -->
<g id="node65" class="node"><title>6523</title>
<g id="a_node65"><a xlink:title="Day_0">
<ellipse fill="#e5dada" stroke="black" cx="1722.07" cy="-913.777" rx="28.6953" ry="18"/>
<text text-anchor="middle" x="1722.07" y="-910.077" font-family="Times,serif" font-size="14.00">6523</text>
</a>
</g>
</g>
<!-- 8072&#45;&gt;6523 -->
<g id="edge23" class="edge"><title>8072&#45;&gt;6523</title>
<path fill="none" stroke="black" d="M1800.35,-833.33C1782.95,-851.216 1754.41,-880.546 1737.02,-898.415"/>
</g>
<!-- 11091 -->
<g id="node74" class="node"><title>11091</title>
<g id="a_node74"><a xlink:title="Day_0">
<ellipse fill="#e5dada" stroke="black" cx="1908.36" cy="-945.583" rx="32.4942" ry="18"/>
<text text-anchor="middle" x="1908.36" y="-941.883" font-family="Times,serif" font-size="14.00">11091</text>
</a>
</g>
</g>
<!-- 8072&#45;&gt;11091 -->
<g id="edge35" class="edge"><title>8072&#45;&gt;11091</title>
<path fill="none" stroke="black" d="M1827.31,-834.357C1845.07,-858.734 1878.24,-904.241 1896.14,-928.814"/>
</g>
<!-- 11589 -->
<g id="node75" class="node"><title>11589</title>
<g id="a_node75"><a xlink:title="Day_0">
<ellipse fill="#e5dada" stroke="black" cx="1737.63" cy="-706.392" rx="32.4942" ry="18"/>
<text text-anchor="middle" x="1737.63" y="-702.692" font-family="Times,serif" font-size="14.00">11589</text>
</a>
</g>
</g>
<!-- 8072&#45;&gt;11589 -->
<g id="edge11" class="edge"><title>8072&#45;&gt;11589</title>
<path fill="none" stroke="black" d="M1803.53,-800.99C1788.93,-780.026 1764.2,-744.529 1749.54,-723.492"/>
</g>
<!-- 15051 -->
<g id="node76" class="node"><title>15051</title>
<g id="a_node76"><a xlink:title="Day_0">
<ellipse fill="#e5dada" stroke="black" cx="2028.11" cy="-509.607" rx="32.4942" ry="18"/>
<text text-anchor="middle" x="2028.11" y="-505.907" font-family="Times,serif" font-size="14.00">15051</text>
</a>
</g>
</g>
<!-- 8072&#45;&gt;15051 -->
<g id="edge16" class="edge"><title>8072&#45;&gt;15051</title>
<path fill="none" stroke="black" d="M1826.78,-801.354C1863.63,-747.944 1979.05,-580.701 2016.35,-526.644"/>
</g>
<!-- 8385 -->
<g id="node29" class="node"><title>8385</title>
<g id="a_node29"><a xlink:title="Day_0">
<ellipse fill="#e5dada" stroke="black" cx="2509.47" cy="-1145.52" rx="28.6953" ry="18"/>
<text text-anchor="middle" x="2509.47" y="-1141.82" font-family="Times,serif" font-size="14.00">8385</text>
</a>
</g>
</g>
<!-- 2549 -->
<g id="node46" class="node"><title>2549</title>
<g id="a_node46"><a xlink:title="Day_0">
<ellipse fill="#e5dada" stroke="black" cx="2697.78" cy="-1191.82" rx="28.6953" ry="18"/>
<text text-anchor="middle" x="2697.78" y="-1188.12" font-family="Times,serif" font-size="14.00">2549</text>
</a>
</g>
</g>
<!-- 8385&#45;&gt;2549 -->
<g id="edge72" class="edge"><title>8385&#45;&gt;2549</title>
<path fill="none" stroke="black" d="M2536.45,-1152.15C2572.25,-1160.95 2635.08,-1176.4 2670.85,-1185.2"/>
</g>
<!-- 4387 -->
<g id="node47" class="node"><title>4387</title>
<g id="a_node47"><a xlink:title="Day_0">
<ellipse fill="#e5dada" stroke="black" cx="2628.89" cy="-1312.32" rx="28.6953" ry="18"/>
<text text-anchor="middle" x="2628.89" y="-1308.62" font-family="Times,serif" font-size="14.00">4387</text>
</a>
</g>
</g>
<!-- 8385&#45;&gt;4387 -->
<g id="edge37" class="edge"><title>8385&#45;&gt;4387</title>
<path fill="none" stroke="black" d="M2521.36,-1162.12C2544.25,-1194.09 2594.2,-1263.86 2617.05,-1295.78"/>
</g>
<!-- 6204 -->
<g id="node48" class="node"><title>6204</title>
<g id="a_node48"><a xlink:title="Day_0">
<ellipse fill="#e5dada" stroke="black" cx="2416.59" cy="-1275.09" rx="28.6953" ry="18"/>
<text text-anchor="middle" x="2416.59" y="-1271.39" font-family="Times,serif" font-size="14.00">6204</text>
</a>
</g>
</g>
<!-- 8385&#45;&gt;6204 -->
<g id="edge29" class="edge"><title>8385&#45;&gt;6204</title>
<path fill="none" stroke="black" d="M2497.71,-1161.93C2479.94,-1186.72 2446.44,-1233.46 2428.55,-1258.41"/>
</g>
<!-- 9814 -->
<g id="node49" class="node"><title>9814</title>
<g id="a_node49"><a xlink:title="Day_0">
<ellipse fill="#e5dada" stroke="black" cx="2664.56" cy="-1250.07" rx="28.6953" ry="18"/>
<text text-anchor="middle" x="2664.56" y="-1246.37" font-family="Times,serif" font-size="14.00">9814</text>
</a>
</g>
</g>
<!-- 8385&#45;&gt;9814 -->
<g id="edge13" class="edge"><title>8385&#45;&gt;9814</title>
<path fill="none" stroke="black" d="M2529.11,-1158.76C2558.78,-1178.76 2614.73,-1216.47 2644.59,-1236.6"/>
</g>
<!-- 8385&#45;&gt;12105 -->
<g id="edge21" class="edge"><title>8385&#45;&gt;12105</title>
<path fill="none" stroke="black" d="M2486.4,-1134.88C2425.19,-1106.67 2259.03,-1030.08 2195.25,-1000.69"/>
</g>
<!-- 13707 -->
<g id="node52" class="node"><title>13707</title>
<g id="a_node52"><a xlink:title="Day_0">
<ellipse fill="#e5dada" stroke="black" cx="2762.87" cy="-1135.95" rx="32.4942" ry="18"/>
<text text-anchor="middle" x="2762.87" y="-1132.25" font-family="Times,serif" font-size="14.00">13707</text>
</a>
</g>
</g>
<!-- 8385&#45;&gt;13707 -->
<g id="edge42" class="edge"><title>8385&#45;&gt;13707</title>
<path fill="none" stroke="black" d="M2538.05,-1144.44C2585.55,-1142.64 2680.46,-1139.06 2730.41,-1137.17"/>
</g>
<!-- 14547 -->
<g id="node53" class="node"><title>14547</title>
<g id="a_node53"><a xlink:title="Day_0">
<ellipse fill="#e5dada" stroke="black" cx="2737.28" cy="-1313.01" rx="32.4942" ry="18"/>
<text text-anchor="middle" x="2737.28" y="-1309.31" font-family="Times,serif" font-size="14.00">14547</text>
</a>
</g>
</g>
<!-- 8385&#45;&gt;14547 -->
<g id="edge31" class="edge"><title>8385&#45;&gt;14547</title>
<path fill="none" stroke="black" d="M2528.11,-1159.22C2570.51,-1190.4 2673.86,-1266.38 2717.41,-1298.4"/>
</g>
<!-- 6642 -->
<g id="node54" class="node"><title>6642</title>
<g id="a_node54"><a xlink:title="Day_0">
<ellipse fill="#e5dada" stroke="black" cx="2694.55" cy="-1061.18" rx="28.6953" ry="18"/>
<text text-anchor="middle" x="2694.55" y="-1057.48" font-family="Times,serif" font-size="14.00">6642</text>
</a>
</g>
</g>
<!-- 8385&#45;&gt;6642 -->
<g id="edge81" class="edge"><title>8385&#45;&gt;6642</title>
<path fill="none" stroke="black" d="M2532.91,-1134.83C2568.51,-1118.61 2635.81,-1087.95 2671.3,-1071.78"/>
</g>
<!-- 7112 -->
<g id="node55" class="node"><title>7112</title>
<g id="a_node55"><a xlink:title="Day_0">
<ellipse fill="#e5dada" stroke="black" cx="2626.72" cy="-1010.12" rx="28.6953" ry="18"/>
<text text-anchor="middle" x="2626.72" y="-1006.42" font-family="Times,serif" font-size="14.00">7112</text>
</a>
</g>
</g>
<!-- 8385&#45;&gt;7112 -->
<g id="edge82" class="edge"><title>8385&#45;&gt;7112</title>
<path fill="none" stroke="black" d="M2523.38,-1129.45C2545.95,-1103.39 2590.27,-1052.21 2612.83,-1026.16"/>
</g>
<!-- 7414 -->
<g id="node56" class="node"><title>7414</title>
<g id="a_node56"><a xlink:title="Day_0">
<ellipse fill="#e5dada" stroke="black" cx="2545.32" cy="-1295.01" rx="28.6953" ry="18"/>
<text text-anchor="middle" x="2545.32" y="-1291.31" font-family="Times,serif" font-size="14.00">7414</text>
</a>
</g>
</g>
<!-- 8385&#45;&gt;7414 -->
<g id="edge79" class="edge"><title>8385&#45;&gt;7414</title>
<path fill="none" stroke="black" d="M2513.8,-1163.55C2520.69,-1192.28 2534.08,-1248.14 2540.98,-1276.91"/>
</g>
<!-- 7577 -->
<g id="node57" class="node"><title>7577</title>
<g id="a_node57"><a xlink:title="Day_0">
<ellipse fill="#e5dada" stroke="black" cx="2550.22" cy="-1004.74" rx="28.6953" ry="18"/>
<text text-anchor="middle" x="2550.22" y="-1001.04" font-family="Times,serif" font-size="14.00">7577</text>
</a>
</g>
</g>
<!-- 8385&#45;&gt;7577 -->
<g id="edge64" class="edge"><title>8385&#45;&gt;7577</title>
<path fill="none" stroke="black" d="M2514.63,-1127.69C2522.43,-1100.75 2537.13,-1049.98 2544.97,-1022.87"/>
</g>
<!-- 17618 -->
<g id="node61" class="node"><title>17618</title>
<g id="a_node61"><a xlink:title="Day_0">
<ellipse fill="#e5dada" stroke="black" cx="2473.3" cy="-1339.24" rx="32.4942" ry="18"/>
<text text-anchor="middle" x="2473.3" y="-1335.54" font-family="Times,serif" font-size="14.00">17618</text>
</a>
</g>
</g>
<!-- 8385&#45;&gt;17618 -->
<g id="edge80" class="edge"><title>8385&#45;&gt;17618</title>
<path fill="none" stroke="black" d="M2506.13,-1163.39C2499.26,-1200.21 2483.59,-1284.11 2476.68,-1321.13"/>
</g>
<!-- 882 -->
<g id="node62" class="node"><title>882</title>
<g id="a_node62"><a xlink:title="Day_0">
<ellipse fill="#e5dada" stroke="black" cx="2559.9" cy="-1354.98" rx="27" ry="18"/>
<text text-anchor="middle" x="2559.9" y="-1351.28" font-family="Times,serif" font-size="14.00">882</text>
</a>
</g>
</g>
<!-- 8385&#45;&gt;882 -->
<g id="edge34" class="edge"><title>8385&#45;&gt;882</title>
<path fill="none" stroke="black" d="M2513.77,-1163.37C2523.3,-1202.95 2546.1,-1297.64 2555.61,-1337.17"/>
</g>
<!-- 7237 -->
<g id="node68" class="node"><title>7237</title>
<g id="a_node68"><a xlink:title="Day_0">
<ellipse fill="#e5dada" stroke="black" cx="2672.3" cy="-1115.11" rx="28.6953" ry="18"/>
<text text-anchor="middle" x="2672.3" y="-1111.41" font-family="Times,serif" font-size="14.00">7237</text>
</a>
</g>
</g>
<!-- 8385&#45;&gt;7237 -->
<g id="edge26" class="edge"><title>8385&#45;&gt;7237</title>
<path fill="none" stroke="black" d="M2537.09,-1140.36C2567.13,-1134.75 2614.83,-1125.84 2644.81,-1120.24"/>
</g>
<!-- 13821 -->
<g id="node37" class="node"><title>13821</title>
<g id="a_node37"><a xlink:title="Day_0">
<ellipse fill="#e5dada" stroke="black" cx="816.653" cy="-57.7271" rx="32.4942" ry="18"/>
<text text-anchor="middle" x="816.653" y="-54.0271" font-family="Times,serif" font-size="14.00">13821</text>
</a>
</g>
</g>
<!-- 12819&#45;&gt;13821 -->
<g id="edge67" class="edge"><title>12819&#45;&gt;13821</title>
<path fill="none" stroke="black" d="M755.276,-221.157C768.281,-186.53 796.954,-110.181 809.98,-75.4959"/>
</g>
<!-- 13876 -->
<g id="node38" class="node"><title>13876</title>
<g id="a_node38"><a xlink:title="Day_0">
<ellipse fill="#e5dada" stroke="black" cx="861.848" cy="-115.395" rx="32.4942" ry="18"/>
<text text-anchor="middle" x="861.848" y="-111.695" font-family="Times,serif" font-size="14.00">13876</text>
</a>
</g>
</g>
<!-- 12819&#45;&gt;13876 -->
<g id="edge20" class="edge"><title>12819&#45;&gt;13876</title>
<path fill="none" stroke="black" d="M763.431,-222.714C785.129,-199.053 825.343,-155.202 847.043,-131.539"/>
</g>
<!-- 15690 -->
<g id="node41" class="node"><title>15690</title>
<g id="a_node41"><a xlink:title="Day_0">
<ellipse fill="#e5dada" stroke="black" cx="722.757" cy="-44.7259" rx="32.4942" ry="18"/>
<text text-anchor="middle" x="722.757" y="-41.0259" font-family="Times,serif" font-size="14.00">15690</text>
</a>
</g>
</g>
<!-- 12819&#45;&gt;15690 -->
<g id="edge43" class="edge"><title>12819&#45;&gt;15690</title>
<path fill="none" stroke="black" d="M746.196,-220.591C741.252,-183.497 730.088,-99.7327 725.165,-62.799"/>
</g>
<!-- 16745 -->
<g id="node60" class="node"><title>16745</title>
<g id="a_node60"><a xlink:title="Day_0">
<ellipse fill="#e5dada" stroke="black" cx="2949.43" cy="-1129.31" rx="32.4942" ry="18"/>
<text text-anchor="middle" x="2949.43" y="-1125.61" font-family="Times,serif" font-size="14.00">16745</text>
</a>
</g>
</g>
<!-- 13707&#45;&gt;16745 -->
<g id="edge33" class="edge"><title>13707&#45;&gt;16745</title>
<path fill="none" stroke="black" d="M2795.36,-1134.79C2829.5,-1133.58 2882.88,-1131.68 2917,-1130.47"/>
</g>
<!-- 5447 -->
<g id="node64" class="node"><title>5447</title>
<g id="a_node64"><a xlink:title="Day_0">
<ellipse fill="#e5dada" stroke="black" cx="2907.69" cy="-1379.86" rx="28.6953" ry="18"/>
<text text-anchor="middle" x="2907.69" y="-1376.16" font-family="Times,serif" font-size="14.00">5447</text>
</a>
</g>
</g>
<!-- 14547&#45;&gt;5447 -->
<g id="edge69" class="edge"><title>14547&#45;&gt;5447</title>
<path fill="none" stroke="black" d="M2763.91,-1323.46C2796.58,-1336.27 2851.52,-1357.82 2883.19,-1370.25"/>
</g>
<!-- 9214 -->
<g id="node70" class="node"><title>9214</title>
<g id="a_node70"><a xlink:title="Day_0">
<ellipse fill="#e5dada" stroke="black" cx="2859.56" cy="-1451.14" rx="28.6953" ry="18"/>
<text text-anchor="middle" x="2859.56" y="-1447.44" font-family="Times,serif" font-size="14.00">9214</text>
</a>
</g>
</g>
<!-- 14547&#45;&gt;9214 -->
<g id="edge61" class="edge"><title>14547&#45;&gt;9214</title>
<path fill="none" stroke="black" d="M2751.79,-1329.4C2775.45,-1356.13 2822.05,-1408.77 2845.45,-1435.2"/>
</g>
<!-- 4074 -->
<g id="node63" class="node"><title>4074</title>
<g id="a_node63"><a xlink:title="Day_0">
<ellipse fill="#e5dada" stroke="black" cx="2097.71" cy="-329.762" rx="28.6953" ry="18"/>
<text text-anchor="middle" x="2097.71" y="-326.062" font-family="Times,serif" font-size="14.00">4074</text>
</a>
</g>
</g>
<!-- 4074&#45;&gt;15051 -->
<g id="edge44" class="edge"><title>4074&#45;&gt;15051</title>
<path fill="none" stroke="black" d="M2090.91,-347.334C2077.61,-381.716 2048.27,-457.525 2034.94,-491.964"/>
</g>
<!-- 6741 -->
<g id="node66" class="node"><title>6741</title>
<g id="a_node66"><a xlink:title="Day_0">
<ellipse fill="#e5dada" stroke="black" cx="2158.23" cy="-596.765" rx="28.6953" ry="18"/>
<text text-anchor="middle" x="2158.23" y="-593.065" font-family="Times,serif" font-size="14.00">6741</text>
</a>
</g>
</g>
<!-- 6741&#45;&gt;15051 -->
<g id="edge41" class="edge"><title>6741&#45;&gt;15051</title>
<path fill="none" stroke="black" d="M2138.46,-583.528C2114.29,-567.336 2073.56,-540.052 2048.92,-523.547"/>
</g>
<!-- 6799 -->
<g id="node67" class="node"><title>6799</title>
<g id="a_node67"><a xlink:title="Day_0">
<ellipse fill="#e5dada" stroke="black" cx="2102.14" cy="-389.38" rx="28.6953" ry="18"/>
<text text-anchor="middle" x="2102.14" y="-385.68" font-family="Times,serif" font-size="14.00">6799</text>
</a>
</g>
</g>
<!-- 6799&#45;&gt;15051 -->
<g id="edge14" class="edge"><title>6799&#45;&gt;15051</title>
<path fill="none" stroke="black" d="M2091.69,-406.351C2077.66,-429.135 2052.87,-469.396 2038.75,-492.334"/>
</g>
<!-- 7759 -->
<g id="node69" class="node"><title>7759</title>
<g id="a_node69"><a xlink:title="Day_0">
<ellipse fill="#e5dada" stroke="black" cx="2189.99" cy="-352.931" rx="28.6953" ry="18"/>
<text text-anchor="middle" x="2189.99" y="-349.231" font-family="Times,serif" font-size="14.00">7759</text>
</a>
</g>
</g>
<!-- 7759&#45;&gt;15051 -->
<g id="edge19" class="edge"><title>7759&#45;&gt;15051</title>
<path fill="none" stroke="black" d="M2174.17,-368.239C2143.46,-397.961 2076.04,-463.218 2044.71,-493.536"/>
</g>
<!-- 9749 -->
<g id="node71" class="node"><title>9749</title>
<g id="a_node71"><a xlink:title="Day_0">
<ellipse fill="#e5dada" stroke="black" cx="2013.81" cy="-361.479" rx="28.6953" ry="18"/>
<text text-anchor="middle" x="2013.81" y="-357.779" font-family="Times,serif" font-size="14.00">9749</text>
</a>
</g>
</g>
<!-- 9749&#45;&gt;15051 -->
<g id="edge56" class="edge"><title>9749&#45;&gt;15051</title>
<path fill="none" stroke="black" d="M2015.56,-379.642C2018.31,-408.072 2023.59,-462.774 2026.34,-491.295"/>
</g>
<!-- 10080 -->
<g id="node72" class="node"><title>10080</title>
<g id="a_node72"><a xlink:title="Day_0">
<ellipse fill="#e5dada" stroke="black" cx="2206.54" cy="-420.639" rx="32.4942" ry="18"/>
<text text-anchor="middle" x="2206.54" y="-416.939" font-family="Times,serif" font-size="14.00">10080</text>
</a>
</g>
</g>
<!-- 10080&#45;&gt;15051 -->
<g id="edge25" class="edge"><title>10080&#45;&gt;15051</title>
<path fill="none" stroke="black" d="M2182.1,-432.823C2148.03,-449.813 2086.6,-480.441 2052.54,-497.428"/>
</g>
<!-- 10915 -->
<g id="node73" class="node"><title>10915</title>
<g id="a_node73"><a xlink:title="Day_0">
<ellipse fill="#e5dada" stroke="black" cx="1940.94" cy="-344.824" rx="32.4942" ry="18"/>
<text text-anchor="middle" x="1940.94" y="-341.124" font-family="Times,serif" font-size="14.00">10915</text>
</a>
</g>
</g>
<!-- 10915&#45;&gt;15051 -->
<g id="edge76" class="edge"><title>10915&#45;&gt;15051</title>
<path fill="none" stroke="black" d="M1950.11,-362.147C1966.85,-393.795 2002.19,-460.61 2018.94,-492.269"/>
</g>
<!-- 17494 -->
<g id="node78" class="node"><title>17494</title>
<g id="a_node78"><a xlink:title="Day_0">
<ellipse fill="#e5dada" stroke="black" cx="2197.32" cy="-472.207" rx="32.4942" ry="18"/>
<text text-anchor="middle" x="2197.32" y="-468.507" font-family="Times,serif" font-size="14.00">17494</text>
</a>
</g>
</g>
<!-- 15051&#45;&gt;17494 -->
<g id="edge48" class="edge"><title>15051&#45;&gt;17494</title>
<path fill="none" stroke="black" d="M2058.36,-502.921C2089.07,-496.134 2136.33,-485.687 2167.05,-478.898"/>
</g>
<!-- 6861 -->
<g id="node81" class="node"><title>6861</title>
<g id="a_node81"><a xlink:title="Day_0">
<ellipse fill="#e5dada" stroke="black" cx="2197.44" cy="-533.045" rx="28.6953" ry="18"/>
<text text-anchor="middle" x="2197.44" y="-529.345" font-family="Times,serif" font-size="14.00">6861</text>
</a>
</g>
</g>
<!-- 15051&#45;&gt;6861 -->
<g id="edge60" class="edge"><title>15051&#45;&gt;6861</title>
<path fill="none" stroke="black" d="M2059.96,-514.016C2091.48,-518.378 2139.26,-524.992 2169.38,-529.162"/>
</g>
<!-- 3012 -->
<g id="node82" class="node"><title>3012</title>
<g id="a_node82"><a xlink:title="Day_0">
<ellipse fill="#e5dada" stroke="black" cx="2026.46" cy="-314.743" rx="28.6953" ry="18"/>
<text text-anchor="middle" x="2026.46" y="-311.043" font-family="Times,serif" font-size="14.00">3012</text>
</a>
</g>
</g>
<!-- 15051&#45;&gt;3012 -->
<g id="edge27" class="edge"><title>15051&#45;&gt;3012</title>
<path fill="none" stroke="black" d="M2027.95,-491.275C2027.64,-454.041 2026.93,-369.958 2026.61,-332.885"/>
</g>
<!-- 18024 -->
<g id="node83" class="node"><title>18024</title>
<g id="a_node83"><a xlink:title="Day_0">
<ellipse fill="#e5dada" stroke="black" cx="1892.33" cy="-411.199" rx="32.4942" ry="18"/>
<text text-anchor="middle" x="1892.33" y="-407.499" font-family="Times,serif" font-size="14.00">18024</text>
</a>
</g>
</g>
<!-- 15051&#45;&gt;18024 -->
<g id="edge38" class="edge"><title>15051&#45;&gt;18024</title>
<path fill="none" stroke="black" d="M2008.37,-495.298C1982.62,-476.64 1937.85,-444.192 1912.1,-425.526"/>
</g>
</g>
</svg>
