<?xml version="1.0" encoding="UTF-8" standalone="no"?>
<!DOCTYPE svg PUBLIC "-//W3C//DTD SVG 1.1//EN"
 "http://www.w3.org/Graphics/SVG/1.1/DTD/svg11.dtd">
<!-- Generated by graphviz version 2.38.0 (20140413.2041)
 -->
<!-- Title: %3 Pages: 1 -->
<svg width="2729pt" height="1301pt"
 viewBox="0.00 0.00 2729.00 1301.00" xmlns="http://www.w3.org/2000/svg" xmlns:xlink="http://www.w3.org/1999/xlink">
<g id="graph0" class="graph" transform="scale(1 1) rotate(0) translate(4 1297)">
<title>%3</title>
<polygon fill="white" stroke="none" points="-4,4 -4,-1297 2725,-1297 2725,4 -4,4"/>
<!-- 196 -->
<g id="node1" class="node"><title>196</title>
<g id="a_node1"><a xlink:title="PRE">
<ellipse fill="#71a9f7" stroke="black" cx="1812.52" cy="-420.516" rx="27" ry="18"/>
<text text-anchor="middle" x="1812.52" y="-416.816" font-family="Times,serif" font-size="14.00">196</text>
</a>
</g>
</g>
<!-- 6272 -->
<g id="node23" class="node"><title>6272</title>
<g id="a_node23"><a xlink:title="3rd_week,PRE">
<ellipse fill="#71a9f7" stroke="black" cx="1755.3" cy="-555.223" rx="28.6832" ry="18"/>
<ellipse fill="none" stroke="black" cx="1755.3" cy="-555.223" rx="32.6952" ry="22"/>
<text text-anchor="middle" x="1755.3" y="-551.523" font-family="Times,serif" font-size="14.00">6272</text>
</a>
</g>
</g>
<!-- 196&#45;&gt;6272 -->
<g id="edge6" class="edge"><title>196&#45;&gt;6272</title>
<path fill="none" stroke="black" d="M1805.15,-437.851C1794.71,-462.437 1775.62,-507.395 1764.33,-533.963"/>
</g>
<!-- 490 -->
<g id="node2" class="node"><title>490</title>
<g id="a_node2"><a xlink:title="PRE">
<ellipse fill="#71a9f7" stroke="black" cx="1642.12" cy="-646.007" rx="27" ry="18"/>
<text text-anchor="middle" x="1642.12" y="-642.307" font-family="Times,serif" font-size="14.00">490</text>
</a>
</g>
</g>
<!-- 490&#45;&gt;6272 -->
<g id="edge83" class="edge"><title>490&#45;&gt;6272</title>
<path fill="none" stroke="black" d="M1659.8,-631.822C1679.95,-615.664 1712.84,-589.282 1734.28,-572.086"/>
</g>
<!-- 632 -->
<g id="node3" class="node"><title>632</title>
<g id="a_node3"><a xlink:title="PRE">
<ellipse fill="#71a9f7" stroke="black" cx="286.442" cy="-781.417" rx="27" ry="18"/>
<text text-anchor="middle" x="286.442" y="-777.717" font-family="Times,serif" font-size="14.00">632</text>
</a>
</g>
</g>
<!-- 10032 -->
<g id="node42" class="node"><title>10032</title>
<g id="a_node42"><a xlink:title="PRE">
<ellipse fill="#71a9f7" stroke="black" cx="377.867" cy="-632.233" rx="32.4942" ry="18"/>
<text text-anchor="middle" x="377.867" y="-628.533" font-family="Times,serif" font-size="14.00">10032</text>
</a>
</g>
</g>
<!-- 632&#45;&gt;10032 -->
<g id="edge62" class="edge"><title>632&#45;&gt;10032</title>
<path fill="none" stroke="black" d="M296.752,-764.593C314.218,-736.094 349.449,-678.605 367.172,-649.685"/>
</g>
<!-- 1487 -->
<g id="node4" class="node"><title>1487</title>
<g id="a_node4"><a xlink:title="PRE">
<ellipse fill="#71a9f7" stroke="black" cx="1839.72" cy="-341.673" rx="28.6953" ry="18"/>
<text text-anchor="middle" x="1839.72" y="-337.973" font-family="Times,serif" font-size="14.00">1487</text>
</a>
</g>
</g>
<!-- 1487&#45;&gt;6272 -->
<g id="edge14" class="edge"><title>1487&#45;&gt;6272</title>
<path fill="none" stroke="black" d="M1832.82,-359.148C1817.46,-397.998 1780.52,-491.428 1763.79,-533.748"/>
</g>
<!-- 14247 -->
<g id="node57" class="node"><title>14247</title>
<g id="a_node57"><a xlink:title="PRE">
<ellipse fill="#71a9f7" stroke="black" cx="1915.28" cy="-160.554" rx="32.4942" ry="18"/>
<text text-anchor="middle" x="1915.28" y="-156.854" font-family="Times,serif" font-size="14.00">14247</text>
</a>
</g>
</g>
<!-- 1487&#45;&gt;14247 -->
<g id="edge30" class="edge"><title>1487&#45;&gt;14247</title>
<path fill="none" stroke="black" d="M1847.11,-323.976C1861.55,-289.351 1893.4,-213.005 1907.87,-178.322"/>
</g>
<!-- 1531 -->
<g id="node5" class="node"><title>1531</title>
<g id="a_node5"><a xlink:title="PRE">
<ellipse fill="#71a9f7" stroke="black" cx="379.828" cy="-529.915" rx="28.6953" ry="18"/>
<text text-anchor="middle" x="379.828" y="-526.215" font-family="Times,serif" font-size="14.00">1531</text>
</a>
</g>
</g>
<!-- 9157 -->
<g id="node40" class="node"><title>9157</title>
<g id="a_node40"><a xlink:title="PRE">
<ellipse fill="#71a9f7" stroke="black" cx="477.589" cy="-432.444" rx="28.6953" ry="18"/>
<text text-anchor="middle" x="477.589" y="-428.744" font-family="Times,serif" font-size="14.00">9157</text>
</a>
</g>
</g>
<!-- 1531&#45;&gt;9157 -->
<g id="edge72" class="edge"><title>1531&#45;&gt;9157</title>
<path fill="none" stroke="black" d="M395.103,-514.685C413.362,-496.481 443.745,-466.188 462.099,-447.889"/>
</g>
<!-- 2100 -->
<g id="node6" class="node"><title>2100</title>
<g id="a_node6"><a xlink:title="PRE">
<ellipse fill="#71a9f7" stroke="black" cx="1743.62" cy="-992.159" rx="28.6953" ry="18"/>
<text text-anchor="middle" x="1743.62" y="-988.459" font-family="Times,serif" font-size="14.00">2100</text>
</a>
</g>
</g>
<!-- 12320 -->
<g id="node51" class="node"><title>12320</title>
<g id="a_node51"><a xlink:title="PRE">
<ellipse fill="#71a9f7" stroke="black" cx="1749.21" cy="-806.048" rx="32.4942" ry="18"/>
<text text-anchor="middle" x="1749.21" y="-802.348" font-family="Times,serif" font-size="14.00">12320</text>
</a>
</g>
</g>
<!-- 2100&#45;&gt;12320 -->
<g id="edge19" class="edge"><title>2100&#45;&gt;12320</title>
<path fill="none" stroke="black" d="M1744.16,-973.975C1745.23,-938.395 1747.59,-859.945 1748.67,-824.305"/>
</g>
<!-- 2567 -->
<g id="node7" class="node"><title>2567</title>
<g id="a_node7"><a xlink:title="PRE">
<ellipse fill="#71a9f7" stroke="black" cx="591.499" cy="-506.371" rx="28.6953" ry="18"/>
<text text-anchor="middle" x="591.499" y="-502.671" font-family="Times,serif" font-size="14.00">2567</text>
</a>
</g>
</g>
<!-- 2567&#45;&gt;9157 -->
<g id="edge78" class="edge"><title>2567&#45;&gt;9157</title>
<path fill="none" stroke="black" d="M571.396,-493.324C550.703,-479.894 518.634,-459.082 497.874,-445.609"/>
</g>
<!-- 2802 -->
<g id="node8" class="node"><title>2802</title>
<g id="a_node8"><a xlink:title="PRE">
<ellipse fill="#71a9f7" stroke="black" cx="312.486" cy="-575.32" rx="28.6953" ry="18"/>
<text text-anchor="middle" x="312.486" y="-571.62" font-family="Times,serif" font-size="14.00">2802</text>
</a>
</g>
</g>
<!-- 2802&#45;&gt;9157 -->
<g id="edge5" class="edge"><title>2802&#45;&gt;9157</title>
<path fill="none" stroke="black" d="M329.533,-560.568C361.171,-533.189 428.633,-474.809 460.387,-447.33"/>
</g>
<!-- 10532 -->
<g id="node44" class="node"><title>10532</title>
<g id="a_node44"><a xlink:title="PRE">
<ellipse fill="#71a9f7" stroke="black" cx="171.466" cy="-688.995" rx="32.4942" ry="18"/>
<text text-anchor="middle" x="171.466" y="-685.295" font-family="Times,serif" font-size="14.00">10532</text>
</a>
</g>
</g>
<!-- 2802&#45;&gt;10532 -->
<g id="edge66" class="edge"><title>2802&#45;&gt;10532</title>
<path fill="none" stroke="black" d="M294.626,-589.717C267.796,-611.344 217.339,-652.017 190.077,-673.993"/>
</g>
<!-- 3245 -->
<g id="node9" class="node"><title>3245</title>
<g id="a_node9"><a xlink:title="PRE">
<ellipse fill="#71a9f7" stroke="black" cx="2045.61" cy="-782.383" rx="28.6953" ry="18"/>
<text text-anchor="middle" x="2045.61" y="-778.683" font-family="Times,serif" font-size="14.00">3245</text>
</a>
</g>
</g>
<!-- 3245&#45;&gt;6272 -->
<g id="edge69" class="edge"><title>3245&#45;&gt;6272</title>
<path fill="none" stroke="black" d="M2027.45,-768.173C1976.43,-728.253 1831.96,-615.202 1776.94,-572.154"/>
</g>
<!-- 8524 -->
<g id="node37" class="node"><title>8524</title>
<g id="a_node37"><a xlink:title="PRE">
<ellipse fill="#71a9f7" stroke="black" cx="2327.84" cy="-992.016" rx="28.6953" ry="18"/>
<text text-anchor="middle" x="2327.84" y="-988.316" font-family="Times,serif" font-size="14.00">8524</text>
</a>
</g>
</g>
<!-- 3245&#45;&gt;8524 -->
<g id="edge53" class="edge"><title>3245&#45;&gt;8524</title>
<path fill="none" stroke="black" d="M2064.13,-796.138C2115.27,-834.122 2258.04,-940.166 2309.26,-978.211"/>
</g>
<!-- 3250 -->
<g id="node10" class="node"><title>3250</title>
<g id="a_node10"><a xlink:title="PRE">
<ellipse fill="#71a9f7" stroke="black" cx="2488.05" cy="-949.665" rx="28.6953" ry="18"/>
<text text-anchor="middle" x="2488.05" y="-945.965" font-family="Times,serif" font-size="14.00">3250</text>
</a>
</g>
</g>
<!-- 3250&#45;&gt;8524 -->
<g id="edge65" class="edge"><title>3250&#45;&gt;8524</title>
<path fill="none" stroke="black" d="M2461.59,-956.659C2431.91,-964.506 2384.04,-977.161 2354.34,-985.012"/>
</g>
<!-- 3570 -->
<g id="node11" class="node"><title>3570</title>
<g id="a_node11"><a xlink:title="PRE">
<ellipse fill="#71a9f7" stroke="black" cx="1575.88" cy="-552.666" rx="28.6953" ry="18"/>
<text text-anchor="middle" x="1575.88" y="-548.966" font-family="Times,serif" font-size="14.00">3570</text>
</a>
</g>
</g>
<!-- 3570&#45;&gt;6272 -->
<g id="edge10" class="edge"><title>3570&#45;&gt;6272</title>
<path fill="none" stroke="black" d="M1604.71,-553.077C1636.9,-553.536 1688.9,-554.277 1722.59,-554.757"/>
</g>
<!-- 3656 -->
<g id="node12" class="node"><title>3656</title>
<g id="a_node12"><a xlink:title="PRE">
<ellipse fill="#71a9f7" stroke="black" cx="1865.9" cy="-706.972" rx="28.6953" ry="18"/>
<text text-anchor="middle" x="1865.9" y="-703.272" font-family="Times,serif" font-size="14.00">3656</text>
</a>
</g>
</g>
<!-- 3656&#45;&gt;6272 -->
<g id="edge8" class="edge"><title>3656&#45;&gt;6272</title>
<path fill="none" stroke="black" d="M1853.86,-690.443C1833.37,-662.329 1791.81,-605.312 1769.78,-575.08"/>
</g>
<!-- 4138 -->
<g id="node13" class="node"><title>4138</title>
<g id="a_node13"><a xlink:title="PRE">
<ellipse fill="#71a9f7" stroke="black" cx="197.885" cy="-102.548" rx="28.6953" ry="18"/>
<text text-anchor="middle" x="197.885" y="-98.8478" font-family="Times,serif" font-size="14.00">4138</text>
</a>
</g>
</g>
<!-- 17462 -->
<g id="node68" class="node"><title>17462</title>
<g id="a_node68"><a xlink:title="PRE">
<ellipse fill="#71a9f7" stroke="black" cx="303.392" cy="-257.984" rx="32.4942" ry="18"/>
<text text-anchor="middle" x="303.392" y="-254.284" font-family="Times,serif" font-size="14.00">17462</text>
</a>
</g>
</g>
<!-- 4138&#45;&gt;17462 -->
<g id="edge37" class="edge"><title>4138&#45;&gt;17462</title>
<path fill="none" stroke="black" d="M209.176,-119.182C229.377,-148.943 271.49,-210.986 291.862,-240.998"/>
</g>
<!-- 4287 -->
<g id="node14" class="node"><title>4287</title>
<g id="a_node14"><a xlink:title="PRE">
<ellipse fill="#71a9f7" stroke="black" cx="587.301" cy="-345.141" rx="28.6953" ry="18"/>
<text text-anchor="middle" x="587.301" y="-341.441" font-family="Times,serif" font-size="14.00">4287</text>
</a>
</g>
</g>
<!-- 4287&#45;&gt;9157 -->
<g id="edge58" class="edge"><title>4287&#45;&gt;9157</title>
<path fill="none" stroke="black" d="M569.184,-359.557C548.734,-375.83 515.678,-402.135 495.369,-418.296"/>
</g>
<!-- 4349 -->
<g id="node15" class="node"><title>4349</title>
<g id="a_node15"><a xlink:title="PRE">
<ellipse fill="#71a9f7" stroke="black" cx="1914.11" cy="-348.27" rx="28.6953" ry="18"/>
<text text-anchor="middle" x="1914.11" y="-344.57" font-family="Times,serif" font-size="14.00">4349</text>
</a>
</g>
</g>
<!-- 4349&#45;&gt;6272 -->
<g id="edge57" class="edge"><title>4349&#45;&gt;6272</title>
<path fill="none" stroke="black" d="M1901.65,-364.509C1872.84,-402.052 1801.71,-494.751 1770.45,-535.485"/>
</g>
<!-- 10673 -->
<g id="node45" class="node"><title>10673</title>
<g id="a_node45"><a xlink:title="PRE">
<ellipse fill="#71a9f7" stroke="black" cx="2058.5" cy="-162.151" rx="32.4942" ry="18"/>
<text text-anchor="middle" x="2058.5" y="-158.451" font-family="Times,serif" font-size="14.00">10673</text>
</a>
</g>
</g>
<!-- 4349&#45;&gt;10673 -->
<g id="edge75" class="edge"><title>4349&#45;&gt;10673</title>
<path fill="none" stroke="black" d="M1926.67,-332.078C1953.91,-296.968 2018.17,-214.141 2045.66,-178.704"/>
</g>
<!-- 4750 -->
<g id="node16" class="node"><title>4750</title>
<g id="a_node16"><a xlink:title="PRE">
<ellipse fill="#71a9f7" stroke="black" cx="1596.78" cy="-498.648" rx="28.6953" ry="18"/>
<text text-anchor="middle" x="1596.78" y="-494.948" font-family="Times,serif" font-size="14.00">4750</text>
</a>
</g>
</g>
<!-- 4750&#45;&gt;6272 -->
<g id="edge46" class="edge"><title>4750&#45;&gt;6272</title>
<path fill="none" stroke="black" d="M1621.9,-507.613C1650.28,-517.739 1696.38,-534.193 1726.27,-544.862"/>
</g>
<!-- 4790 -->
<g id="node17" class="node"><title>4790</title>
<g id="a_node17"><a xlink:title="3rd_week">
<ellipse fill="#ee9898" stroke="black" cx="1896.26" cy="-658.939" rx="28.6953" ry="18"/>
<text text-anchor="middle" x="1896.26" y="-655.239" font-family="Times,serif" font-size="14.00">4790</text>
</a>
</g>
</g>
<!-- 4790&#45;&gt;6272 -->
<g id="edge55" class="edge"><title>4790&#45;&gt;6272</title>
<path fill="none" stroke="black" d="M1877.54,-645.166C1851.63,-626.101 1804.92,-591.728 1777.35,-571.444"/>
</g>
<!-- 5125 -->
<g id="node18" class="node"><title>5125</title>
<g id="a_node18"><a xlink:title="3rd_week">
<ellipse fill="#ee9898" stroke="black" cx="2692.55" cy="-1210.08" rx="28.6953" ry="18"/>
<text text-anchor="middle" x="2692.55" y="-1206.38" font-family="Times,serif" font-size="14.00">5125</text>
</a>
</g>
</g>
<!-- 9096 -->
<g id="node39" class="node"><title>9096</title>
<g id="a_node39"><a xlink:title="3rd_week">
<ellipse fill="#ee9898" stroke="black" cx="2524.18" cy="-1137.95" rx="28.6953" ry="18"/>
<text text-anchor="middle" x="2524.18" y="-1134.25" font-family="Times,serif" font-size="14.00">9096</text>
</a>
</g>
</g>
<!-- 5125&#45;&gt;9096 -->
<g id="edge54" class="edge"><title>5125&#45;&gt;9096</title>
<path fill="none" stroke="black" d="M2668.78,-1199.9C2636.7,-1186.15 2579.85,-1161.8 2547.83,-1148.08"/>
</g>
<!-- 5195 -->
<g id="node19" class="node"><title>5195</title>
<g id="a_node19"><a xlink:title="PRE">
<ellipse fill="#71a9f7" stroke="black" cx="2092" cy="-296.102" rx="28.6953" ry="18"/>
<text text-anchor="middle" x="2092" y="-292.402" font-family="Times,serif" font-size="14.00">5195</text>
</a>
</g>
</g>
<!-- 11941 -->
<g id="node48" class="node"><title>11941</title>
<g id="a_node48"><a xlink:title="PRE">
<ellipse fill="#71a9f7" stroke="black" cx="1940.22" cy="-419.106" rx="32.4942" ry="18"/>
<text text-anchor="middle" x="1940.22" y="-415.406" font-family="Times,serif" font-size="14.00">11941</text>
</a>
</g>
</g>
<!-- 5195&#45;&gt;11941 -->
<g id="edge7" class="edge"><title>5195&#45;&gt;11941</title>
<path fill="none" stroke="black" d="M2074.3,-310.453C2045.36,-333.901 1988.23,-380.201 1958.76,-404.08"/>
</g>
<!-- 5891 -->
<g id="node20" class="node"><title>5891</title>
<g id="a_node20"><a xlink:title="PRE">
<ellipse fill="#71a9f7" stroke="black" cx="1916.04" cy="-539.287" rx="28.6953" ry="18"/>
<text text-anchor="middle" x="1916.04" y="-535.587" font-family="Times,serif" font-size="14.00">5891</text>
</a>
</g>
</g>
<!-- 5891&#45;&gt;6272 -->
<g id="edge31" class="edge"><title>5891&#45;&gt;6272</title>
<path fill="none" stroke="black" d="M1887.68,-542.099C1859.74,-544.869 1817.1,-549.096 1787.81,-552"/>
</g>
<!-- 5943 -->
<g id="node21" class="node"><title>5943</title>
<g id="a_node21"><a xlink:title="PRE">
<ellipse fill="#71a9f7" stroke="black" cx="1835.69" cy="-775.68" rx="28.6953" ry="18"/>
<text text-anchor="middle" x="1835.69" y="-771.98" font-family="Times,serif" font-size="14.00">5943</text>
</a>
</g>
</g>
<!-- 5943&#45;&gt;6272 -->
<g id="edge16" class="edge"><title>5943&#45;&gt;6272</title>
<path fill="none" stroke="black" d="M1829.24,-758.012C1814.64,-717.959 1779.06,-620.366 1763.18,-576.82"/>
</g>
<!-- 5138 -->
<g id="node83" class="node"><title>5138</title>
<g id="a_node83"><a xlink:title="PRE">
<ellipse fill="#71a9f7" stroke="black" cx="1896.91" cy="-953.567" rx="28.6953" ry="18"/>
<text text-anchor="middle" x="1896.91" y="-949.867" font-family="Times,serif" font-size="14.00">5138</text>
</a>
</g>
</g>
<!-- 5943&#45;&gt;5138 -->
<g id="edge33" class="edge"><title>5943&#45;&gt;5138</title>
<path fill="none" stroke="black" d="M1841.78,-793.387C1853.52,-827.484 1879.13,-901.891 1890.84,-935.931"/>
</g>
<!-- 5952 -->
<g id="node22" class="node"><title>5952</title>
<g id="a_node22"><a xlink:title="PRE">
<ellipse fill="#71a9f7" stroke="black" cx="527.483" cy="-578.809" rx="28.6953" ry="18"/>
<text text-anchor="middle" x="527.483" y="-575.109" font-family="Times,serif" font-size="14.00">5952</text>
</a>
</g>
</g>
<!-- 5952&#45;&gt;9157 -->
<g id="edge41" class="edge"><title>5952&#45;&gt;9157</title>
<path fill="none" stroke="black" d="M521.464,-561.154C511.875,-533.022 493.232,-478.333 483.629,-450.162"/>
</g>
<!-- 6314 -->
<g id="node24" class="node"><title>6314</title>
<g id="a_node24"><a xlink:title="PRE">
<ellipse fill="#71a9f7" stroke="black" cx="1560.1" cy="-434.248" rx="28.6953" ry="18"/>
<text text-anchor="middle" x="1560.1" y="-430.548" font-family="Times,serif" font-size="14.00">6314</text>
</a>
</g>
</g>
<!-- 6272&#45;&gt;6314 -->
<g id="edge24" class="edge"><title>6272&#45;&gt;6314</title>
<path fill="none" stroke="black" d="M1730.98,-540.146C1692.14,-516.077 1616.83,-469.402 1580.57,-446.935"/>
</g>
<!-- 6926 -->
<g id="node25" class="node"><title>6926</title>
<g id="a_node25"><a xlink:title="PRE">
<ellipse fill="#71a9f7" stroke="black" cx="1771.99" cy="-319.356" rx="28.6953" ry="18"/>
<text text-anchor="middle" x="1771.99" y="-315.656" font-family="Times,serif" font-size="14.00">6926</text>
</a>
</g>
</g>
<!-- 6272&#45;&gt;6926 -->
<g id="edge68" class="edge"><title>6272&#45;&gt;6926</title>
<path fill="none" stroke="black" d="M1756.87,-533.033C1760.16,-486.588 1767.71,-379.922 1770.72,-337.367"/>
</g>
<!-- 7045 -->
<g id="node27" class="node"><title>7045</title>
<g id="a_node27"><a xlink:title="PRE">
<ellipse fill="#71a9f7" stroke="black" cx="1912.39" cy="-602.816" rx="28.6953" ry="18"/>
<text text-anchor="middle" x="1912.39" y="-599.116" font-family="Times,serif" font-size="14.00">7045</text>
</a>
</g>
</g>
<!-- 6272&#45;&gt;7045 -->
<g id="edge52" class="edge"><title>6272&#45;&gt;7045</title>
<path fill="none" stroke="black" d="M1785.22,-564.287C1814.51,-573.16 1858.66,-586.539 1886.49,-594.969"/>
</g>
<!-- 7172 -->
<g id="node28" class="node"><title>7172</title>
<g id="a_node28"><a xlink:title="Day_0">
<ellipse fill="#e5dada" stroke="black" cx="2006.87" cy="-479.993" rx="28.6953" ry="18"/>
<text text-anchor="middle" x="2006.87" y="-476.293" font-family="Times,serif" font-size="14.00">7172</text>
</a>
</g>
</g>
<!-- 6272&#45;&gt;7172 -->
<g id="edge38" class="edge"><title>6272&#45;&gt;7172</title>
<path fill="none" stroke="black" d="M1785.15,-546.298C1834.87,-531.43 1933.82,-501.839 1980.86,-487.771"/>
</g>
<!-- 8063 -->
<g id="node32" class="node"><title>8063</title>
<g id="a_node32"><a xlink:title="PRE">
<ellipse fill="#71a9f7" stroke="black" cx="1685.41" cy="-449.684" rx="28.6953" ry="18"/>
<text text-anchor="middle" x="1685.41" y="-445.984" font-family="Times,serif" font-size="14.00">8063</text>
</a>
</g>
</g>
<!-- 6272&#45;&gt;8063 -->
<g id="edge21" class="edge"><title>6272&#45;&gt;8063</title>
<path fill="none" stroke="black" d="M1741.83,-534.874C1728.66,-514.988 1708.85,-485.072 1696.55,-466.495"/>
</g>
<!-- 8191 -->
<g id="node34" class="node"><title>8191</title>
<g id="a_node34"><a xlink:title="PRE">
<ellipse fill="#71a9f7" stroke="black" cx="1576.06" cy="-705.599" rx="28.6953" ry="18"/>
<text text-anchor="middle" x="1576.06" y="-701.899" font-family="Times,serif" font-size="14.00">8191</text>
</a>
</g>
</g>
<!-- 6272&#45;&gt;8191 -->
<g id="edge59" class="edge"><title>6272&#45;&gt;8191</title>
<path fill="none" stroke="black" d="M1734.74,-572.473C1699.15,-602.329 1626.71,-663.109 1593.45,-691.008"/>
</g>
<!-- 6272&#45;&gt;11941 -->
<g id="edge13" class="edge"><title>6272&#45;&gt;11941</title>
<path fill="none" stroke="black" d="M1777.61,-538.804C1814.11,-511.935 1886.01,-459.015 1920.65,-433.514"/>
</g>
<!-- 12236 -->
<g id="node50" class="node"><title>12236</title>
<g id="a_node50"><a xlink:title="PRE">
<ellipse fill="#71a9f7" stroke="black" cx="1724.26" cy="-388.747" rx="32.4942" ry="18"/>
<text text-anchor="middle" x="1724.26" y="-385.047" font-family="Times,serif" font-size="14.00">12236</text>
</a>
</g>
</g>
<!-- 6272&#45;&gt;12236 -->
<g id="edge60" class="edge"><title>6272&#45;&gt;12236</title>
<path fill="none" stroke="black" d="M1751.18,-533.116C1744.98,-499.86 1733.37,-437.59 1727.64,-406.855"/>
</g>
<!-- 6272&#45;&gt;12320 -->
<g id="edge67" class="edge"><title>6272&#45;&gt;12320</title>
<path fill="none" stroke="black" d="M1754.76,-577.482C1753.57,-626.519 1750.74,-743.066 1749.65,-787.973"/>
</g>
<!-- 13455 -->
<g id="node55" class="node"><title>13455</title>
<g id="a_node55"><a xlink:title="PRE">
<ellipse fill="#71a9f7" stroke="black" cx="2010.18" cy="-609.412" rx="32.4942" ry="18"/>
<text text-anchor="middle" x="2010.18" y="-605.712" font-family="Times,serif" font-size="14.00">13455</text>
</a>
</g>
</g>
<!-- 6272&#45;&gt;13455 -->
<g id="edge42" class="edge"><title>6272&#45;&gt;13455</title>
<path fill="none" stroke="black" d="M1786.56,-561.868C1835.74,-572.325 1930.62,-592.497 1979.47,-602.883"/>
</g>
<!-- 14603 -->
<g id="node59" class="node"><title>14603</title>
<g id="a_node59"><a xlink:title="PRE">
<ellipse fill="#71a9f7" stroke="black" cx="1789.1" cy="-681.877" rx="32.4942" ry="18"/>
<text text-anchor="middle" x="1789.1" y="-678.177" font-family="Times,serif" font-size="14.00">14603</text>
</a>
</g>
</g>
<!-- 6272&#45;&gt;14603 -->
<g id="edge35" class="edge"><title>6272&#45;&gt;14603</title>
<path fill="none" stroke="black" d="M1761.11,-576.996C1767.68,-601.609 1778.25,-641.216 1784.34,-664.064"/>
</g>
<!-- 14672 -->
<g id="node60" class="node"><title>14672</title>
<g id="a_node60"><a xlink:title="PRE">
<ellipse fill="#71a9f7" stroke="black" cx="1886.77" cy="-471.496" rx="32.4942" ry="18"/>
<text text-anchor="middle" x="1886.77" y="-467.796" font-family="Times,serif" font-size="14.00">14672</text>
</a>
</g>
</g>
<!-- 6272&#45;&gt;14672 -->
<g id="edge73" class="edge"><title>6272&#45;&gt;14672</title>
<path fill="none" stroke="black" d="M1779.11,-540.061C1803.68,-524.416 1841.65,-500.231 1865.32,-485.16"/>
</g>
<!-- 15246 -->
<g id="node62" class="node"><title>15246</title>
<g id="a_node62"><a xlink:title="Day_0">
<ellipse fill="#e5dada" stroke="black" cx="1656.07" cy="-776.994" rx="32.4942" ry="18"/>
<text text-anchor="middle" x="1656.07" y="-773.294" font-family="Times,serif" font-size="14.00">15246</text>
</a>
</g>
</g>
<!-- 6272&#45;&gt;15246 -->
<g id="edge51" class="edge"><title>6272&#45;&gt;15246</title>
<path fill="none" stroke="black" d="M1745.79,-576.488C1726.29,-620.07 1682.1,-718.821 1664.02,-759.241"/>
</g>
<!-- 15582 -->
<g id="node63" class="node"><title>15582</title>
<g id="a_node63"><a xlink:title="3rd_week">
<ellipse fill="#ee9898" stroke="black" cx="1673.46" cy="-300.928" rx="32.4942" ry="18"/>
<text text-anchor="middle" x="1673.46" y="-297.228" font-family="Times,serif" font-size="14.00">15582</text>
</a>
</g>
</g>
<!-- 6272&#45;&gt;15582 -->
<g id="edge12" class="edge"><title>6272&#45;&gt;15582</title>
<path fill="none" stroke="black" d="M1748.33,-533.542C1732.44,-484.177 1693.81,-364.174 1679.19,-318.749"/>
</g>
<!-- 17451 -->
<g id="node67" class="node"><title>17451</title>
<g id="a_node67"><a xlink:title="PRE">
<ellipse fill="#71a9f7" stroke="black" cx="1653.65" cy="-702.805" rx="32.4942" ry="18"/>
<text text-anchor="middle" x="1653.65" y="-699.105" font-family="Times,serif" font-size="14.00">17451</text>
</a>
</g>
</g>
<!-- 6272&#45;&gt;17451 -->
<g id="edge20" class="edge"><title>6272&#45;&gt;17451</title>
<path fill="none" stroke="black" d="M1741.38,-575.435C1721.26,-604.644 1684.4,-658.154 1665.51,-685.588"/>
</g>
<!-- 18401 -->
<g id="node69" class="node"><title>18401</title>
<g id="a_node69"><a xlink:title="PRE">
<ellipse fill="#71a9f7" stroke="black" cx="1319.66" cy="-517.454" rx="32.4942" ry="18"/>
<text text-anchor="middle" x="1319.66" y="-513.754" font-family="Times,serif" font-size="14.00">18401</text>
</a>
</g>
</g>
<!-- 6272&#45;&gt;18401 -->
<g id="edge74" class="edge"><title>6272&#45;&gt;18401</title>
<path fill="none" stroke="black" d="M1722.92,-552.415C1642.17,-545.414 1432.63,-527.248 1351.97,-520.254"/>
</g>
<!-- 21230 -->
<g id="node75" class="node"><title>21230</title>
<g id="a_node75"><a xlink:title="PRE">
<ellipse fill="#71a9f7" stroke="black" cx="1569.44" cy="-604.776" rx="32.4942" ry="18"/>
<text text-anchor="middle" x="1569.44" y="-601.076" font-family="Times,serif" font-size="14.00">21230</text>
</a>
</g>
</g>
<!-- 6272&#45;&gt;21230 -->
<g id="edge11" class="edge"><title>6272&#45;&gt;21230</title>
<path fill="none" stroke="black" d="M1724.61,-563.406C1689.76,-572.697 1633.3,-587.75 1598.94,-596.909"/>
</g>
<!-- 23784 -->
<g id="node76" class="node"><title>23784</title>
<g id="a_node76"><a xlink:title="PRE">
<ellipse fill="#71a9f7" stroke="black" cx="1632.65" cy="-398.665" rx="32.4942" ry="18"/>
<text text-anchor="middle" x="1632.65" y="-394.965" font-family="Times,serif" font-size="14.00">23784</text>
</a>
</g>
</g>
<!-- 6272&#45;&gt;23784 -->
<g id="edge32" class="edge"><title>6272&#45;&gt;23784</title>
<path fill="none" stroke="black" d="M1740.02,-535.712C1715.74,-504.727 1668.79,-444.795 1645.88,-415.547"/>
</g>
<!-- 24022 -->
<g id="node78" class="node"><title>24022</title>
<g id="a_node78"><a xlink:title="PRE">
<ellipse fill="#71a9f7" stroke="black" cx="1733.53" cy="-731.784" rx="32.4942" ry="18"/>
<text text-anchor="middle" x="1733.53" y="-728.084" font-family="Times,serif" font-size="14.00">24022</text>
</a>
</g>
</g>
<!-- 6272&#45;&gt;24022 -->
<g id="edge18" class="edge"><title>6272&#45;&gt;24022</title>
<path fill="none" stroke="black" d="M1752.59,-577.228C1748.24,-612.541 1739.77,-681.195 1735.75,-713.782"/>
</g>
<!-- 7989 -->
<g id="node31" class="node"><title>7989</title>
<g id="a_node31"><a xlink:title="PRE">
<ellipse fill="#71a9f7" stroke="black" cx="1427.17" cy="-322.334" rx="28.6953" ry="18"/>
<text text-anchor="middle" x="1427.17" y="-318.634" font-family="Times,serif" font-size="14.00">7989</text>
</a>
</g>
</g>
<!-- 6314&#45;&gt;7989 -->
<g id="edge45" class="edge"><title>6314&#45;&gt;7989</title>
<path fill="none" stroke="black" d="M1542.72,-419.617C1517.25,-398.169 1470.03,-358.418 1444.55,-336.968"/>
</g>
<!-- 14064 -->
<g id="node56" class="node"><title>14064</title>
<g id="a_node56"><a xlink:title="PRE">
<ellipse fill="#71a9f7" stroke="black" cx="1796.58" cy="-123.936" rx="32.4942" ry="18"/>
<text text-anchor="middle" x="1796.58" y="-120.236" font-family="Times,serif" font-size="14.00">14064</text>
</a>
</g>
</g>
<!-- 6926&#45;&gt;14064 -->
<g id="edge70" class="edge"><title>6926&#45;&gt;14064</title>
<path fill="none" stroke="black" d="M1774.26,-301.322C1778.94,-264.093 1789.64,-179.118 1794.32,-141.927"/>
</g>
<!-- 6997 -->
<g id="node26" class="node"><title>6997</title>
<g id="a_node26"><a xlink:title="PRE">
<ellipse fill="#71a9f7" stroke="black" cx="2394.01" cy="-1153.8" rx="28.6953" ry="18"/>
<text text-anchor="middle" x="2394.01" y="-1150.1" font-family="Times,serif" font-size="14.00">6997</text>
</a>
</g>
</g>
<!-- 6997&#45;&gt;8524 -->
<g id="edge36" class="edge"><title>6997&#45;&gt;8524</title>
<path fill="none" stroke="black" d="M2386.8,-1136.18C2374.07,-1105.06 2347.76,-1040.72 2335.04,-1009.62"/>
</g>
<!-- 11718 -->
<g id="node47" class="node"><title>11718</title>
<g id="a_node47"><a xlink:title="Day_0">
<ellipse fill="#e5dada" stroke="black" cx="2200.73" cy="-449.917" rx="32.4942" ry="18"/>
<text text-anchor="middle" x="2200.73" y="-446.217" font-family="Times,serif" font-size="14.00">11718</text>
</a>
</g>
</g>
<!-- 7172&#45;&gt;11718 -->
<g id="edge4" class="edge"><title>7172&#45;&gt;11718</title>
<path fill="none" stroke="black" d="M2034.65,-475.684C2070.24,-470.161 2131.8,-460.61 2169.15,-454.817"/>
</g>
<!-- 18840 -->
<g id="node71" class="node"><title>18840</title>
<g id="a_node71"><a xlink:title="Day_0">
<ellipse fill="#e5dada" stroke="black" cx="2180.74" cy="-386.056" rx="32.4942" ry="18"/>
<text text-anchor="middle" x="2180.74" y="-382.356" font-family="Times,serif" font-size="14.00">18840</text>
</a>
</g>
</g>
<!-- 7172&#45;&gt;18840 -->
<g id="edge2" class="edge"><title>7172&#45;&gt;18840</title>
<path fill="none" stroke="black" d="M2028.89,-468.096C2061.79,-450.323 2123.49,-416.984 2157.23,-398.755"/>
</g>
<!-- 7193 -->
<g id="node29" class="node"><title>7193</title>
<g id="a_node29"><a xlink:title="PRE">
<ellipse fill="#71a9f7" stroke="black" cx="279.157" cy="-509.054" rx="28.6953" ry="18"/>
<text text-anchor="middle" x="279.157" y="-505.354" font-family="Times,serif" font-size="14.00">7193</text>
</a>
</g>
</g>
<!-- 7193&#45;&gt;9157 -->
<g id="edge39" class="edge"><title>7193&#45;&gt;9157</title>
<path fill="none" stroke="black" d="M303.887,-499.506C342.12,-484.746 415.128,-456.559 453.17,-441.872"/>
</g>
<!-- 10261 -->
<g id="node43" class="node"><title>10261</title>
<g id="a_node43"><a xlink:title="PRE">
<ellipse fill="#71a9f7" stroke="black" cx="104.04" cy="-579.518" rx="32.4942" ry="18"/>
<text text-anchor="middle" x="104.04" y="-575.818" font-family="Times,serif" font-size="14.00">10261</text>
</a>
</g>
</g>
<!-- 7193&#45;&gt;10261 -->
<g id="edge29" class="edge"><title>7193&#45;&gt;10261</title>
<path fill="none" stroke="black" d="M254.808,-518.852C222.103,-532.012 164.205,-555.309 130.47,-568.883"/>
</g>
<!-- 7479 -->
<g id="node30" class="node"><title>7479</title>
<g id="a_node30"><a xlink:title="PRE">
<ellipse fill="#71a9f7" stroke="black" cx="2172.59" cy="-17.9392" rx="28.6953" ry="18"/>
<text text-anchor="middle" x="2172.59" y="-14.2392" font-family="Times,serif" font-size="14.00">7479</text>
</a>
</g>
</g>
<!-- 7479&#45;&gt;10673 -->
<g id="edge3" class="edge"><title>7479&#45;&gt;10673</title>
<path fill="none" stroke="black" d="M2159.73,-34.2018C2137.93,-61.7515 2093.97,-117.325 2071.85,-145.281"/>
</g>
<!-- 8147 -->
<g id="node33" class="node"><title>8147</title>
<g id="a_node33"><a xlink:title="PRE">
<ellipse fill="#71a9f7" stroke="black" cx="357.975" cy="-55.7037" rx="28.6953" ry="18"/>
<text text-anchor="middle" x="357.975" y="-52.0037" font-family="Times,serif" font-size="14.00">8147</text>
</a>
</g>
</g>
<!-- 9880 -->
<g id="node41" class="node"><title>9880</title>
<g id="a_node41"><a xlink:title="PRE">
<ellipse fill="#71a9f7" stroke="black" cx="415.663" cy="-226.137" rx="28.6953" ry="18"/>
<text text-anchor="middle" x="415.663" y="-222.437" font-family="Times,serif" font-size="14.00">9880</text>
</a>
</g>
</g>
<!-- 8147&#45;&gt;9880 -->
<g id="edge22" class="edge"><title>8147&#45;&gt;9880</title>
<path fill="none" stroke="black" d="M364.04,-73.6209C375.148,-106.44 398.632,-175.821 409.68,-208.46"/>
</g>
<!-- 23909 -->
<g id="node77" class="node"><title>23909</title>
<g id="a_node77"><a xlink:title="PRE">
<ellipse fill="#71a9f7" stroke="black" cx="1448.99" cy="-833.242" rx="32.4942" ry="18"/>
<text text-anchor="middle" x="1448.99" y="-829.542" font-family="Times,serif" font-size="14.00">23909</text>
</a>
</g>
</g>
<!-- 8191&#45;&gt;23909 -->
<g id="edge23" class="edge"><title>8191&#45;&gt;23909</title>
<path fill="none" stroke="black" d="M1560.73,-720.996C1536.44,-745.397 1489.34,-792.708 1464.77,-817.39"/>
</g>
<!-- 8381 -->
<g id="node35" class="node"><title>8381</title>
<g id="a_node35"><a xlink:title="PRE">
<ellipse fill="#71a9f7" stroke="black" cx="530.832" cy="-288.001" rx="28.6953" ry="18"/>
<text text-anchor="middle" x="530.832" y="-284.301" font-family="Times,serif" font-size="14.00">8381</text>
</a>
</g>
</g>
<!-- 8381&#45;&gt;9157 -->
<g id="edge77" class="edge"><title>8381&#45;&gt;9157</title>
<path fill="none" stroke="black" d="M524.303,-305.713C514.085,-333.435 494.423,-386.776 484.171,-414.588"/>
</g>
<!-- 8409 -->
<g id="node36" class="node"><title>8409</title>
<g id="a_node36"><a xlink:title="PRE">
<ellipse fill="#71a9f7" stroke="black" cx="2438.52" cy="-1108.88" rx="28.6953" ry="18"/>
<text text-anchor="middle" x="2438.52" y="-1105.18" font-family="Times,serif" font-size="14.00">8409</text>
</a>
</g>
</g>
<!-- 8409&#45;&gt;8524 -->
<g id="edge50" class="edge"><title>8409&#45;&gt;8524</title>
<path fill="none" stroke="black" d="M2423.59,-1093.12C2402.35,-1070.69 2363.64,-1029.82 2342.53,-1007.53"/>
</g>
<!-- 8642 -->
<g id="node38" class="node"><title>8642</title>
<g id="a_node38"><a xlink:title="PRE">
<ellipse fill="#71a9f7" stroke="black" cx="2328.23" cy="-1157.6" rx="28.6953" ry="18"/>
<text text-anchor="middle" x="2328.23" y="-1153.9" font-family="Times,serif" font-size="14.00">8642</text>
</a>
</g>
</g>
<!-- 8524&#45;&gt;8642 -->
<g id="edge49" class="edge"><title>8524&#45;&gt;8642</title>
<path fill="none" stroke="black" d="M2327.89,-1010.05C2327.96,-1041.9 2328.12,-1107.75 2328.19,-1139.59"/>
</g>
<!-- 8524&#45;&gt;9096 -->
<g id="edge43" class="edge"><title>8524&#45;&gt;9096</title>
<path fill="none" stroke="black" d="M2346.67,-1006.01C2384.29,-1033.98 2468.36,-1096.46 2505.7,-1124.22"/>
</g>
<!-- 12848 -->
<g id="node52" class="node"><title>12848</title>
<g id="a_node52"><a xlink:title="PRE">
<ellipse fill="#71a9f7" stroke="black" cx="2483.5" cy="-1061.81" rx="32.4942" ry="18"/>
<text text-anchor="middle" x="2483.5" y="-1058.11" font-family="Times,serif" font-size="14.00">12848</text>
</a>
</g>
</g>
<!-- 8524&#45;&gt;12848 -->
<g id="edge79" class="edge"><title>8524&#45;&gt;12848</title>
<path fill="none" stroke="black" d="M2351.15,-1002.46C2379.9,-1015.35 2428.6,-1037.19 2458.22,-1050.47"/>
</g>
<!-- 16705 -->
<g id="node65" class="node"><title>16705</title>
<g id="a_node65"><a xlink:title="PRE">
<ellipse fill="#71a9f7" stroke="black" cx="2505.27" cy="-1007.04" rx="32.4942" ry="18"/>
<text text-anchor="middle" x="2505.27" y="-1003.34" font-family="Times,serif" font-size="14.00">16705</text>
</a>
</g>
</g>
<!-- 8524&#45;&gt;16705 -->
<g id="edge25" class="edge"><title>8524&#45;&gt;16705</title>
<path fill="none" stroke="black" d="M2356.35,-994.43C2388.18,-997.127 2439.61,-1001.48 2472.92,-1004.3"/>
</g>
<!-- 1013 -->
<g id="node82" class="node"><title>1013</title>
<g id="a_node82"><a xlink:title="3rd_week">
<ellipse fill="#ee9898" stroke="black" cx="2645.26" cy="-1275.3" rx="28.6953" ry="18"/>
<text text-anchor="middle" x="2645.26" y="-1271.6" font-family="Times,serif" font-size="14.00">1013</text>
</a>
</g>
</g>
<!-- 9096&#45;&gt;1013 -->
<g id="edge40" class="edge"><title>9096&#45;&gt;1013</title>
<path fill="none" stroke="black" d="M2538.07,-1153.71C2561.3,-1180.06 2607.79,-1232.8 2631.16,-1259.31"/>
</g>
<!-- 9157&#45;&gt;9880 -->
<g id="edge26" class="edge"><title>9157&#45;&gt;9880</title>
<path fill="none" stroke="black" d="M472.202,-414.497C460.461,-375.381 432.683,-282.84 420.994,-243.896"/>
</g>
<!-- 9157&#45;&gt;10032 -->
<g id="edge63" class="edge"><title>9157&#45;&gt;10032</title>
<path fill="none" stroke="black" d="M468.914,-449.825C450.054,-487.609 405.499,-576.873 386.594,-614.75"/>
</g>
<!-- 12211 -->
<g id="node49" class="node"><title>12211</title>
<g id="a_node49"><a xlink:title="PRE">
<ellipse fill="#71a9f7" stroke="black" cx="456.645" cy="-594.606" rx="32.4942" ry="18"/>
<text text-anchor="middle" x="456.645" y="-590.906" font-family="Times,serif" font-size="14.00">12211</text>
</a>
</g>
</g>
<!-- 9157&#45;&gt;12211 -->
<g id="edge15" class="edge"><title>9157&#45;&gt;12211</title>
<path fill="none" stroke="black" d="M475.268,-450.418C471.242,-481.589 463.01,-545.325 458.976,-576.551"/>
</g>
<!-- 13210 -->
<g id="node53" class="node"><title>13210</title>
<g id="a_node53"><a xlink:title="PRE">
<ellipse fill="#71a9f7" stroke="black" cx="332.194" cy="-420.853" rx="32.4942" ry="18"/>
<text text-anchor="middle" x="332.194" y="-417.153" font-family="Times,serif" font-size="14.00">13210</text>
</a>
</g>
</g>
<!-- 9157&#45;&gt;13210 -->
<g id="edge56" class="edge"><title>9157&#45;&gt;13210</title>
<path fill="none" stroke="black" d="M449.21,-430.182C424.913,-428.245 389.936,-425.456 364.556,-423.433"/>
</g>
<!-- 14422 -->
<g id="node58" class="node"><title>14422</title>
<g id="a_node58"><a xlink:title="PRE">
<ellipse fill="#71a9f7" stroke="black" cx="280.157" cy="-351.342" rx="32.4942" ry="18"/>
<text text-anchor="middle" x="280.157" y="-347.642" font-family="Times,serif" font-size="14.00">14422</text>
</a>
</g>
</g>
<!-- 9157&#45;&gt;14422 -->
<g id="edge82" class="edge"><title>9157&#45;&gt;14422</title>
<path fill="none" stroke="black" d="M453.38,-422.499C416.105,-407.188 344.946,-377.957 306.451,-362.144"/>
</g>
<!-- 9157&#45;&gt;17462 -->
<g id="edge81" class="edge"><title>9157&#45;&gt;17462</title>
<path fill="none" stroke="black" d="M462.13,-416.962C429.24,-384.022 352.619,-307.286 319.319,-273.935"/>
</g>
<!-- 18532 -->
<g id="node70" class="node"><title>18532</title>
<g id="a_node70"><a xlink:title="PRE">
<ellipse fill="#71a9f7" stroke="black" cx="377.994" cy="-323.039" rx="32.4942" ry="18"/>
<text text-anchor="middle" x="377.994" y="-319.339" font-family="Times,serif" font-size="14.00">18532</text>
</a>
</g>
</g>
<!-- 9157&#45;&gt;18532 -->
<g id="edge44" class="edge"><title>9157&#45;&gt;18532</title>
<path fill="none" stroke="black" d="M463.32,-416.769C444.602,-396.207 411.91,-360.296 392.888,-339.399"/>
</g>
<!-- 20937 -->
<g id="node73" class="node"><title>20937</title>
<g id="a_node73"><a xlink:title="PRE">
<ellipse fill="#71a9f7" stroke="black" cx="892.893" cy="-474.576" rx="32.4942" ry="18"/>
<text text-anchor="middle" x="892.893" y="-470.876" font-family="Times,serif" font-size="14.00">20937</text>
</a>
</g>
</g>
<!-- 9157&#45;&gt;20937 -->
<g id="edge61" class="edge"><title>9157&#45;&gt;20937</title>
<path fill="none" stroke="black" d="M506.135,-435.34C580.905,-442.925 782.105,-463.337 860.758,-471.316"/>
</g>
<!-- 24211 -->
<g id="node79" class="node"><title>24211</title>
<g id="a_node79"><a xlink:title="PRE">
<ellipse fill="#71a9f7" stroke="black" cx="461.38" cy="-281.516" rx="32.4942" ry="18"/>
<text text-anchor="middle" x="461.38" y="-277.816" font-family="Times,serif" font-size="14.00">24211</text>
</a>
</g>
</g>
<!-- 9157&#45;&gt;24211 -->
<g id="edge71" class="edge"><title>9157&#45;&gt;24211</title>
<path fill="none" stroke="black" d="M475.634,-414.239C472.518,-385.23 466.462,-328.836 463.342,-299.786"/>
</g>
<!-- 24702 -->
<g id="node80" class="node"><title>24702</title>
<g id="a_node80"><a xlink:title="PRE">
<ellipse fill="#71a9f7" stroke="black" cx="224.441" cy="-433.863" rx="32.4942" ry="18"/>
<text text-anchor="middle" x="224.441" y="-430.163" font-family="Times,serif" font-size="14.00">24702</text>
</a>
</g>
</g>
<!-- 9157&#45;&gt;24702 -->
<g id="edge27" class="edge"><title>9157&#45;&gt;24702</title>
<path fill="none" stroke="black" d="M448.55,-432.607C401.017,-432.873 306.921,-433.4 257.122,-433.679"/>
</g>
<!-- 11608 -->
<g id="node46" class="node"><title>11608</title>
<g id="a_node46"><a xlink:title="Day_0">
<ellipse fill="#e5dada" stroke="black" cx="1588.62" cy="-954.024" rx="32.4942" ry="18"/>
<text text-anchor="middle" x="1588.62" y="-950.324" font-family="Times,serif" font-size="14.00">11608</text>
</a>
</g>
</g>
<!-- 11608&#45;&gt;15246 -->
<g id="edge17" class="edge"><title>11608&#45;&gt;15246</title>
<path fill="none" stroke="black" d="M1595.33,-936.402C1608.23,-902.557 1636.33,-828.803 1649.29,-794.807"/>
</g>
<!-- 13346 -->
<g id="node54" class="node"><title>13346</title>
<g id="a_node54"><a xlink:title="PRE">
<ellipse fill="#71a9f7" stroke="black" cx="141.976" cy="-149.873" rx="32.4942" ry="18"/>
<text text-anchor="middle" x="141.976" y="-146.173" font-family="Times,serif" font-size="14.00">13346</text>
</a>
</g>
</g>
<!-- 13346&#45;&gt;17462 -->
<g id="edge64" class="edge"><title>13346&#45;&gt;17462</title>
<path fill="none" stroke="black" d="M162.748,-163.785C193.657,-184.487 251.434,-223.184 282.444,-243.954"/>
</g>
<!-- 16580 -->
<g id="node64" class="node"><title>16580</title>
<g id="a_node64"><a xlink:title="PRE">
<ellipse fill="#71a9f7" stroke="black" cx="2191.85" cy="-678.445" rx="32.4942" ry="18"/>
<text text-anchor="middle" x="2191.85" y="-674.745" font-family="Times,serif" font-size="14.00">16580</text>
</a>
</g>
</g>
<!-- 13455&#45;&gt;16580 -->
<g id="edge9" class="edge"><title>13455&#45;&gt;16580</title>
<path fill="none" stroke="black" d="M2036.99,-619.598C2071.34,-632.65 2130.53,-655.146 2164.93,-668.217"/>
</g>
<!-- 670 -->
<g id="node81" class="node"><title>670</title>
<g id="a_node81"><a xlink:title="PRE">
<ellipse fill="#71a9f7" stroke="black" cx="2200.45" cy="-604.939" rx="27" ry="18"/>
<text text-anchor="middle" x="2200.45" y="-601.239" font-family="Times,serif" font-size="14.00">670</text>
</a>
</g>
</g>
<!-- 13455&#45;&gt;670 -->
<g id="edge34" class="edge"><title>13455&#45;&gt;670</title>
<path fill="none" stroke="black" d="M2042.89,-608.643C2079.76,-607.777 2139.03,-606.383 2173.4,-605.575"/>
</g>
<!-- 19001 -->
<g id="node72" class="node"><title>19001</title>
<g id="a_node72"><a xlink:title="Day_0">
<ellipse fill="#e5dada" stroke="black" cx="101.876" cy="-278.534" rx="32.4942" ry="18"/>
<text text-anchor="middle" x="101.876" y="-274.834" font-family="Times,serif" font-size="14.00">19001</text>
</a>
</g>
</g>
<!-- 14422&#45;&gt;19001 -->
<g id="edge1" class="edge"><title>14422&#45;&gt;19001</title>
<path fill="none" stroke="black" d="M253.851,-340.599C220.144,-326.834 162.049,-303.108 128.29,-289.322"/>
</g>
<!-- 15073 -->
<g id="node61" class="node"><title>15073</title>
<g id="a_node61"><a xlink:title="PRE">
<ellipse fill="#71a9f7" stroke="black" cx="32.8413" cy="-396.293" rx="32.4942" ry="18"/>
<text text-anchor="middle" x="32.8413" y="-392.593" font-family="Times,serif" font-size="14.00">15073</text>
</a>
</g>
</g>
<!-- 15073&#45;&gt;24702 -->
<g id="edge80" class="edge"><title>15073&#45;&gt;24702</title>
<path fill="none" stroke="black" d="M63.625,-402.329C99.3796,-409.34 158.011,-420.837 193.733,-427.841"/>
</g>
<!-- 21066 -->
<g id="node74" class="node"><title>21066</title>
<g id="a_node74"><a xlink:title="3rd_week">
<ellipse fill="#ee9898" stroke="black" cx="1659.79" cy="-102.596" rx="32.4942" ry="18"/>
<text text-anchor="middle" x="1659.79" y="-98.8963" font-family="Times,serif" font-size="14.00">21066</text>
</a>
</g>
</g>
<!-- 15582&#45;&gt;21066 -->
<g id="edge76" class="edge"><title>15582&#45;&gt;21066</title>
<path fill="none" stroke="black" d="M1672.2,-282.625C1669.59,-244.842 1663.65,-158.6 1661.05,-120.855"/>
</g>
<!-- 12444 -->
<g id="node84" class="node"><title>12444</title>
<g id="a_node84"><a xlink:title="PRE">
<ellipse fill="#71a9f7" stroke="black" cx="1585.71" cy="-126.022" rx="32.4942" ry="18"/>
<text text-anchor="middle" x="1585.71" y="-122.322" font-family="Times,serif" font-size="14.00">12444</text>
</a>
</g>
</g>
<!-- 15582&#45;&gt;12444 -->
<g id="edge47" class="edge"><title>15582&#45;&gt;12444</title>
<path fill="none" stroke="black" d="M1664.72,-283.518C1647.95,-250.078 1611.39,-177.209 1594.54,-143.621"/>
</g>
<!-- 16835 -->
<g id="node66" class="node"><title>16835</title>
<g id="a_node66"><a xlink:title="PRE">
<ellipse fill="#71a9f7" stroke="black" cx="32.1597" cy="-468.034" rx="32.4942" ry="18"/>
<text text-anchor="middle" x="32.1597" y="-464.334" font-family="Times,serif" font-size="14.00">16835</text>
</a>
</g>
</g>
<!-- 16835&#45;&gt;24702 -->
<g id="edge48" class="edge"><title>16835&#45;&gt;24702</title>
<path fill="none" stroke="black" d="M63.4809,-462.468C99.3432,-456.094 157.729,-445.718 193.451,-439.37"/>
</g>
<!-- 18401&#45;&gt;20937 -->
<g id="edge28" class="edge"><title>18401&#45;&gt;20937</title>
<path fill="none" stroke="black" d="M1287.59,-514.231C1208.4,-506.275 1004.32,-485.772 925.051,-477.807"/>
</g>
</g>
</svg>
