<?xml version="1.0" encoding="UTF-8" standalone="no"?>
<!DOCTYPE svg PUBLIC "-//W3C//DTD SVG 1.1//EN"
 "http://www.w3.org/Graphics/SVG/1.1/DTD/svg11.dtd">
<!-- Generated by graphviz version 2.38.0 (20140413.2041)
 -->
<!-- Title: %3 Pages: 1 -->
<svg width="1669pt" height="1255pt"
 viewBox="0.00 0.00 1669.00 1255.00" xmlns="http://www.w3.org/2000/svg" xmlns:xlink="http://www.w3.org/1999/xlink">
<g id="graph0" class="graph" transform="scale(1 1) rotate(0) translate(4 1251)">
<title>%3</title>
<polygon fill="white" stroke="none" points="-4,4 -4,-1251 1665,-1251 1665,4 -4,4"/>
<!-- 5 -->
<g id="node1" class="node"><title>5</title>
<g id="a_node1"><a xlink:title="3rd_week">
<ellipse fill="#ee9898" stroke="black" cx="660.671" cy="-778.216" rx="27" ry="18"/>
<text text-anchor="middle" x="660.671" y="-774.516" font-family="Times,serif" font-size="14.00">5</text>
</a>
</g>
</g>
<!-- 4486 -->
<g id="node15" class="node"><title>4486</title>
<g id="a_node15"><a xlink:title="3rd_week">
<ellipse fill="#ee9898" stroke="black" cx="817.936" cy="-778.138" rx="28.6953" ry="18"/>
<text text-anchor="middle" x="817.936" y="-774.438" font-family="Times,serif" font-size="14.00">4486</text>
</a>
</g>
</g>
<!-- 5&#45;&gt;4486 -->
<g id="edge1" class="edge"><title>5&#45;&gt;4486</title>
<path fill="none" stroke="black" d="M687.706,-778.203C715.984,-778.189 760.203,-778.167 789.127,-778.153"/>
</g>
<!-- 24 -->
<g id="node2" class="node"><title>24</title>
<g id="a_node2"><a xlink:title="3rd_week">
<ellipse fill="#ee9898" stroke="black" cx="772.329" cy="-1212.48" rx="27" ry="18"/>
<text text-anchor="middle" x="772.329" y="-1208.78" font-family="Times,serif" font-size="14.00">24</text>
</a>
</g>
</g>
<!-- 11869 -->
<g id="node42" class="node"><title>11869</title>
<g id="a_node42"><a xlink:title="3rd_week">
<ellipse fill="#ee9898" stroke="black" cx="766.009" cy="-1036.58" rx="32.4942" ry="18"/>
<text text-anchor="middle" x="766.009" y="-1032.88" font-family="Times,serif" font-size="14.00">11869</text>
</a>
</g>
</g>
<!-- 24&#45;&gt;11869 -->
<g id="edge49" class="edge"><title>24&#45;&gt;11869</title>
<path fill="none" stroke="black" d="M771.676,-1194.32C770.462,-1160.53 767.869,-1088.36 766.658,-1054.65"/>
</g>
<!-- 402 -->
<g id="node3" class="node"><title>402</title>
<g id="a_node3"><a xlink:title="3rd_week">
<ellipse fill="#ee9898" stroke="black" cx="612.573" cy="-266.477" rx="27" ry="18"/>
<text text-anchor="middle" x="612.573" y="-262.777" font-family="Times,serif" font-size="14.00">402</text>
</a>
</g>
</g>
<!-- 15280 -->
<g id="node51" class="node"><title>15280</title>
<g id="a_node51"><a xlink:title="3rd_week">
<ellipse fill="#ee9898" stroke="black" cx="740.57" cy="-442.199" rx="32.4942" ry="18"/>
<text text-anchor="middle" x="740.57" y="-438.499" font-family="Times,serif" font-size="14.00">15280</text>
</a>
</g>
</g>
<!-- 402&#45;&gt;15280 -->
<g id="edge39" class="edge"><title>402&#45;&gt;15280</title>
<path fill="none" stroke="black" d="M624.385,-282.693C648.584,-315.914 703.581,-391.418 728.224,-425.25"/>
</g>
<!-- 6249 -->
<g id="node54" class="node"><title>6249</title>
<g id="a_node54"><a xlink:title="3rd_week">
<ellipse fill="#ee9898" stroke="black" cx="505.675" cy="-92.0184" rx="28.6953" ry="18"/>
<text text-anchor="middle" x="505.675" y="-88.3184" font-family="Times,serif" font-size="14.00">6249</text>
</a>
</g>
</g>
<!-- 402&#45;&gt;6249 -->
<g id="edge15" class="edge"><title>402&#45;&gt;6249</title>
<path fill="none" stroke="black" d="M602.323,-249.749C581.943,-216.488 536.534,-142.38 516.051,-108.952"/>
</g>
<!-- 440 -->
<g id="node4" class="node"><title>440</title>
<g id="a_node4"><a xlink:title="3rd_week">
<ellipse fill="#ee9898" stroke="black" cx="447.712" cy="-1093.91" rx="27" ry="18"/>
<text text-anchor="middle" x="447.712" y="-1090.21" font-family="Times,serif" font-size="14.00">440</text>
</a>
</g>
</g>
<!-- 15833 -->
<g id="node53" class="node"><title>15833</title>
<g id="a_node53"><a xlink:title="3rd_week">
<ellipse fill="#ee9898" stroke="black" cx="448.432" cy="-927.407" rx="32.4942" ry="18"/>
<text text-anchor="middle" x="448.432" y="-923.707" font-family="Times,serif" font-size="14.00">15833</text>
</a>
</g>
</g>
<!-- 440&#45;&gt;15833 -->
<g id="edge7" class="edge"><title>440&#45;&gt;15833</title>
<path fill="none" stroke="black" d="M447.791,-1075.78C447.929,-1043.75 448.216,-977.533 448.354,-945.521"/>
</g>
<!-- 609 -->
<g id="node5" class="node"><title>609</title>
<g id="a_node5"><a xlink:title="3rd_week">
<ellipse fill="#ee9898" stroke="black" cx="1287.94" cy="-569.974" rx="27" ry="18"/>
<text text-anchor="middle" x="1287.94" y="-566.274" font-family="Times,serif" font-size="14.00">609</text>
</a>
</g>
</g>
<!-- 7027 -->
<g id="node25" class="node"><title>7027</title>
<g id="a_node25"><a xlink:title="3rd_week">
<ellipse fill="#ee9898" stroke="black" cx="1193.14" cy="-764.132" rx="28.6953" ry="18"/>
<text text-anchor="middle" x="1193.14" y="-760.432" font-family="Times,serif" font-size="14.00">7027</text>
</a>
</g>
</g>
<!-- 609&#45;&gt;7027 -->
<g id="edge3" class="edge"><title>609&#45;&gt;7027</title>
<path fill="none" stroke="black" d="M1279.53,-587.204C1261.58,-623.956 1219.72,-709.697 1201.67,-746.662"/>
</g>
<!-- 1511 -->
<g id="node6" class="node"><title>1511</title>
<g id="a_node6"><a xlink:title="3rd_week">
<ellipse fill="#ee9898" stroke="black" cx="1358.5" cy="-617.951" rx="28.6953" ry="18"/>
<text text-anchor="middle" x="1358.5" y="-614.251" font-family="Times,serif" font-size="14.00">1511</text>
</a>
</g>
</g>
<!-- 1511&#45;&gt;7027 -->
<g id="edge46" class="edge"><title>1511&#45;&gt;7027</title>
<path fill="none" stroke="black" d="M1341.73,-632.772C1310.04,-660.79 1241.68,-721.224 1209.95,-749.272"/>
</g>
<!-- 1660 -->
<g id="node7" class="node"><title>1660</title>
<g id="a_node7"><a xlink:title="3rd_week">
<ellipse fill="#ee9898" stroke="black" cx="29.0413" cy="-1018.49" rx="28.6953" ry="18"/>
<text text-anchor="middle" x="29.0413" y="-1014.79" font-family="Times,serif" font-size="14.00">1660</text>
</a>
</g>
</g>
<!-- 2937 -->
<g id="node12" class="node"><title>2937</title>
<g id="a_node12"><a xlink:title="3rd_week">
<ellipse fill="#ee9898" stroke="black" cx="202.66" cy="-974.916" rx="28.6953" ry="18"/>
<text text-anchor="middle" x="202.66" y="-971.216" font-family="Times,serif" font-size="14.00">2937</text>
</a>
</g>
</g>
<!-- 1660&#45;&gt;2937 -->
<g id="edge18" class="edge"><title>1660&#45;&gt;2937</title>
<path fill="none" stroke="black" d="M55.7887,-1011.78C88.4148,-1003.59 143.242,-989.829 175.882,-981.637"/>
</g>
<!-- 1930 -->
<g id="node8" class="node"><title>1930</title>
<g id="a_node8"><a xlink:title="3rd_week">
<ellipse fill="#ee9898" stroke="black" cx="685.226" cy="-297.419" rx="28.6953" ry="18"/>
<text text-anchor="middle" x="685.226" y="-293.719" font-family="Times,serif" font-size="14.00">1930</text>
</a>
</g>
</g>
<!-- 1930&#45;&gt;15280 -->
<g id="edge23" class="edge"><title>1930&#45;&gt;15280</title>
<path fill="none" stroke="black" d="M692.012,-315.172C702.634,-342.959 723.072,-396.424 733.728,-424.301"/>
</g>
<!-- 2092 -->
<g id="node9" class="node"><title>2092</title>
<g id="a_node9"><a xlink:title="3rd_week">
<ellipse fill="#ee9898" stroke="black" cx="737.908" cy="-18.1778" rx="28.6953" ry="18"/>
<text text-anchor="middle" x="737.908" y="-14.4778" font-family="Times,serif" font-size="14.00">2092</text>
</a>
</g>
</g>
<!-- 7628 -->
<g id="node29" class="node"><title>7628</title>
<g id="a_node29"><a xlink:title="3rd_week">
<ellipse fill="#ee9898" stroke="black" cx="739.79" cy="-223.115" rx="28.6953" ry="18"/>
<text text-anchor="middle" x="739.79" y="-219.415" font-family="Times,serif" font-size="14.00">7628</text>
</a>
</g>
</g>
<!-- 2092&#45;&gt;7628 -->
<g id="edge34" class="edge"><title>2092&#45;&gt;7628</title>
<path fill="none" stroke="black" d="M738.075,-36.3647C738.432,-75.255 739.266,-166.115 739.623,-204.969"/>
</g>
<!-- 2613 -->
<g id="node10" class="node"><title>2613</title>
<g id="a_node10"><a xlink:title="3rd_week">
<ellipse fill="#ee9898" stroke="black" cx="277.212" cy="-992.592" rx="28.6953" ry="18"/>
<text text-anchor="middle" x="277.212" y="-988.892" font-family="Times,serif" font-size="14.00">2613</text>
</a>
</g>
</g>
<!-- 2613&#45;&gt;15833 -->
<g id="edge29" class="edge"><title>2613&#45;&gt;15833</title>
<path fill="none" stroke="black" d="M301.743,-983.252C333.46,-971.178 388.515,-950.218 421.404,-937.697"/>
</g>
<!-- 2784 -->
<g id="node11" class="node"><title>2784</title>
<g id="a_node11"><a xlink:title="3rd_week">
<ellipse fill="#ee9898" stroke="black" cx="1233.81" cy="-926.674" rx="28.6953" ry="18"/>
<text text-anchor="middle" x="1233.81" y="-922.974" font-family="Times,serif" font-size="14.00">2784</text>
</a>
</g>
</g>
<!-- 2784&#45;&gt;7027 -->
<g id="edge28" class="edge"><title>2784&#45;&gt;7027</title>
<path fill="none" stroke="black" d="M1229.3,-908.658C1221.48,-877.414 1205.5,-813.529 1197.67,-782.229"/>
</g>
<!-- 2937&#45;&gt;15833 -->
<g id="edge52" class="edge"><title>2937&#45;&gt;15833</title>
<path fill="none" stroke="black" d="M230.375,-969.559C276.699,-960.604 369.513,-942.663 417.745,-933.339"/>
</g>
<!-- 4260 -->
<g id="node13" class="node"><title>4260</title>
<g id="a_node13"><a xlink:title="3rd_week">
<ellipse fill="#ee9898" stroke="black" cx="864.191" cy="-926.231" rx="28.6953" ry="18"/>
<text text-anchor="middle" x="864.191" y="-922.531" font-family="Times,serif" font-size="14.00">4260</text>
</a>
</g>
</g>
<!-- 4260&#45;&gt;4486 -->
<g id="edge32" class="edge"><title>4260&#45;&gt;4486</title>
<path fill="none" stroke="black" d="M858.612,-908.368C849.721,-879.903 832.438,-824.569 823.535,-796.065"/>
</g>
<!-- 4348 -->
<g id="node14" class="node"><title>4348</title>
<g id="a_node14"><a xlink:title="3rd_week">
<ellipse fill="#ee9898" stroke="black" cx="710.098" cy="-897.231" rx="28.6953" ry="18"/>
<text text-anchor="middle" x="710.098" y="-893.531" font-family="Times,serif" font-size="14.00">4348</text>
</a>
</g>
</g>
<!-- 4348&#45;&gt;4486 -->
<g id="edge31" class="edge"><title>4348&#45;&gt;4486</title>
<path fill="none" stroke="black" d="M724.641,-881.169C745.338,-858.313 783.053,-816.661 803.623,-793.945"/>
</g>
<!-- 4896 -->
<g id="node17" class="node"><title>4896</title>
<g id="a_node17"><a xlink:title="3rd_week">
<ellipse fill="#ee9898" stroke="black" cx="934.49" cy="-696.377" rx="28.6953" ry="18"/>
<text text-anchor="middle" x="934.49" y="-692.677" font-family="Times,serif" font-size="14.00">4896</text>
</a>
</g>
</g>
<!-- 4486&#45;&gt;4896 -->
<g id="edge33" class="edge"><title>4486&#45;&gt;4896</title>
<path fill="none" stroke="black" d="M837.183,-764.637C858.778,-749.488 893.607,-725.055 915.214,-709.898"/>
</g>
<!-- 6580 -->
<g id="node24" class="node"><title>6580</title>
<g id="a_node24"><a xlink:title="3rd_week">
<ellipse fill="#ee9898" stroke="black" cx="861.974" cy="-635.53" rx="28.6953" ry="18"/>
<text text-anchor="middle" x="861.974" y="-631.83" font-family="Times,serif" font-size="14.00">6580</text>
</a>
</g>
</g>
<!-- 4486&#45;&gt;6580 -->
<g id="edge42" class="edge"><title>4486&#45;&gt;6580</title>
<path fill="none" stroke="black" d="M823.424,-760.365C831.863,-733.038 847.936,-680.989 856.417,-653.527"/>
</g>
<!-- 4486&#45;&gt;7027 -->
<g id="edge51" class="edge"><title>4486&#45;&gt;7027</title>
<path fill="none" stroke="black" d="M846.755,-777.062C916.682,-774.452 1094.72,-767.806 1164.48,-765.202"/>
</g>
<!-- 7365 -->
<g id="node27" class="node"><title>7365</title>
<g id="a_node27"><a xlink:title="3rd_week">
<ellipse fill="#ee9898" stroke="black" cx="764.402" cy="-638.691" rx="28.6953" ry="18"/>
<text text-anchor="middle" x="764.402" y="-634.991" font-family="Times,serif" font-size="14.00">7365</text>
</a>
</g>
</g>
<!-- 4486&#45;&gt;7365 -->
<g id="edge50" class="edge"><title>4486&#45;&gt;7365</title>
<path fill="none" stroke="black" d="M811.156,-760.477C800.858,-733.654 781.392,-682.947 771.127,-656.209"/>
</g>
<!-- 9299 -->
<g id="node33" class="node"><title>9299</title>
<g id="a_node33"><a xlink:title="3rd_week">
<ellipse fill="#ee9898" stroke="black" cx="952.132" cy="-841.245" rx="28.6953" ry="18"/>
<text text-anchor="middle" x="952.132" y="-837.545" font-family="Times,serif" font-size="14.00">9299</text>
</a>
</g>
</g>
<!-- 4486&#45;&gt;9299 -->
<g id="edge40" class="edge"><title>4486&#45;&gt;9299</title>
<path fill="none" stroke="black" d="M841.005,-788.987C865.585,-800.546 904.279,-818.742 928.915,-830.327"/>
</g>
<!-- 10798 -->
<g id="node37" class="node"><title>10798</title>
<g id="a_node37"><a xlink:title="3rd_week">
<ellipse fill="#ee9898" stroke="black" cx="680.631" cy="-682.683" rx="32.4942" ry="18"/>
<text text-anchor="middle" x="680.631" y="-678.983" font-family="Times,serif" font-size="14.00">10798</text>
</a>
</g>
</g>
<!-- 4486&#45;&gt;10798 -->
<g id="edge10" class="edge"><title>4486&#45;&gt;10798</title>
<path fill="none" stroke="black" d="M798.555,-764.664C772.83,-746.78 727.597,-715.334 701.259,-697.023"/>
</g>
<!-- 4486&#45;&gt;11869 -->
<g id="edge13" class="edge"><title>4486&#45;&gt;11869</title>
<path fill="none" stroke="black" d="M814.285,-796.312C804.75,-843.764 779.186,-970.999 769.656,-1018.43"/>
</g>
<!-- 4486&#45;&gt;15280 -->
<g id="edge41" class="edge"><title>4486&#45;&gt;15280</title>
<path fill="none" stroke="black" d="M813.777,-760.077C800.343,-701.746 758.212,-518.807 744.75,-460.349"/>
</g>
<!-- 15634 -->
<g id="node52" class="node"><title>15634</title>
<g id="a_node52"><a xlink:title="3rd_week">
<ellipse fill="#ee9898" stroke="black" cx="929.008" cy="-1047.53" rx="32.4942" ry="18"/>
<text text-anchor="middle" x="929.008" y="-1043.83" font-family="Times,serif" font-size="14.00">15634</text>
</a>
</g>
</g>
<!-- 4486&#45;&gt;15634 -->
<g id="edge20" class="edge"><title>4486&#45;&gt;15634</title>
<path fill="none" stroke="black" d="M825.224,-795.814C845.349,-844.627 901.536,-980.903 921.694,-1029.79"/>
</g>
<!-- 4486&#45;&gt;15833 -->
<g id="edge22" class="edge"><title>4486&#45;&gt;15833</title>
<path fill="none" stroke="black" d="M793.692,-787.932C727.382,-814.719 543.399,-889.043 474.729,-916.784"/>
</g>
<!-- 4575 -->
<g id="node16" class="node"><title>4575</title>
<g id="a_node16"><a xlink:title="3rd_week">
<ellipse fill="#ee9898" stroke="black" cx="207.373" cy="-848.373" rx="28.6953" ry="18"/>
<text text-anchor="middle" x="207.373" y="-844.673" font-family="Times,serif" font-size="14.00">4575</text>
</a>
</g>
</g>
<!-- 5146 -->
<g id="node19" class="node"><title>5146</title>
<g id="a_node19"><a xlink:title="3rd_week">
<ellipse fill="#ee9898" stroke="black" cx="34.1885" cy="-802.549" rx="28.6953" ry="18"/>
<text text-anchor="middle" x="34.1885" y="-798.849" font-family="Times,serif" font-size="14.00">5146</text>
</a>
</g>
</g>
<!-- 4575&#45;&gt;5146 -->
<g id="edge30" class="edge"><title>4575&#45;&gt;5146</title>
<path fill="none" stroke="black" d="M180.692,-841.314C148.053,-832.677 93.1384,-818.147 60.6151,-809.542"/>
</g>
<!-- 4575&#45;&gt;15833 -->
<g id="edge47" class="edge"><title>4575&#45;&gt;15833</title>
<path fill="none" stroke="black" d="M233.17,-856.831C278.717,-871.764 373.021,-902.682 420.227,-918.159"/>
</g>
<!-- 5135 -->
<g id="node18" class="node"><title>5135</title>
<g id="a_node18"><a xlink:title="3rd_week">
<ellipse fill="#ee9898" stroke="black" cx="130.89" cy="-1220.81" rx="28.6953" ry="18"/>
<text text-anchor="middle" x="130.89" y="-1217.11" font-family="Times,serif" font-size="14.00">5135</text>
</a>
</g>
</g>
<!-- 5704 -->
<g id="node22" class="node"><title>5704</title>
<g id="a_node22"><a xlink:title="3rd_week">
<ellipse fill="#ee9898" stroke="black" cx="260.441" cy="-1095.14" rx="28.6953" ry="18"/>
<text text-anchor="middle" x="260.441" y="-1091.44" font-family="Times,serif" font-size="14.00">5704</text>
</a>
</g>
</g>
<!-- 5135&#45;&gt;5704 -->
<g id="edge37" class="edge"><title>5135&#45;&gt;5704</title>
<path fill="none" stroke="black" d="M146.517,-1205.65C171.417,-1181.49 219.824,-1134.54 244.759,-1110.35"/>
</g>
<!-- 5279 -->
<g id="node20" class="node"><title>5279</title>
<g id="a_node20"><a xlink:title="3rd_week">
<ellipse fill="#ee9898" stroke="black" cx="274.8" cy="-898.357" rx="28.6953" ry="18"/>
<text text-anchor="middle" x="274.8" y="-894.657" font-family="Times,serif" font-size="14.00">5279</text>
</a>
</g>
</g>
<!-- 5279&#45;&gt;15833 -->
<g id="edge53" class="edge"><title>5279&#45;&gt;15833</title>
<path fill="none" stroke="black" d="M302.697,-903.025C333.948,-908.253 384.486,-916.708 417.08,-922.162"/>
</g>
<!-- 5699 -->
<g id="node21" class="node"><title>5699</title>
<g id="a_node21"><a xlink:title="3rd_week">
<ellipse fill="#ee9898" stroke="black" cx="1365.59" cy="-821.407" rx="28.6953" ry="18"/>
<text text-anchor="middle" x="1365.59" y="-817.707" font-family="Times,serif" font-size="14.00">5699</text>
</a>
</g>
</g>
<!-- 5699&#45;&gt;7027 -->
<g id="edge43" class="edge"><title>5699&#45;&gt;7027</title>
<path fill="none" stroke="black" d="M1340.14,-812.956C1307.54,-802.128 1251.35,-783.464 1218.69,-772.618"/>
</g>
<!-- 5704&#45;&gt;15833 -->
<g id="edge19" class="edge"><title>5704&#45;&gt;15833</title>
<path fill="none" stroke="black" d="M277.124,-1080.25C312.619,-1048.58 395.307,-974.807 431.245,-942.743"/>
</g>
<!-- 6086 -->
<g id="node23" class="node"><title>6086</title>
<g id="a_node23"><a xlink:title="3rd_week">
<ellipse fill="#ee9898" stroke="black" cx="591.216" cy="-362.02" rx="28.6953" ry="18"/>
<text text-anchor="middle" x="591.216" y="-358.32" font-family="Times,serif" font-size="14.00">6086</text>
</a>
</g>
</g>
<!-- 6086&#45;&gt;15280 -->
<g id="edge16" class="edge"><title>6086&#45;&gt;15280</title>
<path fill="none" stroke="black" d="M613.253,-373.85C641.086,-388.792 688.766,-414.388 717.21,-429.658"/>
</g>
<!-- 7148 -->
<g id="node26" class="node"><title>7148</title>
<g id="a_node26"><a xlink:title="3rd_week">
<ellipse fill="#ee9898" stroke="black" cx="1438.35" cy="-840.479" rx="28.6953" ry="18"/>
<text text-anchor="middle" x="1438.35" y="-836.779" font-family="Times,serif" font-size="14.00">7148</text>
</a>
</g>
</g>
<!-- 7027&#45;&gt;7148 -->
<g id="edge38" class="edge"><title>7027&#45;&gt;7148</title>
<path fill="none" stroke="black" d="M1218.92,-772.159C1266.01,-786.822 1365.44,-817.778 1412.55,-832.446"/>
</g>
<!-- 7548 -->
<g id="node28" class="node"><title>7548</title>
<g id="a_node28"><a xlink:title="3rd_week">
<ellipse fill="#ee9898" stroke="black" cx="1281.59" cy="-631.364" rx="28.6953" ry="18"/>
<text text-anchor="middle" x="1281.59" y="-627.664" font-family="Times,serif" font-size="14.00">7548</text>
</a>
</g>
</g>
<!-- 7027&#45;&gt;7548 -->
<g id="edge25" class="edge"><title>7027&#45;&gt;7548</title>
<path fill="none" stroke="black" d="M1204.35,-747.317C1221.36,-721.779 1253.52,-673.5 1270.48,-648.042"/>
</g>
<!-- 8739 -->
<g id="node30" class="node"><title>8739</title>
<g id="a_node30"><a xlink:title="3rd_week">
<ellipse fill="#ee9898" stroke="black" cx="1394.11" cy="-756.07" rx="28.6953" ry="18"/>
<text text-anchor="middle" x="1394.11" y="-752.37" font-family="Times,serif" font-size="14.00">8739</text>
</a>
</g>
</g>
<!-- 7027&#45;&gt;8739 -->
<g id="edge2" class="edge"><title>7027&#45;&gt;8739</title>
<path fill="none" stroke="black" d="M1221.94,-762.977C1260.14,-761.445 1327.19,-758.754 1365.37,-757.223"/>
</g>
<!-- 9152 -->
<g id="node31" class="node"><title>9152</title>
<g id="a_node31"><a xlink:title="3rd_week">
<ellipse fill="#ee9898" stroke="black" cx="1201.68" cy="-583.357" rx="28.6953" ry="18"/>
<text text-anchor="middle" x="1201.68" y="-579.657" font-family="Times,serif" font-size="14.00">9152</text>
</a>
</g>
</g>
<!-- 7027&#45;&gt;9152 -->
<g id="edge11" class="edge"><title>7027&#45;&gt;9152</title>
<path fill="none" stroke="black" d="M1193.99,-746.138C1195.63,-711.576 1199.18,-636.261 1200.82,-601.547"/>
</g>
<!-- 9903 -->
<g id="node36" class="node"><title>9903</title>
<g id="a_node36"><a xlink:title="3rd_week">
<ellipse fill="#ee9898" stroke="black" cx="1348.33" cy="-885.358" rx="28.6953" ry="18"/>
<text text-anchor="middle" x="1348.33" y="-881.658" font-family="Times,serif" font-size="14.00">9903</text>
</a>
</g>
</g>
<!-- 7027&#45;&gt;9903 -->
<g id="edge48" class="edge"><title>7027&#45;&gt;9903</title>
<path fill="none" stroke="black" d="M1211.25,-778.276C1241.15,-801.635 1300.51,-848.005 1330.34,-871.305"/>
</g>
<!-- 11344 -->
<g id="node40" class="node"><title>11344</title>
<g id="a_node40"><a xlink:title="3rd_week">
<ellipse fill="#ee9898" stroke="black" cx="1373.07" cy="-686.235" rx="32.4942" ry="18"/>
<text text-anchor="middle" x="1373.07" y="-682.535" font-family="Times,serif" font-size="14.00">11344</text>
</a>
</g>
</g>
<!-- 7027&#45;&gt;11344 -->
<g id="edge35" class="edge"><title>7027&#45;&gt;11344</title>
<path fill="none" stroke="black" d="M1217.04,-753.788C1250.88,-739.138 1312.51,-712.453 1347.33,-697.378"/>
</g>
<!-- 12558 -->
<g id="node44" class="node"><title>12558</title>
<g id="a_node44"><a xlink:title="3rd_week">
<ellipse fill="#ee9898" stroke="black" cx="1447.61" cy="-681.055" rx="32.4942" ry="18"/>
<text text-anchor="middle" x="1447.61" y="-677.355" font-family="Times,serif" font-size="14.00">12558</text>
</a>
</g>
</g>
<!-- 7027&#45;&gt;12558 -->
<g id="edge12" class="edge"><title>7027&#45;&gt;12558</title>
<path fill="none" stroke="black" d="M1218.94,-755.709C1266.96,-740.034 1369.66,-706.504 1419.42,-690.257"/>
</g>
<!-- 15031 -->
<g id="node50" class="node"><title>15031</title>
<g id="a_node50"><a xlink:title="3rd_week">
<ellipse fill="#ee9898" stroke="black" cx="1310.22" cy="-932.424" rx="32.4942" ry="18"/>
<text text-anchor="middle" x="1310.22" y="-928.724" font-family="Times,serif" font-size="14.00">15031</text>
</a>
</g>
</g>
<!-- 7027&#45;&gt;15031 -->
<g id="edge17" class="edge"><title>7027&#45;&gt;15031</title>
<path fill="none" stroke="black" d="M1204.8,-780.884C1227.18,-813.059 1275.96,-883.173 1298.44,-915.49"/>
</g>
<!-- 9460 -->
<g id="node34" class="node"><title>9460</title>
<g id="a_node34"><a xlink:title="3rd_week">
<ellipse fill="#ee9898" stroke="black" cx="1614.88" cy="-891.465" rx="28.6953" ry="18"/>
<text text-anchor="middle" x="1614.88" y="-887.765" font-family="Times,serif" font-size="14.00">9460</text>
</a>
</g>
</g>
<!-- 7148&#45;&gt;9460 -->
<g id="edge36" class="edge"><title>7148&#45;&gt;9460</title>
<path fill="none" stroke="black" d="M1464.4,-848.002C1497.77,-857.642 1555.3,-874.257 1588.72,-883.911"/>
</g>
<!-- 7628&#45;&gt;15280 -->
<g id="edge5" class="edge"><title>7628&#45;&gt;15280</title>
<path fill="none" stroke="black" d="M739.855,-241.417C740.002,-282.759 740.359,-382.957 740.505,-424.103"/>
</g>
<!-- 9232 -->
<g id="node32" class="node"><title>9232</title>
<g id="a_node32"><a xlink:title="3rd_week">
<ellipse fill="#ee9898" stroke="black" cx="699.137" cy="-1200.01" rx="28.6953" ry="18"/>
<text text-anchor="middle" x="699.137" y="-1196.31" font-family="Times,serif" font-size="14.00">9232</text>
</a>
</g>
</g>
<!-- 9232&#45;&gt;11869 -->
<g id="edge14" class="edge"><title>9232&#45;&gt;11869</title>
<path fill="none" stroke="black" d="M706.293,-1182.52C719.097,-1151.23 745.789,-1086 758.701,-1054.44"/>
</g>
<!-- 9778 -->
<g id="node35" class="node"><title>9778</title>
<g id="a_node35"><a xlink:title="3rd_week">
<ellipse fill="#ee9898" stroke="black" cx="357.423" cy="-763.95" rx="28.6953" ry="18"/>
<text text-anchor="middle" x="357.423" y="-760.25" font-family="Times,serif" font-size="14.00">9778</text>
</a>
</g>
</g>
<!-- 9778&#45;&gt;15833 -->
<g id="edge45" class="edge"><title>9778&#45;&gt;15833</title>
<path fill="none" stroke="black" d="M366.991,-781.134C384.424,-812.445 421.179,-878.458 438.719,-909.961"/>
</g>
<!-- 10938 -->
<g id="node38" class="node"><title>10938</title>
<g id="a_node38"><a xlink:title="3rd_week">
<ellipse fill="#ee9898" stroke="black" cx="921.536" cy="-1228.91" rx="32.4942" ry="18"/>
<text text-anchor="middle" x="921.536" y="-1225.21" font-family="Times,serif" font-size="14.00">10938</text>
</a>
</g>
</g>
<!-- 10938&#45;&gt;15634 -->
<g id="edge24" class="edge"><title>10938&#45;&gt;15634</title>
<path fill="none" stroke="black" d="M922.28,-1210.86C923.709,-1176.18 926.822,-1100.61 928.257,-1065.78"/>
</g>
<!-- 11162 -->
<g id="node39" class="node"><title>11162</title>
<g id="a_node39"><a xlink:title="3rd_week">
<ellipse fill="#ee9898" stroke="black" cx="351.048" cy="-1050.08" rx="32.4942" ry="18"/>
<text text-anchor="middle" x="351.048" y="-1046.38" font-family="Times,serif" font-size="14.00">11162</text>
</a>
</g>
</g>
<!-- 11162&#45;&gt;15833 -->
<g id="edge44" class="edge"><title>11162&#45;&gt;15833</title>
<path fill="none" stroke="black" d="M364.182,-1033.54C382.768,-1010.12 416.553,-967.564 435.196,-944.081"/>
</g>
<!-- 11543 -->
<g id="node41" class="node"><title>11543</title>
<g id="a_node41"><a xlink:title="3rd_week">
<ellipse fill="#ee9898" stroke="black" cx="783.459" cy="-273.214" rx="32.4942" ry="18"/>
<text text-anchor="middle" x="783.459" y="-269.514" font-family="Times,serif" font-size="14.00">11543</text>
</a>
</g>
</g>
<!-- 11543&#45;&gt;15280 -->
<g id="edge9" class="edge"><title>11543&#45;&gt;15280</title>
<path fill="none" stroke="black" d="M778.869,-291.299C770.614,-323.823 753.357,-391.814 745.127,-424.244"/>
</g>
<!-- 12314 -->
<g id="node43" class="node"><title>12314</title>
<g id="a_node43"><a xlink:title="3rd_week">
<ellipse fill="#ee9898" stroke="black" cx="284.877" cy="-803.555" rx="32.4942" ry="18"/>
<text text-anchor="middle" x="284.877" y="-799.855" font-family="Times,serif" font-size="14.00">12314</text>
</a>
</g>
</g>
<!-- 12314&#45;&gt;15833 -->
<g id="edge21" class="edge"><title>12314&#45;&gt;15833</title>
<path fill="none" stroke="black" d="M304.281,-818.249C335.759,-842.085 397.592,-888.908 429.053,-912.732"/>
</g>
<!-- 13201 -->
<g id="node47" class="node"><title>13201</title>
<g id="a_node47"><a xlink:title="3rd_week">
<ellipse fill="#ee9898" stroke="black" cx="1628.84" cy="-622.377" rx="32.4942" ry="18"/>
<text text-anchor="middle" x="1628.84" y="-618.677" font-family="Times,serif" font-size="14.00">13201</text>
</a>
</g>
</g>
<!-- 12558&#45;&gt;13201 -->
<g id="edge26" class="edge"><title>12558&#45;&gt;13201</title>
<path fill="none" stroke="black" d="M1475.93,-671.887C1509.97,-660.863 1566.76,-642.476 1600.72,-631.481"/>
</g>
<!-- 12788 -->
<g id="node45" class="node"><title>12788</title>
<g id="a_node45"><a xlink:title="3rd_week">
<ellipse fill="#ee9898" stroke="black" cx="1061.68" cy="-1171.21" rx="32.4942" ry="18"/>
<text text-anchor="middle" x="1061.68" y="-1167.51" font-family="Times,serif" font-size="14.00">12788</text>
</a>
</g>
</g>
<!-- 12788&#45;&gt;15634 -->
<g id="edge27" class="edge"><title>12788&#45;&gt;15634</title>
<path fill="none" stroke="black" d="M1044.88,-1155.54C1019.36,-1131.75 971.115,-1086.78 945.676,-1063.07"/>
</g>
<!-- 13109 -->
<g id="node46" class="node"><title>13109</title>
<g id="a_node46"><a xlink:title="3rd_week">
<ellipse fill="#ee9898" stroke="black" cx="377.03" cy="-1112.27" rx="32.4942" ry="18"/>
<text text-anchor="middle" x="377.03" y="-1108.57" font-family="Times,serif" font-size="14.00">13109</text>
</a>
</g>
</g>
<!-- 13109&#45;&gt;15833 -->
<g id="edge4" class="edge"><title>13109&#45;&gt;15833</title>
<path fill="none" stroke="black" d="M383.877,-1094.54C397.525,-1059.21 427.976,-980.37 441.607,-945.079"/>
</g>
<!-- 14521 -->
<g id="node48" class="node"><title>14521</title>
<g id="a_node48"><a xlink:title="3rd_week">
<ellipse fill="#ee9898" stroke="black" cx="998.825" cy="-1220.38" rx="32.4942" ry="18"/>
<text text-anchor="middle" x="998.825" y="-1216.68" font-family="Times,serif" font-size="14.00">14521</text>
</a>
</g>
</g>
<!-- 14521&#45;&gt;15634 -->
<g id="edge8" class="edge"><title>14521&#45;&gt;15634</title>
<path fill="none" stroke="black" d="M991.616,-1202.53C978.203,-1169.33 949.561,-1098.42 936.178,-1065.28"/>
</g>
<!-- 14553 -->
<g id="node49" class="node"><title>14553</title>
<g id="a_node49"><a xlink:title="3rd_week">
<ellipse fill="#ee9898" stroke="black" cx="858.147" cy="-299.802" rx="32.4942" ry="18"/>
<text text-anchor="middle" x="858.147" y="-296.102" font-family="Times,serif" font-size="14.00">14553</text>
</a>
</g>
</g>
<!-- 14553&#45;&gt;15280 -->
<g id="edge6" class="edge"><title>14553&#45;&gt;15280</title>
<path fill="none" stroke="black" d="M844.429,-316.416C821.773,-343.854 776.798,-398.322 754.2,-425.691"/>
</g>
</g>
</svg>
