<?xml version="1.0" encoding="UTF-8" standalone="no"?>
<!DOCTYPE svg PUBLIC "-//W3C//DTD SVG 1.1//EN"
 "http://www.w3.org/Graphics/SVG/1.1/DTD/svg11.dtd">
<!-- Generated by graphviz version 2.38.0 (20140413.2041)
 -->
<!-- Title: %3 Pages: 1 -->
<svg width="1992pt" height="1257pt"
 viewBox="0.00 0.00 1992.00 1257.00" xmlns="http://www.w3.org/2000/svg" xmlns:xlink="http://www.w3.org/1999/xlink">
<g id="graph0" class="graph" transform="scale(1 1) rotate(0) translate(4 1253)">
<title>%3</title>
<polygon fill="white" stroke="none" points="-4,4 -4,-1253 1988,-1253 1988,4 -4,4"/>
<!-- 239 -->
<g id="node1" class="node"><title>239</title>
<g id="a_node1"><a xlink:title="3rd_week">
<ellipse fill="#ee9898" stroke="black" cx="548.172" cy="-1101.59" rx="27" ry="18"/>
<text text-anchor="middle" x="548.172" y="-1097.89" font-family="Times,serif" font-size="14.00">239</text>
</a>
</g>
</g>
<!-- 3036 -->
<g id="node12" class="node"><title>3036</title>
<g id="a_node12"><a xlink:title="3rd_week">
<ellipse fill="#ee9898" stroke="black" cx="526.576" cy="-916.22" rx="28.6953" ry="18"/>
<text text-anchor="middle" x="526.576" y="-912.52" font-family="Times,serif" font-size="14.00">3036</text>
</a>
</g>
</g>
<!-- 239&#45;&gt;3036 -->
<g id="edge10" class="edge"><title>239&#45;&gt;3036</title>
<path fill="none" stroke="black" d="M546.062,-1083.48C541.933,-1048.04 532.83,-969.904 528.695,-934.406"/>
</g>
<!-- 296 -->
<g id="node2" class="node"><title>296</title>
<g id="a_node2"><a xlink:title="3rd_week">
<ellipse fill="#ee9898" stroke="black" cx="1755.02" cy="-548.189" rx="27" ry="18"/>
<text text-anchor="middle" x="1755.02" y="-544.489" font-family="Times,serif" font-size="14.00">296</text>
</a>
</g>
</g>
<!-- 4342 -->
<g id="node15" class="node"><title>4342</title>
<g id="a_node15"><a xlink:title="3rd_week">
<ellipse fill="#ee9898" stroke="black" cx="1955.76" cy="-535.565" rx="28.6953" ry="18"/>
<text text-anchor="middle" x="1955.76" y="-531.865" font-family="Times,serif" font-size="14.00">4342</text>
</a>
</g>
</g>
<!-- 296&#45;&gt;4342 -->
<g id="edge57" class="edge"><title>296&#45;&gt;4342</title>
<path fill="none" stroke="black" d="M1782.09,-546.487C1819.97,-544.104 1888.49,-539.795 1927.17,-537.362"/>
</g>
<!-- 11618 -->
<g id="node47" class="node"><title>11618</title>
<g id="a_node47"><a xlink:title="3rd_week">
<ellipse fill="#ee9898" stroke="black" cx="1448.42" cy="-504.454" rx="32.4942" ry="18"/>
<text text-anchor="middle" x="1448.42" y="-500.754" font-family="Times,serif" font-size="14.00">11618</text>
</a>
</g>
</g>
<!-- 296&#45;&gt;11618 -->
<g id="edge7" class="edge"><title>296&#45;&gt;11618</title>
<path fill="none" stroke="black" d="M1728.61,-544.423C1672.4,-536.404 1541.08,-517.673 1480.31,-509.004"/>
</g>
<!-- 13166 -->
<g id="node59" class="node"><title>13166</title>
<g id="a_node59"><a xlink:title="3rd_week">
<ellipse fill="#ee9898" stroke="black" cx="1948.08" cy="-616.873" rx="32.4942" ry="18"/>
<text text-anchor="middle" x="1948.08" y="-613.173" font-family="Times,serif" font-size="14.00">13166</text>
</a>
</g>
</g>
<!-- 296&#45;&gt;13166 -->
<g id="edge51" class="edge"><title>296&#45;&gt;13166</title>
<path fill="none" stroke="black" d="M1779.08,-556.749C1815.06,-569.551 1882.71,-593.618 1920.59,-607.095"/>
</g>
<!-- 671 -->
<g id="node3" class="node"><title>671</title>
<g id="a_node3"><a xlink:title="3rd_week">
<ellipse fill="#ee9898" stroke="black" cx="503.067" cy="-1163.42" rx="27" ry="18"/>
<text text-anchor="middle" x="503.067" y="-1159.72" font-family="Times,serif" font-size="14.00">671</text>
</a>
</g>
</g>
<!-- 671&#45;&gt;3036 -->
<g id="edge6" class="edge"><title>671&#45;&gt;3036</title>
<path fill="none" stroke="black" d="M504.795,-1145.24C509.143,-1099.53 520.495,-980.168 524.845,-934.424"/>
</g>
<!-- 696 -->
<g id="node4" class="node"><title>696</title>
<g id="a_node4"><a xlink:title="3rd_week">
<ellipse fill="#ee9898" stroke="black" cx="517.889" cy="-711.337" rx="27" ry="18"/>
<text text-anchor="middle" x="517.889" y="-707.637" font-family="Times,serif" font-size="14.00">696</text>
</a>
</g>
</g>
<!-- 696&#45;&gt;3036 -->
<g id="edge56" class="edge"><title>696&#45;&gt;3036</title>
<path fill="none" stroke="black" d="M518.66,-729.519C520.308,-768.399 524.16,-859.235 525.807,-898.079"/>
</g>
<!-- 1465 -->
<g id="node5" class="node"><title>1465</title>
<g id="a_node5"><a xlink:title="3rd_week">
<ellipse fill="#ee9898" stroke="black" cx="1628" cy="-453.333" rx="28.6953" ry="18"/>
<text text-anchor="middle" x="1628" y="-449.633" font-family="Times,serif" font-size="14.00">1465</text>
</a>
</g>
</g>
<!-- 1465&#45;&gt;11618 -->
<g id="edge23" class="edge"><title>1465&#45;&gt;11618</title>
<path fill="none" stroke="black" d="M1601.89,-460.767C1568.81,-470.182 1511.99,-486.358 1477.54,-496.164"/>
</g>
<!-- 1951 -->
<g id="node6" class="node"><title>1951</title>
<g id="a_node6"><a xlink:title="3rd_week">
<ellipse fill="#ee9898" stroke="black" cx="399.984" cy="-821.36" rx="28.6953" ry="18"/>
<text text-anchor="middle" x="399.984" y="-817.66" font-family="Times,serif" font-size="14.00">1951</text>
</a>
</g>
</g>
<!-- 1951&#45;&gt;3036 -->
<g id="edge13" class="edge"><title>1951&#45;&gt;3036</title>
<path fill="none" stroke="black" d="M418.392,-835.153C442.393,-853.138 484.134,-884.417 508.146,-902.41"/>
</g>
<!-- 2133 -->
<g id="node7" class="node"><title>2133</title>
<g id="a_node7"><a xlink:title="3rd_week">
<ellipse fill="#ee9898" stroke="black" cx="577.591" cy="-1161.98" rx="28.6953" ry="18"/>
<text text-anchor="middle" x="577.591" y="-1158.28" font-family="Times,serif" font-size="14.00">2133</text>
</a>
</g>
</g>
<!-- 2133&#45;&gt;3036 -->
<g id="edge55" class="edge"><title>2133&#45;&gt;3036</title>
<path fill="none" stroke="black" d="M573.84,-1143.91C564.406,-1098.46 539.773,-979.795 530.333,-934.318"/>
</g>
<!-- 2266 -->
<g id="node8" class="node"><title>2266</title>
<g id="a_node8"><a xlink:title="3rd_week">
<ellipse fill="#ee9898" stroke="black" cx="1328.15" cy="-358.202" rx="28.6953" ry="18"/>
<text text-anchor="middle" x="1328.15" y="-354.502" font-family="Times,serif" font-size="14.00">2266</text>
</a>
</g>
</g>
<!-- 2266&#45;&gt;11618 -->
<g id="edge2" class="edge"><title>2266&#45;&gt;11618</title>
<path fill="none" stroke="black" d="M1341.48,-374.413C1364.47,-402.377 1411.37,-459.401 1434.66,-487.722"/>
</g>
<!-- 2577 -->
<g id="node9" class="node"><title>2577</title>
<g id="a_node9"><a xlink:title="3rd_week">
<ellipse fill="#ee9898" stroke="black" cx="372.754" cy="-765.519" rx="28.6953" ry="18"/>
<text text-anchor="middle" x="372.754" y="-761.819" font-family="Times,serif" font-size="14.00">2577</text>
</a>
</g>
</g>
<!-- 2577&#45;&gt;3036 -->
<g id="edge5" class="edge"><title>2577&#45;&gt;3036</title>
<path fill="none" stroke="black" d="M388.35,-780.798C417.832,-809.683 481.425,-871.985 510.939,-900.9"/>
</g>
<!-- 2813 -->
<g id="node10" class="node"><title>2813</title>
<g id="a_node10"><a xlink:title="3rd_week">
<ellipse fill="#ee9898" stroke="black" cx="233.115" cy="-898.441" rx="28.6953" ry="18"/>
<text text-anchor="middle" x="233.115" y="-894.741" font-family="Times,serif" font-size="14.00">2813</text>
</a>
</g>
</g>
<!-- 2813&#45;&gt;3036 -->
<g id="edge41" class="edge"><title>2813&#45;&gt;3036</title>
<path fill="none" stroke="black" d="M261.788,-900.178C317.891,-903.577 441.591,-911.071 497.787,-914.476"/>
</g>
<!-- 9395 -->
<g id="node37" class="node"><title>9395</title>
<g id="a_node37"><a xlink:title="3rd_week">
<ellipse fill="#ee9898" stroke="black" cx="28.5435" cy="-902.358" rx="28.6953" ry="18"/>
<text text-anchor="middle" x="28.5435" y="-898.658" font-family="Times,serif" font-size="14.00">9395</text>
</a>
</g>
</g>
<!-- 2813&#45;&gt;9395 -->
<g id="edge17" class="edge"><title>2813&#45;&gt;9395</title>
<path fill="none" stroke="black" d="M204.239,-898.994C165.25,-899.741 96.1858,-901.063 57.2729,-901.808"/>
</g>
<!-- 2918 -->
<g id="node11" class="node"><title>2918</title>
<g id="a_node11"><a xlink:title="3rd_week">
<ellipse fill="#ee9898" stroke="black" cx="1483.07" cy="-18.3897" rx="28.6953" ry="18"/>
<text text-anchor="middle" x="1483.07" y="-14.6897" font-family="Times,serif" font-size="14.00">2918</text>
</a>
</g>
</g>
<!-- 10848 -->
<g id="node44" class="node"><title>10848</title>
<g id="a_node44"><a xlink:title="3rd_week">
<ellipse fill="#ee9898" stroke="black" cx="1465.97" cy="-224.235" rx="32.4942" ry="18"/>
<text text-anchor="middle" x="1465.97" y="-220.535" font-family="Times,serif" font-size="14.00">10848</text>
</a>
</g>
</g>
<!-- 2918&#45;&gt;10848 -->
<g id="edge15" class="edge"><title>2918&#45;&gt;10848</title>
<path fill="none" stroke="black" d="M1481.55,-36.6571C1478.31,-75.7198 1470.73,-166.983 1467.49,-206.009"/>
</g>
<!-- 4254 -->
<g id="node14" class="node"><title>4254</title>
<g id="a_node14"><a xlink:title="3rd_week">
<ellipse fill="#ee9898" stroke="black" cx="672.567" cy="-827.128" rx="28.6953" ry="18"/>
<text text-anchor="middle" x="672.567" y="-823.428" font-family="Times,serif" font-size="14.00">4254</text>
</a>
</g>
</g>
<!-- 3036&#45;&gt;4254 -->
<g id="edge62" class="edge"><title>3036&#45;&gt;4254</title>
<path fill="none" stroke="black" d="M547.183,-903.644C574.85,-886.761 623.738,-856.926 651.592,-839.929"/>
</g>
<!-- 4641 -->
<g id="node16" class="node"><title>4641</title>
<g id="a_node16"><a xlink:title="3rd_week">
<ellipse fill="#ee9898" stroke="black" cx="627.308" cy="-1064.7" rx="28.6953" ry="18"/>
<text text-anchor="middle" x="627.308" y="-1061" font-family="Times,serif" font-size="14.00">4641</text>
</a>
</g>
</g>
<!-- 3036&#45;&gt;4641 -->
<g id="edge24" class="edge"><title>3036&#45;&gt;4641</title>
<path fill="none" stroke="black" d="M537.936,-932.964C557.282,-961.481 596.413,-1019.16 615.836,-1047.79"/>
</g>
<!-- 4974 -->
<g id="node17" class="node"><title>4974</title>
<g id="a_node17"><a xlink:title="3rd_week">
<ellipse fill="#ee9898" stroke="black" cx="554.361" cy="-756.882" rx="28.6953" ry="18"/>
<text text-anchor="middle" x="554.361" y="-753.182" font-family="Times,serif" font-size="14.00">4974</text>
</a>
</g>
</g>
<!-- 3036&#45;&gt;4974 -->
<g id="edge16" class="edge"><title>3036&#45;&gt;4974</title>
<path fill="none" stroke="black" d="M529.709,-898.252C535.046,-867.65 545.839,-805.753 551.196,-775.029"/>
</g>
<!-- 5447 -->
<g id="node19" class="node"><title>5447</title>
<g id="a_node19"><a xlink:title="3rd_week">
<ellipse fill="#ee9898" stroke="black" cx="305.9" cy="-963.436" rx="28.6953" ry="18"/>
<text text-anchor="middle" x="305.9" y="-959.736" font-family="Times,serif" font-size="14.00">5447</text>
</a>
</g>
</g>
<!-- 3036&#45;&gt;5447 -->
<g id="edge58" class="edge"><title>3036&#45;&gt;5447</title>
<path fill="none" stroke="black" d="M499.074,-922.105C456.555,-931.202 375.363,-948.574 333.056,-957.626"/>
</g>
<!-- 6240 -->
<g id="node23" class="node"><title>6240</title>
<g id="a_node23"><a xlink:title="3rd_week">
<ellipse fill="#ee9898" stroke="black" cx="623.242" cy="-760.466" rx="28.6953" ry="18"/>
<text text-anchor="middle" x="623.242" y="-756.766" font-family="Times,serif" font-size="14.00">6240</text>
</a>
</g>
</g>
<!-- 3036&#45;&gt;6240 -->
<g id="edge35" class="edge"><title>3036&#45;&gt;6240</title>
<path fill="none" stroke="black" d="M537.105,-899.255C555.7,-869.294 594.141,-807.356 612.726,-777.41"/>
</g>
<!-- 6765 -->
<g id="node25" class="node"><title>6765</title>
<g id="a_node25"><a xlink:title="3rd_week">
<ellipse fill="#ee9898" stroke="black" cx="461.655" cy="-1096.37" rx="28.6953" ry="18"/>
<text text-anchor="middle" x="461.655" y="-1092.67" font-family="Times,serif" font-size="14.00">6765</text>
</a>
</g>
</g>
<!-- 3036&#45;&gt;6765 -->
<g id="edge46" class="edge"><title>3036&#45;&gt;6765</title>
<path fill="none" stroke="black" d="M520.233,-933.822C507.822,-968.263 480.456,-1044.2 468.024,-1078.7"/>
</g>
<!-- 7371 -->
<g id="node27" class="node"><title>7371</title>
<g id="a_node27"><a xlink:title="3rd_week">
<ellipse fill="#ee9898" stroke="black" cx="323.636" cy="-875.169" rx="28.6953" ry="18"/>
<text text-anchor="middle" x="323.636" y="-871.469" font-family="Times,serif" font-size="14.00">7371</text>
</a>
</g>
</g>
<!-- 3036&#45;&gt;7371 -->
<g id="edge37" class="edge"><title>3036&#45;&gt;7371</title>
<path fill="none" stroke="black" d="M499.207,-910.684C460.366,-902.827 389.675,-888.527 350.895,-880.683"/>
</g>
<!-- 8502 -->
<g id="node31" class="node"><title>8502</title>
<g id="a_node31"><a xlink:title="3rd_week">
<ellipse fill="#ee9898" stroke="black" cx="326.262" cy="-1015.36" rx="28.6953" ry="18"/>
<text text-anchor="middle" x="326.262" y="-1011.66" font-family="Times,serif" font-size="14.00">8502</text>
</a>
</g>
</g>
<!-- 3036&#45;&gt;8502 -->
<g id="edge40" class="edge"><title>3036&#45;&gt;8502</title>
<path fill="none" stroke="black" d="M503.987,-927.4C465.413,-946.491 387.286,-985.157 348.769,-1004.22"/>
</g>
<!-- 9102 -->
<g id="node34" class="node"><title>9102</title>
<g id="a_node34"><a xlink:title="3rd_week">
<ellipse fill="#ee9898" stroke="black" cx="392.154" cy="-1036.44" rx="28.6953" ry="18"/>
<text text-anchor="middle" x="392.154" y="-1032.74" font-family="Times,serif" font-size="14.00">9102</text>
</a>
</g>
</g>
<!-- 3036&#45;&gt;9102 -->
<g id="edge8" class="edge"><title>3036&#45;&gt;9102</title>
<path fill="none" stroke="black" d="M510.093,-930.961C484.294,-954.034 434.654,-998.429 408.771,-1021.58"/>
</g>
<!-- 9223 -->
<g id="node35" class="node"><title>9223</title>
<g id="a_node35"><a xlink:title="3rd_week">
<ellipse fill="#ee9898" stroke="black" cx="331.915" cy="-817.332" rx="28.6953" ry="18"/>
<text text-anchor="middle" x="331.915" y="-813.632" font-family="Times,serif" font-size="14.00">9223</text>
</a>
</g>
</g>
<!-- 3036&#45;&gt;9223 -->
<g id="edge28" class="edge"><title>3036&#45;&gt;9223</title>
<path fill="none" stroke="black" d="M504.246,-904.876C466.797,-885.852 391.759,-847.733 354.284,-828.695"/>
</g>
<!-- 10239 -->
<g id="node39" class="node"><title>10239</title>
<g id="a_node39"><a xlink:title="3rd_week">
<ellipse fill="#ee9898" stroke="black" cx="1004.51" cy="-711.613" rx="32.4942" ry="18"/>
<text text-anchor="middle" x="1004.51" y="-707.913" font-family="Times,serif" font-size="14.00">10239</text>
</a>
</g>
</g>
<!-- 3036&#45;&gt;10239 -->
<g id="edge21" class="edge"><title>3036&#45;&gt;10239</title>
<path fill="none" stroke="black" d="M550.277,-906.074C630.986,-871.521 894.758,-758.599 978.646,-722.685"/>
</g>
<!-- 10271 -->
<g id="node40" class="node"><title>10271</title>
<g id="a_node40"><a xlink:title="3rd_week">
<ellipse fill="#ee9898" stroke="black" cx="450.656" cy="-759.596" rx="32.4942" ry="18"/>
<text text-anchor="middle" x="450.656" y="-755.896" font-family="Times,serif" font-size="14.00">10271</text>
</a>
</g>
</g>
<!-- 3036&#45;&gt;10271 -->
<g id="edge52" class="edge"><title>3036&#45;&gt;10271</title>
<path fill="none" stroke="black" d="M518.161,-898.86C503.568,-868.754 473.728,-807.194 459.108,-777.034"/>
</g>
<!-- 10418 -->
<g id="node41" class="node"><title>10418</title>
<g id="a_node41"><a xlink:title="3rd_week">
<ellipse fill="#ee9898" stroke="black" cx="713.73" cy="-907.556" rx="32.4942" ry="18"/>
<text text-anchor="middle" x="713.73" y="-903.856" font-family="Times,serif" font-size="14.00">10418</text>
</a>
</g>
</g>
<!-- 3036&#45;&gt;10418 -->
<g id="edge27" class="edge"><title>3036&#45;&gt;10418</title>
<path fill="none" stroke="black" d="M555.409,-914.885C589.348,-913.314 645.574,-910.711 681.086,-909.067"/>
</g>
<!-- 10516 -->
<g id="node42" class="node"><title>10516</title>
<g id="a_node42"><a xlink:title="3rd_week">
<ellipse fill="#ee9898" stroke="black" cx="704.231" cy="-1062.33" rx="32.4942" ry="18"/>
<text text-anchor="middle" x="704.231" y="-1058.63" font-family="Times,serif" font-size="14.00">10516</text>
</a>
</g>
</g>
<!-- 3036&#45;&gt;10516 -->
<g id="edge43" class="edge"><title>3036&#45;&gt;10516</title>
<path fill="none" stroke="black" d="M544.26,-930.764C578.049,-958.555 651.475,-1018.95 685.823,-1047.19"/>
</g>
<!-- 11384 -->
<g id="node45" class="node"><title>11384</title>
<g id="a_node45"><a xlink:title="3rd_week">
<ellipse fill="#ee9898" stroke="black" cx="290.641" cy="-1100.1" rx="32.4942" ry="18"/>
<text text-anchor="middle" x="290.641" y="-1096.4" font-family="Times,serif" font-size="14.00">11384</text>
</a>
</g>
</g>
<!-- 3036&#45;&gt;11384 -->
<g id="edge48" class="edge"><title>3036&#45;&gt;11384</title>
<path fill="none" stroke="black" d="M508.454,-930.343C464.753,-964.403 353.901,-1050.8 309.477,-1085.42"/>
</g>
<!-- 12723 -->
<g id="node50" class="node"><title>12723</title>
<g id="a_node50"><a xlink:title="3rd_week">
<ellipse fill="#ee9898" stroke="black" cx="428.52" cy="-1153.2" rx="32.4942" ry="18"/>
<text text-anchor="middle" x="428.52" y="-1149.5" font-family="Times,serif" font-size="14.00">12723</text>
</a>
</g>
</g>
<!-- 3036&#45;&gt;12723 -->
<g id="edge25" class="edge"><title>3036&#45;&gt;12723</title>
<path fill="none" stroke="black" d="M519.366,-933.646C501.277,-977.363 454.117,-1091.34 435.875,-1135.42"/>
</g>
<!-- 12741 -->
<g id="node51" class="node"><title>12741</title>
<g id="a_node51"><a xlink:title="3rd_week">
<ellipse fill="#ee9898" stroke="black" cx="435.189" cy="-709.766" rx="32.4942" ry="18"/>
<text text-anchor="middle" x="435.189" y="-706.066" font-family="Times,serif" font-size="14.00">12741</text>
</a>
</g>
</g>
<!-- 3036&#45;&gt;12741 -->
<g id="edge38" class="edge"><title>3036&#45;&gt;12741</title>
<path fill="none" stroke="black" d="M518.785,-898.618C501.519,-859.613 460.209,-766.287 442.961,-727.323"/>
</g>
<!-- 12952 -->
<g id="node55" class="node"><title>12952</title>
<g id="a_node55"><a xlink:title="3rd_week">
<ellipse fill="#ee9898" stroke="black" cx="715.892" cy="-988.051" rx="32.4942" ry="18"/>
<text text-anchor="middle" x="715.892" y="-984.351" font-family="Times,serif" font-size="14.00">12952</text>
</a>
</g>
</g>
<!-- 3036&#45;&gt;12952 -->
<g id="edge9" class="edge"><title>3036&#45;&gt;12952</title>
<path fill="none" stroke="black" d="M551.326,-925.611C586.907,-939.111 652.262,-963.908 688.997,-977.846"/>
</g>
<!-- 13130 -->
<g id="node58" class="node"><title>13130</title>
<g id="a_node58"><a xlink:title="3rd_week">
<ellipse fill="#ee9898" stroke="black" cx="389.745" cy="-923.408" rx="32.4942" ry="18"/>
<text text-anchor="middle" x="389.745" y="-919.708" font-family="Times,serif" font-size="14.00">13130</text>
</a>
</g>
</g>
<!-- 3036&#45;&gt;13130 -->
<g id="edge29" class="edge"><title>3036&#45;&gt;13130</title>
<path fill="none" stroke="black" d="M497.892,-917.727C475.793,-918.888 445.23,-920.493 422.231,-921.701"/>
</g>
<!-- 13307 -->
<g id="node60" class="node"><title>13307</title>
<g id="a_node60"><a xlink:title="3rd_week">
<ellipse fill="#ee9898" stroke="black" cx="373.927" cy="-1105.67" rx="32.4942" ry="18"/>
<text text-anchor="middle" x="373.927" y="-1101.97" font-family="Times,serif" font-size="14.00">13307</text>
</a>
</g>
</g>
<!-- 3036&#45;&gt;13307 -->
<g id="edge49" class="edge"><title>3036&#45;&gt;13307</title>
<path fill="none" stroke="black" d="M513.561,-932.373C484.866,-967.986 416.407,-1052.95 387.344,-1089.02"/>
</g>
<!-- 13646 -->
<g id="node62" class="node"><title>13646</title>
<g id="a_node62"><a xlink:title="3rd_week">
<ellipse fill="#ee9898" stroke="black" cx="651.309" cy="-1130.85" rx="32.4942" ry="18"/>
<text text-anchor="middle" x="651.309" y="-1127.15" font-family="Times,serif" font-size="14.00">13646</text>
</a>
</g>
</g>
<!-- 3036&#45;&gt;13646 -->
<g id="edge42" class="edge"><title>3036&#45;&gt;13646</title>
<path fill="none" stroke="black" d="M536.573,-933.421C559.928,-973.609 617.863,-1073.3 641.265,-1113.57"/>
</g>
<!-- 3552 -->
<g id="node13" class="node"><title>3552</title>
<g id="a_node13"><a xlink:title="3rd_week">
<ellipse fill="#ee9898" stroke="black" cx="1407.67" cy="-332.893" rx="28.6953" ry="18"/>
<text text-anchor="middle" x="1407.67" y="-329.193" font-family="Times,serif" font-size="14.00">3552</text>
</a>
</g>
</g>
<!-- 3552&#45;&gt;11618 -->
<g id="edge59" class="edge"><title>3552&#45;&gt;11618</title>
<path fill="none" stroke="black" d="M1411.95,-350.929C1419.78,-383.878 1436.3,-453.441 1444.13,-486.403"/>
</g>
<!-- 5415 -->
<g id="node18" class="node"><title>5415</title>
<g id="a_node18"><a xlink:title="3rd_week">
<ellipse fill="#ee9898" stroke="black" cx="1849.52" cy="-778.749" rx="28.6953" ry="18"/>
<text text-anchor="middle" x="1849.52" y="-775.049" font-family="Times,serif" font-size="14.00">5415</text>
</a>
</g>
</g>
<!-- 13328 -->
<g id="node61" class="node"><title>13328</title>
<g id="a_node61"><a xlink:title="3rd_week">
<ellipse fill="#ee9898" stroke="black" cx="1680.31" cy="-661.571" rx="32.4942" ry="18"/>
<text text-anchor="middle" x="1680.31" y="-657.871" font-family="Times,serif" font-size="14.00">13328</text>
</a>
</g>
</g>
<!-- 5415&#45;&gt;13328 -->
<g id="edge33" class="edge"><title>5415&#45;&gt;13328</title>
<path fill="none" stroke="black" d="M1830.11,-765.307C1797.9,-743.004 1733.72,-698.556 1700.81,-675.766"/>
</g>
<!-- 5695 -->
<g id="node20" class="node"><title>5695</title>
<g id="a_node20"><a xlink:title="3rd_week">
<ellipse fill="#ee9898" stroke="black" cx="127.311" cy="-1230.75" rx="28.6953" ry="18"/>
<text text-anchor="middle" x="127.311" y="-1227.05" font-family="Times,serif" font-size="14.00">5695</text>
</a>
</g>
</g>
<!-- 5695&#45;&gt;11384 -->
<g id="edge60" class="edge"><title>5695&#45;&gt;11384</title>
<path fill="none" stroke="black" d="M145.101,-1216.52C176.189,-1191.65 240.107,-1140.52 271.87,-1115.12"/>
</g>
<!-- 5974 -->
<g id="node21" class="node"><title>5974</title>
<g id="a_node21"><a xlink:title="3rd_week">
<ellipse fill="#ee9898" stroke="black" cx="1289.66" cy="-419.928" rx="28.6953" ry="18"/>
<text text-anchor="middle" x="1289.66" y="-416.228" font-family="Times,serif" font-size="14.00">5974</text>
</a>
</g>
</g>
<!-- 5974&#45;&gt;11618 -->
<g id="edge22" class="edge"><title>5974&#45;&gt;11618</title>
<path fill="none" stroke="black" d="M1311.74,-431.681C1341.56,-447.558 1394.48,-475.735 1424.98,-491.976"/>
</g>
<!-- 6068 -->
<g id="node22" class="node"><title>6068</title>
<g id="a_node22"><a xlink:title="3rd_week">
<ellipse fill="#ee9898" stroke="black" cx="1684.23" cy="-300.627" rx="28.6953" ry="18"/>
<text text-anchor="middle" x="1684.23" y="-296.927" font-family="Times,serif" font-size="14.00">6068</text>
</a>
</g>
</g>
<!-- 9505 -->
<g id="node38" class="node"><title>9505</title>
<g id="a_node38"><a xlink:title="3rd_week">
<ellipse fill="#ee9898" stroke="black" cx="1861.04" cy="-200.521" rx="28.6953" ry="18"/>
<text text-anchor="middle" x="1861.04" y="-196.821" font-family="Times,serif" font-size="14.00">9505</text>
</a>
</g>
</g>
<!-- 6068&#45;&gt;9505 -->
<g id="edge54" class="edge"><title>6068&#45;&gt;9505</title>
<path fill="none" stroke="black" d="M1705.55,-288.552C1739.54,-269.311 1805.6,-231.907 1839.63,-212.639"/>
</g>
<!-- 6068&#45;&gt;11618 -->
<g id="edge20" class="edge"><title>6068&#45;&gt;11618</title>
<path fill="none" stroke="black" d="M1667.27,-315.286C1624.08,-352.619 1510.24,-451.02 1466.18,-489.1"/>
</g>
<!-- 12034 -->
<g id="node49" class="node"><title>12034</title>
<g id="a_node49"><a xlink:title="3rd_week">
<ellipse fill="#ee9898" stroke="black" cx="1811.65" cy="-135.575" rx="32.4942" ry="18"/>
<text text-anchor="middle" x="1811.65" y="-131.875" font-family="Times,serif" font-size="14.00">12034</text>
</a>
</g>
</g>
<!-- 6068&#45;&gt;12034 -->
<g id="edge44" class="edge"><title>6068&#45;&gt;12034</title>
<path fill="none" stroke="black" d="M1696.91,-284.198C1721.21,-252.724 1774.09,-184.233 1798.64,-152.429"/>
</g>
<!-- 6420 -->
<g id="node24" class="node"><title>6420</title>
<g id="a_node24"><a xlink:title="3rd_week">
<ellipse fill="#ee9898" stroke="black" cx="1647.77" cy="-69.0077" rx="28.6953" ry="18"/>
<text text-anchor="middle" x="1647.77" y="-65.3077" font-family="Times,serif" font-size="14.00">6420</text>
</a>
</g>
</g>
<!-- 7997 -->
<g id="node30" class="node"><title>7997</title>
<g id="a_node30"><a xlink:title="3rd_week">
<ellipse fill="#ee9898" stroke="black" cx="1566.08" cy="-255.457" rx="28.6953" ry="18"/>
<text text-anchor="middle" x="1566.08" y="-251.757" font-family="Times,serif" font-size="14.00">7997</text>
</a>
</g>
</g>
<!-- 6420&#45;&gt;7997 -->
<g id="edge36" class="edge"><title>6420&#45;&gt;7997</title>
<path fill="none" stroke="black" d="M1640.09,-86.5484C1624.48,-122.175 1589.23,-202.626 1573.68,-238.099"/>
</g>
<!-- 6795 -->
<g id="node26" class="node"><title>6795</title>
<g id="a_node26"><a xlink:title="3rd_week">
<ellipse fill="#ee9898" stroke="black" cx="1287.64" cy="-504.589" rx="28.6953" ry="18"/>
<text text-anchor="middle" x="1287.64" y="-500.889" font-family="Times,serif" font-size="14.00">6795</text>
</a>
</g>
</g>
<!-- 6795&#45;&gt;11618 -->
<g id="edge45" class="edge"><title>6795&#45;&gt;11618</title>
<path fill="none" stroke="black" d="M1316.38,-504.565C1344.29,-504.542 1386.61,-504.506 1415.77,-504.482"/>
</g>
<!-- 7767 -->
<g id="node28" class="node"><title>7767</title>
<g id="a_node28"><a xlink:title="3rd_week">
<ellipse fill="#ee9898" stroke="black" cx="1706.37" cy="-906.584" rx="28.6953" ry="18"/>
<text text-anchor="middle" x="1706.37" y="-902.884" font-family="Times,serif" font-size="14.00">7767</text>
</a>
</g>
</g>
<!-- 12859 -->
<g id="node53" class="node"><title>12859</title>
<g id="a_node53"><a xlink:title="3rd_week">
<ellipse fill="#ee9898" stroke="black" cx="1595.39" cy="-741.971" rx="32.4942" ry="18"/>
<text text-anchor="middle" x="1595.39" y="-738.271" font-family="Times,serif" font-size="14.00">12859</text>
</a>
</g>
</g>
<!-- 7767&#45;&gt;12859 -->
<g id="edge30" class="edge"><title>7767&#45;&gt;12859</title>
<path fill="none" stroke="black" d="M1695.12,-889.894C1673.96,-858.507 1628.44,-790.994 1607.01,-759.199"/>
</g>
<!-- 7784 -->
<g id="node29" class="node"><title>7784</title>
<g id="a_node29"><a xlink:title="3rd_week">
<ellipse fill="#ee9898" stroke="black" cx="1640.23" cy="-541.205" rx="28.6953" ry="18"/>
<text text-anchor="middle" x="1640.23" y="-537.505" font-family="Times,serif" font-size="14.00">7784</text>
</a>
</g>
</g>
<!-- 7784&#45;&gt;11618 -->
<g id="edge50" class="edge"><title>7784&#45;&gt;11618</title>
<path fill="none" stroke="black" d="M1612.75,-535.939C1577.42,-529.171 1516.26,-517.452 1479.34,-510.38"/>
</g>
<!-- 7997&#45;&gt;11618 -->
<g id="edge12" class="edge"><title>7997&#45;&gt;11618</title>
<path fill="none" stroke="black" d="M1557.8,-272.966C1536.2,-318.684 1478.28,-441.268 1456.68,-486.965"/>
</g>
<!-- 8631 -->
<g id="node32" class="node"><title>8631</title>
<g id="a_node32"><a xlink:title="3rd_week">
<ellipse fill="#ee9898" stroke="black" cx="1589.55" cy="-371.59" rx="28.6953" ry="18"/>
<text text-anchor="middle" x="1589.55" y="-367.89" font-family="Times,serif" font-size="14.00">8631</text>
</a>
</g>
</g>
<!-- 8631&#45;&gt;11618 -->
<g id="edge31" class="edge"><title>8631&#45;&gt;11618</title>
<path fill="none" stroke="black" d="M1573.64,-386.573C1546.67,-411.955 1492.29,-463.155 1464.93,-488.911"/>
</g>
<!-- 9015 -->
<g id="node33" class="node"><title>9015</title>
<g id="a_node33"><a xlink:title="3rd_week">
<ellipse fill="#ee9898" stroke="black" cx="1712.36" cy="-425.961" rx="28.6953" ry="18"/>
<text text-anchor="middle" x="1712.36" y="-422.261" font-family="Times,serif" font-size="14.00">9015</text>
</a>
</g>
</g>
<!-- 9015&#45;&gt;11618 -->
<g id="edge11" class="edge"><title>9015&#45;&gt;11618</title>
<path fill="none" stroke="black" d="M1686.09,-433.774C1636.41,-448.548 1529.06,-480.473 1477.38,-495.843"/>
</g>
<!-- 12917 -->
<g id="node54" class="node"><title>12917</title>
<g id="a_node54"><a xlink:title="3rd_week">
<ellipse fill="#ee9898" stroke="black" cx="1912.21" cy="-366.421" rx="32.4942" ry="18"/>
<text text-anchor="middle" x="1912.21" y="-362.721" font-family="Times,serif" font-size="14.00">12917</text>
</a>
</g>
</g>
<!-- 9015&#45;&gt;12917 -->
<g id="edge47" class="edge"><title>9015&#45;&gt;12917</title>
<path fill="none" stroke="black" d="M1738.49,-418.177C1775.94,-407.019 1844.65,-386.549 1883.49,-374.977"/>
</g>
<!-- 9325 -->
<g id="node36" class="node"><title>9325</title>
<g id="a_node36"><a xlink:title="3rd_week">
<ellipse fill="#ee9898" stroke="black" cx="1592.15" cy="-613.752" rx="28.6953" ry="18"/>
<text text-anchor="middle" x="1592.15" y="-610.052" font-family="Times,serif" font-size="14.00">9325</text>
</a>
</g>
</g>
<!-- 9325&#45;&gt;11618 -->
<g id="edge3" class="edge"><title>9325&#45;&gt;11618</title>
<path fill="none" stroke="black" d="M1573.65,-599.687C1546.36,-578.931 1495.53,-540.281 1467.76,-519.163"/>
</g>
<!-- 10239&#45;&gt;11618 -->
<g id="edge61" class="edge"><title>10239&#45;&gt;11618</title>
<path fill="none" stroke="black" d="M1029.65,-699.882C1107.78,-663.42 1345.8,-552.343 1423.55,-516.057"/>
</g>
<!-- 10598 -->
<g id="node43" class="node"><title>10598</title>
<g id="a_node43"><a xlink:title="3rd_week">
<ellipse fill="#ee9898" stroke="black" cx="1367.83" cy="-665.142" rx="32.4942" ry="18"/>
<text text-anchor="middle" x="1367.83" y="-661.442" font-family="Times,serif" font-size="14.00">10598</text>
</a>
</g>
</g>
<!-- 10598&#45;&gt;11618 -->
<g id="edge14" class="edge"><title>10598&#45;&gt;11618</title>
<path fill="none" stroke="black" d="M1376.61,-647.64C1392.11,-616.73 1424.16,-552.829 1439.65,-521.935"/>
</g>
<!-- 10848&#45;&gt;11618 -->
<g id="edge18" class="edge"><title>10848&#45;&gt;11618</title>
<path fill="none" stroke="black" d="M1464.82,-242.621C1461.63,-293.517 1452.72,-435.826 1449.55,-486.365"/>
</g>
<!-- 11440 -->
<g id="node46" class="node"><title>11440</title>
<g id="a_node46"><a xlink:title="3rd_week">
<ellipse fill="#ee9898" stroke="black" cx="1455.69" cy="-721.461" rx="32.4942" ry="18"/>
<text text-anchor="middle" x="1455.69" y="-717.761" font-family="Times,serif" font-size="14.00">11440</text>
</a>
</g>
</g>
<!-- 11440&#45;&gt;11618 -->
<g id="edge26" class="edge"><title>11440&#45;&gt;11618</title>
<path fill="none" stroke="black" d="M1455.08,-703.333C1453.71,-662.484 1450.4,-563.628 1449.03,-522.684"/>
</g>
<!-- 11971 -->
<g id="node48" class="node"><title>11971</title>
<g id="a_node48"><a xlink:title="3rd_week">
<ellipse fill="#ee9898" stroke="black" cx="1355.2" cy="-242.477" rx="32.4942" ry="18"/>
<text text-anchor="middle" x="1355.2" y="-238.777" font-family="Times,serif" font-size="14.00">11971</text>
</a>
</g>
</g>
<!-- 11618&#45;&gt;11971 -->
<g id="edge19" class="edge"><title>11618&#45;&gt;11971</title>
<path fill="none" stroke="black" d="M1442.01,-486.448C1424.94,-438.473 1378.51,-307.984 1361.53,-260.263"/>
</g>
<!-- 12819 -->
<g id="node52" class="node"><title>12819</title>
<g id="a_node52"><a xlink:title="3rd_week">
<ellipse fill="#ee9898" stroke="black" cx="1530.35" cy="-671.42" rx="32.4942" ry="18"/>
<text text-anchor="middle" x="1530.35" y="-667.72" font-family="Times,serif" font-size="14.00">12819</text>
</a>
</g>
</g>
<!-- 11618&#45;&gt;12819 -->
<g id="edge32" class="edge"><title>11618&#45;&gt;12819</title>
<path fill="none" stroke="black" d="M1457.03,-522.007C1472.77,-554.074 1505.99,-621.773 1521.73,-653.852"/>
</g>
<!-- 11618&#45;&gt;12859 -->
<g id="edge53" class="edge"><title>11618&#45;&gt;12859</title>
<path fill="none" stroke="black" d="M1458.99,-521.536C1486.04,-565.253 1557.56,-680.828 1584.72,-724.725"/>
</g>
<!-- 12992 -->
<g id="node56" class="node"><title>12992</title>
<g id="a_node56"><a xlink:title="3rd_week">
<ellipse fill="#ee9898" stroke="black" cx="1319.9" cy="-602.955" rx="32.4942" ry="18"/>
<text text-anchor="middle" x="1319.9" y="-599.255" font-family="Times,serif" font-size="14.00">12992</text>
</a>
</g>
</g>
<!-- 11618&#45;&gt;12992 -->
<g id="edge39" class="edge"><title>11618&#45;&gt;12992</title>
<path fill="none" stroke="black" d="M1429.18,-519.201C1404.95,-537.77 1363.57,-569.491 1339.28,-588.107"/>
</g>
<!-- 13110 -->
<g id="node57" class="node"><title>13110</title>
<g id="a_node57"><a xlink:title="3rd_week">
<ellipse fill="#ee9898" stroke="black" cx="1503.32" cy="-326.575" rx="32.4942" ry="18"/>
<text text-anchor="middle" x="1503.32" y="-322.875" font-family="Times,serif" font-size="14.00">13110</text>
</a>
</g>
</g>
<!-- 11618&#45;&gt;13110 -->
<g id="edge34" class="edge"><title>11618&#45;&gt;13110</title>
<path fill="none" stroke="black" d="M1453.98,-486.419C1464.53,-452.238 1487.32,-378.406 1497.82,-344.393"/>
</g>
<!-- 11618&#45;&gt;13328 -->
<g id="edge1" class="edge"><title>11618&#45;&gt;13328</title>
<path fill="none" stroke="black" d="M1469,-518.397C1512.89,-548.138 1615.3,-617.521 1659.45,-647.433"/>
</g>
<!-- 10035 -->
<g id="node63" class="node"><title>10035</title>
<g id="a_node63"><a xlink:title="3rd_week">
<ellipse fill="#ee9898" stroke="black" cx="1296.37" cy="-46.3886" rx="32.4942" ry="18"/>
<text text-anchor="middle" x="1296.37" y="-42.6886" font-family="Times,serif" font-size="14.00">10035</text>
</a>
</g>
</g>
<!-- 11971&#45;&gt;10035 -->
<g id="edge4" class="edge"><title>11971&#45;&gt;10035</title>
<path fill="none" stroke="black" d="M1349.77,-224.381C1338.54,-186.93 1312.86,-101.326 1301.7,-64.1576"/>
</g>
</g>
</svg>
