<?xml version="1.0" encoding="UTF-8" standalone="no"?>
<!DOCTYPE svg PUBLIC "-//W3C//DTD SVG 1.1//EN"
 "http://www.w3.org/Graphics/SVG/1.1/DTD/svg11.dtd">
<!-- Generated by graphviz version 2.38.0 (20140413.2041)
 -->
<!-- Title: %3 Pages: 1 -->
<svg width="1428pt" height="1468pt"
 viewBox="0.00 0.00 1428.00 1468.00" xmlns="http://www.w3.org/2000/svg" xmlns:xlink="http://www.w3.org/1999/xlink">
<g id="graph0" class="graph" transform="scale(1 1) rotate(0) translate(4 1464)">
<title>%3</title>
<polygon fill="white" stroke="none" points="-4,4 -4,-1464 1424,-1464 1424,4 -4,4"/>
<!-- 1093 -->
<g id="node1" class="node"><title>1093</title>
<g id="a_node1"><a xlink:title="Day_0">
<ellipse fill="#e5dada" stroke="black" cx="91.38" cy="-511.719" rx="28.6953" ry="18"/>
<text text-anchor="middle" x="91.38" y="-508.019" font-family="Times,serif" font-size="14.00">1093</text>
</a>
</g>
</g>
<!-- 12467 -->
<g id="node17" class="node"><title>12467</title>
<g id="a_node17"><a xlink:title="Day_0">
<ellipse fill="#e5dada" stroke="black" cx="275.624" cy="-573.375" rx="32.4942" ry="18"/>
<text text-anchor="middle" x="275.624" y="-569.675" font-family="Times,serif" font-size="14.00">12467</text>
</a>
</g>
</g>
<!-- 1093&#45;&gt;12467 -->
<g id="edge12" class="edge"><title>1093&#45;&gt;12467</title>
<path fill="none" stroke="black" d="M116.998,-520.292C151.309,-531.773 211.973,-552.074 247.51,-563.966"/>
</g>
<!-- 1740 -->
<g id="node2" class="node"><title>1740</title>
<g id="a_node2"><a xlink:title="Day_0">
<ellipse fill="#e5dada" stroke="black" cx="300.991" cy="-832.086" rx="28.6953" ry="18"/>
<text text-anchor="middle" x="300.991" y="-828.386" font-family="Times,serif" font-size="14.00">1740</text>
</a>
</g>
</g>
<!-- 14700 -->
<g id="node22" class="node"><title>14700</title>
<g id="a_node22"><a xlink:title="Day_0">
<ellipse fill="#e5dada" stroke="black" cx="465.471" cy="-681.987" rx="32.4942" ry="18"/>
<text text-anchor="middle" x="465.471" y="-678.287" font-family="Times,serif" font-size="14.00">14700</text>
</a>
</g>
</g>
<!-- 1740&#45;&gt;14700 -->
<g id="edge54" class="edge"><title>1740&#45;&gt;14700</title>
<path fill="none" stroke="black" d="M317.363,-817.145C348.566,-788.671 416.275,-726.881 448.18,-697.766"/>
</g>
<!-- 8705 -->
<g id="node39" class="node"><title>8705</title>
<g id="a_node39"><a xlink:title="Day_0">
<ellipse fill="#e5dada" stroke="black" cx="136.499" cy="-921.915" rx="28.6953" ry="18"/>
<text text-anchor="middle" x="136.499" y="-918.215" font-family="Times,serif" font-size="14.00">8705</text>
</a>
</g>
</g>
<!-- 1740&#45;&gt;8705 -->
<g id="edge49" class="edge"><title>1740&#45;&gt;8705</title>
<path fill="none" stroke="black" d="M279.148,-844.015C247.599,-861.243 189.623,-892.904 158.171,-910.08"/>
</g>
<!-- 14469 -->
<g id="node50" class="node"><title>14469</title>
<g id="a_node50"><a xlink:title="Day_0">
<ellipse fill="#e5dada" stroke="black" cx="176.881" cy="-981.348" rx="32.4942" ry="18"/>
<text text-anchor="middle" x="176.881" y="-977.648" font-family="Times,serif" font-size="14.00">14469</text>
</a>
</g>
</g>
<!-- 1740&#45;&gt;14469 -->
<g id="edge16" class="edge"><title>1740&#45;&gt;14469</title>
<path fill="none" stroke="black" d="M287.709,-848.06C264.071,-876.488 214.928,-935.59 190.824,-964.579"/>
</g>
<!-- 2405 -->
<g id="node3" class="node"><title>2405</title>
<g id="a_node3"><a xlink:title="Day_0">
<ellipse fill="#e5dada" stroke="black" cx="604.542" cy="-767.375" rx="28.6953" ry="18"/>
<text text-anchor="middle" x="604.542" y="-763.675" font-family="Times,serif" font-size="14.00">2405</text>
</a>
</g>
</g>
<!-- 2405&#45;&gt;14700 -->
<g id="edge46" class="edge"><title>2405&#45;&gt;14700</title>
<path fill="none" stroke="black" d="M584.022,-754.775C558.181,-738.91 513.967,-711.763 487.454,-695.484"/>
</g>
<!-- 3256 -->
<g id="node4" class="node"><title>3256</title>
<g id="a_node4"><a xlink:title="Day_0">
<ellipse fill="#e5dada" stroke="black" cx="1044.56" cy="-1198.09" rx="28.6953" ry="18"/>
<text text-anchor="middle" x="1044.56" y="-1194.39" font-family="Times,serif" font-size="14.00">3256</text>
</a>
</g>
</g>
<!-- 13966 -->
<g id="node21" class="node"><title>13966</title>
<g id="a_node21"><a xlink:title="Day_0">
<ellipse fill="#e5dada" stroke="black" cx="983.011" cy="-1076.9" rx="32.4942" ry="18"/>
<text text-anchor="middle" x="983.011" y="-1073.2" font-family="Times,serif" font-size="14.00">13966</text>
</a>
</g>
</g>
<!-- 3256&#45;&gt;13966 -->
<g id="edge10" class="edge"><title>3256&#45;&gt;13966</title>
<path fill="none" stroke="black" d="M1035.74,-1180.72C1024.04,-1157.69 1003.51,-1117.25 991.813,-1094.23"/>
</g>
<!-- 4125 -->
<g id="node5" class="node"><title>4125</title>
<g id="a_node5"><a xlink:title="Day_0">
<ellipse fill="#e5dada" stroke="black" cx="724.266" cy="-875.88" rx="28.6953" ry="18"/>
<text text-anchor="middle" x="724.266" y="-872.18" font-family="Times,serif" font-size="14.00">4125</text>
</a>
</g>
</g>
<!-- 4125&#45;&gt;13966 -->
<g id="edge27" class="edge"><title>4125&#45;&gt;13966</title>
<path fill="none" stroke="black" d="M742.461,-890.015C789.738,-926.745 916.119,-1024.93 964.141,-1062.24"/>
</g>
<!-- 4125&#45;&gt;14700 -->
<g id="edge45" class="edge"><title>4125&#45;&gt;14700</title>
<path fill="none" stroke="black" d="M705.654,-861.936C658.252,-826.422 533.315,-732.817 484.966,-696.592"/>
</g>
<!-- 4132 -->
<g id="node6" class="node"><title>4132</title>
<g id="a_node6"><a xlink:title="Day_0">
<ellipse fill="#e5dada" stroke="black" cx="452.807" cy="-408.107" rx="28.6953" ry="18"/>
<text text-anchor="middle" x="452.807" y="-404.407" font-family="Times,serif" font-size="14.00">4132</text>
</a>
</g>
</g>
<!-- 13760 -->
<g id="node19" class="node"><title>13760</title>
<g id="a_node19"><a xlink:title="Day_0">
<ellipse fill="#e5dada" stroke="black" cx="519.732" cy="-235.122" rx="32.4942" ry="18"/>
<text text-anchor="middle" x="519.732" y="-231.422" font-family="Times,serif" font-size="14.00">13760</text>
</a>
</g>
</g>
<!-- 4132&#45;&gt;13760 -->
<g id="edge17" class="edge"><title>4132&#45;&gt;13760</title>
<path fill="none" stroke="black" d="M459.592,-390.568C472.386,-357.499 499.945,-286.269 512.829,-252.966"/>
</g>
<!-- 4132&#45;&gt;14700 -->
<g id="edge43" class="edge"><title>4132&#45;&gt;14700</title>
<path fill="none" stroke="black" d="M453.657,-426.502C455.964,-476.396 462.321,-613.872 464.624,-663.671"/>
</g>
<!-- 17299 -->
<g id="node28" class="node"><title>17299</title>
<g id="a_node28"><a xlink:title="Day_0">
<ellipse fill="#e5dada" stroke="black" cx="450.788" cy="-184.086" rx="32.4942" ry="18"/>
<text text-anchor="middle" x="450.788" y="-180.386" font-family="Times,serif" font-size="14.00">17299</text>
</a>
</g>
</g>
<!-- 4132&#45;&gt;17299 -->
<g id="edge7" class="edge"><title>4132&#45;&gt;17299</title>
<path fill="none" stroke="black" d="M452.641,-389.774C452.262,-347.662 451.332,-244.411 450.953,-202.358"/>
</g>
<!-- 3132 -->
<g id="node33" class="node"><title>3132</title>
<g id="a_node33"><a xlink:title="Day_0">
<ellipse fill="#e5dada" stroke="black" cx="340.2" cy="-270.792" rx="28.6953" ry="18"/>
<text text-anchor="middle" x="340.2" y="-267.092" font-family="Times,serif" font-size="14.00">3132</text>
</a>
</g>
</g>
<!-- 4132&#45;&gt;3132 -->
<g id="edge32" class="edge"><title>4132&#45;&gt;3132</title>
<path fill="none" stroke="black" d="M439.669,-392.086C418.087,-365.769 375.357,-313.664 353.603,-287.136"/>
</g>
<!-- 13293 -->
<g id="node48" class="node"><title>13293</title>
<g id="a_node48"><a xlink:title="Day_0">
<ellipse fill="#e5dada" stroke="black" cx="426.936" cy="-236.264" rx="32.4942" ry="18"/>
<text text-anchor="middle" x="426.936" y="-232.564" font-family="Times,serif" font-size="14.00">13293</text>
</a>
</g>
</g>
<!-- 4132&#45;&gt;13293 -->
<g id="edge50" class="edge"><title>4132&#45;&gt;13293</title>
<path fill="none" stroke="black" d="M450.087,-390.041C445.118,-357.038 434.628,-287.361 429.658,-254.345"/>
</g>
<!-- 4156 -->
<g id="node7" class="node"><title>4156</title>
<g id="a_node7"><a xlink:title="Day_0">
<ellipse fill="#e5dada" stroke="black" cx="567.233" cy="-558.799" rx="28.6953" ry="18"/>
<text text-anchor="middle" x="567.233" y="-555.099" font-family="Times,serif" font-size="14.00">4156</text>
</a>
</g>
</g>
<!-- 4156&#45;&gt;14700 -->
<g id="edge8" class="edge"><title>4156&#45;&gt;14700</title>
<path fill="none" stroke="black" d="M553.929,-574.904C534.534,-598.382 498.681,-641.784 479.103,-665.485"/>
</g>
<!-- 4401 -->
<g id="node8" class="node"><title>4401</title>
<g id="a_node8"><a xlink:title="Day_0">
<ellipse fill="#e5dada" stroke="black" cx="712.918" cy="-341.418" rx="28.6953" ry="18"/>
<text text-anchor="middle" x="712.918" y="-337.718" font-family="Times,serif" font-size="14.00">4401</text>
</a>
</g>
</g>
<!-- 17945 -->
<g id="node30" class="node"><title>17945</title>
<g id="a_node30"><a xlink:title="Day_0">
<ellipse fill="#e5dada" stroke="black" cx="623.35" cy="-508.288" rx="32.4942" ry="18"/>
<text text-anchor="middle" x="623.35" y="-504.588" font-family="Times,serif" font-size="14.00">17945</text>
</a>
</g>
</g>
<!-- 4401&#45;&gt;17945 -->
<g id="edge22" class="edge"><title>4401&#45;&gt;17945</title>
<path fill="none" stroke="black" d="M703.67,-358.647C686.507,-390.624 649.909,-458.808 632.682,-490.902"/>
</g>
<!-- 4991 -->
<g id="node9" class="node"><title>4991</title>
<g id="a_node9"><a xlink:title="Day_0">
<ellipse fill="#e5dada" stroke="black" cx="343.146" cy="-618.938" rx="28.6953" ry="18"/>
<text text-anchor="middle" x="343.146" y="-615.238" font-family="Times,serif" font-size="14.00">4991</text>
</a>
</g>
</g>
<!-- 4991&#45;&gt;14700 -->
<g id="edge41" class="edge"><title>4991&#45;&gt;14700</title>
<path fill="none" stroke="black" d="M365.299,-630.356C386.779,-641.427 419.278,-658.178 441.39,-669.575"/>
</g>
<!-- 6123 -->
<g id="node10" class="node"><title>6123</title>
<g id="a_node10"><a xlink:title="Day_0">
<ellipse fill="#e5dada" stroke="black" cx="771.77" cy="-390.348" rx="28.6953" ry="18"/>
<text text-anchor="middle" x="771.77" y="-386.648" font-family="Times,serif" font-size="14.00">6123</text>
</a>
</g>
</g>
<!-- 6123&#45;&gt;17945 -->
<g id="edge39" class="edge"><title>6123&#45;&gt;17945</title>
<path fill="none" stroke="black" d="M753.867,-404.575C725.648,-426.998 671.079,-470.36 642.252,-493.267"/>
</g>
<!-- 6568 -->
<g id="node11" class="node"><title>6568</title>
<g id="a_node11"><a xlink:title="Day_0">
<ellipse fill="#e5dada" stroke="black" cx="587.09" cy="-627.556" rx="28.6953" ry="18"/>
<text text-anchor="middle" x="587.09" y="-623.856" font-family="Times,serif" font-size="14.00">6568</text>
</a>
</g>
</g>
<!-- 6568&#45;&gt;14700 -->
<g id="edge3" class="edge"><title>6568&#45;&gt;14700</title>
<path fill="none" stroke="black" d="M563.641,-638.051C542.795,-647.38 512.386,-660.99 490.948,-670.584"/>
</g>
<!-- 6830 -->
<g id="node12" class="node"><title>6830</title>
<g id="a_node12"><a xlink:title="Day_0">
<ellipse fill="#e5dada" stroke="black" cx="408.336" cy="-904.013" rx="28.6953" ry="18"/>
<text text-anchor="middle" x="408.336" y="-900.313" font-family="Times,serif" font-size="14.00">6830</text>
</a>
</g>
</g>
<!-- 6830&#45;&gt;14700 -->
<g id="edge42" class="edge"><title>6830&#45;&gt;14700</title>
<path fill="none" stroke="black" d="M412.915,-886.219C423.613,-844.647 450.151,-741.522 460.87,-699.865"/>
</g>
<!-- 11231 -->
<g id="node43" class="node"><title>11231</title>
<g id="a_node43"><a xlink:title="Day_0">
<ellipse fill="#e5dada" stroke="black" cx="308.156" cy="-1065.44" rx="32.4942" ry="18"/>
<text text-anchor="middle" x="308.156" y="-1061.74" font-family="Times,serif" font-size="14.00">11231</text>
</a>
</g>
</g>
<!-- 6830&#45;&gt;11231 -->
<g id="edge53" class="edge"><title>6830&#45;&gt;11231</title>
<path fill="none" stroke="black" d="M397.804,-920.984C378.614,-951.907 338.156,-1017.1 318.848,-1048.21"/>
</g>
<!-- 15830 -->
<g id="node52" class="node"><title>15830</title>
<g id="a_node52"><a xlink:title="Day_0">
<ellipse fill="#e5dada" stroke="black" cx="395.122" cy="-1089.72" rx="32.4942" ry="18"/>
<text text-anchor="middle" x="395.122" y="-1086.02" font-family="Times,serif" font-size="14.00">15830</text>
</a>
</g>
</g>
<!-- 6830&#45;&gt;15830 -->
<g id="edge56" class="edge"><title>6830&#45;&gt;15830</title>
<path fill="none" stroke="black" d="M407.045,-922.158C404.519,-957.662 398.949,-1035.94 396.419,-1071.5"/>
</g>
<!-- 6892 -->
<g id="node13" class="node"><title>6892</title>
<g id="a_node13"><a xlink:title="Day_0">
<ellipse fill="#e5dada" stroke="black" cx="126.063" cy="-450.383" rx="28.6953" ry="18"/>
<text text-anchor="middle" x="126.063" y="-446.683" font-family="Times,serif" font-size="14.00">6892</text>
</a>
</g>
</g>
<!-- 6892&#45;&gt;12467 -->
<g id="edge35" class="edge"><title>6892&#45;&gt;12467</title>
<path fill="none" stroke="black" d="M143.513,-464.733C172.023,-488.178 228.32,-534.474 257.354,-558.35"/>
</g>
<!-- 7517 -->
<g id="node14" class="node"><title>7517</title>
<g id="a_node14"><a xlink:title="Day_0">
<ellipse fill="#e5dada" stroke="black" cx="324.808" cy="-695.619" rx="28.6953" ry="18"/>
<text text-anchor="middle" x="324.808" y="-691.919" font-family="Times,serif" font-size="14.00">7517</text>
</a>
</g>
</g>
<!-- 7517&#45;&gt;14700 -->
<g id="edge11" class="edge"><title>7517&#45;&gt;14700</title>
<path fill="none" stroke="black" d="M353.274,-692.86C376.393,-690.619 409.003,-687.459 433.112,-685.123"/>
</g>
<!-- 9116 -->
<g id="node15" class="node"><title>9116</title>
<g id="a_node15"><a xlink:title="Day_0">
<ellipse fill="#e5dada" stroke="black" cx="228.173" cy="-706.485" rx="28.6953" ry="18"/>
<text text-anchor="middle" x="228.173" y="-702.785" font-family="Times,serif" font-size="14.00">9116</text>
</a>
</g>
</g>
<!-- 9116&#45;&gt;14700 -->
<g id="edge34" class="edge"><title>9116&#45;&gt;14700</title>
<path fill="none" stroke="black" d="M256.797,-703.53C301.297,-698.936 386.784,-690.11 433.338,-685.304"/>
</g>
<!-- 10892 -->
<g id="node41" class="node"><title>10892</title>
<g id="a_node41"><a xlink:title="Day_0">
<ellipse fill="#e5dada" stroke="black" cx="49.5314" cy="-785.575" rx="32.4942" ry="18"/>
<text text-anchor="middle" x="49.5314" y="-781.875" font-family="Times,serif" font-size="14.00">10892</text>
</a>
</g>
</g>
<!-- 9116&#45;&gt;10892 -->
<g id="edge6" class="edge"><title>9116&#45;&gt;10892</title>
<path fill="none" stroke="black" d="M204.451,-716.987C170.852,-731.862 109.656,-758.956 75.0863,-774.261"/>
</g>
<!-- 15322 -->
<g id="node51" class="node"><title>15322</title>
<g id="a_node51"><a xlink:title="Day_0">
<ellipse fill="#e5dada" stroke="black" cx="32.428" cy="-722.944" rx="32.4942" ry="18"/>
<text text-anchor="middle" x="32.428" y="-719.244" font-family="Times,serif" font-size="14.00">15322</text>
</a>
</g>
</g>
<!-- 9116&#45;&gt;15322 -->
<g id="edge23" class="edge"><title>9116&#45;&gt;15322</title>
<path fill="none" stroke="black" d="M199.71,-708.878C163.87,-711.892 102.448,-717.056 64.8388,-720.219"/>
</g>
<!-- 14357 -->
<g id="node56" class="node"><title>14357</title>
<g id="a_node56"><a xlink:title="Day_0">
<ellipse fill="#e5dada" stroke="black" cx="40.9439" cy="-659.014" rx="32.4942" ry="18"/>
<text text-anchor="middle" x="40.9439" y="-655.314" font-family="Times,serif" font-size="14.00">14357</text>
</a>
</g>
</g>
<!-- 9116&#45;&gt;14357 -->
<g id="edge31" class="edge"><title>9116&#45;&gt;14357</title>
<path fill="none" stroke="black" d="M201.347,-699.683C166.665,-690.89 106.463,-675.626 70.4995,-666.508"/>
</g>
<!-- 9352 -->
<g id="node16" class="node"><title>9352</title>
<g id="a_node16"><a xlink:title="Day_0">
<ellipse fill="#e5dada" stroke="black" cx="352.702" cy="-765.934" rx="28.6953" ry="18"/>
<text text-anchor="middle" x="352.702" y="-762.234" font-family="Times,serif" font-size="14.00">9352</text>
</a>
</g>
</g>
<!-- 9352&#45;&gt;14700 -->
<g id="edge9" class="edge"><title>9352&#45;&gt;14700</title>
<path fill="none" stroke="black" d="M371.323,-752.072C391.968,-736.704 425.111,-712.031 446.065,-696.433"/>
</g>
<!-- 12467&#45;&gt;14700 -->
<g id="edge36" class="edge"><title>12467&#45;&gt;14700</title>
<path fill="none" stroke="black" d="M298.524,-586.476C335.112,-607.408 406.333,-648.154 442.785,-669.008"/>
</g>
<!-- 12763 -->
<g id="node18" class="node"><title>12763</title>
<g id="a_node18"><a xlink:title="Day_0">
<ellipse fill="#e5dada" stroke="black" cx="410.144" cy="-822.519" rx="32.4942" ry="18"/>
<text text-anchor="middle" x="410.144" y="-818.819" font-family="Times,serif" font-size="14.00">12763</text>
</a>
</g>
</g>
<!-- 12763&#45;&gt;14700 -->
<g id="edge44" class="edge"><title>12763&#45;&gt;14700</title>
<path fill="none" stroke="black" d="M417.152,-804.721C427.794,-777.689 447.912,-726.587 458.521,-699.641"/>
</g>
<!-- 13799 -->
<g id="node20" class="node"><title>13799</title>
<g id="a_node20"><a xlink:title="Day_0">
<ellipse fill="#e5dada" stroke="black" cx="483.316" cy="-517.009" rx="32.4942" ry="18"/>
<text text-anchor="middle" x="483.316" y="-513.309" font-family="Times,serif" font-size="14.00">13799</text>
</a>
</g>
</g>
<!-- 13799&#45;&gt;14700 -->
<g id="edge14" class="edge"><title>13799&#45;&gt;14700</title>
<path fill="none" stroke="black" d="M481.372,-534.979C477.949,-566.63 470.881,-631.975 467.439,-663.788"/>
</g>
<!-- 1319 -->
<g id="node31" class="node"><title>1319</title>
<g id="a_node31"><a xlink:title="Day_0">
<ellipse fill="#e5dada" stroke="black" cx="1201.54" cy="-1239.7" rx="28.6953" ry="18"/>
<text text-anchor="middle" x="1201.54" y="-1236" font-family="Times,serif" font-size="14.00">1319</text>
</a>
</g>
</g>
<!-- 13966&#45;&gt;1319 -->
<g id="edge15" class="edge"><title>13966&#45;&gt;1319</title>
<path fill="none" stroke="black" d="M1002.4,-1091.34C1044.08,-1122.4 1141.74,-1195.15 1182.82,-1225.75"/>
</g>
<!-- 4661 -->
<g id="node35" class="node"><title>4661</title>
<g id="a_node35"><a xlink:title="Day_0">
<ellipse fill="#e5dada" stroke="black" cx="1112.34" cy="-1114.12" rx="28.6953" ry="18"/>
<text text-anchor="middle" x="1112.34" y="-1110.42" font-family="Times,serif" font-size="14.00">4661</text>
</a>
</g>
</g>
<!-- 13966&#45;&gt;4661 -->
<g id="edge18" class="edge"><title>13966&#45;&gt;4661</title>
<path fill="none" stroke="black" d="M1012.03,-1085.25C1034.23,-1091.64 1064.57,-1100.37 1086.05,-1106.55"/>
</g>
<!-- 6648 -->
<g id="node36" class="node"><title>6648</title>
<g id="a_node36"><a xlink:title="Day_0">
<ellipse fill="#e5dada" stroke="black" cx="1152.27" cy="-1020.48" rx="28.6953" ry="18"/>
<text text-anchor="middle" x="1152.27" y="-1016.78" font-family="Times,serif" font-size="14.00">6648</text>
</a>
</g>
</g>
<!-- 13966&#45;&gt;6648 -->
<g id="edge51" class="edge"><title>13966&#45;&gt;6648</title>
<path fill="none" stroke="black" d="M1010.96,-1067.58C1043.17,-1056.84 1095.64,-1039.35 1126.77,-1028.98"/>
</g>
<!-- 9934 -->
<g id="node40" class="node"><title>9934</title>
<g id="a_node40"><a xlink:title="Day_0">
<ellipse fill="#e5dada" stroke="black" cx="916.313" cy="-1204.28" rx="28.6953" ry="18"/>
<text text-anchor="middle" x="916.313" y="-1200.58" font-family="Times,serif" font-size="14.00">9934</text>
</a>
</g>
</g>
<!-- 13966&#45;&gt;9934 -->
<g id="edge26" class="edge"><title>13966&#45;&gt;9934</title>
<path fill="none" stroke="black" d="M973.876,-1094.34C961.104,-1118.74 938.05,-1162.77 925.337,-1187.04"/>
</g>
<!-- 12116 -->
<g id="node44" class="node"><title>12116</title>
<g id="a_node44"><a xlink:title="Day_0">
<ellipse fill="#e5dada" stroke="black" cx="968.736" cy="-1262.59" rx="32.4942" ry="18"/>
<text text-anchor="middle" x="968.736" y="-1258.89" font-family="Times,serif" font-size="14.00">12116</text>
</a>
</g>
</g>
<!-- 13966&#45;&gt;12116 -->
<g id="edge48" class="edge"><title>13966&#45;&gt;12116</title>
<path fill="none" stroke="black" d="M981.616,-1095.04C978.887,-1130.54 972.87,-1208.82 970.136,-1244.38"/>
</g>
<!-- 18107 -->
<g id="node54" class="node"><title>18107</title>
<g id="a_node54"><a xlink:title="Day_0">
<ellipse fill="#e5dada" stroke="black" cx="1091.94" cy="-976.04" rx="32.4942" ry="18"/>
<text text-anchor="middle" x="1091.94" y="-972.34" font-family="Times,serif" font-size="14.00">18107</text>
</a>
</g>
</g>
<!-- 13966&#45;&gt;18107 -->
<g id="edge2" class="edge"><title>13966&#45;&gt;18107</title>
<path fill="none" stroke="black" d="M1000.03,-1061.14C1020.5,-1042.19 1054.63,-1010.59 1075.04,-991.688"/>
</g>
<!-- 15183 -->
<g id="node23" class="node"><title>15183</title>
<g id="a_node23"><a xlink:title="Day_0">
<ellipse fill="#e5dada" stroke="black" cx="429.728" cy="-561.355" rx="32.4942" ry="18"/>
<text text-anchor="middle" x="429.728" y="-557.655" font-family="Times,serif" font-size="14.00">15183</text>
</a>
</g>
</g>
<!-- 14700&#45;&gt;15183 -->
<g id="edge37" class="edge"><title>14700&#45;&gt;15183</title>
<path fill="none" stroke="black" d="M460.197,-664.187C453.439,-641.38 441.792,-602.07 435.024,-579.228"/>
</g>
<!-- 15432 -->
<g id="node24" class="node"><title>15432</title>
<g id="a_node24"><a xlink:title="Day_0">
<ellipse fill="#e5dada" stroke="black" cx="563.557" cy="-822.491" rx="32.4942" ry="18"/>
<text text-anchor="middle" x="563.557" y="-818.791" font-family="Times,serif" font-size="14.00">15432</text>
</a>
</g>
</g>
<!-- 14700&#45;&gt;15432 -->
<g id="edge21" class="edge"><title>14700&#45;&gt;15432</title>
<path fill="none" stroke="black" d="M477.303,-698.935C496.155,-725.94 532.805,-778.439 551.684,-805.483"/>
</g>
<!-- 15517 -->
<g id="node25" class="node"><title>15517</title>
<g id="a_node25"><a xlink:title="Day_0">
<ellipse fill="#e5dada" stroke="black" cx="356.165" cy="-522.375" rx="32.4942" ry="18"/>
<text text-anchor="middle" x="356.165" y="-518.675" font-family="Times,serif" font-size="14.00">15517</text>
</a>
</g>
</g>
<!-- 14700&#45;&gt;15517 -->
<g id="edge13" class="edge"><title>14700&#45;&gt;15517</title>
<path fill="none" stroke="black" d="M453.773,-664.905C432.735,-634.185 388.755,-569.965 367.778,-539.333"/>
</g>
<!-- 16208 -->
<g id="node26" class="node"><title>16208</title>
<g id="a_node26"><a xlink:title="Day_0">
<ellipse fill="#e5dada" stroke="black" cx="638.379" cy="-706.212" rx="32.4942" ry="18"/>
<text text-anchor="middle" x="638.379" y="-702.512" font-family="Times,serif" font-size="14.00">16208</text>
</a>
</g>
</g>
<!-- 14700&#45;&gt;16208 -->
<g id="edge4" class="edge"><title>14700&#45;&gt;16208</title>
<path fill="none" stroke="black" d="M497.185,-686.43C528.383,-690.801 575.738,-697.435 606.866,-701.797"/>
</g>
<!-- 16613 -->
<g id="node27" class="node"><title>16613</title>
<g id="a_node27"><a xlink:title="Day_0">
<ellipse fill="#e5dada" stroke="black" cx="488.88" cy="-846.341" rx="32.4942" ry="18"/>
<text text-anchor="middle" x="488.88" y="-842.641" font-family="Times,serif" font-size="14.00">16613</text>
</a>
</g>
</g>
<!-- 14700&#45;&gt;16613 -->
<g id="edge5" class="edge"><title>14700&#45;&gt;16613</title>
<path fill="none" stroke="black" d="M468.066,-700.203C472.565,-731.796 481.766,-796.394 486.274,-828.043"/>
</g>
<!-- 17764 -->
<g id="node29" class="node"><title>17764</title>
<g id="a_node29"><a xlink:title="Day_0">
<ellipse fill="#e5dada" stroke="black" cx="682.515" cy="-615.906" rx="32.4942" ry="18"/>
<text text-anchor="middle" x="682.515" y="-612.206" font-family="Times,serif" font-size="14.00">17764</text>
</a>
</g>
</g>
<!-- 14700&#45;&gt;17764 -->
<g id="edge28" class="edge"><title>14700&#45;&gt;17764</title>
<path fill="none" stroke="black" d="M494.293,-673.212C535.921,-660.538 612.418,-637.247 653.919,-624.612"/>
</g>
<!-- 14700&#45;&gt;17945 -->
<g id="edge33" class="edge"><title>14700&#45;&gt;17945</title>
<path fill="none" stroke="black" d="M480.324,-665.645C510.414,-632.54 578.268,-557.887 608.422,-524.712"/>
</g>
<!-- 7330 -->
<g id="node37" class="node"><title>7330</title>
<g id="a_node37"><a xlink:title="Day_0">
<ellipse fill="#e5dada" stroke="black" cx="233.761" cy="-375.032" rx="28.6953" ry="18"/>
<text text-anchor="middle" x="233.761" y="-371.332" font-family="Times,serif" font-size="14.00">7330</text>
</a>
</g>
</g>
<!-- 15517&#45;&gt;7330 -->
<g id="edge30" class="edge"><title>15517&#45;&gt;7330</title>
<path fill="none" stroke="black" d="M342.362,-505.759C318.728,-477.31 270.797,-419.614 247.328,-391.362"/>
</g>
<!-- 12146 -->
<g id="node45" class="node"><title>12146</title>
<g id="a_node45"><a xlink:title="Day_0">
<ellipse fill="#e5dada" stroke="black" cx="442.314" cy="-17.9868" rx="32.4942" ry="18"/>
<text text-anchor="middle" x="442.314" y="-14.2868" font-family="Times,serif" font-size="14.00">12146</text>
</a>
</g>
</g>
<!-- 17299&#45;&gt;12146 -->
<g id="edge20" class="edge"><title>17299&#45;&gt;12146</title>
<path fill="none" stroke="black" d="M449.865,-165.995C448.235,-134.044 444.865,-67.9911 443.236,-36.0563"/>
</g>
<!-- 13270 -->
<g id="node47" class="node"><title>13270</title>
<g id="a_node47"><a xlink:title="Day_0">
<ellipse fill="#e5dada" stroke="black" cx="833.42" cy="-553.61" rx="32.4942" ry="18"/>
<text text-anchor="middle" x="833.42" y="-549.91" font-family="Times,serif" font-size="14.00">13270</text>
</a>
</g>
</g>
<!-- 17764&#45;&gt;13270 -->
<g id="edge47" class="edge"><title>17764&#45;&gt;13270</title>
<path fill="none" stroke="black" d="M708.8,-605.055C736.414,-593.655 779.588,-575.832 807.183,-564.441"/>
</g>
<!-- 2775 -->
<g id="node32" class="node"><title>2775</title>
<g id="a_node32"><a xlink:title="Day_0">
<ellipse fill="#e5dada" stroke="black" cx="1366.56" cy="-1195.16" rx="28.6953" ry="18"/>
<text text-anchor="middle" x="1366.56" y="-1191.46" font-family="Times,serif" font-size="14.00">2775</text>
</a>
</g>
</g>
<!-- 1319&#45;&gt;2775 -->
<g id="edge1" class="edge"><title>1319&#45;&gt;2775</title>
<path fill="none" stroke="black" d="M1228.06,-1232.55C1258.85,-1224.23 1309.35,-1210.6 1340.11,-1202.3"/>
</g>
<!-- 4637 -->
<g id="node34" class="node"><title>4637</title>
<g id="a_node34"><a xlink:title="Day_0">
<ellipse fill="#e5dada" stroke="black" cx="1195.4" cy="-1412.49" rx="28.6953" ry="18"/>
<text text-anchor="middle" x="1195.4" y="-1408.79" font-family="Times,serif" font-size="14.00">4637</text>
</a>
</g>
</g>
<!-- 1319&#45;&gt;4637 -->
<g id="edge55" class="edge"><title>1319&#45;&gt;4637</title>
<path fill="none" stroke="black" d="M1200.9,-1257.87C1199.72,-1291.05 1197.23,-1361.11 1196.05,-1394.31"/>
</g>
<!-- 7524 -->
<g id="node38" class="node"><title>7524</title>
<g id="a_node38"><a xlink:title="Day_0">
<ellipse fill="#e5dada" stroke="black" cx="1273.7" cy="-1350.76" rx="28.6953" ry="18"/>
<text text-anchor="middle" x="1273.7" y="-1347.06" font-family="Times,serif" font-size="14.00">7524</text>
</a>
</g>
</g>
<!-- 1319&#45;&gt;7524 -->
<g id="edge19" class="edge"><title>1319&#45;&gt;7524</title>
<path fill="none" stroke="black" d="M1212.5,-1256.57C1226.15,-1277.56 1249.3,-1313.2 1262.88,-1334.09"/>
</g>
<!-- 11163 -->
<g id="node42" class="node"><title>11163</title>
<g id="a_node42"><a xlink:title="Day_0">
<ellipse fill="#e5dada" stroke="black" cx="1285.28" cy="-1418.75" rx="32.4942" ry="18"/>
<text text-anchor="middle" x="1285.28" y="-1415.05" font-family="Times,serif" font-size="14.00">11163</text>
</a>
</g>
</g>
<!-- 1319&#45;&gt;11163 -->
<g id="edge52" class="edge"><title>1319&#45;&gt;11163</title>
<path fill="none" stroke="black" d="M1209.73,-1257.2C1225.73,-1291.43 1261.03,-1366.9 1277.07,-1401.19"/>
</g>
<!-- 13523 -->
<g id="node49" class="node"><title>13523</title>
<g id="a_node49"><a xlink:title="Day_0">
<ellipse fill="#e5dada" stroke="black" cx="1379.72" cy="-1311.88" rx="32.4942" ry="18"/>
<text text-anchor="middle" x="1379.72" y="-1308.18" font-family="Times,serif" font-size="14.00">13523</text>
</a>
</g>
</g>
<!-- 1319&#45;&gt;13523 -->
<g id="edge24" class="edge"><title>1319&#45;&gt;13523</title>
<path fill="none" stroke="black" d="M1225.94,-1249.59C1259.3,-1263.1 1318.91,-1287.24 1353.3,-1301.17"/>
</g>
<!-- 16795 -->
<g id="node53" class="node"><title>16795</title>
<g id="a_node53"><a xlink:title="Day_0">
<ellipse fill="#e5dada" stroke="black" cx="1351.57" cy="-1362.44" rx="32.4942" ry="18"/>
<text text-anchor="middle" x="1351.57" y="-1358.74" font-family="Times,serif" font-size="14.00">16795</text>
</a>
</g>
</g>
<!-- 1319&#45;&gt;16795 -->
<g id="edge40" class="edge"><title>1319&#45;&gt;16795</title>
<path fill="none" stroke="black" d="M1219.05,-1254.02C1247.65,-1277.42 1304.12,-1323.62 1333.24,-1347.44"/>
</g>
<!-- 18099 -->
<g id="node57" class="node"><title>18099</title>
<g id="a_node57"><a xlink:title="Day_0">
<ellipse fill="#e5dada" stroke="black" cx="1387.49" cy="-1254.83" rx="32.4942" ry="18"/>
<text text-anchor="middle" x="1387.49" y="-1251.13" font-family="Times,serif" font-size="14.00">18099</text>
</a>
</g>
</g>
<!-- 1319&#45;&gt;18099 -->
<g id="edge29" class="edge"><title>1319&#45;&gt;18099</title>
<path fill="none" stroke="black" d="M1230.19,-1242.03C1263.91,-1244.78 1319.77,-1249.32 1355.05,-1252.19"/>
</g>
<!-- 12963 -->
<g id="node46" class="node"><title>12963</title>
<g id="a_node46"><a xlink:title="Day_0">
<ellipse fill="#e5dada" stroke="black" cx="1323.41" cy="-965.957" rx="32.4942" ry="18"/>
<text text-anchor="middle" x="1323.41" y="-962.257" font-family="Times,serif" font-size="14.00">12963</text>
</a>
</g>
</g>
<!-- 6648&#45;&gt;12963 -->
<g id="edge25" class="edge"><title>6648&#45;&gt;12963</title>
<path fill="none" stroke="black" d="M1177.89,-1012.31C1209.32,-1002.3 1262.41,-985.388 1295.04,-974.994"/>
</g>
<!-- 7595 -->
<g id="node55" class="node"><title>7595</title>
<g id="a_node55"><a xlink:title="Day_0">
<ellipse fill="#e5dada" stroke="black" cx="960.296" cy="-1442.5" rx="28.6953" ry="18"/>
<text text-anchor="middle" x="960.296" y="-1438.8" font-family="Times,serif" font-size="14.00">7595</text>
</a>
</g>
</g>
<!-- 12116&#45;&gt;7595 -->
<g id="edge38" class="edge"><title>12116&#45;&gt;7595</title>
<path fill="none" stroke="black" d="M967.88,-1280.83C966.258,-1315.4 962.756,-1390.08 961.142,-1424.48"/>
</g>
</g>
</svg>
