<?xml version="1.0" encoding="UTF-8" standalone="no"?>
<!DOCTYPE svg PUBLIC "-//W3C//DTD SVG 1.1//EN"
 "http://www.w3.org/Graphics/SVG/1.1/DTD/svg11.dtd">
<!-- Generated by graphviz version 2.38.0 (20140413.2041)
 -->
<!-- Title: %3 Pages: 1 -->
<svg width="1410pt" height="1885pt"
 viewBox="0.00 0.00 1410.00 1885.00" xmlns="http://www.w3.org/2000/svg" xmlns:xlink="http://www.w3.org/1999/xlink">
<g id="graph0" class="graph" transform="scale(1 1) rotate(0) translate(4 1881)">
<title>%3</title>
<polygon fill="white" stroke="none" points="-4,4 -4,-1881 1406,-1881 1406,4 -4,4"/>
<!-- 362 -->
<g id="node1" class="node"><title>362</title>
<g id="a_node1"><a xlink:title="3rd_week">
<ellipse fill="#ee9898" stroke="black" cx="446.467" cy="-188.516" rx="27" ry="18"/>
<text text-anchor="middle" x="446.467" y="-184.816" font-family="Times,serif" font-size="14.00">362</text>
</a>
</g>
</g>
<!-- 9022 -->
<g id="node11" class="node"><title>9022</title>
<g id="a_node11"><a xlink:title="3rd_week">
<ellipse fill="#ee9898" stroke="black" cx="488.863" cy="-21.7475" rx="28.6953" ry="18"/>
<text text-anchor="middle" x="488.863" y="-18.0475" font-family="Times,serif" font-size="14.00">9022</text>
</a>
</g>
</g>
<!-- 362&#45;&gt;9022 -->
<g id="edge42" class="edge"><title>362&#45;&gt;9022</title>
<path fill="none" stroke="black" d="M451.004,-170.668C459.143,-138.654 476.133,-71.8219 484.294,-39.7183"/>
</g>
<!-- 11638 -->
<g id="node15" class="node"><title>11638</title>
<g id="a_node15"><a xlink:title="3rd_week">
<ellipse fill="#ee9898" stroke="black" cx="398.423" cy="-17.9276" rx="32.4942" ry="18"/>
<text text-anchor="middle" x="398.423" y="-14.2276" font-family="Times,serif" font-size="14.00">11638</text>
</a>
</g>
</g>
<!-- 362&#45;&gt;11638 -->
<g id="edge20" class="edge"><title>362&#45;&gt;11638</title>
<path fill="none" stroke="black" d="M441.416,-170.582C432.189,-137.819 412.709,-68.6512 403.478,-35.8767"/>
</g>
<!-- 17564 -->
<g id="node25" class="node"><title>17564</title>
<g id="a_node25"><a xlink:title="3rd_week">
<ellipse fill="#ee9898" stroke="black" cx="447.164" cy="-393.648" rx="32.4942" ry="18"/>
<text text-anchor="middle" x="447.164" y="-389.948" font-family="Times,serif" font-size="14.00">17564</text>
</a>
</g>
</g>
<!-- 362&#45;&gt;17564 -->
<g id="edge26" class="edge"><title>362&#45;&gt;17564</title>
<path fill="none" stroke="black" d="M446.529,-206.72C446.661,-245.647 446.97,-336.593 447.102,-375.484"/>
</g>
<!-- 1139 -->
<g id="node2" class="node"><title>1139</title>
<g id="a_node2"><a xlink:title="3rd_week">
<ellipse fill="#ee9898" stroke="black" cx="659.641" cy="-722.543" rx="28.6953" ry="18"/>
<text text-anchor="middle" x="659.641" y="-718.843" font-family="Times,serif" font-size="14.00">1139</text>
</a>
</g>
</g>
<!-- 15853 -->
<g id="node21" class="node"><title>15853</title>
<g id="a_node21"><a xlink:title="3rd_week">
<ellipse fill="#ee9898" stroke="black" cx="444.89" cy="-665.944" rx="32.4942" ry="18"/>
<text text-anchor="middle" x="444.89" y="-662.244" font-family="Times,serif" font-size="14.00">15853</text>
</a>
</g>
</g>
<!-- 1139&#45;&gt;15853 -->
<g id="edge23" class="edge"><title>1139&#45;&gt;15853</title>
<path fill="none" stroke="black" d="M632.877,-715.489C592.512,-704.851 516.33,-684.773 474.404,-673.723"/>
</g>
<!-- 29248 -->
<g id="node42" class="node"><title>29248</title>
<g id="a_node42"><a xlink:title="3rd_week">
<ellipse fill="#ee9898" stroke="black" cx="849.551" cy="-768.012" rx="32.4942" ry="18"/>
<text text-anchor="middle" x="849.551" y="-764.312" font-family="Times,serif" font-size="14.00">29248</text>
</a>
</g>
</g>
<!-- 1139&#45;&gt;29248 -->
<g id="edge49" class="edge"><title>1139&#45;&gt;29248</title>
<path fill="none" stroke="black" d="M686.448,-728.961C721.517,-737.358 782.799,-752.03 819.434,-760.801"/>
</g>
<!-- 1465 -->
<g id="node3" class="node"><title>1465</title>
<g id="a_node3"><a xlink:title="3rd_week">
<ellipse fill="#ee9898" stroke="black" cx="315.803" cy="-711.042" rx="28.6953" ry="18"/>
<text text-anchor="middle" x="315.803" y="-707.342" font-family="Times,serif" font-size="14.00">1465</text>
</a>
</g>
</g>
<!-- 1465&#45;&gt;15853 -->
<g id="edge5" class="edge"><title>1465&#45;&gt;15853</title>
<path fill="none" stroke="black" d="M340.999,-702.24C362.863,-694.601 394.47,-683.559 417.072,-675.662"/>
</g>
<!-- 3034 -->
<g id="node4" class="node"><title>3034</title>
<g id="a_node4"><a xlink:title="3rd_week">
<ellipse fill="#ee9898" stroke="black" cx="595.253" cy="-614.411" rx="28.6953" ry="18"/>
<text text-anchor="middle" x="595.253" y="-610.711" font-family="Times,serif" font-size="14.00">3034</text>
</a>
</g>
</g>
<!-- 3034&#45;&gt;15853 -->
<g id="edge39" class="edge"><title>3034&#45;&gt;15853</title>
<path fill="none" stroke="black" d="M570.085,-623.037C543.165,-632.263 500.588,-646.855 472.695,-656.415"/>
</g>
<!-- 4447 -->
<g id="node5" class="node"><title>4447</title>
<g id="a_node5"><a xlink:title="3rd_week">
<ellipse fill="#ee9898" stroke="black" cx="409.241" cy="-810.46" rx="28.6953" ry="18"/>
<text text-anchor="middle" x="409.241" y="-806.76" font-family="Times,serif" font-size="14.00">4447</text>
</a>
</g>
</g>
<!-- 4447&#45;&gt;15853 -->
<g id="edge11" class="edge"><title>4447&#45;&gt;15853</title>
<path fill="none" stroke="black" d="M413.684,-792.449C420.515,-764.756 433.526,-712.011 440.391,-684.182"/>
</g>
<!-- 5423 -->
<g id="node6" class="node"><title>5423</title>
<g id="a_node6"><a xlink:title="3rd_week">
<ellipse fill="#ee9898" stroke="black" cx="383.961" cy="-516.831" rx="28.6953" ry="18"/>
<text text-anchor="middle" x="383.961" y="-513.131" font-family="Times,serif" font-size="14.00">5423</text>
</a>
</g>
</g>
<!-- 5423&#45;&gt;15853 -->
<g id="edge36" class="edge"><title>5423&#45;&gt;15853</title>
<path fill="none" stroke="black" d="M391.19,-534.522C402.916,-563.22 425.95,-619.593 437.671,-648.276"/>
</g>
<!-- 6153 -->
<g id="node7" class="node"><title>6153</title>
<g id="a_node7"><a xlink:title="3rd_week">
<ellipse fill="#ee9898" stroke="black" cx="208.722" cy="-673.276" rx="28.6953" ry="18"/>
<text text-anchor="middle" x="208.722" y="-669.576" font-family="Times,serif" font-size="14.00">6153</text>
</a>
</g>
</g>
<!-- 6153&#45;&gt;15853 -->
<g id="edge40" class="edge"><title>6153&#45;&gt;15853</title>
<path fill="none" stroke="black" d="M237.681,-672.377C281.899,-671.004 365.981,-668.394 412.284,-666.956"/>
</g>
<!-- 19712 -->
<g id="node30" class="node"><title>19712</title>
<g id="a_node30"><a xlink:title="3rd_week">
<ellipse fill="#ee9898" stroke="black" cx="32.869" cy="-670.101" rx="32.4942" ry="18"/>
<text text-anchor="middle" x="32.869" y="-666.401" font-family="Times,serif" font-size="14.00">19712</text>
</a>
</g>
</g>
<!-- 6153&#45;&gt;19712 -->
<g id="edge46" class="edge"><title>6153&#45;&gt;19712</title>
<path fill="none" stroke="black" d="M180.077,-672.759C148.641,-672.192 98.282,-671.282 65.3866,-670.689"/>
</g>
<!-- 7191 -->
<g id="node8" class="node"><title>7191</title>
<g id="a_node8"><a xlink:title="3rd_week">
<ellipse fill="#ee9898" stroke="black" cx="697.091" cy="-320.09" rx="28.6953" ry="18"/>
<text text-anchor="middle" x="697.091" y="-316.39" font-family="Times,serif" font-size="14.00">7191</text>
</a>
</g>
</g>
<!-- 11467 -->
<g id="node14" class="node"><title>11467</title>
<g id="a_node14"><a xlink:title="3rd_week">
<ellipse fill="#ee9898" stroke="black" cx="614.342" cy="-469.789" rx="32.4942" ry="18"/>
<text text-anchor="middle" x="614.342" y="-466.089" font-family="Times,serif" font-size="14.00">11467</text>
</a>
</g>
</g>
<!-- 7191&#45;&gt;11467 -->
<g id="edge47" class="edge"><title>7191&#45;&gt;11467</title>
<path fill="none" stroke="black" d="M687.598,-337.262C671.721,-365.985 639.951,-423.46 623.978,-452.356"/>
</g>
<!-- 8654 -->
<g id="node9" class="node"><title>8654</title>
<g id="a_node9"><a xlink:title="3rd_week">
<ellipse fill="#ee9898" stroke="black" cx="517.834" cy="-486.385" rx="28.6953" ry="18"/>
<text text-anchor="middle" x="517.834" y="-482.685" font-family="Times,serif" font-size="14.00">8654</text>
</a>
</g>
</g>
<!-- 8654&#45;&gt;15853 -->
<g id="edge18" class="edge"><title>8654&#45;&gt;15853</title>
<path fill="none" stroke="black" d="M510.707,-503.929C496.761,-538.256 466.014,-613.944 452.046,-648.329"/>
</g>
<!-- 8984 -->
<g id="node10" class="node"><title>8984</title>
<g id="a_node10"><a xlink:title="3rd_week">
<ellipse fill="#ee9898" stroke="black" cx="276.189" cy="-855.207" rx="28.6953" ry="18"/>
<text text-anchor="middle" x="276.189" y="-851.507" font-family="Times,serif" font-size="14.00">8984</text>
</a>
</g>
</g>
<!-- 8984&#45;&gt;15853 -->
<g id="edge48" class="edge"><title>8984&#45;&gt;15853</title>
<path fill="none" stroke="black" d="M290.282,-839.396C321.959,-803.859 398.506,-717.982 430.479,-682.111"/>
</g>
<!-- 16905 -->
<g id="node23" class="node"><title>16905</title>
<g id="a_node23"><a xlink:title="3rd_week">
<ellipse fill="#ee9898" stroke="black" cx="138.079" cy="-959.619" rx="32.4942" ry="18"/>
<text text-anchor="middle" x="138.079" y="-955.919" font-family="Times,serif" font-size="14.00">16905</text>
</a>
</g>
</g>
<!-- 8984&#45;&gt;16905 -->
<g id="edge30" class="edge"><title>8984&#45;&gt;16905</title>
<path fill="none" stroke="black" d="M257.849,-869.072C231.727,-888.821 184.027,-924.882 157.384,-945.024"/>
</g>
<!-- 17060 -->
<g id="node24" class="node"><title>17060</title>
<g id="a_node24"><a xlink:title="3rd_week">
<ellipse fill="#ee9898" stroke="black" cx="197.758" cy="-1011.96" rx="32.4942" ry="18"/>
<text text-anchor="middle" x="197.758" y="-1008.26" font-family="Times,serif" font-size="14.00">17060</text>
</a>
</g>
</g>
<!-- 8984&#45;&gt;17060 -->
<g id="edge12" class="edge"><title>8984&#45;&gt;17060</title>
<path fill="none" stroke="black" d="M267.496,-872.582C252.42,-902.713 221.594,-964.325 206.49,-994.51"/>
</g>
<!-- 9518 -->
<g id="node12" class="node"><title>9518</title>
<g id="a_node12"><a xlink:title="3rd_week">
<ellipse fill="#ee9898" stroke="black" cx="272.743" cy="-509.361" rx="28.6953" ry="18"/>
<text text-anchor="middle" x="272.743" y="-505.661" font-family="Times,serif" font-size="14.00">9518</text>
</a>
</g>
</g>
<!-- 9518&#45;&gt;15853 -->
<g id="edge16" class="edge"><title>9518&#45;&gt;15853</title>
<path fill="none" stroke="black" d="M289.249,-524.374C321.985,-554.151 394.82,-620.401 427.926,-650.514"/>
</g>
<!-- 18241 -->
<g id="node26" class="node"><title>18241</title>
<g id="a_node26"><a xlink:title="3rd_week">
<ellipse fill="#ee9898" stroke="black" cx="139.834" cy="-395.711" rx="32.4942" ry="18"/>
<text text-anchor="middle" x="139.834" y="-392.011" font-family="Times,serif" font-size="14.00">18241</text>
</a>
</g>
</g>
<!-- 9518&#45;&gt;18241 -->
<g id="edge31" class="edge"><title>9518&#45;&gt;18241</title>
<path fill="none" stroke="black" d="M255.64,-494.735C230.4,-473.153 183.401,-432.964 157.72,-411.005"/>
</g>
<!-- 9961 -->
<g id="node13" class="node"><title>9961</title>
<g id="a_node13"><a xlink:title="3rd_week">
<ellipse fill="#ee9898" stroke="black" cx="304.194" cy="-649.45" rx="28.6953" ry="18"/>
<text text-anchor="middle" x="304.194" y="-645.75" font-family="Times,serif" font-size="14.00">9961</text>
</a>
</g>
</g>
<!-- 9961&#45;&gt;15853 -->
<g id="edge3" class="edge"><title>9961&#45;&gt;15853</title>
<path fill="none" stroke="black" d="M332.328,-652.748C355.583,-655.474 388.606,-659.346 412.872,-662.19"/>
</g>
<!-- 11467&#45;&gt;15853 -->
<g id="edge51" class="edge"><title>11467&#45;&gt;15853</title>
<path fill="none" stroke="black" d="M600.186,-486.175C568.289,-523.099 491.096,-612.456 459.125,-649.466"/>
</g>
<!-- 16755 -->
<g id="node22" class="node"><title>16755</title>
<g id="a_node22"><a xlink:title="3rd_week">
<ellipse fill="#ee9898" stroke="black" cx="762.045" cy="-371.642" rx="32.4942" ry="18"/>
<text text-anchor="middle" x="762.045" y="-367.942" font-family="Times,serif" font-size="14.00">16755</text>
</a>
</g>
</g>
<!-- 11467&#45;&gt;16755 -->
<g id="edge15" class="edge"><title>11467&#45;&gt;16755</title>
<path fill="none" stroke="black" d="M635.191,-455.935C663.182,-437.335 712.644,-404.468 740.824,-385.743"/>
</g>
<!-- 12171 -->
<g id="node16" class="node"><title>12171</title>
<g id="a_node16"><a xlink:title="3rd_week">
<ellipse fill="#ee9898" stroke="black" cx="1276.14" cy="-1745.35" rx="32.4942" ry="18"/>
<text text-anchor="middle" x="1276.14" y="-1741.65" font-family="Times,serif" font-size="14.00">12171</text>
</a>
</g>
</g>
<!-- 19219 -->
<g id="node29" class="node"><title>19219</title>
<g id="a_node29"><a xlink:title="3rd_week">
<ellipse fill="#ee9898" stroke="black" cx="1369.88" cy="-1859.36" rx="32.4942" ry="18"/>
<text text-anchor="middle" x="1369.88" y="-1855.66" font-family="Times,serif" font-size="14.00">19219</text>
</a>
</g>
</g>
<!-- 12171&#45;&gt;19219 -->
<g id="edge6" class="edge"><title>12171&#45;&gt;19219</title>
<path fill="none" stroke="black" d="M1289.97,-1762.17C1307.79,-1783.85 1338.59,-1821.31 1356.3,-1842.84"/>
</g>
<!-- 34804 -->
<g id="node50" class="node"><title>34804</title>
<g id="a_node50"><a xlink:title="3rd_week">
<ellipse fill="#ee9898" stroke="black" cx="1172.34" cy="-1618.91" rx="32.4942" ry="18"/>
<text text-anchor="middle" x="1172.34" y="-1615.21" font-family="Times,serif" font-size="14.00">34804</text>
</a>
</g>
</g>
<!-- 12171&#45;&gt;34804 -->
<g id="edge43" class="edge"><title>12171&#45;&gt;34804</title>
<path fill="none" stroke="black" d="M1262.57,-1728.82C1242.67,-1704.59 1205.81,-1659.68 1185.92,-1635.44"/>
</g>
<!-- 12350 -->
<g id="node17" class="node"><title>12350</title>
<g id="a_node17"><a xlink:title="3rd_week">
<ellipse fill="#ee9898" stroke="black" cx="337.419" cy="-453.622" rx="32.4942" ry="18"/>
<text text-anchor="middle" x="337.419" y="-449.922" font-family="Times,serif" font-size="14.00">12350</text>
</a>
</g>
</g>
<!-- 13276 -->
<g id="node19" class="node"><title>13276</title>
<g id="a_node19"><a xlink:title="3rd_week">
<ellipse fill="#ee9898" stroke="black" cx="256.418" cy="-296.648" rx="32.4942" ry="18"/>
<text text-anchor="middle" x="256.418" y="-292.948" font-family="Times,serif" font-size="14.00">13276</text>
</a>
</g>
</g>
<!-- 12350&#45;&gt;13276 -->
<g id="edge17" class="edge"><title>12350&#45;&gt;13276</title>
<path fill="none" stroke="black" d="M328.441,-436.223C312.871,-406.05 281.035,-344.353 265.436,-314.125"/>
</g>
<!-- 12350&#45;&gt;15853 -->
<g id="edge28" class="edge"><title>12350&#45;&gt;15853</title>
<path fill="none" stroke="black" d="M346.214,-470.997C366.367,-510.812 415.704,-608.284 435.973,-648.329"/>
</g>
<!-- 12509 -->
<g id="node18" class="node"><title>12509</title>
<g id="a_node18"><a xlink:title="3rd_week">
<ellipse fill="#ee9898" stroke="black" cx="492.563" cy="-829.044" rx="32.4942" ry="18"/>
<text text-anchor="middle" x="492.563" y="-825.344" font-family="Times,serif" font-size="14.00">12509</text>
</a>
</g>
</g>
<!-- 12509&#45;&gt;15853 -->
<g id="edge27" class="edge"><title>12509&#45;&gt;15853</title>
<path fill="none" stroke="black" d="M487.279,-810.966C478.115,-779.615 459.378,-715.51 450.197,-684.103"/>
</g>
<!-- 15015 -->
<g id="node20" class="node"><title>15015</title>
<g id="a_node20"><a xlink:title="3rd_week">
<ellipse fill="#ee9898" stroke="black" cx="53.1801" cy="-815.802" rx="32.4942" ry="18"/>
<text text-anchor="middle" x="53.1801" y="-812.102" font-family="Times,serif" font-size="14.00">15015</text>
</a>
</g>
</g>
<!-- 31618 -->
<g id="node48" class="node"><title>31618</title>
<g id="a_node48"><a xlink:title="3rd_week">
<ellipse fill="#ee9898" stroke="black" cx="221.928" cy="-757.456" rx="32.4942" ry="18"/>
<text text-anchor="middle" x="221.928" y="-753.756" font-family="Times,serif" font-size="14.00">31618</text>
</a>
</g>
</g>
<!-- 15015&#45;&gt;31618 -->
<g id="edge32" class="edge"><title>15015&#45;&gt;31618</title>
<path fill="none" stroke="black" d="M81.0453,-806.167C112.405,-795.324 163.04,-777.817 194.301,-767.008"/>
</g>
<!-- 15853&#45;&gt;17564 -->
<g id="edge2" class="edge"><title>15853&#45;&gt;17564</title>
<path fill="none" stroke="black" d="M445.042,-647.655C445.457,-598.05 446.598,-461.369 447.012,-411.857"/>
</g>
<!-- 18424 -->
<g id="node27" class="node"><title>18424</title>
<g id="a_node27"><a xlink:title="3rd_week">
<ellipse fill="#ee9898" stroke="black" cx="491.853" cy="-784.371" rx="32.4942" ry="18"/>
<text text-anchor="middle" x="491.853" y="-780.671" font-family="Times,serif" font-size="14.00">18424</text>
</a>
</g>
</g>
<!-- 15853&#45;&gt;18424 -->
<g id="edge25" class="edge"><title>15853&#45;&gt;18424</title>
<path fill="none" stroke="black" d="M451.921,-683.674C460.774,-706 475.898,-744.137 484.774,-766.52"/>
</g>
<!-- 22181 -->
<g id="node33" class="node"><title>22181</title>
<g id="a_node33"><a xlink:title="PRE">
<ellipse fill="#71a9f7" stroke="black" cx="568.575" cy="-786.687" rx="32.4942" ry="18"/>
<text text-anchor="middle" x="568.575" y="-782.987" font-family="Times,serif" font-size="14.00">22181</text>
</a>
</g>
</g>
<!-- 15853&#45;&gt;22181 -->
<g id="edge34" class="edge"><title>15853&#45;&gt;22181</title>
<path fill="none" stroke="black" d="M461.059,-681.729C484.764,-704.869 528.695,-747.756 552.402,-770.898"/>
</g>
<!-- 22210 -->
<g id="node34" class="node"><title>22210</title>
<g id="a_node34"><a xlink:title="3rd_week">
<ellipse fill="#ee9898" stroke="black" cx="405.909" cy="-874.318" rx="32.4942" ry="18"/>
<text text-anchor="middle" x="405.909" y="-870.618" font-family="Times,serif" font-size="14.00">22210</text>
</a>
</g>
</g>
<!-- 15853&#45;&gt;22210 -->
<g id="edge10" class="edge"><title>15853&#45;&gt;22210</title>
<path fill="none" stroke="black" d="M441.499,-684.071C434.108,-723.579 416.623,-817.048 409.264,-856.381"/>
</g>
<!-- 22299 -->
<g id="node35" class="node"><title>22299</title>
<g id="a_node35"><a xlink:title="3rd_week">
<ellipse fill="#ee9898" stroke="black" cx="497.538" cy="-535.834" rx="32.4942" ry="18"/>
<text text-anchor="middle" x="497.538" y="-532.134" font-family="Times,serif" font-size="14.00">22299</text>
</a>
</g>
</g>
<!-- 15853&#45;&gt;22299 -->
<g id="edge8" class="edge"><title>15853&#45;&gt;22299</title>
<path fill="none" stroke="black" d="M452.1,-648.125C462.182,-623.21 480.38,-578.237 490.415,-553.437"/>
</g>
<!-- 23009 -->
<g id="node36" class="node"><title>23009</title>
<g id="a_node36"><a xlink:title="3rd_week">
<ellipse fill="#ee9898" stroke="black" cx="587.599" cy="-551.444" rx="32.4942" ry="18"/>
<text text-anchor="middle" x="587.599" y="-547.744" font-family="Times,serif" font-size="14.00">23009</text>
</a>
</g>
</g>
<!-- 15853&#45;&gt;23009 -->
<g id="edge37" class="edge"><title>15853&#45;&gt;23009</title>
<path fill="none" stroke="black" d="M463.546,-650.975C490.896,-629.031 541.585,-588.363 568.937,-566.417"/>
</g>
<!-- 24113 -->
<g id="node37" class="node"><title>24113</title>
<g id="a_node37"><a xlink:title="3rd_week">
<ellipse fill="#ee9898" stroke="black" cx="611.203" cy="-904.033" rx="32.4942" ry="18"/>
<text text-anchor="middle" x="611.203" y="-900.333" font-family="Times,serif" font-size="14.00">24113</text>
</a>
</g>
</g>
<!-- 15853&#45;&gt;24113 -->
<g id="edge41" class="edge"><title>15853&#45;&gt;24113</title>
<path fill="none" stroke="black" d="M456.851,-683.067C487.537,-726.996 568.784,-843.307 599.351,-887.065"/>
</g>
<!-- 25500 -->
<g id="node39" class="node"><title>25500</title>
<g id="a_node39"><a xlink:title="3rd_week">
<ellipse fill="#ee9898" stroke="black" cx="309.038" cy="-578.296" rx="32.4942" ry="18"/>
<text text-anchor="middle" x="309.038" y="-574.596" font-family="Times,serif" font-size="14.00">25500</text>
</a>
</g>
</g>
<!-- 15853&#45;&gt;25500 -->
<g id="edge44" class="edge"><title>15853&#45;&gt;25500</title>
<path fill="none" stroke="black" d="M423.663,-652.249C398.29,-635.879 356.068,-608.639 330.564,-592.184"/>
</g>
<!-- 26470 -->
<g id="node40" class="node"><title>26470</title>
<g id="a_node40"><a xlink:title="3rd_week">
<ellipse fill="#ee9898" stroke="black" cx="576.887" cy="-739.316" rx="32.4942" ry="18"/>
<text text-anchor="middle" x="576.887" y="-735.616" font-family="Times,serif" font-size="14.00">26470</text>
</a>
</g>
</g>
<!-- 15853&#45;&gt;26470 -->
<g id="edge33" class="edge"><title>15853&#45;&gt;26470</title>
<path fill="none" stroke="black" d="M467.882,-678.724C491.961,-692.109 529.569,-713.014 553.716,-726.436"/>
</g>
<!-- 27191 -->
<g id="node41" class="node"><title>27191</title>
<g id="a_node41"><a xlink:title="3rd_week">
<ellipse fill="#ee9898" stroke="black" cx="666.759" cy="-604.392" rx="32.4942" ry="18"/>
<text text-anchor="middle" x="666.759" y="-600.692" font-family="Times,serif" font-size="14.00">27191</text>
</a>
</g>
</g>
<!-- 15853&#45;&gt;27191 -->
<g id="edge50" class="edge"><title>15853&#45;&gt;27191</title>
<path fill="none" stroke="black" d="M474.352,-657.77C516.906,-645.965 595.104,-624.271 637.528,-612.502"/>
</g>
<!-- 29601 -->
<g id="node43" class="node"><title>29601</title>
<g id="a_node43"><a xlink:title="3rd_week">
<ellipse fill="#ee9898" stroke="black" cx="218.807" cy="-579.191" rx="32.4942" ry="18"/>
<text text-anchor="middle" x="218.807" y="-575.491" font-family="Times,serif" font-size="14.00">29601</text>
</a>
</g>
</g>
<!-- 15853&#45;&gt;29601 -->
<g id="edge7" class="edge"><title>15853&#45;&gt;29601</title>
<path fill="none" stroke="black" d="M418.067,-655.652C374.556,-638.955 289.084,-606.158 245.595,-589.47"/>
</g>
<!-- 30644 -->
<g id="node44" class="node"><title>30644</title>
<g id="a_node44"><a xlink:title="3rd_week">
<ellipse fill="#ee9898" stroke="black" cx="600.496" cy="-677.219" rx="32.4942" ry="18"/>
<text text-anchor="middle" x="600.496" y="-673.519" font-family="Times,serif" font-size="14.00">30644</text>
</a>
</g>
</g>
<!-- 15853&#45;&gt;30644 -->
<g id="edge52" class="edge"><title>15853&#45;&gt;30644</title>
<path fill="none" stroke="black" d="M477.131,-668.28C503.748,-670.209 541.349,-672.933 568.028,-674.866"/>
</g>
<!-- 30782 -->
<g id="node45" class="node"><title>30782</title>
<g id="a_node45"><a xlink:title="3rd_week">
<ellipse fill="#ee9898" stroke="black" cx="433.759" cy="-470.934" rx="32.4942" ry="18"/>
<text text-anchor="middle" x="433.759" y="-467.234" font-family="Times,serif" font-size="14.00">30782</text>
</a>
</g>
</g>
<!-- 15853&#45;&gt;30782 -->
<g id="edge35" class="edge"><title>15853&#45;&gt;30782</title>
<path fill="none" stroke="black" d="M443.862,-647.947C441.747,-610.891 436.926,-526.43 434.8,-489.17"/>
</g>
<!-- 15853&#45;&gt;31618 -->
<g id="edge22" class="edge"><title>15853&#45;&gt;31618</title>
<path fill="none" stroke="black" d="M418.437,-676.801C375.526,-694.413 291.234,-729.01 248.345,-746.613"/>
</g>
<!-- 32576 -->
<g id="node49" class="node"><title>32576</title>
<g id="a_node49"><a xlink:title="3rd_week">
<ellipse fill="#ee9898" stroke="black" cx="336.403" cy="-786.047" rx="32.4942" ry="18"/>
<text text-anchor="middle" x="336.403" y="-782.347" font-family="Times,serif" font-size="14.00">32576</text>
</a>
</g>
</g>
<!-- 15853&#45;&gt;32576 -->
<g id="edge29" class="edge"><title>15853&#45;&gt;32576</title>
<path fill="none" stroke="black" d="M430.259,-682.142C409.553,-705.064 371.916,-746.731 351.149,-769.722"/>
</g>
<!-- 18583 -->
<g id="node28" class="node"><title>18583</title>
<g id="a_node28"><a xlink:title="3rd_week">
<ellipse fill="#ee9898" stroke="black" cx="751.26" cy="-1110.07" rx="32.4942" ry="18"/>
<text text-anchor="middle" x="751.26" y="-1106.37" font-family="Times,serif" font-size="14.00">18583</text>
</a>
</g>
</g>
<!-- 21064 -->
<g id="node31" class="node"><title>21064</title>
<g id="a_node31"><a xlink:title="3rd_week">
<ellipse fill="#ee9898" stroke="black" cx="816.643" cy="-1265.07" rx="32.4942" ry="18"/>
<text text-anchor="middle" x="816.643" y="-1261.37" font-family="Times,serif" font-size="14.00">21064</text>
</a>
</g>
</g>
<!-- 18583&#45;&gt;21064 -->
<g id="edge21" class="edge"><title>18583&#45;&gt;21064</title>
<path fill="none" stroke="black" d="M758.761,-1127.85C771.373,-1157.75 796.677,-1217.74 809.23,-1247.5"/>
</g>
<!-- 18583&#45;&gt;24113 -->
<g id="edge14" class="edge"><title>18583&#45;&gt;24113</title>
<path fill="none" stroke="black" d="M739.799,-1093.21C713.536,-1054.57 649.238,-959.987 622.823,-921.127"/>
</g>
<!-- 31148 -->
<g id="node46" class="node"><title>31148</title>
<g id="a_node46"><a xlink:title="3rd_week">
<ellipse fill="#ee9898" stroke="black" cx="907.216" cy="-1321.63" rx="32.4942" ry="18"/>
<text text-anchor="middle" x="907.216" y="-1317.93" font-family="Times,serif" font-size="14.00">31148</text>
</a>
</g>
</g>
<!-- 18583&#45;&gt;31148 -->
<g id="edge45" class="edge"><title>18583&#45;&gt;31148</title>
<path fill="none" stroke="black" d="M763.759,-1127.03C793.033,-1166.74 865.756,-1265.39 894.874,-1304.89"/>
</g>
<!-- 22029 -->
<g id="node32" class="node"><title>22029</title>
<g id="a_node32"><a xlink:title="3rd_week">
<ellipse fill="#ee9898" stroke="black" cx="47.7114" cy="-522.042" rx="32.4942" ry="18"/>
<text text-anchor="middle" x="47.7114" y="-518.342" font-family="Times,serif" font-size="14.00">22029</text>
</a>
</g>
</g>
<!-- 22029&#45;&gt;29601 -->
<g id="edge19" class="edge"><title>22029&#45;&gt;29601</title>
<path fill="none" stroke="black" d="M75.5817,-531.351C107.398,-541.979 159.138,-559.261 190.949,-569.886"/>
</g>
<!-- 31577 -->
<g id="node47" class="node"><title>31577</title>
<g id="a_node47"><a xlink:title="3rd_week">
<ellipse fill="#ee9898" stroke="black" cx="377.573" cy="-1075.16" rx="32.4942" ry="18"/>
<text text-anchor="middle" x="377.573" y="-1071.46" font-family="Times,serif" font-size="14.00">31577</text>
</a>
</g>
</g>
<!-- 22210&#45;&gt;31577 -->
<g id="edge24" class="edge"><title>22210&#45;&gt;31577</title>
<path fill="none" stroke="black" d="M403.344,-892.496C397.95,-930.734 385.483,-1019.09 380.111,-1057.17"/>
</g>
<!-- 25434 -->
<g id="node38" class="node"><title>25434</title>
<g id="a_node38"><a xlink:title="3rd_week">
<ellipse fill="#ee9898" stroke="black" cx="849.053" cy="-563.336" rx="32.4942" ry="18"/>
<text text-anchor="middle" x="849.053" y="-559.636" font-family="Times,serif" font-size="14.00">25434</text>
</a>
</g>
</g>
<!-- 25434&#45;&gt;27191 -->
<g id="edge13" class="edge"><title>25434&#45;&gt;27191</title>
<path fill="none" stroke="black" d="M818.541,-570.207C784.789,-577.809 730.736,-589.983 697.067,-597.566"/>
</g>
<!-- 34937 -->
<g id="node51" class="node"><title>34937</title>
<g id="a_node51"><a xlink:title="3rd_week">
<ellipse fill="#ee9898" stroke="black" cx="931.123" cy="-1461.2" rx="32.4942" ry="18"/>
<text text-anchor="middle" x="931.123" y="-1457.5" font-family="Times,serif" font-size="14.00">34937</text>
</a>
</g>
</g>
<!-- 31148&#45;&gt;34937 -->
<g id="edge4" class="edge"><title>31148&#45;&gt;34937</title>
<path fill="none" stroke="black" d="M910.292,-1339.59C914.858,-1366.25 923.38,-1416 927.983,-1442.87"/>
</g>
<!-- 35303 -->
<g id="node52" class="node"><title>35303</title>
<g id="a_node52"><a xlink:title="3rd_week">
<ellipse fill="#ee9898" stroke="black" cx="1038.25" cy="-1482.87" rx="32.4942" ry="18"/>
<text text-anchor="middle" x="1038.25" y="-1479.17" font-family="Times,serif" font-size="14.00">35303</text>
</a>
</g>
</g>
<!-- 31148&#45;&gt;35303 -->
<g id="edge9" class="edge"><title>31148&#45;&gt;35303</title>
<path fill="none" stroke="black" d="M920.745,-1338.28C945.853,-1369.18 999.393,-1435.06 1024.59,-1466.07"/>
</g>
<!-- 34804&#45;&gt;35303 -->
<g id="edge1" class="edge"><title>34804&#45;&gt;35303</title>
<path fill="none" stroke="black" d="M1156.7,-1603.04C1131,-1576.96 1080.11,-1525.34 1054.21,-1499.06"/>
</g>
<!-- 21637 -->
<g id="node53" class="node"><title>21637</title>
<g id="a_node53"><a xlink:title="3rd_week">
<ellipse fill="#ee9898" stroke="black" cx="1064.21" cy="-1631.13" rx="32.4942" ry="18"/>
<text text-anchor="middle" x="1064.21" y="-1627.43" font-family="Times,serif" font-size="14.00">21637</text>
</a>
</g>
</g>
<!-- 35303&#45;&gt;21637 -->
<g id="edge38" class="edge"><title>35303&#45;&gt;21637</title>
<path fill="none" stroke="black" d="M1041.43,-1501.05C1046.41,-1529.51 1056,-1584.26 1061,-1612.8"/>
</g>
</g>
</svg>
