<?xml version="1.0" encoding="UTF-8" standalone="no"?>
<!DOCTYPE svg PUBLIC "-//W3C//DTD SVG 1.1//EN"
 "http://www.w3.org/Graphics/SVG/1.1/DTD/svg11.dtd">
<!-- Generated by graphviz version 2.38.0 (20140413.2041)
 -->
<!-- Title: %3 Pages: 1 -->
<svg width="2322pt" height="2450pt"
 viewBox="0.00 0.00 2322.00 2450.00" xmlns="http://www.w3.org/2000/svg" xmlns:xlink="http://www.w3.org/1999/xlink">
<g id="graph0" class="graph" transform="scale(1 1) rotate(0) translate(4 2446)">
<title>%3</title>
<polygon fill="white" stroke="none" points="-4,4 -4,-2446 2318,-2446 2318,4 -4,4"/>
<!-- 104 -->
<g id="node1" class="node"><title>104</title>
<g id="a_node1"><a xlink:title="Day_0">
<ellipse fill="#e5dada" stroke="black" cx="881.644" cy="-779.512" rx="27" ry="18"/>
<text text-anchor="middle" x="881.644" y="-775.812" font-family="Times,serif" font-size="14.00">104</text>
</a>
</g>
</g>
<!-- 14802 -->
<g id="node22" class="node"><title>14802</title>
<g id="a_node22"><a xlink:title="Day_0">
<ellipse fill="#e5dada" stroke="black" cx="963.683" cy="-600.011" rx="32.4942" ry="18"/>
<text text-anchor="middle" x="963.683" y="-596.311" font-family="Times,serif" font-size="14.00">14802</text>
</a>
</g>
</g>
<!-- 104&#45;&gt;14802 -->
<g id="edge47" class="edge"><title>104&#45;&gt;14802</title>
<path fill="none" stroke="black" d="M889.66,-761.974C905.343,-727.658 939.925,-651.994 955.635,-617.621"/>
</g>
<!-- 1993 -->
<g id="node2" class="node"><title>1993</title>
<g id="a_node2"><a xlink:title="Day_0">
<ellipse fill="#e5dada" stroke="black" cx="1581.54" cy="-980.251" rx="28.6953" ry="18"/>
<text text-anchor="middle" x="1581.54" y="-976.551" font-family="Times,serif" font-size="14.00">1993</text>
</a>
</g>
</g>
<!-- 20221 -->
<g id="node26" class="node"><title>20221</title>
<g id="a_node26"><a xlink:title="Day_0">
<ellipse fill="#e5dada" stroke="black" cx="1648.59" cy="-1116.18" rx="32.4942" ry="18"/>
<text text-anchor="middle" x="1648.59" y="-1112.48" font-family="Times,serif" font-size="14.00">20221</text>
</a>
</g>
</g>
<!-- 1993&#45;&gt;20221 -->
<g id="edge61" class="edge"><title>1993&#45;&gt;20221</title>
<path fill="none" stroke="black" d="M1590.03,-997.467C1602.86,-1023.47 1627.05,-1072.5 1639.96,-1098.68"/>
</g>
<!-- 2321 -->
<g id="node3" class="node"><title>2321</title>
<g id="a_node3"><a xlink:title="Day_0">
<ellipse fill="#e5dada" stroke="black" cx="916.104" cy="-176.263" rx="28.6953" ry="18"/>
<text text-anchor="middle" x="916.104" y="-172.563" font-family="Times,serif" font-size="14.00">2321</text>
</a>
</g>
</g>
<!-- 10270 -->
<g id="node17" class="node"><title>10270</title>
<g id="a_node17"><a xlink:title="Day_0">
<ellipse fill="#e5dada" stroke="black" cx="936.216" cy="-358.28" rx="32.4942" ry="18"/>
<text text-anchor="middle" x="936.216" y="-354.58" font-family="Times,serif" font-size="14.00">10270</text>
</a>
</g>
</g>
<!-- 2321&#45;&gt;10270 -->
<g id="edge21" class="edge"><title>2321&#45;&gt;10270</title>
<path fill="none" stroke="black" d="M918.106,-194.381C921.961,-229.27 930.373,-305.404 934.222,-340.235"/>
</g>
<!-- 2934 -->
<g id="node4" class="node"><title>2934</title>
<g id="a_node4"><a xlink:title="Day_0">
<ellipse fill="#e5dada" stroke="black" cx="1009.55" cy="-433.926" rx="28.6953" ry="18"/>
<text text-anchor="middle" x="1009.55" y="-430.226" font-family="Times,serif" font-size="14.00">2934</text>
</a>
</g>
</g>
<!-- 2934&#45;&gt;14802 -->
<g id="edge63" class="edge"><title>2934&#45;&gt;14802</title>
<path fill="none" stroke="black" d="M1004.64,-451.7C995.836,-483.583 977.455,-550.142 968.625,-582.114"/>
</g>
<!-- 3007 -->
<g id="node5" class="node"><title>3007</title>
<g id="a_node5"><a xlink:title="Day_0">
<ellipse fill="#e5dada" stroke="black" cx="1037.03" cy="-733.61" rx="28.6953" ry="18"/>
<text text-anchor="middle" x="1037.03" y="-729.91" font-family="Times,serif" font-size="14.00">3007</text>
</a>
</g>
</g>
<!-- 3007&#45;&gt;14802 -->
<g id="edge49" class="edge"><title>3007&#45;&gt;14802</title>
<path fill="none" stroke="black" d="M1027.59,-716.418C1013.59,-690.906 987.437,-643.279 973.318,-617.562"/>
</g>
<!-- 3071 -->
<g id="node6" class="node"><title>3071</title>
<g id="a_node6"><a xlink:title="Day_0">
<ellipse fill="#e5dada" stroke="black" cx="853.932" cy="-557.313" rx="28.6953" ry="18"/>
<text text-anchor="middle" x="853.932" y="-553.613" font-family="Times,serif" font-size="14.00">3071</text>
</a>
</g>
</g>
<!-- 3071&#45;&gt;14802 -->
<g id="edge62" class="edge"><title>3071&#45;&gt;14802</title>
<path fill="none" stroke="black" d="M878.289,-566.789C895.719,-573.57 919.172,-582.695 937.089,-589.665"/>
</g>
<!-- 3186 -->
<g id="node7" class="node"><title>3186</title>
<g id="a_node7"><a xlink:title="Day_0">
<ellipse fill="#e5dada" stroke="black" cx="1614.14" cy="-1250.05" rx="28.6953" ry="18"/>
<text text-anchor="middle" x="1614.14" y="-1246.35" font-family="Times,serif" font-size="14.00">3186</text>
</a>
</g>
</g>
<!-- 3186&#45;&gt;20221 -->
<g id="edge19" class="edge"><title>3186&#45;&gt;20221</title>
<path fill="none" stroke="black" d="M1618.72,-1232.27C1625.31,-1206.67 1637.4,-1159.68 1644,-1134.03"/>
</g>
<!-- 3352 -->
<g id="node8" class="node"><title>3352</title>
<g id="a_node8"><a xlink:title="Day_0">
<ellipse fill="#e5dada" stroke="black" cx="819.659" cy="-727.965" rx="28.6953" ry="18"/>
<text text-anchor="middle" x="819.659" y="-724.265" font-family="Times,serif" font-size="14.00">3352</text>
</a>
</g>
</g>
<!-- 3352&#45;&gt;14802 -->
<g id="edge1" class="edge"><title>3352&#45;&gt;14802</title>
<path fill="none" stroke="black" d="M836.462,-713.037C863.917,-688.645 918.13,-640.482 946.089,-615.642"/>
</g>
<!-- 4101 -->
<g id="node9" class="node"><title>4101</title>
<g id="a_node9"><a xlink:title="Day_0">
<ellipse fill="#e5dada" stroke="black" cx="1059.29" cy="-497.08" rx="28.6953" ry="18"/>
<text text-anchor="middle" x="1059.29" y="-493.38" font-family="Times,serif" font-size="14.00">4101</text>
</a>
</g>
</g>
<!-- 4101&#45;&gt;14802 -->
<g id="edge44" class="edge"><title>4101&#45;&gt;14802</title>
<path fill="none" stroke="black" d="M1044.77,-512.713C1026.91,-531.947 996.728,-564.437 978.657,-583.891"/>
</g>
<!-- 4632 -->
<g id="node10" class="node"><title>4632</title>
<g id="a_node10"><a xlink:title="Day_0">
<ellipse fill="#e5dada" stroke="black" cx="1792.8" cy="-1107.68" rx="28.6953" ry="18"/>
<text text-anchor="middle" x="1792.8" y="-1103.98" font-family="Times,serif" font-size="14.00">4632</text>
</a>
</g>
</g>
<!-- 4632&#45;&gt;20221 -->
<g id="edge58" class="edge"><title>4632&#45;&gt;20221</title>
<path fill="none" stroke="black" d="M1764.31,-1109.36C1740.34,-1110.78 1706.07,-1112.8 1681.05,-1114.27"/>
</g>
<!-- 5829 -->
<g id="node11" class="node"><title>5829</title>
<g id="a_node11"><a xlink:title="Day_0">
<ellipse fill="#e5dada" stroke="black" cx="1615.97" cy="-1298.41" rx="28.6953" ry="18"/>
<text text-anchor="middle" x="1615.97" y="-1294.71" font-family="Times,serif" font-size="14.00">5829</text>
</a>
</g>
</g>
<!-- 5829&#45;&gt;20221 -->
<g id="edge31" class="edge"><title>5829&#45;&gt;20221</title>
<path fill="none" stroke="black" d="M1619.22,-1280.27C1625.47,-1245.34 1639.12,-1169.12 1645.36,-1134.25"/>
</g>
<!-- 6004 -->
<g id="node12" class="node"><title>6004</title>
<g id="a_node12"><a xlink:title="3rd_week">
<ellipse fill="#ee9898" stroke="black" cx="2003.67" cy="-2223.87" rx="28.6953" ry="18"/>
<text text-anchor="middle" x="2003.67" y="-2220.17" font-family="Times,serif" font-size="14.00">6004</text>
</a>
</g>
</g>
<!-- 13810 -->
<g id="node21" class="node"><title>13810</title>
<g id="a_node21"><a xlink:title="3rd_week">
<ellipse fill="#ee9898" stroke="black" cx="2098.24" cy="-2052.68" rx="32.4942" ry="18"/>
<text text-anchor="middle" x="2098.24" y="-2048.98" font-family="Times,serif" font-size="14.00">13810</text>
</a>
</g>
</g>
<!-- 6004&#45;&gt;13810 -->
<g id="edge57" class="edge"><title>6004&#45;&gt;13810</title>
<path fill="none" stroke="black" d="M2013.09,-2206.83C2031.17,-2174.1 2070.57,-2102.78 2088.73,-2069.9"/>
</g>
<!-- 6161 -->
<g id="node13" class="node"><title>6161</title>
<g id="a_node13"><a xlink:title="Day_0">
<ellipse fill="#e5dada" stroke="black" cx="692.598" cy="-442.631" rx="28.6953" ry="18"/>
<text text-anchor="middle" x="692.598" y="-438.931" font-family="Times,serif" font-size="14.00">6161</text>
</a>
</g>
</g>
<!-- 6161&#45;&gt;14802 -->
<g id="edge70" class="edge"><title>6161&#45;&gt;14802</title>
<path fill="none" stroke="black" d="M713.869,-454.98C764.045,-484.11 889.432,-556.905 940.993,-586.839"/>
</g>
<!-- 24763 -->
<g id="node62" class="node"><title>24763</title>
<g id="a_node62"><a xlink:title="6th_week">
<ellipse fill="#c81d25" stroke="black" cx="434.427" cy="-295.565" rx="32.4942" ry="18"/>
<text text-anchor="middle" x="434.427" y="-291.865" font-family="Times,serif" font-size="14.00">24763</text>
</a>
</g>
</g>
<!-- 6161&#45;&gt;24763 -->
<g id="edge39" class="edge"><title>6161&#45;&gt;24763</title>
<path fill="none" stroke="black" d="M671.03,-430.345C622.797,-402.869 506.58,-336.667 457.219,-308.549"/>
</g>
<!-- 6858 -->
<g id="node14" class="node"><title>6858</title>
<g id="a_node14"><a xlink:title="Day_0">
<ellipse fill="#e5dada" stroke="black" cx="823.349" cy="-677.915" rx="28.6953" ry="18"/>
<text text-anchor="middle" x="823.349" y="-674.215" font-family="Times,serif" font-size="14.00">6858</text>
</a>
</g>
</g>
<!-- 6858&#45;&gt;14802 -->
<g id="edge24" class="edge"><title>6858&#45;&gt;14802</title>
<path fill="none" stroke="black" d="M844.969,-665.913C870.802,-651.572 913.855,-627.672 940.401,-612.936"/>
</g>
<!-- 8063 -->
<g id="node15" class="node"><title>8063</title>
<g id="a_node15"><a xlink:title="Day_0">
<ellipse fill="#e5dada" stroke="black" cx="1305.93" cy="-857.255" rx="28.6953" ry="18"/>
<text text-anchor="middle" x="1305.93" y="-853.555" font-family="Times,serif" font-size="14.00">8063</text>
</a>
</g>
</g>
<!-- 8063&#45;&gt;14802 -->
<g id="edge8" class="edge"><title>8063&#45;&gt;14802</title>
<path fill="none" stroke="black" d="M1287.53,-843.425C1228.38,-798.967 1043.47,-659.981 983.018,-614.544"/>
</g>
<!-- 8063&#45;&gt;20221 -->
<g id="edge23" class="edge"><title>8063&#45;&gt;20221</title>
<path fill="none" stroke="black" d="M1324.36,-871.176C1383.58,-915.924 1568.71,-1055.82 1629.23,-1101.56"/>
</g>
<!-- 9266 -->
<g id="node16" class="node"><title>9266</title>
<g id="a_node16"><a xlink:title="3rd_week">
<ellipse fill="#ee9898" stroke="black" cx="2195.42" cy="-2264.74" rx="28.6953" ry="18"/>
<text text-anchor="middle" x="2195.42" y="-2261.04" font-family="Times,serif" font-size="14.00">9266</text>
</a>
</g>
</g>
<!-- 9266&#45;&gt;13810 -->
<g id="edge69" class="edge"><title>9266&#45;&gt;13810</title>
<path fill="none" stroke="black" d="M2187.47,-2247.38C2169.25,-2207.62 2124.63,-2110.27 2106.31,-2070.27"/>
</g>
<!-- 29412 -->
<g id="node64" class="node"><title>29412</title>
<g id="a_node64"><a xlink:title="3rd_week">
<ellipse fill="#ee9898" stroke="black" cx="2270.82" cy="-2423.81" rx="32.4942" ry="18"/>
<text text-anchor="middle" x="2270.82" y="-2420.11" font-family="Times,serif" font-size="14.00">29412</text>
</a>
</g>
</g>
<!-- 9266&#45;&gt;29412 -->
<g id="edge26" class="edge"><title>9266&#45;&gt;29412</title>
<path fill="none" stroke="black" d="M2203.64,-2282.06C2218.06,-2312.5 2247.81,-2375.25 2262.39,-2406.02"/>
</g>
<!-- 10270&#45;&gt;14802 -->
<g id="edge37" class="edge"><title>10270&#45;&gt;14802</title>
<path fill="none" stroke="black" d="M938.281,-376.449C943.383,-421.357 956.543,-537.179 961.632,-581.961"/>
</g>
<!-- 11611 -->
<g id="node18" class="node"><title>11611</title>
<g id="a_node18"><a xlink:title="Day_0">
<ellipse fill="#e5dada" stroke="black" cx="1666.99" cy="-952.3" rx="32.4942" ry="18"/>
<text text-anchor="middle" x="1666.99" y="-948.6" font-family="Times,serif" font-size="14.00">11611</text>
</a>
</g>
</g>
<!-- 11611&#45;&gt;20221 -->
<g id="edge11" class="edge"><title>11611&#45;&gt;20221</title>
<path fill="none" stroke="black" d="M1664.95,-970.464C1661.41,-1001.97 1654.18,-1066.38 1650.64,-1097.94"/>
</g>
<!-- 11661 -->
<g id="node19" class="node"><title>11661</title>
<g id="a_node19"><a xlink:title="3rd_week">
<ellipse fill="#ee9898" stroke="black" cx="1977.47" cy="-2177.69" rx="32.4942" ry="18"/>
<text text-anchor="middle" x="1977.47" y="-2173.99" font-family="Times,serif" font-size="14.00">11661</text>
</a>
</g>
</g>
<!-- 11661&#45;&gt;13810 -->
<g id="edge59" class="edge"><title>11661&#45;&gt;13810</title>
<path fill="none" stroke="black" d="M1993.01,-2161.6C2016.2,-2137.6 2059.61,-2092.67 2082.76,-2068.7"/>
</g>
<!-- 11797 -->
<g id="node20" class="node"><title>11797</title>
<g id="a_node20"><a xlink:title="Day_0">
<ellipse fill="#e5dada" stroke="black" cx="836.129" cy="-394.901" rx="32.4942" ry="18"/>
<text text-anchor="middle" x="836.129" y="-391.201" font-family="Times,serif" font-size="14.00">11797</text>
</a>
</g>
</g>
<!-- 11797&#45;&gt;14802 -->
<g id="edge45" class="edge"><title>11797&#45;&gt;14802</title>
<path fill="none" stroke="black" d="M846.784,-412.036C870.795,-450.645 928.901,-544.082 952.968,-582.781"/>
</g>
<!-- 31000 -->
<g id="node37" class="node"><title>31000</title>
<g id="a_node37"><a xlink:title="Day_0">
<ellipse fill="#e5dada" stroke="black" cx="743.797" cy="-234.628" rx="32.4942" ry="18"/>
<text text-anchor="middle" x="743.797" y="-230.928" font-family="Times,serif" font-size="14.00">31000</text>
</a>
</g>
</g>
<!-- 11797&#45;&gt;31000 -->
<g id="edge15" class="edge"><title>11797&#45;&gt;31000</title>
<path fill="none" stroke="black" d="M826.247,-377.749C808.569,-347.063 771.715,-283.089 753.887,-252.142"/>
</g>
<!-- 17056 -->
<g id="node24" class="node"><title>17056</title>
<g id="a_node24"><a xlink:title="3rd_week">
<ellipse fill="#ee9898" stroke="black" cx="2120.25" cy="-2249.25" rx="32.4942" ry="18"/>
<text text-anchor="middle" x="2120.25" y="-2245.55" font-family="Times,serif" font-size="14.00">17056</text>
</a>
</g>
</g>
<!-- 13810&#45;&gt;17056 -->
<g id="edge2" class="edge"><title>13810&#45;&gt;17056</title>
<path fill="none" stroke="black" d="M2100.27,-2070.82C2104.47,-2108.27 2114.03,-2193.74 2118.22,-2231.15"/>
</g>
<!-- 20133 -->
<g id="node25" class="node"><title>20133</title>
<g id="a_node25"><a xlink:title="3rd_week">
<ellipse fill="#ee9898" stroke="black" cx="1947.35" cy="-1746.42" rx="32.4942" ry="18"/>
<text text-anchor="middle" x="1947.35" y="-1742.72" font-family="Times,serif" font-size="14.00">20133</text>
</a>
</g>
</g>
<!-- 13810&#45;&gt;20133 -->
<g id="edge41" class="edge"><title>13810&#45;&gt;20133</title>
<path fill="none" stroke="black" d="M2089.48,-2034.89C2062.75,-1980.63 1982.46,-1817.69 1955.95,-1763.88"/>
</g>
<!-- 33467 -->
<g id="node43" class="node"><title>33467</title>
<g id="a_node43"><a xlink:title="3rd_week">
<ellipse fill="#ee9898" stroke="black" cx="2075.79" cy="-2197.39" rx="32.4942" ry="18"/>
<text text-anchor="middle" x="2075.79" y="-2193.69" font-family="Times,serif" font-size="14.00">33467</text>
</a>
</g>
</g>
<!-- 13810&#45;&gt;33467 -->
<g id="edge38" class="edge"><title>13810&#45;&gt;33467</title>
<path fill="none" stroke="black" d="M2095.44,-2070.71C2091.14,-2098.44 2082.94,-2151.26 2078.62,-2179.13"/>
</g>
<!-- 39041 -->
<g id="node49" class="node"><title>39041</title>
<g id="a_node49"><a xlink:title="3rd_week">
<ellipse fill="#ee9898" stroke="black" cx="1953.71" cy="-2111.3" rx="32.4942" ry="18"/>
<text text-anchor="middle" x="1953.71" y="-2107.6" font-family="Times,serif" font-size="14.00">39041</text>
</a>
</g>
</g>
<!-- 13810&#45;&gt;39041 -->
<g id="edge43" class="edge"><title>13810&#45;&gt;39041</title>
<path fill="none" stroke="black" d="M2071.73,-2063.43C2045.66,-2074.01 2006.07,-2090.06 1980.06,-2100.61"/>
</g>
<!-- 42077 -->
<g id="node52" class="node"><title>42077</title>
<g id="a_node52"><a xlink:title="3rd_week">
<ellipse fill="#ee9898" stroke="black" cx="2281.32" cy="-2098.76" rx="32.4942" ry="18"/>
<text text-anchor="middle" x="2281.32" y="-2095.06" font-family="Times,serif" font-size="14.00">42077</text>
</a>
</g>
</g>
<!-- 13810&#45;&gt;42077 -->
<g id="edge6" class="edge"><title>13810&#45;&gt;42077</title>
<path fill="none" stroke="black" d="M2128.07,-2060.18C2162.11,-2068.75 2217.47,-2082.69 2251.51,-2091.26"/>
</g>
<!-- 43184 -->
<g id="node54" class="node"><title>43184</title>
<g id="a_node54"><a xlink:title="3rd_week">
<ellipse fill="#ee9898" stroke="black" cx="2262.91" cy="-2150.41" rx="32.4942" ry="18"/>
<text text-anchor="middle" x="2262.91" y="-2146.71" font-family="Times,serif" font-size="14.00">43184</text>
</a>
</g>
</g>
<!-- 13810&#45;&gt;43184 -->
<g id="edge9" class="edge"><title>13810&#45;&gt;43184</title>
<path fill="none" stroke="black" d="M2120.45,-2065.86C2151.88,-2084.51 2209.01,-2118.42 2240.53,-2137.13"/>
</g>
<!-- 21415 -->
<g id="node60" class="node"><title>21415</title>
<g id="a_node60"><a xlink:title="3rd_week">
<ellipse fill="#ee9898" stroke="black" cx="2240.49" cy="-1980.27" rx="32.4942" ry="18"/>
<text text-anchor="middle" x="2240.49" y="-1976.57" font-family="Times,serif" font-size="14.00">21415</text>
</a>
</g>
</g>
<!-- 13810&#45;&gt;21415 -->
<g id="edge67" class="edge"><title>13810&#45;&gt;21415</title>
<path fill="none" stroke="black" d="M2122.37,-2040.4C2148.53,-2027.08 2190.04,-2005.96 2216.24,-1992.62"/>
</g>
<!-- 22463 -->
<g id="node61" class="node"><title>22463</title>
<g id="a_node61"><a xlink:title="3rd_week">
<ellipse fill="#ee9898" stroke="black" cx="2233.92" cy="-2194.49" rx="32.4942" ry="18"/>
<text text-anchor="middle" x="2233.92" y="-2190.79" font-family="Times,serif" font-size="14.00">22463</text>
</a>
</g>
</g>
<!-- 13810&#45;&gt;22463 -->
<g id="edge29" class="edge"><title>13810&#45;&gt;22463</title>
<path fill="none" stroke="black" d="M2113.54,-2068.67C2139.6,-2095.91 2192.31,-2150.99 2218.47,-2178.34"/>
</g>
<!-- 31862 -->
<g id="node66" class="node"><title>31862</title>
<g id="a_node66"><a xlink:title="3rd_week">
<ellipse fill="#ee9898" stroke="black" cx="2276.56" cy="-2040.09" rx="32.4942" ry="18"/>
<text text-anchor="middle" x="2276.56" y="-2036.39" font-family="Times,serif" font-size="14.00">31862</text>
</a>
</g>
</g>
<!-- 13810&#45;&gt;31862 -->
<g id="edge17" class="edge"><title>13810&#45;&gt;31862</title>
<path fill="none" stroke="black" d="M2130.54,-2050.4C2162.75,-2048.12 2211.97,-2044.65 2244.21,-2042.37"/>
</g>
<!-- 41964 -->
<g id="node68" class="node"><title>41964</title>
<g id="a_node68"><a xlink:title="3rd_week">
<ellipse fill="#ee9898" stroke="black" cx="2149.64" cy="-2174.93" rx="32.4942" ry="18"/>
<text text-anchor="middle" x="2149.64" y="-2171.23" font-family="Times,serif" font-size="14.00">41964</text>
</a>
</g>
</g>
<!-- 13810&#45;&gt;41964 -->
<g id="edge50" class="edge"><title>13810&#45;&gt;41964</title>
<path fill="none" stroke="black" d="M2105.72,-2070.46C2115.46,-2093.63 2132.41,-2133.95 2142.15,-2157.13"/>
</g>
<!-- 15811 -->
<g id="node23" class="node"><title>15811</title>
<g id="a_node23"><a xlink:title="Day_0">
<ellipse fill="#e5dada" stroke="black" cx="948.824" cy="-732.467" rx="32.4942" ry="18"/>
<text text-anchor="middle" x="948.824" y="-728.767" font-family="Times,serif" font-size="14.00">15811</text>
</a>
</g>
</g>
<!-- 14802&#45;&gt;15811 -->
<g id="edge52" class="edge"><title>14802&#45;&gt;15811</title>
<path fill="none" stroke="black" d="M961.648,-618.151C958.818,-643.374 953.724,-688.788 950.882,-714.121"/>
</g>
<!-- 22457 -->
<g id="node28" class="node"><title>22457</title>
<g id="a_node28"><a xlink:title="Day_0">
<ellipse fill="#e5dada" stroke="black" cx="770.164" cy="-568.928" rx="32.4942" ry="18"/>
<text text-anchor="middle" x="770.164" y="-565.228" font-family="Times,serif" font-size="14.00">22457</text>
</a>
</g>
</g>
<!-- 14802&#45;&gt;22457 -->
<g id="edge12" class="edge"><title>14802&#45;&gt;22457</title>
<path fill="none" stroke="black" d="M932.16,-594.948C896.174,-589.168 837.654,-579.768 801.673,-573.989"/>
</g>
<!-- 24046 -->
<g id="node29" class="node"><title>24046</title>
<g id="a_node29"><a xlink:title="Day_0">
<ellipse fill="#e5dada" stroke="black" cx="1129.78" cy="-519.359" rx="32.4942" ry="18"/>
<text text-anchor="middle" x="1129.78" y="-515.659" font-family="Times,serif" font-size="14.00">24046</text>
</a>
</g>
</g>
<!-- 14802&#45;&gt;24046 -->
<g id="edge13" class="edge"><title>14802&#45;&gt;24046</title>
<path fill="none" stroke="black" d="M988.191,-588.111C1019.6,-572.862 1073.72,-546.581 1105.17,-531.308"/>
</g>
<!-- 24348 -->
<g id="node30" class="node"><title>24348</title>
<g id="a_node30"><a xlink:title="Day_0">
<ellipse fill="#e5dada" stroke="black" cx="1101.66" cy="-669.731" rx="32.4942" ry="18"/>
<text text-anchor="middle" x="1101.66" y="-666.031" font-family="Times,serif" font-size="14.00">24348</text>
</a>
</g>
</g>
<!-- 14802&#45;&gt;24348 -->
<g id="edge33" class="edge"><title>14802&#45;&gt;24348</title>
<path fill="none" stroke="black" d="M987.716,-612.156C1012.89,-624.874 1052.2,-644.738 1077.44,-657.492"/>
</g>
<!-- 27023 -->
<g id="node32" class="node"><title>27023</title>
<g id="a_node32"><a xlink:title="Day_0">
<ellipse fill="#e5dada" stroke="black" cx="1094.18" cy="-450.514" rx="32.4942" ry="18"/>
<text text-anchor="middle" x="1094.18" y="-446.814" font-family="Times,serif" font-size="14.00">27023</text>
</a>
</g>
</g>
<!-- 14802&#45;&gt;27023 -->
<g id="edge20" class="edge"><title>14802&#45;&gt;27023</title>
<path fill="none" stroke="black" d="M977.896,-583.728C1003,-554.971 1054.89,-495.52 1079.98,-466.778"/>
</g>
<!-- 27165 -->
<g id="node33" class="node"><title>27165</title>
<g id="a_node33"><a xlink:title="Day_0">
<ellipse fill="#e5dada" stroke="black" cx="784.133" cy="-504.597" rx="32.4942" ry="18"/>
<text text-anchor="middle" x="784.133" y="-500.897" font-family="Times,serif" font-size="14.00">27165</text>
</a>
</g>
</g>
<!-- 14802&#45;&gt;27165 -->
<g id="edge7" class="edge"><title>14802&#45;&gt;27165</title>
<path fill="none" stroke="black" d="M940.21,-587.538C905.799,-569.252 842.026,-535.362 807.612,-517.074"/>
</g>
<!-- 28838 -->
<g id="node35" class="node"><title>28838</title>
<g id="a_node35"><a xlink:title="Day_0">
<ellipse fill="#e5dada" stroke="black" cx="854.716" cy="-460.548" rx="32.4942" ry="18"/>
<text text-anchor="middle" x="854.716" y="-456.848" font-family="Times,serif" font-size="14.00">28838</text>
</a>
</g>
</g>
<!-- 14802&#45;&gt;28838 -->
<g id="edge30" class="edge"><title>14802&#45;&gt;28838</title>
<path fill="none" stroke="black" d="M950.755,-583.466C929.783,-556.625 888.588,-503.9 867.627,-477.073"/>
</g>
<!-- 31399 -->
<g id="node38" class="node"><title>31399</title>
<g id="a_node38"><a xlink:title="Day_0">
<ellipse fill="#e5dada" stroke="black" cx="739.048" cy="-678.5" rx="32.4942" ry="18"/>
<text text-anchor="middle" x="739.048" y="-674.8" font-family="Times,serif" font-size="14.00">31399</text>
</a>
</g>
</g>
<!-- 14802&#45;&gt;31399 -->
<g id="edge4" class="edge"><title>14802&#45;&gt;31399</title>
<path fill="none" stroke="black" d="M936.138,-609.636C893.025,-624.7 810.07,-653.684 766.818,-668.797"/>
</g>
<!-- 31771 -->
<g id="node39" class="node"><title>31771</title>
<g id="a_node39"><a xlink:title="Day_0">
<ellipse fill="#e5dada" stroke="black" cx="1130.37" cy="-590.972" rx="32.4942" ry="18"/>
<text text-anchor="middle" x="1130.37" y="-587.272" font-family="Times,serif" font-size="14.00">31771</text>
</a>
</g>
</g>
<!-- 14802&#45;&gt;31771 -->
<g id="edge65" class="edge"><title>14802&#45;&gt;31771</title>
<path fill="none" stroke="black" d="M996.218,-598.247C1025.59,-596.654 1068.57,-594.324 1097.92,-592.732"/>
</g>
<!-- 32493 -->
<g id="node40" class="node"><title>32493</title>
<g id="a_node40"><a xlink:title="Day_0">
<ellipse fill="#e5dada" stroke="black" cx="958.319" cy="-780.915" rx="32.4942" ry="18"/>
<text text-anchor="middle" x="958.319" y="-777.215" font-family="Times,serif" font-size="14.00">32493</text>
</a>
</g>
</g>
<!-- 14802&#45;&gt;32493 -->
<g id="edge28" class="edge"><title>14802&#45;&gt;32493</title>
<path fill="none" stroke="black" d="M963.149,-618.019C962.123,-652.605 959.889,-727.973 958.859,-762.712"/>
</g>
<!-- 35238 -->
<g id="node44" class="node"><title>35238</title>
<g id="a_node44"><a xlink:title="Day_0">
<ellipse fill="#e5dada" stroke="black" cx="1042.17" cy="-359.584" rx="32.4942" ry="18"/>
<text text-anchor="middle" x="1042.17" y="-355.884" font-family="Times,serif" font-size="14.00">35238</text>
</a>
</g>
</g>
<!-- 14802&#45;&gt;35238 -->
<g id="edge55" class="edge"><title>14802&#45;&gt;35238</title>
<path fill="none" stroke="black" d="M969.582,-581.94C984.163,-537.274 1021.77,-422.078 1036.31,-377.537"/>
</g>
<!-- 37235 -->
<g id="node48" class="node"><title>37235</title>
<g id="a_node48"><a xlink:title="Day_0">
<ellipse fill="#e5dada" stroke="black" cx="780.461" cy="-627.763" rx="32.4942" ry="18"/>
<text text-anchor="middle" x="780.461" y="-624.063" font-family="Times,serif" font-size="14.00">37235</text>
</a>
</g>
</g>
<!-- 14802&#45;&gt;37235 -->
<g id="edge10" class="edge"><title>14802&#45;&gt;37235</title>
<path fill="none" stroke="black" d="M932.186,-604.782C898.524,-609.881 845.475,-617.916 811.853,-623.008"/>
</g>
<!-- 42027 -->
<g id="node50" class="node"><title>42027</title>
<g id="a_node50"><a xlink:title="Day_0">
<ellipse fill="#e5dada" stroke="black" cx="935.425" cy="-426.172" rx="32.4942" ry="18"/>
<text text-anchor="middle" x="935.425" y="-422.472" font-family="Times,serif" font-size="14.00">42027</text>
</a>
</g>
</g>
<!-- 14802&#45;&gt;42027 -->
<g id="edge27" class="edge"><title>14802&#45;&gt;42027</title>
<path fill="none" stroke="black" d="M960.765,-582.062C955.35,-548.751 943.804,-477.718 938.369,-444.284"/>
</g>
<!-- 26502 -->
<g id="node31" class="node"><title>26502</title>
<g id="a_node31"><a xlink:title="Day_0">
<ellipse fill="#e5dada" stroke="black" cx="1792.35" cy="-1430.67" rx="32.4942" ry="18"/>
<text text-anchor="middle" x="1792.35" y="-1426.97" font-family="Times,serif" font-size="14.00">26502</text>
</a>
</g>
</g>
<!-- 20133&#45;&gt;26502 -->
<g id="edge71" class="edge"><title>20133&#45;&gt;26502</title>
<path fill="none" stroke="black" d="M1938.8,-1728.99C1911.7,-1673.79 1827.94,-1503.17 1800.88,-1448.04"/>
</g>
<!-- 21253 -->
<g id="node27" class="node"><title>21253</title>
<g id="a_node27"><a xlink:title="Day_0">
<ellipse fill="#e5dada" stroke="black" cx="1499.41" cy="-1069.87" rx="32.4942" ry="18"/>
<text text-anchor="middle" x="1499.41" y="-1066.17" font-family="Times,serif" font-size="14.00">21253</text>
</a>
</g>
</g>
<!-- 20221&#45;&gt;21253 -->
<g id="edge34" class="edge"><title>20221&#45;&gt;21253</title>
<path fill="none" stroke="black" d="M1620.18,-1107.36C1593.72,-1099.15 1554.47,-1086.97 1527.97,-1078.74"/>
</g>
<!-- 20221&#45;&gt;26502 -->
<g id="edge68" class="edge"><title>20221&#45;&gt;26502</title>
<path fill="none" stroke="black" d="M1656.73,-1133.99C1682.04,-1189.34 1759.12,-1357.97 1784.3,-1413.05"/>
</g>
<!-- 32928 -->
<g id="node41" class="node"><title>32928</title>
<g id="a_node41"><a xlink:title="Day_0">
<ellipse fill="#e5dada" stroke="black" cx="1539.38" cy="-1269.02" rx="32.4942" ry="18"/>
<text text-anchor="middle" x="1539.38" y="-1265.32" font-family="Times,serif" font-size="14.00">32928</text>
</a>
</g>
</g>
<!-- 20221&#45;&gt;32928 -->
<g id="edge3" class="edge"><title>20221&#45;&gt;32928</title>
<path fill="none" stroke="black" d="M1636.49,-1133.12C1615.49,-1162.5 1572.57,-1222.58 1551.54,-1252.01"/>
</g>
<!-- 33021 -->
<g id="node42" class="node"><title>33021</title>
<g id="a_node42"><a xlink:title="Day_0">
<ellipse fill="#e5dada" stroke="black" cx="1760.69" cy="-1245.29" rx="32.4942" ry="18"/>
<text text-anchor="middle" x="1760.69" y="-1241.59" font-family="Times,serif" font-size="14.00">33021</text>
</a>
</g>
</g>
<!-- 20221&#45;&gt;33021 -->
<g id="edge18" class="edge"><title>20221&#45;&gt;33021</title>
<path fill="none" stroke="black" d="M1662.79,-1132.53C1684.23,-1157.23 1724.67,-1203.8 1746.25,-1228.66"/>
</g>
<!-- 35570 -->
<g id="node45" class="node"><title>35570</title>
<g id="a_node45"><a xlink:title="Day_0">
<ellipse fill="#e5dada" stroke="black" cx="1922.7" cy="-1152.4" rx="32.4942" ry="18"/>
<text text-anchor="middle" x="1922.7" y="-1148.7" font-family="Times,serif" font-size="14.00">35570</text>
</a>
</g>
</g>
<!-- 20221&#45;&gt;35570 -->
<g id="edge66" class="edge"><title>20221&#45;&gt;35570</title>
<path fill="none" stroke="black" d="M1680.3,-1120.37C1733.01,-1127.34 1838.06,-1141.22 1890.85,-1148.19"/>
</g>
<!-- 36300 -->
<g id="node46" class="node"><title>36300</title>
<g id="a_node46"><a xlink:title="Day_0">
<ellipse fill="#e5dada" stroke="black" cx="1790.64" cy="-1190.49" rx="32.4942" ry="18"/>
<text text-anchor="middle" x="1790.64" y="-1186.79" font-family="Times,serif" font-size="14.00">36300</text>
</a>
</g>
</g>
<!-- 20221&#45;&gt;36300 -->
<g id="edge72" class="edge"><title>20221&#45;&gt;36300</title>
<path fill="none" stroke="black" d="M1672.37,-1128.62C1698.59,-1142.34 1740.53,-1164.28 1766.79,-1178.01"/>
</g>
<!-- 37123 -->
<g id="node47" class="node"><title>37123</title>
<g id="a_node47"><a xlink:title="Day_0">
<ellipse fill="#e5dada" stroke="black" cx="1686.81" cy="-1294.01" rx="32.4942" ry="18"/>
<text text-anchor="middle" x="1686.81" y="-1290.31" font-family="Times,serif" font-size="14.00">37123</text>
</a>
</g>
</g>
<!-- 20221&#45;&gt;37123 -->
<g id="edge64" class="edge"><title>20221&#45;&gt;37123</title>
<path fill="none" stroke="black" d="M1652.47,-1134.21C1659.79,-1168.29 1675.59,-1241.81 1682.92,-1275.93"/>
</g>
<!-- 42036 -->
<g id="node51" class="node"><title>42036</title>
<g id="a_node51"><a xlink:title="Day_0">
<ellipse fill="#e5dada" stroke="black" cx="1503.11" cy="-1220.18" rx="32.4942" ry="18"/>
<text text-anchor="middle" x="1503.11" y="-1216.48" font-family="Times,serif" font-size="14.00">42036</text>
</a>
</g>
</g>
<!-- 20221&#45;&gt;42036 -->
<g id="edge48" class="edge"><title>20221&#45;&gt;42036</title>
<path fill="none" stroke="black" d="M1628.67,-1130.43C1600.96,-1150.23 1551.08,-1185.89 1523.26,-1205.78"/>
</g>
<!-- 43690 -->
<g id="node55" class="node"><title>43690</title>
<g id="a_node55"><a xlink:title="Day_0">
<ellipse fill="#e5dada" stroke="black" cx="1483.16" cy="-1156.9" rx="32.4942" ry="18"/>
<text text-anchor="middle" x="1483.16" y="-1153.2" font-family="Times,serif" font-size="14.00">43690</text>
</a>
</g>
</g>
<!-- 20221&#45;&gt;43690 -->
<g id="edge53" class="edge"><title>20221&#45;&gt;43690</title>
<path fill="none" stroke="black" d="M1618.63,-1123.56C1588.65,-1130.94 1542.8,-1142.22 1512.9,-1149.58"/>
</g>
<!-- 15050 -->
<g id="node58" class="node"><title>15050</title>
<g id="a_node58"><a xlink:title="3rd_week">
<ellipse fill="#ee9898" stroke="black" cx="1803.66" cy="-921.929" rx="32.4942" ry="18"/>
<text text-anchor="middle" x="1803.66" y="-918.229" font-family="Times,serif" font-size="14.00">15050</text>
</a>
</g>
</g>
<!-- 20221&#45;&gt;15050 -->
<g id="edge25" class="edge"><title>20221&#45;&gt;15050</title>
<path fill="none" stroke="black" d="M1661.81,-1099.62C1691.11,-1062.92 1761.2,-975.11 1790.47,-938.449"/>
</g>
<!-- 19284 -->
<g id="node59" class="node"><title>19284</title>
<g id="a_node59"><a xlink:title="6th_week">
<ellipse fill="#c81d25" stroke="black" cx="1844.53" cy="-1025.05" rx="32.4942" ry="18"/>
<text text-anchor="middle" x="1844.53" y="-1021.35" font-family="Times,serif" font-size="14.00">19284</text>
</a>
</g>
</g>
<!-- 20221&#45;&gt;19284 -->
<g id="edge32" class="edge"><title>20221&#45;&gt;19284</title>
<path fill="none" stroke="black" d="M1673.81,-1104.46C1711.43,-1086.96 1781.85,-1054.21 1819.42,-1036.73"/>
</g>
<!-- 44392 -->
<g id="node71" class="node"><title>44392</title>
<g id="a_node71"><a xlink:title="6th_week">
<ellipse fill="#c81d25" stroke="black" cx="1742.54" cy="-997.914" rx="32.4942" ry="18"/>
<text text-anchor="middle" x="1742.54" y="-994.214" font-family="Times,serif" font-size="14.00">44392</text>
</a>
</g>
</g>
<!-- 20221&#45;&gt;44392 -->
<g id="edge51" class="edge"><title>20221&#45;&gt;44392</title>
<path fill="none" stroke="black" d="M1661.85,-1099.49C1679.76,-1076.95 1711.48,-1037.02 1729.35,-1014.52"/>
</g>
<!-- 28608 -->
<g id="node34" class="node"><title>28608</title>
<g id="a_node34"><a xlink:title="Day_0">
<ellipse fill="#e5dada" stroke="black" cx="2070.17" cy="-1267.89" rx="32.4942" ry="18"/>
<text text-anchor="middle" x="2070.17" y="-1264.19" font-family="Times,serif" font-size="14.00">28608</text>
</a>
</g>
</g>
<!-- 28608&#45;&gt;35570 -->
<g id="edge40" class="edge"><title>28608&#45;&gt;35570</title>
<path fill="none" stroke="black" d="M2051.19,-1253.03C2022.88,-1230.85 1969.88,-1189.35 1941.61,-1167.2"/>
</g>
<!-- 30959 -->
<g id="node36" class="node"><title>30959</title>
<g id="a_node36"><a xlink:title="Day_0">
<ellipse fill="#e5dada" stroke="black" cx="2110.4" cy="-1208.64" rx="32.4942" ry="18"/>
<text text-anchor="middle" x="2110.4" y="-1204.94" font-family="Times,serif" font-size="14.00">30959</text>
</a>
</g>
</g>
<!-- 30959&#45;&gt;35570 -->
<g id="edge5" class="edge"><title>30959&#45;&gt;35570</title>
<path fill="none" stroke="black" d="M2081.48,-1199.98C2046.11,-1189.38 1986.59,-1171.54 1951.34,-1160.98"/>
</g>
<!-- 42643 -->
<g id="node53" class="node"><title>42643</title>
<g id="a_node53"><a xlink:title="Day_0">
<ellipse fill="#e5dada" stroke="black" cx="551.808" cy="-746.331" rx="32.4942" ry="18"/>
<text text-anchor="middle" x="551.808" y="-742.631" font-family="Times,serif" font-size="14.00">42643</text>
</a>
</g>
</g>
<!-- 31399&#45;&gt;42643 -->
<g id="edge14" class="edge"><title>31399&#45;&gt;42643</title>
<path fill="none" stroke="black" d="M711.822,-688.363C676.322,-701.223 614.583,-723.589 579.067,-736.456"/>
</g>
<!-- 33479 -->
<g id="node72" class="node"><title>33479</title>
<g id="a_node72"><a xlink:title="Day_0">
<ellipse fill="#e5dada" stroke="black" cx="1096.31" cy="-181.243" rx="32.4942" ry="18"/>
<text text-anchor="middle" x="1096.31" y="-177.543" font-family="Times,serif" font-size="14.00">33479</text>
</a>
</g>
</g>
<!-- 35238&#45;&gt;33479 -->
<g id="edge16" class="edge"><title>35238&#45;&gt;33479</title>
<path fill="none" stroke="black" d="M1047.56,-341.832C1057.91,-307.735 1080.46,-233.435 1090.86,-199.187"/>
</g>
<!-- 2278 -->
<g id="node56" class="node"><title>2278</title>
<g id="a_node56"><a xlink:title="Day_0">
<ellipse fill="#e5dada" stroke="black" cx="2113.13" cy="-1145.48" rx="28.6953" ry="18"/>
<text text-anchor="middle" x="2113.13" y="-1141.78" font-family="Times,serif" font-size="14.00">2278</text>
</a>
</g>
</g>
<!-- 35570&#45;&gt;2278 -->
<g id="edge22" class="edge"><title>35570&#45;&gt;2278</title>
<path fill="none" stroke="black" d="M1955.44,-1151.21C1991.81,-1149.89 2049.95,-1147.78 2084.55,-1146.52"/>
</g>
<!-- 42500 -->
<g id="node69" class="node"><title>42500</title>
<g id="a_node69"><a xlink:title="Day_0">
<ellipse fill="#e5dada" stroke="black" cx="2104.42" cy="-1081.03" rx="32.4942" ry="18"/>
<text text-anchor="middle" x="2104.42" y="-1077.33" font-family="Times,serif" font-size="14.00">42500</text>
</a>
</g>
</g>
<!-- 35570&#45;&gt;42500 -->
<g id="edge56" class="edge"><title>35570&#45;&gt;42500</title>
<path fill="none" stroke="black" d="M1949.52,-1141.87C1983.97,-1128.34 2043.43,-1104.99 2077.79,-1091.49"/>
</g>
<!-- 7952 -->
<g id="node57" class="node"><title>7952</title>
<g id="a_node57"><a xlink:title="6th_week">
<ellipse fill="#c81d25" stroke="black" cx="1955.92" cy="-807.946" rx="28.6953" ry="18"/>
<text text-anchor="middle" x="1955.92" y="-804.246" font-family="Times,serif" font-size="14.00">7952</text>
</a>
</g>
</g>
<!-- 7952&#45;&gt;15050 -->
<g id="edge73" class="edge"><title>7952&#45;&gt;15050</title>
<path fill="none" stroke="black" d="M1937.25,-821.922C1908.34,-843.561 1853.02,-884.979 1823.44,-907.115"/>
</g>
<!-- 29736 -->
<g id="node65" class="node"><title>29736</title>
<g id="a_node65"><a xlink:title="3rd_week">
<ellipse fill="#ee9898" stroke="black" cx="1898.38" cy="-755.06" rx="32.4942" ry="18"/>
<text text-anchor="middle" x="1898.38" y="-751.36" font-family="Times,serif" font-size="14.00">29736</text>
</a>
</g>
</g>
<!-- 15050&#45;&gt;29736 -->
<g id="edge42" class="edge"><title>15050&#45;&gt;29736</title>
<path fill="none" stroke="black" d="M1813.44,-904.699C1831.59,-872.723 1870.29,-804.539 1888.51,-772.446"/>
</g>
<!-- 34764 -->
<g id="node67" class="node"><title>34764</title>
<g id="a_node67"><a xlink:title="6th_week">
<ellipse fill="#c81d25" stroke="black" cx="2018.48" cy="-940.973" rx="32.4942" ry="18"/>
<text text-anchor="middle" x="2018.48" y="-937.273" font-family="Times,serif" font-size="14.00">34764</text>
</a>
</g>
</g>
<!-- 19284&#45;&gt;34764 -->
<g id="edge36" class="edge"><title>19284&#45;&gt;34764</title>
<path fill="none" stroke="black" d="M1869.09,-1013.18C1902.14,-997.204 1960.63,-968.934 1993.77,-952.916"/>
</g>
<!-- 29125 -->
<g id="node63" class="node"><title>29125</title>
<g id="a_node63"><a xlink:title="6th_week">
<ellipse fill="#c81d25" stroke="black" cx="269.432" cy="-280.809" rx="32.4942" ry="18"/>
<text text-anchor="middle" x="269.432" y="-277.109" font-family="Times,serif" font-size="14.00">29125</text>
</a>
</g>
</g>
<!-- 24763&#45;&gt;29125 -->
<g id="edge35" class="edge"><title>24763&#45;&gt;29125</title>
<path fill="none" stroke="black" d="M402.222,-292.685C373.15,-290.085 330.602,-286.28 301.555,-283.682"/>
</g>
<!-- 44351 -->
<g id="node70" class="node"><title>44351</title>
<g id="a_node70"><a xlink:title="6th_week">
<ellipse fill="#c81d25" stroke="black" cx="336.172" cy="-162.085" rx="32.4942" ry="18"/>
<text text-anchor="middle" x="336.172" y="-158.385" font-family="Times,serif" font-size="14.00">44351</text>
</a>
</g>
</g>
<!-- 24763&#45;&gt;44351 -->
<g id="edge60" class="edge"><title>24763&#45;&gt;44351</title>
<path fill="none" stroke="black" d="M421.983,-278.66C403.083,-252.984 367.354,-204.447 348.515,-178.853"/>
</g>
<!-- 22973 -->
<g id="node73" class="node"><title>22973</title>
<g id="a_node73"><a xlink:title="6th_week">
<ellipse fill="#c81d25" stroke="black" cx="218.945" cy="-170.189" rx="32.4942" ry="18"/>
<text text-anchor="middle" x="218.945" y="-166.489" font-family="Times,serif" font-size="14.00">22973</text>
</a>
</g>
</g>
<!-- 24763&#45;&gt;22973 -->
<g id="edge54" class="edge"><title>24763&#45;&gt;22973</title>
<path fill="none" stroke="black" d="M411.774,-282.385C370.389,-258.305 283.018,-207.469 241.618,-183.381"/>
</g>
<!-- 6958 -->
<g id="node74" class="node"><title>6958</title>
<g id="a_node74"><a xlink:title="6th_week">
<ellipse fill="#c81d25" stroke="black" cx="59.0689" cy="-77.4139" rx="28.6953" ry="18"/>
<text text-anchor="middle" x="59.0689" y="-73.7139" font-family="Times,serif" font-size="14.00">6958</text>
</a>
</g>
</g>
<!-- 22973&#45;&gt;6958 -->
<g id="edge46" class="edge"><title>22973&#45;&gt;6958</title>
<path fill="none" stroke="black" d="M196.378,-157.093C165.477,-139.162 110.403,-107.203 80.247,-89.7034"/>
</g>
<!-- 24098 -->
<g id="node75" class="node"><title>24098</title>
<g id="a_node75"><a xlink:title="6th_week">
<ellipse fill="#c81d25" stroke="black" cx="109.394" cy="-18.3053" rx="32.4942" ry="18"/>
<text text-anchor="middle" x="109.394" y="-14.6053" font-family="Times,serif" font-size="14.00">24098</text>
</a>
</g>
</g>
<!-- 22973&#45;&gt;24098 -->
<g id="edge74" class="edge"><title>22973&#45;&gt;24098</title>
<path fill="none" stroke="black" d="M206.803,-153.354C185.745,-124.159 142.687,-64.4628 121.591,-35.2152"/>
</g>
<!-- 43083 -->
<g id="node76" class="node"><title>43083</title>
<g id="a_node76"><a xlink:title="6th_week">
<ellipse fill="#c81d25" stroke="black" cx="32.8352" cy="-150.6" rx="32.4942" ry="18"/>
<text text-anchor="middle" x="32.8352" y="-146.9" font-family="Times,serif" font-size="14.00">43083</text>
</a>
</g>
</g>
<!-- 22973&#45;&gt;43083 -->
<g id="edge75" class="edge"><title>22973&#45;&gt;43083</title>
<path fill="none" stroke="black" d="M186.952,-166.821C152.863,-163.234 99.201,-157.585 65.034,-153.989"/>
</g>
</g>
</svg>
