<?xml version="1.0" encoding="UTF-8" standalone="no"?>
<!DOCTYPE svg PUBLIC "-//W3C//DTD SVG 1.1//EN"
 "http://www.w3.org/Graphics/SVG/1.1/DTD/svg11.dtd">
<!-- Generated by graphviz version 2.38.0 (20140413.2041)
 -->
<!-- Title: %3 Pages: 1 -->
<svg width="2090pt" height="2335pt"
 viewBox="0.00 0.00 2090.00 2335.00" xmlns="http://www.w3.org/2000/svg" xmlns:xlink="http://www.w3.org/1999/xlink">
<g id="graph0" class="graph" transform="scale(1 1) rotate(0) translate(4 2331)">
<title>%3</title>
<polygon fill="white" stroke="none" points="-4,4 -4,-2331 2086,-2331 2086,4 -4,4"/>
<!-- 591 -->
<g id="node1" class="node"><title>591</title>
<g id="a_node1"><a xlink:title="6th_week">
<ellipse fill="#c81d25" stroke="black" cx="734.367" cy="-1027.25" rx="27" ry="18"/>
<text text-anchor="middle" x="734.367" y="-1023.55" font-family="Times,serif" font-size="14.00">591</text>
</a>
</g>
</g>
<!-- 16293 -->
<g id="node41" class="node"><title>16293</title>
<g id="a_node41"><a xlink:title="6th_week">
<ellipse fill="#c81d25" stroke="black" cx="667.689" cy="-1186.45" rx="32.4942" ry="18"/>
<text text-anchor="middle" x="667.689" y="-1182.75" font-family="Times,serif" font-size="14.00">16293</text>
</a>
</g>
</g>
<!-- 591&#45;&gt;16293 -->
<g id="edge79" class="edge"><title>591&#45;&gt;16293</title>
<path fill="none" stroke="black" d="M727.104,-1044.59C714.346,-1075.05 688.041,-1137.86 675.146,-1168.64"/>
</g>
<!-- 965 -->
<g id="node2" class="node"><title>965</title>
<g id="a_node2"><a xlink:title="6th_week">
<ellipse fill="#c81d25" stroke="black" cx="789.595" cy="-2117.62" rx="27" ry="18"/>
<text text-anchor="middle" x="789.595" y="-2113.92" font-family="Times,serif" font-size="14.00">965</text>
</a>
</g>
</g>
<!-- 12925 -->
<g id="node35" class="node"><title>12925</title>
<g id="a_node35"><a xlink:title="6th_week">
<ellipse fill="#c81d25" stroke="black" cx="807.682" cy="-1940.65" rx="32.4942" ry="18"/>
<text text-anchor="middle" x="807.682" y="-1936.95" font-family="Times,serif" font-size="14.00">12925</text>
</a>
</g>
</g>
<!-- 965&#45;&gt;12925 -->
<g id="edge11" class="edge"><title>965&#45;&gt;12925</title>
<path fill="none" stroke="black" d="M791.463,-2099.35C794.938,-2065.35 802.358,-1992.75 805.825,-1958.82"/>
</g>
<!-- 1039 -->
<g id="node3" class="node"><title>1039</title>
<g id="a_node3"><a xlink:title="6th_week">
<ellipse fill="#c81d25" stroke="black" cx="880.773" cy="-205.395" rx="28.6953" ry="18"/>
<text text-anchor="middle" x="880.773" y="-201.695" font-family="Times,serif" font-size="14.00">1039</text>
</a>
</g>
</g>
<!-- 4050 -->
<g id="node11" class="node"><title>4050</title>
<g id="a_node11"><a xlink:title="6th_week">
<ellipse fill="#c81d25" stroke="black" cx="912.21" cy="-49.1087" rx="28.6953" ry="18"/>
<text text-anchor="middle" x="912.21" y="-45.4087" font-family="Times,serif" font-size="14.00">4050</text>
</a>
</g>
</g>
<!-- 1039&#45;&gt;4050 -->
<g id="edge33" class="edge"><title>1039&#45;&gt;4050</title>
<path fill="none" stroke="black" d="M884.379,-187.467C890.411,-157.48 902.481,-97.4765 908.549,-67.309"/>
</g>
<!-- 15679 -->
<g id="node39" class="node"><title>15679</title>
<g id="a_node39"><a xlink:title="6th_week">
<ellipse fill="#c81d25" stroke="black" cx="822.541" cy="-34.5443" rx="32.4942" ry="18"/>
<text text-anchor="middle" x="822.541" y="-30.8443" font-family="Times,serif" font-size="14.00">15679</text>
</a>
</g>
</g>
<!-- 1039&#45;&gt;15679 -->
<g id="edge65" class="edge"><title>1039&#45;&gt;15679</title>
<path fill="none" stroke="black" d="M874.76,-187.755C863.602,-155.016 839.808,-85.2043 828.608,-52.3448"/>
</g>
<!-- 15869 -->
<g id="node40" class="node"><title>15869</title>
<g id="a_node40"><a xlink:title="6th_week">
<ellipse fill="#c81d25" stroke="black" cx="757.74" cy="-100.076" rx="32.4942" ry="18"/>
<text text-anchor="middle" x="757.74" y="-96.3759" font-family="Times,serif" font-size="14.00">15869</text>
</a>
</g>
</g>
<!-- 1039&#45;&gt;15869 -->
<g id="edge17" class="edge"><title>1039&#45;&gt;15869</title>
<path fill="none" stroke="black" d="M863.666,-190.751C840.424,-170.856 799.073,-135.458 775.499,-115.278"/>
</g>
<!-- 18990 -->
<g id="node47" class="node"><title>18990</title>
<g id="a_node47"><a xlink:title="6th_week">
<ellipse fill="#c81d25" stroke="black" cx="948.475" cy="-376.559" rx="32.4942" ry="18"/>
<text text-anchor="middle" x="948.475" y="-372.859" font-family="Times,serif" font-size="14.00">18990</text>
</a>
</g>
</g>
<!-- 1039&#45;&gt;18990 -->
<g id="edge47" class="edge"><title>1039&#45;&gt;18990</title>
<path fill="none" stroke="black" d="M887.763,-223.068C900.737,-255.867 928.401,-325.806 941.422,-358.726"/>
</g>
<!-- 2321 -->
<g id="node4" class="node"><title>2321</title>
<g id="a_node4"><a xlink:title="6th_week">
<ellipse fill="#c81d25" stroke="black" cx="1976.79" cy="-2287.03" rx="28.6953" ry="18"/>
<text text-anchor="middle" x="1976.79" y="-2283.33" font-family="Times,serif" font-size="14.00">2321</text>
</a>
</g>
</g>
<!-- 21264 -->
<g id="node55" class="node"><title>21264</title>
<g id="a_node55"><a xlink:title="6th_week">
<ellipse fill="#c81d25" stroke="black" cx="1874.92" cy="-2155.06" rx="32.4942" ry="18"/>
<text text-anchor="middle" x="1874.92" y="-2151.36" font-family="Times,serif" font-size="14.00">21264</text>
</a>
</g>
</g>
<!-- 2321&#45;&gt;21264 -->
<g id="edge82" class="edge"><title>2321&#45;&gt;21264</title>
<path fill="none" stroke="black" d="M1964.09,-2270.58C1944.57,-2245.29 1907.39,-2197.13 1887.78,-2171.71"/>
</g>
<!-- 2943 -->
<g id="node5" class="node"><title>2943</title>
<g id="a_node5"><a xlink:title="6th_week">
<ellipse fill="#c81d25" stroke="black" cx="1441.5" cy="-1846.11" rx="28.6953" ry="18"/>
<text text-anchor="middle" x="1441.5" y="-1842.41" font-family="Times,serif" font-size="14.00">2943</text>
</a>
</g>
</g>
<!-- 18310 -->
<g id="node46" class="node"><title>18310</title>
<g id="a_node46"><a xlink:title="6th_week">
<ellipse fill="#c81d25" stroke="black" cx="1282.88" cy="-1818.1" rx="32.4942" ry="18"/>
<text text-anchor="middle" x="1282.88" y="-1814.4" font-family="Times,serif" font-size="14.00">18310</text>
</a>
</g>
</g>
<!-- 2943&#45;&gt;18310 -->
<g id="edge57" class="edge"><title>2943&#45;&gt;18310</title>
<path fill="none" stroke="black" d="M1413.87,-1841.23C1386,-1836.31 1343.04,-1828.73 1313.99,-1823.6"/>
</g>
<!-- 3469 -->
<g id="node6" class="node"><title>3469</title>
<g id="a_node6"><a xlink:title="6th_week">
<ellipse fill="#c81d25" stroke="black" cx="760.49" cy="-1267.2" rx="28.6953" ry="18"/>
<text text-anchor="middle" x="760.49" y="-1263.5" font-family="Times,serif" font-size="14.00">3469</text>
</a>
</g>
</g>
<!-- 3469&#45;&gt;16293 -->
<g id="edge29" class="edge"><title>3469&#45;&gt;16293</title>
<path fill="none" stroke="black" d="M743.469,-1252.39C726.934,-1238 701.943,-1216.25 685.232,-1201.71"/>
</g>
<!-- 3571 -->
<g id="node7" class="node"><title>3571</title>
<g id="a_node7"><a xlink:title="6th_week">
<ellipse fill="#c81d25" stroke="black" cx="539.876" cy="-1199.41" rx="28.6953" ry="18"/>
<text text-anchor="middle" x="539.876" y="-1195.71" font-family="Times,serif" font-size="14.00">3571</text>
</a>
</g>
</g>
<!-- 3571&#45;&gt;16293 -->
<g id="edge21" class="edge"><title>3571&#45;&gt;16293</title>
<path fill="none" stroke="black" d="M568.242,-1196.53C588.099,-1194.52 614.668,-1191.82 635.348,-1189.73"/>
</g>
<!-- 3715 -->
<g id="node8" class="node"><title>3715</title>
<g id="a_node8"><a xlink:title="6th_week">
<ellipse fill="#c81d25" stroke="black" cx="961.438" cy="-626.607" rx="28.6953" ry="18"/>
<text text-anchor="middle" x="961.438" y="-622.907" font-family="Times,serif" font-size="14.00">3715</text>
</a>
</g>
</g>
<!-- 3727 -->
<g id="node9" class="node"><title>3727</title>
<g id="a_node9"><a xlink:title="6th_week">
<ellipse fill="#c81d25" stroke="black" cx="892.971" cy="-497.311" rx="28.6953" ry="18"/>
<text text-anchor="middle" x="892.971" y="-493.611" font-family="Times,serif" font-size="14.00">3727</text>
</a>
</g>
</g>
<!-- 3715&#45;&gt;3727 -->
<g id="edge18" class="edge"><title>3715&#45;&gt;3727</title>
<path fill="none" stroke="black" d="M952.346,-609.437C939.251,-584.708 915.217,-539.32 902.101,-514.551"/>
</g>
<!-- 3774 -->
<g id="node10" class="node"><title>3774</title>
<g id="a_node10"><a xlink:title="6th_week">
<ellipse fill="#c81d25" stroke="black" cx="1050.14" cy="-472.618" rx="28.6953" ry="18"/>
<text text-anchor="middle" x="1050.14" y="-468.918" font-family="Times,serif" font-size="14.00">3774</text>
</a>
</g>
</g>
<!-- 3715&#45;&gt;3774 -->
<g id="edge66" class="edge"><title>3715&#45;&gt;3774</title>
<path fill="none" stroke="black" d="M971.27,-609.539C988.32,-579.939 1023.18,-519.415 1040.26,-489.762"/>
</g>
<!-- 4297 -->
<g id="node13" class="node"><title>4297</title>
<g id="a_node13"><a xlink:title="6th_week">
<ellipse fill="#c81d25" stroke="black" cx="848.825" cy="-548.085" rx="28.6953" ry="18"/>
<text text-anchor="middle" x="848.825" y="-544.385" font-family="Times,serif" font-size="14.00">4297</text>
</a>
</g>
</g>
<!-- 3715&#45;&gt;4297 -->
<g id="edge61" class="edge"><title>3715&#45;&gt;4297</title>
<path fill="none" stroke="black" d="M942.079,-613.108C921.453,-598.726 888.982,-576.086 868.308,-561.67"/>
</g>
<!-- 11546 -->
<g id="node31" class="node"><title>11546</title>
<g id="a_node31"><a xlink:title="6th_week">
<ellipse fill="#c81d25" stroke="black" cx="1195.21" cy="-482.573" rx="32.4942" ry="18"/>
<text text-anchor="middle" x="1195.21" y="-478.873" font-family="Times,serif" font-size="14.00">11546</text>
</a>
</g>
</g>
<!-- 3715&#45;&gt;11546 -->
<g id="edge16" class="edge"><title>3715&#45;&gt;11546</title>
<path fill="none" stroke="black" d="M982.184,-613.825C1026.1,-586.767 1128.11,-523.917 1173.15,-496.163"/>
</g>
<!-- 11952 -->
<g id="node32" class="node"><title>11952</title>
<g id="a_node32"><a xlink:title="6th_week">
<ellipse fill="#c81d25" stroke="black" cx="969.854" cy="-483.886" rx="32.4942" ry="18"/>
<text text-anchor="middle" x="969.854" y="-480.186" font-family="Times,serif" font-size="14.00">11952</text>
</a>
</g>
</g>
<!-- 3715&#45;&gt;11952 -->
<g id="edge38" class="edge"><title>3715&#45;&gt;11952</title>
<path fill="none" stroke="black" d="M962.504,-608.531C964.114,-581.228 967.149,-529.747 968.77,-502.266"/>
</g>
<!-- 15607 -->
<g id="node38" class="node"><title>15607</title>
<g id="a_node38"><a xlink:title="6th_week">
<ellipse fill="#c81d25" stroke="black" cx="824.937" cy="-885.894" rx="32.4942" ry="18"/>
<text text-anchor="middle" x="824.937" y="-882.194" font-family="Times,serif" font-size="14.00">15607</text>
</a>
</g>
</g>
<!-- 3715&#45;&gt;15607 -->
<g id="edge53" class="edge"><title>3715&#45;&gt;15607</title>
<path fill="none" stroke="black" d="M952.27,-644.022C927.403,-691.257 858.885,-821.408 834.065,-868.554"/>
</g>
<!-- 3715&#45;&gt;18990 -->
<g id="edge68" class="edge"><title>3715&#45;&gt;18990</title>
<path fill="none" stroke="black" d="M960.485,-608.22C958.082,-561.866 951.798,-440.654 949.413,-394.636"/>
</g>
<!-- 20525 -->
<g id="node51" class="node"><title>20525</title>
<g id="a_node51"><a xlink:title="6th_week">
<ellipse fill="#c81d25" stroke="black" cx="1103.26" cy="-616.839" rx="32.4942" ry="18"/>
<text text-anchor="middle" x="1103.26" y="-613.139" font-family="Times,serif" font-size="14.00">20525</text>
</a>
</g>
</g>
<!-- 3715&#45;&gt;20525 -->
<g id="edge83" class="edge"><title>3715&#45;&gt;20525</title>
<path fill="none" stroke="black" d="M990.138,-624.63C1013.53,-623.019 1046.56,-620.744 1070.89,-619.068"/>
</g>
<!-- 24656 -->
<g id="node62" class="node"><title>24656</title>
<g id="a_node62"><a xlink:title="6th_week">
<ellipse fill="#c81d25" stroke="black" cx="1098.78" cy="-346.288" rx="32.4942" ry="18"/>
<text text-anchor="middle" x="1098.78" y="-342.588" font-family="Times,serif" font-size="14.00">24656</text>
</a>
</g>
</g>
<!-- 3774&#45;&gt;24656 -->
<g id="edge84" class="edge"><title>3774&#45;&gt;24656</title>
<path fill="none" stroke="black" d="M1056.9,-455.052C1066.14,-431.052 1082.62,-388.245 1091.92,-364.111"/>
</g>
<!-- 4059 -->
<g id="node12" class="node"><title>4059</title>
<g id="a_node12"><a xlink:title="6th_week">
<ellipse fill="#c81d25" stroke="black" cx="1491.86" cy="-269.179" rx="28.6953" ry="18"/>
<text text-anchor="middle" x="1491.86" y="-265.479" font-family="Times,serif" font-size="14.00">4059</text>
</a>
</g>
</g>
<!-- 7817 -->
<g id="node23" class="node"><title>7817</title>
<g id="a_node23"><a xlink:title="6th_week">
<ellipse fill="#c81d25" stroke="black" cx="1377.4" cy="-352.002" rx="28.6953" ry="18"/>
<text text-anchor="middle" x="1377.4" y="-348.302" font-family="Times,serif" font-size="14.00">7817</text>
</a>
</g>
</g>
<!-- 4059&#45;&gt;7817 -->
<g id="edge8" class="edge"><title>4059&#45;&gt;7817</title>
<path fill="none" stroke="black" d="M1472.96,-282.855C1451.75,-298.201 1417.55,-322.951 1396.33,-338.305"/>
</g>
<!-- 4516 -->
<g id="node14" class="node"><title>4516</title>
<g id="a_node14"><a xlink:title="6th_week">
<ellipse fill="#c81d25" stroke="black" cx="1903.35" cy="-2308.84" rx="28.6953" ry="18"/>
<text text-anchor="middle" x="1903.35" y="-2305.14" font-family="Times,serif" font-size="14.00">4516</text>
</a>
</g>
</g>
<!-- 4516&#45;&gt;21264 -->
<g id="edge80" class="edge"><title>4516&#45;&gt;21264</title>
<path fill="none" stroke="black" d="M1900.03,-2290.9C1894.58,-2261.42 1883.8,-2203.07 1878.3,-2173.36"/>
</g>
<!-- 4590 -->
<g id="node15" class="node"><title>4590</title>
<g id="a_node15"><a xlink:title="6th_week">
<ellipse fill="#c81d25" stroke="black" cx="866.059" cy="-1607.83" rx="28.6953" ry="18"/>
<text text-anchor="middle" x="866.059" y="-1604.13" font-family="Times,serif" font-size="14.00">4590</text>
</a>
</g>
</g>
<!-- 8265 -->
<g id="node27" class="node"><title>8265</title>
<g id="a_node27"><a xlink:title="6th_week">
<ellipse fill="#c81d25" stroke="black" cx="819.791" cy="-1499.84" rx="28.6953" ry="18"/>
<text text-anchor="middle" x="819.791" y="-1496.14" font-family="Times,serif" font-size="14.00">8265</text>
</a>
</g>
</g>
<!-- 4590&#45;&gt;8265 -->
<g id="edge54" class="edge"><title>4590&#45;&gt;8265</title>
<path fill="none" stroke="black" d="M858.419,-1590C849.795,-1569.87 835.854,-1537.33 827.289,-1517.34"/>
</g>
<!-- 5162 -->
<g id="node16" class="node"><title>5162</title>
<g id="a_node16"><a xlink:title="6th_week">
<ellipse fill="#c81d25" stroke="black" cx="1318.06" cy="-432.297" rx="28.6953" ry="18"/>
<text text-anchor="middle" x="1318.06" y="-428.597" font-family="Times,serif" font-size="14.00">5162</text>
</a>
</g>
</g>
<!-- 5162&#45;&gt;11546 -->
<g id="edge59" class="edge"><title>5162&#45;&gt;11546</title>
<path fill="none" stroke="black" d="M1294.08,-442.11C1273.27,-450.626 1243.19,-462.936 1221.68,-471.739"/>
</g>
<!-- 5623 -->
<g id="node17" class="node"><title>5623</title>
<g id="a_node17"><a xlink:title="6th_week">
<ellipse fill="#c81d25" stroke="black" cx="412.712" cy="-1411.44" rx="28.6953" ry="18"/>
<text text-anchor="middle" x="412.712" y="-1407.74" font-family="Times,serif" font-size="14.00">5623</text>
</a>
</g>
</g>
<!-- 15507 -->
<g id="node37" class="node"><title>15507</title>
<g id="a_node37"><a xlink:title="6th_week">
<ellipse fill="#c81d25" stroke="black" cx="543.543" cy="-1296.66" rx="32.4942" ry="18"/>
<text text-anchor="middle" x="543.543" y="-1292.96" font-family="Times,serif" font-size="14.00">15507</text>
</a>
</g>
</g>
<!-- 5623&#45;&gt;15507 -->
<g id="edge5" class="edge"><title>5623&#45;&gt;15507</title>
<path fill="none" stroke="black" d="M429.548,-1396.67C454.393,-1374.88 500.657,-1334.29 525.937,-1312.11"/>
</g>
<!-- 5833 -->
<g id="node18" class="node"><title>5833</title>
<g id="a_node18"><a xlink:title="6th_week">
<ellipse fill="#c81d25" stroke="black" cx="301.37" cy="-1013.92" rx="28.6953" ry="18"/>
<text text-anchor="middle" x="301.37" y="-1010.22" font-family="Times,serif" font-size="14.00">5833</text>
</a>
</g>
</g>
<!-- 27980 -->
<g id="node74" class="node"><title>27980</title>
<g id="a_node74"><a xlink:title="6th_week">
<ellipse fill="#c81d25" stroke="black" cx="411.203" cy="-1047.36" rx="32.4942" ry="18"/>
<text text-anchor="middle" x="411.203" y="-1043.66" font-family="Times,serif" font-size="14.00">27980</text>
</a>
</g>
</g>
<!-- 5833&#45;&gt;27980 -->
<g id="edge49" class="edge"><title>5833&#45;&gt;27980</title>
<path fill="none" stroke="black" d="M327.121,-1021.76C343.733,-1026.82 365.361,-1033.4 382.522,-1038.63"/>
</g>
<!-- 6106 -->
<g id="node19" class="node"><title>6106</title>
<g id="a_node19"><a xlink:title="6th_week">
<ellipse fill="#c81d25" stroke="black" cx="785.234" cy="-1079.76" rx="28.6953" ry="18"/>
<text text-anchor="middle" x="785.234" y="-1076.06" font-family="Times,serif" font-size="14.00">6106</text>
</a>
</g>
</g>
<!-- 6106&#45;&gt;16293 -->
<g id="edge52" class="edge"><title>6106&#45;&gt;16293</title>
<path fill="none" stroke="black" d="M768.89,-1094.59C746.685,-1114.74 707.178,-1150.6 684.655,-1171.05"/>
</g>
<!-- 6269 -->
<g id="node20" class="node"><title>6269</title>
<g id="a_node20"><a xlink:title="6th_week">
<ellipse fill="#c81d25" stroke="black" cx="1703.68" cy="-2062.47" rx="28.6953" ry="18"/>
<text text-anchor="middle" x="1703.68" y="-2058.77" font-family="Times,serif" font-size="14.00">6269</text>
</a>
</g>
</g>
<!-- 6269&#45;&gt;21264 -->
<g id="edge7" class="edge"><title>6269&#45;&gt;21264</title>
<path fill="none" stroke="black" d="M1725.71,-2074.38C1758.14,-2091.92 1818.45,-2124.53 1851.6,-2142.45"/>
</g>
<!-- 22797 -->
<g id="node59" class="node"><title>22797</title>
<g id="a_node59"><a xlink:title="6th_week">
<ellipse fill="#c81d25" stroke="black" cx="1509.58" cy="-1951.45" rx="32.4942" ry="18"/>
<text text-anchor="middle" x="1509.58" y="-1947.75" font-family="Times,serif" font-size="14.00">22797</text>
</a>
</g>
</g>
<!-- 6269&#45;&gt;22797 -->
<g id="edge22" class="edge"><title>6269&#45;&gt;22797</title>
<path fill="none" stroke="black" d="M1682.16,-2050.16C1645.25,-2029.05 1570.18,-1986.11 1532.39,-1964.49"/>
</g>
<!-- 6483 -->
<g id="node21" class="node"><title>6483</title>
<g id="a_node21"><a xlink:title="6th_week">
<ellipse fill="#c81d25" stroke="black" cx="335.397" cy="-1336.36" rx="28.6953" ry="18"/>
<text text-anchor="middle" x="335.397" y="-1332.66" font-family="Times,serif" font-size="14.00">6483</text>
</a>
</g>
</g>
<!-- 20901 -->
<g id="node53" class="node"><title>20901</title>
<g id="a_node53"><a xlink:title="6th_week">
<ellipse fill="#c81d25" stroke="black" cx="461.181" cy="-1255.35" rx="32.4942" ry="18"/>
<text text-anchor="middle" x="461.181" y="-1251.65" font-family="Times,serif" font-size="14.00">20901</text>
</a>
</g>
</g>
<!-- 6483&#45;&gt;20901 -->
<g id="edge73" class="edge"><title>6483&#45;&gt;20901</title>
<path fill="none" stroke="black" d="M355.607,-1323.34C378.663,-1308.49 416.209,-1284.31 439.759,-1269.14"/>
</g>
<!-- 7519 -->
<g id="node22" class="node"><title>7519</title>
<g id="a_node22"><a xlink:title="6th_week">
<ellipse fill="#c81d25" stroke="black" cx="1333.19" cy="-502.245" rx="28.6953" ry="18"/>
<text text-anchor="middle" x="1333.19" y="-498.545" font-family="Times,serif" font-size="14.00">7519</text>
</a>
</g>
</g>
<!-- 7519&#45;&gt;11546 -->
<g id="edge62" class="edge"><title>7519&#45;&gt;11546</title>
<path fill="none" stroke="black" d="M1305.27,-498.264C1282.59,-495.031 1250.6,-490.47 1226.95,-487.098"/>
</g>
<!-- 7817&#45;&gt;11546 -->
<g id="edge25" class="edge"><title>7817&#45;&gt;11546</title>
<path fill="none" stroke="black" d="M1358.24,-365.729C1323.53,-390.61 1250.54,-442.921 1215.21,-468.24"/>
</g>
<!-- 26499 -->
<g id="node67" class="node"><title>26499</title>
<g id="a_node67"><a xlink:title="6th_week">
<ellipse fill="#c81d25" stroke="black" cx="1450.39" cy="-224.678" rx="32.4942" ry="18"/>
<text text-anchor="middle" x="1450.39" y="-220.978" font-family="Times,serif" font-size="14.00">26499</text>
</a>
</g>
</g>
<!-- 7817&#45;&gt;26499 -->
<g id="edge67" class="edge"><title>7817&#45;&gt;26499</title>
<path fill="none" stroke="black" d="M1387.24,-334.831C1401.17,-310.53 1426.5,-266.358 1440.47,-241.984"/>
</g>
<!-- 27642 -->
<g id="node73" class="node"><title>27642</title>
<g id="a_node73"><a xlink:title="6th_week">
<ellipse fill="#c81d25" stroke="black" cx="1520.23" cy="-323.751" rx="32.4942" ry="18"/>
<text text-anchor="middle" x="1520.23" y="-320.051" font-family="Times,serif" font-size="14.00">27642</text>
</a>
</g>
</g>
<!-- 7817&#45;&gt;27642 -->
<g id="edge63" class="edge"><title>7817&#45;&gt;27642</title>
<path fill="none" stroke="black" d="M1404.94,-346.555C1429.17,-341.761 1464.42,-334.789 1489.55,-329.818"/>
</g>
<!-- 7873 -->
<g id="node24" class="node"><title>7873</title>
<g id="a_node24"><a xlink:title="6th_week">
<ellipse fill="#c81d25" stroke="black" cx="753.668" cy="-1610.59" rx="28.6953" ry="18"/>
<text text-anchor="middle" x="753.668" y="-1606.89" font-family="Times,serif" font-size="14.00">7873</text>
</a>
</g>
</g>
<!-- 7873&#45;&gt;8265 -->
<g id="edge15" class="edge"><title>7873&#45;&gt;8265</title>
<path fill="none" stroke="black" d="M763.999,-1593.28C776.422,-1572.48 797.142,-1537.77 809.532,-1517.02"/>
</g>
<!-- 8008 -->
<g id="node25" class="node"><title>8008</title>
<g id="a_node25"><a xlink:title="6th_week">
<ellipse fill="#c81d25" stroke="black" cx="538.485" cy="-1129.13" rx="28.6953" ry="18"/>
<text text-anchor="middle" x="538.485" y="-1125.43" font-family="Times,serif" font-size="14.00">8008</text>
</a>
</g>
</g>
<!-- 8008&#45;&gt;16293 -->
<g id="edge58" class="edge"><title>8008&#45;&gt;16293</title>
<path fill="none" stroke="black" d="M561.883,-1139.51C584.572,-1149.58 618.898,-1164.8 642.254,-1175.16"/>
</g>
<!-- 8041 -->
<g id="node26" class="node"><title>8041</title>
<g id="a_node26"><a xlink:title="6th_week">
<ellipse fill="#c81d25" stroke="black" cx="381.493" cy="-893.83" rx="28.6953" ry="18"/>
<text text-anchor="middle" x="381.493" y="-890.13" font-family="Times,serif" font-size="14.00">8041</text>
</a>
</g>
</g>
<!-- 8041&#45;&gt;27980 -->
<g id="edge70" class="edge"><title>8041&#45;&gt;27980</title>
<path fill="none" stroke="black" d="M384.959,-911.742C390.653,-941.168 401.927,-999.426 407.667,-1029.09"/>
</g>
<!-- 8265&#45;&gt;16293 -->
<g id="edge39" class="edge"><title>8265&#45;&gt;16293</title>
<path fill="none" stroke="black" d="M811.397,-1482.55C784.866,-1427.88 702.998,-1259.2 676.245,-1204.07"/>
</g>
<!-- 17192 -->
<g id="node43" class="node"><title>17192</title>
<g id="a_node43"><a xlink:title="6th_week">
<ellipse fill="#c81d25" stroke="black" cx="657.235" cy="-1635.45" rx="32.4942" ry="18"/>
<text text-anchor="middle" x="657.235" y="-1631.75" font-family="Times,serif" font-size="14.00">17192</text>
</a>
</g>
</g>
<!-- 8265&#45;&gt;17192 -->
<g id="edge24" class="edge"><title>8265&#45;&gt;17192</title>
<path fill="none" stroke="black" d="M802.395,-1514.35C771.435,-1540.18 707.069,-1593.88 675.497,-1620.21"/>
</g>
<!-- 19108 -->
<g id="node48" class="node"><title>19108</title>
<g id="a_node48"><a xlink:title="6th_week">
<ellipse fill="#c81d25" stroke="black" cx="970.518" cy="-1482.72" rx="32.4942" ry="18"/>
<text text-anchor="middle" x="970.518" y="-1479.02" font-family="Times,serif" font-size="14.00">19108</text>
</a>
</g>
</g>
<!-- 8265&#45;&gt;19108 -->
<g id="edge45" class="edge"><title>8265&#45;&gt;19108</title>
<path fill="none" stroke="black" d="M848.142,-1496.62C873.895,-1493.7 911.844,-1489.38 938.642,-1486.34"/>
</g>
<!-- 19123 -->
<g id="node49" class="node"><title>19123</title>
<g id="a_node49"><a xlink:title="6th_week">
<ellipse fill="#c81d25" stroke="black" cx="937.548" cy="-1430.76" rx="32.4942" ry="18"/>
<text text-anchor="middle" x="937.548" y="-1427.06" font-family="Times,serif" font-size="14.00">19123</text>
</a>
</g>
</g>
<!-- 8265&#45;&gt;19123 -->
<g id="edge23" class="edge"><title>8265&#45;&gt;19123</title>
<path fill="none" stroke="black" d="M840.844,-1487.49C861.748,-1475.23 893.685,-1456.49 915.074,-1443.95"/>
</g>
<!-- 26146 -->
<g id="node66" class="node"><title>26146</title>
<g id="a_node66"><a xlink:title="6th_week">
<ellipse fill="#c81d25" stroke="black" cx="842.549" cy="-1659.88" rx="32.4942" ry="18"/>
<text text-anchor="middle" x="842.549" y="-1656.18" font-family="Times,serif" font-size="14.00">26146</text>
</a>
</g>
</g>
<!-- 8265&#45;&gt;26146 -->
<g id="edge43" class="edge"><title>8265&#45;&gt;26146</title>
<path fill="none" stroke="black" d="M822.357,-1517.89C826.728,-1548.63 835.569,-1610.79 839.957,-1641.65"/>
</g>
<!-- 26578 -->
<g id="node68" class="node"><title>26578</title>
<g id="a_node68"><a xlink:title="6th_week">
<ellipse fill="#c81d25" stroke="black" cx="762.159" cy="-1675.84" rx="32.4942" ry="18"/>
<text text-anchor="middle" x="762.159" y="-1672.14" font-family="Times,serif" font-size="14.00">26578</text>
</a>
</g>
</g>
<!-- 8265&#45;&gt;26578 -->
<g id="edge75" class="edge"><title>8265&#45;&gt;26578</title>
<path fill="none" stroke="black" d="M813.948,-1517.69C802.902,-1551.42 779.076,-1624.18 768.018,-1657.95"/>
</g>
<!-- 26906 -->
<g id="node70" class="node"><title>26906</title>
<g id="a_node70"><a xlink:title="6th_week">
<ellipse fill="#c81d25" stroke="black" cx="818.809" cy="-1755.05" rx="32.4942" ry="18"/>
<text text-anchor="middle" x="818.809" y="-1751.35" font-family="Times,serif" font-size="14.00">26906</text>
</a>
</g>
</g>
<!-- 8265&#45;&gt;26906 -->
<g id="edge42" class="edge"><title>8265&#45;&gt;26906</title>
<path fill="none" stroke="black" d="M819.72,-1518.2C819.539,-1565.28 819.059,-1689.96 818.879,-1736.86"/>
</g>
<!-- 29560 -->
<g id="node77" class="node"><title>29560</title>
<g id="a_node77"><a xlink:title="6th_week">
<ellipse fill="#c81d25" stroke="black" cx="1067.73" cy="-1673.24" rx="32.4942" ry="18"/>
<text text-anchor="middle" x="1067.73" y="-1669.54" font-family="Times,serif" font-size="14.00">29560</text>
</a>
</g>
</g>
<!-- 8265&#45;&gt;29560 -->
<g id="edge19" class="edge"><title>8265&#45;&gt;29560</title>
<path fill="none" stroke="black" d="M839.246,-1513.45C885.252,-1545.62 1000.39,-1626.14 1047.33,-1658.97"/>
</g>
<!-- 30566 -->
<g id="node79" class="node"><title>30566</title>
<g id="a_node79"><a xlink:title="6th_week">
<ellipse fill="#c81d25" stroke="black" cx="965.809" cy="-1584.23" rx="32.4942" ry="18"/>
<text text-anchor="middle" x="965.809" y="-1580.53" font-family="Times,serif" font-size="14.00">30566</text>
</a>
</g>
</g>
<!-- 8265&#45;&gt;30566 -->
<g id="edge27" class="edge"><title>8265&#45;&gt;30566</title>
<path fill="none" stroke="black" d="M841.023,-1512.11C868.233,-1527.84 915.21,-1554.99 943.109,-1571.11"/>
</g>
<!-- 31264 -->
<g id="node81" class="node"><title>31264</title>
<g id="a_node81"><a xlink:title="6th_week">
<ellipse fill="#c81d25" stroke="black" cx="684.929" cy="-1552.73" rx="32.4942" ry="18"/>
<text text-anchor="middle" x="684.929" y="-1549.03" font-family="Times,serif" font-size="14.00">31264</text>
</a>
</g>
</g>
<!-- 8265&#45;&gt;31264 -->
<g id="edge1" class="edge"><title>8265&#45;&gt;31264</title>
<path fill="none" stroke="black" d="M795.369,-1509.42C771.686,-1518.71 735.856,-1532.76 711.478,-1542.32"/>
</g>
<!-- 31810 -->
<g id="node83" class="node"><title>31810</title>
<g id="a_node83"><a xlink:title="6th_week">
<ellipse fill="#c81d25" stroke="black" cx="969.842" cy="-1538.9" rx="32.4942" ry="18"/>
<text text-anchor="middle" x="969.842" y="-1535.2" font-family="Times,serif" font-size="14.00">31810</text>
</a>
</g>
</g>
<!-- 8265&#45;&gt;31810 -->
<g id="edge50" class="edge"><title>8265&#45;&gt;31810</title>
<path fill="none" stroke="black" d="M846.272,-1506.74C872.606,-1513.59 912.923,-1524.09 940.286,-1531.21"/>
</g>
<!-- 8362 -->
<g id="node28" class="node"><title>8362</title>
<g id="a_node28"><a xlink:title="6th_week">
<ellipse fill="#c81d25" stroke="black" cx="1400.2" cy="-1931.46" rx="28.6953" ry="18"/>
<text text-anchor="middle" x="1400.2" y="-1927.76" font-family="Times,serif" font-size="14.00">8362</text>
</a>
</g>
</g>
<!-- 8362&#45;&gt;18310 -->
<g id="edge40" class="edge"><title>8362&#45;&gt;18310</title>
<path fill="none" stroke="black" d="M1384.38,-1916.17C1362.11,-1894.66 1321.74,-1855.65 1299.2,-1833.87"/>
</g>
<!-- 10469 -->
<g id="node29" class="node"><title>10469</title>
<g id="a_node29"><a xlink:title="6th_week">
<ellipse fill="#c81d25" stroke="black" cx="1004.55" cy="-197.107" rx="32.4942" ry="18"/>
<text text-anchor="middle" x="1004.55" y="-193.407" font-family="Times,serif" font-size="14.00">10469</text>
</a>
</g>
</g>
<!-- 10469&#45;&gt;18990 -->
<g id="edge81" class="edge"><title>10469&#45;&gt;18990</title>
<path fill="none" stroke="black" d="M998.971,-214.97C988.222,-249.367 964.766,-324.429 954.035,-358.769"/>
</g>
<!-- 27638 -->
<g id="node72" class="node"><title>27638</title>
<g id="a_node72"><a xlink:title="6th_week">
<ellipse fill="#c81d25" stroke="black" cx="1012.55" cy="-17.8963" rx="32.4942" ry="18"/>
<text text-anchor="middle" x="1012.55" y="-14.1963" font-family="Times,serif" font-size="14.00">27638</text>
</a>
</g>
</g>
<!-- 10469&#45;&gt;27638 -->
<g id="edge20" class="edge"><title>10469&#45;&gt;27638</title>
<path fill="none" stroke="black" d="M1005.36,-178.937C1006.9,-144.589 1010.21,-70.4998 1011.74,-36.1143"/>
</g>
<!-- 29640 -->
<g id="node78" class="node"><title>29640</title>
<g id="a_node78"><a xlink:title="6th_week">
<ellipse fill="#c81d25" stroke="black" cx="1099.58" cy="-47.7202" rx="32.4942" ry="18"/>
<text text-anchor="middle" x="1099.58" y="-44.0202" font-family="Times,serif" font-size="14.00">29640</text>
</a>
</g>
</g>
<!-- 10469&#45;&gt;29640 -->
<g id="edge55" class="edge"><title>10469&#45;&gt;29640</title>
<path fill="none" stroke="black" d="M1015.45,-179.971C1033.69,-151.308 1070.17,-93.9527 1088.52,-65.1171"/>
</g>
<!-- 10593 -->
<g id="node30" class="node"><title>10593</title>
<g id="a_node30"><a xlink:title="6th_week">
<ellipse fill="#c81d25" stroke="black" cx="201.262" cy="-980.901" rx="32.4942" ry="18"/>
<text text-anchor="middle" x="201.262" y="-977.201" font-family="Times,serif" font-size="14.00">10593</text>
</a>
</g>
</g>
<!-- 12603 -->
<g id="node33" class="node"><title>12603</title>
<g id="a_node33"><a xlink:title="6th_week">
<ellipse fill="#c81d25" stroke="black" cx="58.894" cy="-920.483" rx="32.4942" ry="18"/>
<text text-anchor="middle" x="58.894" y="-916.783" font-family="Times,serif" font-size="14.00">12603</text>
</a>
</g>
</g>
<!-- 10593&#45;&gt;12603 -->
<g id="edge76" class="edge"><title>10593&#45;&gt;12603</title>
<path fill="none" stroke="black" d="M175.149,-969.82C149.462,-958.918 110.471,-942.372 84.8409,-931.495"/>
</g>
<!-- 10593&#45;&gt;27980 -->
<g id="edge28" class="edge"><title>10593&#45;&gt;27980</title>
<path fill="none" stroke="black" d="M229.575,-989.864C269.644,-1002.55 342.478,-1025.6 382.668,-1038.33"/>
</g>
<!-- 29152 -->
<g id="node75" class="node"><title>29152</title>
<g id="a_node75"><a xlink:title="6th_week">
<ellipse fill="#c81d25" stroke="black" cx="1262.08" cy="-357.153" rx="32.4942" ry="18"/>
<text text-anchor="middle" x="1262.08" y="-353.453" font-family="Times,serif" font-size="14.00">29152</text>
</a>
</g>
</g>
<!-- 11546&#45;&gt;29152 -->
<g id="edge10" class="edge"><title>11546&#45;&gt;29152</title>
<path fill="none" stroke="black" d="M1204.51,-465.134C1217.28,-441.172 1240.13,-398.328 1252.86,-374.444"/>
</g>
<!-- 12757 -->
<g id="node34" class="node"><title>12757</title>
<g id="a_node34"><a xlink:title="6th_week">
<ellipse fill="#c81d25" stroke="black" cx="543.766" cy="-1780.41" rx="32.4942" ry="18"/>
<text text-anchor="middle" x="543.766" y="-1776.71" font-family="Times,serif" font-size="14.00">12757</text>
</a>
</g>
</g>
<!-- 12757&#45;&gt;17192 -->
<g id="edge2" class="edge"><title>12757&#45;&gt;17192</title>
<path fill="none" stroke="black" d="M556.782,-1763.78C578.554,-1735.97 622.119,-1680.31 644.021,-1652.33"/>
</g>
<!-- 7511 -->
<g id="node85" class="node"><title>7511</title>
<g id="a_node85"><a xlink:title="6th_week">
<ellipse fill="#c81d25" stroke="black" cx="427.907" cy="-1916.64" rx="28.6953" ry="18"/>
<text text-anchor="middle" x="427.907" y="-1912.94" font-family="Times,serif" font-size="14.00">7511</text>
</a>
</g>
</g>
<!-- 12757&#45;&gt;7511 -->
<g id="edge13" class="edge"><title>12757&#45;&gt;7511</title>
<path fill="none" stroke="black" d="M529.791,-1796.84C507.402,-1823.17 463.763,-1874.48 441.573,-1900.57"/>
</g>
<!-- 12925&#45;&gt;26906 -->
<g id="edge30" class="edge"><title>12925&#45;&gt;26906</title>
<path fill="none" stroke="black" d="M808.77,-1922.51C810.897,-1887.03 815.587,-1808.8 817.717,-1773.26"/>
</g>
<!-- 14414 -->
<g id="node36" class="node"><title>14414</title>
<g id="a_node36"><a xlink:title="6th_week">
<ellipse fill="#c81d25" stroke="black" cx="766.247" cy="-1894.27" rx="32.4942" ry="18"/>
<text text-anchor="middle" x="766.247" y="-1890.57" font-family="Times,serif" font-size="14.00">14414</text>
</a>
</g>
</g>
<!-- 14414&#45;&gt;26906 -->
<g id="edge56" class="edge"><title>14414&#45;&gt;26906</title>
<path fill="none" stroke="black" d="M772.904,-1876.64C782.959,-1850.01 801.919,-1799.79 812.04,-1772.98"/>
</g>
<!-- 15507&#45;&gt;16293 -->
<g id="edge51" class="edge"><title>15507&#45;&gt;16293</title>
<path fill="none" stroke="black" d="M560.805,-1281.34C584.39,-1260.4 626.456,-1223.05 650.173,-1202"/>
</g>
<!-- 15607&#45;&gt;16293 -->
<g id="edge78" class="edge"><title>15607&#45;&gt;16293</title>
<path fill="none" stroke="black" d="M815.803,-903.352C788.01,-956.472 704.674,-1115.76 676.848,-1168.94"/>
</g>
<!-- 20728 -->
<g id="node52" class="node"><title>20728</title>
<g id="a_node52"><a xlink:title="6th_week">
<ellipse fill="#c81d25" stroke="black" cx="629.539" cy="-1018.82" rx="32.4942" ry="18"/>
<text text-anchor="middle" x="629.539" y="-1015.12" font-family="Times,serif" font-size="14.00">20728</text>
</a>
</g>
</g>
<!-- 16293&#45;&gt;20728 -->
<g id="edge72" class="edge"><title>16293&#45;&gt;20728</title>
<path fill="none" stroke="black" d="M663.606,-1168.51C656.282,-1136.33 640.994,-1069.15 633.65,-1036.89"/>
</g>
<!-- 16293&#45;&gt;20901 -->
<g id="edge35" class="edge"><title>16293&#45;&gt;20901</title>
<path fill="none" stroke="black" d="M639.838,-1195.74C600.425,-1208.89 528.782,-1232.79 489.25,-1245.98"/>
</g>
<!-- 22725 -->
<g id="node58" class="node"><title>22725</title>
<g id="a_node58"><a xlink:title="6th_week">
<ellipse fill="#c81d25" stroke="black" cx="628.866" cy="-1303.02" rx="32.4942" ry="18"/>
<text text-anchor="middle" x="628.866" y="-1299.32" font-family="Times,serif" font-size="14.00">22725</text>
</a>
</g>
</g>
<!-- 16293&#45;&gt;22725 -->
<g id="edge36" class="edge"><title>16293&#45;&gt;22725</title>
<path fill="none" stroke="black" d="M661.792,-1204.15C654.496,-1226.06 642.141,-1263.16 634.818,-1285.15"/>
</g>
<!-- 23786 -->
<g id="node61" class="node"><title>23786</title>
<g id="a_node61"><a xlink:title="6th_week">
<ellipse fill="#c81d25" stroke="black" cx="817.609" cy="-1198.98" rx="32.4942" ry="18"/>
<text text-anchor="middle" x="817.609" y="-1195.28" font-family="Times,serif" font-size="14.00">23786</text>
</a>
</g>
</g>
<!-- 16293&#45;&gt;23786 -->
<g id="edge4" class="edge"><title>16293&#45;&gt;23786</title>
<path fill="none" stroke="black" d="M699.85,-1189.13C725.059,-1191.24 759.98,-1194.16 785.242,-1196.27"/>
</g>
<!-- 26624 -->
<g id="node69" class="node"><title>26624</title>
<g id="a_node69"><a xlink:title="6th_week">
<ellipse fill="#c81d25" stroke="black" cx="820.492" cy="-1132.78" rx="32.4942" ry="18"/>
<text text-anchor="middle" x="820.492" y="-1129.08" font-family="Times,serif" font-size="14.00">26624</text>
</a>
</g>
</g>
<!-- 16293&#45;&gt;26624 -->
<g id="edge26" class="edge"><title>16293&#45;&gt;26624</title>
<path fill="none" stroke="black" d="M695.36,-1176.73C723.053,-1167 765.406,-1152.12 793.026,-1142.42"/>
</g>
<!-- 16293&#45;&gt;27980 -->
<g id="edge64" class="edge"><title>16293&#45;&gt;27980</title>
<path fill="none" stroke="black" d="M644.019,-1173.61C595.033,-1147.05 483.062,-1086.33 434.446,-1059.96"/>
</g>
<!-- 29329 -->
<g id="node76" class="node"><title>29329</title>
<g id="a_node76"><a xlink:title="6th_week">
<ellipse fill="#c81d25" stroke="black" cx="692.705" cy="-1085.94" rx="32.4942" ry="18"/>
<text text-anchor="middle" x="692.705" y="-1082.24" font-family="Times,serif" font-size="14.00">29329</text>
</a>
</g>
</g>
<!-- 16293&#45;&gt;29329 -->
<g id="edge32" class="edge"><title>16293&#45;&gt;29329</title>
<path fill="none" stroke="black" d="M672.161,-1168.48C676.686,-1150.29 683.645,-1122.34 688.187,-1104.09"/>
</g>
<!-- 32102 -->
<g id="node84" class="node"><title>32102</title>
<g id="a_node84"><a xlink:title="6th_week">
<ellipse fill="#c81d25" stroke="black" cx="562.152" cy="-1069.68" rx="32.4942" ry="18"/>
<text text-anchor="middle" x="562.152" y="-1065.98" font-family="Times,serif" font-size="14.00">32102</text>
</a>
</g>
</g>
<!-- 16293&#45;&gt;32102 -->
<g id="edge46" class="edge"><title>16293&#45;&gt;32102</title>
<path fill="none" stroke="black" d="M653.014,-1170.21C632.851,-1147.9 596.799,-1108.01 576.702,-1085.78"/>
</g>
<!-- 16494 -->
<g id="node42" class="node"><title>16494</title>
<g id="a_node42"><a xlink:title="6th_week">
<ellipse fill="#c81d25" stroke="black" cx="32.5236" cy="-1049.56" rx="32.4942" ry="18"/>
<text text-anchor="middle" x="32.5236" y="-1045.86" font-family="Times,serif" font-size="14.00">16494</text>
</a>
</g>
</g>
<!-- 17987 -->
<g id="node45" class="node"><title>17987</title>
<g id="a_node45"><a xlink:title="6th_week">
<ellipse fill="#c81d25" stroke="black" cx="186.904" cy="-1050.99" rx="32.4942" ry="18"/>
<text text-anchor="middle" x="186.904" y="-1047.29" font-family="Times,serif" font-size="14.00">17987</text>
</a>
</g>
</g>
<!-- 16494&#45;&gt;17987 -->
<g id="edge41" class="edge"><title>16494&#45;&gt;17987</title>
<path fill="none" stroke="black" d="M65.2638,-1049.86C91.4627,-1050.11 128.025,-1050.45 154.211,-1050.69"/>
</g>
<!-- 17547 -->
<g id="node44" class="node"><title>17547</title>
<g id="a_node44"><a xlink:title="6th_week">
<ellipse fill="#c81d25" stroke="black" cx="2049.91" cy="-2169.72" rx="32.4942" ry="18"/>
<text text-anchor="middle" x="2049.91" y="-2166.02" font-family="Times,serif" font-size="14.00">17547</text>
</a>
</g>
</g>
<!-- 17547&#45;&gt;21264 -->
<g id="edge77" class="edge"><title>17547&#45;&gt;21264</title>
<path fill="none" stroke="black" d="M2017.4,-2166.99C1985.97,-2164.36 1938.62,-2160.39 1907.25,-2157.77"/>
</g>
<!-- 17987&#45;&gt;27980 -->
<g id="edge37" class="edge"><title>17987&#45;&gt;27980</title>
<path fill="none" stroke="black" d="M219.519,-1050.46C262.045,-1049.78 336.004,-1048.58 378.549,-1047.89"/>
</g>
<!-- 18310&#45;&gt;22797 -->
<g id="edge71" class="edge"><title>18310&#45;&gt;22797</title>
<path fill="none" stroke="black" d="M1305.44,-1831.37C1348.9,-1856.93 1443.72,-1912.71 1487.11,-1938.23"/>
</g>
<!-- 18310&#45;&gt;29560 -->
<g id="edge3" class="edge"><title>18310&#45;&gt;29560</title>
<path fill="none" stroke="black" d="M1261.85,-1803.95C1220.62,-1776.18 1129.57,-1714.88 1088.52,-1687.24"/>
</g>
<!-- 31423 -->
<g id="node82" class="node"><title>31423</title>
<g id="a_node82"><a xlink:title="6th_week">
<ellipse fill="#c81d25" stroke="black" cx="1339.91" cy="-1977.86" rx="32.4942" ry="18"/>
<text text-anchor="middle" x="1339.91" y="-1974.16" font-family="Times,serif" font-size="14.00">31423</text>
</a>
</g>
</g>
<!-- 18310&#45;&gt;31423 -->
<g id="edge48" class="edge"><title>18310&#45;&gt;31423</title>
<path fill="none" stroke="black" d="M1289.2,-1835.81C1300.16,-1866.52 1322.58,-1929.31 1333.56,-1960.07"/>
</g>
<!-- 20094 -->
<g id="node50" class="node"><title>20094</title>
<g id="a_node50"><a xlink:title="6th_week">
<ellipse fill="#c81d25" stroke="black" cx="2028.42" cy="-2240.83" rx="32.4942" ry="18"/>
<text text-anchor="middle" x="2028.42" y="-2237.13" font-family="Times,serif" font-size="14.00">20094</text>
</a>
</g>
</g>
<!-- 20094&#45;&gt;21264 -->
<g id="edge9" class="edge"><title>20094&#45;&gt;21264</title>
<path fill="none" stroke="black" d="M2005.44,-2227.99C1976.42,-2211.77 1926.79,-2184.04 1897.81,-2167.85"/>
</g>
<!-- 24957 -->
<g id="node63" class="node"><title>24957</title>
<g id="a_node63"><a xlink:title="6th_week">
<ellipse fill="#c81d25" stroke="black" cx="311.107" cy="-1281.59" rx="32.4942" ry="18"/>
<text text-anchor="middle" x="311.107" y="-1277.89" font-family="Times,serif" font-size="14.00">24957</text>
</a>
</g>
</g>
<!-- 20901&#45;&gt;24957 -->
<g id="edge34" class="edge"><title>20901&#45;&gt;24957</title>
<path fill="none" stroke="black" d="M430.086,-1260.78C404.329,-1265.29 367.908,-1271.66 342.163,-1276.16"/>
</g>
<!-- 21084 -->
<g id="node54" class="node"><title>21084</title>
<g id="a_node54"><a xlink:title="6th_week">
<ellipse fill="#c81d25" stroke="black" cx="667.702" cy="-1814.06" rx="32.4942" ry="18"/>
<text text-anchor="middle" x="667.702" y="-1810.36" font-family="Times,serif" font-size="14.00">21084</text>
</a>
</g>
</g>
<!-- 21084&#45;&gt;26578 -->
<g id="edge69" class="edge"><title>21084&#45;&gt;26578</title>
<path fill="none" stroke="black" d="M679.284,-1797.11C697.413,-1770.58 732.295,-1719.54 750.482,-1692.93"/>
</g>
<!-- 22443 -->
<g id="node56" class="node"><title>22443</title>
<g id="a_node56"><a xlink:title="6th_week">
<ellipse fill="#c81d25" stroke="black" cx="2025.06" cy="-2116.77" rx="32.4942" ry="18"/>
<text text-anchor="middle" x="2025.06" y="-2113.07" font-family="Times,serif" font-size="14.00">22443</text>
</a>
</g>
</g>
<!-- 21264&#45;&gt;22443 -->
<g id="edge74" class="edge"><title>21264&#45;&gt;22443</title>
<path fill="none" stroke="black" d="M1904.58,-2147.49C1930.91,-2140.78 1969.16,-2131.03 1995.46,-2124.32"/>
</g>
<!-- 22536 -->
<g id="node57" class="node"><title>22536</title>
<g id="a_node57"><a xlink:title="6th_week">
<ellipse fill="#c81d25" stroke="black" cx="1139.5" cy="-1794.78" rx="32.4942" ry="18"/>
<text text-anchor="middle" x="1139.5" y="-1791.08" font-family="Times,serif" font-size="14.00">22536</text>
</a>
</g>
</g>
<!-- 22536&#45;&gt;29560 -->
<g id="edge60" class="edge"><title>22536&#45;&gt;29560</title>
<path fill="none" stroke="black" d="M1129.37,-1777.62C1115.77,-1754.59 1091.73,-1713.89 1078.04,-1690.7"/>
</g>
<!-- 23687 -->
<g id="node60" class="node"><title>23687</title>
<g id="a_node60"><a xlink:title="6th_week">
<ellipse fill="#c81d25" stroke="black" cx="293.786" cy="-945.343" rx="32.4942" ry="18"/>
<text text-anchor="middle" x="293.786" y="-941.643" font-family="Times,serif" font-size="14.00">23687</text>
</a>
</g>
</g>
<!-- 23687&#45;&gt;27980 -->
<g id="edge14" class="edge"><title>23687&#45;&gt;27980</title>
<path fill="none" stroke="black" d="M311.365,-960.616C333.5,-979.848 371.313,-1012.7 393.505,-1031.98"/>
</g>
<!-- 25375 -->
<g id="node64" class="node"><title>25375</title>
<g id="a_node64"><a xlink:title="6th_week">
<ellipse fill="#c81d25" stroke="black" cx="1202.98" cy="-1706.47" rx="32.4942" ry="18"/>
<text text-anchor="middle" x="1202.98" y="-1702.77" font-family="Times,serif" font-size="14.00">25375</text>
</a>
</g>
</g>
<!-- 25375&#45;&gt;29560 -->
<g id="edge31" class="edge"><title>25375&#45;&gt;29560</title>
<path fill="none" stroke="black" d="M1172.96,-1699.09C1150.55,-1693.59 1120.05,-1686.09 1097.66,-1680.59"/>
</g>
<!-- 25853 -->
<g id="node65" class="node"><title>25853</title>
<g id="a_node65"><a xlink:title="6th_week">
<ellipse fill="#c81d25" stroke="black" cx="300.891" cy="-899.603" rx="32.4942" ry="18"/>
<text text-anchor="middle" x="300.891" y="-895.903" font-family="Times,serif" font-size="14.00">25853</text>
</a>
</g>
</g>
<!-- 25853&#45;&gt;27980 -->
<g id="edge6" class="edge"><title>25853&#45;&gt;27980</title>
<path fill="none" stroke="black" d="M313.33,-916.265C334.517,-944.643 377.369,-1002.04 398.64,-1030.53"/>
</g>
<!-- 27618 -->
<g id="node71" class="node"><title>27618</title>
<g id="a_node71"><a xlink:title="6th_week">
<ellipse fill="#c81d25" stroke="black" cx="870.005" cy="-1894.33" rx="32.4942" ry="18"/>
<text text-anchor="middle" x="870.005" y="-1890.63" font-family="Times,serif" font-size="14.00">27618</text>
</a>
</g>
</g>
<!-- 26906&#45;&gt;27618 -->
<g id="edge12" class="edge"><title>26906&#45;&gt;27618</title>
<path fill="none" stroke="black" d="M825.293,-1772.69C835.087,-1799.34 853.554,-1849.57 863.412,-1876.39"/>
</g>
<!-- 31135 -->
<g id="node80" class="node"><title>31135</title>
<g id="a_node80"><a xlink:title="6th_week">
<ellipse fill="#c81d25" stroke="black" cx="243.796" cy="-1098.35" rx="32.4942" ry="18"/>
<text text-anchor="middle" x="243.796" y="-1094.65" font-family="Times,serif" font-size="14.00">31135</text>
</a>
</g>
</g>
<!-- 27980&#45;&gt;31135 -->
<g id="edge44" class="edge"><title>27980&#45;&gt;31135</title>
<path fill="none" stroke="black" d="M382.425,-1056.13C351.669,-1065.49 303.198,-1080.26 272.479,-1089.61"/>
</g>
</g>
</svg>
