<?xml version="1.0" encoding="UTF-8" standalone="no"?>
<!DOCTYPE svg PUBLIC "-//W3C//DTD SVG 1.1//EN"
 "http://www.w3.org/Graphics/SVG/1.1/DTD/svg11.dtd">
<!-- Generated by graphviz version 2.38.0 (20140413.2041)
 -->
<!-- Title: %3 Pages: 1 -->
<svg width="1597pt" height="1732pt"
 viewBox="0.00 0.00 1597.00 1732.00" xmlns="http://www.w3.org/2000/svg" xmlns:xlink="http://www.w3.org/1999/xlink">
<g id="graph0" class="graph" transform="scale(1 1) rotate(0) translate(4 1728)">
<title>%3</title>
<polygon fill="white" stroke="none" points="-4,4 -4,-1728 1593,-1728 1593,4 -4,4"/>
<!-- 491 -->
<g id="node1" class="node"><title>491</title>
<g id="a_node1"><a xlink:title="3rd_week">
<ellipse fill="#ee9898" stroke="black" cx="1416.2" cy="-1705.77" rx="27" ry="18"/>
<text text-anchor="middle" x="1416.2" y="-1702.07" font-family="Times,serif" font-size="14.00">491</text>
</a>
</g>
</g>
<!-- 6192 -->
<g id="node13" class="node"><title>6192</title>
<g id="a_node13"><a xlink:title="3rd_week,Day_0">
<ellipse fill="#e5dada" stroke="black" cx="1374.8" cy="-1525.45" rx="28.6832" ry="18"/>
<ellipse fill="none" stroke="black" cx="1374.8" cy="-1525.45" rx="32.6952" ry="22"/>
<text text-anchor="middle" x="1374.8" y="-1521.75" font-family="Times,serif" font-size="14.00">6192</text>
</a>
</g>
</g>
<!-- 491&#45;&gt;6192 -->
<g id="edge16" class="edge"><title>491&#45;&gt;6192</title>
<path fill="none" stroke="black" d="M1412.07,-1687.82C1404.43,-1654.5 1388.06,-1583.22 1379.8,-1547.22"/>
</g>
<!-- 614 -->
<g id="node2" class="node"><title>614</title>
<g id="a_node2"><a xlink:title="Day_0">
<ellipse fill="#e5dada" stroke="black" cx="1441.02" cy="-1649.6" rx="27" ry="18"/>
<text text-anchor="middle" x="1441.02" y="-1645.9" font-family="Times,serif" font-size="14.00">614</text>
</a>
</g>
</g>
<!-- 614&#45;&gt;6192 -->
<g id="edge54" class="edge"><title>614&#45;&gt;6192</title>
<path fill="none" stroke="black" d="M1431.95,-1632.6C1419.98,-1610.15 1398.91,-1570.65 1385.97,-1546.39"/>
</g>
<!-- 807 -->
<g id="node3" class="node"><title>807</title>
<g id="a_node3"><a xlink:title="Day_0">
<ellipse fill="#e5dada" stroke="black" cx="368.96" cy="-392.561" rx="27" ry="18"/>
<text text-anchor="middle" x="368.96" y="-388.861" font-family="Times,serif" font-size="14.00">807</text>
</a>
</g>
</g>
<!-- 5733 -->
<g id="node11" class="node"><title>5733</title>
<g id="a_node11"><a xlink:title="3rd_week,Day_0">
<ellipse fill="#e5dada" stroke="black" cx="449.974" cy="-518.503" rx="28.6832" ry="18"/>
<ellipse fill="none" stroke="black" cx="449.974" cy="-518.503" rx="32.6952" ry="22"/>
<text text-anchor="middle" x="449.974" y="-514.803" font-family="Times,serif" font-size="14.00">5733</text>
</a>
</g>
</g>
<!-- 807&#45;&gt;5733 -->
<g id="edge39" class="edge"><title>807&#45;&gt;5733</title>
<path fill="none" stroke="black" d="M379.718,-409.285C394.438,-432.169 420.84,-473.213 436.75,-497.945"/>
</g>
<!-- 917 -->
<g id="node4" class="node"><title>917</title>
<g id="a_node4"><a xlink:title="PRE">
<ellipse fill="#71a9f7" stroke="black" cx="1063.01" cy="-1070.39" rx="27" ry="18"/>
<text text-anchor="middle" x="1063.01" y="-1066.69" font-family="Times,serif" font-size="14.00">917</text>
</a>
</g>
</g>
<!-- 18324 -->
<g id="node34" class="node"><title>18324</title>
<g id="a_node34"><a xlink:title="3rd_week,Day_0,PRE">
<ellipse fill="#71a9f7" stroke="black" cx="900.421" cy="-1110.34" rx="32.4948" ry="18"/>
<ellipse fill="none" stroke="black" cx="900.421" cy="-1110.34" rx="36.4945" ry="22"/>
<ellipse fill="none" stroke="black" cx="900.421" cy="-1110.34" rx="40.4942" ry="26"/>
<text text-anchor="middle" x="900.421" y="-1106.64" font-family="Times,serif" font-size="14.00">18324</text>
</a>
</g>
</g>
<!-- 917&#45;&gt;18324 -->
<g id="edge22" class="edge"><title>917&#45;&gt;18324</title>
<path fill="none" stroke="black" d="M1037.6,-1076.63C1010.99,-1083.17 968.883,-1093.52 938.335,-1101.03"/>
</g>
<!-- 2690 -->
<g id="node5" class="node"><title>2690</title>
<g id="a_node5"><a xlink:title="PRE">
<ellipse fill="#71a9f7" stroke="black" cx="1178.07" cy="-1481.5" rx="28.6953" ry="18"/>
<text text-anchor="middle" x="1178.07" y="-1477.8" font-family="Times,serif" font-size="14.00">2690</text>
</a>
</g>
</g>
<!-- 3776 -->
<g id="node6" class="node"><title>3776</title>
<g id="a_node6"><a xlink:title="PRE">
<ellipse fill="#71a9f7" stroke="black" cx="1142.65" cy="-1349.77" rx="28.6953" ry="18"/>
<text text-anchor="middle" x="1142.65" y="-1346.07" font-family="Times,serif" font-size="14.00">3776</text>
</a>
</g>
</g>
<!-- 2690&#45;&gt;3776 -->
<g id="edge14" class="edge"><title>2690&#45;&gt;3776</title>
<path fill="none" stroke="black" d="M1173.3,-1463.74C1166.53,-1438.59 1154.24,-1392.89 1147.46,-1367.67"/>
</g>
<!-- 3776&#45;&gt;6192 -->
<g id="edge28" class="edge"><title>3776&#45;&gt;6192</title>
<path fill="none" stroke="black" d="M1161.25,-1363.85C1203.75,-1396.01 1307.78,-1474.73 1353.1,-1509.03"/>
</g>
<!-- 12206 -->
<g id="node22" class="node"><title>12206</title>
<g id="a_node22"><a xlink:title="PRE">
<ellipse fill="#71a9f7" stroke="black" cx="1274.08" cy="-1393.15" rx="32.4942" ry="18"/>
<text text-anchor="middle" x="1274.08" y="-1389.45" font-family="Times,serif" font-size="14.00">12206</text>
</a>
</g>
</g>
<!-- 3776&#45;&gt;12206 -->
<g id="edge12" class="edge"><title>3776&#45;&gt;12206</title>
<path fill="none" stroke="black" d="M1167.99,-1358.13C1190.37,-1365.52 1222.94,-1376.27 1246.09,-1383.91"/>
</g>
<!-- 12806 -->
<g id="node24" class="node"><title>12806</title>
<g id="a_node24"><a xlink:title="PRE">
<ellipse fill="#71a9f7" stroke="black" cx="1281.72" cy="-1294.61" rx="32.4942" ry="18"/>
<text text-anchor="middle" x="1281.72" y="-1290.91" font-family="Times,serif" font-size="14.00">12806</text>
</a>
</g>
</g>
<!-- 3776&#45;&gt;12806 -->
<g id="edge24" class="edge"><title>3776&#45;&gt;12806</title>
<path fill="none" stroke="black" d="M1166.87,-1340.16C1191.47,-1330.41 1229.45,-1315.34 1254.93,-1305.24"/>
</g>
<!-- 14442 -->
<g id="node27" class="node"><title>14442</title>
<g id="a_node27"><a xlink:title="3rd_week">
<ellipse fill="#ee9898" stroke="black" cx="1095.73" cy="-1527.32" rx="32.4942" ry="18"/>
<text text-anchor="middle" x="1095.73" y="-1523.62" font-family="Times,serif" font-size="14.00">14442</text>
</a>
</g>
</g>
<!-- 3776&#45;&gt;14442 -->
<g id="edge44" class="edge"><title>3776&#45;&gt;14442</title>
<path fill="none" stroke="black" d="M1137.89,-1367.77C1128.9,-1401.8 1109.5,-1475.2 1100.5,-1509.27"/>
</g>
<!-- 3776&#45;&gt;18324 -->
<g id="edge25" class="edge"><title>3776&#45;&gt;18324</title>
<path fill="none" stroke="black" d="M1127.13,-1334.42C1085.46,-1293.24 971.058,-1180.16 922.587,-1132.25"/>
</g>
<!-- 3882 -->
<g id="node7" class="node"><title>3882</title>
<g id="a_node7"><a xlink:title="Day_0">
<ellipse fill="#e5dada" stroke="black" cx="569.136" cy="-408.076" rx="28.6953" ry="18"/>
<text text-anchor="middle" x="569.136" y="-404.376" font-family="Times,serif" font-size="14.00">3882</text>
</a>
</g>
</g>
<!-- 3882&#45;&gt;5733 -->
<g id="edge47" class="edge"><title>3882&#45;&gt;5733</title>
<path fill="none" stroke="black" d="M553.066,-422.968C531.339,-443.102 492.64,-478.965 469.337,-500.56"/>
</g>
<!-- 3911 -->
<g id="node8" class="node"><title>3911</title>
<g id="a_node8"><a xlink:title="Day_0">
<ellipse fill="#e5dada" stroke="black" cx="1521.65" cy="-1449.43" rx="28.6953" ry="18"/>
<text text-anchor="middle" x="1521.65" y="-1445.73" font-family="Times,serif" font-size="14.00">3911</text>
</a>
</g>
</g>
<!-- 3911&#45;&gt;6192 -->
<g id="edge42" class="edge"><title>3911&#45;&gt;6192</title>
<path fill="none" stroke="black" d="M1499.35,-1460.98C1472.87,-1474.69 1428.78,-1497.51 1400.79,-1512"/>
</g>
<!-- 4828 -->
<g id="node9" class="node"><title>4828</title>
<g id="a_node9"><a xlink:title="3rd_week">
<ellipse fill="#ee9898" stroke="black" cx="160.785" cy="-139.631" rx="28.6953" ry="18"/>
<text text-anchor="middle" x="160.785" y="-135.931" font-family="Times,serif" font-size="14.00">4828</text>
</a>
</g>
</g>
<!-- 24067 -->
<g id="node45" class="node"><title>24067</title>
<g id="a_node45"><a xlink:title="3rd_week">
<ellipse fill="#ee9898" stroke="black" cx="314.091" cy="-288.245" rx="32.4942" ry="18"/>
<text text-anchor="middle" x="314.091" y="-284.545" font-family="Times,serif" font-size="14.00">24067</text>
</a>
</g>
</g>
<!-- 4828&#45;&gt;24067 -->
<g id="edge27" class="edge"><title>4828&#45;&gt;24067</title>
<path fill="none" stroke="black" d="M176.614,-154.976C205.838,-183.305 267.982,-243.547 297.655,-272.312"/>
</g>
<!-- 2116 -->
<g id="node49" class="node"><title>2116</title>
<g id="a_node49"><a xlink:title="3rd_week">
<ellipse fill="#ee9898" stroke="black" cx="55.7671" cy="-17.6954" rx="28.6953" ry="18"/>
<text text-anchor="middle" x="55.7671" y="-13.9954" font-family="Times,serif" font-size="14.00">2116</text>
</a>
</g>
</g>
<!-- 4828&#45;&gt;2116 -->
<g id="edge10" class="edge"><title>4828&#45;&gt;2116</title>
<path fill="none" stroke="black" d="M147.056,-123.69C126.929,-100.321 89.6284,-57.0114 69.4998,-33.6403"/>
</g>
<!-- 5578 -->
<g id="node10" class="node"><title>5578</title>
<g id="a_node10"><a xlink:title="3rd_week">
<ellipse fill="#ee9898" stroke="black" cx="490.734" cy="-839.82" rx="28.6953" ry="18"/>
<text text-anchor="middle" x="490.734" y="-836.12" font-family="Times,serif" font-size="14.00">5578</text>
</a>
</g>
</g>
<!-- 11268 -->
<g id="node21" class="node"><title>11268</title>
<g id="a_node21"><a xlink:title="3rd_week,Day_0">
<ellipse fill="#e5dada" stroke="black" cx="654.846" cy="-848.175" rx="32.4945" ry="18"/>
<ellipse fill="none" stroke="black" cx="654.846" cy="-848.175" rx="36.4942" ry="22"/>
<text text-anchor="middle" x="654.846" y="-844.475" font-family="Times,serif" font-size="14.00">11268</text>
</a>
</g>
</g>
<!-- 5578&#45;&gt;11268 -->
<g id="edge7" class="edge"><title>5578&#45;&gt;11268</title>
<path fill="none" stroke="black" d="M519.32,-841.276C546.779,-842.674 588.386,-844.792 618.252,-846.312"/>
</g>
<!-- 5735 -->
<g id="node12" class="node"><title>5735</title>
<g id="a_node12"><a xlink:title="Day_0">
<ellipse fill="#e5dada" stroke="black" cx="302.261" cy="-504.594" rx="28.6953" ry="18"/>
<text text-anchor="middle" x="302.261" y="-500.894" font-family="Times,serif" font-size="14.00">5735</text>
</a>
</g>
</g>
<!-- 5733&#45;&gt;5735 -->
<g id="edge23" class="edge"><title>5733&#45;&gt;5735</title>
<path fill="none" stroke="black" d="M417.558,-515.451C391.571,-513.004 355.463,-509.603 330.615,-507.264"/>
</g>
<!-- 6233 -->
<g id="node14" class="node"><title>6233</title>
<g id="a_node14"><a xlink:title="Day_0">
<ellipse fill="#e5dada" stroke="black" cx="432.991" cy="-359.811" rx="28.6953" ry="18"/>
<text text-anchor="middle" x="432.991" y="-356.111" font-family="Times,serif" font-size="14.00">6233</text>
</a>
</g>
</g>
<!-- 5733&#45;&gt;6233 -->
<g id="edge2" class="edge"><title>5733&#45;&gt;6233</title>
<path fill="none" stroke="black" d="M447.613,-496.438C444.24,-464.927 438.106,-407.608 434.963,-378.238"/>
</g>
<!-- 7298 -->
<g id="node16" class="node"><title>7298</title>
<g id="a_node16"><a xlink:title="Day_0">
<ellipse fill="#e5dada" stroke="black" cx="501.849" cy="-378.418" rx="28.6953" ry="18"/>
<text text-anchor="middle" x="501.849" y="-374.718" font-family="Times,serif" font-size="14.00">7298</text>
</a>
</g>
</g>
<!-- 5733&#45;&gt;7298 -->
<g id="edge51" class="edge"><title>5733&#45;&gt;7298</title>
<path fill="none" stroke="black" d="M457.966,-496.922C468.197,-469.293 485.736,-421.93 495.248,-396.244"/>
</g>
<!-- 5733&#45;&gt;11268 -->
<g id="edge5" class="edge"><title>5733&#45;&gt;11268</title>
<path fill="none" stroke="black" d="M462.79,-539.126C499.582,-598.33 605.249,-768.366 642.035,-827.561"/>
</g>
<!-- 14128 -->
<g id="node25" class="node"><title>14128</title>
<g id="a_node25"><a xlink:title="Day_0">
<ellipse fill="#e5dada" stroke="black" cx="290.471" cy="-574.856" rx="32.4942" ry="18"/>
<text text-anchor="middle" x="290.471" y="-571.156" font-family="Times,serif" font-size="14.00">14128</text>
</a>
</g>
</g>
<!-- 5733&#45;&gt;14128 -->
<g id="edge43" class="edge"><title>5733&#45;&gt;14128</title>
<path fill="none" stroke="black" d="M421.089,-528.708C391.823,-539.048 346.871,-554.93 318.073,-565.104"/>
</g>
<!-- 14996 -->
<g id="node29" class="node"><title>14996</title>
<g id="a_node29"><a xlink:title="3rd_week">
<ellipse fill="#ee9898" stroke="black" cx="216.334" cy="-496.649" rx="32.4942" ry="18"/>
<text text-anchor="middle" x="216.334" y="-492.949" font-family="Times,serif" font-size="14.00">14996</text>
</a>
</g>
</g>
<!-- 5733&#45;&gt;14996 -->
<g id="edge20" class="edge"><title>5733&#45;&gt;14996</title>
<path fill="none" stroke="black" d="M417.487,-515.465C372.85,-511.289 293.037,-503.824 248.544,-499.662"/>
</g>
<!-- 19723 -->
<g id="node36" class="node"><title>19723</title>
<g id="a_node36"><a xlink:title="Day_0">
<ellipse fill="#e5dada" stroke="black" cx="330.403" cy="-628.746" rx="32.4942" ry="18"/>
<text text-anchor="middle" x="330.403" y="-625.046" font-family="Times,serif" font-size="14.00">19723</text>
</a>
</g>
</g>
<!-- 5733&#45;&gt;19723 -->
<g id="edge4" class="edge"><title>5733&#45;&gt;19723</title>
<path fill="none" stroke="black" d="M430.497,-536.461C407.335,-557.816 369.066,-593.099 347.168,-613.289"/>
</g>
<!-- 5733&#45;&gt;24067 -->
<g id="edge15" class="edge"><title>5733&#45;&gt;24067</title>
<path fill="none" stroke="black" d="M437.676,-497.663C411.086,-452.607 348.676,-346.852 324.197,-305.37"/>
</g>
<!-- 24348 -->
<g id="node46" class="node"><title>24348</title>
<g id="a_node46"><a xlink:title="3rd_week">
<ellipse fill="#ee9898" stroke="black" cx="306.103" cy="-437.383" rx="32.4942" ry="18"/>
<text text-anchor="middle" x="306.103" y="-433.683" font-family="Times,serif" font-size="14.00">24348</text>
</a>
</g>
</g>
<!-- 5733&#45;&gt;24348 -->
<g id="edge35" class="edge"><title>5733&#45;&gt;24348</title>
<path fill="none" stroke="black" d="M424.914,-504.373C397.863,-489.121 355.149,-465.037 328.979,-450.281"/>
</g>
<!-- 28202 -->
<g id="node48" class="node"><title>28202</title>
<g id="a_node48"><a xlink:title="3rd_week">
<ellipse fill="#ee9898" stroke="black" cx="533.778" cy="-300.131" rx="32.4942" ry="18"/>
<text text-anchor="middle" x="533.778" y="-296.431" font-family="Times,serif" font-size="14.00">28202</text>
</a>
</g>
</g>
<!-- 5733&#45;&gt;28202 -->
<g id="edge55" class="edge"><title>5733&#45;&gt;28202</title>
<path fill="none" stroke="black" d="M458.162,-497.167C474.678,-454.132 511.706,-357.644 526.986,-317.83"/>
</g>
<!-- 10854 -->
<g id="node52" class="node"><title>10854</title>
<g id="a_node52"><a xlink:title="Day_0">
<ellipse fill="#e5dada" stroke="black" cx="602.538" cy="-466.762" rx="32.4942" ry="18"/>
<text text-anchor="middle" x="602.538" y="-463.062" font-family="Times,serif" font-size="14.00">10854</text>
</a>
</g>
</g>
<!-- 5733&#45;&gt;10854 -->
<g id="edge30" class="edge"><title>5733&#45;&gt;10854</title>
<path fill="none" stroke="black" d="M479.39,-508.527C506.925,-499.189 547.762,-485.339 574.755,-476.184"/>
</g>
<!-- 15163 -->
<g id="node30" class="node"><title>15163</title>
<g id="a_node30"><a xlink:title="Day_0">
<ellipse fill="#e5dada" stroke="black" cx="1348.03" cy="-1697.5" rx="32.4942" ry="18"/>
<text text-anchor="middle" x="1348.03" y="-1693.8" font-family="Times,serif" font-size="14.00">15163</text>
</a>
</g>
</g>
<!-- 6192&#45;&gt;15163 -->
<g id="edge53" class="edge"><title>6192&#45;&gt;15163</title>
<path fill="none" stroke="black" d="M1371.35,-1547.59C1366,-1581.99 1355.79,-1647.6 1350.85,-1679.37"/>
</g>
<!-- 16874 -->
<g id="node33" class="node"><title>16874</title>
<g id="a_node33"><a xlink:title="Day_0">
<ellipse fill="#e5dada" stroke="black" cx="1516.14" cy="-1660.55" rx="32.4942" ry="18"/>
<text text-anchor="middle" x="1516.14" y="-1656.85" font-family="Times,serif" font-size="14.00">16874</text>
</a>
</g>
</g>
<!-- 6192&#45;&gt;16874 -->
<g id="edge36" class="edge"><title>6192&#45;&gt;16874</title>
<path fill="none" stroke="black" d="M1393.86,-1543.67C1421.74,-1570.32 1473.18,-1619.49 1499.57,-1644.72"/>
</g>
<!-- 18380 -->
<g id="node35" class="node"><title>18380</title>
<g id="a_node35"><a xlink:title="3rd_week">
<ellipse fill="#ee9898" stroke="black" cx="1556.89" cy="-1564.73" rx="32.4942" ry="18"/>
<text text-anchor="middle" x="1556.89" y="-1561.03" font-family="Times,serif" font-size="14.00">18380</text>
</a>
</g>
</g>
<!-- 6192&#45;&gt;18380 -->
<g id="edge1" class="edge"><title>6192&#45;&gt;18380</title>
<path fill="none" stroke="black" d="M1406.1,-1532.2C1439.86,-1539.49 1493.24,-1551 1526.6,-1558.2"/>
</g>
<!-- 20923 -->
<g id="node39" class="node"><title>20923</title>
<g id="a_node39"><a xlink:title="3rd_week">
<ellipse fill="#ee9898" stroke="black" cx="1537.43" cy="-1616.22" rx="32.4942" ry="18"/>
<text text-anchor="middle" x="1537.43" y="-1612.52" font-family="Times,serif" font-size="14.00">20923</text>
</a>
</g>
</g>
<!-- 6192&#45;&gt;20923 -->
<g id="edge50" class="edge"><title>6192&#45;&gt;20923</title>
<path fill="none" stroke="black" d="M1400.21,-1539.63C1431.48,-1557.08 1484.12,-1586.47 1514.3,-1603.31"/>
</g>
<!-- 24588 -->
<g id="node47" class="node"><title>24588</title>
<g id="a_node47"><a xlink:title="3rd_week">
<ellipse fill="#ee9898" stroke="black" cx="1556.2" cy="-1506.16" rx="32.4942" ry="18"/>
<text text-anchor="middle" x="1556.2" y="-1502.46" font-family="Times,serif" font-size="14.00">24588</text>
</a>
</g>
</g>
<!-- 6192&#45;&gt;24588 -->
<g id="edge21" class="edge"><title>6192&#45;&gt;24588</title>
<path fill="none" stroke="black" d="M1407.23,-1522C1440.25,-1518.49 1491.13,-1513.08 1524.05,-1509.58"/>
</g>
<!-- 7235 -->
<g id="node15" class="node"><title>7235</title>
<g id="a_node15"><a xlink:title="3rd_week">
<ellipse fill="#ee9898" stroke="black" cx="619.774" cy="-1023" rx="28.6953" ry="18"/>
<text text-anchor="middle" x="619.774" y="-1019.3" font-family="Times,serif" font-size="14.00">7235</text>
</a>
</g>
</g>
<!-- 7235&#45;&gt;11268 -->
<g id="edge29" class="edge"><title>7235&#45;&gt;11268</title>
<path fill="none" stroke="black" d="M623.395,-1004.95C629.87,-972.667 643.411,-905.171 650.424,-870.214"/>
</g>
<!-- 7363 -->
<g id="node17" class="node"><title>7363</title>
<g id="a_node17"><a xlink:title="PRE">
<ellipse fill="#71a9f7" stroke="black" cx="1044.69" cy="-1179.34" rx="28.6953" ry="18"/>
<text text-anchor="middle" x="1044.69" y="-1175.64" font-family="Times,serif" font-size="14.00">7363</text>
</a>
</g>
</g>
<!-- 7363&#45;&gt;18324 -->
<g id="edge46" class="edge"><title>7363&#45;&gt;18324</title>
<path fill="none" stroke="black" d="M1021.83,-1168.41C997.918,-1156.97 960.16,-1138.91 933.101,-1125.97"/>
</g>
<!-- 7786 -->
<g id="node18" class="node"><title>7786</title>
<g id="a_node18"><a xlink:title="PRE">
<ellipse fill="#71a9f7" stroke="black" cx="924.396" cy="-1275.68" rx="28.6953" ry="18"/>
<text text-anchor="middle" x="924.396" y="-1271.98" font-family="Times,serif" font-size="14.00">7786</text>
</a>
</g>
</g>
<!-- 7786&#45;&gt;18324 -->
<g id="edge37" class="edge"><title>7786&#45;&gt;18324</title>
<path fill="none" stroke="black" d="M921.784,-1257.67C917.537,-1228.38 909.113,-1170.29 904.208,-1136.46"/>
</g>
<!-- 9100 -->
<g id="node19" class="node"><title>9100</title>
<g id="a_node19"><a xlink:title="3rd_week">
<ellipse fill="#ee9898" stroke="black" cx="740.371" cy="-705.887" rx="28.6953" ry="18"/>
<text text-anchor="middle" x="740.371" y="-702.187" font-family="Times,serif" font-size="14.00">9100</text>
</a>
</g>
</g>
<!-- 9100&#45;&gt;11268 -->
<g id="edge26" class="edge"><title>9100&#45;&gt;11268</title>
<path fill="none" stroke="black" d="M730.224,-722.768C714.561,-748.828 684.523,-798.802 667.475,-827.164"/>
</g>
<!-- 10882 -->
<g id="node20" class="node"><title>10882</title>
<g id="a_node20"><a xlink:title="Day_0">
<ellipse fill="#e5dada" stroke="black" cx="32.6942" cy="-516.689" rx="32.4942" ry="18"/>
<text text-anchor="middle" x="32.6942" y="-512.989" font-family="Times,serif" font-size="14.00">10882</text>
</a>
</g>
</g>
<!-- 10882&#45;&gt;14996 -->
<g id="edge33" class="edge"><title>10882&#45;&gt;14996</title>
<path fill="none" stroke="black" d="M64.6817,-513.198C98.2847,-509.531 150.824,-503.798 184.405,-500.134"/>
</g>
<!-- 12285 -->
<g id="node23" class="node"><title>12285</title>
<g id="a_node23"><a xlink:title="3rd_week">
<ellipse fill="#ee9898" stroke="black" cx="478.604" cy="-901.071" rx="32.4942" ry="18"/>
<text text-anchor="middle" x="478.604" y="-897.371" font-family="Times,serif" font-size="14.00">12285</text>
</a>
</g>
</g>
<!-- 11268&#45;&gt;12285 -->
<g id="edge6" class="edge"><title>11268&#45;&gt;12285</title>
<path fill="none" stroke="black" d="M622.109,-858.001C589.159,-867.89 538.836,-882.994 507.373,-892.437"/>
</g>
<!-- 14612 -->
<g id="node28" class="node"><title>14612</title>
<g id="a_node28"><a xlink:title="3rd_week">
<ellipse fill="#ee9898" stroke="black" cx="615.94" cy="-970.496" rx="32.4942" ry="18"/>
<text text-anchor="middle" x="615.94" y="-966.796" font-family="Times,serif" font-size="14.00">14612</text>
</a>
</g>
</g>
<!-- 11268&#45;&gt;14612 -->
<g id="edge19" class="edge"><title>11268&#45;&gt;14612</title>
<path fill="none" stroke="black" d="M647.89,-870.044C640.415,-893.545 628.67,-930.47 621.695,-952.4"/>
</g>
<!-- 16334 -->
<g id="node31" class="node"><title>16334</title>
<g id="a_node31"><a xlink:title="3rd_week">
<ellipse fill="#ee9898" stroke="black" cx="814.093" cy="-875.875" rx="32.4942" ry="18"/>
<text text-anchor="middle" x="814.093" y="-872.175" font-family="Times,serif" font-size="14.00">16334</text>
</a>
</g>
</g>
<!-- 11268&#45;&gt;16334 -->
<g id="edge31" class="edge"><title>11268&#45;&gt;16334</title>
<path fill="none" stroke="black" d="M690.188,-854.323C717.952,-859.152 756.25,-865.814 782.889,-870.448"/>
</g>
<!-- 16410 -->
<g id="node32" class="node"><title>16410</title>
<g id="a_node32"><a xlink:title="3rd_week">
<ellipse fill="#ee9898" stroke="black" cx="771.915" cy="-947.111" rx="32.4942" ry="18"/>
<text text-anchor="middle" x="771.915" y="-943.411" font-family="Times,serif" font-size="14.00">16410</text>
</a>
</g>
</g>
<!-- 11268&#45;&gt;16410 -->
<g id="edge48" class="edge"><title>11268&#45;&gt;16410</title>
<path fill="none" stroke="black" d="M676.046,-866.092C698.317,-884.913 732.964,-914.193 753.94,-931.92"/>
</g>
<!-- 11268&#45;&gt;18324 -->
<g id="edge32" class="edge"><title>11268&#45;&gt;18324</title>
<path fill="none" stroke="black" d="M672.903,-867.453C717.321,-914.872 831.724,-1037 879.24,-1087.73"/>
</g>
<!-- 19748 -->
<g id="node37" class="node"><title>19748</title>
<g id="a_node37"><a xlink:title="3rd_week">
<ellipse fill="#ee9898" stroke="black" cx="820.877" cy="-808.685" rx="32.4942" ry="18"/>
<text text-anchor="middle" x="820.877" y="-804.985" font-family="Times,serif" font-size="14.00">19748</text>
</a>
</g>
</g>
<!-- 11268&#45;&gt;19748 -->
<g id="edge40" class="edge"><title>11268&#45;&gt;19748</title>
<path fill="none" stroke="black" d="M688.845,-840.089C718.825,-832.958 762.092,-822.667 790.825,-815.833"/>
</g>
<!-- 19749 -->
<g id="node38" class="node"><title>19749</title>
<g id="a_node38"><a xlink:title="3rd_week">
<ellipse fill="#ee9898" stroke="black" cx="666.274" cy="-693.321" rx="32.4942" ry="18"/>
<text text-anchor="middle" x="666.274" y="-689.621" font-family="Times,serif" font-size="14.00">19749</text>
</a>
</g>
</g>
<!-- 11268&#45;&gt;19749 -->
<g id="edge9" class="edge"><title>11268&#45;&gt;19749</title>
<path fill="none" stroke="black" d="M656.483,-825.988C658.754,-795.213 662.819,-740.141 664.926,-711.597"/>
</g>
<!-- 23292 -->
<g id="node43" class="node"><title>23292</title>
<g id="a_node43"><a xlink:title="3rd_week">
<ellipse fill="#ee9898" stroke="black" cx="528.164" cy="-763.482" rx="32.4942" ry="18"/>
<text text-anchor="middle" x="528.164" y="-759.782" font-family="Times,serif" font-size="14.00">23292</text>
</a>
</g>
</g>
<!-- 11268&#45;&gt;23292 -->
<g id="edge49" class="edge"><title>11268&#45;&gt;23292</title>
<path fill="none" stroke="black" d="M630.119,-831.645C606.502,-815.855 571.302,-792.322 549.052,-777.446"/>
</g>
<!-- 23664 -->
<g id="node44" class="node"><title>23664</title>
<g id="a_node44"><a xlink:title="3rd_week">
<ellipse fill="#ee9898" stroke="black" cx="532.236" cy="-999.422" rx="32.4942" ry="18"/>
<text text-anchor="middle" x="532.236" y="-995.722" font-family="Times,serif" font-size="14.00">23664</text>
</a>
</g>
</g>
<!-- 11268&#45;&gt;23664 -->
<g id="edge3" class="edge"><title>11268&#45;&gt;23664</title>
<path fill="none" stroke="black" d="M638.816,-867.948C614.41,-898.056 568.371,-954.848 545.635,-982.894"/>
</g>
<!-- 4847 -->
<g id="node50" class="node"><title>4847</title>
<g id="a_node50"><a xlink:title="3rd_week">
<ellipse fill="#ee9898" stroke="black" cx="699.737" cy="-996.882" rx="28.6953" ry="18"/>
<text text-anchor="middle" x="699.737" y="-993.182" font-family="Times,serif" font-size="14.00">4847</text>
</a>
</g>
</g>
<!-- 11268&#45;&gt;4847 -->
<g id="edge8" class="edge"><title>11268&#45;&gt;4847</title>
<path fill="none" stroke="black" d="M661.469,-870.118C670.396,-899.687 686.115,-951.758 694.354,-979.051"/>
</g>
<!-- 23123 -->
<g id="node54" class="node"><title>23123</title>
<g id="a_node54"><a xlink:title="3rd_week">
<ellipse fill="#ee9898" stroke="black" cx="505.208" cy="-951.154" rx="32.4942" ry="18"/>
<text text-anchor="middle" x="505.208" y="-947.454" font-family="Times,serif" font-size="14.00">23123</text>
</a>
</g>
</g>
<!-- 11268&#45;&gt;23123 -->
<g id="edge38" class="edge"><title>11268&#45;&gt;23123</title>
<path fill="none" stroke="black" d="M630.471,-864.95C601.32,-885.011 553.045,-918.233 525.72,-937.038"/>
</g>
<!-- 26760 -->
<g id="node56" class="node"><title>26760</title>
<g id="a_node56"><a xlink:title="3rd_week">
<ellipse fill="#ee9898" stroke="black" cx="807.224" cy="-754.58" rx="32.4942" ry="18"/>
<text text-anchor="middle" x="807.224" y="-750.88" font-family="Times,serif" font-size="14.00">26760</text>
</a>
</g>
</g>
<!-- 11268&#45;&gt;26760 -->
<g id="edge45" class="edge"><title>11268&#45;&gt;26760</title>
<path fill="none" stroke="black" d="M680.694,-832.298C710.074,-814.253 757.529,-785.105 785.212,-768.101"/>
</g>
<!-- 14243 -->
<g id="node26" class="node"><title>14243</title>
<g id="a_node26"><a xlink:title="PRE">
<ellipse fill="#71a9f7" stroke="black" cx="832.054" cy="-1274.13" rx="32.4942" ry="18"/>
<text text-anchor="middle" x="832.054" y="-1270.43" font-family="Times,serif" font-size="14.00">14243</text>
</a>
</g>
</g>
<!-- 14243&#45;&gt;18324 -->
<g id="edge18" class="edge"><title>14243&#45;&gt;18324</title>
<path fill="none" stroke="black" d="M839.501,-1256.29C851.683,-1227.1 875.909,-1169.07 889.861,-1135.64"/>
</g>
<!-- 22584 -->
<g id="node41" class="node"><title>22584</title>
<g id="a_node41"><a xlink:title="3rd_week">
<ellipse fill="#ee9898" stroke="black" cx="1062.62" cy="-1698.38" rx="32.4942" ry="18"/>
<text text-anchor="middle" x="1062.62" y="-1694.68" font-family="Times,serif" font-size="14.00">22584</text>
</a>
</g>
</g>
<!-- 14442&#45;&gt;22584 -->
<g id="edge34" class="edge"><title>14442&#45;&gt;22584</title>
<path fill="none" stroke="black" d="M1092.25,-1545.3C1085.89,-1578.15 1072.47,-1647.52 1066.11,-1680.39"/>
</g>
<!-- 24317 -->
<g id="node55" class="node"><title>24317</title>
<g id="a_node55"><a xlink:title="3rd_week">
<ellipse fill="#ee9898" stroke="black" cx="42.03" cy="-433.635" rx="32.4942" ry="18"/>
<text text-anchor="middle" x="42.03" y="-429.935" font-family="Times,serif" font-size="14.00">24317</text>
</a>
</g>
</g>
<!-- 14996&#45;&gt;24317 -->
<g id="edge52" class="edge"><title>14996&#45;&gt;24317</title>
<path fill="none" stroke="black" d="M189.099,-486.803C156.449,-475 102.053,-455.335 69.3607,-443.516"/>
</g>
<!-- 21746 -->
<g id="node40" class="node"><title>21746</title>
<g id="a_node40"><a xlink:title="3rd_week">
<ellipse fill="#ee9898" stroke="black" cx="304.824" cy="-105.086" rx="32.4942" ry="18"/>
<text text-anchor="middle" x="304.824" y="-101.386" font-family="Times,serif" font-size="14.00">21746</text>
</a>
</g>
</g>
<!-- 21746&#45;&gt;24067 -->
<g id="edge17" class="edge"><title>21746&#45;&gt;24067</title>
<path fill="none" stroke="black" d="M305.747,-123.317C307.523,-158.425 311.399,-235.037 313.172,-270.087"/>
</g>
<!-- 23230 -->
<g id="node42" class="node"><title>23230</title>
<g id="a_node42"><a xlink:title="3rd_week">
<ellipse fill="#ee9898" stroke="black" cx="230.874" cy="-130.758" rx="32.4942" ry="18"/>
<text text-anchor="middle" x="230.874" y="-127.058" font-family="Times,serif" font-size="14.00">23230</text>
</a>
</g>
</g>
<!-- 23230&#45;&gt;24067 -->
<g id="edge11" class="edge"><title>23230&#45;&gt;24067</title>
<path fill="none" stroke="black" d="M240.098,-148.214C256.093,-178.486 288.801,-240.385 304.826,-270.711"/>
</g>
<!-- 7429 -->
<g id="node51" class="node"><title>7429</title>
<g id="a_node51"><a xlink:title="3rd_week">
<ellipse fill="#ee9898" stroke="black" cx="553.442" cy="-120.542" rx="28.6953" ry="18"/>
<text text-anchor="middle" x="553.442" y="-116.842" font-family="Times,serif" font-size="14.00">7429</text>
</a>
</g>
</g>
<!-- 28202&#45;&gt;7429 -->
<g id="edge41" class="edge"><title>28202&#45;&gt;7429</title>
<path fill="none" stroke="black" d="M535.772,-281.922C539.55,-247.412 547.712,-172.871 551.473,-138.531"/>
</g>
<!-- 18796 -->
<g id="node53" class="node"><title>18796</title>
<g id="a_node53"><a xlink:title="3rd_week">
<ellipse fill="#ee9898" stroke="black" cx="632.195" cy="-144.247" rx="32.4942" ry="18"/>
<text text-anchor="middle" x="632.195" y="-140.547" font-family="Times,serif" font-size="14.00">18796</text>
</a>
</g>
</g>
<!-- 28202&#45;&gt;18796 -->
<g id="edge13" class="edge"><title>28202&#45;&gt;18796</title>
<path fill="none" stroke="black" d="M544.686,-282.853C563.604,-252.889 602.286,-191.62 621.237,-161.602"/>
</g>
</g>
</svg>
