<?xml version="1.0" encoding="UTF-8" standalone="no"?>
<!DOCTYPE svg PUBLIC "-//W3C//DTD SVG 1.1//EN"
 "http://www.w3.org/Graphics/SVG/1.1/DTD/svg11.dtd">
<!-- Generated by graphviz version 2.38.0 (20140413.2041)
 -->
<!-- Title: %3 Pages: 1 -->
<svg width="2410pt" height="2112pt"
 viewBox="0.00 0.00 2410.00 2112.00" xmlns="http://www.w3.org/2000/svg" xmlns:xlink="http://www.w3.org/1999/xlink">
<g id="graph0" class="graph" transform="scale(1 1) rotate(0) translate(4 2108)">
<title>%3</title>
<polygon fill="white" stroke="none" points="-4,4 -4,-2108 2406,-2108 2406,4 -4,4"/>
<!-- 1268 -->
<g id="node1" class="node"><title>1268</title>
<g id="a_node1"><a xlink:title="3rd_week">
<ellipse fill="#ee9898" stroke="black" cx="1332.06" cy="-436.718" rx="28.6953" ry="18"/>
<text text-anchor="middle" x="1332.06" y="-433.018" font-family="Times,serif" font-size="14.00">1268</text>
</a>
</g>
</g>
<!-- 5926 -->
<g id="node9" class="node"><title>5926</title>
<g id="a_node9"><a xlink:title="3rd_week">
<ellipse fill="#ee9898" stroke="black" cx="1370.46" cy="-622.148" rx="28.6953" ry="18"/>
<text text-anchor="middle" x="1370.46" y="-618.448" font-family="Times,serif" font-size="14.00">5926</text>
</a>
</g>
</g>
<!-- 1268&#45;&gt;5926 -->
<g id="edge10" class="edge"><title>1268&#45;&gt;5926</title>
<path fill="none" stroke="black" d="M1335.81,-454.835C1343.17,-490.376 1359.43,-568.85 1366.75,-604.23"/>
</g>
<!-- 1629 -->
<g id="node2" class="node"><title>1629</title>
<g id="a_node2"><a xlink:title="6th_week">
<ellipse fill="#c81d25" stroke="black" cx="1553.41" cy="-1289.26" rx="28.6953" ry="18"/>
<text text-anchor="middle" x="1553.41" y="-1285.56" font-family="Times,serif" font-size="14.00">1629</text>
</a>
</g>
</g>
<!-- 20134 -->
<g id="node23" class="node"><title>20134</title>
<g id="a_node23"><a xlink:title="6th_week">
<ellipse fill="#c81d25" stroke="black" cx="1492.91" cy="-1115" rx="32.4942" ry="18"/>
<text text-anchor="middle" x="1492.91" y="-1111.3" font-family="Times,serif" font-size="14.00">20134</text>
</a>
</g>
</g>
<!-- 1629&#45;&gt;20134 -->
<g id="edge68" class="edge"><title>1629&#45;&gt;20134</title>
<path fill="none" stroke="black" d="M1547.27,-1271.59C1535.68,-1238.19 1510.67,-1166.15 1499.06,-1132.72"/>
</g>
<!-- 3693 -->
<g id="node3" class="node"><title>3693</title>
<g id="a_node3"><a xlink:title="Day_0">
<ellipse fill="#e5dada" stroke="black" cx="1654.64" cy="-641.994" rx="28.6953" ry="18"/>
<text text-anchor="middle" x="1654.64" y="-638.294" font-family="Times,serif" font-size="14.00">3693</text>
</a>
</g>
</g>
<!-- 57668 -->
<g id="node59" class="node"><title>57668</title>
<g id="a_node59"><a xlink:title="Day_0">
<ellipse fill="#e5dada" stroke="black" cx="1530.61" cy="-807.303" rx="32.4942" ry="18"/>
<text text-anchor="middle" x="1530.61" y="-803.603" font-family="Times,serif" font-size="14.00">57668</text>
</a>
</g>
</g>
<!-- 3693&#45;&gt;57668 -->
<g id="edge23" class="edge"><title>3693&#45;&gt;57668</title>
<path fill="none" stroke="black" d="M1642.29,-658.449C1618.64,-689.972 1567.18,-758.569 1543.28,-790.422"/>
</g>
<!-- 3765 -->
<g id="node4" class="node"><title>3765</title>
<g id="a_node4"><a xlink:title="6th_week">
<ellipse fill="#c81d25" stroke="black" cx="1694.69" cy="-1351.35" rx="28.6953" ry="18"/>
<text text-anchor="middle" x="1694.69" y="-1347.65" font-family="Times,serif" font-size="14.00">3765</text>
</a>
</g>
</g>
<!-- 3765&#45;&gt;20134 -->
<g id="edge50" class="edge"><title>3765&#45;&gt;20134</title>
<path fill="none" stroke="black" d="M1681.14,-1335.47C1644.55,-1292.62 1544.06,-1174.92 1506.94,-1131.43"/>
</g>
<!-- 26439 -->
<g id="node28" class="node"><title>26439</title>
<g id="a_node28"><a xlink:title="3rd_week">
<ellipse fill="#ee9898" stroke="black" cx="1868.02" cy="-1541.74" rx="32.4942" ry="18"/>
<text text-anchor="middle" x="1868.02" y="-1538.04" font-family="Times,serif" font-size="14.00">26439</text>
</a>
</g>
</g>
<!-- 3765&#45;&gt;26439 -->
<g id="edge11" class="edge"><title>3765&#45;&gt;26439</title>
<path fill="none" stroke="black" d="M1709.17,-1367.25C1741.72,-1403 1820.37,-1489.39 1853.22,-1525.47"/>
</g>
<!-- 4014 -->
<g id="node5" class="node"><title>4014</title>
<g id="a_node5"><a xlink:title="6th_week">
<ellipse fill="#c81d25" stroke="black" cx="646.959" cy="-248.662" rx="28.6953" ry="18"/>
<text text-anchor="middle" x="646.959" y="-244.962" font-family="Times,serif" font-size="14.00">4014</text>
</a>
</g>
</g>
<!-- 23872 -->
<g id="node25" class="node"><title>23872</title>
<g id="a_node25"><a xlink:title="6th_week">
<ellipse fill="#c81d25" stroke="black" cx="640.832" cy="-411.06" rx="32.4942" ry="18"/>
<text text-anchor="middle" x="640.832" y="-407.36" font-family="Times,serif" font-size="14.00">23872</text>
</a>
</g>
</g>
<!-- 4014&#45;&gt;23872 -->
<g id="edge53" class="edge"><title>4014&#45;&gt;23872</title>
<path fill="none" stroke="black" d="M646.28,-266.662C645.102,-297.878 642.694,-361.707 641.514,-392.98"/>
</g>
<!-- 4209 -->
<g id="node6" class="node"><title>4209</title>
<g id="a_node6"><a xlink:title="3rd_week">
<ellipse fill="#ee9898" stroke="black" cx="1112.47" cy="-870.166" rx="28.6953" ry="18"/>
<text text-anchor="middle" x="1112.47" y="-866.466" font-family="Times,serif" font-size="14.00">4209</text>
</a>
</g>
</g>
<!-- 29499 -->
<g id="node30" class="node"><title>29499</title>
<g id="a_node30"><a xlink:title="3rd_week">
<ellipse fill="#ee9898" stroke="black" cx="1249.97" cy="-866.571" rx="32.4942" ry="18"/>
<text text-anchor="middle" x="1249.97" y="-862.871" font-family="Times,serif" font-size="14.00">29499</text>
</a>
</g>
</g>
<!-- 4209&#45;&gt;29499 -->
<g id="edge55" class="edge"><title>4209&#45;&gt;29499</title>
<path fill="none" stroke="black" d="M1141.29,-869.412C1163.5,-868.832 1194.21,-868.029 1217.32,-867.425"/>
</g>
<!-- 4304 -->
<g id="node7" class="node"><title>4304</title>
<g id="a_node7"><a xlink:title="3rd_week">
<ellipse fill="#ee9898" stroke="black" cx="688.471" cy="-1221.35" rx="28.6953" ry="18"/>
<text text-anchor="middle" x="688.471" y="-1217.65" font-family="Times,serif" font-size="14.00">4304</text>
</a>
</g>
</g>
<!-- 18451 -->
<g id="node22" class="node"><title>18451</title>
<g id="a_node22"><a xlink:title="3rd_week">
<ellipse fill="#ee9898" stroke="black" cx="854.262" cy="-1103.9" rx="32.4942" ry="18"/>
<text text-anchor="middle" x="854.262" y="-1100.2" font-family="Times,serif" font-size="14.00">18451</text>
</a>
</g>
</g>
<!-- 4304&#45;&gt;18451 -->
<g id="edge19" class="edge"><title>4304&#45;&gt;18451</title>
<path fill="none" stroke="black" d="M707.489,-1207.87C739.044,-1185.52 801.934,-1140.97 834.179,-1118.12"/>
</g>
<!-- 5856 -->
<g id="node8" class="node"><title>5856</title>
<g id="a_node8"><a xlink:title="6th_week">
<ellipse fill="#c81d25" stroke="black" cx="482.368" cy="-387.709" rx="28.6953" ry="18"/>
<text text-anchor="middle" x="482.368" y="-384.009" font-family="Times,serif" font-size="14.00">5856</text>
</a>
</g>
</g>
<!-- 5856&#45;&gt;23872 -->
<g id="edge37" class="edge"><title>5856&#45;&gt;23872</title>
<path fill="none" stroke="black" d="M510.334,-391.83C538.055,-395.915 580.45,-402.162 609.341,-406.42"/>
</g>
<!-- 5926&#45;&gt;29499 -->
<g id="edge29" class="edge"><title>5926&#45;&gt;29499</title>
<path fill="none" stroke="black" d="M1361.8,-639.727C1339.57,-684.824 1280.7,-804.23 1258.55,-849.152"/>
</g>
<!-- 33011 -->
<g id="node33" class="node"><title>33011</title>
<g id="a_node33"><a xlink:title="3rd_week">
<ellipse fill="#ee9898" stroke="black" cx="1419.72" cy="-492.42" rx="32.4942" ry="18"/>
<text text-anchor="middle" x="1419.72" y="-488.72" font-family="Times,serif" font-size="14.00">33011</text>
</a>
</g>
</g>
<!-- 5926&#45;&gt;33011 -->
<g id="edge61" class="edge"><title>5926&#45;&gt;33011</title>
<path fill="none" stroke="black" d="M1377.21,-604.382C1386.59,-579.678 1403.48,-535.199 1412.9,-510.388"/>
</g>
<!-- 45876 -->
<g id="node45" class="node"><title>45876</title>
<g id="a_node45"><a xlink:title="3rd_week">
<ellipse fill="#ee9898" stroke="black" cx="1514.93" cy="-499.76" rx="32.4942" ry="18"/>
<text text-anchor="middle" x="1514.93" y="-496.06" font-family="Times,serif" font-size="14.00">45876</text>
</a>
</g>
</g>
<!-- 5926&#45;&gt;45876 -->
<g id="edge43" class="edge"><title>5926&#45;&gt;45876</title>
<path fill="none" stroke="black" d="M1387.6,-607.628C1415.11,-584.327 1468.85,-538.796 1496.9,-515.028"/>
</g>
<!-- 47184 -->
<g id="node49" class="node"><title>47184</title>
<g id="a_node49"><a xlink:title="3rd_week">
<ellipse fill="#ee9898" stroke="black" cx="1490.21" cy="-411.705" rx="32.4942" ry="18"/>
<text text-anchor="middle" x="1490.21" y="-408.005" font-family="Times,serif" font-size="14.00">47184</text>
</a>
</g>
</g>
<!-- 5926&#45;&gt;47184 -->
<g id="edge52" class="edge"><title>5926&#45;&gt;47184</title>
<path fill="none" stroke="black" d="M1380.26,-604.927C1402.72,-565.465 1457.69,-468.855 1480.27,-429.165"/>
</g>
<!-- 6107 -->
<g id="node10" class="node"><title>6107</title>
<g id="a_node10"><a xlink:title="3rd_week">
<ellipse fill="#ee9898" stroke="black" cx="1846.49" cy="-1279.23" rx="28.6953" ry="18"/>
<text text-anchor="middle" x="1846.49" y="-1275.53" font-family="Times,serif" font-size="14.00">6107</text>
</a>
</g>
</g>
<!-- 51597 -->
<g id="node55" class="node"><title>51597</title>
<g id="a_node55"><a xlink:title="3rd_week">
<ellipse fill="#ee9898" stroke="black" cx="1694.76" cy="-1226.46" rx="32.4942" ry="18"/>
<text text-anchor="middle" x="1694.76" y="-1222.76" font-family="Times,serif" font-size="14.00">51597</text>
</a>
</g>
</g>
<!-- 6107&#45;&gt;51597 -->
<g id="edge46" class="edge"><title>6107&#45;&gt;51597</title>
<path fill="none" stroke="black" d="M1821.43,-1270.51C1794.16,-1261.03 1750.68,-1245.91 1722.42,-1236.08"/>
</g>
<!-- 6525 -->
<g id="node11" class="node"><title>6525</title>
<g id="a_node11"><a xlink:title="Day_0">
<ellipse fill="#e5dada" stroke="black" cx="935.08" cy="-632.024" rx="28.6953" ry="18"/>
<text text-anchor="middle" x="935.08" y="-628.324" font-family="Times,serif" font-size="14.00">6525</text>
</a>
</g>
</g>
<!-- 6525&#45;&gt;23872 -->
<g id="edge42" class="edge"><title>6525&#45;&gt;23872</title>
<path fill="none" stroke="black" d="M916.673,-618.202C864.208,-578.803 714.229,-466.177 660.379,-425.739"/>
</g>
<!-- 23934 -->
<g id="node26" class="node"><title>23934</title>
<g id="a_node26"><a xlink:title="Day_0">
<ellipse fill="#e5dada" stroke="black" cx="847.207" cy="-760.893" rx="32.4942" ry="18"/>
<text text-anchor="middle" x="847.207" y="-757.193" font-family="Times,serif" font-size="14.00">23934</text>
</a>
</g>
</g>
<!-- 6525&#45;&gt;23934 -->
<g id="edge1" class="edge"><title>6525&#45;&gt;23934</title>
<path fill="none" stroke="black" d="M923.772,-648.608C906.992,-673.216 875.666,-719.157 858.751,-743.964"/>
</g>
<!-- 25138 -->
<g id="node27" class="node"><title>25138</title>
<g id="a_node27"><a xlink:title="Day_0">
<ellipse fill="#e5dada" stroke="black" cx="735.693" cy="-578.243" rx="32.4942" ry="18"/>
<text text-anchor="middle" x="735.693" y="-574.543" font-family="Times,serif" font-size="14.00">25138</text>
</a>
</g>
</g>
<!-- 6525&#45;&gt;25138 -->
<g id="edge32" class="edge"><title>6525&#45;&gt;25138</title>
<path fill="none" stroke="black" d="M908.603,-624.883C871.421,-614.853 803.955,-596.656 765.203,-586.203"/>
</g>
<!-- 6525&#45;&gt;29499 -->
<g id="edge41" class="edge"><title>6525&#45;&gt;29499</title>
<path fill="none" stroke="black" d="M953.835,-645.994C1009.58,-687.513 1173.87,-809.889 1230.51,-852.079"/>
</g>
<!-- 29979 -->
<g id="node32" class="node"><title>29979</title>
<g id="a_node32"><a xlink:title="Day_0">
<ellipse fill="#e5dada" stroke="black" cx="867.724" cy="-451.107" rx="32.4942" ry="18"/>
<text text-anchor="middle" x="867.724" y="-447.407" font-family="Times,serif" font-size="14.00">29979</text>
</a>
</g>
</g>
<!-- 6525&#45;&gt;29979 -->
<g id="edge56" class="edge"><title>6525&#45;&gt;29979</title>
<path fill="none" stroke="black" d="M928.499,-614.348C915.622,-579.761 887.23,-503.5 874.332,-468.856"/>
</g>
<!-- 33056 -->
<g id="node34" class="node"><title>33056</title>
<g id="a_node34"><a xlink:title="Day_0">
<ellipse fill="#e5dada" stroke="black" cx="809.613" cy="-505.923" rx="32.4942" ry="18"/>
<text text-anchor="middle" x="809.613" y="-502.223" font-family="Times,serif" font-size="14.00">33056</text>
</a>
</g>
</g>
<!-- 6525&#45;&gt;33056 -->
<g id="edge35" class="edge"><title>6525&#45;&gt;33056</title>
<path fill="none" stroke="black" d="M919.695,-616.562C895.746,-592.491 849.784,-546.297 825.52,-521.909"/>
</g>
<!-- 46128 -->
<g id="node46" class="node"><title>46128</title>
<g id="a_node46"><a xlink:title="Day_0">
<ellipse fill="#e5dada" stroke="black" cx="954.333" cy="-499.842" rx="32.4942" ry="18"/>
<text text-anchor="middle" x="954.333" y="-496.142" font-family="Times,serif" font-size="14.00">46128</text>
</a>
</g>
</g>
<!-- 6525&#45;&gt;46128 -->
<g id="edge7" class="edge"><title>6525&#45;&gt;46128</title>
<path fill="none" stroke="black" d="M937.717,-613.922C941.383,-588.751 947.984,-543.43 951.667,-518.15"/>
</g>
<!-- 48486 -->
<g id="node50" class="node"><title>48486</title>
<g id="a_node50"><a xlink:title="Day_0">
<ellipse fill="#e5dada" stroke="black" cx="955.572" cy="-432.105" rx="32.4942" ry="18"/>
<text text-anchor="middle" x="955.572" y="-428.405" font-family="Times,serif" font-size="14.00">48486</text>
</a>
</g>
</g>
<!-- 6525&#45;&gt;48486 -->
<g id="edge22" class="edge"><title>6525&#45;&gt;48486</title>
<path fill="none" stroke="black" d="M936.935,-613.93C940.826,-575.964 949.806,-488.358 953.707,-450.302"/>
</g>
<!-- 49697 -->
<g id="node51" class="node"><title>49697</title>
<g id="a_node51"><a xlink:title="Day_0">
<ellipse fill="#e5dada" stroke="black" cx="1052.57" cy="-494.222" rx="32.4942" ry="18"/>
<text text-anchor="middle" x="1052.57" y="-490.522" font-family="Times,serif" font-size="14.00">49697</text>
</a>
</g>
</g>
<!-- 6525&#45;&gt;49697 -->
<g id="edge20" class="edge"><title>6525&#45;&gt;49697</title>
<path fill="none" stroke="black" d="M948.787,-615.947C971.304,-589.536 1015.89,-537.246 1038.58,-510.624"/>
</g>
<!-- 56338 -->
<g id="node57" class="node"><title>56338</title>
<g id="a_node57"><a xlink:title="Day_0">
<ellipse fill="#e5dada" stroke="black" cx="730.957" cy="-661.481" rx="32.4942" ry="18"/>
<text text-anchor="middle" x="730.957" y="-657.781" font-family="Times,serif" font-size="14.00">56338</text>
</a>
</g>
</g>
<!-- 6525&#45;&gt;56338 -->
<g id="edge63" class="edge"><title>6525&#45;&gt;56338</title>
<path fill="none" stroke="black" d="M907.125,-636.059C869.346,-641.51 802.175,-651.204 762.59,-656.916"/>
</g>
<!-- 56396 -->
<g id="node58" class="node"><title>56396</title>
<g id="a_node58"><a xlink:title="Day_0">
<ellipse fill="#e5dada" stroke="black" cx="771.338" cy="-718.263" rx="32.4942" ry="18"/>
<text text-anchor="middle" x="771.338" y="-714.563" font-family="Times,serif" font-size="14.00">56396</text>
</a>
</g>
</g>
<!-- 6525&#45;&gt;56396 -->
<g id="edge66" class="edge"><title>6525&#45;&gt;56396</title>
<path fill="none" stroke="black" d="M912.997,-643.655C882.182,-659.884 826.521,-689.199 794.922,-705.842"/>
</g>
<!-- 61968 -->
<g id="node62" class="node"><title>61968</title>
<g id="a_node62"><a xlink:title="Day_0">
<ellipse fill="#e5dada" stroke="black" cx="833.952" cy="-623.884" rx="32.4942" ry="18"/>
<text text-anchor="middle" x="833.952" y="-620.184" font-family="Times,serif" font-size="14.00">61968</text>
</a>
</g>
</g>
<!-- 6525&#45;&gt;61968 -->
<g id="edge47" class="edge"><title>6525&#45;&gt;61968</title>
<path fill="none" stroke="black" d="M906.641,-629.735C894.139,-628.729 879.389,-627.542 866.455,-626.5"/>
</g>
<!-- 6770 -->
<g id="node12" class="node"><title>6770</title>
<g id="a_node12"><a xlink:title="3rd_week">
<ellipse fill="#ee9898" stroke="black" cx="564.956" cy="-221.545" rx="28.6953" ry="18"/>
<text text-anchor="middle" x="564.956" y="-217.845" font-family="Times,serif" font-size="14.00">6770</text>
</a>
</g>
</g>
<!-- 6770&#45;&gt;23872 -->
<g id="edge14" class="edge"><title>6770&#45;&gt;23872</title>
<path fill="none" stroke="black" d="M571.959,-239.035C586.377,-275.047 619.239,-357.128 633.736,-393.338"/>
</g>
<!-- 34160 -->
<g id="node36" class="node"><title>34160</title>
<g id="a_node36"><a xlink:title="3rd_week">
<ellipse fill="#ee9898" stroke="black" cx="494.671" cy="-57.47" rx="32.4942" ry="18"/>
<text text-anchor="middle" x="494.671" y="-53.77" font-family="Times,serif" font-size="14.00">34160</text>
</a>
</g>
</g>
<!-- 6770&#45;&gt;34160 -->
<g id="edge18" class="edge"><title>6770&#45;&gt;34160</title>
<path fill="none" stroke="black" d="M557.435,-203.986C543.978,-172.572 515.923,-107.081 502.352,-75.4001"/>
</g>
<!-- 7695 -->
<g id="node13" class="node"><title>7695</title>
<g id="a_node13"><a xlink:title="3rd_week">
<ellipse fill="#ee9898" stroke="black" cx="1187.52" cy="-1003.14" rx="28.6953" ry="18"/>
<text text-anchor="middle" x="1187.52" y="-999.439" font-family="Times,serif" font-size="14.00">7695</text>
</a>
</g>
</g>
<!-- 7695&#45;&gt;29499 -->
<g id="edge8" class="edge"><title>7695&#45;&gt;29499</title>
<path fill="none" stroke="black" d="M1195.55,-985.564C1207.55,-959.342 1229.99,-910.261 1241.96,-884.078"/>
</g>
<!-- 7735 -->
<g id="node14" class="node"><title>7735</title>
<g id="a_node14"><a xlink:title="Day_0">
<ellipse fill="#e5dada" stroke="black" cx="1688.41" cy="-887.134" rx="28.6953" ry="18"/>
<text text-anchor="middle" x="1688.41" y="-883.434" font-family="Times,serif" font-size="14.00">7735</text>
</a>
</g>
</g>
<!-- 7735&#45;&gt;57668 -->
<g id="edge30" class="edge"><title>7735&#45;&gt;57668</title>
<path fill="none" stroke="black" d="M1665.8,-875.696C1636.32,-860.779 1584.94,-834.789 1554.73,-819.505"/>
</g>
<!-- 10317 -->
<g id="node15" class="node"><title>10317</title>
<g id="a_node15"><a xlink:title="3rd_week">
<ellipse fill="#ee9898" stroke="black" cx="1178.34" cy="-1169.2" rx="32.4942" ry="18"/>
<text text-anchor="middle" x="1178.34" y="-1165.5" font-family="Times,serif" font-size="14.00">10317</text>
</a>
</g>
</g>
<!-- 12819 -->
<g id="node16" class="node"><title>12819</title>
<g id="a_node16"><a xlink:title="3rd_week">
<ellipse fill="#ee9898" stroke="black" cx="1221.84" cy="-1339.42" rx="32.4942" ry="18"/>
<text text-anchor="middle" x="1221.84" y="-1335.72" font-family="Times,serif" font-size="14.00">12819</text>
</a>
</g>
</g>
<!-- 10317&#45;&gt;12819 -->
<g id="edge4" class="edge"><title>10317&#45;&gt;12819</title>
<path fill="none" stroke="black" d="M1182.91,-1187.09C1191.26,-1219.79 1208.9,-1288.81 1217.26,-1321.51"/>
</g>
<!-- 18054 -->
<g id="node21" class="node"><title>18054</title>
<g id="a_node21"><a xlink:title="3rd_week">
<ellipse fill="#ee9898" stroke="black" cx="1143.04" cy="-1352.79" rx="32.4942" ry="18"/>
<text text-anchor="middle" x="1143.04" y="-1349.09" font-family="Times,serif" font-size="14.00">18054</text>
</a>
</g>
</g>
<!-- 10317&#45;&gt;18054 -->
<g id="edge38" class="edge"><title>10317&#45;&gt;18054</title>
<path fill="none" stroke="black" d="M1174.89,-1187.14C1168.14,-1222.24 1153.26,-1299.62 1146.5,-1334.78"/>
</g>
<!-- 10317&#45;&gt;29499 -->
<g id="edge39" class="edge"><title>10317&#45;&gt;29499</title>
<path fill="none" stroke="black" d="M1182.6,-1151.18C1195.34,-1097.35 1233.01,-938.203 1245.72,-884.501"/>
</g>
<!-- 36453 -->
<g id="node37" class="node"><title>36453</title>
<g id="a_node37"><a xlink:title="3rd_week">
<ellipse fill="#ee9898" stroke="black" cx="1048.33" cy="-1298.51" rx="32.4942" ry="18"/>
<text text-anchor="middle" x="1048.33" y="-1294.81" font-family="Times,serif" font-size="14.00">36453</text>
</a>
</g>
</g>
<!-- 10317&#45;&gt;36453 -->
<g id="edge58" class="edge"><title>10317&#45;&gt;36453</title>
<path fill="none" stroke="black" d="M1162.4,-1185.06C1137.44,-1209.88 1089.44,-1257.63 1064.41,-1282.53"/>
</g>
<!-- 50859 -->
<g id="node54" class="node"><title>50859</title>
<g id="a_node54"><a xlink:title="3rd_week">
<ellipse fill="#ee9898" stroke="black" cx="1020.83" cy="-1248.21" rx="32.4942" ry="18"/>
<text text-anchor="middle" x="1020.83" y="-1244.51" font-family="Times,serif" font-size="14.00">50859</text>
</a>
</g>
</g>
<!-- 10317&#45;&gt;50859 -->
<g id="edge31" class="edge"><title>10317&#45;&gt;50859</title>
<path fill="none" stroke="black" d="M1154.07,-1181.37C1124.47,-1196.22 1074.73,-1221.17 1045.12,-1236.03"/>
</g>
<!-- 55032 -->
<g id="node56" class="node"><title>55032</title>
<g id="a_node56"><a xlink:title="3rd_week">
<ellipse fill="#ee9898" stroke="black" cx="1142.6" cy="-1293.29" rx="32.4942" ry="18"/>
<text text-anchor="middle" x="1142.6" y="-1289.59" font-family="Times,serif" font-size="14.00">55032</text>
</a>
</g>
</g>
<!-- 10317&#45;&gt;55032 -->
<g id="edge60" class="edge"><title>10317&#45;&gt;55032</title>
<path fill="none" stroke="black" d="M1173.22,-1186.98C1166.46,-1210.44 1154.64,-1251.5 1147.83,-1275.14"/>
</g>
<!-- 62336 -->
<g id="node63" class="node"><title>62336</title>
<g id="a_node63"><a xlink:title="3rd_week">
<ellipse fill="#ee9898" stroke="black" cx="1276.79" cy="-1294.88" rx="32.4942" ry="18"/>
<text text-anchor="middle" x="1276.79" y="-1291.18" font-family="Times,serif" font-size="14.00">62336</text>
</a>
</g>
</g>
<!-- 10317&#45;&gt;62336 -->
<g id="edge25" class="edge"><title>10317&#45;&gt;62336</title>
<path fill="none" stroke="black" d="M1191.41,-1185.89C1210.24,-1209.93 1244.8,-1254.05 1263.66,-1278.12"/>
</g>
<!-- 13193 -->
<g id="node17" class="node"><title>13193</title>
<g id="a_node17"><a xlink:title="6th_week">
<ellipse fill="#c81d25" stroke="black" cx="2234.86" cy="-2086.26" rx="32.4942" ry="18"/>
<text text-anchor="middle" x="2234.86" y="-2082.56" font-family="Times,serif" font-size="14.00">13193</text>
</a>
</g>
</g>
<!-- 22191 -->
<g id="node24" class="node"><title>22191</title>
<g id="a_node24"><a xlink:title="6th_week">
<ellipse fill="#c81d25" stroke="black" cx="2211.24" cy="-1924.37" rx="32.4942" ry="18"/>
<text text-anchor="middle" x="2211.24" y="-1920.67" font-family="Times,serif" font-size="14.00">22191</text>
</a>
</g>
</g>
<!-- 13193&#45;&gt;22191 -->
<g id="edge28" class="edge"><title>13193&#45;&gt;22191</title>
<path fill="none" stroke="black" d="M2232.24,-2068.32C2227.7,-2037.2 2218.42,-1973.57 2213.87,-1942.39"/>
</g>
<!-- 15738 -->
<g id="node18" class="node"><title>15738</title>
<g id="a_node18"><a xlink:title="6th_week">
<ellipse fill="#c81d25" stroke="black" cx="2369.64" cy="-1967.43" rx="32.4942" ry="18"/>
<text text-anchor="middle" x="2369.64" y="-1963.73" font-family="Times,serif" font-size="14.00">15738</text>
</a>
</g>
</g>
<!-- 15738&#45;&gt;22191 -->
<g id="edge5" class="edge"><title>15738&#45;&gt;22191</title>
<path fill="none" stroke="black" d="M2340.22,-1959.43C2311.77,-1951.7 2268.91,-1940.04 2240.51,-1932.32"/>
</g>
<!-- 15826 -->
<g id="node19" class="node"><title>15826</title>
<g id="a_node19"><a xlink:title="3rd_week">
<ellipse fill="#ee9898" stroke="black" cx="1585.77" cy="-253.341" rx="32.4942" ry="18"/>
<text text-anchor="middle" x="1585.77" y="-249.641" font-family="Times,serif" font-size="14.00">15826</text>
</a>
</g>
</g>
<!-- 15826&#45;&gt;47184 -->
<g id="edge33" class="edge"><title>15826&#45;&gt;47184</title>
<path fill="none" stroke="black" d="M1575.36,-270.591C1556.98,-301.053 1518.98,-364.03 1500.6,-394.477"/>
</g>
<!-- 16677 -->
<g id="node20" class="node"><title>16677</title>
<g id="a_node20"><a xlink:title="6th_week">
<ellipse fill="#c81d25" stroke="black" cx="2069.63" cy="-1905.22" rx="32.4942" ry="18"/>
<text text-anchor="middle" x="2069.63" y="-1901.52" font-family="Times,serif" font-size="14.00">16677</text>
</a>
</g>
</g>
<!-- 50258 -->
<g id="node52" class="node"><title>50258</title>
<g id="a_node52"><a xlink:title="6th_week">
<ellipse fill="#c81d25" stroke="black" cx="2053.06" cy="-1749.82" rx="32.4942" ry="18"/>
<text text-anchor="middle" x="2053.06" y="-1746.12" font-family="Times,serif" font-size="14.00">50258</text>
</a>
</g>
</g>
<!-- 16677&#45;&gt;50258 -->
<g id="edge59" class="edge"><title>16677&#45;&gt;50258</title>
<path fill="none" stroke="black" d="M2067.7,-1887.09C2064.5,-1857.15 2058.17,-1797.7 2054.98,-1767.84"/>
</g>
<!-- 58692 -->
<g id="node60" class="node"><title>58692</title>
<g id="a_node60"><a xlink:title="3rd_week">
<ellipse fill="#ee9898" stroke="black" cx="1030.75" cy="-1006.31" rx="32.4942" ry="18"/>
<text text-anchor="middle" x="1030.75" y="-1002.61" font-family="Times,serif" font-size="14.00">58692</text>
</a>
</g>
</g>
<!-- 18451&#45;&gt;58692 -->
<g id="edge2" class="edge"><title>18451&#45;&gt;58692</title>
<path fill="none" stroke="black" d="M877.335,-1091.14C911.16,-1072.43 973.848,-1037.77 1007.68,-1019.07"/>
</g>
<!-- 20134&#45;&gt;29499 -->
<g id="edge27" class="edge"><title>20134&#45;&gt;29499</title>
<path fill="none" stroke="black" d="M1477.34,-1099.08C1433.57,-1054.32 1309.72,-927.673 1265.72,-882.678"/>
</g>
<!-- 20134&#45;&gt;51597 -->
<g id="edge34" class="edge"><title>20134&#45;&gt;51597</title>
<path fill="none" stroke="black" d="M1516.06,-1127.79C1554.89,-1149.23 1632.7,-1192.2 1671.56,-1213.65"/>
</g>
<!-- 24440 -->
<g id="node68" class="node"><title>24440</title>
<g id="a_node68"><a xlink:title="6th_week">
<ellipse fill="#c81d25" stroke="black" cx="1666.86" cy="-1149.65" rx="32.4942" ry="18"/>
<text text-anchor="middle" x="1666.86" y="-1145.95" font-family="Times,serif" font-size="14.00">24440</text>
</a>
</g>
</g>
<!-- 20134&#45;&gt;24440 -->
<g id="edge64" class="edge"><title>20134&#45;&gt;24440</title>
<path fill="none" stroke="black" d="M1523.61,-1121.12C1555.31,-1127.43 1604.48,-1137.23 1636.18,-1143.54"/>
</g>
<!-- 42579 -->
<g id="node44" class="node"><title>42579</title>
<g id="a_node44"><a xlink:title="6th_week">
<ellipse fill="#c81d25" stroke="black" cx="2321.33" cy="-2047.78" rx="32.4942" ry="18"/>
<text text-anchor="middle" x="2321.33" y="-2044.08" font-family="Times,serif" font-size="14.00">42579</text>
</a>
</g>
</g>
<!-- 22191&#45;&gt;42579 -->
<g id="edge6" class="edge"><title>22191&#45;&gt;42579</title>
<path fill="none" stroke="black" d="M2225.86,-1940.76C2246.92,-1964.36 2285.56,-2007.68 2306.65,-2031.33"/>
</g>
<!-- 22191&#45;&gt;50258 -->
<g id="edge3" class="edge"><title>22191&#45;&gt;50258</title>
<path fill="none" stroke="black" d="M2196.64,-1908.26C2166.59,-1875.09 2098.08,-1799.49 2067.85,-1766.14"/>
</g>
<!-- 27603 -->
<g id="node29" class="node"><title>27603</title>
<g id="a_node29"><a xlink:title="6th_week">
<ellipse fill="#c81d25" stroke="black" cx="475.535" cy="-466.021" rx="32.4942" ry="18"/>
<text text-anchor="middle" x="475.535" y="-462.321" font-family="Times,serif" font-size="14.00">27603</text>
</a>
</g>
</g>
<!-- 23872&#45;&gt;27603 -->
<g id="edge54" class="edge"><title>23872&#45;&gt;27603</title>
<path fill="none" stroke="black" d="M612.792,-420.384C582.303,-430.521 533.87,-446.625 503.437,-456.744"/>
</g>
<!-- 34055 -->
<g id="node35" class="node"><title>34055</title>
<g id="a_node35"><a xlink:title="6th_week">
<ellipse fill="#c81d25" stroke="black" cx="524.456" cy="-305.663" rx="32.4942" ry="18"/>
<text text-anchor="middle" x="524.456" y="-301.963" font-family="Times,serif" font-size="14.00">34055</text>
</a>
</g>
</g>
<!-- 23872&#45;&gt;34055 -->
<g id="edge49" class="edge"><title>23872&#45;&gt;34055</title>
<path fill="none" stroke="black" d="M623.66,-395.508C601.658,-375.581 563.735,-341.236 541.698,-321.278"/>
</g>
<!-- 38565 -->
<g id="node39" class="node"><title>38565</title>
<g id="a_node39"><a xlink:title="6th_week">
<ellipse fill="#c81d25" stroke="black" cx="407.789" cy="-285.193" rx="32.4942" ry="18"/>
<text text-anchor="middle" x="407.789" y="-281.493" font-family="Times,serif" font-size="14.00">38565</text>
</a>
</g>
</g>
<!-- 23872&#45;&gt;38565 -->
<g id="edge62" class="edge"><title>23872&#45;&gt;38565</title>
<path fill="none" stroke="black" d="M617.204,-398.299C572.422,-374.112 475.694,-321.869 431.133,-297.801"/>
</g>
<!-- 37396 -->
<g id="node38" class="node"><title>37396</title>
<g id="a_node38"><a xlink:title="3rd_week">
<ellipse fill="#ee9898" stroke="black" cx="1997.36" cy="-1642.45" rx="32.4942" ry="18"/>
<text text-anchor="middle" x="1997.36" y="-1638.75" font-family="Times,serif" font-size="14.00">37396</text>
</a>
</g>
</g>
<!-- 26439&#45;&gt;37396 -->
<g id="edge15" class="edge"><title>26439&#45;&gt;37396</title>
<path fill="none" stroke="black" d="M1887.11,-1556.6C1911.56,-1575.64 1953.71,-1608.46 1978.2,-1627.53"/>
</g>
<!-- 26439&#45;&gt;50258 -->
<g id="edge12" class="edge"><title>26439&#45;&gt;50258</title>
<path fill="none" stroke="black" d="M1882.54,-1558.07C1917.13,-1596.96 2004.09,-1694.75 2038.61,-1733.57"/>
</g>
<!-- 29608 -->
<g id="node31" class="node"><title>29608</title>
<g id="a_node31"><a xlink:title="3rd_week">
<ellipse fill="#ee9898" stroke="black" cx="1322.76" cy="-1014.8" rx="32.4942" ry="18"/>
<text text-anchor="middle" x="1322.76" y="-1011.1" font-family="Times,serif" font-size="14.00">29608</text>
</a>
</g>
</g>
<!-- 29499&#45;&gt;29608 -->
<g id="edge48" class="edge"><title>29499&#45;&gt;29608</title>
<path fill="none" stroke="black" d="M1258.6,-884.157C1272.61,-912.684 1300.14,-968.723 1314.14,-997.235"/>
</g>
<!-- 41109 -->
<g id="node42" class="node"><title>41109</title>
<g id="a_node42"><a xlink:title="3rd_week">
<ellipse fill="#ee9898" stroke="black" cx="1397.36" cy="-920.278" rx="32.4942" ry="18"/>
<text text-anchor="middle" x="1397.36" y="-916.578" font-family="Times,serif" font-size="14.00">41109</text>
</a>
</g>
</g>
<!-- 29499&#45;&gt;41109 -->
<g id="edge24" class="edge"><title>29499&#45;&gt;41109</title>
<path fill="none" stroke="black" d="M1277.35,-876.547C1303.82,-886.194 1343.71,-900.727 1370.13,-910.356"/>
</g>
<!-- 46907 -->
<g id="node48" class="node"><title>46907</title>
<g id="a_node48"><a xlink:title="3rd_week">
<ellipse fill="#ee9898" stroke="black" cx="1354.84" cy="-776.394" rx="32.4942" ry="18"/>
<text text-anchor="middle" x="1354.84" y="-772.694" font-family="Times,serif" font-size="14.00">46907</text>
</a>
</g>
</g>
<!-- 29499&#45;&gt;46907 -->
<g id="edge67" class="edge"><title>29499&#45;&gt;46907</title>
<path fill="none" stroke="black" d="M1267.76,-851.274C1287.04,-834.691 1317.64,-808.378 1336.96,-791.766"/>
</g>
<!-- 29499&#45;&gt;57668 -->
<g id="edge57" class="edge"><title>29499&#45;&gt;57668</title>
<path fill="none" stroke="black" d="M1280.54,-860.116C1334.52,-848.715 1446.13,-825.146 1500.08,-813.75"/>
</g>
<!-- 29499&#45;&gt;58692 -->
<g id="edge9" class="edge"><title>29499&#45;&gt;58692</title>
<path fill="none" stroke="black" d="M1228.55,-880.224C1186.64,-906.938 1094.24,-965.84 1052.26,-992.598"/>
</g>
<!-- 68672 -->
<g id="node67" class="node"><title>68672</title>
<g id="a_node67"><a xlink:title="Day_0">
<ellipse fill="#e5dada" stroke="black" cx="1219.61" cy="-736.899" rx="32.4942" ry="18"/>
<text text-anchor="middle" x="1219.61" y="-733.199" font-family="Times,serif" font-size="14.00">68672</text>
</a>
</g>
</g>
<!-- 29499&#45;&gt;68672 -->
<g id="edge65" class="edge"><title>29499&#45;&gt;68672</title>
<path fill="none" stroke="black" d="M1245.75,-848.541C1239.95,-823.766 1229.57,-779.47 1223.79,-754.776"/>
</g>
<!-- 68147 -->
<g id="node65" class="node"><title>68147</title>
<g id="a_node65"><a xlink:title="6th_week">
<ellipse fill="#c81d25" stroke="black" cx="210.197" cy="-170.859" rx="32.4942" ry="18"/>
<text text-anchor="middle" x="210.197" y="-167.159" font-family="Times,serif" font-size="14.00">68147</text>
</a>
</g>
</g>
<!-- 38565&#45;&gt;68147 -->
<g id="edge26" class="edge"><title>38565&#45;&gt;68147</title>
<path fill="none" stroke="black" d="M385.122,-272.077C347.109,-250.081 270.942,-206.008 232.902,-183.997"/>
</g>
<!-- 39756 -->
<g id="node40" class="node"><title>39756</title>
<g id="a_node40"><a xlink:title="Day_0">
<ellipse fill="#e5dada" stroke="black" cx="1638.85" cy="-705.15" rx="32.4942" ry="18"/>
<text text-anchor="middle" x="1638.85" y="-701.45" font-family="Times,serif" font-size="14.00">39756</text>
</a>
</g>
</g>
<!-- 39756&#45;&gt;57668 -->
<g id="edge21" class="edge"><title>39756&#45;&gt;57668</title>
<path fill="none" stroke="black" d="M1621.93,-721.111C1601.6,-740.302 1567.69,-772.312 1547.41,-791.454"/>
</g>
<!-- 40863 -->
<g id="node41" class="node"><title>40863</title>
<g id="a_node41"><a xlink:title="6th_week">
<ellipse fill="#c81d25" stroke="black" cx="54.467" cy="-79.6036" rx="32.4942" ry="18"/>
<text text-anchor="middle" x="54.467" y="-75.9036" font-family="Times,serif" font-size="14.00">40863</text>
</a>
</g>
</g>
<!-- 40863&#45;&gt;68147 -->
<g id="edge40" class="edge"><title>40863&#45;&gt;68147</title>
<path fill="none" stroke="black" d="M77.1115,-92.8729C106.721,-110.224 158.28,-140.436 187.778,-157.722"/>
</g>
<!-- 41261 -->
<g id="node43" class="node"><title>41261</title>
<g id="a_node43"><a xlink:title="3rd_week">
<ellipse fill="#ee9898" stroke="black" cx="928.33" cy="-1123.92" rx="32.4942" ry="18"/>
<text text-anchor="middle" x="928.33" y="-1120.22" font-family="Times,serif" font-size="14.00">41261</text>
</a>
</g>
</g>
<!-- 41261&#45;&gt;58692 -->
<g id="edge44" class="edge"><title>41261&#45;&gt;58692</title>
<path fill="none" stroke="black" d="M942.572,-1107.56C962.14,-1085.09 997.129,-1044.92 1016.63,-1022.52"/>
</g>
<!-- 46422 -->
<g id="node47" class="node"><title>46422</title>
<g id="a_node47"><a xlink:title="Day_0">
<ellipse fill="#e5dada" stroke="black" cx="1722.13" cy="-698.399" rx="32.4942" ry="18"/>
<text text-anchor="middle" x="1722.13" y="-694.699" font-family="Times,serif" font-size="14.00">46422</text>
</a>
</g>
</g>
<!-- 46422&#45;&gt;57668 -->
<g id="edge45" class="edge"><title>46422&#45;&gt;57668</title>
<path fill="none" stroke="black" d="M1699.41,-711.319C1662.55,-732.279 1590.15,-773.451 1553.31,-794.399"/>
</g>
<!-- 68590 -->
<g id="node66" class="node"><title>68590</title>
<g id="a_node66"><a xlink:title="6th_week">
<ellipse fill="#c81d25" stroke="black" cx="2208.08" cy="-1782.32" rx="32.4942" ry="18"/>
<text text-anchor="middle" x="2208.08" y="-1778.62" font-family="Times,serif" font-size="14.00">68590</text>
</a>
</g>
</g>
<!-- 50258&#45;&gt;68590 -->
<g id="edge16" class="edge"><title>50258&#45;&gt;68590</title>
<path fill="none" stroke="black" d="M2083.69,-1756.24C2110.87,-1761.94 2150.36,-1770.22 2177.52,-1775.91"/>
</g>
<!-- 50515 -->
<g id="node53" class="node"><title>50515</title>
<g id="a_node53"><a xlink:title="Day_0">
<ellipse fill="#e5dada" stroke="black" cx="1733.92" cy="-829.029" rx="32.4942" ry="18"/>
<text text-anchor="middle" x="1733.92" y="-825.329" font-family="Times,serif" font-size="14.00">50515</text>
</a>
</g>
</g>
<!-- 50515&#45;&gt;57668 -->
<g id="edge36" class="edge"><title>50515&#45;&gt;57668</title>
<path fill="none" stroke="black" d="M1701.71,-825.586C1663.64,-821.518 1600.68,-814.79 1562.68,-810.729"/>
</g>
<!-- 60905 -->
<g id="node61" class="node"><title>60905</title>
<g id="a_node61"><a xlink:title="Day_0">
<ellipse fill="#e5dada" stroke="black" cx="1737.24" cy="-763.793" rx="32.4942" ry="18"/>
<text text-anchor="middle" x="1737.24" y="-760.093" font-family="Times,serif" font-size="14.00">60905</text>
</a>
</g>
</g>
<!-- 57668&#45;&gt;60905 -->
<g id="edge13" class="edge"><title>57668&#45;&gt;60905</title>
<path fill="none" stroke="black" d="M1561.1,-800.883C1600.17,-792.657 1667.5,-778.479 1706.62,-770.24"/>
</g>
<!-- 64209 -->
<g id="node64" class="node"><title>64209</title>
<g id="a_node64"><a xlink:title="6th_week">
<ellipse fill="#c81d25" stroke="black" cx="118.695" cy="-18.4998" rx="32.4942" ry="18"/>
<text text-anchor="middle" x="118.695" y="-14.7998" font-family="Times,serif" font-size="14.00">64209</text>
</a>
</g>
</g>
<!-- 64209&#45;&gt;68147 -->
<g id="edge17" class="edge"><title>64209&#45;&gt;68147</title>
<path fill="none" stroke="black" d="M129.013,-35.6812C146.587,-64.9429 182.132,-124.129 199.776,-153.507"/>
</g>
<!-- 61447 -->
<g id="node69" class="node"><title>61447</title>
<g id="a_node69"><a xlink:title="6th_week">
<ellipse fill="#c81d25" stroke="black" cx="32.9896" cy="-166.07" rx="32.4942" ry="18"/>
<text text-anchor="middle" x="32.9896" y="-162.37" font-family="Times,serif" font-size="14.00">61447</text>
</a>
</g>
</g>
<!-- 68147&#45;&gt;61447 -->
<g id="edge51" class="edge"><title>68147&#45;&gt;61447</title>
<path fill="none" stroke="black" d="M177.694,-169.981C145.82,-169.119 97.4918,-167.813 65.5857,-166.951"/>
</g>
</g>
</svg>
