<?xml version="1.0" encoding="UTF-8" standalone="no"?>
<!DOCTYPE svg PUBLIC "-//W3C//DTD SVG 1.1//EN"
 "http://www.w3.org/Graphics/SVG/1.1/DTD/svg11.dtd">
<!-- Generated by graphviz version 2.38.0 (20140413.2041)
 -->
<!-- Title: %3 Pages: 1 -->
<svg width="1175pt" height="1131pt"
 viewBox="0.00 0.00 1175.00 1131.00" xmlns="http://www.w3.org/2000/svg" xmlns:xlink="http://www.w3.org/1999/xlink">
<g id="graph0" class="graph" transform="scale(1 1) rotate(0) translate(4 1127)">
<title>%3</title>
<polygon fill="white" stroke="none" points="-4,4 -4,-1127 1171,-1127 1171,4 -4,4"/>
<!-- 55 -->
<g id="node1" class="node"><title>55</title>
<g id="a_node1"><a xlink:title="Day_0">
<ellipse fill="#e5dada" stroke="black" cx="193.978" cy="-655.261" rx="27" ry="18"/>
<text text-anchor="middle" x="193.978" y="-651.561" font-family="Times,serif" font-size="14.00">55</text>
</a>
</g>
</g>
<!-- 4544 -->
<g id="node3" class="node"><title>4544</title>
<g id="a_node3"><a xlink:title="Day_0">
<ellipse fill="#e5dada" stroke="black" cx="285.991" cy="-725.623" rx="28.6953" ry="18"/>
<text text-anchor="middle" x="285.991" y="-721.923" font-family="Times,serif" font-size="14.00">4544</text>
</a>
</g>
</g>
<!-- 55&#45;&gt;4544 -->
<g id="edge30" class="edge"><title>55&#45;&gt;4544</title>
<path fill="none" stroke="black" d="M212.157,-669.163C228.183,-681.418 251.426,-699.192 267.535,-711.51"/>
</g>
<!-- 2207 -->
<g id="node2" class="node"><title>2207</title>
<g id="a_node2"><a xlink:title="Day_0">
<ellipse fill="#e5dada" stroke="black" cx="169.783" cy="-703.454" rx="28.6953" ry="18"/>
<text text-anchor="middle" x="169.783" y="-699.754" font-family="Times,serif" font-size="14.00">2207</text>
</a>
</g>
</g>
<!-- 2207&#45;&gt;4544 -->
<g id="edge56" class="edge"><title>2207&#45;&gt;4544</title>
<path fill="none" stroke="black" d="M197.323,-708.707C215.713,-712.216 239.814,-716.814 258.246,-720.33"/>
</g>
<!-- 11061 -->
<g id="node4" class="node"><title>11061</title>
<g id="a_node4"><a xlink:title="Day_0">
<ellipse fill="#e5dada" stroke="black" cx="403.989" cy="-777.91" rx="32.4942" ry="18"/>
<text text-anchor="middle" x="403.989" y="-774.21" font-family="Times,serif" font-size="14.00">11061</text>
</a>
</g>
</g>
<!-- 4544&#45;&gt;11061 -->
<g id="edge25" class="edge"><title>4544&#45;&gt;11061</title>
<path fill="none" stroke="black" d="M309.586,-736.078C329.494,-744.9 357.935,-757.503 378.39,-766.566"/>
</g>
<!-- 10108 -->
<g id="node13" class="node"><title>10108</title>
<g id="a_node13"><a xlink:title="Day_0">
<ellipse fill="#e5dada" stroke="black" cx="352.155" cy="-678.524" rx="32.4942" ry="18"/>
<text text-anchor="middle" x="352.155" y="-674.824" font-family="Times,serif" font-size="14.00">10108</text>
</a>
</g>
</g>
<!-- 11061&#45;&gt;10108 -->
<g id="edge23" class="edge"><title>11061&#45;&gt;10108</title>
<path fill="none" stroke="black" d="M394.96,-760.598C385.504,-742.468 370.736,-714.151 361.254,-695.97"/>
</g>
<!-- 11774 -->
<g id="node16" class="node"><title>11774</title>
<g id="a_node16"><a xlink:title="PRE">
<ellipse fill="#71a9f7" stroke="black" cx="593.023" cy="-810.854" rx="32.4942" ry="18"/>
<text text-anchor="middle" x="593.023" y="-807.154" font-family="Times,serif" font-size="14.00">11774</text>
</a>
</g>
</g>
<!-- 11061&#45;&gt;11774 -->
<g id="edge2" class="edge"><title>11061&#45;&gt;11774</title>
<path fill="none" stroke="black" d="M435.204,-783.35C470.229,-789.454 526.717,-799.298 561.761,-805.406"/>
</g>
<!-- 16507 -->
<g id="node19" class="node"><title>16507</title>
<g id="a_node19"><a xlink:title="Day_0">
<ellipse fill="#e5dada" stroke="black" cx="276.497" cy="-791.012" rx="32.4942" ry="18"/>
<text text-anchor="middle" x="276.497" y="-787.312" font-family="Times,serif" font-size="14.00">16507</text>
</a>
</g>
</g>
<!-- 11061&#45;&gt;16507 -->
<g id="edge9" class="edge"><title>11061&#45;&gt;16507</title>
<path fill="none" stroke="black" d="M371.817,-781.216C352.491,-783.202 327.984,-785.721 308.659,-787.707"/>
</g>
<!-- 24210 -->
<g id="node25" class="node"><title>24210</title>
<g id="a_node25"><a xlink:title="Day_0">
<ellipse fill="#e5dada" stroke="black" cx="308.972" cy="-835.705" rx="32.4942" ry="18"/>
<text text-anchor="middle" x="308.972" y="-832.005" font-family="Times,serif" font-size="14.00">24210</text>
</a>
</g>
</g>
<!-- 11061&#45;&gt;24210 -->
<g id="edge36" class="edge"><title>11061&#45;&gt;24210</title>
<path fill="none" stroke="black" d="M381.951,-791.314C366.601,-800.651 346.214,-813.052 330.89,-822.373"/>
</g>
<!-- 198 -->
<g id="node5" class="node"><title>198</title>
<g id="a_node5"><a xlink:title="Day_0">
<ellipse fill="#e5dada" stroke="black" cx="880.376" cy="-254.837" rx="27" ry="18"/>
<text text-anchor="middle" x="880.376" y="-251.137" font-family="Times,serif" font-size="14.00">198</text>
</a>
</g>
</g>
<!-- 6226 -->
<g id="node10" class="node"><title>6226</title>
<g id="a_node10"><a xlink:title="Day_0">
<ellipse fill="#e5dada" stroke="black" cx="943.524" cy="-148.503" rx="28.6953" ry="18"/>
<text text-anchor="middle" x="943.524" y="-144.803" font-family="Times,serif" font-size="14.00">6226</text>
</a>
</g>
</g>
<!-- 198&#45;&gt;6226 -->
<g id="edge5" class="edge"><title>198&#45;&gt;6226</title>
<path fill="none" stroke="black" d="M890.522,-237.753C902.306,-217.91 921.63,-185.37 933.404,-165.545"/>
</g>
<!-- 11750 -->
<g id="node15" class="node"><title>11750</title>
<g id="a_node15"><a xlink:title="Day_0">
<ellipse fill="#e5dada" stroke="black" cx="807.612" cy="-164.972" rx="32.4942" ry="18"/>
<text text-anchor="middle" x="807.612" y="-161.272" font-family="Times,serif" font-size="14.00">11750</text>
</a>
</g>
</g>
<!-- 198&#45;&gt;11750 -->
<g id="edge46" class="edge"><title>198&#45;&gt;11750</title>
<path fill="none" stroke="black" d="M867.368,-238.771C854.286,-222.616 834.215,-197.827 821,-181.507"/>
</g>
<!-- 16884 -->
<g id="node20" class="node"><title>16884</title>
<g id="a_node20"><a xlink:title="Day_0">
<ellipse fill="#e5dada" stroke="black" cx="826.723" cy="-393.932" rx="32.4942" ry="18"/>
<text text-anchor="middle" x="826.723" y="-390.232" font-family="Times,serif" font-size="14.00">16884</text>
</a>
</g>
</g>
<!-- 198&#45;&gt;16884 -->
<g id="edge28" class="edge"><title>198&#45;&gt;16884</title>
<path fill="none" stroke="black" d="M873.581,-272.454C863.317,-299.063 843.964,-349.236 833.633,-376.019"/>
</g>
<!-- 22146 -->
<g id="node23" class="node"><title>22146</title>
<g id="a_node23"><a xlink:title="PRE">
<ellipse fill="#71a9f7" stroke="black" cx="805.713" cy="-210.653" rx="32.4942" ry="18"/>
<text text-anchor="middle" x="805.713" y="-206.953" font-family="Times,serif" font-size="14.00">22146</text>
</a>
</g>
</g>
<!-- 198&#45;&gt;22146 -->
<g id="edge7" class="edge"><title>198&#45;&gt;22146</title>
<path fill="none" stroke="black" d="M859.974,-242.764C850.044,-236.887 838.085,-229.81 827.925,-223.798"/>
</g>
<!-- 26775 -->
<g id="node26" class="node"><title>26775</title>
<g id="a_node26"><a xlink:title="6th_week">
<ellipse fill="#c81d25" stroke="black" cx="992.378" cy="-250.789" rx="32.4942" ry="18"/>
<text text-anchor="middle" x="992.378" y="-247.089" font-family="Times,serif" font-size="14.00">26775</text>
</a>
</g>
</g>
<!-- 198&#45;&gt;26775 -->
<g id="edge49" class="edge"><title>198&#45;&gt;26775</title>
<path fill="none" stroke="black" d="M907.489,-253.857C923.286,-253.287 943.305,-252.563 959.936,-251.962"/>
</g>
<!-- 31852 -->
<g id="node29" class="node"><title>31852</title>
<g id="a_node29"><a xlink:title="Day_0">
<ellipse fill="#e5dada" stroke="black" cx="873.933" cy="-120.743" rx="32.4942" ry="18"/>
<text text-anchor="middle" x="873.933" y="-117.043" font-family="Times,serif" font-size="14.00">31852</text>
</a>
</g>
</g>
<!-- 198&#45;&gt;31852 -->
<g id="edge44" class="edge"><title>198&#45;&gt;31852</title>
<path fill="none" stroke="black" d="M879.507,-236.753C878.278,-211.16 876.042,-164.639 874.809,-138.969"/>
</g>
<!-- 5693 -->
<g id="node30" class="node"><title>5693</title>
<g id="a_node30"><a xlink:title="Day_0">
<ellipse fill="#e5dada" stroke="black" cx="986.849" cy="-206.333" rx="28.6953" ry="18"/>
<text text-anchor="middle" x="986.849" y="-202.633" font-family="Times,serif" font-size="14.00">5693</text>
</a>
</g>
</g>
<!-- 198&#45;&gt;5693 -->
<g id="edge26" class="edge"><title>198&#45;&gt;5693</title>
<path fill="none" stroke="black" d="M902.697,-244.669C920.502,-236.558 945.37,-225.23 963.452,-216.992"/>
</g>
<!-- 2621 -->
<g id="node6" class="node"><title>2621</title>
<g id="a_node6"><a xlink:title="Day_0">
<ellipse fill="#e5dada" stroke="black" cx="869.579" cy="-731.76" rx="28.6953" ry="18"/>
<text text-anchor="middle" x="869.579" y="-728.06" font-family="Times,serif" font-size="14.00">2621</text>
</a>
</g>
</g>
<!-- 30676 -->
<g id="node27" class="node"><title>30676</title>
<g id="a_node27"><a xlink:title="Day_0">
<ellipse fill="#e5dada" stroke="black" cx="755.275" cy="-738.102" rx="32.4942" ry="18"/>
<text text-anchor="middle" x="755.275" y="-734.402" font-family="Times,serif" font-size="14.00">30676</text>
</a>
</g>
</g>
<!-- 2621&#45;&gt;30676 -->
<g id="edge6" class="edge"><title>2621&#45;&gt;30676</title>
<path fill="none" stroke="black" d="M841.03,-733.344C824.896,-734.24 804.663,-735.362 787.903,-736.292"/>
</g>
<!-- 3922 -->
<g id="node7" class="node"><title>3922</title>
<g id="a_node7"><a xlink:title="Day_0">
<ellipse fill="#e5dada" stroke="black" cx="792.85" cy="-575.065" rx="28.6953" ry="18"/>
<text text-anchor="middle" x="792.85" y="-571.365" font-family="Times,serif" font-size="14.00">3922</text>
</a>
</g>
</g>
<!-- 3922&#45;&gt;16884 -->
<g id="edge41" class="edge"><title>3922&#45;&gt;16884</title>
<path fill="none" stroke="black" d="M796.221,-557.035C802.714,-522.316 816.883,-446.551 823.365,-411.889"/>
</g>
<!-- 3922&#45;&gt;30676 -->
<g id="edge12" class="edge"><title>3922&#45;&gt;30676</title>
<path fill="none" stroke="black" d="M788.685,-593.136C781.462,-624.475 766.694,-688.555 759.459,-719.951"/>
</g>
<!-- 5181 -->
<g id="node8" class="node"><title>5181</title>
<g id="a_node8"><a xlink:title="Day_0">
<ellipse fill="#e5dada" stroke="black" cx="644.872" cy="-713.068" rx="28.6953" ry="18"/>
<text text-anchor="middle" x="644.872" y="-709.368" font-family="Times,serif" font-size="14.00">5181</text>
</a>
</g>
</g>
<!-- 5641 -->
<g id="node9" class="node"><title>5641</title>
<g id="a_node9"><a xlink:title="PRE">
<ellipse fill="#71a9f7" stroke="black" cx="739.803" cy="-637.575" rx="28.6953" ry="18"/>
<text text-anchor="middle" x="739.803" y="-633.875" font-family="Times,serif" font-size="14.00">5641</text>
</a>
</g>
</g>
<!-- 5181&#45;&gt;5641 -->
<g id="edge18" class="edge"><title>5181&#45;&gt;5641</title>
<path fill="none" stroke="black" d="M662.728,-698.868C679.7,-685.371 705.082,-665.186 722.027,-651.711"/>
</g>
<!-- 5181&#45;&gt;11774 -->
<g id="edge20" class="edge"><title>5181&#45;&gt;11774</title>
<path fill="none" stroke="black" d="M635.603,-730.55C626.165,-748.349 611.621,-775.779 602.212,-793.523"/>
</g>
<!-- 11979 -->
<g id="node17" class="node"><title>11979</title>
<g id="a_node17"><a xlink:title="PRE">
<ellipse fill="#71a9f7" stroke="black" cx="846.195" cy="-622.907" rx="32.4942" ry="18"/>
<text text-anchor="middle" x="846.195" y="-619.207" font-family="Times,serif" font-size="14.00">11979</text>
</a>
</g>
</g>
<!-- 5641&#45;&gt;11979 -->
<g id="edge57" class="edge"><title>5641&#45;&gt;11979</title>
<path fill="none" stroke="black" d="M767.756,-633.721C782.04,-631.752 799.484,-629.347 814.292,-627.305"/>
</g>
<!-- 6968 -->
<g id="node11" class="node"><title>6968</title>
<g id="a_node11"><a xlink:title="Day_0">
<ellipse fill="#e5dada" stroke="black" cx="657.82" cy="-915.617" rx="28.6953" ry="18"/>
<text text-anchor="middle" x="657.82" y="-911.917" font-family="Times,serif" font-size="14.00">6968</text>
</a>
</g>
</g>
<!-- 6968&#45;&gt;11774 -->
<g id="edge38" class="edge"><title>6968&#45;&gt;11774</title>
<path fill="none" stroke="black" d="M647.409,-898.785C635.389,-879.351 615.723,-847.555 603.623,-827.992"/>
</g>
<!-- 18280 -->
<g id="node22" class="node"><title>18280</title>
<g id="a_node22"><a xlink:title="Day_0">
<ellipse fill="#e5dada" stroke="black" cx="719.536" cy="-1015.49" rx="32.4942" ry="18"/>
<text text-anchor="middle" x="719.536" y="-1011.79" font-family="Times,serif" font-size="14.00">18280</text>
</a>
</g>
</g>
<!-- 6968&#45;&gt;18280 -->
<g id="edge3" class="edge"><title>6968&#45;&gt;18280</title>
<path fill="none" stroke="black" d="M668.29,-932.558C679.57,-950.812 697.429,-979.711 708.808,-998.125"/>
</g>
<!-- 9659 -->
<g id="node12" class="node"><title>9659</title>
<g id="a_node12"><a xlink:title="Day_0">
<ellipse fill="#e5dada" stroke="black" cx="141.526" cy="-807.69" rx="28.6953" ry="18"/>
<text text-anchor="middle" x="141.526" y="-803.99" font-family="Times,serif" font-size="14.00">9659</text>
</a>
</g>
</g>
<!-- 9659&#45;&gt;16507 -->
<g id="edge33" class="edge"><title>9659&#45;&gt;16507</title>
<path fill="none" stroke="black" d="M169.82,-804.194C191.619,-801.5 221.767,-797.775 244.454,-794.972"/>
</g>
<!-- 31067 -->
<g id="node28" class="node"><title>31067</title>
<g id="a_node28"><a xlink:title="Day_0">
<ellipse fill="#e5dada" stroke="black" cx="32.7633" cy="-817.012" rx="32.4942" ry="18"/>
<text text-anchor="middle" x="32.7633" y="-813.312" font-family="Times,serif" font-size="14.00">31067</text>
</a>
</g>
</g>
<!-- 9659&#45;&gt;31067 -->
<g id="edge51" class="edge"><title>9659&#45;&gt;31067</title>
<path fill="none" stroke="black" d="M112.95,-810.139C98.2223,-811.401 80.2075,-812.945 64.9864,-814.25"/>
</g>
<!-- 10698 -->
<g id="node14" class="node"><title>10698</title>
<g id="a_node14"><a xlink:title="Day_0">
<ellipse fill="#e5dada" stroke="black" cx="487.693" cy="-774.967" rx="32.4942" ry="18"/>
<text text-anchor="middle" x="487.693" y="-771.267" font-family="Times,serif" font-size="14.00">10698</text>
</a>
</g>
</g>
<!-- 10698&#45;&gt;11774 -->
<g id="edge24" class="edge"><title>10698&#45;&gt;11774</title>
<path fill="none" stroke="black" d="M515.643,-784.49C531.001,-789.722 549.986,-796.191 565.308,-801.411"/>
</g>
<!-- 12668 -->
<g id="node18" class="node"><title>12668</title>
<g id="a_node18"><a xlink:title="PRE">
<ellipse fill="#71a9f7" stroke="black" cx="529.459" cy="-718.953" rx="32.4942" ry="18"/>
<text text-anchor="middle" x="529.459" y="-715.253" font-family="Times,serif" font-size="14.00">12668</text>
</a>
</g>
</g>
<!-- 11774&#45;&gt;12668 -->
<g id="edge47" class="edge"><title>11774&#45;&gt;12668</title>
<path fill="none" stroke="black" d="M581.364,-793.998C569.967,-777.519 552.704,-752.561 541.259,-736.013"/>
</g>
<!-- 17834 -->
<g id="node21" class="node"><title>17834</title>
<g id="a_node21"><a xlink:title="PRE">
<ellipse fill="#71a9f7" stroke="black" cx="684.714" cy="-783.53" rx="32.4942" ry="18"/>
<text text-anchor="middle" x="684.714" y="-779.83" font-family="Times,serif" font-size="14.00">17834</text>
</a>
</g>
</g>
<!-- 11774&#45;&gt;17834 -->
<g id="edge29" class="edge"><title>11774&#45;&gt;17834</title>
<path fill="none" stroke="black" d="M621.783,-802.283C632.707,-799.028 645.142,-795.323 656.056,-792.07"/>
</g>
<!-- 11774&#45;&gt;30676 -->
<g id="edge54" class="edge"><title>11774&#45;&gt;30676</title>
<path fill="none" stroke="black" d="M618.375,-799.486C648.767,-785.859 699.402,-763.155 729.834,-749.51"/>
</g>
<!-- 834 -->
<g id="node40" class="node"><title>834</title>
<g id="a_node40"><a xlink:title="Day_0">
<ellipse fill="#e5dada" stroke="black" cx="502.887" cy="-917.997" rx="27" ry="18"/>
<text text-anchor="middle" x="502.887" y="-914.297" font-family="Times,serif" font-size="14.00">834</text>
</a>
</g>
</g>
<!-- 11774&#45;&gt;834 -->
<g id="edge39" class="edge"><title>11774&#45;&gt;834</title>
<path fill="none" stroke="black" d="M578.939,-827.595C561.807,-847.959 533.099,-882.084 516.284,-902.072"/>
</g>
<!-- 6336 -->
<g id="node42" class="node"><title>6336</title>
<g id="a_node42"><a xlink:title="Day_0">
<ellipse fill="#e5dada" stroke="black" cx="474.026" cy="-867.114" rx="28.6953" ry="18"/>
<text text-anchor="middle" x="474.026" y="-863.414" font-family="Times,serif" font-size="14.00">6336</text>
</a>
</g>
</g>
<!-- 11774&#45;&gt;6336 -->
<g id="edge17" class="edge"><title>11774&#45;&gt;6336</title>
<path fill="none" stroke="black" d="M568.077,-822.648C547.086,-832.572 517.315,-846.647 496.923,-856.288"/>
</g>
<!-- 9485 -->
<g id="node43" class="node"><title>9485</title>
<g id="a_node43"><a xlink:title="Day_0">
<ellipse fill="#e5dada" stroke="black" cx="576.201" cy="-965.907" rx="28.6953" ry="18"/>
<text text-anchor="middle" x="576.201" y="-962.207" font-family="Times,serif" font-size="14.00">9485</text>
</a>
</g>
</g>
<!-- 11774&#45;&gt;9485 -->
<g id="edge37" class="edge"><title>11774&#45;&gt;9485</title>
<path fill="none" stroke="black" d="M591.06,-828.944C587.819,-858.821 581.384,-918.131 578.151,-947.932"/>
</g>
<!-- 16781 -->
<g id="node32" class="node"><title>16781</title>
<g id="a_node32"><a xlink:title="Day_0">
<ellipse fill="#e5dada" stroke="black" cx="961.727" cy="-376.087" rx="32.4942" ry="18"/>
<text text-anchor="middle" x="961.727" y="-372.387" font-family="Times,serif" font-size="14.00">16781</text>
</a>
</g>
</g>
<!-- 16884&#45;&gt;16781 -->
<g id="edge4" class="edge"><title>16884&#45;&gt;16781</title>
<path fill="none" stroke="black" d="M858.375,-389.748C879.886,-386.905 908.238,-383.157 929.805,-380.306"/>
</g>
<!-- 26898 -->
<g id="node34" class="node"><title>26898</title>
<g id="a_node34"><a xlink:title="Day_0">
<ellipse fill="#e5dada" stroke="black" cx="738.031" cy="-268.753" rx="32.4942" ry="18"/>
<text text-anchor="middle" x="738.031" y="-265.053" font-family="Times,serif" font-size="14.00">26898</text>
</a>
</g>
</g>
<!-- 16884&#45;&gt;26898 -->
<g id="edge50" class="edge"><title>16884&#45;&gt;26898</title>
<path fill="none" stroke="black" d="M814.762,-377.049C797.834,-353.158 767.065,-309.73 750.086,-285.767"/>
</g>
<!-- 3478 -->
<g id="node45" class="node"><title>3478</title>
<g id="a_node45"><a xlink:title="PRE">
<ellipse fill="#71a9f7" stroke="black" cx="716.274" cy="-688.642" rx="28.6953" ry="18"/>
<text text-anchor="middle" x="716.274" y="-684.942" font-family="Times,serif" font-size="14.00">3478</text>
</a>
</g>
</g>
<!-- 17834&#45;&gt;3478 -->
<g id="edge42" class="edge"><title>17834&#45;&gt;3478</title>
<path fill="none" stroke="black" d="M690.651,-765.683C696.293,-748.718 704.731,-723.348 710.364,-706.41"/>
</g>
<!-- 22722 -->
<g id="node24" class="node"><title>22722</title>
<g id="a_node24"><a xlink:title="Day_0">
<ellipse fill="#e5dada" stroke="black" cx="821.712" cy="-855.532" rx="32.4942" ry="18"/>
<text text-anchor="middle" x="821.712" y="-851.832" font-family="Times,serif" font-size="14.00">22722</text>
</a>
</g>
</g>
<!-- 22722&#45;&gt;30676 -->
<g id="edge43" class="edge"><title>22722&#45;&gt;30676</title>
<path fill="none" stroke="black" d="M811.909,-838.205C799.348,-816.003 777.699,-777.737 765.118,-755.501"/>
</g>
<!-- 22477 -->
<g id="node38" class="node"><title>22477</title>
<g id="a_node38"><a xlink:title="Day_0">
<ellipse fill="#e5dada" stroke="black" cx="865.213" cy="-960.2" rx="32.4942" ry="18"/>
<text text-anchor="middle" x="865.213" y="-956.5" font-family="Times,serif" font-size="14.00">22477</text>
</a>
</g>
</g>
<!-- 22722&#45;&gt;22477 -->
<g id="edge21" class="edge"><title>22722&#45;&gt;22477</title>
<path fill="none" stroke="black" d="M829.092,-873.288C837.091,-892.535 849.784,-923.077 857.798,-942.358"/>
</g>
<!-- 2726 -->
<g id="node36" class="node"><title>2726</title>
<g id="a_node36"><a xlink:title="Day_0">
<ellipse fill="#e5dada" stroke="black" cx="896.899" cy="-805.668" rx="28.6953" ry="18"/>
<text text-anchor="middle" x="896.899" y="-801.968" font-family="Times,serif" font-size="14.00">2726</text>
</a>
</g>
</g>
<!-- 30676&#45;&gt;2726 -->
<g id="edge11" class="edge"><title>30676&#45;&gt;2726</title>
<path fill="none" stroke="black" d="M779.944,-749.871C806.414,-762.499 848.12,-782.396 873.919,-794.704"/>
</g>
<!-- 13425 -->
<g id="node31" class="node"><title>13425</title>
<g id="a_node31"><a xlink:title="Day_0">
<ellipse fill="#e5dada" stroke="black" cx="1084.58" cy="-353.081" rx="32.4942" ry="18"/>
<text text-anchor="middle" x="1084.58" y="-349.381" font-family="Times,serif" font-size="14.00">13425</text>
</a>
</g>
</g>
<!-- 13425&#45;&gt;16781 -->
<g id="edge32" class="edge"><title>13425&#45;&gt;16781</title>
<path fill="none" stroke="black" d="M1053.58,-358.887C1034.95,-362.374 1011.34,-366.796 992.718,-370.284"/>
</g>
<!-- 19989 -->
<g id="node33" class="node"><title>19989</title>
<g id="a_node33"><a xlink:title="Day_0">
<ellipse fill="#e5dada" stroke="black" cx="1064.55" cy="-306.863" rx="32.4942" ry="18"/>
<text text-anchor="middle" x="1064.55" y="-303.163" font-family="Times,serif" font-size="14.00">19989</text>
</a>
</g>
</g>
<!-- 16781&#45;&gt;19989 -->
<g id="edge19" class="edge"><title>16781&#45;&gt;19989</title>
<path fill="none" stroke="black" d="M982.535,-362.079C1000.37,-350.069 1025.94,-332.855 1043.77,-320.851"/>
</g>
<!-- 28026 -->
<g id="node35" class="node"><title>28026</title>
<g id="a_node35"><a xlink:title="Day_0">
<ellipse fill="#e5dada" stroke="black" cx="1079.56" cy="-407.097" rx="32.4942" ry="18"/>
<text text-anchor="middle" x="1079.56" y="-403.397" font-family="Times,serif" font-size="14.00">28026</text>
</a>
</g>
</g>
<!-- 16781&#45;&gt;28026 -->
<g id="edge48" class="edge"><title>16781&#45;&gt;28026</title>
<path fill="none" stroke="black" d="M991.157,-383.832C1009.15,-388.568 1032.09,-394.606 1050.1,-399.343"/>
</g>
<!-- 30215 -->
<g id="node46" class="node"><title>30215</title>
<g id="a_node46"><a xlink:title="Day_0">
<ellipse fill="#e5dada" stroke="black" cx="637.082" cy="-176.3" rx="32.4942" ry="18"/>
<text text-anchor="middle" x="637.082" y="-172.6" font-family="Times,serif" font-size="14.00">30215</text>
</a>
</g>
</g>
<!-- 26898&#45;&gt;30215 -->
<g id="edge13" class="edge"><title>26898&#45;&gt;30215</title>
<path fill="none" stroke="black" d="M720.906,-253.07C702.23,-235.966 672.529,-208.764 653.953,-191.752"/>
</g>
<!-- 23034 -->
<g id="node47" class="node"><title>23034</title>
<g id="a_node47"><a xlink:title="Day_0">
<ellipse fill="#e5dada" stroke="black" cx="705.402" cy="-125.159" rx="32.4942" ry="18"/>
<text text-anchor="middle" x="705.402" y="-121.459" font-family="Times,serif" font-size="14.00">23034</text>
</a>
</g>
</g>
<!-- 26898&#45;&gt;23034 -->
<g id="edge52" class="edge"><title>26898&#45;&gt;23034</title>
<path fill="none" stroke="black" d="M733.964,-250.857C727.712,-223.34 715.803,-170.932 709.52,-143.28"/>
</g>
<!-- 30504 -->
<g id="node48" class="node"><title>30504</title>
<g id="a_node48"><a xlink:title="Day_0">
<ellipse fill="#e5dada" stroke="black" cx="628.763" cy="-229.667" rx="32.4942" ry="18"/>
<text text-anchor="middle" x="628.763" y="-225.967" font-family="Times,serif" font-size="14.00">30504</text>
</a>
</g>
</g>
<!-- 26898&#45;&gt;30504 -->
<g id="edge55" class="edge"><title>26898&#45;&gt;30504</title>
<path fill="none" stroke="black" d="M710.458,-258.89C693.894,-252.965 672.89,-245.451 656.327,-239.527"/>
</g>
<!-- 10427 -->
<g id="node37" class="node"><title>10427</title>
<g id="a_node37"><a xlink:title="Day_0">
<ellipse fill="#e5dada" stroke="black" cx="1016.37" cy="-816.931" rx="32.4942" ry="18"/>
<text text-anchor="middle" x="1016.37" y="-813.231" font-family="Times,serif" font-size="14.00">10427</text>
</a>
</g>
</g>
<!-- 2726&#45;&gt;10427 -->
<g id="edge53" class="edge"><title>2726&#45;&gt;10427</title>
<path fill="none" stroke="black" d="M925.213,-808.337C942.878,-810.002 965.668,-812.151 984.041,-813.883"/>
</g>
<!-- 22940 -->
<g id="node39" class="node"><title>22940</title>
<g id="a_node39"><a xlink:title="Day_0">
<ellipse fill="#e5dada" stroke="black" cx="991.758" cy="-861.119" rx="32.4942" ry="18"/>
<text text-anchor="middle" x="991.758" y="-857.419" font-family="Times,serif" font-size="14.00">22940</text>
</a>
</g>
</g>
<!-- 2726&#45;&gt;22940 -->
<g id="edge35" class="edge"><title>2726&#45;&gt;22940</title>
<path fill="none" stroke="black" d="M917.952,-817.974C933.126,-826.844 953.581,-838.802 969.109,-847.879"/>
</g>
<!-- 13863 -->
<g id="node49" class="node"><title>13863</title>
<g id="a_node49"><a xlink:title="Day_0">
<ellipse fill="#e5dada" stroke="black" cx="938.32" cy="-907.957" rx="32.4942" ry="18"/>
<text text-anchor="middle" x="938.32" y="-904.257" font-family="Times,serif" font-size="14.00">13863</text>
</a>
</g>
</g>
<!-- 2726&#45;&gt;13863 -->
<g id="edge8" class="edge"><title>2726&#45;&gt;13863</title>
<path fill="none" stroke="black" d="M904.114,-823.485C911.717,-842.259 923.616,-871.646 931.187,-890.344"/>
</g>
<!-- 18009 -->
<g id="node50" class="node"><title>18009</title>
<g id="a_node50"><a xlink:title="Day_0">
<ellipse fill="#e5dada" stroke="black" cx="1134.6" cy="-857.296" rx="32.4942" ry="18"/>
<text text-anchor="middle" x="1134.6" y="-853.596" font-family="Times,serif" font-size="14.00">18009</text>
</a>
</g>
</g>
<!-- 10427&#45;&gt;18009 -->
<g id="edge27" class="edge"><title>10427&#45;&gt;18009</title>
<path fill="none" stroke="black" d="M1044.09,-826.395C1062.93,-832.826 1087.76,-841.303 1106.64,-847.752"/>
</g>
<!-- 604 -->
<g id="node51" class="node"><title>604</title>
<g id="a_node51"><a xlink:title="Day_0">
<ellipse fill="#e5dada" stroke="black" cx="430.929" cy="-1007.94" rx="27" ry="18"/>
<text text-anchor="middle" x="430.929" y="-1004.24" font-family="Times,serif" font-size="14.00">604</text>
</a>
</g>
</g>
<!-- 834&#45;&gt;604 -->
<g id="edge31" class="edge"><title>834&#45;&gt;604</title>
<path fill="none" stroke="black" d="M490.022,-934.076C476.924,-950.447 456.74,-975.677 443.682,-991.997"/>
</g>
<!-- 23145 -->
<g id="node52" class="node"><title>23145</title>
<g id="a_node52"><a xlink:title="Day_0">
<ellipse fill="#e5dada" stroke="black" cx="584.769" cy="-915.504" rx="32.4942" ry="18"/>
<text text-anchor="middle" x="584.769" y="-911.804" font-family="Times,serif" font-size="14.00">23145</text>
</a>
</g>
</g>
<!-- 834&#45;&gt;23145 -->
<g id="edge16" class="edge"><title>834&#45;&gt;23145</title>
<path fill="none" stroke="black" d="M530.152,-917.167C537.224,-916.951 544.91,-916.717 552.223,-916.495"/>
</g>
<!-- 1445 -->
<g id="node41" class="node"><title>1445</title>
<g id="a_node41"><a xlink:title="Day_0">
<ellipse fill="#e5dada" stroke="black" cx="386.215" cy="-924.576" rx="28.6953" ry="18"/>
<text text-anchor="middle" x="386.215" y="-920.876" font-family="Times,serif" font-size="14.00">1445</text>
</a>
</g>
</g>
<!-- 1445&#45;&gt;6336 -->
<g id="edge40" class="edge"><title>1445&#45;&gt;6336</title>
<path fill="none" stroke="black" d="M406.141,-911.537C420.512,-902.133 439.827,-889.493 454.179,-880.101"/>
</g>
<!-- 22126 -->
<g id="node44" class="node"><title>22126</title>
<g id="a_node44"><a xlink:title="Day_0">
<ellipse fill="#e5dada" stroke="black" cx="644.824" cy="-1058.9" rx="32.4942" ry="18"/>
<text text-anchor="middle" x="644.824" y="-1055.2" font-family="Times,serif" font-size="14.00">22126</text>
</a>
</g>
</g>
<!-- 9485&#45;&gt;22126 -->
<g id="edge1" class="edge"><title>9485&#45;&gt;22126</title>
<path fill="none" stroke="black" d="M588.47,-982.532C600.883,-999.353 619.972,-1025.22 632.43,-1042.1"/>
</g>
<!-- 3604 -->
<g id="node53" class="node"><title>3604</title>
<g id="a_node53"><a xlink:title="Day_0">
<ellipse fill="#e5dada" stroke="black" cx="497.479" cy="-1035.92" rx="28.6953" ry="18"/>
<text text-anchor="middle" x="497.479" y="-1032.22" font-family="Times,serif" font-size="14.00">3604</text>
</a>
</g>
</g>
<!-- 9485&#45;&gt;3604 -->
<g id="edge45" class="edge"><title>9485&#45;&gt;3604</title>
<path fill="none" stroke="black" d="M559.506,-980.755C546.147,-992.637 527.503,-1009.22 514.15,-1021.09"/>
</g>
<!-- 21423 -->
<g id="node54" class="node"><title>21423</title>
<g id="a_node54"><a xlink:title="Day_0">
<ellipse fill="#e5dada" stroke="black" cx="560.029" cy="-1085.63" rx="32.4942" ry="18"/>
<text text-anchor="middle" x="560.029" y="-1081.93" font-family="Times,serif" font-size="14.00">21423</text>
</a>
</g>
</g>
<!-- 9485&#45;&gt;21423 -->
<g id="edge15" class="edge"><title>9485&#45;&gt;21423</title>
<path fill="none" stroke="black" d="M573.745,-984.09C570.688,-1006.72 565.499,-1045.14 562.455,-1067.66"/>
</g>
<!-- 23207 -->
<g id="node55" class="node"><title>23207</title>
<g id="a_node55"><a xlink:title="Day_0">
<ellipse fill="#e5dada" stroke="black" cx="556.559" cy="-96.7095" rx="32.4942" ry="18"/>
<text text-anchor="middle" x="556.559" y="-93.0095" font-family="Times,serif" font-size="14.00">23207</text>
</a>
</g>
</g>
<!-- 30215&#45;&gt;23207 -->
<g id="edge10" class="edge"><title>30215&#45;&gt;23207</title>
<path fill="none" stroke="black" d="M621.173,-160.576C607.148,-146.713 586.807,-126.608 572.71,-112.674"/>
</g>
<!-- 525 -->
<g id="node56" class="node"><title>525</title>
<g id="a_node56"><a xlink:title="Day_0">
<ellipse fill="#e5dada" stroke="black" cx="716.002" cy="-17.6307" rx="27" ry="18"/>
<text text-anchor="middle" x="716.002" y="-13.9307" font-family="Times,serif" font-size="14.00">525</text>
</a>
</g>
</g>
<!-- 23034&#45;&gt;525 -->
<g id="edge22" class="edge"><title>23034&#45;&gt;525</title>
<path fill="none" stroke="black" d="M707.2,-106.918C709.161,-87.0251 712.28,-55.3881 714.23,-35.602"/>
</g>
<!-- 25889 -->
<g id="node57" class="node"><title>25889</title>
<g id="a_node57"><a xlink:title="Day_0">
<ellipse fill="#e5dada" stroke="black" cx="642.097" cy="-32.0521" rx="32.4942" ry="18"/>
<text text-anchor="middle" x="642.097" y="-28.3521" font-family="Times,serif" font-size="14.00">25889</text>
</a>
</g>
</g>
<!-- 23034&#45;&gt;25889 -->
<g id="edge34" class="edge"><title>23034&#45;&gt;25889</title>
<path fill="none" stroke="black" d="M693.791,-108.081C682.368,-91.282 665.031,-65.7829 653.634,-49.021"/>
</g>
<!-- 31788 -->
<g id="node58" class="node"><title>31788</title>
<g id="a_node58"><a xlink:title="Day_0">
<ellipse fill="#e5dada" stroke="black" cx="356.694" cy="-1104.53" rx="32.4942" ry="18"/>
<text text-anchor="middle" x="356.694" y="-1100.83" font-family="Times,serif" font-size="14.00">31788</text>
</a>
</g>
</g>
<!-- 604&#45;&gt;31788 -->
<g id="edge14" class="edge"><title>604&#45;&gt;31788</title>
<path fill="none" stroke="black" d="M418.336,-1024.32C404.768,-1041.98 383.286,-1069.93 369.598,-1087.74"/>
</g>
</g>
</svg>
