<?xml version="1.0" encoding="UTF-8" standalone="no"?>
<!DOCTYPE svg PUBLIC "-//W3C//DTD SVG 1.1//EN"
 "http://www.w3.org/Graphics/SVG/1.1/DTD/svg11.dtd">
<!-- Generated by graphviz version 2.38.0 (20140413.2041)
 -->
<!-- Title: %3 Pages: 1 -->
<svg width="1770pt" height="2075pt"
 viewBox="0.00 0.00 1770.00 2075.00" xmlns="http://www.w3.org/2000/svg" xmlns:xlink="http://www.w3.org/1999/xlink">
<g id="graph0" class="graph" transform="scale(1 1) rotate(0) translate(4 2071)">
<title>%3</title>
<polygon fill="white" stroke="none" points="-4,4 -4,-2071 1766,-2071 1766,4 -4,4"/>
<!-- 184 -->
<g id="node1" class="node"><title>184</title>
<g id="a_node1"><a xlink:title="3rd_week">
<ellipse fill="#ee9898" stroke="black" cx="170.786" cy="-18.0142" rx="27" ry="18"/>
<text text-anchor="middle" x="170.786" y="-14.3142" font-family="Times,serif" font-size="14.00">184</text>
</a>
</g>
</g>
<!-- 12297 -->
<g id="node27" class="node"><title>12297</title>
<g id="a_node27"><a xlink:title="Day_0">
<ellipse fill="#e5dada" stroke="black" cx="268.669" cy="-139.054" rx="32.4942" ry="18"/>
<text text-anchor="middle" x="268.669" y="-135.354" font-family="Times,serif" font-size="14.00">12297</text>
</a>
</g>
</g>
<!-- 184&#45;&gt;12297 -->
<g id="edge14" class="edge"><title>184&#45;&gt;12297</title>
<path fill="none" stroke="black" d="M183.784,-34.0873C202.402,-57.1092 236.484,-99.2552 255.303,-122.526"/>
</g>
<!-- 223 -->
<g id="node2" class="node"><title>223</title>
<g id="a_node2"><a xlink:title="Day_0">
<ellipse fill="#e5dada" stroke="black" cx="307.238" cy="-269.161" rx="27" ry="18"/>
<text text-anchor="middle" x="307.238" y="-265.461" font-family="Times,serif" font-size="14.00">223</text>
</a>
</g>
</g>
<!-- 6459 -->
<g id="node15" class="node"><title>6459</title>
<g id="a_node15"><a xlink:title="Day_0">
<ellipse fill="#e5dada" stroke="black" cx="415.734" cy="-301.758" rx="28.6953" ry="18"/>
<text text-anchor="middle" x="415.734" y="-298.058" font-family="Times,serif" font-size="14.00">6459</text>
</a>
</g>
</g>
<!-- 223&#45;&gt;6459 -->
<g id="edge42" class="edge"><title>223&#45;&gt;6459</title>
<path fill="none" stroke="black" d="M331.858,-276.558C349.114,-281.742 372.139,-288.66 389.699,-293.936"/>
</g>
<!-- 1841 -->
<g id="node3" class="node"><title>1841</title>
<g id="a_node3"><a xlink:title="Day_0">
<ellipse fill="#e5dada" stroke="black" cx="610.241" cy="-1036.81" rx="28.6953" ry="18"/>
<text text-anchor="middle" x="610.241" y="-1033.11" font-family="Times,serif" font-size="14.00">1841</text>
</a>
</g>
</g>
<!-- 9372 -->
<g id="node20" class="node"><title>9372</title>
<g id="a_node20"><a xlink:title="Day_0">
<ellipse fill="#e5dada" stroke="black" cx="731.162" cy="-1108.61" rx="28.6953" ry="18"/>
<text text-anchor="middle" x="731.162" y="-1104.91" font-family="Times,serif" font-size="14.00">9372</text>
</a>
</g>
</g>
<!-- 1841&#45;&gt;9372 -->
<g id="edge58" class="edge"><title>1841&#45;&gt;9372</title>
<path fill="none" stroke="black" d="M631.304,-1049.32C653.498,-1062.5 688.238,-1083.12 710.34,-1096.25"/>
</g>
<!-- 3764 -->
<g id="node4" class="node"><title>3764</title>
<g id="a_node4"><a xlink:title="Day_0">
<ellipse fill="#e5dada" stroke="black" cx="421.737" cy="-115.444" rx="28.6953" ry="18"/>
<text text-anchor="middle" x="421.737" y="-111.744" font-family="Times,serif" font-size="14.00">3764</text>
</a>
</g>
</g>
<!-- 3764&#45;&gt;6459 -->
<g id="edge51" class="edge"><title>3764&#45;&gt;6459</title>
<path fill="none" stroke="black" d="M421.151,-133.648C420,-169.358 417.46,-248.206 416.314,-283.755"/>
</g>
<!-- 3930 -->
<g id="node5" class="node"><title>3930</title>
<g id="a_node5"><a xlink:title="Day_0">
<ellipse fill="#e5dada" stroke="black" cx="434.396" cy="-177.857" rx="28.6953" ry="18"/>
<text text-anchor="middle" x="434.396" y="-174.157" font-family="Times,serif" font-size="14.00">3930</text>
</a>
</g>
</g>
<!-- 3930&#45;&gt;6459 -->
<g id="edge46" class="edge"><title>3930&#45;&gt;6459</title>
<path fill="none" stroke="black" d="M431.683,-195.873C428.144,-219.364 421.991,-260.219 418.451,-283.72"/>
</g>
<!-- 3979 -->
<g id="node6" class="node"><title>3979</title>
<g id="a_node6"><a xlink:title="Day_0">
<ellipse fill="#e5dada" stroke="black" cx="1217.96" cy="-867.932" rx="28.6953" ry="18"/>
<text text-anchor="middle" x="1217.96" y="-864.232" font-family="Times,serif" font-size="14.00">3979</text>
</a>
</g>
</g>
<!-- 4395 -->
<g id="node10" class="node"><title>4395</title>
<g id="a_node10"><a xlink:title="Day_0">
<ellipse fill="#e5dada" stroke="black" cx="1179.02" cy="-1052.94" rx="28.6953" ry="18"/>
<text text-anchor="middle" x="1179.02" y="-1049.24" font-family="Times,serif" font-size="14.00">4395</text>
</a>
</g>
</g>
<!-- 3979&#45;&gt;4395 -->
<g id="edge25" class="edge"><title>3979&#45;&gt;4395</title>
<path fill="none" stroke="black" d="M1214.16,-886.008C1206.7,-921.467 1190.22,-999.761 1182.79,-1035.06"/>
</g>
<!-- 5760 -->
<g id="node14" class="node"><title>5760</title>
<g id="a_node14"><a xlink:title="Day_0">
<ellipse fill="#e5dada" stroke="black" cx="1137.3" cy="-750.456" rx="28.6953" ry="18"/>
<text text-anchor="middle" x="1137.3" y="-746.756" font-family="Times,serif" font-size="14.00">5760</text>
</a>
</g>
</g>
<!-- 3979&#45;&gt;5760 -->
<g id="edge44" class="edge"><title>3979&#45;&gt;5760</title>
<path fill="none" stroke="black" d="M1206.58,-851.35C1191.29,-829.087 1164.28,-789.748 1148.89,-767.335"/>
</g>
<!-- 9978 -->
<g id="node22" class="node"><title>9978</title>
<g id="a_node22"><a xlink:title="Day_0">
<ellipse fill="#e5dada" stroke="black" cx="1211.62" cy="-695.312" rx="28.6953" ry="18"/>
<text text-anchor="middle" x="1211.62" y="-691.612" font-family="Times,serif" font-size="14.00">9978</text>
</a>
</g>
</g>
<!-- 3979&#45;&gt;9978 -->
<g id="edge30" class="edge"><title>3979&#45;&gt;9978</title>
<path fill="none" stroke="black" d="M1217.3,-849.785C1216.08,-816.632 1213.5,-746.64 1212.29,-713.475"/>
</g>
<!-- 11253 -->
<g id="node36" class="node"><title>11253</title>
<g id="a_node36"><a xlink:title="Day_0">
<ellipse fill="#e5dada" stroke="black" cx="1288.07" cy="-716.547" rx="32.4942" ry="18"/>
<text text-anchor="middle" x="1288.07" y="-712.847" font-family="Times,serif" font-size="14.00">11253</text>
</a>
</g>
</g>
<!-- 3979&#45;&gt;11253 -->
<g id="edge43" class="edge"><title>3979&#45;&gt;11253</title>
<path fill="none" stroke="black" d="M1226.01,-850.566C1239.46,-821.52 1266.37,-763.398 1279.91,-734.176"/>
</g>
<!-- 12497 -->
<g id="node50" class="node"><title>12497</title>
<g id="a_node50"><a xlink:title="Day_0">
<ellipse fill="#e5dada" stroke="black" cx="1347.24" cy="-772.277" rx="32.4942" ry="18"/>
<text text-anchor="middle" x="1347.24" y="-768.577" font-family="Times,serif" font-size="14.00">12497</text>
</a>
</g>
</g>
<!-- 3979&#45;&gt;12497 -->
<g id="edge7" class="edge"><title>3979&#45;&gt;12497</title>
<path fill="none" stroke="black" d="M1236.76,-854.023C1260.99,-836.095 1302.93,-805.066 1327.57,-786.83"/>
</g>
<!-- 4010 -->
<g id="node7" class="node"><title>4010</title>
<g id="a_node7"><a xlink:title="Day_0">
<ellipse fill="#e5dada" stroke="black" cx="233.754" cy="-285.343" rx="28.6953" ry="18"/>
<text text-anchor="middle" x="233.754" y="-281.643" font-family="Times,serif" font-size="14.00">4010</text>
</a>
</g>
</g>
<!-- 4010&#45;&gt;6459 -->
<g id="edge22" class="edge"><title>4010&#45;&gt;6459</title>
<path fill="none" stroke="black" d="M262.188,-287.908C296.276,-290.982 353.067,-296.105 387.2,-299.184"/>
</g>
<!-- 4335 -->
<g id="node8" class="node"><title>4335</title>
<g id="a_node8"><a xlink:title="Day_0">
<ellipse fill="#e5dada" stroke="black" cx="351.001" cy="-206.076" rx="28.6953" ry="18"/>
<text text-anchor="middle" x="351.001" y="-202.376" font-family="Times,serif" font-size="14.00">4335</text>
</a>
</g>
</g>
<!-- 4335&#45;&gt;6459 -->
<g id="edge53" class="edge"><title>4335&#45;&gt;6459</title>
<path fill="none" stroke="black" d="M362.277,-222.743C374.086,-240.198 392.529,-267.458 404.37,-284.962"/>
</g>
<!-- 4380 -->
<g id="node9" class="node"><title>4380</title>
<g id="a_node9"><a xlink:title="Day_0">
<ellipse fill="#e5dada" stroke="black" cx="681.584" cy="-1257.71" rx="28.6953" ry="18"/>
<text text-anchor="middle" x="681.584" y="-1254.01" font-family="Times,serif" font-size="14.00">4380</text>
</a>
</g>
</g>
<!-- 4380&#45;&gt;9372 -->
<g id="edge60" class="edge"><title>4380&#45;&gt;9372</title>
<path fill="none" stroke="black" d="M687.466,-1240.02C697.007,-1211.33 715.75,-1154.96 725.287,-1126.28"/>
</g>
<!-- 5190 -->
<g id="node12" class="node"><title>5190</title>
<g id="a_node12"><a xlink:title="Day_0">
<ellipse fill="#e5dada" stroke="black" cx="901.272" cy="-976.127" rx="28.6953" ry="18"/>
<text text-anchor="middle" x="901.272" y="-972.427" font-family="Times,serif" font-size="14.00">5190</text>
</a>
</g>
</g>
<!-- 4395&#45;&gt;5190 -->
<g id="edge10" class="edge"><title>4395&#45;&gt;5190</title>
<path fill="none" stroke="black" d="M1152.64,-1045.64C1099.56,-1030.96 980.412,-998.012 927.476,-983.374"/>
</g>
<!-- 6643 -->
<g id="node16" class="node"><title>6643</title>
<g id="a_node16"><a xlink:title="Day_0">
<ellipse fill="#e5dada" stroke="black" cx="1075.94" cy="-1140.58" rx="28.6953" ry="18"/>
<text text-anchor="middle" x="1075.94" y="-1136.88" font-family="Times,serif" font-size="14.00">6643</text>
</a>
</g>
</g>
<!-- 4395&#45;&gt;6643 -->
<g id="edge52" class="edge"><title>4395&#45;&gt;6643</title>
<path fill="none" stroke="black" d="M1162,-1067.41C1142.9,-1083.65 1112.1,-1109.84 1092.98,-1126.08"/>
</g>
<!-- 9627 -->
<g id="node21" class="node"><title>9627</title>
<g id="a_node21"><a xlink:title="Day_0">
<ellipse fill="#e5dada" stroke="black" cx="1382.66" cy="-1140.21" rx="28.6953" ry="18"/>
<text text-anchor="middle" x="1382.66" y="-1136.51" font-family="Times,serif" font-size="14.00">9627</text>
</a>
</g>
</g>
<!-- 4395&#45;&gt;9627 -->
<g id="edge24" class="edge"><title>4395&#45;&gt;9627</title>
<path fill="none" stroke="black" d="M1202.78,-1063.12C1241.92,-1079.89 1319.5,-1113.14 1358.74,-1129.96"/>
</g>
<!-- 7011 -->
<g id="node34" class="node"><title>7011</title>
<g id="a_node34"><a xlink:title="Day_0">
<ellipse fill="#e5dada" stroke="black" cx="1178.44" cy="-1190.82" rx="28.6953" ry="18"/>
<text text-anchor="middle" x="1178.44" y="-1187.12" font-family="Times,serif" font-size="14.00">7011</text>
</a>
</g>
</g>
<!-- 4395&#45;&gt;7011 -->
<g id="edge12" class="edge"><title>4395&#45;&gt;7011</title>
<path fill="none" stroke="black" d="M1178.95,-1070.96C1178.84,-1097.39 1178.63,-1146.36 1178.51,-1172.79"/>
</g>
<!-- 9515 -->
<g id="node35" class="node"><title>9515</title>
<g id="a_node35"><a xlink:title="Day_0">
<ellipse fill="#e5dada" stroke="black" cx="1254.49" cy="-1305.58" rx="28.6953" ry="18"/>
<text text-anchor="middle" x="1254.49" y="-1301.88" font-family="Times,serif" font-size="14.00">9515</text>
</a>
</g>
</g>
<!-- 4395&#45;&gt;9515 -->
<g id="edge54" class="edge"><title>4395&#45;&gt;9515</title>
<path fill="none" stroke="black" d="M1184.33,-1070.7C1198.19,-1117.09 1235.34,-1241.47 1249.19,-1287.83"/>
</g>
<!-- 7076 -->
<g id="node48" class="node"><title>7076</title>
<g id="a_node48"><a xlink:title="Day_0">
<ellipse fill="#e5dada" stroke="black" cx="1374.71" cy="-980.679" rx="28.6953" ry="18"/>
<text text-anchor="middle" x="1374.71" y="-976.979" font-family="Times,serif" font-size="14.00">7076</text>
</a>
</g>
</g>
<!-- 4395&#45;&gt;7076 -->
<g id="edge15" class="edge"><title>4395&#45;&gt;7076</title>
<path fill="none" stroke="black" d="M1203.81,-1043.78C1241.35,-1029.92 1312.22,-1003.75 1349.82,-989.87"/>
</g>
<!-- 4633 -->
<g id="node11" class="node"><title>4633</title>
<g id="a_node11"><a xlink:title="Day_0">
<ellipse fill="#e5dada" stroke="black" cx="516.479" cy="-157.973" rx="28.6953" ry="18"/>
<text text-anchor="middle" x="516.479" y="-154.273" font-family="Times,serif" font-size="14.00">4633</text>
</a>
</g>
</g>
<!-- 4633&#45;&gt;6459 -->
<g id="edge6" class="edge"><title>4633&#45;&gt;6459</title>
<path fill="none" stroke="black" d="M504.922,-174.467C485.592,-202.055 446.913,-257.259 427.466,-285.014"/>
</g>
<!-- 5190&#45;&gt;9372 -->
<g id="edge5" class="edge"><title>5190&#45;&gt;9372</title>
<path fill="none" stroke="black" d="M883.067,-990.305C850.325,-1015.8 781.881,-1069.11 749.235,-1094.53"/>
</g>
<!-- 10088 -->
<g id="node23" class="node"><title>10088</title>
<g id="a_node23"><a xlink:title="Day_0">
<ellipse fill="#e5dada" stroke="black" cx="712.531" cy="-741.623" rx="32.4942" ry="18"/>
<text text-anchor="middle" x="712.531" y="-737.923" font-family="Times,serif" font-size="14.00">10088</text>
</a>
</g>
</g>
<!-- 5190&#45;&gt;10088 -->
<g id="edge2" class="edge"><title>5190&#45;&gt;10088</title>
<path fill="none" stroke="black" d="M888.299,-960.009C853.902,-917.272 760.631,-801.385 725.847,-758.167"/>
</g>
<!-- 5270 -->
<g id="node13" class="node"><title>5270</title>
<g id="a_node13"><a xlink:title="Day_0">
<ellipse fill="#e5dada" stroke="black" cx="571.754" cy="-1111.88" rx="28.6953" ry="18"/>
<text text-anchor="middle" x="571.754" y="-1108.18" font-family="Times,serif" font-size="14.00">5270</text>
</a>
</g>
</g>
<!-- 5270&#45;&gt;9372 -->
<g id="edge26" class="edge"><title>5270&#45;&gt;9372</title>
<path fill="none" stroke="black" d="M600.622,-1111.29C629.512,-1110.7 673.695,-1109.79 702.509,-1109.2"/>
</g>
<!-- 8301 -->
<g id="node17" class="node"><title>8301</title>
<g id="a_node17"><a xlink:title="Day_0">
<ellipse fill="#e5dada" stroke="black" cx="252.017" cy="-349.019" rx="28.6953" ry="18"/>
<text text-anchor="middle" x="252.017" y="-345.319" font-family="Times,serif" font-size="14.00">8301</text>
</a>
</g>
</g>
<!-- 6459&#45;&gt;8301 -->
<g id="edge37" class="edge"><title>6459&#45;&gt;8301</title>
<path fill="none" stroke="black" d="M389.43,-309.351C358.879,-318.171 308.779,-332.633 278.256,-341.444"/>
</g>
<!-- 8361 -->
<g id="node18" class="node"><title>8361</title>
<g id="a_node18"><a xlink:title="Day_0">
<ellipse fill="#e5dada" stroke="black" cx="350.59" cy="-129.044" rx="28.6953" ry="18"/>
<text text-anchor="middle" x="350.59" y="-125.344" font-family="Times,serif" font-size="14.00">8361</text>
</a>
</g>
</g>
<!-- 6459&#45;&gt;8361 -->
<g id="edge36" class="edge"><title>6459&#45;&gt;8361</title>
<path fill="none" stroke="black" d="M409.008,-283.925C396.492,-250.743 369.768,-179.889 357.28,-146.78"/>
</g>
<!-- 9241 -->
<g id="node19" class="node"><title>9241</title>
<g id="a_node19"><a xlink:title="Day_0">
<ellipse fill="#e5dada" stroke="black" cx="307.323" cy="-401.384" rx="28.6953" ry="18"/>
<text text-anchor="middle" x="307.323" y="-397.684" font-family="Times,serif" font-size="14.00">9241</text>
</a>
</g>
</g>
<!-- 6459&#45;&gt;9241 -->
<g id="edge56" class="edge"><title>6459&#45;&gt;9241</title>
<path fill="none" stroke="black" d="M399.269,-316.889C378.774,-335.723 343.989,-367.689 323.588,-386.437"/>
</g>
<!-- 11298 -->
<g id="node25" class="node"><title>11298</title>
<g id="a_node25"><a xlink:title="Day_0">
<ellipse fill="#e5dada" stroke="black" cx="246.072" cy="-214.558" rx="32.4942" ry="18"/>
<text text-anchor="middle" x="246.072" y="-210.858" font-family="Times,serif" font-size="14.00">11298</text>
</a>
</g>
</g>
<!-- 6459&#45;&gt;11298 -->
<g id="edge16" class="edge"><title>6459&#45;&gt;11298</title>
<path fill="none" stroke="black" d="M393.554,-290.358C361.577,-273.924 302.767,-243.697 269.898,-226.804"/>
</g>
<!-- 11779 -->
<g id="node26" class="node"><title>11779</title>
<g id="a_node26"><a xlink:title="Day_0">
<ellipse fill="#e5dada" stroke="black" cx="541.594" cy="-538.134" rx="32.4942" ry="18"/>
<text text-anchor="middle" x="541.594" y="-534.434" font-family="Times,serif" font-size="14.00">11779</text>
</a>
</g>
</g>
<!-- 6459&#45;&gt;11779 -->
<g id="edge29" class="edge"><title>6459&#45;&gt;11779</title>
<path fill="none" stroke="black" d="M424.989,-319.139C448.264,-362.853 509.036,-476.987 532.326,-520.727"/>
</g>
<!-- 6459&#45;&gt;12297 -->
<g id="edge1" class="edge"><title>6459&#45;&gt;12297</title>
<path fill="none" stroke="black" d="M401.365,-285.861C373.322,-254.836 311.577,-186.525 283.314,-155.256"/>
</g>
<!-- 12987 -->
<g id="node28" class="node"><title>12987</title>
<g id="a_node28"><a xlink:title="Day_0">
<ellipse fill="#e5dada" stroke="black" cx="547.338" cy="-281.163" rx="32.4942" ry="18"/>
<text text-anchor="middle" x="547.338" y="-277.463" font-family="Times,serif" font-size="14.00">12987</text>
</a>
</g>
</g>
<!-- 6459&#45;&gt;12987 -->
<g id="edge11" class="edge"><title>6459&#45;&gt;12987</title>
<path fill="none" stroke="black" d="M443.644,-297.391C464.77,-294.085 493.802,-289.541 515.774,-286.103"/>
</g>
<!-- 13243 -->
<g id="node29" class="node"><title>13243</title>
<g id="a_node29"><a xlink:title="Day_0">
<ellipse fill="#e5dada" stroke="black" cx="539.509" cy="-205.993" rx="32.4942" ry="18"/>
<text text-anchor="middle" x="539.509" y="-202.293" font-family="Times,serif" font-size="14.00">13243</text>
</a>
</g>
</g>
<!-- 6459&#45;&gt;13243 -->
<g id="edge59" class="edge"><title>6459&#45;&gt;13243</title>
<path fill="none" stroke="black" d="M433.997,-287.628C457.13,-269.73 496.808,-239.031 520.356,-220.812"/>
</g>
<!-- 1386 -->
<g id="node31" class="node"><title>1386</title>
<g id="a_node31"><a xlink:title="Day_0">
<ellipse fill="#e5dada" stroke="black" cx="581.083" cy="-1265.34" rx="28.6953" ry="18"/>
<text text-anchor="middle" x="581.083" y="-1261.64" font-family="Times,serif" font-size="14.00">1386</text>
</a>
</g>
</g>
<!-- 9372&#45;&gt;1386 -->
<g id="edge20" class="edge"><title>9372&#45;&gt;1386</title>
<path fill="none" stroke="black" d="M716.223,-1124.21C687.456,-1154.25 624.681,-1219.81 595.961,-1249.8"/>
</g>
<!-- 431 -->
<g id="node40" class="node"><title>431</title>
<g id="a_node40"><a xlink:title="Day_0">
<ellipse fill="#e5dada" stroke="black" cx="762.451" cy="-1250.48" rx="27" ry="18"/>
<text text-anchor="middle" x="762.451" y="-1246.78" font-family="Times,serif" font-size="14.00">431</text>
</a>
</g>
</g>
<!-- 9372&#45;&gt;431 -->
<g id="edge23" class="edge"><title>9372&#45;&gt;431</title>
<path fill="none" stroke="black" d="M735.124,-1126.58C741.143,-1153.87 752.521,-1205.46 758.521,-1232.66"/>
</g>
<!-- 11541 -->
<g id="node43" class="node"><title>11541</title>
<g id="a_node43"><a xlink:title="Day_0">
<ellipse fill="#e5dada" stroke="black" cx="590.742" cy="-1185.33" rx="32.4942" ry="18"/>
<text text-anchor="middle" x="590.742" y="-1181.63" font-family="Times,serif" font-size="14.00">11541</text>
</a>
</g>
</g>
<!-- 9372&#45;&gt;11541 -->
<g id="edge45" class="edge"><title>9372&#45;&gt;11541</title>
<path fill="none" stroke="black" d="M709.529,-1120.43C683.68,-1134.55 640.6,-1158.09 614.038,-1172.6"/>
</g>
<!-- 3856 -->
<g id="node32" class="node"><title>3856</title>
<g id="a_node32"><a xlink:title="Day_0">
<ellipse fill="#e5dada" stroke="black" cx="1559.31" cy="-1194.14" rx="28.6953" ry="18"/>
<text text-anchor="middle" x="1559.31" y="-1190.44" font-family="Times,serif" font-size="14.00">3856</text>
</a>
</g>
</g>
<!-- 9627&#45;&gt;3856 -->
<g id="edge35" class="edge"><title>9627&#45;&gt;3856</title>
<path fill="none" stroke="black" d="M1408.73,-1148.17C1442.22,-1158.39 1500.02,-1176.04 1533.43,-1186.24"/>
</g>
<!-- 10088&#45;&gt;11779 -->
<g id="edge55" class="edge"><title>10088&#45;&gt;11779</title>
<path fill="none" stroke="black" d="M698.543,-724.971C666.409,-686.718 587.625,-592.93 555.536,-554.731"/>
</g>
<!-- 10622 -->
<g id="node24" class="node"><title>10622</title>
<g id="a_node24"><a xlink:title="Day_0">
<ellipse fill="#e5dada" stroke="black" cx="645.367" cy="-460.736" rx="32.4942" ry="18"/>
<text text-anchor="middle" x="645.367" y="-457.036" font-family="Times,serif" font-size="14.00">10622</text>
</a>
</g>
</g>
<!-- 10622&#45;&gt;11779 -->
<g id="edge41" class="edge"><title>10622&#45;&gt;11779</title>
<path fill="none" stroke="black" d="M625.848,-475.294C607.295,-489.132 579.549,-509.826 561.025,-523.641"/>
</g>
<!-- 12749 -->
<g id="node39" class="node"><title>12749</title>
<g id="a_node39"><a xlink:title="Day_0">
<ellipse fill="#e5dada" stroke="black" cx="348.444" cy="-602.902" rx="32.4942" ry="18"/>
<text text-anchor="middle" x="348.444" y="-599.202" font-family="Times,serif" font-size="14.00">12749</text>
</a>
</g>
</g>
<!-- 11779&#45;&gt;12749 -->
<g id="edge21" class="edge"><title>11779&#45;&gt;12749</title>
<path fill="none" stroke="black" d="M513.508,-547.552C476.784,-559.866 412.836,-581.31 376.25,-593.578"/>
</g>
<!-- 622 -->
<g id="node30" class="node"><title>622</title>
<g id="a_node30"><a xlink:title="Day_0">
<ellipse fill="#e5dada" stroke="black" cx="1719.99" cy="-1240.78" rx="27" ry="18"/>
<text text-anchor="middle" x="1719.99" y="-1237.08" font-family="Times,serif" font-size="14.00">622</text>
</a>
</g>
</g>
<!-- 622&#45;&gt;3856 -->
<g id="edge57" class="edge"><title>622&#45;&gt;3856</title>
<path fill="none" stroke="black" d="M1694.88,-1233.49C1665.05,-1224.83 1615.52,-1210.46 1585.31,-1201.68"/>
</g>
<!-- 2882 -->
<g id="node41" class="node"><title>2882</title>
<g id="a_node41"><a xlink:title="Day_0">
<ellipse fill="#e5dada" stroke="black" cx="451.477" cy="-1333.17" rx="28.6953" ry="18"/>
<text text-anchor="middle" x="451.477" y="-1329.47" font-family="Times,serif" font-size="14.00">2882</text>
</a>
</g>
</g>
<!-- 1386&#45;&gt;2882 -->
<g id="edge31" class="edge"><title>1386&#45;&gt;2882</title>
<path fill="none" stroke="black" d="M558.803,-1277C534.919,-1289.5 497.238,-1309.22 473.466,-1321.66"/>
</g>
<!-- 8257 -->
<g id="node42" class="node"><title>8257</title>
<g id="a_node42"><a xlink:title="Day_0">
<ellipse fill="#e5dada" stroke="black" cx="513.559" cy="-1394.77" rx="28.6953" ry="18"/>
<text text-anchor="middle" x="513.559" y="-1391.07" font-family="Times,serif" font-size="14.00">8257</text>
</a>
</g>
</g>
<!-- 1386&#45;&gt;8257 -->
<g id="edge39" class="edge"><title>1386&#45;&gt;8257</title>
<path fill="none" stroke="black" d="M572.116,-1282.53C559.201,-1307.28 535.498,-1352.72 522.562,-1377.51"/>
</g>
<!-- 11375 -->
<g id="node37" class="node"><title>11375</title>
<g id="a_node37"><a xlink:title="Day_0">
<ellipse fill="#e5dada" stroke="black" cx="1680.94" cy="-1309.82" rx="32.4942" ry="18"/>
<text text-anchor="middle" x="1680.94" y="-1306.12" font-family="Times,serif" font-size="14.00">11375</text>
</a>
</g>
</g>
<!-- 3856&#45;&gt;11375 -->
<g id="edge18" class="edge"><title>3856&#45;&gt;11375</title>
<path fill="none" stroke="black" d="M1575.21,-1209.26C1598.27,-1231.19 1640.77,-1271.62 1664.26,-1293.95"/>
</g>
<!-- 11919 -->
<g id="node38" class="node"><title>11919</title>
<g id="a_node38"><a xlink:title="Day_0">
<ellipse fill="#e5dada" stroke="black" cx="1729.48" cy="-1164.54" rx="32.4942" ry="18"/>
<text text-anchor="middle" x="1729.48" y="-1160.84" font-family="Times,serif" font-size="14.00">11919</text>
</a>
</g>
</g>
<!-- 3856&#45;&gt;11919 -->
<g id="edge8" class="edge"><title>3856&#45;&gt;11919</title>
<path fill="none" stroke="black" d="M1587.03,-1189.32C1617.54,-1184.01 1666.48,-1175.5 1698.31,-1169.96"/>
</g>
<!-- 5687 -->
<g id="node33" class="node"><title>5687</title>
<g id="a_node33"><a xlink:title="Day_0">
<ellipse fill="#e5dada" stroke="black" cx="182.458" cy="-644.969" rx="28.6953" ry="18"/>
<text text-anchor="middle" x="182.458" y="-641.269" font-family="Times,serif" font-size="14.00">5687</text>
</a>
</g>
</g>
<!-- 5687&#45;&gt;12749 -->
<g id="edge48" class="edge"><title>5687&#45;&gt;12749</title>
<path fill="none" stroke="black" d="M209.126,-638.21C239.093,-630.615 287.61,-618.319 318.758,-610.425"/>
</g>
<!-- 11074 -->
<g id="node51" class="node"><title>11074</title>
<g id="a_node51"><a xlink:title="Day_0">
<ellipse fill="#e5dada" stroke="black" cx="32.9647" cy="-671.744" rx="32.4942" ry="18"/>
<text text-anchor="middle" x="32.9647" y="-668.044" font-family="Times,serif" font-size="14.00">11074</text>
</a>
</g>
</g>
<!-- 5687&#45;&gt;11074 -->
<g id="edge28" class="edge"><title>5687&#45;&gt;11074</title>
<path fill="none" stroke="black" d="M154.69,-649.942C128.936,-654.555 90.6698,-661.409 63.9376,-666.197"/>
</g>
<!-- 4537 -->
<g id="node46" class="node"><title>4537</title>
<g id="a_node46"><a xlink:title="Day_0">
<ellipse fill="#e5dada" stroke="black" cx="1244.47" cy="-1431.09" rx="28.6953" ry="18"/>
<text text-anchor="middle" x="1244.47" y="-1427.39" font-family="Times,serif" font-size="14.00">4537</text>
</a>
</g>
</g>
<!-- 9515&#45;&gt;4537 -->
<g id="edge33" class="edge"><title>9515&#45;&gt;4537</title>
<path fill="none" stroke="black" d="M1253.05,-1323.56C1251.16,-1347.28 1247.84,-1388.82 1245.93,-1412.73"/>
</g>
<!-- 12194 -->
<g id="node58" class="node"><title>12194</title>
<g id="a_node58"><a xlink:title="Day_0">
<ellipse fill="#e5dada" stroke="black" cx="1341.34" cy="-1532.46" rx="32.4942" ry="18"/>
<text text-anchor="middle" x="1341.34" y="-1528.76" font-family="Times,serif" font-size="14.00">12194</text>
</a>
</g>
</g>
<!-- 9515&#45;&gt;12194 -->
<g id="edge4" class="edge"><title>9515&#45;&gt;12194</title>
<path fill="none" stroke="black" d="M1261.3,-1323.38C1277.54,-1365.79 1318.36,-1472.41 1334.56,-1514.74"/>
</g>
<!-- 2563 -->
<g id="node44" class="node"><title>2563</title>
<g id="a_node44"><a xlink:title="Day_0">
<ellipse fill="#e5dada" stroke="black" cx="1518.33" cy="-1026.91" rx="28.6953" ry="18"/>
<text text-anchor="middle" x="1518.33" y="-1023.21" font-family="Times,serif" font-size="14.00">2563</text>
</a>
</g>
</g>
<!-- 2563&#45;&gt;7076 -->
<g id="edge9" class="edge"><title>2563&#45;&gt;7076</title>
<path fill="none" stroke="black" d="M1492.65,-1018.64C1466.67,-1010.28 1426.72,-997.421 1400.65,-989.028"/>
</g>
<!-- 3132 -->
<g id="node45" class="node"><title>3132</title>
<g id="a_node45"><a xlink:title="Day_0">
<ellipse fill="#e5dada" stroke="black" cx="1550.88" cy="-875.358" rx="28.6953" ry="18"/>
<text text-anchor="middle" x="1550.88" y="-871.658" font-family="Times,serif" font-size="14.00">3132</text>
</a>
</g>
</g>
<!-- 3132&#45;&gt;7076 -->
<g id="edge3" class="edge"><title>3132&#45;&gt;7076</title>
<path fill="none" stroke="black" d="M1529.98,-887.854C1496.07,-908.124 1429.47,-947.941 1395.58,-968.2"/>
</g>
<!-- 8446 -->
<g id="node49" class="node"><title>8446</title>
<g id="a_node49"><a xlink:title="Day_0">
<ellipse fill="#e5dada" stroke="black" cx="1682.43" cy="-807.398" rx="28.6953" ry="18"/>
<text text-anchor="middle" x="1682.43" y="-803.698" font-family="Times,serif" font-size="14.00">8446</text>
</a>
</g>
</g>
<!-- 3132&#45;&gt;8446 -->
<g id="edge38" class="edge"><title>3132&#45;&gt;8446</title>
<path fill="none" stroke="black" d="M1573.2,-863.83C1597.39,-851.333 1635.77,-831.503 1660,-818.983"/>
</g>
<!-- 6619 -->
<g id="node47" class="node"><title>6619</title>
<g id="a_node47"><a xlink:title="Day_0">
<ellipse fill="#e5dada" stroke="black" cx="1468.99" cy="-848.107" rx="28.6953" ry="18"/>
<text text-anchor="middle" x="1468.99" y="-844.407" font-family="Times,serif" font-size="14.00">6619</text>
</a>
</g>
</g>
<!-- 6619&#45;&gt;7076 -->
<g id="edge13" class="edge"><title>6619&#45;&gt;7076</title>
<path fill="none" stroke="black" d="M1457.24,-864.629C1439.17,-890.033 1404.76,-938.419 1386.61,-963.949"/>
</g>
<!-- 13089 -->
<g id="node59" class="node"><title>13089</title>
<g id="a_node59"><a xlink:title="Day_0">
<ellipse fill="#e5dada" stroke="black" cx="1539.46" cy="-950.903" rx="32.4942" ry="18"/>
<text text-anchor="middle" x="1539.46" y="-947.203" font-family="Times,serif" font-size="14.00">13089</text>
</a>
</g>
</g>
<!-- 7076&#45;&gt;13089 -->
<g id="edge50" class="edge"><title>7076&#45;&gt;13089</title>
<path fill="none" stroke="black" d="M1402.28,-975.695C1431.6,-970.397 1477.86,-962.037 1508.43,-956.512"/>
</g>
<!-- 895 -->
<g id="node52" class="node"><title>895</title>
<g id="a_node52"><a xlink:title="Day_0">
<ellipse fill="#e5dada" stroke="black" cx="1416.7" cy="-1732.51" rx="27" ry="18"/>
<text text-anchor="middle" x="1416.7" y="-1728.81" font-family="Times,serif" font-size="14.00">895</text>
</a>
</g>
</g>
<!-- 1772 -->
<g id="node53" class="node"><title>1772</title>
<g id="a_node53"><a xlink:title="Day_0">
<ellipse fill="#e5dada" stroke="black" cx="1543.68" cy="-1830.66" rx="28.6953" ry="18"/>
<text text-anchor="middle" x="1543.68" y="-1826.96" font-family="Times,serif" font-size="14.00">1772</text>
</a>
</g>
</g>
<!-- 895&#45;&gt;1772 -->
<g id="edge34" class="edge"><title>895&#45;&gt;1772</title>
<path fill="none" stroke="black" d="M1434.36,-1746.15C1458.34,-1764.7 1501.02,-1797.69 1525.35,-1816.49"/>
</g>
<!-- 2611 -->
<g id="node54" class="node"><title>2611</title>
<g id="a_node54"><a xlink:title="Day_0">
<ellipse fill="#e5dada" stroke="black" cx="1437.8" cy="-1845.2" rx="28.6953" ry="18"/>
<text text-anchor="middle" x="1437.8" y="-1841.5" font-family="Times,serif" font-size="14.00">2611</text>
</a>
</g>
</g>
<!-- 895&#45;&gt;2611 -->
<g id="edge40" class="edge"><title>895&#45;&gt;2611</title>
<path fill="none" stroke="black" d="M1420.09,-1750.61C1424.03,-1771.64 1430.49,-1806.13 1434.42,-1827.14"/>
</g>
<!-- 3847 -->
<g id="node55" class="node"><title>3847</title>
<g id="a_node55"><a xlink:title="Day_0">
<ellipse fill="#e5dada" stroke="black" cx="1376.23" cy="-1889.95" rx="28.6953" ry="18"/>
<text text-anchor="middle" x="1376.23" y="-1886.25" font-family="Times,serif" font-size="14.00">3847</text>
</a>
</g>
</g>
<!-- 895&#45;&gt;3847 -->
<g id="edge19" class="edge"><title>895&#45;&gt;3847</title>
<path fill="none" stroke="black" d="M1412.14,-1750.26C1404.37,-1780.5 1388.64,-1841.66 1380.84,-1872.02"/>
</g>
<!-- 5192 -->
<g id="node56" class="node"><title>5192</title>
<g id="a_node56"><a xlink:title="Day_0">
<ellipse fill="#e5dada" stroke="black" cx="1313.23" cy="-1839.8" rx="28.6953" ry="18"/>
<text text-anchor="middle" x="1313.23" y="-1836.1" font-family="Times,serif" font-size="14.00">5192</text>
</a>
</g>
</g>
<!-- 895&#45;&gt;5192 -->
<g id="edge27" class="edge"><title>895&#45;&gt;5192</title>
<path fill="none" stroke="black" d="M1401.88,-1747.88C1382.32,-1768.16 1348.08,-1803.67 1328.36,-1824.11"/>
</g>
<!-- 7227 -->
<g id="node57" class="node"><title>7227</title>
<g id="a_node57"><a xlink:title="Day_0">
<ellipse fill="#e5dada" stroke="black" cx="1499.15" cy="-1911.44" rx="28.6953" ry="18"/>
<text text-anchor="middle" x="1499.15" y="-1907.74" font-family="Times,serif" font-size="14.00">7227</text>
</a>
</g>
</g>
<!-- 895&#45;&gt;7227 -->
<g id="edge47" class="edge"><title>895&#45;&gt;7227</title>
<path fill="none" stroke="black" d="M1424.76,-1749.99C1440.56,-1784.28 1475.45,-1860.01 1491.19,-1894.15"/>
</g>
<!-- 895&#45;&gt;12194 -->
<g id="edge49" class="edge"><title>895&#45;&gt;12194</title>
<path fill="none" stroke="black" d="M1410.01,-1714.75C1395.71,-1676.79 1362.3,-1588.1 1348.02,-1550.17"/>
</g>
<!-- 6101 -->
<g id="node61" class="node"><title>6101</title>
<g id="a_node61"><a xlink:title="Day_0">
<ellipse fill="#e5dada" stroke="black" cx="1566.45" cy="-1759.16" rx="28.6953" ry="18"/>
<text text-anchor="middle" x="1566.45" y="-1755.46" font-family="Times,serif" font-size="14.00">6101</text>
</a>
</g>
</g>
<!-- 895&#45;&gt;6101 -->
<g id="edge17" class="edge"><title>895&#45;&gt;6101</title>
<path fill="none" stroke="black" d="M1443.13,-1737.21C1470,-1741.99 1511.45,-1749.37 1538.77,-1754.23"/>
</g>
<!-- 1878 -->
<g id="node60" class="node"><title>1878</title>
<g id="a_node60"><a xlink:title="Day_0">
<ellipse fill="#e5dada" stroke="black" cx="1550.52" cy="-2048.62" rx="28.6953" ry="18"/>
<text text-anchor="middle" x="1550.52" y="-2044.92" font-family="Times,serif" font-size="14.00">1878</text>
</a>
</g>
</g>
<!-- 7227&#45;&gt;1878 -->
<g id="edge32" class="edge"><title>7227&#45;&gt;1878</title>
<path fill="none" stroke="black" d="M1505.76,-1929.09C1515.63,-1955.43 1534.09,-2004.73 1543.93,-2031.03"/>
</g>
</g>
</svg>
