<?xml version="1.0" encoding="UTF-8" standalone="no"?>
<!DOCTYPE svg PUBLIC "-//W3C//DTD SVG 1.1//EN"
 "http://www.w3.org/Graphics/SVG/1.1/DTD/svg11.dtd">
<!-- Generated by graphviz version 2.38.0 (20140413.2041)
 -->
<!-- Title: %3 Pages: 1 -->
<svg width="1171pt" height="2512pt"
 viewBox="0.00 0.00 1171.00 2512.00" xmlns="http://www.w3.org/2000/svg" xmlns:xlink="http://www.w3.org/1999/xlink">
<g id="graph0" class="graph" transform="scale(1 1) rotate(0) translate(4 2508)">
<title>%3</title>
<polygon fill="white" stroke="none" points="-4,4 -4,-2508 1167,-2508 1167,4 -4,4"/>
<!-- 71 -->
<g id="node1" class="node"><title>71</title>
<g id="a_node1"><a xlink:title="PRE">
<ellipse fill="#71a9f7" stroke="black" cx="646.593" cy="-653.662" rx="27" ry="18"/>
<text text-anchor="middle" x="646.593" y="-649.962" font-family="Times,serif" font-size="14.00">71</text>
</a>
</g>
</g>
<!-- 6078 -->
<g id="node25" class="node"><title>6078</title>
<g id="a_node25"><a xlink:title="PRE">
<ellipse fill="#71a9f7" stroke="black" cx="510.17" cy="-763.512" rx="28.6953" ry="18"/>
<text text-anchor="middle" x="510.17" y="-759.812" font-family="Times,serif" font-size="14.00">6078</text>
</a>
</g>
</g>
<!-- 71&#45;&gt;6078 -->
<g id="edge29" class="edge"><title>71&#45;&gt;6078</title>
<path fill="none" stroke="black" d="M629.315,-667.575C603.36,-688.474 554.547,-727.779 528.174,-749.015"/>
</g>
<!-- 238 -->
<g id="node2" class="node"><title>238</title>
<g id="a_node2"><a xlink:title="PRE">
<ellipse fill="#71a9f7" stroke="black" cx="376.493" cy="-491.882" rx="27" ry="18"/>
<text text-anchor="middle" x="376.493" y="-488.182" font-family="Times,serif" font-size="14.00">238</text>
</a>
</g>
</g>
<!-- 1985 -->
<g id="node11" class="node"><title>1985</title>
<g id="a_node11"><a xlink:title="PRE">
<ellipse fill="#71a9f7" stroke="black" cx="275.767" cy="-283.357" rx="28.6953" ry="18"/>
<text text-anchor="middle" x="275.767" y="-279.657" font-family="Times,serif" font-size="14.00">1985</text>
</a>
</g>
</g>
<!-- 238&#45;&gt;1985 -->
<g id="edge26" class="edge"><title>238&#45;&gt;1985</title>
<path fill="none" stroke="black" d="M368.078,-474.462C349.071,-435.112 303.004,-339.743 284.087,-300.581"/>
</g>
<!-- 238&#45;&gt;6078 -->
<g id="edge9" class="edge"><title>238&#45;&gt;6078</title>
<path fill="none" stroke="black" d="M385.058,-509.287C409.203,-558.349 477.619,-697.368 501.676,-746.252"/>
</g>
<!-- 303 -->
<g id="node3" class="node"><title>303</title>
<g id="a_node3"><a xlink:title="PRE">
<ellipse fill="#71a9f7" stroke="black" cx="651.399" cy="-891.348" rx="27" ry="18"/>
<text text-anchor="middle" x="651.399" y="-887.648" font-family="Times,serif" font-size="14.00">303</text>
</a>
</g>
</g>
<!-- 303&#45;&gt;6078 -->
<g id="edge20" class="edge"><title>303&#45;&gt;6078</title>
<path fill="none" stroke="black" d="M635.198,-876.683C608.1,-852.155 553.878,-803.075 526.617,-778.399"/>
</g>
<!-- 533 -->
<g id="node4" class="node"><title>533</title>
<g id="a_node4"><a xlink:title="PRE">
<ellipse fill="#71a9f7" stroke="black" cx="545.015" cy="-920.914" rx="27" ry="18"/>
<text text-anchor="middle" x="545.015" y="-917.214" font-family="Times,serif" font-size="14.00">533</text>
</a>
</g>
</g>
<!-- 533&#45;&gt;6078 -->
<g id="edge39" class="edge"><title>533&#45;&gt;6078</title>
<path fill="none" stroke="black" d="M541.018,-902.858C534.296,-872.496 520.811,-811.578 514.121,-781.357"/>
</g>
<!-- 541 -->
<g id="node5" class="node"><title>541</title>
<g id="a_node5"><a xlink:title="PRE">
<ellipse fill="#71a9f7" stroke="black" cx="34.0896" cy="-896.047" rx="27" ry="18"/>
<text text-anchor="middle" x="34.0896" y="-892.347" font-family="Times,serif" font-size="14.00">541</text>
</a>
</g>
</g>
<!-- 4074 -->
<g id="node18" class="node"><title>4074</title>
<g id="a_node18"><a xlink:title="PRE">
<ellipse fill="#71a9f7" stroke="black" cx="229.939" cy="-845.865" rx="28.6953" ry="18"/>
<text text-anchor="middle" x="229.939" y="-842.165" font-family="Times,serif" font-size="14.00">4074</text>
</a>
</g>
</g>
<!-- 541&#45;&gt;4074 -->
<g id="edge47" class="edge"><title>541&#45;&gt;4074</title>
<path fill="none" stroke="black" d="M59.2926,-889.589C96.3817,-880.086 165.356,-862.413 203.267,-852.699"/>
</g>
<!-- 758 -->
<g id="node6" class="node"><title>758</title>
<g id="a_node6"><a xlink:title="PRE">
<ellipse fill="#71a9f7" stroke="black" cx="411.199" cy="-903.59" rx="27" ry="18"/>
<text text-anchor="middle" x="411.199" y="-899.89" font-family="Times,serif" font-size="14.00">758</text>
</a>
</g>
</g>
<!-- 758&#45;&gt;6078 -->
<g id="edge13" class="edge"><title>758&#45;&gt;6078</title>
<path fill="none" stroke="black" d="M422.746,-887.247C441.715,-860.4 479.27,-807.246 498.39,-780.185"/>
</g>
<!-- 1019 -->
<g id="node7" class="node"><title>1019</title>
<g id="a_node7"><a xlink:title="PRE">
<ellipse fill="#71a9f7" stroke="black" cx="714.04" cy="-772.919" rx="28.6953" ry="18"/>
<text text-anchor="middle" x="714.04" y="-769.219" font-family="Times,serif" font-size="14.00">1019</text>
</a>
</g>
</g>
<!-- 1019&#45;&gt;6078 -->
<g id="edge5" class="edge"><title>1019&#45;&gt;6078</title>
<path fill="none" stroke="black" d="M685.263,-771.591C646.408,-769.798 577.581,-766.622 538.801,-764.833"/>
</g>
<!-- 1036 -->
<g id="node8" class="node"><title>1036</title>
<g id="a_node8"><a xlink:title="PRE">
<ellipse fill="#71a9f7" stroke="black" cx="731.675" cy="-852.099" rx="28.6953" ry="18"/>
<text text-anchor="middle" x="731.675" y="-848.399" font-family="Times,serif" font-size="14.00">1036</text>
</a>
</g>
</g>
<!-- 1036&#45;&gt;6078 -->
<g id="edge56" class="edge"><title>1036&#45;&gt;6078</title>
<path fill="none" stroke="black" d="M707.123,-842.28C664.433,-825.207 577.025,-790.249 534.494,-773.24"/>
</g>
<!-- 1307 -->
<g id="node9" class="node"><title>1307</title>
<g id="a_node9"><a xlink:title="PRE">
<ellipse fill="#71a9f7" stroke="black" cx="420.543" cy="-615.854" rx="28.6953" ry="18"/>
<text text-anchor="middle" x="420.543" y="-612.154" font-family="Times,serif" font-size="14.00">1307</text>
</a>
</g>
</g>
<!-- 1307&#45;&gt;6078 -->
<g id="edge40" class="edge"><title>1307&#45;&gt;6078</title>
<path fill="none" stroke="black" d="M430.824,-632.792C448.021,-661.123 482.432,-717.814 499.733,-746.316"/>
</g>
<!-- 1383 -->
<g id="node10" class="node"><title>1383</title>
<g id="a_node10"><a xlink:title="PRE">
<ellipse fill="#71a9f7" stroke="black" cx="320.001" cy="-861.719" rx="28.6953" ry="18"/>
<text text-anchor="middle" x="320.001" y="-858.019" font-family="Times,serif" font-size="14.00">1383</text>
</a>
</g>
</g>
<!-- 1383&#45;&gt;6078 -->
<g id="edge49" class="edge"><title>1383&#45;&gt;6078</title>
<path fill="none" stroke="black" d="M342.188,-850.261C378.734,-831.388 451.185,-793.973 487.831,-775.048"/>
</g>
<!-- 5692 -->
<g id="node21" class="node"><title>5692</title>
<g id="a_node21"><a xlink:title="PRE">
<ellipse fill="#71a9f7" stroke="black" cx="172.517" cy="-87.6145" rx="28.6953" ry="18"/>
<text text-anchor="middle" x="172.517" y="-83.9145" font-family="Times,serif" font-size="14.00">5692</text>
</a>
</g>
</g>
<!-- 1985&#45;&gt;5692 -->
<g id="edge45" class="edge"><title>1985&#45;&gt;5692</title>
<path fill="none" stroke="black" d="M266.604,-265.986C247.011,-228.841 201.235,-142.057 181.66,-104.946"/>
</g>
<!-- 2177 -->
<g id="node12" class="node"><title>2177</title>
<g id="a_node12"><a xlink:title="PRE">
<ellipse fill="#71a9f7" stroke="black" cx="28.6605" cy="-657.161" rx="28.6953" ry="18"/>
<text text-anchor="middle" x="28.6605" y="-653.461" font-family="Times,serif" font-size="14.00">2177</text>
</a>
</g>
</g>
<!-- 6356 -->
<g id="node30" class="node"><title>6356</title>
<g id="a_node30"><a xlink:title="PRE">
<ellipse fill="#71a9f7" stroke="black" cx="229.387" cy="-702.93" rx="28.6953" ry="18"/>
<text text-anchor="middle" x="229.387" y="-699.23" font-family="Times,serif" font-size="14.00">6356</text>
</a>
</g>
</g>
<!-- 2177&#45;&gt;6356 -->
<g id="edge53" class="edge"><title>2177&#45;&gt;6356</title>
<path fill="none" stroke="black" d="M55.7314,-663.333C94.1483,-672.093 164.068,-688.036 202.425,-696.782"/>
</g>
<!-- 3706 -->
<g id="node13" class="node"><title>3706</title>
<g id="a_node13"><a xlink:title="PRE">
<ellipse fill="#71a9f7" stroke="black" cx="640.54" cy="-795.159" rx="28.6953" ry="18"/>
<text text-anchor="middle" x="640.54" y="-791.459" font-family="Times,serif" font-size="14.00">3706</text>
</a>
</g>
</g>
<!-- 3706&#45;&gt;6078 -->
<g id="edge51" class="edge"><title>3706&#45;&gt;6078</title>
<path fill="none" stroke="black" d="M613.843,-788.679C591.495,-783.253 559.743,-775.546 537.279,-770.093"/>
</g>
<!-- 3960 -->
<g id="node14" class="node"><title>3960</title>
<g id="a_node14"><a xlink:title="PRE">
<ellipse fill="#71a9f7" stroke="black" cx="736.732" cy="-1325.02" rx="28.6953" ry="18"/>
<text text-anchor="middle" x="736.732" y="-1321.32" font-family="Times,serif" font-size="14.00">3960</text>
</a>
</g>
</g>
<!-- 6245 -->
<g id="node29" class="node"><title>6245</title>
<g id="a_node29"><a xlink:title="PRE">
<ellipse fill="#71a9f7" stroke="black" cx="634.927" cy="-1206.81" rx="28.6953" ry="18"/>
<text text-anchor="middle" x="634.927" y="-1203.11" font-family="Times,serif" font-size="14.00">6245</text>
</a>
</g>
</g>
<!-- 3960&#45;&gt;6245 -->
<g id="edge50" class="edge"><title>3960&#45;&gt;6245</title>
<path fill="none" stroke="black" d="M723.002,-1309.08C703.572,-1286.52 668.253,-1245.5 648.765,-1222.87"/>
</g>
<!-- 4052 -->
<g id="node15" class="node"><title>4052</title>
<g id="a_node15"><a xlink:title="PRE">
<ellipse fill="#71a9f7" stroke="black" cx="302.376" cy="-792.461" rx="28.6953" ry="18"/>
<text text-anchor="middle" x="302.376" y="-788.761" font-family="Times,serif" font-size="14.00">4052</text>
</a>
</g>
</g>
<!-- 4052&#45;&gt;6078 -->
<g id="edge16" class="edge"><title>4052&#45;&gt;6078</title>
<path fill="none" stroke="black" d="M330.4,-788.557C370.059,-783.032 442.148,-772.988 481.927,-767.447"/>
</g>
<!-- 4071 -->
<g id="node16" class="node"><title>4071</title>
<g id="a_node16"><a xlink:title="PRE">
<ellipse fill="#71a9f7" stroke="black" cx="443.162" cy="-568.418" rx="28.6953" ry="18"/>
<text text-anchor="middle" x="443.162" y="-564.718" font-family="Times,serif" font-size="14.00">4071</text>
</a>
</g>
</g>
<!-- 4071&#45;&gt;6078 -->
<g id="edge58" class="edge"><title>4071&#45;&gt;6078</title>
<path fill="none" stroke="black" d="M449.227,-586.076C461.952,-623.125 491.316,-708.616 504.071,-745.754"/>
</g>
<!-- 4072 -->
<g id="node17" class="node"><title>4072</title>
<g id="a_node17"><a xlink:title="PRE">
<ellipse fill="#71a9f7" stroke="black" cx="674.157" cy="-566.691" rx="28.6953" ry="18"/>
<text text-anchor="middle" x="674.157" y="-562.991" font-family="Times,serif" font-size="14.00">4072</text>
</a>
</g>
</g>
<!-- 4072&#45;&gt;6078 -->
<g id="edge44" class="edge"><title>4072&#45;&gt;6078</title>
<path fill="none" stroke="black" d="M660.737,-582.798C629.91,-619.797 554.329,-710.511 523.546,-747.459"/>
</g>
<!-- 8896 -->
<g id="node38" class="node"><title>8896</title>
<g id="a_node38"><a xlink:title="PRE">
<ellipse fill="#71a9f7" stroke="black" cx="826.557" cy="-388.5" rx="28.6953" ry="18"/>
<text text-anchor="middle" x="826.557" y="-384.8" font-family="Times,serif" font-size="14.00">8896</text>
</a>
</g>
</g>
<!-- 4072&#45;&gt;8896 -->
<g id="edge30" class="edge"><title>4072&#45;&gt;8896</title>
<path fill="none" stroke="black" d="M687.95,-550.564C716.965,-516.638 784.013,-438.244 812.904,-404.463"/>
</g>
<!-- 4074&#45;&gt;6078 -->
<g id="edge19" class="edge"><title>4074&#45;&gt;6078</title>
<path fill="none" stroke="black" d="M256.051,-838.191C309.45,-822.499 430.594,-786.897 484.023,-771.196"/>
</g>
<!-- 4875 -->
<g id="node19" class="node"><title>4875</title>
<g id="a_node19"><a xlink:title="PRE">
<ellipse fill="#71a9f7" stroke="black" cx="529.852" cy="-614.529" rx="28.6953" ry="18"/>
<text text-anchor="middle" x="529.852" y="-610.829" font-family="Times,serif" font-size="14.00">4875</text>
</a>
</g>
</g>
<!-- 4875&#45;&gt;6078 -->
<g id="edge28" class="edge"><title>4875&#45;&gt;6078</title>
<path fill="none" stroke="black" d="M527.478,-632.5C523.695,-661.135 516.341,-716.802 512.553,-745.477"/>
</g>
<!-- 5270 -->
<g id="node20" class="node"><title>5270</title>
<g id="a_node20"><a xlink:title="PRE">
<ellipse fill="#71a9f7" stroke="black" cx="416.379" cy="-976.697" rx="28.6953" ry="18"/>
<text text-anchor="middle" x="416.379" y="-972.997" font-family="Times,serif" font-size="14.00">5270</text>
</a>
</g>
</g>
<!-- 5270&#45;&gt;6078 -->
<g id="edge48" class="edge"><title>5270&#45;&gt;6078</title>
<path fill="none" stroke="black" d="M424.054,-959.251C441.686,-919.175 484.914,-820.919 502.521,-780.9"/>
</g>
<!-- 5845 -->
<g id="node22" class="node"><title>5845</title>
<g id="a_node22"><a xlink:title="PRE">
<ellipse fill="#71a9f7" stroke="black" cx="130.945" cy="-463.172" rx="28.6953" ry="18"/>
<text text-anchor="middle" x="130.945" y="-459.472" font-family="Times,serif" font-size="14.00">5845</text>
</a>
</g>
</g>
<!-- 6001 -->
<g id="node23" class="node"><title>6001</title>
<g id="a_node23"><a xlink:title="PRE">
<ellipse fill="#71a9f7" stroke="black" cx="289.349" cy="-587.154" rx="28.6953" ry="18"/>
<text text-anchor="middle" x="289.349" y="-583.454" font-family="Times,serif" font-size="14.00">6001</text>
</a>
</g>
</g>
<!-- 5845&#45;&gt;6001 -->
<g id="edge52" class="edge"><title>5845&#45;&gt;6001</title>
<path fill="none" stroke="black" d="M149.116,-477.394C179.671,-501.31 240.977,-549.294 271.39,-573.098"/>
</g>
<!-- 6001&#45;&gt;6078 -->
<g id="edge6" class="edge"><title>6001&#45;&gt;6078</title>
<path fill="none" stroke="black" d="M307.42,-601.586C349.034,-634.821 451.212,-716.425 492.467,-749.373"/>
</g>
<!-- 6024 -->
<g id="node24" class="node"><title>6024</title>
<g id="a_node24"><a xlink:title="PRE">
<ellipse fill="#71a9f7" stroke="black" cx="333.309" cy="-668.739" rx="28.6953" ry="18"/>
<text text-anchor="middle" x="333.309" y="-665.039" font-family="Times,serif" font-size="14.00">6024</text>
</a>
</g>
</g>
<!-- 6024&#45;&gt;6078 -->
<g id="edge55" class="edge"><title>6024&#45;&gt;6078</title>
<path fill="none" stroke="black" d="M355.351,-680.55C389.335,-698.761 454.146,-733.49 488.129,-751.701"/>
</g>
<!-- 6079 -->
<g id="node26" class="node"><title>6079</title>
<g id="a_node26"><a xlink:title="PRE">
<ellipse fill="#71a9f7" stroke="black" cx="598.442" cy="-597.663" rx="28.6953" ry="18"/>
<text text-anchor="middle" x="598.442" y="-593.963" font-family="Times,serif" font-size="14.00">6079</text>
</a>
</g>
</g>
<!-- 6078&#45;&gt;6079 -->
<g id="edge42" class="edge"><title>6078&#45;&gt;6079</title>
<path fill="none" stroke="black" d="M519.284,-746.388C536.199,-714.607 572.268,-646.84 589.245,-614.942"/>
</g>
<!-- 6078&#45;&gt;6245 -->
<g id="edge24" class="edge"><title>6078&#45;&gt;6245</title>
<path fill="none" stroke="black" d="M515.216,-781.439C535.319,-852.871 609.604,-1116.82 629.819,-1188.66"/>
</g>
<!-- 6078&#45;&gt;6356 -->
<g id="edge22" class="edge"><title>6078&#45;&gt;6356</title>
<path fill="none" stroke="black" d="M482.993,-757.648C429.317,-746.067 310.267,-720.38 256.579,-708.797"/>
</g>
<!-- 6465 -->
<g id="node31" class="node"><title>6465</title>
<g id="a_node31"><a xlink:title="PRE">
<ellipse fill="#71a9f7" stroke="black" cx="568.13" cy="-464.139" rx="28.6953" ry="18"/>
<text text-anchor="middle" x="568.13" y="-460.439" font-family="Times,serif" font-size="14.00">6465</text>
</a>
</g>
</g>
<!-- 6078&#45;&gt;6465 -->
<g id="edge17" class="edge"><title>6078&#45;&gt;6465</title>
<path fill="none" stroke="black" d="M513.709,-745.235C524.081,-691.663 554.325,-535.442 564.638,-482.176"/>
</g>
<!-- 6776 -->
<g id="node32" class="node"><title>6776</title>
<g id="a_node32"><a xlink:title="PRE">
<ellipse fill="#71a9f7" stroke="black" cx="680.546" cy="-711.585" rx="28.6953" ry="18"/>
<text text-anchor="middle" x="680.546" y="-707.885" font-family="Times,serif" font-size="14.00">6776</text>
</a>
</g>
</g>
<!-- 6078&#45;&gt;6776 -->
<g id="edge43" class="edge"><title>6078&#45;&gt;6776</title>
<path fill="none" stroke="black" d="M536.047,-755.625C568.163,-745.837 622.607,-729.244 654.706,-719.461"/>
</g>
<!-- 6849 -->
<g id="node33" class="node"><title>6849</title>
<g id="a_node33"><a xlink:title="PRE">
<ellipse fill="#71a9f7" stroke="black" cx="614.474" cy="-947.603" rx="28.6953" ry="18"/>
<text text-anchor="middle" x="614.474" y="-943.903" font-family="Times,serif" font-size="14.00">6849</text>
</a>
</g>
</g>
<!-- 6078&#45;&gt;6849 -->
<g id="edge37" class="edge"><title>6078&#45;&gt;6849</title>
<path fill="none" stroke="black" d="M519.796,-780.501C539.616,-815.482 584.791,-895.214 604.72,-930.387"/>
</g>
<!-- 6962 -->
<g id="node34" class="node"><title>6962</title>
<g id="a_node34"><a xlink:title="PRE">
<ellipse fill="#71a9f7" stroke="black" cx="311.488" cy="-723.325" rx="28.6953" ry="18"/>
<text text-anchor="middle" x="311.488" y="-719.625" font-family="Times,serif" font-size="14.00">6962</text>
</a>
</g>
</g>
<!-- 6078&#45;&gt;6962 -->
<g id="edge27" class="edge"><title>6078&#45;&gt;6962</title>
<path fill="none" stroke="black" d="M482.544,-757.924C444.586,-750.246 376.714,-736.518 338.879,-728.866"/>
</g>
<!-- 7581 -->
<g id="node35" class="node"><title>7581</title>
<g id="a_node35"><a xlink:title="PRE">
<ellipse fill="#71a9f7" stroke="black" cx="512.122" cy="-557.498" rx="28.6953" ry="18"/>
<text text-anchor="middle" x="512.122" y="-553.798" font-family="Times,serif" font-size="14.00">7581</text>
</a>
</g>
</g>
<!-- 6078&#45;&gt;7581 -->
<g id="edge36" class="edge"><title>6078&#45;&gt;7581</title>
<path fill="none" stroke="black" d="M510.344,-745.23C510.714,-706.135 511.579,-614.798 511.949,-575.74"/>
</g>
<!-- 8150 -->
<g id="node36" class="node"><title>8150</title>
<g id="a_node36"><a xlink:title="PRE">
<ellipse fill="#71a9f7" stroke="black" cx="499.194" cy="-979.896" rx="28.6953" ry="18"/>
<text text-anchor="middle" x="499.194" y="-976.196" font-family="Times,serif" font-size="14.00">8150</text>
</a>
</g>
</g>
<!-- 6078&#45;&gt;8150 -->
<g id="edge4" class="edge"><title>6078&#45;&gt;8150</title>
<path fill="none" stroke="black" d="M509.253,-781.588C507.187,-822.32 502.187,-920.893 500.116,-961.719"/>
</g>
<!-- 8532 -->
<g id="node37" class="node"><title>8532</title>
<g id="a_node37"><a xlink:title="PRE">
<ellipse fill="#71a9f7" stroke="black" cx="339.542" cy="-929.246" rx="28.6953" ry="18"/>
<text text-anchor="middle" x="339.542" y="-925.546" font-family="Times,serif" font-size="14.00">8532</text>
</a>
</g>
</g>
<!-- 6078&#45;&gt;8532 -->
<g id="edge41" class="edge"><title>6078&#45;&gt;8532</title>
<path fill="none" stroke="black" d="M494.424,-778.807C461.918,-810.38 387.723,-882.447 355.25,-913.988"/>
</g>
<!-- 9698 -->
<g id="node39" class="node"><title>9698</title>
<g id="a_node39"><a xlink:title="PRE">
<ellipse fill="#71a9f7" stroke="black" cx="752.887" cy="-673.842" rx="28.6953" ry="18"/>
<text text-anchor="middle" x="752.887" y="-670.142" font-family="Times,serif" font-size="14.00">9698</text>
</a>
</g>
</g>
<!-- 6078&#45;&gt;9698 -->
<g id="edge46" class="edge"><title>6078&#45;&gt;9698</title>
<path fill="none" stroke="black" d="M535.231,-754.253C581.862,-737.026 681.434,-700.239 727.962,-683.05"/>
</g>
<!-- 6124 -->
<g id="node27" class="node"><title>6124</title>
<g id="a_node27"><a xlink:title="PRE">
<ellipse fill="#71a9f7" stroke="black" cx="614.912" cy="-235.331" rx="28.6953" ry="18"/>
<text text-anchor="middle" x="614.912" y="-231.631" font-family="Times,serif" font-size="14.00">6124</text>
</a>
</g>
</g>
<!-- 6124&#45;&gt;6465 -->
<g id="edge34" class="edge"><title>6124&#45;&gt;6465</title>
<path fill="none" stroke="black" d="M611.241,-253.285C602.496,-296.057 580.512,-403.58 571.784,-446.268"/>
</g>
<!-- 4291 -->
<g id="node40" class="node"><title>4291</title>
<g id="a_node40"><a xlink:title="PRE">
<ellipse fill="#71a9f7" stroke="black" cx="656.971" cy="-17.6797" rx="28.6953" ry="18"/>
<text text-anchor="middle" x="656.971" y="-13.9797" font-family="Times,serif" font-size="14.00">4291</text>
</a>
</g>
</g>
<!-- 6124&#45;&gt;4291 -->
<g id="edge31" class="edge"><title>6124&#45;&gt;4291</title>
<path fill="none" stroke="black" d="M618.425,-217.149C626.362,-176.077 645.598,-76.534 653.497,-35.6574"/>
</g>
<!-- 6195 -->
<g id="node28" class="node"><title>6195</title>
<g id="a_node28"><a xlink:title="PRE">
<ellipse fill="#71a9f7" stroke="black" cx="972.582" cy="-587.667" rx="28.6953" ry="18"/>
<text text-anchor="middle" x="972.582" y="-583.967" font-family="Times,serif" font-size="14.00">6195</text>
</a>
</g>
</g>
<!-- 6195&#45;&gt;9698 -->
<g id="edge3" class="edge"><title>6195&#45;&gt;9698</title>
<path fill="none" stroke="black" d="M948.231,-597.219C906.001,-613.783 819.652,-647.653 777.346,-664.248"/>
</g>
<!-- 5274 -->
<g id="node41" class="node"><title>5274</title>
<g id="a_node41"><a xlink:title="Day_0">
<ellipse fill="#e5dada" stroke="black" cx="752.414" cy="-1596.54" rx="28.6953" ry="18"/>
<text text-anchor="middle" x="752.414" y="-1592.84" font-family="Times,serif" font-size="14.00">5274</text>
</a>
</g>
</g>
<!-- 6245&#45;&gt;5274 -->
<g id="edge32" class="edge"><title>6245&#45;&gt;5274</title>
<path fill="none" stroke="black" d="M640.281,-1224.57C659.853,-1289.49 727.406,-1513.58 747.029,-1578.68"/>
</g>
<!-- 3627 -->
<g id="node46" class="node"><title>3627</title>
<g id="a_node46"><a xlink:title="Day_0">
<ellipse fill="#e5dada" stroke="black" cx="887.806" cy="-2025.72" rx="28.6953" ry="18"/>
<text text-anchor="middle" x="887.806" y="-2022.02" font-family="Times,serif" font-size="14.00">3627</text>
</a>
</g>
</g>
<!-- 5274&#45;&gt;3627 -->
<g id="edge35" class="edge"><title>5274&#45;&gt;3627</title>
<path fill="none" stroke="black" d="M758.059,-1614.44C780.08,-1684.24 860.074,-1937.82 882.136,-2007.75"/>
</g>
<!-- 9024 -->
<g id="node57" class="node"><title>9024</title>
<g id="a_node57"><a xlink:title="Day_0">
<ellipse fill="#e5dada" stroke="black" cx="595.763" cy="-1672.09" rx="28.6953" ry="18"/>
<text text-anchor="middle" x="595.763" y="-1668.39" font-family="Times,serif" font-size="14.00">9024</text>
</a>
</g>
</g>
<!-- 5274&#45;&gt;9024 -->
<g id="edge12" class="edge"><title>5274&#45;&gt;9024</title>
<path fill="none" stroke="black" d="M729.636,-1607.53C699.936,-1621.85 648.282,-1646.76 618.569,-1661.09"/>
</g>
<!-- 9458 -->
<g id="node60" class="node"><title>9458</title>
<g id="a_node60"><a xlink:title="Day_0">
<ellipse fill="#e5dada" stroke="black" cx="678.846" cy="-1740.58" rx="28.6953" ry="18"/>
<text text-anchor="middle" x="678.846" y="-1736.88" font-family="Times,serif" font-size="14.00">9458</text>
</a>
</g>
</g>
<!-- 5274&#45;&gt;9458 -->
<g id="edge33" class="edge"><title>5274&#45;&gt;9458</title>
<path fill="none" stroke="black" d="M743.54,-1613.92C729.4,-1641.6 701.911,-1695.42 687.751,-1723.15"/>
</g>
<!-- 426 -->
<g id="node42" class="node"><title>426</title>
<g id="a_node42"><a xlink:title="Day_0">
<ellipse fill="#e5dada" stroke="black" cx="1136.47" cy="-2409.9" rx="27" ry="18"/>
<text text-anchor="middle" x="1136.47" y="-2406.2" font-family="Times,serif" font-size="14.00">426</text>
</a>
</g>
</g>
<!-- 3945 -->
<g id="node49" class="node"><title>3945</title>
<g id="a_node49"><a xlink:title="3rd_week">
<ellipse fill="#ee9898" stroke="black" cx="1035.96" cy="-2248.15" rx="28.6953" ry="18"/>
<text text-anchor="middle" x="1035.96" y="-2244.45" font-family="Times,serif" font-size="14.00">3945</text>
</a>
</g>
</g>
<!-- 426&#45;&gt;3945 -->
<g id="edge1" class="edge"><title>426&#45;&gt;3945</title>
<path fill="none" stroke="black" d="M1126.09,-2393.2C1106.83,-2362.2 1065.76,-2296.11 1046.43,-2265"/>
</g>
<!-- 705 -->
<g id="node43" class="node"><title>705</title>
<g id="a_node43"><a xlink:title="Day_0">
<ellipse fill="#e5dada" stroke="black" cx="868.472" cy="-2485.61" rx="27" ry="18"/>
<text text-anchor="middle" x="868.472" y="-2481.91" font-family="Times,serif" font-size="14.00">705</text>
</a>
</g>
</g>
<!-- 6249 -->
<g id="node52" class="node"><title>6249</title>
<g id="a_node52"><a xlink:title="Day_0">
<ellipse fill="#e5dada" stroke="black" cx="882.676" cy="-2268.25" rx="28.6953" ry="18"/>
<text text-anchor="middle" x="882.676" y="-2264.55" font-family="Times,serif" font-size="14.00">6249</text>
</a>
</g>
</g>
<!-- 705&#45;&gt;6249 -->
<g id="edge10" class="edge"><title>705&#45;&gt;6249</title>
<path fill="none" stroke="black" d="M869.658,-2467.45C872.332,-2426.53 878.803,-2327.52 881.483,-2286.5"/>
</g>
<!-- 1199 -->
<g id="node44" class="node"><title>1199</title>
<g id="a_node44"><a xlink:title="Day_0">
<ellipse fill="#e5dada" stroke="black" cx="725.221" cy="-2142.67" rx="28.6953" ry="18"/>
<text text-anchor="middle" x="725.221" y="-2138.97" font-family="Times,serif" font-size="14.00">1199</text>
</a>
</g>
</g>
<!-- 1199&#45;&gt;3627 -->
<g id="edge21" class="edge"><title>1199&#45;&gt;3627</title>
<path fill="none" stroke="black" d="M744.19,-2129.03C775.518,-2106.49 837.709,-2061.76 868.958,-2039.28"/>
</g>
<!-- 3013 -->
<g id="node45" class="node"><title>3013</title>
<g id="a_node45"><a xlink:title="3rd_week">
<ellipse fill="#ee9898" stroke="black" cx="949.427" cy="-2188.67" rx="28.6953" ry="18"/>
<text text-anchor="middle" x="949.427" y="-2184.97" font-family="Times,serif" font-size="14.00">3013</text>
</a>
</g>
</g>
<!-- 3013&#45;&gt;3627 -->
<g id="edge11" class="edge"><title>3013&#45;&gt;3627</title>
<path fill="none" stroke="black" d="M942.715,-2170.92C930.862,-2139.58 906.357,-2074.78 894.509,-2043.45"/>
</g>
<!-- 3669 -->
<g id="node47" class="node"><title>3669</title>
<g id="a_node47"><a xlink:title="Day_0">
<ellipse fill="#e5dada" stroke="black" cx="1095.52" cy="-2008.94" rx="28.6953" ry="18"/>
<text text-anchor="middle" x="1095.52" y="-2005.24" font-family="Times,serif" font-size="14.00">3669</text>
</a>
</g>
</g>
<!-- 3627&#45;&gt;3669 -->
<g id="edge2" class="edge"><title>3627&#45;&gt;3669</title>
<path fill="none" stroke="black" d="M916.252,-2023.43C955.918,-2020.22 1027.42,-2014.45 1067.08,-2011.24"/>
</g>
<!-- 3757 -->
<g id="node48" class="node"><title>3757</title>
<g id="a_node48"><a xlink:title="Day_0">
<ellipse fill="#e5dada" stroke="black" cx="732.848" cy="-1993.78" rx="28.6953" ry="18"/>
<text text-anchor="middle" x="732.848" y="-1990.08" font-family="Times,serif" font-size="14.00">3757</text>
</a>
</g>
</g>
<!-- 3627&#45;&gt;3757 -->
<g id="edge18" class="edge"><title>3627&#45;&gt;3757</title>
<path fill="none" stroke="black" d="M860.459,-2020.09C832.221,-2014.27 788.414,-2005.24 760.181,-1999.42"/>
</g>
<!-- 3627&#45;&gt;3945 -->
<g id="edge7" class="edge"><title>3627&#45;&gt;3945</title>
<path fill="none" stroke="black" d="M898.941,-2042.44C926.465,-2083.76 997.452,-2190.33 1024.9,-2231.54"/>
</g>
<!-- 5750 -->
<g id="node50" class="node"><title>5750</title>
<g id="a_node50"><a xlink:title="Day_0">
<ellipse fill="#e5dada" stroke="black" cx="1056.8" cy="-2154.77" rx="28.6953" ry="18"/>
<text text-anchor="middle" x="1056.8" y="-2151.07" font-family="Times,serif" font-size="14.00">5750</text>
</a>
</g>
</g>
<!-- 3627&#45;&gt;5750 -->
<g id="edge8" class="edge"><title>3627&#45;&gt;5750</title>
<path fill="none" stroke="black" d="M906.212,-2039.78C938.72,-2064.6 1005.92,-2115.92 1038.41,-2140.73"/>
</g>
<!-- 5797 -->
<g id="node51" class="node"><title>5797</title>
<g id="a_node51"><a xlink:title="Day_0">
<ellipse fill="#e5dada" stroke="black" cx="1100.54" cy="-2078.65" rx="28.6953" ry="18"/>
<text text-anchor="middle" x="1100.54" y="-2074.95" font-family="Times,serif" font-size="14.00">5797</text>
</a>
</g>
</g>
<!-- 3627&#45;&gt;5797 -->
<g id="edge57" class="edge"><title>3627&#45;&gt;5797</title>
<path fill="none" stroke="black" d="M914.748,-2032.43C955.668,-2042.61 1033.02,-2061.85 1073.81,-2072"/>
</g>
<!-- 3627&#45;&gt;6249 -->
<g id="edge38" class="edge"><title>3627&#45;&gt;6249</title>
<path fill="none" stroke="black" d="M887.42,-2043.95C886.467,-2089.01 884.009,-2205.21 883.059,-2250.14"/>
</g>
<!-- 7067 -->
<g id="node53" class="node"><title>7067</title>
<g id="a_node53"><a xlink:title="Day_0">
<ellipse fill="#e5dada" stroke="black" cx="1024.59" cy="-2103.37" rx="28.6953" ry="18"/>
<text text-anchor="middle" x="1024.59" y="-2099.67" font-family="Times,serif" font-size="14.00">7067</text>
</a>
</g>
</g>
<!-- 3627&#45;&gt;7067 -->
<g id="edge15" class="edge"><title>3627&#45;&gt;7067</title>
<path fill="none" stroke="black" d="M909.178,-2037.86C934.724,-2052.36 977.235,-2076.49 1002.91,-2091.07"/>
</g>
<!-- 7443 -->
<g id="node54" class="node"><title>7443</title>
<g id="a_node54"><a xlink:title="Day_0">
<ellipse fill="#e5dada" stroke="black" cx="802.016" cy="-2142.42" rx="28.6953" ry="18"/>
<text text-anchor="middle" x="802.016" y="-2138.72" font-family="Times,serif" font-size="14.00">7443</text>
</a>
</g>
</g>
<!-- 3627&#45;&gt;7443 -->
<g id="edge25" class="edge"><title>3627&#45;&gt;7443</title>
<path fill="none" stroke="black" d="M875.514,-2042.44C859.205,-2064.63 830.582,-2103.57 814.285,-2125.74"/>
</g>
<!-- 8102 -->
<g id="node55" class="node"><title>8102</title>
<g id="a_node55"><a xlink:title="Day_0">
<ellipse fill="#e5dada" stroke="black" cx="882.373" cy="-2194.91" rx="28.6953" ry="18"/>
<text text-anchor="middle" x="882.373" y="-2191.21" font-family="Times,serif" font-size="14.00">8102</text>
</a>
</g>
</g>
<!-- 3627&#45;&gt;8102 -->
<g id="edge60" class="edge"><title>3627&#45;&gt;8102</title>
<path fill="none" stroke="black" d="M887.224,-2043.83C886.181,-2076.31 884.004,-2144.11 882.958,-2176.67"/>
</g>
<!-- 8879 -->
<g id="node56" class="node"><title>8879</title>
<g id="a_node56"><a xlink:title="Day_0">
<ellipse fill="#e5dada" stroke="black" cx="1068.13" cy="-1941.91" rx="28.6953" ry="18"/>
<text text-anchor="middle" x="1068.13" y="-1938.21" font-family="Times,serif" font-size="14.00">8879</text>
</a>
</g>
</g>
<!-- 3627&#45;&gt;8879 -->
<g id="edge59" class="edge"><title>3627&#45;&gt;8879</title>
<path fill="none" stroke="black" d="M911.01,-2014.94C945.634,-1998.84 1010.44,-1968.72 1045.01,-1952.65"/>
</g>
<!-- 9084 -->
<g id="node58" class="node"><title>9084</title>
<g id="a_node58"><a xlink:title="Day_0">
<ellipse fill="#e5dada" stroke="black" cx="715.838" cy="-2072.49" rx="28.6953" ry="18"/>
<text text-anchor="middle" x="715.838" y="-2068.79" font-family="Times,serif" font-size="14.00">9084</text>
</a>
</g>
</g>
<!-- 3627&#45;&gt;9084 -->
<g id="edge14" class="edge"><title>3627&#45;&gt;9084</title>
<path fill="none" stroke="black" d="M861.313,-2032.93C828.997,-2041.72 774.691,-2056.48 742.361,-2065.28"/>
</g>
<!-- 9384 -->
<g id="node59" class="node"><title>9384</title>
<g id="a_node59"><a xlink:title="Day_0">
<ellipse fill="#e5dada" stroke="black" cx="993.843" cy="-1889.44" rx="28.6953" ry="18"/>
<text text-anchor="middle" x="993.843" y="-1885.74" font-family="Times,serif" font-size="14.00">9384</text>
</a>
</g>
</g>
<!-- 3627&#45;&gt;9384 -->
<g id="edge54" class="edge"><title>3627&#45;&gt;9384</title>
<path fill="none" stroke="black" d="M900.386,-2009.56C920.684,-1983.47 960.451,-1932.36 980.948,-1906.01"/>
</g>
<!-- 9657 -->
<g id="node61" class="node"><title>9657</title>
<g id="a_node61"><a xlink:title="Day_0">
<ellipse fill="#e5dada" stroke="black" cx="799.408" cy="-2203.72" rx="28.6953" ry="18"/>
<text text-anchor="middle" x="799.408" y="-2200.02" font-family="Times,serif" font-size="14.00">9657</text>
</a>
</g>
</g>
<!-- 3627&#45;&gt;9657 -->
<g id="edge23" class="edge"><title>3627&#45;&gt;9657</title>
<path fill="none" stroke="black" d="M879.169,-2043.12C862.226,-2077.23 824.816,-2152.56 807.95,-2186.52"/>
</g>
</g>
</svg>
