<?xml version="1.0" encoding="UTF-8" standalone="no"?>
<!DOCTYPE svg PUBLIC "-//W3C//DTD SVG 1.1//EN"
 "http://www.w3.org/Graphics/SVG/1.1/DTD/svg11.dtd">
<!-- Generated by graphviz version 2.38.0 (20140413.2041)
 -->
<!-- Title: %3 Pages: 1 -->
<svg width="1307pt" height="1852pt"
 viewBox="0.00 0.00 1307.00 1852.00" xmlns="http://www.w3.org/2000/svg" xmlns:xlink="http://www.w3.org/1999/xlink">
<g id="graph0" class="graph" transform="scale(1 1) rotate(0) translate(4 1848)">
<title>%3</title>
<polygon fill="white" stroke="none" points="-4,4 -4,-1848 1303,-1848 1303,4 -4,4"/>
<!-- 628 -->
<g id="node1" class="node"><title>628</title>
<g id="a_node1"><a xlink:title="3rd_week">
<ellipse fill="#ee9898" stroke="black" cx="196.224" cy="-504.436" rx="27" ry="18"/>
<text text-anchor="middle" x="196.224" y="-500.736" font-family="Times,serif" font-size="14.00">628</text>
</a>
</g>
</g>
<!-- 19629 -->
<g id="node36" class="node"><title>19629</title>
<g id="a_node36"><a xlink:title="PRE">
<ellipse fill="#71a9f7" stroke="black" cx="381.607" cy="-608.47" rx="32.4942" ry="18"/>
<text text-anchor="middle" x="381.607" y="-604.77" font-family="Times,serif" font-size="14.00">19629</text>
</a>
</g>
</g>
<!-- 628&#45;&gt;19629 -->
<g id="edge10" class="edge"><title>628&#45;&gt;19629</title>
<path fill="none" stroke="black" d="M217.129,-516.168C252.165,-535.829 322.459,-575.277 358.755,-595.646"/>
</g>
<!-- 1027 -->
<g id="node2" class="node"><title>1027</title>
<g id="a_node2"><a xlink:title="PRE">
<ellipse fill="#71a9f7" stroke="black" cx="1253.94" cy="-886.955" rx="28.6953" ry="18"/>
<text text-anchor="middle" x="1253.94" y="-883.255" font-family="Times,serif" font-size="14.00">1027</text>
</a>
</g>
</g>
<!-- 18916 -->
<g id="node35" class="node"><title>18916</title>
<g id="a_node35"><a xlink:title="PRE">
<ellipse fill="#71a9f7" stroke="black" cx="1049.2" cy="-845.857" rx="32.4942" ry="18"/>
<text text-anchor="middle" x="1049.2" y="-842.157" font-family="Times,serif" font-size="14.00">18916</text>
</a>
</g>
</g>
<!-- 1027&#45;&gt;18916 -->
<g id="edge12" class="edge"><title>1027&#45;&gt;18916</title>
<path fill="none" stroke="black" d="M1226.33,-881.412C1188.24,-873.765 1119.77,-860.023 1080.05,-852.048"/>
</g>
<!-- 1244 -->
<g id="node3" class="node"><title>1244</title>
<g id="a_node3"><a xlink:title="PRE">
<ellipse fill="#71a9f7" stroke="black" cx="497.067" cy="-733.708" rx="28.6953" ry="18"/>
<text text-anchor="middle" x="497.067" y="-730.008" font-family="Times,serif" font-size="14.00">1244</text>
</a>
</g>
</g>
<!-- 13569 -->
<g id="node20" class="node"><title>13569</title>
<g id="a_node20"><a xlink:title="PRE">
<ellipse fill="#71a9f7" stroke="black" cx="656.222" cy="-822.823" rx="32.4942" ry="18"/>
<text text-anchor="middle" x="656.222" y="-819.123" font-family="Times,serif" font-size="14.00">13569</text>
</a>
</g>
</g>
<!-- 1244&#45;&gt;13569 -->
<g id="edge25" class="edge"><title>1244&#45;&gt;13569</title>
<path fill="none" stroke="black" d="M518.531,-745.726C548.483,-762.497 602.585,-792.79 633.299,-809.988"/>
</g>
<!-- 2416 -->
<g id="node4" class="node"><title>2416</title>
<g id="a_node4"><a xlink:title="PRE">
<ellipse fill="#71a9f7" stroke="black" cx="582.057" cy="-633.718" rx="28.6953" ry="18"/>
<text text-anchor="middle" x="582.057" y="-630.018" font-family="Times,serif" font-size="14.00">2416</text>
</a>
</g>
</g>
<!-- 2416&#45;&gt;13569 -->
<g id="edge7" class="edge"><title>2416&#45;&gt;13569</title>
<path fill="none" stroke="black" d="M589.034,-651.509C603.206,-687.643 635.207,-769.24 649.317,-805.218"/>
</g>
<!-- 2751 -->
<g id="node5" class="node"><title>2751</title>
<g id="a_node5"><a xlink:title="PRE">
<ellipse fill="#71a9f7" stroke="black" cx="447.061" cy="-1052.81" rx="28.6953" ry="18"/>
<text text-anchor="middle" x="447.061" y="-1049.11" font-family="Times,serif" font-size="14.00">2751</text>
</a>
</g>
</g>
<!-- 9521 -->
<g id="node12" class="node"><title>9521</title>
<g id="a_node12"><a xlink:title="PRE">
<ellipse fill="#71a9f7" stroke="black" cx="306.533" cy="-1214.81" rx="28.6953" ry="18"/>
<text text-anchor="middle" x="306.533" y="-1211.11" font-family="Times,serif" font-size="14.00">9521</text>
</a>
</g>
</g>
<!-- 2751&#45;&gt;9521 -->
<g id="edge24" class="edge"><title>2751&#45;&gt;9521</title>
<path fill="none" stroke="black" d="M433.331,-1068.64C406.534,-1099.53 347.534,-1167.54 320.528,-1198.68"/>
</g>
<!-- 2751&#45;&gt;13569 -->
<g id="edge3" class="edge"><title>2751&#45;&gt;13569</title>
<path fill="none" stroke="black" d="M461.438,-1037C499.556,-995.091 602.919,-881.435 641.466,-839.049"/>
</g>
<!-- 3065 -->
<g id="node6" class="node"><title>3065</title>
<g id="a_node6"><a xlink:title="PRE">
<ellipse fill="#71a9f7" stroke="black" cx="424.944" cy="-342.501" rx="28.6953" ry="18"/>
<text text-anchor="middle" x="424.944" y="-338.801" font-family="Times,serif" font-size="14.00">3065</text>
</a>
</g>
</g>
<!-- 11010 -->
<g id="node16" class="node"><title>11010</title>
<g id="a_node16"><a xlink:title="PRE">
<ellipse fill="#71a9f7" stroke="black" cx="527.343" cy="-573.241" rx="32.4942" ry="18"/>
<text text-anchor="middle" x="527.343" y="-569.541" font-family="Times,serif" font-size="14.00">11010</text>
</a>
</g>
</g>
<!-- 3065&#45;&gt;11010 -->
<g id="edge11" class="edge"><title>3065&#45;&gt;11010</title>
<path fill="none" stroke="black" d="M432.64,-359.844C451.617,-402.605 500.486,-512.725 519.557,-555.697"/>
</g>
<!-- 3821 -->
<g id="node7" class="node"><title>3821</title>
<g id="a_node7"><a xlink:title="PRE">
<ellipse fill="#71a9f7" stroke="black" cx="633.51" cy="-509.445" rx="28.6953" ry="18"/>
<text text-anchor="middle" x="633.51" y="-505.745" font-family="Times,serif" font-size="14.00">3821</text>
</a>
</g>
</g>
<!-- 3821&#45;&gt;13569 -->
<g id="edge23" class="edge"><title>3821&#45;&gt;13569</title>
<path fill="none" stroke="black" d="M634.829,-527.649C638.843,-583.036 650.88,-749.116 654.899,-804.57"/>
</g>
<!-- 15001 -->
<g id="node27" class="node"><title>15001</title>
<g id="a_node27"><a xlink:title="PRE">
<ellipse fill="#71a9f7" stroke="black" cx="616.988" cy="-219.698" rx="32.4942" ry="18"/>
<text text-anchor="middle" x="616.988" y="-215.998" font-family="Times,serif" font-size="14.00">15001</text>
</a>
</g>
</g>
<!-- 3821&#45;&gt;15001 -->
<g id="edge33" class="edge"><title>3821&#45;&gt;15001</title>
<path fill="none" stroke="black" d="M632.476,-491.32C629.509,-439.286 620.987,-289.843 618.021,-237.817"/>
</g>
<!-- 7508 -->
<g id="node8" class="node"><title>7508</title>
<g id="a_node8"><a xlink:title="PRE">
<ellipse fill="#71a9f7" stroke="black" cx="832.394" cy="-602.372" rx="28.6953" ry="18"/>
<text text-anchor="middle" x="832.394" y="-598.672" font-family="Times,serif" font-size="14.00">7508</text>
</a>
</g>
</g>
<!-- 7508&#45;&gt;13569 -->
<g id="edge37" class="edge"><title>7508&#45;&gt;13569</title>
<path fill="none" stroke="black" d="M819.44,-618.582C786.939,-659.251 702.21,-765.277 669.435,-806.29"/>
</g>
<!-- 28784 -->
<g id="node62" class="node"><title>28784</title>
<g id="a_node62"><a xlink:title="PRE">
<ellipse fill="#71a9f7" stroke="black" cx="981.527" cy="-403.059" rx="32.4942" ry="18"/>
<text text-anchor="middle" x="981.527" y="-399.359" font-family="Times,serif" font-size="14.00">28784</text>
</a>
</g>
</g>
<!-- 7508&#45;&gt;28784 -->
<g id="edge16" class="edge"><title>7508&#45;&gt;28784</title>
<path fill="none" stroke="black" d="M844.598,-586.061C872.494,-548.779 940.687,-457.641 968.943,-419.876"/>
</g>
<!-- 8677 -->
<g id="node9" class="node"><title>8677</title>
<g id="a_node9"><a xlink:title="PRE">
<ellipse fill="#71a9f7" stroke="black" cx="525.975" cy="-1011.16" rx="28.6953" ry="18"/>
<text text-anchor="middle" x="525.975" y="-1007.46" font-family="Times,serif" font-size="14.00">8677</text>
</a>
</g>
</g>
<!-- 8677&#45;&gt;13569 -->
<g id="edge26" class="edge"><title>8677&#45;&gt;13569</title>
<path fill="none" stroke="black" d="M537.533,-994.445C562.188,-958.795 619.705,-875.626 644.502,-839.77"/>
</g>
<!-- 8767 -->
<g id="node10" class="node"><title>8767</title>
<g id="a_node10"><a xlink:title="PRE">
<ellipse fill="#71a9f7" stroke="black" cx="750.479" cy="-719.387" rx="28.6953" ry="18"/>
<text text-anchor="middle" x="750.479" y="-715.687" font-family="Times,serif" font-size="14.00">8767</text>
</a>
</g>
</g>
<!-- 8767&#45;&gt;13569 -->
<g id="edge29" class="edge"><title>8767&#45;&gt;13569</title>
<path fill="none" stroke="black" d="M736.163,-735.097C718.55,-754.425 688.799,-787.074 670.984,-806.624"/>
</g>
<!-- 9514 -->
<g id="node11" class="node"><title>9514</title>
<g id="a_node11"><a xlink:title="PRE">
<ellipse fill="#71a9f7" stroke="black" cx="505.636" cy="-807.285" rx="28.6953" ry="18"/>
<text text-anchor="middle" x="505.636" y="-803.585" font-family="Times,serif" font-size="14.00">9514</text>
</a>
</g>
</g>
<!-- 9514&#45;&gt;13569 -->
<g id="edge32" class="edge"><title>9514&#45;&gt;13569</title>
<path fill="none" stroke="black" d="M533.96,-810.207C559.605,-812.854 597.352,-816.749 624.11,-819.51"/>
</g>
<!-- 10081 -->
<g id="node13" class="node"><title>10081</title>
<g id="a_node13"><a xlink:title="PRE">
<ellipse fill="#71a9f7" stroke="black" cx="1046.62" cy="-1826.41" rx="32.4942" ry="18"/>
<text text-anchor="middle" x="1046.62" y="-1822.71" font-family="Times,serif" font-size="14.00">10081</text>
</a>
</g>
</g>
<!-- 22587 -->
<g id="node44" class="node"><title>22587</title>
<g id="a_node44"><a xlink:title="PRE">
<ellipse fill="#71a9f7" stroke="black" cx="978.372" cy="-1648.43" rx="32.4942" ry="18"/>
<text text-anchor="middle" x="978.372" y="-1644.73" font-family="Times,serif" font-size="14.00">22587</text>
</a>
</g>
</g>
<!-- 10081&#45;&gt;22587 -->
<g id="edge38" class="edge"><title>10081&#45;&gt;22587</title>
<path fill="none" stroke="black" d="M1039.83,-1808.69C1026.75,-1774.58 998.199,-1700.13 985.139,-1666.07"/>
</g>
<!-- 10348 -->
<g id="node14" class="node"><title>10348</title>
<g id="a_node14"><a xlink:title="PRE">
<ellipse fill="#71a9f7" stroke="black" cx="561.782" cy="-684.912" rx="32.4942" ry="18"/>
<text text-anchor="middle" x="561.782" y="-681.212" font-family="Times,serif" font-size="14.00">10348</text>
</a>
</g>
</g>
<!-- 10348&#45;&gt;13569 -->
<g id="edge2" class="edge"><title>10348&#45;&gt;13569</title>
<path fill="none" stroke="black" d="M573.363,-701.823C591.488,-728.292 626.364,-779.221 644.547,-805.774"/>
</g>
<!-- 10609 -->
<g id="node15" class="node"><title>10609</title>
<g id="a_node15"><a xlink:title="PRE">
<ellipse fill="#71a9f7" stroke="black" cx="402.964" cy="-768.834" rx="32.4942" ry="18"/>
<text text-anchor="middle" x="402.964" y="-765.134" font-family="Times,serif" font-size="14.00">10609</text>
</a>
</g>
</g>
<!-- 10609&#45;&gt;13569 -->
<g id="edge39" class="edge"><title>10609&#45;&gt;13569</title>
<path fill="none" stroke="black" d="M433.513,-775.346C482.19,-785.723 576.819,-805.896 625.565,-816.288"/>
</g>
<!-- 11010&#45;&gt;13569 -->
<g id="edge35" class="edge"><title>11010&#45;&gt;13569</title>
<path fill="none" stroke="black" d="M536.405,-590.792C560.068,-636.617 623.517,-759.489 647.169,-805.293"/>
</g>
<!-- 11276 -->
<g id="node17" class="node"><title>11276</title>
<g id="a_node17"><a xlink:title="PRE">
<ellipse fill="#71a9f7" stroke="black" cx="34.3478" cy="-919.082" rx="32.4942" ry="18"/>
<text text-anchor="middle" x="34.3478" y="-915.382" font-family="Times,serif" font-size="14.00">11276</text>
</a>
</g>
</g>
<!-- 23441 -->
<g id="node47" class="node"><title>23441</title>
<g id="a_node47"><a xlink:title="PRE">
<ellipse fill="#71a9f7" stroke="black" cx="247.547" cy="-885.99" rx="32.4942" ry="18"/>
<text text-anchor="middle" x="247.547" y="-882.29" font-family="Times,serif" font-size="14.00">23441</text>
</a>
</g>
</g>
<!-- 11276&#45;&gt;23441 -->
<g id="edge4" class="edge"><title>11276&#45;&gt;23441</title>
<path fill="none" stroke="black" d="M65.806,-914.199C106.115,-907.942 175.588,-897.159 215.959,-890.893"/>
</g>
<!-- 11284 -->
<g id="node18" class="node"><title>11284</title>
<g id="a_node18"><a xlink:title="PRE">
<ellipse fill="#71a9f7" stroke="black" cx="487.982" cy="-679.63" rx="32.4942" ry="18"/>
<text text-anchor="middle" x="487.982" y="-675.93" font-family="Times,serif" font-size="14.00">11284</text>
</a>
</g>
</g>
<!-- 11284&#45;&gt;13569 -->
<g id="edge53" class="edge"><title>11284&#45;&gt;13569</title>
<path fill="none" stroke="black" d="M505.987,-694.954C538.368,-722.515 606.06,-780.129 638.347,-807.609"/>
</g>
<!-- 13551 -->
<g id="node19" class="node"><title>13551</title>
<g id="a_node19"><a xlink:title="PRE">
<ellipse fill="#71a9f7" stroke="black" cx="605.344" cy="-17.721" rx="32.4942" ry="18"/>
<text text-anchor="middle" x="605.344" y="-14.021" font-family="Times,serif" font-size="14.00">13551</text>
</a>
</g>
</g>
<!-- 13551&#45;&gt;15001 -->
<g id="edge60" class="edge"><title>13551&#45;&gt;15001</title>
<path fill="none" stroke="black" d="M606.398,-36.0013C608.615,-74.4556 613.737,-163.315 615.945,-201.605"/>
</g>
<!-- 13983 -->
<g id="node22" class="node"><title>13983</title>
<g id="a_node22"><a xlink:title="PRE">
<ellipse fill="#71a9f7" stroke="black" cx="722.134" cy="-1067.73" rx="32.4942" ry="18"/>
<text text-anchor="middle" x="722.134" y="-1064.03" font-family="Times,serif" font-size="14.00">13983</text>
</a>
</g>
</g>
<!-- 13569&#45;&gt;13983 -->
<g id="edge21" class="edge"><title>13569&#45;&gt;13983</title>
<path fill="none" stroke="black" d="M661.069,-840.832C673.258,-886.123 705.084,-1004.38 717.28,-1049.69"/>
</g>
<!-- 14242 -->
<g id="node23" class="node"><title>14242</title>
<g id="a_node23"><a xlink:title="PRE">
<ellipse fill="#71a9f7" stroke="black" cx="742.267" cy="-553.835" rx="32.4942" ry="18"/>
<text text-anchor="middle" x="742.267" y="-550.135" font-family="Times,serif" font-size="14.00">14242</text>
</a>
</g>
</g>
<!-- 13569&#45;&gt;14242 -->
<g id="edge63" class="edge"><title>13569&#45;&gt;14242</title>
<path fill="none" stroke="black" d="M662.001,-804.757C677.676,-755.754 720.867,-620.733 736.512,-571.823"/>
</g>
<!-- 14864 -->
<g id="node24" class="node"><title>14864</title>
<g id="a_node24"><a xlink:title="PRE">
<ellipse fill="#71a9f7" stroke="black" cx="804.058" cy="-1021.42" rx="32.4942" ry="18"/>
<text text-anchor="middle" x="804.058" y="-1017.72" font-family="Times,serif" font-size="14.00">14864</text>
</a>
</g>
</g>
<!-- 13569&#45;&gt;14864 -->
<g id="edge61" class="edge"><title>13569&#45;&gt;14864</title>
<path fill="none" stroke="black" d="M668.826,-839.755C696.757,-877.276 763.585,-967.048 791.486,-1004.53"/>
</g>
<!-- 14916 -->
<g id="node25" class="node"><title>14916</title>
<g id="a_node25"><a xlink:title="PRE">
<ellipse fill="#71a9f7" stroke="black" cx="889.527" cy="-877.763" rx="32.4942" ry="18"/>
<text text-anchor="middle" x="889.527" y="-874.063" font-family="Times,serif" font-size="14.00">14916</text>
</a>
</g>
</g>
<!-- 13569&#45;&gt;14916 -->
<g id="edge27" class="edge"><title>13569&#45;&gt;14916</title>
<path fill="none" stroke="black" d="M686.245,-829.893C731.042,-840.443 814.889,-860.187 859.619,-870.721"/>
</g>
<!-- 14946 -->
<g id="node26" class="node"><title>14946</title>
<g id="a_node26"><a xlink:title="PRE">
<ellipse fill="#71a9f7" stroke="black" cx="660.336" cy="-664.403" rx="32.4942" ry="18"/>
<text text-anchor="middle" x="660.336" y="-660.703" font-family="Times,serif" font-size="14.00">14946</text>
</a>
</g>
</g>
<!-- 13569&#45;&gt;14946 -->
<g id="edge62" class="edge"><title>13569&#45;&gt;14946</title>
<path fill="none" stroke="black" d="M656.694,-804.651C657.483,-774.254 659.063,-713.431 659.857,-682.852"/>
</g>
<!-- 15799 -->
<g id="node28" class="node"><title>15799</title>
<g id="a_node28"><a xlink:title="PRE">
<ellipse fill="#71a9f7" stroke="black" cx="721.557" cy="-1004.66" rx="32.4942" ry="18"/>
<text text-anchor="middle" x="721.557" y="-1000.96" font-family="Times,serif" font-size="14.00">15799</text>
</a>
</g>
</g>
<!-- 13569&#45;&gt;15799 -->
<g id="edge22" class="edge"><title>13569&#45;&gt;15799</title>
<path fill="none" stroke="black" d="M662.606,-840.59C675.096,-875.354 702.637,-952.004 715.148,-986.825"/>
</g>
<!-- 15951 -->
<g id="node29" class="node"><title>15951</title>
<g id="a_node29"><a xlink:title="PRE">
<ellipse fill="#71a9f7" stroke="black" cx="770.42" cy="-949.716" rx="32.4942" ry="18"/>
<text text-anchor="middle" x="770.42" y="-946.016" font-family="Times,serif" font-size="14.00">15951</text>
</a>
</g>
</g>
<!-- 13569&#45;&gt;15951 -->
<g id="edge30" class="edge"><title>13569&#45;&gt;15951</title>
<path fill="none" stroke="black" d="M670.918,-839.153C692.845,-863.518 733.886,-909.121 755.781,-933.45"/>
</g>
<!-- 18127 -->
<g id="node32" class="node"><title>18127</title>
<g id="a_node32"><a xlink:title="PRE">
<ellipse fill="#71a9f7" stroke="black" cx="649.584" cy="-1137.17" rx="32.4942" ry="18"/>
<text text-anchor="middle" x="649.584" y="-1133.47" font-family="Times,serif" font-size="14.00">18127</text>
</a>
</g>
</g>
<!-- 13569&#45;&gt;18127 -->
<g id="edge54" class="edge"><title>13569&#45;&gt;18127</title>
<path fill="none" stroke="black" d="M655.836,-841.083C654.663,-896.641 651.146,-1063.23 649.971,-1118.86"/>
</g>
<!-- 18508 -->
<g id="node34" class="node"><title>18508</title>
<g id="a_node34"><a xlink:title="PRE">
<ellipse fill="#71a9f7" stroke="black" cx="840.643" cy="-668.066" rx="32.4942" ry="18"/>
<text text-anchor="middle" x="840.643" y="-664.366" font-family="Times,serif" font-size="14.00">18508</text>
</a>
</g>
</g>
<!-- 13569&#45;&gt;18508 -->
<g id="edge42" class="edge"><title>13569&#45;&gt;18508</title>
<path fill="none" stroke="black" d="M674.241,-807.703C709.498,-778.117 787.235,-712.883 822.551,-683.248"/>
</g>
<!-- 13569&#45;&gt;18916 -->
<g id="edge41" class="edge"><title>13569&#45;&gt;18916</title>
<path fill="none" stroke="black" d="M688.716,-824.728C762.64,-829.061 942.709,-839.615 1016.67,-843.95"/>
</g>
<!-- 13569&#45;&gt;19629 -->
<g id="edge55" class="edge"><title>13569&#45;&gt;19629</title>
<path fill="none" stroke="black" d="M637.347,-808.09C587.179,-768.931 450.933,-662.583 400.614,-623.307"/>
</g>
<!-- 20757 -->
<g id="node40" class="node"><title>20757</title>
<g id="a_node40"><a xlink:title="PRE">
<ellipse fill="#71a9f7" stroke="black" cx="903.988" cy="-802.848" rx="32.4942" ry="18"/>
<text text-anchor="middle" x="903.988" y="-799.148" font-family="Times,serif" font-size="14.00">20757</text>
</a>
</g>
</g>
<!-- 13569&#45;&gt;20757 -->
<g id="edge19" class="edge"><title>13569&#45;&gt;20757</title>
<path fill="none" stroke="black" d="M688.613,-820.212C736.097,-816.384 824.101,-809.289 871.589,-805.46"/>
</g>
<!-- 21558 -->
<g id="node42" class="node"><title>21558</title>
<g id="a_node42"><a xlink:title="PRE">
<ellipse fill="#71a9f7" stroke="black" cx="888.756" cy="-1032.14" rx="32.4942" ry="18"/>
<text text-anchor="middle" x="888.756" y="-1028.44" font-family="Times,serif" font-size="14.00">21558</text>
</a>
</g>
</g>
<!-- 13569&#45;&gt;21558 -->
<g id="edge17" class="edge"><title>13569&#45;&gt;21558</title>
<path fill="none" stroke="black" d="M673.321,-838.215C716.324,-876.924 828.603,-977.993 871.632,-1016.73"/>
</g>
<!-- 21627 -->
<g id="node43" class="node"><title>21627</title>
<g id="a_node43"><a xlink:title="PRE">
<ellipse fill="#71a9f7" stroke="black" cx="597.49" cy="-1013.07" rx="32.4942" ry="18"/>
<text text-anchor="middle" x="597.49" y="-1009.37" font-family="Times,serif" font-size="14.00">21627</text>
</a>
</g>
</g>
<!-- 13569&#45;&gt;21627 -->
<g id="edge47" class="edge"><title>13569&#45;&gt;21627</title>
<path fill="none" stroke="black" d="M650.697,-840.721C639.503,-876.981 614.261,-958.745 603.043,-995.08"/>
</g>
<!-- 22642 -->
<g id="node45" class="node"><title>22642</title>
<g id="a_node45"><a xlink:title="PRE">
<ellipse fill="#71a9f7" stroke="black" cx="663.087" cy="-613.932" rx="32.4942" ry="18"/>
<text text-anchor="middle" x="663.087" y="-610.232" font-family="Times,serif" font-size="14.00">22642</text>
</a>
</g>
</g>
<!-- 13569&#45;&gt;22642 -->
<g id="edge1" class="edge"><title>13569&#45;&gt;22642</title>
<path fill="none" stroke="black" d="M656.819,-804.651C658.118,-765.145 661.185,-671.814 662.486,-632.211"/>
</g>
<!-- 23362 -->
<g id="node46" class="node"><title>23362</title>
<g id="a_node46"><a xlink:title="PRE">
<ellipse fill="#71a9f7" stroke="black" cx="635.726" cy="-1063.34" rx="32.4942" ry="18"/>
<text text-anchor="middle" x="635.726" y="-1059.64" font-family="Times,serif" font-size="14.00">23362</text>
</a>
</g>
</g>
<!-- 13569&#45;&gt;23362 -->
<g id="edge31" class="edge"><title>13569&#45;&gt;23362</title>
<path fill="none" stroke="black" d="M654.681,-840.901C650.883,-885.474 641.101,-1000.26 637.284,-1045.05"/>
</g>
<!-- 13569&#45;&gt;23441 -->
<g id="edge14" class="edge"><title>13569&#45;&gt;23441</title>
<path fill="none" stroke="black" d="M624.833,-827.675C548.761,-839.433 355.224,-869.347 279.043,-881.122"/>
</g>
<!-- 23503 -->
<g id="node48" class="node"><title>23503</title>
<g id="a_node48"><a xlink:title="PRE">
<ellipse fill="#71a9f7" stroke="black" cx="745.61" cy="-644.047" rx="32.4942" ry="18"/>
<text text-anchor="middle" x="745.61" y="-640.347" font-family="Times,serif" font-size="14.00">23503</text>
</a>
</g>
</g>
<!-- 13569&#45;&gt;23503 -->
<g id="edge18" class="edge"><title>13569&#45;&gt;23503</title>
<path fill="none" stroke="black" d="M664.956,-805.356C682.045,-771.178 719.724,-695.82 736.841,-661.585"/>
</g>
<!-- 24380 -->
<g id="node50" class="node"><title>24380</title>
<g id="a_node50"><a xlink:title="PRE">
<ellipse fill="#71a9f7" stroke="black" cx="854.118" cy="-751.948" rx="32.4942" ry="18"/>
<text text-anchor="middle" x="854.118" y="-748.248" font-family="Times,serif" font-size="14.00">24380</text>
</a>
</g>
</g>
<!-- 13569&#45;&gt;24380 -->
<g id="edge15" class="edge"><title>13569&#45;&gt;24380</title>
<path fill="none" stroke="black" d="M683.739,-812.969C721.441,-799.466 788.771,-775.352 826.517,-761.833"/>
</g>
<!-- 24805 -->
<g id="node51" class="node"><title>24805</title>
<g id="a_node51"><a xlink:title="PRE">
<ellipse fill="#71a9f7" stroke="black" cx="797.692" cy="-825.139" rx="32.4942" ry="18"/>
<text text-anchor="middle" x="797.692" y="-821.439" font-family="Times,serif" font-size="14.00">24805</text>
</a>
</g>
</g>
<!-- 13569&#45;&gt;24805 -->
<g id="edge56" class="edge"><title>13569&#45;&gt;24805</title>
<path fill="none" stroke="black" d="M689.034,-823.36C711.889,-823.735 742.243,-824.231 765.058,-824.605"/>
</g>
<!-- 25260 -->
<g id="node53" class="node"><title>25260</title>
<g id="a_node53"><a xlink:title="PRE">
<ellipse fill="#71a9f7" stroke="black" cx="875.667" cy="-925.192" rx="32.4942" ry="18"/>
<text text-anchor="middle" x="875.667" y="-921.492" font-family="Times,serif" font-size="14.00">25260</text>
</a>
</g>
</g>
<!-- 13569&#45;&gt;25260 -->
<g id="edge64" class="edge"><title>13569&#45;&gt;25260</title>
<path fill="none" stroke="black" d="M681.395,-834.566C723.725,-854.313 808.655,-893.932 850.788,-913.586"/>
</g>
<!-- 25747 -->
<g id="node54" class="node"><title>25747</title>
<g id="a_node54"><a xlink:title="PRE">
<ellipse fill="#71a9f7" stroke="black" cx="431.249" cy="-897.987" rx="32.4942" ry="18"/>
<text text-anchor="middle" x="431.249" y="-894.287" font-family="Times,serif" font-size="14.00">25747</text>
</a>
</g>
</g>
<!-- 13569&#45;&gt;25747 -->
<g id="edge13" class="edge"><title>13569&#45;&gt;25747</title>
<path fill="none" stroke="black" d="M628.184,-832.191C584.955,-846.634 502.514,-874.177 459.286,-888.62"/>
</g>
<!-- 26111 -->
<g id="node55" class="node"><title>26111</title>
<g id="a_node55"><a xlink:title="PRE">
<ellipse fill="#71a9f7" stroke="black" cx="537.914" cy="-1110.43" rx="32.4942" ry="18"/>
<text text-anchor="middle" x="537.914" y="-1106.73" font-family="Times,serif" font-size="14.00">26111</text>
</a>
</g>
</g>
<!-- 13569&#45;&gt;26111 -->
<g id="edge9" class="edge"><title>13569&#45;&gt;26111</title>
<path fill="none" stroke="black" d="M648.999,-840.381C627.878,-891.726 566.384,-1041.22 545.192,-1092.73"/>
</g>
<!-- 26769 -->
<g id="node56" class="node"><title>26769</title>
<g id="a_node56"><a xlink:title="PRE">
<ellipse fill="#71a9f7" stroke="black" cx="916.116" cy="-688.019" rx="32.4942" ry="18"/>
<text text-anchor="middle" x="916.116" y="-684.319" font-family="Times,serif" font-size="14.00">26769</text>
</a>
</g>
</g>
<!-- 13569&#45;&gt;26769 -->
<g id="edge48" class="edge"><title>13569&#45;&gt;26769</title>
<path fill="none" stroke="black" d="M680.206,-810.383C729.717,-784.702 842.729,-726.084 892.19,-700.429"/>
</g>
<!-- 26831 -->
<g id="node57" class="node"><title>26831</title>
<g id="a_node57"><a xlink:title="PRE">
<ellipse fill="#71a9f7" stroke="black" cx="412.604" cy="-839.398" rx="32.4942" ry="18"/>
<text text-anchor="middle" x="412.604" y="-835.698" font-family="Times,serif" font-size="14.00">26831</text>
</a>
</g>
</g>
<!-- 13569&#45;&gt;26831 -->
<g id="edge51" class="edge"><title>13569&#45;&gt;26831</title>
<path fill="none" stroke="black" d="M623.871,-825.024C577.276,-828.195 491.758,-834.013 445.089,-837.188"/>
</g>
<!-- 27537 -->
<g id="node58" class="node"><title>27537</title>
<g id="a_node58"><a xlink:title="PRE">
<ellipse fill="#71a9f7" stroke="black" cx="785.645" cy="-1151.28" rx="32.4942" ry="18"/>
<text text-anchor="middle" x="785.645" y="-1147.58" font-family="Times,serif" font-size="14.00">27537</text>
</a>
</g>
</g>
<!-- 13569&#45;&gt;27537 -->
<g id="edge52" class="edge"><title>13569&#45;&gt;27537</title>
<path fill="none" stroke="black" d="M663.18,-840.483C685.652,-897.514 756.131,-1076.38 778.652,-1133.53"/>
</g>
<!-- 28615 -->
<g id="node61" class="node"><title>28615</title>
<g id="a_node61"><a xlink:title="PRE">
<ellipse fill="#71a9f7" stroke="black" cx="444.692" cy="-951.508" rx="32.4942" ry="18"/>
<text text-anchor="middle" x="444.692" y="-947.808" font-family="Times,serif" font-size="14.00">28615</text>
</a>
</g>
</g>
<!-- 13569&#45;&gt;28615 -->
<g id="edge40" class="edge"><title>13569&#45;&gt;28615</title>
<path fill="none" stroke="black" d="M633.984,-836.352C593.252,-861.131 507.141,-913.517 466.632,-938.161"/>
</g>
<!-- 29194 -->
<g id="node64" class="node"><title>29194</title>
<g id="a_node64"><a xlink:title="PRE">
<ellipse fill="#71a9f7" stroke="black" cx="541.702" cy="-929.245" rx="32.4942" ry="18"/>
<text text-anchor="middle" x="541.702" y="-925.545" font-family="Times,serif" font-size="14.00">29194</text>
</a>
</g>
</g>
<!-- 13569&#45;&gt;29194 -->
<g id="edge28" class="edge"><title>13569&#45;&gt;29194</title>
<path fill="none" stroke="black" d="M639.324,-838.526C617.672,-858.647 580.354,-893.326 558.669,-913.478"/>
</g>
<!-- 13703 -->
<g id="node21" class="node"><title>13703</title>
<g id="a_node21"><a xlink:title="PRE">
<ellipse fill="#71a9f7" stroke="black" cx="50.5316" cy="-797.879" rx="32.4942" ry="18"/>
<text text-anchor="middle" x="50.5316" y="-794.179" font-family="Times,serif" font-size="14.00">13703</text>
</a>
</g>
</g>
<!-- 13703&#45;&gt;23441 -->
<g id="edge45" class="edge"><title>13703&#45;&gt;23441</title>
<path fill="none" stroke="black" d="M75.8846,-809.218C113.61,-826.09 184.129,-857.628 221.979,-874.555"/>
</g>
<!-- 16540 -->
<g id="node30" class="node"><title>16540</title>
<g id="a_node30"><a xlink:title="PRE">
<ellipse fill="#71a9f7" stroke="black" cx="819.382" cy="-312.775" rx="32.4942" ry="18"/>
<text text-anchor="middle" x="819.382" y="-309.075" font-family="Times,serif" font-size="14.00">16540</text>
</a>
</g>
</g>
<!-- 14242&#45;&gt;16540 -->
<g id="edge34" class="edge"><title>14242&#45;&gt;16540</title>
<path fill="none" stroke="black" d="M747.937,-536.109C762.198,-491.53 799.433,-375.134 813.703,-330.527"/>
</g>
<!-- 17872 -->
<g id="node31" class="node"><title>17872</title>
<g id="a_node31"><a xlink:title="PRE">
<ellipse fill="#71a9f7" stroke="black" cx="1051.5" cy="-1181.46" rx="32.4942" ry="18"/>
<text text-anchor="middle" x="1051.5" y="-1177.76" font-family="Times,serif" font-size="14.00">17872</text>
</a>
</g>
</g>
<!-- 17872&#45;&gt;21558 -->
<g id="edge50" class="edge"><title>17872&#45;&gt;21558</title>
<path fill="none" stroke="black" d="M1034.7,-1166.04C1003.51,-1137.43 937.013,-1076.42 905.712,-1047.7"/>
</g>
<!-- 27448 -->
<g id="node65" class="node"><title>27448</title>
<g id="a_node65"><a xlink:title="PRE">
<ellipse fill="#71a9f7" stroke="black" cx="644.088" cy="-1359.67" rx="32.4942" ry="18"/>
<text text-anchor="middle" x="644.088" y="-1355.97" font-family="Times,serif" font-size="14.00">27448</text>
</a>
</g>
</g>
<!-- 18127&#45;&gt;27448 -->
<g id="edge49" class="edge"><title>18127&#45;&gt;27448</title>
<path fill="none" stroke="black" d="M649.135,-1155.38C648.101,-1197.2 645.568,-1299.75 644.536,-1341.52"/>
</g>
<!-- 18283 -->
<g id="node33" class="node"><title>18283</title>
<g id="a_node33"><a xlink:title="PRE">
<ellipse fill="#71a9f7" stroke="black" cx="1266.44" cy="-824.759" rx="32.4942" ry="18"/>
<text text-anchor="middle" x="1266.44" y="-821.059" font-family="Times,serif" font-size="14.00">18283</text>
</a>
</g>
</g>
<!-- 18283&#45;&gt;18916 -->
<g id="edge20" class="edge"><title>18283&#45;&gt;18916</title>
<path fill="none" stroke="black" d="M1234.38,-827.872C1193.31,-831.861 1122.52,-838.736 1081.39,-842.731"/>
</g>
<!-- 20041 -->
<g id="node38" class="node"><title>20041</title>
<g id="a_node38"><a xlink:title="PRE">
<ellipse fill="#71a9f7" stroke="black" cx="1248.41" cy="-758.705" rx="32.4942" ry="18"/>
<text text-anchor="middle" x="1248.41" y="-755.005" font-family="Times,serif" font-size="14.00">20041</text>
</a>
</g>
</g>
<!-- 18916&#45;&gt;20041 -->
<g id="edge57" class="edge"><title>18916&#45;&gt;20041</title>
<path fill="none" stroke="black" d="M1074.84,-834.642C1113.09,-817.907 1184.68,-786.586 1222.87,-769.877"/>
</g>
<!-- 24098 -->
<g id="node49" class="node"><title>24098</title>
<g id="a_node49"><a xlink:title="PRE">
<ellipse fill="#71a9f7" stroke="black" cx="1234.86" cy="-951.54" rx="32.4942" ry="18"/>
<text text-anchor="middle" x="1234.86" y="-947.84" font-family="Times,serif" font-size="14.00">24098</text>
</a>
</g>
</g>
<!-- 18916&#45;&gt;24098 -->
<g id="edge43" class="edge"><title>18916&#45;&gt;24098</title>
<path fill="none" stroke="black" d="M1071.97,-858.816C1107.6,-879.099 1176.16,-918.127 1211.91,-938.475"/>
</g>
<!-- 27638 -->
<g id="node59" class="node"><title>27638</title>
<g id="a_node59"><a xlink:title="PRE">
<ellipse fill="#71a9f7" stroke="black" cx="243.634" cy="-439.23" rx="32.4942" ry="18"/>
<text text-anchor="middle" x="243.634" y="-435.53" font-family="Times,serif" font-size="14.00">27638</text>
</a>
</g>
</g>
<!-- 19629&#45;&gt;27638 -->
<g id="edge5" class="edge"><title>19629&#45;&gt;27638</title>
<path fill="none" stroke="black" d="M368.126,-591.935C341.817,-559.663 283.889,-488.608 257.374,-456.083"/>
</g>
<!-- 19977 -->
<g id="node37" class="node"><title>19977</title>
<g id="a_node37"><a xlink:title="PRE">
<ellipse fill="#71a9f7" stroke="black" cx="1127.18" cy="-544.145" rx="32.4942" ry="18"/>
<text text-anchor="middle" x="1127.18" y="-540.445" font-family="Times,serif" font-size="14.00">19977</text>
</a>
</g>
</g>
<!-- 19977&#45;&gt;26769 -->
<g id="edge58" class="edge"><title>19977&#45;&gt;26769</title>
<path fill="none" stroke="black" d="M1106.55,-558.203C1066.21,-585.708 977.239,-646.354 936.822,-673.905"/>
</g>
<!-- 20371 -->
<g id="node39" class="node"><title>20371</title>
<g id="a_node39"><a xlink:title="PRE">
<ellipse fill="#71a9f7" stroke="black" cx="89.3181" cy="-1027.55" rx="32.4942" ry="18"/>
<text text-anchor="middle" x="89.3181" y="-1023.85" font-family="Times,serif" font-size="14.00">20371</text>
</a>
</g>
</g>
<!-- 20371&#45;&gt;23441 -->
<g id="edge36" class="edge"><title>20371&#45;&gt;23441</title>
<path fill="none" stroke="black" d="M106.553,-1012.13C136.989,-984.902 199.912,-928.607 230.333,-901.39"/>
</g>
<!-- 21121 -->
<g id="node41" class="node"><title>21121</title>
<g id="a_node41"><a xlink:title="PRE">
<ellipse fill="#71a9f7" stroke="black" cx="52.2958" cy="-975.152" rx="32.4942" ry="18"/>
<text text-anchor="middle" x="52.2958" y="-971.452" font-family="Times,serif" font-size="14.00">21121</text>
</a>
</g>
</g>
<!-- 21121&#45;&gt;23441 -->
<g id="edge6" class="edge"><title>21121&#45;&gt;23441</title>
<path fill="none" stroke="black" d="M77.4217,-963.678C114.809,-946.605 184.697,-914.69 222.208,-897.561"/>
</g>
<!-- 25248 -->
<g id="node52" class="node"><title>25248</title>
<g id="a_node52"><a xlink:title="PRE">
<ellipse fill="#71a9f7" stroke="black" cx="884.411" cy="-1403.12" rx="32.4942" ry="18"/>
<text text-anchor="middle" x="884.411" y="-1399.42" font-family="Times,serif" font-size="14.00">25248</text>
</a>
</g>
</g>
<!-- 22587&#45;&gt;25248 -->
<g id="edge44" class="edge"><title>22587&#45;&gt;25248</title>
<path fill="none" stroke="black" d="M971.615,-1630.79C954.32,-1585.63 908.599,-1466.27 891.233,-1420.93"/>
</g>
<!-- 28141 -->
<g id="node60" class="node"><title>28141</title>
<g id="a_node60"><a xlink:title="PRE">
<ellipse fill="#71a9f7" stroke="black" cx="32.6301" cy="-860.066" rx="32.4942" ry="18"/>
<text text-anchor="middle" x="32.6301" y="-856.366" font-family="Times,serif" font-size="14.00">28141</text>
</a>
</g>
</g>
<!-- 23441&#45;&gt;28141 -->
<g id="edge59" class="edge"><title>23441&#45;&gt;28141</title>
<path fill="none" stroke="black" d="M215.371,-882.109C174.738,-877.207 105.245,-868.825 64.6737,-863.931"/>
</g>
<!-- 25248&#45;&gt;27537 -->
<g id="edge8" class="edge"><title>25248&#45;&gt;27537</title>
<path fill="none" stroke="black" d="M877.466,-1385.41C859.331,-1339.17 810.708,-1215.19 792.583,-1168.97"/>
</g>
<!-- 29053 -->
<g id="node63" class="node"><title>29053</title>
<g id="a_node63"><a xlink:title="PRE">
<ellipse fill="#71a9f7" stroke="black" cx="454.349" cy="-1317.66" rx="32.4942" ry="18"/>
<text text-anchor="middle" x="454.349" y="-1313.96" font-family="Times,serif" font-size="14.00">29053</text>
</a>
</g>
</g>
<!-- 26111&#45;&gt;29053 -->
<g id="edge46" class="edge"><title>26111&#45;&gt;29053</title>
<path fill="none" stroke="black" d="M530.789,-1128.1C515.002,-1167.25 477.227,-1260.92 461.456,-1300.03"/>
</g>
</g>
</svg>
