<?xml version="1.0" encoding="UTF-8" standalone="no"?>
<!DOCTYPE svg PUBLIC "-//W3C//DTD SVG 1.1//EN"
 "http://www.w3.org/Graphics/SVG/1.1/DTD/svg11.dtd">
<!-- Generated by graphviz version 2.38.0 (20140413.2041)
 -->
<!-- Title: %3 Pages: 1 -->
<svg width="1428pt" height="1509pt"
 viewBox="0.00 0.00 1428.00 1509.00" xmlns="http://www.w3.org/2000/svg" xmlns:xlink="http://www.w3.org/1999/xlink">
<g id="graph0" class="graph" transform="scale(1 1) rotate(0) translate(4 1505)">
<title>%3</title>
<polygon fill="white" stroke="none" points="-4,4 -4,-1505 1424,-1505 1424,4 -4,4"/>
<!-- 134 -->
<g id="node1" class="node"><title>134</title>
<g id="a_node1"><a xlink:title="6th_week">
<ellipse fill="#c81d25" stroke="black" cx="1154.51" cy="-121.475" rx="27" ry="18"/>
<text text-anchor="middle" x="1154.51" y="-117.775" font-family="Times,serif" font-size="14.00">134</text>
</a>
</g>
</g>
<!-- 18627 -->
<g id="node19" class="node"><title>18627</title>
<g id="a_node19"><a xlink:title="6th_week">
<ellipse fill="#c81d25" stroke="black" cx="1037.23" cy="-215.453" rx="32.4942" ry="18"/>
<text text-anchor="middle" x="1037.23" y="-211.753" font-family="Times,serif" font-size="14.00">18627</text>
</a>
</g>
</g>
<!-- 134&#45;&gt;18627 -->
<g id="edge10" class="edge"><title>134&#45;&gt;18627</title>
<path fill="none" stroke="black" d="M1137.21,-135.342C1115.42,-152.804 1078.13,-182.682 1055.77,-200.597"/>
</g>
<!-- 1425 -->
<g id="node2" class="node"><title>1425</title>
<g id="a_node2"><a xlink:title="3rd_week">
<ellipse fill="#ee9898" stroke="black" cx="1126.3" cy="-1266.07" rx="28.6953" ry="18"/>
<text text-anchor="middle" x="1126.3" y="-1262.37" font-family="Times,serif" font-size="14.00">1425</text>
</a>
</g>
</g>
<!-- 4379 -->
<g id="node6" class="node"><title>4379</title>
<g id="a_node6"><a xlink:title="3rd_week">
<ellipse fill="#ee9898" stroke="black" cx="1021.76" cy="-1135.39" rx="28.6953" ry="18"/>
<text text-anchor="middle" x="1021.76" y="-1131.69" font-family="Times,serif" font-size="14.00">4379</text>
</a>
</g>
</g>
<!-- 1425&#45;&gt;4379 -->
<g id="edge8" class="edge"><title>1425&#45;&gt;4379</title>
<path fill="none" stroke="black" d="M1113.27,-1249.78C1093.13,-1224.61 1054.67,-1176.53 1034.63,-1151.47"/>
</g>
<!-- 4403 -->
<g id="node25" class="node"><title>4403</title>
<g id="a_node25"><a xlink:title="6th_week">
<ellipse fill="#c81d25" stroke="black" cx="1198.24" cy="-1369.43" rx="28.6953" ry="18"/>
<text text-anchor="middle" x="1198.24" y="-1365.73" font-family="Times,serif" font-size="14.00">4403</text>
</a>
</g>
</g>
<!-- 1425&#45;&gt;4403 -->
<g id="edge37" class="edge"><title>1425&#45;&gt;4403</title>
<path fill="none" stroke="black" d="M1137.86,-1282.68C1151.28,-1301.96 1173.3,-1333.59 1186.71,-1352.86"/>
</g>
<!-- 1913 -->
<g id="node3" class="node"><title>1913</title>
<g id="a_node3"><a xlink:title="3rd_week">
<ellipse fill="#ee9898" stroke="black" cx="605.087" cy="-697.289" rx="28.6953" ry="18"/>
<text text-anchor="middle" x="605.087" y="-693.589" font-family="Times,serif" font-size="14.00">1913</text>
</a>
</g>
</g>
<!-- 7933 -->
<g id="node29" class="node"><title>7933</title>
<g id="a_node29"><a xlink:title="6th_week">
<ellipse fill="#c81d25" stroke="black" cx="764.324" cy="-718.204" rx="28.6953" ry="18"/>
<text text-anchor="middle" x="764.324" y="-714.504" font-family="Times,serif" font-size="14.00">7933</text>
</a>
</g>
</g>
<!-- 1913&#45;&gt;7933 -->
<g id="edge18" class="edge"><title>1913&#45;&gt;7933</title>
<path fill="none" stroke="black" d="M633.189,-700.98C662.207,-704.791 707.223,-710.704 736.236,-714.514"/>
</g>
<!-- 13405 -->
<g id="node36" class="node"><title>13405</title>
<g id="a_node36"><a xlink:title="3rd_week">
<ellipse fill="#ee9898" stroke="black" cx="481.077" cy="-691.53" rx="32.4942" ry="18"/>
<text text-anchor="middle" x="481.077" y="-687.83" font-family="Times,serif" font-size="14.00">13405</text>
</a>
</g>
</g>
<!-- 1913&#45;&gt;13405 -->
<g id="edge27" class="edge"><title>1913&#45;&gt;13405</title>
<path fill="none" stroke="black" d="M576.325,-695.953C557.579,-695.083 533.077,-693.945 513.619,-693.041"/>
</g>
<!-- 15608 -->
<g id="node39" class="node"><title>15608</title>
<g id="a_node39"><a xlink:title="3rd_week">
<ellipse fill="#ee9898" stroke="black" cx="444.451" cy="-748.443" rx="32.4942" ry="18"/>
<text text-anchor="middle" x="444.451" y="-744.743" font-family="Times,serif" font-size="14.00">15608</text>
</a>
</g>
</g>
<!-- 1913&#45;&gt;15608 -->
<g id="edge1" class="edge"><title>1913&#45;&gt;15608</title>
<path fill="none" stroke="black" d="M579.278,-705.508C550.1,-714.799 502.749,-729.878 472.628,-739.47"/>
</g>
<!-- 21573 -->
<g id="node44" class="node"><title>21573</title>
<g id="a_node44"><a xlink:title="3rd_week">
<ellipse fill="#ee9898" stroke="black" cx="534.638" cy="-588.092" rx="32.4942" ry="18"/>
<text text-anchor="middle" x="534.638" y="-584.392" font-family="Times,serif" font-size="14.00">21573</text>
</a>
</g>
</g>
<!-- 1913&#45;&gt;21573 -->
<g id="edge38" class="edge"><title>1913&#45;&gt;21573</title>
<path fill="none" stroke="black" d="M594.08,-680.227C580.922,-659.833 559.027,-625.895 545.801,-605.395"/>
</g>
<!-- 22221 -->
<g id="node45" class="node"><title>22221</title>
<g id="a_node45"><a xlink:title="3rd_week">
<ellipse fill="#ee9898" stroke="black" cx="460.295" cy="-629.997" rx="32.4942" ry="18"/>
<text text-anchor="middle" x="460.295" y="-626.297" font-family="Times,serif" font-size="14.00">22221</text>
</a>
</g>
</g>
<!-- 1913&#45;&gt;22221 -->
<g id="edge14" class="edge"><title>1913&#45;&gt;22221</title>
<path fill="none" stroke="black" d="M581.824,-686.477C555.444,-674.217 512.584,-654.298 485.446,-641.686"/>
</g>
<!-- 1942 -->
<g id="node4" class="node"><title>1942</title>
<g id="a_node4"><a xlink:title="6th_week">
<ellipse fill="#c81d25" stroke="black" cx="1159.13" cy="-252.09" rx="28.6953" ry="18"/>
<text text-anchor="middle" x="1159.13" y="-248.39" font-family="Times,serif" font-size="14.00">1942</text>
</a>
</g>
</g>
<!-- 5718 -->
<g id="node9" class="node"><title>5718</title>
<g id="a_node9"><a xlink:title="3rd_week">
<ellipse fill="#ee9898" stroke="black" cx="1083.67" cy="-341.695" rx="28.6953" ry="18"/>
<text text-anchor="middle" x="1083.67" y="-337.995" font-family="Times,serif" font-size="14.00">5718</text>
</a>
</g>
</g>
<!-- 1942&#45;&gt;5718 -->
<g id="edge33" class="edge"><title>1942&#45;&gt;5718</title>
<path fill="none" stroke="black" d="M1145.64,-268.11C1131.99,-284.319 1111,-309.245 1097.3,-325.512"/>
</g>
<!-- 3577 -->
<g id="node5" class="node"><title>3577</title>
<g id="a_node5"><a xlink:title="3rd_week">
<ellipse fill="#ee9898" stroke="black" cx="1122.64" cy="-410.508" rx="28.6953" ry="18"/>
<text text-anchor="middle" x="1122.64" y="-406.808" font-family="Times,serif" font-size="14.00">3577</text>
</a>
</g>
</g>
<!-- 7250 -->
<g id="node10" class="node"><title>7250</title>
<g id="a_node10"><a xlink:title="3rd_week">
<ellipse fill="#ee9898" stroke="black" cx="1241.22" cy="-380.008" rx="28.6953" ry="18"/>
<text text-anchor="middle" x="1241.22" y="-376.308" font-family="Times,serif" font-size="14.00">7250</text>
</a>
</g>
</g>
<!-- 3577&#45;&gt;7250 -->
<g id="edge6" class="edge"><title>3577&#45;&gt;7250</title>
<path fill="none" stroke="black" d="M1149.26,-403.664C1168.79,-398.64 1195.19,-391.848 1214.7,-386.83"/>
</g>
<!-- 8519 -->
<g id="node11" class="node"><title>8519</title>
<g id="a_node11"><a xlink:title="3rd_week">
<ellipse fill="#ee9898" stroke="black" cx="1210.72" cy="-332.42" rx="28.6953" ry="18"/>
<text text-anchor="middle" x="1210.72" y="-328.72" font-family="Times,serif" font-size="14.00">8519</text>
</a>
</g>
</g>
<!-- 3577&#45;&gt;8519 -->
<g id="edge45" class="edge"><title>3577&#45;&gt;8519</title>
<path fill="none" stroke="black" d="M1139.21,-395.821C1154.86,-381.948 1178.21,-361.245 1193.93,-347.308"/>
</g>
<!-- 17205 -->
<g id="node16" class="node"><title>17205</title>
<g id="a_node16"><a xlink:title="3rd_week,6th_week">
<ellipse fill="#ee9898" stroke="black" cx="1004.45" cy="-337.167" rx="32.4945" ry="18"/>
<ellipse fill="none" stroke="black" cx="1004.45" cy="-337.167" rx="36.4942" ry="22"/>
<text text-anchor="middle" x="1004.45" y="-333.467" font-family="Times,serif" font-size="14.00">17205</text>
</a>
</g>
</g>
<!-- 3577&#45;&gt;17205 -->
<g id="edge44" class="edge"><title>3577&#45;&gt;17205</title>
<path fill="none" stroke="black" d="M1102.06,-397.733C1082.08,-385.339 1051.71,-366.494 1030.16,-353.12"/>
</g>
<!-- 17833 -->
<g id="node17" class="node"><title>17833</title>
<g id="a_node17"><a xlink:title="3rd_week">
<ellipse fill="#ee9898" stroke="black" cx="1079.27" cy="-561.274" rx="32.4942" ry="18"/>
<text text-anchor="middle" x="1079.27" y="-557.574" font-family="Times,serif" font-size="14.00">17833</text>
</a>
</g>
</g>
<!-- 3577&#45;&gt;17833 -->
<g id="edge13" class="edge"><title>3577&#45;&gt;17833</title>
<path fill="none" stroke="black" d="M1117.5,-428.395C1109.15,-457.411 1092.75,-514.409 1084.41,-543.41"/>
</g>
<!-- 19585 -->
<g id="node20" class="node"><title>19585</title>
<g id="a_node20"><a xlink:title="3rd_week">
<ellipse fill="#ee9898" stroke="black" cx="1001.42" cy="-959.029" rx="32.4942" ry="18"/>
<text text-anchor="middle" x="1001.42" y="-955.329" font-family="Times,serif" font-size="14.00">19585</text>
</a>
</g>
</g>
<!-- 4379&#45;&gt;19585 -->
<g id="edge30" class="edge"><title>4379&#45;&gt;19585</title>
<path fill="none" stroke="black" d="M1019.66,-1117.18C1015.76,-1083.3 1007.41,-1010.95 1003.51,-977.14"/>
</g>
<!-- 7449 -->
<g id="node28" class="node"><title>7449</title>
<g id="a_node28"><a xlink:title="3rd_week">
<ellipse fill="#ee9898" stroke="black" cx="904.441" cy="-1235.49" rx="28.6953" ry="18"/>
<text text-anchor="middle" x="904.441" y="-1231.79" font-family="Times,serif" font-size="14.00">7449</text>
</a>
</g>
</g>
<!-- 4379&#45;&gt;7449 -->
<g id="edge34" class="edge"><title>4379&#45;&gt;7449</title>
<path fill="none" stroke="black" d="M1004.7,-1149.95C982.461,-1168.92 943.775,-1201.93 921.521,-1220.91"/>
</g>
<!-- 19276 -->
<g id="node41" class="node"><title>19276</title>
<g id="a_node41"><a xlink:title="3rd_week">
<ellipse fill="#ee9898" stroke="black" cx="994.155" cy="-1279.51" rx="32.4942" ry="18"/>
<text text-anchor="middle" x="994.155" y="-1275.81" font-family="Times,serif" font-size="14.00">19276</text>
</a>
</g>
</g>
<!-- 4379&#45;&gt;19276 -->
<g id="edge4" class="edge"><title>4379&#45;&gt;19276</title>
<path fill="none" stroke="black" d="M1018.32,-1153.35C1013.03,-1180.97 1002.96,-1233.57 997.639,-1261.32"/>
</g>
<!-- 4494 -->
<g id="node7" class="node"><title>4494</title>
<g id="a_node7"><a xlink:title="3rd_week,6th_week">
<ellipse fill="#ee9898" stroke="black" cx="1065.81" cy="-165.372" rx="28.6832" ry="18"/>
<ellipse fill="none" stroke="black" cx="1065.81" cy="-165.372" rx="32.6952" ry="22"/>
<text text-anchor="middle" x="1065.81" y="-161.672" font-family="Times,serif" font-size="14.00">4494</text>
</a>
</g>
</g>
<!-- 4841 -->
<g id="node8" class="node"><title>4841</title>
<g id="a_node8"><a xlink:title="3rd_week">
<ellipse fill="#ee9898" stroke="black" cx="1013.57" cy="-31.5395" rx="28.6953" ry="18"/>
<text text-anchor="middle" x="1013.57" y="-27.8395" font-family="Times,serif" font-size="14.00">4841</text>
</a>
</g>
</g>
<!-- 4494&#45;&gt;4841 -->
<g id="edge35" class="edge"><title>4494&#45;&gt;4841</title>
<path fill="none" stroke="black" d="M1057.41,-143.869C1047.15,-117.565 1029.96,-73.5331 1020.44,-49.1432"/>
</g>
<!-- 4494&#45;&gt;5718 -->
<g id="edge51" class="edge"><title>4494&#45;&gt;5718</title>
<path fill="none" stroke="black" d="M1068.03,-187.347C1071.61,-222.612 1078.55,-291.174 1081.85,-323.717"/>
</g>
<!-- 9618 -->
<g id="node12" class="node"><title>9618</title>
<g id="a_node12"><a xlink:title="3rd_week">
<ellipse fill="#ee9898" stroke="black" cx="1091.73" cy="-17.8669" rx="28.6953" ry="18"/>
<text text-anchor="middle" x="1091.73" y="-14.1669" font-family="Times,serif" font-size="14.00">9618</text>
</a>
</g>
</g>
<!-- 4494&#45;&gt;9618 -->
<g id="edge23" class="edge"><title>4494&#45;&gt;9618</title>
<path fill="none" stroke="black" d="M1069.69,-143.289C1074.83,-114.035 1083.8,-62.984 1088.56,-35.9147"/>
</g>
<!-- 10208 -->
<g id="node13" class="node"><title>10208</title>
<g id="a_node13"><a xlink:title="3rd_week">
<ellipse fill="#ee9898" stroke="black" cx="1167.52" cy="-46.9721" rx="32.4942" ry="18"/>
<text text-anchor="middle" x="1167.52" y="-43.2721" font-family="Times,serif" font-size="14.00">10208</text>
</a>
</g>
</g>
<!-- 4494&#45;&gt;10208 -->
<g id="edge11" class="edge"><title>4494&#45;&gt;10208</title>
<path fill="none" stroke="black" d="M1082.37,-146.085C1102.08,-123.151 1134.63,-85.2565 1153.26,-63.5725"/>
</g>
<!-- 5718&#45;&gt;17833 -->
<g id="edge41" class="edge"><title>5718&#45;&gt;17833</title>
<path fill="none" stroke="black" d="M1083.3,-360.039C1082.47,-401.474 1080.46,-501.898 1079.63,-543.137"/>
</g>
<!-- 5718&#45;&gt;18627 -->
<g id="edge25" class="edge"><title>5718&#45;&gt;18627</title>
<path fill="none" stroke="black" d="M1077.21,-324.142C1068.39,-300.158 1052.65,-257.381 1043.78,-233.264"/>
</g>
<!-- 13374 -->
<g id="node14" class="node"><title>13374</title>
<g id="a_node14"><a xlink:title="6th_week">
<ellipse fill="#c81d25" stroke="black" cx="959.061" cy="-108.319" rx="32.4942" ry="18"/>
<text text-anchor="middle" x="959.061" y="-104.619" font-family="Times,serif" font-size="14.00">13374</text>
</a>
</g>
</g>
<!-- 13374&#45;&gt;18627 -->
<g id="edge40" class="edge"><title>13374&#45;&gt;18627</title>
<path fill="none" stroke="black" d="M971.275,-125.059C985.875,-145.068 1010.17,-178.364 1024.84,-198.477"/>
</g>
<!-- 15845 -->
<g id="node15" class="node"><title>15845</title>
<g id="a_node15"><a xlink:title="3rd_week">
<ellipse fill="#ee9898" stroke="black" cx="1192.15" cy="-510.121" rx="32.4942" ry="18"/>
<text text-anchor="middle" x="1192.15" y="-506.421" font-family="Times,serif" font-size="14.00">15845</text>
</a>
</g>
</g>
<!-- 15845&#45;&gt;17833 -->
<g id="edge47" class="edge"><title>15845&#45;&gt;17833</title>
<path fill="none" stroke="black" d="M1166.81,-521.601C1148.22,-530.025 1123.09,-541.417 1104.52,-549.832"/>
</g>
<!-- 18481 -->
<g id="node18" class="node"><title>18481</title>
<g id="a_node18"><a xlink:title="3rd_week">
<ellipse fill="#ee9898" stroke="black" cx="891.379" cy="-244.395" rx="32.4942" ry="18"/>
<text text-anchor="middle" x="891.379" y="-240.695" font-family="Times,serif" font-size="14.00">18481</text>
</a>
</g>
</g>
<!-- 17205&#45;&gt;18481 -->
<g id="edge20" class="edge"><title>17205&#45;&gt;18481</title>
<path fill="none" stroke="black" d="M982.648,-319.279C961.471,-301.904 929.677,-275.818 909.75,-259.468"/>
</g>
<!-- 21202 -->
<g id="node21" class="node"><title>21202</title>
<g id="a_node21"><a xlink:title="3rd_week,6th_week">
<ellipse fill="#ee9898" stroke="black" cx="968.698" cy="-740.872" rx="32.4945" ry="18"/>
<ellipse fill="none" stroke="black" cx="968.698" cy="-740.872" rx="36.4942" ry="22"/>
<text text-anchor="middle" x="968.698" y="-737.172" font-family="Times,serif" font-size="14.00">21202</text>
</a>
</g>
</g>
<!-- 17833&#45;&gt;21202 -->
<g id="edge19" class="edge"><title>17833&#45;&gt;21202</title>
<path fill="none" stroke="black" d="M1068.67,-578.494C1048.23,-611.682 1003.48,-684.371 981.458,-720.147"/>
</g>
<!-- 5333 -->
<g id="node26" class="node"><title>5333</title>
<g id="a_node26"><a xlink:title="3rd_week">
<ellipse fill="#ee9898" stroke="black" cx="1262.03" cy="-576.197" rx="28.6953" ry="18"/>
<text text-anchor="middle" x="1262.03" y="-572.497" font-family="Times,serif" font-size="14.00">5333</text>
</a>
</g>
</g>
<!-- 17833&#45;&gt;5333 -->
<g id="edge28" class="edge"><title>17833&#45;&gt;5333</title>
<path fill="none" stroke="black" d="M1111.52,-563.907C1146.05,-566.727 1200.33,-571.159 1233.4,-573.86"/>
</g>
<!-- 23075 -->
<g id="node47" class="node"><title>23075</title>
<g id="a_node47"><a xlink:title="6th_week">
<ellipse fill="#c81d25" stroke="black" cx="1176.36" cy="-629.416" rx="32.4942" ry="18"/>
<text text-anchor="middle" x="1176.36" y="-625.716" font-family="Times,serif" font-size="14.00">23075</text>
</a>
</g>
</g>
<!-- 17833&#45;&gt;23075 -->
<g id="edge26" class="edge"><title>17833&#45;&gt;23075</title>
<path fill="none" stroke="black" d="M1099.86,-575.725C1116.45,-587.367 1139.64,-603.646 1156.13,-615.219"/>
</g>
<!-- 19585&#45;&gt;21202 -->
<g id="edge2" class="edge"><title>19585&#45;&gt;21202</title>
<path fill="none" stroke="black" d="M998.689,-940.805C992.714,-900.969 978.506,-806.255 972.024,-763.047"/>
</g>
<!-- 4392 -->
<g id="node24" class="node"><title>4392</title>
<g id="a_node24"><a xlink:title="3rd_week">
<ellipse fill="#ee9898" stroke="black" cx="1038.24" cy="-1082.74" rx="28.6953" ry="18"/>
<text text-anchor="middle" x="1038.24" y="-1079.04" font-family="Times,serif" font-size="14.00">4392</text>
</a>
</g>
</g>
<!-- 19585&#45;&gt;4392 -->
<g id="edge12" class="edge"><title>19585&#45;&gt;4392</title>
<path fill="none" stroke="black" d="M1006.78,-977.017C1013.76,-1000.47 1025.9,-1041.26 1032.88,-1064.73"/>
</g>
<!-- 21202&#45;&gt;7933 -->
<g id="edge16" class="edge"><title>21202&#45;&gt;7933</title>
<path fill="none" stroke="black" d="M932.63,-736.872C892.752,-732.448 829.33,-725.414 792.792,-721.361"/>
</g>
<!-- 7959 -->
<g id="node30" class="node"><title>7959</title>
<g id="a_node30"><a xlink:title="6th_week">
<ellipse fill="#c81d25" stroke="black" cx="1069.52" cy="-824.305" rx="28.6953" ry="18"/>
<text text-anchor="middle" x="1069.52" y="-820.605" font-family="Times,serif" font-size="14.00">7959</text>
</a>
</g>
</g>
<!-- 21202&#45;&gt;7959 -->
<g id="edge9" class="edge"><title>21202&#45;&gt;7959</title>
<path fill="none" stroke="black" d="M990.576,-758.976C1008.99,-774.217 1034.99,-795.727 1052.04,-809.839"/>
</g>
<!-- 8109 -->
<g id="node31" class="node"><title>8109</title>
<g id="a_node31"><a xlink:title="6th_week">
<ellipse fill="#c81d25" stroke="black" cx="901.39" cy="-820.687" rx="28.6953" ry="18"/>
<text text-anchor="middle" x="901.39" y="-816.987" font-family="Times,serif" font-size="14.00">8109</text>
</a>
</g>
</g>
<!-- 21202&#45;&gt;8109 -->
<g id="edge5" class="edge"><title>21202&#45;&gt;8109</title>
<path fill="none" stroke="black" d="M952.06,-760.602C940.615,-774.173 925.606,-791.971 914.901,-804.666"/>
</g>
<!-- 10680 -->
<g id="node33" class="node"><title>10680</title>
<g id="a_node33"><a xlink:title="6th_week">
<ellipse fill="#c81d25" stroke="black" cx="997.588" cy="-871.351" rx="32.4942" ry="18"/>
<text text-anchor="middle" x="997.588" y="-867.651" font-family="Times,serif" font-size="14.00">10680</text>
</a>
</g>
</g>
<!-- 21202&#45;&gt;10680 -->
<g id="edge48" class="edge"><title>21202&#45;&gt;10680</title>
<path fill="none" stroke="black" d="M973.533,-762.711C979.155,-788.103 988.332,-829.547 993.576,-853.231"/>
</g>
<!-- 11818 -->
<g id="node34" class="node"><title>11818</title>
<g id="a_node34"><a xlink:title="3rd_week">
<ellipse fill="#ee9898" stroke="black" cx="878.807" cy="-653.88" rx="32.4942" ry="18"/>
<text text-anchor="middle" x="878.807" y="-650.18" font-family="Times,serif" font-size="14.00">11818</text>
</a>
</g>
</g>
<!-- 21202&#45;&gt;11818 -->
<g id="edge46" class="edge"><title>21202&#45;&gt;11818</title>
<path fill="none" stroke="black" d="M949.193,-721.996C932.979,-706.305 910.179,-684.241 894.97,-669.522"/>
</g>
<!-- 12614 -->
<g id="node35" class="node"><title>12614</title>
<g id="a_node35"><a xlink:title="6th_week">
<ellipse fill="#c81d25" stroke="black" cx="909.985" cy="-874.133" rx="32.4942" ry="18"/>
<text text-anchor="middle" x="909.985" y="-870.433" font-family="Times,serif" font-size="14.00">12614</text>
</a>
</g>
</g>
<!-- 21202&#45;&gt;12614 -->
<g id="edge7" class="edge"><title>21202&#45;&gt;12614</title>
<path fill="none" stroke="black" d="M959.264,-762.283C947.725,-788.475 928.408,-832.319 917.708,-856.604"/>
</g>
<!-- 16166 -->
<g id="node40" class="node"><title>16166</title>
<g id="a_node40"><a xlink:title="6th_week">
<ellipse fill="#c81d25" stroke="black" cx="1091.82" cy="-765.055" rx="32.4942" ry="18"/>
<text text-anchor="middle" x="1091.82" y="-761.355" font-family="Times,serif" font-size="14.00">16166</text>
</a>
</g>
</g>
<!-- 21202&#45;&gt;16166 -->
<g id="edge36" class="edge"><title>21202&#45;&gt;16166</title>
<path fill="none" stroke="black" d="M1003.65,-747.737C1021.71,-751.284 1043.55,-755.574 1060.97,-758.996"/>
</g>
<!-- 23131 -->
<g id="node48" class="node"><title>23131</title>
<g id="a_node48"><a xlink:title="6th_week">
<ellipse fill="#c81d25" stroke="black" cx="823.411" cy="-816.378" rx="32.4942" ry="18"/>
<text text-anchor="middle" x="823.411" y="-812.678" font-family="Times,serif" font-size="14.00">23131</text>
</a>
</g>
</g>
<!-- 21202&#45;&gt;23131 -->
<g id="edge39" class="edge"><title>21202&#45;&gt;23131</title>
<path fill="none" stroke="black" d="M941.028,-755.252C913.859,-769.372 872.852,-790.683 847.131,-804.05"/>
</g>
<!-- 971 -->
<g id="node22" class="node"><title>971</title>
<g id="a_node22"><a xlink:title="3rd_week">
<ellipse fill="#ee9898" stroke="black" cx="147.022" cy="-789.089" rx="27" ry="18"/>
<text text-anchor="middle" x="147.022" y="-785.389" font-family="Times,serif" font-size="14.00">971</text>
</a>
</g>
</g>
<!-- 14656 -->
<g id="node37" class="node"><title>14656</title>
<g id="a_node37"><a xlink:title="3rd_week">
<ellipse fill="#ee9898" stroke="black" cx="40.7693" cy="-838.48" rx="32.4942" ry="18"/>
<text text-anchor="middle" x="40.7693" y="-834.78" font-family="Times,serif" font-size="14.00">14656</text>
</a>
</g>
</g>
<!-- 971&#45;&gt;14656 -->
<g id="edge3" class="edge"><title>971&#45;&gt;14656</title>
<path fill="none" stroke="black" d="M124.748,-799.443C107.587,-807.42 83.8545,-818.452 65.9949,-826.754"/>
</g>
<!-- 15175 -->
<g id="node38" class="node"><title>15175</title>
<g id="a_node38"><a xlink:title="3rd_week">
<ellipse fill="#ee9898" stroke="black" cx="304.487" cy="-770.199" rx="32.4942" ry="18"/>
<text text-anchor="middle" x="304.487" y="-766.499" font-family="Times,serif" font-size="14.00">15175</text>
</a>
</g>
</g>
<!-- 971&#45;&gt;15175 -->
<g id="edge15" class="edge"><title>971&#45;&gt;15175</title>
<path fill="none" stroke="black" d="M173.734,-785.885C201.022,-782.611 243.402,-777.527 272.472,-774.04"/>
</g>
<!-- 20599 -->
<g id="node43" class="node"><title>20599</title>
<g id="a_node43"><a xlink:title="3rd_week">
<ellipse fill="#ee9898" stroke="black" cx="32.1095" cy="-765.685" rx="32.4942" ry="18"/>
<text text-anchor="middle" x="32.1095" y="-761.985" font-family="Times,serif" font-size="14.00">20599</text>
</a>
</g>
</g>
<!-- 971&#45;&gt;20599 -->
<g id="edge42" class="edge"><title>971&#45;&gt;20599</title>
<path fill="none" stroke="black" d="M120.946,-783.778C103.73,-780.272 81.0899,-775.661 62.9747,-771.972"/>
</g>
<!-- 2780 -->
<g id="node23" class="node"><title>2780</title>
<g id="a_node23"><a xlink:title="3rd_week">
<ellipse fill="#ee9898" stroke="black" cx="351.801" cy="-578.371" rx="28.6953" ry="18"/>
<text text-anchor="middle" x="351.801" y="-574.671" font-family="Times,serif" font-size="14.00">2780</text>
</a>
</g>
</g>
<!-- 2780&#45;&gt;22221 -->
<g id="edge17" class="edge"><title>2780&#45;&gt;22221</title>
<path fill="none" stroke="black" d="M374.81,-589.32C392.6,-597.785 417.189,-609.485 435.43,-618.165"/>
</g>
<!-- 6068 -->
<g id="node27" class="node"><title>6068</title>
<g id="a_node27"><a xlink:title="3rd_week">
<ellipse fill="#ee9898" stroke="black" cx="1068.24" cy="-1212.33" rx="28.6953" ry="18"/>
<text text-anchor="middle" x="1068.24" y="-1208.63" font-family="Times,serif" font-size="14.00">6068</text>
</a>
</g>
</g>
<!-- 4392&#45;&gt;6068 -->
<g id="edge22" class="edge"><title>4392&#45;&gt;6068</title>
<path fill="none" stroke="black" d="M1042.41,-1100.76C1048.14,-1125.52 1058.39,-1169.79 1064.1,-1194.47"/>
</g>
<!-- 19577 -->
<g id="node42" class="node"><title>19577</title>
<g id="a_node42"><a xlink:title="3rd_week">
<ellipse fill="#ee9898" stroke="black" cx="976.431" cy="-1199.18" rx="32.4942" ry="18"/>
<text text-anchor="middle" x="976.431" y="-1195.48" font-family="Times,serif" font-size="14.00">19577</text>
</a>
</g>
</g>
<!-- 4392&#45;&gt;19577 -->
<g id="edge24" class="edge"><title>4392&#45;&gt;19577</title>
<path fill="none" stroke="black" d="M1029.12,-1099.92C1017.5,-1121.81 997.524,-1159.44 985.792,-1181.55"/>
</g>
<!-- 8925 -->
<g id="node32" class="node"><title>8925</title>
<g id="a_node32"><a xlink:title="6th_week">
<ellipse fill="#c81d25" stroke="black" cx="1270.42" cy="-1483.09" rx="28.6953" ry="18"/>
<text text-anchor="middle" x="1270.42" y="-1479.39" font-family="Times,serif" font-size="14.00">8925</text>
</a>
</g>
</g>
<!-- 4403&#45;&gt;8925 -->
<g id="edge32" class="edge"><title>4403&#45;&gt;8925</title>
<path fill="none" stroke="black" d="M1208.89,-1386.2C1222.54,-1407.69 1246.06,-1444.73 1259.73,-1466.25"/>
</g>
<!-- 898 -->
<g id="node49" class="node"><title>898</title>
<g id="a_node49"><a xlink:title="3rd_week">
<ellipse fill="#ee9898" stroke="black" cx="1363.11" cy="-514.405" rx="27" ry="18"/>
<text text-anchor="middle" x="1363.11" y="-510.705" font-family="Times,serif" font-size="14.00">898</text>
</a>
</g>
</g>
<!-- 5333&#45;&gt;898 -->
<g id="edge43" class="edge"><title>5333&#45;&gt;898</title>
<path fill="none" stroke="black" d="M1282.97,-563.394C1300.55,-552.647 1325.5,-537.392 1342.88,-526.77"/>
</g>
<!-- 4572 -->
<g id="node50" class="node"><title>4572</title>
<g id="a_node50"><a xlink:title="3rd_week">
<ellipse fill="#ee9898" stroke="black" cx="1377.55" cy="-609.341" rx="28.6953" ry="18"/>
<text text-anchor="middle" x="1377.55" y="-605.641" font-family="Times,serif" font-size="14.00">4572</text>
</a>
</g>
</g>
<!-- 5333&#45;&gt;4572 -->
<g id="edge21" class="edge"><title>5333&#45;&gt;4572</title>
<path fill="none" stroke="black" d="M1288.24,-583.718C1307.15,-589.142 1332.56,-596.432 1351.44,-601.85"/>
</g>
<!-- 13033 -->
<g id="node51" class="node"><title>13033</title>
<g id="a_node51"><a xlink:title="3rd_week">
<ellipse fill="#ee9898" stroke="black" cx="1387.82" cy="-560.732" rx="32.4942" ry="18"/>
<text text-anchor="middle" x="1387.82" y="-557.032" font-family="Times,serif" font-size="14.00">13033</text>
</a>
</g>
</g>
<!-- 5333&#45;&gt;13033 -->
<g id="edge31" class="edge"><title>5333&#45;&gt;13033</title>
<path fill="none" stroke="black" d="M1290.25,-572.727C1309.67,-570.34 1335.49,-567.166 1355.69,-564.682"/>
</g>
<!-- 18999 -->
<g id="node52" class="node"><title>18999</title>
<g id="a_node52"><a xlink:title="3rd_week">
<ellipse fill="#ee9898" stroke="black" cx="1356.6" cy="-657.964" rx="32.4942" ry="18"/>
<text text-anchor="middle" x="1356.6" y="-654.264" font-family="Times,serif" font-size="14.00">18999</text>
</a>
</g>
</g>
<!-- 5333&#45;&gt;18999 -->
<g id="edge29" class="edge"><title>5333&#45;&gt;18999</title>
<path fill="none" stroke="black" d="M1278.93,-590.816C1295.83,-605.423 1321.7,-627.788 1338.88,-642.64"/>
</g>
<!-- 15175&#45;&gt;15608 -->
<g id="edge50" class="edge"><title>15175&#45;&gt;15608</title>
<path fill="none" stroke="black" d="M335.897,-765.317C358.948,-761.733 390.119,-756.888 413.145,-753.309"/>
</g>
<!-- 22340 -->
<g id="node46" class="node"><title>22340</title>
<g id="a_node46"><a xlink:title="6th_week">
<ellipse fill="#c81d25" stroke="black" cx="729.146" cy="-894.345" rx="32.4942" ry="18"/>
<text text-anchor="middle" x="729.146" y="-890.645" font-family="Times,serif" font-size="14.00">22340</text>
</a>
</g>
</g>
<!-- 22340&#45;&gt;23131 -->
<g id="edge49" class="edge"><title>22340&#45;&gt;23131</title>
<path fill="none" stroke="black" d="M747.321,-879.312C764.013,-865.506 788.617,-845.156 805.291,-831.365"/>
</g>
</g>
</svg>
