<?xml version="1.0" encoding="UTF-8" standalone="no"?>
<!DOCTYPE svg PUBLIC "-//W3C//DTD SVG 1.1//EN"
 "http://www.w3.org/Graphics/SVG/1.1/DTD/svg11.dtd">
<!-- Generated by graphviz version 2.38.0 (20140413.2041)
 -->
<!-- Title: %3 Pages: 1 -->
<svg width="3758pt" height="1726pt"
 viewBox="0.00 0.00 3758.00 1726.00" xmlns="http://www.w3.org/2000/svg" xmlns:xlink="http://www.w3.org/1999/xlink">
<g id="graph0" class="graph" transform="scale(1 1) rotate(0) translate(4 1722)">
<title>%3</title>
<polygon fill="white" stroke="none" points="-4,4 -4,-1722 3754,-1722 3754,4 -4,4"/>
<!-- 1385 -->
<g id="node1" class="node"><title>1385</title>
<g id="a_node1"><a xlink:title="6th_week">
<ellipse fill="#c81d25" stroke="black" cx="948.332" cy="-1519.43" rx="28.6953" ry="18"/>
<text text-anchor="middle" x="948.332" y="-1515.73" font-family="Times,serif" font-size="14.00">1385</text>
</a>
</g>
</g>
<!-- 24815 -->
<g id="node32" class="node"><title>24815</title>
<g id="a_node32"><a xlink:title="6th_week">
<ellipse fill="#c81d25" stroke="black" cx="1000.1" cy="-1254.82" rx="32.4942" ry="18"/>
<text text-anchor="middle" x="1000.1" y="-1251.12" font-family="Times,serif" font-size="14.00">24815</text>
</a>
</g>
</g>
<!-- 1385&#45;&gt;24815 -->
<g id="edge38" class="edge"><title>1385&#45;&gt;24815</title>
<path fill="none" stroke="black" d="M951.89,-1501.24C961.369,-1452.78 987.152,-1320.99 996.581,-1272.79"/>
</g>
<!-- 31692 -->
<g id="node39" class="node"><title>31692</title>
<g id="a_node39"><a xlink:title="6th_week">
<ellipse fill="#c81d25" stroke="black" cx="873.364" cy="-1687.24" rx="32.4942" ry="18"/>
<text text-anchor="middle" x="873.364" y="-1683.54" font-family="Times,serif" font-size="14.00">31692</text>
</a>
</g>
</g>
<!-- 1385&#45;&gt;31692 -->
<g id="edge6" class="edge"><title>1385&#45;&gt;31692</title>
<path fill="none" stroke="black" d="M940.45,-1537.07C926.052,-1569.3 895.655,-1637.34 881.252,-1669.59"/>
</g>
<!-- 45244 -->
<g id="node64" class="node"><title>45244</title>
<g id="a_node64"><a xlink:title="6th_week">
<ellipse fill="#c81d25" stroke="black" cx="967.081" cy="-1700.47" rx="32.4942" ry="18"/>
<text text-anchor="middle" x="967.081" y="-1696.77" font-family="Times,serif" font-size="14.00">45244</text>
</a>
</g>
</g>
<!-- 1385&#45;&gt;45244 -->
<g id="edge27" class="edge"><title>1385&#45;&gt;45244</title>
<path fill="none" stroke="black" d="M950.198,-1537.45C953.783,-1572.06 961.594,-1647.49 965.195,-1682.25"/>
</g>
<!-- 2486 -->
<g id="node2" class="node"><title>2486</title>
<g id="a_node2"><a xlink:title="6th_week">
<ellipse fill="#c81d25" stroke="black" cx="488.5" cy="-1437.24" rx="28.6953" ry="18"/>
<text text-anchor="middle" x="488.5" y="-1433.54" font-family="Times,serif" font-size="14.00">2486</text>
</a>
</g>
</g>
<!-- 44244 -->
<g id="node56" class="node"><title>44244</title>
<g id="a_node56"><a xlink:title="6th_week">
<ellipse fill="#c81d25" stroke="black" cx="529.711" cy="-1271.28" rx="32.4942" ry="18"/>
<text text-anchor="middle" x="529.711" y="-1267.58" font-family="Times,serif" font-size="14.00">44244</text>
</a>
</g>
</g>
<!-- 2486&#45;&gt;44244 -->
<g id="edge51" class="edge"><title>2486&#45;&gt;44244</title>
<path fill="none" stroke="black" d="M492.989,-1419.17C500.916,-1387.24 517.304,-1321.24 525.227,-1289.33"/>
</g>
<!-- 2494 -->
<g id="node3" class="node"><title>2494</title>
<g id="a_node3"><a xlink:title="6th_week">
<ellipse fill="#c81d25" stroke="black" cx="1799.45" cy="-1322.96" rx="28.6953" ry="18"/>
<text text-anchor="middle" x="1799.45" y="-1319.26" font-family="Times,serif" font-size="14.00">2494</text>
</a>
</g>
</g>
<!-- 18208 -->
<g id="node18" class="node"><title>18208</title>
<g id="a_node18"><a xlink:title="6th_week">
<ellipse fill="#c81d25" stroke="black" cx="1865.25" cy="-1075.86" rx="32.4942" ry="18"/>
<text text-anchor="middle" x="1865.25" y="-1072.16" font-family="Times,serif" font-size="14.00">18208</text>
</a>
</g>
</g>
<!-- 2494&#45;&gt;18208 -->
<g id="edge22" class="edge"><title>2494&#45;&gt;18208</title>
<path fill="none" stroke="black" d="M1804.19,-1305.19C1816.3,-1259.7 1848.32,-1139.47 1860.48,-1093.8"/>
</g>
<!-- 20203 -->
<g id="node24" class="node"><title>20203</title>
<g id="a_node24"><a xlink:title="6th_week">
<ellipse fill="#c81d25" stroke="black" cx="1815.55" cy="-1503.57" rx="32.4942" ry="18"/>
<text text-anchor="middle" x="1815.55" y="-1499.87" font-family="Times,serif" font-size="14.00">20203</text>
</a>
</g>
</g>
<!-- 2494&#45;&gt;20203 -->
<g id="edge33" class="edge"><title>2494&#45;&gt;20203</title>
<path fill="none" stroke="black" d="M1801.06,-1340.93C1804.13,-1375.46 1810.84,-1450.71 1813.93,-1485.39"/>
</g>
<!-- 40654 -->
<g id="node68" class="node"><title>40654</title>
<g id="a_node68"><a xlink:title="6th_week">
<ellipse fill="#c81d25" stroke="black" cx="1715.04" cy="-1479.07" rx="32.4942" ry="18"/>
<text text-anchor="middle" x="1715.04" y="-1475.37" font-family="Times,serif" font-size="14.00">40654</text>
</a>
</g>
</g>
<!-- 2494&#45;&gt;40654 -->
<g id="edge58" class="edge"><title>2494&#45;&gt;40654</title>
<path fill="none" stroke="black" d="M1790.1,-1340.26C1773.87,-1370.27 1740.7,-1431.62 1724.44,-1461.68"/>
</g>
<!-- 3392 -->
<g id="node4" class="node"><title>3392</title>
<g id="a_node4"><a xlink:title="6th_week">
<ellipse fill="#c81d25" stroke="black" cx="2985.71" cy="-796.081" rx="28.6953" ry="18"/>
<text text-anchor="middle" x="2985.71" y="-792.381" font-family="Times,serif" font-size="14.00">3392</text>
</a>
</g>
</g>
<!-- 3741 -->
<g id="node5" class="node"><title>3741</title>
<g id="a_node5"><a xlink:title="6th_week">
<ellipse fill="#c81d25" stroke="black" cx="2801.77" cy="-783.067" rx="28.6953" ry="18"/>
<text text-anchor="middle" x="2801.77" y="-779.367" font-family="Times,serif" font-size="14.00">3741</text>
</a>
</g>
</g>
<!-- 3392&#45;&gt;3741 -->
<g id="edge35" class="edge"><title>3392&#45;&gt;3741</title>
<path fill="none" stroke="black" d="M2956.97,-794.048C2922.42,-791.603 2864.78,-787.525 2830.31,-785.086"/>
</g>
<!-- 5421 -->
<g id="node7" class="node"><title>5421</title>
<g id="a_node7"><a xlink:title="6th_week">
<ellipse fill="#c81d25" stroke="black" cx="2671.26" cy="-705.475" rx="28.6953" ry="18"/>
<text text-anchor="middle" x="2671.26" y="-701.775" font-family="Times,serif" font-size="14.00">5421</text>
</a>
</g>
</g>
<!-- 3741&#45;&gt;5421 -->
<g id="edge48" class="edge"><title>3741&#45;&gt;5421</title>
<path fill="none" stroke="black" d="M2780.81,-770.6C2756.45,-756.121 2716.51,-732.377 2692.18,-717.91"/>
</g>
<!-- 9981 -->
<g id="node10" class="node"><title>9981</title>
<g id="a_node10"><a xlink:title="6th_week">
<ellipse fill="#c81d25" stroke="black" cx="2755.45" cy="-935.589" rx="28.6953" ry="18"/>
<text text-anchor="middle" x="2755.45" y="-931.889" font-family="Times,serif" font-size="14.00">9981</text>
</a>
</g>
</g>
<!-- 3741&#45;&gt;9981 -->
<g id="edge37" class="edge"><title>3741&#45;&gt;9981</title>
<path fill="none" stroke="black" d="M2796.37,-800.862C2787.44,-830.251 2769.73,-888.593 2760.82,-917.908"/>
</g>
<!-- 10843 -->
<g id="node11" class="node"><title>10843</title>
<g id="a_node11"><a xlink:title="6th_week">
<ellipse fill="#c81d25" stroke="black" cx="3032.03" cy="-742.134" rx="32.4942" ry="18"/>
<text text-anchor="middle" x="3032.03" y="-738.434" font-family="Times,serif" font-size="14.00">10843</text>
</a>
</g>
</g>
<!-- 3741&#45;&gt;10843 -->
<g id="edge15" class="edge"><title>3741&#45;&gt;10843</title>
<path fill="none" stroke="black" d="M2829.55,-778.129C2872.73,-770.453 2955.68,-755.707 3000.85,-747.677"/>
</g>
<!-- 15817 -->
<g id="node14" class="node"><title>15817</title>
<g id="a_node14"><a xlink:title="6th_week">
<ellipse fill="#c81d25" stroke="black" cx="2932.78" cy="-925.336" rx="32.4942" ry="18"/>
<text text-anchor="middle" x="2932.78" y="-921.636" font-family="Times,serif" font-size="14.00">15817</text>
</a>
</g>
</g>
<!-- 3741&#45;&gt;15817 -->
<g id="edge24" class="edge"><title>3741&#45;&gt;15817</title>
<path fill="none" stroke="black" d="M2816.3,-798.836C2841.34,-826.038 2892.43,-881.509 2917.8,-909.059"/>
</g>
<!-- 16034 -->
<g id="node15" class="node"><title>16034</title>
<g id="a_node15"><a xlink:title="6th_week">
<ellipse fill="#c81d25" stroke="black" cx="2988.35" cy="-877.2" rx="32.4942" ry="18"/>
<text text-anchor="middle" x="2988.35" y="-873.5" font-family="Times,serif" font-size="14.00">16034</text>
</a>
</g>
</g>
<!-- 3741&#45;&gt;16034 -->
<g id="edge17" class="edge"><title>3741&#45;&gt;16034</title>
<path fill="none" stroke="black" d="M2824.28,-794.421C2859.66,-812.27 2927.98,-846.739 2964.29,-865.061"/>
</g>
<!-- 16423 -->
<g id="node16" class="node"><title>16423</title>
<g id="a_node16"><a xlink:title="6th_week">
<ellipse fill="#c81d25" stroke="black" cx="2880.08" cy="-635.497" rx="32.4942" ry="18"/>
<text text-anchor="middle" x="2880.08" y="-631.797" font-family="Times,serif" font-size="14.00">16423</text>
</a>
</g>
</g>
<!-- 3741&#45;&gt;16423 -->
<g id="edge40" class="edge"><title>3741&#45;&gt;16423</title>
<path fill="none" stroke="black" d="M2810.91,-765.85C2825.92,-737.567 2855.63,-681.57 2870.76,-653.062"/>
</g>
<!-- 17061 -->
<g id="node17" class="node"><title>17061</title>
<g id="a_node17"><a xlink:title="6th_week">
<ellipse fill="#c81d25" stroke="black" cx="3035.03" cy="-961.402" rx="32.4942" ry="18"/>
<text text-anchor="middle" x="3035.03" y="-957.702" font-family="Times,serif" font-size="14.00">17061</text>
</a>
</g>
</g>
<!-- 3741&#45;&gt;17061 -->
<g id="edge10" class="edge"><title>3741&#45;&gt;17061</title>
<path fill="none" stroke="black" d="M2820.08,-797.06C2863.36,-830.151 2971.68,-912.966 3015.84,-946.728"/>
</g>
<!-- 19504 -->
<g id="node21" class="node"><title>19504</title>
<g id="a_node21"><a xlink:title="6th_week">
<ellipse fill="#c81d25" stroke="black" cx="2879.08" cy="-568.518" rx="32.4942" ry="18"/>
<text text-anchor="middle" x="2879.08" y="-564.818" font-family="Times,serif" font-size="14.00">19504</text>
</a>
</g>
</g>
<!-- 3741&#45;&gt;19504 -->
<g id="edge61" class="edge"><title>3741&#45;&gt;19504</title>
<path fill="none" stroke="black" d="M2808.1,-765.509C2822.6,-725.277 2858.09,-626.783 2872.67,-586.318"/>
</g>
<!-- 21221 -->
<g id="node25" class="node"><title>21221</title>
<g id="a_node25"><a xlink:title="6th_week">
<ellipse fill="#c81d25" stroke="black" cx="2954.39" cy="-1034.88" rx="32.4942" ry="18"/>
<text text-anchor="middle" x="2954.39" y="-1031.18" font-family="Times,serif" font-size="14.00">21221</text>
</a>
</g>
</g>
<!-- 3741&#45;&gt;21221 -->
<g id="edge50" class="edge"><title>3741&#45;&gt;21221</title>
<path fill="none" stroke="black" d="M2812.03,-799.98C2839.76,-845.742 2916.07,-971.643 2943.99,-1017.7"/>
</g>
<!-- 21287 -->
<g id="node26" class="node"><title>21287</title>
<g id="a_node26"><a xlink:title="6th_week">
<ellipse fill="#c81d25" stroke="black" cx="2712.25" cy="-624.634" rx="32.4942" ry="18"/>
<text text-anchor="middle" x="2712.25" y="-620.934" font-family="Times,serif" font-size="14.00">21287</text>
</a>
</g>
</g>
<!-- 3741&#45;&gt;21287 -->
<g id="edge75" class="edge"><title>3741&#45;&gt;21287</title>
<path fill="none" stroke="black" d="M2792.02,-765.81C2774.8,-735.334 2739.2,-672.33 2721.99,-641.869"/>
</g>
<!-- 23993 -->
<g id="node30" class="node"><title>23993</title>
<g id="a_node30"><a xlink:title="6th_week">
<ellipse fill="#c81d25" stroke="black" cx="2794.08" cy="-601.257" rx="32.4942" ry="18"/>
<text text-anchor="middle" x="2794.08" y="-597.557" font-family="Times,serif" font-size="14.00">23993</text>
</a>
</g>
</g>
<!-- 3741&#45;&gt;23993 -->
<g id="edge65" class="edge"><title>3741&#45;&gt;23993</title>
<path fill="none" stroke="black" d="M2801.01,-764.969C2799.53,-730.12 2796.31,-654.073 2794.84,-619.281"/>
</g>
<!-- 24459 -->
<g id="node31" class="node"><title>24459</title>
<g id="a_node31"><a xlink:title="6th_week">
<ellipse fill="#c81d25" stroke="black" cx="2685.19" cy="-975.317" rx="32.4942" ry="18"/>
<text text-anchor="middle" x="2685.19" y="-971.617" font-family="Times,serif" font-size="14.00">24459</text>
</a>
</g>
</g>
<!-- 3741&#45;&gt;24459 -->
<g id="edge67" class="edge"><title>3741&#45;&gt;24459</title>
<path fill="none" stroke="black" d="M2791.43,-800.128C2769.36,-836.519 2717.88,-921.417 2695.68,-958.018"/>
</g>
<!-- 25466 -->
<g id="node33" class="node"><title>25466</title>
<g id="a_node33"><a xlink:title="6th_week">
<ellipse fill="#c81d25" stroke="black" cx="3175.56" cy="-486.487" rx="32.4942" ry="18"/>
<text text-anchor="middle" x="3175.56" y="-482.787" font-family="Times,serif" font-size="14.00">25466</text>
</a>
</g>
</g>
<!-- 3741&#45;&gt;25466 -->
<g id="edge7" class="edge"><title>3741&#45;&gt;25466</title>
<path fill="none" stroke="black" d="M2819.8,-768.762C2882.8,-718.776 3092.76,-552.186 3156.83,-501.347"/>
</g>
<!-- 30772 -->
<g id="node37" class="node"><title>30772</title>
<g id="a_node37"><a xlink:title="6th_week">
<ellipse fill="#c81d25" stroke="black" cx="2838.4" cy="-981.383" rx="32.4942" ry="18"/>
<text text-anchor="middle" x="2838.4" y="-977.683" font-family="Times,serif" font-size="14.00">30772</text>
</a>
</g>
</g>
<!-- 3741&#45;&gt;30772 -->
<g id="edge39" class="edge"><title>3741&#45;&gt;30772</title>
<path fill="none" stroke="black" d="M2805.09,-801.016C2812.04,-838.678 2828.09,-925.581 2835.06,-963.331"/>
</g>
<!-- 31055 -->
<g id="node38" class="node"><title>31055</title>
<g id="a_node38"><a xlink:title="6th_week">
<ellipse fill="#c81d25" stroke="black" cx="2843.27" cy="-1076.91" rx="32.4942" ry="18"/>
<text text-anchor="middle" x="2843.27" y="-1073.21" font-family="Times,serif" font-size="14.00">31055</text>
</a>
</g>
</g>
<!-- 3741&#45;&gt;31055 -->
<g id="edge8" class="edge"><title>3741&#45;&gt;31055</title>
<path fill="none" stroke="black" d="M2804.31,-801.005C2811.71,-853.464 2833.28,-1006.2 2840.71,-1058.83"/>
</g>
<!-- 32598 -->
<g id="node43" class="node"><title>32598</title>
<g id="a_node43"><a xlink:title="6th_week">
<ellipse fill="#c81d25" stroke="black" cx="2791.34" cy="-549.583" rx="32.4942" ry="18"/>
<text text-anchor="middle" x="2791.34" y="-545.883" font-family="Times,serif" font-size="14.00">32598</text>
</a>
</g>
</g>
<!-- 3741&#45;&gt;32598 -->
<g id="edge70" class="edge"><title>3741&#45;&gt;32598</title>
<path fill="none" stroke="black" d="M2800.96,-764.746C2799,-721.099 2794.1,-611.379 2792.15,-567.819"/>
</g>
<!-- 33902 -->
<g id="node44" class="node"><title>33902</title>
<g id="a_node44"><a xlink:title="6th_week">
<ellipse fill="#c81d25" stroke="black" cx="2955.35" cy="-620.333" rx="32.4942" ry="18"/>
<text text-anchor="middle" x="2955.35" y="-616.633" font-family="Times,serif" font-size="14.00">33902</text>
</a>
</g>
</g>
<!-- 3741&#45;&gt;33902 -->
<g id="edge52" class="edge"><title>3741&#45;&gt;33902</title>
<path fill="none" stroke="black" d="M2816.5,-767.463C2845.63,-736.597 2910.35,-668.018 2939.99,-636.611"/>
</g>
<!-- 34098 -->
<g id="node45" class="node"><title>34098</title>
<g id="a_node45"><a xlink:title="6th_week">
<ellipse fill="#c81d25" stroke="black" cx="2987.74" cy="-683.481" rx="32.4942" ry="18"/>
<text text-anchor="middle" x="2987.74" y="-679.781" font-family="Times,serif" font-size="14.00">34098</text>
</a>
</g>
</g>
<!-- 3741&#45;&gt;34098 -->
<g id="edge2" class="edge"><title>3741&#45;&gt;34098</title>
<path fill="none" stroke="black" d="M2823.84,-771.252C2859.15,-752.343 2928.05,-715.445 2964.24,-696.062"/>
</g>
<!-- 37127 -->
<g id="node46" class="node"><title>37127</title>
<g id="a_node46"><a xlink:title="6th_week">
<ellipse fill="#c81d25" stroke="black" cx="3083.54" cy="-854.778" rx="32.4942" ry="18"/>
<text text-anchor="middle" x="3083.54" y="-851.078" font-family="Times,serif" font-size="14.00">37127</text>
</a>
</g>
</g>
<!-- 3741&#45;&gt;37127 -->
<g id="edge30" class="edge"><title>3741&#45;&gt;37127</title>
<path fill="none" stroke="black" d="M2828.54,-789.878C2881.29,-803.303 2998.35,-833.097 3053.59,-847.155"/>
</g>
<!-- 37763 -->
<g id="node48" class="node"><title>37763</title>
<g id="a_node48"><a xlink:title="6th_week">
<ellipse fill="#c81d25" stroke="black" cx="2703.2" cy="-571.605" rx="32.4942" ry="18"/>
<text text-anchor="middle" x="2703.2" y="-567.905" font-family="Times,serif" font-size="14.00">37763</text>
</a>
</g>
</g>
<!-- 3741&#45;&gt;37763 -->
<g id="edge53" class="edge"><title>3741&#45;&gt;37763</title>
<path fill="none" stroke="black" d="M2793.71,-765.762C2775.22,-726.109 2729.97,-629.032 2711.38,-589.149"/>
</g>
<!-- 37852 -->
<g id="node49" class="node"><title>37852</title>
<g id="a_node49"><a xlink:title="6th_week">
<ellipse fill="#c81d25" stroke="black" cx="2600.98" cy="-719.657" rx="32.4942" ry="18"/>
<text text-anchor="middle" x="2600.98" y="-715.957" font-family="Times,serif" font-size="14.00">37852</text>
</a>
</g>
</g>
<!-- 3741&#45;&gt;37852 -->
<g id="edge54" class="edge"><title>3741&#45;&gt;37852</title>
<path fill="none" stroke="black" d="M2775.93,-774.907C2738.23,-762.999 2668.37,-740.939 2629.3,-728.602"/>
</g>
<!-- 39341 -->
<g id="node52" class="node"><title>39341</title>
<g id="a_node52"><a xlink:title="6th_week">
<ellipse fill="#c81d25" stroke="black" cx="2761.14" cy="-1011.62" rx="32.4942" ry="18"/>
<text text-anchor="middle" x="2761.14" y="-1007.92" font-family="Times,serif" font-size="14.00">39341</text>
</a>
</g>
</g>
<!-- 3741&#45;&gt;39341 -->
<g id="edge41" class="edge"><title>3741&#45;&gt;39341</title>
<path fill="none" stroke="black" d="M2798.59,-801.001C2791.01,-843.621 2771.99,-950.602 2764.37,-993.456"/>
</g>
<!-- 41260 -->
<g id="node54" class="node"><title>41260</title>
<g id="a_node54"><a xlink:title="6th_week">
<ellipse fill="#c81d25" stroke="black" cx="2315.34" cy="-936.109" rx="32.4942" ry="18"/>
<text text-anchor="middle" x="2315.34" y="-932.409" font-family="Times,serif" font-size="14.00">41260</text>
</a>
</g>
</g>
<!-- 3741&#45;&gt;41260 -->
<g id="edge71" class="edge"><title>3741&#45;&gt;41260</title>
<path fill="none" stroke="black" d="M2775.97,-791.187C2692.59,-817.419 2430.83,-899.774 2343.8,-927.157"/>
</g>
<!-- 42632 -->
<g id="node55" class="node"><title>42632</title>
<g id="a_node55"><a xlink:title="6th_week">
<ellipse fill="#c81d25" stroke="black" cx="2632.7" cy="-644.555" rx="32.4942" ry="18"/>
<text text-anchor="middle" x="2632.7" y="-640.855" font-family="Times,serif" font-size="14.00">42632</text>
</a>
</g>
</g>
<!-- 3741&#45;&gt;42632 -->
<g id="edge57" class="edge"><title>3741&#45;&gt;42632</title>
<path fill="none" stroke="black" d="M2784.32,-768.765C2752.17,-742.431 2683.91,-686.508 2651.09,-659.616"/>
</g>
<!-- 44975 -->
<g id="node63" class="node"><title>44975</title>
<g id="a_node63"><a xlink:title="6th_week">
<ellipse fill="#c81d25" stroke="black" cx="2616.95" cy="-855.402" rx="32.4942" ry="18"/>
<text text-anchor="middle" x="2616.95" y="-851.702" font-family="Times,serif" font-size="14.00">44975</text>
</a>
</g>
</g>
<!-- 3741&#45;&gt;44975 -->
<g id="edge76" class="edge"><title>3741&#45;&gt;44975</title>
<path fill="none" stroke="black" d="M2777.23,-792.672C2742.57,-806.239 2679.51,-830.917 2643.69,-844.936"/>
</g>
<!-- 16626 -->
<g id="node69" class="node"><title>16626</title>
<g id="a_node69"><a xlink:title="6th_week">
<ellipse fill="#c81d25" stroke="black" cx="2645.36" cy="-915.774" rx="32.4942" ry="18"/>
<text text-anchor="middle" x="2645.36" y="-912.074" font-family="Times,serif" font-size="14.00">16626</text>
</a>
</g>
</g>
<!-- 3741&#45;&gt;16626 -->
<g id="edge69" class="edge"><title>3741&#45;&gt;16626</title>
<path fill="none" stroke="black" d="M2784.44,-797.776C2754.53,-823.15 2693.55,-874.893 2663.26,-900.591"/>
</g>
<!-- 43599 -->
<g id="node76" class="node"><title>43599</title>
<g id="a_node76"><a xlink:title="6th_week">
<ellipse fill="#c81d25" stroke="black" cx="2604.13" cy="-789.794" rx="32.4942" ry="18"/>
<text text-anchor="middle" x="2604.13" y="-786.094" font-family="Times,serif" font-size="14.00">43599</text>
</a>
</g>
</g>
<!-- 3741&#45;&gt;43599 -->
<g id="edge25" class="edge"><title>3741&#45;&gt;43599</title>
<path fill="none" stroke="black" d="M2773.04,-784.045C2736.85,-785.277 2674.83,-787.387 2636.86,-788.68"/>
</g>
<!-- 4678 -->
<g id="node6" class="node"><title>4678</title>
<g id="a_node6"><a xlink:title="6th_week">
<ellipse fill="#c81d25" stroke="black" cx="401.445" cy="-1092.09" rx="28.6953" ry="18"/>
<text text-anchor="middle" x="401.445" y="-1088.39" font-family="Times,serif" font-size="14.00">4678</text>
</a>
</g>
</g>
<!-- 4678&#45;&gt;44244 -->
<g id="edge28" class="edge"><title>4678&#45;&gt;44244</title>
<path fill="none" stroke="black" d="M413.282,-1108.62C437.655,-1142.67 493.209,-1220.28 517.716,-1254.52"/>
</g>
<!-- 5435 -->
<g id="node8" class="node"><title>5435</title>
<g id="a_node8"><a xlink:title="6th_week">
<ellipse fill="#c81d25" stroke="black" cx="264.63" cy="-1293.96" rx="28.6953" ry="18"/>
<text text-anchor="middle" x="264.63" y="-1290.26" font-family="Times,serif" font-size="14.00">5435</text>
</a>
</g>
</g>
<!-- 5435&#45;&gt;44244 -->
<g id="edge14" class="edge"><title>5435&#45;&gt;44244</title>
<path fill="none" stroke="black" d="M292.998,-1291.53C342.683,-1287.28 445.128,-1278.52 497.438,-1274.04"/>
</g>
<!-- 44788 -->
<g id="node61" class="node"><title>44788</title>
<g id="a_node61"><a xlink:title="6th_week">
<ellipse fill="#c81d25" stroke="black" cx="32.9275" cy="-1316.28" rx="32.4942" ry="18"/>
<text text-anchor="middle" x="32.9275" y="-1312.58" font-family="Times,serif" font-size="14.00">44788</text>
</a>
</g>
</g>
<!-- 5435&#45;&gt;44788 -->
<g id="edge47" class="edge"><title>5435&#45;&gt;44788</title>
<path fill="none" stroke="black" d="M236.218,-1296.7C192.957,-1300.87 110.804,-1308.78 65.2971,-1313.16"/>
</g>
<!-- 9940 -->
<g id="node9" class="node"><title>9940</title>
<g id="a_node9"><a xlink:title="6th_week">
<ellipse fill="#c81d25" stroke="black" cx="407.639" cy="-1372.86" rx="28.6953" ry="18"/>
<text text-anchor="middle" x="407.639" y="-1369.16" font-family="Times,serif" font-size="14.00">9940</text>
</a>
</g>
</g>
<!-- 9940&#45;&gt;44244 -->
<g id="edge42" class="edge"><title>9940&#45;&gt;44244</title>
<path fill="none" stroke="black" d="M425.129,-1358.31C448.071,-1339.22 488.14,-1305.87 511.456,-1286.47"/>
</g>
<!-- 12048 -->
<g id="node12" class="node"><title>12048</title>
<g id="a_node12"><a xlink:title="6th_week">
<ellipse fill="#c81d25" stroke="black" cx="1871.22" cy="-1235.23" rx="32.4942" ry="18"/>
<text text-anchor="middle" x="1871.22" y="-1231.53" font-family="Times,serif" font-size="14.00">12048</text>
</a>
</g>
</g>
<!-- 12048&#45;&gt;18208 -->
<g id="edge62" class="edge"><title>12048&#45;&gt;18208</title>
<path fill="none" stroke="black" d="M1870.54,-1216.95C1869.39,-1186.21 1867.08,-1124.52 1865.93,-1093.93"/>
</g>
<!-- 14739 -->
<g id="node13" class="node"><title>14739</title>
<g id="a_node13"><a xlink:title="6th_week">
<ellipse fill="#c81d25" stroke="black" cx="2880.71" cy="-1287.43" rx="32.4942" ry="18"/>
<text text-anchor="middle" x="2880.71" y="-1283.73" font-family="Times,serif" font-size="14.00">14739</text>
</a>
</g>
</g>
<!-- 14739&#45;&gt;31055 -->
<g id="edge21" class="edge"><title>14739&#45;&gt;31055</title>
<path fill="none" stroke="black" d="M2877.52,-1269.48C2870.46,-1229.81 2853.6,-1135.02 2846.5,-1095.11"/>
</g>
<!-- 45036 -->
<g id="node77" class="node"><title>45036</title>
<g id="a_node77"><a xlink:title="6th_week">
<ellipse fill="#c81d25" stroke="black" cx="3208.67" cy="-1095.99" rx="32.4942" ry="18"/>
<text text-anchor="middle" x="3208.67" y="-1092.29" font-family="Times,serif" font-size="14.00">45036</text>
</a>
</g>
</g>
<!-- 17061&#45;&gt;45036 -->
<g id="edge31" class="edge"><title>17061&#45;&gt;45036</title>
<path fill="none" stroke="black" d="M3053.94,-976.061C3087.25,-1001.88 3156.03,-1055.19 3189.51,-1081.14"/>
</g>
<!-- 19652 -->
<g id="node23" class="node"><title>19652</title>
<g id="a_node23"><a xlink:title="6th_week">
<ellipse fill="#c81d25" stroke="black" cx="1765.69" cy="-922.069" rx="32.4942" ry="18"/>
<text text-anchor="middle" x="1765.69" y="-918.369" font-family="Times,serif" font-size="14.00">19652</text>
</a>
</g>
</g>
<!-- 18208&#45;&gt;19652 -->
<g id="edge18" class="edge"><title>18208&#45;&gt;19652</title>
<path fill="none" stroke="black" d="M1854.22,-1058.81C1835.08,-1029.25 1795.95,-968.805 1776.77,-939.191"/>
</g>
<!-- 25607 -->
<g id="node34" class="node"><title>25607</title>
<g id="a_node34"><a xlink:title="6th_week">
<ellipse fill="#c81d25" stroke="black" cx="1426.16" cy="-1165.39" rx="32.4942" ry="18"/>
<text text-anchor="middle" x="1426.16" y="-1161.69" font-family="Times,serif" font-size="14.00">25607</text>
</a>
</g>
</g>
<!-- 18208&#45;&gt;25607 -->
<g id="edge20" class="edge"><title>18208&#45;&gt;25607</title>
<path fill="none" stroke="black" d="M1834.73,-1082.08C1754.31,-1098.48 1537.3,-1142.73 1456.77,-1159.14"/>
</g>
<!-- 18208&#45;&gt;41260 -->
<g id="edge43" class="edge"><title>18208&#45;&gt;41260</title>
<path fill="none" stroke="black" d="M1893.75,-1067.01C1974.81,-1041.84 2206.06,-970.04 2286.97,-944.918"/>
</g>
<!-- 44513 -->
<g id="node57" class="node"><title>44513</title>
<g id="a_node57"><a xlink:title="6th_week">
<ellipse fill="#c81d25" stroke="black" cx="1694.13" cy="-1136.56" rx="32.4942" ry="18"/>
<text text-anchor="middle" x="1694.13" y="-1132.86" font-family="Times,serif" font-size="14.00">44513</text>
</a>
</g>
</g>
<!-- 18208&#45;&gt;44513 -->
<g id="edge26" class="edge"><title>18208&#45;&gt;44513</title>
<path fill="none" stroke="black" d="M1837.76,-1085.61C1805.83,-1096.94 1753.46,-1115.52 1721.56,-1126.83"/>
</g>
<!-- 31152 -->
<g id="node78" class="node"><title>31152</title>
<g id="a_node78"><a xlink:title="6th_week">
<ellipse fill="#c81d25" stroke="black" cx="1691.43" cy="-1002.75" rx="32.4942" ry="18"/>
<text text-anchor="middle" x="1691.43" y="-999.047" font-family="Times,serif" font-size="14.00">31152</text>
</a>
</g>
</g>
<!-- 18208&#45;&gt;31152 -->
<g id="edge9" class="edge"><title>18208&#45;&gt;31152</title>
<path fill="none" stroke="black" d="M1839.23,-1064.91C1806.37,-1051.09 1750.16,-1027.45 1717.35,-1013.65"/>
</g>
<!-- 18525 -->
<g id="node19" class="node"><title>18525</title>
<g id="a_node19"><a xlink:title="6th_week">
<ellipse fill="#c81d25" stroke="black" cx="612.618" cy="-1429.2" rx="32.4942" ry="18"/>
<text text-anchor="middle" x="612.618" y="-1425.5" font-family="Times,serif" font-size="14.00">18525</text>
</a>
</g>
</g>
<!-- 18525&#45;&gt;44244 -->
<g id="edge23" class="edge"><title>18525&#45;&gt;44244</title>
<path fill="none" stroke="black" d="M603.429,-1411.7C587.492,-1381.34 554.906,-1319.27 538.941,-1288.86"/>
</g>
<!-- 19140 -->
<g id="node20" class="node"><title>19140</title>
<g id="a_node20"><a xlink:title="6th_week">
<ellipse fill="#c81d25" stroke="black" cx="950.84" cy="-1098.66" rx="32.4942" ry="18"/>
<text text-anchor="middle" x="950.84" y="-1094.96" font-family="Times,serif" font-size="14.00">19140</text>
</a>
</g>
</g>
<!-- 19140&#45;&gt;24815 -->
<g id="edge59" class="edge"><title>19140&#45;&gt;24815</title>
<path fill="none" stroke="black" d="M956.491,-1116.58C965.941,-1146.54 984.852,-1206.49 994.36,-1236.64"/>
</g>
<!-- 19604 -->
<g id="node22" class="node"><title>19604</title>
<g id="a_node22"><a xlink:title="6th_week">
<ellipse fill="#c81d25" stroke="black" cx="414.069" cy="-1473.86" rx="32.4942" ry="18"/>
<text text-anchor="middle" x="414.069" y="-1470.16" font-family="Times,serif" font-size="14.00">19604</text>
</a>
</g>
</g>
<!-- 19604&#45;&gt;44244 -->
<g id="edge66" class="edge"><title>19604&#45;&gt;44244</title>
<path fill="none" stroke="black" d="M423.929,-1456.59C445.777,-1418.32 498.051,-1326.74 519.876,-1288.51"/>
</g>
<!-- 26393 -->
<g id="node35" class="node"><title>26393</title>
<g id="a_node35"><a xlink:title="6th_week">
<ellipse fill="#c81d25" stroke="black" cx="3072.57" cy="-1221.3" rx="32.4942" ry="18"/>
<text text-anchor="middle" x="3072.57" y="-1217.6" font-family="Times,serif" font-size="14.00">26393</text>
</a>
</g>
</g>
<!-- 21221&#45;&gt;26393 -->
<g id="edge13" class="edge"><title>21221&#45;&gt;26393</title>
<path fill="none" stroke="black" d="M2965.3,-1052.08C2987.81,-1087.59 3039.2,-1168.66 3061.69,-1204.14"/>
</g>
<!-- 21477 -->
<g id="node27" class="node"><title>21477</title>
<g id="a_node27"><a xlink:title="6th_week">
<ellipse fill="#c81d25" stroke="black" cx="3335.63" cy="-17.6931" rx="32.4942" ry="18"/>
<text text-anchor="middle" x="3335.63" y="-13.9931" font-family="Times,serif" font-size="14.00">21477</text>
</a>
</g>
</g>
<!-- 32430 -->
<g id="node42" class="node"><title>32430</title>
<g id="a_node42"><a xlink:title="6th_week">
<ellipse fill="#c81d25" stroke="black" cx="3254.07" cy="-238.478" rx="32.4942" ry="18"/>
<text text-anchor="middle" x="3254.07" y="-234.778" font-family="Times,serif" font-size="14.00">32430</text>
</a>
</g>
</g>
<!-- 21477&#45;&gt;32430 -->
<g id="edge34" class="edge"><title>21477&#45;&gt;32430</title>
<path fill="none" stroke="black" d="M3329.09,-35.3876C3313.82,-76.7277 3275.94,-179.276 3260.63,-220.699"/>
</g>
<!-- 23240 -->
<g id="node28" class="node"><title>23240</title>
<g id="a_node28"><a xlink:title="6th_week">
<ellipse fill="#c81d25" stroke="black" cx="529.015" cy="-1489.47" rx="32.4942" ry="18"/>
<text text-anchor="middle" x="529.015" y="-1485.77" font-family="Times,serif" font-size="14.00">23240</text>
</a>
</g>
</g>
<!-- 23240&#45;&gt;44244 -->
<g id="edge29" class="edge"><title>23240&#45;&gt;44244</title>
<path fill="none" stroke="black" d="M529.073,-1471.24C529.204,-1430.07 529.523,-1330.28 529.653,-1289.3"/>
</g>
<!-- 23665 -->
<g id="node29" class="node"><title>23665</title>
<g id="a_node29"><a xlink:title="6th_week">
<ellipse fill="#c81d25" stroke="black" cx="324.653" cy="-1208.15" rx="32.4942" ry="18"/>
<text text-anchor="middle" x="324.653" y="-1204.45" font-family="Times,serif" font-size="14.00">23665</text>
</a>
</g>
</g>
<!-- 23665&#45;&gt;44244 -->
<g id="edge55" class="edge"><title>23665&#45;&gt;44244</title>
<path fill="none" stroke="black" d="M353.165,-1216.93C392.232,-1228.95 461.998,-1250.43 501.111,-1262.47"/>
</g>
<!-- 24815&#45;&gt;25607 -->
<g id="edge68" class="edge"><title>24815&#45;&gt;25607</title>
<path fill="none" stroke="black" d="M1030.74,-1248.39C1109.25,-1231.91 1316.98,-1188.3 1395.51,-1171.82"/>
</g>
<!-- 38378 -->
<g id="node50" class="node"><title>38378</title>
<g id="a_node50"><a xlink:title="6th_week">
<ellipse fill="#c81d25" stroke="black" cx="1031.62" cy="-1402.8" rx="32.4942" ry="18"/>
<text text-anchor="middle" x="1031.62" y="-1399.1" font-family="Times,serif" font-size="14.00">38378</text>
</a>
</g>
</g>
<!-- 24815&#45;&gt;38378 -->
<g id="edge56" class="edge"><title>24815&#45;&gt;38378</title>
<path fill="none" stroke="black" d="M1003.96,-1272.97C1010.01,-1301.37 1021.65,-1356.01 1027.72,-1384.51"/>
</g>
<!-- 24815&#45;&gt;44244 -->
<g id="edge5" class="edge"><title>24815&#45;&gt;44244</title>
<path fill="none" stroke="black" d="M967.393,-1255.97C881.138,-1258.98 648.206,-1267.13 562.197,-1270.14"/>
</g>
<!-- 31747 -->
<g id="node40" class="node"><title>31747</title>
<g id="a_node40"><a xlink:title="6th_week">
<ellipse fill="#c81d25" stroke="black" cx="3372.51" cy="-452.826" rx="32.4942" ry="18"/>
<text text-anchor="middle" x="3372.51" y="-449.126" font-family="Times,serif" font-size="14.00">31747</text>
</a>
</g>
</g>
<!-- 25466&#45;&gt;31747 -->
<g id="edge11" class="edge"><title>25466&#45;&gt;31747</title>
<path fill="none" stroke="black" d="M3206.77,-481.153C3243.65,-474.851 3304.63,-464.427 3341.45,-458.135"/>
</g>
<!-- 25466&#45;&gt;32430 -->
<g id="edge77" class="edge"><title>25466&#45;&gt;32430</title>
<path fill="none" stroke="black" d="M3181.21,-468.651C3195.66,-423.002 3233.86,-302.322 3248.37,-256.486"/>
</g>
<!-- 39024 -->
<g id="node51" class="node"><title>39024</title>
<g id="a_node51"><a xlink:title="6th_week">
<ellipse fill="#c81d25" stroke="black" cx="3168.41" cy="-284.345" rx="32.4942" ry="18"/>
<text text-anchor="middle" x="3168.41" y="-280.645" font-family="Times,serif" font-size="14.00">39024</text>
</a>
</g>
</g>
<!-- 25466&#45;&gt;39024 -->
<g id="edge3" class="edge"><title>25466&#45;&gt;39024</title>
<path fill="none" stroke="black" d="M3174.91,-468.192C3173.55,-429.706 3170.4,-340.775 3169.05,-302.454"/>
</g>
<!-- 44609 -->
<g id="node59" class="node"><title>44609</title>
<g id="a_node59"><a xlink:title="6th_week">
<ellipse fill="#c81d25" stroke="black" cx="3375.89" cy="-532.519" rx="32.4942" ry="18"/>
<text text-anchor="middle" x="3375.89" y="-528.819" font-family="Times,serif" font-size="14.00">44609</text>
</a>
</g>
</g>
<!-- 25466&#45;&gt;44609 -->
<g id="edge19" class="edge"><title>25466&#45;&gt;44609</title>
<path fill="none" stroke="black" d="M3205.99,-493.478C3243.86,-502.18 3308.14,-516.95 3345.84,-525.612"/>
</g>
<!-- 44782 -->
<g id="node60" class="node"><title>44782</title>
<g id="a_node60"><a xlink:title="6th_week">
<ellipse fill="#c81d25" stroke="black" cx="3277.81" cy="-322.749" rx="32.4942" ry="18"/>
<text text-anchor="middle" x="3277.81" y="-319.049" font-family="Times,serif" font-size="14.00">44782</text>
</a>
</g>
</g>
<!-- 25466&#45;&gt;44782 -->
<g id="edge12" class="edge"><title>25466&#45;&gt;44782</title>
<path fill="none" stroke="black" d="M3186.31,-469.274C3205.9,-437.909 3247.19,-371.783 3266.9,-340.225"/>
</g>
<!-- 44816 -->
<g id="node62" class="node"><title>44816</title>
<g id="a_node62"><a xlink:title="6th_week">
<ellipse fill="#c81d25" stroke="black" cx="3337.14" cy="-376.894" rx="32.4942" ry="18"/>
<text text-anchor="middle" x="3337.14" y="-373.194" font-family="Times,serif" font-size="14.00">44816</text>
</a>
</g>
</g>
<!-- 25466&#45;&gt;44816 -->
<g id="edge32" class="edge"><title>25466&#45;&gt;44816</title>
<path fill="none" stroke="black" d="M3196.35,-472.384C3227.38,-451.341 3285.45,-411.955 3316.43,-390.943"/>
</g>
<!-- 20620 -->
<g id="node72" class="node"><title>20620</title>
<g id="a_node72"><a xlink:title="6th_week">
<ellipse fill="#c81d25" stroke="black" cx="3482.64" cy="-331.892" rx="32.4942" ry="18"/>
<text text-anchor="middle" x="3482.64" y="-328.192" font-family="Times,serif" font-size="14.00">20620</text>
</a>
</g>
</g>
<!-- 25466&#45;&gt;20620 -->
<g id="edge78" class="edge"><title>25466&#45;&gt;20620</title>
<path fill="none" stroke="black" d="M3199.66,-474.356C3256.92,-445.528 3400.66,-373.167 3458.23,-344.181"/>
</g>
<!-- 27566 -->
<g id="node36" class="node"><title>27566</title>
<g id="a_node36"><a xlink:title="6th_week">
<ellipse fill="#c81d25" stroke="black" cx="623.854" cy="-1125.06" rx="32.4942" ry="18"/>
<text text-anchor="middle" x="623.854" y="-1121.36" font-family="Times,serif" font-size="14.00">27566</text>
</a>
</g>
</g>
<!-- 27566&#45;&gt;44244 -->
<g id="edge45" class="edge"><title>27566&#45;&gt;44244</title>
<path fill="none" stroke="black" d="M612.87,-1142.12C594.827,-1170.15 559.103,-1225.63 540.916,-1253.88"/>
</g>
<!-- 32393 -->
<g id="node41" class="node"><title>32393</title>
<g id="a_node41"><a xlink:title="6th_week">
<ellipse fill="#c81d25" stroke="black" cx="345.807" cy="-1270.53" rx="32.4942" ry="18"/>
<text text-anchor="middle" x="345.807" y="-1266.83" font-family="Times,serif" font-size="14.00">32393</text>
</a>
</g>
</g>
<!-- 32393&#45;&gt;44244 -->
<g id="edge49" class="edge"><title>32393&#45;&gt;44244</title>
<path fill="none" stroke="black" d="M378.686,-1270.66C412.16,-1270.8 463.746,-1271.01 497.117,-1271.15"/>
</g>
<!-- 24529 -->
<g id="node79" class="node"><title>24529</title>
<g id="a_node79"><a xlink:title="6th_week">
<ellipse fill="#c81d25" stroke="black" cx="3290.03" cy="-921.124" rx="32.4942" ry="18"/>
<text text-anchor="middle" x="3290.03" y="-917.424" font-family="Times,serif" font-size="14.00">24529</text>
</a>
</g>
</g>
<!-- 37127&#45;&gt;24529 -->
<g id="edge72" class="edge"><title>37127&#45;&gt;24529</title>
<path fill="none" stroke="black" d="M3111.82,-863.864C3151.25,-876.534 3222.34,-899.374 3261.76,-912.042"/>
</g>
<!-- 37684 -->
<g id="node47" class="node"><title>37684</title>
<g id="a_node47"><a xlink:title="6th_week">
<ellipse fill="#c81d25" stroke="black" cx="331.466" cy="-1415.72" rx="32.4942" ry="18"/>
<text text-anchor="middle" x="331.466" y="-1412.02" font-family="Times,serif" font-size="14.00">37684</text>
</a>
</g>
</g>
<!-- 37684&#45;&gt;44244 -->
<g id="edge60" class="edge"><title>37684&#45;&gt;44244</title>
<path fill="none" stroke="black" d="M351.199,-1401.35C389.1,-1373.73 471.693,-1313.55 509.763,-1285.81"/>
</g>
<!-- 40300 -->
<g id="node53" class="node"><title>40300</title>
<g id="a_node53"><a xlink:title="6th_week">
<ellipse fill="#c81d25" stroke="black" cx="557.357" cy="-1076.28" rx="32.4942" ry="18"/>
<text text-anchor="middle" x="557.357" y="-1072.58" font-family="Times,serif" font-size="14.00">40300</text>
</a>
</g>
</g>
<!-- 40300&#45;&gt;44244 -->
<g id="edge4" class="edge"><title>40300&#45;&gt;44244</title>
<path fill="none" stroke="black" d="M554.805,-1094.28C549.539,-1131.43 537.517,-1216.22 532.256,-1253.33"/>
</g>
<!-- 23119 -->
<g id="node73" class="node"><title>23119</title>
<g id="a_node73"><a xlink:title="6th_week">
<ellipse fill="#c81d25" stroke="black" cx="2151.09" cy="-909.59" rx="32.4942" ry="18"/>
<text text-anchor="middle" x="2151.09" y="-905.89" font-family="Times,serif" font-size="14.00">23119</text>
</a>
</g>
</g>
<!-- 41260&#45;&gt;23119 -->
<g id="edge36" class="edge"><title>41260&#45;&gt;23119</title>
<path fill="none" stroke="black" d="M2284.06,-931.059C2254.93,-926.355 2211.72,-919.379 2182.53,-914.667"/>
</g>
<!-- 44574 -->
<g id="node58" class="node"><title>44574</title>
<g id="a_node58"><a xlink:title="6th_week">
<ellipse fill="#c81d25" stroke="black" cx="317.638" cy="-1145.24" rx="32.4942" ry="18"/>
<text text-anchor="middle" x="317.638" y="-1141.54" font-family="Times,serif" font-size="14.00">44574</text>
</a>
</g>
</g>
<!-- 44244&#45;&gt;44574 -->
<g id="edge46" class="edge"><title>44244&#45;&gt;44574</title>
<path fill="none" stroke="black" d="M507.416,-1258.03C466.686,-1233.82 380.697,-1182.71 339.952,-1158.5"/>
</g>
<!-- 45371 -->
<g id="node65" class="node"><title>45371</title>
<g id="a_node65"><a xlink:title="6th_week">
<ellipse fill="#c81d25" stroke="black" cx="415.946" cy="-1159.73" rx="32.4942" ry="18"/>
<text text-anchor="middle" x="415.946" y="-1156.03" font-family="Times,serif" font-size="14.00">45371</text>
</a>
</g>
</g>
<!-- 44244&#45;&gt;45371 -->
<g id="edge64" class="edge"><title>44244&#45;&gt;45371</title>
<path fill="none" stroke="black" d="M513.411,-1255.3C491.784,-1234.09 453.827,-1196.87 432.216,-1175.68"/>
</g>
<!-- 45641 -->
<g id="node66" class="node"><title>45641</title>
<g id="a_node66"><a xlink:title="6th_week">
<ellipse fill="#c81d25" stroke="black" cx="332.987" cy="-1346.66" rx="32.4942" ry="18"/>
<text text-anchor="middle" x="332.987" y="-1342.96" font-family="Times,serif" font-size="14.00">45641</text>
</a>
</g>
</g>
<!-- 44244&#45;&gt;45641 -->
<g id="edge73" class="edge"><title>44244&#45;&gt;45641</title>
<path fill="none" stroke="black" d="M502.77,-1281.6C465.202,-1296 397.479,-1321.95 359.917,-1336.34"/>
</g>
<!-- 30187 -->
<g id="node67" class="node"><title>30187</title>
<g id="a_node67"><a xlink:title="6th_week">
<ellipse fill="#c81d25" stroke="black" cx="470.574" cy="-1057.82" rx="32.4942" ry="18"/>
<text text-anchor="middle" x="470.574" y="-1054.12" font-family="Times,serif" font-size="14.00">30187</text>
</a>
</g>
</g>
<!-- 44244&#45;&gt;30187 -->
<g id="edge63" class="edge"><title>44244&#45;&gt;30187</title>
<path fill="none" stroke="black" d="M524.77,-1253.45C513.639,-1213.27 486.699,-1116.02 475.542,-1075.75"/>
</g>
<!-- 19116 -->
<g id="node70" class="node"><title>19116</title>
<g id="a_node70"><a xlink:title="6th_week">
<ellipse fill="#c81d25" stroke="black" cx="3675.51" cy="-190.328" rx="32.4942" ry="18"/>
<text text-anchor="middle" x="3675.51" y="-186.628" font-family="Times,serif" font-size="14.00">19116</text>
</a>
</g>
</g>
<!-- 19116&#45;&gt;20620 -->
<g id="edge16" class="edge"><title>19116&#45;&gt;20620</title>
<path fill="none" stroke="black" d="M3655.6,-204.945C3618.55,-232.143 3539.42,-290.218 3502.45,-317.355"/>
</g>
<!-- 19365 -->
<g id="node71" class="node"><title>19365</title>
<g id="a_node71"><a xlink:title="6th_week">
<ellipse fill="#c81d25" stroke="black" cx="3710.74" cy="-257.324" rx="32.4942" ry="18"/>
<text text-anchor="middle" x="3710.74" y="-253.624" font-family="Times,serif" font-size="14.00">19365</text>
</a>
</g>
</g>
<!-- 19365&#45;&gt;20620 -->
<g id="edge44" class="edge"><title>19365&#45;&gt;20620</title>
<path fill="none" stroke="black" d="M3682.31,-266.617C3638.37,-280.985 3554.44,-308.42 3510.71,-322.716"/>
</g>
<!-- 23727 -->
<g id="node74" class="node"><title>23727</title>
<g id="a_node74"><a xlink:title="6th_week">
<ellipse fill="#c81d25" stroke="black" cx="3614.86" cy="-137.774" rx="32.4942" ry="18"/>
<text text-anchor="middle" x="3614.86" y="-134.074" font-family="Times,serif" font-size="14.00">23727</text>
</a>
</g>
</g>
<!-- 20620&#45;&gt;23727 -->
<g id="edge1" class="edge"><title>20620&#45;&gt;23727</title>
<path fill="none" stroke="black" d="M3494.14,-315.005C3519.15,-278.293 3578.22,-191.562 3603.29,-154.76"/>
</g>
<!-- 32574 -->
<g id="node75" class="node"><title>32574</title>
<g id="a_node75"><a xlink:title="6th_week">
<ellipse fill="#c81d25" stroke="black" cx="3717.83" cy="-338.14" rx="32.4942" ry="18"/>
<text text-anchor="middle" x="3717.83" y="-334.44" font-family="Times,serif" font-size="14.00">32574</text>
</a>
</g>
</g>
<!-- 20620&#45;&gt;32574 -->
<g id="edge74" class="edge"><title>20620&#45;&gt;32574</title>
<path fill="none" stroke="black" d="M3515.34,-332.761C3560.15,-333.951 3640.17,-336.077 3685.03,-337.269"/>
</g>
</g>
</svg>
