<?xml version="1.0" encoding="UTF-8" standalone="no"?>
<!DOCTYPE svg PUBLIC "-//W3C//DTD SVG 1.1//EN"
 "http://www.w3.org/Graphics/SVG/1.1/DTD/svg11.dtd">
<!-- Generated by graphviz version 2.38.0 (20140413.2041)
 -->
<!-- Title: %3 Pages: 1 -->
<svg width="1885pt" height="1230pt"
 viewBox="0.00 0.00 1885.00 1230.00" xmlns="http://www.w3.org/2000/svg" xmlns:xlink="http://www.w3.org/1999/xlink">
<g id="graph0" class="graph" transform="scale(1 1) rotate(0) translate(4 1226)">
<title>%3</title>
<polygon fill="white" stroke="none" points="-4,4 -4,-1226 1881,-1226 1881,4 -4,4"/>
<!-- 21 -->
<g id="node1" class="node"><title>21</title>
<g id="a_node1"><a xlink:title="3rd_week">
<ellipse fill="#ee9898" stroke="black" cx="1314.82" cy="-369.142" rx="27" ry="18"/>
<text text-anchor="middle" x="1314.82" y="-365.442" font-family="Times,serif" font-size="14.00">21</text>
</a>
</g>
</g>
<!-- 25686 -->
<g id="node22" class="node"><title>25686</title>
<g id="a_node22"><a xlink:title="3rd_week">
<ellipse fill="#ee9898" stroke="black" cx="1458.47" cy="-176.781" rx="32.4942" ry="18"/>
<text text-anchor="middle" x="1458.47" y="-173.081" font-family="Times,serif" font-size="14.00">25686</text>
</a>
</g>
</g>
<!-- 21&#45;&gt;25686 -->
<g id="edge27" class="edge"><title>21&#45;&gt;25686</title>
<path fill="none" stroke="black" d="M1327.07,-352.742C1354.07,-316.581 1418.5,-230.312 1445.85,-193.688"/>
</g>
<!-- 39557 -->
<g id="node37" class="node"><title>39557</title>
<g id="a_node37"><a xlink:title="3rd_week">
<ellipse fill="#ee9898" stroke="black" cx="1073.68" cy="-616.155" rx="32.4942" ry="18"/>
<text text-anchor="middle" x="1073.68" y="-612.455" font-family="Times,serif" font-size="14.00">39557</text>
</a>
</g>
</g>
<!-- 21&#45;&gt;39557 -->
<g id="edge3" class="edge"><title>21&#45;&gt;39557</title>
<path fill="none" stroke="black" d="M1299.73,-384.594C1256.63,-428.743 1133.24,-555.144 1089.38,-600.069"/>
</g>
<!-- 58228 -->
<g id="node47" class="node"><title>58228</title>
<g id="a_node47"><a xlink:title="3rd_week">
<ellipse fill="#ee9898" stroke="black" cx="1488.09" cy="-268.427" rx="32.4942" ry="18"/>
<text text-anchor="middle" x="1488.09" y="-264.727" font-family="Times,serif" font-size="14.00">58228</text>
</a>
</g>
</g>
<!-- 21&#45;&gt;58228 -->
<g id="edge26" class="edge"><title>21&#45;&gt;58228</title>
<path fill="none" stroke="black" d="M1335.37,-357.194C1368.1,-338.175 1431.78,-301.16 1465.65,-281.473"/>
</g>
<!-- 630 -->
<g id="node2" class="node"><title>630</title>
<g id="a_node2"><a xlink:title="3rd_week">
<ellipse fill="#ee9898" stroke="black" cx="566.847" cy="-954.59" rx="27" ry="18"/>
<text text-anchor="middle" x="566.847" y="-950.89" font-family="Times,serif" font-size="14.00">630</text>
</a>
</g>
</g>
<!-- 59402 -->
<g id="node49" class="node"><title>59402</title>
<g id="a_node49"><a xlink:title="3rd_week">
<ellipse fill="#ee9898" stroke="black" cx="570.924" cy="-709.13" rx="32.4942" ry="18"/>
<text text-anchor="middle" x="570.924" y="-705.43" font-family="Times,serif" font-size="14.00">59402</text>
</a>
</g>
</g>
<!-- 630&#45;&gt;59402 -->
<g id="edge11" class="edge"><title>630&#45;&gt;59402</title>
<path fill="none" stroke="black" d="M567.147,-936.541C567.901,-891.148 569.869,-772.627 570.623,-727.206"/>
</g>
<!-- 1016 -->
<g id="node3" class="node"><title>1016</title>
<g id="a_node3"><a xlink:title="3rd_week">
<ellipse fill="#ee9898" stroke="black" cx="1477.34" cy="-933.405" rx="28.6953" ry="18"/>
<text text-anchor="middle" x="1477.34" y="-929.705" font-family="Times,serif" font-size="14.00">1016</text>
</a>
</g>
</g>
<!-- 38074 -->
<g id="node32" class="node"><title>38074</title>
<g id="a_node32"><a xlink:title="3rd_week">
<ellipse fill="#ee9898" stroke="black" cx="1315.26" cy="-795.765" rx="32.4942" ry="18"/>
<text text-anchor="middle" x="1315.26" y="-792.065" font-family="Times,serif" font-size="14.00">38074</text>
</a>
</g>
</g>
<!-- 1016&#45;&gt;38074 -->
<g id="edge23" class="edge"><title>1016&#45;&gt;38074</title>
<path fill="none" stroke="black" d="M1460.3,-918.936C1429.42,-892.708 1364.48,-837.564 1333.05,-810.874"/>
</g>
<!-- 6810 -->
<g id="node4" class="node"><title>6810</title>
<g id="a_node4"><a xlink:title="3rd_week">
<ellipse fill="#ee9898" stroke="black" cx="249.778" cy="-798.455" rx="28.6953" ry="18"/>
<text text-anchor="middle" x="249.778" y="-794.755" font-family="Times,serif" font-size="14.00">6810</text>
</a>
</g>
</g>
<!-- 18286 -->
<g id="node14" class="node"><title>18286</title>
<g id="a_node14"><a xlink:title="3rd_week">
<ellipse fill="#ee9898" stroke="black" cx="58.136" cy="-898.057" rx="32.4942" ry="18"/>
<text text-anchor="middle" x="58.136" y="-894.357" font-family="Times,serif" font-size="14.00">18286</text>
</a>
</g>
</g>
<!-- 6810&#45;&gt;18286 -->
<g id="edge50" class="edge"><title>6810&#45;&gt;18286</title>
<path fill="none" stroke="black" d="M227.419,-810.076C190.985,-829.011 119.14,-866.352 81.849,-885.733"/>
</g>
<!-- 54385 -->
<g id="node43" class="node"><title>54385</title>
<g id="a_node43"><a xlink:title="3rd_week">
<ellipse fill="#ee9898" stroke="black" cx="32.94" cy="-802.423" rx="32.4942" ry="18"/>
<text text-anchor="middle" x="32.94" y="-798.723" font-family="Times,serif" font-size="14.00">54385</text>
</a>
</g>
</g>
<!-- 6810&#45;&gt;54385 -->
<g id="edge16" class="edge"><title>6810&#45;&gt;54385</title>
<path fill="none" stroke="black" d="M220.983,-798.982C180.777,-799.718 108.012,-801.049 65.7561,-801.822"/>
</g>
<!-- 6810&#45;&gt;59402 -->
<g id="edge13" class="edge"><title>6810&#45;&gt;59402</title>
<path fill="none" stroke="black" d="M276.059,-791.145C335.38,-774.645 479.329,-734.607 541.51,-717.311"/>
</g>
<!-- 6812 -->
<g id="node5" class="node"><title>6812</title>
<g id="a_node5"><a xlink:title="3rd_week">
<ellipse fill="#ee9898" stroke="black" cx="1060.97" cy="-447.118" rx="28.6953" ry="18"/>
<text text-anchor="middle" x="1060.97" y="-443.418" font-family="Times,serif" font-size="14.00">6812</text>
</a>
</g>
</g>
<!-- 6812&#45;&gt;39557 -->
<g id="edge7" class="edge"><title>6812&#45;&gt;39557</title>
<path fill="none" stroke="black" d="M1062.33,-465.208C1064.77,-497.657 1069.86,-565.399 1072.31,-597.939"/>
</g>
<!-- 6909 -->
<g id="node6" class="node"><title>6909</title>
<g id="a_node6"><a xlink:title="3rd_week">
<ellipse fill="#ee9898" stroke="black" cx="1848.45" cy="-680.124" rx="28.6953" ry="18"/>
<text text-anchor="middle" x="1848.45" y="-676.424" font-family="Times,serif" font-size="14.00">6909</text>
</a>
</g>
</g>
<!-- 18627 -->
<g id="node16" class="node"><title>18627</title>
<g id="a_node16"><a xlink:title="3rd_week">
<ellipse fill="#ee9898" stroke="black" cx="1647.72" cy="-661.44" rx="32.4942" ry="18"/>
<text text-anchor="middle" x="1647.72" y="-657.74" font-family="Times,serif" font-size="14.00">18627</text>
</a>
</g>
</g>
<!-- 6909&#45;&gt;18627 -->
<g id="edge22" class="edge"><title>6909&#45;&gt;18627</title>
<path fill="none" stroke="black" d="M1820.12,-677.486C1783.16,-674.046 1718.66,-668.042 1679.9,-664.435"/>
</g>
<!-- 9421 -->
<g id="node7" class="node"><title>9421</title>
<g id="a_node7"><a xlink:title="3rd_week">
<ellipse fill="#ee9898" stroke="black" cx="459.495" cy="-585.656" rx="28.6953" ry="18"/>
<text text-anchor="middle" x="459.495" y="-581.956" font-family="Times,serif" font-size="14.00">9421</text>
</a>
</g>
</g>
<!-- 9421&#45;&gt;59402 -->
<g id="edge34" class="edge"><title>9421&#45;&gt;59402</title>
<path fill="none" stroke="black" d="M473.834,-601.546C495.113,-625.124 534.836,-669.142 556.286,-692.91"/>
</g>
<!-- 10184 -->
<g id="node8" class="node"><title>10184</title>
<g id="a_node8"><a xlink:title="3rd_week">
<ellipse fill="#ee9898" stroke="black" cx="546.839" cy="-541.914" rx="32.4942" ry="18"/>
<text text-anchor="middle" x="546.839" y="-538.214" font-family="Times,serif" font-size="14.00">10184</text>
</a>
</g>
</g>
<!-- 10184&#45;&gt;59402 -->
<g id="edge46" class="edge"><title>10184&#45;&gt;59402</title>
<path fill="none" stroke="black" d="M549.463,-560.127C554.095,-592.293 563.673,-658.79 568.304,-690.939"/>
</g>
<!-- 10926 -->
<g id="node9" class="node"><title>10926</title>
<g id="a_node9"><a xlink:title="3rd_week">
<ellipse fill="#ee9898" stroke="black" cx="1222.84" cy="-730.851" rx="32.4942" ry="18"/>
<text text-anchor="middle" x="1222.84" y="-727.151" font-family="Times,serif" font-size="14.00">10926</text>
</a>
</g>
</g>
<!-- 10926&#45;&gt;39557 -->
<g id="edge10" class="edge"><title>10926&#45;&gt;39557</title>
<path fill="none" stroke="black" d="M1203.65,-716.092C1175,-694.068 1121.4,-652.848 1092.8,-630.858"/>
</g>
<!-- 11502 -->
<g id="node10" class="node"><title>11502</title>
<g id="a_node10"><a xlink:title="3rd_week">
<ellipse fill="#ee9898" stroke="black" cx="574.59" cy="-877.83" rx="32.4942" ry="18"/>
<text text-anchor="middle" x="574.59" y="-874.13" font-family="Times,serif" font-size="14.00">11502</text>
</a>
</g>
</g>
<!-- 11502&#45;&gt;59402 -->
<g id="edge28" class="edge"><title>11502&#45;&gt;59402</title>
<path fill="none" stroke="black" d="M574.198,-859.776C573.494,-827.391 572.025,-759.785 571.319,-727.309"/>
</g>
<!-- 12638 -->
<g id="node11" class="node"><title>12638</title>
<g id="a_node11"><a xlink:title="3rd_week">
<ellipse fill="#ee9898" stroke="black" cx="677.745" cy="-595.082" rx="32.4942" ry="18"/>
<text text-anchor="middle" x="677.745" y="-591.382" font-family="Times,serif" font-size="14.00">12638</text>
</a>
</g>
</g>
<!-- 12638&#45;&gt;59402 -->
<g id="edge31" class="edge"><title>12638&#45;&gt;59402</title>
<path fill="none" stroke="black" d="M662.44,-611.422C642.133,-633.103 606.493,-671.155 586.2,-692.82"/>
</g>
<!-- 16736 -->
<g id="node12" class="node"><title>16736</title>
<g id="a_node12"><a xlink:title="3rd_week">
<ellipse fill="#ee9898" stroke="black" cx="671.492" cy="-936.632" rx="32.4942" ry="18"/>
<text text-anchor="middle" x="671.492" y="-932.932" font-family="Times,serif" font-size="14.00">16736</text>
</a>
</g>
</g>
<!-- 16736&#45;&gt;59402 -->
<g id="edge40" class="edge"><title>16736&#45;&gt;59402</title>
<path fill="none" stroke="black" d="M663.601,-918.78C644.801,-876.252 597.541,-769.343 578.778,-726.899"/>
</g>
<!-- 16780 -->
<g id="node13" class="node"><title>16780</title>
<g id="a_node13"><a xlink:title="3rd_week">
<ellipse fill="#ee9898" stroke="black" cx="361.764" cy="-499.181" rx="32.4942" ry="18"/>
<text text-anchor="middle" x="361.764" y="-495.481" font-family="Times,serif" font-size="14.00">16780</text>
</a>
</g>
</g>
<!-- 45465 -->
<g id="node40" class="node"><title>45465</title>
<g id="a_node40"><a xlink:title="3rd_week">
<ellipse fill="#ee9898" stroke="black" cx="211.777" cy="-328.123" rx="32.4942" ry="18"/>
<text text-anchor="middle" x="211.777" y="-324.423" font-family="Times,serif" font-size="14.00">45465</text>
</a>
</g>
</g>
<!-- 16780&#45;&gt;45465 -->
<g id="edge45" class="edge"><title>16780&#45;&gt;45465</title>
<path fill="none" stroke="black" d="M347.383,-482.779C318.714,-450.083 254.748,-377.13 226.115,-344.475"/>
</g>
<!-- 16780&#45;&gt;59402 -->
<g id="edge19" class="edge"><title>16780&#45;&gt;59402</title>
<path fill="none" stroke="black" d="M377.485,-514.961C416.247,-553.869 516.068,-654.067 555.02,-693.167"/>
</g>
<!-- 18376 -->
<g id="node15" class="node"><title>18376</title>
<g id="a_node15"><a xlink:title="3rd_week">
<ellipse fill="#ee9898" stroke="black" cx="1222.63" cy="-805.845" rx="32.4942" ry="18"/>
<text text-anchor="middle" x="1222.63" y="-802.145" font-family="Times,serif" font-size="14.00">18376</text>
</a>
</g>
</g>
<!-- 18376&#45;&gt;39557 -->
<g id="edge48" class="edge"><title>18376&#45;&gt;39557</title>
<path fill="none" stroke="black" d="M1209.41,-789.011C1181.07,-752.923 1114.77,-668.49 1086.65,-632.68"/>
</g>
<!-- 38199 -->
<g id="node33" class="node"><title>38199</title>
<g id="a_node33"><a xlink:title="3rd_week">
<ellipse fill="#ee9898" stroke="black" cx="1402.01" cy="-639.611" rx="32.4942" ry="18"/>
<text text-anchor="middle" x="1402.01" y="-635.911" font-family="Times,serif" font-size="14.00">38199</text>
</a>
</g>
</g>
<!-- 18627&#45;&gt;38199 -->
<g id="edge33" class="edge"><title>18627&#45;&gt;38199</title>
<path fill="none" stroke="black" d="M1615.6,-658.587C1568.51,-654.403 1481.24,-646.649 1434.14,-642.465"/>
</g>
<!-- 19688 -->
<g id="node17" class="node"><title>19688</title>
<g id="a_node17"><a xlink:title="3rd_week">
<ellipse fill="#ee9898" stroke="black" cx="1601.75" cy="-17.7139" rx="32.4942" ry="18"/>
<text text-anchor="middle" x="1601.75" y="-14.0139" font-family="Times,serif" font-size="14.00">19688</text>
</a>
</g>
</g>
<!-- 19688&#45;&gt;25686 -->
<g id="edge49" class="edge"><title>19688&#45;&gt;25686</title>
<path fill="none" stroke="black" d="M1587.23,-33.8414C1559.76,-64.3289 1500.53,-130.09 1473.04,-160.61"/>
</g>
<!-- 19713 -->
<g id="node18" class="node"><title>19713</title>
<g id="a_node18"><a xlink:title="3rd_week">
<ellipse fill="#ee9898" stroke="black" cx="717.225" cy="-774.107" rx="32.4942" ry="18"/>
<text text-anchor="middle" x="717.225" y="-770.407" font-family="Times,serif" font-size="14.00">19713</text>
</a>
</g>
</g>
<!-- 19713&#45;&gt;59402 -->
<g id="edge9" class="edge"><title>19713&#45;&gt;59402</title>
<path fill="none" stroke="black" d="M691.741,-762.789C665.052,-750.935 623.369,-732.423 596.606,-720.537"/>
</g>
<!-- 19779 -->
<g id="node19" class="node"><title>19779</title>
<g id="a_node19"><a xlink:title="3rd_week">
<ellipse fill="#ee9898" stroke="black" cx="452.129" cy="-515.76" rx="32.4942" ry="18"/>
<text text-anchor="middle" x="452.129" y="-512.06" font-family="Times,serif" font-size="14.00">19779</text>
</a>
</g>
</g>
<!-- 19779&#45;&gt;59402 -->
<g id="edge47" class="edge"><title>19779&#45;&gt;59402</title>
<path fill="none" stroke="black" d="M462.671,-532.92C485.214,-569.616 537.883,-655.347 560.405,-692.008"/>
</g>
<!-- 20504 -->
<g id="node20" class="node"><title>20504</title>
<g id="a_node20"><a xlink:title="3rd_week">
<ellipse fill="#ee9898" stroke="black" cx="376.352" cy="-602.333" rx="32.4942" ry="18"/>
<text text-anchor="middle" x="376.352" y="-598.633" font-family="Times,serif" font-size="14.00">20504</text>
</a>
</g>
</g>
<!-- 20504&#45;&gt;59402 -->
<g id="edge41" class="edge"><title>20504&#45;&gt;59402</title>
<path fill="none" stroke="black" d="M399.436,-615.004C436.782,-635.503 510.047,-675.716 547.567,-696.31"/>
</g>
<!-- 25080 -->
<g id="node21" class="node"><title>25080</title>
<g id="a_node21"><a xlink:title="3rd_week">
<ellipse fill="#ee9898" stroke="black" cx="355.993" cy="-678.709" rx="32.4942" ry="18"/>
<text text-anchor="middle" x="355.993" y="-675.009" font-family="Times,serif" font-size="14.00">25080</text>
</a>
</g>
</g>
<!-- 25080&#45;&gt;59402 -->
<g id="edge51" class="edge"><title>25080&#45;&gt;59402</title>
<path fill="none" stroke="black" d="M387.707,-683.198C428.46,-688.966 498.784,-698.92 539.43,-704.673"/>
</g>
<!-- 27054 -->
<g id="node23" class="node"><title>27054</title>
<g id="a_node23"><a xlink:title="3rd_week">
<ellipse fill="#ee9898" stroke="black" cx="367.895" cy="-814.174" rx="32.4942" ry="18"/>
<text text-anchor="middle" x="367.895" y="-810.474" font-family="Times,serif" font-size="14.00">27054</text>
</a>
</g>
</g>
<!-- 27054&#45;&gt;59402 -->
<g id="edge12" class="edge"><title>27054&#45;&gt;59402</title>
<path fill="none" stroke="black" d="M391.983,-801.712C431.057,-781.495 507.813,-741.783 546.868,-721.577"/>
</g>
<!-- 29049 -->
<g id="node24" class="node"><title>29049</title>
<g id="a_node24"><a xlink:title="3rd_week">
<ellipse fill="#ee9898" stroke="black" cx="1190.01" cy="-435.805" rx="32.4942" ry="18"/>
<text text-anchor="middle" x="1190.01" y="-432.105" font-family="Times,serif" font-size="14.00">29049</text>
</a>
</g>
</g>
<!-- 29049&#45;&gt;39557 -->
<g id="edge14" class="edge"><title>29049&#45;&gt;39557</title>
<path fill="none" stroke="black" d="M1179.06,-452.772C1156.89,-487.145 1106.9,-564.656 1084.68,-599.101"/>
</g>
<!-- 29800 -->
<g id="node25" class="node"><title>29800</title>
<g id="a_node25"><a xlink:title="3rd_week">
<ellipse fill="#ee9898" stroke="black" cx="395.386" cy="-878.649" rx="32.4942" ry="18"/>
<text text-anchor="middle" x="395.386" y="-874.949" font-family="Times,serif" font-size="14.00">29800</text>
</a>
</g>
</g>
<!-- 29800&#45;&gt;59402 -->
<g id="edge6" class="edge"><title>29800&#45;&gt;59402</title>
<path fill="none" stroke="black" d="M411.586,-863.005C444.941,-830.793 520.969,-757.372 554.508,-724.983"/>
</g>
<!-- 29802 -->
<g id="node26" class="node"><title>29802</title>
<g id="a_node26"><a xlink:title="3rd_week">
<ellipse fill="#ee9898" stroke="black" cx="397.693" cy="-996.391" rx="32.4942" ry="18"/>
<text text-anchor="middle" x="397.693" y="-992.691" font-family="Times,serif" font-size="14.00">29802</text>
</a>
</g>
</g>
<!-- 29886 -->
<g id="node27" class="node"><title>29886</title>
<g id="a_node27"><a xlink:title="3rd_week">
<ellipse fill="#ee9898" stroke="black" cx="333.361" cy="-1204.1" rx="32.4942" ry="18"/>
<text text-anchor="middle" x="333.361" y="-1200.4" font-family="Times,serif" font-size="14.00">29886</text>
</a>
</g>
</g>
<!-- 29802&#45;&gt;29886 -->
<g id="edge38" class="edge"><title>29802&#45;&gt;29886</title>
<path fill="none" stroke="black" d="M392.097,-1014.46C379.9,-1053.84 351.042,-1147.01 338.899,-1186.22"/>
</g>
<!-- 55401 -->
<g id="node45" class="node"><title>55401</title>
<g id="a_node45"><a xlink:title="3rd_week">
<ellipse fill="#ee9898" stroke="black" cx="245.989" cy="-1153.03" rx="32.4942" ry="18"/>
<text text-anchor="middle" x="245.989" y="-1149.33" font-family="Times,serif" font-size="14.00">55401</text>
</a>
</g>
</g>
<!-- 29802&#45;&gt;55401 -->
<g id="edge55" class="edge"><title>29802&#45;&gt;55401</title>
<path fill="none" stroke="black" d="M382.312,-1012.27C353.236,-1042.29 290.519,-1107.05 261.411,-1137.11"/>
</g>
<!-- 29802&#45;&gt;59402 -->
<g id="edge29" class="edge"><title>29802&#45;&gt;59402</title>
<path fill="none" stroke="black" d="M408.011,-979.282C438.749,-928.311 529.49,-777.839 560.441,-726.513"/>
</g>
<!-- 30608 -->
<g id="node28" class="node"><title>30608</title>
<g id="a_node28"><a xlink:title="3rd_week">
<ellipse fill="#ee9898" stroke="black" cx="1315.24" cy="-543.936" rx="32.4942" ry="18"/>
<text text-anchor="middle" x="1315.24" y="-540.236" font-family="Times,serif" font-size="14.00">30608</text>
</a>
</g>
</g>
<!-- 30608&#45;&gt;39557 -->
<g id="edge42" class="edge"><title>30608&#45;&gt;39557</title>
<path fill="none" stroke="black" d="M1286.58,-552.504C1240.09,-566.403 1148.77,-593.706 1102.3,-607.598"/>
</g>
<!-- 32098 -->
<g id="node29" class="node"><title>32098</title>
<g id="a_node29"><a xlink:title="3rd_week">
<ellipse fill="#ee9898" stroke="black" cx="1149.23" cy="-384.447" rx="32.4942" ry="18"/>
<text text-anchor="middle" x="1149.23" y="-380.747" font-family="Times,serif" font-size="14.00">32098</text>
</a>
</g>
</g>
<!-- 32098&#45;&gt;39557 -->
<g id="edge39" class="edge"><title>32098&#45;&gt;39557</title>
<path fill="none" stroke="black" d="M1143.42,-402.244C1129.36,-445.375 1093.58,-555.104 1079.5,-598.297"/>
</g>
<!-- 34610 -->
<g id="node30" class="node"><title>34610</title>
<g id="a_node30"><a xlink:title="3rd_week">
<ellipse fill="#ee9898" stroke="black" cx="1223.44" cy="-519.456" rx="32.4942" ry="18"/>
<text text-anchor="middle" x="1223.44" y="-515.756" font-family="Times,serif" font-size="14.00">34610</text>
</a>
</g>
</g>
<!-- 34610&#45;&gt;39557 -->
<g id="edge32" class="edge"><title>34610&#45;&gt;39557</title>
<path fill="none" stroke="black" d="M1201.99,-533.31C1173.52,-551.693 1123.55,-583.956 1095.1,-602.326"/>
</g>
<!-- 35317 -->
<g id="node31" class="node"><title>35317</title>
<g id="a_node31"><a xlink:title="3rd_week">
<ellipse fill="#ee9898" stroke="black" cx="954.763" cy="-499.699" rx="32.4942" ry="18"/>
<text text-anchor="middle" x="954.763" y="-495.999" font-family="Times,serif" font-size="14.00">35317</text>
</a>
</g>
</g>
<!-- 35317&#45;&gt;39557 -->
<g id="edge52" class="edge"><title>35317&#45;&gt;39557</title>
<path fill="none" stroke="black" d="M970.8,-515.405C993.496,-537.631 1034.75,-578.032 1057.51,-600.326"/>
</g>
<!-- 38074&#45;&gt;39557 -->
<g id="edge1" class="edge"><title>38074&#45;&gt;39557</title>
<path fill="none" stroke="black" d="M1295.49,-781.067C1250.08,-747.303 1138.73,-664.521 1093.38,-630.804"/>
</g>
<!-- 38199&#45;&gt;39557 -->
<g id="edge35" class="edge"><title>38199&#45;&gt;39557</title>
<path fill="none" stroke="black" d="M1369.63,-637.298C1306.86,-632.813 1169.27,-622.983 1106.3,-618.485"/>
</g>
<!-- 38819 -->
<g id="node34" class="node"><title>38819</title>
<g id="a_node34"><a xlink:title="3rd_week">
<ellipse fill="#ee9898" stroke="black" cx="694.988" cy="-867.747" rx="32.4942" ry="18"/>
<text text-anchor="middle" x="694.988" y="-864.047" font-family="Times,serif" font-size="14.00">38819</text>
</a>
</g>
</g>
<!-- 38819&#45;&gt;59402 -->
<g id="edge36" class="edge"><title>38819&#45;&gt;59402</title>
<path fill="none" stroke="black" d="M681.945,-851.072C658.18,-820.688 608.076,-756.63 584.165,-726.059"/>
</g>
<!-- 38872 -->
<g id="node35" class="node"><title>38872</title>
<g id="a_node35"><a xlink:title="3rd_week">
<ellipse fill="#ee9898" stroke="black" cx="1294.64" cy="-615.223" rx="32.4942" ry="18"/>
<text text-anchor="middle" x="1294.64" y="-611.523" font-family="Times,serif" font-size="14.00">38872</text>
</a>
</g>
</g>
<!-- 38872&#45;&gt;39557 -->
<g id="edge25" class="edge"><title>38872&#45;&gt;39557</title>
<path fill="none" stroke="black" d="M1262.03,-615.36C1220.26,-615.536 1148.26,-615.84 1106.41,-616.016"/>
</g>
<!-- 39504 -->
<g id="node36" class="node"><title>39504</title>
<g id="a_node36"><a xlink:title="3rd_week">
<ellipse fill="#ee9898" stroke="black" cx="981.759" cy="-426.762" rx="32.4942" ry="18"/>
<text text-anchor="middle" x="981.759" y="-423.062" font-family="Times,serif" font-size="14.00">39504</text>
</a>
</g>
</g>
<!-- 39504&#45;&gt;39557 -->
<g id="edge2" class="edge"><title>39504&#45;&gt;39557</title>
<path fill="none" stroke="black" d="M990.241,-444.24C1007.75,-480.32 1047.72,-562.675 1065.22,-598.719"/>
</g>
<!-- 42227 -->
<g id="node39" class="node"><title>42227</title>
<g id="a_node39"><a xlink:title="3rd_week">
<ellipse fill="#ee9898" stroke="black" cx="1057.89" cy="-373.608" rx="32.4942" ry="18"/>
<text text-anchor="middle" x="1057.89" y="-369.908" font-family="Times,serif" font-size="14.00">42227</text>
</a>
</g>
</g>
<!-- 39557&#45;&gt;42227 -->
<g id="edge44" class="edge"><title>39557&#45;&gt;42227</title>
<path fill="none" stroke="black" d="M1072.49,-597.924C1069.56,-552.865 1061.99,-436.653 1059.07,-391.719"/>
</g>
<!-- 47576 -->
<g id="node41" class="node"><title>47576</title>
<g id="a_node41"><a xlink:title="3rd_week">
<ellipse fill="#ee9898" stroke="black" cx="1130.54" cy="-776.007" rx="32.4942" ry="18"/>
<text text-anchor="middle" x="1130.54" y="-772.307" font-family="Times,serif" font-size="14.00">47576</text>
</a>
</g>
</g>
<!-- 39557&#45;&gt;47576 -->
<g id="edge4" class="edge"><title>39557&#45;&gt;47576</title>
<path fill="none" stroke="black" d="M1079.98,-633.872C1090.91,-664.599 1113.26,-727.428 1124.21,-758.21"/>
</g>
<!-- 54589 -->
<g id="node44" class="node"><title>54589</title>
<g id="a_node44"><a xlink:title="3rd_week">
<ellipse fill="#ee9898" stroke="black" cx="1297.41" cy="-691.241" rx="32.4942" ry="18"/>
<text text-anchor="middle" x="1297.41" y="-687.541" font-family="Times,serif" font-size="14.00">54589</text>
</a>
</g>
</g>
<!-- 39557&#45;&gt;54589 -->
<g id="edge20" class="edge"><title>39557&#45;&gt;54589</title>
<path fill="none" stroke="black" d="M1101.56,-625.513C1144.55,-639.94 1226.54,-667.456 1269.53,-681.884"/>
</g>
<!-- 39557&#45;&gt;59402 -->
<g id="edge53" class="edge"><title>39557&#45;&gt;59402</title>
<path fill="none" stroke="black" d="M1042.61,-621.9C952.478,-638.568 691.654,-686.803 601.786,-703.423"/>
</g>
<!-- 59890 -->
<g id="node50" class="node"><title>59890</title>
<g id="a_node50"><a xlink:title="3rd_week">
<ellipse fill="#ee9898" stroke="black" cx="998.635" cy="-759.679" rx="32.4942" ry="18"/>
<text text-anchor="middle" x="998.635" y="-755.979" font-family="Times,serif" font-size="14.00">59890</text>
</a>
</g>
</g>
<!-- 39557&#45;&gt;59890 -->
<g id="edge30" class="edge"><title>39557&#45;&gt;59890</title>
<path fill="none" stroke="black" d="M1064.63,-633.467C1050.2,-661.053 1022.16,-714.681 1007.72,-742.305"/>
</g>
<!-- 61613 -->
<g id="node52" class="node"><title>61613</title>
<g id="a_node52"><a xlink:title="3rd_week">
<ellipse fill="#ee9898" stroke="black" cx="1039.79" cy="-834.441" rx="32.4942" ry="18"/>
<text text-anchor="middle" x="1039.79" y="-830.741" font-family="Times,serif" font-size="14.00">61613</text>
</a>
</g>
</g>
<!-- 39557&#45;&gt;61613 -->
<g id="edge37" class="edge"><title>39557&#45;&gt;61613</title>
<path fill="none" stroke="black" d="M1070.85,-634.39C1064.45,-675.582 1048.96,-775.415 1042.59,-816.411"/>
</g>
<!-- 62139 -->
<g id="node53" class="node"><title>62139</title>
<g id="a_node53"><a xlink:title="3rd_week">
<ellipse fill="#ee9898" stroke="black" cx="1148.35" cy="-846.503" rx="32.4942" ry="18"/>
<text text-anchor="middle" x="1148.35" y="-842.803" font-family="Times,serif" font-size="14.00">62139</text>
</a>
</g>
</g>
<!-- 39557&#45;&gt;62139 -->
<g id="edge24" class="edge"><title>39557&#45;&gt;62139</title>
<path fill="none" stroke="black" d="M1079.54,-634.23C1093.5,-677.29 1128.59,-785.536 1142.52,-828.512"/>
</g>
<!-- 66095 -->
<g id="node56" class="node"><title>66095</title>
<g id="a_node56"><a xlink:title="3rd_week">
<ellipse fill="#ee9898" stroke="black" cx="1272.73" cy="-464.274" rx="32.4942" ry="18"/>
<text text-anchor="middle" x="1272.73" y="-460.574" font-family="Times,serif" font-size="14.00">66095</text>
</a>
</g>
</g>
<!-- 39557&#45;&gt;66095 -->
<g id="edge8" class="edge"><title>39557&#45;&gt;66095</title>
<path fill="none" stroke="black" d="M1093.13,-601.315C1131.28,-572.204 1215.52,-507.929 1253.5,-478.95"/>
</g>
<!-- 41356 -->
<g id="node38" class="node"><title>41356</title>
<g id="a_node38"><a xlink:title="3rd_week">
<ellipse fill="#ee9898" stroke="black" cx="483.913" cy="-940.813" rx="32.4942" ry="18"/>
<text text-anchor="middle" x="483.913" y="-937.113" font-family="Times,serif" font-size="14.00">41356</text>
</a>
</g>
</g>
<!-- 41356&#45;&gt;59402 -->
<g id="edge21" class="edge"><title>41356&#45;&gt;59402</title>
<path fill="none" stroke="black" d="M490.597,-923.018C506.793,-879.892 547.998,-770.174 564.218,-726.986"/>
</g>
<!-- 48405 -->
<g id="node42" class="node"><title>48405</title>
<g id="a_node42"><a xlink:title="3rd_week">
<ellipse fill="#ee9898" stroke="black" cx="622.909" cy="-521.103" rx="32.4942" ry="18"/>
<text text-anchor="middle" x="622.909" y="-517.403" font-family="Times,serif" font-size="14.00">48405</text>
</a>
</g>
</g>
<!-- 48405&#45;&gt;59402 -->
<g id="edge18" class="edge"><title>48405&#45;&gt;59402</title>
<path fill="none" stroke="black" d="M617.924,-539.132C607.988,-575.072 585.817,-655.261 575.893,-691.156"/>
</g>
<!-- 57546 -->
<g id="node46" class="node"><title>57546</title>
<g id="a_node46"><a xlink:title="3rd_week">
<ellipse fill="#ee9898" stroke="black" cx="279.982" cy="-619.711" rx="32.4942" ry="18"/>
<text text-anchor="middle" x="279.982" y="-616.011" font-family="Times,serif" font-size="14.00">57546</text>
</a>
</g>
</g>
<!-- 57546&#45;&gt;59402 -->
<g id="edge43" class="edge"><title>57546&#45;&gt;59402</title>
<path fill="none" stroke="black" d="M308.409,-628.447C364.03,-645.542 486.668,-683.235 542.382,-700.358"/>
</g>
<!-- 60253 -->
<g id="node51" class="node"><title>60253</title>
<g id="a_node51"><a xlink:title="3rd_week">
<ellipse fill="#ee9898" stroke="black" cx="73.5259" cy="-540.401" rx="32.4942" ry="18"/>
<text text-anchor="middle" x="73.5259" y="-536.701" font-family="Times,serif" font-size="14.00">60253</text>
</a>
</g>
</g>
<!-- 57546&#45;&gt;60253 -->
<g id="edge15" class="edge"><title>57546&#45;&gt;60253</title>
<path fill="none" stroke="black" d="M252.992,-609.342C213.425,-594.143 140.094,-565.973 100.523,-550.772"/>
</g>
<!-- 58682 -->
<g id="node48" class="node"><title>58682</title>
<g id="a_node48"><a xlink:title="3rd_week">
<ellipse fill="#ee9898" stroke="black" cx="544.303" cy="-484.055" rx="32.4942" ry="18"/>
<text text-anchor="middle" x="544.303" y="-480.355" font-family="Times,serif" font-size="14.00">58682</text>
</a>
</g>
</g>
<!-- 58682&#45;&gt;59402 -->
<g id="edge17" class="edge"><title>58682&#45;&gt;59402</title>
<path fill="none" stroke="black" d="M546.437,-502.093C551.421,-544.237 563.786,-648.778 568.78,-691.006"/>
</g>
<!-- 62873 -->
<g id="node54" class="node"><title>62873</title>
<g id="a_node54"><a xlink:title="3rd_week">
<ellipse fill="#ee9898" stroke="black" cx="484.285" cy="-867.404" rx="32.4942" ry="18"/>
<text text-anchor="middle" x="484.285" y="-863.704" font-family="Times,serif" font-size="14.00">62873</text>
</a>
</g>
</g>
<!-- 59402&#45;&gt;62873 -->
<g id="edge54" class="edge"><title>59402&#45;&gt;62873</title>
<path fill="none" stroke="black" d="M561.487,-726.37C544.909,-756.655 510.73,-819.094 493.975,-849.703"/>
</g>
<!-- 63056 -->
<g id="node55" class="node"><title>63056</title>
<g id="a_node55"><a xlink:title="3rd_week">
<ellipse fill="#ee9898" stroke="black" cx="342.57" cy="-746.715" rx="32.4942" ry="18"/>
<text text-anchor="middle" x="342.57" y="-743.015" font-family="Times,serif" font-size="14.00">63056</text>
</a>
</g>
</g>
<!-- 59402&#45;&gt;63056 -->
<g id="edge5" class="edge"><title>59402&#45;&gt;63056</title>
<path fill="none" stroke="black" d="M539.651,-714.277C496.044,-721.455 417.432,-734.393 373.831,-741.57"/>
</g>
</g>
</svg>
