<?xml version="1.0" encoding="UTF-8" standalone="no"?>
<!DOCTYPE svg PUBLIC "-//W3C//DTD SVG 1.1//EN"
 "http://www.w3.org/Graphics/SVG/1.1/DTD/svg11.dtd">
<!-- Generated by graphviz version 2.38.0 (20140413.2041)
 -->
<!-- Title: %3 Pages: 1 -->
<svg width="1334pt" height="1497pt"
 viewBox="0.00 0.00 1334.00 1497.00" xmlns="http://www.w3.org/2000/svg" xmlns:xlink="http://www.w3.org/1999/xlink">
<g id="graph0" class="graph" transform="scale(1 1) rotate(0) translate(4 1493)">
<title>%3</title>
<polygon fill="white" stroke="none" points="-4,4 -4,-1493 1330,-1493 1330,4 -4,4"/>
<!-- 304 -->
<g id="node1" class="node"><title>304</title>
<g id="a_node1"><a xlink:title="3rd_week">
<ellipse fill="#ee9898" stroke="black" cx="221.807" cy="-918.334" rx="27" ry="18"/>
<text text-anchor="middle" x="221.807" y="-914.634" font-family="Times,serif" font-size="14.00">304</text>
</a>
</g>
</g>
<!-- 43296 -->
<g id="node27" class="node"><title>43296</title>
<g id="a_node27"><a xlink:title="3rd_week">
<ellipse fill="#ee9898" stroke="black" cx="427.195" cy="-921.693" rx="32.4942" ry="18"/>
<text text-anchor="middle" x="427.195" y="-917.993" font-family="Times,serif" font-size="14.00">43296</text>
</a>
</g>
</g>
<!-- 304&#45;&gt;43296 -->
<g id="edge22" class="edge"><title>304&#45;&gt;43296</title>
<path fill="none" stroke="black" d="M249.081,-918.78C286.618,-919.394 354.118,-920.498 394.373,-921.156"/>
</g>
<!-- 428 -->
<g id="node2" class="node"><title>428</title>
<g id="a_node2"><a xlink:title="3rd_week">
<ellipse fill="#ee9898" stroke="black" cx="541.524" cy="-1466.64" rx="27" ry="18"/>
<text text-anchor="middle" x="541.524" y="-1462.94" font-family="Times,serif" font-size="14.00">428</text>
</a>
</g>
</g>
<!-- 60676 -->
<g id="node51" class="node"><title>60676</title>
<g id="a_node51"><a xlink:title="3rd_week">
<ellipse fill="#ee9898" stroke="black" cx="590.735" cy="-1230.69" rx="32.4942" ry="18"/>
<text text-anchor="middle" x="590.735" y="-1226.99" font-family="Times,serif" font-size="14.00">60676</text>
</a>
</g>
</g>
<!-- 428&#45;&gt;60676 -->
<g id="edge23" class="edge"><title>428&#45;&gt;60676</title>
<path fill="none" stroke="black" d="M545.304,-1448.52C554.464,-1404.6 577.769,-1292.86 586.943,-1248.87"/>
</g>
<!-- 1108 -->
<g id="node3" class="node"><title>1108</title>
<g id="a_node3"><a xlink:title="3rd_week">
<ellipse fill="#ee9898" stroke="black" cx="1249.26" cy="-850.315" rx="28.6953" ry="18"/>
<text text-anchor="middle" x="1249.26" y="-846.615" font-family="Times,serif" font-size="14.00">1108</text>
</a>
</g>
</g>
<!-- 53417 -->
<g id="node41" class="node"><title>53417</title>
<g id="a_node41"><a xlink:title="3rd_week">
<ellipse fill="#ee9898" stroke="black" cx="1005.37" cy="-895.37" rx="32.4942" ry="18"/>
<text text-anchor="middle" x="1005.37" y="-891.67" font-family="Times,serif" font-size="14.00">53417</text>
</a>
</g>
</g>
<!-- 1108&#45;&gt;53417 -->
<g id="edge33" class="edge"><title>1108&#45;&gt;53417</title>
<path fill="none" stroke="black" d="M1221.75,-855.396C1175.91,-863.865 1084.18,-880.811 1036.21,-889.673"/>
</g>
<!-- 1420 -->
<g id="node4" class="node"><title>1420</title>
<g id="a_node4"><a xlink:title="3rd_week">
<ellipse fill="#ee9898" stroke="black" cx="805.472" cy="-654.15" rx="28.6953" ry="18"/>
<text text-anchor="middle" x="805.472" y="-650.45" font-family="Times,serif" font-size="14.00">1420</text>
</a>
</g>
</g>
<!-- 18192 -->
<g id="node11" class="node"><title>18192</title>
<g id="a_node11"><a xlink:title="3rd_week">
<ellipse fill="#ee9898" stroke="black" cx="873.241" cy="-454.096" rx="32.4942" ry="18"/>
<text text-anchor="middle" x="873.241" y="-450.396" font-family="Times,serif" font-size="14.00">18192</text>
</a>
</g>
</g>
<!-- 1420&#45;&gt;18192 -->
<g id="edge39" class="edge"><title>1420&#45;&gt;18192</title>
<path fill="none" stroke="black" d="M811.486,-636.397C824.347,-598.433 854.392,-509.738 867.241,-471.81"/>
</g>
<!-- 66036 -->
<g id="node55" class="node"><title>66036</title>
<g id="a_node55"><a xlink:title="3rd_week">
<ellipse fill="#ee9898" stroke="black" cx="730.4" cy="-941.559" rx="32.4942" ry="18"/>
<text text-anchor="middle" x="730.4" y="-937.859" font-family="Times,serif" font-size="14.00">66036</text>
</a>
</g>
</g>
<!-- 1420&#45;&gt;66036 -->
<g id="edge34" class="edge"><title>1420&#45;&gt;66036</title>
<path fill="none" stroke="black" d="M800.776,-672.129C787.294,-723.744 748.574,-871.981 735.094,-923.587"/>
</g>
<!-- 2255 -->
<g id="node5" class="node"><title>2255</title>
<g id="a_node5"><a xlink:title="3rd_week">
<ellipse fill="#ee9898" stroke="black" cx="817.41" cy="-1200.96" rx="28.6953" ry="18"/>
<text text-anchor="middle" x="817.41" y="-1197.26" font-family="Times,serif" font-size="14.00">2255</text>
</a>
</g>
</g>
<!-- 49371 -->
<g id="node38" class="node"><title>49371</title>
<g id="a_node38"><a xlink:title="3rd_week">
<ellipse fill="#ee9898" stroke="black" cx="908.624" cy="-1432.01" rx="32.4942" ry="18"/>
<text text-anchor="middle" x="908.624" y="-1428.31" font-family="Times,serif" font-size="14.00">49371</text>
</a>
</g>
</g>
<!-- 2255&#45;&gt;49371 -->
<g id="edge42" class="edge"><title>2255&#45;&gt;49371</title>
<path fill="none" stroke="black" d="M824.416,-1218.71C841.395,-1261.72 884.591,-1371.13 901.595,-1414.2"/>
</g>
<!-- 2255&#45;&gt;66036 -->
<g id="edge20" class="edge"><title>2255&#45;&gt;66036</title>
<path fill="none" stroke="black" d="M811.429,-1183.13C795.534,-1135.74 752.365,-1007.05 736.422,-959.514"/>
</g>
<!-- 2855 -->
<g id="node6" class="node"><title>2855</title>
<g id="a_node6"><a xlink:title="3rd_week">
<ellipse fill="#ee9898" stroke="black" cx="738.201" cy="-1470.52" rx="28.6953" ry="18"/>
<text text-anchor="middle" x="738.201" y="-1466.82" font-family="Times,serif" font-size="14.00">2855</text>
</a>
</g>
</g>
<!-- 57886 -->
<g id="node45" class="node"><title>57886</title>
<g id="a_node45"><a xlink:title="3rd_week">
<ellipse fill="#ee9898" stroke="black" cx="723.307" cy="-1223.75" rx="32.4942" ry="18"/>
<text text-anchor="middle" x="723.307" y="-1220.05" font-family="Times,serif" font-size="14.00">57886</text>
</a>
</g>
</g>
<!-- 2855&#45;&gt;57886 -->
<g id="edge36" class="edge"><title>2855&#45;&gt;57886</title>
<path fill="none" stroke="black" d="M737.106,-1452.38C734.351,-1406.74 727.16,-1287.59 724.404,-1241.93"/>
</g>
<!-- 7569 -->
<g id="node7" class="node"><title>7569</title>
<g id="a_node7"><a xlink:title="3rd_week">
<ellipse fill="#ee9898" stroke="black" cx="722.94" cy="-1095.32" rx="28.6953" ry="18"/>
<text text-anchor="middle" x="722.94" y="-1091.62" font-family="Times,serif" font-size="14.00">7569</text>
</a>
</g>
</g>
<!-- 7569&#45;&gt;66036 -->
<g id="edge47" class="edge"><title>7569&#45;&gt;66036</title>
<path fill="none" stroke="black" d="M723.825,-1077.08C725.261,-1047.49 728.081,-989.356 729.516,-959.778"/>
</g>
<!-- 9500 -->
<g id="node8" class="node"><title>9500</title>
<g id="a_node8"><a xlink:title="Day_0">
<ellipse fill="#e5dada" stroke="black" cx="288.447" cy="-39.4875" rx="28.6953" ry="18"/>
<text text-anchor="middle" x="288.447" y="-35.7875" font-family="Times,serif" font-size="14.00">9500</text>
</a>
</g>
</g>
<!-- 57953 -->
<g id="node46" class="node"><title>57953</title>
<g id="a_node46"><a xlink:title="Day_0">
<ellipse fill="#e5dada" stroke="black" cx="236.128" cy="-237.866" rx="32.4942" ry="18"/>
<text text-anchor="middle" x="236.128" y="-234.166" font-family="Times,serif" font-size="14.00">57953</text>
</a>
</g>
</g>
<!-- 9500&#45;&gt;57953 -->
<g id="edge40" class="edge"><title>9500&#45;&gt;57953</title>
<path fill="none" stroke="black" d="M283.712,-57.4422C273.776,-95.1159 250.849,-182.046 240.89,-219.809"/>
</g>
<!-- 11522 -->
<g id="node9" class="node"><title>11522</title>
<g id="a_node9"><a xlink:title="3rd_week">
<ellipse fill="#ee9898" stroke="black" cx="906.173" cy="-1026.05" rx="32.4942" ry="18"/>
<text text-anchor="middle" x="906.173" y="-1022.35" font-family="Times,serif" font-size="14.00">11522</text>
</a>
</g>
</g>
<!-- 11522&#45;&gt;66036 -->
<g id="edge14" class="edge"><title>11522&#45;&gt;66036</title>
<path fill="none" stroke="black" d="M881.362,-1014.13C847.862,-998.024 788.52,-969.498 755.085,-953.425"/>
</g>
<!-- 11994 -->
<g id="node10" class="node"><title>11994</title>
<g id="a_node10"><a xlink:title="3rd_week">
<ellipse fill="#ee9898" stroke="black" cx="1065.35" cy="-1347.01" rx="32.4942" ry="18"/>
<text text-anchor="middle" x="1065.35" y="-1343.31" font-family="Times,serif" font-size="14.00">11994</text>
</a>
</g>
</g>
<!-- 35461 -->
<g id="node20" class="node"><title>35461</title>
<g id="a_node20"><a xlink:title="3rd_week">
<ellipse fill="#ee9898" stroke="black" cx="905.601" cy="-1152.73" rx="32.4942" ry="18"/>
<text text-anchor="middle" x="905.601" y="-1149.03" font-family="Times,serif" font-size="14.00">35461</text>
</a>
</g>
</g>
<!-- 11994&#45;&gt;35461 -->
<g id="edge1" class="edge"><title>11994&#45;&gt;35461</title>
<path fill="none" stroke="black" d="M1051.73,-1330.44C1021.55,-1293.74 949.335,-1205.92 919.187,-1169.26"/>
</g>
<!-- 22497 -->
<g id="node12" class="node"><title>22497</title>
<g id="a_node12"><a xlink:title="3rd_week">
<ellipse fill="#ee9898" stroke="black" cx="836.919" cy="-773.142" rx="32.4942" ry="18"/>
<text text-anchor="middle" x="836.919" y="-769.442" font-family="Times,serif" font-size="14.00">22497</text>
</a>
</g>
</g>
<!-- 22497&#45;&gt;66036 -->
<g id="edge5" class="edge"><title>22497&#45;&gt;66036</title>
<path fill="none" stroke="black" d="M826.119,-790.217C805.703,-822.497 761.666,-892.124 741.228,-924.438"/>
</g>
<!-- 28102 -->
<g id="node13" class="node"><title>28102</title>
<g id="a_node13"><a xlink:title="3rd_week">
<ellipse fill="#ee9898" stroke="black" cx="1294" cy="-1067.68" rx="32.4942" ry="18"/>
<text text-anchor="middle" x="1294" y="-1063.98" font-family="Times,serif" font-size="14.00">28102</text>
</a>
</g>
</g>
<!-- 34919 -->
<g id="node19" class="node"><title>34919</title>
<g id="a_node19"><a xlink:title="3rd_week">
<ellipse fill="#ee9898" stroke="black" cx="1046.1" cy="-1059.47" rx="32.4942" ry="18"/>
<text text-anchor="middle" x="1046.1" y="-1055.77" font-family="Times,serif" font-size="14.00">34919</text>
</a>
</g>
</g>
<!-- 28102&#45;&gt;34919 -->
<g id="edge43" class="edge"><title>28102&#45;&gt;34919</title>
<path fill="none" stroke="black" d="M1261.34,-1066.6C1213.87,-1065.03 1126.34,-1062.13 1078.84,-1060.55"/>
</g>
<!-- 28310 -->
<g id="node14" class="node"><title>28310</title>
<g id="a_node14"><a xlink:title="3rd_week">
<ellipse fill="#ee9898" stroke="black" cx="974.281" cy="-796.635" rx="32.4942" ry="18"/>
<text text-anchor="middle" x="974.281" y="-792.935" font-family="Times,serif" font-size="14.00">28310</text>
</a>
</g>
</g>
<!-- 28310&#45;&gt;66036 -->
<g id="edge2" class="edge"><title>28310&#45;&gt;66036</title>
<path fill="none" stroke="black" d="M951.774,-810.009C905.314,-837.618 799.266,-900.636 752.852,-928.217"/>
</g>
<!-- 26345 -->
<g id="node59" class="node"><title>26345</title>
<g id="a_node59"><a xlink:title="3rd_week">
<ellipse fill="#ee9898" stroke="black" cx="1194.03" cy="-673.646" rx="32.4942" ry="18"/>
<text text-anchor="middle" x="1194.03" y="-669.946" font-family="Times,serif" font-size="14.00">26345</text>
</a>
</g>
</g>
<!-- 28310&#45;&gt;26345 -->
<g id="edge4" class="edge"><title>28310&#45;&gt;26345</title>
<path fill="none" stroke="black" d="M997.383,-783.705C1039.59,-760.084 1128.69,-710.216 1170.91,-686.586"/>
</g>
<!-- 28368 -->
<g id="node15" class="node"><title>28368</title>
<g id="a_node15"><a xlink:title="Day_0">
<ellipse fill="#e5dada" stroke="black" cx="65.0014" cy="-108.455" rx="32.4942" ry="18"/>
<text text-anchor="middle" x="65.0014" y="-104.755" font-family="Times,serif" font-size="14.00">28368</text>
</a>
</g>
</g>
<!-- 28368&#45;&gt;57953 -->
<g id="edge53" class="edge"><title>28368&#45;&gt;57953</title>
<path fill="none" stroke="black" d="M84.2991,-123.049C117.253,-147.969 183.995,-198.442 216.901,-223.326"/>
</g>
<!-- 28430 -->
<g id="node16" class="node"><title>28430</title>
<g id="a_node16"><a xlink:title="3rd_week">
<ellipse fill="#ee9898" stroke="black" cx="477.742" cy="-590.132" rx="32.4942" ry="18"/>
<text text-anchor="middle" x="477.742" y="-586.432" font-family="Times,serif" font-size="14.00">28430</text>
</a>
</g>
</g>
<!-- 28430&#45;&gt;57953 -->
<g id="edge38" class="edge"><title>28430&#45;&gt;57953</title>
<path fill="none" stroke="black" d="M466.089,-573.141C425.272,-513.632 289.022,-314.984 247.948,-255.099"/>
</g>
<!-- 28430&#45;&gt;66036 -->
<g id="edge16" class="edge"><title>28430&#45;&gt;66036</title>
<path fill="none" stroke="black" d="M489.929,-607.082C532.709,-666.586 675.747,-865.541 718.336,-924.779"/>
</g>
<!-- 30130 -->
<g id="node17" class="node"><title>30130</title>
<g id="a_node17"><a xlink:title="3rd_week">
<ellipse fill="#ee9898" stroke="black" cx="503.425" cy="-1146.56" rx="32.4942" ry="18"/>
<text text-anchor="middle" x="503.425" y="-1142.86" font-family="Times,serif" font-size="14.00">30130</text>
</a>
</g>
</g>
<!-- 30130&#45;&gt;66036 -->
<g id="edge30" class="edge"><title>30130&#45;&gt;66036</title>
<path fill="none" stroke="black" d="M520.485,-1131.16C562.549,-1093.16 670.871,-995.326 713.142,-957.147"/>
</g>
<!-- 38325 -->
<g id="node60" class="node"><title>38325</title>
<g id="a_node60"><a xlink:title="3rd_week">
<ellipse fill="#ee9898" stroke="black" cx="339.941" cy="-1292.69" rx="32.4942" ry="18"/>
<text text-anchor="middle" x="339.941" y="-1288.99" font-family="Times,serif" font-size="14.00">38325</text>
</a>
</g>
</g>
<!-- 30130&#45;&gt;38325 -->
<g id="edge57" class="edge"><title>30130&#45;&gt;38325</title>
<path fill="none" stroke="black" d="M486.238,-1161.93C454.922,-1189.92 388.898,-1248.93 357.39,-1277.1"/>
</g>
<!-- 32533 -->
<g id="node18" class="node"><title>32533</title>
<g id="a_node18"><a xlink:title="3rd_week">
<ellipse fill="#ee9898" stroke="black" cx="687.707" cy="-1153.42" rx="32.4942" ry="18"/>
<text text-anchor="middle" x="687.707" y="-1149.72" font-family="Times,serif" font-size="14.00">32533</text>
</a>
</g>
</g>
<!-- 32533&#45;&gt;66036 -->
<g id="edge59" class="edge"><title>32533&#45;&gt;66036</title>
<path fill="none" stroke="black" d="M691.347,-1135.36C699.413,-1095.33 718.712,-999.56 726.769,-959.576"/>
</g>
<!-- 49146 -->
<g id="node37" class="node"><title>49146</title>
<g id="a_node37"><a xlink:title="3rd_week">
<ellipse fill="#ee9898" stroke="black" cx="1235.78" cy="-1212.07" rx="32.4942" ry="18"/>
<text text-anchor="middle" x="1235.78" y="-1208.37" font-family="Times,serif" font-size="14.00">49146</text>
</a>
</g>
</g>
<!-- 34919&#45;&gt;49146 -->
<g id="edge21" class="edge"><title>34919&#45;&gt;49146</title>
<path fill="none" stroke="black" d="M1064.63,-1074.38C1100.9,-1103.55 1180.85,-1167.88 1217.17,-1197.1"/>
</g>
<!-- 57998 -->
<g id="node47" class="node"><title>57998</title>
<g id="a_node47"><a xlink:title="3rd_week">
<ellipse fill="#ee9898" stroke="black" cx="1277.62" cy="-1145.18" rx="32.4942" ry="18"/>
<text text-anchor="middle" x="1277.62" y="-1141.48" font-family="Times,serif" font-size="14.00">57998</text>
</a>
</g>
</g>
<!-- 34919&#45;&gt;57998 -->
<g id="edge54" class="edge"><title>34919&#45;&gt;57998</title>
<path fill="none" stroke="black" d="M1073.57,-1069.64C1118.24,-1086.18 1206.12,-1118.71 1250.54,-1135.16"/>
</g>
<!-- 34919&#45;&gt;66036 -->
<g id="edge25" class="edge"><title>34919&#45;&gt;66036</title>
<path fill="none" stroke="black" d="M1018.91,-1049.31C959.234,-1027.02 817.355,-974.035 757.636,-951.731"/>
</g>
<!-- 35461&#45;&gt;66036 -->
<g id="edge27" class="edge"><title>35461&#45;&gt;66036</title>
<path fill="none" stroke="black" d="M891.853,-1136.16C859.102,-1096.69 776.77,-997.451 744.084,-958.053"/>
</g>
<!-- 36489 -->
<g id="node21" class="node"><title>36489</title>
<g id="a_node21"><a xlink:title="Day_0">
<ellipse fill="#e5dada" stroke="black" cx="352.888" cy="-84.0206" rx="32.4942" ry="18"/>
<text text-anchor="middle" x="352.888" y="-80.3206" font-family="Times,serif" font-size="14.00">36489</text>
</a>
</g>
</g>
<!-- 36489&#45;&gt;57953 -->
<g id="edge52" class="edge"><title>36489&#45;&gt;57953</title>
<path fill="none" stroke="black" d="M340.171,-100.778C317.711,-130.371 271.279,-191.551 248.83,-221.13"/>
</g>
<!-- 39082 -->
<g id="node22" class="node"><title>39082</title>
<g id="a_node22"><a xlink:title="Day_0">
<ellipse fill="#e5dada" stroke="black" cx="113.929" cy="-54.7151" rx="32.4942" ry="18"/>
<text text-anchor="middle" x="113.929" y="-51.0151" font-family="Times,serif" font-size="14.00">39082</text>
</a>
</g>
</g>
<!-- 39082&#45;&gt;57953 -->
<g id="edge12" class="edge"><title>39082&#45;&gt;57953</title>
<path fill="none" stroke="black" d="M125.206,-71.6172C148.426,-106.42 201.352,-185.745 224.7,-220.739"/>
</g>
<!-- 39907 -->
<g id="node23" class="node"><title>39907</title>
<g id="a_node23"><a xlink:title="3rd_week">
<ellipse fill="#ee9898" stroke="black" cx="757.039" cy="-708.013" rx="32.4942" ry="18"/>
<text text-anchor="middle" x="757.039" y="-704.313" font-family="Times,serif" font-size="14.00">39907</text>
</a>
</g>
</g>
<!-- 39907&#45;&gt;66036 -->
<g id="edge8" class="edge"><title>39907&#45;&gt;66036</title>
<path fill="none" stroke="black" d="M754.949,-726.339C749.969,-769.997 737.45,-879.746 732.48,-923.318"/>
</g>
<!-- 40199 -->
<g id="node24" class="node"><title>40199</title>
<g id="a_node24"><a xlink:title="3rd_week">
<ellipse fill="#ee9898" stroke="black" cx="588.046" cy="-747.849" rx="32.4942" ry="18"/>
<text text-anchor="middle" x="588.046" y="-744.149" font-family="Times,serif" font-size="14.00">40199</text>
</a>
</g>
</g>
<!-- 40199&#45;&gt;66036 -->
<g id="edge49" class="edge"><title>40199&#45;&gt;66036</title>
<path fill="none" stroke="black" d="M600.43,-764.7C627.42,-801.427 691.275,-888.319 718.146,-924.884"/>
</g>
<!-- 42213 -->
<g id="node25" class="node"><title>42213</title>
<g id="a_node25"><a xlink:title="3rd_week">
<ellipse fill="#ee9898" stroke="black" cx="531.266" cy="-993.562" rx="32.4942" ry="18"/>
<text text-anchor="middle" x="531.266" y="-989.862" font-family="Times,serif" font-size="14.00">42213</text>
</a>
</g>
</g>
<!-- 42213&#45;&gt;66036 -->
<g id="edge24" class="edge"><title>42213&#45;&gt;66036</title>
<path fill="none" stroke="black" d="M561.078,-985.777C598.728,-975.945 663.118,-959.13 700.709,-949.313"/>
</g>
<!-- 42787 -->
<g id="node26" class="node"><title>42787</title>
<g id="a_node26"><a xlink:title="3rd_week">
<ellipse fill="#ee9898" stroke="black" cx="529.934" cy="-800.135" rx="32.4942" ry="18"/>
<text text-anchor="middle" x="529.934" y="-796.435" font-family="Times,serif" font-size="14.00">42787</text>
</a>
</g>
</g>
<!-- 42787&#45;&gt;66036 -->
<g id="edge13" class="edge"><title>42787&#45;&gt;66036</title>
<path fill="none" stroke="black" d="M550.259,-814.474C588.781,-841.65 671.987,-900.35 710.319,-927.393"/>
</g>
<!-- 43296&#45;&gt;66036 -->
<g id="edge48" class="edge"><title>43296&#45;&gt;66036</title>
<path fill="none" stroke="black" d="M459.643,-923.819C517.849,-927.633 639.358,-935.594 697.727,-939.418"/>
</g>
<!-- 44103 -->
<g id="node28" class="node"><title>44103</title>
<g id="a_node28"><a xlink:title="3rd_week">
<ellipse fill="#ee9898" stroke="black" cx="925.157" cy="-966.471" rx="32.4942" ry="18"/>
<text text-anchor="middle" x="925.157" y="-962.771" font-family="Times,serif" font-size="14.00">44103</text>
</a>
</g>
</g>
<!-- 44103&#45;&gt;66036 -->
<g id="edge56" class="edge"><title>44103&#45;&gt;66036</title>
<path fill="none" stroke="black" d="M893.433,-962.413C857.216,-957.78 798.322,-950.247 762.111,-945.615"/>
</g>
<!-- 44522 -->
<g id="node29" class="node"><title>44522</title>
<g id="a_node29"><a xlink:title="3rd_week">
<ellipse fill="#ee9898" stroke="black" cx="907.773" cy="-714.408" rx="32.4942" ry="18"/>
<text text-anchor="middle" x="907.773" y="-710.708" font-family="Times,serif" font-size="14.00">44522</text>
</a>
</g>
</g>
<!-- 60058 -->
<g id="node49" class="node"><title>60058</title>
<g id="a_node49"><a xlink:title="3rd_week">
<ellipse fill="#ee9898" stroke="black" cx="1069.73" cy="-527.314" rx="32.4942" ry="18"/>
<text text-anchor="middle" x="1069.73" y="-523.614" font-family="Times,serif" font-size="14.00">60058</text>
</a>
</g>
</g>
<!-- 44522&#45;&gt;60058 -->
<g id="edge10" class="edge"><title>44522&#45;&gt;60058</title>
<path fill="none" stroke="black" d="M921.862,-698.132C952.493,-662.748 1024.86,-579.156 1055.56,-543.686"/>
</g>
<!-- 44522&#45;&gt;66036 -->
<g id="edge28" class="edge"><title>44522&#45;&gt;66036</title>
<path fill="none" stroke="black" d="M894.73,-731.111C861.928,-773.118 776.284,-882.798 743.462,-924.832"/>
</g>
<!-- 44696 -->
<g id="node30" class="node"><title>44696</title>
<g id="a_node30"><a xlink:title="3rd_week">
<ellipse fill="#ee9898" stroke="black" cx="762.852" cy="-777.62" rx="32.4942" ry="18"/>
<text text-anchor="middle" x="762.852" y="-773.92" font-family="Times,serif" font-size="14.00">44696</text>
</a>
</g>
</g>
<!-- 44696&#45;&gt;66036 -->
<g id="edge45" class="edge"><title>44696&#45;&gt;66036</title>
<path fill="none" stroke="black" d="M759.255,-795.791C753.017,-827.303 740.262,-891.738 734.013,-923.307"/>
</g>
<!-- 44988 -->
<g id="node31" class="node"><title>44988</title>
<g id="a_node31"><a xlink:title="Day_0">
<ellipse fill="#e5dada" stroke="black" cx="42.6237" cy="-168.154" rx="32.4942" ry="18"/>
<text text-anchor="middle" x="42.6237" y="-164.454" font-family="Times,serif" font-size="14.00">44988</text>
</a>
</g>
</g>
<!-- 44988&#45;&gt;57953 -->
<g id="edge3" class="edge"><title>44988&#45;&gt;57953</title>
<path fill="none" stroke="black" d="M69.9377,-177.994C106.713,-191.243 171.776,-214.683 208.64,-227.963"/>
</g>
<!-- 46221 -->
<g id="node32" class="node"><title>46221</title>
<g id="a_node32"><a xlink:title="3rd_week">
<ellipse fill="#ee9898" stroke="black" cx="905.466" cy="-902.139" rx="32.4942" ry="18"/>
<text text-anchor="middle" x="905.466" y="-898.439" font-family="Times,serif" font-size="14.00">46221</text>
</a>
</g>
</g>
<!-- 46221&#45;&gt;66036 -->
<g id="edge15" class="edge"><title>46221&#45;&gt;66036</title>
<path fill="none" stroke="black" d="M874.972,-909.006C842.839,-916.241 792.544,-927.566 760.544,-934.771"/>
</g>
<!-- 46479 -->
<g id="node33" class="node"><title>46479</title>
<g id="a_node33"><a xlink:title="3rd_week">
<ellipse fill="#ee9898" stroke="black" cx="631.457" cy="-820.965" rx="32.4942" ry="18"/>
<text text-anchor="middle" x="631.457" y="-817.265" font-family="Times,serif" font-size="14.00">46479</text>
</a>
</g>
</g>
<!-- 46479&#45;&gt;66036 -->
<g id="edge32" class="edge"><title>46479&#45;&gt;66036</title>
<path fill="none" stroke="black" d="M645.215,-837.733C664.118,-860.773 697.917,-901.969 716.759,-924.933"/>
</g>
<!-- 47450 -->
<g id="node34" class="node"><title>47450</title>
<g id="a_node34"><a xlink:title="3rd_week">
<ellipse fill="#ee9898" stroke="black" cx="516.031" cy="-859.22" rx="32.4942" ry="18"/>
<text text-anchor="middle" x="516.031" y="-855.52" font-family="Times,serif" font-size="14.00">47450</text>
</a>
</g>
</g>
<!-- 47450&#45;&gt;66036 -->
<g id="edge17" class="edge"><title>47450&#45;&gt;66036</title>
<path fill="none" stroke="black" d="M542.747,-869.481C583.938,-885.303 662.494,-915.476 703.684,-931.297"/>
</g>
<!-- 48790 -->
<g id="node35" class="node"><title>48790</title>
<g id="a_node35"><a xlink:title="3rd_week">
<ellipse fill="#ee9898" stroke="black" cx="520.216" cy="-926.712" rx="32.4942" ry="18"/>
<text text-anchor="middle" x="520.216" y="-923.012" font-family="Times,serif" font-size="14.00">48790</text>
</a>
</g>
</g>
<!-- 48790&#45;&gt;66036 -->
<g id="edge9" class="edge"><title>48790&#45;&gt;66036</title>
<path fill="none" stroke="black" d="M552.596,-928.999C592.094,-931.789 658.468,-936.478 697.982,-939.269"/>
</g>
<!-- 48851 -->
<g id="node36" class="node"><title>48851</title>
<g id="a_node36"><a xlink:title="3rd_week">
<ellipse fill="#ee9898" stroke="black" cx="239.977" cy="-1127.77" rx="32.4942" ry="18"/>
<text text-anchor="middle" x="239.977" y="-1124.07" font-family="Times,serif" font-size="14.00">48851</text>
</a>
</g>
</g>
<!-- 55634 -->
<g id="node42" class="node"><title>55634</title>
<g id="a_node42"><a xlink:title="3rd_week">
<ellipse fill="#ee9898" stroke="black" cx="439.933" cy="-1046.97" rx="32.4942" ry="18"/>
<text text-anchor="middle" x="439.933" y="-1043.27" font-family="Times,serif" font-size="14.00">55634</text>
</a>
</g>
</g>
<!-- 48851&#45;&gt;55634 -->
<g id="edge50" class="edge"><title>48851&#45;&gt;55634</title>
<path fill="none" stroke="black" d="M266.53,-1117.04C304.88,-1101.54 375.355,-1073.06 413.589,-1057.62"/>
</g>
<!-- 49425 -->
<g id="node39" class="node"><title>49425</title>
<g id="a_node39"><a xlink:title="3rd_week">
<ellipse fill="#ee9898" stroke="black" cx="882.205" cy="-833.945" rx="32.4942" ry="18"/>
<text text-anchor="middle" x="882.205" y="-830.245" font-family="Times,serif" font-size="14.00">49425</text>
</a>
</g>
</g>
<!-- 49425&#45;&gt;66036 -->
<g id="edge46" class="edge"><title>49425&#45;&gt;66036</title>
<path fill="none" stroke="black" d="M862.047,-848.235C833.012,-868.818 779.723,-906.594 750.642,-927.21"/>
</g>
<!-- 51781 -->
<g id="node40" class="node"><title>51781</title>
<g id="a_node40"><a xlink:title="Day_0">
<ellipse fill="#e5dada" stroke="black" cx="139.747" cy="-113.002" rx="32.4942" ry="18"/>
<text text-anchor="middle" x="139.747" y="-109.302" font-family="Times,serif" font-size="14.00">51781</text>
</a>
</g>
</g>
<!-- 51781&#45;&gt;57953 -->
<g id="edge37" class="edge"><title>51781&#45;&gt;57953</title>
<path fill="none" stroke="black" d="M152.546,-129.583C170.98,-153.465 204.813,-197.296 223.276,-221.217"/>
</g>
<!-- 53417&#45;&gt;66036 -->
<g id="edge11" class="edge"><title>53417&#45;&gt;66036</title>
<path fill="none" stroke="black" d="M974.095,-900.624C921.169,-909.514 814.552,-927.423 761.645,-936.31"/>
</g>
<!-- 55634&#45;&gt;66036 -->
<g id="edge26" class="edge"><title>55634&#45;&gt;66036</title>
<path fill="none" stroke="black" d="M467.259,-1037.05C522.62,-1016.96 647.458,-971.659 702.934,-951.526"/>
</g>
<!-- 55759 -->
<g id="node43" class="node"><title>55759</title>
<g id="a_node43"><a xlink:title="3rd_week">
<ellipse fill="#ee9898" stroke="black" cx="458.834" cy="-1439" rx="32.4942" ry="18"/>
<text text-anchor="middle" x="458.834" y="-1435.3" font-family="Times,serif" font-size="14.00">55759</text>
</a>
</g>
</g>
<!-- 55759&#45;&gt;60676 -->
<g id="edge41" class="edge"><title>55759&#45;&gt;60676</title>
<path fill="none" stroke="black" d="M469.628,-1421.95C494.424,-1382.79 555.217,-1286.78 579.977,-1247.68"/>
</g>
<!-- 57483 -->
<g id="node44" class="node"><title>57483</title>
<g id="a_node44"><a xlink:title="3rd_week">
<ellipse fill="#ee9898" stroke="black" cx="803.369" cy="-1117.21" rx="32.4942" ry="18"/>
<text text-anchor="middle" x="803.369" y="-1113.51" font-family="Times,serif" font-size="14.00">57483</text>
</a>
</g>
</g>
<!-- 57483&#45;&gt;66036 -->
<g id="edge6" class="edge"><title>57483&#45;&gt;66036</title>
<path fill="none" stroke="black" d="M795.97,-1099.4C781.949,-1065.65 751.662,-992.742 737.709,-959.154"/>
</g>
<!-- 57886&#45;&gt;66036 -->
<g id="edge44" class="edge"><title>57886&#45;&gt;66036</title>
<path fill="none" stroke="black" d="M723.762,-1205.67C725.04,-1154.82 728.655,-1010.96 729.94,-959.855"/>
</g>
<!-- 60233 -->
<g id="node50" class="node"><title>60233</title>
<g id="a_node50"><a xlink:title="Day_0">
<ellipse fill="#e5dada" stroke="black" cx="208.726" cy="-18.2591" rx="32.4942" ry="18"/>
<text text-anchor="middle" x="208.726" y="-14.5591" font-family="Times,serif" font-size="14.00">60233</text>
</a>
</g>
</g>
<!-- 57953&#45;&gt;60233 -->
<g id="edge58" class="edge"><title>57953&#45;&gt;60233</title>
<path fill="none" stroke="black" d="M233.885,-219.895C228.747,-178.714 216.167,-77.8977 210.999,-36.4787"/>
</g>
<!-- 62574 -->
<g id="node52" class="node"><title>62574</title>
<g id="a_node52"><a xlink:title="Day_0">
<ellipse fill="#e5dada" stroke="black" cx="210.041" cy="-63.9135" rx="32.4942" ry="18"/>
<text text-anchor="middle" x="210.041" y="-60.2135" font-family="Times,serif" font-size="14.00">62574</text>
</a>
</g>
</g>
<!-- 57953&#45;&gt;62574 -->
<g id="edge55" class="edge"><title>57953&#45;&gt;62574</title>
<path fill="none" stroke="black" d="M233.434,-219.905C228.435,-186.572 217.776,-115.493 212.759,-82.0372"/>
</g>
<!-- 67140 -->
<g id="node56" class="node"><title>67140</title>
<g id="a_node56"><a xlink:title="Day_0">
<ellipse fill="#e5dada" stroke="black" cx="53.737" cy="-292.677" rx="32.4942" ry="18"/>
<text text-anchor="middle" x="53.737" y="-288.977" font-family="Times,serif" font-size="14.00">67140</text>
</a>
</g>
</g>
<!-- 57953&#45;&gt;67140 -->
<g id="edge7" class="edge"><title>57953&#45;&gt;67140</title>
<path fill="none" stroke="black" d="M207.227,-246.551C173.075,-256.814 116.595,-273.787 82.5022,-284.033"/>
</g>
<!-- 14079 -->
<g id="node58" class="node"><title>14079</title>
<g id="a_node58"><a xlink:title="Day_0">
<ellipse fill="#e5dada" stroke="black" cx="32.3346" cy="-227.553" rx="32.4942" ry="18"/>
<text text-anchor="middle" x="32.3346" y="-223.853" font-family="Times,serif" font-size="14.00">14079</text>
</a>
</g>
</g>
<!-- 57953&#45;&gt;14079 -->
<g id="edge29" class="edge"><title>57953&#45;&gt;14079</title>
<path fill="none" stroke="black" d="M203.385,-236.209C165.355,-234.285 102.992,-231.129 64.9963,-229.206"/>
</g>
<!-- 60017 -->
<g id="node48" class="node"><title>60017</title>
<g id="a_node48"><a xlink:title="3rd_week">
<ellipse fill="#ee9898" stroke="black" cx="612.436" cy="-1114.13" rx="32.4942" ry="18"/>
<text text-anchor="middle" x="612.436" y="-1110.43" font-family="Times,serif" font-size="14.00">60017</text>
</a>
</g>
</g>
<!-- 60017&#45;&gt;66036 -->
<g id="edge19" class="edge"><title>60017&#45;&gt;66036</title>
<path fill="none" stroke="black" d="M623.961,-1097.27C646.513,-1064.28 696.238,-991.536 718.827,-958.489"/>
</g>
<!-- 60676&#45;&gt;66036 -->
<g id="edge35" class="edge"><title>60676&#45;&gt;66036</title>
<path fill="none" stroke="black" d="M599.262,-1213.04C624.255,-1161.3 697.135,-1010.42 721.985,-958.979"/>
</g>
<!-- 64507 -->
<g id="node53" class="node"><title>64507</title>
<g id="a_node53"><a xlink:title="3rd_week">
<ellipse fill="#ee9898" stroke="black" cx="549.198" cy="-1061.33" rx="32.4942" ry="18"/>
<text text-anchor="middle" x="549.198" y="-1057.63" font-family="Times,serif" font-size="14.00">64507</text>
</a>
</g>
</g>
<!-- 64507&#45;&gt;66036 -->
<g id="edge51" class="edge"><title>64507&#45;&gt;66036</title>
<path fill="none" stroke="black" d="M570.339,-1047.36C605.255,-1024.28 674.567,-978.464 709.394,-955.444"/>
</g>
<!-- 65670 -->
<g id="node54" class="node"><title>65670</title>
<g id="a_node54"><a xlink:title="3rd_week">
<ellipse fill="#ee9898" stroke="black" cx="862.749" cy="-1071.19" rx="32.4942" ry="18"/>
<text text-anchor="middle" x="862.749" y="-1067.49" font-family="Times,serif" font-size="14.00">65670</text>
</a>
</g>
</g>
<!-- 65670&#45;&gt;66036 -->
<g id="edge18" class="edge"><title>65670&#45;&gt;66036</title>
<path fill="none" stroke="black" d="M846.52,-1055.3C821.119,-1030.42 772.244,-982.545 746.761,-957.585"/>
</g>
<!-- 68373 -->
<g id="node57" class="node"><title>68373</title>
<g id="a_node57"><a xlink:title="3rd_week">
<ellipse fill="#ee9898" stroke="black" cx="680.169" cy="-764.885" rx="32.4942" ry="18"/>
<text text-anchor="middle" x="680.169" y="-761.185" font-family="Times,serif" font-size="14.00">68373</text>
</a>
</g>
</g>
<!-- 66036&#45;&gt;68373 -->
<g id="edge31" class="edge"><title>66036&#45;&gt;68373</title>
<path fill="none" stroke="black" d="M725.307,-923.646C715.679,-889.784 694.913,-816.744 685.275,-782.845"/>
</g>
</g>
</svg>
