<?xml version="1.0" encoding="UTF-8" standalone="no"?>
<!DOCTYPE svg PUBLIC "-//W3C//DTD SVG 1.1//EN"
 "http://www.w3.org/Graphics/SVG/1.1/DTD/svg11.dtd">
<!-- Generated by graphviz version 2.38.0 (20140413.2041)
 -->
<!-- Title: %3 Pages: 1 -->
<svg width="1290pt" height="1100pt"
 viewBox="0.00 0.00 1290.00 1100.00" xmlns="http://www.w3.org/2000/svg" xmlns:xlink="http://www.w3.org/1999/xlink">
<g id="graph0" class="graph" transform="scale(1 1) rotate(0) translate(4 1096)">
<title>%3</title>
<polygon fill="white" stroke="none" points="-4,4 -4,-1096 1286,-1096 1286,4 -4,4"/>
<!-- 553 -->
<g id="node1" class="node"><title>553</title>
<g id="a_node1"><a xlink:title="6th_week">
<ellipse fill="#c81d25" stroke="black" cx="790.367" cy="-220.627" rx="27" ry="18"/>
<text text-anchor="middle" x="790.367" y="-216.927" font-family="Times,serif" font-size="14.00">553</text>
</a>
</g>
</g>
<!-- 5794 -->
<g id="node21" class="node"><title>5794</title>
<g id="a_node21"><a xlink:title="6th_week">
<ellipse fill="#c81d25" stroke="black" cx="799.805" cy="-18.0458" rx="28.6953" ry="18"/>
<text text-anchor="middle" x="799.805" y="-14.3458" font-family="Times,serif" font-size="14.00">5794</text>
</a>
</g>
</g>
<!-- 553&#45;&gt;5794 -->
<g id="edge4" class="edge"><title>553&#45;&gt;5794</title>
<path fill="none" stroke="black" d="M791.221,-202.292C793.018,-163.723 797.17,-74.5983 798.959,-36.1934"/>
</g>
<!-- 10440 -->
<g id="node35" class="node"><title>10440</title>
<g id="a_node35"><a xlink:title="6th_week">
<ellipse fill="#c81d25" stroke="black" cx="775.417" cy="-494.162" rx="32.4942" ry="18"/>
<text text-anchor="middle" x="775.417" y="-490.462" font-family="Times,serif" font-size="14.00">10440</text>
</a>
</g>
</g>
<!-- 553&#45;&gt;10440 -->
<g id="edge28" class="edge"><title>553&#45;&gt;10440</title>
<path fill="none" stroke="black" d="M789.363,-238.999C786.64,-288.83 779.135,-426.133 776.417,-475.87"/>
</g>
<!-- 709 -->
<g id="node2" class="node"><title>709</title>
<g id="a_node2"><a xlink:title="6th_week">
<ellipse fill="#c81d25" stroke="black" cx="777.01" cy="-652.612" rx="27" ry="18"/>
<text text-anchor="middle" x="777.01" y="-648.912" font-family="Times,serif" font-size="14.00">709</text>
</a>
</g>
</g>
<!-- 709&#45;&gt;10440 -->
<g id="edge3" class="edge"><title>709&#45;&gt;10440</title>
<path fill="none" stroke="black" d="M776.827,-634.436C776.522,-604.034 775.91,-543.199 775.603,-512.614"/>
</g>
<!-- 730 -->
<g id="node3" class="node"><title>730</title>
<g id="a_node3"><a xlink:title="6th_week">
<ellipse fill="#c81d25" stroke="black" cx="776.566" cy="-328.954" rx="27" ry="18"/>
<text text-anchor="middle" x="776.566" y="-325.254" font-family="Times,serif" font-size="14.00">730</text>
</a>
</g>
</g>
<!-- 730&#45;&gt;10440 -->
<g id="edge41" class="edge"><title>730&#45;&gt;10440</title>
<path fill="none" stroke="black" d="M776.439,-347.265C776.217,-379.105 775.764,-444.299 775.544,-476.02"/>
</g>
<!-- 851 -->
<g id="node4" class="node"><title>851</title>
<g id="a_node4"><a xlink:title="6th_week">
<ellipse fill="#c81d25" stroke="black" cx="853.006" cy="-856.909" rx="27" ry="18"/>
<text text-anchor="middle" x="853.006" y="-853.209" font-family="Times,serif" font-size="14.00">851</text>
</a>
</g>
</g>
<!-- 1308 -->
<g id="node6" class="node"><title>1308</title>
<g id="a_node6"><a xlink:title="6th_week">
<ellipse fill="#c81d25" stroke="black" cx="777.125" cy="-1049.44" rx="28.6953" ry="18"/>
<text text-anchor="middle" x="777.125" y="-1045.74" font-family="Times,serif" font-size="14.00">1308</text>
</a>
</g>
</g>
<!-- 851&#45;&gt;1308 -->
<g id="edge43" class="edge"><title>851&#45;&gt;1308</title>
<path fill="none" stroke="black" d="M846.139,-874.334C831.728,-910.897 798.476,-995.264 784.032,-1031.91"/>
</g>
<!-- 2785 -->
<g id="node12" class="node"><title>2785</title>
<g id="a_node12"><a xlink:title="6th_week">
<ellipse fill="#c81d25" stroke="black" cx="995.362" cy="-1006.01" rx="28.6953" ry="18"/>
<text text-anchor="middle" x="995.362" y="-1002.31" font-family="Times,serif" font-size="14.00">2785</text>
</a>
</g>
</g>
<!-- 851&#45;&gt;2785 -->
<g id="edge2" class="edge"><title>851&#45;&gt;2785</title>
<path fill="none" stroke="black" d="M867.705,-872.304C894.984,-900.876 953.152,-961.8 980.531,-990.477"/>
</g>
<!-- 6223 -->
<g id="node24" class="node"><title>6223</title>
<g id="a_node24"><a xlink:title="6th_week">
<ellipse fill="#c81d25" stroke="black" cx="847.486" cy="-1073.79" rx="28.6953" ry="18"/>
<text text-anchor="middle" x="847.486" y="-1070.09" font-family="Times,serif" font-size="14.00">6223</text>
</a>
</g>
</g>
<!-- 851&#45;&gt;6223 -->
<g id="edge33" class="edge"><title>851&#45;&gt;6223</title>
<path fill="none" stroke="black" d="M852.545,-875.027C851.506,-915.851 848.991,-1014.65 847.95,-1055.57"/>
</g>
<!-- 8934 -->
<g id="node32" class="node"><title>8934</title>
<g id="a_node32"><a xlink:title="6th_week">
<ellipse fill="#c81d25" stroke="black" cx="881.577" cy="-1023.95" rx="28.6953" ry="18"/>
<text text-anchor="middle" x="881.577" y="-1020.25" font-family="Times,serif" font-size="14.00">8934</text>
</a>
</g>
</g>
<!-- 851&#45;&gt;8934 -->
<g id="edge40" class="edge"><title>851&#45;&gt;8934</title>
<path fill="none" stroke="black" d="M856.118,-875.103C861.629,-907.319 873.036,-974.009 878.512,-1006.03"/>
</g>
<!-- 9710 -->
<g id="node34" class="node"><title>9710</title>
<g id="a_node34"><a xlink:title="6th_week">
<ellipse fill="#c81d25" stroke="black" cx="947.338" cy="-1053.9" rx="28.6953" ry="18"/>
<text text-anchor="middle" x="947.338" y="-1050.2" font-family="Times,serif" font-size="14.00">9710</text>
</a>
</g>
</g>
<!-- 851&#45;&gt;9710 -->
<g id="edge32" class="edge"><title>851&#45;&gt;9710</title>
<path fill="none" stroke="black" d="M861.378,-874.391C879.279,-911.772 921.101,-999.107 938.985,-1036.45"/>
</g>
<!-- 851&#45;&gt;10440 -->
<g id="edge47" class="edge"><title>851&#45;&gt;10440</title>
<path fill="none" stroke="black" d="M849.159,-838.921C835.949,-777.162 792.533,-574.182 779.288,-512.259"/>
</g>
<!-- 1002 -->
<g id="node5" class="node"><title>1002</title>
<g id="a_node5"><a xlink:title="6th_week">
<ellipse fill="#c81d25" stroke="black" cx="1075.71" cy="-79.9408" rx="28.6953" ry="18"/>
<text text-anchor="middle" x="1075.71" y="-76.2408" font-family="Times,serif" font-size="14.00">1002</text>
</a>
</g>
</g>
<!-- 6000 -->
<g id="node22" class="node"><title>6000</title>
<g id="a_node22"><a xlink:title="6th_week">
<ellipse fill="#c81d25" stroke="black" cx="938.793" cy="-227.57" rx="28.6953" ry="18"/>
<text text-anchor="middle" x="938.793" y="-223.87" font-family="Times,serif" font-size="14.00">6000</text>
</a>
</g>
</g>
<!-- 1002&#45;&gt;6000 -->
<g id="edge10" class="edge"><title>1002&#45;&gt;6000</title>
<path fill="none" stroke="black" d="M1061.06,-95.7396C1034.7,-124.154 979.616,-183.553 953.34,-211.884"/>
</g>
<!-- 1352 -->
<g id="node7" class="node"><title>1352</title>
<g id="a_node7"><a xlink:title="6th_week">
<ellipse fill="#c81d25" stroke="black" cx="1004.46" cy="-643.907" rx="28.6953" ry="18"/>
<text text-anchor="middle" x="1004.46" y="-640.207" font-family="Times,serif" font-size="14.00">1352</text>
</a>
</g>
</g>
<!-- 1352&#45;&gt;10440 -->
<g id="edge19" class="edge"><title>1352&#45;&gt;10440</title>
<path fill="none" stroke="black" d="M984.532,-630.88C941.542,-602.774 840.422,-536.661 796.452,-507.914"/>
</g>
<!-- 11356 -->
<g id="node38" class="node"><title>11356</title>
<g id="a_node38"><a xlink:title="6th_week">
<ellipse fill="#c81d25" stroke="black" cx="1177.08" cy="-754.955" rx="32.4942" ry="18"/>
<text text-anchor="middle" x="1177.08" y="-751.255" font-family="Times,serif" font-size="14.00">11356</text>
</a>
</g>
</g>
<!-- 1352&#45;&gt;11356 -->
<g id="edge22" class="edge"><title>1352&#45;&gt;11356</title>
<path fill="none" stroke="black" d="M1024.6,-656.863C1057.42,-677.975 1122.13,-719.606 1155.72,-741.215"/>
</g>
<!-- 1367 -->
<g id="node8" class="node"><title>1367</title>
<g id="a_node8"><a xlink:title="6th_week">
<ellipse fill="#c81d25" stroke="black" cx="680.562" cy="-368.977" rx="28.6953" ry="18"/>
<text text-anchor="middle" x="680.562" y="-365.277" font-family="Times,serif" font-size="14.00">1367</text>
</a>
</g>
</g>
<!-- 1367&#45;&gt;10440 -->
<g id="edge5" class="edge"><title>1367&#45;&gt;10440</title>
<path fill="none" stroke="black" d="M692.963,-385.343C711.041,-409.202 744.461,-453.308 762.711,-477.392"/>
</g>
<!-- 1476 -->
<g id="node9" class="node"><title>1476</title>
<g id="a_node9"><a xlink:title="6th_week">
<ellipse fill="#c81d25" stroke="black" cx="611.875" cy="-360.051" rx="28.6953" ry="18"/>
<text text-anchor="middle" x="611.875" y="-356.351" font-family="Times,serif" font-size="14.00">1476</text>
</a>
</g>
</g>
<!-- 1476&#45;&gt;10440 -->
<g id="edge17" class="edge"><title>1476&#45;&gt;10440</title>
<path fill="none" stroke="black" d="M629.377,-374.403C660.524,-399.945 725.281,-453.048 757.044,-479.095"/>
</g>
<!-- 2475 -->
<g id="node10" class="node"><title>2475</title>
<g id="a_node10"><a xlink:title="6th_week">
<ellipse fill="#c81d25" stroke="black" cx="957.823" cy="-526.59" rx="28.6953" ry="18"/>
<text text-anchor="middle" x="957.823" y="-522.89" font-family="Times,serif" font-size="14.00">2475</text>
</a>
</g>
</g>
<!-- 2475&#45;&gt;10440 -->
<g id="edge53" class="edge"><title>2475&#45;&gt;10440</title>
<path fill="none" stroke="black" d="M930.119,-521.665C896.832,-515.747 841.14,-505.846 806.441,-499.677"/>
</g>
<!-- 2705 -->
<g id="node11" class="node"><title>2705</title>
<g id="a_node11"><a xlink:title="6th_week">
<ellipse fill="#c81d25" stroke="black" cx="961.988" cy="-464.063" rx="28.6953" ry="18"/>
<text text-anchor="middle" x="961.988" y="-460.363" font-family="Times,serif" font-size="14.00">2705</text>
</a>
</g>
</g>
<!-- 2705&#45;&gt;10440 -->
<g id="edge18" class="edge"><title>2705&#45;&gt;10440</title>
<path fill="none" stroke="black" d="M934.057,-468.569C899.901,-474.08 842.254,-483.379 806.658,-489.122"/>
</g>
<!-- 2887 -->
<g id="node13" class="node"><title>2887</title>
<g id="a_node13"><a xlink:title="6th_week">
<ellipse fill="#c81d25" stroke="black" cx="1253.54" cy="-419.202" rx="28.6953" ry="18"/>
<text text-anchor="middle" x="1253.54" y="-415.502" font-family="Times,serif" font-size="14.00">2887</text>
</a>
</g>
</g>
<!-- 13953 -->
<g id="node48" class="node"><title>13953</title>
<g id="a_node48"><a xlink:title="6th_week">
<ellipse fill="#c81d25" stroke="black" cx="1049.1" cy="-450.452" rx="32.4942" ry="18"/>
<text text-anchor="middle" x="1049.1" y="-446.752" font-family="Times,serif" font-size="14.00">13953</text>
</a>
</g>
</g>
<!-- 2887&#45;&gt;13953 -->
<g id="edge35" class="edge"><title>2887&#45;&gt;13953</title>
<path fill="none" stroke="black" d="M1225.54,-423.482C1187.59,-429.282 1120.04,-439.608 1080.44,-445.662"/>
</g>
<!-- 3048 -->
<g id="node14" class="node"><title>3048</title>
<g id="a_node14"><a xlink:title="6th_week">
<ellipse fill="#c81d25" stroke="black" cx="503.012" cy="-55.519" rx="28.6953" ry="18"/>
<text text-anchor="middle" x="503.012" y="-51.819" font-family="Times,serif" font-size="14.00">3048</text>
</a>
</g>
</g>
<!-- 12403 -->
<g id="node43" class="node"><title>12403</title>
<g id="a_node43"><a xlink:title="6th_week">
<ellipse fill="#c81d25" stroke="black" cx="630.811" cy="-216.334" rx="32.4942" ry="18"/>
<text text-anchor="middle" x="630.811" y="-212.634" font-family="Times,serif" font-size="14.00">12403</text>
</a>
</g>
</g>
<!-- 3048&#45;&gt;12403 -->
<g id="edge46" class="edge"><title>3048&#45;&gt;12403</title>
<path fill="none" stroke="black" d="M515.969,-71.8237C540.337,-102.487 592.752,-168.442 617.436,-199.504"/>
</g>
<!-- 3081 -->
<g id="node15" class="node"><title>3081</title>
<g id="a_node15"><a xlink:title="6th_week">
<ellipse fill="#c81d25" stroke="black" cx="938.559" cy="-407.841" rx="28.6953" ry="18"/>
<text text-anchor="middle" x="938.559" y="-404.141" font-family="Times,serif" font-size="14.00">3081</text>
</a>
</g>
</g>
<!-- 3081&#45;&gt;10440 -->
<g id="edge27" class="edge"><title>3081&#45;&gt;10440</title>
<path fill="none" stroke="black" d="M916.557,-419.483C885.942,-435.681 830.712,-464.904 799.183,-481.587"/>
</g>
<!-- 3551 -->
<g id="node16" class="node"><title>3551</title>
<g id="a_node16"><a xlink:title="6th_week">
<ellipse fill="#c81d25" stroke="black" cx="847.21" cy="-623.505" rx="28.6953" ry="18"/>
<text text-anchor="middle" x="847.21" y="-619.805" font-family="Times,serif" font-size="14.00">3551</text>
</a>
</g>
</g>
<!-- 3551&#45;&gt;10440 -->
<g id="edge36" class="edge"><title>3551&#45;&gt;10440</title>
<path fill="none" stroke="black" d="M837.677,-606.329C823.945,-581.59 798.744,-536.187 784.99,-511.408"/>
</g>
<!-- 3769 -->
<g id="node17" class="node"><title>3769</title>
<g id="a_node17"><a xlink:title="6th_week">
<ellipse fill="#c81d25" stroke="black" cx="480.451" cy="-367.558" rx="28.6953" ry="18"/>
<text text-anchor="middle" x="480.451" y="-363.858" font-family="Times,serif" font-size="14.00">3769</text>
</a>
</g>
</g>
<!-- 3769&#45;&gt;10440 -->
<g id="edge42" class="edge"><title>3769&#45;&gt;10440</title>
<path fill="none" stroke="black" d="M504.091,-377.705C558.637,-401.117 692.946,-458.764 749.573,-483.069"/>
</g>
<!-- 15298 -->
<g id="node51" class="node"><title>15298</title>
<g id="a_node51"><a xlink:title="6th_week">
<ellipse fill="#c81d25" stroke="black" cx="236.016" cy="-269.014" rx="32.4942" ry="18"/>
<text text-anchor="middle" x="236.016" y="-265.314" font-family="Times,serif" font-size="14.00">15298</text>
</a>
</g>
</g>
<!-- 3769&#45;&gt;15298 -->
<g id="edge31" class="edge"><title>3769&#45;&gt;15298</title>
<path fill="none" stroke="black" d="M456.12,-357.749C409.991,-339.152 310.173,-298.91 262.458,-279.674"/>
</g>
<!-- 4288 -->
<g id="node18" class="node"><title>4288</title>
<g id="a_node18"><a xlink:title="6th_week">
<ellipse fill="#c81d25" stroke="black" cx="1247.94" cy="-594.395" rx="28.6953" ry="18"/>
<text text-anchor="middle" x="1247.94" y="-590.695" font-family="Times,serif" font-size="14.00">4288</text>
</a>
</g>
</g>
<!-- 15878 -->
<g id="node56" class="node"><title>15878</title>
<g id="a_node56"><a xlink:title="6th_week">
<ellipse fill="#c81d25" stroke="black" cx="1045.91" cy="-551.755" rx="32.4942" ry="18"/>
<text text-anchor="middle" x="1045.91" y="-548.055" font-family="Times,serif" font-size="14.00">15878</text>
</a>
</g>
</g>
<!-- 4288&#45;&gt;15878 -->
<g id="edge20" class="edge"><title>4288&#45;&gt;15878</title>
<path fill="none" stroke="black" d="M1220.69,-588.644C1183.1,-580.711 1115.55,-566.453 1076.34,-558.179"/>
</g>
<!-- 5424 -->
<g id="node19" class="node"><title>5424</title>
<g id="a_node19"><a xlink:title="6th_week">
<ellipse fill="#c81d25" stroke="black" cx="1203.46" cy="-244.433" rx="28.6953" ry="18"/>
<text text-anchor="middle" x="1203.46" y="-240.733" font-family="Times,serif" font-size="14.00">5424</text>
</a>
</g>
</g>
<!-- 10448 -->
<g id="node36" class="node"><title>10448</title>
<g id="a_node36"><a xlink:title="6th_week">
<ellipse fill="#c81d25" stroke="black" cx="1013.33" cy="-351.88" rx="32.4942" ry="18"/>
<text text-anchor="middle" x="1013.33" y="-348.18" font-family="Times,serif" font-size="14.00">10448</text>
</a>
</g>
</g>
<!-- 5424&#45;&gt;10448 -->
<g id="edge38" class="edge"><title>5424&#45;&gt;10448</title>
<path fill="none" stroke="black" d="M1182.02,-256.55C1145.89,-276.966 1073.21,-318.039 1036.16,-338.975"/>
</g>
<!-- 5536 -->
<g id="node20" class="node"><title>5536</title>
<g id="a_node20"><a xlink:title="6th_week">
<ellipse fill="#c81d25" stroke="black" cx="574.769" cy="-17.9046" rx="28.6953" ry="18"/>
<text text-anchor="middle" x="574.769" y="-14.2046" font-family="Times,serif" font-size="14.00">5536</text>
</a>
</g>
</g>
<!-- 5536&#45;&gt;12403 -->
<g id="edge54" class="edge"><title>5536&#45;&gt;12403</title>
<path fill="none" stroke="black" d="M579.841,-35.8639C590.484,-73.5472 615.042,-160.5 625.71,-198.272"/>
</g>
<!-- 6221 -->
<g id="node23" class="node"><title>6221</title>
<g id="a_node23"><a xlink:title="6th_week">
<ellipse fill="#c81d25" stroke="black" cx="1009.78" cy="-38.8644" rx="28.6953" ry="18"/>
<text text-anchor="middle" x="1009.78" y="-35.1644" font-family="Times,serif" font-size="14.00">6221</text>
</a>
</g>
</g>
<!-- 6000&#45;&gt;6221 -->
<g id="edge49" class="edge"><title>6000&#45;&gt;6221</title>
<path fill="none" stroke="black" d="M945.472,-209.817C959.036,-173.759 989.668,-92.3346 1003.17,-56.4327"/>
</g>
<!-- 6000&#45;&gt;10440 -->
<g id="edge9" class="edge"><title>6000&#45;&gt;10440</title>
<path fill="none" stroke="black" d="M928.325,-244.652C898.886,-292.689 815.6,-428.594 786.01,-476.877"/>
</g>
<!-- 6843 -->
<g id="node25" class="node"><title>6843</title>
<g id="a_node25"><a xlink:title="6th_week">
<ellipse fill="#c81d25" stroke="black" cx="651.668" cy="-579.931" rx="28.6953" ry="18"/>
<text text-anchor="middle" x="651.668" y="-576.231" font-family="Times,serif" font-size="14.00">6843</text>
</a>
</g>
</g>
<!-- 6843&#45;&gt;10440 -->
<g id="edge37" class="edge"><title>6843&#45;&gt;10440</title>
<path fill="none" stroke="black" d="M671.004,-566.529C693.844,-550.699 731.674,-524.48 754.983,-508.325"/>
</g>
<!-- 7318 -->
<g id="node26" class="node"><title>7318</title>
<g id="a_node26"><a xlink:title="6th_week">
<ellipse fill="#c81d25" stroke="black" cx="851.004" cy="-295.146" rx="28.6953" ry="18"/>
<text text-anchor="middle" x="851.004" y="-291.446" font-family="Times,serif" font-size="14.00">7318</text>
</a>
</g>
</g>
<!-- 7318&#45;&gt;10440 -->
<g id="edge8" class="edge"><title>7318&#45;&gt;10440</title>
<path fill="none" stroke="black" d="M844.296,-312.808C829.952,-350.574 796.441,-438.809 782.11,-476.54"/>
</g>
<!-- 7340 -->
<g id="node27" class="node"><title>7340</title>
<g id="a_node27"><a xlink:title="6th_week">
<ellipse fill="#c81d25" stroke="black" cx="421.561" cy="-866.454" rx="28.6953" ry="18"/>
<text text-anchor="middle" x="421.561" y="-862.754" font-family="Times,serif" font-size="14.00">7340</text>
</a>
</g>
</g>
<!-- 11783 -->
<g id="node41" class="node"><title>11783</title>
<g id="a_node41"><a xlink:title="6th_week">
<ellipse fill="#c81d25" stroke="black" cx="550.51" cy="-693.34" rx="32.4942" ry="18"/>
<text text-anchor="middle" x="550.51" y="-689.64" font-family="Times,serif" font-size="14.00">11783</text>
</a>
</g>
</g>
<!-- 7340&#45;&gt;11783 -->
<g id="edge44" class="edge"><title>7340&#45;&gt;11783</title>
<path fill="none" stroke="black" d="M433.925,-849.856C458.509,-816.851 513.286,-743.314 537.994,-710.143"/>
</g>
<!-- 8251 -->
<g id="node28" class="node"><title>8251</title>
<g id="a_node28"><a xlink:title="6th_week">
<ellipse fill="#c81d25" stroke="black" cx="732.264" cy="-273.034" rx="28.6953" ry="18"/>
<text text-anchor="middle" x="732.264" y="-269.334" font-family="Times,serif" font-size="14.00">8251</text>
</a>
</g>
</g>
<!-- 8251&#45;&gt;10440 -->
<g id="edge34" class="edge"><title>8251&#45;&gt;10440</title>
<path fill="none" stroke="black" d="M735.795,-291.13C743.907,-332.698 763.797,-434.615 771.898,-476.126"/>
</g>
<!-- 8538 -->
<g id="node29" class="node"><title>8538</title>
<g id="a_node29"><a xlink:title="6th_week">
<ellipse fill="#c81d25" stroke="black" cx="297.116" cy="-564.738" rx="28.6953" ry="18"/>
<text text-anchor="middle" x="297.116" y="-561.038" font-family="Times,serif" font-size="14.00">8538</text>
</a>
</g>
</g>
<!-- 11461 -->
<g id="node39" class="node"><title>11461</title>
<g id="a_node39"><a xlink:title="6th_week">
<ellipse fill="#c81d25" stroke="black" cx="499.426" cy="-532.472" rx="32.4942" ry="18"/>
<text text-anchor="middle" x="499.426" y="-528.772" font-family="Times,serif" font-size="14.00">11461</text>
</a>
</g>
</g>
<!-- 8538&#45;&gt;11461 -->
<g id="edge14" class="edge"><title>8538&#45;&gt;11461</title>
<path fill="none" stroke="black" d="M325.246,-560.252C362.704,-554.278 428.767,-543.741 467.877,-537.504"/>
</g>
<!-- 8795 -->
<g id="node30" class="node"><title>8795</title>
<g id="a_node30"><a xlink:title="6th_week">
<ellipse fill="#c81d25" stroke="black" cx="842.292" cy="-696.324" rx="28.6953" ry="18"/>
<text text-anchor="middle" x="842.292" y="-692.624" font-family="Times,serif" font-size="14.00">8795</text>
</a>
</g>
</g>
<!-- 8795&#45;&gt;10440 -->
<g id="edge6" class="edge"><title>8795&#45;&gt;10440</title>
<path fill="none" stroke="black" d="M836.357,-678.384C823.667,-640.02 794.018,-550.39 781.339,-512.062"/>
</g>
<!-- 8879 -->
<g id="node31" class="node"><title>8879</title>
<g id="a_node31"><a xlink:title="6th_week">
<ellipse fill="#c81d25" stroke="black" cx="606.104" cy="-512.955" rx="28.6953" ry="18"/>
<text text-anchor="middle" x="606.104" y="-509.255" font-family="Times,serif" font-size="14.00">8879</text>
</a>
</g>
</g>
<!-- 8879&#45;&gt;10440 -->
<g id="edge16" class="edge"><title>8879&#45;&gt;10440</title>
<path fill="none" stroke="black" d="M634.443,-509.81C664.568,-506.466 712.105,-501.189 743.521,-497.702"/>
</g>
<!-- 9134 -->
<g id="node33" class="node"><title>9134</title>
<g id="a_node33"><a xlink:title="6th_week">
<ellipse fill="#c81d25" stroke="black" cx="933.211" cy="-584.362" rx="28.6953" ry="18"/>
<text text-anchor="middle" x="933.211" y="-580.662" font-family="Times,serif" font-size="14.00">9134</text>
</a>
</g>
</g>
<!-- 9134&#45;&gt;10440 -->
<g id="edge55" class="edge"><title>9134&#45;&gt;10440</title>
<path fill="none" stroke="black" d="M911.93,-572.197C882.235,-555.222 828.596,-524.56 798.145,-507.153"/>
</g>
<!-- 10440&#45;&gt;10448 -->
<g id="edge29" class="edge"><title>10440&#45;&gt;10448</title>
<path fill="none" stroke="black" d="M797.799,-480.776C843.259,-453.589 945.915,-392.196 991.179,-365.127"/>
</g>
<!-- 11017 -->
<g id="node37" class="node"><title>11017</title>
<g id="a_node37"><a xlink:title="6th_week">
<ellipse fill="#c81d25" stroke="black" cx="699.059" cy="-655.346" rx="32.4942" ry="18"/>
<text text-anchor="middle" x="699.059" y="-651.646" font-family="Times,serif" font-size="14.00">11017</text>
</a>
</g>
</g>
<!-- 10440&#45;&gt;11017 -->
<g id="edge13" class="edge"><title>10440&#45;&gt;11017</title>
<path fill="none" stroke="black" d="M767.1,-511.718C752.412,-542.723 722.047,-606.822 707.366,-637.811"/>
</g>
<!-- 10440&#45;&gt;11461 -->
<g id="edge15" class="edge"><title>10440&#45;&gt;11461</title>
<path fill="none" stroke="black" d="M743.758,-498.556C690.661,-505.927 584.273,-520.694 531.14,-528.07"/>
</g>
<!-- 10440&#45;&gt;11783 -->
<g id="edge52" class="edge"><title>10440&#45;&gt;11783</title>
<path fill="none" stroke="black" d="M758.143,-509.46C716.278,-546.535 609.769,-640.861 567.844,-677.99"/>
</g>
<!-- 12136 -->
<g id="node42" class="node"><title>12136</title>
<g id="a_node42"><a xlink:title="6th_week">
<ellipse fill="#c81d25" stroke="black" cx="929.426" cy="-347.878" rx="32.4942" ry="18"/>
<text text-anchor="middle" x="929.426" y="-344.178" font-family="Times,serif" font-size="14.00">12136</text>
</a>
</g>
</g>
<!-- 10440&#45;&gt;12136 -->
<g id="edge26" class="edge"><title>10440&#45;&gt;12136</title>
<path fill="none" stroke="black" d="M791.899,-478.507C821.386,-450.499 882.859,-392.11 912.596,-363.864"/>
</g>
<!-- 10440&#45;&gt;12403 -->
<g id="edge48" class="edge"><title>10440&#45;&gt;12403</title>
<path fill="none" stroke="black" d="M766.372,-476.782C740.402,-426.888 665.818,-283.593 639.853,-233.707"/>
</g>
<!-- 13150 -->
<g id="node44" class="node"><title>13150</title>
<g id="a_node44"><a xlink:title="6th_week">
<ellipse fill="#c81d25" stroke="black" cx="849.219" cy="-350.485" rx="32.4942" ry="18"/>
<text text-anchor="middle" x="849.219" y="-346.785" font-family="Times,serif" font-size="14.00">13150</text>
</a>
</g>
</g>
<!-- 10440&#45;&gt;13150 -->
<g id="edge30" class="edge"><title>10440&#45;&gt;13150</title>
<path fill="none" stroke="black" d="M784.32,-476.831C798.505,-449.216 826.081,-395.531 840.285,-367.877"/>
</g>
<!-- 13254 -->
<g id="node45" class="node"><title>13254</title>
<g id="a_node45"><a xlink:title="6th_week">
<ellipse fill="#c81d25" stroke="black" cx="615.606" cy="-641.148" rx="32.4942" ry="18"/>
<text text-anchor="middle" x="615.606" y="-637.448" font-family="Times,serif" font-size="14.00">13254</text>
</a>
</g>
</g>
<!-- 10440&#45;&gt;13254 -->
<g id="edge12" class="edge"><title>10440&#45;&gt;13254</title>
<path fill="none" stroke="black" d="M758.617,-509.614C728.004,-537.77 663.464,-597.131 632.663,-625.46"/>
</g>
<!-- 13259 -->
<g id="node46" class="node"><title>13259</title>
<g id="a_node46"><a xlink:title="6th_week">
<ellipse fill="#c81d25" stroke="black" cx="770.251" cy="-708.149" rx="32.4942" ry="18"/>
<text text-anchor="middle" x="770.251" y="-704.449" font-family="Times,serif" font-size="14.00">13259</text>
</a>
</g>
</g>
<!-- 10440&#45;&gt;13259 -->
<g id="edge51" class="edge"><title>10440&#45;&gt;13259</title>
<path fill="none" stroke="black" d="M774.977,-512.406C774.001,-552.834 771.666,-649.565 770.691,-689.95"/>
</g>
<!-- 13713 -->
<g id="node47" class="node"><title>13713</title>
<g id="a_node47"><a xlink:title="6th_week">
<ellipse fill="#c81d25" stroke="black" cx="693.86" cy="-700.746" rx="32.4942" ry="18"/>
<text text-anchor="middle" x="693.86" y="-697.046" font-family="Times,serif" font-size="14.00">13713</text>
</a>
</g>
</g>
<!-- 10440&#45;&gt;13713 -->
<g id="edge39" class="edge"><title>10440&#45;&gt;13713</title>
<path fill="none" stroke="black" d="M768.464,-511.775C753.094,-550.707 716.372,-643.722 700.911,-682.884"/>
</g>
<!-- 10440&#45;&gt;13953 -->
<g id="edge56" class="edge"><title>10440&#45;&gt;13953</title>
<path fill="none" stroke="black" d="M806.813,-489.148C859.466,-480.739 964.966,-463.889 1017.65,-455.475"/>
</g>
<!-- 14733 -->
<g id="node49" class="node"><title>14733</title>
<g id="a_node49"><a xlink:title="6th_week">
<ellipse fill="#c81d25" stroke="black" cx="922.459" cy="-654.538" rx="32.4942" ry="18"/>
<text text-anchor="middle" x="922.459" y="-650.838" font-family="Times,serif" font-size="14.00">14733</text>
</a>
</g>
</g>
<!-- 10440&#45;&gt;14733 -->
<g id="edge50" class="edge"><title>10440&#45;&gt;14733</title>
<path fill="none" stroke="black" d="M790.326,-510.422C818.508,-541.161 879.298,-607.463 907.511,-638.235"/>
</g>
<!-- 15035 -->
<g id="node50" class="node"><title>15035</title>
<g id="a_node50"><a xlink:title="6th_week">
<ellipse fill="#c81d25" stroke="black" cx="580.674" cy="-574.993" rx="32.4942" ry="18"/>
<text text-anchor="middle" x="580.674" y="-571.293" font-family="Times,serif" font-size="14.00">15035</text>
</a>
</g>
</g>
<!-- 10440&#45;&gt;15035 -->
<g id="edge45" class="edge"><title>10440&#45;&gt;15035</title>
<path fill="none" stroke="black" d="M749.153,-505.063C711.881,-520.533 644.046,-548.689 606.832,-564.135"/>
</g>
<!-- 15478 -->
<g id="node53" class="node"><title>15478</title>
<g id="a_node53"><a xlink:title="6th_week">
<ellipse fill="#c81d25" stroke="black" cx="560.663" cy="-460.043" rx="32.4942" ry="18"/>
<text text-anchor="middle" x="560.663" y="-456.343" font-family="Times,serif" font-size="14.00">15478</text>
</a>
</g>
</g>
<!-- 10440&#45;&gt;15478 -->
<g id="edge21" class="edge"><title>10440&#45;&gt;15478</title>
<path fill="none" stroke="black" d="M743.73,-489.127C703.01,-482.658 632.744,-471.495 592.131,-465.043"/>
</g>
<!-- 15740 -->
<g id="node54" class="node"><title>15740</title>
<g id="a_node54"><a xlink:title="6th_week">
<ellipse fill="#c81d25" stroke="black" cx="656.668" cy="-314.888" rx="32.4942" ry="18"/>
<text text-anchor="middle" x="656.668" y="-311.188" font-family="Times,serif" font-size="14.00">15740</text>
</a>
</g>
</g>
<!-- 10440&#45;&gt;15740 -->
<g id="edge24" class="edge"><title>10440&#45;&gt;15740</title>
<path fill="none" stroke="black" d="M764.031,-476.972C741.333,-442.706 690.689,-366.249 668.02,-332.026"/>
</g>
<!-- 15830 -->
<g id="node55" class="node"><title>15830</title>
<g id="a_node55"><a xlink:title="6th_week">
<ellipse fill="#c81d25" stroke="black" cx="592.535" cy="-413.929" rx="32.4942" ry="18"/>
<text text-anchor="middle" x="592.535" y="-410.229" font-family="Times,serif" font-size="14.00">15830</text>
</a>
</g>
</g>
<!-- 10440&#45;&gt;15830 -->
<g id="edge23" class="edge"><title>10440&#45;&gt;15830</title>
<path fill="none" stroke="black" d="M749.603,-482.836C714.748,-467.545 653.006,-440.458 618.218,-425.197"/>
</g>
<!-- 10440&#45;&gt;15878 -->
<g id="edge7" class="edge"><title>10440&#45;&gt;15878</title>
<path fill="none" stroke="black" d="M805.92,-500.656C858.008,-511.747 963.503,-534.21 1015.51,-545.284"/>
</g>
<!-- 11509 -->
<g id="node40" class="node"><title>11509</title>
<g id="a_node40"><a xlink:title="6th_week">
<ellipse fill="#c81d25" stroke="black" cx="362.241" cy="-807.698" rx="32.4942" ry="18"/>
<text text-anchor="middle" x="362.241" y="-803.998" font-family="Times,serif" font-size="14.00">11509</text>
</a>
</g>
</g>
<!-- 11509&#45;&gt;11783 -->
<g id="edge1" class="edge"><title>11509&#45;&gt;11783</title>
<path fill="none" stroke="black" d="M384.206,-794.356C420.387,-772.379 492.115,-728.811 528.394,-706.774"/>
</g>
<!-- 15406 -->
<g id="node52" class="node"><title>15406</title>
<g id="a_node52"><a xlink:title="6th_week">
<ellipse fill="#c81d25" stroke="black" cx="32.3728" cy="-234.361" rx="32.4942" ry="18"/>
<text text-anchor="middle" x="32.3728" y="-230.661" font-family="Times,serif" font-size="14.00">15406</text>
</a>
</g>
</g>
<!-- 15298&#45;&gt;15406 -->
<g id="edge11" class="edge"><title>15298&#45;&gt;15406</title>
<path fill="none" stroke="black" d="M204.643,-263.675C166.263,-257.145 101.691,-246.157 63.4472,-239.649"/>
</g>
<!-- 6078 -->
<g id="node57" class="node"><title>6078</title>
<g id="a_node57"><a xlink:title="6th_week">
<ellipse fill="#c81d25" stroke="black" cx="70.2744" cy="-153.895" rx="28.6953" ry="18"/>
<text text-anchor="middle" x="70.2744" y="-150.195" font-family="Times,serif" font-size="14.00">6078</text>
</a>
</g>
</g>
<!-- 15298&#45;&gt;6078 -->
<g id="edge25" class="edge"><title>15298&#45;&gt;6078</title>
<path fill="none" stroke="black" d="M215.693,-254.898C183.45,-232.503 121.007,-189.133 89.4793,-167.234"/>
</g>
</g>
</svg>
