<?xml version="1.0" encoding="UTF-8" standalone="no"?>
<!DOCTYPE svg PUBLIC "-//W3C//DTD SVG 1.1//EN"
 "http://www.w3.org/Graphics/SVG/1.1/DTD/svg11.dtd">
<!-- Generated by graphviz version 2.38.0 (20140413.2041)
 -->
<!-- Title: %3 Pages: 1 -->
<svg width="1210pt" height="825pt"
 viewBox="0.00 0.00 1210.00 825.00" xmlns="http://www.w3.org/2000/svg" xmlns:xlink="http://www.w3.org/1999/xlink">
<g id="graph0" class="graph" transform="scale(1 1) rotate(0) translate(4 821)">
<title>%3</title>
<polygon fill="white" stroke="none" points="-4,4 -4,-821 1206,-821 1206,4 -4,4"/>
<!-- 126 -->
<g id="node1" class="node"><title>126</title>
<g id="a_node1"><a xlink:title="3rd_week">
<ellipse fill="#ee9898" stroke="black" cx="544.777" cy="-213.263" rx="27" ry="18"/>
<text text-anchor="middle" x="544.777" y="-209.563" font-family="Times,serif" font-size="14.00">126</text>
</a>
</g>
</g>
<!-- 635 -->
<g id="node6" class="node"><title>635</title>
<g id="a_node6"><a xlink:title="3rd_week,6th_week">
<ellipse fill="#ee9898" stroke="black" cx="484.083" cy="-391.575" rx="27" ry="18"/>
<ellipse fill="none" stroke="black" cx="484.083" cy="-391.575" rx="31" ry="22"/>
<text text-anchor="middle" x="484.083" y="-387.875" font-family="Times,serif" font-size="14.00">635</text>
</a>
</g>
</g>
<!-- 126&#45;&gt;635 -->
<g id="edge15" class="edge"><title>126&#45;&gt;635</title>
<path fill="none" stroke="black" d="M538.735,-231.012C527.521,-263.958 503.529,-334.446 491.41,-370.05"/>
</g>
<!-- 10018 -->
<g id="node28" class="node"><title>10018</title>
<g id="a_node28"><a xlink:title="3rd_week">
<ellipse fill="#ee9898" stroke="black" cx="599.654" cy="-59.8646" rx="32.4942" ry="18"/>
<text text-anchor="middle" x="599.654" y="-56.1646" font-family="Times,serif" font-size="14.00">10018</text>
</a>
</g>
</g>
<!-- 126&#45;&gt;10018 -->
<g id="edge27" class="edge"><title>126&#45;&gt;10018</title>
<path fill="none" stroke="black" d="M551.072,-195.666C561.601,-166.234 582.671,-107.339 593.263,-77.7287"/>
</g>
<!-- 210 -->
<g id="node2" class="node"><title>210</title>
<g id="a_node2"><a xlink:title="3rd_week">
<ellipse fill="#ee9898" stroke="black" cx="622.949" cy="-252.268" rx="27" ry="18"/>
<text text-anchor="middle" x="622.949" y="-248.568" font-family="Times,serif" font-size="14.00">210</text>
</a>
</g>
</g>
<!-- 210&#45;&gt;635 -->
<g id="edge42" class="edge"><title>210&#45;&gt;635</title>
<path fill="none" stroke="black" d="M607.823,-267.441C582.095,-293.251 529.919,-345.593 502.254,-373.346"/>
</g>
<!-- 11871 -->
<g id="node38" class="node"><title>11871</title>
<g id="a_node38"><a xlink:title="3rd_week">
<ellipse fill="#ee9898" stroke="black" cx="709.214" cy="-116.598" rx="32.4942" ry="18"/>
<text text-anchor="middle" x="709.214" y="-112.898" font-family="Times,serif" font-size="14.00">11871</text>
</a>
</g>
</g>
<!-- 210&#45;&gt;11871 -->
<g id="edge28" class="edge"><title>210&#45;&gt;11871</title>
<path fill="none" stroke="black" d="M633.526,-235.632C649.993,-209.735 681.594,-160.036 698.277,-133.798"/>
</g>
<!-- 443 -->
<g id="node3" class="node"><title>443</title>
<g id="a_node3"><a xlink:title="3rd_week">
<ellipse fill="#ee9898" stroke="black" cx="478.367" cy="-32.0524" rx="27" ry="18"/>
<text text-anchor="middle" x="478.367" y="-28.3524" font-family="Times,serif" font-size="14.00">443</text>
</a>
</g>
</g>
<!-- 15926 -->
<g id="node50" class="node"><title>15926</title>
<g id="a_node50"><a xlink:title="3rd_week">
<ellipse fill="#ee9898" stroke="black" cx="473.448" cy="-203.46" rx="32.4942" ry="18"/>
<text text-anchor="middle" x="473.448" y="-199.76" font-family="Times,serif" font-size="14.00">15926</text>
</a>
</g>
</g>
<!-- 443&#45;&gt;15926 -->
<g id="edge53" class="edge"><title>443&#45;&gt;15926</title>
<path fill="none" stroke="black" d="M477.85,-50.0721C476.905,-82.9924 474.911,-152.493 473.966,-185.425"/>
</g>
<!-- 574 -->
<g id="node4" class="node"><title>574</title>
<g id="a_node4"><a xlink:title="3rd_week">
<ellipse fill="#ee9898" stroke="black" cx="242.124" cy="-696.14" rx="27" ry="18"/>
<text text-anchor="middle" x="242.124" y="-692.44" font-family="Times,serif" font-size="14.00">574</text>
</a>
</g>
</g>
<!-- 10331 -->
<g id="node31" class="node"><title>10331</title>
<g id="a_node31"><a xlink:title="3rd_week">
<ellipse fill="#ee9898" stroke="black" cx="353.454" cy="-593.261" rx="32.4942" ry="18"/>
<text text-anchor="middle" x="353.454" y="-589.561" font-family="Times,serif" font-size="14.00">10331</text>
</a>
</g>
</g>
<!-- 574&#45;&gt;10331 -->
<g id="edge24" class="edge"><title>574&#45;&gt;10331</title>
<path fill="none" stroke="black" d="M258.075,-681.4C278.878,-662.176 315.122,-628.683 336.437,-608.986"/>
</g>
<!-- 576 -->
<g id="node5" class="node"><title>576</title>
<g id="a_node5"><a xlink:title="3rd_week">
<ellipse fill="#ee9898" stroke="black" cx="1175.28" cy="-416.663" rx="27" ry="18"/>
<text text-anchor="middle" x="1175.28" y="-412.963" font-family="Times,serif" font-size="14.00">576</text>
</a>
</g>
</g>
<!-- 3865 -->
<g id="node12" class="node"><title>3865</title>
<g id="a_node12"><a xlink:title="3rd_week">
<ellipse fill="#ee9898" stroke="black" cx="1030.58" cy="-409.37" rx="28.6953" ry="18"/>
<text text-anchor="middle" x="1030.58" y="-405.67" font-family="Times,serif" font-size="14.00">3865</text>
</a>
</g>
</g>
<!-- 576&#45;&gt;3865 -->
<g id="edge20" class="edge"><title>576&#45;&gt;3865</title>
<path fill="none" stroke="black" d="M1148.07,-415.291C1122.69,-414.012 1084.97,-412.112 1059.16,-410.811"/>
</g>
<!-- 1551 -->
<g id="node7" class="node"><title>1551</title>
<g id="a_node7"><a xlink:title="3rd_week">
<ellipse fill="#ee9898" stroke="black" cx="382.396" cy="-295.51" rx="28.6953" ry="18"/>
<text text-anchor="middle" x="382.396" y="-291.81" font-family="Times,serif" font-size="14.00">1551</text>
</a>
</g>
</g>
<!-- 635&#45;&gt;1551 -->
<g id="edge3" class="edge"><title>635&#45;&gt;1551</title>
<path fill="none" stroke="black" d="M465.432,-373.955C446.167,-355.755 416.427,-327.659 398.257,-310.494"/>
</g>
<!-- 2137 -->
<g id="node8" class="node"><title>2137</title>
<g id="a_node8"><a xlink:title="3rd_week">
<ellipse fill="#ee9898" stroke="black" cx="449.062" cy="-532.02" rx="28.6953" ry="18"/>
<text text-anchor="middle" x="449.062" y="-528.32" font-family="Times,serif" font-size="14.00">2137</text>
</a>
</g>
</g>
<!-- 635&#45;&gt;2137 -->
<g id="edge40" class="edge"><title>635&#45;&gt;2137</title>
<path fill="none" stroke="black" d="M478.611,-413.519C471.685,-441.293 459.89,-488.595 453.497,-514.232"/>
</g>
<!-- 2212 -->
<g id="node9" class="node"><title>2212</title>
<g id="a_node9"><a xlink:title="3rd_week">
<ellipse fill="#ee9898" stroke="black" cx="539.875" cy="-280.881" rx="28.6953" ry="18"/>
<text text-anchor="middle" x="539.875" y="-277.181" font-family="Times,serif" font-size="14.00">2212</text>
</a>
</g>
</g>
<!-- 635&#45;&gt;2212 -->
<g id="edge34" class="edge"><title>635&#45;&gt;2212</title>
<path fill="none" stroke="black" d="M494.577,-370.754C505.12,-349.837 521.185,-317.964 531.08,-298.331"/>
</g>
<!-- 4711 -->
<g id="node13" class="node"><title>4711</title>
<g id="a_node13"><a xlink:title="6th_week">
<ellipse fill="#c81d25" stroke="black" cx="363.173" cy="-370.18" rx="28.6953" ry="18"/>
<text text-anchor="middle" x="363.173" y="-366.48" font-family="Times,serif" font-size="14.00">4711</text>
</a>
</g>
</g>
<!-- 635&#45;&gt;4711 -->
<g id="edge23" class="edge"><title>635&#45;&gt;4711</title>
<path fill="none" stroke="black" d="M453.884,-386.231C434.579,-382.815 409.727,-378.418 390.919,-375.09"/>
</g>
<!-- 5255 -->
<g id="node14" class="node"><title>5255</title>
<g id="a_node14"><a xlink:title="3rd_week">
<ellipse fill="#ee9898" stroke="black" cx="373.905" cy="-499.562" rx="28.6953" ry="18"/>
<text text-anchor="middle" x="373.905" y="-495.862" font-family="Times,serif" font-size="14.00">5255</text>
</a>
</g>
</g>
<!-- 635&#45;&gt;5255 -->
<g id="edge4" class="edge"><title>635&#45;&gt;5255</title>
<path fill="none" stroke="black" d="M465.889,-409.407C444.62,-430.254 409.769,-464.411 389.625,-484.154"/>
</g>
<!-- 6406 -->
<g id="node17" class="node"><title>6406</title>
<g id="a_node17"><a xlink:title="3rd_week">
<ellipse fill="#ee9898" stroke="black" cx="534.634" cy="-485.192" rx="28.6953" ry="18"/>
<text text-anchor="middle" x="534.634" y="-481.492" font-family="Times,serif" font-size="14.00">6406</text>
</a>
</g>
</g>
<!-- 635&#45;&gt;6406 -->
<g id="edge13" class="edge"><title>635&#45;&gt;6406</title>
<path fill="none" stroke="black" d="M495.302,-412.352C504.319,-429.051 516.836,-452.231 525.309,-467.922"/>
</g>
<!-- 7603 -->
<g id="node19" class="node"><title>7603</title>
<g id="a_node19"><a xlink:title="6th_week">
<ellipse fill="#c81d25" stroke="black" cx="301.652" cy="-321.939" rx="28.6953" ry="18"/>
<text text-anchor="middle" x="301.652" y="-318.239" font-family="Times,serif" font-size="14.00">7603</text>
</a>
</g>
</g>
<!-- 635&#45;&gt;7603 -->
<g id="edge32" class="edge"><title>635&#45;&gt;7603</title>
<path fill="none" stroke="black" d="M456.771,-381.15C421.385,-367.643 360.214,-344.293 326.223,-331.318"/>
</g>
<!-- 8358 -->
<g id="node21" class="node"><title>8358</title>
<g id="a_node21"><a xlink:title="3rd_week">
<ellipse fill="#ee9898" stroke="black" cx="341.803" cy="-445.862" rx="28.6953" ry="18"/>
<text text-anchor="middle" x="341.803" y="-442.162" font-family="Times,serif" font-size="14.00">8358</text>
</a>
</g>
</g>
<!-- 635&#45;&gt;8358 -->
<g id="edge39" class="edge"><title>635&#45;&gt;8358</title>
<path fill="none" stroke="black" d="M456.65,-402.042C430.486,-412.025 391.445,-426.921 366.302,-436.515"/>
</g>
<!-- 8976 -->
<g id="node24" class="node"><title>8976</title>
<g id="a_node24"><a xlink:title="3rd_week">
<ellipse fill="#ee9898" stroke="black" cx="531.793" cy="-549.836" rx="28.6953" ry="18"/>
<text text-anchor="middle" x="531.793" y="-546.136" font-family="Times,serif" font-size="14.00">8976</text>
</a>
</g>
</g>
<!-- 635&#45;&gt;8976 -->
<g id="edge5" class="edge"><title>635&#45;&gt;8976</title>
<path fill="none" stroke="black" d="M490.617,-413.249C500.111,-444.741 517.545,-502.574 526.37,-531.847"/>
</g>
<!-- 9124 -->
<g id="node25" class="node"><title>9124</title>
<g id="a_node25"><a xlink:title="3rd_week">
<ellipse fill="#ee9898" stroke="black" cx="603.605" cy="-327.328" rx="28.6953" ry="18"/>
<text text-anchor="middle" x="603.605" y="-323.628" font-family="Times,serif" font-size="14.00">9124</text>
</a>
</g>
</g>
<!-- 635&#45;&gt;9124 -->
<g id="edge26" class="edge"><title>635&#45;&gt;9124</title>
<path fill="none" stroke="black" d="M508.848,-378.263C530.318,-366.722 561.093,-350.179 581.685,-339.11"/>
</g>
<!-- 635&#45;&gt;10331 -->
<g id="edge1" class="edge"><title>635&#45;&gt;10331</title>
<path fill="none" stroke="black" d="M471.08,-411.651C445.396,-451.306 388.565,-539.05 364.531,-576.158"/>
</g>
<!-- 10377 -->
<g id="node32" class="node"><title>10377</title>
<g id="a_node32"><a xlink:title="6th_week">
<ellipse fill="#c81d25" stroke="black" cx="456.557" cy="-259.104" rx="32.4942" ry="18"/>
<text text-anchor="middle" x="456.557" y="-255.404" font-family="Times,serif" font-size="14.00">10377</text>
</a>
</g>
</g>
<!-- 635&#45;&gt;10377 -->
<g id="edge11" class="edge"><title>635&#45;&gt;10377</title>
<path fill="none" stroke="black" d="M479.538,-369.7C474.163,-343.833 465.316,-301.259 460.312,-277.176"/>
</g>
<!-- 10444 -->
<g id="node34" class="node"><title>10444</title>
<g id="a_node34"><a xlink:title="3rd_week">
<ellipse fill="#ee9898" stroke="black" cx="451.796" cy="-592.904" rx="32.4942" ry="18"/>
<text text-anchor="middle" x="451.796" y="-589.204" font-family="Times,serif" font-size="14.00">10444</text>
</a>
</g>
</g>
<!-- 635&#45;&gt;10444 -->
<g id="edge35" class="edge"><title>635&#45;&gt;10444</title>
<path fill="none" stroke="black" d="M480.566,-413.504C474.143,-453.556 460.63,-537.82 454.695,-574.826"/>
</g>
<!-- 10454 -->
<g id="node35" class="node"><title>10454</title>
<g id="a_node35"><a xlink:title="3rd_week">
<ellipse fill="#ee9898" stroke="black" cx="607.448" cy="-493.826" rx="32.4942" ry="18"/>
<text text-anchor="middle" x="607.448" y="-490.126" font-family="Times,serif" font-size="14.00">10454</text>
</a>
</g>
</g>
<!-- 635&#45;&gt;10454 -->
<g id="edge18" class="edge"><title>635&#45;&gt;10454</title>
<path fill="none" stroke="black" d="M504.454,-408.46C527.996,-427.972 566.397,-459.801 589.062,-478.587"/>
</g>
<!-- 11137 -->
<g id="node36" class="node"><title>11137</title>
<g id="a_node36"><a xlink:title="3rd_week">
<ellipse fill="#ee9898" stroke="black" cx="624.985" cy="-439.101" rx="32.4942" ry="18"/>
<text text-anchor="middle" x="624.985" y="-435.401" font-family="Times,serif" font-size="14.00">11137</text>
</a>
</g>
</g>
<!-- 635&#45;&gt;11137 -->
<g id="edge19" class="edge"><title>635&#45;&gt;11137</title>
<path fill="none" stroke="black" d="M512.258,-401.078C536.833,-409.368 572.298,-421.33 596.859,-429.614"/>
</g>
<!-- 11617 -->
<g id="node37" class="node"><title>11617</title>
<g id="a_node37"><a xlink:title="3rd_week">
<ellipse fill="#ee9898" stroke="black" cx="253.624" cy="-492.157" rx="32.4942" ry="18"/>
<text text-anchor="middle" x="253.624" y="-488.457" font-family="Times,serif" font-size="14.00">11617</text>
</a>
</g>
</g>
<!-- 635&#45;&gt;11617 -->
<g id="edge38" class="edge"><title>635&#45;&gt;11617</title>
<path fill="none" stroke="black" d="M457.646,-403.113C413.073,-422.566 323.524,-461.649 279.4,-480.907"/>
</g>
<!-- 12465 -->
<g id="node41" class="node"><title>12465</title>
<g id="a_node41"><a xlink:title="3rd_week">
<ellipse fill="#ee9898" stroke="black" cx="303.527" cy="-243.81" rx="32.4942" ry="18"/>
<text text-anchor="middle" x="303.527" y="-240.11" font-family="Times,serif" font-size="14.00">12465</text>
</a>
</g>
</g>
<!-- 635&#45;&gt;12465 -->
<g id="edge25" class="edge"><title>635&#45;&gt;12465</title>
<path fill="none" stroke="black" d="M463.722,-374.912C428.307,-345.929 355.905,-286.676 321.917,-258.861"/>
</g>
<!-- 12743 -->
<g id="node42" class="node"><title>12743</title>
<g id="a_node42"><a xlink:title="3rd_week">
<ellipse fill="#ee9898" stroke="black" cx="273.081" cy="-388.183" rx="32.4942" ry="18"/>
<text text-anchor="middle" x="273.081" y="-384.483" font-family="Times,serif" font-size="14.00">12743</text>
</a>
</g>
</g>
<!-- 635&#45;&gt;12743 -->
<g id="edge8" class="edge"><title>635&#45;&gt;12743</title>
<path fill="none" stroke="black" d="M452.949,-391.074C413.514,-390.441 345.875,-389.353 305.732,-388.708"/>
</g>
<!-- 13256 -->
<g id="node44" class="node"><title>13256</title>
<g id="a_node44"><a xlink:title="6th_week">
<ellipse fill="#c81d25" stroke="black" cx="563.075" cy="-636.521" rx="32.4942" ry="18"/>
<text text-anchor="middle" x="563.075" y="-632.821" font-family="Times,serif" font-size="14.00">13256</text>
</a>
</g>
</g>
<!-- 635&#45;&gt;13256 -->
<g id="edge22" class="edge"><title>635&#45;&gt;13256</title>
<path fill="none" stroke="black" d="M491.093,-413.312C506.498,-461.083 543.061,-574.459 557.279,-618.547"/>
</g>
<!-- 13840 -->
<g id="node46" class="node"><title>13840</title>
<g id="a_node46"><a xlink:title="3rd_week">
<ellipse fill="#ee9898" stroke="black" cx="390.649" cy="-196.854" rx="32.4942" ry="18"/>
<text text-anchor="middle" x="390.649" y="-193.154" font-family="Times,serif" font-size="14.00">13840</text>
</a>
</g>
</g>
<!-- 635&#45;&gt;13840 -->
<g id="edge17" class="edge"><title>635&#45;&gt;13840</title>
<path fill="none" stroke="black" d="M474.084,-370.736C455.583,-332.179 416.326,-250.366 399.077,-214.418"/>
</g>
<!-- 14166 -->
<g id="node47" class="node"><title>14166</title>
<g id="a_node47"><a xlink:title="3rd_week,6th_week">
<ellipse fill="#ee9898" stroke="black" cx="803.106" cy="-401.683" rx="32.4945" ry="18"/>
<ellipse fill="none" stroke="black" cx="803.106" cy="-401.683" rx="36.4942" ry="22"/>
<text text-anchor="middle" x="803.106" y="-397.983" font-family="Times,serif" font-size="14.00">14166</text>
</a>
</g>
</g>
<!-- 635&#45;&gt;14166 -->
<g id="edge9" class="edge"><title>635&#45;&gt;14166</title>
<path fill="none" stroke="black" d="M515.253,-392.563C574.518,-394.44 703.171,-398.517 766.454,-400.522"/>
</g>
<!-- 635&#45;&gt;15926 -->
<g id="edge2" class="edge"><title>635&#45;&gt;15926</title>
<path fill="none" stroke="black" d="M482.821,-369.257C480.692,-331.593 476.427,-256.143 474.471,-221.547"/>
</g>
<!-- 16003 -->
<g id="node51" class="node"><title>16003</title>
<g id="a_node51"><a xlink:title="3rd_week">
<ellipse fill="#ee9898" stroke="black" cx="629.676" cy="-379.529" rx="32.4942" ry="18"/>
<text text-anchor="middle" x="629.676" y="-375.829" font-family="Times,serif" font-size="14.00">16003</text>
</a>
</g>
</g>
<!-- 635&#45;&gt;16003 -->
<g id="edge48" class="edge"><title>635&#45;&gt;16003</title>
<path fill="none" stroke="black" d="M514.96,-389.02C539.166,-387.018 572.754,-384.239 597.33,-382.205"/>
</g>
<!-- 2515 -->
<g id="node10" class="node"><title>2515</title>
<g id="a_node10"><a xlink:title="3rd_week">
<ellipse fill="#ee9898" stroke="black" cx="894.873" cy="-257.081" rx="28.6953" ry="18"/>
<text text-anchor="middle" x="894.873" y="-253.381" font-family="Times,serif" font-size="14.00">2515</text>
</a>
</g>
</g>
<!-- 2515&#45;&gt;14166 -->
<g id="edge47" class="edge"><title>2515&#45;&gt;14166</title>
<path fill="none" stroke="black" d="M884.167,-273.951C867.335,-300.474 834.72,-351.867 816.408,-380.722"/>
</g>
<!-- 3003 -->
<g id="node11" class="node"><title>3003</title>
<g id="a_node11"><a xlink:title="3rd_week">
<ellipse fill="#ee9898" stroke="black" cx="163.915" cy="-126.365" rx="28.6953" ry="18"/>
<text text-anchor="middle" x="163.915" y="-122.665" font-family="Times,serif" font-size="14.00">3003</text>
</a>
</g>
</g>
<!-- 10095 -->
<g id="node29" class="node"><title>10095</title>
<g id="a_node29"><a xlink:title="3rd_week">
<ellipse fill="#ee9898" stroke="black" cx="32.7158" cy="-17.6273" rx="32.4942" ry="18"/>
<text text-anchor="middle" x="32.7158" y="-13.9273" font-family="Times,serif" font-size="14.00">10095</text>
</a>
</g>
</g>
<!-- 3003&#45;&gt;10095 -->
<g id="edge21" class="edge"><title>3003&#45;&gt;10095</title>
<path fill="none" stroke="black" d="M146.492,-111.925C121.678,-91.3587 76.3645,-53.8033 51.0555,-32.8272"/>
</g>
<!-- 3003&#45;&gt;12465 -->
<g id="edge33" class="edge"><title>3003&#45;&gt;12465</title>
<path fill="none" stroke="black" d="M181.314,-141.002C207.921,-163.384 258.467,-205.905 285.465,-228.616"/>
</g>
<!-- 3865&#45;&gt;14166 -->
<g id="edge49" class="edge"><title>3865&#45;&gt;14166</title>
<path fill="none" stroke="black" d="M1001.77,-408.397C960.527,-407.003 884.662,-404.439 839.561,-402.915"/>
</g>
<!-- 5774 -->
<g id="node15" class="node"><title>5774</title>
<g id="a_node15"><a xlink:title="3rd_week">
<ellipse fill="#ee9898" stroke="black" cx="307.364" cy="-740.192" rx="28.6953" ry="18"/>
<text text-anchor="middle" x="307.364" y="-736.492" font-family="Times,serif" font-size="14.00">5774</text>
</a>
</g>
</g>
<!-- 5774&#45;&gt;10331 -->
<g id="edge41" class="edge"><title>5774&#45;&gt;10331</title>
<path fill="none" stroke="black" d="M312.923,-722.468C321.782,-694.228 339.003,-639.327 347.874,-611.047"/>
</g>
<!-- 6043 -->
<g id="node16" class="node"><title>6043</title>
<g id="a_node16"><a xlink:title="6th_week">
<ellipse fill="#c81d25" stroke="black" cx="539.033" cy="-798.583" rx="28.6953" ry="18"/>
<text text-anchor="middle" x="539.033" y="-794.883" font-family="Times,serif" font-size="14.00">6043</text>
</a>
</g>
</g>
<!-- 6043&#45;&gt;13256 -->
<g id="edge50" class="edge"><title>6043&#45;&gt;13256</title>
<path fill="none" stroke="black" d="M541.698,-780.621C546.319,-749.469 555.769,-685.772 560.398,-654.564"/>
</g>
<!-- 6657 -->
<g id="node18" class="node"><title>6657</title>
<g id="a_node18"><a xlink:title="6th_week">
<ellipse fill="#c81d25" stroke="black" cx="1008.5" cy="-463.123" rx="28.6953" ry="18"/>
<text text-anchor="middle" x="1008.5" y="-459.423" font-family="Times,serif" font-size="14.00">6657</text>
</a>
</g>
</g>
<!-- 6657&#45;&gt;14166 -->
<g id="edge10" class="edge"><title>6657&#45;&gt;14166</title>
<path fill="none" stroke="black" d="M982.488,-455.341C945.246,-444.201 876.746,-423.711 836.022,-411.53"/>
</g>
<!-- 9138 -->
<g id="node26" class="node"><title>9138</title>
<g id="a_node26"><a xlink:title="3rd_week">
<ellipse fill="#ee9898" stroke="black" cx="144.634" cy="-255.657" rx="28.6953" ry="18"/>
<text text-anchor="middle" x="144.634" y="-251.957" font-family="Times,serif" font-size="14.00">9138</text>
</a>
</g>
</g>
<!-- 7603&#45;&gt;9138 -->
<g id="edge36" class="edge"><title>7603&#45;&gt;9138</title>
<path fill="none" stroke="black" d="M277.804,-311.872C248.206,-299.378 198.031,-278.197 168.448,-265.71"/>
</g>
<!-- 8293 -->
<g id="node20" class="node"><title>8293</title>
<g id="a_node20"><a xlink:title="6th_week">
<ellipse fill="#c81d25" stroke="black" cx="919.373" cy="-303.342" rx="28.6953" ry="18"/>
<text text-anchor="middle" x="919.373" y="-299.642" font-family="Times,serif" font-size="14.00">8293</text>
</a>
</g>
</g>
<!-- 8293&#45;&gt;14166 -->
<g id="edge45" class="edge"><title>8293&#45;&gt;14166</title>
<path fill="none" stroke="black" d="M902.217,-317.853C881.625,-335.271 847.075,-364.494 824.689,-383.428"/>
</g>
<!-- 8477 -->
<g id="node22" class="node"><title>8477</title>
<g id="a_node22"><a xlink:title="3rd_week">
<ellipse fill="#ee9898" stroke="black" cx="964.467" cy="-365.065" rx="28.6953" ry="18"/>
<text text-anchor="middle" x="964.467" y="-361.365" font-family="Times,serif" font-size="14.00">8477</text>
</a>
</g>
</g>
<!-- 8477&#45;&gt;14166 -->
<g id="edge16" class="edge"><title>8477&#45;&gt;14166</title>
<path fill="none" stroke="black" d="M937.458,-371.194C910.005,-377.424 867.377,-387.098 837.519,-393.874"/>
</g>
<!-- 8870 -->
<g id="node23" class="node"><title>8870</title>
<g id="a_node23"><a xlink:title="3rd_week">
<ellipse fill="#ee9898" stroke="black" cx="285.147" cy="-67.1505" rx="28.6953" ry="18"/>
<text text-anchor="middle" x="285.147" y="-63.4505" font-family="Times,serif" font-size="14.00">8870</text>
</a>
</g>
</g>
<!-- 8870&#45;&gt;13840 -->
<g id="edge52" class="edge"><title>8870&#45;&gt;13840</title>
<path fill="none" stroke="black" d="M298.296,-83.3153C318.402,-108.034 356.598,-154.992 377,-180.074"/>
</g>
<!-- 9609 -->
<g id="node27" class="node"><title>9609</title>
<g id="a_node27"><a xlink:title="3rd_week">
<ellipse fill="#ee9898" stroke="black" cx="369.489" cy="-29.4294" rx="28.6953" ry="18"/>
<text text-anchor="middle" x="369.489" y="-25.7294" font-family="Times,serif" font-size="14.00">9609</text>
</a>
</g>
</g>
<!-- 9609&#45;&gt;13840 -->
<g id="edge12" class="edge"><title>9609&#45;&gt;13840</title>
<path fill="none" stroke="black" d="M371.794,-47.6655C375.875,-79.9558 384.323,-146.801 388.379,-178.894"/>
</g>
<!-- 10106 -->
<g id="node30" class="node"><title>10106</title>
<g id="a_node30"><a xlink:title="3rd_week">
<ellipse fill="#ee9898" stroke="black" cx="999.183" cy="-320.988" rx="32.4942" ry="18"/>
<text text-anchor="middle" x="999.183" y="-317.288" font-family="Times,serif" font-size="14.00">10106</text>
</a>
</g>
</g>
<!-- 10106&#45;&gt;14166 -->
<g id="edge46" class="edge"><title>10106&#45;&gt;14166</title>
<path fill="none" stroke="black" d="M972.739,-331.871C936.466,-346.799 871.443,-373.559 833.301,-389.256"/>
</g>
<!-- 10405 -->
<g id="node33" class="node"><title>10405</title>
<g id="a_node33"><a xlink:title="6th_week">
<ellipse fill="#c81d25" stroke="black" cx="677.877" cy="-741.939" rx="32.4942" ry="18"/>
<text text-anchor="middle" x="677.877" y="-738.239" font-family="Times,serif" font-size="14.00">10405</text>
</a>
</g>
</g>
<!-- 10405&#45;&gt;13256 -->
<g id="edge29" class="edge"><title>10405&#45;&gt;13256</title>
<path fill="none" stroke="black" d="M660.937,-726.384C639.232,-706.453 601.822,-672.101 580.084,-652.14"/>
</g>
<!-- 15832 -->
<g id="node49" class="node"><title>15832</title>
<g id="a_node49"><a xlink:title="3rd_week">
<ellipse fill="#ee9898" stroke="black" cx="425.979" cy="-746.61" rx="32.4942" ry="18"/>
<text text-anchor="middle" x="425.979" y="-742.91" font-family="Times,serif" font-size="14.00">15832</text>
</a>
</g>
</g>
<!-- 10444&#45;&gt;15832 -->
<g id="edge14" class="edge"><title>10444&#45;&gt;15832</title>
<path fill="none" stroke="black" d="M448.784,-610.837C443.836,-640.296 434.039,-698.621 429.052,-728.315"/>
</g>
<!-- 12208 -->
<g id="node40" class="node"><title>12208</title>
<g id="a_node40"><a xlink:title="6th_week">
<ellipse fill="#c81d25" stroke="black" cx="138.022" cy="-599.187" rx="32.4942" ry="18"/>
<text text-anchor="middle" x="138.022" y="-595.487" font-family="Times,serif" font-size="14.00">12208</text>
</a>
</g>
</g>
<!-- 11617&#45;&gt;12208 -->
<g id="edge44" class="edge"><title>11617&#45;&gt;12208</title>
<path fill="none" stroke="black" d="M236.566,-507.95C214.584,-528.302 176.606,-563.464 154.774,-583.678"/>
</g>
<!-- 12970 -->
<g id="node43" class="node"><title>12970</title>
<g id="a_node43"><a xlink:title="3rd_week">
<ellipse fill="#ee9898" stroke="black" cx="106.02" cy="-553.768" rx="32.4942" ry="18"/>
<text text-anchor="middle" x="106.02" y="-550.068" font-family="Times,serif" font-size="14.00">12970</text>
</a>
</g>
</g>
<!-- 11617&#45;&gt;12970 -->
<g id="edge7" class="edge"><title>11617&#45;&gt;12970</title>
<path fill="none" stroke="black" d="M227.575,-503.03C200.76,-514.223 159.206,-531.568 132.305,-542.797"/>
</g>
<!-- 1039 -->
<g id="node54" class="node"><title>1039</title>
<g id="a_node54"><a xlink:title="3rd_week">
<ellipse fill="#ee9898" stroke="black" cx="100.455" cy="-499.152" rx="28.6953" ry="18"/>
<text text-anchor="middle" x="100.455" y="-495.452" font-family="Times,serif" font-size="14.00">1039</text>
</a>
</g>
</g>
<!-- 11617&#45;&gt;1039 -->
<g id="edge37" class="edge"><title>11617&#45;&gt;1039</title>
<path fill="none" stroke="black" d="M221.141,-493.64C193.83,-494.887 155.17,-496.653 129.024,-497.847"/>
</g>
<!-- 12132 -->
<g id="node39" class="node"><title>12132</title>
<g id="a_node39"><a xlink:title="3rd_week">
<ellipse fill="#ee9898" stroke="black" cx="116.621" cy="-372.157" rx="32.4942" ry="18"/>
<text text-anchor="middle" x="116.621" y="-368.457" font-family="Times,serif" font-size="14.00">12132</text>
</a>
</g>
</g>
<!-- 12132&#45;&gt;12743 -->
<g id="edge30" class="edge"><title>12132&#45;&gt;12743</title>
<path fill="none" stroke="black" d="M148.661,-375.439C175.66,-378.205 214.097,-382.142 241.084,-384.906"/>
</g>
<!-- 16011 -->
<g id="node52" class="node"><title>16011</title>
<g id="a_node52"><a xlink:title="6th_week">
<ellipse fill="#c81d25" stroke="black" cx="618.936" cy="-791.235" rx="32.4942" ry="18"/>
<text text-anchor="middle" x="618.936" y="-787.535" font-family="Times,serif" font-size="14.00">16011</text>
</a>
</g>
</g>
<!-- 13256&#45;&gt;16011 -->
<g id="edge51" class="edge"><title>13256&#45;&gt;16011</title>
<path fill="none" stroke="black" d="M569.483,-654.269C580.201,-683.954 601.648,-743.354 612.431,-773.217"/>
</g>
<!-- 13738 -->
<g id="node45" class="node"><title>13738</title>
<g id="a_node45"><a xlink:title="3rd_week">
<ellipse fill="#ee9898" stroke="black" cx="931.82" cy="-423.455" rx="32.4942" ry="18"/>
<text text-anchor="middle" x="931.82" y="-419.755" font-family="Times,serif" font-size="14.00">13738</text>
</a>
</g>
</g>
<!-- 13738&#45;&gt;14166 -->
<g id="edge31" class="edge"><title>13738&#45;&gt;14166</title>
<path fill="none" stroke="black" d="M900.662,-418.184C881.912,-415.013 857.987,-410.966 838.522,-407.674"/>
</g>
<!-- 14409 -->
<g id="node48" class="node"><title>14409</title>
<g id="a_node48"><a xlink:title="3rd_week">
<ellipse fill="#ee9898" stroke="black" cx="932.521" cy="-492.859" rx="32.4942" ry="18"/>
<text text-anchor="middle" x="932.521" y="-489.159" font-family="Times,serif" font-size="14.00">14409</text>
</a>
</g>
</g>
<!-- 14166&#45;&gt;14409 -->
<g id="edge43" class="edge"><title>14166&#45;&gt;14409</title>
<path fill="none" stroke="black" d="M826.842,-418.406C851.36,-435.68 889.21,-462.346 912.335,-478.638"/>
</g>
<!-- 16126 -->
<g id="node53" class="node"><title>16126</title>
<g id="a_node53"><a xlink:title="3rd_week">
<ellipse fill="#ee9898" stroke="black" cx="887.414" cy="-554.9" rx="32.4942" ry="18"/>
<text text-anchor="middle" x="887.414" y="-551.2" font-family="Times,serif" font-size="14.00">16126</text>
</a>
</g>
</g>
<!-- 14166&#45;&gt;16126 -->
<g id="edge6" class="edge"><title>14166&#45;&gt;16126</title>
<path fill="none" stroke="black" d="M814.652,-422.666C831.428,-453.155 862.237,-509.145 877.831,-537.485"/>
</g>
</g>
</svg>
