<?xml version="1.0" encoding="UTF-8" standalone="no"?>
<!DOCTYPE svg PUBLIC "-//W3C//DTD SVG 1.1//EN"
 "http://www.w3.org/Graphics/SVG/1.1/DTD/svg11.dtd">
<!-- Generated by graphviz version 2.38.0 (20140413.2041)
 -->
<!-- Title: %3 Pages: 1 -->
<svg width="1256pt" height="1620pt"
 viewBox="0.00 0.00 1256.00 1620.00" xmlns="http://www.w3.org/2000/svg" xmlns:xlink="http://www.w3.org/1999/xlink">
<g id="graph0" class="graph" transform="scale(1 1) rotate(0) translate(4 1616)">
<title>%3</title>
<polygon fill="white" stroke="none" points="-4,4 -4,-1616 1252,-1616 1252,4 -4,4"/>
<!-- 356 -->
<g id="node1" class="node"><title>356</title>
<g id="a_node1"><a xlink:title="3rd_week">
<ellipse fill="#ee9898" stroke="black" cx="26.9311" cy="-753.847" rx="27" ry="18"/>
<text text-anchor="middle" x="26.9311" y="-750.147" font-family="Times,serif" font-size="14.00">356</text>
</a>
</g>
</g>
<!-- 31534 -->
<g id="node38" class="node"><title>31534</title>
<g id="a_node38"><a xlink:title="3rd_week">
<ellipse fill="#ee9898" stroke="black" cx="280.94" cy="-852.021" rx="32.4942" ry="18"/>
<text text-anchor="middle" x="280.94" y="-848.321" font-family="Times,serif" font-size="14.00">31534</text>
</a>
</g>
</g>
<!-- 356&#45;&gt;31534 -->
<g id="edge16" class="edge"><title>356&#45;&gt;31534</title>
<path fill="none" stroke="black" d="M50.3723,-762.907C97.6567,-781.182 204.201,-822.361 254.147,-841.666"/>
</g>
<!-- 764 -->
<g id="node2" class="node"><title>764</title>
<g id="a_node2"><a xlink:title="3rd_week">
<ellipse fill="#ee9898" stroke="black" cx="599.026" cy="-1175.39" rx="27" ry="18"/>
<text text-anchor="middle" x="599.026" y="-1171.69" font-family="Times,serif" font-size="14.00">764</text>
</a>
</g>
</g>
<!-- 44084 -->
<g id="node50" class="node"><title>44084</title>
<g id="a_node50"><a xlink:title="3rd_week">
<ellipse fill="#ee9898" stroke="black" cx="605.119" cy="-980.784" rx="32.4942" ry="18"/>
<text text-anchor="middle" x="605.119" y="-977.084" font-family="Times,serif" font-size="14.00">44084</text>
</a>
</g>
</g>
<!-- 764&#45;&gt;44084 -->
<g id="edge49" class="edge"><title>764&#45;&gt;44084</title>
<path fill="none" stroke="black" d="M599.599,-1157.08C600.764,-1119.89 603.393,-1035.92 604.552,-998.901"/>
</g>
<!-- 1257 -->
<g id="node3" class="node"><title>1257</title>
<g id="a_node3"><a xlink:title="3rd_week">
<ellipse fill="#ee9898" stroke="black" cx="974.189" cy="-1059.02" rx="28.6953" ry="18"/>
<text text-anchor="middle" x="974.189" y="-1055.32" font-family="Times,serif" font-size="14.00">1257</text>
</a>
</g>
</g>
<!-- 31382 -->
<g id="node37" class="node"><title>31382</title>
<g id="a_node37"><a xlink:title="3rd_week">
<ellipse fill="#ee9898" stroke="black" cx="1215.18" cy="-1110.32" rx="32.4942" ry="18"/>
<text text-anchor="middle" x="1215.18" y="-1106.62" font-family="Times,serif" font-size="14.00">31382</text>
</a>
</g>
</g>
<!-- 1257&#45;&gt;31382 -->
<g id="edge13" class="edge"><title>1257&#45;&gt;31382</title>
<path fill="none" stroke="black" d="M1001.37,-1064.81C1046.66,-1074.45 1137.3,-1093.75 1184.7,-1103.84"/>
</g>
<!-- 1257&#45;&gt;44084 -->
<g id="edge1" class="edge"><title>1257&#45;&gt;44084</title>
<path fill="none" stroke="black" d="M947.05,-1053.27C879.88,-1039.03 706.215,-1002.22 635.627,-987.252"/>
</g>
<!-- 1987 -->
<g id="node4" class="node"><title>1987</title>
<g id="a_node4"><a xlink:title="3rd_week">
<ellipse fill="#ee9898" stroke="black" cx="704.417" cy="-1593.86" rx="28.6953" ry="18"/>
<text text-anchor="middle" x="704.417" y="-1590.16" font-family="Times,serif" font-size="14.00">1987</text>
</a>
</g>
</g>
<!-- 43553 -->
<g id="node48" class="node"><title>43553</title>
<g id="a_node48"><a xlink:title="3rd_week">
<ellipse fill="#ee9898" stroke="black" cx="664.731" cy="-1347.22" rx="32.4942" ry="18"/>
<text text-anchor="middle" x="664.731" y="-1343.52" font-family="Times,serif" font-size="14.00">43553</text>
</a>
</g>
</g>
<!-- 1987&#45;&gt;43553 -->
<g id="edge22" class="edge"><title>1987&#45;&gt;43553</title>
<path fill="none" stroke="black" d="M701.499,-1575.72C694.16,-1530.11 674.997,-1411.02 667.653,-1365.38"/>
</g>
<!-- 2610 -->
<g id="node5" class="node"><title>2610</title>
<g id="a_node5"><a xlink:title="3rd_week">
<ellipse fill="#ee9898" stroke="black" cx="738.656" cy="-730.116" rx="28.6953" ry="18"/>
<text text-anchor="middle" x="738.656" y="-726.416" font-family="Times,serif" font-size="14.00">2610</text>
</a>
</g>
</g>
<!-- 2610&#45;&gt;44084 -->
<g id="edge7" class="edge"><title>2610&#45;&gt;44084</title>
<path fill="none" stroke="black" d="M729.478,-747.346C705.083,-793.139 638.83,-917.503 614.362,-963.434"/>
</g>
<!-- 3026 -->
<g id="node6" class="node"><title>3026</title>
<g id="a_node6"><a xlink:title="3rd_week">
<ellipse fill="#ee9898" stroke="black" cx="410.468" cy="-997.938" rx="28.6953" ry="18"/>
<text text-anchor="middle" x="410.468" y="-994.238" font-family="Times,serif" font-size="14.00">3026</text>
</a>
</g>
</g>
<!-- 3026&#45;&gt;44084 -->
<g id="edge10" class="edge"><title>3026&#45;&gt;44084</title>
<path fill="none" stroke="black" d="M439.19,-995.407C474.828,-992.266 535.438,-986.925 572.707,-983.64"/>
</g>
<!-- 3467 -->
<g id="node7" class="node"><title>3467</title>
<g id="a_node7"><a xlink:title="3rd_week">
<ellipse fill="#ee9898" stroke="black" cx="389.509" cy="-824.784" rx="28.6953" ry="18"/>
<text text-anchor="middle" x="389.509" y="-821.084" font-family="Times,serif" font-size="14.00">3467</text>
</a>
</g>
</g>
<!-- 3467&#45;&gt;44084 -->
<g id="edge34" class="edge"><title>3467&#45;&gt;44084</title>
<path fill="none" stroke="black" d="M408.643,-838.628C449.249,-868.008 543.709,-936.352 585.092,-966.294"/>
</g>
<!-- 3857 -->
<g id="node8" class="node"><title>3857</title>
<g id="a_node8"><a xlink:title="3rd_week">
<ellipse fill="#ee9898" stroke="black" cx="428.062" cy="-761.223" rx="28.6953" ry="18"/>
<text text-anchor="middle" x="428.062" y="-757.523" font-family="Times,serif" font-size="14.00">3857</text>
</a>
</g>
</g>
<!-- 3857&#45;&gt;44084 -->
<g id="edge3" class="edge"><title>3857&#45;&gt;44084</title>
<path fill="none" stroke="black" d="M441.082,-777.367C473.745,-817.872 558.9,-923.47 591.84,-964.317"/>
</g>
<!-- 4145 -->
<g id="node9" class="node"><title>4145</title>
<g id="a_node9"><a xlink:title="3rd_week">
<ellipse fill="#ee9898" stroke="black" cx="496.793" cy="-728.828" rx="28.6953" ry="18"/>
<text text-anchor="middle" x="496.793" y="-725.128" font-family="Times,serif" font-size="14.00">4145</text>
</a>
</g>
</g>
<!-- 4145&#45;&gt;44084 -->
<g id="edge30" class="edge"><title>4145&#45;&gt;44084</title>
<path fill="none" stroke="black" d="M504.41,-746.545C524.3,-792.806 577.63,-916.847 597.51,-963.086"/>
</g>
<!-- 4689 -->
<g id="node10" class="node"><title>4689</title>
<g id="a_node10"><a xlink:title="3rd_week">
<ellipse fill="#ee9898" stroke="black" cx="735.023" cy="-803.169" rx="28.6953" ry="18"/>
<text text-anchor="middle" x="735.023" y="-799.469" font-family="Times,serif" font-size="14.00">4689</text>
</a>
</g>
</g>
<!-- 4689&#45;&gt;44084 -->
<g id="edge27" class="edge"><title>4689&#45;&gt;44084</title>
<path fill="none" stroke="black" d="M723.035,-819.56C698.413,-853.225 642.373,-929.847 617.457,-963.914"/>
</g>
<!-- 5744 -->
<g id="node11" class="node"><title>5744</title>
<g id="a_node11"><a xlink:title="3rd_week">
<ellipse fill="#ee9898" stroke="black" cx="648.974" cy="-785.037" rx="28.6953" ry="18"/>
<text text-anchor="middle" x="648.974" y="-781.337" font-family="Times,serif" font-size="14.00">5744</text>
</a>
</g>
</g>
<!-- 5744&#45;&gt;44084 -->
<g id="edge41" class="edge"><title>5744&#45;&gt;44084</title>
<path fill="none" stroke="black" d="M644.926,-803.102C636.572,-840.392 617.502,-925.51 609.156,-962.763"/>
</g>
<!-- 7028 -->
<g id="node12" class="node"><title>7028</title>
<g id="a_node12"><a xlink:title="3rd_week">
<ellipse fill="#ee9898" stroke="black" cx="819.191" cy="-1020.55" rx="28.6953" ry="18"/>
<text text-anchor="middle" x="819.191" y="-1016.85" font-family="Times,serif" font-size="14.00">7028</text>
</a>
</g>
</g>
<!-- 7028&#45;&gt;44084 -->
<g id="edge29" class="edge"><title>7028&#45;&gt;44084</title>
<path fill="none" stroke="black" d="M791.643,-1015.44C751.668,-1008.01 677.804,-994.287 636.024,-986.525"/>
</g>
<!-- 7929 -->
<g id="node13" class="node"><title>7929</title>
<g id="a_node13"><a xlink:title="3rd_week">
<ellipse fill="#ee9898" stroke="black" cx="812.986" cy="-1207.54" rx="28.6953" ry="18"/>
<text text-anchor="middle" x="812.986" y="-1203.84" font-family="Times,serif" font-size="14.00">7929</text>
</a>
</g>
</g>
<!-- 7929&#45;&gt;44084 -->
<g id="edge21" class="edge"><title>7929&#45;&gt;44084</title>
<path fill="none" stroke="black" d="M798.369,-1191.6C760.295,-1150.06 658.363,-1038.87 619.998,-997.015"/>
</g>
<!-- 7934 -->
<g id="node14" class="node"><title>7934</title>
<g id="a_node14"><a xlink:title="3rd_week">
<ellipse fill="#ee9898" stroke="black" cx="728.216" cy="-1176.7" rx="28.6953" ry="18"/>
<text text-anchor="middle" x="728.216" y="-1173" font-family="Times,serif" font-size="14.00">7934</text>
</a>
</g>
</g>
<!-- 7934&#45;&gt;44084 -->
<g id="edge20" class="edge"><title>7934&#45;&gt;44084</title>
<path fill="none" stroke="black" d="M717.508,-1159.66C694.227,-1122.6 639.228,-1035.07 615.891,-997.927"/>
</g>
<!-- 9079 -->
<g id="node15" class="node"><title>9079</title>
<g id="a_node15"><a xlink:title="3rd_week">
<ellipse fill="#ee9898" stroke="black" cx="116.148" cy="-1376.88" rx="28.6953" ry="18"/>
<text text-anchor="middle" x="116.148" y="-1373.18" font-family="Times,serif" font-size="14.00">9079</text>
</a>
</g>
</g>
<!-- 40667 -->
<g id="node41" class="node"><title>40667</title>
<g id="a_node41"><a xlink:title="3rd_week">
<ellipse fill="#ee9898" stroke="black" cx="331.569" cy="-1207.86" rx="32.4942" ry="18"/>
<text text-anchor="middle" x="331.569" y="-1204.16" font-family="Times,serif" font-size="14.00">40667</text>
</a>
</g>
</g>
<!-- 9079&#45;&gt;40667 -->
<g id="edge25" class="edge"><title>9079&#45;&gt;40667</title>
<path fill="none" stroke="black" d="M134.144,-1362.76C174.391,-1331.18 271.363,-1255.09 312.551,-1222.78"/>
</g>
<!-- 10096 -->
<g id="node16" class="node"><title>10096</title>
<g id="a_node16"><a xlink:title="3rd_week">
<ellipse fill="#ee9898" stroke="black" cx="781.225" cy="-864.208" rx="32.4942" ry="18"/>
<text text-anchor="middle" x="781.225" y="-860.508" font-family="Times,serif" font-size="14.00">10096</text>
</a>
</g>
</g>
<!-- 10096&#45;&gt;44084 -->
<g id="edge31" class="edge"><title>10096&#45;&gt;44084</title>
<path fill="none" stroke="black" d="M760.332,-878.039C726.439,-900.475 659.861,-944.547 625.985,-966.971"/>
</g>
<!-- 10641 -->
<g id="node17" class="node"><title>10641</title>
<g id="a_node17"><a xlink:title="3rd_week">
<ellipse fill="#ee9898" stroke="black" cx="789.061" cy="-1113.97" rx="32.4942" ry="18"/>
<text text-anchor="middle" x="789.061" y="-1110.27" font-family="Times,serif" font-size="14.00">10641</text>
</a>
</g>
</g>
<!-- 10641&#45;&gt;44084 -->
<g id="edge18" class="edge"><title>10641&#45;&gt;44084</title>
<path fill="none" stroke="black" d="M769.026,-1099.46C733.643,-1073.84 660.495,-1020.88 625.129,-995.272"/>
</g>
<!-- 10761 -->
<g id="node18" class="node"><title>10761</title>
<g id="a_node18"><a xlink:title="3rd_week">
<ellipse fill="#ee9898" stroke="black" cx="524.428" cy="-1185.22" rx="32.4942" ry="18"/>
<text text-anchor="middle" x="524.428" y="-1181.52" font-family="Times,serif" font-size="14.00">10761</text>
</a>
</g>
</g>
<!-- 10761&#45;&gt;44084 -->
<g id="edge14" class="edge"><title>10761&#45;&gt;44084</title>
<path fill="none" stroke="black" d="M531.448,-1167.44C546.747,-1128.68 582.942,-1036.97 598.173,-998.382"/>
</g>
<!-- 12359 -->
<g id="node19" class="node"><title>12359</title>
<g id="a_node19"><a xlink:title="3rd_week">
<ellipse fill="#ee9898" stroke="black" cx="701.851" cy="-18.2575" rx="32.4942" ry="18"/>
<text text-anchor="middle" x="701.851" y="-14.5575" font-family="Times,serif" font-size="14.00">12359</text>
</a>
</g>
</g>
<!-- 13326 -->
<g id="node21" class="node"><title>13326</title>
<g id="a_node21"><a xlink:title="3rd_week">
<ellipse fill="#ee9898" stroke="black" cx="723.35" cy="-244.423" rx="32.4942" ry="18"/>
<text text-anchor="middle" x="723.35" y="-240.723" font-family="Times,serif" font-size="14.00">13326</text>
</a>
</g>
</g>
<!-- 12359&#45;&gt;13326 -->
<g id="edge33" class="edge"><title>12359&#45;&gt;13326</title>
<path fill="none" stroke="black" d="M703.574,-36.3833C707.599,-78.7309 717.585,-183.778 721.619,-226.211"/>
</g>
<!-- 13252 -->
<g id="node20" class="node"><title>13252</title>
<g id="a_node20"><a xlink:title="3rd_week">
<ellipse fill="#ee9898" stroke="black" cx="811.455" cy="-938.127" rx="32.4942" ry="18"/>
<text text-anchor="middle" x="811.455" y="-934.427" font-family="Times,serif" font-size="14.00">13252</text>
</a>
</g>
</g>
<!-- 13252&#45;&gt;44084 -->
<g id="edge6" class="edge"><title>13252&#45;&gt;44084</title>
<path fill="none" stroke="black" d="M780.564,-944.513C741.553,-952.578 674.834,-966.371 635.883,-974.424"/>
</g>
<!-- 41718 -->
<g id="node44" class="node"><title>41718</title>
<g id="a_node44"><a xlink:title="3rd_week">
<ellipse fill="#ee9898" stroke="black" cx="811.599" cy="-37.9281" rx="32.4942" ry="18"/>
<text text-anchor="middle" x="811.599" y="-34.2281" font-family="Times,serif" font-size="14.00">41718</text>
</a>
</g>
</g>
<!-- 13326&#45;&gt;41718 -->
<g id="edge19" class="edge"><title>13326&#45;&gt;41718</title>
<path fill="none" stroke="black" d="M730.874,-226.817C747.547,-187.805 787.439,-94.4605 804.094,-55.4892"/>
</g>
<!-- 42836 -->
<g id="node45" class="node"><title>42836</title>
<g id="a_node45"><a xlink:title="3rd_week">
<ellipse fill="#ee9898" stroke="black" cx="672.495" cy="-585.612" rx="32.4942" ry="18"/>
<text text-anchor="middle" x="672.495" y="-581.912" font-family="Times,serif" font-size="14.00">42836</text>
</a>
</g>
</g>
<!-- 13326&#45;&gt;42836 -->
<g id="edge47" class="edge"><title>13326&#45;&gt;42836</title>
<path fill="none" stroke="black" d="M720.616,-262.767C711.765,-322.147 683.962,-508.676 675.181,-567.591"/>
</g>
<!-- 14166 -->
<g id="node22" class="node"><title>14166</title>
<g id="a_node22"><a xlink:title="3rd_week">
<ellipse fill="#ee9898" stroke="black" cx="881.69" cy="-1076.18" rx="32.4942" ry="18"/>
<text text-anchor="middle" x="881.69" y="-1072.48" font-family="Times,serif" font-size="14.00">14166</text>
</a>
</g>
</g>
<!-- 14166&#45;&gt;44084 -->
<g id="edge42" class="edge"><title>14166&#45;&gt;44084</title>
<path fill="none" stroke="black" d="M853.905,-1066.6C800.893,-1048.31 685.883,-1008.64 632.885,-990.362"/>
</g>
<!-- 14207 -->
<g id="node23" class="node"><title>14207</title>
<g id="a_node23"><a xlink:title="3rd_week">
<ellipse fill="#ee9898" stroke="black" cx="326.014" cy="-974.754" rx="32.4942" ry="18"/>
<text text-anchor="middle" x="326.014" y="-971.054" font-family="Times,serif" font-size="14.00">14207</text>
</a>
</g>
</g>
<!-- 14207&#45;&gt;44084 -->
<g id="edge5" class="edge"><title>14207&#45;&gt;44084</title>
<path fill="none" stroke="black" d="M358.577,-975.458C412.214,-976.617 518.549,-978.914 572.332,-980.076"/>
</g>
<!-- 20519 -->
<g id="node24" class="node"><title>20519</title>
<g id="a_node24"><a xlink:title="3rd_week">
<ellipse fill="#ee9898" stroke="black" cx="677.684" cy="-1221.35" rx="32.4942" ry="18"/>
<text text-anchor="middle" x="677.684" y="-1217.65" font-family="Times,serif" font-size="14.00">20519</text>
</a>
</g>
</g>
<!-- 20519&#45;&gt;44084 -->
<g id="edge24" class="edge"><title>20519&#45;&gt;44084</title>
<path fill="none" stroke="black" d="M672.23,-1203.27C658.749,-1158.58 623.981,-1043.31 610.537,-998.747"/>
</g>
<!-- 21528 -->
<g id="node25" class="node"><title>21528</title>
<g id="a_node25"><a xlink:title="3rd_week">
<ellipse fill="#ee9898" stroke="black" cx="431.181" cy="-896.423" rx="32.4942" ry="18"/>
<text text-anchor="middle" x="431.181" y="-892.723" font-family="Times,serif" font-size="14.00">21528</text>
</a>
</g>
</g>
<!-- 21528&#45;&gt;44084 -->
<g id="edge2" class="edge"><title>21528&#45;&gt;44084</title>
<path fill="none" stroke="black" d="M455.733,-908.331C488.79,-924.364 547.274,-952.729 580.411,-968.8"/>
</g>
<!-- 21822 -->
<g id="node26" class="node"><title>21822</title>
<g id="a_node26"><a xlink:title="3rd_week">
<ellipse fill="#ee9898" stroke="black" cx="864.531" cy="-1152.73" rx="32.4942" ry="18"/>
<text text-anchor="middle" x="864.531" y="-1149.03" font-family="Times,serif" font-size="14.00">21822</text>
</a>
</g>
</g>
<!-- 21822&#45;&gt;44084 -->
<g id="edge46" class="edge"><title>21822&#45;&gt;44084</title>
<path fill="none" stroke="black" d="M843.302,-1138.66C794.537,-1106.34 674.974,-1027.09 626.277,-994.808"/>
</g>
<!-- 22430 -->
<g id="node27" class="node"><title>22430</title>
<g id="a_node27"><a xlink:title="3rd_week">
<ellipse fill="#ee9898" stroke="black" cx="820.648" cy="-762.947" rx="32.4942" ry="18"/>
<text text-anchor="middle" x="820.648" y="-759.247" font-family="Times,serif" font-size="14.00">22430</text>
</a>
</g>
</g>
<!-- 22430&#45;&gt;44084 -->
<g id="edge23" class="edge"><title>22430&#45;&gt;44084</title>
<path fill="none" stroke="black" d="M804.799,-778.965C764.941,-819.25 660.873,-924.433 620.991,-964.742"/>
</g>
<!-- 22541 -->
<g id="node28" class="node"><title>22541</title>
<g id="a_node28"><a xlink:title="3rd_week">
<ellipse fill="#ee9898" stroke="black" cx="332.319" cy="-1043.77" rx="32.4942" ry="18"/>
<text text-anchor="middle" x="332.319" y="-1040.07" font-family="Times,serif" font-size="14.00">22541</text>
</a>
</g>
</g>
<!-- 22541&#45;&gt;44084 -->
<g id="edge8" class="edge"><title>22541&#45;&gt;44084</title>
<path fill="none" stroke="black" d="M362.556,-1036.79C414.994,-1024.68 522.215,-999.924 574.747,-987.796"/>
</g>
<!-- 22769 -->
<g id="node29" class="node"><title>22769</title>
<g id="a_node29"><a xlink:title="3rd_week">
<ellipse fill="#ee9898" stroke="black" cx="524.358" cy="-1273.18" rx="32.4942" ry="18"/>
<text text-anchor="middle" x="524.358" y="-1269.48" font-family="Times,serif" font-size="14.00">22769</text>
</a>
</g>
</g>
<!-- 22769&#45;&gt;44084 -->
<g id="edge48" class="edge"><title>22769&#45;&gt;44084</title>
<path fill="none" stroke="black" d="M529.288,-1255.33C543.706,-1203.13 585.684,-1051.15 600.15,-998.773"/>
</g>
<!-- 24248 -->
<g id="node30" class="node"><title>24248</title>
<g id="a_node30"><a xlink:title="3rd_week">
<ellipse fill="#ee9898" stroke="black" cx="656.783" cy="-710.242" rx="32.4942" ry="18"/>
<text text-anchor="middle" x="656.783" y="-706.542" font-family="Times,serif" font-size="14.00">24248</text>
</a>
</g>
</g>
<!-- 24248&#45;&gt;44084 -->
<g id="edge28" class="edge"><title>24248&#45;&gt;44084</title>
<path fill="none" stroke="black" d="M653.313,-728.414C643.901,-777.699 617.968,-913.499 608.574,-962.692"/>
</g>
<!-- 24388 -->
<g id="node31" class="node"><title>24388</title>
<g id="a_node31"><a xlink:title="3rd_week">
<ellipse fill="#ee9898" stroke="black" cx="562.118" cy="-775.7" rx="32.4942" ry="18"/>
<text text-anchor="middle" x="562.118" y="-772" font-family="Times,serif" font-size="14.00">24388</text>
</a>
</g>
</g>
<!-- 24388&#45;&gt;44084 -->
<g id="edge11" class="edge"><title>24388&#45;&gt;44084</title>
<path fill="none" stroke="black" d="M565.934,-793.899C574.095,-832.818 593.159,-923.743 601.312,-962.625"/>
</g>
<!-- 25640 -->
<g id="node32" class="node"><title>25640</title>
<g id="a_node32"><a xlink:title="3rd_week">
<ellipse fill="#ee9898" stroke="black" cx="416.115" cy="-1162.93" rx="32.4942" ry="18"/>
<text text-anchor="middle" x="416.115" y="-1159.23" font-family="Times,serif" font-size="14.00">25640</text>
</a>
</g>
</g>
<!-- 25640&#45;&gt;44084 -->
<g id="edge26" class="edge"><title>25640&#45;&gt;44084</title>
<path fill="none" stroke="black" d="M432.557,-1147.08C468.392,-1112.55 553.172,-1030.85 588.849,-996.463"/>
</g>
<!-- 26163 -->
<g id="node33" class="node"><title>26163</title>
<g id="a_node33"><a xlink:title="3rd_week">
<ellipse fill="#ee9898" stroke="black" cx="906.432" cy="-891.94" rx="32.4942" ry="18"/>
<text text-anchor="middle" x="906.432" y="-888.24" font-family="Times,serif" font-size="14.00">26163</text>
</a>
</g>
</g>
<!-- 26163&#45;&gt;44084 -->
<g id="edge36" class="edge"><title>26163&#45;&gt;44084</title>
<path fill="none" stroke="black" d="M877.541,-900.458C819.948,-917.44 691.444,-955.33 633.923,-972.291"/>
</g>
<!-- 27711 -->
<g id="node34" class="node"><title>27711</title>
<g id="a_node34"><a xlink:title="3rd_week">
<ellipse fill="#ee9898" stroke="black" cx="753.749" cy="-1259.76" rx="32.4942" ry="18"/>
<text text-anchor="middle" x="753.749" y="-1256.06" font-family="Times,serif" font-size="14.00">27711</text>
</a>
</g>
</g>
<!-- 27711&#45;&gt;44084 -->
<g id="edge40" class="edge"><title>27711&#45;&gt;44084</title>
<path fill="none" stroke="black" d="M744.452,-1242.31C717.76,-1192.21 641.101,-1048.32 614.413,-998.228"/>
</g>
<!-- 29931 -->
<g id="node35" class="node"><title>29931</title>
<g id="a_node35"><a xlink:title="3rd_week">
<ellipse fill="#ee9898" stroke="black" cx="571.425" cy="-703.571" rx="32.4942" ry="18"/>
<text text-anchor="middle" x="571.425" y="-699.871" font-family="Times,serif" font-size="14.00">29931</text>
</a>
</g>
</g>
<!-- 29931&#45;&gt;44084 -->
<g id="edge43" class="edge"><title>29931&#45;&gt;44084</title>
<path fill="none" stroke="black" d="M573.636,-721.76C579.741,-771.989 596.785,-912.219 602.9,-962.528"/>
</g>
<!-- 30667 -->
<g id="node36" class="node"><title>30667</title>
<g id="a_node36"><a xlink:title="3rd_week">
<ellipse fill="#ee9898" stroke="black" cx="904.415" cy="-979.171" rx="32.4942" ry="18"/>
<text text-anchor="middle" x="904.415" y="-975.471" font-family="Times,serif" font-size="14.00">30667</text>
</a>
</g>
</g>
<!-- 30667&#45;&gt;44084 -->
<g id="edge9" class="edge"><title>30667&#45;&gt;44084</title>
<path fill="none" stroke="black" d="M871.815,-979.346C814.243,-979.657 695.222,-980.298 637.678,-980.608"/>
</g>
<!-- 31534&#45;&gt;44084 -->
<g id="edge12" class="edge"><title>31534&#45;&gt;44084</title>
<path fill="none" stroke="black" d="M307.469,-862.558C368.41,-886.764 517.823,-946.11 578.678,-970.282"/>
</g>
<!-- 33411 -->
<g id="node39" class="node"><title>33411</title>
<g id="a_node39"><a xlink:title="3rd_week">
<ellipse fill="#ee9898" stroke="black" cx="353.626" cy="-906.725" rx="32.4942" ry="18"/>
<text text-anchor="middle" x="353.626" y="-903.025" font-family="Times,serif" font-size="14.00">33411</text>
</a>
</g>
</g>
<!-- 33411&#45;&gt;44084 -->
<g id="edge38" class="edge"><title>33411&#45;&gt;44084</title>
<path fill="none" stroke="black" d="M382.475,-915.221C430.858,-929.468 527.803,-958.016 576.22,-972.274"/>
</g>
<!-- 33700 -->
<g id="node40" class="node"><title>33700</title>
<g id="a_node40"><a xlink:title="3rd_week">
<ellipse fill="#ee9898" stroke="black" cx="875.761" cy="-822.586" rx="32.4942" ry="18"/>
<text text-anchor="middle" x="875.761" y="-818.886" font-family="Times,serif" font-size="14.00">33700</text>
</a>
</g>
</g>
<!-- 33700&#45;&gt;44084 -->
<g id="edge15" class="edge"><title>33700&#45;&gt;44084</title>
<path fill="none" stroke="black" d="M853.151,-835.802C802.08,-865.654 678.302,-938.006 627.474,-967.717"/>
</g>
<!-- 40667&#45;&gt;44084 -->
<g id="edge35" class="edge"><title>40667&#45;&gt;44084</title>
<path fill="none" stroke="black" d="M349.942,-1192.6C399.776,-1151.24 537.086,-1037.26 586.826,-995.969"/>
</g>
<!-- 40757 -->
<g id="node42" class="node"><title>40757</title>
<g id="a_node42"><a xlink:title="3rd_week">
<ellipse fill="#ee9898" stroke="black" cx="363.232" cy="-1104.21" rx="32.4942" ry="18"/>
<text text-anchor="middle" x="363.232" y="-1100.51" font-family="Times,serif" font-size="14.00">40757</text>
</a>
</g>
</g>
<!-- 40757&#45;&gt;44084 -->
<g id="edge39" class="edge"><title>40757&#45;&gt;44084</title>
<path fill="none" stroke="black" d="M387.309,-1091.93C433.674,-1068.27 534.851,-1016.64 581.139,-993.021"/>
</g>
<!-- 41463 -->
<g id="node43" class="node"><title>41463</title>
<g id="a_node43"><a xlink:title="3rd_week">
<ellipse fill="#ee9898" stroke="black" cx="481.163" cy="-815.149" rx="32.4942" ry="18"/>
<text text-anchor="middle" x="481.163" y="-811.449" font-family="Times,serif" font-size="14.00">41463</text>
</a>
</g>
</g>
<!-- 41463&#45;&gt;44084 -->
<g id="edge37" class="edge"><title>41463&#45;&gt;44084</title>
<path fill="none" stroke="black" d="M493.73,-831.943C517.488,-863.689 568.734,-932.165 592.518,-963.946"/>
</g>
<!-- 42836&#45;&gt;44084 -->
<g id="edge17" class="edge"><title>42836&#45;&gt;44084</title>
<path fill="none" stroke="black" d="M669.425,-603.618C658.2,-669.45 619.461,-896.667 608.207,-962.672"/>
</g>
<!-- 43078 -->
<g id="node46" class="node"><title>43078</title>
<g id="a_node46"><a xlink:title="3rd_week">
<ellipse fill="#ee9898" stroke="black" cx="601.194" cy="-1280.99" rx="32.4942" ry="18"/>
<text text-anchor="middle" x="601.194" y="-1277.29" font-family="Times,serif" font-size="14.00">43078</text>
</a>
</g>
</g>
<!-- 43078&#45;&gt;44084 -->
<g id="edge44" class="edge"><title>43078&#45;&gt;44084</title>
<path fill="none" stroke="black" d="M601.433,-1262.66C602.136,-1208.94 604.184,-1052.28 604.882,-998.871"/>
</g>
<!-- 43188 -->
<g id="node47" class="node"><title>43188</title>
<g id="a_node47"><a xlink:title="3rd_week">
<ellipse fill="#ee9898" stroke="black" cx="446.118" cy="-1090.78" rx="32.4942" ry="18"/>
<text text-anchor="middle" x="446.118" y="-1087.08" font-family="Times,serif" font-size="14.00">43188</text>
</a>
</g>
</g>
<!-- 43188&#45;&gt;44084 -->
<g id="edge32" class="edge"><title>43188&#45;&gt;44084</title>
<path fill="none" stroke="black" d="M466.579,-1076.63C497.109,-1055.51 554.252,-1015.97 584.736,-994.885"/>
</g>
<!-- 43553&#45;&gt;44084 -->
<g id="edge45" class="edge"><title>43553&#45;&gt;44084</title>
<path fill="none" stroke="black" d="M661.775,-1329.05C651.626,-1266.66 618.269,-1061.62 608.093,-999.065"/>
</g>
<!-- 43913 -->
<g id="node49" class="node"><title>43913</title>
<g id="a_node49"><a xlink:title="3rd_week">
<ellipse fill="#ee9898" stroke="black" cx="429.362" cy="-1228" rx="32.4942" ry="18"/>
<text text-anchor="middle" x="429.362" y="-1224.3" font-family="Times,serif" font-size="14.00">43913</text>
</a>
</g>
</g>
<!-- 43913&#45;&gt;44084 -->
<g id="edge4" class="edge"><title>43913&#45;&gt;44084</title>
<path fill="none" stroke="black" d="M441.443,-1211.01C473.628,-1165.74 561.171,-1042.6 593.186,-997.568"/>
</g>
</g>
</svg>
