<?xml version="1.0" encoding="UTF-8" standalone="no"?>
<!DOCTYPE svg PUBLIC "-//W3C//DTD SVG 1.1//EN"
 "http://www.w3.org/Graphics/SVG/1.1/DTD/svg11.dtd">
<!-- Generated by graphviz version 2.38.0 (20140413.2041)
 -->
<!-- Title: %3 Pages: 1 -->
<svg width="1699pt" height="2572pt"
 viewBox="0.00 0.00 1699.00 2572.00" xmlns="http://www.w3.org/2000/svg" xmlns:xlink="http://www.w3.org/1999/xlink">
<g id="graph0" class="graph" transform="scale(1 1) rotate(0) translate(4 2568)">
<title>%3</title>
<polygon fill="white" stroke="none" points="-4,4 -4,-2568 1695,-2568 1695,4 -4,4"/>
<!-- 194 -->
<g id="node1" class="node"><title>194</title>
<g id="a_node1"><a xlink:title="6th_week">
<ellipse fill="#c81d25" stroke="black" cx="1316.38" cy="-1880" rx="27" ry="18"/>
<text text-anchor="middle" x="1316.38" y="-1876.3" font-family="Times,serif" font-size="14.00">194</text>
</a>
</g>
</g>
<!-- 4725 -->
<g id="node10" class="node"><title>4725</title>
<g id="a_node10"><a xlink:title="6th_week">
<ellipse fill="#c81d25" stroke="black" cx="1487.1" cy="-1865.17" rx="28.6953" ry="18"/>
<text text-anchor="middle" x="1487.1" y="-1861.47" font-family="Times,serif" font-size="14.00">4725</text>
</a>
</g>
</g>
<!-- 194&#45;&gt;4725 -->
<g id="edge49" class="edge"><title>194&#45;&gt;4725</title>
<path fill="none" stroke="black" d="M1343.43,-1877.65C1374.93,-1874.92 1426.71,-1870.42 1458.75,-1867.63"/>
</g>
<!-- 24273 -->
<g id="node64" class="node"><title>24273</title>
<g id="a_node64"><a xlink:title="6th_week">
<ellipse fill="#c81d25" stroke="black" cx="1086.32" cy="-1902.6" rx="32.4942" ry="18"/>
<text text-anchor="middle" x="1086.32" y="-1898.9" font-family="Times,serif" font-size="14.00">24273</text>
</a>
</g>
</g>
<!-- 194&#45;&gt;24273 -->
<g id="edge71" class="edge"><title>194&#45;&gt;24273</title>
<path fill="none" stroke="black" d="M1289.54,-1882.64C1246.99,-1886.82 1164.2,-1894.95 1118.52,-1899.44"/>
</g>
<!-- 1735 -->
<g id="node2" class="node"><title>1735</title>
<g id="a_node2"><a xlink:title="6th_week">
<ellipse fill="#c81d25" stroke="black" cx="392.675" cy="-1706.44" rx="28.6953" ry="18"/>
<text text-anchor="middle" x="392.675" y="-1702.74" font-family="Times,serif" font-size="14.00">1735</text>
</a>
</g>
</g>
<!-- 17943 -->
<g id="node43" class="node"><title>17943</title>
<g id="a_node43"><a xlink:title="6th_week">
<ellipse fill="#c81d25" stroke="black" cx="497.067" cy="-1582.86" rx="32.4942" ry="18"/>
<text text-anchor="middle" x="497.067" y="-1579.16" font-family="Times,serif" font-size="14.00">17943</text>
</a>
</g>
</g>
<!-- 1735&#45;&gt;17943 -->
<g id="edge21" class="edge"><title>1735&#45;&gt;17943</title>
<path fill="none" stroke="black" d="M406.109,-1690.53C425.933,-1667.07 462.848,-1623.37 483.019,-1599.49"/>
</g>
<!-- 1769 -->
<g id="node3" class="node"><title>1769</title>
<g id="a_node3"><a xlink:title="6th_week">
<ellipse fill="#c81d25" stroke="black" cx="44.1213" cy="-1696.87" rx="28.6953" ry="18"/>
<text text-anchor="middle" x="44.1213" y="-1693.17" font-family="Times,serif" font-size="14.00">1769</text>
</a>
</g>
</g>
<!-- 15583 -->
<g id="node70" class="node"><title>15583</title>
<g id="a_node70"><a xlink:title="6th_week">
<ellipse fill="#c81d25" stroke="black" cx="215.873" cy="-1726.34" rx="32.4942" ry="18"/>
<text text-anchor="middle" x="215.873" y="-1722.64" font-family="Times,serif" font-size="14.00">15583</text>
</a>
</g>
</g>
<!-- 1769&#45;&gt;15583 -->
<g id="edge13" class="edge"><title>1769&#45;&gt;15583</title>
<path fill="none" stroke="black" d="M71.7163,-1701.61C102.534,-1706.9 152.313,-1715.44 184.563,-1720.97"/>
</g>
<!-- 1833 -->
<g id="node4" class="node"><title>1833</title>
<g id="a_node4"><a xlink:title="6th_week">
<ellipse fill="#c81d25" stroke="black" cx="1224.88" cy="-2083.13" rx="28.6953" ry="18"/>
<text text-anchor="middle" x="1224.88" y="-2079.43" font-family="Times,serif" font-size="14.00">1833</text>
</a>
</g>
</g>
<!-- 10412 -->
<g id="node25" class="node"><title>10412</title>
<g id="a_node25"><a xlink:title="6th_week">
<ellipse fill="#c81d25" stroke="black" cx="1329.3" cy="-2229.12" rx="32.4942" ry="18"/>
<text text-anchor="middle" x="1329.3" y="-2225.42" font-family="Times,serif" font-size="14.00">10412</text>
</a>
</g>
</g>
<!-- 1833&#45;&gt;10412 -->
<g id="edge52" class="edge"><title>1833&#45;&gt;10412</title>
<path fill="none" stroke="black" d="M1236.66,-2099.6C1256.6,-2127.48 1296.84,-2183.74 1317.08,-2212.04"/>
</g>
<!-- 1833&#45;&gt;24273 -->
<g id="edge48" class="edge"><title>1833&#45;&gt;24273</title>
<path fill="none" stroke="black" d="M1212.34,-2066.79C1186.09,-2032.6 1125.62,-1953.8 1099.13,-1919.3"/>
</g>
<!-- 2299 -->
<g id="node5" class="node"><title>2299</title>
<g id="a_node5"><a xlink:title="6th_week">
<ellipse fill="#c81d25" stroke="black" cx="1330.53" cy="-2036.13" rx="28.6953" ry="18"/>
<text text-anchor="middle" x="1330.53" y="-2032.43" font-family="Times,serif" font-size="14.00">2299</text>
</a>
</g>
</g>
<!-- 10317 -->
<g id="node24" class="node"><title>10317</title>
<g id="a_node24"><a xlink:title="6th_week">
<ellipse fill="#c81d25" stroke="black" cx="1499.7" cy="-2083.11" rx="32.4942" ry="18"/>
<text text-anchor="middle" x="1499.7" y="-2079.41" font-family="Times,serif" font-size="14.00">10317</text>
</a>
</g>
</g>
<!-- 2299&#45;&gt;10317 -->
<g id="edge18" class="edge"><title>2299&#45;&gt;10317</title>
<path fill="none" stroke="black" d="M1356.97,-2043.47C1387.82,-2052.04 1438.68,-2066.16 1470.62,-2075.04"/>
</g>
<!-- 17734 -->
<g id="node42" class="node"><title>17734</title>
<g id="a_node42"><a xlink:title="6th_week">
<ellipse fill="#c81d25" stroke="black" cx="1500.69" cy="-2165.8" rx="32.4942" ry="18"/>
<text text-anchor="middle" x="1500.69" y="-2162.1" font-family="Times,serif" font-size="14.00">17734</text>
</a>
</g>
</g>
<!-- 2299&#45;&gt;17734 -->
<g id="edge34" class="edge"><title>2299&#45;&gt;17734</title>
<path fill="none" stroke="black" d="M1349.07,-2050.25C1381.54,-2075 1448.4,-2125.95 1481.4,-2151.1"/>
</g>
<!-- 2299&#45;&gt;24273 -->
<g id="edge11" class="edge"><title>2299&#45;&gt;24273</title>
<path fill="none" stroke="black" d="M1308.86,-2024.28C1263.1,-1999.26 1156.96,-1941.22 1109.72,-1915.4"/>
</g>
<!-- 2985 -->
<g id="node6" class="node"><title>2985</title>
<g id="a_node6"><a xlink:title="6th_week">
<ellipse fill="#c81d25" stroke="black" cx="143.965" cy="-1432" rx="28.6953" ry="18"/>
<text text-anchor="middle" x="143.965" y="-1428.3" font-family="Times,serif" font-size="14.00">2985</text>
</a>
</g>
</g>
<!-- 12834 -->
<g id="node32" class="node"><title>12834</title>
<g id="a_node32"><a xlink:title="6th_week">
<ellipse fill="#c81d25" stroke="black" cx="305.248" cy="-1494.52" rx="32.4942" ry="18"/>
<text text-anchor="middle" x="305.248" y="-1490.82" font-family="Times,serif" font-size="14.00">12834</text>
</a>
</g>
</g>
<!-- 2985&#45;&gt;12834 -->
<g id="edge3" class="edge"><title>2985&#45;&gt;12834</title>
<path fill="none" stroke="black" d="M168.461,-1441.5C198.07,-1452.97 247.726,-1472.22 278.366,-1484.1"/>
</g>
<!-- 3134 -->
<g id="node7" class="node"><title>3134</title>
<g id="a_node7"><a xlink:title="6th_week">
<ellipse fill="#c81d25" stroke="black" cx="112.498" cy="-1549.02" rx="28.6953" ry="18"/>
<text text-anchor="middle" x="112.498" y="-1545.32" font-family="Times,serif" font-size="14.00">3134</text>
</a>
</g>
</g>
<!-- 11024 -->
<g id="node29" class="node"><title>11024</title>
<g id="a_node29"><a xlink:title="6th_week">
<ellipse fill="#c81d25" stroke="black" cx="283.682" cy="-1570.12" rx="32.4942" ry="18"/>
<text text-anchor="middle" x="283.682" y="-1566.42" font-family="Times,serif" font-size="14.00">11024</text>
</a>
</g>
</g>
<!-- 3134&#45;&gt;11024 -->
<g id="edge57" class="edge"><title>3134&#45;&gt;11024</title>
<path fill="none" stroke="black" d="M140.765,-1552.5C171.343,-1556.27 219.987,-1562.27 251.879,-1566.2"/>
</g>
<!-- 3810 -->
<g id="node8" class="node"><title>3810</title>
<g id="a_node8"><a xlink:title="6th_week">
<ellipse fill="#c81d25" stroke="black" cx="940.958" cy="-2075.02" rx="28.6953" ry="18"/>
<text text-anchor="middle" x="940.958" y="-2071.32" font-family="Times,serif" font-size="14.00">3810</text>
</a>
</g>
</g>
<!-- 6386 -->
<g id="node19" class="node"><title>6386</title>
<g id="a_node19"><a xlink:title="6th_week">
<ellipse fill="#c81d25" stroke="black" cx="839.393" cy="-2215.03" rx="28.6953" ry="18"/>
<text text-anchor="middle" x="839.393" y="-2211.33" font-family="Times,serif" font-size="14.00">6386</text>
</a>
</g>
</g>
<!-- 3810&#45;&gt;6386 -->
<g id="edge27" class="edge"><title>3810&#45;&gt;6386</title>
<path fill="none" stroke="black" d="M928.908,-2091.63C909.361,-2118.58 870.964,-2171.51 851.427,-2198.44"/>
</g>
<!-- 3810&#45;&gt;24273 -->
<g id="edge28" class="edge"><title>3810&#45;&gt;24273</title>
<path fill="none" stroke="black" d="M954.373,-2059.11C981.924,-2026.43 1044.63,-1952.05 1072.51,-1918.98"/>
</g>
<!-- 3977 -->
<g id="node9" class="node"><title>3977</title>
<g id="a_node9"><a xlink:title="6th_week">
<ellipse fill="#c81d25" stroke="black" cx="1000.38" cy="-1198.61" rx="28.6953" ry="18"/>
<text text-anchor="middle" x="1000.38" y="-1194.91" font-family="Times,serif" font-size="14.00">3977</text>
</a>
</g>
</g>
<!-- 5435 -->
<g id="node13" class="node"><title>5435</title>
<g id="a_node13"><a xlink:title="6th_week">
<ellipse fill="#c81d25" stroke="black" cx="867.327" cy="-1568.02" rx="28.6953" ry="18"/>
<text text-anchor="middle" x="867.327" y="-1564.32" font-family="Times,serif" font-size="14.00">5435</text>
</a>
</g>
</g>
<!-- 3977&#45;&gt;5435 -->
<g id="edge25" class="edge"><title>3977&#45;&gt;5435</title>
<path fill="none" stroke="black" d="M993.959,-1216.42C971.431,-1278.97 896.107,-1488.11 873.68,-1550.38"/>
</g>
<!-- 5446 -->
<g id="node14" class="node"><title>5446</title>
<g id="a_node14"><a xlink:title="6th_week">
<ellipse fill="#c81d25" stroke="black" cx="939.53" cy="-1074.96" rx="28.6953" ry="18"/>
<text text-anchor="middle" x="939.53" y="-1071.26" font-family="Times,serif" font-size="14.00">5446</text>
</a>
</g>
</g>
<!-- 3977&#45;&gt;5446 -->
<g id="edge62" class="edge"><title>3977&#45;&gt;5446</title>
<path fill="none" stroke="black" d="M991.788,-1181.15C980.191,-1157.59 959.649,-1115.84 948.075,-1092.32"/>
</g>
<!-- 20548 -->
<g id="node53" class="node"><title>20548</title>
<g id="a_node53"><a xlink:title="6th_week">
<ellipse fill="#c81d25" stroke="black" cx="1132.03" cy="-843.752" rx="32.4942" ry="18"/>
<text text-anchor="middle" x="1132.03" y="-840.052" font-family="Times,serif" font-size="14.00">20548</text>
</a>
</g>
</g>
<!-- 3977&#45;&gt;20548 -->
<g id="edge63" class="edge"><title>3977&#45;&gt;20548</title>
<path fill="none" stroke="black" d="M1006.91,-1181.01C1029.32,-1120.59 1102.98,-922.031 1125.46,-861.456"/>
</g>
<!-- 24001 -->
<g id="node62" class="node"><title>24001</title>
<g id="a_node62"><a xlink:title="6th_week">
<ellipse fill="#c81d25" stroke="black" cx="1118.34" cy="-1126.34" rx="32.4942" ry="18"/>
<text text-anchor="middle" x="1118.34" y="-1122.64" font-family="Times,serif" font-size="14.00">24001</text>
</a>
</g>
</g>
<!-- 3977&#45;&gt;24001 -->
<g id="edge44" class="edge"><title>3977&#45;&gt;24001</title>
<path fill="none" stroke="black" d="M1020.92,-1186.02C1042.05,-1173.08 1074.82,-1153 1096.43,-1139.76"/>
</g>
<!-- 4889 -->
<g id="node11" class="node"><title>4889</title>
<g id="a_node11"><a xlink:title="6th_week">
<ellipse fill="#c81d25" stroke="black" cx="1234.63" cy="-275.185" rx="28.6953" ry="18"/>
<text text-anchor="middle" x="1234.63" y="-271.485" font-family="Times,serif" font-size="14.00">4889</text>
</a>
</g>
</g>
<!-- 23274 -->
<g id="node57" class="node"><title>23274</title>
<g id="a_node57"><a xlink:title="6th_week">
<ellipse fill="#c81d25" stroke="black" cx="1267.46" cy="-462.886" rx="32.4942" ry="18"/>
<text text-anchor="middle" x="1267.46" y="-459.186" font-family="Times,serif" font-size="14.00">23274</text>
</a>
</g>
</g>
<!-- 4889&#45;&gt;23274 -->
<g id="edge73" class="edge"><title>4889&#45;&gt;23274</title>
<path fill="none" stroke="black" d="M1237.78,-293.182C1244.05,-329.06 1258.05,-409.11 1264.32,-444.942"/>
</g>
<!-- 5108 -->
<g id="node12" class="node"><title>5108</title>
<g id="a_node12"><a xlink:title="6th_week">
<ellipse fill="#c81d25" stroke="black" cx="1374.78" cy="-410.303" rx="28.6953" ry="18"/>
<text text-anchor="middle" x="1374.78" y="-406.603" font-family="Times,serif" font-size="14.00">5108</text>
</a>
</g>
</g>
<!-- 5108&#45;&gt;23274 -->
<g id="edge42" class="edge"><title>5108&#45;&gt;23274</title>
<path fill="none" stroke="black" d="M1352.02,-421.454C1334.42,-430.076 1310.1,-441.994 1292.05,-450.834"/>
</g>
<!-- 8425 -->
<g id="node22" class="node"><title>8425</title>
<g id="a_node22"><a xlink:title="6th_week">
<ellipse fill="#c81d25" stroke="black" cx="778.48" cy="-1456.63" rx="28.6953" ry="18"/>
<text text-anchor="middle" x="778.48" y="-1452.93" font-family="Times,serif" font-size="14.00">8425</text>
</a>
</g>
</g>
<!-- 5435&#45;&gt;8425 -->
<g id="edge56" class="edge"><title>5435&#45;&gt;8425</title>
<path fill="none" stroke="black" d="M854.218,-1551.59C837.323,-1530.41 808.134,-1493.81 791.355,-1472.78"/>
</g>
<!-- 10687 -->
<g id="node27" class="node"><title>10687</title>
<g id="a_node27"><a xlink:title="6th_week">
<ellipse fill="#c81d25" stroke="black" cx="904.655" cy="-1425.92" rx="32.4942" ry="18"/>
<text text-anchor="middle" x="904.655" y="-1422.22" font-family="Times,serif" font-size="14.00">10687</text>
</a>
</g>
</g>
<!-- 5435&#45;&gt;10687 -->
<g id="edge64" class="edge"><title>5435&#45;&gt;10687</title>
<path fill="none" stroke="black" d="M872.055,-1550.02C879.235,-1522.69 892.808,-1471.02 899.966,-1443.77"/>
</g>
<!-- 5435&#45;&gt;17943 -->
<g id="edge6" class="edge"><title>5435&#45;&gt;17943</title>
<path fill="none" stroke="black" d="M838.582,-1569.17C770.787,-1571.89 601.254,-1578.69 529.723,-1581.55"/>
</g>
<!-- 5435&#45;&gt;24273 -->
<g id="edge59" class="edge"><title>5435&#45;&gt;24273</title>
<path fill="none" stroke="black" d="M878.488,-1585.07C916.055,-1642.47 1037.65,-1828.24 1075.18,-1885.58"/>
</g>
<!-- 6104 -->
<g id="node15" class="node"><title>6104</title>
<g id="a_node15"><a xlink:title="6th_week">
<ellipse fill="#c81d25" stroke="black" cx="1037.49" cy="-2157.08" rx="28.6953" ry="18"/>
<text text-anchor="middle" x="1037.49" y="-2153.38" font-family="Times,serif" font-size="14.00">6104</text>
</a>
</g>
</g>
<!-- 7808 -->
<g id="node20" class="node"><title>7808</title>
<g id="a_node20"><a xlink:title="6th_week">
<ellipse fill="#c81d25" stroke="black" cx="1042.85" cy="-2333.43" rx="28.6953" ry="18"/>
<text text-anchor="middle" x="1042.85" y="-2329.73" font-family="Times,serif" font-size="14.00">7808</text>
</a>
</g>
</g>
<!-- 6104&#45;&gt;7808 -->
<g id="edge1" class="edge"><title>6104&#45;&gt;7808</title>
<path fill="none" stroke="black" d="M1038.04,-2175.29C1039.07,-2209.17 1041.27,-2281.52 1042.3,-2315.32"/>
</g>
<!-- 16289 -->
<g id="node40" class="node"><title>16289</title>
<g id="a_node40"><a xlink:title="6th_week">
<ellipse fill="#c81d25" stroke="black" cx="970.526" cy="-2326.2" rx="32.4942" ry="18"/>
<text text-anchor="middle" x="970.526" y="-2322.5" font-family="Times,serif" font-size="14.00">16289</text>
</a>
</g>
</g>
<!-- 6104&#45;&gt;16289 -->
<g id="edge36" class="edge"><title>6104&#45;&gt;16289</title>
<path fill="none" stroke="black" d="M1030.45,-2174.86C1017.59,-2207.34 990.437,-2275.91 977.572,-2308.4"/>
</g>
<!-- 6104&#45;&gt;24273 -->
<g id="edge20" class="edge"><title>6104&#45;&gt;24273</title>
<path fill="none" stroke="black" d="M1040.92,-2139.18C1049.87,-2092.57 1073.81,-1967.78 1082.82,-1920.82"/>
</g>
<!-- 6161 -->
<g id="node16" class="node"><title>6161</title>
<g id="a_node16"><a xlink:title="6th_week">
<ellipse fill="#c81d25" stroke="black" cx="1441.41" cy="-358.969" rx="28.6953" ry="18"/>
<text text-anchor="middle" x="1441.41" y="-355.269" font-family="Times,serif" font-size="14.00">6161</text>
</a>
</g>
</g>
<!-- 6161&#45;&gt;23274 -->
<g id="edge46" class="edge"><title>6161&#45;&gt;23274</title>
<path fill="none" stroke="black" d="M1420.43,-371.504C1387.36,-391.261 1323.4,-429.468 1289.61,-449.651"/>
</g>
<!-- 6176 -->
<g id="node17" class="node"><title>6176</title>
<g id="a_node17"><a xlink:title="6th_week">
<ellipse fill="#c81d25" stroke="black" cx="1273.81" cy="-2546.42" rx="28.6953" ry="18"/>
<text text-anchor="middle" x="1273.81" y="-2542.72" font-family="Times,serif" font-size="14.00">6176</text>
</a>
</g>
</g>
<!-- 23979 -->
<g id="node61" class="node"><title>23979</title>
<g id="a_node61"><a xlink:title="6th_week">
<ellipse fill="#c81d25" stroke="black" cx="1220.2" cy="-2361.85" rx="32.4942" ry="18"/>
<text text-anchor="middle" x="1220.2" y="-2358.15" font-family="Times,serif" font-size="14.00">23979</text>
</a>
</g>
</g>
<!-- 6176&#45;&gt;23979 -->
<g id="edge19" class="edge"><title>6176&#45;&gt;23979</title>
<path fill="none" stroke="black" d="M1268.57,-2528.39C1258.3,-2493.01 1235.61,-2414.9 1225.38,-2379.69"/>
</g>
<!-- 6191 -->
<g id="node18" class="node"><title>6191</title>
<g id="a_node18"><a xlink:title="6th_week">
<ellipse fill="#c81d25" stroke="black" cx="1304.47" cy="-282.738" rx="28.6953" ry="18"/>
<text text-anchor="middle" x="1304.47" y="-279.038" font-family="Times,serif" font-size="14.00">6191</text>
</a>
</g>
</g>
<!-- 6191&#45;&gt;23274 -->
<g id="edge60" class="edge"><title>6191&#45;&gt;23274</title>
<path fill="none" stroke="black" d="M1300.78,-300.67C1293.71,-335.112 1278.29,-410.165 1271.18,-444.759"/>
</g>
<!-- 8104 -->
<g id="node21" class="node"><title>8104</title>
<g id="a_node21"><a xlink:title="6th_week">
<ellipse fill="#c81d25" stroke="black" cx="1454.53" cy="-412.653" rx="28.6953" ry="18"/>
<text text-anchor="middle" x="1454.53" y="-408.953" font-family="Times,serif" font-size="14.00">8104</text>
</a>
</g>
</g>
<!-- 8104&#45;&gt;23274 -->
<g id="edge33" class="edge"><title>8104&#45;&gt;23274</title>
<path fill="none" stroke="black" d="M1428.12,-419.743C1393.48,-429.047 1332.86,-445.324 1296.81,-455.004"/>
</g>
<!-- 9069 -->
<g id="node23" class="node"><title>9069</title>
<g id="a_node23"><a xlink:title="6th_week">
<ellipse fill="#c81d25" stroke="black" cx="942.616" cy="-1982.45" rx="28.6953" ry="18"/>
<text text-anchor="middle" x="942.616" y="-1978.75" font-family="Times,serif" font-size="14.00">9069</text>
</a>
</g>
</g>
<!-- 9069&#45;&gt;24273 -->
<g id="edge35" class="edge"><title>9069&#45;&gt;24273</title>
<path fill="none" stroke="black" d="M964.13,-1970.49C990.751,-1955.7 1035.9,-1930.62 1063.23,-1915.43"/>
</g>
<!-- 10615 -->
<g id="node26" class="node"><title>10615</title>
<g id="a_node26"><a xlink:title="6th_week">
<ellipse fill="#c81d25" stroke="black" cx="1098.94" cy="-471.773" rx="32.4942" ry="18"/>
<text text-anchor="middle" x="1098.94" y="-468.073" font-family="Times,serif" font-size="14.00">10615</text>
</a>
</g>
</g>
<!-- 10615&#45;&gt;23274 -->
<g id="edge41" class="edge"><title>10615&#45;&gt;23274</title>
<path fill="none" stroke="black" d="M1131.43,-470.059C1161.27,-468.486 1205.26,-466.166 1235.06,-464.594"/>
</g>
<!-- 10784 -->
<g id="node28" class="node"><title>10784</title>
<g id="a_node28"><a xlink:title="6th_week">
<ellipse fill="#c81d25" stroke="black" cx="1274.98" cy="-614.29" rx="32.4942" ry="18"/>
<text text-anchor="middle" x="1274.98" y="-610.59" font-family="Times,serif" font-size="14.00">10784</text>
</a>
</g>
</g>
<!-- 10784&#45;&gt;23274 -->
<g id="edge29" class="edge"><title>10784&#45;&gt;23274</title>
<path fill="none" stroke="black" d="M1274.07,-596.027C1272.62,-566.927 1269.81,-510.355 1268.37,-481.213"/>
</g>
<!-- 11024&#45;&gt;17943 -->
<g id="edge22" class="edge"><title>11024&#45;&gt;17943</title>
<path fill="none" stroke="black" d="M316.091,-1572.05C356.314,-1574.46 424.502,-1578.53 464.704,-1580.93"/>
</g>
<!-- 11214 -->
<g id="node30" class="node"><title>11214</title>
<g id="a_node30"><a xlink:title="6th_week">
<ellipse fill="#c81d25" stroke="black" cx="1102.91" cy="-349.553" rx="32.4942" ry="18"/>
<text text-anchor="middle" x="1102.91" y="-345.853" font-family="Times,serif" font-size="14.00">11214</text>
</a>
</g>
</g>
<!-- 11214&#45;&gt;23274 -->
<g id="edge40" class="edge"><title>11214&#45;&gt;23274</title>
<path fill="none" stroke="black" d="M1123.41,-363.678C1155.03,-385.455 1215.33,-426.985 1246.95,-448.762"/>
</g>
<!-- 12417 -->
<g id="node31" class="node"><title>12417</title>
<g id="a_node31"><a xlink:title="6th_week">
<ellipse fill="#c81d25" stroke="black" cx="1658.41" cy="-2280.32" rx="32.4942" ry="18"/>
<text text-anchor="middle" x="1658.41" y="-2276.62" font-family="Times,serif" font-size="14.00">12417</text>
</a>
</g>
</g>
<!-- 12417&#45;&gt;17734 -->
<g id="edge50" class="edge"><title>12417&#45;&gt;17734</title>
<path fill="none" stroke="black" d="M1638.43,-2265.82C1608.1,-2243.79 1550.75,-2202.14 1520.51,-2180.19"/>
</g>
<!-- 12834&#45;&gt;17943 -->
<g id="edge12" class="edge"><title>12834&#45;&gt;17943</title>
<path fill="none" stroke="black" d="M330.325,-1506.07C367.087,-1523 435.219,-1554.38 471.984,-1571.31"/>
</g>
<!-- 13168 -->
<g id="node33" class="node"><title>13168</title>
<g id="a_node33"><a xlink:title="6th_week">
<ellipse fill="#c81d25" stroke="black" cx="1097.32" cy="-405.519" rx="32.4942" ry="18"/>
<text text-anchor="middle" x="1097.32" y="-401.819" font-family="Times,serif" font-size="14.00">13168</text>
</a>
</g>
</g>
<!-- 13168&#45;&gt;23274 -->
<g id="edge16" class="edge"><title>13168&#45;&gt;23274</title>
<path fill="none" stroke="black" d="M1125.41,-414.992C1157.03,-425.653 1208.08,-442.866 1239.6,-453.494"/>
</g>
<!-- 13766 -->
<g id="node34" class="node"><title>13766</title>
<g id="a_node34"><a xlink:title="6th_week">
<ellipse fill="#c81d25" stroke="black" cx="1347.25" cy="-203.459" rx="32.4942" ry="18"/>
<text text-anchor="middle" x="1347.25" y="-199.759" font-family="Times,serif" font-size="14.00">13766</text>
</a>
</g>
</g>
<!-- 16077 -->
<g id="node39" class="node"><title>16077</title>
<g id="a_node39"><a xlink:title="6th_week">
<ellipse fill="#c81d25" stroke="black" cx="1441.48" cy="-43.7684" rx="32.4942" ry="18"/>
<text text-anchor="middle" x="1441.48" y="-40.0684" font-family="Times,serif" font-size="14.00">16077</text>
</a>
</g>
</g>
<!-- 13766&#45;&gt;16077 -->
<g id="edge23" class="edge"><title>13766&#45;&gt;16077</title>
<path fill="none" stroke="black" d="M1357.51,-186.066C1375.64,-155.348 1413.11,-91.8433 1431.23,-61.1407"/>
</g>
<!-- 13766&#45;&gt;23274 -->
<g id="edge24" class="edge"><title>13766&#45;&gt;23274</title>
<path fill="none" stroke="black" d="M1341.77,-221.291C1327.19,-268.684 1287.6,-397.394 1272.98,-444.929"/>
</g>
<!-- 13601 -->
<g id="node77" class="node"><title>13601</title>
<g id="a_node77"><a xlink:title="6th_week">
<ellipse fill="#c81d25" stroke="black" cx="1359.15" cy="-17.6603" rx="32.4942" ry="18"/>
<text text-anchor="middle" x="1359.15" y="-13.9603" font-family="Times,serif" font-size="14.00">13601</text>
</a>
</g>
</g>
<!-- 13766&#45;&gt;13601 -->
<g id="edge72" class="edge"><title>13766&#45;&gt;13601</title>
<path fill="none" stroke="black" d="M1348.41,-185.306C1350.69,-149.785 1355.7,-71.467 1357.98,-35.8875"/>
</g>
<!-- 14105 -->
<g id="node35" class="node"><title>14105</title>
<g id="a_node35"><a xlink:title="6th_week">
<ellipse fill="#c81d25" stroke="black" cx="1141.27" cy="-1749.08" rx="32.4942" ry="18"/>
<text text-anchor="middle" x="1141.27" y="-1745.38" font-family="Times,serif" font-size="14.00">14105</text>
</a>
</g>
</g>
<!-- 14105&#45;&gt;24273 -->
<g id="edge43" class="edge"><title>14105&#45;&gt;24273</title>
<path fill="none" stroke="black" d="M1134.86,-1766.99C1124.27,-1796.57 1103.25,-1855.3 1092.69,-1884.8"/>
</g>
<!-- 14433 -->
<g id="node36" class="node"><title>14433</title>
<g id="a_node36"><a xlink:title="6th_week">
<ellipse fill="#c81d25" stroke="black" cx="1248.39" cy="-1922.24" rx="32.4942" ry="18"/>
<text text-anchor="middle" x="1248.39" y="-1918.54" font-family="Times,serif" font-size="14.00">14433</text>
</a>
</g>
</g>
<!-- 14433&#45;&gt;24273 -->
<g id="edge39" class="edge"><title>14433&#45;&gt;24273</title>
<path fill="none" stroke="black" d="M1216.37,-1918.36C1187.96,-1914.92 1146.67,-1909.91 1118.27,-1906.47"/>
</g>
<!-- 14985 -->
<g id="node37" class="node"><title>14985</title>
<g id="a_node37"><a xlink:title="6th_week">
<ellipse fill="#c81d25" stroke="black" cx="1237.33" cy="-1838.27" rx="32.4942" ry="18"/>
<text text-anchor="middle" x="1237.33" y="-1834.57" font-family="Times,serif" font-size="14.00">14985</text>
</a>
</g>
</g>
<!-- 14985&#45;&gt;24273 -->
<g id="edge26" class="edge"><title>14985&#45;&gt;24273</title>
<path fill="none" stroke="black" d="M1211.37,-1849.33C1183.63,-1861.15 1139.9,-1879.77 1112.19,-1891.58"/>
</g>
<!-- 15968 -->
<g id="node38" class="node"><title>15968</title>
<g id="a_node38"><a xlink:title="6th_week">
<ellipse fill="#c81d25" stroke="black" cx="183.319" cy="-1311.65" rx="32.4942" ry="18"/>
<text text-anchor="middle" x="183.319" y="-1307.95" font-family="Times,serif" font-size="14.00">15968</text>
</a>
</g>
</g>
<!-- 19114 -->
<g id="node47" class="node"><title>19114</title>
<g id="a_node47"><a xlink:title="6th_week">
<ellipse fill="#c81d25" stroke="black" cx="333.79" cy="-1405.64" rx="32.4942" ry="18"/>
<text text-anchor="middle" x="333.79" y="-1401.94" font-family="Times,serif" font-size="14.00">19114</text>
</a>
</g>
</g>
<!-- 15968&#45;&gt;19114 -->
<g id="edge5" class="edge"><title>15968&#45;&gt;19114</title>
<path fill="none" stroke="black" d="M205.198,-1325.31C233.727,-1343.13 283.342,-1374.12 311.884,-1391.95"/>
</g>
<!-- 16889 -->
<g id="node41" class="node"><title>16889</title>
<g id="a_node41"><a xlink:title="6th_week">
<ellipse fill="#c81d25" stroke="black" cx="1176.18" cy="-383.464" rx="32.4942" ry="18"/>
<text text-anchor="middle" x="1176.18" y="-379.764" font-family="Times,serif" font-size="14.00">16889</text>
</a>
</g>
</g>
<!-- 16889&#45;&gt;23274 -->
<g id="edge58" class="edge"><title>16889&#45;&gt;23274</title>
<path fill="none" stroke="black" d="M1193.78,-398.777C1209.94,-412.841 1233.77,-433.57 1249.91,-447.619"/>
</g>
<!-- 17943&#45;&gt;19114 -->
<g id="edge65" class="edge"><title>17943&#45;&gt;19114</title>
<path fill="none" stroke="black" d="M482.29,-1566.82C451.282,-1533.17 379.733,-1455.5 348.652,-1421.77"/>
</g>
<!-- 19835 -->
<g id="node50" class="node"><title>19835</title>
<g id="a_node50"><a xlink:title="6th_week">
<ellipse fill="#c81d25" stroke="black" cx="349.447" cy="-1635.35" rx="32.4942" ry="18"/>
<text text-anchor="middle" x="349.447" y="-1631.65" font-family="Times,serif" font-size="14.00">19835</text>
</a>
</g>
</g>
<!-- 17943&#45;&gt;19835 -->
<g id="edge7" class="edge"><title>17943&#45;&gt;19835</title>
<path fill="none" stroke="black" d="M469.647,-1592.61C443.216,-1602.01 403.437,-1616.15 376.971,-1625.56"/>
</g>
<!-- 19963 -->
<g id="node51" class="node"><title>19963</title>
<g id="a_node51"><a xlink:title="6th_week">
<ellipse fill="#c81d25" stroke="black" cx="456.148" cy="-1435.74" rx="32.4942" ry="18"/>
<text text-anchor="middle" x="456.148" y="-1432.04" font-family="Times,serif" font-size="14.00">19963</text>
</a>
</g>
</g>
<!-- 17943&#45;&gt;19963 -->
<g id="edge61" class="edge"><title>17943&#45;&gt;19963</title>
<path fill="none" stroke="black" d="M492.05,-1564.82C484.196,-1536.59 469.085,-1482.26 461.207,-1453.93"/>
</g>
<!-- 23631 -->
<g id="node59" class="node"><title>23631</title>
<g id="a_node59"><a xlink:title="6th_week">
<ellipse fill="#c81d25" stroke="black" cx="464.376" cy="-1738.29" rx="32.4942" ry="18"/>
<text text-anchor="middle" x="464.376" y="-1734.59" font-family="Times,serif" font-size="14.00">23631</text>
</a>
</g>
</g>
<!-- 17943&#45;&gt;23631 -->
<g id="edge17" class="edge"><title>17943&#45;&gt;23631</title>
<path fill="none" stroke="black" d="M493.253,-1601C486.954,-1630.95 474.449,-1690.4 468.166,-1720.27"/>
</g>
<!-- 17943&#45;&gt;15583 -->
<g id="edge32" class="edge"><title>17943&#45;&gt;15583</title>
<path fill="none" stroke="black" d="M473.093,-1595.1C419.967,-1622.2 292.856,-1687.06 239.787,-1714.14"/>
</g>
<!-- 18382 -->
<g id="node44" class="node"><title>18382</title>
<g id="a_node44"><a xlink:title="6th_week">
<ellipse fill="#c81d25" stroke="black" cx="1380.02" cy="-605.076" rx="32.4942" ry="18"/>
<text text-anchor="middle" x="1380.02" y="-601.376" font-family="Times,serif" font-size="14.00">18382</text>
</a>
</g>
</g>
<!-- 18382&#45;&gt;23274 -->
<g id="edge30" class="edge"><title>18382&#45;&gt;23274</title>
<path fill="none" stroke="black" d="M1366.88,-588.487C1345.31,-561.235 1302.6,-507.279 1280.85,-479.81"/>
</g>
<!-- 18691 -->
<g id="node45" class="node"><title>18691</title>
<g id="a_node45"><a xlink:title="6th_week">
<ellipse fill="#c81d25" stroke="black" cx="1015.46" cy="-2026.04" rx="32.4942" ry="18"/>
<text text-anchor="middle" x="1015.46" y="-2022.34" font-family="Times,serif" font-size="14.00">18691</text>
</a>
</g>
</g>
<!-- 18691&#45;&gt;24273 -->
<g id="edge74" class="edge"><title>18691&#45;&gt;24273</title>
<path fill="none" stroke="black" d="M1025.31,-2008.87C1038.77,-1985.42 1062.78,-1943.6 1076.32,-1920.02"/>
</g>
<!-- 18869 -->
<g id="node46" class="node"><title>18869</title>
<g id="a_node46"><a xlink:title="6th_week">
<ellipse fill="#c81d25" stroke="black" cx="1332.18" cy="-336.071" rx="32.4942" ry="18"/>
<text text-anchor="middle" x="1332.18" y="-332.371" font-family="Times,serif" font-size="14.00">18869</text>
</a>
</g>
</g>
<!-- 18869&#45;&gt;23274 -->
<g id="edge69" class="edge"><title>18869&#45;&gt;23274</title>
<path fill="none" stroke="black" d="M1323.31,-353.438C1310.99,-377.587 1288.8,-421.067 1276.42,-445.321"/>
</g>
<!-- 21152 -->
<g id="node54" class="node"><title>21152</title>
<g id="a_node54"><a xlink:title="6th_week">
<ellipse fill="#c81d25" stroke="black" cx="240.875" cy="-1259.75" rx="32.4942" ry="18"/>
<text text-anchor="middle" x="240.875" y="-1256.05" font-family="Times,serif" font-size="14.00">21152</text>
</a>
</g>
</g>
<!-- 19114&#45;&gt;21152 -->
<g id="edge15" class="edge"><title>19114&#45;&gt;21152</title>
<path fill="none" stroke="black" d="M322.95,-1388.62C305.142,-1360.66 269.884,-1305.3 251.934,-1277.12"/>
</g>
<!-- 19223 -->
<g id="node48" class="node"><title>19223</title>
<g id="a_node48"><a xlink:title="6th_week">
<ellipse fill="#c81d25" stroke="black" cx="1060.65" cy="-1759.59" rx="32.4942" ry="18"/>
<text text-anchor="middle" x="1060.65" y="-1755.89" font-family="Times,serif" font-size="14.00">19223</text>
</a>
</g>
</g>
<!-- 19223&#45;&gt;24273 -->
<g id="edge37" class="edge"><title>19223&#45;&gt;24273</title>
<path fill="none" stroke="black" d="M1063.9,-1777.7C1068.84,-1805.21 1078.17,-1857.21 1083.1,-1884.64"/>
</g>
<!-- 19508 -->
<g id="node49" class="node"><title>19508</title>
<g id="a_node49"><a xlink:title="6th_week">
<ellipse fill="#c81d25" stroke="black" cx="924.487" cy="-1913.8" rx="32.4942" ry="18"/>
<text text-anchor="middle" x="924.487" y="-1910.1" font-family="Times,serif" font-size="14.00">19508</text>
</a>
</g>
</g>
<!-- 19508&#45;&gt;24273 -->
<g id="edge66" class="edge"><title>19508&#45;&gt;24273</title>
<path fill="none" stroke="black" d="M956.848,-1911.56C985.073,-1909.61 1025.81,-1906.79 1054.02,-1904.84"/>
</g>
<!-- 20154 -->
<g id="node52" class="node"><title>20154</title>
<g id="a_node52"><a xlink:title="6th_week">
<ellipse fill="#c81d25" stroke="black" cx="1161.49" cy="-2035.93" rx="32.4942" ry="18"/>
<text text-anchor="middle" x="1161.49" y="-2032.23" font-family="Times,serif" font-size="14.00">20154</text>
</a>
</g>
</g>
<!-- 20154&#45;&gt;24273 -->
<g id="edge14" class="edge"><title>20154&#45;&gt;24273</title>
<path fill="none" stroke="black" d="M1151.66,-2018.5C1137.25,-1992.95 1110.56,-1945.59 1096.15,-1920.04"/>
</g>
<!-- 20548&#45;&gt;23274 -->
<g id="edge9" class="edge"><title>20548&#45;&gt;23274</title>
<path fill="none" stroke="black" d="M1138.38,-825.893C1161.12,-761.918 1238.39,-544.619 1261.12,-480.706"/>
</g>
<!-- 22213 -->
<g id="node55" class="node"><title>22213</title>
<g id="a_node55"><a xlink:title="6th_week">
<ellipse fill="#c81d25" stroke="black" cx="1419" cy="-312.349" rx="32.4942" ry="18"/>
<text text-anchor="middle" x="1419" y="-308.649" font-family="Times,serif" font-size="14.00">22213</text>
</a>
</g>
</g>
<!-- 22213&#45;&gt;23274 -->
<g id="edge70" class="edge"><title>22213&#45;&gt;23274</title>
<path fill="none" stroke="black" d="M1403.06,-328.175C1374.04,-357.011 1312.84,-417.806 1283.63,-446.819"/>
</g>
<!-- 22427 -->
<g id="node56" class="node"><title>22427</title>
<g id="a_node56"><a xlink:title="6th_week">
<ellipse fill="#c81d25" stroke="black" cx="1158.56" cy="-2152.18" rx="32.4942" ry="18"/>
<text text-anchor="middle" x="1158.56" y="-2148.48" font-family="Times,serif" font-size="14.00">22427</text>
</a>
</g>
</g>
<!-- 22427&#45;&gt;23979 -->
<g id="edge38" class="edge"><title>22427&#45;&gt;23979</title>
<path fill="none" stroke="black" d="M1163.81,-2170.05C1175.46,-2209.67 1203.33,-2304.45 1214.96,-2344.02"/>
</g>
<!-- 22427&#45;&gt;24273 -->
<g id="edge76" class="edge"><title>22427&#45;&gt;24273</title>
<path fill="none" stroke="black" d="M1153.36,-2134.23C1140.03,-2088.18 1104.74,-1966.26 1091.47,-1920.39"/>
</g>
<!-- 24429 -->
<g id="node66" class="node"><title>24429</title>
<g id="a_node66"><a xlink:title="6th_week">
<ellipse fill="#c81d25" stroke="black" cx="1456.72" cy="-465.224" rx="32.4942" ry="18"/>
<text text-anchor="middle" x="1456.72" y="-461.524" font-family="Times,serif" font-size="14.00">24429</text>
</a>
</g>
</g>
<!-- 23274&#45;&gt;24429 -->
<g id="edge31" class="edge"><title>23274&#45;&gt;24429</title>
<path fill="none" stroke="black" d="M1299.99,-463.288C1334.66,-463.716 1389.23,-464.39 1423.98,-464.82"/>
</g>
<!-- 25375 -->
<g id="node67" class="node"><title>25375</title>
<g id="a_node67"><a xlink:title="6th_week">
<ellipse fill="#c81d25" stroke="black" cx="1460.9" cy="-515.511" rx="32.4942" ry="18"/>
<text text-anchor="middle" x="1460.9" y="-511.811" font-family="Times,serif" font-size="14.00">25375</text>
</a>
</g>
</g>
<!-- 23274&#45;&gt;25375 -->
<g id="edge47" class="edge"><title>23274&#45;&gt;25375</title>
<path fill="none" stroke="black" d="M1296.84,-470.878C1333.3,-480.798 1395.11,-497.614 1431.56,-507.529"/>
</g>
<!-- 14092 -->
<g id="node73" class="node"><title>14092</title>
<g id="a_node73"><a xlink:title="6th_week">
<ellipse fill="#c81d25" stroke="black" cx="1137.05" cy="-545.538" rx="32.4942" ry="18"/>
<text text-anchor="middle" x="1137.05" y="-541.838" font-family="Times,serif" font-size="14.00">14092</text>
</a>
</g>
</g>
<!-- 23274&#45;&gt;14092 -->
<g id="edge68" class="edge"><title>23274&#45;&gt;14092</title>
<path fill="none" stroke="black" d="M1245.92,-476.534C1221.76,-491.848 1182.79,-516.547 1158.62,-531.869"/>
</g>
<!-- 19380 -->
<g id="node74" class="node"><title>19380</title>
<g id="a_node74"><a xlink:title="6th_week">
<ellipse fill="#c81d25" stroke="black" cx="1161.1" cy="-296.98" rx="32.4942" ry="18"/>
<text text-anchor="middle" x="1161.1" y="-293.28" font-family="Times,serif" font-size="14.00">19380</text>
</a>
</g>
</g>
<!-- 23274&#45;&gt;19380 -->
<g id="edge10" class="edge"><title>23274&#45;&gt;19380</title>
<path fill="none" stroke="black" d="M1256.47,-445.756C1236.09,-413.964 1192.63,-346.174 1172.18,-314.266"/>
</g>
<!-- 2022 -->
<g id="node75" class="node"><title>2022</title>
<g id="a_node75"><a xlink:title="6th_week">
<ellipse fill="#c81d25" stroke="black" cx="1391.22" cy="-550.727" rx="28.6953" ry="18"/>
<text text-anchor="middle" x="1391.22" y="-547.027" font-family="Times,serif" font-size="14.00">2022</text>
</a>
</g>
</g>
<!-- 23274&#45;&gt;2022 -->
<g id="edge75" class="edge"><title>23274&#45;&gt;2022</title>
<path fill="none" stroke="black" d="M1287.62,-477.194C1310.91,-493.723 1348.95,-520.726 1371.88,-537.003"/>
</g>
<!-- 12701 -->
<g id="node76" class="node"><title>12701</title>
<g id="a_node76"><a xlink:title="6th_week">
<ellipse fill="#c81d25" stroke="black" cx="1236.58" cy="-328.338" rx="32.4942" ry="18"/>
<text text-anchor="middle" x="1236.58" y="-324.638" font-family="Times,serif" font-size="14.00">12701</text>
</a>
</g>
</g>
<!-- 23274&#45;&gt;12701 -->
<g id="edge54" class="edge"><title>23274&#45;&gt;12701</title>
<path fill="none" stroke="black" d="M1263.36,-445.019C1257.45,-419.284 1246.61,-372.054 1240.7,-346.278"/>
</g>
<!-- 23365 -->
<g id="node58" class="node"><title>23365</title>
<g id="a_node58"><a xlink:title="6th_week">
<ellipse fill="#c81d25" stroke="black" cx="1237.96" cy="-1989.7" rx="32.4942" ry="18"/>
<text text-anchor="middle" x="1237.96" y="-1986" font-family="Times,serif" font-size="14.00">23365</text>
</a>
</g>
</g>
<!-- 23365&#45;&gt;24273 -->
<g id="edge2" class="edge"><title>23365&#45;&gt;24273</title>
<path fill="none" stroke="black" d="M1215.26,-1976.66C1186.67,-1960.24 1137.84,-1932.19 1109.18,-1915.73"/>
</g>
<!-- 23846 -->
<g id="node60" class="node"><title>23846</title>
<g id="a_node60"><a xlink:title="6th_week">
<ellipse fill="#c81d25" stroke="black" cx="1083.27" cy="-2076.16" rx="32.4942" ry="18"/>
<text text-anchor="middle" x="1083.27" y="-2072.46" font-family="Times,serif" font-size="14.00">23846</text>
</a>
</g>
</g>
<!-- 23846&#45;&gt;24273 -->
<g id="edge55" class="edge"><title>23846&#45;&gt;24273</title>
<path fill="none" stroke="black" d="M1083.59,-2057.92C1084.18,-2024.5 1085.42,-1953.84 1086,-1920.6"/>
</g>
<!-- 24069 -->
<g id="node63" class="node"><title>24069</title>
<g id="a_node63"><a xlink:title="6th_week">
<ellipse fill="#c81d25" stroke="black" cx="1223.69" cy="-1786.84" rx="32.4942" ry="18"/>
<text text-anchor="middle" x="1223.69" y="-1783.14" font-family="Times,serif" font-size="14.00">24069</text>
</a>
</g>
</g>
<!-- 24069&#45;&gt;24273 -->
<g id="edge67" class="edge"><title>24069&#45;&gt;24273</title>
<path fill="none" stroke="black" d="M1205.74,-1801.98C1179.41,-1824.16 1130.61,-1865.28 1104.28,-1887.46"/>
</g>
<!-- 24359 -->
<g id="node65" class="node"><title>24359</title>
<g id="a_node65"><a xlink:title="6th_week">
<ellipse fill="#c81d25" stroke="black" cx="960.761" cy="-1829.04" rx="32.4942" ry="18"/>
<text text-anchor="middle" x="960.761" y="-1825.34" font-family="Times,serif" font-size="14.00">24359</text>
</a>
</g>
</g>
<!-- 24273&#45;&gt;24359 -->
<g id="edge4" class="edge"><title>24273&#45;&gt;24359</title>
<path fill="none" stroke="black" d="M1063.87,-1889.45C1041.16,-1876.14 1006.23,-1855.68 983.437,-1842.32"/>
</g>
<!-- 5577 -->
<g id="node68" class="node"><title>5577</title>
<g id="a_node68"><a xlink:title="6th_week">
<ellipse fill="#c81d25" stroke="black" cx="54.9219" cy="-1804.95" rx="28.6953" ry="18"/>
<text text-anchor="middle" x="54.9219" y="-1801.25" font-family="Times,serif" font-size="14.00">5577</text>
</a>
</g>
</g>
<!-- 5577&#45;&gt;15583 -->
<g id="edge51" class="edge"><title>5577&#45;&gt;15583</title>
<path fill="none" stroke="black" d="M77.6409,-1793.85C107.71,-1779.17 160.515,-1753.38 191.426,-1738.28"/>
</g>
<!-- 9175 -->
<g id="node69" class="node"><title>9175</title>
<g id="a_node69"><a xlink:title="6th_week">
<ellipse fill="#c81d25" stroke="black" cx="82.3517" cy="-1851.03" rx="28.6953" ry="18"/>
<text text-anchor="middle" x="82.3517" y="-1847.33" font-family="Times,serif" font-size="14.00">9175</text>
</a>
</g>
</g>
<!-- 9175&#45;&gt;15583 -->
<g id="edge8" class="edge"><title>9175&#45;&gt;15583</title>
<path fill="none" stroke="black" d="M98.4575,-1835.99C123.982,-1812.16 173.472,-1765.94 199.292,-1741.83"/>
</g>
<!-- 19852 -->
<g id="node71" class="node"><title>19852</title>
<g id="a_node71"><a xlink:title="6th_week">
<ellipse fill="#c81d25" stroke="black" cx="151.594" cy="-1889.05" rx="32.4942" ry="18"/>
<text text-anchor="middle" x="151.594" y="-1885.35" font-family="Times,serif" font-size="14.00">19852</text>
</a>
</g>
</g>
<!-- 15583&#45;&gt;19852 -->
<g id="edge45" class="edge"><title>15583&#45;&gt;19852</title>
<path fill="none" stroke="black" d="M208.872,-1744.06C196.507,-1775.36 170.946,-1840.07 158.587,-1871.35"/>
</g>
<!-- 21779 -->
<g id="node72" class="node"><title>21779</title>
<g id="a_node72"><a xlink:title="6th_week">
<ellipse fill="#c81d25" stroke="black" cx="32.1413" cy="-1754.98" rx="32.4942" ry="18"/>
<text text-anchor="middle" x="32.1413" y="-1751.28" font-family="Times,serif" font-size="14.00">21779</text>
</a>
</g>
</g>
<!-- 15583&#45;&gt;21779 -->
<g id="edge53" class="edge"><title>15583&#45;&gt;21779</title>
<path fill="none" stroke="black" d="M184.289,-1731.26C150.533,-1736.53 97.336,-1744.82 63.6207,-1750.07"/>
</g>
</g>
</svg>
